<?xml version="1.0" encoding="UTF-8" standalone="no"?>
<!DOCTYPE svg PUBLIC "-//W3C//DTD SVG 1.1//EN"
 "http://www.w3.org/Graphics/SVG/1.1/DTD/svg11.dtd">
<!-- Generated by graphviz version 9.0.0 (20230911.1827)
 -->
<!-- Title: ee/iopreboot/src/SifIopRebootBuffer.c Pages: 1 -->
<!--zoomable 315 -->

<svg id="main" version="1.1" xmlns="http://www.w3.org/2000/svg" xmlns:xlink="http://www.w3.org/1999/xlink" xml:space="preserve" onload="init(evt)">
<style type="text/css"><![CDATA[
.node, .edge {opacity: 0.7;}
.node.selected, .edge.selected {opacity: 1;}
.edge:hover path { stroke: red; }
.edge:hover polygon { stroke: red; fill: red; }
]]></style>

<defs>
  <circle id="rim" cx="0" cy="0" r="7"/>
  <circle id="rim2" cx="0" cy="0" r="3.5"/>
  <g id="zoomPlus">
    <use xlink:href="#rim" fill="#404040"><set attributeName="fill" to="#808080" begin="zoomplus.mouseover" end="zoomplus.mouseout"/></use>
    <path d="M-4,0h8M0,-4v8" fill="none" stroke="white" stroke-width="1.5" pointer-events="none"/>
  </g>
  <g id="zoomMin">
    <use xlink:href="#rim" fill="#404040"><set attributeName="fill" to="#808080" begin="zoomminus.mouseover" end="zoomminus.mouseout"/></use>
    <path d="M-4,0h8" fill="none" stroke="white" stroke-width="1.5" pointer-events="none"/>
  </g>
  <g id="arrowUp" transform="translate(30 24)">
    <use xlink:href="#rim"/>
    <path pointer-events="none" fill="none" stroke="white" stroke-width="1.5" d="M0,-3.0v7 M-2.5,-0.5L0,-3.0L2.5,-0.5"/>
  </g>
  <g id="arrowRight" transform="rotate(90) translate(36 -43)">
    <use xlink:href="#rim"/>
    <path pointer-events="none" fill="none" stroke="white" stroke-width="1.5" d="M0,-3.0v7 M-2.5,-0.5L0,-3.0L2.5,-0.5"/>
  </g>
  <g id="arrowDown" transform="rotate(180) translate(-30 -48)">
    <use xlink:href="#rim"/>
    <path pointer-events="none" fill="none" stroke="white" stroke-width="1.5" d="M0,-3.0v7 M-2.5,-0.5L0,-3.0L2.5,-0.5"/>
  </g>
  <g id="arrowLeft" transform="rotate(270) translate(-36 17)">
    <use xlink:href="#rim"/>
    <path pointer-events="none" fill="none" stroke="white" stroke-width="1.5" d="M0,-3.0v7 M-2.5,-0.5L0,-3.0L2.5,-0.5"/>
  </g>
  <g id="resetDef">
    <use xlink:href="#rim2" fill="#404040"><set attributeName="fill" to="#808080" begin="reset.mouseover" end="reset.mouseout"/></use>
  </g>
</defs>
<script type="application/ecmascript">
var viewWidth = 776;
var viewHeight = 315;
var sectionId = 'dynsection-0';
</script>
<script type="application/ecmascript" xlink:href="svg.min.js"/>
<svg id="graph" class="graph">
<g id="viewport">
<title>ee/iopreboot/src/SifIopRebootBuffer.c</title>
<!-- Node1 -->
<g id="Node000001" class="node">
<title>Node1</title>
<g id="a_Node000001"><a xlink:title=" ">
<polygon fill="#999999" stroke="#666666" points="450.61,-306.75 305.61,-306.75 305.61,-276.25 450.61,-276.25 450.61,-306.75"/>
<text text-anchor="start" x="313.61" y="-293.25" font-family="Helvetica,sans-Serif" font-size="10.00">ee/iopreboot/src/SifIopReboot</text>
<text text-anchor="middle" x="378.11" y="-282" font-family="Helvetica,sans-Serif" font-size="10.00">Buffer.c</text>
</a>
</g>
</g>
<!-- Node2 -->
<g id="Node000002" class="node">
<title>Node2</title>
<g id="a_Node000002"><a xlink:href="kernel_8h.html" target="_top" xlink:title=" ">
<polygon fill="white" stroke="#666666" points="110.99,-185 61.24,-185 61.24,-165.75 110.99,-165.75 110.99,-185"/>
<text text-anchor="middle" x="86.11" y="-171.5" font-family="Helvetica,sans-Serif" font-size="10.00">kernel.h</text>
</a>
</g>
</g>
<!-- Node1&#45;&gt;Node2 -->
<g id="edge1_Node000001_Node000002" class="edge">
<title>Node1&#45;&gt;Node2</title>
<g id="a_edge1_Node000001_Node000002"><a xlink:title=" ">
<path fill="none" stroke="#63b8ff" d="M306.3,-275.82C271.39,-267.48 229.26,-255.61 193.11,-240.25 161.97,-227.02 128.94,-206.11 107.95,-191.85"/>
<polygon fill="#63b8ff" stroke="#63b8ff" points="110.14,-189.11 99.92,-186.3 106.16,-194.87 110.14,-189.11"/>
</a>
</g>
</g>
<!-- Node5 -->
<g id="Node000005" class="node">
<title>Node5</title>
<g id="a_Node000005"><a xlink:href="sifdma_8h.html" target="_top" xlink:title=" ">
<polygon fill="white" stroke="#666666" points="328.49,-129.75 275.74,-129.75 275.74,-110.5 328.49,-110.5 328.49,-129.75"/>
<text text-anchor="middle" x="302.11" y="-116.25" font-family="Helvetica,sans-Serif" font-size="10.00">sifdma.h</text>
</a>
</g>
</g>
<!-- Node1&#45;&gt;Node5 -->
<g id="edge13_Node000001_Node000005" class="edge">
<title>Node1&#45;&gt;Node5</title>
<g id="a_edge13_Node000001_Node000005"><a xlink:title=" ">
<path fill="none" stroke="#63b8ff" d="M359.26,-276.17C348.54,-267.04 335.77,-254.3 328.11,-240.25 310.85,-208.58 305.05,-166.3 303.1,-141.56"/>
<polygon fill="#63b8ff" stroke="#63b8ff" points="306.59,-141.35 302.47,-131.59 299.61,-141.8 306.59,-141.35"/>
</a>
</g>
</g>
<!-- Node7 -->
<g id="Node000007" class="node">
<title>Node7</title>
<g id="a_Node000007"><a xlink:href="iopcontrol_8h.html" target="_top" xlink:title=" ">
<polygon fill="white" stroke="#666666" points="410.86,-240.25 345.36,-240.25 345.36,-221 410.86,-221 410.86,-240.25"/>
<text text-anchor="middle" x="378.11" y="-226.75" font-family="Helvetica,sans-Serif" font-size="10.00">iopcontrol.h</text>
</a>
</g>
</g>
<!-- Node1&#45;&gt;Node7 -->
<g id="edge6_Node000001_Node000007" class="edge">
<title>Node1&#45;&gt;Node7</title>
<g id="a_edge6_Node000001_Node000007"><a xlink:title=" ">
<path fill="none" stroke="#63b8ff" d="M378.11,-275.95C378.11,-268.71 378.11,-259.84 378.11,-251.94"/>
<polygon fill="#63b8ff" stroke="#63b8ff" points="381.61,-252.21 378.11,-242.21 374.61,-252.21 381.61,-252.21"/>
</a>
</g>
</g>
<!-- Node8 -->
<g id="Node000008" class="node">
<title>Node8</title>
<g id="a_Node000008"><a xlink:href="iopcontrol__special_8h.html" target="_top" xlink:title=" ">
<polygon fill="white" stroke="#666666" points="530.86,-240.25 429.36,-240.25 429.36,-221 530.86,-221 530.86,-240.25"/>
<text text-anchor="middle" x="480.11" y="-226.75" font-family="Helvetica,sans-Serif" font-size="10.00">iopcontrol_special.h</text>
</a>
</g>
</g>
<!-- Node1&#45;&gt;Node8 -->
<g id="edge7_Node000001_Node000008" class="edge">
<title>Node1&#45;&gt;Node8</title>
<g id="a_edge7_Node000001_Node000008"><a xlink:title=" ">
<path fill="none" stroke="#63b8ff" d="M403.59,-275.8C419.27,-266.74 439.29,-255.19 454.92,-246.16"/>
<polygon fill="#63b8ff" stroke="#63b8ff" points="456.25,-249.44 463.16,-241.41 452.75,-243.38 456.25,-249.44"/>
</a>
</g>
</g>
<!-- Node9 -->
<g id="Node000009" class="node">
<title>Node9</title>
<g id="a_Node000009"><a xlink:href="loadfile_8h.html" target="_top" xlink:title=" ">
<polygon fill="white" stroke="#666666" points="399.86,-129.75 346.36,-129.75 346.36,-110.5 399.86,-110.5 399.86,-129.75"/>
<text text-anchor="middle" x="373.11" y="-116.25" font-family="Helvetica,sans-Serif" font-size="10.00">loadfile.h</text>
</a>
</g>
</g>
<!-- Node1&#45;&gt;Node9 -->
<g id="edge8_Node000001_Node000009" class="edge">
<title>Node1&#45;&gt;Node9</title>
<g id="a_edge8_Node000001_Node000009"><a xlink:title=" ">
<path fill="none" stroke="#63b8ff" d="M361.27,-276.06C351.9,-266.89 341.15,-254.14 336.11,-240.25 323.36,-205.12 344.61,-163.22 359.82,-139.64"/>
<polygon fill="#63b8ff" stroke="#63b8ff" points="362.67,-141.68 365.39,-131.44 356.88,-137.75 362.67,-141.68"/>
</a>
</g>
</g>
<!-- Node11 -->
<g id="Node000011" class="node">
<title>Node11</title>
<g id="a_Node000011"><a xlink:href="iopheap_8h.html" target="_top" xlink:title=" ">
<polygon fill="white" stroke="#666666" points="605.74,-240.25 548.49,-240.25 548.49,-221 605.74,-221 605.74,-240.25"/>
<text text-anchor="middle" x="577.11" y="-226.75" font-family="Helvetica,sans-Serif" font-size="10.00">iopheap.h</text>
</a>
</g>
</g>
<!-- Node1&#45;&gt;Node11 -->
<g id="edge12_Node000001_Node000011" class="edge">
<title>Node1&#45;&gt;Node11</title>
<g id="a_edge12_Node000001_Node000011"><a xlink:title=" ">
<path fill="none" stroke="#63b8ff" d="M427.81,-275.8C461.55,-265.82 505.57,-252.79 537.05,-243.48"/>
<polygon fill="#63b8ff" stroke="#63b8ff" points="537.99,-246.85 546.59,-240.65 536.01,-240.14 537.99,-246.85"/>
</a>
</g>
</g>
<!-- Node12 -->
<g id="Node000012" class="node">
<title>Node12</title>
<g id="a_Node000012"><a xlink:title=" ">
<polygon fill="#e0e0e0" stroke="#999999" points="670.86,-240.25 623.36,-240.25 623.36,-221 670.86,-221 670.86,-240.25"/>
<text text-anchor="middle" x="647.11" y="-226.75" font-family="Helvetica,sans-Serif" font-size="10.00">sifrpc.h</text>
</a>
</g>
</g>
<!-- Node1&#45;&gt;Node12 -->
<g id="edge14_Node000001_Node000012" class="edge">
<title>Node1&#45;&gt;Node12</title>
<g id="a_edge14_Node000001_Node000012"><a xlink:title=" ">
<path fill="none" stroke="#63b8ff" d="M450.95,-276.12C495.19,-267.14 553.06,-254.96 612.02,-240.91"/>
<polygon fill="#63b8ff" stroke="#63b8ff" points="612.66,-244.36 621.56,-238.62 611.02,-237.55 612.66,-244.36"/>
</a>
</g>
</g>
<!-- Node13 -->
<g id="Node000013" class="node">
<title>Node13</title>
<g id="a_Node000013"><a xlink:href="string_8h_source.html" target="_top" xlink:title=" ">
<polygon fill="white" stroke="#666666" points="249.86,-240.25 202.36,-240.25 202.36,-221 249.86,-221 249.86,-240.25"/>
<text text-anchor="middle" x="226.11" y="-226.75" font-family="Helvetica,sans-Serif" font-size="10.00">string.h</text>
</a>
</g>
</g>
<!-- Node1&#45;&gt;Node13 -->
<g id="edge15_Node000001_Node000013" class="edge">
<title>Node1&#45;&gt;Node13</title>
<g id="a_edge15_Node000001_Node000013"><a xlink:title=" ">
<path fill="none" stroke="#63b8ff" d="M340.15,-275.8C315.55,-266.27 283.8,-253.97 260.04,-244.77"/>
<polygon fill="#63b8ff" stroke="#63b8ff" points="261.42,-241.55 250.83,-241.2 258.89,-248.08 261.42,-241.55"/>
</a>
</g>
</g>
<!-- Node19 -->
<g id="Node000019" class="node">
<title>Node19</title>
<g id="a_Node000019"><a xlink:href="sbv__patches_8h.html" target="_top" xlink:title=" ">
<polygon fill="white" stroke="#666666" points="767.61,-240.25 688.61,-240.25 688.61,-221 767.61,-221 767.61,-240.25"/>
<text text-anchor="middle" x="728.11" y="-226.75" font-family="Helvetica,sans-Serif" font-size="10.00">sbv_patches.h</text>
</a>
</g>
</g>
<!-- Node1&#45;&gt;Node19 -->
<g id="edge26_Node000001_Node000019" class="edge">
<title>Node1&#45;&gt;Node19</title>
<g id="a_edge26_Node000001_Node000019"><a xlink:title=" ">
<path fill="none" stroke="#63b8ff" d="M451.08,-278.63C509.64,-269.04 594.29,-255.04 677.16,-240.75"/>
<polygon fill="#63b8ff" stroke="#63b8ff" points="677.56,-244.23 686.81,-239.08 676.36,-237.33 677.56,-244.23"/>
</a>
</g>
</g>
<!-- Node3 -->
<g id="Node000003" class="node">
<title>Node3</title>
<g id="a_Node000003"><a xlink:title=" ">
<polygon fill="#e0e0e0" stroke="#999999" points="109.36,-19.25 58.86,-19.25 58.86,0 109.36,0 109.36,-19.25"/>
<text text-anchor="middle" x="84.11" y="-5.75" font-family="Helvetica,sans-Serif" font-size="10.00">stddef.h</text>
</a>
</g>
</g>
<!-- Node2&#45;&gt;Node3 -->
<g id="edge2_Node000002_Node000003" class="edge">
<title>Node2&#45;&gt;Node3</title>
<g id="a_edge2_Node000002_Node000003"><a xlink:title=" ">
<path fill="none" stroke="#63b8ff" d="M61,-167.83C42.24,-161.47 17.87,-149.77 6.11,-129.75 -16.25,-91.66 30.59,-48.72 60.93,-26.24"/>
<polygon fill="#63b8ff" stroke="#63b8ff" points="62.76,-29.24 68.86,-20.58 58.69,-23.54 62.76,-29.24"/>
</a>
</g>
</g>
<!-- Node4 -->
<g id="Node000004" class="node">
<title>Node4</title>
<g id="a_Node000004"><a xlink:title=" ">
<polygon fill="#e0e0e0" stroke="#999999" points="65.36,-129.75 14.86,-129.75 14.86,-110.5 65.36,-110.5 65.36,-129.75"/>
<text text-anchor="middle" x="40.11" y="-116.25" font-family="Helvetica,sans-Serif" font-size="10.00">stdarg.h</text>
</a>
</g>
</g>
<!-- Node2&#45;&gt;Node4 -->
<g id="edge3_Node000002_Node000004" class="edge">
<title>Node2&#45;&gt;Node4</title>
<g id="a_edge3_Node000002_Node000004"><a xlink:title=" ">
<path fill="none" stroke="#63b8ff" d="M78.51,-165.58C72.23,-158.3 63.1,-147.73 55.32,-138.73"/>
<polygon fill="#63b8ff" stroke="#63b8ff" points="58.05,-136.53 48.86,-131.25 52.75,-141.11 58.05,-136.53"/>
</a>
</g>
</g>
<!-- Node2&#45;&gt;Node5 -->
<g id="edge4_Node000002_Node000005" class="edge">
<title>Node2&#45;&gt;Node5</title>
<g id="a_edge4_Node000002_Node000005"><a xlink:title=" ">
<path fill="none" stroke="#63b8ff" d="M111.31,-168.16C149.01,-158.87 220.34,-141.28 264.3,-130.45"/>
<polygon fill="#63b8ff" stroke="#63b8ff" points="265.04,-133.87 273.91,-128.08 263.37,-127.07 265.04,-133.87"/>
</a>
</g>
</g>
<!-- Node6 -->
<g id="Node000006" class="node">
<title>Node6</title>
<g id="a_Node000006"><a xlink:href="tamtypes_8h.html" target="_top" xlink:title=" ">
<polygon fill="white" stroke="#666666" points="333.74,-19.25 270.49,-19.25 270.49,0 333.74,0 333.74,-19.25"/>
<text text-anchor="middle" x="302.11" y="-5.75" font-family="Helvetica,sans-Serif" font-size="10.00">tamtypes.h</text>
</a>
</g>
</g>
<!-- Node5&#45;&gt;Node6 -->
<g id="edge5_Node000005_Node000006" class="edge">
<title>Node5&#45;&gt;Node6</title>
<g id="a_edge5_Node000005_Node000006"><a xlink:title=" ">
<path fill="none" stroke="#63b8ff" d="M302.11,-110.25C302.11,-93 302.11,-54.58 302.11,-30.81"/>
<polygon fill="#63b8ff" stroke="#63b8ff" points="305.61,-31.14 302.11,-21.14 298.61,-31.14 305.61,-31.14"/>
</a>
</g>
</g>
<!-- Node9&#45;&gt;Node6 -->
<g id="edge9_Node000009_Node000006" class="edge">
<title>Node9&#45;&gt;Node6</title>
<g id="a_edge9_Node000009_Node000006"><a xlink:title=" ">
<path fill="none" stroke="#63b8ff" d="M367.3,-110.25C355.75,-92.6 329.71,-52.8 314.26,-29.2"/>
<polygon fill="#63b8ff" stroke="#63b8ff" points="317.23,-27.34 308.83,-20.89 311.38,-31.18 317.23,-27.34"/>
</a>
</g>
</g>
<!-- Node10 -->
<g id="Node000010" class="node">
<title>Node10</title>
<g id="a_Node000010"><a xlink:href="loadfile-common_8h.html" target="_top" xlink:title=" ">
<polygon fill="white" stroke="#666666" points="462.11,-74.5 368.11,-74.5 368.11,-55.25 462.11,-55.25 462.11,-74.5"/>
<text text-anchor="middle" x="415.11" y="-61" font-family="Helvetica,sans-Serif" font-size="10.00">loadfile&#45;common.h</text>
</a>
</g>
</g>
<!-- Node9&#45;&gt;Node10 -->
<g id="edge10_Node000009_Node000010" class="edge">
<title>Node9&#45;&gt;Node10</title>
<g id="a_edge10_Node000009_Node000010"><a xlink:title=" ">
<path fill="none" stroke="#63b8ff" d="M380.05,-110.33C385.73,-103.13 393.95,-92.71 401,-83.76"/>
<polygon fill="#63b8ff" stroke="#63b8ff" points="403.64,-86.07 407.09,-76.05 398.15,-81.73 403.64,-86.07"/>
</a>
</g>
</g>
<!-- Node10&#45;&gt;Node6 -->
<g id="edge11_Node000010_Node000006" class="edge">
<title>Node10&#45;&gt;Node6</title>
<g id="a_edge11_Node000010_Node000006"><a xlink:title=" ">
<path fill="none" stroke="#63b8ff" d="M395.94,-54.84C378.33,-46.54 351.95,-34.11 331.65,-24.54"/>
<polygon fill="#63b8ff" stroke="#63b8ff" points="333.28,-21.44 322.74,-20.35 330.3,-27.78 333.28,-21.44"/>
</a>
</g>
</g>
<!-- Node14 -->
<g id="Node000014" class="node">
<title>Node14</title>
<g id="a_Node000014"><a xlink:href="sysclib_8h.html" target="_top" xlink:title=" ">
<polygon fill="white" stroke="#666666" points="206.86,-185 153.36,-185 153.36,-165.75 206.86,-165.75 206.86,-185"/>
<text text-anchor="middle" x="180.11" y="-171.5" font-family="Helvetica,sans-Serif" font-size="10.00">sysclib.h</text>
</a>
</g>
</g>
<!-- Node13&#45;&gt;Node14 -->
<g id="edge16_Node000013_Node000014" class="edge">
<title>Node13&#45;&gt;Node14</title>
<g id="a_edge16_Node000013_Node000014"><a xlink:title=" ">
<path fill="none" stroke="#63b8ff" d="M218.51,-220.83C212.23,-213.55 203.1,-202.98 195.32,-193.98"/>
<polygon fill="#63b8ff" stroke="#63b8ff" points="198.05,-191.78 188.86,-186.5 192.75,-196.36 198.05,-191.78"/>
</a>
</g>
</g>
<!-- Node14&#45;&gt;Node4 -->
<g id="edge22_Node000014_Node000004" class="edge">
<title>Node14&#45;&gt;Node4</title>
<g id="a_edge22_Node000014_Node000004"><a xlink:title=" ">
<path fill="none" stroke="#63b8ff" d="M156.36,-165.34C133.94,-156.81 100.05,-143.92 74.64,-134.26"/>
<polygon fill="#63b8ff" stroke="#63b8ff" points="75.98,-131.02 65.39,-130.74 73.49,-137.57 75.98,-131.02"/>
</a>
</g>
</g>
<!-- Node15 -->
<g id="Node000015" class="node">
<title>Node15</title>
<g id="a_Node000015"><a xlink:href="iop_2kernel_2include_2types_8h_source.html" target="_top" xlink:title=" ">
<polygon fill="white" stroke="#666666" points="192.49,-74.5 145.74,-74.5 145.74,-55.25 192.49,-55.25 192.49,-74.5"/>
<text text-anchor="middle" x="169.11" y="-61" font-family="Helvetica,sans-Serif" font-size="10.00">types.h</text>
</a>
</g>
</g>
<!-- Node14&#45;&gt;Node15 -->
<g id="edge17_Node000014_Node000015" class="edge">
<title>Node14&#45;&gt;Node15</title>
<g id="a_edge17_Node000014_Node000015"><a xlink:title=" ">
<path fill="none" stroke="#63b8ff" d="M179.21,-165.5C177.46,-148.25 173.57,-109.83 171.16,-86.06"/>
<polygon fill="#63b8ff" stroke="#63b8ff" points="174.67,-85.98 170.18,-76.38 167.7,-86.68 174.67,-85.98"/>
</a>
</g>
</g>
<!-- Node16 -->
<g id="Node000016" class="node">
<title>Node16</title>
<g id="a_Node000016"><a xlink:href="irx_8h.html" target="_top" xlink:title=" ">
<polygon fill="white" stroke="#666666" points="219.74,-129.75 186.49,-129.75 186.49,-110.5 219.74,-110.5 219.74,-129.75"/>
<text text-anchor="middle" x="203.11" y="-116.25" font-family="Helvetica,sans-Serif" font-size="10.00">irx.h</text>
</a>
</g>
</g>
<!-- Node14&#45;&gt;Node16 -->
<g id="edge20_Node000014_Node000016" class="edge">
<title>Node14&#45;&gt;Node16</title>
<g id="a_edge20_Node000014_Node000016"><a xlink:title=" ">
<path fill="none" stroke="#63b8ff" d="M183.91,-165.58C186.85,-158.76 191.05,-149.06 194.76,-140.45"/>
<polygon fill="#63b8ff" stroke="#63b8ff" points="197.88,-142.07 198.63,-131.5 191.45,-139.29 197.88,-142.07"/>
</a>
</g>
</g>
<!-- Node17 -->
<g id="Node000017" class="node">
<title>Node17</title>
<g id="a_Node000017"><a xlink:href="setjmp_8h.html" target="_top" xlink:title=" ">
<polygon fill="white" stroke="#666666" points="274.49,-74.5 221.74,-74.5 221.74,-55.25 274.49,-55.25 274.49,-74.5"/>
<text text-anchor="middle" x="248.11" y="-61" font-family="Helvetica,sans-Serif" font-size="10.00">setjmp.h</text>
</a>
</g>
</g>
<!-- Node14&#45;&gt;Node17 -->
<g id="edge23_Node000014_Node000017" class="edge">
<title>Node14&#45;&gt;Node17</title>
<g id="a_edge23_Node000014_Node000017"><a xlink:title=" ">
<path fill="none" stroke="#63b8ff" d="M193.64,-165.28C204.69,-157.18 219.93,-144.37 229.11,-129.75 237.5,-116.38 242.34,-99.13 245.04,-85.92"/>
<polygon fill="#63b8ff" stroke="#63b8ff" points="248.45,-86.7 246.75,-76.25 241.56,-85.49 248.45,-86.7"/>
</a>
</g>
</g>
<!-- Node18 -->
<g id="Node000018" class="node">
<title>Node18</title>
<g id="a_Node000018"><a xlink:href="ctype_8h.html" target="_top" xlink:title=" ">
<polygon fill="white" stroke="#666666" points="130.49,-129.75 83.74,-129.75 83.74,-110.5 130.49,-110.5 130.49,-129.75"/>
<text text-anchor="middle" x="107.11" y="-116.25" font-family="Helvetica,sans-Serif" font-size="10.00">ctype.h</text>
</a>
</g>
</g>
<!-- Node14&#45;&gt;Node18 -->
<g id="edge25_Node000014_Node000018" class="edge">
<title>Node14&#45;&gt;Node18</title>
<g id="a_edge25_Node000014_Node000018"><a xlink:title=" ">
<path fill="none" stroke="#63b8ff" d="M167.73,-165.34C156.97,-157.49 141.14,-145.95 128.36,-136.62"/>
<polygon fill="#63b8ff" stroke="#63b8ff" points="130.68,-133.98 120.53,-130.92 126.55,-139.64 130.68,-133.98"/>
</a>
</g>
</g>
<!-- Node15&#45;&gt;Node3 -->
<g id="edge18_Node000015_Node000003" class="edge">
<title>Node15&#45;&gt;Node3</title>
<g id="a_edge18_Node000015_Node000003"><a xlink:title=" ">
<path fill="none" stroke="#63b8ff" d="M154.69,-54.84C141.99,-46.89 123.24,-35.14 108.25,-25.75"/>
<polygon fill="#63b8ff" stroke="#63b8ff" points="110.22,-22.85 99.88,-20.51 106.5,-28.78 110.22,-22.85"/>
</a>
</g>
</g>
<!-- Node15&#45;&gt;Node6 -->
<g id="edge19_Node000015_Node000006" class="edge">
<title>Node15&#45;&gt;Node6</title>
<g id="a_edge19_Node000015_Node000006"><a xlink:title=" ">
<path fill="none" stroke="#63b8ff" d="M191.67,-54.84C212.88,-46.35 244.88,-33.54 268.99,-23.89"/>
<polygon fill="#63b8ff" stroke="#63b8ff" points="270.05,-27.23 278.03,-20.27 267.45,-20.73 270.05,-27.23"/>
</a>
</g>
</g>
<!-- Node16&#45;&gt;Node15 -->
<g id="edge21_Node000016_Node000015" class="edge">
<title>Node16&#45;&gt;Node15</title>
<g id="a_edge21_Node000016_Node000015"><a xlink:title=" ">
<path fill="none" stroke="#63b8ff" d="M197.5,-110.33C193,-103.28 186.52,-93.15 180.9,-84.33"/>
<polygon fill="#63b8ff" stroke="#63b8ff" points="183.99,-82.68 175.66,-76.13 178.09,-86.45 183.99,-82.68"/>
</a>
</g>
</g>
<!-- Node17&#45;&gt;Node6 -->
<g id="edge24_Node000017_Node000006" class="edge">
<title>Node17&#45;&gt;Node6</title>
<g id="a_edge24_Node000017_Node000006"><a xlink:title=" ">
<path fill="none" stroke="#63b8ff" d="M257.03,-55.08C264.56,-47.65 275.58,-36.79 284.84,-27.66"/>
<polygon fill="#63b8ff" stroke="#63b8ff" points="287.26,-30.19 291.92,-20.67 282.34,-25.2 287.26,-30.19"/>
</a>
</g>
</g>
</g>
</svg>

<g id="navigator" transform="translate(0 0)" fill="#404254">
  <rect fill="#f2f5e9" fill-opacity="0.5" stroke="#606060" stroke-width=".5" x="0" y="0" width="60" height="60"/>
  <use id="zoomplus" xlink:href="#zoomPlus" x="17" y="9" onmousedown="handleZoom(evt,'in')"/>
  <use id="zoomminus" xlink:href="#zoomMin" x="42" y="9" onmousedown="handleZoom(evt,'out')"/>
  <use id="reset" xlink:href="#resetDef" x="30" y="36" onmousedown="handleReset()"/>
   <use id="arrowup" xlink:href="#arrowUp" x="0" y="0" onmousedown="handlePan(0,-1)"/>
  <use id="arrowright" xlink:href="#arrowRight" x="0" y="0" onmousedown="handlePan(1,0)"/>
  <use id="arrowdown" xlink:href="#arrowDown" x="0" y="0" onmousedown="handlePan(0,1)"/>
  <use id="arrowleft" xlink:href="#arrowLeft" x="0" y="0" onmousedown="handlePan(-1,0)"/>
</g>
<svg viewBox="0 0 15 15" width="100%" height="30px" preserveAspectRatio="xMaxYMin meet">
 <g id="arrow_out" transform="scale(0.3 0.3)">
  <a xlink:href="_sif_iop_reboot_buffer_8c__incl_org.svg" target="_base">
   <rect id="button" ry="5" rx="5" y="6" x="6" height="38" width="38"
        fill="#f2f5e9" fill-opacity="0.5" stroke="#606060" stroke-width="1.0"/>
   <path id="arrow"
     d="M 11.500037,31.436501 C 11.940474,20.09759 22.043105,11.32322 32.158766,21.979434 L 37.068811,17.246167 C 37.068811,17.246167 37.088388,32 37.088388,32 L 22.160133,31.978069 C 22.160133,31.978069 26.997745,27.140456 26.997745,27.140456 C 18.528582,18.264221 13.291696,25.230495 11.500037,31.436501 z"
     style="fill:#404040;"/>
  </a>
 </g>
</svg>

<style type='text/css'>
<![CDATA[
[data-mouse-over-selected='false'] { opacity: 0.7; }
[data-mouse-over-selected='true']  { opacity: 1.0; }
]]>
</style>
<script type="application/ecmascript"><![CDATA[
document.addEventListener('DOMContentLoaded', (event) => {
  highlightEdges();
  highlightAdjacentNodes();
});
]]></script>
</svg>
