<?xml version="1.0" encoding="UTF-8" standalone="no"?>
<!DOCTYPE svg PUBLIC "-//W3C//DTD SVG 1.1//EN"
 "http://www.w3.org/Graphics/SVG/1.1/DTD/svg11.dtd">
<!-- Generated by graphviz version 2.44.0 ()
 -->
<!-- Title: ee/kernel/src/alarm.c Pages: 1 -->
<svg width="193pt" height="252pt"
 viewBox="0.00 0.00 192.50 252.00" xmlns="http://www.w3.org/2000/svg" xmlns:xlink="http://www.w3.org/1999/xlink">
<g id="graph0" class="graph" transform="scale(1 1) rotate(0) translate(4 248)">
<title>ee/kernel/src/alarm.c</title>
<polygon fill="white" stroke="transparent" points="-4,4 -4,-248 188.5,-248 188.5,4 -4,4"/>
<!-- Node1 -->
<g id="node1" class="node">
<title>Node1</title>
<g id="a_node1"><a xlink:title=" ">
<polygon fill="#bfbfbf" stroke="black" points="45.5,-224.5 45.5,-243.5 152.5,-243.5 152.5,-224.5 45.5,-224.5"/>
<text text-anchor="middle" x="99" y="-231.5" font-family="Helvetica,sans-Serif" font-size="10.00">ee/kernel/src/alarm.c</text>
</a>
</g>
</g>
<!-- Node2 -->
<g id="node2" class="node">
<title>Node2</title>
<g id="a_node2"><a xlink:href="kernel_8h.html" target="_top" xlink:title=" ">
<polygon fill="white" stroke="black" points="107,-168.5 107,-187.5 157,-187.5 157,-168.5 107,-168.5"/>
<text text-anchor="middle" x="132" y="-175.5" font-family="Helvetica,sans-Serif" font-size="10.00">kernel.h</text>
</a>
</g>
</g>
<!-- Node1&#45;&gt;Node2 -->
<g id="edge1" class="edge">
<title>Node1&#45;&gt;Node2</title>
<path fill="none" stroke="midnightblue" d="M104.45,-224.08C109.01,-216.61 115.67,-205.72 121.29,-196.52"/>
<polygon fill="midnightblue" stroke="midnightblue" points="124.42,-198.11 126.65,-187.75 118.45,-194.46 124.42,-198.11"/>
</g>
<!-- Node7 -->
<g id="node7" class="node">
<title>Node7</title>
<g id="a_node7"><a xlink:href="stdio_8h.html" target="_top" xlink:title=" ">
<polygon fill="white" stroke="black" points="43.5,-168.5 43.5,-187.5 88.5,-187.5 88.5,-168.5 43.5,-168.5"/>
<text text-anchor="middle" x="66" y="-175.5" font-family="Helvetica,sans-Serif" font-size="10.00">stdio.h</text>
</a>
</g>
</g>
<!-- Node1&#45;&gt;Node7 -->
<g id="edge6" class="edge">
<title>Node1&#45;&gt;Node7</title>
<path fill="none" stroke="midnightblue" d="M93.55,-224.08C88.99,-216.61 82.33,-205.72 76.71,-196.52"/>
<polygon fill="midnightblue" stroke="midnightblue" points="79.55,-194.46 71.35,-187.75 73.58,-198.11 79.55,-194.46"/>
</g>
<!-- Node3 -->
<g id="node3" class="node">
<title>Node3</title>
<g id="a_node3"><a xlink:title=" ">
<polygon fill="white" stroke="#bfbfbf" points="133.5,-0.5 133.5,-19.5 184.5,-19.5 184.5,-0.5 133.5,-0.5"/>
<text text-anchor="middle" x="159" y="-7.5" font-family="Helvetica,sans-Serif" font-size="10.00">stddef.h</text>
</a>
</g>
</g>
<!-- Node2&#45;&gt;Node3 -->
<g id="edge2" class="edge">
<title>Node2&#45;&gt;Node3</title>
<path fill="none" stroke="midnightblue" d="M133.81,-168.39C137.43,-150.99 145.66,-110.38 151,-76 153.4,-60.53 155.54,-42.9 156.99,-29.91"/>
<polygon fill="midnightblue" stroke="midnightblue" points="160.49,-30.18 158.09,-19.86 153.53,-29.42 160.49,-30.18"/>
</g>
<!-- Node4 -->
<g id="node4" class="node">
<title>Node4</title>
<g id="a_node4"><a xlink:title=" ">
<polygon fill="white" stroke="#bfbfbf" points="52.5,-112.5 52.5,-131.5 103.5,-131.5 103.5,-112.5 52.5,-112.5"/>
<text text-anchor="middle" x="78" y="-119.5" font-family="Helvetica,sans-Serif" font-size="10.00">stdarg.h</text>
</a>
</g>
</g>
<!-- Node2&#45;&gt;Node4 -->
<g id="edge3" class="edge">
<title>Node2&#45;&gt;Node4</title>
<path fill="none" stroke="midnightblue" d="M123.08,-168.08C115.22,-160.22 103.57,-148.57 94.08,-139.08"/>
<polygon fill="midnightblue" stroke="midnightblue" points="96.3,-136.35 86.75,-131.75 91.35,-141.3 96.3,-136.35"/>
</g>
<!-- Node5 -->
<g id="node5" class="node">
<title>Node5</title>
<g id="a_node5"><a xlink:href="sifdma_8h.html" target="_top" xlink:title=" ">
<polygon fill="white" stroke="black" points="23.5,-56.5 23.5,-75.5 76.5,-75.5 76.5,-56.5 23.5,-56.5"/>
<text text-anchor="middle" x="50" y="-63.5" font-family="Helvetica,sans-Serif" font-size="10.00">sifdma.h</text>
</a>
</g>
</g>
<!-- Node2&#45;&gt;Node5 -->
<g id="edge4" class="edge">
<title>Node2&#45;&gt;Node5</title>
<path fill="none" stroke="midnightblue" d="M131.26,-168.22C129.77,-154.94 125.39,-129.45 113,-112 103.73,-98.95 89.45,-88.3 76.83,-80.65"/>
<polygon fill="midnightblue" stroke="midnightblue" points="78.45,-77.54 68.03,-75.61 74.97,-83.61 78.45,-77.54"/>
</g>
<!-- Node6 -->
<g id="node6" class="node">
<title>Node6</title>
<g id="a_node6"><a xlink:href="tamtypes_8h.html" target="_top" xlink:title=" ">
<polygon fill="white" stroke="black" points="40,-0.5 40,-19.5 104,-19.5 104,-0.5 40,-0.5"/>
<text text-anchor="middle" x="72" y="-7.5" font-family="Helvetica,sans-Serif" font-size="10.00">tamtypes.h</text>
</a>
</g>
</g>
<!-- Node5&#45;&gt;Node6 -->
<g id="edge5" class="edge">
<title>Node5&#45;&gt;Node6</title>
<path fill="none" stroke="midnightblue" d="M53.63,-56.08C56.61,-48.77 60.93,-38.18 64.62,-29.1"/>
<polygon fill="midnightblue" stroke="midnightblue" points="67.9,-30.33 68.43,-19.75 61.42,-27.69 67.9,-30.33"/>
</g>
<!-- Node7&#45;&gt;Node4 -->
<g id="edge7" class="edge">
<title>Node7&#45;&gt;Node4</title>
<path fill="none" stroke="midnightblue" d="M67.98,-168.08C69.57,-160.93 71.86,-150.64 73.85,-141.69"/>
<polygon fill="midnightblue" stroke="midnightblue" points="77.3,-142.27 76.06,-131.75 70.47,-140.75 77.3,-142.27"/>
</g>
<!-- Node8 -->
<g id="node8" class="node">
<title>Node8</title>
<g id="a_node8"><a xlink:href="irx_8h.html" target="_top" xlink:title=" ">
<polygon fill="white" stroke="black" points="0,-112.5 0,-131.5 34,-131.5 34,-112.5 0,-112.5"/>
<text text-anchor="middle" x="17" y="-119.5" font-family="Helvetica,sans-Serif" font-size="10.00">irx.h</text>
</a>
</g>
</g>
<!-- Node7&#45;&gt;Node8 -->
<g id="edge8" class="edge">
<title>Node7&#45;&gt;Node8</title>
<path fill="none" stroke="midnightblue" d="M57.91,-168.08C50.84,-160.3 40.41,-148.8 31.85,-139.37"/>
<polygon fill="midnightblue" stroke="midnightblue" points="34.25,-136.8 24.94,-131.75 29.07,-141.51 34.25,-136.8"/>
</g>
<!-- Node9 -->
<g id="node9" class="node">
<title>Node9</title>
<g id="a_node9"><a xlink:href="types_8h_source.html" target="_top" xlink:title=" ">
<polygon fill="white" stroke="black" points="94.5,-56.5 94.5,-75.5 141.5,-75.5 141.5,-56.5 94.5,-56.5"/>
<text text-anchor="middle" x="118" y="-63.5" font-family="Helvetica,sans-Serif" font-size="10.00">types.h</text>
</a>
</g>
</g>
<!-- Node8&#45;&gt;Node9 -->
<g id="edge9" class="edge">
<title>Node8&#45;&gt;Node9</title>
<path fill="none" stroke="midnightblue" d="M33.23,-112.32C49.35,-103.7 74.3,-90.36 92.96,-80.39"/>
<polygon fill="midnightblue" stroke="midnightblue" points="94.64,-83.46 101.81,-75.65 91.34,-77.28 94.64,-83.46"/>
</g>
<!-- Node9&#45;&gt;Node3 -->
<g id="edge10" class="edge">
<title>Node9&#45;&gt;Node3</title>
<path fill="none" stroke="midnightblue" d="M124.77,-56.08C130.56,-48.46 139.06,-37.26 146.14,-27.94"/>
<polygon fill="midnightblue" stroke="midnightblue" points="149.1,-29.83 152.36,-19.75 143.52,-25.6 149.1,-29.83"/>
</g>
<!-- Node9&#45;&gt;Node6 -->
<g id="edge11" class="edge">
<title>Node9&#45;&gt;Node6</title>
<path fill="none" stroke="midnightblue" d="M110.4,-56.08C103.77,-48.3 93.98,-36.8 85.94,-27.37"/>
<polygon fill="midnightblue" stroke="midnightblue" points="88.6,-25.09 79.45,-19.75 83.27,-29.63 88.6,-25.09"/>
</g>
</g>
</svg>
