<?xml version="1.0" encoding="UTF-8" standalone="no"?>
<!DOCTYPE svg PUBLIC "-//W3C//DTD SVG 1.1//EN"
 "http://www.w3.org/Graphics/SVG/1.1/DTD/svg11.dtd">
<!-- Generated by graphviz version 2.44.0 ()
 -->
<!-- Title: common/include/atahw.h Pages: 1 -->
<svg width="184pt" height="140pt"
 viewBox="0.00 0.00 184.00 140.00" xmlns="http://www.w3.org/2000/svg" xmlns:xlink="http://www.w3.org/1999/xlink">
<g id="graph0" class="graph" transform="scale(1 1) rotate(0) translate(4 136)">
<title>common/include/atahw.h</title>
<polygon fill="white" stroke="transparent" points="-4,4 -4,-136 180,-136 180,4 -4,4"/>
<!-- Node1 -->
<g id="node1" class="node">
<title>Node1</title>
<g id="a_node1"><a xlink:title=" ">
<polygon fill="#bfbfbf" stroke="black" points="0,-112.5 0,-131.5 125,-131.5 125,-112.5 0,-112.5"/>
<text text-anchor="middle" x="62.5" y="-119.5" font-family="Helvetica,sans-Serif" font-size="10.00">common/include/atahw.h</text>
</a>
</g>
</g>
<!-- Node2 -->
<g id="node2" class="node">
<title>Node2</title>
<g id="a_node2"><a xlink:href="tamtypes_8h.html" target="_top" xlink:title=" ">
<polygon fill="white" stroke="black" points="30.5,-0.5 30.5,-19.5 94.5,-19.5 94.5,-0.5 30.5,-0.5"/>
<text text-anchor="middle" x="62.5" y="-7.5" font-family="Helvetica,sans-Serif" font-size="10.00">tamtypes.h</text>
</a>
</g>
</g>
<!-- Node1&#45;&gt;Node2 -->
<g id="edge1" class="edge">
<title>Node1&#45;&gt;Node2</title>
<path fill="none" stroke="midnightblue" d="M52.34,-112.19C43.59,-103.87 31.6,-90.54 26.5,-76 20.28,-58.26 32.81,-39.65 44.76,-26.91"/>
<polygon fill="midnightblue" stroke="midnightblue" points="47.3,-29.32 51.95,-19.8 42.38,-24.34 47.3,-29.32"/>
</g>
<!-- Node3 -->
<g id="node3" class="node">
<title>Node3</title>
<g id="a_node3"><a xlink:href="aifregs_8h.html" target="_top" xlink:title=" ">
<polygon fill="white" stroke="black" points="36,-56.5 36,-75.5 89,-75.5 89,-56.5 36,-56.5"/>
<text text-anchor="middle" x="62.5" y="-63.5" font-family="Helvetica,sans-Serif" font-size="10.00">aifregs.h</text>
</a>
</g>
</g>
<!-- Node1&#45;&gt;Node3 -->
<g id="edge2" class="edge">
<title>Node1&#45;&gt;Node3</title>
<path fill="none" stroke="midnightblue" d="M62.5,-112.08C62.5,-105.01 62.5,-94.86 62.5,-85.99"/>
<polygon fill="midnightblue" stroke="midnightblue" points="66,-85.75 62.5,-75.75 59,-85.75 66,-85.75"/>
</g>
<!-- Node4 -->
<g id="node4" class="node">
<title>Node4</title>
<g id="a_node4"><a xlink:href="speedregs_8h.html" target="_top" xlink:title=" ">
<polygon fill="white" stroke="black" points="107,-56.5 107,-75.5 176,-75.5 176,-56.5 107,-56.5"/>
<text text-anchor="middle" x="141.5" y="-63.5" font-family="Helvetica,sans-Serif" font-size="10.00">speedregs.h</text>
</a>
</g>
</g>
<!-- Node1&#45;&gt;Node4 -->
<g id="edge4" class="edge">
<title>Node1&#45;&gt;Node4</title>
<path fill="none" stroke="midnightblue" d="M75.19,-112.32C87.4,-103.98 106.08,-91.21 120.5,-81.35"/>
<polygon fill="midnightblue" stroke="midnightblue" points="122.56,-84.19 128.84,-75.65 118.61,-78.41 122.56,-84.19"/>
</g>
<!-- Node3&#45;&gt;Node2 -->
<g id="edge3" class="edge">
<title>Node3&#45;&gt;Node2</title>
<path fill="none" stroke="midnightblue" d="M62.5,-56.08C62.5,-49.01 62.5,-38.86 62.5,-29.99"/>
<polygon fill="midnightblue" stroke="midnightblue" points="66,-29.75 62.5,-19.75 59,-29.75 66,-29.75"/>
</g>
<!-- Node4&#45;&gt;Node2 -->
<g id="edge5" class="edge">
<title>Node4&#45;&gt;Node2</title>
<path fill="none" stroke="midnightblue" d="M128.81,-56.32C116.6,-47.98 97.92,-35.21 83.5,-25.35"/>
<polygon fill="midnightblue" stroke="midnightblue" points="85.39,-22.41 75.16,-19.65 81.44,-28.19 85.39,-22.41"/>
</g>
</g>
</svg>
