<?xml version="1.0" encoding="UTF-8" standalone="no"?>
<!DOCTYPE svg PUBLIC "-//W3C//DTD SVG 1.1//EN"
 "http://www.w3.org/Graphics/SVG/1.1/DTD/svg11.dtd">
<!-- Generated by graphviz version 12.2.0 (20241103.1931)
 -->
<!-- Title: common/include/atahw.h Pages: 1 -->
<svg width="892pt" height="94pt"
 viewBox="0.00 0.00 892.12 93.75" xmlns="http://www.w3.org/2000/svg" xmlns:xlink="http://www.w3.org/1999/xlink">
<g id="graph0" class="graph" transform="scale(1 1) rotate(0) translate(4 89.75)">
<title>common/include/atahw.h</title>
<!-- Node1 -->
<g id="Node000001" class="node">
<title>Node1</title>
<g id="a_Node000001"><a xlink:title=" ">
<polygon fill="#999999" stroke="#666666" points="485.25,-85.75 361.25,-85.75 361.25,-66.5 485.25,-66.5 485.25,-85.75"/>
<text text-anchor="middle" x="423.25" y="-72.25" font-family="Helvetica,sans-Serif" font-size="10.00">common/include/atahw.h</text>
</a>
</g>
</g>
<!-- Node2 -->
<g id="Node000002" class="node">
<title>Node2</title>
<g id="a_Node000002"><a xlink:href="ata_8c_source.html" target="_top" xlink:title=" ">
<polygon fill="white" stroke="#666666" points="104.5,-30.5 0,-30.5 0,0 104.5,0 104.5,-30.5"/>
<text text-anchor="start" x="8" y="-17" font-family="Helvetica,sans-Serif" font-size="10.00">iop/arcade/acata/src</text>
<text text-anchor="middle" x="52.25" y="-5.75" font-family="Helvetica,sans-Serif" font-size="10.00">/ata.c</text>
</a>
</g>
</g>
<!-- Node1&#45;&gt;Node2 -->
<g id="edge1_Node000001_Node000002" class="edge">
<title>Node1&#45;&gt;Node2</title>
<g id="a_edge1_Node000001_Node000002"><a xlink:title=" ">
<path fill="none" stroke="#63b8ff" d="M349.49,-66.21C286.71,-58.21 194.25,-45.44 114.25,-30.5 111.21,-29.93 108.09,-29.32 104.95,-28.67"/>
<polygon fill="#63b8ff" stroke="#63b8ff" points="349,-69.68 359.36,-67.46 349.87,-62.73 349,-69.68"/>
</a>
</g>
</g>
<!-- Node3 -->
<g id="Node000003" class="node">
<title>Node3</title>
<g id="a_Node000003"><a xlink:href="atacmd_8c_source.html" target="_top" xlink:title=" ">
<polygon fill="white" stroke="#666666" points="227.5,-30.5 123,-30.5 123,0 227.5,0 227.5,-30.5"/>
<text text-anchor="start" x="131" y="-17" font-family="Helvetica,sans-Serif" font-size="10.00">iop/arcade/acata/src</text>
<text text-anchor="middle" x="175.25" y="-5.75" font-family="Helvetica,sans-Serif" font-size="10.00">/atacmd.c</text>
</a>
</g>
</g>
<!-- Node1&#45;&gt;Node3 -->
<g id="edge2_Node000001_Node000003" class="edge">
<title>Node1&#45;&gt;Node3</title>
<g id="a_edge2_Node000001_Node000003"><a xlink:title=" ">
<path fill="none" stroke="#63b8ff" d="M373.91,-63.41C331.65,-53.38 270.94,-38.97 227.78,-28.72"/>
<polygon fill="#63b8ff" stroke="#63b8ff" points="373.03,-66.8 383.57,-65.71 374.65,-59.99 373.03,-66.8"/>
</a>
</g>
</g>
<!-- Node4 -->
<g id="Node000004" class="node">
<title>Node4</title>
<g id="a_Node000004"><a xlink:href="atapicmd_8c_source.html" target="_top" xlink:title=" ">
<polygon fill="white" stroke="#666666" points="350.5,-30.5 246,-30.5 246,0 350.5,0 350.5,-30.5"/>
<text text-anchor="start" x="254" y="-17" font-family="Helvetica,sans-Serif" font-size="10.00">iop/arcade/acata/src</text>
<text text-anchor="middle" x="298.25" y="-5.75" font-family="Helvetica,sans-Serif" font-size="10.00">/atapicmd.c</text>
</a>
</g>
</g>
<!-- Node1&#45;&gt;Node4 -->
<g id="edge3_Node000001_Node000004" class="edge">
<title>Node1&#45;&gt;Node4</title>
<g id="a_edge3_Node000001_Node000004"><a xlink:title=" ">
<path fill="none" stroke="#63b8ff" d="M393.65,-61.18C374.31,-52.08 349.1,-40.2 329.45,-30.94"/>
<polygon fill="#63b8ff" stroke="#63b8ff" points="392.09,-64.32 402.62,-65.41 395.07,-57.98 392.09,-64.32"/>
</a>
</g>
</g>
<!-- Node5 -->
<g id="Node000005" class="node">
<title>Node5</title>
<g id="a_Node000005"><a xlink:href="acatad_8c_source.html" target="_top" xlink:title=" ">
<polygon fill="white" stroke="#666666" points="478.12,-30.5 368.38,-30.5 368.38,0 478.12,0 478.12,-30.5"/>
<text text-anchor="start" x="376.38" y="-17" font-family="Helvetica,sans-Serif" font-size="10.00">iop/arcade/acatad/src</text>
<text text-anchor="middle" x="423.25" y="-5.75" font-family="Helvetica,sans-Serif" font-size="10.00">/acatad.c</text>
</a>
</g>
</g>
<!-- Node1&#45;&gt;Node5 -->
<g id="edge4_Node000001_Node000005" class="edge">
<title>Node1&#45;&gt;Node5</title>
<g id="a_edge4_Node000001_Node000005"><a xlink:title=" ">
<path fill="none" stroke="#63b8ff" d="M423.25,-54.92C423.25,-46.99 423.25,-38.06 423.25,-30.78"/>
<polygon fill="#63b8ff" stroke="#63b8ff" points="419.75,-54.67 423.25,-64.67 426.75,-54.67 419.75,-54.67"/>
</a>
</g>
</g>
<!-- Node6 -->
<g id="Node000006" class="node">
<title>Node6</title>
<g id="a_Node000006"><a xlink:href="acd_8c_source.html" target="_top" xlink:title=" ">
<polygon fill="white" stroke="#666666" points="608.25,-30.5 496.25,-30.5 496.25,0 608.25,0 608.25,-30.5"/>
<text text-anchor="start" x="504.25" y="-17" font-family="Helvetica,sans-Serif" font-size="10.00">iop/arcade/accdvd/src</text>
<text text-anchor="middle" x="552.25" y="-5.75" font-family="Helvetica,sans-Serif" font-size="10.00">/acd.c</text>
</a>
</g>
</g>
<!-- Node1&#45;&gt;Node6 -->
<g id="edge5_Node000001_Node000006" class="edge">
<title>Node1&#45;&gt;Node6</title>
<g id="a_edge5_Node000001_Node000006"><a xlink:title=" ">
<path fill="none" stroke="#63b8ff" d="M453.52,-61.31C473.51,-52.19 499.68,-40.24 520.05,-30.94"/>
<polygon fill="#63b8ff" stroke="#63b8ff" points="452.14,-58.09 444.5,-65.43 455.05,-64.46 452.14,-58.09"/>
</a>
</g>
</g>
<!-- Node7 -->
<g id="Node000007" class="node">
<title>Node7</title>
<g id="a_Node000007"><a xlink:href="ps2atad_8c.html" target="_top" xlink:title=" ">
<polygon fill="white" stroke="#666666" points="762.25,-24.88 626.25,-24.88 626.25,-5.63 762.25,-5.63 762.25,-24.88"/>
<text text-anchor="middle" x="694.25" y="-11.38" font-family="Helvetica,sans-Serif" font-size="10.00">iop/dev9/atad/src/ps2atad.c</text>
</a>
</g>
</g>
<!-- Node1&#45;&gt;Node7 -->
<g id="edge6_Node000001_Node000007" class="edge">
<title>Node1&#45;&gt;Node7</title>
<g id="a_edge6_Node000001_Node000007"><a xlink:title=" ">
<path fill="none" stroke="#63b8ff" d="M476.23,-63.61C527.79,-52.41 605.09,-35.62 652.45,-25.33"/>
<polygon fill="#63b8ff" stroke="#63b8ff" points="475.51,-60.19 466.48,-65.73 476.99,-67.03 475.51,-60.19"/>
</a>
</g>
</g>
<!-- Node8 -->
<g id="Node000008" class="node">
<title>Node8</title>
<g id="a_Node000008"><a xlink:href="hdproatad_8c_source.html" target="_top" xlink:title=" ">
<polygon fill="white" stroke="#666666" points="884.12,-30.5 780.38,-30.5 780.38,0 884.12,0 884.12,-30.5"/>
<text text-anchor="start" x="788.38" y="-17" font-family="Helvetica,sans-Serif" font-size="10.00">iop/dev9/hdpro_atad</text>
<text text-anchor="middle" x="832.25" y="-5.75" font-family="Helvetica,sans-Serif" font-size="10.00">/src/hdproatad.c</text>
</a>
</g>
</g>
<!-- Node1&#45;&gt;Node8 -->
<g id="edge7_Node000001_Node000008" class="edge">
<title>Node1&#45;&gt;Node8</title>
<g id="a_edge7_Node000001_Node000008"><a xlink:title=" ">
<path fill="none" stroke="#63b8ff" d="M496.89,-67.89C567.56,-60.42 677.13,-47.48 771.25,-30.5 774.14,-29.98 777.1,-29.41 780.08,-28.81"/>
<polygon fill="#63b8ff" stroke="#63b8ff" points="496.55,-64.4 486.97,-68.92 497.28,-71.36 496.55,-64.4"/>
</a>
</g>
</g>
</g>
</svg>
