<?xml version="1.0" encoding="UTF-8" standalone="no"?>
<!DOCTYPE svg PUBLIC "-//W3C//DTD SVG 1.1//EN"
 "http://www.w3.org/Graphics/SVG/1.1/DTD/svg11.dtd">
<!-- Generated by graphviz version 2.44.0 ()
 -->
<!-- Title: iop/sound/audsrv/src/audsrv.c Pages: 1 -->
<!--zoomable 263 -->
<svg id="main" version="1.1" xmlns="http://www.w3.org/2000/svg" xmlns:xlink="http://www.w3.org/1999/xlink" xml:space="preserve" onload="init(evt)">
<style type="text/css"><![CDATA[
.edge:hover path { stroke: red; }
.edge:hover polygon { stroke: red; fill: red; }
]]></style>
<script type="text/javascript"><![CDATA[
var edges = document.getElementsByTagName('g');
if (edges && edges.length) {
  for (var i=0;i<edges.length;i++) {
    if (edges[i].id.substr(0,4)=='edge') {
      edges[i].setAttribute('class','edge');
    }
  }
}
]]></script>
        <defs>
                <circle id="rim" cx="0" cy="0" r="7"/>
                <circle id="rim2" cx="0" cy="0" r="3.5"/>
                <g id="zoomPlus">
                        <use xlink:href="#rim" fill="#404040">
                                <set attributeName="fill" to="#808080" begin="zoomplus.mouseover" end="zoomplus.mouseout"/>
                        </use>
                        <path d="M-4,0h8M0,-4v8" fill="none" stroke="white" stroke-width="1.5" pointer-events="none"/>
                </g>
                <g id="zoomMin">
                        <use xlink:href="#rim" fill="#404040">
                                <set attributeName="fill" to="#808080" begin="zoomminus.mouseover" end="zoomminus.mouseout"/>
                        </use>
                        <path d="M-4,0h8" fill="none" stroke="white" stroke-width="1.5" pointer-events="none"/>
                </g>
                <g id="dirArrow">
                        <path fill="none" stroke="white" stroke-width="1.5" d="M0,-3.0v7 M-2.5,-0.5L0,-3.0L2.5,-0.5"/>
                </g>
               <g id="resetDef">
                       <use xlink:href="#rim2" fill="#404040">
                               <set attributeName="fill" to="#808080" begin="reset.mouseover" end="reset.mouseout"/>
                       </use>
               </g>
        </defs>

<script type="text/javascript">
var viewWidth = 1282;
var viewHeight = 263;
var sectionId = 'dynsection-0';
</script>
<script xlink:href="svgpan.js"/>
<svg id="graph" class="graph">
<g id="viewport">
<title>iop/sound/audsrv/src/audsrv.c</title>
<polygon fill="white" stroke="transparent" points="-4,4 -4,-259 1277.5,-259 1277.5,4 -4,4"/>
<!-- Node1 -->
<g id="node1" class="node">
<title>Node1</title>
<g id="a_node1"><a xlink:title=" ">
<polygon fill="#bfbfbf" stroke="black" points="555,-224.5 555,-254.5 662,-254.5 662,-224.5 555,-224.5"/>
<text text-anchor="start" x="563" y="-242.5" font-family="Helvetica,sans-Serif" font-size="10.00">iop/sound/audsrv/src</text>
<text text-anchor="middle" x="608.5" y="-231.5" font-family="Helvetica,sans-Serif" font-size="10.00">/audsrv.c</text>
</a>
</g>
</g>
<!-- Node2 -->
<g id="node2" class="node">
<title>Node2</title>
<g id="a_node2"><a xlink:href="stdio_8h.html" target="_top" xlink:title=" ">
<polygon fill="white" stroke="black" points="385,-168.5 385,-187.5 430,-187.5 430,-168.5 385,-168.5"/>
<text text-anchor="middle" x="407.5" y="-175.5" font-family="Helvetica,sans-Serif" font-size="10.00">stdio.h</text>
</a>
</g>
</g>
<!-- Node1&#45;&gt;Node2 -->
<g id="edge1" class="edge">
<title>Node1&#45;&gt;Node2</title>
<path fill="none" stroke="midnightblue" d="M561.12,-224.47C523.84,-213.44 472.87,-198.35 440.06,-188.64"/>
<polygon fill="midnightblue" stroke="midnightblue" points="440.67,-185.17 430.09,-185.69 438.68,-191.88 440.67,-185.17"/>
</g>
<!-- Node8 -->
<g id="node8" class="node">
<title>Node8</title>
<g id="a_node8"><a xlink:href="thbase_8h.html" target="_top" xlink:title=" ">
<polygon fill="white" stroke="black" points="154,-168.5 154,-187.5 207,-187.5 207,-168.5 154,-168.5"/>
<text text-anchor="middle" x="180.5" y="-175.5" font-family="Helvetica,sans-Serif" font-size="10.00">thbase.h</text>
</a>
</g>
</g>
<!-- Node1&#45;&gt;Node8 -->
<g id="edge7" class="edge">
<title>Node1&#45;&gt;Node8</title>
<path fill="none" stroke="midnightblue" d="M554.93,-233.6C481.08,-226.41 343.72,-211.44 217.04,-187.89"/>
<polygon fill="midnightblue" stroke="midnightblue" points="217.63,-184.44 207.16,-186.03 216.34,-191.32 217.63,-184.44"/>
</g>
<!-- Node9 -->
<g id="node9" class="node">
<title>Node9</title>
<g id="a_node9"><a xlink:href="thsemap_8h.html" target="_top" xlink:title=" ">
<polygon fill="white" stroke="black" points="225.5,-168.5 225.5,-187.5 287.5,-187.5 287.5,-168.5 225.5,-168.5"/>
<text text-anchor="middle" x="256.5" y="-175.5" font-family="Helvetica,sans-Serif" font-size="10.00">thsemap.h</text>
</a>
</g>
</g>
<!-- Node1&#45;&gt;Node9 -->
<g id="edge10" class="edge">
<title>Node1&#45;&gt;Node9</title>
<path fill="none" stroke="midnightblue" d="M554.96,-230.72C494.93,-221.8 394.45,-206.25 297.75,-187.95"/>
<polygon fill="midnightblue" stroke="midnightblue" points="298.28,-184.49 287.8,-186.06 296.97,-191.37 298.28,-184.49"/>
</g>
<!-- Node10 -->
<g id="node10" class="node">
<title>Node10</title>
<g id="a_node10"><a xlink:href="loadcore_8h.html" target="_top" xlink:title=" ">
<polygon fill="white" stroke="black" points="0,-168.5 0,-187.5 61,-187.5 61,-168.5 0,-168.5"/>
<text text-anchor="middle" x="30.5" y="-175.5" font-family="Helvetica,sans-Serif" font-size="10.00">loadcore.h</text>
</a>
</g>
</g>
<!-- Node1&#45;&gt;Node10 -->
<g id="edge13" class="edge">
<title>Node1&#45;&gt;Node10</title>
<path fill="none" stroke="midnightblue" d="M554.76,-235.73C459.38,-230.33 254.13,-216.46 71.49,-187.96"/>
<polygon fill="midnightblue" stroke="midnightblue" points="71.86,-184.47 61.43,-186.37 70.77,-191.39 71.86,-184.47"/>
</g>
<!-- Node11 -->
<g id="node11" class="node">
<title>Node11</title>
<g id="a_node11"><a xlink:href="sysmem_8h.html" target="_top" xlink:title=" ">
<polygon fill="white" stroke="black" points="306,-168.5 306,-187.5 367,-187.5 367,-168.5 306,-168.5"/>
<text text-anchor="middle" x="336.5" y="-175.5" font-family="Helvetica,sans-Serif" font-size="10.00">sysmem.h</text>
</a>
</g>
</g>
<!-- Node1&#45;&gt;Node11 -->
<g id="edge16" class="edge">
<title>Node1&#45;&gt;Node11</title>
<path fill="none" stroke="midnightblue" d="M554.57,-226.87C509.74,-217.18 443.99,-202.91 376.97,-188.09"/>
<polygon fill="midnightblue" stroke="midnightblue" points="377.59,-184.64 367.07,-185.9 376.08,-191.48 377.59,-184.64"/>
</g>
<!-- Node12 -->
<g id="node12" class="node">
<title>Node12</title>
<g id="a_node12"><a xlink:href="intrman_8h.html" target="_top" xlink:title=" ">
<polygon fill="white" stroke="black" points="79.5,-168.5 79.5,-187.5 135.5,-187.5 135.5,-168.5 79.5,-168.5"/>
<text text-anchor="middle" x="107.5" y="-175.5" font-family="Helvetica,sans-Serif" font-size="10.00">intrman.h</text>
</a>
</g>
</g>
<!-- Node1&#45;&gt;Node12 -->
<g id="edge20" class="edge">
<title>Node1&#45;&gt;Node12</title>
<path fill="none" stroke="midnightblue" d="M554.73,-234.81C468.11,-228.38 292.52,-213.33 145.5,-188 145.4,-187.98 145.3,-187.97 145.2,-187.95"/>
<polygon fill="midnightblue" stroke="midnightblue" points="146.13,-184.56 135.64,-186.08 144.78,-191.43 146.13,-184.56"/>
</g>
<!-- Node13 -->
<g id="node13" class="node">
<title>Node13</title>
<g id="a_node13"><a xlink:title=" ">
<polygon fill="white" stroke="#bfbfbf" points="448,-168.5 448,-187.5 501,-187.5 501,-168.5 448,-168.5"/>
<text text-anchor="middle" x="474.5" y="-175.5" font-family="Helvetica,sans-Serif" font-size="10.00">sifcmd.h</text>
</a>
</g>
</g>
<!-- Node1&#45;&gt;Node13 -->
<g id="edge23" class="edge">
<title>Node1&#45;&gt;Node13</title>
<path fill="none" stroke="midnightblue" d="M576.74,-224.4C554.46,-214.51 524.91,-201.38 503.31,-191.79"/>
<polygon fill="midnightblue" stroke="midnightblue" points="504.56,-188.52 494,-187.66 501.72,-194.91 504.56,-188.52"/>
</g>
<!-- Node14 -->
<g id="node14" class="node">
<title>Node14</title>
<g id="a_node14"><a xlink:title=" ">
<polygon fill="white" stroke="#bfbfbf" points="519.5,-168.5 519.5,-187.5 563.5,-187.5 563.5,-168.5 519.5,-168.5"/>
<text text-anchor="middle" x="541.5" y="-175.5" font-family="Helvetica,sans-Serif" font-size="10.00">libsd.h</text>
</a>
</g>
</g>
<!-- Node1&#45;&gt;Node14 -->
<g id="edge24" class="edge">
<title>Node1&#45;&gt;Node14</title>
<path fill="none" stroke="midnightblue" d="M592.62,-224.4C582.48,-215.4 569.34,-203.72 558.91,-194.47"/>
<polygon fill="midnightblue" stroke="midnightblue" points="561.05,-191.68 551.25,-187.66 556.4,-196.92 561.05,-191.68"/>
</g>
<!-- Node15 -->
<g id="node15" class="node">
<title>Node15</title>
<g id="a_node15"><a xlink:href="sysclib_8h.html" target="_top" xlink:title=" ">
<polygon fill="white" stroke="black" points="581.5,-168.5 581.5,-187.5 635.5,-187.5 635.5,-168.5 581.5,-168.5"/>
<text text-anchor="middle" x="608.5" y="-175.5" font-family="Helvetica,sans-Serif" font-size="10.00">sysclib.h</text>
</a>
</g>
</g>
<!-- Node1&#45;&gt;Node15 -->
<g id="edge25" class="edge">
<title>Node1&#45;&gt;Node15</title>
<path fill="none" stroke="midnightblue" d="M608.5,-224.4C608.5,-216.47 608.5,-206.46 608.5,-197.86"/>
<polygon fill="midnightblue" stroke="midnightblue" points="612,-197.66 608.5,-187.66 605,-197.66 612,-197.66"/>
</g>
<!-- Node18 -->
<g id="node18" class="node">
<title>Node18</title>
<g id="a_node18"><a xlink:title=" ">
<polygon fill="white" stroke="#bfbfbf" points="654,-168.5 654,-187.5 707,-187.5 707,-168.5 654,-168.5"/>
<text text-anchor="middle" x="680.5" y="-175.5" font-family="Helvetica,sans-Serif" font-size="10.00">audsrv.h</text>
</a>
</g>
</g>
<!-- Node1&#45;&gt;Node18 -->
<g id="edge32" class="edge">
<title>Node1&#45;&gt;Node18</title>
<path fill="none" stroke="midnightblue" d="M625.56,-224.4C636.56,-215.31 650.87,-203.49 662.12,-194.19"/>
<polygon fill="midnightblue" stroke="midnightblue" points="664.54,-196.73 670.02,-187.66 660.09,-191.33 664.54,-196.73"/>
</g>
<!-- Node19 -->
<g id="node19" class="node">
<title>Node19</title>
<g id="a_node19"><a xlink:href="audsrv__internal_8h.html" target="_top" xlink:title=" ">
<polygon fill="white" stroke="black" points="725.5,-168.5 725.5,-187.5 815.5,-187.5 815.5,-168.5 725.5,-168.5"/>
<text text-anchor="middle" x="770.5" y="-175.5" font-family="Helvetica,sans-Serif" font-size="10.00">audsrv_internal.h</text>
</a>
</g>
</g>
<!-- Node1&#45;&gt;Node19 -->
<g id="edge33" class="edge">
<title>Node1&#45;&gt;Node19</title>
<path fill="none" stroke="midnightblue" d="M646.89,-224.4C674.44,-214.28 711.17,-200.79 737.42,-191.15"/>
<polygon fill="midnightblue" stroke="midnightblue" points="738.75,-194.39 746.93,-187.66 736.33,-187.82 738.75,-194.39"/>
</g>
<!-- Node20 -->
<g id="node20" class="node">
<title>Node20</title>
<g id="a_node20"><a xlink:href="iop_2sound_2audsrv_2src_2common_8h.html" target="_top" xlink:title=" ">
<polygon fill="white" stroke="black" points="833.5,-168.5 833.5,-187.5 895.5,-187.5 895.5,-168.5 833.5,-168.5"/>
<text text-anchor="middle" x="864.5" y="-175.5" font-family="Helvetica,sans-Serif" font-size="10.00">common.h</text>
</a>
</g>
</g>
<!-- Node1&#45;&gt;Node20 -->
<g id="edge34" class="edge">
<title>Node1&#45;&gt;Node20</title>
<path fill="none" stroke="midnightblue" d="M662.17,-226.03C710.22,-214.86 779.65,-198.72 823.41,-188.55"/>
<polygon fill="midnightblue" stroke="midnightblue" points="824.47,-191.9 833.42,-186.22 822.88,-185.08 824.47,-191.9"/>
</g>
<!-- Node21 -->
<g id="node21" class="node">
<title>Node21</title>
<g id="a_node21"><a xlink:href="iop_2sound_2audsrv_2src_2rpc__server_8h.html" target="_top" xlink:title=" ">
<polygon fill="white" stroke="black" points="913.5,-168.5 913.5,-187.5 983.5,-187.5 983.5,-168.5 913.5,-168.5"/>
<text text-anchor="middle" x="948.5" y="-175.5" font-family="Helvetica,sans-Serif" font-size="10.00">rpc_server.h</text>
</a>
</g>
</g>
<!-- Node1&#45;&gt;Node21 -->
<g id="edge35" class="edge">
<title>Node1&#45;&gt;Node21</title>
<path fill="none" stroke="midnightblue" d="M662.07,-229.9C719.34,-220.59 813.08,-205 903.58,-188.13"/>
<polygon fill="midnightblue" stroke="midnightblue" points="904.27,-191.56 913.46,-186.28 902.98,-184.68 904.27,-191.56"/>
</g>
<!-- Node22 -->
<g id="node22" class="node">
<title>Node22</title>
<g id="a_node22"><a xlink:href="iop_2sound_2audsrv_2src_2rpc__client_8h.html" target="_top" xlink:title=" ">
<polygon fill="white" stroke="black" points="1001.5,-168.5 1001.5,-187.5 1067.5,-187.5 1067.5,-168.5 1001.5,-168.5"/>
<text text-anchor="middle" x="1034.5" y="-175.5" font-family="Helvetica,sans-Serif" font-size="10.00">rpc_client.h</text>
</a>
</g>
</g>
<!-- Node1&#45;&gt;Node22 -->
<g id="edge36" class="edge">
<title>Node1&#45;&gt;Node22</title>
<path fill="none" stroke="midnightblue" d="M662.13,-232.82C734.58,-224.85 867.95,-209.1 991.1,-188.13"/>
<polygon fill="midnightblue" stroke="midnightblue" points="991.81,-191.56 1001.08,-186.42 990.63,-184.66 991.81,-191.56"/>
</g>
<!-- Node23 -->
<g id="node23" class="node">
<title>Node23</title>
<g id="a_node23"><a xlink:href="upsamplers_8h.html" target="_top" xlink:title=" ">
<polygon fill="white" stroke="black" points="1085.5,-168.5 1085.5,-187.5 1159.5,-187.5 1159.5,-168.5 1085.5,-168.5"/>
<text text-anchor="middle" x="1122.5" y="-175.5" font-family="Helvetica,sans-Serif" font-size="10.00">upsamplers.h</text>
</a>
</g>
</g>
<!-- Node1&#45;&gt;Node23 -->
<g id="edge37" class="edge">
<title>Node1&#45;&gt;Node23</title>
<path fill="none" stroke="midnightblue" d="M662.03,-234.23C747.31,-227.09 919.42,-211.34 1075.16,-188.09"/>
<polygon fill="midnightblue" stroke="midnightblue" points="1076.02,-191.5 1085.39,-186.54 1074.98,-184.57 1076.02,-191.5"/>
</g>
<!-- Node24 -->
<g id="node24" class="node">
<title>Node24</title>
<g id="a_node24"><a xlink:href="hw_8h.html" target="_top" xlink:title=" ">
<polygon fill="white" stroke="black" points="1178,-168.5 1178,-187.5 1215,-187.5 1215,-168.5 1178,-168.5"/>
<text text-anchor="middle" x="1196.5" y="-175.5" font-family="Helvetica,sans-Serif" font-size="10.00">hw.h</text>
</a>
</g>
</g>
<!-- Node1&#45;&gt;Node24 -->
<g id="edge38" class="edge">
<title>Node1&#45;&gt;Node24</title>
<path fill="none" stroke="midnightblue" d="M662.35,-237.59C761.11,-235.06 977.74,-225.56 1168.07,-187.59"/>
<polygon fill="midnightblue" stroke="midnightblue" points="1168.87,-191 1177.98,-185.59 1167.48,-184.14 1168.87,-191"/>
</g>
<!-- Node25 -->
<g id="node25" class="node">
<title>Node25</title>
<g id="a_node25"><a xlink:href="spu_8h.html" target="_top" xlink:title=" ">
<polygon fill="white" stroke="black" points="1233.5,-168.5 1233.5,-187.5 1273.5,-187.5 1273.5,-168.5 1233.5,-168.5"/>
<text text-anchor="middle" x="1253.5" y="-175.5" font-family="Helvetica,sans-Serif" font-size="10.00">spu.h</text>
</a>
</g>
</g>
<!-- Node1&#45;&gt;Node25 -->
<g id="edge39" class="edge">
<title>Node1&#45;&gt;Node25</title>
<path fill="none" stroke="midnightblue" d="M662.18,-238.04C768.15,-236.27 1011.58,-228.01 1223.31,-187.81"/>
<polygon fill="midnightblue" stroke="midnightblue" points="1224.21,-191.2 1233.36,-185.87 1222.88,-184.32 1224.21,-191.2"/>
</g>
<!-- Node3 -->
<g id="node3" class="node">
<title>Node3</title>
<g id="a_node3"><a xlink:title=" ">
<polygon fill="white" stroke="#bfbfbf" points="382,-112.5 382,-131.5 433,-131.5 433,-112.5 382,-112.5"/>
<text text-anchor="middle" x="407.5" y="-119.5" font-family="Helvetica,sans-Serif" font-size="10.00">stdarg.h</text>
</a>
</g>
</g>
<!-- Node2&#45;&gt;Node3 -->
<g id="edge2" class="edge">
<title>Node2&#45;&gt;Node3</title>
<path fill="none" stroke="midnightblue" d="M407.5,-168.08C407.5,-161.01 407.5,-150.86 407.5,-141.99"/>
<polygon fill="midnightblue" stroke="midnightblue" points="411,-141.75 407.5,-131.75 404,-141.75 411,-141.75"/>
</g>
<!-- Node4 -->
<g id="node4" class="node">
<title>Node4</title>
<g id="a_node4"><a xlink:href="irx_8h.html" target="_top" xlink:title=" ">
<polygon fill="white" stroke="black" points="215.5,-112.5 215.5,-131.5 249.5,-131.5 249.5,-112.5 215.5,-112.5"/>
<text text-anchor="middle" x="232.5" y="-119.5" font-family="Helvetica,sans-Serif" font-size="10.00">irx.h</text>
</a>
</g>
</g>
<!-- Node2&#45;&gt;Node4 -->
<g id="edge3" class="edge">
<title>Node2&#45;&gt;Node4</title>
<path fill="none" stroke="midnightblue" d="M384.98,-170.05C352.85,-160.14 293.96,-141.96 259.52,-131.34"/>
<polygon fill="midnightblue" stroke="midnightblue" points="260.27,-127.9 249.68,-128.3 258.2,-134.59 260.27,-127.9"/>
</g>
<!-- Node5 -->
<g id="node5" class="node">
<title>Node5</title>
<g id="a_node5"><a xlink:href="types_8h_source.html" target="_top" xlink:title=" ">
<polygon fill="white" stroke="black" points="231,-56.5 231,-75.5 278,-75.5 278,-56.5 231,-56.5"/>
<text text-anchor="middle" x="254.5" y="-63.5" font-family="Helvetica,sans-Serif" font-size="10.00">types.h</text>
</a>
</g>
</g>
<!-- Node4&#45;&gt;Node5 -->
<g id="edge4" class="edge">
<title>Node4&#45;&gt;Node5</title>
<path fill="none" stroke="midnightblue" d="M236.13,-112.08C239.11,-104.77 243.43,-94.18 247.12,-85.1"/>
<polygon fill="midnightblue" stroke="midnightblue" points="250.4,-86.33 250.93,-75.75 243.92,-83.69 250.4,-86.33"/>
</g>
<!-- Node6 -->
<g id="node6" class="node">
<title>Node6</title>
<g id="a_node6"><a xlink:title=" ">
<polygon fill="white" stroke="#bfbfbf" points="229,-0.5 229,-19.5 280,-19.5 280,-0.5 229,-0.5"/>
<text text-anchor="middle" x="254.5" y="-7.5" font-family="Helvetica,sans-Serif" font-size="10.00">stddef.h</text>
</a>
</g>
</g>
<!-- Node5&#45;&gt;Node6 -->
<g id="edge5" class="edge">
<title>Node5&#45;&gt;Node6</title>
<path fill="none" stroke="midnightblue" d="M254.5,-56.08C254.5,-49.01 254.5,-38.86 254.5,-29.99"/>
<polygon fill="midnightblue" stroke="midnightblue" points="258,-29.75 254.5,-19.75 251,-29.75 258,-29.75"/>
</g>
<!-- Node7 -->
<g id="node7" class="node">
<title>Node7</title>
<g id="a_node7"><a xlink:href="tamtypes_8h.html" target="_top" xlink:title=" ">
<polygon fill="white" stroke="black" points="426.5,-0.5 426.5,-19.5 490.5,-19.5 490.5,-0.5 426.5,-0.5"/>
<text text-anchor="middle" x="458.5" y="-7.5" font-family="Helvetica,sans-Serif" font-size="10.00">tamtypes.h</text>
</a>
</g>
</g>
<!-- Node5&#45;&gt;Node7 -->
<g id="edge6" class="edge">
<title>Node5&#45;&gt;Node7</title>
<path fill="none" stroke="midnightblue" d="M278.3,-58.7C312.19,-49.73 374.85,-33.14 416.62,-22.09"/>
<polygon fill="midnightblue" stroke="midnightblue" points="417.72,-25.42 426.49,-19.47 415.93,-18.65 417.72,-25.42"/>
</g>
<!-- Node8&#45;&gt;Node4 -->
<g id="edge9" class="edge">
<title>Node8&#45;&gt;Node4</title>
<path fill="none" stroke="midnightblue" d="M189.09,-168.08C196.66,-160.22 207.88,-148.57 217.01,-139.08"/>
<polygon fill="midnightblue" stroke="midnightblue" points="219.66,-141.38 224.07,-131.75 214.62,-136.53 219.66,-141.38"/>
</g>
<!-- Node8&#45;&gt;Node5 -->
<g id="edge8" class="edge">
<title>Node8&#45;&gt;Node5</title>
<path fill="none" stroke="midnightblue" d="M182.63,-168.43C186.15,-155.41 194.03,-130.27 206.5,-112 214.17,-100.76 225.1,-90.24 234.58,-82.2"/>
<polygon fill="midnightblue" stroke="midnightblue" points="236.88,-84.84 242.44,-75.82 232.47,-79.41 236.88,-84.84"/>
</g>
<!-- Node9&#45;&gt;Node4 -->
<g id="edge12" class="edge">
<title>Node9&#45;&gt;Node4</title>
<path fill="none" stroke="midnightblue" d="M252.54,-168.08C249.29,-160.77 244.58,-150.18 240.55,-141.1"/>
<polygon fill="midnightblue" stroke="midnightblue" points="243.65,-139.47 236.39,-131.75 237.25,-142.31 243.65,-139.47"/>
</g>
<!-- Node9&#45;&gt;Node5 -->
<g id="edge11" class="edge">
<title>Node9&#45;&gt;Node5</title>
<path fill="none" stroke="midnightblue" d="M257.19,-168.17C258.08,-155.66 259.39,-132.08 258.5,-112 258.12,-103.37 257.32,-93.84 256.54,-85.78"/>
<polygon fill="midnightblue" stroke="midnightblue" points="260,-85.2 255.49,-75.61 253.04,-85.92 260,-85.2"/>
</g>
<!-- Node10&#45;&gt;Node4 -->
<g id="edge15" class="edge">
<title>Node10&#45;&gt;Node4</title>
<path fill="none" stroke="midnightblue" d="M61.18,-168.8C100.52,-158.28 168.13,-140.21 205.57,-130.2"/>
<polygon fill="midnightblue" stroke="midnightblue" points="206.53,-133.57 215.29,-127.6 204.72,-126.8 206.53,-133.57"/>
</g>
<!-- Node10&#45;&gt;Node5 -->
<g id="edge14" class="edge">
<title>Node10&#45;&gt;Node5</title>
<path fill="none" stroke="midnightblue" d="M47.85,-168.32C72.9,-155.81 120.69,-132 161.5,-112 183.72,-101.11 209,-88.89 227.59,-79.94"/>
<polygon fill="midnightblue" stroke="midnightblue" points="229.15,-83.07 236.65,-75.57 226.12,-76.76 229.15,-83.07"/>
</g>
<!-- Node11&#45;&gt;Node3 -->
<g id="edge19" class="edge">
<title>Node11&#45;&gt;Node3</title>
<path fill="none" stroke="midnightblue" d="M347.91,-168.32C358.61,-160.18 374.84,-147.84 387.66,-138.09"/>
<polygon fill="midnightblue" stroke="midnightblue" points="390.04,-140.67 395.89,-131.83 385.81,-135.1 390.04,-140.67"/>
</g>
<!-- Node11&#45;&gt;Node4 -->
<g id="edge18" class="edge">
<title>Node11&#45;&gt;Node4</title>
<path fill="none" stroke="midnightblue" d="M319.79,-168.32C303.19,-159.7 277.5,-146.36 258.28,-136.39"/>
<polygon fill="midnightblue" stroke="midnightblue" points="259.66,-133.16 249.17,-131.65 256.43,-139.37 259.66,-133.16"/>
</g>
<!-- Node11&#45;&gt;Node5 -->
<g id="edge17" class="edge">
<title>Node11&#45;&gt;Node5</title>
<path fill="none" stroke="midnightblue" d="M330.07,-168.37C316.47,-150.14 284.64,-107.43 266.93,-83.68"/>
<polygon fill="midnightblue" stroke="midnightblue" points="269.69,-81.52 260.9,-75.59 264.08,-85.7 269.69,-81.52"/>
</g>
<!-- Node12&#45;&gt;Node4 -->
<g id="edge22" class="edge">
<title>Node12&#45;&gt;Node4</title>
<path fill="none" stroke="midnightblue" d="M127.31,-168.44C148.51,-159.28 182.27,-144.7 205.81,-134.53"/>
<polygon fill="midnightblue" stroke="midnightblue" points="207.41,-137.65 215.2,-130.47 204.63,-131.23 207.41,-137.65"/>
</g>
<!-- Node12&#45;&gt;Node5 -->
<g id="edge21" class="edge">
<title>Node12&#45;&gt;Node5</title>
<path fill="none" stroke="midnightblue" d="M118.27,-168.45C134.16,-155.89 164.87,-131.81 191.5,-112 205.39,-101.67 221.24,-90.35 233.57,-81.65"/>
<polygon fill="midnightblue" stroke="midnightblue" points="235.68,-84.44 241.85,-75.82 231.65,-78.72 235.68,-84.44"/>
</g>
<!-- Node15&#45;&gt;Node3 -->
<g id="edge28" class="edge">
<title>Node15&#45;&gt;Node3</title>
<path fill="none" stroke="midnightblue" d="M581.39,-169.72C545.61,-160.1 482.53,-143.16 442.99,-132.53"/>
<polygon fill="midnightblue" stroke="midnightblue" points="443.79,-129.13 433.23,-129.91 441.98,-135.89 443.79,-129.13"/>
</g>
<!-- Node15&#45;&gt;Node4 -->
<g id="edge27" class="edge">
<title>Node15&#45;&gt;Node4</title>
<path fill="none" stroke="midnightblue" d="M581.45,-169.89C578.44,-169.2 575.41,-168.55 572.5,-168 457.11,-146.01 317.64,-131.19 259.74,-125.55"/>
<polygon fill="midnightblue" stroke="midnightblue" points="259.88,-122.04 249.59,-124.57 259.21,-129.01 259.88,-122.04"/>
</g>
<!-- Node15&#45;&gt;Node5 -->
<g id="edge26" class="edge">
<title>Node15&#45;&gt;Node5</title>
<path fill="none" stroke="midnightblue" d="M603.54,-168.08C594.98,-153.64 575.99,-125.4 551.5,-112 506.66,-87.47 356.37,-74.12 288.39,-69.21"/>
<polygon fill="midnightblue" stroke="midnightblue" points="288.44,-65.71 278.22,-68.5 287.95,-72.69 288.44,-65.71"/>
</g>
<!-- Node16 -->
<g id="node16" class="node">
<title>Node16</title>
<g id="a_node16"><a xlink:href="setjmp_8h.html" target="_top" xlink:title=" ">
<polygon fill="white" stroke="black" points="507,-56.5 507,-75.5 560,-75.5 560,-56.5 507,-56.5"/>
<text text-anchor="middle" x="533.5" y="-63.5" font-family="Helvetica,sans-Serif" font-size="10.00">setjmp.h</text>
</a>
</g>
</g>
<!-- Node15&#45;&gt;Node16 -->
<g id="edge29" class="edge">
<title>Node15&#45;&gt;Node16</title>
<path fill="none" stroke="midnightblue" d="M606.75,-168.37C603.79,-155.29 596.88,-130.06 584.5,-112 576.47,-100.28 564.72,-89.64 554.53,-81.65"/>
<polygon fill="midnightblue" stroke="midnightblue" points="556.54,-78.79 546.44,-75.59 552.35,-84.39 556.54,-78.79"/>
</g>
<!-- Node17 -->
<g id="node17" class="node">
<title>Node17</title>
<g id="a_node17"><a xlink:href="ctype_8h.html" target="_top" xlink:title=" ">
<polygon fill="white" stroke="black" points="495,-112.5 495,-131.5 542,-131.5 542,-112.5 495,-112.5"/>
<text text-anchor="middle" x="518.5" y="-119.5" font-family="Helvetica,sans-Serif" font-size="10.00">ctype.h</text>
</a>
</g>
</g>
<!-- Node15&#45;&gt;Node17 -->
<g id="edge31" class="edge">
<title>Node15&#45;&gt;Node17</title>
<path fill="none" stroke="midnightblue" d="M594.04,-168.32C580,-159.9 558.45,-146.97 541.96,-137.07"/>
<polygon fill="midnightblue" stroke="midnightblue" points="543.3,-133.8 532.92,-131.65 539.7,-139.8 543.3,-133.8"/>
</g>
<!-- Node16&#45;&gt;Node7 -->
<g id="edge30" class="edge">
<title>Node16&#45;&gt;Node7</title>
<path fill="none" stroke="midnightblue" d="M521.45,-56.32C510.04,-48.11 492.67,-35.6 479.07,-25.81"/>
<polygon fill="midnightblue" stroke="midnightblue" points="480.93,-22.84 470.77,-19.83 476.84,-28.52 480.93,-22.84"/>
</g>
</g>
</svg>
        <g id="navigator" transform="translate(0 0)" fill="#404254">
                <rect fill="#f2f5e9" fill-opacity="0.5" stroke="#606060" stroke-width=".5" x="0" y="0" width="60" height="60"/>
                <use id="zoomplus" xlink:href="#zoomPlus" x="17" y="9" onmousedown="handleZoom(evt,'in')"/>
                <use id="zoomminus" xlink:href="#zoomMin" x="42" y="9" onmousedown="handleZoom(evt,'out')"/>
                <use id="reset" xlink:href="#resetDef" x="30" y="36" onmousedown="handleReset()"/>
                <g id="arrowUp" xlink:href="#dirArrow" transform="translate(30 24)" onmousedown="handlePan(0,-1)">
                  <use xlink:href="#rim" fill="#404040">
                        <set attributeName="fill" to="#808080" begin="arrowUp.mouseover" end="arrowUp.mouseout"/>
                  </use>
                  <path fill="none" stroke="white" stroke-width="1.5" d="M0,-3.0v7 M-2.5,-0.5L0,-3.0L2.5,-0.5"/>
                </g>
                <g id="arrowRight" xlink:href="#dirArrow" transform="rotate(90) translate(36 -43)" onmousedown="handlePan(1,0)">
                  <use xlink:href="#rim" fill="#404040">
                        <set attributeName="fill" to="#808080" begin="arrowRight.mouseover" end="arrowRight.mouseout"/>
                  </use>
                  <path fill="none" stroke="white" stroke-width="1.5" d="M0,-3.0v7 M-2.5,-0.5L0,-3.0L2.5,-0.5"/>
                </g>
                <g id="arrowDown" xlink:href="#dirArrow" transform="rotate(180) translate(-30 -48)" onmousedown="handlePan(0,1)">
                  <use xlink:href="#rim" fill="#404040">
                        <set attributeName="fill" to="#808080" begin="arrowDown.mouseover" end="arrowDown.mouseout"/>
                  </use>
                  <path fill="none" stroke="white" stroke-width="1.5" d="M0,-3.0v7 M-2.5,-0.5L0,-3.0L2.5,-0.5"/>
                </g>
                <g id="arrowLeft" xlink:href="#dirArrow" transform="rotate(270) translate(-36 17)" onmousedown="handlePan(-1,0)">
                  <use xlink:href="#rim" fill="#404040">
                        <set attributeName="fill" to="#808080" begin="arrowLeft.mouseover" end="arrowLeft.mouseout"/>
                  </use>
                  <path fill="none" stroke="white" stroke-width="1.5" d="M0,-3.0v7 M-2.5,-0.5L0,-3.0L2.5,-0.5"/>
                </g>
        </g>
        <svg viewBox="0 0 15 15" width="100%" height="30px" preserveAspectRatio="xMaxYMin meet">
         <g id="arrow_out" transform="scale(0.3 0.3)">
          <a xlink:href="audsrv_8c__incl_org.svg" target="_base">
           <rect id="button" ry="5" rx="5" y="6" x="6" height="38" width="38"
                fill="#f2f5e9" fill-opacity="0.5" stroke="#606060" stroke-width="1.0"/>
           <path id="arrow"
             d="M 11.500037,31.436501 C 11.940474,20.09759 22.043105,11.32322 32.158766,21.979434 L 37.068811,17.246167 C 37.068811,17.246167 37.088388,32 37.088388,32 L 22.160133,31.978069 C 22.160133,31.978069 26.997745,27.140456 26.997745,27.140456 C 18.528582,18.264221 13.291696,25.230495 11.500037,31.436501 z"
             style="fill:#404040;"/>
          </a>
         </g>
        </svg>
</svg>
