<?xml version="1.0" encoding="UTF-8" standalone="no"?>
<!DOCTYPE svg PUBLIC "-//W3C//DTD SVG 1.1//EN"
 "http://www.w3.org/Graphics/SVG/1.1/DTD/svg11.dtd">
<!-- Generated by graphviz version 9.0.0 (20230911.1827)
 -->
<!-- Title: iop/sound/audsrv/src/audsrv.c Pages: 1 -->
<!--zoomable 260 -->

<svg id="main" version="1.1" xmlns="http://www.w3.org/2000/svg" xmlns:xlink="http://www.w3.org/1999/xlink" xml:space="preserve" onload="init(evt)">
<style type="text/css"><![CDATA[
.node, .edge {opacity: 0.7;}
.node.selected, .edge.selected {opacity: 1;}
.edge:hover path { stroke: red; }
.edge:hover polygon { stroke: red; fill: red; }
]]></style>

<defs>
  <circle id="rim" cx="0" cy="0" r="7"/>
  <circle id="rim2" cx="0" cy="0" r="3.5"/>
  <g id="zoomPlus">
    <use xlink:href="#rim" fill="#404040"><set attributeName="fill" to="#808080" begin="zoomplus.mouseover" end="zoomplus.mouseout"/></use>
    <path d="M-4,0h8M0,-4v8" fill="none" stroke="white" stroke-width="1.5" pointer-events="none"/>
  </g>
  <g id="zoomMin">
    <use xlink:href="#rim" fill="#404040"><set attributeName="fill" to="#808080" begin="zoomminus.mouseover" end="zoomminus.mouseout"/></use>
    <path d="M-4,0h8" fill="none" stroke="white" stroke-width="1.5" pointer-events="none"/>
  </g>
  <g id="arrowUp" transform="translate(30 24)">
    <use xlink:href="#rim"/>
    <path pointer-events="none" fill="none" stroke="white" stroke-width="1.5" d="M0,-3.0v7 M-2.5,-0.5L0,-3.0L2.5,-0.5"/>
  </g>
  <g id="arrowRight" transform="rotate(90) translate(36 -43)">
    <use xlink:href="#rim"/>
    <path pointer-events="none" fill="none" stroke="white" stroke-width="1.5" d="M0,-3.0v7 M-2.5,-0.5L0,-3.0L2.5,-0.5"/>
  </g>
  <g id="arrowDown" transform="rotate(180) translate(-30 -48)">
    <use xlink:href="#rim"/>
    <path pointer-events="none" fill="none" stroke="white" stroke-width="1.5" d="M0,-3.0v7 M-2.5,-0.5L0,-3.0L2.5,-0.5"/>
  </g>
  <g id="arrowLeft" transform="rotate(270) translate(-36 17)">
    <use xlink:href="#rim"/>
    <path pointer-events="none" fill="none" stroke="white" stroke-width="1.5" d="M0,-3.0v7 M-2.5,-0.5L0,-3.0L2.5,-0.5"/>
  </g>
  <g id="resetDef">
    <use xlink:href="#rim2" fill="#404040"><set attributeName="fill" to="#808080" begin="reset.mouseover" end="reset.mouseout"/></use>
  </g>
</defs>
<script type="application/ecmascript">
var viewWidth = 1363;
var viewHeight = 260;
var sectionId = 'dynsection-0';
</script>
<script type="application/ecmascript" xlink:href="svg.min.js"/>
<svg id="graph" class="graph">
<g id="viewport">
<title>iop/sound/audsrv/src/audsrv.c</title>
<!-- Node1 -->
<g id="Node000001" class="node">
<title>Node1</title>
<g id="a_Node000001"><a xlink:title=" ">
<polygon fill="#999999" stroke="#666666" points="690.5,-251.5 583.75,-251.5 583.75,-221 690.5,-221 690.5,-251.5"/>
<text text-anchor="start" x="591.75" y="-238" font-family="Helvetica,sans-Serif" font-size="10.00">iop/sound/audsrv/src</text>
<text text-anchor="middle" x="637.12" y="-226.75" font-family="Helvetica,sans-Serif" font-size="10.00">/audsrv.c</text>
</a>
</g>
</g>
<!-- Node2 -->
<g id="Node000002" class="node">
<title>Node2</title>
<g id="a_Node000002"><a xlink:href="stdio_8h.html" target="_top" xlink:title=" ">
<polygon fill="white" stroke="#666666" points="424.38,-185 379.88,-185 379.88,-165.75 424.38,-165.75 424.38,-185"/>
<text text-anchor="middle" x="402.12" y="-171.5" font-family="Helvetica,sans-Serif" font-size="10.00">stdio.h</text>
</a>
</g>
</g>
<!-- Node1&#45;&gt;Node2 -->
<g id="edge1_Node000001_Node000002" class="edge">
<title>Node1&#45;&gt;Node2</title>
<g id="a_edge1_Node000001_Node000002"><a xlink:title=" ">
<path fill="none" stroke="#63b8ff" d="M583.62,-222.33C545.13,-212.95 491.69,-199.8 435.69,-185.36"/>
<polygon fill="#63b8ff" stroke="#63b8ff" points="436.86,-182.05 426.3,-182.94 435.11,-188.83 436.86,-182.05"/>
</a>
</g>
</g>
<!-- Node8 -->
<g id="Node000008" class="node">
<title>Node8</title>
<g id="a_Node000008"><a xlink:href="thbase_8h.html" target="_top" xlink:title=" ">
<polygon fill="white" stroke="#666666" points="204.5,-185 151.75,-185 151.75,-165.75 204.5,-165.75 204.5,-185"/>
<text text-anchor="middle" x="178.12" y="-171.5" font-family="Helvetica,sans-Serif" font-size="10.00">thbase.h</text>
</a>
</g>
</g>
<!-- Node1&#45;&gt;Node8 -->
<g id="edge7_Node000001_Node000008" class="edge">
<title>Node1&#45;&gt;Node8</title>
<g id="a_edge7_Node000001_Node000008"><a xlink:title=" ">
<path fill="none" stroke="#63b8ff" d="M583.41,-230.9C504.92,-224.09 354.12,-209.33 215.98,-185.12"/>
<polygon fill="#63b8ff" stroke="#63b8ff" points="216.74,-181.7 206.28,-183.39 215.51,-188.59 216.74,-181.7"/>
</a>
</g>
</g>
<!-- Node9 -->
<g id="Node000009" class="node">
<title>Node9</title>
<g id="a_Node000009"><a xlink:href="thsemap_8h.html" target="_top" xlink:title=" ">
<polygon fill="white" stroke="#666666" points="283.62,-185 222.62,-185 222.62,-165.75 283.62,-165.75 283.62,-185"/>
<text text-anchor="middle" x="253.12" y="-171.5" font-family="Helvetica,sans-Serif" font-size="10.00">thsemap.h</text>
</a>
</g>
</g>
<!-- Node1&#45;&gt;Node9 -->
<g id="edge10_Node000001_Node000009" class="edge">
<title>Node1&#45;&gt;Node9</title>
<g id="a_edge10_Node000001_Node000009"><a xlink:title=" ">
<path fill="none" stroke="#63b8ff" d="M583.32,-228.53C517.71,-220.08 403.21,-204.53 295.2,-185.27"/>
<polygon fill="#63b8ff" stroke="#63b8ff" points="296.04,-181.86 285.58,-183.54 294.8,-188.75 296.04,-181.86"/>
</a>
</g>
</g>
<!-- Node10 -->
<g id="Node000010" class="node">
<title>Node10</title>
<g id="a_Node000010"><a xlink:href="loadcore_8h.html" target="_top" xlink:title=" ">
<polygon fill="white" stroke="#666666" points="60.25,-185 0,-185 0,-165.75 60.25,-165.75 60.25,-185"/>
<text text-anchor="middle" x="30.12" y="-171.5" font-family="Helvetica,sans-Serif" font-size="10.00">loadcore.h</text>
</a>
</g>
</g>
<!-- Node1&#45;&gt;Node10 -->
<g id="edge13_Node000001_Node000010" class="edge">
<title>Node1&#45;&gt;Node10</title>
<g id="a_edge13_Node000001_Node000010"><a xlink:title=" ">
<path fill="none" stroke="#63b8ff" d="M583.6,-232.83C484.48,-227.84 265.53,-214.48 71.95,-185.25"/>
<polygon fill="#63b8ff" stroke="#63b8ff" points="72.62,-181.81 62.21,-183.76 71.56,-188.73 72.62,-181.81"/>
</a>
</g>
</g>
<!-- Node11 -->
<g id="Node000011" class="node">
<title>Node11</title>
<g id="a_Node000011"><a xlink:href="sysmem_8h.html" target="_top" xlink:title=" ">
<polygon fill="white" stroke="#666666" points="362.25,-185 302,-185 302,-165.75 362.25,-165.75 362.25,-185"/>
<text text-anchor="middle" x="332.12" y="-171.5" font-family="Helvetica,sans-Serif" font-size="10.00">sysmem.h</text>
</a>
</g>
</g>
<!-- Node1&#45;&gt;Node11 -->
<g id="edge16_Node000001_Node000011" class="edge">
<title>Node1&#45;&gt;Node11</title>
<g id="a_edge16_Node000001_Node000011"><a xlink:title=" ">
<path fill="none" stroke="#63b8ff" d="M583.28,-225.58C531.9,-216.24 452.02,-201.43 373.42,-185.42"/>
<polygon fill="#63b8ff" stroke="#63b8ff" points="374.32,-182.03 363.82,-183.46 372.92,-188.89 374.32,-182.03"/>
</a>
</g>
</g>
<!-- Node12 -->
<g id="Node000012" class="node">
<title>Node12</title>
<g id="a_Node000012"><a xlink:href="intrman_8h.html" target="_top" xlink:title=" ">
<polygon fill="white" stroke="#666666" points="134,-185 78.25,-185 78.25,-165.75 134,-165.75 134,-185"/>
<text text-anchor="middle" x="106.12" y="-171.5" font-family="Helvetica,sans-Serif" font-size="10.00">intrman.h</text>
</a>
</g>
</g>
<!-- Node1&#45;&gt;Node12 -->
<g id="edge20_Node000001_Node000012" class="edge">
<title>Node1&#45;&gt;Node12</title>
<g id="a_edge20_Node000001_Node000012"><a xlink:title=" ">
<path fill="none" stroke="#63b8ff" d="M583.46,-232.04C494.48,-226.24 310.63,-212.16 145.67,-185.22"/>
<polygon fill="#63b8ff" stroke="#63b8ff" points="146.26,-181.77 135.83,-183.59 145.12,-188.68 146.26,-181.77"/>
</a>
</g>
</g>
<!-- Node13 -->
<g id="Node000013" class="node">
<title>Node13</title>
<g id="a_Node000013"><a xlink:title=" ">
<polygon fill="#e0e0e0" stroke="#999999" points="495.5,-185 442.75,-185 442.75,-165.75 495.5,-165.75 495.5,-185"/>
<text text-anchor="middle" x="469.12" y="-171.5" font-family="Helvetica,sans-Serif" font-size="10.00">sifcmd.h</text>
</a>
</g>
</g>
<!-- Node1&#45;&gt;Node13 -->
<g id="edge23_Node000001_Node000013" class="edge">
<title>Node1&#45;&gt;Node13</title>
<g id="a_edge23_Node000001_Node000013"><a xlink:title=" ">
<path fill="none" stroke="#63b8ff" d="M595.16,-220.55C567.61,-210.89 531.93,-198.38 505.57,-189.15"/>
<polygon fill="#63b8ff" stroke="#63b8ff" points="506.91,-185.91 496.32,-185.9 504.6,-192.51 506.91,-185.91"/>
</a>
</g>
</g>
<!-- Node14 -->
<g id="Node000014" class="node">
<title>Node14</title>
<g id="a_Node000014"><a xlink:title=" ">
<polygon fill="#e0e0e0" stroke="#999999" points="557,-185 513.25,-185 513.25,-165.75 557,-165.75 557,-185"/>
<text text-anchor="middle" x="535.12" y="-171.5" font-family="Helvetica,sans-Serif" font-size="10.00">libsd.h</text>
</a>
</g>
</g>
<!-- Node1&#45;&gt;Node14 -->
<g id="edge24_Node000001_Node000014" class="edge">
<title>Node1&#45;&gt;Node14</title>
<g id="a_edge24_Node000001_Node000014"><a xlink:title=" ">
<path fill="none" stroke="#63b8ff" d="M611.65,-220.55C595.97,-211.49 575.94,-199.94 560.31,-190.91"/>
<polygon fill="#63b8ff" stroke="#63b8ff" points="562.49,-188.13 552.08,-186.16 558.99,-194.19 562.49,-188.13"/>
</a>
</g>
</g>
<!-- Node15 -->
<g id="Node000015" class="node">
<title>Node15</title>
<g id="a_Node000015"><a xlink:href="sysclib_8h.html" target="_top" xlink:title=" ">
<polygon fill="white" stroke="#666666" points="628.88,-185 575.38,-185 575.38,-165.75 628.88,-165.75 628.88,-185"/>
<text text-anchor="middle" x="602.12" y="-171.5" font-family="Helvetica,sans-Serif" font-size="10.00">sysclib.h</text>
</a>
</g>
</g>
<!-- Node1&#45;&gt;Node15 -->
<g id="edge25_Node000001_Node000015" class="edge">
<title>Node1&#45;&gt;Node15</title>
<g id="a_edge25_Node000001_Node000015"><a xlink:title=" ">
<path fill="none" stroke="#63b8ff" d="M628.47,-220.7C623.91,-213.03 618.26,-203.52 613.37,-195.29"/>
<polygon fill="#63b8ff" stroke="#63b8ff" points="616.41,-193.56 608.29,-186.75 610.4,-197.14 616.41,-193.56"/>
</a>
</g>
</g>
<!-- Node18 -->
<g id="Node000018" class="node">
<title>Node18</title>
<g id="a_Node000018"><a xlink:title=" ">
<polygon fill="#e0e0e0" stroke="#999999" points="699.5,-185 646.75,-185 646.75,-165.75 699.5,-165.75 699.5,-185"/>
<text text-anchor="middle" x="673.12" y="-171.5" font-family="Helvetica,sans-Serif" font-size="10.00">audsrv.h</text>
</a>
</g>
</g>
<!-- Node1&#45;&gt;Node18 -->
<g id="edge32_Node000001_Node000018" class="edge">
<title>Node1&#45;&gt;Node18</title>
<g id="a_edge32_Node000001_Node000018"><a xlink:title=" ">
<path fill="none" stroke="#63b8ff" d="M646.02,-220.7C650.77,-212.94 656.65,-203.31 661.73,-195.01"/>
<polygon fill="#63b8ff" stroke="#63b8ff" points="664.55,-197.1 666.79,-186.74 658.58,-193.45 664.55,-197.1"/>
</a>
</g>
</g>
<!-- Node19 -->
<g id="Node000019" class="node">
<title>Node19</title>
<g id="a_Node000019"><a xlink:href="audsrv__internal_8h.html" target="_top" xlink:title=" ">
<polygon fill="white" stroke="#666666" points="806.88,-185 717.38,-185 717.38,-165.75 806.88,-165.75 806.88,-185"/>
<text text-anchor="middle" x="762.12" y="-171.5" font-family="Helvetica,sans-Serif" font-size="10.00">audsrv_internal.h</text>
</a>
</g>
</g>
<!-- Node1&#45;&gt;Node19 -->
<g id="edge33_Node000001_Node000019" class="edge">
<title>Node1&#45;&gt;Node19</title>
<g id="a_edge33_Node000001_Node000019"><a xlink:title=" ">
<path fill="none" stroke="#63b8ff" d="M668.35,-220.55C688.02,-211.28 713.27,-199.38 732.61,-190.27"/>
<polygon fill="#63b8ff" stroke="#63b8ff" points="734.03,-193.48 741.59,-186.05 731.05,-187.14 734.03,-193.48"/>
</a>
</g>
</g>
<!-- Node20 -->
<g id="Node000020" class="node">
<title>Node20</title>
<g id="a_Node000020"><a xlink:href="iop_2sound_2audsrv_2src_2common_8h.html" target="_top" xlink:title=" ">
<polygon fill="white" stroke="#666666" points="885.62,-185 824.62,-185 824.62,-165.75 885.62,-165.75 885.62,-185"/>
<text text-anchor="middle" x="855.12" y="-171.5" font-family="Helvetica,sans-Serif" font-size="10.00">common.h</text>
</a>
</g>
</g>
<!-- Node1&#45;&gt;Node20 -->
<g id="edge34_Node000001_Node000020" class="edge">
<title>Node1&#45;&gt;Node20</title>
<g id="a_edge34_Node000001_Node000020"><a xlink:title=" ">
<path fill="none" stroke="#63b8ff" d="M690.73,-220.77C728.61,-210.54 778.65,-197.03 813.53,-187.61"/>
<polygon fill="#63b8ff" stroke="#63b8ff" points="814.09,-191.08 822.83,-185.1 812.26,-184.33 814.09,-191.08"/>
</a>
</g>
</g>
<!-- Node21 -->
<g id="Node000021" class="node">
<title>Node21</title>
<g id="a_Node000021"><a xlink:href="iop_2sound_2audsrv_2src_2rpc__server_8h.html" target="_top" xlink:title=" ">
<polygon fill="white" stroke="#666666" points="972.75,-185 903.5,-185 903.5,-165.75 972.75,-165.75 972.75,-185"/>
<text text-anchor="middle" x="938.12" y="-171.5" font-family="Helvetica,sans-Serif" font-size="10.00">rpc_server.h</text>
</a>
</g>
</g>
<!-- Node1&#45;&gt;Node21 -->
<g id="edge35_Node000001_Node000021" class="edge">
<title>Node1&#45;&gt;Node21</title>
<g id="a_edge35_Node000001_Node000021"><a xlink:title=" ">
<path fill="none" stroke="#63b8ff" d="M690.51,-224.94C740.25,-215.32 816.8,-200.46 892.27,-185.56"/>
<polygon fill="#63b8ff" stroke="#63b8ff" points="892.78,-189.02 901.91,-183.65 891.42,-182.16 892.78,-189.02"/>
</a>
</g>
</g>
<!-- Node22 -->
<g id="Node000022" class="node">
<title>Node22</title>
<g id="a_Node000022"><a xlink:href="iop_2sound_2audsrv_2src_2rpc__client_8h.html" target="_top" xlink:title=" ">
<polygon fill="white" stroke="#666666" points="1055.88,-185 990.38,-185 990.38,-165.75 1055.88,-165.75 1055.88,-185"/>
<text text-anchor="middle" x="1023.12" y="-171.5" font-family="Helvetica,sans-Serif" font-size="10.00">rpc_client.h</text>
</a>
</g>
</g>
<!-- Node1&#45;&gt;Node22 -->
<g id="edge36_Node000001_Node000022" class="edge">
<title>Node1&#45;&gt;Node22</title>
<g id="a_edge36_Node000001_Node000022"><a xlink:title=" ">
<path fill="none" stroke="#63b8ff" d="M690.78,-228.5C756.51,-219.99 871.52,-204.34 979,-185.48"/>
<polygon fill="#63b8ff" stroke="#63b8ff" points="979.31,-188.97 988.55,-183.78 978.09,-182.08 979.31,-188.97"/>
</a>
</g>
</g>
<!-- Node23 -->
<g id="Node000023" class="node">
<title>Node23</title>
<g id="a_Node000023"><a xlink:href="upsamplers_8h.html" target="_top" xlink:title=" ">
<polygon fill="white" stroke="#666666" points="1148,-185 1074.25,-185 1074.25,-165.75 1148,-165.75 1148,-185"/>
<text text-anchor="middle" x="1111.12" y="-171.5" font-family="Helvetica,sans-Serif" font-size="10.00">upsamplers.h</text>
</a>
</g>
</g>
<!-- Node1&#45;&gt;Node23 -->
<g id="edge37_Node000001_Node000023" class="edge">
<title>Node1&#45;&gt;Node23</title>
<g id="a_edge37_Node000001_Node000023"><a xlink:title=" ">
<path fill="none" stroke="#63b8ff" d="M691,-230.12C770.15,-222.32 922.75,-206.29 1062.67,-185.28"/>
<polygon fill="#63b8ff" stroke="#63b8ff" points="1063.15,-188.75 1072.51,-183.79 1062.1,-181.82 1063.15,-188.75"/>
</a>
</g>
</g>
<!-- Node24 -->
<g id="Node000024" class="node">
<title>Node24</title>
<g id="a_Node000024"><a xlink:href="hw_8h.html" target="_top" xlink:title=" ">
<polygon fill="white" stroke="#666666" points="1202.25,-185 1166,-185 1166,-165.75 1202.25,-165.75 1202.25,-185"/>
<text text-anchor="middle" x="1184.12" y="-171.5" font-family="Helvetica,sans-Serif" font-size="10.00">hw.h</text>
</a>
</g>
</g>
<!-- Node1&#45;&gt;Node24 -->
<g id="edge38_Node000001_Node000024" class="edge">
<title>Node1&#45;&gt;Node24</title>
<g id="a_edge38_Node000001_Node000024"><a xlink:title=" ">
<path fill="none" stroke="#63b8ff" d="M690.83,-233.82C783.81,-230.53 980.72,-219.98 1154.52,-185.12"/>
<polygon fill="#63b8ff" stroke="#63b8ff" points="1155.09,-188.57 1164.19,-183.14 1153.69,-181.72 1155.09,-188.57"/>
</a>
</g>
</g>
<!-- Node25 -->
<g id="Node000025" class="node">
<title>Node25</title>
<g id="a_Node000025"><a xlink:href="spu_8h.html" target="_top" xlink:title=" ">
<polygon fill="white" stroke="#666666" points="1259.75,-185 1220.5,-185 1220.5,-165.75 1259.75,-165.75 1259.75,-185"/>
<text text-anchor="middle" x="1240.12" y="-171.5" font-family="Helvetica,sans-Serif" font-size="10.00">spu.h</text>
</a>
</g>
</g>
<!-- Node1&#45;&gt;Node25 -->
<g id="edge39_Node000001_Node000025" class="edge">
<title>Node1&#45;&gt;Node25</title>
<g id="a_edge39_Node000001_Node000025"><a xlink:title=" ">
<path fill="none" stroke="#63b8ff" d="M690.64,-234.16C790.83,-231.34 1013.5,-221.41 1209.22,-184.95"/>
<polygon fill="#63b8ff" stroke="#63b8ff" points="1209.63,-188.43 1218.8,-183.13 1208.32,-181.55 1209.63,-188.43"/>
</a>
</g>
</g>
<!-- Node26 -->
<g id="Node000026" class="node">
<title>Node26</title>
<g id="a_Node000026"><a xlink:href="sound_2audsrv_2src_2debug__printf_8h_source.html" target="_top" xlink:title=" ">
<polygon fill="white" stroke="#666666" points="1354.5,-185 1277.75,-185 1277.75,-165.75 1354.5,-165.75 1354.5,-185"/>
<text text-anchor="middle" x="1316.12" y="-171.5" font-family="Helvetica,sans-Serif" font-size="10.00">debug_printf.h</text>
</a>
</g>
</g>
<!-- Node1&#45;&gt;Node26 -->
<g id="edge40_Node000001_Node000026" class="edge">
<title>Node1&#45;&gt;Node26</title>
<g id="a_edge40_Node000001_Node000026"><a xlink:title=" ">
<path fill="none" stroke="#63b8ff" d="M690.59,-232.85C797.84,-227.62 1047.06,-213.48 1266.05,-185.28"/>
<polygon fill="#63b8ff" stroke="#63b8ff" points="1266.48,-188.75 1275.94,-183.99 1265.58,-181.81 1266.48,-188.75"/>
</a>
</g>
</g>
<!-- Node3 -->
<g id="Node000003" class="node">
<title>Node3</title>
<g id="a_Node000003"><a xlink:title=" ">
<polygon fill="#e0e0e0" stroke="#999999" points="427.38,-129.75 376.88,-129.75 376.88,-110.5 427.38,-110.5 427.38,-129.75"/>
<text text-anchor="middle" x="402.12" y="-116.25" font-family="Helvetica,sans-Serif" font-size="10.00">stdarg.h</text>
</a>
</g>
</g>
<!-- Node2&#45;&gt;Node3 -->
<g id="edge2_Node000002_Node000003" class="edge">
<title>Node2&#45;&gt;Node3</title>
<g id="a_edge2_Node000002_Node000003"><a xlink:title=" ">
<path fill="none" stroke="#63b8ff" d="M402.12,-165.58C402.12,-159.07 402.12,-149.92 402.12,-141.62"/>
<polygon fill="#63b8ff" stroke="#63b8ff" points="405.63,-141.62 402.13,-131.62 398.63,-141.62 405.63,-141.62"/>
</a>
</g>
</g>
<!-- Node4 -->
<g id="Node000004" class="node">
<title>Node4</title>
<g id="a_Node000004"><a xlink:href="irx_8h.html" target="_top" xlink:title=" ">
<polygon fill="white" stroke="#666666" points="246.75,-129.75 213.5,-129.75 213.5,-110.5 246.75,-110.5 246.75,-129.75"/>
<text text-anchor="middle" x="230.12" y="-116.25" font-family="Helvetica,sans-Serif" font-size="10.00">irx.h</text>
</a>
</g>
</g>
<!-- Node2&#45;&gt;Node4 -->
<g id="edge3_Node000002_Node000004" class="edge">
<title>Node2&#45;&gt;Node4</title>
<g id="a_edge3_Node000002_Node000004"><a xlink:title=" ">
<path fill="none" stroke="#63b8ff" d="M379.64,-167.41C348.36,-157.73 291.75,-140.2 257.88,-129.72"/>
<polygon fill="#63b8ff" stroke="#63b8ff" points="258.96,-126.39 248.38,-126.78 256.89,-133.08 258.96,-126.39"/>
</a>
</g>
</g>
<!-- Node5 -->
<g id="Node000005" class="node">
<title>Node5</title>
<g id="a_Node000005"><a xlink:href="iop_2kernel_2include_2types_8h_source.html" target="_top" xlink:title=" ">
<polygon fill="white" stroke="#666666" points="275.5,-74.5 228.75,-74.5 228.75,-55.25 275.5,-55.25 275.5,-74.5"/>
<text text-anchor="middle" x="252.12" y="-61" font-family="Helvetica,sans-Serif" font-size="10.00">types.h</text>
</a>
</g>
</g>
<!-- Node4&#45;&gt;Node5 -->
<g id="edge4_Node000004_Node000005" class="edge">
<title>Node4&#45;&gt;Node5</title>
<g id="a_edge4_Node000004_Node000005"><a xlink:title=" ">
<path fill="none" stroke="#63b8ff" d="M233.76,-110.33C236.54,-103.59 240.5,-94.02 244.02,-85.49"/>
<polygon fill="#63b8ff" stroke="#63b8ff" points="247.25,-86.84 247.84,-76.26 240.78,-84.16 247.25,-86.84"/>
</a>
</g>
</g>
<!-- Node6 -->
<g id="Node000006" class="node">
<title>Node6</title>
<g id="a_Node000006"><a xlink:title=" ">
<polygon fill="#e0e0e0" stroke="#999999" points="277.38,-19.25 226.88,-19.25 226.88,0 277.38,0 277.38,-19.25"/>
<text text-anchor="middle" x="252.12" y="-5.75" font-family="Helvetica,sans-Serif" font-size="10.00">stddef.h</text>
</a>
</g>
</g>
<!-- Node5&#45;&gt;Node6 -->
<g id="edge5_Node000005_Node000006" class="edge">
<title>Node5&#45;&gt;Node6</title>
<g id="a_edge5_Node000005_Node000006"><a xlink:title=" ">
<path fill="none" stroke="#63b8ff" d="M252.12,-55.08C252.12,-48.57 252.12,-39.42 252.12,-31.12"/>
<polygon fill="#63b8ff" stroke="#63b8ff" points="255.63,-31.12 252.13,-21.12 248.63,-31.12 255.63,-31.12"/>
</a>
</g>
</g>
<!-- Node7 -->
<g id="Node000007" class="node">
<title>Node7</title>
<g id="a_Node000007"><a xlink:href="tamtypes_8h.html" target="_top" xlink:title=" ">
<polygon fill="white" stroke="#666666" points="486.75,-19.25 423.5,-19.25 423.5,0 486.75,0 486.75,-19.25"/>
<text text-anchor="middle" x="455.12" y="-5.75" font-family="Helvetica,sans-Serif" font-size="10.00">tamtypes.h</text>
</a>
</g>
</g>
<!-- Node5&#45;&gt;Node7 -->
<g id="edge6_Node000005_Node000007" class="edge">
<title>Node5&#45;&gt;Node7</title>
<g id="a_edge6_Node000005_Node000007"><a xlink:title=" ">
<path fill="none" stroke="#63b8ff" d="M275.81,-57.66C309.24,-48.89 370.84,-32.74 412.39,-21.84"/>
<polygon fill="#63b8ff" stroke="#63b8ff" points="413.02,-25.29 421.81,-19.36 411.25,-18.52 413.02,-25.29"/>
</a>
</g>
</g>
<!-- Node8&#45;&gt;Node4 -->
<g id="edge9_Node000008_Node000004" class="edge">
<title>Node8&#45;&gt;Node4</title>
<g id="a_edge9_Node000008_Node000004"><a xlink:title=" ">
<path fill="none" stroke="#63b8ff" d="M186.71,-165.58C193.97,-158.15 204.58,-147.29 213.49,-138.16"/>
<polygon fill="#63b8ff" stroke="#63b8ff" points="215.81,-140.79 220.29,-131.19 210.8,-135.9 215.81,-140.79"/>
</a>
</g>
</g>
<!-- Node8&#45;&gt;Node5 -->
<g id="edge8_Node000008_Node000005" class="edge">
<title>Node8&#45;&gt;Node5</title>
<g id="a_edge8_Node000008_Node000005"><a xlink:title=" ">
<path fill="none" stroke="#63b8ff" d="M180.4,-165.52C184,-152.61 191.88,-128.24 204.12,-110.5 211.49,-99.83 221.82,-89.81 231.01,-81.98"/>
<polygon fill="#63b8ff" stroke="#63b8ff" points="232.94,-84.92 238.49,-75.89 228.52,-79.49 232.94,-84.92"/>
</a>
</g>
</g>
<!-- Node9&#45;&gt;Node4 -->
<g id="edge12_Node000009_Node000004" class="edge">
<title>Node9&#45;&gt;Node4</title>
<g id="a_edge12_Node000009_Node000004"><a xlink:title=" ">
<path fill="none" stroke="#63b8ff" d="M249.33,-165.58C246.38,-158.76 242.19,-149.06 238.47,-140.45"/>
<polygon fill="#63b8ff" stroke="#63b8ff" points="241.78,-139.29 234.61,-131.5 235.36,-142.07 241.78,-139.29"/>
</a>
</g>
</g>
<!-- Node9&#45;&gt;Node5 -->
<g id="edge11_Node000009_Node000005" class="edge">
<title>Node9&#45;&gt;Node5</title>
<g id="a_edge11_Node000009_Node000005"><a xlink:title=" ">
<path fill="none" stroke="#63b8ff" d="M254.08,-165.28C255.25,-152.89 257,-130.02 256.12,-110.5 255.77,-102.54 255.06,-93.79 254.33,-86.18"/>
<polygon fill="#63b8ff" stroke="#63b8ff" points="257.81,-85.84 253.31,-76.26 250.85,-86.56 257.81,-85.84"/>
</a>
</g>
</g>
<!-- Node10&#45;&gt;Node4 -->
<g id="edge15_Node000010_Node000004" class="edge">
<title>Node10&#45;&gt;Node4</title>
<g id="a_edge15_Node000010_Node000004"><a xlink:title=" ">
<path fill="none" stroke="#63b8ff" d="M60.5,-166.29C98.96,-156.05 164.68,-138.55 202.03,-128.61"/>
<polygon fill="#63b8ff" stroke="#63b8ff" points="202.86,-132.01 211.62,-126.05 201.05,-125.24 202.86,-132.01"/>
</a>
</g>
</g>
<!-- Node10&#45;&gt;Node5 -->
<g id="edge14_Node000010_Node000005" class="edge">
<title>Node10&#45;&gt;Node5</title>
<g id="a_edge14_Node000010_Node000005"><a xlink:title=" ">
<path fill="none" stroke="#63b8ff" d="M48.04,-165.42C72.92,-153 119.36,-129.88 159.12,-110.5 180.42,-100.12 204.54,-88.55 222.88,-79.79"/>
<polygon fill="#63b8ff" stroke="#63b8ff" points="224.33,-82.98 231.85,-75.52 221.31,-76.66 224.33,-82.98"/>
</a>
</g>
</g>
<!-- Node11&#45;&gt;Node3 -->
<g id="edge19_Node000011_Node000003" class="edge">
<title>Node11&#45;&gt;Node3</title>
<g id="a_edge19_Node000011_Node000003"><a xlink:title=" ">
<path fill="none" stroke="#63b8ff" d="M344,-165.34C354.22,-157.57 369.2,-146.17 381.39,-136.9"/>
<polygon fill="#63b8ff" stroke="#63b8ff" points="383.38,-139.78 389.22,-130.94 379.14,-134.21 383.38,-139.78"/>
</a>
</g>
</g>
<!-- Node11&#45;&gt;Node4 -->
<g id="edge18_Node000011_Node000004" class="edge">
<title>Node11&#45;&gt;Node4</title>
<g id="a_edge18_Node000011_Node000004"><a xlink:title=" ">
<path fill="none" stroke="#63b8ff" d="M314.82,-165.34C299.05,-157.11 275.49,-144.81 257.22,-135.27"/>
<polygon fill="#63b8ff" stroke="#63b8ff" points="259,-132.25 248.51,-130.73 255.76,-138.46 259,-132.25"/>
</a>
</g>
</g>
<!-- Node11&#45;&gt;Node5 -->
<g id="edge17_Node000011_Node000005" class="edge">
<title>Node11&#45;&gt;Node5</title>
<g id="a_edge17_Node000011_Node000005"><a xlink:title=" ">
<path fill="none" stroke="#63b8ff" d="M325.58,-165.5C312.51,-147.77 282.96,-107.69 265.58,-84.13"/>
<polygon fill="#63b8ff" stroke="#63b8ff" points="268.41,-82.07 259.66,-76.09 262.78,-86.22 268.41,-82.07"/>
</a>
</g>
</g>
<!-- Node12&#45;&gt;Node4 -->
<g id="edge22_Node000012_Node000004" class="edge">
<title>Node12&#45;&gt;Node4</title>
<g id="a_edge22_Node000012_Node000004"><a xlink:title=" ">
<path fill="none" stroke="#63b8ff" d="M127.16,-165.34C148.06,-156.37 180.21,-142.56 203.01,-132.77"/>
<polygon fill="#63b8ff" stroke="#63b8ff" points="204.17,-136.08 211.98,-128.92 201.41,-129.65 204.17,-136.08"/>
</a>
</g>
</g>
<!-- Node12&#45;&gt;Node5 -->
<g id="edge21_Node000012_Node000005" class="edge">
<title>Node12&#45;&gt;Node5</title>
<g id="a_edge21_Node000012_Node000005"><a xlink:title=" ">
<path fill="none" stroke="#63b8ff" d="M117.56,-165.34C133.47,-152.84 163.24,-129.62 189.12,-110.5 202.43,-100.67 217.56,-89.95 229.65,-81.47"/>
<polygon fill="#63b8ff" stroke="#63b8ff" points="231.55,-84.42 237.74,-75.82 227.54,-78.68 231.55,-84.42"/>
</a>
</g>
</g>
<!-- Node15&#45;&gt;Node3 -->
<g id="edge28_Node000015_Node000003" class="edge">
<title>Node15&#45;&gt;Node3</title>
<g id="a_edge28_Node000015_Node000003"><a xlink:title=" ">
<path fill="none" stroke="#63b8ff" d="M575.15,-167.19C539.92,-157.81 478.11,-141.36 438.7,-130.86"/>
<polygon fill="#63b8ff" stroke="#63b8ff" points="439.75,-127.52 429.19,-128.33 437.95,-134.29 439.75,-127.52"/>
</a>
</g>
</g>
<!-- Node15&#45;&gt;Node4 -->
<g id="edge27_Node000015_Node000004" class="edge">
<title>Node15&#45;&gt;Node4</title>
<g id="a_edge27_Node000015_Node000004"><a xlink:title=" ">
<path fill="none" stroke="#63b8ff" d="M575.06,-167.57C572.06,-166.91 569.03,-166.29 566.12,-165.75 452.69,-144.69 315.94,-129.71 258.11,-123.85"/>
<polygon fill="#63b8ff" stroke="#63b8ff" points="258.81,-120.41 248.51,-122.9 258.11,-127.37 258.81,-120.41"/>
</a>
</g>
</g>
<!-- Node15&#45;&gt;Node5 -->
<g id="edge26_Node000015_Node000005" class="edge">
<title>Node15&#45;&gt;Node5</title>
<g id="a_edge26_Node000015_Node000005"><a xlink:title=" ">
<path fill="none" stroke="#63b8ff" d="M597.12,-165.61C588.51,-151.42 569.43,-123.67 545.12,-110.5 501.17,-86.68 355.11,-73.31 287.29,-68.25"/>
<polygon fill="#63b8ff" stroke="#63b8ff" points="287.69,-64.77 277.47,-67.54 287.19,-71.75 287.69,-64.77"/>
</a>
</g>
</g>
<!-- Node16 -->
<g id="Node000016" class="node">
<title>Node16</title>
<g id="a_Node000016"><a xlink:href="setjmp_8h.html" target="_top" xlink:title=" ">
<polygon fill="white" stroke="#666666" points="554.5,-74.5 501.75,-74.5 501.75,-55.25 554.5,-55.25 554.5,-74.5"/>
<text text-anchor="middle" x="528.12" y="-61" font-family="Helvetica,sans-Serif" font-size="10.00">setjmp.h</text>
</a>
</g>
</g>
<!-- Node15&#45;&gt;Node16 -->
<g id="edge29_Node000015_Node000016" class="edge">
<title>Node15&#45;&gt;Node16</title>
<g id="a_edge29_Node000015_Node000016"><a xlink:title=" ">
<path fill="none" stroke="#63b8ff" d="M600.22,-165.48C597.15,-152.52 590.18,-128.09 578.12,-110.5 570.63,-99.56 559.89,-89.51 550.29,-81.73"/>
<polygon fill="#63b8ff" stroke="#63b8ff" points="552.49,-79.01 542.43,-75.69 548.22,-84.56 552.49,-79.01"/>
</a>
</g>
</g>
<!-- Node17 -->
<g id="Node000017" class="node">
<title>Node17</title>
<g id="a_Node000017"><a xlink:href="ctype_8h.html" target="_top" xlink:title=" ">
<polygon fill="white" stroke="#666666" points="536.5,-129.75 489.75,-129.75 489.75,-110.5 536.5,-110.5 536.5,-129.75"/>
<text text-anchor="middle" x="513.12" y="-116.25" font-family="Helvetica,sans-Serif" font-size="10.00">ctype.h</text>
</a>
</g>
</g>
<!-- Node15&#45;&gt;Node17 -->
<g id="edge31_Node000015_Node000017" class="edge">
<title>Node15&#45;&gt;Node17</title>
<g id="a_edge31_Node000015_Node000017"><a xlink:title=" ">
<path fill="none" stroke="#63b8ff" d="M587.03,-165.34C573.6,-157.31 553.71,-145.41 537.95,-135.98"/>
<polygon fill="#63b8ff" stroke="#63b8ff" points="539.97,-133.11 529.6,-130.98 536.38,-139.12 539.97,-133.11"/>
</a>
</g>
</g>
<!-- Node16&#45;&gt;Node7 -->
<g id="edge30_Node000016_Node000007" class="edge">
<title>Node16&#45;&gt;Node7</title>
<g id="a_edge30_Node000016_Node000007"><a xlink:title=" ">
<path fill="none" stroke="#63b8ff" d="M515.74,-54.84C504.98,-46.99 489.15,-35.45 476.37,-26.12"/>
<polygon fill="#63b8ff" stroke="#63b8ff" points="478.69,-23.48 468.55,-20.42 474.56,-29.14 478.69,-23.48"/>
</a>
</g>
</g>
</g>
</svg>

<g id="navigator" transform="translate(0 0)" fill="#404254">
  <rect fill="#f2f5e9" fill-opacity="0.5" stroke="#606060" stroke-width=".5" x="0" y="0" width="60" height="60"/>
  <use id="zoomplus" xlink:href="#zoomPlus" x="17" y="9" onmousedown="handleZoom(evt,'in')"/>
  <use id="zoomminus" xlink:href="#zoomMin" x="42" y="9" onmousedown="handleZoom(evt,'out')"/>
  <use id="reset" xlink:href="#resetDef" x="30" y="36" onmousedown="handleReset()"/>
   <use id="arrowup" xlink:href="#arrowUp" x="0" y="0" onmousedown="handlePan(0,-1)"/>
  <use id="arrowright" xlink:href="#arrowRight" x="0" y="0" onmousedown="handlePan(1,0)"/>
  <use id="arrowdown" xlink:href="#arrowDown" x="0" y="0" onmousedown="handlePan(0,1)"/>
  <use id="arrowleft" xlink:href="#arrowLeft" x="0" y="0" onmousedown="handlePan(-1,0)"/>
</g>
<svg viewBox="0 0 15 15" width="100%" height="30px" preserveAspectRatio="xMaxYMin meet">
 <g id="arrow_out" transform="scale(0.3 0.3)">
  <a xlink:href="audsrv_8c__incl_org.svg" target="_base">
   <rect id="button" ry="5" rx="5" y="6" x="6" height="38" width="38"
        fill="#f2f5e9" fill-opacity="0.5" stroke="#606060" stroke-width="1.0"/>
   <path id="arrow"
     d="M 11.500037,31.436501 C 11.940474,20.09759 22.043105,11.32322 32.158766,21.979434 L 37.068811,17.246167 C 37.068811,17.246167 37.088388,32 37.088388,32 L 22.160133,31.978069 C 22.160133,31.978069 26.997745,27.140456 26.997745,27.140456 C 18.528582,18.264221 13.291696,25.230495 11.500037,31.436501 z"
     style="fill:#404040;"/>
  </a>
 </g>
</svg>

<style type='text/css'>
<![CDATA[
[data-mouse-over-selected='false'] { opacity: 0.7; }
[data-mouse-over-selected='true']  { opacity: 1.0; }
]]>
</style>
<script type="application/ecmascript"><![CDATA[
document.addEventListener('DOMContentLoaded', (event) => {
  highlightEdges();
  highlightAdjacentNodes();
});
]]></script>
</svg>
