<?xml version="1.0" encoding="UTF-8" standalone="no"?>
<!DOCTYPE svg PUBLIC "-//W3C//DTD SVG 1.1//EN"
 "http://www.w3.org/Graphics/SVG/1.1/DTD/svg11.dtd">
<!-- Generated by graphviz version 9.0.0 (20230911.1827)
 -->
<!-- Title: iop/fs/libbdm/include/bd_defrag.h Pages: 1 -->
<svg width="197pt" height="260pt"
 viewBox="0.00 0.00 197.08 259.50" xmlns="http://www.w3.org/2000/svg" xmlns:xlink="http://www.w3.org/1999/xlink">
<g id="graph0" class="graph" transform="scale(1 1) rotate(0) translate(4 255.5)">
<title>iop/fs/libbdm/include/bd_defrag.h</title>
<!-- Node1 -->
<g id="Node000001" class="node">
<title>Node1</title>
<g id="a_Node000001"><a xlink:title=" ">
<polygon fill="#999999" stroke="#666666" points="107.46,-251.5 2.21,-251.5 2.21,-221 107.46,-221 107.46,-251.5"/>
<text text-anchor="start" x="10.21" y="-238" font-family="Helvetica,sans-Serif" font-size="10.00">iop/fs/libbdm/include</text>
<text text-anchor="middle" x="54.83" y="-226.75" font-family="Helvetica,sans-Serif" font-size="10.00">/bd_defrag.h</text>
</a>
</g>
</g>
<!-- Node2 -->
<g id="Node000002" class="node">
<title>Node2</title>
<g id="a_Node000002"><a xlink:href="tamtypes_8h.html" target="_top" xlink:title=" ">
<polygon fill="white" stroke="#666666" points="102.46,-19.25 39.21,-19.25 39.21,0 102.46,0 102.46,-19.25"/>
<text text-anchor="middle" x="70.83" y="-5.75" font-family="Helvetica,sans-Serif" font-size="10.00">tamtypes.h</text>
</a>
</g>
</g>
<!-- Node1&#45;&gt;Node2 -->
<g id="edge1_Node000001_Node000002" class="edge">
<title>Node1&#45;&gt;Node2</title>
<g id="a_edge1_Node000001_Node000002"><a xlink:title=" ">
<path fill="none" stroke="#63b8ff" d="M44.82,-220.95C24.11,-189.47 -19.17,-112.41 9.83,-55.25 16.26,-42.58 28.17,-32.64 39.77,-25.4"/>
<polygon fill="#63b8ff" stroke="#63b8ff" points="41.46,-28.46 48.42,-20.47 38,-22.38 41.46,-28.46"/>
</a>
</g>
</g>
<!-- Node3 -->
<g id="Node000003" class="node">
<title>Node3</title>
<g id="a_Node000003"><a xlink:href="bdm_8h.html" target="_top" xlink:title=" ">
<polygon fill="white" stroke="#666666" points="126.96,-185 84.71,-185 84.71,-165.75 126.96,-165.75 126.96,-185"/>
<text text-anchor="middle" x="105.83" y="-171.5" font-family="Helvetica,sans-Serif" font-size="10.00">bdm.h</text>
</a>
</g>
</g>
<!-- Node1&#45;&gt;Node3 -->
<g id="edge2_Node000001_Node000003" class="edge">
<title>Node1&#45;&gt;Node3</title>
<g id="a_edge2_Node000001_Node000003"><a xlink:title=" ">
<path fill="none" stroke="#63b8ff" d="M67.44,-220.7C74.46,-212.59 83.25,-202.45 90.64,-193.91"/>
<polygon fill="#63b8ff" stroke="#63b8ff" points="93.08,-196.45 96.98,-186.6 87.79,-191.86 93.08,-196.45"/>
</a>
</g>
</g>
<!-- Node8 -->
<g id="Node000008" class="node">
<title>Node8</title>
<g id="a_Node000008"><a xlink:href="usbhdfsd-common_8h.html" target="_top" xlink:title=" ">
<polygon fill="white" stroke="#666666" points="122.71,-74.5 18.96,-74.5 18.96,-55.25 122.71,-55.25 122.71,-74.5"/>
<text text-anchor="middle" x="70.83" y="-61" font-family="Helvetica,sans-Serif" font-size="10.00">usbhdfsd&#45;common.h</text>
</a>
</g>
</g>
<!-- Node1&#45;&gt;Node8 -->
<g id="edge8_Node000001_Node000008" class="edge">
<title>Node1&#45;&gt;Node8</title>
<g id="a_edge8_Node000001_Node000008"><a xlink:title=" ">
<path fill="none" stroke="#63b8ff" d="M56.23,-220.52C59.09,-190.26 65.62,-121.05 68.89,-86.41"/>
<polygon fill="#63b8ff" stroke="#63b8ff" points="72.38,-86.78 69.83,-76.49 65.41,-86.12 72.38,-86.78"/>
</a>
</g>
</g>
<!-- Node4 -->
<g id="Node000004" class="node">
<title>Node4</title>
<g id="a_Node000004"><a xlink:href="irx_8h.html" target="_top" xlink:title=" ">
<polygon fill="white" stroke="#666666" points="180.46,-129.75 147.21,-129.75 147.21,-110.5 180.46,-110.5 180.46,-129.75"/>
<text text-anchor="middle" x="163.83" y="-116.25" font-family="Helvetica,sans-Serif" font-size="10.00">irx.h</text>
</a>
</g>
</g>
<!-- Node3&#45;&gt;Node4 -->
<g id="edge3_Node000003_Node000004" class="edge">
<title>Node3&#45;&gt;Node4</title>
<g id="a_edge3_Node000003_Node000004"><a xlink:title=" ">
<path fill="none" stroke="#63b8ff" d="M115.67,-165.34C123.89,-157.8 135.82,-146.85 145.75,-137.73"/>
<polygon fill="#63b8ff" stroke="#63b8ff" points="148.03,-140.39 153.03,-131.05 143.29,-135.23 148.03,-140.39"/>
</a>
</g>
</g>
<!-- Node7 -->
<g id="Node000007" class="node">
<title>Node7</title>
<g id="a_Node000007"><a xlink:title=" ">
<polygon fill="#e0e0e0" stroke="#999999" points="129.21,-129.75 82.46,-129.75 82.46,-110.5 129.21,-110.5 129.21,-129.75"/>
<text text-anchor="middle" x="105.83" y="-116.25" font-family="Helvetica,sans-Serif" font-size="10.00">types.h</text>
</a>
</g>
</g>
<!-- Node3&#45;&gt;Node7 -->
<g id="edge7_Node000003_Node000007" class="edge">
<title>Node3&#45;&gt;Node7</title>
<g id="a_edge7_Node000003_Node000007"><a xlink:title=" ">
<path fill="none" stroke="#63b8ff" d="M105.83,-165.58C105.83,-159.07 105.83,-149.92 105.83,-141.62"/>
<polygon fill="#63b8ff" stroke="#63b8ff" points="109.33,-141.62 105.83,-131.62 102.33,-141.62 109.33,-141.62"/>
</a>
</g>
</g>
<!-- Node5 -->
<g id="Node000005" class="node">
<title>Node5</title>
<g id="a_Node000005"><a xlink:href="iop_2kernel_2include_2types_8h_source.html" target="_top" xlink:title=" ">
<polygon fill="white" stroke="#666666" points="187.21,-74.5 140.46,-74.5 140.46,-55.25 187.21,-55.25 187.21,-74.5"/>
<text text-anchor="middle" x="163.83" y="-61" font-family="Helvetica,sans-Serif" font-size="10.00">types.h</text>
</a>
</g>
</g>
<!-- Node4&#45;&gt;Node5 -->
<g id="edge4_Node000004_Node000005" class="edge">
<title>Node4&#45;&gt;Node5</title>
<g id="a_edge4_Node000004_Node000005"><a xlink:title=" ">
<path fill="none" stroke="#63b8ff" d="M163.83,-110.33C163.83,-103.82 163.83,-94.67 163.83,-86.37"/>
<polygon fill="#63b8ff" stroke="#63b8ff" points="167.33,-86.37 163.83,-76.37 160.33,-86.37 167.33,-86.37"/>
</a>
</g>
</g>
<!-- Node5&#45;&gt;Node2 -->
<g id="edge6_Node000005_Node000002" class="edge">
<title>Node5&#45;&gt;Node2</title>
<g id="a_edge6_Node000005_Node000002"><a xlink:title=" ">
<path fill="none" stroke="#63b8ff" d="M148.06,-54.84C133.9,-46.73 112.85,-34.68 96.31,-25.21"/>
<polygon fill="#63b8ff" stroke="#63b8ff" points="98.42,-22.39 88,-20.45 94.94,-28.46 98.42,-22.39"/>
</a>
</g>
</g>
<!-- Node6 -->
<g id="Node000006" class="node">
<title>Node6</title>
<g id="a_Node000006"><a xlink:title=" ">
<polygon fill="#e0e0e0" stroke="#999999" points="189.08,-19.25 138.58,-19.25 138.58,0 189.08,0 189.08,-19.25"/>
<text text-anchor="middle" x="163.83" y="-5.75" font-family="Helvetica,sans-Serif" font-size="10.00">stddef.h</text>
</a>
</g>
</g>
<!-- Node5&#45;&gt;Node6 -->
<g id="edge5_Node000005_Node000006" class="edge">
<title>Node5&#45;&gt;Node6</title>
<g id="a_edge5_Node000005_Node000006"><a xlink:title=" ">
<path fill="none" stroke="#63b8ff" d="M163.83,-55.08C163.83,-48.57 163.83,-39.42 163.83,-31.12"/>
<polygon fill="#63b8ff" stroke="#63b8ff" points="167.33,-31.12 163.83,-21.12 160.33,-31.12 167.33,-31.12"/>
</a>
</g>
</g>
<!-- Node8&#45;&gt;Node2 -->
<g id="edge9_Node000008_Node000002" class="edge">
<title>Node8&#45;&gt;Node2</title>
<g id="a_edge9_Node000008_Node000002"><a xlink:title=" ">
<path fill="none" stroke="#63b8ff" d="M70.83,-55.08C70.83,-48.57 70.83,-39.42 70.83,-31.12"/>
<polygon fill="#63b8ff" stroke="#63b8ff" points="74.33,-31.12 70.83,-21.12 67.33,-31.12 74.33,-31.12"/>
</a>
</g>
</g>
</g>
</svg>
