<?xml version="1.0" encoding="UTF-8" standalone="no"?>
<!DOCTYPE svg PUBLIC "-//W3C//DTD SVG 1.1//EN"
 "http://www.w3.org/Graphics/SVG/1.1/DTD/svg11.dtd">
<!-- Generated by graphviz version 2.43.0 (0)
 -->
<!-- Title: iop/fs/libbdm/include/bd_defrag.h Pages: 1 -->
<svg width="216pt" height="263pt"
 viewBox="0.00 0.00 216.23 263.00" xmlns="http://www.w3.org/2000/svg" xmlns:xlink="http://www.w3.org/1999/xlink">
<g id="graph0" class="graph" transform="scale(1 1) rotate(0) translate(4 259)">
<title>iop/fs/libbdm/include/bd_defrag.h</title>
<polygon fill="white" stroke="transparent" points="-4,4 -4,-259 212.23,-259 212.23,4 -4,4"/>
<!-- Node1 -->
<g id="node1" class="node">
<title>Node1</title>
<g id="a_node1"><a xlink:title=" ">
<polygon fill="#bfbfbf" stroke="black" points="1.73,-224.5 1.73,-254.5 120.73,-254.5 120.73,-224.5 1.73,-224.5"/>
<text text-anchor="start" x="9.73" y="-242.5" font-family="Helvetica,sans-Serif" font-size="10.00">iop/fs/libbdm/include</text>
<text text-anchor="middle" x="61.23" y="-231.5" font-family="Helvetica,sans-Serif" font-size="10.00">/bd_defrag.h</text>
</a>
</g>
</g>
<!-- Node2 -->
<g id="node2" class="node">
<title>Node2</title>
<g id="a_node2"><a xlink:href="tamtypes_8h.html" target="_top" xlink:title=" ">
<polygon fill="white" stroke="black" points="41.23,-0.5 41.23,-19.5 113.23,-19.5 113.23,-0.5 41.23,-0.5"/>
<text text-anchor="middle" x="77.23" y="-7.5" font-family="Helvetica,sans-Serif" font-size="10.00">tamtypes.h</text>
</a>
</g>
</g>
<!-- Node1&#45;&gt;Node2 -->
<g id="edge1" class="edge">
<title>Node1&#45;&gt;Node2</title>
<path fill="none" stroke="midnightblue" d="M50.53,-224.46C27.82,-192.79 -20.72,-114.06 10.23,-56 17.78,-41.83 31.99,-31.33 45.39,-24.06"/>
<polygon fill="midnightblue" stroke="midnightblue" points="47.06,-27.13 54.44,-19.53 43.93,-20.87 47.06,-27.13"/>
</g>
<!-- Node3 -->
<g id="node3" class="node">
<title>Node3</title>
<g id="a_node3"><a xlink:href="bdm_8h.html" target="_top" xlink:title=" ">
<polygon fill="white" stroke="black" points="92.73,-168.5 92.73,-187.5 139.73,-187.5 139.73,-168.5 92.73,-168.5"/>
<text text-anchor="middle" x="116.23" y="-175.5" font-family="Helvetica,sans-Serif" font-size="10.00">bdm.h</text>
</a>
</g>
</g>
<!-- Node1&#45;&gt;Node3 -->
<g id="edge2" class="edge">
<title>Node1&#45;&gt;Node3</title>
<path fill="none" stroke="midnightblue" d="M74.26,-224.4C82.42,-215.58 92.95,-204.18 101.42,-195.02"/>
<polygon fill="midnightblue" stroke="midnightblue" points="104.01,-197.38 108.23,-187.66 98.87,-192.63 104.01,-197.38"/>
</g>
<!-- Node8 -->
<g id="node8" class="node">
<title>Node8</title>
<g id="a_node8"><a xlink:href="usbhdfsd-common_8h.html" target="_top" xlink:title=" ">
<polygon fill="white" stroke="black" points="19.23,-56.5 19.23,-75.5 135.23,-75.5 135.23,-56.5 19.23,-56.5"/>
<text text-anchor="middle" x="77.23" y="-63.5" font-family="Helvetica,sans-Serif" font-size="10.00">usbhdfsd&#45;common.h</text>
</a>
</g>
</g>
<!-- Node1&#45;&gt;Node8 -->
<g id="edge8" class="edge">
<title>Node1&#45;&gt;Node8</title>
<path fill="none" stroke="midnightblue" d="M62.54,-224.47C65.41,-193.7 72.25,-120.33 75.48,-85.7"/>
<polygon fill="midnightblue" stroke="midnightblue" points="78.99,-85.84 76.43,-75.56 72.02,-85.19 78.99,-85.84"/>
</g>
<!-- Node4 -->
<g id="node4" class="node">
<title>Node4</title>
<g id="a_node4"><a xlink:href="irx_8h.html" target="_top" xlink:title=" ">
<polygon fill="white" stroke="black" points="161.23,-112.5 161.23,-131.5 199.23,-131.5 199.23,-112.5 161.23,-112.5"/>
<text text-anchor="middle" x="180.23" y="-119.5" font-family="Helvetica,sans-Serif" font-size="10.00">irx.h</text>
</a>
</g>
</g>
<!-- Node3&#45;&gt;Node4 -->
<g id="edge3" class="edge">
<title>Node3&#45;&gt;Node4</title>
<path fill="none" stroke="midnightblue" d="M126.51,-168.32C136.07,-160.26 150.51,-148.08 162.01,-138.37"/>
<polygon fill="midnightblue" stroke="midnightblue" points="164.37,-140.96 169.76,-131.83 159.86,-135.61 164.37,-140.96"/>
</g>
<!-- Node7 -->
<g id="node7" class="node">
<title>Node7</title>
<g id="a_node7"><a xlink:title=" ">
<polygon fill="white" stroke="#bfbfbf" points="89.73,-112.5 89.73,-131.5 142.73,-131.5 142.73,-112.5 89.73,-112.5"/>
<text text-anchor="middle" x="116.23" y="-119.5" font-family="Helvetica,sans-Serif" font-size="10.00">types.h</text>
</a>
</g>
</g>
<!-- Node3&#45;&gt;Node7 -->
<g id="edge7" class="edge">
<title>Node3&#45;&gt;Node7</title>
<path fill="none" stroke="midnightblue" d="M116.23,-168.08C116.23,-161.01 116.23,-150.86 116.23,-141.99"/>
<polygon fill="midnightblue" stroke="midnightblue" points="119.73,-141.75 116.23,-131.75 112.73,-141.75 119.73,-141.75"/>
</g>
<!-- Node5 -->
<g id="node5" class="node">
<title>Node5</title>
<g id="a_node5"><a xlink:href="iop_2kernel_2include_2types_8h_source.html" target="_top" xlink:title=" ">
<polygon fill="white" stroke="black" points="153.73,-56.5 153.73,-75.5 206.73,-75.5 206.73,-56.5 153.73,-56.5"/>
<text text-anchor="middle" x="180.23" y="-63.5" font-family="Helvetica,sans-Serif" font-size="10.00">types.h</text>
</a>
</g>
</g>
<!-- Node4&#45;&gt;Node5 -->
<g id="edge4" class="edge">
<title>Node4&#45;&gt;Node5</title>
<path fill="none" stroke="midnightblue" d="M180.23,-112.08C180.23,-105.01 180.23,-94.86 180.23,-85.99"/>
<polygon fill="midnightblue" stroke="midnightblue" points="183.73,-85.75 180.23,-75.75 176.73,-85.75 183.73,-85.75"/>
</g>
<!-- Node5&#45;&gt;Node2 -->
<g id="edge6" class="edge">
<title>Node5&#45;&gt;Node2</title>
<path fill="none" stroke="midnightblue" d="M163.68,-56.32C147.24,-47.7 121.79,-34.36 102.76,-24.39"/>
<polygon fill="midnightblue" stroke="midnightblue" points="104.22,-21.2 93.74,-19.65 100.97,-27.4 104.22,-21.2"/>
</g>
<!-- Node6 -->
<g id="node6" class="node">
<title>Node6</title>
<g id="a_node6"><a xlink:title=" ">
<polygon fill="white" stroke="#bfbfbf" points="152.23,-0.5 152.23,-19.5 208.23,-19.5 208.23,-0.5 152.23,-0.5"/>
<text text-anchor="middle" x="180.23" y="-7.5" font-family="Helvetica,sans-Serif" font-size="10.00">stddef.h</text>
</a>
</g>
</g>
<!-- Node5&#45;&gt;Node6 -->
<g id="edge5" class="edge">
<title>Node5&#45;&gt;Node6</title>
<path fill="none" stroke="midnightblue" d="M180.23,-56.08C180.23,-49.01 180.23,-38.86 180.23,-29.99"/>
<polygon fill="midnightblue" stroke="midnightblue" points="183.73,-29.75 180.23,-19.75 176.73,-29.75 183.73,-29.75"/>
</g>
<!-- Node8&#45;&gt;Node2 -->
<g id="edge9" class="edge">
<title>Node8&#45;&gt;Node2</title>
<path fill="none" stroke="midnightblue" d="M77.23,-56.08C77.23,-49.01 77.23,-38.86 77.23,-29.99"/>
<polygon fill="midnightblue" stroke="midnightblue" points="80.73,-29.75 77.23,-19.75 73.73,-29.75 80.73,-29.75"/>
</g>
</g>
</svg>
