<?xml version="1.0" encoding="UTF-8" standalone="no"?>
<!DOCTYPE svg PUBLIC "-//W3C//DTD SVG 1.1//EN"
 "http://www.w3.org/Graphics/SVG/1.1/DTD/svg11.dtd">
<!-- Generated by graphviz version 2.44.0 ()
 -->
<!-- Title: iop/fs/bdm/include/bdm.h Pages: 1 -->
<!--zoomable 240 -->
<svg id="main" version="1.1" xmlns="http://www.w3.org/2000/svg" xmlns:xlink="http://www.w3.org/1999/xlink" xml:space="preserve" onload="init(evt)">
<style type="text/css"><![CDATA[
.edge:hover path { stroke: red; }
.edge:hover polygon { stroke: red; fill: red; }
]]></style>
<script type="text/javascript"><![CDATA[
var edges = document.getElementsByTagName('g');
if (edges && edges.length) {
  for (var i=0;i<edges.length;i++) {
    if (edges[i].id.substr(0,4)=='edge') {
      edges[i].setAttribute('class','edge');
    }
  }
}
]]></script>
        <defs>
                <circle id="rim" cx="0" cy="0" r="7"/>
                <circle id="rim2" cx="0" cy="0" r="3.5"/>
                <g id="zoomPlus">
                        <use xlink:href="#rim" fill="#404040">
                                <set attributeName="fill" to="#808080" begin="zoomplus.mouseover" end="zoomplus.mouseout"/>
                        </use>
                        <path d="M-4,0h8M0,-4v8" fill="none" stroke="white" stroke-width="1.5" pointer-events="none"/>
                </g>
                <g id="zoomMin">
                        <use xlink:href="#rim" fill="#404040">
                                <set attributeName="fill" to="#808080" begin="zoomminus.mouseover" end="zoomminus.mouseout"/>
                        </use>
                        <path d="M-4,0h8" fill="none" stroke="white" stroke-width="1.5" pointer-events="none"/>
                </g>
                <g id="dirArrow">
                        <path fill="none" stroke="white" stroke-width="1.5" d="M0,-3.0v7 M-2.5,-0.5L0,-3.0L2.5,-0.5"/>
                </g>
               <g id="resetDef">
                       <use xlink:href="#rim2" fill="#404040">
                               <set attributeName="fill" to="#808080" begin="reset.mouseover" end="reset.mouseout"/>
                       </use>
               </g>
        </defs>

<script type="text/javascript">
var viewWidth = 1638;
var viewHeight = 240;
var sectionId = 'dynsection-1';
</script>
<script xlink:href="svgpan.js"/>
<svg id="graph" class="graph">
<g id="viewport">
<title>iop/fs/bdm/include/bdm.h</title>
<polygon fill="white" stroke="transparent" points="-4,4 -4,-236 1633.5,-236 1633.5,4 -4,4"/>
<!-- Node1 -->
<g id="node1" class="node">
<title>Node1</title>
<g id="a_node1"><a xlink:title=" ">
<polygon fill="#bfbfbf" stroke="black" points="715,-201.5 715,-231.5 811,-231.5 811,-201.5 715,-201.5"/>
<text text-anchor="start" x="723" y="-219.5" font-family="Helvetica,sans-Serif" font-size="10.00">iop/fs/bdm/include</text>
<text text-anchor="middle" x="763" y="-208.5" font-family="Helvetica,sans-Serif" font-size="10.00">/bdm.h</text>
</a>
</g>
</g>
<!-- Node2 -->
<g id="node2" class="node">
<title>Node2</title>
<g id="a_node2"><a xlink:href="bdm_8c_source.html" target="_top" xlink:title=" ">
<polygon fill="white" stroke="black" points="0,-140 0,-159 108,-159 108,-140 0,-140"/>
<text text-anchor="middle" x="54" y="-147" font-family="Helvetica,sans-Serif" font-size="10.00">iop/fs/bdm/src/bdm.c</text>
</a>
</g>
</g>
<!-- Node1&#45;&gt;Node2 -->
<g id="edge1" class="edge">
<title>Node1&#45;&gt;Node2</title>
<path fill="none" stroke="midnightblue" d="M704.69,-213.84C591.03,-209.95 332.12,-197.98 117,-165 107.13,-163.49 96.5,-161.27 86.85,-159.03"/>
<polygon fill="midnightblue" stroke="midnightblue" points="704.8,-217.34 714.91,-214.18 705.03,-210.34 704.8,-217.34"/>
</g>
<!-- Node3 -->
<g id="node3" class="node">
<title>Node3</title>
<g id="a_node3"><a xlink:href="iop_2fs_2bdm_2src_2irx__imports_8h_source.html" target="_top" xlink:title=" ">
<polygon fill="white" stroke="black" points="126,-134.5 126,-164.5 218,-164.5 218,-134.5 126,-134.5"/>
<text text-anchor="start" x="134" y="-152.5" font-family="Helvetica,sans-Serif" font-size="10.00">iop/fs/bdm/src/irx</text>
<text text-anchor="middle" x="172" y="-141.5" font-family="Helvetica,sans-Serif" font-size="10.00">_imports.h</text>
</a>
</g>
</g>
<!-- Node1&#45;&gt;Node3 -->
<g id="edge2" class="edge">
<title>Node1&#45;&gt;Node3</title>
<path fill="none" stroke="midnightblue" d="M704.88,-213.15C606.05,-208.45 399.21,-195.6 227,-165 224.08,-164.48 221.09,-163.89 218.09,-163.24"/>
<polygon fill="midnightblue" stroke="midnightblue" points="704.81,-216.65 714.96,-213.61 705.14,-209.65 704.81,-216.65"/>
</g>
<!-- Node4 -->
<g id="node4" class="node">
<title>Node4</title>
<g id="a_node4"><a xlink:href="iop_2fs_2bdm_2src_2main_8c_source.html" target="_top" xlink:title=" ">
<polygon fill="white" stroke="black" points="236,-140 236,-159 346,-159 346,-140 236,-140"/>
<text text-anchor="middle" x="291" y="-147" font-family="Helvetica,sans-Serif" font-size="10.00">iop/fs/bdm/src/main.c</text>
</a>
</g>
</g>
<!-- Node1&#45;&gt;Node4 -->
<g id="edge3" class="edge">
<title>Node1&#45;&gt;Node4</title>
<path fill="none" stroke="midnightblue" d="M704.43,-210.1C624.94,-202.36 478.64,-186.6 355,-165 345.46,-163.33 335.2,-161.17 325.75,-159.03"/>
<polygon fill="midnightblue" stroke="midnightblue" points="704.43,-213.62 714.72,-211.1 705.1,-206.65 704.43,-213.62"/>
</g>
<!-- Node5 -->
<g id="node5" class="node">
<title>Node5</title>
<g id="a_node5"><a xlink:href="fs_2bdm_2src_2part__driver_8c_source.html" target="_top" xlink:title=" ">
<polygon fill="white" stroke="black" points="364,-134.5 364,-164.5 462,-164.5 462,-134.5 364,-134.5"/>
<text text-anchor="start" x="372" y="-152.5" font-family="Helvetica,sans-Serif" font-size="10.00">iop/fs/bdm/src/part</text>
<text text-anchor="middle" x="413" y="-141.5" font-family="Helvetica,sans-Serif" font-size="10.00">_driver.c</text>
</a>
</g>
</g>
<!-- Node1&#45;&gt;Node5 -->
<g id="edge4" class="edge">
<title>Node1&#45;&gt;Node5</title>
<path fill="none" stroke="midnightblue" d="M704.78,-206.17C646.68,-196.64 554.93,-181.02 476,-165 471.49,-164.08 466.81,-163.09 462.13,-162.07"/>
<polygon fill="midnightblue" stroke="midnightblue" points="704.43,-209.66 714.87,-207.82 705.56,-202.75 704.43,-209.66"/>
</g>
<!-- Node6 -->
<g id="node6" class="node">
<title>Node6</title>
<g id="a_node6"><a xlink:href="fs_2bdmfs__vfat_2src_2include_2fat__driver_8h_source.html" target="_top" xlink:title=" ">
<polygon fill="white" stroke="black" points="476.5,-67.5 476.5,-97.5 585.5,-97.5 585.5,-67.5 476.5,-67.5"/>
<text text-anchor="start" x="484.5" y="-85.5" font-family="Helvetica,sans-Serif" font-size="10.00">iop/fs/bdmfs_vfat/src</text>
<text text-anchor="middle" x="531" y="-74.5" font-family="Helvetica,sans-Serif" font-size="10.00">/include/fat_driver.h</text>
</a>
</g>
</g>
<!-- Node1&#45;&gt;Node6 -->
<g id="edge5" class="edge">
<title>Node1&#45;&gt;Node6</title>
<path fill="none" stroke="midnightblue" d="M704.73,-212.2C637.82,-207.05 534.15,-194.44 510,-165 494.06,-145.57 509.02,-115.46 520.55,-97.79"/>
<polygon fill="midnightblue" stroke="midnightblue" points="704.5,-215.69 714.73,-212.94 705.01,-208.71 704.5,-215.69"/>
</g>
<!-- Node8 -->
<g id="node8" class="node">
<title>Node8</title>
<g id="a_node8"><a xlink:href="fs_2bdmfs__vfat_2src_2include_2scache_8h_source.html" target="_top" xlink:title=" ">
<polygon fill="white" stroke="black" points="518.5,-134.5 518.5,-164.5 627.5,-164.5 627.5,-134.5 518.5,-134.5"/>
<text text-anchor="start" x="526.5" y="-152.5" font-family="Helvetica,sans-Serif" font-size="10.00">iop/fs/bdmfs_vfat/src</text>
<text text-anchor="middle" x="573" y="-141.5" font-family="Helvetica,sans-Serif" font-size="10.00">/include/scache.h</text>
</a>
</g>
</g>
<!-- Node1&#45;&gt;Node8 -->
<g id="edge7" class="edge">
<title>Node1&#45;&gt;Node8</title>
<path fill="none" stroke="midnightblue" d="M712.11,-198.09C681.44,-187.6 642.89,-174.41 614.15,-164.58"/>
<polygon fill="midnightblue" stroke="midnightblue" points="711.18,-201.47 721.77,-201.4 713.44,-194.85 711.18,-201.47"/>
</g>
<!-- Node9 -->
<g id="node9" class="node">
<title>Node9</title>
<g id="a_node9"><a xlink:href="iop_2fs_2bdmfs__vfat_2src_2irx__imports_8h_source.html" target="_top" xlink:title=" ">
<polygon fill="white" stroke="black" points="645.5,-134.5 645.5,-164.5 754.5,-164.5 754.5,-134.5 645.5,-134.5"/>
<text text-anchor="start" x="653.5" y="-152.5" font-family="Helvetica,sans-Serif" font-size="10.00">iop/fs/bdmfs_vfat/src</text>
<text text-anchor="middle" x="700" y="-141.5" font-family="Helvetica,sans-Serif" font-size="10.00">/irx_imports.h</text>
</a>
</g>
</g>
<!-- Node1&#45;&gt;Node9 -->
<g id="edge9" class="edge">
<title>Node1&#45;&gt;Node9</title>
<path fill="none" stroke="midnightblue" d="M742.19,-194.02C732.8,-184.34 721.98,-173.17 713.64,-164.58"/>
<polygon fill="midnightblue" stroke="midnightblue" points="739.86,-196.65 749.33,-201.4 744.88,-191.78 739.86,-196.65"/>
</g>
<!-- Node10 -->
<g id="node10" class="node">
<title>Node10</title>
<g id="a_node10"><a xlink:href="iop_2fs_2bdmfs__vfat_2src_2main_8c_source.html" target="_top" xlink:title=" ">
<polygon fill="white" stroke="black" points="772.5,-134.5 772.5,-164.5 881.5,-164.5 881.5,-134.5 772.5,-134.5"/>
<text text-anchor="start" x="780.5" y="-152.5" font-family="Helvetica,sans-Serif" font-size="10.00">iop/fs/bdmfs_vfat/src</text>
<text text-anchor="middle" x="827" y="-141.5" font-family="Helvetica,sans-Serif" font-size="10.00">/main.c</text>
</a>
</g>
</g>
<!-- Node1&#45;&gt;Node10 -->
<g id="edge10" class="edge">
<title>Node1&#45;&gt;Node10</title>
<path fill="none" stroke="midnightblue" d="M784.15,-194.02C793.68,-184.34 804.67,-173.17 813.14,-164.58"/>
<polygon fill="midnightblue" stroke="midnightblue" points="781.41,-191.81 776.89,-201.4 786.4,-196.73 781.41,-191.81"/>
</g>
<!-- Node11 -->
<g id="node11" class="node">
<title>Node11</title>
<g id="a_node11"><a xlink:href="iop_2i_link_2_i_e_e_e1394__bd_2src_2irx__imports_8h_source.html" target="_top" xlink:title=" ">
<polygon fill="white" stroke="black" points="899.5,-134.5 899.5,-164.5 1006.5,-164.5 1006.5,-134.5 899.5,-134.5"/>
<text text-anchor="start" x="907.5" y="-152.5" font-family="Helvetica,sans-Serif" font-size="10.00">iop/iLink/IEEE1394</text>
<text text-anchor="middle" x="953" y="-141.5" font-family="Helvetica,sans-Serif" font-size="10.00">_bd/src/irx_imports.h</text>
</a>
</g>
</g>
<!-- Node1&#45;&gt;Node11 -->
<g id="edge11" class="edge">
<title>Node1&#45;&gt;Node11</title>
<path fill="none" stroke="midnightblue" d="M813.89,-198.09C844.56,-187.6 883.11,-174.41 911.85,-164.58"/>
<polygon fill="midnightblue" stroke="midnightblue" points="812.56,-194.85 804.23,-201.4 814.82,-201.47 812.56,-194.85"/>
</g>
<!-- Node12 -->
<g id="node12" class="node">
<title>Node12</title>
<g id="a_node12"><a xlink:href="i_link_2_i_e_e_e1394__bd_2src_2scsi_8c_source.html" target="_top" xlink:title=" ">
<polygon fill="white" stroke="black" points="1024,-134.5 1024,-164.5 1122,-164.5 1122,-134.5 1024,-134.5"/>
<text text-anchor="start" x="1032" y="-152.5" font-family="Helvetica,sans-Serif" font-size="10.00">iop/iLink/IEEE1394</text>
<text text-anchor="middle" x="1073" y="-141.5" font-family="Helvetica,sans-Serif" font-size="10.00">_bd/src/scsi.c</text>
</a>
</g>
</g>
<!-- Node1&#45;&gt;Node12 -->
<g id="edge12" class="edge">
<title>Node1&#45;&gt;Node12</title>
<path fill="none" stroke="midnightblue" d="M821.12,-204.79C872.52,-195.11 949.46,-180.09 1016,-165 1018.59,-164.41 1021.24,-163.8 1023.91,-163.16"/>
<polygon fill="midnightblue" stroke="midnightblue" points="820.37,-201.37 811.19,-206.65 821.66,-208.25 820.37,-201.37"/>
</g>
<!-- Node13 -->
<g id="node13" class="node">
<title>Node13</title>
<g id="a_node13"><a xlink:href="iop_2sio_2mx4sio__bd_2src_2irx__imports_8h_source.html" target="_top" xlink:title=" ">
<polygon fill="white" stroke="black" points="1139.5,-134.5 1139.5,-164.5 1250.5,-164.5 1250.5,-134.5 1139.5,-134.5"/>
<text text-anchor="start" x="1147.5" y="-152.5" font-family="Helvetica,sans-Serif" font-size="10.00">iop/sio/mx4sio_bd/src</text>
<text text-anchor="middle" x="1195" y="-141.5" font-family="Helvetica,sans-Serif" font-size="10.00">/irx_imports.h</text>
</a>
</g>
</g>
<!-- Node1&#45;&gt;Node13 -->
<g id="edge13" class="edge">
<title>Node1&#45;&gt;Node13</title>
<path fill="none" stroke="midnightblue" d="M821.47,-209.06C894.27,-200.67 1022.29,-184.74 1131,-165 1133.69,-164.51 1136.44,-163.99 1139.21,-163.44"/>
<polygon fill="midnightblue" stroke="midnightblue" points="820.68,-205.63 811.14,-210.24 821.47,-212.58 820.68,-205.63"/>
</g>
<!-- Node14 -->
<g id="node14" class="node">
<title>Node14</title>
<g id="a_node14"><a xlink:href="mx4sio_8c_source.html" target="_top" xlink:title=" ">
<polygon fill="white" stroke="black" points="1268.5,-134.5 1268.5,-164.5 1379.5,-164.5 1379.5,-134.5 1268.5,-134.5"/>
<text text-anchor="start" x="1276.5" y="-152.5" font-family="Helvetica,sans-Serif" font-size="10.00">iop/sio/mx4sio_bd/src</text>
<text text-anchor="middle" x="1324" y="-141.5" font-family="Helvetica,sans-Serif" font-size="10.00">/mx4sio.c</text>
</a>
</g>
</g>
<!-- Node1&#45;&gt;Node14 -->
<g id="edge14" class="edge">
<title>Node1&#45;&gt;Node14</title>
<path fill="none" stroke="midnightblue" d="M821.3,-211.88C914.46,-205.59 1102.42,-190.76 1260,-165 1262.7,-164.56 1265.45,-164.07 1268.23,-163.55"/>
<polygon fill="midnightblue" stroke="midnightblue" points="820.98,-208.4 811.23,-212.55 821.44,-215.38 820.98,-208.4"/>
</g>
<!-- Node15 -->
<g id="node15" class="node">
<title>Node15</title>
<g id="a_node15"><a xlink:href="iop_2usb_2usbmass__bd_2src_2irx__imports_8h_source.html" target="_top" xlink:title=" ">
<polygon fill="white" stroke="black" points="1397.5,-134.5 1397.5,-164.5 1504.5,-164.5 1504.5,-134.5 1397.5,-134.5"/>
<text text-anchor="start" x="1405.5" y="-152.5" font-family="Helvetica,sans-Serif" font-size="10.00">iop/usb/usbmass_bd</text>
<text text-anchor="middle" x="1451" y="-141.5" font-family="Helvetica,sans-Serif" font-size="10.00">/src/irx_imports.h</text>
</a>
</g>
</g>
<!-- Node1&#45;&gt;Node15 -->
<g id="edge15" class="edge">
<title>Node1&#45;&gt;Node15</title>
<path fill="none" stroke="midnightblue" d="M821.52,-213.69C932.69,-209.62 1181.85,-197.39 1389,-165 1391.73,-164.57 1394.52,-164.09 1397.33,-163.57"/>
<polygon fill="midnightblue" stroke="midnightblue" points="821.06,-210.21 811.19,-214.06 821.31,-217.2 821.06,-210.21"/>
</g>
<!-- Node16 -->
<g id="node16" class="node">
<title>Node16</title>
<g id="a_node16"><a xlink:href="usb_2usbmass__bd_2src_2scsi_8c_source.html" target="_top" xlink:title=" ">
<polygon fill="white" stroke="black" points="1522.5,-134.5 1522.5,-164.5 1629.5,-164.5 1629.5,-134.5 1522.5,-134.5"/>
<text text-anchor="start" x="1530.5" y="-152.5" font-family="Helvetica,sans-Serif" font-size="10.00">iop/usb/usbmass_bd</text>
<text text-anchor="middle" x="1576" y="-141.5" font-family="Helvetica,sans-Serif" font-size="10.00">/src/scsi.c</text>
</a>
</g>
</g>
<!-- Node1&#45;&gt;Node16 -->
<g id="edge16" class="edge">
<title>Node1&#45;&gt;Node16</title>
<path fill="none" stroke="midnightblue" d="M821.43,-214.8C948.24,-212.57 1257.88,-203.3 1514,-165 1516.73,-164.59 1519.52,-164.12 1522.33,-163.61"/>
<polygon fill="midnightblue" stroke="midnightblue" points="821.12,-211.3 811.18,-214.97 821.23,-218.3 821.12,-211.3"/>
</g>
<!-- Node7 -->
<g id="node7" class="node">
<title>Node7</title>
<g id="a_node7"><a xlink:href="fs_2bdmfs__vfat_2src_2include_2fat_8h_source.html" target="_top" xlink:title=" ">
<polygon fill="white" stroke="black" points="476.5,-0.5 476.5,-30.5 585.5,-30.5 585.5,-0.5 476.5,-0.5"/>
<text text-anchor="start" x="484.5" y="-18.5" font-family="Helvetica,sans-Serif" font-size="10.00">iop/fs/bdmfs_vfat/src</text>
<text text-anchor="middle" x="531" y="-7.5" font-family="Helvetica,sans-Serif" font-size="10.00">/include/fat.h</text>
</a>
</g>
</g>
<!-- Node6&#45;&gt;Node7 -->
<g id="edge6" class="edge">
<title>Node6&#45;&gt;Node7</title>
<path fill="none" stroke="midnightblue" d="M531,-57.11C531,-48.15 531,-38.32 531,-30.58"/>
<polygon fill="midnightblue" stroke="midnightblue" points="527.5,-57.4 531,-67.4 534.5,-57.4 527.5,-57.4"/>
</g>
<!-- Node8&#45;&gt;Node6 -->
<g id="edge8" class="edge">
<title>Node8&#45;&gt;Node6</title>
<path fill="none" stroke="midnightblue" d="M558.38,-125.87C552.3,-116.46 545.43,-105.83 540.1,-97.58"/>
<polygon fill="midnightblue" stroke="midnightblue" points="555.52,-127.9 563.89,-134.4 561.4,-124.1 555.52,-127.9"/>
</g>
</g>
</svg>
        <g id="navigator" transform="translate(0 0)" fill="#404254">
                <rect fill="#f2f5e9" fill-opacity="0.5" stroke="#606060" stroke-width=".5" x="0" y="0" width="60" height="60"/>
                <use id="zoomplus" xlink:href="#zoomPlus" x="17" y="9" onmousedown="handleZoom(evt,'in')"/>
                <use id="zoomminus" xlink:href="#zoomMin" x="42" y="9" onmousedown="handleZoom(evt,'out')"/>
                <use id="reset" xlink:href="#resetDef" x="30" y="36" onmousedown="handleReset()"/>
                <g id="arrowUp" xlink:href="#dirArrow" transform="translate(30 24)" onmousedown="handlePan(0,-1)">
                  <use xlink:href="#rim" fill="#404040">
                        <set attributeName="fill" to="#808080" begin="arrowUp.mouseover" end="arrowUp.mouseout"/>
                  </use>
                  <path fill="none" stroke="white" stroke-width="1.5" d="M0,-3.0v7 M-2.5,-0.5L0,-3.0L2.5,-0.5"/>
                </g>
                <g id="arrowRight" xlink:href="#dirArrow" transform="rotate(90) translate(36 -43)" onmousedown="handlePan(1,0)">
                  <use xlink:href="#rim" fill="#404040">
                        <set attributeName="fill" to="#808080" begin="arrowRight.mouseover" end="arrowRight.mouseout"/>
                  </use>
                  <path fill="none" stroke="white" stroke-width="1.5" d="M0,-3.0v7 M-2.5,-0.5L0,-3.0L2.5,-0.5"/>
                </g>
                <g id="arrowDown" xlink:href="#dirArrow" transform="rotate(180) translate(-30 -48)" onmousedown="handlePan(0,1)">
                  <use xlink:href="#rim" fill="#404040">
                        <set attributeName="fill" to="#808080" begin="arrowDown.mouseover" end="arrowDown.mouseout"/>
                  </use>
                  <path fill="none" stroke="white" stroke-width="1.5" d="M0,-3.0v7 M-2.5,-0.5L0,-3.0L2.5,-0.5"/>
                </g>
                <g id="arrowLeft" xlink:href="#dirArrow" transform="rotate(270) translate(-36 17)" onmousedown="handlePan(-1,0)">
                  <use xlink:href="#rim" fill="#404040">
                        <set attributeName="fill" to="#808080" begin="arrowLeft.mouseover" end="arrowLeft.mouseout"/>
                  </use>
                  <path fill="none" stroke="white" stroke-width="1.5" d="M0,-3.0v7 M-2.5,-0.5L0,-3.0L2.5,-0.5"/>
                </g>
        </g>
        <svg viewBox="0 0 15 15" width="100%" height="30px" preserveAspectRatio="xMaxYMin meet">
         <g id="arrow_out" transform="scale(0.3 0.3)">
          <a xlink:href="bdm_8h__dep__incl_org.svg" target="_base">
           <rect id="button" ry="5" rx="5" y="6" x="6" height="38" width="38"
                fill="#f2f5e9" fill-opacity="0.5" stroke="#606060" stroke-width="1.0"/>
           <path id="arrow"
             d="M 11.500037,31.436501 C 11.940474,20.09759 22.043105,11.32322 32.158766,21.979434 L 37.068811,17.246167 C 37.068811,17.246167 37.088388,32 37.088388,32 L 22.160133,31.978069 C 22.160133,31.978069 26.997745,27.140456 26.997745,27.140456 C 18.528582,18.264221 13.291696,25.230495 11.500037,31.436501 z"
             style="fill:#404040;"/>
          </a>
         </g>
        </svg>
</svg>
