<?xml version="1.0" encoding="UTF-8" standalone="no"?>
<!DOCTYPE svg PUBLIC "-//W3C//DTD SVG 1.1//EN"
 "http://www.w3.org/Graphics/SVG/1.1/DTD/svg11.dtd">
<!-- Generated by graphviz version 9.0.0 (20230911.1827)
 -->
<!-- Title: iop/kernel/include/cdvdman.h Pages: 1 -->
<!--zoomable 305 -->

<svg id="main" version="1.1" xmlns="http://www.w3.org/2000/svg" xmlns:xlink="http://www.w3.org/1999/xlink" xml:space="preserve" onload="init(evt)">
<style type="text/css"><![CDATA[
.node, .edge {opacity: 0.7;}
.node.selected, .edge.selected {opacity: 1;}
.edge:hover path { stroke: red; }
.edge:hover polygon { stroke: red; fill: red; }
]]></style>

<defs>
  <circle id="rim" cx="0" cy="0" r="7"/>
  <circle id="rim2" cx="0" cy="0" r="3.5"/>
  <g id="zoomPlus">
    <use xlink:href="#rim" fill="#404040"><set attributeName="fill" to="#808080" begin="zoomplus.mouseover" end="zoomplus.mouseout"/></use>
    <path d="M-4,0h8M0,-4v8" fill="none" stroke="white" stroke-width="1.5" pointer-events="none"/>
  </g>
  <g id="zoomMin">
    <use xlink:href="#rim" fill="#404040"><set attributeName="fill" to="#808080" begin="zoomminus.mouseover" end="zoomminus.mouseout"/></use>
    <path d="M-4,0h8" fill="none" stroke="white" stroke-width="1.5" pointer-events="none"/>
  </g>
  <g id="arrowUp" transform="translate(30 24)">
    <use xlink:href="#rim"/>
    <path pointer-events="none" fill="none" stroke="white" stroke-width="1.5" d="M0,-3.0v7 M-2.5,-0.5L0,-3.0L2.5,-0.5"/>
  </g>
  <g id="arrowRight" transform="rotate(90) translate(36 -43)">
    <use xlink:href="#rim"/>
    <path pointer-events="none" fill="none" stroke="white" stroke-width="1.5" d="M0,-3.0v7 M-2.5,-0.5L0,-3.0L2.5,-0.5"/>
  </g>
  <g id="arrowDown" transform="rotate(180) translate(-30 -48)">
    <use xlink:href="#rim"/>
    <path pointer-events="none" fill="none" stroke="white" stroke-width="1.5" d="M0,-3.0v7 M-2.5,-0.5L0,-3.0L2.5,-0.5"/>
  </g>
  <g id="arrowLeft" transform="rotate(270) translate(-36 17)">
    <use xlink:href="#rim"/>
    <path pointer-events="none" fill="none" stroke="white" stroke-width="1.5" d="M0,-3.0v7 M-2.5,-0.5L0,-3.0L2.5,-0.5"/>
  </g>
  <g id="resetDef">
    <use xlink:href="#rim2" fill="#404040"><set attributeName="fill" to="#808080" begin="reset.mouseover" end="reset.mouseout"/></use>
  </g>
</defs>
<script type="application/ecmascript">
var viewWidth = 4148;
var viewHeight = 305;
var sectionId = 'dynsection-1';
</script>
<script type="application/ecmascript" xlink:href="svg.min.js"/>
<svg id="graph" class="graph">
<g id="viewport">
<title>iop/kernel/include/cdvdman.h</title>
<!-- Node1 -->
<g id="Node000001" class="node">
<title>Node1</title>
<g id="a_Node000001"><a xlink:title=" ">
<polygon fill="#999999" stroke="#666666" points="2296.88,-296.5 2205.12,-296.5 2205.12,-266 2296.88,-266 2296.88,-296.5"/>
<text text-anchor="start" x="2213.12" y="-283" font-family="Helvetica,sans-Serif" font-size="10.00">iop/kernel/include</text>
<text text-anchor="middle" x="2251" y="-271.75" font-family="Helvetica,sans-Serif" font-size="10.00">/cdvdman.h</text>
</a>
</g>
</g>
<!-- Node2 -->
<g id="Node000002" class="node">
<title>Node2</title>
<g id="a_Node000002"><a xlink:href="common_2sbus_2src_2irx__imports_8h_source.html" target="_top" xlink:title=" ">
<polygon fill="white" stroke="#666666" points="548.38,-230 441.62,-230 441.62,-199.5 548.38,-199.5 548.38,-230"/>
<text text-anchor="start" x="449.62" y="-216.5" font-family="Helvetica,sans-Serif" font-size="10.00">common/sbus/src/irx</text>
<text text-anchor="middle" x="495" y="-205.25" font-family="Helvetica,sans-Serif" font-size="10.00">_imports.h</text>
</a>
</g>
</g>
<!-- Node1&#45;&gt;Node2 -->
<g id="edge1_Node000001_Node000002" class="edge">
<title>Node1&#45;&gt;Node2</title>
<g id="a_edge1_Node000001_Node000002"><a xlink:title=" ">
<path fill="none" stroke="#63b8ff" d="M2193.3,-280.06C1935.05,-278.97 883.75,-271.98 557,-230 554.26,-229.65 551.47,-229.23 548.65,-228.76"/>
<polygon fill="#63b8ff" stroke="#63b8ff" points="2193.11,-283.56 2203.13,-280.1 2193.14,-276.56 2193.11,-283.56"/>
</a>
</g>
</g>
<!-- Node3 -->
<g id="Node000003" class="node">
<title>Node3</title>
<g id="a_Node000003"><a xlink:href="accdvd_8h_source.html" target="_top" xlink:title=" ">
<polygon fill="white" stroke="#666666" points="695.62,-230 566.38,-230 566.38,-199.5 695.62,-199.5 695.62,-230"/>
<text text-anchor="start" x="574.38" y="-216.5" font-family="Helvetica,sans-Serif" font-size="10.00">iop/arcade/accdvd/include</text>
<text text-anchor="middle" x="631" y="-205.25" font-family="Helvetica,sans-Serif" font-size="10.00">/accdvd.h</text>
</a>
</g>
</g>
<!-- Node1&#45;&gt;Node3 -->
<g id="edge2_Node000001_Node000003" class="edge">
<title>Node1&#45;&gt;Node3</title>
<g id="a_edge2_Node000001_Node000003"><a xlink:title=" ">
<path fill="none" stroke="#63b8ff" d="M2193.49,-279.5C1950.38,-276.15 1005.95,-261.35 710,-230 705.43,-229.52 700.72,-228.92 695.99,-228.25"/>
<polygon fill="#63b8ff" stroke="#63b8ff" points="2193.3,-283 2203.35,-279.63 2193.4,-276 2193.3,-283"/>
</a>
</g>
</g>
<!-- Node11 -->
<g id="Node000011" class="node">
<title>Node11</title>
<g id="a_Node000011"><a xlink:href="iop_2arcade_2accdvde_2src_2irx__imports_8h_source.html" target="_top" xlink:title=" ">
<polygon fill="white" stroke="#666666" points="754.38,-163.5 653.62,-163.5 653.62,-133 754.38,-133 754.38,-163.5"/>
<text text-anchor="start" x="661.62" y="-150" font-family="Helvetica,sans-Serif" font-size="10.00">iop/arcade/accdvde</text>
<text text-anchor="middle" x="704" y="-138.75" font-family="Helvetica,sans-Serif" font-size="10.00">/src/irx_imports.h</text>
</a>
</g>
</g>
<!-- Node1&#45;&gt;Node11 -->
<g id="edge14_Node000001_Node000011" class="edge">
<title>Node1&#45;&gt;Node11</title>
<g id="a_edge14_Node000001_Node000011"><a xlink:title=" ">
<path fill="none" stroke="#63b8ff" d="M2193.28,-279.99C1924.37,-278.56 804.78,-270.22 743,-230 720.17,-215.14 710.33,-182.86 706.38,-163.92"/>
<polygon fill="#63b8ff" stroke="#63b8ff" points="2193.17,-283.49 2203.19,-280.04 2193.21,-276.49 2193.17,-283.49"/>
</a>
</g>
</g>
<!-- Node15 -->
<g id="Node000015" class="node">
<title>Node15</title>
<g id="a_Node000015"><a xlink:href="iop_2arcade_2acrtc_2src_2irx__imports_8h_source.html" target="_top" xlink:title=" ">
<polygon fill="white" stroke="#666666" points="854.12,-230 751.88,-230 751.88,-199.5 854.12,-199.5 854.12,-230"/>
<text text-anchor="start" x="759.88" y="-216.5" font-family="Helvetica,sans-Serif" font-size="10.00">iop/arcade/acrtc/src</text>
<text text-anchor="middle" x="803" y="-205.25" font-family="Helvetica,sans-Serif" font-size="10.00">/irx_imports.h</text>
</a>
</g>
</g>
<!-- Node1&#45;&gt;Node15 -->
<g id="edge15_Node000001_Node000015" class="edge">
<title>Node1&#45;&gt;Node15</title>
<g id="a_edge15_Node000001_Node000015"><a xlink:title=" ">
<path fill="none" stroke="#63b8ff" d="M2193.65,-279.68C1966.11,-277.18 1126.49,-265.7 863,-230 860.24,-229.63 857.42,-229.18 854.59,-228.68"/>
<polygon fill="#63b8ff" stroke="#63b8ff" points="2193.41,-283.18 2203.45,-279.79 2193.48,-276.18 2193.41,-283.18"/>
</a>
</g>
</g>
<!-- Node17 -->
<g id="Node000017" class="node">
<title>Node17</title>
<g id="a_Node000017"><a xlink:href="iop_2cdvd_2cdfs_2src_2irx__imports_8h_source.html" target="_top" xlink:title=" ">
<polygon fill="white" stroke="#666666" points="975.88,-230 872.12,-230 872.12,-199.5 975.88,-199.5 975.88,-230"/>
<text text-anchor="start" x="880.12" y="-216.5" font-family="Helvetica,sans-Serif" font-size="10.00">iop/cdvd/cdfs/src/irx</text>
<text text-anchor="middle" x="924" y="-205.25" font-family="Helvetica,sans-Serif" font-size="10.00">_imports.h</text>
</a>
</g>
</g>
<!-- Node1&#45;&gt;Node17 -->
<g id="edge17_Node000001_Node000017" class="edge">
<title>Node1&#45;&gt;Node17</title>
<g id="a_edge17_Node000001_Node000017"><a xlink:title=" ">
<path fill="none" stroke="#63b8ff" d="M2193.46,-279.42C1978.59,-276.08 1223.38,-262.28 985,-230 982.09,-229.61 979.12,-229.14 976.12,-228.61"/>
<polygon fill="#63b8ff" stroke="#63b8ff" points="2193.2,-282.91 2203.25,-279.57 2193.31,-275.91 2193.2,-282.91"/>
</a>
</g>
</g>
<!-- Node18 -->
<g id="Node000018" class="node">
<title>Node18</title>
<g id="a_Node000018"><a xlink:href="iop_2cdvd_2cdvdfsv_2src_2irx__imports_8h_source.html" target="_top" xlink:title=" ">
<polygon fill="white" stroke="#666666" points="1100.38,-230 993.62,-230 993.62,-199.5 1100.38,-199.5 1100.38,-230"/>
<text text-anchor="start" x="1001.62" y="-216.5" font-family="Helvetica,sans-Serif" font-size="10.00">iop/cdvd/cdvdfsv/src</text>
<text text-anchor="middle" x="1047" y="-205.25" font-family="Helvetica,sans-Serif" font-size="10.00">/irx_imports.h</text>
</a>
</g>
</g>
<!-- Node1&#45;&gt;Node18 -->
<g id="edge18_Node000001_Node000018" class="edge">
<title>Node1&#45;&gt;Node18</title>
<g id="a_edge18_Node000001_Node000018"><a xlink:title=" ">
<path fill="none" stroke="#63b8ff" d="M2193.2,-279.1C1991.84,-274.87 1321.94,-258.91 1109,-230 1106.26,-229.63 1103.47,-229.19 1100.66,-228.71"/>
<polygon fill="#63b8ff" stroke="#63b8ff" points="2193.08,-282.6 2203.15,-279.31 2193.23,-275.6 2193.08,-282.6"/>
</a>
</g>
</g>
<!-- Node20 -->
<g id="Node000020" class="node">
<title>Node20</title>
<g id="a_Node000020"><a xlink:href="cdvdman_8c_source.html" target="_top" xlink:title=" ">
<polygon fill="white" stroke="#666666" points="1230,-230 1118,-230 1118,-199.5 1230,-199.5 1230,-230"/>
<text text-anchor="start" x="1126" y="-216.5" font-family="Helvetica,sans-Serif" font-size="10.00">iop/cdvd/cdvdman/src</text>
<text text-anchor="middle" x="1174" y="-205.25" font-family="Helvetica,sans-Serif" font-size="10.00">/cdvdman.c</text>
</a>
</g>
</g>
<!-- Node1&#45;&gt;Node20 -->
<g id="edge20_Node000001_Node000020" class="edge">
<title>Node1&#45;&gt;Node20</title>
<g id="a_edge20_Node000001_Node000020"><a xlink:title=" ">
<path fill="none" stroke="#63b8ff" d="M2193.79,-280.73C2039.13,-281.3 1600.05,-278.2 1239,-230 1236.14,-229.62 1233.21,-229.17 1230.27,-228.69"/>
<polygon fill="#63b8ff" stroke="#63b8ff" points="2193.36,-284.23 2203.35,-280.68 2193.33,-277.23 2193.36,-284.23"/>
</a>
</g>
</g>
<!-- Node21 -->
<g id="Node000021" class="node">
<title>Node21</title>
<g id="a_Node000021"><a xlink:href="iop_2cdvd_2cdvdstm_2src_2irx__imports_8h_source.html" target="_top" xlink:title=" ">
<polygon fill="white" stroke="#666666" points="1357.88,-230 1248.12,-230 1248.12,-199.5 1357.88,-199.5 1357.88,-230"/>
<text text-anchor="start" x="1256.12" y="-216.5" font-family="Helvetica,sans-Serif" font-size="10.00">iop/cdvd/cdvdstm/src</text>
<text text-anchor="middle" x="1303" y="-205.25" font-family="Helvetica,sans-Serif" font-size="10.00">/irx_imports.h</text>
</a>
</g>
</g>
<!-- Node1&#45;&gt;Node21 -->
<g id="edge21_Node000001_Node000021" class="edge">
<title>Node1&#45;&gt;Node21</title>
<g id="a_edge21_Node000001_Node000021"><a xlink:title=" ">
<path fill="none" stroke="#63b8ff" d="M2193.36,-280.2C2051.89,-279.38 1676.52,-272.97 1367,-230 1364.07,-229.59 1361.07,-229.12 1358.05,-228.6"/>
<polygon fill="#63b8ff" stroke="#63b8ff" points="2193.2,-283.7 2203.22,-280.25 2193.23,-276.7 2193.2,-283.7"/>
</a>
</g>
</g>
<!-- Node23 -->
<g id="Node000023" class="node">
<title>Node23</title>
<g id="a_Node000023"><a xlink:href="iop_2debug_2iop__sbusdbg_2src_2irx__imports_8h_source.html" target="_top" xlink:title=" ">
<polygon fill="white" stroke="#666666" points="1491.88,-230 1376.12,-230 1376.12,-199.5 1491.88,-199.5 1491.88,-230"/>
<text text-anchor="start" x="1384.12" y="-216.5" font-family="Helvetica,sans-Serif" font-size="10.00">iop/debug/iop_sbusdbg</text>
<text text-anchor="middle" x="1434" y="-205.25" font-family="Helvetica,sans-Serif" font-size="10.00">/src/irx_imports.h</text>
</a>
</g>
</g>
<!-- Node1&#45;&gt;Node23 -->
<g id="edge23_Node000001_Node000023" class="edge">
<title>Node1&#45;&gt;Node23</title>
<g id="a_edge23_Node000001_Node000023"><a xlink:title=" ">
<path fill="none" stroke="#63b8ff" d="M2193.42,-279.19C2067.34,-276.25 1757.64,-265.7 1501,-230 1498.06,-229.59 1495.05,-229.12 1492.02,-228.62"/>
<polygon fill="#63b8ff" stroke="#63b8ff" points="2193.09,-282.68 2203.17,-279.41 2193.25,-275.68 2193.09,-282.68"/>
</a>
</g>
</g>
<!-- Node24 -->
<g id="Node000024" class="node">
<title>Node24</title>
<g id="a_Node000024"><a xlink:href="iop_2debug_2iopdebug_2src_2irx__imports_8h_source.html" target="_top" xlink:title=" ">
<polygon fill="white" stroke="#666666" points="1610,-230 1510,-230 1510,-199.5 1610,-199.5 1610,-230"/>
<text text-anchor="start" x="1518" y="-216.5" font-family="Helvetica,sans-Serif" font-size="10.00">iop/debug/iopdebug</text>
<text text-anchor="middle" x="1560" y="-205.25" font-family="Helvetica,sans-Serif" font-size="10.00">/src/irx_imports.h</text>
</a>
</g>
</g>
<!-- Node1&#45;&gt;Node24 -->
<g id="edge24_Node000001_Node000024" class="edge">
<title>Node1&#45;&gt;Node24</title>
<g id="a_edge24_Node000001_Node000024"><a xlink:title=" ">
<path fill="none" stroke="#63b8ff" d="M2193.41,-278.71C2081.89,-275.05 1828.96,-263.49 1619,-230 1616.19,-229.55 1613.32,-229.04 1610.42,-228.48"/>
<polygon fill="#63b8ff" stroke="#63b8ff" points="2193.09,-282.2 2203.2,-279.02 2193.32,-275.2 2193.09,-282.2"/>
</a>
</g>
</g>
<!-- Node25 -->
<g id="Node000025" class="node">
<title>Node25</title>
<g id="a_Node000025"><a xlink:href="iop_2fs_2bdmfs__fatfs_2src_2irx__imports_8h_source.html" target="_top" xlink:title=" ">
<polygon fill="white" stroke="#666666" points="1722.38,-230 1627.62,-230 1627.62,-199.5 1722.38,-199.5 1722.38,-230"/>
<text text-anchor="start" x="1635.62" y="-216.5" font-family="Helvetica,sans-Serif" font-size="10.00">iop/fs/bdmfs_fatfs</text>
<text text-anchor="middle" x="1675" y="-205.25" font-family="Helvetica,sans-Serif" font-size="10.00">/src/irx_imports.h</text>
</a>
</g>
</g>
<!-- Node1&#45;&gt;Node25 -->
<g id="edge25_Node000001_Node000025" class="edge">
<title>Node1&#45;&gt;Node25</title>
<g id="a_edge25_Node000001_Node000025"><a xlink:title=" ">
<path fill="none" stroke="#63b8ff" d="M2193.39,-277.47C2097.22,-272.21 1898.14,-258.65 1732,-230 1728.98,-229.48 1725.89,-228.89 1722.78,-228.24"/>
<polygon fill="#63b8ff" stroke="#63b8ff" points="2193.19,-280.96 2203.36,-278.01 2193.56,-273.98 2193.19,-280.96"/>
</a>
</g>
</g>
<!-- Node26 -->
<g id="Node000026" class="node">
<title>Node26</title>
<g id="a_Node000026"><a xlink:href="iop_2fs_2bdmfs__fatfs_2src_2main_8c_source.html" target="_top" xlink:title=" ">
<polygon fill="white" stroke="#666666" points="1835.38,-230 1740.62,-230 1740.62,-199.5 1835.38,-199.5 1835.38,-230"/>
<text text-anchor="start" x="1748.62" y="-216.5" font-family="Helvetica,sans-Serif" font-size="10.00">iop/fs/bdmfs_fatfs</text>
<text text-anchor="middle" x="1788" y="-205.25" font-family="Helvetica,sans-Serif" font-size="10.00">/src/main.c</text>
</a>
</g>
</g>
<!-- Node1&#45;&gt;Node26 -->
<g id="edge26_Node000001_Node000026" class="edge">
<title>Node1&#45;&gt;Node26</title>
<g id="a_edge26_Node000001_Node000026"><a xlink:title=" ">
<path fill="none" stroke="#63b8ff" d="M2193.6,-275.37C2114.64,-268.15 1968.29,-252.95 1845,-230 1841.99,-229.44 1838.91,-228.82 1835.8,-228.15"/>
<polygon fill="#63b8ff" stroke="#63b8ff" points="2192.97,-278.82 2203.24,-276.24 2193.6,-271.85 2192.97,-278.82"/>
</a>
</g>
</g>
<!-- Node27 -->
<g id="Node000027" class="node">
<title>Node27</title>
<g id="a_Node000027"><a xlink:href="iop_2fs_2bdmfs__vfat_2src_2irx__imports_8h_source.html" target="_top" xlink:title=" ">
<polygon fill="white" stroke="#666666" points="1962.12,-230 1853.88,-230 1853.88,-199.5 1962.12,-199.5 1962.12,-230"/>
<text text-anchor="start" x="1861.88" y="-216.5" font-family="Helvetica,sans-Serif" font-size="10.00">iop/fs/bdmfs_vfat/src</text>
<text text-anchor="middle" x="1908" y="-205.25" font-family="Helvetica,sans-Serif" font-size="10.00">/irx_imports.h</text>
</a>
</g>
</g>
<!-- Node1&#45;&gt;Node27 -->
<g id="edge27_Node000001_Node000027" class="edge">
<title>Node1&#45;&gt;Node27</title>
<g id="a_edge27_Node000001_Node000027"><a xlink:title=" ">
<path fill="none" stroke="#63b8ff" d="M2193.56,-270.72C2136.86,-261.12 2047.76,-245.56 1971,-230 1968.25,-229.44 1965.44,-228.86 1962.6,-228.26"/>
<polygon fill="#63b8ff" stroke="#63b8ff" points="2192.87,-274.15 2203.31,-272.36 2194.03,-267.25 2192.87,-274.15"/>
</a>
</g>
</g>
<!-- Node28 -->
<g id="Node000028" class="node">
<title>Node28</title>
<g id="a_Node000028"><a xlink:href="fat__write_8c_source.html" target="_top" xlink:title=" ">
<polygon fill="white" stroke="#666666" points="2070.12,-230 1979.88,-230 1979.88,-199.5 2070.12,-199.5 2070.12,-230"/>
<text text-anchor="start" x="1987.88" y="-216.5" font-family="Helvetica,sans-Serif" font-size="10.00">iop/fs/vfat/src/fat</text>
<text text-anchor="middle" x="2025" y="-205.25" font-family="Helvetica,sans-Serif" font-size="10.00">_write.c</text>
</a>
</g>
</g>
<!-- Node1&#45;&gt;Node28 -->
<g id="edge28_Node000001_Node000028" class="edge">
<title>Node1&#45;&gt;Node28</title>
<g id="a_edge28_Node000001_Node000028"><a xlink:title=" ">
<path fill="none" stroke="#63b8ff" d="M2193.76,-263.91C2155.54,-253 2105.96,-238.86 2070.45,-228.72"/>
<polygon fill="#63b8ff" stroke="#63b8ff" points="2192.69,-267.25 2203.26,-266.63 2194.61,-260.52 2192.69,-267.25"/>
</a>
</g>
</g>
<!-- Node29 -->
<g id="Node000029" class="node">
<title>Node29</title>
<g id="a_Node000029"><a xlink:href="iop_2hdd_2apa_2src_2irx__imports_8h_source.html" target="_top" xlink:title=" ">
<polygon fill="white" stroke="#666666" points="2183.75,-230 2088.25,-230 2088.25,-199.5 2183.75,-199.5 2183.75,-230"/>
<text text-anchor="start" x="2096.25" y="-216.5" font-family="Helvetica,sans-Serif" font-size="10.00">iop/hdd/apa/src/irx</text>
<text text-anchor="middle" x="2136" y="-205.25" font-family="Helvetica,sans-Serif" font-size="10.00">_imports.h</text>
</a>
</g>
</g>
<!-- Node1&#45;&gt;Node29 -->
<g id="edge29_Node000001_Node000029" class="edge">
<title>Node1&#45;&gt;Node29</title>
<g id="a_edge29_Node000001_Node000029"><a xlink:title=" ">
<path fill="none" stroke="#63b8ff" d="M2215.18,-260.16C2197.96,-250.5 2177.7,-239.14 2161.99,-230.33"/>
<polygon fill="#63b8ff" stroke="#63b8ff" points="2213.15,-263.03 2223.58,-264.87 2216.57,-256.93 2213.15,-263.03"/>
</a>
</g>
</g>
<!-- Node30 -->
<g id="Node000030" class="node">
<title>Node30</title>
<g id="a_Node000030"><a xlink:href="iop_2hdd_2fsck_2src_2irx__imports_8h_source.html" target="_top" xlink:title=" ">
<polygon fill="white" stroke="#666666" points="2300.25,-230 2201.75,-230 2201.75,-199.5 2300.25,-199.5 2300.25,-230"/>
<text text-anchor="start" x="2209.75" y="-216.5" font-family="Helvetica,sans-Serif" font-size="10.00">iop/hdd/fsck/src/irx</text>
<text text-anchor="middle" x="2251" y="-205.25" font-family="Helvetica,sans-Serif" font-size="10.00">_imports.h</text>
</a>
</g>
</g>
<!-- Node1&#45;&gt;Node30 -->
<g id="edge30_Node000001_Node000030" class="edge">
<title>Node1&#45;&gt;Node30</title>
<g id="a_edge30_Node000001_Node000030"><a xlink:title=" ">
<path fill="none" stroke="#63b8ff" d="M2251,-254.31C2251,-246.14 2251,-237.41 2251,-230.33"/>
<polygon fill="#63b8ff" stroke="#63b8ff" points="2247.5,-254.1 2251,-264.1 2254.5,-254.1 2247.5,-254.1"/>
</a>
</g>
</g>
<!-- Node31 -->
<g id="Node000031" class="node">
<title>Node31</title>
<g id="a_Node000031"><a xlink:href="iop_2hdd_2fssk_2src_2irx__imports_8h_source.html" target="_top" xlink:title=" ">
<polygon fill="white" stroke="#666666" points="2417.25,-230 2318.75,-230 2318.75,-199.5 2417.25,-199.5 2417.25,-230"/>
<text text-anchor="start" x="2326.75" y="-216.5" font-family="Helvetica,sans-Serif" font-size="10.00">iop/hdd/fssk/src/irx</text>
<text text-anchor="middle" x="2368" y="-205.25" font-family="Helvetica,sans-Serif" font-size="10.00">_imports.h</text>
</a>
</g>
</g>
<!-- Node1&#45;&gt;Node31 -->
<g id="edge31_Node000001_Node000031" class="edge">
<title>Node1&#45;&gt;Node31</title>
<g id="a_edge31_Node000001_Node000031"><a xlink:title=" ">
<path fill="none" stroke="#63b8ff" d="M2287.45,-260.16C2304.96,-250.5 2325.57,-239.14 2341.56,-230.33"/>
<polygon fill="#63b8ff" stroke="#63b8ff" points="2285.94,-256.99 2278.87,-264.88 2289.32,-263.12 2285.94,-256.99"/>
</a>
</g>
</g>
<!-- Node32 -->
<g id="Node000032" class="node">
<title>Node32</title>
<g id="a_Node000032"><a xlink:href="iop_2hdd_2hdck_2src_2irx__imports_8h_source.html" target="_top" xlink:title=" ">
<polygon fill="white" stroke="#666666" points="2536.38,-230 2435.62,-230 2435.62,-199.5 2536.38,-199.5 2536.38,-230"/>
<text text-anchor="start" x="2443.62" y="-216.5" font-family="Helvetica,sans-Serif" font-size="10.00">iop/hdd/hdck/src/irx</text>
<text text-anchor="middle" x="2486" y="-205.25" font-family="Helvetica,sans-Serif" font-size="10.00">_imports.h</text>
</a>
</g>
</g>
<!-- Node1&#45;&gt;Node32 -->
<g id="edge32_Node000001_Node000032" class="edge">
<title>Node1&#45;&gt;Node32</title>
<g id="a_edge32_Node000001_Node000032"><a xlink:title=" ">
<path fill="none" stroke="#63b8ff" d="M2307.79,-264.66C2346.73,-253.97 2397.95,-239.92 2435.48,-229.62"/>
<polygon fill="#63b8ff" stroke="#63b8ff" points="2307.32,-261.16 2298.61,-267.18 2309.18,-267.91 2307.32,-261.16"/>
</a>
</g>
</g>
<!-- Node33 -->
<g id="Node000033" class="node">
<title>Node33</title>
<g id="a_Node000033"><a xlink:href="iop_2hdd_2hdsk_2src_2irx__imports_8h_source.html" target="_top" xlink:title=" ">
<polygon fill="white" stroke="#666666" points="2655.38,-230 2554.62,-230 2554.62,-199.5 2655.38,-199.5 2655.38,-230"/>
<text text-anchor="start" x="2562.62" y="-216.5" font-family="Helvetica,sans-Serif" font-size="10.00">iop/hdd/hdsk/src/irx</text>
<text text-anchor="middle" x="2605" y="-205.25" font-family="Helvetica,sans-Serif" font-size="10.00">_imports.h</text>
</a>
</g>
</g>
<!-- Node1&#45;&gt;Node33 -->
<g id="edge33_Node000001_Node000033" class="edge">
<title>Node1&#45;&gt;Node33</title>
<g id="a_edge33_Node000001_Node000033"><a xlink:title=" ">
<path fill="none" stroke="#63b8ff" d="M2308.28,-271.57C2367.67,-262.31 2463.14,-246.7 2545,-230 2548.04,-229.38 2551.17,-228.72 2554.31,-228.03"/>
<polygon fill="#63b8ff" stroke="#63b8ff" points="2308.1,-268.06 2298.75,-273.05 2309.17,-274.97 2308.1,-268.06"/>
</a>
</g>
</g>
<!-- Node34 -->
<g id="Node000034" class="node">
<title>Node34</title>
<g id="a_Node000034"><a xlink:href="iop_2hdd_2pfs_2src_2irx__imports_8h_source.html" target="_top" xlink:title=" ">
<polygon fill="white" stroke="#666666" points="2766.62,-230 2673.38,-230 2673.38,-199.5 2766.62,-199.5 2766.62,-230"/>
<text text-anchor="start" x="2681.38" y="-216.5" font-family="Helvetica,sans-Serif" font-size="10.00">iop/hdd/pfs/src/irx</text>
<text text-anchor="middle" x="2720" y="-205.25" font-family="Helvetica,sans-Serif" font-size="10.00">_imports.h</text>
</a>
</g>
</g>
<!-- Node1&#45;&gt;Node34 -->
<g id="edge34_Node000001_Node000034" class="edge">
<title>Node1&#45;&gt;Node34</title>
<g id="a_edge34_Node000001_Node000034"><a xlink:title=" ">
<path fill="none" stroke="#63b8ff" d="M2308.43,-275.6C2388.54,-268.59 2538.14,-253.57 2664,-230 2666.96,-229.45 2669.99,-228.83 2673.04,-228.16"/>
<polygon fill="#63b8ff" stroke="#63b8ff" points="2308.3,-272.1 2298.64,-276.45 2308.9,-279.08 2308.3,-272.1"/>
</a>
</g>
</g>
<!-- Node35 -->
<g id="Node000035" class="node">
<title>Node35</title>
<g id="a_Node000035"><a xlink:href="iop_2i_link_2_i_e_e_e1394__bd_2src_2irx__imports_8h_source.html" target="_top" xlink:title=" ">
<polygon fill="white" stroke="#666666" points="2891,-230 2785,-230 2785,-199.5 2891,-199.5 2891,-230"/>
<text text-anchor="start" x="2793" y="-216.5" font-family="Helvetica,sans-Serif" font-size="10.00">iop/iLink/IEEE1394</text>
<text text-anchor="middle" x="2838" y="-205.25" font-family="Helvetica,sans-Serif" font-size="10.00">_bd/src/irx_imports.h</text>
</a>
</g>
</g>
<!-- Node1&#45;&gt;Node35 -->
<g id="edge35_Node000001_Node000035" class="edge">
<title>Node1&#45;&gt;Node35</title>
<g id="a_edge35_Node000001_Node000035"><a xlink:title=" ">
<path fill="none" stroke="#63b8ff" d="M2308.55,-277.21C2405.49,-271.53 2607.29,-257.34 2776,-230 2778.83,-229.54 2781.73,-229.03 2784.65,-228.48"/>
<polygon fill="#63b8ff" stroke="#63b8ff" points="2308.55,-273.7 2298.77,-277.77 2308.95,-280.69 2308.55,-273.7"/>
</a>
</g>
</g>
<!-- Node36 -->
<g id="Node000036" class="node">
<title>Node36</title>
<g id="a_Node000036"><a xlink:href="iop_2i_link_2_i_e_e_e1394__disk_2src_2irx__imports_8h_source.html" target="_top" xlink:title=" ">
<polygon fill="white" stroke="#666666" points="3022.75,-230 2909.25,-230 2909.25,-199.5 3022.75,-199.5 3022.75,-230"/>
<text text-anchor="start" x="2917.25" y="-216.5" font-family="Helvetica,sans-Serif" font-size="10.00">iop/iLink/IEEE1394</text>
<text text-anchor="middle" x="2966" y="-205.25" font-family="Helvetica,sans-Serif" font-size="10.00">_disk/src/irx_imports.h</text>
</a>
</g>
</g>
<!-- Node1&#45;&gt;Node36 -->
<g id="edge36_Node000001_Node000036" class="edge">
<title>Node1&#45;&gt;Node36</title>
<g id="a_edge36_Node000001_Node000036"><a xlink:title=" ">
<path fill="none" stroke="#63b8ff" d="M2308.44,-278.41C2421.98,-274.21 2682.96,-261.68 2900,-230 2902.9,-229.58 2905.86,-229.1 2908.85,-228.58"/>
<polygon fill="#63b8ff" stroke="#63b8ff" points="2308.65,-274.9 2298.78,-278.76 2308.9,-281.9 2308.65,-274.9"/>
</a>
</g>
</g>
<!-- Node37 -->
<g id="Node000037" class="node">
<title>Node37</title>
<g id="a_Node000037"><a xlink:href="i_link__internal_8c_source.html" target="_top" xlink:title=" ">
<polygon fill="white" stroke="#666666" points="3141.38,-230 3040.62,-230 3040.62,-199.5 3141.38,-199.5 3141.38,-230"/>
<text text-anchor="start" x="3048.62" y="-216.5" font-family="Helvetica,sans-Serif" font-size="10.00">iop/iLink/iLinkman</text>
<text text-anchor="middle" x="3091" y="-205.25" font-family="Helvetica,sans-Serif" font-size="10.00">/src/iLink_internal.c</text>
</a>
</g>
</g>
<!-- Node1&#45;&gt;Node37 -->
<g id="edge37_Node000001_Node000037" class="edge">
<title>Node1&#45;&gt;Node37</title>
<g id="a_edge37_Node000001_Node000037"><a xlink:title=" ">
<path fill="none" stroke="#63b8ff" d="M2308.27,-279.94C2437.89,-278.51 2763.38,-270.77 3032,-230 3034.71,-229.59 3037.48,-229.11 3040.26,-228.59"/>
<polygon fill="#63b8ff" stroke="#63b8ff" points="2308.55,-276.44 2298.59,-280.04 2308.62,-283.44 2308.55,-276.44"/>
</a>
</g>
</g>
<!-- Node38 -->
<g id="Node000038" class="node">
<title>Node38</title>
<g id="a_Node000038"><a xlink:href="iop_2i_link_2i_linkman_2src_2irx__imports_8h_source.html" target="_top" xlink:title=" ">
<polygon fill="white" stroke="#666666" points="3254.75,-230 3159.25,-230 3159.25,-199.5 3254.75,-199.5 3254.75,-230"/>
<text text-anchor="start" x="3167.25" y="-216.5" font-family="Helvetica,sans-Serif" font-size="10.00">iop/iLink/iLinkman</text>
<text text-anchor="middle" x="3207" y="-205.25" font-family="Helvetica,sans-Serif" font-size="10.00">/src/irx_imports.h</text>
</a>
</g>
</g>
<!-- Node1&#45;&gt;Node38 -->
<g id="edge38_Node000001_Node000038" class="edge">
<title>Node1&#45;&gt;Node38</title>
<g id="a_edge38_Node000001_Node000038"><a xlink:title=" ">
<path fill="none" stroke="#63b8ff" d="M2308.66,-280.79C2451.9,-281.31 2835.06,-277.73 3150,-230 3152.92,-229.56 3155.92,-229.03 3158.93,-228.45"/>
<polygon fill="#63b8ff" stroke="#63b8ff" points="2308.69,-277.29 2298.67,-280.74 2308.66,-284.29 2308.69,-277.29"/>
</a>
</g>
</g>
<!-- Node39 -->
<g id="Node000039" class="node">
<title>Node39</title>
<g id="a_Node000039"><a xlink:href="iop_2memorycard_2mcman_2src_2irx__imports_8h_source.html" target="_top" xlink:title=" ">
<polygon fill="white" stroke="#666666" points="3393.12,-230 3272.88,-230 3272.88,-199.5 3393.12,-199.5 3393.12,-230"/>
<text text-anchor="start" x="3280.88" y="-216.5" font-family="Helvetica,sans-Serif" font-size="10.00">iop/memorycard/mcman</text>
<text text-anchor="middle" x="3333" y="-205.25" font-family="Helvetica,sans-Serif" font-size="10.00">/src/irx_imports.h</text>
</a>
</g>
</g>
<!-- Node1&#45;&gt;Node39 -->
<g id="edge39_Node000001_Node000039" class="edge">
<title>Node1&#45;&gt;Node39</title>
<g id="a_edge39_Node000001_Node000039"><a xlink:title=" ">
<path fill="none" stroke="#63b8ff" d="M2308.24,-280.49C2462.97,-280.48 2902.3,-276.04 3264,-230 3266.79,-229.64 3269.64,-229.24 3272.51,-228.79"/>
<polygon fill="#63b8ff" stroke="#63b8ff" points="2308.68,-276.99 2298.67,-280.48 2308.67,-283.99 2308.68,-276.99"/>
</a>
</g>
</g>
<!-- Node40 -->
<g id="Node000040" class="node">
<title>Node40</title>
<g id="a_Node000040"><a xlink:href="_mecha_auth_8c_source.html" target="_top" xlink:title=" ">
<polygon fill="white" stroke="#666666" points="3517,-230 3411,-230 3411,-199.5 3517,-199.5 3517,-230"/>
<text text-anchor="start" x="3419" y="-216.5" font-family="Helvetica,sans-Serif" font-size="10.00">iop/security/secrman</text>
<text text-anchor="middle" x="3464" y="-205.25" font-family="Helvetica,sans-Serif" font-size="10.00">/src/MechaAuth.c</text>
</a>
</g>
</g>
<!-- Node1&#45;&gt;Node40 -->
<g id="edge40_Node000001_Node000040" class="edge">
<title>Node1&#45;&gt;Node40</title>
<g id="a_edge40_Node000001_Node000040"><a xlink:title=" ">
<path fill="none" stroke="#63b8ff" d="M2308.57,-279.13C2510.67,-274.96 3187.14,-259.13 3402,-230 3404.85,-229.61 3407.75,-229.16 3410.68,-228.65"/>
<polygon fill="#63b8ff" stroke="#63b8ff" points="2308.5,-275.63 2298.58,-279.33 2308.65,-282.62 2308.5,-275.63"/>
</a>
</g>
</g>
<!-- Node41 -->
<g id="Node000041" class="node">
<title>Node41</title>
<g id="a_Node000041"><a xlink:href="iop_2security_2secrman_2src_2irx__imports_8h_source.html" target="_top" xlink:title=" ">
<polygon fill="white" stroke="#666666" points="3641,-230 3535,-230 3535,-199.5 3641,-199.5 3641,-230"/>
<text text-anchor="start" x="3543" y="-216.5" font-family="Helvetica,sans-Serif" font-size="10.00">iop/security/secrman</text>
<text text-anchor="middle" x="3588" y="-205.25" font-family="Helvetica,sans-Serif" font-size="10.00">/src/irx_imports.h</text>
</a>
</g>
</g>
<!-- Node1&#45;&gt;Node41 -->
<g id="edge41_Node000001_Node000041" class="edge">
<title>Node1&#45;&gt;Node41</title>
<g id="a_edge41_Node000001_Node000041"><a xlink:title=" ">
<path fill="none" stroke="#63b8ff" d="M2308.58,-279.41C2524.47,-276.03 3285.73,-262.06 3526,-230 3528.85,-229.62 3531.75,-229.17 3534.68,-228.67"/>
<polygon fill="#63b8ff" stroke="#63b8ff" points="2308.68,-275.91 2298.74,-279.56 2308.79,-282.91 2308.68,-275.91"/>
</a>
</g>
</g>
<!-- Node42 -->
<g id="Node000042" class="node">
<title>Node42</title>
<g id="a_Node000042"><a xlink:href="cdrom_8c.html" target="_top" xlink:title=" ">
<polygon fill="white" stroke="#666666" points="3765.38,-230 3658.62,-230 3658.62,-199.5 3765.38,-199.5 3765.38,-230"/>
<text text-anchor="start" x="3666.62" y="-216.5" font-family="Helvetica,sans-Serif" font-size="10.00">iop/sound/audsrv/src</text>
<text text-anchor="middle" x="3712" y="-205.25" font-family="Helvetica,sans-Serif" font-size="10.00">/cdrom.c</text>
</a>
</g>
</g>
<!-- Node1&#45;&gt;Node42 -->
<g id="edge42_Node000001_Node000042" class="edge">
<title>Node1&#45;&gt;Node42</title>
<g id="a_edge42_Node000001_Node000042"><a xlink:title=" ">
<path fill="none" stroke="#63b8ff" d="M2308.41,-279.64C2537.17,-277 3384.15,-265 3650,-230 3652.74,-229.64 3655.53,-229.21 3658.35,-228.74"/>
<polygon fill="#63b8ff" stroke="#63b8ff" points="2308.52,-276.14 2298.56,-279.76 2308.6,-283.14 2308.52,-276.14"/>
</a>
</g>
</g>
<!-- Node43 -->
<g id="Node000043" class="node">
<title>Node43</title>
<g id="a_Node000043"><a xlink:href="iop_2sound_2audsrv_2src_2irx__imports_8h_source.html" target="_top" xlink:title=" ">
<polygon fill="white" stroke="#666666" points="3890.38,-230 3783.62,-230 3783.62,-199.5 3890.38,-199.5 3890.38,-230"/>
<text text-anchor="start" x="3791.62" y="-216.5" font-family="Helvetica,sans-Serif" font-size="10.00">iop/sound/audsrv/src</text>
<text text-anchor="middle" x="3837" y="-205.25" font-family="Helvetica,sans-Serif" font-size="10.00">/irx_imports.h</text>
</a>
</g>
</g>
<!-- Node1&#45;&gt;Node43 -->
<g id="edge43_Node000001_Node000043" class="edge">
<title>Node1&#45;&gt;Node43</title>
<g id="a_edge43_Node000001_Node000043"><a xlink:title=" ">
<path fill="none" stroke="#63b8ff" d="M2308.68,-279.81C2550.37,-277.73 3482.59,-267.42 3774,-230 3777,-229.61 3780.07,-229.15 3783.16,-228.63"/>
<polygon fill="#63b8ff" stroke="#63b8ff" points="2308.85,-276.31 2298.88,-279.89 2308.91,-283.31 2308.85,-276.31"/>
</a>
</g>
</g>
<!-- Node44 -->
<g id="Node000044" class="node">
<title>Node44</title>
<g id="a_Node000044"><a xlink:href="api_8c_source.html" target="_top" xlink:title=" ">
<polygon fill="white" stroke="#666666" points="4015.38,-230 3908.62,-230 3908.62,-199.5 4015.38,-199.5 4015.38,-230"/>
<text text-anchor="start" x="3916.62" y="-216.5" font-family="Helvetica,sans-Serif" font-size="10.00">iop/usb/usbhdfsd/src</text>
<text text-anchor="middle" x="3962" y="-205.25" font-family="Helvetica,sans-Serif" font-size="10.00">/api.c</text>
</a>
</g>
</g>
<!-- Node1&#45;&gt;Node44 -->
<g id="edge44_Node000001_Node000044" class="edge">
<title>Node1&#45;&gt;Node44</title>
<g id="a_edge44_Node000001_Node000044"><a xlink:title=" ">
<path fill="none" stroke="#63b8ff" d="M2308.76,-279.98C2562.73,-278.54 3581.74,-270.34 3899,-230 3902,-229.62 3905.07,-229.16 3908.16,-228.64"/>
<polygon fill="#63b8ff" stroke="#63b8ff" points="2308.74,-276.48 2298.76,-280.03 2308.78,-283.48 2308.74,-276.48"/>
</a>
</g>
</g>
<!-- Node45 -->
<g id="Node000045" class="node">
<title>Node45</title>
<g id="a_Node000045"><a xlink:href="iop_2usb_2usbhdfsd_2src_2irx__imports_8h_source.html" target="_top" xlink:title=" ">
<polygon fill="white" stroke="#666666" points="4140.38,-230 4033.62,-230 4033.62,-199.5 4140.38,-199.5 4140.38,-230"/>
<text text-anchor="start" x="4041.62" y="-216.5" font-family="Helvetica,sans-Serif" font-size="10.00">iop/usb/usbhdfsd/src</text>
<text text-anchor="middle" x="4087" y="-205.25" font-family="Helvetica,sans-Serif" font-size="10.00">/irx_imports.h</text>
</a>
</g>
</g>
<!-- Node1&#45;&gt;Node45 -->
<g id="edge45_Node000001_Node000045" class="edge">
<title>Node1&#45;&gt;Node45</title>
<g id="a_edge45_Node000001_Node000045"><a xlink:title=" ">
<path fill="none" stroke="#63b8ff" d="M2308.34,-280.12C2573.29,-279.3 3680.62,-273.28 4024,-230 4027,-229.62 4030.08,-229.16 4033.17,-228.65"/>
<polygon fill="#63b8ff" stroke="#63b8ff" points="2308.59,-276.62 2298.6,-280.15 2308.61,-283.62 2308.59,-276.62"/>
</a>
</g>
</g>
<!-- Node4 -->
<g id="Node000004" class="node">
<title>Node4</title>
<g id="a_Node000004"><a xlink:href="accdvd__internal_8h_source.html" target="_top" xlink:title=" ">
<polygon fill="white" stroke="#666666" points="502,-163.5 390,-163.5 390,-133 502,-133 502,-163.5"/>
<text text-anchor="start" x="398" y="-150" font-family="Helvetica,sans-Serif" font-size="10.00">iop/arcade/accdvd/src</text>
<text text-anchor="middle" x="446" y="-138.75" font-family="Helvetica,sans-Serif" font-size="10.00">/accdvd_internal.h</text>
</a>
</g>
</g>
<!-- Node3&#45;&gt;Node4 -->
<g id="edge3_Node000003_Node000004" class="edge">
<title>Node3&#45;&gt;Node4</title>
<g id="a_edge3_Node000003_Node000004"><a xlink:title=" ">
<path fill="none" stroke="#63b8ff" d="M578.4,-195.41C549.8,-185.44 514.92,-173.28 488.13,-163.94"/>
<polygon fill="#63b8ff" stroke="#63b8ff" points="577,-198.63 587.59,-198.62 579.3,-192.02 577,-198.63"/>
</a>
</g>
</g>
<!-- Node3&#45;&gt;Node11 -->
<g id="edge10_Node000003_Node000011" class="edge">
<title>Node3&#45;&gt;Node11</title>
<g id="a_edge10_Node000003_Node000011"><a xlink:title=" ">
<path fill="none" stroke="#63b8ff" d="M655.91,-191.74C666.34,-182.53 678.18,-172.06 687.5,-163.83"/>
<polygon fill="#63b8ff" stroke="#63b8ff" points="653.88,-188.87 648.7,-198.11 658.51,-194.11 653.88,-188.87"/>
</a>
</g>
</g>
<!-- Node5 -->
<g id="Node000005" class="node">
<title>Node5</title>
<g id="a_Node000005"><a xlink:href="accdvdi-entry_8c_source.html" target="_top" xlink:title=" ">
<polygon fill="white" stroke="#666666" points="112,-97 0,-97 0,-66.5 112,-66.5 112,-97"/>
<text text-anchor="start" x="8" y="-83.5" font-family="Helvetica,sans-Serif" font-size="10.00">iop/arcade/accdvd/src</text>
<text text-anchor="middle" x="56" y="-72.25" font-family="Helvetica,sans-Serif" font-size="10.00">/accdvdi&#45;entry.c</text>
</a>
</g>
</g>
<!-- Node4&#45;&gt;Node5 -->
<g id="edge4_Node000004_Node000005" class="edge">
<title>Node4&#45;&gt;Node5</title>
<g id="a_edge4_Node000004_Node000005"><a xlink:title=" ">
<path fill="none" stroke="#63b8ff" d="M378.7,-138.09C312.83,-128.84 209.73,-113.57 121,-97 118.16,-96.47 115.26,-95.91 112.33,-95.32"/>
<polygon fill="#63b8ff" stroke="#63b8ff" points="377.86,-141.51 388.25,-139.43 378.83,-134.58 377.86,-141.51"/>
</a>
</g>
</g>
<!-- Node6 -->
<g id="Node000006" class="node">
<title>Node6</title>
<g id="a_Node000006"><a xlink:href="acd_8c_source.html" target="_top" xlink:title=" ">
<polygon fill="white" stroke="#666666" points="242,-97 130,-97 130,-66.5 242,-66.5 242,-97"/>
<text text-anchor="start" x="138" y="-83.5" font-family="Helvetica,sans-Serif" font-size="10.00">iop/arcade/accdvd/src</text>
<text text-anchor="middle" x="186" y="-72.25" font-family="Helvetica,sans-Serif" font-size="10.00">/acd.c</text>
</a>
</g>
</g>
<!-- Node4&#45;&gt;Node6 -->
<g id="edge5_Node000004_Node000006" class="edge">
<title>Node4&#45;&gt;Node6</title>
<g id="a_edge5_Node000004_Node000006"><a xlink:title=" ">
<path fill="none" stroke="#63b8ff" d="M378.54,-130.51C336.23,-120.02 282.31,-106.64 242.31,-96.72"/>
<polygon fill="#63b8ff" stroke="#63b8ff" points="377.57,-133.88 388.11,-132.89 379.25,-127.09 377.57,-133.88"/>
</a>
</g>
</g>
<!-- Node7 -->
<g id="Node000007" class="node">
<title>Node7</title>
<g id="a_Node000007"><a xlink:href="cdc_8c_source.html" target="_top" xlink:title=" ">
<polygon fill="white" stroke="#666666" points="372,-97 260,-97 260,-66.5 372,-66.5 372,-97"/>
<text text-anchor="start" x="268" y="-83.5" font-family="Helvetica,sans-Serif" font-size="10.00">iop/arcade/accdvd/src</text>
<text text-anchor="middle" x="316" y="-72.25" font-family="Helvetica,sans-Serif" font-size="10.00">/cdc.c</text>
</a>
</g>
</g>
<!-- Node4&#45;&gt;Node7 -->
<g id="edge6_Node000004_Node000007" class="edge">
<title>Node4&#45;&gt;Node7</title>
<g id="a_edge6_Node000004_Node000007"><a xlink:title=" ">
<path fill="none" stroke="#63b8ff" d="M406.32,-127.56C386.68,-117.82 363.39,-106.26 345.38,-97.33"/>
<polygon fill="#63b8ff" stroke="#63b8ff" points="404.63,-130.63 415.15,-131.94 407.74,-124.36 404.63,-130.63"/>
</a>
</g>
</g>
<!-- Node8 -->
<g id="Node000008" class="node">
<title>Node8</title>
<g id="a_Node000008"><a xlink:href="cddrv_8c_source.html" target="_top" xlink:title=" ">
<polygon fill="white" stroke="#666666" points="502,-97 390,-97 390,-66.5 502,-66.5 502,-97"/>
<text text-anchor="start" x="398" y="-83.5" font-family="Helvetica,sans-Serif" font-size="10.00">iop/arcade/accdvd/src</text>
<text text-anchor="middle" x="446" y="-72.25" font-family="Helvetica,sans-Serif" font-size="10.00">/cddrv.c</text>
</a>
</g>
</g>
<!-- Node4&#45;&gt;Node8 -->
<g id="edge7_Node000004_Node000008" class="edge">
<title>Node4&#45;&gt;Node8</title>
<g id="a_edge7_Node000004_Node000008"><a xlink:title=" ">
<path fill="none" stroke="#63b8ff" d="M446,-121.31C446,-113.14 446,-104.41 446,-97.33"/>
<polygon fill="#63b8ff" stroke="#63b8ff" points="442.5,-121.1 446,-131.1 449.5,-121.1 442.5,-121.1"/>
</a>
</g>
</g>
<!-- Node9 -->
<g id="Node000009" class="node">
<title>Node9</title>
<g id="a_Node000009"><a xlink:href="cdfs_8c_source.html" target="_top" xlink:title=" ">
<polygon fill="white" stroke="#666666" points="632,-97 520,-97 520,-66.5 632,-66.5 632,-97"/>
<text text-anchor="start" x="528" y="-83.5" font-family="Helvetica,sans-Serif" font-size="10.00">iop/arcade/accdvd/src</text>
<text text-anchor="middle" x="576" y="-72.25" font-family="Helvetica,sans-Serif" font-size="10.00">/cdfs.c</text>
</a>
</g>
</g>
<!-- Node4&#45;&gt;Node9 -->
<g id="edge8_Node000004_Node000009" class="edge">
<title>Node4&#45;&gt;Node9</title>
<g id="a_edge8_Node000004_Node000009"><a xlink:title=" ">
<path fill="none" stroke="#63b8ff" d="M485.68,-127.56C505.32,-117.82 528.61,-106.26 546.62,-97.33"/>
<polygon fill="#63b8ff" stroke="#63b8ff" points="484.26,-124.36 476.85,-131.94 487.37,-130.63 484.26,-124.36"/>
</a>
</g>
</g>
<!-- Node10 -->
<g id="Node000010" class="node">
<title>Node10</title>
<g id="a_Node000010"><a xlink:href="cdi_8c_source.html" target="_top" xlink:title=" ">
<polygon fill="white" stroke="#666666" points="762,-97 650,-97 650,-66.5 762,-66.5 762,-97"/>
<text text-anchor="start" x="658" y="-83.5" font-family="Helvetica,sans-Serif" font-size="10.00">iop/arcade/accdvd/src</text>
<text text-anchor="middle" x="706" y="-72.25" font-family="Helvetica,sans-Serif" font-size="10.00">/cdi.c</text>
</a>
</g>
</g>
<!-- Node4&#45;&gt;Node10 -->
<g id="edge9_Node000004_Node000010" class="edge">
<title>Node4&#45;&gt;Node10</title>
<g id="a_edge9_Node000004_Node000010"><a xlink:title=" ">
<path fill="none" stroke="#63b8ff" d="M513.46,-130.51C555.77,-120.02 609.69,-106.64 649.69,-96.72"/>
<polygon fill="#63b8ff" stroke="#63b8ff" points="512.75,-127.09 503.89,-132.89 514.43,-133.88 512.75,-127.09"/>
</a>
</g>
</g>
<!-- Node12 -->
<g id="Node000012" class="node">
<title>Node12</title>
<g id="a_Node000012"><a xlink:href="accdvde__internal_8h_source.html" target="_top" xlink:title=" ">
<polygon fill="white" stroke="#666666" points="896.25,-97 779.75,-97 779.75,-66.5 896.25,-66.5 896.25,-97"/>
<text text-anchor="start" x="787.75" y="-83.5" font-family="Helvetica,sans-Serif" font-size="10.00">iop/arcade/accdvde</text>
<text text-anchor="middle" x="838" y="-72.25" font-family="Helvetica,sans-Serif" font-size="10.00">/src/accdvde_internal.h</text>
</a>
</g>
</g>
<!-- Node11&#45;&gt;Node12 -->
<g id="edge11_Node000011_Node000012" class="edge">
<title>Node11&#45;&gt;Node12</title>
<g id="a_edge11_Node000011_Node000012"><a xlink:title=" ">
<path fill="none" stroke="#63b8ff" d="M744.62,-127.7C764.92,-117.93 789.06,-106.31 807.71,-97.33"/>
<polygon fill="#63b8ff" stroke="#63b8ff" points="743.26,-124.47 735.77,-131.96 746.3,-130.77 743.26,-124.47"/>
</a>
</g>
</g>
<!-- Node13 -->
<g id="Node000013" class="node">
<title>Node13</title>
<g id="a_Node000013"><a xlink:href="accdvde-entry_8c_source.html" target="_top" xlink:title=" ">
<polygon fill="white" stroke="#666666" points="829.88,-30.5 726.12,-30.5 726.12,0 829.88,0 829.88,-30.5"/>
<text text-anchor="start" x="734.12" y="-17" font-family="Helvetica,sans-Serif" font-size="10.00">iop/arcade/accdvde</text>
<text text-anchor="middle" x="778" y="-5.75" font-family="Helvetica,sans-Serif" font-size="10.00">/src/accdvde&#45;entry.c</text>
</a>
</g>
</g>
<!-- Node12&#45;&gt;Node13 -->
<g id="edge12_Node000012_Node000013" class="edge">
<title>Node12&#45;&gt;Node13</title>
<g id="a_edge12_Node000012_Node000013"><a xlink:title=" ">
<path fill="none" stroke="#63b8ff" d="M816.75,-57.91C808.37,-48.9 798.99,-38.82 791.56,-30.83"/>
<polygon fill="#63b8ff" stroke="#63b8ff" points="813.98,-60.07 823.35,-65.01 819.11,-55.3 813.98,-60.07"/>
</a>
</g>
</g>
<!-- Node14 -->
<g id="Node000014" class="node">
<title>Node14</title>
<g id="a_Node000014"><a xlink:href="cde_8c_source.html" target="_top" xlink:title=" ">
<polygon fill="white" stroke="#666666" points="948.38,-30.5 847.62,-30.5 847.62,0 948.38,0 948.38,-30.5"/>
<text text-anchor="start" x="855.62" y="-17" font-family="Helvetica,sans-Serif" font-size="10.00">iop/arcade/accdvde</text>
<text text-anchor="middle" x="898" y="-5.75" font-family="Helvetica,sans-Serif" font-size="10.00">/src/cde.c</text>
</a>
</g>
</g>
<!-- Node12&#45;&gt;Node14 -->
<g id="edge13_Node000012_Node000014" class="edge">
<title>Node12&#45;&gt;Node14</title>
<g id="a_edge13_Node000012_Node000014"><a xlink:title=" ">
<path fill="none" stroke="#63b8ff" d="M859.25,-57.91C867.63,-48.9 877.01,-38.82 884.44,-30.83"/>
<polygon fill="#63b8ff" stroke="#63b8ff" points="856.89,-55.3 852.65,-65.01 862.02,-60.07 856.89,-55.3"/>
</a>
</g>
</g>
<!-- Node16 -->
<g id="Node000016" class="node">
<title>Node16</title>
<g id="a_Node000016"><a xlink:href="iopmain_8c_source.html" target="_top" xlink:title=" ">
<polygon fill="white" stroke="#666666" points="875.12,-163.5 772.88,-163.5 772.88,-133 875.12,-133 875.12,-163.5"/>
<text text-anchor="start" x="780.88" y="-150" font-family="Helvetica,sans-Serif" font-size="10.00">iop/arcade/acrtc/src</text>
<text text-anchor="middle" x="824" y="-138.75" font-family="Helvetica,sans-Serif" font-size="10.00">/iopmain.c</text>
</a>
</g>
</g>
<!-- Node15&#45;&gt;Node16 -->
<g id="edge16_Node000015_Node000016" class="edge">
<title>Node15&#45;&gt;Node16</title>
<g id="a_edge16_Node000015_Node000016"><a xlink:title=" ">
<path fill="none" stroke="#63b8ff" d="M811.26,-188.38C813.97,-180.05 816.89,-171.08 819.25,-163.83"/>
<polygon fill="#63b8ff" stroke="#63b8ff" points="808,-187.08 808.23,-197.67 814.66,-189.25 808,-187.08"/>
</a>
</g>
</g>
<!-- Node19 -->
<g id="Node000019" class="node">
<title>Node19</title>
<g id="a_Node000019"><a xlink:href="cdvdfsv_8c_source.html" target="_top" xlink:title=" ">
<polygon fill="white" stroke="#666666" points="1100.38,-163.5 993.62,-163.5 993.62,-133 1100.38,-133 1100.38,-163.5"/>
<text text-anchor="start" x="1001.62" y="-150" font-family="Helvetica,sans-Serif" font-size="10.00">iop/cdvd/cdvdfsv/src</text>
<text text-anchor="middle" x="1047" y="-138.75" font-family="Helvetica,sans-Serif" font-size="10.00">/cdvdfsv.c</text>
</a>
</g>
</g>
<!-- Node18&#45;&gt;Node19 -->
<g id="edge19_Node000018_Node000019" class="edge">
<title>Node18&#45;&gt;Node19</title>
<g id="a_edge19_Node000018_Node000019"><a xlink:title=" ">
<path fill="none" stroke="#63b8ff" d="M1047,-187.81C1047,-179.64 1047,-170.91 1047,-163.83"/>
<polygon fill="#63b8ff" stroke="#63b8ff" points="1043.5,-187.6 1047,-197.6 1050.5,-187.6 1043.5,-187.6"/>
</a>
</g>
</g>
<!-- Node22 -->
<g id="Node000022" class="node">
<title>Node22</title>
<g id="a_Node000022"><a xlink:href="cdvdstm_8c_source.html" target="_top" xlink:title=" ">
<polygon fill="white" stroke="#666666" points="1357.88,-163.5 1248.12,-163.5 1248.12,-133 1357.88,-133 1357.88,-163.5"/>
<text text-anchor="start" x="1256.12" y="-150" font-family="Helvetica,sans-Serif" font-size="10.00">iop/cdvd/cdvdstm/src</text>
<text text-anchor="middle" x="1303" y="-138.75" font-family="Helvetica,sans-Serif" font-size="10.00">/cdvdstm.c</text>
</a>
</g>
</g>
<!-- Node21&#45;&gt;Node22 -->
<g id="edge22_Node000021_Node000022" class="edge">
<title>Node21&#45;&gt;Node22</title>
<g id="a_edge22_Node000021_Node000022"><a xlink:title=" ">
<path fill="none" stroke="#63b8ff" d="M1303,-187.81C1303,-179.64 1303,-170.91 1303,-163.83"/>
<polygon fill="#63b8ff" stroke="#63b8ff" points="1299.5,-187.6 1303,-197.6 1306.5,-187.6 1299.5,-187.6"/>
</a>
</g>
</g>
</g>
</svg>

<g id="navigator" transform="translate(0 0)" fill="#404254">
  <rect fill="#f2f5e9" fill-opacity="0.5" stroke="#606060" stroke-width=".5" x="0" y="0" width="60" height="60"/>
  <use id="zoomplus" xlink:href="#zoomPlus" x="17" y="9" onmousedown="handleZoom(evt,'in')"/>
  <use id="zoomminus" xlink:href="#zoomMin" x="42" y="9" onmousedown="handleZoom(evt,'out')"/>
  <use id="reset" xlink:href="#resetDef" x="30" y="36" onmousedown="handleReset()"/>
   <use id="arrowup" xlink:href="#arrowUp" x="0" y="0" onmousedown="handlePan(0,-1)"/>
  <use id="arrowright" xlink:href="#arrowRight" x="0" y="0" onmousedown="handlePan(1,0)"/>
  <use id="arrowdown" xlink:href="#arrowDown" x="0" y="0" onmousedown="handlePan(0,1)"/>
  <use id="arrowleft" xlink:href="#arrowLeft" x="0" y="0" onmousedown="handlePan(-1,0)"/>
</g>
<svg viewBox="0 0 15 15" width="100%" height="30px" preserveAspectRatio="xMaxYMin meet">
 <g id="arrow_out" transform="scale(0.3 0.3)">
  <a xlink:href="cdvdman_8h__dep__incl_org.svg" target="_base">
   <rect id="button" ry="5" rx="5" y="6" x="6" height="38" width="38"
        fill="#f2f5e9" fill-opacity="0.5" stroke="#606060" stroke-width="1.0"/>
   <path id="arrow"
     d="M 11.500037,31.436501 C 11.940474,20.09759 22.043105,11.32322 32.158766,21.979434 L 37.068811,17.246167 C 37.068811,17.246167 37.088388,32 37.088388,32 L 22.160133,31.978069 C 22.160133,31.978069 26.997745,27.140456 26.997745,27.140456 C 18.528582,18.264221 13.291696,25.230495 11.500037,31.436501 z"
     style="fill:#404040;"/>
  </a>
 </g>
</svg>

<style type='text/css'>
<![CDATA[
[data-mouse-over-selected='false'] { opacity: 0.7; }
[data-mouse-over-selected='true']  { opacity: 1.0; }
]]>
</style>
<script type="application/ecmascript"><![CDATA[
document.addEventListener('DOMContentLoaded', (event) => {
  highlightEdges();
  highlightAdjacentNodes();
});
]]></script>
</svg>
