<?xml version="1.0" encoding="UTF-8" standalone="no"?>
<!DOCTYPE svg PUBLIC "-//W3C//DTD SVG 1.1//EN"
 "http://www.w3.org/Graphics/SVG/1.1/DTD/svg11.dtd">
<!-- Generated by graphviz version 12.2.0 (20241103.1931)
 -->
<!-- Title: iop/cdvd/cdvdman/include/cdvdman.h Pages: 1 -->
<svg width="4271pt" height="305pt"
 viewBox="0.00 0.00 4271.38 304.50" xmlns="http://www.w3.org/2000/svg" xmlns:xlink="http://www.w3.org/1999/xlink">
<g id="graph0" class="graph" transform="scale(1 1) rotate(0) translate(4 300.5)">
<title>iop/cdvd/cdvdman/include/cdvdman.h</title>
<!-- Node1 -->
<g id="Node000001" class="node">
<title>Node1</title>
<g id="a_Node000001"><a xlink:title=" ">
<polygon fill="#999999" stroke="#666666" points="2380.62,-296.5 2251.38,-296.5 2251.38,-266 2380.62,-266 2380.62,-296.5"/>
<text text-anchor="start" x="2259.38" y="-283" font-family="Helvetica,sans-Serif" font-size="10.00">iop/cdvd/cdvdman/include</text>
<text text-anchor="middle" x="2316" y="-271.75" font-family="Helvetica,sans-Serif" font-size="10.00">/cdvdman.h</text>
</a>
</g>
</g>
<!-- Node2 -->
<g id="Node000002" class="node">
<title>Node2</title>
<g id="a_Node000002"><a xlink:href="common_2sbus_2src_2irx__imports_8h_source.html" target="_top" xlink:title=" ">
<polygon fill="white" stroke="#666666" points="549.38,-230 442.62,-230 442.62,-199.5 549.38,-199.5 549.38,-230"/>
<text text-anchor="start" x="450.62" y="-216.5" font-family="Helvetica,sans-Serif" font-size="10.00">common/sbus/src/irx</text>
<text text-anchor="middle" x="496" y="-205.25" font-family="Helvetica,sans-Serif" font-size="10.00">_imports.h</text>
</a>
</g>
</g>
<!-- Node1&#45;&gt;Node2 -->
<g id="edge1_Node000001_Node000002" class="edge">
<title>Node1&#45;&gt;Node2</title>
<g id="a_edge1_Node000001_Node000002"><a xlink:title=" ">
<path fill="none" stroke="#63b8ff" d="M2239.52,-280.07C1945.86,-279.07 890.49,-272.54 558,-230 555.26,-229.65 552.47,-229.23 549.65,-228.76"/>
<polygon fill="#63b8ff" stroke="#63b8ff" points="2239.35,-283.57 2249.36,-280.1 2239.37,-276.57 2239.35,-283.57"/>
</a>
</g>
</g>
<!-- Node3 -->
<g id="Node000003" class="node">
<title>Node3</title>
<g id="a_Node000003"><a xlink:href="accdvd_8h_source.html" target="_top" xlink:title=" ">
<polygon fill="white" stroke="#666666" points="696.62,-230 567.38,-230 567.38,-199.5 696.62,-199.5 696.62,-230"/>
<text text-anchor="start" x="575.38" y="-216.5" font-family="Helvetica,sans-Serif" font-size="10.00">iop/arcade/accdvd/include</text>
<text text-anchor="middle" x="632" y="-205.25" font-family="Helvetica,sans-Serif" font-size="10.00">/accdvd.h</text>
</a>
</g>
</g>
<!-- Node1&#45;&gt;Node3 -->
<g id="edge2_Node000001_Node000003" class="edge">
<title>Node1&#45;&gt;Node3</title>
<g id="a_edge2_Node000001_Node000003"><a xlink:title=" ">
<path fill="none" stroke="#63b8ff" d="M2239.83,-279.35C1963.33,-275.86 1013,-261.79 711,-230 706.43,-229.52 701.72,-228.92 696.99,-228.25"/>
<polygon fill="#63b8ff" stroke="#63b8ff" points="2239.38,-282.85 2249.42,-279.47 2239.47,-275.85 2239.38,-282.85"/>
</a>
</g>
</g>
<!-- Node11 -->
<g id="Node000011" class="node">
<title>Node11</title>
<g id="a_Node000011"><a xlink:href="iop_2arcade_2accdvde_2src_2irx__imports_8h_source.html" target="_top" xlink:title=" ">
<polygon fill="white" stroke="#666666" points="754.38,-163.5 653.62,-163.5 653.62,-133 754.38,-133 754.38,-163.5"/>
<text text-anchor="start" x="661.62" y="-150" font-family="Helvetica,sans-Serif" font-size="10.00">iop/arcade/accdvde</text>
<text text-anchor="middle" x="704" y="-138.75" font-family="Helvetica,sans-Serif" font-size="10.00">/src/irx_imports.h</text>
</a>
</g>
</g>
<!-- Node1&#45;&gt;Node11 -->
<g id="edge14_Node000001_Node000011" class="edge">
<title>Node1&#45;&gt;Node11</title>
<g id="a_edge14_Node000001_Node000011"><a xlink:title=" ">
<path fill="none" stroke="#63b8ff" d="M2239.58,-279.98C1933.22,-278.61 807.46,-270.8 744,-230 720.97,-215.19 710.73,-182.9 706.56,-163.94"/>
<polygon fill="#63b8ff" stroke="#63b8ff" points="2239.46,-283.48 2249.47,-280.02 2239.49,-276.48 2239.46,-283.48"/>
</a>
</g>
</g>
<!-- Node15 -->
<g id="Node000015" class="node">
<title>Node15</title>
<g id="a_Node000015"><a xlink:href="iop_2arcade_2acrtc_2src_2irx__imports_8h_source.html" target="_top" xlink:title=" ">
<polygon fill="white" stroke="#666666" points="855.12,-230 752.88,-230 752.88,-199.5 855.12,-199.5 855.12,-230"/>
<text text-anchor="start" x="760.88" y="-216.5" font-family="Helvetica,sans-Serif" font-size="10.00">iop/arcade/acrtc/src</text>
<text text-anchor="middle" x="804" y="-205.25" font-family="Helvetica,sans-Serif" font-size="10.00">/irx_imports.h</text>
</a>
</g>
</g>
<!-- Node1&#45;&gt;Node15 -->
<g id="edge15_Node000001_Node000015" class="edge">
<title>Node1&#45;&gt;Node15</title>
<g id="a_edge15_Node000001_Node000015"><a xlink:title=" ">
<path fill="none" stroke="#63b8ff" d="M2239.76,-279.61C1980.43,-277.12 1133.72,-266.33 864,-230 861.24,-229.63 858.42,-229.19 855.59,-228.69"/>
<polygon fill="#63b8ff" stroke="#63b8ff" points="2239.38,-283.11 2249.41,-279.7 2239.45,-276.11 2239.38,-283.11"/>
</a>
</g>
</g>
<!-- Node17 -->
<g id="Node000017" class="node">
<title>Node17</title>
<g id="a_Node000017"><a xlink:href="iop_2cdvd_2cdfs_2src_2irx__imports_8h_source.html" target="_top" xlink:title=" ">
<polygon fill="white" stroke="#666666" points="976.88,-230 873.12,-230 873.12,-199.5 976.88,-199.5 976.88,-230"/>
<text text-anchor="start" x="881.12" y="-216.5" font-family="Helvetica,sans-Serif" font-size="10.00">iop/cdvd/cdfs/src/irx</text>
<text text-anchor="middle" x="925" y="-205.25" font-family="Helvetica,sans-Serif" font-size="10.00">_imports.h</text>
</a>
</g>
</g>
<!-- Node1&#45;&gt;Node17 -->
<g id="edge17_Node000001_Node000017" class="edge">
<title>Node1&#45;&gt;Node17</title>
<g id="a_edge17_Node000001_Node000017"><a xlink:title=" ">
<path fill="none" stroke="#63b8ff" d="M2239.64,-279.29C1994.76,-275.91 1230.87,-262.92 986,-230 983.09,-229.61 980.11,-229.14 977.12,-228.62"/>
<polygon fill="#63b8ff" stroke="#63b8ff" points="2239.34,-282.79 2249.39,-279.42 2239.44,-275.79 2239.34,-282.79"/>
</a>
</g>
</g>
<!-- Node18 -->
<g id="Node000018" class="node">
<title>Node18</title>
<g id="a_Node000018"><a xlink:href="iop_2cdvd_2cdvdfsv_2src_2irx__imports_8h_source.html" target="_top" xlink:title=" ">
<polygon fill="white" stroke="#666666" points="1101.38,-230 994.62,-230 994.62,-199.5 1101.38,-199.5 1101.38,-230"/>
<text text-anchor="start" x="1002.62" y="-216.5" font-family="Helvetica,sans-Serif" font-size="10.00">iop/cdvd/cdvdfsv/src</text>
<text text-anchor="middle" x="1048" y="-205.25" font-family="Helvetica,sans-Serif" font-size="10.00">/irx_imports.h</text>
</a>
</g>
</g>
<!-- Node1&#45;&gt;Node18 -->
<g id="edge18_Node000001_Node000018" class="edge">
<title>Node1&#45;&gt;Node18</title>
<g id="a_edge18_Node000001_Node000018"><a xlink:title=" ">
<path fill="none" stroke="#63b8ff" d="M2239.83,-278.91C2010.66,-274.6 1329.81,-259.58 1110,-230 1107.26,-229.63 1104.47,-229.2 1101.66,-228.72"/>
<polygon fill="#63b8ff" stroke="#63b8ff" points="2239.47,-282.41 2249.53,-279.09 2239.6,-275.41 2239.47,-282.41"/>
</a>
</g>
</g>
<!-- Node20 -->
<g id="Node000020" class="node">
<title>Node20</title>
<g id="a_Node000020"><a xlink:href="cdvdman_8c_source.html" target="_top" xlink:title=" ">
<polygon fill="white" stroke="#666666" points="1231,-230 1119,-230 1119,-199.5 1231,-199.5 1231,-230"/>
<text text-anchor="start" x="1127" y="-216.5" font-family="Helvetica,sans-Serif" font-size="10.00">iop/cdvd/cdvdman/src</text>
<text text-anchor="middle" x="1175" y="-205.25" font-family="Helvetica,sans-Serif" font-size="10.00">/cdvdman.c</text>
</a>
</g>
</g>
<!-- Node1&#45;&gt;Node20 -->
<g id="edge20_Node000001_Node000020" class="edge">
<title>Node1&#45;&gt;Node20</title>
<g id="a_edge20_Node000001_Node000020"><a xlink:title=" ">
<path fill="none" stroke="#63b8ff" d="M2239.58,-281.1C2062.83,-282.11 1612.4,-279.16 1240,-230 1237.14,-229.62 1234.21,-229.18 1231.27,-228.7"/>
<polygon fill="#63b8ff" stroke="#63b8ff" points="2239.59,-284.6 2249.56,-281.04 2239.54,-277.6 2239.59,-284.6"/>
</a>
</g>
</g>
<!-- Node21 -->
<g id="Node000021" class="node">
<title>Node21</title>
<g id="a_Node000021"><a xlink:href="iop_2cdvd_2cdvdstm_2src_2irx__imports_8h_source.html" target="_top" xlink:title=" ">
<polygon fill="white" stroke="#666666" points="1358.88,-230 1249.12,-230 1249.12,-199.5 1358.88,-199.5 1358.88,-230"/>
<text text-anchor="start" x="1257.12" y="-216.5" font-family="Helvetica,sans-Serif" font-size="10.00">iop/cdvd/cdvdstm/src</text>
<text text-anchor="middle" x="1304" y="-205.25" font-family="Helvetica,sans-Serif" font-size="10.00">/irx_imports.h</text>
</a>
</g>
</g>
<!-- Node1&#45;&gt;Node21 -->
<g id="edge21_Node000001_Node000021" class="edge">
<title>Node1&#45;&gt;Node21</title>
<g id="a_edge21_Node000001_Node000021"><a xlink:title=" ">
<path fill="none" stroke="#63b8ff" d="M2239.76,-280.49C2078.23,-280.06 1689.92,-274.06 1368,-230 1365.07,-229.6 1362.07,-229.13 1359.05,-228.62"/>
<polygon fill="#63b8ff" stroke="#63b8ff" points="2239.48,-283.99 2249.48,-280.51 2239.49,-276.99 2239.48,-283.99"/>
</a>
</g>
</g>
<!-- Node23 -->
<g id="Node000023" class="node">
<title>Node23</title>
<g id="a_Node000023"><a xlink:href="iop_2cdvd_2poffsim_2src_2irx__imports_8h_source.html" target="_top" xlink:title=" ">
<polygon fill="white" stroke="#666666" points="1480.88,-230 1377.12,-230 1377.12,-199.5 1480.88,-199.5 1480.88,-230"/>
<text text-anchor="start" x="1385.12" y="-216.5" font-family="Helvetica,sans-Serif" font-size="10.00">iop/cdvd/poffsim/src</text>
<text text-anchor="middle" x="1429" y="-205.25" font-family="Helvetica,sans-Serif" font-size="10.00">/irx_imports.h</text>
</a>
</g>
</g>
<!-- Node1&#45;&gt;Node23 -->
<g id="edge23_Node000001_Node000023" class="edge">
<title>Node1&#45;&gt;Node23</title>
<g id="a_edge23_Node000001_Node000023"><a xlink:title=" ">
<path fill="none" stroke="#63b8ff" d="M2239.62,-279.89C2093.34,-278.27 1763.88,-270.03 1490,-230 1487.09,-229.58 1484.12,-229.08 1481.13,-228.54"/>
<polygon fill="#63b8ff" stroke="#63b8ff" points="2239.55,-283.39 2249.58,-280 2239.62,-276.39 2239.55,-283.39"/>
</a>
</g>
</g>
<!-- Node25 -->
<g id="Node000025" class="node">
<title>Node25</title>
<g id="a_Node000025"><a xlink:href="iop_2debug_2iop__sbusdbg_2src_2irx__imports_8h_source.html" target="_top" xlink:title=" ">
<polygon fill="white" stroke="#666666" points="1614.88,-230 1499.12,-230 1499.12,-199.5 1614.88,-199.5 1614.88,-230"/>
<text text-anchor="start" x="1507.12" y="-216.5" font-family="Helvetica,sans-Serif" font-size="10.00">iop/debug/iop_sbusdbg</text>
<text text-anchor="middle" x="1557" y="-205.25" font-family="Helvetica,sans-Serif" font-size="10.00">/src/irx_imports.h</text>
</a>
</g>
</g>
<!-- Node1&#45;&gt;Node25 -->
<g id="edge25_Node000001_Node000025" class="edge">
<title>Node1&#45;&gt;Node25</title>
<g id="a_edge25_Node000001_Node000025"><a xlink:title=" ">
<path fill="none" stroke="#63b8ff" d="M2240.11,-278.14C2112.37,-273.83 1846.56,-261.6 1624,-230 1621.06,-229.58 1618.05,-229.11 1615.02,-228.6"/>
<polygon fill="#63b8ff" stroke="#63b8ff" points="2239.67,-281.63 2249.78,-278.46 2239.9,-274.63 2239.67,-281.63"/>
</a>
</g>
</g>
<!-- Node26 -->
<g id="Node000026" class="node">
<title>Node26</title>
<g id="a_Node000026"><a xlink:href="iop_2debug_2iopdebug_2src_2irx__imports_8h_source.html" target="_top" xlink:title=" ">
<polygon fill="white" stroke="#666666" points="1733,-230 1633,-230 1633,-199.5 1733,-199.5 1733,-230"/>
<text text-anchor="start" x="1641" y="-216.5" font-family="Helvetica,sans-Serif" font-size="10.00">iop/debug/iopdebug</text>
<text text-anchor="middle" x="1683" y="-205.25" font-family="Helvetica,sans-Serif" font-size="10.00">/src/irx_imports.h</text>
</a>
</g>
</g>
<!-- Node1&#45;&gt;Node26 -->
<g id="edge26_Node000001_Node000026" class="edge">
<title>Node1&#45;&gt;Node26</title>
<g id="a_edge26_Node000001_Node000026"><a xlink:title=" ">
<path fill="none" stroke="#63b8ff" d="M2239.71,-277.21C2129.31,-271.98 1918.87,-258.93 1742,-230 1739.19,-229.54 1736.32,-229.02 1733.43,-228.46"/>
<polygon fill="#63b8ff" stroke="#63b8ff" points="2239.38,-280.7 2249.53,-277.66 2239.71,-273.7 2239.38,-280.7"/>
</a>
</g>
</g>
<!-- Node27 -->
<g id="Node000027" class="node">
<title>Node27</title>
<g id="a_Node000027"><a xlink:href="iop_2fs_2bdmfs__fatfs_2src_2irx__imports_8h_source.html" target="_top" xlink:title=" ">
<polygon fill="white" stroke="#666666" points="1845.38,-230 1750.62,-230 1750.62,-199.5 1845.38,-199.5 1845.38,-230"/>
<text text-anchor="start" x="1758.62" y="-216.5" font-family="Helvetica,sans-Serif" font-size="10.00">iop/fs/bdmfs_fatfs</text>
<text text-anchor="middle" x="1798" y="-205.25" font-family="Helvetica,sans-Serif" font-size="10.00">/src/irx_imports.h</text>
</a>
</g>
</g>
<!-- Node1&#45;&gt;Node27 -->
<g id="edge27_Node000001_Node000027" class="edge">
<title>Node1&#45;&gt;Node27</title>
<g id="a_edge27_Node000001_Node000027"><a xlink:title=" ">
<path fill="none" stroke="#63b8ff" d="M2239.68,-275.14C2147.88,-268.25 1989.34,-254 1855,-230 1851.99,-229.46 1848.9,-228.85 1845.79,-228.2"/>
<polygon fill="#63b8ff" stroke="#63b8ff" points="2239.35,-278.62 2249.58,-275.87 2239.86,-271.64 2239.35,-278.62"/>
</a>
</g>
</g>
<!-- Node28 -->
<g id="Node000028" class="node">
<title>Node28</title>
<g id="a_Node000028"><a xlink:href="iop_2fs_2bdmfs__fatfs_2src_2main_8c_source.html" target="_top" xlink:title=" ">
<polygon fill="white" stroke="#666666" points="1958.38,-230 1863.62,-230 1863.62,-199.5 1958.38,-199.5 1958.38,-230"/>
<text text-anchor="start" x="1871.62" y="-216.5" font-family="Helvetica,sans-Serif" font-size="10.00">iop/fs/bdmfs_fatfs</text>
<text text-anchor="middle" x="1911" y="-205.25" font-family="Helvetica,sans-Serif" font-size="10.00">/src/main.c</text>
</a>
</g>
</g>
<!-- Node1&#45;&gt;Node28 -->
<g id="edge28_Node000001_Node000028" class="edge">
<title>Node1&#45;&gt;Node28</title>
<g id="a_edge28_Node000001_Node000028"><a xlink:title=" ">
<path fill="none" stroke="#63b8ff" d="M2239.86,-271.52C2169.1,-262.87 2060.96,-248.28 1968,-230 1965,-229.41 1961.92,-228.76 1958.81,-228.08"/>
<polygon fill="#63b8ff" stroke="#63b8ff" points="2239.04,-274.94 2249.38,-272.67 2239.88,-267.99 2239.04,-274.94"/>
</a>
</g>
</g>
<!-- Node29 -->
<g id="Node000029" class="node">
<title>Node29</title>
<g id="a_Node000029"><a xlink:href="iop_2fs_2bdmfs__vfat_2src_2irx__imports_8h_source.html" target="_top" xlink:title=" ">
<polygon fill="white" stroke="#666666" points="2085.12,-230 1976.88,-230 1976.88,-199.5 2085.12,-199.5 2085.12,-230"/>
<text text-anchor="start" x="1984.88" y="-216.5" font-family="Helvetica,sans-Serif" font-size="10.00">iop/fs/bdmfs_vfat/src</text>
<text text-anchor="middle" x="2031" y="-205.25" font-family="Helvetica,sans-Serif" font-size="10.00">/irx_imports.h</text>
</a>
</g>
</g>
<!-- Node1&#45;&gt;Node29 -->
<g id="edge29_Node000001_Node000029" class="edge">
<title>Node1&#45;&gt;Node29</title>
<g id="a_edge29_Node000001_Node000029"><a xlink:title=" ">
<path fill="none" stroke="#63b8ff" d="M2239.84,-263.01C2191.08,-251.98 2128.99,-237.93 2085.22,-228.02"/>
<polygon fill="#63b8ff" stroke="#63b8ff" points="2238.97,-266.41 2249.5,-265.2 2240.52,-259.58 2238.97,-266.41"/>
</a>
</g>
</g>
<!-- Node30 -->
<g id="Node000030" class="node">
<title>Node30</title>
<g id="a_Node000030"><a xlink:href="fat__write_8c_source.html" target="_top" xlink:title=" ">
<polygon fill="white" stroke="#666666" points="2193.12,-230 2102.88,-230 2102.88,-199.5 2193.12,-199.5 2193.12,-230"/>
<text text-anchor="start" x="2110.88" y="-216.5" font-family="Helvetica,sans-Serif" font-size="10.00">iop/fs/vfat/src/fat</text>
<text text-anchor="middle" x="2148" y="-205.25" font-family="Helvetica,sans-Serif" font-size="10.00">_write.c</text>
</a>
</g>
</g>
<!-- Node1&#45;&gt;Node30 -->
<g id="edge30_Node000001_Node000030" class="edge">
<title>Node1&#45;&gt;Node30</title>
<g id="a_edge30_Node000001_Node000030"><a xlink:title=" ">
<path fill="none" stroke="#63b8ff" d="M2267.2,-261.51C2241.43,-251.62 2210.26,-239.65 2186.26,-230.44"/>
<polygon fill="#63b8ff" stroke="#63b8ff" points="2265.88,-264.75 2276.47,-265.07 2268.38,-258.22 2265.88,-264.75"/>
</a>
</g>
</g>
<!-- Node31 -->
<g id="Node000031" class="node">
<title>Node31</title>
<g id="a_Node000031"><a xlink:href="iop_2hdd_2apa_2src_2irx__imports_8h_source.html" target="_top" xlink:title=" ">
<polygon fill="white" stroke="#666666" points="2306.75,-230 2211.25,-230 2211.25,-199.5 2306.75,-199.5 2306.75,-230"/>
<text text-anchor="start" x="2219.25" y="-216.5" font-family="Helvetica,sans-Serif" font-size="10.00">iop/hdd/apa/src/irx</text>
<text text-anchor="middle" x="2259" y="-205.25" font-family="Helvetica,sans-Serif" font-size="10.00">_imports.h</text>
</a>
</g>
</g>
<!-- Node1&#45;&gt;Node31 -->
<g id="edge31_Node000001_Node000031" class="edge">
<title>Node1&#45;&gt;Node31</title>
<g id="a_edge31_Node000001_Node000031"><a xlink:title=" ">
<path fill="none" stroke="#63b8ff" d="M2295.57,-257.13C2287.67,-248.19 2278.87,-238.24 2271.88,-230.33"/>
<polygon fill="#63b8ff" stroke="#63b8ff" points="2292.82,-259.3 2302.06,-264.48 2298.06,-254.67 2292.82,-259.3"/>
</a>
</g>
</g>
<!-- Node32 -->
<g id="Node000032" class="node">
<title>Node32</title>
<g id="a_Node000032"><a xlink:href="iop_2hdd_2fsck_2src_2irx__imports_8h_source.html" target="_top" xlink:title=" ">
<polygon fill="white" stroke="#666666" points="2423.25,-230 2324.75,-230 2324.75,-199.5 2423.25,-199.5 2423.25,-230"/>
<text text-anchor="start" x="2332.75" y="-216.5" font-family="Helvetica,sans-Serif" font-size="10.00">iop/hdd/fsck/src/irx</text>
<text text-anchor="middle" x="2374" y="-205.25" font-family="Helvetica,sans-Serif" font-size="10.00">_imports.h</text>
</a>
</g>
</g>
<!-- Node1&#45;&gt;Node32 -->
<g id="edge32_Node000001_Node000032" class="edge">
<title>Node1&#45;&gt;Node32</title>
<g id="a_edge32_Node000001_Node000032"><a xlink:title=" ">
<path fill="none" stroke="#63b8ff" d="M2336.79,-257.13C2344.83,-248.19 2353.78,-238.24 2360.89,-230.33"/>
<polygon fill="#63b8ff" stroke="#63b8ff" points="2334.26,-254.71 2330.17,-264.49 2339.46,-259.39 2334.26,-254.71"/>
</a>
</g>
</g>
<!-- Node33 -->
<g id="Node000033" class="node">
<title>Node33</title>
<g id="a_Node000033"><a xlink:href="iop_2hdd_2fssk_2src_2irx__imports_8h_source.html" target="_top" xlink:title=" ">
<polygon fill="white" stroke="#666666" points="2540.25,-230 2441.75,-230 2441.75,-199.5 2540.25,-199.5 2540.25,-230"/>
<text text-anchor="start" x="2449.75" y="-216.5" font-family="Helvetica,sans-Serif" font-size="10.00">iop/hdd/fssk/src/irx</text>
<text text-anchor="middle" x="2491" y="-205.25" font-family="Helvetica,sans-Serif" font-size="10.00">_imports.h</text>
</a>
</g>
</g>
<!-- Node1&#45;&gt;Node33 -->
<g id="edge33_Node000001_Node000033" class="edge">
<title>Node1&#45;&gt;Node33</title>
<g id="a_edge33_Node000001_Node000033"><a xlink:title=" ">
<path fill="none" stroke="#63b8ff" d="M2366.47,-261.65C2393.39,-251.73 2426.03,-239.7 2451.14,-230.44"/>
<polygon fill="#63b8ff" stroke="#63b8ff" points="2365.3,-258.35 2357.13,-265.09 2367.72,-264.92 2365.3,-258.35"/>
</a>
</g>
</g>
<!-- Node34 -->
<g id="Node000034" class="node">
<title>Node34</title>
<g id="a_Node000034"><a xlink:href="iop_2hdd_2hdck_2src_2irx__imports_8h_source.html" target="_top" xlink:title=" ">
<polygon fill="white" stroke="#666666" points="2659.38,-230 2558.62,-230 2558.62,-199.5 2659.38,-199.5 2659.38,-230"/>
<text text-anchor="start" x="2566.62" y="-216.5" font-family="Helvetica,sans-Serif" font-size="10.00">iop/hdd/hdck/src/irx</text>
<text text-anchor="middle" x="2609" y="-205.25" font-family="Helvetica,sans-Serif" font-size="10.00">_imports.h</text>
</a>
</g>
</g>
<!-- Node1&#45;&gt;Node34 -->
<g id="edge34_Node000001_Node000034" class="edge">
<title>Node1&#45;&gt;Node34</title>
<g id="a_edge34_Node000001_Node000034"><a xlink:title=" ">
<path fill="none" stroke="#63b8ff" d="M2391.85,-264.31C2437.45,-254.62 2496.62,-241.87 2549,-230 2552.03,-229.31 2555.14,-228.6 2558.28,-227.87"/>
<polygon fill="#63b8ff" stroke="#63b8ff" points="2391.4,-260.83 2382.34,-266.32 2392.85,-267.67 2391.4,-260.83"/>
</a>
</g>
</g>
<!-- Node35 -->
<g id="Node000035" class="node">
<title>Node35</title>
<g id="a_Node000035"><a xlink:href="iop_2hdd_2hdsk_2src_2irx__imports_8h_source.html" target="_top" xlink:title=" ">
<polygon fill="white" stroke="#666666" points="2778.38,-230 2677.62,-230 2677.62,-199.5 2778.38,-199.5 2778.38,-230"/>
<text text-anchor="start" x="2685.62" y="-216.5" font-family="Helvetica,sans-Serif" font-size="10.00">iop/hdd/hdsk/src/irx</text>
<text text-anchor="middle" x="2728" y="-205.25" font-family="Helvetica,sans-Serif" font-size="10.00">_imports.h</text>
</a>
</g>
</g>
<!-- Node1&#45;&gt;Node35 -->
<g id="edge35_Node000001_Node000035" class="edge">
<title>Node1&#45;&gt;Node35</title>
<g id="a_edge35_Node000001_Node000035"><a xlink:title=" ">
<path fill="none" stroke="#63b8ff" d="M2391.99,-271.44C2463.5,-262.67 2573.44,-247.94 2668,-230 2671.05,-229.42 2674.18,-228.79 2677.33,-228.13"/>
<polygon fill="#63b8ff" stroke="#63b8ff" points="2391.85,-267.93 2382.35,-272.61 2392.7,-274.88 2391.85,-267.93"/>
</a>
</g>
</g>
<!-- Node36 -->
<g id="Node000036" class="node">
<title>Node36</title>
<g id="a_Node000036"><a xlink:href="iop_2hdd_2pfs_2src_2irx__imports_8h_source.html" target="_top" xlink:title=" ">
<polygon fill="white" stroke="#666666" points="2889.62,-230 2796.38,-230 2796.38,-199.5 2889.62,-199.5 2889.62,-230"/>
<text text-anchor="start" x="2804.38" y="-216.5" font-family="Helvetica,sans-Serif" font-size="10.00">iop/hdd/pfs/src/irx</text>
<text text-anchor="middle" x="2843" y="-205.25" font-family="Helvetica,sans-Serif" font-size="10.00">_imports.h</text>
</a>
</g>
</g>
<!-- Node1&#45;&gt;Node36 -->
<g id="edge36_Node000001_Node000036" class="edge">
<title>Node1&#45;&gt;Node36</title>
<g id="a_edge36_Node000001_Node000036"><a xlink:title=" ">
<path fill="none" stroke="#63b8ff" d="M2392.12,-275.49C2485.64,-268.87 2648.89,-254.81 2787,-230 2789.96,-229.47 2793,-228.86 2796.05,-228.21"/>
<polygon fill="#63b8ff" stroke="#63b8ff" points="2392.03,-271.99 2382.3,-276.17 2392.52,-278.97 2392.03,-271.99"/>
</a>
</g>
</g>
<!-- Node37 -->
<g id="Node000037" class="node">
<title>Node37</title>
<g id="a_Node000037"><a xlink:href="iop_2i_link_2_i_e_e_e1394__bd_2src_2irx__imports_8h_source.html" target="_top" xlink:title=" ">
<polygon fill="white" stroke="#666666" points="3014,-230 2908,-230 2908,-199.5 3014,-199.5 3014,-230"/>
<text text-anchor="start" x="2916" y="-216.5" font-family="Helvetica,sans-Serif" font-size="10.00">iop/iLink/IEEE1394</text>
<text text-anchor="middle" x="2961" y="-205.25" font-family="Helvetica,sans-Serif" font-size="10.00">_bd/src/irx_imports.h</text>
</a>
</g>
</g>
<!-- Node1&#45;&gt;Node37 -->
<g id="edge37_Node000001_Node000037" class="edge">
<title>Node1&#45;&gt;Node37</title>
<g id="a_edge37_Node000001_Node000037"><a xlink:title=" ">
<path fill="none" stroke="#63b8ff" d="M2392.54,-277.07C2504.37,-271.65 2718.71,-258.35 2899,-230 2901.84,-229.55 2904.74,-229.05 2907.66,-228.51"/>
<polygon fill="#63b8ff" stroke="#63b8ff" points="2392.4,-273.57 2382.57,-277.54 2392.73,-280.57 2392.4,-273.57"/>
</a>
</g>
</g>
<!-- Node38 -->
<g id="Node000038" class="node">
<title>Node38</title>
<g id="a_Node000038"><a xlink:href="iop_2i_link_2_i_e_e_e1394__disk_2src_2irx__imports_8h_source.html" target="_top" xlink:title=" ">
<polygon fill="white" stroke="#666666" points="3145.75,-230 3032.25,-230 3032.25,-199.5 3145.75,-199.5 3145.75,-230"/>
<text text-anchor="start" x="3040.25" y="-216.5" font-family="Helvetica,sans-Serif" font-size="10.00">iop/iLink/IEEE1394</text>
<text text-anchor="middle" x="3089" y="-205.25" font-family="Helvetica,sans-Serif" font-size="10.00">_disk/src/irx_imports.h</text>
</a>
</g>
</g>
<!-- Node1&#45;&gt;Node38 -->
<g id="edge38_Node000001_Node000038" class="edge">
<title>Node1&#45;&gt;Node38</title>
<g id="a_edge38_Node000001_Node000038"><a xlink:title=" ">
<path fill="none" stroke="#63b8ff" d="M2392.03,-278.38C2521.95,-274.39 2794.78,-262.58 3023,-230 3025.9,-229.59 3028.87,-229.12 3031.85,-228.61"/>
<polygon fill="#63b8ff" stroke="#63b8ff" points="2392.07,-274.87 2382.18,-278.67 2392.28,-281.87 2392.07,-274.87"/>
</a>
</g>
</g>
<!-- Node39 -->
<g id="Node000039" class="node">
<title>Node39</title>
<g id="a_Node000039"><a xlink:href="i_link__internal_8c_source.html" target="_top" xlink:title=" ">
<polygon fill="white" stroke="#666666" points="3264.38,-230 3163.62,-230 3163.62,-199.5 3264.38,-199.5 3264.38,-230"/>
<text text-anchor="start" x="3171.62" y="-216.5" font-family="Helvetica,sans-Serif" font-size="10.00">iop/iLink/iLinkman</text>
<text text-anchor="middle" x="3214" y="-205.25" font-family="Helvetica,sans-Serif" font-size="10.00">/src/iLink_internal.c</text>
</a>
</g>
</g>
<!-- Node1&#45;&gt;Node39 -->
<g id="edge39_Node000001_Node000039" class="edge">
<title>Node1&#45;&gt;Node39</title>
<g id="a_edge39_Node000001_Node000039"><a xlink:title=" ">
<path fill="none" stroke="#63b8ff" d="M2392.04,-280.19C2539.87,-279.08 2875.98,-271.71 3155,-230 3157.71,-229.59 3160.48,-229.13 3163.26,-228.61"/>
<polygon fill="#63b8ff" stroke="#63b8ff" points="2392.37,-276.69 2382.39,-280.25 2392.41,-283.69 2392.37,-276.69"/>
</a>
</g>
</g>
<!-- Node40 -->
<g id="Node000040" class="node">
<title>Node40</title>
<g id="a_Node000040"><a xlink:href="iop_2i_link_2i_linkman_2src_2irx__imports_8h_source.html" target="_top" xlink:title=" ">
<polygon fill="white" stroke="#666666" points="3377.75,-230 3282.25,-230 3282.25,-199.5 3377.75,-199.5 3377.75,-230"/>
<text text-anchor="start" x="3290.25" y="-216.5" font-family="Helvetica,sans-Serif" font-size="10.00">iop/iLink/iLinkman</text>
<text text-anchor="middle" x="3330" y="-205.25" font-family="Helvetica,sans-Serif" font-size="10.00">/src/irx_imports.h</text>
</a>
</g>
</g>
<!-- Node1&#45;&gt;Node40 -->
<g id="edge40_Node000001_Node000040" class="edge">
<title>Node1&#45;&gt;Node40</title>
<g id="a_edge40_Node000001_Node000040"><a xlink:title=" ">
<path fill="none" stroke="#63b8ff" d="M2392.15,-278.15C2587.63,-272.44 3103.61,-255.38 3273,-230 3275.93,-229.56 3278.92,-229.04 3281.93,-228.46"/>
<polygon fill="#63b8ff" stroke="#63b8ff" points="2392.27,-274.64 2382.37,-278.43 2392.47,-281.64 2392.27,-274.64"/>
</a>
</g>
</g>
<!-- Node41 -->
<g id="Node000041" class="node">
<title>Node41</title>
<g id="a_Node000041"><a xlink:href="iop_2memorycard_2mcman_2src_2irx__imports_8h_source.html" target="_top" xlink:title=" ">
<polygon fill="white" stroke="#666666" points="3516.12,-230 3395.88,-230 3395.88,-199.5 3516.12,-199.5 3516.12,-230"/>
<text text-anchor="start" x="3403.88" y="-216.5" font-family="Helvetica,sans-Serif" font-size="10.00">iop/memorycard/mcman</text>
<text text-anchor="middle" x="3456" y="-205.25" font-family="Helvetica,sans-Serif" font-size="10.00">/src/irx_imports.h</text>
</a>
</g>
</g>
<!-- Node1&#45;&gt;Node41 -->
<g id="edge41_Node000001_Node000041" class="edge">
<title>Node1&#45;&gt;Node41</title>
<g id="a_edge41_Node000001_Node000041"><a xlink:title=" ">
<path fill="none" stroke="#63b8ff" d="M2392.34,-280.76C2568.41,-281.05 3016.27,-276.69 3387,-230 3389.79,-229.65 3392.64,-229.25 3395.51,-228.8"/>
<polygon fill="#63b8ff" stroke="#63b8ff" points="2392.41,-277.26 2382.4,-280.74 2392.4,-284.26 2392.41,-277.26"/>
</a>
</g>
</g>
<!-- Node42 -->
<g id="Node000042" class="node">
<title>Node42</title>
<g id="a_Node000042"><a xlink:href="_mecha_auth_8c_source.html" target="_top" xlink:title=" ">
<polygon fill="white" stroke="#666666" points="3640,-230 3534,-230 3534,-199.5 3640,-199.5 3640,-230"/>
<text text-anchor="start" x="3542" y="-216.5" font-family="Helvetica,sans-Serif" font-size="10.00">iop/security/secrman</text>
<text text-anchor="middle" x="3587" y="-205.25" font-family="Helvetica,sans-Serif" font-size="10.00">/src/MechaAuth.c</text>
</a>
</g>
</g>
<!-- Node1&#45;&gt;Node42 -->
<g id="edge42_Node000001_Node000042" class="edge">
<title>Node1&#45;&gt;Node42</title>
<g id="a_edge42_Node000001_Node000042"><a xlink:title=" ">
<path fill="none" stroke="#63b8ff" d="M2392.36,-278.92C2622.1,-274.62 3304.64,-259.64 3525,-230 3527.85,-229.62 3530.75,-229.17 3533.68,-228.66"/>
<polygon fill="#63b8ff" stroke="#63b8ff" points="2392.56,-275.41 2382.63,-279.1 2392.69,-282.41 2392.56,-275.41"/>
</a>
</g>
</g>
<!-- Node43 -->
<g id="Node000043" class="node">
<title>Node43</title>
<g id="a_Node000043"><a xlink:href="iop_2security_2secrman_2src_2irx__imports_8h_source.html" target="_top" xlink:title=" ">
<polygon fill="white" stroke="#666666" points="3764,-230 3658,-230 3658,-199.5 3764,-199.5 3764,-230"/>
<text text-anchor="start" x="3666" y="-216.5" font-family="Helvetica,sans-Serif" font-size="10.00">iop/security/secrman</text>
<text text-anchor="middle" x="3711" y="-205.25" font-family="Helvetica,sans-Serif" font-size="10.00">/src/irx_imports.h</text>
</a>
</g>
</g>
<!-- Node1&#45;&gt;Node43 -->
<g id="edge43_Node000001_Node000043" class="edge">
<title>Node1&#45;&gt;Node43</title>
<g id="a_edge43_Node000001_Node000043"><a xlink:title=" ">
<path fill="none" stroke="#63b8ff" d="M2392.1,-279.26C2637.06,-275.8 3403.37,-262.56 3649,-230 3651.85,-229.62 3654.75,-229.17 3657.68,-228.68"/>
<polygon fill="#63b8ff" stroke="#63b8ff" points="2392.3,-275.76 2382.35,-279.4 2392.4,-282.76 2392.3,-275.76"/>
</a>
</g>
</g>
<!-- Node44 -->
<g id="Node000044" class="node">
<title>Node44</title>
<g id="a_Node000044"><a xlink:href="cdrom_8c.html" target="_top" xlink:title=" ">
<polygon fill="white" stroke="#666666" points="3888.38,-230 3781.62,-230 3781.62,-199.5 3888.38,-199.5 3888.38,-230"/>
<text text-anchor="start" x="3789.62" y="-216.5" font-family="Helvetica,sans-Serif" font-size="10.00">iop/sound/audsrv/src</text>
<text text-anchor="middle" x="3835" y="-205.25" font-family="Helvetica,sans-Serif" font-size="10.00">/cdrom.c</text>
</a>
</g>
</g>
<!-- Node1&#45;&gt;Node44 -->
<g id="edge44_Node000001_Node000044" class="edge">
<title>Node1&#45;&gt;Node44</title>
<g id="a_edge44_Node000001_Node000044"><a xlink:title=" ">
<path fill="none" stroke="#63b8ff" d="M2392.05,-279.55C2651.71,-276.85 3502.07,-265.47 3773,-230 3775.74,-229.64 3778.53,-229.22 3781.35,-228.74"/>
<polygon fill="#63b8ff" stroke="#63b8ff" points="2392.34,-276.05 2382.38,-279.65 2392.42,-283.05 2392.34,-276.05"/>
</a>
</g>
</g>
<!-- Node45 -->
<g id="Node000045" class="node">
<title>Node45</title>
<g id="a_Node000045"><a xlink:href="iop_2sound_2audsrv_2src_2irx__imports_8h_source.html" target="_top" xlink:title=" ">
<polygon fill="white" stroke="#666666" points="4013.38,-230 3906.62,-230 3906.62,-199.5 4013.38,-199.5 4013.38,-230"/>
<text text-anchor="start" x="3914.62" y="-216.5" font-family="Helvetica,sans-Serif" font-size="10.00">iop/sound/audsrv/src</text>
<text text-anchor="middle" x="3960" y="-205.25" font-family="Helvetica,sans-Serif" font-size="10.00">/irx_imports.h</text>
</a>
</g>
</g>
<!-- Node1&#45;&gt;Node45 -->
<g id="edge45_Node000001_Node000045" class="edge">
<title>Node1&#45;&gt;Node45</title>
<g id="a_edge45_Node000001_Node000045"><a xlink:title=" ">
<path fill="none" stroke="#63b8ff" d="M2392.41,-279.75C2666.67,-277.66 3600.76,-267.86 3897,-230 3900,-229.62 3903.07,-229.15 3906.16,-228.64"/>
<polygon fill="#63b8ff" stroke="#63b8ff" points="2392.5,-276.25 2382.52,-279.83 2392.55,-283.25 2392.5,-276.25"/>
</a>
</g>
</g>
<!-- Node46 -->
<g id="Node000046" class="node">
<title>Node46</title>
<g id="a_Node000046"><a xlink:href="api_8c_source.html" target="_top" xlink:title=" ">
<polygon fill="white" stroke="#666666" points="4138.38,-230 4031.62,-230 4031.62,-199.5 4138.38,-199.5 4138.38,-230"/>
<text text-anchor="start" x="4039.62" y="-216.5" font-family="Helvetica,sans-Serif" font-size="10.00">iop/usb/usbhdfsd/src</text>
<text text-anchor="middle" x="4085" y="-205.25" font-family="Helvetica,sans-Serif" font-size="10.00">/api.c</text>
</a>
</g>
</g>
<!-- Node1&#45;&gt;Node46 -->
<g id="edge46_Node000001_Node000046" class="edge">
<title>Node1&#45;&gt;Node46</title>
<g id="a_edge46_Node000001_Node000046"><a xlink:title=" ">
<path fill="none" stroke="#63b8ff" d="M2392.15,-279.96C2679.78,-278.56 3700,-270.77 4022,-230 4025,-229.62 4028.07,-229.16 4031.17,-228.64"/>
<polygon fill="#63b8ff" stroke="#63b8ff" points="2392.51,-276.46 2382.53,-280.01 2392.55,-283.46 2392.51,-276.46"/>
</a>
</g>
</g>
<!-- Node47 -->
<g id="Node000047" class="node">
<title>Node47</title>
<g id="a_Node000047"><a xlink:href="iop_2usb_2usbhdfsd_2src_2irx__imports_8h_source.html" target="_top" xlink:title=" ">
<polygon fill="white" stroke="#666666" points="4263.38,-230 4156.62,-230 4156.62,-199.5 4263.38,-199.5 4263.38,-230"/>
<text text-anchor="start" x="4164.62" y="-216.5" font-family="Helvetica,sans-Serif" font-size="10.00">iop/usb/usbhdfsd/src</text>
<text text-anchor="middle" x="4210" y="-205.25" font-family="Helvetica,sans-Serif" font-size="10.00">/irx_imports.h</text>
</a>
</g>
</g>
<!-- Node1&#45;&gt;Node47 -->
<g id="edge47_Node000001_Node000047" class="edge">
<title>Node1&#45;&gt;Node47</title>
<g id="a_edge47_Node000001_Node000047"><a xlink:title=" ">
<path fill="none" stroke="#63b8ff" d="M2392.14,-280.14C2692.97,-279.39 3799.27,-273.67 4147,-230 4150,-229.62 4153.08,-229.17 4156.17,-228.65"/>
<polygon fill="#63b8ff" stroke="#63b8ff" points="2392.44,-276.64 2382.45,-280.16 2392.46,-283.64 2392.44,-276.64"/>
</a>
</g>
</g>
<!-- Node4 -->
<g id="Node000004" class="node">
<title>Node4</title>
<g id="a_Node000004"><a xlink:href="accdvd__internal_8h_source.html" target="_top" xlink:title=" ">
<polygon fill="white" stroke="#666666" points="502,-163.5 390,-163.5 390,-133 502,-133 502,-163.5"/>
<text text-anchor="start" x="398" y="-150" font-family="Helvetica,sans-Serif" font-size="10.00">iop/arcade/accdvd/src</text>
<text text-anchor="middle" x="446" y="-138.75" font-family="Helvetica,sans-Serif" font-size="10.00">/accdvd_internal.h</text>
</a>
</g>
</g>
<!-- Node3&#45;&gt;Node4 -->
<g id="edge3_Node000003_Node000004" class="edge">
<title>Node3&#45;&gt;Node4</title>
<g id="a_edge3_Node000003_Node000004"><a xlink:title=" ">
<path fill="none" stroke="#63b8ff" d="M579.12,-195.41C550.37,-185.44 515.29,-173.28 488.36,-163.94"/>
<polygon fill="#63b8ff" stroke="#63b8ff" points="577.77,-198.65 588.36,-198.62 580.06,-192.03 577.77,-198.65"/>
</a>
</g>
</g>
<!-- Node3&#45;&gt;Node11 -->
<g id="edge10_Node000003_Node000011" class="edge">
<title>Node3&#45;&gt;Node11</title>
<g id="a_edge10_Node000003_Node000011"><a xlink:title=" ">
<path fill="none" stroke="#63b8ff" d="M656.88,-191.46C667.09,-182.32 678.62,-171.98 687.73,-163.83"/>
<polygon fill="#63b8ff" stroke="#63b8ff" points="654.58,-188.82 649.47,-198.1 659.25,-194.04 654.58,-188.82"/>
</a>
</g>
</g>
<!-- Node5 -->
<g id="Node000005" class="node">
<title>Node5</title>
<g id="a_Node000005"><a xlink:href="accdvdi-entry_8c_source.html" target="_top" xlink:title=" ">
<polygon fill="white" stroke="#666666" points="112,-97 0,-97 0,-66.5 112,-66.5 112,-97"/>
<text text-anchor="start" x="8" y="-83.5" font-family="Helvetica,sans-Serif" font-size="10.00">iop/arcade/accdvd/src</text>
<text text-anchor="middle" x="56" y="-72.25" font-family="Helvetica,sans-Serif" font-size="10.00">/accdvdi&#45;entry.c</text>
</a>
</g>
</g>
<!-- Node4&#45;&gt;Node5 -->
<g id="edge4_Node000004_Node000005" class="edge">
<title>Node4&#45;&gt;Node5</title>
<g id="a_edge4_Node000004_Node000005"><a xlink:title=" ">
<path fill="none" stroke="#63b8ff" d="M378.7,-138.09C312.83,-128.84 209.73,-113.57 121,-97 118.16,-96.47 115.26,-95.91 112.33,-95.32"/>
<polygon fill="#63b8ff" stroke="#63b8ff" points="377.86,-141.51 388.25,-139.43 378.83,-134.58 377.86,-141.51"/>
</a>
</g>
</g>
<!-- Node6 -->
<g id="Node000006" class="node">
<title>Node6</title>
<g id="a_Node000006"><a xlink:href="acd_8c_source.html" target="_top" xlink:title=" ">
<polygon fill="white" stroke="#666666" points="242,-97 130,-97 130,-66.5 242,-66.5 242,-97"/>
<text text-anchor="start" x="138" y="-83.5" font-family="Helvetica,sans-Serif" font-size="10.00">iop/arcade/accdvd/src</text>
<text text-anchor="middle" x="186" y="-72.25" font-family="Helvetica,sans-Serif" font-size="10.00">/acd.c</text>
</a>
</g>
</g>
<!-- Node4&#45;&gt;Node6 -->
<g id="edge5_Node000004_Node000006" class="edge">
<title>Node4&#45;&gt;Node6</title>
<g id="a_edge5_Node000004_Node000006"><a xlink:title=" ">
<path fill="none" stroke="#63b8ff" d="M378.54,-130.51C336.23,-120.02 282.31,-106.64 242.31,-96.72"/>
<polygon fill="#63b8ff" stroke="#63b8ff" points="377.57,-133.88 388.11,-132.89 379.25,-127.09 377.57,-133.88"/>
</a>
</g>
</g>
<!-- Node7 -->
<g id="Node000007" class="node">
<title>Node7</title>
<g id="a_Node000007"><a xlink:href="cdc_8c_source.html" target="_top" xlink:title=" ">
<polygon fill="white" stroke="#666666" points="372,-97 260,-97 260,-66.5 372,-66.5 372,-97"/>
<text text-anchor="start" x="268" y="-83.5" font-family="Helvetica,sans-Serif" font-size="10.00">iop/arcade/accdvd/src</text>
<text text-anchor="middle" x="316" y="-72.25" font-family="Helvetica,sans-Serif" font-size="10.00">/cdc.c</text>
</a>
</g>
</g>
<!-- Node4&#45;&gt;Node7 -->
<g id="edge6_Node000004_Node000007" class="edge">
<title>Node4&#45;&gt;Node7</title>
<g id="a_edge6_Node000004_Node000007"><a xlink:title=" ">
<path fill="none" stroke="#63b8ff" d="M406.32,-127.56C386.68,-117.82 363.39,-106.26 345.38,-97.33"/>
<polygon fill="#63b8ff" stroke="#63b8ff" points="404.63,-130.63 415.15,-131.94 407.74,-124.36 404.63,-130.63"/>
</a>
</g>
</g>
<!-- Node8 -->
<g id="Node000008" class="node">
<title>Node8</title>
<g id="a_Node000008"><a xlink:href="cddrv_8c_source.html" target="_top" xlink:title=" ">
<polygon fill="white" stroke="#666666" points="502,-97 390,-97 390,-66.5 502,-66.5 502,-97"/>
<text text-anchor="start" x="398" y="-83.5" font-family="Helvetica,sans-Serif" font-size="10.00">iop/arcade/accdvd/src</text>
<text text-anchor="middle" x="446" y="-72.25" font-family="Helvetica,sans-Serif" font-size="10.00">/cddrv.c</text>
</a>
</g>
</g>
<!-- Node4&#45;&gt;Node8 -->
<g id="edge7_Node000004_Node000008" class="edge">
<title>Node4&#45;&gt;Node8</title>
<g id="a_edge7_Node000004_Node000008"><a xlink:title=" ">
<path fill="none" stroke="#63b8ff" d="M446,-121.31C446,-113.14 446,-104.41 446,-97.33"/>
<polygon fill="#63b8ff" stroke="#63b8ff" points="442.5,-121.1 446,-131.1 449.5,-121.1 442.5,-121.1"/>
</a>
</g>
</g>
<!-- Node9 -->
<g id="Node000009" class="node">
<title>Node9</title>
<g id="a_Node000009"><a xlink:href="cdfs_8c_source.html" target="_top" xlink:title=" ">
<polygon fill="white" stroke="#666666" points="632,-97 520,-97 520,-66.5 632,-66.5 632,-97"/>
<text text-anchor="start" x="528" y="-83.5" font-family="Helvetica,sans-Serif" font-size="10.00">iop/arcade/accdvd/src</text>
<text text-anchor="middle" x="576" y="-72.25" font-family="Helvetica,sans-Serif" font-size="10.00">/cdfs.c</text>
</a>
</g>
</g>
<!-- Node4&#45;&gt;Node9 -->
<g id="edge8_Node000004_Node000009" class="edge">
<title>Node4&#45;&gt;Node9</title>
<g id="a_edge8_Node000004_Node000009"><a xlink:title=" ">
<path fill="none" stroke="#63b8ff" d="M485.68,-127.56C505.32,-117.82 528.61,-106.26 546.62,-97.33"/>
<polygon fill="#63b8ff" stroke="#63b8ff" points="484.26,-124.36 476.85,-131.94 487.37,-130.63 484.26,-124.36"/>
</a>
</g>
</g>
<!-- Node10 -->
<g id="Node000010" class="node">
<title>Node10</title>
<g id="a_Node000010"><a xlink:href="cdi_8c_source.html" target="_top" xlink:title=" ">
<polygon fill="white" stroke="#666666" points="762,-97 650,-97 650,-66.5 762,-66.5 762,-97"/>
<text text-anchor="start" x="658" y="-83.5" font-family="Helvetica,sans-Serif" font-size="10.00">iop/arcade/accdvd/src</text>
<text text-anchor="middle" x="706" y="-72.25" font-family="Helvetica,sans-Serif" font-size="10.00">/cdi.c</text>
</a>
</g>
</g>
<!-- Node4&#45;&gt;Node10 -->
<g id="edge9_Node000004_Node000010" class="edge">
<title>Node4&#45;&gt;Node10</title>
<g id="a_edge9_Node000004_Node000010"><a xlink:title=" ">
<path fill="none" stroke="#63b8ff" d="M513.46,-130.51C555.77,-120.02 609.69,-106.64 649.69,-96.72"/>
<polygon fill="#63b8ff" stroke="#63b8ff" points="512.75,-127.09 503.89,-132.89 514.43,-133.88 512.75,-127.09"/>
</a>
</g>
</g>
<!-- Node12 -->
<g id="Node000012" class="node">
<title>Node12</title>
<g id="a_Node000012"><a xlink:href="accdvde__internal_8h_source.html" target="_top" xlink:title=" ">
<polygon fill="white" stroke="#666666" points="896.25,-97 779.75,-97 779.75,-66.5 896.25,-66.5 896.25,-97"/>
<text text-anchor="start" x="787.75" y="-83.5" font-family="Helvetica,sans-Serif" font-size="10.00">iop/arcade/accdvde</text>
<text text-anchor="middle" x="838" y="-72.25" font-family="Helvetica,sans-Serif" font-size="10.00">/src/accdvde_internal.h</text>
</a>
</g>
</g>
<!-- Node11&#45;&gt;Node12 -->
<g id="edge11_Node000011_Node000012" class="edge">
<title>Node11&#45;&gt;Node12</title>
<g id="a_edge11_Node000011_Node000012"><a xlink:title=" ">
<path fill="none" stroke="#63b8ff" d="M744.62,-127.7C764.92,-117.93 789.06,-106.31 807.71,-97.33"/>
<polygon fill="#63b8ff" stroke="#63b8ff" points="743.26,-124.47 735.77,-131.96 746.3,-130.77 743.26,-124.47"/>
</a>
</g>
</g>
<!-- Node13 -->
<g id="Node000013" class="node">
<title>Node13</title>
<g id="a_Node000013"><a xlink:href="accdvde-entry_8c_source.html" target="_top" xlink:title=" ">
<polygon fill="white" stroke="#666666" points="829.88,-30.5 726.12,-30.5 726.12,0 829.88,0 829.88,-30.5"/>
<text text-anchor="start" x="734.12" y="-17" font-family="Helvetica,sans-Serif" font-size="10.00">iop/arcade/accdvde</text>
<text text-anchor="middle" x="778" y="-5.75" font-family="Helvetica,sans-Serif" font-size="10.00">/src/accdvde&#45;entry.c</text>
</a>
</g>
</g>
<!-- Node12&#45;&gt;Node13 -->
<g id="edge12_Node000012_Node000013" class="edge">
<title>Node12&#45;&gt;Node13</title>
<g id="a_edge12_Node000012_Node000013"><a xlink:title=" ">
<path fill="none" stroke="#63b8ff" d="M816.75,-57.91C808.37,-48.9 798.99,-38.82 791.56,-30.83"/>
<polygon fill="#63b8ff" stroke="#63b8ff" points="813.98,-60.07 823.35,-65.01 819.11,-55.3 813.98,-60.07"/>
</a>
</g>
</g>
<!-- Node14 -->
<g id="Node000014" class="node">
<title>Node14</title>
<g id="a_Node000014"><a xlink:href="cde_8c_source.html" target="_top" xlink:title=" ">
<polygon fill="white" stroke="#666666" points="948.38,-30.5 847.62,-30.5 847.62,0 948.38,0 948.38,-30.5"/>
<text text-anchor="start" x="855.62" y="-17" font-family="Helvetica,sans-Serif" font-size="10.00">iop/arcade/accdvde</text>
<text text-anchor="middle" x="898" y="-5.75" font-family="Helvetica,sans-Serif" font-size="10.00">/src/cde.c</text>
</a>
</g>
</g>
<!-- Node12&#45;&gt;Node14 -->
<g id="edge13_Node000012_Node000014" class="edge">
<title>Node12&#45;&gt;Node14</title>
<g id="a_edge13_Node000012_Node000014"><a xlink:title=" ">
<path fill="none" stroke="#63b8ff" d="M859.25,-57.91C867.63,-48.9 877.01,-38.82 884.44,-30.83"/>
<polygon fill="#63b8ff" stroke="#63b8ff" points="856.89,-55.3 852.65,-65.01 862.02,-60.07 856.89,-55.3"/>
</a>
</g>
</g>
<!-- Node16 -->
<g id="Node000016" class="node">
<title>Node16</title>
<g id="a_Node000016"><a xlink:href="iopmain_8c_source.html" target="_top" xlink:title=" ">
<polygon fill="white" stroke="#666666" points="875.12,-163.5 772.88,-163.5 772.88,-133 875.12,-133 875.12,-163.5"/>
<text text-anchor="start" x="780.88" y="-150" font-family="Helvetica,sans-Serif" font-size="10.00">iop/arcade/acrtc/src</text>
<text text-anchor="middle" x="824" y="-138.75" font-family="Helvetica,sans-Serif" font-size="10.00">/iopmain.c</text>
</a>
</g>
</g>
<!-- Node15&#45;&gt;Node16 -->
<g id="edge16_Node000015_Node000016" class="edge">
<title>Node15&#45;&gt;Node16</title>
<g id="a_edge16_Node000015_Node000016"><a xlink:title=" ">
<path fill="none" stroke="#63b8ff" d="M811.87,-188.38C814.45,-180.05 817.23,-171.08 819.48,-163.83"/>
<polygon fill="#63b8ff" stroke="#63b8ff" points="808.61,-187.08 808.99,-197.67 815.29,-189.15 808.61,-187.08"/>
</a>
</g>
</g>
<!-- Node19 -->
<g id="Node000019" class="node">
<title>Node19</title>
<g id="a_Node000019"><a xlink:href="cdvdfsv_8c_source.html" target="_top" xlink:title=" ">
<polygon fill="white" stroke="#666666" points="1101.38,-163.5 994.62,-163.5 994.62,-133 1101.38,-133 1101.38,-163.5"/>
<text text-anchor="start" x="1002.62" y="-150" font-family="Helvetica,sans-Serif" font-size="10.00">iop/cdvd/cdvdfsv/src</text>
<text text-anchor="middle" x="1048" y="-138.75" font-family="Helvetica,sans-Serif" font-size="10.00">/cdvdfsv.c</text>
</a>
</g>
</g>
<!-- Node18&#45;&gt;Node19 -->
<g id="edge19_Node000018_Node000019" class="edge">
<title>Node18&#45;&gt;Node19</title>
<g id="a_edge19_Node000018_Node000019"><a xlink:title=" ">
<path fill="none" stroke="#63b8ff" d="M1048,-187.81C1048,-179.64 1048,-170.91 1048,-163.83"/>
<polygon fill="#63b8ff" stroke="#63b8ff" points="1044.5,-187.6 1048,-197.6 1051.5,-187.6 1044.5,-187.6"/>
</a>
</g>
</g>
<!-- Node22 -->
<g id="Node000022" class="node">
<title>Node22</title>
<g id="a_Node000022"><a xlink:href="cdvdstm_8c_source.html" target="_top" xlink:title=" ">
<polygon fill="white" stroke="#666666" points="1358.88,-163.5 1249.12,-163.5 1249.12,-133 1358.88,-133 1358.88,-163.5"/>
<text text-anchor="start" x="1257.12" y="-150" font-family="Helvetica,sans-Serif" font-size="10.00">iop/cdvd/cdvdstm/src</text>
<text text-anchor="middle" x="1304" y="-138.75" font-family="Helvetica,sans-Serif" font-size="10.00">/cdvdstm.c</text>
</a>
</g>
</g>
<!-- Node21&#45;&gt;Node22 -->
<g id="edge22_Node000021_Node000022" class="edge">
<title>Node21&#45;&gt;Node22</title>
<g id="a_edge22_Node000021_Node000022"><a xlink:title=" ">
<path fill="none" stroke="#63b8ff" d="M1304,-187.81C1304,-179.64 1304,-170.91 1304,-163.83"/>
<polygon fill="#63b8ff" stroke="#63b8ff" points="1300.5,-187.6 1304,-197.6 1307.5,-187.6 1300.5,-187.6"/>
</a>
</g>
</g>
<!-- Node24 -->
<g id="Node000024" class="node">
<title>Node24</title>
<g id="a_Node000024"><a xlink:href="iop_2cdvd_2poffsim_2src_2poweroff_8c_source.html" target="_top" xlink:title=" ">
<polygon fill="white" stroke="#666666" points="1480.88,-163.5 1377.12,-163.5 1377.12,-133 1480.88,-133 1480.88,-163.5"/>
<text text-anchor="start" x="1385.12" y="-150" font-family="Helvetica,sans-Serif" font-size="10.00">iop/cdvd/poffsim/src</text>
<text text-anchor="middle" x="1429" y="-138.75" font-family="Helvetica,sans-Serif" font-size="10.00">/poweroff.c</text>
</a>
</g>
</g>
<!-- Node23&#45;&gt;Node24 -->
<g id="edge24_Node000023_Node000024" class="edge">
<title>Node23&#45;&gt;Node24</title>
<g id="a_edge24_Node000023_Node000024"><a xlink:title=" ">
<path fill="none" stroke="#63b8ff" d="M1429,-187.81C1429,-179.64 1429,-170.91 1429,-163.83"/>
<polygon fill="#63b8ff" stroke="#63b8ff" points="1425.5,-187.6 1429,-197.6 1432.5,-187.6 1425.5,-187.6"/>
</a>
</g>
</g>
</g>
</svg>
