<?xml version="1.0" encoding="UTF-8" standalone="no"?>
<!DOCTYPE svg PUBLIC "-//W3C//DTD SVG 1.1//EN"
 "http://www.w3.org/Graphics/SVG/1.1/DTD/svg11.dtd">
<!-- Generated by graphviz version 9.0.0 (20230911.1827)
 -->
<!-- Title: iop/fs/devfs/include/devfs.h Pages: 1 -->
<svg width="159pt" height="204pt"
 viewBox="0.00 0.00 159.00 204.25" xmlns="http://www.w3.org/2000/svg" xmlns:xlink="http://www.w3.org/1999/xlink">
<g id="graph0" class="graph" transform="scale(1 1) rotate(0) translate(4 200.25)">
<title>iop/fs/devfs/include/devfs.h</title>
<!-- Node1 -->
<g id="Node000001" class="node">
<title>Node1</title>
<g id="a_Node000001"><a xlink:title=" ">
<polygon fill="#999999" stroke="#666666" points="102.75,-196.25 2,-196.25 2,-165.75 102.75,-165.75 102.75,-196.25"/>
<text text-anchor="start" x="10" y="-182.75" font-family="Helvetica,sans-Serif" font-size="10.00">iop/fs/devfs/include</text>
<text text-anchor="middle" x="52.38" y="-171.5" font-family="Helvetica,sans-Serif" font-size="10.00">/devfs.h</text>
</a>
</g>
</g>
<!-- Node2 -->
<g id="Node000002" class="node">
<title>Node2</title>
<g id="a_Node000002"><a xlink:title=" ">
<polygon fill="#e0e0e0" stroke="#999999" points="46.75,-129.75 0,-129.75 0,-110.5 46.75,-110.5 46.75,-129.75"/>
<text text-anchor="middle" x="23.38" y="-116.25" font-family="Helvetica,sans-Serif" font-size="10.00">types.h</text>
</a>
</g>
</g>
<!-- Node1&#45;&gt;Node2 -->
<g id="edge1_Node000001_Node000002" class="edge">
<title>Node1&#45;&gt;Node2</title>
<g id="a_edge1_Node000001_Node000002"><a xlink:title=" ">
<path fill="none" stroke="#63b8ff" d="M45.21,-165.45C41.47,-157.86 36.85,-148.49 32.83,-140.32"/>
<polygon fill="#63b8ff" stroke="#63b8ff" points="36.07,-138.98 28.51,-131.56 29.79,-142.08 36.07,-138.98"/>
</a>
</g>
</g>
<!-- Node3 -->
<g id="Node000003" class="node">
<title>Node3</title>
<g id="a_Node000003"><a xlink:href="irx_8h.html" target="_top" xlink:title=" ">
<polygon fill="white" stroke="#666666" points="98,-129.75 64.75,-129.75 64.75,-110.5 98,-110.5 98,-129.75"/>
<text text-anchor="middle" x="81.38" y="-116.25" font-family="Helvetica,sans-Serif" font-size="10.00">irx.h</text>
</a>
</g>
</g>
<!-- Node1&#45;&gt;Node3 -->
<g id="edge2_Node000001_Node000003" class="edge">
<title>Node1&#45;&gt;Node3</title>
<g id="a_edge2_Node000001_Node000003"><a xlink:title=" ">
<path fill="none" stroke="#63b8ff" d="M59.54,-165.45C63.28,-157.86 67.9,-148.49 71.92,-140.32"/>
<polygon fill="#63b8ff" stroke="#63b8ff" points="74.96,-142.08 76.24,-131.56 68.68,-138.98 74.96,-142.08"/>
</a>
</g>
</g>
<!-- Node4 -->
<g id="Node000004" class="node">
<title>Node4</title>
<g id="a_Node000004"><a xlink:href="iop_2kernel_2include_2types_8h_source.html" target="_top" xlink:title=" ">
<polygon fill="white" stroke="#666666" points="104.75,-74.5 58,-74.5 58,-55.25 104.75,-55.25 104.75,-74.5"/>
<text text-anchor="middle" x="81.38" y="-61" font-family="Helvetica,sans-Serif" font-size="10.00">types.h</text>
</a>
</g>
</g>
<!-- Node3&#45;&gt;Node4 -->
<g id="edge3_Node000003_Node000004" class="edge">
<title>Node3&#45;&gt;Node4</title>
<g id="a_edge3_Node000003_Node000004"><a xlink:title=" ">
<path fill="none" stroke="#63b8ff" d="M81.38,-110.33C81.38,-103.82 81.38,-94.67 81.38,-86.37"/>
<polygon fill="#63b8ff" stroke="#63b8ff" points="84.88,-86.37 81.38,-76.37 77.88,-86.37 84.88,-86.37"/>
</a>
</g>
</g>
<!-- Node5 -->
<g id="Node000005" class="node">
<title>Node5</title>
<g id="a_Node000005"><a xlink:title=" ">
<polygon fill="#e0e0e0" stroke="#999999" points="69.62,-19.25 19.12,-19.25 19.12,0 69.62,0 69.62,-19.25"/>
<text text-anchor="middle" x="44.38" y="-5.75" font-family="Helvetica,sans-Serif" font-size="10.00">stddef.h</text>
</a>
</g>
</g>
<!-- Node4&#45;&gt;Node5 -->
<g id="edge4_Node000004_Node000005" class="edge">
<title>Node4&#45;&gt;Node5</title>
<g id="a_edge4_Node000004_Node000005"><a xlink:title=" ">
<path fill="none" stroke="#63b8ff" d="M75.27,-55.08C70.31,-47.96 63.17,-37.68 57,-28.8"/>
<polygon fill="#63b8ff" stroke="#63b8ff" points="60.06,-27.07 51.48,-20.85 54.31,-31.06 60.06,-27.07"/>
</a>
</g>
</g>
<!-- Node6 -->
<g id="Node000006" class="node">
<title>Node6</title>
<g id="a_Node000006"><a xlink:href="tamtypes_8h.html" target="_top" xlink:title=" ">
<polygon fill="white" stroke="#666666" points="151,-19.25 87.75,-19.25 87.75,0 151,0 151,-19.25"/>
<text text-anchor="middle" x="119.38" y="-5.75" font-family="Helvetica,sans-Serif" font-size="10.00">tamtypes.h</text>
</a>
</g>
</g>
<!-- Node4&#45;&gt;Node6 -->
<g id="edge5_Node000004_Node000006" class="edge">
<title>Node4&#45;&gt;Node6</title>
<g id="a_edge5_Node000004_Node000006"><a xlink:title=" ">
<path fill="none" stroke="#63b8ff" d="M87.65,-55.08C92.73,-47.96 100.07,-37.68 106.41,-28.8"/>
<polygon fill="#63b8ff" stroke="#63b8ff" points="109.12,-31.01 112.08,-20.84 103.43,-26.95 109.12,-31.01"/>
</a>
</g>
</g>
</g>
</svg>
