<?xml version="1.0" encoding="UTF-8" standalone="no"?>
<!DOCTYPE svg PUBLIC "-//W3C//DTD SVG 1.1//EN"
 "http://www.w3.org/Graphics/SVG/1.1/DTD/svg11.dtd">
<!-- Generated by graphviz version 9.0.0 (20230911.1827)
 -->
<!-- Title: iop/fs/devfs/src/devfs.c Pages: 1 -->
<svg width="1017pt" height="248pt"
 viewBox="0.00 0.00 1017.25 248.25" xmlns="http://www.w3.org/2000/svg" xmlns:xlink="http://www.w3.org/1999/xlink">
<g id="graph0" class="graph" transform="scale(1 1) rotate(0) translate(4 244.25)">
<title>iop/fs/devfs/src/devfs.c</title>
<!-- Node1 -->
<g id="Node000001" class="node">
<title>Node1</title>
<g id="a_Node000001"><a xlink:title=" ">
<polygon fill="#999999" stroke="#666666" points="484.12,-240.25 366.12,-240.25 366.12,-221 484.12,-221 484.12,-240.25"/>
<text text-anchor="middle" x="425.12" y="-226.75" font-family="Helvetica,sans-Serif" font-size="10.00">iop/fs/devfs/src/devfs.c</text>
</a>
</g>
</g>
<!-- Node2 -->
<g id="Node000002" class="node">
<title>Node2</title>
<g id="a_Node000002"><a xlink:title=" ">
<polygon fill="#e0e0e0" stroke="#999999" points="114.5,-129.75 67.75,-129.75 67.75,-110.5 114.5,-110.5 114.5,-129.75"/>
<text text-anchor="middle" x="91.12" y="-116.25" font-family="Helvetica,sans-Serif" font-size="10.00">types.h</text>
</a>
</g>
</g>
<!-- Node1&#45;&gt;Node2 -->
<g id="edge1_Node000001_Node000002" class="edge">
<title>Node1&#45;&gt;Node2</title>
<g id="a_edge1_Node000001_Node000002"><a xlink:title=" ">
<path fill="none" stroke="#63b8ff" d="M365.63,-226.36C269.86,-220.48 90.25,-206.69 71.12,-185 59.87,-172.24 68.04,-153.17 77.09,-139.19"/>
<polygon fill="#63b8ff" stroke="#63b8ff" points="79.75,-141.49 82.69,-131.31 74.05,-137.43 79.75,-141.49"/>
</a>
</g>
</g>
<!-- Node3 -->
<g id="Node000003" class="node">
<title>Node3</title>
<g id="a_Node000003"><a xlink:href="defs_8h.html" target="_top" xlink:title=" ">
<polygon fill="white" stroke="#666666" points="42.25,-129.75 0,-129.75 0,-110.5 42.25,-110.5 42.25,-129.75"/>
<text text-anchor="middle" x="21.12" y="-116.25" font-family="Helvetica,sans-Serif" font-size="10.00">defs.h</text>
</a>
</g>
</g>
<!-- Node1&#45;&gt;Node3 -->
<g id="edge2_Node000001_Node000003" class="edge">
<title>Node1&#45;&gt;Node3</title>
<g id="a_edge2_Node000001_Node000003"><a xlink:title=" ">
<path fill="none" stroke="#63b8ff" d="M365.77,-228.36C276.12,-225.46 111.38,-215.96 62.12,-185 45.75,-174.71 34.68,-155.22 28.21,-140.47"/>
<polygon fill="#63b8ff" stroke="#63b8ff" points="31.51,-139.31 24.55,-131.32 25.01,-141.91 31.51,-139.31"/>
</a>
</g>
</g>
<!-- Node7 -->
<g id="Node000007" class="node">
<title>Node7</title>
<g id="a_Node000007"><a xlink:href="irx_8h.html" target="_top" xlink:title=" ">
<polygon fill="white" stroke="#666666" points="466.75,-129.75 433.5,-129.75 433.5,-110.5 466.75,-110.5 466.75,-129.75"/>
<text text-anchor="middle" x="450.12" y="-116.25" font-family="Helvetica,sans-Serif" font-size="10.00">irx.h</text>
</a>
</g>
</g>
<!-- Node1&#45;&gt;Node7 -->
<g id="edge6_Node000001_Node000007" class="edge">
<title>Node1&#45;&gt;Node7</title>
<g id="a_edge6_Node000001_Node000007"><a xlink:title=" ">
<path fill="none" stroke="#63b8ff" d="M427.17,-220.75C431.14,-203.5 440,-165.08 445.47,-141.31"/>
<polygon fill="#63b8ff" stroke="#63b8ff" points="448.88,-142.13 447.71,-131.6 442.06,-140.56 448.88,-142.13"/>
</a>
</g>
</g>
<!-- Node8 -->
<g id="Node000008" class="node">
<title>Node8</title>
<g id="a_Node000008"><a xlink:href="loadcore_8h.html" target="_top" xlink:title=" ">
<polygon fill="white" stroke="#666666" points="280.25,-185 220,-185 220,-165.75 280.25,-165.75 280.25,-185"/>
<text text-anchor="middle" x="250.12" y="-171.5" font-family="Helvetica,sans-Serif" font-size="10.00">loadcore.h</text>
</a>
</g>
</g>
<!-- Node1&#45;&gt;Node8 -->
<g id="edge8_Node000001_Node000008" class="edge">
<title>Node1&#45;&gt;Node8</title>
<g id="a_edge8_Node000001_Node000008"><a xlink:title=" ">
<path fill="none" stroke="#63b8ff" d="M395.44,-220.59C366.65,-211.83 322.76,-198.48 290.74,-188.73"/>
<polygon fill="#63b8ff" stroke="#63b8ff" points="291.99,-185.46 281.4,-185.89 289.95,-192.15 291.99,-185.46"/>
</a>
</g>
</g>
<!-- Node9 -->
<g id="Node000009" class="node">
<title>Node9</title>
<g id="a_Node000009"><a xlink:href="thbase_8h.html" target="_top" xlink:title=" ">
<polygon fill="white" stroke="#666666" points="351.5,-185 298.75,-185 298.75,-165.75 351.5,-165.75 351.5,-185"/>
<text text-anchor="middle" x="325.12" y="-171.5" font-family="Helvetica,sans-Serif" font-size="10.00">thbase.h</text>
</a>
</g>
</g>
<!-- Node1&#45;&gt;Node9 -->
<g id="edge11_Node000001_Node000009" class="edge">
<title>Node1&#45;&gt;Node9</title>
<g id="a_edge11_Node000001_Node000009"><a xlink:title=" ">
<path fill="none" stroke="#63b8ff" d="M408.16,-220.59C392.86,-212.44 370.09,-200.32 352.26,-190.83"/>
<polygon fill="#63b8ff" stroke="#63b8ff" points="353.98,-187.77 343.51,-186.16 350.69,-193.95 353.98,-187.77"/>
</a>
</g>
</g>
<!-- Node10 -->
<g id="Node000010" class="node">
<title>Node10</title>
<g id="a_Node000010"><a xlink:href="thevent_8h.html" target="_top" xlink:title=" ">
<polygon fill="white" stroke="#666666" points="425,-185 369.25,-185 369.25,-165.75 425,-165.75 425,-185"/>
<text text-anchor="middle" x="397.12" y="-171.5" font-family="Helvetica,sans-Serif" font-size="10.00">thevent.h</text>
</a>
</g>
</g>
<!-- Node1&#45;&gt;Node10 -->
<g id="edge14_Node000001_Node000010" class="edge">
<title>Node1&#45;&gt;Node10</title>
<g id="a_edge14_Node000001_Node000010"><a xlink:title=" ">
<path fill="none" stroke="#63b8ff" d="M420.5,-220.83C416.88,-213.94 411.7,-204.09 407.13,-195.41"/>
<polygon fill="#63b8ff" stroke="#63b8ff" points="410.31,-193.92 402.55,-186.7 404.11,-197.18 410.31,-193.92"/>
</a>
</g>
</g>
<!-- Node11 -->
<g id="Node000011" class="node">
<title>Node11</title>
<g id="a_Node000011"><a xlink:href="thsemap_8h.html" target="_top" xlink:title=" ">
<polygon fill="white" stroke="#666666" points="542.62,-185 481.62,-185 481.62,-165.75 542.62,-165.75 542.62,-185"/>
<text text-anchor="middle" x="512.12" y="-171.5" font-family="Helvetica,sans-Serif" font-size="10.00">thsemap.h</text>
</a>
</g>
</g>
<!-- Node1&#45;&gt;Node11 -->
<g id="edge17_Node000001_Node000011" class="edge">
<title>Node1&#45;&gt;Node11</title>
<g id="a_edge17_Node000001_Node000011"><a xlink:title=" ">
<path fill="none" stroke="#63b8ff" d="M439.88,-220.59C453.01,-212.56 472.45,-200.66 487.86,-191.23"/>
<polygon fill="#63b8ff" stroke="#63b8ff" points="489.3,-194.45 496,-186.24 485.65,-188.48 489.3,-194.45"/>
</a>
</g>
</g>
<!-- Node12 -->
<g id="Node000012" class="node">
<title>Node12</title>
<g id="a_Node000012"><a xlink:href="intrman_8h.html" target="_top" xlink:title=" ">
<polygon fill="white" stroke="#666666" points="202,-185 146.25,-185 146.25,-165.75 202,-165.75 202,-185"/>
<text text-anchor="middle" x="174.12" y="-171.5" font-family="Helvetica,sans-Serif" font-size="10.00">intrman.h</text>
</a>
</g>
</g>
<!-- Node1&#45;&gt;Node12 -->
<g id="edge20_Node000001_Node000012" class="edge">
<title>Node1&#45;&gt;Node12</title>
<g id="a_edge20_Node000001_Node000012"><a xlink:title=" ">
<path fill="none" stroke="#63b8ff" d="M379.97,-220.53C338.99,-212.2 276.6,-199.35 213.37,-185.46"/>
<polygon fill="#63b8ff" stroke="#63b8ff" points="214.39,-182.1 203.87,-183.36 212.88,-188.93 214.39,-182.1"/>
</a>
</g>
</g>
<!-- Node13 -->
<g id="Node000013" class="node">
<title>Node13</title>
<g id="a_Node000013"><a xlink:href="stdio_8h.html" target="_top" xlink:title=" ">
<polygon fill="white" stroke="#666666" points="747.38,-185 702.88,-185 702.88,-165.75 747.38,-165.75 747.38,-185"/>
<text text-anchor="middle" x="725.12" y="-171.5" font-family="Helvetica,sans-Serif" font-size="10.00">stdio.h</text>
</a>
</g>
</g>
<!-- Node1&#45;&gt;Node13 -->
<g id="edge23_Node000001_Node000013" class="edge">
<title>Node1&#45;&gt;Node13</title>
<g id="a_edge23_Node000001_Node000013"><a xlink:title=" ">
<path fill="none" stroke="#63b8ff" d="M484.51,-221.64C536.79,-214.18 615.17,-201.99 691.72,-185.35"/>
<polygon fill="#63b8ff" stroke="#63b8ff" points="692.02,-188.87 701.03,-183.29 690.51,-182.03 692.02,-188.87"/>
</a>
</g>
</g>
<!-- Node15 -->
<g id="Node000015" class="node">
<title>Node15</title>
<g id="a_Node000015"><a xlink:href="sysclib_8h.html" target="_top" xlink:title=" ">
<polygon fill="white" stroke="#666666" points="818.88,-185 765.38,-185 765.38,-165.75 818.88,-165.75 818.88,-185"/>
<text text-anchor="middle" x="792.12" y="-171.5" font-family="Helvetica,sans-Serif" font-size="10.00">sysclib.h</text>
</a>
</g>
</g>
<!-- Node1&#45;&gt;Node15 -->
<g id="edge26_Node000001_Node000015" class="edge">
<title>Node1&#45;&gt;Node15</title>
<g id="a_edge26_Node000001_Node000015"><a xlink:title=" ">
<path fill="none" stroke="#63b8ff" d="M484.61,-223.44C548.69,-216.37 653.85,-203.58 753.84,-185.25"/>
<polygon fill="#63b8ff" stroke="#63b8ff" points="754.38,-188.71 763.57,-183.45 753.1,-181.83 754.38,-188.71"/>
</a>
</g>
</g>
<!-- Node18 -->
<g id="Node000018" class="node">
<title>Node18</title>
<g id="a_Node000018"><a xlink:href="errno_8h.html" target="_top" xlink:title=" ">
<polygon fill="white" stroke="#666666" points="684.75,-185 639.5,-185 639.5,-165.75 684.75,-165.75 684.75,-185"/>
<text text-anchor="middle" x="662.12" y="-171.5" font-family="Helvetica,sans-Serif" font-size="10.00">errno.h</text>
</a>
</g>
</g>
<!-- Node1&#45;&gt;Node18 -->
<g id="edge33_Node000001_Node000018" class="edge">
<title>Node1&#45;&gt;Node18</title>
<g id="a_edge33_Node000001_Node000018"><a xlink:title=" ">
<path fill="none" stroke="#63b8ff" d="M470.06,-220.5C509.33,-212.38 568.14,-199.87 628.25,-185.36"/>
<polygon fill="#63b8ff" stroke="#63b8ff" points="628.73,-188.85 637.62,-183.09 627.07,-182.05 628.73,-188.85"/>
</a>
</g>
</g>
<!-- Node19 -->
<g id="Node000019" class="node">
<title>Node19</title>
<g id="a_Node000019"><a xlink:href="devfs_8h.html" target="_top" xlink:title=" ">
<polygon fill="white" stroke="#666666" points="127.88,-185 80.38,-185 80.38,-165.75 127.88,-165.75 127.88,-185"/>
<text text-anchor="middle" x="104.12" y="-171.5" font-family="Helvetica,sans-Serif" font-size="10.00">devfs.h</text>
</a>
</g>
</g>
<!-- Node1&#45;&gt;Node19 -->
<g id="edge34_Node000001_Node000019" class="edge">
<title>Node1&#45;&gt;Node19</title>
<g id="a_edge34_Node000001_Node000019"><a xlink:title=" ">
<path fill="none" stroke="#63b8ff" d="M365.79,-222.23C309.79,-214.85 223.29,-202.4 139.24,-185.25"/>
<polygon fill="#63b8ff" stroke="#63b8ff" points="140.19,-181.88 129.69,-183.28 138.77,-188.73 140.19,-181.88"/>
</a>
</g>
</g>
<!-- Node20 -->
<g id="Node000020" class="node">
<title>Node20</title>
<g id="a_Node000020"><a xlink:href="sysmem_8h.html" target="_top" xlink:title=" ">
<polygon fill="white" stroke="#666666" points="621.25,-185 561,-185 561,-165.75 621.25,-165.75 621.25,-185"/>
<text text-anchor="middle" x="591.12" y="-171.5" font-family="Helvetica,sans-Serif" font-size="10.00">sysmem.h</text>
</a>
</g>
</g>
<!-- Node1&#45;&gt;Node20 -->
<g id="edge37_Node000001_Node000020" class="edge">
<title>Node1&#45;&gt;Node20</title>
<g id="a_edge37_Node000001_Node000020"><a xlink:title=" ">
<path fill="none" stroke="#63b8ff" d="M453.28,-220.59C480.47,-211.87 521.87,-198.59 552.2,-188.86"/>
<polygon fill="#63b8ff" stroke="#63b8ff" points="552.93,-192.3 561.39,-185.91 550.79,-185.64 552.93,-192.3"/>
</a>
</g>
</g>
<!-- Node21 -->
<g id="Node000021" class="node">
<title>Node21</title>
<g id="a_Node000021"><a xlink:href="ioman_x_8h.html" target="_top" xlink:title=" ">
<polygon fill="white" stroke="#666666" points="893.38,-185 836.88,-185 836.88,-165.75 893.38,-165.75 893.38,-185"/>
<text text-anchor="middle" x="865.12" y="-171.5" font-family="Helvetica,sans-Serif" font-size="10.00">iomanX.h</text>
</a>
</g>
</g>
<!-- Node1&#45;&gt;Node21 -->
<g id="edge41_Node000001_Node000021" class="edge">
<title>Node1&#45;&gt;Node21</title>
<g id="a_edge41_Node000001_Node000021"><a xlink:title=" ">
<path fill="none" stroke="#63b8ff" d="M484.5,-225.27C561.14,-219.16 698.8,-206.51 825.46,-185.28"/>
<polygon fill="#63b8ff" stroke="#63b8ff" points="825.75,-188.78 835.02,-183.65 824.57,-181.88 825.75,-188.78"/>
</a>
</g>
</g>
<!-- Node4 -->
<g id="Node000004" class="node">
<title>Node4</title>
<g id="a_Node000004"><a xlink:href="iop_2kernel_2include_2types_8h_source.html" target="_top" xlink:title=" ">
<polygon fill="white" stroke="#666666" points="473.5,-74.5 426.75,-74.5 426.75,-55.25 473.5,-55.25 473.5,-74.5"/>
<text text-anchor="middle" x="450.12" y="-61" font-family="Helvetica,sans-Serif" font-size="10.00">types.h</text>
</a>
</g>
</g>
<!-- Node3&#45;&gt;Node4 -->
<g id="edge3_Node000003_Node000004" class="edge">
<title>Node3&#45;&gt;Node4</title>
<g id="a_edge3_Node000003_Node000004"><a xlink:title=" ">
<path fill="none" stroke="#63b8ff" d="M42.75,-113.79C48.08,-112.59 53.79,-111.41 59.12,-110.5 189.7,-88.3 346.74,-74.13 415.28,-68.56"/>
<polygon fill="#63b8ff" stroke="#63b8ff" points="415.44,-72.06 425.13,-67.77 414.88,-65.08 415.44,-72.06"/>
</a>
</g>
</g>
<!-- Node5 -->
<g id="Node000005" class="node">
<title>Node5</title>
<g id="a_Node000005"><a xlink:title=" ">
<polygon fill="#e0e0e0" stroke="#999999" points="475.38,-19.25 424.88,-19.25 424.88,0 475.38,0 475.38,-19.25"/>
<text text-anchor="middle" x="450.12" y="-5.75" font-family="Helvetica,sans-Serif" font-size="10.00">stddef.h</text>
</a>
</g>
</g>
<!-- Node4&#45;&gt;Node5 -->
<g id="edge4_Node000004_Node000005" class="edge">
<title>Node4&#45;&gt;Node5</title>
<g id="a_edge4_Node000004_Node000005"><a xlink:title=" ">
<path fill="none" stroke="#63b8ff" d="M450.12,-55.08C450.12,-48.57 450.12,-39.42 450.12,-31.12"/>
<polygon fill="#63b8ff" stroke="#63b8ff" points="453.63,-31.12 450.13,-21.12 446.63,-31.12 453.63,-31.12"/>
</a>
</g>
</g>
<!-- Node6 -->
<g id="Node000006" class="node">
<title>Node6</title>
<g id="a_Node000006"><a xlink:href="tamtypes_8h.html" target="_top" xlink:title=" ">
<polygon fill="white" stroke="#666666" points="613.75,-19.25 550.5,-19.25 550.5,0 613.75,0 613.75,-19.25"/>
<text text-anchor="middle" x="582.12" y="-5.75" font-family="Helvetica,sans-Serif" font-size="10.00">tamtypes.h</text>
</a>
</g>
</g>
<!-- Node4&#45;&gt;Node6 -->
<g id="edge5_Node000004_Node000006" class="edge">
<title>Node4&#45;&gt;Node6</title>
<g id="a_edge5_Node000004_Node000006"><a xlink:title=" ">
<path fill="none" stroke="#63b8ff" d="M472.52,-54.84C493.57,-46.35 525.33,-33.54 549.25,-23.89"/>
<polygon fill="#63b8ff" stroke="#63b8ff" points="550.26,-27.26 558.22,-20.27 547.64,-20.76 550.26,-27.26"/>
</a>
</g>
</g>
<!-- Node7&#45;&gt;Node4 -->
<g id="edge7_Node000007_Node000004" class="edge">
<title>Node7&#45;&gt;Node4</title>
<g id="a_edge7_Node000007_Node000004"><a xlink:title=" ">
<path fill="none" stroke="#63b8ff" d="M450.12,-110.33C450.12,-103.82 450.12,-94.67 450.12,-86.37"/>
<polygon fill="#63b8ff" stroke="#63b8ff" points="453.63,-86.37 450.13,-76.37 446.63,-86.37 453.63,-86.37"/>
</a>
</g>
</g>
<!-- Node8&#45;&gt;Node4 -->
<g id="edge9_Node000008_Node000004" class="edge">
<title>Node8&#45;&gt;Node4</title>
<g id="a_edge9_Node000008_Node000004"><a xlink:title=" ">
<path fill="none" stroke="#63b8ff" d="M266.83,-165.31C301.47,-146.52 381.34,-103.19 423.29,-80.43"/>
<polygon fill="#63b8ff" stroke="#63b8ff" points="424.87,-83.56 431.99,-75.71 421.53,-77.4 424.87,-83.56"/>
</a>
</g>
</g>
<!-- Node8&#45;&gt;Node7 -->
<g id="edge10_Node000008_Node000007" class="edge">
<title>Node8&#45;&gt;Node7</title>
<g id="a_edge10_Node000008_Node000007"><a xlink:title=" ">
<path fill="none" stroke="#63b8ff" d="M280.5,-166.29C318.96,-156.05 384.68,-138.55 422.03,-128.61"/>
<polygon fill="#63b8ff" stroke="#63b8ff" points="422.86,-132.01 431.62,-126.05 421.05,-125.24 422.86,-132.01"/>
</a>
</g>
</g>
<!-- Node9&#45;&gt;Node4 -->
<g id="edge12_Node000009_Node000004" class="edge">
<title>Node9&#45;&gt;Node4</title>
<g id="a_edge12_Node000009_Node000004"><a xlink:title=" ">
<path fill="none" stroke="#63b8ff" d="M335.35,-165.5C356.32,-147.3 404.45,-105.52 431.25,-82.26"/>
<polygon fill="#63b8ff" stroke="#63b8ff" points="433.35,-85.07 438.61,-75.87 428.77,-79.78 433.35,-85.07"/>
</a>
</g>
</g>
<!-- Node9&#45;&gt;Node7 -->
<g id="edge13_Node000009_Node000007" class="edge">
<title>Node9&#45;&gt;Node7</title>
<g id="a_edge13_Node000009_Node000007"><a xlink:title=" ">
<path fill="none" stroke="#63b8ff" d="M346.33,-165.34C367.4,-156.37 399.8,-142.56 422.8,-132.77"/>
<polygon fill="#63b8ff" stroke="#63b8ff" points="424.01,-136.05 431.84,-128.91 421.27,-129.61 424.01,-136.05"/>
</a>
</g>
</g>
<!-- Node10&#45;&gt;Node4 -->
<g id="edge15_Node000010_Node000004" class="edge">
<title>Node10&#45;&gt;Node4</title>
<g id="a_edge15_Node000010_Node000004"><a xlink:title=" ">
<path fill="none" stroke="#63b8ff" d="M400.45,-165.54C405.23,-153.06 414.54,-129.67 424.12,-110.5 428.48,-101.79 433.82,-92.44 438.53,-84.55"/>
<polygon fill="#63b8ff" stroke="#63b8ff" points="441.4,-86.57 443.61,-76.21 435.42,-82.93 441.4,-86.57"/>
</a>
</g>
</g>
<!-- Node10&#45;&gt;Node7 -->
<g id="edge16_Node000010_Node000007" class="edge">
<title>Node10&#45;&gt;Node7</title>
<g id="a_edge16_Node000010_Node000007"><a xlink:title=" ">
<path fill="none" stroke="#63b8ff" d="M405.88,-165.58C413.27,-158.15 424.09,-147.29 433.17,-138.16"/>
<polygon fill="#63b8ff" stroke="#63b8ff" points="435.54,-140.74 440.12,-131.18 430.58,-135.8 435.54,-140.74"/>
</a>
</g>
</g>
<!-- Node11&#45;&gt;Node4 -->
<g id="edge18_Node000011_Node000004" class="edge">
<title>Node11&#45;&gt;Node4</title>
<g id="a_edge18_Node000011_Node000004"><a xlink:title=" ">
<path fill="none" stroke="#63b8ff" d="M507.04,-165.25C500.1,-152.84 487.26,-129.94 476.12,-110.5 471.22,-101.94 465.73,-92.5 461.06,-84.51"/>
<polygon fill="#63b8ff" stroke="#63b8ff" points="464.18,-82.91 456.11,-76.05 458.14,-86.45 464.18,-82.91"/>
</a>
</g>
</g>
<!-- Node11&#45;&gt;Node7 -->
<g id="edge19_Node000011_Node000007" class="edge">
<title>Node11&#45;&gt;Node7</title>
<g id="a_edge19_Node000011_Node000007"><a xlink:title=" ">
<path fill="none" stroke="#63b8ff" d="M501.61,-165.34C492.74,-157.72 479.81,-146.62 469.14,-137.45"/>
<polygon fill="#63b8ff" stroke="#63b8ff" points="471.5,-134.87 461.64,-131.01 466.94,-140.18 471.5,-134.87"/>
</a>
</g>
</g>
<!-- Node12&#45;&gt;Node4 -->
<g id="edge21_Node000012_Node000004" class="edge">
<title>Node12&#45;&gt;Node4</title>
<g id="a_edge21_Node000012_Node000004"><a xlink:title=" ">
<path fill="none" stroke="#63b8ff" d="M196.61,-165.29C227.54,-152.83 284.98,-129.76 334.12,-110.5 361.58,-99.74 392.77,-87.75 415.89,-78.91"/>
<polygon fill="#63b8ff" stroke="#63b8ff" points="417.03,-82.23 425.13,-75.39 414.54,-75.69 417.03,-82.23"/>
</a>
</g>
</g>
<!-- Node12&#45;&gt;Node7 -->
<g id="edge22_Node000012_Node000007" class="edge">
<title>Node12&#45;&gt;Node7</title>
<g id="a_edge22_Node000012_Node000007"><a xlink:title=" ">
<path fill="none" stroke="#63b8ff" d="M202.38,-167.65C205.33,-166.99 208.28,-166.35 211.12,-165.75 287.19,-149.79 377.47,-133.71 422.17,-125.93"/>
<polygon fill="#63b8ff" stroke="#63b8ff" points="422.52,-129.42 431.78,-124.27 421.33,-122.52 422.52,-129.42"/>
</a>
</g>
</g>
<!-- Node13&#45;&gt;Node7 -->
<g id="edge25_Node000013_Node000007" class="edge">
<title>Node13&#45;&gt;Node7</title>
<g id="a_edge25_Node000013_Node000007"><a xlink:title=" ">
<path fill="none" stroke="#63b8ff" d="M702.5,-167.83C699.69,-167.09 696.85,-166.38 694.12,-165.75 616.66,-147.93 524.06,-132.61 478.42,-125.45"/>
<polygon fill="#63b8ff" stroke="#63b8ff" points="479.01,-122 468.59,-123.92 477.93,-128.91 479.01,-122"/>
</a>
</g>
</g>
<!-- Node14 -->
<g id="Node000014" class="node">
<title>Node14</title>
<g id="a_Node000014"><a xlink:title=" ">
<polygon fill="#e0e0e0" stroke="#999999" points="661.38,-129.75 610.88,-129.75 610.88,-110.5 661.38,-110.5 661.38,-129.75"/>
<text text-anchor="middle" x="636.12" y="-116.25" font-family="Helvetica,sans-Serif" font-size="10.00">stdarg.h</text>
</a>
</g>
</g>
<!-- Node13&#45;&gt;Node14 -->
<g id="edge24_Node000013_Node000014" class="edge">
<title>Node13&#45;&gt;Node14</title>
<g id="a_edge24_Node000013_Node000014"><a xlink:title=" ">
<path fill="none" stroke="#63b8ff" d="M710.03,-165.34C696.6,-157.31 676.71,-145.41 660.95,-135.98"/>
<polygon fill="#63b8ff" stroke="#63b8ff" points="662.97,-133.11 652.6,-130.98 659.38,-139.12 662.97,-133.11"/>
</a>
</g>
</g>
<!-- Node15&#45;&gt;Node4 -->
<g id="edge27_Node000015_Node000004" class="edge">
<title>Node15&#45;&gt;Node4</title>
<g id="a_edge27_Node000015_Node000004"><a xlink:title=" ">
<path fill="none" stroke="#63b8ff" d="M787.12,-165.63C778.49,-151.45 759.4,-123.72 735.12,-110.5 692.49,-87.28 551,-73.64 484.81,-68.38"/>
<polygon fill="#63b8ff" stroke="#63b8ff" points="485.49,-64.92 475.25,-67.64 484.95,-71.9 485.49,-64.92"/>
</a>
</g>
</g>
<!-- Node15&#45;&gt;Node7 -->
<g id="edge28_Node000015_Node000007" class="edge">
<title>Node15&#45;&gt;Node7</title>
<g id="a_edge28_Node000015_Node000007"><a xlink:title=" ">
<path fill="none" stroke="#63b8ff" d="M765.06,-167.61C762.05,-166.94 759.03,-166.31 756.12,-165.75 654.63,-146.23 532.75,-130.83 478.53,-124.4"/>
<polygon fill="#63b8ff" stroke="#63b8ff" points="478.98,-120.93 468.64,-123.23 478.16,-127.88 478.98,-120.93"/>
</a>
</g>
</g>
<!-- Node15&#45;&gt;Node14 -->
<g id="edge29_Node000015_Node000014" class="edge">
<title>Node15&#45;&gt;Node14</title>
<g id="a_edge29_Node000015_Node000014"><a xlink:title=" ">
<path fill="none" stroke="#63b8ff" d="M765.66,-165.34C740.03,-156.59 700.96,-143.26 672.43,-133.52"/>
<polygon fill="#63b8ff" stroke="#63b8ff" points="673.71,-130.26 663.11,-130.34 671.45,-136.88 673.71,-130.26"/>
</a>
</g>
</g>
<!-- Node16 -->
<g id="Node000016" class="node">
<title>Node16</title>
<g id="a_Node000016"><a xlink:href="setjmp_8h.html" target="_top" xlink:title=" ">
<polygon fill="white" stroke="#666666" points="660.5,-74.5 607.75,-74.5 607.75,-55.25 660.5,-55.25 660.5,-74.5"/>
<text text-anchor="middle" x="634.12" y="-61" font-family="Helvetica,sans-Serif" font-size="10.00">setjmp.h</text>
</a>
</g>
</g>
<!-- Node15&#45;&gt;Node16 -->
<g id="edge30_Node000015_Node000016" class="edge">
<title>Node15&#45;&gt;Node16</title>
<g id="a_edge30_Node000015_Node000016"><a xlink:title=" ">
<path fill="none" stroke="#63b8ff" d="M791.22,-165.65C789.36,-152 783.83,-125.62 768.12,-110.5 742.08,-85.43 701.59,-74.43 671.93,-69.62"/>
<polygon fill="#63b8ff" stroke="#63b8ff" points="672.65,-66.18 662.25,-68.22 671.65,-73.11 672.65,-66.18"/>
</a>
</g>
</g>
<!-- Node17 -->
<g id="Node000017" class="node">
<title>Node17</title>
<g id="a_Node000017"><a xlink:href="ctype_8h.html" target="_top" xlink:title=" ">
<polygon fill="white" stroke="#666666" points="726.5,-129.75 679.75,-129.75 679.75,-110.5 726.5,-110.5 726.5,-129.75"/>
<text text-anchor="middle" x="703.12" y="-116.25" font-family="Helvetica,sans-Serif" font-size="10.00">ctype.h</text>
</a>
</g>
</g>
<!-- Node15&#45;&gt;Node17 -->
<g id="edge32_Node000015_Node000017" class="edge">
<title>Node15&#45;&gt;Node17</title>
<g id="a_edge32_Node000015_Node000017"><a xlink:title=" ">
<path fill="none" stroke="#63b8ff" d="M777.03,-165.34C763.6,-157.31 743.71,-145.41 727.95,-135.98"/>
<polygon fill="#63b8ff" stroke="#63b8ff" points="729.97,-133.11 719.6,-130.98 726.38,-139.12 729.97,-133.11"/>
</a>
</g>
</g>
<!-- Node16&#45;&gt;Node6 -->
<g id="edge31_Node000016_Node000006" class="edge">
<title>Node16&#45;&gt;Node6</title>
<g id="a_edge31_Node000016_Node000006"><a xlink:title=" ">
<path fill="none" stroke="#63b8ff" d="M625.54,-55.08C618.28,-47.65 607.67,-36.79 598.76,-27.66"/>
<polygon fill="#63b8ff" stroke="#63b8ff" points="601.45,-25.4 591.96,-20.69 596.44,-30.29 601.45,-25.4"/>
</a>
</g>
</g>
<!-- Node19&#45;&gt;Node2 -->
<g id="edge35_Node000019_Node000002" class="edge">
<title>Node19&#45;&gt;Node2</title>
<g id="a_edge35_Node000019_Node000002"><a xlink:title=" ">
<path fill="none" stroke="#63b8ff" d="M101.98,-165.58C100.35,-158.92 98.05,-149.49 95.98,-141.03"/>
<polygon fill="#63b8ff" stroke="#63b8ff" points="99.45,-140.46 93.68,-131.58 92.65,-142.12 99.45,-140.46"/>
</a>
</g>
</g>
<!-- Node19&#45;&gt;Node7 -->
<g id="edge36_Node000019_Node000007" class="edge">
<title>Node19&#45;&gt;Node7</title>
<g id="a_edge36_Node000019_Node000007"><a xlink:title=" ">
<path fill="none" stroke="#63b8ff" d="M128.2,-167.74C131.19,-167.02 134.22,-166.33 137.12,-165.75 241.18,-144.81 366.63,-130.04 421.78,-124.07"/>
<polygon fill="#63b8ff" stroke="#63b8ff" points="421.97,-127.57 431.54,-123.03 421.22,-120.61 421.97,-127.57"/>
</a>
</g>
</g>
<!-- Node20&#45;&gt;Node4 -->
<g id="edge38_Node000020_Node000004" class="edge">
<title>Node20&#45;&gt;Node4</title>
<g id="a_edge38_Node000020_Node000004"><a xlink:title=" ">
<path fill="none" stroke="#63b8ff" d="M579.59,-165.5C555.73,-147.14 500.69,-104.79 470.63,-81.66"/>
<polygon fill="#63b8ff" stroke="#63b8ff" points="473.08,-79.12 463.02,-75.8 468.81,-84.67 473.08,-79.12"/>
</a>
</g>
</g>
<!-- Node20&#45;&gt;Node7 -->
<g id="edge39_Node000020_Node000007" class="edge">
<title>Node20&#45;&gt;Node7</title>
<g id="a_edge39_Node000020_Node000007"><a xlink:title=" ">
<path fill="none" stroke="#63b8ff" d="M567.21,-165.34C542.43,-155.98 503.76,-141.38 477.71,-131.54"/>
<polygon fill="#63b8ff" stroke="#63b8ff" points="479.07,-128.31 468.48,-128.06 476.6,-134.86 479.07,-128.31"/>
</a>
</g>
</g>
<!-- Node20&#45;&gt;Node14 -->
<g id="edge40_Node000020_Node000014" class="edge">
<title>Node20&#45;&gt;Node14</title>
<g id="a_edge40_Node000020_Node000014"><a xlink:title=" ">
<path fill="none" stroke="#63b8ff" d="M598.56,-165.58C604.71,-158.3 613.64,-147.73 621.25,-138.73"/>
<polygon fill="#63b8ff" stroke="#63b8ff" points="623.77,-141.16 627.56,-131.27 618.43,-136.64 623.77,-141.16"/>
</a>
</g>
</g>
<!-- Node21&#45;&gt;Node4 -->
<g id="edge42_Node000021_Node000004" class="edge">
<title>Node21&#45;&gt;Node4</title>
<g id="a_edge42_Node000021_Node000004"><a xlink:title=" ">
<path fill="none" stroke="#63b8ff" d="M853.95,-165.44C835.57,-151.26 797.28,-123.84 760.12,-110.5 664.61,-76.2 543.59,-68.2 485.03,-66.37"/>
<polygon fill="#63b8ff" stroke="#63b8ff" points="485.44,-62.88 475.35,-66.12 485.26,-69.88 485.44,-62.88"/>
</a>
</g>
</g>
<!-- Node21&#45;&gt;Node14 -->
<g id="edge43_Node000021_Node000014" class="edge">
<title>Node21&#45;&gt;Node14</title>
<g id="a_edge43_Node000021_Node000014"><a xlink:title=" ">
<path fill="none" stroke="#63b8ff" d="M836.44,-167.68C833.63,-167.03 830.82,-166.37 828.12,-165.75 761.78,-150.41 742.61,-146.67 672.88,-130.14"/>
<polygon fill="#63b8ff" stroke="#63b8ff" points="673.74,-126.74 663.2,-127.83 672.12,-133.55 673.74,-126.74"/>
</a>
</g>
</g>
<!-- Node22 -->
<g id="Node000022" class="node">
<title>Node22</title>
<g id="a_Node000022"><a xlink:href="io__common_8h.html" target="_top" xlink:title=" ">
<polygon fill="white" stroke="#666666" points="932,-129.75 858.25,-129.75 858.25,-110.5 932,-110.5 932,-129.75"/>
<text text-anchor="middle" x="895.12" y="-116.25" font-family="Helvetica,sans-Serif" font-size="10.00">io_common.h</text>
</a>
</g>
</g>
<!-- Node21&#45;&gt;Node22 -->
<g id="edge44_Node000021_Node000022" class="edge">
<title>Node21&#45;&gt;Node22</title>
<g id="a_edge44_Node000021_Node000022"><a xlink:title=" ">
<path fill="none" stroke="#63b8ff" d="M870.08,-165.58C874.01,-158.61 879.64,-148.62 884.56,-139.87"/>
<polygon fill="#63b8ff" stroke="#63b8ff" points="887.46,-141.86 889.32,-131.43 881.36,-138.42 887.46,-141.86"/>
</a>
</g>
</g>
<!-- Node25 -->
<g id="Node000025" class="node">
<title>Node25</title>
<g id="a_Node000025"><a xlink:href="iox__stat_8h.html" target="_top" xlink:title=" ">
<polygon fill="white" stroke="#666666" points="1007.75,-129.75 950.5,-129.75 950.5,-110.5 1007.75,-110.5 1007.75,-129.75"/>
<text text-anchor="middle" x="979.12" y="-116.25" font-family="Helvetica,sans-Serif" font-size="10.00">iox_stat.h</text>
</a>
</g>
</g>
<!-- Node21&#45;&gt;Node25 -->
<g id="edge47_Node000021_Node000025" class="edge">
<title>Node21&#45;&gt;Node25</title>
<g id="a_edge47_Node000021_Node000025"><a xlink:title=" ">
<path fill="none" stroke="#63b8ff" d="M884.46,-165.34C902.23,-157.04 928.84,-144.61 949.33,-135.04"/>
<polygon fill="#63b8ff" stroke="#63b8ff" points="950.74,-138.25 958.32,-130.84 947.78,-131.9 950.74,-138.25"/>
</a>
</g>
</g>
<!-- Node23 -->
<g id="Node000023" class="node">
<title>Node23</title>
<g id="a_Node000023"><a xlink:href="fcntl_8h_source.html" target="_top" xlink:title=" ">
<polygon fill="white" stroke="#666666" points="844.25,-74.5 784,-74.5 784,-55.25 844.25,-55.25 844.25,-74.5"/>
<text text-anchor="middle" x="814.12" y="-61" font-family="Helvetica,sans-Serif" font-size="10.00">sys/fcntl.h</text>
</a>
</g>
</g>
<!-- Node22&#45;&gt;Node23 -->
<g id="edge45_Node000022_Node000023" class="edge">
<title>Node22&#45;&gt;Node23</title>
<g id="a_edge45_Node000022_Node000023"><a xlink:title=" ">
<path fill="none" stroke="#63b8ff" d="M881.38,-110.09C869.4,-102.21 851.75,-90.61 837.54,-81.27"/>
<polygon fill="#63b8ff" stroke="#63b8ff" points="839.48,-78.35 829.2,-75.78 835.63,-84.2 839.48,-78.35"/>
</a>
</g>
</g>
<!-- Node24 -->
<g id="Node000024" class="node">
<title>Node24</title>
<g id="a_Node000024"><a xlink:href="unistd_8h_source.html" target="_top" xlink:title=" ">
<polygon fill="white" stroke="#666666" points="930,-74.5 862.25,-74.5 862.25,-55.25 930,-55.25 930,-74.5"/>
<text text-anchor="middle" x="896.12" y="-61" font-family="Helvetica,sans-Serif" font-size="10.00">sys/unistd.h</text>
</a>
</g>
</g>
<!-- Node22&#45;&gt;Node24 -->
<g id="edge46_Node000022_Node000024" class="edge">
<title>Node22&#45;&gt;Node24</title>
<g id="a_edge46_Node000022_Node000024"><a xlink:title=" ">
<path fill="none" stroke="#63b8ff" d="M895.29,-110.33C895.41,-103.82 895.58,-94.67 895.74,-86.37"/>
<polygon fill="#63b8ff" stroke="#63b8ff" points="899.24,-86.44 895.93,-76.37 892.24,-86.3 899.24,-86.44"/>
</a>
</g>
</g>
<!-- Node26 -->
<g id="Node000026" class="node">
<title>Node26</title>
<g id="a_Node000026"><a xlink:href="time_8h.html" target="_top" xlink:title=" ">
<polygon fill="white" stroke="#666666" points="1009.25,-74.5 949,-74.5 949,-55.25 1009.25,-55.25 1009.25,-74.5"/>
<text text-anchor="middle" x="979.12" y="-61" font-family="Helvetica,sans-Serif" font-size="10.00">sys/time.h</text>
</a>
</g>
</g>
<!-- Node25&#45;&gt;Node26 -->
<g id="edge48_Node000025_Node000026" class="edge">
<title>Node25&#45;&gt;Node26</title>
<g id="a_edge48_Node000025_Node000026"><a xlink:title=" ">
<path fill="none" stroke="#63b8ff" d="M979.12,-110.33C979.12,-103.82 979.12,-94.67 979.12,-86.37"/>
<polygon fill="#63b8ff" stroke="#63b8ff" points="982.63,-86.37 979.13,-76.37 975.63,-86.37 982.63,-86.37"/>
</a>
</g>
</g>
</g>
</svg>
