<?xml version="1.0" encoding="UTF-8" standalone="no"?>
<!DOCTYPE svg PUBLIC "-//W3C//DTD SVG 1.1//EN"
 "http://www.w3.org/Graphics/SVG/1.1/DTD/svg11.dtd">
<!-- Generated by graphviz version 9.0.0 (20230911.1827)
 -->
<!-- Title: iop/system/iopmgr/src/devices.c Pages: 1 -->
<svg width="557pt" height="315pt"
 viewBox="0.00 0.00 557.25 314.75" xmlns="http://www.w3.org/2000/svg" xmlns:xlink="http://www.w3.org/1999/xlink">
<g id="graph0" class="graph" transform="scale(1 1) rotate(0) translate(4 310.75)">
<title>iop/system/iopmgr/src/devices.c</title>
<!-- Node1 -->
<g id="Node000001" class="node">
<title>Node1</title>
<g id="a_Node000001"><a xlink:title=" ">
<polygon fill="#999999" stroke="#666666" points="213.12,-306.75 101.12,-306.75 101.12,-276.25 213.12,-276.25 213.12,-306.75"/>
<text text-anchor="start" x="109.12" y="-293.25" font-family="Helvetica,sans-Serif" font-size="10.00">iop/system/iopmgr/src</text>
<text text-anchor="middle" x="157.12" y="-282" font-family="Helvetica,sans-Serif" font-size="10.00">/devices.c</text>
</a>
</g>
</g>
<!-- Node2 -->
<g id="Node000002" class="node">
<title>Node2</title>
<g id="a_Node000002"><a xlink:href="defs_8h.html" target="_top" xlink:title=" ">
<polygon fill="white" stroke="#666666" points="42.25,-240.25 0,-240.25 0,-221 42.25,-221 42.25,-240.25"/>
<text text-anchor="middle" x="21.12" y="-226.75" font-family="Helvetica,sans-Serif" font-size="10.00">defs.h</text>
</a>
</g>
</g>
<!-- Node1&#45;&gt;Node2 -->
<g id="edge1_Node000001_Node000002" class="edge">
<title>Node1&#45;&gt;Node2</title>
<g id="a_edge1_Node000001_Node000002"><a xlink:title=" ">
<path fill="none" stroke="#63b8ff" d="M123.16,-275.8C101.45,-266.4 73.51,-254.3 52.36,-245.14"/>
<polygon fill="#63b8ff" stroke="#63b8ff" points="53.94,-242.02 43.37,-241.26 51.16,-248.44 53.94,-242.02"/>
</a>
</g>
</g>
<!-- Node6 -->
<g id="Node000006" class="node">
<title>Node6</title>
<g id="a_Node000006"><a xlink:href="stdio_8h.html" target="_top" xlink:title=" ">
<polygon fill="white" stroke="#666666" points="179.38,-185 134.88,-185 134.88,-165.75 179.38,-165.75 179.38,-185"/>
<text text-anchor="middle" x="157.12" y="-171.5" font-family="Helvetica,sans-Serif" font-size="10.00">stdio.h</text>
</a>
</g>
</g>
<!-- Node1&#45;&gt;Node6 -->
<g id="edge5_Node000001_Node000006" class="edge">
<title>Node1&#45;&gt;Node6</title>
<g id="a_edge5_Node000001_Node000006"><a xlink:title=" ">
<path fill="none" stroke="#63b8ff" d="M157.12,-276.05C157.12,-256 157.12,-219.65 157.12,-196.82"/>
<polygon fill="#63b8ff" stroke="#63b8ff" points="160.63,-196.96 157.13,-186.96 153.63,-196.96 160.63,-196.96"/>
</a>
</g>
</g>
<!-- Node9 -->
<g id="Node000009" class="node">
<title>Node9</title>
<g id="a_Node000009"><a xlink:href="sysclib_8h.html" target="_top" xlink:title=" ">
<polygon fill="white" stroke="#666666" points="116.88,-185 63.38,-185 63.38,-165.75 116.88,-165.75 116.88,-185"/>
<text text-anchor="middle" x="90.12" y="-171.5" font-family="Helvetica,sans-Serif" font-size="10.00">sysclib.h</text>
</a>
</g>
</g>
<!-- Node1&#45;&gt;Node9 -->
<g id="edge9_Node000001_Node000009" class="edge">
<title>Node1&#45;&gt;Node9</title>
<g id="a_edge9_Node000001_Node000009"><a xlink:title=" ">
<path fill="none" stroke="#63b8ff" d="M148.64,-276.05C136.6,-255.53 114.53,-217.95 101.21,-195.25"/>
<polygon fill="#63b8ff" stroke="#63b8ff" points="104.3,-193.6 96.22,-186.75 98.26,-197.15 104.3,-193.6"/>
</a>
</g>
</g>
<!-- Node12 -->
<g id="Node000012" class="node">
<title>Node12</title>
<g id="a_Node000012"><a xlink:href="ioman_x_8h.html" target="_top" xlink:title=" ">
<polygon fill="white" stroke="#666666" points="254.38,-185 197.88,-185 197.88,-165.75 254.38,-165.75 254.38,-185"/>
<text text-anchor="middle" x="226.12" y="-171.5" font-family="Helvetica,sans-Serif" font-size="10.00">iomanX.h</text>
</a>
</g>
</g>
<!-- Node1&#45;&gt;Node12 -->
<g id="edge16_Node000001_Node000012" class="edge">
<title>Node1&#45;&gt;Node12</title>
<g id="a_edge16_Node000001_Node000012"><a xlink:title=" ">
<path fill="none" stroke="#63b8ff" d="M165.86,-276.05C178.27,-255.53 200.99,-217.95 214.71,-195.25"/>
<polygon fill="#63b8ff" stroke="#63b8ff" points="217.68,-197.11 219.86,-186.74 211.69,-193.49 217.68,-197.11"/>
</a>
</g>
</g>
<!-- Node18 -->
<g id="Node000018" class="node">
<title>Node18</title>
<g id="a_Node000018"><a xlink:href="iopmgr_8h.html" target="_top" xlink:title=" ">
<polygon fill="white" stroke="#666666" points="400.5,-240.25 347.75,-240.25 347.75,-221 400.5,-221 400.5,-240.25"/>
<text text-anchor="middle" x="374.12" y="-226.75" font-family="Helvetica,sans-Serif" font-size="10.00">iopmgr.h</text>
</a>
</g>
</g>
<!-- Node1&#45;&gt;Node18 -->
<g id="edge24_Node000001_Node000018" class="edge">
<title>Node1&#45;&gt;Node18</title>
<g id="a_edge24_Node000001_Node000018"><a xlink:title=" ">
<path fill="none" stroke="#63b8ff" d="M211.32,-275.8C250.23,-265.24 301.7,-251.28 336.26,-241.9"/>
<polygon fill="#63b8ff" stroke="#63b8ff" points="337.09,-245.3 345.83,-239.3 335.26,-238.54 337.09,-245.3"/>
</a>
</g>
</g>
<!-- Node3 -->
<g id="Node000003" class="node">
<title>Node3</title>
<g id="a_Node000003"><a xlink:href="iop_2kernel_2include_2types_8h_source.html" target="_top" xlink:title=" ">
<polygon fill="white" stroke="#666666" points="314.5,-74.5 267.75,-74.5 267.75,-55.25 314.5,-55.25 314.5,-74.5"/>
<text text-anchor="middle" x="291.12" y="-61" font-family="Helvetica,sans-Serif" font-size="10.00">types.h</text>
</a>
</g>
</g>
<!-- Node2&#45;&gt;Node3 -->
<g id="edge2_Node000002_Node000003" class="edge">
<title>Node2&#45;&gt;Node3</title>
<g id="a_edge2_Node000002_Node000003"><a xlink:title=" ">
<path fill="none" stroke="#63b8ff" d="M17.38,-220.51C9.04,-198.58 -8.27,-142.33 19.12,-110.5 52.18,-72.1 188.74,-83.73 256.06,-74.33"/>
<polygon fill="#63b8ff" stroke="#63b8ff" points="256.64,-77.78 265.91,-72.65 255.46,-70.88 256.64,-77.78"/>
</a>
</g>
</g>
<!-- Node4 -->
<g id="Node000004" class="node">
<title>Node4</title>
<g id="a_Node000004"><a xlink:title=" ">
<polygon fill="#e0e0e0" stroke="#999999" points="316.38,-19.25 265.88,-19.25 265.88,0 316.38,0 316.38,-19.25"/>
<text text-anchor="middle" x="291.12" y="-5.75" font-family="Helvetica,sans-Serif" font-size="10.00">stddef.h</text>
</a>
</g>
</g>
<!-- Node3&#45;&gt;Node4 -->
<g id="edge3_Node000003_Node000004" class="edge">
<title>Node3&#45;&gt;Node4</title>
<g id="a_edge3_Node000003_Node000004"><a xlink:title=" ">
<path fill="none" stroke="#63b8ff" d="M291.12,-55.08C291.12,-48.57 291.12,-39.42 291.12,-31.12"/>
<polygon fill="#63b8ff" stroke="#63b8ff" points="294.63,-31.12 291.13,-21.12 287.63,-31.12 294.63,-31.12"/>
</a>
</g>
</g>
<!-- Node5 -->
<g id="Node000005" class="node">
<title>Node5</title>
<g id="a_Node000005"><a xlink:href="tamtypes_8h.html" target="_top" xlink:title=" ">
<polygon fill="white" stroke="#666666" points="211.75,-19.25 148.5,-19.25 148.5,0 211.75,0 211.75,-19.25"/>
<text text-anchor="middle" x="180.12" y="-5.75" font-family="Helvetica,sans-Serif" font-size="10.00">tamtypes.h</text>
</a>
</g>
</g>
<!-- Node3&#45;&gt;Node5 -->
<g id="edge4_Node000003_Node000005" class="edge">
<title>Node3&#45;&gt;Node5</title>
<g id="a_edge4_Node000003_Node000005"><a xlink:title=" ">
<path fill="none" stroke="#63b8ff" d="M272.3,-54.84C255.07,-46.58 229.32,-34.23 209.42,-24.68"/>
<polygon fill="#63b8ff" stroke="#63b8ff" points="210.94,-21.53 200.41,-20.36 207.91,-27.84 210.94,-21.53"/>
</a>
</g>
</g>
<!-- Node7 -->
<g id="Node000007" class="node">
<title>Node7</title>
<g id="a_Node000007"><a xlink:title=" ">
<polygon fill="#e0e0e0" stroke="#999999" points="180.38,-129.75 129.88,-129.75 129.88,-110.5 180.38,-110.5 180.38,-129.75"/>
<text text-anchor="middle" x="155.12" y="-116.25" font-family="Helvetica,sans-Serif" font-size="10.00">stdarg.h</text>
</a>
</g>
</g>
<!-- Node6&#45;&gt;Node7 -->
<g id="edge6_Node000006_Node000007" class="edge">
<title>Node6&#45;&gt;Node7</title>
<g id="a_edge6_Node000006_Node000007"><a xlink:title=" ">
<path fill="none" stroke="#63b8ff" d="M156.79,-165.58C156.55,-158.99 156.2,-149.71 155.88,-141.32"/>
<polygon fill="#63b8ff" stroke="#63b8ff" points="159.39,-141.48 155.52,-131.62 152.4,-141.75 159.39,-141.48"/>
</a>
</g>
</g>
<!-- Node8 -->
<g id="Node000008" class="node">
<title>Node8</title>
<g id="a_Node000008"><a xlink:href="irx_8h.html" target="_top" xlink:title=" ">
<polygon fill="white" stroke="#666666" points="383.75,-129.75 350.5,-129.75 350.5,-110.5 383.75,-110.5 383.75,-129.75"/>
<text text-anchor="middle" x="367.12" y="-116.25" font-family="Helvetica,sans-Serif" font-size="10.00">irx.h</text>
</a>
</g>
</g>
<!-- Node6&#45;&gt;Node8 -->
<g id="edge7_Node000006_Node000008" class="edge">
<title>Node6&#45;&gt;Node8</title>
<g id="a_edge7_Node000006_Node000008"><a xlink:title=" ">
<path fill="none" stroke="#63b8ff" d="M179.84,-168.2C182.96,-167.37 186.12,-166.53 189.12,-165.75 242.17,-151.95 304.32,-136.54 339.37,-127.92"/>
<polygon fill="#63b8ff" stroke="#63b8ff" points="339.82,-131.42 348.7,-125.63 338.15,-124.62 339.82,-131.42"/>
</a>
</g>
</g>
<!-- Node8&#45;&gt;Node3 -->
<g id="edge8_Node000008_Node000003" class="edge">
<title>Node8&#45;&gt;Node3</title>
<g id="a_edge8_Node000008_Node000003"><a xlink:title=" ">
<path fill="none" stroke="#63b8ff" d="M354.23,-110.09C343.1,-102.29 326.75,-90.84 313.49,-81.54"/>
<polygon fill="#63b8ff" stroke="#63b8ff" points="315.52,-78.69 305.32,-75.82 311.5,-84.43 315.52,-78.69"/>
</a>
</g>
</g>
<!-- Node9&#45;&gt;Node3 -->
<g id="edge10_Node000009_Node000003" class="edge">
<title>Node9&#45;&gt;Node3</title>
<g id="a_edge10_Node000009_Node000003"><a xlink:title=" ">
<path fill="none" stroke="#63b8ff" d="M91.94,-165.48C95.25,-151.6 103.6,-124.9 121.12,-110.5 121.46,-110.22 207.09,-87.83 256.67,-74.87"/>
<polygon fill="#63b8ff" stroke="#63b8ff" points="257.29,-78.33 266.08,-72.41 255.52,-71.55 257.29,-78.33"/>
</a>
</g>
</g>
<!-- Node9&#45;&gt;Node7 -->
<g id="edge12_Node000009_Node000007" class="edge">
<title>Node9&#45;&gt;Node7</title>
<g id="a_edge12_Node000009_Node000007"><a xlink:title=" ">
<path fill="none" stroke="#63b8ff" d="M101.15,-165.34C110.55,-157.65 124.27,-146.4 135.53,-137.18"/>
<polygon fill="#63b8ff" stroke="#63b8ff" points="137.57,-140.03 143.09,-130.98 133.14,-134.61 137.57,-140.03"/>
</a>
</g>
</g>
<!-- Node9&#45;&gt;Node8 -->
<g id="edge11_Node000009_Node000008" class="edge">
<title>Node9&#45;&gt;Node8</title>
<g id="a_edge11_Node000009_Node000008"><a xlink:title=" ">
<path fill="none" stroke="#63b8ff" d="M117.22,-167.72C120.22,-167.04 123.23,-166.36 126.12,-165.75 202.76,-149.49 293.83,-133.53 338.92,-125.86"/>
<polygon fill="#63b8ff" stroke="#63b8ff" points="339.35,-129.33 348.63,-124.21 338.18,-122.43 339.35,-129.33"/>
</a>
</g>
</g>
<!-- Node10 -->
<g id="Node000010" class="node">
<title>Node10</title>
<g id="a_Node000010"><a xlink:href="setjmp_8h.html" target="_top" xlink:title=" ">
<polygon fill="white" stroke="#666666" points="83.5,-74.5 30.75,-74.5 30.75,-55.25 83.5,-55.25 83.5,-74.5"/>
<text text-anchor="middle" x="57.12" y="-61" font-family="Helvetica,sans-Serif" font-size="10.00">setjmp.h</text>
</a>
</g>
</g>
<!-- Node9&#45;&gt;Node10 -->
<g id="edge13_Node000009_Node000010" class="edge">
<title>Node9&#45;&gt;Node10</title>
<g id="a_edge13_Node000009_Node000010"><a xlink:title=" ">
<path fill="none" stroke="#63b8ff" d="M63.55,-165.26C47.57,-158.25 28.56,-146.83 19.12,-129.75 10.11,-113.44 23.35,-95.21 36.61,-82.42"/>
<polygon fill="#63b8ff" stroke="#63b8ff" points="38.82,-85.14 43.96,-75.87 34.17,-79.91 38.82,-85.14"/>
</a>
</g>
</g>
<!-- Node11 -->
<g id="Node000011" class="node">
<title>Node11</title>
<g id="a_Node000011"><a xlink:href="ctype_8h.html" target="_top" xlink:title=" ">
<polygon fill="white" stroke="#666666" points="74.5,-129.75 27.75,-129.75 27.75,-110.5 74.5,-110.5 74.5,-129.75"/>
<text text-anchor="middle" x="51.12" y="-116.25" font-family="Helvetica,sans-Serif" font-size="10.00">ctype.h</text>
</a>
</g>
</g>
<!-- Node9&#45;&gt;Node11 -->
<g id="edge15_Node000009_Node000011" class="edge">
<title>Node9&#45;&gt;Node11</title>
<g id="a_edge15_Node000009_Node000011"><a xlink:title=" ">
<path fill="none" stroke="#63b8ff" d="M83.68,-165.58C78.47,-158.46 70.94,-148.18 64.43,-139.3"/>
<polygon fill="#63b8ff" stroke="#63b8ff" points="67.33,-137.33 58.6,-131.33 61.68,-141.47 67.33,-137.33"/>
</a>
</g>
</g>
<!-- Node10&#45;&gt;Node5 -->
<g id="edge14_Node000010_Node000005" class="edge">
<title>Node10&#45;&gt;Node5</title>
<g id="a_edge14_Node000010_Node000005"><a xlink:title=" ">
<path fill="none" stroke="#63b8ff" d="M77.99,-54.84C97.43,-46.43 126.67,-33.77 148.89,-24.15"/>
<polygon fill="#63b8ff" stroke="#63b8ff" points="149.98,-27.49 157.77,-20.3 147.2,-21.06 149.98,-27.49"/>
</a>
</g>
</g>
<!-- Node12&#45;&gt;Node3 -->
<g id="edge17_Node000012_Node000003" class="edge">
<title>Node12&#45;&gt;Node3</title>
<g id="a_edge17_Node000012_Node000003"><a xlink:title=" ">
<path fill="none" stroke="#63b8ff" d="M235.47,-165.52C244.06,-157 256.7,-143.41 265.12,-129.75 273.69,-115.86 280.5,-98.66 285,-85.6"/>
<polygon fill="#63b8ff" stroke="#63b8ff" points="288.22,-87.03 288,-76.44 281.57,-84.85 288.22,-87.03"/>
</a>
</g>
</g>
<!-- Node12&#45;&gt;Node7 -->
<g id="edge18_Node000012_Node000007" class="edge">
<title>Node12&#45;&gt;Node7</title>
<g id="a_edge18_Node000012_Node000007"><a xlink:title=" ">
<path fill="none" stroke="#63b8ff" d="M214.08,-165.34C203.72,-157.57 188.52,-146.17 176.16,-136.9"/>
<polygon fill="#63b8ff" stroke="#63b8ff" points="178.3,-134.13 168.2,-130.93 174.1,-139.73 178.3,-134.13"/>
</a>
</g>
</g>
<!-- Node13 -->
<g id="Node000013" class="node">
<title>Node13</title>
<g id="a_Node000013"><a xlink:href="io__common_8h.html" target="_top" xlink:title=" ">
<polygon fill="white" stroke="#666666" points="515,-129.75 441.25,-129.75 441.25,-110.5 515,-110.5 515,-129.75"/>
<text text-anchor="middle" x="478.12" y="-116.25" font-family="Helvetica,sans-Serif" font-size="10.00">io_common.h</text>
</a>
</g>
</g>
<!-- Node12&#45;&gt;Node13 -->
<g id="edge19_Node000012_Node000013" class="edge">
<title>Node12&#45;&gt;Node13</title>
<g id="a_edge19_Node000012_Node000013"><a xlink:title=" ">
<path fill="none" stroke="#63b8ff" d="M254.79,-167.62C257.61,-166.98 260.42,-166.35 263.12,-165.75 320.2,-153.18 386.02,-139.66 429.64,-130.84"/>
<polygon fill="#63b8ff" stroke="#63b8ff" points="430.19,-134.3 439.3,-128.89 428.8,-127.44 430.19,-134.3"/>
</a>
</g>
</g>
<!-- Node16 -->
<g id="Node000016" class="node">
<title>Node16</title>
<g id="a_Node000016"><a xlink:href="iox__stat_8h.html" target="_top" xlink:title=" ">
<polygon fill="white" stroke="#666666" points="255.75,-129.75 198.5,-129.75 198.5,-110.5 255.75,-110.5 255.75,-129.75"/>
<text text-anchor="middle" x="227.12" y="-116.25" font-family="Helvetica,sans-Serif" font-size="10.00">iox_stat.h</text>
</a>
</g>
</g>
<!-- Node12&#45;&gt;Node16 -->
<g id="edge22_Node000012_Node000016" class="edge">
<title>Node12&#45;&gt;Node16</title>
<g id="a_edge22_Node000012_Node000016"><a xlink:title=" ">
<path fill="none" stroke="#63b8ff" d="M226.29,-165.58C226.41,-159.07 226.58,-149.92 226.74,-141.62"/>
<polygon fill="#63b8ff" stroke="#63b8ff" points="230.24,-141.69 226.93,-131.62 223.24,-141.55 230.24,-141.69"/>
</a>
</g>
</g>
<!-- Node14 -->
<g id="Node000014" class="node">
<title>Node14</title>
<g id="a_Node000014"><a xlink:href="fcntl_8h_source.html" target="_top" xlink:title=" ">
<polygon fill="white" stroke="#666666" points="549.25,-74.5 489,-74.5 489,-55.25 549.25,-55.25 549.25,-74.5"/>
<text text-anchor="middle" x="519.12" y="-61" font-family="Helvetica,sans-Serif" font-size="10.00">sys/fcntl.h</text>
</a>
</g>
</g>
<!-- Node13&#45;&gt;Node14 -->
<g id="edge20_Node000013_Node000014" class="edge">
<title>Node13&#45;&gt;Node14</title>
<g id="a_edge20_Node000013_Node000014"><a xlink:title=" ">
<path fill="none" stroke="#63b8ff" d="M484.9,-110.33C490.44,-103.13 498.47,-92.71 505.35,-83.76"/>
<polygon fill="#63b8ff" stroke="#63b8ff" points="507.96,-86.12 511.28,-76.06 502.41,-81.85 507.96,-86.12"/>
</a>
</g>
</g>
<!-- Node15 -->
<g id="Node000015" class="node">
<title>Node15</title>
<g id="a_Node000015"><a xlink:href="unistd_8h_source.html" target="_top" xlink:title=" ">
<polygon fill="white" stroke="#666666" points="471,-74.5 403.25,-74.5 403.25,-55.25 471,-55.25 471,-74.5"/>
<text text-anchor="middle" x="437.12" y="-61" font-family="Helvetica,sans-Serif" font-size="10.00">sys/unistd.h</text>
</a>
</g>
</g>
<!-- Node13&#45;&gt;Node15 -->
<g id="edge21_Node000013_Node000015" class="edge">
<title>Node13&#45;&gt;Node15</title>
<g id="a_edge21_Node000013_Node000015"><a xlink:title=" ">
<path fill="none" stroke="#63b8ff" d="M471.35,-110.33C465.81,-103.13 457.78,-92.71 450.9,-83.76"/>
<polygon fill="#63b8ff" stroke="#63b8ff" points="453.84,-81.85 444.97,-76.06 448.29,-86.12 453.84,-81.85"/>
</a>
</g>
</g>
<!-- Node17 -->
<g id="Node000017" class="node">
<title>Node17</title>
<g id="a_Node000017"><a xlink:href="time_8h.html" target="_top" xlink:title=" ">
<polygon fill="white" stroke="#666666" points="249.25,-74.5 189,-74.5 189,-55.25 249.25,-55.25 249.25,-74.5"/>
<text text-anchor="middle" x="219.12" y="-61" font-family="Helvetica,sans-Serif" font-size="10.00">sys/time.h</text>
</a>
</g>
</g>
<!-- Node16&#45;&gt;Node17 -->
<g id="edge23_Node000016_Node000017" class="edge">
<title>Node16&#45;&gt;Node17</title>
<g id="a_edge23_Node000016_Node000017"><a xlink:title=" ">
<path fill="none" stroke="#63b8ff" d="M225.8,-110.33C224.81,-103.74 223.42,-94.46 222.16,-86.07"/>
<polygon fill="#63b8ff" stroke="#63b8ff" points="225.65,-85.72 220.7,-76.36 218.72,-86.76 225.65,-85.72"/>
</a>
</g>
</g>
<!-- Node18&#45;&gt;Node8 -->
<g id="edge26_Node000018_Node000008" class="edge">
<title>Node18&#45;&gt;Node8</title>
<g id="a_edge26_Node000018_Node000008"><a xlink:title=" ">
<path fill="none" stroke="#63b8ff" d="M383.79,-220.8C395.79,-208.71 413.8,-186.19 406.12,-165.75 402.09,-155 394.16,-145.14 386.5,-137.44"/>
<polygon fill="#63b8ff" stroke="#63b8ff" points="389.3,-135.26 379.59,-131.02 384.53,-140.39 389.3,-135.26"/>
</a>
</g>
</g>
<!-- Node19 -->
<g id="Node000019" class="node">
<title>Node19</title>
<g id="a_Node000019"><a xlink:title=" ">
<polygon fill="#e0e0e0" stroke="#999999" points="397.5,-185 350.75,-185 350.75,-165.75 397.5,-165.75 397.5,-185"/>
<text text-anchor="middle" x="374.12" y="-171.5" font-family="Helvetica,sans-Serif" font-size="10.00">types.h</text>
</a>
</g>
</g>
<!-- Node18&#45;&gt;Node19 -->
<g id="edge25_Node000018_Node000019" class="edge">
<title>Node18&#45;&gt;Node19</title>
<g id="a_edge25_Node000018_Node000019"><a xlink:title=" ">
<path fill="none" stroke="#63b8ff" d="M374.12,-220.83C374.12,-214.32 374.12,-205.17 374.12,-196.87"/>
<polygon fill="#63b8ff" stroke="#63b8ff" points="377.63,-196.87 374.13,-186.87 370.63,-196.87 377.63,-196.87"/>
</a>
</g>
</g>
<!-- Node20 -->
<g id="Node000020" class="node">
<title>Node20</title>
<g id="a_Node000020"><a xlink:href="ioman_8h.html" target="_top" xlink:title=" ">
<polygon fill="white" stroke="#666666" points="503,-185 453.25,-185 453.25,-165.75 503,-165.75 503,-185"/>
<text text-anchor="middle" x="478.12" y="-171.5" font-family="Helvetica,sans-Serif" font-size="10.00">ioman.h</text>
</a>
</g>
</g>
<!-- Node18&#45;&gt;Node20 -->
<g id="edge27_Node000018_Node000020" class="edge">
<title>Node18&#45;&gt;Node20</title>
<g id="a_edge27_Node000018_Node000020"><a xlink:title=" ">
<path fill="none" stroke="#63b8ff" d="M391.77,-220.59C407.75,-212.41 431.58,-200.21 450.16,-190.69"/>
<polygon fill="#63b8ff" stroke="#63b8ff" points="451.74,-193.82 459.05,-186.14 448.55,-187.58 451.74,-193.82"/>
</a>
</g>
</g>
<!-- Node21 -->
<g id="Node000021" class="node">
<title>Node21</title>
<g id="a_Node000021"><a xlink:href="loadcore_8h.html" target="_top" xlink:title=" ">
<polygon fill="white" stroke="#666666" points="332.25,-185 272,-185 272,-165.75 332.25,-165.75 332.25,-185"/>
<text text-anchor="middle" x="302.12" y="-171.5" font-family="Helvetica,sans-Serif" font-size="10.00">loadcore.h</text>
</a>
</g>
</g>
<!-- Node18&#45;&gt;Node21 -->
<g id="edge31_Node000018_Node000021" class="edge">
<title>Node18&#45;&gt;Node21</title>
<g id="a_edge31_Node000018_Node000021"><a xlink:title=" ">
<path fill="none" stroke="#63b8ff" d="M361.91,-220.59C351.3,-212.74 335.69,-201.2 323.08,-191.87"/>
<polygon fill="#63b8ff" stroke="#63b8ff" points="325.5,-189.31 315.38,-186.17 321.33,-194.94 325.5,-189.31"/>
</a>
</g>
</g>
<!-- Node20&#45;&gt;Node3 -->
<g id="edge28_Node000020_Node000003" class="edge">
<title>Node20&#45;&gt;Node3</title>
<g id="a_edge28_Node000020_Node000003"><a xlink:title=" ">
<path fill="none" stroke="#63b8ff" d="M467.69,-165.26C452.19,-152.03 421.82,-127.25 393.12,-110.5 371.58,-97.92 345.82,-86.68 325.58,-78.63"/>
<polygon fill="#63b8ff" stroke="#63b8ff" points="326.97,-75.41 316.38,-75.04 324.43,-81.93 326.97,-75.41"/>
</a>
</g>
</g>
<!-- Node20&#45;&gt;Node8 -->
<g id="edge29_Node000020_Node000008" class="edge">
<title>Node20&#45;&gt;Node8</title>
<g id="a_edge29_Node000020_Node000008"><a xlink:title=" ">
<path fill="none" stroke="#63b8ff" d="M459.3,-165.34C441.47,-156.79 414.51,-143.86 394.34,-134.18"/>
<polygon fill="#63b8ff" stroke="#63b8ff" points="396.12,-131.15 385.59,-129.98 393.09,-137.46 396.12,-131.15"/>
</a>
</g>
</g>
<!-- Node20&#45;&gt;Node13 -->
<g id="edge30_Node000020_Node000013" class="edge">
<title>Node20&#45;&gt;Node13</title>
<g id="a_edge30_Node000020_Node000013"><a xlink:title=" ">
<path fill="none" stroke="#63b8ff" d="M478.12,-165.58C478.12,-159.07 478.12,-149.92 478.12,-141.62"/>
<polygon fill="#63b8ff" stroke="#63b8ff" points="481.63,-141.62 478.13,-131.62 474.63,-141.62 481.63,-141.62"/>
</a>
</g>
</g>
<!-- Node21&#45;&gt;Node3 -->
<g id="edge32_Node000021_Node000003" class="edge">
<title>Node21&#45;&gt;Node3</title>
<g id="a_edge32_Node000021_Node000003"><a xlink:title=" ">
<path fill="none" stroke="#63b8ff" d="M301.82,-165.26C301.35,-152.84 300.25,-129.94 298.12,-110.5 297.24,-102.41 295.92,-93.55 294.67,-85.87"/>
<polygon fill="#63b8ff" stroke="#63b8ff" points="298.15,-85.49 293.02,-76.22 291.25,-86.67 298.15,-85.49"/>
</a>
</g>
</g>
<!-- Node21&#45;&gt;Node8 -->
<g id="edge33_Node000021_Node000008" class="edge">
<title>Node21&#45;&gt;Node8</title>
<g id="a_edge33_Node000021_Node000008"><a xlink:title=" ">
<path fill="none" stroke="#63b8ff" d="M313.15,-165.34C322.55,-157.65 336.27,-146.4 347.53,-137.18"/>
<polygon fill="#63b8ff" stroke="#63b8ff" points="349.57,-140.03 355.09,-130.98 345.14,-134.61 349.57,-140.03"/>
</a>
</g>
</g>
</g>
</svg>
