<?xml version="1.0" encoding="UTF-8" standalone="no"?>
<!DOCTYPE svg PUBLIC "-//W3C//DTD SVG 1.1//EN"
 "http://www.w3.org/Graphics/SVG/1.1/DTD/svg11.dtd">
<!-- Generated by graphviz version 2.43.0 (0)
 -->
<!-- Title: iop/sio Pages: 1 -->
<svg width="354pt" height="375pt"
 viewBox="0.00 0.00 354.34 375.00" xmlns="http://www.w3.org/2000/svg" xmlns:xlink="http://www.w3.org/1999/xlink">
<g id="graph0" class="graph" transform="scale(1 1) rotate(0) translate(4 371)">
<title>iop/sio</title>
<polygon fill="white" stroke="transparent" points="-4,4 -4,-371 350.34,-371 350.34,4 -4,4"/>
<g id="clust1" class="cluster">
<title>clusterdir_0981ace215aa2029f526b70c145b9fbe</title>
<g id="a_clust1"><a xlink:href="dir_0981ace215aa2029f526b70c145b9fbe.html" target="_top" xlink:title="iop">
<polygon fill="#ddddee" stroke="black" points="8,-200 8,-359 264,-359 264,-200 8,-200"/>
<text text-anchor="middle" x="136" y="-347" font-family="Helvetica,sans-Serif" font-size="10.00">iop</text>
</a>
</g>
</g>
<g id="clust2" class="cluster">
<title>clusterdir_6133ef156cce03413acfdeebec722ba1</title>
<g id="a_clust2"><a xlink:href="dir_6133ef156cce03413acfdeebec722ba1.html" target="_top">
<polygon fill="#eeeeff" stroke="black" points="16,-208 16,-332 256,-332 256,-208 16,-208"/>
</a>
</g>
</g>
<!-- dir_6133ef156cce03413acfdeebec722ba1 -->
<g id="node1" class="node">
<title>dir_6133ef156cce03413acfdeebec722ba1</title>
<text text-anchor="middle" x="221" y="-303.5" font-family="Helvetica,sans-Serif" font-size="10.00">sio</text>
</g>
<!-- dir_a4e67f1f26c786efcb65152c9bde5a70 -->
<g id="node2" class="node">
<title>dir_a4e67f1f26c786efcb65152c9bde5a70</title>
<g id="a_node2"><a xlink:href="dir_a4e67f1f26c786efcb65152c9bde5a70.html" target="_top" xlink:title="mtapman">
<polygon fill="white" stroke="red" points="88,-324 24,-324 24,-288 88,-288 88,-324"/>
<text text-anchor="middle" x="56" y="-303.5" font-family="Helvetica,sans-Serif" font-size="10.00">mtapman</text>
</a>
</g>
</g>
<!-- dir_2b715144a97ae64ccc5e8147b0a5bdab -->
<g id="node4" class="node">
<title>dir_2b715144a97ae64ccc5e8147b0a5bdab</title>
<g id="a_node4"><a xlink:href="dir_2b715144a97ae64ccc5e8147b0a5bdab.html" target="_top" xlink:title="sio2man">
<polygon fill="white" stroke="red" points="177.5,-252 118.5,-252 118.5,-216 177.5,-216 177.5,-252"/>
<text text-anchor="middle" x="148" y="-231.5" font-family="Helvetica,sans-Serif" font-size="10.00">sio2man</text>
</a>
</g>
</g>
<!-- dir_a4e67f1f26c786efcb65152c9bde5a70&#45;&gt;dir_2b715144a97ae64ccc5e8147b0a5bdab -->
<g id="edge12" class="edge">
<title>dir_a4e67f1f26c786efcb65152c9bde5a70&#45;&gt;dir_2b715144a97ae64ccc5e8147b0a5bdab</title>
<path fill="none" stroke="black" d="M78.74,-287.7C90.44,-278.8 104.86,-267.82 117.51,-258.2"/>
<polygon fill="black" stroke="black" points="119.68,-260.94 125.52,-252.1 115.44,-255.37 119.68,-260.94"/>
<g id="a_edge12&#45;headlabel"><a xlink:href="dir_000201_000205.html" target="_top" xlink:title="2">
<text text-anchor="middle" x="118.54" y="-262.88" font-family="Helvetica,sans-Serif" font-size="10.00">2</text>
</a>
</g>
</g>
<!-- dir_9be0baa3d4a3e9f480a9ee70594037fa -->
<g id="node5" class="node">
<title>dir_9be0baa3d4a3e9f480a9ee70594037fa</title>
<g id="a_node5"><a xlink:href="dir_9be0baa3d4a3e9f480a9ee70594037fa.html" target="_top" xlink:title="kernel">
<polygon fill="white" stroke="red" points="271,-180 217,-180 217,-144 271,-144 271,-180"/>
<text text-anchor="middle" x="244" y="-159.5" font-family="Helvetica,sans-Serif" font-size="10.00">kernel</text>
</a>
</g>
</g>
<!-- dir_a4e67f1f26c786efcb65152c9bde5a70&#45;&gt;dir_9be0baa3d4a3e9f480a9ee70594037fa -->
<g id="edge10" class="edge">
<title>dir_a4e67f1f26c786efcb65152c9bde5a70&#45;&gt;dir_9be0baa3d4a3e9f480a9ee70594037fa</title>
<path fill="none" stroke="black" d="M88.21,-291.6C91.18,-290.38 94.15,-289.16 97,-288 136.9,-271.75 153.85,-279.52 187,-252 208.06,-234.52 205.22,-223.04 220,-200 222.33,-196.38 224.79,-192.56 227.21,-188.81"/>
<polygon fill="black" stroke="black" points="230.23,-190.59 232.73,-180.29 224.36,-186.78 230.23,-190.59"/>
<g id="a_edge10&#45;headlabel"><a xlink:href="dir_000201_000530.html" target="_top" xlink:title="4">
<text text-anchor="middle" x="230.66" y="-192.65" font-family="Helvetica,sans-Serif" font-size="10.00">4</text>
</a>
</g>
</g>
<!-- dir_40ac35421bc63b72c26b6c69b1517fd6 -->
<g id="node6" class="node">
<title>dir_40ac35421bc63b72c26b6c69b1517fd6</title>
<g id="a_node6"><a xlink:href="dir_40ac35421bc63b72c26b6c69b1517fd6.html" target="_top" xlink:title="system">
<polygon fill="white" stroke="red" points="213,-36 159,-36 159,0 213,0 213,-36"/>
<text text-anchor="middle" x="186" y="-15.5" font-family="Helvetica,sans-Serif" font-size="10.00">system</text>
</a>
</g>
</g>
<!-- dir_a4e67f1f26c786efcb65152c9bde5a70&#45;&gt;dir_40ac35421bc63b72c26b6c69b1517fd6 -->
<g id="edge11" class="edge">
<title>dir_a4e67f1f26c786efcb65152c9bde5a70&#45;&gt;dir_40ac35421bc63b72c26b6c69b1517fd6</title>
<path fill="none" stroke="black" d="M59.19,-287.8C67.21,-247.61 90.85,-145.41 136,-72 142.36,-61.67 150.97,-51.64 159.25,-43.13"/>
<polygon fill="black" stroke="black" points="161.73,-45.6 166.38,-36.09 156.81,-40.63 161.73,-45.6"/>
<g id="a_edge11&#45;headlabel"><a xlink:href="dir_000201_000226.html" target="_top" xlink:title="12">
<text text-anchor="middle" x="161.17" y="-47.65" font-family="Helvetica,sans-Serif" font-size="10.00">12</text>
</a>
</g>
</g>
<!-- dir_1b4c53ad4cba67b900d09766188e54d5 -->
<g id="node3" class="node">
<title>dir_1b4c53ad4cba67b900d09766188e54d5</title>
<g id="a_node3"><a xlink:href="dir_1b4c53ad4cba67b900d09766188e54d5.html" target="_top" xlink:title="mx4sio_bd">
<polygon fill="white" stroke="red" points="176,-324 106,-324 106,-288 176,-288 176,-324"/>
<text text-anchor="middle" x="141" y="-303.5" font-family="Helvetica,sans-Serif" font-size="10.00">mx4sio_bd</text>
</a>
</g>
</g>
<!-- dir_1b4c53ad4cba67b900d09766188e54d5&#45;&gt;dir_2b715144a97ae64ccc5e8147b0a5bdab -->
<g id="edge15" class="edge">
<title>dir_1b4c53ad4cba67b900d09766188e54d5&#45;&gt;dir_2b715144a97ae64ccc5e8147b0a5bdab</title>
<path fill="none" stroke="black" d="M142.73,-287.7C143.5,-279.98 144.43,-270.71 145.29,-262.11"/>
<polygon fill="black" stroke="black" points="148.78,-262.4 146.29,-252.1 141.81,-261.71 148.78,-262.4"/>
<g id="a_edge15&#45;headlabel"><a xlink:href="dir_000203_000205.html" target="_top" xlink:title="2">
<text text-anchor="middle" x="151.24" y="-263.76" font-family="Helvetica,sans-Serif" font-size="10.00">2</text>
</a>
</g>
</g>
<!-- dir_1b4c53ad4cba67b900d09766188e54d5&#45;&gt;dir_9be0baa3d4a3e9f480a9ee70594037fa -->
<g id="edge13" class="edge">
<title>dir_1b4c53ad4cba67b900d09766188e54d5&#45;&gt;dir_9be0baa3d4a3e9f480a9ee70594037fa</title>
<path fill="none" stroke="black" d="M176.03,-288.76C191.58,-279.92 208.84,-267.57 220,-252 232.99,-233.86 238.95,-209.09 241.69,-190.28"/>
<polygon fill="black" stroke="black" points="245.17,-190.61 242.92,-180.26 238.22,-189.75 245.17,-190.61"/>
<g id="a_edge13&#45;headlabel"><a xlink:href="dir_000203_000530.html" target="_top" xlink:title="1">
<text text-anchor="middle" x="247.55" y="-192.03" font-family="Helvetica,sans-Serif" font-size="10.00">1</text>
</a>
</g>
</g>
<!-- dir_1b4c53ad4cba67b900d09766188e54d5&#45;&gt;dir_40ac35421bc63b72c26b6c69b1517fd6 -->
<g id="edge14" class="edge">
<title>dir_1b4c53ad4cba67b900d09766188e54d5&#45;&gt;dir_40ac35421bc63b72c26b6c69b1517fd6</title>
<path fill="none" stroke="black" d="M127.44,-287.97C120.44,-278.09 112.63,-265.05 109,-252 102.8,-229.74 104.38,-222.65 109,-200 120.85,-141.89 152.06,-79.32 170.91,-45.09"/>
<polygon fill="black" stroke="black" points="174.04,-46.65 175.87,-36.21 167.93,-43.23 174.04,-46.65"/>
<g id="a_edge14&#45;headlabel"><a xlink:href="dir_000203_000226.html" target="_top" xlink:title="23">
<text text-anchor="middle" x="174.77" y="-48.67" font-family="Helvetica,sans-Serif" font-size="10.00">23</text>
</a>
</g>
</g>
<!-- dir_f24daea2522ffa8b6dc5fa9cdf5b8f5c -->
<g id="node7" class="node">
<title>dir_f24daea2522ffa8b6dc5fa9cdf5b8f5c</title>
<g id="a_node7"><a xlink:href="dir_f24daea2522ffa8b6dc5fa9cdf5b8f5c.html" target="_top" xlink:title="fs">
<polygon fill="white" stroke="red" points="326,-252 272,-252 272,-216 326,-216 326,-252"/>
<text text-anchor="middle" x="299" y="-231.5" font-family="Helvetica,sans-Serif" font-size="10.00">fs</text>
</a>
</g>
</g>
<!-- dir_1b4c53ad4cba67b900d09766188e54d5&#45;&gt;dir_f24daea2522ffa8b6dc5fa9cdf5b8f5c -->
<g id="edge16" class="edge">
<title>dir_1b4c53ad4cba67b900d09766188e54d5&#45;&gt;dir_f24daea2522ffa8b6dc5fa9cdf5b8f5c</title>
<path fill="none" stroke="black" d="M176.07,-289.46C201.81,-278.06 236.69,-262.6 262.72,-251.07"/>
<polygon fill="black" stroke="black" points="264.15,-254.27 271.88,-247.02 261.32,-247.87 264.15,-254.27"/>
<g id="a_edge16&#45;headlabel"><a xlink:href="dir_000203_000118.html" target="_top" xlink:title="4">
<text text-anchor="middle" x="262.02" y="-255.82" font-family="Helvetica,sans-Serif" font-size="10.00">4</text>
</a>
</g>
</g>
<!-- dir_bdd9a5d540de89e9fe90efdfc6973a4f -->
<g id="node8" class="node">
<title>dir_bdd9a5d540de89e9fe90efdfc6973a4f</title>
<g id="a_node8"><a xlink:href="dir_bdd9a5d540de89e9fe90efdfc6973a4f.html" target="_top" xlink:title="common">
<polygon fill="white" stroke="red" points="273.5,-108 214.5,-108 214.5,-72 273.5,-72 273.5,-108"/>
<text text-anchor="middle" x="244" y="-87.5" font-family="Helvetica,sans-Serif" font-size="10.00">common</text>
</a>
</g>
</g>
<!-- dir_1b4c53ad4cba67b900d09766188e54d5&#45;&gt;dir_bdd9a5d540de89e9fe90efdfc6973a4f -->
<g id="edge17" class="edge">
<title>dir_1b4c53ad4cba67b900d09766188e54d5&#45;&gt;dir_bdd9a5d540de89e9fe90efdfc6973a4f</title>
<path fill="none" stroke="black" d="M176.4,-290.86C179.29,-289.84 182.19,-288.88 185,-288 250.45,-267.6 292.55,-305.84 335,-252 370.26,-207.28 312.97,-147.23 274.45,-114.57"/>
<polygon fill="black" stroke="black" points="276.49,-111.72 266.56,-108.03 272.03,-117.11 276.49,-111.72"/>
<g id="a_edge17&#45;headlabel"><a xlink:href="dir_000203_000000.html" target="_top" xlink:title="1">
<text text-anchor="middle" x="281.07" y="-109.32" font-family="Helvetica,sans-Serif" font-size="10.00">1</text>
</a>
</g>
</g>
<!-- dir_2b715144a97ae64ccc5e8147b0a5bdab&#45;&gt;dir_9be0baa3d4a3e9f480a9ee70594037fa -->
<g id="edge4" class="edge">
<title>dir_2b715144a97ae64ccc5e8147b0a5bdab&#45;&gt;dir_9be0baa3d4a3e9f480a9ee70594037fa</title>
<path fill="none" stroke="black" d="M170.76,-215.76C177.56,-210.65 185.06,-205.07 192,-200 198.21,-195.46 204.88,-190.66 211.3,-186.08"/>
<polygon fill="black" stroke="black" points="213.71,-188.66 219.83,-180.01 209.66,-182.95 213.71,-188.66"/>
<g id="a_edge4&#45;headlabel"><a xlink:href="dir_000205_000530.html" target="_top" xlink:title="2">
<text text-anchor="middle" x="212.43" y="-190.55" font-family="Helvetica,sans-Serif" font-size="10.00">2</text>
</a>
</g>
</g>
<!-- dir_2b715144a97ae64ccc5e8147b0a5bdab&#45;&gt;dir_40ac35421bc63b72c26b6c69b1517fd6 -->
<g id="edge5" class="edge">
<title>dir_2b715144a97ae64ccc5e8147b0a5bdab&#45;&gt;dir_40ac35421bc63b72c26b6c69b1517fd6</title>
<path fill="none" stroke="black" d="M151.05,-215.85C157.63,-178.75 173.25,-90.81 181.19,-46.1"/>
<polygon fill="black" stroke="black" points="184.64,-46.69 182.94,-36.23 177.75,-45.47 184.64,-46.69"/>
<g id="a_edge5&#45;headlabel"><a xlink:href="dir_000205_000226.html" target="_top" xlink:title="4">
<text text-anchor="middle" x="186.8" y="-48.23" font-family="Helvetica,sans-Serif" font-size="10.00">4</text>
</a>
</g>
</g>
<!-- dir_2b715144a97ae64ccc5e8147b0a5bdab&#45;&gt;dir_bdd9a5d540de89e9fe90efdfc6973a4f -->
<g id="edge6" class="edge">
<title>dir_2b715144a97ae64ccc5e8147b0a5bdab&#45;&gt;dir_bdd9a5d540de89e9fe90efdfc6973a4f</title>
<path fill="none" stroke="black" d="M159.48,-215.93C171.55,-198 191.08,-169 208,-144 214.08,-135.02 220.75,-125.19 226.68,-116.46"/>
<polygon fill="black" stroke="black" points="229.58,-118.41 232.31,-108.18 223.8,-114.48 229.58,-118.41"/>
<g id="a_edge6&#45;headlabel"><a xlink:href="dir_000205_000000.html" target="_top" xlink:title="1">
<text text-anchor="middle" x="229.91" y="-120.48" font-family="Helvetica,sans-Serif" font-size="10.00">1</text>
</a>
</g>
</g>
<!-- dir_9be0baa3d4a3e9f480a9ee70594037fa&#45;&gt;dir_bdd9a5d540de89e9fe90efdfc6973a4f -->
<g id="edge1" class="edge">
<title>dir_9be0baa3d4a3e9f480a9ee70594037fa&#45;&gt;dir_bdd9a5d540de89e9fe90efdfc6973a4f</title>
<path fill="none" stroke="black" d="M238.08,-143.7C237.29,-135.98 237.06,-126.71 237.4,-118.11"/>
<polygon fill="black" stroke="black" points="240.9,-118.32 238.1,-108.1 233.92,-117.84 240.9,-118.32"/>
<g id="a_edge1&#45;headlabel"><a xlink:href="dir_000530_000000.html" target="_top" xlink:title="2">
<text text-anchor="middle" x="243.48" y="-119.61" font-family="Helvetica,sans-Serif" font-size="10.00">2</text>
</a>
</g>
</g>
<!-- dir_40ac35421bc63b72c26b6c69b1517fd6&#45;&gt;dir_9be0baa3d4a3e9f480a9ee70594037fa -->
<g id="edge2" class="edge">
<title>dir_40ac35421bc63b72c26b6c69b1517fd6&#45;&gt;dir_9be0baa3d4a3e9f480a9ee70594037fa</title>
<path fill="none" stroke="black" d="M187.78,-36.04C190.15,-54.44 195.37,-84.3 206,-108 210.38,-117.76 216.7,-127.54 222.94,-135.99"/>
<polygon fill="black" stroke="black" points="220.19,-138.16 229.07,-143.95 225.74,-133.89 220.19,-138.16"/>
<g id="a_edge2&#45;headlabel"><a xlink:href="dir_000226_000530.html" target="_top" xlink:title="89">
<text text-anchor="middle" x="215.75" y="-134.55" font-family="Helvetica,sans-Serif" font-size="10.00">89</text>
</a>
</g>
</g>
<!-- dir_40ac35421bc63b72c26b6c69b1517fd6&#45;&gt;dir_bdd9a5d540de89e9fe90efdfc6973a4f -->
<g id="edge3" class="edge">
<title>dir_40ac35421bc63b72c26b6c69b1517fd6&#45;&gt;dir_bdd9a5d540de89e9fe90efdfc6973a4f</title>
<path fill="none" stroke="black" d="M206.07,-36.1C213.79,-44.38 222.37,-54.49 229.5,-63.64"/>
<polygon fill="black" stroke="black" points="226.76,-65.82 235.58,-71.7 232.35,-61.6 226.76,-65.82"/>
<g id="a_edge3&#45;headlabel"><a xlink:href="dir_000226_000000.html" target="_top" xlink:title="30">
<text text-anchor="middle" x="222.33" y="-62.16" font-family="Helvetica,sans-Serif" font-size="10.00">30</text>
</a>
</g>
</g>
<!-- dir_f24daea2522ffa8b6dc5fa9cdf5b8f5c&#45;&gt;dir_9be0baa3d4a3e9f480a9ee70594037fa -->
<g id="edge7" class="edge">
<title>dir_f24daea2522ffa8b6dc5fa9cdf5b8f5c&#45;&gt;dir_9be0baa3d4a3e9f480a9ee70594037fa</title>
<path fill="none" stroke="black" d="M285.4,-215.7C278.88,-207.39 270.93,-197.28 263.75,-188.14"/>
<polygon fill="black" stroke="black" points="266.37,-185.81 257.44,-180.1 260.87,-190.13 266.37,-185.81"/>
<g id="a_edge7&#45;headlabel"><a xlink:href="dir_000118_000530.html" target="_top" xlink:title="29">
<text text-anchor="middle" x="270.82" y="-184.38" font-family="Helvetica,sans-Serif" font-size="10.00">29</text>
</a>
</g>
</g>
<!-- dir_f24daea2522ffa8b6dc5fa9cdf5b8f5c&#45;&gt;dir_40ac35421bc63b72c26b6c69b1517fd6 -->
<g id="edge8" class="edge">
<title>dir_f24daea2522ffa8b6dc5fa9cdf5b8f5c&#45;&gt;dir_40ac35421bc63b72c26b6c69b1517fd6</title>
<path fill="none" stroke="black" d="M302.58,-215.93C308.21,-184.12 315.41,-115.11 283,-72 268.07,-52.14 243.42,-38.81 222.71,-30.49"/>
<polygon fill="black" stroke="black" points="223.81,-27.16 213.22,-26.9 221.34,-33.71 223.81,-27.16"/>
<g id="a_edge8&#45;headlabel"><a xlink:href="dir_000118_000226.html" target="_top" xlink:title="192">
<text text-anchor="middle" x="228.18" y="-23.27" font-family="Helvetica,sans-Serif" font-size="10.00">192</text>
</a>
</g>
</g>
<!-- dir_f24daea2522ffa8b6dc5fa9cdf5b8f5c&#45;&gt;dir_bdd9a5d540de89e9fe90efdfc6973a4f -->
<g id="edge9" class="edge">
<title>dir_f24daea2522ffa8b6dc5fa9cdf5b8f5c&#45;&gt;dir_bdd9a5d540de89e9fe90efdfc6973a4f</title>
<path fill="none" stroke="black" d="M297.3,-215.67C295.05,-197.29 290.11,-167.69 280,-144 275.92,-134.43 270.01,-124.78 264.16,-116.39"/>
<polygon fill="black" stroke="black" points="266.88,-114.17 258.16,-108.15 261.22,-118.29 266.88,-114.17"/>
<g id="a_edge9&#45;headlabel"><a xlink:href="dir_000118_000000.html" target="_top" xlink:title="25">
<text text-anchor="middle" x="271.29" y="-112.91" font-family="Helvetica,sans-Serif" font-size="10.00">25</text>
</a>
</g>
</g>
<!-- dir_bdd9a5d540de89e9fe90efdfc6973a4f&#45;&gt;dir_9be0baa3d4a3e9f480a9ee70594037fa -->
<g id="edge18" class="edge">
<title>dir_bdd9a5d540de89e9fe90efdfc6973a4f&#45;&gt;dir_9be0baa3d4a3e9f480a9ee70594037fa</title>
<path fill="none" stroke="black" d="M249.9,-108.1C250.7,-115.79 250.94,-125.05 250.6,-133.67"/>
<polygon fill="black" stroke="black" points="247.11,-133.48 249.92,-143.7 254.09,-133.96 247.11,-133.48"/>
<g id="a_edge18&#45;headlabel"><a xlink:href="dir_000000_000530.html" target="_top" xlink:title="3">
<text text-anchor="middle" x="244.52" y="-127.2" font-family="Helvetica,sans-Serif" font-size="10.00">3</text>
</a>
</g>
</g>
<!-- dir_bdd9a5d540de89e9fe90efdfc6973a4f&#45;&gt;dir_40ac35421bc63b72c26b6c69b1517fd6 -->
<g id="edge19" class="edge">
<title>dir_bdd9a5d540de89e9fe90efdfc6973a4f&#45;&gt;dir_40ac35421bc63b72c26b6c69b1517fd6</title>
<path fill="none" stroke="black" d="M223.75,-71.7C216.01,-63.39 207.43,-53.28 200.32,-44.14"/>
<polygon fill="black" stroke="black" points="203.09,-41.99 194.28,-36.1 197.49,-46.2 203.09,-41.99"/>
<g id="a_edge19&#45;headlabel"><a xlink:href="dir_000000_000226.html" target="_top" xlink:title="16">
<text text-anchor="middle" x="207.52" y="-40.66" font-family="Helvetica,sans-Serif" font-size="10.00">16</text>
</a>
</g>
</g>
</g>
</svg>
