<?xml version="1.0" encoding="UTF-8" standalone="no"?>
<!DOCTYPE svg PUBLIC "-//W3C//DTD SVG 1.1//EN"
 "http://www.w3.org/Graphics/SVG/1.1/DTD/svg11.dtd">
<!-- Generated by graphviz version 2.43.0 (0)
 -->
<!-- Title: tools Pages: 1 -->
<svg width="647pt" height="204pt"
 viewBox="0.00 0.00 647.00 204.00" xmlns="http://www.w3.org/2000/svg" xmlns:xlink="http://www.w3.org/1999/xlink">
<g id="graph0" class="graph" transform="scale(1 1) rotate(0) translate(4 200)">
<title>tools</title>
<polygon fill="white" stroke="transparent" points="-4,4 -4,-200 643,-200 643,4 -4,4"/>
<g id="clust1" class="cluster">
<title>clusterdir_4eeb864c4eec08c7d6b9d3b0352cfdde</title>
<g id="a_clust1"><a xlink:href="dir_4eeb864c4eec08c7d6b9d3b0352cfdde.html" target="_top">
<polygon fill="#eeeeff" stroke="black" points="8,-136 8,-188 631,-188 631,-136 8,-136"/>
</a>
</g>
</g>
<!-- dir_4eeb864c4eec08c7d6b9d3b0352cfdde -->
<g id="node1" class="node">
<title>dir_4eeb864c4eec08c7d6b9d3b0352cfdde</title>
<text text-anchor="middle" x="596" y="-159.5" font-family="Helvetica,sans-Serif" font-size="10.00">tools</text>
</g>
<!-- dir_7ae3e066c48cbf1e456bf7b5af53fbfa -->
<g id="node2" class="node">
<title>dir_7ae3e066c48cbf1e456bf7b5af53fbfa</title>
<g id="a_node2"><a xlink:href="dir_7ae3e066c48cbf1e456bf7b5af53fbfa.html" target="_top" xlink:title="adpenc">
<polygon fill="white" stroke="red" points="70,-180 16,-180 16,-144 70,-144 70,-180"/>
<text text-anchor="middle" x="43" y="-159.5" font-family="Helvetica,sans-Serif" font-size="10.00">adpenc</text>
</a>
</g>
</g>
<!-- dir_0981ace215aa2029f526b70c145b9fbe -->
<g id="node9" class="node">
<title>dir_0981ace215aa2029f526b70c145b9fbe</title>
<g id="a_node9"><a xlink:href="dir_0981ace215aa2029f526b70c145b9fbe.html" target="_top" xlink:title="iop">
<polygon fill="white" stroke="red" points="324,-108 270,-108 270,-72 324,-72 324,-108"/>
<text text-anchor="middle" x="297" y="-87.5" font-family="Helvetica,sans-Serif" font-size="10.00">iop</text>
</a>
</g>
</g>
<!-- dir_7ae3e066c48cbf1e456bf7b5af53fbfa&#45;&gt;dir_0981ace215aa2029f526b70c145b9fbe -->
<g id="edge9" class="edge">
<title>dir_7ae3e066c48cbf1e456bf7b5af53fbfa&#45;&gt;dir_0981ace215aa2029f526b70c145b9fbe</title>
<path fill="none" stroke="black" d="M65.3,-143.93C69.97,-140.94 75,-138.11 80,-136 140.05,-110.66 215.66,-99.15 259.93,-94.26"/>
<polygon fill="black" stroke="black" points="260.37,-97.74 269.95,-93.21 259.64,-90.77 260.37,-97.74"/>
<g id="a_edge9&#45;headlabel"><a xlink:href="dir_000483_000011.html" target="_top" xlink:title="4">
<text text-anchor="middle" x="257.09" y="-98.44" font-family="Helvetica,sans-Serif" font-size="10.00">4</text>
</a>
</g>
</g>
<!-- dir_bdd9a5d540de89e9fe90efdfc6973a4f -->
<g id="node10" class="node">
<title>dir_bdd9a5d540de89e9fe90efdfc6973a4f</title>
<g id="a_node10"><a xlink:href="dir_bdd9a5d540de89e9fe90efdfc6973a4f.html" target="_top" xlink:title="common">
<polygon fill="white" stroke="red" points="326.5,-36 267.5,-36 267.5,0 326.5,0 326.5,-36"/>
<text text-anchor="middle" x="297" y="-15.5" font-family="Helvetica,sans-Serif" font-size="10.00">common</text>
</a>
</g>
</g>
<!-- dir_7ae3e066c48cbf1e456bf7b5af53fbfa&#45;&gt;dir_bdd9a5d540de89e9fe90efdfc6973a4f -->
<g id="edge10" class="edge">
<title>dir_7ae3e066c48cbf1e456bf7b5af53fbfa&#45;&gt;dir_bdd9a5d540de89e9fe90efdfc6973a4f</title>
<path fill="none" stroke="black" d="M67.97,-143.9C71.97,-141.22 76.09,-138.51 80,-136 125.99,-106.47 136.9,-97.95 185,-72 208.75,-59.19 236.11,-46.21 257.85,-36.3"/>
<polygon fill="black" stroke="black" points="259.43,-39.42 267.1,-32.11 256.55,-33.05 259.43,-39.42"/>
<g id="a_edge10&#45;headlabel"><a xlink:href="dir_000483_000000.html" target="_top" xlink:title="2">
<text text-anchor="middle" x="257.33" y="-40.99" font-family="Helvetica,sans-Serif" font-size="10.00">2</text>
</a>
</g>
</g>
<!-- dir_4aa7630bf94b1e948c1a72cd18b9557b -->
<g id="node3" class="node">
<title>dir_4aa7630bf94b1e948c1a72cd18b9557b</title>
<g id="a_node3"><a xlink:href="dir_4aa7630bf94b1e948c1a72cd18b9557b.html" target="_top" xlink:title="bin2c">
<polygon fill="white" stroke="red" points="318,-180 264,-180 264,-144 318,-144 318,-180"/>
<text text-anchor="middle" x="291" y="-159.5" font-family="Helvetica,sans-Serif" font-size="10.00">bin2c</text>
</a>
</g>
</g>
<!-- dir_4aa7630bf94b1e948c1a72cd18b9557b&#45;&gt;dir_0981ace215aa2029f526b70c145b9fbe -->
<g id="edge4" class="edge">
<title>dir_4aa7630bf94b1e948c1a72cd18b9557b&#45;&gt;dir_0981ace215aa2029f526b70c145b9fbe</title>
<path fill="none" stroke="black" d="M292.48,-143.7C293.14,-135.98 293.94,-126.71 294.68,-118.11"/>
<polygon fill="black" stroke="black" points="298.17,-118.37 295.53,-108.1 291.19,-117.77 298.17,-118.37"/>
<g id="a_edge4&#45;headlabel"><a xlink:href="dir_000600_000011.html" target="_top" xlink:title="2">
<text text-anchor="middle" x="300.69" y="-119.69" font-family="Helvetica,sans-Serif" font-size="10.00">2</text>
</a>
</g>
</g>
<!-- dir_2feef82756d5481f2e3fcf626f1975a7 -->
<g id="node4" class="node">
<title>dir_2feef82756d5481f2e3fcf626f1975a7</title>
<g id="a_node4"><a xlink:href="dir_2feef82756d5481f2e3fcf626f1975a7.html" target="_top" xlink:title="gensymtab">
<polygon fill="white" stroke="red" points="159.5,-180 88.5,-180 88.5,-144 159.5,-144 159.5,-180"/>
<text text-anchor="middle" x="124" y="-159.5" font-family="Helvetica,sans-Serif" font-size="10.00">gensymtab</text>
</a>
</g>
</g>
<!-- dir_2feef82756d5481f2e3fcf626f1975a7&#45;&gt;dir_0981ace215aa2029f526b70c145b9fbe -->
<g id="edge13" class="edge">
<title>dir_2feef82756d5481f2e3fcf626f1975a7&#45;&gt;dir_0981ace215aa2029f526b70c145b9fbe</title>
<path fill="none" stroke="black" d="M153.17,-143.86C158.36,-141.08 163.78,-138.35 169,-136 198.87,-122.57 234.05,-110.45 259.97,-102.18"/>
<polygon fill="black" stroke="black" points="261.27,-105.44 269.76,-99.1 259.17,-98.77 261.27,-105.44"/>
<g id="a_edge13&#45;headlabel"><a xlink:href="dir_000485_000011.html" target="_top" xlink:title="2">
<text text-anchor="middle" x="258.7" y="-106.73" font-family="Helvetica,sans-Serif" font-size="10.00">2</text>
</a>
</g>
</g>
<!-- dir_2feef82756d5481f2e3fcf626f1975a7&#45;&gt;dir_bdd9a5d540de89e9fe90efdfc6973a4f -->
<g id="edge14" class="edge">
<title>dir_2feef82756d5481f2e3fcf626f1975a7&#45;&gt;dir_bdd9a5d540de89e9fe90efdfc6973a4f</title>
<path fill="none" stroke="black" d="M144.87,-143.87C175.65,-118.6 233.34,-71.25 268.15,-42.68"/>
<polygon fill="black" stroke="black" points="270.55,-45.24 276.06,-36.19 266.11,-39.83 270.55,-45.24"/>
<g id="a_edge14&#45;headlabel"><a xlink:href="dir_000485_000000.html" target="_top" xlink:title="1">
<text text-anchor="middle" x="269.57" y="-47.21" font-family="Helvetica,sans-Serif" font-size="10.00">1</text>
</a>
</g>
</g>
<!-- dir_92da0d7cbf784bf8c518f9b82538e0f7 -->
<g id="node5" class="node">
<title>dir_92da0d7cbf784bf8c518f9b82538e0f7</title>
<g id="a_node5"><a xlink:href="dir_92da0d7cbf784bf8c518f9b82538e0f7.html" target="_top" xlink:title="ps2&#45;irxgen">
<polygon fill="white" stroke="red" points="246,-180 178,-180 178,-144 246,-144 246,-180"/>
<text text-anchor="middle" x="212" y="-159.5" font-family="Helvetica,sans-Serif" font-size="10.00">ps2&#45;irxgen</text>
</a>
</g>
</g>
<!-- dir_92da0d7cbf784bf8c518f9b82538e0f7&#45;&gt;dir_0981ace215aa2029f526b70c145b9fbe -->
<g id="edge1" class="edge">
<title>dir_92da0d7cbf784bf8c518f9b82538e0f7&#45;&gt;dir_0981ace215aa2029f526b70c145b9fbe</title>
<path fill="none" stroke="black" d="M233.01,-143.7C243.72,-134.88 256.89,-124.03 268.5,-114.47"/>
<polygon fill="black" stroke="black" points="270.74,-117.16 276.23,-108.1 266.29,-111.76 270.74,-117.16"/>
<g id="a_edge1&#45;headlabel"><a xlink:href="dir_000528_000011.html" target="_top" xlink:title="3">
<text text-anchor="middle" x="269.77" y="-119.14" font-family="Helvetica,sans-Serif" font-size="10.00">3</text>
</a>
</g>
</g>
<!-- dir_47818b46b1cf08114dcb647bd070ea80 -->
<g id="node6" class="node">
<title>dir_47818b46b1cf08114dcb647bd070ea80</title>
<g id="a_node6"><a xlink:href="dir_47818b46b1cf08114dcb647bd070ea80.html" target="_top" xlink:title="ps2adpcm">
<polygon fill="white" stroke="red" points="403.5,-180 336.5,-180 336.5,-144 403.5,-144 403.5,-180"/>
<text text-anchor="middle" x="370" y="-159.5" font-family="Helvetica,sans-Serif" font-size="10.00">ps2adpcm</text>
</a>
</g>
</g>
<!-- dir_47818b46b1cf08114dcb647bd070ea80&#45;&gt;dir_0981ace215aa2029f526b70c145b9fbe -->
<g id="edge2" class="edge">
<title>dir_47818b46b1cf08114dcb647bd070ea80&#45;&gt;dir_0981ace215aa2029f526b70c145b9fbe</title>
<path fill="none" stroke="black" d="M351.96,-143.7C342.94,-135.05 331.88,-124.45 322.06,-115.03"/>
<polygon fill="black" stroke="black" points="324.48,-112.5 314.84,-108.1 319.63,-117.55 324.48,-112.5"/>
<g id="a_edge2&#45;headlabel"><a xlink:href="dir_000487_000011.html" target="_top" xlink:title="4">
<text text-anchor="middle" x="329.04" y="-110.44" font-family="Helvetica,sans-Serif" font-size="10.00">4</text>
</a>
</g>
</g>
<!-- dir_47818b46b1cf08114dcb647bd070ea80&#45;&gt;dir_bdd9a5d540de89e9fe90efdfc6973a4f -->
<g id="edge3" class="edge">
<title>dir_47818b46b1cf08114dcb647bd070ea80&#45;&gt;dir_bdd9a5d540de89e9fe90efdfc6973a4f</title>
<path fill="none" stroke="black" d="M364.03,-143.8C357.42,-125.52 345.96,-96 333,-72 327.98,-62.7 321.72,-53.01 315.85,-44.49"/>
<polygon fill="black" stroke="black" points="318.55,-42.25 309.92,-36.11 312.84,-46.29 318.55,-42.25"/>
<g id="a_edge3&#45;headlabel"><a xlink:href="dir_000487_000000.html" target="_top" xlink:title="1">
<text text-anchor="middle" x="322.95" y="-41.05" font-family="Helvetica,sans-Serif" font-size="10.00">1</text>
</a>
</g>
</g>
<!-- dir_7a9487a4ac2fac09687c40a3e41e5ece -->
<g id="node7" class="node">
<title>dir_7a9487a4ac2fac09687c40a3e41e5ece</title>
<g id="a_node7"><a xlink:href="dir_7a9487a4ac2fac09687c40a3e41e5ece.html" target="_top" xlink:title="romimg">
<polygon fill="white" stroke="red" points="476.5,-180 421.5,-180 421.5,-144 476.5,-144 476.5,-180"/>
<text text-anchor="middle" x="449" y="-159.5" font-family="Helvetica,sans-Serif" font-size="10.00">romimg</text>
</a>
</g>
</g>
<!-- dir_7a9487a4ac2fac09687c40a3e41e5ece&#45;&gt;dir_0981ace215aa2029f526b70c145b9fbe -->
<g id="edge7" class="edge">
<title>dir_7a9487a4ac2fac09687c40a3e41e5ece&#45;&gt;dir_0981ace215aa2029f526b70c145b9fbe</title>
<path fill="none" stroke="black" d="M425.88,-143.76C421.7,-140.99 417.3,-138.29 413,-136 387.46,-122.43 356.91,-110.74 333.58,-102.69"/>
<polygon fill="black" stroke="black" points="334.65,-99.35 324.05,-99.46 332.4,-105.98 334.65,-99.35"/>
<g id="a_edge7&#45;headlabel"><a xlink:href="dir_000388_000011.html" target="_top" xlink:title="10">
<text text-anchor="middle" x="338.96" y="-95.32" font-family="Helvetica,sans-Serif" font-size="10.00">10</text>
</a>
</g>
</g>
<!-- dir_7a9487a4ac2fac09687c40a3e41e5ece&#45;&gt;dir_bdd9a5d540de89e9fe90efdfc6973a4f -->
<g id="edge8" class="edge">
<title>dir_7a9487a4ac2fac09687c40a3e41e5ece&#45;&gt;dir_bdd9a5d540de89e9fe90efdfc6973a4f</title>
<path fill="none" stroke="black" d="M431.07,-143.84C412.22,-125.85 381.66,-96.8 355,-72 344.75,-62.47 333.41,-52.07 323.49,-43.02"/>
<polygon fill="black" stroke="black" points="325.64,-40.25 315.88,-36.1 320.92,-45.42 325.64,-40.25"/>
<g id="a_edge8&#45;headlabel"><a xlink:href="dir_000388_000000.html" target="_top" xlink:title="4">
<text text-anchor="middle" x="330.2" y="-38.07" font-family="Helvetica,sans-Serif" font-size="10.00">4</text>
</a>
</g>
</g>
<!-- dir_4219d2c0f6303884499173a28a74746a -->
<g id="node8" class="node">
<title>dir_4219d2c0f6303884499173a28a74746a</title>
<g id="a_node8"><a xlink:href="dir_4219d2c0f6303884499173a28a74746a.html" target="_top" xlink:title="srxfixup">
<polygon fill="white" stroke="red" points="551,-180 495,-180 495,-144 551,-144 551,-180"/>
<text text-anchor="middle" x="523" y="-159.5" font-family="Helvetica,sans-Serif" font-size="10.00">srxfixup</text>
</a>
</g>
</g>
<!-- dir_4219d2c0f6303884499173a28a74746a&#45;&gt;dir_0981ace215aa2029f526b70c145b9fbe -->
<g id="edge5" class="edge">
<title>dir_4219d2c0f6303884499173a28a74746a&#45;&gt;dir_0981ace215aa2029f526b70c145b9fbe</title>
<path fill="none" stroke="black" d="M500.25,-143.79C495.7,-140.88 490.83,-138.12 486,-136 436.04,-114.05 373.74,-101.87 334.65,-95.88"/>
<polygon fill="black" stroke="black" points="334.67,-92.34 324.27,-94.35 333.65,-99.27 334.67,-92.34"/>
<g id="a_edge5&#45;headlabel"><a xlink:href="dir_000599_000011.html" target="_top" xlink:title="15">
<text text-anchor="middle" x="338.64" y="-87.56" font-family="Helvetica,sans-Serif" font-size="10.00">15</text>
</a>
</g>
</g>
<!-- dir_4219d2c0f6303884499173a28a74746a&#45;&gt;dir_bdd9a5d540de89e9fe90efdfc6973a4f -->
<g id="edge6" class="edge">
<title>dir_4219d2c0f6303884499173a28a74746a&#45;&gt;dir_bdd9a5d540de89e9fe90efdfc6973a4f</title>
<path fill="none" stroke="black" d="M497.97,-143.99C493.97,-141.3 489.88,-138.56 486,-136 442.29,-107.11 431.58,-99.52 387,-72 370.36,-61.73 351.77,-50.71 335.82,-41.39"/>
<polygon fill="black" stroke="black" points="337.18,-38.13 326.78,-36.12 333.66,-44.18 337.18,-38.13"/>
<g id="a_edge6&#45;headlabel"><a xlink:href="dir_000599_000000.html" target="_top" xlink:title="2">
<text text-anchor="middle" x="341.71" y="-34.98" font-family="Helvetica,sans-Serif" font-size="10.00">2</text>
</a>
</g>
</g>
<!-- dir_0981ace215aa2029f526b70c145b9fbe&#45;&gt;dir_bdd9a5d540de89e9fe90efdfc6973a4f -->
<g id="edge11" class="edge">
<title>dir_0981ace215aa2029f526b70c145b9fbe&#45;&gt;dir_bdd9a5d540de89e9fe90efdfc6973a4f</title>
<path fill="none" stroke="black" d="M291.08,-71.7C290.29,-63.98 290.06,-54.71 290.4,-46.11"/>
<polygon fill="black" stroke="black" points="293.9,-46.32 291.1,-36.1 286.92,-45.84 293.9,-46.32"/>
<g id="a_edge11&#45;headlabel"><a xlink:href="dir_000011_000000.html" target="_top" xlink:title="255">
<text text-anchor="middle" x="296.48" y="-47.61" font-family="Helvetica,sans-Serif" font-size="10.00">255</text>
</a>
</g>
</g>
<!-- dir_bdd9a5d540de89e9fe90efdfc6973a4f&#45;&gt;dir_0981ace215aa2029f526b70c145b9fbe -->
<g id="edge12" class="edge">
<title>dir_bdd9a5d540de89e9fe90efdfc6973a4f&#45;&gt;dir_0981ace215aa2029f526b70c145b9fbe</title>
<path fill="none" stroke="black" d="M302.9,-36.1C303.7,-43.79 303.94,-53.05 303.6,-61.67"/>
<polygon fill="black" stroke="black" points="300.11,-61.48 302.92,-71.7 307.09,-61.96 300.11,-61.48"/>
<g id="a_edge12&#45;headlabel"><a xlink:href="dir_000000_000011.html" target="_top" xlink:title="20">
<text text-anchor="middle" x="297.52" y="-55.2" font-family="Helvetica,sans-Serif" font-size="10.00">20</text>
</a>
</g>
</g>
</g>
</svg>
