<?xml version="1.0" encoding="UTF-8" standalone="no"?>
<!DOCTYPE svg PUBLIC "-//W3C//DTD SVG 1.1//EN"
 "http://www.w3.org/Graphics/SVG/1.1/DTD/svg11.dtd">
<!-- Generated by graphviz version 2.44.0 ()
 -->
<!-- Title: iop/usb/camera Pages: 1 -->
<svg width="286pt" height="303pt"
 viewBox="0.00 0.00 285.98 303.00" xmlns="http://www.w3.org/2000/svg" xmlns:xlink="http://www.w3.org/1999/xlink">
<g id="graph0" class="graph" transform="scale(1 1) rotate(0) translate(4 299)">
<title>iop/usb/camera</title>
<polygon fill="white" stroke="transparent" points="-4,4 -4,-299 281.98,-299 281.98,4 -4,4"/>
<g id="clust1" class="cluster">
<title>clusterdir_b6c875632944d243a548db157cd77ec2</title>
<g id="a_clust1"><a xlink:href="dir_b6c875632944d243a548db157cd77ec2.html" target="_top" xlink:title="usb">
<polygon fill="#ddddee" stroke="black" points="8,-128 8,-287 228,-287 228,-128 8,-128"/>
<text text-anchor="middle" x="118" y="-275" font-family="Helvetica,sans-Serif" font-size="10.00">usb</text>
</a>
</g>
</g>
<g id="clust2" class="cluster">
<title>clusterdir_354d0fe30f8451f44d30d5ee272e7643</title>
<g id="a_clust2"><a xlink:href="dir_354d0fe30f8451f44d30d5ee272e7643.html" target="_top">
<polygon fill="#eeeeff" stroke="black" points="16,-136 16,-260 158,-260 158,-136 16,-136"/>
</a>
</g>
</g>
<!-- dir_8f550b51c304fe10978bfd792866fae2 -->
<g id="node1" class="node">
<title>dir_8f550b51c304fe10978bfd792866fae2</title>
<g id="a_node1"><a xlink:href="dir_8f550b51c304fe10978bfd792866fae2.html" target="_top" xlink:title="usbd">
<polygon fill="white" stroke="red" points="220,-180 166,-180 166,-144 220,-144 220,-180"/>
<text text-anchor="middle" x="193" y="-159.5" font-family="Helvetica,sans-Serif" font-size="10.00">usbd</text>
</a>
</g>
</g>
<!-- dir_9be0baa3d4a3e9f480a9ee70594037fa -->
<g id="node5" class="node">
<title>dir_9be0baa3d4a3e9f480a9ee70594037fa</title>
<g id="a_node5"><a xlink:href="dir_9be0baa3d4a3e9f480a9ee70594037fa.html" target="_top" xlink:title="kernel">
<polygon fill="white" stroke="red" points="258,-108 204,-108 204,-72 258,-72 258,-108"/>
<text text-anchor="middle" x="231" y="-87.5" font-family="Helvetica,sans-Serif" font-size="10.00">kernel</text>
</a>
</g>
</g>
<!-- dir_8f550b51c304fe10978bfd792866fae2&#45;&gt;dir_9be0baa3d4a3e9f480a9ee70594037fa -->
<g id="edge2" class="edge">
<title>dir_8f550b51c304fe10978bfd792866fae2&#45;&gt;dir_9be0baa3d4a3e9f480a9ee70594037fa</title>
<path fill="none" stroke="black" d="M202.39,-143.7C206.76,-135.64 212.06,-125.89 216.9,-116.98"/>
<polygon fill="black" stroke="black" points="220.02,-118.56 221.71,-108.1 213.87,-115.22 220.02,-118.56"/>
<g id="a_edge2&#45;headlabel"><a xlink:href="dir_000122_000214.html" target="_top" xlink:title="37">
<text text-anchor="middle" x="220.8" y="-120.58" font-family="Helvetica,sans-Serif" font-size="10.00">37</text>
</a>
</g>
</g>
<!-- dir_354d0fe30f8451f44d30d5ee272e7643 -->
<g id="node2" class="node">
<title>dir_354d0fe30f8451f44d30d5ee272e7643</title>
<text text-anchor="middle" x="123" y="-231.5" font-family="Helvetica,sans-Serif" font-size="10.00">camera</text>
</g>
<!-- dir_9a86dbb94afa354b42c3b83282a0ba50 -->
<g id="node3" class="node">
<title>dir_9a86dbb94afa354b42c3b83282a0ba50</title>
<g id="a_node3"><a xlink:href="dir_9a86dbb94afa354b42c3b83282a0ba50.html" target="_top" xlink:title="include">
<polygon fill="white" stroke="black" points="78,-180 24,-180 24,-144 78,-144 78,-180"/>
<text text-anchor="middle" x="51" y="-159.5" font-family="Helvetica,sans-Serif" font-size="10.00">include</text>
</a>
</g>
</g>
<!-- dir_3df15571f2d889d39f44f0244a444c2b -->
<g id="node4" class="node">
<title>dir_3df15571f2d889d39f44f0244a444c2b</title>
<g id="a_node4"><a xlink:href="dir_3df15571f2d889d39f44f0244a444c2b.html" target="_top" xlink:title="src">
<polygon fill="white" stroke="black" points="78,-252 24,-252 24,-216 78,-216 78,-252"/>
<text text-anchor="middle" x="51" y="-231.5" font-family="Helvetica,sans-Serif" font-size="10.00">src</text>
</a>
</g>
</g>
<!-- dir_3df15571f2d889d39f44f0244a444c2b&#45;&gt;dir_8f550b51c304fe10978bfd792866fae2 -->
<g id="edge3" class="edge">
<title>dir_3df15571f2d889d39f44f0244a444c2b&#45;&gt;dir_8f550b51c304fe10978bfd792866fae2</title>
<path fill="none" stroke="black" d="M78.23,-220.1C103.13,-208.28 138.45,-191.49 156.82,-182.49"/>
<polygon fill="black" stroke="black" points="158.61,-185.52 166,-177.92 155.48,-179.25 158.61,-185.52"/>
<g id="a_edge3&#45;headlabel"><a xlink:href="dir_000117_000122.html" target="_top" xlink:title="3">
<text text-anchor="middle" x="156.65" y="-187.16" font-family="Helvetica,sans-Serif" font-size="10.00">3</text>
</a>
</g>
</g>
<!-- dir_3df15571f2d889d39f44f0244a444c2b&#45;&gt;dir_9a86dbb94afa354b42c3b83282a0ba50 -->
<g id="edge4" class="edge">
<title>dir_3df15571f2d889d39f44f0244a444c2b&#45;&gt;dir_9a86dbb94afa354b42c3b83282a0ba50</title>
<path fill="none" stroke="black" d="M51,-215.7C51,-207.98 51,-198.71 51,-190.11"/>
<polygon fill="black" stroke="black" points="54.5,-190.1 51,-180.1 47.5,-190.1 54.5,-190.1"/>
<g id="a_edge4&#45;headlabel"><a xlink:href="dir_000117_000303.html" target="_top" xlink:title="1">
<text text-anchor="middle" x="57.34" y="-191.2" font-family="Helvetica,sans-Serif" font-size="10.00">1</text>
</a>
</g>
</g>
<!-- dir_3df15571f2d889d39f44f0244a444c2b&#45;&gt;dir_9be0baa3d4a3e9f480a9ee70594037fa -->
<g id="edge5" class="edge">
<title>dir_3df15571f2d889d39f44f0244a444c2b&#45;&gt;dir_9be0baa3d4a3e9f480a9ee70594037fa</title>
<path fill="none" stroke="black" d="M78.28,-219.43C81.19,-218.19 84.14,-217.02 87,-216 149.55,-193.71 191.09,-232.3 232,-180 245.56,-162.67 243.72,-137.08 239.42,-117.78"/>
<polygon fill="black" stroke="black" points="242.81,-116.89 236.94,-108.07 236.03,-118.63 242.81,-116.89"/>
<g id="a_edge5&#45;headlabel"><a xlink:href="dir_000117_000214.html" target="_top" xlink:title="19">
<text text-anchor="middle" x="246.45" y="-117.17" font-family="Helvetica,sans-Serif" font-size="10.00">19</text>
</a>
</g>
</g>
<!-- dir_bdd9a5d540de89e9fe90efdfc6973a4f -->
<g id="node6" class="node">
<title>dir_bdd9a5d540de89e9fe90efdfc6973a4f</title>
<g id="a_node6"><a xlink:href="dir_bdd9a5d540de89e9fe90efdfc6973a4f.html" target="_top" xlink:title="common">
<polygon fill="white" stroke="red" points="258,-36 204,-36 204,0 258,0 258,-36"/>
<text text-anchor="middle" x="231" y="-15.5" font-family="Helvetica,sans-Serif" font-size="10.00">common</text>
</a>
</g>
</g>
<!-- dir_3df15571f2d889d39f44f0244a444c2b&#45;&gt;dir_bdd9a5d540de89e9fe90efdfc6973a4f -->
<g id="edge6" class="edge">
<title>dir_3df15571f2d889d39f44f0244a444c2b&#45;&gt;dir_bdd9a5d540de89e9fe90efdfc6973a4f</title>
<path fill="none" stroke="black" d="M78.25,-219.35C81.17,-218.13 84.12,-216.98 87,-216 157.63,-191.92 198.16,-232.7 251,-180 285.36,-145.73 281.26,-118.38 267,-72 263.99,-62.22 258.49,-52.62 252.68,-44.33"/>
<polygon fill="black" stroke="black" points="255.41,-42.13 246.61,-36.23 249.81,-46.33 255.41,-42.13"/>
<g id="a_edge6&#45;headlabel"><a xlink:href="dir_000117_000000.html" target="_top" xlink:title="1">
<text text-anchor="middle" x="259.83" y="-40.8" font-family="Helvetica,sans-Serif" font-size="10.00">1</text>
</a>
</g>
</g>
<!-- dir_9be0baa3d4a3e9f480a9ee70594037fa&#45;&gt;dir_bdd9a5d540de89e9fe90efdfc6973a4f -->
<g id="edge1" class="edge">
<title>dir_9be0baa3d4a3e9f480a9ee70594037fa&#45;&gt;dir_bdd9a5d540de89e9fe90efdfc6973a4f</title>
<path fill="none" stroke="black" d="M225.08,-71.7C224.29,-63.98 224.06,-54.71 224.4,-46.11"/>
<polygon fill="black" stroke="black" points="227.9,-46.32 225.1,-36.1 220.92,-45.84 227.9,-46.32"/>
<g id="a_edge1&#45;headlabel"><a xlink:href="dir_000214_000000.html" target="_top" xlink:title="12">
<text text-anchor="middle" x="230.48" y="-47.61" font-family="Helvetica,sans-Serif" font-size="10.00">12</text>
</a>
</g>
</g>
<!-- dir_bdd9a5d540de89e9fe90efdfc6973a4f&#45;&gt;dir_9be0baa3d4a3e9f480a9ee70594037fa -->
<g id="edge7" class="edge">
<title>dir_bdd9a5d540de89e9fe90efdfc6973a4f&#45;&gt;dir_9be0baa3d4a3e9f480a9ee70594037fa</title>
<path fill="none" stroke="black" d="M236.9,-36.1C237.7,-43.79 237.94,-53.05 237.6,-61.67"/>
<polygon fill="black" stroke="black" points="234.11,-61.48 236.92,-71.7 241.09,-61.96 234.11,-61.48"/>
<g id="a_edge7&#45;headlabel"><a xlink:href="dir_000000_000214.html" target="_top" xlink:title="20">
<text text-anchor="middle" x="231.52" y="-55.2" font-family="Helvetica,sans-Serif" font-size="10.00">20</text>
</a>
</g>
</g>
</g>
</svg>
