<?xml version="1.0" encoding="UTF-8" standalone="no"?>
<!DOCTYPE svg PUBLIC "-//W3C//DTD SVG 1.1//EN"
 "http://www.w3.org/Graphics/SVG/1.1/DTD/svg11.dtd">
<!-- Generated by graphviz version 2.43.0 (0)
 -->
<!-- Title: iop/usb/usbd/src Pages: 1 -->
<svg width="150pt" height="223pt"
 viewBox="0.00 0.00 150.00 223.00" xmlns="http://www.w3.org/2000/svg" xmlns:xlink="http://www.w3.org/1999/xlink">
<g id="graph0" class="graph" transform="scale(1 1) rotate(0) translate(4 219)">
<title>iop/usb/usbd/src</title>
<polygon fill="white" stroke="transparent" points="-4,4 -4,-219 146,-219 146,4 -4,4"/>
<g id="clust1" class="cluster">
<title>clusterdir_8f550b51c304fe10978bfd792866fae2</title>
<g id="a_clust1"><a xlink:href="dir_8f550b51c304fe10978bfd792866fae2.html" target="_top" xlink:title="usbd">
<polygon fill="#ddddee" stroke="black" points="8,-136 8,-207 78,-207 78,-136 8,-136"/>
<text text-anchor="middle" x="43" y="-195" font-family="Helvetica,sans-Serif" font-size="10.00">usbd</text>
</a>
</g>
</g>
<!-- dir_30406d93c31043602a8c1a1e1e4c9b2e -->
<g id="node1" class="node">
<title>dir_30406d93c31043602a8c1a1e1e4c9b2e</title>
<g id="a_node1"><a xlink:href="dir_30406d93c31043602a8c1a1e1e4c9b2e.html" target="_top" xlink:title="src">
<polygon fill="#eeeeff" stroke="black" points="70,-180 16,-180 16,-144 70,-144 70,-180"/>
<text text-anchor="middle" x="43" y="-159.5" font-family="Helvetica,sans-Serif" font-size="10.00">src</text>
</a>
</g>
</g>
<!-- dir_9be0baa3d4a3e9f480a9ee70594037fa -->
<g id="node2" class="node">
<title>dir_9be0baa3d4a3e9f480a9ee70594037fa</title>
<g id="a_node2"><a xlink:href="dir_9be0baa3d4a3e9f480a9ee70594037fa.html" target="_top" xlink:title="kernel">
<polygon fill="white" stroke="red" points="70,-36 16,-36 16,0 70,0 70,-36"/>
<text text-anchor="middle" x="43" y="-15.5" font-family="Helvetica,sans-Serif" font-size="10.00">kernel</text>
</a>
</g>
</g>
<!-- dir_30406d93c31043602a8c1a1e1e4c9b2e&#45;&gt;dir_9be0baa3d4a3e9f480a9ee70594037fa -->
<g id="edge2" class="edge">
<title>dir_30406d93c31043602a8c1a1e1e4c9b2e&#45;&gt;dir_9be0baa3d4a3e9f480a9ee70594037fa</title>
<path fill="none" stroke="black" d="M27.39,-143.77C19.63,-134.03 11.05,-121.18 7,-108 2.3,-92.71 2.3,-87.29 7,-72 10.01,-62.22 15.51,-52.62 21.32,-44.33"/>
<polygon fill="black" stroke="black" points="24.19,-46.33 27.39,-36.23 18.59,-42.13 24.19,-46.33"/>
<g id="a_edge2&#45;headlabel"><a xlink:href="dir_000302_000530.html" target="_top" xlink:title="2">
<text text-anchor="middle" x="24.31" y="-48.41" font-family="Helvetica,sans-Serif" font-size="10.00">2</text>
</a>
</g>
</g>
<!-- dir_40ac35421bc63b72c26b6c69b1517fd6 -->
<g id="node3" class="node">
<title>dir_40ac35421bc63b72c26b6c69b1517fd6</title>
<g id="a_node3"><a xlink:href="dir_40ac35421bc63b72c26b6c69b1517fd6.html" target="_top" xlink:title="system">
<polygon fill="white" stroke="red" points="70,-108 16,-108 16,-72 70,-72 70,-108"/>
<text text-anchor="middle" x="43" y="-87.5" font-family="Helvetica,sans-Serif" font-size="10.00">system</text>
</a>
</g>
</g>
<!-- dir_30406d93c31043602a8c1a1e1e4c9b2e&#45;&gt;dir_40ac35421bc63b72c26b6c69b1517fd6 -->
<g id="edge3" class="edge">
<title>dir_30406d93c31043602a8c1a1e1e4c9b2e&#45;&gt;dir_40ac35421bc63b72c26b6c69b1517fd6</title>
<path fill="none" stroke="black" d="M43,-143.7C43,-135.98 43,-126.71 43,-118.11"/>
<polygon fill="black" stroke="black" points="46.5,-118.1 43,-108.1 39.5,-118.1 46.5,-118.1"/>
<g id="a_edge3&#45;headlabel"><a xlink:href="dir_000302_000226.html" target="_top" xlink:title="8">
<text text-anchor="middle" x="49.34" y="-119.2" font-family="Helvetica,sans-Serif" font-size="10.00">8</text>
</a>
</g>
</g>
<!-- dir_345d8429d3cb3ccd32f3e92029247ace -->
<g id="node4" class="node">
<title>dir_345d8429d3cb3ccd32f3e92029247ace</title>
<g id="a_node4"><a xlink:href="dir_345d8429d3cb3ccd32f3e92029247ace.html" target="_top" xlink:title="include">
<polygon fill="none" stroke="black" points="142,-108 88,-108 88,-72 142,-72 142,-108"/>
<text text-anchor="middle" x="115" y="-87.5" font-family="Helvetica,sans-Serif" font-size="10.00">include</text>
</a>
</g>
</g>
<!-- dir_30406d93c31043602a8c1a1e1e4c9b2e&#45;&gt;dir_345d8429d3cb3ccd32f3e92029247ace -->
<g id="edge4" class="edge">
<title>dir_30406d93c31043602a8c1a1e1e4c9b2e&#45;&gt;dir_345d8429d3cb3ccd32f3e92029247ace</title>
<path fill="none" stroke="black" d="M60.8,-143.7C69.6,-135.14 80.38,-124.66 90,-115.3"/>
<polygon fill="black" stroke="black" points="92.68,-117.58 97.41,-108.1 87.8,-112.57 92.68,-117.58"/>
<g id="a_edge4&#45;headlabel"><a xlink:href="dir_000302_000598.html" target="_top" xlink:title="1">
<text text-anchor="middle" x="92.08" y="-119.63" font-family="Helvetica,sans-Serif" font-size="10.00">1</text>
</a>
</g>
</g>
<!-- dir_40ac35421bc63b72c26b6c69b1517fd6&#45;&gt;dir_9be0baa3d4a3e9f480a9ee70594037fa -->
<g id="edge1" class="edge">
<title>dir_40ac35421bc63b72c26b6c69b1517fd6&#45;&gt;dir_9be0baa3d4a3e9f480a9ee70594037fa</title>
<path fill="none" stroke="black" d="M43,-71.7C43,-63.98 43,-54.71 43,-46.11"/>
<polygon fill="black" stroke="black" points="46.5,-46.1 43,-36.1 39.5,-46.1 46.5,-46.1"/>
<g id="a_edge1&#45;headlabel"><a xlink:href="dir_000226_000530.html" target="_top" xlink:title="89">
<text text-anchor="middle" x="49.34" y="-47.2" font-family="Helvetica,sans-Serif" font-size="10.00">89</text>
</a>
</g>
</g>
<!-- dir_345d8429d3cb3ccd32f3e92029247ace&#45;&gt;dir_9be0baa3d4a3e9f480a9ee70594037fa -->
<g id="edge5" class="edge">
<title>dir_345d8429d3cb3ccd32f3e92029247ace&#45;&gt;dir_9be0baa3d4a3e9f480a9ee70594037fa</title>
<path fill="none" stroke="black" d="M97.2,-71.7C88.4,-63.14 77.62,-52.66 68,-43.3"/>
<polygon fill="black" stroke="black" points="70.2,-40.57 60.59,-36.1 65.32,-45.58 70.2,-40.57"/>
<g id="a_edge5&#45;headlabel"><a xlink:href="dir_000598_000530.html" target="_top" xlink:title="1">
<text text-anchor="middle" x="74.76" y="-38.54" font-family="Helvetica,sans-Serif" font-size="10.00">1</text>
</a>
</g>
</g>
</g>
</svg>
