<?xml version="1.0" encoding="UTF-8" standalone="no"?>
<!DOCTYPE svg PUBLIC "-//W3C//DTD SVG 1.1//EN"
 "http://www.w3.org/Graphics/SVG/1.1/DTD/svg11.dtd">
<!-- Generated by graphviz version 2.43.0 (0)
 -->
<!-- Title: iop/iLink/IEEE1394_bd Pages: 1 -->
<svg width="279pt" height="447pt"
 viewBox="0.00 0.00 279.00 447.00" xmlns="http://www.w3.org/2000/svg" xmlns:xlink="http://www.w3.org/1999/xlink">
<g id="graph0" class="graph" transform="scale(1 1) rotate(0) translate(4 443)">
<title>iop/iLink/IEEE1394_bd</title>
<polygon fill="white" stroke="transparent" points="-4,4 -4,-443 275,-443 275,4 -4,4"/>
<g id="clust1" class="cluster">
<title>clusterdir_fc941b9cdd19bfc53379effb1dbc42b0</title>
<g id="a_clust1"><a xlink:href="dir_fc941b9cdd19bfc53379effb1dbc42b0.html" target="_top" xlink:title="iLink">
<polygon fill="#ddddee" stroke="black" points="80,-344 80,-431 263,-431 263,-344 80,-344"/>
<text text-anchor="middle" x="171.5" y="-419" font-family="Helvetica,sans-Serif" font-size="10.00">iLink</text>
</a>
</g>
</g>
<g id="clust2" class="cluster">
<title>clusterdir_3bc9c0aee413f19edf678d71a08ea153</title>
<g id="a_clust2"><a xlink:href="dir_3bc9c0aee413f19edf678d71a08ea153.html" target="_top">
<polygon fill="#eeeeff" stroke="black" points="88,-352 88,-404 255,-404 255,-352 88,-352"/>
</a>
</g>
</g>
<!-- dir_3bc9c0aee413f19edf678d71a08ea153 -->
<g id="node1" class="node">
<title>dir_3bc9c0aee413f19edf678d71a08ea153</title>
<text text-anchor="middle" x="208" y="-375.5" font-family="Helvetica,sans-Serif" font-size="10.00">IEEE1394_bd</text>
</g>
<!-- dir_fc80c3c91208c3ad5a3a0585da287820 -->
<g id="node2" class="node">
<title>dir_fc80c3c91208c3ad5a3a0585da287820</title>
<g id="a_node2"><a xlink:href="dir_fc80c3c91208c3ad5a3a0585da287820.html" target="_top" xlink:title="src">
<polygon fill="white" stroke="red" points="150,-396 96,-396 96,-360 150,-360 150,-396"/>
<text text-anchor="middle" x="123" y="-375.5" font-family="Helvetica,sans-Serif" font-size="10.00">src</text>
</a>
</g>
</g>
<!-- dir_9be0baa3d4a3e9f480a9ee70594037fa -->
<g id="node3" class="node">
<title>dir_9be0baa3d4a3e9f480a9ee70594037fa</title>
<g id="a_node3"><a xlink:href="dir_9be0baa3d4a3e9f480a9ee70594037fa.html" target="_top" xlink:title="kernel">
<polygon fill="white" stroke="red" points="234,-252 180,-252 180,-216 234,-216 234,-252"/>
<text text-anchor="middle" x="207" y="-231.5" font-family="Helvetica,sans-Serif" font-size="10.00">kernel</text>
</a>
</g>
</g>
<!-- dir_fc80c3c91208c3ad5a3a0585da287820&#45;&gt;dir_9be0baa3d4a3e9f480a9ee70594037fa -->
<g id="edge4" class="edge">
<title>dir_fc80c3c91208c3ad5a3a0585da287820&#45;&gt;dir_9be0baa3d4a3e9f480a9ee70594037fa</title>
<path fill="none" stroke="black" d="M135.46,-359.63C142.61,-349.42 151.61,-336.17 159,-324 171.53,-303.36 184.45,-279.21 193.73,-261.28"/>
<polygon fill="black" stroke="black" points="197.03,-262.51 198.48,-252.02 190.8,-259.32 197.03,-262.51"/>
<g id="a_edge4&#45;headlabel"><a xlink:href="dir_000162_000525.html" target="_top" xlink:title="2">
<text text-anchor="middle" x="197.91" y="-264.51" font-family="Helvetica,sans-Serif" font-size="10.00">2</text>
</a>
</g>
</g>
<!-- dir_40ac35421bc63b72c26b6c69b1517fd6 -->
<g id="node4" class="node">
<title>dir_40ac35421bc63b72c26b6c69b1517fd6</title>
<g id="a_node4"><a xlink:href="dir_40ac35421bc63b72c26b6c69b1517fd6.html" target="_top" xlink:title="system">
<polygon fill="white" stroke="red" points="205,-36 151,-36 151,0 205,0 205,-36"/>
<text text-anchor="middle" x="178" y="-15.5" font-family="Helvetica,sans-Serif" font-size="10.00">system</text>
</a>
</g>
</g>
<!-- dir_fc80c3c91208c3ad5a3a0585da287820&#45;&gt;dir_40ac35421bc63b72c26b6c69b1517fd6 -->
<g id="edge5" class="edge">
<title>dir_fc80c3c91208c3ad5a3a0585da287820&#45;&gt;dir_40ac35421bc63b72c26b6c69b1517fd6</title>
<path fill="none" stroke="black" d="M95.7,-361.65C59.47,-339.03 0,-293.06 0,-235 0,-235 0,-235 0,-161 0,-89.32 89.29,-47.95 141.39,-29.9"/>
<polygon fill="black" stroke="black" points="142.59,-33.19 150.97,-26.7 140.37,-26.55 142.59,-33.19"/>
<g id="a_edge5&#45;headlabel"><a xlink:href="dir_000162_000215.html" target="_top" xlink:title="21">
<text text-anchor="middle" x="140.08" y="-34.53" font-family="Helvetica,sans-Serif" font-size="10.00">21</text>
</a>
</g>
</g>
<!-- dir_a12d8da7b0731a57c6a388326ad5e612 -->
<g id="node5" class="node">
<title>dir_a12d8da7b0731a57c6a388326ad5e612</title>
<g id="a_node5"><a xlink:href="dir_a12d8da7b0731a57c6a388326ad5e612.html" target="_top" xlink:title="cdvd">
<polygon fill="white" stroke="red" points="173,-108 119,-108 119,-72 173,-72 173,-108"/>
<text text-anchor="middle" x="146" y="-87.5" font-family="Helvetica,sans-Serif" font-size="10.00">cdvd</text>
</a>
</g>
</g>
<!-- dir_fc80c3c91208c3ad5a3a0585da287820&#45;&gt;dir_a12d8da7b0731a57c6a388326ad5e612 -->
<g id="edge6" class="edge">
<title>dir_fc80c3c91208c3ad5a3a0585da287820&#45;&gt;dir_a12d8da7b0731a57c6a388326ad5e612</title>
<path fill="none" stroke="black" d="M107.39,-359.77C99.63,-350.03 91.05,-337.18 87,-324 82.3,-308.71 84.68,-303.83 87,-288 96.18,-225.36 120.95,-154.98 135.31,-117.63"/>
<polygon fill="black" stroke="black" points="138.69,-118.6 139.06,-108.01 132.17,-116.05 138.69,-118.6"/>
<g id="a_edge6&#45;headlabel"><a xlink:href="dir_000162_000061.html" target="_top" xlink:title="1">
<text text-anchor="middle" x="140.03" y="-120.48" font-family="Helvetica,sans-Serif" font-size="10.00">1</text>
</a>
</g>
</g>
<!-- dir_f24daea2522ffa8b6dc5fa9cdf5b8f5c -->
<g id="node6" class="node">
<title>dir_f24daea2522ffa8b6dc5fa9cdf5b8f5c</title>
<g id="a_node6"><a xlink:href="dir_f24daea2522ffa8b6dc5fa9cdf5b8f5c.html" target="_top" xlink:title="fs">
<polygon fill="white" stroke="red" points="150,-324 96,-324 96,-288 150,-288 150,-324"/>
<text text-anchor="middle" x="123" y="-303.5" font-family="Helvetica,sans-Serif" font-size="10.00">fs</text>
</a>
</g>
</g>
<!-- dir_fc80c3c91208c3ad5a3a0585da287820&#45;&gt;dir_f24daea2522ffa8b6dc5fa9cdf5b8f5c -->
<g id="edge7" class="edge">
<title>dir_fc80c3c91208c3ad5a3a0585da287820&#45;&gt;dir_f24daea2522ffa8b6dc5fa9cdf5b8f5c</title>
<path fill="none" stroke="black" d="M123,-359.7C123,-351.98 123,-342.71 123,-334.11"/>
<polygon fill="black" stroke="black" points="126.5,-334.1 123,-324.1 119.5,-334.1 126.5,-334.1"/>
<g id="a_edge7&#45;headlabel"><a xlink:href="dir_000162_000118.html" target="_top" xlink:title="2">
<text text-anchor="middle" x="129.34" y="-335.2" font-family="Helvetica,sans-Serif" font-size="10.00">2</text>
</a>
</g>
</g>
<!-- dir_bdd9a5d540de89e9fe90efdfc6973a4f -->
<g id="node7" class="node">
<title>dir_bdd9a5d540de89e9fe90efdfc6973a4f</title>
<g id="a_node7"><a xlink:href="dir_bdd9a5d540de89e9fe90efdfc6973a4f.html" target="_top" xlink:title="common">
<polygon fill="white" stroke="red" points="239.5,-180 180.5,-180 180.5,-144 239.5,-144 239.5,-180"/>
<text text-anchor="middle" x="210" y="-159.5" font-family="Helvetica,sans-Serif" font-size="10.00">common</text>
</a>
</g>
</g>
<!-- dir_fc80c3c91208c3ad5a3a0585da287820&#45;&gt;dir_bdd9a5d540de89e9fe90efdfc6973a4f -->
<g id="edge8" class="edge">
<title>dir_fc80c3c91208c3ad5a3a0585da287820&#45;&gt;dir_bdd9a5d540de89e9fe90efdfc6973a4f</title>
<path fill="none" stroke="black" d="M141.53,-359.7C147.1,-354.59 153.25,-349.02 159,-344 200.69,-307.56 224.15,-304.06 243,-252 248.45,-236.96 247.4,-231.38 243,-216 240.29,-206.51 235.33,-197.06 230.07,-188.83"/>
<polygon fill="black" stroke="black" points="232.86,-186.72 224.33,-180.43 227.08,-190.67 232.86,-186.72"/>
<g id="a_edge8&#45;headlabel"><a xlink:href="dir_000162_000000.html" target="_top" xlink:title="3">
<text text-anchor="middle" x="237.23" y="-185.58" font-family="Helvetica,sans-Serif" font-size="10.00">3</text>
</a>
</g>
</g>
<!-- dir_9be0baa3d4a3e9f480a9ee70594037fa&#45;&gt;dir_bdd9a5d540de89e9fe90efdfc6973a4f -->
<g id="edge1" class="edge">
<title>dir_9be0baa3d4a3e9f480a9ee70594037fa&#45;&gt;dir_bdd9a5d540de89e9fe90efdfc6973a4f</title>
<path fill="none" stroke="black" d="M201.83,-215.7C201.36,-207.98 201.53,-198.71 202.24,-190.11"/>
<polygon fill="black" stroke="black" points="205.73,-190.43 203.37,-180.1 198.77,-189.65 205.73,-190.43"/>
<g id="a_edge1&#45;headlabel"><a xlink:href="dir_000525_000000.html" target="_top" xlink:title="2">
<text text-anchor="middle" x="208.15" y="-191.82" font-family="Helvetica,sans-Serif" font-size="10.00">2</text>
</a>
</g>
</g>
<!-- dir_40ac35421bc63b72c26b6c69b1517fd6&#45;&gt;dir_9be0baa3d4a3e9f480a9ee70594037fa -->
<g id="edge2" class="edge">
<title>dir_40ac35421bc63b72c26b6c69b1517fd6&#45;&gt;dir_9be0baa3d4a3e9f480a9ee70594037fa</title>
<path fill="none" stroke="black" d="M192.26,-36.21C210.06,-59.1 239.26,-101.61 248,-144 251.23,-159.67 253.17,-164.86 248,-180 244.56,-190.07 238.34,-199.72 231.77,-207.95"/>
<polygon fill="black" stroke="black" points="229,-205.8 225.17,-215.68 234.32,-210.35 229,-205.8"/>
<g id="a_edge2&#45;headlabel"><a xlink:href="dir_000215_000525.html" target="_top" xlink:title="105">
<text text-anchor="middle" x="229.18" y="-198.72" font-family="Helvetica,sans-Serif" font-size="10.00">105</text>
</a>
</g>
</g>
<!-- dir_40ac35421bc63b72c26b6c69b1517fd6&#45;&gt;dir_bdd9a5d540de89e9fe90efdfc6973a4f -->
<g id="edge3" class="edge">
<title>dir_40ac35421bc63b72c26b6c69b1517fd6&#45;&gt;dir_bdd9a5d540de89e9fe90efdfc6973a4f</title>
<path fill="none" stroke="black" d="M186.46,-36.19C194.48,-60.42 204.79,-104.89 209.3,-133.68"/>
<polygon fill="black" stroke="black" points="205.87,-134.45 210.72,-143.87 212.8,-133.48 205.87,-134.45"/>
<g id="a_edge3&#45;headlabel"><a xlink:href="dir_000215_000000.html" target="_top" xlink:title="32">
<text text-anchor="middle" x="202.56" y="-128.79" font-family="Helvetica,sans-Serif" font-size="10.00">32</text>
</a>
</g>
</g>
<!-- dir_a12d8da7b0731a57c6a388326ad5e612&#45;&gt;dir_9be0baa3d4a3e9f480a9ee70594037fa -->
<g id="edge9" class="edge">
<title>dir_a12d8da7b0731a57c6a388326ad5e612&#45;&gt;dir_9be0baa3d4a3e9f480a9ee70594037fa</title>
<path fill="none" stroke="black" d="M149.13,-108.31C152.85,-126.68 159.97,-156.28 171,-180 175.39,-189.43 181.37,-199.05 187.2,-207.45"/>
<polygon fill="black" stroke="black" points="184.47,-209.64 193.15,-215.71 190.15,-205.55 184.47,-209.64"/>
<g id="a_edge9&#45;headlabel"><a xlink:href="dir_000061_000525.html" target="_top" xlink:title="13">
<text text-anchor="middle" x="180.06" y="-205.88" font-family="Helvetica,sans-Serif" font-size="10.00">13</text>
</a>
</g>
</g>
<!-- dir_a12d8da7b0731a57c6a388326ad5e612&#45;&gt;dir_40ac35421bc63b72c26b6c69b1517fd6 -->
<g id="edge10" class="edge">
<title>dir_a12d8da7b0731a57c6a388326ad5e612&#45;&gt;dir_40ac35421bc63b72c26b6c69b1517fd6</title>
<path fill="none" stroke="black" d="M153.91,-71.7C157.55,-63.73 161.95,-54.1 165.99,-45.26"/>
<polygon fill="black" stroke="black" points="169.21,-46.65 170.18,-36.1 162.84,-43.74 169.21,-46.65"/>
<g id="a_edge10&#45;headlabel"><a xlink:href="dir_000061_000215.html" target="_top" xlink:title="64">
<text text-anchor="middle" x="170.29" y="-48.6" font-family="Helvetica,sans-Serif" font-size="10.00">64</text>
</a>
</g>
</g>
<!-- dir_a12d8da7b0731a57c6a388326ad5e612&#45;&gt;dir_bdd9a5d540de89e9fe90efdfc6973a4f -->
<g id="edge11" class="edge">
<title>dir_a12d8da7b0731a57c6a388326ad5e612&#45;&gt;dir_bdd9a5d540de89e9fe90efdfc6973a4f</title>
<path fill="none" stroke="black" d="M167.53,-108.1C176.06,-116.47 185.61,-126.69 193.57,-135.92"/>
<polygon fill="black" stroke="black" points="190.99,-138.28 200.1,-143.7 196.35,-133.79 190.99,-138.28"/>
<g id="a_edge11&#45;headlabel"><a xlink:href="dir_000061_000000.html" target="_top" xlink:title="17">
<text text-anchor="middle" x="186.5" y="-134.85" font-family="Helvetica,sans-Serif" font-size="10.00">17</text>
</a>
</g>
</g>
<!-- dir_f24daea2522ffa8b6dc5fa9cdf5b8f5c&#45;&gt;dir_9be0baa3d4a3e9f480a9ee70594037fa -->
<g id="edge12" class="edge">
<title>dir_f24daea2522ffa8b6dc5fa9cdf5b8f5c&#45;&gt;dir_9be0baa3d4a3e9f480a9ee70594037fa</title>
<path fill="none" stroke="black" d="M143.76,-287.7C154.24,-278.97 167.11,-268.24 178.5,-258.75"/>
<polygon fill="black" stroke="black" points="181.03,-261.19 186.47,-252.1 176.55,-255.82 181.03,-261.19"/>
<g id="a_edge12&#45;headlabel"><a xlink:href="dir_000118_000525.html" target="_top" xlink:title="29">
<text text-anchor="middle" x="180.09" y="-263.18" font-family="Helvetica,sans-Serif" font-size="10.00">29</text>
</a>
</g>
</g>
<!-- dir_f24daea2522ffa8b6dc5fa9cdf5b8f5c&#45;&gt;dir_40ac35421bc63b72c26b6c69b1517fd6 -->
<g id="edge13" class="edge">
<title>dir_f24daea2522ffa8b6dc5fa9cdf5b8f5c&#45;&gt;dir_40ac35421bc63b72c26b6c69b1517fd6</title>
<path fill="none" stroke="black" d="M116.61,-287.79C102.8,-247.59 74.17,-145.35 110,-72 116.89,-57.9 129.53,-46.47 142.07,-37.87"/>
<polygon fill="black" stroke="black" points="144.12,-40.72 150.66,-32.38 140.35,-34.82 144.12,-40.72"/>
<g id="a_edge13&#45;headlabel"><a xlink:href="dir_000118_000215.html" target="_top" xlink:title="192">
<text text-anchor="middle" x="142.62" y="-42.54" font-family="Helvetica,sans-Serif" font-size="10.00">192</text>
</a>
</g>
</g>
<!-- dir_f24daea2522ffa8b6dc5fa9cdf5b8f5c&#45;&gt;dir_a12d8da7b0731a57c6a388326ad5e612 -->
<g id="edge14" class="edge">
<title>dir_f24daea2522ffa8b6dc5fa9cdf5b8f5c&#45;&gt;dir_a12d8da7b0731a57c6a388326ad5e612</title>
<path fill="none" stroke="black" d="M124.84,-287.85C128.82,-250.83 138.24,-163.18 143.06,-118.39"/>
<polygon fill="black" stroke="black" points="146.56,-118.55 144.15,-108.23 139.6,-117.8 146.56,-118.55"/>
<g id="a_edge14&#45;headlabel"><a xlink:href="dir_000118_000061.html" target="_top" xlink:title="4">
<text text-anchor="middle" x="149" y="-119.93" font-family="Helvetica,sans-Serif" font-size="10.00">4</text>
</a>
</g>
</g>
<!-- dir_f24daea2522ffa8b6dc5fa9cdf5b8f5c&#45;&gt;dir_bdd9a5d540de89e9fe90efdfc6973a4f -->
<g id="edge15" class="edge">
<title>dir_f24daea2522ffa8b6dc5fa9cdf5b8f5c&#45;&gt;dir_bdd9a5d540de89e9fe90efdfc6973a4f</title>
<path fill="none" stroke="black" d="M131.34,-287.87C140.42,-269.65 155.69,-240.18 171,-216 176.87,-206.73 183.82,-196.96 190.22,-188.37"/>
<polygon fill="black" stroke="black" points="193.13,-190.32 196.37,-180.23 187.54,-186.1 193.13,-190.32"/>
<g id="a_edge15&#45;headlabel"><a xlink:href="dir_000118_000000.html" target="_top" xlink:title="25">
<text text-anchor="middle" x="193.23" y="-192.4" font-family="Helvetica,sans-Serif" font-size="10.00">25</text>
</a>
</g>
</g>
<!-- dir_bdd9a5d540de89e9fe90efdfc6973a4f&#45;&gt;dir_9be0baa3d4a3e9f480a9ee70594037fa -->
<g id="edge16" class="edge">
<title>dir_bdd9a5d540de89e9fe90efdfc6973a4f&#45;&gt;dir_9be0baa3d4a3e9f480a9ee70594037fa</title>
<path fill="none" stroke="black" d="M215.16,-180.1C215.64,-187.79 215.48,-197.05 214.78,-205.67"/>
<polygon fill="black" stroke="black" points="211.29,-205.37 213.66,-215.7 218.24,-206.15 211.29,-205.37"/>
<g id="a_edge16&#45;headlabel"><a xlink:href="dir_000000_000525.html" target="_top" xlink:title="3">
<text text-anchor="middle" x="208.86" y="-198.98" font-family="Helvetica,sans-Serif" font-size="10.00">3</text>
</a>
</g>
</g>
<!-- dir_bdd9a5d540de89e9fe90efdfc6973a4f&#45;&gt;dir_40ac35421bc63b72c26b6c69b1517fd6 -->
<g id="edge17" class="edge">
<title>dir_bdd9a5d540de89e9fe90efdfc6973a4f&#45;&gt;dir_40ac35421bc63b72c26b6c69b1517fd6</title>
<path fill="none" stroke="black" d="M201.56,-143.87C193.54,-119.67 183.23,-75.21 178.71,-46.39"/>
<polygon fill="black" stroke="black" points="182.14,-45.61 177.28,-36.19 175.21,-46.58 182.14,-45.61"/>
<g id="a_edge17&#45;headlabel"><a xlink:href="dir_000000_000215.html" target="_top" xlink:title="16">
<text text-anchor="middle" x="185.45" y="-46.27" font-family="Helvetica,sans-Serif" font-size="10.00">16</text>
</a>
</g>
</g>
<!-- dir_bdd9a5d540de89e9fe90efdfc6973a4f&#45;&gt;dir_a12d8da7b0731a57c6a388326ad5e612 -->
<g id="edge18" class="edge">
<title>dir_bdd9a5d540de89e9fe90efdfc6973a4f&#45;&gt;dir_a12d8da7b0731a57c6a388326ad5e612</title>
<path fill="none" stroke="black" d="M188.26,-143.7C179.73,-135.3 170.18,-125.07 162.24,-115.86"/>
<polygon fill="black" stroke="black" points="164.85,-113.52 155.74,-108.1 159.48,-118.02 164.85,-113.52"/>
<g id="a_edge18&#45;headlabel"><a xlink:href="dir_000000_000061.html" target="_top" xlink:title="1">
<text text-anchor="middle" x="169.33" y="-111.96" font-family="Helvetica,sans-Serif" font-size="10.00">1</text>
</a>
</g>
</g>
</g>
</svg>
