<?xml version="1.0" encoding="UTF-8" standalone="no"?>
<!DOCTYPE svg PUBLIC "-//W3C//DTD SVG 1.1//EN"
 "http://www.w3.org/Graphics/SVG/1.1/DTD/svg11.dtd">
<!-- Generated by graphviz version 2.44.0 ()
 -->
<!-- Title: iop/sound/libsd/src Pages: 1 -->
<svg width="236pt" height="175pt"
 viewBox="0.00 0.00 236.00 175.00" xmlns="http://www.w3.org/2000/svg" xmlns:xlink="http://www.w3.org/1999/xlink">
<g id="graph0" class="graph" transform="scale(1 1) rotate(0) translate(4 171)">
<title>iop/sound/libsd/src</title>
<polygon fill="white" stroke="transparent" points="-4,4 -4,-171 232,-171 232,4 -4,4"/>
<g id="clust1" class="cluster">
<title>clusterdir_b3b65c61938638f28675fc77a7fe35e3</title>
<g id="a_clust1"><a xlink:href="dir_b3b65c61938638f28675fc77a7fe35e3.html" target="_top" xlink:title="libsd">
<polygon fill="#ddddee" stroke="black" points="8,-8 8,-159 166,-159 166,-8 8,-8"/>
<text text-anchor="middle" x="87" y="-147" font-family="Helvetica,sans-Serif" font-size="10.00">libsd</text>
</a>
</g>
</g>
<g id="clust2" class="cluster">
<title>clusterdir_91e901f4669815123068a4acba61e31d</title>
<g id="a_clust2"><a xlink:href="dir_91e901f4669815123068a4acba61e31d.html" target="_top">
<polygon fill="#eeeeff" stroke="black" points="16,-80 16,-132 158,-132 158,-80 16,-80"/>
</a>
</g>
</g>
<!-- dir_7f629dfb5bddaac9a0e91bf56b6d3731 -->
<g id="node1" class="node">
<title>dir_7f629dfb5bddaac9a0e91bf56b6d3731</title>
<g id="a_node1"><a xlink:href="dir_7f629dfb5bddaac9a0e91bf56b6d3731.html" target="_top" xlink:title="include">
<polygon fill="none" stroke="black" points="150,-52 96,-52 96,-16 150,-16 150,-52"/>
<text text-anchor="middle" x="123" y="-31.5" font-family="Helvetica,sans-Serif" font-size="10.00">include</text>
</a>
</g>
</g>
<!-- dir_91e901f4669815123068a4acba61e31d -->
<g id="node2" class="node">
<title>dir_91e901f4669815123068a4acba61e31d</title>
<text text-anchor="middle" x="123" y="-103.5" font-family="Helvetica,sans-Serif" font-size="10.00">src</text>
</g>
<!-- dir_91e901f4669815123068a4acba61e31d&#45;&gt;dir_7f629dfb5bddaac9a0e91bf56b6d3731 -->
<g id="edge1" class="edge">
<title>dir_91e901f4669815123068a4acba61e31d&#45;&gt;dir_7f629dfb5bddaac9a0e91bf56b6d3731</title>
<path fill="none" stroke="black" d="M123,-87.7C123,-79.98 123,-70.71 123,-62.11"/>
<polygon fill="black" stroke="black" points="126.5,-62.1 123,-52.1 119.5,-62.1 126.5,-62.1"/>
<g id="a_edge1&#45;headlabel"><a xlink:href="dir_000086_000294.html" target="_top" xlink:title="5">
<text text-anchor="middle" x="129.34" y="-63.2" font-family="Helvetica,sans-Serif" font-size="10.00">5</text>
</a>
</g>
</g>
<!-- dir_9be0baa3d4a3e9f480a9ee70594037fa -->
<g id="node4" class="node">
<title>dir_9be0baa3d4a3e9f480a9ee70594037fa</title>
<g id="a_node4"><a xlink:href="dir_9be0baa3d4a3e9f480a9ee70594037fa.html" target="_top" xlink:title="kernel">
<polygon fill="white" stroke="red" points="228,-52 174,-52 174,-16 228,-16 228,-52"/>
<text text-anchor="middle" x="201" y="-31.5" font-family="Helvetica,sans-Serif" font-size="10.00">kernel</text>
</a>
</g>
</g>
<!-- dir_91e901f4669815123068a4acba61e31d&#45;&gt;dir_9be0baa3d4a3e9f480a9ee70594037fa -->
<g id="edge2" class="edge">
<title>dir_91e901f4669815123068a4acba61e31d&#45;&gt;dir_9be0baa3d4a3e9f480a9ee70594037fa</title>
<path fill="none" stroke="black" d="M142.28,-87.7C151.92,-79.05 163.73,-68.45 174.23,-59.03"/>
<polygon fill="black" stroke="black" points="176.84,-61.39 181.94,-52.1 172.16,-56.18 176.84,-61.39"/>
<g id="a_edge2&#45;headlabel"><a xlink:href="dir_000086_000214.html" target="_top" xlink:title="15">
<text text-anchor="middle" x="176.06" y="-63.4" font-family="Helvetica,sans-Serif" font-size="10.00">15</text>
</a>
</g>
</g>
<!-- dir_9adfede304c1081b01015a76d5669ba3 -->
<g id="node3" class="node">
<title>dir_9adfede304c1081b01015a76d5669ba3</title>
<g id="a_node3"><a xlink:href="dir_9adfede304c1081b01015a76d5669ba3.html" target="_top" xlink:title="include">
<polygon fill="white" stroke="black" points="78,-124 24,-124 24,-88 78,-88 78,-124"/>
<text text-anchor="middle" x="51" y="-103.5" font-family="Helvetica,sans-Serif" font-size="10.00">include</text>
</a>
</g>
</g>
</g>
</svg>
