<?xml version="1.0" encoding="UTF-8" standalone="no"?>
<!DOCTYPE svg PUBLIC "-//W3C//DTD SVG 1.1//EN"
 "http://www.w3.org/Graphics/SVG/1.1/DTD/svg11.dtd">
<!-- Generated by graphviz version 12.2.0 (20241103.1931)
 -->
<!-- Title: iop/system/iopmgr Pages: 1 -->
<svg width="385pt" height="197pt"
 viewBox="0.00 0.00 385.12 197.00" xmlns="http://www.w3.org/2000/svg" xmlns:xlink="http://www.w3.org/1999/xlink">
<g id="graph0" class="graph" transform="scale(1 1) rotate(0) translate(4 193)">
<title>iop/system/iopmgr</title>
<g id="clust1" class="cluster">
<title>clusterdir_40ac35421bc63b72c26b6c69b1517fd6</title>
<g id="a_clust1"><a xlink:href="dir_40ac35421bc63b72c26b6c69b1517fd6.html" target="_top" xlink:title="system">
<polygon fill="#deebf9" stroke="#7f7f7f" stroke-dasharray="5,2" points="8,-8 8,-181 327,-181 327,-8 8,-8"/>
<text text-anchor="middle" x="167.5" y="-167.5" font-family="Helvetica,sans-Serif" font-size="10.00">system</text>
</a>
</g>
</g>
<g id="clust2" class="cluster">
<title>clusterdir_024ed9b5cab300e9b0cec9fa63c26df3</title>
<g id="a_clust2"><a xlink:href="dir_024ed9b5cab300e9b0cec9fa63c26df3.html" target="_top">
<polygon fill="#deebf9" stroke="#404040" stroke-width="2" points="16,-63.25 16,-153.75 125,-153.75 125,-63.25 16,-63.25"/>
</a>
</g>
</g>
<!-- dir_1d64e5e9f20206636d72b5bbe3d2b274 -->
<g id="node1" class="node">
<title>dir_1d64e5e9f20206636d72b5bbe3d2b274</title>
<g id="a_node1"><a xlink:href="dir_1d64e5e9f20206636d72b5bbe3d2b274.html" target="_top" xlink:title="loadcore">
<polygon fill="#60a2e3" stroke="red" points="97.38,-35.25 44.62,-35.25 44.62,-16 97.38,-16 97.38,-35.25"/>
<text text-anchor="middle" x="71" y="-21.75" font-family="Helvetica,sans-Serif" font-size="10.00">loadcore</text>
</a>
</g>
</g>
<!-- dir_d204d0cf134f4cdf6ccf23f48ed9ae60 -->
<g id="node2" class="node">
<title>dir_d204d0cf134f4cdf6ccf23f48ed9ae60</title>
<g id="a_node2"><a xlink:href="dir_d204d0cf134f4cdf6ccf23f48ed9ae60.html" target="_top" xlink:title="ioman">
<polygon fill="#60a2e3" stroke="red" points="216.12,-35.25 173.88,-35.25 173.88,-16 216.12,-16 216.12,-35.25"/>
<text text-anchor="middle" x="195" y="-21.75" font-family="Helvetica,sans-Serif" font-size="10.00">ioman</text>
</a>
</g>
</g>
<!-- dir_f82a163f83eb0dcdf294ef3743365a67 -->
<g id="node3" class="node">
<title>dir_f82a163f83eb0dcdf294ef3743365a67</title>
<g id="a_node3"><a xlink:href="dir_f82a163f83eb0dcdf294ef3743365a67.html" target="_top" xlink:title="iomanx">
<polygon fill="#60a2e3" stroke="red" points="319.38,-90.5 272.62,-90.5 272.62,-71.25 319.38,-71.25 319.38,-90.5"/>
<text text-anchor="middle" x="296" y="-77" font-family="Helvetica,sans-Serif" font-size="10.00">iomanx</text>
</a>
</g>
</g>
<!-- dir_952a988346c879bc3b2834e2377036db -->
<g id="node4" class="node">
<title>dir_952a988346c879bc3b2834e2377036db</title>
<g id="a_node4"><a xlink:href="dir_952a988346c879bc3b2834e2377036db.html" target="_top" xlink:title="stdio">
<polygon fill="#60a2e3" stroke="red" points="170.5,-90.5 133.5,-90.5 133.5,-71.25 170.5,-71.25 170.5,-90.5"/>
<text text-anchor="middle" x="152" y="-77" font-family="Helvetica,sans-Serif" font-size="10.00">stdio</text>
</a>
</g>
</g>
<!-- dir_1bd32d4ef826aeeda00870843eb45c97 -->
<g id="node5" class="node">
<title>dir_1bd32d4ef826aeeda00870843eb45c97</title>
<g id="a_node5"><a xlink:href="dir_1bd32d4ef826aeeda00870843eb45c97.html" target="_top" xlink:title="sysclib">
<polygon fill="#60a2e3" stroke="red" points="235,-90.5 189,-90.5 189,-71.25 235,-71.25 235,-90.5"/>
<text text-anchor="middle" x="212" y="-77" font-family="Helvetica,sans-Serif" font-size="10.00">sysclib</text>
</a>
</g>
</g>
<!-- dir_024ed9b5cab300e9b0cec9fa63c26df3 -->
<g id="node6" class="node">
<title>dir_024ed9b5cab300e9b0cec9fa63c26df3</title>
<text text-anchor="middle" x="47" y="-132.25" font-family="Helvetica,sans-Serif" font-size="10.00">iopmgr</text>
</g>
<!-- dir_f43a10262b73c6e7d8c393ecfde6f1ae -->
<g id="node7" class="node">
<title>dir_f43a10262b73c6e7d8c393ecfde6f1ae</title>
<g id="a_node7"><a xlink:href="dir_f43a10262b73c6e7d8c393ecfde6f1ae.html" target="_top" xlink:title="include">
<polygon fill="#60a2e3" stroke="#404040" points="115.38,-90.5 68.62,-90.5 68.62,-71.25 115.38,-71.25 115.38,-90.5"/>
<text text-anchor="middle" x="92" y="-77" font-family="Helvetica,sans-Serif" font-size="10.00">include</text>
</a>
</g>
</g>
<!-- dir_f43a10262b73c6e7d8c393ecfde6f1ae&#45;&gt;dir_1d64e5e9f20206636d72b5bbe3d2b274 -->
<g id="edge1" class="edge">
<title>dir_f43a10262b73c6e7d8c393ecfde6f1ae&#45;&gt;dir_1d64e5e9f20206636d72b5bbe3d2b274</title>
<g id="a_edge1"><a xlink:href="dir_000214_000272.html" target="_top">
<path fill="none" stroke="#63b8ff" d="M88.53,-71.08C85.87,-64.34 82.1,-54.77 78.74,-46.24"/>
<polygon fill="#63b8ff" stroke="#63b8ff" points="82.02,-45.04 75.1,-37.02 75.51,-47.6 82.02,-45.04"/>
</a>
</g>
<g id="a_edge1&#45;headlabel"><a xlink:href="dir_000214_000272.html" target="_top" xlink:title="1">
<text text-anchor="middle" x="85.43" y="-42.06" font-family="Helvetica,sans-Serif" font-size="10.00" fill="#63b8ff">1</text>
</a>
</g>
</g>
<!-- dir_f43a10262b73c6e7d8c393ecfde6f1ae&#45;&gt;dir_d204d0cf134f4cdf6ccf23f48ed9ae60 -->
<g id="edge3" class="edge">
<title>dir_f43a10262b73c6e7d8c393ecfde6f1ae&#45;&gt;dir_d204d0cf134f4cdf6ccf23f48ed9ae60</title>
<g id="a_edge3"><a xlink:href="dir_000214_000247.html" target="_top">
<path fill="none" stroke="#63b8ff" d="M106.13,-70.8C110.23,-68.27 114.75,-65.57 119,-63.25 133.75,-55.19 150.54,-46.99 164.59,-40.4"/>
<polygon fill="#63b8ff" stroke="#63b8ff" points="165.74,-43.73 173.34,-36.35 162.8,-37.38 165.74,-43.73"/>
</a>
</g>
<g id="a_edge3&#45;headlabel"><a xlink:href="dir_000214_000247.html" target="_top" xlink:title="1">
<text text-anchor="middle" x="165.05" y="-43.3" font-family="Helvetica,sans-Serif" font-size="10.00" fill="#63b8ff">1</text>
</a>
</g>
</g>
<!-- dir_9be0baa3d4a3e9f480a9ee70594037fa -->
<g id="node9" class="node">
<title>dir_9be0baa3d4a3e9f480a9ee70594037fa</title>
<g id="a_node9"><a xlink:href="dir_9be0baa3d4a3e9f480a9ee70594037fa.html" target="_top" xlink:title="kernel">
<polygon fill="#deebf9" stroke="red" stroke-dasharray="5,2" points="377.12,-35.25 334.88,-35.25 334.88,-16 377.12,-16 377.12,-35.25"/>
<text text-anchor="middle" x="356" y="-21.75" font-family="Helvetica,sans-Serif" font-size="10.00">kernel</text>
</a>
</g>
</g>
<!-- dir_f43a10262b73c6e7d8c393ecfde6f1ae&#45;&gt;dir_9be0baa3d4a3e9f480a9ee70594037fa -->
<g id="edge2" class="edge">
<title>dir_f43a10262b73c6e7d8c393ecfde6f1ae&#45;&gt;dir_9be0baa3d4a3e9f480a9ee70594037fa</title>
<g id="a_edge2"><a xlink:href="dir_000214_000256.html" target="_top">
<path fill="none" stroke="#63b8ff" d="M104.35,-70.76C108.77,-67.92 113.92,-65.06 119,-63.25 204.96,-32.69 236.01,-55.12 323.31,-36.84"/>
<polygon fill="#63b8ff" stroke="#63b8ff" points="324.06,-40.26 333.06,-34.67 322.54,-33.43 324.06,-40.26"/>
</a>
</g>
<g id="a_edge2&#45;headlabel"><a xlink:href="dir_000214_000256.html" target="_top" xlink:title="1">
<text text-anchor="middle" x="322.65" y="-39.61" font-family="Helvetica,sans-Serif" font-size="10.00" fill="#63b8ff">1</text>
</a>
</g>
</g>
<!-- dir_1a7f0e9c955f51a704f1181957f21135 -->
<g id="node8" class="node">
<title>dir_1a7f0e9c955f51a704f1181957f21135</title>
<g id="a_node8"><a xlink:href="dir_1a7f0e9c955f51a704f1181957f21135.html" target="_top" xlink:title="src">
<polygon fill="#60a2e3" stroke="#404040" points="116.75,-145.75 87.25,-145.75 87.25,-126.5 116.75,-126.5 116.75,-145.75"/>
<text text-anchor="middle" x="102" y="-132.25" font-family="Helvetica,sans-Serif" font-size="10.00">src</text>
</a>
</g>
</g>
<!-- dir_1a7f0e9c955f51a704f1181957f21135&#45;&gt;dir_1d64e5e9f20206636d72b5bbe3d2b274 -->
<g id="edge5" class="edge">
<title>dir_1a7f0e9c955f51a704f1181957f21135&#45;&gt;dir_1d64e5e9f20206636d72b5bbe3d2b274</title>
<g id="a_edge5"><a xlink:href="dir_000516_000272.html" target="_top">
<path fill="none" stroke="#63b8ff" d="M89.39,-126.14C79.29,-118.11 65.88,-105.33 60,-90.5 54.35,-76.24 57.83,-59.07 62.32,-46.11"/>
<polygon fill="#63b8ff" stroke="#63b8ff" points="65.5,-47.61 65.94,-37.02 58.99,-45.02 65.5,-47.61"/>
</a>
</g>
<g id="a_edge5&#45;headlabel"><a xlink:href="dir_000516_000272.html" target="_top" xlink:title="3">
<text text-anchor="middle" x="67.37" y="-46.72" font-family="Helvetica,sans-Serif" font-size="10.00" fill="#63b8ff">3</text>
</a>
</g>
</g>
<!-- dir_1a7f0e9c955f51a704f1181957f21135&#45;&gt;dir_d204d0cf134f4cdf6ccf23f48ed9ae60 -->
<g id="edge8" class="edge">
<title>dir_1a7f0e9c955f51a704f1181957f21135&#45;&gt;dir_d204d0cf134f4cdf6ccf23f48ed9ae60</title>
<g id="a_edge8"><a xlink:href="dir_000516_000247.html" target="_top">
<path fill="none" stroke="#63b8ff" d="M116.81,-135.65C146.71,-135.8 214.03,-131.33 244,-90.5 251.17,-80.74 249.43,-74.08 244,-63.25 239.6,-54.47 231.99,-47.26 224.07,-41.63"/>
<polygon fill="#63b8ff" stroke="#63b8ff" points="226.03,-38.73 215.71,-36.35 222.29,-44.65 226.03,-38.73"/>
</a>
</g>
<g id="a_edge8&#45;headlabel"><a xlink:href="dir_000516_000247.html" target="_top" xlink:title="2">
<text text-anchor="middle" x="229.31" y="-33.57" font-family="Helvetica,sans-Serif" font-size="10.00" fill="#63b8ff">2</text>
</a>
</g>
</g>
<!-- dir_1a7f0e9c955f51a704f1181957f21135&#45;&gt;dir_f82a163f83eb0dcdf294ef3743365a67 -->
<g id="edge10" class="edge">
<title>dir_1a7f0e9c955f51a704f1181957f21135&#45;&gt;dir_f82a163f83eb0dcdf294ef3743365a67</title>
<g id="a_edge10"><a xlink:href="dir_000516_000248.html" target="_top">
<path fill="none" stroke="#63b8ff" d="M117.22,-130.95C148.07,-122.48 218.64,-103.11 261.31,-91.4"/>
<polygon fill="#63b8ff" stroke="#63b8ff" points="262.11,-94.81 270.83,-88.78 260.26,-88.06 262.11,-94.81"/>
</a>
</g>
<g id="a_edge10&#45;headlabel"><a xlink:href="dir_000516_000248.html" target="_top" xlink:title="3">
<text text-anchor="middle" x="260.86" y="-94.22" font-family="Helvetica,sans-Serif" font-size="10.00" fill="#63b8ff">3</text>
</a>
</g>
</g>
<!-- dir_1a7f0e9c955f51a704f1181957f21135&#45;&gt;dir_952a988346c879bc3b2834e2377036db -->
<g id="edge6" class="edge">
<title>dir_1a7f0e9c955f51a704f1181957f21135&#45;&gt;dir_952a988346c879bc3b2834e2377036db</title>
<g id="a_edge6"><a xlink:href="dir_000516_000562.html" target="_top">
<path fill="none" stroke="#63b8ff" d="M110.26,-126.33C117.16,-118.98 127.22,-108.26 135.74,-99.19"/>
<polygon fill="#63b8ff" stroke="#63b8ff" points="138.23,-101.65 142.53,-91.96 133.13,-96.86 138.23,-101.65"/>
</a>
</g>
<g id="a_edge6&#45;headlabel"><a xlink:href="dir_000516_000562.html" target="_top" xlink:title="6">
<text text-anchor="middle" x="138.88" y="-101.23" font-family="Helvetica,sans-Serif" font-size="10.00" fill="#63b8ff">6</text>
</a>
</g>
</g>
<!-- dir_1a7f0e9c955f51a704f1181957f21135&#45;&gt;dir_1bd32d4ef826aeeda00870843eb45c97 -->
<g id="edge4" class="edge">
<title>dir_1a7f0e9c955f51a704f1181957f21135&#45;&gt;dir_1bd32d4ef826aeeda00870843eb45c97</title>
<g id="a_edge4"><a xlink:href="dir_000516_000569.html" target="_top">
<path fill="none" stroke="#63b8ff" d="M116.84,-127.94C133.79,-119.73 161.95,-106.11 183.24,-95.8"/>
<polygon fill="#63b8ff" stroke="#63b8ff" points="184.53,-99.06 192,-91.56 181.48,-92.76 184.53,-99.06"/>
</a>
</g>
<g id="a_edge4&#45;headlabel"><a xlink:href="dir_000516_000569.html" target="_top" xlink:title="5">
<text text-anchor="middle" x="183.89" y="-98.65" font-family="Helvetica,sans-Serif" font-size="10.00" fill="#63b8ff">5</text>
</a>
</g>
</g>
<!-- dir_1a7f0e9c955f51a704f1181957f21135&#45;&gt;dir_f43a10262b73c6e7d8c393ecfde6f1ae -->
<g id="edge9" class="edge">
<title>dir_1a7f0e9c955f51a704f1181957f21135&#45;&gt;dir_f43a10262b73c6e7d8c393ecfde6f1ae</title>
<g id="a_edge9"><a xlink:href="dir_000516_000214.html" target="_top">
<path fill="none" stroke="#63b8ff" d="M100.35,-126.33C99.11,-119.74 97.37,-110.46 95.79,-102.07"/>
<polygon fill="#63b8ff" stroke="#63b8ff" points="99.25,-101.53 93.97,-92.35 92.37,-102.82 99.25,-101.53"/>
</a>
</g>
<g id="a_edge9&#45;headlabel"><a xlink:href="dir_000516_000214.html" target="_top" xlink:title="5">
<text text-anchor="middle" x="102.43" y="-99.18" font-family="Helvetica,sans-Serif" font-size="10.00" fill="#63b8ff">5</text>
</a>
</g>
</g>
<!-- dir_1a7f0e9c955f51a704f1181957f21135&#45;&gt;dir_9be0baa3d4a3e9f480a9ee70594037fa -->
<g id="edge7" class="edge">
<title>dir_1a7f0e9c955f51a704f1181957f21135&#45;&gt;dir_9be0baa3d4a3e9f480a9ee70594037fa</title>
<g id="a_edge7"><a xlink:href="dir_000516_000256.html" target="_top">
<path fill="none" stroke="#63b8ff" d="M117.05,-134.06C162.62,-130.56 298.03,-118 331,-90.5 344.02,-79.65 350.29,-61.12 353.29,-46.81"/>
<polygon fill="#63b8ff" stroke="#63b8ff" points="356.71,-47.55 354.92,-37.1 349.81,-46.38 356.71,-47.55"/>
</a>
</g>
<g id="a_edge7&#45;headlabel"><a xlink:href="dir_000516_000256.html" target="_top" xlink:title="9">
<text text-anchor="middle" x="359.17" y="-46.19" font-family="Helvetica,sans-Serif" font-size="10.00" fill="#63b8ff">9</text>
</a>
</g>
</g>
</g>
</svg>
