<?xml version="1.0" encoding="UTF-8" standalone="no"?>
<!DOCTYPE svg PUBLIC "-//W3C//DTD SVG 1.1//EN"
 "http://www.w3.org/Graphics/SVG/1.1/DTD/svg11.dtd">
<!-- Generated by graphviz version 2.43.0 (0)
 -->
<!-- Title: common/sbus/src Pages: 1 -->
<svg width="130pt" height="367pt"
 viewBox="0.00 0.00 130.28 367.00" xmlns="http://www.w3.org/2000/svg" xmlns:xlink="http://www.w3.org/1999/xlink">
<g id="graph0" class="graph" transform="scale(1 1) rotate(0) translate(4 363)">
<title>common/sbus/src</title>
<polygon fill="white" stroke="transparent" points="-4,4 -4,-363 126.28,-363 126.28,4 -4,4"/>
<g id="clust1" class="cluster">
<title>clusterdir_58a8fc8f1a03774579661b06bb97dd1a</title>
<g id="a_clust1"><a xlink:href="dir_58a8fc8f1a03774579661b06bb97dd1a.html" target="_top" xlink:title="sbus">
<polygon fill="#ddddee" stroke="black" points="13.77,-280 13.77,-351 83.77,-351 83.77,-280 13.77,-280"/>
<text text-anchor="middle" x="48.77" y="-339" font-family="Helvetica,sans-Serif" font-size="10.00">sbus</text>
</a>
</g>
</g>
<!-- dir_b86d8e8cc4ff73a3835f86acf7570149 -->
<g id="node1" class="node">
<title>dir_b86d8e8cc4ff73a3835f86acf7570149</title>
<g id="a_node1"><a xlink:href="dir_b86d8e8cc4ff73a3835f86acf7570149.html" target="_top" xlink:title="src">
<polygon fill="#eeeeff" stroke="black" points="75.77,-324 21.77,-324 21.77,-288 75.77,-288 75.77,-324"/>
<text text-anchor="middle" x="48.77" y="-303.5" font-family="Helvetica,sans-Serif" font-size="10.00">src</text>
</a>
</g>
</g>
<!-- dir_11fbc4217d50ab21044e5ad6614aede5 -->
<g id="node2" class="node">
<title>dir_11fbc4217d50ab21044e5ad6614aede5</title>
<g id="a_node2"><a xlink:href="dir_11fbc4217d50ab21044e5ad6614aede5.html" target="_top" xlink:title="include">
<polygon fill="white" stroke="red" points="65.77,-180 11.77,-180 11.77,-144 65.77,-144 65.77,-180"/>
<text text-anchor="middle" x="38.77" y="-159.5" font-family="Helvetica,sans-Serif" font-size="10.00">include</text>
</a>
</g>
</g>
<!-- dir_b86d8e8cc4ff73a3835f86acf7570149&#45;&gt;dir_11fbc4217d50ab21044e5ad6614aede5 -->
<g id="edge2" class="edge">
<title>dir_b86d8e8cc4ff73a3835f86acf7570149&#45;&gt;dir_11fbc4217d50ab21044e5ad6614aede5</title>
<path fill="none" stroke="black" d="M45.62,-287.88C43.86,-277.53 41.81,-264.05 40.77,-252 38.99,-231.34 38.52,-207.89 38.49,-190.25"/>
<polygon fill="black" stroke="black" points="41.99,-190.11 38.51,-180.1 34.99,-190.09 41.99,-190.11"/>
<g id="a_edge2&#45;headlabel"><a xlink:href="dir_000005_000001.html" target="_top" xlink:title="18">
<text text-anchor="middle" x="44.82" y="-191.21" font-family="Helvetica,sans-Serif" font-size="10.00">18</text>
</a>
</g>
</g>
<!-- dir_71fde4f0207fc0e816aa54ff3c3cace1 -->
<g id="node3" class="node">
<title>dir_71fde4f0207fc0e816aa54ff3c3cace1</title>
<g id="a_node3"><a xlink:href="dir_71fde4f0207fc0e816aa54ff3c3cace1.html" target="_top" xlink:title="include">
<polygon fill="none" stroke="black" points="56.77,-36 2.77,-36 2.77,0 56.77,0 56.77,-36"/>
<text text-anchor="middle" x="29.77" y="-15.5" font-family="Helvetica,sans-Serif" font-size="10.00">include</text>
</a>
</g>
</g>
<!-- dir_b86d8e8cc4ff73a3835f86acf7570149&#45;&gt;dir_71fde4f0207fc0e816aa54ff3c3cace1 -->
<g id="edge3" class="edge">
<title>dir_b86d8e8cc4ff73a3835f86acf7570149&#45;&gt;dir_71fde4f0207fc0e816aa54ff3c3cace1</title>
<path fill="none" stroke="black" d="M40.19,-287.75C28.97,-264.12 9.91,-220.07 2.77,-180 -5.62,-132.92 8.78,-77.96 19.57,-45.96"/>
<polygon fill="black" stroke="black" points="22.91,-47.01 22.92,-36.41 16.31,-44.69 22.91,-47.01"/>
<g id="a_edge3&#45;headlabel"><a xlink:href="dir_000005_000004.html" target="_top" xlink:title="8">
<text text-anchor="middle" x="24.4" y="-48.84" font-family="Helvetica,sans-Serif" font-size="10.00">8</text>
</a>
</g>
</g>
<!-- dir_049738f1909e8dc3e45fe1f6b3faa109 -->
<g id="node4" class="node">
<title>dir_049738f1909e8dc3e45fe1f6b3faa109</title>
<g id="a_node4"><a xlink:href="dir_049738f1909e8dc3e45fe1f6b3faa109.html" target="_top" xlink:title="ee">
<polygon fill="white" stroke="red" points="103.77,-252 49.77,-252 49.77,-216 103.77,-216 103.77,-252"/>
<text text-anchor="middle" x="76.77" y="-231.5" font-family="Helvetica,sans-Serif" font-size="10.00">ee</text>
</a>
</g>
</g>
<!-- dir_b86d8e8cc4ff73a3835f86acf7570149&#45;&gt;dir_049738f1909e8dc3e45fe1f6b3faa109 -->
<g id="edge4" class="edge">
<title>dir_b86d8e8cc4ff73a3835f86acf7570149&#45;&gt;dir_049738f1909e8dc3e45fe1f6b3faa109</title>
<path fill="none" stroke="black" d="M55.69,-287.7C58.84,-279.81 62.65,-270.3 66.15,-261.55"/>
<polygon fill="black" stroke="black" points="69.46,-262.69 69.93,-252.1 62.96,-260.09 69.46,-262.69"/>
<g id="a_edge4&#45;headlabel"><a xlink:href="dir_000005_000006.html" target="_top" xlink:title="1">
<text text-anchor="middle" x="70.77" y="-264.58" font-family="Helvetica,sans-Serif" font-size="10.00">1</text>
</a>
</g>
</g>
<!-- dir_0981ace215aa2029f526b70c145b9fbe -->
<g id="node5" class="node">
<title>dir_0981ace215aa2029f526b70c145b9fbe</title>
<g id="a_node5"><a xlink:href="dir_0981ace215aa2029f526b70c145b9fbe.html" target="_top" xlink:title="iop">
<polygon fill="white" stroke="red" points="111.77,-108 57.77,-108 57.77,-72 111.77,-72 111.77,-108"/>
<text text-anchor="middle" x="84.77" y="-87.5" font-family="Helvetica,sans-Serif" font-size="10.00">iop</text>
</a>
</g>
</g>
<!-- dir_b86d8e8cc4ff73a3835f86acf7570149&#45;&gt;dir_0981ace215aa2029f526b70c145b9fbe -->
<g id="edge5" class="edge">
<title>dir_b86d8e8cc4ff73a3835f86acf7570149&#45;&gt;dir_0981ace215aa2029f526b70c145b9fbe</title>
<path fill="none" stroke="black" d="M75.87,-290.39C89.66,-281.34 105.1,-268.32 112.77,-252 133.45,-208.03 113.92,-150.82 98.73,-117.78"/>
<polygon fill="black" stroke="black" points="101.69,-115.84 94.21,-108.34 95.38,-118.87 101.69,-115.84"/>
<g id="a_edge5&#45;headlabel"><a xlink:href="dir_000005_000011.html" target="_top" xlink:title="18">
<text text-anchor="middle" x="105.8" y="-115.36" font-family="Helvetica,sans-Serif" font-size="10.00">18</text>
</a>
</g>
</g>
<!-- dir_11fbc4217d50ab21044e5ad6614aede5&#45;&gt;dir_0981ace215aa2029f526b70c145b9fbe -->
<g id="edge1" class="edge">
<title>dir_11fbc4217d50ab21044e5ad6614aede5&#45;&gt;dir_0981ace215aa2029f526b70c145b9fbe</title>
<path fill="none" stroke="black" d="M44.22,-143.7C48.78,-135.47 55.14,-125.48 61.54,-116.42"/>
<polygon fill="black" stroke="black" points="64.55,-118.24 67.63,-108.1 58.9,-114.1 64.55,-118.24"/>
<g id="a_edge1&#45;headlabel"><a xlink:href="dir_000001_000011.html" target="_top" xlink:title="2">
<text text-anchor="middle" x="64.72" y="-120.32" font-family="Helvetica,sans-Serif" font-size="10.00">2</text>
</a>
</g>
</g>
<!-- dir_71fde4f0207fc0e816aa54ff3c3cace1&#45;&gt;dir_11fbc4217d50ab21044e5ad6614aede5 -->
<g id="edge6" class="edge">
<title>dir_71fde4f0207fc0e816aa54ff3c3cace1&#45;&gt;dir_11fbc4217d50ab21044e5ad6614aede5</title>
<path fill="none" stroke="black" d="M30.86,-36.19C32.4,-60.42 35.21,-104.89 37.04,-133.68"/>
<polygon fill="black" stroke="black" points="33.56,-134.11 37.68,-143.87 40.54,-133.67 33.56,-134.11"/>
<g id="a_edge6&#45;headlabel"><a xlink:href="dir_000004_000001.html" target="_top" xlink:title="2">
<text text-anchor="middle" x="30.5" y="-128.21" font-family="Helvetica,sans-Serif" font-size="10.00">2</text>
</a>
</g>
</g>
<!-- dir_049738f1909e8dc3e45fe1f6b3faa109&#45;&gt;dir_11fbc4217d50ab21044e5ad6614aede5 -->
<g id="edge7" class="edge">
<title>dir_049738f1909e8dc3e45fe1f6b3faa109&#45;&gt;dir_11fbc4217d50ab21044e5ad6614aede5</title>
<path fill="none" stroke="black" d="M67.38,-215.7C63,-207.64 57.71,-197.89 52.87,-188.98"/>
<polygon fill="black" stroke="black" points="55.9,-187.22 48.06,-180.1 49.75,-190.56 55.9,-187.22"/>
<g id="a_edge7&#45;headlabel"><a xlink:href="dir_000006_000001.html" target="_top" xlink:title="181">
<text text-anchor="middle" x="60.11" y="-186.53" font-family="Helvetica,sans-Serif" font-size="10.00">181</text>
</a>
</g>
</g>
<!-- dir_049738f1909e8dc3e45fe1f6b3faa109&#45;&gt;dir_0981ace215aa2029f526b70c145b9fbe -->
<g id="edge8" class="edge">
<title>dir_049738f1909e8dc3e45fe1f6b3faa109&#45;&gt;dir_0981ace215aa2029f526b70c145b9fbe</title>
<path fill="none" stroke="black" d="M77.73,-215.87C79.1,-191.67 81.6,-147.21 83.23,-118.39"/>
<polygon fill="black" stroke="black" points="86.73,-118.37 83.8,-108.19 79.74,-117.98 86.73,-118.37"/>
<g id="a_edge8&#45;headlabel"><a xlink:href="dir_000006_000011.html" target="_top" xlink:title="100">
<text text-anchor="middle" x="89.37" y="-119.62" font-family="Helvetica,sans-Serif" font-size="10.00">100</text>
</a>
</g>
</g>
<!-- dir_0981ace215aa2029f526b70c145b9fbe&#45;&gt;dir_11fbc4217d50ab21044e5ad6614aede5 -->
<g id="edge9" class="edge">
<title>dir_0981ace215aa2029f526b70c145b9fbe&#45;&gt;dir_11fbc4217d50ab21044e5ad6614aede5</title>
<path fill="none" stroke="black" d="M79.42,-108.1C74.9,-116.3 68.55,-126.28 62.15,-135.36"/>
<polygon fill="black" stroke="black" points="59.13,-133.56 56.06,-143.7 64.78,-137.69 59.13,-133.56"/>
<g id="a_edge9&#45;headlabel"><a xlink:href="dir_000011_000001.html" target="_top" xlink:title="251">
<text text-anchor="middle" x="58.96" y="-126.48" font-family="Helvetica,sans-Serif" font-size="10.00">251</text>
</a>
</g>
</g>
<!-- dir_0981ace215aa2029f526b70c145b9fbe&#45;&gt;dir_71fde4f0207fc0e816aa54ff3c3cace1 -->
<g id="edge10" class="edge">
<title>dir_0981ace215aa2029f526b70c145b9fbe&#45;&gt;dir_71fde4f0207fc0e816aa54ff3c3cace1</title>
<path fill="none" stroke="black" d="M71.17,-71.7C64.65,-63.39 56.7,-53.28 49.52,-44.14"/>
<polygon fill="black" stroke="black" points="52.14,-41.81 43.21,-36.1 46.64,-46.13 52.14,-41.81"/>
<g id="a_edge10&#45;headlabel"><a xlink:href="dir_000011_000004.html" target="_top" xlink:title="4">
<text text-anchor="middle" x="56.59" y="-40.38" font-family="Helvetica,sans-Serif" font-size="10.00">4</text>
</a>
</g>
</g>
</g>
</svg>
