<?xml version="1.0" encoding="UTF-8" standalone="no"?>
<!DOCTYPE svg PUBLIC "-//W3C//DTD SVG 1.1//EN"
 "http://www.w3.org/Graphics/SVG/1.1/DTD/svg11.dtd">
<!-- Generated by graphviz version 12.2.0 (20241103.1931)
 -->
<!-- Title: iop/usb Pages: 1 -->
<!--zoomable 197 -->

<svg id="main" version="1.1" xmlns="http://www.w3.org/2000/svg" xmlns:xlink="http://www.w3.org/1999/xlink" xml:space="preserve" onload="init(evt)">

<style type="text/css"><![CDATA[
.node, .edge {opacity: 0.7;}
.node.selected, .edge.selected {opacity: 1;}
.edge:hover path { stroke: red; }
.edge:hover polygon { stroke: red; fill: red; }
]]></style>

<defs>
  <circle id="rim" cx="0" cy="0" r="7"/>
  <circle id="rim2" cx="0" cy="0" r="3.5"/>
  <g id="zoomPlus">
    <use xlink:href="#rim" fill="#404040"><set attributeName="fill" to="#808080" begin="zoomplus.mouseover" end="zoomplus.mouseout"/></use>
    <path d="M-4,0h8M0,-4v8" fill="none" stroke="white" stroke-width="1.5" pointer-events="none"/>
  </g>
  <g id="zoomMin">
    <use xlink:href="#rim" fill="#404040"><set attributeName="fill" to="#808080" begin="zoomminus.mouseover" end="zoomminus.mouseout"/></use>
    <path d="M-4,0h8" fill="none" stroke="white" stroke-width="1.5" pointer-events="none"/>
  </g>
  <g id="arrowUp" transform="translate(30 24)">
    <use xlink:href="#rim"/>
    <path pointer-events="none" fill="none" stroke="white" stroke-width="1.5" d="M0,-3.0v7 M-2.5,-0.5L0,-3.0L2.5,-0.5"/>
  </g>
  <g id="arrowRight" transform="rotate(90) translate(36 -43)">
    <use xlink:href="#rim"/>
    <path pointer-events="none" fill="none" stroke="white" stroke-width="1.5" d="M0,-3.0v7 M-2.5,-0.5L0,-3.0L2.5,-0.5"/>
  </g>
  <g id="arrowDown" transform="rotate(180) translate(-30 -48)">
    <use xlink:href="#rim"/>
    <path pointer-events="none" fill="none" stroke="white" stroke-width="1.5" d="M0,-3.0v7 M-2.5,-0.5L0,-3.0L2.5,-0.5"/>
  </g>
  <g id="arrowLeft" transform="rotate(270) translate(-36 17)">
    <use xlink:href="#rim"/>
    <path pointer-events="none" fill="none" stroke="white" stroke-width="1.5" d="M0,-3.0v7 M-2.5,-0.5L0,-3.0L2.5,-0.5"/>
  </g>
  <g id="resetDef">
    <use xlink:href="#rim2" fill="#404040"><set attributeName="fill" to="#808080" begin="reset.mouseover" end="reset.mouseout"/></use>
  </g>
</defs>
<script type="application/ecmascript">
var viewWidth = 643;
var viewHeight = 197;
var sectionId = 'dynsection-0';
</script>
<script type="application/ecmascript" xlink:href="svg.min.js"/>
<svg id="graph" class="graph">
<g id="viewport">
<title>iop/usb</title>
<g id="clust1" class="cluster">
<title>clusterdir_0981ace215aa2029f526b70c145b9fbe</title>
<g id="a_clust1"><a xlink:href="dir_0981ace215aa2029f526b70c145b9fbe.html" target="_top" xlink:title="iop">
<polygon fill="#deebf9" stroke="#404040" stroke-dasharray="5,2" points="8,-8 8,-181 571,-181 571,-8 8,-8"/>
<text text-anchor="middle" x="289.5" y="-167.5" font-family="Helvetica,sans-Serif" font-size="10.00">iop</text>
</a>
</g>
</g>
<g id="clust2" class="cluster">
<title>clusterdir_b6c875632944d243a548db157cd77ec2</title>
<g id="a_clust2"><a xlink:href="dir_b6c875632944d243a548db157cd77ec2.html" target="_top">
<polygon fill="#deebf9" stroke="#404040" stroke-width="2" points="16,-63.25 16,-153.75 431,-153.75 431,-63.25 16,-63.25"/>
</a>
</g>
</g>
<!-- dir_40ac35421bc63b72c26b6c69b1517fd6 -->
<g id="node1" class="node">
<title>dir_40ac35421bc63b72c26b6c69b1517fd6</title>
<g id="a_node1"><a xlink:href="dir_40ac35421bc63b72c26b6c69b1517fd6.html" target="_top" xlink:title="system">
<polygon fill="#60a2e3" stroke="red" points="215.75,-35.25 168.25,-35.25 168.25,-16 215.75,-16 215.75,-35.25"/>
<text text-anchor="middle" x="192" y="-21.75" font-family="Helvetica,sans-Serif" font-size="10.00">system</text>
</a>
</g>
</g>
<!-- dir_9be0baa3d4a3e9f480a9ee70594037fa -->
<g id="node2" class="node">
<title>dir_9be0baa3d4a3e9f480a9ee70594037fa</title>
<g id="a_node2"><a xlink:href="dir_9be0baa3d4a3e9f480a9ee70594037fa.html" target="_top" xlink:title="kernel">
<polygon fill="#60a2e3" stroke="red" points="349.12,-35.25 306.88,-35.25 306.88,-16 349.12,-16 349.12,-35.25"/>
<text text-anchor="middle" x="328" y="-21.75" font-family="Helvetica,sans-Serif" font-size="10.00">kernel</text>
</a>
</g>
</g>
<!-- dir_a12d8da7b0731a57c6a388326ad5e612 -->
<g id="node3" class="node">
<title>dir_a12d8da7b0731a57c6a388326ad5e612</title>
<g id="a_node3"><a xlink:href="dir_a12d8da7b0731a57c6a388326ad5e612.html" target="_top" xlink:title="cdvd">
<polygon fill="#60a2e3" stroke="red" points="476.5,-90.5 439.5,-90.5 439.5,-71.25 476.5,-71.25 476.5,-90.5"/>
<text text-anchor="middle" x="458" y="-77" font-family="Helvetica,sans-Serif" font-size="10.00">cdvd</text>
</a>
</g>
</g>
<!-- dir_f24daea2522ffa8b6dc5fa9cdf5b8f5c -->
<g id="node4" class="node">
<title>dir_f24daea2522ffa8b6dc5fa9cdf5b8f5c</title>
<g id="a_node4"><a xlink:href="dir_f24daea2522ffa8b6dc5fa9cdf5b8f5c.html" target="_top" xlink:title="fs">
<polygon fill="#60a2e3" stroke="red" points="563.4,-90.5 534.6,-90.5 534.6,-71.25 563.4,-71.25 563.4,-90.5"/>
<text text-anchor="middle" x="549" y="-77" font-family="Helvetica,sans-Serif" font-size="10.00">fs</text>
</a>
</g>
</g>
<!-- dir_b6c875632944d243a548db157cd77ec2 -->
<g id="node5" class="node">
<title>dir_b6c875632944d243a548db157cd77ec2</title>
<text text-anchor="middle" x="40" y="-132.25" font-family="Helvetica,sans-Serif" font-size="10.00">usb</text>
</g>
<!-- dir_354d0fe30f8451f44d30d5ee272e7643 -->
<g id="node6" class="node">
<title>dir_354d0fe30f8451f44d30d5ee272e7643</title>
<g id="a_node6"><a xlink:href="dir_354d0fe30f8451f44d30d5ee272e7643.html" target="_top" xlink:title="camera">
<polygon fill="#60a2e3" stroke="#404040" points="186.12,-145.75 137.88,-145.75 137.88,-126.5 186.12,-126.5 186.12,-145.75"/>
<text text-anchor="middle" x="162" y="-132.25" font-family="Helvetica,sans-Serif" font-size="10.00">camera</text>
</a>
</g>
</g>
<!-- dir_354d0fe30f8451f44d30d5ee272e7643&#45;&gt;dir_40ac35421bc63b72c26b6c69b1517fd6 -->
<g id="edge2" class="edge">
<title>dir_354d0fe30f8451f44d30d5ee272e7643&#45;&gt;dir_40ac35421bc63b72c26b6c69b1517fd6</title>
<g id="a_edge2"><a xlink:href="dir_000038_000531.html" target="_top">
<path fill="none" stroke="#63b8ff" d="M163.33,-126.14C165.49,-112.4 170.21,-85.43 177,-63.25 178.77,-57.48 181.09,-51.35 183.38,-45.8"/>
<polygon fill="#63b8ff" stroke="#63b8ff" points="186.48,-47.45 187.23,-36.88 180.05,-44.67 186.48,-47.45"/>
</a>
</g>
<g id="a_edge2&#45;headlabel"><a xlink:href="dir_000038_000531.html" target="_top" xlink:title="18">
<text text-anchor="middle" x="188.26" y="-46.61" font-family="Helvetica,sans-Serif" font-size="10.00" fill="#63b8ff">18</text>
</a>
</g>
</g>
<!-- dir_354d0fe30f8451f44d30d5ee272e7643&#45;&gt;dir_9be0baa3d4a3e9f480a9ee70594037fa -->
<g id="edge1" class="edge">
<title>dir_354d0fe30f8451f44d30d5ee272e7643&#45;&gt;dir_9be0baa3d4a3e9f480a9ee70594037fa</title>
<g id="a_edge1"><a xlink:href="dir_000038_000245.html" target="_top">
<path fill="none" stroke="#63b8ff" d="M186.52,-128.6C224.56,-118.3 294.33,-98.61 303,-90.5 315.38,-78.92 321.72,-60.48 324.91,-46.38"/>
<polygon fill="#63b8ff" stroke="#63b8ff" points="328.29,-47.35 326.7,-36.88 321.41,-46.06 328.29,-47.35"/>
</a>
</g>
<g id="a_edge1&#45;headlabel"><a xlink:href="dir_000038_000245.html" target="_top" xlink:title="1">
<text text-anchor="middle" x="330.69" y="-46.05" font-family="Helvetica,sans-Serif" font-size="10.00" fill="#63b8ff">1</text>
</a>
</g>
</g>
<!-- dir_8f550b51c304fe10978bfd792866fae2 -->
<g id="node9" class="node">
<title>dir_8f550b51c304fe10978bfd792866fae2</title>
<g id="a_node9"><a xlink:href="dir_8f550b51c304fe10978bfd792866fae2.html" target="_top" xlink:title="usbd">
<polygon fill="#60a2e3" stroke="#404040" points="278.5,-90.5 241.5,-90.5 241.5,-71.25 278.5,-71.25 278.5,-90.5"/>
<text text-anchor="middle" x="260" y="-77" font-family="Helvetica,sans-Serif" font-size="10.00">usbd</text>
</a>
</g>
</g>
<!-- dir_354d0fe30f8451f44d30d5ee272e7643&#45;&gt;dir_8f550b51c304fe10978bfd792866fae2 -->
<g id="edge3" class="edge">
<title>dir_354d0fe30f8451f44d30d5ee272e7643&#45;&gt;dir_8f550b51c304fe10978bfd792866fae2</title>
<g id="a_edge3"><a xlink:href="dir_000038_000547.html" target="_top">
<path fill="none" stroke="#63b8ff" d="M178.62,-126.09C193.69,-117.91 216.14,-105.71 233.65,-96.19"/>
<polygon fill="#63b8ff" stroke="#63b8ff" points="234.85,-99.52 241.96,-91.68 231.51,-93.37 234.85,-99.52"/>
</a>
</g>
<g id="a_edge3&#45;headlabel"><a xlink:href="dir_000038_000547.html" target="_top" xlink:title="3">
<text text-anchor="middle" x="234.38" y="-99.14" font-family="Helvetica,sans-Serif" font-size="10.00" fill="#63b8ff">3</text>
</a>
</g>
</g>
<!-- dir_bdd9a5d540de89e9fe90efdfc6973a4f -->
<g id="node12" class="node">
<title>dir_bdd9a5d540de89e9fe90efdfc6973a4f</title>
<g id="a_node12"><a xlink:href="dir_bdd9a5d540de89e9fe90efdfc6973a4f.html" target="_top" xlink:title="common">
<polygon fill="#deebf9" stroke="red" points="634.75,-90.5 581.25,-90.5 581.25,-71.25 634.75,-71.25 634.75,-90.5"/>
<text text-anchor="middle" x="608" y="-77" font-family="Helvetica,sans-Serif" font-size="10.00">common</text>
</a>
</g>
</g>
<!-- dir_354d0fe30f8451f44d30d5ee272e7643&#45;&gt;dir_bdd9a5d540de89e9fe90efdfc6973a4f -->
<g id="edge4" class="edge">
<title>dir_354d0fe30f8451f44d30d5ee272e7643&#45;&gt;dir_bdd9a5d540de89e9fe90efdfc6973a4f</title>
<g id="a_edge4"><a xlink:href="dir_000038_000046.html" target="_top">
<path fill="none" stroke="#63b8ff" d="M186.42,-128.45C189.62,-127.72 192.88,-127.04 196,-126.5 359.14,-98.23 406.37,-119.05 570.11,-91.2"/>
<polygon fill="#63b8ff" stroke="#63b8ff" points="570.32,-94.71 579.57,-89.55 569.12,-87.82 570.32,-94.71"/>
</a>
</g>
<g id="a_edge4&#45;headlabel"><a xlink:href="dir_000038_000046.html" target="_top" xlink:title="1">
<text text-anchor="middle" x="568.76" y="-93.99" font-family="Helvetica,sans-Serif" font-size="10.00" fill="#63b8ff">1</text>
</a>
</g>
</g>
<!-- dir_dfd34f7999bdb28cb70101636e016b16 -->
<g id="node7" class="node">
<title>dir_dfd34f7999bdb28cb70101636e016b16</title>
<g id="a_node7"><a xlink:href="dir_dfd34f7999bdb28cb70101636e016b16.html" target="_top" xlink:title="keyboard">
<polygon fill="#60a2e3" stroke="#404040" points="259.5,-145.75 204.5,-145.75 204.5,-126.5 259.5,-126.5 259.5,-145.75"/>
<text text-anchor="middle" x="232" y="-132.25" font-family="Helvetica,sans-Serif" font-size="10.00">keyboard</text>
</a>
</g>
</g>
<!-- dir_dfd34f7999bdb28cb70101636e016b16&#45;&gt;dir_40ac35421bc63b72c26b6c69b1517fd6 -->
<g id="edge6" class="edge">
<title>dir_dfd34f7999bdb28cb70101636e016b16&#45;&gt;dir_40ac35421bc63b72c26b6c69b1517fd6</title>
<g id="a_edge6"><a xlink:href="dir_000247_000531.html" target="_top">
<path fill="none" stroke="#63b8ff" d="M222.38,-126.25C214.05,-117.91 202.51,-104.63 197,-90.5 191.61,-76.66 190.48,-59.89 190.63,-47"/>
<polygon fill="#63b8ff" stroke="#63b8ff" points="194.12,-47.31 191.04,-37.18 187.13,-47.02 194.12,-47.31"/>
</a>
</g>
<g id="a_edge6&#45;headlabel"><a xlink:href="dir_000247_000531.html" target="_top" xlink:title="18">
<text text-anchor="middle" x="196.88" y="-45.63" font-family="Helvetica,sans-Serif" font-size="10.00" fill="#63b8ff">18</text>
</a>
</g>
</g>
<!-- dir_dfd34f7999bdb28cb70101636e016b16&#45;&gt;dir_9be0baa3d4a3e9f480a9ee70594037fa -->
<g id="edge5" class="edge">
<title>dir_dfd34f7999bdb28cb70101636e016b16&#45;&gt;dir_9be0baa3d4a3e9f480a9ee70594037fa</title>
<g id="a_edge5"><a xlink:href="dir_000247_000245.html" target="_top">
<path fill="none" stroke="#63b8ff" d="M257.01,-126.09C281.1,-116.85 315.04,-102.22 323,-90.5 331.62,-77.81 332.4,-60.25 331.29,-46.76"/>
<polygon fill="#63b8ff" stroke="#63b8ff" points="334.76,-46.33 330.03,-36.85 327.82,-47.22 334.76,-46.33"/>
</a>
</g>
<g id="a_edge5&#45;headlabel"><a xlink:href="dir_000247_000245.html" target="_top" xlink:title="1">
<text text-anchor="middle" x="337.84" y="-44.16" font-family="Helvetica,sans-Serif" font-size="10.00" fill="#63b8ff">1</text>
</a>
</g>
</g>
<!-- dir_dfd34f7999bdb28cb70101636e016b16&#45;&gt;dir_8f550b51c304fe10978bfd792866fae2 -->
<g id="edge7" class="edge">
<title>dir_dfd34f7999bdb28cb70101636e016b16&#45;&gt;dir_8f550b51c304fe10978bfd792866fae2</title>
<g id="a_edge7"><a xlink:href="dir_000247_000547.html" target="_top">
<path fill="none" stroke="#63b8ff" d="M236.62,-126.33C240.25,-119.44 245.43,-109.59 249.99,-100.91"/>
<polygon fill="#63b8ff" stroke="#63b8ff" points="253.02,-102.68 254.57,-92.2 246.82,-99.42 253.02,-102.68"/>
</a>
</g>
<g id="a_edge7&#45;headlabel"><a xlink:href="dir_000247_000547.html" target="_top" xlink:title="3">
<text text-anchor="middle" x="254.56" y="-101.97" font-family="Helvetica,sans-Serif" font-size="10.00" fill="#63b8ff">3</text>
</a>
</g>
</g>
<!-- dir_dfd34f7999bdb28cb70101636e016b16&#45;&gt;dir_bdd9a5d540de89e9fe90efdfc6973a4f -->
<g id="edge8" class="edge">
<title>dir_dfd34f7999bdb28cb70101636e016b16&#45;&gt;dir_bdd9a5d540de89e9fe90efdfc6973a4f</title>
<g id="a_edge8"><a xlink:href="dir_000247_000046.html" target="_top">
<path fill="none" stroke="#63b8ff" d="M259.84,-128.11C262.59,-127.52 265.34,-126.97 268,-126.5 399.69,-103.09 437.99,-115.25 570.11,-91.27"/>
<polygon fill="#63b8ff" stroke="#63b8ff" points="570.37,-94.78 579.57,-89.52 569.1,-87.9 570.37,-94.78"/>
</a>
</g>
<g id="a_edge8&#45;headlabel"><a xlink:href="dir_000247_000046.html" target="_top" xlink:title="1">
<text text-anchor="middle" x="568.84" y="-94.08" font-family="Helvetica,sans-Serif" font-size="10.00" fill="#63b8ff">1</text>
</a>
</g>
</g>
<!-- dir_6c36fa94566b53a53d1b33c49cbff7fb -->
<g id="node8" class="node">
<title>dir_6c36fa94566b53a53d1b33c49cbff7fb</title>
<g id="a_node8"><a xlink:href="dir_6c36fa94566b53a53d1b33c49cbff7fb.html" target="_top" xlink:title="mouse">
<polygon fill="#60a2e3" stroke="#404040" points="119.62,-145.75 74.38,-145.75 74.38,-126.5 119.62,-126.5 119.62,-145.75"/>
<text text-anchor="middle" x="97" y="-132.25" font-family="Helvetica,sans-Serif" font-size="10.00">mouse</text>
</a>
</g>
</g>
<!-- dir_6c36fa94566b53a53d1b33c49cbff7fb&#45;&gt;dir_40ac35421bc63b72c26b6c69b1517fd6 -->
<g id="edge10" class="edge">
<title>dir_6c36fa94566b53a53d1b33c49cbff7fb&#45;&gt;dir_40ac35421bc63b72c26b6c69b1517fd6</title>
<g id="a_edge10"><a xlink:href="dir_000273_000531.html" target="_top">
<path fill="none" stroke="#63b8ff" d="M104.77,-126.25C120.43,-108.36 156.02,-67.72 176.57,-44.25"/>
<polygon fill="#63b8ff" stroke="#63b8ff" points="179.17,-46.59 183.12,-36.77 173.9,-41.98 179.17,-46.59"/>
</a>
</g>
<g id="a_edge10&#45;headlabel"><a xlink:href="dir_000273_000531.html" target="_top" xlink:title="17">
<text text-anchor="middle" x="179.93" y="-46.16" font-family="Helvetica,sans-Serif" font-size="10.00" fill="#63b8ff">17</text>
</a>
</g>
</g>
<!-- dir_6c36fa94566b53a53d1b33c49cbff7fb&#45;&gt;dir_9be0baa3d4a3e9f480a9ee70594037fa -->
<g id="edge9" class="edge">
<title>dir_6c36fa94566b53a53d1b33c49cbff7fb&#45;&gt;dir_9be0baa3d4a3e9f480a9ee70594037fa</title>
<g id="a_edge9"><a xlink:href="dir_000273_000245.html" target="_top">
<path fill="none" stroke="#63b8ff" d="M120.04,-128.79C123.05,-128 126.1,-127.22 129,-126.5 199.33,-109.07 230.11,-134.07 288,-90.5 299.05,-82.19 295.76,-75.03 303,-63.25 306.82,-57.03 311.24,-50.4 315.29,-44.5"/>
<polygon fill="#63b8ff" stroke="#63b8ff" points="317.86,-46.94 320.72,-36.74 312.12,-42.93 317.86,-46.94"/>
</a>
</g>
<g id="a_edge9&#45;headlabel"><a xlink:href="dir_000273_000245.html" target="_top" xlink:title="1">
<text text-anchor="middle" x="319" y="-46.4" font-family="Helvetica,sans-Serif" font-size="10.00" fill="#63b8ff">1</text>
</a>
</g>
</g>
<!-- dir_6c36fa94566b53a53d1b33c49cbff7fb&#45;&gt;dir_8f550b51c304fe10978bfd792866fae2 -->
<g id="edge11" class="edge">
<title>dir_6c36fa94566b53a53d1b33c49cbff7fb&#45;&gt;dir_8f550b51c304fe10978bfd792866fae2</title>
<g id="a_edge11"><a xlink:href="dir_000273_000547.html" target="_top">
<path fill="none" stroke="#63b8ff" d="M120.11,-128.33C145.93,-120.63 189.19,-107.4 230.56,-93.07"/>
<polygon fill="#63b8ff" stroke="#63b8ff" points="231.6,-96.41 239.88,-89.8 229.29,-89.81 231.6,-96.41"/>
</a>
</g>
<g id="a_edge11&#45;headlabel"><a xlink:href="dir_000273_000547.html" target="_top" xlink:title="3">
<text text-anchor="middle" x="230.58" y="-95.9" font-family="Helvetica,sans-Serif" font-size="10.00" fill="#63b8ff">3</text>
</a>
</g>
</g>
<!-- dir_8f550b51c304fe10978bfd792866fae2&#45;&gt;dir_40ac35421bc63b72c26b6c69b1517fd6 -->
<g id="edge12" class="edge">
<title>dir_8f550b51c304fe10978bfd792866fae2&#45;&gt;dir_40ac35421bc63b72c26b6c69b1517fd6</title>
<g id="a_edge12"><a xlink:href="dir_000547_000531.html" target="_top">
<path fill="none" stroke="#63b8ff" d="M248.46,-70.84C238.54,-63.07 223.99,-51.67 212.14,-42.4"/>
<polygon fill="#63b8ff" stroke="#63b8ff" points="214.59,-39.87 204.56,-36.46 210.27,-45.38 214.59,-39.87"/>
</a>
</g>
<g id="a_edge12&#45;headlabel"><a xlink:href="dir_000547_000531.html" target="_top" xlink:title="8">
<text text-anchor="middle" x="217.98" y="-35.04" font-family="Helvetica,sans-Serif" font-size="10.00" fill="#63b8ff">8</text>
</a>
</g>
</g>
<!-- dir_8f550b51c304fe10978bfd792866fae2&#45;&gt;dir_9be0baa3d4a3e9f480a9ee70594037fa -->
<g id="edge13" class="edge">
<title>dir_8f550b51c304fe10978bfd792866fae2&#45;&gt;dir_9be0baa3d4a3e9f480a9ee70594037fa</title>
<g id="a_edge13"><a xlink:href="dir_000547_000245.html" target="_top">
<path fill="none" stroke="#63b8ff" d="M271.54,-70.84C281.46,-63.07 296.01,-51.67 307.86,-42.4"/>
<polygon fill="#63b8ff" stroke="#63b8ff" points="309.73,-45.38 315.44,-36.46 305.41,-39.87 309.73,-45.38"/>
</a>
</g>
<g id="a_edge13&#45;headlabel"><a xlink:href="dir_000547_000245.html" target="_top" xlink:title="3">
<text text-anchor="middle" x="309.84" y="-45.02" font-family="Helvetica,sans-Serif" font-size="10.00" fill="#63b8ff">3</text>
</a>
</g>
</g>
<!-- dir_b8874c233d466218401f983297aca89b -->
<g id="node10" class="node">
<title>dir_b8874c233d466218401f983297aca89b</title>
<g id="a_node10"><a xlink:href="dir_b8874c233d466218401f983297aca89b.html" target="_top" xlink:title="usbhdfsd">
<polygon fill="#60a2e3" stroke="#404040" points="332.88,-145.75 277.12,-145.75 277.12,-126.5 332.88,-126.5 332.88,-145.75"/>
<text text-anchor="middle" x="305" y="-132.25" font-family="Helvetica,sans-Serif" font-size="10.00">usbhdfsd</text>
</a>
</g>
</g>
<!-- dir_b8874c233d466218401f983297aca89b&#45;&gt;dir_40ac35421bc63b72c26b6c69b1517fd6 -->
<g id="edge14" class="edge">
<title>dir_b8874c233d466218401f983297aca89b&#45;&gt;dir_40ac35421bc63b72c26b6c69b1517fd6</title>
<g id="a_edge14"><a xlink:href="dir_000548_000531.html" target="_top">
<path fill="none" stroke="#63b8ff" d="M276.69,-126.73C257.58,-119.77 233.01,-108.13 217,-90.5 205.84,-78.22 199.43,-60.38 195.89,-46.68"/>
<polygon fill="#63b8ff" stroke="#63b8ff" points="199.33,-46 193.74,-37.01 192.5,-47.53 199.33,-46"/>
</a>
</g>
<g id="a_edge14&#45;headlabel"><a xlink:href="dir_000548_000531.html" target="_top" xlink:title="18">
<text text-anchor="middle" x="202.55" y="-43.54" font-family="Helvetica,sans-Serif" font-size="10.00" fill="#63b8ff">18</text>
</a>
</g>
</g>
<!-- dir_b8874c233d466218401f983297aca89b&#45;&gt;dir_9be0baa3d4a3e9f480a9ee70594037fa -->
<g id="edge16" class="edge">
<title>dir_b8874c233d466218401f983297aca89b&#45;&gt;dir_9be0baa3d4a3e9f480a9ee70594037fa</title>
<g id="a_edge16"><a xlink:href="dir_000548_000245.html" target="_top">
<path fill="none" stroke="#63b8ff" d="M333.06,-128.44C383.59,-116.37 484.8,-92.03 486,-90.5 520.68,-46.23 416.78,-32.49 360.96,-28.34"/>
<polygon fill="#63b8ff" stroke="#63b8ff" points="361.24,-24.86 351.03,-27.68 360.77,-31.84 361.24,-24.86"/>
</a>
</g>
<g id="a_edge16&#45;headlabel"><a xlink:href="dir_000548_000245.html" target="_top" xlink:title="3">
<text text-anchor="middle" x="363.5" y="-18.29" font-family="Helvetica,sans-Serif" font-size="10.00" fill="#63b8ff">3</text>
</a>
</g>
</g>
<!-- dir_b8874c233d466218401f983297aca89b&#45;&gt;dir_a12d8da7b0731a57c6a388326ad5e612 -->
<g id="edge17" class="edge">
<title>dir_b8874c233d466218401f983297aca89b&#45;&gt;dir_a12d8da7b0731a57c6a388326ad5e612</title>
<g id="a_edge17"><a xlink:href="dir_000548_000041.html" target="_top">
<path fill="none" stroke="#63b8ff" d="M332.22,-126.03C356.21,-117.96 392.37,-105.67 428.5,-92.8"/>
<polygon fill="#63b8ff" stroke="#63b8ff" points="429.53,-96.15 437.76,-89.49 427.17,-89.56 429.53,-96.15"/>
</a>
</g>
<g id="a_edge17&#45;headlabel"><a xlink:href="dir_000548_000041.html" target="_top" xlink:title="2">
<text text-anchor="middle" x="428.52" y="-95.65" font-family="Helvetica,sans-Serif" font-size="10.00" fill="#63b8ff">2</text>
</a>
</g>
</g>
<!-- dir_b8874c233d466218401f983297aca89b&#45;&gt;dir_8f550b51c304fe10978bfd792866fae2 -->
<g id="edge15" class="edge">
<title>dir_b8874c233d466218401f983297aca89b&#45;&gt;dir_8f550b51c304fe10978bfd792866fae2</title>
<g id="a_edge15"><a xlink:href="dir_000548_000547.html" target="_top">
<path fill="none" stroke="#63b8ff" d="M297.57,-126.33C291.42,-119.05 282.49,-108.48 274.87,-99.48"/>
<polygon fill="#63b8ff" stroke="#63b8ff" points="277.7,-97.39 268.57,-92.02 272.35,-101.91 277.7,-97.39"/>
</a>
</g>
<g id="a_edge15&#45;headlabel"><a xlink:href="dir_000548_000547.html" target="_top" xlink:title="3">
<text text-anchor="middle" x="281.21" y="-93.28" font-family="Helvetica,sans-Serif" font-size="10.00" fill="#63b8ff">3</text>
</a>
</g>
</g>
<!-- dir_b8874c233d466218401f983297aca89b&#45;&gt;dir_bdd9a5d540de89e9fe90efdfc6973a4f -->
<g id="edge18" class="edge">
<title>dir_b8874c233d466218401f983297aca89b&#45;&gt;dir_bdd9a5d540de89e9fe90efdfc6973a4f</title>
<g id="a_edge18"><a xlink:href="dir_000548_000046.html" target="_top">
<path fill="none" stroke="#63b8ff" d="M333.23,-128.31C336.19,-127.67 339.15,-127.05 342,-126.5 441.26,-107.29 470.37,-111.44 569.88,-91.45"/>
<polygon fill="#63b8ff" stroke="#63b8ff" points="570.46,-94.9 579.56,-89.47 569.06,-88.04 570.46,-94.9"/>
</a>
</g>
<g id="a_edge18&#45;headlabel"><a xlink:href="dir_000548_000046.html" target="_top" xlink:title="3">
<text text-anchor="middle" x="568.99" y="-94.22" font-family="Helvetica,sans-Serif" font-size="10.00" fill="#63b8ff">3</text>
</a>
</g>
</g>
<!-- dir_b21605a940872bbf5de5d8b063daf48d -->
<g id="node11" class="node">
<title>dir_b21605a940872bbf5de5d8b063daf48d</title>
<g id="a_node11"><a xlink:href="dir_b21605a940872bbf5de5d8b063daf48d.html" target="_top" xlink:title="usbmass_bd">
<polygon fill="#60a2e3" stroke="#404040" points="422.75,-145.75 351.25,-145.75 351.25,-126.5 422.75,-126.5 422.75,-145.75"/>
<text text-anchor="middle" x="387" y="-132.25" font-family="Helvetica,sans-Serif" font-size="10.00">usbmass_bd</text>
</a>
</g>
</g>
<!-- dir_b21605a940872bbf5de5d8b063daf48d&#45;&gt;dir_40ac35421bc63b72c26b6c69b1517fd6 -->
<g id="edge19" class="edge">
<title>dir_b21605a940872bbf5de5d8b063daf48d&#45;&gt;dir_40ac35421bc63b72c26b6c69b1517fd6</title>
<g id="a_edge19"><a xlink:href="dir_000549_000531.html" target="_top">
<path fill="none" stroke="#63b8ff" d="M350.86,-127.73C311.49,-119.16 251.63,-104.4 233,-90.5 228.74,-87.32 213.57,-62.78 202.93,-45.06"/>
<polygon fill="#63b8ff" stroke="#63b8ff" points="206.21,-43.73 198.08,-36.94 200.19,-47.32 206.21,-43.73"/>
</a>
</g>
<g id="a_edge19&#45;headlabel"><a xlink:href="dir_000549_000531.html" target="_top" xlink:title="13">
<text text-anchor="middle" x="209.71" y="-40.19" font-family="Helvetica,sans-Serif" font-size="10.00" fill="#63b8ff">13</text>
</a>
</g>
</g>
<!-- dir_b21605a940872bbf5de5d8b063daf48d&#45;&gt;dir_9be0baa3d4a3e9f480a9ee70594037fa -->
<g id="edge21" class="edge">
<title>dir_b21605a940872bbf5de5d8b063daf48d&#45;&gt;dir_9be0baa3d4a3e9f480a9ee70594037fa</title>
<g id="a_edge21"><a xlink:href="dir_000549_000245.html" target="_top">
<path fill="none" stroke="#63b8ff" d="M423.18,-126.28C462.82,-114.87 517.83,-92.91 494,-63.25 477.61,-42.85 404.28,-33.14 360.75,-29.1"/>
<polygon fill="#63b8ff" stroke="#63b8ff" points="361.11,-25.61 350.85,-28.23 360.51,-32.59 361.11,-25.61"/>
</a>
</g>
<g id="a_edge21&#45;headlabel"><a xlink:href="dir_000549_000245.html" target="_top" xlink:title="2">
<text text-anchor="middle" x="363.43" y="-19.09" font-family="Helvetica,sans-Serif" font-size="10.00" fill="#63b8ff">2</text>
</a>
</g>
</g>
<!-- dir_b21605a940872bbf5de5d8b063daf48d&#45;&gt;dir_f24daea2522ffa8b6dc5fa9cdf5b8f5c -->
<g id="edge23" class="edge">
<title>dir_b21605a940872bbf5de5d8b063daf48d&#45;&gt;dir_f24daea2522ffa8b6dc5fa9cdf5b8f5c</title>
<g id="a_edge23"><a xlink:href="dir_000549_000081.html" target="_top">
<path fill="none" stroke="#63b8ff" d="M414.48,-126.09C445.08,-116.03 494.13,-99.91 523.79,-90.16"/>
<polygon fill="#63b8ff" stroke="#63b8ff" points="524.64,-93.57 533.04,-87.12 522.45,-86.92 524.64,-93.57"/>
</a>
</g>
<g id="a_edge23&#45;headlabel"><a xlink:href="dir_000549_000081.html" target="_top" xlink:title="2">
<text text-anchor="middle" x="523.55" y="-93.04" font-family="Helvetica,sans-Serif" font-size="10.00" fill="#63b8ff">2</text>
</a>
</g>
</g>
<!-- dir_b21605a940872bbf5de5d8b063daf48d&#45;&gt;dir_8f550b51c304fe10978bfd792866fae2 -->
<g id="edge20" class="edge">
<title>dir_b21605a940872bbf5de5d8b063daf48d&#45;&gt;dir_8f550b51c304fe10978bfd792866fae2</title>
<g id="a_edge20"><a xlink:href="dir_000549_000547.html" target="_top">
<path fill="none" stroke="#63b8ff" d="M365.46,-126.09C344.44,-117.28 312.33,-103.81 289.06,-94.06"/>
<polygon fill="#63b8ff" stroke="#63b8ff" points="290.72,-90.96 280.14,-90.32 288.01,-97.42 290.72,-90.96"/>
</a>
</g>
<g id="a_edge20&#45;headlabel"><a xlink:href="dir_000549_000547.html" target="_top" xlink:title="3">
<text text-anchor="middle" x="293.74" y="-85.27" font-family="Helvetica,sans-Serif" font-size="10.00" fill="#63b8ff">3</text>
</a>
</g>
</g>
<!-- dir_b21605a940872bbf5de5d8b063daf48d&#45;&gt;dir_bdd9a5d540de89e9fe90efdfc6973a4f -->
<g id="edge22" class="edge">
<title>dir_b21605a940872bbf5de5d8b063daf48d&#45;&gt;dir_bdd9a5d540de89e9fe90efdfc6973a4f</title>
<g id="a_edge22"><a xlink:href="dir_000549_000046.html" target="_top">
<path fill="none" stroke="#63b8ff" d="M423.1,-126.81C458.62,-118.57 514.7,-105.42 569.96,-91.73"/>
<polygon fill="#63b8ff" stroke="#63b8ff" points="570.67,-95.16 579.53,-89.35 568.98,-88.37 570.67,-95.16"/>
</a>
</g>
<g id="a_edge22&#45;headlabel"><a xlink:href="dir_000549_000046.html" target="_top" xlink:title="3">
<text text-anchor="middle" x="569.34" y="-94.54" font-family="Helvetica,sans-Serif" font-size="10.00" fill="#63b8ff">3</text>
</a>
</g>
</g>
</g>
</svg>

<g id="navigator" transform="translate(0 0)" fill="#404254">
  <rect fill="#f2f5e9" fill-opacity="0.5" stroke="#606060" stroke-width=".5" x="0" y="0" width="60" height="60"/>
  <use id="zoomplus" xlink:href="#zoomPlus" x="17" y="9" onmousedown="handleZoom(evt,'in')"/>
  <use id="zoomminus" xlink:href="#zoomMin" x="42" y="9" onmousedown="handleZoom(evt,'out')"/>
  <use id="reset" xlink:href="#resetDef" x="30" y="36" onmousedown="handleReset()"/>
   <use id="arrowup" xlink:href="#arrowUp" x="0" y="0" onmousedown="handlePan(0,-1)"/>
  <use id="arrowright" xlink:href="#arrowRight" x="0" y="0" onmousedown="handlePan(1,0)"/>
  <use id="arrowdown" xlink:href="#arrowDown" x="0" y="0" onmousedown="handlePan(0,1)"/>
  <use id="arrowleft" xlink:href="#arrowLeft" x="0" y="0" onmousedown="handlePan(-1,0)"/>
</g>
<svg viewBox="0 0 15 15" width="100%" height="30px" preserveAspectRatio="xMaxYMin meet">
 <g id="arrow_out" transform="scale(0.3 0.3)">
  <a xlink:href="dir_b6c875632944d243a548db157cd77ec2_dep_org.svg" target="_base">
   <rect id="button" ry="5" rx="5" y="6" x="6" height="38" width="38"
        fill="#f2f5e9" fill-opacity="0.5" stroke="#606060" stroke-width="1.0"/>
   <path id="arrow"
     d="M 11.500037,31.436501 C 11.940474,20.09759 22.043105,11.32322 32.158766,21.979434 L 37.068811,17.246167 C 37.068811,17.246167 37.088388,32 37.088388,32 L 22.160133,31.978069 C 22.160133,31.978069 26.997745,27.140456 26.997745,27.140456 C 18.528582,18.264221 13.291696,25.230495 11.500037,31.436501 z"
     style="fill:#404040;"/>
  </a>
 </g>
</svg>

<style type='text/css'>
<![CDATA[
[data-mouse-over-selected='false'] { opacity: 0.7; }
[data-mouse-over-selected='true']  { opacity: 1.0; }
]]>
</style>
<script type="application/ecmascript"><![CDATA[
document.addEventListener('DOMContentLoaded', (event) => {
  highlightEdges();
  highlightAdjacentNodes();
});
]]></script>
</svg>
