<?xml version="1.0" encoding="UTF-8" standalone="no"?>
<!DOCTYPE svg PUBLIC "-//W3C//DTD SVG 1.1//EN"
 "http://www.w3.org/Graphics/SVG/1.1/DTD/svg11.dtd">
<!-- Generated by graphviz version 2.43.0 (0)
 -->
<!-- Title: iop/debug/ioptrap Pages: 1 -->
<svg width="183pt" height="375pt"
 viewBox="0.00 0.00 183.23 375.00" xmlns="http://www.w3.org/2000/svg" xmlns:xlink="http://www.w3.org/1999/xlink">
<g id="graph0" class="graph" transform="scale(1 1) rotate(0) translate(4 371)">
<title>iop/debug/ioptrap</title>
<polygon fill="white" stroke="transparent" points="-4,4 -4,-371 179.23,-371 179.23,4 -4,4"/>
<g id="clust1" class="cluster">
<title>clusterdir_8494d76ae2586079db82d45fe3dd6aec</title>
<g id="a_clust1"><a xlink:href="dir_8494d76ae2586079db82d45fe3dd6aec.html" target="_top" xlink:title="debug">
<polygon fill="#ddddee" stroke="black" points="8,-200 8,-359 166,-359 166,-200 8,-200"/>
<text text-anchor="middle" x="87" y="-347" font-family="Helvetica,sans-Serif" font-size="10.00">debug</text>
</a>
</g>
</g>
<g id="clust2" class="cluster">
<title>clusterdir_43255a50c3a5642889795edf08bb8408</title>
<g id="a_clust2"><a xlink:href="dir_43255a50c3a5642889795edf08bb8408.html" target="_top">
<polygon fill="#eeeeff" stroke="black" points="16,-208 16,-332 158,-332 158,-208 16,-208"/>
</a>
</g>
</g>
<!-- dir_43255a50c3a5642889795edf08bb8408 -->
<g id="node1" class="node">
<title>dir_43255a50c3a5642889795edf08bb8408</title>
<text text-anchor="middle" x="123" y="-303.5" font-family="Helvetica,sans-Serif" font-size="10.00">ioptrap</text>
</g>
<!-- dir_0c8008b518a3418ede49e87f54eaf07c -->
<g id="node2" class="node">
<title>dir_0c8008b518a3418ede49e87f54eaf07c</title>
<g id="a_node2"><a xlink:href="dir_0c8008b518a3418ede49e87f54eaf07c.html" target="_top" xlink:title="include">
<polygon fill="white" stroke="black" points="78,-252 24,-252 24,-216 78,-216 78,-252"/>
<text text-anchor="middle" x="51" y="-231.5" font-family="Helvetica,sans-Serif" font-size="10.00">include</text>
</a>
</g>
</g>
<!-- dir_9be0baa3d4a3e9f480a9ee70594037fa -->
<g id="node4" class="node">
<title>dir_9be0baa3d4a3e9f480a9ee70594037fa</title>
<g id="a_node4"><a xlink:href="dir_9be0baa3d4a3e9f480a9ee70594037fa.html" target="_top" xlink:title="kernel">
<polygon fill="white" stroke="red" points="116,-180 62,-180 62,-144 116,-144 116,-180"/>
<text text-anchor="middle" x="89" y="-159.5" font-family="Helvetica,sans-Serif" font-size="10.00">kernel</text>
</a>
</g>
</g>
<!-- dir_0c8008b518a3418ede49e87f54eaf07c&#45;&gt;dir_9be0baa3d4a3e9f480a9ee70594037fa -->
<g id="edge8" class="edge">
<title>dir_0c8008b518a3418ede49e87f54eaf07c&#45;&gt;dir_9be0baa3d4a3e9f480a9ee70594037fa</title>
<path fill="none" stroke="black" d="M60.39,-215.7C64.76,-207.64 70.06,-197.89 74.9,-188.98"/>
<polygon fill="black" stroke="black" points="78.02,-190.56 79.71,-180.1 71.87,-187.22 78.02,-190.56"/>
<g id="a_edge8&#45;headlabel"><a xlink:href="dir_000497_000530.html" target="_top" xlink:title="1">
<text text-anchor="middle" x="78.8" y="-192.58" font-family="Helvetica,sans-Serif" font-size="10.00">1</text>
</a>
</g>
</g>
<!-- dir_116803b6ae9ead050112c82eaa6ccbbe -->
<g id="node3" class="node">
<title>dir_116803b6ae9ead050112c82eaa6ccbbe</title>
<g id="a_node3"><a xlink:href="dir_116803b6ae9ead050112c82eaa6ccbbe.html" target="_top" xlink:title="src">
<polygon fill="white" stroke="black" points="78,-324 24,-324 24,-288 78,-288 78,-324"/>
<text text-anchor="middle" x="51" y="-303.5" font-family="Helvetica,sans-Serif" font-size="10.00">src</text>
</a>
</g>
</g>
<!-- dir_116803b6ae9ead050112c82eaa6ccbbe&#45;&gt;dir_0c8008b518a3418ede49e87f54eaf07c -->
<g id="edge6" class="edge">
<title>dir_116803b6ae9ead050112c82eaa6ccbbe&#45;&gt;dir_0c8008b518a3418ede49e87f54eaf07c</title>
<path fill="none" stroke="black" d="M51,-287.7C51,-279.98 51,-270.71 51,-262.11"/>
<polygon fill="black" stroke="black" points="54.5,-262.1 51,-252.1 47.5,-262.1 54.5,-262.1"/>
<g id="a_edge6&#45;headlabel"><a xlink:href="dir_000082_000497.html" target="_top" xlink:title="2">
<text text-anchor="middle" x="57.34" y="-263.2" font-family="Helvetica,sans-Serif" font-size="10.00">2</text>
</a>
</g>
</g>
<!-- dir_116803b6ae9ead050112c82eaa6ccbbe&#45;&gt;dir_9be0baa3d4a3e9f480a9ee70594037fa -->
<g id="edge4" class="edge">
<title>dir_116803b6ae9ead050112c82eaa6ccbbe&#45;&gt;dir_9be0baa3d4a3e9f480a9ee70594037fa</title>
<path fill="none" stroke="black" d="M66.49,-287.74C74.22,-277.98 82.8,-265.14 87,-252 93.39,-232.04 93.57,-208.25 92.33,-190.29"/>
<polygon fill="black" stroke="black" points="95.8,-189.86 91.44,-180.2 88.83,-190.47 95.8,-189.86"/>
<g id="a_edge4&#45;headlabel"><a xlink:href="dir_000082_000530.html" target="_top" xlink:title="3">
<text text-anchor="middle" x="98.94" y="-190.69" font-family="Helvetica,sans-Serif" font-size="10.00">3</text>
</a>
</g>
</g>
<!-- dir_40ac35421bc63b72c26b6c69b1517fd6 -->
<g id="node5" class="node">
<title>dir_40ac35421bc63b72c26b6c69b1517fd6</title>
<g id="a_node5"><a xlink:href="dir_40ac35421bc63b72c26b6c69b1517fd6.html" target="_top" xlink:title="system">
<polygon fill="white" stroke="red" points="151,-36 97,-36 97,0 151,0 151,-36"/>
<text text-anchor="middle" x="124" y="-15.5" font-family="Helvetica,sans-Serif" font-size="10.00">system</text>
</a>
</g>
</g>
<!-- dir_116803b6ae9ead050112c82eaa6ccbbe&#45;&gt;dir_40ac35421bc63b72c26b6c69b1517fd6 -->
<g id="edge5" class="edge">
<title>dir_116803b6ae9ead050112c82eaa6ccbbe&#45;&gt;dir_40ac35421bc63b72c26b6c69b1517fd6</title>
<path fill="none" stroke="black" d="M78.34,-291.94C94.49,-282.88 114.05,-269.33 126,-252 172.36,-184.76 188.47,-149.6 163,-72 159.69,-61.91 153.63,-52.15 147.27,-43.82"/>
<polygon fill="black" stroke="black" points="149.92,-41.54 140.89,-36.01 144.5,-45.97 149.92,-41.54"/>
<g id="a_edge5&#45;headlabel"><a xlink:href="dir_000082_000226.html" target="_top" xlink:title="11">
<text text-anchor="middle" x="154.4" y="-40.03" font-family="Helvetica,sans-Serif" font-size="10.00">11</text>
</a>
</g>
</g>
<!-- dir_bdd9a5d540de89e9fe90efdfc6973a4f -->
<g id="node6" class="node">
<title>dir_bdd9a5d540de89e9fe90efdfc6973a4f</title>
<g id="a_node6"><a xlink:href="dir_bdd9a5d540de89e9fe90efdfc6973a4f.html" target="_top" xlink:title="common">
<polygon fill="white" stroke="red" points="153.5,-108 94.5,-108 94.5,-72 153.5,-72 153.5,-108"/>
<text text-anchor="middle" x="124" y="-87.5" font-family="Helvetica,sans-Serif" font-size="10.00">common</text>
</a>
</g>
</g>
<!-- dir_116803b6ae9ead050112c82eaa6ccbbe&#45;&gt;dir_bdd9a5d540de89e9fe90efdfc6973a4f -->
<g id="edge7" class="edge">
<title>dir_116803b6ae9ead050112c82eaa6ccbbe&#45;&gt;dir_bdd9a5d540de89e9fe90efdfc6973a4f</title>
<path fill="none" stroke="black" d="M71.96,-287.98C82.58,-278.4 94.9,-265.63 103,-252 127.69,-210.46 128.73,-152.35 126.72,-118.49"/>
<polygon fill="black" stroke="black" points="130.2,-118.13 125.99,-108.41 123.22,-118.63 130.2,-118.13"/>
<g id="a_edge7&#45;headlabel"><a xlink:href="dir_000082_000000.html" target="_top" xlink:title="1">
<text text-anchor="middle" x="133.3" y="-119" font-family="Helvetica,sans-Serif" font-size="10.00">1</text>
</a>
</g>
</g>
<!-- dir_9be0baa3d4a3e9f480a9ee70594037fa&#45;&gt;dir_bdd9a5d540de89e9fe90efdfc6973a4f -->
<g id="edge1" class="edge">
<title>dir_9be0baa3d4a3e9f480a9ee70594037fa&#45;&gt;dir_bdd9a5d540de89e9fe90efdfc6973a4f</title>
<path fill="none" stroke="black" d="M91.74,-143.7C94.93,-135.64 99.6,-125.89 104.46,-116.98"/>
<polygon fill="black" stroke="black" points="107.61,-118.52 109.55,-108.1 101.54,-115.04 107.61,-118.52"/>
<g id="a_edge1&#45;headlabel"><a xlink:href="dir_000530_000000.html" target="_top" xlink:title="2">
<text text-anchor="middle" x="108.29" y="-120.55" font-family="Helvetica,sans-Serif" font-size="10.00">2</text>
</a>
</g>
</g>
<!-- dir_40ac35421bc63b72c26b6c69b1517fd6&#45;&gt;dir_9be0baa3d4a3e9f480a9ee70594037fa -->
<g id="edge2" class="edge">
<title>dir_40ac35421bc63b72c26b6c69b1517fd6&#45;&gt;dir_9be0baa3d4a3e9f480a9ee70594037fa</title>
<path fill="none" stroke="black" d="M107.54,-36.08C99.35,-45.78 90.3,-58.63 86,-72 79.58,-91.96 80.81,-115.75 83.38,-133.71"/>
<polygon fill="black" stroke="black" points="79.96,-134.5 85.05,-143.8 86.87,-133.36 79.96,-134.5"/>
<g id="a_edge2&#45;headlabel"><a xlink:href="dir_000226_000530.html" target="_top" xlink:title="89">
<text text-anchor="middle" x="76.57" y="-128.92" font-family="Helvetica,sans-Serif" font-size="10.00">89</text>
</a>
</g>
</g>
<!-- dir_40ac35421bc63b72c26b6c69b1517fd6&#45;&gt;dir_bdd9a5d540de89e9fe90efdfc6973a4f -->
<g id="edge3" class="edge">
<title>dir_40ac35421bc63b72c26b6c69b1517fd6&#45;&gt;dir_bdd9a5d540de89e9fe90efdfc6973a4f</title>
<path fill="none" stroke="black" d="M129.9,-36.1C130.7,-43.79 130.94,-53.05 130.6,-61.67"/>
<polygon fill="black" stroke="black" points="127.11,-61.48 129.92,-71.7 134.09,-61.96 127.11,-61.48"/>
<g id="a_edge3&#45;headlabel"><a xlink:href="dir_000226_000000.html" target="_top" xlink:title="30">
<text text-anchor="middle" x="124.52" y="-55.2" font-family="Helvetica,sans-Serif" font-size="10.00">30</text>
</a>
</g>
</g>
<!-- dir_bdd9a5d540de89e9fe90efdfc6973a4f&#45;&gt;dir_9be0baa3d4a3e9f480a9ee70594037fa -->
<g id="edge9" class="edge">
<title>dir_bdd9a5d540de89e9fe90efdfc6973a4f&#45;&gt;dir_9be0baa3d4a3e9f480a9ee70594037fa</title>
<path fill="none" stroke="black" d="M121.34,-108.1C118.17,-116.13 113.52,-125.87 108.66,-134.8"/>
<polygon fill="black" stroke="black" points="105.49,-133.28 103.57,-143.7 111.57,-136.75 105.49,-133.28"/>
<g id="a_edge9&#45;headlabel"><a xlink:href="dir_000000_000530.html" target="_top" xlink:title="3">
<text text-anchor="middle" x="104.82" y="-126.25" font-family="Helvetica,sans-Serif" font-size="10.00">3</text>
</a>
</g>
</g>
<!-- dir_bdd9a5d540de89e9fe90efdfc6973a4f&#45;&gt;dir_40ac35421bc63b72c26b6c69b1517fd6 -->
<g id="edge10" class="edge">
<title>dir_bdd9a5d540de89e9fe90efdfc6973a4f&#45;&gt;dir_40ac35421bc63b72c26b6c69b1517fd6</title>
<path fill="none" stroke="black" d="M118.08,-71.7C117.29,-63.98 117.06,-54.71 117.4,-46.11"/>
<polygon fill="black" stroke="black" points="120.9,-46.32 118.1,-36.1 113.92,-45.84 120.9,-46.32"/>
<g id="a_edge10&#45;headlabel"><a xlink:href="dir_000000_000226.html" target="_top" xlink:title="16">
<text text-anchor="middle" x="123.48" y="-47.61" font-family="Helvetica,sans-Serif" font-size="10.00">16</text>
</a>
</g>
</g>
</g>
</svg>
