<?xml version="1.0" encoding="UTF-8" standalone="no"?>
<!DOCTYPE svg PUBLIC "-//W3C//DTD SVG 1.1//EN"
 "http://www.w3.org/Graphics/SVG/1.1/DTD/svg11.dtd">
<!-- Generated by graphviz version 9.0.0 (20230911.1827)
 -->
<!-- Title: iop/system/sifman Pages: 1 -->
<svg width="370pt" height="181pt"
 viewBox="0.00 0.00 369.75 181.00" xmlns="http://www.w3.org/2000/svg" xmlns:xlink="http://www.w3.org/1999/xlink">

<svg id="main" version="1.1" xmlns="http://www.w3.org/2000/svg" xmlns:xlink="http://www.w3.org/1999/xlink" xml:space="preserve" onload="init(evt)">
<style type="text/css"><![CDATA[
.node, .edge {opacity: 0.7;}
.node.selected, .edge.selected {opacity: 1;}
.edge:hover path { stroke: red; }
.edge:hover polygon { stroke: red; fill: red; }
]]></style>
<script type="application/ecmascript" xlink:href="svg.min.js"/>
<svg id="graph" class="graph">
<g id="graph0" class="graph" transform="scale(1 1) rotate(0) translate(4 177)">
<title>iop/system/sifman</title>
<g id="clust1" class="cluster">
<title>clusterdir_40ac35421bc63b72c26b6c69b1517fd6</title>
<g id="a_clust1"><a xlink:href="dir_40ac35421bc63b72c26b6c69b1517fd6.html" target="_top" xlink:title="system">
<polygon fill="#deebf9" stroke="#7f7f7f" stroke-dasharray="5,2" points="8,-39.25 8,-165 260,-165 260,-39.25 8,-39.25"/>
<text text-anchor="middle" x="134" y="-151.5" font-family="Helvetica,sans-Serif" font-size="10.00">system</text>
</a>
</g>
</g>
<g id="clust2" class="cluster">
<title>clusterdir_a0d37aaf829787e8da99f7ff6597b371</title>
<g id="a_clust2"><a xlink:href="dir_a0d37aaf829787e8da99f7ff6597b371.html" target="_top">
<polygon fill="#deebf9" stroke="#404040" stroke-width="2" points="16,-47.25 16,-137.75 125,-137.75 125,-47.25 16,-47.25"/>
</a>
</g>
</g>
<!-- dir_7422a0894415a12ccd1d562a8ad09f2d -->
<g id="node1" class="node">
<title>dir_7422a0894415a12ccd1d562a8ad09f2d</title>
<g id="a_node1"><a xlink:href="dir_7422a0894415a12ccd1d562a8ad09f2d.html" target="_top" xlink:title="intrman">
<polygon fill="#60a2e3" stroke="red" points="181.12,-74.5 132.88,-74.5 132.88,-55.25 181.12,-55.25 181.12,-74.5"/>
<text text-anchor="middle" x="157" y="-61" font-family="Helvetica,sans-Serif" font-size="10.00">intrman</text>
</a>
</g>
</g>
<!-- dir_1d64e5e9f20206636d72b5bbe3d2b274 -->
<g id="node2" class="node">
<title>dir_1d64e5e9f20206636d72b5bbe3d2b274</title>
<g id="a_node2"><a xlink:href="dir_1d64e5e9f20206636d72b5bbe3d2b274.html" target="_top" xlink:title="loadcore">
<polygon fill="#60a2e3" stroke="red" points="252.38,-74.5 199.62,-74.5 199.62,-55.25 252.38,-55.25 252.38,-74.5"/>
<text text-anchor="middle" x="226" y="-61" font-family="Helvetica,sans-Serif" font-size="10.00">loadcore</text>
</a>
</g>
</g>
<!-- dir_a0d37aaf829787e8da99f7ff6597b371 -->
<g id="node3" class="node">
<title>dir_a0d37aaf829787e8da99f7ff6597b371</title>
<text text-anchor="middle" x="94" y="-116.25" font-family="Helvetica,sans-Serif" font-size="10.00">sifman</text>
</g>
<!-- dir_899cd3c0131c820f355da9f217e83d0e -->
<g id="node4" class="node">
<title>dir_899cd3c0131c820f355da9f217e83d0e</title>
<g id="a_node4"><a xlink:href="dir_899cd3c0131c820f355da9f217e83d0e.html" target="_top" xlink:title="include">
<polygon fill="#60a2e3" stroke="#404040" points="92.38,-74.5 45.62,-74.5 45.62,-55.25 92.38,-55.25 92.38,-74.5"/>
<text text-anchor="middle" x="69" y="-61" font-family="Helvetica,sans-Serif" font-size="10.00">include</text>
</a>
</g>
</g>
<!-- dir_9be0baa3d4a3e9f480a9ee70594037fa -->
<g id="node6" class="node">
<title>dir_9be0baa3d4a3e9f480a9ee70594037fa</title>
<g id="a_node6"><a xlink:href="dir_9be0baa3d4a3e9f480a9ee70594037fa.html" target="_top" xlink:title="kernel">
<polygon fill="#deebf9" stroke="red" stroke-dasharray="5,2" points="195.12,-19.25 152.88,-19.25 152.88,0 195.12,0 195.12,-19.25"/>
<text text-anchor="middle" x="174" y="-5.75" font-family="Helvetica,sans-Serif" font-size="10.00">kernel</text>
</a>
</g>
</g>
<!-- dir_899cd3c0131c820f355da9f217e83d0e&#45;&gt;dir_9be0baa3d4a3e9f480a9ee70594037fa -->
<g id="edge1" class="edge">
<title>dir_899cd3c0131c820f355da9f217e83d0e&#45;&gt;dir_9be0baa3d4a3e9f480a9ee70594037fa</title>
<g id="a_edge1"><a xlink:href="dir_000208_000239.html" target="_top">
<path fill="none" stroke="#63b8ff" d="M76.83,-55.2C81.89,-50.01 88.84,-43.6 96,-39.25 110.15,-30.66 127.29,-24.02 141.89,-19.31"/>
<polygon fill="#63b8ff" stroke="#63b8ff" points="142.48,-22.79 151.02,-16.52 140.44,-16.09 142.48,-22.79"/>
</a>
</g>
<g id="a_edge1&#45;headlabel"><a xlink:href="dir_000208_000239.html" target="_top" xlink:title="1">
<text text-anchor="middle" x="141.32" y="-22.23" font-family="Helvetica,sans-Serif" font-size="10.00" fill="#63b8ff">1</text>
</a>
</g>
</g>
<!-- dir_1cf9825758cfa96e5407c225ac2b98d0 -->
<g id="node5" class="node">
<title>dir_1cf9825758cfa96e5407c225ac2b98d0</title>
<g id="a_node5"><a xlink:href="dir_1cf9825758cfa96e5407c225ac2b98d0.html" target="_top" xlink:title="src">
<polygon fill="#60a2e3" stroke="#404040" points="53.75,-129.75 24.25,-129.75 24.25,-110.5 53.75,-110.5 53.75,-129.75"/>
<text text-anchor="middle" x="39" y="-116.25" font-family="Helvetica,sans-Serif" font-size="10.00">src</text>
</a>
</g>
</g>
<!-- dir_1cf9825758cfa96e5407c225ac2b98d0&#45;&gt;dir_7422a0894415a12ccd1d562a8ad09f2d -->
<g id="edge3" class="edge">
<title>dir_1cf9825758cfa96e5407c225ac2b98d0&#45;&gt;dir_7422a0894415a12ccd1d562a8ad09f2d</title>
<g id="a_edge3"><a xlink:href="dir_000476_000229.html" target="_top">
<path fill="none" stroke="#63b8ff" d="M53.94,-112.38C72.15,-104.17 103.35,-90.09 126.66,-79.57"/>
<polygon fill="#63b8ff" stroke="#63b8ff" points="128.01,-82.8 135.68,-75.49 125.13,-76.42 128.01,-82.8"/>
</a>
</g>
<g id="a_edge3&#45;headlabel"><a xlink:href="dir_000476_000229.html" target="_top" xlink:title="1">
<text text-anchor="middle" x="127.28" y="-82.37" font-family="Helvetica,sans-Serif" font-size="10.00" fill="#63b8ff">1</text>
</a>
</g>
</g>
<!-- dir_1cf9825758cfa96e5407c225ac2b98d0&#45;&gt;dir_1d64e5e9f20206636d72b5bbe3d2b274 -->
<g id="edge2" class="edge">
<title>dir_1cf9825758cfa96e5407c225ac2b98d0&#45;&gt;dir_1d64e5e9f20206636d72b5bbe3d2b274</title>
<g id="a_edge2"><a xlink:href="dir_000476_000254.html" target="_top">
<path fill="none" stroke="#63b8ff" d="M54.02,-113.26C56.67,-112.3 59.4,-111.34 62,-110.5 104.83,-96.68 154.84,-83.48 188.27,-75.08"/>
<polygon fill="#63b8ff" stroke="#63b8ff" points="189.04,-78.49 197.89,-72.68 187.34,-71.7 189.04,-78.49"/>
</a>
</g>
<g id="a_edge2&#45;headlabel"><a xlink:href="dir_000476_000254.html" target="_top" xlink:title="1">
<text text-anchor="middle" x="187.7" y="-77.88" font-family="Helvetica,sans-Serif" font-size="10.00" fill="#63b8ff">1</text>
</a>
</g>
</g>
<!-- dir_1cf9825758cfa96e5407c225ac2b98d0&#45;&gt;dir_899cd3c0131c820f355da9f217e83d0e -->
<g id="edge4" class="edge">
<title>dir_1cf9825758cfa96e5407c225ac2b98d0&#45;&gt;dir_899cd3c0131c820f355da9f217e83d0e</title>
<g id="a_edge4"><a xlink:href="dir_000476_000208.html" target="_top">
<path fill="none" stroke="#63b8ff" d="M43.95,-110.33C47.88,-103.36 53.51,-93.37 58.44,-84.62"/>
<polygon fill="#63b8ff" stroke="#63b8ff" points="61.34,-86.61 63.2,-76.18 55.24,-83.17 61.34,-86.61"/>
</a>
</g>
<g id="a_edge4&#45;headlabel"><a xlink:href="dir_000476_000208.html" target="_top" xlink:title="1">
<text text-anchor="middle" x="62.79" y="-85.94" font-family="Helvetica,sans-Serif" font-size="10.00" fill="#63b8ff">1</text>
</a>
</g>
</g>
<!-- dir_1cf9825758cfa96e5407c225ac2b98d0&#45;&gt;dir_9be0baa3d4a3e9f480a9ee70594037fa -->
<g id="edge5" class="edge">
<title>dir_1cf9825758cfa96e5407c225ac2b98d0&#45;&gt;dir_9be0baa3d4a3e9f480a9ee70594037fa</title>
<g id="a_edge5"><a xlink:href="dir_000476_000239.html" target="_top">
<path fill="none" stroke="#63b8ff" d="M54.21,-112.98C56.79,-112.07 59.45,-111.2 62,-110.5 149.95,-86.39 205.45,-144.41 264,-74.5 274.06,-62.49 273.25,-51.9 264,-39.25 250.97,-21.44 226.77,-14.44 206.74,-11.81"/>
<polygon fill="#63b8ff" stroke="#63b8ff" points="207.34,-8.36 197.05,-10.87 206.66,-15.32 207.34,-8.36"/>
</a>
</g>
<g id="a_edge5&#45;headlabel"><a xlink:href="dir_000476_000239.html" target="_top" xlink:title="1">
<text text-anchor="middle" x="209.69" y="-1.86" font-family="Helvetica,sans-Serif" font-size="10.00" fill="#63b8ff">1</text>
</a>
</g>
</g>
<!-- dir_bdd9a5d540de89e9fe90efdfc6973a4f -->
<g id="node7" class="node">
<title>dir_bdd9a5d540de89e9fe90efdfc6973a4f</title>
<g id="a_node7"><a xlink:href="dir_bdd9a5d540de89e9fe90efdfc6973a4f.html" target="_top" xlink:title="common">
<polygon fill="#deebf9" stroke="red" points="361.75,-74.5 308.25,-74.5 308.25,-55.25 361.75,-55.25 361.75,-74.5"/>
<text text-anchor="middle" x="335" y="-61" font-family="Helvetica,sans-Serif" font-size="10.00">common</text>
</a>
</g>
</g>
<!-- dir_1cf9825758cfa96e5407c225ac2b98d0&#45;&gt;dir_bdd9a5d540de89e9fe90efdfc6973a4f -->
<g id="edge6" class="edge">
<title>dir_1cf9825758cfa96e5407c225ac2b98d0&#45;&gt;dir_bdd9a5d540de89e9fe90efdfc6973a4f</title>
<g id="a_edge6"><a xlink:href="dir_000476_000045.html" target="_top">
<path fill="none" stroke="#63b8ff" d="M54.2,-112.93C56.77,-112.02 59.44,-111.17 62,-110.5 162.94,-84.04 191.35,-93.25 294,-74.5 295,-74.32 296.02,-74.13 297.04,-73.93"/>
<polygon fill="#63b8ff" stroke="#63b8ff" points="297.52,-77.41 306.65,-72.03 296.16,-70.54 297.52,-77.41"/>
</a>
</g>
<g id="a_edge6&#45;headlabel"><a xlink:href="dir_000476_000045.html" target="_top" xlink:title="2">
<text text-anchor="middle" x="296.03" y="-76.72" font-family="Helvetica,sans-Serif" font-size="10.00" fill="#63b8ff">2</text>
</a>
</g>
</g>
</g>
</svg>
</svg>

<style type='text/css'>
<![CDATA[
[data-mouse-over-selected='false'] { opacity: 0.7; }
[data-mouse-over-selected='true']  { opacity: 1.0; }
]]>
</style>
<script type="application/ecmascript"><![CDATA[
document.addEventListener('DOMContentLoaded', (event) => {
  highlightEdges();
  highlightAdjacentNodes();
});
]]></script>
</svg>
