<?xml version="1.0" encoding="UTF-8" standalone="no"?>
<!DOCTYPE svg PUBLIC "-//W3C//DTD SVG 1.1//EN"
 "http://www.w3.org/Graphics/SVG/1.1/DTD/svg11.dtd">
<!-- Generated by graphviz version 9.0.0 (20230911.1827)
 -->
<!-- Title: iop/tcpip Pages: 1 -->
<svg width="433pt" height="142pt"
 viewBox="0.00 0.00 432.75 141.75" xmlns="http://www.w3.org/2000/svg" xmlns:xlink="http://www.w3.org/1999/xlink">
<g id="graph0" class="graph" transform="scale(1 1) rotate(0) translate(4 137.75)">
<title>iop/tcpip</title>
<g id="clust1" class="cluster">
<title>clusterdir_0981ace215aa2029f526b70c145b9fbe</title>
<g id="a_clust1"><a xlink:href="dir_0981ace215aa2029f526b70c145b9fbe.html" target="_top" xlink:title="iop">
<polygon fill="#deebf9" stroke="#404040" stroke-dasharray="5,2" points="8,-8 8,-125.75 363,-125.75 363,-8 8,-8"/>
<text text-anchor="middle" x="185.5" y="-112.25" font-family="Helvetica,sans-Serif" font-size="10.00">iop</text>
</a>
</g>
</g>
<g id="clust2" class="cluster">
<title>clusterdir_cb38d55d28446d14702541320714f23c</title>
<g id="a_clust2"><a xlink:href="dir_cb38d55d28446d14702541320714f23c.html" target="_top">
<polygon fill="#deebf9" stroke="#404040" stroke-width="2" points="16,-63.25 16,-98.5 355,-98.5 355,-63.25 16,-63.25"/>
</a>
</g>
</g>
<!-- dir_40ac35421bc63b72c26b6c69b1517fd6 -->
<g id="node1" class="node">
<title>dir_40ac35421bc63b72c26b6c69b1517fd6</title>
<g id="a_node1"><a xlink:href="dir_40ac35421bc63b72c26b6c69b1517fd6.html" target="_top" xlink:title="system">
<polygon fill="#60a2e3" stroke="red" points="214.75,-35.25 167.25,-35.25 167.25,-16 214.75,-16 214.75,-35.25"/>
<text text-anchor="middle" x="191" y="-21.75" font-family="Helvetica,sans-Serif" font-size="10.00">system</text>
</a>
</g>
</g>
<!-- dir_9be0baa3d4a3e9f480a9ee70594037fa -->
<g id="node2" class="node">
<title>dir_9be0baa3d4a3e9f480a9ee70594037fa</title>
<g id="a_node2"><a xlink:href="dir_9be0baa3d4a3e9f480a9ee70594037fa.html" target="_top" xlink:title="kernel">
<polygon fill="#60a2e3" stroke="red" points="149.12,-35.25 106.88,-35.25 106.88,-16 149.12,-16 149.12,-35.25"/>
<text text-anchor="middle" x="128" y="-21.75" font-family="Helvetica,sans-Serif" font-size="10.00">kernel</text>
</a>
</g>
</g>
<!-- dir_cb38d55d28446d14702541320714f23c -->
<g id="node3" class="node">
<title>dir_cb38d55d28446d14702541320714f23c</title>
<text text-anchor="middle" x="328" y="-77" font-family="Helvetica,sans-Serif" font-size="10.00">tcpip</text>
</g>
<!-- dir_1e6823be46b3bf5bb635c8394bb31ba4 -->
<g id="node4" class="node">
<title>dir_1e6823be46b3bf5bb635c8394bb31ba4</title>
<g id="a_node4"><a xlink:href="dir_1e6823be46b3bf5bb635c8394bb31ba4.html" target="_top" xlink:title="tcpip">
<polygon fill="#60a2e3" stroke="#404040" points="151.5,-90.5 114.5,-90.5 114.5,-71.25 151.5,-71.25 151.5,-90.5"/>
<text text-anchor="middle" x="133" y="-77" font-family="Helvetica,sans-Serif" font-size="10.00">tcpip</text>
</a>
</g>
</g>
<!-- dir_1e6823be46b3bf5bb635c8394bb31ba4&#45;&gt;dir_40ac35421bc63b72c26b6c69b1517fd6 -->
<g id="edge1" class="edge">
<title>dir_1e6823be46b3bf5bb635c8394bb31ba4&#45;&gt;dir_40ac35421bc63b72c26b6c69b1517fd6</title>
<g id="a_edge1"><a xlink:href="dir_000518_000515.html" target="_top">
<path fill="none" stroke="#63b8ff" d="M142.84,-70.84C151.05,-63.3 162.98,-52.35 172.91,-43.23"/>
<polygon fill="#63b8ff" stroke="#63b8ff" points="175.19,-45.89 180.19,-36.55 170.46,-40.73 175.19,-45.89"/>
</a>
</g>
<g id="a_edge1&#45;headlabel"><a xlink:href="dir_000518_000515.html" target="_top" xlink:title="15">
<text text-anchor="middle" x="175.58" y="-45.51" font-family="Helvetica,sans-Serif" font-size="10.00" fill="#63b8ff">15</text>
</a>
</g>
</g>
<!-- dir_1e6823be46b3bf5bb635c8394bb31ba4&#45;&gt;dir_9be0baa3d4a3e9f480a9ee70594037fa -->
<g id="edge2" class="edge">
<title>dir_1e6823be46b3bf5bb635c8394bb31ba4&#45;&gt;dir_9be0baa3d4a3e9f480a9ee70594037fa</title>
<g id="a_edge2"><a xlink:href="dir_000518_000239.html" target="_top">
<path fill="none" stroke="#63b8ff" d="M132.17,-71.08C131.56,-64.49 130.68,-55.21 129.9,-46.82"/>
<polygon fill="#63b8ff" stroke="#63b8ff" points="133.4,-46.75 128.99,-37.12 126.44,-47.4 133.4,-46.75"/>
</a>
</g>
<g id="a_edge2&#45;headlabel"><a xlink:href="dir_000518_000239.html" target="_top" xlink:title="3">
<text text-anchor="middle" x="136.43" y="-44.68" font-family="Helvetica,sans-Serif" font-size="10.00" fill="#63b8ff">3</text>
</a>
</g>
</g>
<!-- dir_bdd9a5d540de89e9fe90efdfc6973a4f -->
<g id="node8" class="node">
<title>dir_bdd9a5d540de89e9fe90efdfc6973a4f</title>
<g id="a_node8"><a xlink:href="dir_bdd9a5d540de89e9fe90efdfc6973a4f.html" target="_top" xlink:title="common">
<polygon fill="#deebf9" stroke="red" points="424.75,-35.25 371.25,-35.25 371.25,-16 424.75,-16 424.75,-35.25"/>
<text text-anchor="middle" x="398" y="-21.75" font-family="Helvetica,sans-Serif" font-size="10.00">common</text>
</a>
</g>
</g>
<!-- dir_1e6823be46b3bf5bb635c8394bb31ba4&#45;&gt;dir_bdd9a5d540de89e9fe90efdfc6973a4f -->
<g id="edge3" class="edge">
<title>dir_1e6823be46b3bf5bb635c8394bb31ba4&#45;&gt;dir_bdd9a5d540de89e9fe90efdfc6973a4f</title>
<g id="a_edge3"><a xlink:href="dir_000518_000045.html" target="_top">
<path fill="none" stroke="#63b8ff" d="M145.85,-70.78C150.44,-67.94 155.77,-65.07 161,-63.25 244.75,-34.05 274.15,-52.29 359.96,-36.53"/>
<polygon fill="#63b8ff" stroke="#63b8ff" points="360.37,-40.01 369.52,-34.66 359.03,-33.14 360.37,-40.01"/>
</a>
</g>
<g id="a_edge3&#45;headlabel"><a xlink:href="dir_000518_000045.html" target="_top" xlink:title="1">
<text text-anchor="middle" x="358.87" y="-39.32" font-family="Helvetica,sans-Serif" font-size="10.00" fill="#63b8ff">1</text>
</a>
</g>
</g>
<!-- dir_ab0c940ac9afa06c331831ae52f4280f -->
<g id="node5" class="node">
<title>dir_ab0c940ac9afa06c331831ae52f4280f</title>
<g id="a_node5"><a xlink:href="dir_ab0c940ac9afa06c331831ae52f4280f.html" target="_top" xlink:title="tcpip&#45;base">
<polygon fill="#60a2e3" stroke="#404040" points="291.5,-90.5 230.5,-90.5 230.5,-71.25 291.5,-71.25 291.5,-90.5"/>
<text text-anchor="middle" x="261" y="-77" font-family="Helvetica,sans-Serif" font-size="10.00">tcpip&#45;base</text>
</a>
</g>
</g>
<!-- dir_ab0c940ac9afa06c331831ae52f4280f&#45;&gt;dir_40ac35421bc63b72c26b6c69b1517fd6 -->
<g id="edge4" class="edge">
<title>dir_ab0c940ac9afa06c331831ae52f4280f&#45;&gt;dir_40ac35421bc63b72c26b6c69b1517fd6</title>
<g id="a_edge4"><a xlink:href="dir_000519_000515.html" target="_top">
<path fill="none" stroke="#63b8ff" d="M249.13,-70.84C238.91,-63.07 223.93,-51.67 211.74,-42.4"/>
<polygon fill="#63b8ff" stroke="#63b8ff" points="213.98,-39.71 203.9,-36.44 209.74,-45.28 213.98,-39.71"/>
</a>
</g>
<g id="a_edge4&#45;headlabel"><a xlink:href="dir_000519_000515.html" target="_top" xlink:title="7">
<text text-anchor="middle" x="217.36" y="-34.84" font-family="Helvetica,sans-Serif" font-size="10.00" fill="#63b8ff">7</text>
</a>
</g>
</g>
<!-- dir_ab0c940ac9afa06c331831ae52f4280f&#45;&gt;dir_bdd9a5d540de89e9fe90efdfc6973a4f -->
<g id="edge5" class="edge">
<title>dir_ab0c940ac9afa06c331831ae52f4280f&#45;&gt;dir_bdd9a5d540de89e9fe90efdfc6973a4f</title>
<g id="a_edge5"><a xlink:href="dir_000519_000045.html" target="_top">
<path fill="none" stroke="#63b8ff" d="M282.54,-70.77C288.5,-68.29 294.99,-65.63 301,-63.25 321.33,-55.19 344.2,-46.53 362.63,-39.66"/>
<polygon fill="#63b8ff" stroke="#63b8ff" points="363.62,-43.03 371.78,-36.26 361.18,-36.47 363.62,-43.03"/>
</a>
</g>
<g id="a_edge5&#45;headlabel"><a xlink:href="dir_000519_000045.html" target="_top" xlink:title="1">
<text text-anchor="middle" x="362.66" y="-42.54" font-family="Helvetica,sans-Serif" font-size="10.00" fill="#63b8ff">1</text>
</a>
</g>
</g>
<!-- dir_9df346544416700849519ab7a98decca -->
<g id="node6" class="node">
<title>dir_9df346544416700849519ab7a98decca</title>
<g id="a_node6"><a xlink:href="dir_9df346544416700849519ab7a98decca.html" target="_top" xlink:title="tcpip&#45;netman">
<polygon fill="#60a2e3" stroke="#404040" points="96.12,-90.5 23.88,-90.5 23.88,-71.25 96.12,-71.25 96.12,-90.5"/>
<text text-anchor="middle" x="60" y="-77" font-family="Helvetica,sans-Serif" font-size="10.00">tcpip&#45;netman</text>
</a>
</g>
</g>
<!-- dir_9df346544416700849519ab7a98decca&#45;&gt;dir_40ac35421bc63b72c26b6c69b1517fd6 -->
<g id="edge6" class="edge">
<title>dir_9df346544416700849519ab7a98decca&#45;&gt;dir_40ac35421bc63b72c26b6c69b1517fd6</title>
<g id="a_edge6"><a xlink:href="dir_000520_000515.html" target="_top">
<path fill="none" stroke="#63b8ff" d="M82.22,-70.84C103.02,-62.39 134.35,-49.65 158.05,-40.02"/>
<polygon fill="#63b8ff" stroke="#63b8ff" points="159.32,-43.28 167.27,-36.27 156.68,-36.8 159.32,-43.28"/>
</a>
</g>
<g id="a_edge6&#45;headlabel"><a xlink:href="dir_000520_000515.html" target="_top" xlink:title="15">
<text text-anchor="middle" x="158.46" y="-42.82" font-family="Helvetica,sans-Serif" font-size="10.00" fill="#63b8ff">15</text>
</a>
</g>
</g>
<!-- dir_9df346544416700849519ab7a98decca&#45;&gt;dir_9be0baa3d4a3e9f480a9ee70594037fa -->
<g id="edge7" class="edge">
<title>dir_9df346544416700849519ab7a98decca&#45;&gt;dir_9be0baa3d4a3e9f480a9ee70594037fa</title>
<g id="a_edge7"><a xlink:href="dir_000520_000239.html" target="_top">
<path fill="none" stroke="#63b8ff" d="M71.54,-70.84C81.46,-63.07 96.01,-51.67 107.86,-42.4"/>
<polygon fill="#63b8ff" stroke="#63b8ff" points="109.73,-45.38 115.44,-36.46 105.41,-39.87 109.73,-45.38"/>
</a>
</g>
<g id="a_edge7&#45;headlabel"><a xlink:href="dir_000520_000239.html" target="_top" xlink:title="1">
<text text-anchor="middle" x="109.84" y="-45.02" font-family="Helvetica,sans-Serif" font-size="10.00" fill="#63b8ff">1</text>
</a>
</g>
</g>
<!-- dir_9df346544416700849519ab7a98decca&#45;&gt;dir_bdd9a5d540de89e9fe90efdfc6973a4f -->
<g id="edge8" class="edge">
<title>dir_9df346544416700849519ab7a98decca&#45;&gt;dir_bdd9a5d540de89e9fe90efdfc6973a4f</title>
<g id="a_edge8"><a xlink:href="dir_000520_000045.html" target="_top">
<path fill="none" stroke="#63b8ff" d="M81.18,-70.82C88.6,-67.98 97.05,-65.11 105,-63.25 215.34,-37.39 249.77,-55.96 359.77,-36.49"/>
<polygon fill="#63b8ff" stroke="#63b8ff" points="360.32,-39.95 369.52,-34.69 359.05,-33.06 360.32,-39.95"/>
</a>
</g>
<g id="a_edge8&#45;headlabel"><a xlink:href="dir_000520_000045.html" target="_top" xlink:title="2">
<text text-anchor="middle" x="358.79" y="-39.24" font-family="Helvetica,sans-Serif" font-size="10.00" fill="#63b8ff">2</text>
</a>
</g>
</g>
<!-- dir_1cfecee880be5098a90e1a8a26e46a3f -->
<g id="node7" class="node">
<title>dir_1cfecee880be5098a90e1a8a26e46a3f</title>
<g id="a_node7"><a xlink:href="dir_1cfecee880be5098a90e1a8a26e46a3f.html" target="_top" xlink:title="tcpips">
<polygon fill="#60a2e3" stroke="#404040" points="212.12,-90.5 169.88,-90.5 169.88,-71.25 212.12,-71.25 212.12,-90.5"/>
<text text-anchor="middle" x="191" y="-77" font-family="Helvetica,sans-Serif" font-size="10.00">tcpips</text>
</a>
</g>
</g>
<!-- dir_1cfecee880be5098a90e1a8a26e46a3f&#45;&gt;dir_40ac35421bc63b72c26b6c69b1517fd6 -->
<g id="edge9" class="edge">
<title>dir_1cfecee880be5098a90e1a8a26e46a3f&#45;&gt;dir_40ac35421bc63b72c26b6c69b1517fd6</title>
<g id="a_edge9"><a xlink:href="dir_000522_000515.html" target="_top">
<path fill="none" stroke="#63b8ff" d="M191,-71.08C191,-64.57 191,-55.42 191,-47.12"/>
<polygon fill="#63b8ff" stroke="#63b8ff" points="194.5,-47.12 191,-37.12 187.5,-47.12 194.5,-47.12"/>
</a>
</g>
<g id="a_edge9&#45;headlabel"><a xlink:href="dir_000522_000515.html" target="_top" xlink:title="11">
<text text-anchor="middle" x="197.34" y="-45.33" font-family="Helvetica,sans-Serif" font-size="10.00" fill="#63b8ff">11</text>
</a>
</g>
</g>
<!-- dir_1cfecee880be5098a90e1a8a26e46a3f&#45;&gt;dir_9be0baa3d4a3e9f480a9ee70594037fa -->
<g id="edge10" class="edge">
<title>dir_1cfecee880be5098a90e1a8a26e46a3f&#45;&gt;dir_9be0baa3d4a3e9f480a9ee70594037fa</title>
<g id="a_edge10"><a xlink:href="dir_000522_000239.html" target="_top">
<path fill="none" stroke="#63b8ff" d="M180.31,-70.84C171.3,-63.22 158.17,-52.12 147.32,-42.95"/>
<polygon fill="#63b8ff" stroke="#63b8ff" points="149.58,-40.28 139.69,-36.5 145.06,-45.63 149.58,-40.28"/>
</a>
</g>
<g id="a_edge10&#45;headlabel"><a xlink:href="dir_000522_000239.html" target="_top" xlink:title="1">
<text text-anchor="middle" x="153" y="-35.58" font-family="Helvetica,sans-Serif" font-size="10.00" fill="#63b8ff">1</text>
</a>
</g>
</g>
<!-- dir_1cfecee880be5098a90e1a8a26e46a3f&#45;&gt;dir_bdd9a5d540de89e9fe90efdfc6973a4f -->
<g id="edge11" class="edge">
<title>dir_1cfecee880be5098a90e1a8a26e46a3f&#45;&gt;dir_bdd9a5d540de89e9fe90efdfc6973a4f</title>
<g id="a_edge11"><a xlink:href="dir_000522_000045.html" target="_top">
<path fill="none" stroke="#63b8ff" d="M205.72,-70.81C210.74,-68.04 216.48,-65.21 222,-63.25 280.34,-42.51 300.79,-49.36 359.9,-36.77"/>
<polygon fill="#63b8ff" stroke="#63b8ff" points="360.51,-40.22 369.51,-34.61 358.98,-33.39 360.51,-40.22"/>
</a>
</g>
<g id="a_edge11&#45;headlabel"><a xlink:href="dir_000522_000045.html" target="_top" xlink:title="1">
<text text-anchor="middle" x="359.11" y="-39.57" font-family="Helvetica,sans-Serif" font-size="10.00" fill="#63b8ff">1</text>
</a>
</g>
</g>
</g>
</svg>
