<?xml version="1.0" encoding="UTF-8" standalone="no"?>
<!DOCTYPE svg PUBLIC "-//W3C//DTD SVG 1.1//EN"
 "http://www.w3.org/Graphics/SVG/1.1/DTD/svg11.dtd">
<!-- Generated by graphviz version 2.43.0 (0)
 -->
<!-- Title: iop/fs/bdm Pages: 1 -->
<svg width="236pt" height="375pt"
 viewBox="0.00 0.00 236.00 375.00" xmlns="http://www.w3.org/2000/svg" xmlns:xlink="http://www.w3.org/1999/xlink">
<g id="graph0" class="graph" transform="scale(1 1) rotate(0) translate(4 371)">
<title>iop/fs/bdm</title>
<polygon fill="white" stroke="transparent" points="-4,4 -4,-371 232,-371 232,4 -4,4"/>
<g id="clust1" class="cluster">
<title>clusterdir_f24daea2522ffa8b6dc5fa9cdf5b8f5c</title>
<g id="a_clust1"><a xlink:href="dir_f24daea2522ffa8b6dc5fa9cdf5b8f5c.html" target="_top" xlink:title="fs">
<polygon fill="#ddddee" stroke="black" points="8,-200 8,-359 166,-359 166,-200 8,-200"/>
<text text-anchor="middle" x="87" y="-347" font-family="Helvetica,sans-Serif" font-size="10.00">fs</text>
</a>
</g>
</g>
<g id="clust2" class="cluster">
<title>clusterdir_0134b0376fbe77322088b496fb368f9b</title>
<g id="a_clust2"><a xlink:href="dir_0134b0376fbe77322088b496fb368f9b.html" target="_top">
<polygon fill="#eeeeff" stroke="black" points="16,-208 16,-332 158,-332 158,-208 16,-208"/>
</a>
</g>
</g>
<!-- dir_0134b0376fbe77322088b496fb368f9b -->
<g id="node1" class="node">
<title>dir_0134b0376fbe77322088b496fb368f9b</title>
<text text-anchor="middle" x="123" y="-303.5" font-family="Helvetica,sans-Serif" font-size="10.00">bdm</text>
</g>
<!-- dir_4aa3f641574c4329e5ed721597730e1e -->
<g id="node2" class="node">
<title>dir_4aa3f641574c4329e5ed721597730e1e</title>
<g id="a_node2"><a xlink:href="dir_4aa3f641574c4329e5ed721597730e1e.html" target="_top" xlink:title="include">
<polygon fill="white" stroke="black" points="118,-252 64,-252 64,-216 118,-216 118,-252"/>
<text text-anchor="middle" x="91" y="-231.5" font-family="Helvetica,sans-Serif" font-size="10.00">include</text>
</a>
</g>
</g>
<!-- dir_9be0baa3d4a3e9f480a9ee70594037fa -->
<g id="node4" class="node">
<title>dir_9be0baa3d4a3e9f480a9ee70594037fa</title>
<g id="a_node4"><a xlink:href="dir_9be0baa3d4a3e9f480a9ee70594037fa.html" target="_top" xlink:title="kernel">
<polygon fill="white" stroke="red" points="118,-180 64,-180 64,-144 118,-144 118,-180"/>
<text text-anchor="middle" x="91" y="-159.5" font-family="Helvetica,sans-Serif" font-size="10.00">kernel</text>
</a>
</g>
</g>
<!-- dir_4aa3f641574c4329e5ed721597730e1e&#45;&gt;dir_9be0baa3d4a3e9f480a9ee70594037fa -->
<g id="edge9" class="edge">
<title>dir_4aa3f641574c4329e5ed721597730e1e&#45;&gt;dir_9be0baa3d4a3e9f480a9ee70594037fa</title>
<path fill="none" stroke="black" d="M91,-215.7C91,-207.98 91,-198.71 91,-190.11"/>
<polygon fill="black" stroke="black" points="94.5,-190.1 91,-180.1 87.5,-190.1 94.5,-190.1"/>
<g id="a_edge9&#45;headlabel"><a xlink:href="dir_000502_000525.html" target="_top" xlink:title="1">
<text text-anchor="middle" x="97.34" y="-191.2" font-family="Helvetica,sans-Serif" font-size="10.00">1</text>
</a>
</g>
</g>
<!-- dir_ac1b9311aa44ad4cf108d5fb93dfb606 -->
<g id="node3" class="node">
<title>dir_ac1b9311aa44ad4cf108d5fb93dfb606</title>
<g id="a_node3"><a xlink:href="dir_ac1b9311aa44ad4cf108d5fb93dfb606.html" target="_top" xlink:title="src">
<polygon fill="white" stroke="red" points="78,-324 24,-324 24,-288 78,-288 78,-324"/>
<text text-anchor="middle" x="51" y="-303.5" font-family="Helvetica,sans-Serif" font-size="10.00">src</text>
</a>
</g>
</g>
<!-- dir_ac1b9311aa44ad4cf108d5fb93dfb606&#45;&gt;dir_4aa3f641574c4329e5ed721597730e1e -->
<g id="edge4" class="edge">
<title>dir_ac1b9311aa44ad4cf108d5fb93dfb606&#45;&gt;dir_4aa3f641574c4329e5ed721597730e1e</title>
<path fill="none" stroke="black" d="M60.89,-287.7C65.49,-279.64 71.06,-269.89 76.15,-260.98"/>
<polygon fill="black" stroke="black" points="79.3,-262.52 81.23,-252.1 73.23,-259.05 79.3,-262.52"/>
<g id="a_edge4&#45;headlabel"><a xlink:href="dir_000124_000502.html" target="_top" xlink:title="7">
<text text-anchor="middle" x="79.99" y="-264.55" font-family="Helvetica,sans-Serif" font-size="10.00">7</text>
</a>
</g>
</g>
<!-- dir_ac1b9311aa44ad4cf108d5fb93dfb606&#45;&gt;dir_9be0baa3d4a3e9f480a9ee70594037fa -->
<g id="edge2" class="edge">
<title>dir_ac1b9311aa44ad4cf108d5fb93dfb606&#45;&gt;dir_9be0baa3d4a3e9f480a9ee70594037fa</title>
<path fill="none" stroke="black" d="M48.02,-287.82C45.08,-266.32 42.64,-228.84 55,-200 56.84,-195.71 59.41,-191.64 62.36,-187.87"/>
<polygon fill="black" stroke="black" points="65.2,-189.94 69.23,-180.14 59.97,-185.29 65.2,-189.94"/>
<g id="a_edge2&#45;headlabel"><a xlink:href="dir_000124_000525.html" target="_top" xlink:title="2">
<text text-anchor="middle" x="64.93" y="-192.02" font-family="Helvetica,sans-Serif" font-size="10.00">2</text>
</a>
</g>
</g>
<!-- dir_40ac35421bc63b72c26b6c69b1517fd6 -->
<g id="node5" class="node">
<title>dir_40ac35421bc63b72c26b6c69b1517fd6</title>
<g id="a_node5"><a xlink:href="dir_40ac35421bc63b72c26b6c69b1517fd6.html" target="_top" xlink:title="system">
<polygon fill="white" stroke="red" points="173,-36 119,-36 119,0 173,0 173,-36"/>
<text text-anchor="middle" x="146" y="-15.5" font-family="Helvetica,sans-Serif" font-size="10.00">system</text>
</a>
</g>
</g>
<!-- dir_ac1b9311aa44ad4cf108d5fb93dfb606&#45;&gt;dir_40ac35421bc63b72c26b6c69b1517fd6 -->
<g id="edge3" class="edge">
<title>dir_ac1b9311aa44ad4cf108d5fb93dfb606&#45;&gt;dir_40ac35421bc63b72c26b6c69b1517fd6</title>
<path fill="none" stroke="black" d="M46.94,-287.93C44.69,-277.6 42.13,-264.12 41,-252 36.49,-203.81 37.71,-189.21 55,-144 67.93,-110.2 71.52,-101.12 93,-72 100.47,-61.88 109.85,-51.84 118.64,-43.27"/>
<polygon fill="black" stroke="black" points="121.31,-45.57 126.15,-36.15 116.49,-40.49 121.31,-45.57"/>
<g id="a_edge3&#45;headlabel"><a xlink:href="dir_000124_000215.html" target="_top" xlink:title="17">
<text text-anchor="middle" x="120.65" y="-47.6" font-family="Helvetica,sans-Serif" font-size="10.00">17</text>
</a>
</g>
</g>
<!-- dir_bdd9a5d540de89e9fe90efdfc6973a4f -->
<g id="node6" class="node">
<title>dir_bdd9a5d540de89e9fe90efdfc6973a4f</title>
<g id="a_node6"><a xlink:href="dir_bdd9a5d540de89e9fe90efdfc6973a4f.html" target="_top" xlink:title="common">
<polygon fill="white" stroke="red" points="175.5,-108 116.5,-108 116.5,-72 175.5,-72 175.5,-108"/>
<text text-anchor="middle" x="146" y="-87.5" font-family="Helvetica,sans-Serif" font-size="10.00">common</text>
</a>
</g>
</g>
<!-- dir_ac1b9311aa44ad4cf108d5fb93dfb606&#45;&gt;dir_bdd9a5d540de89e9fe90efdfc6973a4f -->
<g id="edge5" class="edge">
<title>dir_ac1b9311aa44ad4cf108d5fb93dfb606&#45;&gt;dir_bdd9a5d540de89e9fe90efdfc6973a4f</title>
<path fill="none" stroke="black" d="M78.09,-289.39C97.42,-277.68 121.01,-262 127,-252 151.79,-210.6 151.9,-152.44 149.27,-118.54"/>
<polygon fill="black" stroke="black" points="152.74,-118.08 148.34,-108.44 145.77,-118.72 152.74,-118.08"/>
<g id="a_edge5&#45;headlabel"><a xlink:href="dir_000124_000000.html" target="_top" xlink:title="3">
<text text-anchor="middle" x="155.89" y="-118.9" font-family="Helvetica,sans-Serif" font-size="10.00">3</text>
</a>
</g>
</g>
<!-- dir_10cce8191a2d4629e92aaca1231c0797 -->
<g id="node7" class="node">
<title>dir_10cce8191a2d4629e92aaca1231c0797</title>
<g id="a_node7"><a xlink:href="dir_10cce8191a2d4629e92aaca1231c0797.html" target="_top" xlink:title="libbdm">
<polygon fill="white" stroke="red" points="228,-252 174,-252 174,-216 228,-216 228,-252"/>
<text text-anchor="middle" x="201" y="-231.5" font-family="Helvetica,sans-Serif" font-size="10.00">libbdm</text>
</a>
</g>
</g>
<!-- dir_ac1b9311aa44ad4cf108d5fb93dfb606&#45;&gt;dir_10cce8191a2d4629e92aaca1231c0797 -->
<g id="edge6" class="edge">
<title>dir_ac1b9311aa44ad4cf108d5fb93dfb606&#45;&gt;dir_10cce8191a2d4629e92aaca1231c0797</title>
<path fill="none" stroke="black" d="M78.12,-292.17C81.11,-290.76 84.12,-289.35 87,-288 112.94,-275.85 142.25,-262.22 164.65,-251.83"/>
<polygon fill="black" stroke="black" points="166.2,-254.97 173.8,-247.59 163.25,-248.62 166.2,-254.97"/>
<g id="a_edge6&#45;headlabel"><a xlink:href="dir_000124_000505.html" target="_top" xlink:title="1">
<text text-anchor="middle" x="164.13" y="-256.56" font-family="Helvetica,sans-Serif" font-size="10.00">1</text>
</a>
</g>
</g>
<!-- dir_9be0baa3d4a3e9f480a9ee70594037fa&#45;&gt;dir_bdd9a5d540de89e9fe90efdfc6973a4f -->
<g id="edge1" class="edge">
<title>dir_9be0baa3d4a3e9f480a9ee70594037fa&#45;&gt;dir_bdd9a5d540de89e9fe90efdfc6973a4f</title>
<path fill="none" stroke="black" d="M98.68,-143.7C104.41,-135.3 112.26,-125.07 119.97,-115.86"/>
<polygon fill="black" stroke="black" points="122.78,-117.96 126.67,-108.1 117.48,-113.39 122.78,-117.96"/>
<g id="a_edge1&#45;headlabel"><a xlink:href="dir_000525_000000.html" target="_top" xlink:title="2">
<text text-anchor="middle" x="122.59" y="-120.04" font-family="Helvetica,sans-Serif" font-size="10.00">2</text>
</a>
</g>
</g>
<!-- dir_40ac35421bc63b72c26b6c69b1517fd6&#45;&gt;dir_9be0baa3d4a3e9f480a9ee70594037fa -->
<g id="edge7" class="edge">
<title>dir_40ac35421bc63b72c26b6c69b1517fd6&#45;&gt;dir_9be0baa3d4a3e9f480a9ee70594037fa</title>
<path fill="none" stroke="black" d="M130.53,-36.45C122.63,-46.26 113.54,-59.1 108,-72 99.53,-91.73 95.26,-115.71 93.12,-133.81"/>
<polygon fill="black" stroke="black" points="89.62,-133.66 92.07,-143.96 96.58,-134.38 89.62,-133.66"/>
<g id="a_edge7&#45;headlabel"><a xlink:href="dir_000215_000525.html" target="_top" xlink:title="105">
<text text-anchor="middle" x="87.17" y="-127.29" font-family="Helvetica,sans-Serif" font-size="10.00">105</text>
</a>
</g>
</g>
<!-- dir_40ac35421bc63b72c26b6c69b1517fd6&#45;&gt;dir_bdd9a5d540de89e9fe90efdfc6973a4f -->
<g id="edge8" class="edge">
<title>dir_40ac35421bc63b72c26b6c69b1517fd6&#45;&gt;dir_bdd9a5d540de89e9fe90efdfc6973a4f</title>
<path fill="none" stroke="black" d="M151.9,-36.1C152.7,-43.79 152.94,-53.05 152.6,-61.67"/>
<polygon fill="black" stroke="black" points="149.11,-61.48 151.92,-71.7 156.09,-61.96 149.11,-61.48"/>
<g id="a_edge8&#45;headlabel"><a xlink:href="dir_000215_000000.html" target="_top" xlink:title="32">
<text text-anchor="middle" x="146.52" y="-55.2" font-family="Helvetica,sans-Serif" font-size="10.00">32</text>
</a>
</g>
</g>
<!-- dir_bdd9a5d540de89e9fe90efdfc6973a4f&#45;&gt;dir_9be0baa3d4a3e9f480a9ee70594037fa -->
<g id="edge10" class="edge">
<title>dir_bdd9a5d540de89e9fe90efdfc6973a4f&#45;&gt;dir_9be0baa3d4a3e9f480a9ee70594037fa</title>
<path fill="none" stroke="black" d="M138.46,-108.1C132.76,-116.47 124.93,-126.69 117.21,-135.92"/>
<polygon fill="black" stroke="black" points="114.38,-133.84 110.51,-143.7 119.69,-138.4 114.38,-133.84"/>
<g id="a_edge10&#45;headlabel"><a xlink:href="dir_000000_000525.html" target="_top" xlink:title="3">
<text text-anchor="middle" x="114.58" y="-126.76" font-family="Helvetica,sans-Serif" font-size="10.00">3</text>
</a>
</g>
</g>
<!-- dir_bdd9a5d540de89e9fe90efdfc6973a4f&#45;&gt;dir_40ac35421bc63b72c26b6c69b1517fd6 -->
<g id="edge11" class="edge">
<title>dir_bdd9a5d540de89e9fe90efdfc6973a4f&#45;&gt;dir_40ac35421bc63b72c26b6c69b1517fd6</title>
<path fill="none" stroke="black" d="M140.08,-71.7C139.29,-63.98 139.06,-54.71 139.4,-46.11"/>
<polygon fill="black" stroke="black" points="142.9,-46.32 140.1,-36.1 135.92,-45.84 142.9,-46.32"/>
<g id="a_edge11&#45;headlabel"><a xlink:href="dir_000000_000215.html" target="_top" xlink:title="16">
<text text-anchor="middle" x="145.48" y="-47.61" font-family="Helvetica,sans-Serif" font-size="10.00">16</text>
</a>
</g>
</g>
<!-- dir_10cce8191a2d4629e92aaca1231c0797&#45;&gt;dir_4aa3f641574c4329e5ed721597730e1e -->
<g id="edge13" class="edge">
<title>dir_10cce8191a2d4629e92aaca1231c0797&#45;&gt;dir_4aa3f641574c4329e5ed721597730e1e</title>
<path fill="none" stroke="black" d="M173.79,-234C158.55,-234 143.32,-234 128.08,-234"/>
<polygon fill="black" stroke="black" points="128.07,-230.5 118.07,-234 128.07,-237.5 128.07,-230.5"/>
<g id="a_edge13&#45;headlabel"><a xlink:href="dir_000505_000502.html" target="_top" xlink:title="2">
<text text-anchor="middle" x="131.66" y="-225.16" font-family="Helvetica,sans-Serif" font-size="10.00">2</text>
</a>
</g>
</g>
<!-- dir_10cce8191a2d4629e92aaca1231c0797&#45;&gt;dir_40ac35421bc63b72c26b6c69b1517fd6 -->
<g id="edge12" class="edge">
<title>dir_10cce8191a2d4629e92aaca1231c0797&#45;&gt;dir_40ac35421bc63b72c26b6c69b1517fd6</title>
<path fill="none" stroke="black" d="M202.2,-215.87C203.68,-185.7 204.04,-121.56 185,-72 181.19,-62.08 175,-52.38 168.67,-44.04"/>
<polygon fill="black" stroke="black" points="171.36,-41.8 162.36,-36.19 165.9,-46.18 171.36,-41.8"/>
<g id="a_edge12&#45;headlabel"><a xlink:href="dir_000505_000215.html" target="_top" xlink:title="2">
<text text-anchor="middle" x="175.82" y="-40.32" font-family="Helvetica,sans-Serif" font-size="10.00">2</text>
</a>
</g>
</g>
<!-- dir_10cce8191a2d4629e92aaca1231c0797&#45;&gt;dir_bdd9a5d540de89e9fe90efdfc6973a4f -->
<g id="edge14" class="edge">
<title>dir_10cce8191a2d4629e92aaca1231c0797&#45;&gt;dir_bdd9a5d540de89e9fe90efdfc6973a4f</title>
<path fill="none" stroke="black" d="M194.37,-215.87C184.91,-191.46 167.47,-146.43 156.32,-117.64"/>
<polygon fill="black" stroke="black" points="159.53,-116.25 152.66,-108.19 153.01,-118.78 159.53,-116.25"/>
<g id="a_edge14&#45;headlabel"><a xlink:href="dir_000505_000000.html" target="_top" xlink:title="3">
<text text-anchor="middle" x="163.48" y="-116.08" font-family="Helvetica,sans-Serif" font-size="10.00">3</text>
</a>
</g>
</g>
</g>
</svg>
