<?xml version="1.0" encoding="UTF-8" standalone="no"?>
<!DOCTYPE svg PUBLIC "-//W3C//DTD SVG 1.1//EN"
 "http://www.w3.org/Graphics/SVG/1.1/DTD/svg11.dtd">
<!-- Generated by graphviz version 2.44.0 ()
 -->
<!-- Title: ee/mpeg Pages: 1 -->
<svg width="330pt" height="303pt"
 viewBox="0.00 0.00 330.15 303.00" xmlns="http://www.w3.org/2000/svg" xmlns:xlink="http://www.w3.org/1999/xlink">
<g id="graph0" class="graph" transform="scale(1 1) rotate(0) translate(4 299)">
<title>ee/mpeg</title>
<polygon fill="white" stroke="transparent" points="-4,4 -4,-299 326.15,-299 326.15,4 -4,4"/>
<g id="clust1" class="cluster">
<title>clusterdir_049738f1909e8dc3e45fe1f6b3faa109</title>
<g id="a_clust1"><a xlink:href="dir_049738f1909e8dc3e45fe1f6b3faa109.html" target="_top" xlink:title="ee">
<polygon fill="#ddddee" stroke="black" points="8,-64 8,-287 228,-287 228,-64 8,-64"/>
<text text-anchor="middle" x="118" y="-275" font-family="Helvetica,sans-Serif" font-size="10.00">ee</text>
</a>
</g>
</g>
<g id="clust2" class="cluster">
<title>clusterdir_5a30d30e86afe8e71e8256ba8d77d003</title>
<g id="a_clust2"><a xlink:href="dir_5a30d30e86afe8e71e8256ba8d77d003.html" target="_top">
<polygon fill="#eeeeff" stroke="black" points="16,-136 16,-260 158,-260 158,-136 16,-136"/>
</a>
</g>
</g>
<!-- dir_a0a8ac7efb6662b749c1285408048e6d -->
<g id="node1" class="node">
<title>dir_a0a8ac7efb6662b749c1285408048e6d</title>
<g id="a_node1"><a xlink:href="dir_a0a8ac7efb6662b749c1285408048e6d.html" target="_top" xlink:title="erl">
<polygon fill="white" stroke="red" points="218,-108 164,-108 164,-72 218,-72 218,-108"/>
<text text-anchor="middle" x="191" y="-87.5" font-family="Helvetica,sans-Serif" font-size="10.00">erl</text>
</a>
</g>
</g>
<!-- dir_bdd9a5d540de89e9fe90efdfc6973a4f -->
<g id="node6" class="node">
<title>dir_bdd9a5d540de89e9fe90efdfc6973a4f</title>
<g id="a_node6"><a xlink:href="dir_bdd9a5d540de89e9fe90efdfc6973a4f.html" target="_top" xlink:title="common">
<polygon fill="white" stroke="red" points="290,-108 236,-108 236,-72 290,-72 290,-108"/>
<text text-anchor="middle" x="263" y="-87.5" font-family="Helvetica,sans-Serif" font-size="10.00">common</text>
</a>
</g>
</g>
<!-- dir_a0a8ac7efb6662b749c1285408048e6d&#45;&gt;dir_bdd9a5d540de89e9fe90efdfc6973a4f -->
<g id="edge1" class="edge">
<title>dir_a0a8ac7efb6662b749c1285408048e6d&#45;&gt;dir_bdd9a5d540de89e9fe90efdfc6973a4f</title>
<path fill="none" stroke="black" d="M218.28,-90C220.74,-90 223.19,-90 225.65,-90"/>
<polygon fill="black" stroke="black" points="225.75,-93.5 235.75,-90 225.75,-86.5 225.75,-93.5"/>
<g id="a_edge1&#45;headlabel"><a xlink:href="dir_000206_000000.html" target="_top" xlink:title="1">
<text text-anchor="middle" x="222.15" y="-93.84" font-family="Helvetica,sans-Serif" font-size="10.00">1</text>
</a>
</g>
</g>
<!-- dir_0981ace215aa2029f526b70c145b9fbe -->
<g id="node7" class="node">
<title>dir_0981ace215aa2029f526b70c145b9fbe</title>
<g id="a_node7"><a xlink:href="dir_0981ace215aa2029f526b70c145b9fbe.html" target="_top" xlink:title="iop">
<polygon fill="white" stroke="red" points="290,-36 236,-36 236,0 290,0 290,-36"/>
<text text-anchor="middle" x="263" y="-15.5" font-family="Helvetica,sans-Serif" font-size="10.00">iop</text>
</a>
</g>
</g>
<!-- dir_a0a8ac7efb6662b749c1285408048e6d&#45;&gt;dir_0981ace215aa2029f526b70c145b9fbe -->
<g id="edge2" class="edge">
<title>dir_a0a8ac7efb6662b749c1285408048e6d&#45;&gt;dir_0981ace215aa2029f526b70c145b9fbe</title>
<path fill="none" stroke="black" d="M208.8,-71.7C217.6,-63.14 228.38,-52.66 238,-43.3"/>
<polygon fill="black" stroke="black" points="240.68,-45.58 245.41,-36.1 235.8,-40.57 240.68,-45.58"/>
<g id="a_edge2&#45;headlabel"><a xlink:href="dir_000206_000011.html" target="_top" xlink:title="2">
<text text-anchor="middle" x="240.08" y="-47.63" font-family="Helvetica,sans-Serif" font-size="10.00">2</text>
</a>
</g>
</g>
<!-- dir_694ec83a64f58cbdefbefce65cd1011c -->
<g id="node2" class="node">
<title>dir_694ec83a64f58cbdefbefce65cd1011c</title>
<g id="a_node2"><a xlink:href="dir_694ec83a64f58cbdefbefce65cd1011c.html" target="_top" xlink:title="kernel">
<polygon fill="white" stroke="red" points="220,-180 166,-180 166,-144 220,-144 220,-180"/>
<text text-anchor="middle" x="193" y="-159.5" font-family="Helvetica,sans-Serif" font-size="10.00">kernel</text>
</a>
</g>
</g>
<!-- dir_694ec83a64f58cbdefbefce65cd1011c&#45;&gt;dir_a0a8ac7efb6662b749c1285408048e6d -->
<g id="edge11" class="edge">
<title>dir_694ec83a64f58cbdefbefce65cd1011c&#45;&gt;dir_a0a8ac7efb6662b749c1285408048e6d</title>
<path fill="none" stroke="black" d="M192.51,-143.7C192.29,-135.98 192.02,-126.71 191.77,-118.11"/>
<polygon fill="black" stroke="black" points="195.27,-118 191.49,-108.1 188.28,-118.2 195.27,-118"/>
<g id="a_edge11&#45;headlabel"><a xlink:href="dir_000143_000206.html" target="_top" xlink:title="1">
<text text-anchor="middle" x="198.21" y="-119.01" font-family="Helvetica,sans-Serif" font-size="10.00">1</text>
</a>
</g>
</g>
<!-- dir_694ec83a64f58cbdefbefce65cd1011c&#45;&gt;dir_bdd9a5d540de89e9fe90efdfc6973a4f -->
<g id="edge9" class="edge">
<title>dir_694ec83a64f58cbdefbefce65cd1011c&#45;&gt;dir_bdd9a5d540de89e9fe90efdfc6973a4f</title>
<path fill="none" stroke="black" d="M204.39,-143.7C212.14,-135.05 222.57,-124.45 232.53,-115.03"/>
<polygon fill="black" stroke="black" points="235.04,-117.47 240,-108.1 230.29,-112.33 235.04,-117.47"/>
<g id="a_edge9&#45;headlabel"><a xlink:href="dir_000143_000000.html" target="_top" xlink:title="24">
<text text-anchor="middle" x="234.33" y="-119.49" font-family="Helvetica,sans-Serif" font-size="10.00">24</text>
</a>
</g>
</g>
<!-- dir_694ec83a64f58cbdefbefce65cd1011c&#45;&gt;dir_0981ace215aa2029f526b70c145b9fbe -->
<g id="edge10" class="edge">
<title>dir_694ec83a64f58cbdefbefce65cd1011c&#45;&gt;dir_0981ace215aa2029f526b70c145b9fbe</title>
<path fill="none" stroke="black" d="M220.19,-155.8C245.54,-149.36 281.91,-135.65 299,-108 309.28,-91.37 305.47,-82.45 299,-64 296.5,-56.86 292.33,-50.01 287.7,-43.91"/>
<polygon fill="black" stroke="black" points="290.29,-41.55 281.22,-36.08 284.9,-46.01 290.29,-41.55"/>
<g id="a_edge10&#45;headlabel"><a xlink:href="dir_000143_000011.html" target="_top" xlink:title="5">
<text text-anchor="middle" x="294.77" y="-40" font-family="Helvetica,sans-Serif" font-size="10.00">5</text>
</a>
</g>
</g>
<!-- dir_5a30d30e86afe8e71e8256ba8d77d003 -->
<g id="node3" class="node">
<title>dir_5a30d30e86afe8e71e8256ba8d77d003</title>
<text text-anchor="middle" x="123" y="-231.5" font-family="Helvetica,sans-Serif" font-size="10.00">mpeg</text>
</g>
<!-- dir_413ea6b66ae557d0d7cb038b88135642 -->
<g id="node4" class="node">
<title>dir_413ea6b66ae557d0d7cb038b88135642</title>
<g id="a_node4"><a xlink:href="dir_413ea6b66ae557d0d7cb038b88135642.html" target="_top" xlink:title="include">
<polygon fill="white" stroke="black" points="142,-180 88,-180 88,-144 142,-144 142,-180"/>
<text text-anchor="middle" x="115" y="-159.5" font-family="Helvetica,sans-Serif" font-size="10.00">include</text>
</a>
</g>
</g>
<!-- dir_413ea6b66ae557d0d7cb038b88135642&#45;&gt;dir_bdd9a5d540de89e9fe90efdfc6973a4f -->
<g id="edge3" class="edge">
<title>dir_413ea6b66ae557d0d7cb038b88135642&#45;&gt;dir_bdd9a5d540de89e9fe90efdfc6973a4f</title>
<path fill="none" stroke="black" d="M133.91,-143.98C137.74,-141.05 141.87,-138.24 146,-136 178.44,-118.42 192.7,-122.97 226.27,-110.17"/>
<polygon fill="black" stroke="black" points="227.82,-113.32 235.75,-106.3 225.17,-106.84 227.82,-113.32"/>
<g id="a_edge3&#45;headlabel"><a xlink:href="dir_000230_000000.html" target="_top" xlink:title="1">
<text text-anchor="middle" x="225.56" y="-114.81" font-family="Helvetica,sans-Serif" font-size="10.00">1</text>
</a>
</g>
</g>
<!-- dir_c15c3f3fb57f56539c5f292b37505da8 -->
<g id="node5" class="node">
<title>dir_c15c3f3fb57f56539c5f292b37505da8</title>
<g id="a_node5"><a xlink:href="dir_c15c3f3fb57f56539c5f292b37505da8.html" target="_top" xlink:title="src">
<polygon fill="white" stroke="black" points="78,-252 24,-252 24,-216 78,-216 78,-252"/>
<text text-anchor="middle" x="51" y="-231.5" font-family="Helvetica,sans-Serif" font-size="10.00">src</text>
</a>
</g>
</g>
<!-- dir_c15c3f3fb57f56539c5f292b37505da8&#45;&gt;dir_a0a8ac7efb6662b749c1285408048e6d -->
<g id="edge8" class="edge">
<title>dir_c15c3f3fb57f56539c5f292b37505da8&#45;&gt;dir_a0a8ac7efb6662b749c1285408048e6d</title>
<path fill="none" stroke="black" d="M51.54,-215.75C53.09,-194.47 58.79,-158.37 79,-136 98.3,-114.64 129.14,-103.25 153.57,-97.27"/>
<polygon fill="black" stroke="black" points="154.61,-100.63 163.6,-95.03 153.08,-93.8 154.61,-100.63"/>
<g id="a_edge8&#45;headlabel"><a xlink:href="dir_000152_000206.html" target="_top" xlink:title="1">
<text text-anchor="middle" x="151.72" y="-101.69" font-family="Helvetica,sans-Serif" font-size="10.00">1</text>
</a>
</g>
</g>
<!-- dir_c15c3f3fb57f56539c5f292b37505da8&#45;&gt;dir_694ec83a64f58cbdefbefce65cd1011c -->
<g id="edge7" class="edge">
<title>dir_c15c3f3fb57f56539c5f292b37505da8&#45;&gt;dir_694ec83a64f58cbdefbefce65cd1011c</title>
<path fill="none" stroke="black" d="M78.23,-220.1C103.13,-208.28 138.45,-191.49 156.82,-182.49"/>
<polygon fill="black" stroke="black" points="158.61,-185.52 166,-177.92 155.48,-179.25 158.61,-185.52"/>
<g id="a_edge7&#45;headlabel"><a xlink:href="dir_000152_000143.html" target="_top" xlink:title="1">
<text text-anchor="middle" x="156.65" y="-187.16" font-family="Helvetica,sans-Serif" font-size="10.00">1</text>
</a>
</g>
</g>
<!-- dir_c15c3f3fb57f56539c5f292b37505da8&#45;&gt;dir_413ea6b66ae557d0d7cb038b88135642 -->
<g id="edge6" class="edge">
<title>dir_c15c3f3fb57f56539c5f292b37505da8&#45;&gt;dir_413ea6b66ae557d0d7cb038b88135642</title>
<path fill="none" stroke="black" d="M66.82,-215.7C74.57,-207.22 84.04,-196.86 92.52,-187.58"/>
<polygon fill="black" stroke="black" points="95.2,-189.85 99.36,-180.1 90.03,-185.12 95.2,-189.85"/>
<g id="a_edge6&#45;headlabel"><a xlink:href="dir_000152_000230.html" target="_top" xlink:title="2">
<text text-anchor="middle" x="94.87" y="-191.92" font-family="Helvetica,sans-Serif" font-size="10.00">2</text>
</a>
</g>
</g>
<!-- dir_c15c3f3fb57f56539c5f292b37505da8&#45;&gt;dir_0981ace215aa2029f526b70c145b9fbe -->
<g id="edge5" class="edge">
<title>dir_c15c3f3fb57f56539c5f292b37505da8&#45;&gt;dir_0981ace215aa2029f526b70c145b9fbe</title>
<path fill="none" stroke="black" d="M78.28,-219.43C81.19,-218.19 84.14,-217.02 87,-216 193,-178.23 268.98,-210.23 316,-108 324.17,-90.23 324.21,-81.75 316,-64 311.98,-55.31 305.36,-47.69 298.14,-41.3"/>
<polygon fill="black" stroke="black" points="300.15,-38.42 290.17,-34.87 295.76,-43.87 300.15,-38.42"/>
<g id="a_edge5&#45;headlabel"><a xlink:href="dir_000152_000011.html" target="_top" xlink:title="1">
<text text-anchor="middle" x="304.73" y="-35.97" font-family="Helvetica,sans-Serif" font-size="10.00">1</text>
</a>
</g>
</g>
<!-- dir_bdd9a5d540de89e9fe90efdfc6973a4f&#45;&gt;dir_694ec83a64f58cbdefbefce65cd1011c -->
<g id="edge13" class="edge">
<title>dir_bdd9a5d540de89e9fe90efdfc6973a4f&#45;&gt;dir_694ec83a64f58cbdefbefce65cd1011c</title>
<path fill="none" stroke="black" d="M251.79,-108.1C244.08,-116.72 233.67,-127.32 223.7,-136.76"/>
<polygon fill="black" stroke="black" points="221.17,-134.33 216.22,-143.7 225.93,-139.46 221.17,-134.33"/>
<g id="a_edge13&#45;headlabel"><a xlink:href="dir_000000_000143.html" target="_top" xlink:title="1">
<text text-anchor="middle" x="221.88" y="-127.3" font-family="Helvetica,sans-Serif" font-size="10.00">1</text>
</a>
</g>
</g>
<!-- dir_bdd9a5d540de89e9fe90efdfc6973a4f&#45;&gt;dir_0981ace215aa2029f526b70c145b9fbe -->
<g id="edge12" class="edge">
<title>dir_bdd9a5d540de89e9fe90efdfc6973a4f&#45;&gt;dir_0981ace215aa2029f526b70c145b9fbe</title>
<path fill="none" stroke="black" d="M257.08,-71.7C256.29,-63.98 256.06,-54.71 256.4,-46.11"/>
<polygon fill="black" stroke="black" points="259.9,-46.32 257.1,-36.1 252.92,-45.84 259.9,-46.32"/>
<g id="a_edge12&#45;headlabel"><a xlink:href="dir_000000_000011.html" target="_top" xlink:title="20">
<text text-anchor="middle" x="262.48" y="-47.61" font-family="Helvetica,sans-Serif" font-size="10.00">20</text>
</a>
</g>
</g>
<!-- dir_0981ace215aa2029f526b70c145b9fbe&#45;&gt;dir_bdd9a5d540de89e9fe90efdfc6973a4f -->
<g id="edge4" class="edge">
<title>dir_0981ace215aa2029f526b70c145b9fbe&#45;&gt;dir_bdd9a5d540de89e9fe90efdfc6973a4f</title>
<path fill="none" stroke="black" d="M268.9,-36.1C269.7,-43.79 269.94,-53.05 269.6,-61.67"/>
<polygon fill="black" stroke="black" points="266.11,-61.48 268.92,-71.7 273.09,-61.96 266.11,-61.48"/>
<g id="a_edge4&#45;headlabel"><a xlink:href="dir_000011_000000.html" target="_top" xlink:title="158">
<text text-anchor="middle" x="263.52" y="-55.2" font-family="Helvetica,sans-Serif" font-size="10.00">158</text>
</a>
</g>
</g>
</g>
</svg>
