<?xml version="1.0" encoding="UTF-8" standalone="no"?>
<!DOCTYPE svg PUBLIC "-//W3C//DTD SVG 1.1//EN"
 "http://www.w3.org/Graphics/SVG/1.1/DTD/svg11.dtd">
<!-- Generated by graphviz version 9.0.0 (20230911.1827)
 -->
<!-- Title: ee/rpc/filexio Pages: 1 -->
<svg width="280pt" height="181pt"
 viewBox="0.00 0.00 280.12 181.00" xmlns="http://www.w3.org/2000/svg" xmlns:xlink="http://www.w3.org/1999/xlink">
<g id="graph0" class="graph" transform="scale(1 1) rotate(0) translate(4 177)">
<title>ee/rpc/filexio</title>
<g id="clust1" class="cluster">
<title>clusterdir_5b119dc963fa9b25ef41951231899460</title>
<g id="a_clust1"><a xlink:href="dir_5b119dc963fa9b25ef41951231899460.html" target="_top" xlink:title="rpc">
<polygon fill="#deebf9" stroke="#7f7f7f" stroke-dasharray="5,2" points="8,-39.25 8,-165 128,-165 128,-39.25 8,-39.25"/>
<text text-anchor="middle" x="68" y="-151.5" font-family="Helvetica,sans-Serif" font-size="10.00">rpc</text>
</a>
</g>
</g>
<g id="clust2" class="cluster">
<title>clusterdir_6b1fe306776c19ae02b5b1275d4c63ec</title>
<g id="a_clust2"><a xlink:href="dir_6b1fe306776c19ae02b5b1275d4c63ec.html" target="_top">
<polygon fill="#deebf9" stroke="#404040" stroke-width="2" points="16,-47.25 16,-137.75 120,-137.75 120,-47.25 16,-47.25"/>
</a>
</g>
</g>
<!-- dir_6b1fe306776c19ae02b5b1275d4c63ec -->
<g id="node1" class="node">
<title>dir_6b1fe306776c19ae02b5b1275d4c63ec</title>
<text text-anchor="middle" x="92" y="-116.25" font-family="Helvetica,sans-Serif" font-size="10.00">filexio</text>
</g>
<!-- dir_21af483e535eeeda1b3e0ebbd7a8a7a3 -->
<g id="node2" class="node">
<title>dir_21af483e535eeeda1b3e0ebbd7a8a7a3</title>
<g id="a_node2"><a xlink:href="dir_21af483e535eeeda1b3e0ebbd7a8a7a3.html" target="_top" xlink:title="include">
<polygon fill="#60a2e3" stroke="#404040" points="70.38,-74.5 23.62,-74.5 23.62,-55.25 70.38,-55.25 70.38,-74.5"/>
<text text-anchor="middle" x="47" y="-61" font-family="Helvetica,sans-Serif" font-size="10.00">include</text>
</a>
</g>
</g>
<!-- dir_bdd9a5d540de89e9fe90efdfc6973a4f -->
<g id="node4" class="node">
<title>dir_bdd9a5d540de89e9fe90efdfc6973a4f</title>
<g id="a_node4"><a xlink:href="dir_bdd9a5d540de89e9fe90efdfc6973a4f.html" target="_top" xlink:title="common">
<polygon fill="#deebf9" stroke="red" points="98.75,-19.25 45.25,-19.25 45.25,0 98.75,0 98.75,-19.25"/>
<text text-anchor="middle" x="72" y="-5.75" font-family="Helvetica,sans-Serif" font-size="10.00">common</text>
</a>
</g>
</g>
<!-- dir_21af483e535eeeda1b3e0ebbd7a8a7a3&#45;&gt;dir_bdd9a5d540de89e9fe90efdfc6973a4f -->
<g id="edge1" class="edge">
<title>dir_21af483e535eeeda1b3e0ebbd7a8a7a3&#45;&gt;dir_bdd9a5d540de89e9fe90efdfc6973a4f</title>
<g id="a_edge1"><a xlink:href="dir_000099_000022.html" target="_top">
<path fill="none" stroke="#63b8ff" d="M51.13,-55.08C54.33,-48.26 58.89,-38.56 62.93,-29.95"/>
<polygon fill="#63b8ff" stroke="#63b8ff" points="66.06,-31.52 67.14,-20.98 59.72,-28.54 66.06,-31.52"/>
</a>
</g>
<g id="a_edge1&#45;headlabel"><a xlink:href="dir_000099_000022.html" target="_top" xlink:title="1">
<text text-anchor="middle" x="67.74" y="-30.73" font-family="Helvetica,sans-Serif" font-size="10.00" fill="#63b8ff">1</text>
</a>
</g>
</g>
<!-- dir_2e51deef12334dd084da5d9140b29b47 -->
<g id="node3" class="node">
<title>dir_2e51deef12334dd084da5d9140b29b47</title>
<g id="a_node3"><a xlink:href="dir_2e51deef12334dd084da5d9140b29b47.html" target="_top" xlink:title="src">
<polygon fill="#60a2e3" stroke="#404040" points="53.75,-129.75 24.25,-129.75 24.25,-110.5 53.75,-110.5 53.75,-129.75"/>
<text text-anchor="middle" x="39" y="-116.25" font-family="Helvetica,sans-Serif" font-size="10.00">src</text>
</a>
</g>
</g>
<!-- dir_2e51deef12334dd084da5d9140b29b47&#45;&gt;dir_21af483e535eeeda1b3e0ebbd7a8a7a3 -->
<g id="edge3" class="edge">
<title>dir_2e51deef12334dd084da5d9140b29b47&#45;&gt;dir_21af483e535eeeda1b3e0ebbd7a8a7a3</title>
<g id="a_edge3"><a xlink:href="dir_000285_000099.html" target="_top">
<path fill="none" stroke="#63b8ff" d="M40.32,-110.33C41.31,-103.74 42.71,-94.46 43.97,-86.07"/>
<polygon fill="#63b8ff" stroke="#63b8ff" points="47.4,-86.76 45.43,-76.36 40.48,-85.72 47.4,-86.76"/>
</a>
</g>
<g id="a_edge3&#45;headlabel"><a xlink:href="dir_000285_000099.html" target="_top" xlink:title="2">
<text text-anchor="middle" x="49.9" y="-85.37" font-family="Helvetica,sans-Serif" font-size="10.00" fill="#63b8ff">2</text>
</a>
</g>
</g>
<!-- dir_2e51deef12334dd084da5d9140b29b47&#45;&gt;dir_bdd9a5d540de89e9fe90efdfc6973a4f -->
<g id="edge6" class="edge">
<title>dir_2e51deef12334dd084da5d9140b29b47&#45;&gt;dir_bdd9a5d540de89e9fe90efdfc6973a4f</title>
<g id="a_edge6"><a xlink:href="dir_000285_000022.html" target="_top">
<path fill="none" stroke="#63b8ff" d="M51.03,-110.01C60.65,-101.89 73.42,-89.08 79,-74.5 84.38,-60.45 82.14,-43.47 78.83,-30.55"/>
<polygon fill="#63b8ff" stroke="#63b8ff" points="82.21,-29.64 75.97,-21.08 75.51,-31.67 82.21,-29.64"/>
</a>
</g>
<g id="a_edge6&#45;headlabel"><a xlink:href="dir_000285_000022.html" target="_top" xlink:title="4">
<text text-anchor="middle" x="85.53" y="-26.94" font-family="Helvetica,sans-Serif" font-size="10.00" fill="#63b8ff">4</text>
</a>
</g>
</g>
<!-- dir_a0a8ac7efb6662b749c1285408048e6d -->
<g id="node5" class="node">
<title>dir_a0a8ac7efb6662b749c1285408048e6d</title>
<g id="a_node5"><a xlink:href="dir_a0a8ac7efb6662b749c1285408048e6d.html" target="_top" xlink:title="erl">
<polygon fill="#deebf9" stroke="red" stroke-dasharray="5,2" points="164.4,-74.5 135.6,-74.5 135.6,-55.25 164.4,-55.25 164.4,-74.5"/>
<text text-anchor="middle" x="150" y="-61" font-family="Helvetica,sans-Serif" font-size="10.00">erl</text>
</a>
</g>
</g>
<!-- dir_2e51deef12334dd084da5d9140b29b47&#45;&gt;dir_a0a8ac7efb6662b749c1285408048e6d -->
<g id="edge5" class="edge">
<title>dir_2e51deef12334dd084da5d9140b29b47&#45;&gt;dir_a0a8ac7efb6662b749c1285408048e6d</title>
<g id="a_edge5"><a xlink:href="dir_000285_000044.html" target="_top">
<path fill="none" stroke="#63b8ff" d="M53.97,-111.94C72.19,-103.2 103.24,-88.31 125.09,-77.83"/>
<polygon fill="#63b8ff" stroke="#63b8ff" points="126.4,-81.08 133.9,-73.6 123.37,-74.77 126.4,-81.08"/>
</a>
</g>
<g id="a_edge5&#45;headlabel"><a xlink:href="dir_000285_000044.html" target="_top" xlink:title="1">
<text text-anchor="middle" x="125.75" y="-80.66" font-family="Helvetica,sans-Serif" font-size="10.00" fill="#63b8ff">1</text>
</a>
</g>
</g>
<!-- dir_0981ace215aa2029f526b70c145b9fbe -->
<g id="node6" class="node">
<title>dir_0981ace215aa2029f526b70c145b9fbe</title>
<g id="a_node6"><a xlink:href="dir_0981ace215aa2029f526b70c145b9fbe.html" target="_top" xlink:title="iop">
<polygon fill="#deebf9" stroke="red" points="211.4,-74.5 182.6,-74.5 182.6,-55.25 211.4,-55.25 211.4,-74.5"/>
<text text-anchor="middle" x="197" y="-61" font-family="Helvetica,sans-Serif" font-size="10.00">iop</text>
</a>
</g>
</g>
<!-- dir_2e51deef12334dd084da5d9140b29b47&#45;&gt;dir_0981ace215aa2029f526b70c145b9fbe -->
<g id="edge2" class="edge">
<title>dir_2e51deef12334dd084da5d9140b29b47&#45;&gt;dir_0981ace215aa2029f526b70c145b9fbe</title>
<g id="a_edge2"><a xlink:href="dir_000285_000167.html" target="_top">
<path fill="none" stroke="#63b8ff" d="M54.21,-113.58C57.12,-112.54 60.15,-111.48 63,-110.5 108.52,-94.88 122.56,-91.59 171.64,-74.89"/>
<polygon fill="#63b8ff" stroke="#63b8ff" points="172.54,-78.28 180.87,-71.72 170.27,-71.65 172.54,-78.28"/>
</a>
</g>
<g id="a_edge2&#45;headlabel"><a xlink:href="dir_000285_000167.html" target="_top" xlink:title="2">
<text text-anchor="middle" x="171.49" y="-77.76" font-family="Helvetica,sans-Serif" font-size="10.00" fill="#63b8ff">2</text>
</a>
</g>
</g>
<!-- dir_694ec83a64f58cbdefbefce65cd1011c -->
<g id="node7" class="node">
<title>dir_694ec83a64f58cbdefbefce65cd1011c</title>
<g id="a_node7"><a xlink:href="dir_694ec83a64f58cbdefbefce65cd1011c.html" target="_top" xlink:title="kernel">
<polygon fill="#deebf9" stroke="red" stroke-dasharray="5,2" points="272.12,-74.5 229.88,-74.5 229.88,-55.25 272.12,-55.25 272.12,-74.5"/>
<text text-anchor="middle" x="251" y="-61" font-family="Helvetica,sans-Serif" font-size="10.00">kernel</text>
</a>
</g>
</g>
<!-- dir_2e51deef12334dd084da5d9140b29b47&#45;&gt;dir_694ec83a64f58cbdefbefce65cd1011c -->
<g id="edge4" class="edge">
<title>dir_2e51deef12334dd084da5d9140b29b47&#45;&gt;dir_694ec83a64f58cbdefbefce65cd1011c</title>
<g id="a_edge4"><a xlink:href="dir_000285_000173.html" target="_top">
<path fill="none" stroke="#63b8ff" d="M54.15,-113.37C57.06,-112.35 60.11,-111.35 63,-110.5 128.34,-91.34 148.64,-91.98 218.52,-74.74"/>
<polygon fill="#63b8ff" stroke="#63b8ff" points="219.37,-78.14 228.22,-72.31 217.67,-71.35 219.37,-78.14"/>
</a>
</g>
<g id="a_edge4&#45;headlabel"><a xlink:href="dir_000285_000173.html" target="_top" xlink:title="2">
<text text-anchor="middle" x="218.05" y="-77.52" font-family="Helvetica,sans-Serif" font-size="10.00" fill="#63b8ff">2</text>
</a>
</g>
</g>
</g>
</svg>
