<?xml version="1.0" encoding="UTF-8" standalone="no"?>
<!DOCTYPE svg PUBLIC "-//W3C//DTD SVG 1.1//EN"
 "http://www.w3.org/Graphics/SVG/1.1/DTD/svg11.dtd">
<!-- Generated by graphviz version 12.2.0 (20241103.1931)
 -->
<!-- Title: ee/iopreboot/src Pages: 1 -->
<svg width="335pt" height="142pt"
 viewBox="0.00 0.00 335.40 141.75" xmlns="http://www.w3.org/2000/svg" xmlns:xlink="http://www.w3.org/1999/xlink">
<g id="graph0" class="graph" transform="scale(1 1) rotate(0) translate(4 137.75)">
<title>ee/iopreboot/src</title>
<g id="clust1" class="cluster">
<title>clusterdir_ff70674bc173ff6e32f1bc3a678b82a6</title>
<g id="a_clust1"><a xlink:href="dir_ff70674bc173ff6e32f1bc3a678b82a6.html" target="_top" xlink:title="iopreboot">
<polygon fill="#deebf9" stroke="#7f7f7f" stroke-dasharray="5,2" points="8,-8 8,-125.75 133,-125.75 133,-8 8,-8"/>
<text text-anchor="middle" x="70.5" y="-112.25" font-family="Helvetica,sans-Serif" font-size="10.00">iopreboot</text>
</a>
</g>
</g>
<g id="clust2" class="cluster">
<title>clusterdir_a498588c2d5275b63f4912378b4fcc14</title>
<g id="a_clust2"><a xlink:href="dir_a498588c2d5275b63f4912378b4fcc14.html" target="_top">
<polygon fill="#deebf9" stroke="#404040" stroke-width="2" points="16,-63.25 16,-98.5 125,-98.5 125,-63.25 16,-63.25"/>
</a>
</g>
</g>
<!-- dir_5dc1218e3fbe6447e9a0ef568f079980 -->
<g id="node1" class="node">
<title>dir_5dc1218e3fbe6447e9a0ef568f079980</title>
<g id="a_node1"><a xlink:href="dir_5dc1218e3fbe6447e9a0ef568f079980.html" target="_top" xlink:title="include">
<polygon fill="#60a2e3" stroke="#404040" points="62.38,-35.25 15.62,-35.25 15.62,-16 62.38,-16 62.38,-35.25"/>
<text text-anchor="middle" x="39" y="-21.75" font-family="Helvetica,sans-Serif" font-size="10.00">include</text>
</a>
</g>
</g>
<!-- dir_a498588c2d5275b63f4912378b4fcc14 -->
<g id="node2" class="node">
<title>dir_a498588c2d5275b63f4912378b4fcc14</title>
<text text-anchor="middle" x="39" y="-77" font-family="Helvetica,sans-Serif" font-size="10.00">src</text>
</g>
<!-- dir_a498588c2d5275b63f4912378b4fcc14&#45;&gt;dir_5dc1218e3fbe6447e9a0ef568f079980 -->
<g id="edge2" class="edge">
<title>dir_a498588c2d5275b63f4912378b4fcc14&#45;&gt;dir_5dc1218e3fbe6447e9a0ef568f079980</title>
<g id="a_edge2"><a xlink:href="dir_000368_000113.html" target="_top">
<path fill="none" stroke="#63b8ff" d="M39,-71.55C39,-64.95 39,-55.44 39,-46.86"/>
<polygon fill="#63b8ff" stroke="#63b8ff" points="42.5,-46.93 39,-36.93 35.5,-46.93 42.5,-46.93"/>
</a>
</g>
<g id="a_edge2&#45;headlabel"><a xlink:href="dir_000368_000113.html" target="_top" xlink:title="1">
<text text-anchor="middle" x="45.34" y="-45.14" font-family="Helvetica,sans-Serif" font-size="10.00" fill="#63b8ff">1</text>
</a>
</g>
</g>
<!-- dir_3c99d3595cafa99f0e2683197c97edf9 -->
<g id="node4" class="node">
<title>dir_3c99d3595cafa99f0e2683197c97edf9</title>
<g id="a_node4"><a xlink:href="dir_3c99d3595cafa99f0e2683197c97edf9.html" target="_top" xlink:title="sbv">
<polygon fill="#deebf9" stroke="red" stroke-dasharray="5,2" points="172.88,-35.25 141.12,-35.25 141.12,-16 172.88,-16 172.88,-35.25"/>
<text text-anchor="middle" x="157" y="-21.75" font-family="Helvetica,sans-Serif" font-size="10.00">sbv</text>
</a>
</g>
</g>
<!-- dir_a498588c2d5275b63f4912378b4fcc14&#45;&gt;dir_3c99d3595cafa99f0e2683197c97edf9 -->
<g id="edge1" class="edge">
<title>dir_a498588c2d5275b63f4912378b4fcc14&#45;&gt;dir_3c99d3595cafa99f0e2683197c97edf9</title>
<g id="a_edge1"><a xlink:href="dir_000368_000333.html" target="_top">
<path fill="none" stroke="#63b8ff" d="M49.37,-71.47C53.2,-68.62 57.66,-65.58 62,-63.25 90.18,-48.16 101.62,-48.3 130.4,-37.7"/>
<polygon fill="#63b8ff" stroke="#63b8ff" points="131.39,-41.07 139.46,-34.21 128.87,-34.54 131.39,-41.07"/>
</a>
</g>
<g id="a_edge1&#45;headlabel"><a xlink:href="dir_000368_000333.html" target="_top" xlink:title="1">
<text text-anchor="middle" x="130.47" y="-40.59" font-family="Helvetica,sans-Serif" font-size="10.00" fill="#63b8ff">1</text>
</a>
</g>
</g>
<!-- dir_694ec83a64f58cbdefbefce65cd1011c -->
<g id="node5" class="node">
<title>dir_694ec83a64f58cbdefbefce65cd1011c</title>
<g id="a_node5"><a xlink:href="dir_694ec83a64f58cbdefbefce65cd1011c.html" target="_top" xlink:title="kernel">
<polygon fill="#deebf9" stroke="red" stroke-dasharray="5,2" points="233.12,-35.25 190.88,-35.25 190.88,-16 233.12,-16 233.12,-35.25"/>
<text text-anchor="middle" x="212" y="-21.75" font-family="Helvetica,sans-Serif" font-size="10.00">kernel</text>
</a>
</g>
</g>
<!-- dir_a498588c2d5275b63f4912378b4fcc14&#45;&gt;dir_694ec83a64f58cbdefbefce65cd1011c -->
<g id="edge3" class="edge">
<title>dir_a498588c2d5275b63f4912378b4fcc14&#45;&gt;dir_694ec83a64f58cbdefbefce65cd1011c</title>
<g id="a_edge3"><a xlink:href="dir_000368_000255.html" target="_top">
<path fill="none" stroke="#63b8ff" d="M48.77,-71.5C52.67,-68.52 57.34,-65.37 62,-63.25 108.72,-41.96 126.73,-48.1 179.39,-35.71"/>
<polygon fill="#63b8ff" stroke="#63b8ff" points="180.08,-39.15 188.94,-33.34 178.39,-32.36 180.08,-39.15"/>
</a>
</g>
<g id="a_edge3&#45;headlabel"><a xlink:href="dir_000368_000255.html" target="_top" xlink:title="5">
<text text-anchor="middle" x="178.74" y="-38.53" font-family="Helvetica,sans-Serif" font-size="10.00" fill="#63b8ff">5</text>
</a>
</g>
</g>
<!-- dir_a0a8ac7efb6662b749c1285408048e6d -->
<g id="node6" class="node">
<title>dir_a0a8ac7efb6662b749c1285408048e6d</title>
<g id="a_node6"><a xlink:href="dir_a0a8ac7efb6662b749c1285408048e6d.html" target="_top" xlink:title="erl">
<polygon fill="#deebf9" stroke="red" stroke-dasharray="5,2" points="280.4,-35.25 251.6,-35.25 251.6,-16 280.4,-16 280.4,-35.25"/>
<text text-anchor="middle" x="266" y="-21.75" font-family="Helvetica,sans-Serif" font-size="10.00">erl</text>
</a>
</g>
</g>
<!-- dir_a498588c2d5275b63f4912378b4fcc14&#45;&gt;dir_a0a8ac7efb6662b749c1285408048e6d -->
<g id="edge4" class="edge">
<title>dir_a498588c2d5275b63f4912378b4fcc14&#45;&gt;dir_a0a8ac7efb6662b749c1285408048e6d</title>
<g id="a_edge4"><a xlink:href="dir_000368_000071.html" target="_top">
<path fill="none" stroke="#63b8ff" d="M48.68,-71.31C52.58,-68.31 57.26,-65.2 62,-63.25 133.66,-33.78 161.17,-53.39 240.19,-35.15"/>
<polygon fill="#63b8ff" stroke="#63b8ff" points="240.81,-38.6 249.69,-32.82 239.14,-31.8 240.81,-38.6"/>
</a>
</g>
<g id="a_edge4&#45;headlabel"><a xlink:href="dir_000368_000071.html" target="_top" xlink:title="1">
<text text-anchor="middle" x="239.47" y="-37.98" font-family="Helvetica,sans-Serif" font-size="10.00" fill="#63b8ff">1</text>
</a>
</g>
</g>
<!-- dir_cfa7e2ab114a6553389f9ee886137040 -->
<g id="node3" class="node">
<title>dir_cfa7e2ab114a6553389f9ee886137040</title>
<g id="a_node3"><a xlink:href="dir_cfa7e2ab114a6553389f9ee886137040.html" target="_top" xlink:title="imgdrv">
<polygon fill="#60a2e3" stroke="#404040" points="116.62,-90.5 71.38,-90.5 71.38,-71.25 116.62,-71.25 116.62,-90.5"/>
<text text-anchor="middle" x="94" y="-77" font-family="Helvetica,sans-Serif" font-size="10.00">imgdrv</text>
</a>
</g>
</g>
<!-- dir_0981ace215aa2029f526b70c145b9fbe -->
<g id="node7" class="node">
<title>dir_0981ace215aa2029f526b70c145b9fbe</title>
<g id="a_node7"><a xlink:href="dir_0981ace215aa2029f526b70c145b9fbe.html" target="_top" xlink:title="iop">
<polygon fill="#deebf9" stroke="red" points="327.4,-35.25 298.6,-35.25 298.6,-16 327.4,-16 327.4,-35.25"/>
<text text-anchor="middle" x="313" y="-21.75" font-family="Helvetica,sans-Serif" font-size="10.00">iop</text>
</a>
</g>
</g>
<!-- dir_cfa7e2ab114a6553389f9ee886137040&#45;&gt;dir_0981ace215aa2029f526b70c145b9fbe -->
<g id="edge5" class="edge">
<title>dir_cfa7e2ab114a6553389f9ee886137040&#45;&gt;dir_0981ace215aa2029f526b70c145b9fbe</title>
<g id="a_edge5"><a xlink:href="dir_000099_000249.html" target="_top">
<path fill="none" stroke="#63b8ff" d="M117.05,-75.53C151.9,-68.77 220.27,-54.74 287.36,-35.43"/>
<polygon fill="#63b8ff" stroke="#63b8ff" points="288.04,-38.88 296.66,-32.71 286.08,-32.16 288.04,-38.88"/>
</a>
</g>
<g id="a_edge5&#45;headlabel"><a xlink:href="dir_000099_000249.html" target="_top" xlink:title="5">
<text text-anchor="middle" x="286.84" y="-38.31" font-family="Helvetica,sans-Serif" font-size="10.00" fill="#63b8ff">5</text>
</a>
</g>
</g>
</g>
</svg>
