<?xml version="1.0" encoding="UTF-8" standalone="no"?>
<!DOCTYPE svg PUBLIC "-//W3C//DTD SVG 1.1//EN"
 "http://www.w3.org/Graphics/SVG/1.1/DTD/svg11.dtd">
<!-- Generated by graphviz version 2.44.0 ()
 -->
<!-- Title: ee/math3d/src Pages: 1 -->
<svg width="208pt" height="295pt"
 viewBox="0.00 0.00 207.65 295.00" xmlns="http://www.w3.org/2000/svg" xmlns:xlink="http://www.w3.org/1999/xlink">
<g id="graph0" class="graph" transform="scale(1 1) rotate(0) translate(4 291)">
<title>ee/math3d/src</title>
<polygon fill="white" stroke="transparent" points="-4,4 -4,-291 203.65,-291 203.65,4 -4,4"/>
<g id="clust1" class="cluster">
<title>clusterdir_ef61ae23abebf035898b2c6525d9b365</title>
<g id="a_clust1"><a xlink:href="dir_ef61ae23abebf035898b2c6525d9b365.html" target="_top" xlink:title="math3d">
<polygon fill="#ddddee" stroke="black" points="8,-136 8,-279 78,-279 78,-136 8,-136"/>
<text text-anchor="middle" x="43" y="-267" font-family="Helvetica,sans-Serif" font-size="10.00">math3d</text>
</a>
</g>
</g>
<!-- dir_b2ec982152147e07bc20d03fb22ae98b -->
<g id="node1" class="node">
<title>dir_b2ec982152147e07bc20d03fb22ae98b</title>
<g id="a_node1"><a xlink:href="dir_b2ec982152147e07bc20d03fb22ae98b.html" target="_top" xlink:title="include">
<polygon fill="none" stroke="black" points="70,-180 16,-180 16,-144 70,-144 70,-180"/>
<text text-anchor="middle" x="43" y="-159.5" font-family="Helvetica,sans-Serif" font-size="10.00">include</text>
</a>
</g>
</g>
<!-- dir_bdd9a5d540de89e9fe90efdfc6973a4f -->
<g id="node5" class="node">
<title>dir_bdd9a5d540de89e9fe90efdfc6973a4f</title>
<g id="a_node5"><a xlink:href="dir_bdd9a5d540de89e9fe90efdfc6973a4f.html" target="_top" xlink:title="common">
<polygon fill="white" stroke="red" points="152,-36 98,-36 98,0 152,0 152,-36"/>
<text text-anchor="middle" x="125" y="-15.5" font-family="Helvetica,sans-Serif" font-size="10.00">common</text>
</a>
</g>
</g>
<!-- dir_b2ec982152147e07bc20d03fb22ae98b&#45;&gt;dir_bdd9a5d540de89e9fe90efdfc6973a4f -->
<g id="edge8" class="edge">
<title>dir_b2ec982152147e07bc20d03fb22ae98b&#45;&gt;dir_bdd9a5d540de89e9fe90efdfc6973a4f</title>
<path fill="none" stroke="black" d="M43.41,-143.73C44.56,-124.86 48.58,-94.35 62,-72 68.91,-60.49 79.23,-50.3 89.52,-42"/>
<polygon fill="black" stroke="black" points="91.87,-44.61 97.71,-35.76 87.63,-39.04 91.87,-44.61"/>
<g id="a_edge8&#45;headlabel"><a xlink:href="dir_000229_000000.html" target="_top" xlink:title="1">
<text text-anchor="middle" x="90.74" y="-46.54" font-family="Helvetica,sans-Serif" font-size="10.00">1</text>
</a>
</g>
</g>
<!-- dir_cf43a48f832f5c6078b2594de76b351f -->
<g id="node2" class="node">
<title>dir_cf43a48f832f5c6078b2594de76b351f</title>
<g id="a_node2"><a xlink:href="dir_cf43a48f832f5c6078b2594de76b351f.html" target="_top" xlink:title="src">
<polygon fill="#eeeeff" stroke="black" points="70,-252 16,-252 16,-216 70,-216 70,-252"/>
<text text-anchor="middle" x="43" y="-231.5" font-family="Helvetica,sans-Serif" font-size="10.00">src</text>
</a>
</g>
</g>
<!-- dir_cf43a48f832f5c6078b2594de76b351f&#45;&gt;dir_b2ec982152147e07bc20d03fb22ae98b -->
<g id="edge6" class="edge">
<title>dir_cf43a48f832f5c6078b2594de76b351f&#45;&gt;dir_b2ec982152147e07bc20d03fb22ae98b</title>
<path fill="none" stroke="black" d="M43,-215.7C43,-207.98 43,-198.71 43,-190.11"/>
<polygon fill="black" stroke="black" points="46.5,-190.1 43,-180.1 39.5,-190.1 46.5,-190.1"/>
<g id="a_edge6&#45;headlabel"><a xlink:href="dir_000150_000229.html" target="_top" xlink:title="1">
<text text-anchor="middle" x="49.34" y="-191.2" font-family="Helvetica,sans-Serif" font-size="10.00">1</text>
</a>
</g>
</g>
<!-- dir_933591e1cd95ed33f946db8a4302cbd1 -->
<g id="node3" class="node">
<title>dir_933591e1cd95ed33f946db8a4302cbd1</title>
<g id="a_node3"><a xlink:href="dir_933591e1cd95ed33f946db8a4302cbd1.html" target="_top" xlink:title="graph">
<polygon fill="white" stroke="red" points="180,-180 126,-180 126,-144 180,-144 180,-180"/>
<text text-anchor="middle" x="153" y="-159.5" font-family="Helvetica,sans-Serif" font-size="10.00">graph</text>
</a>
</g>
</g>
<!-- dir_cf43a48f832f5c6078b2594de76b351f&#45;&gt;dir_933591e1cd95ed33f946db8a4302cbd1 -->
<g id="edge4" class="edge">
<title>dir_cf43a48f832f5c6078b2594de76b351f&#45;&gt;dir_933591e1cd95ed33f946db8a4302cbd1</title>
<path fill="none" stroke="black" d="M69.91,-215.88C84.16,-206.81 101.85,-195.55 117.24,-185.76"/>
<polygon fill="black" stroke="black" points="119.43,-188.51 125.99,-180.19 115.67,-182.61 119.43,-188.51"/>
<g id="a_edge4&#45;headlabel"><a xlink:href="dir_000150_000139.html" target="_top" xlink:title="1">
<text text-anchor="middle" x="117.92" y="-190.34" font-family="Helvetica,sans-Serif" font-size="10.00">1</text>
</a>
</g>
</g>
<!-- dir_a0a8ac7efb6662b749c1285408048e6d -->
<g id="node4" class="node">
<title>dir_a0a8ac7efb6662b749c1285408048e6d</title>
<g id="a_node4"><a xlink:href="dir_a0a8ac7efb6662b749c1285408048e6d.html" target="_top" xlink:title="erl">
<polygon fill="white" stroke="red" points="125,-108 71,-108 71,-72 125,-72 125,-108"/>
<text text-anchor="middle" x="98" y="-87.5" font-family="Helvetica,sans-Serif" font-size="10.00">erl</text>
</a>
</g>
</g>
<!-- dir_cf43a48f832f5c6078b2594de76b351f&#45;&gt;dir_a0a8ac7efb6662b749c1285408048e6d -->
<g id="edge5" class="edge">
<title>dir_cf43a48f832f5c6078b2594de76b351f&#45;&gt;dir_a0a8ac7efb6662b749c1285408048e6d</title>
<path fill="none" stroke="black" d="M57.16,-215.85C64.69,-205.93 73.5,-192.89 79,-180 87.41,-160.29 92.24,-136.49 94.93,-118.46"/>
<polygon fill="black" stroke="black" points="98.43,-118.71 96.3,-108.33 91.49,-117.76 98.43,-118.71"/>
<g id="a_edge5&#45;headlabel"><a xlink:href="dir_000150_000206.html" target="_top" xlink:title="1">
<text text-anchor="middle" x="100.76" y="-120.15" font-family="Helvetica,sans-Serif" font-size="10.00">1</text>
</a>
</g>
</g>
<!-- dir_cf43a48f832f5c6078b2594de76b351f&#45;&gt;dir_bdd9a5d540de89e9fe90efdfc6973a4f -->
<g id="edge7" class="edge">
<title>dir_cf43a48f832f5c6078b2594de76b351f&#45;&gt;dir_bdd9a5d540de89e9fe90efdfc6973a4f</title>
<path fill="none" stroke="black" d="M70.05,-232C104.3,-229.1 162.07,-218.42 189,-180 219.37,-136.67 177.79,-76.88 148.8,-43.7"/>
<polygon fill="black" stroke="black" points="151.39,-41.35 142.11,-36.25 146.19,-46.03 151.39,-41.35"/>
<g id="a_edge7&#45;headlabel"><a xlink:href="dir_000150_000000.html" target="_top" xlink:title="1">
<text text-anchor="middle" x="155.91" y="-39.63" font-family="Helvetica,sans-Serif" font-size="10.00">1</text>
</a>
</g>
</g>
<!-- dir_933591e1cd95ed33f946db8a4302cbd1&#45;&gt;dir_a0a8ac7efb6662b749c1285408048e6d -->
<g id="edge2" class="edge">
<title>dir_933591e1cd95ed33f946db8a4302cbd1&#45;&gt;dir_a0a8ac7efb6662b749c1285408048e6d</title>
<path fill="none" stroke="black" d="M139.4,-143.7C132.88,-135.39 124.93,-125.28 117.75,-116.14"/>
<polygon fill="black" stroke="black" points="120.37,-113.81 111.44,-108.1 114.87,-118.13 120.37,-113.81"/>
<g id="a_edge2&#45;headlabel"><a xlink:href="dir_000139_000206.html" target="_top" xlink:title="1">
<text text-anchor="middle" x="124.82" y="-112.38" font-family="Helvetica,sans-Serif" font-size="10.00">1</text>
</a>
</g>
</g>
<!-- dir_933591e1cd95ed33f946db8a4302cbd1&#45;&gt;dir_bdd9a5d540de89e9fe90efdfc6973a4f -->
<g id="edge3" class="edge">
<title>dir_933591e1cd95ed33f946db8a4302cbd1&#45;&gt;dir_bdd9a5d540de89e9fe90efdfc6973a4f</title>
<path fill="none" stroke="black" d="M149.62,-143.87C144.83,-119.56 136.01,-74.82 130.33,-46.01"/>
<polygon fill="black" stroke="black" points="133.76,-45.32 128.39,-36.19 126.89,-46.68 133.76,-45.32"/>
<g id="a_edge3&#45;headlabel"><a xlink:href="dir_000139_000000.html" target="_top" xlink:title="4">
<text text-anchor="middle" x="137.24" y="-45.8" font-family="Helvetica,sans-Serif" font-size="10.00">4</text>
</a>
</g>
</g>
<!-- dir_a0a8ac7efb6662b749c1285408048e6d&#45;&gt;dir_bdd9a5d540de89e9fe90efdfc6973a4f -->
<g id="edge1" class="edge">
<title>dir_a0a8ac7efb6662b749c1285408048e6d&#45;&gt;dir_bdd9a5d540de89e9fe90efdfc6973a4f</title>
<path fill="none" stroke="black" d="M104.67,-71.7C107.71,-63.81 111.38,-54.3 114.76,-45.55"/>
<polygon fill="black" stroke="black" points="118.07,-46.69 118.4,-36.1 111.54,-44.17 118.07,-46.69"/>
<g id="a_edge1&#45;headlabel"><a xlink:href="dir_000206_000000.html" target="_top" xlink:title="1">
<text text-anchor="middle" x="119.42" y="-48.57" font-family="Helvetica,sans-Serif" font-size="10.00">1</text>
</a>
</g>
</g>
</g>
</svg>
