<?xml version="1.0" encoding="UTF-8" standalone="no"?>
<!DOCTYPE svg PUBLIC "-//W3C//DTD SVG 1.1//EN"
 "http://www.w3.org/Graphics/SVG/1.1/DTD/svg11.dtd">
<!-- Generated by graphviz version 9.0.0 (20230911.1827)
 -->
<!-- Title: iop/usb/usbd Pages: 1 -->
<svg width="205pt" height="181pt"
 viewBox="0.00 0.00 204.64 181.00" xmlns="http://www.w3.org/2000/svg" xmlns:xlink="http://www.w3.org/1999/xlink">
<g id="graph0" class="graph" transform="scale(1 1) rotate(0) translate(4 177)">
<title>iop/usb/usbd</title>
<g id="clust1" class="cluster">
<title>clusterdir_b6c875632944d243a548db157cd77ec2</title>
<g id="a_clust1"><a xlink:href="dir_b6c875632944d243a548db157cd77ec2.html" target="_top" xlink:title="usb">
<polygon fill="#deebf9" stroke="#7f7f7f" stroke-dasharray="5,2" points="8,-39.25 8,-165 125,-165 125,-39.25 8,-39.25"/>
<text text-anchor="middle" x="66.5" y="-151.5" font-family="Helvetica,sans-Serif" font-size="10.00">usb</text>
</a>
</g>
</g>
<g id="clust2" class="cluster">
<title>clusterdir_8f550b51c304fe10978bfd792866fae2</title>
<g id="a_clust2"><a xlink:href="dir_8f550b51c304fe10978bfd792866fae2.html" target="_top">
<polygon fill="#deebf9" stroke="#404040" stroke-width="2" points="16,-47.25 16,-137.75 117,-137.75 117,-47.25 16,-47.25"/>
</a>
</g>
</g>
<!-- dir_8f550b51c304fe10978bfd792866fae2 -->
<g id="node1" class="node">
<title>dir_8f550b51c304fe10978bfd792866fae2</title>
<text text-anchor="middle" x="90" y="-116.25" font-family="Helvetica,sans-Serif" font-size="10.00">usbd</text>
</g>
<!-- dir_345d8429d3cb3ccd32f3e92029247ace -->
<g id="node2" class="node">
<title>dir_345d8429d3cb3ccd32f3e92029247ace</title>
<g id="a_node2"><a xlink:href="dir_345d8429d3cb3ccd32f3e92029247ace.html" target="_top" xlink:title="include">
<polygon fill="#60a2e3" stroke="#404040" points="89.38,-74.5 42.62,-74.5 42.62,-55.25 89.38,-55.25 89.38,-74.5"/>
<text text-anchor="middle" x="66" y="-61" font-family="Helvetica,sans-Serif" font-size="10.00">include</text>
</a>
</g>
</g>
<!-- dir_9be0baa3d4a3e9f480a9ee70594037fa -->
<g id="node5" class="node">
<title>dir_9be0baa3d4a3e9f480a9ee70594037fa</title>
<g id="a_node5"><a xlink:href="dir_9be0baa3d4a3e9f480a9ee70594037fa.html" target="_top" xlink:title="kernel">
<polygon fill="#deebf9" stroke="red" stroke-dasharray="5,2" points="158.12,-19.25 115.88,-19.25 115.88,0 158.12,0 158.12,-19.25"/>
<text text-anchor="middle" x="137" y="-5.75" font-family="Helvetica,sans-Serif" font-size="10.00">kernel</text>
</a>
</g>
</g>
<!-- dir_345d8429d3cb3ccd32f3e92029247ace&#45;&gt;dir_9be0baa3d4a3e9f480a9ee70594037fa -->
<g id="edge1" class="edge">
<title>dir_345d8429d3cb3ccd32f3e92029247ace&#45;&gt;dir_9be0baa3d4a3e9f480a9ee70594037fa</title>
<g id="a_edge1"><a xlink:href="dir_000224_000239.html" target="_top">
<path fill="none" stroke="#63b8ff" d="M78.04,-54.84C88.41,-47.07 103.6,-35.67 115.97,-26.4"/>
<polygon fill="#63b8ff" stroke="#63b8ff" points="118.02,-29.23 123.92,-20.43 113.82,-23.63 118.02,-29.23"/>
</a>
</g>
<g id="a_edge1&#45;headlabel"><a xlink:href="dir_000224_000239.html" target="_top" xlink:title="1">
<text text-anchor="middle" x="118.06" y="-28.88" font-family="Helvetica,sans-Serif" font-size="10.00" fill="#63b8ff">1</text>
</a>
</g>
</g>
<!-- dir_30406d93c31043602a8c1a1e1e4c9b2e -->
<g id="node3" class="node">
<title>dir_30406d93c31043602a8c1a1e1e4c9b2e</title>
<g id="a_node3"><a xlink:href="dir_30406d93c31043602a8c1a1e1e4c9b2e.html" target="_top" xlink:title="src">
<polygon fill="#60a2e3" stroke="#404040" points="53.75,-129.75 24.25,-129.75 24.25,-110.5 53.75,-110.5 53.75,-129.75"/>
<text text-anchor="middle" x="39" y="-116.25" font-family="Helvetica,sans-Serif" font-size="10.00">src</text>
</a>
</g>
</g>
<!-- dir_30406d93c31043602a8c1a1e1e4c9b2e&#45;&gt;dir_345d8429d3cb3ccd32f3e92029247ace -->
<g id="edge2" class="edge">
<title>dir_30406d93c31043602a8c1a1e1e4c9b2e&#45;&gt;dir_345d8429d3cb3ccd32f3e92029247ace</title>
<g id="a_edge2"><a xlink:href="dir_000493_000224.html" target="_top">
<path fill="none" stroke="#63b8ff" d="M43.46,-110.33C46.95,-103.44 51.95,-93.59 56.35,-84.91"/>
<polygon fill="#63b8ff" stroke="#63b8ff" points="59.36,-86.71 60.76,-76.21 53.12,-83.55 59.36,-86.71"/>
</a>
</g>
<g id="a_edge2&#45;headlabel"><a xlink:href="dir_000493_000224.html" target="_top" xlink:title="1">
<text text-anchor="middle" x="60.95" y="-85.98" font-family="Helvetica,sans-Serif" font-size="10.00" fill="#63b8ff">1</text>
</a>
</g>
</g>
<!-- dir_40ac35421bc63b72c26b6c69b1517fd6 -->
<g id="node4" class="node">
<title>dir_40ac35421bc63b72c26b6c69b1517fd6</title>
<g id="a_node4"><a xlink:href="dir_40ac35421bc63b72c26b6c69b1517fd6.html" target="_top" xlink:title="system">
<polygon fill="#deebf9" stroke="red" stroke-dasharray="5,2" points="180.75,-74.5 133.25,-74.5 133.25,-55.25 180.75,-55.25 180.75,-74.5"/>
<text text-anchor="middle" x="157" y="-61" font-family="Helvetica,sans-Serif" font-size="10.00">system</text>
</a>
</g>
</g>
<!-- dir_30406d93c31043602a8c1a1e1e4c9b2e&#45;&gt;dir_40ac35421bc63b72c26b6c69b1517fd6 -->
<g id="edge3" class="edge">
<title>dir_30406d93c31043602a8c1a1e1e4c9b2e&#45;&gt;dir_40ac35421bc63b72c26b6c69b1517fd6</title>
<g id="a_edge3"><a xlink:href="dir_000493_000515.html" target="_top">
<path fill="none" stroke="#63b8ff" d="M53.94,-112.38C72.15,-104.17 103.35,-90.09 126.66,-79.57"/>
<polygon fill="#63b8ff" stroke="#63b8ff" points="128.01,-82.8 135.68,-75.49 125.13,-76.42 128.01,-82.8"/>
</a>
</g>
<g id="a_edge3&#45;headlabel"><a xlink:href="dir_000493_000515.html" target="_top" xlink:title="8">
<text text-anchor="middle" x="127.28" y="-82.37" font-family="Helvetica,sans-Serif" font-size="10.00" fill="#63b8ff">8</text>
</a>
</g>
</g>
<!-- dir_30406d93c31043602a8c1a1e1e4c9b2e&#45;&gt;dir_9be0baa3d4a3e9f480a9ee70594037fa -->
<g id="edge4" class="edge">
<title>dir_30406d93c31043602a8c1a1e1e4c9b2e&#45;&gt;dir_9be0baa3d4a3e9f480a9ee70594037fa</title>
<g id="a_edge4"><a xlink:href="dir_000493_000239.html" target="_top">
<path fill="none" stroke="#63b8ff" d="M54.18,-113.49C57.1,-112.46 60.13,-111.42 63,-110.5 118.86,-92.57 154.62,-121.3 190,-74.5 199.45,-62 198.03,-52.71 190,-39.25 185.18,-31.17 177.2,-25.23 168.87,-20.93"/>
<polygon fill="#63b8ff" stroke="#63b8ff" points="170.31,-17.73 159.74,-16.92 167.5,-24.15 170.31,-17.73"/>
</a>
</g>
<g id="a_edge4&#45;headlabel"><a xlink:href="dir_000493_000239.html" target="_top" xlink:title="2">
<text text-anchor="middle" x="173.35" y="-12.1" font-family="Helvetica,sans-Serif" font-size="10.00" fill="#63b8ff">2</text>
</a>
</g>
</g>
</g>
</svg>
