<?xml version="1.0" encoding="UTF-8" standalone="no"?>
<!DOCTYPE svg PUBLIC "-//W3C//DTD SVG 1.1//EN"
 "http://www.w3.org/Graphics/SVG/1.1/DTD/svg11.dtd">
<!-- Generated by graphviz version 2.44.0 ()
 -->
<!-- Title: iop/sio/mx4sio_bd Pages: 1 -->
<svg width="212pt" height="375pt"
 viewBox="0.00 0.00 212.00 375.00" xmlns="http://www.w3.org/2000/svg" xmlns:xlink="http://www.w3.org/1999/xlink">
<g id="graph0" class="graph" transform="scale(1 1) rotate(0) translate(4 371)">
<title>iop/sio/mx4sio_bd</title>
<polygon fill="white" stroke="transparent" points="-4,4 -4,-371 208,-371 208,4 -4,4"/>
<g id="clust1" class="cluster">
<title>clusterdir_6133ef156cce03413acfdeebec722ba1</title>
<g id="a_clust1"><a xlink:href="dir_6133ef156cce03413acfdeebec722ba1.html" target="_top" xlink:title="sio">
<polygon fill="#ddddee" stroke="black" points="28,-272 28,-359 196,-359 196,-272 28,-272"/>
<text text-anchor="middle" x="112" y="-347" font-family="Helvetica,sans-Serif" font-size="10.00">sio</text>
</a>
</g>
</g>
<g id="clust2" class="cluster">
<title>clusterdir_1b4c53ad4cba67b900d09766188e54d5</title>
<g id="a_clust2"><a xlink:href="dir_1b4c53ad4cba67b900d09766188e54d5.html" target="_top">
<polygon fill="#eeeeff" stroke="black" points="36,-280 36,-332 188,-332 188,-280 36,-280"/>
</a>
</g>
</g>
<!-- dir_1b4c53ad4cba67b900d09766188e54d5 -->
<g id="node1" class="node">
<title>dir_1b4c53ad4cba67b900d09766188e54d5</title>
<text text-anchor="middle" x="148" y="-303.5" font-family="Helvetica,sans-Serif" font-size="10.00">mx4sio_bd</text>
</g>
<!-- dir_8f4cc36d3d091528309542afe6a411b5 -->
<g id="node2" class="node">
<title>dir_8f4cc36d3d091528309542afe6a411b5</title>
<g id="a_node2"><a xlink:href="dir_8f4cc36d3d091528309542afe6a411b5.html" target="_top" xlink:title="src">
<polygon fill="white" stroke="black" points="98,-324 44,-324 44,-288 98,-288 98,-324"/>
<text text-anchor="middle" x="71" y="-303.5" font-family="Helvetica,sans-Serif" font-size="10.00">src</text>
</a>
</g>
</g>
<!-- dir_9be0baa3d4a3e9f480a9ee70594037fa -->
<g id="node3" class="node">
<title>dir_9be0baa3d4a3e9f480a9ee70594037fa</title>
<g id="a_node3"><a xlink:href="dir_9be0baa3d4a3e9f480a9ee70594037fa.html" target="_top" xlink:title="kernel">
<polygon fill="white" stroke="red" points="71,-180 17,-180 17,-144 71,-144 71,-180"/>
<text text-anchor="middle" x="44" y="-159.5" font-family="Helvetica,sans-Serif" font-size="10.00">kernel</text>
</a>
</g>
</g>
<!-- dir_8f4cc36d3d091528309542afe6a411b5&#45;&gt;dir_9be0baa3d4a3e9f480a9ee70594037fa -->
<g id="edge9" class="edge">
<title>dir_8f4cc36d3d091528309542afe6a411b5&#45;&gt;dir_9be0baa3d4a3e9f480a9ee70594037fa</title>
<path fill="none" stroke="black" d="M67.74,-287.87C63.14,-263.67 54.69,-219.21 49.21,-190.39"/>
<polygon fill="black" stroke="black" points="52.57,-189.36 47.27,-180.19 45.7,-190.67 52.57,-189.36"/>
<g id="a_edge9&#45;headlabel"><a xlink:href="dir_000079_000214.html" target="_top" xlink:title="23">
<text text-anchor="middle" x="56.04" y="-189.86" font-family="Helvetica,sans-Serif" font-size="10.00">23</text>
</a>
</g>
</g>
<!-- dir_f24daea2522ffa8b6dc5fa9cdf5b8f5c -->
<g id="node4" class="node">
<title>dir_f24daea2522ffa8b6dc5fa9cdf5b8f5c</title>
<g id="a_node4"><a xlink:href="dir_f24daea2522ffa8b6dc5fa9cdf5b8f5c.html" target="_top" xlink:title="fs">
<polygon fill="white" stroke="red" points="126,-252 72,-252 72,-216 126,-216 126,-252"/>
<text text-anchor="middle" x="99" y="-231.5" font-family="Helvetica,sans-Serif" font-size="10.00">fs</text>
</a>
</g>
</g>
<!-- dir_8f4cc36d3d091528309542afe6a411b5&#45;&gt;dir_f24daea2522ffa8b6dc5fa9cdf5b8f5c -->
<g id="edge11" class="edge">
<title>dir_8f4cc36d3d091528309542afe6a411b5&#45;&gt;dir_f24daea2522ffa8b6dc5fa9cdf5b8f5c</title>
<path fill="none" stroke="black" d="M77.92,-287.7C81.07,-279.81 84.88,-270.3 88.38,-261.55"/>
<polygon fill="black" stroke="black" points="91.69,-262.69 92.16,-252.1 85.19,-260.09 91.69,-262.69"/>
<g id="a_edge11&#45;headlabel"><a xlink:href="dir_000079_000035.html" target="_top" xlink:title="2">
<text text-anchor="middle" x="93" y="-264.58" font-family="Helvetica,sans-Serif" font-size="10.00">2</text>
</a>
</g>
</g>
<!-- dir_40ac35421bc63b72c26b6c69b1517fd6 -->
<g id="node5" class="node">
<title>dir_40ac35421bc63b72c26b6c69b1517fd6</title>
<g id="a_node5"><a xlink:href="dir_40ac35421bc63b72c26b6c69b1517fd6.html" target="_top" xlink:title="system">
<polygon fill="white" stroke="red" points="118,-108 64,-108 64,-72 118,-72 118,-108"/>
<text text-anchor="middle" x="91" y="-87.5" font-family="Helvetica,sans-Serif" font-size="10.00">system</text>
</a>
</g>
</g>
<!-- dir_8f4cc36d3d091528309542afe6a411b5&#45;&gt;dir_40ac35421bc63b72c26b6c69b1517fd6 -->
<g id="edge8" class="edge">
<title>dir_8f4cc36d3d091528309542afe6a411b5&#45;&gt;dir_40ac35421bc63b72c26b6c69b1517fd6</title>
<path fill="none" stroke="black" d="M88.93,-287.77C94.59,-282.55 100.94,-276.91 107,-272 118.88,-262.37 128,-265.6 135,-252 157.91,-207.49 129.86,-149.73 109.2,-116.88"/>
<polygon fill="black" stroke="black" points="112,-114.78 103.61,-108.3 106.14,-118.59 112,-114.78"/>
<g id="a_edge8&#45;headlabel"><a xlink:href="dir_000079_000089.html" target="_top" xlink:title="1">
<text text-anchor="middle" x="116.34" y="-113.74" font-family="Helvetica,sans-Serif" font-size="10.00">1</text>
</a>
</g>
</g>
<!-- dir_bdd9a5d540de89e9fe90efdfc6973a4f -->
<g id="node6" class="node">
<title>dir_bdd9a5d540de89e9fe90efdfc6973a4f</title>
<g id="a_node6"><a xlink:href="dir_bdd9a5d540de89e9fe90efdfc6973a4f.html" target="_top" xlink:title="common">
<polygon fill="white" stroke="red" points="54,-36 0,-36 0,0 54,0 54,-36"/>
<text text-anchor="middle" x="27" y="-15.5" font-family="Helvetica,sans-Serif" font-size="10.00">common</text>
</a>
</g>
</g>
<!-- dir_8f4cc36d3d091528309542afe6a411b5&#45;&gt;dir_bdd9a5d540de89e9fe90efdfc6973a4f -->
<g id="edge10" class="edge">
<title>dir_8f4cc36d3d091528309542afe6a411b5&#45;&gt;dir_bdd9a5d540de89e9fe90efdfc6973a4f</title>
<path fill="none" stroke="black" d="M59.02,-287.8C43.66,-264.6 17.84,-221.37 8,-180 -3.04,-133.55 8.89,-77.96 18.2,-45.75"/>
<polygon fill="black" stroke="black" points="21.56,-46.73 21.1,-36.15 14.86,-44.71 21.56,-46.73"/>
<g id="a_edge10&#45;headlabel"><a xlink:href="dir_000079_000000.html" target="_top" xlink:title="2">
<text text-anchor="middle" x="23.24" y="-48.49" font-family="Helvetica,sans-Serif" font-size="10.00">2</text>
</a>
</g>
</g>
<!-- dir_9be0baa3d4a3e9f480a9ee70594037fa&#45;&gt;dir_40ac35421bc63b72c26b6c69b1517fd6 -->
<g id="edge1" class="edge">
<title>dir_9be0baa3d4a3e9f480a9ee70594037fa&#45;&gt;dir_40ac35421bc63b72c26b6c69b1517fd6</title>
<path fill="none" stroke="black" d="M49.7,-143.7C54.42,-135.39 61.02,-125.28 67.61,-116.14"/>
<polygon fill="black" stroke="black" points="70.44,-118.21 73.62,-108.1 64.83,-114.02 70.44,-118.21"/>
<g id="a_edge1&#45;headlabel"><a xlink:href="dir_000214_000089.html" target="_top" xlink:title="2">
<text text-anchor="middle" x="70.56" y="-120.29" font-family="Helvetica,sans-Serif" font-size="10.00">2</text>
</a>
</g>
</g>
<!-- dir_9be0baa3d4a3e9f480a9ee70594037fa&#45;&gt;dir_bdd9a5d540de89e9fe90efdfc6973a4f -->
<g id="edge2" class="edge">
<title>dir_9be0baa3d4a3e9f480a9ee70594037fa&#45;&gt;dir_bdd9a5d540de89e9fe90efdfc6973a4f</title>
<path fill="none" stroke="black" d="M37.36,-143.87C31.91,-119.67 26.3,-75.21 24.82,-46.39"/>
<polygon fill="black" stroke="black" points="28.31,-46.06 24.47,-36.19 21.32,-46.3 28.31,-46.06"/>
<g id="a_edge2&#45;headlabel"><a xlink:href="dir_000214_000000.html" target="_top" xlink:title="12">
<text text-anchor="middle" x="31.27" y="-47.06" font-family="Helvetica,sans-Serif" font-size="10.00">12</text>
</a>
</g>
</g>
<!-- dir_f24daea2522ffa8b6dc5fa9cdf5b8f5c&#45;&gt;dir_9be0baa3d4a3e9f480a9ee70594037fa -->
<g id="edge5" class="edge">
<title>dir_f24daea2522ffa8b6dc5fa9cdf5b8f5c&#45;&gt;dir_9be0baa3d4a3e9f480a9ee70594037fa</title>
<path fill="none" stroke="black" d="M85.4,-215.7C78.88,-207.39 70.93,-197.28 63.75,-188.14"/>
<polygon fill="black" stroke="black" points="66.37,-185.81 57.44,-180.1 60.87,-190.13 66.37,-185.81"/>
<g id="a_edge5&#45;headlabel"><a xlink:href="dir_000035_000214.html" target="_top" xlink:title="144">
<text text-anchor="middle" x="70.82" y="-184.38" font-family="Helvetica,sans-Serif" font-size="10.00">144</text>
</a>
</g>
</g>
<!-- dir_f24daea2522ffa8b6dc5fa9cdf5b8f5c&#45;&gt;dir_40ac35421bc63b72c26b6c69b1517fd6 -->
<g id="edge7" class="edge">
<title>dir_f24daea2522ffa8b6dc5fa9cdf5b8f5c&#45;&gt;dir_40ac35421bc63b72c26b6c69b1517fd6</title>
<path fill="none" stroke="black" d="M98.04,-215.87C96.67,-191.67 94.17,-147.21 92.54,-118.39"/>
<polygon fill="black" stroke="black" points="96.03,-117.98 91.97,-108.19 89.04,-118.37 96.03,-117.98"/>
<g id="a_edge7&#45;headlabel"><a xlink:href="dir_000035_000089.html" target="_top" xlink:title="3">
<text text-anchor="middle" x="99.06" y="-118.91" font-family="Helvetica,sans-Serif" font-size="10.00">3</text>
</a>
</g>
</g>
<!-- dir_f24daea2522ffa8b6dc5fa9cdf5b8f5c&#45;&gt;dir_bdd9a5d540de89e9fe90efdfc6973a4f -->
<g id="edge6" class="edge">
<title>dir_f24daea2522ffa8b6dc5fa9cdf5b8f5c&#45;&gt;dir_bdd9a5d540de89e9fe90efdfc6973a4f</title>
<path fill="none" stroke="black" d="M109.17,-215.62C125.91,-184.5 154.79,-118.19 127,-72 113.32,-49.27 86.25,-35.77 63.73,-28.09"/>
<polygon fill="black" stroke="black" points="64.67,-24.72 54.08,-25.05 62.57,-31.4 64.67,-24.72"/>
<g id="a_edge6&#45;headlabel"><a xlink:href="dir_000035_000000.html" target="_top" xlink:title="9">
<text text-anchor="middle" x="68.95" y="-20.59" font-family="Helvetica,sans-Serif" font-size="10.00">9</text>
</a>
</g>
</g>
<!-- dir_40ac35421bc63b72c26b6c69b1517fd6&#45;&gt;dir_9be0baa3d4a3e9f480a9ee70594037fa -->
<g id="edge3" class="edge">
<title>dir_40ac35421bc63b72c26b6c69b1517fd6&#45;&gt;dir_9be0baa3d4a3e9f480a9ee70594037fa</title>
<path fill="none" stroke="black" d="M85.41,-108.1C80.72,-116.38 74.14,-126.49 67.54,-135.64"/>
<polygon fill="black" stroke="black" points="64.71,-133.59 61.53,-143.7 70.32,-137.77 64.71,-133.59"/>
<g id="a_edge3&#45;headlabel"><a xlink:href="dir_000089_000214.html" target="_top" xlink:title="176">
<text text-anchor="middle" x="64.58" y="-126.51" font-family="Helvetica,sans-Serif" font-size="10.00">176</text>
</a>
</g>
</g>
<!-- dir_40ac35421bc63b72c26b6c69b1517fd6&#45;&gt;dir_bdd9a5d540de89e9fe90efdfc6973a4f -->
<g id="edge4" class="edge">
<title>dir_40ac35421bc63b72c26b6c69b1517fd6&#45;&gt;dir_bdd9a5d540de89e9fe90efdfc6973a4f</title>
<path fill="none" stroke="black" d="M75.18,-71.7C67.43,-63.22 57.96,-52.86 49.48,-43.58"/>
<polygon fill="black" stroke="black" points="51.97,-41.12 42.64,-36.1 46.8,-45.85 51.97,-41.12"/>
<g id="a_edge4&#45;headlabel"><a xlink:href="dir_000089_000000.html" target="_top" xlink:title="3">
<text text-anchor="middle" x="56.49" y="-39.36" font-family="Helvetica,sans-Serif" font-size="10.00">3</text>
</a>
</g>
</g>
<!-- dir_bdd9a5d540de89e9fe90efdfc6973a4f&#45;&gt;dir_9be0baa3d4a3e9f480a9ee70594037fa -->
<g id="edge12" class="edge">
<title>dir_bdd9a5d540de89e9fe90efdfc6973a4f&#45;&gt;dir_9be0baa3d4a3e9f480a9ee70594037fa</title>
<path fill="none" stroke="black" d="M33.65,-36.19C39.1,-60.42 44.72,-104.89 46.18,-133.68"/>
<polygon fill="black" stroke="black" points="42.69,-134 46.53,-143.87 49.69,-133.76 42.69,-134"/>
<g id="a_edge12&#45;headlabel"><a xlink:href="dir_000000_000214.html" target="_top" xlink:title="20">
<text text-anchor="middle" x="39.73" y="-128" font-family="Helvetica,sans-Serif" font-size="10.00">20</text>
</a>
</g>
</g>
</g>
</svg>
