<?xml version="1.0" encoding="UTF-8" standalone="no"?>
<!DOCTYPE svg PUBLIC "-//W3C//DTD SVG 1.1//EN"
 "http://www.w3.org/Graphics/SVG/1.1/DTD/svg11.dtd">
<!-- Generated by graphviz version 2.44.0 ()
 -->
<!-- Title: ee/eedebug Pages: 1 -->
<svg width="318pt" height="247pt"
 viewBox="0.00 0.00 318.00 247.00" xmlns="http://www.w3.org/2000/svg" xmlns:xlink="http://www.w3.org/1999/xlink">
<g id="graph0" class="graph" transform="scale(1 1) rotate(0) translate(4 243)">
<title>ee/eedebug</title>
<polygon fill="white" stroke="transparent" points="-4,4 -4,-243 314,-243 314,4 -4,4"/>
<g id="clust1" class="cluster">
<title>clusterdir_049738f1909e8dc3e45fe1f6b3faa109</title>
<g id="a_clust1"><a xlink:href="dir_049738f1909e8dc3e45fe1f6b3faa109.html" target="_top" xlink:title="ee">
<polygon fill="#ddddee" stroke="black" points="8,-8 8,-231 248,-231 248,-8 8,-8"/>
<text text-anchor="middle" x="128" y="-219" font-family="Helvetica,sans-Serif" font-size="10.00">ee</text>
</a>
</g>
</g>
<g id="clust2" class="cluster">
<title>clusterdir_650207f478e190855aca53e9453b1a94</title>
<g id="a_clust2"><a xlink:href="dir_650207f478e190855aca53e9453b1a94.html" target="_top">
<polygon fill="#eeeeff" stroke="black" points="98,-80 98,-204 240,-204 240,-80 98,-80"/>
</a>
</g>
</g>
<!-- dir_694ec83a64f58cbdefbefce65cd1011c -->
<g id="node1" class="node">
<title>dir_694ec83a64f58cbdefbefce65cd1011c</title>
<g id="a_node1"><a xlink:href="dir_694ec83a64f58cbdefbefce65cd1011c.html" target="_top" xlink:title="kernel">
<polygon fill="white" stroke="red" points="90,-124 36,-124 36,-88 90,-88 90,-124"/>
<text text-anchor="middle" x="63" y="-103.5" font-family="Helvetica,sans-Serif" font-size="10.00">kernel</text>
</a>
</g>
</g>
<!-- dir_a0a8ac7efb6662b749c1285408048e6d -->
<g id="node2" class="node">
<title>dir_a0a8ac7efb6662b749c1285408048e6d</title>
<g id="a_node2"><a xlink:href="dir_a0a8ac7efb6662b749c1285408048e6d.html" target="_top" xlink:title="erl">
<polygon fill="white" stroke="red" points="90,-52 36,-52 36,-16 90,-16 90,-52"/>
<text text-anchor="middle" x="63" y="-31.5" font-family="Helvetica,sans-Serif" font-size="10.00">erl</text>
</a>
</g>
</g>
<!-- dir_694ec83a64f58cbdefbefce65cd1011c&#45;&gt;dir_a0a8ac7efb6662b749c1285408048e6d -->
<g id="edge7" class="edge">
<title>dir_694ec83a64f58cbdefbefce65cd1011c&#45;&gt;dir_a0a8ac7efb6662b749c1285408048e6d</title>
<path fill="none" stroke="black" d="M63,-87.7C63,-79.98 63,-70.71 63,-62.11"/>
<polygon fill="black" stroke="black" points="66.5,-62.1 63,-52.1 59.5,-62.1 66.5,-62.1"/>
<g id="a_edge7&#45;headlabel"><a xlink:href="dir_000143_000206.html" target="_top" xlink:title="1">
<text text-anchor="middle" x="69.34" y="-63.2" font-family="Helvetica,sans-Serif" font-size="10.00">1</text>
</a>
</g>
</g>
<!-- dir_bdd9a5d540de89e9fe90efdfc6973a4f -->
<g id="node6" class="node">
<title>dir_bdd9a5d540de89e9fe90efdfc6973a4f</title>
<g id="a_node6"><a xlink:href="dir_bdd9a5d540de89e9fe90efdfc6973a4f.html" target="_top" xlink:title="common">
<polygon fill="white" stroke="red" points="310,-52 256,-52 256,-16 310,-16 310,-52"/>
<text text-anchor="middle" x="283" y="-31.5" font-family="Helvetica,sans-Serif" font-size="10.00">common</text>
</a>
</g>
</g>
<!-- dir_694ec83a64f58cbdefbefce65cd1011c&#45;&gt;dir_bdd9a5d540de89e9fe90efdfc6973a4f -->
<g id="edge6" class="edge">
<title>dir_694ec83a64f58cbdefbefce65cd1011c&#45;&gt;dir_bdd9a5d540de89e9fe90efdfc6973a4f</title>
<path fill="none" stroke="black" d="M72.52,-87.76C76.28,-84.78 80.59,-82 85,-80 149.91,-50.46 175.73,-75.68 243,-52 244.2,-51.58 245.42,-51.11 246.64,-50.61"/>
<polygon fill="black" stroke="black" points="248.39,-53.65 255.99,-46.27 245.44,-47.3 248.39,-53.65"/>
<g id="a_edge6&#45;headlabel"><a xlink:href="dir_000143_000000.html" target="_top" xlink:title="24">
<text text-anchor="middle" x="246.32" y="-55.24" font-family="Helvetica,sans-Serif" font-size="10.00">24</text>
</a>
</g>
</g>
<!-- dir_a0a8ac7efb6662b749c1285408048e6d&#45;&gt;dir_bdd9a5d540de89e9fe90efdfc6973a4f -->
<g id="edge1" class="edge">
<title>dir_a0a8ac7efb6662b749c1285408048e6d&#45;&gt;dir_bdd9a5d540de89e9fe90efdfc6973a4f</title>
<path fill="none" stroke="black" d="M90.07,-34C141.99,-34 193.91,-34 245.83,-34"/>
<polygon fill="black" stroke="black" points="245.87,-37.5 255.87,-34 245.87,-30.5 245.87,-37.5"/>
<g id="a_edge1&#45;headlabel"><a xlink:href="dir_000206_000000.html" target="_top" xlink:title="1">
<text text-anchor="middle" x="242.27" y="-37.84" font-family="Helvetica,sans-Serif" font-size="10.00">1</text>
</a>
</g>
</g>
<!-- dir_650207f478e190855aca53e9453b1a94 -->
<g id="node3" class="node">
<title>dir_650207f478e190855aca53e9453b1a94</title>
<text text-anchor="middle" x="205" y="-175.5" font-family="Helvetica,sans-Serif" font-size="10.00">eedebug</text>
</g>
<!-- dir_60b92096f37991a4061e29e96b6ea950 -->
<g id="node4" class="node">
<title>dir_60b92096f37991a4061e29e96b6ea950</title>
<g id="a_node4"><a xlink:href="dir_60b92096f37991a4061e29e96b6ea950.html" target="_top" xlink:title="include">
<polygon fill="white" stroke="black" points="197,-124 143,-124 143,-88 197,-88 197,-124"/>
<text text-anchor="middle" x="170" y="-103.5" font-family="Helvetica,sans-Serif" font-size="10.00">include</text>
</a>
</g>
</g>
<!-- dir_60b92096f37991a4061e29e96b6ea950&#45;&gt;dir_bdd9a5d540de89e9fe90efdfc6973a4f -->
<g id="edge5" class="edge">
<title>dir_60b92096f37991a4061e29e96b6ea950&#45;&gt;dir_bdd9a5d540de89e9fe90efdfc6973a4f</title>
<path fill="none" stroke="black" d="M197.07,-88.23C212.05,-78.95 230.87,-67.29 247.07,-57.26"/>
<polygon fill="black" stroke="black" points="249.1,-60.11 255.76,-51.87 245.42,-54.16 249.1,-60.11"/>
<g id="a_edge5&#45;headlabel"><a xlink:href="dir_000199_000000.html" target="_top" xlink:title="3">
<text text-anchor="middle" x="247.54" y="-61.92" font-family="Helvetica,sans-Serif" font-size="10.00">3</text>
</a>
</g>
</g>
<!-- dir_60c0b0581c07fba9514a94139971315c -->
<g id="node5" class="node">
<title>dir_60c0b0581c07fba9514a94139971315c</title>
<g id="a_node5"><a xlink:href="dir_60c0b0581c07fba9514a94139971315c.html" target="_top" xlink:title="src">
<polygon fill="white" stroke="black" points="160,-196 106,-196 106,-160 160,-160 160,-196"/>
<text text-anchor="middle" x="133" y="-175.5" font-family="Helvetica,sans-Serif" font-size="10.00">src</text>
</a>
</g>
</g>
<!-- dir_60c0b0581c07fba9514a94139971315c&#45;&gt;dir_694ec83a64f58cbdefbefce65cd1011c -->
<g id="edge3" class="edge">
<title>dir_60c0b0581c07fba9514a94139971315c&#45;&gt;dir_694ec83a64f58cbdefbefce65cd1011c</title>
<path fill="none" stroke="black" d="M115.7,-159.7C107.14,-151.14 96.66,-140.66 87.3,-131.3"/>
<polygon fill="black" stroke="black" points="89.65,-128.7 80.1,-124.1 84.7,-133.65 89.65,-128.7"/>
<g id="a_edge3&#45;headlabel"><a xlink:href="dir_000136_000143.html" target="_top" xlink:title="1">
<text text-anchor="middle" x="94.2" y="-126.73" font-family="Helvetica,sans-Serif" font-size="10.00">1</text>
</a>
</g>
</g>
<!-- dir_60c0b0581c07fba9514a94139971315c&#45;&gt;dir_a0a8ac7efb6662b749c1285408048e6d -->
<g id="edge4" class="edge">
<title>dir_60c0b0581c07fba9514a94139971315c&#45;&gt;dir_a0a8ac7efb6662b749c1285408048e6d</title>
<path fill="none" stroke="black" d="M105.81,-171.8C80.46,-165.36 44.09,-151.65 27,-124 16.72,-107.37 20.53,-98.45 27,-80 29.5,-72.86 33.67,-66.01 38.3,-59.91"/>
<polygon fill="black" stroke="black" points="41.1,-62.01 44.78,-52.08 35.71,-57.55 41.1,-62.01"/>
<g id="a_edge4&#45;headlabel"><a xlink:href="dir_000136_000206.html" target="_top" xlink:title="1">
<text text-anchor="middle" x="40.99" y="-64.09" font-family="Helvetica,sans-Serif" font-size="10.00">1</text>
</a>
</g>
</g>
<!-- dir_60c0b0581c07fba9514a94139971315c&#45;&gt;dir_60b92096f37991a4061e29e96b6ea950 -->
<g id="edge2" class="edge">
<title>dir_60c0b0581c07fba9514a94139971315c&#45;&gt;dir_60b92096f37991a4061e29e96b6ea950</title>
<path fill="none" stroke="black" d="M142.15,-159.7C146.4,-151.64 151.56,-141.89 156.27,-132.98"/>
<polygon fill="black" stroke="black" points="159.38,-134.58 160.96,-124.1 153.19,-131.31 159.38,-134.58"/>
<g id="a_edge2&#45;headlabel"><a xlink:href="dir_000136_000199.html" target="_top" xlink:title="1">
<text text-anchor="middle" x="160.21" y="-136.59" font-family="Helvetica,sans-Serif" font-size="10.00">1</text>
</a>
</g>
</g>
<!-- dir_bdd9a5d540de89e9fe90efdfc6973a4f&#45;&gt;dir_694ec83a64f58cbdefbefce65cd1011c -->
<g id="edge8" class="edge">
<title>dir_bdd9a5d540de89e9fe90efdfc6973a4f&#45;&gt;dir_694ec83a64f58cbdefbefce65cd1011c</title>
<path fill="none" stroke="black" d="M260.61,-52.14C193.63,-75.58 167.79,-50.52 103,-80 101.62,-80.63 100.26,-81.33 98.9,-82.09"/>
<polygon fill="black" stroke="black" points="96.64,-79.38 90.15,-87.76 100.45,-85.26 96.64,-79.38"/>
<g id="a_edge8&#45;headlabel"><a xlink:href="dir_000000_000143.html" target="_top" xlink:title="1">
<text text-anchor="middle" x="98.11" y="-72.54" font-family="Helvetica,sans-Serif" font-size="10.00">1</text>
</a>
</g>
</g>
</g>
</svg>
