<?xml version="1.0" encoding="UTF-8" standalone="no"?>
<!DOCTYPE svg PUBLIC "-//W3C//DTD SVG 1.1//EN"
 "http://www.w3.org/Graphics/SVG/1.1/DTD/svg11.dtd">
<!-- Generated by graphviz version 2.43.0 (0)
 -->
<!-- Title: iop/arcade/accdvd/include Pages: 1 -->
<svg width="94pt" height="151pt"
 viewBox="0.00 0.00 94.00 151.00" xmlns="http://www.w3.org/2000/svg" xmlns:xlink="http://www.w3.org/1999/xlink">
<g id="graph0" class="graph" transform="scale(1 1) rotate(0) translate(4 147)">
<title>iop/arcade/accdvd/include</title>
<polygon fill="white" stroke="transparent" points="-4,4 -4,-147 90,-147 90,4 -4,4"/>
<g id="clust1" class="cluster">
<title>clusterdir_d5480c28c70feff4085e53014a5bb4c3</title>
<g id="a_clust1"><a xlink:href="dir_d5480c28c70feff4085e53014a5bb4c3.html" target="_top" xlink:title="accdvd">
<polygon fill="#ddddee" stroke="black" points="8,-64 8,-135 78,-135 78,-64 8,-64"/>
<text text-anchor="middle" x="43" y="-123" font-family="Helvetica,sans-Serif" font-size="10.00">accdvd</text>
</a>
</g>
</g>
<!-- dir_b30018f570f668a0b06e9dfb03f925ee -->
<g id="node1" class="node">
<title>dir_b30018f570f668a0b06e9dfb03f925ee</title>
<g id="a_node1"><a xlink:href="dir_b30018f570f668a0b06e9dfb03f925ee.html" target="_top" xlink:title="include">
<polygon fill="#eeeeff" stroke="black" points="70,-108 16,-108 16,-72 70,-72 70,-108"/>
<text text-anchor="middle" x="43" y="-87.5" font-family="Helvetica,sans-Serif" font-size="10.00">include</text>
</a>
</g>
</g>
<!-- dir_a12d8da7b0731a57c6a388326ad5e612 -->
<g id="node2" class="node">
<title>dir_a12d8da7b0731a57c6a388326ad5e612</title>
<g id="a_node2"><a xlink:href="dir_a12d8da7b0731a57c6a388326ad5e612.html" target="_top" xlink:title="cdvd">
<polygon fill="white" stroke="red" points="70,-36 16,-36 16,0 70,0 70,-36"/>
<text text-anchor="middle" x="43" y="-15.5" font-family="Helvetica,sans-Serif" font-size="10.00">cdvd</text>
</a>
</g>
</g>
<!-- dir_b30018f570f668a0b06e9dfb03f925ee&#45;&gt;dir_a12d8da7b0731a57c6a388326ad5e612 -->
<g id="edge1" class="edge">
<title>dir_b30018f570f668a0b06e9dfb03f925ee&#45;&gt;dir_a12d8da7b0731a57c6a388326ad5e612</title>
<path fill="none" stroke="black" d="M43,-71.7C43,-63.98 43,-54.71 43,-46.11"/>
<polygon fill="black" stroke="black" points="46.5,-46.1 43,-36.1 39.5,-46.1 46.5,-46.1"/>
<g id="a_edge1&#45;headlabel"><a xlink:href="dir_000470_000061.html" target="_top" xlink:title="1">
<text text-anchor="middle" x="49.34" y="-47.2" font-family="Helvetica,sans-Serif" font-size="10.00">1</text>
</a>
</g>
</g>
</g>
</svg>
