<?xml version="1.0" encoding="UTF-8" standalone="no"?>
<!DOCTYPE svg PUBLIC "-//W3C//DTD SVG 1.1//EN"
 "http://www.w3.org/Graphics/SVG/1.1/DTD/svg11.dtd">
<!-- Generated by graphviz version 2.43.0 (0)
 -->
<!-- Title: ee/kernel/src/tlbsrc Pages: 1 -->
<svg width="190pt" height="231pt"
 viewBox="0.00 0.00 189.50 231.00" xmlns="http://www.w3.org/2000/svg" xmlns:xlink="http://www.w3.org/1999/xlink">
<g id="graph0" class="graph" transform="scale(1 1) rotate(0) translate(4 227)">
<title>ee/kernel/src/tlbsrc</title>
<polygon fill="white" stroke="transparent" points="-4,4 -4,-227 185.5,-227 185.5,4 -4,4"/>
<g id="clust1" class="cluster">
<title>clusterdir_a493926c6e9678712bca5b1e822bb94f</title>
<g id="a_clust1"><a xlink:href="dir_a493926c6e9678712bca5b1e822bb94f.html" target="_top" xlink:title="src">
<polygon fill="#ddddee" stroke="black" points="15.5,-128 15.5,-215 173.5,-215 173.5,-128 15.5,-128"/>
<text text-anchor="middle" x="94.5" y="-203" font-family="Helvetica,sans-Serif" font-size="10.00">src</text>
</a>
</g>
</g>
<g id="clust2" class="cluster">
<title>clusterdir_9a87498b9a1b570e9d1e3baca4c4d515</title>
<g id="a_clust2"><a xlink:href="dir_9a87498b9a1b570e9d1e3baca4c4d515.html" target="_top">
<polygon fill="#eeeeff" stroke="black" points="23.5,-136 23.5,-188 165.5,-188 165.5,-136 23.5,-136"/>
</a>
</g>
</g>
<!-- dir_9a87498b9a1b570e9d1e3baca4c4d515 -->
<g id="node1" class="node">
<title>dir_9a87498b9a1b570e9d1e3baca4c4d515</title>
<text text-anchor="middle" x="130.5" y="-159.5" font-family="Helvetica,sans-Serif" font-size="10.00">tlbsrc</text>
</g>
<!-- dir_4bea4738b41f5b6c7a7d9f127adc10f0 -->
<g id="node2" class="node">
<title>dir_4bea4738b41f5b6c7a7d9f127adc10f0</title>
<g id="a_node2"><a xlink:href="dir_4bea4738b41f5b6c7a7d9f127adc10f0.html" target="_top" xlink:title="src">
<polygon fill="white" stroke="black" points="85.5,-180 31.5,-180 31.5,-144 85.5,-144 85.5,-180"/>
<text text-anchor="middle" x="58.5" y="-159.5" font-family="Helvetica,sans-Serif" font-size="10.00">src</text>
</a>
</g>
</g>
<!-- dir_bdd9a5d540de89e9fe90efdfc6973a4f -->
<g id="node3" class="node">
<title>dir_bdd9a5d540de89e9fe90efdfc6973a4f</title>
<g id="a_node3"><a xlink:href="dir_bdd9a5d540de89e9fe90efdfc6973a4f.html" target="_top" xlink:title="common">
<polygon fill="white" stroke="red" points="59,-108 0,-108 0,-72 59,-72 59,-108"/>
<text text-anchor="middle" x="29.5" y="-87.5" font-family="Helvetica,sans-Serif" font-size="10.00">common</text>
</a>
</g>
</g>
<!-- dir_4bea4738b41f5b6c7a7d9f127adc10f0&#45;&gt;dir_bdd9a5d540de89e9fe90efdfc6973a4f -->
<g id="edge1" class="edge">
<title>dir_4bea4738b41f5b6c7a7d9f127adc10f0&#45;&gt;dir_bdd9a5d540de89e9fe90efdfc6973a4f</title>
<path fill="none" stroke="black" d="M51.33,-143.7C48.07,-135.81 44.13,-126.3 40.5,-117.55"/>
<polygon fill="black" stroke="black" points="43.65,-116 36.59,-108.1 37.18,-118.68 43.65,-116"/>
<g id="a_edge1&#45;headlabel"><a xlink:href="dir_000418_000000.html" target="_top" xlink:title="2">
<text text-anchor="middle" x="47.65" y="-115.74" font-family="Helvetica,sans-Serif" font-size="10.00">2</text>
</a>
</g>
</g>
<!-- dir_8a6a67431f985d69787ebf051412922f -->
<g id="node4" class="node">
<title>dir_8a6a67431f985d69787ebf051412922f</title>
<g id="a_node4"><a xlink:href="dir_8a6a67431f985d69787ebf051412922f.html" target="_top" xlink:title="include">
<polygon fill="none" stroke="black" points="56.5,-36 2.5,-36 2.5,0 56.5,0 56.5,-36"/>
<text text-anchor="middle" x="29.5" y="-15.5" font-family="Helvetica,sans-Serif" font-size="10.00">include</text>
</a>
</g>
</g>
<!-- dir_4bea4738b41f5b6c7a7d9f127adc10f0&#45;&gt;dir_8a6a67431f985d69787ebf051412922f -->
<g id="edge2" class="edge">
<title>dir_4bea4738b41f5b6c7a7d9f127adc10f0&#45;&gt;dir_8a6a67431f985d69787ebf051412922f</title>
<path fill="none" stroke="black" d="M64.63,-143.83C70.19,-125.58 76.4,-96.08 68.5,-72 65.19,-61.91 59.13,-52.15 52.77,-43.82"/>
<polygon fill="black" stroke="black" points="55.42,-41.54 46.39,-36.01 50,-45.97 55.42,-41.54"/>
<g id="a_edge2&#45;headlabel"><a xlink:href="dir_000418_000407.html" target="_top" xlink:title="1">
<text text-anchor="middle" x="59.9" y="-40.03" font-family="Helvetica,sans-Serif" font-size="10.00">1</text>
</a>
</g>
</g>
<!-- dir_bdd9a5d540de89e9fe90efdfc6973a4f&#45;&gt;dir_8a6a67431f985d69787ebf051412922f -->
<g id="edge3" class="edge">
<title>dir_bdd9a5d540de89e9fe90efdfc6973a4f&#45;&gt;dir_8a6a67431f985d69787ebf051412922f</title>
<path fill="none" stroke="black" d="M23.58,-71.7C22.79,-63.98 22.56,-54.71 22.9,-46.11"/>
<polygon fill="black" stroke="black" points="26.4,-46.32 23.6,-36.1 19.42,-45.84 26.4,-46.32"/>
<g id="a_edge3&#45;headlabel"><a xlink:href="dir_000000_000407.html" target="_top" xlink:title="1">
<text text-anchor="middle" x="28.98" y="-47.61" font-family="Helvetica,sans-Serif" font-size="10.00">1</text>
</a>
</g>
</g>
<!-- dir_8a6a67431f985d69787ebf051412922f&#45;&gt;dir_bdd9a5d540de89e9fe90efdfc6973a4f -->
<g id="edge4" class="edge">
<title>dir_8a6a67431f985d69787ebf051412922f&#45;&gt;dir_bdd9a5d540de89e9fe90efdfc6973a4f</title>
<path fill="none" stroke="black" d="M35.4,-36.1C36.2,-43.79 36.44,-53.05 36.1,-61.67"/>
<polygon fill="black" stroke="black" points="32.61,-61.48 35.42,-71.7 39.59,-61.96 32.61,-61.48"/>
<g id="a_edge4&#45;headlabel"><a xlink:href="dir_000407_000000.html" target="_top" xlink:title="13">
<text text-anchor="middle" x="30.02" y="-55.2" font-family="Helvetica,sans-Serif" font-size="10.00">13</text>
</a>
</g>
</g>
</g>
</svg>
