<?xml version="1.0" encoding="UTF-8" standalone="no"?>
<!DOCTYPE svg PUBLIC "-//W3C//DTD SVG 1.1//EN"
 "http://www.w3.org/Graphics/SVG/1.1/DTD/svg11.dtd">
<!-- Generated by graphviz version 2.43.0 (0)
 -->
<!-- Title: iop/memorycard Pages: 1 -->
<svg width="317pt" height="519pt"
 viewBox="0.00 0.00 317.00 519.00" xmlns="http://www.w3.org/2000/svg" xmlns:xlink="http://www.w3.org/1999/xlink">
<g id="graph0" class="graph" transform="scale(1 1) rotate(0) translate(4 515)">
<title>iop/memorycard</title>
<polygon fill="white" stroke="transparent" points="-4,4 -4,-515 313,-515 313,4 -4,4"/>
<g id="clust1" class="cluster">
<title>clusterdir_0981ace215aa2029f526b70c145b9fbe</title>
<g id="a_clust1"><a xlink:href="dir_0981ace215aa2029f526b70c145b9fbe.html" target="_top" xlink:title="iop">
<polygon fill="#ddddee" stroke="black" points="118,-344 118,-503 301,-503 301,-344 118,-344"/>
<text text-anchor="middle" x="209.5" y="-491" font-family="Helvetica,sans-Serif" font-size="10.00">iop</text>
</a>
</g>
</g>
<g id="clust2" class="cluster">
<title>clusterdir_5805bfcfbe100e4767f47461b3e6402b</title>
<g id="a_clust2"><a xlink:href="dir_5805bfcfbe100e4767f47461b3e6402b.html" target="_top">
<polygon fill="#eeeeff" stroke="black" points="126,-352 126,-476 293,-476 293,-352 126,-352"/>
</a>
</g>
</g>
<!-- dir_5805bfcfbe100e4767f47461b3e6402b -->
<g id="node1" class="node">
<title>dir_5805bfcfbe100e4767f47461b3e6402b</title>
<text text-anchor="middle" x="246" y="-447.5" font-family="Helvetica,sans-Serif" font-size="10.00">memorycard</text>
</g>
<!-- dir_ae48e1b29bfa2db4ecbd893188b24955 -->
<g id="node2" class="node">
<title>dir_ae48e1b29bfa2db4ecbd893188b24955</title>
<g id="a_node2"><a xlink:href="dir_ae48e1b29bfa2db4ecbd893188b24955.html" target="_top" xlink:title="mcman">
<polygon fill="white" stroke="red" points="188,-396 134,-396 134,-360 188,-360 188,-396"/>
<text text-anchor="middle" x="161" y="-375.5" font-family="Helvetica,sans-Serif" font-size="10.00">mcman</text>
</a>
</g>
</g>
<!-- dir_9be0baa3d4a3e9f480a9ee70594037fa -->
<g id="node4" class="node">
<title>dir_9be0baa3d4a3e9f480a9ee70594037fa</title>
<g id="a_node4"><a xlink:href="dir_9be0baa3d4a3e9f480a9ee70594037fa.html" target="_top" xlink:title="kernel">
<polygon fill="white" stroke="red" points="272,-252 218,-252 218,-216 272,-216 272,-252"/>
<text text-anchor="middle" x="245" y="-231.5" font-family="Helvetica,sans-Serif" font-size="10.00">kernel</text>
</a>
</g>
</g>
<!-- dir_ae48e1b29bfa2db4ecbd893188b24955&#45;&gt;dir_9be0baa3d4a3e9f480a9ee70594037fa -->
<g id="edge11" class="edge">
<title>dir_ae48e1b29bfa2db4ecbd893188b24955&#45;&gt;dir_9be0baa3d4a3e9f480a9ee70594037fa</title>
<path fill="none" stroke="black" d="M173.89,-359.7C181.27,-349.51 190.52,-336.26 198,-324 210.51,-303.48 223.15,-279.32 232.16,-261.36"/>
<polygon fill="black" stroke="black" points="235.46,-262.59 236.77,-252.08 229.19,-259.47 235.46,-262.59"/>
<g id="a_edge11&#45;headlabel"><a xlink:href="dir_000168_000525.html" target="_top" xlink:title="3">
<text text-anchor="middle" x="236.4" y="-264.57" font-family="Helvetica,sans-Serif" font-size="10.00">3</text>
</a>
</g>
</g>
<!-- dir_65b0066184b118a668041f55a1e77c0f -->
<g id="node5" class="node">
<title>dir_65b0066184b118a668041f55a1e77c0f</title>
<g id="a_node5"><a xlink:href="dir_65b0066184b118a668041f55a1e77c0f.html" target="_top" xlink:title="security">
<polygon fill="white" stroke="red" points="189,-324 133,-324 133,-288 189,-288 189,-324"/>
<text text-anchor="middle" x="161" y="-303.5" font-family="Helvetica,sans-Serif" font-size="10.00">security</text>
</a>
</g>
</g>
<!-- dir_ae48e1b29bfa2db4ecbd893188b24955&#45;&gt;dir_65b0066184b118a668041f55a1e77c0f -->
<g id="edge12" class="edge">
<title>dir_ae48e1b29bfa2db4ecbd893188b24955&#45;&gt;dir_65b0066184b118a668041f55a1e77c0f</title>
<path fill="none" stroke="black" d="M161,-359.7C161,-351.98 161,-342.71 161,-334.11"/>
<polygon fill="black" stroke="black" points="164.5,-334.1 161,-324.1 157.5,-334.1 164.5,-334.1"/>
<g id="a_edge12&#45;headlabel"><a xlink:href="dir_000168_000188.html" target="_top" xlink:title="2">
<text text-anchor="middle" x="167.34" y="-335.2" font-family="Helvetica,sans-Serif" font-size="10.00">2</text>
</a>
</g>
</g>
<!-- dir_40ac35421bc63b72c26b6c69b1517fd6 -->
<g id="node6" class="node">
<title>dir_40ac35421bc63b72c26b6c69b1517fd6</title>
<g id="a_node6"><a xlink:href="dir_40ac35421bc63b72c26b6c69b1517fd6.html" target="_top" xlink:title="system">
<polygon fill="white" stroke="red" points="211,-36 157,-36 157,0 211,0 211,-36"/>
<text text-anchor="middle" x="184" y="-15.5" font-family="Helvetica,sans-Serif" font-size="10.00">system</text>
</a>
</g>
</g>
<!-- dir_ae48e1b29bfa2db4ecbd893188b24955&#45;&gt;dir_40ac35421bc63b72c26b6c69b1517fd6 -->
<g id="edge13" class="edge">
<title>dir_ae48e1b29bfa2db4ecbd893188b24955&#45;&gt;dir_40ac35421bc63b72c26b6c69b1517fd6</title>
<path fill="none" stroke="black" d="M133.7,-361.65C97.47,-339.03 38,-293.06 38,-235 38,-235 38,-235 38,-161 38,-99.89 104.54,-56.58 147.77,-34.88"/>
<polygon fill="black" stroke="black" points="149.42,-37.97 156.88,-30.45 146.36,-31.68 149.42,-37.97"/>
<g id="a_edge13&#45;headlabel"><a xlink:href="dir_000168_000215.html" target="_top" xlink:title="20">
<text text-anchor="middle" x="147.42" y="-39.6" font-family="Helvetica,sans-Serif" font-size="10.00">20</text>
</a>
</g>
</g>
<!-- dir_a12d8da7b0731a57c6a388326ad5e612 -->
<g id="node7" class="node">
<title>dir_a12d8da7b0731a57c6a388326ad5e612</title>
<g id="a_node7"><a xlink:href="dir_a12d8da7b0731a57c6a388326ad5e612.html" target="_top" xlink:title="cdvd">
<polygon fill="white" stroke="red" points="211,-108 157,-108 157,-72 211,-72 211,-108"/>
<text text-anchor="middle" x="184" y="-87.5" font-family="Helvetica,sans-Serif" font-size="10.00">cdvd</text>
</a>
</g>
</g>
<!-- dir_ae48e1b29bfa2db4ecbd893188b24955&#45;&gt;dir_a12d8da7b0731a57c6a388326ad5e612 -->
<g id="edge14" class="edge">
<title>dir_ae48e1b29bfa2db4ecbd893188b24955&#45;&gt;dir_a12d8da7b0731a57c6a388326ad5e612</title>
<path fill="none" stroke="black" d="M144.96,-359.85C136.99,-350.12 128.17,-337.27 124,-324 119.2,-308.74 121.64,-303.83 124,-288 133.31,-225.45 158.4,-155.3 173.02,-117.9"/>
<polygon fill="black" stroke="black" points="176.41,-118.84 176.84,-108.26 169.9,-116.26 176.41,-118.84"/>
<g id="a_edge14&#45;headlabel"><a xlink:href="dir_000168_000061.html" target="_top" xlink:title="1">
<text text-anchor="middle" x="177.72" y="-120.73" font-family="Helvetica,sans-Serif" font-size="10.00">1</text>
</a>
</g>
</g>
<!-- dir_bdd9a5d540de89e9fe90efdfc6973a4f -->
<g id="node8" class="node">
<title>dir_bdd9a5d540de89e9fe90efdfc6973a4f</title>
<g id="a_node8"><a xlink:href="dir_bdd9a5d540de89e9fe90efdfc6973a4f.html" target="_top" xlink:title="common">
<polygon fill="white" stroke="red" points="277.5,-180 218.5,-180 218.5,-144 277.5,-144 277.5,-180"/>
<text text-anchor="middle" x="248" y="-159.5" font-family="Helvetica,sans-Serif" font-size="10.00">common</text>
</a>
</g>
</g>
<!-- dir_ae48e1b29bfa2db4ecbd893188b24955&#45;&gt;dir_bdd9a5d540de89e9fe90efdfc6973a4f -->
<g id="edge15" class="edge">
<title>dir_ae48e1b29bfa2db4ecbd893188b24955&#45;&gt;dir_bdd9a5d540de89e9fe90efdfc6973a4f</title>
<path fill="none" stroke="black" d="M187.49,-359.9C217.35,-338.78 263.94,-299.73 281,-252 286.38,-236.93 285.4,-231.38 281,-216 278.29,-206.51 273.33,-197.06 268.07,-188.83"/>
<polygon fill="black" stroke="black" points="270.86,-186.72 262.33,-180.43 265.08,-190.67 270.86,-186.72"/>
<g id="a_edge15&#45;headlabel"><a xlink:href="dir_000168_000000.html" target="_top" xlink:title="2">
<text text-anchor="middle" x="275.23" y="-185.58" font-family="Helvetica,sans-Serif" font-size="10.00">2</text>
</a>
</g>
</g>
<!-- dir_841d05e6e469c6e67dc741c932691089 -->
<g id="node3" class="node">
<title>dir_841d05e6e469c6e67dc741c932691089</title>
<g id="a_node3"><a xlink:href="dir_841d05e6e469c6e67dc741c932691089.html" target="_top" xlink:title="mcserv">
<polygon fill="white" stroke="red" points="188,-468 134,-468 134,-432 188,-432 188,-468"/>
<text text-anchor="middle" x="161" y="-447.5" font-family="Helvetica,sans-Serif" font-size="10.00">mcserv</text>
</a>
</g>
</g>
<!-- dir_841d05e6e469c6e67dc741c932691089&#45;&gt;dir_ae48e1b29bfa2db4ecbd893188b24955 -->
<g id="edge10" class="edge">
<title>dir_841d05e6e469c6e67dc741c932691089&#45;&gt;dir_ae48e1b29bfa2db4ecbd893188b24955</title>
<path fill="none" stroke="black" d="M161,-431.7C161,-423.98 161,-414.71 161,-406.11"/>
<polygon fill="black" stroke="black" points="164.5,-406.1 161,-396.1 157.5,-406.1 164.5,-406.1"/>
<g id="a_edge10&#45;headlabel"><a xlink:href="dir_000170_000168.html" target="_top" xlink:title="2">
<text text-anchor="middle" x="167.34" y="-407.2" font-family="Helvetica,sans-Serif" font-size="10.00">2</text>
</a>
</g>
</g>
<!-- dir_841d05e6e469c6e67dc741c932691089&#45;&gt;dir_9be0baa3d4a3e9f480a9ee70594037fa -->
<g id="edge8" class="edge">
<title>dir_841d05e6e469c6e67dc741c932691089&#45;&gt;dir_9be0baa3d4a3e9f480a9ee70594037fa</title>
<path fill="none" stroke="black" d="M174.56,-431.57C181.89,-421.56 190.71,-408.52 197,-396 219.23,-351.74 233.09,-295.36 239.9,-262.41"/>
<polygon fill="black" stroke="black" points="243.41,-262.68 241.94,-252.19 236.55,-261.31 243.41,-262.68"/>
<g id="a_edge8&#45;headlabel"><a xlink:href="dir_000170_000525.html" target="_top" xlink:title="1">
<text text-anchor="middle" x="245.5" y="-264.26" font-family="Helvetica,sans-Serif" font-size="10.00">1</text>
</a>
</g>
</g>
<!-- dir_841d05e6e469c6e67dc741c932691089&#45;&gt;dir_40ac35421bc63b72c26b6c69b1517fd6 -->
<g id="edge9" class="edge">
<title>dir_841d05e6e469c6e67dc741c932691089&#45;&gt;dir_40ac35421bc63b72c26b6c69b1517fd6</title>
<path fill="none" stroke="black" d="M133.69,-439.39C87.75,-421.27 0,-377.44 0,-307 0,-307 0,-307 0,-161 0,-114.96 18.06,-101.98 53,-72 80.11,-48.74 118.77,-34.79 147.06,-27.09"/>
<polygon fill="black" stroke="black" points="148.17,-30.42 156.97,-24.53 146.42,-23.64 148.17,-30.42"/>
<g id="a_edge9&#45;headlabel"><a xlink:href="dir_000170_000215.html" target="_top" xlink:title="12">
<text text-anchor="middle" x="145.4" y="-31.57" font-family="Helvetica,sans-Serif" font-size="10.00">12</text>
</a>
</g>
</g>
<!-- dir_9be0baa3d4a3e9f480a9ee70594037fa&#45;&gt;dir_bdd9a5d540de89e9fe90efdfc6973a4f -->
<g id="edge1" class="edge">
<title>dir_9be0baa3d4a3e9f480a9ee70594037fa&#45;&gt;dir_bdd9a5d540de89e9fe90efdfc6973a4f</title>
<path fill="none" stroke="black" d="M239.83,-215.7C239.36,-207.98 239.53,-198.71 240.24,-190.11"/>
<polygon fill="black" stroke="black" points="243.73,-190.43 241.37,-180.1 236.77,-189.65 243.73,-190.43"/>
<g id="a_edge1&#45;headlabel"><a xlink:href="dir_000525_000000.html" target="_top" xlink:title="2">
<text text-anchor="middle" x="246.15" y="-191.82" font-family="Helvetica,sans-Serif" font-size="10.00">2</text>
</a>
</g>
</g>
<!-- dir_65b0066184b118a668041f55a1e77c0f&#45;&gt;dir_9be0baa3d4a3e9f480a9ee70594037fa -->
<g id="edge2" class="edge">
<title>dir_65b0066184b118a668041f55a1e77c0f&#45;&gt;dir_9be0baa3d4a3e9f480a9ee70594037fa</title>
<path fill="none" stroke="black" d="M181.76,-287.7C192.24,-278.97 205.11,-268.24 216.5,-258.75"/>
<polygon fill="black" stroke="black" points="219.03,-261.19 224.47,-252.1 214.55,-255.82 219.03,-261.19"/>
<g id="a_edge2&#45;headlabel"><a xlink:href="dir_000188_000525.html" target="_top" xlink:title="5">
<text text-anchor="middle" x="218.09" y="-263.18" font-family="Helvetica,sans-Serif" font-size="10.00">5</text>
</a>
</g>
</g>
<!-- dir_65b0066184b118a668041f55a1e77c0f&#45;&gt;dir_40ac35421bc63b72c26b6c69b1517fd6 -->
<g id="edge3" class="edge">
<title>dir_65b0066184b118a668041f55a1e77c0f&#45;&gt;dir_40ac35421bc63b72c26b6c69b1517fd6</title>
<path fill="none" stroke="black" d="M156.07,-287.84C145.62,-248.59 124.12,-149.64 148,-72 151.01,-62.22 156.51,-52.62 162.32,-44.33"/>
<polygon fill="black" stroke="black" points="165.19,-46.33 168.39,-36.23 159.59,-42.13 165.19,-46.33"/>
<g id="a_edge3&#45;headlabel"><a xlink:href="dir_000188_000215.html" target="_top" xlink:title="27">
<text text-anchor="middle" x="165.31" y="-48.41" font-family="Helvetica,sans-Serif" font-size="10.00">27</text>
</a>
</g>
</g>
<!-- dir_65b0066184b118a668041f55a1e77c0f&#45;&gt;dir_a12d8da7b0731a57c6a388326ad5e612 -->
<g id="edge4" class="edge">
<title>dir_65b0066184b118a668041f55a1e77c0f&#45;&gt;dir_a12d8da7b0731a57c6a388326ad5e612</title>
<path fill="none" stroke="black" d="M162.84,-287.85C166.82,-250.83 176.24,-163.18 181.06,-118.39"/>
<polygon fill="black" stroke="black" points="184.56,-118.55 182.15,-108.23 177.6,-117.8 184.56,-118.55"/>
<g id="a_edge4&#45;headlabel"><a xlink:href="dir_000188_000061.html" target="_top" xlink:title="2">
<text text-anchor="middle" x="187" y="-119.93" font-family="Helvetica,sans-Serif" font-size="10.00">2</text>
</a>
</g>
</g>
<!-- dir_65b0066184b118a668041f55a1e77c0f&#45;&gt;dir_bdd9a5d540de89e9fe90efdfc6973a4f -->
<g id="edge5" class="edge">
<title>dir_65b0066184b118a668041f55a1e77c0f&#45;&gt;dir_bdd9a5d540de89e9fe90efdfc6973a4f</title>
<path fill="none" stroke="black" d="M169.34,-287.87C178.42,-269.65 193.69,-240.18 209,-216 214.87,-206.73 221.82,-196.96 228.22,-188.37"/>
<polygon fill="black" stroke="black" points="231.13,-190.32 234.37,-180.23 225.54,-186.1 231.13,-190.32"/>
<g id="a_edge5&#45;headlabel"><a xlink:href="dir_000188_000000.html" target="_top" xlink:title="1">
<text text-anchor="middle" x="231.23" y="-192.4" font-family="Helvetica,sans-Serif" font-size="10.00">1</text>
</a>
</g>
</g>
<!-- dir_40ac35421bc63b72c26b6c69b1517fd6&#45;&gt;dir_9be0baa3d4a3e9f480a9ee70594037fa -->
<g id="edge6" class="edge">
<title>dir_40ac35421bc63b72c26b6c69b1517fd6&#45;&gt;dir_9be0baa3d4a3e9f480a9ee70594037fa</title>
<path fill="none" stroke="black" d="M210.33,-36.18C223.4,-45.63 238.76,-58.22 250,-72 272.75,-99.87 278.54,-109.03 287,-144 290.76,-159.55 292.26,-164.89 287,-180 283.47,-190.14 277.09,-199.81 270.36,-208.04"/>
<polygon fill="black" stroke="black" points="267.56,-205.93 263.6,-215.76 272.83,-210.54 267.56,-205.93"/>
<g id="a_edge6&#45;headlabel"><a xlink:href="dir_000215_000525.html" target="_top" xlink:title="105">
<text text-anchor="middle" x="267.79" y="-198.85" font-family="Helvetica,sans-Serif" font-size="10.00">105</text>
</a>
</g>
</g>
<!-- dir_40ac35421bc63b72c26b6c69b1517fd6&#45;&gt;dir_bdd9a5d540de89e9fe90efdfc6973a4f -->
<g id="edge7" class="edge">
<title>dir_40ac35421bc63b72c26b6c69b1517fd6&#45;&gt;dir_bdd9a5d540de89e9fe90efdfc6973a4f</title>
<path fill="none" stroke="black" d="M205.63,-36.36C214.08,-46.35 222.89,-59.38 229,-72 238.57,-91.77 245.86,-115.58 249.26,-133.59"/>
<polygon fill="black" stroke="black" points="245.84,-134.36 250.83,-143.71 252.75,-133.29 245.84,-134.36"/>
<g id="a_edge7&#45;headlabel"><a xlink:href="dir_000215_000000.html" target="_top" xlink:title="32">
<text text-anchor="middle" x="242.48" y="-128.75" font-family="Helvetica,sans-Serif" font-size="10.00">32</text>
</a>
</g>
</g>
<!-- dir_a12d8da7b0731a57c6a388326ad5e612&#45;&gt;dir_9be0baa3d4a3e9f480a9ee70594037fa -->
<g id="edge16" class="edge">
<title>dir_a12d8da7b0731a57c6a388326ad5e612&#45;&gt;dir_9be0baa3d4a3e9f480a9ee70594037fa</title>
<path fill="none" stroke="black" d="M187.13,-108.31C190.85,-126.68 197.97,-156.28 209,-180 213.39,-189.43 219.37,-199.05 225.2,-207.45"/>
<polygon fill="black" stroke="black" points="222.47,-209.64 231.15,-215.71 228.15,-205.55 222.47,-209.64"/>
<g id="a_edge16&#45;headlabel"><a xlink:href="dir_000061_000525.html" target="_top" xlink:title="13">
<text text-anchor="middle" x="218.06" y="-205.88" font-family="Helvetica,sans-Serif" font-size="10.00">13</text>
</a>
</g>
</g>
<!-- dir_a12d8da7b0731a57c6a388326ad5e612&#45;&gt;dir_40ac35421bc63b72c26b6c69b1517fd6 -->
<g id="edge17" class="edge">
<title>dir_a12d8da7b0731a57c6a388326ad5e612&#45;&gt;dir_40ac35421bc63b72c26b6c69b1517fd6</title>
<path fill="none" stroke="black" d="M184,-71.7C184,-63.98 184,-54.71 184,-46.11"/>
<polygon fill="black" stroke="black" points="187.5,-46.1 184,-36.1 180.5,-46.1 187.5,-46.1"/>
<g id="a_edge17&#45;headlabel"><a xlink:href="dir_000061_000215.html" target="_top" xlink:title="64">
<text text-anchor="middle" x="190.34" y="-47.2" font-family="Helvetica,sans-Serif" font-size="10.00">64</text>
</a>
</g>
</g>
<!-- dir_a12d8da7b0731a57c6a388326ad5e612&#45;&gt;dir_bdd9a5d540de89e9fe90efdfc6973a4f -->
<g id="edge18" class="edge">
<title>dir_a12d8da7b0731a57c6a388326ad5e612&#45;&gt;dir_bdd9a5d540de89e9fe90efdfc6973a4f</title>
<path fill="none" stroke="black" d="M205.53,-108.1C214.06,-116.47 223.61,-126.69 231.57,-135.92"/>
<polygon fill="black" stroke="black" points="228.99,-138.28 238.1,-143.7 234.35,-133.79 228.99,-138.28"/>
<g id="a_edge18&#45;headlabel"><a xlink:href="dir_000061_000000.html" target="_top" xlink:title="17">
<text text-anchor="middle" x="224.5" y="-134.85" font-family="Helvetica,sans-Serif" font-size="10.00">17</text>
</a>
</g>
</g>
<!-- dir_bdd9a5d540de89e9fe90efdfc6973a4f&#45;&gt;dir_9be0baa3d4a3e9f480a9ee70594037fa -->
<g id="edge19" class="edge">
<title>dir_bdd9a5d540de89e9fe90efdfc6973a4f&#45;&gt;dir_9be0baa3d4a3e9f480a9ee70594037fa</title>
<path fill="none" stroke="black" d="M253.16,-180.1C253.64,-187.79 253.48,-197.05 252.78,-205.67"/>
<polygon fill="black" stroke="black" points="249.29,-205.37 251.66,-215.7 256.24,-206.15 249.29,-205.37"/>
<g id="a_edge19&#45;headlabel"><a xlink:href="dir_000000_000525.html" target="_top" xlink:title="3">
<text text-anchor="middle" x="246.86" y="-198.98" font-family="Helvetica,sans-Serif" font-size="10.00">3</text>
</a>
</g>
</g>
<!-- dir_bdd9a5d540de89e9fe90efdfc6973a4f&#45;&gt;dir_40ac35421bc63b72c26b6c69b1517fd6 -->
<g id="edge20" class="edge">
<title>dir_bdd9a5d540de89e9fe90efdfc6973a4f&#45;&gt;dir_40ac35421bc63b72c26b6c69b1517fd6</title>
<path fill="none" stroke="black" d="M237.48,-143.71C230.71,-125.35 222.5,-95.77 211,-72 206.52,-62.74 200.57,-53.24 195.23,-44.9"/>
<polygon fill="black" stroke="black" points="198.11,-42.9 189.77,-36.36 192.21,-46.67 198.11,-42.9"/>
<g id="a_edge20&#45;headlabel"><a xlink:href="dir_000000_000215.html" target="_top" xlink:title="16">
<text text-anchor="middle" x="202.44" y="-41.9" font-family="Helvetica,sans-Serif" font-size="10.00">16</text>
</a>
</g>
</g>
<!-- dir_bdd9a5d540de89e9fe90efdfc6973a4f&#45;&gt;dir_a12d8da7b0731a57c6a388326ad5e612 -->
<g id="edge21" class="edge">
<title>dir_bdd9a5d540de89e9fe90efdfc6973a4f&#45;&gt;dir_a12d8da7b0731a57c6a388326ad5e612</title>
<path fill="none" stroke="black" d="M226.26,-143.7C217.73,-135.3 208.18,-125.07 200.24,-115.86"/>
<polygon fill="black" stroke="black" points="202.85,-113.52 193.74,-108.1 197.48,-118.02 202.85,-113.52"/>
<g id="a_edge21&#45;headlabel"><a xlink:href="dir_000000_000061.html" target="_top" xlink:title="1">
<text text-anchor="middle" x="207.33" y="-111.96" font-family="Helvetica,sans-Serif" font-size="10.00">1</text>
</a>
</g>
</g>
</g>
</svg>
