<?xml version="1.0" encoding="UTF-8" standalone="no"?>
<!DOCTYPE svg PUBLIC "-//W3C//DTD SVG 1.1//EN"
 "http://www.w3.org/Graphics/SVG/1.1/DTD/svg11.dtd">
<!-- Generated by graphviz version 2.44.0 ()
 -->
<!-- Title: ee/packet2 Pages: 1 -->
<svg width="322pt" height="303pt"
 viewBox="0.00 0.00 322.20 303.00" xmlns="http://www.w3.org/2000/svg" xmlns:xlink="http://www.w3.org/1999/xlink">
<g id="graph0" class="graph" transform="scale(1 1) rotate(0) translate(4 299)">
<title>ee/packet2</title>
<polygon fill="white" stroke="transparent" points="-4,4 -4,-299 318.2,-299 318.2,4 -4,4"/>
<g id="clust1" class="cluster">
<title>clusterdir_049738f1909e8dc3e45fe1f6b3faa109</title>
<g id="a_clust1"><a xlink:href="dir_049738f1909e8dc3e45fe1f6b3faa109.html" target="_top" xlink:title="ee">
<polygon fill="#ddddee" stroke="black" points="8,-64 8,-287 238,-287 238,-64 8,-64"/>
<text text-anchor="middle" x="123" y="-275" font-family="Helvetica,sans-Serif" font-size="10.00">ee</text>
</a>
</g>
</g>
<g id="clust2" class="cluster">
<title>clusterdir_1af66471b4b3ad2da2cd94ca709331b2</title>
<g id="a_clust2"><a xlink:href="dir_1af66471b4b3ad2da2cd94ca709331b2.html" target="_top">
<polygon fill="#eeeeff" stroke="black" points="16,-208 16,-260 230,-260 230,-208 16,-208"/>
</a>
</g>
</g>
<!-- dir_2649a81c7f56a709216892bc1285ef27 -->
<g id="node1" class="node">
<title>dir_2649a81c7f56a709216892bc1285ef27</title>
<g id="a_node1"><a xlink:href="dir_2649a81c7f56a709216892bc1285ef27.html" target="_top" xlink:title="draw">
<polygon fill="white" stroke="red" points="230,-180 176,-180 176,-144 230,-144 230,-180"/>
<text text-anchor="middle" x="203" y="-159.5" font-family="Helvetica,sans-Serif" font-size="10.00">draw</text>
</a>
</g>
</g>
<!-- dir_a0a8ac7efb6662b749c1285408048e6d -->
<g id="node2" class="node">
<title>dir_a0a8ac7efb6662b749c1285408048e6d</title>
<g id="a_node2"><a xlink:href="dir_a0a8ac7efb6662b749c1285408048e6d.html" target="_top" xlink:title="erl">
<polygon fill="white" stroke="red" points="190,-108 136,-108 136,-72 190,-72 190,-108"/>
<text text-anchor="middle" x="163" y="-87.5" font-family="Helvetica,sans-Serif" font-size="10.00">erl</text>
</a>
</g>
</g>
<!-- dir_2649a81c7f56a709216892bc1285ef27&#45;&gt;dir_a0a8ac7efb6662b749c1285408048e6d -->
<g id="edge2" class="edge">
<title>dir_2649a81c7f56a709216892bc1285ef27&#45;&gt;dir_a0a8ac7efb6662b749c1285408048e6d</title>
<path fill="none" stroke="black" d="M193.11,-143.7C188.51,-135.64 182.94,-125.89 177.85,-116.98"/>
<polygon fill="black" stroke="black" points="180.77,-115.05 172.77,-108.1 174.7,-118.52 180.77,-115.05"/>
<g id="a_edge2&#45;headlabel"><a xlink:href="dir_000133_000206.html" target="_top" xlink:title="1">
<text text-anchor="middle" x="185.02" y="-114.26" font-family="Helvetica,sans-Serif" font-size="10.00">1</text>
</a>
</g>
</g>
<!-- dir_bdd9a5d540de89e9fe90efdfc6973a4f -->
<g id="node7" class="node">
<title>dir_bdd9a5d540de89e9fe90efdfc6973a4f</title>
<g id="a_node7"><a xlink:href="dir_bdd9a5d540de89e9fe90efdfc6973a4f.html" target="_top" xlink:title="common">
<polygon fill="white" stroke="red" points="300,-108 246,-108 246,-72 300,-72 300,-108"/>
<text text-anchor="middle" x="273" y="-87.5" font-family="Helvetica,sans-Serif" font-size="10.00">common</text>
</a>
</g>
</g>
<!-- dir_2649a81c7f56a709216892bc1285ef27&#45;&gt;dir_bdd9a5d540de89e9fe90efdfc6973a4f -->
<g id="edge1" class="edge">
<title>dir_2649a81c7f56a709216892bc1285ef27&#45;&gt;dir_bdd9a5d540de89e9fe90efdfc6973a4f</title>
<path fill="none" stroke="black" d="M220.3,-143.7C228.86,-135.14 239.34,-124.66 248.7,-115.3"/>
<polygon fill="black" stroke="black" points="251.3,-117.65 255.9,-108.1 246.35,-112.7 251.3,-117.65"/>
<g id="a_edge1&#45;headlabel"><a xlink:href="dir_000133_000000.html" target="_top" xlink:title="24">
<text text-anchor="middle" x="250.77" y="-119.7" font-family="Helvetica,sans-Serif" font-size="10.00">24</text>
</a>
</g>
</g>
<!-- dir_a0a8ac7efb6662b749c1285408048e6d&#45;&gt;dir_bdd9a5d540de89e9fe90efdfc6973a4f -->
<g id="edge3" class="edge">
<title>dir_a0a8ac7efb6662b749c1285408048e6d&#45;&gt;dir_bdd9a5d540de89e9fe90efdfc6973a4f</title>
<path fill="none" stroke="black" d="M190.07,-90C205.31,-90 220.54,-90 235.78,-90"/>
<polygon fill="black" stroke="black" points="235.79,-93.5 245.79,-90 235.79,-86.5 235.79,-93.5"/>
<g id="a_edge3&#45;headlabel"><a xlink:href="dir_000206_000000.html" target="_top" xlink:title="1">
<text text-anchor="middle" x="232.19" y="-93.84" font-family="Helvetica,sans-Serif" font-size="10.00">1</text>
</a>
</g>
</g>
<!-- dir_0981ace215aa2029f526b70c145b9fbe -->
<g id="node8" class="node">
<title>dir_0981ace215aa2029f526b70c145b9fbe</title>
<g id="a_node8"><a xlink:href="dir_0981ace215aa2029f526b70c145b9fbe.html" target="_top" xlink:title="iop">
<polygon fill="white" stroke="red" points="300,-36 246,-36 246,0 300,0 300,-36"/>
<text text-anchor="middle" x="273" y="-15.5" font-family="Helvetica,sans-Serif" font-size="10.00">iop</text>
</a>
</g>
</g>
<!-- dir_a0a8ac7efb6662b749c1285408048e6d&#45;&gt;dir_0981ace215aa2029f526b70c145b9fbe -->
<g id="edge4" class="edge">
<title>dir_a0a8ac7efb6662b749c1285408048e6d&#45;&gt;dir_0981ace215aa2029f526b70c145b9fbe</title>
<path fill="none" stroke="black" d="M189.91,-71.88C204.16,-62.81 221.85,-51.55 237.24,-41.76"/>
<polygon fill="black" stroke="black" points="239.43,-44.51 245.99,-36.19 235.67,-38.61 239.43,-44.51"/>
<g id="a_edge4&#45;headlabel"><a xlink:href="dir_000206_000011.html" target="_top" xlink:title="2">
<text text-anchor="middle" x="237.92" y="-46.34" font-family="Helvetica,sans-Serif" font-size="10.00">2</text>
</a>
</g>
</g>
<!-- dir_694ec83a64f58cbdefbefce65cd1011c -->
<g id="node3" class="node">
<title>dir_694ec83a64f58cbdefbefce65cd1011c</title>
<g id="a_node3"><a xlink:href="dir_694ec83a64f58cbdefbefce65cd1011c.html" target="_top" xlink:title="kernel">
<polygon fill="white" stroke="red" points="158,-180 104,-180 104,-144 158,-144 158,-180"/>
<text text-anchor="middle" x="131" y="-159.5" font-family="Helvetica,sans-Serif" font-size="10.00">kernel</text>
</a>
</g>
</g>
<!-- dir_694ec83a64f58cbdefbefce65cd1011c&#45;&gt;dir_a0a8ac7efb6662b749c1285408048e6d -->
<g id="edge13" class="edge">
<title>dir_694ec83a64f58cbdefbefce65cd1011c&#45;&gt;dir_a0a8ac7efb6662b749c1285408048e6d</title>
<path fill="none" stroke="black" d="M138.91,-143.7C142.55,-135.73 146.95,-126.1 150.99,-117.26"/>
<polygon fill="black" stroke="black" points="154.21,-118.65 155.18,-108.1 147.84,-115.74 154.21,-118.65"/>
<g id="a_edge13&#45;headlabel"><a xlink:href="dir_000143_000206.html" target="_top" xlink:title="1">
<text text-anchor="middle" x="155.29" y="-120.6" font-family="Helvetica,sans-Serif" font-size="10.00">1</text>
</a>
</g>
</g>
<!-- dir_694ec83a64f58cbdefbefce65cd1011c&#45;&gt;dir_bdd9a5d540de89e9fe90efdfc6973a4f -->
<g id="edge11" class="edge">
<title>dir_694ec83a64f58cbdefbefce65cd1011c&#45;&gt;dir_bdd9a5d540de89e9fe90efdfc6973a4f</title>
<path fill="none" stroke="black" d="M158.22,-144.8C185.99,-130.65 225.59,-111.8 233,-108 234.3,-107.34 235.62,-106.65 236.96,-105.95"/>
<polygon fill="black" stroke="black" points="238.73,-108.97 245.97,-101.24 235.48,-102.77 238.73,-108.97"/>
<g id="a_edge11&#45;headlabel"><a xlink:href="dir_000143_000000.html" target="_top" xlink:title="24">
<text text-anchor="middle" x="236.86" y="-110.66" font-family="Helvetica,sans-Serif" font-size="10.00">24</text>
</a>
</g>
</g>
<!-- dir_694ec83a64f58cbdefbefce65cd1011c&#45;&gt;dir_0981ace215aa2029f526b70c145b9fbe -->
<g id="edge12" class="edge">
<title>dir_694ec83a64f58cbdefbefce65cd1011c&#45;&gt;dir_0981ace215aa2029f526b70c145b9fbe</title>
<path fill="none" stroke="black" d="M155.64,-143.8C169.04,-133.96 185.56,-121.02 199,-108 204.83,-102.35 232.83,-68.32 252.66,-44.02"/>
<polygon fill="black" stroke="black" points="255.42,-46.17 259.02,-36.21 249.99,-41.75 255.42,-46.17"/>
<g id="a_edge12&#45;headlabel"><a xlink:href="dir_000143_000011.html" target="_top" xlink:title="5">
<text text-anchor="middle" x="255.35" y="-48.25" font-family="Helvetica,sans-Serif" font-size="10.00">5</text>
</a>
</g>
</g>
<!-- dir_1af66471b4b3ad2da2cd94ca709331b2 -->
<g id="node4" class="node">
<title>dir_1af66471b4b3ad2da2cd94ca709331b2</title>
<text text-anchor="middle" x="195" y="-231.5" font-family="Helvetica,sans-Serif" font-size="10.00">packet2</text>
</g>
<!-- dir_cb50f4a8529b26463793155357bbfc11 -->
<g id="node5" class="node">
<title>dir_cb50f4a8529b26463793155357bbfc11</title>
<g id="a_node5"><a xlink:href="dir_cb50f4a8529b26463793155357bbfc11.html" target="_top" xlink:title="include">
<polygon fill="white" stroke="black" points="150,-252 96,-252 96,-216 150,-216 150,-252"/>
<text text-anchor="middle" x="123" y="-231.5" font-family="Helvetica,sans-Serif" font-size="10.00">include</text>
</a>
</g>
</g>
<!-- dir_cb50f4a8529b26463793155357bbfc11&#45;&gt;dir_2649a81c7f56a709216892bc1285ef27 -->
<g id="edge8" class="edge">
<title>dir_cb50f4a8529b26463793155357bbfc11&#45;&gt;dir_2649a81c7f56a709216892bc1285ef27</title>
<path fill="none" stroke="black" d="M142.78,-215.7C152.75,-206.97 165.01,-196.24 175.86,-186.75"/>
<polygon fill="black" stroke="black" points="178.23,-189.32 183.45,-180.1 173.62,-184.06 178.23,-189.32"/>
<g id="a_edge8&#45;headlabel"><a xlink:href="dir_000239_000133.html" target="_top" xlink:title="3">
<text text-anchor="middle" x="177.4" y="-191.33" font-family="Helvetica,sans-Serif" font-size="10.00">3</text>
</a>
</g>
</g>
<!-- dir_cb50f4a8529b26463793155357bbfc11&#45;&gt;dir_bdd9a5d540de89e9fe90efdfc6973a4f -->
<g id="edge9" class="edge">
<title>dir_cb50f4a8529b26463793155357bbfc11&#45;&gt;dir_bdd9a5d540de89e9fe90efdfc6973a4f</title>
<path fill="none" stroke="black" d="M145.64,-215.86C149.95,-213.01 154.51,-210.26 159,-208 193.78,-190.5 214.34,-207.39 242,-180 258.58,-163.58 266.31,-137.84 269.9,-118.26"/>
<polygon fill="black" stroke="black" points="273.4,-118.53 271.5,-108.11 266.48,-117.44 273.4,-118.53"/>
<g id="a_edge9&#45;headlabel"><a xlink:href="dir_000239_000000.html" target="_top" xlink:title="3">
<text text-anchor="middle" x="275.64" y="-120.03" font-family="Helvetica,sans-Serif" font-size="10.00">3</text>
</a>
</g>
</g>
<!-- dir_3a7a010c28010a16f6513751c6839763 -->
<g id="node6" class="node">
<title>dir_3a7a010c28010a16f6513751c6839763</title>
<g id="a_node6"><a xlink:href="dir_3a7a010c28010a16f6513751c6839763.html" target="_top" xlink:title="src">
<polygon fill="white" stroke="black" points="78,-252 24,-252 24,-216 78,-216 78,-252"/>
<text text-anchor="middle" x="51" y="-231.5" font-family="Helvetica,sans-Serif" font-size="10.00">src</text>
</a>
</g>
</g>
<!-- dir_3a7a010c28010a16f6513751c6839763&#45;&gt;dir_a0a8ac7efb6662b749c1285408048e6d -->
<g id="edge7" class="edge">
<title>dir_3a7a010c28010a16f6513751c6839763&#45;&gt;dir_a0a8ac7efb6662b749c1285408048e6d</title>
<path fill="none" stroke="black" d="M56.79,-215.96C63.79,-197.02 76.92,-166.18 95,-144 104.21,-132.7 116.25,-122.33 127.64,-113.82"/>
<polygon fill="black" stroke="black" points="129.7,-116.65 135.76,-107.96 125.6,-110.97 129.7,-116.65"/>
<g id="a_edge7&#45;headlabel"><a xlink:href="dir_000161_000206.html" target="_top" xlink:title="1">
<text text-anchor="middle" x="128.44" y="-118.55" font-family="Helvetica,sans-Serif" font-size="10.00">1</text>
</a>
</g>
</g>
<!-- dir_3a7a010c28010a16f6513751c6839763&#45;&gt;dir_694ec83a64f58cbdefbefce65cd1011c -->
<g id="edge6" class="edge">
<title>dir_3a7a010c28010a16f6513751c6839763&#45;&gt;dir_694ec83a64f58cbdefbefce65cd1011c</title>
<path fill="none" stroke="black" d="M70.78,-215.7C80.75,-206.97 93.01,-196.24 103.86,-186.75"/>
<polygon fill="black" stroke="black" points="106.23,-189.32 111.45,-180.1 101.62,-184.06 106.23,-189.32"/>
<g id="a_edge6&#45;headlabel"><a xlink:href="dir_000161_000143.html" target="_top" xlink:title="1">
<text text-anchor="middle" x="105.4" y="-191.33" font-family="Helvetica,sans-Serif" font-size="10.00">1</text>
</a>
</g>
</g>
<!-- dir_3a7a010c28010a16f6513751c6839763&#45;&gt;dir_0981ace215aa2029f526b70c145b9fbe -->
<g id="edge5" class="edge">
<title>dir_3a7a010c28010a16f6513751c6839763&#45;&gt;dir_0981ace215aa2029f526b70c145b9fbe</title>
<path fill="none" stroke="black" d="M72.6,-215.81C77.16,-212.83 82.08,-210.04 87,-208 151.67,-181.2 180.57,-213.56 242,-180 280.36,-159.04 293,-148.68 309,-108 316.16,-89.8 315.47,-82.45 309,-64 306.5,-56.86 302.33,-50.01 297.7,-43.91"/>
<polygon fill="black" stroke="black" points="300.29,-41.55 291.22,-36.08 294.9,-46.01 300.29,-41.55"/>
<g id="a_edge5&#45;headlabel"><a xlink:href="dir_000161_000011.html" target="_top" xlink:title="1">
<text text-anchor="middle" x="304.77" y="-40" font-family="Helvetica,sans-Serif" font-size="10.00">1</text>
</a>
</g>
</g>
<!-- dir_bdd9a5d540de89e9fe90efdfc6973a4f&#45;&gt;dir_694ec83a64f58cbdefbefce65cd1011c -->
<g id="edge15" class="edge">
<title>dir_bdd9a5d540de89e9fe90efdfc6973a4f&#45;&gt;dir_694ec83a64f58cbdefbefce65cd1011c</title>
<path fill="none" stroke="black" d="M250.57,-108.22C241.76,-112.68 199.61,-132.71 167.68,-146.77"/>
<polygon fill="black" stroke="black" points="165.92,-143.72 158.15,-150.92 168.72,-150.14 165.92,-143.72"/>
<g id="a_edge15&#45;headlabel"><a xlink:href="dir_000000_000143.html" target="_top" xlink:title="1">
<text text-anchor="middle" x="168.09" y="-137.18" font-family="Helvetica,sans-Serif" font-size="10.00">1</text>
</a>
</g>
</g>
<!-- dir_bdd9a5d540de89e9fe90efdfc6973a4f&#45;&gt;dir_0981ace215aa2029f526b70c145b9fbe -->
<g id="edge14" class="edge">
<title>dir_bdd9a5d540de89e9fe90efdfc6973a4f&#45;&gt;dir_0981ace215aa2029f526b70c145b9fbe</title>
<path fill="none" stroke="black" d="M267.08,-71.7C266.29,-63.98 266.06,-54.71 266.4,-46.11"/>
<polygon fill="black" stroke="black" points="269.9,-46.32 267.1,-36.1 262.92,-45.84 269.9,-46.32"/>
<g id="a_edge14&#45;headlabel"><a xlink:href="dir_000000_000011.html" target="_top" xlink:title="20">
<text text-anchor="middle" x="272.48" y="-47.61" font-family="Helvetica,sans-Serif" font-size="10.00">20</text>
</a>
</g>
</g>
<!-- dir_0981ace215aa2029f526b70c145b9fbe&#45;&gt;dir_bdd9a5d540de89e9fe90efdfc6973a4f -->
<g id="edge10" class="edge">
<title>dir_0981ace215aa2029f526b70c145b9fbe&#45;&gt;dir_bdd9a5d540de89e9fe90efdfc6973a4f</title>
<path fill="none" stroke="black" d="M278.9,-36.1C279.7,-43.79 279.94,-53.05 279.6,-61.67"/>
<polygon fill="black" stroke="black" points="276.11,-61.48 278.92,-71.7 283.09,-61.96 276.11,-61.48"/>
<g id="a_edge10&#45;headlabel"><a xlink:href="dir_000011_000000.html" target="_top" xlink:title="158">
<text text-anchor="middle" x="273.52" y="-55.2" font-family="Helvetica,sans-Serif" font-size="10.00">158</text>
</a>
</g>
</g>
</g>
</svg>
