<?xml version="1.0" encoding="UTF-8" standalone="no"?>
<!DOCTYPE svg PUBLIC "-//W3C//DTD SVG 1.1//EN"
 "http://www.w3.org/Graphics/SVG/1.1/DTD/svg11.dtd">
<!-- Generated by graphviz version 2.43.0 (0)
 -->
<!-- Title: iop/dev9/extflash Pages: 1 -->
<svg width="312pt" height="375pt"
 viewBox="0.00 0.00 311.82 375.00" xmlns="http://www.w3.org/2000/svg" xmlns:xlink="http://www.w3.org/1999/xlink">
<g id="graph0" class="graph" transform="scale(1 1) rotate(0) translate(4 371)">
<title>iop/dev9/extflash</title>
<polygon fill="white" stroke="transparent" points="-4,4 -4,-371 307.82,-371 307.82,4 -4,4"/>
<g id="clust1" class="cluster">
<title>clusterdir_6f16cad81de2453a6f48c5e272ba4a18</title>
<g id="a_clust1"><a xlink:href="dir_6f16cad81de2453a6f48c5e272ba4a18.html" target="_top" xlink:title="dev9">
<polygon fill="#ddddee" stroke="black" points="8,-200 8,-359 168,-359 168,-200 8,-200"/>
<text text-anchor="middle" x="88" y="-347" font-family="Helvetica,sans-Serif" font-size="10.00">dev9</text>
</a>
</g>
</g>
<g id="clust2" class="cluster">
<title>clusterdir_f44f46f2cd21d59a913dd7de442a4869</title>
<g id="a_clust2"><a xlink:href="dir_f44f46f2cd21d59a913dd7de442a4869.html" target="_top">
<polygon fill="#eeeeff" stroke="black" points="16,-208 16,-332 160,-332 160,-208 16,-208"/>
</a>
</g>
</g>
<!-- dir_f44f46f2cd21d59a913dd7de442a4869 -->
<g id="node1" class="node">
<title>dir_f44f46f2cd21d59a913dd7de442a4869</title>
<text text-anchor="middle" x="124" y="-303.5" font-family="Helvetica,sans-Serif" font-size="10.00">extflash</text>
</g>
<!-- dir_465291803e00dfefa1e1a83db7deacb1 -->
<g id="node2" class="node">
<title>dir_465291803e00dfefa1e1a83db7deacb1</title>
<g id="a_node2"><a xlink:href="dir_465291803e00dfefa1e1a83db7deacb1.html" target="_top" xlink:title="include">
<polygon fill="white" stroke="black" points="78,-252 24,-252 24,-216 78,-216 78,-252"/>
<text text-anchor="middle" x="51" y="-231.5" font-family="Helvetica,sans-Serif" font-size="10.00">include</text>
</a>
</g>
</g>
<!-- dir_0a4671ad047c01d5afa56274ab81ddbc -->
<g id="node3" class="node">
<title>dir_0a4671ad047c01d5afa56274ab81ddbc</title>
<g id="a_node3"><a xlink:href="dir_0a4671ad047c01d5afa56274ab81ddbc.html" target="_top" xlink:title="src">
<polygon fill="white" stroke="black" points="78,-324 24,-324 24,-288 78,-288 78,-324"/>
<text text-anchor="middle" x="51" y="-303.5" font-family="Helvetica,sans-Serif" font-size="10.00">src</text>
</a>
</g>
</g>
<!-- dir_0a4671ad047c01d5afa56274ab81ddbc&#45;&gt;dir_465291803e00dfefa1e1a83db7deacb1 -->
<g id="edge11" class="edge">
<title>dir_0a4671ad047c01d5afa56274ab81ddbc&#45;&gt;dir_465291803e00dfefa1e1a83db7deacb1</title>
<path fill="none" stroke="black" d="M51,-287.7C51,-279.98 51,-270.71 51,-262.11"/>
<polygon fill="black" stroke="black" points="54.5,-262.1 51,-252.1 47.5,-262.1 54.5,-262.1"/>
<g id="a_edge11&#45;headlabel"><a xlink:href="dir_000098_000499.html" target="_top" xlink:title="1">
<text text-anchor="middle" x="57.34" y="-263.2" font-family="Helvetica,sans-Serif" font-size="10.00">1</text>
</a>
</g>
</g>
<!-- dir_9be0baa3d4a3e9f480a9ee70594037fa -->
<g id="node4" class="node">
<title>dir_9be0baa3d4a3e9f480a9ee70594037fa</title>
<g id="a_node4"><a xlink:href="dir_9be0baa3d4a3e9f480a9ee70594037fa.html" target="_top" xlink:title="kernel">
<polygon fill="white" stroke="red" points="281,-180 227,-180 227,-144 281,-144 281,-180"/>
<text text-anchor="middle" x="254" y="-159.5" font-family="Helvetica,sans-Serif" font-size="10.00">kernel</text>
</a>
</g>
</g>
<!-- dir_0a4671ad047c01d5afa56274ab81ddbc&#45;&gt;dir_9be0baa3d4a3e9f480a9ee70594037fa -->
<g id="edge7" class="edge">
<title>dir_0a4671ad047c01d5afa56274ab81ddbc&#45;&gt;dir_9be0baa3d4a3e9f480a9ee70594037fa</title>
<path fill="none" stroke="black" d="M78.27,-291.4C81.18,-290.17 84.13,-289.01 87,-288 152.52,-265.05 191.55,-302.67 239,-252 254.27,-235.69 257.19,-209.94 256.77,-190.32"/>
<polygon fill="black" stroke="black" points="260.25,-189.96 256.25,-180.15 253.26,-190.32 260.25,-189.96"/>
<g id="a_edge7&#45;headlabel"><a xlink:href="dir_000098_000525.html" target="_top" xlink:title="3">
<text text-anchor="middle" x="263.27" y="-190.91" font-family="Helvetica,sans-Serif" font-size="10.00">3</text>
</a>
</g>
</g>
<!-- dir_18566863331aaba44604539ca78be099 -->
<g id="node5" class="node">
<title>dir_18566863331aaba44604539ca78be099</title>
<g id="a_node5"><a xlink:href="dir_18566863331aaba44604539ca78be099.html" target="_top" xlink:title="dev9">
<polygon fill="white" stroke="red" points="230,-252 176,-252 176,-216 230,-216 230,-252"/>
<text text-anchor="middle" x="203" y="-231.5" font-family="Helvetica,sans-Serif" font-size="10.00">dev9</text>
</a>
</g>
</g>
<!-- dir_0a4671ad047c01d5afa56274ab81ddbc&#45;&gt;dir_18566863331aaba44604539ca78be099 -->
<g id="edge8" class="edge">
<title>dir_0a4671ad047c01d5afa56274ab81ddbc&#45;&gt;dir_18566863331aaba44604539ca78be099</title>
<path fill="none" stroke="black" d="M78.11,-292.15C81.11,-290.75 84.12,-289.34 87,-288 113.53,-275.68 143.58,-261.95 166.44,-251.56"/>
<polygon fill="black" stroke="black" points="168.11,-254.65 175.77,-247.33 165.22,-248.27 168.11,-254.65"/>
<g id="a_edge8&#45;headlabel"><a xlink:href="dir_000098_000095.html" target="_top" xlink:title="1">
<text text-anchor="middle" x="166.01" y="-256.22" font-family="Helvetica,sans-Serif" font-size="10.00">1</text>
</a>
</g>
</g>
<!-- dir_40ac35421bc63b72c26b6c69b1517fd6 -->
<g id="node6" class="node">
<title>dir_40ac35421bc63b72c26b6c69b1517fd6</title>
<g id="a_node6"><a xlink:href="dir_40ac35421bc63b72c26b6c69b1517fd6.html" target="_top" xlink:title="system">
<polygon fill="white" stroke="red" points="240,-36 186,-36 186,0 240,0 240,-36"/>
<text text-anchor="middle" x="213" y="-15.5" font-family="Helvetica,sans-Serif" font-size="10.00">system</text>
</a>
</g>
</g>
<!-- dir_0a4671ad047c01d5afa56274ab81ddbc&#45;&gt;dir_40ac35421bc63b72c26b6c69b1517fd6 -->
<g id="edge9" class="edge">
<title>dir_0a4671ad047c01d5afa56274ab81ddbc&#45;&gt;dir_40ac35421bc63b72c26b6c69b1517fd6</title>
<path fill="none" stroke="black" d="M78.24,-291.32C81.16,-290.1 84.12,-288.96 87,-288 161.9,-262.96 200.39,-302.63 261,-252 322.46,-200.66 310.74,-140.34 269,-72 262.4,-61.2 253.04,-51.15 243.86,-42.77"/>
<polygon fill="black" stroke="black" points="246.09,-40.07 236.25,-36.14 241.49,-45.35 246.09,-40.07"/>
<g id="a_edge9&#45;headlabel"><a xlink:href="dir_000098_000215.html" target="_top" xlink:title="16">
<text text-anchor="middle" x="250.66" y="-37.79" font-family="Helvetica,sans-Serif" font-size="10.00">16</text>
</a>
</g>
</g>
<!-- dir_bdd9a5d540de89e9fe90efdfc6973a4f -->
<g id="node7" class="node">
<title>dir_bdd9a5d540de89e9fe90efdfc6973a4f</title>
<g id="a_node7"><a xlink:href="dir_bdd9a5d540de89e9fe90efdfc6973a4f.html" target="_top" xlink:title="common">
<polygon fill="white" stroke="red" points="242.5,-108 183.5,-108 183.5,-72 242.5,-72 242.5,-108"/>
<text text-anchor="middle" x="213" y="-87.5" font-family="Helvetica,sans-Serif" font-size="10.00">common</text>
</a>
</g>
</g>
<!-- dir_0a4671ad047c01d5afa56274ab81ddbc&#45;&gt;dir_bdd9a5d540de89e9fe90efdfc6973a4f -->
<g id="edge10" class="edge">
<title>dir_0a4671ad047c01d5afa56274ab81ddbc&#45;&gt;dir_bdd9a5d540de89e9fe90efdfc6973a4f</title>
<path fill="none" stroke="black" d="M63.98,-287.85C92.42,-250.28 160.33,-160.58 193.75,-116.43"/>
<polygon fill="black" stroke="black" points="196.71,-118.32 199.95,-108.23 191.13,-114.09 196.71,-118.32"/>
<g id="a_edge10&#45;headlabel"><a xlink:href="dir_000098_000000.html" target="_top" xlink:title="2">
<text text-anchor="middle" x="196.8" y="-120.4" font-family="Helvetica,sans-Serif" font-size="10.00">2</text>
</a>
</g>
</g>
<!-- dir_9be0baa3d4a3e9f480a9ee70594037fa&#45;&gt;dir_bdd9a5d540de89e9fe90efdfc6973a4f -->
<g id="edge1" class="edge">
<title>dir_9be0baa3d4a3e9f480a9ee70594037fa&#45;&gt;dir_bdd9a5d540de89e9fe90efdfc6973a4f</title>
<path fill="none" stroke="black" d="M237.95,-143.7C232.46,-135.73 226.61,-126.1 221.82,-117.26"/>
<polygon fill="black" stroke="black" points="224.8,-115.4 217.12,-108.1 218.57,-118.6 224.8,-115.4"/>
<g id="a_edge1&#45;headlabel"><a xlink:href="dir_000525_000000.html" target="_top" xlink:title="2">
<text text-anchor="middle" x="228.97" y="-114.81" font-family="Helvetica,sans-Serif" font-size="10.00">2</text>
</a>
</g>
</g>
<!-- dir_18566863331aaba44604539ca78be099&#45;&gt;dir_9be0baa3d4a3e9f480a9ee70594037fa -->
<g id="edge2" class="edge">
<title>dir_18566863331aaba44604539ca78be099&#45;&gt;dir_9be0baa3d4a3e9f480a9ee70594037fa</title>
<path fill="none" stroke="black" d="M215.61,-215.7C221.6,-207.47 228.88,-197.48 235.48,-188.42"/>
<polygon fill="black" stroke="black" points="238.48,-190.25 241.54,-180.1 232.82,-186.13 238.48,-190.25"/>
<g id="a_edge2&#45;headlabel"><a xlink:href="dir_000095_000525.html" target="_top" xlink:title="4">
<text text-anchor="middle" x="238.66" y="-192.32" font-family="Helvetica,sans-Serif" font-size="10.00">4</text>
</a>
</g>
</g>
<!-- dir_18566863331aaba44604539ca78be099&#45;&gt;dir_40ac35421bc63b72c26b6c69b1517fd6 -->
<g id="edge3" class="edge">
<title>dir_18566863331aaba44604539ca78be099&#45;&gt;dir_40ac35421bc63b72c26b6c69b1517fd6</title>
<path fill="none" stroke="black" d="M194.67,-215.7C181.43,-185.8 158.68,-122.78 175,-72 178.19,-62.08 184,-52.44 190.13,-44.17"/>
<polygon fill="black" stroke="black" points="193.07,-46.09 196.54,-36.08 187.58,-41.74 193.07,-46.09"/>
<g id="a_edge3&#45;headlabel"><a xlink:href="dir_000095_000215.html" target="_top" xlink:title="16">
<text text-anchor="middle" x="193.06" y="-48.17" font-family="Helvetica,sans-Serif" font-size="10.00">16</text>
</a>
</g>
</g>
<!-- dir_18566863331aaba44604539ca78be099&#45;&gt;dir_bdd9a5d540de89e9fe90efdfc6973a4f -->
<g id="edge4" class="edge">
<title>dir_18566863331aaba44604539ca78be099&#45;&gt;dir_bdd9a5d540de89e9fe90efdfc6973a4f</title>
<path fill="none" stroke="black" d="M204.21,-215.87C205.91,-191.67 209.04,-147.21 211.07,-118.39"/>
<polygon fill="black" stroke="black" points="214.58,-118.41 211.79,-108.19 207.6,-117.92 214.58,-118.41"/>
<g id="a_edge4&#45;headlabel"><a xlink:href="dir_000095_000000.html" target="_top" xlink:title="6">
<text text-anchor="middle" x="217.16" y="-119.7" font-family="Helvetica,sans-Serif" font-size="10.00">6</text>
</a>
</g>
</g>
<!-- dir_40ac35421bc63b72c26b6c69b1517fd6&#45;&gt;dir_9be0baa3d4a3e9f480a9ee70594037fa -->
<g id="edge5" class="edge">
<title>dir_40ac35421bc63b72c26b6c69b1517fd6&#45;&gt;dir_9be0baa3d4a3e9f480a9ee70594037fa</title>
<path fill="none" stroke="black" d="M229.77,-36.05C238.14,-45.74 247.43,-58.59 252,-72 258.76,-91.84 258.92,-115.64 257.57,-133.63"/>
<polygon fill="black" stroke="black" points="254.08,-133.45 256.62,-143.74 261.04,-134.11 254.08,-133.45"/>
<g id="a_edge5&#45;headlabel"><a xlink:href="dir_000215_000525.html" target="_top" xlink:title="105">
<text text-anchor="middle" x="251.59" y="-127.11" font-family="Helvetica,sans-Serif" font-size="10.00">105</text>
</a>
</g>
</g>
<!-- dir_40ac35421bc63b72c26b6c69b1517fd6&#45;&gt;dir_bdd9a5d540de89e9fe90efdfc6973a4f -->
<g id="edge6" class="edge">
<title>dir_40ac35421bc63b72c26b6c69b1517fd6&#45;&gt;dir_bdd9a5d540de89e9fe90efdfc6973a4f</title>
<path fill="none" stroke="black" d="M218.9,-36.1C219.7,-43.79 219.94,-53.05 219.6,-61.67"/>
<polygon fill="black" stroke="black" points="216.11,-61.48 218.92,-71.7 223.09,-61.96 216.11,-61.48"/>
<g id="a_edge6&#45;headlabel"><a xlink:href="dir_000215_000000.html" target="_top" xlink:title="32">
<text text-anchor="middle" x="213.52" y="-55.2" font-family="Helvetica,sans-Serif" font-size="10.00">32</text>
</a>
</g>
</g>
<!-- dir_bdd9a5d540de89e9fe90efdfc6973a4f&#45;&gt;dir_9be0baa3d4a3e9f480a9ee70594037fa -->
<g id="edge12" class="edge">
<title>dir_bdd9a5d540de89e9fe90efdfc6973a4f&#45;&gt;dir_9be0baa3d4a3e9f480a9ee70594037fa</title>
<path fill="none" stroke="black" d="M228.91,-108.1C234.45,-116.13 240.38,-125.87 245.21,-134.8"/>
<polygon fill="black" stroke="black" points="242.1,-136.4 249.78,-143.7 248.32,-133.2 242.1,-136.4"/>
<g id="a_edge12&#45;headlabel"><a xlink:href="dir_000000_000525.html" target="_top" xlink:title="3">
<text text-anchor="middle" x="237.93" y="-132" font-family="Helvetica,sans-Serif" font-size="10.00">3</text>
</a>
</g>
</g>
<!-- dir_bdd9a5d540de89e9fe90efdfc6973a4f&#45;&gt;dir_40ac35421bc63b72c26b6c69b1517fd6 -->
<g id="edge13" class="edge">
<title>dir_bdd9a5d540de89e9fe90efdfc6973a4f&#45;&gt;dir_40ac35421bc63b72c26b6c69b1517fd6</title>
<path fill="none" stroke="black" d="M207.08,-71.7C206.29,-63.98 206.06,-54.71 206.4,-46.11"/>
<polygon fill="black" stroke="black" points="209.9,-46.32 207.1,-36.1 202.92,-45.84 209.9,-46.32"/>
<g id="a_edge13&#45;headlabel"><a xlink:href="dir_000000_000215.html" target="_top" xlink:title="16">
<text text-anchor="middle" x="212.48" y="-47.61" font-family="Helvetica,sans-Serif" font-size="10.00">16</text>
</a>
</g>
</g>
</g>
</svg>
