<?xml version="1.0" encoding="UTF-8" standalone="no"?>
<!DOCTYPE svg PUBLIC "-//W3C//DTD SVG 1.1//EN"
 "http://www.w3.org/Graphics/SVG/1.1/DTD/svg11.dtd">
<!-- Generated by graphviz version 2.44.0 ()
 -->
<!-- Title: iop/dev9/hdpro_atad/src Pages: 1 -->
<svg width="133pt" height="295pt"
 viewBox="0.00 0.00 133.00 295.00" xmlns="http://www.w3.org/2000/svg" xmlns:xlink="http://www.w3.org/1999/xlink">
<g id="graph0" class="graph" transform="scale(1 1) rotate(0) translate(4 291)">
<title>iop/dev9/hdpro_atad/src</title>
<polygon fill="white" stroke="transparent" points="-4,4 -4,-291 129,-291 129,4 -4,4"/>
<g id="clust1" class="cluster">
<title>clusterdir_7e10c943c08a69732df0d9710348ffa0</title>
<g id="a_clust1"><a xlink:href="dir_7e10c943c08a69732df0d9710348ffa0.html" target="_top" xlink:title="hdpro_atad">
<polygon fill="#ddddee" stroke="black" points="8,-208 8,-279 78,-279 78,-208 8,-208"/>
<text text-anchor="middle" x="43" y="-267" font-family="Helvetica,sans-Serif" font-size="10.00">hdpro_atad</text>
</a>
</g>
</g>
<!-- dir_f5a864409d3e095bcda6e0b97e9111ab -->
<g id="node1" class="node">
<title>dir_f5a864409d3e095bcda6e0b97e9111ab</title>
<g id="a_node1"><a xlink:href="dir_f5a864409d3e095bcda6e0b97e9111ab.html" target="_top" xlink:title="src">
<polygon fill="#eeeeff" stroke="black" points="70,-252 16,-252 16,-216 70,-216 70,-252"/>
<text text-anchor="middle" x="43" y="-231.5" font-family="Helvetica,sans-Serif" font-size="10.00">src</text>
</a>
</g>
</g>
<!-- dir_9be0baa3d4a3e9f480a9ee70594037fa -->
<g id="node2" class="node">
<title>dir_9be0baa3d4a3e9f480a9ee70594037fa</title>
<g id="a_node2"><a xlink:href="dir_9be0baa3d4a3e9f480a9ee70594037fa.html" target="_top" xlink:title="kernel">
<polygon fill="white" stroke="red" points="79,-108 25,-108 25,-72 79,-72 79,-108"/>
<text text-anchor="middle" x="52" y="-87.5" font-family="Helvetica,sans-Serif" font-size="10.00">kernel</text>
</a>
</g>
</g>
<!-- dir_f5a864409d3e095bcda6e0b97e9111ab&#45;&gt;dir_9be0baa3d4a3e9f480a9ee70594037fa -->
<g id="edge2" class="edge">
<title>dir_f5a864409d3e095bcda6e0b97e9111ab&#45;&gt;dir_9be0baa3d4a3e9f480a9ee70594037fa</title>
<path fill="none" stroke="black" d="M44.09,-215.87C45.62,-191.67 48.44,-147.21 50.26,-118.39"/>
<polygon fill="black" stroke="black" points="53.77,-118.39 50.91,-108.19 46.78,-117.95 53.77,-118.39"/>
<g id="a_edge2&#45;headlabel"><a xlink:href="dir_000032_000214.html" target="_top" xlink:title="15">
<text text-anchor="middle" x="56.38" y="-119.66" font-family="Helvetica,sans-Serif" font-size="10.00">15</text>
</a>
</g>
</g>
<!-- dir_bdd9a5d540de89e9fe90efdfc6973a4f -->
<g id="node3" class="node">
<title>dir_bdd9a5d540de89e9fe90efdfc6973a4f</title>
<g id="a_node3"><a xlink:href="dir_bdd9a5d540de89e9fe90efdfc6973a4f.html" target="_top" xlink:title="common">
<polygon fill="white" stroke="red" points="79,-36 25,-36 25,0 79,0 79,-36"/>
<text text-anchor="middle" x="52" y="-15.5" font-family="Helvetica,sans-Serif" font-size="10.00">common</text>
</a>
</g>
</g>
<!-- dir_f5a864409d3e095bcda6e0b97e9111ab&#45;&gt;dir_bdd9a5d540de89e9fe90efdfc6973a4f -->
<g id="edge3" class="edge">
<title>dir_f5a864409d3e095bcda6e0b97e9111ab&#45;&gt;dir_bdd9a5d540de89e9fe90efdfc6973a4f</title>
<path fill="none" stroke="black" d="M34.98,-215.74C22.24,-185.88 0.34,-122.93 16,-72 19.01,-62.22 24.51,-52.62 30.32,-44.33"/>
<polygon fill="black" stroke="black" points="33.19,-46.33 36.39,-36.23 27.59,-42.13 33.19,-46.33"/>
<g id="a_edge3&#45;headlabel"><a xlink:href="dir_000032_000000.html" target="_top" xlink:title="1">
<text text-anchor="middle" x="33.31" y="-48.41" font-family="Helvetica,sans-Serif" font-size="10.00">1</text>
</a>
</g>
</g>
<!-- dir_c9fad5ea75093c7356ef5f2b903232b1 -->
<g id="node4" class="node">
<title>dir_c9fad5ea75093c7356ef5f2b903232b1</title>
<g id="a_node4"><a xlink:href="dir_c9fad5ea75093c7356ef5f2b903232b1.html" target="_top" xlink:title="atad">
<polygon fill="white" stroke="red" points="125,-180 71,-180 71,-144 125,-144 125,-180"/>
<text text-anchor="middle" x="98" y="-159.5" font-family="Helvetica,sans-Serif" font-size="10.00">atad</text>
</a>
</g>
</g>
<!-- dir_f5a864409d3e095bcda6e0b97e9111ab&#45;&gt;dir_c9fad5ea75093c7356ef5f2b903232b1 -->
<g id="edge4" class="edge">
<title>dir_f5a864409d3e095bcda6e0b97e9111ab&#45;&gt;dir_c9fad5ea75093c7356ef5f2b903232b1</title>
<path fill="none" stroke="black" d="M56.6,-215.7C63.12,-207.39 71.07,-197.28 78.25,-188.14"/>
<polygon fill="black" stroke="black" points="81.13,-190.13 84.56,-180.1 75.63,-185.81 81.13,-190.13"/>
<g id="a_edge4&#45;headlabel"><a xlink:href="dir_000032_000025.html" target="_top" xlink:title="1">
<text text-anchor="middle" x="81.15" y="-192.21" font-family="Helvetica,sans-Serif" font-size="10.00">1</text>
</a>
</g>
</g>
<!-- dir_9be0baa3d4a3e9f480a9ee70594037fa&#45;&gt;dir_bdd9a5d540de89e9fe90efdfc6973a4f -->
<g id="edge1" class="edge">
<title>dir_9be0baa3d4a3e9f480a9ee70594037fa&#45;&gt;dir_bdd9a5d540de89e9fe90efdfc6973a4f</title>
<path fill="none" stroke="black" d="M46.08,-71.7C45.29,-63.98 45.06,-54.71 45.4,-46.11"/>
<polygon fill="black" stroke="black" points="48.9,-46.32 46.1,-36.1 41.92,-45.84 48.9,-46.32"/>
<g id="a_edge1&#45;headlabel"><a xlink:href="dir_000214_000000.html" target="_top" xlink:title="12">
<text text-anchor="middle" x="51.48" y="-47.61" font-family="Helvetica,sans-Serif" font-size="10.00">12</text>
</a>
</g>
</g>
<!-- dir_bdd9a5d540de89e9fe90efdfc6973a4f&#45;&gt;dir_9be0baa3d4a3e9f480a9ee70594037fa -->
<g id="edge7" class="edge">
<title>dir_bdd9a5d540de89e9fe90efdfc6973a4f&#45;&gt;dir_9be0baa3d4a3e9f480a9ee70594037fa</title>
<path fill="none" stroke="black" d="M57.9,-36.1C58.7,-43.79 58.94,-53.05 58.6,-61.67"/>
<polygon fill="black" stroke="black" points="55.11,-61.48 57.92,-71.7 62.09,-61.96 55.11,-61.48"/>
<g id="a_edge7&#45;headlabel"><a xlink:href="dir_000000_000214.html" target="_top" xlink:title="20">
<text text-anchor="middle" x="52.52" y="-55.2" font-family="Helvetica,sans-Serif" font-size="10.00">20</text>
</a>
</g>
</g>
<!-- dir_c9fad5ea75093c7356ef5f2b903232b1&#45;&gt;dir_9be0baa3d4a3e9f480a9ee70594037fa -->
<g id="edge5" class="edge">
<title>dir_c9fad5ea75093c7356ef5f2b903232b1&#45;&gt;dir_9be0baa3d4a3e9f480a9ee70594037fa</title>
<path fill="none" stroke="black" d="M86.63,-143.7C81.28,-135.56 74.8,-125.69 68.89,-116.7"/>
<polygon fill="black" stroke="black" points="71.66,-114.54 63.24,-108.1 65.81,-118.38 71.66,-114.54"/>
<g id="a_edge5&#45;headlabel"><a xlink:href="dir_000025_000214.html" target="_top" xlink:title="14">
<text text-anchor="middle" x="76" y="-113.48" font-family="Helvetica,sans-Serif" font-size="10.00">14</text>
</a>
</g>
</g>
<!-- dir_c9fad5ea75093c7356ef5f2b903232b1&#45;&gt;dir_bdd9a5d540de89e9fe90efdfc6973a4f -->
<g id="edge6" class="edge">
<title>dir_c9fad5ea75093c7356ef5f2b903232b1&#45;&gt;dir_bdd9a5d540de89e9fe90efdfc6973a4f</title>
<path fill="none" stroke="black" d="M98.48,-143.71C98.44,-125.35 96.79,-95.77 88,-72 84.45,-62.4 78.8,-52.85 73.02,-44.56"/>
<polygon fill="black" stroke="black" points="75.77,-42.4 67.03,-36.42 70.14,-46.55 75.77,-42.4"/>
<g id="a_edge6&#45;headlabel"><a xlink:href="dir_000025_000000.html" target="_top" xlink:title="2">
<text text-anchor="middle" x="80.19" y="-41.11" font-family="Helvetica,sans-Serif" font-size="10.00">2</text>
</a>
</g>
</g>
</g>
</svg>
