<?xml version="1.0" encoding="UTF-8" standalone="no"?>
<!DOCTYPE svg PUBLIC "-//W3C//DTD SVG 1.1//EN"
 "http://www.w3.org/Graphics/SVG/1.1/DTD/svg11.dtd">
<!-- Generated by graphviz version 2.44.0 ()
 -->
<!-- Title: iop/system/rmman/src Pages: 1 -->
<svg width="168pt" height="223pt"
 viewBox="0.00 0.00 167.61 223.00" xmlns="http://www.w3.org/2000/svg" xmlns:xlink="http://www.w3.org/1999/xlink">
<g id="graph0" class="graph" transform="scale(1 1) rotate(0) translate(4 219)">
<title>iop/system/rmman/src</title>
<polygon fill="white" stroke="transparent" points="-4,4 -4,-219 163.61,-219 163.61,4 -4,4"/>
<g id="clust1" class="cluster">
<title>clusterdir_fe7329d8b89241d59f89f45fd75d2e77</title>
<g id="a_clust1"><a xlink:href="dir_fe7329d8b89241d59f89f45fd75d2e77.html" target="_top" xlink:title="rmman">
<polygon fill="#ddddee" stroke="black" points="8,-64 8,-207 78,-207 78,-64 8,-64"/>
<text text-anchor="middle" x="43" y="-195" font-family="Helvetica,sans-Serif" font-size="10.00">rmman</text>
</a>
</g>
</g>
<!-- dir_ba0bf5790b75dbb76cd621ad13634675 -->
<g id="node1" class="node">
<title>dir_ba0bf5790b75dbb76cd621ad13634675</title>
<g id="a_node1"><a xlink:href="dir_ba0bf5790b75dbb76cd621ad13634675.html" target="_top" xlink:title="include">
<polygon fill="none" stroke="black" points="70,-108 16,-108 16,-72 70,-72 70,-108"/>
<text text-anchor="middle" x="43" y="-87.5" font-family="Helvetica,sans-Serif" font-size="10.00">include</text>
</a>
</g>
</g>
<!-- dir_9be0baa3d4a3e9f480a9ee70594037fa -->
<g id="node4" class="node">
<title>dir_9be0baa3d4a3e9f480a9ee70594037fa</title>
<g id="a_node4"><a xlink:href="dir_9be0baa3d4a3e9f480a9ee70594037fa.html" target="_top" xlink:title="kernel">
<polygon fill="white" stroke="red" points="143,-36 89,-36 89,0 143,0 143,-36"/>
<text text-anchor="middle" x="116" y="-15.5" font-family="Helvetica,sans-Serif" font-size="10.00">kernel</text>
</a>
</g>
</g>
<!-- dir_ba0bf5790b75dbb76cd621ad13634675&#45;&gt;dir_9be0baa3d4a3e9f480a9ee70594037fa -->
<g id="edge5" class="edge">
<title>dir_ba0bf5790b75dbb76cd621ad13634675&#45;&gt;dir_9be0baa3d4a3e9f480a9ee70594037fa</title>
<path fill="none" stroke="black" d="M61.04,-71.7C70.06,-63.05 81.12,-52.45 90.94,-43.03"/>
<polygon fill="black" stroke="black" points="93.37,-45.55 98.16,-36.1 88.52,-40.5 93.37,-45.55"/>
<g id="a_edge5&#45;headlabel"><a xlink:href="dir_000297_000214.html" target="_top" xlink:title="1">
<text text-anchor="middle" x="92.74" y="-47.59" font-family="Helvetica,sans-Serif" font-size="10.00">1</text>
</a>
</g>
</g>
<!-- dir_4b4edfc69082ccc9fa978b057a42ad24 -->
<g id="node2" class="node">
<title>dir_4b4edfc69082ccc9fa978b057a42ad24</title>
<g id="a_node2"><a xlink:href="dir_4b4edfc69082ccc9fa978b057a42ad24.html" target="_top" xlink:title="src">
<polygon fill="#eeeeff" stroke="black" points="70,-180 16,-180 16,-144 70,-144 70,-180"/>
<text text-anchor="middle" x="43" y="-159.5" font-family="Helvetica,sans-Serif" font-size="10.00">src</text>
</a>
</g>
</g>
<!-- dir_4b4edfc69082ccc9fa978b057a42ad24&#45;&gt;dir_ba0bf5790b75dbb76cd621ad13634675 -->
<g id="edge3" class="edge">
<title>dir_4b4edfc69082ccc9fa978b057a42ad24&#45;&gt;dir_ba0bf5790b75dbb76cd621ad13634675</title>
<path fill="none" stroke="black" d="M43,-143.7C43,-135.98 43,-126.71 43,-118.11"/>
<polygon fill="black" stroke="black" points="46.5,-118.1 43,-108.1 39.5,-118.1 46.5,-118.1"/>
<g id="a_edge3&#45;headlabel"><a xlink:href="dir_000101_000297.html" target="_top" xlink:title="1">
<text text-anchor="middle" x="49.34" y="-119.2" font-family="Helvetica,sans-Serif" font-size="10.00">1</text>
</a>
</g>
</g>
<!-- dir_47d6ec5167f7ee6ef257538cbd6ee8bb -->
<g id="node3" class="node">
<title>dir_47d6ec5167f7ee6ef257538cbd6ee8bb</title>
<g id="a_node3"><a xlink:href="dir_47d6ec5167f7ee6ef257538cbd6ee8bb.html" target="_top" xlink:title="rsio2man">
<polygon fill="white" stroke="red" points="144,-108 88,-108 88,-72 144,-72 144,-108"/>
<text text-anchor="middle" x="116" y="-87.5" font-family="Helvetica,sans-Serif" font-size="10.00">rsio2man</text>
</a>
</g>
</g>
<!-- dir_4b4edfc69082ccc9fa978b057a42ad24&#45;&gt;dir_47d6ec5167f7ee6ef257538cbd6ee8bb -->
<g id="edge1" class="edge">
<title>dir_4b4edfc69082ccc9fa978b057a42ad24&#45;&gt;dir_47d6ec5167f7ee6ef257538cbd6ee8bb</title>
<path fill="none" stroke="black" d="M61.04,-143.7C70.06,-135.05 81.12,-124.45 90.94,-115.03"/>
<polygon fill="black" stroke="black" points="93.37,-117.55 98.16,-108.1 88.52,-112.5 93.37,-117.55"/>
<g id="a_edge1&#45;headlabel"><a xlink:href="dir_000101_000298.html" target="_top" xlink:title="2">
<text text-anchor="middle" x="92.74" y="-119.59" font-family="Helvetica,sans-Serif" font-size="10.00">2</text>
</a>
</g>
</g>
<!-- dir_4b4edfc69082ccc9fa978b057a42ad24&#45;&gt;dir_9be0baa3d4a3e9f480a9ee70594037fa -->
<g id="edge2" class="edge">
<title>dir_4b4edfc69082ccc9fa978b057a42ad24&#45;&gt;dir_9be0baa3d4a3e9f480a9ee70594037fa</title>
<path fill="none" stroke="black" d="M70.19,-156.35C96.5,-150.24 134.96,-136.72 153,-108 163.4,-91.44 159.6,-82.41 153,-64 150.47,-56.93 146.29,-50.18 141.64,-44.15"/>
<polygon fill="black" stroke="black" points="144.23,-41.8 135.11,-36.42 138.89,-46.32 144.23,-41.8"/>
<g id="a_edge2&#45;headlabel"><a xlink:href="dir_000101_000214.html" target="_top" xlink:title="16">
<text text-anchor="middle" x="148.72" y="-40.21" font-family="Helvetica,sans-Serif" font-size="10.00">16</text>
</a>
</g>
</g>
<!-- dir_47d6ec5167f7ee6ef257538cbd6ee8bb&#45;&gt;dir_9be0baa3d4a3e9f480a9ee70594037fa -->
<g id="edge4" class="edge">
<title>dir_47d6ec5167f7ee6ef257538cbd6ee8bb&#45;&gt;dir_9be0baa3d4a3e9f480a9ee70594037fa</title>
<path fill="none" stroke="black" d="M116,-71.7C116,-63.98 116,-54.71 116,-46.11"/>
<polygon fill="black" stroke="black" points="119.5,-46.1 116,-36.1 112.5,-46.1 119.5,-46.1"/>
<g id="a_edge4&#45;headlabel"><a xlink:href="dir_000298_000214.html" target="_top" xlink:title="1">
<text text-anchor="middle" x="122.34" y="-47.2" font-family="Helvetica,sans-Serif" font-size="10.00">1</text>
</a>
</g>
</g>
</g>
</svg>
