<?xml version="1.0" encoding="UTF-8" standalone="no"?>
<!DOCTYPE svg PUBLIC "-//W3C//DTD SVG 1.1//EN"
 "http://www.w3.org/Graphics/SVG/1.1/DTD/svg11.dtd">
<!-- Generated by graphviz version 2.43.0 (0)
 -->
<!-- Title: iop/usb/usbmass_bd/src Pages: 1 -->
<svg width="251pt" height="375pt"
 viewBox="0.00 0.00 251.00 375.00" xmlns="http://www.w3.org/2000/svg" xmlns:xlink="http://www.w3.org/1999/xlink">
<g id="graph0" class="graph" transform="scale(1 1) rotate(0) translate(4 371)">
<title>iop/usb/usbmass_bd/src</title>
<polygon fill="white" stroke="transparent" points="-4,4 -4,-371 247,-371 247,4 -4,4"/>
<g id="clust1" class="cluster">
<title>clusterdir_b21605a940872bbf5de5d8b063daf48d</title>
<g id="a_clust1"><a xlink:href="dir_b21605a940872bbf5de5d8b063daf48d.html" target="_top" xlink:title="usbmass_bd">
<polygon fill="#ddddee" stroke="black" points="8,-272 8,-359 166,-359 166,-272 8,-272"/>
<text text-anchor="middle" x="87" y="-347" font-family="Helvetica,sans-Serif" font-size="10.00">usbmass_bd</text>
</a>
</g>
</g>
<g id="clust2" class="cluster">
<title>clusterdir_972b40c78cb4e5b6d65cc6bc53c22b1f</title>
<g id="a_clust2"><a xlink:href="dir_972b40c78cb4e5b6d65cc6bc53c22b1f.html" target="_top">
<polygon fill="#eeeeff" stroke="black" points="16,-280 16,-332 158,-332 158,-280 16,-280"/>
</a>
</g>
</g>
<!-- dir_972b40c78cb4e5b6d65cc6bc53c22b1f -->
<g id="node1" class="node">
<title>dir_972b40c78cb4e5b6d65cc6bc53c22b1f</title>
<text text-anchor="middle" x="123" y="-303.5" font-family="Helvetica,sans-Serif" font-size="10.00">src</text>
</g>
<!-- dir_9be0baa3d4a3e9f480a9ee70594037fa -->
<g id="node3" class="node">
<title>dir_9be0baa3d4a3e9f480a9ee70594037fa</title>
<g id="a_node3"><a xlink:href="dir_9be0baa3d4a3e9f480a9ee70594037fa.html" target="_top" xlink:title="kernel">
<polygon fill="white" stroke="red" points="133,-180 79,-180 79,-144 133,-144 133,-180"/>
<text text-anchor="middle" x="106" y="-159.5" font-family="Helvetica,sans-Serif" font-size="10.00">kernel</text>
</a>
</g>
</g>
<!-- dir_972b40c78cb4e5b6d65cc6bc53c22b1f&#45;&gt;dir_9be0baa3d4a3e9f480a9ee70594037fa -->
<g id="edge2" class="edge">
<title>dir_972b40c78cb4e5b6d65cc6bc53c22b1f&#45;&gt;dir_9be0baa3d4a3e9f480a9ee70594037fa</title>
<path fill="none" stroke="black" d="M120.95,-287.87C118.05,-263.67 112.73,-219.21 109.28,-190.39"/>
<polygon fill="black" stroke="black" points="112.72,-189.7 108.06,-180.19 105.77,-190.53 112.72,-189.7"/>
<g id="a_edge2&#45;headlabel"><a xlink:href="dir_000303_000525.html" target="_top" xlink:title="2">
<text text-anchor="middle" x="115.97" y="-190.43" font-family="Helvetica,sans-Serif" font-size="10.00">2</text>
</a>
</g>
</g>
<!-- dir_40ac35421bc63b72c26b6c69b1517fd6 -->
<g id="node4" class="node">
<title>dir_40ac35421bc63b72c26b6c69b1517fd6</title>
<g id="a_node4"><a xlink:href="dir_40ac35421bc63b72c26b6c69b1517fd6.html" target="_top" xlink:title="system">
<polygon fill="white" stroke="red" points="152,-36 98,-36 98,0 152,0 152,-36"/>
<text text-anchor="middle" x="125" y="-15.5" font-family="Helvetica,sans-Serif" font-size="10.00">system</text>
</a>
</g>
</g>
<!-- dir_972b40c78cb4e5b6d65cc6bc53c22b1f&#45;&gt;dir_40ac35421bc63b72c26b6c69b1517fd6 -->
<g id="edge3" class="edge">
<title>dir_972b40c78cb4e5b6d65cc6bc53c22b1f&#45;&gt;dir_40ac35421bc63b72c26b6c69b1517fd6</title>
<path fill="none" stroke="black" d="M106.91,-287.73C101.04,-282.16 94.1,-276.31 87,-272 64.76,-258.51 46.92,-273.3 32,-252 22.82,-238.89 29.54,-231.81 32,-216 42.35,-149.62 44.77,-130.39 78,-72 83.77,-61.85 91.73,-51.94 99.45,-43.49"/>
<polygon fill="black" stroke="black" points="102.06,-45.83 106.41,-36.17 96.99,-41 102.06,-45.83"/>
<g id="a_edge3&#45;headlabel"><a xlink:href="dir_000303_000215.html" target="_top" xlink:title="13">
<text text-anchor="middle" x="101.64" y="-47.89" font-family="Helvetica,sans-Serif" font-size="10.00">13</text>
</a>
</g>
</g>
<!-- dir_8f550b51c304fe10978bfd792866fae2 -->
<g id="node5" class="node">
<title>dir_8f550b51c304fe10978bfd792866fae2</title>
<g id="a_node5"><a xlink:href="dir_8f550b51c304fe10978bfd792866fae2.html" target="_top" xlink:title="usbd">
<polygon fill="white" stroke="red" points="95,-252 41,-252 41,-216 95,-216 95,-252"/>
<text text-anchor="middle" x="68" y="-231.5" font-family="Helvetica,sans-Serif" font-size="10.00">usbd</text>
</a>
</g>
</g>
<!-- dir_972b40c78cb4e5b6d65cc6bc53c22b1f&#45;&gt;dir_8f550b51c304fe10978bfd792866fae2 -->
<g id="edge4" class="edge">
<title>dir_972b40c78cb4e5b6d65cc6bc53c22b1f&#45;&gt;dir_8f550b51c304fe10978bfd792866fae2</title>
<path fill="none" stroke="black" d="M109.4,-287.7C102.88,-279.39 94.93,-269.28 87.75,-260.14"/>
<polygon fill="black" stroke="black" points="90.37,-257.81 81.44,-252.1 84.87,-262.13 90.37,-257.81"/>
<g id="a_edge4&#45;headlabel"><a xlink:href="dir_000303_000298.html" target="_top" xlink:title="3">
<text text-anchor="middle" x="94.82" y="-256.38" font-family="Helvetica,sans-Serif" font-size="10.00">3</text>
</a>
</g>
</g>
<!-- dir_f24daea2522ffa8b6dc5fa9cdf5b8f5c -->
<g id="node6" class="node">
<title>dir_f24daea2522ffa8b6dc5fa9cdf5b8f5c</title>
<g id="a_node6"><a xlink:href="dir_f24daea2522ffa8b6dc5fa9cdf5b8f5c.html" target="_top" xlink:title="fs">
<polygon fill="white" stroke="red" points="243,-252 189,-252 189,-216 243,-216 243,-252"/>
<text text-anchor="middle" x="216" y="-231.5" font-family="Helvetica,sans-Serif" font-size="10.00">fs</text>
</a>
</g>
</g>
<!-- dir_972b40c78cb4e5b6d65cc6bc53c22b1f&#45;&gt;dir_f24daea2522ffa8b6dc5fa9cdf5b8f5c -->
<g id="edge5" class="edge">
<title>dir_972b40c78cb4e5b6d65cc6bc53c22b1f&#45;&gt;dir_f24daea2522ffa8b6dc5fa9cdf5b8f5c</title>
<path fill="none" stroke="black" d="M145.99,-287.7C157.81,-278.8 172.39,-267.82 185.18,-258.2"/>
<polygon fill="black" stroke="black" points="187.39,-260.91 193.28,-252.1 183.18,-255.32 187.39,-260.91"/>
<g id="a_edge5&#45;headlabel"><a xlink:href="dir_000303_000118.html" target="_top" xlink:title="2">
<text text-anchor="middle" x="186.23" y="-262.84" font-family="Helvetica,sans-Serif" font-size="10.00">2</text>
</a>
</g>
</g>
<!-- dir_bdd9a5d540de89e9fe90efdfc6973a4f -->
<g id="node7" class="node">
<title>dir_bdd9a5d540de89e9fe90efdfc6973a4f</title>
<g id="a_node7"><a xlink:href="dir_bdd9a5d540de89e9fe90efdfc6973a4f.html" target="_top" xlink:title="common">
<polygon fill="white" stroke="red" points="183.5,-108 124.5,-108 124.5,-72 183.5,-72 183.5,-108"/>
<text text-anchor="middle" x="154" y="-87.5" font-family="Helvetica,sans-Serif" font-size="10.00">common</text>
</a>
</g>
</g>
<!-- dir_972b40c78cb4e5b6d65cc6bc53c22b1f&#45;&gt;dir_bdd9a5d540de89e9fe90efdfc6973a4f -->
<g id="edge6" class="edge">
<title>dir_972b40c78cb4e5b6d65cc6bc53c22b1f&#45;&gt;dir_bdd9a5d540de89e9fe90efdfc6973a4f</title>
<path fill="none" stroke="black" d="M125.74,-287.62C129.51,-263.49 136.48,-218.46 142,-180 144.97,-159.3 148.12,-135.85 150.45,-118.22"/>
<polygon fill="black" stroke="black" points="153.95,-118.44 151.78,-108.07 147.01,-117.53 153.95,-118.44"/>
<g id="a_edge6&#45;headlabel"><a xlink:href="dir_000303_000000.html" target="_top" xlink:title="3">
<text text-anchor="middle" x="156.3" y="-119.88" font-family="Helvetica,sans-Serif" font-size="10.00">3</text>
</a>
</g>
</g>
<!-- dir_f44fbee28c87ccaf0699713fb55dc4d0 -->
<g id="node2" class="node">
<title>dir_f44fbee28c87ccaf0699713fb55dc4d0</title>
<g id="a_node2"><a xlink:href="dir_f44fbee28c87ccaf0699713fb55dc4d0.html" target="_top" xlink:title="include">
<polygon fill="white" stroke="black" points="78,-324 24,-324 24,-288 78,-288 78,-324"/>
<text text-anchor="middle" x="51" y="-303.5" font-family="Helvetica,sans-Serif" font-size="10.00">include</text>
</a>
</g>
</g>
<!-- dir_9be0baa3d4a3e9f480a9ee70594037fa&#45;&gt;dir_bdd9a5d540de89e9fe90efdfc6973a4f -->
<g id="edge1" class="edge">
<title>dir_9be0baa3d4a3e9f480a9ee70594037fa&#45;&gt;dir_bdd9a5d540de89e9fe90efdfc6973a4f</title>
<path fill="none" stroke="black" d="M111.95,-143.7C116.79,-135.39 123.53,-125.28 130.25,-116.14"/>
<polygon fill="black" stroke="black" points="133.1,-118.18 136.38,-108.1 127.53,-113.94 133.1,-118.18"/>
<g id="a_edge1&#45;headlabel"><a xlink:href="dir_000525_000000.html" target="_top" xlink:title="2">
<text text-anchor="middle" x="133.18" y="-120.26" font-family="Helvetica,sans-Serif" font-size="10.00">2</text>
</a>
</g>
</g>
<!-- dir_40ac35421bc63b72c26b6c69b1517fd6&#45;&gt;dir_9be0baa3d4a3e9f480a9ee70594037fa -->
<g id="edge7" class="edge">
<title>dir_40ac35421bc63b72c26b6c69b1517fd6&#45;&gt;dir_9be0baa3d4a3e9f480a9ee70594037fa</title>
<path fill="none" stroke="black" d="M121.38,-36.12C119.29,-46.47 116.74,-59.95 115,-72 112.02,-92.62 109.69,-116.07 108.15,-133.72"/>
<polygon fill="black" stroke="black" points="104.64,-133.63 107.29,-143.88 111.62,-134.21 104.64,-133.63"/>
<g id="a_edge7&#45;headlabel"><a xlink:href="dir_000215_000525.html" target="_top" xlink:title="105">
<text text-anchor="middle" x="102.12" y="-127.31" font-family="Helvetica,sans-Serif" font-size="10.00">105</text>
</a>
</g>
</g>
<!-- dir_40ac35421bc63b72c26b6c69b1517fd6&#45;&gt;dir_bdd9a5d540de89e9fe90efdfc6973a4f -->
<g id="edge8" class="edge">
<title>dir_40ac35421bc63b72c26b6c69b1517fd6&#45;&gt;dir_bdd9a5d540de89e9fe90efdfc6973a4f</title>
<path fill="none" stroke="black" d="M137.98,-36.1C142.06,-43.96 146.22,-53.46 149.49,-62.23"/>
<polygon fill="black" stroke="black" points="146.18,-63.38 152.75,-71.7 152.8,-61.1 146.18,-63.38"/>
<g id="a_edge8&#45;headlabel"><a xlink:href="dir_000215_000000.html" target="_top" xlink:title="32">
<text text-anchor="middle" x="142.33" y="-58.4" font-family="Helvetica,sans-Serif" font-size="10.00">32</text>
</a>
</g>
</g>
<!-- dir_8f550b51c304fe10978bfd792866fae2&#45;&gt;dir_9be0baa3d4a3e9f480a9ee70594037fa -->
<g id="edge9" class="edge">
<title>dir_8f550b51c304fe10978bfd792866fae2&#45;&gt;dir_9be0baa3d4a3e9f480a9ee70594037fa</title>
<path fill="none" stroke="black" d="M77.39,-215.7C81.76,-207.64 87.06,-197.89 91.9,-188.98"/>
<polygon fill="black" stroke="black" points="95.02,-190.56 96.71,-180.1 88.87,-187.22 95.02,-190.56"/>
<g id="a_edge9&#45;headlabel"><a xlink:href="dir_000298_000525.html" target="_top" xlink:title="3">
<text text-anchor="middle" x="95.8" y="-192.58" font-family="Helvetica,sans-Serif" font-size="10.00">3</text>
</a>
</g>
</g>
<!-- dir_8f550b51c304fe10978bfd792866fae2&#45;&gt;dir_40ac35421bc63b72c26b6c69b1517fd6 -->
<g id="edge10" class="edge">
<title>dir_8f550b51c304fe10978bfd792866fae2&#45;&gt;dir_40ac35421bc63b72c26b6c69b1517fd6</title>
<path fill="none" stroke="black" d="M66.42,-215.7C65.21,-197.59 64.57,-168.44 70,-144 77.98,-108.04 96.54,-69.68 109.89,-45.09"/>
<polygon fill="black" stroke="black" points="113.11,-46.5 114.89,-36.06 106.98,-43.11 113.11,-46.5"/>
<g id="a_edge10&#45;headlabel"><a xlink:href="dir_000298_000215.html" target="_top" xlink:title="8">
<text text-anchor="middle" x="113.85" y="-48.52" font-family="Helvetica,sans-Serif" font-size="10.00">8</text>
</a>
</g>
</g>
<!-- dir_f24daea2522ffa8b6dc5fa9cdf5b8f5c&#45;&gt;dir_9be0baa3d4a3e9f480a9ee70594037fa -->
<g id="edge11" class="edge">
<title>dir_f24daea2522ffa8b6dc5fa9cdf5b8f5c&#45;&gt;dir_9be0baa3d4a3e9f480a9ee70594037fa</title>
<path fill="none" stroke="black" d="M189.09,-215.88C174.84,-206.81 157.15,-195.55 141.76,-185.76"/>
<polygon fill="black" stroke="black" points="143.33,-182.61 133.01,-180.19 139.57,-188.51 143.33,-182.61"/>
<g id="a_edge11&#45;headlabel"><a xlink:href="dir_000118_000525.html" target="_top" xlink:title="29">
<text text-anchor="middle" x="147.89" y="-179.64" font-family="Helvetica,sans-Serif" font-size="10.00">29</text>
</a>
</g>
</g>
<!-- dir_f24daea2522ffa8b6dc5fa9cdf5b8f5c&#45;&gt;dir_40ac35421bc63b72c26b6c69b1517fd6 -->
<g id="edge12" class="edge">
<title>dir_f24daea2522ffa8b6dc5fa9cdf5b8f5c&#45;&gt;dir_40ac35421bc63b72c26b6c69b1517fd6</title>
<path fill="none" stroke="black" d="M217.4,-215.68C219.09,-184.65 218.9,-118.47 192,-72 184.47,-58.99 172.39,-47.97 160.55,-39.4"/>
<polygon fill="black" stroke="black" points="162.28,-36.34 152.04,-33.61 158.34,-42.13 162.28,-36.34"/>
<g id="a_edge12&#45;headlabel"><a xlink:href="dir_000118_000215.html" target="_top" xlink:title="192">
<text text-anchor="middle" x="166.85" y="-33.52" font-family="Helvetica,sans-Serif" font-size="10.00">192</text>
</a>
</g>
</g>
<!-- dir_f24daea2522ffa8b6dc5fa9cdf5b8f5c&#45;&gt;dir_bdd9a5d540de89e9fe90efdfc6973a4f -->
<g id="edge13" class="edge">
<title>dir_f24daea2522ffa8b6dc5fa9cdf5b8f5c&#45;&gt;dir_bdd9a5d540de89e9fe90efdfc6973a4f</title>
<path fill="none" stroke="black" d="M208.52,-215.87C197.86,-191.46 178.2,-146.43 165.63,-117.64"/>
<polygon fill="black" stroke="black" points="168.71,-115.95 161.51,-108.19 162.3,-118.75 168.71,-115.95"/>
<g id="a_edge13&#45;headlabel"><a xlink:href="dir_000118_000000.html" target="_top" xlink:title="25">
<text text-anchor="middle" x="172.75" y="-115.61" font-family="Helvetica,sans-Serif" font-size="10.00">25</text>
</a>
</g>
</g>
<!-- dir_bdd9a5d540de89e9fe90efdfc6973a4f&#45;&gt;dir_9be0baa3d4a3e9f480a9ee70594037fa -->
<g id="edge14" class="edge">
<title>dir_bdd9a5d540de89e9fe90efdfc6973a4f&#45;&gt;dir_9be0baa3d4a3e9f480a9ee70594037fa</title>
<path fill="none" stroke="black" d="M148.17,-108.1C143.36,-116.38 136.64,-126.49 129.91,-135.64"/>
<polygon fill="black" stroke="black" points="127.05,-133.62 123.78,-143.7 132.62,-137.85 127.05,-133.62"/>
<g id="a_edge14&#45;headlabel"><a xlink:href="dir_000000_000525.html" target="_top" xlink:title="3">
<text text-anchor="middle" x="126.96" y="-126.54" font-family="Helvetica,sans-Serif" font-size="10.00">3</text>
</a>
</g>
</g>
<!-- dir_bdd9a5d540de89e9fe90efdfc6973a4f&#45;&gt;dir_40ac35421bc63b72c26b6c69b1517fd6 -->
<g id="edge15" class="edge">
<title>dir_bdd9a5d540de89e9fe90efdfc6973a4f&#45;&gt;dir_40ac35421bc63b72c26b6c69b1517fd6</title>
<path fill="none" stroke="black" d="M140.92,-71.7C136.88,-63.9 132.77,-54.51 129.53,-45.83"/>
<polygon fill="black" stroke="black" points="132.75,-44.43 126.19,-36.1 126.13,-46.7 132.75,-44.43"/>
<g id="a_edge15&#45;headlabel"><a xlink:href="dir_000000_000215.html" target="_top" xlink:title="16">
<text text-anchor="middle" x="136.6" y="-44.4" font-family="Helvetica,sans-Serif" font-size="10.00">16</text>
</a>
</g>
</g>
</g>
</svg>
