<?xml version="1.0" encoding="UTF-8" standalone="no"?>
<!DOCTYPE svg PUBLIC "-//W3C//DTD SVG 1.1//EN"
 "http://www.w3.org/Graphics/SVG/1.1/DTD/svg11.dtd">
<!-- Generated by graphviz version 2.44.0 ()
 -->
<!-- Title: ee/kernel/src/tlbsrc Pages: 1 -->
<svg width="186pt" height="231pt"
 viewBox="0.00 0.00 186.00 231.00" xmlns="http://www.w3.org/2000/svg" xmlns:xlink="http://www.w3.org/1999/xlink">
<g id="graph0" class="graph" transform="scale(1 1) rotate(0) translate(4 227)">
<title>ee/kernel/src/tlbsrc</title>
<polygon fill="white" stroke="transparent" points="-4,4 -4,-227 182,-227 182,4 -4,4"/>
<g id="clust1" class="cluster">
<title>clusterdir_a493926c6e9678712bca5b1e822bb94f</title>
<g id="a_clust1"><a xlink:href="dir_a493926c6e9678712bca5b1e822bb94f.html" target="_top" xlink:title="src">
<polygon fill="#ddddee" stroke="black" points="12,-128 12,-215 170,-215 170,-128 12,-128"/>
<text text-anchor="middle" x="91" y="-203" font-family="Helvetica,sans-Serif" font-size="10.00">src</text>
</a>
</g>
</g>
<g id="clust2" class="cluster">
<title>clusterdir_9a87498b9a1b570e9d1e3baca4c4d515</title>
<g id="a_clust2"><a xlink:href="dir_9a87498b9a1b570e9d1e3baca4c4d515.html" target="_top">
<polygon fill="#eeeeff" stroke="black" points="20,-136 20,-188 162,-188 162,-136 20,-136"/>
</a>
</g>
</g>
<!-- dir_9a87498b9a1b570e9d1e3baca4c4d515 -->
<g id="node1" class="node">
<title>dir_9a87498b9a1b570e9d1e3baca4c4d515</title>
<text text-anchor="middle" x="127" y="-159.5" font-family="Helvetica,sans-Serif" font-size="10.00">tlbsrc</text>
</g>
<!-- dir_4bea4738b41f5b6c7a7d9f127adc10f0 -->
<g id="node2" class="node">
<title>dir_4bea4738b41f5b6c7a7d9f127adc10f0</title>
<g id="a_node2"><a xlink:href="dir_4bea4738b41f5b6c7a7d9f127adc10f0.html" target="_top" xlink:title="src">
<polygon fill="white" stroke="black" points="82,-180 28,-180 28,-144 82,-144 82,-180"/>
<text text-anchor="middle" x="55" y="-159.5" font-family="Helvetica,sans-Serif" font-size="10.00">src</text>
</a>
</g>
</g>
<!-- dir_8a6a67431f985d69787ebf051412922f -->
<g id="node3" class="node">
<title>dir_8a6a67431f985d69787ebf051412922f</title>
<g id="a_node3"><a xlink:href="dir_8a6a67431f985d69787ebf051412922f.html" target="_top" xlink:title="include">
<polygon fill="none" stroke="black" points="54,-108 0,-108 0,-72 54,-72 54,-108"/>
<text text-anchor="middle" x="27" y="-87.5" font-family="Helvetica,sans-Serif" font-size="10.00">include</text>
</a>
</g>
</g>
<!-- dir_4bea4738b41f5b6c7a7d9f127adc10f0&#45;&gt;dir_8a6a67431f985d69787ebf051412922f -->
<g id="edge1" class="edge">
<title>dir_4bea4738b41f5b6c7a7d9f127adc10f0&#45;&gt;dir_8a6a67431f985d69787ebf051412922f</title>
<path fill="none" stroke="black" d="M48.08,-143.7C44.93,-135.81 41.12,-126.3 37.62,-117.55"/>
<polygon fill="black" stroke="black" points="40.81,-116.09 33.84,-108.1 34.31,-118.69 40.81,-116.09"/>
<g id="a_edge1&#45;headlabel"><a xlink:href="dir_000223_000213.html" target="_top" xlink:title="1">
<text text-anchor="middle" x="44.78" y="-115.87" font-family="Helvetica,sans-Serif" font-size="10.00">1</text>
</a>
</g>
</g>
<!-- dir_bdd9a5d540de89e9fe90efdfc6973a4f -->
<g id="node4" class="node">
<title>dir_bdd9a5d540de89e9fe90efdfc6973a4f</title>
<g id="a_node4"><a xlink:href="dir_bdd9a5d540de89e9fe90efdfc6973a4f.html" target="_top" xlink:title="common">
<polygon fill="white" stroke="red" points="54,-36 0,-36 0,0 54,0 54,-36"/>
<text text-anchor="middle" x="27" y="-15.5" font-family="Helvetica,sans-Serif" font-size="10.00">common</text>
</a>
</g>
</g>
<!-- dir_4bea4738b41f5b6c7a7d9f127adc10f0&#45;&gt;dir_bdd9a5d540de89e9fe90efdfc6973a4f -->
<g id="edge2" class="edge">
<title>dir_4bea4738b41f5b6c7a7d9f127adc10f0&#45;&gt;dir_bdd9a5d540de89e9fe90efdfc6973a4f</title>
<path fill="none" stroke="black" d="M60.34,-143.87C65.16,-125.64 70.43,-96.17 63,-72 59.99,-62.22 54.49,-52.62 48.68,-44.33"/>
<polygon fill="black" stroke="black" points="51.41,-42.13 42.61,-36.23 45.81,-46.33 51.41,-42.13"/>
<g id="a_edge2&#45;headlabel"><a xlink:href="dir_000223_000000.html" target="_top" xlink:title="1">
<text text-anchor="middle" x="55.83" y="-40.8" font-family="Helvetica,sans-Serif" font-size="10.00">1</text>
</a>
</g>
</g>
<!-- dir_8a6a67431f985d69787ebf051412922f&#45;&gt;dir_bdd9a5d540de89e9fe90efdfc6973a4f -->
<g id="edge4" class="edge">
<title>dir_8a6a67431f985d69787ebf051412922f&#45;&gt;dir_bdd9a5d540de89e9fe90efdfc6973a4f</title>
<path fill="none" stroke="black" d="M21.08,-71.7C20.29,-63.98 20.06,-54.71 20.4,-46.11"/>
<polygon fill="black" stroke="black" points="23.9,-46.32 21.1,-36.1 16.92,-45.84 23.9,-46.32"/>
<g id="a_edge4&#45;headlabel"><a xlink:href="dir_000213_000000.html" target="_top" xlink:title="7">
<text text-anchor="middle" x="26.48" y="-47.61" font-family="Helvetica,sans-Serif" font-size="10.00">7</text>
</a>
</g>
</g>
<!-- dir_bdd9a5d540de89e9fe90efdfc6973a4f&#45;&gt;dir_8a6a67431f985d69787ebf051412922f -->
<g id="edge3" class="edge">
<title>dir_bdd9a5d540de89e9fe90efdfc6973a4f&#45;&gt;dir_8a6a67431f985d69787ebf051412922f</title>
<path fill="none" stroke="black" d="M32.9,-36.1C33.7,-43.79 33.94,-53.05 33.6,-61.67"/>
<polygon fill="black" stroke="black" points="30.11,-61.48 32.92,-71.7 37.09,-61.96 30.11,-61.48"/>
<g id="a_edge3&#45;headlabel"><a xlink:href="dir_000000_000213.html" target="_top" xlink:title="1">
<text text-anchor="middle" x="27.52" y="-55.2" font-family="Helvetica,sans-Serif" font-size="10.00">1</text>
</a>
</g>
</g>
</g>
</svg>
