<?xml version="1.0" encoding="UTF-8" standalone="no"?>
<!DOCTYPE svg PUBLIC "-//W3C//DTD SVG 1.1//EN"
 "http://www.w3.org/Graphics/SVG/1.1/DTD/svg11.dtd">
<!-- Generated by graphviz version 2.43.0 (0)
 -->
<!-- Title: iop/sound Pages: 1 -->
<svg width="967pt" height="375pt"
 viewBox="0.00 0.00 966.93 375.00" xmlns="http://www.w3.org/2000/svg" xmlns:xlink="http://www.w3.org/1999/xlink">
<g id="graph0" class="graph" transform="scale(1 1) rotate(0) translate(4 371)">
<title>iop/sound</title>
<polygon fill="white" stroke="transparent" points="-4,4 -4,-371 962.93,-371 962.93,4 -4,4"/>
<g id="clust1" class="cluster">
<title>clusterdir_0981ace215aa2029f526b70c145b9fbe</title>
<g id="a_clust1"><a xlink:href="dir_0981ace215aa2029f526b70c145b9fbe.html" target="_top" xlink:title="iop">
<polygon fill="#ddddee" stroke="black" points="8,-200 8,-359 824,-359 824,-200 8,-200"/>
<text text-anchor="middle" x="416" y="-347" font-family="Helvetica,sans-Serif" font-size="10.00">iop</text>
</a>
</g>
</g>
<g id="clust2" class="cluster">
<title>clusterdir_838e88315325ec0d843359dcae22d639</title>
<g id="a_clust2"><a xlink:href="dir_838e88315325ec0d843359dcae22d639.html" target="_top">
<polygon fill="#eeeeff" stroke="black" points="16,-208 16,-332 816,-332 816,-208 16,-208"/>
</a>
</g>
</g>
<!-- dir_838e88315325ec0d843359dcae22d639 -->
<g id="node1" class="node">
<title>dir_838e88315325ec0d843359dcae22d639</title>
<text text-anchor="middle" x="781" y="-303.5" font-family="Helvetica,sans-Serif" font-size="10.00">sound</text>
</g>
<!-- dir_9337eeae2b875a84dbe6e00bf944922d -->
<g id="node2" class="node">
<title>dir_9337eeae2b875a84dbe6e00bf944922d</title>
<g id="a_node2"><a xlink:href="dir_9337eeae2b875a84dbe6e00bf944922d.html" target="_top" xlink:title="ahx">
<polygon fill="white" stroke="red" points="298,-324 244,-324 244,-288 298,-288 298,-324"/>
<text text-anchor="middle" x="271" y="-303.5" font-family="Helvetica,sans-Serif" font-size="10.00">ahx</text>
</a>
</g>
</g>
<!-- dir_b3b65c61938638f28675fc77a7fe35e3 -->
<g id="node5" class="node">
<title>dir_b3b65c61938638f28675fc77a7fe35e3</title>
<g id="a_node5"><a xlink:href="dir_b3b65c61938638f28675fc77a7fe35e3.html" target="_top" xlink:title="libsd">
<polygon fill="white" stroke="red" points="710,-252 656,-252 656,-216 710,-216 710,-252"/>
<text text-anchor="middle" x="683" y="-231.5" font-family="Helvetica,sans-Serif" font-size="10.00">libsd</text>
</a>
</g>
</g>
<!-- dir_9337eeae2b875a84dbe6e00bf944922d&#45;&gt;dir_b3b65c61938638f28675fc77a7fe35e3 -->
<g id="edge6" class="edge">
<title>dir_9337eeae2b875a84dbe6e00bf944922d&#45;&gt;dir_b3b65c61938638f28675fc77a7fe35e3</title>
<path fill="none" stroke="black" d="M298.18,-291.13C301.11,-289.95 304.09,-288.87 307,-288 427.5,-251.96 577.24,-240.2 645.7,-236.55"/>
<polygon fill="black" stroke="black" points="646.16,-240.03 655.97,-236.03 645.81,-233.04 646.16,-240.03"/>
<g id="a_edge6&#45;headlabel"><a xlink:href="dir_000197_000203.html" target="_top" xlink:title="1">
<text text-anchor="middle" x="642.71" y="-240.55" font-family="Helvetica,sans-Serif" font-size="10.00">1</text>
</a>
</g>
</g>
<!-- dir_9be0baa3d4a3e9f480a9ee70594037fa -->
<g id="node13" class="node">
<title>dir_9be0baa3d4a3e9f480a9ee70594037fa</title>
<g id="a_node13"><a xlink:href="dir_9be0baa3d4a3e9f480a9ee70594037fa.html" target="_top" xlink:title="kernel">
<polygon fill="white" stroke="red" points="886,-252 832,-252 832,-216 886,-216 886,-252"/>
<text text-anchor="middle" x="859" y="-231.5" font-family="Helvetica,sans-Serif" font-size="10.00">kernel</text>
</a>
</g>
</g>
<!-- dir_9337eeae2b875a84dbe6e00bf944922d&#45;&gt;dir_9be0baa3d4a3e9f480a9ee70594037fa -->
<g id="edge4" class="edge">
<title>dir_9337eeae2b875a84dbe6e00bf944922d&#45;&gt;dir_9be0baa3d4a3e9f480a9ee70594037fa</title>
<path fill="none" stroke="black" d="M298.12,-290.92C301.06,-289.78 304.06,-288.77 307,-288 528.13,-230.21 598.02,-306.45 820,-252 820.73,-251.82 821.46,-251.63 822.19,-251.43"/>
<polygon fill="black" stroke="black" points="823.32,-254.74 831.71,-248.27 821.12,-248.1 823.32,-254.74"/>
<g id="a_edge4&#45;headlabel"><a xlink:href="dir_000197_000525.html" target="_top" xlink:title="1">
<text text-anchor="middle" x="820.8" y="-256.07" font-family="Helvetica,sans-Serif" font-size="10.00">1</text>
</a>
</g>
</g>
<!-- dir_40ac35421bc63b72c26b6c69b1517fd6 -->
<g id="node14" class="node">
<title>dir_40ac35421bc63b72c26b6c69b1517fd6</title>
<g id="a_node14"><a xlink:href="dir_40ac35421bc63b72c26b6c69b1517fd6.html" target="_top" xlink:title="system">
<polygon fill="white" stroke="red" points="575,-36 521,-36 521,0 575,0 575,-36"/>
<text text-anchor="middle" x="548" y="-15.5" font-family="Helvetica,sans-Serif" font-size="10.00">system</text>
</a>
</g>
</g>
<!-- dir_9337eeae2b875a84dbe6e00bf944922d&#45;&gt;dir_40ac35421bc63b72c26b6c69b1517fd6 -->
<g id="edge5" class="edge">
<title>dir_9337eeae2b875a84dbe6e00bf944922d&#45;&gt;dir_40ac35421bc63b72c26b6c69b1517fd6</title>
<path fill="none" stroke="black" d="M285.75,-287.7C329.05,-237.01 454.05,-91.12 475,-72 486.75,-61.28 500.66,-50.72 513.18,-41.89"/>
<polygon fill="black" stroke="black" points="515.35,-44.64 521.58,-36.06 511.36,-38.89 515.35,-44.64"/>
<g id="a_edge5&#45;headlabel"><a xlink:href="dir_000197_000215.html" target="_top" xlink:title="13">
<text text-anchor="middle" x="514.02" y="-46.52" font-family="Helvetica,sans-Serif" font-size="10.00">13</text>
</a>
</g>
</g>
<!-- dir_c224f8f6f41c46dc69cc573710289bc0 -->
<g id="node3" class="node">
<title>dir_c224f8f6f41c46dc69cc573710289bc0</title>
<g id="a_node3"><a xlink:href="dir_c224f8f6f41c46dc69cc573710289bc0.html" target="_top" xlink:title="audsrv">
<polygon fill="white" stroke="red" points="736,-324 682,-324 682,-288 736,-288 736,-324"/>
<text text-anchor="middle" x="709" y="-303.5" font-family="Helvetica,sans-Serif" font-size="10.00">audsrv</text>
</a>
</g>
</g>
<!-- dir_c224f8f6f41c46dc69cc573710289bc0&#45;&gt;dir_9be0baa3d4a3e9f480a9ee70594037fa -->
<g id="edge31" class="edge">
<title>dir_c224f8f6f41c46dc69cc573710289bc0&#45;&gt;dir_9be0baa3d4a3e9f480a9ee70594037fa</title>
<path fill="none" stroke="black" d="M736.12,-292.17C739.11,-290.76 742.12,-289.35 745,-288 770.94,-275.85 800.25,-262.22 822.65,-251.83"/>
<polygon fill="black" stroke="black" points="824.2,-254.97 831.8,-247.59 821.25,-248.62 824.2,-254.97"/>
<g id="a_edge31&#45;headlabel"><a xlink:href="dir_000199_000525.html" target="_top" xlink:title="2">
<text text-anchor="middle" x="822.13" y="-256.56" font-family="Helvetica,sans-Serif" font-size="10.00">2</text>
</a>
</g>
</g>
<!-- dir_c224f8f6f41c46dc69cc573710289bc0&#45;&gt;dir_40ac35421bc63b72c26b6c69b1517fd6 -->
<g id="edge32" class="edge">
<title>dir_c224f8f6f41c46dc69cc573710289bc0&#45;&gt;dir_40ac35421bc63b72c26b6c69b1517fd6</title>
<path fill="none" stroke="black" d="M683.28,-287.85C670.89,-278.5 656.67,-265.98 647,-252 598.62,-182.04 619.64,-148.27 582,-72 577.4,-62.69 571.54,-52.99 565.97,-44.47"/>
<polygon fill="black" stroke="black" points="568.83,-42.45 560.36,-36.09 563.02,-46.34 568.83,-42.45"/>
<g id="a_edge32&#45;headlabel"><a xlink:href="dir_000199_000215.html" target="_top" xlink:title="49">
<text text-anchor="middle" x="573.19" y="-41.35" font-family="Helvetica,sans-Serif" font-size="10.00">49</text>
</a>
</g>
</g>
<!-- dir_a12d8da7b0731a57c6a388326ad5e612 -->
<g id="node15" class="node">
<title>dir_a12d8da7b0731a57c6a388326ad5e612</title>
<g id="a_node15"><a xlink:href="dir_a12d8da7b0731a57c6a388326ad5e612.html" target="_top" xlink:title="cdvd">
<polygon fill="white" stroke="red" points="838,-108 784,-108 784,-72 838,-72 838,-108"/>
<text text-anchor="middle" x="811" y="-87.5" font-family="Helvetica,sans-Serif" font-size="10.00">cdvd</text>
</a>
</g>
</g>
<!-- dir_c224f8f6f41c46dc69cc573710289bc0&#45;&gt;dir_a12d8da7b0731a57c6a388326ad5e612 -->
<g id="edge33" class="edge">
<title>dir_c224f8f6f41c46dc69cc573710289bc0&#45;&gt;dir_a12d8da7b0731a57c6a388326ad5e612</title>
<path fill="none" stroke="black" d="M736.21,-291.24C739.14,-290.03 742.1,-288.92 745,-288 831.88,-260.29 888.45,-321.91 947,-252 990.31,-200.29 900.73,-139.57 847.19,-109.63"/>
<polygon fill="black" stroke="black" points="848.74,-106.49 838.29,-104.75 845.37,-112.63 848.74,-106.49"/>
<g id="a_edge33&#45;headlabel"><a xlink:href="dir_000199_000061.html" target="_top" xlink:title="2">
<text text-anchor="middle" x="853.26" y="-103.23" font-family="Helvetica,sans-Serif" font-size="10.00">2</text>
</a>
</g>
</g>
<!-- dir_ec70ebae439c2e5e4973a97a9e3f90a5 -->
<g id="node4" class="node">
<title>dir_ec70ebae439c2e5e4973a97a9e3f90a5</title>
<g id="a_node4"><a xlink:href="dir_ec70ebae439c2e5e4973a97a9e3f90a5.html" target="_top" xlink:title="clearspu">
<polygon fill="white" stroke="red" points="226,-324 168,-324 168,-288 226,-288 226,-324"/>
<text text-anchor="middle" x="197" y="-303.5" font-family="Helvetica,sans-Serif" font-size="10.00">clearspu</text>
</a>
</g>
</g>
<!-- dir_ec70ebae439c2e5e4973a97a9e3f90a5&#45;&gt;dir_9be0baa3d4a3e9f480a9ee70594037fa -->
<g id="edge24" class="edge">
<title>dir_ec70ebae439c2e5e4973a97a9e3f90a5&#45;&gt;dir_9be0baa3d4a3e9f480a9ee70594037fa</title>
<path fill="none" stroke="black" d="M226.09,-290.74C229.05,-289.67 232.05,-288.72 235,-288 487.96,-225.81 566.74,-312.97 820,-252 820.73,-251.82 821.46,-251.64 822.19,-251.44"/>
<polygon fill="black" stroke="black" points="823.31,-254.75 831.72,-248.31 821.12,-248.1 823.31,-254.75"/>
<g id="a_edge24&#45;headlabel"><a xlink:href="dir_000201_000525.html" target="_top" xlink:title="1">
<text text-anchor="middle" x="820.78" y="-256.07" font-family="Helvetica,sans-Serif" font-size="10.00">1</text>
</a>
</g>
</g>
<!-- dir_ec70ebae439c2e5e4973a97a9e3f90a5&#45;&gt;dir_40ac35421bc63b72c26b6c69b1517fd6 -->
<g id="edge25" class="edge">
<title>dir_ec70ebae439c2e5e4973a97a9e3f90a5&#45;&gt;dir_40ac35421bc63b72c26b6c69b1517fd6</title>
<path fill="none" stroke="black" d="M211.25,-287.86C246.33,-246.48 341.08,-139.56 438,-72 460.87,-56.05 489.28,-42.5 511.5,-33.1"/>
<polygon fill="black" stroke="black" points="513.02,-36.26 520.92,-29.2 510.34,-29.79 513.02,-36.26"/>
<g id="a_edge25&#45;headlabel"><a xlink:href="dir_000201_000215.html" target="_top" xlink:title="4">
<text text-anchor="middle" x="510.78" y="-37.75" font-family="Helvetica,sans-Serif" font-size="10.00">4</text>
</a>
</g>
</g>
<!-- dir_b3b65c61938638f28675fc77a7fe35e3&#45;&gt;dir_9be0baa3d4a3e9f480a9ee70594037fa -->
<g id="edge18" class="edge">
<title>dir_b3b65c61938638f28675fc77a7fe35e3&#45;&gt;dir_9be0baa3d4a3e9f480a9ee70594037fa</title>
<path fill="none" stroke="black" d="M710.16,-234C747.27,-234 784.38,-234 821.5,-234"/>
<polygon fill="black" stroke="black" points="821.96,-237.5 831.96,-234 821.96,-230.5 821.96,-237.5"/>
<g id="a_edge18&#45;headlabel"><a xlink:href="dir_000203_000525.html" target="_top" xlink:title="4">
<text text-anchor="middle" x="818.37" y="-237.84" font-family="Helvetica,sans-Serif" font-size="10.00">4</text>
</a>
</g>
</g>
<!-- dir_b3b65c61938638f28675fc77a7fe35e3&#45;&gt;dir_40ac35421bc63b72c26b6c69b1517fd6 -->
<g id="edge19" class="edge">
<title>dir_b3b65c61938638f28675fc77a7fe35e3&#45;&gt;dir_40ac35421bc63b72c26b6c69b1517fd6</title>
<path fill="none" stroke="black" d="M682.32,-215.88C680.25,-184.29 671.88,-116.06 638,-72 624.35,-54.25 602.93,-41.29 584.41,-32.64"/>
<polygon fill="black" stroke="black" points="585.61,-29.34 575.05,-28.5 582.78,-35.74 585.61,-29.34"/>
<g id="a_edge19&#45;headlabel"><a xlink:href="dir_000203_000215.html" target="_top" xlink:title="12">
<text text-anchor="middle" x="590.04" y="-25.69" font-family="Helvetica,sans-Serif" font-size="10.00">12</text>
</a>
</g>
</g>
<!-- dir_bdd9a5d540de89e9fe90efdfc6973a4f -->
<g id="node16" class="node">
<title>dir_bdd9a5d540de89e9fe90efdfc6973a4f</title>
<g id="a_node16"><a xlink:href="dir_bdd9a5d540de89e9fe90efdfc6973a4f.html" target="_top" xlink:title="common">
<polygon fill="white" stroke="red" points="830.5,-180 771.5,-180 771.5,-144 830.5,-144 830.5,-180"/>
<text text-anchor="middle" x="801" y="-159.5" font-family="Helvetica,sans-Serif" font-size="10.00">common</text>
</a>
</g>
</g>
<!-- dir_b3b65c61938638f28675fc77a7fe35e3&#45;&gt;dir_bdd9a5d540de89e9fe90efdfc6973a4f -->
<g id="edge20" class="edge">
<title>dir_b3b65c61938638f28675fc77a7fe35e3&#45;&gt;dir_bdd9a5d540de89e9fe90efdfc6973a4f</title>
<path fill="none" stroke="black" d="M710.11,-216.67C718.98,-211.34 728.9,-205.4 738,-200 746.09,-195.2 754.78,-190.07 763.04,-185.21"/>
<polygon fill="black" stroke="black" points="764.95,-188.16 771.8,-180.07 761.4,-182.12 764.95,-188.16"/>
<g id="a_edge20&#45;headlabel"><a xlink:href="dir_000203_000000.html" target="_top" xlink:title="1">
<text text-anchor="middle" x="763.28" y="-189.92" font-family="Helvetica,sans-Serif" font-size="10.00">1</text>
</a>
</g>
</g>
<!-- dir_0b9117660766c284fe50bbf9fd6992c7 -->
<g id="node6" class="node">
<title>dir_0b9117660766c284fe50bbf9fd6992c7</title>
<g id="a_node6"><a xlink:href="dir_0b9117660766c284fe50bbf9fd6992c7.html" target="_top" xlink:title="libsnd2">
<polygon fill="white" stroke="red" points="78,-324 24,-324 24,-288 78,-288 78,-324"/>
<text text-anchor="middle" x="51" y="-303.5" font-family="Helvetica,sans-Serif" font-size="10.00">libsnd2</text>
</a>
</g>
</g>
<!-- dir_0b9117660766c284fe50bbf9fd6992c7&#45;&gt;dir_40ac35421bc63b72c26b6c69b1517fd6 -->
<g id="edge26" class="edge">
<title>dir_0b9117660766c284fe50bbf9fd6992c7&#45;&gt;dir_40ac35421bc63b72c26b6c69b1517fd6</title>
<path fill="none" stroke="black" d="M66.11,-287.71C105.27,-244.07 215.2,-128.88 332,-72 390.81,-43.36 466.38,-29.42 510.77,-23.26"/>
<polygon fill="black" stroke="black" points="511.37,-26.71 520.82,-21.92 510.45,-19.77 511.37,-26.71"/>
<g id="a_edge26&#45;headlabel"><a xlink:href="dir_000539_000215.html" target="_top" xlink:title="6">
<text text-anchor="middle" x="508.18" y="-27.5" font-family="Helvetica,sans-Serif" font-size="10.00">6</text>
</a>
</g>
</g>
<!-- dir_0b9117660766c284fe50bbf9fd6992c7&#45;&gt;dir_bdd9a5d540de89e9fe90efdfc6973a4f -->
<g id="edge27" class="edge">
<title>dir_0b9117660766c284fe50bbf9fd6992c7&#45;&gt;dir_bdd9a5d540de89e9fe90efdfc6973a4f</title>
<path fill="none" stroke="black" d="M78.11,-290.88C81.05,-289.74 84.05,-288.75 87,-288 223.33,-253.33 592.11,-312.73 719,-252 747.1,-238.55 744.85,-222.87 766,-200 769.66,-196.04 773.56,-191.87 777.38,-187.82"/>
<polygon fill="black" stroke="black" points="780.21,-189.91 784.54,-180.24 775.12,-185.11 780.21,-189.91"/>
<g id="a_edge27&#45;headlabel"><a xlink:href="dir_000539_000000.html" target="_top" xlink:title="1">
<text text-anchor="middle" x="779.81" y="-191.98" font-family="Helvetica,sans-Serif" font-size="10.00">1</text>
</a>
</g>
</g>
<!-- dir_3bdb928cbd5acb3c07c5155022fcf7d7 -->
<g id="node7" class="node">
<title>dir_3bdb928cbd5acb3c07c5155022fcf7d7</title>
<g id="a_node7"><a xlink:href="dir_3bdb928cbd5acb3c07c5155022fcf7d7.html" target="_top" xlink:title="libspu2">
<polygon fill="white" stroke="red" points="150,-324 96,-324 96,-288 150,-288 150,-324"/>
<text text-anchor="middle" x="123" y="-303.5" font-family="Helvetica,sans-Serif" font-size="10.00">libspu2</text>
</a>
</g>
</g>
<!-- dir_3bdb928cbd5acb3c07c5155022fcf7d7&#45;&gt;dir_40ac35421bc63b72c26b6c69b1517fd6 -->
<g id="edge12" class="edge">
<title>dir_3bdb928cbd5acb3c07c5155022fcf7d7&#45;&gt;dir_40ac35421bc63b72c26b6c69b1517fd6</title>
<path fill="none" stroke="black" d="M138.07,-287.74C176.12,-245.14 280.88,-134 390,-72 428.76,-49.98 478.09,-35.27 511.23,-27.04"/>
<polygon fill="black" stroke="black" points="512.06,-30.44 520.97,-24.7 510.42,-23.64 512.06,-30.44"/>
<g id="a_edge12&#45;headlabel"><a xlink:href="dir_000544_000215.html" target="_top" xlink:title="4">
<text text-anchor="middle" x="509.23" y="-31.55" font-family="Helvetica,sans-Serif" font-size="10.00">4</text>
</a>
</g>
</g>
<!-- dir_3bdb928cbd5acb3c07c5155022fcf7d7&#45;&gt;dir_bdd9a5d540de89e9fe90efdfc6973a4f -->
<g id="edge13" class="edge">
<title>dir_3bdb928cbd5acb3c07c5155022fcf7d7&#45;&gt;dir_bdd9a5d540de89e9fe90efdfc6973a4f</title>
<path fill="none" stroke="black" d="M150.11,-290.88C153.06,-289.75 156.05,-288.75 159,-288 224.46,-271.27 711.31,-291.68 766,-252 785.68,-237.72 794.3,-210.65 798.07,-190.09"/>
<polygon fill="black" stroke="black" points="801.56,-190.46 799.63,-180.04 794.64,-189.38 801.56,-190.46"/>
<g id="a_edge13&#45;headlabel"><a xlink:href="dir_000544_000000.html" target="_top" xlink:title="1">
<text text-anchor="middle" x="803.81" y="-191.95" font-family="Helvetica,sans-Serif" font-size="10.00">1</text>
</a>
</g>
</g>
<!-- dir_0fa59b7b5c95696e5fa18237205389fe -->
<g id="node8" class="node">
<title>dir_0fa59b7b5c95696e5fa18237205389fe</title>
<g id="a_node8"><a xlink:href="dir_0fa59b7b5c95696e5fa18237205389fe.html" target="_top" xlink:title="ps2snd">
<polygon fill="white" stroke="red" points="586,-324 532,-324 532,-288 586,-288 586,-324"/>
<text text-anchor="middle" x="559" y="-303.5" font-family="Helvetica,sans-Serif" font-size="10.00">ps2snd</text>
</a>
</g>
</g>
<!-- dir_0fa59b7b5c95696e5fa18237205389fe&#45;&gt;dir_9be0baa3d4a3e9f480a9ee70594037fa -->
<g id="edge28" class="edge">
<title>dir_0fa59b7b5c95696e5fa18237205389fe&#45;&gt;dir_9be0baa3d4a3e9f480a9ee70594037fa</title>
<path fill="none" stroke="black" d="M586.16,-291.52C589.42,-290.2 592.75,-288.99 596,-288 692.48,-258.68 723.24,-280.37 820,-252 820.72,-251.79 821.44,-251.57 822.16,-251.34"/>
<polygon fill="black" stroke="black" points="823.39,-254.62 831.62,-247.95 821.03,-248.03 823.39,-254.62"/>
<g id="a_edge28&#45;headlabel"><a xlink:href="dir_000205_000525.html" target="_top" xlink:title="3">
<text text-anchor="middle" x="820.96" y="-256" font-family="Helvetica,sans-Serif" font-size="10.00">3</text>
</a>
</g>
</g>
<!-- dir_0fa59b7b5c95696e5fa18237205389fe&#45;&gt;dir_40ac35421bc63b72c26b6c69b1517fd6 -->
<g id="edge29" class="edge">
<title>dir_0fa59b7b5c95696e5fa18237205389fe&#45;&gt;dir_40ac35421bc63b72c26b6c69b1517fd6</title>
<path fill="none" stroke="black" d="M558.34,-287.97C556.51,-240.29 551.31,-105.18 549.06,-46.63"/>
<polygon fill="black" stroke="black" points="552.55,-46.16 548.67,-36.31 545.55,-46.43 552.55,-46.16"/>
<g id="a_edge29&#45;headlabel"><a xlink:href="dir_000205_000215.html" target="_top" xlink:title="20">
<text text-anchor="middle" x="555.52" y="-47.15" font-family="Helvetica,sans-Serif" font-size="10.00">20</text>
</a>
</g>
</g>
<!-- dir_0fa59b7b5c95696e5fa18237205389fe&#45;&gt;dir_bdd9a5d540de89e9fe90efdfc6973a4f -->
<g id="edge30" class="edge">
<title>dir_0fa59b7b5c95696e5fa18237205389fe&#45;&gt;dir_bdd9a5d540de89e9fe90efdfc6973a4f</title>
<path fill="none" stroke="black" d="M586.12,-291.4C589.39,-290.1 592.73,-288.92 596,-288 660.4,-269.81 850.6,-302.07 895,-252 910.33,-234.71 908.01,-219.1 895,-200 882.75,-182.02 860.31,-172.78 840.42,-168.03"/>
<polygon fill="black" stroke="black" points="841.12,-164.6 830.62,-165.98 839.69,-171.45 841.12,-164.6"/>
<g id="a_edge30&#45;headlabel"><a xlink:href="dir_000205_000000.html" target="_top" xlink:title="2">
<text text-anchor="middle" x="845.22" y="-160.05" font-family="Helvetica,sans-Serif" font-size="10.00">2</text>
</a>
</g>
</g>
<!-- dir_46f718c737dc136fbfd1d21209bd1e7f -->
<g id="node9" class="node">
<title>dir_46f718c737dc136fbfd1d21209bd1e7f</title>
<g id="a_node9"><a xlink:href="dir_46f718c737dc136fbfd1d21209bd1e7f.html" target="_top" xlink:title="rspu2drv">
<polygon fill="white" stroke="red" points="663.5,-324 604.5,-324 604.5,-288 663.5,-288 663.5,-324"/>
<text text-anchor="middle" x="634" y="-303.5" font-family="Helvetica,sans-Serif" font-size="10.00">rspu2drv</text>
</a>
</g>
</g>
<!-- dir_46f718c737dc136fbfd1d21209bd1e7f&#45;&gt;dir_9be0baa3d4a3e9f480a9ee70594037fa -->
<g id="edge9" class="edge">
<title>dir_46f718c737dc136fbfd1d21209bd1e7f&#45;&gt;dir_9be0baa3d4a3e9f480a9ee70594037fa</title>
<path fill="none" stroke="black" d="M663.6,-291.47C666.75,-290.22 669.92,-289.04 673,-288 736.73,-266.48 756.27,-273.52 820,-252 820.86,-251.71 821.72,-251.41 822.59,-251.1"/>
<polygon fill="black" stroke="black" points="823.88,-254.35 831.96,-247.49 821.37,-247.82 823.88,-254.35"/>
<g id="a_edge9&#45;headlabel"><a xlink:href="dir_000207_000525.html" target="_top" xlink:title="1">
<text text-anchor="middle" x="821.55" y="-255.79" font-family="Helvetica,sans-Serif" font-size="10.00">1</text>
</a>
</g>
</g>
<!-- dir_46f718c737dc136fbfd1d21209bd1e7f&#45;&gt;dir_40ac35421bc63b72c26b6c69b1517fd6 -->
<g id="edge10" class="edge">
<title>dir_46f718c737dc136fbfd1d21209bd1e7f&#45;&gt;dir_40ac35421bc63b72c26b6c69b1517fd6</title>
<path fill="none" stroke="black" d="M625.21,-287.65C620.28,-277.45 614.28,-264.2 610,-252 582.64,-174.09 586.16,-151.54 564,-72 561.62,-63.44 558.87,-54.16 556.33,-45.78"/>
<polygon fill="black" stroke="black" points="559.65,-44.67 553.38,-36.13 552.96,-46.72 559.65,-44.67"/>
<g id="a_edge10&#45;headlabel"><a xlink:href="dir_000207_000215.html" target="_top" xlink:title="12">
<text text-anchor="middle" x="563.42" y="-44.78" font-family="Helvetica,sans-Serif" font-size="10.00">12</text>
</a>
</g>
</g>
<!-- dir_46f718c737dc136fbfd1d21209bd1e7f&#45;&gt;dir_bdd9a5d540de89e9fe90efdfc6973a4f -->
<g id="edge11" class="edge">
<title>dir_46f718c737dc136fbfd1d21209bd1e7f&#45;&gt;dir_bdd9a5d540de89e9fe90efdfc6973a4f</title>
<path fill="none" stroke="black" d="M663.51,-291.15C666.67,-289.97 669.87,-288.88 673,-288 728.07,-272.42 890.47,-295.2 928,-252 943.16,-234.55 941.87,-218.49 928,-200 908.12,-173.5 870.3,-165.11 841.09,-162.85"/>
<polygon fill="black" stroke="black" points="840.94,-159.33 830.76,-162.27 840.55,-166.32 840.94,-159.33"/>
<g id="a_edge11&#45;headlabel"><a xlink:href="dir_000207_000000.html" target="_top" xlink:title="1">
<text text-anchor="middle" x="844.69" y="-154.2" font-family="Helvetica,sans-Serif" font-size="10.00">1</text>
</a>
</g>
</g>
<!-- dir_88aaed4afc7023eb90012be638e1ff48 -->
<g id="node10" class="node">
<title>dir_88aaed4afc7023eb90012be638e1ff48</title>
<g id="a_node10"><a xlink:href="dir_88aaed4afc7023eb90012be638e1ff48.html" target="_top" xlink:title="sdhd">
<polygon fill="white" stroke="red" points="370,-324 316,-324 316,-288 370,-288 370,-324"/>
<text text-anchor="middle" x="343" y="-303.5" font-family="Helvetica,sans-Serif" font-size="10.00">sdhd</text>
</a>
</g>
</g>
<!-- dir_88aaed4afc7023eb90012be638e1ff48&#45;&gt;dir_9be0baa3d4a3e9f480a9ee70594037fa -->
<g id="edge1" class="edge">
<title>dir_88aaed4afc7023eb90012be638e1ff48&#45;&gt;dir_9be0baa3d4a3e9f480a9ee70594037fa</title>
<path fill="none" stroke="black" d="M370.13,-290.95C373.07,-289.8 376.06,-288.79 379,-288 568.98,-237.19 629.28,-299.94 820,-252 820.73,-251.82 821.45,-251.62 822.19,-251.42"/>
<polygon fill="black" stroke="black" points="823.33,-254.73 831.7,-248.23 821.11,-248.09 823.33,-254.73"/>
<g id="a_edge1&#45;headlabel"><a xlink:href="dir_000209_000525.html" target="_top" xlink:title="1">
<text text-anchor="middle" x="820.82" y="-256.06" font-family="Helvetica,sans-Serif" font-size="10.00">1</text>
</a>
</g>
</g>
<!-- dir_88aaed4afc7023eb90012be638e1ff48&#45;&gt;dir_40ac35421bc63b72c26b6c69b1517fd6 -->
<g id="edge2" class="edge">
<title>dir_88aaed4afc7023eb90012be638e1ff48&#45;&gt;dir_40ac35421bc63b72c26b6c69b1517fd6</title>
<path fill="none" stroke="black" d="M356.21,-287.99C364.12,-277.68 374.3,-264.2 383,-252 438.94,-173.5 446.25,-149.18 504,-72 510.95,-62.71 518.95,-52.85 526.21,-44.19"/>
<polygon fill="black" stroke="black" points="529.09,-46.2 532.88,-36.31 523.75,-41.68 529.09,-46.2"/>
<g id="a_edge2&#45;headlabel"><a xlink:href="dir_000209_000215.html" target="_top" xlink:title="2">
<text text-anchor="middle" x="528.93" y="-48.28" font-family="Helvetica,sans-Serif" font-size="10.00">2</text>
</a>
</g>
</g>
<!-- dir_3aa0035d36047302fc2eb81337a6a532 -->
<g id="node11" class="node">
<title>dir_3aa0035d36047302fc2eb81337a6a532</title>
<g id="a_node11"><a xlink:href="dir_3aa0035d36047302fc2eb81337a6a532.html" target="_top" xlink:title="sdrdrv">
<polygon fill="white" stroke="red" points="442,-324 388,-324 388,-288 442,-288 442,-324"/>
<text text-anchor="middle" x="415" y="-303.5" font-family="Helvetica,sans-Serif" font-size="10.00">sdrdrv</text>
</a>
</g>
</g>
<!-- dir_3aa0035d36047302fc2eb81337a6a532&#45;&gt;dir_9be0baa3d4a3e9f480a9ee70594037fa -->
<g id="edge14" class="edge">
<title>dir_3aa0035d36047302fc2eb81337a6a532&#45;&gt;dir_9be0baa3d4a3e9f480a9ee70594037fa</title>
<path fill="none" stroke="black" d="M442.14,-291C445.08,-289.84 448.07,-288.81 451,-288 609.84,-244.17 660.51,-293.43 820,-252 820.72,-251.81 821.45,-251.61 822.18,-251.4"/>
<polygon fill="black" stroke="black" points="823.34,-254.7 831.68,-248.18 821.09,-248.08 823.34,-254.7"/>
<g id="a_edge14&#45;headlabel"><a xlink:href="dir_000211_000525.html" target="_top" xlink:title="1">
<text text-anchor="middle" x="820.85" y="-256.05" font-family="Helvetica,sans-Serif" font-size="10.00">1</text>
</a>
</g>
</g>
<!-- dir_3aa0035d36047302fc2eb81337a6a532&#45;&gt;dir_40ac35421bc63b72c26b6c69b1517fd6 -->
<g id="edge15" class="edge">
<title>dir_3aa0035d36047302fc2eb81337a6a532&#45;&gt;dir_40ac35421bc63b72c26b6c69b1517fd6</title>
<path fill="none" stroke="black" d="M422.92,-287.97C445.23,-239.99 508.71,-103.5 535.66,-45.54"/>
<polygon fill="black" stroke="black" points="538.91,-46.85 539.95,-36.31 532.56,-43.9 538.91,-46.85"/>
<g id="a_edge15&#45;headlabel"><a xlink:href="dir_000211_000215.html" target="_top" xlink:title="5">
<text text-anchor="middle" x="539.97" y="-48.81" font-family="Helvetica,sans-Serif" font-size="10.00">5</text>
</a>
</g>
</g>
<!-- dir_f6cc0a29c52682018d7d3e4d1b8065b8 -->
<g id="node12" class="node">
<title>dir_f6cc0a29c52682018d7d3e4d1b8065b8</title>
<g id="a_node12"><a xlink:href="dir_f6cc0a29c52682018d7d3e4d1b8065b8.html" target="_top" xlink:title="sdsq">
<polygon fill="white" stroke="red" points="514,-324 460,-324 460,-288 514,-288 514,-324"/>
<text text-anchor="middle" x="487" y="-303.5" font-family="Helvetica,sans-Serif" font-size="10.00">sdsq</text>
</a>
</g>
</g>
<!-- dir_f6cc0a29c52682018d7d3e4d1b8065b8&#45;&gt;dir_9be0baa3d4a3e9f480a9ee70594037fa -->
<g id="edge16" class="edge">
<title>dir_f6cc0a29c52682018d7d3e4d1b8065b8&#45;&gt;dir_9be0baa3d4a3e9f480a9ee70594037fa</title>
<path fill="none" stroke="black" d="M514.16,-291.07C517.1,-289.9 520.08,-288.84 523,-288 650.75,-251.14 691.7,-286.93 820,-252 820.72,-251.8 821.45,-251.6 822.18,-251.38"/>
<polygon fill="black" stroke="black" points="823.36,-254.67 831.66,-248.09 821.07,-248.06 823.36,-254.67"/>
<g id="a_edge16&#45;headlabel"><a xlink:href="dir_000213_000525.html" target="_top" xlink:title="1">
<text text-anchor="middle" x="820.89" y="-256.03" font-family="Helvetica,sans-Serif" font-size="10.00">1</text>
</a>
</g>
</g>
<!-- dir_f6cc0a29c52682018d7d3e4d1b8065b8&#45;&gt;dir_40ac35421bc63b72c26b6c69b1517fd6 -->
<g id="edge17" class="edge">
<title>dir_f6cc0a29c52682018d7d3e4d1b8065b8&#45;&gt;dir_40ac35421bc63b72c26b6c69b1517fd6</title>
<path fill="none" stroke="black" d="M490.63,-287.97C500.82,-240.19 529.74,-104.62 542.18,-46.27"/>
<polygon fill="black" stroke="black" points="545.65,-46.82 544.31,-36.31 538.8,-45.36 545.65,-46.82"/>
<g id="a_edge17&#45;headlabel"><a xlink:href="dir_000213_000215.html" target="_top" xlink:title="3">
<text text-anchor="middle" x="547.67" y="-48.42" font-family="Helvetica,sans-Serif" font-size="10.00">3</text>
</a>
</g>
</g>
<!-- dir_9be0baa3d4a3e9f480a9ee70594037fa&#45;&gt;dir_bdd9a5d540de89e9fe90efdfc6973a4f -->
<g id="edge3" class="edge">
<title>dir_9be0baa3d4a3e9f480a9ee70594037fa&#45;&gt;dir_bdd9a5d540de89e9fe90efdfc6973a4f</title>
<path fill="none" stroke="black" d="M838.75,-215.7C831.01,-207.39 822.43,-197.28 815.32,-188.14"/>
<polygon fill="black" stroke="black" points="818.09,-185.99 809.28,-180.1 812.49,-190.2 818.09,-185.99"/>
<g id="a_edge3&#45;headlabel"><a xlink:href="dir_000525_000000.html" target="_top" xlink:title="2">
<text text-anchor="middle" x="822.52" y="-184.66" font-family="Helvetica,sans-Serif" font-size="10.00">2</text>
</a>
</g>
</g>
<!-- dir_40ac35421bc63b72c26b6c69b1517fd6&#45;&gt;dir_9be0baa3d4a3e9f480a9ee70594037fa -->
<g id="edge7" class="edge">
<title>dir_40ac35421bc63b72c26b6c69b1517fd6&#45;&gt;dir_9be0baa3d4a3e9f480a9ee70594037fa</title>
<path fill="none" stroke="black" d="M575.11,-28.4C599.02,-37.43 634.14,-52.57 661,-72 714.49,-110.7 707.62,-144.05 763,-180 785.52,-194.62 796.7,-186.66 820,-200 824.6,-202.63 829.17,-205.83 833.48,-209.19"/>
<polygon fill="black" stroke="black" points="831.46,-212.06 841.39,-215.74 835.92,-206.67 831.46,-212.06"/>
<g id="a_edge7&#45;headlabel"><a xlink:href="dir_000215_000525.html" target="_top" xlink:title="105">
<text text-anchor="middle" x="826.88" y="-209.45" font-family="Helvetica,sans-Serif" font-size="10.00">105</text>
</a>
</g>
</g>
<!-- dir_40ac35421bc63b72c26b6c69b1517fd6&#45;&gt;dir_bdd9a5d540de89e9fe90efdfc6973a4f -->
<g id="edge8" class="edge">
<title>dir_40ac35421bc63b72c26b6c69b1517fd6&#45;&gt;dir_bdd9a5d540de89e9fe90efdfc6973a4f</title>
<path fill="none" stroke="black" d="M575.02,-22.38C611.3,-28.34 675.89,-42.93 723,-72 750.07,-88.71 774.78,-115.63 789.17,-135.49"/>
<polygon fill="black" stroke="black" points="786.32,-137.52 794.86,-143.79 792.1,-133.57 786.32,-137.52"/>
<g id="a_edge8&#45;headlabel"><a xlink:href="dir_000215_000000.html" target="_top" xlink:title="32">
<text text-anchor="middle" x="781.95" y="-133.67" font-family="Helvetica,sans-Serif" font-size="10.00">32</text>
</a>
</g>
</g>
<!-- dir_a12d8da7b0731a57c6a388326ad5e612&#45;&gt;dir_9be0baa3d4a3e9f480a9ee70594037fa -->
<g id="edge21" class="edge">
<title>dir_a12d8da7b0731a57c6a388326ad5e612&#45;&gt;dir_9be0baa3d4a3e9f480a9ee70594037fa</title>
<path fill="none" stroke="black" d="M822,-108.06C828.08,-118.16 835.33,-131.41 840,-144 847.46,-164.09 852.35,-187.87 855.29,-205.79"/>
<polygon fill="black" stroke="black" points="851.86,-206.51 856.85,-215.86 858.78,-205.44 851.86,-206.51"/>
<g id="a_edge21&#45;headlabel"><a xlink:href="dir_000061_000525.html" target="_top" xlink:title="13">
<text text-anchor="middle" x="848.51" y="-200.89" font-family="Helvetica,sans-Serif" font-size="10.00">13</text>
</a>
</g>
</g>
<!-- dir_a12d8da7b0731a57c6a388326ad5e612&#45;&gt;dir_40ac35421bc63b72c26b6c69b1517fd6 -->
<g id="edge22" class="edge">
<title>dir_a12d8da7b0731a57c6a388326ad5e612&#45;&gt;dir_40ac35421bc63b72c26b6c69b1517fd6</title>
<path fill="none" stroke="black" d="M783.88,-77.05C779.29,-75.23 774.54,-73.47 770,-72 706.14,-51.28 629.58,-34.78 585.09,-25.98"/>
<polygon fill="black" stroke="black" points="585.52,-22.5 575.03,-24.01 584.18,-29.37 585.52,-22.5"/>
<g id="a_edge22&#45;headlabel"><a xlink:href="dir_000061_000215.html" target="_top" xlink:title="64">
<text text-anchor="middle" x="589.59" y="-17.9" font-family="Helvetica,sans-Serif" font-size="10.00">64</text>
</a>
</g>
</g>
<!-- dir_a12d8da7b0731a57c6a388326ad5e612&#45;&gt;dir_bdd9a5d540de89e9fe90efdfc6973a4f -->
<g id="edge23" class="edge">
<title>dir_a12d8da7b0731a57c6a388326ad5e612&#45;&gt;dir_bdd9a5d540de89e9fe90efdfc6973a4f</title>
<path fill="none" stroke="black" d="M814.45,-108.1C814.16,-115.79 813.07,-125.05 811.51,-133.67"/>
<polygon fill="black" stroke="black" points="808.03,-133.19 809.39,-143.7 814.88,-134.64 808.03,-133.19"/>
<g id="a_edge23&#45;headlabel"><a xlink:href="dir_000061_000000.html" target="_top" xlink:title="17">
<text text-anchor="middle" x="806" y="-126.58" font-family="Helvetica,sans-Serif" font-size="10.00">17</text>
</a>
</g>
</g>
<!-- dir_bdd9a5d540de89e9fe90efdfc6973a4f&#45;&gt;dir_9be0baa3d4a3e9f480a9ee70594037fa -->
<g id="edge34" class="edge">
<title>dir_bdd9a5d540de89e9fe90efdfc6973a4f&#45;&gt;dir_9be0baa3d4a3e9f480a9ee70594037fa</title>
<path fill="none" stroke="black" d="M821.07,-180.1C828.79,-188.38 837.37,-198.49 844.5,-207.64"/>
<polygon fill="black" stroke="black" points="841.76,-209.82 850.58,-215.7 847.35,-205.6 841.76,-209.82"/>
<g id="a_edge34&#45;headlabel"><a xlink:href="dir_000000_000525.html" target="_top" xlink:title="3">
<text text-anchor="middle" x="837.33" y="-206.16" font-family="Helvetica,sans-Serif" font-size="10.00">3</text>
</a>
</g>
</g>
<!-- dir_bdd9a5d540de89e9fe90efdfc6973a4f&#45;&gt;dir_40ac35421bc63b72c26b6c69b1517fd6 -->
<g id="edge35" class="edge">
<title>dir_bdd9a5d540de89e9fe90efdfc6973a4f&#45;&gt;dir_40ac35421bc63b72c26b6c69b1517fd6</title>
<path fill="none" stroke="black" d="M782.04,-143.79C764.04,-123.82 736.08,-91.18 705,-72 667.2,-48.68 618.16,-34.67 584.9,-26.97"/>
<polygon fill="black" stroke="black" points="585.64,-23.55 575.12,-24.78 584.11,-30.38 585.64,-23.55"/>
<g id="a_edge35&#45;headlabel"><a xlink:href="dir_000000_000215.html" target="_top" xlink:title="16">
<text text-anchor="middle" x="589.77" y="-19.06" font-family="Helvetica,sans-Serif" font-size="10.00">16</text>
</a>
</g>
</g>
<!-- dir_bdd9a5d540de89e9fe90efdfc6973a4f&#45;&gt;dir_a12d8da7b0731a57c6a388326ad5e612 -->
<g id="edge36" class="edge">
<title>dir_bdd9a5d540de89e9fe90efdfc6973a4f&#45;&gt;dir_a12d8da7b0731a57c6a388326ad5e612</title>
<path fill="none" stroke="black" d="M797.56,-143.7C797.86,-135.98 798.96,-126.71 800.53,-118.11"/>
<polygon fill="black" stroke="black" points="804,-118.61 802.66,-108.1 797.16,-117.16 804,-118.61"/>
<g id="a_edge36&#45;headlabel"><a xlink:href="dir_000000_000061.html" target="_top" xlink:title="1">
<text text-anchor="middle" x="806.03" y="-120.22" font-family="Helvetica,sans-Serif" font-size="10.00">1</text>
</a>
</g>
</g>
</g>
</svg>
