<?xml version="1.0" encoding="UTF-8" standalone="no"?>
<!DOCTYPE svg PUBLIC "-//W3C//DTD SVG 1.1//EN"
 "http://www.w3.org/Graphics/SVG/1.1/DTD/svg11.dtd">
<!-- Generated by graphviz version 2.43.0 (0)
 -->
<!-- Title: iop/security/daemon Pages: 1 -->
<svg width="184pt" height="303pt"
 viewBox="0.00 0.00 184.00 303.00" xmlns="http://www.w3.org/2000/svg" xmlns:xlink="http://www.w3.org/1999/xlink">
<g id="graph0" class="graph" transform="scale(1 1) rotate(0) translate(4 299)">
<title>iop/security/daemon</title>
<polygon fill="white" stroke="transparent" points="-4,4 -4,-299 180,-299 180,4 -4,4"/>
<g id="clust1" class="cluster">
<title>clusterdir_65b0066184b118a668041f55a1e77c0f</title>
<g id="a_clust1"><a xlink:href="dir_65b0066184b118a668041f55a1e77c0f.html" target="_top" xlink:title="security">
<polygon fill="#ddddee" stroke="black" points="8,-200 8,-287 168,-287 168,-200 8,-200"/>
<text text-anchor="middle" x="88" y="-275" font-family="Helvetica,sans-Serif" font-size="10.00">security</text>
</a>
</g>
</g>
<g id="clust2" class="cluster">
<title>clusterdir_ef36e8adbc4006275a4a85debe48eb61</title>
<g id="a_clust2"><a xlink:href="dir_ef36e8adbc4006275a4a85debe48eb61.html" target="_top">
<polygon fill="#eeeeff" stroke="black" points="16,-208 16,-260 160,-260 160,-208 16,-208"/>
</a>
</g>
</g>
<!-- dir_ef36e8adbc4006275a4a85debe48eb61 -->
<g id="node1" class="node">
<title>dir_ef36e8adbc4006275a4a85debe48eb61</title>
<text text-anchor="middle" x="124" y="-231.5" font-family="Helvetica,sans-Serif" font-size="10.00">daemon</text>
</g>
<!-- dir_f6b3ac9ef47c20d6a81140c1329c3c32 -->
<g id="node2" class="node">
<title>dir_f6b3ac9ef47c20d6a81140c1329c3c32</title>
<g id="a_node2"><a xlink:href="dir_f6b3ac9ef47c20d6a81140c1329c3c32.html" target="_top" xlink:title="src">
<polygon fill="white" stroke="black" points="78,-252 24,-252 24,-216 78,-216 78,-252"/>
<text text-anchor="middle" x="51" y="-231.5" font-family="Helvetica,sans-Serif" font-size="10.00">src</text>
</a>
</g>
</g>
<!-- dir_9be0baa3d4a3e9f480a9ee70594037fa -->
<g id="node3" class="node">
<title>dir_9be0baa3d4a3e9f480a9ee70594037fa</title>
<g id="a_node3"><a xlink:href="dir_9be0baa3d4a3e9f480a9ee70594037fa.html" target="_top" xlink:title="kernel">
<polygon fill="white" stroke="red" points="93,-36 39,-36 39,0 93,0 93,-36"/>
<text text-anchor="middle" x="66" y="-15.5" font-family="Helvetica,sans-Serif" font-size="10.00">kernel</text>
</a>
</g>
</g>
<!-- dir_f6b3ac9ef47c20d6a81140c1329c3c32&#45;&gt;dir_9be0baa3d4a3e9f480a9ee70594037fa -->
<g id="edge4" class="edge">
<title>dir_f6b3ac9ef47c20d6a81140c1329c3c32&#45;&gt;dir_9be0baa3d4a3e9f480a9ee70594037fa</title>
<path fill="none" stroke="black" d="M44.05,-215.68C33.05,-185.74 14.42,-122.65 30,-72 33.01,-62.22 38.51,-52.62 44.32,-44.33"/>
<polygon fill="black" stroke="black" points="47.19,-46.33 50.39,-36.23 41.59,-42.13 47.19,-46.33"/>
<g id="a_edge4&#45;headlabel"><a xlink:href="dir_000195_000530.html" target="_top" xlink:title="1">
<text text-anchor="middle" x="47.31" y="-48.41" font-family="Helvetica,sans-Serif" font-size="10.00">1</text>
</a>
</g>
</g>
<!-- dir_40ac35421bc63b72c26b6c69b1517fd6 -->
<g id="node4" class="node">
<title>dir_40ac35421bc63b72c26b6c69b1517fd6</title>
<g id="a_node4"><a xlink:href="dir_40ac35421bc63b72c26b6c69b1517fd6.html" target="_top" xlink:title="system">
<polygon fill="white" stroke="red" points="93,-108 39,-108 39,-72 93,-72 93,-108"/>
<text text-anchor="middle" x="66" y="-87.5" font-family="Helvetica,sans-Serif" font-size="10.00">system</text>
</a>
</g>
</g>
<!-- dir_f6b3ac9ef47c20d6a81140c1329c3c32&#45;&gt;dir_40ac35421bc63b72c26b6c69b1517fd6 -->
<g id="edge5" class="edge">
<title>dir_f6b3ac9ef47c20d6a81140c1329c3c32&#45;&gt;dir_40ac35421bc63b72c26b6c69b1517fd6</title>
<path fill="none" stroke="black" d="M52.81,-215.87C55.37,-191.67 60.06,-147.21 63.11,-118.39"/>
<polygon fill="black" stroke="black" points="66.61,-118.5 64.18,-108.19 59.65,-117.77 66.61,-118.5"/>
<g id="a_edge5&#45;headlabel"><a xlink:href="dir_000195_000226.html" target="_top" xlink:title="3">
<text text-anchor="middle" x="69.06" y="-119.87" font-family="Helvetica,sans-Serif" font-size="10.00">3</text>
</a>
</g>
</g>
<!-- dir_5805bfcfbe100e4767f47461b3e6402b -->
<g id="node5" class="node">
<title>dir_5805bfcfbe100e4767f47461b3e6402b</title>
<g id="a_node5"><a xlink:href="dir_5805bfcfbe100e4767f47461b3e6402b.html" target="_top" xlink:title="memorycard">
<polygon fill="white" stroke="red" points="158.5,-180 79.5,-180 79.5,-144 158.5,-144 158.5,-180"/>
<text text-anchor="middle" x="119" y="-159.5" font-family="Helvetica,sans-Serif" font-size="10.00">memorycard</text>
</a>
</g>
</g>
<!-- dir_f6b3ac9ef47c20d6a81140c1329c3c32&#45;&gt;dir_5805bfcfbe100e4767f47461b3e6402b -->
<g id="edge6" class="edge">
<title>dir_f6b3ac9ef47c20d6a81140c1329c3c32&#45;&gt;dir_5805bfcfbe100e4767f47461b3e6402b</title>
<path fill="none" stroke="black" d="M67.81,-215.7C76.13,-207.14 86.31,-196.66 95.39,-187.3"/>
<polygon fill="black" stroke="black" points="97.93,-189.72 102.38,-180.1 92.91,-184.84 97.93,-189.72"/>
<g id="a_edge6&#45;headlabel"><a xlink:href="dir_000195_000172.html" target="_top" xlink:title="1">
<text text-anchor="middle" x="97.46" y="-191.77" font-family="Helvetica,sans-Serif" font-size="10.00">1</text>
</a>
</g>
</g>
<!-- dir_40ac35421bc63b72c26b6c69b1517fd6&#45;&gt;dir_9be0baa3d4a3e9f480a9ee70594037fa -->
<g id="edge1" class="edge">
<title>dir_40ac35421bc63b72c26b6c69b1517fd6&#45;&gt;dir_9be0baa3d4a3e9f480a9ee70594037fa</title>
<path fill="none" stroke="black" d="M66,-71.7C66,-63.98 66,-54.71 66,-46.11"/>
<polygon fill="black" stroke="black" points="69.5,-46.1 66,-36.1 62.5,-46.1 69.5,-46.1"/>
<g id="a_edge1&#45;headlabel"><a xlink:href="dir_000226_000530.html" target="_top" xlink:title="89">
<text text-anchor="middle" x="72.34" y="-47.2" font-family="Helvetica,sans-Serif" font-size="10.00">89</text>
</a>
</g>
</g>
<!-- dir_5805bfcfbe100e4767f47461b3e6402b&#45;&gt;dir_9be0baa3d4a3e9f480a9ee70594037fa -->
<g id="edge2" class="edge">
<title>dir_5805bfcfbe100e4767f47461b3e6402b&#45;&gt;dir_9be0baa3d4a3e9f480a9ee70594037fa</title>
<path fill="none" stroke="black" d="M117.78,-143.68C116.02,-125.29 111.81,-95.69 102,-72 98.02,-62.39 92.14,-52.73 86.29,-44.34"/>
<polygon fill="black" stroke="black" points="89,-42.11 80.27,-36.1 83.35,-46.24 89,-42.11"/>
<g id="a_edge2&#45;headlabel"><a xlink:href="dir_000172_000530.html" target="_top" xlink:title="4">
<text text-anchor="middle" x="93.41" y="-40.84" font-family="Helvetica,sans-Serif" font-size="10.00">4</text>
</a>
</g>
</g>
<!-- dir_5805bfcfbe100e4767f47461b3e6402b&#45;&gt;dir_40ac35421bc63b72c26b6c69b1517fd6 -->
<g id="edge3" class="edge">
<title>dir_5805bfcfbe100e4767f47461b3e6402b&#45;&gt;dir_40ac35421bc63b72c26b6c69b1517fd6</title>
<path fill="none" stroke="black" d="M105.9,-143.7C99.61,-135.39 91.95,-125.28 85.04,-116.14"/>
<polygon fill="black" stroke="black" points="87.78,-113.96 78.95,-108.1 82.2,-118.19 87.78,-113.96"/>
<g id="a_edge3&#45;headlabel"><a xlink:href="dir_000172_000226.html" target="_top" xlink:title="30">
<text text-anchor="middle" x="92.21" y="-112.62" font-family="Helvetica,sans-Serif" font-size="10.00">30</text>
</a>
</g>
</g>
</g>
</svg>
