<?xml version="1.0" encoding="UTF-8" standalone="no"?>
<!DOCTYPE svg PUBLIC "-//W3C//DTD SVG 1.1//EN"
 "http://www.w3.org/Graphics/SVG/1.1/DTD/svg11.dtd">
<!-- Generated by graphviz version 2.44.0 ()
 -->
<!-- Title: iop/fs/bdm/src Pages: 1 -->
<svg width="182pt" height="303pt"
 viewBox="0.00 0.00 182.00 303.00" xmlns="http://www.w3.org/2000/svg" xmlns:xlink="http://www.w3.org/1999/xlink">
<g id="graph0" class="graph" transform="scale(1 1) rotate(0) translate(4 299)">
<title>iop/fs/bdm/src</title>
<polygon fill="white" stroke="transparent" points="-4,4 -4,-299 178,-299 178,4 -4,4"/>
<g id="clust1" class="cluster">
<title>clusterdir_0134b0376fbe77322088b496fb368f9b</title>
<g id="a_clust1"><a xlink:href="dir_0134b0376fbe77322088b496fb368f9b.html" target="_top" xlink:title="bdm">
<polygon fill="#ddddee" stroke="black" points="8,-136 8,-287 166,-287 166,-136 8,-136"/>
<text text-anchor="middle" x="87" y="-275" font-family="Helvetica,sans-Serif" font-size="10.00">bdm</text>
</a>
</g>
</g>
<g id="clust2" class="cluster">
<title>clusterdir_ac1b9311aa44ad4cf108d5fb93dfb606</title>
<g id="a_clust2"><a xlink:href="dir_ac1b9311aa44ad4cf108d5fb93dfb606.html" target="_top">
<polygon fill="#eeeeff" stroke="black" points="16,-208 16,-260 158,-260 158,-208 16,-208"/>
</a>
</g>
</g>
<!-- dir_4aa3f641574c4329e5ed721597730e1e -->
<g id="node1" class="node">
<title>dir_4aa3f641574c4329e5ed721597730e1e</title>
<g id="a_node1"><a xlink:href="dir_4aa3f641574c4329e5ed721597730e1e.html" target="_top" xlink:title="include">
<polygon fill="none" stroke="black" points="95,-180 41,-180 41,-144 95,-144 95,-180"/>
<text text-anchor="middle" x="68" y="-159.5" font-family="Helvetica,sans-Serif" font-size="10.00">include</text>
</a>
</g>
</g>
<!-- dir_9be0baa3d4a3e9f480a9ee70594037fa -->
<g id="node4" class="node">
<title>dir_9be0baa3d4a3e9f480a9ee70594037fa</title>
<g id="a_node4"><a xlink:href="dir_9be0baa3d4a3e9f480a9ee70594037fa.html" target="_top" xlink:title="kernel">
<polygon fill="white" stroke="red" points="133,-108 79,-108 79,-72 133,-72 133,-108"/>
<text text-anchor="middle" x="106" y="-87.5" font-family="Helvetica,sans-Serif" font-size="10.00">kernel</text>
</a>
</g>
</g>
<!-- dir_4aa3f641574c4329e5ed721597730e1e&#45;&gt;dir_9be0baa3d4a3e9f480a9ee70594037fa -->
<g id="edge5" class="edge">
<title>dir_4aa3f641574c4329e5ed721597730e1e&#45;&gt;dir_9be0baa3d4a3e9f480a9ee70594037fa</title>
<path fill="none" stroke="black" d="M77.39,-143.7C81.76,-135.64 87.06,-125.89 91.9,-116.98"/>
<polygon fill="black" stroke="black" points="95.02,-118.56 96.71,-108.1 88.87,-115.22 95.02,-118.56"/>
<g id="a_edge5&#45;headlabel"><a xlink:href="dir_000274_000214.html" target="_top" xlink:title="1">
<text text-anchor="middle" x="95.8" y="-120.58" font-family="Helvetica,sans-Serif" font-size="10.00">1</text>
</a>
</g>
</g>
<!-- dir_ac1b9311aa44ad4cf108d5fb93dfb606 -->
<g id="node2" class="node">
<title>dir_ac1b9311aa44ad4cf108d5fb93dfb606</title>
<text text-anchor="middle" x="123" y="-231.5" font-family="Helvetica,sans-Serif" font-size="10.00">src</text>
</g>
<!-- dir_ac1b9311aa44ad4cf108d5fb93dfb606&#45;&gt;dir_4aa3f641574c4329e5ed721597730e1e -->
<g id="edge2" class="edge">
<title>dir_ac1b9311aa44ad4cf108d5fb93dfb606&#45;&gt;dir_4aa3f641574c4329e5ed721597730e1e</title>
<path fill="none" stroke="black" d="M109.4,-215.7C102.88,-207.39 94.93,-197.28 87.75,-188.14"/>
<polygon fill="black" stroke="black" points="90.37,-185.81 81.44,-180.1 84.87,-190.13 90.37,-185.81"/>
<g id="a_edge2&#45;headlabel"><a xlink:href="dir_000037_000274.html" target="_top" xlink:title="4">
<text text-anchor="middle" x="94.82" y="-184.38" font-family="Helvetica,sans-Serif" font-size="10.00">4</text>
</a>
</g>
</g>
<!-- dir_ac1b9311aa44ad4cf108d5fb93dfb606&#45;&gt;dir_9be0baa3d4a3e9f480a9ee70594037fa -->
<g id="edge3" class="edge">
<title>dir_ac1b9311aa44ad4cf108d5fb93dfb606&#45;&gt;dir_9be0baa3d4a3e9f480a9ee70594037fa</title>
<path fill="none" stroke="black" d="M120.95,-215.87C118.05,-191.67 112.73,-147.21 109.28,-118.39"/>
<polygon fill="black" stroke="black" points="112.72,-117.7 108.06,-108.19 105.77,-118.53 112.72,-117.7"/>
<g id="a_edge3&#45;headlabel"><a xlink:href="dir_000037_000214.html" target="_top" xlink:title="12">
<text text-anchor="middle" x="115.97" y="-118.43" font-family="Helvetica,sans-Serif" font-size="10.00">12</text>
</a>
</g>
</g>
<!-- dir_bdd9a5d540de89e9fe90efdfc6973a4f -->
<g id="node5" class="node">
<title>dir_bdd9a5d540de89e9fe90efdfc6973a4f</title>
<g id="a_node5"><a xlink:href="dir_bdd9a5d540de89e9fe90efdfc6973a4f.html" target="_top" xlink:title="common">
<polygon fill="white" stroke="red" points="133,-36 79,-36 79,0 133,0 133,-36"/>
<text text-anchor="middle" x="106" y="-15.5" font-family="Helvetica,sans-Serif" font-size="10.00">common</text>
</a>
</g>
</g>
<!-- dir_ac1b9311aa44ad4cf108d5fb93dfb606&#45;&gt;dir_bdd9a5d540de89e9fe90efdfc6973a4f -->
<g id="edge4" class="edge">
<title>dir_ac1b9311aa44ad4cf108d5fb93dfb606&#45;&gt;dir_bdd9a5d540de89e9fe90efdfc6973a4f</title>
<path fill="none" stroke="black" d="M129.6,-215.66C140.02,-185.7 157.55,-122.58 142,-72 138.99,-62.22 133.49,-52.62 127.68,-44.33"/>
<polygon fill="black" stroke="black" points="130.41,-42.13 121.61,-36.23 124.81,-46.33 130.41,-42.13"/>
<g id="a_edge4&#45;headlabel"><a xlink:href="dir_000037_000000.html" target="_top" xlink:title="1">
<text text-anchor="middle" x="134.83" y="-40.8" font-family="Helvetica,sans-Serif" font-size="10.00">1</text>
</a>
</g>
</g>
<!-- dir_d96040052f185a41787759ef73c94cbc -->
<g id="node3" class="node">
<title>dir_d96040052f185a41787759ef73c94cbc</title>
<g id="a_node3"><a xlink:href="dir_d96040052f185a41787759ef73c94cbc.html" target="_top" xlink:title="include">
<polygon fill="white" stroke="black" points="78,-252 24,-252 24,-216 78,-216 78,-252"/>
<text text-anchor="middle" x="51" y="-231.5" font-family="Helvetica,sans-Serif" font-size="10.00">include</text>
</a>
</g>
</g>
<!-- dir_9be0baa3d4a3e9f480a9ee70594037fa&#45;&gt;dir_bdd9a5d540de89e9fe90efdfc6973a4f -->
<g id="edge1" class="edge">
<title>dir_9be0baa3d4a3e9f480a9ee70594037fa&#45;&gt;dir_bdd9a5d540de89e9fe90efdfc6973a4f</title>
<path fill="none" stroke="black" d="M100.08,-71.7C99.29,-63.98 99.06,-54.71 99.4,-46.11"/>
<polygon fill="black" stroke="black" points="102.9,-46.32 100.1,-36.1 95.92,-45.84 102.9,-46.32"/>
<g id="a_edge1&#45;headlabel"><a xlink:href="dir_000214_000000.html" target="_top" xlink:title="12">
<text text-anchor="middle" x="105.48" y="-47.61" font-family="Helvetica,sans-Serif" font-size="10.00">12</text>
</a>
</g>
</g>
<!-- dir_bdd9a5d540de89e9fe90efdfc6973a4f&#45;&gt;dir_9be0baa3d4a3e9f480a9ee70594037fa -->
<g id="edge6" class="edge">
<title>dir_bdd9a5d540de89e9fe90efdfc6973a4f&#45;&gt;dir_9be0baa3d4a3e9f480a9ee70594037fa</title>
<path fill="none" stroke="black" d="M111.9,-36.1C112.7,-43.79 112.94,-53.05 112.6,-61.67"/>
<polygon fill="black" stroke="black" points="109.11,-61.48 111.92,-71.7 116.09,-61.96 109.11,-61.48"/>
<g id="a_edge6&#45;headlabel"><a xlink:href="dir_000000_000214.html" target="_top" xlink:title="20">
<text text-anchor="middle" x="106.52" y="-55.2" font-family="Helvetica,sans-Serif" font-size="10.00">20</text>
</a>
</g>
</g>
</g>
</svg>
