<?xml version="1.0" encoding="UTF-8" standalone="no"?>
<!DOCTYPE svg PUBLIC "-//W3C//DTD SVG 1.1//EN"
 "http://www.w3.org/Graphics/SVG/1.1/DTD/svg11.dtd">
<!-- Generated by graphviz version 2.43.0 (0)
 -->
<!-- Title: ee/libvux/src Pages: 1 -->
<svg width="150pt" height="223pt"
 viewBox="0.00 0.00 150.00 223.00" xmlns="http://www.w3.org/2000/svg" xmlns:xlink="http://www.w3.org/1999/xlink">
<g id="graph0" class="graph" transform="scale(1 1) rotate(0) translate(4 219)">
<title>ee/libvux/src</title>
<polygon fill="white" stroke="transparent" points="-4,4 -4,-219 146,-219 146,4 -4,4"/>
<g id="clust1" class="cluster">
<title>clusterdir_53afae995724263ef157d83ff8fe3fe4</title>
<g id="a_clust1"><a xlink:href="dir_53afae995724263ef157d83ff8fe3fe4.html" target="_top" xlink:title="libvux">
<polygon fill="#ddddee" stroke="black" points="64,-136 64,-207 134,-207 134,-136 64,-136"/>
<text text-anchor="middle" x="99" y="-195" font-family="Helvetica,sans-Serif" font-size="10.00">libvux</text>
</a>
</g>
</g>
<!-- dir_e45d88c07cbfec1ea295334984feb137 -->
<g id="node1" class="node">
<title>dir_e45d88c07cbfec1ea295334984feb137</title>
<g id="a_node1"><a xlink:href="dir_e45d88c07cbfec1ea295334984feb137.html" target="_top" xlink:title="src">
<polygon fill="#eeeeff" stroke="black" points="126,-180 72,-180 72,-144 126,-144 126,-180"/>
<text text-anchor="middle" x="99" y="-159.5" font-family="Helvetica,sans-Serif" font-size="10.00">src</text>
</a>
</g>
</g>
<!-- dir_a0a8ac7efb6662b749c1285408048e6d -->
<g id="node2" class="node">
<title>dir_a0a8ac7efb6662b749c1285408048e6d</title>
<g id="a_node2"><a xlink:href="dir_a0a8ac7efb6662b749c1285408048e6d.html" target="_top" xlink:title="erl">
<polygon fill="white" stroke="red" points="54,-108 0,-108 0,-72 54,-72 54,-108"/>
<text text-anchor="middle" x="27" y="-87.5" font-family="Helvetica,sans-Serif" font-size="10.00">erl</text>
</a>
</g>
</g>
<!-- dir_e45d88c07cbfec1ea295334984feb137&#45;&gt;dir_a0a8ac7efb6662b749c1285408048e6d -->
<g id="edge2" class="edge">
<title>dir_e45d88c07cbfec1ea295334984feb137&#45;&gt;dir_a0a8ac7efb6662b749c1285408048e6d</title>
<path fill="none" stroke="black" d="M81.2,-143.7C72.4,-135.14 61.62,-124.66 52,-115.3"/>
<polygon fill="black" stroke="black" points="54.2,-112.57 44.59,-108.1 49.32,-117.58 54.2,-112.57"/>
<g id="a_edge2&#45;headlabel"><a xlink:href="dir_000329_000400.html" target="_top" xlink:title="1">
<text text-anchor="middle" x="58.76" y="-110.54" font-family="Helvetica,sans-Serif" font-size="10.00">1</text>
</a>
</g>
</g>
<!-- dir_30a389187753df23749947c0b14cee5f -->
<g id="node3" class="node">
<title>dir_30a389187753df23749947c0b14cee5f</title>
<g id="a_node3"><a xlink:href="dir_30a389187753df23749947c0b14cee5f.html" target="_top" xlink:title="include">
<polygon fill="none" stroke="black" points="126,-108 72,-108 72,-72 126,-72 126,-108"/>
<text text-anchor="middle" x="99" y="-87.5" font-family="Helvetica,sans-Serif" font-size="10.00">include</text>
</a>
</g>
</g>
<!-- dir_e45d88c07cbfec1ea295334984feb137&#45;&gt;dir_30a389187753df23749947c0b14cee5f -->
<g id="edge3" class="edge">
<title>dir_e45d88c07cbfec1ea295334984feb137&#45;&gt;dir_30a389187753df23749947c0b14cee5f</title>
<path fill="none" stroke="black" d="M99,-143.7C99,-135.98 99,-126.71 99,-118.11"/>
<polygon fill="black" stroke="black" points="102.5,-118.1 99,-108.1 95.5,-118.1 102.5,-118.1"/>
<g id="a_edge3&#45;headlabel"><a xlink:href="dir_000329_000433.html" target="_top" xlink:title="4">
<text text-anchor="middle" x="105.34" y="-119.2" font-family="Helvetica,sans-Serif" font-size="10.00">4</text>
</a>
</g>
</g>
<!-- dir_0981ace215aa2029f526b70c145b9fbe -->
<g id="node4" class="node">
<title>dir_0981ace215aa2029f526b70c145b9fbe</title>
<g id="a_node4"><a xlink:href="dir_0981ace215aa2029f526b70c145b9fbe.html" target="_top" xlink:title="iop">
<polygon fill="white" stroke="red" points="117,-36 63,-36 63,0 117,0 117,-36"/>
<text text-anchor="middle" x="90" y="-15.5" font-family="Helvetica,sans-Serif" font-size="10.00">iop</text>
</a>
</g>
</g>
<!-- dir_e45d88c07cbfec1ea295334984feb137&#45;&gt;dir_0981ace215aa2029f526b70c145b9fbe -->
<g id="edge4" class="edge">
<title>dir_e45d88c07cbfec1ea295334984feb137&#45;&gt;dir_0981ace215aa2029f526b70c145b9fbe</title>
<path fill="none" stroke="black" d="M114.61,-143.77C122.37,-134.03 130.95,-121.18 135,-108 139.7,-92.71 140.52,-87.02 135,-72 131.22,-61.7 124.44,-52.02 117.28,-43.84"/>
<polygon fill="black" stroke="black" points="119.77,-41.38 110.38,-36.47 114.66,-46.16 119.77,-41.38"/>
<g id="a_edge4&#45;headlabel"><a xlink:href="dir_000329_000011.html" target="_top" xlink:title="1">
<text text-anchor="middle" x="124.3" y="-39.56" font-family="Helvetica,sans-Serif" font-size="10.00">1</text>
</a>
</g>
</g>
<!-- dir_a0a8ac7efb6662b749c1285408048e6d&#45;&gt;dir_0981ace215aa2029f526b70c145b9fbe -->
<g id="edge1" class="edge">
<title>dir_a0a8ac7efb6662b749c1285408048e6d&#45;&gt;dir_0981ace215aa2029f526b70c145b9fbe</title>
<path fill="none" stroke="black" d="M42.57,-71.7C50.2,-63.22 59.52,-52.86 67.88,-43.58"/>
<polygon fill="black" stroke="black" points="70.52,-45.88 74.61,-36.1 65.31,-41.2 70.52,-45.88"/>
<g id="a_edge1&#45;headlabel"><a xlink:href="dir_000400_000011.html" target="_top" xlink:title="4">
<text text-anchor="middle" x="70.22" y="-47.95" font-family="Helvetica,sans-Serif" font-size="10.00">4</text>
</a>
</g>
</g>
</g>
</svg>
