<?xml version="1.0" encoding="UTF-8" standalone="no"?>
<!DOCTYPE svg PUBLIC "-//W3C//DTD SVG 1.1//EN"
 "http://www.w3.org/Graphics/SVG/1.1/DTD/svg11.dtd">
<!-- Generated by graphviz version 2.44.0 ()
 -->
<!-- Title: iop/debug/iop_sbusdbg/include Pages: 1 -->
<svg width="95pt" height="151pt"
 viewBox="0.00 0.00 95.00 151.00" xmlns="http://www.w3.org/2000/svg" xmlns:xlink="http://www.w3.org/1999/xlink">
<g id="graph0" class="graph" transform="scale(1 1) rotate(0) translate(4 147)">
<title>iop/debug/iop_sbusdbg/include</title>
<polygon fill="white" stroke="transparent" points="-4,4 -4,-147 91,-147 91,4 -4,4"/>
<g id="clust1" class="cluster">
<title>clusterdir_2f080771f6205bbf07c3b5e6545bd3fa</title>
<g id="a_clust1"><a xlink:href="dir_2f080771f6205bbf07c3b5e6545bd3fa.html" target="_top" xlink:title="iop_sbusdbg">
<polygon fill="#ddddee" stroke="black" points="8,-64 8,-135 79,-135 79,-64 8,-64"/>
<text text-anchor="middle" x="43.5" y="-123" font-family="Helvetica,sans-Serif" font-size="10.00">iop_sbusdbg</text>
</a>
</g>
</g>
<!-- dir_36b98ff8a35b2ed655cbfa91e3ae73e8 -->
<g id="node1" class="node">
<title>dir_36b98ff8a35b2ed655cbfa91e3ae73e8</title>
<g id="a_node1"><a xlink:href="dir_36b98ff8a35b2ed655cbfa91e3ae73e8.html" target="_top" xlink:title="include">
<polygon fill="#eeeeff" stroke="black" points="70,-108 16,-108 16,-72 70,-72 70,-108"/>
<text text-anchor="middle" x="43" y="-87.5" font-family="Helvetica,sans-Serif" font-size="10.00">include</text>
</a>
</g>
</g>
<!-- dir_bdd9a5d540de89e9fe90efdfc6973a4f -->
<g id="node2" class="node">
<title>dir_bdd9a5d540de89e9fe90efdfc6973a4f</title>
<g id="a_node2"><a xlink:href="dir_bdd9a5d540de89e9fe90efdfc6973a4f.html" target="_top" xlink:title="common">
<polygon fill="white" stroke="red" points="70,-36 16,-36 16,0 70,0 70,-36"/>
<text text-anchor="middle" x="43" y="-15.5" font-family="Helvetica,sans-Serif" font-size="10.00">common</text>
</a>
</g>
</g>
<!-- dir_36b98ff8a35b2ed655cbfa91e3ae73e8&#45;&gt;dir_bdd9a5d540de89e9fe90efdfc6973a4f -->
<g id="edge1" class="edge">
<title>dir_36b98ff8a35b2ed655cbfa91e3ae73e8&#45;&gt;dir_bdd9a5d540de89e9fe90efdfc6973a4f</title>
<path fill="none" stroke="black" d="M43,-71.7C43,-63.98 43,-54.71 43,-46.11"/>
<polygon fill="black" stroke="black" points="46.5,-46.1 43,-36.1 39.5,-46.1 46.5,-46.1"/>
<g id="a_edge1&#45;headlabel"><a xlink:href="dir_000268_000000.html" target="_top" xlink:title="1">
<text text-anchor="middle" x="49.34" y="-47.2" font-family="Helvetica,sans-Serif" font-size="10.00">1</text>
</a>
</g>
</g>
</g>
</svg>
