<?xml version="1.0" encoding="UTF-8" standalone="no"?>
<!DOCTYPE svg PUBLIC "-//W3C//DTD SVG 1.1//EN"
 "http://www.w3.org/Graphics/SVG/1.1/DTD/svg11.dtd">
<!-- Generated by graphviz version 12.2.0 (20241103.1931)
 -->
<!-- Title: iop/system/udnl Pages: 1 -->
<!--zoomable 142 -->

<svg id="main" version="1.1" xmlns="http://www.w3.org/2000/svg" xmlns:xlink="http://www.w3.org/1999/xlink" xml:space="preserve" onload="init(evt)">

<style type="text/css"><![CDATA[
.node, .edge {opacity: 0.7;}
.node.selected, .edge.selected {opacity: 1;}
.edge:hover path { stroke: red; }
.edge:hover polygon { stroke: red; fill: red; }
]]></style>

<defs>
  <circle id="rim" cx="0" cy="0" r="7"/>
  <circle id="rim2" cx="0" cy="0" r="3.5"/>
  <g id="zoomPlus">
    <use xlink:href="#rim" fill="#404040"><set attributeName="fill" to="#808080" begin="zoomplus.mouseover" end="zoomplus.mouseout"/></use>
    <path d="M-4,0h8M0,-4v8" fill="none" stroke="white" stroke-width="1.5" pointer-events="none"/>
  </g>
  <g id="zoomMin">
    <use xlink:href="#rim" fill="#404040"><set attributeName="fill" to="#808080" begin="zoomminus.mouseover" end="zoomminus.mouseout"/></use>
    <path d="M-4,0h8" fill="none" stroke="white" stroke-width="1.5" pointer-events="none"/>
  </g>
  <g id="arrowUp" transform="translate(30 24)">
    <use xlink:href="#rim"/>
    <path pointer-events="none" fill="none" stroke="white" stroke-width="1.5" d="M0,-3.0v7 M-2.5,-0.5L0,-3.0L2.5,-0.5"/>
  </g>
  <g id="arrowRight" transform="rotate(90) translate(36 -43)">
    <use xlink:href="#rim"/>
    <path pointer-events="none" fill="none" stroke="white" stroke-width="1.5" d="M0,-3.0v7 M-2.5,-0.5L0,-3.0L2.5,-0.5"/>
  </g>
  <g id="arrowDown" transform="rotate(180) translate(-30 -48)">
    <use xlink:href="#rim"/>
    <path pointer-events="none" fill="none" stroke="white" stroke-width="1.5" d="M0,-3.0v7 M-2.5,-0.5L0,-3.0L2.5,-0.5"/>
  </g>
  <g id="arrowLeft" transform="rotate(270) translate(-36 17)">
    <use xlink:href="#rim"/>
    <path pointer-events="none" fill="none" stroke="white" stroke-width="1.5" d="M0,-3.0v7 M-2.5,-0.5L0,-3.0L2.5,-0.5"/>
  </g>
  <g id="resetDef">
    <use xlink:href="#rim2" fill="#404040"><set attributeName="fill" to="#808080" begin="reset.mouseover" end="reset.mouseout"/></use>
  </g>
</defs>
<script type="application/ecmascript">
var viewWidth = 611;
var viewHeight = 142;
var sectionId = 'dynsection-0';
</script>
<script type="application/ecmascript" xlink:href="svg.min.js"/>
<svg id="graph" class="graph">
<g id="viewport">
<title>iop/system/udnl</title>
<g id="clust1" class="cluster">
<title>clusterdir_40ac35421bc63b72c26b6c69b1517fd6</title>
<g id="a_clust1"><a xlink:href="dir_40ac35421bc63b72c26b6c69b1517fd6.html" target="_top" xlink:title="system">
<polygon fill="#deebf9" stroke="#7f7f7f" stroke-dasharray="5,2" points="8,-8 8,-125.75 550,-125.75 550,-8 8,-8"/>
<text text-anchor="middle" x="279" y="-112.25" font-family="Helvetica,sans-Serif" font-size="10.00">system</text>
</a>
</g>
</g>
<g id="clust2" class="cluster">
<title>clusterdir_ba5b6e33a21a738024e426bc2a53820a</title>
<g id="a_clust2"><a xlink:href="dir_ba5b6e33a21a738024e426bc2a53820a.html" target="_top">
<polygon fill="#deebf9" stroke="#404040" stroke-width="2" points="232,-63.25 232,-98.5 330,-98.5 330,-63.25 232,-63.25"/>
</a>
</g>
</g>
<!-- dir_1bd32d4ef826aeeda00870843eb45c97 -->
<g id="node1" class="node">
<title>dir_1bd32d4ef826aeeda00870843eb45c97</title>
<g id="a_node1"><a xlink:href="dir_1bd32d4ef826aeeda00870843eb45c97.html" target="_top" xlink:title="sysclib">
<polygon fill="#60a2e3" stroke="red" points="62,-35.25 16,-35.25 16,-16 62,-16 62,-35.25"/>
<text text-anchor="middle" x="39" y="-21.75" font-family="Helvetica,sans-Serif" font-size="10.00">sysclib</text>
</a>
</g>
</g>
<!-- dir_1d64e5e9f20206636d72b5bbe3d2b274 -->
<g id="node2" class="node">
<title>dir_1d64e5e9f20206636d72b5bbe3d2b274</title>
<g id="a_node2"><a xlink:href="dir_1d64e5e9f20206636d72b5bbe3d2b274.html" target="_top" xlink:title="loadcore">
<polygon fill="#60a2e3" stroke="red" points="132.38,-35.25 79.62,-35.25 79.62,-16 132.38,-16 132.38,-35.25"/>
<text text-anchor="middle" x="106" y="-21.75" font-family="Helvetica,sans-Serif" font-size="10.00">loadcore</text>
</a>
</g>
</g>
<!-- dir_44719da65bb992f08c8ee8632a1136c7 -->
<g id="node3" class="node">
<title>dir_44719da65bb992f08c8ee8632a1136c7</title>
<g id="a_node3"><a xlink:href="dir_44719da65bb992f08c8ee8632a1136c7.html" target="_top" xlink:title="sysmem">
<polygon fill="#60a2e3" stroke="red" points="203.38,-35.25 150.62,-35.25 150.62,-16 203.38,-16 203.38,-35.25"/>
<text text-anchor="middle" x="177" y="-21.75" font-family="Helvetica,sans-Serif" font-size="10.00">sysmem</text>
</a>
</g>
</g>
<!-- dir_7422a0894415a12ccd1d562a8ad09f2d -->
<g id="node4" class="node">
<title>dir_7422a0894415a12ccd1d562a8ad09f2d</title>
<g id="a_node4"><a xlink:href="dir_7422a0894415a12ccd1d562a8ad09f2d.html" target="_top" xlink:title="intrman">
<polygon fill="#60a2e3" stroke="red" points="270.12,-35.25 221.88,-35.25 221.88,-16 270.12,-16 270.12,-35.25"/>
<text text-anchor="middle" x="246" y="-21.75" font-family="Helvetica,sans-Serif" font-size="10.00">intrman</text>
</a>
</g>
</g>
<!-- dir_952a988346c879bc3b2834e2377036db -->
<g id="node5" class="node">
<title>dir_952a988346c879bc3b2834e2377036db</title>
<g id="a_node5"><a xlink:href="dir_952a988346c879bc3b2834e2377036db.html" target="_top" xlink:title="stdio">
<polygon fill="#60a2e3" stroke="red" points="325.5,-35.25 288.5,-35.25 288.5,-16 325.5,-16 325.5,-35.25"/>
<text text-anchor="middle" x="307" y="-21.75" font-family="Helvetica,sans-Serif" font-size="10.00">stdio</text>
</a>
</g>
</g>
<!-- dir_d204d0cf134f4cdf6ccf23f48ed9ae60 -->
<g id="node6" class="node">
<title>dir_d204d0cf134f4cdf6ccf23f48ed9ae60</title>
<g id="a_node6"><a xlink:href="dir_d204d0cf134f4cdf6ccf23f48ed9ae60.html" target="_top" xlink:title="ioman">
<polygon fill="#60a2e3" stroke="red" points="386.12,-35.25 343.88,-35.25 343.88,-16 386.12,-16 386.12,-35.25"/>
<text text-anchor="middle" x="365" y="-21.75" font-family="Helvetica,sans-Serif" font-size="10.00">ioman</text>
</a>
</g>
</g>
<!-- dir_d3b40e87d731c1e886b7a70e6daaf700 -->
<g id="node7" class="node">
<title>dir_d3b40e87d731c1e886b7a70e6daaf700</title>
<g id="a_node7"><a xlink:href="dir_d3b40e87d731c1e886b7a70e6daaf700.html" target="_top" xlink:title="threadman">
<polygon fill="#60a2e3" stroke="red" points="465.88,-35.25 404.12,-35.25 404.12,-16 465.88,-16 465.88,-35.25"/>
<text text-anchor="middle" x="435" y="-21.75" font-family="Helvetica,sans-Serif" font-size="10.00">threadman</text>
</a>
</g>
</g>
<!-- dir_d7026c86e7f8fc62fc6c0ebacfebf381 -->
<g id="node8" class="node">
<title>dir_d7026c86e7f8fc62fc6c0ebacfebf381</title>
<g id="a_node8"><a xlink:href="dir_d7026c86e7f8fc62fc6c0ebacfebf381.html" target="_top" xlink:title="dmacman">
<polygon fill="#60a2e3" stroke="red" points="542.38,-35.25 483.62,-35.25 483.62,-16 542.38,-16 542.38,-35.25"/>
<text text-anchor="middle" x="513" y="-21.75" font-family="Helvetica,sans-Serif" font-size="10.00">dmacman</text>
</a>
</g>
</g>
<!-- dir_ba5b6e33a21a738024e426bc2a53820a -->
<g id="node9" class="node">
<title>dir_ba5b6e33a21a738024e426bc2a53820a</title>
<text text-anchor="middle" x="257" y="-77" font-family="Helvetica,sans-Serif" font-size="10.00">udnl</text>
</g>
<!-- dir_b13870b8cbb1ed54253f2a75128daced -->
<g id="node10" class="node">
<title>dir_b13870b8cbb1ed54253f2a75128daced</title>
<g id="a_node10"><a xlink:href="dir_b13870b8cbb1ed54253f2a75128daced.html" target="_top" xlink:title="src">
<polygon fill="#60a2e3" stroke="#404040" points="321.75,-90.5 292.25,-90.5 292.25,-71.25 321.75,-71.25 321.75,-90.5"/>
<text text-anchor="middle" x="307" y="-77" font-family="Helvetica,sans-Serif" font-size="10.00">src</text>
</a>
</g>
</g>
<!-- dir_b13870b8cbb1ed54253f2a75128daced&#45;&gt;dir_1bd32d4ef826aeeda00870843eb45c97 -->
<g id="edge1" class="edge">
<title>dir_b13870b8cbb1ed54253f2a75128daced&#45;&gt;dir_1bd32d4ef826aeeda00870843eb45c97</title>
<g id="a_edge1"><a xlink:href="dir_000538_000569.html" target="_top">
<path fill="none" stroke="#63b8ff" d="M296.39,-70.91C292.42,-68.01 287.73,-65.08 283,-63.25 197.63,-30.28 166.51,-52.12 73.39,-35.41"/>
<polygon fill="#63b8ff" stroke="#63b8ff" points="74.3,-32.02 63.82,-33.58 72.99,-38.89 74.3,-32.02"/>
</a>
</g>
<g id="a_edge1&#45;headlabel"><a xlink:href="dir_000538_000569.html" target="_top" xlink:title="2">
<text text-anchor="middle" x="76.88" y="-25.74" font-family="Helvetica,sans-Serif" font-size="10.00" fill="#63b8ff">2</text>
</a>
</g>
</g>
<!-- dir_b13870b8cbb1ed54253f2a75128daced&#45;&gt;dir_1d64e5e9f20206636d72b5bbe3d2b274 -->
<g id="edge2" class="edge">
<title>dir_b13870b8cbb1ed54253f2a75128daced&#45;&gt;dir_1d64e5e9f20206636d72b5bbe3d2b274</title>
<g id="a_edge2"><a xlink:href="dir_000538_000272.html" target="_top">
<path fill="none" stroke="#63b8ff" d="M296.32,-71.08C292.35,-68.2 287.67,-65.23 283,-63.25 227.28,-39.63 206.6,-47.9 143.63,-35.43"/>
<polygon fill="#63b8ff" stroke="#63b8ff" points="144.7,-32.08 134.19,-33.46 143.26,-38.93 144.7,-32.08"/>
</a>
</g>
<g id="a_edge2&#45;headlabel"><a xlink:href="dir_000538_000272.html" target="_top" xlink:title="2">
<text text-anchor="middle" x="147.31" y="-25.85" font-family="Helvetica,sans-Serif" font-size="10.00" fill="#63b8ff">2</text>
</a>
</g>
</g>
<!-- dir_b13870b8cbb1ed54253f2a75128daced&#45;&gt;dir_44719da65bb992f08c8ee8632a1136c7 -->
<g id="edge3" class="edge">
<title>dir_b13870b8cbb1ed54253f2a75128daced&#45;&gt;dir_44719da65bb992f08c8ee8632a1136c7</title>
<g id="a_edge3"><a xlink:href="dir_000538_000570.html" target="_top">
<path fill="none" stroke="#63b8ff" d="M295.68,-71.09C291.8,-68.34 287.34,-65.45 283,-63.25 261.17,-52.18 235.22,-43.15 214.45,-36.83"/>
<polygon fill="#63b8ff" stroke="#63b8ff" points="215.55,-33.5 204.96,-34.02 213.56,-40.21 215.55,-33.5"/>
</a>
</g>
<g id="a_edge3&#45;headlabel"><a xlink:href="dir_000538_000570.html" target="_top" xlink:title="2">
<text text-anchor="middle" x="218.35" y="-27.49" font-family="Helvetica,sans-Serif" font-size="10.00" fill="#63b8ff">2</text>
</a>
</g>
</g>
<!-- dir_b13870b8cbb1ed54253f2a75128daced&#45;&gt;dir_7422a0894415a12ccd1d562a8ad09f2d -->
<g id="edge4" class="edge">
<title>dir_b13870b8cbb1ed54253f2a75128daced&#45;&gt;dir_7422a0894415a12ccd1d562a8ad09f2d</title>
<g id="a_edge4"><a xlink:href="dir_000538_000246.html" target="_top">
<path fill="none" stroke="#63b8ff" d="M296.65,-70.84C287.92,-63.22 275.21,-52.12 264.7,-42.95"/>
<polygon fill="#63b8ff" stroke="#63b8ff" points="267.17,-40.46 257.34,-36.52 262.57,-45.73 267.17,-40.46"/>
</a>
</g>
<g id="a_edge4&#45;headlabel"><a xlink:href="dir_000538_000246.html" target="_top" xlink:title="2">
<text text-anchor="middle" x="270.61" y="-35.81" font-family="Helvetica,sans-Serif" font-size="10.00" fill="#63b8ff">2</text>
</a>
</g>
</g>
<!-- dir_b13870b8cbb1ed54253f2a75128daced&#45;&gt;dir_952a988346c879bc3b2834e2377036db -->
<g id="edge5" class="edge">
<title>dir_b13870b8cbb1ed54253f2a75128daced&#45;&gt;dir_952a988346c879bc3b2834e2377036db</title>
<g id="a_edge5"><a xlink:href="dir_000538_000562.html" target="_top">
<path fill="none" stroke="#63b8ff" d="M307,-71.08C307,-64.57 307,-55.42 307,-47.12"/>
<polygon fill="#63b8ff" stroke="#63b8ff" points="310.5,-47.12 307,-37.12 303.5,-47.12 310.5,-47.12"/>
</a>
</g>
<g id="a_edge5&#45;headlabel"><a xlink:href="dir_000538_000562.html" target="_top" xlink:title="2">
<text text-anchor="middle" x="313.34" y="-45.33" font-family="Helvetica,sans-Serif" font-size="10.00" fill="#63b8ff">2</text>
</a>
</g>
</g>
<!-- dir_b13870b8cbb1ed54253f2a75128daced&#45;&gt;dir_d204d0cf134f4cdf6ccf23f48ed9ae60 -->
<g id="edge7" class="edge">
<title>dir_b13870b8cbb1ed54253f2a75128daced&#45;&gt;dir_d204d0cf134f4cdf6ccf23f48ed9ae60</title>
<g id="a_edge7"><a xlink:href="dir_000538_000247.html" target="_top">
<path fill="none" stroke="#63b8ff" d="M316.84,-70.84C325.05,-63.3 336.98,-52.35 346.91,-43.23"/>
<polygon fill="#63b8ff" stroke="#63b8ff" points="349.19,-45.89 354.19,-36.55 344.46,-40.73 349.19,-45.89"/>
</a>
</g>
<g id="a_edge7&#45;headlabel"><a xlink:href="dir_000538_000247.html" target="_top" xlink:title="2">
<text text-anchor="middle" x="349.58" y="-45.51" font-family="Helvetica,sans-Serif" font-size="10.00" fill="#63b8ff">2</text>
</a>
</g>
</g>
<!-- dir_b13870b8cbb1ed54253f2a75128daced&#45;&gt;dir_d3b40e87d731c1e886b7a70e6daaf700 -->
<g id="edge8" class="edge">
<title>dir_b13870b8cbb1ed54253f2a75128daced&#45;&gt;dir_d3b40e87d731c1e886b7a70e6daaf700</title>
<g id="a_edge8"><a xlink:href="dir_000538_000580.html" target="_top">
<path fill="none" stroke="#63b8ff" d="M322.19,-73.56C342,-65.31 377.19,-50.67 403.02,-39.93"/>
<polygon fill="#63b8ff" stroke="#63b8ff" points="404.15,-43.25 412.04,-36.18 401.46,-36.79 404.15,-43.25"/>
</a>
</g>
<g id="a_edge8&#45;headlabel"><a xlink:href="dir_000538_000580.html" target="_top" xlink:title="2">
<text text-anchor="middle" x="403.32" y="-42.79" font-family="Helvetica,sans-Serif" font-size="10.00" fill="#63b8ff">2</text>
</a>
</g>
</g>
<!-- dir_b13870b8cbb1ed54253f2a75128daced&#45;&gt;dir_d7026c86e7f8fc62fc6c0ebacfebf381 -->
<g id="edge9" class="edge">
<title>dir_b13870b8cbb1ed54253f2a75128daced&#45;&gt;dir_d7026c86e7f8fc62fc6c0ebacfebf381</title>
<g id="a_edge9"><a xlink:href="dir_000538_000055.html" target="_top">
<path fill="none" stroke="#63b8ff" d="M322.15,-75.96C353.41,-67.88 426.01,-49.11 472.12,-37.19"/>
<polygon fill="#63b8ff" stroke="#63b8ff" points="472.95,-40.59 481.76,-34.7 471.2,-33.81 472.95,-40.59"/>
</a>
</g>
<g id="a_edge9&#45;headlabel"><a xlink:href="dir_000538_000055.html" target="_top" xlink:title="2">
<text text-anchor="middle" x="471.65" y="-39.99" font-family="Helvetica,sans-Serif" font-size="10.00" fill="#63b8ff">2</text>
</a>
</g>
</g>
<!-- dir_9be0baa3d4a3e9f480a9ee70594037fa -->
<g id="node11" class="node">
<title>dir_9be0baa3d4a3e9f480a9ee70594037fa</title>
<g id="a_node11"><a xlink:href="dir_9be0baa3d4a3e9f480a9ee70594037fa.html" target="_top" xlink:title="kernel">
<polygon fill="#deebf9" stroke="red" stroke-dasharray="5,2" points="603.12,-35.25 560.88,-35.25 560.88,-16 603.12,-16 603.12,-35.25"/>
<text text-anchor="middle" x="582" y="-21.75" font-family="Helvetica,sans-Serif" font-size="10.00">kernel</text>
</a>
</g>
</g>
<!-- dir_b13870b8cbb1ed54253f2a75128daced&#45;&gt;dir_9be0baa3d4a3e9f480a9ee70594037fa -->
<g id="edge6" class="edge">
<title>dir_b13870b8cbb1ed54253f2a75128daced&#45;&gt;dir_9be0baa3d4a3e9f480a9ee70594037fa</title>
<g id="a_edge6"><a xlink:href="dir_000538_000256.html" target="_top">
<path fill="none" stroke="#63b8ff" d="M322.17,-77.78C359.51,-72.5 459.01,-57.6 549.66,-36.13"/>
<polygon fill="#63b8ff" stroke="#63b8ff" points="550.3,-39.58 559.2,-33.84 548.66,-32.78 550.3,-39.58"/>
</a>
</g>
<g id="a_edge6&#45;headlabel"><a xlink:href="dir_000538_000256.html" target="_top" xlink:title="1">
<text text-anchor="middle" x="548.94" y="-38.96" font-family="Helvetica,sans-Serif" font-size="10.00" fill="#63b8ff">1</text>
</a>
</g>
</g>
</g>
</svg>

<g id="navigator" transform="translate(0 0)" fill="#404254">
  <rect fill="#f2f5e9" fill-opacity="0.5" stroke="#606060" stroke-width=".5" x="0" y="0" width="60" height="60"/>
  <use id="zoomplus" xlink:href="#zoomPlus" x="17" y="9" onmousedown="handleZoom(evt,'in')"/>
  <use id="zoomminus" xlink:href="#zoomMin" x="42" y="9" onmousedown="handleZoom(evt,'out')"/>
  <use id="reset" xlink:href="#resetDef" x="30" y="36" onmousedown="handleReset()"/>
   <use id="arrowup" xlink:href="#arrowUp" x="0" y="0" onmousedown="handlePan(0,-1)"/>
  <use id="arrowright" xlink:href="#arrowRight" x="0" y="0" onmousedown="handlePan(1,0)"/>
  <use id="arrowdown" xlink:href="#arrowDown" x="0" y="0" onmousedown="handlePan(0,1)"/>
  <use id="arrowleft" xlink:href="#arrowLeft" x="0" y="0" onmousedown="handlePan(-1,0)"/>
</g>
<svg viewBox="0 0 15 15" width="100%" height="30px" preserveAspectRatio="xMaxYMin meet">
 <g id="arrow_out" transform="scale(0.3 0.3)">
  <a xlink:href="dir_ba5b6e33a21a738024e426bc2a53820a_dep_org.svg" target="_base">
   <rect id="button" ry="5" rx="5" y="6" x="6" height="38" width="38"
        fill="#f2f5e9" fill-opacity="0.5" stroke="#606060" stroke-width="1.0"/>
   <path id="arrow"
     d="M 11.500037,31.436501 C 11.940474,20.09759 22.043105,11.32322 32.158766,21.979434 L 37.068811,17.246167 C 37.068811,17.246167 37.088388,32 37.088388,32 L 22.160133,31.978069 C 22.160133,31.978069 26.997745,27.140456 26.997745,27.140456 C 18.528582,18.264221 13.291696,25.230495 11.500037,31.436501 z"
     style="fill:#404040;"/>
  </a>
 </g>
</svg>

<style type='text/css'>
<![CDATA[
[data-mouse-over-selected='false'] { opacity: 0.7; }
[data-mouse-over-selected='true']  { opacity: 1.0; }
]]>
</style>
<script type="application/ecmascript"><![CDATA[
document.addEventListener('DOMContentLoaded', (event) => {
  highlightEdges();
  highlightAdjacentNodes();
});
]]></script>
</svg>
