<?xml version="1.0" encoding="UTF-8" standalone="no"?>
<!DOCTYPE svg PUBLIC "-//W3C//DTD SVG 1.1//EN"
 "http://www.w3.org/Graphics/SVG/1.1/DTD/svg11.dtd">
<!-- Generated by graphviz version 2.44.0 ()
 -->
<!-- Title: iop/usb Pages: 1 -->
<svg width="626pt" height="247pt"
 viewBox="0.00 0.00 625.58 247.00" xmlns="http://www.w3.org/2000/svg" xmlns:xlink="http://www.w3.org/1999/xlink">
<g id="graph0" class="graph" transform="scale(1 1) rotate(0) translate(4 243)">
<title>iop/usb</title>
<polygon fill="white" stroke="transparent" points="-4,4 -4,-243 621.58,-243 621.58,4 -4,4"/>
<g id="clust1" class="cluster">
<title>clusterdir_0981ace215aa2029f526b70c145b9fbe</title>
<g id="a_clust1"><a xlink:href="dir_0981ace215aa2029f526b70c145b9fbe.html" target="_top" xlink:title="iop">
<polygon fill="#ddddee" stroke="black" points="8,-8 8,-231 538,-231 538,-8 8,-8"/>
<text text-anchor="middle" x="273" y="-219" font-family="Helvetica,sans-Serif" font-size="10.00">iop</text>
</a>
</g>
</g>
<g id="clust2" class="cluster">
<title>clusterdir_b6c875632944d243a548db157cd77ec2</title>
<g id="a_clust2"><a xlink:href="dir_b6c875632944d243a548db157cd77ec2.html" target="_top">
<polygon fill="#eeeeff" stroke="black" points="16,-80 16,-204 468,-204 468,-80 16,-80"/>
</a>
</g>
</g>
<!-- dir_9be0baa3d4a3e9f480a9ee70594037fa -->
<g id="node1" class="node">
<title>dir_9be0baa3d4a3e9f480a9ee70594037fa</title>
<g id="a_node1"><a xlink:href="dir_9be0baa3d4a3e9f480a9ee70594037fa.html" target="_top" xlink:title="kernel">
<polygon fill="white" stroke="red" points="302,-52 248,-52 248,-16 302,-16 302,-52"/>
<text text-anchor="middle" x="275" y="-31.5" font-family="Helvetica,sans-Serif" font-size="10.00">kernel</text>
</a>
</g>
</g>
<!-- dir_bdd9a5d540de89e9fe90efdfc6973a4f -->
<g id="node10" class="node">
<title>dir_bdd9a5d540de89e9fe90efdfc6973a4f</title>
<g id="a_node10"><a xlink:href="dir_bdd9a5d540de89e9fe90efdfc6973a4f.html" target="_top" xlink:title="common">
<polygon fill="white" stroke="red" points="600,-52 546,-52 546,-16 600,-16 600,-52"/>
<text text-anchor="middle" x="573" y="-31.5" font-family="Helvetica,sans-Serif" font-size="10.00">common</text>
</a>
</g>
</g>
<!-- dir_9be0baa3d4a3e9f480a9ee70594037fa&#45;&gt;dir_bdd9a5d540de89e9fe90efdfc6973a4f -->
<g id="edge1" class="edge">
<title>dir_9be0baa3d4a3e9f480a9ee70594037fa&#45;&gt;dir_bdd9a5d540de89e9fe90efdfc6973a4f</title>
<path fill="none" stroke="black" d="M302.06,-34C379.8,-34 457.54,-34 535.28,-34"/>
<polygon fill="black" stroke="black" points="535.75,-37.5 545.75,-34 535.75,-30.5 535.75,-37.5"/>
<g id="a_edge1&#45;headlabel"><a xlink:href="dir_000214_000000.html" target="_top" xlink:title="12">
<text text-anchor="middle" x="532.15" y="-37.84" font-family="Helvetica,sans-Serif" font-size="10.00">12</text>
</a>
</g>
</g>
<!-- dir_f24daea2522ffa8b6dc5fa9cdf5b8f5c -->
<g id="node2" class="node">
<title>dir_f24daea2522ffa8b6dc5fa9cdf5b8f5c</title>
<g id="a_node2"><a xlink:href="dir_f24daea2522ffa8b6dc5fa9cdf5b8f5c.html" target="_top" xlink:title="fs">
<polygon fill="white" stroke="red" points="530,-124 476,-124 476,-88 530,-88 530,-124"/>
<text text-anchor="middle" x="503" y="-103.5" font-family="Helvetica,sans-Serif" font-size="10.00">fs</text>
</a>
</g>
</g>
<!-- dir_f24daea2522ffa8b6dc5fa9cdf5b8f5c&#45;&gt;dir_9be0baa3d4a3e9f480a9ee70594037fa -->
<g id="edge15" class="edge">
<title>dir_f24daea2522ffa8b6dc5fa9cdf5b8f5c&#45;&gt;dir_9be0baa3d4a3e9f480a9ee70594037fa</title>
<path fill="none" stroke="black" d="M484.58,-87.93C480.65,-84.94 476.35,-82.11 472,-80 419.88,-54.72 353.03,-43.33 312.14,-38.43"/>
<polygon fill="black" stroke="black" points="312.41,-34.94 302.08,-37.29 311.63,-41.89 312.41,-34.94"/>
<g id="a_edge15&#45;headlabel"><a xlink:href="dir_000035_000214.html" target="_top" xlink:title="144">
<text text-anchor="middle" x="316.3" y="-30.02" font-family="Helvetica,sans-Serif" font-size="10.00">144</text>
</a>
</g>
</g>
<!-- dir_f24daea2522ffa8b6dc5fa9cdf5b8f5c&#45;&gt;dir_bdd9a5d540de89e9fe90efdfc6973a4f -->
<g id="edge16" class="edge">
<title>dir_f24daea2522ffa8b6dc5fa9cdf5b8f5c&#45;&gt;dir_bdd9a5d540de89e9fe90efdfc6973a4f</title>
<path fill="none" stroke="black" d="M520.3,-87.7C528.86,-79.14 539.34,-68.66 548.7,-59.3"/>
<polygon fill="black" stroke="black" points="551.3,-61.65 555.9,-52.1 546.35,-56.7 551.3,-61.65"/>
<g id="a_edge16&#45;headlabel"><a xlink:href="dir_000035_000000.html" target="_top" xlink:title="9">
<text text-anchor="middle" x="550.77" y="-63.7" font-family="Helvetica,sans-Serif" font-size="10.00">9</text>
</a>
</g>
</g>
<!-- dir_b6c875632944d243a548db157cd77ec2 -->
<g id="node3" class="node">
<title>dir_b6c875632944d243a548db157cd77ec2</title>
<text text-anchor="middle" x="433" y="-175.5" font-family="Helvetica,sans-Serif" font-size="10.00">usb</text>
</g>
<!-- dir_354d0fe30f8451f44d30d5ee272e7643 -->
<g id="node4" class="node">
<title>dir_354d0fe30f8451f44d30d5ee272e7643</title>
<g id="a_node4"><a xlink:href="dir_354d0fe30f8451f44d30d5ee272e7643.html" target="_top" xlink:title="camera">
<polygon fill="white" stroke="red" points="224,-196 170,-196 170,-160 224,-160 224,-196"/>
<text text-anchor="middle" x="197" y="-175.5" font-family="Helvetica,sans-Serif" font-size="10.00">camera</text>
</a>
</g>
</g>
<!-- dir_354d0fe30f8451f44d30d5ee272e7643&#45;&gt;dir_9be0baa3d4a3e9f480a9ee70594037fa -->
<g id="edge7" class="edge">
<title>dir_354d0fe30f8451f44d30d5ee272e7643&#45;&gt;dir_9be0baa3d4a3e9f480a9ee70594037fa</title>
<path fill="none" stroke="black" d="M218.77,-159.9C229.57,-150.38 241.98,-137.7 250,-124 261.18,-104.9 267.57,-80.54 271.09,-62.14"/>
<polygon fill="black" stroke="black" points="274.57,-62.53 272.84,-52.08 267.68,-61.33 274.57,-62.53"/>
<g id="a_edge7&#45;headlabel"><a xlink:href="dir_000116_000214.html" target="_top" xlink:title="19">
<text text-anchor="middle" x="276.75" y="-64.06" font-family="Helvetica,sans-Serif" font-size="10.00">19</text>
</a>
</g>
</g>
<!-- dir_8f550b51c304fe10978bfd792866fae2 -->
<g id="node7" class="node">
<title>dir_8f550b51c304fe10978bfd792866fae2</title>
<g id="a_node7"><a xlink:href="dir_8f550b51c304fe10978bfd792866fae2.html" target="_top" xlink:title="usbd">
<polygon fill="white" stroke="red" points="206,-124 152,-124 152,-88 206,-88 206,-124"/>
<text text-anchor="middle" x="179" y="-103.5" font-family="Helvetica,sans-Serif" font-size="10.00">usbd</text>
</a>
</g>
</g>
<!-- dir_354d0fe30f8451f44d30d5ee272e7643&#45;&gt;dir_8f550b51c304fe10978bfd792866fae2 -->
<g id="edge8" class="edge">
<title>dir_354d0fe30f8451f44d30d5ee272e7643&#45;&gt;dir_8f550b51c304fe10978bfd792866fae2</title>
<path fill="none" stroke="black" d="M192.55,-159.7C190.55,-151.9 188.13,-142.51 185.9,-133.83"/>
<polygon fill="black" stroke="black" points="189.28,-132.92 183.4,-124.1 182.5,-134.66 189.28,-132.92"/>
<g id="a_edge8&#45;headlabel"><a xlink:href="dir_000116_000122.html" target="_top" xlink:title="3">
<text text-anchor="middle" x="192.92" y="-133.19" font-family="Helvetica,sans-Serif" font-size="10.00">3</text>
</a>
</g>
</g>
<!-- dir_354d0fe30f8451f44d30d5ee272e7643&#45;&gt;dir_bdd9a5d540de89e9fe90efdfc6973a4f -->
<g id="edge9" class="edge">
<title>dir_354d0fe30f8451f44d30d5ee272e7643&#45;&gt;dir_bdd9a5d540de89e9fe90efdfc6973a4f</title>
<path fill="none" stroke="black" d="M224.16,-163.05C227.09,-161.89 230.08,-160.84 233,-160 299.47,-140.99 488.06,-167.24 542,-124 560.5,-109.16 567.99,-82.6 571.01,-62.34"/>
<polygon fill="black" stroke="black" points="574.51,-62.48 572.24,-52.13 567.57,-61.64 574.51,-62.48"/>
<g id="a_edge9&#45;headlabel"><a xlink:href="dir_000116_000000.html" target="_top" xlink:title="1">
<text text-anchor="middle" x="576.9" y="-63.89" font-family="Helvetica,sans-Serif" font-size="10.00">1</text>
</a>
</g>
</g>
<!-- dir_dfd34f7999bdb28cb70101636e016b16 -->
<g id="node5" class="node">
<title>dir_dfd34f7999bdb28cb70101636e016b16</title>
<g id="a_node5"><a xlink:href="dir_dfd34f7999bdb28cb70101636e016b16.html" target="_top" xlink:title="keyboard">
<polygon fill="white" stroke="red" points="80,-196 24,-196 24,-160 80,-160 80,-196"/>
<text text-anchor="middle" x="52" y="-175.5" font-family="Helvetica,sans-Serif" font-size="10.00">keyboard</text>
</a>
</g>
</g>
<!-- dir_dfd34f7999bdb28cb70101636e016b16&#45;&gt;dir_9be0baa3d4a3e9f480a9ee70594037fa -->
<g id="edge2" class="edge">
<title>dir_dfd34f7999bdb28cb70101636e016b16&#45;&gt;dir_9be0baa3d4a3e9f480a9ee70594037fa</title>
<path fill="none" stroke="black" d="M80.1,-163.56C83.08,-162.29 86.08,-161.08 89,-160 143.62,-139.78 172.8,-164.13 215,-124 229.97,-109.76 219.08,-97.54 230,-80 234.62,-72.59 240.68,-65.46 246.84,-59.15"/>
<polygon fill="black" stroke="black" points="249.32,-61.62 254.05,-52.15 244.44,-56.6 249.32,-61.62"/>
<g id="a_edge2&#45;headlabel"><a xlink:href="dir_000118_000214.html" target="_top" xlink:title="19">
<text text-anchor="middle" x="248.71" y="-63.67" font-family="Helvetica,sans-Serif" font-size="10.00">19</text>
</a>
</g>
</g>
<!-- dir_dfd34f7999bdb28cb70101636e016b16&#45;&gt;dir_8f550b51c304fe10978bfd792866fae2 -->
<g id="edge3" class="edge">
<title>dir_dfd34f7999bdb28cb70101636e016b16&#45;&gt;dir_8f550b51c304fe10978bfd792866fae2</title>
<path fill="none" stroke="black" d="M80.19,-161.46C98.69,-151.27 123.06,-137.83 142.97,-126.86"/>
<polygon fill="black" stroke="black" points="144.7,-129.9 151.77,-122.01 141.32,-123.77 144.7,-129.9"/>
<g id="a_edge3&#45;headlabel"><a xlink:href="dir_000118_000122.html" target="_top" xlink:title="3">
<text text-anchor="middle" x="142.92" y="-131.63" font-family="Helvetica,sans-Serif" font-size="10.00">3</text>
</a>
</g>
</g>
<!-- dir_6c36fa94566b53a53d1b33c49cbff7fb -->
<g id="node6" class="node">
<title>dir_6c36fa94566b53a53d1b33c49cbff7fb</title>
<g id="a_node6"><a xlink:href="dir_6c36fa94566b53a53d1b33c49cbff7fb.html" target="_top" xlink:title="mouse">
<polygon fill="white" stroke="red" points="152,-196 98,-196 98,-160 152,-160 152,-196"/>
<text text-anchor="middle" x="125" y="-175.5" font-family="Helvetica,sans-Serif" font-size="10.00">mouse</text>
</a>
</g>
</g>
<!-- dir_6c36fa94566b53a53d1b33c49cbff7fb&#45;&gt;dir_9be0baa3d4a3e9f480a9ee70594037fa -->
<g id="edge17" class="edge">
<title>dir_6c36fa94566b53a53d1b33c49cbff7fb&#45;&gt;dir_9be0baa3d4a3e9f480a9ee70594037fa</title>
<path fill="none" stroke="black" d="M152.1,-163.88C182.21,-149.21 227.01,-127.11 230,-124 244.88,-108.5 240.33,-99.18 250,-80 253.06,-73.92 256.51,-67.48 259.85,-61.43"/>
<polygon fill="black" stroke="black" points="263.11,-62.78 264.93,-52.35 257,-59.37 263.11,-62.78"/>
<g id="a_edge17&#45;headlabel"><a xlink:href="dir_000120_000214.html" target="_top" xlink:title="19">
<text text-anchor="middle" x="263.83" y="-64.81" font-family="Helvetica,sans-Serif" font-size="10.00">19</text>
</a>
</g>
</g>
<!-- dir_6c36fa94566b53a53d1b33c49cbff7fb&#45;&gt;dir_8f550b51c304fe10978bfd792866fae2 -->
<g id="edge18" class="edge">
<title>dir_6c36fa94566b53a53d1b33c49cbff7fb&#45;&gt;dir_8f550b51c304fe10978bfd792866fae2</title>
<path fill="none" stroke="black" d="M138.35,-159.7C144.76,-151.39 152.56,-141.28 159.61,-132.14"/>
<polygon fill="black" stroke="black" points="162.47,-134.16 165.81,-124.1 156.93,-129.88 162.47,-134.16"/>
<g id="a_edge18&#45;headlabel"><a xlink:href="dir_000120_000122.html" target="_top" xlink:title="3">
<text text-anchor="middle" x="162.52" y="-136.24" font-family="Helvetica,sans-Serif" font-size="10.00">3</text>
</a>
</g>
</g>
<!-- dir_8f550b51c304fe10978bfd792866fae2&#45;&gt;dir_9be0baa3d4a3e9f480a9ee70594037fa -->
<g id="edge10" class="edge">
<title>dir_8f550b51c304fe10978bfd792866fae2&#45;&gt;dir_9be0baa3d4a3e9f480a9ee70594037fa</title>
<path fill="none" stroke="black" d="M199.85,-87.85C203.21,-85.18 206.68,-82.48 210,-80 219.86,-72.63 230.79,-64.89 240.84,-57.96"/>
<polygon fill="black" stroke="black" points="243.11,-60.64 249.38,-52.1 239.16,-54.87 243.11,-60.64"/>
<g id="a_edge10&#45;headlabel"><a xlink:href="dir_000122_000214.html" target="_top" xlink:title="37">
<text text-anchor="middle" x="241.75" y="-62.52" font-family="Helvetica,sans-Serif" font-size="10.00">37</text>
</a>
</g>
</g>
<!-- dir_b8874c233d466218401f983297aca89b -->
<g id="node8" class="node">
<title>dir_b8874c233d466218401f983297aca89b</title>
<g id="a_node8"><a xlink:href="dir_b8874c233d466218401f983297aca89b.html" target="_top" xlink:title="usbhdfsd">
<polygon fill="white" stroke="red" points="298,-196 242,-196 242,-160 298,-160 298,-196"/>
<text text-anchor="middle" x="270" y="-175.5" font-family="Helvetica,sans-Serif" font-size="10.00">usbhdfsd</text>
</a>
</g>
</g>
<!-- dir_b8874c233d466218401f983297aca89b&#45;&gt;dir_9be0baa3d4a3e9f480a9ee70594037fa -->
<g id="edge5" class="edge">
<title>dir_b8874c233d466218401f983297aca89b&#45;&gt;dir_9be0baa3d4a3e9f480a9ee70594037fa</title>
<path fill="none" stroke="black" d="M270.6,-159.87C271.46,-135.67 273.02,-91.21 274.04,-62.39"/>
<polygon fill="black" stroke="black" points="277.54,-62.31 274.39,-52.19 270.54,-62.06 277.54,-62.31"/>
<g id="a_edge5&#45;headlabel"><a xlink:href="dir_000124_000214.html" target="_top" xlink:title="40">
<text text-anchor="middle" x="280.25" y="-63.5" font-family="Helvetica,sans-Serif" font-size="10.00">40</text>
</a>
</g>
</g>
<!-- dir_b8874c233d466218401f983297aca89b&#45;&gt;dir_8f550b51c304fe10978bfd792866fae2 -->
<g id="edge4" class="edge">
<title>dir_b8874c233d466218401f983297aca89b&#45;&gt;dir_8f550b51c304fe10978bfd792866fae2</title>
<path fill="none" stroke="black" d="M247.51,-159.7C236.04,-150.88 221.94,-140.03 209.52,-130.47"/>
<polygon fill="black" stroke="black" points="211.3,-127.43 201.24,-124.1 207.03,-132.98 211.3,-127.43"/>
<g id="a_edge4&#45;headlabel"><a xlink:href="dir_000124_000122.html" target="_top" xlink:title="3">
<text text-anchor="middle" x="215.88" y="-124.87" font-family="Helvetica,sans-Serif" font-size="10.00">3</text>
</a>
</g>
</g>
<!-- dir_b8874c233d466218401f983297aca89b&#45;&gt;dir_bdd9a5d540de89e9fe90efdfc6973a4f -->
<g id="edge6" class="edge">
<title>dir_b8874c233d466218401f983297aca89b&#45;&gt;dir_bdd9a5d540de89e9fe90efdfc6973a4f</title>
<path fill="none" stroke="black" d="M298.36,-162.96C301.24,-161.84 304.15,-160.83 307,-160 364.07,-143.41 532.66,-168.54 572,-124 586.65,-107.41 585.22,-81.52 581.12,-61.93"/>
<polygon fill="black" stroke="black" points="584.48,-60.96 578.72,-52.07 577.68,-62.61 584.48,-60.96"/>
<g id="a_edge6&#45;headlabel"><a xlink:href="dir_000124_000000.html" target="_top" xlink:title="8">
<text text-anchor="middle" x="588.09" y="-61.28" font-family="Helvetica,sans-Serif" font-size="10.00">8</text>
</a>
</g>
</g>
<!-- dir_b21605a940872bbf5de5d8b063daf48d -->
<g id="node9" class="node">
<title>dir_b21605a940872bbf5de5d8b063daf48d</title>
<g id="a_node9"><a xlink:href="dir_b21605a940872bbf5de5d8b063daf48d.html" target="_top" xlink:title="usbmass_bd">
<polygon fill="white" stroke="red" points="388,-196 316,-196 316,-160 388,-160 388,-196"/>
<text text-anchor="middle" x="352" y="-175.5" font-family="Helvetica,sans-Serif" font-size="10.00">usbmass_bd</text>
</a>
</g>
</g>
<!-- dir_b21605a940872bbf5de5d8b063daf48d&#45;&gt;dir_9be0baa3d4a3e9f480a9ee70594037fa -->
<g id="edge12" class="edge">
<title>dir_b21605a940872bbf5de5d8b063daf48d&#45;&gt;dir_9be0baa3d4a3e9f480a9ee70594037fa</title>
<path fill="none" stroke="black" d="M342.71,-159.87C329.42,-135.35 304.84,-90.03 289.24,-61.26"/>
<polygon fill="black" stroke="black" points="292.16,-59.31 284.32,-52.19 286.01,-62.65 292.16,-59.31"/>
<g id="a_edge12&#45;headlabel"><a xlink:href="dir_000126_000214.html" target="_top" xlink:title="15">
<text text-anchor="middle" x="296.37" y="-58.62" font-family="Helvetica,sans-Serif" font-size="10.00">15</text>
</a>
</g>
</g>
<!-- dir_b21605a940872bbf5de5d8b063daf48d&#45;&gt;dir_f24daea2522ffa8b6dc5fa9cdf5b8f5c -->
<g id="edge14" class="edge">
<title>dir_b21605a940872bbf5de5d8b063daf48d&#45;&gt;dir_f24daea2522ffa8b6dc5fa9cdf5b8f5c</title>
<path fill="none" stroke="black" d="M388.08,-162.02C409.75,-152.81 438.03,-140.43 466.46,-126.66"/>
<polygon fill="black" stroke="black" points="468.24,-129.69 475.68,-122.15 465.16,-123.4 468.24,-129.69"/>
<g id="a_edge14&#45;headlabel"><a xlink:href="dir_000126_000035.html" target="_top" xlink:title="2">
<text text-anchor="middle" x="466.26" y="-131.32" font-family="Helvetica,sans-Serif" font-size="10.00">2</text>
</a>
</g>
</g>
<!-- dir_b21605a940872bbf5de5d8b063daf48d&#45;&gt;dir_8f550b51c304fe10978bfd792866fae2 -->
<g id="edge11" class="edge">
<title>dir_b21605a940872bbf5de5d8b063daf48d&#45;&gt;dir_8f550b51c304fe10978bfd792866fae2</title>
<path fill="none" stroke="black" d="M315.66,-163.25C312.73,-162.15 309.82,-161.05 307,-160 266.96,-145.01 253.68,-143.29 215.41,-126.35"/>
<polygon fill="black" stroke="black" points="216.83,-123.16 206.27,-122.24 213.95,-129.54 216.83,-123.16"/>
<g id="a_edge11&#45;headlabel"><a xlink:href="dir_000126_000122.html" target="_top" xlink:title="3">
<text text-anchor="middle" x="221.27" y="-119.54" font-family="Helvetica,sans-Serif" font-size="10.00">3</text>
</a>
</g>
</g>
<!-- dir_b21605a940872bbf5de5d8b063daf48d&#45;&gt;dir_bdd9a5d540de89e9fe90efdfc6973a4f -->
<g id="edge13" class="edge">
<title>dir_b21605a940872bbf5de5d8b063daf48d&#45;&gt;dir_bdd9a5d540de89e9fe90efdfc6973a4f</title>
<path fill="none" stroke="black" d="M388.15,-162.65C391.12,-161.69 394.1,-160.79 397,-160 443.34,-147.46 579.01,-160.66 610,-124 622.62,-109.06 616.6,-98.41 610,-80 607.47,-72.93 603.29,-66.18 598.64,-60.15"/>
<polygon fill="black" stroke="black" points="601.23,-57.8 592.11,-52.42 595.89,-62.32 601.23,-57.8"/>
<g id="a_edge13&#45;headlabel"><a xlink:href="dir_000126_000000.html" target="_top" xlink:title="3">
<text text-anchor="middle" x="605.72" y="-56.21" font-family="Helvetica,sans-Serif" font-size="10.00">3</text>
</a>
</g>
</g>
<!-- dir_bdd9a5d540de89e9fe90efdfc6973a4f&#45;&gt;dir_9be0baa3d4a3e9f480a9ee70594037fa -->
<g id="edge19" class="edge">
<title>dir_bdd9a5d540de89e9fe90efdfc6973a4f&#45;&gt;dir_9be0baa3d4a3e9f480a9ee70594037fa</title>
<path fill="none" stroke="black" d="M545.75,-34C468.01,-34 390.27,-34 312.54,-34"/>
<polygon fill="black" stroke="black" points="312.06,-30.5 302.06,-34 312.06,-37.5 312.06,-30.5"/>
<g id="a_edge19&#45;headlabel"><a xlink:href="dir_000000_000214.html" target="_top" xlink:title="20">
<text text-anchor="middle" x="315.66" y="-25.16" font-family="Helvetica,sans-Serif" font-size="10.00">20</text>
</a>
</g>
</g>
</g>
</svg>
