<?xml version="1.0" encoding="UTF-8" standalone="no"?>
<!DOCTYPE svg PUBLIC "-//W3C//DTD SVG 1.1//EN"
 "http://www.w3.org/Graphics/SVG/1.1/DTD/svg11.dtd">
<!-- Generated by graphviz version 2.44.0 ()
 -->
<!-- Title: ee/graph/src Pages: 1 -->
<svg width="277pt" height="367pt"
 viewBox="0.00 0.00 276.90 367.00" xmlns="http://www.w3.org/2000/svg" xmlns:xlink="http://www.w3.org/1999/xlink">
<g id="graph0" class="graph" transform="scale(1 1) rotate(0) translate(4 363)">
<title>ee/graph/src</title>
<polygon fill="white" stroke="transparent" points="-4,4 -4,-363 272.9,-363 272.9,4 -4,4"/>
<g id="clust1" class="cluster">
<title>clusterdir_933591e1cd95ed33f946db8a4302cbd1</title>
<g id="a_clust1"><a xlink:href="dir_933591e1cd95ed33f946db8a4302cbd1.html" target="_top" xlink:title="graph">
<polygon fill="#ddddee" stroke="black" points="8,-208 8,-351 78,-351 78,-208 8,-208"/>
<text text-anchor="middle" x="43" y="-339" font-family="Helvetica,sans-Serif" font-size="10.00">graph</text>
</a>
</g>
</g>
<!-- dir_587f58ae6bff4b1360d4911800bd5f72 -->
<g id="node1" class="node">
<title>dir_587f58ae6bff4b1360d4911800bd5f72</title>
<g id="a_node1"><a xlink:href="dir_587f58ae6bff4b1360d4911800bd5f72.html" target="_top" xlink:title="include">
<polygon fill="none" stroke="black" points="70,-252 16,-252 16,-216 70,-216 70,-252"/>
<text text-anchor="middle" x="43" y="-231.5" font-family="Helvetica,sans-Serif" font-size="10.00">include</text>
</a>
</g>
</g>
<!-- dir_1a15d16f9d67565cc9b389bcd85d26fc -->
<g id="node2" class="node">
<title>dir_1a15d16f9d67565cc9b389bcd85d26fc</title>
<g id="a_node2"><a xlink:href="dir_1a15d16f9d67565cc9b389bcd85d26fc.html" target="_top" xlink:title="src">
<polygon fill="#eeeeff" stroke="black" points="70,-324 16,-324 16,-288 70,-288 70,-324"/>
<text text-anchor="middle" x="43" y="-303.5" font-family="Helvetica,sans-Serif" font-size="10.00">src</text>
</a>
</g>
</g>
<!-- dir_1a15d16f9d67565cc9b389bcd85d26fc&#45;&gt;dir_587f58ae6bff4b1360d4911800bd5f72 -->
<g id="edge4" class="edge">
<title>dir_1a15d16f9d67565cc9b389bcd85d26fc&#45;&gt;dir_587f58ae6bff4b1360d4911800bd5f72</title>
<path fill="none" stroke="black" d="M43,-287.7C43,-279.98 43,-270.71 43,-262.11"/>
<polygon fill="black" stroke="black" points="46.5,-262.1 43,-252.1 39.5,-262.1 46.5,-262.1"/>
<g id="a_edge4&#45;headlabel"><a xlink:href="dir_000140_000210.html" target="_top" xlink:title="6">
<text text-anchor="middle" x="49.34" y="-263.2" font-family="Helvetica,sans-Serif" font-size="10.00">6</text>
</a>
</g>
</g>
<!-- dir_0981ace215aa2029f526b70c145b9fbe -->
<g id="node3" class="node">
<title>dir_0981ace215aa2029f526b70c145b9fbe</title>
<g id="a_node3"><a xlink:href="dir_0981ace215aa2029f526b70c145b9fbe.html" target="_top" xlink:title="iop">
<polygon fill="white" stroke="red" points="201,-252 147,-252 147,-216 201,-216 201,-252"/>
<text text-anchor="middle" x="174" y="-231.5" font-family="Helvetica,sans-Serif" font-size="10.00">iop</text>
</a>
</g>
</g>
<!-- dir_1a15d16f9d67565cc9b389bcd85d26fc&#45;&gt;dir_0981ace215aa2029f526b70c145b9fbe -->
<g id="edge3" class="edge">
<title>dir_1a15d16f9d67565cc9b389bcd85d26fc&#45;&gt;dir_0981ace215aa2029f526b70c145b9fbe</title>
<path fill="none" stroke="black" d="M70.14,-290.5C89.82,-279.98 116.62,-265.66 138.06,-254.2"/>
<polygon fill="black" stroke="black" points="139.72,-257.29 146.89,-249.49 136.42,-251.11 139.72,-257.29"/>
<g id="a_edge3&#45;headlabel"><a xlink:href="dir_000140_000011.html" target="_top" xlink:title="1">
<text text-anchor="middle" x="137.89" y="-258.98" font-family="Helvetica,sans-Serif" font-size="10.00">1</text>
</a>
</g>
</g>
<!-- dir_694ec83a64f58cbdefbefce65cd1011c -->
<g id="node4" class="node">
<title>dir_694ec83a64f58cbdefbefce65cd1011c</title>
<g id="a_node4"><a xlink:href="dir_694ec83a64f58cbdefbefce65cd1011c.html" target="_top" xlink:title="kernel">
<polygon fill="white" stroke="red" points="218,-108 164,-108 164,-72 218,-72 218,-108"/>
<text text-anchor="middle" x="191" y="-87.5" font-family="Helvetica,sans-Serif" font-size="10.00">kernel</text>
</a>
</g>
</g>
<!-- dir_1a15d16f9d67565cc9b389bcd85d26fc&#45;&gt;dir_694ec83a64f58cbdefbefce65cd1011c -->
<g id="edge5" class="edge">
<title>dir_1a15d16f9d67565cc9b389bcd85d26fc&#45;&gt;dir_694ec83a64f58cbdefbefce65cd1011c</title>
<path fill="none" stroke="black" d="M54.86,-287.85C80.79,-250.36 142.62,-160.95 173.22,-116.7"/>
<polygon fill="black" stroke="black" points="176.27,-118.45 179.08,-108.23 170.52,-114.47 176.27,-118.45"/>
<g id="a_edge5&#45;headlabel"><a xlink:href="dir_000140_000143.html" target="_top" xlink:title="3">
<text text-anchor="middle" x="176.56" y="-120.52" font-family="Helvetica,sans-Serif" font-size="10.00">3</text>
</a>
</g>
</g>
<!-- dir_a0a8ac7efb6662b749c1285408048e6d -->
<g id="node5" class="node">
<title>dir_a0a8ac7efb6662b749c1285408048e6d</title>
<g id="a_node5"><a xlink:href="dir_a0a8ac7efb6662b749c1285408048e6d.html" target="_top" xlink:title="erl">
<polygon fill="white" stroke="red" points="245,-36 191,-36 191,0 245,0 245,-36"/>
<text text-anchor="middle" x="218" y="-15.5" font-family="Helvetica,sans-Serif" font-size="10.00">erl</text>
</a>
</g>
</g>
<!-- dir_1a15d16f9d67565cc9b389bcd85d26fc&#45;&gt;dir_a0a8ac7efb6662b749c1285408048e6d -->
<g id="edge6" class="edge">
<title>dir_1a15d16f9d67565cc9b389bcd85d26fc&#45;&gt;dir_a0a8ac7efb6662b749c1285408048e6d</title>
<path fill="none" stroke="black" d="M70.29,-304.45C110.53,-302.23 186.09,-292.51 233,-252 270.89,-219.28 272.71,-193.47 265,-144 259.45,-108.41 243.33,-69.97 231.51,-45.26"/>
<polygon fill="black" stroke="black" points="234.6,-43.62 227.06,-36.18 228.31,-46.7 234.6,-43.62"/>
<g id="a_edge6&#45;headlabel"><a xlink:href="dir_000140_000206.html" target="_top" xlink:title="1">
<text text-anchor="middle" x="238.73" y="-43.1" font-family="Helvetica,sans-Serif" font-size="10.00">1</text>
</a>
</g>
</g>
<!-- dir_bdd9a5d540de89e9fe90efdfc6973a4f -->
<g id="node6" class="node">
<title>dir_bdd9a5d540de89e9fe90efdfc6973a4f</title>
<g id="a_node6"><a xlink:href="dir_bdd9a5d540de89e9fe90efdfc6973a4f.html" target="_top" xlink:title="common">
<polygon fill="white" stroke="red" points="256,-180 202,-180 202,-144 256,-144 256,-180"/>
<text text-anchor="middle" x="229" y="-159.5" font-family="Helvetica,sans-Serif" font-size="10.00">common</text>
</a>
</g>
</g>
<!-- dir_1a15d16f9d67565cc9b389bcd85d26fc&#45;&gt;dir_bdd9a5d540de89e9fe90efdfc6973a4f -->
<g id="edge7" class="edge">
<title>dir_1a15d16f9d67565cc9b389bcd85d26fc&#45;&gt;dir_bdd9a5d540de89e9fe90efdfc6973a4f</title>
<path fill="none" stroke="black" d="M70.24,-304.38C107.46,-302 173.72,-291.98 210,-252 225.05,-235.41 229.26,-209.91 230.02,-190.45"/>
<polygon fill="black" stroke="black" points="233.52,-190.39 230.13,-180.35 226.52,-190.31 233.52,-190.39"/>
<g id="a_edge7&#45;headlabel"><a xlink:href="dir_000140_000000.html" target="_top" xlink:title="4">
<text text-anchor="middle" x="236.32" y="-191.52" font-family="Helvetica,sans-Serif" font-size="10.00">4</text>
</a>
</g>
</g>
<!-- dir_0981ace215aa2029f526b70c145b9fbe&#45;&gt;dir_bdd9a5d540de89e9fe90efdfc6973a4f -->
<g id="edge8" class="edge">
<title>dir_0981ace215aa2029f526b70c145b9fbe&#45;&gt;dir_bdd9a5d540de89e9fe90efdfc6973a4f</title>
<path fill="none" stroke="black" d="M181.68,-215.7C187.41,-207.3 195.26,-197.07 202.97,-187.86"/>
<polygon fill="black" stroke="black" points="205.78,-189.96 209.67,-180.1 200.48,-185.39 205.78,-189.96"/>
<g id="a_edge8&#45;headlabel"><a xlink:href="dir_000011_000000.html" target="_top" xlink:title="158">
<text text-anchor="middle" x="205.59" y="-192.04" font-family="Helvetica,sans-Serif" font-size="10.00">158</text>
</a>
</g>
</g>
<!-- dir_694ec83a64f58cbdefbefce65cd1011c&#45;&gt;dir_0981ace215aa2029f526b70c145b9fbe -->
<g id="edge10" class="edge">
<title>dir_694ec83a64f58cbdefbefce65cd1011c&#45;&gt;dir_0981ace215aa2029f526b70c145b9fbe</title>
<path fill="none" stroke="black" d="M188.94,-108.19C186.04,-132.42 180.72,-176.89 177.27,-205.68"/>
<polygon fill="black" stroke="black" points="173.76,-205.53 176.05,-215.87 180.71,-206.36 173.76,-205.53"/>
<g id="a_edge10&#45;headlabel"><a xlink:href="dir_000143_000011.html" target="_top" xlink:title="5">
<text text-anchor="middle" x="171.37" y="-199.12" font-family="Helvetica,sans-Serif" font-size="10.00">5</text>
</a>
</g>
</g>
<!-- dir_694ec83a64f58cbdefbefce65cd1011c&#45;&gt;dir_a0a8ac7efb6662b749c1285408048e6d -->
<g id="edge11" class="edge">
<title>dir_694ec83a64f58cbdefbefce65cd1011c&#45;&gt;dir_a0a8ac7efb6662b749c1285408048e6d</title>
<path fill="none" stroke="black" d="M197.67,-71.7C200.71,-63.81 204.38,-54.3 207.76,-45.55"/>
<polygon fill="black" stroke="black" points="211.07,-46.69 211.4,-36.1 204.54,-44.17 211.07,-46.69"/>
<g id="a_edge11&#45;headlabel"><a xlink:href="dir_000143_000206.html" target="_top" xlink:title="1">
<text text-anchor="middle" x="212.42" y="-48.57" font-family="Helvetica,sans-Serif" font-size="10.00">1</text>
</a>
</g>
</g>
<!-- dir_694ec83a64f58cbdefbefce65cd1011c&#45;&gt;dir_bdd9a5d540de89e9fe90efdfc6973a4f -->
<g id="edge9" class="edge">
<title>dir_694ec83a64f58cbdefbefce65cd1011c&#45;&gt;dir_bdd9a5d540de89e9fe90efdfc6973a4f</title>
<path fill="none" stroke="black" d="M206.18,-108.1C211.32,-116.04 216.77,-125.67 221.19,-134.51"/>
<polygon fill="black" stroke="black" points="218.09,-136.15 225.52,-143.7 224.42,-133.16 218.09,-136.15"/>
<g id="a_edge9&#45;headlabel"><a xlink:href="dir_000143_000000.html" target="_top" xlink:title="24">
<text text-anchor="middle" x="213.99" y="-131.61" font-family="Helvetica,sans-Serif" font-size="10.00">24</text>
</a>
</g>
</g>
<!-- dir_a0a8ac7efb6662b749c1285408048e6d&#45;&gt;dir_0981ace215aa2029f526b70c145b9fbe -->
<g id="edge2" class="edge">
<title>dir_a0a8ac7efb6662b749c1285408048e6d&#45;&gt;dir_0981ace215aa2029f526b70c145b9fbe</title>
<path fill="none" stroke="black" d="M190.99,-33.93C177.49,-43 162.48,-55.93 155,-72 134.65,-115.7 150.04,-173 162.45,-206.13"/>
<polygon fill="black" stroke="black" points="159.25,-207.57 166.16,-215.6 165.77,-205.01 159.25,-207.57"/>
<g id="a_edge2&#45;headlabel"><a xlink:href="dir_000206_000011.html" target="_top" xlink:title="2">
<text text-anchor="middle" x="155.3" y="-202.76" font-family="Helvetica,sans-Serif" font-size="10.00">2</text>
</a>
</g>
</g>
<!-- dir_a0a8ac7efb6662b749c1285408048e6d&#45;&gt;dir_bdd9a5d540de89e9fe90efdfc6973a4f -->
<g id="edge1" class="edge">
<title>dir_a0a8ac7efb6662b749c1285408048e6d&#45;&gt;dir_bdd9a5d540de89e9fe90efdfc6973a4f</title>
<path fill="none" stroke="black" d="M221.56,-36.1C223.54,-46.44 225.85,-59.92 227,-72 228.97,-92.64 229.43,-116.09 229.41,-133.73"/>
<polygon fill="black" stroke="black" points="225.91,-133.87 229.35,-143.89 232.91,-133.92 225.91,-133.87"/>
<g id="a_edge1&#45;headlabel"><a xlink:href="dir_000206_000000.html" target="_top" xlink:title="1">
<text text-anchor="middle" x="223.09" y="-127.76" font-family="Helvetica,sans-Serif" font-size="10.00">1</text>
</a>
</g>
</g>
<!-- dir_bdd9a5d540de89e9fe90efdfc6973a4f&#45;&gt;dir_0981ace215aa2029f526b70c145b9fbe -->
<g id="edge12" class="edge">
<title>dir_bdd9a5d540de89e9fe90efdfc6973a4f&#45;&gt;dir_0981ace215aa2029f526b70c145b9fbe</title>
<path fill="none" stroke="black" d="M221.46,-180.1C215.76,-188.47 207.93,-198.69 200.21,-207.92"/>
<polygon fill="black" stroke="black" points="197.38,-205.84 193.51,-215.7 202.69,-210.4 197.38,-205.84"/>
<g id="a_edge12&#45;headlabel"><a xlink:href="dir_000000_000011.html" target="_top" xlink:title="20">
<text text-anchor="middle" x="197.58" y="-198.76" font-family="Helvetica,sans-Serif" font-size="10.00">20</text>
</a>
</g>
</g>
<!-- dir_bdd9a5d540de89e9fe90efdfc6973a4f&#45;&gt;dir_694ec83a64f58cbdefbefce65cd1011c -->
<g id="edge13" class="edge">
<title>dir_bdd9a5d540de89e9fe90efdfc6973a4f&#45;&gt;dir_694ec83a64f58cbdefbefce65cd1011c</title>
<path fill="none" stroke="black" d="M213.69,-143.7C208.54,-135.73 203.1,-126.1 198.7,-117.26"/>
<polygon fill="black" stroke="black" points="201.81,-115.66 194.39,-108.1 195.48,-118.64 201.81,-115.66"/>
<g id="a_edge13&#45;headlabel"><a xlink:href="dir_000000_000143.html" target="_top" xlink:title="1">
<text text-anchor="middle" x="205.91" y="-115.21" font-family="Helvetica,sans-Serif" font-size="10.00">1</text>
</a>
</g>
</g>
</g>
</svg>
