<?xml version="1.0" encoding="UTF-8" standalone="no"?>
<!DOCTYPE svg PUBLIC "-//W3C//DTD SVG 1.1//EN"
 "http://www.w3.org/Graphics/SVG/1.1/DTD/svg11.dtd">
<!-- Generated by graphviz version 2.44.0 ()
 -->
<!-- Title: ee/rpc/cdvd Pages: 1 -->
<svg width="265pt" height="375pt"
 viewBox="0.00 0.00 264.51 375.00" xmlns="http://www.w3.org/2000/svg" xmlns:xlink="http://www.w3.org/1999/xlink">
<g id="graph0" class="graph" transform="scale(1 1) rotate(0) translate(4 371)">
<title>ee/rpc/cdvd</title>
<polygon fill="white" stroke="transparent" points="-4,4 -4,-371 260.51,-371 260.51,4 -4,4"/>
<g id="clust1" class="cluster">
<title>clusterdir_5b119dc963fa9b25ef41951231899460</title>
<g id="a_clust1"><a xlink:href="dir_5b119dc963fa9b25ef41951231899460.html" target="_top" xlink:title="rpc">
<polygon fill="#ddddee" stroke="black" points="90.51,-200 90.51,-359 248.51,-359 248.51,-200 90.51,-200"/>
<text text-anchor="middle" x="169.51" y="-347" font-family="Helvetica,sans-Serif" font-size="10.00">rpc</text>
</a>
</g>
</g>
<g id="clust2" class="cluster">
<title>clusterdir_ba4b21ee1217591b79746c791fe162fc</title>
<g id="a_clust2"><a xlink:href="dir_ba4b21ee1217591b79746c791fe162fc.html" target="_top">
<polygon fill="#eeeeff" stroke="black" points="98.51,-208 98.51,-332 240.51,-332 240.51,-208 98.51,-208"/>
</a>
</g>
</g>
<!-- dir_ba4b21ee1217591b79746c791fe162fc -->
<g id="node1" class="node">
<title>dir_ba4b21ee1217591b79746c791fe162fc</title>
<text text-anchor="middle" x="205.51" y="-303.5" font-family="Helvetica,sans-Serif" font-size="10.00">cdvd</text>
</g>
<!-- dir_aac407a7a5679478d0631d0d52d3c8a2 -->
<g id="node2" class="node">
<title>dir_aac407a7a5679478d0631d0d52d3c8a2</title>
<g id="a_node2"><a xlink:href="dir_aac407a7a5679478d0631d0d52d3c8a2.html" target="_top" xlink:title="include">
<polygon fill="white" stroke="black" points="160.51,-252 106.51,-252 106.51,-216 160.51,-216 160.51,-252"/>
<text text-anchor="middle" x="133.51" y="-231.5" font-family="Helvetica,sans-Serif" font-size="10.00">include</text>
</a>
</g>
</g>
<!-- dir_bdd9a5d540de89e9fe90efdfc6973a4f -->
<g id="node4" class="node">
<title>dir_bdd9a5d540de89e9fe90efdfc6973a4f</title>
<g id="a_node4"><a xlink:href="dir_bdd9a5d540de89e9fe90efdfc6973a4f.html" target="_top" xlink:title="common">
<polygon fill="white" stroke="red" points="82.51,-252 28.51,-252 28.51,-216 82.51,-216 82.51,-252"/>
<text text-anchor="middle" x="55.51" y="-231.5" font-family="Helvetica,sans-Serif" font-size="10.00">common</text>
</a>
</g>
</g>
<!-- dir_aac407a7a5679478d0631d0d52d3c8a2&#45;&gt;dir_bdd9a5d540de89e9fe90efdfc6973a4f -->
<g id="edge3" class="edge">
<title>dir_aac407a7a5679478d0631d0d52d3c8a2&#45;&gt;dir_bdd9a5d540de89e9fe90efdfc6973a4f</title>
<path fill="none" stroke="black" d="M106.48,-234C101.88,-234 97.29,-234 92.69,-234"/>
<polygon fill="black" stroke="black" points="92.63,-230.5 82.63,-234 92.63,-237.5 92.63,-230.5"/>
<g id="a_edge3&#45;headlabel"><a xlink:href="dir_000244_000000.html" target="_top" xlink:title="1">
<text text-anchor="middle" x="96.22" y="-225.16" font-family="Helvetica,sans-Serif" font-size="10.00">1</text>
</a>
</g>
</g>
<!-- dir_48185d4162af4b76c95e522da1e1d975 -->
<g id="node3" class="node">
<title>dir_48185d4162af4b76c95e522da1e1d975</title>
<g id="a_node3"><a xlink:href="dir_48185d4162af4b76c95e522da1e1d975.html" target="_top" xlink:title="src">
<polygon fill="white" stroke="black" points="160.51,-324 106.51,-324 106.51,-288 160.51,-288 160.51,-324"/>
<text text-anchor="middle" x="133.51" y="-303.5" font-family="Helvetica,sans-Serif" font-size="10.00">src</text>
</a>
</g>
</g>
<!-- dir_48185d4162af4b76c95e522da1e1d975&#45;&gt;dir_aac407a7a5679478d0631d0d52d3c8a2 -->
<g id="edge12" class="edge">
<title>dir_48185d4162af4b76c95e522da1e1d975&#45;&gt;dir_aac407a7a5679478d0631d0d52d3c8a2</title>
<path fill="none" stroke="black" d="M133.51,-287.7C133.51,-279.98 133.51,-270.71 133.51,-262.11"/>
<polygon fill="black" stroke="black" points="137.01,-262.1 133.51,-252.1 130.01,-262.1 137.01,-262.1"/>
<g id="a_edge12&#45;headlabel"><a xlink:href="dir_000170_000244.html" target="_top" xlink:title="3">
<text text-anchor="middle" x="139.85" y="-263.2" font-family="Helvetica,sans-Serif" font-size="10.00">3</text>
</a>
</g>
</g>
<!-- dir_48185d4162af4b76c95e522da1e1d975&#45;&gt;dir_bdd9a5d540de89e9fe90efdfc6973a4f -->
<g id="edge13" class="edge">
<title>dir_48185d4162af4b76c95e522da1e1d975&#45;&gt;dir_bdd9a5d540de89e9fe90efdfc6973a4f</title>
<path fill="none" stroke="black" d="M114.23,-287.7C104.6,-279.05 92.78,-268.45 82.28,-259.03"/>
<polygon fill="black" stroke="black" points="84.35,-256.18 74.57,-252.1 79.67,-261.39 84.35,-256.18"/>
<g id="a_edge13&#45;headlabel"><a xlink:href="dir_000170_000000.html" target="_top" xlink:title="3">
<text text-anchor="middle" x="88.92" y="-253.97" font-family="Helvetica,sans-Serif" font-size="10.00">3</text>
</a>
</g>
</g>
<!-- dir_a0a8ac7efb6662b749c1285408048e6d -->
<g id="node5" class="node">
<title>dir_a0a8ac7efb6662b749c1285408048e6d</title>
<g id="a_node5"><a xlink:href="dir_a0a8ac7efb6662b749c1285408048e6d.html" target="_top" xlink:title="erl">
<polygon fill="white" stroke="red" points="176.51,-108 122.51,-108 122.51,-72 176.51,-72 176.51,-108"/>
<text text-anchor="middle" x="149.51" y="-87.5" font-family="Helvetica,sans-Serif" font-size="10.00">erl</text>
</a>
</g>
</g>
<!-- dir_48185d4162af4b76c95e522da1e1d975&#45;&gt;dir_a0a8ac7efb6662b749c1285408048e6d -->
<g id="edge11" class="edge">
<title>dir_48185d4162af4b76c95e522da1e1d975&#45;&gt;dir_a0a8ac7efb6662b749c1285408048e6d</title>
<path fill="none" stroke="black" d="M157.26,-287.91C168.06,-278.65 179.71,-266.2 185.51,-252 203.67,-207.57 199.62,-189.88 185.51,-144 182.5,-134.22 177,-124.62 171.2,-116.33"/>
<polygon fill="black" stroke="black" points="173.92,-114.13 165.12,-108.23 168.32,-118.33 173.92,-114.13"/>
<g id="a_edge11&#45;headlabel"><a xlink:href="dir_000170_000206.html" target="_top" xlink:title="1">
<text text-anchor="middle" x="178.35" y="-112.8" font-family="Helvetica,sans-Serif" font-size="10.00">1</text>
</a>
</g>
</g>
<!-- dir_0981ace215aa2029f526b70c145b9fbe -->
<g id="node6" class="node">
<title>dir_0981ace215aa2029f526b70c145b9fbe</title>
<g id="a_node6"><a xlink:href="dir_0981ace215aa2029f526b70c145b9fbe.html" target="_top" xlink:title="iop">
<polygon fill="white" stroke="red" points="74.51,-36 20.51,-36 20.51,0 74.51,0 74.51,-36"/>
<text text-anchor="middle" x="47.51" y="-15.5" font-family="Helvetica,sans-Serif" font-size="10.00">iop</text>
</a>
</g>
</g>
<!-- dir_48185d4162af4b76c95e522da1e1d975&#45;&gt;dir_0981ace215aa2029f526b70c145b9fbe -->
<g id="edge9" class="edge">
<title>dir_48185d4162af4b76c95e522da1e1d975&#45;&gt;dir_0981ace215aa2029f526b70c145b9fbe</title>
<path fill="none" stroke="black" d="M106.38,-300.87C79.13,-295.12 38.53,-281.81 19.51,-252 -21.82,-187.2 12.97,-91.37 34.14,-45.43"/>
<polygon fill="black" stroke="black" points="37.41,-46.7 38.54,-36.16 31.09,-43.69 37.41,-46.7"/>
<g id="a_edge9&#45;headlabel"><a xlink:href="dir_000170_000011.html" target="_top" xlink:title="4">
<text text-anchor="middle" x="38.43" y="-48.66" font-family="Helvetica,sans-Serif" font-size="10.00">4</text>
</a>
</g>
</g>
<!-- dir_694ec83a64f58cbdefbefce65cd1011c -->
<g id="node7" class="node">
<title>dir_694ec83a64f58cbdefbefce65cd1011c</title>
<g id="a_node7"><a xlink:href="dir_694ec83a64f58cbdefbefce65cd1011c.html" target="_top" xlink:title="kernel">
<polygon fill="white" stroke="red" points="176.51,-180 122.51,-180 122.51,-144 176.51,-144 176.51,-180"/>
<text text-anchor="middle" x="149.51" y="-159.5" font-family="Helvetica,sans-Serif" font-size="10.00">kernel</text>
</a>
</g>
</g>
<!-- dir_48185d4162af4b76c95e522da1e1d975&#45;&gt;dir_694ec83a64f58cbdefbefce65cd1011c -->
<g id="edge10" class="edge">
<title>dir_48185d4162af4b76c95e522da1e1d975&#45;&gt;dir_694ec83a64f58cbdefbefce65cd1011c</title>
<path fill="none" stroke="black" d="M149.12,-287.77C156.88,-278.03 165.46,-265.18 169.51,-252 176.3,-229.91 175.18,-222.41 169.51,-200 168.62,-196.5 167.33,-192.96 165.83,-189.54"/>
<polygon fill="black" stroke="black" points="168.8,-187.67 161.17,-180.33 162.56,-190.83 168.8,-187.67"/>
<g id="a_edge10&#45;headlabel"><a xlink:href="dir_000170_000143.html" target="_top" xlink:title="4">
<text text-anchor="middle" x="172.96" y="-187.1" font-family="Helvetica,sans-Serif" font-size="10.00">4</text>
</a>
</g>
</g>
<!-- dir_bdd9a5d540de89e9fe90efdfc6973a4f&#45;&gt;dir_0981ace215aa2029f526b70c145b9fbe -->
<g id="edge14" class="edge">
<title>dir_bdd9a5d540de89e9fe90efdfc6973a4f&#45;&gt;dir_0981ace215aa2029f526b70c145b9fbe</title>
<path fill="none" stroke="black" d="M50.99,-215.85C46.07,-178.83 42.52,-91.18 43.84,-46.39"/>
<polygon fill="black" stroke="black" points="47.35,-46.37 44.27,-36.23 40.35,-46.08 47.35,-46.37"/>
<g id="a_edge14&#45;headlabel"><a xlink:href="dir_000000_000011.html" target="_top" xlink:title="20">
<text text-anchor="middle" x="50.03" y="-47.58" font-family="Helvetica,sans-Serif" font-size="10.00">20</text>
</a>
</g>
</g>
<!-- dir_bdd9a5d540de89e9fe90efdfc6973a4f&#45;&gt;dir_694ec83a64f58cbdefbefce65cd1011c -->
<g id="edge15" class="edge">
<title>dir_bdd9a5d540de89e9fe90efdfc6973a4f&#45;&gt;dir_694ec83a64f58cbdefbefce65cd1011c</title>
<path fill="none" stroke="black" d="M66.42,-215.78C72.13,-210.57 79,-204.92 85.51,-200 94.37,-193.31 104.36,-186.4 113.85,-180.4"/>
<polygon fill="black" stroke="black" points="115.69,-183.38 122.39,-175.17 112.03,-177.41 115.69,-183.38"/>
<g id="a_edge15&#45;headlabel"><a xlink:href="dir_000000_000143.html" target="_top" xlink:title="1">
<text text-anchor="middle" x="114.11" y="-185.18" font-family="Helvetica,sans-Serif" font-size="10.00">1</text>
</a>
</g>
</g>
<!-- dir_a0a8ac7efb6662b749c1285408048e6d&#45;&gt;dir_bdd9a5d540de89e9fe90efdfc6973a4f -->
<g id="edge1" class="edge">
<title>dir_a0a8ac7efb6662b749c1285408048e6d&#45;&gt;dir_bdd9a5d540de89e9fe90efdfc6973a4f</title>
<path fill="none" stroke="black" d="M137.75,-108.13C130.68,-118.48 121.52,-131.96 113.51,-144 99.42,-165.18 83.67,-189.38 72.14,-207.19"/>
<polygon fill="black" stroke="black" points="69.02,-205.58 66.53,-215.87 74.9,-209.38 69.02,-205.58"/>
<g id="a_edge1&#45;headlabel"><a xlink:href="dir_000206_000000.html" target="_top" xlink:title="1">
<text text-anchor="middle" x="68.59" y="-198.52" font-family="Helvetica,sans-Serif" font-size="10.00">1</text>
</a>
</g>
</g>
<!-- dir_a0a8ac7efb6662b749c1285408048e6d&#45;&gt;dir_0981ace215aa2029f526b70c145b9fbe -->
<g id="edge2" class="edge">
<title>dir_a0a8ac7efb6662b749c1285408048e6d&#45;&gt;dir_0981ace215aa2029f526b70c145b9fbe</title>
<path fill="none" stroke="black" d="M124.56,-71.88C111.47,-62.89 95.25,-51.76 81.08,-42.03"/>
<polygon fill="black" stroke="black" points="82.78,-38.96 72.56,-36.19 78.82,-44.73 82.78,-38.96"/>
<g id="a_edge2&#45;headlabel"><a xlink:href="dir_000206_000011.html" target="_top" xlink:title="2">
<text text-anchor="middle" x="87.36" y="-36.16" font-family="Helvetica,sans-Serif" font-size="10.00">2</text>
</a>
</g>
</g>
<!-- dir_0981ace215aa2029f526b70c145b9fbe&#45;&gt;dir_bdd9a5d540de89e9fe90efdfc6973a4f -->
<g id="edge4" class="edge">
<title>dir_0981ace215aa2029f526b70c145b9fbe&#45;&gt;dir_bdd9a5d540de89e9fe90efdfc6973a4f</title>
<path fill="none" stroke="black" d="M52.04,-36.23C56.96,-73.32 60.5,-160.98 59.18,-205.71"/>
<polygon fill="black" stroke="black" points="55.67,-205.71 58.75,-215.85 62.67,-206.01 55.67,-205.71"/>
<g id="a_edge4&#45;headlabel"><a xlink:href="dir_000011_000000.html" target="_top" xlink:title="158">
<text text-anchor="middle" x="52.99" y="-199.5" font-family="Helvetica,sans-Serif" font-size="10.00">158</text>
</a>
</g>
</g>
<!-- dir_694ec83a64f58cbdefbefce65cd1011c&#45;&gt;dir_aac407a7a5679478d0631d0d52d3c8a2 -->
<g id="edge5" class="edge">
<title>dir_694ec83a64f58cbdefbefce65cd1011c&#45;&gt;dir_aac407a7a5679478d0631d0d52d3c8a2</title>
<path fill="none" stroke="black" d="M145.6,-180.1C143.84,-187.79 141.73,-197.05 139.76,-205.67"/>
<polygon fill="black" stroke="black" points="136.28,-205.17 137.47,-215.7 143.11,-206.73 136.28,-205.17"/>
<g id="a_edge5&#45;headlabel"><a xlink:href="dir_000143_000244.html" target="_top" xlink:title="1">
<text text-anchor="middle" x="134.32" y="-198.53" font-family="Helvetica,sans-Serif" font-size="10.00">1</text>
</a>
</g>
</g>
<!-- dir_694ec83a64f58cbdefbefce65cd1011c&#45;&gt;dir_bdd9a5d540de89e9fe90efdfc6973a4f -->
<g id="edge6" class="edge">
<title>dir_694ec83a64f58cbdefbefce65cd1011c&#45;&gt;dir_bdd9a5d540de89e9fe90efdfc6973a4f</title>
<path fill="none" stroke="black" d="M131.3,-180.11C122.68,-186.18 112.51,-193.2 103.51,-200 99.37,-203.13 95.09,-206.55 90.83,-209.97"/>
<polygon fill="black" stroke="black" points="88.35,-207.47 82.74,-216.46 92.73,-212.94 88.35,-207.47"/>
<g id="a_edge6&#45;headlabel"><a xlink:href="dir_000143_000000.html" target="_top" xlink:title="24">
<text text-anchor="middle" x="89.38" y="-200.51" font-family="Helvetica,sans-Serif" font-size="10.00">24</text>
</a>
</g>
</g>
<!-- dir_694ec83a64f58cbdefbefce65cd1011c&#45;&gt;dir_a0a8ac7efb6662b749c1285408048e6d -->
<g id="edge8" class="edge">
<title>dir_694ec83a64f58cbdefbefce65cd1011c&#45;&gt;dir_a0a8ac7efb6662b749c1285408048e6d</title>
<path fill="none" stroke="black" d="M149.51,-143.7C149.51,-135.98 149.51,-126.71 149.51,-118.11"/>
<polygon fill="black" stroke="black" points="153.01,-118.1 149.51,-108.1 146.01,-118.1 153.01,-118.1"/>
<g id="a_edge8&#45;headlabel"><a xlink:href="dir_000143_000206.html" target="_top" xlink:title="1">
<text text-anchor="middle" x="155.85" y="-119.2" font-family="Helvetica,sans-Serif" font-size="10.00">1</text>
</a>
</g>
</g>
<!-- dir_694ec83a64f58cbdefbefce65cd1011c&#45;&gt;dir_0981ace215aa2029f526b70c145b9fbe -->
<g id="edge7" class="edge">
<title>dir_694ec83a64f58cbdefbefce65cd1011c&#45;&gt;dir_0981ace215aa2029f526b70c145b9fbe</title>
<path fill="none" stroke="black" d="M137.21,-143.87C119.44,-119.14 86.47,-73.24 65.84,-44.51"/>
<polygon fill="black" stroke="black" points="68.54,-42.27 59.86,-36.19 62.85,-46.35 68.54,-42.27"/>
<g id="a_edge7&#45;headlabel"><a xlink:href="dir_000143_000011.html" target="_top" xlink:title="5">
<text text-anchor="middle" x="72.94" y="-41.03" font-family="Helvetica,sans-Serif" font-size="10.00">5</text>
</a>
</g>
</g>
</g>
</svg>
