<?xml version="1.0" encoding="UTF-8" standalone="no"?>
<!DOCTYPE svg PUBLIC "-//W3C//DTD SVG 1.1//EN"
 "http://www.w3.org/Graphics/SVG/1.1/DTD/svg11.dtd">
<!-- Generated by graphviz version 2.44.0 ()
 -->
<!-- Title: ee/network/tcpip/src Pages: 1 -->
<svg width="182pt" height="375pt"
 viewBox="0.00 0.00 182.00 375.00" xmlns="http://www.w3.org/2000/svg" xmlns:xlink="http://www.w3.org/1999/xlink">
<g id="graph0" class="graph" transform="scale(1 1) rotate(0) translate(4 371)">
<title>ee/network/tcpip/src</title>
<polygon fill="white" stroke="transparent" points="-4,4 -4,-371 178,-371 178,4 -4,4"/>
<g id="clust1" class="cluster">
<title>clusterdir_ca24a423c1b235320d00c488564f2476</title>
<g id="a_clust1"><a xlink:href="dir_ca24a423c1b235320d00c488564f2476.html" target="_top" xlink:title="tcpip">
<polygon fill="#ddddee" stroke="black" points="8,-272 8,-359 166,-359 166,-272 8,-272"/>
<text text-anchor="middle" x="87" y="-347" font-family="Helvetica,sans-Serif" font-size="10.00">tcpip</text>
</a>
</g>
</g>
<g id="clust2" class="cluster">
<title>clusterdir_72fd2ca65a98aa6f116e0a45d1317c83</title>
<g id="a_clust2"><a xlink:href="dir_72fd2ca65a98aa6f116e0a45d1317c83.html" target="_top">
<polygon fill="#eeeeff" stroke="black" points="16,-280 16,-332 158,-332 158,-280 16,-280"/>
</a>
</g>
</g>
<!-- dir_72fd2ca65a98aa6f116e0a45d1317c83 -->
<g id="node1" class="node">
<title>dir_72fd2ca65a98aa6f116e0a45d1317c83</title>
<text text-anchor="middle" x="51" y="-303.5" font-family="Helvetica,sans-Serif" font-size="10.00">src</text>
</g>
<!-- dir_0981ace215aa2029f526b70c145b9fbe -->
<g id="node3" class="node">
<title>dir_0981ace215aa2029f526b70c145b9fbe</title>
<g id="a_node3"><a xlink:href="dir_0981ace215aa2029f526b70c145b9fbe.html" target="_top" xlink:title="iop">
<polygon fill="white" stroke="red" points="83,-252 29,-252 29,-216 83,-216 83,-252"/>
<text text-anchor="middle" x="56" y="-231.5" font-family="Helvetica,sans-Serif" font-size="10.00">iop</text>
</a>
</g>
</g>
<!-- dir_72fd2ca65a98aa6f116e0a45d1317c83&#45;&gt;dir_0981ace215aa2029f526b70c145b9fbe -->
<g id="edge5" class="edge">
<title>dir_72fd2ca65a98aa6f116e0a45d1317c83&#45;&gt;dir_0981ace215aa2029f526b70c145b9fbe</title>
<path fill="none" stroke="black" d="M52.24,-287.7C52.79,-279.98 53.45,-270.71 54.06,-262.11"/>
<polygon fill="black" stroke="black" points="57.56,-262.33 54.78,-252.1 50.57,-261.83 57.56,-262.33"/>
<g id="a_edge5&#45;headlabel"><a xlink:href="dir_000157_000011.html" target="_top" xlink:title="4">
<text text-anchor="middle" x="60.13" y="-263.62" font-family="Helvetica,sans-Serif" font-size="10.00">4</text>
</a>
</g>
</g>
<!-- dir_a0a8ac7efb6662b749c1285408048e6d -->
<g id="node5" class="node">
<title>dir_a0a8ac7efb6662b749c1285408048e6d</title>
<g id="a_node5"><a xlink:href="dir_a0a8ac7efb6662b749c1285408048e6d.html" target="_top" xlink:title="erl">
<polygon fill="white" stroke="red" points="72,-36 18,-36 18,0 72,0 72,-36"/>
<text text-anchor="middle" x="45" y="-15.5" font-family="Helvetica,sans-Serif" font-size="10.00">erl</text>
</a>
</g>
</g>
<!-- dir_72fd2ca65a98aa6f116e0a45d1317c83&#45;&gt;dir_a0a8ac7efb6662b749c1285408048e6d -->
<g id="edge6" class="edge">
<title>dir_72fd2ca65a98aa6f116e0a45d1317c83&#45;&gt;dir_a0a8ac7efb6662b749c1285408048e6d</title>
<path fill="none" stroke="black" d="M37.85,-287.91C31.08,-278.01 23.51,-264.96 20,-252 0.25,-179.11 22.28,-89.43 35.89,-45.62"/>
<polygon fill="black" stroke="black" points="39.26,-46.6 38.98,-36 32.59,-44.46 39.26,-46.6"/>
<g id="a_edge6&#45;headlabel"><a xlink:href="dir_000157_000206.html" target="_top" xlink:title="1">
<text text-anchor="middle" x="40.86" y="-48.39" font-family="Helvetica,sans-Serif" font-size="10.00">1</text>
</a>
</g>
</g>
<!-- dir_d809a6a3c5621df28b9f2ead765ca843 -->
<g id="node2" class="node">
<title>dir_d809a6a3c5621df28b9f2ead765ca843</title>
<g id="a_node2"><a xlink:href="dir_d809a6a3c5621df28b9f2ead765ca843.html" target="_top" xlink:title="include">
<polygon fill="white" stroke="red" points="150,-324 96,-324 96,-288 150,-288 150,-324"/>
<text text-anchor="middle" x="123" y="-303.5" font-family="Helvetica,sans-Serif" font-size="10.00">include</text>
</a>
</g>
</g>
<!-- dir_694ec83a64f58cbdefbefce65cd1011c -->
<g id="node4" class="node">
<title>dir_694ec83a64f58cbdefbefce65cd1011c</title>
<g id="a_node4"><a xlink:href="dir_694ec83a64f58cbdefbefce65cd1011c.html" target="_top" xlink:title="kernel">
<polygon fill="white" stroke="red" points="100,-108 46,-108 46,-72 100,-72 100,-108"/>
<text text-anchor="middle" x="73" y="-87.5" font-family="Helvetica,sans-Serif" font-size="10.00">kernel</text>
</a>
</g>
</g>
<!-- dir_d809a6a3c5621df28b9f2ead765ca843&#45;&gt;dir_694ec83a64f58cbdefbefce65cd1011c -->
<g id="edge1" class="edge">
<title>dir_d809a6a3c5621df28b9f2ead765ca843&#45;&gt;dir_694ec83a64f58cbdefbefce65cd1011c</title>
<path fill="none" stroke="black" d="M131.86,-287.94C146.43,-257.31 171.54,-191.76 147,-144 138.87,-128.17 123.57,-116.01 108.98,-107.36"/>
<polygon fill="black" stroke="black" points="110.51,-104.2 100.06,-102.42 107.12,-110.32 110.51,-104.2"/>
<g id="a_edge1&#45;headlabel"><a xlink:href="dir_000233_000143.html" target="_top" xlink:title="1">
<text text-anchor="middle" x="115.03" y="-100.96" font-family="Helvetica,sans-Serif" font-size="10.00">1</text>
</a>
</g>
</g>
<!-- dir_bdd9a5d540de89e9fe90efdfc6973a4f -->
<g id="node6" class="node">
<title>dir_bdd9a5d540de89e9fe90efdfc6973a4f</title>
<g id="a_node6"><a xlink:href="dir_bdd9a5d540de89e9fe90efdfc6973a4f.html" target="_top" xlink:title="common">
<polygon fill="white" stroke="red" points="138,-180 84,-180 84,-144 138,-144 138,-180"/>
<text text-anchor="middle" x="111" y="-159.5" font-family="Helvetica,sans-Serif" font-size="10.00">common</text>
</a>
</g>
</g>
<!-- dir_d809a6a3c5621df28b9f2ead765ca843&#45;&gt;dir_bdd9a5d540de89e9fe90efdfc6973a4f -->
<g id="edge2" class="edge">
<title>dir_d809a6a3c5621df28b9f2ead765ca843&#45;&gt;dir_bdd9a5d540de89e9fe90efdfc6973a4f</title>
<path fill="none" stroke="black" d="M121.55,-287.87C119.51,-263.67 115.75,-219.21 113.31,-190.39"/>
<polygon fill="black" stroke="black" points="116.78,-189.86 112.45,-180.19 109.81,-190.45 116.78,-189.86"/>
<g id="a_edge2&#45;headlabel"><a xlink:href="dir_000233_000000.html" target="_top" xlink:title="1">
<text text-anchor="middle" x="119.91" y="-190.7" font-family="Helvetica,sans-Serif" font-size="10.00">1</text>
</a>
</g>
</g>
<!-- dir_0981ace215aa2029f526b70c145b9fbe&#45;&gt;dir_bdd9a5d540de89e9fe90efdfc6973a4f -->
<g id="edge7" class="edge">
<title>dir_0981ace215aa2029f526b70c145b9fbe&#45;&gt;dir_bdd9a5d540de89e9fe90efdfc6973a4f</title>
<path fill="none" stroke="black" d="M63.68,-215.7C69.41,-207.3 77.26,-197.07 84.97,-187.86"/>
<polygon fill="black" stroke="black" points="87.78,-189.96 91.67,-180.1 82.48,-185.39 87.78,-189.96"/>
<g id="a_edge7&#45;headlabel"><a xlink:href="dir_000011_000000.html" target="_top" xlink:title="158">
<text text-anchor="middle" x="87.59" y="-192.04" font-family="Helvetica,sans-Serif" font-size="10.00">158</text>
</a>
</g>
</g>
<!-- dir_694ec83a64f58cbdefbefce65cd1011c&#45;&gt;dir_0981ace215aa2029f526b70c145b9fbe -->
<g id="edge9" class="edge">
<title>dir_694ec83a64f58cbdefbefce65cd1011c&#45;&gt;dir_0981ace215aa2029f526b70c145b9fbe</title>
<path fill="none" stroke="black" d="M70.94,-108.19C68.04,-132.42 62.72,-176.89 59.27,-205.68"/>
<polygon fill="black" stroke="black" points="55.76,-205.53 58.05,-215.87 62.71,-206.36 55.76,-205.53"/>
<g id="a_edge9&#45;headlabel"><a xlink:href="dir_000143_000011.html" target="_top" xlink:title="5">
<text text-anchor="middle" x="53.37" y="-199.12" font-family="Helvetica,sans-Serif" font-size="10.00">5</text>
</a>
</g>
</g>
<!-- dir_694ec83a64f58cbdefbefce65cd1011c&#45;&gt;dir_a0a8ac7efb6662b749c1285408048e6d -->
<g id="edge10" class="edge">
<title>dir_694ec83a64f58cbdefbefce65cd1011c&#45;&gt;dir_a0a8ac7efb6662b749c1285408048e6d</title>
<path fill="none" stroke="black" d="M66.08,-71.7C62.93,-63.81 59.12,-54.3 55.62,-45.55"/>
<polygon fill="black" stroke="black" points="58.81,-44.09 51.84,-36.1 52.31,-46.69 58.81,-44.09"/>
<g id="a_edge10&#45;headlabel"><a xlink:href="dir_000143_000206.html" target="_top" xlink:title="1">
<text text-anchor="middle" x="62.78" y="-43.87" font-family="Helvetica,sans-Serif" font-size="10.00">1</text>
</a>
</g>
</g>
<!-- dir_694ec83a64f58cbdefbefce65cd1011c&#45;&gt;dir_bdd9a5d540de89e9fe90efdfc6973a4f -->
<g id="edge8" class="edge">
<title>dir_694ec83a64f58cbdefbefce65cd1011c&#45;&gt;dir_bdd9a5d540de89e9fe90efdfc6973a4f</title>
<path fill="none" stroke="black" d="M88.18,-108.1C93.32,-116.04 98.77,-125.67 103.19,-134.51"/>
<polygon fill="black" stroke="black" points="100.09,-136.15 107.52,-143.7 106.42,-133.16 100.09,-136.15"/>
<g id="a_edge8&#45;headlabel"><a xlink:href="dir_000143_000000.html" target="_top" xlink:title="24">
<text text-anchor="middle" x="95.99" y="-131.61" font-family="Helvetica,sans-Serif" font-size="10.00">24</text>
</a>
</g>
</g>
<!-- dir_a0a8ac7efb6662b749c1285408048e6d&#45;&gt;dir_0981ace215aa2029f526b70c145b9fbe -->
<g id="edge4" class="edge">
<title>dir_a0a8ac7efb6662b749c1285408048e6d&#45;&gt;dir_0981ace215aa2029f526b70c145b9fbe</title>
<path fill="none" stroke="black" d="M41.75,-36.11C39.95,-46.46 37.91,-59.94 37,-72 33.46,-119.15 42.75,-173.76 49.55,-205.73"/>
<polygon fill="black" stroke="black" points="46.17,-206.64 51.74,-215.65 53.01,-205.14 46.17,-206.64"/>
<g id="a_edge4&#45;headlabel"><a xlink:href="dir_000206_000011.html" target="_top" xlink:title="2">
<text text-anchor="middle" x="42.63" y="-201.24" font-family="Helvetica,sans-Serif" font-size="10.00">2</text>
</a>
</g>
</g>
<!-- dir_a0a8ac7efb6662b749c1285408048e6d&#45;&gt;dir_bdd9a5d540de89e9fe90efdfc6973a4f -->
<g id="edge3" class="edge">
<title>dir_a0a8ac7efb6662b749c1285408048e6d&#45;&gt;dir_bdd9a5d540de89e9fe90efdfc6973a4f</title>
<path fill="none" stroke="black" d="M72.28,-33.9C85.95,-42.96 101.21,-55.9 109,-72 118.29,-91.19 118.15,-115.54 116.04,-133.91"/>
<polygon fill="black" stroke="black" points="112.56,-133.57 114.63,-143.96 119.49,-134.54 112.56,-133.57"/>
<g id="a_edge3&#45;headlabel"><a xlink:href="dir_000206_000000.html" target="_top" xlink:title="1">
<text text-anchor="middle" x="110.24" y="-127.11" font-family="Helvetica,sans-Serif" font-size="10.00">1</text>
</a>
</g>
</g>
<!-- dir_bdd9a5d540de89e9fe90efdfc6973a4f&#45;&gt;dir_0981ace215aa2029f526b70c145b9fbe -->
<g id="edge11" class="edge">
<title>dir_bdd9a5d540de89e9fe90efdfc6973a4f&#45;&gt;dir_0981ace215aa2029f526b70c145b9fbe</title>
<path fill="none" stroke="black" d="M103.46,-180.1C97.76,-188.47 89.93,-198.69 82.21,-207.92"/>
<polygon fill="black" stroke="black" points="79.38,-205.84 75.51,-215.7 84.69,-210.4 79.38,-205.84"/>
<g id="a_edge11&#45;headlabel"><a xlink:href="dir_000000_000011.html" target="_top" xlink:title="20">
<text text-anchor="middle" x="79.58" y="-198.76" font-family="Helvetica,sans-Serif" font-size="10.00">20</text>
</a>
</g>
</g>
<!-- dir_bdd9a5d540de89e9fe90efdfc6973a4f&#45;&gt;dir_694ec83a64f58cbdefbefce65cd1011c -->
<g id="edge12" class="edge">
<title>dir_bdd9a5d540de89e9fe90efdfc6973a4f&#45;&gt;dir_694ec83a64f58cbdefbefce65cd1011c</title>
<path fill="none" stroke="black" d="M95.69,-143.7C90.54,-135.73 85.1,-126.1 80.7,-117.26"/>
<polygon fill="black" stroke="black" points="83.81,-115.66 76.39,-108.1 77.48,-118.64 83.81,-115.66"/>
<g id="a_edge12&#45;headlabel"><a xlink:href="dir_000000_000143.html" target="_top" xlink:title="1">
<text text-anchor="middle" x="87.91" y="-115.21" font-family="Helvetica,sans-Serif" font-size="10.00">1</text>
</a>
</g>
</g>
</g>
</svg>
