<?xml version="1.0" encoding="UTF-8" standalone="no"?>
<!DOCTYPE svg PUBLIC "-//W3C//DTD SVG 1.1//EN"
 "http://www.w3.org/Graphics/SVG/1.1/DTD/svg11.dtd">
<!-- Generated by graphviz version 9.0.0 (20230911.1827)
 -->
<!-- Title: iop/cdvd Pages: 1 -->
<svg width="477pt" height="142pt"
 viewBox="0.00 0.00 476.75 141.75" xmlns="http://www.w3.org/2000/svg" xmlns:xlink="http://www.w3.org/1999/xlink">
<g id="graph0" class="graph" transform="scale(1 1) rotate(0) translate(4 137.75)">
<title>iop/cdvd</title>
<g id="clust1" class="cluster">
<title>clusterdir_0981ace215aa2029f526b70c145b9fbe</title>
<g id="a_clust1"><a xlink:href="dir_0981ace215aa2029f526b70c145b9fbe.html" target="_top" xlink:title="iop">
<polygon fill="#deebf9" stroke="#404040" stroke-dasharray="5,2" points="8,-8 8,-125.75 407,-125.75 407,-8 8,-8"/>
<text text-anchor="middle" x="207.5" y="-112.25" font-family="Helvetica,sans-Serif" font-size="10.00">iop</text>
</a>
</g>
</g>
<g id="clust2" class="cluster">
<title>clusterdir_a12d8da7b0731a57c6a388326ad5e612</title>
<g id="a_clust2"><a xlink:href="dir_a12d8da7b0731a57c6a388326ad5e612.html" target="_top">
<polygon fill="#deebf9" stroke="#404040" stroke-width="2" points="16,-63.25 16,-98.5 399,-98.5 399,-63.25 16,-63.25"/>
</a>
</g>
</g>
<!-- dir_9be0baa3d4a3e9f480a9ee70594037fa -->
<g id="node1" class="node">
<title>dir_9be0baa3d4a3e9f480a9ee70594037fa</title>
<g id="a_node1"><a xlink:href="dir_9be0baa3d4a3e9f480a9ee70594037fa.html" target="_top" xlink:title="kernel">
<polygon fill="#60a2e3" stroke="red" points="189.12,-35.25 146.88,-35.25 146.88,-16 189.12,-16 189.12,-35.25"/>
<text text-anchor="middle" x="168" y="-21.75" font-family="Helvetica,sans-Serif" font-size="10.00">kernel</text>
</a>
</g>
</g>
<!-- dir_a12d8da7b0731a57c6a388326ad5e612 -->
<g id="node2" class="node">
<title>dir_a12d8da7b0731a57c6a388326ad5e612</title>
<text text-anchor="middle" x="372" y="-77" font-family="Helvetica,sans-Serif" font-size="10.00">cdvd</text>
</g>
<!-- dir_ae2e5b2d61c32fda6e87ab98b4cec460 -->
<g id="node3" class="node">
<title>dir_ae2e5b2d61c32fda6e87ab98b4cec460</title>
<g id="a_node3"><a xlink:href="dir_ae2e5b2d61c32fda6e87ab98b4cec460.html" target="_top" xlink:title="cdfs">
<polygon fill="#60a2e3" stroke="#404040" points="127.38,-90.5 92.62,-90.5 92.62,-71.25 127.38,-71.25 127.38,-90.5"/>
<text text-anchor="middle" x="110" y="-77" font-family="Helvetica,sans-Serif" font-size="10.00">cdfs</text>
</a>
</g>
</g>
<!-- dir_ae2e5b2d61c32fda6e87ab98b4cec460&#45;&gt;dir_9be0baa3d4a3e9f480a9ee70594037fa -->
<g id="edge1" class="edge">
<title>dir_ae2e5b2d61c32fda6e87ab98b4cec460&#45;&gt;dir_9be0baa3d4a3e9f480a9ee70594037fa</title>
<g id="a_edge1"><a xlink:href="dir_000038_000216.html" target="_top">
<path fill="none" stroke="#63b8ff" d="M119.84,-70.84C128.05,-63.3 139.98,-52.35 149.91,-43.23"/>
<polygon fill="#63b8ff" stroke="#63b8ff" points="152.19,-45.89 157.19,-36.55 147.46,-40.73 152.19,-45.89"/>
</a>
</g>
<g id="a_edge1&#45;headlabel"><a xlink:href="dir_000038_000216.html" target="_top" xlink:title="16">
<text text-anchor="middle" x="152.58" y="-45.51" font-family="Helvetica,sans-Serif" font-size="10.00" fill="#63b8ff">16</text>
</a>
</g>
</g>
<!-- dir_bdd9a5d540de89e9fe90efdfc6973a4f -->
<g id="node8" class="node">
<title>dir_bdd9a5d540de89e9fe90efdfc6973a4f</title>
<g id="a_node8"><a xlink:href="dir_bdd9a5d540de89e9fe90efdfc6973a4f.html" target="_top" xlink:title="common">
<polygon fill="#deebf9" stroke="red" points="468.75,-35.25 415.25,-35.25 415.25,-16 468.75,-16 468.75,-35.25"/>
<text text-anchor="middle" x="442" y="-21.75" font-family="Helvetica,sans-Serif" font-size="10.00">common</text>
</a>
</g>
</g>
<!-- dir_ae2e5b2d61c32fda6e87ab98b4cec460&#45;&gt;dir_bdd9a5d540de89e9fe90efdfc6973a4f -->
<g id="edge2" class="edge">
<title>dir_ae2e5b2d61c32fda6e87ab98b4cec460&#45;&gt;dir_bdd9a5d540de89e9fe90efdfc6973a4f</title>
<g id="a_edge2"><a xlink:href="dir_000038_000045.html" target="_top">
<path fill="none" stroke="#63b8ff" d="M122.05,-70.85C126.53,-67.94 131.79,-65.02 137,-63.25 249.42,-25.14 288.35,-55.97 403.96,-36.41"/>
<polygon fill="#63b8ff" stroke="#63b8ff" points="404.3,-39.9 413.52,-34.69 403.06,-33.01 404.3,-39.9"/>
</a>
</g>
<g id="a_edge2&#45;headlabel"><a xlink:href="dir_000038_000045.html" target="_top" xlink:title="3">
<text text-anchor="middle" x="402.75" y="-39.19" font-family="Helvetica,sans-Serif" font-size="10.00" fill="#63b8ff">3</text>
</a>
</g>
</g>
<!-- dir_1f6440c08895654e298b91d0ddcbd2c2 -->
<g id="node4" class="node">
<title>dir_1f6440c08895654e298b91d0ddcbd2c2</title>
<g id="a_node4"><a xlink:href="dir_1f6440c08895654e298b91d0ddcbd2c2.html" target="_top" xlink:title="cdvdfsv">
<polygon fill="#60a2e3" stroke="#404040" points="74.25,-90.5 23.75,-90.5 23.75,-71.25 74.25,-71.25 74.25,-90.5"/>
<text text-anchor="middle" x="49" y="-77" font-family="Helvetica,sans-Serif" font-size="10.00">cdvdfsv</text>
</a>
</g>
</g>
<!-- dir_1f6440c08895654e298b91d0ddcbd2c2&#45;&gt;dir_9be0baa3d4a3e9f480a9ee70594037fa -->
<g id="edge4" class="edge">
<title>dir_1f6440c08895654e298b91d0ddcbd2c2&#45;&gt;dir_9be0baa3d4a3e9f480a9ee70594037fa</title>
<g id="a_edge4"><a xlink:href="dir_000041_000216.html" target="_top">
<path fill="none" stroke="#63b8ff" d="M67.84,-70.79C73.06,-68.31 78.73,-65.65 84,-63.25 101.29,-55.38 120.73,-46.88 136.56,-40.05"/>
<polygon fill="#63b8ff" stroke="#63b8ff" points="137.66,-43.38 145.47,-36.22 134.9,-36.95 137.66,-43.38"/>
</a>
</g>
<g id="a_edge4&#45;headlabel"><a xlink:href="dir_000041_000216.html" target="_top" xlink:title="13">
<text text-anchor="middle" x="136.87" y="-42.94" font-family="Helvetica,sans-Serif" font-size="10.00" fill="#63b8ff">13</text>
</a>
</g>
</g>
<!-- dir_1f6440c08895654e298b91d0ddcbd2c2&#45;&gt;dir_bdd9a5d540de89e9fe90efdfc6973a4f -->
<g id="edge3" class="edge">
<title>dir_1f6440c08895654e298b91d0ddcbd2c2&#45;&gt;dir_bdd9a5d540de89e9fe90efdfc6973a4f</title>
<g id="a_edge3"><a xlink:href="dir_000041_000045.html" target="_top">
<path fill="none" stroke="#63b8ff" d="M64.92,-70.84C70.75,-67.93 77.51,-65.01 84,-63.25 221.22,-26.09 265.22,-59.35 403.98,-36.36"/>
<polygon fill="#63b8ff" stroke="#63b8ff" points="404.27,-39.87 413.53,-34.71 403.08,-32.97 404.27,-39.87"/>
</a>
</g>
<g id="a_edge3&#45;headlabel"><a xlink:href="dir_000041_000045.html" target="_top" xlink:title="2">
<text text-anchor="middle" x="402.7" y="-39.14" font-family="Helvetica,sans-Serif" font-size="10.00" fill="#63b8ff">2</text>
</a>
</g>
</g>
<!-- dir_f449e64e40a305c379232bc791e77932 -->
<g id="node5" class="node">
<title>dir_f449e64e40a305c379232bc791e77932</title>
<g id="a_node5"><a xlink:href="dir_f449e64e40a305c379232bc791e77932.html" target="_top" xlink:title="cdvdman">
<polygon fill="#60a2e3" stroke="#404040" points="335.88,-90.5 280.12,-90.5 280.12,-71.25 335.88,-71.25 335.88,-90.5"/>
<text text-anchor="middle" x="308" y="-77" font-family="Helvetica,sans-Serif" font-size="10.00">cdvdman</text>
</a>
</g>
</g>
<!-- dir_f449e64e40a305c379232bc791e77932&#45;&gt;dir_9be0baa3d4a3e9f480a9ee70594037fa -->
<g id="edge5" class="edge">
<title>dir_f449e64e40a305c379232bc791e77932&#45;&gt;dir_9be0baa3d4a3e9f480a9ee70594037fa</title>
<g id="a_edge5"><a xlink:href="dir_000042_000216.html" target="_top">
<path fill="none" stroke="#63b8ff" d="M288.54,-70.78C282.92,-68.25 276.75,-65.56 271,-63.25 247.52,-53.82 220.56,-44.28 200.12,-37.3"/>
<polygon fill="#63b8ff" stroke="#63b8ff" points="201.52,-34.08 190.93,-34.19 199.28,-40.71 201.52,-34.08"/>
</a>
</g>
<g id="a_edge5&#45;headlabel"><a xlink:href="dir_000042_000216.html" target="_top" xlink:title="13">
<text text-anchor="middle" x="204.4" y="-28.18" font-family="Helvetica,sans-Serif" font-size="10.00" fill="#63b8ff">13</text>
</a>
</g>
</g>
<!-- dir_f449e64e40a305c379232bc791e77932&#45;&gt;dir_bdd9a5d540de89e9fe90efdfc6973a4f -->
<g id="edge6" class="edge">
<title>dir_f449e64e40a305c379232bc791e77932&#45;&gt;dir_bdd9a5d540de89e9fe90efdfc6973a4f</title>
<g id="a_edge6"><a xlink:href="dir_000042_000045.html" target="_top">
<path fill="none" stroke="#63b8ff" d="M327.49,-70.85C333.11,-68.32 339.27,-65.62 345,-63.25 365.07,-54.96 387.77,-46.35 406.16,-39.56"/>
<polygon fill="#63b8ff" stroke="#63b8ff" points="407.11,-42.94 415.29,-36.21 404.7,-36.37 407.11,-42.94"/>
</a>
</g>
<g id="a_edge6&#45;headlabel"><a xlink:href="dir_000042_000045.html" target="_top" xlink:title="4">
<text text-anchor="middle" x="406.13" y="-42.45" font-family="Helvetica,sans-Serif" font-size="10.00" fill="#63b8ff">4</text>
</a>
</g>
</g>
<!-- dir_c39f392af7f13c65e7a482de8f63f0c9 -->
<g id="node6" class="node">
<title>dir_c39f392af7f13c65e7a482de8f63f0c9</title>
<g id="a_node6"><a xlink:href="dir_c39f392af7f13c65e7a482de8f63f0c9.html" target="_top" xlink:title="cdvdstm">
<polygon fill="#60a2e3" stroke="#404040" points="261.75,-90.5 208.25,-90.5 208.25,-71.25 261.75,-71.25 261.75,-90.5"/>
<text text-anchor="middle" x="235" y="-77" font-family="Helvetica,sans-Serif" font-size="10.00">cdvdstm</text>
</a>
</g>
</g>
<!-- dir_c39f392af7f13c65e7a482de8f63f0c9&#45;&gt;dir_9be0baa3d4a3e9f480a9ee70594037fa -->
<g id="edge8" class="edge">
<title>dir_c39f392af7f13c65e7a482de8f63f0c9&#45;&gt;dir_9be0baa3d4a3e9f480a9ee70594037fa</title>
<g id="a_edge8"><a xlink:href="dir_000043_000216.html" target="_top">
<path fill="none" stroke="#63b8ff" d="M223.63,-70.84C213.95,-63.15 199.8,-51.9 188.19,-42.68"/>
<polygon fill="#63b8ff" stroke="#63b8ff" points="190.39,-39.95 180.38,-36.47 186.03,-45.43 190.39,-39.95"/>
</a>
</g>
<g id="a_edge8&#45;headlabel"><a xlink:href="dir_000043_000216.html" target="_top" xlink:title="13">
<text text-anchor="middle" x="193.78" y="-35.15" font-family="Helvetica,sans-Serif" font-size="10.00" fill="#63b8ff">13</text>
</a>
</g>
</g>
<!-- dir_c39f392af7f13c65e7a482de8f63f0c9&#45;&gt;dir_bdd9a5d540de89e9fe90efdfc6973a4f -->
<g id="edge7" class="edge">
<title>dir_c39f392af7f13c65e7a482de8f63f0c9&#45;&gt;dir_bdd9a5d540de89e9fe90efdfc6973a4f</title>
<g id="a_edge7"><a xlink:href="dir_000043_000045.html" target="_top">
<path fill="none" stroke="#63b8ff" d="M252.25,-70.91C258.08,-68.15 264.72,-65.3 271,-63.25 327.8,-44.74 347.03,-49.33 403.9,-36.81"/>
<polygon fill="#63b8ff" stroke="#63b8ff" points="404.54,-40.26 413.5,-34.61 402.97,-33.44 404.54,-40.26"/>
</a>
</g>
<g id="a_edge7&#45;headlabel"><a xlink:href="dir_000043_000045.html" target="_top" xlink:title="2">
<text text-anchor="middle" x="403.15" y="-39.62" font-family="Helvetica,sans-Serif" font-size="10.00" fill="#63b8ff">2</text>
</a>
</g>
</g>
<!-- dir_e9f6397765e90b9450cf2a2f2169ae17 -->
<g id="node7" class="node">
<title>dir_e9f6397765e90b9450cf2a2f2169ae17</title>
<g id="a_node7"><a xlink:href="dir_e9f6397765e90b9450cf2a2f2169ae17.html" target="_top" xlink:title="xesdrv">
<polygon fill="#60a2e3" stroke="#404040" points="190.25,-90.5 145.75,-90.5 145.75,-71.25 190.25,-71.25 190.25,-90.5"/>
<text text-anchor="middle" x="168" y="-77" font-family="Helvetica,sans-Serif" font-size="10.00">xesdrv</text>
</a>
</g>
</g>
<!-- dir_e9f6397765e90b9450cf2a2f2169ae17&#45;&gt;dir_9be0baa3d4a3e9f480a9ee70594037fa -->
<g id="edge9" class="edge">
<title>dir_e9f6397765e90b9450cf2a2f2169ae17&#45;&gt;dir_9be0baa3d4a3e9f480a9ee70594037fa</title>
<g id="a_edge9"><a xlink:href="dir_000513_000216.html" target="_top">
<path fill="none" stroke="#63b8ff" d="M168,-71.08C168,-64.57 168,-55.42 168,-47.12"/>
<polygon fill="#63b8ff" stroke="#63b8ff" points="171.5,-47.12 168,-37.12 164.5,-47.12 171.5,-47.12"/>
</a>
</g>
<g id="a_edge9&#45;headlabel"><a xlink:href="dir_000513_000216.html" target="_top" xlink:title="5">
<text text-anchor="middle" x="174.34" y="-45.33" font-family="Helvetica,sans-Serif" font-size="10.00" fill="#63b8ff">5</text>
</a>
</g>
</g>
<!-- dir_e9f6397765e90b9450cf2a2f2169ae17&#45;&gt;dir_bdd9a5d540de89e9fe90efdfc6973a4f -->
<g id="edge10" class="edge">
<title>dir_e9f6397765e90b9450cf2a2f2169ae17&#45;&gt;dir_bdd9a5d540de89e9fe90efdfc6973a4f</title>
<g id="a_edge10"><a xlink:href="dir_000513_000045.html" target="_top">
<path fill="none" stroke="#63b8ff" d="M182.34,-70.79C187.43,-67.95 193.3,-65.09 199,-63.25 285.92,-35.23 315.56,-52.76 403.93,-36.53"/>
<polygon fill="#63b8ff" stroke="#63b8ff" points="404.37,-40.01 413.52,-34.66 403.03,-33.14 404.37,-40.01"/>
</a>
</g>
<g id="a_edge10&#45;headlabel"><a xlink:href="dir_000513_000045.html" target="_top" xlink:title="1">
<text text-anchor="middle" x="402.87" y="-39.32" font-family="Helvetica,sans-Serif" font-size="10.00" fill="#63b8ff">1</text>
</a>
</g>
</g>
</g>
</svg>
