<?xml version="1.0" encoding="UTF-8" standalone="no"?>
<!DOCTYPE svg PUBLIC "-//W3C//DTD SVG 1.1//EN"
 "http://www.w3.org/Graphics/SVG/1.1/DTD/svg11.dtd">
<!-- Generated by graphviz version 2.43.0 (0)
 -->
<!-- Title: iop/system/dmacman Pages: 1 -->
<svg width="274pt" height="375pt"
 viewBox="0.00 0.00 273.50 375.00" xmlns="http://www.w3.org/2000/svg" xmlns:xlink="http://www.w3.org/1999/xlink">
<g id="graph0" class="graph" transform="scale(1 1) rotate(0) translate(4 371)">
<title>iop/system/dmacman</title>
<polygon fill="white" stroke="transparent" points="-4,4 -4,-371 269.5,-371 269.5,4 -4,4"/>
<g id="clust1" class="cluster">
<title>clusterdir_40ac35421bc63b72c26b6c69b1517fd6</title>
<g id="a_clust1"><a xlink:href="dir_40ac35421bc63b72c26b6c69b1517fd6.html" target="_top" xlink:title="system">
<polygon fill="#ddddee" stroke="black" points="8,-200 8,-359 178,-359 178,-200 8,-200"/>
<text text-anchor="middle" x="93" y="-347" font-family="Helvetica,sans-Serif" font-size="10.00">system</text>
</a>
</g>
</g>
<g id="clust2" class="cluster">
<title>clusterdir_d7026c86e7f8fc62fc6c0ebacfebf381</title>
<g id="a_clust2"><a xlink:href="dir_d7026c86e7f8fc62fc6c0ebacfebf381.html" target="_top">
<polygon fill="#eeeeff" stroke="black" points="16,-208 16,-332 170,-332 170,-208 16,-208"/>
</a>
</g>
</g>
<!-- dir_d7026c86e7f8fc62fc6c0ebacfebf381 -->
<g id="node1" class="node">
<title>dir_d7026c86e7f8fc62fc6c0ebacfebf381</title>
<text text-anchor="middle" x="129" y="-303.5" font-family="Helvetica,sans-Serif" font-size="10.00">dmacman</text>
</g>
<!-- dir_9b52241a62bfbf5408dbbd7f06bda581 -->
<g id="node2" class="node">
<title>dir_9b52241a62bfbf5408dbbd7f06bda581</title>
<g id="a_node2"><a xlink:href="dir_9b52241a62bfbf5408dbbd7f06bda581.html" target="_top" xlink:title="include">
<polygon fill="white" stroke="black" points="78,-252 24,-252 24,-216 78,-216 78,-252"/>
<text text-anchor="middle" x="51" y="-231.5" font-family="Helvetica,sans-Serif" font-size="10.00">include</text>
</a>
</g>
</g>
<!-- dir_9be0baa3d4a3e9f480a9ee70594037fa -->
<g id="node4" class="node">
<title>dir_9be0baa3d4a3e9f480a9ee70594037fa</title>
<g id="a_node4"><a xlink:href="dir_9be0baa3d4a3e9f480a9ee70594037fa.html" target="_top" xlink:title="kernel">
<polygon fill="white" stroke="red" points="191,-36 137,-36 137,0 191,0 191,-36"/>
<text text-anchor="middle" x="164" y="-15.5" font-family="Helvetica,sans-Serif" font-size="10.00">kernel</text>
</a>
</g>
</g>
<!-- dir_9b52241a62bfbf5408dbbd7f06bda581&#45;&gt;dir_9be0baa3d4a3e9f480a9ee70594037fa -->
<g id="edge3" class="edge">
<title>dir_9b52241a62bfbf5408dbbd7f06bda581&#45;&gt;dir_9be0baa3d4a3e9f480a9ee70594037fa</title>
<path fill="none" stroke="black" d="M51.63,-215.97C53.55,-184.82 61.22,-117.69 92,-72 101.18,-58.38 115.07,-46.96 128.21,-38.25"/>
<polygon fill="black" stroke="black" points="130.08,-41.21 136.68,-32.93 126.35,-35.29 130.08,-41.21"/>
<g id="a_edge3&#45;headlabel"><a xlink:href="dir_000552_000525.html" target="_top" xlink:title="1">
<text text-anchor="middle" x="128.55" y="-43.03" font-family="Helvetica,sans-Serif" font-size="10.00">1</text>
</a>
</g>
</g>
<!-- dir_ffd7594d846340e67d78bcacff900475 -->
<g id="node3" class="node">
<title>dir_ffd7594d846340e67d78bcacff900475</title>
<g id="a_node3"><a xlink:href="dir_ffd7594d846340e67d78bcacff900475.html" target="_top" xlink:title="src">
<polygon fill="white" stroke="black" points="78,-324 24,-324 24,-288 78,-288 78,-324"/>
<text text-anchor="middle" x="51" y="-303.5" font-family="Helvetica,sans-Serif" font-size="10.00">src</text>
</a>
</g>
</g>
<!-- dir_ffd7594d846340e67d78bcacff900475&#45;&gt;dir_9b52241a62bfbf5408dbbd7f06bda581 -->
<g id="edge6" class="edge">
<title>dir_ffd7594d846340e67d78bcacff900475&#45;&gt;dir_9b52241a62bfbf5408dbbd7f06bda581</title>
<path fill="none" stroke="black" d="M51,-287.7C51,-279.98 51,-270.71 51,-262.11"/>
<polygon fill="black" stroke="black" points="54.5,-262.1 51,-252.1 47.5,-262.1 54.5,-262.1"/>
<g id="a_edge6&#45;headlabel"><a xlink:href="dir_000221_000552.html" target="_top" xlink:title="1">
<text text-anchor="middle" x="57.34" y="-263.2" font-family="Helvetica,sans-Serif" font-size="10.00">1</text>
</a>
</g>
</g>
<!-- dir_ffd7594d846340e67d78bcacff900475&#45;&gt;dir_9be0baa3d4a3e9f480a9ee70594037fa -->
<g id="edge4" class="edge">
<title>dir_ffd7594d846340e67d78bcacff900475&#45;&gt;dir_9be0baa3d4a3e9f480a9ee70594037fa</title>
<path fill="none" stroke="black" d="M65.15,-287.84C72.67,-277.92 81.48,-264.88 87,-252 119.25,-176.77 92.79,-146.82 126,-72 130.34,-62.22 136.65,-52.44 142.89,-43.99"/>
<polygon fill="black" stroke="black" points="145.69,-46.09 149.03,-36.03 140.15,-41.81 145.69,-46.09"/>
<g id="a_edge4&#45;headlabel"><a xlink:href="dir_000221_000525.html" target="_top" xlink:title="1">
<text text-anchor="middle" x="145.75" y="-48.17" font-family="Helvetica,sans-Serif" font-size="10.00">1</text>
</a>
</g>
</g>
<!-- dir_1d64e5e9f20206636d72b5bbe3d2b274 -->
<g id="node5" class="node">
<title>dir_1d64e5e9f20206636d72b5bbe3d2b274</title>
<g id="a_node5"><a xlink:href="dir_1d64e5e9f20206636d72b5bbe3d2b274.html" target="_top" xlink:title="loadcore">
<polygon fill="white" stroke="red" points="231.5,-180 172.5,-180 172.5,-144 231.5,-144 231.5,-180"/>
<text text-anchor="middle" x="202" y="-159.5" font-family="Helvetica,sans-Serif" font-size="10.00">loadcore</text>
</a>
</g>
</g>
<!-- dir_ffd7594d846340e67d78bcacff900475&#45;&gt;dir_1d64e5e9f20206636d72b5bbe3d2b274 -->
<g id="edge5" class="edge">
<title>dir_ffd7594d846340e67d78bcacff900475&#45;&gt;dir_1d64e5e9f20206636d72b5bbe3d2b274</title>
<path fill="none" stroke="black" d="M78.06,-292.13C108.72,-277.47 154.89,-255.12 158,-252 175.35,-234.64 187.01,-209.05 193.95,-189.76"/>
<polygon fill="black" stroke="black" points="197.34,-190.65 197.23,-180.06 190.71,-188.41 197.34,-190.65"/>
<g id="a_edge5&#45;headlabel"><a xlink:href="dir_000221_000240.html" target="_top" xlink:title="1">
<text text-anchor="middle" x="198.88" y="-192.47" font-family="Helvetica,sans-Serif" font-size="10.00">1</text>
</a>
</g>
</g>
<!-- dir_44719da65bb992f08c8ee8632a1136c7 -->
<g id="node6" class="node">
<title>dir_44719da65bb992f08c8ee8632a1136c7</title>
<g id="a_node6"><a xlink:href="dir_44719da65bb992f08c8ee8632a1136c7.html" target="_top" xlink:title="sysmem">
<polygon fill="white" stroke="red" points="193.5,-108 134.5,-108 134.5,-72 193.5,-72 193.5,-108"/>
<text text-anchor="middle" x="164" y="-87.5" font-family="Helvetica,sans-Serif" font-size="10.00">sysmem</text>
</a>
</g>
</g>
<!-- dir_ffd7594d846340e67d78bcacff900475&#45;&gt;dir_44719da65bb992f08c8ee8632a1136c7 -->
<g id="edge7" class="edge">
<title>dir_ffd7594d846340e67d78bcacff900475&#45;&gt;dir_44719da65bb992f08c8ee8632a1136c7</title>
<path fill="none" stroke="black" d="M78.1,-290.1C92.51,-280.89 109.39,-267.8 120,-252 147.69,-210.76 158.03,-152.54 161.83,-118.59"/>
<polygon fill="black" stroke="black" points="165.33,-118.77 162.85,-108.47 158.37,-118.07 165.33,-118.77"/>
<g id="a_edge7&#45;headlabel"><a xlink:href="dir_000221_000587.html" target="_top" xlink:title="1">
<text text-anchor="middle" x="167.8" y="-120.13" font-family="Helvetica,sans-Serif" font-size="10.00">1</text>
</a>
</g>
</g>
<!-- dir_7422a0894415a12ccd1d562a8ad09f2d -->
<g id="node7" class="node">
<title>dir_7422a0894415a12ccd1d562a8ad09f2d</title>
<g id="a_node7"><a xlink:href="dir_7422a0894415a12ccd1d562a8ad09f2d.html" target="_top" xlink:title="intrman">
<polygon fill="white" stroke="red" points="265.5,-252 210.5,-252 210.5,-216 265.5,-216 265.5,-252"/>
<text text-anchor="middle" x="238" y="-231.5" font-family="Helvetica,sans-Serif" font-size="10.00">intrman</text>
</a>
</g>
</g>
<!-- dir_ffd7594d846340e67d78bcacff900475&#45;&gt;dir_7422a0894415a12ccd1d562a8ad09f2d -->
<g id="edge8" class="edge">
<title>dir_ffd7594d846340e67d78bcacff900475&#45;&gt;dir_7422a0894415a12ccd1d562a8ad09f2d</title>
<path fill="none" stroke="black" d="M78.34,-292.04C81.57,-290.62 84.84,-289.25 88,-288 135.06,-269.41 148.53,-269.5 196,-252 197.43,-251.47 198.88,-250.93 200.35,-250.37"/>
<polygon fill="black" stroke="black" points="202.03,-253.47 210.08,-246.59 199.49,-246.95 202.03,-253.47"/>
<g id="a_edge8&#45;headlabel"><a xlink:href="dir_000221_000232.html" target="_top" xlink:title="1">
<text text-anchor="middle" x="199.71" y="-254.92" font-family="Helvetica,sans-Serif" font-size="10.00">1</text>
</a>
</g>
</g>
<!-- dir_1d64e5e9f20206636d72b5bbe3d2b274&#45;&gt;dir_9be0baa3d4a3e9f480a9ee70594037fa -->
<g id="edge1" class="edge">
<title>dir_1d64e5e9f20206636d72b5bbe3d2b274&#45;&gt;dir_9be0baa3d4a3e9f480a9ee70594037fa</title>
<path fill="none" stroke="black" d="M205.41,-143.77C208.3,-125.47 210.86,-95.93 203,-72 199.69,-61.91 193.63,-52.15 187.27,-43.82"/>
<polygon fill="black" stroke="black" points="189.92,-41.54 180.89,-36.01 184.5,-45.97 189.92,-41.54"/>
<g id="a_edge1&#45;headlabel"><a xlink:href="dir_000240_000525.html" target="_top" xlink:title="4">
<text text-anchor="middle" x="194.4" y="-40.03" font-family="Helvetica,sans-Serif" font-size="10.00">4</text>
</a>
</g>
</g>
<!-- dir_1d64e5e9f20206636d72b5bbe3d2b274&#45;&gt;dir_44719da65bb992f08c8ee8632a1136c7 -->
<g id="edge2" class="edge">
<title>dir_1d64e5e9f20206636d72b5bbe3d2b274&#45;&gt;dir_44719da65bb992f08c8ee8632a1136c7</title>
<path fill="none" stroke="black" d="M192.61,-143.7C188.24,-135.64 182.94,-125.89 178.1,-116.98"/>
<polygon fill="black" stroke="black" points="181.13,-115.22 173.29,-108.1 174.98,-118.56 181.13,-115.22"/>
<g id="a_edge2&#45;headlabel"><a xlink:href="dir_000240_000587.html" target="_top" xlink:title="1">
<text text-anchor="middle" x="185.34" y="-114.53" font-family="Helvetica,sans-Serif" font-size="10.00">1</text>
</a>
</g>
</g>
<!-- dir_44719da65bb992f08c8ee8632a1136c7&#45;&gt;dir_9be0baa3d4a3e9f480a9ee70594037fa -->
<g id="edge9" class="edge">
<title>dir_44719da65bb992f08c8ee8632a1136c7&#45;&gt;dir_9be0baa3d4a3e9f480a9ee70594037fa</title>
<path fill="none" stroke="black" d="M164,-71.7C164,-63.98 164,-54.71 164,-46.11"/>
<polygon fill="black" stroke="black" points="167.5,-46.1 164,-36.1 160.5,-46.1 167.5,-46.1"/>
<g id="a_edge9&#45;headlabel"><a xlink:href="dir_000587_000525.html" target="_top" xlink:title="1">
<text text-anchor="middle" x="170.34" y="-47.2" font-family="Helvetica,sans-Serif" font-size="10.00">1</text>
</a>
</g>
</g>
<!-- dir_7422a0894415a12ccd1d562a8ad09f2d&#45;&gt;dir_9be0baa3d4a3e9f480a9ee70594037fa -->
<g id="edge10" class="edge">
<title>dir_7422a0894415a12ccd1d562a8ad09f2d&#45;&gt;dir_9be0baa3d4a3e9f480a9ee70594037fa</title>
<path fill="none" stroke="black" d="M240.38,-216C243.85,-184.89 247.11,-117.82 219,-72 212.39,-61.23 203.08,-51.13 193.99,-42.7"/>
<polygon fill="black" stroke="black" points="196.28,-40.05 186.48,-36.03 191.64,-45.28 196.28,-40.05"/>
<g id="a_edge10&#45;headlabel"><a xlink:href="dir_000232_000525.html" target="_top" xlink:title="3">
<text text-anchor="middle" x="200.85" y="-37.81" font-family="Helvetica,sans-Serif" font-size="10.00">3</text>
</a>
</g>
</g>
<!-- dir_7422a0894415a12ccd1d562a8ad09f2d&#45;&gt;dir_1d64e5e9f20206636d72b5bbe3d2b274 -->
<g id="edge11" class="edge">
<title>dir_7422a0894415a12ccd1d562a8ad09f2d&#45;&gt;dir_1d64e5e9f20206636d72b5bbe3d2b274</title>
<path fill="none" stroke="black" d="M229.1,-215.7C225,-207.73 220.05,-198.1 215.51,-189.26"/>
<polygon fill="black" stroke="black" points="218.48,-187.4 210.8,-180.1 212.26,-190.6 218.48,-187.4"/>
<g id="a_edge11&#45;headlabel"><a xlink:href="dir_000232_000240.html" target="_top" xlink:title="1">
<text text-anchor="middle" x="222.65" y="-186.79" font-family="Helvetica,sans-Serif" font-size="10.00">1</text>
</a>
</g>
</g>
</g>
</svg>
