<?xml version="1.0" encoding="UTF-8" standalone="no"?>
<!DOCTYPE svg PUBLIC "-//W3C//DTD SVG 1.1//EN"
 "http://www.w3.org/Graphics/SVG/1.1/DTD/svg11.dtd">
<!-- Generated by graphviz version 2.43.0 (0)
 -->
<!-- Title: ee/input/src Pages: 1 -->
<svg width="141pt" height="367pt"
 viewBox="0.00 0.00 140.58 367.00" xmlns="http://www.w3.org/2000/svg" xmlns:xlink="http://www.w3.org/1999/xlink">
<g id="graph0" class="graph" transform="scale(1 1) rotate(0) translate(4 363)">
<title>ee/input/src</title>
<polygon fill="white" stroke="transparent" points="-4,4 -4,-363 136.58,-363 136.58,4 -4,4"/>
<g id="clust1" class="cluster">
<title>clusterdir_39941762bcf6eb45f8acbe5afd6e1dcf</title>
<g id="a_clust1"><a xlink:href="dir_39941762bcf6eb45f8acbe5afd6e1dcf.html" target="_top" xlink:title="input">
<polygon fill="#ddddee" stroke="black" points="20,-280 20,-351 90,-351 90,-280 20,-280"/>
<text text-anchor="middle" x="55" y="-339" font-family="Helvetica,sans-Serif" font-size="10.00">input</text>
</a>
</g>
</g>
<!-- dir_9805d618bf049a122c516d9b6b072b3f -->
<g id="node1" class="node">
<title>dir_9805d618bf049a122c516d9b6b072b3f</title>
<g id="a_node1"><a xlink:href="dir_9805d618bf049a122c516d9b6b072b3f.html" target="_top" xlink:title="src">
<polygon fill="#eeeeff" stroke="black" points="82,-324 28,-324 28,-288 82,-288 82,-324"/>
<text text-anchor="middle" x="55" y="-303.5" font-family="Helvetica,sans-Serif" font-size="10.00">src</text>
</a>
</g>
</g>
<!-- dir_a0a8ac7efb6662b749c1285408048e6d -->
<g id="node2" class="node">
<title>dir_a0a8ac7efb6662b749c1285408048e6d</title>
<g id="a_node2"><a xlink:href="dir_a0a8ac7efb6662b749c1285408048e6d.html" target="_top" xlink:title="erl">
<polygon fill="white" stroke="red" points="54,-108 0,-108 0,-72 54,-72 54,-108"/>
<text text-anchor="middle" x="27" y="-87.5" font-family="Helvetica,sans-Serif" font-size="10.00">erl</text>
</a>
</g>
</g>
<!-- dir_9805d618bf049a122c516d9b6b072b3f&#45;&gt;dir_a0a8ac7efb6662b749c1285408048e6d -->
<g id="edge2" class="edge">
<title>dir_9805d618bf049a122c516d9b6b072b3f&#45;&gt;dir_a0a8ac7efb6662b749c1285408048e6d</title>
<path fill="none" stroke="black" d="M50.57,-287.86C47.95,-277.51 44.64,-264.03 42,-252 35,-220.16 31.31,-212.43 28,-180 25.9,-159.38 25.72,-135.93 26.03,-118.28"/>
<polygon fill="black" stroke="black" points="29.54,-118.19 26.28,-108.11 22.54,-118.03 29.54,-118.19"/>
<g id="a_edge2&#45;headlabel"><a xlink:href="dir_000320_000397.html" target="_top" xlink:title="1">
<text text-anchor="middle" x="32.29" y="-119.36" font-family="Helvetica,sans-Serif" font-size="10.00">1</text>
</a>
</g>
</g>
<!-- dir_5b119dc963fa9b25ef41951231899460 -->
<g id="node3" class="node">
<title>dir_5b119dc963fa9b25ef41951231899460</title>
<g id="a_node3"><a xlink:href="dir_5b119dc963fa9b25ef41951231899460.html" target="_top" xlink:title="rpc">
<polygon fill="white" stroke="red" points="91,-180 37,-180 37,-144 91,-144 91,-180"/>
<text text-anchor="middle" x="64" y="-159.5" font-family="Helvetica,sans-Serif" font-size="10.00">rpc</text>
</a>
</g>
</g>
<!-- dir_9805d618bf049a122c516d9b6b072b3f&#45;&gt;dir_5b119dc963fa9b25ef41951231899460 -->
<g id="edge3" class="edge">
<title>dir_9805d618bf049a122c516d9b6b072b3f&#45;&gt;dir_5b119dc963fa9b25ef41951231899460</title>
<path fill="none" stroke="black" d="M50.98,-287.86C47.35,-269.87 43.12,-240.83 47,-216 48.36,-207.31 50.9,-198.1 53.61,-189.84"/>
<polygon fill="black" stroke="black" points="56.94,-190.93 56.93,-180.33 50.33,-188.62 56.94,-190.93"/>
<g id="a_edge3&#45;headlabel"><a xlink:href="dir_000320_000340.html" target="_top" xlink:title="1">
<text text-anchor="middle" x="58.43" y="-192.76" font-family="Helvetica,sans-Serif" font-size="10.00">1</text>
</a>
</g>
</g>
<!-- dir_0981ace215aa2029f526b70c145b9fbe -->
<g id="node4" class="node">
<title>dir_0981ace215aa2029f526b70c145b9fbe</title>
<g id="a_node4"><a xlink:href="dir_0981ace215aa2029f526b70c145b9fbe.html" target="_top" xlink:title="iop">
<polygon fill="white" stroke="red" points="109,-36 55,-36 55,0 109,0 109,-36"/>
<text text-anchor="middle" x="82" y="-15.5" font-family="Helvetica,sans-Serif" font-size="10.00">iop</text>
</a>
</g>
</g>
<!-- dir_9805d618bf049a122c516d9b6b072b3f&#45;&gt;dir_0981ace215aa2029f526b70c145b9fbe -->
<g id="edge4" class="edge">
<title>dir_9805d618bf049a122c516d9b6b072b3f&#45;&gt;dir_0981ace215aa2029f526b70c145b9fbe</title>
<path fill="none" stroke="black" d="M82.1,-290.39C95.89,-281.34 111.33,-268.32 119,-252 151.72,-182.42 116.56,-89.59 95.47,-45.03"/>
<polygon fill="black" stroke="black" points="98.62,-43.49 91.09,-36.03 92.32,-46.55 98.62,-43.49"/>
<g id="a_edge4&#45;headlabel"><a xlink:href="dir_000320_000011.html" target="_top" xlink:title="1">
<text text-anchor="middle" x="102.74" y="-42.98" font-family="Helvetica,sans-Serif" font-size="10.00">1</text>
</a>
</g>
</g>
<!-- dir_f6f36f3eb6875262b2c2259532f4a7d0 -->
<g id="node5" class="node">
<title>dir_f6f36f3eb6875262b2c2259532f4a7d0</title>
<g id="a_node5"><a xlink:href="dir_f6f36f3eb6875262b2c2259532f4a7d0.html" target="_top" xlink:title="include">
<polygon fill="none" stroke="black" points="110,-252 56,-252 56,-216 110,-216 110,-252"/>
<text text-anchor="middle" x="83" y="-231.5" font-family="Helvetica,sans-Serif" font-size="10.00">include</text>
</a>
</g>
</g>
<!-- dir_9805d618bf049a122c516d9b6b072b3f&#45;&gt;dir_f6f36f3eb6875262b2c2259532f4a7d0 -->
<g id="edge5" class="edge">
<title>dir_9805d618bf049a122c516d9b6b072b3f&#45;&gt;dir_f6f36f3eb6875262b2c2259532f4a7d0</title>
<path fill="none" stroke="black" d="M61.92,-287.7C65.07,-279.81 68.88,-270.3 72.38,-261.55"/>
<polygon fill="black" stroke="black" points="75.69,-262.69 76.16,-252.1 69.19,-260.09 75.69,-262.69"/>
<g id="a_edge5&#45;headlabel"><a xlink:href="dir_000320_000402.html" target="_top" xlink:title="1">
<text text-anchor="middle" x="77" y="-264.58" font-family="Helvetica,sans-Serif" font-size="10.00">1</text>
</a>
</g>
</g>
<!-- dir_a0a8ac7efb6662b749c1285408048e6d&#45;&gt;dir_0981ace215aa2029f526b70c145b9fbe -->
<g id="edge1" class="edge">
<title>dir_a0a8ac7efb6662b749c1285408048e6d&#45;&gt;dir_0981ace215aa2029f526b70c145b9fbe</title>
<path fill="none" stroke="black" d="M40.6,-71.7C47.12,-63.39 55.07,-53.28 62.25,-44.14"/>
<polygon fill="black" stroke="black" points="65.13,-46.13 68.56,-36.1 59.63,-41.81 65.13,-46.13"/>
<g id="a_edge1&#45;headlabel"><a xlink:href="dir_000397_000011.html" target="_top" xlink:title="4">
<text text-anchor="middle" x="65.15" y="-48.21" font-family="Helvetica,sans-Serif" font-size="10.00">4</text>
</a>
</g>
</g>
<!-- dir_5b119dc963fa9b25ef41951231899460&#45;&gt;dir_a0a8ac7efb6662b749c1285408048e6d -->
<g id="edge6" class="edge">
<title>dir_5b119dc963fa9b25ef41951231899460&#45;&gt;dir_a0a8ac7efb6662b749c1285408048e6d</title>
<path fill="none" stroke="black" d="M54.85,-143.7C50.6,-135.64 45.44,-125.89 40.73,-116.98"/>
<polygon fill="black" stroke="black" points="43.81,-115.31 36.04,-108.1 37.62,-118.58 43.81,-115.31"/>
<g id="a_edge6&#45;headlabel"><a xlink:href="dir_000340_000397.html" target="_top" xlink:title="17">
<text text-anchor="middle" x="48" y="-114.66" font-family="Helvetica,sans-Serif" font-size="10.00">17</text>
</a>
</g>
</g>
<!-- dir_5b119dc963fa9b25ef41951231899460&#45;&gt;dir_0981ace215aa2029f526b70c145b9fbe -->
<g id="edge7" class="edge">
<title>dir_5b119dc963fa9b25ef41951231899460&#45;&gt;dir_0981ace215aa2029f526b70c145b9fbe</title>
<path fill="none" stroke="black" d="M66.17,-143.87C69.24,-119.67 74.87,-75.21 78.53,-46.39"/>
<polygon fill="black" stroke="black" points="82.04,-46.55 79.82,-36.19 75.09,-45.67 82.04,-46.55"/>
<g id="a_edge7&#45;headlabel"><a xlink:href="dir_000340_000011.html" target="_top" xlink:title="22">
<text text-anchor="middle" x="84.4" y="-47.97" font-family="Helvetica,sans-Serif" font-size="10.00">22</text>
</a>
</g>
</g>
<!-- dir_f6f36f3eb6875262b2c2259532f4a7d0&#45;&gt;dir_5b119dc963fa9b25ef41951231899460 -->
<g id="edge8" class="edge">
<title>dir_f6f36f3eb6875262b2c2259532f4a7d0&#45;&gt;dir_5b119dc963fa9b25ef41951231899460</title>
<path fill="none" stroke="black" d="M78.3,-215.7C76.19,-207.9 73.64,-198.51 71.28,-189.83"/>
<polygon fill="black" stroke="black" points="74.64,-188.84 68.64,-180.1 67.88,-190.67 74.64,-188.84"/>
<g id="a_edge8&#45;headlabel"><a xlink:href="dir_000402_000340.html" target="_top" xlink:title="1">
<text text-anchor="middle" x="78.32" y="-189.06" font-family="Helvetica,sans-Serif" font-size="10.00">1</text>
</a>
</g>
</g>
</g>
</svg>
