<?xml version="1.0" encoding="UTF-8" standalone="no"?>
<!DOCTYPE svg PUBLIC "-//W3C//DTD SVG 1.1//EN"
 "http://www.w3.org/Graphics/SVG/1.1/DTD/svg11.dtd">
<!-- Generated by graphviz version 2.44.0 ()
 -->
<!-- Title: iop/fs/netfs Pages: 1 -->
<svg width="214pt" height="303pt"
 viewBox="0.00 0.00 214.00 303.00" xmlns="http://www.w3.org/2000/svg" xmlns:xlink="http://www.w3.org/1999/xlink">
<g id="graph0" class="graph" transform="scale(1 1) rotate(0) translate(4 299)">
<title>iop/fs/netfs</title>
<polygon fill="white" stroke="transparent" points="-4,4 -4,-299 210,-299 210,4 -4,4"/>
<g id="clust1" class="cluster">
<title>clusterdir_f24daea2522ffa8b6dc5fa9cdf5b8f5c</title>
<g id="a_clust1"><a xlink:href="dir_f24daea2522ffa8b6dc5fa9cdf5b8f5c.html" target="_top" xlink:title="fs">
<polygon fill="#ddddee" stroke="black" points="40,-200 40,-287 198,-287 198,-200 40,-200"/>
<text text-anchor="middle" x="119" y="-275" font-family="Helvetica,sans-Serif" font-size="10.00">fs</text>
</a>
</g>
</g>
<g id="clust2" class="cluster">
<title>clusterdir_c49d6f7b24cb4247c18d467361672153</title>
<g id="a_clust2"><a xlink:href="dir_c49d6f7b24cb4247c18d467361672153.html" target="_top">
<polygon fill="#eeeeff" stroke="black" points="48,-208 48,-260 190,-260 190,-208 48,-208"/>
</a>
</g>
</g>
<!-- dir_c49d6f7b24cb4247c18d467361672153 -->
<g id="node1" class="node">
<title>dir_c49d6f7b24cb4247c18d467361672153</title>
<text text-anchor="middle" x="155" y="-231.5" font-family="Helvetica,sans-Serif" font-size="10.00">netfs</text>
</g>
<!-- dir_71bd830da3b128f94f4da5847e7d6fcb -->
<g id="node2" class="node">
<title>dir_71bd830da3b128f94f4da5847e7d6fcb</title>
<g id="a_node2"><a xlink:href="dir_71bd830da3b128f94f4da5847e7d6fcb.html" target="_top" xlink:title="src">
<polygon fill="white" stroke="black" points="110,-252 56,-252 56,-216 110,-216 110,-252"/>
<text text-anchor="middle" x="83" y="-231.5" font-family="Helvetica,sans-Serif" font-size="10.00">src</text>
</a>
</g>
</g>
<!-- dir_9be0baa3d4a3e9f480a9ee70594037fa -->
<g id="node3" class="node">
<title>dir_9be0baa3d4a3e9f480a9ee70594037fa</title>
<g id="a_node3"><a xlink:href="dir_9be0baa3d4a3e9f480a9ee70594037fa.html" target="_top" xlink:title="kernel">
<polygon fill="white" stroke="red" points="110,-180 56,-180 56,-144 110,-144 110,-180"/>
<text text-anchor="middle" x="83" y="-159.5" font-family="Helvetica,sans-Serif" font-size="10.00">kernel</text>
</a>
</g>
</g>
<!-- dir_71bd830da3b128f94f4da5847e7d6fcb&#45;&gt;dir_9be0baa3d4a3e9f480a9ee70594037fa -->
<g id="edge6" class="edge">
<title>dir_71bd830da3b128f94f4da5847e7d6fcb&#45;&gt;dir_9be0baa3d4a3e9f480a9ee70594037fa</title>
<path fill="none" stroke="black" d="M83,-215.7C83,-207.98 83,-198.71 83,-190.11"/>
<polygon fill="black" stroke="black" points="86.5,-190.1 83,-180.1 79.5,-190.1 86.5,-190.1"/>
<g id="a_edge6&#45;headlabel"><a xlink:href="dir_000049_000214.html" target="_top" xlink:title="31">
<text text-anchor="middle" x="89.34" y="-191.2" font-family="Helvetica,sans-Serif" font-size="10.00">31</text>
</a>
</g>
</g>
<!-- dir_40ac35421bc63b72c26b6c69b1517fd6 -->
<g id="node4" class="node">
<title>dir_40ac35421bc63b72c26b6c69b1517fd6</title>
<g id="a_node4"><a xlink:href="dir_40ac35421bc63b72c26b6c69b1517fd6.html" target="_top" xlink:title="system">
<polygon fill="white" stroke="red" points="54,-108 0,-108 0,-72 54,-72 54,-108"/>
<text text-anchor="middle" x="27" y="-87.5" font-family="Helvetica,sans-Serif" font-size="10.00">system</text>
</a>
</g>
</g>
<!-- dir_71bd830da3b128f94f4da5847e7d6fcb&#45;&gt;dir_40ac35421bc63b72c26b6c69b1517fd6 -->
<g id="edge5" class="edge">
<title>dir_71bd830da3b128f94f4da5847e7d6fcb&#45;&gt;dir_40ac35421bc63b72c26b6c69b1517fd6</title>
<path fill="none" stroke="black" d="M68.89,-215.83C61.38,-205.9 52.57,-192.86 47,-180 38.46,-160.29 33.36,-136.49 30.44,-118.46"/>
<polygon fill="black" stroke="black" points="33.87,-117.7 28.94,-108.33 26.95,-118.73 33.87,-117.7"/>
<g id="a_edge5&#45;headlabel"><a xlink:href="dir_000049_000089.html" target="_top" xlink:title="3">
<text text-anchor="middle" x="37.21" y="-118.34" font-family="Helvetica,sans-Serif" font-size="10.00">3</text>
</a>
</g>
</g>
<!-- dir_bdd9a5d540de89e9fe90efdfc6973a4f -->
<g id="node5" class="node">
<title>dir_bdd9a5d540de89e9fe90efdfc6973a4f</title>
<g id="a_node5"><a xlink:href="dir_bdd9a5d540de89e9fe90efdfc6973a4f.html" target="_top" xlink:title="common">
<polygon fill="white" stroke="red" points="118,-36 64,-36 64,0 118,0 118,-36"/>
<text text-anchor="middle" x="91" y="-15.5" font-family="Helvetica,sans-Serif" font-size="10.00">common</text>
</a>
</g>
</g>
<!-- dir_71bd830da3b128f94f4da5847e7d6fcb&#45;&gt;dir_bdd9a5d540de89e9fe90efdfc6973a4f -->
<g id="edge7" class="edge">
<title>dir_71bd830da3b128f94f4da5847e7d6fcb&#45;&gt;dir_bdd9a5d540de89e9fe90efdfc6973a4f</title>
<path fill="none" stroke="black" d="M98.61,-215.77C106.37,-206.03 114.95,-193.18 119,-180 133.21,-133.8 116.1,-77.78 103.07,-45.48"/>
<polygon fill="black" stroke="black" points="106.29,-44.12 99.2,-36.25 99.84,-46.83 106.29,-44.12"/>
<g id="a_edge7&#45;headlabel"><a xlink:href="dir_000049_000000.html" target="_top" xlink:title="1">
<text text-anchor="middle" x="110.3" y="-43.83" font-family="Helvetica,sans-Serif" font-size="10.00">1</text>
</a>
</g>
</g>
<!-- dir_9be0baa3d4a3e9f480a9ee70594037fa&#45;&gt;dir_40ac35421bc63b72c26b6c69b1517fd6 -->
<g id="edge1" class="edge">
<title>dir_9be0baa3d4a3e9f480a9ee70594037fa&#45;&gt;dir_40ac35421bc63b72c26b6c69b1517fd6</title>
<path fill="none" stroke="black" d="M63.24,-143.7C55.82,-135.47 47.62,-125.48 40.82,-116.42"/>
<polygon fill="black" stroke="black" points="43.49,-114.15 34.79,-108.1 37.82,-118.26 43.49,-114.15"/>
<g id="a_edge1&#45;headlabel"><a xlink:href="dir_000214_000089.html" target="_top" xlink:title="2">
<text text-anchor="middle" x="47.9" y="-112.89" font-family="Helvetica,sans-Serif" font-size="10.00">2</text>
</a>
</g>
</g>
<!-- dir_9be0baa3d4a3e9f480a9ee70594037fa&#45;&gt;dir_bdd9a5d540de89e9fe90efdfc6973a4f -->
<g id="edge2" class="edge">
<title>dir_9be0baa3d4a3e9f480a9ee70594037fa&#45;&gt;dir_bdd9a5d540de89e9fe90efdfc6973a4f</title>
<path fill="none" stroke="black" d="M79.38,-143.87C78.19,-119.67 80.4,-75.21 84,-46.39"/>
<polygon fill="black" stroke="black" points="87.51,-46.58 85.44,-36.19 80.57,-45.6 87.51,-46.58"/>
<g id="a_edge2&#45;headlabel"><a xlink:href="dir_000214_000000.html" target="_top" xlink:title="12">
<text text-anchor="middle" x="89.81" y="-48.04" font-family="Helvetica,sans-Serif" font-size="10.00">12</text>
</a>
</g>
</g>
<!-- dir_40ac35421bc63b72c26b6c69b1517fd6&#45;&gt;dir_9be0baa3d4a3e9f480a9ee70594037fa -->
<g id="edge3" class="edge">
<title>dir_40ac35421bc63b72c26b6c69b1517fd6&#45;&gt;dir_9be0baa3d4a3e9f480a9ee70594037fa</title>
<path fill="none" stroke="black" d="M46.58,-108.1C53.99,-116.3 62.19,-126.28 69.02,-135.36"/>
<polygon fill="black" stroke="black" points="66.36,-137.66 75.07,-143.7 72.03,-133.55 66.36,-137.66"/>
<g id="a_edge3&#45;headlabel"><a xlink:href="dir_000089_000214.html" target="_top" xlink:title="176">
<text text-anchor="middle" x="61.96" y="-133.92" font-family="Helvetica,sans-Serif" font-size="10.00">176</text>
</a>
</g>
</g>
<!-- dir_40ac35421bc63b72c26b6c69b1517fd6&#45;&gt;dir_bdd9a5d540de89e9fe90efdfc6973a4f -->
<g id="edge4" class="edge">
<title>dir_40ac35421bc63b72c26b6c69b1517fd6&#45;&gt;dir_bdd9a5d540de89e9fe90efdfc6973a4f</title>
<path fill="none" stroke="black" d="M42.82,-71.7C50.57,-63.22 60.04,-52.86 68.52,-43.58"/>
<polygon fill="black" stroke="black" points="71.2,-45.85 75.36,-36.1 66.03,-41.12 71.2,-45.85"/>
<g id="a_edge4&#45;headlabel"><a xlink:href="dir_000089_000000.html" target="_top" xlink:title="3">
<text text-anchor="middle" x="70.87" y="-47.92" font-family="Helvetica,sans-Serif" font-size="10.00">3</text>
</a>
</g>
</g>
<!-- dir_bdd9a5d540de89e9fe90efdfc6973a4f&#45;&gt;dir_9be0baa3d4a3e9f480a9ee70594037fa -->
<g id="edge8" class="edge">
<title>dir_bdd9a5d540de89e9fe90efdfc6973a4f&#45;&gt;dir_9be0baa3d4a3e9f480a9ee70594037fa</title>
<path fill="none" stroke="black" d="M94.62,-36.19C95.81,-60.42 93.59,-104.89 89.99,-133.68"/>
<polygon fill="black" stroke="black" points="86.49,-133.48 88.55,-143.87 93.42,-134.46 86.49,-133.48"/>
<g id="a_edge8&#45;headlabel"><a xlink:href="dir_000000_000214.html" target="_top" xlink:title="20">
<text text-anchor="middle" x="84.18" y="-127.02" font-family="Helvetica,sans-Serif" font-size="10.00">20</text>
</a>
</g>
</g>
</g>
</svg>
