<?xml version="1.0" encoding="UTF-8" standalone="no"?>
<!DOCTYPE svg PUBLIC "-//W3C//DTD SVG 1.1//EN"
 "http://www.w3.org/Graphics/SVG/1.1/DTD/svg11.dtd">
<!-- Generated by graphviz version 2.43.0 (0)
 -->
<!-- Title: ee/input Pages: 1 -->
<svg width="182pt" height="375pt"
 viewBox="0.00 0.00 182.00 375.00" xmlns="http://www.w3.org/2000/svg" xmlns:xlink="http://www.w3.org/1999/xlink">
<g id="graph0" class="graph" transform="scale(1 1) rotate(0) translate(4 371)">
<title>ee/input</title>
<polygon fill="white" stroke="transparent" points="-4,4 -4,-371 178,-371 178,4 -4,4"/>
<g id="clust1" class="cluster">
<title>clusterdir_049738f1909e8dc3e45fe1f6b3faa109</title>
<g id="a_clust1"><a xlink:href="dir_049738f1909e8dc3e45fe1f6b3faa109.html" target="_top" xlink:title="ee">
<polygon fill="#ddddee" stroke="black" points="8,-200 8,-359 166,-359 166,-200 8,-200"/>
<text text-anchor="middle" x="87" y="-347" font-family="Helvetica,sans-Serif" font-size="10.00">ee</text>
</a>
</g>
</g>
<g id="clust2" class="cluster">
<title>clusterdir_39941762bcf6eb45f8acbe5afd6e1dcf</title>
<g id="a_clust2"><a xlink:href="dir_39941762bcf6eb45f8acbe5afd6e1dcf.html" target="_top">
<polygon fill="#eeeeff" stroke="black" points="16,-208 16,-332 158,-332 158,-208 16,-208"/>
</a>
</g>
</g>
<!-- dir_39941762bcf6eb45f8acbe5afd6e1dcf -->
<g id="node1" class="node">
<title>dir_39941762bcf6eb45f8acbe5afd6e1dcf</title>
<text text-anchor="middle" x="123" y="-303.5" font-family="Helvetica,sans-Serif" font-size="10.00">input</text>
</g>
<!-- dir_f6f36f3eb6875262b2c2259532f4a7d0 -->
<g id="node2" class="node">
<title>dir_f6f36f3eb6875262b2c2259532f4a7d0</title>
<g id="a_node2"><a xlink:href="dir_f6f36f3eb6875262b2c2259532f4a7d0.html" target="_top" xlink:title="include">
<polygon fill="white" stroke="black" points="78,-252 24,-252 24,-216 78,-216 78,-252"/>
<text text-anchor="middle" x="51" y="-231.5" font-family="Helvetica,sans-Serif" font-size="10.00">include</text>
</a>
</g>
</g>
<!-- dir_5b119dc963fa9b25ef41951231899460 -->
<g id="node5" class="node">
<title>dir_5b119dc963fa9b25ef41951231899460</title>
<g id="a_node5"><a xlink:href="dir_5b119dc963fa9b25ef41951231899460.html" target="_top" xlink:title="rpc">
<polygon fill="white" stroke="red" points="111,-180 57,-180 57,-144 111,-144 111,-180"/>
<text text-anchor="middle" x="84" y="-159.5" font-family="Helvetica,sans-Serif" font-size="10.00">rpc</text>
</a>
</g>
</g>
<!-- dir_f6f36f3eb6875262b2c2259532f4a7d0&#45;&gt;dir_5b119dc963fa9b25ef41951231899460 -->
<g id="edge8" class="edge">
<title>dir_f6f36f3eb6875262b2c2259532f4a7d0&#45;&gt;dir_5b119dc963fa9b25ef41951231899460</title>
<path fill="none" stroke="black" d="M59.16,-215.7C62.91,-207.73 67.45,-198.1 71.62,-189.26"/>
<polygon fill="black" stroke="black" points="74.84,-190.64 75.94,-180.1 68.51,-187.66 74.84,-190.64"/>
<g id="a_edge8&#45;headlabel"><a xlink:href="dir_000405_000343.html" target="_top" xlink:title="1">
<text text-anchor="middle" x="75.87" y="-192.6" font-family="Helvetica,sans-Serif" font-size="10.00">1</text>
</a>
</g>
</g>
<!-- dir_9805d618bf049a122c516d9b6b072b3f -->
<g id="node3" class="node">
<title>dir_9805d618bf049a122c516d9b6b072b3f</title>
<g id="a_node3"><a xlink:href="dir_9805d618bf049a122c516d9b6b072b3f.html" target="_top" xlink:title="src">
<polygon fill="white" stroke="black" points="78,-324 24,-324 24,-288 78,-288 78,-324"/>
<text text-anchor="middle" x="51" y="-303.5" font-family="Helvetica,sans-Serif" font-size="10.00">src</text>
</a>
</g>
</g>
<!-- dir_9805d618bf049a122c516d9b6b072b3f&#45;&gt;dir_f6f36f3eb6875262b2c2259532f4a7d0 -->
<g id="edge5" class="edge">
<title>dir_9805d618bf049a122c516d9b6b072b3f&#45;&gt;dir_f6f36f3eb6875262b2c2259532f4a7d0</title>
<path fill="none" stroke="black" d="M51,-287.7C51,-279.98 51,-270.71 51,-262.11"/>
<polygon fill="black" stroke="black" points="54.5,-262.1 51,-252.1 47.5,-262.1 54.5,-262.1"/>
<g id="a_edge5&#45;headlabel"><a xlink:href="dir_000323_000405.html" target="_top" xlink:title="1">
<text text-anchor="middle" x="57.34" y="-263.2" font-family="Helvetica,sans-Serif" font-size="10.00">1</text>
</a>
</g>
</g>
<!-- dir_a0a8ac7efb6662b749c1285408048e6d -->
<g id="node4" class="node">
<title>dir_a0a8ac7efb6662b749c1285408048e6d</title>
<g id="a_node4"><a xlink:href="dir_a0a8ac7efb6662b749c1285408048e6d.html" target="_top" xlink:title="erl">
<polygon fill="white" stroke="red" points="162,-108 108,-108 108,-72 162,-72 162,-108"/>
<text text-anchor="middle" x="135" y="-87.5" font-family="Helvetica,sans-Serif" font-size="10.00">erl</text>
</a>
</g>
</g>
<!-- dir_9805d618bf049a122c516d9b6b072b3f&#45;&gt;dir_a0a8ac7efb6662b749c1285408048e6d -->
<g id="edge2" class="edge">
<title>dir_9805d618bf049a122c516d9b6b072b3f&#45;&gt;dir_a0a8ac7efb6662b749c1285408048e6d</title>
<path fill="none" stroke="black" d="M72.59,-287.96C83.24,-278.45 95.41,-265.77 103,-252 126.49,-209.4 132.88,-152.03 134.53,-118.52"/>
<polygon fill="black" stroke="black" points="138.04,-118.26 134.93,-108.13 131.05,-117.99 138.04,-118.26"/>
<g id="a_edge2&#45;headlabel"><a xlink:href="dir_000323_000400.html" target="_top" xlink:title="1">
<text text-anchor="middle" x="140.75" y="-119.46" font-family="Helvetica,sans-Serif" font-size="10.00">1</text>
</a>
</g>
</g>
<!-- dir_9805d618bf049a122c516d9b6b072b3f&#45;&gt;dir_5b119dc963fa9b25ef41951231899460 -->
<g id="edge3" class="edge">
<title>dir_9805d618bf049a122c516d9b6b072b3f&#45;&gt;dir_5b119dc963fa9b25ef41951231899460</title>
<path fill="none" stroke="black" d="M66.61,-287.77C74.37,-278.03 82.95,-265.18 87,-252 93.16,-231.96 91.95,-208.17 89.45,-190.24"/>
<polygon fill="black" stroke="black" points="92.88,-189.48 87.83,-180.17 85.97,-190.6 92.88,-189.48"/>
<g id="a_edge3&#45;headlabel"><a xlink:href="dir_000323_000343.html" target="_top" xlink:title="1">
<text text-anchor="middle" x="96.25" y="-190.08" font-family="Helvetica,sans-Serif" font-size="10.00">1</text>
</a>
</g>
</g>
<!-- dir_0981ace215aa2029f526b70c145b9fbe -->
<g id="node6" class="node">
<title>dir_0981ace215aa2029f526b70c145b9fbe</title>
<g id="a_node6"><a xlink:href="dir_0981ace215aa2029f526b70c145b9fbe.html" target="_top" xlink:title="iop">
<polygon fill="white" stroke="red" points="162,-36 108,-36 108,0 162,0 162,-36"/>
<text text-anchor="middle" x="135" y="-15.5" font-family="Helvetica,sans-Serif" font-size="10.00">iop</text>
</a>
</g>
</g>
<!-- dir_9805d618bf049a122c516d9b6b072b3f&#45;&gt;dir_0981ace215aa2029f526b70c145b9fbe -->
<g id="edge4" class="edge">
<title>dir_9805d618bf049a122c516d9b6b072b3f&#45;&gt;dir_0981ace215aa2029f526b70c145b9fbe</title>
<path fill="none" stroke="black" d="M78.02,-291.72C94.06,-282.57 113.61,-269.02 126,-252 165.46,-197.79 160.88,-174.28 171,-108 173.41,-92.18 175.7,-87.29 171,-72 167.99,-62.22 162.49,-52.62 156.68,-44.33"/>
<polygon fill="black" stroke="black" points="159.41,-42.13 150.61,-36.23 153.81,-46.33 159.41,-42.13"/>
<g id="a_edge4&#45;headlabel"><a xlink:href="dir_000323_000011.html" target="_top" xlink:title="1">
<text text-anchor="middle" x="163.83" y="-40.8" font-family="Helvetica,sans-Serif" font-size="10.00">1</text>
</a>
</g>
</g>
<!-- dir_a0a8ac7efb6662b749c1285408048e6d&#45;&gt;dir_0981ace215aa2029f526b70c145b9fbe -->
<g id="edge1" class="edge">
<title>dir_a0a8ac7efb6662b749c1285408048e6d&#45;&gt;dir_0981ace215aa2029f526b70c145b9fbe</title>
<path fill="none" stroke="black" d="M135,-71.7C135,-63.98 135,-54.71 135,-46.11"/>
<polygon fill="black" stroke="black" points="138.5,-46.1 135,-36.1 131.5,-46.1 138.5,-46.1"/>
<g id="a_edge1&#45;headlabel"><a xlink:href="dir_000400_000011.html" target="_top" xlink:title="4">
<text text-anchor="middle" x="141.34" y="-47.2" font-family="Helvetica,sans-Serif" font-size="10.00">4</text>
</a>
</g>
</g>
<!-- dir_5b119dc963fa9b25ef41951231899460&#45;&gt;dir_a0a8ac7efb6662b749c1285408048e6d -->
<g id="edge6" class="edge">
<title>dir_5b119dc963fa9b25ef41951231899460&#45;&gt;dir_a0a8ac7efb6662b749c1285408048e6d</title>
<path fill="none" stroke="black" d="M96.61,-143.7C102.6,-135.47 109.88,-125.48 116.48,-116.42"/>
<polygon fill="black" stroke="black" points="119.48,-118.25 122.54,-108.1 113.82,-114.13 119.48,-118.25"/>
<g id="a_edge6&#45;headlabel"><a xlink:href="dir_000343_000400.html" target="_top" xlink:title="17">
<text text-anchor="middle" x="119.66" y="-120.32" font-family="Helvetica,sans-Serif" font-size="10.00">17</text>
</a>
</g>
</g>
<!-- dir_5b119dc963fa9b25ef41951231899460&#45;&gt;dir_0981ace215aa2029f526b70c145b9fbe -->
<g id="edge7" class="edge">
<title>dir_5b119dc963fa9b25ef41951231899460&#45;&gt;dir_0981ace215aa2029f526b70c145b9fbe</title>
<path fill="none" stroke="black" d="M84.73,-143.68C86,-125.3 89.48,-95.7 99,-72 102.88,-62.35 108.72,-52.67 114.59,-44.28"/>
<polygon fill="black" stroke="black" points="117.53,-46.19 120.62,-36.06 111.88,-42.05 117.53,-46.19"/>
<g id="a_edge7&#45;headlabel"><a xlink:href="dir_000343_000011.html" target="_top" xlink:title="22">
<text text-anchor="middle" x="117.69" y="-48.27" font-family="Helvetica,sans-Serif" font-size="10.00">22</text>
</a>
</g>
</g>
</g>
</svg>
