<?xml version="1.0" encoding="UTF-8" standalone="no"?>
<!DOCTYPE svg PUBLIC "-//W3C//DTD SVG 1.1//EN"
 "http://www.w3.org/Graphics/SVG/1.1/DTD/svg11.dtd">
<!-- Generated by graphviz version 2.44.0 ()
 -->
<!-- Title: ee/rpc/sior Pages: 1 -->
<svg width="305pt" height="375pt"
 viewBox="0.00 0.00 304.66 375.00" xmlns="http://www.w3.org/2000/svg" xmlns:xlink="http://www.w3.org/1999/xlink">
<g id="graph0" class="graph" transform="scale(1 1) rotate(0) translate(4 371)">
<title>ee/rpc/sior</title>
<polygon fill="white" stroke="transparent" points="-4,4 -4,-371 300.66,-371 300.66,4 -4,4"/>
<g id="clust1" class="cluster">
<title>clusterdir_5b119dc963fa9b25ef41951231899460</title>
<g id="a_clust1"><a xlink:href="dir_5b119dc963fa9b25ef41951231899460.html" target="_top" xlink:title="rpc">
<polygon fill="#ddddee" stroke="black" points="8,-200 8,-359 166,-359 166,-200 8,-200"/>
<text text-anchor="middle" x="87" y="-347" font-family="Helvetica,sans-Serif" font-size="10.00">rpc</text>
</a>
</g>
</g>
<g id="clust2" class="cluster">
<title>clusterdir_d4a6eac35d72455d405007552e574e19</title>
<g id="a_clust2"><a xlink:href="dir_d4a6eac35d72455d405007552e574e19.html" target="_top">
<polygon fill="#eeeeff" stroke="black" points="16,-208 16,-332 158,-332 158,-208 16,-208"/>
</a>
</g>
</g>
<!-- dir_d4a6eac35d72455d405007552e574e19 -->
<g id="node1" class="node">
<title>dir_d4a6eac35d72455d405007552e574e19</title>
<text text-anchor="middle" x="123" y="-303.5" font-family="Helvetica,sans-Serif" font-size="10.00">sior</text>
</g>
<!-- dir_7a30004114210d8a58166e09a9078b00 -->
<g id="node2" class="node">
<title>dir_7a30004114210d8a58166e09a9078b00</title>
<g id="a_node2"><a xlink:href="dir_7a30004114210d8a58166e09a9078b00.html" target="_top" xlink:title="include">
<polygon fill="white" stroke="black" points="78,-252 24,-252 24,-216 78,-216 78,-252"/>
<text text-anchor="middle" x="51" y="-231.5" font-family="Helvetica,sans-Serif" font-size="10.00">include</text>
</a>
</g>
</g>
<!-- dir_f569607cb6afe3f1a6eca55bcfb9e9e7 -->
<g id="node3" class="node">
<title>dir_f569607cb6afe3f1a6eca55bcfb9e9e7</title>
<g id="a_node3"><a xlink:href="dir_f569607cb6afe3f1a6eca55bcfb9e9e7.html" target="_top" xlink:title="src">
<polygon fill="white" stroke="black" points="78,-324 24,-324 24,-288 78,-288 78,-324"/>
<text text-anchor="middle" x="51" y="-303.5" font-family="Helvetica,sans-Serif" font-size="10.00">src</text>
</a>
</g>
</g>
<!-- dir_f569607cb6afe3f1a6eca55bcfb9e9e7&#45;&gt;dir_7a30004114210d8a58166e09a9078b00 -->
<g id="edge5" class="edge">
<title>dir_f569607cb6afe3f1a6eca55bcfb9e9e7&#45;&gt;dir_7a30004114210d8a58166e09a9078b00</title>
<path fill="none" stroke="black" d="M51,-287.7C51,-279.98 51,-270.71 51,-262.11"/>
<polygon fill="black" stroke="black" points="54.5,-262.1 51,-252.1 47.5,-262.1 54.5,-262.1"/>
<g id="a_edge5&#45;headlabel"><a xlink:href="dir_000192_000257.html" target="_top" xlink:title="1">
<text text-anchor="middle" x="57.34" y="-263.2" font-family="Helvetica,sans-Serif" font-size="10.00">1</text>
</a>
</g>
</g>
<!-- dir_a0a8ac7efb6662b749c1285408048e6d -->
<g id="node4" class="node">
<title>dir_a0a8ac7efb6662b749c1285408048e6d</title>
<g id="a_node4"><a xlink:href="dir_a0a8ac7efb6662b749c1285408048e6d.html" target="_top" xlink:title="erl">
<polygon fill="white" stroke="red" points="228,-252 174,-252 174,-216 228,-216 228,-252"/>
<text text-anchor="middle" x="201" y="-231.5" font-family="Helvetica,sans-Serif" font-size="10.00">erl</text>
</a>
</g>
</g>
<!-- dir_f569607cb6afe3f1a6eca55bcfb9e9e7&#45;&gt;dir_a0a8ac7efb6662b749c1285408048e6d -->
<g id="edge6" class="edge">
<title>dir_f569607cb6afe3f1a6eca55bcfb9e9e7&#45;&gt;dir_a0a8ac7efb6662b749c1285408048e6d</title>
<path fill="none" stroke="black" d="M78.12,-292.17C81.11,-290.76 84.12,-289.35 87,-288 112.94,-275.85 142.25,-262.22 164.65,-251.83"/>
<polygon fill="black" stroke="black" points="166.2,-254.97 173.8,-247.59 163.25,-248.62 166.2,-254.97"/>
<g id="a_edge6&#45;headlabel"><a xlink:href="dir_000192_000206.html" target="_top" xlink:title="1">
<text text-anchor="middle" x="164.13" y="-256.56" font-family="Helvetica,sans-Serif" font-size="10.00">1</text>
</a>
</g>
</g>
<!-- dir_bdd9a5d540de89e9fe90efdfc6973a4f -->
<g id="node5" class="node">
<title>dir_bdd9a5d540de89e9fe90efdfc6973a4f</title>
<g id="a_node5"><a xlink:href="dir_bdd9a5d540de89e9fe90efdfc6973a4f.html" target="_top" xlink:title="common">
<polygon fill="white" stroke="red" points="282,-180 228,-180 228,-144 282,-144 282,-180"/>
<text text-anchor="middle" x="255" y="-159.5" font-family="Helvetica,sans-Serif" font-size="10.00">common</text>
</a>
</g>
</g>
<!-- dir_f569607cb6afe3f1a6eca55bcfb9e9e7&#45;&gt;dir_bdd9a5d540de89e9fe90efdfc6973a4f -->
<g id="edge7" class="edge">
<title>dir_f569607cb6afe3f1a6eca55bcfb9e9e7&#45;&gt;dir_bdd9a5d540de89e9fe90efdfc6973a4f</title>
<path fill="none" stroke="black" d="M78.27,-291.41C81.19,-290.17 84.13,-289.01 87,-288 151.67,-265.24 189.4,-301.34 237,-252 252.61,-235.82 256.41,-210.05 256.72,-190.4"/>
<polygon fill="black" stroke="black" points="260.22,-190.16 256.58,-180.21 253.22,-190.25 260.22,-190.16"/>
<g id="a_edge7&#45;headlabel"><a xlink:href="dir_000192_000000.html" target="_top" xlink:title="1">
<text text-anchor="middle" x="263.1" y="-191.22" font-family="Helvetica,sans-Serif" font-size="10.00">1</text>
</a>
</g>
</g>
<!-- dir_694ec83a64f58cbdefbefce65cd1011c -->
<g id="node6" class="node">
<title>dir_694ec83a64f58cbdefbefce65cd1011c</title>
<g id="a_node6"><a xlink:href="dir_694ec83a64f58cbdefbefce65cd1011c.html" target="_top" xlink:title="kernel">
<polygon fill="white" stroke="red" points="226,-108 172,-108 172,-72 226,-72 226,-108"/>
<text text-anchor="middle" x="199" y="-87.5" font-family="Helvetica,sans-Serif" font-size="10.00">kernel</text>
</a>
</g>
</g>
<!-- dir_f569607cb6afe3f1a6eca55bcfb9e9e7&#45;&gt;dir_694ec83a64f58cbdefbefce65cd1011c -->
<g id="edge4" class="edge">
<title>dir_f569607cb6afe3f1a6eca55bcfb9e9e7&#45;&gt;dir_694ec83a64f58cbdefbefce65cd1011c</title>
<path fill="none" stroke="black" d="M62.86,-287.85C88.79,-250.36 150.62,-160.95 181.22,-116.7"/>
<polygon fill="black" stroke="black" points="184.27,-118.45 187.08,-108.23 178.52,-114.47 184.27,-118.45"/>
<g id="a_edge4&#45;headlabel"><a xlink:href="dir_000192_000143.html" target="_top" xlink:title="2">
<text text-anchor="middle" x="184.56" y="-120.52" font-family="Helvetica,sans-Serif" font-size="10.00">2</text>
</a>
</g>
</g>
<!-- dir_0981ace215aa2029f526b70c145b9fbe -->
<g id="node7" class="node">
<title>dir_0981ace215aa2029f526b70c145b9fbe</title>
<g id="a_node7"><a xlink:href="dir_0981ace215aa2029f526b70c145b9fbe.html" target="_top" xlink:title="iop">
<polygon fill="white" stroke="red" points="290,-36 236,-36 236,0 290,0 290,-36"/>
<text text-anchor="middle" x="263" y="-15.5" font-family="Helvetica,sans-Serif" font-size="10.00">iop</text>
</a>
</g>
</g>
<!-- dir_f569607cb6afe3f1a6eca55bcfb9e9e7&#45;&gt;dir_0981ace215aa2029f526b70c145b9fbe -->
<g id="edge3" class="edge">
<title>dir_f569607cb6afe3f1a6eca55bcfb9e9e7&#45;&gt;dir_0981ace215aa2029f526b70c145b9fbe</title>
<path fill="none" stroke="black" d="M78.24,-291.32C81.16,-290.1 84.12,-288.97 87,-288 161.47,-263.06 199.17,-301.67 260,-252 320.39,-202.69 291.56,-95.57 273.61,-45.63"/>
<polygon fill="black" stroke="black" points="276.85,-44.31 270.09,-36.16 270.29,-46.75 276.85,-44.31"/>
<g id="a_edge3&#45;headlabel"><a xlink:href="dir_000192_000011.html" target="_top" xlink:title="1">
<text text-anchor="middle" x="280.77" y="-44.19" font-family="Helvetica,sans-Serif" font-size="10.00">1</text>
</a>
</g>
</g>
<!-- dir_a0a8ac7efb6662b749c1285408048e6d&#45;&gt;dir_bdd9a5d540de89e9fe90efdfc6973a4f -->
<g id="edge1" class="edge">
<title>dir_a0a8ac7efb6662b749c1285408048e6d&#45;&gt;dir_bdd9a5d540de89e9fe90efdfc6973a4f</title>
<path fill="none" stroke="black" d="M214.35,-215.7C220.76,-207.39 228.56,-197.28 235.61,-188.14"/>
<polygon fill="black" stroke="black" points="238.47,-190.16 241.81,-180.1 232.93,-185.88 238.47,-190.16"/>
<g id="a_edge1&#45;headlabel"><a xlink:href="dir_000206_000000.html" target="_top" xlink:title="1">
<text text-anchor="middle" x="238.52" y="-192.24" font-family="Helvetica,sans-Serif" font-size="10.00">1</text>
</a>
</g>
</g>
<!-- dir_a0a8ac7efb6662b749c1285408048e6d&#45;&gt;dir_0981ace215aa2029f526b70c145b9fbe -->
<g id="edge2" class="edge">
<title>dir_a0a8ac7efb6662b749c1285408048e6d&#45;&gt;dir_0981ace215aa2029f526b70c145b9fbe</title>
<path fill="none" stroke="black" d="M189.11,-215.74C169.42,-184.79 134.86,-118.75 163,-72 176.68,-49.27 203.75,-35.77 226.27,-28.09"/>
<polygon fill="black" stroke="black" points="227.43,-31.4 235.92,-25.05 225.33,-24.72 227.43,-31.4"/>
<g id="a_edge2&#45;headlabel"><a xlink:href="dir_000206_000011.html" target="_top" xlink:title="2">
<text text-anchor="middle" x="224.86" y="-32.69" font-family="Helvetica,sans-Serif" font-size="10.00">2</text>
</a>
</g>
</g>
<!-- dir_bdd9a5d540de89e9fe90efdfc6973a4f&#45;&gt;dir_694ec83a64f58cbdefbefce65cd1011c -->
<g id="edge13" class="edge">
<title>dir_bdd9a5d540de89e9fe90efdfc6973a4f&#45;&gt;dir_694ec83a64f58cbdefbefce65cd1011c</title>
<path fill="none" stroke="black" d="M235.24,-143.7C227.82,-135.47 219.62,-125.48 212.82,-116.42"/>
<polygon fill="black" stroke="black" points="215.49,-114.15 206.79,-108.1 209.82,-118.26 215.49,-114.15"/>
<g id="a_edge13&#45;headlabel"><a xlink:href="dir_000000_000143.html" target="_top" xlink:title="1">
<text text-anchor="middle" x="219.9" y="-112.89" font-family="Helvetica,sans-Serif" font-size="10.00">1</text>
</a>
</g>
</g>
<!-- dir_bdd9a5d540de89e9fe90efdfc6973a4f&#45;&gt;dir_0981ace215aa2029f526b70c145b9fbe -->
<g id="edge12" class="edge">
<title>dir_bdd9a5d540de89e9fe90efdfc6973a4f&#45;&gt;dir_0981ace215aa2029f526b70c145b9fbe</title>
<path fill="none" stroke="black" d="M251.38,-143.87C250.19,-119.67 252.4,-75.21 256,-46.39"/>
<polygon fill="black" stroke="black" points="259.51,-46.58 257.44,-36.19 252.57,-45.6 259.51,-46.58"/>
<g id="a_edge12&#45;headlabel"><a xlink:href="dir_000000_000011.html" target="_top" xlink:title="20">
<text text-anchor="middle" x="261.81" y="-48.04" font-family="Helvetica,sans-Serif" font-size="10.00">20</text>
</a>
</g>
</g>
<!-- dir_694ec83a64f58cbdefbefce65cd1011c&#45;&gt;dir_a0a8ac7efb6662b749c1285408048e6d -->
<g id="edge11" class="edge">
<title>dir_694ec83a64f58cbdefbefce65cd1011c&#45;&gt;dir_a0a8ac7efb6662b749c1285408048e6d</title>
<path fill="none" stroke="black" d="M199.24,-108.19C199.58,-132.42 200.21,-176.89 200.62,-205.68"/>
<polygon fill="black" stroke="black" points="197.12,-205.92 200.76,-215.87 204.12,-205.82 197.12,-205.92"/>
<g id="a_edge11&#45;headlabel"><a xlink:href="dir_000143_000206.html" target="_top" xlink:title="1">
<text text-anchor="middle" x="194.23" y="-199.87" font-family="Helvetica,sans-Serif" font-size="10.00">1</text>
</a>
</g>
</g>
<!-- dir_694ec83a64f58cbdefbefce65cd1011c&#45;&gt;dir_bdd9a5d540de89e9fe90efdfc6973a4f -->
<g id="edge9" class="edge">
<title>dir_694ec83a64f58cbdefbefce65cd1011c&#45;&gt;dir_bdd9a5d540de89e9fe90efdfc6973a4f</title>
<path fill="none" stroke="black" d="M218.58,-108.1C225.99,-116.3 234.19,-126.28 241.02,-135.36"/>
<polygon fill="black" stroke="black" points="238.36,-137.66 247.07,-143.7 244.03,-133.55 238.36,-137.66"/>
<g id="a_edge9&#45;headlabel"><a xlink:href="dir_000143_000000.html" target="_top" xlink:title="24">
<text text-anchor="middle" x="233.96" y="-133.92" font-family="Helvetica,sans-Serif" font-size="10.00">24</text>
</a>
</g>
</g>
<!-- dir_694ec83a64f58cbdefbefce65cd1011c&#45;&gt;dir_0981ace215aa2029f526b70c145b9fbe -->
<g id="edge10" class="edge">
<title>dir_694ec83a64f58cbdefbefce65cd1011c&#45;&gt;dir_0981ace215aa2029f526b70c145b9fbe</title>
<path fill="none" stroke="black" d="M214.82,-71.7C222.57,-63.22 232.04,-52.86 240.52,-43.58"/>
<polygon fill="black" stroke="black" points="243.2,-45.85 247.36,-36.1 238.03,-41.12 243.2,-45.85"/>
<g id="a_edge10&#45;headlabel"><a xlink:href="dir_000143_000011.html" target="_top" xlink:title="5">
<text text-anchor="middle" x="242.87" y="-47.92" font-family="Helvetica,sans-Serif" font-size="10.00">5</text>
</a>
</g>
</g>
<!-- dir_0981ace215aa2029f526b70c145b9fbe&#45;&gt;dir_bdd9a5d540de89e9fe90efdfc6973a4f -->
<g id="edge8" class="edge">
<title>dir_0981ace215aa2029f526b70c145b9fbe&#45;&gt;dir_bdd9a5d540de89e9fe90efdfc6973a4f</title>
<path fill="none" stroke="black" d="M266.62,-36.19C267.81,-60.42 265.59,-104.89 261.99,-133.68"/>
<polygon fill="black" stroke="black" points="258.49,-133.48 260.55,-143.87 265.42,-134.46 258.49,-133.48"/>
<g id="a_edge8&#45;headlabel"><a xlink:href="dir_000011_000000.html" target="_top" xlink:title="158">
<text text-anchor="middle" x="256.18" y="-127.02" font-family="Helvetica,sans-Serif" font-size="10.00">158</text>
</a>
</g>
</g>
</g>
</svg>
