<?xml version="1.0" encoding="UTF-8" standalone="no"?>
<!DOCTYPE svg PUBLIC "-//W3C//DTD SVG 1.1//EN"
 "http://www.w3.org/Graphics/SVG/1.1/DTD/svg11.dtd">
<!-- Generated by graphviz version 12.2.0 (20241103.1931)
 -->
<!-- Title: iop/system/modload Pages: 1 -->
<svg width="616pt" height="181pt"
 viewBox="0.00 0.00 615.88 181.00" xmlns="http://www.w3.org/2000/svg" xmlns:xlink="http://www.w3.org/1999/xlink">
<g id="graph0" class="graph" transform="scale(1 1) rotate(0) translate(4 177)">
<title>iop/system/modload</title>
<g id="clust1" class="cluster">
<title>clusterdir_40ac35421bc63b72c26b6c69b1517fd6</title>
<g id="a_clust1"><a xlink:href="dir_40ac35421bc63b72c26b6c69b1517fd6.html" target="_top" xlink:title="system">
<polygon fill="#deebf9" stroke="#7f7f7f" stroke-dasharray="5,2" points="8,-39.25 8,-165 596,-165 596,-39.25 8,-39.25"/>
<text text-anchor="middle" x="302" y="-151.5" font-family="Helvetica,sans-Serif" font-size="10.00">system</text>
</a>
</g>
</g>
<g id="clust2" class="cluster">
<title>clusterdir_87c98c5970299b04095b64caaae46c44</title>
<g id="a_clust2"><a xlink:href="dir_87c98c5970299b04095b64caaae46c44.html" target="_top">
<polygon fill="#deebf9" stroke="#404040" stroke-width="2" points="16,-47.25 16,-137.75 132,-137.75 132,-47.25 16,-47.25"/>
</a>
</g>
</g>
<!-- dir_7422a0894415a12ccd1d562a8ad09f2d -->
<g id="node1" class="node">
<title>dir_7422a0894415a12ccd1d562a8ad09f2d</title>
<g id="a_node1"><a xlink:href="dir_7422a0894415a12ccd1d562a8ad09f2d.html" target="_top" xlink:title="intrman">
<polygon fill="#60a2e3" stroke="red" points="188.12,-74.5 139.88,-74.5 139.88,-55.25 188.12,-55.25 188.12,-74.5"/>
<text text-anchor="middle" x="164" y="-61" font-family="Helvetica,sans-Serif" font-size="10.00">intrman</text>
</a>
</g>
</g>
<!-- dir_d204d0cf134f4cdf6ccf23f48ed9ae60 -->
<g id="node2" class="node">
<title>dir_d204d0cf134f4cdf6ccf23f48ed9ae60</title>
<g id="a_node2"><a xlink:href="dir_d204d0cf134f4cdf6ccf23f48ed9ae60.html" target="_top" xlink:title="ioman">
<polygon fill="#60a2e3" stroke="red" points="248.12,-74.5 205.88,-74.5 205.88,-55.25 248.12,-55.25 248.12,-74.5"/>
<text text-anchor="middle" x="227" y="-61" font-family="Helvetica,sans-Serif" font-size="10.00">ioman</text>
</a>
</g>
</g>
<!-- dir_952a988346c879bc3b2834e2377036db -->
<g id="node3" class="node">
<title>dir_952a988346c879bc3b2834e2377036db</title>
<g id="a_node3"><a xlink:href="dir_952a988346c879bc3b2834e2377036db.html" target="_top" xlink:title="stdio">
<polygon fill="#60a2e3" stroke="red" points="303.5,-74.5 266.5,-74.5 266.5,-55.25 303.5,-55.25 303.5,-74.5"/>
<text text-anchor="middle" x="285" y="-61" font-family="Helvetica,sans-Serif" font-size="10.00">stdio</text>
</a>
</g>
</g>
<!-- dir_1bd32d4ef826aeeda00870843eb45c97 -->
<g id="node4" class="node">
<title>dir_1bd32d4ef826aeeda00870843eb45c97</title>
<g id="a_node4"><a xlink:href="dir_1bd32d4ef826aeeda00870843eb45c97.html" target="_top" xlink:title="sysclib">
<polygon fill="#60a2e3" stroke="red" points="368,-74.5 322,-74.5 322,-55.25 368,-55.25 368,-74.5"/>
<text text-anchor="middle" x="345" y="-61" font-family="Helvetica,sans-Serif" font-size="10.00">sysclib</text>
</a>
</g>
</g>
<!-- dir_44719da65bb992f08c8ee8632a1136c7 -->
<g id="node5" class="node">
<title>dir_44719da65bb992f08c8ee8632a1136c7</title>
<g id="a_node5"><a xlink:href="dir_44719da65bb992f08c8ee8632a1136c7.html" target="_top" xlink:title="sysmem">
<polygon fill="#60a2e3" stroke="red" points="438.38,-74.5 385.62,-74.5 385.62,-55.25 438.38,-55.25 438.38,-74.5"/>
<text text-anchor="middle" x="412" y="-61" font-family="Helvetica,sans-Serif" font-size="10.00">sysmem</text>
</a>
</g>
</g>
<!-- dir_d3b40e87d731c1e886b7a70e6daaf700 -->
<g id="node6" class="node">
<title>dir_d3b40e87d731c1e886b7a70e6daaf700</title>
<g id="a_node6"><a xlink:href="dir_d3b40e87d731c1e886b7a70e6daaf700.html" target="_top" xlink:title="threadman">
<polygon fill="#60a2e3" stroke="red" points="517.88,-74.5 456.12,-74.5 456.12,-55.25 517.88,-55.25 517.88,-74.5"/>
<text text-anchor="middle" x="487" y="-61" font-family="Helvetica,sans-Serif" font-size="10.00">threadman</text>
</a>
</g>
</g>
<!-- dir_1d64e5e9f20206636d72b5bbe3d2b274 -->
<g id="node7" class="node">
<title>dir_1d64e5e9f20206636d72b5bbe3d2b274</title>
<g id="a_node7"><a xlink:href="dir_1d64e5e9f20206636d72b5bbe3d2b274.html" target="_top" xlink:title="loadcore">
<polygon fill="#60a2e3" stroke="red" points="588.38,-74.5 535.62,-74.5 535.62,-55.25 588.38,-55.25 588.38,-74.5"/>
<text text-anchor="middle" x="562" y="-61" font-family="Helvetica,sans-Serif" font-size="10.00">loadcore</text>
</a>
</g>
</g>
<!-- dir_87c98c5970299b04095b64caaae46c44 -->
<g id="node8" class="node">
<title>dir_87c98c5970299b04095b64caaae46c44</title>
<text text-anchor="middle" x="50" y="-116.25" font-family="Helvetica,sans-Serif" font-size="10.00">modload</text>
</g>
<!-- dir_955b1a9953d8165e5418b61b127de031 -->
<g id="node9" class="node">
<title>dir_955b1a9953d8165e5418b61b127de031</title>
<g id="a_node9"><a xlink:href="dir_955b1a9953d8165e5418b61b127de031.html" target="_top" xlink:title="include">
<polygon fill="#60a2e3" stroke="#404040" points="121.38,-74.5 74.62,-74.5 74.62,-55.25 121.38,-55.25 121.38,-74.5"/>
<text text-anchor="middle" x="98" y="-61" font-family="Helvetica,sans-Serif" font-size="10.00">include</text>
</a>
</g>
</g>
<!-- dir_9be0baa3d4a3e9f480a9ee70594037fa -->
<g id="node11" class="node">
<title>dir_9be0baa3d4a3e9f480a9ee70594037fa</title>
<g id="a_node11"><a xlink:href="dir_9be0baa3d4a3e9f480a9ee70594037fa.html" target="_top" xlink:title="kernel">
<polygon fill="#deebf9" stroke="red" stroke-dasharray="5,2" points="378.12,-19.25 335.88,-19.25 335.88,0 378.12,0 378.12,-19.25"/>
<text text-anchor="middle" x="357" y="-5.75" font-family="Helvetica,sans-Serif" font-size="10.00">kernel</text>
</a>
</g>
</g>
<!-- dir_955b1a9953d8165e5418b61b127de031&#45;&gt;dir_9be0baa3d4a3e9f480a9ee70594037fa -->
<g id="edge1" class="edge">
<title>dir_955b1a9953d8165e5418b61b127de031&#45;&gt;dir_9be0baa3d4a3e9f480a9ee70594037fa</title>
<g id="a_edge1"><a xlink:href="dir_000216_000256.html" target="_top">
<path fill="none" stroke="#63b8ff" d="M105.07,-55.09C110.03,-49.58 117.16,-42.86 125,-39.25 159.78,-23.25 269.29,-15.29 324.5,-12.2"/>
<polygon fill="#63b8ff" stroke="#63b8ff" points="324.42,-15.71 334.22,-11.68 324.04,-8.72 324.42,-15.71"/>
</a>
</g>
<g id="a_edge1&#45;headlabel"><a xlink:href="dir_000216_000256.html" target="_top" xlink:title="1">
<text text-anchor="middle" x="322.49" y="-14.79" font-family="Helvetica,sans-Serif" font-size="10.00" fill="#63b8ff">1</text>
</a>
</g>
</g>
<!-- dir_49702882664caafb69d7373eb6fcc470 -->
<g id="node10" class="node">
<title>dir_49702882664caafb69d7373eb6fcc470</title>
<g id="a_node10"><a xlink:href="dir_49702882664caafb69d7373eb6fcc470.html" target="_top" xlink:title="src">
<polygon fill="#60a2e3" stroke="#404040" points="123.75,-129.75 94.25,-129.75 94.25,-110.5 123.75,-110.5 123.75,-129.75"/>
<text text-anchor="middle" x="109" y="-116.25" font-family="Helvetica,sans-Serif" font-size="10.00">src</text>
</a>
</g>
</g>
<!-- dir_49702882664caafb69d7373eb6fcc470&#45;&gt;dir_7422a0894415a12ccd1d562a8ad09f2d -->
<g id="edge5" class="edge">
<title>dir_49702882664caafb69d7373eb6fcc470&#45;&gt;dir_7422a0894415a12ccd1d562a8ad09f2d</title>
<g id="a_edge5"><a xlink:href="dir_000519_000246.html" target="_top">
<path fill="none" stroke="#63b8ff" d="M118.08,-110.33C125.84,-102.82 137.21,-91.81 146.7,-82.63"/>
<polygon fill="#63b8ff" stroke="#63b8ff" points="148.88,-85.38 153.63,-75.91 144.01,-80.35 148.88,-85.38"/>
</a>
</g>
<g id="a_edge5&#45;headlabel"><a xlink:href="dir_000519_000246.html" target="_top" xlink:title="1">
<text text-anchor="middle" x="149.36" y="-84.99" font-family="Helvetica,sans-Serif" font-size="10.00" fill="#63b8ff">1</text>
</a>
</g>
</g>
<!-- dir_49702882664caafb69d7373eb6fcc470&#45;&gt;dir_d204d0cf134f4cdf6ccf23f48ed9ae60 -->
<g id="edge9" class="edge">
<title>dir_49702882664caafb69d7373eb6fcc470&#45;&gt;dir_d204d0cf134f4cdf6ccf23f48ed9ae60</title>
<g id="a_edge9"><a xlink:href="dir_000519_000247.html" target="_top">
<path fill="none" stroke="#63b8ff" d="M123.94,-112.38C142.15,-104.17 173.35,-90.09 196.66,-79.57"/>
<polygon fill="#63b8ff" stroke="#63b8ff" points="198.01,-82.8 205.68,-75.49 195.13,-76.42 198.01,-82.8"/>
</a>
</g>
<g id="a_edge9&#45;headlabel"><a xlink:href="dir_000519_000247.html" target="_top" xlink:title="1">
<text text-anchor="middle" x="197.28" y="-82.37" font-family="Helvetica,sans-Serif" font-size="10.00" fill="#63b8ff">1</text>
</a>
</g>
</g>
<!-- dir_49702882664caafb69d7373eb6fcc470&#45;&gt;dir_952a988346c879bc3b2834e2377036db -->
<g id="edge6" class="edge">
<title>dir_49702882664caafb69d7373eb6fcc470&#45;&gt;dir_952a988346c879bc3b2834e2377036db</title>
<g id="a_edge6"><a xlink:href="dir_000519_000562.html" target="_top">
<path fill="none" stroke="#63b8ff" d="M124.14,-114.59C149.26,-107.07 201.41,-91.41 255.24,-75.02"/>
<polygon fill="#63b8ff" stroke="#63b8ff" points="256.03,-78.44 264.58,-72.18 253.99,-71.74 256.03,-78.44"/>
</a>
</g>
<g id="a_edge6&#45;headlabel"><a xlink:href="dir_000519_000562.html" target="_top" xlink:title="1">
<text text-anchor="middle" x="254.87" y="-77.89" font-family="Helvetica,sans-Serif" font-size="10.00" fill="#63b8ff">1</text>
</a>
</g>
</g>
<!-- dir_49702882664caafb69d7373eb6fcc470&#45;&gt;dir_1bd32d4ef826aeeda00870843eb45c97 -->
<g id="edge2" class="edge">
<title>dir_49702882664caafb69d7373eb6fcc470&#45;&gt;dir_1bd32d4ef826aeeda00870843eb45c97</title>
<g id="a_edge2"><a xlink:href="dir_000519_000569.html" target="_top">
<path fill="none" stroke="#63b8ff" d="M124.16,-116.07C156.5,-109.49 234.91,-93.26 310.49,-75.02"/>
<polygon fill="#63b8ff" stroke="#63b8ff" points="311.25,-78.44 320.14,-72.67 309.6,-71.64 311.25,-78.44"/>
</a>
</g>
<g id="a_edge2&#45;headlabel"><a xlink:href="dir_000519_000569.html" target="_top" xlink:title="1">
<text text-anchor="middle" x="309.9" y="-77.81" font-family="Helvetica,sans-Serif" font-size="10.00" fill="#63b8ff">1</text>
</a>
</g>
</g>
<!-- dir_49702882664caafb69d7373eb6fcc470&#45;&gt;dir_44719da65bb992f08c8ee8632a1136c7 -->
<g id="edge4" class="edge">
<title>dir_49702882664caafb69d7373eb6fcc470&#45;&gt;dir_44719da65bb992f08c8ee8632a1136c7</title>
<g id="a_edge4"><a xlink:href="dir_000519_000570.html" target="_top">
<path fill="none" stroke="#63b8ff" d="M124.19,-117.01C163.73,-111.43 273.29,-95.4 374.29,-74.93"/>
<polygon fill="#63b8ff" stroke="#63b8ff" points="374.72,-78.42 383.81,-72.98 373.31,-71.56 374.72,-78.42"/>
</a>
</g>
<g id="a_edge4&#45;headlabel"><a xlink:href="dir_000519_000570.html" target="_top" xlink:title="1">
<text text-anchor="middle" x="373.25" y="-77.74" font-family="Helvetica,sans-Serif" font-size="10.00" fill="#63b8ff">1</text>
</a>
</g>
</g>
<!-- dir_49702882664caafb69d7373eb6fcc470&#45;&gt;dir_d3b40e87d731c1e886b7a70e6daaf700 -->
<g id="edge10" class="edge">
<title>dir_49702882664caafb69d7373eb6fcc470&#45;&gt;dir_d3b40e87d731c1e886b7a70e6daaf700</title>
<g id="a_edge10"><a xlink:href="dir_000519_000580.html" target="_top">
<path fill="none" stroke="#63b8ff" d="M124.23,-117.56C170.64,-112.7 314.6,-96.93 444.7,-74.76"/>
<polygon fill="#63b8ff" stroke="#63b8ff" points="445.29,-78.22 454.55,-73.07 444.1,-71.32 445.29,-78.22"/>
</a>
</g>
<g id="a_edge10&#45;headlabel"><a xlink:href="dir_000519_000580.html" target="_top" xlink:title="3">
<text text-anchor="middle" x="443.72" y="-77.49" font-family="Helvetica,sans-Serif" font-size="10.00" fill="#63b8ff">3</text>
</a>
</g>
</g>
<!-- dir_49702882664caafb69d7373eb6fcc470&#45;&gt;dir_1d64e5e9f20206636d72b5bbe3d2b274 -->
<g id="edge3" class="edge">
<title>dir_49702882664caafb69d7373eb6fcc470&#45;&gt;dir_1d64e5e9f20206636d72b5bbe3d2b274</title>
<g id="a_edge3"><a xlink:href="dir_000519_000272.html" target="_top">
<path fill="none" stroke="#63b8ff" d="M123.91,-118.27C177.03,-115.05 362.09,-102.56 524.19,-74.78"/>
<polygon fill="#63b8ff" stroke="#63b8ff" points="524.58,-78.27 533.83,-73.1 523.38,-71.37 524.58,-78.27"/>
</a>
</g>
<g id="a_edge3&#45;headlabel"><a xlink:href="dir_000519_000272.html" target="_top" xlink:title="1">
<text text-anchor="middle" x="523.02" y="-77.54" font-family="Helvetica,sans-Serif" font-size="10.00" fill="#63b8ff">1</text>
</a>
</g>
</g>
<!-- dir_49702882664caafb69d7373eb6fcc470&#45;&gt;dir_955b1a9953d8165e5418b61b127de031 -->
<g id="edge7" class="edge">
<title>dir_49702882664caafb69d7373eb6fcc470&#45;&gt;dir_955b1a9953d8165e5418b61b127de031</title>
<g id="a_edge7"><a xlink:href="dir_000519_000216.html" target="_top">
<path fill="none" stroke="#63b8ff" d="M107.18,-110.33C105.82,-103.74 103.9,-94.46 102.17,-86.07"/>
<polygon fill="#63b8ff" stroke="#63b8ff" points="105.61,-85.43 100.16,-76.34 98.76,-86.84 105.61,-85.43"/>
</a>
</g>
<g id="a_edge7&#45;headlabel"><a xlink:href="dir_000519_000216.html" target="_top" xlink:title="2">
<text text-anchor="middle" x="108.81" y="-83.02" font-family="Helvetica,sans-Serif" font-size="10.00" fill="#63b8ff">2</text>
</a>
</g>
</g>
<!-- dir_49702882664caafb69d7373eb6fcc470&#45;&gt;dir_9be0baa3d4a3e9f480a9ee70594037fa -->
<g id="edge8" class="edge">
<title>dir_49702882664caafb69d7373eb6fcc470&#45;&gt;dir_9be0baa3d4a3e9f480a9ee70594037fa</title>
<g id="a_edge8"><a xlink:href="dir_000519_000256.html" target="_top">
<path fill="none" stroke="#63b8ff" d="M124.16,-118.93C203.34,-117.78 567.1,-110.53 600,-74.5 610.56,-62.93 610.41,-50.96 600,-39.25 586.24,-23.78 452.54,-15.27 389.53,-12.09"/>
<polygon fill="#63b8ff" stroke="#63b8ff" points="389.95,-8.61 379.8,-11.62 389.61,-15.6 389.95,-8.61"/>
</a>
</g>
<g id="a_edge8&#45;headlabel"><a xlink:href="dir_000519_000256.html" target="_top" xlink:title="2">
<text text-anchor="middle" x="392.17" y="-2" font-family="Helvetica,sans-Serif" font-size="10.00" fill="#63b8ff">2</text>
</a>
</g>
</g>
</g>
</svg>
