<?xml version="1.0" encoding="UTF-8" standalone="no"?>
<!DOCTYPE svg PUBLIC "-//W3C//DTD SVG 1.1//EN"
 "http://www.w3.org/Graphics/SVG/1.1/DTD/svg11.dtd">
<!-- Generated by graphviz version 2.43.0 (0)
 -->
<!-- Title: ee/rpc/cdvd/src Pages: 1 -->
<svg width="210pt" height="439pt"
 viewBox="0.00 0.00 209.50 439.00" xmlns="http://www.w3.org/2000/svg" xmlns:xlink="http://www.w3.org/1999/xlink">
<g id="graph0" class="graph" transform="scale(1 1) rotate(0) translate(4 435)">
<title>ee/rpc/cdvd/src</title>
<polygon fill="white" stroke="transparent" points="-4,4 -4,-435 205.5,-435 205.5,4 -4,4"/>
<g id="clust1" class="cluster">
<title>clusterdir_ba4b21ee1217591b79746c791fe162fc</title>
<g id="a_clust1"><a xlink:href="dir_ba4b21ee1217591b79746c791fe162fc.html" target="_top" xlink:title="cdvd">
<polygon fill="#ddddee" stroke="black" points="41,-352 41,-423 111,-423 111,-352 41,-352"/>
<text text-anchor="middle" x="76" y="-411" font-family="Helvetica,sans-Serif" font-size="10.00">cdvd</text>
</a>
</g>
</g>
<!-- dir_48185d4162af4b76c95e522da1e1d975 -->
<g id="node1" class="node">
<title>dir_48185d4162af4b76c95e522da1e1d975</title>
<g id="a_node1"><a xlink:href="dir_48185d4162af4b76c95e522da1e1d975.html" target="_top" xlink:title="src">
<polygon fill="#eeeeff" stroke="black" points="103,-396 49,-396 49,-360 103,-360 103,-396"/>
<text text-anchor="middle" x="76" y="-375.5" font-family="Helvetica,sans-Serif" font-size="10.00">src</text>
</a>
</g>
</g>
<!-- dir_a0a8ac7efb6662b749c1285408048e6d -->
<g id="node2" class="node">
<title>dir_a0a8ac7efb6662b749c1285408048e6d</title>
<g id="a_node2"><a xlink:href="dir_a0a8ac7efb6662b749c1285408048e6d.html" target="_top" xlink:title="erl">
<polygon fill="white" stroke="red" points="158,-324 104,-324 104,-288 158,-288 158,-324"/>
<text text-anchor="middle" x="131" y="-303.5" font-family="Helvetica,sans-Serif" font-size="10.00">erl</text>
</a>
</g>
</g>
<!-- dir_48185d4162af4b76c95e522da1e1d975&#45;&gt;dir_a0a8ac7efb6662b749c1285408048e6d -->
<g id="edge9" class="edge">
<title>dir_48185d4162af4b76c95e522da1e1d975&#45;&gt;dir_a0a8ac7efb6662b749c1285408048e6d</title>
<path fill="none" stroke="black" d="M89.6,-359.7C96.12,-351.39 104.07,-341.28 111.25,-332.14"/>
<polygon fill="black" stroke="black" points="114.13,-334.13 117.56,-324.1 108.63,-329.81 114.13,-334.13"/>
<g id="a_edge9&#45;headlabel"><a xlink:href="dir_000348_000397.html" target="_top" xlink:title="1">
<text text-anchor="middle" x="114.15" y="-336.21" font-family="Helvetica,sans-Serif" font-size="10.00">1</text>
</a>
</g>
</g>
<!-- dir_aac407a7a5679478d0631d0d52d3c8a2 -->
<g id="node3" class="node">
<title>dir_aac407a7a5679478d0631d0d52d3c8a2</title>
<g id="a_node3"><a xlink:href="dir_aac407a7a5679478d0631d0d52d3c8a2.html" target="_top" xlink:title="include">
<polygon fill="none" stroke="black" points="141,-36 87,-36 87,0 141,0 141,-36"/>
<text text-anchor="middle" x="114" y="-15.5" font-family="Helvetica,sans-Serif" font-size="10.00">include</text>
</a>
</g>
</g>
<!-- dir_48185d4162af4b76c95e522da1e1d975&#45;&gt;dir_aac407a7a5679478d0631d0d52d3c8a2 -->
<g id="edge10" class="edge">
<title>dir_48185d4162af4b76c95e522da1e1d975&#45;&gt;dir_aac407a7a5679478d0631d0d52d3c8a2</title>
<path fill="none" stroke="black" d="M59.51,-359.77C37.16,-334.53 0,-285.05 0,-235 0,-235 0,-235 0,-161 0,-110 45.27,-66.88 78.76,-41.97"/>
<polygon fill="black" stroke="black" points="80.92,-44.73 86.98,-36.04 76.83,-39.05 80.92,-44.73"/>
<g id="a_edge10&#45;headlabel"><a xlink:href="dir_000348_000446.html" target="_top" xlink:title="3">
<text text-anchor="middle" x="79.67" y="-46.63" font-family="Helvetica,sans-Serif" font-size="10.00">3</text>
</a>
</g>
</g>
<!-- dir_0981ace215aa2029f526b70c145b9fbe -->
<g id="node4" class="node">
<title>dir_0981ace215aa2029f526b70c145b9fbe</title>
<g id="a_node4"><a xlink:href="dir_0981ace215aa2029f526b70c145b9fbe.html" target="_top" xlink:title="iop">
<polygon fill="white" stroke="red" points="158,-252 104,-252 104,-216 158,-216 158,-252"/>
<text text-anchor="middle" x="131" y="-231.5" font-family="Helvetica,sans-Serif" font-size="10.00">iop</text>
</a>
</g>
</g>
<!-- dir_48185d4162af4b76c95e522da1e1d975&#45;&gt;dir_0981ace215aa2029f526b70c145b9fbe -->
<g id="edge11" class="edge">
<title>dir_48185d4162af4b76c95e522da1e1d975&#45;&gt;dir_0981ace215aa2029f526b70c145b9fbe</title>
<path fill="none" stroke="black" d="M77.7,-359.67C79.95,-341.29 84.89,-311.69 95,-288 99.08,-278.43 104.99,-268.78 110.84,-260.39"/>
<polygon fill="black" stroke="black" points="113.78,-262.29 116.84,-252.15 108.12,-258.17 113.78,-262.29"/>
<g id="a_edge11&#45;headlabel"><a xlink:href="dir_000348_000011.html" target="_top" xlink:title="4">
<text text-anchor="middle" x="113.96" y="-264.37" font-family="Helvetica,sans-Serif" font-size="10.00">4</text>
</a>
</g>
</g>
<!-- dir_694ec83a64f58cbdefbefce65cd1011c -->
<g id="node5" class="node">
<title>dir_694ec83a64f58cbdefbefce65cd1011c</title>
<g id="a_node5"><a xlink:href="dir_694ec83a64f58cbdefbefce65cd1011c.html" target="_top" xlink:title="kernel">
<polygon fill="white" stroke="red" points="141,-108 87,-108 87,-72 141,-72 141,-108"/>
<text text-anchor="middle" x="114" y="-87.5" font-family="Helvetica,sans-Serif" font-size="10.00">kernel</text>
</a>
</g>
</g>
<!-- dir_48185d4162af4b76c95e522da1e1d975&#45;&gt;dir_694ec83a64f58cbdefbefce65cd1011c -->
<g id="edge12" class="edge">
<title>dir_48185d4162af4b76c95e522da1e1d975&#45;&gt;dir_694ec83a64f58cbdefbefce65cd1011c</title>
<path fill="none" stroke="black" d="M74.39,-359.96C71.21,-320.95 66.14,-222.47 87,-144 89.43,-134.86 93.57,-125.48 97.9,-117.2"/>
<polygon fill="black" stroke="black" points="100.99,-118.84 102.77,-108.39 94.87,-115.45 100.99,-118.84"/>
<g id="a_edge12&#45;headlabel"><a xlink:href="dir_000348_000321.html" target="_top" xlink:title="4">
<text text-anchor="middle" x="101.74" y="-120.86" font-family="Helvetica,sans-Serif" font-size="10.00">4</text>
</a>
</g>
</g>
<!-- dir_bdd9a5d540de89e9fe90efdfc6973a4f -->
<g id="node6" class="node">
<title>dir_bdd9a5d540de89e9fe90efdfc6973a4f</title>
<g id="a_node6"><a xlink:href="dir_bdd9a5d540de89e9fe90efdfc6973a4f.html" target="_top" xlink:title="common">
<polygon fill="white" stroke="red" points="201.5,-180 142.5,-180 142.5,-144 201.5,-144 201.5,-180"/>
<text text-anchor="middle" x="172" y="-159.5" font-family="Helvetica,sans-Serif" font-size="10.00">common</text>
</a>
</g>
</g>
<!-- dir_48185d4162af4b76c95e522da1e1d975&#45;&gt;dir_bdd9a5d540de89e9fe90efdfc6973a4f -->
<g id="edge13" class="edge">
<title>dir_48185d4162af4b76c95e522da1e1d975&#45;&gt;dir_bdd9a5d540de89e9fe90efdfc6973a4f</title>
<path fill="none" stroke="black" d="M103.16,-367.93C123.75,-359.67 151.11,-345.45 167,-324 195.97,-284.9 187.87,-224.58 179.71,-189.94"/>
<polygon fill="black" stroke="black" points="183.05,-188.91 177.21,-180.07 176.27,-190.62 183.05,-188.91"/>
<g id="a_edge13&#45;headlabel"><a xlink:href="dir_000348_000000.html" target="_top" xlink:title="3">
<text text-anchor="middle" x="186.69" y="-189.2" font-family="Helvetica,sans-Serif" font-size="10.00">3</text>
</a>
</g>
</g>
<!-- dir_a0a8ac7efb6662b749c1285408048e6d&#45;&gt;dir_0981ace215aa2029f526b70c145b9fbe -->
<g id="edge1" class="edge">
<title>dir_a0a8ac7efb6662b749c1285408048e6d&#45;&gt;dir_0981ace215aa2029f526b70c145b9fbe</title>
<path fill="none" stroke="black" d="M131,-287.7C131,-279.98 131,-270.71 131,-262.11"/>
<polygon fill="black" stroke="black" points="134.5,-262.1 131,-252.1 127.5,-262.1 134.5,-262.1"/>
<g id="a_edge1&#45;headlabel"><a xlink:href="dir_000397_000011.html" target="_top" xlink:title="4">
<text text-anchor="middle" x="137.34" y="-263.2" font-family="Helvetica,sans-Serif" font-size="10.00">4</text>
</a>
</g>
</g>
<!-- dir_a0a8ac7efb6662b749c1285408048e6d&#45;&gt;dir_bdd9a5d540de89e9fe90efdfc6973a4f -->
<g id="edge2" class="edge">
<title>dir_a0a8ac7efb6662b749c1285408048e6d&#45;&gt;dir_bdd9a5d540de89e9fe90efdfc6973a4f</title>
<path fill="none" stroke="black" d="M146.32,-287.68C153.99,-277.91 162.58,-265.06 167,-252 173.73,-232.12 174.73,-208.32 174.19,-190.34"/>
<polygon fill="black" stroke="black" points="177.68,-190.06 173.7,-180.24 170.69,-190.4 177.68,-190.06"/>
<g id="a_edge2&#45;headlabel"><a xlink:href="dir_000397_000000.html" target="_top" xlink:title="1">
<text text-anchor="middle" x="180.69" y="-191.02" font-family="Helvetica,sans-Serif" font-size="10.00">1</text>
</a>
</g>
</g>
<!-- dir_aac407a7a5679478d0631d0d52d3c8a2&#45;&gt;dir_bdd9a5d540de89e9fe90efdfc6973a4f -->
<g id="edge3" class="edge">
<title>dir_aac407a7a5679478d0631d0d52d3c8a2&#45;&gt;dir_bdd9a5d540de89e9fe90efdfc6973a4f</title>
<path fill="none" stroke="black" d="M128.01,-36.22C135.48,-46.16 144.29,-59.2 150,-72 158.83,-91.81 164.5,-115.74 167.86,-133.8"/>
<polygon fill="black" stroke="black" points="164.42,-134.43 169.58,-143.68 171.31,-133.23 164.42,-134.43"/>
<g id="a_edge3&#45;headlabel"><a xlink:href="dir_000446_000000.html" target="_top" xlink:title="1">
<text text-anchor="middle" x="161" y="-128.87" font-family="Helvetica,sans-Serif" font-size="10.00">1</text>
</a>
</g>
</g>
<!-- dir_0981ace215aa2029f526b70c145b9fbe&#45;&gt;dir_bdd9a5d540de89e9fe90efdfc6973a4f -->
<g id="edge4" class="edge">
<title>dir_0981ace215aa2029f526b70c145b9fbe&#45;&gt;dir_bdd9a5d540de89e9fe90efdfc6973a4f</title>
<path fill="none" stroke="black" d="M135.22,-215.7C139.15,-207.56 144.72,-197.69 150.41,-188.7"/>
<polygon fill="black" stroke="black" points="153.5,-190.38 156.09,-180.1 147.66,-186.52 153.5,-190.38"/>
<g id="a_edge4&#45;headlabel"><a xlink:href="dir_000011_000000.html" target="_top" xlink:title="255">
<text text-anchor="middle" x="153.89" y="-192.44" font-family="Helvetica,sans-Serif" font-size="10.00">255</text>
</a>
</g>
</g>
<!-- dir_694ec83a64f58cbdefbefce65cd1011c&#45;&gt;dir_a0a8ac7efb6662b749c1285408048e6d -->
<g id="edge5" class="edge">
<title>dir_694ec83a64f58cbdefbefce65cd1011c&#45;&gt;dir_a0a8ac7efb6662b749c1285408048e6d</title>
<path fill="none" stroke="black" d="M107.4,-108.34C96.98,-138.3 79.45,-201.42 95,-252 98.01,-261.78 103.51,-271.38 109.32,-279.67"/>
<polygon fill="black" stroke="black" points="106.59,-281.87 115.39,-287.77 112.19,-277.67 106.59,-281.87"/>
<g id="a_edge5&#45;headlabel"><a xlink:href="dir_000321_000397.html" target="_top" xlink:title="1">
<text text-anchor="middle" x="102.17" y="-278.2" font-family="Helvetica,sans-Serif" font-size="10.00">1</text>
</a>
</g>
</g>
<!-- dir_694ec83a64f58cbdefbefce65cd1011c&#45;&gt;dir_aac407a7a5679478d0631d0d52d3c8a2 -->
<g id="edge6" class="edge">
<title>dir_694ec83a64f58cbdefbefce65cd1011c&#45;&gt;dir_aac407a7a5679478d0631d0d52d3c8a2</title>
<path fill="none" stroke="black" d="M114,-71.7C114,-63.98 114,-54.71 114,-46.11"/>
<polygon fill="black" stroke="black" points="117.5,-46.1 114,-36.1 110.5,-46.1 117.5,-46.1"/>
<g id="a_edge6&#45;headlabel"><a xlink:href="dir_000321_000446.html" target="_top" xlink:title="1">
<text text-anchor="middle" x="120.34" y="-47.2" font-family="Helvetica,sans-Serif" font-size="10.00">1</text>
</a>
</g>
</g>
<!-- dir_694ec83a64f58cbdefbefce65cd1011c&#45;&gt;dir_0981ace215aa2029f526b70c145b9fbe -->
<g id="edge7" class="edge">
<title>dir_694ec83a64f58cbdefbefce65cd1011c&#45;&gt;dir_0981ace215aa2029f526b70c145b9fbe</title>
<path fill="none" stroke="black" d="M116.06,-108.19C118.96,-132.42 124.28,-176.89 127.73,-205.68"/>
<polygon fill="black" stroke="black" points="124.29,-206.36 128.95,-215.87 131.24,-205.53 124.29,-206.36"/>
<g id="a_edge7&#45;headlabel"><a xlink:href="dir_000321_000011.html" target="_top" xlink:title="5">
<text text-anchor="middle" x="121.04" y="-200.63" font-family="Helvetica,sans-Serif" font-size="10.00">5</text>
</a>
</g>
</g>
<!-- dir_694ec83a64f58cbdefbefce65cd1011c&#45;&gt;dir_bdd9a5d540de89e9fe90efdfc6973a4f -->
<g id="edge8" class="edge">
<title>dir_694ec83a64f58cbdefbefce65cd1011c&#45;&gt;dir_bdd9a5d540de89e9fe90efdfc6973a4f</title>
<path fill="none" stroke="black" d="M134.07,-108.1C141.79,-116.38 150.37,-126.49 157.5,-135.64"/>
<polygon fill="black" stroke="black" points="154.76,-137.82 163.58,-143.7 160.35,-133.6 154.76,-137.82"/>
<g id="a_edge8&#45;headlabel"><a xlink:href="dir_000321_000000.html" target="_top" xlink:title="35">
<text text-anchor="middle" x="150.33" y="-134.16" font-family="Helvetica,sans-Serif" font-size="10.00">35</text>
</a>
</g>
</g>
<!-- dir_bdd9a5d540de89e9fe90efdfc6973a4f&#45;&gt;dir_0981ace215aa2029f526b70c145b9fbe -->
<g id="edge14" class="edge">
<title>dir_bdd9a5d540de89e9fe90efdfc6973a4f&#45;&gt;dir_0981ace215aa2029f526b70c145b9fbe</title>
<path fill="none" stroke="black" d="M167.88,-180.1C163.98,-188.21 158.42,-198.08 152.73,-207.08"/>
<polygon fill="black" stroke="black" points="149.63,-205.42 147.05,-215.7 155.47,-209.27 149.63,-205.42"/>
<g id="a_edge14&#45;headlabel"><a xlink:href="dir_000000_000011.html" target="_top" xlink:title="20">
<text text-anchor="middle" x="149.23" y="-198.36" font-family="Helvetica,sans-Serif" font-size="10.00">20</text>
</a>
</g>
</g>
<!-- dir_bdd9a5d540de89e9fe90efdfc6973a4f&#45;&gt;dir_694ec83a64f58cbdefbefce65cd1011c -->
<g id="edge15" class="edge">
<title>dir_bdd9a5d540de89e9fe90efdfc6973a4f&#45;&gt;dir_694ec83a64f58cbdefbefce65cd1011c</title>
<path fill="none" stroke="black" d="M151.75,-143.7C144.01,-135.39 135.43,-125.28 128.32,-116.14"/>
<polygon fill="black" stroke="black" points="131.09,-113.99 122.28,-108.1 125.49,-118.2 131.09,-113.99"/>
<g id="a_edge15&#45;headlabel"><a xlink:href="dir_000000_000321.html" target="_top" xlink:title="1">
<text text-anchor="middle" x="135.52" y="-112.66" font-family="Helvetica,sans-Serif" font-size="10.00">1</text>
</a>
</g>
</g>
</g>
</svg>
