<?xml version="1.0" encoding="UTF-8" standalone="no"?>
<!DOCTYPE svg PUBLIC "-//W3C//DTD SVG 1.1//EN"
 "http://www.w3.org/Graphics/SVG/1.1/DTD/svg11.dtd">
<!-- Generated by graphviz version 2.43.0 (0)
 -->
<!-- Title: iop/system/rmman Pages: 1 -->
<svg width="656pt" height="519pt"
 viewBox="0.00 0.00 656.00 519.00" xmlns="http://www.w3.org/2000/svg" xmlns:xlink="http://www.w3.org/1999/xlink">
<g id="graph0" class="graph" transform="scale(1 1) rotate(0) translate(4 515)">
<title>iop/system/rmman</title>
<polygon fill="white" stroke="transparent" points="-4,4 -4,-515 652,-515 652,4 -4,4"/>
<g id="clust1" class="cluster">
<title>clusterdir_40ac35421bc63b72c26b6c69b1517fd6</title>
<g id="a_clust1"><a xlink:href="dir_40ac35421bc63b72c26b6c69b1517fd6.html" target="_top" xlink:title="system">
<polygon fill="#ddddee" stroke="black" points="235,-344 235,-503 393,-503 393,-344 235,-344"/>
<text text-anchor="middle" x="314" y="-491" font-family="Helvetica,sans-Serif" font-size="10.00">system</text>
</a>
</g>
</g>
<g id="clust2" class="cluster">
<title>clusterdir_fe7329d8b89241d59f89f45fd75d2e77</title>
<g id="a_clust2"><a xlink:href="dir_fe7329d8b89241d59f89f45fd75d2e77.html" target="_top">
<polygon fill="#eeeeff" stroke="black" points="243,-352 243,-476 385,-476 385,-352 243,-352"/>
</a>
</g>
</g>
<!-- dir_fe7329d8b89241d59f89f45fd75d2e77 -->
<g id="node1" class="node">
<title>dir_fe7329d8b89241d59f89f45fd75d2e77</title>
<text text-anchor="middle" x="350" y="-447.5" font-family="Helvetica,sans-Serif" font-size="10.00">rmman</text>
</g>
<!-- dir_ba0bf5790b75dbb76cd621ad13634675 -->
<g id="node2" class="node">
<title>dir_ba0bf5790b75dbb76cd621ad13634675</title>
<g id="a_node2"><a xlink:href="dir_ba0bf5790b75dbb76cd621ad13634675.html" target="_top" xlink:title="include">
<polygon fill="white" stroke="black" points="360,-396 306,-396 306,-360 360,-360 360,-396"/>
<text text-anchor="middle" x="333" y="-375.5" font-family="Helvetica,sans-Serif" font-size="10.00">include</text>
</a>
</g>
</g>
<!-- dir_9be0baa3d4a3e9f480a9ee70594037fa -->
<g id="node4" class="node">
<title>dir_9be0baa3d4a3e9f480a9ee70594037fa</title>
<g id="a_node4"><a xlink:href="dir_9be0baa3d4a3e9f480a9ee70594037fa.html" target="_top" xlink:title="kernel">
<polygon fill="white" stroke="red" points="352,-324 298,-324 298,-288 352,-288 352,-324"/>
<text text-anchor="middle" x="325" y="-303.5" font-family="Helvetica,sans-Serif" font-size="10.00">kernel</text>
</a>
</g>
</g>
<!-- dir_ba0bf5790b75dbb76cd621ad13634675&#45;&gt;dir_9be0baa3d4a3e9f480a9ee70594037fa -->
<g id="edge30" class="edge">
<title>dir_ba0bf5790b75dbb76cd621ad13634675&#45;&gt;dir_9be0baa3d4a3e9f480a9ee70594037fa</title>
<path fill="none" stroke="black" d="M331.02,-359.7C330.14,-351.98 329.08,-342.71 328.1,-334.11"/>
<polygon fill="black" stroke="black" points="331.57,-333.64 326.95,-324.1 324.61,-334.44 331.57,-333.64"/>
<g id="a_edge30&#45;headlabel"><a xlink:href="dir_000566_000525.html" target="_top" xlink:title="1">
<text text-anchor="middle" x="334.8" y="-334.39" font-family="Helvetica,sans-Serif" font-size="10.00">1</text>
</a>
</g>
</g>
<!-- dir_bdd9a5d540de89e9fe90efdfc6973a4f -->
<g id="node12" class="node">
<title>dir_bdd9a5d540de89e9fe90efdfc6973a4f</title>
<g id="a_node12"><a xlink:href="dir_bdd9a5d540de89e9fe90efdfc6973a4f.html" target="_top" xlink:title="common">
<polygon fill="white" stroke="red" points="467.5,-252 408.5,-252 408.5,-216 467.5,-216 467.5,-252"/>
<text text-anchor="middle" x="438" y="-231.5" font-family="Helvetica,sans-Serif" font-size="10.00">common</text>
</a>
</g>
</g>
<!-- dir_ba0bf5790b75dbb76cd621ad13634675&#45;&gt;dir_bdd9a5d540de89e9fe90efdfc6973a4f -->
<g id="edge31" class="edge">
<title>dir_ba0bf5790b75dbb76cd621ad13634675&#45;&gt;dir_bdd9a5d540de89e9fe90efdfc6973a4f</title>
<path fill="none" stroke="black" d="M345.67,-359.87C363.95,-335.14 397.89,-289.24 419.14,-260.51"/>
<polygon fill="black" stroke="black" points="422.16,-262.31 425.29,-252.19 416.53,-258.15 422.16,-262.31"/>
<g id="a_edge31&#45;headlabel"><a xlink:href="dir_000566_000000.html" target="_top" xlink:title="1">
<text text-anchor="middle" x="422.3" y="-264.39" font-family="Helvetica,sans-Serif" font-size="10.00">1</text>
</a>
</g>
</g>
<!-- dir_4b4edfc69082ccc9fa978b057a42ad24 -->
<g id="node3" class="node">
<title>dir_4b4edfc69082ccc9fa978b057a42ad24</title>
<g id="a_node3"><a xlink:href="dir_4b4edfc69082ccc9fa978b057a42ad24.html" target="_top" xlink:title="src">
<polygon fill="white" stroke="black" points="305,-468 251,-468 251,-432 305,-432 305,-468"/>
<text text-anchor="middle" x="278" y="-447.5" font-family="Helvetica,sans-Serif" font-size="10.00">src</text>
</a>
</g>
</g>
<!-- dir_4b4edfc69082ccc9fa978b057a42ad24&#45;&gt;dir_ba0bf5790b75dbb76cd621ad13634675 -->
<g id="edge8" class="edge">
<title>dir_4b4edfc69082ccc9fa978b057a42ad24&#45;&gt;dir_ba0bf5790b75dbb76cd621ad13634675</title>
<path fill="none" stroke="black" d="M291.6,-431.7C298.12,-423.39 306.07,-413.28 313.25,-404.14"/>
<polygon fill="black" stroke="black" points="316.13,-406.13 319.56,-396.1 310.63,-401.81 316.13,-406.13"/>
<g id="a_edge8&#45;headlabel"><a xlink:href="dir_000255_000566.html" target="_top" xlink:title="1">
<text text-anchor="middle" x="316.15" y="-408.21" font-family="Helvetica,sans-Serif" font-size="10.00">1</text>
</a>
</g>
</g>
<!-- dir_4b4edfc69082ccc9fa978b057a42ad24&#45;&gt;dir_9be0baa3d4a3e9f480a9ee70594037fa -->
<g id="edge2" class="edge">
<title>dir_4b4edfc69082ccc9fa978b057a42ad24&#45;&gt;dir_9be0baa3d4a3e9f480a9ee70594037fa</title>
<path fill="none" stroke="black" d="M278.66,-431.93C280.02,-410.55 284.2,-373.18 297,-344 298.71,-340.1 300.91,-336.23 303.32,-332.55"/>
<polygon fill="black" stroke="black" points="306.21,-334.53 309.21,-324.37 300.53,-330.44 306.21,-334.53"/>
<g id="a_edge2&#45;headlabel"><a xlink:href="dir_000255_000525.html" target="_top" xlink:title="2">
<text text-anchor="middle" x="306.42" y="-336.6" font-family="Helvetica,sans-Serif" font-size="10.00">2</text>
</a>
</g>
</g>
<!-- dir_1d64e5e9f20206636d72b5bbe3d2b274 -->
<g id="node5" class="node">
<title>dir_1d64e5e9f20206636d72b5bbe3d2b274</title>
<g id="a_node5"><a xlink:href="dir_1d64e5e9f20206636d72b5bbe3d2b274.html" target="_top" xlink:title="loadcore">
<polygon fill="white" stroke="red" points="316.5,-36 257.5,-36 257.5,0 316.5,0 316.5,-36"/>
<text text-anchor="middle" x="287" y="-15.5" font-family="Helvetica,sans-Serif" font-size="10.00">loadcore</text>
</a>
</g>
</g>
<!-- dir_4b4edfc69082ccc9fa978b057a42ad24&#45;&gt;dir_1d64e5e9f20206636d72b5bbe3d2b274 -->
<g id="edge3" class="edge">
<title>dir_4b4edfc69082ccc9fa978b057a42ad24&#45;&gt;dir_1d64e5e9f20206636d72b5bbe3d2b274</title>
<path fill="none" stroke="black" d="M250.75,-445.79C196.2,-438.91 76.07,-421.26 44,-396 9.34,-368.7 0,-351.13 0,-307 0,-307 0,-307 0,-161 0,-51.93 168.56,-26.64 247.32,-20.77"/>
<polygon fill="black" stroke="black" points="247.63,-24.26 257.37,-20.09 247.15,-17.27 247.63,-24.26"/>
<g id="a_edge3&#45;headlabel"><a xlink:href="dir_000255_000240.html" target="_top" xlink:title="2">
<text text-anchor="middle" x="244.23" y="-24.83" font-family="Helvetica,sans-Serif" font-size="10.00">2</text>
</a>
</g>
</g>
<!-- dir_60f7c75aab99249ed9879339d7562ada -->
<g id="node6" class="node">
<title>dir_60f7c75aab99249ed9879339d7562ada</title>
<g id="a_node6"><a xlink:href="dir_60f7c75aab99249ed9879339d7562ada.html" target="_top" xlink:title="vblank">
<polygon fill="white" stroke="red" points="162,-396 108,-396 108,-360 162,-360 162,-396"/>
<text text-anchor="middle" x="135" y="-375.5" font-family="Helvetica,sans-Serif" font-size="10.00">vblank</text>
</a>
</g>
</g>
<!-- dir_4b4edfc69082ccc9fa978b057a42ad24&#45;&gt;dir_60f7c75aab99249ed9879339d7562ada -->
<g id="edge4" class="edge">
<title>dir_4b4edfc69082ccc9fa978b057a42ad24&#45;&gt;dir_60f7c75aab99249ed9879339d7562ada</title>
<path fill="none" stroke="black" d="M250.77,-435.67C228.2,-424.62 195.95,-408.83 171.21,-396.72"/>
<polygon fill="black" stroke="black" points="172.65,-393.53 162.13,-392.28 169.58,-399.82 172.65,-393.53"/>
<g id="a_edge4&#45;headlabel"><a xlink:href="dir_000255_000282.html" target="_top" xlink:title="2">
<text text-anchor="middle" x="177.13" y="-390.06" font-family="Helvetica,sans-Serif" font-size="10.00">2</text>
</a>
</g>
</g>
<!-- dir_d3b40e87d731c1e886b7a70e6daaf700 -->
<g id="node7" class="node">
<title>dir_d3b40e87d731c1e886b7a70e6daaf700</title>
<g id="a_node7"><a xlink:href="dir_d3b40e87d731c1e886b7a70e6daaf700.html" target="_top" xlink:title="threadman">
<polygon fill="white" stroke="red" points="295,-180 225,-180 225,-144 295,-144 295,-180"/>
<text text-anchor="middle" x="260" y="-159.5" font-family="Helvetica,sans-Serif" font-size="10.00">threadman</text>
</a>
</g>
</g>
<!-- dir_4b4edfc69082ccc9fa978b057a42ad24&#45;&gt;dir_d3b40e87d731c1e886b7a70e6daaf700 -->
<g id="edge5" class="edge">
<title>dir_4b4edfc69082ccc9fa978b057a42ad24&#45;&gt;dir_d3b40e87d731c1e886b7a70e6daaf700</title>
<path fill="none" stroke="black" d="M276.93,-431.97C273.93,-384.29 265.42,-249.18 261.74,-190.63"/>
<polygon fill="black" stroke="black" points="265.21,-190.07 261.09,-180.31 258.22,-190.51 265.21,-190.07"/>
<g id="a_edge5&#45;headlabel"><a xlink:href="dir_000255_000276.html" target="_top" xlink:title="4">
<text text-anchor="middle" x="268.27" y="-190.98" font-family="Helvetica,sans-Serif" font-size="10.00">4</text>
</a>
</g>
</g>
<!-- dir_1fd4d135da32a6b9ad91946f648cae84 -->
<g id="node8" class="node">
<title>dir_1fd4d135da32a6b9ad91946f648cae84</title>
<g id="a_node8"><a xlink:href="dir_1fd4d135da32a6b9ad91946f648cae84.html" target="_top" xlink:title="sio2man">
<polygon fill="white" stroke="red" points="469.5,-396 410.5,-396 410.5,-360 469.5,-360 469.5,-396"/>
<text text-anchor="middle" x="440" y="-375.5" font-family="Helvetica,sans-Serif" font-size="10.00">sio2man</text>
</a>
</g>
</g>
<!-- dir_4b4edfc69082ccc9fa978b057a42ad24&#45;&gt;dir_1fd4d135da32a6b9ad91946f648cae84 -->
<g id="edge6" class="edge">
<title>dir_4b4edfc69082ccc9fa978b057a42ad24&#45;&gt;dir_1fd4d135da32a6b9ad91946f648cae84</title>
<path fill="none" stroke="black" d="M305.07,-436.06C308.07,-434.67 311.1,-433.3 314,-432 342.89,-419.11 375.86,-405.27 400.82,-394.97"/>
<polygon fill="black" stroke="black" points="402.4,-398.11 410.31,-391.07 399.73,-391.63 402.4,-398.11"/>
<g id="a_edge6&#45;headlabel"><a xlink:href="dir_000255_000268.html" target="_top" xlink:title="2">
<text text-anchor="middle" x="400.15" y="-399.6" font-family="Helvetica,sans-Serif" font-size="10.00">2</text>
</a>
</g>
</g>
<!-- dir_a0d37aaf829787e8da99f7ff6597b371 -->
<g id="node9" class="node">
<title>dir_a0d37aaf829787e8da99f7ff6597b371</title>
<g id="a_node9"><a xlink:href="dir_a0d37aaf829787e8da99f7ff6597b371.html" target="_top" xlink:title="sifman">
<polygon fill="white" stroke="red" points="537,-180 483,-180 483,-144 537,-144 537,-180"/>
<text text-anchor="middle" x="510" y="-159.5" font-family="Helvetica,sans-Serif" font-size="10.00">sifman</text>
</a>
</g>
</g>
<!-- dir_4b4edfc69082ccc9fa978b057a42ad24&#45;&gt;dir_a0d37aaf829787e8da99f7ff6597b371 -->
<g id="edge7" class="edge">
<title>dir_4b4edfc69082ccc9fa978b057a42ad24&#45;&gt;dir_a0d37aaf829787e8da99f7ff6597b371</title>
<path fill="none" stroke="black" d="M305.25,-435.35C308.17,-434.12 311.12,-432.98 314,-432 385.06,-407.82 427.63,-450.73 479,-396 532.1,-339.43 523.43,-238.38 515.45,-190.11"/>
<polygon fill="black" stroke="black" points="518.87,-189.34 513.68,-180.11 511.97,-190.56 518.87,-189.34"/>
<g id="a_edge7&#45;headlabel"><a xlink:href="dir_000255_000264.html" target="_top" xlink:title="2">
<text text-anchor="middle" x="522.29" y="-189.89" font-family="Helvetica,sans-Serif" font-size="10.00">2</text>
</a>
</g>
</g>
<!-- dir_7422a0894415a12ccd1d562a8ad09f2d -->
<g id="node10" class="node">
<title>dir_7422a0894415a12ccd1d562a8ad09f2d</title>
<g id="a_node10"><a xlink:href="dir_7422a0894415a12ccd1d562a8ad09f2d.html" target="_top" xlink:title="intrman">
<polygon fill="white" stroke="red" points="473.5,-108 418.5,-108 418.5,-72 473.5,-72 473.5,-108"/>
<text text-anchor="middle" x="446" y="-87.5" font-family="Helvetica,sans-Serif" font-size="10.00">intrman</text>
</a>
</g>
</g>
<!-- dir_4b4edfc69082ccc9fa978b057a42ad24&#45;&gt;dir_7422a0894415a12ccd1d562a8ad09f2d -->
<g id="edge9" class="edge">
<title>dir_4b4edfc69082ccc9fa978b057a42ad24&#45;&gt;dir_7422a0894415a12ccd1d562a8ad09f2d</title>
<path fill="none" stroke="black" d="M305.22,-435.26C308.14,-434.05 311.11,-432.94 314,-432 464.81,-383.23 648,-465.5 648,-307 648,-307 648,-307 648,-233 648,-153.54 542.09,-114.7 483.64,-99.32"/>
<polygon fill="black" stroke="black" points="484.22,-95.85 473.66,-96.8 482.5,-102.64 484.22,-95.85"/>
<g id="a_edge9&#45;headlabel"><a xlink:href="dir_000255_000232.html" target="_top" xlink:title="2">
<text text-anchor="middle" x="488.4" y="-91.48" font-family="Helvetica,sans-Serif" font-size="10.00">2</text>
</a>
</g>
</g>
<!-- dir_952a988346c879bc3b2834e2377036db -->
<g id="node11" class="node">
<title>dir_952a988346c879bc3b2834e2377036db</title>
<g id="a_node11"><a xlink:href="dir_952a988346c879bc3b2834e2377036db.html" target="_top" xlink:title="stdio">
<polygon fill="white" stroke="red" points="259,-108 205,-108 205,-72 259,-72 259,-108"/>
<text text-anchor="middle" x="232" y="-87.5" font-family="Helvetica,sans-Serif" font-size="10.00">stdio</text>
</a>
</g>
</g>
<!-- dir_4b4edfc69082ccc9fa978b057a42ad24&#45;&gt;dir_952a988346c879bc3b2834e2377036db -->
<g id="edge10" class="edge">
<title>dir_4b4edfc69082ccc9fa978b057a42ad24&#45;&gt;dir_952a988346c879bc3b2834e2377036db</title>
<path fill="none" stroke="black" d="M250.94,-445.83C188.17,-436.83 38,-405.04 38,-307 38,-307 38,-307 38,-233 38,-156.18 138.27,-116.42 194.64,-100.14"/>
<polygon fill="black" stroke="black" points="195.92,-103.42 204.62,-97.37 194.04,-96.67 195.92,-103.42"/>
<g id="a_edge10&#45;headlabel"><a xlink:href="dir_000255_000272.html" target="_top" xlink:title="2">
<text text-anchor="middle" x="193.21" y="-104.62" font-family="Helvetica,sans-Serif" font-size="10.00">2</text>
</a>
</g>
</g>
<!-- dir_9be0baa3d4a3e9f480a9ee70594037fa&#45;&gt;dir_bdd9a5d540de89e9fe90efdfc6973a4f -->
<g id="edge1" class="edge">
<title>dir_9be0baa3d4a3e9f480a9ee70594037fa&#45;&gt;dir_bdd9a5d540de89e9fe90efdfc6973a4f</title>
<path fill="none" stroke="black" d="M346.75,-287.88C361.73,-277.95 381.9,-265.4 399.52,-255.02"/>
<polygon fill="black" stroke="black" points="401.58,-257.87 408.46,-249.81 398.05,-251.82 401.58,-257.87"/>
<g id="a_edge1&#45;headlabel"><a xlink:href="dir_000525_000000.html" target="_top" xlink:title="2">
<text text-anchor="middle" x="399.9" y="-259.63" font-family="Helvetica,sans-Serif" font-size="10.00">2</text>
</a>
</g>
</g>
<!-- dir_1d64e5e9f20206636d72b5bbe3d2b274&#45;&gt;dir_9be0baa3d4a3e9f480a9ee70594037fa -->
<g id="edge11" class="edge">
<title>dir_1d64e5e9f20206636d72b5bbe3d2b274&#45;&gt;dir_9be0baa3d4a3e9f480a9ee70594037fa</title>
<path fill="none" stroke="black" d="M257.08,-27.61C235.9,-35.45 209.03,-49.33 196,-72 188.03,-85.87 194.57,-92.06 196,-108 201.99,-174.92 197.89,-201.32 242,-252 254.85,-266.77 272.82,-278.93 288.75,-287.86"/>
<polygon fill="black" stroke="black" points="287.37,-291.1 297.84,-292.74 290.68,-284.93 287.37,-291.1"/>
<g id="a_edge11&#45;headlabel"><a xlink:href="dir_000240_000525.html" target="_top" xlink:title="4">
<text text-anchor="middle" x="282.86" y="-289.4" font-family="Helvetica,sans-Serif" font-size="10.00">4</text>
</a>
</g>
</g>
<!-- dir_60f7c75aab99249ed9879339d7562ada&#45;&gt;dir_9be0baa3d4a3e9f480a9ee70594037fa -->
<g id="edge12" class="edge">
<title>dir_60f7c75aab99249ed9879339d7562ada&#45;&gt;dir_9be0baa3d4a3e9f480a9ee70594037fa</title>
<path fill="none" stroke="black" d="M162.22,-366.97C195.38,-354.76 251.52,-334.07 288.42,-320.48"/>
<polygon fill="black" stroke="black" points="289.65,-323.75 297.83,-317.01 287.23,-317.18 289.65,-323.75"/>
<g id="a_edge12&#45;headlabel"><a xlink:href="dir_000282_000525.html" target="_top" xlink:title="3">
<text text-anchor="middle" x="287.26" y="-325.16" font-family="Helvetica,sans-Serif" font-size="10.00">3</text>
</a>
</g>
</g>
<!-- dir_60f7c75aab99249ed9879339d7562ada&#45;&gt;dir_1d64e5e9f20206636d72b5bbe3d2b274 -->
<g id="edge13" class="edge">
<title>dir_60f7c75aab99249ed9879339d7562ada&#45;&gt;dir_1d64e5e9f20206636d72b5bbe3d2b274</title>
<path fill="none" stroke="black" d="M122.49,-359.59C105.17,-333.73 76,-283.05 76,-235 76,-235 76,-235 76,-161 76,-79.4 185.96,-41.61 247.12,-26.9"/>
<polygon fill="black" stroke="black" points="248.26,-30.24 257.22,-24.58 246.69,-23.41 248.26,-30.24"/>
<g id="a_edge13&#45;headlabel"><a xlink:href="dir_000282_000240.html" target="_top" xlink:title="1">
<text text-anchor="middle" x="245.39" y="-31.31" font-family="Helvetica,sans-Serif" font-size="10.00">1</text>
</a>
</g>
</g>
<!-- dir_60f7c75aab99249ed9879339d7562ada&#45;&gt;dir_d3b40e87d731c1e886b7a70e6daaf700 -->
<g id="edge14" class="edge">
<title>dir_60f7c75aab99249ed9879339d7562ada&#45;&gt;dir_d3b40e87d731c1e886b7a70e6daaf700</title>
<path fill="none" stroke="black" d="M135.32,-359.75C136.73,-328.25 143.6,-260.56 176,-216 186.16,-202.02 201.24,-190.87 215.82,-182.47"/>
<polygon fill="black" stroke="black" points="217.68,-185.44 224.79,-177.59 214.34,-179.29 217.68,-185.44"/>
<g id="a_edge14&#45;headlabel"><a xlink:href="dir_000282_000276.html" target="_top" xlink:title="2">
<text text-anchor="middle" x="215.88" y="-187.15" font-family="Helvetica,sans-Serif" font-size="10.00">2</text>
</a>
</g>
</g>
<!-- dir_60f7c75aab99249ed9879339d7562ada&#45;&gt;dir_7422a0894415a12ccd1d562a8ad09f2d -->
<g id="edge15" class="edge">
<title>dir_60f7c75aab99249ed9879339d7562ada&#45;&gt;dir_7422a0894415a12ccd1d562a8ad09f2d</title>
<path fill="none" stroke="black" d="M133.7,-359.85C132.64,-341.87 131.78,-312.82 135,-288 144.45,-215.18 153.14,-181.95 216,-144 276.66,-107.38 360.31,-96.05 408.22,-92.55"/>
<polygon fill="black" stroke="black" points="408.7,-96.03 418.45,-91.88 408.24,-89.04 408.7,-96.03"/>
<g id="a_edge15&#45;headlabel"><a xlink:href="dir_000282_000232.html" target="_top" xlink:title="1">
<text text-anchor="middle" x="405.3" y="-96.59" font-family="Helvetica,sans-Serif" font-size="10.00">1</text>
</a>
</g>
</g>
<!-- dir_d3b40e87d731c1e886b7a70e6daaf700&#45;&gt;dir_9be0baa3d4a3e9f480a9ee70594037fa -->
<g id="edge16" class="edge">
<title>dir_d3b40e87d731c1e886b7a70e6daaf700&#45;&gt;dir_9be0baa3d4a3e9f480a9ee70594037fa</title>
<path fill="none" stroke="black" d="M267.87,-180.19C279.06,-204.64 299.67,-249.67 312.84,-278.44"/>
<polygon fill="black" stroke="black" points="309.81,-280.24 317.16,-287.87 316.18,-277.32 309.81,-280.24"/>
<g id="a_edge16&#45;headlabel"><a xlink:href="dir_000276_000525.html" target="_top" xlink:title="16">
<text text-anchor="middle" x="305.74" y="-275.65" font-family="Helvetica,sans-Serif" font-size="10.00">16</text>
</a>
</g>
</g>
<!-- dir_d3b40e87d731c1e886b7a70e6daaf700&#45;&gt;dir_1d64e5e9f20206636d72b5bbe3d2b274 -->
<g id="edge17" class="edge">
<title>dir_d3b40e87d731c1e886b7a70e6daaf700&#45;&gt;dir_1d64e5e9f20206636d72b5bbe3d2b274</title>
<path fill="none" stroke="black" d="M263.26,-143.87C267.86,-119.67 276.31,-75.21 281.79,-46.39"/>
<polygon fill="black" stroke="black" points="285.3,-46.67 283.73,-36.19 278.43,-45.36 285.3,-46.67"/>
<g id="a_edge17&#45;headlabel"><a xlink:href="dir_000276_000240.html" target="_top" xlink:title="3">
<text text-anchor="middle" x="287.42" y="-48.23" font-family="Helvetica,sans-Serif" font-size="10.00">3</text>
</a>
</g>
</g>
<!-- dir_d3b40e87d731c1e886b7a70e6daaf700&#45;&gt;dir_7422a0894415a12ccd1d562a8ad09f2d -->
<g id="edge18" class="edge">
<title>dir_d3b40e87d731c1e886b7a70e6daaf700&#45;&gt;dir_7422a0894415a12ccd1d562a8ad09f2d</title>
<path fill="none" stroke="black" d="M295.42,-147.67C327.8,-135.48 375.54,-117.52 408.55,-105.1"/>
<polygon fill="black" stroke="black" points="410.16,-108.23 418.28,-101.43 407.69,-101.68 410.16,-108.23"/>
<g id="a_edge18&#45;headlabel"><a xlink:href="dir_000276_000232.html" target="_top" xlink:title="8">
<text text-anchor="middle" x="407.79" y="-109.65" font-family="Helvetica,sans-Serif" font-size="10.00">8</text>
</a>
</g>
</g>
<!-- dir_d3b40e87d731c1e886b7a70e6daaf700&#45;&gt;dir_952a988346c879bc3b2834e2377036db -->
<g id="edge19" class="edge">
<title>dir_d3b40e87d731c1e886b7a70e6daaf700&#45;&gt;dir_952a988346c879bc3b2834e2377036db</title>
<path fill="none" stroke="black" d="M253.08,-143.7C249.93,-135.81 246.12,-126.3 242.62,-117.55"/>
<polygon fill="black" stroke="black" points="245.81,-116.09 238.84,-108.1 239.31,-118.69 245.81,-116.09"/>
<g id="a_edge19&#45;headlabel"><a xlink:href="dir_000276_000272.html" target="_top" xlink:title="2">
<text text-anchor="middle" x="249.78" y="-115.87" font-family="Helvetica,sans-Serif" font-size="10.00">2</text>
</a>
</g>
</g>
<!-- dir_d3b40e87d731c1e886b7a70e6daaf700&#45;&gt;dir_bdd9a5d540de89e9fe90efdfc6973a4f -->
<g id="edge20" class="edge">
<title>dir_d3b40e87d731c1e886b7a70e6daaf700&#45;&gt;dir_bdd9a5d540de89e9fe90efdfc6973a4f</title>
<path fill="none" stroke="black" d="M295.27,-174.82C325.15,-185.88 367.79,-202.55 398.73,-215.21"/>
<polygon fill="black" stroke="black" points="397.76,-218.6 408.34,-219.17 400.42,-212.12 397.76,-218.6"/>
<g id="a_edge20&#45;headlabel"><a xlink:href="dir_000276_000000.html" target="_top" xlink:title="1">
<text text-anchor="middle" x="393.35" y="-217.35" font-family="Helvetica,sans-Serif" font-size="10.00">1</text>
</a>
</g>
</g>
<!-- dir_1fd4d135da32a6b9ad91946f648cae84&#45;&gt;dir_9be0baa3d4a3e9f480a9ee70594037fa -->
<g id="edge21" class="edge">
<title>dir_1fd4d135da32a6b9ad91946f648cae84&#45;&gt;dir_9be0baa3d4a3e9f480a9ee70594037fa</title>
<path fill="none" stroke="black" d="M414.21,-359.96C406.19,-354.75 397.28,-349.07 389,-344 380.05,-338.52 370.29,-332.77 361.15,-327.48"/>
<polygon fill="black" stroke="black" points="362.68,-324.32 352.27,-322.36 359.19,-330.39 362.68,-324.32"/>
<g id="a_edge21&#45;headlabel"><a xlink:href="dir_000268_000525.html" target="_top" xlink:title="2">
<text text-anchor="middle" x="367.21" y="-321.15" font-family="Helvetica,sans-Serif" font-size="10.00">2</text>
</a>
</g>
</g>
<!-- dir_1fd4d135da32a6b9ad91946f648cae84&#45;&gt;dir_1d64e5e9f20206636d72b5bbe3d2b274 -->
<g id="edge22" class="edge">
<title>dir_1fd4d135da32a6b9ad91946f648cae84&#45;&gt;dir_1d64e5e9f20206636d72b5bbe3d2b274</title>
<path fill="none" stroke="black" d="M469.61,-367.57C518.32,-349.99 610,-307.3 610,-235 610,-235 610,-235 610,-161 610,-38.54 413.03,-20.75 326.72,-18.83"/>
<polygon fill="black" stroke="black" points="326.58,-15.32 316.52,-18.66 326.46,-22.32 326.58,-15.32"/>
<g id="a_edge22&#45;headlabel"><a xlink:href="dir_000268_000240.html" target="_top" xlink:title="1">
<text text-anchor="middle" x="330.21" y="-10.04" font-family="Helvetica,sans-Serif" font-size="10.00">1</text>
</a>
</g>
</g>
<!-- dir_1fd4d135da32a6b9ad91946f648cae84&#45;&gt;dir_d3b40e87d731c1e886b7a70e6daaf700 -->
<g id="edge23" class="edge">
<title>dir_1fd4d135da32a6b9ad91946f648cae84&#45;&gt;dir_d3b40e87d731c1e886b7a70e6daaf700</title>
<path fill="none" stroke="black" d="M426.03,-359.98C401.79,-330.5 350.28,-268.09 306,-216 298.15,-206.76 289.45,-196.69 281.75,-187.84"/>
<polygon fill="black" stroke="black" points="284.22,-185.35 275.01,-180.11 278.94,-189.95 284.22,-185.35"/>
<g id="a_edge23&#45;headlabel"><a xlink:href="dir_000268_000276.html" target="_top" xlink:title="1">
<text text-anchor="middle" x="288.72" y="-183.69" font-family="Helvetica,sans-Serif" font-size="10.00">1</text>
</a>
</g>
</g>
<!-- dir_1fd4d135da32a6b9ad91946f648cae84&#45;&gt;dir_7422a0894415a12ccd1d562a8ad09f2d -->
<g id="edge24" class="edge">
<title>dir_1fd4d135da32a6b9ad91946f648cae84&#45;&gt;dir_7422a0894415a12ccd1d562a8ad09f2d</title>
<path fill="none" stroke="black" d="M453.15,-359.78C477.27,-326.97 527.78,-252.31 546,-180 549.91,-164.48 554.25,-157.71 546,-144 532.41,-121.42 505.6,-107.95 483.16,-100.24"/>
<polygon fill="black" stroke="black" points="484.13,-96.88 473.54,-97.19 482.02,-103.55 484.13,-96.88"/>
<g id="a_edge24&#45;headlabel"><a xlink:href="dir_000268_000232.html" target="_top" xlink:title="1">
<text text-anchor="middle" x="488.42" y="-92.76" font-family="Helvetica,sans-Serif" font-size="10.00">1</text>
</a>
</g>
</g>
<!-- dir_1fd4d135da32a6b9ad91946f648cae84&#45;&gt;dir_bdd9a5d540de89e9fe90efdfc6973a4f -->
<g id="edge25" class="edge">
<title>dir_1fd4d135da32a6b9ad91946f648cae84&#45;&gt;dir_bdd9a5d540de89e9fe90efdfc6973a4f</title>
<path fill="none" stroke="black" d="M439.76,-359.87C439.42,-335.67 438.79,-291.21 438.39,-262.39"/>
<polygon fill="black" stroke="black" points="441.88,-262.14 438.24,-252.19 434.88,-262.24 441.88,-262.14"/>
<g id="a_edge25&#45;headlabel"><a xlink:href="dir_000268_000000.html" target="_top" xlink:title="1">
<text text-anchor="middle" x="444.77" y="-263.19" font-family="Helvetica,sans-Serif" font-size="10.00">1</text>
</a>
</g>
</g>
<!-- dir_a0d37aaf829787e8da99f7ff6597b371&#45;&gt;dir_9be0baa3d4a3e9f480a9ee70594037fa -->
<g id="edge26" class="edge">
<title>dir_a0d37aaf829787e8da99f7ff6597b371&#45;&gt;dir_9be0baa3d4a3e9f480a9ee70594037fa</title>
<path fill="none" stroke="black" d="M508.05,-180.09C504.9,-199.96 496.88,-232.5 477,-252 445.9,-282.5 396.32,-295.51 362.29,-301.02"/>
<polygon fill="black" stroke="black" points="361.65,-297.57 352.27,-302.5 362.67,-304.5 361.65,-297.57"/>
<g id="a_edge26&#45;headlabel"><a xlink:href="dir_000264_000525.html" target="_top" xlink:title="2">
<text text-anchor="middle" x="364.79" y="-291.74" font-family="Helvetica,sans-Serif" font-size="10.00">2</text>
</a>
</g>
</g>
<!-- dir_a0d37aaf829787e8da99f7ff6597b371&#45;&gt;dir_1d64e5e9f20206636d72b5bbe3d2b274 -->
<g id="edge27" class="edge">
<title>dir_a0d37aaf829787e8da99f7ff6597b371&#45;&gt;dir_1d64e5e9f20206636d72b5bbe3d2b274</title>
<path fill="none" stroke="black" d="M509.55,-143.73C508.08,-123.7 502.59,-91 483,-72 440.84,-31.1 370.52,-20.99 326.56,-18.92"/>
<polygon fill="black" stroke="black" points="326.64,-15.42 316.52,-18.56 326.39,-22.41 326.64,-15.42"/>
<g id="a_edge27&#45;headlabel"><a xlink:href="dir_000264_000240.html" target="_top" xlink:title="1">
<text text-anchor="middle" x="330.34" y="-10.21" font-family="Helvetica,sans-Serif" font-size="10.00">1</text>
</a>
</g>
</g>
<!-- dir_a0d37aaf829787e8da99f7ff6597b371&#45;&gt;dir_7422a0894415a12ccd1d562a8ad09f2d -->
<g id="edge28" class="edge">
<title>dir_a0d37aaf829787e8da99f7ff6597b371&#45;&gt;dir_7422a0894415a12ccd1d562a8ad09f2d</title>
<path fill="none" stroke="black" d="M494.18,-143.7C486.43,-135.22 476.96,-124.86 468.48,-115.58"/>
<polygon fill="black" stroke="black" points="470.97,-113.12 461.64,-108.1 465.8,-117.85 470.97,-113.12"/>
<g id="a_edge28&#45;headlabel"><a xlink:href="dir_000264_000232.html" target="_top" xlink:title="1">
<text text-anchor="middle" x="475.49" y="-111.36" font-family="Helvetica,sans-Serif" font-size="10.00">1</text>
</a>
</g>
</g>
<!-- dir_a0d37aaf829787e8da99f7ff6597b371&#45;&gt;dir_bdd9a5d540de89e9fe90efdfc6973a4f -->
<g id="edge29" class="edge">
<title>dir_a0d37aaf829787e8da99f7ff6597b371&#45;&gt;dir_bdd9a5d540de89e9fe90efdfc6973a4f</title>
<path fill="none" stroke="black" d="M498.3,-180.1C490.34,-188.72 479.63,-199.32 469.4,-208.76"/>
<polygon fill="black" stroke="black" points="466.79,-206.4 461.71,-215.7 471.48,-211.59 466.79,-206.4"/>
<g id="a_edge29&#45;headlabel"><a xlink:href="dir_000264_000000.html" target="_top" xlink:title="3">
<text text-anchor="middle" x="467.55" y="-199.38" font-family="Helvetica,sans-Serif" font-size="10.00">3</text>
</a>
</g>
</g>
<!-- dir_7422a0894415a12ccd1d562a8ad09f2d&#45;&gt;dir_9be0baa3d4a3e9f480a9ee70594037fa -->
<g id="edge32" class="edge">
<title>dir_7422a0894415a12ccd1d562a8ad09f2d&#45;&gt;dir_9be0baa3d4a3e9f480a9ee70594037fa</title>
<path fill="none" stroke="black" d="M436.26,-108.23C415.06,-145.72 364.67,-234.84 339.64,-279.12"/>
<polygon fill="black" stroke="black" points="336.57,-277.42 334.7,-287.85 342.67,-280.87 336.57,-277.42"/>
<g id="a_edge32&#45;headlabel"><a xlink:href="dir_000232_000525.html" target="_top" xlink:title="3">
<text text-anchor="middle" x="335.87" y="-270.4" font-family="Helvetica,sans-Serif" font-size="10.00">3</text>
</a>
</g>
</g>
<!-- dir_7422a0894415a12ccd1d562a8ad09f2d&#45;&gt;dir_1d64e5e9f20206636d72b5bbe3d2b274 -->
<g id="edge33" class="edge">
<title>dir_7422a0894415a12ccd1d562a8ad09f2d&#45;&gt;dir_1d64e5e9f20206636d72b5bbe3d2b274</title>
<path fill="none" stroke="black" d="M418.3,-76.81C392.72,-65.55 354.47,-48.7 325.84,-36.1"/>
<polygon fill="black" stroke="black" points="327.1,-32.83 316.53,-32 324.28,-39.24 327.1,-32.83"/>
<g id="a_edge33&#45;headlabel"><a xlink:href="dir_000232_000240.html" target="_top" xlink:title="1">
<text text-anchor="middle" x="331.53" y="-29.18" font-family="Helvetica,sans-Serif" font-size="10.00">1</text>
</a>
</g>
</g>
<!-- dir_7422a0894415a12ccd1d562a8ad09f2d&#45;&gt;dir_bdd9a5d540de89e9fe90efdfc6973a4f -->
<g id="edge34" class="edge">
<title>dir_7422a0894415a12ccd1d562a8ad09f2d&#45;&gt;dir_bdd9a5d540de89e9fe90efdfc6973a4f</title>
<path fill="none" stroke="black" d="M449.62,-108.19C450.81,-132.42 448.59,-176.89 444.99,-205.68"/>
<polygon fill="black" stroke="black" points="441.49,-205.48 443.55,-215.87 448.42,-206.46 441.49,-205.48"/>
<g id="a_edge34&#45;headlabel"><a xlink:href="dir_000232_000000.html" target="_top" xlink:title="3">
<text text-anchor="middle" x="439.18" y="-199.02" font-family="Helvetica,sans-Serif" font-size="10.00">3</text>
</a>
</g>
</g>
<!-- dir_952a988346c879bc3b2834e2377036db&#45;&gt;dir_9be0baa3d4a3e9f480a9ee70594037fa -->
<g id="edge35" class="edge">
<title>dir_952a988346c879bc3b2834e2377036db&#45;&gt;dir_9be0baa3d4a3e9f480a9ee70594037fa</title>
<path fill="none" stroke="black" d="M223.64,-108.22C215.96,-126.51 207.02,-156.04 216,-180 220.49,-191.98 271.29,-247.59 301.93,-280.46"/>
<polygon fill="black" stroke="black" points="299.49,-282.98 308.88,-287.9 304.61,-278.2 299.49,-282.98"/>
<g id="a_edge35&#45;headlabel"><a xlink:href="dir_000272_000525.html" target="_top" xlink:title="2">
<text text-anchor="middle" x="294.96" y="-279.79" font-family="Helvetica,sans-Serif" font-size="10.00">2</text>
</a>
</g>
</g>
<!-- dir_952a988346c879bc3b2834e2377036db&#45;&gt;dir_1d64e5e9f20206636d72b5bbe3d2b274 -->
<g id="edge36" class="edge">
<title>dir_952a988346c879bc3b2834e2377036db&#45;&gt;dir_1d64e5e9f20206636d72b5bbe3d2b274</title>
<path fill="none" stroke="black" d="M245.6,-71.7C252.12,-63.39 260.07,-53.28 267.25,-44.14"/>
<polygon fill="black" stroke="black" points="270.13,-46.13 273.56,-36.1 264.63,-41.81 270.13,-46.13"/>
<g id="a_edge36&#45;headlabel"><a xlink:href="dir_000272_000240.html" target="_top" xlink:title="1">
<text text-anchor="middle" x="270.15" y="-48.21" font-family="Helvetica,sans-Serif" font-size="10.00">1</text>
</a>
</g>
</g>
<!-- dir_bdd9a5d540de89e9fe90efdfc6973a4f&#45;&gt;dir_9be0baa3d4a3e9f480a9ee70594037fa -->
<g id="edge37" class="edge">
<title>dir_bdd9a5d540de89e9fe90efdfc6973a4f&#45;&gt;dir_9be0baa3d4a3e9f480a9ee70594037fa</title>
<path fill="none" stroke="black" d="M416.17,-252.18C400.59,-262.5 379.43,-275.63 361.37,-286.23"/>
<polygon fill="black" stroke="black" points="359.15,-283.47 352.25,-291.5 362.65,-289.52 359.15,-283.47"/>
<g id="a_edge37&#45;headlabel"><a xlink:href="dir_000000_000525.html" target="_top" xlink:title="3">
<text text-anchor="middle" x="360.84" y="-276.71" font-family="Helvetica,sans-Serif" font-size="10.00">3</text>
</a>
</g>
</g>
<!-- dir_bdd9a5d540de89e9fe90efdfc6973a4f&#45;&gt;dir_1d64e5e9f20206636d72b5bbe3d2b274 -->
<g id="edge38" class="edge">
<title>dir_bdd9a5d540de89e9fe90efdfc6973a4f&#45;&gt;dir_1d64e5e9f20206636d72b5bbe3d2b274</title>
<path fill="none" stroke="black" d="M425.9,-215.85C399.39,-178.28 336.09,-88.58 304.94,-44.43"/>
<polygon fill="black" stroke="black" points="307.78,-42.39 299.16,-36.23 302.06,-46.42 307.78,-42.39"/>
<g id="a_edge38&#45;headlabel"><a xlink:href="dir_000000_000240.html" target="_top" xlink:title="2">
<text text-anchor="middle" x="312.18" y="-41.19" font-family="Helvetica,sans-Serif" font-size="10.00">2</text>
</a>
</g>
</g>
<!-- dir_bdd9a5d540de89e9fe90efdfc6973a4f&#45;&gt;dir_d3b40e87d731c1e886b7a70e6daaf700 -->
<g id="edge39" class="edge">
<title>dir_bdd9a5d540de89e9fe90efdfc6973a4f&#45;&gt;dir_d3b40e87d731c1e886b7a70e6daaf700</title>
<path fill="none" stroke="black" d="M408.4,-223.27C380,-212.87 336.94,-196.11 304.45,-182.9"/>
<polygon fill="black" stroke="black" points="305.74,-179.65 295.16,-179.1 303.09,-186.13 305.74,-179.65"/>
<g id="a_edge39&#45;headlabel"><a xlink:href="dir_000000_000276.html" target="_top" xlink:title="2">
<text text-anchor="middle" x="310.15" y="-175.88" font-family="Helvetica,sans-Serif" font-size="10.00">2</text>
</a>
</g>
</g>
<!-- dir_bdd9a5d540de89e9fe90efdfc6973a4f&#45;&gt;dir_a0d37aaf829787e8da99f7ff6597b371 -->
<g id="edge40" class="edge">
<title>dir_bdd9a5d540de89e9fe90efdfc6973a4f&#45;&gt;dir_a0d37aaf829787e8da99f7ff6597b371</title>
<path fill="none" stroke="black" d="M449.88,-215.7C457.88,-207.05 468.61,-196.45 478.84,-187.03"/>
<polygon fill="black" stroke="black" points="481.43,-189.4 486.51,-180.1 476.74,-184.21 481.43,-189.4"/>
<g id="a_edge40&#45;headlabel"><a xlink:href="dir_000000_000264.html" target="_top" xlink:title="1">
<text text-anchor="middle" x="480.67" y="-191.42" font-family="Helvetica,sans-Serif" font-size="10.00">1</text>
</a>
</g>
</g>
<!-- dir_bdd9a5d540de89e9fe90efdfc6973a4f&#45;&gt;dir_7422a0894415a12ccd1d562a8ad09f2d -->
<g id="edge41" class="edge">
<title>dir_bdd9a5d540de89e9fe90efdfc6973a4f&#45;&gt;dir_7422a0894415a12ccd1d562a8ad09f2d</title>
<path fill="none" stroke="black" d="M434.38,-215.87C433.19,-191.67 435.4,-147.21 439,-118.39"/>
<polygon fill="black" stroke="black" points="442.51,-118.58 440.44,-108.19 435.57,-117.6 442.51,-118.58"/>
<g id="a_edge41&#45;headlabel"><a xlink:href="dir_000000_000232.html" target="_top" xlink:title="2">
<text text-anchor="middle" x="444.81" y="-120.04" font-family="Helvetica,sans-Serif" font-size="10.00">2</text>
</a>
</g>
</g>
<!-- dir_bdd9a5d540de89e9fe90efdfc6973a4f&#45;&gt;dir_952a988346c879bc3b2834e2377036db -->
<g id="edge42" class="edge">
<title>dir_bdd9a5d540de89e9fe90efdfc6973a4f&#45;&gt;dir_952a988346c879bc3b2834e2377036db</title>
<path fill="none" stroke="black" d="M408.12,-217.28C389.97,-207.32 366.6,-193.76 347,-180 326.6,-165.68 323.6,-159.4 304,-144 291.21,-133.95 276.82,-123.25 264.29,-114.11"/>
<polygon fill="black" stroke="black" points="266.1,-111.1 255.95,-108.06 261.99,-116.76 266.1,-111.1"/>
<g id="a_edge42&#45;headlabel"><a xlink:href="dir_000000_000272.html" target="_top" xlink:title="2">
<text text-anchor="middle" x="270.68" y="-108.41" font-family="Helvetica,sans-Serif" font-size="10.00">2</text>
</a>
</g>
</g>
</g>
</svg>
