<?xml version="1.0" encoding="UTF-8" standalone="no"?>
<!DOCTYPE svg PUBLIC "-//W3C//DTD SVG 1.1//EN"
 "http://www.w3.org/Graphics/SVG/1.1/DTD/svg11.dtd">
<!-- Generated by graphviz version 9.0.0 (20230911.1827)
 -->
<!-- Title: iop/iLink/iLinkman Pages: 1 -->
<svg width="262pt" height="126pt"
 viewBox="0.00 0.00 261.50 125.75" xmlns="http://www.w3.org/2000/svg" xmlns:xlink="http://www.w3.org/1999/xlink">
<g id="graph0" class="graph" transform="scale(1 1) rotate(0) translate(4 121.75)">
<title>iop/iLink/iLinkman</title>
<g id="clust1" class="cluster">
<title>clusterdir_fc941b9cdd19bfc53379effb1dbc42b0</title>
<g id="a_clust1"><a xlink:href="dir_fc941b9cdd19bfc53379effb1dbc42b0.html" target="_top" xlink:title="iLink">
<polygon fill="#deebf9" stroke="#7f7f7f" stroke-dasharray="5,2" points="8,-39.25 8,-109.75 208,-109.75 208,-39.25 8,-39.25"/>
<text text-anchor="middle" x="108" y="-96.25" font-family="Helvetica,sans-Serif" font-size="10.00">iLink</text>
</a>
</g>
</g>
<g id="clust2" class="cluster">
<title>clusterdir_3217d47ebe458155e7239d0a228ab153</title>
<g id="a_clust2"><a xlink:href="dir_3217d47ebe458155e7239d0a228ab153.html" target="_top">
<polygon fill="#deebf9" stroke="#404040" stroke-width="2" points="16,-47.25 16,-82.5 200,-82.5 200,-47.25 16,-47.25"/>
</a>
</g>
</g>
<!-- dir_3217d47ebe458155e7239d0a228ab153 -->
<g id="node1" class="node">
<title>dir_3217d47ebe458155e7239d0a228ab153</title>
<text text-anchor="middle" x="164" y="-61" font-family="Helvetica,sans-Serif" font-size="10.00">iLinkman</text>
</g>
<!-- dir_d61dc2cc7a3fea5cf83a4c127f7dea92 -->
<g id="node2" class="node">
<title>dir_d61dc2cc7a3fea5cf83a4c127f7dea92</title>
<g id="a_node2"><a xlink:href="dir_d61dc2cc7a3fea5cf83a4c127f7dea92.html" target="_top" xlink:title="include">
<polygon fill="#60a2e3" stroke="#404040" points="70.38,-74.5 23.62,-74.5 23.62,-55.25 70.38,-55.25 70.38,-74.5"/>
<text text-anchor="middle" x="47" y="-61" font-family="Helvetica,sans-Serif" font-size="10.00">include</text>
</a>
</g>
</g>
<!-- dir_9be0baa3d4a3e9f480a9ee70594037fa -->
<g id="node4" class="node">
<title>dir_9be0baa3d4a3e9f480a9ee70594037fa</title>
<g id="a_node4"><a xlink:href="dir_9be0baa3d4a3e9f480a9ee70594037fa.html" target="_top" xlink:title="kernel">
<polygon fill="#deebf9" stroke="red" stroke-dasharray="5,2" points="61.12,-19.25 18.88,-19.25 18.88,0 61.12,0 61.12,-19.25"/>
<text text-anchor="middle" x="40" y="-5.75" font-family="Helvetica,sans-Serif" font-size="10.00">kernel</text>
</a>
</g>
</g>
<!-- dir_d61dc2cc7a3fea5cf83a4c127f7dea92&#45;&gt;dir_9be0baa3d4a3e9f480a9ee70594037fa -->
<g id="edge1" class="edge">
<title>dir_d61dc2cc7a3fea5cf83a4c127f7dea92&#45;&gt;dir_9be0baa3d4a3e9f480a9ee70594037fa</title>
<g id="a_edge1"><a xlink:href="dir_000174_000239.html" target="_top">
<path fill="none" stroke="#63b8ff" d="M45.84,-55.08C44.98,-48.49 43.76,-39.21 42.66,-30.82"/>
<polygon fill="#63b8ff" stroke="#63b8ff" points="46.15,-30.57 41.38,-21.11 39.21,-31.48 46.15,-30.57"/>
</a>
</g>
<g id="a_edge1&#45;headlabel"><a xlink:href="dir_000174_000239.html" target="_top" xlink:title="1">
<text text-anchor="middle" x="49.24" y="-28.39" font-family="Helvetica,sans-Serif" font-size="10.00" fill="#63b8ff">1</text>
</a>
</g>
</g>
<!-- dir_7ea4ab416d8e3e8b817386f3fccc52c9 -->
<g id="node3" class="node">
<title>dir_7ea4ab416d8e3e8b817386f3fccc52c9</title>
<g id="a_node3"><a xlink:href="dir_7ea4ab416d8e3e8b817386f3fccc52c9.html" target="_top" xlink:title="src">
<polygon fill="#60a2e3" stroke="#404040" points="117.75,-74.5 88.25,-74.5 88.25,-55.25 117.75,-55.25 117.75,-74.5"/>
<text text-anchor="middle" x="103" y="-61" font-family="Helvetica,sans-Serif" font-size="10.00">src</text>
</a>
</g>
</g>
<!-- dir_7ea4ab416d8e3e8b817386f3fccc52c9&#45;&gt;dir_9be0baa3d4a3e9f480a9ee70594037fa -->
<g id="edge3" class="edge">
<title>dir_7ea4ab416d8e3e8b817386f3fccc52c9&#45;&gt;dir_9be0baa3d4a3e9f480a9ee70594037fa</title>
<g id="a_edge3"><a xlink:href="dir_000437_000239.html" target="_top">
<path fill="none" stroke="#63b8ff" d="M94.89,-54.86C90.39,-50.04 84.59,-44.11 79,-39.25 73.93,-34.84 68.22,-30.39 62.76,-26.36"/>
<polygon fill="#63b8ff" stroke="#63b8ff" points="64.81,-23.52 54.64,-20.53 60.73,-29.2 64.81,-23.52"/>
</a>
</g>
<g id="a_edge3&#45;headlabel"><a xlink:href="dir_000437_000239.html" target="_top" xlink:title="2">
<text text-anchor="middle" x="68.16" y="-18.55" font-family="Helvetica,sans-Serif" font-size="10.00" fill="#63b8ff">2</text>
</a>
</g>
</g>
<!-- dir_40ac35421bc63b72c26b6c69b1517fd6 -->
<g id="node5" class="node">
<title>dir_40ac35421bc63b72c26b6c69b1517fd6</title>
<g id="a_node5"><a xlink:href="dir_40ac35421bc63b72c26b6c69b1517fd6.html" target="_top" xlink:title="system">
<polygon fill="#deebf9" stroke="red" stroke-dasharray="5,2" points="126.75,-19.25 79.25,-19.25 79.25,0 126.75,0 126.75,-19.25"/>
<text text-anchor="middle" x="103" y="-5.75" font-family="Helvetica,sans-Serif" font-size="10.00">system</text>
</a>
</g>
</g>
<!-- dir_7ea4ab416d8e3e8b817386f3fccc52c9&#45;&gt;dir_40ac35421bc63b72c26b6c69b1517fd6 -->
<g id="edge2" class="edge">
<title>dir_7ea4ab416d8e3e8b817386f3fccc52c9&#45;&gt;dir_40ac35421bc63b72c26b6c69b1517fd6</title>
<g id="a_edge2"><a xlink:href="dir_000437_000515.html" target="_top">
<path fill="none" stroke="#63b8ff" d="M103,-55.08C103,-48.57 103,-39.42 103,-31.12"/>
<polygon fill="#63b8ff" stroke="#63b8ff" points="106.5,-31.12 103,-21.12 99.5,-31.12 106.5,-31.12"/>
</a>
</g>
<g id="a_edge2&#45;headlabel"><a xlink:href="dir_000437_000515.html" target="_top" xlink:title="47">
<text text-anchor="middle" x="109.34" y="-29.33" font-family="Helvetica,sans-Serif" font-size="10.00" fill="#63b8ff">47</text>
</a>
</g>
</g>
<!-- dir_bdd9a5d540de89e9fe90efdfc6973a4f -->
<g id="node6" class="node">
<title>dir_bdd9a5d540de89e9fe90efdfc6973a4f</title>
<g id="a_node6"><a xlink:href="dir_bdd9a5d540de89e9fe90efdfc6973a4f.html" target="_top" xlink:title="common">
<polygon fill="#deebf9" stroke="red" points="198.75,-19.25 145.25,-19.25 145.25,0 198.75,0 198.75,-19.25"/>
<text text-anchor="middle" x="172" y="-5.75" font-family="Helvetica,sans-Serif" font-size="10.00">common</text>
</a>
</g>
</g>
<!-- dir_7ea4ab416d8e3e8b817386f3fccc52c9&#45;&gt;dir_bdd9a5d540de89e9fe90efdfc6973a4f -->
<g id="edge5" class="edge">
<title>dir_7ea4ab416d8e3e8b817386f3fccc52c9&#45;&gt;dir_bdd9a5d540de89e9fe90efdfc6973a4f</title>
<g id="a_edge5"><a xlink:href="dir_000437_000045.html" target="_top">
<path fill="none" stroke="#63b8ff" d="M110.55,-55.18C115.07,-50.23 121.07,-44.07 127,-39.25 132.94,-34.42 139.74,-29.73 146.22,-25.58"/>
<polygon fill="#63b8ff" stroke="#63b8ff" points="148,-28.59 154.69,-20.37 144.34,-22.63 148,-28.59"/>
</a>
</g>
<g id="a_edge5&#45;headlabel"><a xlink:href="dir_000437_000045.html" target="_top" xlink:title="1">
<text text-anchor="middle" x="147.72" y="-28.23" font-family="Helvetica,sans-Serif" font-size="10.00" fill="#63b8ff">1</text>
</a>
</g>
</g>
<!-- dir_a12d8da7b0731a57c6a388326ad5e612 -->
<g id="node7" class="node">
<title>dir_a12d8da7b0731a57c6a388326ad5e612</title>
<g id="a_node7"><a xlink:href="dir_a12d8da7b0731a57c6a388326ad5e612.html" target="_top" xlink:title="cdvd">
<polygon fill="#deebf9" stroke="red" stroke-dasharray="5,2" points="253.5,-19.25 216.5,-19.25 216.5,0 253.5,0 253.5,-19.25"/>
<text text-anchor="middle" x="235" y="-5.75" font-family="Helvetica,sans-Serif" font-size="10.00">cdvd</text>
</a>
</g>
</g>
<!-- dir_7ea4ab416d8e3e8b817386f3fccc52c9&#45;&gt;dir_a12d8da7b0731a57c6a388326ad5e612 -->
<g id="edge4" class="edge">
<title>dir_7ea4ab416d8e3e8b817386f3fccc52c9&#45;&gt;dir_a12d8da7b0731a57c6a388326ad5e612</title>
<g id="a_edge4"><a xlink:href="dir_000437_000040.html" target="_top">
<path fill="none" stroke="#63b8ff" d="M109.62,-54.9C113.99,-49.59 120.16,-43.17 127,-39.25 156.29,-22.48 169.8,-28.03 205.06,-19.72"/>
<polygon fill="#63b8ff" stroke="#63b8ff" points="205.91,-23.11 214.7,-17.2 204.14,-16.34 205.91,-23.11"/>
</a>
</g>
<g id="a_edge4&#45;headlabel"><a xlink:href="dir_000437_000040.html" target="_top" xlink:title="2">
<text text-anchor="middle" x="204.61" y="-22.51" font-family="Helvetica,sans-Serif" font-size="10.00" fill="#63b8ff">2</text>
</a>
</g>
</g>
</g>
</svg>
