<?xml version="1.0" encoding="UTF-8" standalone="no"?>
<!DOCTYPE svg PUBLIC "-//W3C//DTD SVG 1.1//EN"
 "http://www.w3.org/Graphics/SVG/1.1/DTD/svg11.dtd">
<!-- Generated by graphviz version 2.44.0 ()
 -->
<!-- Title: ee/iopreboot/src Pages: 1 -->
<svg width="293pt" height="375pt"
 viewBox="0.00 0.00 293.21 375.00" xmlns="http://www.w3.org/2000/svg" xmlns:xlink="http://www.w3.org/1999/xlink">
<g id="graph0" class="graph" transform="scale(1 1) rotate(0) translate(4 371)">
<title>ee/iopreboot/src</title>
<polygon fill="white" stroke="transparent" points="-4,4 -4,-371 289.21,-371 289.21,4 -4,4"/>
<g id="clust1" class="cluster">
<title>clusterdir_ff70674bc173ff6e32f1bc3a678b82a6</title>
<g id="a_clust1"><a xlink:href="dir_ff70674bc173ff6e32f1bc3a678b82a6.html" target="_top" xlink:title="iopreboot">
<polygon fill="#ddddee" stroke="black" points="8,-208 8,-359 166,-359 166,-208 8,-208"/>
<text text-anchor="middle" x="87" y="-347" font-family="Helvetica,sans-Serif" font-size="10.00">iopreboot</text>
</a>
</g>
</g>
<g id="clust2" class="cluster">
<title>clusterdir_a498588c2d5275b63f4912378b4fcc14</title>
<g id="a_clust2"><a xlink:href="dir_a498588c2d5275b63f4912378b4fcc14.html" target="_top">
<polygon fill="#eeeeff" stroke="black" points="16,-280 16,-332 158,-332 158,-280 16,-280"/>
</a>
</g>
</g>
<!-- dir_5dc1218e3fbe6447e9a0ef568f079980 -->
<g id="node1" class="node">
<title>dir_5dc1218e3fbe6447e9a0ef568f079980</title>
<g id="a_node1"><a xlink:href="dir_5dc1218e3fbe6447e9a0ef568f079980.html" target="_top" xlink:title="include">
<polygon fill="none" stroke="black" points="78,-252 24,-252 24,-216 78,-216 78,-252"/>
<text text-anchor="middle" x="51" y="-231.5" font-family="Helvetica,sans-Serif" font-size="10.00">include</text>
</a>
</g>
</g>
<!-- dir_a498588c2d5275b63f4912378b4fcc14 -->
<g id="node2" class="node">
<title>dir_a498588c2d5275b63f4912378b4fcc14</title>
<text text-anchor="middle" x="51" y="-303.5" font-family="Helvetica,sans-Serif" font-size="10.00">src</text>
</g>
<!-- dir_a498588c2d5275b63f4912378b4fcc14&#45;&gt;dir_5dc1218e3fbe6447e9a0ef568f079980 -->
<g id="edge3" class="edge">
<title>dir_a498588c2d5275b63f4912378b4fcc14&#45;&gt;dir_5dc1218e3fbe6447e9a0ef568f079980</title>
<path fill="none" stroke="black" d="M51,-287.7C51,-279.98 51,-270.71 51,-262.11"/>
<polygon fill="black" stroke="black" points="54.5,-262.1 51,-252.1 47.5,-262.1 54.5,-262.1"/>
<g id="a_edge3&#45;headlabel"><a xlink:href="dir_000008_000212.html" target="_top" xlink:title="1">
<text text-anchor="middle" x="57.34" y="-263.2" font-family="Helvetica,sans-Serif" font-size="10.00">1</text>
</a>
</g>
</g>
<!-- dir_3c99d3595cafa99f0e2683197c97edf9 -->
<g id="node5" class="node">
<title>dir_3c99d3595cafa99f0e2683197c97edf9</title>
<g id="a_node5"><a xlink:href="dir_3c99d3595cafa99f0e2683197c97edf9.html" target="_top" xlink:title="sbv">
<polygon fill="white" stroke="red" points="228,-252 174,-252 174,-216 228,-216 228,-252"/>
<text text-anchor="middle" x="201" y="-231.5" font-family="Helvetica,sans-Serif" font-size="10.00">sbv</text>
</a>
</g>
</g>
<!-- dir_a498588c2d5275b63f4912378b4fcc14&#45;&gt;dir_3c99d3595cafa99f0e2683197c97edf9 -->
<g id="edge2" class="edge">
<title>dir_a498588c2d5275b63f4912378b4fcc14&#45;&gt;dir_3c99d3595cafa99f0e2683197c97edf9</title>
<path fill="none" stroke="black" d="M74.13,-287.78C78.31,-285.01 82.71,-282.3 87,-280 111.84,-266.7 141.48,-255.12 164.31,-247.04"/>
<polygon fill="black" stroke="black" points="165.66,-250.28 173.96,-243.69 163.37,-243.66 165.66,-250.28"/>
<g id="a_edge2&#45;headlabel"><a xlink:href="dir_000008_000195.html" target="_top" xlink:title="1">
<text text-anchor="middle" x="163.2" y="-251.64" font-family="Helvetica,sans-Serif" font-size="10.00">1</text>
</a>
</g>
</g>
<!-- dir_694ec83a64f58cbdefbefce65cd1011c -->
<g id="node6" class="node">
<title>dir_694ec83a64f58cbdefbefce65cd1011c</title>
<g id="a_node6"><a xlink:href="dir_694ec83a64f58cbdefbefce65cd1011c.html" target="_top" xlink:title="kernel">
<polygon fill="white" stroke="red" points="190,-180 136,-180 136,-144 190,-144 190,-180"/>
<text text-anchor="middle" x="163" y="-159.5" font-family="Helvetica,sans-Serif" font-size="10.00">kernel</text>
</a>
</g>
</g>
<!-- dir_a498588c2d5275b63f4912378b4fcc14&#45;&gt;dir_694ec83a64f58cbdefbefce65cd1011c -->
<g id="edge4" class="edge">
<title>dir_a498588c2d5275b63f4912378b4fcc14&#45;&gt;dir_694ec83a64f58cbdefbefce65cd1011c</title>
<path fill="none" stroke="black" d="M74.12,-287.98C86.3,-278.29 100.95,-265.44 112,-252 127.89,-232.67 141.7,-207.75 150.93,-189.19"/>
<polygon fill="black" stroke="black" points="154.1,-190.66 155.32,-180.14 147.81,-187.61 154.1,-190.66"/>
<g id="a_edge4&#45;headlabel"><a xlink:href="dir_000008_000143.html" target="_top" xlink:title="5">
<text text-anchor="middle" x="155.09" y="-192.64" font-family="Helvetica,sans-Serif" font-size="10.00">5</text>
</a>
</g>
</g>
<!-- dir_a0a8ac7efb6662b749c1285408048e6d -->
<g id="node7" class="node">
<title>dir_a0a8ac7efb6662b749c1285408048e6d</title>
<g id="a_node7"><a xlink:href="dir_a0a8ac7efb6662b749c1285408048e6d.html" target="_top" xlink:title="erl">
<polygon fill="white" stroke="red" points="245,-108 191,-108 191,-72 245,-72 245,-108"/>
<text text-anchor="middle" x="218" y="-87.5" font-family="Helvetica,sans-Serif" font-size="10.00">erl</text>
</a>
</g>
</g>
<!-- dir_a498588c2d5275b63f4912378b4fcc14&#45;&gt;dir_a0a8ac7efb6662b749c1285408048e6d -->
<g id="edge5" class="edge">
<title>dir_a498588c2d5275b63f4912378b4fcc14&#45;&gt;dir_a0a8ac7efb6662b749c1285408048e6d</title>
<path fill="none" stroke="black" d="M72.61,-287.84C77.17,-284.85 82.09,-282.05 87,-280 149.58,-253.86 193.67,-304.17 237,-252 268.56,-214 247.92,-152.44 231.82,-117.48"/>
<polygon fill="black" stroke="black" points="234.93,-115.86 227.44,-108.36 228.61,-118.89 234.93,-115.86"/>
<g id="a_edge5&#45;headlabel"><a xlink:href="dir_000008_000206.html" target="_top" xlink:title="1">
<text text-anchor="middle" x="239.04" y="-115.38" font-family="Helvetica,sans-Serif" font-size="10.00">1</text>
</a>
</g>
</g>
<!-- dir_cfa7e2ab114a6553389f9ee886137040 -->
<g id="node3" class="node">
<title>dir_cfa7e2ab114a6553389f9ee886137040</title>
<g id="a_node3"><a xlink:href="dir_cfa7e2ab114a6553389f9ee886137040.html" target="_top" xlink:title="imgdrv">
<polygon fill="white" stroke="red" points="150,-324 96,-324 96,-288 150,-288 150,-324"/>
<text text-anchor="middle" x="123" y="-303.5" font-family="Helvetica,sans-Serif" font-size="10.00">imgdrv</text>
</a>
</g>
</g>
<!-- dir_0981ace215aa2029f526b70c145b9fbe -->
<g id="node4" class="node">
<title>dir_0981ace215aa2029f526b70c145b9fbe</title>
<g id="a_node4"><a xlink:href="dir_0981ace215aa2029f526b70c145b9fbe.html" target="_top" xlink:title="iop">
<polygon fill="white" stroke="red" points="245,-36 191,-36 191,0 245,0 245,-36"/>
<text text-anchor="middle" x="218" y="-15.5" font-family="Helvetica,sans-Serif" font-size="10.00">iop</text>
</a>
</g>
</g>
<!-- dir_cfa7e2ab114a6553389f9ee886137040&#45;&gt;dir_0981ace215aa2029f526b70c145b9fbe -->
<g id="edge8" class="edge">
<title>dir_cfa7e2ab114a6553389f9ee886137040&#45;&gt;dir_0981ace215aa2029f526b70c145b9fbe</title>
<path fill="none" stroke="black" d="M150.05,-303.03C182.06,-299.11 234.13,-287.33 259,-252 305.08,-186.56 281.2,-147.27 254,-72 250.52,-62.37 244.89,-52.82 239.11,-44.53"/>
<polygon fill="black" stroke="black" points="241.86,-42.36 233.1,-36.4 236.23,-46.52 241.86,-42.36"/>
<g id="a_edge8&#45;headlabel"><a xlink:href="dir_000009_000011.html" target="_top" xlink:title="5">
<text text-anchor="middle" x="246.28" y="-41.07" font-family="Helvetica,sans-Serif" font-size="10.00">5</text>
</a>
</g>
</g>
<!-- dir_3c99d3595cafa99f0e2683197c97edf9&#45;&gt;dir_694ec83a64f58cbdefbefce65cd1011c -->
<g id="edge6" class="edge">
<title>dir_3c99d3595cafa99f0e2683197c97edf9&#45;&gt;dir_694ec83a64f58cbdefbefce65cd1011c</title>
<path fill="none" stroke="black" d="M191.61,-215.7C187.24,-207.64 181.94,-197.89 177.1,-188.98"/>
<polygon fill="black" stroke="black" points="180.13,-187.22 172.29,-180.1 173.98,-190.56 180.13,-187.22"/>
<g id="a_edge6&#45;headlabel"><a xlink:href="dir_000195_000143.html" target="_top" xlink:title="10">
<text text-anchor="middle" x="184.34" y="-186.53" font-family="Helvetica,sans-Serif" font-size="10.00">10</text>
</a>
</g>
</g>
<!-- dir_3c99d3595cafa99f0e2683197c97edf9&#45;&gt;dir_a0a8ac7efb6662b749c1285408048e6d -->
<g id="edge7" class="edge">
<title>dir_3c99d3595cafa99f0e2683197c97edf9&#45;&gt;dir_a0a8ac7efb6662b749c1285408048e6d</title>
<path fill="none" stroke="black" d="M203.05,-215.87C205.95,-191.67 211.27,-147.21 214.72,-118.39"/>
<polygon fill="black" stroke="black" points="218.23,-118.53 215.94,-108.19 211.28,-117.7 218.23,-118.53"/>
<g id="a_edge7&#45;headlabel"><a xlink:href="dir_000195_000206.html" target="_top" xlink:title="1">
<text text-anchor="middle" x="220.62" y="-119.94" font-family="Helvetica,sans-Serif" font-size="10.00">1</text>
</a>
</g>
</g>
<!-- dir_694ec83a64f58cbdefbefce65cd1011c&#45;&gt;dir_0981ace215aa2029f526b70c145b9fbe -->
<g id="edge9" class="edge">
<title>dir_694ec83a64f58cbdefbefce65cd1011c&#45;&gt;dir_0981ace215aa2029f526b70c145b9fbe</title>
<path fill="none" stroke="black" d="M164.7,-143.67C166.95,-125.29 171.89,-95.69 182,-72 186.08,-62.43 191.99,-52.78 197.84,-44.39"/>
<polygon fill="black" stroke="black" points="200.78,-46.29 203.84,-36.15 195.12,-42.17 200.78,-46.29"/>
<g id="a_edge9&#45;headlabel"><a xlink:href="dir_000143_000011.html" target="_top" xlink:title="5">
<text text-anchor="middle" x="200.96" y="-48.37" font-family="Helvetica,sans-Serif" font-size="10.00">5</text>
</a>
</g>
</g>
<!-- dir_694ec83a64f58cbdefbefce65cd1011c&#45;&gt;dir_a0a8ac7efb6662b749c1285408048e6d -->
<g id="edge10" class="edge">
<title>dir_694ec83a64f58cbdefbefce65cd1011c&#45;&gt;dir_a0a8ac7efb6662b749c1285408048e6d</title>
<path fill="none" stroke="black" d="M176.6,-143.7C183.12,-135.39 191.07,-125.28 198.25,-116.14"/>
<polygon fill="black" stroke="black" points="201.13,-118.13 204.56,-108.1 195.63,-113.81 201.13,-118.13"/>
<g id="a_edge10&#45;headlabel"><a xlink:href="dir_000143_000206.html" target="_top" xlink:title="1">
<text text-anchor="middle" x="201.15" y="-120.21" font-family="Helvetica,sans-Serif" font-size="10.00">1</text>
</a>
</g>
</g>
<!-- dir_a0a8ac7efb6662b749c1285408048e6d&#45;&gt;dir_0981ace215aa2029f526b70c145b9fbe -->
<g id="edge1" class="edge">
<title>dir_a0a8ac7efb6662b749c1285408048e6d&#45;&gt;dir_0981ace215aa2029f526b70c145b9fbe</title>
<path fill="none" stroke="black" d="M218,-71.7C218,-63.98 218,-54.71 218,-46.11"/>
<polygon fill="black" stroke="black" points="221.5,-46.1 218,-36.1 214.5,-46.1 221.5,-46.1"/>
<g id="a_edge1&#45;headlabel"><a xlink:href="dir_000206_000011.html" target="_top" xlink:title="2">
<text text-anchor="middle" x="224.34" y="-47.2" font-family="Helvetica,sans-Serif" font-size="10.00">2</text>
</a>
</g>
</g>
</g>
</svg>
