<?xml version="1.0" encoding="UTF-8" standalone="no"?>
<!DOCTYPE svg PUBLIC "-//W3C//DTD SVG 1.1//EN"
 "http://www.w3.org/Graphics/SVG/1.1/DTD/svg11.dtd">
<!-- Generated by graphviz version 9.0.0 (20230911.1827)
 -->
<!-- Title: iop/dev9 Pages: 1 -->
<svg width="429pt" height="197pt"
 viewBox="0.00 0.00 428.75 197.00" xmlns="http://www.w3.org/2000/svg" xmlns:xlink="http://www.w3.org/1999/xlink">

<svg id="main" version="1.1" xmlns="http://www.w3.org/2000/svg" xmlns:xlink="http://www.w3.org/1999/xlink" xml:space="preserve" onload="init(evt)">
<style type="text/css"><![CDATA[
.node, .edge {opacity: 0.7;}
.node.selected, .edge.selected {opacity: 1;}
.edge:hover path { stroke: red; }
.edge:hover polygon { stroke: red; fill: red; }
]]></style>
<script type="application/ecmascript" xlink:href="svg.min.js"/>
<svg id="graph" class="graph">
<g id="graph0" class="graph" transform="scale(1 1) rotate(0) translate(4 193)">
<title>iop/dev9</title>
<g id="clust1" class="cluster">
<title>clusterdir_0981ace215aa2029f526b70c145b9fbe</title>
<g id="a_clust1"><a xlink:href="dir_0981ace215aa2029f526b70c145b9fbe.html" target="_top" xlink:title="iop">
<polygon fill="#deebf9" stroke="#404040" stroke-dasharray="5,2" points="8,-8 8,-181 359,-181 359,-8 8,-8"/>
<text text-anchor="middle" x="183.5" y="-167.5" font-family="Helvetica,sans-Serif" font-size="10.00">iop</text>
</a>
</g>
</g>
<g id="clust2" class="cluster">
<title>clusterdir_6f16cad81de2453a6f48c5e272ba4a18</title>
<g id="a_clust2"><a xlink:href="dir_6f16cad81de2453a6f48c5e272ba4a18.html" target="_top">
<polygon fill="#deebf9" stroke="#404040" stroke-width="2" points="16,-63.25 16,-153.75 351,-153.75 351,-63.25 16,-63.25"/>
</a>
</g>
</g>
<!-- dir_9be0baa3d4a3e9f480a9ee70594037fa -->
<g id="node1" class="node">
<title>dir_9be0baa3d4a3e9f480a9ee70594037fa</title>
<g id="a_node1"><a xlink:href="dir_9be0baa3d4a3e9f480a9ee70594037fa.html" target="_top" xlink:title="kernel">
<polygon fill="#60a2e3" stroke="red" points="167.12,-35.25 124.88,-35.25 124.88,-16 167.12,-16 167.12,-35.25"/>
<text text-anchor="middle" x="146" y="-21.75" font-family="Helvetica,sans-Serif" font-size="10.00">kernel</text>
</a>
</g>
</g>
<!-- dir_6f16cad81de2453a6f48c5e272ba4a18 -->
<g id="node2" class="node">
<title>dir_6f16cad81de2453a6f48c5e272ba4a18</title>
<text text-anchor="middle" x="324" y="-132.25" font-family="Helvetica,sans-Serif" font-size="10.00">dev9</text>
</g>
<!-- dir_c9fad5ea75093c7356ef5f2b903232b1 -->
<g id="node3" class="node">
<title>dir_c9fad5ea75093c7356ef5f2b903232b1</title>
<g id="a_node3"><a xlink:href="dir_c9fad5ea75093c7356ef5f2b903232b1.html" target="_top" xlink:title="atad">
<polygon fill="#60a2e3" stroke="#404040" points="265.38,-90.5 230.62,-90.5 230.62,-71.25 265.38,-71.25 265.38,-90.5"/>
<text text-anchor="middle" x="248" y="-77" font-family="Helvetica,sans-Serif" font-size="10.00">atad</text>
</a>
</g>
</g>
<!-- dir_c9fad5ea75093c7356ef5f2b903232b1&#45;&gt;dir_9be0baa3d4a3e9f480a9ee70594037fa -->
<g id="edge1" class="edge">
<title>dir_c9fad5ea75093c7356ef5f2b903232b1&#45;&gt;dir_9be0baa3d4a3e9f480a9ee70594037fa</title>
<g id="a_edge1"><a xlink:href="dir_000029_000213.html" target="_top">
<path fill="none" stroke="#63b8ff" d="M233.86,-70.81C229.76,-68.28 225.24,-65.59 221,-63.25 206.58,-55.31 190.18,-47.21 176.41,-40.64"/>
<polygon fill="#63b8ff" stroke="#63b8ff" points="177.92,-37.49 167.38,-36.39 174.93,-43.82 177.92,-37.49"/>
</a>
</g>
<g id="a_edge1&#45;headlabel"><a xlink:href="dir_000029_000213.html" target="_top" xlink:title="14">
<text text-anchor="middle" x="181.01" y="-31.93" font-family="Helvetica,sans-Serif" font-size="10.00" fill="#63b8ff">14</text>
</a>
</g>
</g>
<!-- dir_bdd9a5d540de89e9fe90efdfc6973a4f -->
<g id="node9" class="node">
<title>dir_bdd9a5d540de89e9fe90efdfc6973a4f</title>
<g id="a_node9"><a xlink:href="dir_bdd9a5d540de89e9fe90efdfc6973a4f.html" target="_top" xlink:title="common">
<polygon fill="#deebf9" stroke="red" points="420.75,-35.25 367.25,-35.25 367.25,-16 420.75,-16 420.75,-35.25"/>
<text text-anchor="middle" x="394" y="-21.75" font-family="Helvetica,sans-Serif" font-size="10.00">common</text>
</a>
</g>
</g>
<!-- dir_c9fad5ea75093c7356ef5f2b903232b1&#45;&gt;dir_bdd9a5d540de89e9fe90efdfc6973a4f -->
<g id="edge2" class="edge">
<title>dir_c9fad5ea75093c7356ef5f2b903232b1&#45;&gt;dir_bdd9a5d540de89e9fe90efdfc6973a4f</title>
<g id="a_edge2"><a xlink:href="dir_000029_000042.html" target="_top">
<path fill="none" stroke="#63b8ff" d="M263.5,-70.84C268.37,-68.2 273.83,-65.44 279,-63.25 292.99,-57.33 328.04,-46.36 355.79,-37.97"/>
<polygon fill="#63b8ff" stroke="#63b8ff" points="356.75,-41.33 365.32,-35.1 354.74,-34.63 356.75,-41.33"/>
</a>
</g>
<g id="a_edge2&#45;headlabel"><a xlink:href="dir_000029_000042.html" target="_top" xlink:title="1">
<text text-anchor="middle" x="355.58" y="-40.78" font-family="Helvetica,sans-Serif" font-size="10.00" fill="#63b8ff">1</text>
</a>
</g>
</g>
<!-- dir_18566863331aaba44604539ca78be099 -->
<g id="node4" class="node">
<title>dir_18566863331aaba44604539ca78be099</title>
<g id="a_node4"><a xlink:href="dir_18566863331aaba44604539ca78be099.html" target="_top" xlink:title="dev9">
<polygon fill="#60a2e3" stroke="#404040" points="212.5,-90.5 175.5,-90.5 175.5,-71.25 212.5,-71.25 212.5,-90.5"/>
<text text-anchor="middle" x="194" y="-77" font-family="Helvetica,sans-Serif" font-size="10.00">dev9</text>
</a>
</g>
</g>
<!-- dir_18566863331aaba44604539ca78be099&#45;&gt;dir_9be0baa3d4a3e9f480a9ee70594037fa -->
<g id="edge3" class="edge">
<title>dir_18566863331aaba44604539ca78be099&#45;&gt;dir_9be0baa3d4a3e9f480a9ee70594037fa</title>
<g id="a_edge3"><a xlink:href="dir_000047_000213.html" target="_top">
<path fill="none" stroke="#63b8ff" d="M186.07,-71.08C179.44,-63.73 169.78,-53.01 161.61,-43.94"/>
<polygon fill="#63b8ff" stroke="#63b8ff" points="164.41,-41.82 155.11,-36.73 159.21,-46.5 164.41,-41.82"/>
</a>
</g>
<g id="a_edge3&#45;headlabel"><a xlink:href="dir_000047_000213.html" target="_top" xlink:title="20">
<text text-anchor="middle" x="167.91" y="-37.59" font-family="Helvetica,sans-Serif" font-size="10.00" fill="#63b8ff">20</text>
</a>
</g>
</g>
<!-- dir_18566863331aaba44604539ca78be099&#45;&gt;dir_bdd9a5d540de89e9fe90efdfc6973a4f -->
<g id="edge4" class="edge">
<title>dir_18566863331aaba44604539ca78be099&#45;&gt;dir_bdd9a5d540de89e9fe90efdfc6973a4f</title>
<g id="a_edge4"><a xlink:href="dir_000047_000042.html" target="_top">
<path fill="none" stroke="#63b8ff" d="M207.2,-70.79C211.73,-68.02 216.93,-65.19 222,-63.25 278.16,-41.73 298.46,-49.03 355.82,-36.79"/>
<polygon fill="#63b8ff" stroke="#63b8ff" points="356.52,-40.22 365.5,-34.61 354.98,-33.4 356.52,-40.22"/>
</a>
</g>
<g id="a_edge4&#45;headlabel"><a xlink:href="dir_000047_000042.html" target="_top" xlink:title="6">
<text text-anchor="middle" x="355.12" y="-39.58" font-family="Helvetica,sans-Serif" font-size="10.00" fill="#63b8ff">6</text>
</a>
</g>
</g>
<!-- dir_f44f46f2cd21d59a913dd7de442a4869 -->
<g id="node5" class="node">
<title>dir_f44f46f2cd21d59a913dd7de442a4869</title>
<g id="a_node5"><a xlink:href="dir_f44f46f2cd21d59a913dd7de442a4869.html" target="_top" xlink:title="extflash">
<polygon fill="#60a2e3" stroke="#404040" points="204.5,-145.75 155.5,-145.75 155.5,-126.5 204.5,-126.5 204.5,-145.75"/>
<text text-anchor="middle" x="180" y="-132.25" font-family="Helvetica,sans-Serif" font-size="10.00">extflash</text>
</a>
</g>
</g>
<!-- dir_f44f46f2cd21d59a913dd7de442a4869&#45;&gt;dir_9be0baa3d4a3e9f480a9ee70594037fa -->
<g id="edge5" class="edge">
<title>dir_f44f46f2cd21d59a913dd7de442a4869&#45;&gt;dir_9be0baa3d4a3e9f480a9ee70594037fa</title>
<g id="a_edge5"><a xlink:href="dir_000068_000213.html" target="_top">
<path fill="none" stroke="#63b8ff" d="M172.3,-126.27C165.39,-117.73 155.63,-104.15 151,-90.5 146.23,-76.44 145.07,-59.67 145.06,-46.85"/>
<polygon fill="#63b8ff" stroke="#63b8ff" points="148.55,-47.18 145.3,-37.09 141.56,-47 148.55,-47.18"/>
</a>
</g>
<g id="a_edge5&#45;headlabel"><a xlink:href="dir_000068_000213.html" target="_top" xlink:title="19">
<text text-anchor="middle" x="151.34" y="-45.45" font-family="Helvetica,sans-Serif" font-size="10.00" fill="#63b8ff">19</text>
</a>
</g>
</g>
<!-- dir_f44f46f2cd21d59a913dd7de442a4869&#45;&gt;dir_18566863331aaba44604539ca78be099 -->
<g id="edge7" class="edge">
<title>dir_f44f46f2cd21d59a913dd7de442a4869&#45;&gt;dir_18566863331aaba44604539ca78be099</title>
<g id="a_edge7"><a xlink:href="dir_000068_000047.html" target="_top">
<path fill="none" stroke="#63b8ff" d="M182.31,-126.33C184.06,-119.67 186.54,-110.24 188.77,-101.78"/>
<polygon fill="#63b8ff" stroke="#63b8ff" points="192.1,-102.88 191.25,-92.32 185.33,-101.1 192.1,-102.88"/>
</a>
</g>
<g id="a_edge7&#45;headlabel"><a xlink:href="dir_000068_000047.html" target="_top" xlink:title="1">
<text text-anchor="middle" x="194.31" y="-101.74" font-family="Helvetica,sans-Serif" font-size="10.00" fill="#63b8ff">1</text>
</a>
</g>
</g>
<!-- dir_f44f46f2cd21d59a913dd7de442a4869&#45;&gt;dir_bdd9a5d540de89e9fe90efdfc6973a4f -->
<g id="edge6" class="edge">
<title>dir_f44f46f2cd21d59a913dd7de442a4869&#45;&gt;dir_bdd9a5d540de89e9fe90efdfc6973a4f</title>
<g id="a_edge6"><a xlink:href="dir_000068_000042.html" target="_top">
<path fill="none" stroke="#63b8ff" d="M204.87,-128.62C250.23,-116.72 342.03,-92.49 345,-90.5 362.03,-79.09 375.62,-59.8 384.13,-45.39"/>
<polygon fill="#63b8ff" stroke="#63b8ff" points="387.08,-47.31 388.89,-36.87 380.96,-43.9 387.08,-47.31"/>
</a>
</g>
<g id="a_edge6&#45;headlabel"><a xlink:href="dir_000068_000042.html" target="_top" xlink:title="2">
<text text-anchor="middle" x="388.54" y="-46.63" font-family="Helvetica,sans-Serif" font-size="10.00" fill="#63b8ff">2</text>
</a>
</g>
</g>
<!-- dir_7e10c943c08a69732df0d9710348ffa0 -->
<g id="node6" class="node">
<title>dir_7e10c943c08a69732df0d9710348ffa0</title>
<g id="a_node6"><a xlink:href="dir_7e10c943c08a69732df0d9710348ffa0.html" target="_top" xlink:title="hdpro_atad">
<polygon fill="#60a2e3" stroke="#404040" points="287,-145.75 223,-145.75 223,-126.5 287,-126.5 287,-145.75"/>
<text text-anchor="middle" x="255" y="-132.25" font-family="Helvetica,sans-Serif" font-size="10.00">hdpro_atad</text>
</a>
</g>
</g>
<!-- dir_7e10c943c08a69732df0d9710348ffa0&#45;&gt;dir_9be0baa3d4a3e9f480a9ee70594037fa -->
<g id="edge8" class="edge">
<title>dir_7e10c943c08a69732df0d9710348ffa0&#45;&gt;dir_9be0baa3d4a3e9f480a9ee70594037fa</title>
<g id="a_edge8"><a xlink:href="dir_000083_000213.html" target="_top">
<path fill="none" stroke="#63b8ff" d="M222.99,-126.09C203.98,-119.2 180.78,-107.88 166,-90.5 155.51,-78.17 150.51,-60.33 148.14,-46.64"/>
<polygon fill="#63b8ff" stroke="#63b8ff" points="151.64,-46.44 146.82,-37.01 144.71,-47.39 151.64,-46.44"/>
</a>
</g>
<g id="a_edge8&#45;headlabel"><a xlink:href="dir_000083_000213.html" target="_top" xlink:title="15">
<text text-anchor="middle" x="154.74" y="-44.24" font-family="Helvetica,sans-Serif" font-size="10.00" fill="#63b8ff">15</text>
</a>
</g>
</g>
<!-- dir_7e10c943c08a69732df0d9710348ffa0&#45;&gt;dir_c9fad5ea75093c7356ef5f2b903232b1 -->
<g id="edge9" class="edge">
<title>dir_7e10c943c08a69732df0d9710348ffa0&#45;&gt;dir_c9fad5ea75093c7356ef5f2b903232b1</title>
<g id="a_edge9"><a xlink:href="dir_000083_000029.html" target="_top">
<path fill="none" stroke="#63b8ff" d="M253.84,-126.33C252.98,-119.74 251.76,-110.46 250.66,-102.07"/>
<polygon fill="#63b8ff" stroke="#63b8ff" points="254.15,-101.82 249.38,-92.36 247.21,-102.73 254.15,-101.82"/>
</a>
</g>
<g id="a_edge9&#45;headlabel"><a xlink:href="dir_000083_000029.html" target="_top" xlink:title="1">
<text text-anchor="middle" x="257.24" y="-99.64" font-family="Helvetica,sans-Serif" font-size="10.00" fill="#63b8ff">1</text>
</a>
</g>
</g>
<!-- dir_7e10c943c08a69732df0d9710348ffa0&#45;&gt;dir_bdd9a5d540de89e9fe90efdfc6973a4f -->
<g id="edge10" class="edge">
<title>dir_7e10c943c08a69732df0d9710348ffa0&#45;&gt;dir_bdd9a5d540de89e9fe90efdfc6973a4f</title>
<g id="a_edge10"><a xlink:href="dir_000083_000042.html" target="_top">
<path fill="none" stroke="#63b8ff" d="M287.26,-127.83C320.9,-119.57 370.45,-105.31 383,-90.5 393.14,-78.54 395.5,-60.67 395.54,-46.88"/>
<polygon fill="#63b8ff" stroke="#63b8ff" points="399.05,-47 395.15,-37.15 392.06,-47.28 399.05,-47"/>
</a>
</g>
<g id="a_edge10&#45;headlabel"><a xlink:href="dir_000083_000042.html" target="_top" xlink:title="1">
<text text-anchor="middle" x="401.97" y="-45.09" font-family="Helvetica,sans-Serif" font-size="10.00" fill="#63b8ff">1</text>
</a>
</g>
</g>
<!-- dir_6c63d3a31e7cac2d832eb76295920122 -->
<g id="node7" class="node">
<title>dir_6c63d3a31e7cac2d832eb76295920122</title>
<g id="a_node7"><a xlink:href="dir_6c63d3a31e7cac2d832eb76295920122.html" target="_top" xlink:title="poweroff">
<polygon fill="#60a2e3" stroke="#404040" points="76.38,-145.75 23.62,-145.75 23.62,-126.5 76.38,-126.5 76.38,-145.75"/>
<text text-anchor="middle" x="50" y="-132.25" font-family="Helvetica,sans-Serif" font-size="10.00">poweroff</text>
</a>
</g>
</g>
<!-- dir_6c63d3a31e7cac2d832eb76295920122&#45;&gt;dir_9be0baa3d4a3e9f480a9ee70594037fa -->
<g id="edge11" class="edge">
<title>dir_6c63d3a31e7cac2d832eb76295920122&#45;&gt;dir_9be0baa3d4a3e9f480a9ee70594037fa</title>
<g id="a_edge11"><a xlink:href="dir_000262_000213.html" target="_top">
<path fill="none" stroke="#63b8ff" d="M57.86,-126.25C73.68,-108.36 109.64,-67.72 130.41,-44.25"/>
<polygon fill="#63b8ff" stroke="#63b8ff" points="133.03,-46.57 137.03,-36.76 127.78,-41.93 133.03,-46.57"/>
</a>
</g>
<g id="a_edge11&#45;headlabel"><a xlink:href="dir_000262_000213.html" target="_top" xlink:title="15">
<text text-anchor="middle" x="133.77" y="-46.13" font-family="Helvetica,sans-Serif" font-size="10.00" fill="#63b8ff">15</text>
</a>
</g>
</g>
<!-- dir_6c63d3a31e7cac2d832eb76295920122&#45;&gt;dir_bdd9a5d540de89e9fe90efdfc6973a4f -->
<g id="edge12" class="edge">
<title>dir_6c63d3a31e7cac2d832eb76295920122&#45;&gt;dir_bdd9a5d540de89e9fe90efdfc6973a4f</title>
<g id="a_edge12"><a xlink:href="dir_000262_000042.html" target="_top">
<path fill="none" stroke="#63b8ff" d="M76.72,-128.38C79.51,-127.73 82.31,-127.09 85,-126.5 168.54,-108.26 196.61,-126.86 274,-90.5 291.22,-82.41 290.73,-73.1 307,-63.25 322.49,-53.87 340.82,-45.77 356.65,-39.58"/>
<polygon fill="#63b8ff" stroke="#63b8ff" points="357.61,-42.96 365.73,-36.15 355.13,-36.41 357.61,-42.96"/>
</a>
</g>
<g id="a_edge12&#45;headlabel"><a xlink:href="dir_000262_000042.html" target="_top" xlink:title="1">
<text text-anchor="middle" x="356.67" y="-42.48" font-family="Helvetica,sans-Serif" font-size="10.00" fill="#63b8ff">1</text>
</a>
</g>
</g>
<!-- dir_965b04ab41d8424e7ba3e3f78bb2fea4 -->
<g id="node8" class="node">
<title>dir_965b04ab41d8424e7ba3e3f78bb2fea4</title>
<g id="a_node8"><a xlink:href="dir_965b04ab41d8424e7ba3e3f78bb2fea4.html" target="_top" xlink:title="pvrdrv">
<polygon fill="#60a2e3" stroke="#404040" points="137.5,-145.75 94.5,-145.75 94.5,-126.5 137.5,-126.5 137.5,-145.75"/>
<text text-anchor="middle" x="116" y="-132.25" font-family="Helvetica,sans-Serif" font-size="10.00">pvrdrv</text>
</a>
</g>
</g>
<!-- dir_965b04ab41d8424e7ba3e3f78bb2fea4&#45;&gt;dir_9be0baa3d4a3e9f480a9ee70594037fa -->
<g id="edge13" class="edge">
<title>dir_965b04ab41d8424e7ba3e3f78bb2fea4&#45;&gt;dir_9be0baa3d4a3e9f480a9ee70594037fa</title>
<g id="a_edge13"><a xlink:href="dir_000268_000213.html" target="_top">
<path fill="none" stroke="#63b8ff" d="M117.33,-126.14C119.49,-112.4 124.21,-85.43 131,-63.25 132.77,-57.48 135.09,-51.35 137.38,-45.8"/>
<polygon fill="#63b8ff" stroke="#63b8ff" points="140.48,-47.45 141.23,-36.88 134.05,-44.67 140.48,-47.45"/>
</a>
</g>
<g id="a_edge13&#45;headlabel"><a xlink:href="dir_000268_000213.html" target="_top" xlink:title="15">
<text text-anchor="middle" x="142.26" y="-46.61" font-family="Helvetica,sans-Serif" font-size="10.00" fill="#63b8ff">15</text>
</a>
</g>
</g>
<!-- dir_965b04ab41d8424e7ba3e3f78bb2fea4&#45;&gt;dir_18566863331aaba44604539ca78be099 -->
<g id="edge15" class="edge">
<title>dir_965b04ab41d8424e7ba3e3f78bb2fea4&#45;&gt;dir_18566863331aaba44604539ca78be099</title>
<g id="a_edge15"><a xlink:href="dir_000268_000047.html" target="_top">
<path fill="none" stroke="#63b8ff" d="M129.23,-126.09C140.77,-118.21 157.77,-106.61 171.45,-97.27"/>
<polygon fill="#63b8ff" stroke="#63b8ff" points="173.17,-100.33 179.45,-91.81 169.22,-94.55 173.17,-100.33"/>
</a>
</g>
<g id="a_edge15&#45;headlabel"><a xlink:href="dir_000268_000047.html" target="_top" xlink:title="2">
<text text-anchor="middle" x="173.05" y="-99.98" font-family="Helvetica,sans-Serif" font-size="10.00" fill="#63b8ff">2</text>
</a>
</g>
</g>
<!-- dir_965b04ab41d8424e7ba3e3f78bb2fea4&#45;&gt;dir_bdd9a5d540de89e9fe90efdfc6973a4f -->
<g id="edge14" class="edge">
<title>dir_965b04ab41d8424e7ba3e3f78bb2fea4&#45;&gt;dir_bdd9a5d540de89e9fe90efdfc6973a4f</title>
<g id="a_edge14"><a xlink:href="dir_000268_000042.html" target="_top">
<path fill="none" stroke="#63b8ff" d="M137.91,-128.66C140.63,-127.91 143.37,-127.17 146,-126.5 217.04,-108.36 240.25,-120.84 307,-90.5 310.65,-88.84 348.36,-60.81 372.92,-42.44"/>
<polygon fill="#63b8ff" stroke="#63b8ff" points="374.77,-45.42 380.68,-36.63 370.58,-39.82 374.77,-45.42"/>
</a>
</g>
<g id="a_edge14&#45;headlabel"><a xlink:href="dir_000268_000042.html" target="_top" xlink:title="2">
<text text-anchor="middle" x="374.81" y="-45.07" font-family="Helvetica,sans-Serif" font-size="10.00" fill="#63b8ff">2</text>
</a>
</g>
</g>
</g>
</svg>
</svg>

<style type='text/css'>
<![CDATA[
[data-mouse-over-selected='false'] { opacity: 0.7; }
[data-mouse-over-selected='true']  { opacity: 1.0; }
]]>
</style>
<script type="application/ecmascript"><![CDATA[
document.addEventListener('DOMContentLoaded', (event) => {
  highlightEdges();
  highlightAdjacentNodes();
});
]]></script>
</svg>
