<?xml version="1.0" encoding="UTF-8" standalone="no"?>
<!DOCTYPE svg PUBLIC "-//W3C//DTD SVG 1.1//EN"
 "http://www.w3.org/Graphics/SVG/1.1/DTD/svg11.dtd">
<!-- Generated by graphviz version 12.2.0 (20241103.1931)
 -->
<!-- Title: iop/system/sio2man Pages: 1 -->
<svg width="534pt" height="181pt"
 viewBox="0.00 0.00 533.75 181.02" xmlns="http://www.w3.org/2000/svg" xmlns:xlink="http://www.w3.org/1999/xlink">
<g id="graph0" class="graph" transform="scale(1 1) rotate(0) translate(4 177.02)">
<title>iop/system/sio2man</title>
<g id="clust1" class="cluster">
<title>clusterdir_40ac35421bc63b72c26b6c69b1517fd6</title>
<g id="a_clust1"><a xlink:href="dir_40ac35421bc63b72c26b6c69b1517fd6.html" target="_top" xlink:title="system">
<polygon fill="#deebf9" stroke="#7f7f7f" stroke-dasharray="5,2" points="8,-39.27 8,-165.02 424,-165.02 424,-39.27 8,-39.27"/>
<text text-anchor="middle" x="216" y="-151.52" font-family="Helvetica,sans-Serif" font-size="10.00">system</text>
</a>
</g>
</g>
<g id="clust2" class="cluster">
<title>clusterdir_1fd4d135da32a6b9ad91946f648cae84</title>
<g id="a_clust2"><a xlink:href="dir_1fd4d135da32a6b9ad91946f648cae84.html" target="_top">
<polygon fill="#deebf9" stroke="#404040" stroke-width="2" points="16,-47.27 16,-137.77 132,-137.77 132,-47.27 16,-47.27"/>
</a>
</g>
</g>
<!-- dir_d7026c86e7f8fc62fc6c0ebacfebf381 -->
<g id="node1" class="node">
<title>dir_d7026c86e7f8fc62fc6c0ebacfebf381</title>
<g id="a_node1"><a xlink:href="dir_d7026c86e7f8fc62fc6c0ebacfebf381.html" target="_top" xlink:title="dmacman">
<polygon fill="#60a2e3" stroke="red" points="198.38,-74.52 139.62,-74.52 139.62,-55.27 198.38,-55.27 198.38,-74.52"/>
<text text-anchor="middle" x="169" y="-61.02" font-family="Helvetica,sans-Serif" font-size="10.00">dmacman</text>
</a>
</g>
</g>
<!-- dir_7422a0894415a12ccd1d562a8ad09f2d -->
<g id="node2" class="node">
<title>dir_7422a0894415a12ccd1d562a8ad09f2d</title>
<g id="a_node2"><a xlink:href="dir_7422a0894415a12ccd1d562a8ad09f2d.html" target="_top" xlink:title="intrman">
<polygon fill="#60a2e3" stroke="red" points="265.12,-74.52 216.88,-74.52 216.88,-55.27 265.12,-55.27 265.12,-74.52"/>
<text text-anchor="middle" x="241" y="-61.02" font-family="Helvetica,sans-Serif" font-size="10.00">intrman</text>
</a>
</g>
</g>
<!-- dir_1d64e5e9f20206636d72b5bbe3d2b274 -->
<g id="node3" class="node">
<title>dir_1d64e5e9f20206636d72b5bbe3d2b274</title>
<g id="a_node3"><a xlink:href="dir_1d64e5e9f20206636d72b5bbe3d2b274.html" target="_top" xlink:title="loadcore">
<polygon fill="#60a2e3" stroke="red" points="336.38,-74.52 283.62,-74.52 283.62,-55.27 336.38,-55.27 336.38,-74.52"/>
<text text-anchor="middle" x="310" y="-61.02" font-family="Helvetica,sans-Serif" font-size="10.00">loadcore</text>
</a>
</g>
</g>
<!-- dir_d3b40e87d731c1e886b7a70e6daaf700 -->
<g id="node4" class="node">
<title>dir_d3b40e87d731c1e886b7a70e6daaf700</title>
<g id="a_node4"><a xlink:href="dir_d3b40e87d731c1e886b7a70e6daaf700.html" target="_top" xlink:title="threadman">
<polygon fill="#60a2e3" stroke="red" points="415.88,-74.52 354.12,-74.52 354.12,-55.27 415.88,-55.27 415.88,-74.52"/>
<text text-anchor="middle" x="385" y="-61.02" font-family="Helvetica,sans-Serif" font-size="10.00">threadman</text>
</a>
</g>
</g>
<!-- dir_1fd4d135da32a6b9ad91946f648cae84 -->
<g id="node5" class="node">
<title>dir_1fd4d135da32a6b9ad91946f648cae84</title>
<text text-anchor="middle" x="50" y="-116.27" font-family="Helvetica,sans-Serif" font-size="10.00">sio2man</text>
</g>
<!-- dir_5bd868b9dc477089b3a8cf6ff153fb80 -->
<g id="node6" class="node">
<title>dir_5bd868b9dc477089b3a8cf6ff153fb80</title>
<g id="a_node6"><a xlink:href="dir_5bd868b9dc477089b3a8cf6ff153fb80.html" target="_top" xlink:title="include">
<polygon fill="#60a2e3" stroke="#404040" points="121.38,-74.52 74.62,-74.52 74.62,-55.27 121.38,-55.27 121.38,-74.52"/>
<text text-anchor="middle" x="98" y="-61.02" font-family="Helvetica,sans-Serif" font-size="10.00">include</text>
</a>
</g>
</g>
<!-- dir_9be0baa3d4a3e9f480a9ee70594037fa -->
<g id="node8" class="node">
<title>dir_9be0baa3d4a3e9f480a9ee70594037fa</title>
<g id="a_node8"><a xlink:href="dir_9be0baa3d4a3e9f480a9ee70594037fa.html" target="_top" xlink:title="kernel">
<polygon fill="#deebf9" stroke="red" stroke-dasharray="5,2" points="292.12,-19.27 249.88,-19.27 249.88,-0.02 292.12,-0.02 292.12,-19.27"/>
<text text-anchor="middle" x="271" y="-5.77" font-family="Helvetica,sans-Serif" font-size="10.00">kernel</text>
</a>
</g>
</g>
<!-- dir_5bd868b9dc477089b3a8cf6ff153fb80&#45;&gt;dir_9be0baa3d4a3e9f480a9ee70594037fa -->
<g id="edge1" class="edge">
<title>dir_5bd868b9dc477089b3a8cf6ff153fb80&#45;&gt;dir_9be0baa3d4a3e9f480a9ee70594037fa</title>
<g id="a_edge1"><a xlink:href="dir_000225_000256.html" target="_top">
<path fill="none" stroke="#63b8ff" d="M105.6,-54.81C110.58,-49.47 117.52,-43.04 125,-39.27 161.05,-21.12 207.48,-14.46 238.2,-12.03"/>
<polygon fill="#63b8ff" stroke="#63b8ff" points="238.28,-15.53 248.03,-11.37 237.81,-8.55 238.28,-15.53"/>
</a>
</g>
<g id="a_edge1&#45;headlabel"><a xlink:href="dir_000225_000256.html" target="_top" xlink:title="1">
<text text-anchor="middle" x="236.4" y="-14.63" font-family="Helvetica,sans-Serif" font-size="10.00" fill="#63b8ff">1</text>
</a>
</g>
</g>
<!-- dir_1f4d3c5c1e3e1feb3d94e36d4b775ae1 -->
<g id="node7" class="node">
<title>dir_1f4d3c5c1e3e1feb3d94e36d4b775ae1</title>
<g id="a_node7"><a xlink:href="dir_1f4d3c5c1e3e1feb3d94e36d4b775ae1.html" target="_top" xlink:title="src">
<polygon fill="#60a2e3" stroke="#404040" points="123.75,-129.77 94.25,-129.77 94.25,-110.52 123.75,-110.52 123.75,-129.77"/>
<text text-anchor="middle" x="109" y="-116.27" font-family="Helvetica,sans-Serif" font-size="10.00">src</text>
</a>
</g>
</g>
<!-- dir_1f4d3c5c1e3e1feb3d94e36d4b775ae1&#45;&gt;dir_d7026c86e7f8fc62fc6c0ebacfebf381 -->
<g id="edge8" class="edge">
<title>dir_1f4d3c5c1e3e1feb3d94e36d4b775ae1&#45;&gt;dir_d7026c86e7f8fc62fc6c0ebacfebf381</title>
<g id="a_edge8"><a xlink:href="dir_000531_000055.html" target="_top">
<path fill="none" stroke="#63b8ff" d="M119.18,-110.11C127.76,-102.49 140.27,-91.4 150.6,-82.22"/>
<polygon fill="#63b8ff" stroke="#63b8ff" points="152.68,-85.06 157.84,-75.8 148.04,-79.82 152.68,-85.06"/>
</a>
</g>
<g id="a_edge8&#45;headlabel"><a xlink:href="dir_000531_000055.html" target="_top" xlink:title="1">
<text text-anchor="middle" x="153.01" y="-84.69" font-family="Helvetica,sans-Serif" font-size="10.00" fill="#63b8ff">1</text>
</a>
</g>
</g>
<!-- dir_1f4d3c5c1e3e1feb3d94e36d4b775ae1&#45;&gt;dir_7422a0894415a12ccd1d562a8ad09f2d -->
<g id="edge4" class="edge">
<title>dir_1f4d3c5c1e3e1feb3d94e36d4b775ae1&#45;&gt;dir_7422a0894415a12ccd1d562a8ad09f2d</title>
<g id="a_edge4"><a xlink:href="dir_000531_000246.html" target="_top">
<path fill="none" stroke="#63b8ff" d="M124.14,-113.04C144.5,-104.83 181.23,-90.01 208.09,-79.17"/>
<polygon fill="#63b8ff" stroke="#63b8ff" points="209.2,-82.5 217.16,-75.51 206.58,-76.01 209.2,-82.5"/>
</a>
</g>
<g id="a_edge4&#45;headlabel"><a xlink:href="dir_000531_000246.html" target="_top" xlink:title="1">
<text text-anchor="middle" x="208.33" y="-82.04" font-family="Helvetica,sans-Serif" font-size="10.00" fill="#63b8ff">1</text>
</a>
</g>
</g>
<!-- dir_1f4d3c5c1e3e1feb3d94e36d4b775ae1&#45;&gt;dir_1d64e5e9f20206636d72b5bbe3d2b274 -->
<g id="edge2" class="edge">
<title>dir_1f4d3c5c1e3e1feb3d94e36d4b775ae1&#45;&gt;dir_1d64e5e9f20206636d72b5bbe3d2b274</title>
<g id="a_edge2"><a xlink:href="dir_000531_000272.html" target="_top">
<path fill="none" stroke="#63b8ff" d="M124.11,-115.14C155.27,-106.89 227.48,-87.76 272.18,-75.92"/>
<polygon fill="#63b8ff" stroke="#63b8ff" points="272.94,-79.33 281.71,-73.39 271.15,-72.57 272.94,-79.33"/>
</a>
</g>
<g id="a_edge2&#45;headlabel"><a xlink:href="dir_000531_000272.html" target="_top" xlink:title="1">
<text text-anchor="middle" x="271.66" y="-78.74" font-family="Helvetica,sans-Serif" font-size="10.00" fill="#63b8ff">1</text>
</a>
</g>
</g>
<!-- dir_1f4d3c5c1e3e1feb3d94e36d4b775ae1&#45;&gt;dir_d3b40e87d731c1e886b7a70e6daaf700 -->
<g id="edge7" class="edge">
<title>dir_1f4d3c5c1e3e1feb3d94e36d4b775ae1&#45;&gt;dir_d3b40e87d731c1e886b7a70e6daaf700</title>
<g id="a_edge7"><a xlink:href="dir_000531_000580.html" target="_top">
<path fill="none" stroke="#63b8ff" d="M124.21,-116.41C160.26,-109.89 253.92,-92.79 342.9,-74.9"/>
<polygon fill="#63b8ff" stroke="#63b8ff" points="343.41,-78.37 352.52,-72.96 342.03,-71.51 343.41,-78.37"/>
</a>
</g>
<g id="a_edge7&#45;headlabel"><a xlink:href="dir_000531_000580.html" target="_top" xlink:title="1">
<text text-anchor="middle" x="341.94" y="-77.69" font-family="Helvetica,sans-Serif" font-size="10.00" fill="#63b8ff">1</text>
</a>
</g>
</g>
<!-- dir_1f4d3c5c1e3e1feb3d94e36d4b775ae1&#45;&gt;dir_5bd868b9dc477089b3a8cf6ff153fb80 -->
<g id="edge3" class="edge">
<title>dir_1f4d3c5c1e3e1feb3d94e36d4b775ae1&#45;&gt;dir_5bd868b9dc477089b3a8cf6ff153fb80</title>
<g id="a_edge3"><a xlink:href="dir_000531_000225.html" target="_top">
<path fill="none" stroke="#63b8ff" d="M107.18,-110.35C105.82,-103.76 103.9,-94.48 102.17,-86.1"/>
<polygon fill="#63b8ff" stroke="#63b8ff" points="105.61,-85.45 100.16,-76.36 98.76,-86.86 105.61,-85.45"/>
</a>
</g>
<g id="a_edge3&#45;headlabel"><a xlink:href="dir_000531_000225.html" target="_top" xlink:title="1">
<text text-anchor="middle" x="108.81" y="-83.04" font-family="Helvetica,sans-Serif" font-size="10.00" fill="#63b8ff">1</text>
</a>
</g>
</g>
<!-- dir_1f4d3c5c1e3e1feb3d94e36d4b775ae1&#45;&gt;dir_9be0baa3d4a3e9f480a9ee70594037fa -->
<g id="edge5" class="edge">
<title>dir_1f4d3c5c1e3e1feb3d94e36d4b775ae1&#45;&gt;dir_9be0baa3d4a3e9f480a9ee70594037fa</title>
<g id="a_edge5"><a xlink:href="dir_000531_000256.html" target="_top">
<path fill="none" stroke="#63b8ff" d="M124.15,-119.51C181.99,-120.53 387.72,-120.83 428,-74.52 438.28,-62.7 438.04,-51.3 428,-39.27 412.49,-20.68 345,-14.13 303.72,-11.85"/>
<polygon fill="#63b8ff" stroke="#63b8ff" points="304.01,-8.36 293.85,-11.36 303.66,-15.35 304.01,-8.36"/>
</a>
</g>
<g id="a_edge5&#45;headlabel"><a xlink:href="dir_000531_000256.html" target="_top" xlink:title="1">
<text text-anchor="middle" x="306.23" y="-1.75" font-family="Helvetica,sans-Serif" font-size="10.00" fill="#63b8ff">1</text>
</a>
</g>
</g>
<!-- dir_bdd9a5d540de89e9fe90efdfc6973a4f -->
<g id="node9" class="node">
<title>dir_bdd9a5d540de89e9fe90efdfc6973a4f</title>
<g id="a_node9"><a xlink:href="dir_bdd9a5d540de89e9fe90efdfc6973a4f.html" target="_top" xlink:title="common">
<polygon fill="#deebf9" stroke="red" points="525.75,-74.52 472.25,-74.52 472.25,-55.27 525.75,-55.27 525.75,-74.52"/>
<text text-anchor="middle" x="499" y="-61.02" font-family="Helvetica,sans-Serif" font-size="10.00">common</text>
</a>
</g>
</g>
<!-- dir_1f4d3c5c1e3e1feb3d94e36d4b775ae1&#45;&gt;dir_bdd9a5d540de89e9fe90efdfc6973a4f -->
<g id="edge6" class="edge">
<title>dir_1f4d3c5c1e3e1feb3d94e36d4b775ae1&#45;&gt;dir_bdd9a5d540de89e9fe90efdfc6973a4f</title>
<g id="a_edge6"><a xlink:href="dir_000531_000046.html" target="_top">
<path fill="none" stroke="#63b8ff" d="M124.03,-117.66C172.56,-112.77 329.41,-96.23 458,-74.52 459,-74.35 460.02,-74.18 461.05,-73.99"/>
<polygon fill="#63b8ff" stroke="#63b8ff" points="461.5,-77.47 470.67,-72.15 460.19,-70.59 461.5,-77.47"/>
</a>
</g>
<g id="a_edge6&#45;headlabel"><a xlink:href="dir_000531_000046.html" target="_top" xlink:title="1">
<text text-anchor="middle" x="459.99" y="-76.77" font-family="Helvetica,sans-Serif" font-size="10.00" fill="#63b8ff">1</text>
</a>
</g>
</g>
</g>
</svg>
