<?xml version="1.0" encoding="UTF-8" standalone="no"?>
<!DOCTYPE svg PUBLIC "-//W3C//DTD SVG 1.1//EN"
 "http://www.w3.org/Graphics/SVG/1.1/DTD/svg11.dtd">
<!-- Generated by graphviz version 2.44.0 ()
 -->
<!-- Title: iop/sio Pages: 1 -->
<svg width="246pt" height="319pt"
 viewBox="0.00 0.00 246.00 319.00" xmlns="http://www.w3.org/2000/svg" xmlns:xlink="http://www.w3.org/1999/xlink">
<g id="graph0" class="graph" transform="scale(1 1) rotate(0) translate(4 315)">
<title>iop/sio</title>
<polygon fill="white" stroke="transparent" points="-4,4 -4,-315 242,-315 242,4 -4,4"/>
<g id="clust1" class="cluster">
<title>clusterdir_0981ace215aa2029f526b70c145b9fbe</title>
<g id="a_clust1"><a xlink:href="dir_0981ace215aa2029f526b70c145b9fbe.html" target="_top" xlink:title="iop">
<polygon fill="#ddddee" stroke="black" points="8,-8 8,-303 176,-303 176,-8 8,-8"/>
<text text-anchor="middle" x="92" y="-291" font-family="Helvetica,sans-Serif" font-size="10.00">iop</text>
</a>
</g>
</g>
<g id="clust2" class="cluster">
<title>clusterdir_6133ef156cce03413acfdeebec722ba1</title>
<g id="a_clust2"><a xlink:href="dir_6133ef156cce03413acfdeebec722ba1.html" target="_top">
<polygon fill="#eeeeff" stroke="black" points="16,-224 16,-276 168,-276 168,-224 16,-224"/>
</a>
</g>
</g>
<!-- dir_9be0baa3d4a3e9f480a9ee70594037fa -->
<g id="node1" class="node">
<title>dir_9be0baa3d4a3e9f480a9ee70594037fa</title>
<g id="a_node1"><a xlink:href="dir_9be0baa3d4a3e9f480a9ee70594037fa.html" target="_top" xlink:title="kernel">
<polygon fill="white" stroke="red" points="153,-124 99,-124 99,-88 153,-88 153,-124"/>
<text text-anchor="middle" x="126" y="-103.5" font-family="Helvetica,sans-Serif" font-size="10.00">kernel</text>
</a>
</g>
</g>
<!-- dir_40ac35421bc63b72c26b6c69b1517fd6 -->
<g id="node3" class="node">
<title>dir_40ac35421bc63b72c26b6c69b1517fd6</title>
<g id="a_node3"><a xlink:href="dir_40ac35421bc63b72c26b6c69b1517fd6.html" target="_top" xlink:title="system">
<polygon fill="white" stroke="red" points="153,-52 99,-52 99,-16 153,-16 153,-52"/>
<text text-anchor="middle" x="126" y="-31.5" font-family="Helvetica,sans-Serif" font-size="10.00">system</text>
</a>
</g>
</g>
<!-- dir_9be0baa3d4a3e9f480a9ee70594037fa&#45;&gt;dir_40ac35421bc63b72c26b6c69b1517fd6 -->
<g id="edge1" class="edge">
<title>dir_9be0baa3d4a3e9f480a9ee70594037fa&#45;&gt;dir_40ac35421bc63b72c26b6c69b1517fd6</title>
<path fill="none" stroke="black" d="M120.08,-87.7C119.29,-79.98 119.06,-70.71 119.4,-62.11"/>
<polygon fill="black" stroke="black" points="122.9,-62.32 120.1,-52.1 115.92,-61.84 122.9,-62.32"/>
<g id="a_edge1&#45;headlabel"><a xlink:href="dir_000214_000089.html" target="_top" xlink:title="2">
<text text-anchor="middle" x="125.48" y="-63.61" font-family="Helvetica,sans-Serif" font-size="10.00">2</text>
</a>
</g>
</g>
<!-- dir_bdd9a5d540de89e9fe90efdfc6973a4f -->
<g id="node6" class="node">
<title>dir_bdd9a5d540de89e9fe90efdfc6973a4f</title>
<g id="a_node6"><a xlink:href="dir_bdd9a5d540de89e9fe90efdfc6973a4f.html" target="_top" xlink:title="common">
<polygon fill="white" stroke="red" points="238,-52 184,-52 184,-16 238,-16 238,-52"/>
<text text-anchor="middle" x="211" y="-31.5" font-family="Helvetica,sans-Serif" font-size="10.00">common</text>
</a>
</g>
</g>
<!-- dir_9be0baa3d4a3e9f480a9ee70594037fa&#45;&gt;dir_bdd9a5d540de89e9fe90efdfc6973a4f -->
<g id="edge2" class="edge">
<title>dir_9be0baa3d4a3e9f480a9ee70594037fa&#45;&gt;dir_bdd9a5d540de89e9fe90efdfc6973a4f</title>
<path fill="none" stroke="black" d="M141.1,-87.7C150.89,-78.88 163.9,-68.03 176.08,-58.47"/>
<polygon fill="black" stroke="black" points="178.56,-60.98 184.34,-52.1 174.28,-55.44 178.56,-60.98"/>
<g id="a_edge2&#45;headlabel"><a xlink:href="dir_000214_000000.html" target="_top" xlink:title="12">
<text text-anchor="middle" x="177.45" y="-62.93" font-family="Helvetica,sans-Serif" font-size="10.00">12</text>
</a>
</g>
</g>
<!-- dir_f24daea2522ffa8b6dc5fa9cdf5b8f5c -->
<g id="node2" class="node">
<title>dir_f24daea2522ffa8b6dc5fa9cdf5b8f5c</title>
<g id="a_node2"><a xlink:href="dir_f24daea2522ffa8b6dc5fa9cdf5b8f5c.html" target="_top" xlink:title="fs">
<polygon fill="white" stroke="red" points="120,-196 66,-196 66,-160 120,-160 120,-196"/>
<text text-anchor="middle" x="93" y="-175.5" font-family="Helvetica,sans-Serif" font-size="10.00">fs</text>
</a>
</g>
</g>
<!-- dir_f24daea2522ffa8b6dc5fa9cdf5b8f5c&#45;&gt;dir_9be0baa3d4a3e9f480a9ee70594037fa -->
<g id="edge5" class="edge">
<title>dir_f24daea2522ffa8b6dc5fa9cdf5b8f5c&#45;&gt;dir_9be0baa3d4a3e9f480a9ee70594037fa</title>
<path fill="none" stroke="black" d="M101.16,-159.7C104.91,-151.73 109.45,-142.1 113.62,-133.26"/>
<polygon fill="black" stroke="black" points="116.84,-134.64 117.94,-124.1 110.51,-131.66 116.84,-134.64"/>
<g id="a_edge5&#45;headlabel"><a xlink:href="dir_000035_000214.html" target="_top" xlink:title="144">
<text text-anchor="middle" x="117.87" y="-136.6" font-family="Helvetica,sans-Serif" font-size="10.00">144</text>
</a>
</g>
</g>
<!-- dir_f24daea2522ffa8b6dc5fa9cdf5b8f5c&#45;&gt;dir_40ac35421bc63b72c26b6c69b1517fd6 -->
<g id="edge7" class="edge">
<title>dir_f24daea2522ffa8b6dc5fa9cdf5b8f5c&#45;&gt;dir_40ac35421bc63b72c26b6c69b1517fd6</title>
<path fill="none" stroke="black" d="M89.17,-159.83C85.83,-141.58 82.59,-112.09 90,-88 93.01,-78.22 98.51,-68.62 104.32,-60.33"/>
<polygon fill="black" stroke="black" points="107.19,-62.33 110.39,-52.23 101.59,-58.13 107.19,-62.33"/>
<g id="a_edge7&#45;headlabel"><a xlink:href="dir_000035_000089.html" target="_top" xlink:title="3">
<text text-anchor="middle" x="107.31" y="-64.41" font-family="Helvetica,sans-Serif" font-size="10.00">3</text>
</a>
</g>
</g>
<!-- dir_f24daea2522ffa8b6dc5fa9cdf5b8f5c&#45;&gt;dir_bdd9a5d540de89e9fe90efdfc6973a4f -->
<g id="edge6" class="edge">
<title>dir_f24daea2522ffa8b6dc5fa9cdf5b8f5c&#45;&gt;dir_bdd9a5d540de89e9fe90efdfc6973a4f</title>
<path fill="none" stroke="black" d="M120.06,-160.13C133.76,-150.67 149.99,-137.98 162,-124 178.24,-105.08 191.49,-79.92 200.09,-61.18"/>
<polygon fill="black" stroke="black" points="203.3,-62.59 204.16,-52.03 196.9,-59.74 203.3,-62.59"/>
<g id="a_edge6&#45;headlabel"><a xlink:href="dir_000035_000000.html" target="_top" xlink:title="9">
<text text-anchor="middle" x="204.43" y="-64.53" font-family="Helvetica,sans-Serif" font-size="10.00">9</text>
</a>
</g>
</g>
<!-- dir_40ac35421bc63b72c26b6c69b1517fd6&#45;&gt;dir_9be0baa3d4a3e9f480a9ee70594037fa -->
<g id="edge3" class="edge">
<title>dir_40ac35421bc63b72c26b6c69b1517fd6&#45;&gt;dir_9be0baa3d4a3e9f480a9ee70594037fa</title>
<path fill="none" stroke="black" d="M131.9,-52.1C132.7,-59.79 132.94,-69.05 132.6,-77.67"/>
<polygon fill="black" stroke="black" points="129.11,-77.48 131.92,-87.7 136.09,-77.96 129.11,-77.48"/>
<g id="a_edge3&#45;headlabel"><a xlink:href="dir_000089_000214.html" target="_top" xlink:title="176">
<text text-anchor="middle" x="126.52" y="-71.2" font-family="Helvetica,sans-Serif" font-size="10.00">176</text>
</a>
</g>
</g>
<!-- dir_40ac35421bc63b72c26b6c69b1517fd6&#45;&gt;dir_bdd9a5d540de89e9fe90efdfc6973a4f -->
<g id="edge4" class="edge">
<title>dir_40ac35421bc63b72c26b6c69b1517fd6&#45;&gt;dir_bdd9a5d540de89e9fe90efdfc6973a4f</title>
<path fill="none" stroke="black" d="M153.23,-34C160.1,-34 166.97,-34 173.85,-34"/>
<polygon fill="black" stroke="black" points="173.92,-37.5 183.92,-34 173.92,-30.5 173.92,-37.5"/>
<g id="a_edge4&#45;headlabel"><a xlink:href="dir_000089_000000.html" target="_top" xlink:title="3">
<text text-anchor="middle" x="170.32" y="-37.84" font-family="Helvetica,sans-Serif" font-size="10.00">3</text>
</a>
</g>
</g>
<!-- dir_6133ef156cce03413acfdeebec722ba1 -->
<g id="node4" class="node">
<title>dir_6133ef156cce03413acfdeebec722ba1</title>
<text text-anchor="middle" x="133" y="-247.5" font-family="Helvetica,sans-Serif" font-size="10.00">sio</text>
</g>
<!-- dir_1b4c53ad4cba67b900d09766188e54d5 -->
<g id="node5" class="node">
<title>dir_1b4c53ad4cba67b900d09766188e54d5</title>
<g id="a_node5"><a xlink:href="dir_1b4c53ad4cba67b900d09766188e54d5.html" target="_top" xlink:title="mx4sio_bd">
<polygon fill="white" stroke="red" points="87.5,-268 24.5,-268 24.5,-232 87.5,-232 87.5,-268"/>
<text text-anchor="middle" x="56" y="-247.5" font-family="Helvetica,sans-Serif" font-size="10.00">mx4sio_bd</text>
</a>
</g>
</g>
<!-- dir_1b4c53ad4cba67b900d09766188e54d5&#45;&gt;dir_9be0baa3d4a3e9f480a9ee70594037fa -->
<g id="edge8" class="edge">
<title>dir_1b4c53ad4cba67b900d09766188e54d5&#45;&gt;dir_9be0baa3d4a3e9f480a9ee70594037fa</title>
<path fill="none" stroke="black" d="M84.71,-231.98C102.96,-220.49 124.06,-205.7 129,-196 138.73,-176.91 137.05,-152.41 133.46,-133.95"/>
<polygon fill="black" stroke="black" points="136.86,-133.12 131.26,-124.13 130.03,-134.65 136.86,-133.12"/>
<g id="a_edge8&#45;headlabel"><a xlink:href="dir_000078_000214.html" target="_top" xlink:title="23">
<text text-anchor="middle" x="140.41" y="-133.51" font-family="Helvetica,sans-Serif" font-size="10.00">23</text>
</a>
</g>
</g>
<!-- dir_1b4c53ad4cba67b900d09766188e54d5&#45;&gt;dir_f24daea2522ffa8b6dc5fa9cdf5b8f5c -->
<g id="edge9" class="edge">
<title>dir_1b4c53ad4cba67b900d09766188e54d5&#45;&gt;dir_f24daea2522ffa8b6dc5fa9cdf5b8f5c</title>
<path fill="none" stroke="black" d="M65.15,-231.7C69.4,-223.64 74.56,-213.89 79.27,-204.98"/>
<polygon fill="black" stroke="black" points="82.38,-206.58 83.96,-196.1 76.19,-203.31 82.38,-206.58"/>
<g id="a_edge9&#45;headlabel"><a xlink:href="dir_000078_000035.html" target="_top" xlink:title="2">
<text text-anchor="middle" x="83.21" y="-208.59" font-family="Helvetica,sans-Serif" font-size="10.00">2</text>
</a>
</g>
</g>
<!-- dir_1b4c53ad4cba67b900d09766188e54d5&#45;&gt;dir_40ac35421bc63b72c26b6c69b1517fd6 -->
<g id="edge10" class="edge">
<title>dir_1b4c53ad4cba67b900d09766188e54d5&#45;&gt;dir_40ac35421bc63b72c26b6c69b1517fd6</title>
<path fill="none" stroke="black" d="M54.57,-231.79C53.44,-213.75 52.7,-184.66 57,-160 62.82,-126.63 65.36,-117.5 82,-88 87.52,-78.21 94.92,-68.47 102.07,-60.06"/>
<polygon fill="black" stroke="black" points="104.79,-62.26 108.78,-52.44 99.54,-57.63 104.79,-62.26"/>
<g id="a_edge10&#45;headlabel"><a xlink:href="dir_000078_000089.html" target="_top" xlink:title="1">
<text text-anchor="middle" x="104.55" y="-64.33" font-family="Helvetica,sans-Serif" font-size="10.00">1</text>
</a>
</g>
</g>
<!-- dir_1b4c53ad4cba67b900d09766188e54d5&#45;&gt;dir_bdd9a5d540de89e9fe90efdfc6973a4f -->
<g id="edge11" class="edge">
<title>dir_1b4c53ad4cba67b900d09766188e54d5&#45;&gt;dir_bdd9a5d540de89e9fe90efdfc6973a4f</title>
<path fill="none" stroke="black" d="M81.99,-231.97C86.87,-229.11 92.01,-226.33 97,-224 132.28,-207.54 154.39,-225.32 180,-196 212.58,-158.69 215.19,-97.72 213.52,-62.49"/>
<polygon fill="black" stroke="black" points="217.01,-62.2 212.9,-52.44 210.03,-62.64 217.01,-62.2"/>
<g id="a_edge11&#45;headlabel"><a xlink:href="dir_000078_000000.html" target="_top" xlink:title="2">
<text text-anchor="middle" x="220.07" y="-63.11" font-family="Helvetica,sans-Serif" font-size="10.00">2</text>
</a>
</g>
</g>
<!-- dir_bdd9a5d540de89e9fe90efdfc6973a4f&#45;&gt;dir_9be0baa3d4a3e9f480a9ee70594037fa -->
<g id="edge12" class="edge">
<title>dir_bdd9a5d540de89e9fe90efdfc6973a4f&#45;&gt;dir_9be0baa3d4a3e9f480a9ee70594037fa</title>
<path fill="none" stroke="black" d="M196.13,-52.1C186.38,-60.89 173.39,-71.73 161.19,-81.31"/>
<polygon fill="black" stroke="black" points="158.7,-78.81 152.93,-87.7 162.98,-84.35 158.7,-78.81"/>
<g id="a_edge12&#45;headlabel"><a xlink:href="dir_000000_000214.html" target="_top" xlink:title="20">
<text text-anchor="middle" x="159.81" y="-71.87" font-family="Helvetica,sans-Serif" font-size="10.00">20</text>
</a>
</g>
</g>
</g>
</svg>
