<?xml version="1.0" encoding="UTF-8" standalone="no"?>
<!DOCTYPE svg PUBLIC "-//W3C//DTD SVG 1.1//EN"
 "http://www.w3.org/Graphics/SVG/1.1/DTD/svg11.dtd">
<!-- Generated by graphviz version 2.43.0 (0)
 -->
<!-- Title: iop/system/padman Pages: 1 -->
<!--zoomable 591 -->
<svg id="main" version="1.1" xmlns="http://www.w3.org/2000/svg" xmlns:xlink="http://www.w3.org/1999/xlink" xml:space="preserve" onload="init(evt)">
<style type="text/css"><![CDATA[
.edge:hover path { stroke: red; }
.edge:hover polygon { stroke: red; fill: red; }
]]></style>
<script type="text/javascript"><![CDATA[
var edges = document.getElementsByTagName('g');
if (edges && edges.length) {
  for (var i=0;i<edges.length;i++) {
    if (edges[i].id.substr(0,4)=='edge') {
      edges[i].setAttribute('class','edge');
    }
  }
}
]]></script>
        <defs>
                <circle id="rim" cx="0" cy="0" r="7"/>
                <circle id="rim2" cx="0" cy="0" r="3.5"/>
                <g id="zoomPlus">
                        <use xlink:href="#rim" fill="#404040">
                                <set attributeName="fill" to="#808080" begin="zoomplus.mouseover" end="zoomplus.mouseout"/>
                        </use>
                        <path d="M-4,0h8M0,-4v8" fill="none" stroke="white" stroke-width="1.5" pointer-events="none"/>
                </g>
                <g id="zoomMin">
                        <use xlink:href="#rim" fill="#404040">
                                <set attributeName="fill" to="#808080" begin="zoomminus.mouseover" end="zoomminus.mouseout"/>
                        </use>
                        <path d="M-4,0h8" fill="none" stroke="white" stroke-width="1.5" pointer-events="none"/>
                </g>
                <g id="dirArrow">
                        <path fill="none" stroke="white" stroke-width="1.5" d="M0,-3.0v7 M-2.5,-0.5L0,-3.0L2.5,-0.5"/>
                </g>
               <g id="resetDef">
                       <use xlink:href="#rim2" fill="#404040">
                               <set attributeName="fill" to="#808080" begin="reset.mouseover" end="reset.mouseout"/>
                       </use>
               </g>
        </defs>

<script type="text/javascript">
var viewWidth = 740;
var viewHeight = 591;
var sectionId = 'dynsection-0';
</script>
<script xlink:href="svgpan.js"/>
<svg id="graph" class="graph">
<g id="viewport">
<title>iop/system/padman</title>
<polygon fill="white" stroke="transparent" points="-4,4 -4,-587 736,-587 736,4 -4,4"/>
<g id="clust1" class="cluster">
<title>clusterdir_40ac35421bc63b72c26b6c69b1517fd6</title>
<g id="a_clust1"><a xlink:href="dir_40ac35421bc63b72c26b6c69b1517fd6.html" target="_top" xlink:title="system">
<polygon fill="#ddddee" stroke="black" points="279,-488 279,-575 511,-575 511,-488 279,-488"/>
<text text-anchor="middle" x="395" y="-563" font-family="Helvetica,sans-Serif" font-size="10.00">system</text>
</a>
</g>
</g>
<g id="clust2" class="cluster">
<title>clusterdir_cb26f304a37e679cc21ccc4e4a07be73</title>
<g id="a_clust2"><a xlink:href="dir_cb26f304a37e679cc21ccc4e4a07be73.html" target="_top">
<polygon fill="#eeeeff" stroke="black" points="287,-496 287,-548 503,-548 503,-496 287,-496"/>
</a>
</g>
</g>
<!-- dir_cb26f304a37e679cc21ccc4e4a07be73 -->
<g id="node1" class="node">
<title>dir_cb26f304a37e679cc21ccc4e4a07be73</title>
<text text-anchor="middle" x="467" y="-519.5" font-family="Helvetica,sans-Serif" font-size="10.00">padman</text>
</g>
<!-- dir_a76994e561c6542eb833ce58c49a75d3 -->
<g id="node2" class="node">
<title>dir_a76994e561c6542eb833ce58c49a75d3</title>
<g id="a_node2"><a xlink:href="dir_a76994e561c6542eb833ce58c49a75d3.html" target="_top" xlink:title="include">
<polygon fill="white" stroke="black" points="349,-540 295,-540 295,-504 349,-504 349,-540"/>
<text text-anchor="middle" x="322" y="-519.5" font-family="Helvetica,sans-Serif" font-size="10.00">include</text>
</a>
</g>
</g>
<!-- dir_9be0baa3d4a3e9f480a9ee70594037fa -->
<g id="node4" class="node">
<title>dir_9be0baa3d4a3e9f480a9ee70594037fa</title>
<g id="a_node4"><a xlink:href="dir_9be0baa3d4a3e9f480a9ee70594037fa.html" target="_top" xlink:title="kernel">
<polygon fill="white" stroke="red" points="385,-36 331,-36 331,0 385,0 385,-36"/>
<text text-anchor="middle" x="358" y="-15.5" font-family="Helvetica,sans-Serif" font-size="10.00">kernel</text>
</a>
</g>
</g>
<!-- dir_a76994e561c6542eb833ce58c49a75d3&#45;&gt;dir_9be0baa3d4a3e9f480a9ee70594037fa -->
<g id="edge13" class="edge">
<title>dir_a76994e561c6542eb833ce58c49a75d3&#45;&gt;dir_9be0baa3d4a3e9f480a9ee70594037fa</title>
<path fill="none" stroke="black" d="M294.82,-521.32C217.19,-520.69 0,-507.46 0,-379 0,-379 0,-379 0,-161 0,-115.19 14.37,-98.12 52,-72 94.97,-42.17 248.6,-27.11 320.45,-21.57"/>
<polygon fill="black" stroke="black" points="321.13,-25.03 330.84,-20.79 320.61,-18.05 321.13,-25.03"/>
<g id="a_edge13&#45;headlabel"><a xlink:href="dir_000565_000525.html" target="_top" xlink:title="1">
<text text-anchor="middle" x="317.76" y="-25.63" font-family="Helvetica,sans-Serif" font-size="10.00">1</text>
</a>
</g>
</g>
<!-- dir_12dc7cff0c3b2c52dc4bc086c7616969 -->
<g id="node3" class="node">
<title>dir_12dc7cff0c3b2c52dc4bc086c7616969</title>
<g id="a_node3"><a xlink:href="dir_12dc7cff0c3b2c52dc4bc086c7616969.html" target="_top" xlink:title="src">
<polygon fill="white" stroke="black" points="421,-540 367,-540 367,-504 421,-504 421,-540"/>
<text text-anchor="middle" x="394" y="-519.5" font-family="Helvetica,sans-Serif" font-size="10.00">src</text>
</a>
</g>
</g>
<!-- dir_12dc7cff0c3b2c52dc4bc086c7616969&#45;&gt;dir_9be0baa3d4a3e9f480a9ee70594037fa -->
<g id="edge1" class="edge">
<title>dir_12dc7cff0c3b2c52dc4bc086c7616969&#45;&gt;dir_9be0baa3d4a3e9f480a9ee70594037fa</title>
<path fill="none" stroke="black" d="M408.5,-503.75C414.51,-497.75 421.96,-491.63 430,-488 507,-453.27 540.76,-499.82 619,-468 678.22,-443.91 732,-442.93 732,-379 732,-379 732,-379 732,-161 732,-110.68 705.2,-97.81 662,-72 617.49,-45.41 466.49,-28.73 395.49,-22.18"/>
<polygon fill="black" stroke="black" points="395.48,-18.66 385.21,-21.25 394.85,-25.63 395.48,-18.66"/>
<g id="a_edge1&#45;headlabel"><a xlink:href="dir_000251_000525.html" target="_top" xlink:title="6">
<text text-anchor="middle" x="399.32" y="-13.66" font-family="Helvetica,sans-Serif" font-size="10.00">6</text>
</a>
</g>
</g>
<!-- dir_1d64e5e9f20206636d72b5bbe3d2b274 -->
<g id="node5" class="node">
<title>dir_1d64e5e9f20206636d72b5bbe3d2b274</title>
<g id="a_node5"><a xlink:href="dir_1d64e5e9f20206636d72b5bbe3d2b274.html" target="_top" xlink:title="loadcore">
<polygon fill="white" stroke="red" points="387.5,-180 328.5,-180 328.5,-144 387.5,-144 387.5,-180"/>
<text text-anchor="middle" x="358" y="-159.5" font-family="Helvetica,sans-Serif" font-size="10.00">loadcore</text>
</a>
</g>
</g>
<!-- dir_12dc7cff0c3b2c52dc4bc086c7616969&#45;&gt;dir_1d64e5e9f20206636d72b5bbe3d2b274 -->
<g id="edge2" class="edge">
<title>dir_12dc7cff0c3b2c52dc4bc086c7616969&#45;&gt;dir_1d64e5e9f20206636d72b5bbe3d2b274</title>
<path fill="none" stroke="black" d="M392.26,-503.73C386.48,-446.19 367.82,-260.66 360.75,-190.35"/>
<polygon fill="black" stroke="black" points="364.2,-189.69 359.72,-180.09 357.24,-190.39 364.2,-189.69"/>
<g id="a_edge2&#45;headlabel"><a xlink:href="dir_000251_000240.html" target="_top" xlink:title="2">
<text text-anchor="middle" x="367.39" y="-190.49" font-family="Helvetica,sans-Serif" font-size="10.00">2</text>
</a>
</g>
</g>
<!-- dir_60f7c75aab99249ed9879339d7562ada -->
<g id="node6" class="node">
<title>dir_60f7c75aab99249ed9879339d7562ada</title>
<g id="a_node6"><a xlink:href="dir_60f7c75aab99249ed9879339d7562ada.html" target="_top" xlink:title="vblank">
<polygon fill="white" stroke="red" points="278,-468 224,-468 224,-432 278,-432 278,-468"/>
<text text-anchor="middle" x="251" y="-447.5" font-family="Helvetica,sans-Serif" font-size="10.00">vblank</text>
</a>
</g>
</g>
<!-- dir_12dc7cff0c3b2c52dc4bc086c7616969&#45;&gt;dir_60f7c75aab99249ed9879339d7562ada -->
<g id="edge3" class="edge">
<title>dir_12dc7cff0c3b2c52dc4bc086c7616969&#45;&gt;dir_60f7c75aab99249ed9879339d7562ada</title>
<path fill="none" stroke="black" d="M377.94,-503.67C372.09,-498.09 365.14,-492.25 358,-488 336.28,-475.06 309.37,-465.78 287.98,-459.75"/>
<polygon fill="black" stroke="black" points="288.83,-456.36 278.27,-457.13 287.01,-463.12 288.83,-456.36"/>
<g id="a_edge3&#45;headlabel"><a xlink:href="dir_000251_000282.html" target="_top" xlink:title="3">
<text text-anchor="middle" x="293.04" y="-452.05" font-family="Helvetica,sans-Serif" font-size="10.00">3</text>
</a>
</g>
</g>
<!-- dir_d3b40e87d731c1e886b7a70e6daaf700 -->
<g id="node7" class="node">
<title>dir_d3b40e87d731c1e886b7a70e6daaf700</title>
<g id="a_node7"><a xlink:href="dir_d3b40e87d731c1e886b7a70e6daaf700.html" target="_top" xlink:title="threadman">
<polygon fill="white" stroke="red" points="366,-396 296,-396 296,-360 366,-360 366,-396"/>
<text text-anchor="middle" x="331" y="-375.5" font-family="Helvetica,sans-Serif" font-size="10.00">threadman</text>
</a>
</g>
</g>
<!-- dir_12dc7cff0c3b2c52dc4bc086c7616969&#45;&gt;dir_d3b40e87d731c1e886b7a70e6daaf700 -->
<g id="edge4" class="edge">
<title>dir_12dc7cff0c3b2c52dc4bc086c7616969&#45;&gt;dir_d3b40e87d731c1e886b7a70e6daaf700</title>
<path fill="none" stroke="black" d="M386.4,-503.87C375.57,-479.46 355.59,-434.43 342.82,-405.64"/>
<polygon fill="black" stroke="black" points="345.88,-403.91 338.63,-396.19 339.48,-406.75 345.88,-403.91"/>
<g id="a_edge4&#45;headlabel"><a xlink:href="dir_000251_000276.html" target="_top" xlink:title="12">
<text text-anchor="middle" x="349.93" y="-403.54" font-family="Helvetica,sans-Serif" font-size="10.00">12</text>
</a>
</g>
</g>
<!-- dir_1fd4d135da32a6b9ad91946f648cae84 -->
<g id="node8" class="node">
<title>dir_1fd4d135da32a6b9ad91946f648cae84</title>
<g id="a_node8"><a xlink:href="dir_1fd4d135da32a6b9ad91946f648cae84.html" target="_top" xlink:title="sio2man">
<polygon fill="white" stroke="red" points="481.5,-468 422.5,-468 422.5,-432 481.5,-432 481.5,-468"/>
<text text-anchor="middle" x="452" y="-447.5" font-family="Helvetica,sans-Serif" font-size="10.00">sio2man</text>
</a>
</g>
</g>
<!-- dir_12dc7cff0c3b2c52dc4bc086c7616969&#45;&gt;dir_1fd4d135da32a6b9ad91946f648cae84 -->
<g id="edge5" class="edge">
<title>dir_12dc7cff0c3b2c52dc4bc086c7616969&#45;&gt;dir_1fd4d135da32a6b9ad91946f648cae84</title>
<path fill="none" stroke="black" d="M408.34,-503.7C415.29,-495.3 423.77,-485.07 431.4,-475.86"/>
<polygon fill="black" stroke="black" points="434.14,-478.04 437.83,-468.1 428.75,-473.57 434.14,-478.04"/>
<g id="a_edge5&#45;headlabel"><a xlink:href="dir_000251_000268.html" target="_top" xlink:title="2">
<text text-anchor="middle" x="434.04" y="-480.12" font-family="Helvetica,sans-Serif" font-size="10.00">2</text>
</a>
</g>
</g>
<!-- dir_a0d37aaf829787e8da99f7ff6597b371 -->
<g id="node9" class="node">
<title>dir_a0d37aaf829787e8da99f7ff6597b371</title>
<g id="a_node9"><a xlink:href="dir_a0d37aaf829787e8da99f7ff6597b371.html" target="_top" xlink:title="sifman">
<polygon fill="white" stroke="red" points="628,-396 574,-396 574,-360 628,-360 628,-396"/>
<text text-anchor="middle" x="601" y="-375.5" font-family="Helvetica,sans-Serif" font-size="10.00">sifman</text>
</a>
</g>
</g>
<!-- dir_12dc7cff0c3b2c52dc4bc086c7616969&#45;&gt;dir_a0d37aaf829787e8da99f7ff6597b371 -->
<g id="edge6" class="edge">
<title>dir_12dc7cff0c3b2c52dc4bc086c7616969&#45;&gt;dir_a0d37aaf829787e8da99f7ff6597b371</title>
<path fill="none" stroke="black" d="M408.59,-503.95C414.62,-497.98 422.05,-491.81 430,-488 482.71,-462.72 513.32,-503.19 560,-468 579.78,-453.09 590.33,-426.35 595.74,-406.05"/>
<polygon fill="black" stroke="black" points="599.19,-406.67 598.12,-396.13 592.38,-405.03 599.19,-406.67"/>
<g id="a_edge6&#45;headlabel"><a xlink:href="dir_000251_000264.html" target="_top" xlink:title="4">
<text text-anchor="middle" x="601.11" y="-408.33" font-family="Helvetica,sans-Serif" font-size="10.00">4</text>
</a>
</g>
</g>
<!-- dir_44719da65bb992f08c8ee8632a1136c7 -->
<g id="node10" class="node">
<title>dir_44719da65bb992f08c8ee8632a1136c7</title>
<g id="a_node10"><a xlink:href="dir_44719da65bb992f08c8ee8632a1136c7.html" target="_top" xlink:title="sysmem">
<polygon fill="white" stroke="red" points="445.5,-108 386.5,-108 386.5,-72 445.5,-72 445.5,-108"/>
<text text-anchor="middle" x="416" y="-87.5" font-family="Helvetica,sans-Serif" font-size="10.00">sysmem</text>
</a>
</g>
</g>
<!-- dir_12dc7cff0c3b2c52dc4bc086c7616969&#45;&gt;dir_44719da65bb992f08c8ee8632a1136c7 -->
<g id="edge7" class="edge">
<title>dir_12dc7cff0c3b2c52dc4bc086c7616969&#45;&gt;dir_44719da65bb992f08c8ee8632a1136c7</title>
<path fill="none" stroke="black" d="M408.54,-503.84C414.56,-497.85 422,-491.71 430,-488 493.81,-458.4 526.86,-504.48 587,-468 620.31,-447.79 625.36,-433.18 637,-396 675.18,-274.07 526.34,-160.59 453.72,-113.69"/>
<polygon fill="black" stroke="black" points="455.15,-110.45 444.84,-108.04 451.4,-116.36 455.15,-110.45"/>
<g id="a_edge7&#45;headlabel"><a xlink:href="dir_000251_000587.html" target="_top" xlink:title="4">
<text text-anchor="middle" x="459.71" y="-107.49" font-family="Helvetica,sans-Serif" font-size="10.00">4</text>
</a>
</g>
</g>
<!-- dir_1bd32d4ef826aeeda00870843eb45c97 -->
<g id="node11" class="node">
<title>dir_1bd32d4ef826aeeda00870843eb45c97</title>
<g id="a_node11"><a xlink:href="dir_1bd32d4ef826aeeda00870843eb45c97.html" target="_top" xlink:title="sysclib">
<polygon fill="white" stroke="red" points="213,-252 159,-252 159,-216 213,-216 213,-252"/>
<text text-anchor="middle" x="186" y="-231.5" font-family="Helvetica,sans-Serif" font-size="10.00">sysclib</text>
</a>
</g>
</g>
<!-- dir_12dc7cff0c3b2c52dc4bc086c7616969&#45;&gt;dir_1bd32d4ef826aeeda00870843eb45c97 -->
<g id="edge8" class="edge">
<title>dir_12dc7cff0c3b2c52dc4bc086c7616969&#45;&gt;dir_1bd32d4ef826aeeda00870843eb45c97</title>
<path fill="none" stroke="black" d="M379.43,-503.89C373.41,-497.91 365.98,-491.76 358,-488 299.95,-460.64 263.27,-510.29 215,-468 156.3,-416.57 169.18,-311.75 179.41,-262.16"/>
<polygon fill="black" stroke="black" points="182.87,-262.7 181.58,-252.18 176.03,-261.2 182.87,-262.7"/>
<g id="a_edge8&#45;headlabel"><a xlink:href="dir_000251_000274.html" target="_top" xlink:title="3">
<text text-anchor="middle" x="184.88" y="-264.31" font-family="Helvetica,sans-Serif" font-size="10.00">3</text>
</a>
</g>
</g>
<!-- dir_7422a0894415a12ccd1d562a8ad09f2d -->
<g id="node12" class="node">
<title>dir_7422a0894415a12ccd1d562a8ad09f2d</title>
<g id="a_node12"><a xlink:href="dir_7422a0894415a12ccd1d562a8ad09f2d.html" target="_top" xlink:title="intrman">
<polygon fill="white" stroke="red" points="535.5,-324 480.5,-324 480.5,-288 535.5,-288 535.5,-324"/>
<text text-anchor="middle" x="508" y="-303.5" font-family="Helvetica,sans-Serif" font-size="10.00">intrman</text>
</a>
</g>
</g>
<!-- dir_12dc7cff0c3b2c52dc4bc086c7616969&#45;&gt;dir_7422a0894415a12ccd1d562a8ad09f2d -->
<g id="edge9" class="edge">
<title>dir_12dc7cff0c3b2c52dc4bc086c7616969&#45;&gt;dir_7422a0894415a12ccd1d562a8ad09f2d</title>
<path fill="none" stroke="black" d="M409.67,-503.96C415.6,-498.28 422.69,-492.3 430,-488 454.23,-473.75 471.31,-489 490,-468 522.7,-431.25 519.12,-369.56 513.57,-334.17"/>
<polygon fill="black" stroke="black" points="516.98,-333.34 511.82,-324.09 510.08,-334.54 516.98,-333.34"/>
<g id="a_edge9&#45;headlabel"><a xlink:href="dir_000251_000232.html" target="_top" xlink:title="2">
<text text-anchor="middle" x="520.39" y="-333.9" font-family="Helvetica,sans-Serif" font-size="10.00">2</text>
</a>
</g>
</g>
<!-- dir_952a988346c879bc3b2834e2377036db -->
<g id="node13" class="node">
<title>dir_952a988346c879bc3b2834e2377036db</title>
<g id="a_node13"><a xlink:href="dir_952a988346c879bc3b2834e2377036db.html" target="_top" xlink:title="stdio">
<polygon fill="white" stroke="red" points="120,-324 66,-324 66,-288 120,-288 120,-324"/>
<text text-anchor="middle" x="93" y="-303.5" font-family="Helvetica,sans-Serif" font-size="10.00">stdio</text>
</a>
</g>
</g>
<!-- dir_12dc7cff0c3b2c52dc4bc086c7616969&#45;&gt;dir_952a988346c879bc3b2834e2377036db -->
<g id="edge10" class="edge">
<title>dir_12dc7cff0c3b2c52dc4bc086c7616969&#45;&gt;dir_952a988346c879bc3b2834e2377036db</title>
<path fill="none" stroke="black" d="M379.53,-503.68C373.52,-497.67 366.07,-491.56 358,-488 312.28,-467.83 172.05,-500.4 134,-468 95.29,-435.04 90.45,-371.14 91.19,-334.54"/>
<polygon fill="black" stroke="black" points="94.7,-334.23 91.57,-324.11 87.71,-333.98 94.7,-334.23"/>
<g id="a_edge10&#45;headlabel"><a xlink:href="dir_000251_000272.html" target="_top" xlink:title="7">
<text text-anchor="middle" x="97.41" y="-335.43" font-family="Helvetica,sans-Serif" font-size="10.00">7</text>
</a>
</g>
</g>
<!-- dir_1d64e5e9f20206636d72b5bbe3d2b274&#45;&gt;dir_9be0baa3d4a3e9f480a9ee70594037fa -->
<g id="edge11" class="edge">
<title>dir_1d64e5e9f20206636d72b5bbe3d2b274&#45;&gt;dir_9be0baa3d4a3e9f480a9ee70594037fa</title>
<path fill="none" stroke="black" d="M358,-143.87C358,-119.67 358,-75.21 358,-46.39"/>
<polygon fill="black" stroke="black" points="361.5,-46.19 358,-36.19 354.5,-46.19 361.5,-46.19"/>
<g id="a_edge11&#45;headlabel"><a xlink:href="dir_000240_000525.html" target="_top" xlink:title="4">
<text text-anchor="middle" x="364.34" y="-47.28" font-family="Helvetica,sans-Serif" font-size="10.00">4</text>
</a>
</g>
</g>
<!-- dir_1d64e5e9f20206636d72b5bbe3d2b274&#45;&gt;dir_44719da65bb992f08c8ee8632a1136c7 -->
<g id="edge12" class="edge">
<title>dir_1d64e5e9f20206636d72b5bbe3d2b274&#45;&gt;dir_44719da65bb992f08c8ee8632a1136c7</title>
<path fill="none" stroke="black" d="M372.34,-143.7C379.29,-135.3 387.77,-125.07 395.4,-115.86"/>
<polygon fill="black" stroke="black" points="398.14,-118.04 401.83,-108.1 392.75,-113.57 398.14,-118.04"/>
<g id="a_edge12&#45;headlabel"><a xlink:href="dir_000240_000587.html" target="_top" xlink:title="1">
<text text-anchor="middle" x="398.04" y="-120.12" font-family="Helvetica,sans-Serif" font-size="10.00">1</text>
</a>
</g>
</g>
<!-- dir_60f7c75aab99249ed9879339d7562ada&#45;&gt;dir_9be0baa3d4a3e9f480a9ee70594037fa -->
<g id="edge14" class="edge">
<title>dir_60f7c75aab99249ed9879339d7562ada&#45;&gt;dir_9be0baa3d4a3e9f480a9ee70594037fa</title>
<path fill="none" stroke="black" d="M223.88,-439.43C181.23,-422.9 99.01,-384.83 57,-324 34.02,-290.72 38,-275.45 38,-235 38,-235 38,-235 38,-161 38,-38.45 236.5,-20.86 320.82,-18.91"/>
<polygon fill="black" stroke="black" points="321.05,-22.41 330.99,-18.74 320.94,-15.41 321.05,-22.41"/>
<g id="a_edge14&#45;headlabel"><a xlink:href="dir_000282_000525.html" target="_top" xlink:title="3">
<text text-anchor="middle" x="317.51" y="-22.81" font-family="Helvetica,sans-Serif" font-size="10.00">3</text>
</a>
</g>
</g>
<!-- dir_60f7c75aab99249ed9879339d7562ada&#45;&gt;dir_1d64e5e9f20206636d72b5bbe3d2b274 -->
<g id="edge15" class="edge">
<title>dir_60f7c75aab99249ed9879339d7562ada&#45;&gt;dir_1d64e5e9f20206636d72b5bbe3d2b274</title>
<path fill="none" stroke="black" d="M257.37,-431.97C275.28,-384.09 326.18,-248.06 347.93,-189.9"/>
<polygon fill="black" stroke="black" points="351.3,-190.9 351.53,-180.31 344.74,-188.45 351.3,-190.9"/>
<g id="a_edge15&#45;headlabel"><a xlink:href="dir_000282_000240.html" target="_top" xlink:title="1">
<text text-anchor="middle" x="352.7" y="-192.76" font-family="Helvetica,sans-Serif" font-size="10.00">1</text>
</a>
</g>
</g>
<!-- dir_60f7c75aab99249ed9879339d7562ada&#45;&gt;dir_d3b40e87d731c1e886b7a70e6daaf700 -->
<g id="edge16" class="edge">
<title>dir_60f7c75aab99249ed9879339d7562ada&#45;&gt;dir_d3b40e87d731c1e886b7a70e6daaf700</title>
<path fill="none" stroke="black" d="M270.78,-431.7C280.75,-422.97 293.01,-412.24 303.86,-402.75"/>
<polygon fill="black" stroke="black" points="306.23,-405.32 311.45,-396.1 301.62,-400.06 306.23,-405.32"/>
<g id="a_edge16&#45;headlabel"><a xlink:href="dir_000282_000276.html" target="_top" xlink:title="2">
<text text-anchor="middle" x="305.4" y="-407.33" font-family="Helvetica,sans-Serif" font-size="10.00">2</text>
</a>
</g>
</g>
<!-- dir_60f7c75aab99249ed9879339d7562ada&#45;&gt;dir_1bd32d4ef826aeeda00870843eb45c97 -->
<g id="edge17" class="edge">
<title>dir_60f7c75aab99249ed9879339d7562ada&#45;&gt;dir_1bd32d4ef826aeeda00870843eb45c97</title>
<path fill="none" stroke="black" d="M234.05,-431.84C225.46,-422.12 215.66,-409.27 210,-396 191.17,-351.86 186.76,-295.44 185.93,-262.45"/>
<polygon fill="black" stroke="black" points="189.42,-262.16 185.76,-252.22 182.42,-262.27 189.42,-262.16"/>
<g id="a_edge17&#45;headlabel"><a xlink:href="dir_000282_000274.html" target="_top" xlink:title="1">
<text text-anchor="middle" x="192.32" y="-263.21" font-family="Helvetica,sans-Serif" font-size="10.00">1</text>
</a>
</g>
</g>
<!-- dir_60f7c75aab99249ed9879339d7562ada&#45;&gt;dir_7422a0894415a12ccd1d562a8ad09f2d -->
<g id="edge18" class="edge">
<title>dir_60f7c75aab99249ed9879339d7562ada&#45;&gt;dir_7422a0894415a12ccd1d562a8ad09f2d</title>
<path fill="none" stroke="black" d="M278.28,-439.03C303.87,-429.28 342.89,-413.41 375,-396 411.43,-376.25 450.55,-349.31 476.87,-330.25"/>
<polygon fill="black" stroke="black" points="479.26,-332.84 485.28,-324.11 475.14,-327.18 479.26,-332.84"/>
<g id="a_edge18&#45;headlabel"><a xlink:href="dir_000282_000232.html" target="_top" xlink:title="1">
<text text-anchor="middle" x="478.03" y="-334.75" font-family="Helvetica,sans-Serif" font-size="10.00">1</text>
</a>
</g>
</g>
<!-- dir_d3b40e87d731c1e886b7a70e6daaf700&#45;&gt;dir_9be0baa3d4a3e9f480a9ee70594037fa -->
<g id="edge19" class="edge">
<title>dir_d3b40e87d731c1e886b7a70e6daaf700&#45;&gt;dir_9be0baa3d4a3e9f480a9ee70594037fa</title>
<path fill="none" stroke="black" d="M324.73,-359.78C315.67,-333.32 300,-280.92 300,-235 300,-235 300,-235 300,-161 300,-117.7 323.4,-72.11 340.48,-44.61"/>
<polygon fill="black" stroke="black" points="343.54,-46.32 345.98,-36.01 337.64,-42.55 343.54,-46.32"/>
<g id="a_edge19&#45;headlabel"><a xlink:href="dir_000276_000525.html" target="_top" xlink:title="16">
<text text-anchor="middle" x="343.99" y="-48.38" font-family="Helvetica,sans-Serif" font-size="10.00">16</text>
</a>
</g>
</g>
<!-- dir_d3b40e87d731c1e886b7a70e6daaf700&#45;&gt;dir_1d64e5e9f20206636d72b5bbe3d2b274 -->
<g id="edge20" class="edge">
<title>dir_d3b40e87d731c1e886b7a70e6daaf700&#45;&gt;dir_1d64e5e9f20206636d72b5bbe3d2b274</title>
<path fill="none" stroke="black" d="M333.16,-359.85C337.83,-322.83 348.89,-235.18 354.54,-190.39"/>
<polygon fill="black" stroke="black" points="358.05,-190.59 355.83,-180.23 351.1,-189.72 358.05,-190.59"/>
<g id="a_edge20&#45;headlabel"><a xlink:href="dir_000276_000240.html" target="_top" xlink:title="3">
<text text-anchor="middle" x="360.41" y="-192.01" font-family="Helvetica,sans-Serif" font-size="10.00">3</text>
</a>
</g>
</g>
<!-- dir_d3b40e87d731c1e886b7a70e6daaf700&#45;&gt;dir_44719da65bb992f08c8ee8632a1136c7 -->
<g id="edge21" class="edge">
<title>dir_d3b40e87d731c1e886b7a70e6daaf700&#45;&gt;dir_44719da65bb992f08c8ee8632a1136c7</title>
<path fill="none" stroke="black" d="M339.66,-359.6C344.55,-349.39 350.55,-336.14 355,-324 381.65,-251.28 401.67,-161.81 410.7,-117.9"/>
<polygon fill="black" stroke="black" points="414.15,-118.5 412.71,-108.01 407.29,-117.11 414.15,-118.5"/>
<g id="a_edge21&#45;headlabel"><a xlink:href="dir_000276_000587.html" target="_top" xlink:title="4">
<text text-anchor="middle" x="416.22" y="-120.09" font-family="Helvetica,sans-Serif" font-size="10.00">4</text>
</a>
</g>
</g>
<!-- dir_d3b40e87d731c1e886b7a70e6daaf700&#45;&gt;dir_1bd32d4ef826aeeda00870843eb45c97 -->
<g id="edge22" class="edge">
<title>dir_d3b40e87d731c1e886b7a70e6daaf700&#45;&gt;dir_1bd32d4ef826aeeda00870843eb45c97</title>
<path fill="none" stroke="black" d="M313.51,-359.87C287.93,-334.82 240.17,-288.05 210.92,-259.41"/>
<polygon fill="black" stroke="black" points="213.15,-256.69 203.55,-252.19 208.25,-261.69 213.15,-256.69"/>
<g id="a_edge22&#45;headlabel"><a xlink:href="dir_000276_000274.html" target="_top" xlink:title="3">
<text text-anchor="middle" x="217.7" y="-254.67" font-family="Helvetica,sans-Serif" font-size="10.00">3</text>
</a>
</g>
</g>
<!-- dir_d3b40e87d731c1e886b7a70e6daaf700&#45;&gt;dir_7422a0894415a12ccd1d562a8ad09f2d -->
<g id="edge23" class="edge">
<title>dir_d3b40e87d731c1e886b7a70e6daaf700&#45;&gt;dir_7422a0894415a12ccd1d562a8ad09f2d</title>
<path fill="none" stroke="black" d="M366.39,-363C396.71,-351.01 440.21,-333.81 470.99,-321.64"/>
<polygon fill="black" stroke="black" points="472.48,-324.81 480.5,-317.88 469.91,-318.3 472.48,-324.81"/>
<g id="a_edge23&#45;headlabel"><a xlink:href="dir_000276_000232.html" target="_top" xlink:title="8">
<text text-anchor="middle" x="470.19" y="-326.27" font-family="Helvetica,sans-Serif" font-size="10.00">8</text>
</a>
</g>
</g>
<!-- dir_d3b40e87d731c1e886b7a70e6daaf700&#45;&gt;dir_952a988346c879bc3b2834e2377036db -->
<g id="edge24" class="edge">
<title>dir_d3b40e87d731c1e886b7a70e6daaf700&#45;&gt;dir_952a988346c879bc3b2834e2377036db</title>
<path fill="none" stroke="black" d="M295.88,-366.67C251.4,-353.59 175.11,-331.15 129.83,-317.83"/>
<polygon fill="black" stroke="black" points="130.7,-314.44 120.12,-314.98 128.73,-321.16 130.7,-314.44"/>
<g id="a_edge24&#45;headlabel"><a xlink:href="dir_000276_000272.html" target="_top" xlink:title="2">
<text text-anchor="middle" x="134.95" y="-310.23" font-family="Helvetica,sans-Serif" font-size="10.00">2</text>
</a>
</g>
</g>
<!-- dir_1fd4d135da32a6b9ad91946f648cae84&#45;&gt;dir_9be0baa3d4a3e9f480a9ee70594037fa -->
<g id="edge25" class="edge">
<title>dir_1fd4d135da32a6b9ad91946f648cae84&#45;&gt;dir_9be0baa3d4a3e9f480a9ee70594037fa</title>
<path fill="none" stroke="black" d="M481.8,-449.04C522.58,-447.43 595.45,-438.31 637,-396 688.9,-343.16 680,-309.06 680,-235 680,-235 680,-235 680,-161 680,-37.81 480.26,-20.59 395.41,-18.82"/>
<polygon fill="black" stroke="black" points="395.23,-15.32 385.18,-18.68 395.12,-22.32 395.23,-15.32"/>
<g id="a_edge25&#45;headlabel"><a xlink:href="dir_000268_000525.html" target="_top" xlink:title="2">
<text text-anchor="middle" x="398.86" y="-10.03" font-family="Helvetica,sans-Serif" font-size="10.00">2</text>
</a>
</g>
</g>
<!-- dir_1fd4d135da32a6b9ad91946f648cae84&#45;&gt;dir_1d64e5e9f20206636d72b5bbe3d2b274 -->
<g id="edge26" class="edge">
<title>dir_1fd4d135da32a6b9ad91946f648cae84&#45;&gt;dir_1d64e5e9f20206636d72b5bbe3d2b274</title>
<path fill="none" stroke="black" d="M454.63,-431.83C459.94,-391.27 468.29,-287.58 428,-216 420.53,-202.72 408.22,-191.74 395.99,-183.27"/>
<polygon fill="black" stroke="black" points="397.9,-180.34 387.6,-177.82 394.08,-186.21 397.9,-180.34"/>
<g id="a_edge26&#45;headlabel"><a xlink:href="dir_000268_000240.html" target="_top" xlink:title="1">
<text text-anchor="middle" x="402.46" y="-177.41" font-family="Helvetica,sans-Serif" font-size="10.00">1</text>
</a>
</g>
</g>
<!-- dir_1fd4d135da32a6b9ad91946f648cae84&#45;&gt;dir_d3b40e87d731c1e886b7a70e6daaf700 -->
<g id="edge27" class="edge">
<title>dir_1fd4d135da32a6b9ad91946f648cae84&#45;&gt;dir_d3b40e87d731c1e886b7a70e6daaf700</title>
<path fill="none" stroke="black" d="M422.4,-431.88C406.43,-422.64 386.54,-411.13 369.39,-401.21"/>
<polygon fill="black" stroke="black" points="371.12,-398.17 360.71,-396.19 367.62,-404.23 371.12,-398.17"/>
<g id="a_edge27&#45;headlabel"><a xlink:href="dir_000268_000276.html" target="_top" xlink:title="1">
<text text-anchor="middle" x="375.66" y="-395.01" font-family="Helvetica,sans-Serif" font-size="10.00">1</text>
</a>
</g>
</g>
<!-- dir_1fd4d135da32a6b9ad91946f648cae84&#45;&gt;dir_7422a0894415a12ccd1d562a8ad09f2d -->
<g id="edge28" class="edge">
<title>dir_1fd4d135da32a6b9ad91946f648cae84&#45;&gt;dir_7422a0894415a12ccd1d562a8ad09f2d</title>
<path fill="none" stroke="black" d="M463.95,-431.99C470.6,-421.9 478.6,-408.65 484,-396 492.56,-375.94 498.8,-352.02 502.78,-334.04"/>
<polygon fill="black" stroke="black" points="506.21,-334.71 504.85,-324.2 499.36,-333.26 506.21,-334.71"/>
<g id="a_edge28&#45;headlabel"><a xlink:href="dir_000268_000232.html" target="_top" xlink:title="1">
<text text-anchor="middle" x="508.25" y="-336.31" font-family="Helvetica,sans-Serif" font-size="10.00">1</text>
</a>
</g>
</g>
<!-- dir_a0d37aaf829787e8da99f7ff6597b371&#45;&gt;dir_9be0baa3d4a3e9f480a9ee70594037fa -->
<g id="edge29" class="edge">
<title>dir_a0d37aaf829787e8da99f7ff6597b371&#45;&gt;dir_9be0baa3d4a3e9f480a9ee70594037fa</title>
<path fill="none" stroke="black" d="M598.99,-359.85C592.1,-308.8 564.97,-156.2 479,-72 455.86,-49.33 421.42,-35.54 395.19,-27.74"/>
<polygon fill="black" stroke="black" points="395.8,-24.27 385.23,-24.94 393.91,-31.01 395.8,-24.27"/>
<g id="a_edge29&#45;headlabel"><a xlink:href="dir_000264_000525.html" target="_top" xlink:title="2">
<text text-anchor="middle" x="400.03" y="-20.01" font-family="Helvetica,sans-Serif" font-size="10.00">2</text>
</a>
</g>
</g>
<!-- dir_a0d37aaf829787e8da99f7ff6597b371&#45;&gt;dir_1d64e5e9f20206636d72b5bbe3d2b274 -->
<g id="edge30" class="edge">
<title>dir_a0d37aaf829787e8da99f7ff6597b371&#45;&gt;dir_1d64e5e9f20206636d72b5bbe3d2b274</title>
<path fill="none" stroke="black" d="M593.79,-359.81C579.26,-327.19 543.43,-255.99 492,-216 464.03,-194.25 426.01,-180.35 397.6,-172.26"/>
<polygon fill="black" stroke="black" points="398.18,-168.79 387.61,-169.54 396.34,-175.55 398.18,-168.79"/>
<g id="a_edge30&#45;headlabel"><a xlink:href="dir_000264_000240.html" target="_top" xlink:title="1">
<text text-anchor="middle" x="402.39" y="-164.5" font-family="Helvetica,sans-Serif" font-size="10.00">1</text>
</a>
</g>
</g>
<!-- dir_a0d37aaf829787e8da99f7ff6597b371&#45;&gt;dir_7422a0894415a12ccd1d562a8ad09f2d -->
<g id="edge31" class="edge">
<title>dir_a0d37aaf829787e8da99f7ff6597b371&#45;&gt;dir_7422a0894415a12ccd1d562a8ad09f2d</title>
<path fill="none" stroke="black" d="M578.01,-359.7C566.19,-350.8 551.61,-339.82 538.82,-330.2"/>
<polygon fill="black" stroke="black" points="540.82,-327.32 530.72,-324.1 536.61,-332.91 540.82,-327.32"/>
<g id="a_edge31&#45;headlabel"><a xlink:href="dir_000264_000232.html" target="_top" xlink:title="1">
<text text-anchor="middle" x="545.4" y="-324.71" font-family="Helvetica,sans-Serif" font-size="10.00">1</text>
</a>
</g>
</g>
<!-- dir_44719da65bb992f08c8ee8632a1136c7&#45;&gt;dir_9be0baa3d4a3e9f480a9ee70594037fa -->
<g id="edge32" class="edge">
<title>dir_44719da65bb992f08c8ee8632a1136c7&#45;&gt;dir_9be0baa3d4a3e9f480a9ee70594037fa</title>
<path fill="none" stroke="black" d="M401.66,-71.7C394.71,-63.3 386.23,-53.07 378.6,-43.86"/>
<polygon fill="black" stroke="black" points="381.25,-41.57 372.17,-36.1 375.86,-46.04 381.25,-41.57"/>
<g id="a_edge32&#45;headlabel"><a xlink:href="dir_000587_000525.html" target="_top" xlink:title="1">
<text text-anchor="middle" x="385.73" y="-40.03" font-family="Helvetica,sans-Serif" font-size="10.00">1</text>
</a>
</g>
</g>
<!-- dir_1bd32d4ef826aeeda00870843eb45c97&#45;&gt;dir_9be0baa3d4a3e9f480a9ee70594037fa -->
<g id="edge33" class="edge">
<title>dir_1bd32d4ef826aeeda00870843eb45c97&#45;&gt;dir_9be0baa3d4a3e9f480a9ee70594037fa</title>
<path fill="none" stroke="black" d="M194.05,-215.57C209.04,-184.36 243.57,-117.91 286,-72 296.61,-60.52 310.03,-49.86 322.39,-41.16"/>
<polygon fill="black" stroke="black" points="324.45,-44 330.73,-35.47 320.5,-38.21 324.45,-44"/>
<g id="a_edge33&#45;headlabel"><a xlink:href="dir_000274_000525.html" target="_top" xlink:title="2">
<text text-anchor="middle" x="323.08" y="-45.87" font-family="Helvetica,sans-Serif" font-size="10.00">2</text>
</a>
</g>
</g>
<!-- dir_1bd32d4ef826aeeda00870843eb45c97&#45;&gt;dir_1d64e5e9f20206636d72b5bbe3d2b274 -->
<g id="edge34" class="edge">
<title>dir_1bd32d4ef826aeeda00870843eb45c97&#45;&gt;dir_1d64e5e9f20206636d72b5bbe3d2b274</title>
<path fill="none" stroke="black" d="M213.33,-221.63C217.89,-219.74 222.58,-217.81 227,-216 257.8,-203.38 292.75,-189.25 318.79,-178.76"/>
<polygon fill="black" stroke="black" points="320.35,-181.91 328.31,-174.93 317.73,-175.41 320.35,-181.91"/>
<g id="a_edge34&#45;headlabel"><a xlink:href="dir_000274_000240.html" target="_top" xlink:title="1">
<text text-anchor="middle" x="318.07" y="-183.38" font-family="Helvetica,sans-Serif" font-size="10.00">1</text>
</a>
</g>
</g>
<!-- dir_7422a0894415a12ccd1d562a8ad09f2d&#45;&gt;dir_9be0baa3d4a3e9f480a9ee70594037fa -->
<g id="edge35" class="edge">
<title>dir_7422a0894415a12ccd1d562a8ad09f2d&#45;&gt;dir_9be0baa3d4a3e9f480a9ee70594037fa</title>
<path fill="none" stroke="black" d="M508.68,-287.72C509.41,-246.04 505.83,-138.48 454,-72 438.94,-52.69 414.78,-39.4 394.46,-30.96"/>
<polygon fill="black" stroke="black" points="395.74,-27.7 385.15,-27.31 393.19,-34.22 395.74,-27.7"/>
<g id="a_edge35&#45;headlabel"><a xlink:href="dir_000232_000525.html" target="_top" xlink:title="3">
<text text-anchor="middle" x="400.12" y="-23.87" font-family="Helvetica,sans-Serif" font-size="10.00">3</text>
</a>
</g>
</g>
<!-- dir_7422a0894415a12ccd1d562a8ad09f2d&#45;&gt;dir_1d64e5e9f20206636d72b5bbe3d2b274 -->
<g id="edge36" class="edge">
<title>dir_7422a0894415a12ccd1d562a8ad09f2d&#45;&gt;dir_1d64e5e9f20206636d72b5bbe3d2b274</title>
<path fill="none" stroke="black" d="M503.66,-287.93C497.93,-268.39 486.14,-236.45 466,-216 447.11,-196.81 419.85,-183.51 397.45,-175.03"/>
<polygon fill="black" stroke="black" points="398.46,-171.68 387.87,-171.58 396.09,-178.26 398.46,-171.68"/>
<g id="a_edge36&#45;headlabel"><a xlink:href="dir_000232_000240.html" target="_top" xlink:title="1">
<text text-anchor="middle" x="402.8" y="-167.72" font-family="Helvetica,sans-Serif" font-size="10.00">1</text>
</a>
</g>
</g>
<!-- dir_952a988346c879bc3b2834e2377036db&#45;&gt;dir_9be0baa3d4a3e9f480a9ee70594037fa -->
<g id="edge37" class="edge">
<title>dir_952a988346c879bc3b2834e2377036db&#45;&gt;dir_9be0baa3d4a3e9f480a9ee70594037fa</title>
<path fill="none" stroke="black" d="M94.78,-287.97C97.3,-269.31 103.14,-238.98 116,-216 159.45,-138.38 183.61,-125.06 255,-72 275.48,-56.78 300.97,-43.62 321.46,-34.23"/>
<polygon fill="black" stroke="black" points="323.09,-37.33 330.79,-30.05 320.23,-30.94 323.09,-37.33"/>
<g id="a_edge37&#45;headlabel"><a xlink:href="dir_000272_000525.html" target="_top" xlink:title="2">
<text text-anchor="middle" x="320.97" y="-38.89" font-family="Helvetica,sans-Serif" font-size="10.00">2</text>
</a>
</g>
</g>
<!-- dir_952a988346c879bc3b2834e2377036db&#45;&gt;dir_1d64e5e9f20206636d72b5bbe3d2b274 -->
<g id="edge38" class="edge">
<title>dir_952a988346c879bc3b2834e2377036db&#45;&gt;dir_1d64e5e9f20206636d72b5bbe3d2b274</title>
<path fill="none" stroke="black" d="M99.41,-287.8C107.87,-267.51 124.71,-234.26 150,-216 200.35,-179.65 273.28,-168.17 318.07,-164.58"/>
<polygon fill="black" stroke="black" points="318.54,-168.05 328.27,-163.86 318.05,-161.07 318.54,-168.05"/>
<g id="a_edge38&#45;headlabel"><a xlink:href="dir_000272_000240.html" target="_top" xlink:title="1">
<text text-anchor="middle" x="315.15" y="-168.64" font-family="Helvetica,sans-Serif" font-size="10.00">1</text>
</a>
</g>
</g>
<!-- dir_952a988346c879bc3b2834e2377036db&#45;&gt;dir_1bd32d4ef826aeeda00870843eb45c97 -->
<g id="edge39" class="edge">
<title>dir_952a988346c879bc3b2834e2377036db&#45;&gt;dir_1bd32d4ef826aeeda00870843eb45c97</title>
<path fill="none" stroke="black" d="M115.99,-287.7C127.81,-278.8 142.39,-267.82 155.18,-258.2"/>
<polygon fill="black" stroke="black" points="157.39,-260.91 163.28,-252.1 153.18,-255.32 157.39,-260.91"/>
<g id="a_edge39&#45;headlabel"><a xlink:href="dir_000272_000274.html" target="_top" xlink:title="1">
<text text-anchor="middle" x="156.23" y="-262.84" font-family="Helvetica,sans-Serif" font-size="10.00">1</text>
</a>
</g>
</g>
</g>
</svg>
        <g id="navigator" transform="translate(0 0)" fill="#404254">
                <rect fill="#f2f5e9" fill-opacity="0.5" stroke="#606060" stroke-width=".5" x="0" y="0" width="60" height="60"/>
                <use id="zoomplus" xlink:href="#zoomPlus" x="17" y="9" onmousedown="handleZoom(evt,'in')"/>
                <use id="zoomminus" xlink:href="#zoomMin" x="42" y="9" onmousedown="handleZoom(evt,'out')"/>
                <use id="reset" xlink:href="#resetDef" x="30" y="36" onmousedown="handleReset()"/>
                <g id="arrowUp" xlink:href="#dirArrow" transform="translate(30 24)" onmousedown="handlePan(0,-1)">
                  <use xlink:href="#rim" fill="#404040">
                        <set attributeName="fill" to="#808080" begin="arrowUp.mouseover" end="arrowUp.mouseout"/>
                  </use>
                  <path fill="none" stroke="white" stroke-width="1.5" d="M0,-3.0v7 M-2.5,-0.5L0,-3.0L2.5,-0.5"/>
                </g>
                <g id="arrowRight" xlink:href="#dirArrow" transform="rotate(90) translate(36 -43)" onmousedown="handlePan(1,0)">
                  <use xlink:href="#rim" fill="#404040">
                        <set attributeName="fill" to="#808080" begin="arrowRight.mouseover" end="arrowRight.mouseout"/>
                  </use>
                  <path fill="none" stroke="white" stroke-width="1.5" d="M0,-3.0v7 M-2.5,-0.5L0,-3.0L2.5,-0.5"/>
                </g>
                <g id="arrowDown" xlink:href="#dirArrow" transform="rotate(180) translate(-30 -48)" onmousedown="handlePan(0,1)">
                  <use xlink:href="#rim" fill="#404040">
                        <set attributeName="fill" to="#808080" begin="arrowDown.mouseover" end="arrowDown.mouseout"/>
                  </use>
                  <path fill="none" stroke="white" stroke-width="1.5" d="M0,-3.0v7 M-2.5,-0.5L0,-3.0L2.5,-0.5"/>
                </g>
                <g id="arrowLeft" xlink:href="#dirArrow" transform="rotate(270) translate(-36 17)" onmousedown="handlePan(-1,0)">
                  <use xlink:href="#rim" fill="#404040">
                        <set attributeName="fill" to="#808080" begin="arrowLeft.mouseover" end="arrowLeft.mouseout"/>
                  </use>
                  <path fill="none" stroke="white" stroke-width="1.5" d="M0,-3.0v7 M-2.5,-0.5L0,-3.0L2.5,-0.5"/>
                </g>
        </g>
        <svg viewBox="0 0 15 15" width="100%" height="30px" preserveAspectRatio="xMaxYMin meet">
         <g id="arrow_out" transform="scale(0.3 0.3)">
          <a xlink:href="dir_cb26f304a37e679cc21ccc4e4a07be73_dep_org.svg" target="_base">
           <rect id="button" ry="5" rx="5" y="6" x="6" height="38" width="38"
                fill="#f2f5e9" fill-opacity="0.5" stroke="#606060" stroke-width="1.0"/>
           <path id="arrow"
             d="M 11.500037,31.436501 C 11.940474,20.09759 22.043105,11.32322 32.158766,21.979434 L 37.068811,17.246167 C 37.068811,17.246167 37.088388,32 37.088388,32 L 22.160133,31.978069 C 22.160133,31.978069 26.997745,27.140456 26.997745,27.140456 C 18.528582,18.264221 13.291696,25.230495 11.500037,31.436501 z"
             style="fill:#404040;"/>
          </a>
         </g>
        </svg>
</svg>
