<?xml version="1.0" encoding="UTF-8" standalone="no"?>
<!DOCTYPE svg PUBLIC "-//W3C//DTD SVG 1.1//EN"
 "http://www.w3.org/Graphics/SVG/1.1/DTD/svg11.dtd">
<!-- Generated by graphviz version 2.44.0 ()
 -->
<!-- Title: ee/rpc/ps2snd/src Pages: 1 -->
<svg width="145pt" height="367pt"
 viewBox="0.00 0.00 145.44 367.00" xmlns="http://www.w3.org/2000/svg" xmlns:xlink="http://www.w3.org/1999/xlink">
<g id="graph0" class="graph" transform="scale(1 1) rotate(0) translate(4 363)">
<title>ee/rpc/ps2snd/src</title>
<polygon fill="white" stroke="transparent" points="-4,4 -4,-363 141.44,-363 141.44,4 -4,4"/>
<g id="clust1" class="cluster">
<title>clusterdir_9257be179ffb1bae505ffa73096b7986</title>
<g id="a_clust1"><a xlink:href="dir_9257be179ffb1bae505ffa73096b7986.html" target="_top" xlink:title="ps2snd">
<polygon fill="#ddddee" stroke="black" points="31.11,-280 31.11,-351 101.11,-351 101.11,-280 31.11,-280"/>
<text text-anchor="middle" x="66.11" y="-339" font-family="Helvetica,sans-Serif" font-size="10.00">ps2snd</text>
</a>
</g>
</g>
<!-- dir_d236ca42f0241c3c711c47cabfd53918 -->
<g id="node1" class="node">
<title>dir_d236ca42f0241c3c711c47cabfd53918</title>
<g id="a_node1"><a xlink:href="dir_d236ca42f0241c3c711c47cabfd53918.html" target="_top" xlink:title="src">
<polygon fill="#eeeeff" stroke="black" points="93.11,-324 39.11,-324 39.11,-288 93.11,-288 93.11,-324"/>
<text text-anchor="middle" x="66.11" y="-303.5" font-family="Helvetica,sans-Serif" font-size="10.00">src</text>
</a>
</g>
</g>
<!-- dir_0981ace215aa2029f526b70c145b9fbe -->
<g id="node2" class="node">
<title>dir_0981ace215aa2029f526b70c145b9fbe</title>
<g id="a_node2"><a xlink:href="dir_0981ace215aa2029f526b70c145b9fbe.html" target="_top" xlink:title="iop">
<polygon fill="white" stroke="red" points="121.11,-252 67.11,-252 67.11,-216 121.11,-216 121.11,-252"/>
<text text-anchor="middle" x="94.11" y="-231.5" font-family="Helvetica,sans-Serif" font-size="10.00">iop</text>
</a>
</g>
</g>
<!-- dir_d236ca42f0241c3c711c47cabfd53918&#45;&gt;dir_0981ace215aa2029f526b70c145b9fbe -->
<g id="edge3" class="edge">
<title>dir_d236ca42f0241c3c711c47cabfd53918&#45;&gt;dir_0981ace215aa2029f526b70c145b9fbe</title>
<path fill="none" stroke="black" d="M73.03,-287.7C76.18,-279.81 79.99,-270.3 83.49,-261.55"/>
<polygon fill="black" stroke="black" points="86.8,-262.69 87.27,-252.1 80.3,-260.09 86.8,-262.69"/>
<g id="a_edge3&#45;headlabel"><a xlink:href="dir_000188_000011.html" target="_top" xlink:title="1">
<text text-anchor="middle" x="88.1" y="-264.58" font-family="Helvetica,sans-Serif" font-size="10.00">1</text>
</a>
</g>
</g>
<!-- dir_694ec83a64f58cbdefbefce65cd1011c -->
<g id="node3" class="node">
<title>dir_694ec83a64f58cbdefbefce65cd1011c</title>
<g id="a_node3"><a xlink:href="dir_694ec83a64f58cbdefbefce65cd1011c.html" target="_top" xlink:title="kernel">
<polygon fill="white" stroke="red" points="104.11,-108 50.11,-108 50.11,-72 104.11,-72 104.11,-108"/>
<text text-anchor="middle" x="77.11" y="-87.5" font-family="Helvetica,sans-Serif" font-size="10.00">kernel</text>
</a>
</g>
</g>
<!-- dir_d236ca42f0241c3c711c47cabfd53918&#45;&gt;dir_694ec83a64f58cbdefbefce65cd1011c -->
<g id="edge4" class="edge">
<title>dir_d236ca42f0241c3c711c47cabfd53918&#45;&gt;dir_694ec83a64f58cbdefbefce65cd1011c</title>
<path fill="none" stroke="black" d="M93.2,-290.39C106.99,-281.34 122.43,-268.32 130.11,-252 151.63,-206.24 120.37,-149.37 97.5,-116.92"/>
<polygon fill="black" stroke="black" points="100.04,-114.47 91.32,-108.45 94.39,-118.59 100.04,-114.47"/>
<g id="a_edge4&#45;headlabel"><a xlink:href="dir_000188_000143.html" target="_top" xlink:title="2">
<text text-anchor="middle" x="104.45" y="-113.2" font-family="Helvetica,sans-Serif" font-size="10.00">2</text>
</a>
</g>
</g>
<!-- dir_a0a8ac7efb6662b749c1285408048e6d -->
<g id="node4" class="node">
<title>dir_a0a8ac7efb6662b749c1285408048e6d</title>
<g id="a_node4"><a xlink:href="dir_a0a8ac7efb6662b749c1285408048e6d.html" target="_top" xlink:title="erl">
<polygon fill="white" stroke="red" points="76.11,-36 22.11,-36 22.11,0 76.11,0 76.11,-36"/>
<text text-anchor="middle" x="49.11" y="-15.5" font-family="Helvetica,sans-Serif" font-size="10.00">erl</text>
</a>
</g>
</g>
<!-- dir_d236ca42f0241c3c711c47cabfd53918&#45;&gt;dir_a0a8ac7efb6662b749c1285408048e6d -->
<g id="edge5" class="edge">
<title>dir_d236ca42f0241c3c711c47cabfd53918&#45;&gt;dir_a0a8ac7efb6662b749c1285408048e6d</title>
<path fill="none" stroke="black" d="M54.13,-287.8C38.77,-264.6 12.94,-221.37 3.11,-180 -8.29,-132.07 15.56,-77.04 32.99,-45.32"/>
<polygon fill="black" stroke="black" points="36.24,-46.68 38.14,-36.26 30.16,-43.22 36.24,-46.68"/>
<g id="a_edge5&#45;headlabel"><a xlink:href="dir_000188_000206.html" target="_top" xlink:title="1">
<text text-anchor="middle" x="36.93" y="-48.71" font-family="Helvetica,sans-Serif" font-size="10.00">1</text>
</a>
</g>
</g>
<!-- dir_bdd9a5d540de89e9fe90efdfc6973a4f -->
<g id="node5" class="node">
<title>dir_bdd9a5d540de89e9fe90efdfc6973a4f</title>
<g id="a_node5"><a xlink:href="dir_bdd9a5d540de89e9fe90efdfc6973a4f.html" target="_top" xlink:title="common">
<polygon fill="white" stroke="red" points="66.11,-180 12.11,-180 12.11,-144 66.11,-144 66.11,-180"/>
<text text-anchor="middle" x="39.11" y="-159.5" font-family="Helvetica,sans-Serif" font-size="10.00">common</text>
</a>
</g>
</g>
<!-- dir_d236ca42f0241c3c711c47cabfd53918&#45;&gt;dir_bdd9a5d540de89e9fe90efdfc6973a4f -->
<g id="edge6" class="edge">
<title>dir_d236ca42f0241c3c711c47cabfd53918&#45;&gt;dir_bdd9a5d540de89e9fe90efdfc6973a4f</title>
<path fill="none" stroke="black" d="M62.85,-287.87C58.25,-263.67 49.79,-219.21 44.32,-190.39"/>
<polygon fill="black" stroke="black" points="47.68,-189.36 42.38,-180.19 40.8,-190.67 47.68,-189.36"/>
<g id="a_edge6&#45;headlabel"><a xlink:href="dir_000188_000000.html" target="_top" xlink:title="1">
<text text-anchor="middle" x="51.14" y="-189.86" font-family="Helvetica,sans-Serif" font-size="10.00">1</text>
</a>
</g>
</g>
<!-- dir_0981ace215aa2029f526b70c145b9fbe&#45;&gt;dir_bdd9a5d540de89e9fe90efdfc6973a4f -->
<g id="edge7" class="edge">
<title>dir_0981ace215aa2029f526b70c145b9fbe&#45;&gt;dir_bdd9a5d540de89e9fe90efdfc6973a4f</title>
<path fill="none" stroke="black" d="M74.6,-215.7C67.29,-207.47 59.24,-197.48 52.56,-188.42"/>
<polygon fill="black" stroke="black" points="55.3,-186.23 46.65,-180.1 49.59,-190.28 55.3,-186.23"/>
<g id="a_edge7&#45;headlabel"><a xlink:href="dir_000011_000000.html" target="_top" xlink:title="158">
<text text-anchor="middle" x="59.69" y="-185.01" font-family="Helvetica,sans-Serif" font-size="10.00">158</text>
</a>
</g>
</g>
<!-- dir_694ec83a64f58cbdefbefce65cd1011c&#45;&gt;dir_0981ace215aa2029f526b70c145b9fbe -->
<g id="edge9" class="edge">
<title>dir_694ec83a64f58cbdefbefce65cd1011c&#45;&gt;dir_0981ace215aa2029f526b70c145b9fbe</title>
<path fill="none" stroke="black" d="M79.16,-108.19C82.07,-132.42 87.39,-176.89 90.84,-205.68"/>
<polygon fill="black" stroke="black" points="87.39,-206.36 92.06,-215.87 94.34,-205.53 87.39,-206.36"/>
<g id="a_edge9&#45;headlabel"><a xlink:href="dir_000143_000011.html" target="_top" xlink:title="5">
<text text-anchor="middle" x="84.15" y="-200.63" font-family="Helvetica,sans-Serif" font-size="10.00">5</text>
</a>
</g>
</g>
<!-- dir_694ec83a64f58cbdefbefce65cd1011c&#45;&gt;dir_a0a8ac7efb6662b749c1285408048e6d -->
<g id="edge10" class="edge">
<title>dir_694ec83a64f58cbdefbefce65cd1011c&#45;&gt;dir_a0a8ac7efb6662b749c1285408048e6d</title>
<path fill="none" stroke="black" d="M70.19,-71.7C67.03,-63.81 63.23,-54.3 59.73,-45.55"/>
<polygon fill="black" stroke="black" points="62.91,-44.09 55.95,-36.1 56.41,-46.69 62.91,-44.09"/>
<g id="a_edge10&#45;headlabel"><a xlink:href="dir_000143_000206.html" target="_top" xlink:title="1">
<text text-anchor="middle" x="66.88" y="-43.87" font-family="Helvetica,sans-Serif" font-size="10.00">1</text>
</a>
</g>
</g>
<!-- dir_694ec83a64f58cbdefbefce65cd1011c&#45;&gt;dir_bdd9a5d540de89e9fe90efdfc6973a4f -->
<g id="edge8" class="edge">
<title>dir_694ec83a64f58cbdefbefce65cd1011c&#45;&gt;dir_bdd9a5d540de89e9fe90efdfc6973a4f</title>
<path fill="none" stroke="black" d="M73.72,-108.1C70.16,-116.21 65.03,-126.08 59.72,-135.08"/>
<polygon fill="black" stroke="black" points="56.68,-133.35 54.42,-143.7 62.64,-137.02 56.68,-133.35"/>
<g id="a_edge8&#45;headlabel"><a xlink:href="dir_000143_000000.html" target="_top" xlink:title="24">
<text text-anchor="middle" x="56.15" y="-126.3" font-family="Helvetica,sans-Serif" font-size="10.00">24</text>
</a>
</g>
</g>
<!-- dir_a0a8ac7efb6662b749c1285408048e6d&#45;&gt;dir_0981ace215aa2029f526b70c145b9fbe -->
<g id="edge2" class="edge">
<title>dir_a0a8ac7efb6662b749c1285408048e6d&#45;&gt;dir_0981ace215aa2029f526b70c145b9fbe</title>
<path fill="none" stroke="black" d="M76.2,-33.61C89.99,-42.66 105.43,-55.68 113.11,-72 133.62,-115.62 118.18,-172.95 105.71,-206.11"/>
<polygon fill="black" stroke="black" points="102.39,-204.99 101.98,-215.58 108.9,-207.56 102.39,-204.99"/>
<g id="a_edge2&#45;headlabel"><a xlink:href="dir_000206_000011.html" target="_top" xlink:title="2">
<text text-anchor="middle" x="101.06" y="-198.11" font-family="Helvetica,sans-Serif" font-size="10.00">2</text>
</a>
</g>
</g>
<!-- dir_a0a8ac7efb6662b749c1285408048e6d&#45;&gt;dir_bdd9a5d540de89e9fe90efdfc6973a4f -->
<g id="edge1" class="edge">
<title>dir_a0a8ac7efb6662b749c1285408048e6d&#45;&gt;dir_bdd9a5d540de89e9fe90efdfc6973a4f</title>
<path fill="none" stroke="black" d="M45.96,-36.12C44.19,-46.47 42.15,-59.95 41.11,-72 39.32,-92.66 38.86,-116.11 38.82,-133.75"/>
<polygon fill="black" stroke="black" points="35.32,-133.91 38.85,-143.9 42.32,-133.89 35.32,-133.91"/>
<g id="a_edge1&#45;headlabel"><a xlink:href="dir_000206_000000.html" target="_top" xlink:title="1">
<text text-anchor="middle" x="32.48" y="-127.82" font-family="Helvetica,sans-Serif" font-size="10.00">1</text>
</a>
</g>
</g>
<!-- dir_bdd9a5d540de89e9fe90efdfc6973a4f&#45;&gt;dir_0981ace215aa2029f526b70c145b9fbe -->
<g id="edge11" class="edge">
<title>dir_bdd9a5d540de89e9fe90efdfc6973a4f&#45;&gt;dir_0981ace215aa2029f526b70c145b9fbe</title>
<path fill="none" stroke="black" d="M58.44,-180.1C65.74,-188.3 73.79,-198.28 80.49,-207.36"/>
<polygon fill="black" stroke="black" points="77.78,-209.58 86.43,-215.7 83.48,-205.52 77.78,-209.58"/>
<g id="a_edge11&#45;headlabel"><a xlink:href="dir_000000_000011.html" target="_top" xlink:title="20">
<text text-anchor="middle" x="73.38" y="-205.8" font-family="Helvetica,sans-Serif" font-size="10.00">20</text>
</a>
</g>
</g>
<!-- dir_bdd9a5d540de89e9fe90efdfc6973a4f&#45;&gt;dir_694ec83a64f58cbdefbefce65cd1011c -->
<g id="edge12" class="edge">
<title>dir_bdd9a5d540de89e9fe90efdfc6973a4f&#45;&gt;dir_694ec83a64f58cbdefbefce65cd1011c</title>
<path fill="none" stroke="black" d="M42.58,-143.7C46.16,-135.56 51.31,-125.69 56.62,-116.7"/>
<polygon fill="black" stroke="black" points="59.65,-118.45 61.93,-108.1 53.7,-114.78 59.65,-118.45"/>
<g id="a_edge12&#45;headlabel"><a xlink:href="dir_000000_000143.html" target="_top" xlink:title="1">
<text text-anchor="middle" x="60.18" y="-120.5" font-family="Helvetica,sans-Serif" font-size="10.00">1</text>
</a>
</g>
</g>
</g>
</svg>
