<?xml version="1.0" encoding="UTF-8" standalone="no"?>
<!DOCTYPE svg PUBLIC "-//W3C//DTD SVG 1.1//EN"
 "http://www.w3.org/Graphics/SVG/1.1/DTD/svg11.dtd">
<!-- Generated by graphviz version 2.44.0 ()
 -->
<!-- Title: ee/graph Pages: 1 -->
<svg width="315pt" height="303pt"
 viewBox="0.00 0.00 314.67 303.00" xmlns="http://www.w3.org/2000/svg" xmlns:xlink="http://www.w3.org/1999/xlink">
<g id="graph0" class="graph" transform="scale(1 1) rotate(0) translate(4 299)">
<title>ee/graph</title>
<polygon fill="white" stroke="transparent" points="-4,4 -4,-299 310.67,-299 310.67,4 -4,4"/>
<g id="clust1" class="cluster">
<title>clusterdir_049738f1909e8dc3e45fe1f6b3faa109</title>
<g id="a_clust1"><a xlink:href="dir_049738f1909e8dc3e45fe1f6b3faa109.html" target="_top" xlink:title="ee">
<polygon fill="#ddddee" stroke="black" points="8,-64 8,-287 228,-287 228,-64 8,-64"/>
<text text-anchor="middle" x="118" y="-275" font-family="Helvetica,sans-Serif" font-size="10.00">ee</text>
</a>
</g>
</g>
<g id="clust2" class="cluster">
<title>clusterdir_933591e1cd95ed33f946db8a4302cbd1</title>
<g id="a_clust2"><a xlink:href="dir_933591e1cd95ed33f946db8a4302cbd1.html" target="_top">
<polygon fill="#eeeeff" stroke="black" points="16,-136 16,-260 158,-260 158,-136 16,-136"/>
</a>
</g>
</g>
<!-- dir_a0a8ac7efb6662b749c1285408048e6d -->
<g id="node1" class="node">
<title>dir_a0a8ac7efb6662b749c1285408048e6d</title>
<g id="a_node1"><a xlink:href="dir_a0a8ac7efb6662b749c1285408048e6d.html" target="_top" xlink:title="erl">
<polygon fill="white" stroke="red" points="180,-108 126,-108 126,-72 180,-72 180,-108"/>
<text text-anchor="middle" x="153" y="-87.5" font-family="Helvetica,sans-Serif" font-size="10.00">erl</text>
</a>
</g>
</g>
<!-- dir_bdd9a5d540de89e9fe90efdfc6973a4f -->
<g id="node6" class="node">
<title>dir_bdd9a5d540de89e9fe90efdfc6973a4f</title>
<g id="a_node6"><a xlink:href="dir_bdd9a5d540de89e9fe90efdfc6973a4f.html" target="_top" xlink:title="common">
<polygon fill="white" stroke="red" points="290,-108 236,-108 236,-72 290,-72 290,-108"/>
<text text-anchor="middle" x="263" y="-87.5" font-family="Helvetica,sans-Serif" font-size="10.00">common</text>
</a>
</g>
</g>
<!-- dir_a0a8ac7efb6662b749c1285408048e6d&#45;&gt;dir_bdd9a5d540de89e9fe90efdfc6973a4f -->
<g id="edge1" class="edge">
<title>dir_a0a8ac7efb6662b749c1285408048e6d&#45;&gt;dir_bdd9a5d540de89e9fe90efdfc6973a4f</title>
<path fill="none" stroke="black" d="M180.07,-90C195.31,-90 210.54,-90 225.78,-90"/>
<polygon fill="black" stroke="black" points="225.79,-93.5 235.79,-90 225.79,-86.5 225.79,-93.5"/>
<g id="a_edge1&#45;headlabel"><a xlink:href="dir_000206_000000.html" target="_top" xlink:title="1">
<text text-anchor="middle" x="222.19" y="-93.84" font-family="Helvetica,sans-Serif" font-size="10.00">1</text>
</a>
</g>
</g>
<!-- dir_0981ace215aa2029f526b70c145b9fbe -->
<g id="node7" class="node">
<title>dir_0981ace215aa2029f526b70c145b9fbe</title>
<g id="a_node7"><a xlink:href="dir_0981ace215aa2029f526b70c145b9fbe.html" target="_top" xlink:title="iop">
<polygon fill="white" stroke="red" points="290,-36 236,-36 236,0 290,0 290,-36"/>
<text text-anchor="middle" x="263" y="-15.5" font-family="Helvetica,sans-Serif" font-size="10.00">iop</text>
</a>
</g>
</g>
<!-- dir_a0a8ac7efb6662b749c1285408048e6d&#45;&gt;dir_0981ace215aa2029f526b70c145b9fbe -->
<g id="edge2" class="edge">
<title>dir_a0a8ac7efb6662b749c1285408048e6d&#45;&gt;dir_0981ace215aa2029f526b70c145b9fbe</title>
<path fill="none" stroke="black" d="M179.91,-71.88C194.16,-62.81 211.85,-51.55 227.24,-41.76"/>
<polygon fill="black" stroke="black" points="229.43,-44.51 235.99,-36.19 225.67,-38.61 229.43,-44.51"/>
<g id="a_edge2&#45;headlabel"><a xlink:href="dir_000206_000011.html" target="_top" xlink:title="2">
<text text-anchor="middle" x="227.92" y="-46.34" font-family="Helvetica,sans-Serif" font-size="10.00">2</text>
</a>
</g>
</g>
<!-- dir_694ec83a64f58cbdefbefce65cd1011c -->
<g id="node2" class="node">
<title>dir_694ec83a64f58cbdefbefce65cd1011c</title>
<g id="a_node2"><a xlink:href="dir_694ec83a64f58cbdefbefce65cd1011c.html" target="_top" xlink:title="kernel">
<polygon fill="white" stroke="red" points="220,-180 166,-180 166,-144 220,-144 220,-180"/>
<text text-anchor="middle" x="193" y="-159.5" font-family="Helvetica,sans-Serif" font-size="10.00">kernel</text>
</a>
</g>
</g>
<!-- dir_694ec83a64f58cbdefbefce65cd1011c&#45;&gt;dir_a0a8ac7efb6662b749c1285408048e6d -->
<g id="edge11" class="edge">
<title>dir_694ec83a64f58cbdefbefce65cd1011c&#45;&gt;dir_a0a8ac7efb6662b749c1285408048e6d</title>
<path fill="none" stroke="black" d="M183.11,-143.7C178.51,-135.64 172.94,-125.89 167.85,-116.98"/>
<polygon fill="black" stroke="black" points="170.77,-115.05 162.77,-108.1 164.7,-118.52 170.77,-115.05"/>
<g id="a_edge11&#45;headlabel"><a xlink:href="dir_000143_000206.html" target="_top" xlink:title="1">
<text text-anchor="middle" x="175.02" y="-114.26" font-family="Helvetica,sans-Serif" font-size="10.00">1</text>
</a>
</g>
</g>
<!-- dir_694ec83a64f58cbdefbefce65cd1011c&#45;&gt;dir_bdd9a5d540de89e9fe90efdfc6973a4f -->
<g id="edge9" class="edge">
<title>dir_694ec83a64f58cbdefbefce65cd1011c&#45;&gt;dir_bdd9a5d540de89e9fe90efdfc6973a4f</title>
<path fill="none" stroke="black" d="M204.39,-143.7C212.14,-135.05 222.57,-124.45 232.53,-115.03"/>
<polygon fill="black" stroke="black" points="235.04,-117.47 240,-108.1 230.29,-112.33 235.04,-117.47"/>
<g id="a_edge9&#45;headlabel"><a xlink:href="dir_000143_000000.html" target="_top" xlink:title="24">
<text text-anchor="middle" x="234.33" y="-119.49" font-family="Helvetica,sans-Serif" font-size="10.00">24</text>
</a>
</g>
</g>
<!-- dir_694ec83a64f58cbdefbefce65cd1011c&#45;&gt;dir_0981ace215aa2029f526b70c145b9fbe -->
<g id="edge10" class="edge">
<title>dir_694ec83a64f58cbdefbefce65cd1011c&#45;&gt;dir_0981ace215aa2029f526b70c145b9fbe</title>
<path fill="none" stroke="black" d="M197.14,-143.79C202.37,-123.8 212.47,-90.22 227,-64 230.73,-57.26 235.48,-50.51 240.29,-44.35"/>
<polygon fill="black" stroke="black" points="243.18,-46.35 246.8,-36.39 237.76,-41.92 243.18,-46.35"/>
<g id="a_edge10&#45;headlabel"><a xlink:href="dir_000143_000011.html" target="_top" xlink:title="5">
<text text-anchor="middle" x="243.1" y="-48.43" font-family="Helvetica,sans-Serif" font-size="10.00">5</text>
</a>
</g>
</g>
<!-- dir_933591e1cd95ed33f946db8a4302cbd1 -->
<g id="node3" class="node">
<title>dir_933591e1cd95ed33f946db8a4302cbd1</title>
<text text-anchor="middle" x="123" y="-231.5" font-family="Helvetica,sans-Serif" font-size="10.00">graph</text>
</g>
<!-- dir_587f58ae6bff4b1360d4911800bd5f72 -->
<g id="node4" class="node">
<title>dir_587f58ae6bff4b1360d4911800bd5f72</title>
<g id="a_node4"><a xlink:href="dir_587f58ae6bff4b1360d4911800bd5f72.html" target="_top" xlink:title="include">
<polygon fill="white" stroke="black" points="78,-180 24,-180 24,-144 78,-144 78,-180"/>
<text text-anchor="middle" x="51" y="-159.5" font-family="Helvetica,sans-Serif" font-size="10.00">include</text>
</a>
</g>
</g>
<!-- dir_1a15d16f9d67565cc9b389bcd85d26fc -->
<g id="node5" class="node">
<title>dir_1a15d16f9d67565cc9b389bcd85d26fc</title>
<g id="a_node5"><a xlink:href="dir_1a15d16f9d67565cc9b389bcd85d26fc.html" target="_top" xlink:title="src">
<polygon fill="white" stroke="black" points="78,-252 24,-252 24,-216 78,-216 78,-252"/>
<text text-anchor="middle" x="51" y="-231.5" font-family="Helvetica,sans-Serif" font-size="10.00">src</text>
</a>
</g>
</g>
<!-- dir_1a15d16f9d67565cc9b389bcd85d26fc&#45;&gt;dir_a0a8ac7efb6662b749c1285408048e6d -->
<g id="edge6" class="edge">
<title>dir_1a15d16f9d67565cc9b389bcd85d26fc&#45;&gt;dir_a0a8ac7efb6662b749c1285408048e6d</title>
<path fill="none" stroke="black" d="M63.3,-215.87C81.07,-191.14 114.04,-145.24 134.67,-116.51"/>
<polygon fill="black" stroke="black" points="137.66,-118.35 140.65,-108.19 131.98,-114.27 137.66,-118.35"/>
<g id="a_edge6&#45;headlabel"><a xlink:href="dir_000140_000206.html" target="_top" xlink:title="1">
<text text-anchor="middle" x="137.87" y="-120.43" font-family="Helvetica,sans-Serif" font-size="10.00">1</text>
</a>
</g>
</g>
<!-- dir_1a15d16f9d67565cc9b389bcd85d26fc&#45;&gt;dir_694ec83a64f58cbdefbefce65cd1011c -->
<g id="edge5" class="edge">
<title>dir_1a15d16f9d67565cc9b389bcd85d26fc&#45;&gt;dir_694ec83a64f58cbdefbefce65cd1011c</title>
<path fill="none" stroke="black" d="M78.23,-220.1C103.13,-208.28 138.45,-191.49 156.82,-182.49"/>
<polygon fill="black" stroke="black" points="158.61,-185.52 166,-177.92 155.48,-179.25 158.61,-185.52"/>
<g id="a_edge5&#45;headlabel"><a xlink:href="dir_000140_000143.html" target="_top" xlink:title="3">
<text text-anchor="middle" x="156.65" y="-187.16" font-family="Helvetica,sans-Serif" font-size="10.00">3</text>
</a>
</g>
</g>
<!-- dir_1a15d16f9d67565cc9b389bcd85d26fc&#45;&gt;dir_587f58ae6bff4b1360d4911800bd5f72 -->
<g id="edge4" class="edge">
<title>dir_1a15d16f9d67565cc9b389bcd85d26fc&#45;&gt;dir_587f58ae6bff4b1360d4911800bd5f72</title>
<path fill="none" stroke="black" d="M51,-215.7C51,-207.98 51,-198.71 51,-190.11"/>
<polygon fill="black" stroke="black" points="54.5,-190.1 51,-180.1 47.5,-190.1 54.5,-190.1"/>
<g id="a_edge4&#45;headlabel"><a xlink:href="dir_000140_000210.html" target="_top" xlink:title="6">
<text text-anchor="middle" x="57.34" y="-191.2" font-family="Helvetica,sans-Serif" font-size="10.00">6</text>
</a>
</g>
</g>
<!-- dir_1a15d16f9d67565cc9b389bcd85d26fc&#45;&gt;dir_bdd9a5d540de89e9fe90efdfc6973a4f -->
<g id="edge7" class="edge">
<title>dir_1a15d16f9d67565cc9b389bcd85d26fc&#45;&gt;dir_bdd9a5d540de89e9fe90efdfc6973a4f</title>
<path fill="none" stroke="black" d="M78.28,-219.43C81.19,-218.19 84.14,-217.02 87,-216 149.55,-193.71 182.94,-224.75 232,-180 249.42,-164.11 257.05,-137.91 260.39,-118.04"/>
<polygon fill="black" stroke="black" points="263.87,-118.43 261.81,-108.04 256.94,-117.45 263.87,-118.43"/>
<g id="a_edge7&#45;headlabel"><a xlink:href="dir_000140_000000.html" target="_top" xlink:title="4">
<text text-anchor="middle" x="266.18" y="-119.89" font-family="Helvetica,sans-Serif" font-size="10.00">4</text>
</a>
</g>
</g>
<!-- dir_1a15d16f9d67565cc9b389bcd85d26fc&#45;&gt;dir_0981ace215aa2029f526b70c145b9fbe -->
<g id="edge3" class="edge">
<title>dir_1a15d16f9d67565cc9b389bcd85d26fc&#45;&gt;dir_0981ace215aa2029f526b70c145b9fbe</title>
<path fill="none" stroke="black" d="M78.24,-219.33C81.16,-218.11 84.12,-216.97 87,-216 160.62,-191.25 195.26,-225.78 258,-180 302.17,-147.77 317.1,-115.6 299,-64 296.5,-56.86 292.33,-50.01 287.7,-43.91"/>
<polygon fill="black" stroke="black" points="290.29,-41.55 281.22,-36.08 284.9,-46.01 290.29,-41.55"/>
<g id="a_edge3&#45;headlabel"><a xlink:href="dir_000140_000011.html" target="_top" xlink:title="1">
<text text-anchor="middle" x="294.77" y="-40" font-family="Helvetica,sans-Serif" font-size="10.00">1</text>
</a>
</g>
</g>
<!-- dir_bdd9a5d540de89e9fe90efdfc6973a4f&#45;&gt;dir_694ec83a64f58cbdefbefce65cd1011c -->
<g id="edge13" class="edge">
<title>dir_bdd9a5d540de89e9fe90efdfc6973a4f&#45;&gt;dir_694ec83a64f58cbdefbefce65cd1011c</title>
<path fill="none" stroke="black" d="M251.79,-108.1C244.08,-116.72 233.67,-127.32 223.7,-136.76"/>
<polygon fill="black" stroke="black" points="221.17,-134.33 216.22,-143.7 225.93,-139.46 221.17,-134.33"/>
<g id="a_edge13&#45;headlabel"><a xlink:href="dir_000000_000143.html" target="_top" xlink:title="1">
<text text-anchor="middle" x="221.88" y="-127.3" font-family="Helvetica,sans-Serif" font-size="10.00">1</text>
</a>
</g>
</g>
<!-- dir_bdd9a5d540de89e9fe90efdfc6973a4f&#45;&gt;dir_0981ace215aa2029f526b70c145b9fbe -->
<g id="edge12" class="edge">
<title>dir_bdd9a5d540de89e9fe90efdfc6973a4f&#45;&gt;dir_0981ace215aa2029f526b70c145b9fbe</title>
<path fill="none" stroke="black" d="M257.08,-71.7C256.29,-63.98 256.06,-54.71 256.4,-46.11"/>
<polygon fill="black" stroke="black" points="259.9,-46.32 257.1,-36.1 252.92,-45.84 259.9,-46.32"/>
<g id="a_edge12&#45;headlabel"><a xlink:href="dir_000000_000011.html" target="_top" xlink:title="20">
<text text-anchor="middle" x="262.48" y="-47.61" font-family="Helvetica,sans-Serif" font-size="10.00">20</text>
</a>
</g>
</g>
<!-- dir_0981ace215aa2029f526b70c145b9fbe&#45;&gt;dir_bdd9a5d540de89e9fe90efdfc6973a4f -->
<g id="edge8" class="edge">
<title>dir_0981ace215aa2029f526b70c145b9fbe&#45;&gt;dir_bdd9a5d540de89e9fe90efdfc6973a4f</title>
<path fill="none" stroke="black" d="M268.9,-36.1C269.7,-43.79 269.94,-53.05 269.6,-61.67"/>
<polygon fill="black" stroke="black" points="266.11,-61.48 268.92,-71.7 273.09,-61.96 266.11,-61.48"/>
<g id="a_edge8&#45;headlabel"><a xlink:href="dir_000011_000000.html" target="_top" xlink:title="158">
<text text-anchor="middle" x="263.52" y="-55.2" font-family="Helvetica,sans-Serif" font-size="10.00">158</text>
</a>
</g>
</g>
</g>
</svg>
