<?xml version="1.0" encoding="UTF-8" standalone="no"?>
<!DOCTYPE svg PUBLIC "-//W3C//DTD SVG 1.1//EN"
 "http://www.w3.org/Graphics/SVG/1.1/DTD/svg11.dtd">
<!-- Generated by graphviz version 2.43.0 (0)
 -->
<!-- Title: ee/dma/src Pages: 1 -->
<svg width="235pt" height="367pt"
 viewBox="0.00 0.00 234.99 367.00" xmlns="http://www.w3.org/2000/svg" xmlns:xlink="http://www.w3.org/1999/xlink">
<g id="graph0" class="graph" transform="scale(1 1) rotate(0) translate(4 363)">
<title>ee/dma/src</title>
<polygon fill="white" stroke="transparent" points="-4,4 -4,-363 230.99,-363 230.99,4 -4,4"/>
<g id="clust1" class="cluster">
<title>clusterdir_d6c8ea3c46b2d4fe2308a65fe0836890</title>
<g id="a_clust1"><a xlink:href="dir_d6c8ea3c46b2d4fe2308a65fe0836890.html" target="_top" xlink:title="dma">
<polygon fill="#ddddee" stroke="black" points="54.99,-280 54.99,-351 124.99,-351 124.99,-280 54.99,-280"/>
<text text-anchor="middle" x="89.99" y="-339" font-family="Helvetica,sans-Serif" font-size="10.00">dma</text>
</a>
</g>
</g>
<!-- dir_b11c102c899063f3c26f9e1eac520e38 -->
<g id="node1" class="node">
<title>dir_b11c102c899063f3c26f9e1eac520e38</title>
<g id="a_node1"><a xlink:href="dir_b11c102c899063f3c26f9e1eac520e38.html" target="_top" xlink:title="src">
<polygon fill="#eeeeff" stroke="black" points="116.99,-324 62.99,-324 62.99,-288 116.99,-288 116.99,-324"/>
<text text-anchor="middle" x="89.99" y="-303.5" font-family="Helvetica,sans-Serif" font-size="10.00">src</text>
</a>
</g>
</g>
<!-- dir_a0a8ac7efb6662b749c1285408048e6d -->
<g id="node2" class="node">
<title>dir_a0a8ac7efb6662b749c1285408048e6d</title>
<g id="a_node2"><a xlink:href="dir_a0a8ac7efb6662b749c1285408048e6d.html" target="_top" xlink:title="erl">
<polygon fill="white" stroke="red" points="116.99,-252 62.99,-252 62.99,-216 116.99,-216 116.99,-252"/>
<text text-anchor="middle" x="89.99" y="-231.5" font-family="Helvetica,sans-Serif" font-size="10.00">erl</text>
</a>
</g>
</g>
<!-- dir_b11c102c899063f3c26f9e1eac520e38&#45;&gt;dir_a0a8ac7efb6662b749c1285408048e6d -->
<g id="edge3" class="edge">
<title>dir_b11c102c899063f3c26f9e1eac520e38&#45;&gt;dir_a0a8ac7efb6662b749c1285408048e6d</title>
<path fill="none" stroke="black" d="M89.99,-287.7C89.99,-279.98 89.99,-270.71 89.99,-262.11"/>
<polygon fill="black" stroke="black" points="93.49,-262.1 89.99,-252.1 86.49,-262.1 93.49,-262.1"/>
<g id="a_edge3&#45;headlabel"><a xlink:href="dir_000310_000397.html" target="_top" xlink:title="1">
<text text-anchor="middle" x="96.33" y="-263.2" font-family="Helvetica,sans-Serif" font-size="10.00">1</text>
</a>
</g>
</g>
<!-- dir_4e78fb665b6edbed0f7a13a393f2c1a3 -->
<g id="node3" class="node">
<title>dir_4e78fb665b6edbed0f7a13a393f2c1a3</title>
<g id="a_node3"><a xlink:href="dir_4e78fb665b6edbed0f7a13a393f2c1a3.html" target="_top" xlink:title="include">
<polygon fill="none" stroke="black" points="226.99,-252 172.99,-252 172.99,-216 226.99,-216 226.99,-252"/>
<text text-anchor="middle" x="199.99" y="-231.5" font-family="Helvetica,sans-Serif" font-size="10.00">include</text>
</a>
</g>
</g>
<!-- dir_b11c102c899063f3c26f9e1eac520e38&#45;&gt;dir_4e78fb665b6edbed0f7a13a393f2c1a3 -->
<g id="edge4" class="edge">
<title>dir_b11c102c899063f3c26f9e1eac520e38&#45;&gt;dir_4e78fb665b6edbed0f7a13a393f2c1a3</title>
<path fill="none" stroke="black" d="M116.9,-287.88C131.15,-278.81 148.84,-267.55 164.23,-257.76"/>
<polygon fill="black" stroke="black" points="166.42,-260.51 172.98,-252.19 162.67,-254.61 166.42,-260.51"/>
<g id="a_edge4&#45;headlabel"><a xlink:href="dir_000310_000377.html" target="_top" xlink:title="2">
<text text-anchor="middle" x="164.92" y="-262.34" font-family="Helvetica,sans-Serif" font-size="10.00">2</text>
</a>
</g>
</g>
<!-- dir_0981ace215aa2029f526b70c145b9fbe -->
<g id="node4" class="node">
<title>dir_0981ace215aa2029f526b70c145b9fbe</title>
<g id="a_node4"><a xlink:href="dir_0981ace215aa2029f526b70c145b9fbe.html" target="_top" xlink:title="iop">
<polygon fill="white" stroke="red" points="78.99,-180 24.99,-180 24.99,-144 78.99,-144 78.99,-180"/>
<text text-anchor="middle" x="51.99" y="-159.5" font-family="Helvetica,sans-Serif" font-size="10.00">iop</text>
</a>
</g>
</g>
<!-- dir_b11c102c899063f3c26f9e1eac520e38&#45;&gt;dir_0981ace215aa2029f526b70c145b9fbe -->
<g id="edge5" class="edge">
<title>dir_b11c102c899063f3c26f9e1eac520e38&#45;&gt;dir_0981ace215aa2029f526b70c145b9fbe</title>
<path fill="none" stroke="black" d="M74.5,-287.74C66.77,-277.98 58.2,-265.14 53.99,-252 47.61,-232.04 47.43,-208.25 48.67,-190.29"/>
<polygon fill="black" stroke="black" points="52.17,-190.47 49.56,-180.2 45.19,-189.86 52.17,-190.47"/>
<g id="a_edge5&#45;headlabel"><a xlink:href="dir_000310_000011.html" target="_top" xlink:title="1">
<text text-anchor="middle" x="54.68" y="-191.8" font-family="Helvetica,sans-Serif" font-size="10.00">1</text>
</a>
</g>
</g>
<!-- dir_694ec83a64f58cbdefbefce65cd1011c -->
<g id="node5" class="node">
<title>dir_694ec83a64f58cbdefbefce65cd1011c</title>
<g id="a_node5"><a xlink:href="dir_694ec83a64f58cbdefbefce65cd1011c.html" target="_top" xlink:title="kernel">
<polygon fill="white" stroke="red" points="68.99,-36 14.99,-36 14.99,0 68.99,0 68.99,-36"/>
<text text-anchor="middle" x="41.99" y="-15.5" font-family="Helvetica,sans-Serif" font-size="10.00">kernel</text>
</a>
</g>
</g>
<!-- dir_b11c102c899063f3c26f9e1eac520e38&#45;&gt;dir_694ec83a64f58cbdefbefce65cd1011c -->
<g id="edge6" class="edge">
<title>dir_b11c102c899063f3c26f9e1eac520e38&#45;&gt;dir_694ec83a64f58cbdefbefce65cd1011c</title>
<path fill="none" stroke="black" d="M71.87,-287.64C50.06,-265.24 14.86,-223.9 2.99,-180 -1.28,-164.2 -0.44,-88.48 4.99,-72 8.23,-62.19 13.92,-52.59 19.88,-44.31"/>
<polygon fill="black" stroke="black" points="22.79,-46.27 26.1,-36.2 17.24,-42 22.79,-46.27"/>
<g id="a_edge6&#45;headlabel"><a xlink:href="dir_000310_000321.html" target="_top" xlink:title="1">
<text text-anchor="middle" x="22.85" y="-48.35" font-family="Helvetica,sans-Serif" font-size="10.00">1</text>
</a>
</g>
</g>
<!-- dir_bdd9a5d540de89e9fe90efdfc6973a4f -->
<g id="node6" class="node">
<title>dir_bdd9a5d540de89e9fe90efdfc6973a4f</title>
<g id="a_node6"><a xlink:href="dir_bdd9a5d540de89e9fe90efdfc6973a4f.html" target="_top" xlink:title="common">
<polygon fill="white" stroke="red" points="129.49,-108 70.49,-108 70.49,-72 129.49,-72 129.49,-108"/>
<text text-anchor="middle" x="99.99" y="-87.5" font-family="Helvetica,sans-Serif" font-size="10.00">common</text>
</a>
</g>
</g>
<!-- dir_b11c102c899063f3c26f9e1eac520e38&#45;&gt;dir_bdd9a5d540de89e9fe90efdfc6973a4f -->
<g id="edge7" class="edge">
<title>dir_b11c102c899063f3c26f9e1eac520e38&#45;&gt;dir_bdd9a5d540de89e9fe90efdfc6973a4f</title>
<path fill="none" stroke="black" d="M105.6,-287.77C113.37,-278.03 121.94,-265.18 125.99,-252 140.11,-206.09 124.1,-150.33 111.69,-117.93"/>
<polygon fill="black" stroke="black" points="114.8,-116.26 107.84,-108.27 108.3,-118.86 114.8,-116.26"/>
<g id="a_edge7&#45;headlabel"><a xlink:href="dir_000310_000000.html" target="_top" xlink:title="1">
<text text-anchor="middle" x="118.77" y="-116.05" font-family="Helvetica,sans-Serif" font-size="10.00">1</text>
</a>
</g>
</g>
<!-- dir_a0a8ac7efb6662b749c1285408048e6d&#45;&gt;dir_0981ace215aa2029f526b70c145b9fbe -->
<g id="edge1" class="edge">
<title>dir_a0a8ac7efb6662b749c1285408048e6d&#45;&gt;dir_0981ace215aa2029f526b70c145b9fbe</title>
<path fill="none" stroke="black" d="M80.6,-215.7C76.23,-207.64 70.94,-197.89 66.1,-188.98"/>
<polygon fill="black" stroke="black" points="69.13,-187.22 61.28,-180.1 62.97,-190.56 69.13,-187.22"/>
<g id="a_edge1&#45;headlabel"><a xlink:href="dir_000397_000011.html" target="_top" xlink:title="4">
<text text-anchor="middle" x="73.34" y="-186.53" font-family="Helvetica,sans-Serif" font-size="10.00">4</text>
</a>
</g>
</g>
<!-- dir_a0a8ac7efb6662b749c1285408048e6d&#45;&gt;dir_bdd9a5d540de89e9fe90efdfc6973a4f -->
<g id="edge2" class="edge">
<title>dir_a0a8ac7efb6662b749c1285408048e6d&#45;&gt;dir_bdd9a5d540de89e9fe90efdfc6973a4f</title>
<path fill="none" stroke="black" d="M91.2,-215.87C92.91,-191.67 96.04,-147.21 98.07,-118.39"/>
<polygon fill="black" stroke="black" points="101.57,-118.41 98.78,-108.19 94.59,-117.92 101.57,-118.41"/>
<g id="a_edge2&#45;headlabel"><a xlink:href="dir_000397_000000.html" target="_top" xlink:title="1">
<text text-anchor="middle" x="104.15" y="-119.7" font-family="Helvetica,sans-Serif" font-size="10.00">1</text>
</a>
</g>
</g>
<!-- dir_4e78fb665b6edbed0f7a13a393f2c1a3&#45;&gt;dir_bdd9a5d540de89e9fe90efdfc6973a4f -->
<g id="edge8" class="edge">
<title>dir_4e78fb665b6edbed0f7a13a393f2c1a3&#45;&gt;dir_bdd9a5d540de89e9fe90efdfc6973a4f</title>
<path fill="none" stroke="black" d="M194.45,-215.82C187.87,-197.03 175.65,-166.59 158.99,-144 151.06,-133.24 140.67,-123.03 130.81,-114.48"/>
<polygon fill="black" stroke="black" points="133,-111.75 123.08,-108.01 128.51,-117.12 133,-111.75"/>
<g id="a_edge8&#45;headlabel"><a xlink:href="dir_000377_000000.html" target="_top" xlink:title="3">
<text text-anchor="middle" x="137.58" y="-109.38" font-family="Helvetica,sans-Serif" font-size="10.00">3</text>
</a>
</g>
</g>
<!-- dir_0981ace215aa2029f526b70c145b9fbe&#45;&gt;dir_bdd9a5d540de89e9fe90efdfc6973a4f -->
<g id="edge9" class="edge">
<title>dir_0981ace215aa2029f526b70c145b9fbe&#45;&gt;dir_bdd9a5d540de89e9fe90efdfc6973a4f</title>
<path fill="none" stroke="black" d="M57.94,-143.7C62.78,-135.39 69.52,-125.28 76.25,-116.14"/>
<polygon fill="black" stroke="black" points="79.1,-118.18 82.37,-108.1 73.53,-113.94 79.1,-118.18"/>
<g id="a_edge9&#45;headlabel"><a xlink:href="dir_000011_000000.html" target="_top" xlink:title="255">
<text text-anchor="middle" x="79.18" y="-120.26" font-family="Helvetica,sans-Serif" font-size="10.00">255</text>
</a>
</g>
</g>
<!-- dir_694ec83a64f58cbdefbefce65cd1011c&#45;&gt;dir_a0a8ac7efb6662b749c1285408048e6d -->
<g id="edge10" class="edge">
<title>dir_694ec83a64f58cbdefbefce65cd1011c&#45;&gt;dir_a0a8ac7efb6662b749c1285408048e6d</title>
<path fill="none" stroke="black" d="M32.8,-36.04C17.64,-66.64 -8.59,-132.15 15.99,-180 24.13,-195.83 39.43,-207.99 54.01,-216.64"/>
<polygon fill="black" stroke="black" points="52.49,-219.8 62.93,-221.58 55.88,-213.68 52.49,-219.8"/>
<g id="a_edge10&#45;headlabel"><a xlink:href="dir_000321_000397.html" target="_top" xlink:title="1">
<text text-anchor="middle" x="47.97" y="-218.04" font-family="Helvetica,sans-Serif" font-size="10.00">1</text>
</a>
</g>
</g>
<!-- dir_694ec83a64f58cbdefbefce65cd1011c&#45;&gt;dir_0981ace215aa2029f526b70c145b9fbe -->
<g id="edge11" class="edge">
<title>dir_694ec83a64f58cbdefbefce65cd1011c&#45;&gt;dir_0981ace215aa2029f526b70c145b9fbe</title>
<path fill="none" stroke="black" d="M43.21,-36.19C44.91,-60.42 48.04,-104.89 50.07,-133.68"/>
<polygon fill="black" stroke="black" points="46.59,-134.14 50.79,-143.87 53.58,-133.65 46.59,-134.14"/>
<g id="a_edge11&#45;headlabel"><a xlink:href="dir_000321_000011.html" target="_top" xlink:title="5">
<text text-anchor="middle" x="43.51" y="-128.26" font-family="Helvetica,sans-Serif" font-size="10.00">5</text>
</a>
</g>
</g>
<!-- dir_694ec83a64f58cbdefbefce65cd1011c&#45;&gt;dir_bdd9a5d540de89e9fe90efdfc6973a4f -->
<g id="edge12" class="edge">
<title>dir_694ec83a64f58cbdefbefce65cd1011c&#45;&gt;dir_bdd9a5d540de89e9fe90efdfc6973a4f</title>
<path fill="none" stroke="black" d="M62.06,-36.1C69.79,-44.38 78.37,-54.49 85.5,-63.64"/>
<polygon fill="black" stroke="black" points="82.76,-65.82 91.57,-71.7 88.35,-61.6 82.76,-65.82"/>
<g id="a_edge12&#45;headlabel"><a xlink:href="dir_000321_000000.html" target="_top" xlink:title="35">
<text text-anchor="middle" x="78.33" y="-62.16" font-family="Helvetica,sans-Serif" font-size="10.00">35</text>
</a>
</g>
</g>
<!-- dir_bdd9a5d540de89e9fe90efdfc6973a4f&#45;&gt;dir_0981ace215aa2029f526b70c145b9fbe -->
<g id="edge13" class="edge">
<title>dir_bdd9a5d540de89e9fe90efdfc6973a4f&#45;&gt;dir_0981ace215aa2029f526b70c145b9fbe</title>
<path fill="none" stroke="black" d="M94.16,-108.1C89.35,-116.38 82.63,-126.49 75.9,-135.64"/>
<polygon fill="black" stroke="black" points="73.04,-133.62 69.78,-143.7 78.61,-137.85 73.04,-133.62"/>
<g id="a_edge13&#45;headlabel"><a xlink:href="dir_000000_000011.html" target="_top" xlink:title="20">
<text text-anchor="middle" x="72.96" y="-126.54" font-family="Helvetica,sans-Serif" font-size="10.00">20</text>
</a>
</g>
</g>
<!-- dir_bdd9a5d540de89e9fe90efdfc6973a4f&#45;&gt;dir_694ec83a64f58cbdefbefce65cd1011c -->
<g id="edge14" class="edge">
<title>dir_bdd9a5d540de89e9fe90efdfc6973a4f&#45;&gt;dir_694ec83a64f58cbdefbefce65cd1011c</title>
<path fill="none" stroke="black" d="M79.74,-71.7C72,-63.39 63.43,-53.28 56.32,-44.14"/>
<polygon fill="black" stroke="black" points="59.08,-41.99 50.27,-36.1 53.49,-46.2 59.08,-41.99"/>
<g id="a_edge14&#45;headlabel"><a xlink:href="dir_000000_000321.html" target="_top" xlink:title="1">
<text text-anchor="middle" x="63.51" y="-40.66" font-family="Helvetica,sans-Serif" font-size="10.00">1</text>
</a>
</g>
</g>
</g>
</svg>
