<?xml version="1.0" encoding="UTF-8" standalone="no"?>
<!DOCTYPE svg PUBLIC "-//W3C//DTD SVG 1.1//EN"
 "http://www.w3.org/Graphics/SVG/1.1/DTD/svg11.dtd">
<!-- Generated by graphviz version 2.44.0 ()
 -->
<!-- Title: iop/fs/bdm Pages: 1 -->
<svg width="182pt" height="303pt"
 viewBox="0.00 0.00 182.00 303.00" xmlns="http://www.w3.org/2000/svg" xmlns:xlink="http://www.w3.org/1999/xlink">
<g id="graph0" class="graph" transform="scale(1 1) rotate(0) translate(4 299)">
<title>iop/fs/bdm</title>
<polygon fill="white" stroke="transparent" points="-4,4 -4,-299 178,-299 178,4 -4,4"/>
<g id="clust1" class="cluster">
<title>clusterdir_f24daea2522ffa8b6dc5fa9cdf5b8f5c</title>
<g id="a_clust1"><a xlink:href="dir_f24daea2522ffa8b6dc5fa9cdf5b8f5c.html" target="_top" xlink:title="fs">
<polygon fill="#ddddee" stroke="black" points="8,-128 8,-287 166,-287 166,-128 8,-128"/>
<text text-anchor="middle" x="87" y="-275" font-family="Helvetica,sans-Serif" font-size="10.00">fs</text>
</a>
</g>
</g>
<g id="clust2" class="cluster">
<title>clusterdir_0134b0376fbe77322088b496fb368f9b</title>
<g id="a_clust2"><a xlink:href="dir_0134b0376fbe77322088b496fb368f9b.html" target="_top">
<polygon fill="#eeeeff" stroke="black" points="16,-136 16,-260 158,-260 158,-136 16,-136"/>
</a>
</g>
</g>
<!-- dir_0134b0376fbe77322088b496fb368f9b -->
<g id="node1" class="node">
<title>dir_0134b0376fbe77322088b496fb368f9b</title>
<text text-anchor="middle" x="123" y="-231.5" font-family="Helvetica,sans-Serif" font-size="10.00">bdm</text>
</g>
<!-- dir_4aa3f641574c4329e5ed721597730e1e -->
<g id="node2" class="node">
<title>dir_4aa3f641574c4329e5ed721597730e1e</title>
<g id="a_node2"><a xlink:href="dir_4aa3f641574c4329e5ed721597730e1e.html" target="_top" xlink:title="include">
<polygon fill="white" stroke="black" points="78,-180 24,-180 24,-144 78,-144 78,-180"/>
<text text-anchor="middle" x="51" y="-159.5" font-family="Helvetica,sans-Serif" font-size="10.00">include</text>
</a>
</g>
</g>
<!-- dir_9be0baa3d4a3e9f480a9ee70594037fa -->
<g id="node4" class="node">
<title>dir_9be0baa3d4a3e9f480a9ee70594037fa</title>
<g id="a_node4"><a xlink:href="dir_9be0baa3d4a3e9f480a9ee70594037fa.html" target="_top" xlink:title="kernel">
<polygon fill="white" stroke="red" points="116,-108 62,-108 62,-72 116,-72 116,-108"/>
<text text-anchor="middle" x="89" y="-87.5" font-family="Helvetica,sans-Serif" font-size="10.00">kernel</text>
</a>
</g>
</g>
<!-- dir_4aa3f641574c4329e5ed721597730e1e&#45;&gt;dir_9be0baa3d4a3e9f480a9ee70594037fa -->
<g id="edge5" class="edge">
<title>dir_4aa3f641574c4329e5ed721597730e1e&#45;&gt;dir_9be0baa3d4a3e9f480a9ee70594037fa</title>
<path fill="none" stroke="black" d="M60.39,-143.7C64.76,-135.64 70.06,-125.89 74.9,-116.98"/>
<polygon fill="black" stroke="black" points="78.02,-118.56 79.71,-108.1 71.87,-115.22 78.02,-118.56"/>
<g id="a_edge5&#45;headlabel"><a xlink:href="dir_000274_000214.html" target="_top" xlink:title="1">
<text text-anchor="middle" x="78.8" y="-120.58" font-family="Helvetica,sans-Serif" font-size="10.00">1</text>
</a>
</g>
</g>
<!-- dir_ac1b9311aa44ad4cf108d5fb93dfb606 -->
<g id="node3" class="node">
<title>dir_ac1b9311aa44ad4cf108d5fb93dfb606</title>
<g id="a_node3"><a xlink:href="dir_ac1b9311aa44ad4cf108d5fb93dfb606.html" target="_top" xlink:title="src">
<polygon fill="white" stroke="red" points="78,-252 24,-252 24,-216 78,-216 78,-252"/>
<text text-anchor="middle" x="51" y="-231.5" font-family="Helvetica,sans-Serif" font-size="10.00">src</text>
</a>
</g>
</g>
<!-- dir_ac1b9311aa44ad4cf108d5fb93dfb606&#45;&gt;dir_4aa3f641574c4329e5ed721597730e1e -->
<g id="edge2" class="edge">
<title>dir_ac1b9311aa44ad4cf108d5fb93dfb606&#45;&gt;dir_4aa3f641574c4329e5ed721597730e1e</title>
<path fill="none" stroke="black" d="M51,-215.7C51,-207.98 51,-198.71 51,-190.11"/>
<polygon fill="black" stroke="black" points="54.5,-190.1 51,-180.1 47.5,-190.1 54.5,-190.1"/>
<g id="a_edge2&#45;headlabel"><a xlink:href="dir_000037_000274.html" target="_top" xlink:title="4">
<text text-anchor="middle" x="57.34" y="-191.2" font-family="Helvetica,sans-Serif" font-size="10.00">4</text>
</a>
</g>
</g>
<!-- dir_ac1b9311aa44ad4cf108d5fb93dfb606&#45;&gt;dir_9be0baa3d4a3e9f480a9ee70594037fa -->
<g id="edge3" class="edge">
<title>dir_ac1b9311aa44ad4cf108d5fb93dfb606&#45;&gt;dir_9be0baa3d4a3e9f480a9ee70594037fa</title>
<path fill="none" stroke="black" d="M66.49,-215.74C74.22,-205.98 82.8,-193.14 87,-180 93.39,-160.04 93.57,-136.25 92.33,-118.29"/>
<polygon fill="black" stroke="black" points="95.8,-117.86 91.44,-108.2 88.83,-118.47 95.8,-117.86"/>
<g id="a_edge3&#45;headlabel"><a xlink:href="dir_000037_000214.html" target="_top" xlink:title="12">
<text text-anchor="middle" x="98.94" y="-118.69" font-family="Helvetica,sans-Serif" font-size="10.00">12</text>
</a>
</g>
</g>
<!-- dir_bdd9a5d540de89e9fe90efdfc6973a4f -->
<g id="node5" class="node">
<title>dir_bdd9a5d540de89e9fe90efdfc6973a4f</title>
<g id="a_node5"><a xlink:href="dir_bdd9a5d540de89e9fe90efdfc6973a4f.html" target="_top" xlink:title="common">
<polygon fill="white" stroke="red" points="116,-36 62,-36 62,0 116,0 116,-36"/>
<text text-anchor="middle" x="89" y="-15.5" font-family="Helvetica,sans-Serif" font-size="10.00">common</text>
</a>
</g>
</g>
<!-- dir_ac1b9311aa44ad4cf108d5fb93dfb606&#45;&gt;dir_bdd9a5d540de89e9fe90efdfc6973a4f -->
<g id="edge4" class="edge">
<title>dir_ac1b9311aa44ad4cf108d5fb93dfb606&#45;&gt;dir_bdd9a5d540de89e9fe90efdfc6973a4f</title>
<path fill="none" stroke="black" d="M71.96,-215.98C82.58,-206.4 94.9,-193.63 103,-180 120.09,-151.24 120.06,-141.09 125,-108 127.36,-92.18 129.7,-87.29 125,-72 121.99,-62.22 116.49,-52.62 110.68,-44.33"/>
<polygon fill="black" stroke="black" points="113.41,-42.13 104.61,-36.23 107.81,-46.33 113.41,-42.13"/>
<g id="a_edge4&#45;headlabel"><a xlink:href="dir_000037_000000.html" target="_top" xlink:title="1">
<text text-anchor="middle" x="117.83" y="-40.8" font-family="Helvetica,sans-Serif" font-size="10.00">1</text>
</a>
</g>
</g>
<!-- dir_9be0baa3d4a3e9f480a9ee70594037fa&#45;&gt;dir_bdd9a5d540de89e9fe90efdfc6973a4f -->
<g id="edge1" class="edge">
<title>dir_9be0baa3d4a3e9f480a9ee70594037fa&#45;&gt;dir_bdd9a5d540de89e9fe90efdfc6973a4f</title>
<path fill="none" stroke="black" d="M83.08,-71.7C82.29,-63.98 82.06,-54.71 82.4,-46.11"/>
<polygon fill="black" stroke="black" points="85.9,-46.32 83.1,-36.1 78.92,-45.84 85.9,-46.32"/>
<g id="a_edge1&#45;headlabel"><a xlink:href="dir_000214_000000.html" target="_top" xlink:title="12">
<text text-anchor="middle" x="88.48" y="-47.61" font-family="Helvetica,sans-Serif" font-size="10.00">12</text>
</a>
</g>
</g>
<!-- dir_bdd9a5d540de89e9fe90efdfc6973a4f&#45;&gt;dir_9be0baa3d4a3e9f480a9ee70594037fa -->
<g id="edge6" class="edge">
<title>dir_bdd9a5d540de89e9fe90efdfc6973a4f&#45;&gt;dir_9be0baa3d4a3e9f480a9ee70594037fa</title>
<path fill="none" stroke="black" d="M94.9,-36.1C95.7,-43.79 95.94,-53.05 95.6,-61.67"/>
<polygon fill="black" stroke="black" points="92.11,-61.48 94.92,-71.7 99.09,-61.96 92.11,-61.48"/>
<g id="a_edge6&#45;headlabel"><a xlink:href="dir_000000_000214.html" target="_top" xlink:title="20">
<text text-anchor="middle" x="89.52" y="-55.2" font-family="Helvetica,sans-Serif" font-size="10.00">20</text>
</a>
</g>
</g>
</g>
</svg>
