<?xml version="1.0" encoding="UTF-8" standalone="no"?>
<!DOCTYPE svg PUBLIC "-//W3C//DTD SVG 1.1//EN"
 "http://www.w3.org/Graphics/SVG/1.1/DTD/svg11.dtd">
<!-- Generated by graphviz version 2.43.0 (0)
 -->
<!-- Title: iop/system/siftoo/src Pages: 1 -->
<svg width="411pt" height="439pt"
 viewBox="0.00 0.00 410.75 439.00" xmlns="http://www.w3.org/2000/svg" xmlns:xlink="http://www.w3.org/1999/xlink">
<g id="graph0" class="graph" transform="scale(1 1) rotate(0) translate(4 435)">
<title>iop/system/siftoo/src</title>
<polygon fill="white" stroke="transparent" points="-4,4 -4,-435 406.75,-435 406.75,4 -4,4"/>
<g id="clust1" class="cluster">
<title>clusterdir_c3fae06f71c3e401160299d109ef6df7</title>
<g id="a_clust1"><a xlink:href="dir_c3fae06f71c3e401160299d109ef6df7.html" target="_top" xlink:title="siftoo">
<polygon fill="#ddddee" stroke="black" points="116.75,-352 116.75,-423 186.75,-423 186.75,-352 116.75,-352"/>
<text text-anchor="middle" x="151.75" y="-411" font-family="Helvetica,sans-Serif" font-size="10.00">siftoo</text>
</a>
</g>
</g>
<!-- dir_56c96d436b95cd5650376ca3df086363 -->
<g id="node1" class="node">
<title>dir_56c96d436b95cd5650376ca3df086363</title>
<g id="a_node1"><a xlink:href="dir_56c96d436b95cd5650376ca3df086363.html" target="_top" xlink:title="src">
<polygon fill="#eeeeff" stroke="black" points="178.75,-396 124.75,-396 124.75,-360 178.75,-360 178.75,-396"/>
<text text-anchor="middle" x="151.75" y="-375.5" font-family="Helvetica,sans-Serif" font-size="10.00">src</text>
</a>
</g>
</g>
<!-- dir_9be0baa3d4a3e9f480a9ee70594037fa -->
<g id="node2" class="node">
<title>dir_9be0baa3d4a3e9f480a9ee70594037fa</title>
<g id="a_node2"><a xlink:href="dir_9be0baa3d4a3e9f480a9ee70594037fa.html" target="_top" xlink:title="kernel">
<polygon fill="white" stroke="red" points="177.75,-36 123.75,-36 123.75,0 177.75,0 177.75,-36"/>
<text text-anchor="middle" x="150.75" y="-15.5" font-family="Helvetica,sans-Serif" font-size="10.00">kernel</text>
</a>
</g>
</g>
<!-- dir_56c96d436b95cd5650376ca3df086363&#45;&gt;dir_9be0baa3d4a3e9f480a9ee70594037fa -->
<g id="edge6" class="edge">
<title>dir_56c96d436b95cd5650376ca3df086363&#45;&gt;dir_9be0baa3d4a3e9f480a9ee70594037fa</title>
<path fill="none" stroke="black" d="M124.54,-373.57C94.53,-368.3 47.01,-355.29 20.75,-324 -5.25,-293.02 1.75,-275.45 1.75,-235 1.75,-235 1.75,-235 1.75,-161 1.75,-99.08 70.02,-55.92 114.14,-34.5"/>
<polygon fill="black" stroke="black" points="115.86,-37.56 123.42,-30.14 112.88,-31.22 115.86,-37.56"/>
<g id="a_edge6&#45;headlabel"><a xlink:href="dir_000272_000530.html" target="_top" xlink:title="4">
<text text-anchor="middle" x="113.82" y="-39.16" font-family="Helvetica,sans-Serif" font-size="10.00">4</text>
</a>
</g>
</g>
<!-- dir_1a0c1cc6a62ce99b34521e1896eac836 -->
<g id="node3" class="node">
<title>dir_1a0c1cc6a62ce99b34521e1896eac836</title>
<g id="a_node3"><a xlink:href="dir_1a0c1cc6a62ce99b34521e1896eac836.html" target="_top" xlink:title="include">
<polygon fill="none" stroke="black" points="83.75,-324 29.75,-324 29.75,-288 83.75,-288 83.75,-324"/>
<text text-anchor="middle" x="56.75" y="-303.5" font-family="Helvetica,sans-Serif" font-size="10.00">include</text>
</a>
</g>
</g>
<!-- dir_56c96d436b95cd5650376ca3df086363&#45;&gt;dir_1a0c1cc6a62ce99b34521e1896eac836 -->
<g id="edge7" class="edge">
<title>dir_56c96d436b95cd5650376ca3df086363&#45;&gt;dir_1a0c1cc6a62ce99b34521e1896eac836</title>
<path fill="none" stroke="black" d="M128.27,-359.7C116.19,-350.8 101.3,-339.82 88.24,-330.2"/>
<polygon fill="black" stroke="black" points="90.09,-327.22 79.96,-324.1 85.94,-332.85 90.09,-327.22"/>
<g id="a_edge7&#45;headlabel"><a xlink:href="dir_000272_000573.html" target="_top" xlink:title="2">
<text text-anchor="middle" x="94.67" y="-324.57" font-family="Helvetica,sans-Serif" font-size="10.00">2</text>
</a>
</g>
</g>
<!-- dir_1d64e5e9f20206636d72b5bbe3d2b274 -->
<g id="node4" class="node">
<title>dir_1d64e5e9f20206636d72b5bbe3d2b274</title>
<g id="a_node4"><a xlink:href="dir_1d64e5e9f20206636d72b5bbe3d2b274.html" target="_top" xlink:title="loadcore">
<polygon fill="white" stroke="red" points="246.25,-108 187.25,-108 187.25,-72 246.25,-72 246.25,-108"/>
<text text-anchor="middle" x="216.75" y="-87.5" font-family="Helvetica,sans-Serif" font-size="10.00">loadcore</text>
</a>
</g>
</g>
<!-- dir_56c96d436b95cd5650376ca3df086363&#45;&gt;dir_1d64e5e9f20206636d72b5bbe3d2b274 -->
<g id="edge8" class="edge">
<title>dir_56c96d436b95cd5650376ca3df086363&#45;&gt;dir_1d64e5e9f20206636d72b5bbe3d2b274</title>
<path fill="none" stroke="black" d="M179.18,-369.66C201.22,-362.16 230.75,-348.1 244.75,-324 283.27,-257.71 250.03,-162.97 229.71,-117.43"/>
<polygon fill="black" stroke="black" points="232.84,-115.85 225.48,-108.23 226.48,-118.78 232.84,-115.85"/>
<g id="a_edge8&#45;headlabel"><a xlink:href="dir_000272_000251.html" target="_top" xlink:title="2">
<text text-anchor="middle" x="236.92" y="-115.43" font-family="Helvetica,sans-Serif" font-size="10.00">2</text>
</a>
</g>
</g>
<!-- dir_a0d37aaf829787e8da99f7ff6597b371 -->
<g id="node5" class="node">
<title>dir_a0d37aaf829787e8da99f7ff6597b371</title>
<g id="a_node5"><a xlink:href="dir_a0d37aaf829787e8da99f7ff6597b371.html" target="_top" xlink:title="sifman">
<polygon fill="white" stroke="red" points="178.75,-252 124.75,-252 124.75,-216 178.75,-216 178.75,-252"/>
<text text-anchor="middle" x="151.75" y="-231.5" font-family="Helvetica,sans-Serif" font-size="10.00">sifman</text>
</a>
</g>
</g>
<!-- dir_56c96d436b95cd5650376ca3df086363&#45;&gt;dir_a0d37aaf829787e8da99f7ff6597b371 -->
<g id="edge9" class="edge">
<title>dir_56c96d436b95cd5650376ca3df086363&#45;&gt;dir_a0d37aaf829787e8da99f7ff6597b371</title>
<path fill="none" stroke="black" d="M151.75,-359.87C151.75,-335.67 151.75,-291.21 151.75,-262.39"/>
<polygon fill="black" stroke="black" points="155.25,-262.19 151.75,-252.19 148.25,-262.19 155.25,-262.19"/>
<g id="a_edge9&#45;headlabel"><a xlink:href="dir_000272_000269.html" target="_top" xlink:title="2">
<text text-anchor="middle" x="158.09" y="-263.28" font-family="Helvetica,sans-Serif" font-size="10.00">2</text>
</a>
</g>
</g>
<!-- dir_7422a0894415a12ccd1d562a8ad09f2d -->
<g id="node6" class="node">
<title>dir_7422a0894415a12ccd1d562a8ad09f2d</title>
<g id="a_node6"><a xlink:href="dir_7422a0894415a12ccd1d562a8ad09f2d.html" target="_top" xlink:title="intrman">
<polygon fill="white" stroke="red" points="178.25,-180 123.25,-180 123.25,-144 178.25,-144 178.25,-180"/>
<text text-anchor="middle" x="150.75" y="-159.5" font-family="Helvetica,sans-Serif" font-size="10.00">intrman</text>
</a>
</g>
</g>
<!-- dir_56c96d436b95cd5650376ca3df086363&#45;&gt;dir_7422a0894415a12ccd1d562a8ad09f2d -->
<g id="edge10" class="edge">
<title>dir_56c96d436b95cd5650376ca3df086363&#45;&gt;dir_7422a0894415a12ccd1d562a8ad09f2d</title>
<path fill="none" stroke="black" d="M142.2,-359.87C126.94,-330.22 100.26,-267.57 115.75,-216 118.67,-206.28 124.01,-196.7 129.66,-188.41"/>
<polygon fill="black" stroke="black" points="132.52,-190.44 135.57,-180.3 126.85,-186.32 132.52,-190.44"/>
<g id="a_edge10&#45;headlabel"><a xlink:href="dir_000272_000243.html" target="_top" xlink:title="2">
<text text-anchor="middle" x="132.7" y="-192.52" font-family="Helvetica,sans-Serif" font-size="10.00">2</text>
</a>
</g>
</g>
<!-- dir_952a988346c879bc3b2834e2377036db -->
<g id="node7" class="node">
<title>dir_952a988346c879bc3b2834e2377036db</title>
<g id="a_node7"><a xlink:href="dir_952a988346c879bc3b2834e2377036db.html" target="_top" xlink:title="stdio">
<polygon fill="white" stroke="red" points="402.75,-180 348.75,-180 348.75,-144 402.75,-144 402.75,-180"/>
<text text-anchor="middle" x="375.75" y="-159.5" font-family="Helvetica,sans-Serif" font-size="10.00">stdio</text>
</a>
</g>
</g>
<!-- dir_56c96d436b95cd5650376ca3df086363&#45;&gt;dir_952a988346c879bc3b2834e2377036db -->
<g id="edge11" class="edge">
<title>dir_56c96d436b95cd5650376ca3df086363&#45;&gt;dir_952a988346c879bc3b2834e2377036db</title>
<path fill="none" stroke="black" d="M178.95,-377.09C218.87,-375.7 293.11,-367.02 334.75,-324 369.84,-287.75 376.12,-225.88 376.58,-190.32"/>
<polygon fill="black" stroke="black" points="380.08,-190.18 376.56,-180.19 373.08,-190.19 380.08,-190.18"/>
<g id="a_edge11&#45;headlabel"><a xlink:href="dir_000272_000275.html" target="_top" xlink:title="2">
<text text-anchor="middle" x="382.92" y="-191.27" font-family="Helvetica,sans-Serif" font-size="10.00">2</text>
</a>
</g>
</g>
<!-- dir_4bae4802256ab45fc18d13b3c6375605 -->
<g id="node8" class="node">
<title>dir_4bae4802256ab45fc18d13b3c6375605</title>
<g id="a_node8"><a xlink:href="dir_4bae4802256ab45fc18d13b3c6375605.html" target="_top" xlink:title="sbusintr">
<polygon fill="white" stroke="red" points="235.75,-324 179.75,-324 179.75,-288 235.75,-288 235.75,-324"/>
<text text-anchor="middle" x="207.75" y="-303.5" font-family="Helvetica,sans-Serif" font-size="10.00">sbusintr</text>
</a>
</g>
</g>
<!-- dir_56c96d436b95cd5650376ca3df086363&#45;&gt;dir_4bae4802256ab45fc18d13b3c6375605 -->
<g id="edge12" class="edge">
<title>dir_56c96d436b95cd5650376ca3df086363&#45;&gt;dir_4bae4802256ab45fc18d13b3c6375605</title>
<path fill="none" stroke="black" d="M165.59,-359.7C172.24,-351.39 180.33,-341.28 187.64,-332.14"/>
<polygon fill="black" stroke="black" points="190.55,-334.1 194.07,-324.1 185.09,-329.73 190.55,-334.1"/>
<g id="a_edge12&#45;headlabel"><a xlink:href="dir_000272_000263.html" target="_top" xlink:title="3">
<text text-anchor="middle" x="190.53" y="-336.18" font-family="Helvetica,sans-Serif" font-size="10.00">3</text>
</a>
</g>
</g>
<!-- dir_1a0c1cc6a62ce99b34521e1896eac836&#45;&gt;dir_9be0baa3d4a3e9f480a9ee70594037fa -->
<g id="edge1" class="edge">
<title>dir_1a0c1cc6a62ce99b34521e1896eac836&#45;&gt;dir_9be0baa3d4a3e9f480a9ee70594037fa</title>
<path fill="none" stroke="black" d="M58.27,-287.83C62.28,-248.13 75.42,-147.61 110.75,-72 115.29,-62.29 121.81,-52.64 128.27,-44.29"/>
<polygon fill="black" stroke="black" points="131.07,-46.39 134.64,-36.41 125.63,-41.99 131.07,-46.39"/>
<g id="a_edge1&#45;headlabel"><a xlink:href="dir_000573_000530.html" target="_top" xlink:title="1">
<text text-anchor="middle" x="131.02" y="-48.47" font-family="Helvetica,sans-Serif" font-size="10.00">1</text>
</a>
</g>
</g>
<!-- dir_1d64e5e9f20206636d72b5bbe3d2b274&#45;&gt;dir_9be0baa3d4a3e9f480a9ee70594037fa -->
<g id="edge2" class="edge">
<title>dir_1d64e5e9f20206636d72b5bbe3d2b274&#45;&gt;dir_9be0baa3d4a3e9f480a9ee70594037fa</title>
<path fill="none" stroke="black" d="M200.44,-71.7C192.44,-63.22 182.68,-52.86 173.93,-43.58"/>
<polygon fill="black" stroke="black" points="176.28,-40.98 166.88,-36.1 171.19,-45.78 176.28,-40.98"/>
<g id="a_edge2&#45;headlabel"><a xlink:href="dir_000251_000530.html" target="_top" xlink:title="4">
<text text-anchor="middle" x="180.82" y="-39.15" font-family="Helvetica,sans-Serif" font-size="10.00">4</text>
</a>
</g>
</g>
<!-- dir_a0d37aaf829787e8da99f7ff6597b371&#45;&gt;dir_9be0baa3d4a3e9f480a9ee70594037fa -->
<g id="edge3" class="edge">
<title>dir_a0d37aaf829787e8da99f7ff6597b371&#45;&gt;dir_9be0baa3d4a3e9f480a9ee70594037fa</title>
<path fill="none" stroke="black" d="M135.29,-215.92C127.1,-206.22 118.05,-193.37 113.75,-180 98.8,-133.48 120.14,-77.57 136.08,-45.37"/>
<polygon fill="black" stroke="black" points="139.35,-46.67 140.81,-36.18 133.13,-43.47 139.35,-46.67"/>
<g id="a_edge3&#45;headlabel"><a xlink:href="dir_000269_000530.html" target="_top" xlink:title="2">
<text text-anchor="middle" x="140.23" y="-48.67" font-family="Helvetica,sans-Serif" font-size="10.00">2</text>
</a>
</g>
</g>
<!-- dir_a0d37aaf829787e8da99f7ff6597b371&#45;&gt;dir_1d64e5e9f20206636d72b5bbe3d2b274 -->
<g id="edge4" class="edge">
<title>dir_a0d37aaf829787e8da99f7ff6597b371&#45;&gt;dir_1d64e5e9f20206636d72b5bbe3d2b274</title>
<path fill="none" stroke="black" d="M164.94,-215.54C172.08,-205.52 180.65,-192.48 186.75,-180 196.5,-160.04 204.37,-136.11 209.6,-118.1"/>
<polygon fill="black" stroke="black" points="213.03,-118.82 212.37,-108.25 206.29,-116.93 213.03,-118.82"/>
<g id="a_edge4&#45;headlabel"><a xlink:href="dir_000269_000251.html" target="_top" xlink:title="1">
<text text-anchor="middle" x="214.79" y="-120.55" font-family="Helvetica,sans-Serif" font-size="10.00">1</text>
</a>
</g>
</g>
<!-- dir_a0d37aaf829787e8da99f7ff6597b371&#45;&gt;dir_7422a0894415a12ccd1d562a8ad09f2d -->
<g id="edge5" class="edge">
<title>dir_a0d37aaf829787e8da99f7ff6597b371&#45;&gt;dir_7422a0894415a12ccd1d562a8ad09f2d</title>
<path fill="none" stroke="black" d="M151.5,-215.7C151.39,-207.98 151.26,-198.71 151.14,-190.11"/>
<polygon fill="black" stroke="black" points="154.64,-190.05 151,-180.1 147.64,-190.15 154.64,-190.05"/>
<g id="a_edge5&#45;headlabel"><a xlink:href="dir_000269_000243.html" target="_top" xlink:title="1">
<text text-anchor="middle" x="157.53" y="-191.11" font-family="Helvetica,sans-Serif" font-size="10.00">1</text>
</a>
</g>
</g>
<!-- dir_7422a0894415a12ccd1d562a8ad09f2d&#45;&gt;dir_9be0baa3d4a3e9f480a9ee70594037fa -->
<g id="edge13" class="edge">
<title>dir_7422a0894415a12ccd1d562a8ad09f2d&#45;&gt;dir_9be0baa3d4a3e9f480a9ee70594037fa</title>
<path fill="none" stroke="black" d="M150.75,-143.87C150.75,-119.67 150.75,-75.21 150.75,-46.39"/>
<polygon fill="black" stroke="black" points="154.25,-46.19 150.75,-36.19 147.25,-46.19 154.25,-46.19"/>
<g id="a_edge13&#45;headlabel"><a xlink:href="dir_000243_000530.html" target="_top" xlink:title="3">
<text text-anchor="middle" x="157.09" y="-47.28" font-family="Helvetica,sans-Serif" font-size="10.00">3</text>
</a>
</g>
</g>
<!-- dir_7422a0894415a12ccd1d562a8ad09f2d&#45;&gt;dir_1d64e5e9f20206636d72b5bbe3d2b274 -->
<g id="edge14" class="edge">
<title>dir_7422a0894415a12ccd1d562a8ad09f2d&#45;&gt;dir_1d64e5e9f20206636d72b5bbe3d2b274</title>
<path fill="none" stroke="black" d="M167.07,-143.7C175.06,-135.22 184.82,-124.86 193.57,-115.58"/>
<polygon fill="black" stroke="black" points="196.31,-117.78 200.62,-108.1 191.22,-112.98 196.31,-117.78"/>
<g id="a_edge14&#45;headlabel"><a xlink:href="dir_000243_000251.html" target="_top" xlink:title="1">
<text text-anchor="middle" x="195.91" y="-119.84" font-family="Helvetica,sans-Serif" font-size="10.00">1</text>
</a>
</g>
</g>
<!-- dir_952a988346c879bc3b2834e2377036db&#45;&gt;dir_9be0baa3d4a3e9f480a9ee70594037fa -->
<g id="edge15" class="edge">
<title>dir_952a988346c879bc3b2834e2377036db&#45;&gt;dir_9be0baa3d4a3e9f480a9ee70594037fa</title>
<path fill="none" stroke="black" d="M364.59,-143.95C350.81,-124.12 325.64,-91.62 296.75,-72 263.28,-49.27 218.89,-34.98 187.88,-27.04"/>
<polygon fill="black" stroke="black" points="188.46,-23.58 177.91,-24.59 186.79,-30.38 188.46,-23.58"/>
<g id="a_edge15&#45;headlabel"><a xlink:href="dir_000275_000530.html" target="_top" xlink:title="2">
<text text-anchor="middle" x="192.63" y="-19.18" font-family="Helvetica,sans-Serif" font-size="10.00">2</text>
</a>
</g>
</g>
<!-- dir_952a988346c879bc3b2834e2377036db&#45;&gt;dir_1d64e5e9f20206636d72b5bbe3d2b274 -->
<g id="edge16" class="edge">
<title>dir_952a988346c879bc3b2834e2377036db&#45;&gt;dir_1d64e5e9f20206636d72b5bbe3d2b274</title>
<path fill="none" stroke="black" d="M348.42,-148.97C322.89,-137.73 284.52,-120.83 255.77,-108.18"/>
<polygon fill="black" stroke="black" points="256.99,-104.89 246.42,-104.06 254.17,-111.3 256.99,-104.89"/>
<g id="a_edge16&#45;headlabel"><a xlink:href="dir_000275_000251.html" target="_top" xlink:title="1">
<text text-anchor="middle" x="261.42" y="-101.24" font-family="Helvetica,sans-Serif" font-size="10.00">1</text>
</a>
</g>
</g>
<!-- dir_4bae4802256ab45fc18d13b3c6375605&#45;&gt;dir_9be0baa3d4a3e9f480a9ee70594037fa -->
<g id="edge17" class="edge">
<title>dir_4bae4802256ab45fc18d13b3c6375605&#45;&gt;dir_9be0baa3d4a3e9f480a9ee70594037fa</title>
<path fill="none" stroke="black" d="M218.96,-287.76C243.86,-247.06 298.3,-143.08 254.75,-72 240.21,-48.26 211.32,-34.74 187.68,-27.3"/>
<polygon fill="black" stroke="black" points="188.5,-23.9 177.92,-24.48 186.55,-30.62 188.5,-23.9"/>
<g id="a_edge17&#45;headlabel"><a xlink:href="dir_000263_000530.html" target="_top" xlink:title="4">
<text text-anchor="middle" x="192.75" y="-19.67" font-family="Helvetica,sans-Serif" font-size="10.00">4</text>
</a>
</g>
</g>
<!-- dir_4bae4802256ab45fc18d13b3c6375605&#45;&gt;dir_1d64e5e9f20206636d72b5bbe3d2b274 -->
<g id="edge18" class="edge">
<title>dir_4bae4802256ab45fc18d13b3c6375605&#45;&gt;dir_1d64e5e9f20206636d72b5bbe3d2b274</title>
<path fill="none" stroke="black" d="M208.47,-287.85C210.03,-250.83 213.72,-163.18 215.6,-118.39"/>
<polygon fill="black" stroke="black" points="219.1,-118.37 216.03,-108.23 212.11,-118.08 219.1,-118.37"/>
<g id="a_edge18&#45;headlabel"><a xlink:href="dir_000263_000251.html" target="_top" xlink:title="2">
<text text-anchor="middle" x="221.79" y="-119.58" font-family="Helvetica,sans-Serif" font-size="10.00">2</text>
</a>
</g>
</g>
<!-- dir_4bae4802256ab45fc18d13b3c6375605&#45;&gt;dir_a0d37aaf829787e8da99f7ff6597b371 -->
<g id="edge19" class="edge">
<title>dir_4bae4802256ab45fc18d13b3c6375605&#45;&gt;dir_a0d37aaf829787e8da99f7ff6597b371</title>
<path fill="none" stroke="black" d="M193.91,-287.7C187.26,-279.39 179.17,-269.28 171.86,-260.14"/>
<polygon fill="black" stroke="black" points="174.41,-257.73 165.43,-252.1 168.95,-262.1 174.41,-257.73"/>
<g id="a_edge19&#45;headlabel"><a xlink:href="dir_000263_000269.html" target="_top" xlink:title="2">
<text text-anchor="middle" x="178.88" y="-256.26" font-family="Helvetica,sans-Serif" font-size="10.00">2</text>
</a>
</g>
</g>
<!-- dir_4bae4802256ab45fc18d13b3c6375605&#45;&gt;dir_7422a0894415a12ccd1d562a8ad09f2d -->
<g id="edge20" class="edge">
<title>dir_4bae4802256ab45fc18d13b3c6375605&#45;&gt;dir_7422a0894415a12ccd1d562a8ad09f2d</title>
<path fill="none" stroke="black" d="M205.92,-287.99C203.49,-269.61 198.23,-239.76 187.75,-216 183.52,-206.4 177.44,-196.74 171.43,-188.35"/>
<polygon fill="black" stroke="black" points="174.06,-186.02 165.27,-180.11 168.46,-190.22 174.06,-186.02"/>
<g id="a_edge20&#45;headlabel"><a xlink:href="dir_000263_000243.html" target="_top" xlink:title="2">
<text text-anchor="middle" x="178.49" y="-184.7" font-family="Helvetica,sans-Serif" font-size="10.00">2</text>
</a>
</g>
</g>
</g>
</svg>
