<?xml version="1.0" encoding="UTF-8" standalone="no"?>
<!DOCTYPE svg PUBLIC "-//W3C//DTD SVG 1.1//EN"
 "http://www.w3.org/Graphics/SVG/1.1/DTD/svg11.dtd">
<!-- Generated by graphviz version 2.43.0 (0)
 -->
<!-- Title: iop/system/excepman Pages: 1 -->
<svg width="274pt" height="303pt"
 viewBox="0.00 0.00 274.22 303.00" xmlns="http://www.w3.org/2000/svg" xmlns:xlink="http://www.w3.org/1999/xlink">
<g id="graph0" class="graph" transform="scale(1 1) rotate(0) translate(4 299)">
<title>iop/system/excepman</title>
<polygon fill="white" stroke="transparent" points="-4,4 -4,-299 270.22,-299 270.22,4 -4,4"/>
<g id="clust1" class="cluster">
<title>clusterdir_40ac35421bc63b72c26b6c69b1517fd6</title>
<g id="a_clust1"><a xlink:href="dir_40ac35421bc63b72c26b6c69b1517fd6.html" target="_top" xlink:title="system">
<polygon fill="#ddddee" stroke="black" points="8,-128 8,-287 180,-287 180,-128 8,-128"/>
<text text-anchor="middle" x="94" y="-275" font-family="Helvetica,sans-Serif" font-size="10.00">system</text>
</a>
</g>
</g>
<g id="clust2" class="cluster">
<title>clusterdir_07d95afa3a823c57813d0b20ca3e9410</title>
<g id="a_clust2"><a xlink:href="dir_07d95afa3a823c57813d0b20ca3e9410.html" target="_top">
<polygon fill="#eeeeff" stroke="black" points="16,-136 16,-260 172,-260 172,-136 16,-136"/>
</a>
</g>
</g>
<!-- dir_07d95afa3a823c57813d0b20ca3e9410 -->
<g id="node1" class="node">
<title>dir_07d95afa3a823c57813d0b20ca3e9410</title>
<text text-anchor="middle" x="130" y="-231.5" font-family="Helvetica,sans-Serif" font-size="10.00">excepman</text>
</g>
<!-- dir_93e72ac5e0899245066e72da711db400 -->
<g id="node2" class="node">
<title>dir_93e72ac5e0899245066e72da711db400</title>
<g id="a_node2"><a xlink:href="dir_93e72ac5e0899245066e72da711db400.html" target="_top" xlink:title="include">
<polygon fill="white" stroke="black" points="80,-180 26,-180 26,-144 80,-144 80,-180"/>
<text text-anchor="middle" x="53" y="-159.5" font-family="Helvetica,sans-Serif" font-size="10.00">include</text>
</a>
</g>
</g>
<!-- dir_9be0baa3d4a3e9f480a9ee70594037fa -->
<g id="node4" class="node">
<title>dir_9be0baa3d4a3e9f480a9ee70594037fa</title>
<g id="a_node4"><a xlink:href="dir_9be0baa3d4a3e9f480a9ee70594037fa.html" target="_top" xlink:title="kernel">
<polygon fill="white" stroke="red" points="164,-36 110,-36 110,0 164,0 164,-36"/>
<text text-anchor="middle" x="137" y="-15.5" font-family="Helvetica,sans-Serif" font-size="10.00">kernel</text>
</a>
</g>
</g>
<!-- dir_93e72ac5e0899245066e72da711db400&#45;&gt;dir_9be0baa3d4a3e9f480a9ee70594037fa -->
<g id="edge8" class="edge">
<title>dir_93e72ac5e0899245066e72da711db400&#45;&gt;dir_9be0baa3d4a3e9f480a9ee70594037fa</title>
<path fill="none" stroke="black" d="M61.99,-143.71C71.53,-125.6 87.22,-96.46 102,-72 107.42,-63.03 113.63,-53.42 119.31,-44.88"/>
<polygon fill="black" stroke="black" points="122.31,-46.69 124.97,-36.44 116.5,-42.79 122.31,-46.69"/>
<g id="a_edge8&#45;headlabel"><a xlink:href="dir_000555_000525.html" target="_top" xlink:title="1">
<text text-anchor="middle" x="122.66" y="-48.76" font-family="Helvetica,sans-Serif" font-size="10.00">1</text>
</a>
</g>
</g>
<!-- dir_bb6a3a7d8adb654c719be286ee32591c -->
<g id="node3" class="node">
<title>dir_bb6a3a7d8adb654c719be286ee32591c</title>
<g id="a_node3"><a xlink:href="dir_bb6a3a7d8adb654c719be286ee32591c.html" target="_top" xlink:title="src">
<polygon fill="white" stroke="black" points="78,-252 24,-252 24,-216 78,-216 78,-252"/>
<text text-anchor="middle" x="51" y="-231.5" font-family="Helvetica,sans-Serif" font-size="10.00">src</text>
</a>
</g>
</g>
<!-- dir_bb6a3a7d8adb654c719be286ee32591c&#45;&gt;dir_93e72ac5e0899245066e72da711db400 -->
<g id="edge6" class="edge">
<title>dir_bb6a3a7d8adb654c719be286ee32591c&#45;&gt;dir_93e72ac5e0899245066e72da711db400</title>
<path fill="none" stroke="black" d="M51.49,-215.7C51.71,-207.98 51.98,-198.71 52.23,-190.11"/>
<polygon fill="black" stroke="black" points="55.72,-190.2 52.51,-180.1 48.73,-190 55.72,-190.2"/>
<g id="a_edge6&#45;headlabel"><a xlink:href="dir_000227_000555.html" target="_top" xlink:title="1">
<text text-anchor="middle" x="58.46" y="-191.37" font-family="Helvetica,sans-Serif" font-size="10.00">1</text>
</a>
</g>
</g>
<!-- dir_bb6a3a7d8adb654c719be286ee32591c&#45;&gt;dir_9be0baa3d4a3e9f480a9ee70594037fa -->
<g id="edge3" class="edge">
<title>dir_bb6a3a7d8adb654c719be286ee32591c&#45;&gt;dir_9be0baa3d4a3e9f480a9ee70594037fa</title>
<path fill="none" stroke="black" d="M65.59,-215.79C73.42,-205.85 82.72,-192.81 89,-180 110.8,-135.53 124.8,-79.22 131.76,-46.34"/>
<polygon fill="black" stroke="black" points="135.27,-46.64 133.84,-36.14 128.41,-45.23 135.27,-46.64"/>
<g id="a_edge3&#45;headlabel"><a xlink:href="dir_000227_000525.html" target="_top" xlink:title="2">
<text text-anchor="middle" x="137.33" y="-48.23" font-family="Helvetica,sans-Serif" font-size="10.00">2</text>
</a>
</g>
</g>
<!-- dir_1d64e5e9f20206636d72b5bbe3d2b274 -->
<g id="node5" class="node">
<title>dir_1d64e5e9f20206636d72b5bbe3d2b274</title>
<g id="a_node5"><a xlink:href="dir_1d64e5e9f20206636d72b5bbe3d2b274.html" target="_top" xlink:title="loadcore">
<polygon fill="white" stroke="red" points="247.5,-180 188.5,-180 188.5,-144 247.5,-144 247.5,-180"/>
<text text-anchor="middle" x="218" y="-159.5" font-family="Helvetica,sans-Serif" font-size="10.00">loadcore</text>
</a>
</g>
</g>
<!-- dir_bb6a3a7d8adb654c719be286ee32591c&#45;&gt;dir_1d64e5e9f20206636d72b5bbe3d2b274 -->
<g id="edge4" class="edge">
<title>dir_bb6a3a7d8adb654c719be286ee32591c&#45;&gt;dir_1d64e5e9f20206636d72b5bbe3d2b274</title>
<path fill="none" stroke="black" d="M78.05,-220.02C81.06,-218.64 84.09,-217.28 87,-216 87.29,-215.87 140.43,-194.38 178.93,-178.8"/>
<polygon fill="black" stroke="black" points="180.4,-181.98 188.36,-174.99 177.78,-175.49 180.4,-181.98"/>
<g id="a_edge4&#45;headlabel"><a xlink:href="dir_000227_000240.html" target="_top" xlink:title="1">
<text text-anchor="middle" x="178.14" y="-183.46" font-family="Helvetica,sans-Serif" font-size="10.00">1</text>
</a>
</g>
</g>
<!-- dir_44719da65bb992f08c8ee8632a1136c7 -->
<g id="node6" class="node">
<title>dir_44719da65bb992f08c8ee8632a1136c7</title>
<g id="a_node6"><a xlink:href="dir_44719da65bb992f08c8ee8632a1136c7.html" target="_top" xlink:title="sysmem">
<polygon fill="white" stroke="red" points="247.5,-108 188.5,-108 188.5,-72 247.5,-72 247.5,-108"/>
<text text-anchor="middle" x="218" y="-87.5" font-family="Helvetica,sans-Serif" font-size="10.00">sysmem</text>
</a>
</g>
</g>
<!-- dir_bb6a3a7d8adb654c719be286ee32591c&#45;&gt;dir_44719da65bb992f08c8ee8632a1136c7 -->
<g id="edge5" class="edge">
<title>dir_bb6a3a7d8adb654c719be286ee32591c&#45;&gt;dir_44719da65bb992f08c8ee8632a1136c7</title>
<path fill="none" stroke="black" d="M78.25,-219.33C81.16,-218.11 84.12,-216.97 87,-216 160.19,-191.34 208.37,-240 257,-180 271.55,-162.04 266.12,-149.23 257,-128 255.07,-123.52 252.31,-119.33 249.13,-115.49"/>
<polygon fill="black" stroke="black" points="251.58,-112.98 242.15,-108.14 246.5,-117.8 251.58,-112.98"/>
<g id="a_edge5&#45;headlabel"><a xlink:href="dir_000227_000587.html" target="_top" xlink:title="1">
<text text-anchor="middle" x="256.11" y="-111.14" font-family="Helvetica,sans-Serif" font-size="10.00">1</text>
</a>
</g>
</g>
<!-- dir_1d64e5e9f20206636d72b5bbe3d2b274&#45;&gt;dir_9be0baa3d4a3e9f480a9ee70594037fa -->
<g id="edge1" class="edge">
<title>dir_1d64e5e9f20206636d72b5bbe3d2b274&#45;&gt;dir_9be0baa3d4a3e9f480a9ee70594037fa</title>
<path fill="none" stroke="black" d="M204.12,-143.92C196.24,-133.81 186.49,-120.56 179,-108 166.97,-87.82 155.74,-63.63 147.93,-45.57"/>
<polygon fill="black" stroke="black" points="151.09,-44.06 143.95,-36.23 144.65,-46.8 151.09,-44.06"/>
<g id="a_edge1&#45;headlabel"><a xlink:href="dir_000240_000525.html" target="_top" xlink:title="4">
<text text-anchor="middle" x="155.11" y="-43.76" font-family="Helvetica,sans-Serif" font-size="10.00">4</text>
</a>
</g>
</g>
<!-- dir_1d64e5e9f20206636d72b5bbe3d2b274&#45;&gt;dir_44719da65bb992f08c8ee8632a1136c7 -->
<g id="edge2" class="edge">
<title>dir_1d64e5e9f20206636d72b5bbe3d2b274&#45;&gt;dir_44719da65bb992f08c8ee8632a1136c7</title>
<path fill="none" stroke="black" d="M218,-143.7C218,-135.98 218,-126.71 218,-118.11"/>
<polygon fill="black" stroke="black" points="221.5,-118.1 218,-108.1 214.5,-118.1 221.5,-118.1"/>
<g id="a_edge2&#45;headlabel"><a xlink:href="dir_000240_000587.html" target="_top" xlink:title="1">
<text text-anchor="middle" x="224.34" y="-119.2" font-family="Helvetica,sans-Serif" font-size="10.00">1</text>
</a>
</g>
</g>
<!-- dir_44719da65bb992f08c8ee8632a1136c7&#45;&gt;dir_9be0baa3d4a3e9f480a9ee70594037fa -->
<g id="edge7" class="edge">
<title>dir_44719da65bb992f08c8ee8632a1136c7&#45;&gt;dir_9be0baa3d4a3e9f480a9ee70594037fa</title>
<path fill="none" stroke="black" d="M197.98,-71.7C187.87,-62.97 175.46,-52.24 164.48,-42.75"/>
<polygon fill="black" stroke="black" points="166.65,-39.99 156.79,-36.1 162.07,-45.29 166.65,-39.99"/>
<g id="a_edge7&#45;headlabel"><a xlink:href="dir_000587_000525.html" target="_top" xlink:title="1">
<text text-anchor="middle" x="171.22" y="-37.7" font-family="Helvetica,sans-Serif" font-size="10.00">1</text>
</a>
</g>
</g>
</g>
</svg>
