<?xml version="1.0" encoding="UTF-8" standalone="no"?>
<!DOCTYPE svg PUBLIC "-//W3C//DTD SVG 1.1//EN"
 "http://www.w3.org/Graphics/SVG/1.1/DTD/svg11.dtd">
<!-- Generated by graphviz version 9.0.0 (20230911.1827)
 -->
<!-- Title: iop/system/vblank Pages: 1 -->
<svg width="423pt" height="181pt"
 viewBox="0.00 0.00 422.73 181.19" xmlns="http://www.w3.org/2000/svg" xmlns:xlink="http://www.w3.org/1999/xlink">

<svg id="main" version="1.1" xmlns="http://www.w3.org/2000/svg" xmlns:xlink="http://www.w3.org/1999/xlink" xml:space="preserve" onload="init(evt)">
<style type="text/css"><![CDATA[
.node, .edge {opacity: 0.7;}
.node.selected, .edge.selected {opacity: 1;}
.edge:hover path { stroke: red; }
.edge:hover polygon { stroke: red; fill: red; }
]]></style>
<script type="application/ecmascript" xlink:href="svg.min.js"/>
<svg id="graph" class="graph">
<g id="graph0" class="graph" transform="scale(1 1) rotate(0) translate(4 177.19)">
<title>iop/system/vblank</title>
<g id="clust1" class="cluster">
<title>clusterdir_40ac35421bc63b72c26b6c69b1517fd6</title>
<g id="a_clust1"><a xlink:href="dir_40ac35421bc63b72c26b6c69b1517fd6.html" target="_top" xlink:title="system">
<polygon fill="#deebf9" stroke="#7f7f7f" stroke-dasharray="5,2" points="8,-39.44 8,-165.19 403,-165.19 403,-39.44 8,-39.44"/>
<text text-anchor="middle" x="205.5" y="-151.69" font-family="Helvetica,sans-Serif" font-size="10.00">system</text>
</a>
</g>
</g>
<g id="clust2" class="cluster">
<title>clusterdir_60f7c75aab99249ed9879339d7562ada</title>
<g id="a_clust2"><a xlink:href="dir_60f7c75aab99249ed9879339d7562ada.html" target="_top">
<polygon fill="#deebf9" stroke="#404040" stroke-width="2" points="16,-47.44 16,-137.94 124,-137.94 124,-47.44 16,-47.44"/>
</a>
</g>
</g>
<!-- dir_1bd32d4ef826aeeda00870843eb45c97 -->
<g id="node1" class="node">
<title>dir_1bd32d4ef826aeeda00870843eb45c97</title>
<g id="a_node1"><a xlink:href="dir_1bd32d4ef826aeeda00870843eb45c97.html" target="_top" xlink:title="sysclib">
<polygon fill="#60a2e3" stroke="red" points="178,-74.69 132,-74.69 132,-55.44 178,-55.44 178,-74.69"/>
<text text-anchor="middle" x="155" y="-61.19" font-family="Helvetica,sans-Serif" font-size="10.00">sysclib</text>
</a>
</g>
</g>
<!-- dir_1d64e5e9f20206636d72b5bbe3d2b274 -->
<g id="node2" class="node">
<title>dir_1d64e5e9f20206636d72b5bbe3d2b274</title>
<g id="a_node2"><a xlink:href="dir_1d64e5e9f20206636d72b5bbe3d2b274.html" target="_top" xlink:title="loadcore">
<polygon fill="#60a2e3" stroke="red" points="248.38,-74.69 195.62,-74.69 195.62,-55.44 248.38,-55.44 248.38,-74.69"/>
<text text-anchor="middle" x="222" y="-61.19" font-family="Helvetica,sans-Serif" font-size="10.00">loadcore</text>
</a>
</g>
</g>
<!-- dir_7422a0894415a12ccd1d562a8ad09f2d -->
<g id="node3" class="node">
<title>dir_7422a0894415a12ccd1d562a8ad09f2d</title>
<g id="a_node3"><a xlink:href="dir_7422a0894415a12ccd1d562a8ad09f2d.html" target="_top" xlink:title="intrman">
<polygon fill="#60a2e3" stroke="red" points="315.12,-74.69 266.88,-74.69 266.88,-55.44 315.12,-55.44 315.12,-74.69"/>
<text text-anchor="middle" x="291" y="-61.19" font-family="Helvetica,sans-Serif" font-size="10.00">intrman</text>
</a>
</g>
</g>
<!-- dir_d3b40e87d731c1e886b7a70e6daaf700 -->
<g id="node4" class="node">
<title>dir_d3b40e87d731c1e886b7a70e6daaf700</title>
<g id="a_node4"><a xlink:href="dir_d3b40e87d731c1e886b7a70e6daaf700.html" target="_top" xlink:title="threadman">
<polygon fill="#60a2e3" stroke="red" points="394.88,-74.69 333.12,-74.69 333.12,-55.44 394.88,-55.44 394.88,-74.69"/>
<text text-anchor="middle" x="364" y="-61.19" font-family="Helvetica,sans-Serif" font-size="10.00">threadman</text>
</a>
</g>
</g>
<!-- dir_60f7c75aab99249ed9879339d7562ada -->
<g id="node5" class="node">
<title>dir_60f7c75aab99249ed9879339d7562ada</title>
<text text-anchor="middle" x="94" y="-116.44" font-family="Helvetica,sans-Serif" font-size="10.00">vblank</text>
</g>
<!-- dir_99cace3514b50ba2406a70ad1e94d391 -->
<g id="node6" class="node">
<title>dir_99cace3514b50ba2406a70ad1e94d391</title>
<g id="a_node6"><a xlink:href="dir_99cace3514b50ba2406a70ad1e94d391.html" target="_top" xlink:title="include">
<polygon fill="#60a2e3" stroke="#404040" points="92.38,-74.69 45.62,-74.69 45.62,-55.44 92.38,-55.44 92.38,-74.69"/>
<text text-anchor="middle" x="69" y="-61.19" font-family="Helvetica,sans-Serif" font-size="10.00">include</text>
</a>
</g>
</g>
<!-- dir_9be0baa3d4a3e9f480a9ee70594037fa -->
<g id="node8" class="node">
<title>dir_9be0baa3d4a3e9f480a9ee70594037fa</title>
<g id="a_node8"><a xlink:href="dir_9be0baa3d4a3e9f480a9ee70594037fa.html" target="_top" xlink:title="kernel">
<polygon fill="#deebf9" stroke="red" stroke-dasharray="5,2" points="267.12,-19.44 224.88,-19.44 224.88,-0.19 267.12,-0.19 267.12,-19.44"/>
<text text-anchor="middle" x="246" y="-5.94" font-family="Helvetica,sans-Serif" font-size="10.00">kernel</text>
</a>
</g>
</g>
<!-- dir_99cace3514b50ba2406a70ad1e94d391&#45;&gt;dir_9be0baa3d4a3e9f480a9ee70594037fa -->
<g id="edge1" class="edge">
<title>dir_99cace3514b50ba2406a70ad1e94d391&#45;&gt;dir_9be0baa3d4a3e9f480a9ee70594037fa</title>
<g id="a_edge1"><a xlink:href="dir_000218_000239.html" target="_top">
<path fill="none" stroke="#63b8ff" d="M76.6,-54.97C81.57,-49.62 88.51,-43.19 96,-39.44 133.42,-20.72 181.72,-14.2 213.25,-11.96"/>
<polygon fill="#63b8ff" stroke="#63b8ff" points="213.18,-15.47 222.95,-11.38 212.76,-8.48 213.18,-15.47"/>
</a>
</g>
<g id="a_edge1&#45;headlabel"><a xlink:href="dir_000218_000239.html" target="_top" xlink:title="1">
<text text-anchor="middle" x="211.27" y="-14.55" font-family="Helvetica,sans-Serif" font-size="10.00" fill="#63b8ff">1</text>
</a>
</g>
</g>
<!-- dir_f877eea6f4a67835df99bf91eacfa5d8 -->
<g id="node7" class="node">
<title>dir_f877eea6f4a67835df99bf91eacfa5d8</title>
<g id="a_node7"><a xlink:href="dir_f877eea6f4a67835df99bf91eacfa5d8.html" target="_top" xlink:title="src">
<polygon fill="#60a2e3" stroke="#404040" points="53.75,-129.94 24.25,-129.94 24.25,-110.69 53.75,-110.69 53.75,-129.94"/>
<text text-anchor="middle" x="39" y="-116.44" font-family="Helvetica,sans-Serif" font-size="10.00">src</text>
</a>
</g>
</g>
<!-- dir_f877eea6f4a67835df99bf91eacfa5d8&#45;&gt;dir_1bd32d4ef826aeeda00870843eb45c97 -->
<g id="edge2" class="edge">
<title>dir_f877eea6f4a67835df99bf91eacfa5d8&#45;&gt;dir_1bd32d4ef826aeeda00870843eb45c97</title>
<g id="a_edge2"><a xlink:href="dir_000486_000513.html" target="_top">
<path fill="none" stroke="#63b8ff" d="M54.16,-112.36C72,-104.17 102.06,-90.37 124.72,-79.97"/>
<polygon fill="#63b8ff" stroke="#63b8ff" points="126.17,-83.15 133.79,-75.8 123.25,-76.79 126.17,-83.15"/>
</a>
</g>
<g id="a_edge2&#45;headlabel"><a xlink:href="dir_000486_000513.html" target="_top" xlink:title="1">
<text text-anchor="middle" x="125.46" y="-82.73" font-family="Helvetica,sans-Serif" font-size="10.00" fill="#63b8ff">1</text>
</a>
</g>
</g>
<!-- dir_f877eea6f4a67835df99bf91eacfa5d8&#45;&gt;dir_1d64e5e9f20206636d72b5bbe3d2b274 -->
<g id="edge3" class="edge">
<title>dir_f877eea6f4a67835df99bf91eacfa5d8&#45;&gt;dir_1d64e5e9f20206636d72b5bbe3d2b274</title>
<g id="a_edge3"><a xlink:href="dir_000486_000254.html" target="_top">
<path fill="none" stroke="#63b8ff" d="M54.18,-113.68C57.09,-112.65 60.13,-111.61 63,-110.69 104.29,-97.5 152.26,-84.33 184.62,-75.75"/>
<polygon fill="#63b8ff" stroke="#63b8ff" points="185.14,-79.23 193.92,-73.3 183.36,-72.46 185.14,-79.23"/>
</a>
</g>
<g id="a_edge3&#45;headlabel"><a xlink:href="dir_000486_000254.html" target="_top" xlink:title="1">
<text text-anchor="middle" x="183.85" y="-78.63" font-family="Helvetica,sans-Serif" font-size="10.00" fill="#63b8ff">1</text>
</a>
</g>
</g>
<!-- dir_f877eea6f4a67835df99bf91eacfa5d8&#45;&gt;dir_7422a0894415a12ccd1d562a8ad09f2d -->
<g id="edge4" class="edge">
<title>dir_f877eea6f4a67835df99bf91eacfa5d8&#45;&gt;dir_7422a0894415a12ccd1d562a8ad09f2d</title>
<g id="a_edge4"><a xlink:href="dir_000486_000229.html" target="_top">
<path fill="none" stroke="#63b8ff" d="M54.12,-113.47C57.04,-112.46 60.09,-111.48 63,-110.69 144.26,-88.71 169.35,-93.07 255.43,-74.88"/>
<polygon fill="#63b8ff" stroke="#63b8ff" points="256.02,-78.33 265.05,-72.8 254.54,-71.49 256.02,-78.33"/>
</a>
</g>
<g id="a_edge4&#45;headlabel"><a xlink:href="dir_000486_000229.html" target="_top" xlink:title="1">
<text text-anchor="middle" x="254.58" y="-77.67" font-family="Helvetica,sans-Serif" font-size="10.00" fill="#63b8ff">1</text>
</a>
</g>
</g>
<!-- dir_f877eea6f4a67835df99bf91eacfa5d8&#45;&gt;dir_d3b40e87d731c1e886b7a70e6daaf700 -->
<g id="edge7" class="edge">
<title>dir_f877eea6f4a67835df99bf91eacfa5d8&#45;&gt;dir_d3b40e87d731c1e886b7a70e6daaf700</title>
<g id="a_edge7"><a xlink:href="dir_000486_000523.html" target="_top">
<path fill="none" stroke="#63b8ff" d="M54.09,-113.36C57.01,-112.36 60.08,-111.41 63,-110.69 173.27,-83.59 206.67,-94.34 321.99,-74.9"/>
<polygon fill="#63b8ff" stroke="#63b8ff" points="322.29,-78.4 331.55,-73.24 321.09,-71.5 322.29,-78.4"/>
</a>
</g>
<g id="a_edge7&#45;headlabel"><a xlink:href="dir_000486_000523.html" target="_top" xlink:title="2">
<text text-anchor="middle" x="320.72" y="-77.67" font-family="Helvetica,sans-Serif" font-size="10.00" fill="#63b8ff">2</text>
</a>
</g>
</g>
<!-- dir_f877eea6f4a67835df99bf91eacfa5d8&#45;&gt;dir_99cace3514b50ba2406a70ad1e94d391 -->
<g id="edge5" class="edge">
<title>dir_f877eea6f4a67835df99bf91eacfa5d8&#45;&gt;dir_99cace3514b50ba2406a70ad1e94d391</title>
<g id="a_edge5"><a xlink:href="dir_000486_000218.html" target="_top">
<path fill="none" stroke="#63b8ff" d="M43.95,-110.52C47.88,-103.55 53.51,-93.56 58.44,-84.81"/>
<polygon fill="#63b8ff" stroke="#63b8ff" points="61.34,-86.8 63.2,-76.37 55.24,-83.36 61.34,-86.8"/>
</a>
</g>
<g id="a_edge5&#45;headlabel"><a xlink:href="dir_000486_000218.html" target="_top" xlink:title="1">
<text text-anchor="middle" x="62.79" y="-86.13" font-family="Helvetica,sans-Serif" font-size="10.00" fill="#63b8ff">1</text>
</a>
</g>
</g>
<!-- dir_f877eea6f4a67835df99bf91eacfa5d8&#45;&gt;dir_9be0baa3d4a3e9f480a9ee70594037fa -->
<g id="edge6" class="edge">
<title>dir_f877eea6f4a67835df99bf91eacfa5d8&#45;&gt;dir_9be0baa3d4a3e9f480a9ee70594037fa</title>
<g id="a_edge6"><a xlink:href="dir_000486_000239.html" target="_top">
<path fill="none" stroke="#63b8ff" d="M54.07,-113.28C57,-112.29 60.06,-111.36 63,-110.69 137.93,-93.57 355.56,-131.8 407,-74.69 417.49,-63.05 417.06,-51.45 407,-39.44 390.99,-20.34 321.21,-13.97 278.94,-11.86"/>
<polygon fill="#63b8ff" stroke="#63b8ff" points="279.22,-8.37 269.08,-11.43 278.91,-15.36 279.22,-8.37"/>
</a>
</g>
<g id="a_edge6&#45;headlabel"><a xlink:href="dir_000486_000239.html" target="_top" xlink:title="2">
<text text-anchor="middle" x="281.42" y="-1.75" font-family="Helvetica,sans-Serif" font-size="10.00" fill="#63b8ff">2</text>
</a>
</g>
</g>
</g>
</svg>
</svg>

<style type='text/css'>
<![CDATA[
[data-mouse-over-selected='false'] { opacity: 0.7; }
[data-mouse-over-selected='true']  { opacity: 1.0; }
]]>
</style>
<script type="application/ecmascript"><![CDATA[
document.addEventListener('DOMContentLoaded', (event) => {
  highlightEdges();
  highlightAdjacentNodes();
});
]]></script>
</svg>
