<?xml version="1.0" encoding="UTF-8" standalone="no"?>
<!DOCTYPE svg PUBLIC "-//W3C//DTD SVG 1.1//EN"
 "http://www.w3.org/Graphics/SVG/1.1/DTD/svg11.dtd">
<!-- Generated by graphviz version 9.0.0 (20230911.1827)
 -->
<!-- Title: iop/usb Pages: 1 -->
<!--zoomable 197 -->

<svg id="main" version="1.1" xmlns="http://www.w3.org/2000/svg" xmlns:xlink="http://www.w3.org/1999/xlink" xml:space="preserve" onload="init(evt)">
<style type="text/css"><![CDATA[
.node, .edge {opacity: 0.7;}
.node.selected, .edge.selected {opacity: 1;}
.edge:hover path { stroke: red; }
.edge:hover polygon { stroke: red; fill: red; }
]]></style>

<defs>
  <circle id="rim" cx="0" cy="0" r="7"/>
  <circle id="rim2" cx="0" cy="0" r="3.5"/>
  <g id="zoomPlus">
    <use xlink:href="#rim" fill="#404040"><set attributeName="fill" to="#808080" begin="zoomplus.mouseover" end="zoomplus.mouseout"/></use>
    <path d="M-4,0h8M0,-4v8" fill="none" stroke="white" stroke-width="1.5" pointer-events="none"/>
  </g>
  <g id="zoomMin">
    <use xlink:href="#rim" fill="#404040"><set attributeName="fill" to="#808080" begin="zoomminus.mouseover" end="zoomminus.mouseout"/></use>
    <path d="M-4,0h8" fill="none" stroke="white" stroke-width="1.5" pointer-events="none"/>
  </g>
  <g id="arrowUp" transform="translate(30 24)">
    <use xlink:href="#rim"/>
    <path pointer-events="none" fill="none" stroke="white" stroke-width="1.5" d="M0,-3.0v7 M-2.5,-0.5L0,-3.0L2.5,-0.5"/>
  </g>
  <g id="arrowRight" transform="rotate(90) translate(36 -43)">
    <use xlink:href="#rim"/>
    <path pointer-events="none" fill="none" stroke="white" stroke-width="1.5" d="M0,-3.0v7 M-2.5,-0.5L0,-3.0L2.5,-0.5"/>
  </g>
  <g id="arrowDown" transform="rotate(180) translate(-30 -48)">
    <use xlink:href="#rim"/>
    <path pointer-events="none" fill="none" stroke="white" stroke-width="1.5" d="M0,-3.0v7 M-2.5,-0.5L0,-3.0L2.5,-0.5"/>
  </g>
  <g id="arrowLeft" transform="rotate(270) translate(-36 17)">
    <use xlink:href="#rim"/>
    <path pointer-events="none" fill="none" stroke="white" stroke-width="1.5" d="M0,-3.0v7 M-2.5,-0.5L0,-3.0L2.5,-0.5"/>
  </g>
  <g id="resetDef">
    <use xlink:href="#rim2" fill="#404040"><set attributeName="fill" to="#808080" begin="reset.mouseover" end="reset.mouseout"/></use>
  </g>
</defs>
<script type="application/ecmascript">
var viewWidth = 567;
var viewHeight = 197;
var sectionId = 'dynsection-0';
</script>
<script type="application/ecmascript" xlink:href="svg.min.js"/>
<svg id="graph" class="graph">
<g id="viewport">
<title>iop/usb</title>
<g id="clust1" class="cluster">
<title>clusterdir_0981ace215aa2029f526b70c145b9fbe</title>
<g id="a_clust1"><a xlink:href="dir_0981ace215aa2029f526b70c145b9fbe.html" target="_top" xlink:title="iop">
<polygon fill="#deebf9" stroke="#404040" stroke-dasharray="5,2" points="8,-8 8,-181 495,-181 495,-8 8,-8"/>
<text text-anchor="middle" x="251.5" y="-167.5" font-family="Helvetica,sans-Serif" font-size="10.00">iop</text>
</a>
</g>
</g>
<g id="clust2" class="cluster">
<title>clusterdir_b6c875632944d243a548db157cd77ec2</title>
<g id="a_clust2"><a xlink:href="dir_b6c875632944d243a548db157cd77ec2.html" target="_top">
<polygon fill="#deebf9" stroke="#404040" stroke-width="2" points="16,-63.25 16,-153.75 431,-153.75 431,-63.25 16,-63.25"/>
</a>
</g>
</g>
<!-- dir_9be0baa3d4a3e9f480a9ee70594037fa -->
<g id="node1" class="node">
<title>dir_9be0baa3d4a3e9f480a9ee70594037fa</title>
<g id="a_node1"><a xlink:href="dir_9be0baa3d4a3e9f480a9ee70594037fa.html" target="_top" xlink:title="kernel">
<polygon fill="#60a2e3" stroke="red" points="222.12,-35.25 179.88,-35.25 179.88,-16 222.12,-16 222.12,-35.25"/>
<text text-anchor="middle" x="201" y="-21.75" font-family="Helvetica,sans-Serif" font-size="10.00">kernel</text>
</a>
</g>
</g>
<!-- dir_f24daea2522ffa8b6dc5fa9cdf5b8f5c -->
<g id="node2" class="node">
<title>dir_f24daea2522ffa8b6dc5fa9cdf5b8f5c</title>
<g id="a_node2"><a xlink:href="dir_f24daea2522ffa8b6dc5fa9cdf5b8f5c.html" target="_top" xlink:title="fs">
<polygon fill="#60a2e3" stroke="red" points="467.4,-90.5 438.6,-90.5 438.6,-71.25 467.4,-71.25 467.4,-90.5"/>
<text text-anchor="middle" x="453" y="-77" font-family="Helvetica,sans-Serif" font-size="10.00">fs</text>
</a>
</g>
</g>
<!-- dir_b6c875632944d243a548db157cd77ec2 -->
<g id="node3" class="node">
<title>dir_b6c875632944d243a548db157cd77ec2</title>
<text text-anchor="middle" x="407" y="-132.25" font-family="Helvetica,sans-Serif" font-size="10.00">usb</text>
</g>
<!-- dir_354d0fe30f8451f44d30d5ee272e7643 -->
<g id="node4" class="node">
<title>dir_354d0fe30f8451f44d30d5ee272e7643</title>
<g id="a_node4"><a xlink:href="dir_354d0fe30f8451f44d30d5ee272e7643.html" target="_top" xlink:title="camera">
<polygon fill="#60a2e3" stroke="#404040" points="373.12,-145.75 324.88,-145.75 324.88,-126.5 373.12,-126.5 373.12,-145.75"/>
<text text-anchor="middle" x="349" y="-132.25" font-family="Helvetica,sans-Serif" font-size="10.00">camera</text>
</a>
</g>
</g>
<!-- dir_354d0fe30f8451f44d30d5ee272e7643&#45;&gt;dir_9be0baa3d4a3e9f480a9ee70594037fa -->
<g id="edge1" class="edge">
<title>dir_354d0fe30f8451f44d30d5ee272e7643&#45;&gt;dir_9be0baa3d4a3e9f480a9ee70594037fa</title>
<g id="a_edge1"><a xlink:href="dir_000018_000174.html" target="_top">
<path fill="none" stroke="#63b8ff" d="M373.45,-128.19C408.59,-117.97 469.87,-99.15 476,-90.5 483,-80.62 483.98,-72.36 476,-63.25 444.86,-27.69 299.81,-25.13 233.83,-25.87"/>
<polygon fill="#63b8ff" stroke="#63b8ff" points="233.93,-22.37 223.99,-26.02 234.04,-29.37 233.93,-22.37"/>
</a>
</g>
<g id="a_edge1&#45;headlabel"><a xlink:href="dir_000018_000174.html" target="_top" xlink:title="19">
<text text-anchor="middle" x="235.97" y="-15.62" font-family="Helvetica,sans-Serif" font-size="10.00" fill="#63b8ff">19</text>
</a>
</g>
</g>
<!-- dir_8f550b51c304fe10978bfd792866fae2 -->
<g id="node7" class="node">
<title>dir_8f550b51c304fe10978bfd792866fae2</title>
<g id="a_node7"><a xlink:href="dir_8f550b51c304fe10978bfd792866fae2.html" target="_top" xlink:title="usbd">
<polygon fill="#60a2e3" stroke="#404040" points="151.5,-90.5 114.5,-90.5 114.5,-71.25 151.5,-71.25 151.5,-90.5"/>
<text text-anchor="middle" x="133" y="-77" font-family="Helvetica,sans-Serif" font-size="10.00">usbd</text>
</a>
</g>
</g>
<!-- dir_354d0fe30f8451f44d30d5ee272e7643&#45;&gt;dir_8f550b51c304fe10978bfd792866fae2 -->
<g id="edge2" class="edge">
<title>dir_354d0fe30f8451f44d30d5ee272e7643&#45;&gt;dir_8f550b51c304fe10978bfd792866fae2</title>
<g id="a_edge2"><a xlink:href="dir_000018_000427.html" target="_top">
<path fill="none" stroke="#63b8ff" d="M324.52,-128.63C321.65,-127.89 318.76,-127.17 316,-126.5 248.77,-110.16 227.94,-111.19 162.63,-92.35"/>
<polygon fill="#63b8ff" stroke="#63b8ff" points="163.79,-89.04 153.21,-89.58 161.81,-95.76 163.79,-89.04"/>
</a>
</g>
<g id="a_edge2&#45;headlabel"><a xlink:href="dir_000018_000427.html" target="_top" xlink:title="3">
<text text-anchor="middle" x="166.59" y="-83.03" font-family="Helvetica,sans-Serif" font-size="10.00" fill="#63b8ff">3</text>
</a>
</g>
</g>
<!-- dir_bdd9a5d540de89e9fe90efdfc6973a4f -->
<g id="node10" class="node">
<title>dir_bdd9a5d540de89e9fe90efdfc6973a4f</title>
<g id="a_node10"><a xlink:href="dir_bdd9a5d540de89e9fe90efdfc6973a4f.html" target="_top" xlink:title="common">
<polygon fill="#deebf9" stroke="red" points="558.75,-90.5 505.25,-90.5 505.25,-71.25 558.75,-71.25 558.75,-90.5"/>
<text text-anchor="middle" x="532" y="-77" font-family="Helvetica,sans-Serif" font-size="10.00">common</text>
</a>
</g>
</g>
<!-- dir_354d0fe30f8451f44d30d5ee272e7643&#45;&gt;dir_bdd9a5d540de89e9fe90efdfc6973a4f -->
<g id="edge3" class="edge">
<title>dir_354d0fe30f8451f44d30d5ee272e7643&#45;&gt;dir_bdd9a5d540de89e9fe90efdfc6973a4f</title>
<g id="a_edge3"><a xlink:href="dir_000018_000022.html" target="_top">
<path fill="none" stroke="#63b8ff" d="M373.3,-128.05C404.23,-119.05 457.98,-103.41 494.26,-92.86"/>
<polygon fill="#63b8ff" stroke="#63b8ff" points="494.84,-96.33 503.46,-90.18 492.88,-89.61 494.84,-96.33"/>
</a>
</g>
<g id="a_edge3&#45;headlabel"><a xlink:href="dir_000018_000022.html" target="_top" xlink:title="1">
<text text-anchor="middle" x="493.63" y="-95.77" font-family="Helvetica,sans-Serif" font-size="10.00" fill="#63b8ff">1</text>
</a>
</g>
</g>
<!-- dir_dfd34f7999bdb28cb70101636e016b16 -->
<g id="node5" class="node">
<title>dir_dfd34f7999bdb28cb70101636e016b16</title>
<g id="a_node5"><a xlink:href="dir_dfd34f7999bdb28cb70101636e016b16.html" target="_top" xlink:title="keyboard">
<polygon fill="#60a2e3" stroke="#404040" points="79.5,-145.75 24.5,-145.75 24.5,-126.5 79.5,-126.5 79.5,-145.75"/>
<text text-anchor="middle" x="52" y="-132.25" font-family="Helvetica,sans-Serif" font-size="10.00">keyboard</text>
</a>
</g>
</g>
<!-- dir_dfd34f7999bdb28cb70101636e016b16&#45;&gt;dir_9be0baa3d4a3e9f480a9ee70594037fa -->
<g id="edge4" class="edge">
<title>dir_dfd34f7999bdb28cb70101636e016b16&#45;&gt;dir_9be0baa3d4a3e9f480a9ee70594037fa</title>
<g id="a_edge4"><a xlink:href="dir_000176_000174.html" target="_top">
<path fill="none" stroke="#63b8ff" d="M79.78,-126.13C107.77,-116.65 148.56,-101.59 161,-90.5 171.32,-81.3 168.76,-75.03 176,-63.25 179.82,-57.03 184.24,-50.4 188.29,-44.5"/>
<polygon fill="#63b8ff" stroke="#63b8ff" points="190.86,-46.94 193.72,-36.74 185.12,-42.93 190.86,-46.94"/>
</a>
</g>
<g id="a_edge4&#45;headlabel"><a xlink:href="dir_000176_000174.html" target="_top" xlink:title="19">
<text text-anchor="middle" x="192" y="-46.4" font-family="Helvetica,sans-Serif" font-size="10.00" fill="#63b8ff">19</text>
</a>
</g>
</g>
<!-- dir_dfd34f7999bdb28cb70101636e016b16&#45;&gt;dir_8f550b51c304fe10978bfd792866fae2 -->
<g id="edge5" class="edge">
<title>dir_dfd34f7999bdb28cb70101636e016b16&#45;&gt;dir_8f550b51c304fe10978bfd792866fae2</title>
<g id="a_edge5"><a xlink:href="dir_000176_000427.html" target="_top">
<path fill="none" stroke="#63b8ff" d="M65.74,-126.09C77.73,-118.21 95.37,-106.61 109.58,-97.27"/>
<polygon fill="#63b8ff" stroke="#63b8ff" points="111.49,-100.2 117.93,-91.78 107.65,-94.35 111.49,-100.2"/>
</a>
</g>
<g id="a_edge5&#45;headlabel"><a xlink:href="dir_000176_000427.html" target="_top" xlink:title="3">
<text text-anchor="middle" x="111.31" y="-99.84" font-family="Helvetica,sans-Serif" font-size="10.00" fill="#63b8ff">3</text>
</a>
</g>
</g>
<!-- dir_6c36fa94566b53a53d1b33c49cbff7fb -->
<g id="node6" class="node">
<title>dir_6c36fa94566b53a53d1b33c49cbff7fb</title>
<g id="a_node6"><a xlink:href="dir_6c36fa94566b53a53d1b33c49cbff7fb.html" target="_top" xlink:title="mouse">
<polygon fill="#60a2e3" stroke="#404040" points="142.62,-145.75 97.38,-145.75 97.38,-126.5 142.62,-126.5 142.62,-145.75"/>
<text text-anchor="middle" x="120" y="-132.25" font-family="Helvetica,sans-Serif" font-size="10.00">mouse</text>
</a>
</g>
</g>
<!-- dir_6c36fa94566b53a53d1b33c49cbff7fb&#45;&gt;dir_9be0baa3d4a3e9f480a9ee70594037fa -->
<g id="edge6" class="edge">
<title>dir_6c36fa94566b53a53d1b33c49cbff7fb&#45;&gt;dir_9be0baa3d4a3e9f480a9ee70594037fa</title>
<g id="a_edge6"><a xlink:href="dir_000199_000174.html" target="_top">
<path fill="none" stroke="#63b8ff" d="M135.41,-126.07C147.84,-118.08 165,-105.41 176,-90.5 185.74,-77.29 192.24,-59.79 196.16,-46.45"/>
<polygon fill="#63b8ff" stroke="#63b8ff" points="199.47,-47.64 198.67,-37.07 192.71,-45.83 199.47,-47.64"/>
</a>
</g>
<g id="a_edge6&#45;headlabel"><a xlink:href="dir_000199_000174.html" target="_top" xlink:title="18">
<text text-anchor="middle" x="201.68" y="-46.51" font-family="Helvetica,sans-Serif" font-size="10.00" fill="#63b8ff">18</text>
</a>
</g>
</g>
<!-- dir_6c36fa94566b53a53d1b33c49cbff7fb&#45;&gt;dir_8f550b51c304fe10978bfd792866fae2 -->
<g id="edge7" class="edge">
<title>dir_6c36fa94566b53a53d1b33c49cbff7fb&#45;&gt;dir_8f550b51c304fe10978bfd792866fae2</title>
<g id="a_edge7"><a xlink:href="dir_000199_000427.html" target="_top">
<path fill="none" stroke="#63b8ff" d="M122.15,-126.33C123.77,-119.67 126.08,-110.24 128.14,-101.78"/>
<polygon fill="#63b8ff" stroke="#63b8ff" points="131.48,-102.87 130.45,-92.33 124.68,-101.21 131.48,-102.87"/>
</a>
</g>
<g id="a_edge7&#45;headlabel"><a xlink:href="dir_000199_000427.html" target="_top" xlink:title="3">
<text text-anchor="middle" x="133.74" y="-101.69" font-family="Helvetica,sans-Serif" font-size="10.00" fill="#63b8ff">3</text>
</a>
</g>
</g>
<!-- dir_8f550b51c304fe10978bfd792866fae2&#45;&gt;dir_9be0baa3d4a3e9f480a9ee70594037fa -->
<g id="edge8" class="edge">
<title>dir_8f550b51c304fe10978bfd792866fae2&#45;&gt;dir_9be0baa3d4a3e9f480a9ee70594037fa</title>
<g id="a_edge8"><a xlink:href="dir_000427_000174.html" target="_top">
<path fill="none" stroke="#63b8ff" d="M144.54,-70.84C154.46,-63.07 169.01,-51.67 180.86,-42.4"/>
<polygon fill="#63b8ff" stroke="#63b8ff" points="182.73,-45.38 188.44,-36.46 178.41,-39.87 182.73,-45.38"/>
</a>
</g>
<g id="a_edge8&#45;headlabel"><a xlink:href="dir_000427_000174.html" target="_top" xlink:title="37">
<text text-anchor="middle" x="182.84" y="-45.02" font-family="Helvetica,sans-Serif" font-size="10.00" fill="#63b8ff">37</text>
</a>
</g>
</g>
<!-- dir_b8874c233d466218401f983297aca89b -->
<g id="node8" class="node">
<title>dir_b8874c233d466218401f983297aca89b</title>
<g id="a_node8"><a xlink:href="dir_b8874c233d466218401f983297aca89b.html" target="_top" xlink:title="usbhdfsd">
<polygon fill="#60a2e3" stroke="#404040" points="216.88,-145.75 161.12,-145.75 161.12,-126.5 216.88,-126.5 216.88,-145.75"/>
<text text-anchor="middle" x="189" y="-132.25" font-family="Helvetica,sans-Serif" font-size="10.00">usbhdfsd</text>
</a>
</g>
</g>
<!-- dir_b8874c233d466218401f983297aca89b&#45;&gt;dir_9be0baa3d4a3e9f480a9ee70594037fa -->
<g id="edge10" class="edge">
<title>dir_b8874c233d466218401f983297aca89b&#45;&gt;dir_9be0baa3d4a3e9f480a9ee70594037fa</title>
<g id="a_edge10"><a xlink:href="dir_000428_000174.html" target="_top">
<path fill="none" stroke="#63b8ff" d="M190.6,-126.26C192.17,-117.28 194.54,-102.96 196,-90.5 197.69,-76.07 198.96,-59.73 199.8,-47.2"/>
<polygon fill="#63b8ff" stroke="#63b8ff" points="203.29,-47.45 200.41,-37.25 196.3,-47.02 203.29,-47.45"/>
</a>
</g>
<g id="a_edge10&#45;headlabel"><a xlink:href="dir_000428_000174.html" target="_top" xlink:title="23">
<text text-anchor="middle" x="205.99" y="-45.83" font-family="Helvetica,sans-Serif" font-size="10.00" fill="#63b8ff">23</text>
</a>
</g>
</g>
<!-- dir_b8874c233d466218401f983297aca89b&#45;&gt;dir_8f550b51c304fe10978bfd792866fae2 -->
<g id="edge9" class="edge">
<title>dir_b8874c233d466218401f983297aca89b&#45;&gt;dir_8f550b51c304fe10978bfd792866fae2</title>
<g id="a_edge9"><a xlink:href="dir_000428_000427.html" target="_top">
<path fill="none" stroke="#63b8ff" d="M179.5,-126.09C171.57,-118.55 160.05,-107.6 150.46,-98.48"/>
<polygon fill="#63b8ff" stroke="#63b8ff" points="153.11,-96.17 143.46,-91.82 148.29,-101.24 153.11,-96.17"/>
</a>
</g>
<g id="a_edge9&#45;headlabel"><a xlink:href="dir_000428_000427.html" target="_top" xlink:title="3">
<text text-anchor="middle" x="156.58" y="-91.67" font-family="Helvetica,sans-Serif" font-size="10.00" fill="#63b8ff">3</text>
</a>
</g>
</g>
<!-- dir_b8874c233d466218401f983297aca89b&#45;&gt;dir_bdd9a5d540de89e9fe90efdfc6973a4f -->
<g id="edge11" class="edge">
<title>dir_b8874c233d466218401f983297aca89b&#45;&gt;dir_bdd9a5d540de89e9fe90efdfc6973a4f</title>
<g id="a_edge11"><a xlink:href="dir_000428_000022.html" target="_top">
<path fill="none" stroke="#63b8ff" d="M217.22,-128.25C220.18,-127.62 223.14,-127.02 226,-126.5 342.76,-105.25 376.85,-113.48 493.84,-91.37"/>
<polygon fill="#63b8ff" stroke="#63b8ff" points="494.41,-94.83 503.56,-89.5 493.08,-87.95 494.41,-94.83"/>
</a>
</g>
<g id="a_edge11&#45;headlabel"><a xlink:href="dir_000428_000022.html" target="_top" xlink:title="3">
<text text-anchor="middle" x="492.9" y="-94.13" font-family="Helvetica,sans-Serif" font-size="10.00" fill="#63b8ff">3</text>
</a>
</g>
</g>
<!-- dir_b21605a940872bbf5de5d8b063daf48d -->
<g id="node9" class="node">
<title>dir_b21605a940872bbf5de5d8b063daf48d</title>
<g id="a_node9"><a xlink:href="dir_b21605a940872bbf5de5d8b063daf48d.html" target="_top" xlink:title="usbmass_bd">
<polygon fill="#60a2e3" stroke="#404040" points="306.75,-145.75 235.25,-145.75 235.25,-126.5 306.75,-126.5 306.75,-145.75"/>
<text text-anchor="middle" x="271" y="-132.25" font-family="Helvetica,sans-Serif" font-size="10.00">usbmass_bd</text>
</a>
</g>
</g>
<!-- dir_b21605a940872bbf5de5d8b063daf48d&#45;&gt;dir_9be0baa3d4a3e9f480a9ee70594037fa -->
<g id="edge13" class="edge">
<title>dir_b21605a940872bbf5de5d8b063daf48d&#45;&gt;dir_9be0baa3d4a3e9f480a9ee70594037fa</title>
<g id="a_edge13"><a xlink:href="dir_000429_000174.html" target="_top">
<path fill="none" stroke="#63b8ff" d="M265.27,-126.25C253.89,-108.6 228.21,-68.8 212.98,-45.2"/>
<polygon fill="#63b8ff" stroke="#63b8ff" points="215.99,-43.4 207.63,-36.9 210.11,-47.2 215.99,-43.4"/>
</a>
</g>
<g id="a_edge13&#45;headlabel"><a xlink:href="dir_000429_000174.html" target="_top" xlink:title="15">
<text text-anchor="middle" x="219.5" y="-39.74" font-family="Helvetica,sans-Serif" font-size="10.00" fill="#63b8ff">15</text>
</a>
</g>
</g>
<!-- dir_b21605a940872bbf5de5d8b063daf48d&#45;&gt;dir_f24daea2522ffa8b6dc5fa9cdf5b8f5c -->
<g id="edge15" class="edge">
<title>dir_b21605a940872bbf5de5d8b063daf48d&#45;&gt;dir_f24daea2522ffa8b6dc5fa9cdf5b8f5c</title>
<g id="a_edge15"><a xlink:href="dir_000429_000054.html" target="_top">
<path fill="none" stroke="#63b8ff" d="M307.1,-127.29C338.16,-120.12 384.29,-108.46 427.53,-93.11"/>
<polygon fill="#63b8ff" stroke="#63b8ff" points="428.54,-96.47 436.74,-89.76 426.14,-89.89 428.54,-96.47"/>
</a>
</g>
<g id="a_edge15&#45;headlabel"><a xlink:href="dir_000429_000054.html" target="_top" xlink:title="2">
<text text-anchor="middle" x="427.56" y="-95.97" font-family="Helvetica,sans-Serif" font-size="10.00" fill="#63b8ff">2</text>
</a>
</g>
</g>
<!-- dir_b21605a940872bbf5de5d8b063daf48d&#45;&gt;dir_8f550b51c304fe10978bfd792866fae2 -->
<g id="edge12" class="edge">
<title>dir_b21605a940872bbf5de5d8b063daf48d&#45;&gt;dir_8f550b51c304fe10978bfd792866fae2</title>
<g id="a_edge12"><a xlink:href="dir_000429_000427.html" target="_top">
<path fill="none" stroke="#63b8ff" d="M247.59,-126.09C224.01,-116.99 187.58,-102.93 162.14,-93.12"/>
<polygon fill="#63b8ff" stroke="#63b8ff" points="163.65,-89.95 153.06,-89.62 161.13,-96.48 163.65,-89.95"/>
</a>
</g>
<g id="a_edge12&#45;headlabel"><a xlink:href="dir_000429_000427.html" target="_top" xlink:title="3">
<text text-anchor="middle" x="166.61" y="-84.18" font-family="Helvetica,sans-Serif" font-size="10.00" fill="#63b8ff">3</text>
</a>
</g>
</g>
<!-- dir_b21605a940872bbf5de5d8b063daf48d&#45;&gt;dir_bdd9a5d540de89e9fe90efdfc6973a4f -->
<g id="edge14" class="edge">
<title>dir_b21605a940872bbf5de5d8b063daf48d&#45;&gt;dir_bdd9a5d540de89e9fe90efdfc6973a4f</title>
<g id="a_edge14"><a xlink:href="dir_000429_000022.html" target="_top">
<path fill="none" stroke="#63b8ff" d="M306.8,-128.25C359.72,-118.06 456.17,-99.42 493.95,-91.48"/>
<polygon fill="#63b8ff" stroke="#63b8ff" points="494.51,-94.94 503.54,-89.39 493.03,-88.1 494.51,-94.94"/>
</a>
</g>
<g id="a_edge14&#45;headlabel"><a xlink:href="dir_000429_000022.html" target="_top" xlink:title="3">
<text text-anchor="middle" x="493.08" y="-94.28" font-family="Helvetica,sans-Serif" font-size="10.00" fill="#63b8ff">3</text>
</a>
</g>
</g>
</g>
</svg>

<g id="navigator" transform="translate(0 0)" fill="#404254">
  <rect fill="#f2f5e9" fill-opacity="0.5" stroke="#606060" stroke-width=".5" x="0" y="0" width="60" height="60"/>
  <use id="zoomplus" xlink:href="#zoomPlus" x="17" y="9" onmousedown="handleZoom(evt,'in')"/>
  <use id="zoomminus" xlink:href="#zoomMin" x="42" y="9" onmousedown="handleZoom(evt,'out')"/>
  <use id="reset" xlink:href="#resetDef" x="30" y="36" onmousedown="handleReset()"/>
   <use id="arrowup" xlink:href="#arrowUp" x="0" y="0" onmousedown="handlePan(0,-1)"/>
  <use id="arrowright" xlink:href="#arrowRight" x="0" y="0" onmousedown="handlePan(1,0)"/>
  <use id="arrowdown" xlink:href="#arrowDown" x="0" y="0" onmousedown="handlePan(0,1)"/>
  <use id="arrowleft" xlink:href="#arrowLeft" x="0" y="0" onmousedown="handlePan(-1,0)"/>
</g>
<svg viewBox="0 0 15 15" width="100%" height="30px" preserveAspectRatio="xMaxYMin meet">
 <g id="arrow_out" transform="scale(0.3 0.3)">
  <a xlink:href="dir_b6c875632944d243a548db157cd77ec2_dep_org.svg" target="_base">
   <rect id="button" ry="5" rx="5" y="6" x="6" height="38" width="38"
        fill="#f2f5e9" fill-opacity="0.5" stroke="#606060" stroke-width="1.0"/>
   <path id="arrow"
     d="M 11.500037,31.436501 C 11.940474,20.09759 22.043105,11.32322 32.158766,21.979434 L 37.068811,17.246167 C 37.068811,17.246167 37.088388,32 37.088388,32 L 22.160133,31.978069 C 22.160133,31.978069 26.997745,27.140456 26.997745,27.140456 C 18.528582,18.264221 13.291696,25.230495 11.500037,31.436501 z"
     style="fill:#404040;"/>
  </a>
 </g>
</svg>

<style type='text/css'>
<![CDATA[
[data-mouse-over-selected='false'] { opacity: 0.7; }
[data-mouse-over-selected='true']  { opacity: 1.0; }
]]>
</style>
<script type="application/ecmascript"><![CDATA[
document.addEventListener('DOMContentLoaded', (event) => {
  highlightEdges();
  highlightAdjacentNodes();
});
]]></script>
</svg>
