<?xml version="1.0" encoding="UTF-8" standalone="no"?>
<!DOCTYPE svg PUBLIC "-//W3C//DTD SVG 1.1//EN"
 "http://www.w3.org/Graphics/SVG/1.1/DTD/svg11.dtd">
<!-- Generated by graphviz version 9.0.0 (20230911.1827)
 -->
<!-- Title: iop/sound/audsrv Pages: 1 -->
<svg width="213pt" height="126pt"
 viewBox="0.00 0.00 213.00 125.75" xmlns="http://www.w3.org/2000/svg" xmlns:xlink="http://www.w3.org/1999/xlink">
<g id="graph0" class="graph" transform="scale(1 1) rotate(0) translate(4 121.75)">
<title>iop/sound/audsrv</title>
<g id="clust1" class="cluster">
<title>clusterdir_838e88315325ec0d843359dcae22d639</title>
<g id="a_clust1"><a xlink:href="dir_838e88315325ec0d843359dcae22d639.html" target="_top" xlink:title="sound">
<polygon fill="#deebf9" stroke="#7f7f7f" stroke-dasharray="5,2" points="8,-39.25 8,-109.75 197,-109.75 197,-39.25 8,-39.25"/>
<text text-anchor="middle" x="102.5" y="-96.25" font-family="Helvetica,sans-Serif" font-size="10.00">sound</text>
</a>
</g>
</g>
<g id="clust2" class="cluster">
<title>clusterdir_c224f8f6f41c46dc69cc573710289bc0</title>
<g id="a_clust2"><a xlink:href="dir_c224f8f6f41c46dc69cc573710289bc0.html" target="_top">
<polygon fill="#deebf9" stroke="#404040" stroke-width="2" points="16,-47.25 16,-82.5 189,-82.5 189,-47.25 16,-47.25"/>
</a>
</g>
</g>
<!-- dir_c224f8f6f41c46dc69cc573710289bc0 -->
<g id="node1" class="node">
<title>dir_c224f8f6f41c46dc69cc573710289bc0</title>
<text text-anchor="middle" x="158" y="-61" font-family="Helvetica,sans-Serif" font-size="10.00">audsrv</text>
</g>
<!-- dir_976cac3a009daf9653fca3e5520d5af8 -->
<g id="node2" class="node">
<title>dir_976cac3a009daf9653fca3e5520d5af8</title>
<g id="a_node2"><a xlink:href="dir_976cac3a009daf9653fca3e5520d5af8.html" target="_top" xlink:title="include">
<polygon fill="#60a2e3" stroke="#404040" points="70.38,-74.5 23.62,-74.5 23.62,-55.25 70.38,-55.25 70.38,-74.5"/>
<text text-anchor="middle" x="47" y="-61" font-family="Helvetica,sans-Serif" font-size="10.00">include</text>
</a>
</g>
</g>
<!-- dir_9be0baa3d4a3e9f480a9ee70594037fa -->
<g id="node4" class="node">
<title>dir_9be0baa3d4a3e9f480a9ee70594037fa</title>
<g id="a_node4"><a xlink:href="dir_9be0baa3d4a3e9f480a9ee70594037fa.html" target="_top" xlink:title="kernel">
<polygon fill="#deebf9" stroke="red" stroke-dasharray="5,2" points="65.12,-19.25 22.88,-19.25 22.88,0 65.12,0 65.12,-19.25"/>
<text text-anchor="middle" x="44" y="-5.75" font-family="Helvetica,sans-Serif" font-size="10.00">kernel</text>
</a>
</g>
</g>
<!-- dir_976cac3a009daf9653fca3e5520d5af8&#45;&gt;dir_9be0baa3d4a3e9f480a9ee70594037fa -->
<g id="edge1" class="edge">
<title>dir_976cac3a009daf9653fca3e5520d5af8&#45;&gt;dir_9be0baa3d4a3e9f480a9ee70594037fa</title>
<g id="a_edge1"><a xlink:href="dir_000185_000239.html" target="_top">
<path fill="none" stroke="#63b8ff" d="M46.5,-55.08C46.13,-48.49 45.61,-39.21 45.14,-30.82"/>
<polygon fill="#63b8ff" stroke="#63b8ff" points="48.65,-30.91 44.59,-21.12 41.66,-31.3 48.65,-30.91"/>
</a>
</g>
<g id="a_edge1&#45;headlabel"><a xlink:href="dir_000185_000239.html" target="_top" xlink:title="1">
<text text-anchor="middle" x="51.6" y="-28.95" font-family="Helvetica,sans-Serif" font-size="10.00" fill="#63b8ff">1</text>
</a>
</g>
</g>
<!-- dir_4304e6a09d2ca52231132d217435644b -->
<g id="node3" class="node">
<title>dir_4304e6a09d2ca52231132d217435644b</title>
<g id="a_node3"><a xlink:href="dir_4304e6a09d2ca52231132d217435644b.html" target="_top" xlink:title="src">
<polygon fill="#60a2e3" stroke="#404040" points="117.75,-74.5 88.25,-74.5 88.25,-55.25 117.75,-55.25 117.75,-74.5"/>
<text text-anchor="middle" x="103" y="-61" font-family="Helvetica,sans-Serif" font-size="10.00">src</text>
</a>
</g>
</g>
<!-- dir_4304e6a09d2ca52231132d217435644b&#45;&gt;dir_9be0baa3d4a3e9f480a9ee70594037fa -->
<g id="edge3" class="edge">
<title>dir_4304e6a09d2ca52231132d217435644b&#45;&gt;dir_9be0baa3d4a3e9f480a9ee70594037fa</title>
<g id="a_edge3"><a xlink:href="dir_000449_000239.html" target="_top">
<path fill="none" stroke="#63b8ff" d="M94.79,-54.97C90.26,-50.19 84.46,-44.25 79,-39.25 74.42,-35.05 69.32,-30.71 64.46,-26.71"/>
<polygon fill="#63b8ff" stroke="#63b8ff" points="66.78,-24.09 56.8,-20.54 62.39,-29.54 66.78,-24.09"/>
</a>
</g>
<g id="a_edge3&#45;headlabel"><a xlink:href="dir_000449_000239.html" target="_top" xlink:title="1">
<text text-anchor="middle" x="70.19" y="-19.31" font-family="Helvetica,sans-Serif" font-size="10.00" fill="#63b8ff">1</text>
</a>
</g>
</g>
<!-- dir_40ac35421bc63b72c26b6c69b1517fd6 -->
<g id="node5" class="node">
<title>dir_40ac35421bc63b72c26b6c69b1517fd6</title>
<g id="a_node5"><a xlink:href="dir_40ac35421bc63b72c26b6c69b1517fd6.html" target="_top" xlink:title="system">
<polygon fill="#deebf9" stroke="red" stroke-dasharray="5,2" points="130.75,-19.25 83.25,-19.25 83.25,0 130.75,0 130.75,-19.25"/>
<text text-anchor="middle" x="107" y="-5.75" font-family="Helvetica,sans-Serif" font-size="10.00">system</text>
</a>
</g>
</g>
<!-- dir_4304e6a09d2ca52231132d217435644b&#45;&gt;dir_40ac35421bc63b72c26b6c69b1517fd6 -->
<g id="edge2" class="edge">
<title>dir_4304e6a09d2ca52231132d217435644b&#45;&gt;dir_40ac35421bc63b72c26b6c69b1517fd6</title>
<g id="a_edge2"><a xlink:href="dir_000449_000515.html" target="_top">
<path fill="none" stroke="#63b8ff" d="M103.66,-55.08C104.16,-48.49 104.85,-39.21 105.48,-30.82"/>
<polygon fill="#63b8ff" stroke="#63b8ff" points="108.95,-31.35 106.21,-21.12 101.97,-30.83 108.95,-31.35"/>
</a>
</g>
<g id="a_edge2&#45;headlabel"><a xlink:href="dir_000449_000515.html" target="_top" xlink:title="49">
<text text-anchor="middle" x="111.63" y="-29.77" font-family="Helvetica,sans-Serif" font-size="10.00" fill="#63b8ff">49</text>
</a>
</g>
</g>
<!-- dir_a12d8da7b0731a57c6a388326ad5e612 -->
<g id="node6" class="node">
<title>dir_a12d8da7b0731a57c6a388326ad5e612</title>
<g id="a_node6"><a xlink:href="dir_a12d8da7b0731a57c6a388326ad5e612.html" target="_top" xlink:title="cdvd">
<polygon fill="#deebf9" stroke="red" stroke-dasharray="5,2" points="185.5,-19.25 148.5,-19.25 148.5,0 185.5,0 185.5,-19.25"/>
<text text-anchor="middle" x="167" y="-5.75" font-family="Helvetica,sans-Serif" font-size="10.00">cdvd</text>
</a>
</g>
</g>
<!-- dir_4304e6a09d2ca52231132d217435644b&#45;&gt;dir_a12d8da7b0731a57c6a388326ad5e612 -->
<g id="edge4" class="edge">
<title>dir_4304e6a09d2ca52231132d217435644b&#45;&gt;dir_a12d8da7b0731a57c6a388326ad5e612</title>
<g id="a_edge4"><a xlink:href="dir_000449_000040.html" target="_top">
<path fill="none" stroke="#63b8ff" d="M110.67,-54.78C114.95,-49.93 120.52,-44 126,-39.25 131.29,-34.66 137.33,-30.12 143.1,-26.05"/>
<polygon fill="#63b8ff" stroke="#63b8ff" points="144.85,-29.09 151.16,-20.58 140.92,-23.3 144.85,-29.09"/>
</a>
</g>
<g id="a_edge4&#45;headlabel"><a xlink:href="dir_000449_000040.html" target="_top" xlink:title="2">
<text text-anchor="middle" x="144.73" y="-28.73" font-family="Helvetica,sans-Serif" font-size="10.00" fill="#63b8ff">2</text>
</a>
</g>
</g>
</g>
</svg>
