<?xml version="1.0" encoding="UTF-8" standalone="no"?>
<!DOCTYPE svg PUBLIC "-//W3C//DTD SVG 1.1//EN"
 "http://www.w3.org/Graphics/SVG/1.1/DTD/svg11.dtd">
<!-- Generated by graphviz version 2.44.0 ()
 -->
<!-- Title: tools Pages: 1 -->
<!--zoomable 204 -->
<svg id="main" version="1.1" xmlns="http://www.w3.org/2000/svg" xmlns:xlink="http://www.w3.org/1999/xlink" xml:space="preserve" onload="init(evt)">
<style type="text/css"><![CDATA[
.edge:hover path { stroke: red; }
.edge:hover polygon { stroke: red; fill: red; }
]]></style>
<script type="text/javascript"><![CDATA[
var edges = document.getElementsByTagName('g');
if (edges && edges.length) {
  for (var i=0;i<edges.length;i++) {
    if (edges[i].id.substr(0,4)=='edge') {
      edges[i].setAttribute('class','edge');
    }
  }
}
]]></script>
        <defs>
                <circle id="rim" cx="0" cy="0" r="7"/>
                <circle id="rim2" cx="0" cy="0" r="3.5"/>
                <g id="zoomPlus">
                        <use xlink:href="#rim" fill="#404040">
                                <set attributeName="fill" to="#808080" begin="zoomplus.mouseover" end="zoomplus.mouseout"/>
                        </use>
                        <path d="M-4,0h8M0,-4v8" fill="none" stroke="white" stroke-width="1.5" pointer-events="none"/>
                </g>
                <g id="zoomMin">
                        <use xlink:href="#rim" fill="#404040">
                                <set attributeName="fill" to="#808080" begin="zoomminus.mouseover" end="zoomminus.mouseout"/>
                        </use>
                        <path d="M-4,0h8" fill="none" stroke="white" stroke-width="1.5" pointer-events="none"/>
                </g>
                <g id="dirArrow">
                        <path fill="none" stroke="white" stroke-width="1.5" d="M0,-3.0v7 M-2.5,-0.5L0,-3.0L2.5,-0.5"/>
                </g>
               <g id="resetDef">
                       <use xlink:href="#rim2" fill="#404040">
                               <set attributeName="fill" to="#808080" begin="reset.mouseover" end="reset.mouseout"/>
                       </use>
               </g>
        </defs>

<script type="text/javascript">
var viewWidth = 544;
var viewHeight = 204;
var sectionId = 'dynsection-0';
</script>
<script xlink:href="svgpan.js"/>
<svg id="graph" class="graph">
<g id="viewport">
<title>tools</title>
<polygon fill="white" stroke="transparent" points="-4,4 -4,-200 540,-200 540,4 -4,4"/>
<g id="clust1" class="cluster">
<title>clusterdir_4eeb864c4eec08c7d6b9d3b0352cfdde</title>
<g id="a_clust1"><a xlink:href="dir_4eeb864c4eec08c7d6b9d3b0352cfdde.html" target="_top">
<polygon fill="#eeeeff" stroke="black" points="8,-136 8,-188 528,-188 528,-136 8,-136"/>
</a>
</g>
</g>
<!-- dir_4eeb864c4eec08c7d6b9d3b0352cfdde -->
<g id="node1" class="node">
<title>dir_4eeb864c4eec08c7d6b9d3b0352cfdde</title>
<text text-anchor="middle" x="493" y="-159.5" font-family="Helvetica,sans-Serif" font-size="10.00">tools</text>
</g>
<!-- dir_7ae3e066c48cbf1e456bf7b5af53fbfa -->
<g id="node2" class="node">
<title>dir_7ae3e066c48cbf1e456bf7b5af53fbfa</title>
<g id="a_node2"><a xlink:href="dir_7ae3e066c48cbf1e456bf7b5af53fbfa.html" target="_top" xlink:title="adpenc">
<polygon fill="white" stroke="red" points="286,-180 232,-180 232,-144 286,-144 286,-180"/>
<text text-anchor="middle" x="259" y="-159.5" font-family="Helvetica,sans-Serif" font-size="10.00">adpenc</text>
</a>
</g>
</g>
<!-- dir_0981ace215aa2029f526b70c145b9fbe -->
<g id="node8" class="node">
<title>dir_0981ace215aa2029f526b70c145b9fbe</title>
<g id="a_node8"><a xlink:href="dir_0981ace215aa2029f526b70c145b9fbe.html" target="_top" xlink:title="iop">
<polygon fill="white" stroke="red" points="270,-108 216,-108 216,-72 270,-72 270,-108"/>
<text text-anchor="middle" x="243" y="-87.5" font-family="Helvetica,sans-Serif" font-size="10.00">iop</text>
</a>
</g>
</g>
<!-- dir_7ae3e066c48cbf1e456bf7b5af53fbfa&#45;&gt;dir_0981ace215aa2029f526b70c145b9fbe -->
<g id="edge4" class="edge">
<title>dir_7ae3e066c48cbf1e456bf7b5af53fbfa&#45;&gt;dir_0981ace215aa2029f526b70c145b9fbe</title>
<path fill="none" stroke="black" d="M255.04,-143.7C253.28,-135.98 251.16,-126.71 249.2,-118.11"/>
<polygon fill="black" stroke="black" points="252.55,-117.07 246.91,-108.1 245.73,-118.63 252.55,-117.07"/>
<g id="a_edge4&#45;headlabel"><a xlink:href="dir_000262_000011.html" target="_top" xlink:title="4">
<text text-anchor="middle" x="256.12" y="-117.44" font-family="Helvetica,sans-Serif" font-size="10.00">4</text>
</a>
</g>
</g>
<!-- dir_bdd9a5d540de89e9fe90efdfc6973a4f -->
<g id="node9" class="node">
<title>dir_bdd9a5d540de89e9fe90efdfc6973a4f</title>
<g id="a_node9"><a xlink:href="dir_bdd9a5d540de89e9fe90efdfc6973a4f.html" target="_top" xlink:title="common">
<polygon fill="white" stroke="red" points="325,-36 271,-36 271,0 325,0 325,-36"/>
<text text-anchor="middle" x="298" y="-15.5" font-family="Helvetica,sans-Serif" font-size="10.00">common</text>
</a>
</g>
</g>
<!-- dir_7ae3e066c48cbf1e456bf7b5af53fbfa&#45;&gt;dir_bdd9a5d540de89e9fe90efdfc6973a4f -->
<g id="edge5" class="edge">
<title>dir_7ae3e066c48cbf1e456bf7b5af53fbfa&#45;&gt;dir_bdd9a5d540de89e9fe90efdfc6973a4f</title>
<path fill="none" stroke="black" d="M266.34,-143.56C270.45,-133.33 275.45,-120.08 279,-108 285,-87.57 289.95,-63.98 293.29,-46.22"/>
<polygon fill="black" stroke="black" points="296.76,-46.72 295.11,-36.25 289.87,-45.46 296.76,-46.72"/>
<g id="a_edge5&#45;headlabel"><a xlink:href="dir_000262_000000.html" target="_top" xlink:title="2">
<text text-anchor="middle" x="298.9" y="-48.27" font-family="Helvetica,sans-Serif" font-size="10.00">2</text>
</a>
</g>
</g>
<!-- dir_4aa7630bf94b1e948c1a72cd18b9557b -->
<g id="node3" class="node">
<title>dir_4aa7630bf94b1e948c1a72cd18b9557b</title>
<g id="a_node3"><a xlink:href="dir_4aa7630bf94b1e948c1a72cd18b9557b.html" target="_top" xlink:title="bin2c">
<polygon fill="white" stroke="red" points="214,-180 160,-180 160,-144 214,-144 214,-180"/>
<text text-anchor="middle" x="187" y="-159.5" font-family="Helvetica,sans-Serif" font-size="10.00">bin2c</text>
</a>
</g>
</g>
<!-- dir_4aa7630bf94b1e948c1a72cd18b9557b&#45;&gt;dir_0981ace215aa2029f526b70c145b9fbe -->
<g id="edge3" class="edge">
<title>dir_4aa7630bf94b1e948c1a72cd18b9557b&#45;&gt;dir_0981ace215aa2029f526b70c145b9fbe</title>
<path fill="none" stroke="black" d="M200.84,-143.7C207.49,-135.39 215.58,-125.28 222.89,-116.14"/>
<polygon fill="black" stroke="black" points="225.8,-118.1 229.32,-108.1 220.34,-113.73 225.8,-118.1"/>
<g id="a_edge3&#45;headlabel"><a xlink:href="dir_000306_000011.html" target="_top" xlink:title="1">
<text text-anchor="middle" x="225.77" y="-120.18" font-family="Helvetica,sans-Serif" font-size="10.00">1</text>
</a>
</g>
</g>
<!-- dir_90d18d66127e5ec40df88c252424a1a5 -->
<g id="node4" class="node">
<title>dir_90d18d66127e5ec40df88c252424a1a5</title>
<g id="a_node4"><a xlink:href="dir_90d18d66127e5ec40df88c252424a1a5.html" target="_top" xlink:title="bin2o">
<polygon fill="white" stroke="red" points="142,-180 88,-180 88,-144 142,-144 142,-180"/>
<text text-anchor="middle" x="115" y="-159.5" font-family="Helvetica,sans-Serif" font-size="10.00">bin2o</text>
</a>
</g>
</g>
<!-- dir_90d18d66127e5ec40df88c252424a1a5&#45;&gt;dir_0981ace215aa2029f526b70c145b9fbe -->
<g id="edge7" class="edge">
<title>dir_90d18d66127e5ec40df88c252424a1a5&#45;&gt;dir_0981ace215aa2029f526b70c145b9fbe</title>
<path fill="none" stroke="black" d="M138.68,-143.8C142.72,-141.09 146.93,-138.39 151,-136 168.85,-125.52 189.5,-115.26 206.7,-107.19"/>
<polygon fill="black" stroke="black" points="208.26,-110.33 215.87,-102.95 205.32,-103.98 208.26,-110.33"/>
<g id="a_edge7&#45;headlabel"><a xlink:href="dir_000308_000011.html" target="_top" xlink:title="1">
<text text-anchor="middle" x="206.19" y="-111.91" font-family="Helvetica,sans-Serif" font-size="10.00">1</text>
</a>
</g>
</g>
<!-- dir_89b1a64fe2e6470e02bd91188984ecb8 -->
<g id="node5" class="node">
<title>dir_89b1a64fe2e6470e02bd91188984ecb8</title>
<g id="a_node5"><a xlink:href="dir_89b1a64fe2e6470e02bd91188984ecb8.html" target="_top" xlink:title="bin2s">
<polygon fill="white" stroke="red" points="70,-180 16,-180 16,-144 70,-144 70,-180"/>
<text text-anchor="middle" x="43" y="-159.5" font-family="Helvetica,sans-Serif" font-size="10.00">bin2s</text>
</a>
</g>
</g>
<!-- dir_89b1a64fe2e6470e02bd91188984ecb8&#45;&gt;dir_0981ace215aa2029f526b70c145b9fbe -->
<g id="edge9" class="edge">
<title>dir_89b1a64fe2e6470e02bd91188984ecb8&#45;&gt;dir_0981ace215aa2029f526b70c145b9fbe</title>
<path fill="none" stroke="black" d="M65.15,-143.9C69.58,-140.98 74.31,-138.19 79,-136 120.45,-116.62 171.81,-104.21 205.9,-97.44"/>
<polygon fill="black" stroke="black" points="206.73,-100.84 215.89,-95.52 205.41,-93.97 206.73,-100.84"/>
<g id="a_edge9&#45;headlabel"><a xlink:href="dir_000310_000011.html" target="_top" xlink:title="1">
<text text-anchor="middle" x="203.74" y="-101.81" font-family="Helvetica,sans-Serif" font-size="10.00">1</text>
</a>
</g>
</g>
<!-- dir_2feef82756d5481f2e3fcf626f1975a7 -->
<g id="node6" class="node">
<title>dir_2feef82756d5481f2e3fcf626f1975a7</title>
<g id="a_node6"><a xlink:href="dir_2feef82756d5481f2e3fcf626f1975a7.html" target="_top" xlink:title="gensymtab">
<polygon fill="white" stroke="red" points="368,-180 304,-180 304,-144 368,-144 368,-180"/>
<text text-anchor="middle" x="336" y="-159.5" font-family="Helvetica,sans-Serif" font-size="10.00">gensymtab</text>
</a>
</g>
</g>
<!-- dir_2feef82756d5481f2e3fcf626f1975a7&#45;&gt;dir_0981ace215aa2029f526b70c145b9fbe -->
<g id="edge10" class="edge">
<title>dir_2feef82756d5481f2e3fcf626f1975a7&#45;&gt;dir_0981ace215aa2029f526b70c145b9fbe</title>
<path fill="none" stroke="black" d="M313.01,-143.7C301.19,-134.8 286.61,-123.82 273.82,-114.2"/>
<polygon fill="black" stroke="black" points="275.82,-111.32 265.72,-108.1 271.61,-116.91 275.82,-111.32"/>
<g id="a_edge10&#45;headlabel"><a xlink:href="dir_000264_000011.html" target="_top" xlink:title="1">
<text text-anchor="middle" x="280.4" y="-108.71" font-family="Helvetica,sans-Serif" font-size="10.00">1</text>
</a>
</g>
</g>
<!-- dir_2feef82756d5481f2e3fcf626f1975a7&#45;&gt;dir_bdd9a5d540de89e9fe90efdfc6973a4f -->
<g id="edge11" class="edge">
<title>dir_2feef82756d5481f2e3fcf626f1975a7&#45;&gt;dir_bdd9a5d540de89e9fe90efdfc6973a4f</title>
<path fill="none" stroke="black" d="M331.42,-143.87C324.91,-119.56 312.94,-74.82 305.23,-46.01"/>
<polygon fill="black" stroke="black" points="308.57,-44.94 302.6,-36.19 301.8,-46.75 308.57,-44.94"/>
<g id="a_edge11&#45;headlabel"><a xlink:href="dir_000264_000000.html" target="_top" xlink:title="1">
<text text-anchor="middle" x="312.24" y="-45.18" font-family="Helvetica,sans-Serif" font-size="10.00">1</text>
</a>
</g>
</g>
<!-- dir_47818b46b1cf08114dcb647bd070ea80 -->
<g id="node7" class="node">
<title>dir_47818b46b1cf08114dcb647bd070ea80</title>
<g id="a_node7"><a xlink:href="dir_47818b46b1cf08114dcb647bd070ea80.html" target="_top" xlink:title="ps2adpcm">
<polygon fill="white" stroke="red" points="448,-180 386,-180 386,-144 448,-144 448,-180"/>
<text text-anchor="middle" x="417" y="-159.5" font-family="Helvetica,sans-Serif" font-size="10.00">ps2adpcm</text>
</a>
</g>
</g>
<!-- dir_47818b46b1cf08114dcb647bd070ea80&#45;&gt;dir_0981ace215aa2029f526b70c145b9fbe -->
<g id="edge1" class="edge">
<title>dir_47818b46b1cf08114dcb647bd070ea80&#45;&gt;dir_0981ace215aa2029f526b70c145b9fbe</title>
<path fill="none" stroke="black" d="M391.68,-143.94C386.91,-141.09 381.89,-138.31 377,-136 345.42,-121.08 307.54,-108.84 280.12,-100.92"/>
<polygon fill="black" stroke="black" points="280.74,-97.45 270.16,-98.09 278.83,-104.19 280.74,-97.45"/>
<g id="a_edge1&#45;headlabel"><a xlink:href="dir_000266_000011.html" target="_top" xlink:title="4">
<text text-anchor="middle" x="284.97" y="-93.2" font-family="Helvetica,sans-Serif" font-size="10.00">4</text>
</a>
</g>
</g>
<!-- dir_47818b46b1cf08114dcb647bd070ea80&#45;&gt;dir_bdd9a5d540de89e9fe90efdfc6973a4f -->
<g id="edge2" class="edge">
<title>dir_47818b46b1cf08114dcb647bd070ea80&#45;&gt;dir_bdd9a5d540de89e9fe90efdfc6973a4f</title>
<path fill="none" stroke="black" d="M402.65,-143.87C381.83,-119.03 343.12,-72.85 319.07,-44.14"/>
<polygon fill="black" stroke="black" points="321.51,-41.61 312.41,-36.19 316.15,-46.1 321.51,-41.61"/>
<g id="a_edge2&#45;headlabel"><a xlink:href="dir_000266_000000.html" target="_top" xlink:title="1">
<text text-anchor="middle" x="326" y="-40.04" font-family="Helvetica,sans-Serif" font-size="10.00">1</text>
</a>
</g>
</g>
<!-- dir_0981ace215aa2029f526b70c145b9fbe&#45;&gt;dir_bdd9a5d540de89e9fe90efdfc6973a4f -->
<g id="edge6" class="edge">
<title>dir_0981ace215aa2029f526b70c145b9fbe&#45;&gt;dir_bdd9a5d540de89e9fe90efdfc6973a4f</title>
<path fill="none" stroke="black" d="M250.68,-71.7C256.41,-63.3 264.26,-53.07 271.97,-43.86"/>
<polygon fill="black" stroke="black" points="274.78,-45.96 278.67,-36.1 269.48,-41.39 274.78,-45.96"/>
<g id="a_edge6&#45;headlabel"><a xlink:href="dir_000011_000000.html" target="_top" xlink:title="158">
<text text-anchor="middle" x="274.59" y="-48.04" font-family="Helvetica,sans-Serif" font-size="10.00">158</text>
</a>
</g>
</g>
<!-- dir_bdd9a5d540de89e9fe90efdfc6973a4f&#45;&gt;dir_0981ace215aa2029f526b70c145b9fbe -->
<g id="edge8" class="edge">
<title>dir_bdd9a5d540de89e9fe90efdfc6973a4f&#45;&gt;dir_0981ace215aa2029f526b70c145b9fbe</title>
<path fill="none" stroke="black" d="M290.46,-36.1C284.76,-44.47 276.93,-54.69 269.21,-63.92"/>
<polygon fill="black" stroke="black" points="266.38,-61.84 262.51,-71.7 271.69,-66.4 266.38,-61.84"/>
<g id="a_edge8&#45;headlabel"><a xlink:href="dir_000000_000011.html" target="_top" xlink:title="20">
<text text-anchor="middle" x="266.58" y="-54.76" font-family="Helvetica,sans-Serif" font-size="10.00">20</text>
</a>
</g>
</g>
</g>
</svg>
        <g id="navigator" transform="translate(0 0)" fill="#404254">
                <rect fill="#f2f5e9" fill-opacity="0.5" stroke="#606060" stroke-width=".5" x="0" y="0" width="60" height="60"/>
                <use id="zoomplus" xlink:href="#zoomPlus" x="17" y="9" onmousedown="handleZoom(evt,'in')"/>
                <use id="zoomminus" xlink:href="#zoomMin" x="42" y="9" onmousedown="handleZoom(evt,'out')"/>
                <use id="reset" xlink:href="#resetDef" x="30" y="36" onmousedown="handleReset()"/>
                <g id="arrowUp" xlink:href="#dirArrow" transform="translate(30 24)" onmousedown="handlePan(0,-1)">
                  <use xlink:href="#rim" fill="#404040">
                        <set attributeName="fill" to="#808080" begin="arrowUp.mouseover" end="arrowUp.mouseout"/>
                  </use>
                  <path fill="none" stroke="white" stroke-width="1.5" d="M0,-3.0v7 M-2.5,-0.5L0,-3.0L2.5,-0.5"/>
                </g>
                <g id="arrowRight" xlink:href="#dirArrow" transform="rotate(90) translate(36 -43)" onmousedown="handlePan(1,0)">
                  <use xlink:href="#rim" fill="#404040">
                        <set attributeName="fill" to="#808080" begin="arrowRight.mouseover" end="arrowRight.mouseout"/>
                  </use>
                  <path fill="none" stroke="white" stroke-width="1.5" d="M0,-3.0v7 M-2.5,-0.5L0,-3.0L2.5,-0.5"/>
                </g>
                <g id="arrowDown" xlink:href="#dirArrow" transform="rotate(180) translate(-30 -48)" onmousedown="handlePan(0,1)">
                  <use xlink:href="#rim" fill="#404040">
                        <set attributeName="fill" to="#808080" begin="arrowDown.mouseover" end="arrowDown.mouseout"/>
                  </use>
                  <path fill="none" stroke="white" stroke-width="1.5" d="M0,-3.0v7 M-2.5,-0.5L0,-3.0L2.5,-0.5"/>
                </g>
                <g id="arrowLeft" xlink:href="#dirArrow" transform="rotate(270) translate(-36 17)" onmousedown="handlePan(-1,0)">
                  <use xlink:href="#rim" fill="#404040">
                        <set attributeName="fill" to="#808080" begin="arrowLeft.mouseover" end="arrowLeft.mouseout"/>
                  </use>
                  <path fill="none" stroke="white" stroke-width="1.5" d="M0,-3.0v7 M-2.5,-0.5L0,-3.0L2.5,-0.5"/>
                </g>
        </g>
        <svg viewBox="0 0 15 15" width="100%" height="30px" preserveAspectRatio="xMaxYMin meet">
         <g id="arrow_out" transform="scale(0.3 0.3)">
          <a xlink:href="dir_4eeb864c4eec08c7d6b9d3b0352cfdde_dep_org.svg" target="_base">
           <rect id="button" ry="5" rx="5" y="6" x="6" height="38" width="38"
                fill="#f2f5e9" fill-opacity="0.5" stroke="#606060" stroke-width="1.0"/>
           <path id="arrow"
             d="M 11.500037,31.436501 C 11.940474,20.09759 22.043105,11.32322 32.158766,21.979434 L 37.068811,17.246167 C 37.068811,17.246167 37.088388,32 37.088388,32 L 22.160133,31.978069 C 22.160133,31.978069 26.997745,27.140456 26.997745,27.140456 C 18.528582,18.264221 13.291696,25.230495 11.500037,31.436501 z"
             style="fill:#404040;"/>
          </a>
         </g>
        </svg>
</svg>
