<?xml version="1.0" encoding="UTF-8" standalone="no"?>
<!DOCTYPE svg PUBLIC "-//W3C//DTD SVG 1.1//EN"
 "http://www.w3.org/Graphics/SVG/1.1/DTD/svg11.dtd">
<!-- Generated by graphviz version 12.2.0 (20241103.1931)
 -->
<!-- Title: iop/system/iomanx Pages: 1 -->
<svg width="548pt" height="181pt"
 viewBox="0.00 0.00 548.12 181.48" xmlns="http://www.w3.org/2000/svg" xmlns:xlink="http://www.w3.org/1999/xlink">
<g id="graph0" class="graph" transform="scale(1 1) rotate(0) translate(4 177.48)">
<title>iop/system/iomanx</title>
<g id="clust1" class="cluster">
<title>clusterdir_40ac35421bc63b72c26b6c69b1517fd6</title>
<g id="a_clust1"><a xlink:href="dir_40ac35421bc63b72c26b6c69b1517fd6.html" target="_top" xlink:title="system">
<polygon fill="#deebf9" stroke="#7f7f7f" stroke-dasharray="5,2" points="8,-39.73 8,-165.48 450,-165.48 450,-39.73 8,-39.73"/>
<text text-anchor="middle" x="229" y="-151.98" font-family="Helvetica,sans-Serif" font-size="10.00">system</text>
</a>
</g>
</g>
<g id="clust2" class="cluster">
<title>clusterdir_f82a163f83eb0dcdf294ef3743365a67</title>
<g id="a_clust2"><a xlink:href="dir_f82a163f83eb0dcdf294ef3743365a67.html" target="_top">
<polygon fill="#deebf9" stroke="#404040" stroke-width="2" points="16,-47.73 16,-138.23 126,-138.23 126,-47.73 16,-47.73"/>
</a>
</g>
</g>
<!-- dir_7422a0894415a12ccd1d562a8ad09f2d -->
<g id="node1" class="node">
<title>dir_7422a0894415a12ccd1d562a8ad09f2d</title>
<g id="a_node1"><a xlink:href="dir_7422a0894415a12ccd1d562a8ad09f2d.html" target="_top" xlink:title="intrman">
<polygon fill="#60a2e3" stroke="red" points="182.12,-74.98 133.88,-74.98 133.88,-55.73 182.12,-55.73 182.12,-74.98"/>
<text text-anchor="middle" x="158" y="-61.48" font-family="Helvetica,sans-Serif" font-size="10.00">intrman</text>
</a>
</g>
</g>
<!-- dir_952a988346c879bc3b2834e2377036db -->
<g id="node2" class="node">
<title>dir_952a988346c879bc3b2834e2377036db</title>
<g id="a_node2"><a xlink:href="dir_952a988346c879bc3b2834e2377036db.html" target="_top" xlink:title="stdio">
<polygon fill="#60a2e3" stroke="red" points="237.5,-74.98 200.5,-74.98 200.5,-55.73 237.5,-55.73 237.5,-74.98"/>
<text text-anchor="middle" x="219" y="-61.48" font-family="Helvetica,sans-Serif" font-size="10.00">stdio</text>
</a>
</g>
</g>
<!-- dir_1d64e5e9f20206636d72b5bbe3d2b274 -->
<g id="node3" class="node">
<title>dir_1d64e5e9f20206636d72b5bbe3d2b274</title>
<g id="a_node3"><a xlink:href="dir_1d64e5e9f20206636d72b5bbe3d2b274.html" target="_top" xlink:title="loadcore">
<polygon fill="#60a2e3" stroke="red" points="308.38,-74.98 255.62,-74.98 255.62,-55.73 308.38,-55.73 308.38,-74.98"/>
<text text-anchor="middle" x="282" y="-61.48" font-family="Helvetica,sans-Serif" font-size="10.00">loadcore</text>
</a>
</g>
</g>
<!-- dir_1bd32d4ef826aeeda00870843eb45c97 -->
<g id="node4" class="node">
<title>dir_1bd32d4ef826aeeda00870843eb45c97</title>
<g id="a_node4"><a xlink:href="dir_1bd32d4ef826aeeda00870843eb45c97.html" target="_top" xlink:title="sysclib">
<polygon fill="#60a2e3" stroke="red" points="372,-74.98 326,-74.98 326,-55.73 372,-55.73 372,-74.98"/>
<text text-anchor="middle" x="349" y="-61.48" font-family="Helvetica,sans-Serif" font-size="10.00">sysclib</text>
</a>
</g>
</g>
<!-- dir_44719da65bb992f08c8ee8632a1136c7 -->
<g id="node5" class="node">
<title>dir_44719da65bb992f08c8ee8632a1136c7</title>
<g id="a_node5"><a xlink:href="dir_44719da65bb992f08c8ee8632a1136c7.html" target="_top" xlink:title="sysmem">
<polygon fill="#60a2e3" stroke="red" points="442.38,-74.98 389.62,-74.98 389.62,-55.73 442.38,-55.73 442.38,-74.98"/>
<text text-anchor="middle" x="416" y="-61.48" font-family="Helvetica,sans-Serif" font-size="10.00">sysmem</text>
</a>
</g>
</g>
<!-- dir_f82a163f83eb0dcdf294ef3743365a67 -->
<g id="node6" class="node">
<title>dir_f82a163f83eb0dcdf294ef3743365a67</title>
<text text-anchor="middle" x="47" y="-116.73" font-family="Helvetica,sans-Serif" font-size="10.00">iomanx</text>
</g>
<!-- dir_69cf9eba4292ca384eb404f09e7842a3 -->
<g id="node7" class="node">
<title>dir_69cf9eba4292ca384eb404f09e7842a3</title>
<g id="a_node7"><a xlink:href="dir_69cf9eba4292ca384eb404f09e7842a3.html" target="_top" xlink:title="include">
<polygon fill="#60a2e3" stroke="#404040" points="115.38,-74.98 68.62,-74.98 68.62,-55.73 115.38,-55.73 115.38,-74.98"/>
<text text-anchor="middle" x="92" y="-61.48" font-family="Helvetica,sans-Serif" font-size="10.00">include</text>
</a>
</g>
</g>
<!-- dir_bdd9a5d540de89e9fe90efdfc6973a4f -->
<g id="node9" class="node">
<title>dir_bdd9a5d540de89e9fe90efdfc6973a4f</title>
<g id="a_node9"><a xlink:href="dir_bdd9a5d540de89e9fe90efdfc6973a4f.html" target="_top" xlink:title="common">
<polygon fill="#deebf9" stroke="red" points="307.75,-19.73 254.25,-19.73 254.25,-0.48 307.75,-0.48 307.75,-19.73"/>
<text text-anchor="middle" x="281" y="-6.23" font-family="Helvetica,sans-Serif" font-size="10.00">common</text>
</a>
</g>
</g>
<!-- dir_69cf9eba4292ca384eb404f09e7842a3&#45;&gt;dir_bdd9a5d540de89e9fe90efdfc6973a4f -->
<g id="edge1" class="edge">
<title>dir_69cf9eba4292ca384eb404f09e7842a3&#45;&gt;dir_bdd9a5d540de89e9fe90efdfc6973a4f</title>
<g id="a_edge1"><a xlink:href="dir_000200_000046.html" target="_top">
<path fill="none" stroke="#63b8ff" d="M99.13,-55.71C104.12,-50.25 111.26,-43.54 119,-39.73 158.2,-20.45 208.39,-13.99 242.45,-11.91"/>
<polygon fill="#63b8ff" stroke="#63b8ff" points="242.45,-15.42 252.26,-11.42 242.1,-8.43 242.45,-15.42"/>
</a>
</g>
<g id="a_edge1&#45;headlabel"><a xlink:href="dir_000200_000046.html" target="_top" xlink:title="2">
<text text-anchor="middle" x="240.51" y="-14.48" font-family="Helvetica,sans-Serif" font-size="10.00" fill="#63b8ff">2</text>
</a>
</g>
</g>
<!-- dir_2bbe6eb3d46e6950ab20e680e13bb9a2 -->
<g id="node8" class="node">
<title>dir_2bbe6eb3d46e6950ab20e680e13bb9a2</title>
<g id="a_node8"><a xlink:href="dir_2bbe6eb3d46e6950ab20e680e13bb9a2.html" target="_top" xlink:title="src">
<polygon fill="#60a2e3" stroke="#404040" points="117.75,-130.23 88.25,-130.23 88.25,-110.98 117.75,-110.98 117.75,-130.23"/>
<text text-anchor="middle" x="103" y="-116.73" font-family="Helvetica,sans-Serif" font-size="10.00">src</text>
</a>
</g>
</g>
<!-- dir_2bbe6eb3d46e6950ab20e680e13bb9a2&#45;&gt;dir_7422a0894415a12ccd1d562a8ad09f2d -->
<g id="edge6" class="edge">
<title>dir_2bbe6eb3d46e6950ab20e680e13bb9a2&#45;&gt;dir_7422a0894415a12ccd1d562a8ad09f2d</title>
<g id="a_edge6"><a xlink:href="dir_000471_000231.html" target="_top">
<path fill="none" stroke="#63b8ff" d="M112.08,-110.81C119.84,-103.31 131.21,-92.29 140.7,-83.11"/>
<polygon fill="#63b8ff" stroke="#63b8ff" points="142.88,-85.86 147.63,-76.39 138.01,-80.84 142.88,-85.86"/>
</a>
</g>
<g id="a_edge6&#45;headlabel"><a xlink:href="dir_000471_000231.html" target="_top" xlink:title="2">
<text text-anchor="middle" x="143.36" y="-85.48" font-family="Helvetica,sans-Serif" font-size="10.00" fill="#63b8ff">2</text>
</a>
</g>
</g>
<!-- dir_2bbe6eb3d46e6950ab20e680e13bb9a2&#45;&gt;dir_952a988346c879bc3b2834e2377036db -->
<g id="edge7" class="edge">
<title>dir_2bbe6eb3d46e6950ab20e680e13bb9a2&#45;&gt;dir_952a988346c879bc3b2834e2377036db</title>
<g id="a_edge7"><a xlink:href="dir_000471_000515.html" target="_top">
<path fill="none" stroke="#63b8ff" d="M118.16,-112.65C136.32,-104.31 167.13,-90.17 189.92,-79.71"/>
<polygon fill="#63b8ff" stroke="#63b8ff" points="191.38,-82.89 199,-75.54 188.45,-76.53 191.38,-82.89"/>
</a>
</g>
<g id="a_edge7&#45;headlabel"><a xlink:href="dir_000471_000515.html" target="_top" xlink:title="2">
<text text-anchor="middle" x="190.67" y="-82.46" font-family="Helvetica,sans-Serif" font-size="10.00" fill="#63b8ff">2</text>
</a>
</g>
</g>
<!-- dir_2bbe6eb3d46e6950ab20e680e13bb9a2&#45;&gt;dir_1d64e5e9f20206636d72b5bbe3d2b274 -->
<g id="edge3" class="edge">
<title>dir_2bbe6eb3d46e6950ab20e680e13bb9a2&#45;&gt;dir_1d64e5e9f20206636d72b5bbe3d2b274</title>
<g id="a_edge3"><a xlink:href="dir_000471_000256.html" target="_top">
<path fill="none" stroke="#63b8ff" d="M117.95,-115.16C145.48,-106.97 204.96,-89.27 244.22,-77.6"/>
<polygon fill="#63b8ff" stroke="#63b8ff" points="245.17,-80.96 253.76,-74.76 243.17,-74.26 245.17,-80.96"/>
</a>
</g>
<g id="a_edge3&#45;headlabel"><a xlink:href="dir_000471_000256.html" target="_top" xlink:title="1">
<text text-anchor="middle" x="243.99" y="-80.4" font-family="Helvetica,sans-Serif" font-size="10.00" fill="#63b8ff">1</text>
</a>
</g>
</g>
<!-- dir_2bbe6eb3d46e6950ab20e680e13bb9a2&#45;&gt;dir_1bd32d4ef826aeeda00870843eb45c97 -->
<g id="edge2" class="edge">
<title>dir_2bbe6eb3d46e6950ab20e680e13bb9a2&#45;&gt;dir_1bd32d4ef826aeeda00870843eb45c97</title>
<g id="a_edge2"><a xlink:href="dir_000471_000522.html" target="_top">
<path fill="none" stroke="#63b8ff" d="M118.11,-116.77C151.62,-110.4 234.86,-94.24 314.42,-75.49"/>
<polygon fill="#63b8ff" stroke="#63b8ff" points="315.23,-78.89 324.15,-73.18 313.61,-72.08 315.23,-78.89"/>
</a>
</g>
<g id="a_edge2&#45;headlabel"><a xlink:href="dir_000471_000522.html" target="_top" xlink:title="1">
<text text-anchor="middle" x="313.86" y="-78.26" font-family="Helvetica,sans-Serif" font-size="10.00" fill="#63b8ff">1</text>
</a>
</g>
</g>
<!-- dir_2bbe6eb3d46e6950ab20e680e13bb9a2&#45;&gt;dir_44719da65bb992f08c8ee8632a1136c7 -->
<g id="edge4" class="edge">
<title>dir_2bbe6eb3d46e6950ab20e680e13bb9a2&#45;&gt;dir_44719da65bb992f08c8ee8632a1136c7</title>
<g id="a_edge4"><a xlink:href="dir_000471_000523.html" target="_top">
<path fill="none" stroke="#63b8ff" d="M118.15,-117.62C158.68,-112.22 273.16,-96.36 378.19,-75.42"/>
<polygon fill="#63b8ff" stroke="#63b8ff" points="378.7,-78.89 387.81,-73.48 377.32,-72.02 378.7,-78.89"/>
</a>
</g>
<g id="a_edge4&#45;headlabel"><a xlink:href="dir_000471_000523.html" target="_top" xlink:title="1">
<text text-anchor="middle" x="377.23" y="-78.21" font-family="Helvetica,sans-Serif" font-size="10.00" fill="#63b8ff">1</text>
</a>
</g>
</g>
<!-- dir_2bbe6eb3d46e6950ab20e680e13bb9a2&#45;&gt;dir_69cf9eba4292ca384eb404f09e7842a3 -->
<g id="edge5" class="edge">
<title>dir_2bbe6eb3d46e6950ab20e680e13bb9a2&#45;&gt;dir_69cf9eba4292ca384eb404f09e7842a3</title>
<g id="a_edge5"><a xlink:href="dir_000471_000200.html" target="_top">
<path fill="none" stroke="#63b8ff" d="M101.18,-110.81C99.82,-104.22 97.9,-94.94 96.17,-86.56"/>
<polygon fill="#63b8ff" stroke="#63b8ff" points="99.61,-85.91 94.16,-76.82 92.76,-87.32 99.61,-85.91"/>
</a>
</g>
<g id="a_edge5&#45;headlabel"><a xlink:href="dir_000471_000200.html" target="_top" xlink:title="1">
<text text-anchor="middle" x="102.81" y="-83.5" font-family="Helvetica,sans-Serif" font-size="10.00" fill="#63b8ff">1</text>
</a>
</g>
</g>
<!-- dir_2bbe6eb3d46e6950ab20e680e13bb9a2&#45;&gt;dir_bdd9a5d540de89e9fe90efdfc6973a4f -->
<g id="edge9" class="edge">
<title>dir_2bbe6eb3d46e6950ab20e680e13bb9a2&#45;&gt;dir_bdd9a5d540de89e9fe90efdfc6973a4f</title>
<g id="a_edge9"><a xlink:href="dir_000471_000046.html" target="_top">
<path fill="none" stroke="#63b8ff" d="M117.87,-118.85C181.82,-115.47 431.36,-100.68 454,-74.98 464.36,-63.23 464.13,-51.68 454,-39.73 437.06,-19.76 364.77,-13.71 319.17,-11.88"/>
<polygon fill="#63b8ff" stroke="#63b8ff" points="319.54,-8.39 309.43,-11.55 319.3,-15.39 319.54,-8.39"/>
</a>
</g>
<g id="a_edge9&#45;headlabel"><a xlink:href="dir_000471_000046.html" target="_top" xlink:title="1">
<text text-anchor="middle" x="321.72" y="-1.75" font-family="Helvetica,sans-Serif" font-size="10.00" fill="#63b8ff">1</text>
</a>
</g>
</g>
<!-- dir_9be0baa3d4a3e9f480a9ee70594037fa -->
<g id="node10" class="node">
<title>dir_9be0baa3d4a3e9f480a9ee70594037fa</title>
<g id="a_node10"><a xlink:href="dir_9be0baa3d4a3e9f480a9ee70594037fa.html" target="_top" xlink:title="kernel">
<polygon fill="#deebf9" stroke="red" stroke-dasharray="5,2" points="540.12,-74.98 497.88,-74.98 497.88,-55.73 540.12,-55.73 540.12,-74.98"/>
<text text-anchor="middle" x="519" y="-61.48" font-family="Helvetica,sans-Serif" font-size="10.00">kernel</text>
</a>
</g>
</g>
<!-- dir_2bbe6eb3d46e6950ab20e680e13bb9a2&#45;&gt;dir_9be0baa3d4a3e9f480a9ee70594037fa -->
<g id="edge8" class="edge">
<title>dir_2bbe6eb3d46e6950ab20e680e13bb9a2&#45;&gt;dir_9be0baa3d4a3e9f480a9ee70594037fa</title>
<g id="a_edge8"><a xlink:href="dir_000471_000241.html" target="_top">
<path fill="none" stroke="#63b8ff" d="M117.99,-118.53C169.33,-114.69 342.78,-100.55 484,-74.98 484.83,-74.83 485.67,-74.67 486.52,-74.51"/>
<polygon fill="#63b8ff" stroke="#63b8ff" points="487.12,-77.96 496.14,-72.4 485.62,-71.12 487.12,-77.96"/>
</a>
</g>
<g id="a_edge8&#45;headlabel"><a xlink:href="dir_000471_000241.html" target="_top" xlink:title="1">
<text text-anchor="middle" x="485.7" y="-77.3" font-family="Helvetica,sans-Serif" font-size="10.00" fill="#63b8ff">1</text>
</a>
</g>
</g>
</g>
</svg>
