<?xml version="1.0" encoding="UTF-8" standalone="no"?>
<!DOCTYPE svg PUBLIC "-//W3C//DTD SVG 1.1//EN"
 "http://www.w3.org/Graphics/SVG/1.1/DTD/svg11.dtd">
<!-- Generated by graphviz version 9.0.0 (20230911.1827)
 -->
<!-- Title: iop/network Pages: 1 -->
<svg width="482pt" height="142pt"
 viewBox="0.00 0.00 481.75 141.75" xmlns="http://www.w3.org/2000/svg" xmlns:xlink="http://www.w3.org/1999/xlink">
<g id="graph0" class="graph" transform="scale(1 1) rotate(0) translate(4 137.75)">
<title>iop/network</title>
<g id="clust1" class="cluster">
<title>clusterdir_0981ace215aa2029f526b70c145b9fbe</title>
<g id="a_clust1"><a xlink:href="dir_0981ace215aa2029f526b70c145b9fbe.html" target="_top" xlink:title="iop">
<polygon fill="#deebf9" stroke="#404040" stroke-dasharray="5,2" points="8,-8 8,-125.75 412,-125.75 412,-8 8,-8"/>
<text text-anchor="middle" x="210" y="-112.25" font-family="Helvetica,sans-Serif" font-size="10.00">iop</text>
</a>
</g>
</g>
<g id="clust2" class="cluster">
<title>clusterdir_f89050b4b7ba0179c2c7efd2300413d9</title>
<g id="a_clust2"><a xlink:href="dir_f89050b4b7ba0179c2c7efd2300413d9.html" target="_top">
<polygon fill="#deebf9" stroke="#404040" stroke-width="2" points="16,-63.25 16,-98.5 404,-98.5 404,-63.25 16,-63.25"/>
</a>
</g>
</g>
<!-- dir_40ac35421bc63b72c26b6c69b1517fd6 -->
<g id="node1" class="node">
<title>dir_40ac35421bc63b72c26b6c69b1517fd6</title>
<g id="a_node1"><a xlink:href="dir_40ac35421bc63b72c26b6c69b1517fd6.html" target="_top" xlink:title="system">
<polygon fill="#60a2e3" stroke="red" points="161.75,-35.25 114.25,-35.25 114.25,-16 161.75,-16 161.75,-35.25"/>
<text text-anchor="middle" x="138" y="-21.75" font-family="Helvetica,sans-Serif" font-size="10.00">system</text>
</a>
</g>
</g>
<!-- dir_6f16cad81de2453a6f48c5e272ba4a18 -->
<g id="node2" class="node">
<title>dir_6f16cad81de2453a6f48c5e272ba4a18</title>
<g id="a_node2"><a xlink:href="dir_6f16cad81de2453a6f48c5e272ba4a18.html" target="_top" xlink:title="dev9">
<polygon fill="#60a2e3" stroke="red" points="295.5,-35.25 258.5,-35.25 258.5,-16 295.5,-16 295.5,-35.25"/>
<text text-anchor="middle" x="277" y="-21.75" font-family="Helvetica,sans-Serif" font-size="10.00">dev9</text>
</a>
</g>
</g>
<!-- dir_9be0baa3d4a3e9f480a9ee70594037fa -->
<g id="node3" class="node">
<title>dir_9be0baa3d4a3e9f480a9ee70594037fa</title>
<g id="a_node3"><a xlink:href="dir_9be0baa3d4a3e9f480a9ee70594037fa.html" target="_top" xlink:title="kernel">
<polygon fill="#60a2e3" stroke="red" points="222.12,-35.25 179.88,-35.25 179.88,-16 222.12,-16 222.12,-35.25"/>
<text text-anchor="middle" x="201" y="-21.75" font-family="Helvetica,sans-Serif" font-size="10.00">kernel</text>
</a>
</g>
</g>
<!-- dir_f89050b4b7ba0179c2c7efd2300413d9 -->
<g id="node4" class="node">
<title>dir_f89050b4b7ba0179c2c7efd2300413d9</title>
<text text-anchor="middle" x="371" y="-77" font-family="Helvetica,sans-Serif" font-size="10.00">network</text>
</g>
<!-- dir_d3008f816dc1c94b20a03a6df12b797a -->
<g id="node5" class="node">
<title>dir_d3008f816dc1c94b20a03a6df12b797a</title>
<g id="a_node5"><a xlink:href="dir_d3008f816dc1c94b20a03a6df12b797a.html" target="_top" xlink:title="netman">
<polygon fill="#60a2e3" stroke="#404040" points="72.12,-90.5 23.88,-90.5 23.88,-71.25 72.12,-71.25 72.12,-90.5"/>
<text text-anchor="middle" x="48" y="-77" font-family="Helvetica,sans-Serif" font-size="10.00">netman</text>
</a>
</g>
</g>
<!-- dir_d3008f816dc1c94b20a03a6df12b797a&#45;&gt;dir_40ac35421bc63b72c26b6c69b1517fd6 -->
<g id="edge2" class="edge">
<title>dir_d3008f816dc1c94b20a03a6df12b797a&#45;&gt;dir_40ac35421bc63b72c26b6c69b1517fd6</title>
<g id="a_edge2"><a xlink:href="dir_000276_000515.html" target="_top">
<path fill="none" stroke="#63b8ff" d="M63.27,-70.84C76.84,-62.81 96.95,-50.91 112.9,-41.48"/>
<polygon fill="#63b8ff" stroke="#63b8ff" points="114.53,-44.58 121.36,-36.47 110.97,-38.55 114.53,-44.58"/>
</a>
</g>
<g id="a_edge2&#45;headlabel"><a xlink:href="dir_000276_000515.html" target="_top" xlink:title="30">
<text text-anchor="middle" x="114.19" y="-44.21" font-family="Helvetica,sans-Serif" font-size="10.00" fill="#63b8ff">30</text>
</a>
</g>
</g>
<!-- dir_d3008f816dc1c94b20a03a6df12b797a&#45;&gt;dir_9be0baa3d4a3e9f480a9ee70594037fa -->
<g id="edge1" class="edge">
<title>dir_d3008f816dc1c94b20a03a6df12b797a&#45;&gt;dir_9be0baa3d4a3e9f480a9ee70594037fa</title>
<g id="a_edge1"><a xlink:href="dir_000276_000239.html" target="_top">
<path fill="none" stroke="#63b8ff" d="M64.53,-70.85C69.72,-68.21 75.52,-65.45 81,-63.25 89.27,-59.93 136.03,-45.88 168.68,-36.18"/>
<polygon fill="#63b8ff" stroke="#63b8ff" points="169.51,-39.59 178.1,-33.39 167.51,-32.88 169.51,-39.59"/>
</a>
</g>
<g id="a_edge1&#45;headlabel"><a xlink:href="dir_000276_000239.html" target="_top" xlink:title="2">
<text text-anchor="middle" x="168.32" y="-39.02" font-family="Helvetica,sans-Serif" font-size="10.00" fill="#63b8ff">2</text>
</a>
</g>
</g>
<!-- dir_bdd9a5d540de89e9fe90efdfc6973a4f -->
<g id="node10" class="node">
<title>dir_bdd9a5d540de89e9fe90efdfc6973a4f</title>
<g id="a_node10"><a xlink:href="dir_bdd9a5d540de89e9fe90efdfc6973a4f.html" target="_top" xlink:title="common">
<polygon fill="#deebf9" stroke="red" points="473.75,-35.25 420.25,-35.25 420.25,-16 473.75,-16 473.75,-35.25"/>
<text text-anchor="middle" x="447" y="-21.75" font-family="Helvetica,sans-Serif" font-size="10.00">common</text>
</a>
</g>
</g>
<!-- dir_d3008f816dc1c94b20a03a6df12b797a&#45;&gt;dir_bdd9a5d540de89e9fe90efdfc6973a4f -->
<g id="edge3" class="edge">
<title>dir_d3008f816dc1c94b20a03a6df12b797a&#45;&gt;dir_bdd9a5d540de89e9fe90efdfc6973a4f</title>
<g id="a_edge3"><a xlink:href="dir_000276_000045.html" target="_top">
<path fill="none" stroke="#63b8ff" d="M62.95,-70.82C68.44,-67.91 74.83,-64.99 81,-63.25 221.14,-23.7 266.63,-59.69 408.71,-36.4"/>
<polygon fill="#63b8ff" stroke="#63b8ff" points="409.26,-39.85 418.53,-34.71 408.08,-32.96 409.26,-39.85"/>
</a>
</g>
<g id="a_edge3&#45;headlabel"><a xlink:href="dir_000276_000045.html" target="_top" xlink:title="9">
<text text-anchor="middle" x="407.69" y="-39.13" font-family="Helvetica,sans-Serif" font-size="10.00" fill="#63b8ff">9</text>
</a>
</g>
</g>
<!-- dir_7e8098252786d103c47acfa14c0859f4 -->
<g id="node6" class="node">
<title>dir_7e8098252786d103c47acfa14c0859f4</title>
<g id="a_node6"><a xlink:href="dir_7e8098252786d103c47acfa14c0859f4.html" target="_top" xlink:title="smap">
<polygon fill="#60a2e3" stroke="#404040" points="328,-90.5 288,-90.5 288,-71.25 328,-71.25 328,-90.5"/>
<text text-anchor="middle" x="308" y="-77" font-family="Helvetica,sans-Serif" font-size="10.00">smap</text>
</a>
</g>
</g>
<!-- dir_7e8098252786d103c47acfa14c0859f4&#45;&gt;dir_40ac35421bc63b72c26b6c69b1517fd6 -->
<g id="edge4" class="edge">
<title>dir_7e8098252786d103c47acfa14c0859f4&#45;&gt;dir_40ac35421bc63b72c26b6c69b1517fd6</title>
<g id="a_edge4"><a xlink:href="dir_000319_000515.html" target="_top">
<path fill="none" stroke="#63b8ff" d="M293.93,-70.8C289.3,-68.1 284.05,-65.31 279,-63.25 236.22,-45.81 221.06,-47.41 173.23,-35.74"/>
<polygon fill="#63b8ff" stroke="#63b8ff" points="174.17,-32.37 163.62,-33.31 172.46,-39.15 174.17,-32.37"/>
</a>
</g>
<g id="a_edge4&#45;headlabel"><a xlink:href="dir_000319_000515.html" target="_top" xlink:title="29">
<text text-anchor="middle" x="176.88" y="-26.25" font-family="Helvetica,sans-Serif" font-size="10.00" fill="#63b8ff">29</text>
</a>
</g>
</g>
<!-- dir_7e8098252786d103c47acfa14c0859f4&#45;&gt;dir_6f16cad81de2453a6f48c5e272ba4a18 -->
<g id="edge5" class="edge">
<title>dir_7e8098252786d103c47acfa14c0859f4&#45;&gt;dir_6f16cad81de2453a6f48c5e272ba4a18</title>
<g id="a_edge5"><a xlink:href="dir_000319_000049.html" target="_top">
<path fill="none" stroke="#63b8ff" d="M302.88,-71.08C298.82,-64.11 293.01,-54.12 287.91,-45.37"/>
<polygon fill="#63b8ff" stroke="#63b8ff" points="291.05,-43.8 282.99,-36.92 285,-47.32 291.05,-43.8"/>
</a>
</g>
<g id="a_edge5&#45;headlabel"><a xlink:href="dir_000319_000049.html" target="_top" xlink:title="3">
<text text-anchor="middle" x="294.55" y="-40.29" font-family="Helvetica,sans-Serif" font-size="10.00" fill="#63b8ff">3</text>
</a>
</g>
</g>
<!-- dir_7e8098252786d103c47acfa14c0859f4&#45;&gt;dir_9be0baa3d4a3e9f480a9ee70594037fa -->
<g id="edge6" class="edge">
<title>dir_7e8098252786d103c47acfa14c0859f4&#45;&gt;dir_9be0baa3d4a3e9f480a9ee70594037fa</title>
<g id="a_edge6"><a xlink:href="dir_000319_000239.html" target="_top">
<path fill="none" stroke="#63b8ff" d="M292.78,-70.84C288.37,-68.31 283.53,-65.61 279,-63.25 263.67,-55.27 246.28,-47.03 231.83,-40.4"/>
<polygon fill="#63b8ff" stroke="#63b8ff" points="233.35,-37.25 222.8,-36.29 230.45,-43.62 233.35,-37.25"/>
</a>
</g>
<g id="a_edge6&#45;headlabel"><a xlink:href="dir_000319_000239.html" target="_top" xlink:title="5">
<text text-anchor="middle" x="236.42" y="-31.65" font-family="Helvetica,sans-Serif" font-size="10.00" fill="#63b8ff">5</text>
</a>
</g>
</g>
<!-- dir_7e8098252786d103c47acfa14c0859f4&#45;&gt;dir_bdd9a5d540de89e9fe90efdfc6973a4f -->
<g id="edge7" class="edge">
<title>dir_7e8098252786d103c47acfa14c0859f4&#45;&gt;dir_bdd9a5d540de89e9fe90efdfc6973a4f</title>
<g id="a_edge7"><a xlink:href="dir_000319_000045.html" target="_top">
<path fill="none" stroke="#63b8ff" d="M322.46,-70.83C327.01,-68.19 332.13,-65.43 337,-63.25 350.1,-57.38 382.75,-46.69 409.09,-38.36"/>
<polygon fill="#63b8ff" stroke="#63b8ff" points="409.99,-41.75 418.48,-35.41 407.89,-35.07 409.99,-41.75"/>
</a>
</g>
<g id="a_edge7&#45;headlabel"><a xlink:href="dir_000319_000045.html" target="_top" xlink:title="7">
<text text-anchor="middle" x="408.85" y="-41.21" font-family="Helvetica,sans-Serif" font-size="10.00" fill="#63b8ff">7</text>
</a>
</g>
</g>
<!-- dir_39d17f469530f79363f6574f3e93b68d -->
<g id="node7" class="node">
<title>dir_39d17f469530f79363f6574f3e93b68d</title>
<g id="a_node7"><a xlink:href="dir_39d17f469530f79363f6574f3e93b68d.html" target="_top" xlink:title="smbman">
<polygon fill="#60a2e3" stroke="#404040" points="143.75,-90.5 90.25,-90.5 90.25,-71.25 143.75,-71.25 143.75,-90.5"/>
<text text-anchor="middle" x="117" y="-77" font-family="Helvetica,sans-Serif" font-size="10.00">smbman</text>
</a>
</g>
</g>
<!-- dir_39d17f469530f79363f6574f3e93b68d&#45;&gt;dir_40ac35421bc63b72c26b6c69b1517fd6 -->
<g id="edge9" class="edge">
<title>dir_39d17f469530f79363f6574f3e93b68d&#45;&gt;dir_40ac35421bc63b72c26b6c69b1517fd6</title>
<g id="a_edge9"><a xlink:href="dir_000320_000515.html" target="_top">
<path fill="none" stroke="#63b8ff" d="M120.47,-71.08C123.13,-64.34 126.9,-54.77 130.26,-46.24"/>
<polygon fill="#63b8ff" stroke="#63b8ff" points="133.49,-47.6 133.9,-37.02 126.98,-45.04 133.49,-47.6"/>
</a>
</g>
<g id="a_edge9&#45;headlabel"><a xlink:href="dir_000320_000515.html" target="_top" xlink:title="25">
<text text-anchor="middle" x="135.37" y="-46.71" font-family="Helvetica,sans-Serif" font-size="10.00" fill="#63b8ff">25</text>
</a>
</g>
</g>
<!-- dir_39d17f469530f79363f6574f3e93b68d&#45;&gt;dir_9be0baa3d4a3e9f480a9ee70594037fa -->
<g id="edge8" class="edge">
<title>dir_39d17f469530f79363f6574f3e93b68d&#45;&gt;dir_9be0baa3d4a3e9f480a9ee70594037fa</title>
<g id="a_edge8"><a xlink:href="dir_000320_000239.html" target="_top">
<path fill="none" stroke="#63b8ff" d="M131.25,-70.84C143.8,-62.89 162.33,-51.14 177.14,-41.75"/>
<polygon fill="#63b8ff" stroke="#63b8ff" points="178.83,-44.82 185.4,-36.51 175.08,-38.91 178.83,-44.82"/>
</a>
</g>
<g id="a_edge8&#45;headlabel"><a xlink:href="dir_000320_000239.html" target="_top" xlink:title="12">
<text text-anchor="middle" x="178.59" y="-44.46" font-family="Helvetica,sans-Serif" font-size="10.00" fill="#63b8ff">12</text>
</a>
</g>
</g>
<!-- dir_39d17f469530f79363f6574f3e93b68d&#45;&gt;dir_bdd9a5d540de89e9fe90efdfc6973a4f -->
<g id="edge10" class="edge">
<title>dir_39d17f469530f79363f6574f3e93b68d&#45;&gt;dir_bdd9a5d540de89e9fe90efdfc6973a4f</title>
<g id="a_edge10"><a xlink:href="dir_000320_000045.html" target="_top">
<path fill="none" stroke="#63b8ff" d="M133.42,-70.92C139.42,-68.02 146.36,-65.08 153,-63.25 262.66,-32.98 298.25,-55.73 408.72,-36.48"/>
<polygon fill="#63b8ff" stroke="#63b8ff" points="409.32,-39.93 418.52,-34.69 408.06,-33.05 409.32,-39.93"/>
</a>
</g>
<g id="a_edge10&#45;headlabel"><a xlink:href="dir_000320_000045.html" target="_top" xlink:title="5">
<text text-anchor="middle" x="407.78" y="-39.22" font-family="Helvetica,sans-Serif" font-size="10.00" fill="#63b8ff">5</text>
</a>
</g>
</g>
<!-- dir_6bcb0fd5e733f1a80749b2e929f95b9a -->
<g id="node8" class="node">
<title>dir_6bcb0fd5e733f1a80749b2e929f95b9a</title>
<g id="a_node8"><a xlink:href="dir_6bcb0fd5e733f1a80749b2e929f95b9a.html" target="_top" xlink:title="spduart">
<polygon fill="#60a2e3" stroke="#404040" points="270.12,-90.5 221.88,-90.5 221.88,-71.25 270.12,-71.25 270.12,-90.5"/>
<text text-anchor="middle" x="246" y="-77" font-family="Helvetica,sans-Serif" font-size="10.00">spduart</text>
</a>
</g>
</g>
<!-- dir_6bcb0fd5e733f1a80749b2e929f95b9a&#45;&gt;dir_40ac35421bc63b72c26b6c69b1517fd6 -->
<g id="edge13" class="edge">
<title>dir_6bcb0fd5e733f1a80749b2e929f95b9a&#45;&gt;dir_40ac35421bc63b72c26b6c69b1517fd6</title>
<g id="a_edge13"><a xlink:href="dir_000322_000515.html" target="_top">
<path fill="none" stroke="#63b8ff" d="M228.21,-70.86C223.29,-68.38 217.94,-65.7 213,-63.25 197.79,-55.71 180.8,-47.4 166.84,-40.6"/>
<polygon fill="#63b8ff" stroke="#63b8ff" points="168.72,-37.63 158.19,-36.4 165.66,-43.92 168.72,-37.63"/>
</a>
</g>
<g id="a_edge13&#45;headlabel"><a xlink:href="dir_000322_000515.html" target="_top" xlink:title="8">
<text text-anchor="middle" x="171.83" y="-32.11" font-family="Helvetica,sans-Serif" font-size="10.00" fill="#63b8ff">8</text>
</a>
</g>
</g>
<!-- dir_6bcb0fd5e733f1a80749b2e929f95b9a&#45;&gt;dir_6f16cad81de2453a6f48c5e272ba4a18 -->
<g id="edge12" class="edge">
<title>dir_6bcb0fd5e733f1a80749b2e929f95b9a&#45;&gt;dir_6f16cad81de2453a6f48c5e272ba4a18</title>
<g id="a_edge12"><a xlink:href="dir_000322_000049.html" target="_top">
<path fill="none" stroke="#63b8ff" d="M251.12,-71.08C255.18,-64.11 260.99,-54.12 266.09,-45.37"/>
<polygon fill="#63b8ff" stroke="#63b8ff" points="269,-47.32 271.01,-36.92 262.95,-43.8 269,-47.32"/>
</a>
</g>
<g id="a_edge12&#45;headlabel"><a xlink:href="dir_000322_000049.html" target="_top" xlink:title="1">
<text text-anchor="middle" x="270.41" y="-46.67" font-family="Helvetica,sans-Serif" font-size="10.00" fill="#63b8ff">1</text>
</a>
</g>
</g>
<!-- dir_6bcb0fd5e733f1a80749b2e929f95b9a&#45;&gt;dir_9be0baa3d4a3e9f480a9ee70594037fa -->
<g id="edge11" class="edge">
<title>dir_6bcb0fd5e733f1a80749b2e929f95b9a&#45;&gt;dir_9be0baa3d4a3e9f480a9ee70594037fa</title>
<g id="a_edge11"><a xlink:href="dir_000322_000239.html" target="_top">
<path fill="none" stroke="#63b8ff" d="M238.57,-71.08C232.42,-63.8 223.49,-53.23 215.87,-44.23"/>
<polygon fill="#63b8ff" stroke="#63b8ff" points="218.7,-42.14 209.57,-36.77 213.35,-46.66 218.7,-42.14"/>
</a>
</g>
<g id="a_edge11&#45;headlabel"><a xlink:href="dir_000322_000239.html" target="_top" xlink:title="2">
<text text-anchor="middle" x="222.21" y="-38.03" font-family="Helvetica,sans-Serif" font-size="10.00" fill="#63b8ff">2</text>
</a>
</g>
</g>
<!-- dir_6bcb0fd5e733f1a80749b2e929f95b9a&#45;&gt;dir_bdd9a5d540de89e9fe90efdfc6973a4f -->
<g id="edge14" class="edge">
<title>dir_6bcb0fd5e733f1a80749b2e929f95b9a&#45;&gt;dir_bdd9a5d540de89e9fe90efdfc6973a4f</title>
<g id="a_edge14"><a xlink:href="dir_000322_000045.html" target="_top">
<path fill="none" stroke="#63b8ff" d="M261.74,-70.88C267.09,-68.11 273.18,-65.27 279,-63.25 334.16,-44.1 353.27,-49.07 408.77,-36.85"/>
<polygon fill="#63b8ff" stroke="#63b8ff" points="409.55,-40.26 418.5,-34.6 407.97,-33.44 409.55,-40.26"/>
</a>
</g>
<g id="a_edge14&#45;headlabel"><a xlink:href="dir_000322_000045.html" target="_top" xlink:title="1">
<text text-anchor="middle" x="408.16" y="-39.62" font-family="Helvetica,sans-Serif" font-size="10.00" fill="#63b8ff">1</text>
</a>
</g>
</g>
<!-- dir_c29ab4c22b7bc0d7876a510e876257b9 -->
<g id="node9" class="node">
<title>dir_c29ab4c22b7bc0d7876a510e876257b9</title>
<g id="a_node9"><a xlink:href="dir_c29ab4c22b7bc0d7876a510e876257b9.html" target="_top" xlink:title="udptty">
<polygon fill="#60a2e3" stroke="#404040" points="204.12,-90.5 161.88,-90.5 161.88,-71.25 204.12,-71.25 204.12,-90.5"/>
<text text-anchor="middle" x="183" y="-77" font-family="Helvetica,sans-Serif" font-size="10.00">udptty</text>
</a>
</g>
</g>
<!-- dir_c29ab4c22b7bc0d7876a510e876257b9&#45;&gt;dir_40ac35421bc63b72c26b6c69b1517fd6 -->
<g id="edge15" class="edge">
<title>dir_c29ab4c22b7bc0d7876a510e876257b9&#45;&gt;dir_40ac35421bc63b72c26b6c69b1517fd6</title>
<g id="a_edge15"><a xlink:href="dir_000528_000515.html" target="_top">
<path fill="none" stroke="#63b8ff" d="M175.57,-71.08C169.42,-63.8 160.49,-53.23 152.87,-44.23"/>
<polygon fill="#63b8ff" stroke="#63b8ff" points="155.7,-42.14 146.57,-36.77 150.35,-46.66 155.7,-42.14"/>
</a>
</g>
<g id="a_edge15&#45;headlabel"><a xlink:href="dir_000528_000515.html" target="_top" xlink:title="18">
<text text-anchor="middle" x="159.21" y="-38.03" font-family="Helvetica,sans-Serif" font-size="10.00" fill="#63b8ff">18</text>
</a>
</g>
</g>
<!-- dir_c29ab4c22b7bc0d7876a510e876257b9&#45;&gt;dir_9be0baa3d4a3e9f480a9ee70594037fa -->
<g id="edge16" class="edge">
<title>dir_c29ab4c22b7bc0d7876a510e876257b9&#45;&gt;dir_9be0baa3d4a3e9f480a9ee70594037fa</title>
<g id="a_edge16"><a xlink:href="dir_000528_000239.html" target="_top">
<path fill="none" stroke="#63b8ff" d="M185.97,-71.08C188.25,-64.34 191.49,-54.77 194.37,-46.24"/>
<polygon fill="#63b8ff" stroke="#63b8ff" points="197.59,-47.64 197.48,-37.04 190.96,-45.4 197.59,-47.64"/>
</a>
</g>
<g id="a_edge16&#45;headlabel"><a xlink:href="dir_000528_000239.html" target="_top" xlink:title="1">
<text text-anchor="middle" x="199.62" y="-46.64" font-family="Helvetica,sans-Serif" font-size="10.00" fill="#63b8ff">1</text>
</a>
</g>
</g>
<!-- dir_c29ab4c22b7bc0d7876a510e876257b9&#45;&gt;dir_bdd9a5d540de89e9fe90efdfc6973a4f -->
<g id="edge17" class="edge">
<title>dir_c29ab4c22b7bc0d7876a510e876257b9&#45;&gt;dir_bdd9a5d540de89e9fe90efdfc6973a4f</title>
<g id="a_edge17"><a xlink:href="dir_000528_000045.html" target="_top">
<path fill="none" stroke="#63b8ff" d="M196.85,-70.8C201.77,-67.96 207.46,-65.09 213,-63.25 295.86,-35.65 324.47,-52.22 408.86,-36.56"/>
<polygon fill="#63b8ff" stroke="#63b8ff" points="409.38,-40.02 418.52,-34.66 408.03,-33.16 409.38,-40.02"/>
</a>
</g>
<g id="a_edge17&#45;headlabel"><a xlink:href="dir_000528_000045.html" target="_top" xlink:title="2">
<text text-anchor="middle" x="407.89" y="-39.34" font-family="Helvetica,sans-Serif" font-size="10.00" fill="#63b8ff">2</text>
</a>
</g>
</g>
</g>
</svg>
