<?xml version="1.0" encoding="UTF-8" standalone="no"?>
<!DOCTYPE svg PUBLIC "-//W3C//DTD SVG 1.1//EN"
 "http://www.w3.org/Graphics/SVG/1.1/DTD/svg11.dtd">
<!-- Generated by graphviz version 2.43.0 (0)
 -->
<!-- Title: iop/security/secrman/src Pages: 1 -->
<svg width="233pt" height="367pt"
 viewBox="0.00 0.00 232.55 367.00" xmlns="http://www.w3.org/2000/svg" xmlns:xlink="http://www.w3.org/1999/xlink">
<g id="graph0" class="graph" transform="scale(1 1) rotate(0) translate(4 363)">
<title>iop/security/secrman/src</title>
<polygon fill="white" stroke="transparent" points="-4,4 -4,-363 228.55,-363 228.55,4 -4,4"/>
<g id="clust1" class="cluster">
<title>clusterdir_e87a748976a4b7d8bcde9ae973d63de3</title>
<g id="a_clust1"><a xlink:href="dir_e87a748976a4b7d8bcde9ae973d63de3.html" target="_top" xlink:title="secrman">
<polygon fill="#ddddee" stroke="black" points="69.55,-280 69.55,-351 139.55,-351 139.55,-280 69.55,-280"/>
<text text-anchor="middle" x="104.55" y="-339" font-family="Helvetica,sans-Serif" font-size="10.00">secrman</text>
</a>
</g>
</g>
<!-- dir_aa0d5e3d566b838d5df154bca66431e9 -->
<g id="node1" class="node">
<title>dir_aa0d5e3d566b838d5df154bca66431e9</title>
<g id="a_node1"><a xlink:href="dir_aa0d5e3d566b838d5df154bca66431e9.html" target="_top" xlink:title="src">
<polygon fill="#eeeeff" stroke="black" points="131.55,-324 77.55,-324 77.55,-288 131.55,-288 131.55,-324"/>
<text text-anchor="middle" x="104.55" y="-303.5" font-family="Helvetica,sans-Serif" font-size="10.00">src</text>
</a>
</g>
</g>
<!-- dir_9be0baa3d4a3e9f480a9ee70594037fa -->
<g id="node2" class="node">
<title>dir_9be0baa3d4a3e9f480a9ee70594037fa</title>
<g id="a_node2"><a xlink:href="dir_9be0baa3d4a3e9f480a9ee70594037fa.html" target="_top" xlink:title="kernel">
<polygon fill="white" stroke="red" points="114.55,-36 60.55,-36 60.55,0 114.55,0 114.55,-36"/>
<text text-anchor="middle" x="87.55" y="-15.5" font-family="Helvetica,sans-Serif" font-size="10.00">kernel</text>
</a>
</g>
</g>
<!-- dir_aa0d5e3d566b838d5df154bca66431e9&#45;&gt;dir_9be0baa3d4a3e9f480a9ee70594037fa -->
<g id="edge8" class="edge">
<title>dir_aa0d5e3d566b838d5df154bca66431e9&#45;&gt;dir_9be0baa3d4a3e9f480a9ee70594037fa</title>
<path fill="none" stroke="black" d="M77.26,-297.34C55.72,-289.7 27.12,-275.62 13.55,-252 -26.49,-182.34 33.14,-88.3 66.94,-44.02"/>
<polygon fill="black" stroke="black" points="69.73,-46.14 73.12,-36.1 64.21,-41.84 69.73,-46.14"/>
<g id="a_edge8&#45;headlabel"><a xlink:href="dir_000197_000530.html" target="_top" xlink:title="2">
<text text-anchor="middle" x="69.75" y="-48.22" font-family="Helvetica,sans-Serif" font-size="10.00">2</text>
</a>
</g>
</g>
<!-- dir_40ac35421bc63b72c26b6c69b1517fd6 -->
<g id="node3" class="node">
<title>dir_40ac35421bc63b72c26b6c69b1517fd6</title>
<g id="a_node3"><a xlink:href="dir_40ac35421bc63b72c26b6c69b1517fd6.html" target="_top" xlink:title="system">
<polygon fill="white" stroke="red" points="169.55,-108 115.55,-108 115.55,-72 169.55,-72 169.55,-108"/>
<text text-anchor="middle" x="142.55" y="-87.5" font-family="Helvetica,sans-Serif" font-size="10.00">system</text>
</a>
</g>
</g>
<!-- dir_aa0d5e3d566b838d5df154bca66431e9&#45;&gt;dir_40ac35421bc63b72c26b6c69b1517fd6 -->
<g id="edge9" class="edge">
<title>dir_aa0d5e3d566b838d5df154bca66431e9&#45;&gt;dir_40ac35421bc63b72c26b6c69b1517fd6</title>
<path fill="none" stroke="black" d="M107.59,-287.85C114.18,-250.75 129.79,-162.81 137.73,-118.1"/>
<polygon fill="black" stroke="black" points="141.18,-118.69 139.49,-108.23 134.29,-117.47 141.18,-118.69"/>
<g id="a_edge9&#45;headlabel"><a xlink:href="dir_000197_000226.html" target="_top" xlink:title="16">
<text text-anchor="middle" x="143.35" y="-120.23" font-family="Helvetica,sans-Serif" font-size="10.00">16</text>
</a>
</g>
</g>
<!-- dir_b1eb8c8c36c60dd16b95b1412f1809ce -->
<g id="node4" class="node">
<title>dir_b1eb8c8c36c60dd16b95b1412f1809ce</title>
<g id="a_node4"><a xlink:href="dir_b1eb8c8c36c60dd16b95b1412f1809ce.html" target="_top" xlink:title="include">
<polygon fill="none" stroke="black" points="76.55,-252 22.55,-252 22.55,-216 76.55,-216 76.55,-252"/>
<text text-anchor="middle" x="49.55" y="-231.5" font-family="Helvetica,sans-Serif" font-size="10.00">include</text>
</a>
</g>
</g>
<!-- dir_aa0d5e3d566b838d5df154bca66431e9&#45;&gt;dir_b1eb8c8c36c60dd16b95b1412f1809ce -->
<g id="edge10" class="edge">
<title>dir_aa0d5e3d566b838d5df154bca66431e9&#45;&gt;dir_b1eb8c8c36c60dd16b95b1412f1809ce</title>
<path fill="none" stroke="black" d="M90.95,-287.7C84.42,-279.39 76.48,-269.28 69.3,-260.14"/>
<polygon fill="black" stroke="black" points="71.92,-257.81 62.98,-252.1 66.41,-262.13 71.92,-257.81"/>
<g id="a_edge10&#45;headlabel"><a xlink:href="dir_000197_000540.html" target="_top" xlink:title="4">
<text text-anchor="middle" x="76.37" y="-256.38" font-family="Helvetica,sans-Serif" font-size="10.00">4</text>
</a>
</g>
</g>
<!-- dir_a12d8da7b0731a57c6a388326ad5e612 -->
<g id="node5" class="node">
<title>dir_a12d8da7b0731a57c6a388326ad5e612</title>
<g id="a_node5"><a xlink:href="dir_a12d8da7b0731a57c6a388326ad5e612.html" target="_top" xlink:title="cdvd">
<polygon fill="white" stroke="red" points="224.55,-180 170.55,-180 170.55,-144 224.55,-144 224.55,-180"/>
<text text-anchor="middle" x="197.55" y="-159.5" font-family="Helvetica,sans-Serif" font-size="10.00">cdvd</text>
</a>
</g>
</g>
<!-- dir_aa0d5e3d566b838d5df154bca66431e9&#45;&gt;dir_a12d8da7b0731a57c6a388326ad5e612 -->
<g id="edge11" class="edge">
<title>dir_aa0d5e3d566b838d5df154bca66431e9&#45;&gt;dir_a12d8da7b0731a57c6a388326ad5e612</title>
<path fill="none" stroke="black" d="M124.27,-287.99C134.79,-278.21 147.4,-265.26 156.55,-252 169.91,-232.62 180.81,-208.19 188,-189.83"/>
<polygon fill="black" stroke="black" points="191.33,-190.91 191.6,-180.32 184.78,-188.43 191.33,-190.91"/>
<g id="a_edge11&#45;headlabel"><a xlink:href="dir_000197_000061.html" target="_top" xlink:title="2">
<text text-anchor="middle" x="192.71" y="-192.78" font-family="Helvetica,sans-Serif" font-size="10.00">2</text>
</a>
</g>
</g>
<!-- dir_6133ef156cce03413acfdeebec722ba1 -->
<g id="node6" class="node">
<title>dir_6133ef156cce03413acfdeebec722ba1</title>
<g id="a_node6"><a xlink:href="dir_6133ef156cce03413acfdeebec722ba1.html" target="_top" xlink:title="sio">
<polygon fill="white" stroke="red" points="114.55,-180 60.55,-180 60.55,-144 114.55,-144 114.55,-180"/>
<text text-anchor="middle" x="87.55" y="-159.5" font-family="Helvetica,sans-Serif" font-size="10.00">sio</text>
</a>
</g>
</g>
<!-- dir_aa0d5e3d566b838d5df154bca66431e9&#45;&gt;dir_6133ef156cce03413acfdeebec722ba1 -->
<g id="edge12" class="edge">
<title>dir_aa0d5e3d566b838d5df154bca66431e9&#45;&gt;dir_6133ef156cce03413acfdeebec722ba1</title>
<path fill="none" stroke="black" d="M102.5,-287.87C99.6,-263.67 94.28,-219.21 90.83,-190.39"/>
<polygon fill="black" stroke="black" points="94.27,-189.7 89.6,-180.19 87.32,-190.53 94.27,-189.7"/>
<g id="a_edge12&#45;headlabel"><a xlink:href="dir_000197_000200.html" target="_top" xlink:title="1">
<text text-anchor="middle" x="97.51" y="-190.43" font-family="Helvetica,sans-Serif" font-size="10.00">1</text>
</a>
</g>
</g>
<!-- dir_40ac35421bc63b72c26b6c69b1517fd6&#45;&gt;dir_9be0baa3d4a3e9f480a9ee70594037fa -->
<g id="edge1" class="edge">
<title>dir_40ac35421bc63b72c26b6c69b1517fd6&#45;&gt;dir_9be0baa3d4a3e9f480a9ee70594037fa</title>
<path fill="none" stroke="black" d="M128.95,-71.7C122.42,-63.39 114.48,-53.28 107.3,-44.14"/>
<polygon fill="black" stroke="black" points="109.92,-41.81 100.98,-36.1 104.41,-46.13 109.92,-41.81"/>
<g id="a_edge1&#45;headlabel"><a xlink:href="dir_000226_000530.html" target="_top" xlink:title="89">
<text text-anchor="middle" x="114.37" y="-40.38" font-family="Helvetica,sans-Serif" font-size="10.00">89</text>
</a>
</g>
</g>
<!-- dir_b1eb8c8c36c60dd16b95b1412f1809ce&#45;&gt;dir_9be0baa3d4a3e9f480a9ee70594037fa -->
<g id="edge2" class="edge">
<title>dir_b1eb8c8c36c60dd16b95b1412f1809ce&#45;&gt;dir_9be0baa3d4a3e9f480a9ee70594037fa</title>
<path fill="none" stroke="black" d="M48.63,-215.82C47.97,-197.82 47.77,-168.75 51.55,-144 56.85,-109.27 69,-70.59 77.72,-45.59"/>
<polygon fill="black" stroke="black" points="81.05,-46.67 81.1,-36.08 74.45,-44.32 81.05,-46.67"/>
<g id="a_edge2&#45;headlabel"><a xlink:href="dir_000540_000530.html" target="_top" xlink:title="1">
<text text-anchor="middle" x="82.52" y="-48.51" font-family="Helvetica,sans-Serif" font-size="10.00">1</text>
</a>
</g>
</g>
<!-- dir_b1eb8c8c36c60dd16b95b1412f1809ce&#45;&gt;dir_6133ef156cce03413acfdeebec722ba1 -->
<g id="edge3" class="edge">
<title>dir_b1eb8c8c36c60dd16b95b1412f1809ce&#45;&gt;dir_6133ef156cce03413acfdeebec722ba1</title>
<path fill="none" stroke="black" d="M58.94,-215.7C63.31,-207.64 68.6,-197.89 73.44,-188.98"/>
<polygon fill="black" stroke="black" points="76.57,-190.56 78.26,-180.1 70.41,-187.22 76.57,-190.56"/>
<g id="a_edge3&#45;headlabel"><a xlink:href="dir_000540_000200.html" target="_top" xlink:title="1">
<text text-anchor="middle" x="77.35" y="-192.58" font-family="Helvetica,sans-Serif" font-size="10.00">1</text>
</a>
</g>
</g>
<!-- dir_a12d8da7b0731a57c6a388326ad5e612&#45;&gt;dir_9be0baa3d4a3e9f480a9ee70594037fa -->
<g id="edge4" class="edge">
<title>dir_a12d8da7b0731a57c6a388326ad5e612&#45;&gt;dir_9be0baa3d4a3e9f480a9ee70594037fa</title>
<path fill="none" stroke="black" d="M197.87,-143.96C197.39,-124.73 194.02,-93.37 178.55,-72 165.15,-53.51 143.17,-40.44 124.16,-31.91"/>
<polygon fill="black" stroke="black" points="125.41,-28.64 114.84,-27.97 122.69,-35.09 125.41,-28.64"/>
<g id="a_edge4&#45;headlabel"><a xlink:href="dir_000061_000530.html" target="_top" xlink:title="13">
<text text-anchor="middle" x="129.83" y="-24.93" font-family="Helvetica,sans-Serif" font-size="10.00">13</text>
</a>
</g>
</g>
<!-- dir_a12d8da7b0731a57c6a388326ad5e612&#45;&gt;dir_40ac35421bc63b72c26b6c69b1517fd6 -->
<g id="edge5" class="edge">
<title>dir_a12d8da7b0731a57c6a388326ad5e612&#45;&gt;dir_40ac35421bc63b72c26b6c69b1517fd6</title>
<path fill="none" stroke="black" d="M183.95,-143.7C177.42,-135.39 169.48,-125.28 162.3,-116.14"/>
<polygon fill="black" stroke="black" points="164.92,-113.81 155.98,-108.1 159.41,-118.13 164.92,-113.81"/>
<g id="a_edge5&#45;headlabel"><a xlink:href="dir_000061_000226.html" target="_top" xlink:title="64">
<text text-anchor="middle" x="169.37" y="-112.38" font-family="Helvetica,sans-Serif" font-size="10.00">64</text>
</a>
</g>
</g>
<!-- dir_6133ef156cce03413acfdeebec722ba1&#45;&gt;dir_9be0baa3d4a3e9f480a9ee70594037fa -->
<g id="edge6" class="edge">
<title>dir_6133ef156cce03413acfdeebec722ba1&#45;&gt;dir_9be0baa3d4a3e9f480a9ee70594037fa</title>
<path fill="none" stroke="black" d="M87.55,-143.87C87.55,-119.67 87.55,-75.21 87.55,-46.39"/>
<polygon fill="black" stroke="black" points="91.05,-46.19 87.55,-36.19 84.05,-46.19 91.05,-46.19"/>
<g id="a_edge6&#45;headlabel"><a xlink:href="dir_000200_000530.html" target="_top" xlink:title="7">
<text text-anchor="middle" x="93.89" y="-47.28" font-family="Helvetica,sans-Serif" font-size="10.00">7</text>
</a>
</g>
</g>
<!-- dir_6133ef156cce03413acfdeebec722ba1&#45;&gt;dir_40ac35421bc63b72c26b6c69b1517fd6 -->
<g id="edge7" class="edge">
<title>dir_6133ef156cce03413acfdeebec722ba1&#45;&gt;dir_40ac35421bc63b72c26b6c69b1517fd6</title>
<path fill="none" stroke="black" d="M101.14,-143.7C107.67,-135.39 115.61,-125.28 122.79,-116.14"/>
<polygon fill="black" stroke="black" points="125.68,-118.13 129.11,-108.1 120.18,-113.81 125.68,-118.13"/>
<g id="a_edge7&#45;headlabel"><a xlink:href="dir_000200_000226.html" target="_top" xlink:title="39">
<text text-anchor="middle" x="125.69" y="-120.21" font-family="Helvetica,sans-Serif" font-size="10.00">39</text>
</a>
</g>
</g>
</g>
</svg>
