<?xml version="1.0" encoding="UTF-8" standalone="no"?>
<!DOCTYPE svg PUBLIC "-//W3C//DTD SVG 1.1//EN"
 "http://www.w3.org/Graphics/SVG/1.1/DTD/svg11.dtd">
<!-- Generated by graphviz version 2.43.0 (0)
 -->
<!-- Title: iop/arcade/acdev/src Pages: 1 -->
<svg width="133pt" height="295pt"
 viewBox="0.00 0.00 133.00 295.00" xmlns="http://www.w3.org/2000/svg" xmlns:xlink="http://www.w3.org/1999/xlink">
<g id="graph0" class="graph" transform="scale(1 1) rotate(0) translate(4 291)">
<title>iop/arcade/acdev/src</title>
<polygon fill="white" stroke="transparent" points="-4,4 -4,-291 129,-291 129,4 -4,4"/>
<g id="clust1" class="cluster">
<title>clusterdir_e1d9c48c0fe693840f397bd0f86d700a</title>
<g id="a_clust1"><a xlink:href="dir_e1d9c48c0fe693840f397bd0f86d700a.html" target="_top" xlink:title="acdev">
<polygon fill="#ddddee" stroke="black" points="8,-208 8,-279 78,-279 78,-208 8,-208"/>
<text text-anchor="middle" x="43" y="-267" font-family="Helvetica,sans-Serif" font-size="10.00">acdev</text>
</a>
</g>
</g>
<!-- dir_f3cefdad461251ef1ac341e57fd948be -->
<g id="node1" class="node">
<title>dir_f3cefdad461251ef1ac341e57fd948be</title>
<g id="a_node1"><a xlink:href="dir_f3cefdad461251ef1ac341e57fd948be.html" target="_top" xlink:title="src">
<polygon fill="#eeeeff" stroke="black" points="70,-252 16,-252 16,-216 70,-216 70,-252"/>
<text text-anchor="middle" x="43" y="-231.5" font-family="Helvetica,sans-Serif" font-size="10.00">src</text>
</a>
</g>
</g>
<!-- dir_9be0baa3d4a3e9f480a9ee70594037fa -->
<g id="node2" class="node">
<title>dir_9be0baa3d4a3e9f480a9ee70594037fa</title>
<g id="a_node2"><a xlink:href="dir_9be0baa3d4a3e9f480a9ee70594037fa.html" target="_top" xlink:title="kernel">
<polygon fill="white" stroke="red" points="79,-36 25,-36 25,0 79,0 79,-36"/>
<text text-anchor="middle" x="52" y="-15.5" font-family="Helvetica,sans-Serif" font-size="10.00">kernel</text>
</a>
</g>
</g>
<!-- dir_f3cefdad461251ef1ac341e57fd948be&#45;&gt;dir_9be0baa3d4a3e9f480a9ee70594037fa -->
<g id="edge2" class="edge">
<title>dir_f3cefdad461251ef1ac341e57fd948be&#45;&gt;dir_9be0baa3d4a3e9f480a9ee70594037fa</title>
<path fill="none" stroke="black" d="M34.98,-215.74C22.24,-185.88 0.34,-122.93 16,-72 19.01,-62.22 24.51,-52.62 30.32,-44.33"/>
<polygon fill="black" stroke="black" points="33.19,-46.33 36.39,-36.23 27.59,-42.13 33.19,-46.33"/>
<g id="a_edge2&#45;headlabel"><a xlink:href="dir_000024_000530.html" target="_top" xlink:title="1">
<text text-anchor="middle" x="33.31" y="-48.41" font-family="Helvetica,sans-Serif" font-size="10.00">1</text>
</a>
</g>
</g>
<!-- dir_40ac35421bc63b72c26b6c69b1517fd6 -->
<g id="node3" class="node">
<title>dir_40ac35421bc63b72c26b6c69b1517fd6</title>
<g id="a_node3"><a xlink:href="dir_40ac35421bc63b72c26b6c69b1517fd6.html" target="_top" xlink:title="system">
<polygon fill="white" stroke="red" points="79,-108 25,-108 25,-72 79,-72 79,-108"/>
<text text-anchor="middle" x="52" y="-87.5" font-family="Helvetica,sans-Serif" font-size="10.00">system</text>
</a>
</g>
</g>
<!-- dir_f3cefdad461251ef1ac341e57fd948be&#45;&gt;dir_40ac35421bc63b72c26b6c69b1517fd6 -->
<g id="edge3" class="edge">
<title>dir_f3cefdad461251ef1ac341e57fd948be&#45;&gt;dir_40ac35421bc63b72c26b6c69b1517fd6</title>
<path fill="none" stroke="black" d="M44.09,-215.87C45.62,-191.67 48.44,-147.21 50.26,-118.39"/>
<polygon fill="black" stroke="black" points="53.77,-118.39 50.91,-108.19 46.78,-117.95 53.77,-118.39"/>
<g id="a_edge3&#45;headlabel"><a xlink:href="dir_000024_000226.html" target="_top" xlink:title="4">
<text text-anchor="middle" x="56.38" y="-119.66" font-family="Helvetica,sans-Serif" font-size="10.00">4</text>
</a>
</g>
</g>
<!-- dir_f24daea2522ffa8b6dc5fa9cdf5b8f5c -->
<g id="node4" class="node">
<title>dir_f24daea2522ffa8b6dc5fa9cdf5b8f5c</title>
<g id="a_node4"><a xlink:href="dir_f24daea2522ffa8b6dc5fa9cdf5b8f5c.html" target="_top" xlink:title="fs">
<polygon fill="white" stroke="red" points="125,-180 71,-180 71,-144 125,-144 125,-180"/>
<text text-anchor="middle" x="98" y="-159.5" font-family="Helvetica,sans-Serif" font-size="10.00">fs</text>
</a>
</g>
</g>
<!-- dir_f3cefdad461251ef1ac341e57fd948be&#45;&gt;dir_f24daea2522ffa8b6dc5fa9cdf5b8f5c -->
<g id="edge4" class="edge">
<title>dir_f3cefdad461251ef1ac341e57fd948be&#45;&gt;dir_f24daea2522ffa8b6dc5fa9cdf5b8f5c</title>
<path fill="none" stroke="black" d="M56.6,-215.7C63.12,-207.39 71.07,-197.28 78.25,-188.14"/>
<polygon fill="black" stroke="black" points="81.13,-190.13 84.56,-180.1 75.63,-185.81 81.13,-190.13"/>
<g id="a_edge4&#45;headlabel"><a xlink:href="dir_000024_000118.html" target="_top" xlink:title="1">
<text text-anchor="middle" x="81.15" y="-192.21" font-family="Helvetica,sans-Serif" font-size="10.00">1</text>
</a>
</g>
</g>
<!-- dir_40ac35421bc63b72c26b6c69b1517fd6&#45;&gt;dir_9be0baa3d4a3e9f480a9ee70594037fa -->
<g id="edge1" class="edge">
<title>dir_40ac35421bc63b72c26b6c69b1517fd6&#45;&gt;dir_9be0baa3d4a3e9f480a9ee70594037fa</title>
<path fill="none" stroke="black" d="M52,-71.7C52,-63.98 52,-54.71 52,-46.11"/>
<polygon fill="black" stroke="black" points="55.5,-46.1 52,-36.1 48.5,-46.1 55.5,-46.1"/>
<g id="a_edge1&#45;headlabel"><a xlink:href="dir_000226_000530.html" target="_top" xlink:title="89">
<text text-anchor="middle" x="58.34" y="-47.2" font-family="Helvetica,sans-Serif" font-size="10.00">89</text>
</a>
</g>
</g>
<!-- dir_f24daea2522ffa8b6dc5fa9cdf5b8f5c&#45;&gt;dir_9be0baa3d4a3e9f480a9ee70594037fa -->
<g id="edge5" class="edge">
<title>dir_f24daea2522ffa8b6dc5fa9cdf5b8f5c&#45;&gt;dir_9be0baa3d4a3e9f480a9ee70594037fa</title>
<path fill="none" stroke="black" d="M98.48,-143.71C98.44,-125.35 96.79,-95.77 88,-72 84.45,-62.4 78.8,-52.85 73.02,-44.56"/>
<polygon fill="black" stroke="black" points="75.77,-42.4 67.03,-36.42 70.14,-46.55 75.77,-42.4"/>
<g id="a_edge5&#45;headlabel"><a xlink:href="dir_000118_000530.html" target="_top" xlink:title="29">
<text text-anchor="middle" x="80.19" y="-41.11" font-family="Helvetica,sans-Serif" font-size="10.00">29</text>
</a>
</g>
</g>
<!-- dir_f24daea2522ffa8b6dc5fa9cdf5b8f5c&#45;&gt;dir_40ac35421bc63b72c26b6c69b1517fd6 -->
<g id="edge6" class="edge">
<title>dir_f24daea2522ffa8b6dc5fa9cdf5b8f5c&#45;&gt;dir_40ac35421bc63b72c26b6c69b1517fd6</title>
<path fill="none" stroke="black" d="M86.63,-143.7C81.28,-135.56 74.8,-125.69 68.89,-116.7"/>
<polygon fill="black" stroke="black" points="71.66,-114.54 63.24,-108.1 65.81,-118.38 71.66,-114.54"/>
<g id="a_edge6&#45;headlabel"><a xlink:href="dir_000118_000226.html" target="_top" xlink:title="192">
<text text-anchor="middle" x="76" y="-113.48" font-family="Helvetica,sans-Serif" font-size="10.00">192</text>
</a>
</g>
</g>
</g>
</svg>
