<?xml version="1.0" encoding="UTF-8" standalone="no"?>
<!DOCTYPE svg PUBLIC "-//W3C//DTD SVG 1.1//EN"
 "http://www.w3.org/Graphics/SVG/1.1/DTD/svg11.dtd">
<!-- Generated by graphviz version 2.43.0 (0)
 -->
<!-- Title: ee/kernel Pages: 1 -->
<svg width="282pt" height="303pt"
 viewBox="0.00 0.00 281.55 303.00" xmlns="http://www.w3.org/2000/svg" xmlns:xlink="http://www.w3.org/1999/xlink">
<g id="graph0" class="graph" transform="scale(1 1) rotate(0) translate(4 299)">
<title>ee/kernel</title>
<polygon fill="white" stroke="transparent" points="-4,4 -4,-299 277.55,-299 277.55,4 -4,4"/>
<g id="clust1" class="cluster">
<title>clusterdir_049738f1909e8dc3e45fe1f6b3faa109</title>
<g id="a_clust1"><a xlink:href="dir_049738f1909e8dc3e45fe1f6b3faa109.html" target="_top" xlink:title="ee">
<polygon fill="#ddddee" stroke="black" points="8,-128 8,-287 166,-287 166,-128 8,-128"/>
<text text-anchor="middle" x="87" y="-275" font-family="Helvetica,sans-Serif" font-size="10.00">ee</text>
</a>
</g>
</g>
<g id="clust2" class="cluster">
<title>clusterdir_694ec83a64f58cbdefbefce65cd1011c</title>
<g id="a_clust2"><a xlink:href="dir_694ec83a64f58cbdefbefce65cd1011c.html" target="_top">
<polygon fill="#eeeeff" stroke="black" points="16,-136 16,-260 158,-260 158,-136 16,-136"/>
</a>
</g>
</g>
<!-- dir_694ec83a64f58cbdefbefce65cd1011c -->
<g id="node1" class="node">
<title>dir_694ec83a64f58cbdefbefce65cd1011c</title>
<text text-anchor="middle" x="123" y="-231.5" font-family="Helvetica,sans-Serif" font-size="10.00">kernel</text>
</g>
<!-- dir_8a6a67431f985d69787ebf051412922f -->
<g id="node2" class="node">
<title>dir_8a6a67431f985d69787ebf051412922f</title>
<g id="a_node2"><a xlink:href="dir_8a6a67431f985d69787ebf051412922f.html" target="_top" xlink:title="include">
<polygon fill="white" stroke="black" points="150,-180 96,-180 96,-144 150,-144 150,-180"/>
<text text-anchor="middle" x="123" y="-159.5" font-family="Helvetica,sans-Serif" font-size="10.00">include</text>
</a>
</g>
</g>
<!-- dir_5b119dc963fa9b25ef41951231899460 -->
<g id="node5" class="node">
<title>dir_5b119dc963fa9b25ef41951231899460</title>
<g id="a_node5"><a xlink:href="dir_5b119dc963fa9b25ef41951231899460.html" target="_top" xlink:title="rpc">
<polygon fill="white" stroke="red" points="255,-252 201,-252 201,-216 255,-216 255,-252"/>
<text text-anchor="middle" x="228" y="-231.5" font-family="Helvetica,sans-Serif" font-size="10.00">rpc</text>
</a>
</g>
</g>
<!-- dir_8a6a67431f985d69787ebf051412922f&#45;&gt;dir_5b119dc963fa9b25ef41951231899460 -->
<g id="edge14" class="edge">
<title>dir_8a6a67431f985d69787ebf051412922f&#45;&gt;dir_5b119dc963fa9b25ef41951231899460</title>
<path fill="none" stroke="black" d="M142.66,-180.03C156.59,-190.02 175.5,-202.68 192.03,-213.12"/>
<polygon fill="black" stroke="black" points="190.59,-216.35 200.93,-218.67 194.29,-210.41 190.59,-216.35"/>
<g id="a_edge14&#45;headlabel"><a xlink:href="dir_000407_000340.html" target="_top" xlink:title="1">
<text text-anchor="middle" x="186.04" y="-214.36" font-family="Helvetica,sans-Serif" font-size="10.00">1</text>
</a>
</g>
</g>
<!-- dir_bdd9a5d540de89e9fe90efdfc6973a4f -->
<g id="node7" class="node">
<title>dir_bdd9a5d540de89e9fe90efdfc6973a4f</title>
<g id="a_node7"><a xlink:href="dir_bdd9a5d540de89e9fe90efdfc6973a4f.html" target="_top" xlink:title="common">
<polygon fill="white" stroke="red" points="201.5,-36 142.5,-36 142.5,0 201.5,0 201.5,-36"/>
<text text-anchor="middle" x="172" y="-15.5" font-family="Helvetica,sans-Serif" font-size="10.00">common</text>
</a>
</g>
</g>
<!-- dir_8a6a67431f985d69787ebf051412922f&#45;&gt;dir_bdd9a5d540de89e9fe90efdfc6973a4f -->
<g id="edge15" class="edge">
<title>dir_8a6a67431f985d69787ebf051412922f&#45;&gt;dir_bdd9a5d540de89e9fe90efdfc6973a4f</title>
<path fill="none" stroke="black" d="M123.55,-143.71C124.63,-125.35 127.78,-95.77 137,-72 140.73,-62.39 146.4,-52.72 152.1,-44.33"/>
<polygon fill="black" stroke="black" points="155.02,-46.27 157.97,-36.1 149.32,-42.21 155.02,-46.27"/>
<g id="a_edge15&#45;headlabel"><a xlink:href="dir_000407_000000.html" target="_top" xlink:title="13">
<text text-anchor="middle" x="155.24" y="-48.35" font-family="Helvetica,sans-Serif" font-size="10.00">13</text>
</a>
</g>
</g>
<!-- dir_a493926c6e9678712bca5b1e822bb94f -->
<g id="node3" class="node">
<title>dir_a493926c6e9678712bca5b1e822bb94f</title>
<g id="a_node3"><a xlink:href="dir_a493926c6e9678712bca5b1e822bb94f.html" target="_top" xlink:title="src">
<polygon fill="white" stroke="red" points="78,-252 24,-252 24,-216 78,-216 78,-252"/>
<text text-anchor="middle" x="51" y="-231.5" font-family="Helvetica,sans-Serif" font-size="10.00">src</text>
</a>
</g>
</g>
<!-- dir_a493926c6e9678712bca5b1e822bb94f&#45;&gt;dir_8a6a67431f985d69787ebf051412922f -->
<g id="edge10" class="edge">
<title>dir_a493926c6e9678712bca5b1e822bb94f&#45;&gt;dir_8a6a67431f985d69787ebf051412922f</title>
<path fill="none" stroke="black" d="M68.8,-215.7C77.6,-207.14 88.38,-196.66 98,-187.3"/>
<polygon fill="black" stroke="black" points="100.68,-189.58 105.41,-180.1 95.8,-184.57 100.68,-189.58"/>
<g id="a_edge10&#45;headlabel"><a xlink:href="dir_000322_000407.html" target="_top" xlink:title="59">
<text text-anchor="middle" x="100.08" y="-191.63" font-family="Helvetica,sans-Serif" font-size="10.00">59</text>
</a>
</g>
</g>
<!-- dir_a0a8ac7efb6662b749c1285408048e6d -->
<g id="node4" class="node">
<title>dir_a0a8ac7efb6662b749c1285408048e6d</title>
<g id="a_node4"><a xlink:href="dir_a0a8ac7efb6662b749c1285408048e6d.html" target="_top" xlink:title="erl">
<polygon fill="white" stroke="red" points="228,-180 174,-180 174,-144 228,-144 228,-180"/>
<text text-anchor="middle" x="201" y="-159.5" font-family="Helvetica,sans-Serif" font-size="10.00">erl</text>
</a>
</g>
</g>
<!-- dir_a493926c6e9678712bca5b1e822bb94f&#45;&gt;dir_a0a8ac7efb6662b749c1285408048e6d -->
<g id="edge7" class="edge">
<title>dir_a493926c6e9678712bca5b1e822bb94f&#45;&gt;dir_a0a8ac7efb6662b749c1285408048e6d</title>
<path fill="none" stroke="black" d="M78.12,-220.17C81.11,-218.76 84.12,-217.35 87,-216 112.94,-203.85 142.25,-190.22 164.65,-179.83"/>
<polygon fill="black" stroke="black" points="166.2,-182.97 173.8,-175.59 163.25,-176.62 166.2,-182.97"/>
<g id="a_edge7&#45;headlabel"><a xlink:href="dir_000322_000397.html" target="_top" xlink:title="1">
<text text-anchor="middle" x="164.13" y="-184.56" font-family="Helvetica,sans-Serif" font-size="10.00">1</text>
</a>
</g>
</g>
<!-- dir_0981ace215aa2029f526b70c145b9fbe -->
<g id="node6" class="node">
<title>dir_0981ace215aa2029f526b70c145b9fbe</title>
<g id="a_node6"><a xlink:href="dir_0981ace215aa2029f526b70c145b9fbe.html" target="_top" xlink:title="iop">
<polygon fill="white" stroke="red" points="254,-108 200,-108 200,-72 254,-72 254,-108"/>
<text text-anchor="middle" x="227" y="-87.5" font-family="Helvetica,sans-Serif" font-size="10.00">iop</text>
</a>
</g>
</g>
<!-- dir_a493926c6e9678712bca5b1e822bb94f&#45;&gt;dir_0981ace215aa2029f526b70c145b9fbe -->
<g id="edge8" class="edge">
<title>dir_a493926c6e9678712bca5b1e822bb94f&#45;&gt;dir_0981ace215aa2029f526b70c145b9fbe</title>
<path fill="none" stroke="black" d="M52.04,-215.81C54.38,-192.54 62.03,-151.24 87,-128 114.86,-102.07 158.73,-93.87 189.93,-91.5"/>
<polygon fill="black" stroke="black" points="190.21,-94.99 199.98,-90.9 189.79,-88 190.21,-94.99"/>
<g id="a_edge8&#45;headlabel"><a xlink:href="dir_000322_000011.html" target="_top" xlink:title="5">
<text text-anchor="middle" x="186.79" y="-95.54" font-family="Helvetica,sans-Serif" font-size="10.00">5</text>
</a>
</g>
</g>
<!-- dir_a493926c6e9678712bca5b1e822bb94f&#45;&gt;dir_bdd9a5d540de89e9fe90efdfc6973a4f -->
<g id="edge9" class="edge">
<title>dir_a493926c6e9678712bca5b1e822bb94f&#45;&gt;dir_bdd9a5d540de89e9fe90efdfc6973a4f</title>
<path fill="none" stroke="black" d="M47.56,-215.73C44.12,-194.14 41.02,-156.55 54,-128 70.84,-90.96 106.82,-60.73 134.65,-41.59"/>
<polygon fill="black" stroke="black" points="136.62,-44.47 142.99,-36 132.73,-38.66 136.62,-44.47"/>
<g id="a_edge9&#45;headlabel"><a xlink:href="dir_000322_000000.html" target="_top" xlink:title="22">
<text text-anchor="middle" x="135.21" y="-46.33" font-family="Helvetica,sans-Serif" font-size="10.00">22</text>
</a>
</g>
</g>
<!-- dir_a0a8ac7efb6662b749c1285408048e6d&#45;&gt;dir_0981ace215aa2029f526b70c145b9fbe -->
<g id="edge1" class="edge">
<title>dir_a0a8ac7efb6662b749c1285408048e6d&#45;&gt;dir_0981ace215aa2029f526b70c145b9fbe</title>
<path fill="none" stroke="black" d="M207.43,-143.7C210.36,-135.81 213.89,-126.3 217.14,-117.55"/>
<polygon fill="black" stroke="black" points="220.45,-118.7 220.65,-108.1 213.88,-116.26 220.45,-118.7"/>
<g id="a_edge1&#45;headlabel"><a xlink:href="dir_000397_000011.html" target="_top" xlink:title="4">
<text text-anchor="middle" x="221.86" y="-120.56" font-family="Helvetica,sans-Serif" font-size="10.00">4</text>
</a>
</g>
</g>
<!-- dir_a0a8ac7efb6662b749c1285408048e6d&#45;&gt;dir_bdd9a5d540de89e9fe90efdfc6973a4f -->
<g id="edge2" class="edge">
<title>dir_a0a8ac7efb6662b749c1285408048e6d&#45;&gt;dir_bdd9a5d540de89e9fe90efdfc6973a4f</title>
<path fill="none" stroke="black" d="M197.5,-143.87C192.54,-119.56 183.4,-74.82 177.52,-46.01"/>
<polygon fill="black" stroke="black" points="180.94,-45.29 175.51,-36.19 174.08,-46.69 180.94,-45.29"/>
<g id="a_edge2&#45;headlabel"><a xlink:href="dir_000397_000000.html" target="_top" xlink:title="1">
<text text-anchor="middle" x="184.44" y="-45.74" font-family="Helvetica,sans-Serif" font-size="10.00">1</text>
</a>
</g>
</g>
<!-- dir_5b119dc963fa9b25ef41951231899460&#45;&gt;dir_8a6a67431f985d69787ebf051412922f -->
<g id="edge6" class="edge">
<title>dir_5b119dc963fa9b25ef41951231899460&#45;&gt;dir_8a6a67431f985d69787ebf051412922f</title>
<path fill="none" stroke="black" d="M208.21,-215.88C194.3,-205.9 175.45,-193.29 158.97,-182.88"/>
<polygon fill="black" stroke="black" points="160.44,-179.67 150.1,-177.35 156.74,-185.61 160.44,-179.67"/>
<g id="a_edge6&#45;headlabel"><a xlink:href="dir_000340_000407.html" target="_top" xlink:title="25">
<text text-anchor="middle" x="164.99" y="-176.66" font-family="Helvetica,sans-Serif" font-size="10.00">25</text>
</a>
</g>
</g>
<!-- dir_5b119dc963fa9b25ef41951231899460&#45;&gt;dir_a0a8ac7efb6662b749c1285408048e6d -->
<g id="edge3" class="edge">
<title>dir_5b119dc963fa9b25ef41951231899460&#45;&gt;dir_a0a8ac7efb6662b749c1285408048e6d</title>
<path fill="none" stroke="black" d="M221.33,-215.7C218.29,-207.81 214.62,-198.3 211.24,-189.55"/>
<polygon fill="black" stroke="black" points="214.46,-188.17 207.6,-180.1 207.93,-190.69 214.46,-188.17"/>
<g id="a_edge3&#45;headlabel"><a xlink:href="dir_000340_000397.html" target="_top" xlink:title="17">
<text text-anchor="middle" x="218.4" y="-188.01" font-family="Helvetica,sans-Serif" font-size="10.00">17</text>
</a>
</g>
</g>
<!-- dir_5b119dc963fa9b25ef41951231899460&#45;&gt;dir_0981ace215aa2029f526b70c145b9fbe -->
<g id="edge4" class="edge">
<title>dir_5b119dc963fa9b25ef41951231899460&#45;&gt;dir_0981ace215aa2029f526b70c145b9fbe</title>
<path fill="none" stroke="black" d="M231.75,-215.85C235.78,-195.02 241.09,-158.83 237,-128 236.56,-124.7 235.91,-121.28 235.15,-117.91"/>
<polygon fill="black" stroke="black" points="238.52,-116.94 232.64,-108.13 231.74,-118.68 238.52,-116.94"/>
<g id="a_edge4&#45;headlabel"><a xlink:href="dir_000340_000011.html" target="_top" xlink:title="22">
<text text-anchor="middle" x="242.16" y="-117.21" font-family="Helvetica,sans-Serif" font-size="10.00">22</text>
</a>
</g>
</g>
<!-- dir_5b119dc963fa9b25ef41951231899460&#45;&gt;dir_bdd9a5d540de89e9fe90efdfc6973a4f -->
<g id="edge5" class="edge">
<title>dir_5b119dc963fa9b25ef41951231899460&#45;&gt;dir_bdd9a5d540de89e9fe90efdfc6973a4f</title>
<path fill="none" stroke="black" d="M239.18,-215.81C257.69,-184.98 290.08,-119.12 263,-72 251.85,-52.61 230.58,-39.65 211.4,-31.4"/>
<polygon fill="black" stroke="black" points="212.51,-28.07 201.92,-27.61 209.91,-34.57 212.51,-28.07"/>
<g id="a_edge5&#45;headlabel"><a xlink:href="dir_000340_000000.html" target="_top" xlink:title="38">
<text text-anchor="middle" x="216.9" y="-24.27" font-family="Helvetica,sans-Serif" font-size="10.00">38</text>
</a>
</g>
</g>
<!-- dir_0981ace215aa2029f526b70c145b9fbe&#45;&gt;dir_bdd9a5d540de89e9fe90efdfc6973a4f -->
<g id="edge11" class="edge">
<title>dir_0981ace215aa2029f526b70c145b9fbe&#45;&gt;dir_bdd9a5d540de89e9fe90efdfc6973a4f</title>
<path fill="none" stroke="black" d="M207.49,-71.7C200.18,-63.47 192.13,-53.48 185.45,-44.42"/>
<polygon fill="black" stroke="black" points="188.19,-42.23 179.54,-36.1 182.48,-46.28 188.19,-42.23"/>
<g id="a_edge11&#45;headlabel"><a xlink:href="dir_000011_000000.html" target="_top" xlink:title="255">
<text text-anchor="middle" x="192.59" y="-41.01" font-family="Helvetica,sans-Serif" font-size="10.00">255</text>
</a>
</g>
</g>
<!-- dir_bdd9a5d540de89e9fe90efdfc6973a4f&#45;&gt;dir_8a6a67431f985d69787ebf051412922f -->
<g id="edge13" class="edge">
<title>dir_bdd9a5d540de89e9fe90efdfc6973a4f&#45;&gt;dir_8a6a67431f985d69787ebf051412922f</title>
<path fill="none" stroke="black" d="M166.07,-36.19C157.67,-60.53 142.23,-105.28 132.3,-134.06"/>
<polygon fill="black" stroke="black" points="128.86,-133.28 128.91,-143.87 135.48,-135.56 128.86,-133.28"/>
<g id="a_edge13&#45;headlabel"><a xlink:href="dir_000000_000407.html" target="_top" xlink:title="1">
<text text-anchor="middle" x="127.35" y="-126.45" font-family="Helvetica,sans-Serif" font-size="10.00">1</text>
</a>
</g>
</g>
<!-- dir_bdd9a5d540de89e9fe90efdfc6973a4f&#45;&gt;dir_0981ace215aa2029f526b70c145b9fbe -->
<g id="edge12" class="edge">
<title>dir_bdd9a5d540de89e9fe90efdfc6973a4f&#45;&gt;dir_0981ace215aa2029f526b70c145b9fbe</title>
<path fill="none" stroke="black" d="M191.33,-36.1C198.63,-44.3 206.69,-54.28 213.38,-63.36"/>
<polygon fill="black" stroke="black" points="210.67,-65.58 219.32,-71.7 216.37,-61.52 210.67,-65.58"/>
<g id="a_edge12&#45;headlabel"><a xlink:href="dir_000000_000011.html" target="_top" xlink:title="20">
<text text-anchor="middle" x="206.27" y="-61.8" font-family="Helvetica,sans-Serif" font-size="10.00">20</text>
</a>
</g>
</g>
</g>
</svg>
