<?xml version="1.0" encoding="UTF-8" standalone="no"?>
<!DOCTYPE svg PUBLIC "-//W3C//DTD SVG 1.1//EN"
 "http://www.w3.org/Graphics/SVG/1.1/DTD/svg11.dtd">
<!-- Generated by graphviz version 9.0.0 (20230911.1827)
 -->
<!-- Title: iop/usb/camera Pages: 1 -->
<svg width="314pt" height="150pt"
 viewBox="0.00 0.00 313.75 149.75" xmlns="http://www.w3.org/2000/svg" xmlns:xlink="http://www.w3.org/1999/xlink">
<g id="graph0" class="graph" transform="scale(1 1) rotate(0) translate(4 145.75)">
<title>iop/usb/camera</title>
<g id="clust1" class="cluster">
<title>clusterdir_b6c875632944d243a548db157cd77ec2</title>
<g id="a_clust1"><a xlink:href="dir_b6c875632944d243a548db157cd77ec2.html" target="_top" xlink:title="usb">
<polygon fill="#deebf9" stroke="#7f7f7f" stroke-dasharray="5,2" points="8,-8 8,-133.75 182,-133.75 182,-8 8,-8"/>
<text text-anchor="middle" x="95" y="-120.25" font-family="Helvetica,sans-Serif" font-size="10.00">usb</text>
</a>
</g>
</g>
<g id="clust2" class="cluster">
<title>clusterdir_354d0fe30f8451f44d30d5ee272e7643</title>
<g id="a_clust2"><a xlink:href="dir_354d0fe30f8451f44d30d5ee272e7643.html" target="_top">
<polygon fill="#deebf9" stroke="#404040" stroke-width="2" points="16,-16 16,-106.5 128,-106.5 128,-16 16,-16"/>
</a>
</g>
</g>
<!-- dir_8f550b51c304fe10978bfd792866fae2 -->
<g id="node1" class="node">
<title>dir_8f550b51c304fe10978bfd792866fae2</title>
<g id="a_node1"><a xlink:href="dir_8f550b51c304fe10978bfd792866fae2.html" target="_top" xlink:title="usbd">
<polygon fill="#60a2e3" stroke="red" points="173.5,-43.25 136.5,-43.25 136.5,-24 173.5,-24 173.5,-43.25"/>
<text text-anchor="middle" x="155" y="-29.75" font-family="Helvetica,sans-Serif" font-size="10.00">usbd</text>
</a>
</g>
</g>
<!-- dir_354d0fe30f8451f44d30d5ee272e7643 -->
<g id="node2" class="node">
<title>dir_354d0fe30f8451f44d30d5ee272e7643</title>
<text text-anchor="middle" x="96" y="-85" font-family="Helvetica,sans-Serif" font-size="10.00">camera</text>
</g>
<!-- dir_9a86dbb94afa354b42c3b83282a0ba50 -->
<g id="node3" class="node">
<title>dir_9a86dbb94afa354b42c3b83282a0ba50</title>
<g id="a_node3"><a xlink:href="dir_9a86dbb94afa354b42c3b83282a0ba50.html" target="_top" xlink:title="include">
<polygon fill="#60a2e3" stroke="#404040" points="70.38,-43.25 23.62,-43.25 23.62,-24 70.38,-24 70.38,-43.25"/>
<text text-anchor="middle" x="47" y="-29.75" font-family="Helvetica,sans-Serif" font-size="10.00">include</text>
</a>
</g>
</g>
<!-- dir_3df15571f2d889d39f44f0244a444c2b -->
<g id="node4" class="node">
<title>dir_3df15571f2d889d39f44f0244a444c2b</title>
<g id="a_node4"><a xlink:href="dir_3df15571f2d889d39f44f0244a444c2b.html" target="_top" xlink:title="src">
<polygon fill="#60a2e3" stroke="#404040" points="53.75,-98.5 24.25,-98.5 24.25,-79.25 53.75,-79.25 53.75,-98.5"/>
<text text-anchor="middle" x="39" y="-85" font-family="Helvetica,sans-Serif" font-size="10.00">src</text>
</a>
</g>
</g>
<!-- dir_3df15571f2d889d39f44f0244a444c2b&#45;&gt;dir_8f550b51c304fe10978bfd792866fae2 -->
<g id="edge1" class="edge">
<title>dir_3df15571f2d889d39f44f0244a444c2b&#45;&gt;dir_8f550b51c304fe10978bfd792866fae2</title>
<g id="a_edge1"><a xlink:href="dir_000389_000427.html" target="_top">
<path fill="none" stroke="#63b8ff" d="M54.16,-80.91C72.32,-72.58 103.13,-58.44 125.92,-47.97"/>
<polygon fill="#63b8ff" stroke="#63b8ff" points="127.38,-51.16 135,-43.8 124.45,-44.8 127.38,-51.16"/>
</a>
</g>
<g id="a_edge1&#45;headlabel"><a xlink:href="dir_000389_000427.html" target="_top" xlink:title="3">
<text text-anchor="middle" x="126.67" y="-50.73" font-family="Helvetica,sans-Serif" font-size="10.00" fill="#63b8ff">3</text>
</a>
</g>
</g>
<!-- dir_3df15571f2d889d39f44f0244a444c2b&#45;&gt;dir_9a86dbb94afa354b42c3b83282a0ba50 -->
<g id="edge2" class="edge">
<title>dir_3df15571f2d889d39f44f0244a444c2b&#45;&gt;dir_9a86dbb94afa354b42c3b83282a0ba50</title>
<g id="a_edge2"><a xlink:href="dir_000389_000156.html" target="_top">
<path fill="none" stroke="#63b8ff" d="M40.32,-79.08C41.31,-72.49 42.71,-63.21 43.97,-54.82"/>
<polygon fill="#63b8ff" stroke="#63b8ff" points="47.4,-55.51 45.43,-45.11 40.48,-54.47 47.4,-55.51"/>
</a>
</g>
<g id="a_edge2&#45;headlabel"><a xlink:href="dir_000389_000156.html" target="_top" xlink:title="1">
<text text-anchor="middle" x="49.9" y="-54.12" font-family="Helvetica,sans-Serif" font-size="10.00" fill="#63b8ff">1</text>
</a>
</g>
</g>
<!-- dir_9be0baa3d4a3e9f480a9ee70594037fa -->
<g id="node5" class="node">
<title>dir_9be0baa3d4a3e9f480a9ee70594037fa</title>
<g id="a_node5"><a xlink:href="dir_9be0baa3d4a3e9f480a9ee70594037fa.html" target="_top" xlink:title="kernel">
<polygon fill="#deebf9" stroke="red" stroke-dasharray="5,2" points="234.12,-43.25 191.88,-43.25 191.88,-24 234.12,-24 234.12,-43.25"/>
<text text-anchor="middle" x="213" y="-29.75" font-family="Helvetica,sans-Serif" font-size="10.00">kernel</text>
</a>
</g>
</g>
<!-- dir_3df15571f2d889d39f44f0244a444c2b&#45;&gt;dir_9be0baa3d4a3e9f480a9ee70594037fa -->
<g id="edge3" class="edge">
<title>dir_3df15571f2d889d39f44f0244a444c2b&#45;&gt;dir_9be0baa3d4a3e9f480a9ee70594037fa</title>
<g id="a_edge3"><a xlink:href="dir_000389_000174.html" target="_top">
<path fill="none" stroke="#63b8ff" d="M54.19,-82.26C57.1,-81.23 60.14,-80.18 63,-79.25 113.77,-62.71 129.58,-60.19 180.77,-44.8"/>
<polygon fill="#63b8ff" stroke="#63b8ff" points="181.5,-48.24 190.05,-41.99 179.46,-41.54 181.5,-48.24"/>
</a>
</g>
<g id="a_edge3&#45;headlabel"><a xlink:href="dir_000389_000174.html" target="_top" xlink:title="19">
<text text-anchor="middle" x="180.33" y="-47.69" font-family="Helvetica,sans-Serif" font-size="10.00" fill="#63b8ff">19</text>
</a>
</g>
</g>
<!-- dir_bdd9a5d540de89e9fe90efdfc6973a4f -->
<g id="node6" class="node">
<title>dir_bdd9a5d540de89e9fe90efdfc6973a4f</title>
<g id="a_node6"><a xlink:href="dir_bdd9a5d540de89e9fe90efdfc6973a4f.html" target="_top" xlink:title="common">
<polygon fill="#deebf9" stroke="red" points="305.75,-43.25 252.25,-43.25 252.25,-24 305.75,-24 305.75,-43.25"/>
<text text-anchor="middle" x="279" y="-29.75" font-family="Helvetica,sans-Serif" font-size="10.00">common</text>
</a>
</g>
</g>
<!-- dir_3df15571f2d889d39f44f0244a444c2b&#45;&gt;dir_bdd9a5d540de89e9fe90efdfc6973a4f -->
<g id="edge4" class="edge">
<title>dir_3df15571f2d889d39f44f0244a444c2b&#45;&gt;dir_bdd9a5d540de89e9fe90efdfc6973a4f</title>
<g id="a_edge4"><a xlink:href="dir_000389_000022.html" target="_top">
<path fill="none" stroke="#63b8ff" d="M54.13,-82.06C57.05,-81.04 60.1,-80.06 63,-79.25 138.22,-58.33 161.35,-60.51 240.84,-43.63"/>
<polygon fill="#63b8ff" stroke="#63b8ff" points="241.39,-47.09 250.42,-41.55 239.9,-40.25 241.39,-47.09"/>
</a>
</g>
<g id="a_edge4&#45;headlabel"><a xlink:href="dir_000389_000022.html" target="_top" xlink:title="1">
<text text-anchor="middle" x="239.95" y="-46.43" font-family="Helvetica,sans-Serif" font-size="10.00" fill="#63b8ff">1</text>
</a>
</g>
</g>
</g>
</svg>
