<?xml version="1.0" encoding="UTF-8" standalone="no"?>
<!DOCTYPE svg PUBLIC "-//W3C//DTD SVG 1.1//EN"
 "http://www.w3.org/Graphics/SVG/1.1/DTD/svg11.dtd">
<!-- Generated by graphviz version 12.2.0 (20241103.1931)
 -->
<!-- Title: iop/hdd Pages: 1 -->
<!--zoomable 142 -->

<svg id="main" version="1.1" xmlns="http://www.w3.org/2000/svg" xmlns:xlink="http://www.w3.org/1999/xlink" xml:space="preserve" onload="init(evt)">

<style type="text/css"><![CDATA[
.node, .edge {opacity: 0.7;}
.node.selected, .edge.selected {opacity: 1;}
.edge:hover path { stroke: red; }
.edge:hover polygon { stroke: red; fill: red; }
]]></style>

<defs>
  <circle id="rim" cx="0" cy="0" r="7"/>
  <circle id="rim2" cx="0" cy="0" r="3.5"/>
  <g id="zoomPlus">
    <use xlink:href="#rim" fill="#404040"><set attributeName="fill" to="#808080" begin="zoomplus.mouseover" end="zoomplus.mouseout"/></use>
    <path d="M-4,0h8M0,-4v8" fill="none" stroke="white" stroke-width="1.5" pointer-events="none"/>
  </g>
  <g id="zoomMin">
    <use xlink:href="#rim" fill="#404040"><set attributeName="fill" to="#808080" begin="zoomminus.mouseover" end="zoomminus.mouseout"/></use>
    <path d="M-4,0h8" fill="none" stroke="white" stroke-width="1.5" pointer-events="none"/>
  </g>
  <g id="arrowUp" transform="translate(30 24)">
    <use xlink:href="#rim"/>
    <path pointer-events="none" fill="none" stroke="white" stroke-width="1.5" d="M0,-3.0v7 M-2.5,-0.5L0,-3.0L2.5,-0.5"/>
  </g>
  <g id="arrowRight" transform="rotate(90) translate(36 -43)">
    <use xlink:href="#rim"/>
    <path pointer-events="none" fill="none" stroke="white" stroke-width="1.5" d="M0,-3.0v7 M-2.5,-0.5L0,-3.0L2.5,-0.5"/>
  </g>
  <g id="arrowDown" transform="rotate(180) translate(-30 -48)">
    <use xlink:href="#rim"/>
    <path pointer-events="none" fill="none" stroke="white" stroke-width="1.5" d="M0,-3.0v7 M-2.5,-0.5L0,-3.0L2.5,-0.5"/>
  </g>
  <g id="arrowLeft" transform="rotate(270) translate(-36 17)">
    <use xlink:href="#rim"/>
    <path pointer-events="none" fill="none" stroke="white" stroke-width="1.5" d="M0,-3.0v7 M-2.5,-0.5L0,-3.0L2.5,-0.5"/>
  </g>
  <g id="resetDef">
    <use xlink:href="#rim2" fill="#404040"><set attributeName="fill" to="#808080" begin="reset.mouseover" end="reset.mouseout"/></use>
  </g>
</defs>
<script type="application/ecmascript">
var viewWidth = 571;
var viewHeight = 142;
var sectionId = 'dynsection-0';
</script>
<script type="application/ecmascript" xlink:href="svg.min.js"/>
<svg id="graph" class="graph">
<g id="viewport">
<title>iop/hdd</title>
<g id="clust1" class="cluster">
<title>clusterdir_0981ace215aa2029f526b70c145b9fbe</title>
<g id="a_clust1"><a xlink:href="dir_0981ace215aa2029f526b70c145b9fbe.html" target="_top" xlink:title="iop">
<polygon fill="#deebf9" stroke="#404040" stroke-dasharray="5,2" points="8,-8 8,-125.75 501,-125.75 501,-8 8,-8"/>
<text text-anchor="middle" x="254.5" y="-112.25" font-family="Helvetica,sans-Serif" font-size="10.00">iop</text>
</a>
</g>
</g>
<g id="clust2" class="cluster">
<title>clusterdir_b6763ea08a8f9364194ebe3565e6b1f0</title>
<g id="a_clust2"><a xlink:href="dir_b6763ea08a8f9364194ebe3565e6b1f0.html" target="_top">
<polygon fill="#deebf9" stroke="#404040" stroke-width="2" points="16,-63.25 16,-98.5 493,-98.5 493,-63.25 16,-63.25"/>
</a>
</g>
</g>
<!-- dir_40ac35421bc63b72c26b6c69b1517fd6 -->
<g id="node1" class="node">
<title>dir_40ac35421bc63b72c26b6c69b1517fd6</title>
<g id="a_node1"><a xlink:href="dir_40ac35421bc63b72c26b6c69b1517fd6.html" target="_top" xlink:title="system">
<polygon fill="#60a2e3" stroke="red" points="262.75,-35.25 215.25,-35.25 215.25,-16 262.75,-16 262.75,-35.25"/>
<text text-anchor="middle" x="239" y="-21.75" font-family="Helvetica,sans-Serif" font-size="10.00">system</text>
</a>
</g>
</g>
<!-- dir_9be0baa3d4a3e9f480a9ee70594037fa -->
<g id="node2" class="node">
<title>dir_9be0baa3d4a3e9f480a9ee70594037fa</title>
<g id="a_node2"><a xlink:href="dir_9be0baa3d4a3e9f480a9ee70594037fa.html" target="_top" xlink:title="kernel">
<polygon fill="#60a2e3" stroke="red" points="323.12,-35.25 280.88,-35.25 280.88,-16 323.12,-16 323.12,-35.25"/>
<text text-anchor="middle" x="302" y="-21.75" font-family="Helvetica,sans-Serif" font-size="10.00">kernel</text>
</a>
</g>
</g>
<!-- dir_a12d8da7b0731a57c6a388326ad5e612 -->
<g id="node3" class="node">
<title>dir_a12d8da7b0731a57c6a388326ad5e612</title>
<g id="a_node3"><a xlink:href="dir_a12d8da7b0731a57c6a388326ad5e612.html" target="_top" xlink:title="cdvd">
<polygon fill="#60a2e3" stroke="red" points="378.5,-35.25 341.5,-35.25 341.5,-16 378.5,-16 378.5,-35.25"/>
<text text-anchor="middle" x="360" y="-21.75" font-family="Helvetica,sans-Serif" font-size="10.00">cdvd</text>
</a>
</g>
</g>
<!-- dir_6f16cad81de2453a6f48c5e272ba4a18 -->
<g id="node4" class="node">
<title>dir_6f16cad81de2453a6f48c5e272ba4a18</title>
<g id="a_node4"><a xlink:href="dir_6f16cad81de2453a6f48c5e272ba4a18.html" target="_top" xlink:title="dev9">
<polygon fill="#60a2e3" stroke="red" points="460.5,-35.25 423.5,-35.25 423.5,-16 460.5,-16 460.5,-35.25"/>
<text text-anchor="middle" x="442" y="-21.75" font-family="Helvetica,sans-Serif" font-size="10.00">dev9</text>
</a>
</g>
</g>
<!-- dir_b6763ea08a8f9364194ebe3565e6b1f0 -->
<g id="node5" class="node">
<title>dir_b6763ea08a8f9364194ebe3565e6b1f0</title>
<text text-anchor="middle" x="40" y="-77" font-family="Helvetica,sans-Serif" font-size="10.00">hdd</text>
</g>
<!-- dir_3cf15560dfc813cf049b4197fff2fad4 -->
<g id="node6" class="node">
<title>dir_3cf15560dfc813cf049b4197fff2fad4</title>
<g id="a_node6"><a xlink:href="dir_3cf15560dfc813cf049b4197fff2fad4.html" target="_top" xlink:title="apa">
<polygon fill="#60a2e3" stroke="#404040" points="321.88,-90.5 290.12,-90.5 290.12,-71.25 321.88,-71.25 321.88,-90.5"/>
<text text-anchor="middle" x="306" y="-77" font-family="Helvetica,sans-Serif" font-size="10.00">apa</text>
</a>
</g>
</g>
<!-- dir_3cf15560dfc813cf049b4197fff2fad4&#45;&gt;dir_40ac35421bc63b72c26b6c69b1517fd6 -->
<g id="edge1" class="edge">
<title>dir_3cf15560dfc813cf049b4197fff2fad4&#45;&gt;dir_40ac35421bc63b72c26b6c69b1517fd6</title>
<g id="a_edge1"><a xlink:href="dir_000024_000571.html" target="_top">
<path fill="none" stroke="#63b8ff" d="M294.63,-70.84C284.95,-63.15 270.8,-51.9 259.19,-42.68"/>
<polygon fill="#63b8ff" stroke="#63b8ff" points="261.39,-39.95 251.38,-36.47 257.03,-45.43 261.39,-39.95"/>
</a>
</g>
<g id="a_edge1&#45;headlabel"><a xlink:href="dir_000024_000571.html" target="_top" xlink:title="13">
<text text-anchor="middle" x="264.78" y="-35.15" font-family="Helvetica,sans-Serif" font-size="10.00" fill="#63b8ff">13</text>
</a>
</g>
</g>
<!-- dir_3cf15560dfc813cf049b4197fff2fad4&#45;&gt;dir_9be0baa3d4a3e9f480a9ee70594037fa -->
<g id="edge3" class="edge">
<title>dir_3cf15560dfc813cf049b4197fff2fad4&#45;&gt;dir_9be0baa3d4a3e9f480a9ee70594037fa</title>
<g id="a_edge3"><a xlink:href="dir_000024_000256.html" target="_top">
<path fill="none" stroke="#63b8ff" d="M305.34,-71.08C304.84,-64.49 304.15,-55.21 303.52,-46.82"/>
<polygon fill="#63b8ff" stroke="#63b8ff" points="307.03,-46.83 302.79,-37.12 300.05,-47.35 307.03,-46.83"/>
</a>
</g>
<g id="a_edge3&#45;headlabel"><a xlink:href="dir_000024_000256.html" target="_top" xlink:title="2">
<text text-anchor="middle" x="310.01" y="-44.82" font-family="Helvetica,sans-Serif" font-size="10.00" fill="#63b8ff">2</text>
</a>
</g>
</g>
<!-- dir_3cf15560dfc813cf049b4197fff2fad4&#45;&gt;dir_a12d8da7b0731a57c6a388326ad5e612 -->
<g id="edge4" class="edge">
<title>dir_3cf15560dfc813cf049b4197fff2fad4&#45;&gt;dir_a12d8da7b0731a57c6a388326ad5e612</title>
<g id="a_edge4"><a xlink:href="dir_000024_000041.html" target="_top">
<path fill="none" stroke="#63b8ff" d="M314.92,-71.08C322.45,-63.65 333.47,-52.79 342.73,-43.66"/>
<polygon fill="#63b8ff" stroke="#63b8ff" points="345.15,-46.19 349.81,-36.67 340.23,-41.2 345.15,-46.19"/>
</a>
</g>
<g id="a_edge4&#45;headlabel"><a xlink:href="dir_000024_000041.html" target="_top" xlink:title="1">
<text text-anchor="middle" x="345.66" y="-45.79" font-family="Helvetica,sans-Serif" font-size="10.00" fill="#63b8ff">1</text>
</a>
</g>
</g>
<!-- dir_bdd9a5d540de89e9fe90efdfc6973a4f -->
<g id="node14" class="node">
<title>dir_bdd9a5d540de89e9fe90efdfc6973a4f</title>
<g id="a_node14"><a xlink:href="dir_bdd9a5d540de89e9fe90efdfc6973a4f.html" target="_top" xlink:title="common">
<polygon fill="#deebf9" stroke="red" points="562.75,-35.25 509.25,-35.25 509.25,-16 562.75,-16 562.75,-35.25"/>
<text text-anchor="middle" x="536" y="-21.75" font-family="Helvetica,sans-Serif" font-size="10.00">common</text>
</a>
</g>
</g>
<!-- dir_3cf15560dfc813cf049b4197fff2fad4&#45;&gt;dir_bdd9a5d540de89e9fe90efdfc6973a4f -->
<g id="edge2" class="edge">
<title>dir_3cf15560dfc813cf049b4197fff2fad4&#45;&gt;dir_bdd9a5d540de89e9fe90efdfc6973a4f</title>
<g id="a_edge2"><a xlink:href="dir_000024_000046.html" target="_top">
<path fill="none" stroke="#63b8ff" d="M317.13,-71C321.27,-68.1 326.15,-65.15 331,-63.25 400.52,-36.03 426.08,-50.47 498.03,-36.59"/>
<polygon fill="#63b8ff" stroke="#63b8ff" points="498.42,-40.08 507.51,-34.64 497.01,-33.23 498.42,-40.08"/>
</a>
</g>
<g id="a_edge2&#45;headlabel"><a xlink:href="dir_000024_000046.html" target="_top" xlink:title="4">
<text text-anchor="middle" x="496.96" y="-39.41" font-family="Helvetica,sans-Serif" font-size="10.00" fill="#63b8ff">4</text>
</a>
</g>
</g>
<!-- dir_9541e23af0221debb6bd9c707cda09ba -->
<g id="node7" class="node">
<title>dir_9541e23af0221debb6bd9c707cda09ba</title>
<g id="a_node7"><a xlink:href="dir_9541e23af0221debb6bd9c707cda09ba.html" target="_top" xlink:title="fsck">
<polygon fill="#60a2e3" stroke="#404040" points="374.38,-90.5 339.62,-90.5 339.62,-71.25 374.38,-71.25 374.38,-90.5"/>
<text text-anchor="middle" x="357" y="-77" font-family="Helvetica,sans-Serif" font-size="10.00">fsck</text>
</a>
</g>
</g>
<!-- dir_9541e23af0221debb6bd9c707cda09ba&#45;&gt;dir_40ac35421bc63b72c26b6c69b1517fd6 -->
<g id="edge6" class="edge">
<title>dir_9541e23af0221debb6bd9c707cda09ba&#45;&gt;dir_40ac35421bc63b72c26b6c69b1517fd6</title>
<g id="a_edge6"><a xlink:href="dir_000083_000571.html" target="_top">
<path fill="none" stroke="#63b8ff" d="M344.06,-70.92C339.98,-68.28 335.39,-65.5 331,-63.25 312.51,-53.76 290.96,-45.07 273.37,-38.53"/>
<polygon fill="#63b8ff" stroke="#63b8ff" points="275.01,-35.41 264.41,-35.27 272.61,-41.98 275.01,-35.41"/>
</a>
</g>
<g id="a_edge6&#45;headlabel"><a xlink:href="dir_000083_000571.html" target="_top" xlink:title="18">
<text text-anchor="middle" x="277.93" y="-29.57" font-family="Helvetica,sans-Serif" font-size="10.00" fill="#63b8ff">18</text>
</a>
</g>
</g>
<!-- dir_9541e23af0221debb6bd9c707cda09ba&#45;&gt;dir_9be0baa3d4a3e9f480a9ee70594037fa -->
<g id="edge7" class="edge">
<title>dir_9541e23af0221debb6bd9c707cda09ba&#45;&gt;dir_9be0baa3d4a3e9f480a9ee70594037fa</title>
<g id="a_edge7"><a xlink:href="dir_000083_000256.html" target="_top">
<path fill="none" stroke="#63b8ff" d="M347.92,-71.08C340.16,-63.57 328.79,-52.56 319.3,-43.38"/>
<polygon fill="#63b8ff" stroke="#63b8ff" points="321.99,-41.1 312.37,-36.66 317.12,-46.13 321.99,-41.1"/>
</a>
</g>
<g id="a_edge7&#45;headlabel"><a xlink:href="dir_000083_000256.html" target="_top" xlink:title="3">
<text text-anchor="middle" x="325.46" y="-36.64" font-family="Helvetica,sans-Serif" font-size="10.00" fill="#63b8ff">3</text>
</a>
</g>
</g>
<!-- dir_9541e23af0221debb6bd9c707cda09ba&#45;&gt;dir_a12d8da7b0731a57c6a388326ad5e612 -->
<g id="edge8" class="edge">
<title>dir_9541e23af0221debb6bd9c707cda09ba&#45;&gt;dir_a12d8da7b0731a57c6a388326ad5e612</title>
<g id="a_edge8"><a xlink:href="dir_000083_000041.html" target="_top">
<path fill="none" stroke="#63b8ff" d="M357.5,-71.08C357.87,-64.49 358.39,-55.21 358.86,-46.82"/>
<polygon fill="#63b8ff" stroke="#63b8ff" points="362.34,-47.3 359.41,-37.12 355.35,-46.91 362.34,-47.3"/>
</a>
</g>
<g id="a_edge8&#45;headlabel"><a xlink:href="dir_000083_000041.html" target="_top" xlink:title="1">
<text text-anchor="middle" x="365.06" y="-45.66" font-family="Helvetica,sans-Serif" font-size="10.00" fill="#63b8ff">1</text>
</a>
</g>
</g>
<!-- dir_9541e23af0221debb6bd9c707cda09ba&#45;&gt;dir_bdd9a5d540de89e9fe90efdfc6973a4f -->
<g id="edge5" class="edge">
<title>dir_9541e23af0221debb6bd9c707cda09ba&#45;&gt;dir_bdd9a5d540de89e9fe90efdfc6973a4f</title>
<g id="a_edge5"><a xlink:href="dir_000083_000046.html" target="_top">
<path fill="none" stroke="#63b8ff" d="M369.73,-70.86C374.09,-68.1 379.11,-65.26 384,-63.25 431.67,-43.67 449.17,-48.12 498.04,-36.87"/>
<polygon fill="#63b8ff" stroke="#63b8ff" points="498.6,-40.34 507.5,-34.58 496.95,-33.54 498.6,-40.34"/>
</a>
</g>
<g id="a_edge5&#45;headlabel"><a xlink:href="dir_000083_000046.html" target="_top" xlink:title="4">
<text text-anchor="middle" x="497.25" y="-39.71" font-family="Helvetica,sans-Serif" font-size="10.00" fill="#63b8ff">4</text>
</a>
</g>
</g>
<!-- dir_2df0faac20d9a51e003e7c685c1cc5dd -->
<g id="node8" class="node">
<title>dir_2df0faac20d9a51e003e7c685c1cc5dd</title>
<g id="a_node8"><a xlink:href="dir_2df0faac20d9a51e003e7c685c1cc5dd.html" target="_top" xlink:title="fssk">
<polygon fill="#60a2e3" stroke="#404040" points="272.38,-90.5 237.62,-90.5 237.62,-71.25 272.38,-71.25 272.38,-90.5"/>
<text text-anchor="middle" x="255" y="-77" font-family="Helvetica,sans-Serif" font-size="10.00">fssk</text>
</a>
</g>
</g>
<!-- dir_2df0faac20d9a51e003e7c685c1cc5dd&#45;&gt;dir_40ac35421bc63b72c26b6c69b1517fd6 -->
<g id="edge10" class="edge">
<title>dir_2df0faac20d9a51e003e7c685c1cc5dd&#45;&gt;dir_40ac35421bc63b72c26b6c69b1517fd6</title>
<g id="a_edge10"><a xlink:href="dir_000084_000571.html" target="_top">
<path fill="none" stroke="#63b8ff" d="M252.36,-71.08C250.36,-64.42 247.52,-54.99 244.98,-46.53"/>
<polygon fill="#63b8ff" stroke="#63b8ff" points="248.36,-45.63 242.14,-37.06 241.66,-47.64 248.36,-45.63"/>
</a>
</g>
<g id="a_edge10&#45;headlabel"><a xlink:href="dir_000084_000571.html" target="_top" xlink:title="15">
<text text-anchor="middle" x="251.68" y="-42.93" font-family="Helvetica,sans-Serif" font-size="10.00" fill="#63b8ff">15</text>
</a>
</g>
</g>
<!-- dir_2df0faac20d9a51e003e7c685c1cc5dd&#45;&gt;dir_9be0baa3d4a3e9f480a9ee70594037fa -->
<g id="edge11" class="edge">
<title>dir_2df0faac20d9a51e003e7c685c1cc5dd&#45;&gt;dir_9be0baa3d4a3e9f480a9ee70594037fa</title>
<g id="a_edge11"><a xlink:href="dir_000084_000256.html" target="_top">
<path fill="none" stroke="#63b8ff" d="M262.76,-71.08C269.19,-63.8 278.51,-53.23 286.46,-44.23"/>
<polygon fill="#63b8ff" stroke="#63b8ff" points="289.08,-46.56 293.07,-36.74 283.83,-41.93 289.08,-46.56"/>
</a>
</g>
<g id="a_edge11&#45;headlabel"><a xlink:href="dir_000084_000256.html" target="_top" xlink:title="3">
<text text-anchor="middle" x="289.83" y="-46.12" font-family="Helvetica,sans-Serif" font-size="10.00" fill="#63b8ff">3</text>
</a>
</g>
</g>
<!-- dir_2df0faac20d9a51e003e7c685c1cc5dd&#45;&gt;dir_a12d8da7b0731a57c6a388326ad5e612 -->
<g id="edge12" class="edge">
<title>dir_2df0faac20d9a51e003e7c685c1cc5dd&#45;&gt;dir_a12d8da7b0731a57c6a388326ad5e612</title>
<g id="a_edge12"><a xlink:href="dir_000084_000041.html" target="_top">
<path fill="none" stroke="#63b8ff" d="M268.29,-70.89C272.3,-68.31 276.77,-65.57 281,-63.25 297.11,-54.42 315.72,-45.72 330.83,-39.02"/>
<polygon fill="#63b8ff" stroke="#63b8ff" points="331.99,-42.33 339.75,-35.12 329.18,-35.92 331.99,-42.33"/>
</a>
</g>
<g id="a_edge12&#45;headlabel"><a xlink:href="dir_000084_000041.html" target="_top" xlink:title="1">
<text text-anchor="middle" x="331.22" y="-41.89" font-family="Helvetica,sans-Serif" font-size="10.00" fill="#63b8ff">1</text>
</a>
</g>
</g>
<!-- dir_2df0faac20d9a51e003e7c685c1cc5dd&#45;&gt;dir_bdd9a5d540de89e9fe90efdfc6973a4f -->
<g id="edge9" class="edge">
<title>dir_2df0faac20d9a51e003e7c685c1cc5dd&#45;&gt;dir_bdd9a5d540de89e9fe90efdfc6973a4f</title>
<g id="a_edge9"><a xlink:href="dir_000084_000046.html" target="_top">
<path fill="none" stroke="#63b8ff" d="M266.58,-70.91C270.89,-68.01 275.96,-65.07 281,-63.25 371.86,-30.43 404.22,-53.14 497.89,-36.49"/>
<polygon fill="#63b8ff" stroke="#63b8ff" points="498.34,-39.97 507.52,-34.67 497.04,-33.09 498.34,-39.97"/>
</a>
</g>
<g id="a_edge9&#45;headlabel"><a xlink:href="dir_000084_000046.html" target="_top" xlink:title="2">
<text text-anchor="middle" x="496.83" y="-39.27" font-family="Helvetica,sans-Serif" font-size="10.00" fill="#63b8ff">2</text>
</a>
</g>
</g>
<!-- dir_f24565d8e5c1fee073eb5b759b3d7497 -->
<g id="node9" class="node">
<title>dir_f24565d8e5c1fee073eb5b759b3d7497</title>
<g id="a_node9"><a xlink:href="dir_f24565d8e5c1fee073eb5b759b3d7497.html" target="_top" xlink:title="hdck">
<polygon fill="#60a2e3" stroke="#404040" points="484.5,-90.5 447.5,-90.5 447.5,-71.25 484.5,-71.25 484.5,-90.5"/>
<text text-anchor="middle" x="466" y="-77" font-family="Helvetica,sans-Serif" font-size="10.00">hdck</text>
</a>
</g>
</g>
<!-- dir_f24565d8e5c1fee073eb5b759b3d7497&#45;&gt;dir_40ac35421bc63b72c26b6c69b1517fd6 -->
<g id="edge15" class="edge">
<title>dir_f24565d8e5c1fee073eb5b759b3d7497&#45;&gt;dir_40ac35421bc63b72c26b6c69b1517fd6</title>
<g id="a_edge15"><a xlink:href="dir_000087_000571.html" target="_top">
<path fill="none" stroke="#63b8ff" d="M453.61,-70.86C449.19,-68.03 444.05,-65.15 439,-63.25 371.84,-38.05 347.85,-49.76 274.31,-35.49"/>
<polygon fill="#63b8ff" stroke="#63b8ff" points="275.07,-32.07 264.57,-33.49 273.67,-38.93 275.07,-32.07"/>
</a>
</g>
<g id="a_edge15&#45;headlabel"><a xlink:href="dir_000087_000571.html" target="_top" xlink:title="10">
<text text-anchor="middle" x="277.68" y="-25.83" font-family="Helvetica,sans-Serif" font-size="10.00" fill="#63b8ff">10</text>
</a>
</g>
</g>
<!-- dir_f24565d8e5c1fee073eb5b759b3d7497&#45;&gt;dir_9be0baa3d4a3e9f480a9ee70594037fa -->
<g id="edge16" class="edge">
<title>dir_f24565d8e5c1fee073eb5b759b3d7497&#45;&gt;dir_9be0baa3d4a3e9f480a9ee70594037fa</title>
<g id="a_edge16"><a xlink:href="dir_000087_000256.html" target="_top">
<path fill="none" stroke="#63b8ff" d="M452.96,-70.78C448.66,-68.07 443.76,-65.29 439,-63.25 397.28,-45.36 382.11,-47.57 334.39,-35.5"/>
<polygon fill="#63b8ff" stroke="#63b8ff" points="335.36,-32.14 324.8,-32.98 333.58,-38.91 335.36,-32.14"/>
</a>
</g>
<g id="a_edge16&#45;headlabel"><a xlink:href="dir_000087_000256.html" target="_top" xlink:title="2">
<text text-anchor="middle" x="338.09" y="-26.04" font-family="Helvetica,sans-Serif" font-size="10.00" fill="#63b8ff">2</text>
</a>
</g>
</g>
<!-- dir_f24565d8e5c1fee073eb5b759b3d7497&#45;&gt;dir_a12d8da7b0731a57c6a388326ad5e612 -->
<g id="edge17" class="edge">
<title>dir_f24565d8e5c1fee073eb5b759b3d7497&#45;&gt;dir_a12d8da7b0731a57c6a388326ad5e612</title>
<g id="a_edge17"><a xlink:href="dir_000087_000041.html" target="_top">
<path fill="none" stroke="#63b8ff" d="M451.89,-70.76C447.79,-68.22 443.27,-65.54 439,-63.25 422.82,-54.56 404.2,-45.86 389.1,-39.13"/>
<polygon fill="#63b8ff" stroke="#63b8ff" points="390.77,-36.04 380.2,-35.21 387.95,-42.45 390.77,-36.04"/>
</a>
</g>
<g id="a_edge17&#45;headlabel"><a xlink:href="dir_000087_000041.html" target="_top" xlink:title="1">
<text text-anchor="middle" x="393.82" y="-30.4" font-family="Helvetica,sans-Serif" font-size="10.00" fill="#63b8ff">1</text>
</a>
</g>
</g>
<!-- dir_f24565d8e5c1fee073eb5b759b3d7497&#45;&gt;dir_6f16cad81de2453a6f48c5e272ba4a18 -->
<g id="edge13" class="edge">
<title>dir_f24565d8e5c1fee073eb5b759b3d7497&#45;&gt;dir_6f16cad81de2453a6f48c5e272ba4a18</title>
<g id="a_edge13"><a xlink:href="dir_000087_000051.html" target="_top">
<path fill="none" stroke="#63b8ff" d="M462.04,-71.08C458.96,-64.26 454.59,-54.56 450.71,-45.95"/>
<polygon fill="#63b8ff" stroke="#63b8ff" points="453.97,-44.67 446.67,-36.99 447.59,-47.54 453.97,-44.67"/>
</a>
</g>
<g id="a_edge13&#45;headlabel"><a xlink:href="dir_000087_000051.html" target="_top" xlink:title="4">
<text text-anchor="middle" x="457.41" y="-41.52" font-family="Helvetica,sans-Serif" font-size="10.00" fill="#63b8ff">4</text>
</a>
</g>
</g>
<!-- dir_f24565d8e5c1fee073eb5b759b3d7497&#45;&gt;dir_bdd9a5d540de89e9fe90efdfc6973a4f -->
<g id="edge14" class="edge">
<title>dir_f24565d8e5c1fee073eb5b759b3d7497&#45;&gt;dir_bdd9a5d540de89e9fe90efdfc6973a4f</title>
<g id="a_edge14"><a xlink:href="dir_000087_000046.html" target="_top">
<path fill="none" stroke="#63b8ff" d="M477.87,-70.84C488.09,-63.07 503.07,-51.67 515.26,-42.4"/>
<polygon fill="#63b8ff" stroke="#63b8ff" points="517.26,-45.28 523.1,-36.44 513.02,-39.71 517.26,-45.28"/>
</a>
</g>
<g id="a_edge14&#45;headlabel"><a xlink:href="dir_000087_000046.html" target="_top" xlink:title="2">
<text text-anchor="middle" x="517.32" y="-44.93" font-family="Helvetica,sans-Serif" font-size="10.00" fill="#63b8ff">2</text>
</a>
</g>
</g>
<!-- dir_00d6fa0d09c5792a738445385c091044 -->
<g id="node10" class="node">
<title>dir_00d6fa0d09c5792a738445385c091044</title>
<g id="a_node10"><a xlink:href="dir_00d6fa0d09c5792a738445385c091044.html" target="_top" xlink:title="hdsk">
<polygon fill="#60a2e3" stroke="#404040" points="429.5,-90.5 392.5,-90.5 392.5,-71.25 429.5,-71.25 429.5,-90.5"/>
<text text-anchor="middle" x="411" y="-77" font-family="Helvetica,sans-Serif" font-size="10.00">hdsk</text>
</a>
</g>
</g>
<!-- dir_00d6fa0d09c5792a738445385c091044&#45;&gt;dir_40ac35421bc63b72c26b6c69b1517fd6 -->
<g id="edge20" class="edge">
<title>dir_00d6fa0d09c5792a738445385c091044&#45;&gt;dir_40ac35421bc63b72c26b6c69b1517fd6</title>
<g id="a_edge20"><a xlink:href="dir_000091_000571.html" target="_top">
<path fill="none" stroke="#63b8ff" d="M397.45,-70.76C392.99,-68.06 387.91,-65.28 383,-63.25 339.09,-45.13 323.37,-47.47 274.17,-35.7"/>
<polygon fill="#63b8ff" stroke="#63b8ff" points="275.16,-32.34 264.61,-33.33 273.48,-39.13 275.16,-32.34"/>
</a>
</g>
<g id="a_edge20&#45;headlabel"><a xlink:href="dir_000091_000571.html" target="_top" xlink:title="20">
<text text-anchor="middle" x="277.87" y="-26.21" font-family="Helvetica,sans-Serif" font-size="10.00" fill="#63b8ff">20</text>
</a>
</g>
</g>
<!-- dir_00d6fa0d09c5792a738445385c091044&#45;&gt;dir_9be0baa3d4a3e9f480a9ee70594037fa -->
<g id="edge21" class="edge">
<title>dir_00d6fa0d09c5792a738445385c091044&#45;&gt;dir_9be0baa3d4a3e9f480a9ee70594037fa</title>
<g id="a_edge21"><a xlink:href="dir_000091_000256.html" target="_top">
<path fill="none" stroke="#63b8ff" d="M396.35,-70.76C392.1,-68.23 387.41,-65.55 383,-63.25 367.03,-54.93 348.79,-46.59 333.67,-39.97"/>
<polygon fill="#63b8ff" stroke="#63b8ff" points="335.24,-36.84 324.67,-36.08 332.46,-43.26 335.24,-36.84"/>
</a>
</g>
<g id="a_edge21&#45;headlabel"><a xlink:href="dir_000091_000256.html" target="_top" xlink:title="4">
<text text-anchor="middle" x="338.28" y="-31.18" font-family="Helvetica,sans-Serif" font-size="10.00" fill="#63b8ff">4</text>
</a>
</g>
</g>
<!-- dir_00d6fa0d09c5792a738445385c091044&#45;&gt;dir_a12d8da7b0731a57c6a388326ad5e612 -->
<g id="edge22" class="edge">
<title>dir_00d6fa0d09c5792a738445385c091044&#45;&gt;dir_a12d8da7b0731a57c6a388326ad5e612</title>
<g id="a_edge22"><a xlink:href="dir_000091_000041.html" target="_top">
<path fill="none" stroke="#63b8ff" d="M402.58,-71.08C395.46,-63.65 385.06,-52.79 376.31,-43.66"/>
<polygon fill="#63b8ff" stroke="#63b8ff" points="379.1,-41.5 369.65,-36.7 374.04,-46.35 379.1,-41.5"/>
</a>
</g>
<g id="a_edge22&#45;headlabel"><a xlink:href="dir_000091_000041.html" target="_top" xlink:title="1">
<text text-anchor="middle" x="382.59" y="-37.17" font-family="Helvetica,sans-Serif" font-size="10.00" fill="#63b8ff">1</text>
</a>
</g>
</g>
<!-- dir_00d6fa0d09c5792a738445385c091044&#45;&gt;dir_6f16cad81de2453a6f48c5e272ba4a18 -->
<g id="edge18" class="edge">
<title>dir_00d6fa0d09c5792a738445385c091044&#45;&gt;dir_6f16cad81de2453a6f48c5e272ba4a18</title>
<g id="a_edge18"><a xlink:href="dir_000091_000051.html" target="_top">
<path fill="none" stroke="#63b8ff" d="M416.12,-71.08C420.18,-64.11 425.99,-54.12 431.09,-45.37"/>
<polygon fill="#63b8ff" stroke="#63b8ff" points="434,-47.32 436.01,-36.92 427.95,-43.8 434,-47.32"/>
</a>
</g>
<g id="a_edge18&#45;headlabel"><a xlink:href="dir_000091_000051.html" target="_top" xlink:title="5">
<text text-anchor="middle" x="435.41" y="-46.67" font-family="Helvetica,sans-Serif" font-size="10.00" fill="#63b8ff">5</text>
</a>
</g>
</g>
<!-- dir_00d6fa0d09c5792a738445385c091044&#45;&gt;dir_bdd9a5d540de89e9fe90efdfc6973a4f -->
<g id="edge19" class="edge">
<title>dir_00d6fa0d09c5792a738445385c091044&#45;&gt;dir_bdd9a5d540de89e9fe90efdfc6973a4f</title>
<g id="a_edge19"><a xlink:href="dir_000091_000046.html" target="_top">
<path fill="none" stroke="#63b8ff" d="M425.27,-70.75C429.59,-68.17 434.41,-65.46 439,-63.25 458.07,-54.07 480.09,-45.6 498.33,-39.12"/>
<polygon fill="#63b8ff" stroke="#63b8ff" points="499.41,-42.45 507.7,-35.85 497.1,-35.84 499.41,-42.45"/>
</a>
</g>
<g id="a_edge19&#45;headlabel"><a xlink:href="dir_000091_000046.html" target="_top" xlink:title="5">
<text text-anchor="middle" x="498.38" y="-41.94" font-family="Helvetica,sans-Serif" font-size="10.00" fill="#63b8ff">5</text>
</a>
</g>
</g>
<!-- dir_74c6a9c949eb32128aa5a6adc613f35b -->
<g id="node11" class="node">
<title>dir_74c6a9c949eb32128aa5a6adc613f35b</title>
<g id="a_node11"><a xlink:href="dir_74c6a9c949eb32128aa5a6adc613f35b.html" target="_top" xlink:title="libapa">
<polygon fill="#60a2e3" stroke="#404040" points="115.75,-90.5 74.25,-90.5 74.25,-71.25 115.75,-71.25 115.75,-90.5"/>
<text text-anchor="middle" x="95" y="-77" font-family="Helvetica,sans-Serif" font-size="10.00">libapa</text>
</a>
</g>
</g>
<!-- dir_74c6a9c949eb32128aa5a6adc613f35b&#45;&gt;dir_40ac35421bc63b72c26b6c69b1517fd6 -->
<g id="edge24" class="edge">
<title>dir_74c6a9c949eb32128aa5a6adc613f35b&#45;&gt;dir_40ac35421bc63b72c26b6c69b1517fd6</title>
<g id="a_edge24"><a xlink:href="dir_000260_000571.html" target="_top">
<path fill="none" stroke="#63b8ff" d="M109.44,-70.8C113.99,-68.15 119.11,-65.4 124,-63.25 150.09,-51.77 180.92,-42.15 204.09,-35.66"/>
<polygon fill="#63b8ff" stroke="#63b8ff" points="204.93,-39.05 213.66,-33.04 203.09,-32.3 204.93,-39.05"/>
</a>
</g>
<g id="a_edge24&#45;headlabel"><a xlink:href="dir_000260_000571.html" target="_top" xlink:title="12">
<text text-anchor="middle" x="203.68" y="-38.47" font-family="Helvetica,sans-Serif" font-size="10.00" fill="#63b8ff">12</text>
</a>
</g>
</g>
<!-- dir_74c6a9c949eb32128aa5a6adc613f35b&#45;&gt;dir_9be0baa3d4a3e9f480a9ee70594037fa -->
<g id="edge25" class="edge">
<title>dir_74c6a9c949eb32128aa5a6adc613f35b&#45;&gt;dir_9be0baa3d4a3e9f480a9ee70594037fa</title>
<g id="a_edge25"><a xlink:href="dir_000260_000256.html" target="_top">
<path fill="none" stroke="#63b8ff" d="M108.7,-70.77C113.39,-68 118.77,-65.18 124,-63.25 183.49,-41.28 204.64,-49.71 269.23,-35.65"/>
<polygon fill="#63b8ff" stroke="#63b8ff" points="269.99,-39.07 278.96,-33.42 268.43,-32.24 269.99,-39.07"/>
</a>
</g>
<g id="a_edge25&#45;headlabel"><a xlink:href="dir_000260_000256.html" target="_top" xlink:title="1">
<text text-anchor="middle" x="268.6" y="-38.42" font-family="Helvetica,sans-Serif" font-size="10.00" fill="#63b8ff">1</text>
</a>
</g>
</g>
<!-- dir_74c6a9c949eb32128aa5a6adc613f35b&#45;&gt;dir_bdd9a5d540de89e9fe90efdfc6973a4f -->
<g id="edge23" class="edge">
<title>dir_74c6a9c949eb32128aa5a6adc613f35b&#45;&gt;dir_bdd9a5d540de89e9fe90efdfc6973a4f</title>
<g id="a_edge23"><a xlink:href="dir_000260_000046.html" target="_top">
<path fill="none" stroke="#63b8ff" d="M108,-70.77C112.81,-67.86 118.45,-64.95 124,-63.25 282.87,-14.64 335.47,-62.23 498.14,-36.29"/>
<polygon fill="#63b8ff" stroke="#63b8ff" points="498.24,-39.82 507.53,-34.72 497.09,-32.92 498.24,-39.82"/>
</a>
</g>
<g id="a_edge23&#45;headlabel"><a xlink:href="dir_000260_000046.html" target="_top" xlink:title="13">
<text text-anchor="middle" x="496.66" y="-39.09" font-family="Helvetica,sans-Serif" font-size="10.00" fill="#63b8ff">13</text>
</a>
</g>
</g>
<!-- dir_5b638697113ca3fae3dbb2942f3ebff2 -->
<g id="node12" class="node">
<title>dir_5b638697113ca3fae3dbb2942f3ebff2</title>
<g id="a_node12"><a xlink:href="dir_5b638697113ca3fae3dbb2942f3ebff2.html" target="_top" xlink:title="libpfs">
<polygon fill="#60a2e3" stroke="#404040" points="172.62,-90.5 133.38,-90.5 133.38,-71.25 172.62,-71.25 172.62,-90.5"/>
<text text-anchor="middle" x="153" y="-77" font-family="Helvetica,sans-Serif" font-size="10.00">libpfs</text>
</a>
</g>
</g>
<!-- dir_5b638697113ca3fae3dbb2942f3ebff2&#45;&gt;dir_40ac35421bc63b72c26b6c69b1517fd6 -->
<g id="edge27" class="edge">
<title>dir_5b638697113ca3fae3dbb2942f3ebff2&#45;&gt;dir_40ac35421bc63b72c26b6c69b1517fd6</title>
<g id="a_edge27"><a xlink:href="dir_000265_000571.html" target="_top">
<path fill="none" stroke="#63b8ff" d="M167.59,-70.84C180.44,-62.89 199.41,-51.14 214.57,-41.75"/>
<polygon fill="#63b8ff" stroke="#63b8ff" points="216.39,-44.74 223.05,-36.5 212.71,-38.79 216.39,-44.74"/>
</a>
</g>
<g id="a_edge27&#45;headlabel"><a xlink:href="dir_000265_000571.html" target="_top" xlink:title="13">
<text text-anchor="middle" x="216.12" y="-44.37" font-family="Helvetica,sans-Serif" font-size="10.00" fill="#63b8ff">13</text>
</a>
</g>
</g>
<!-- dir_5b638697113ca3fae3dbb2942f3ebff2&#45;&gt;dir_9be0baa3d4a3e9f480a9ee70594037fa -->
<g id="edge28" class="edge">
<title>dir_5b638697113ca3fae3dbb2942f3ebff2&#45;&gt;dir_9be0baa3d4a3e9f480a9ee70594037fa</title>
<g id="a_edge28"><a xlink:href="dir_000265_000256.html" target="_top">
<path fill="none" stroke="#63b8ff" d="M166.6,-70.9C171.07,-68.2 176.14,-65.39 181,-63.25 189.24,-59.62 236.66,-45.59 269.63,-35.98"/>
<polygon fill="#63b8ff" stroke="#63b8ff" points="270.52,-39.37 279.15,-33.22 268.57,-32.65 270.52,-39.37"/>
</a>
</g>
<g id="a_edge28&#45;headlabel"><a xlink:href="dir_000265_000256.html" target="_top" xlink:title="1">
<text text-anchor="middle" x="269.31" y="-38.8" font-family="Helvetica,sans-Serif" font-size="10.00" fill="#63b8ff">1</text>
</a>
</g>
</g>
<!-- dir_5b638697113ca3fae3dbb2942f3ebff2&#45;&gt;dir_bdd9a5d540de89e9fe90efdfc6973a4f -->
<g id="edge26" class="edge">
<title>dir_5b638697113ca3fae3dbb2942f3ebff2&#45;&gt;dir_bdd9a5d540de89e9fe90efdfc6973a4f</title>
<g id="a_edge26"><a xlink:href="dir_000265_000046.html" target="_top">
<path fill="none" stroke="#63b8ff" d="M165.52,-70.81C170.17,-67.9 175.62,-64.98 181,-63.25 315.11,-20.14 360.46,-58.88 498.07,-36.34"/>
<polygon fill="#63b8ff" stroke="#63b8ff" points="498.27,-39.86 507.53,-34.71 497.08,-32.96 498.27,-39.86"/>
</a>
</g>
<g id="a_edge26&#45;headlabel"><a xlink:href="dir_000265_000046.html" target="_top" xlink:title="14">
<text text-anchor="middle" x="496.7" y="-39.13" font-family="Helvetica,sans-Serif" font-size="10.00" fill="#63b8ff">14</text>
</a>
</g>
</g>
<!-- dir_cece7c3de560cfc4de14abf3198b3696 -->
<g id="node13" class="node">
<title>dir_cece7c3de560cfc4de14abf3198b3696</title>
<g id="a_node13"><a xlink:href="dir_cece7c3de560cfc4de14abf3198b3696.html" target="_top" xlink:title="pfs">
<polygon fill="#60a2e3" stroke="#404040" points="219.75,-90.5 190.25,-90.5 190.25,-71.25 219.75,-71.25 219.75,-90.5"/>
<text text-anchor="middle" x="205" y="-77" font-family="Helvetica,sans-Serif" font-size="10.00">pfs</text>
</a>
</g>
</g>
<!-- dir_cece7c3de560cfc4de14abf3198b3696&#45;&gt;dir_40ac35421bc63b72c26b6c69b1517fd6 -->
<g id="edge31" class="edge">
<title>dir_cece7c3de560cfc4de14abf3198b3696&#45;&gt;dir_40ac35421bc63b72c26b6c69b1517fd6</title>
<g id="a_edge31"><a xlink:href="dir_000307_000571.html" target="_top">
<path fill="none" stroke="#63b8ff" d="M210.61,-71.08C215.12,-64.03 221.59,-53.9 227.21,-45.08"/>
<polygon fill="#63b8ff" stroke="#63b8ff" points="230.02,-47.2 232.45,-36.88 224.12,-43.43 230.02,-47.2"/>
</a>
</g>
<g id="a_edge31&#45;headlabel"><a xlink:href="dir_000307_000571.html" target="_top" xlink:title="16">
<text text-anchor="middle" x="231.29" y="-46.6" font-family="Helvetica,sans-Serif" font-size="10.00" fill="#63b8ff">16</text>
</a>
</g>
</g>
<!-- dir_cece7c3de560cfc4de14abf3198b3696&#45;&gt;dir_9be0baa3d4a3e9f480a9ee70594037fa -->
<g id="edge29" class="edge">
<title>dir_cece7c3de560cfc4de14abf3198b3696&#45;&gt;dir_9be0baa3d4a3e9f480a9ee70594037fa</title>
<g id="a_edge29"><a xlink:href="dir_000307_000256.html" target="_top">
<path fill="none" stroke="#63b8ff" d="M216.99,-71.08C220.76,-68.45 224.99,-65.63 229,-63.25 242.76,-55.09 258.57,-47 271.95,-40.52"/>
<polygon fill="#63b8ff" stroke="#63b8ff" points="273.2,-43.8 280.71,-36.34 270.18,-37.49 273.2,-43.8"/>
</a>
</g>
<g id="a_edge29&#45;headlabel"><a xlink:href="dir_000307_000256.html" target="_top" xlink:title="2">
<text text-anchor="middle" x="272.54" y="-43.39" font-family="Helvetica,sans-Serif" font-size="10.00" fill="#63b8ff">2</text>
</a>
</g>
</g>
<!-- dir_cece7c3de560cfc4de14abf3198b3696&#45;&gt;dir_a12d8da7b0731a57c6a388326ad5e612 -->
<g id="edge30" class="edge">
<title>dir_cece7c3de560cfc4de14abf3198b3696&#45;&gt;dir_a12d8da7b0731a57c6a388326ad5e612</title>
<g id="a_edge30"><a xlink:href="dir_000307_000041.html" target="_top">
<path fill="none" stroke="#63b8ff" d="M216.24,-70.92C220.11,-68.15 224.59,-65.3 229,-63.25 268.98,-44.64 284.27,-47.85 330.1,-35.61"/>
<polygon fill="#63b8ff" stroke="#63b8ff" points="330.9,-39.02 339.59,-32.96 329.02,-32.28 330.9,-39.02"/>
</a>
</g>
<g id="a_edge30&#45;headlabel"><a xlink:href="dir_000307_000041.html" target="_top" xlink:title="1">
<text text-anchor="middle" x="329.66" y="-38.44" font-family="Helvetica,sans-Serif" font-size="10.00" fill="#63b8ff">1</text>
</a>
</g>
</g>
<!-- dir_cece7c3de560cfc4de14abf3198b3696&#45;&gt;dir_bdd9a5d540de89e9fe90efdfc6973a4f -->
<g id="edge32" class="edge">
<title>dir_cece7c3de560cfc4de14abf3198b3696&#45;&gt;dir_bdd9a5d540de89e9fe90efdfc6973a4f</title>
<g id="a_edge32"><a xlink:href="dir_000307_000046.html" target="_top">
<path fill="none" stroke="#63b8ff" d="M215.58,-70.83C219.54,-67.93 224.24,-65 229,-63.25 341.17,-21.86 381.39,-55.88 497.88,-36.41"/>
<polygon fill="#63b8ff" stroke="#63b8ff" points="498.29,-39.89 507.52,-34.69 497.06,-33 498.29,-39.89"/>
</a>
</g>
<g id="a_edge32&#45;headlabel"><a xlink:href="dir_000307_000046.html" target="_top" xlink:title="5">
<text text-anchor="middle" x="496.74" y="-39.18" font-family="Helvetica,sans-Serif" font-size="10.00" fill="#63b8ff">5</text>
</a>
</g>
</g>
</g>
</svg>

<g id="navigator" transform="translate(0 0)" fill="#404254">
  <rect fill="#f2f5e9" fill-opacity="0.5" stroke="#606060" stroke-width=".5" x="0" y="0" width="60" height="60"/>
  <use id="zoomplus" xlink:href="#zoomPlus" x="17" y="9" onmousedown="handleZoom(evt,'in')"/>
  <use id="zoomminus" xlink:href="#zoomMin" x="42" y="9" onmousedown="handleZoom(evt,'out')"/>
  <use id="reset" xlink:href="#resetDef" x="30" y="36" onmousedown="handleReset()"/>
   <use id="arrowup" xlink:href="#arrowUp" x="0" y="0" onmousedown="handlePan(0,-1)"/>
  <use id="arrowright" xlink:href="#arrowRight" x="0" y="0" onmousedown="handlePan(1,0)"/>
  <use id="arrowdown" xlink:href="#arrowDown" x="0" y="0" onmousedown="handlePan(0,1)"/>
  <use id="arrowleft" xlink:href="#arrowLeft" x="0" y="0" onmousedown="handlePan(-1,0)"/>
</g>
<svg viewBox="0 0 15 15" width="100%" height="30px" preserveAspectRatio="xMaxYMin meet">
 <g id="arrow_out" transform="scale(0.3 0.3)">
  <a xlink:href="dir_b6763ea08a8f9364194ebe3565e6b1f0_dep_org.svg" target="_base">
   <rect id="button" ry="5" rx="5" y="6" x="6" height="38" width="38"
        fill="#f2f5e9" fill-opacity="0.5" stroke="#606060" stroke-width="1.0"/>
   <path id="arrow"
     d="M 11.500037,31.436501 C 11.940474,20.09759 22.043105,11.32322 32.158766,21.979434 L 37.068811,17.246167 C 37.068811,17.246167 37.088388,32 37.088388,32 L 22.160133,31.978069 C 22.160133,31.978069 26.997745,27.140456 26.997745,27.140456 C 18.528582,18.264221 13.291696,25.230495 11.500037,31.436501 z"
     style="fill:#404040;"/>
  </a>
 </g>
</svg>

<style type='text/css'>
<![CDATA[
[data-mouse-over-selected='false'] { opacity: 0.7; }
[data-mouse-over-selected='true']  { opacity: 1.0; }
]]>
</style>
<script type="application/ecmascript"><![CDATA[
document.addEventListener('DOMContentLoaded', (event) => {
  highlightEdges();
  highlightAdjacentNodes();
});
]]></script>
</svg>
