<?xml version="1.0" encoding="UTF-8" standalone="no"?>
<!DOCTYPE svg PUBLIC "-//W3C//DTD SVG 1.1//EN"
 "http://www.w3.org/Graphics/SVG/1.1/DTD/svg11.dtd">
<!-- Generated by graphviz version 12.2.0 (20241103.1931)
 -->
<!-- Title: iop/system/vblank Pages: 1 -->
<svg width="423pt" height="181pt"
 viewBox="0.00 0.00 422.60 181.00" xmlns="http://www.w3.org/2000/svg" xmlns:xlink="http://www.w3.org/1999/xlink">
<g id="graph0" class="graph" transform="scale(1 1) rotate(0) translate(4 177)">
<title>iop/system/vblank</title>
<g id="clust1" class="cluster">
<title>clusterdir_40ac35421bc63b72c26b6c69b1517fd6</title>
<g id="a_clust1"><a xlink:href="dir_40ac35421bc63b72c26b6c69b1517fd6.html" target="_top" xlink:title="system">
<polygon fill="#deebf9" stroke="#7f7f7f" stroke-dasharray="5,2" points="8,-39.25 8,-165 403,-165 403,-39.25 8,-39.25"/>
<text text-anchor="middle" x="205.5" y="-151.5" font-family="Helvetica,sans-Serif" font-size="10.00">system</text>
</a>
</g>
</g>
<g id="clust2" class="cluster">
<title>clusterdir_60f7c75aab99249ed9879339d7562ada</title>
<g id="a_clust2"><a xlink:href="dir_60f7c75aab99249ed9879339d7562ada.html" target="_top">
<polygon fill="#deebf9" stroke="#404040" stroke-width="2" points="16,-47.25 16,-137.75 124,-137.75 124,-47.25 16,-47.25"/>
</a>
</g>
</g>
<!-- dir_1bd32d4ef826aeeda00870843eb45c97 -->
<g id="node1" class="node">
<title>dir_1bd32d4ef826aeeda00870843eb45c97</title>
<g id="a_node1"><a xlink:href="dir_1bd32d4ef826aeeda00870843eb45c97.html" target="_top" xlink:title="sysclib">
<polygon fill="#60a2e3" stroke="red" points="178,-74.5 132,-74.5 132,-55.25 178,-55.25 178,-74.5"/>
<text text-anchor="middle" x="155" y="-61" font-family="Helvetica,sans-Serif" font-size="10.00">sysclib</text>
</a>
</g>
</g>
<!-- dir_1d64e5e9f20206636d72b5bbe3d2b274 -->
<g id="node2" class="node">
<title>dir_1d64e5e9f20206636d72b5bbe3d2b274</title>
<g id="a_node2"><a xlink:href="dir_1d64e5e9f20206636d72b5bbe3d2b274.html" target="_top" xlink:title="loadcore">
<polygon fill="#60a2e3" stroke="red" points="248.38,-74.5 195.62,-74.5 195.62,-55.25 248.38,-55.25 248.38,-74.5"/>
<text text-anchor="middle" x="222" y="-61" font-family="Helvetica,sans-Serif" font-size="10.00">loadcore</text>
</a>
</g>
</g>
<!-- dir_7422a0894415a12ccd1d562a8ad09f2d -->
<g id="node3" class="node">
<title>dir_7422a0894415a12ccd1d562a8ad09f2d</title>
<g id="a_node3"><a xlink:href="dir_7422a0894415a12ccd1d562a8ad09f2d.html" target="_top" xlink:title="intrman">
<polygon fill="#60a2e3" stroke="red" points="315.12,-74.5 266.88,-74.5 266.88,-55.25 315.12,-55.25 315.12,-74.5"/>
<text text-anchor="middle" x="291" y="-61" font-family="Helvetica,sans-Serif" font-size="10.00">intrman</text>
</a>
</g>
</g>
<!-- dir_d3b40e87d731c1e886b7a70e6daaf700 -->
<g id="node4" class="node">
<title>dir_d3b40e87d731c1e886b7a70e6daaf700</title>
<g id="a_node4"><a xlink:href="dir_d3b40e87d731c1e886b7a70e6daaf700.html" target="_top" xlink:title="threadman">
<polygon fill="#60a2e3" stroke="red" points="394.88,-74.5 333.12,-74.5 333.12,-55.25 394.88,-55.25 394.88,-74.5"/>
<text text-anchor="middle" x="364" y="-61" font-family="Helvetica,sans-Serif" font-size="10.00">threadman</text>
</a>
</g>
</g>
<!-- dir_60f7c75aab99249ed9879339d7562ada -->
<g id="node5" class="node">
<title>dir_60f7c75aab99249ed9879339d7562ada</title>
<text text-anchor="middle" x="46" y="-116.25" font-family="Helvetica,sans-Serif" font-size="10.00">vblank</text>
</g>
<!-- dir_99cace3514b50ba2406a70ad1e94d391 -->
<g id="node6" class="node">
<title>dir_99cace3514b50ba2406a70ad1e94d391</title>
<g id="a_node6"><a xlink:href="dir_99cace3514b50ba2406a70ad1e94d391.html" target="_top" xlink:title="include">
<polygon fill="#60a2e3" stroke="#404040" points="114.38,-74.5 67.62,-74.5 67.62,-55.25 114.38,-55.25 114.38,-74.5"/>
<text text-anchor="middle" x="91" y="-61" font-family="Helvetica,sans-Serif" font-size="10.00">include</text>
</a>
</g>
</g>
<!-- dir_9be0baa3d4a3e9f480a9ee70594037fa -->
<g id="node8" class="node">
<title>dir_9be0baa3d4a3e9f480a9ee70594037fa</title>
<g id="a_node8"><a xlink:href="dir_9be0baa3d4a3e9f480a9ee70594037fa.html" target="_top" xlink:title="kernel">
<polygon fill="#deebf9" stroke="red" stroke-dasharray="5,2" points="278.12,-19.25 235.88,-19.25 235.88,0 278.12,0 278.12,-19.25"/>
<text text-anchor="middle" x="257" y="-5.75" font-family="Helvetica,sans-Serif" font-size="10.00">kernel</text>
</a>
</g>
</g>
<!-- dir_99cace3514b50ba2406a70ad1e94d391&#45;&gt;dir_9be0baa3d4a3e9f480a9ee70594037fa -->
<g id="edge1" class="edge">
<title>dir_99cace3514b50ba2406a70ad1e94d391&#45;&gt;dir_9be0baa3d4a3e9f480a9ee70594037fa</title>
<g id="a_edge1"><a xlink:href="dir_000234_000256.html" target="_top">
<path fill="none" stroke="#63b8ff" d="M98.62,-54.82C103.59,-49.48 110.54,-43.05 118,-39.25 151.77,-22.04 195.13,-15.18 224.38,-12.44"/>
<polygon fill="#63b8ff" stroke="#63b8ff" points="224.41,-15.95 234.09,-11.65 223.84,-8.97 224.41,-15.95"/>
</a>
</g>
<g id="a_edge1&#45;headlabel"><a xlink:href="dir_000234_000256.html" target="_top" xlink:title="1">
<text text-anchor="middle" x="222.56" y="-15.08" font-family="Helvetica,sans-Serif" font-size="10.00" fill="#63b8ff">1</text>
</a>
</g>
</g>
<!-- dir_f877eea6f4a67835df99bf91eacfa5d8 -->
<g id="node7" class="node">
<title>dir_f877eea6f4a67835df99bf91eacfa5d8</title>
<g id="a_node7"><a xlink:href="dir_f877eea6f4a67835df99bf91eacfa5d8.html" target="_top" xlink:title="src">
<polygon fill="#60a2e3" stroke="#404040" points="115.75,-129.75 86.25,-129.75 86.25,-110.5 115.75,-110.5 115.75,-129.75"/>
<text text-anchor="middle" x="101" y="-116.25" font-family="Helvetica,sans-Serif" font-size="10.00">src</text>
</a>
</g>
</g>
<!-- dir_f877eea6f4a67835df99bf91eacfa5d8&#45;&gt;dir_1bd32d4ef826aeeda00870843eb45c97 -->
<g id="edge2" class="edge">
<title>dir_f877eea6f4a67835df99bf91eacfa5d8&#45;&gt;dir_1bd32d4ef826aeeda00870843eb45c97</title>
<g id="a_edge2"><a xlink:href="dir_000539_000569.html" target="_top">
<path fill="none" stroke="#63b8ff" d="M109.92,-110.33C117.45,-102.9 128.47,-92.04 137.73,-82.91"/>
<polygon fill="#63b8ff" stroke="#63b8ff" points="140.15,-85.44 144.81,-75.92 135.23,-80.45 140.15,-85.44"/>
</a>
</g>
<g id="a_edge2&#45;headlabel"><a xlink:href="dir_000539_000569.html" target="_top" xlink:title="1">
<text text-anchor="middle" x="140.66" y="-85.04" font-family="Helvetica,sans-Serif" font-size="10.00" fill="#63b8ff">1</text>
</a>
</g>
</g>
<!-- dir_f877eea6f4a67835df99bf91eacfa5d8&#45;&gt;dir_1d64e5e9f20206636d72b5bbe3d2b274 -->
<g id="edge3" class="edge">
<title>dir_f877eea6f4a67835df99bf91eacfa5d8&#45;&gt;dir_1d64e5e9f20206636d72b5bbe3d2b274</title>
<g id="a_edge3"><a xlink:href="dir_000539_000272.html" target="_top">
<path fill="none" stroke="#63b8ff" d="M115.84,-112.6C134.44,-104.41 166.83,-90.16 190.95,-79.54"/>
<polygon fill="#63b8ff" stroke="#63b8ff" points="192.24,-82.79 199.99,-75.56 189.42,-76.39 192.24,-82.79"/>
</a>
</g>
<g id="a_edge3&#45;headlabel"><a xlink:href="dir_000539_000272.html" target="_top" xlink:title="1">
<text text-anchor="middle" x="191.48" y="-82.36" font-family="Helvetica,sans-Serif" font-size="10.00" fill="#63b8ff">1</text>
</a>
</g>
</g>
<!-- dir_f877eea6f4a67835df99bf91eacfa5d8&#45;&gt;dir_7422a0894415a12ccd1d562a8ad09f2d -->
<g id="edge4" class="edge">
<title>dir_f877eea6f4a67835df99bf91eacfa5d8&#45;&gt;dir_7422a0894415a12ccd1d562a8ad09f2d</title>
<g id="a_edge4"><a xlink:href="dir_000539_000246.html" target="_top">
<path fill="none" stroke="#63b8ff" d="M116.23,-114.86C146.25,-106.44 213.79,-87.51 255.57,-75.81"/>
<polygon fill="#63b8ff" stroke="#63b8ff" points="256.47,-79.19 265.16,-73.12 254.58,-72.45 256.47,-79.19"/>
</a>
</g>
<g id="a_edge4&#45;headlabel"><a xlink:href="dir_000539_000246.html" target="_top" xlink:title="1">
<text text-anchor="middle" x="255.23" y="-78.61" font-family="Helvetica,sans-Serif" font-size="10.00" fill="#63b8ff">1</text>
</a>
</g>
</g>
<!-- dir_f877eea6f4a67835df99bf91eacfa5d8&#45;&gt;dir_d3b40e87d731c1e886b7a70e6daaf700 -->
<g id="edge7" class="edge">
<title>dir_f877eea6f4a67835df99bf91eacfa5d8&#45;&gt;dir_d3b40e87d731c1e886b7a70e6daaf700</title>
<g id="a_edge7"><a xlink:href="dir_000539_000580.html" target="_top">
<path fill="none" stroke="#63b8ff" d="M116.16,-116.17C150.66,-109.43 237.97,-92.29 321.74,-74.94"/>
<polygon fill="#63b8ff" stroke="#63b8ff" points="322.44,-78.37 331.52,-72.91 321.02,-71.52 322.44,-78.37"/>
</a>
</g>
<g id="a_edge7&#45;headlabel"><a xlink:href="dir_000539_000580.html" target="_top" xlink:title="2">
<text text-anchor="middle" x="320.98" y="-77.7" font-family="Helvetica,sans-Serif" font-size="10.00" fill="#63b8ff">2</text>
</a>
</g>
</g>
<!-- dir_f877eea6f4a67835df99bf91eacfa5d8&#45;&gt;dir_99cace3514b50ba2406a70ad1e94d391 -->
<g id="edge5" class="edge">
<title>dir_f877eea6f4a67835df99bf91eacfa5d8&#45;&gt;dir_99cace3514b50ba2406a70ad1e94d391</title>
<g id="a_edge5"><a xlink:href="dir_000539_000234.html" target="_top">
<path fill="none" stroke="#63b8ff" d="M99.35,-110.33C98.11,-103.74 96.37,-94.46 94.79,-86.07"/>
<polygon fill="#63b8ff" stroke="#63b8ff" points="98.25,-85.53 92.97,-76.35 91.37,-86.82 98.25,-85.53"/>
</a>
</g>
<g id="a_edge5&#45;headlabel"><a xlink:href="dir_000539_000234.html" target="_top" xlink:title="1">
<text text-anchor="middle" x="101.43" y="-83.18" font-family="Helvetica,sans-Serif" font-size="10.00" fill="#63b8ff">1</text>
</a>
</g>
</g>
<!-- dir_f877eea6f4a67835df99bf91eacfa5d8&#45;&gt;dir_9be0baa3d4a3e9f480a9ee70594037fa -->
<g id="edge6" class="edge">
<title>dir_f877eea6f4a67835df99bf91eacfa5d8&#45;&gt;dir_9be0baa3d4a3e9f480a9ee70594037fa</title>
<g id="a_edge6"><a xlink:href="dir_000539_000256.html" target="_top">
<path fill="none" stroke="#63b8ff" d="M115.92,-119.38C171.95,-120.01 368.55,-118.97 407,-74.5 417.25,-62.65 416.99,-51.32 407,-39.25 392.45,-21.66 329.61,-14.78 290.03,-12.17"/>
<polygon fill="#63b8ff" stroke="#63b8ff" points="290.27,-8.67 280.08,-11.57 289.85,-15.66 290.27,-8.67"/>
</a>
</g>
<g id="a_edge6&#45;headlabel"><a xlink:href="dir_000539_000256.html" target="_top" xlink:title="2">
<text text-anchor="middle" x="292.52" y="-2.09" font-family="Helvetica,sans-Serif" font-size="10.00" fill="#63b8ff">2</text>
</a>
</g>
</g>
</g>
</svg>
