<?xml version="1.0" encoding="UTF-8" standalone="no"?>
<!DOCTYPE svg PUBLIC "-//W3C//DTD SVG 1.1//EN"
 "http://www.w3.org/Graphics/SVG/1.1/DTD/svg11.dtd">
<!-- Generated by graphviz version 2.44.0 ()
 -->
<!-- Title: ee/packet Pages: 1 -->
<svg width="244pt" height="231pt"
 viewBox="0.00 0.00 244.00 231.00" xmlns="http://www.w3.org/2000/svg" xmlns:xlink="http://www.w3.org/1999/xlink">
<g id="graph0" class="graph" transform="scale(1 1) rotate(0) translate(4 227)">
<title>ee/packet</title>
<polygon fill="white" stroke="transparent" points="-4,4 -4,-227 240,-227 240,4 -4,4"/>
<g id="clust1" class="cluster">
<title>clusterdir_049738f1909e8dc3e45fe1f6b3faa109</title>
<g id="a_clust1"><a xlink:href="dir_049738f1909e8dc3e45fe1f6b3faa109.html" target="_top" xlink:title="ee">
<polygon fill="#ddddee" stroke="black" points="8,-56 8,-215 228,-215 228,-56 8,-56"/>
<text text-anchor="middle" x="118" y="-203" font-family="Helvetica,sans-Serif" font-size="10.00">ee</text>
</a>
</g>
</g>
<g id="clust2" class="cluster">
<title>clusterdir_ef7db18cfb93c4891bb35babb04f0d85</title>
<g id="a_clust2"><a xlink:href="dir_ef7db18cfb93c4891bb35babb04f0d85.html" target="_top">
<polygon fill="#eeeeff" stroke="black" points="16,-64 16,-188 158,-188 158,-64 16,-64"/>
</a>
</g>
</g>
<!-- dir_a0a8ac7efb6662b749c1285408048e6d -->
<g id="node1" class="node">
<title>dir_a0a8ac7efb6662b749c1285408048e6d</title>
<g id="a_node1"><a xlink:href="dir_a0a8ac7efb6662b749c1285408048e6d.html" target="_top" xlink:title="erl">
<polygon fill="white" stroke="red" points="220,-108 166,-108 166,-72 220,-72 220,-108"/>
<text text-anchor="middle" x="193" y="-87.5" font-family="Helvetica,sans-Serif" font-size="10.00">erl</text>
</a>
</g>
</g>
<!-- dir_bdd9a5d540de89e9fe90efdfc6973a4f -->
<g id="node5" class="node">
<title>dir_bdd9a5d540de89e9fe90efdfc6973a4f</title>
<g id="a_node5"><a xlink:href="dir_bdd9a5d540de89e9fe90efdfc6973a4f.html" target="_top" xlink:title="common">
<polygon fill="white" stroke="red" points="166,-36 112,-36 112,0 166,0 166,-36"/>
<text text-anchor="middle" x="139" y="-15.5" font-family="Helvetica,sans-Serif" font-size="10.00">common</text>
</a>
</g>
</g>
<!-- dir_a0a8ac7efb6662b749c1285408048e6d&#45;&gt;dir_bdd9a5d540de89e9fe90efdfc6973a4f -->
<g id="edge1" class="edge">
<title>dir_a0a8ac7efb6662b749c1285408048e6d&#45;&gt;dir_bdd9a5d540de89e9fe90efdfc6973a4f</title>
<path fill="none" stroke="black" d="M179.65,-71.7C173.24,-63.39 165.44,-53.28 158.39,-44.14"/>
<polygon fill="black" stroke="black" points="161.07,-41.88 152.19,-36.1 155.53,-46.16 161.07,-41.88"/>
<g id="a_edge1&#45;headlabel"><a xlink:href="dir_000206_000000.html" target="_top" xlink:title="1">
<text text-anchor="middle" x="165.52" y="-40.5" font-family="Helvetica,sans-Serif" font-size="10.00">1</text>
</a>
</g>
</g>
<!-- dir_ef7db18cfb93c4891bb35babb04f0d85 -->
<g id="node2" class="node">
<title>dir_ef7db18cfb93c4891bb35babb04f0d85</title>
<text text-anchor="middle" x="123" y="-159.5" font-family="Helvetica,sans-Serif" font-size="10.00">packet</text>
</g>
<!-- dir_045af3c93ddda0c519219edb2a8fe08a -->
<g id="node3" class="node">
<title>dir_045af3c93ddda0c519219edb2a8fe08a</title>
<g id="a_node3"><a xlink:href="dir_045af3c93ddda0c519219edb2a8fe08a.html" target="_top" xlink:title="include">
<polygon fill="white" stroke="black" points="113,-108 59,-108 59,-72 113,-72 113,-108"/>
<text text-anchor="middle" x="86" y="-87.5" font-family="Helvetica,sans-Serif" font-size="10.00">include</text>
</a>
</g>
</g>
<!-- dir_045af3c93ddda0c519219edb2a8fe08a&#45;&gt;dir_bdd9a5d540de89e9fe90efdfc6973a4f -->
<g id="edge2" class="edge">
<title>dir_045af3c93ddda0c519219edb2a8fe08a&#45;&gt;dir_bdd9a5d540de89e9fe90efdfc6973a4f</title>
<path fill="none" stroke="black" d="M99.1,-71.7C105.39,-63.39 113.05,-53.28 119.96,-44.14"/>
<polygon fill="black" stroke="black" points="122.8,-46.19 126.05,-36.1 117.22,-41.96 122.8,-46.19"/>
<g id="a_edge2&#45;headlabel"><a xlink:href="dir_000238_000000.html" target="_top" xlink:title="1">
<text text-anchor="middle" x="122.9" y="-48.27" font-family="Helvetica,sans-Serif" font-size="10.00">1</text>
</a>
</g>
</g>
<!-- dir_877a24e332e8fb1301c97400aa573f28 -->
<g id="node4" class="node">
<title>dir_877a24e332e8fb1301c97400aa573f28</title>
<g id="a_node4"><a xlink:href="dir_877a24e332e8fb1301c97400aa573f28.html" target="_top" xlink:title="src">
<polygon fill="white" stroke="black" points="78,-180 24,-180 24,-144 78,-144 78,-180"/>
<text text-anchor="middle" x="51" y="-159.5" font-family="Helvetica,sans-Serif" font-size="10.00">src</text>
</a>
</g>
</g>
<!-- dir_877a24e332e8fb1301c97400aa573f28&#45;&gt;dir_a0a8ac7efb6662b749c1285408048e6d -->
<g id="edge4" class="edge">
<title>dir_877a24e332e8fb1301c97400aa573f28&#45;&gt;dir_a0a8ac7efb6662b749c1285408048e6d</title>
<path fill="none" stroke="black" d="M78.23,-148.1C103.13,-136.28 138.45,-119.49 156.82,-110.49"/>
<polygon fill="black" stroke="black" points="158.61,-113.52 166,-105.92 155.48,-107.25 158.61,-113.52"/>
<g id="a_edge4&#45;headlabel"><a xlink:href="dir_000159_000206.html" target="_top" xlink:title="1">
<text text-anchor="middle" x="156.65" y="-115.16" font-family="Helvetica,sans-Serif" font-size="10.00">1</text>
</a>
</g>
</g>
<!-- dir_877a24e332e8fb1301c97400aa573f28&#45;&gt;dir_045af3c93ddda0c519219edb2a8fe08a -->
<g id="edge3" class="edge">
<title>dir_877a24e332e8fb1301c97400aa573f28&#45;&gt;dir_045af3c93ddda0c519219edb2a8fe08a</title>
<path fill="none" stroke="black" d="M59.65,-143.7C63.64,-135.73 68.45,-126.1 72.87,-117.26"/>
<polygon fill="black" stroke="black" points="76.11,-118.61 77.45,-108.1 69.85,-115.48 76.11,-118.61"/>
<g id="a_edge3&#45;headlabel"><a xlink:href="dir_000159_000238.html" target="_top" xlink:title="1">
<text text-anchor="middle" x="77.04" y="-120.6" font-family="Helvetica,sans-Serif" font-size="10.00">1</text>
</a>
</g>
</g>
</g>
</svg>
