<?xml version="1.0" encoding="UTF-8" standalone="no"?>
<!DOCTYPE svg PUBLIC "-//W3C//DTD SVG 1.1//EN"
 "http://www.w3.org/Graphics/SVG/1.1/DTD/svg11.dtd">
<!-- Generated by graphviz version 12.2.0 (20241103.1931)
 -->
<!-- Title: iop/system/igreeting Pages: 1 -->
<!--zoomable 142 -->

<svg id="main" version="1.1" xmlns="http://www.w3.org/2000/svg" xmlns:xlink="http://www.w3.org/1999/xlink" xml:space="preserve" onload="init(evt)">

<style type="text/css"><![CDATA[
.node, .edge {opacity: 0.7;}
.node.selected, .edge.selected {opacity: 1;}
.edge:hover path { stroke: red; }
.edge:hover polygon { stroke: red; fill: red; }
]]></style>

<defs>
  <circle id="rim" cx="0" cy="0" r="7"/>
  <circle id="rim2" cx="0" cy="0" r="3.5"/>
  <g id="zoomPlus">
    <use xlink:href="#rim" fill="#404040"><set attributeName="fill" to="#808080" begin="zoomplus.mouseover" end="zoomplus.mouseout"/></use>
    <path d="M-4,0h8M0,-4v8" fill="none" stroke="white" stroke-width="1.5" pointer-events="none"/>
  </g>
  <g id="zoomMin">
    <use xlink:href="#rim" fill="#404040"><set attributeName="fill" to="#808080" begin="zoomminus.mouseover" end="zoomminus.mouseout"/></use>
    <path d="M-4,0h8" fill="none" stroke="white" stroke-width="1.5" pointer-events="none"/>
  </g>
  <g id="arrowUp" transform="translate(30 24)">
    <use xlink:href="#rim"/>
    <path pointer-events="none" fill="none" stroke="white" stroke-width="1.5" d="M0,-3.0v7 M-2.5,-0.5L0,-3.0L2.5,-0.5"/>
  </g>
  <g id="arrowRight" transform="rotate(90) translate(36 -43)">
    <use xlink:href="#rim"/>
    <path pointer-events="none" fill="none" stroke="white" stroke-width="1.5" d="M0,-3.0v7 M-2.5,-0.5L0,-3.0L2.5,-0.5"/>
  </g>
  <g id="arrowDown" transform="rotate(180) translate(-30 -48)">
    <use xlink:href="#rim"/>
    <path pointer-events="none" fill="none" stroke="white" stroke-width="1.5" d="M0,-3.0v7 M-2.5,-0.5L0,-3.0L2.5,-0.5"/>
  </g>
  <g id="arrowLeft" transform="rotate(270) translate(-36 17)">
    <use xlink:href="#rim"/>
    <path pointer-events="none" fill="none" stroke="white" stroke-width="1.5" d="M0,-3.0v7 M-2.5,-0.5L0,-3.0L2.5,-0.5"/>
  </g>
  <g id="resetDef">
    <use xlink:href="#rim2" fill="#404040"><set attributeName="fill" to="#808080" begin="reset.mouseover" end="reset.mouseout"/></use>
  </g>
</defs>
<script type="application/ecmascript">
var viewWidth = 525;
var viewHeight = 142;
var sectionId = 'dynsection-0';
</script>
<script type="application/ecmascript" xlink:href="svg.min.js"/>
<svg id="graph" class="graph">
<g id="viewport">
<title>iop/system/igreeting</title>
<g id="clust1" class="cluster">
<title>clusterdir_40ac35421bc63b72c26b6c69b1517fd6</title>
<g id="a_clust1"><a xlink:href="dir_40ac35421bc63b72c26b6c69b1517fd6.html" target="_top" xlink:title="system">
<polygon fill="#deebf9" stroke="#7f7f7f" stroke-dasharray="5,2" points="8,-8 8,-125.75 393,-125.75 393,-8 8,-8"/>
<text text-anchor="middle" x="200.5" y="-112.25" font-family="Helvetica,sans-Serif" font-size="10.00">system</text>
</a>
</g>
</g>
<g id="clust2" class="cluster">
<title>clusterdir_01d758e74f9dc999d6afb4cc0aea262a</title>
<g id="a_clust2"><a xlink:href="dir_01d758e74f9dc999d6afb4cc0aea262a.html" target="_top">
<polygon fill="#deebf9" stroke="#404040" stroke-width="2" points="169,-63.25 169,-98.5 285,-98.5 285,-63.25 169,-63.25"/>
</a>
</g>
</g>
<!-- dir_7422a0894415a12ccd1d562a8ad09f2d -->
<g id="node1" class="node">
<title>dir_7422a0894415a12ccd1d562a8ad09f2d</title>
<g id="a_node1"><a xlink:href="dir_7422a0894415a12ccd1d562a8ad09f2d.html" target="_top" xlink:title="intrman">
<polygon fill="#60a2e3" stroke="red" points="64.12,-35.25 15.88,-35.25 15.88,-16 64.12,-16 64.12,-35.25"/>
<text text-anchor="middle" x="40" y="-21.75" font-family="Helvetica,sans-Serif" font-size="10.00">intrman</text>
</a>
</g>
</g>
<!-- dir_d204d0cf134f4cdf6ccf23f48ed9ae60 -->
<g id="node2" class="node">
<title>dir_d204d0cf134f4cdf6ccf23f48ed9ae60</title>
<g id="a_node2"><a xlink:href="dir_d204d0cf134f4cdf6ccf23f48ed9ae60.html" target="_top" xlink:title="ioman">
<polygon fill="#60a2e3" stroke="red" points="124.12,-35.25 81.88,-35.25 81.88,-16 124.12,-16 124.12,-35.25"/>
<text text-anchor="middle" x="103" y="-21.75" font-family="Helvetica,sans-Serif" font-size="10.00">ioman</text>
</a>
</g>
</g>
<!-- dir_1d64e5e9f20206636d72b5bbe3d2b274 -->
<g id="node3" class="node">
<title>dir_1d64e5e9f20206636d72b5bbe3d2b274</title>
<g id="a_node3"><a xlink:href="dir_1d64e5e9f20206636d72b5bbe3d2b274.html" target="_top" xlink:title="loadcore">
<polygon fill="#60a2e3" stroke="red" points="195.38,-35.25 142.62,-35.25 142.62,-16 195.38,-16 195.38,-35.25"/>
<text text-anchor="middle" x="169" y="-21.75" font-family="Helvetica,sans-Serif" font-size="10.00">loadcore</text>
</a>
</g>
</g>
<!-- dir_952a988346c879bc3b2834e2377036db -->
<g id="node4" class="node">
<title>dir_952a988346c879bc3b2834e2377036db</title>
<g id="a_node4"><a xlink:href="dir_952a988346c879bc3b2834e2377036db.html" target="_top" xlink:title="stdio">
<polygon fill="#60a2e3" stroke="red" points="250.5,-35.25 213.5,-35.25 213.5,-16 250.5,-16 250.5,-35.25"/>
<text text-anchor="middle" x="232" y="-21.75" font-family="Helvetica,sans-Serif" font-size="10.00">stdio</text>
</a>
</g>
</g>
<!-- dir_1bd32d4ef826aeeda00870843eb45c97 -->
<g id="node5" class="node">
<title>dir_1bd32d4ef826aeeda00870843eb45c97</title>
<g id="a_node5"><a xlink:href="dir_1bd32d4ef826aeeda00870843eb45c97.html" target="_top" xlink:title="sysclib">
<polygon fill="#60a2e3" stroke="red" points="315,-35.25 269,-35.25 269,-16 315,-16 315,-35.25"/>
<text text-anchor="middle" x="292" y="-21.75" font-family="Helvetica,sans-Serif" font-size="10.00">sysclib</text>
</a>
</g>
</g>
<!-- dir_44719da65bb992f08c8ee8632a1136c7 -->
<g id="node6" class="node">
<title>dir_44719da65bb992f08c8ee8632a1136c7</title>
<g id="a_node6"><a xlink:href="dir_44719da65bb992f08c8ee8632a1136c7.html" target="_top" xlink:title="sysmem">
<polygon fill="#60a2e3" stroke="red" points="385.38,-35.25 332.62,-35.25 332.62,-16 385.38,-16 385.38,-35.25"/>
<text text-anchor="middle" x="359" y="-21.75" font-family="Helvetica,sans-Serif" font-size="10.00">sysmem</text>
</a>
</g>
</g>
<!-- dir_01d758e74f9dc999d6afb4cc0aea262a -->
<g id="node7" class="node">
<title>dir_01d758e74f9dc999d6afb4cc0aea262a</title>
<text text-anchor="middle" x="203" y="-77" font-family="Helvetica,sans-Serif" font-size="10.00">igreeting</text>
</g>
<!-- dir_a7a4ee9224592e8b230e4c752a3af655 -->
<g id="node8" class="node">
<title>dir_a7a4ee9224592e8b230e4c752a3af655</title>
<g id="a_node8"><a xlink:href="dir_a7a4ee9224592e8b230e4c752a3af655.html" target="_top" xlink:title="src">
<polygon fill="#60a2e3" stroke="#404040" points="276.75,-90.5 247.25,-90.5 247.25,-71.25 276.75,-71.25 276.75,-90.5"/>
<text text-anchor="middle" x="262" y="-77" font-family="Helvetica,sans-Serif" font-size="10.00">src</text>
</a>
</g>
</g>
<!-- dir_a7a4ee9224592e8b230e4c752a3af655&#45;&gt;dir_7422a0894415a12ccd1d562a8ad09f2d -->
<g id="edge4" class="edge">
<title>dir_a7a4ee9224592e8b230e4c752a3af655&#45;&gt;dir_7422a0894415a12ccd1d562a8ad09f2d</title>
<g id="a_edge4"><a xlink:href="dir_000512_000246.html" target="_top">
<path fill="none" stroke="#63b8ff" d="M251.35,-71.01C247.38,-68.12 242.69,-65.16 238,-63.25 172.35,-36.5 148.01,-49.51 75.51,-35.54"/>
<polygon fill="#63b8ff" stroke="#63b8ff" points="76.43,-32.15 65.93,-33.57 75.03,-39.01 76.43,-32.15"/>
</a>
</g>
<g id="a_edge4&#45;headlabel"><a xlink:href="dir_000512_000246.html" target="_top" xlink:title="1">
<text text-anchor="middle" x="79.04" y="-25.91" font-family="Helvetica,sans-Serif" font-size="10.00" fill="#63b8ff">1</text>
</a>
</g>
</g>
<!-- dir_a7a4ee9224592e8b230e4c752a3af655&#45;&gt;dir_d204d0cf134f4cdf6ccf23f48ed9ae60 -->
<g id="edge8" class="edge">
<title>dir_a7a4ee9224592e8b230e4c752a3af655&#45;&gt;dir_d204d0cf134f4cdf6ccf23f48ed9ae60</title>
<g id="a_edge8"><a xlink:href="dir_000512_000247.html" target="_top">
<path fill="none" stroke="#63b8ff" d="M250.77,-70.91C246.89,-68.15 242.41,-65.3 238,-63.25 197.55,-44.48 182.28,-47.35 135.23,-35.46"/>
<polygon fill="#63b8ff" stroke="#63b8ff" points="136.36,-32.14 125.8,-32.97 134.58,-38.91 136.36,-32.14"/>
</a>
</g>
<g id="a_edge8&#45;headlabel"><a xlink:href="dir_000512_000247.html" target="_top" xlink:title="1">
<text text-anchor="middle" x="139.1" y="-26.05" font-family="Helvetica,sans-Serif" font-size="10.00" fill="#63b8ff">1</text>
</a>
</g>
</g>
<!-- dir_a7a4ee9224592e8b230e4c752a3af655&#45;&gt;dir_1d64e5e9f20206636d72b5bbe3d2b274 -->
<g id="edge2" class="edge">
<title>dir_a7a4ee9224592e8b230e4c752a3af655&#45;&gt;dir_1d64e5e9f20206636d72b5bbe3d2b274</title>
<g id="a_edge2"><a xlink:href="dir_000512_000272.html" target="_top">
<path fill="none" stroke="#63b8ff" d="M249.48,-70.79C245.84,-68.26 241.81,-65.57 238,-63.25 224.97,-55.32 210.06,-47.28 197.45,-40.77"/>
<polygon fill="#63b8ff" stroke="#63b8ff" points="199.33,-37.8 188.83,-36.38 196.16,-44.04 199.33,-37.8"/>
</a>
</g>
<g id="a_edge2&#45;headlabel"><a xlink:href="dir_000512_000272.html" target="_top" xlink:title="1">
<text text-anchor="middle" x="202.48" y="-32.34" font-family="Helvetica,sans-Serif" font-size="10.00" fill="#63b8ff">1</text>
</a>
</g>
</g>
<!-- dir_a7a4ee9224592e8b230e4c752a3af655&#45;&gt;dir_952a988346c879bc3b2834e2377036db -->
<g id="edge5" class="edge">
<title>dir_a7a4ee9224592e8b230e4c752a3af655&#45;&gt;dir_952a988346c879bc3b2834e2377036db</title>
<g id="a_edge5"><a xlink:href="dir_000512_000562.html" target="_top">
<path fill="none" stroke="#63b8ff" d="M257.05,-71.08C253.12,-64.11 247.49,-54.12 242.56,-45.37"/>
<polygon fill="#63b8ff" stroke="#63b8ff" points="245.76,-43.92 237.8,-36.93 239.66,-47.36 245.76,-43.92"/>
</a>
</g>
<g id="a_edge5&#45;headlabel"><a xlink:href="dir_000512_000562.html" target="_top" xlink:title="1">
<text text-anchor="middle" x="249.26" y="-40.47" font-family="Helvetica,sans-Serif" font-size="10.00" fill="#63b8ff">1</text>
</a>
</g>
</g>
<!-- dir_a7a4ee9224592e8b230e4c752a3af655&#45;&gt;dir_1bd32d4ef826aeeda00870843eb45c97 -->
<g id="edge1" class="edge">
<title>dir_a7a4ee9224592e8b230e4c752a3af655&#45;&gt;dir_1bd32d4ef826aeeda00870843eb45c97</title>
<g id="a_edge1"><a xlink:href="dir_000512_000569.html" target="_top">
<path fill="none" stroke="#63b8ff" d="M266.95,-71.08C270.88,-64.11 276.51,-54.12 281.44,-45.37"/>
<polygon fill="#63b8ff" stroke="#63b8ff" points="284.34,-47.36 286.2,-36.93 278.24,-43.92 284.34,-47.36"/>
</a>
</g>
<g id="a_edge1&#45;headlabel"><a xlink:href="dir_000512_000569.html" target="_top" xlink:title="1">
<text text-anchor="middle" x="285.79" y="-46.69" font-family="Helvetica,sans-Serif" font-size="10.00" fill="#63b8ff">1</text>
</a>
</g>
</g>
<!-- dir_a7a4ee9224592e8b230e4c752a3af655&#45;&gt;dir_44719da65bb992f08c8ee8632a1136c7 -->
<g id="edge3" class="edge">
<title>dir_a7a4ee9224592e8b230e4c752a3af655&#45;&gt;dir_44719da65bb992f08c8ee8632a1136c7</title>
<g id="a_edge3"><a xlink:href="dir_000512_000570.html" target="_top">
<path fill="none" stroke="#63b8ff" d="M277.16,-71.55C291.96,-63.43 314.81,-50.88 332.6,-41.12"/>
<polygon fill="#63b8ff" stroke="#63b8ff" points="334.25,-44.21 341.33,-36.33 330.88,-38.07 334.25,-44.21"/>
</a>
</g>
<g id="a_edge3&#45;headlabel"><a xlink:href="dir_000512_000570.html" target="_top" xlink:title="1">
<text text-anchor="middle" x="333.79" y="-43.82" font-family="Helvetica,sans-Serif" font-size="10.00" fill="#63b8ff">1</text>
</a>
</g>
</g>
<!-- dir_bdd9a5d540de89e9fe90efdfc6973a4f -->
<g id="node9" class="node">
<title>dir_bdd9a5d540de89e9fe90efdfc6973a4f</title>
<g id="a_node9"><a xlink:href="dir_bdd9a5d540de89e9fe90efdfc6973a4f.html" target="_top" xlink:title="common">
<polygon fill="#deebf9" stroke="red" points="456.75,-35.25 403.25,-35.25 403.25,-16 456.75,-16 456.75,-35.25"/>
<text text-anchor="middle" x="430" y="-21.75" font-family="Helvetica,sans-Serif" font-size="10.00">common</text>
</a>
</g>
</g>
<!-- dir_a7a4ee9224592e8b230e4c752a3af655&#45;&gt;dir_bdd9a5d540de89e9fe90efdfc6973a4f -->
<g id="edge7" class="edge">
<title>dir_a7a4ee9224592e8b230e4c752a3af655&#45;&gt;dir_bdd9a5d540de89e9fe90efdfc6973a4f</title>
<g id="a_edge7"><a xlink:href="dir_000512_000046.html" target="_top">
<path fill="none" stroke="#63b8ff" d="M277.21,-75.06C302.97,-66.89 355.94,-50.1 392.22,-38.6"/>
<polygon fill="#63b8ff" stroke="#63b8ff" points="392.97,-42.03 401.45,-35.67 390.86,-35.36 392.97,-42.03"/>
</a>
</g>
<g id="a_edge7&#45;headlabel"><a xlink:href="dir_000512_000046.html" target="_top" xlink:title="2">
<text text-anchor="middle" x="391.85" y="-41.49" font-family="Helvetica,sans-Serif" font-size="10.00" fill="#63b8ff">2</text>
</a>
</g>
</g>
<!-- dir_9be0baa3d4a3e9f480a9ee70594037fa -->
<g id="node10" class="node">
<title>dir_9be0baa3d4a3e9f480a9ee70594037fa</title>
<g id="a_node10"><a xlink:href="dir_9be0baa3d4a3e9f480a9ee70594037fa.html" target="_top" xlink:title="kernel">
<polygon fill="#deebf9" stroke="red" stroke-dasharray="5,2" points="517.12,-35.25 474.88,-35.25 474.88,-16 517.12,-16 517.12,-35.25"/>
<text text-anchor="middle" x="496" y="-21.75" font-family="Helvetica,sans-Serif" font-size="10.00">kernel</text>
</a>
</g>
</g>
<!-- dir_a7a4ee9224592e8b230e4c752a3af655&#45;&gt;dir_9be0baa3d4a3e9f480a9ee70594037fa -->
<g id="edge6" class="edge">
<title>dir_a7a4ee9224592e8b230e4c752a3af655&#45;&gt;dir_9be0baa3d4a3e9f480a9ee70594037fa</title>
<g id="a_edge6"><a xlink:href="dir_000512_000256.html" target="_top">
<path fill="none" stroke="#63b8ff" d="M277.18,-76.9C309.57,-70.49 388.05,-54.57 463.34,-35.8"/>
<polygon fill="#63b8ff" stroke="#63b8ff" points="464.1,-39.22 472.95,-33.38 462.4,-32.43 464.1,-39.22"/>
</a>
</g>
<g id="a_edge6&#45;headlabel"><a xlink:href="dir_000512_000256.html" target="_top" xlink:title="1">
<text text-anchor="middle" x="462.78" y="-38.6" font-family="Helvetica,sans-Serif" font-size="10.00" fill="#63b8ff">1</text>
</a>
</g>
</g>
</g>
</svg>

<g id="navigator" transform="translate(0 0)" fill="#404254">
  <rect fill="#f2f5e9" fill-opacity="0.5" stroke="#606060" stroke-width=".5" x="0" y="0" width="60" height="60"/>
  <use id="zoomplus" xlink:href="#zoomPlus" x="17" y="9" onmousedown="handleZoom(evt,'in')"/>
  <use id="zoomminus" xlink:href="#zoomMin" x="42" y="9" onmousedown="handleZoom(evt,'out')"/>
  <use id="reset" xlink:href="#resetDef" x="30" y="36" onmousedown="handleReset()"/>
   <use id="arrowup" xlink:href="#arrowUp" x="0" y="0" onmousedown="handlePan(0,-1)"/>
  <use id="arrowright" xlink:href="#arrowRight" x="0" y="0" onmousedown="handlePan(1,0)"/>
  <use id="arrowdown" xlink:href="#arrowDown" x="0" y="0" onmousedown="handlePan(0,1)"/>
  <use id="arrowleft" xlink:href="#arrowLeft" x="0" y="0" onmousedown="handlePan(-1,0)"/>
</g>
<svg viewBox="0 0 15 15" width="100%" height="30px" preserveAspectRatio="xMaxYMin meet">
 <g id="arrow_out" transform="scale(0.3 0.3)">
  <a xlink:href="dir_01d758e74f9dc999d6afb4cc0aea262a_dep_org.svg" target="_base">
   <rect id="button" ry="5" rx="5" y="6" x="6" height="38" width="38"
        fill="#f2f5e9" fill-opacity="0.5" stroke="#606060" stroke-width="1.0"/>
   <path id="arrow"
     d="M 11.500037,31.436501 C 11.940474,20.09759 22.043105,11.32322 32.158766,21.979434 L 37.068811,17.246167 C 37.068811,17.246167 37.088388,32 37.088388,32 L 22.160133,31.978069 C 22.160133,31.978069 26.997745,27.140456 26.997745,27.140456 C 18.528582,18.264221 13.291696,25.230495 11.500037,31.436501 z"
     style="fill:#404040;"/>
  </a>
 </g>
</svg>

<style type='text/css'>
<![CDATA[
[data-mouse-over-selected='false'] { opacity: 0.7; }
[data-mouse-over-selected='true']  { opacity: 1.0; }
]]>
</style>
<script type="application/ecmascript"><![CDATA[
document.addEventListener('DOMContentLoaded', (event) => {
  highlightEdges();
  highlightAdjacentNodes();
});
]]></script>
</svg>
