<?xml version="1.0" encoding="UTF-8" standalone="no"?>
<!DOCTYPE svg PUBLIC "-//W3C//DTD SVG 1.1//EN"
 "http://www.w3.org/Graphics/SVG/1.1/DTD/svg11.dtd">
<!-- Generated by graphviz version 12.2.0 (20241103.1931)
 -->
<!-- Title: iop/debug Pages: 1 -->
<svg width="476pt" height="197pt"
 viewBox="0.00 0.00 475.75 197.00" xmlns="http://www.w3.org/2000/svg" xmlns:xlink="http://www.w3.org/1999/xlink">

<svg id="main" version="1.1" xmlns="http://www.w3.org/2000/svg" xmlns:xlink="http://www.w3.org/1999/xlink" xml:space="preserve">

<style type="text/css"><![CDATA[
.node, .edge {opacity: 0.7;}
.node.selected, .edge.selected {opacity: 1;}
.edge:hover path { stroke: red; }
.edge:hover polygon { stroke: red; fill: red; }
]]></style>
<script type="application/ecmascript" xlink:href="svg.min.js"/>
<svg id="graph" class="graph">
<g id="graph0" class="graph" transform="scale(1 1) rotate(0) translate(4 193)">
<title>iop/debug</title>
<g id="clust1" class="cluster">
<title>clusterdir_0981ace215aa2029f526b70c145b9fbe</title>
<g id="a_clust1"><a xlink:href="dir_0981ace215aa2029f526b70c145b9fbe.html" target="_top" xlink:title="iop">
<polygon fill="#deebf9" stroke="#404040" stroke-dasharray="5,2" points="8,-8 8,-181 406,-181 406,-8 8,-8"/>
<text text-anchor="middle" x="207" y="-167.5" font-family="Helvetica,sans-Serif" font-size="10.00">iop</text>
</a>
</g>
</g>
<g id="clust2" class="cluster">
<title>clusterdir_8494d76ae2586079db82d45fe3dd6aec</title>
<g id="a_clust2"><a xlink:href="dir_8494d76ae2586079db82d45fe3dd6aec.html" target="_top">
<polygon fill="#deebf9" stroke="#404040" stroke-width="2" points="16,-63.25 16,-153.75 398,-153.75 398,-63.25 16,-63.25"/>
</a>
</g>
</g>
<!-- dir_9be0baa3d4a3e9f480a9ee70594037fa -->
<g id="node1" class="node">
<title>dir_9be0baa3d4a3e9f480a9ee70594037fa</title>
<g id="a_node1"><a xlink:href="dir_9be0baa3d4a3e9f480a9ee70594037fa.html" target="_top" xlink:title="kernel">
<polygon fill="#60a2e3" stroke="red" points="191.12,-35.25 148.88,-35.25 148.88,-16 191.12,-16 191.12,-35.25"/>
<text text-anchor="middle" x="170" y="-21.75" font-family="Helvetica,sans-Serif" font-size="10.00">kernel</text>
</a>
</g>
</g>
<!-- dir_a12d8da7b0731a57c6a388326ad5e612 -->
<g id="node2" class="node">
<title>dir_a12d8da7b0731a57c6a388326ad5e612</title>
<g id="a_node2"><a xlink:href="dir_a12d8da7b0731a57c6a388326ad5e612.html" target="_top" xlink:title="cdvd">
<polygon fill="#60a2e3" stroke="red" points="256.5,-35.25 219.5,-35.25 219.5,-16 256.5,-16 256.5,-35.25"/>
<text text-anchor="middle" x="238" y="-21.75" font-family="Helvetica,sans-Serif" font-size="10.00">cdvd</text>
</a>
</g>
</g>
<!-- dir_40ac35421bc63b72c26b6c69b1517fd6 -->
<g id="node3" class="node">
<title>dir_40ac35421bc63b72c26b6c69b1517fd6</title>
<g id="a_node3"><a xlink:href="dir_40ac35421bc63b72c26b6c69b1517fd6.html" target="_top" xlink:title="system">
<polygon fill="#60a2e3" stroke="red" points="347.75,-35.25 300.25,-35.25 300.25,-16 347.75,-16 347.75,-35.25"/>
<text text-anchor="middle" x="324" y="-21.75" font-family="Helvetica,sans-Serif" font-size="10.00">system</text>
</a>
</g>
</g>
<!-- dir_8494d76ae2586079db82d45fe3dd6aec -->
<g id="node4" class="node">
<title>dir_8494d76ae2586079db82d45fe3dd6aec</title>
<text text-anchor="middle" x="45" y="-132.25" font-family="Helvetica,sans-Serif" font-size="10.00">debug</text>
</g>
<!-- dir_2f080771f6205bbf07c3b5e6545bd3fa -->
<g id="node5" class="node">
<title>dir_2f080771f6205bbf07c3b5e6545bd3fa</title>
<g id="a_node5"><a xlink:href="dir_2f080771f6205bbf07c3b5e6545bd3fa.html" target="_top" xlink:title="iop_sbusdbg">
<polygon fill="#60a2e3" stroke="#404040" points="216.38,-145.75 145.62,-145.75 145.62,-126.5 216.38,-126.5 216.38,-145.75"/>
<text text-anchor="middle" x="181" y="-132.25" font-family="Helvetica,sans-Serif" font-size="10.00">iop_sbusdbg</text>
</a>
</g>
</g>
<!-- dir_2f080771f6205bbf07c3b5e6545bd3fa&#45;&gt;dir_9be0baa3d4a3e9f480a9ee70594037fa -->
<g id="edge2" class="edge">
<title>dir_2f080771f6205bbf07c3b5e6545bd3fa&#45;&gt;dir_9be0baa3d4a3e9f480a9ee70594037fa</title>
<g id="a_edge2"><a xlink:href="dir_000250_000256.html" target="_top">
<path fill="none" stroke="#63b8ff" d="M166.77,-126.1C155.79,-118.21 141.42,-105.67 135,-90.5 130.28,-79.35 130.49,-74.49 135,-63.25 138.04,-55.68 143.46,-48.79 149.15,-43.08"/>
<polygon fill="#63b8ff" stroke="#63b8ff" points="151.22,-45.93 156.3,-36.63 146.53,-40.73 151.22,-45.93"/>
</a>
</g>
<g id="a_edge2&#45;headlabel"><a xlink:href="dir_000250_000256.html" target="_top" xlink:title="1">
<text text-anchor="middle" x="151.58" y="-45.55" font-family="Helvetica,sans-Serif" font-size="10.00" fill="#63b8ff">1</text>
</a>
</g>
</g>
<!-- dir_2f080771f6205bbf07c3b5e6545bd3fa&#45;&gt;dir_a12d8da7b0731a57c6a388326ad5e612 -->
<g id="edge3" class="edge">
<title>dir_2f080771f6205bbf07c3b5e6545bd3fa&#45;&gt;dir_a12d8da7b0731a57c6a388326ad5e612</title>
<g id="a_edge3"><a xlink:href="dir_000250_000041.html" target="_top">
<path fill="none" stroke="#63b8ff" d="M183.87,-126.4C188.6,-112.56 198.74,-84.9 211,-63.25 214.64,-56.82 219.23,-50.2 223.58,-44.39"/>
<polygon fill="#63b8ff" stroke="#63b8ff" points="226.16,-46.77 229.55,-36.74 220.64,-42.47 226.16,-46.77"/>
</a>
</g>
<g id="a_edge3&#45;headlabel"><a xlink:href="dir_000250_000041.html" target="_top" xlink:title="1">
<text text-anchor="middle" x="227.12" y="-46.29" font-family="Helvetica,sans-Serif" font-size="10.00" fill="#63b8ff">1</text>
</a>
</g>
</g>
<!-- dir_2f080771f6205bbf07c3b5e6545bd3fa&#45;&gt;dir_40ac35421bc63b72c26b6c69b1517fd6 -->
<g id="edge4" class="edge">
<title>dir_2f080771f6205bbf07c3b5e6545bd3fa&#45;&gt;dir_40ac35421bc63b72c26b6c69b1517fd6</title>
<g id="a_edge4"><a xlink:href="dir_000250_000571.html" target="_top">
<path fill="none" stroke="#63b8ff" d="M213.65,-126.03C244.1,-116.99 286.62,-102.74 299,-90.5 310.92,-78.72 317.29,-60.58 320.61,-46.64"/>
<polygon fill="#63b8ff" stroke="#63b8ff" points="323.96,-47.71 322.51,-37.22 317.1,-46.33 323.96,-47.71"/>
</a>
</g>
<g id="a_edge4&#45;headlabel"><a xlink:href="dir_000250_000571.html" target="_top" xlink:title="28">
<text text-anchor="middle" x="326.34" y="-46.43" font-family="Helvetica,sans-Serif" font-size="10.00" fill="#63b8ff">28</text>
</a>
</g>
</g>
<!-- dir_b128a11f24e38182ade4e9889f6c5833 -->
<g id="node6" class="node">
<title>dir_b128a11f24e38182ade4e9889f6c5833</title>
<g id="a_node6"><a xlink:href="dir_b128a11f24e38182ade4e9889f6c5833.html" target="_top" xlink:title="iopdebug">
<polygon fill="#60a2e3" stroke="#404040" points="274.5,-90.5 219.5,-90.5 219.5,-71.25 274.5,-71.25 274.5,-90.5"/>
<text text-anchor="middle" x="247" y="-77" font-family="Helvetica,sans-Serif" font-size="10.00">iopdebug</text>
</a>
</g>
</g>
<!-- dir_2f080771f6205bbf07c3b5e6545bd3fa&#45;&gt;dir_b128a11f24e38182ade4e9889f6c5833 -->
<g id="edge5" class="edge">
<title>dir_2f080771f6205bbf07c3b5e6545bd3fa&#45;&gt;dir_b128a11f24e38182ade4e9889f6c5833</title>
<g id="a_edge5"><a xlink:href="dir_000250_000251.html" target="_top">
<path fill="none" stroke="#63b8ff" d="M192.2,-126.09C201.74,-118.4 215.67,-107.15 227.11,-97.93"/>
<polygon fill="#63b8ff" stroke="#63b8ff" points="229.21,-100.73 234.79,-91.73 224.81,-95.28 229.21,-100.73"/>
</a>
</g>
<g id="a_edge5&#45;headlabel"><a xlink:href="dir_000250_000251.html" target="_top" xlink:title="4">
<text text-anchor="middle" x="229.37" y="-100.37" font-family="Helvetica,sans-Serif" font-size="10.00" fill="#63b8ff">4</text>
</a>
</g>
</g>
<!-- dir_bdd9a5d540de89e9fe90efdfc6973a4f -->
<g id="node11" class="node">
<title>dir_bdd9a5d540de89e9fe90efdfc6973a4f</title>
<g id="a_node11"><a xlink:href="dir_bdd9a5d540de89e9fe90efdfc6973a4f.html" target="_top" xlink:title="common">
<polygon fill="#deebf9" stroke="red" points="467.75,-35.25 414.25,-35.25 414.25,-16 467.75,-16 467.75,-35.25"/>
<text text-anchor="middle" x="441" y="-21.75" font-family="Helvetica,sans-Serif" font-size="10.00">common</text>
</a>
</g>
</g>
<!-- dir_2f080771f6205bbf07c3b5e6545bd3fa&#45;&gt;dir_bdd9a5d540de89e9fe90efdfc6973a4f -->
<g id="edge1" class="edge">
<title>dir_2f080771f6205bbf07c3b5e6545bd3fa&#45;&gt;dir_bdd9a5d540de89e9fe90efdfc6973a4f</title>
<g id="a_edge1"><a xlink:href="dir_000250_000046.html" target="_top">
<path fill="none" stroke="#63b8ff" d="M216.58,-128.13C274.05,-116.74 381.64,-95.01 389,-90.5 398.64,-84.59 416.22,-61.6 428.25,-44.89"/>
<polygon fill="#63b8ff" stroke="#63b8ff" points="431.1,-46.93 434.02,-36.74 425.38,-42.88 431.1,-46.93"/>
</a>
</g>
<g id="a_edge1&#45;headlabel"><a xlink:href="dir_000250_000046.html" target="_top" xlink:title="13">
<text text-anchor="middle" x="432.21" y="-46.39" font-family="Helvetica,sans-Serif" font-size="10.00" fill="#63b8ff">13</text>
</a>
</g>
</g>
<!-- dir_b128a11f24e38182ade4e9889f6c5833&#45;&gt;dir_9be0baa3d4a3e9f480a9ee70594037fa -->
<g id="edge6" class="edge">
<title>dir_b128a11f24e38182ade4e9889f6c5833&#45;&gt;dir_9be0baa3d4a3e9f480a9ee70594037fa</title>
<g id="a_edge6"><a xlink:href="dir_000251_000256.html" target="_top">
<path fill="none" stroke="#63b8ff" d="M233.94,-70.84C222.54,-62.96 205.77,-51.36 192.26,-42.02"/>
<polygon fill="#63b8ff" stroke="#63b8ff" points="194.59,-39.37 184.37,-36.56 190.6,-45.13 194.59,-39.37"/>
</a>
</g>
<g id="a_edge6&#45;headlabel"><a xlink:href="dir_000251_000256.html" target="_top" xlink:title="2">
<text text-anchor="middle" x="197.91" y="-34.35" font-family="Helvetica,sans-Serif" font-size="10.00" fill="#63b8ff">2</text>
</a>
</g>
</g>
<!-- dir_b128a11f24e38182ade4e9889f6c5833&#45;&gt;dir_a12d8da7b0731a57c6a388326ad5e612 -->
<g id="edge9" class="edge">
<title>dir_b128a11f24e38182ade4e9889f6c5833&#45;&gt;dir_a12d8da7b0731a57c6a388326ad5e612</title>
<g id="a_edge9"><a xlink:href="dir_000251_000041.html" target="_top">
<path fill="none" stroke="#63b8ff" d="M245.51,-71.08C244.4,-64.49 242.83,-55.21 241.41,-46.82"/>
<polygon fill="#63b8ff" stroke="#63b8ff" points="244.89,-46.38 239.77,-37.1 237.99,-47.55 244.89,-46.38"/>
</a>
</g>
<g id="a_edge9&#45;headlabel"><a xlink:href="dir_000251_000041.html" target="_top" xlink:title="1">
<text text-anchor="middle" x="248.03" y="-44.08" font-family="Helvetica,sans-Serif" font-size="10.00" fill="#63b8ff">1</text>
</a>
</g>
</g>
<!-- dir_b128a11f24e38182ade4e9889f6c5833&#45;&gt;dir_40ac35421bc63b72c26b6c69b1517fd6 -->
<g id="edge8" class="edge">
<title>dir_b128a11f24e38182ade4e9889f6c5833&#45;&gt;dir_40ac35421bc63b72c26b6c69b1517fd6</title>
<g id="a_edge8"><a xlink:href="dir_000251_000571.html" target="_top">
<path fill="none" stroke="#63b8ff" d="M260.06,-70.84C271.46,-62.96 288.23,-51.36 301.74,-42.02"/>
<polygon fill="#63b8ff" stroke="#63b8ff" points="303.4,-45.13 309.63,-36.56 299.41,-39.37 303.4,-45.13"/>
</a>
</g>
<g id="a_edge8&#45;headlabel"><a xlink:href="dir_000251_000571.html" target="_top" xlink:title="15">
<text text-anchor="middle" x="303.3" y="-44.77" font-family="Helvetica,sans-Serif" font-size="10.00" fill="#63b8ff">15</text>
</a>
</g>
</g>
<!-- dir_b128a11f24e38182ade4e9889f6c5833&#45;&gt;dir_bdd9a5d540de89e9fe90efdfc6973a4f -->
<g id="edge7" class="edge">
<title>dir_b128a11f24e38182ade4e9889f6c5833&#45;&gt;dir_bdd9a5d540de89e9fe90efdfc6973a4f</title>
<g id="a_edge7"><a xlink:href="dir_000251_000046.html" target="_top">
<path fill="none" stroke="#63b8ff" d="M274.99,-72.25C305.18,-64.02 354.98,-50.41 403.08,-37.16"/>
<polygon fill="#63b8ff" stroke="#63b8ff" points="403.78,-40.59 412.49,-34.56 401.92,-33.85 403.78,-40.59"/>
</a>
</g>
<g id="a_edge7&#45;headlabel"><a xlink:href="dir_000251_000046.html" target="_top" xlink:title="7">
<text text-anchor="middle" x="402.53" y="-40.01" font-family="Helvetica,sans-Serif" font-size="10.00" fill="#63b8ff">7</text>
</a>
</g>
</g>
<!-- dir_43255a50c3a5642889795edf08bb8408 -->
<g id="node7" class="node">
<title>dir_43255a50c3a5642889795edf08bb8408</title>
<g id="a_node7"><a xlink:href="dir_43255a50c3a5642889795edf08bb8408.html" target="_top" xlink:title="ioptrap">
<polygon fill="#60a2e3" stroke="#404040" points="279.62,-145.75 234.38,-145.75 234.38,-126.5 279.62,-126.5 279.62,-145.75"/>
<text text-anchor="middle" x="257" y="-132.25" font-family="Helvetica,sans-Serif" font-size="10.00">ioptrap</text>
</a>
</g>
</g>
<!-- dir_43255a50c3a5642889795edf08bb8408&#45;&gt;dir_9be0baa3d4a3e9f480a9ee70594037fa -->
<g id="edge10" class="edge">
<title>dir_43255a50c3a5642889795edf08bb8408&#45;&gt;dir_9be0baa3d4a3e9f480a9ee70594037fa</title>
<g id="a_edge10"><a xlink:href="dir_000254_000256.html" target="_top">
<path fill="none" stroke="#63b8ff" d="M234.03,-129.25C214.8,-123.03 188.4,-111.17 175,-90.5 166.75,-77.77 165.87,-60.47 166.85,-47.09"/>
<polygon fill="#63b8ff" stroke="#63b8ff" points="170.32,-47.57 168,-37.23 163.36,-46.76 170.32,-47.57"/>
</a>
</g>
<g id="a_edge10&#45;headlabel"><a xlink:href="dir_000254_000256.html" target="_top" xlink:title="4">
<text text-anchor="middle" x="172.89" y="-46.09" font-family="Helvetica,sans-Serif" font-size="10.00" fill="#63b8ff">4</text>
</a>
</g>
</g>
<!-- dir_43255a50c3a5642889795edf08bb8408&#45;&gt;dir_40ac35421bc63b72c26b6c69b1517fd6 -->
<g id="edge11" class="edge">
<title>dir_43255a50c3a5642889795edf08bb8408&#45;&gt;dir_40ac35421bc63b72c26b6c69b1517fd6</title>
<g id="a_edge11"><a xlink:href="dir_000254_000571.html" target="_top">
<path fill="none" stroke="#63b8ff" d="M277.74,-126.07C291.95,-118.68 309.83,-106.8 319,-90.5 326.44,-77.28 327.37,-60.01 326.62,-46.76"/>
<polygon fill="#63b8ff" stroke="#63b8ff" points="330.13,-46.68 325.68,-37.06 323.16,-47.35 330.13,-46.68"/>
</a>
</g>
<g id="a_edge11&#45;headlabel"><a xlink:href="dir_000254_000571.html" target="_top" xlink:title="11">
<text text-anchor="middle" x="333.15" y="-44.61" font-family="Helvetica,sans-Serif" font-size="10.00" fill="#63b8ff">11</text>
</a>
</g>
</g>
<!-- dir_d3ded9369ca517f344f23b4db50242ea -->
<g id="node8" class="node">
<title>dir_d3ded9369ca517f344f23b4db50242ea</title>
<g id="a_node8"><a xlink:href="dir_d3ded9369ca517f344f23b4db50242ea.html" target="_top" xlink:title="ppctty">
<polygon fill="#60a2e3" stroke="#404040" points="340.12,-145.75 297.88,-145.75 297.88,-126.5 340.12,-126.5 340.12,-145.75"/>
<text text-anchor="middle" x="319" y="-132.25" font-family="Helvetica,sans-Serif" font-size="10.00">ppctty</text>
</a>
</g>
</g>
<!-- dir_d3ded9369ca517f344f23b4db50242ea&#45;&gt;dir_9be0baa3d4a3e9f480a9ee70594037fa -->
<g id="edge12" class="edge">
<title>dir_d3ded9369ca517f344f23b4db50242ea&#45;&gt;dir_9be0baa3d4a3e9f480a9ee70594037fa</title>
<g id="a_edge12"><a xlink:href="dir_000311_000256.html" target="_top">
<path fill="none" stroke="#63b8ff" d="M297.43,-128.43C263.96,-117.9 202.59,-97.88 195,-90.5 182.85,-78.68 176.48,-60.26 173.22,-46.24"/>
<polygon fill="#63b8ff" stroke="#63b8ff" points="176.73,-45.94 171.38,-36.8 169.86,-47.29 176.73,-45.94"/>
</a>
</g>
<g id="a_edge12&#45;headlabel"><a xlink:href="dir_000311_000256.html" target="_top" xlink:title="1">
<text text-anchor="middle" x="179.92" y="-43.57" font-family="Helvetica,sans-Serif" font-size="10.00" fill="#63b8ff">1</text>
</a>
</g>
</g>
<!-- dir_d3ded9369ca517f344f23b4db50242ea&#45;&gt;dir_40ac35421bc63b72c26b6c69b1517fd6 -->
<g id="edge13" class="edge">
<title>dir_d3ded9369ca517f344f23b4db50242ea&#45;&gt;dir_40ac35421bc63b72c26b6c69b1517fd6</title>
<g id="a_edge13"><a xlink:href="dir_000311_000571.html" target="_top">
<path fill="none" stroke="#63b8ff" d="M324.32,-126.28C329.23,-117.54 336.19,-103.62 339,-90.5 341.53,-78.66 341.34,-75.13 339,-63.25 337.85,-57.41 335.76,-51.32 333.5,-45.83"/>
<polygon fill="#63b8ff" stroke="#63b8ff" points="336.82,-44.67 329.48,-37.03 330.45,-47.58 336.82,-44.67"/>
</a>
</g>
<g id="a_edge13&#45;headlabel"><a xlink:href="dir_000311_000571.html" target="_top" xlink:title="18">
<text text-anchor="middle" x="340.26" y="-41.51" font-family="Helvetica,sans-Serif" font-size="10.00" fill="#63b8ff">18</text>
</a>
</g>
</g>
<!-- dir_d3ded9369ca517f344f23b4db50242ea&#45;&gt;dir_bdd9a5d540de89e9fe90efdfc6973a4f -->
<g id="edge14" class="edge">
<title>dir_d3ded9369ca517f344f23b4db50242ea&#45;&gt;dir_bdd9a5d540de89e9fe90efdfc6973a4f</title>
<g id="a_edge14"><a xlink:href="dir_000311_000046.html" target="_top">
<path fill="none" stroke="#63b8ff" d="M340.18,-127.66C365.56,-118.35 406.02,-102.25 417,-90.5 428.27,-78.44 434.38,-60.58 437.61,-46.81"/>
<polygon fill="#63b8ff" stroke="#63b8ff" points="441.03,-47.58 439.54,-37.09 434.16,-46.22 441.03,-47.58"/>
</a>
</g>
<g id="a_edge14&#45;headlabel"><a xlink:href="dir_000311_000046.html" target="_top" xlink:title="5">
<text text-anchor="middle" x="443.41" y="-46.29" font-family="Helvetica,sans-Serif" font-size="10.00" fill="#63b8ff">5</text>
</a>
</g>
</g>
<!-- dir_1019ee746f7ebb462d4ffdfca40dcd8c -->
<g id="node9" class="node">
<title>dir_1019ee746f7ebb462d4ffdfca40dcd8c</title>
<g id="a_node9"><a xlink:href="dir_1019ee746f7ebb462d4ffdfca40dcd8c.html" target="_top" xlink:title="sior">
<polygon fill="#60a2e3" stroke="#404040" points="389.88,-145.75 358.12,-145.75 358.12,-126.5 389.88,-126.5 389.88,-145.75"/>
<text text-anchor="middle" x="374" y="-132.25" font-family="Helvetica,sans-Serif" font-size="10.00">sior</text>
</a>
</g>
</g>
<!-- dir_1019ee746f7ebb462d4ffdfca40dcd8c&#45;&gt;dir_9be0baa3d4a3e9f480a9ee70594037fa -->
<g id="edge15" class="edge">
<title>dir_1019ee746f7ebb462d4ffdfca40dcd8c&#45;&gt;dir_9be0baa3d4a3e9f480a9ee70594037fa</title>
<g id="a_edge15"><a xlink:href="dir_000348_000256.html" target="_top">
<path fill="none" stroke="#63b8ff" d="M357.65,-129.28C354.78,-128.32 351.81,-127.35 349,-126.5 288.33,-108.15 262.3,-127.72 211,-90.5 208.84,-88.93 192.96,-63.72 181.61,-45.44"/>
<polygon fill="#63b8ff" stroke="#63b8ff" points="184.63,-43.67 176.39,-37.01 178.68,-47.35 184.63,-43.67"/>
</a>
</g>
<g id="a_edge15&#45;headlabel"><a xlink:href="dir_000348_000256.html" target="_top" xlink:title="4">
<text text-anchor="middle" x="188.14" y="-40.07" font-family="Helvetica,sans-Serif" font-size="10.00" fill="#63b8ff">4</text>
</a>
</g>
</g>
<!-- dir_1019ee746f7ebb462d4ffdfca40dcd8c&#45;&gt;dir_40ac35421bc63b72c26b6c69b1517fd6 -->
<g id="edge17" class="edge">
<title>dir_1019ee746f7ebb462d4ffdfca40dcd8c&#45;&gt;dir_40ac35421bc63b72c26b6c69b1517fd6</title>
<g id="a_edge17"><a xlink:href="dir_000348_000571.html" target="_top">
<path fill="none" stroke="#63b8ff" d="M370.81,-126.1C365.84,-112.31 355.7,-85.28 345,-63.25 342.11,-57.3 338.65,-51 335.38,-45.33"/>
<polygon fill="#63b8ff" stroke="#63b8ff" points="338.42,-43.58 330.3,-36.77 332.4,-47.16 338.42,-43.58"/>
</a>
</g>
<g id="a_edge17&#45;headlabel"><a xlink:href="dir_000348_000571.html" target="_top" xlink:title="7">
<text text-anchor="middle" x="341.92" y="-40.05" font-family="Helvetica,sans-Serif" font-size="10.00" fill="#63b8ff">7</text>
</a>
</g>
</g>
<!-- dir_1019ee746f7ebb462d4ffdfca40dcd8c&#45;&gt;dir_bdd9a5d540de89e9fe90efdfc6973a4f -->
<g id="edge16" class="edge">
<title>dir_1019ee746f7ebb462d4ffdfca40dcd8c&#45;&gt;dir_bdd9a5d540de89e9fe90efdfc6973a4f</title>
<g id="a_edge16"><a xlink:href="dir_000348_000046.html" target="_top">
<path fill="none" stroke="#63b8ff" d="M390.24,-131.45C409.59,-126.11 441.04,-114.14 455,-90.5 463.12,-76.75 458.1,-58.84 451.92,-45.48"/>
<polygon fill="#63b8ff" stroke="#63b8ff" points="455.15,-44.11 447.42,-36.86 448.94,-47.35 455.15,-44.11"/>
</a>
</g>
<g id="a_edge16&#45;headlabel"><a xlink:href="dir_000348_000046.html" target="_top" xlink:title="3">
<text text-anchor="middle" x="458.63" y="-40.76" font-family="Helvetica,sans-Serif" font-size="10.00" fill="#63b8ff">3</text>
</a>
</g>
</g>
<!-- dir_dff89ea4f3392a2e49b7401cf3785b58 -->
<g id="node10" class="node">
<title>dir_dff89ea4f3392a2e49b7401cf3785b58</title>
<g id="a_node10"><a xlink:href="dir_dff89ea4f3392a2e49b7401cf3785b58.html" target="_top" xlink:title="thmon">
<polygon fill="#60a2e3" stroke="#404040" points="127.5,-145.75 84.5,-145.75 84.5,-126.5 127.5,-126.5 127.5,-145.75"/>
<text text-anchor="middle" x="106" y="-132.25" font-family="Helvetica,sans-Serif" font-size="10.00">thmon</text>
</a>
</g>
</g>
<!-- dir_dff89ea4f3392a2e49b7401cf3785b58&#45;&gt;dir_9be0baa3d4a3e9f480a9ee70594037fa -->
<g id="edge19" class="edge">
<title>dir_dff89ea4f3392a2e49b7401cf3785b58&#45;&gt;dir_9be0baa3d4a3e9f480a9ee70594037fa</title>
<g id="a_edge19"><a xlink:href="dir_000579_000256.html" target="_top">
<path fill="none" stroke="#63b8ff" d="M107.14,-126.05C109.29,-111.71 114.93,-83.4 128,-63.25 133.11,-55.37 140.38,-48.21 147.44,-42.34"/>
<polygon fill="#63b8ff" stroke="#63b8ff" points="149.12,-45.47 154.89,-36.58 144.84,-39.93 149.12,-45.47"/>
</a>
</g>
<g id="a_edge19&#45;headlabel"><a xlink:href="dir_000579_000256.html" target="_top" xlink:title="1">
<text text-anchor="middle" x="149.21" y="-45.11" font-family="Helvetica,sans-Serif" font-size="10.00" fill="#63b8ff">1</text>
</a>
</g>
</g>
<!-- dir_dff89ea4f3392a2e49b7401cf3785b58&#45;&gt;dir_40ac35421bc63b72c26b6c69b1517fd6 -->
<g id="edge18" class="edge">
<title>dir_dff89ea4f3392a2e49b7401cf3785b58&#45;&gt;dir_40ac35421bc63b72c26b6c69b1517fd6</title>
<g id="a_edge18"><a xlink:href="dir_000579_000571.html" target="_top">
<path fill="none" stroke="#63b8ff" d="M127.99,-128.91C131.01,-128.09 134.08,-127.26 137,-126.5 202.08,-109.48 230.61,-131.42 284,-90.5 294.97,-82.09 291.76,-75.03 299,-63.25 302.82,-57.03 307.24,-50.4 311.29,-44.5"/>
<polygon fill="#63b8ff" stroke="#63b8ff" points="313.86,-46.94 316.72,-36.74 308.12,-42.93 313.86,-46.94"/>
</a>
</g>
<g id="a_edge18&#45;headlabel"><a xlink:href="dir_000579_000571.html" target="_top" xlink:title="10">
<text text-anchor="middle" x="315" y="-46.4" font-family="Helvetica,sans-Serif" font-size="10.00" fill="#63b8ff">10</text>
</a>
</g>
</g>
</g>
</svg>
</svg>

<style type='text/css'>
<![CDATA[
[data-mouse-over-selected='false'] { opacity: 0.7; }
[data-mouse-over-selected='true']  { opacity: 1.0; }
]]>
</style>
<script type="application/ecmascript"><![CDATA[
document.addEventListener('DOMContentLoaded', (event) => {
  highlightEdges();
  highlightAdjacentNodes();
});
]]></script>
</svg>
