<?xml version="1.0" encoding="UTF-8" standalone="no"?>
<!DOCTYPE svg PUBLIC "-//W3C//DTD SVG 1.1//EN"
 "http://www.w3.org/Graphics/SVG/1.1/DTD/svg11.dtd">
<!-- Generated by graphviz version 2.44.0 ()
 -->
<!-- Title: iop/fs Pages: 1 -->
<!--zoomable 319 -->
<svg id="main" version="1.1" xmlns="http://www.w3.org/2000/svg" xmlns:xlink="http://www.w3.org/1999/xlink" xml:space="preserve" onload="init(evt)">
<style type="text/css"><![CDATA[
.edge:hover path { stroke: red; }
.edge:hover polygon { stroke: red; fill: red; }
]]></style>
<script type="text/javascript"><![CDATA[
var edges = document.getElementsByTagName('g');
if (edges && edges.length) {
  for (var i=0;i<edges.length;i++) {
    if (edges[i].id.substr(0,4)=='edge') {
      edges[i].setAttribute('class','edge');
    }
  }
}
]]></script>
        <defs>
                <circle id="rim" cx="0" cy="0" r="7"/>
                <circle id="rim2" cx="0" cy="0" r="3.5"/>
                <g id="zoomPlus">
                        <use xlink:href="#rim" fill="#404040">
                                <set attributeName="fill" to="#808080" begin="zoomplus.mouseover" end="zoomplus.mouseout"/>
                        </use>
                        <path d="M-4,0h8M0,-4v8" fill="none" stroke="white" stroke-width="1.5" pointer-events="none"/>
                </g>
                <g id="zoomMin">
                        <use xlink:href="#rim" fill="#404040">
                                <set attributeName="fill" to="#808080" begin="zoomminus.mouseover" end="zoomminus.mouseout"/>
                        </use>
                        <path d="M-4,0h8" fill="none" stroke="white" stroke-width="1.5" pointer-events="none"/>
                </g>
                <g id="dirArrow">
                        <path fill="none" stroke="white" stroke-width="1.5" d="M0,-3.0v7 M-2.5,-0.5L0,-3.0L2.5,-0.5"/>
                </g>
               <g id="resetDef">
                       <use xlink:href="#rim2" fill="#404040">
                               <set attributeName="fill" to="#808080" begin="reset.mouseover" end="reset.mouseout"/>
                       </use>
               </g>
        </defs>

<script type="text/javascript">
var viewWidth = 608;
var viewHeight = 319;
var sectionId = 'dynsection-0';
</script>
<script xlink:href="svgpan.js"/>
<svg id="graph" class="graph">
<g id="viewport">
<title>iop/fs</title>
<polygon fill="white" stroke="transparent" points="-4,4 -4,-315 604,-315 604,4 -4,4"/>
<g id="clust1" class="cluster">
<title>clusterdir_0981ace215aa2029f526b70c145b9fbe</title>
<g id="a_clust1"><a xlink:href="dir_0981ace215aa2029f526b70c145b9fbe.html" target="_top" xlink:title="iop">
<polygon fill="#ddddee" stroke="black" points="8,-8 8,-303 538,-303 538,-8 8,-8"/>
<text text-anchor="middle" x="273" y="-291" font-family="Helvetica,sans-Serif" font-size="10.00">iop</text>
</a>
</g>
</g>
<g id="clust2" class="cluster">
<title>clusterdir_f24daea2522ffa8b6dc5fa9cdf5b8f5c</title>
<g id="a_clust2"><a xlink:href="dir_f24daea2522ffa8b6dc5fa9cdf5b8f5c.html" target="_top">
<polygon fill="#eeeeff" stroke="black" points="16,-152 16,-276 530,-276 530,-152 16,-152"/>
</a>
</g>
</g>
<!-- dir_9be0baa3d4a3e9f480a9ee70594037fa -->
<g id="node1" class="node">
<title>dir_9be0baa3d4a3e9f480a9ee70594037fa</title>
<g id="a_node1"><a xlink:href="dir_9be0baa3d4a3e9f480a9ee70594037fa.html" target="_top" xlink:title="kernel">
<polygon fill="white" stroke="red" points="310,-124 256,-124 256,-88 310,-88 310,-124"/>
<text text-anchor="middle" x="283" y="-103.5" font-family="Helvetica,sans-Serif" font-size="10.00">kernel</text>
</a>
</g>
</g>
<!-- dir_40ac35421bc63b72c26b6c69b1517fd6 -->
<g id="node2" class="node">
<title>dir_40ac35421bc63b72c26b6c69b1517fd6</title>
<g id="a_node2"><a xlink:href="dir_40ac35421bc63b72c26b6c69b1517fd6.html" target="_top" xlink:title="system">
<polygon fill="white" stroke="red" points="310,-52 256,-52 256,-16 310,-16 310,-52"/>
<text text-anchor="middle" x="283" y="-31.5" font-family="Helvetica,sans-Serif" font-size="10.00">system</text>
</a>
</g>
</g>
<!-- dir_9be0baa3d4a3e9f480a9ee70594037fa&#45;&gt;dir_40ac35421bc63b72c26b6c69b1517fd6 -->
<g id="edge1" class="edge">
<title>dir_9be0baa3d4a3e9f480a9ee70594037fa&#45;&gt;dir_40ac35421bc63b72c26b6c69b1517fd6</title>
<path fill="none" stroke="black" d="M277.08,-87.7C276.29,-79.98 276.06,-70.71 276.4,-62.11"/>
<polygon fill="black" stroke="black" points="279.9,-62.32 277.1,-52.1 272.92,-61.84 279.9,-62.32"/>
<g id="a_edge1&#45;headlabel"><a xlink:href="dir_000214_000089.html" target="_top" xlink:title="2">
<text text-anchor="middle" x="282.48" y="-63.61" font-family="Helvetica,sans-Serif" font-size="10.00">2</text>
</a>
</g>
</g>
<!-- dir_bdd9a5d540de89e9fe90efdfc6973a4f -->
<g id="node11" class="node">
<title>dir_bdd9a5d540de89e9fe90efdfc6973a4f</title>
<g id="a_node11"><a xlink:href="dir_bdd9a5d540de89e9fe90efdfc6973a4f.html" target="_top" xlink:title="common">
<polygon fill="white" stroke="red" points="600,-52 546,-52 546,-16 600,-16 600,-52"/>
<text text-anchor="middle" x="573" y="-31.5" font-family="Helvetica,sans-Serif" font-size="10.00">common</text>
</a>
</g>
</g>
<!-- dir_9be0baa3d4a3e9f480a9ee70594037fa&#45;&gt;dir_bdd9a5d540de89e9fe90efdfc6973a4f -->
<g id="edge2" class="edge">
<title>dir_9be0baa3d4a3e9f480a9ee70594037fa&#45;&gt;dir_bdd9a5d540de89e9fe90efdfc6973a4f</title>
<path fill="none" stroke="black" d="M310.38,-101.44C357.29,-95.34 454.8,-80.7 533,-52 534.2,-51.56 535.41,-51.08 536.62,-50.57"/>
<polygon fill="black" stroke="black" points="538.39,-53.6 545.96,-46.19 535.42,-47.27 538.39,-53.6"/>
<g id="a_edge2&#45;headlabel"><a xlink:href="dir_000214_000000.html" target="_top" xlink:title="12">
<text text-anchor="middle" x="536.34" y="-55.2" font-family="Helvetica,sans-Serif" font-size="10.00">12</text>
</a>
</g>
</g>
<!-- dir_40ac35421bc63b72c26b6c69b1517fd6&#45;&gt;dir_9be0baa3d4a3e9f480a9ee70594037fa -->
<g id="edge8" class="edge">
<title>dir_40ac35421bc63b72c26b6c69b1517fd6&#45;&gt;dir_9be0baa3d4a3e9f480a9ee70594037fa</title>
<path fill="none" stroke="black" d="M288.9,-52.1C289.7,-59.79 289.94,-69.05 289.6,-77.67"/>
<polygon fill="black" stroke="black" points="286.11,-77.48 288.92,-87.7 293.09,-77.96 286.11,-77.48"/>
<g id="a_edge8&#45;headlabel"><a xlink:href="dir_000089_000214.html" target="_top" xlink:title="176">
<text text-anchor="middle" x="283.52" y="-71.2" font-family="Helvetica,sans-Serif" font-size="10.00">176</text>
</a>
</g>
</g>
<!-- dir_40ac35421bc63b72c26b6c69b1517fd6&#45;&gt;dir_bdd9a5d540de89e9fe90efdfc6973a4f -->
<g id="edge9" class="edge">
<title>dir_40ac35421bc63b72c26b6c69b1517fd6&#45;&gt;dir_bdd9a5d540de89e9fe90efdfc6973a4f</title>
<path fill="none" stroke="black" d="M310.19,-34C385.35,-34 460.51,-34 535.67,-34"/>
<polygon fill="black" stroke="black" points="535.79,-37.5 545.79,-34 535.79,-30.5 535.79,-37.5"/>
<g id="a_edge9&#45;headlabel"><a xlink:href="dir_000089_000000.html" target="_top" xlink:title="3">
<text text-anchor="middle" x="532.2" y="-37.84" font-family="Helvetica,sans-Serif" font-size="10.00">3</text>
</a>
</g>
</g>
<!-- dir_f24daea2522ffa8b6dc5fa9cdf5b8f5c -->
<g id="node3" class="node">
<title>dir_f24daea2522ffa8b6dc5fa9cdf5b8f5c</title>
<text text-anchor="middle" x="495" y="-247.5" font-family="Helvetica,sans-Serif" font-size="10.00">fs</text>
</g>
<!-- dir_0134b0376fbe77322088b496fb368f9b -->
<g id="node4" class="node">
<title>dir_0134b0376fbe77322088b496fb368f9b</title>
<g id="a_node4"><a xlink:href="dir_0134b0376fbe77322088b496fb368f9b.html" target="_top" xlink:title="bdm">
<polygon fill="white" stroke="red" points="444,-196 390,-196 390,-160 444,-160 444,-196"/>
<text text-anchor="middle" x="417" y="-175.5" font-family="Helvetica,sans-Serif" font-size="10.00">bdm</text>
</a>
</g>
</g>
<!-- dir_0134b0376fbe77322088b496fb368f9b&#45;&gt;dir_9be0baa3d4a3e9f480a9ee70594037fa -->
<g id="edge14" class="edge">
<title>dir_0134b0376fbe77322088b496fb368f9b&#45;&gt;dir_9be0baa3d4a3e9f480a9ee70594037fa</title>
<path fill="none" stroke="black" d="M397.23,-159.78C393.61,-157.01 389.78,-154.3 386,-152 365.07,-139.3 339.91,-128.24 319.7,-120.26"/>
<polygon fill="black" stroke="black" points="320.81,-116.94 310.22,-116.6 318.28,-123.47 320.81,-116.94"/>
<g id="a_edge14&#45;headlabel"><a xlink:href="dir_000036_000214.html" target="_top" xlink:title="13">
<text text-anchor="middle" x="325.18" y="-113.08" font-family="Helvetica,sans-Serif" font-size="10.00">13</text>
</a>
</g>
</g>
<!-- dir_0134b0376fbe77322088b496fb368f9b&#45;&gt;dir_bdd9a5d540de89e9fe90efdfc6973a4f -->
<g id="edge15" class="edge">
<title>dir_0134b0376fbe77322088b496fb368f9b&#45;&gt;dir_bdd9a5d540de89e9fe90efdfc6973a4f</title>
<path fill="none" stroke="black" d="M423.64,-159.97C431.96,-140.47 447.87,-108.56 470,-88 493.86,-65.84 507.68,-67.95 536.86,-54.4"/>
<polygon fill="black" stroke="black" points="538.57,-57.47 545.98,-49.9 535.47,-51.19 538.57,-57.47"/>
<g id="a_edge15&#45;headlabel"><a xlink:href="dir_000036_000000.html" target="_top" xlink:title="1">
<text text-anchor="middle" x="536.61" y="-59.1" font-family="Helvetica,sans-Serif" font-size="10.00">1</text>
</a>
</g>
</g>
<!-- dir_eabe988c95970cb88382a9440b1d86c2 -->
<g id="node5" class="node">
<title>dir_eabe988c95970cb88382a9440b1d86c2</title>
<g id="a_node5"><a xlink:href="dir_eabe988c95970cb88382a9440b1d86c2.html" target="_top" xlink:title="bdmfs_vfat">
<polygon fill="white" stroke="red" points="449.5,-268 384.5,-268 384.5,-232 449.5,-232 449.5,-268"/>
<text text-anchor="middle" x="417" y="-247.5" font-family="Helvetica,sans-Serif" font-size="10.00">bdmfs_vfat</text>
</a>
</g>
</g>
<!-- dir_eabe988c95970cb88382a9440b1d86c2&#45;&gt;dir_9be0baa3d4a3e9f480a9ee70594037fa -->
<g id="edge7" class="edge">
<title>dir_eabe988c95970cb88382a9440b1d86c2&#45;&gt;dir_9be0baa3d4a3e9f480a9ee70594037fa</title>
<path fill="none" stroke="black" d="M400.84,-231.87C377.29,-206.92 333.44,-160.45 306.38,-131.77"/>
<polygon fill="black" stroke="black" points="308.63,-129.06 299.22,-124.19 303.54,-133.86 308.63,-129.06"/>
<g id="a_edge7&#45;headlabel"><a xlink:href="dir_000038_000214.html" target="_top" xlink:title="29">
<text text-anchor="middle" x="313.16" y="-127.23" font-family="Helvetica,sans-Serif" font-size="10.00">29</text>
</a>
</g>
</g>
<!-- dir_eabe988c95970cb88382a9440b1d86c2&#45;&gt;dir_0134b0376fbe77322088b496fb368f9b -->
<g id="edge5" class="edge">
<title>dir_eabe988c95970cb88382a9440b1d86c2&#45;&gt;dir_0134b0376fbe77322088b496fb368f9b</title>
<path fill="none" stroke="black" d="M417,-231.7C417,-223.98 417,-214.71 417,-206.11"/>
<polygon fill="black" stroke="black" points="420.5,-206.1 417,-196.1 413.5,-206.1 420.5,-206.1"/>
<g id="a_edge5&#45;headlabel"><a xlink:href="dir_000038_000036.html" target="_top" xlink:title="4">
<text text-anchor="middle" x="423.34" y="-207.2" font-family="Helvetica,sans-Serif" font-size="10.00">4</text>
</a>
</g>
</g>
<!-- dir_eabe988c95970cb88382a9440b1d86c2&#45;&gt;dir_bdd9a5d540de89e9fe90efdfc6973a4f -->
<g id="edge6" class="edge">
<title>dir_eabe988c95970cb88382a9440b1d86c2&#45;&gt;dir_bdd9a5d540de89e9fe90efdfc6973a4f</title>
<path fill="none" stroke="black" d="M449.63,-235.6C486.14,-220.55 540.43,-197.94 542,-196 573.01,-157.65 576.24,-97.47 575.1,-62.57"/>
<polygon fill="black" stroke="black" points="578.57,-62.01 574.6,-52.19 571.58,-62.34 578.57,-62.01"/>
<g id="a_edge6&#45;headlabel"><a xlink:href="dir_000038_000000.html" target="_top" xlink:title="5">
<text text-anchor="middle" x="581.58" y="-62.96" font-family="Helvetica,sans-Serif" font-size="10.00">5</text>
</a>
</g>
</g>
<!-- dir_a0342a6ef9487eda55789d2e07a75ee7 -->
<g id="node6" class="node">
<title>dir_a0342a6ef9487eda55789d2e07a75ee7</title>
<g id="a_node6"><a xlink:href="dir_a0342a6ef9487eda55789d2e07a75ee7.html" target="_top" xlink:title="devfs">
<polygon fill="white" stroke="red" points="294,-268 240,-268 240,-232 294,-232 294,-268"/>
<text text-anchor="middle" x="267" y="-247.5" font-family="Helvetica,sans-Serif" font-size="10.00">devfs</text>
</a>
</g>
</g>
<!-- dir_a0342a6ef9487eda55789d2e07a75ee7&#45;&gt;dir_9be0baa3d4a3e9f480a9ee70594037fa -->
<g id="edge16" class="edge">
<title>dir_a0342a6ef9487eda55789d2e07a75ee7&#45;&gt;dir_9be0baa3d4a3e9f480a9ee70594037fa</title>
<path fill="none" stroke="black" d="M268.93,-231.87C271.66,-207.67 276.67,-163.21 279.91,-134.39"/>
<polygon fill="black" stroke="black" points="283.42,-134.52 281.06,-124.19 276.47,-133.73 283.42,-134.52"/>
<g id="a_edge16&#45;headlabel"><a xlink:href="dir_000040_000214.html" target="_top" xlink:title="18">
<text text-anchor="middle" x="285.84" y="-135.91" font-family="Helvetica,sans-Serif" font-size="10.00">18</text>
</a>
</g>
</g>
<!-- dir_6ec8af8771869123149626592b760e4b -->
<g id="node7" class="node">
<title>dir_6ec8af8771869123149626592b760e4b</title>
<g id="a_node7"><a xlink:href="dir_6ec8af8771869123149626592b760e4b.html" target="_top" xlink:title="fakehost">
<polygon fill="white" stroke="red" points="78,-268 24,-268 24,-232 78,-232 78,-268"/>
<text text-anchor="middle" x="51" y="-247.5" font-family="Helvetica,sans-Serif" font-size="10.00">fakehost</text>
</a>
</g>
</g>
<!-- dir_6ec8af8771869123149626592b760e4b&#45;&gt;dir_9be0baa3d4a3e9f480a9ee70594037fa -->
<g id="edge10" class="edge">
<title>dir_6ec8af8771869123149626592b760e4b&#45;&gt;dir_9be0baa3d4a3e9f480a9ee70594037fa</title>
<path fill="none" stroke="black" d="M69.4,-231.79C92.47,-210.88 133.87,-175.5 174,-152 196.83,-138.64 224.38,-127.3 246.07,-119.35"/>
<polygon fill="black" stroke="black" points="247.36,-122.6 255.59,-115.94 244.99,-116.01 247.36,-122.6"/>
<g id="a_edge10&#45;headlabel"><a xlink:href="dir_000042_000214.html" target="_top" xlink:title="22">
<text text-anchor="middle" x="244.93" y="-123.99" font-family="Helvetica,sans-Serif" font-size="10.00">22</text>
</a>
</g>
</g>
<!-- dir_3d3c25f590b74dfbd50a8b02c417c665 -->
<g id="node8" class="node">
<title>dir_3d3c25f590b74dfbd50a8b02c417c665</title>
<g id="a_node8"><a xlink:href="dir_3d3c25f590b74dfbd50a8b02c417c665.html" target="_top" xlink:title="filexio">
<polygon fill="white" stroke="red" points="366,-268 312,-268 312,-232 366,-232 366,-268"/>
<text text-anchor="middle" x="339" y="-247.5" font-family="Helvetica,sans-Serif" font-size="10.00">filexio</text>
</a>
</g>
</g>
<!-- dir_3d3c25f590b74dfbd50a8b02c417c665&#45;&gt;dir_9be0baa3d4a3e9f480a9ee70594037fa -->
<g id="edge3" class="edge">
<title>dir_3d3c25f590b74dfbd50a8b02c417c665&#45;&gt;dir_9be0baa3d4a3e9f480a9ee70594037fa</title>
<path fill="none" stroke="black" d="M332.25,-231.87C322.62,-207.46 304.86,-162.43 293.5,-133.64"/>
<polygon fill="black" stroke="black" points="296.7,-132.21 289.78,-124.19 290.19,-134.78 296.7,-132.21"/>
<g id="a_edge3&#45;headlabel"><a xlink:href="dir_000044_000214.html" target="_top" xlink:title="16">
<text text-anchor="middle" x="300.66" y="-132.01" font-family="Helvetica,sans-Serif" font-size="10.00">16</text>
</a>
</g>
</g>
<!-- dir_3d3c25f590b74dfbd50a8b02c417c665&#45;&gt;dir_bdd9a5d540de89e9fe90efdfc6973a4f -->
<g id="edge4" class="edge">
<title>dir_3d3c25f590b74dfbd50a8b02c417c665&#45;&gt;dir_bdd9a5d540de89e9fe90efdfc6973a4f</title>
<path fill="none" stroke="black" d="M366.29,-235.93C369.54,-234.53 372.82,-233.19 376,-232 428.93,-212.15 455.16,-232.89 498,-196 538.98,-160.72 559.01,-98.23 567.56,-62.36"/>
<polygon fill="black" stroke="black" points="571.08,-62.67 569.86,-52.14 564.25,-61.13 571.08,-62.67"/>
<g id="a_edge4&#45;headlabel"><a xlink:href="dir_000044_000000.html" target="_top" xlink:title="2">
<text text-anchor="middle" x="573.06" y="-64.3" font-family="Helvetica,sans-Serif" font-size="10.00">2</text>
</a>
</g>
</g>
<!-- dir_bb1a65baea34b53b4bbf06e6d3ddfe57 -->
<g id="node9" class="node">
<title>dir_bb1a65baea34b53b4bbf06e6d3ddfe57</title>
<g id="a_node9"><a xlink:href="dir_bb1a65baea34b53b4bbf06e6d3ddfe57.html" target="_top" xlink:title="http">
<polygon fill="white" stroke="red" points="150,-268 96,-268 96,-232 150,-232 150,-268"/>
<text text-anchor="middle" x="123" y="-247.5" font-family="Helvetica,sans-Serif" font-size="10.00">http</text>
</a>
</g>
</g>
<!-- dir_bb1a65baea34b53b4bbf06e6d3ddfe57&#45;&gt;dir_9be0baa3d4a3e9f480a9ee70594037fa -->
<g id="edge18" class="edge">
<title>dir_bb1a65baea34b53b4bbf06e6d3ddfe57&#45;&gt;dir_9be0baa3d4a3e9f480a9ee70594037fa</title>
<path fill="none" stroke="black" d="M139.6,-231.91C159.18,-212.04 192.98,-178.57 224,-152 232.61,-144.62 242.28,-136.99 251.26,-130.16"/>
<polygon fill="black" stroke="black" points="253.37,-132.95 259.26,-124.14 249.16,-127.36 253.37,-132.95"/>
<g id="a_edge18&#45;headlabel"><a xlink:href="dir_000046_000214.html" target="_top" xlink:title="15">
<text text-anchor="middle" x="252.21" y="-134.88" font-family="Helvetica,sans-Serif" font-size="10.00">15</text>
</a>
</g>
</g>
<!-- dir_c49d6f7b24cb4247c18d467361672153 -->
<g id="node10" class="node">
<title>dir_c49d6f7b24cb4247c18d467361672153</title>
<g id="a_node10"><a xlink:href="dir_c49d6f7b24cb4247c18d467361672153.html" target="_top" xlink:title="netfs">
<polygon fill="white" stroke="red" points="222,-268 168,-268 168,-232 222,-232 222,-268"/>
<text text-anchor="middle" x="195" y="-247.5" font-family="Helvetica,sans-Serif" font-size="10.00">netfs</text>
</a>
</g>
</g>
<!-- dir_c49d6f7b24cb4247c18d467361672153&#45;&gt;dir_9be0baa3d4a3e9f480a9ee70594037fa -->
<g id="edge11" class="edge">
<title>dir_c49d6f7b24cb4247c18d467361672153&#45;&gt;dir_9be0baa3d4a3e9f480a9ee70594037fa</title>
<path fill="none" stroke="black" d="M205.72,-231.82C212.18,-221.45 220.57,-207.97 228,-196 241.21,-174.71 256.15,-150.52 267.13,-132.74"/>
<polygon fill="black" stroke="black" points="270.2,-134.42 272.47,-124.07 264.24,-130.74 270.2,-134.42"/>
<g id="a_edge11&#45;headlabel"><a xlink:href="dir_000048_000214.html" target="_top" xlink:title="31">
<text text-anchor="middle" x="270.73" y="-136.47" font-family="Helvetica,sans-Serif" font-size="10.00">31</text>
</a>
</g>
</g>
<!-- dir_c49d6f7b24cb4247c18d467361672153&#45;&gt;dir_40ac35421bc63b72c26b6c69b1517fd6 -->
<g id="edge12" class="edge">
<title>dir_c49d6f7b24cb4247c18d467361672153&#45;&gt;dir_40ac35421bc63b72c26b6c69b1517fd6</title>
<path fill="none" stroke="black" d="M198.81,-231.94C205.9,-201.86 222.63,-137.88 247,-88 251.57,-78.65 257.6,-69.06 263.42,-60.65"/>
<polygon fill="black" stroke="black" points="266.37,-62.55 269.34,-52.38 260.68,-58.48 266.37,-62.55"/>
<g id="a_edge12&#45;headlabel"><a xlink:href="dir_000048_000089.html" target="_top" xlink:title="3">
<text text-anchor="middle" x="266.59" y="-64.63" font-family="Helvetica,sans-Serif" font-size="10.00">3</text>
</a>
</g>
</g>
<!-- dir_c49d6f7b24cb4247c18d467361672153&#45;&gt;dir_bdd9a5d540de89e9fe90efdfc6973a4f -->
<g id="edge13" class="edge">
<title>dir_c49d6f7b24cb4247c18d467361672153&#45;&gt;dir_bdd9a5d540de89e9fe90efdfc6973a4f</title>
<path fill="none" stroke="black" d="M222.2,-235.19C225.13,-234 228.1,-232.9 231,-232 326.46,-202.37 367.55,-247.86 453,-196 480.71,-179.18 531.47,-101.86 557.18,-60.8"/>
<polygon fill="black" stroke="black" points="560.25,-62.48 562.56,-52.15 554.31,-58.79 560.25,-62.48"/>
<g id="a_edge13&#45;headlabel"><a xlink:href="dir_000048_000000.html" target="_top" xlink:title="1">
<text text-anchor="middle" x="560.77" y="-64.54" font-family="Helvetica,sans-Serif" font-size="10.00">1</text>
</a>
</g>
</g>
<!-- dir_bdd9a5d540de89e9fe90efdfc6973a4f&#45;&gt;dir_9be0baa3d4a3e9f480a9ee70594037fa -->
<g id="edge17" class="edge">
<title>dir_bdd9a5d540de89e9fe90efdfc6973a4f&#45;&gt;dir_9be0baa3d4a3e9f480a9ee70594037fa</title>
<path fill="none" stroke="black" d="M550.5,-52.18C471.57,-81.06 373.15,-95.66 320.31,-101.63"/>
<polygon fill="black" stroke="black" points="319.62,-98.18 310.06,-102.74 320.38,-105.14 319.62,-98.18"/>
<g id="a_edge17&#45;headlabel"><a xlink:href="dir_000000_000214.html" target="_top" xlink:title="20">
<text text-anchor="middle" x="322.89" y="-92.47" font-family="Helvetica,sans-Serif" font-size="10.00">20</text>
</a>
</g>
</g>
</g>
</svg>
        <g id="navigator" transform="translate(0 0)" fill="#404254">
                <rect fill="#f2f5e9" fill-opacity="0.5" stroke="#606060" stroke-width=".5" x="0" y="0" width="60" height="60"/>
                <use id="zoomplus" xlink:href="#zoomPlus" x="17" y="9" onmousedown="handleZoom(evt,'in')"/>
                <use id="zoomminus" xlink:href="#zoomMin" x="42" y="9" onmousedown="handleZoom(evt,'out')"/>
                <use id="reset" xlink:href="#resetDef" x="30" y="36" onmousedown="handleReset()"/>
                <g id="arrowUp" xlink:href="#dirArrow" transform="translate(30 24)" onmousedown="handlePan(0,-1)">
                  <use xlink:href="#rim" fill="#404040">
                        <set attributeName="fill" to="#808080" begin="arrowUp.mouseover" end="arrowUp.mouseout"/>
                  </use>
                  <path fill="none" stroke="white" stroke-width="1.5" d="M0,-3.0v7 M-2.5,-0.5L0,-3.0L2.5,-0.5"/>
                </g>
                <g id="arrowRight" xlink:href="#dirArrow" transform="rotate(90) translate(36 -43)" onmousedown="handlePan(1,0)">
                  <use xlink:href="#rim" fill="#404040">
                        <set attributeName="fill" to="#808080" begin="arrowRight.mouseover" end="arrowRight.mouseout"/>
                  </use>
                  <path fill="none" stroke="white" stroke-width="1.5" d="M0,-3.0v7 M-2.5,-0.5L0,-3.0L2.5,-0.5"/>
                </g>
                <g id="arrowDown" xlink:href="#dirArrow" transform="rotate(180) translate(-30 -48)" onmousedown="handlePan(0,1)">
                  <use xlink:href="#rim" fill="#404040">
                        <set attributeName="fill" to="#808080" begin="arrowDown.mouseover" end="arrowDown.mouseout"/>
                  </use>
                  <path fill="none" stroke="white" stroke-width="1.5" d="M0,-3.0v7 M-2.5,-0.5L0,-3.0L2.5,-0.5"/>
                </g>
                <g id="arrowLeft" xlink:href="#dirArrow" transform="rotate(270) translate(-36 17)" onmousedown="handlePan(-1,0)">
                  <use xlink:href="#rim" fill="#404040">
                        <set attributeName="fill" to="#808080" begin="arrowLeft.mouseover" end="arrowLeft.mouseout"/>
                  </use>
                  <path fill="none" stroke="white" stroke-width="1.5" d="M0,-3.0v7 M-2.5,-0.5L0,-3.0L2.5,-0.5"/>
                </g>
        </g>
        <svg viewBox="0 0 15 15" width="100%" height="30px" preserveAspectRatio="xMaxYMin meet">
         <g id="arrow_out" transform="scale(0.3 0.3)">
          <a xlink:href="dir_f24daea2522ffa8b6dc5fa9cdf5b8f5c_dep_org.svg" target="_base">
           <rect id="button" ry="5" rx="5" y="6" x="6" height="38" width="38"
                fill="#f2f5e9" fill-opacity="0.5" stroke="#606060" stroke-width="1.0"/>
           <path id="arrow"
             d="M 11.500037,31.436501 C 11.940474,20.09759 22.043105,11.32322 32.158766,21.979434 L 37.068811,17.246167 C 37.068811,17.246167 37.088388,32 37.088388,32 L 22.160133,31.978069 C 22.160133,31.978069 26.997745,27.140456 26.997745,27.140456 C 18.528582,18.264221 13.291696,25.230495 11.500037,31.436501 z"
             style="fill:#404040;"/>
          </a>
         </g>
        </svg>
</svg>
