<?xml version="1.0" encoding="UTF-8" standalone="no"?>
<!DOCTYPE svg PUBLIC "-//W3C//DTD SVG 1.1//EN"
 "http://www.w3.org/Graphics/SVG/1.1/DTD/svg11.dtd">
<!-- Generated by graphviz version 2.44.0 ()
 -->
<!-- Title: iop/hdd/libapa Pages: 1 -->
<svg width="254pt" height="303pt"
 viewBox="0.00 0.00 254.00 303.00" xmlns="http://www.w3.org/2000/svg" xmlns:xlink="http://www.w3.org/1999/xlink">
<g id="graph0" class="graph" transform="scale(1 1) rotate(0) translate(4 299)">
<title>iop/hdd/libapa</title>
<polygon fill="white" stroke="transparent" points="-4,4 -4,-299 250,-299 250,4 -4,4"/>
<g id="clust1" class="cluster">
<title>clusterdir_b6763ea08a8f9364194ebe3565e6b1f0</title>
<g id="a_clust1"><a xlink:href="dir_b6763ea08a8f9364194ebe3565e6b1f0.html" target="_top" xlink:title="hdd">
<polygon fill="#ddddee" stroke="black" points="8,-200 8,-287 238,-287 238,-200 8,-200"/>
<text text-anchor="middle" x="123" y="-275" font-family="Helvetica,sans-Serif" font-size="10.00">hdd</text>
</a>
</g>
</g>
<g id="clust2" class="cluster">
<title>clusterdir_74c6a9c949eb32128aa5a6adc613f35b</title>
<g id="a_clust2"><a xlink:href="dir_74c6a9c949eb32128aa5a6adc613f35b.html" target="_top">
<polygon fill="#eeeeff" stroke="black" points="16,-208 16,-260 230,-260 230,-208 16,-208"/>
</a>
</g>
</g>
<!-- dir_74c6a9c949eb32128aa5a6adc613f35b -->
<g id="node1" class="node">
<title>dir_74c6a9c949eb32128aa5a6adc613f35b</title>
<text text-anchor="middle" x="195" y="-231.5" font-family="Helvetica,sans-Serif" font-size="10.00">libapa</text>
</g>
<!-- dir_ba20cf19084f343ca09b1f733fd5cb70 -->
<g id="node2" class="node">
<title>dir_ba20cf19084f343ca09b1f733fd5cb70</title>
<g id="a_node2"><a xlink:href="dir_ba20cf19084f343ca09b1f733fd5cb70.html" target="_top" xlink:title="include">
<polygon fill="white" stroke="black" points="78,-252 24,-252 24,-216 78,-216 78,-252"/>
<text text-anchor="middle" x="51" y="-231.5" font-family="Helvetica,sans-Serif" font-size="10.00">include</text>
</a>
</g>
</g>
<!-- dir_bdd9a5d540de89e9fe90efdfc6973a4f -->
<g id="node4" class="node">
<title>dir_bdd9a5d540de89e9fe90efdfc6973a4f</title>
<g id="a_node4"><a xlink:href="dir_bdd9a5d540de89e9fe90efdfc6973a4f.html" target="_top" xlink:title="common">
<polygon fill="white" stroke="red" points="105,-108 51,-108 51,-72 105,-72 105,-108"/>
<text text-anchor="middle" x="78" y="-87.5" font-family="Helvetica,sans-Serif" font-size="10.00">common</text>
</a>
</g>
</g>
<!-- dir_ba20cf19084f343ca09b1f733fd5cb70&#45;&gt;dir_bdd9a5d540de89e9fe90efdfc6973a4f -->
<g id="edge7" class="edge">
<title>dir_ba20cf19084f343ca09b1f733fd5cb70&#45;&gt;dir_bdd9a5d540de89e9fe90efdfc6973a4f</title>
<path fill="none" stroke="black" d="M52.92,-215.84C55.07,-197.84 58.93,-168.78 64,-144 65.74,-135.48 68.03,-126.28 70.24,-117.98"/>
<polygon fill="black" stroke="black" points="73.69,-118.64 72.96,-108.07 66.94,-116.79 73.69,-118.64"/>
<g id="a_edge7&#45;headlabel"><a xlink:href="dir_000282_000000.html" target="_top" xlink:title="1">
<text text-anchor="middle" x="75.48" y="-120.36" font-family="Helvetica,sans-Serif" font-size="10.00">1</text>
</a>
</g>
</g>
<!-- dir_d55f23d8ba757b23ee1ce2ded4afdb2b -->
<g id="node3" class="node">
<title>dir_d55f23d8ba757b23ee1ce2ded4afdb2b</title>
<g id="a_node3"><a xlink:href="dir_d55f23d8ba757b23ee1ce2ded4afdb2b.html" target="_top" xlink:title="src">
<polygon fill="white" stroke="black" points="150,-252 96,-252 96,-216 150,-216 150,-252"/>
<text text-anchor="middle" x="123" y="-231.5" font-family="Helvetica,sans-Serif" font-size="10.00">src</text>
</a>
</g>
</g>
<!-- dir_d55f23d8ba757b23ee1ce2ded4afdb2b&#45;&gt;dir_bdd9a5d540de89e9fe90efdfc6973a4f -->
<g id="edge4" class="edge">
<title>dir_d55f23d8ba757b23ee1ce2ded4afdb2b&#45;&gt;dir_bdd9a5d540de89e9fe90efdfc6973a4f</title>
<path fill="none" stroke="black" d="M113.22,-215.8C107.79,-205.65 101.29,-192.4 97,-180 89.99,-159.75 85.08,-135.98 82,-118.1"/>
<polygon fill="black" stroke="black" points="85.43,-117.37 80.37,-108.07 78.52,-118.5 85.43,-117.37"/>
<g id="a_edge4&#45;headlabel"><a xlink:href="dir_000283_000000.html" target="_top" xlink:title="12">
<text text-anchor="middle" x="88.81" y="-117.96" font-family="Helvetica,sans-Serif" font-size="10.00">12</text>
</a>
</g>
</g>
<!-- dir_9be0baa3d4a3e9f480a9ee70594037fa -->
<g id="node5" class="node">
<title>dir_9be0baa3d4a3e9f480a9ee70594037fa</title>
<g id="a_node5"><a xlink:href="dir_9be0baa3d4a3e9f480a9ee70594037fa.html" target="_top" xlink:title="kernel">
<polygon fill="white" stroke="red" points="132,-36 78,-36 78,0 132,0 132,-36"/>
<text text-anchor="middle" x="105" y="-15.5" font-family="Helvetica,sans-Serif" font-size="10.00">kernel</text>
</a>
</g>
</g>
<!-- dir_d55f23d8ba757b23ee1ce2ded4afdb2b&#45;&gt;dir_9be0baa3d4a3e9f480a9ee70594037fa -->
<g id="edge3" class="edge">
<title>dir_d55f23d8ba757b23ee1ce2ded4afdb2b&#45;&gt;dir_9be0baa3d4a3e9f480a9ee70594037fa</title>
<path fill="none" stroke="black" d="M143.82,-215.62C153.46,-206.2 163.89,-193.7 169,-180 174.6,-165.01 172.68,-159.57 169,-144 160.31,-107.18 138.64,-69.07 122.92,-44.76"/>
<polygon fill="black" stroke="black" points="125.66,-42.56 117.22,-36.15 119.82,-46.42 125.66,-42.56"/>
<g id="a_edge3&#45;headlabel"><a xlink:href="dir_000283_000214.html" target="_top" xlink:title="13">
<text text-anchor="middle" x="130.01" y="-41.49" font-family="Helvetica,sans-Serif" font-size="10.00">13</text>
</a>
</g>
</g>
<!-- dir_6f16cad81de2453a6f48c5e272ba4a18 -->
<g id="node6" class="node">
<title>dir_6f16cad81de2453a6f48c5e272ba4a18</title>
<g id="a_node6"><a xlink:href="dir_6f16cad81de2453a6f48c5e272ba4a18.html" target="_top" xlink:title="dev9">
<polygon fill="white" stroke="red" points="160,-180 106,-180 106,-144 160,-144 160,-180"/>
<text text-anchor="middle" x="133" y="-159.5" font-family="Helvetica,sans-Serif" font-size="10.00">dev9</text>
</a>
</g>
</g>
<!-- dir_d55f23d8ba757b23ee1ce2ded4afdb2b&#45;&gt;dir_6f16cad81de2453a6f48c5e272ba4a18 -->
<g id="edge2" class="edge">
<title>dir_d55f23d8ba757b23ee1ce2ded4afdb2b&#45;&gt;dir_6f16cad81de2453a6f48c5e272ba4a18</title>
<path fill="none" stroke="black" d="M125.47,-215.7C126.57,-207.98 127.9,-198.71 129.13,-190.11"/>
<polygon fill="black" stroke="black" points="132.61,-190.5 130.56,-180.1 125.68,-189.51 132.61,-190.5"/>
<g id="a_edge2&#45;headlabel"><a xlink:href="dir_000283_000024.html" target="_top" xlink:title="4">
<text text-anchor="middle" x="134.91" y="-191.96" font-family="Helvetica,sans-Serif" font-size="10.00">4</text>
</a>
</g>
</g>
<!-- dir_bdd9a5d540de89e9fe90efdfc6973a4f&#45;&gt;dir_9be0baa3d4a3e9f480a9ee70594037fa -->
<g id="edge8" class="edge">
<title>dir_bdd9a5d540de89e9fe90efdfc6973a4f&#45;&gt;dir_9be0baa3d4a3e9f480a9ee70594037fa</title>
<path fill="none" stroke="black" d="M78.76,-71.7C81.01,-63.73 84.51,-54.1 88.31,-45.26"/>
<polygon fill="black" stroke="black" points="91.52,-46.65 92.51,-36.1 85.16,-43.74 91.52,-46.65"/>
<g id="a_edge8&#45;headlabel"><a xlink:href="dir_000000_000214.html" target="_top" xlink:title="20">
<text text-anchor="middle" x="92.61" y="-48.6" font-family="Helvetica,sans-Serif" font-size="10.00">20</text>
</a>
</g>
</g>
<!-- dir_9be0baa3d4a3e9f480a9ee70594037fa&#45;&gt;dir_bdd9a5d540de89e9fe90efdfc6973a4f -->
<g id="edge1" class="edge">
<title>dir_9be0baa3d4a3e9f480a9ee70594037fa&#45;&gt;dir_bdd9a5d540de89e9fe90efdfc6973a4f</title>
<path fill="none" stroke="black" d="M104.3,-36.1C102.07,-44.04 98.58,-53.67 94.79,-62.51"/>
<polygon fill="black" stroke="black" points="91.56,-61.15 90.59,-71.7 97.93,-64.06 91.56,-61.15"/>
<g id="a_edge1&#45;headlabel"><a xlink:href="dir_000214_000000.html" target="_top" xlink:title="12">
<text text-anchor="middle" x="90.47" y="-54.2" font-family="Helvetica,sans-Serif" font-size="10.00">12</text>
</a>
</g>
</g>
<!-- dir_6f16cad81de2453a6f48c5e272ba4a18&#45;&gt;dir_bdd9a5d540de89e9fe90efdfc6973a4f -->
<g id="edge6" class="edge">
<title>dir_6f16cad81de2453a6f48c5e272ba4a18&#45;&gt;dir_bdd9a5d540de89e9fe90efdfc6973a4f</title>
<path fill="none" stroke="black" d="M119.4,-143.7C112.88,-135.39 104.93,-125.28 97.75,-116.14"/>
<polygon fill="black" stroke="black" points="100.37,-113.81 91.44,-108.1 94.87,-118.13 100.37,-113.81"/>
<g id="a_edge6&#45;headlabel"><a xlink:href="dir_000024_000000.html" target="_top" xlink:title="11">
<text text-anchor="middle" x="104.82" y="-112.38" font-family="Helvetica,sans-Serif" font-size="10.00">11</text>
</a>
</g>
</g>
<!-- dir_6f16cad81de2453a6f48c5e272ba4a18&#45;&gt;dir_9be0baa3d4a3e9f480a9ee70594037fa -->
<g id="edge5" class="edge">
<title>dir_6f16cad81de2453a6f48c5e272ba4a18&#45;&gt;dir_9be0baa3d4a3e9f480a9ee70594037fa</title>
<path fill="none" stroke="black" d="M129.62,-143.87C124.83,-119.56 116.01,-74.82 110.33,-46.01"/>
<polygon fill="black" stroke="black" points="113.76,-45.32 108.39,-36.19 106.89,-46.68 113.76,-45.32"/>
<g id="a_edge5&#45;headlabel"><a xlink:href="dir_000024_000214.html" target="_top" xlink:title="82">
<text text-anchor="middle" x="117.24" y="-45.8" font-family="Helvetica,sans-Serif" font-size="10.00">82</text>
</a>
</g>
</g>
</g>
</svg>
