<?xml version="1.0" encoding="UTF-8" standalone="no"?>
<!DOCTYPE svg PUBLIC "-//W3C//DTD SVG 1.1//EN"
 "http://www.w3.org/Graphics/SVG/1.1/DTD/svg11.dtd">
<!-- Generated by graphviz version 2.44.0 ()
 -->
<!-- Title: ee/rpc/multitap/src Pages: 1 -->
<svg width="210pt" height="295pt"
 viewBox="0.00 0.00 210.45 295.00" xmlns="http://www.w3.org/2000/svg" xmlns:xlink="http://www.w3.org/1999/xlink">
<g id="graph0" class="graph" transform="scale(1 1) rotate(0) translate(4 291)">
<title>ee/rpc/multitap/src</title>
<polygon fill="white" stroke="transparent" points="-4,4 -4,-291 206.45,-291 206.45,4 -4,4"/>
<g id="clust1" class="cluster">
<title>clusterdir_4fe02c3598ec986dac9823d5144e53a1</title>
<g id="a_clust1"><a xlink:href="dir_4fe02c3598ec986dac9823d5144e53a1.html" target="_top" xlink:title="multitap">
<polygon fill="#ddddee" stroke="black" points="8,-136 8,-279 78,-279 78,-136 8,-136"/>
<text text-anchor="middle" x="43" y="-267" font-family="Helvetica,sans-Serif" font-size="10.00">multitap</text>
</a>
</g>
</g>
<!-- dir_e6a8a4ea8085298a3170c9700467a79c -->
<g id="node1" class="node">
<title>dir_e6a8a4ea8085298a3170c9700467a79c</title>
<g id="a_node1"><a xlink:href="dir_e6a8a4ea8085298a3170c9700467a79c.html" target="_top" xlink:title="include">
<polygon fill="none" stroke="black" points="70,-180 16,-180 16,-144 70,-144 70,-180"/>
<text text-anchor="middle" x="43" y="-159.5" font-family="Helvetica,sans-Serif" font-size="10.00">include</text>
</a>
</g>
</g>
<!-- dir_674d4bf0891c267e7e23627b72783290 -->
<g id="node2" class="node">
<title>dir_674d4bf0891c267e7e23627b72783290</title>
<g id="a_node2"><a xlink:href="dir_674d4bf0891c267e7e23627b72783290.html" target="_top" xlink:title="src">
<polygon fill="#eeeeff" stroke="black" points="70,-252 16,-252 16,-216 70,-216 70,-252"/>
<text text-anchor="middle" x="43" y="-231.5" font-family="Helvetica,sans-Serif" font-size="10.00">src</text>
</a>
</g>
</g>
<!-- dir_674d4bf0891c267e7e23627b72783290&#45;&gt;dir_e6a8a4ea8085298a3170c9700467a79c -->
<g id="edge5" class="edge">
<title>dir_674d4bf0891c267e7e23627b72783290&#45;&gt;dir_e6a8a4ea8085298a3170c9700467a79c</title>
<path fill="none" stroke="black" d="M43,-215.7C43,-207.98 43,-198.71 43,-190.11"/>
<polygon fill="black" stroke="black" points="46.5,-190.1 43,-180.1 39.5,-190.1 46.5,-190.1"/>
<g id="a_edge5&#45;headlabel"><a xlink:href="dir_000182_000252.html" target="_top" xlink:title="1">
<text text-anchor="middle" x="49.34" y="-191.2" font-family="Helvetica,sans-Serif" font-size="10.00">1</text>
</a>
</g>
</g>
<!-- dir_694ec83a64f58cbdefbefce65cd1011c -->
<g id="node3" class="node">
<title>dir_694ec83a64f58cbdefbefce65cd1011c</title>
<g id="a_node3"><a xlink:href="dir_694ec83a64f58cbdefbefce65cd1011c.html" target="_top" xlink:title="kernel">
<polygon fill="white" stroke="red" points="180,-180 126,-180 126,-144 180,-144 180,-180"/>
<text text-anchor="middle" x="153" y="-159.5" font-family="Helvetica,sans-Serif" font-size="10.00">kernel</text>
</a>
</g>
</g>
<!-- dir_674d4bf0891c267e7e23627b72783290&#45;&gt;dir_694ec83a64f58cbdefbefce65cd1011c -->
<g id="edge2" class="edge">
<title>dir_674d4bf0891c267e7e23627b72783290&#45;&gt;dir_694ec83a64f58cbdefbefce65cd1011c</title>
<path fill="none" stroke="black" d="M69.91,-215.88C84.16,-206.81 101.85,-195.55 117.24,-185.76"/>
<polygon fill="black" stroke="black" points="119.43,-188.51 125.99,-180.19 115.67,-182.61 119.43,-188.51"/>
<g id="a_edge2&#45;headlabel"><a xlink:href="dir_000182_000143.html" target="_top" xlink:title="1">
<text text-anchor="middle" x="117.92" y="-190.34" font-family="Helvetica,sans-Serif" font-size="10.00">1</text>
</a>
</g>
</g>
<!-- dir_a0a8ac7efb6662b749c1285408048e6d -->
<g id="node4" class="node">
<title>dir_a0a8ac7efb6662b749c1285408048e6d</title>
<g id="a_node4"><a xlink:href="dir_a0a8ac7efb6662b749c1285408048e6d.html" target="_top" xlink:title="erl">
<polygon fill="white" stroke="red" points="124,-108 70,-108 70,-72 124,-72 124,-108"/>
<text text-anchor="middle" x="97" y="-87.5" font-family="Helvetica,sans-Serif" font-size="10.00">erl</text>
</a>
</g>
</g>
<!-- dir_674d4bf0891c267e7e23627b72783290&#45;&gt;dir_a0a8ac7efb6662b749c1285408048e6d -->
<g id="edge3" class="edge">
<title>dir_674d4bf0891c267e7e23627b72783290&#45;&gt;dir_a0a8ac7efb6662b749c1285408048e6d</title>
<path fill="none" stroke="black" d="M57.22,-215.87C64.76,-205.96 73.57,-192.92 79,-180 87.29,-160.29 91.85,-136.49 94.3,-118.46"/>
<polygon fill="black" stroke="black" points="97.8,-118.68 95.54,-108.33 90.85,-117.82 97.8,-118.68"/>
<g id="a_edge3&#45;headlabel"><a xlink:href="dir_000182_000206.html" target="_top" xlink:title="1">
<text text-anchor="middle" x="100.18" y="-120.09" font-family="Helvetica,sans-Serif" font-size="10.00">1</text>
</a>
</g>
</g>
<!-- dir_bdd9a5d540de89e9fe90efdfc6973a4f -->
<g id="node5" class="node">
<title>dir_bdd9a5d540de89e9fe90efdfc6973a4f</title>
<g id="a_node5"><a xlink:href="dir_bdd9a5d540de89e9fe90efdfc6973a4f.html" target="_top" xlink:title="common">
<polygon fill="white" stroke="red" points="188,-36 134,-36 134,0 188,0 188,-36"/>
<text text-anchor="middle" x="161" y="-15.5" font-family="Helvetica,sans-Serif" font-size="10.00">common</text>
</a>
</g>
</g>
<!-- dir_674d4bf0891c267e7e23627b72783290&#45;&gt;dir_bdd9a5d540de89e9fe90efdfc6973a4f -->
<g id="edge4" class="edge">
<title>dir_674d4bf0891c267e7e23627b72783290&#45;&gt;dir_bdd9a5d540de89e9fe90efdfc6973a4f</title>
<path fill="none" stroke="black" d="M70.05,-232C104.3,-229.1 162.07,-218.42 189,-180 217.43,-139.44 194.06,-79.32 176.32,-45.19"/>
<polygon fill="black" stroke="black" points="179.34,-43.42 171.51,-36.28 173.19,-46.75 179.34,-43.42"/>
<g id="a_edge4&#45;headlabel"><a xlink:href="dir_000182_000000.html" target="_top" xlink:title="1">
<text text-anchor="middle" x="183.55" y="-42.74" font-family="Helvetica,sans-Serif" font-size="10.00">1</text>
</a>
</g>
</g>
<!-- dir_694ec83a64f58cbdefbefce65cd1011c&#45;&gt;dir_a0a8ac7efb6662b749c1285408048e6d -->
<g id="edge7" class="edge">
<title>dir_694ec83a64f58cbdefbefce65cd1011c&#45;&gt;dir_a0a8ac7efb6662b749c1285408048e6d</title>
<path fill="none" stroke="black" d="M139.16,-143.7C132.51,-135.39 124.42,-125.28 117.11,-116.14"/>
<polygon fill="black" stroke="black" points="119.66,-113.73 110.68,-108.1 114.2,-118.1 119.66,-113.73"/>
<g id="a_edge7&#45;headlabel"><a xlink:href="dir_000143_000206.html" target="_top" xlink:title="1">
<text text-anchor="middle" x="124.13" y="-112.26" font-family="Helvetica,sans-Serif" font-size="10.00">1</text>
</a>
</g>
</g>
<!-- dir_694ec83a64f58cbdefbefce65cd1011c&#45;&gt;dir_bdd9a5d540de89e9fe90efdfc6973a4f -->
<g id="edge6" class="edge">
<title>dir_694ec83a64f58cbdefbefce65cd1011c&#45;&gt;dir_bdd9a5d540de89e9fe90efdfc6973a4f</title>
<path fill="none" stroke="black" d="M149.38,-143.87C148.19,-119.67 150.4,-75.21 154,-46.39"/>
<polygon fill="black" stroke="black" points="157.51,-46.58 155.44,-36.19 150.57,-45.6 157.51,-46.58"/>
<g id="a_edge6&#45;headlabel"><a xlink:href="dir_000143_000000.html" target="_top" xlink:title="24">
<text text-anchor="middle" x="159.81" y="-48.04" font-family="Helvetica,sans-Serif" font-size="10.00">24</text>
</a>
</g>
</g>
<!-- dir_a0a8ac7efb6662b749c1285408048e6d&#45;&gt;dir_bdd9a5d540de89e9fe90efdfc6973a4f -->
<g id="edge1" class="edge">
<title>dir_a0a8ac7efb6662b749c1285408048e6d&#45;&gt;dir_bdd9a5d540de89e9fe90efdfc6973a4f</title>
<path fill="none" stroke="black" d="M112.82,-71.7C120.57,-63.22 130.04,-52.86 138.52,-43.58"/>
<polygon fill="black" stroke="black" points="141.2,-45.85 145.36,-36.1 136.03,-41.12 141.2,-45.85"/>
<g id="a_edge1&#45;headlabel"><a xlink:href="dir_000206_000000.html" target="_top" xlink:title="1">
<text text-anchor="middle" x="140.87" y="-47.92" font-family="Helvetica,sans-Serif" font-size="10.00">1</text>
</a>
</g>
</g>
<!-- dir_bdd9a5d540de89e9fe90efdfc6973a4f&#45;&gt;dir_694ec83a64f58cbdefbefce65cd1011c -->
<g id="edge8" class="edge">
<title>dir_bdd9a5d540de89e9fe90efdfc6973a4f&#45;&gt;dir_694ec83a64f58cbdefbefce65cd1011c</title>
<path fill="none" stroke="black" d="M164.62,-36.19C165.81,-60.42 163.59,-104.89 159.99,-133.68"/>
<polygon fill="black" stroke="black" points="156.49,-133.48 158.55,-143.87 163.42,-134.46 156.49,-133.48"/>
<g id="a_edge8&#45;headlabel"><a xlink:href="dir_000000_000143.html" target="_top" xlink:title="1">
<text text-anchor="middle" x="154.18" y="-127.02" font-family="Helvetica,sans-Serif" font-size="10.00">1</text>
</a>
</g>
</g>
</g>
</svg>
