<?xml version="1.0" encoding="UTF-8" standalone="no"?>
<!DOCTYPE svg PUBLIC "-//W3C//DTD SVG 1.1//EN"
 "http://www.w3.org/Graphics/SVG/1.1/DTD/svg11.dtd">
<!-- Generated by graphviz version 9.0.0 (20230911.1827)
 -->
<!-- Title: ee/network Pages: 1 -->
<svg width="328pt" height="142pt"
 viewBox="0.00 0.00 327.75 141.75" xmlns="http://www.w3.org/2000/svg" xmlns:xlink="http://www.w3.org/1999/xlink">
<g id="graph0" class="graph" transform="scale(1 1) rotate(0) translate(4 137.75)">
<title>ee/network</title>
<g id="clust1" class="cluster">
<title>clusterdir_049738f1909e8dc3e45fe1f6b3faa109</title>
<g id="a_clust1"><a xlink:href="dir_049738f1909e8dc3e45fe1f6b3faa109.html" target="_top" xlink:title="ee">
<polygon fill="#deebf9" stroke="#404040" stroke-dasharray="5,2" points="8,-8 8,-125.75 212,-125.75 212,-8 8,-8"/>
<text text-anchor="middle" x="110" y="-112.25" font-family="Helvetica,sans-Serif" font-size="10.00">ee</text>
</a>
</g>
</g>
<g id="clust2" class="cluster">
<title>clusterdir_b47d22a23da27aa98d6e01bcdbde3243</title>
<g id="a_clust2"><a xlink:href="dir_b47d22a23da27aa98d6e01bcdbde3243.html" target="_top">
<polygon fill="#deebf9" stroke="#404040" stroke-width="2" points="16,-63.25 16,-98.5 204,-98.5 204,-63.25 16,-63.25"/>
</a>
</g>
</g>
<!-- dir_694ec83a64f58cbdefbefce65cd1011c -->
<g id="node1" class="node">
<title>dir_694ec83a64f58cbdefbefce65cd1011c</title>
<g id="a_node1"><a xlink:href="dir_694ec83a64f58cbdefbefce65cd1011c.html" target="_top" xlink:title="kernel">
<polygon fill="#60a2e3" stroke="red" points="66.12,-35.25 23.88,-35.25 23.88,-16 66.12,-16 66.12,-35.25"/>
<text text-anchor="middle" x="45" y="-21.75" font-family="Helvetica,sans-Serif" font-size="10.00">kernel</text>
</a>
</g>
</g>
<!-- dir_a0a8ac7efb6662b749c1285408048e6d -->
<g id="node2" class="node">
<title>dir_a0a8ac7efb6662b749c1285408048e6d</title>
<g id="a_node2"><a xlink:href="dir_a0a8ac7efb6662b749c1285408048e6d.html" target="_top" xlink:title="erl">
<polygon fill="#60a2e3" stroke="red" points="116.4,-35.25 87.6,-35.25 87.6,-16 116.4,-16 116.4,-35.25"/>
<text text-anchor="middle" x="102" y="-21.75" font-family="Helvetica,sans-Serif" font-size="10.00">erl</text>
</a>
</g>
</g>
<!-- dir_b47d22a23da27aa98d6e01bcdbde3243 -->
<g id="node3" class="node">
<title>dir_b47d22a23da27aa98d6e01bcdbde3243</title>
<text text-anchor="middle" x="171" y="-77" font-family="Helvetica,sans-Serif" font-size="10.00">network</text>
</g>
<!-- dir_2103a4ed81746d00ca3b9488f9daf9c4 -->
<g id="node4" class="node">
<title>dir_2103a4ed81746d00ca3b9488f9daf9c4</title>
<g id="a_node4"><a xlink:href="dir_2103a4ed81746d00ca3b9488f9daf9c4.html" target="_top" xlink:title="netman">
<polygon fill="#60a2e3" stroke="#404040" points="128.12,-90.5 79.88,-90.5 79.88,-71.25 128.12,-71.25 128.12,-90.5"/>
<text text-anchor="middle" x="104" y="-77" font-family="Helvetica,sans-Serif" font-size="10.00">netman</text>
</a>
</g>
</g>
<!-- dir_2103a4ed81746d00ca3b9488f9daf9c4&#45;&gt;dir_694ec83a64f58cbdefbefce65cd1011c -->
<g id="edge3" class="edge">
<title>dir_2103a4ed81746d00ca3b9488f9daf9c4&#45;&gt;dir_694ec83a64f58cbdefbefce65cd1011c</title>
<g id="a_edge3"><a xlink:href="dir_000207_000173.html" target="_top">
<path fill="none" stroke="#63b8ff" d="M93.99,-70.84C85.63,-63.3 73.5,-52.35 63.4,-43.23"/>
<polygon fill="#63b8ff" stroke="#63b8ff" points="65.75,-40.64 55.98,-36.54 61.06,-45.84 65.75,-40.64"/>
</a>
</g>
<g id="a_edge3&#45;headlabel"><a xlink:href="dir_000207_000173.html" target="_top" xlink:title="3">
<text text-anchor="middle" x="69.2" y="-36.05" font-family="Helvetica,sans-Serif" font-size="10.00" fill="#63b8ff">3</text>
</a>
</g>
</g>
<!-- dir_2103a4ed81746d00ca3b9488f9daf9c4&#45;&gt;dir_a0a8ac7efb6662b749c1285408048e6d -->
<g id="edge1" class="edge">
<title>dir_2103a4ed81746d00ca3b9488f9daf9c4&#45;&gt;dir_a0a8ac7efb6662b749c1285408048e6d</title>
<g id="a_edge1"><a xlink:href="dir_000207_000044.html" target="_top">
<path fill="none" stroke="#63b8ff" d="M103.67,-71.08C103.42,-64.49 103.07,-55.21 102.76,-46.82"/>
<polygon fill="#63b8ff" stroke="#63b8ff" points="106.27,-46.98 102.39,-37.12 99.27,-47.25 106.27,-46.98"/>
</a>
</g>
<g id="a_edge1&#45;headlabel"><a xlink:href="dir_000207_000044.html" target="_top" xlink:title="1">
<text text-anchor="middle" x="109.18" y="-45.08" font-family="Helvetica,sans-Serif" font-size="10.00" fill="#63b8ff">1</text>
</a>
</g>
</g>
<!-- dir_0981ace215aa2029f526b70c145b9fbe -->
<g id="node6" class="node">
<title>dir_0981ace215aa2029f526b70c145b9fbe</title>
<g id="a_node6"><a xlink:href="dir_0981ace215aa2029f526b70c145b9fbe.html" target="_top" xlink:title="iop">
<polygon fill="#deebf9" stroke="red" points="248.4,-35.25 219.6,-35.25 219.6,-16 248.4,-16 248.4,-35.25"/>
<text text-anchor="middle" x="234" y="-21.75" font-family="Helvetica,sans-Serif" font-size="10.00">iop</text>
</a>
</g>
</g>
<!-- dir_2103a4ed81746d00ca3b9488f9daf9c4&#45;&gt;dir_0981ace215aa2029f526b70c145b9fbe -->
<g id="edge4" class="edge">
<title>dir_2103a4ed81746d00ca3b9488f9daf9c4&#45;&gt;dir_0981ace215aa2029f526b70c145b9fbe</title>
<g id="a_edge4"><a xlink:href="dir_000207_000167.html" target="_top">
<path fill="none" stroke="#63b8ff" d="M120.93,-70.83C126.04,-68.25 131.69,-65.52 137,-63.25 167.78,-50.1 179.25,-49.51 208.48,-38.19"/>
<polygon fill="#63b8ff" stroke="#63b8ff" points="209.75,-41.45 217.72,-34.47 207.14,-34.96 209.75,-41.45"/>
</a>
</g>
<g id="a_edge4&#45;headlabel"><a xlink:href="dir_000207_000167.html" target="_top" xlink:title="1">
<text text-anchor="middle" x="208.88" y="-40.98" font-family="Helvetica,sans-Serif" font-size="10.00" fill="#63b8ff">1</text>
</a>
</g>
</g>
<!-- dir_bdd9a5d540de89e9fe90efdfc6973a4f -->
<g id="node7" class="node">
<title>dir_bdd9a5d540de89e9fe90efdfc6973a4f</title>
<g id="a_node7"><a xlink:href="dir_bdd9a5d540de89e9fe90efdfc6973a4f.html" target="_top" xlink:title="common">
<polygon fill="#deebf9" stroke="red" points="319.75,-35.25 266.25,-35.25 266.25,-16 319.75,-16 319.75,-35.25"/>
<text text-anchor="middle" x="293" y="-21.75" font-family="Helvetica,sans-Serif" font-size="10.00">common</text>
</a>
</g>
</g>
<!-- dir_2103a4ed81746d00ca3b9488f9daf9c4&#45;&gt;dir_bdd9a5d540de89e9fe90efdfc6973a4f -->
<g id="edge2" class="edge">
<title>dir_2103a4ed81746d00ca3b9488f9daf9c4&#45;&gt;dir_bdd9a5d540de89e9fe90efdfc6973a4f</title>
<g id="a_edge2"><a xlink:href="dir_000207_000022.html" target="_top">
<path fill="none" stroke="#63b8ff" d="M120.11,-70.8C125.38,-68.09 131.33,-65.31 137,-63.25 185.27,-45.74 201.66,-47.53 254.75,-35.7"/>
<polygon fill="#63b8ff" stroke="#63b8ff" points="255.44,-39.13 264.4,-33.48 253.87,-32.31 255.44,-39.13"/>
</a>
</g>
<g id="a_edge2&#45;headlabel"><a xlink:href="dir_000207_000022.html" target="_top" xlink:title="9">
<text text-anchor="middle" x="254.05" y="-38.49" font-family="Helvetica,sans-Serif" font-size="10.00" fill="#63b8ff">9</text>
</a>
</g>
</g>
<!-- dir_ca24a423c1b235320d00c488564f2476 -->
<g id="node5" class="node">
<title>dir_ca24a423c1b235320d00c488564f2476</title>
<g id="a_node5"><a xlink:href="dir_ca24a423c1b235320d00c488564f2476.html" target="_top" xlink:title="tcpip">
<polygon fill="#60a2e3" stroke="#404040" points="61.5,-90.5 24.5,-90.5 24.5,-71.25 61.5,-71.25 61.5,-90.5"/>
<text text-anchor="middle" x="43" y="-77" font-family="Helvetica,sans-Serif" font-size="10.00">tcpip</text>
</a>
</g>
</g>
<!-- dir_ca24a423c1b235320d00c488564f2476&#45;&gt;dir_694ec83a64f58cbdefbefce65cd1011c -->
<g id="edge6" class="edge">
<title>dir_ca24a423c1b235320d00c488564f2476&#45;&gt;dir_694ec83a64f58cbdefbefce65cd1011c</title>
<g id="a_edge6"><a xlink:href="dir_000413_000173.html" target="_top">
<path fill="none" stroke="#63b8ff" d="M43.33,-71.08C43.58,-64.49 43.93,-55.21 44.24,-46.82"/>
<polygon fill="#63b8ff" stroke="#63b8ff" points="47.73,-47.25 44.61,-37.12 40.73,-46.98 47.73,-47.25"/>
</a>
</g>
<g id="a_edge6&#45;headlabel"><a xlink:href="dir_000413_000173.html" target="_top" xlink:title="3">
<text text-anchor="middle" x="50.49" y="-45.56" font-family="Helvetica,sans-Serif" font-size="10.00" fill="#63b8ff">3</text>
</a>
</g>
</g>
<!-- dir_ca24a423c1b235320d00c488564f2476&#45;&gt;dir_a0a8ac7efb6662b749c1285408048e6d -->
<g id="edge7" class="edge">
<title>dir_ca24a423c1b235320d00c488564f2476&#45;&gt;dir_a0a8ac7efb6662b749c1285408048e6d</title>
<g id="a_edge7"><a xlink:href="dir_000413_000044.html" target="_top">
<path fill="none" stroke="#63b8ff" d="M53.01,-70.84C61.37,-63.3 73.5,-52.35 83.6,-43.23"/>
<polygon fill="#63b8ff" stroke="#63b8ff" points="85.94,-45.84 91.02,-36.54 81.25,-40.64 85.94,-45.84"/>
</a>
</g>
<g id="a_edge7&#45;headlabel"><a xlink:href="dir_000413_000044.html" target="_top" xlink:title="1">
<text text-anchor="middle" x="86.29" y="-45.46" font-family="Helvetica,sans-Serif" font-size="10.00" fill="#63b8ff">1</text>
</a>
</g>
</g>
<!-- dir_ca24a423c1b235320d00c488564f2476&#45;&gt;dir_0981ace215aa2029f526b70c145b9fbe -->
<g id="edge5" class="edge">
<title>dir_ca24a423c1b235320d00c488564f2476&#45;&gt;dir_0981ace215aa2029f526b70c145b9fbe</title>
<g id="a_edge5"><a xlink:href="dir_000413_000167.html" target="_top">
<path fill="none" stroke="#63b8ff" d="M56.2,-70.77C60.72,-68 65.93,-65.18 71,-63.25 128.88,-41.25 151.13,-54.15 208.47,-37.43"/>
<polygon fill="#63b8ff" stroke="#63b8ff" points="209.24,-40.85 217.75,-34.53 207.16,-34.17 209.24,-40.85"/>
</a>
</g>
<g id="a_edge5&#45;headlabel"><a xlink:href="dir_000413_000167.html" target="_top" xlink:title="5">
<text text-anchor="middle" x="208.1" y="-40.31" font-family="Helvetica,sans-Serif" font-size="10.00" fill="#63b8ff">5</text>
</a>
</g>
</g>
<!-- dir_ca24a423c1b235320d00c488564f2476&#45;&gt;dir_bdd9a5d540de89e9fe90efdfc6973a4f -->
<g id="edge8" class="edge">
<title>dir_ca24a423c1b235320d00c488564f2476&#45;&gt;dir_bdd9a5d540de89e9fe90efdfc6973a4f</title>
<g id="a_edge8"><a xlink:href="dir_000413_000022.html" target="_top">
<path fill="none" stroke="#63b8ff" d="M55.87,-70.82C60.46,-67.98 65.78,-65.11 71,-63.25 146.43,-36.34 172.73,-49.95 254.8,-35.45"/>
<polygon fill="#63b8ff" stroke="#63b8ff" points="255.25,-38.93 264.44,-33.65 253.97,-32.05 255.25,-38.93"/>
</a>
</g>
<g id="a_edge8&#45;headlabel"><a xlink:href="dir_000413_000022.html" target="_top" xlink:title="3">
<text text-anchor="middle" x="253.73" y="-38.22" font-family="Helvetica,sans-Serif" font-size="10.00" fill="#63b8ff">3</text>
</a>
</g>
</g>
</g>
</svg>
