<?xml version="1.0" encoding="UTF-8" standalone="no"?>
<!DOCTYPE svg PUBLIC "-//W3C//DTD SVG 1.1//EN"
 "http://www.w3.org/Graphics/SVG/1.1/DTD/svg11.dtd">
<!-- Generated by graphviz version 9.0.0 (20230911.1827)
 -->
<!-- Title: iop/usb Pages: 1 -->
<svg width="643pt" height="197pt"
 viewBox="0.00 0.00 642.75 197.00" xmlns="http://www.w3.org/2000/svg" xmlns:xlink="http://www.w3.org/1999/xlink">
<g id="graph0" class="graph" transform="scale(1 1) rotate(0) translate(4 193)">
<title>iop/usb</title>
<g id="clust1" class="cluster">
<title>clusterdir_0981ace215aa2029f526b70c145b9fbe</title>
<g id="a_clust1"><a xlink:href="dir_0981ace215aa2029f526b70c145b9fbe.html" target="_top" xlink:title="iop">
<polygon fill="#deebf9" stroke="#404040" stroke-dasharray="5,2" points="8,-8 8,-181 571,-181 571,-8 8,-8"/>
<text text-anchor="middle" x="289.5" y="-167.5" font-family="Helvetica,sans-Serif" font-size="10.00">iop</text>
</a>
</g>
</g>
<g id="clust2" class="cluster">
<title>clusterdir_b6c875632944d243a548db157cd77ec2</title>
<g id="a_clust2"><a xlink:href="dir_b6c875632944d243a548db157cd77ec2.html" target="_top">
<polygon fill="#deebf9" stroke="#404040" stroke-width="2" points="16,-63.25 16,-153.75 431,-153.75 431,-63.25 16,-63.25"/>
</a>
</g>
</g>
<!-- dir_40ac35421bc63b72c26b6c69b1517fd6 -->
<g id="node1" class="node">
<title>dir_40ac35421bc63b72c26b6c69b1517fd6</title>
<g id="a_node1"><a xlink:href="dir_40ac35421bc63b72c26b6c69b1517fd6.html" target="_top" xlink:title="system">
<polygon fill="#60a2e3" stroke="red" points="165.75,-35.25 118.25,-35.25 118.25,-16 165.75,-16 165.75,-35.25"/>
<text text-anchor="middle" x="142" y="-21.75" font-family="Helvetica,sans-Serif" font-size="10.00">system</text>
</a>
</g>
</g>
<!-- dir_9be0baa3d4a3e9f480a9ee70594037fa -->
<g id="node2" class="node">
<title>dir_9be0baa3d4a3e9f480a9ee70594037fa</title>
<g id="a_node2"><a xlink:href="dir_9be0baa3d4a3e9f480a9ee70594037fa.html" target="_top" xlink:title="kernel">
<polygon fill="#60a2e3" stroke="red" points="299.12,-35.25 256.88,-35.25 256.88,-16 299.12,-16 299.12,-35.25"/>
<text text-anchor="middle" x="278" y="-21.75" font-family="Helvetica,sans-Serif" font-size="10.00">kernel</text>
</a>
</g>
</g>
<!-- dir_a12d8da7b0731a57c6a388326ad5e612 -->
<g id="node3" class="node">
<title>dir_a12d8da7b0731a57c6a388326ad5e612</title>
<g id="a_node3"><a xlink:href="dir_a12d8da7b0731a57c6a388326ad5e612.html" target="_top" xlink:title="cdvd">
<polygon fill="#60a2e3" stroke="red" points="476.5,-90.5 439.5,-90.5 439.5,-71.25 476.5,-71.25 476.5,-90.5"/>
<text text-anchor="middle" x="458" y="-77" font-family="Helvetica,sans-Serif" font-size="10.00">cdvd</text>
</a>
</g>
</g>
<!-- dir_f24daea2522ffa8b6dc5fa9cdf5b8f5c -->
<g id="node4" class="node">
<title>dir_f24daea2522ffa8b6dc5fa9cdf5b8f5c</title>
<g id="a_node4"><a xlink:href="dir_f24daea2522ffa8b6dc5fa9cdf5b8f5c.html" target="_top" xlink:title="fs">
<polygon fill="#60a2e3" stroke="red" points="563.4,-90.5 534.6,-90.5 534.6,-71.25 563.4,-71.25 563.4,-90.5"/>
<text text-anchor="middle" x="549" y="-77" font-family="Helvetica,sans-Serif" font-size="10.00">fs</text>
</a>
</g>
</g>
<!-- dir_b6c875632944d243a548db157cd77ec2 -->
<g id="node5" class="node">
<title>dir_b6c875632944d243a548db157cd77ec2</title>
<text text-anchor="middle" x="407" y="-132.25" font-family="Helvetica,sans-Serif" font-size="10.00">usb</text>
</g>
<!-- dir_354d0fe30f8451f44d30d5ee272e7643 -->
<g id="node6" class="node">
<title>dir_354d0fe30f8451f44d30d5ee272e7643</title>
<g id="a_node6"><a xlink:href="dir_354d0fe30f8451f44d30d5ee272e7643.html" target="_top" xlink:title="camera">
<polygon fill="#60a2e3" stroke="#404040" points="136.12,-145.75 87.88,-145.75 87.88,-126.5 136.12,-126.5 136.12,-145.75"/>
<text text-anchor="middle" x="112" y="-132.25" font-family="Helvetica,sans-Serif" font-size="10.00">camera</text>
</a>
</g>
</g>
<!-- dir_354d0fe30f8451f44d30d5ee272e7643&#45;&gt;dir_40ac35421bc63b72c26b6c69b1517fd6 -->
<g id="edge2" class="edge">
<title>dir_354d0fe30f8451f44d30d5ee272e7643&#45;&gt;dir_40ac35421bc63b72c26b6c69b1517fd6</title>
<g id="a_edge2"><a xlink:href="dir_000037_000515.html" target="_top">
<path fill="none" stroke="#63b8ff" d="M113.33,-126.14C115.49,-112.4 120.21,-85.43 127,-63.25 128.77,-57.48 131.09,-51.35 133.38,-45.8"/>
<polygon fill="#63b8ff" stroke="#63b8ff" points="136.48,-47.45 137.23,-36.88 130.05,-44.67 136.48,-47.45"/>
</a>
</g>
<g id="a_edge2&#45;headlabel"><a xlink:href="dir_000037_000515.html" target="_top" xlink:title="18">
<text text-anchor="middle" x="138.26" y="-46.61" font-family="Helvetica,sans-Serif" font-size="10.00" fill="#63b8ff">18</text>
</a>
</g>
</g>
<!-- dir_354d0fe30f8451f44d30d5ee272e7643&#45;&gt;dir_9be0baa3d4a3e9f480a9ee70594037fa -->
<g id="edge1" class="edge">
<title>dir_354d0fe30f8451f44d30d5ee272e7643&#45;&gt;dir_9be0baa3d4a3e9f480a9ee70594037fa</title>
<g id="a_edge1"><a xlink:href="dir_000037_000239.html" target="_top">
<path fill="none" stroke="#63b8ff" d="M136.52,-128.6C174.56,-118.3 244.33,-98.61 253,-90.5 265.38,-78.92 271.72,-60.48 274.91,-46.38"/>
<polygon fill="#63b8ff" stroke="#63b8ff" points="278.29,-47.35 276.7,-36.88 271.41,-46.06 278.29,-47.35"/>
</a>
</g>
<g id="a_edge1&#45;headlabel"><a xlink:href="dir_000037_000239.html" target="_top" xlink:title="1">
<text text-anchor="middle" x="280.69" y="-46.05" font-family="Helvetica,sans-Serif" font-size="10.00" fill="#63b8ff">1</text>
</a>
</g>
</g>
<!-- dir_8f550b51c304fe10978bfd792866fae2 -->
<g id="node9" class="node">
<title>dir_8f550b51c304fe10978bfd792866fae2</title>
<g id="a_node9"><a xlink:href="dir_8f550b51c304fe10978bfd792866fae2.html" target="_top" xlink:title="usbd">
<polygon fill="#60a2e3" stroke="#404040" points="228.5,-90.5 191.5,-90.5 191.5,-71.25 228.5,-71.25 228.5,-90.5"/>
<text text-anchor="middle" x="210" y="-77" font-family="Helvetica,sans-Serif" font-size="10.00">usbd</text>
</a>
</g>
</g>
<!-- dir_354d0fe30f8451f44d30d5ee272e7643&#45;&gt;dir_8f550b51c304fe10978bfd792866fae2 -->
<g id="edge3" class="edge">
<title>dir_354d0fe30f8451f44d30d5ee272e7643&#45;&gt;dir_8f550b51c304fe10978bfd792866fae2</title>
<g id="a_edge3"><a xlink:href="dir_000037_000530.html" target="_top">
<path fill="none" stroke="#63b8ff" d="M128.62,-126.09C143.69,-117.91 166.14,-105.71 183.65,-96.19"/>
<polygon fill="#63b8ff" stroke="#63b8ff" points="184.85,-99.52 191.96,-91.68 181.51,-93.37 184.85,-99.52"/>
</a>
</g>
<g id="a_edge3&#45;headlabel"><a xlink:href="dir_000037_000530.html" target="_top" xlink:title="3">
<text text-anchor="middle" x="184.38" y="-99.14" font-family="Helvetica,sans-Serif" font-size="10.00" fill="#63b8ff">3</text>
</a>
</g>
</g>
<!-- dir_bdd9a5d540de89e9fe90efdfc6973a4f -->
<g id="node12" class="node">
<title>dir_bdd9a5d540de89e9fe90efdfc6973a4f</title>
<g id="a_node12"><a xlink:href="dir_bdd9a5d540de89e9fe90efdfc6973a4f.html" target="_top" xlink:title="common">
<polygon fill="#deebf9" stroke="red" points="634.75,-90.5 581.25,-90.5 581.25,-71.25 634.75,-71.25 634.75,-90.5"/>
<text text-anchor="middle" x="608" y="-77" font-family="Helvetica,sans-Serif" font-size="10.00">common</text>
</a>
</g>
</g>
<!-- dir_354d0fe30f8451f44d30d5ee272e7643&#45;&gt;dir_bdd9a5d540de89e9fe90efdfc6973a4f -->
<g id="edge4" class="edge">
<title>dir_354d0fe30f8451f44d30d5ee272e7643&#45;&gt;dir_bdd9a5d540de89e9fe90efdfc6973a4f</title>
<g id="a_edge4"><a xlink:href="dir_000037_000045.html" target="_top">
<path fill="none" stroke="#63b8ff" d="M136.41,-128.42C139.62,-127.69 142.88,-127.02 146,-126.5 331.02,-95.49 384.34,-121.74 569.82,-91.21"/>
<polygon fill="#63b8ff" stroke="#63b8ff" points="570.3,-94.68 579.58,-89.57 569.13,-87.78 570.3,-94.68"/>
</a>
</g>
<g id="a_edge4&#45;headlabel"><a xlink:href="dir_000037_000045.html" target="_top" xlink:title="1">
<text text-anchor="middle" x="568.72" y="-93.95" font-family="Helvetica,sans-Serif" font-size="10.00" fill="#63b8ff">1</text>
</a>
</g>
</g>
<!-- dir_dfd34f7999bdb28cb70101636e016b16 -->
<g id="node7" class="node">
<title>dir_dfd34f7999bdb28cb70101636e016b16</title>
<g id="a_node7"><a xlink:href="dir_dfd34f7999bdb28cb70101636e016b16.html" target="_top" xlink:title="keyboard">
<polygon fill="#60a2e3" stroke="#404040" points="209.5,-145.75 154.5,-145.75 154.5,-126.5 209.5,-126.5 209.5,-145.75"/>
<text text-anchor="middle" x="182" y="-132.25" font-family="Helvetica,sans-Serif" font-size="10.00">keyboard</text>
</a>
</g>
</g>
<!-- dir_dfd34f7999bdb28cb70101636e016b16&#45;&gt;dir_40ac35421bc63b72c26b6c69b1517fd6 -->
<g id="edge6" class="edge">
<title>dir_dfd34f7999bdb28cb70101636e016b16&#45;&gt;dir_40ac35421bc63b72c26b6c69b1517fd6</title>
<g id="a_edge6"><a xlink:href="dir_000241_000515.html" target="_top">
<path fill="none" stroke="#63b8ff" d="M172.38,-126.25C164.05,-117.91 152.51,-104.63 147,-90.5 141.61,-76.66 140.48,-59.89 140.63,-47"/>
<polygon fill="#63b8ff" stroke="#63b8ff" points="144.12,-47.31 141.04,-37.18 137.13,-47.02 144.12,-47.31"/>
</a>
</g>
<g id="a_edge6&#45;headlabel"><a xlink:href="dir_000241_000515.html" target="_top" xlink:title="18">
<text text-anchor="middle" x="146.88" y="-45.63" font-family="Helvetica,sans-Serif" font-size="10.00" fill="#63b8ff">18</text>
</a>
</g>
</g>
<!-- dir_dfd34f7999bdb28cb70101636e016b16&#45;&gt;dir_9be0baa3d4a3e9f480a9ee70594037fa -->
<g id="edge5" class="edge">
<title>dir_dfd34f7999bdb28cb70101636e016b16&#45;&gt;dir_9be0baa3d4a3e9f480a9ee70594037fa</title>
<g id="a_edge5"><a xlink:href="dir_000241_000239.html" target="_top">
<path fill="none" stroke="#63b8ff" d="M207.01,-126.09C231.1,-116.85 265.04,-102.22 273,-90.5 281.62,-77.81 282.4,-60.25 281.29,-46.76"/>
<polygon fill="#63b8ff" stroke="#63b8ff" points="284.76,-46.33 280.03,-36.85 277.82,-47.22 284.76,-46.33"/>
</a>
</g>
<g id="a_edge5&#45;headlabel"><a xlink:href="dir_000241_000239.html" target="_top" xlink:title="1">
<text text-anchor="middle" x="287.84" y="-44.16" font-family="Helvetica,sans-Serif" font-size="10.00" fill="#63b8ff">1</text>
</a>
</g>
</g>
<!-- dir_dfd34f7999bdb28cb70101636e016b16&#45;&gt;dir_8f550b51c304fe10978bfd792866fae2 -->
<g id="edge7" class="edge">
<title>dir_dfd34f7999bdb28cb70101636e016b16&#45;&gt;dir_8f550b51c304fe10978bfd792866fae2</title>
<g id="a_edge7"><a xlink:href="dir_000241_000530.html" target="_top">
<path fill="none" stroke="#63b8ff" d="M186.62,-126.33C190.25,-119.44 195.43,-109.59 199.99,-100.91"/>
<polygon fill="#63b8ff" stroke="#63b8ff" points="203.02,-102.68 204.57,-92.2 196.82,-99.42 203.02,-102.68"/>
</a>
</g>
<g id="a_edge7&#45;headlabel"><a xlink:href="dir_000241_000530.html" target="_top" xlink:title="3">
<text text-anchor="middle" x="204.56" y="-101.97" font-family="Helvetica,sans-Serif" font-size="10.00" fill="#63b8ff">3</text>
</a>
</g>
</g>
<!-- dir_dfd34f7999bdb28cb70101636e016b16&#45;&gt;dir_bdd9a5d540de89e9fe90efdfc6973a4f -->
<g id="edge8" class="edge">
<title>dir_dfd34f7999bdb28cb70101636e016b16&#45;&gt;dir_bdd9a5d540de89e9fe90efdfc6973a4f</title>
<g id="a_edge8"><a xlink:href="dir_000241_000045.html" target="_top">
<path fill="none" stroke="#63b8ff" d="M209.83,-128.07C212.58,-127.49 215.34,-126.95 218,-126.5 371.55,-100.49 415.98,-117.89 569.8,-91.27"/>
<polygon fill="#63b8ff" stroke="#63b8ff" points="570.33,-94.73 579.57,-89.54 569.11,-87.84 570.33,-94.73"/>
</a>
</g>
<g id="a_edge8&#45;headlabel"><a xlink:href="dir_000241_000045.html" target="_top" xlink:title="1">
<text text-anchor="middle" x="568.78" y="-94.02" font-family="Helvetica,sans-Serif" font-size="10.00" fill="#63b8ff">1</text>
</a>
</g>
</g>
<!-- dir_6c36fa94566b53a53d1b33c49cbff7fb -->
<g id="node8" class="node">
<title>dir_6c36fa94566b53a53d1b33c49cbff7fb</title>
<g id="a_node8"><a xlink:href="dir_6c36fa94566b53a53d1b33c49cbff7fb.html" target="_top" xlink:title="mouse">
<polygon fill="#60a2e3" stroke="#404040" points="69.62,-145.75 24.38,-145.75 24.38,-126.5 69.62,-126.5 69.62,-145.75"/>
<text text-anchor="middle" x="47" y="-132.25" font-family="Helvetica,sans-Serif" font-size="10.00">mouse</text>
</a>
</g>
</g>
<!-- dir_6c36fa94566b53a53d1b33c49cbff7fb&#45;&gt;dir_40ac35421bc63b72c26b6c69b1517fd6 -->
<g id="edge10" class="edge">
<title>dir_6c36fa94566b53a53d1b33c49cbff7fb&#45;&gt;dir_40ac35421bc63b72c26b6c69b1517fd6</title>
<g id="a_edge10"><a xlink:href="dir_000267_000515.html" target="_top">
<path fill="none" stroke="#63b8ff" d="M54.77,-126.25C70.43,-108.36 106.02,-67.72 126.57,-44.25"/>
<polygon fill="#63b8ff" stroke="#63b8ff" points="129.17,-46.59 133.12,-36.77 123.9,-41.98 129.17,-46.59"/>
</a>
</g>
<g id="a_edge10&#45;headlabel"><a xlink:href="dir_000267_000515.html" target="_top" xlink:title="17">
<text text-anchor="middle" x="129.93" y="-46.16" font-family="Helvetica,sans-Serif" font-size="10.00" fill="#63b8ff">17</text>
</a>
</g>
</g>
<!-- dir_6c36fa94566b53a53d1b33c49cbff7fb&#45;&gt;dir_9be0baa3d4a3e9f480a9ee70594037fa -->
<g id="edge9" class="edge">
<title>dir_6c36fa94566b53a53d1b33c49cbff7fb&#45;&gt;dir_9be0baa3d4a3e9f480a9ee70594037fa</title>
<g id="a_edge9"><a xlink:href="dir_000267_000239.html" target="_top">
<path fill="none" stroke="#63b8ff" d="M70.04,-128.79C73.05,-128 76.1,-127.22 79,-126.5 149.33,-109.07 180.11,-134.07 238,-90.5 249.05,-82.19 245.76,-75.03 253,-63.25 256.82,-57.03 261.24,-50.4 265.29,-44.5"/>
<polygon fill="#63b8ff" stroke="#63b8ff" points="267.86,-46.94 270.72,-36.74 262.12,-42.93 267.86,-46.94"/>
</a>
</g>
<g id="a_edge9&#45;headlabel"><a xlink:href="dir_000267_000239.html" target="_top" xlink:title="1">
<text text-anchor="middle" x="269" y="-46.4" font-family="Helvetica,sans-Serif" font-size="10.00" fill="#63b8ff">1</text>
</a>
</g>
</g>
<!-- dir_6c36fa94566b53a53d1b33c49cbff7fb&#45;&gt;dir_8f550b51c304fe10978bfd792866fae2 -->
<g id="edge11" class="edge">
<title>dir_6c36fa94566b53a53d1b33c49cbff7fb&#45;&gt;dir_8f550b51c304fe10978bfd792866fae2</title>
<g id="a_edge11"><a xlink:href="dir_000267_000530.html" target="_top">
<path fill="none" stroke="#63b8ff" d="M70.11,-128.33C95.93,-120.63 139.19,-107.4 180.56,-93.07"/>
<polygon fill="#63b8ff" stroke="#63b8ff" points="181.6,-96.41 189.88,-89.8 179.29,-89.81 181.6,-96.41"/>
</a>
</g>
<g id="a_edge11&#45;headlabel"><a xlink:href="dir_000267_000530.html" target="_top" xlink:title="3">
<text text-anchor="middle" x="180.58" y="-95.9" font-family="Helvetica,sans-Serif" font-size="10.00" fill="#63b8ff">3</text>
</a>
</g>
</g>
<!-- dir_8f550b51c304fe10978bfd792866fae2&#45;&gt;dir_40ac35421bc63b72c26b6c69b1517fd6 -->
<g id="edge12" class="edge">
<title>dir_8f550b51c304fe10978bfd792866fae2&#45;&gt;dir_40ac35421bc63b72c26b6c69b1517fd6</title>
<g id="a_edge12"><a xlink:href="dir_000530_000515.html" target="_top">
<path fill="none" stroke="#63b8ff" d="M198.46,-70.84C188.54,-63.07 173.99,-51.67 162.14,-42.4"/>
<polygon fill="#63b8ff" stroke="#63b8ff" points="164.59,-39.87 154.56,-36.46 160.27,-45.38 164.59,-39.87"/>
</a>
</g>
<g id="a_edge12&#45;headlabel"><a xlink:href="dir_000530_000515.html" target="_top" xlink:title="8">
<text text-anchor="middle" x="167.98" y="-35.04" font-family="Helvetica,sans-Serif" font-size="10.00" fill="#63b8ff">8</text>
</a>
</g>
</g>
<!-- dir_8f550b51c304fe10978bfd792866fae2&#45;&gt;dir_9be0baa3d4a3e9f480a9ee70594037fa -->
<g id="edge13" class="edge">
<title>dir_8f550b51c304fe10978bfd792866fae2&#45;&gt;dir_9be0baa3d4a3e9f480a9ee70594037fa</title>
<g id="a_edge13"><a xlink:href="dir_000530_000239.html" target="_top">
<path fill="none" stroke="#63b8ff" d="M221.54,-70.84C231.46,-63.07 246.01,-51.67 257.86,-42.4"/>
<polygon fill="#63b8ff" stroke="#63b8ff" points="259.73,-45.38 265.44,-36.46 255.41,-39.87 259.73,-45.38"/>
</a>
</g>
<g id="a_edge13&#45;headlabel"><a xlink:href="dir_000530_000239.html" target="_top" xlink:title="3">
<text text-anchor="middle" x="259.84" y="-45.02" font-family="Helvetica,sans-Serif" font-size="10.00" fill="#63b8ff">3</text>
</a>
</g>
</g>
<!-- dir_b8874c233d466218401f983297aca89b -->
<g id="node10" class="node">
<title>dir_b8874c233d466218401f983297aca89b</title>
<g id="a_node10"><a xlink:href="dir_b8874c233d466218401f983297aca89b.html" target="_top" xlink:title="usbhdfsd">
<polygon fill="#60a2e3" stroke="#404040" points="282.88,-145.75 227.12,-145.75 227.12,-126.5 282.88,-126.5 282.88,-145.75"/>
<text text-anchor="middle" x="255" y="-132.25" font-family="Helvetica,sans-Serif" font-size="10.00">usbhdfsd</text>
</a>
</g>
</g>
<!-- dir_b8874c233d466218401f983297aca89b&#45;&gt;dir_40ac35421bc63b72c26b6c69b1517fd6 -->
<g id="edge14" class="edge">
<title>dir_b8874c233d466218401f983297aca89b&#45;&gt;dir_40ac35421bc63b72c26b6c69b1517fd6</title>
<g id="a_edge14"><a xlink:href="dir_000531_000515.html" target="_top">
<path fill="none" stroke="#63b8ff" d="M226.69,-126.73C207.58,-119.77 183.01,-108.13 167,-90.5 155.84,-78.22 149.43,-60.38 145.89,-46.68"/>
<polygon fill="#63b8ff" stroke="#63b8ff" points="149.33,-46 143.74,-37.01 142.5,-47.53 149.33,-46"/>
</a>
</g>
<g id="a_edge14&#45;headlabel"><a xlink:href="dir_000531_000515.html" target="_top" xlink:title="18">
<text text-anchor="middle" x="152.55" y="-43.54" font-family="Helvetica,sans-Serif" font-size="10.00" fill="#63b8ff">18</text>
</a>
</g>
</g>
<!-- dir_b8874c233d466218401f983297aca89b&#45;&gt;dir_9be0baa3d4a3e9f480a9ee70594037fa -->
<g id="edge16" class="edge">
<title>dir_b8874c233d466218401f983297aca89b&#45;&gt;dir_9be0baa3d4a3e9f480a9ee70594037fa</title>
<g id="a_edge16"><a xlink:href="dir_000531_000239.html" target="_top">
<path fill="none" stroke="#63b8ff" d="M283.25,-128.4C286.2,-127.74 289.16,-127.09 292,-126.5 334.92,-117.52 457.97,-124.21 486,-90.5 534.29,-32.43 380.28,-26.1 310.51,-26.12"/>
<polygon fill="#63b8ff" stroke="#63b8ff" points="310.8,-22.62 300.81,-26.17 310.83,-29.62 310.8,-22.62"/>
</a>
</g>
<g id="a_edge16&#45;headlabel"><a xlink:href="dir_000531_000239.html" target="_top" xlink:title="3">
<text text-anchor="middle" x="312.86" y="-15.89" font-family="Helvetica,sans-Serif" font-size="10.00" fill="#63b8ff">3</text>
</a>
</g>
</g>
<!-- dir_b8874c233d466218401f983297aca89b&#45;&gt;dir_a12d8da7b0731a57c6a388326ad5e612 -->
<g id="edge17" class="edge">
<title>dir_b8874c233d466218401f983297aca89b&#45;&gt;dir_a12d8da7b0731a57c6a388326ad5e612</title>
<g id="a_edge17"><a xlink:href="dir_000531_000040.html" target="_top">
<path fill="none" stroke="#63b8ff" d="M283.34,-128.52C322.32,-119.38 391.47,-102.91 428.44,-92.33"/>
<polygon fill="#63b8ff" stroke="#63b8ff" points="429.2,-95.75 437.78,-89.55 427.2,-89.04 429.2,-95.75"/>
</a>
</g>
<g id="a_edge17&#45;headlabel"><a xlink:href="dir_000531_000040.html" target="_top" xlink:title="2">
<text text-anchor="middle" x="428.01" y="-95.19" font-family="Helvetica,sans-Serif" font-size="10.00" fill="#63b8ff">2</text>
</a>
</g>
</g>
<!-- dir_b8874c233d466218401f983297aca89b&#45;&gt;dir_8f550b51c304fe10978bfd792866fae2 -->
<g id="edge15" class="edge">
<title>dir_b8874c233d466218401f983297aca89b&#45;&gt;dir_8f550b51c304fe10978bfd792866fae2</title>
<g id="a_edge15"><a xlink:href="dir_000531_000530.html" target="_top">
<path fill="none" stroke="#63b8ff" d="M247.57,-126.33C241.42,-119.05 232.49,-108.48 224.87,-99.48"/>
<polygon fill="#63b8ff" stroke="#63b8ff" points="227.7,-97.39 218.57,-92.02 222.35,-101.91 227.7,-97.39"/>
</a>
</g>
<g id="a_edge15&#45;headlabel"><a xlink:href="dir_000531_000530.html" target="_top" xlink:title="3">
<text text-anchor="middle" x="231.21" y="-93.28" font-family="Helvetica,sans-Serif" font-size="10.00" fill="#63b8ff">3</text>
</a>
</g>
</g>
<!-- dir_b8874c233d466218401f983297aca89b&#45;&gt;dir_bdd9a5d540de89e9fe90efdfc6973a4f -->
<g id="edge18" class="edge">
<title>dir_b8874c233d466218401f983297aca89b&#45;&gt;dir_bdd9a5d540de89e9fe90efdfc6973a4f</title>
<g id="a_edge18"><a xlink:href="dir_000531_000045.html" target="_top">
<path fill="none" stroke="#63b8ff" d="M283.22,-128.23C286.18,-127.6 289.14,-127.01 292,-126.5 413.14,-104.74 448.46,-113.99 569.82,-91.36"/>
<polygon fill="#63b8ff" stroke="#63b8ff" points="570.4,-94.81 579.56,-89.5 569.09,-87.94 570.4,-94.81"/>
</a>
</g>
<g id="a_edge18&#45;headlabel"><a xlink:href="dir_000531_000045.html" target="_top" xlink:title="3">
<text text-anchor="middle" x="568.88" y="-94.12" font-family="Helvetica,sans-Serif" font-size="10.00" fill="#63b8ff">3</text>
</a>
</g>
</g>
<!-- dir_b21605a940872bbf5de5d8b063daf48d -->
<g id="node11" class="node">
<title>dir_b21605a940872bbf5de5d8b063daf48d</title>
<g id="a_node11"><a xlink:href="dir_b21605a940872bbf5de5d8b063daf48d.html" target="_top" xlink:title="usbmass_bd">
<polygon fill="#60a2e3" stroke="#404040" points="372.75,-145.75 301.25,-145.75 301.25,-126.5 372.75,-126.5 372.75,-145.75"/>
<text text-anchor="middle" x="337" y="-132.25" font-family="Helvetica,sans-Serif" font-size="10.00">usbmass_bd</text>
</a>
</g>
</g>
<!-- dir_b21605a940872bbf5de5d8b063daf48d&#45;&gt;dir_40ac35421bc63b72c26b6c69b1517fd6 -->
<g id="edge19" class="edge">
<title>dir_b21605a940872bbf5de5d8b063daf48d&#45;&gt;dir_40ac35421bc63b72c26b6c69b1517fd6</title>
<g id="a_edge19"><a xlink:href="dir_000532_000515.html" target="_top">
<path fill="none" stroke="#63b8ff" d="M300.86,-127.73C261.49,-119.16 201.63,-104.4 183,-90.5 178.74,-87.32 163.57,-62.78 152.93,-45.06"/>
<polygon fill="#63b8ff" stroke="#63b8ff" points="156.21,-43.73 148.08,-36.94 150.19,-47.32 156.21,-43.73"/>
</a>
</g>
<g id="a_edge19&#45;headlabel"><a xlink:href="dir_000532_000515.html" target="_top" xlink:title="13">
<text text-anchor="middle" x="159.71" y="-40.19" font-family="Helvetica,sans-Serif" font-size="10.00" fill="#63b8ff">13</text>
</a>
</g>
</g>
<!-- dir_b21605a940872bbf5de5d8b063daf48d&#45;&gt;dir_9be0baa3d4a3e9f480a9ee70594037fa -->
<g id="edge21" class="edge">
<title>dir_b21605a940872bbf5de5d8b063daf48d&#45;&gt;dir_9be0baa3d4a3e9f480a9ee70594037fa</title>
<g id="a_edge21"><a xlink:href="dir_000532_000239.html" target="_top">
<path fill="none" stroke="#63b8ff" d="M372.94,-127.37C417.21,-117.45 487.52,-100.39 495,-90.5 502.31,-80.84 502.82,-72.5 495,-63.25 471.84,-35.85 365.88,-28.94 311.07,-27.2"/>
<polygon fill="#63b8ff" stroke="#63b8ff" points="311.17,-23.71 301.08,-26.93 310.98,-30.7 311.17,-23.71"/>
</a>
</g>
<g id="a_edge21&#45;headlabel"><a xlink:href="dir_000532_000239.html" target="_top" xlink:title="2">
<text text-anchor="middle" x="313.33" y="-17.05" font-family="Helvetica,sans-Serif" font-size="10.00" fill="#63b8ff">2</text>
</a>
</g>
</g>
<!-- dir_b21605a940872bbf5de5d8b063daf48d&#45;&gt;dir_f24daea2522ffa8b6dc5fa9cdf5b8f5c -->
<g id="edge23" class="edge">
<title>dir_b21605a940872bbf5de5d8b063daf48d&#45;&gt;dir_f24daea2522ffa8b6dc5fa9cdf5b8f5c</title>
<g id="a_edge23"><a xlink:href="dir_000532_000078.html" target="_top">
<path fill="none" stroke="#63b8ff" d="M373.13,-127.05C410.35,-118.57 469.97,-104.53 521,-90.5 521.81,-90.28 522.63,-90.05 523.46,-89.81"/>
<polygon fill="#63b8ff" stroke="#63b8ff" points="524.19,-93.25 532.78,-87.04 522.19,-86.54 524.19,-93.25"/>
</a>
</g>
<g id="a_edge23&#45;headlabel"><a xlink:href="dir_000532_000078.html" target="_top" xlink:title="2">
<text text-anchor="middle" x="523" y="-92.69" font-family="Helvetica,sans-Serif" font-size="10.00" fill="#63b8ff">2</text>
</a>
</g>
</g>
<!-- dir_b21605a940872bbf5de5d8b063daf48d&#45;&gt;dir_8f550b51c304fe10978bfd792866fae2 -->
<g id="edge20" class="edge">
<title>dir_b21605a940872bbf5de5d8b063daf48d&#45;&gt;dir_8f550b51c304fe10978bfd792866fae2</title>
<g id="a_edge20"><a xlink:href="dir_000532_000530.html" target="_top">
<path fill="none" stroke="#63b8ff" d="M315.46,-126.09C294.44,-117.28 262.33,-103.81 239.06,-94.06"/>
<polygon fill="#63b8ff" stroke="#63b8ff" points="240.72,-90.96 230.14,-90.32 238.01,-97.42 240.72,-90.96"/>
</a>
</g>
<g id="a_edge20&#45;headlabel"><a xlink:href="dir_000532_000530.html" target="_top" xlink:title="3">
<text text-anchor="middle" x="243.74" y="-85.27" font-family="Helvetica,sans-Serif" font-size="10.00" fill="#63b8ff">3</text>
</a>
</g>
</g>
<!-- dir_b21605a940872bbf5de5d8b063daf48d&#45;&gt;dir_bdd9a5d540de89e9fe90efdfc6973a4f -->
<g id="edge22" class="edge">
<title>dir_b21605a940872bbf5de5d8b063daf48d&#45;&gt;dir_bdd9a5d540de89e9fe90efdfc6973a4f</title>
<g id="a_edge22"><a xlink:href="dir_000532_000045.html" target="_top">
<path fill="none" stroke="#63b8ff" d="M372.86,-128.24C375.95,-127.65 379.03,-127.06 382,-126.5 464.14,-110.97 487.88,-109.63 569.89,-91.57"/>
<polygon fill="#63b8ff" stroke="#63b8ff" points="570.54,-95.01 579.55,-89.42 569.03,-88.18 570.54,-95.01"/>
</a>
</g>
<g id="a_edge22&#45;headlabel"><a xlink:href="dir_000532_000045.html" target="_top" xlink:title="3">
<text text-anchor="middle" x="569.13" y="-94.36" font-family="Helvetica,sans-Serif" font-size="10.00" fill="#63b8ff">3</text>
</a>
</g>
</g>
</g>
</svg>
