<?xml version="1.0" encoding="UTF-8" standalone="no"?>
<!DOCTYPE svg PUBLIC "-//W3C//DTD SVG 1.1//EN"
 "http://www.w3.org/Graphics/SVG/1.1/DTD/svg11.dtd">
<!-- Generated by graphviz version 2.44.0 ()
 -->
<!-- Title: ee/packet/src Pages: 1 -->
<svg width="150pt" height="167pt"
 viewBox="0.00 0.00 150.00 167.00" xmlns="http://www.w3.org/2000/svg" xmlns:xlink="http://www.w3.org/1999/xlink">
<g id="graph0" class="graph" transform="scale(1 1) rotate(0) translate(4 163)">
<title>ee/packet/src</title>
<polygon fill="white" stroke="transparent" points="-4,4 -4,-163 146,-163 146,4 -4,4"/>
<g id="clust1" class="cluster">
<title>clusterdir_ef7db18cfb93c4891bb35babb04f0d85</title>
<g id="a_clust1"><a xlink:href="dir_ef7db18cfb93c4891bb35babb04f0d85.html" target="_top" xlink:title="packet">
<polygon fill="#ddddee" stroke="black" points="8,-8 8,-151 78,-151 78,-8 8,-8"/>
<text text-anchor="middle" x="43" y="-139" font-family="Helvetica,sans-Serif" font-size="10.00">packet</text>
</a>
</g>
</g>
<!-- dir_045af3c93ddda0c519219edb2a8fe08a -->
<g id="node1" class="node">
<title>dir_045af3c93ddda0c519219edb2a8fe08a</title>
<g id="a_node1"><a xlink:href="dir_045af3c93ddda0c519219edb2a8fe08a.html" target="_top" xlink:title="include">
<polygon fill="none" stroke="black" points="70,-52 16,-52 16,-16 70,-16 70,-52"/>
<text text-anchor="middle" x="43" y="-31.5" font-family="Helvetica,sans-Serif" font-size="10.00">include</text>
</a>
</g>
</g>
<!-- dir_877a24e332e8fb1301c97400aa573f28 -->
<g id="node2" class="node">
<title>dir_877a24e332e8fb1301c97400aa573f28</title>
<g id="a_node2"><a xlink:href="dir_877a24e332e8fb1301c97400aa573f28.html" target="_top" xlink:title="src">
<polygon fill="#eeeeff" stroke="black" points="70,-124 16,-124 16,-88 70,-88 70,-124"/>
<text text-anchor="middle" x="43" y="-103.5" font-family="Helvetica,sans-Serif" font-size="10.00">src</text>
</a>
</g>
</g>
<!-- dir_877a24e332e8fb1301c97400aa573f28&#45;&gt;dir_045af3c93ddda0c519219edb2a8fe08a -->
<g id="edge1" class="edge">
<title>dir_877a24e332e8fb1301c97400aa573f28&#45;&gt;dir_045af3c93ddda0c519219edb2a8fe08a</title>
<path fill="none" stroke="black" d="M43,-87.7C43,-79.98 43,-70.71 43,-62.11"/>
<polygon fill="black" stroke="black" points="46.5,-62.1 43,-52.1 39.5,-62.1 46.5,-62.1"/>
<g id="a_edge1&#45;headlabel"><a xlink:href="dir_000159_000238.html" target="_top" xlink:title="1">
<text text-anchor="middle" x="49.34" y="-63.2" font-family="Helvetica,sans-Serif" font-size="10.00">1</text>
</a>
</g>
</g>
<!-- dir_a0a8ac7efb6662b749c1285408048e6d -->
<g id="node3" class="node">
<title>dir_a0a8ac7efb6662b749c1285408048e6d</title>
<g id="a_node3"><a xlink:href="dir_a0a8ac7efb6662b749c1285408048e6d.html" target="_top" xlink:title="erl">
<polygon fill="white" stroke="red" points="142,-52 88,-52 88,-16 142,-16 142,-52"/>
<text text-anchor="middle" x="115" y="-31.5" font-family="Helvetica,sans-Serif" font-size="10.00">erl</text>
</a>
</g>
</g>
<!-- dir_877a24e332e8fb1301c97400aa573f28&#45;&gt;dir_a0a8ac7efb6662b749c1285408048e6d -->
<g id="edge2" class="edge">
<title>dir_877a24e332e8fb1301c97400aa573f28&#45;&gt;dir_a0a8ac7efb6662b749c1285408048e6d</title>
<path fill="none" stroke="black" d="M60.8,-87.7C69.6,-79.14 80.38,-68.66 90,-59.3"/>
<polygon fill="black" stroke="black" points="92.68,-61.58 97.41,-52.1 87.8,-56.57 92.68,-61.58"/>
<g id="a_edge2&#45;headlabel"><a xlink:href="dir_000159_000206.html" target="_top" xlink:title="1">
<text text-anchor="middle" x="92.08" y="-63.63" font-family="Helvetica,sans-Serif" font-size="10.00">1</text>
</a>
</g>
</g>
</g>
</svg>
