<?xml version="1.0" encoding="UTF-8" standalone="no"?>
<!DOCTYPE svg PUBLIC "-//W3C//DTD SVG 1.1//EN"
 "http://www.w3.org/Graphics/SVG/1.1/DTD/svg11.dtd">
<!-- Generated by graphviz version 9.0.0 (20230911.1827)
 -->
<!-- Title: iop/system/loadfile Pages: 1 -->
<svg width="739pt" height="142pt"
 viewBox="0.00 0.00 738.75 141.75" xmlns="http://www.w3.org/2000/svg" xmlns:xlink="http://www.w3.org/1999/xlink">
<g id="graph0" class="graph" transform="scale(1 1) rotate(0) translate(4 137.75)">
<title>iop/system/loadfile</title>
<g id="clust1" class="cluster">
<title>clusterdir_40ac35421bc63b72c26b6c69b1517fd6</title>
<g id="a_clust1"><a xlink:href="dir_40ac35421bc63b72c26b6c69b1517fd6.html" target="_top" xlink:title="system">
<polygon fill="#deebf9" stroke="#7f7f7f" stroke-dasharray="5,2" points="8,-8 8,-125.75 606,-125.75 606,-8 8,-8"/>
<text text-anchor="middle" x="307" y="-112.25" font-family="Helvetica,sans-Serif" font-size="10.00">system</text>
</a>
</g>
</g>
<g id="clust2" class="cluster">
<title>clusterdir_c70e074c247f0fc7ba2b5b627ea24568</title>
<g id="a_clust2"><a xlink:href="dir_c70e074c247f0fc7ba2b5b627ea24568.html" target="_top">
<polygon fill="#deebf9" stroke="#404040" stroke-width="2" points="332,-63.25 332,-98.5 442,-98.5 442,-63.25 332,-63.25"/>
</a>
</g>
</g>
<!-- dir_7422a0894415a12ccd1d562a8ad09f2d -->
<g id="node1" class="node">
<title>dir_7422a0894415a12ccd1d562a8ad09f2d</title>
<g id="a_node1"><a xlink:href="dir_7422a0894415a12ccd1d562a8ad09f2d.html" target="_top" xlink:title="intrman">
<polygon fill="#60a2e3" stroke="red" points="64.12,-35.25 15.88,-35.25 15.88,-16 64.12,-16 64.12,-35.25"/>
<text text-anchor="middle" x="40" y="-21.75" font-family="Helvetica,sans-Serif" font-size="10.00">intrman</text>
</a>
</g>
</g>
<!-- dir_d204d0cf134f4cdf6ccf23f48ed9ae60 -->
<g id="node2" class="node">
<title>dir_d204d0cf134f4cdf6ccf23f48ed9ae60</title>
<g id="a_node2"><a xlink:href="dir_d204d0cf134f4cdf6ccf23f48ed9ae60.html" target="_top" xlink:title="ioman">
<polygon fill="#60a2e3" stroke="red" points="124.12,-35.25 81.88,-35.25 81.88,-16 124.12,-16 124.12,-35.25"/>
<text text-anchor="middle" x="103" y="-21.75" font-family="Helvetica,sans-Serif" font-size="10.00">ioman</text>
</a>
</g>
</g>
<!-- dir_1d64e5e9f20206636d72b5bbe3d2b274 -->
<g id="node3" class="node">
<title>dir_1d64e5e9f20206636d72b5bbe3d2b274</title>
<g id="a_node3"><a xlink:href="dir_1d64e5e9f20206636d72b5bbe3d2b274.html" target="_top" xlink:title="loadcore">
<polygon fill="#60a2e3" stroke="red" points="195.38,-35.25 142.62,-35.25 142.62,-16 195.38,-16 195.38,-35.25"/>
<text text-anchor="middle" x="169" y="-21.75" font-family="Helvetica,sans-Serif" font-size="10.00">loadcore</text>
</a>
</g>
</g>
<!-- dir_a0d37aaf829787e8da99f7ff6597b371 -->
<g id="node4" class="node">
<title>dir_a0d37aaf829787e8da99f7ff6597b371</title>
<g id="a_node4"><a xlink:href="dir_a0d37aaf829787e8da99f7ff6597b371.html" target="_top" xlink:title="sifman">
<polygon fill="#60a2e3" stroke="red" points="258.62,-35.25 213.38,-35.25 213.38,-16 258.62,-16 258.62,-35.25"/>
<text text-anchor="middle" x="236" y="-21.75" font-family="Helvetica,sans-Serif" font-size="10.00">sifman</text>
</a>
</g>
</g>
<!-- dir_952a988346c879bc3b2834e2377036db -->
<g id="node5" class="node">
<title>dir_952a988346c879bc3b2834e2377036db</title>
<g id="a_node5"><a xlink:href="dir_952a988346c879bc3b2834e2377036db.html" target="_top" xlink:title="stdio">
<polygon fill="#60a2e3" stroke="red" points="313.5,-35.25 276.5,-35.25 276.5,-16 313.5,-16 313.5,-35.25"/>
<text text-anchor="middle" x="295" y="-21.75" font-family="Helvetica,sans-Serif" font-size="10.00">stdio</text>
</a>
</g>
</g>
<!-- dir_1bd32d4ef826aeeda00870843eb45c97 -->
<g id="node6" class="node">
<title>dir_1bd32d4ef826aeeda00870843eb45c97</title>
<g id="a_node6"><a xlink:href="dir_1bd32d4ef826aeeda00870843eb45c97.html" target="_top" xlink:title="sysclib">
<polygon fill="#60a2e3" stroke="red" points="378,-35.25 332,-35.25 332,-16 378,-16 378,-35.25"/>
<text text-anchor="middle" x="355" y="-21.75" font-family="Helvetica,sans-Serif" font-size="10.00">sysclib</text>
</a>
</g>
</g>
<!-- dir_44719da65bb992f08c8ee8632a1136c7 -->
<g id="node7" class="node">
<title>dir_44719da65bb992f08c8ee8632a1136c7</title>
<g id="a_node7"><a xlink:href="dir_44719da65bb992f08c8ee8632a1136c7.html" target="_top" xlink:title="sysmem">
<polygon fill="#60a2e3" stroke="red" points="448.38,-35.25 395.62,-35.25 395.62,-16 448.38,-16 448.38,-35.25"/>
<text text-anchor="middle" x="422" y="-21.75" font-family="Helvetica,sans-Serif" font-size="10.00">sysmem</text>
</a>
</g>
</g>
<!-- dir_d3b40e87d731c1e886b7a70e6daaf700 -->
<g id="node8" class="node">
<title>dir_d3b40e87d731c1e886b7a70e6daaf700</title>
<g id="a_node8"><a xlink:href="dir_d3b40e87d731c1e886b7a70e6daaf700.html" target="_top" xlink:title="threadman">
<polygon fill="#60a2e3" stroke="red" points="527.88,-35.25 466.12,-35.25 466.12,-16 527.88,-16 527.88,-35.25"/>
<text text-anchor="middle" x="497" y="-21.75" font-family="Helvetica,sans-Serif" font-size="10.00">threadman</text>
</a>
</g>
</g>
<!-- dir_87c98c5970299b04095b64caaae46c44 -->
<g id="node9" class="node">
<title>dir_87c98c5970299b04095b64caaae46c44</title>
<g id="a_node9"><a xlink:href="dir_87c98c5970299b04095b64caaae46c44.html" target="_top" xlink:title="modload">
<polygon fill="#60a2e3" stroke="red" points="598.38,-35.25 545.62,-35.25 545.62,-16 598.38,-16 598.38,-35.25"/>
<text text-anchor="middle" x="572" y="-21.75" font-family="Helvetica,sans-Serif" font-size="10.00">modload</text>
</a>
</g>
</g>
<!-- dir_c70e074c247f0fc7ba2b5b627ea24568 -->
<g id="node10" class="node">
<title>dir_c70e074c247f0fc7ba2b5b627ea24568</title>
<text text-anchor="middle" x="411" y="-77" font-family="Helvetica,sans-Serif" font-size="10.00">loadfile</text>
</g>
<!-- dir_f335ad7fdd71679ab019891088db11a0 -->
<g id="node11" class="node">
<title>dir_f335ad7fdd71679ab019891088db11a0</title>
<g id="a_node11"><a xlink:href="dir_f335ad7fdd71679ab019891088db11a0.html" target="_top" xlink:title="src">
<polygon fill="#60a2e3" stroke="#404040" points="369.75,-90.5 340.25,-90.5 340.25,-71.25 369.75,-71.25 369.75,-90.5"/>
<text text-anchor="middle" x="355" y="-77" font-family="Helvetica,sans-Serif" font-size="10.00">src</text>
</a>
</g>
</g>
<!-- dir_f335ad7fdd71679ab019891088db11a0&#45;&gt;dir_7422a0894415a12ccd1d562a8ad09f2d -->
<g id="edge4" class="edge">
<title>dir_f335ad7fdd71679ab019891088db11a0&#45;&gt;dir_7422a0894415a12ccd1d562a8ad09f2d</title>
<g id="a_edge4"><a xlink:href="dir_000467_000229.html" target="_top">
<path fill="none" stroke="#63b8ff" d="M339.92,-78.02C299,-72.88 182.26,-57.49 75.42,-35.58"/>
<polygon fill="#63b8ff" stroke="#63b8ff" points="76.43,-32.22 65.93,-33.61 75.01,-39.07 76.43,-32.22"/>
</a>
</g>
<g id="a_edge4&#45;headlabel"><a xlink:href="dir_000467_000229.html" target="_top" xlink:title="1">
<text text-anchor="middle" x="79.04" y="-25.99" font-family="Helvetica,sans-Serif" font-size="10.00" fill="#63b8ff">1</text>
</a>
</g>
</g>
<!-- dir_f335ad7fdd71679ab019891088db11a0&#45;&gt;dir_d204d0cf134f4cdf6ccf23f48ed9ae60 -->
<g id="edge10" class="edge">
<title>dir_f335ad7fdd71679ab019891088db11a0&#45;&gt;dir_d204d0cf134f4cdf6ccf23f48ed9ae60</title>
<g id="a_edge10"><a xlink:href="dir_000467_000230.html" target="_top">
<path fill="none" stroke="#63b8ff" d="M339.91,-77.22C305.58,-71.09 218.79,-55.14 135.49,-35.44"/>
<polygon fill="#63b8ff" stroke="#63b8ff" points="136.3,-32.04 125.76,-33.12 134.68,-38.85 136.3,-32.04"/>
</a>
</g>
<g id="a_edge10&#45;headlabel"><a xlink:href="dir_000467_000230.html" target="_top" xlink:title="1">
<text text-anchor="middle" x="138.99" y="-25.89" font-family="Helvetica,sans-Serif" font-size="10.00" fill="#63b8ff">1</text>
</a>
</g>
</g>
<!-- dir_f335ad7fdd71679ab019891088db11a0&#45;&gt;dir_1d64e5e9f20206636d72b5bbe3d2b274 -->
<g id="edge2" class="edge">
<title>dir_f335ad7fdd71679ab019891088db11a0&#45;&gt;dir_1d64e5e9f20206636d72b5bbe3d2b274</title>
<g id="a_edge2"><a xlink:href="dir_000467_000254.html" target="_top">
<path fill="none" stroke="#63b8ff" d="M339.78,-75.52C310.91,-67.25 247.44,-49.08 206.54,-37.37"/>
<polygon fill="#63b8ff" stroke="#63b8ff" points="207.68,-34.06 197.1,-34.67 205.75,-40.79 207.68,-34.06"/>
</a>
</g>
<g id="a_edge2&#45;headlabel"><a xlink:href="dir_000467_000254.html" target="_top" xlink:title="1">
<text text-anchor="middle" x="210.46" y="-28.02" font-family="Helvetica,sans-Serif" font-size="10.00" fill="#63b8ff">1</text>
</a>
</g>
</g>
<!-- dir_f335ad7fdd71679ab019891088db11a0&#45;&gt;dir_a0d37aaf829787e8da99f7ff6597b371 -->
<g id="edge8" class="edge">
<title>dir_f335ad7fdd71679ab019891088db11a0&#45;&gt;dir_a0d37aaf829787e8da99f7ff6597b371</title>
<g id="a_edge8"><a xlink:href="dir_000467_000312.html" target="_top">
<path fill="none" stroke="#63b8ff" d="M339.93,-73.13C321.57,-64.92 290.11,-50.84 266.6,-40.32"/>
<polygon fill="#63b8ff" stroke="#63b8ff" points="268.05,-37.13 257.49,-36.24 265.19,-43.52 268.05,-37.13"/>
</a>
</g>
<g id="a_edge8&#45;headlabel"><a xlink:href="dir_000467_000312.html" target="_top" xlink:title="1">
<text text-anchor="middle" x="271.1" y="-31.51" font-family="Helvetica,sans-Serif" font-size="10.00" fill="#63b8ff">1</text>
</a>
</g>
</g>
<!-- dir_f335ad7fdd71679ab019891088db11a0&#45;&gt;dir_952a988346c879bc3b2834e2377036db -->
<g id="edge6" class="edge">
<title>dir_f335ad7fdd71679ab019891088db11a0&#45;&gt;dir_952a988346c879bc3b2834e2377036db</title>
<g id="a_edge6"><a xlink:href="dir_000467_000506.html" target="_top">
<path fill="none" stroke="#63b8ff" d="M344.82,-70.84C336.24,-63.22 323.73,-52.12 313.4,-42.95"/>
<polygon fill="#63b8ff" stroke="#63b8ff" points="315.96,-40.55 306.16,-36.53 311.32,-45.79 315.96,-40.55"/>
</a>
</g>
<g id="a_edge6&#45;headlabel"><a xlink:href="dir_000467_000506.html" target="_top" xlink:title="1">
<text text-anchor="middle" x="319.4" y="-35.93" font-family="Helvetica,sans-Serif" font-size="10.00" fill="#63b8ff">1</text>
</a>
</g>
</g>
<!-- dir_f335ad7fdd71679ab019891088db11a0&#45;&gt;dir_1bd32d4ef826aeeda00870843eb45c97 -->
<g id="edge1" class="edge">
<title>dir_f335ad7fdd71679ab019891088db11a0&#45;&gt;dir_1bd32d4ef826aeeda00870843eb45c97</title>
<g id="a_edge1"><a xlink:href="dir_000467_000513.html" target="_top">
<path fill="none" stroke="#63b8ff" d="M355,-71.08C355,-64.57 355,-55.42 355,-47.12"/>
<polygon fill="#63b8ff" stroke="#63b8ff" points="358.5,-47.12 355,-37.12 351.5,-47.12 358.5,-47.12"/>
</a>
</g>
<g id="a_edge1&#45;headlabel"><a xlink:href="dir_000467_000513.html" target="_top" xlink:title="1">
<text text-anchor="middle" x="361.34" y="-45.33" font-family="Helvetica,sans-Serif" font-size="10.00" fill="#63b8ff">1</text>
</a>
</g>
</g>
<!-- dir_f335ad7fdd71679ab019891088db11a0&#45;&gt;dir_44719da65bb992f08c8ee8632a1136c7 -->
<g id="edge3" class="edge">
<title>dir_f335ad7fdd71679ab019891088db11a0&#45;&gt;dir_44719da65bb992f08c8ee8632a1136c7</title>
<g id="a_edge3"><a xlink:href="dir_000467_000514.html" target="_top">
<path fill="none" stroke="#63b8ff" d="M366.37,-70.84C376.05,-63.15 390.2,-51.9 401.81,-42.68"/>
<polygon fill="#63b8ff" stroke="#63b8ff" points="403.97,-45.43 409.62,-36.47 399.61,-39.95 403.97,-45.43"/>
</a>
</g>
<g id="a_edge3&#45;headlabel"><a xlink:href="dir_000467_000514.html" target="_top" xlink:title="1">
<text text-anchor="middle" x="404.1" y="-45.07" font-family="Helvetica,sans-Serif" font-size="10.00" fill="#63b8ff">1</text>
</a>
</g>
</g>
<!-- dir_f335ad7fdd71679ab019891088db11a0&#45;&gt;dir_d3b40e87d731c1e886b7a70e6daaf700 -->
<g id="edge11" class="edge">
<title>dir_f335ad7fdd71679ab019891088db11a0&#45;&gt;dir_d3b40e87d731c1e886b7a70e6daaf700</title>
<g id="a_edge11"><a xlink:href="dir_000467_000523.html" target="_top">
<path fill="none" stroke="#63b8ff" d="M366.28,-71.01C370.16,-68.25 374.63,-65.38 379,-63.25 403,-51.56 431.56,-42.57 454.57,-36.43"/>
<polygon fill="#63b8ff" stroke="#63b8ff" points="455.43,-39.83 464.24,-33.94 453.68,-33.05 455.43,-39.83"/>
</a>
</g>
<g id="a_edge11&#45;headlabel"><a xlink:href="dir_000467_000523.html" target="_top" xlink:title="1">
<text text-anchor="middle" x="454.12" y="-39.22" font-family="Helvetica,sans-Serif" font-size="10.00" fill="#63b8ff">1</text>
</a>
</g>
</g>
<!-- dir_f335ad7fdd71679ab019891088db11a0&#45;&gt;dir_87c98c5970299b04095b64caaae46c44 -->
<g id="edge5" class="edge">
<title>dir_f335ad7fdd71679ab019891088db11a0&#45;&gt;dir_87c98c5970299b04095b64caaae46c44</title>
<g id="a_edge5"><a xlink:href="dir_000467_000265.html" target="_top">
<path fill="none" stroke="#63b8ff" d="M365.65,-71.03C369.63,-68.14 374.31,-65.18 379,-63.25 441.72,-37.42 464.95,-48.75 534.24,-35.62"/>
<polygon fill="#63b8ff" stroke="#63b8ff" points="534.69,-39.1 543.81,-33.7 533.31,-32.24 534.69,-39.1"/>
</a>
</g>
<g id="a_edge5&#45;headlabel"><a xlink:href="dir_000467_000265.html" target="_top" xlink:title="1">
<text text-anchor="middle" x="533.21" y="-38.42" font-family="Helvetica,sans-Serif" font-size="10.00" fill="#63b8ff">1</text>
</a>
</g>
</g>
<!-- dir_9be0baa3d4a3e9f480a9ee70594037fa -->
<g id="node12" class="node">
<title>dir_9be0baa3d4a3e9f480a9ee70594037fa</title>
<g id="a_node12"><a xlink:href="dir_9be0baa3d4a3e9f480a9ee70594037fa.html" target="_top" xlink:title="kernel">
<polygon fill="#deebf9" stroke="red" stroke-dasharray="5,2" points="659.12,-35.25 616.88,-35.25 616.88,-16 659.12,-16 659.12,-35.25"/>
<text text-anchor="middle" x="638" y="-21.75" font-family="Helvetica,sans-Serif" font-size="10.00">kernel</text>
</a>
</g>
</g>
<!-- dir_f335ad7fdd71679ab019891088db11a0&#45;&gt;dir_9be0baa3d4a3e9f480a9ee70594037fa -->
<g id="edge7" class="edge">
<title>dir_f335ad7fdd71679ab019891088db11a0&#45;&gt;dir_9be0baa3d4a3e9f480a9ee70594037fa</title>
<g id="a_edge7"><a xlink:href="dir_000467_000239.html" target="_top">
<path fill="none" stroke="#63b8ff" d="M365.6,-70.88C369.56,-67.98 374.26,-65.05 379,-63.25 472.27,-27.8 506.44,-54.73 605.32,-35.94"/>
<polygon fill="#63b8ff" stroke="#63b8ff" points="605.8,-39.41 614.91,-34 604.41,-32.55 605.8,-39.41"/>
</a>
</g>
<g id="a_edge7&#45;headlabel"><a xlink:href="dir_000467_000239.html" target="_top" xlink:title="3">
<text text-anchor="middle" x="604.33" y="-38.73" font-family="Helvetica,sans-Serif" font-size="10.00" fill="#63b8ff">3</text>
</a>
</g>
</g>
<!-- dir_bdd9a5d540de89e9fe90efdfc6973a4f -->
<g id="node13" class="node">
<title>dir_bdd9a5d540de89e9fe90efdfc6973a4f</title>
<g id="a_node13"><a xlink:href="dir_bdd9a5d540de89e9fe90efdfc6973a4f.html" target="_top" xlink:title="common">
<polygon fill="#deebf9" stroke="red" points="730.75,-35.25 677.25,-35.25 677.25,-16 730.75,-16 730.75,-35.25"/>
<text text-anchor="middle" x="704" y="-21.75" font-family="Helvetica,sans-Serif" font-size="10.00">common</text>
</a>
</g>
</g>
<!-- dir_f335ad7fdd71679ab019891088db11a0&#45;&gt;dir_bdd9a5d540de89e9fe90efdfc6973a4f -->
<g id="edge9" class="edge">
<title>dir_f335ad7fdd71679ab019891088db11a0&#45;&gt;dir_bdd9a5d540de89e9fe90efdfc6973a4f</title>
<g id="a_edge9"><a xlink:href="dir_000467_000045.html" target="_top">
<path fill="none" stroke="#63b8ff" d="M365.57,-70.82C369.54,-67.91 374.24,-64.99 379,-63.25 496.74,-20.11 538.36,-54.49 665.61,-35.34"/>
<polygon fill="#63b8ff" stroke="#63b8ff" points="666.14,-38.8 675.46,-33.77 665.03,-31.89 666.14,-38.8"/>
</a>
</g>
<g id="a_edge9&#45;headlabel"><a xlink:href="dir_000467_000045.html" target="_top" xlink:title="1">
<text text-anchor="middle" x="664.53" y="-38.06" font-family="Helvetica,sans-Serif" font-size="10.00" fill="#63b8ff">1</text>
</a>
</g>
</g>
</g>
</svg>
