<?xml version="1.0" encoding="UTF-8" standalone="no"?>
<!DOCTYPE svg PUBLIC "-//W3C//DTD SVG 1.1//EN"
 "http://www.w3.org/Graphics/SVG/1.1/DTD/svg11.dtd">
<!-- Generated by graphviz version 9.0.0 (20230911.1827)
 -->
<!-- Title: iop/system/iopmgr Pages: 1 -->
<svg width="385pt" height="197pt"
 viewBox="0.00 0.00 385.12 197.00" xmlns="http://www.w3.org/2000/svg" xmlns:xlink="http://www.w3.org/1999/xlink">
<g id="graph0" class="graph" transform="scale(1 1) rotate(0) translate(4 193)">
<title>iop/system/iopmgr</title>
<g id="clust1" class="cluster">
<title>clusterdir_40ac35421bc63b72c26b6c69b1517fd6</title>
<g id="a_clust1"><a xlink:href="dir_40ac35421bc63b72c26b6c69b1517fd6.html" target="_top" xlink:title="system">
<polygon fill="#deebf9" stroke="#7f7f7f" stroke-dasharray="5,2" points="8,-8 8,-181 327,-181 327,-8 8,-8"/>
<text text-anchor="middle" x="167.5" y="-167.5" font-family="Helvetica,sans-Serif" font-size="10.00">system</text>
</a>
</g>
</g>
<g id="clust2" class="cluster">
<title>clusterdir_024ed9b5cab300e9b0cec9fa63c26df3</title>
<g id="a_clust2"><a xlink:href="dir_024ed9b5cab300e9b0cec9fa63c26df3.html" target="_top">
<polygon fill="#deebf9" stroke="#404040" stroke-width="2" points="16,-63.25 16,-153.75 125,-153.75 125,-63.25 16,-63.25"/>
</a>
</g>
</g>
<!-- dir_1d64e5e9f20206636d72b5bbe3d2b274 -->
<g id="node1" class="node">
<title>dir_1d64e5e9f20206636d72b5bbe3d2b274</title>
<g id="a_node1"><a xlink:href="dir_1d64e5e9f20206636d72b5bbe3d2b274.html" target="_top" xlink:title="loadcore">
<polygon fill="#60a2e3" stroke="red" points="90.38,-35.25 37.62,-35.25 37.62,-16 90.38,-16 90.38,-35.25"/>
<text text-anchor="middle" x="64" y="-21.75" font-family="Helvetica,sans-Serif" font-size="10.00">loadcore</text>
</a>
</g>
</g>
<!-- dir_d204d0cf134f4cdf6ccf23f48ed9ae60 -->
<g id="node2" class="node">
<title>dir_d204d0cf134f4cdf6ccf23f48ed9ae60</title>
<g id="a_node2"><a xlink:href="dir_d204d0cf134f4cdf6ccf23f48ed9ae60.html" target="_top" xlink:title="ioman">
<polygon fill="#60a2e3" stroke="red" points="213.12,-35.25 170.88,-35.25 170.88,-16 213.12,-16 213.12,-35.25"/>
<text text-anchor="middle" x="192" y="-21.75" font-family="Helvetica,sans-Serif" font-size="10.00">ioman</text>
</a>
</g>
</g>
<!-- dir_f82a163f83eb0dcdf294ef3743365a67 -->
<g id="node3" class="node">
<title>dir_f82a163f83eb0dcdf294ef3743365a67</title>
<g id="a_node3"><a xlink:href="dir_f82a163f83eb0dcdf294ef3743365a67.html" target="_top" xlink:title="iomanx">
<polygon fill="#60a2e3" stroke="red" points="319.38,-90.5 272.62,-90.5 272.62,-71.25 319.38,-71.25 319.38,-90.5"/>
<text text-anchor="middle" x="296" y="-77" font-family="Helvetica,sans-Serif" font-size="10.00">iomanx</text>
</a>
</g>
</g>
<!-- dir_952a988346c879bc3b2834e2377036db -->
<g id="node4" class="node">
<title>dir_952a988346c879bc3b2834e2377036db</title>
<g id="a_node4"><a xlink:href="dir_952a988346c879bc3b2834e2377036db.html" target="_top" xlink:title="stdio">
<polygon fill="#60a2e3" stroke="red" points="170.5,-90.5 133.5,-90.5 133.5,-71.25 170.5,-71.25 170.5,-90.5"/>
<text text-anchor="middle" x="152" y="-77" font-family="Helvetica,sans-Serif" font-size="10.00">stdio</text>
</a>
</g>
</g>
<!-- dir_1bd32d4ef826aeeda00870843eb45c97 -->
<g id="node5" class="node">
<title>dir_1bd32d4ef826aeeda00870843eb45c97</title>
<g id="a_node5"><a xlink:href="dir_1bd32d4ef826aeeda00870843eb45c97.html" target="_top" xlink:title="sysclib">
<polygon fill="#60a2e3" stroke="red" points="235,-90.5 189,-90.5 189,-71.25 235,-71.25 235,-90.5"/>
<text text-anchor="middle" x="212" y="-77" font-family="Helvetica,sans-Serif" font-size="10.00">sysclib</text>
</a>
</g>
</g>
<!-- dir_024ed9b5cab300e9b0cec9fa63c26df3 -->
<g id="node6" class="node">
<title>dir_024ed9b5cab300e9b0cec9fa63c26df3</title>
<text text-anchor="middle" x="94" y="-132.25" font-family="Helvetica,sans-Serif" font-size="10.00">iopmgr</text>
</g>
<!-- dir_f43a10262b73c6e7d8c393ecfde6f1ae -->
<g id="node7" class="node">
<title>dir_f43a10262b73c6e7d8c393ecfde6f1ae</title>
<g id="a_node7"><a xlink:href="dir_f43a10262b73c6e7d8c393ecfde6f1ae.html" target="_top" xlink:title="include">
<polygon fill="#60a2e3" stroke="#404040" points="112.38,-90.5 65.62,-90.5 65.62,-71.25 112.38,-71.25 112.38,-90.5"/>
<text text-anchor="middle" x="89" y="-77" font-family="Helvetica,sans-Serif" font-size="10.00">include</text>
</a>
</g>
</g>
<!-- dir_f43a10262b73c6e7d8c393ecfde6f1ae&#45;&gt;dir_1d64e5e9f20206636d72b5bbe3d2b274 -->
<g id="edge1" class="edge">
<title>dir_f43a10262b73c6e7d8c393ecfde6f1ae&#45;&gt;dir_1d64e5e9f20206636d72b5bbe3d2b274</title>
<g id="a_edge1"><a xlink:href="dir_000199_000254.html" target="_top">
<path fill="none" stroke="#63b8ff" d="M84.87,-71.08C81.67,-64.26 77.11,-54.56 73.07,-45.95"/>
<polygon fill="#63b8ff" stroke="#63b8ff" points="76.28,-44.54 68.86,-36.98 69.94,-47.52 76.28,-44.54"/>
</a>
</g>
<g id="a_edge1&#45;headlabel"><a xlink:href="dir_000199_000254.html" target="_top" xlink:title="1">
<text text-anchor="middle" x="79.73" y="-41.35" font-family="Helvetica,sans-Serif" font-size="10.00" fill="#63b8ff">1</text>
</a>
</g>
</g>
<!-- dir_f43a10262b73c6e7d8c393ecfde6f1ae&#45;&gt;dir_d204d0cf134f4cdf6ccf23f48ed9ae60 -->
<g id="edge3" class="edge">
<title>dir_f43a10262b73c6e7d8c393ecfde6f1ae&#45;&gt;dir_d204d0cf134f4cdf6ccf23f48ed9ae60</title>
<g id="a_edge3"><a xlink:href="dir_000199_000230.html" target="_top">
<path fill="none" stroke="#63b8ff" d="M103.13,-70.8C107.23,-68.27 111.75,-65.57 116,-63.25 130.75,-55.19 147.54,-46.99 161.59,-40.4"/>
<polygon fill="#63b8ff" stroke="#63b8ff" points="162.74,-43.73 170.34,-36.35 159.8,-37.38 162.74,-43.73"/>
</a>
</g>
<g id="a_edge3&#45;headlabel"><a xlink:href="dir_000199_000230.html" target="_top" xlink:title="1">
<text text-anchor="middle" x="162.05" y="-43.3" font-family="Helvetica,sans-Serif" font-size="10.00" fill="#63b8ff">1</text>
</a>
</g>
</g>
<!-- dir_9be0baa3d4a3e9f480a9ee70594037fa -->
<g id="node9" class="node">
<title>dir_9be0baa3d4a3e9f480a9ee70594037fa</title>
<g id="a_node9"><a xlink:href="dir_9be0baa3d4a3e9f480a9ee70594037fa.html" target="_top" xlink:title="kernel">
<polygon fill="#deebf9" stroke="red" stroke-dasharray="5,2" points="377.12,-35.25 334.88,-35.25 334.88,-16 377.12,-16 377.12,-35.25"/>
<text text-anchor="middle" x="356" y="-21.75" font-family="Helvetica,sans-Serif" font-size="10.00">kernel</text>
</a>
</g>
</g>
<!-- dir_f43a10262b73c6e7d8c393ecfde6f1ae&#45;&gt;dir_9be0baa3d4a3e9f480a9ee70594037fa -->
<g id="edge2" class="edge">
<title>dir_f43a10262b73c6e7d8c393ecfde6f1ae&#45;&gt;dir_9be0baa3d4a3e9f480a9ee70594037fa</title>
<g id="a_edge2"><a xlink:href="dir_000199_000239.html" target="_top">
<path fill="none" stroke="#63b8ff" d="M101.35,-70.75C105.77,-67.91 110.92,-65.05 116,-63.25 203.28,-32.31 234.73,-55.34 323.43,-36.81"/>
<polygon fill="#63b8ff" stroke="#63b8ff" points="324.06,-40.26 333.06,-34.67 322.54,-33.42 324.06,-40.26"/>
</a>
</g>
<g id="a_edge2&#45;headlabel"><a xlink:href="dir_000199_000239.html" target="_top" xlink:title="1">
<text text-anchor="middle" x="322.64" y="-39.61" font-family="Helvetica,sans-Serif" font-size="10.00" fill="#63b8ff">1</text>
</a>
</g>
</g>
<!-- dir_1a7f0e9c955f51a704f1181957f21135 -->
<g id="node8" class="node">
<title>dir_1a7f0e9c955f51a704f1181957f21135</title>
<g id="a_node8"><a xlink:href="dir_1a7f0e9c955f51a704f1181957f21135.html" target="_top" xlink:title="src">
<polygon fill="#60a2e3" stroke="#404040" points="53.75,-145.75 24.25,-145.75 24.25,-126.5 53.75,-126.5 53.75,-145.75"/>
<text text-anchor="middle" x="39" y="-132.25" font-family="Helvetica,sans-Serif" font-size="10.00">src</text>
</a>
</g>
</g>
<!-- dir_1a7f0e9c955f51a704f1181957f21135&#45;&gt;dir_1d64e5e9f20206636d72b5bbe3d2b274 -->
<g id="edge5" class="edge">
<title>dir_1a7f0e9c955f51a704f1181957f21135&#45;&gt;dir_1d64e5e9f20206636d72b5bbe3d2b274</title>
<g id="a_edge5"><a xlink:href="dir_000465_000254.html" target="_top">
<path fill="none" stroke="#63b8ff" d="M41.05,-126.25C45.02,-109 53.87,-70.58 59.35,-46.81"/>
<polygon fill="#63b8ff" stroke="#63b8ff" points="62.75,-47.63 61.59,-37.1 55.93,-46.06 62.75,-47.63"/>
</a>
</g>
<g id="a_edge5&#45;headlabel"><a xlink:href="dir_000465_000254.html" target="_top" xlink:title="3">
<text text-anchor="middle" x="65.05" y="-46.42" font-family="Helvetica,sans-Serif" font-size="10.00" fill="#63b8ff">3</text>
</a>
</g>
</g>
<!-- dir_1a7f0e9c955f51a704f1181957f21135&#45;&gt;dir_d204d0cf134f4cdf6ccf23f48ed9ae60 -->
<g id="edge8" class="edge">
<title>dir_1a7f0e9c955f51a704f1181957f21135&#45;&gt;dir_d204d0cf134f4cdf6ccf23f48ed9ae60</title>
<g id="a_edge8"><a xlink:href="dir_000465_000230.html" target="_top">
<path fill="none" stroke="#63b8ff" d="M53.98,-129.11C56.62,-128.16 59.37,-127.25 62,-126.5 141.31,-103.95 191.66,-154.21 244,-90.5 251.69,-81.14 249.58,-74 244,-63.25 239.36,-54.3 231.42,-47.08 223.12,-41.49"/>
<polygon fill="#63b8ff" stroke="#63b8ff" points="225.06,-38.58 214.68,-36.45 221.47,-44.58 225.06,-38.58"/>
</a>
</g>
<g id="a_edge8&#45;headlabel"><a xlink:href="dir_000465_000230.html" target="_top" xlink:title="2">
<text text-anchor="middle" x="228.31" y="-33.33" font-family="Helvetica,sans-Serif" font-size="10.00" fill="#63b8ff">2</text>
</a>
</g>
</g>
<!-- dir_1a7f0e9c955f51a704f1181957f21135&#45;&gt;dir_f82a163f83eb0dcdf294ef3743365a67 -->
<g id="edge10" class="edge">
<title>dir_1a7f0e9c955f51a704f1181957f21135&#45;&gt;dir_f82a163f83eb0dcdf294ef3743365a67</title>
<g id="a_edge10"><a xlink:href="dir_000465_000231.html" target="_top">
<path fill="none" stroke="#63b8ff" d="M54.22,-128.99C56.79,-128.07 59.45,-127.2 62,-126.5 147.79,-102.78 171.86,-108.61 259,-90.5 259.67,-90.36 260.34,-90.22 261.02,-90.08"/>
<polygon fill="#63b8ff" stroke="#63b8ff" points="261.67,-93.52 270.68,-87.94 260.16,-86.68 261.67,-93.52"/>
</a>
</g>
<g id="a_edge10&#45;headlabel"><a xlink:href="dir_000465_000231.html" target="_top" xlink:title="3">
<text text-anchor="middle" x="260.25" y="-92.86" font-family="Helvetica,sans-Serif" font-size="10.00" fill="#63b8ff">3</text>
</a>
</g>
</g>
<!-- dir_1a7f0e9c955f51a704f1181957f21135&#45;&gt;dir_952a988346c879bc3b2834e2377036db -->
<g id="edge6" class="edge">
<title>dir_1a7f0e9c955f51a704f1181957f21135&#45;&gt;dir_952a988346c879bc3b2834e2377036db</title>
<g id="a_edge6"><a xlink:href="dir_000465_000506.html" target="_top">
<path fill="none" stroke="#63b8ff" d="M54.24,-127.94C71.76,-119.69 100.93,-105.94 122.85,-95.61"/>
<polygon fill="#63b8ff" stroke="#63b8ff" points="124.33,-98.79 131.88,-91.36 121.34,-92.45 124.33,-98.79"/>
</a>
</g>
<g id="a_edge6&#45;headlabel"><a xlink:href="dir_000465_000506.html" target="_top" xlink:title="6">
<text text-anchor="middle" x="123.65" y="-98.37" font-family="Helvetica,sans-Serif" font-size="10.00" fill="#63b8ff">6</text>
</a>
</g>
</g>
<!-- dir_1a7f0e9c955f51a704f1181957f21135&#45;&gt;dir_1bd32d4ef826aeeda00870843eb45c97 -->
<g id="edge4" class="edge">
<title>dir_1a7f0e9c955f51a704f1181957f21135&#45;&gt;dir_1bd32d4ef826aeeda00870843eb45c97</title>
<g id="a_edge4"><a xlink:href="dir_000465_000513.html" target="_top">
<path fill="none" stroke="#63b8ff" d="M54.04,-129.31C56.68,-128.34 59.41,-127.37 62,-126.5 101.4,-113.27 147.26,-99.92 177.81,-91.31"/>
<polygon fill="#63b8ff" stroke="#63b8ff" points="178.57,-94.73 187.26,-88.67 176.69,-87.99 178.57,-94.73"/>
</a>
</g>
<g id="a_edge4&#45;headlabel"><a xlink:href="dir_000465_000513.html" target="_top" xlink:title="5">
<text text-anchor="middle" x="177.33" y="-94.15" font-family="Helvetica,sans-Serif" font-size="10.00" fill="#63b8ff">5</text>
</a>
</g>
</g>
<!-- dir_1a7f0e9c955f51a704f1181957f21135&#45;&gt;dir_f43a10262b73c6e7d8c393ecfde6f1ae -->
<g id="edge9" class="edge">
<title>dir_1a7f0e9c955f51a704f1181957f21135&#45;&gt;dir_f43a10262b73c6e7d8c393ecfde6f1ae</title>
<g id="a_edge9"><a xlink:href="dir_000465_000199.html" target="_top">
<path fill="none" stroke="#63b8ff" d="M47.26,-126.33C54.16,-118.98 64.22,-108.26 72.74,-99.19"/>
<polygon fill="#63b8ff" stroke="#63b8ff" points="75.23,-101.65 79.53,-91.96 70.13,-96.86 75.23,-101.65"/>
</a>
</g>
<g id="a_edge9&#45;headlabel"><a xlink:href="dir_000465_000199.html" target="_top" xlink:title="5">
<text text-anchor="middle" x="75.88" y="-101.23" font-family="Helvetica,sans-Serif" font-size="10.00" fill="#63b8ff">5</text>
</a>
</g>
</g>
<!-- dir_1a7f0e9c955f51a704f1181957f21135&#45;&gt;dir_9be0baa3d4a3e9f480a9ee70594037fa -->
<g id="edge7" class="edge">
<title>dir_1a7f0e9c955f51a704f1181957f21135&#45;&gt;dir_9be0baa3d4a3e9f480a9ee70594037fa</title>
<g id="a_edge7"><a xlink:href="dir_000465_000239.html" target="_top">
<path fill="none" stroke="#63b8ff" d="M54.19,-128.88C56.76,-127.98 59.44,-127.14 62,-126.5 120.5,-111.82 283.55,-127.73 331,-90.5 344.33,-80.04 350.57,-61.47 353.48,-47.04"/>
<polygon fill="#63b8ff" stroke="#63b8ff" points="356.92,-47.65 355.03,-37.23 350.01,-46.55 356.92,-47.65"/>
</a>
</g>
<g id="a_edge7&#45;headlabel"><a xlink:href="dir_000465_000239.html" target="_top" xlink:title="9">
<text text-anchor="middle" x="359.4" y="-46.28" font-family="Helvetica,sans-Serif" font-size="10.00" fill="#63b8ff">9</text>
</a>
</g>
</g>
</g>
</svg>
