<?xml version="1.0" encoding="UTF-8" standalone="no"?>
<!DOCTYPE svg PUBLIC "-//W3C//DTD SVG 1.1//EN"
 "http://www.w3.org/Graphics/SVG/1.1/DTD/svg11.dtd">
<!-- Generated by graphviz version 2.43.0 (0)
 -->
<!-- Title: iop/system/excepman/src Pages: 1 -->
<svg width="194pt" height="295pt"
 viewBox="0.00 0.00 194.29 295.00" xmlns="http://www.w3.org/2000/svg" xmlns:xlink="http://www.w3.org/1999/xlink">
<g id="graph0" class="graph" transform="scale(1 1) rotate(0) translate(4 291)">
<title>iop/system/excepman/src</title>
<polygon fill="white" stroke="transparent" points="-4,4 -4,-291 190.29,-291 190.29,4 -4,4"/>
<g id="clust1" class="cluster">
<title>clusterdir_07d95afa3a823c57813d0b20ca3e9410</title>
<g id="a_clust1"><a xlink:href="dir_07d95afa3a823c57813d0b20ca3e9410.html" target="_top" xlink:title="excepman">
<polygon fill="#ddddee" stroke="black" points="40.29,-208 40.29,-279 110.29,-279 110.29,-208 40.29,-208"/>
<text text-anchor="middle" x="75.29" y="-267" font-family="Helvetica,sans-Serif" font-size="10.00">excepman</text>
</a>
</g>
</g>
<!-- dir_bb6a3a7d8adb654c719be286ee32591c -->
<g id="node1" class="node">
<title>dir_bb6a3a7d8adb654c719be286ee32591c</title>
<g id="a_node1"><a xlink:href="dir_bb6a3a7d8adb654c719be286ee32591c.html" target="_top" xlink:title="src">
<polygon fill="#eeeeff" stroke="black" points="102.29,-252 48.29,-252 48.29,-216 102.29,-216 102.29,-252"/>
<text text-anchor="middle" x="75.29" y="-231.5" font-family="Helvetica,sans-Serif" font-size="10.00">src</text>
</a>
</g>
</g>
<!-- dir_9be0baa3d4a3e9f480a9ee70594037fa -->
<g id="node2" class="node">
<title>dir_9be0baa3d4a3e9f480a9ee70594037fa</title>
<g id="a_node2"><a xlink:href="dir_9be0baa3d4a3e9f480a9ee70594037fa.html" target="_top" xlink:title="kernel">
<polygon fill="white" stroke="red" points="99.29,-36 45.29,-36 45.29,0 99.29,0 99.29,-36"/>
<text text-anchor="middle" x="72.29" y="-15.5" font-family="Helvetica,sans-Serif" font-size="10.00">kernel</text>
</a>
</g>
</g>
<!-- dir_bb6a3a7d8adb654c719be286ee32591c&#45;&gt;dir_9be0baa3d4a3e9f480a9ee70594037fa -->
<g id="edge3" class="edge">
<title>dir_bb6a3a7d8adb654c719be286ee32591c&#45;&gt;dir_9be0baa3d4a3e9f480a9ee70594037fa</title>
<path fill="none" stroke="black" d="M47.94,-219.62C32.96,-210.67 15.76,-197.35 7.29,-180 -15.64,-133.06 22.27,-75.88 49.15,-43.85"/>
<polygon fill="black" stroke="black" points="51.81,-46.12 55.7,-36.27 46.51,-41.54 51.81,-46.12"/>
<g id="a_edge3&#45;headlabel"><a xlink:href="dir_000227_000525.html" target="_top" xlink:title="2">
<text text-anchor="middle" x="51.61" y="-48.2" font-family="Helvetica,sans-Serif" font-size="10.00">2</text>
</a>
</g>
</g>
<!-- dir_1d64e5e9f20206636d72b5bbe3d2b274 -->
<g id="node3" class="node">
<title>dir_1d64e5e9f20206636d72b5bbe3d2b274</title>
<g id="a_node3"><a xlink:href="dir_1d64e5e9f20206636d72b5bbe3d2b274.html" target="_top" xlink:title="loadcore">
<polygon fill="white" stroke="red" points="75.79,-180 16.79,-180 16.79,-144 75.79,-144 75.79,-180"/>
<text text-anchor="middle" x="46.29" y="-159.5" font-family="Helvetica,sans-Serif" font-size="10.00">loadcore</text>
</a>
</g>
</g>
<!-- dir_bb6a3a7d8adb654c719be286ee32591c&#45;&gt;dir_1d64e5e9f20206636d72b5bbe3d2b274 -->
<g id="edge4" class="edge">
<title>dir_bb6a3a7d8adb654c719be286ee32591c&#45;&gt;dir_1d64e5e9f20206636d72b5bbe3d2b274</title>
<path fill="none" stroke="black" d="M68.12,-215.7C64.85,-207.81 60.91,-198.3 57.29,-189.55"/>
<polygon fill="black" stroke="black" points="60.43,-188 53.37,-180.1 53.97,-190.68 60.43,-188"/>
<g id="a_edge4&#45;headlabel"><a xlink:href="dir_000227_000240.html" target="_top" xlink:title="1">
<text text-anchor="middle" x="64.43" y="-187.74" font-family="Helvetica,sans-Serif" font-size="10.00">1</text>
</a>
</g>
</g>
<!-- dir_44719da65bb992f08c8ee8632a1136c7 -->
<g id="node4" class="node">
<title>dir_44719da65bb992f08c8ee8632a1136c7</title>
<g id="a_node4"><a xlink:href="dir_44719da65bb992f08c8ee8632a1136c7.html" target="_top" xlink:title="sysmem">
<polygon fill="white" stroke="red" points="130.79,-108 71.79,-108 71.79,-72 130.79,-72 130.79,-108"/>
<text text-anchor="middle" x="101.29" y="-87.5" font-family="Helvetica,sans-Serif" font-size="10.00">sysmem</text>
</a>
</g>
</g>
<!-- dir_bb6a3a7d8adb654c719be286ee32591c&#45;&gt;dir_44719da65bb992f08c8ee8632a1136c7 -->
<g id="edge5" class="edge">
<title>dir_bb6a3a7d8adb654c719be286ee32591c&#45;&gt;dir_44719da65bb992f08c8ee8632a1136c7</title>
<path fill="none" stroke="black" d="M78.42,-215.87C82.85,-191.67 91,-147.21 96.27,-118.39"/>
<polygon fill="black" stroke="black" points="99.78,-118.66 98.14,-108.19 92.9,-117.4 99.78,-118.66"/>
<g id="a_edge5&#45;headlabel"><a xlink:href="dir_000227_000587.html" target="_top" xlink:title="1">
<text text-anchor="middle" x="101.93" y="-120.2" font-family="Helvetica,sans-Serif" font-size="10.00">1</text>
</a>
</g>
</g>
<!-- dir_93e72ac5e0899245066e72da711db400 -->
<g id="node5" class="node">
<title>dir_93e72ac5e0899245066e72da711db400</title>
<g id="a_node5"><a xlink:href="dir_93e72ac5e0899245066e72da711db400.html" target="_top" xlink:title="include">
<polygon fill="none" stroke="black" points="186.29,-180 132.29,-180 132.29,-144 186.29,-144 186.29,-180"/>
<text text-anchor="middle" x="159.29" y="-159.5" font-family="Helvetica,sans-Serif" font-size="10.00">include</text>
</a>
</g>
</g>
<!-- dir_bb6a3a7d8adb654c719be286ee32591c&#45;&gt;dir_93e72ac5e0899245066e72da711db400 -->
<g id="edge6" class="edge">
<title>dir_bb6a3a7d8adb654c719be286ee32591c&#45;&gt;dir_93e72ac5e0899245066e72da711db400</title>
<path fill="none" stroke="black" d="M96.05,-215.7C106.53,-206.97 119.4,-196.24 130.79,-186.75"/>
<polygon fill="black" stroke="black" points="133.32,-189.19 138.76,-180.1 128.84,-183.82 133.32,-189.19"/>
<g id="a_edge6&#45;headlabel"><a xlink:href="dir_000227_000555.html" target="_top" xlink:title="1">
<text text-anchor="middle" x="132.38" y="-191.18" font-family="Helvetica,sans-Serif" font-size="10.00">1</text>
</a>
</g>
</g>
<!-- dir_1d64e5e9f20206636d72b5bbe3d2b274&#45;&gt;dir_9be0baa3d4a3e9f480a9ee70594037fa -->
<g id="edge1" class="edge">
<title>dir_1d64e5e9f20206636d72b5bbe3d2b274&#45;&gt;dir_9be0baa3d4a3e9f480a9ee70594037fa</title>
<path fill="none" stroke="black" d="M49.31,-143.93C52.5,-126.01 57.68,-97.01 62.29,-72 63.84,-63.58 65.56,-54.42 67.12,-46.12"/>
<polygon fill="black" stroke="black" points="70.58,-46.66 69.01,-36.18 63.71,-45.35 70.58,-46.66"/>
<g id="a_edge1&#45;headlabel"><a xlink:href="dir_000240_000525.html" target="_top" xlink:title="4">
<text text-anchor="middle" x="72.71" y="-48.22" font-family="Helvetica,sans-Serif" font-size="10.00">4</text>
</a>
</g>
</g>
<!-- dir_1d64e5e9f20206636d72b5bbe3d2b274&#45;&gt;dir_44719da65bb992f08c8ee8632a1136c7 -->
<g id="edge2" class="edge">
<title>dir_1d64e5e9f20206636d72b5bbe3d2b274&#45;&gt;dir_44719da65bb992f08c8ee8632a1136c7</title>
<path fill="none" stroke="black" d="M59.88,-143.7C66.41,-135.39 74.36,-125.28 81.53,-116.14"/>
<polygon fill="black" stroke="black" points="84.42,-118.13 87.85,-108.1 78.92,-113.81 84.42,-118.13"/>
<g id="a_edge2&#45;headlabel"><a xlink:href="dir_000240_000587.html" target="_top" xlink:title="1">
<text text-anchor="middle" x="84.43" y="-120.21" font-family="Helvetica,sans-Serif" font-size="10.00">1</text>
</a>
</g>
</g>
<!-- dir_44719da65bb992f08c8ee8632a1136c7&#45;&gt;dir_9be0baa3d4a3e9f480a9ee70594037fa -->
<g id="edge7" class="edge">
<title>dir_44719da65bb992f08c8ee8632a1136c7&#45;&gt;dir_9be0baa3d4a3e9f480a9ee70594037fa</title>
<path fill="none" stroke="black" d="M94.12,-71.7C90.85,-63.81 86.91,-54.3 83.29,-45.55"/>
<polygon fill="black" stroke="black" points="86.43,-44 79.37,-36.1 79.97,-46.68 86.43,-44"/>
<g id="a_edge7&#45;headlabel"><a xlink:href="dir_000587_000525.html" target="_top" xlink:title="1">
<text text-anchor="middle" x="90.43" y="-43.74" font-family="Helvetica,sans-Serif" font-size="10.00">1</text>
</a>
</g>
</g>
<!-- dir_93e72ac5e0899245066e72da711db400&#45;&gt;dir_9be0baa3d4a3e9f480a9ee70594037fa -->
<g id="edge8" class="edge">
<title>dir_93e72ac5e0899245066e72da711db400&#45;&gt;dir_9be0baa3d4a3e9f480a9ee70594037fa</title>
<path fill="none" stroke="black" d="M158.8,-143.99C157.54,-125.07 153.28,-94.26 139.29,-72 131.41,-59.47 119.49,-48.66 107.89,-40.13"/>
<polygon fill="black" stroke="black" points="109.76,-37.16 99.55,-34.32 105.76,-42.91 109.76,-37.16"/>
<g id="a_edge8&#45;headlabel"><a xlink:href="dir_000555_000525.html" target="_top" xlink:title="1">
<text text-anchor="middle" x="114.33" y="-34.39" font-family="Helvetica,sans-Serif" font-size="10.00">1</text>
</a>
</g>
</g>
</g>
</svg>
