<?xml version="1.0" encoding="UTF-8" standalone="no"?>
<!DOCTYPE svg PUBLIC "-//W3C//DTD SVG 1.1//EN"
 "http://www.w3.org/Graphics/SVG/1.1/DTD/svg11.dtd">
<!-- Generated by graphviz version 9.0.0 (20230911.1827)
 -->
<!-- Title: iop/dvrp Pages: 1 -->
<svg width="494pt" height="142pt"
 viewBox="0.00 0.00 493.75 141.75" xmlns="http://www.w3.org/2000/svg" xmlns:xlink="http://www.w3.org/1999/xlink">

<svg id="main" version="1.1" xmlns="http://www.w3.org/2000/svg" xmlns:xlink="http://www.w3.org/1999/xlink" xml:space="preserve" onload="init(evt)">
<style type="text/css"><![CDATA[
.node, .edge {opacity: 0.7;}
.node.selected, .edge.selected {opacity: 1;}
.edge:hover path { stroke: red; }
.edge:hover polygon { stroke: red; fill: red; }
]]></style>
<script type="application/ecmascript" xlink:href="svg.min.js"/>
<svg id="graph" class="graph">
<g id="graph0" class="graph" transform="scale(1 1) rotate(0) translate(4 137.75)">
<title>iop/dvrp</title>
<g id="clust1" class="cluster">
<title>clusterdir_0981ace215aa2029f526b70c145b9fbe</title>
<g id="a_clust1"><a xlink:href="dir_0981ace215aa2029f526b70c145b9fbe.html" target="_top" xlink:title="iop">
<polygon fill="#deebf9" stroke="#404040" stroke-dasharray="5,2" points="8,-8 8,-125.75 424,-125.75 424,-8 8,-8"/>
<text text-anchor="middle" x="216" y="-112.25" font-family="Helvetica,sans-Serif" font-size="10.00">iop</text>
</a>
</g>
</g>
<g id="clust2" class="cluster">
<title>clusterdir_a16ad4cba4b1f15056f2b7b0b5931815</title>
<g id="a_clust2"><a xlink:href="dir_a16ad4cba4b1f15056f2b7b0b5931815.html" target="_top">
<polygon fill="#deebf9" stroke="#404040" stroke-width="2" points="16,-63.25 16,-98.5 416,-98.5 416,-63.25 16,-63.25"/>
</a>
</g>
</g>
<!-- dir_40ac35421bc63b72c26b6c69b1517fd6 -->
<g id="node1" class="node">
<title>dir_40ac35421bc63b72c26b6c69b1517fd6</title>
<g id="a_node1"><a xlink:href="dir_40ac35421bc63b72c26b6c69b1517fd6.html" target="_top" xlink:title="system">
<polygon fill="#60a2e3" stroke="red" points="152.75,-35.25 105.25,-35.25 105.25,-16 152.75,-16 152.75,-35.25"/>
<text text-anchor="middle" x="129" y="-21.75" font-family="Helvetica,sans-Serif" font-size="10.00">system</text>
</a>
</g>
</g>
<!-- dir_6f16cad81de2453a6f48c5e272ba4a18 -->
<g id="node2" class="node">
<title>dir_6f16cad81de2453a6f48c5e272ba4a18</title>
<g id="a_node2"><a xlink:href="dir_6f16cad81de2453a6f48c5e272ba4a18.html" target="_top" xlink:title="dev9">
<polygon fill="#60a2e3" stroke="red" points="207.5,-35.25 170.5,-35.25 170.5,-16 207.5,-16 207.5,-35.25"/>
<text text-anchor="middle" x="189" y="-21.75" font-family="Helvetica,sans-Serif" font-size="10.00">dev9</text>
</a>
</g>
</g>
<!-- dir_9be0baa3d4a3e9f480a9ee70594037fa -->
<g id="node3" class="node">
<title>dir_9be0baa3d4a3e9f480a9ee70594037fa</title>
<g id="a_node3"><a xlink:href="dir_9be0baa3d4a3e9f480a9ee70594037fa.html" target="_top" xlink:title="kernel">
<polygon fill="#60a2e3" stroke="red" points="268.12,-35.25 225.88,-35.25 225.88,-16 268.12,-16 268.12,-35.25"/>
<text text-anchor="middle" x="247" y="-21.75" font-family="Helvetica,sans-Serif" font-size="10.00">kernel</text>
</a>
</g>
</g>
<!-- dir_a16ad4cba4b1f15056f2b7b0b5931815 -->
<g id="node4" class="node">
<title>dir_a16ad4cba4b1f15056f2b7b0b5931815</title>
<text text-anchor="middle" x="391" y="-77" font-family="Helvetica,sans-Serif" font-size="10.00">dvrp</text>
</g>
<!-- dir_8d816be76444126f1148a76612486d4b -->
<g id="node5" class="node">
<title>dir_8d816be76444126f1148a76612486d4b</title>
<g id="a_node5"><a xlink:href="dir_8d816be76444126f1148a76612486d4b.html" target="_top" xlink:title="dvr">
<polygon fill="#60a2e3" stroke="#404040" points="229.75,-90.5 200.25,-90.5 200.25,-71.25 229.75,-71.25 229.75,-90.5"/>
<text text-anchor="middle" x="215" y="-77" font-family="Helvetica,sans-Serif" font-size="10.00">dvr</text>
</a>
</g>
</g>
<!-- dir_8d816be76444126f1148a76612486d4b&#45;&gt;dir_40ac35421bc63b72c26b6c69b1517fd6 -->
<g id="edge1" class="edge">
<title>dir_8d816be76444126f1148a76612486d4b&#45;&gt;dir_40ac35421bc63b72c26b6c69b1517fd6</title>
<g id="a_edge1"><a xlink:href="dir_000055_000515.html" target="_top">
<path fill="none" stroke="#63b8ff" d="M202.41,-70.9C198.77,-68.37 194.76,-65.66 191,-63.25 179.23,-55.71 165.92,-47.77 154.66,-41.22"/>
<polygon fill="#63b8ff" stroke="#63b8ff" points="156.71,-38.37 146.3,-36.4 153.22,-44.43 156.71,-38.37"/>
</a>
</g>
<g id="a_edge1&#45;headlabel"><a xlink:href="dir_000055_000515.html" target="_top" xlink:title="11">
<text text-anchor="middle" x="159.93" y="-33.07" font-family="Helvetica,sans-Serif" font-size="10.00" fill="#63b8ff">11</text>
</a>
</g>
</g>
<!-- dir_8d816be76444126f1148a76612486d4b&#45;&gt;dir_6f16cad81de2453a6f48c5e272ba4a18 -->
<g id="edge2" class="edge">
<title>dir_8d816be76444126f1148a76612486d4b&#45;&gt;dir_6f16cad81de2453a6f48c5e272ba4a18</title>
<g id="a_edge2"><a xlink:href="dir_000055_000049.html" target="_top">
<path fill="none" stroke="#63b8ff" d="M210.71,-71.08C207.38,-64.26 202.64,-54.56 198.44,-45.95"/>
<polygon fill="#63b8ff" stroke="#63b8ff" points="201.58,-44.42 194.05,-36.97 195.29,-47.49 201.58,-44.42"/>
</a>
</g>
<g id="a_edge2&#45;headlabel"><a xlink:href="dir_000055_000049.html" target="_top" xlink:title="2">
<text text-anchor="middle" x="205.05" y="-41.17" font-family="Helvetica,sans-Serif" font-size="10.00" fill="#63b8ff">2</text>
</a>
</g>
</g>
<!-- dir_8d816be76444126f1148a76612486d4b&#45;&gt;dir_9be0baa3d4a3e9f480a9ee70594037fa -->
<g id="edge4" class="edge">
<title>dir_8d816be76444126f1148a76612486d4b&#45;&gt;dir_9be0baa3d4a3e9f480a9ee70594037fa</title>
<g id="a_edge4"><a xlink:href="dir_000055_000239.html" target="_top">
<path fill="none" stroke="#63b8ff" d="M220.28,-71.08C224.47,-64.11 230.48,-54.12 235.73,-45.37"/>
<polygon fill="#63b8ff" stroke="#63b8ff" points="238.67,-47.28 240.82,-36.91 232.67,-43.68 238.67,-47.28"/>
</a>
</g>
<g id="a_edge4&#45;headlabel"><a xlink:href="dir_000055_000239.html" target="_top" xlink:title="1">
<text text-anchor="middle" x="240.03" y="-46.65" font-family="Helvetica,sans-Serif" font-size="10.00" fill="#63b8ff">1</text>
</a>
</g>
</g>
<!-- dir_bdd9a5d540de89e9fe90efdfc6973a4f -->
<g id="node11" class="node">
<title>dir_bdd9a5d540de89e9fe90efdfc6973a4f</title>
<g id="a_node11"><a xlink:href="dir_bdd9a5d540de89e9fe90efdfc6973a4f.html" target="_top" xlink:title="common">
<polygon fill="#deebf9" stroke="red" points="485.75,-35.25 432.25,-35.25 432.25,-16 485.75,-16 485.75,-35.25"/>
<text text-anchor="middle" x="459" y="-21.75" font-family="Helvetica,sans-Serif" font-size="10.00">common</text>
</a>
</g>
</g>
<!-- dir_8d816be76444126f1148a76612486d4b&#45;&gt;dir_bdd9a5d540de89e9fe90efdfc6973a4f -->
<g id="edge3" class="edge">
<title>dir_8d816be76444126f1148a76612486d4b&#45;&gt;dir_bdd9a5d540de89e9fe90efdfc6973a4f</title>
<g id="a_edge3"><a xlink:href="dir_000055_000045.html" target="_top">
<path fill="none" stroke="#63b8ff" d="M225.62,-70.95C229.59,-68.06 234.29,-65.11 239,-63.25 314.58,-33.37 342.52,-51.19 421.1,-36.53"/>
<polygon fill="#63b8ff" stroke="#63b8ff" points="421.39,-40.04 430.51,-34.65 420.02,-33.18 421.39,-40.04"/>
</a>
</g>
<g id="a_edge3&#45;headlabel"><a xlink:href="dir_000055_000045.html" target="_top" xlink:title="2">
<text text-anchor="middle" x="419.91" y="-39.36" font-family="Helvetica,sans-Serif" font-size="10.00" fill="#63b8ff">2</text>
</a>
</g>
</g>
<!-- dir_f7741f78ef7687a58b2e9b3b36050a7e -->
<g id="node6" class="node">
<title>dir_f7741f78ef7687a58b2e9b3b36050a7e</title>
<g id="a_node6"><a xlink:href="dir_f7741f78ef7687a58b2e9b3b36050a7e.html" target="_top" xlink:title="dvrav">
<polygon fill="#60a2e3" stroke="#404040" points="182,-90.5 142,-90.5 142,-71.25 182,-71.25 182,-90.5"/>
<text text-anchor="middle" x="162" y="-77" font-family="Helvetica,sans-Serif" font-size="10.00">dvrav</text>
</a>
</g>
</g>
<!-- dir_f7741f78ef7687a58b2e9b3b36050a7e&#45;&gt;dir_40ac35421bc63b72c26b6c69b1517fd6 -->
<g id="edge5" class="edge">
<title>dir_f7741f78ef7687a58b2e9b3b36050a7e&#45;&gt;dir_40ac35421bc63b72c26b6c69b1517fd6</title>
<g id="a_edge5"><a xlink:href="dir_000056_000515.html" target="_top">
<path fill="none" stroke="#63b8ff" d="M156.55,-71.08C152.23,-64.11 146.04,-54.12 140.62,-45.37"/>
<polygon fill="#63b8ff" stroke="#63b8ff" points="143.61,-43.55 135.36,-36.9 137.66,-47.24 143.61,-43.55"/>
</a>
</g>
<g id="a_edge5&#45;headlabel"><a xlink:href="dir_000056_000515.html" target="_top" xlink:title="10">
<text text-anchor="middle" x="147.12" y="-39.95" font-family="Helvetica,sans-Serif" font-size="10.00" fill="#63b8ff">10</text>
</a>
</g>
</g>
<!-- dir_f7741f78ef7687a58b2e9b3b36050a7e&#45;&gt;dir_6f16cad81de2453a6f48c5e272ba4a18 -->
<g id="edge6" class="edge">
<title>dir_f7741f78ef7687a58b2e9b3b36050a7e&#45;&gt;dir_6f16cad81de2453a6f48c5e272ba4a18</title>
<g id="a_edge6"><a xlink:href="dir_000056_000049.html" target="_top">
<path fill="none" stroke="#63b8ff" d="M166.46,-71.08C169.95,-64.19 174.95,-54.34 179.35,-45.66"/>
<polygon fill="#63b8ff" stroke="#63b8ff" points="182.36,-47.46 183.76,-36.96 176.12,-44.3 182.36,-47.46"/>
</a>
</g>
<g id="a_edge6&#45;headlabel"><a xlink:href="dir_000056_000049.html" target="_top" xlink:title="2">
<text text-anchor="middle" x="183.95" y="-46.73" font-family="Helvetica,sans-Serif" font-size="10.00" fill="#63b8ff">2</text>
</a>
</g>
</g>
<!-- dir_f7741f78ef7687a58b2e9b3b36050a7e&#45;&gt;dir_9be0baa3d4a3e9f480a9ee70594037fa -->
<g id="edge8" class="edge">
<title>dir_f7741f78ef7687a58b2e9b3b36050a7e&#45;&gt;dir_9be0baa3d4a3e9f480a9ee70594037fa</title>
<g id="a_edge8"><a xlink:href="dir_000056_000239.html" target="_top">
<path fill="none" stroke="#63b8ff" d="M176.42,-70.84C189.12,-62.89 207.87,-51.14 222.86,-41.75"/>
<polygon fill="#63b8ff" stroke="#63b8ff" points="224.61,-44.78 231.23,-36.51 220.9,-38.85 224.61,-44.78"/>
</a>
</g>
<g id="a_edge8&#45;headlabel"><a xlink:href="dir_000056_000239.html" target="_top" xlink:title="1">
<text text-anchor="middle" x="224.36" y="-44.42" font-family="Helvetica,sans-Serif" font-size="10.00" fill="#63b8ff">1</text>
</a>
</g>
</g>
<!-- dir_f7741f78ef7687a58b2e9b3b36050a7e&#45;&gt;dir_bdd9a5d540de89e9fe90efdfc6973a4f -->
<g id="edge7" class="edge">
<title>dir_f7741f78ef7687a58b2e9b3b36050a7e&#45;&gt;dir_bdd9a5d540de89e9fe90efdfc6973a4f</title>
<g id="a_edge7"><a xlink:href="dir_000056_000045.html" target="_top">
<path fill="none" stroke="#63b8ff" d="M175.04,-70.91C179.86,-68.01 185.49,-65.07 191,-63.25 288.17,-31.15 321.58,-54.01 420.88,-36.48"/>
<polygon fill="#63b8ff" stroke="#63b8ff" points="421.33,-39.96 430.52,-34.68 420.05,-33.08 421.33,-39.96"/>
</a>
</g>
<g id="a_edge7&#45;headlabel"><a xlink:href="dir_000056_000045.html" target="_top" xlink:title="2">
<text text-anchor="middle" x="419.81" y="-39.26" font-family="Helvetica,sans-Serif" font-size="10.00" fill="#63b8ff">2</text>
</a>
</g>
</g>
<!-- dir_afbf9061e6cd2939a0cc5b3ca7d5328d -->
<g id="node7" class="node">
<title>dir_afbf9061e6cd2939a0cc5b3ca7d5328d</title>
<g id="a_node7"><a xlink:href="dir_afbf9061e6cd2939a0cc5b3ca7d5328d.html" target="_top" xlink:title="dvrdv">
<polygon fill="#60a2e3" stroke="#404040" points="124,-90.5 84,-90.5 84,-71.25 124,-71.25 124,-90.5"/>
<text text-anchor="middle" x="104" y="-77" font-family="Helvetica,sans-Serif" font-size="10.00">dvrdv</text>
</a>
</g>
</g>
<!-- dir_afbf9061e6cd2939a0cc5b3ca7d5328d&#45;&gt;dir_40ac35421bc63b72c26b6c69b1517fd6 -->
<g id="edge9" class="edge">
<title>dir_afbf9061e6cd2939a0cc5b3ca7d5328d&#45;&gt;dir_40ac35421bc63b72c26b6c69b1517fd6</title>
<g id="a_edge9"><a xlink:href="dir_000057_000515.html" target="_top">
<path fill="none" stroke="#63b8ff" d="M108.13,-71.08C111.33,-64.26 115.89,-54.56 119.93,-45.95"/>
<polygon fill="#63b8ff" stroke="#63b8ff" points="123.06,-47.52 124.14,-36.98 116.72,-44.54 123.06,-47.52"/>
</a>
</g>
<g id="a_edge9&#45;headlabel"><a xlink:href="dir_000057_000515.html" target="_top" xlink:title="9">
<text text-anchor="middle" x="124.74" y="-46.73" font-family="Helvetica,sans-Serif" font-size="10.00" fill="#63b8ff">9</text>
</a>
</g>
</g>
<!-- dir_afbf9061e6cd2939a0cc5b3ca7d5328d&#45;&gt;dir_6f16cad81de2453a6f48c5e272ba4a18 -->
<g id="edge10" class="edge">
<title>dir_afbf9061e6cd2939a0cc5b3ca7d5328d&#45;&gt;dir_6f16cad81de2453a6f48c5e272ba4a18</title>
<g id="a_edge10"><a xlink:href="dir_000057_000049.html" target="_top">
<path fill="none" stroke="#63b8ff" d="M118.42,-70.84C131.12,-62.89 149.87,-51.14 164.86,-41.75"/>
<polygon fill="#63b8ff" stroke="#63b8ff" points="166.61,-44.78 173.23,-36.51 162.9,-38.85 166.61,-44.78"/>
</a>
</g>
<g id="a_edge10&#45;headlabel"><a xlink:href="dir_000057_000049.html" target="_top" xlink:title="2">
<text text-anchor="middle" x="166.36" y="-44.42" font-family="Helvetica,sans-Serif" font-size="10.00" fill="#63b8ff">2</text>
</a>
</g>
</g>
<!-- dir_afbf9061e6cd2939a0cc5b3ca7d5328d&#45;&gt;dir_9be0baa3d4a3e9f480a9ee70594037fa -->
<g id="edge12" class="edge">
<title>dir_afbf9061e6cd2939a0cc5b3ca7d5328d&#45;&gt;dir_9be0baa3d4a3e9f480a9ee70594037fa</title>
<g id="a_edge12"><a xlink:href="dir_000057_000239.html" target="_top">
<path fill="none" stroke="#63b8ff" d="M118.44,-70.8C123,-68.16 128.12,-65.41 133,-63.25 147.71,-56.76 186.27,-44.74 214.48,-36.24"/>
<polygon fill="#63b8ff" stroke="#63b8ff" points="215.44,-39.61 224.01,-33.39 213.43,-32.9 215.44,-39.61"/>
</a>
</g>
<g id="a_edge12&#45;headlabel"><a xlink:href="dir_000057_000239.html" target="_top" xlink:title="1">
<text text-anchor="middle" x="214.26" y="-39.05" font-family="Helvetica,sans-Serif" font-size="10.00" fill="#63b8ff">1</text>
</a>
</g>
</g>
<!-- dir_afbf9061e6cd2939a0cc5b3ca7d5328d&#45;&gt;dir_bdd9a5d540de89e9fe90efdfc6973a4f -->
<g id="edge11" class="edge">
<title>dir_afbf9061e6cd2939a0cc5b3ca7d5328d&#45;&gt;dir_bdd9a5d540de89e9fe90efdfc6973a4f</title>
<g id="a_edge11"><a xlink:href="dir_000057_000045.html" target="_top">
<path fill="none" stroke="#63b8ff" d="M117.02,-70.84C121.83,-67.93 127.47,-65.01 133,-63.25 254.96,-24.51 296.17,-57.25 420.89,-36.4"/>
<polygon fill="#63b8ff" stroke="#63b8ff" points="421.28,-39.88 430.52,-34.7 420.07,-32.99 421.28,-39.88"/>
</a>
</g>
<g id="a_edge11&#45;headlabel"><a xlink:href="dir_000057_000045.html" target="_top" xlink:title="2">
<text text-anchor="middle" x="419.73" y="-39.17" font-family="Helvetica,sans-Serif" font-size="10.00" fill="#63b8ff">2</text>
</a>
</g>
</g>
<!-- dir_90fe12cfe0c184e93ce162881a1343e2 -->
<g id="node8" class="node">
<title>dir_90fe12cfe0c184e93ce162881a1343e2</title>
<g id="a_node8"><a xlink:href="dir_90fe12cfe0c184e93ce162881a1343e2.html" target="_top" xlink:title="dvrfile">
<polygon fill="#60a2e3" stroke="#404040" points="65.75,-90.5 24.25,-90.5 24.25,-71.25 65.75,-71.25 65.75,-90.5"/>
<text text-anchor="middle" x="45" y="-77" font-family="Helvetica,sans-Serif" font-size="10.00">dvrfile</text>
</a>
</g>
</g>
<!-- dir_90fe12cfe0c184e93ce162881a1343e2&#45;&gt;dir_40ac35421bc63b72c26b6c69b1517fd6 -->
<g id="edge13" class="edge">
<title>dir_90fe12cfe0c184e93ce162881a1343e2&#45;&gt;dir_40ac35421bc63b72c26b6c69b1517fd6</title>
<g id="a_edge13"><a xlink:href="dir_000058_000515.html" target="_top">
<path fill="none" stroke="#63b8ff" d="M59.25,-70.84C71.8,-62.89 90.33,-51.14 105.14,-41.75"/>
<polygon fill="#63b8ff" stroke="#63b8ff" points="106.83,-44.82 113.4,-36.51 103.08,-38.91 106.83,-44.82"/>
</a>
</g>
<g id="a_edge13&#45;headlabel"><a xlink:href="dir_000058_000515.html" target="_top" xlink:title="11">
<text text-anchor="middle" x="106.59" y="-44.46" font-family="Helvetica,sans-Serif" font-size="10.00" fill="#63b8ff">11</text>
</a>
</g>
</g>
<!-- dir_90fe12cfe0c184e93ce162881a1343e2&#45;&gt;dir_6f16cad81de2453a6f48c5e272ba4a18 -->
<g id="edge14" class="edge">
<title>dir_90fe12cfe0c184e93ce162881a1343e2&#45;&gt;dir_6f16cad81de2453a6f48c5e272ba4a18</title>
<g id="a_edge14"><a xlink:href="dir_000058_000049.html" target="_top">
<path fill="none" stroke="#63b8ff" d="M59.97,-70.83C64.68,-68.18 69.97,-65.43 75,-63.25 76.02,-62.81 126.1,-46.76 159.54,-36.05"/>
<polygon fill="#63b8ff" stroke="#63b8ff" points="160.25,-39.5 168.71,-33.12 158.12,-32.83 160.25,-39.5"/>
</a>
</g>
<g id="a_edge14&#45;headlabel"><a xlink:href="dir_000058_000049.html" target="_top" xlink:title="2">
<text text-anchor="middle" x="159.13" y="-38.96" font-family="Helvetica,sans-Serif" font-size="10.00" fill="#63b8ff">2</text>
</a>
</g>
</g>
<!-- dir_90fe12cfe0c184e93ce162881a1343e2&#45;&gt;dir_9be0baa3d4a3e9f480a9ee70594037fa -->
<g id="edge16" class="edge">
<title>dir_90fe12cfe0c184e93ce162881a1343e2&#45;&gt;dir_9be0baa3d4a3e9f480a9ee70594037fa</title>
<g id="a_edge16"><a xlink:href="dir_000058_000239.html" target="_top">
<path fill="none" stroke="#63b8ff" d="M59.22,-70.81C64.07,-68.05 69.63,-65.22 75,-63.25 131.83,-42.44 151.74,-49.21 214.77,-35.3"/>
<polygon fill="#63b8ff" stroke="#63b8ff" points="215.28,-38.77 224.23,-33.12 213.7,-31.95 215.28,-38.77"/>
</a>
</g>
<g id="a_edge16&#45;headlabel"><a xlink:href="dir_000058_000239.html" target="_top" xlink:title="1">
<text text-anchor="middle" x="213.89" y="-38.13" font-family="Helvetica,sans-Serif" font-size="10.00" fill="#63b8ff">1</text>
</a>
</g>
</g>
<!-- dir_90fe12cfe0c184e93ce162881a1343e2&#45;&gt;dir_bdd9a5d540de89e9fe90efdfc6973a4f -->
<g id="edge15" class="edge">
<title>dir_90fe12cfe0c184e93ce162881a1343e2&#45;&gt;dir_bdd9a5d540de89e9fe90efdfc6973a4f</title>
<g id="a_edge15"><a xlink:href="dir_000058_000045.html" target="_top">
<path fill="none" stroke="#63b8ff" d="M58.49,-70.79C63.47,-67.88 69.3,-64.97 75,-63.25 222.16,-18.92 270.75,-60.64 421.02,-36.33"/>
<polygon fill="#63b8ff" stroke="#63b8ff" points="421.25,-39.84 430.53,-34.71 420.08,-32.94 421.25,-39.84"/>
</a>
</g>
<g id="a_edge15&#45;headlabel"><a xlink:href="dir_000058_000045.html" target="_top" xlink:title="2">
<text text-anchor="middle" x="419.68" y="-39.11" font-family="Helvetica,sans-Serif" font-size="10.00" fill="#63b8ff">2</text>
</a>
</g>
</g>
<!-- dir_55b81c7b0811889843fb7d99073d4918 -->
<g id="node9" class="node">
<title>dir_55b81c7b0811889843fb7d99073d4918</title>
<g id="a_node9"><a xlink:href="dir_55b81c7b0811889843fb7d99073d4918.html" target="_top" xlink:title="dvripl">
<polygon fill="#60a2e3" stroke="#404040" points="355.62,-90.5 316.38,-90.5 316.38,-71.25 355.62,-71.25 355.62,-90.5"/>
<text text-anchor="middle" x="336" y="-77" font-family="Helvetica,sans-Serif" font-size="10.00">dvripl</text>
</a>
</g>
</g>
<!-- dir_55b81c7b0811889843fb7d99073d4918&#45;&gt;dir_40ac35421bc63b72c26b6c69b1517fd6 -->
<g id="edge17" class="edge">
<title>dir_55b81c7b0811889843fb7d99073d4918&#45;&gt;dir_40ac35421bc63b72c26b6c69b1517fd6</title>
<g id="a_edge17"><a xlink:href="dir_000059_000515.html" target="_top">
<path fill="none" stroke="#63b8ff" d="M322.3,-70.78C317.61,-68.01 312.22,-65.19 307,-63.25 248.32,-41.49 227.58,-49.14 164.08,-35.75"/>
<polygon fill="#63b8ff" stroke="#63b8ff" points="165.06,-32.39 154.54,-33.64 163.55,-39.22 165.06,-32.39"/>
</a>
</g>
<g id="a_edge17&#45;headlabel"><a xlink:href="dir_000059_000515.html" target="_top" xlink:title="13">
<text text-anchor="middle" x="167.71" y="-26.19" font-family="Helvetica,sans-Serif" font-size="10.00" fill="#63b8ff">13</text>
</a>
</g>
</g>
<!-- dir_55b81c7b0811889843fb7d99073d4918&#45;&gt;dir_6f16cad81de2453a6f48c5e272ba4a18 -->
<g id="edge18" class="edge">
<title>dir_55b81c7b0811889843fb7d99073d4918&#45;&gt;dir_6f16cad81de2453a6f48c5e272ba4a18</title>
<g id="a_edge18"><a xlink:href="dir_000059_000049.html" target="_top">
<path fill="none" stroke="#63b8ff" d="M321.57,-70.77C317.02,-68.13 311.9,-65.38 307,-63.25 305.95,-62.79 253.56,-46.58 218.95,-35.88"/>
<polygon fill="#63b8ff" stroke="#63b8ff" points="220.03,-32.55 209.44,-32.94 217.96,-39.23 220.03,-32.55"/>
</a>
</g>
<g id="a_edge18&#45;headlabel"><a xlink:href="dir_000059_000049.html" target="_top" xlink:title="2">
<text text-anchor="middle" x="222.85" y="-26.57" font-family="Helvetica,sans-Serif" font-size="10.00" fill="#63b8ff">2</text>
</a>
</g>
</g>
<!-- dir_55b81c7b0811889843fb7d99073d4918&#45;&gt;dir_9be0baa3d4a3e9f480a9ee70594037fa -->
<g id="edge20" class="edge">
<title>dir_55b81c7b0811889843fb7d99073d4918&#45;&gt;dir_9be0baa3d4a3e9f480a9ee70594037fa</title>
<g id="a_edge20"><a xlink:href="dir_000059_000239.html" target="_top">
<path fill="none" stroke="#63b8ff" d="M320.9,-70.84C307.48,-62.81 287.59,-50.91 271.83,-41.48"/>
<polygon fill="#63b8ff" stroke="#63b8ff" points="273.85,-38.61 263.47,-36.48 270.25,-44.62 273.85,-38.61"/>
</a>
</g>
<g id="a_edge20&#45;headlabel"><a xlink:href="dir_000059_000239.html" target="_top" xlink:title="1">
<text text-anchor="middle" x="277.09" y="-33.37" font-family="Helvetica,sans-Serif" font-size="10.00" fill="#63b8ff">1</text>
</a>
</g>
</g>
<!-- dir_55b81c7b0811889843fb7d99073d4918&#45;&gt;dir_bdd9a5d540de89e9fe90efdfc6973a4f -->
<g id="edge19" class="edge">
<title>dir_55b81c7b0811889843fb7d99073d4918&#45;&gt;dir_bdd9a5d540de89e9fe90efdfc6973a4f</title>
<g id="a_edge19"><a xlink:href="dir_000059_000045.html" target="_top">
<path fill="none" stroke="#63b8ff" d="M350.82,-70.81C355.3,-68.23 360.29,-65.5 365,-63.25 383.45,-54.43 404.63,-46.03 422.2,-39.51"/>
<polygon fill="#63b8ff" stroke="#63b8ff" points="423.01,-42.94 431.2,-36.23 420.61,-36.37 423.01,-42.94"/>
</a>
</g>
<g id="a_edge19&#45;headlabel"><a xlink:href="dir_000059_000045.html" target="_top" xlink:title="2">
<text text-anchor="middle" x="422.03" y="-42.45" font-family="Helvetica,sans-Serif" font-size="10.00" fill="#63b8ff">2</text>
</a>
</g>
</g>
<!-- dir_14f5f0f9fe610eb1d19d953c1b59d5ca -->
<g id="node10" class="node">
<title>dir_14f5f0f9fe610eb1d19d953c1b59d5ca</title>
<g id="a_node10"><a xlink:href="dir_14f5f0f9fe610eb1d19d953c1b59d5ca.html" target="_top" xlink:title="dvrmisc">
<polygon fill="#60a2e3" stroke="#404040" points="298.25,-90.5 247.75,-90.5 247.75,-71.25 298.25,-71.25 298.25,-90.5"/>
<text text-anchor="middle" x="273" y="-77" font-family="Helvetica,sans-Serif" font-size="10.00">dvrmisc</text>
</a>
</g>
</g>
<!-- dir_14f5f0f9fe610eb1d19d953c1b59d5ca&#45;&gt;dir_40ac35421bc63b72c26b6c69b1517fd6 -->
<g id="edge21" class="edge">
<title>dir_14f5f0f9fe610eb1d19d953c1b59d5ca&#45;&gt;dir_40ac35421bc63b72c26b6c69b1517fd6</title>
<g id="a_edge21"><a xlink:href="dir_000060_000515.html" target="_top">
<path fill="none" stroke="#63b8ff" d="M255.56,-70.79C250.3,-68.21 244.47,-65.49 239,-63.25 214.25,-53.13 185.57,-43.65 163.7,-36.87"/>
<polygon fill="#63b8ff" stroke="#63b8ff" points="164.97,-33.6 154.38,-34.03 162.92,-40.3 164.97,-33.6"/>
</a>
</g>
<g id="a_edge21&#45;headlabel"><a xlink:href="dir_000060_000515.html" target="_top" xlink:title="11">
<text text-anchor="middle" x="167.79" y="-27.62" font-family="Helvetica,sans-Serif" font-size="10.00" fill="#63b8ff">11</text>
</a>
</g>
</g>
<!-- dir_14f5f0f9fe610eb1d19d953c1b59d5ca&#45;&gt;dir_6f16cad81de2453a6f48c5e272ba4a18 -->
<g id="edge22" class="edge">
<title>dir_14f5f0f9fe610eb1d19d953c1b59d5ca&#45;&gt;dir_6f16cad81de2453a6f48c5e272ba4a18</title>
<g id="a_edge22"><a xlink:href="dir_000060_000049.html" target="_top">
<path fill="none" stroke="#63b8ff" d="M258.75,-70.84C246.2,-62.89 227.67,-51.14 212.86,-41.75"/>
<polygon fill="#63b8ff" stroke="#63b8ff" points="214.92,-38.91 204.6,-36.51 211.17,-44.82 214.92,-38.91"/>
</a>
</g>
<g id="a_edge22&#45;headlabel"><a xlink:href="dir_000060_000049.html" target="_top" xlink:title="2">
<text text-anchor="middle" x="218.2" y="-33.75" font-family="Helvetica,sans-Serif" font-size="10.00" fill="#63b8ff">2</text>
</a>
</g>
</g>
<!-- dir_14f5f0f9fe610eb1d19d953c1b59d5ca&#45;&gt;dir_9be0baa3d4a3e9f480a9ee70594037fa -->
<g id="edge24" class="edge">
<title>dir_14f5f0f9fe610eb1d19d953c1b59d5ca&#45;&gt;dir_9be0baa3d4a3e9f480a9ee70594037fa</title>
<g id="a_edge24"><a xlink:href="dir_000060_000239.html" target="_top">
<path fill="none" stroke="#63b8ff" d="M268.71,-71.08C265.38,-64.26 260.64,-54.56 256.44,-45.95"/>
<polygon fill="#63b8ff" stroke="#63b8ff" points="259.58,-44.42 252.05,-36.97 253.29,-47.49 259.58,-44.42"/>
</a>
</g>
<g id="a_edge24&#45;headlabel"><a xlink:href="dir_000060_000239.html" target="_top" xlink:title="1">
<text text-anchor="middle" x="263.05" y="-41.17" font-family="Helvetica,sans-Serif" font-size="10.00" fill="#63b8ff">1</text>
</a>
</g>
</g>
<!-- dir_14f5f0f9fe610eb1d19d953c1b59d5ca&#45;&gt;dir_bdd9a5d540de89e9fe90efdfc6973a4f -->
<g id="edge23" class="edge">
<title>dir_14f5f0f9fe610eb1d19d953c1b59d5ca&#45;&gt;dir_bdd9a5d540de89e9fe90efdfc6973a4f</title>
<g id="a_edge23"><a xlink:href="dir_000060_000045.html" target="_top">
<path fill="none" stroke="#63b8ff" d="M289.62,-70.81C295.05,-68.11 301.18,-65.32 307,-63.25 355.56,-46.01 372.29,-48.43 421.05,-36.9"/>
<polygon fill="#63b8ff" stroke="#63b8ff" points="421.62,-40.37 430.5,-34.58 419.95,-33.57 421.62,-40.37"/>
</a>
</g>
<g id="a_edge23&#45;headlabel"><a xlink:href="dir_000060_000045.html" target="_top" xlink:title="2">
<text text-anchor="middle" x="420.28" y="-39.75" font-family="Helvetica,sans-Serif" font-size="10.00" fill="#63b8ff">2</text>
</a>
</g>
</g>
</g>
</svg>
</svg>

<style type='text/css'>
<![CDATA[
[data-mouse-over-selected='false'] { opacity: 0.7; }
[data-mouse-over-selected='true']  { opacity: 1.0; }
]]>
</style>
<script type="application/ecmascript"><![CDATA[
document.addEventListener('DOMContentLoaded', (event) => {
  highlightEdges();
  highlightAdjacentNodes();
});
]]></script>
</svg>
