<?xml version="1.0" encoding="UTF-8" standalone="no"?>
<!DOCTYPE svg PUBLIC "-//W3C//DTD SVG 1.1//EN"
 "http://www.w3.org/Graphics/SVG/1.1/DTD/svg11.dtd">
<!-- Generated by graphviz version 9.0.0 (20230911.1827)
 -->
<!-- Title: ee/rpc/ps2snd Pages: 1 -->
<svg width="233pt" height="126pt"
 viewBox="0.00 0.00 233.40 125.75" xmlns="http://www.w3.org/2000/svg" xmlns:xlink="http://www.w3.org/1999/xlink">
<g id="graph0" class="graph" transform="scale(1 1) rotate(0) translate(4 121.75)">
<title>ee/rpc/ps2snd</title>
<g id="clust1" class="cluster">
<title>clusterdir_5b119dc963fa9b25ef41951231899460</title>
<g id="a_clust1"><a xlink:href="dir_5b119dc963fa9b25ef41951231899460.html" target="_top" xlink:title="rpc">
<polygon fill="#deebf9" stroke="#7f7f7f" stroke-dasharray="5,2" points="8,-39.25 8,-109.75 200,-109.75 200,-39.25 8,-39.25"/>
<text text-anchor="middle" x="104" y="-96.25" font-family="Helvetica,sans-Serif" font-size="10.00">rpc</text>
</a>
</g>
</g>
<g id="clust2" class="cluster">
<title>clusterdir_9257be179ffb1bae505ffa73096b7986</title>
<g id="a_clust2"><a xlink:href="dir_9257be179ffb1bae505ffa73096b7986.html" target="_top">
<polygon fill="#deebf9" stroke="#404040" stroke-width="2" points="16,-47.25 16,-82.5 192,-82.5 192,-47.25 16,-47.25"/>
</a>
</g>
</g>
<!-- dir_9257be179ffb1bae505ffa73096b7986 -->
<g id="node1" class="node">
<title>dir_9257be179ffb1bae505ffa73096b7986</title>
<text text-anchor="middle" x="160" y="-61" font-family="Helvetica,sans-Serif" font-size="10.00">ps2snd</text>
</g>
<!-- dir_840d45e55d4a7bd01c453be7ad942e0e -->
<g id="node2" class="node">
<title>dir_840d45e55d4a7bd01c453be7ad942e0e</title>
<g id="a_node2"><a xlink:href="dir_840d45e55d4a7bd01c453be7ad942e0e.html" target="_top" xlink:title="include">
<polygon fill="#60a2e3" stroke="#404040" points="70.38,-74.5 23.62,-74.5 23.62,-55.25 70.38,-55.25 70.38,-74.5"/>
<text text-anchor="middle" x="47" y="-61" font-family="Helvetica,sans-Serif" font-size="10.00">include</text>
</a>
</g>
</g>
<!-- dir_bdd9a5d540de89e9fe90efdfc6973a4f -->
<g id="node4" class="node">
<title>dir_bdd9a5d540de89e9fe90efdfc6973a4f</title>
<g id="a_node4"><a xlink:href="dir_bdd9a5d540de89e9fe90efdfc6973a4f.html" target="_top" xlink:title="common">
<polygon fill="#deebf9" stroke="red" points="70.75,-19.25 17.25,-19.25 17.25,0 70.75,0 70.75,-19.25"/>
<text text-anchor="middle" x="44" y="-5.75" font-family="Helvetica,sans-Serif" font-size="10.00">common</text>
</a>
</g>
</g>
<!-- dir_840d45e55d4a7bd01c453be7ad942e0e&#45;&gt;dir_bdd9a5d540de89e9fe90efdfc6973a4f -->
<g id="edge1" class="edge">
<title>dir_840d45e55d4a7bd01c453be7ad942e0e&#45;&gt;dir_bdd9a5d540de89e9fe90efdfc6973a4f</title>
<g id="a_edge1"><a xlink:href="dir_000107_000022.html" target="_top">
<path fill="none" stroke="#63b8ff" d="M46.5,-55.08C46.13,-48.49 45.61,-39.21 45.14,-30.82"/>
<polygon fill="#63b8ff" stroke="#63b8ff" points="48.65,-30.91 44.59,-21.12 41.66,-31.3 48.65,-30.91"/>
</a>
</g>
<g id="a_edge1&#45;headlabel"><a xlink:href="dir_000107_000022.html" target="_top" xlink:title="1">
<text text-anchor="middle" x="51.6" y="-28.95" font-family="Helvetica,sans-Serif" font-size="10.00" fill="#63b8ff">1</text>
</a>
</g>
</g>
<!-- dir_d236ca42f0241c3c711c47cabfd53918 -->
<g id="node3" class="node">
<title>dir_d236ca42f0241c3c711c47cabfd53918</title>
<g id="a_node3"><a xlink:href="dir_d236ca42f0241c3c711c47cabfd53918.html" target="_top" xlink:title="src">
<polygon fill="#60a2e3" stroke="#404040" points="117.75,-74.5 88.25,-74.5 88.25,-55.25 117.75,-55.25 117.75,-74.5"/>
<text text-anchor="middle" x="103" y="-61" font-family="Helvetica,sans-Serif" font-size="10.00">src</text>
</a>
</g>
</g>
<!-- dir_d236ca42f0241c3c711c47cabfd53918&#45;&gt;dir_bdd9a5d540de89e9fe90efdfc6973a4f -->
<g id="edge5" class="edge">
<title>dir_d236ca42f0241c3c711c47cabfd53918&#45;&gt;dir_bdd9a5d540de89e9fe90efdfc6973a4f</title>
<g id="a_edge5"><a xlink:href="dir_000293_000022.html" target="_top">
<path fill="none" stroke="#63b8ff" d="M94.79,-54.97C90.26,-50.19 84.46,-44.25 79,-39.25 74.42,-35.05 69.32,-30.71 64.46,-26.71"/>
<polygon fill="#63b8ff" stroke="#63b8ff" points="66.78,-24.09 56.8,-20.54 62.39,-29.54 66.78,-24.09"/>
</a>
</g>
<g id="a_edge5&#45;headlabel"><a xlink:href="dir_000293_000022.html" target="_top" xlink:title="1">
<text text-anchor="middle" x="70.19" y="-19.31" font-family="Helvetica,sans-Serif" font-size="10.00" fill="#63b8ff">1</text>
</a>
</g>
</g>
<!-- dir_a0a8ac7efb6662b749c1285408048e6d -->
<g id="node5" class="node">
<title>dir_a0a8ac7efb6662b749c1285408048e6d</title>
<g id="a_node5"><a xlink:href="dir_a0a8ac7efb6662b749c1285408048e6d.html" target="_top" xlink:title="erl">
<polygon fill="#deebf9" stroke="red" stroke-dasharray="5,2" points="117.4,-19.25 88.6,-19.25 88.6,0 117.4,0 117.4,-19.25"/>
<text text-anchor="middle" x="103" y="-5.75" font-family="Helvetica,sans-Serif" font-size="10.00">erl</text>
</a>
</g>
</g>
<!-- dir_d236ca42f0241c3c711c47cabfd53918&#45;&gt;dir_a0a8ac7efb6662b749c1285408048e6d -->
<g id="edge4" class="edge">
<title>dir_d236ca42f0241c3c711c47cabfd53918&#45;&gt;dir_a0a8ac7efb6662b749c1285408048e6d</title>
<g id="a_edge4"><a xlink:href="dir_000293_000044.html" target="_top">
<path fill="none" stroke="#63b8ff" d="M103,-55.08C103,-48.57 103,-39.42 103,-31.12"/>
<polygon fill="#63b8ff" stroke="#63b8ff" points="106.5,-31.12 103,-21.12 99.5,-31.12 106.5,-31.12"/>
</a>
</g>
<g id="a_edge4&#45;headlabel"><a xlink:href="dir_000293_000044.html" target="_top" xlink:title="1">
<text text-anchor="middle" x="109.34" y="-29.33" font-family="Helvetica,sans-Serif" font-size="10.00" fill="#63b8ff">1</text>
</a>
</g>
</g>
<!-- dir_694ec83a64f58cbdefbefce65cd1011c -->
<g id="node6" class="node">
<title>dir_694ec83a64f58cbdefbefce65cd1011c</title>
<g id="a_node6"><a xlink:href="dir_694ec83a64f58cbdefbefce65cd1011c.html" target="_top" xlink:title="kernel">
<polygon fill="#deebf9" stroke="red" stroke-dasharray="5,2" points="178.12,-19.25 135.88,-19.25 135.88,0 178.12,0 178.12,-19.25"/>
<text text-anchor="middle" x="157" y="-5.75" font-family="Helvetica,sans-Serif" font-size="10.00">kernel</text>
</a>
</g>
</g>
<!-- dir_d236ca42f0241c3c711c47cabfd53918&#45;&gt;dir_694ec83a64f58cbdefbefce65cd1011c -->
<g id="edge3" class="edge">
<title>dir_d236ca42f0241c3c711c47cabfd53918&#45;&gt;dir_694ec83a64f58cbdefbefce65cd1011c</title>
<g id="a_edge3"><a xlink:href="dir_000293_000173.html" target="_top">
<path fill="none" stroke="#63b8ff" d="M111.37,-55.14C115.94,-50.4 121.74,-44.46 127,-39.25 130.91,-35.39 135.15,-31.28 139.18,-27.42"/>
<polygon fill="#63b8ff" stroke="#63b8ff" points="141.52,-30.03 146.36,-20.6 136.7,-24.95 141.52,-30.03"/>
</a>
</g>
<g id="a_edge3&#45;headlabel"><a xlink:href="dir_000293_000173.html" target="_top" xlink:title="2">
<text text-anchor="middle" x="141.97" y="-29.65" font-family="Helvetica,sans-Serif" font-size="10.00" fill="#63b8ff">2</text>
</a>
</g>
</g>
<!-- dir_0981ace215aa2029f526b70c145b9fbe -->
<g id="node7" class="node">
<title>dir_0981ace215aa2029f526b70c145b9fbe</title>
<g id="a_node7"><a xlink:href="dir_0981ace215aa2029f526b70c145b9fbe.html" target="_top" xlink:title="iop">
<polygon fill="#deebf9" stroke="red" points="225.4,-19.25 196.6,-19.25 196.6,0 225.4,0 225.4,-19.25"/>
<text text-anchor="middle" x="211" y="-5.75" font-family="Helvetica,sans-Serif" font-size="10.00">iop</text>
</a>
</g>
</g>
<!-- dir_d236ca42f0241c3c711c47cabfd53918&#45;&gt;dir_0981ace215aa2029f526b70c145b9fbe -->
<g id="edge2" class="edge">
<title>dir_d236ca42f0241c3c711c47cabfd53918&#45;&gt;dir_0981ace215aa2029f526b70c145b9fbe</title>
<g id="a_edge2"><a xlink:href="dir_000293_000167.html" target="_top">
<path fill="none" stroke="#63b8ff" d="M109.74,-55.09C114.15,-49.85 120.32,-43.44 127,-39.25 148.21,-25.95 158.16,-27.77 185.42,-19.52"/>
<polygon fill="#63b8ff" stroke="#63b8ff" points="186.43,-22.87 194.86,-16.44 184.26,-16.21 186.43,-22.87"/>
</a>
</g>
<g id="a_edge2&#45;headlabel"><a xlink:href="dir_000293_000167.html" target="_top" xlink:title="1">
<text text-anchor="middle" x="185.33" y="-22.34" font-family="Helvetica,sans-Serif" font-size="10.00" fill="#63b8ff">1</text>
</a>
</g>
</g>
</g>
</svg>
