<?xml version="1.0" encoding="UTF-8" standalone="no"?>
<!DOCTYPE svg PUBLIC "-//W3C//DTD SVG 1.1//EN"
 "http://www.w3.org/Graphics/SVG/1.1/DTD/svg11.dtd">
<!-- Generated by graphviz version 2.44.0 ()
 -->
<!-- Title: iop/fs/bdmfs_vfat Pages: 1 -->
<svg width="216pt" height="303pt"
 viewBox="0.00 0.00 216.00 303.00" xmlns="http://www.w3.org/2000/svg" xmlns:xlink="http://www.w3.org/1999/xlink">
<g id="graph0" class="graph" transform="scale(1 1) rotate(0) translate(4 299)">
<title>iop/fs/bdmfs_vfat</title>
<polygon fill="white" stroke="transparent" points="-4,4 -4,-299 212,-299 212,4 -4,4"/>
<g id="clust1" class="cluster">
<title>clusterdir_f24daea2522ffa8b6dc5fa9cdf5b8f5c</title>
<g id="a_clust1"><a xlink:href="dir_f24daea2522ffa8b6dc5fa9cdf5b8f5c.html" target="_top" xlink:title="fs">
<polygon fill="#ddddee" stroke="black" points="30,-136 30,-287 200,-287 200,-136 30,-136"/>
<text text-anchor="middle" x="115" y="-275" font-family="Helvetica,sans-Serif" font-size="10.00">fs</text>
</a>
</g>
</g>
<g id="clust2" class="cluster">
<title>clusterdir_eabe988c95970cb88382a9440b1d86c2</title>
<g id="a_clust2"><a xlink:href="dir_eabe988c95970cb88382a9440b1d86c2.html" target="_top">
<polygon fill="#eeeeff" stroke="black" points="38,-208 38,-260 192,-260 192,-208 38,-208"/>
</a>
</g>
</g>
<!-- dir_0134b0376fbe77322088b496fb368f9b -->
<g id="node1" class="node">
<title>dir_0134b0376fbe77322088b496fb368f9b</title>
<g id="a_node1"><a xlink:href="dir_0134b0376fbe77322088b496fb368f9b.html" target="_top" xlink:title="bdm">
<polygon fill="white" stroke="red" points="100,-180 46,-180 46,-144 100,-144 100,-180"/>
<text text-anchor="middle" x="73" y="-159.5" font-family="Helvetica,sans-Serif" font-size="10.00">bdm</text>
</a>
</g>
</g>
<!-- dir_bdd9a5d540de89e9fe90efdfc6973a4f -->
<g id="node4" class="node">
<title>dir_bdd9a5d540de89e9fe90efdfc6973a4f</title>
<g id="a_node4"><a xlink:href="dir_bdd9a5d540de89e9fe90efdfc6973a4f.html" target="_top" xlink:title="common">
<polygon fill="white" stroke="red" points="54,-108 0,-108 0,-72 54,-72 54,-108"/>
<text text-anchor="middle" x="27" y="-87.5" font-family="Helvetica,sans-Serif" font-size="10.00">common</text>
</a>
</g>
</g>
<!-- dir_0134b0376fbe77322088b496fb368f9b&#45;&gt;dir_bdd9a5d540de89e9fe90efdfc6973a4f -->
<g id="edge6" class="edge">
<title>dir_0134b0376fbe77322088b496fb368f9b&#45;&gt;dir_bdd9a5d540de89e9fe90efdfc6973a4f</title>
<path fill="none" stroke="black" d="M61.63,-143.7C56.28,-135.56 49.8,-125.69 43.89,-116.7"/>
<polygon fill="black" stroke="black" points="46.66,-114.54 38.24,-108.1 40.81,-118.38 46.66,-114.54"/>
<g id="a_edge6&#45;headlabel"><a xlink:href="dir_000036_000000.html" target="_top" xlink:title="1">
<text text-anchor="middle" x="51" y="-113.48" font-family="Helvetica,sans-Serif" font-size="10.00">1</text>
</a>
</g>
</g>
<!-- dir_9be0baa3d4a3e9f480a9ee70594037fa -->
<g id="node5" class="node">
<title>dir_9be0baa3d4a3e9f480a9ee70594037fa</title>
<g id="a_node5"><a xlink:href="dir_9be0baa3d4a3e9f480a9ee70594037fa.html" target="_top" xlink:title="kernel">
<polygon fill="white" stroke="red" points="81,-36 27,-36 27,0 81,0 81,-36"/>
<text text-anchor="middle" x="54" y="-15.5" font-family="Helvetica,sans-Serif" font-size="10.00">kernel</text>
</a>
</g>
</g>
<!-- dir_0134b0376fbe77322088b496fb368f9b&#45;&gt;dir_9be0baa3d4a3e9f480a9ee70594037fa -->
<g id="edge5" class="edge">
<title>dir_0134b0376fbe77322088b496fb368f9b&#45;&gt;dir_9be0baa3d4a3e9f480a9ee70594037fa</title>
<path fill="none" stroke="black" d="M71.37,-143.9C69.59,-125.96 66.52,-96.94 63,-72 61.81,-63.55 60.32,-54.38 58.9,-46.08"/>
<polygon fill="black" stroke="black" points="62.33,-45.4 57.16,-36.15 55.44,-46.6 62.33,-45.4"/>
<g id="a_edge5&#45;headlabel"><a xlink:href="dir_000036_000214.html" target="_top" xlink:title="13">
<text text-anchor="middle" x="65.75" y="-45.95" font-family="Helvetica,sans-Serif" font-size="10.00">13</text>
</a>
</g>
</g>
<!-- dir_eabe988c95970cb88382a9440b1d86c2 -->
<g id="node2" class="node">
<title>dir_eabe988c95970cb88382a9440b1d86c2</title>
<text text-anchor="middle" x="151" y="-231.5" font-family="Helvetica,sans-Serif" font-size="10.00">bdmfs_vfat</text>
</g>
<!-- dir_a17103320e7b55573b6692b5b08c9050 -->
<g id="node3" class="node">
<title>dir_a17103320e7b55573b6692b5b08c9050</title>
<g id="a_node3"><a xlink:href="dir_a17103320e7b55573b6692b5b08c9050.html" target="_top" xlink:title="src">
<polygon fill="white" stroke="red" points="100,-252 46,-252 46,-216 100,-216 100,-252"/>
<text text-anchor="middle" x="73" y="-231.5" font-family="Helvetica,sans-Serif" font-size="10.00">src</text>
</a>
</g>
</g>
<!-- dir_a17103320e7b55573b6692b5b08c9050&#45;&gt;dir_0134b0376fbe77322088b496fb368f9b -->
<g id="edge2" class="edge">
<title>dir_a17103320e7b55573b6692b5b08c9050&#45;&gt;dir_0134b0376fbe77322088b496fb368f9b</title>
<path fill="none" stroke="black" d="M73,-215.7C73,-207.98 73,-198.71 73,-190.11"/>
<polygon fill="black" stroke="black" points="76.5,-190.1 73,-180.1 69.5,-190.1 76.5,-190.1"/>
<g id="a_edge2&#45;headlabel"><a xlink:href="dir_000039_000036.html" target="_top" xlink:title="4">
<text text-anchor="middle" x="79.34" y="-191.2" font-family="Helvetica,sans-Serif" font-size="10.00">4</text>
</a>
</g>
</g>
<!-- dir_a17103320e7b55573b6692b5b08c9050&#45;&gt;dir_bdd9a5d540de89e9fe90efdfc6973a4f -->
<g id="edge4" class="edge">
<title>dir_a17103320e7b55573b6692b5b08c9050&#45;&gt;dir_bdd9a5d540de89e9fe90efdfc6973a4f</title>
<path fill="none" stroke="black" d="M55.14,-215.57C46.51,-205.96 36.96,-193.3 32,-180 24.61,-160.22 23.68,-136.24 24.42,-118.16"/>
<polygon fill="black" stroke="black" points="27.92,-118.2 25.03,-108.01 20.94,-117.78 27.92,-118.2"/>
<g id="a_edge4&#45;headlabel"><a xlink:href="dir_000039_000000.html" target="_top" xlink:title="5">
<text text-anchor="middle" x="30.54" y="-119.46" font-family="Helvetica,sans-Serif" font-size="10.00">5</text>
</a>
</g>
</g>
<!-- dir_a17103320e7b55573b6692b5b08c9050&#45;&gt;dir_9be0baa3d4a3e9f480a9ee70594037fa -->
<g id="edge3" class="edge">
<title>dir_a17103320e7b55573b6692b5b08c9050&#45;&gt;dir_9be0baa3d4a3e9f480a9ee70594037fa</title>
<path fill="none" stroke="black" d="M91.17,-215.68C99.88,-206.1 109.41,-193.43 114,-180 120.32,-161.49 118.59,-155.01 114,-136 105.86,-102.31 86.27,-67.42 71.67,-44.61"/>
<polygon fill="black" stroke="black" points="74.57,-42.64 66.16,-36.2 68.71,-46.48 74.57,-42.64"/>
<g id="a_edge3&#45;headlabel"><a xlink:href="dir_000039_000214.html" target="_top" xlink:title="29">
<text text-anchor="middle" x="78.92" y="-41.6" font-family="Helvetica,sans-Serif" font-size="10.00">29</text>
</a>
</g>
</g>
<!-- dir_bdd9a5d540de89e9fe90efdfc6973a4f&#45;&gt;dir_9be0baa3d4a3e9f480a9ee70594037fa -->
<g id="edge7" class="edge">
<title>dir_bdd9a5d540de89e9fe90efdfc6973a4f&#45;&gt;dir_9be0baa3d4a3e9f480a9ee70594037fa</title>
<path fill="none" stroke="black" d="M27.76,-71.7C30.01,-63.73 33.51,-54.1 37.31,-45.26"/>
<polygon fill="black" stroke="black" points="40.52,-46.65 41.51,-36.1 34.16,-43.74 40.52,-46.65"/>
<g id="a_edge7&#45;headlabel"><a xlink:href="dir_000000_000214.html" target="_top" xlink:title="20">
<text text-anchor="middle" x="41.61" y="-48.6" font-family="Helvetica,sans-Serif" font-size="10.00">20</text>
</a>
</g>
</g>
<!-- dir_9be0baa3d4a3e9f480a9ee70594037fa&#45;&gt;dir_bdd9a5d540de89e9fe90efdfc6973a4f -->
<g id="edge1" class="edge">
<title>dir_9be0baa3d4a3e9f480a9ee70594037fa&#45;&gt;dir_bdd9a5d540de89e9fe90efdfc6973a4f</title>
<path fill="none" stroke="black" d="M53.3,-36.1C51.07,-44.04 47.58,-53.67 43.79,-62.51"/>
<polygon fill="black" stroke="black" points="40.56,-61.15 39.59,-71.7 46.93,-64.06 40.56,-61.15"/>
<g id="a_edge1&#45;headlabel"><a xlink:href="dir_000214_000000.html" target="_top" xlink:title="12">
<text text-anchor="middle" x="39.47" y="-54.2" font-family="Helvetica,sans-Serif" font-size="10.00">12</text>
</a>
</g>
</g>
</g>
</svg>
