<?xml version="1.0" encoding="UTF-8" standalone="no"?>
<!DOCTYPE svg PUBLIC "-//W3C//DTD SVG 1.1//EN"
 "http://www.w3.org/Graphics/SVG/1.1/DTD/svg11.dtd">
<!-- Generated by graphviz version 2.44.0 ()
 -->
<!-- Title: ee/font Pages: 1 -->
<svg width="220pt" height="447pt"
 viewBox="0.00 0.00 220.00 447.00" xmlns="http://www.w3.org/2000/svg" xmlns:xlink="http://www.w3.org/1999/xlink">
<g id="graph0" class="graph" transform="scale(1 1) rotate(0) translate(4 443)">
<title>ee/font</title>
<polygon fill="white" stroke="transparent" points="-4,4 -4,-443 216,-443 216,4 -4,4"/>
<g id="clust1" class="cluster">
<title>clusterdir_049738f1909e8dc3e45fe1f6b3faa109</title>
<g id="a_clust1"><a xlink:href="dir_049738f1909e8dc3e45fe1f6b3faa109.html" target="_top" xlink:title="ee">
<polygon fill="#ddddee" stroke="black" points="8,-136 8,-431 166,-431 166,-136 8,-136"/>
<text text-anchor="middle" x="87" y="-419" font-family="Helvetica,sans-Serif" font-size="10.00">ee</text>
</a>
</g>
</g>
<g id="clust2" class="cluster">
<title>clusterdir_6a18a5fb12cb9e6be5f051ff6b53d12a</title>
<g id="a_clust2"><a xlink:href="dir_6a18a5fb12cb9e6be5f051ff6b53d12a.html" target="_top">
<polygon fill="#eeeeff" stroke="black" points="16,-280 16,-404 158,-404 158,-280 16,-280"/>
</a>
</g>
</g>
<!-- dir_2649a81c7f56a709216892bc1285ef27 -->
<g id="node1" class="node">
<title>dir_2649a81c7f56a709216892bc1285ef27</title>
<g id="a_node1"><a xlink:href="dir_2649a81c7f56a709216892bc1285ef27.html" target="_top" xlink:title="draw">
<polygon fill="white" stroke="red" points="108,-252 54,-252 54,-216 108,-216 108,-252"/>
<text text-anchor="middle" x="81" y="-231.5" font-family="Helvetica,sans-Serif" font-size="10.00">draw</text>
</a>
</g>
</g>
<!-- dir_a0a8ac7efb6662b749c1285408048e6d -->
<g id="node2" class="node">
<title>dir_a0a8ac7efb6662b749c1285408048e6d</title>
<g id="a_node2"><a xlink:href="dir_a0a8ac7efb6662b749c1285408048e6d.html" target="_top" xlink:title="erl">
<polygon fill="white" stroke="red" points="70,-180 16,-180 16,-144 70,-144 70,-180"/>
<text text-anchor="middle" x="43" y="-159.5" font-family="Helvetica,sans-Serif" font-size="10.00">erl</text>
</a>
</g>
</g>
<!-- dir_2649a81c7f56a709216892bc1285ef27&#45;&gt;dir_a0a8ac7efb6662b749c1285408048e6d -->
<g id="edge2" class="edge">
<title>dir_2649a81c7f56a709216892bc1285ef27&#45;&gt;dir_a0a8ac7efb6662b749c1285408048e6d</title>
<path fill="none" stroke="black" d="M71.61,-215.7C67.24,-207.64 61.94,-197.89 57.1,-188.98"/>
<polygon fill="black" stroke="black" points="60.13,-187.22 52.29,-180.1 53.98,-190.56 60.13,-187.22"/>
<g id="a_edge2&#45;headlabel"><a xlink:href="dir_000133_000206.html" target="_top" xlink:title="1">
<text text-anchor="middle" x="64.34" y="-186.53" font-family="Helvetica,sans-Serif" font-size="10.00">1</text>
</a>
</g>
</g>
<!-- dir_bdd9a5d540de89e9fe90efdfc6973a4f -->
<g id="node6" class="node">
<title>dir_bdd9a5d540de89e9fe90efdfc6973a4f</title>
<g id="a_node6"><a xlink:href="dir_bdd9a5d540de89e9fe90efdfc6973a4f.html" target="_top" xlink:title="common">
<polygon fill="white" stroke="red" points="144,-108 90,-108 90,-72 144,-72 144,-108"/>
<text text-anchor="middle" x="117" y="-87.5" font-family="Helvetica,sans-Serif" font-size="10.00">common</text>
</a>
</g>
</g>
<!-- dir_2649a81c7f56a709216892bc1285ef27&#45;&gt;dir_bdd9a5d540de89e9fe90efdfc6973a4f -->
<g id="edge1" class="edge">
<title>dir_2649a81c7f56a709216892bc1285ef27&#45;&gt;dir_bdd9a5d540de89e9fe90efdfc6973a4f</title>
<path fill="none" stroke="black" d="M85.34,-215.87C91.5,-191.56 102.85,-146.82 110.15,-118.01"/>
<polygon fill="black" stroke="black" points="113.58,-118.74 112.64,-108.19 106.79,-117.02 113.58,-118.74"/>
<g id="a_edge1&#45;headlabel"><a xlink:href="dir_000133_000000.html" target="_top" xlink:title="24">
<text text-anchor="middle" x="115.45" y="-120.42" font-family="Helvetica,sans-Serif" font-size="10.00">24</text>
</a>
</g>
</g>
<!-- dir_a0a8ac7efb6662b749c1285408048e6d&#45;&gt;dir_bdd9a5d540de89e9fe90efdfc6973a4f -->
<g id="edge3" class="edge">
<title>dir_a0a8ac7efb6662b749c1285408048e6d&#45;&gt;dir_bdd9a5d540de89e9fe90efdfc6973a4f</title>
<path fill="none" stroke="black" d="M61.29,-143.7C70.43,-135.05 81.64,-124.45 91.6,-115.03"/>
<polygon fill="black" stroke="black" points="94.06,-117.52 98.92,-108.1 89.25,-112.43 94.06,-117.52"/>
<g id="a_edge3&#45;headlabel"><a xlink:href="dir_000206_000000.html" target="_top" xlink:title="1">
<text text-anchor="middle" x="93.4" y="-119.55" font-family="Helvetica,sans-Serif" font-size="10.00">1</text>
</a>
</g>
</g>
<!-- dir_0981ace215aa2029f526b70c145b9fbe -->
<g id="node7" class="node">
<title>dir_0981ace215aa2029f526b70c145b9fbe</title>
<g id="a_node7"><a xlink:href="dir_0981ace215aa2029f526b70c145b9fbe.html" target="_top" xlink:title="iop">
<polygon fill="white" stroke="red" points="144,-36 90,-36 90,0 144,0 144,-36"/>
<text text-anchor="middle" x="117" y="-15.5" font-family="Helvetica,sans-Serif" font-size="10.00">iop</text>
</a>
</g>
</g>
<!-- dir_a0a8ac7efb6662b749c1285408048e6d&#45;&gt;dir_0981ace215aa2029f526b70c145b9fbe -->
<g id="edge4" class="edge">
<title>dir_a0a8ac7efb6662b749c1285408048e6d&#45;&gt;dir_0981ace215aa2029f526b70c145b9fbe</title>
<path fill="none" stroke="black" d="M49.2,-143.81C56.05,-125.54 67.87,-96.03 81,-72 86.07,-62.73 92.33,-53.04 98.21,-44.52"/>
<polygon fill="black" stroke="black" points="101.22,-46.32 104.12,-36.13 95.5,-42.29 101.22,-46.32"/>
<g id="a_edge4&#45;headlabel"><a xlink:href="dir_000206_000011.html" target="_top" xlink:title="2">
<text text-anchor="middle" x="101.47" y="-48.39" font-family="Helvetica,sans-Serif" font-size="10.00">2</text>
</a>
</g>
</g>
<!-- dir_6a18a5fb12cb9e6be5f051ff6b53d12a -->
<g id="node3" class="node">
<title>dir_6a18a5fb12cb9e6be5f051ff6b53d12a</title>
<text text-anchor="middle" x="123" y="-375.5" font-family="Helvetica,sans-Serif" font-size="10.00">font</text>
</g>
<!-- dir_3a96145256e208ba8e54b2dc9687859a -->
<g id="node4" class="node">
<title>dir_3a96145256e208ba8e54b2dc9687859a</title>
<g id="a_node4"><a xlink:href="dir_3a96145256e208ba8e54b2dc9687859a.html" target="_top" xlink:title="include">
<polygon fill="white" stroke="black" points="128,-324 74,-324 74,-288 128,-288 128,-324"/>
<text text-anchor="middle" x="101" y="-303.5" font-family="Helvetica,sans-Serif" font-size="10.00">include</text>
</a>
</g>
</g>
<!-- dir_3a96145256e208ba8e54b2dc9687859a&#45;&gt;dir_2649a81c7f56a709216892bc1285ef27 -->
<g id="edge5" class="edge">
<title>dir_3a96145256e208ba8e54b2dc9687859a&#45;&gt;dir_2649a81c7f56a709216892bc1285ef27</title>
<path fill="none" stroke="black" d="M96.06,-287.7C93.83,-279.9 91.15,-270.51 88.67,-261.83"/>
<polygon fill="black" stroke="black" points="92,-260.76 85.89,-252.1 85.27,-262.68 92,-260.76"/>
<g id="a_edge5&#45;headlabel"><a xlink:href="dir_000209_000133.html" target="_top" xlink:title="1">
<text text-anchor="middle" x="95.72" y="-260.93" font-family="Helvetica,sans-Serif" font-size="10.00">1</text>
</a>
</g>
</g>
<!-- dir_3a96145256e208ba8e54b2dc9687859a&#45;&gt;dir_bdd9a5d540de89e9fe90efdfc6973a4f -->
<g id="edge6" class="edge">
<title>dir_3a96145256e208ba8e54b2dc9687859a&#45;&gt;dir_bdd9a5d540de89e9fe90efdfc6973a4f</title>
<path fill="none" stroke="black" d="M109.72,-287.83C114.37,-277.69 119.62,-264.44 122,-252 130.86,-205.6 125.85,-150.34 121.42,-118.11"/>
<polygon fill="black" stroke="black" points="124.87,-117.5 119.96,-108.11 117.94,-118.51 124.87,-117.5"/>
<g id="a_edge6&#45;headlabel"><a xlink:href="dir_000209_000000.html" target="_top" xlink:title="1">
<text text-anchor="middle" x="128.19" y="-118.15" font-family="Helvetica,sans-Serif" font-size="10.00">1</text>
</a>
</g>
</g>
<!-- dir_3a9c6fe855c5d1af04ce6ee63ecedf2c -->
<g id="node5" class="node">
<title>dir_3a9c6fe855c5d1af04ce6ee63ecedf2c</title>
<g id="a_node5"><a xlink:href="dir_3a9c6fe855c5d1af04ce6ee63ecedf2c.html" target="_top" xlink:title="src">
<polygon fill="white" stroke="black" points="78,-396 24,-396 24,-360 78,-360 78,-396"/>
<text text-anchor="middle" x="51" y="-375.5" font-family="Helvetica,sans-Serif" font-size="10.00">src</text>
</a>
</g>
</g>
<!-- dir_3a9c6fe855c5d1af04ce6ee63ecedf2c&#45;&gt;dir_2649a81c7f56a709216892bc1285ef27 -->
<g id="edge8" class="edge">
<title>dir_3a9c6fe855c5d1af04ce6ee63ecedf2c&#45;&gt;dir_2649a81c7f56a709216892bc1285ef27</title>
<path fill="none" stroke="black" d="M52.43,-359.98C54.3,-340.46 58.18,-307.58 65,-280 66.48,-274.02 68.45,-267.72 70.5,-261.79"/>
<polygon fill="black" stroke="black" points="73.83,-262.87 73.95,-252.28 67.25,-260.48 73.83,-262.87"/>
<g id="a_edge8&#45;headlabel"><a xlink:href="dir_000138_000133.html" target="_top" xlink:title="4">
<text text-anchor="middle" x="75.27" y="-264.72" font-family="Helvetica,sans-Serif" font-size="10.00">4</text>
</a>
</g>
</g>
<!-- dir_3a9c6fe855c5d1af04ce6ee63ecedf2c&#45;&gt;dir_a0a8ac7efb6662b749c1285408048e6d -->
<g id="edge10" class="edge">
<title>dir_3a9c6fe855c5d1af04ce6ee63ecedf2c&#45;&gt;dir_a0a8ac7efb6662b749c1285408048e6d</title>
<path fill="none" stroke="black" d="M50.03,-359.62C48.7,-335.47 46.35,-290.43 45,-252 44.27,-231.28 43.76,-207.83 43.43,-190.21"/>
<polygon fill="black" stroke="black" points="46.93,-190 43.25,-180.07 39.93,-190.13 46.93,-190"/>
<g id="a_edge10&#45;headlabel"><a xlink:href="dir_000138_000206.html" target="_top" xlink:title="1">
<text text-anchor="middle" x="49.83" y="-191.05" font-family="Helvetica,sans-Serif" font-size="10.00">1</text>
</a>
</g>
</g>
<!-- dir_3a9c6fe855c5d1af04ce6ee63ecedf2c&#45;&gt;dir_3a96145256e208ba8e54b2dc9687859a -->
<g id="edge9" class="edge">
<title>dir_3a9c6fe855c5d1af04ce6ee63ecedf2c&#45;&gt;dir_3a96145256e208ba8e54b2dc9687859a</title>
<path fill="none" stroke="black" d="M63.36,-359.7C69.23,-351.47 76.37,-341.48 82.84,-332.42"/>
<polygon fill="black" stroke="black" points="85.82,-334.28 88.78,-324.1 80.12,-330.21 85.82,-334.28"/>
<g id="a_edge9&#45;headlabel"><a xlink:href="dir_000138_000209.html" target="_top" xlink:title="2">
<text text-anchor="middle" x="86.04" y="-336.35" font-family="Helvetica,sans-Serif" font-size="10.00">2</text>
</a>
</g>
</g>
<!-- dir_3a9c6fe855c5d1af04ce6ee63ecedf2c&#45;&gt;dir_bdd9a5d540de89e9fe90efdfc6973a4f -->
<g id="edge11" class="edge">
<title>dir_3a9c6fe855c5d1af04ce6ee63ecedf2c&#45;&gt;dir_bdd9a5d540de89e9fe90efdfc6973a4f</title>
<path fill="none" stroke="black" d="M78.35,-363.83C100.95,-352.32 130.38,-335.67 137,-324 178.24,-251.33 157.83,-217.41 139,-136 137.53,-129.66 135.05,-123.18 132.26,-117.19"/>
<polygon fill="black" stroke="black" points="135.38,-115.6 127.73,-108.26 129.13,-118.76 135.38,-115.6"/>
<g id="a_edge11&#45;headlabel"><a xlink:href="dir_000138_000000.html" target="_top" xlink:title="2">
<text text-anchor="middle" x="139.53" y="-115.03" font-family="Helvetica,sans-Serif" font-size="10.00">2</text>
</a>
</g>
</g>
<!-- dir_3a9c6fe855c5d1af04ce6ee63ecedf2c&#45;&gt;dir_0981ace215aa2029f526b70c145b9fbe -->
<g id="edge7" class="edge">
<title>dir_3a9c6fe855c5d1af04ce6ee63ecedf2c&#45;&gt;dir_0981ace215aa2029f526b70c145b9fbe</title>
<path fill="none" stroke="black" d="M78.25,-363.99C109.99,-348.8 158.35,-325.53 160,-324 193.6,-292.86 212,-280.81 212,-235 212,-235 212,-235 212,-161 212,-113.01 174.06,-68.96 146.13,-43.04"/>
<polygon fill="black" stroke="black" points="148.33,-40.31 138.56,-36.22 143.65,-45.52 148.33,-40.31"/>
<g id="a_edge7&#45;headlabel"><a xlink:href="dir_000138_000011.html" target="_top" xlink:title="2">
<text text-anchor="middle" x="152.9" y="-38.11" font-family="Helvetica,sans-Serif" font-size="10.00">2</text>
</a>
</g>
</g>
<!-- dir_bdd9a5d540de89e9fe90efdfc6973a4f&#45;&gt;dir_0981ace215aa2029f526b70c145b9fbe -->
<g id="edge13" class="edge">
<title>dir_bdd9a5d540de89e9fe90efdfc6973a4f&#45;&gt;dir_0981ace215aa2029f526b70c145b9fbe</title>
<path fill="none" stroke="black" d="M111.08,-71.7C110.29,-63.98 110.06,-54.71 110.4,-46.11"/>
<polygon fill="black" stroke="black" points="113.9,-46.32 111.1,-36.1 106.92,-45.84 113.9,-46.32"/>
<g id="a_edge13&#45;headlabel"><a xlink:href="dir_000000_000011.html" target="_top" xlink:title="20">
<text text-anchor="middle" x="116.48" y="-47.61" font-family="Helvetica,sans-Serif" font-size="10.00">20</text>
</a>
</g>
</g>
<!-- dir_0981ace215aa2029f526b70c145b9fbe&#45;&gt;dir_bdd9a5d540de89e9fe90efdfc6973a4f -->
<g id="edge12" class="edge">
<title>dir_0981ace215aa2029f526b70c145b9fbe&#45;&gt;dir_bdd9a5d540de89e9fe90efdfc6973a4f</title>
<path fill="none" stroke="black" d="M122.9,-36.1C123.7,-43.79 123.94,-53.05 123.6,-61.67"/>
<polygon fill="black" stroke="black" points="120.11,-61.48 122.92,-71.7 127.09,-61.96 120.11,-61.48"/>
<g id="a_edge12&#45;headlabel"><a xlink:href="dir_000011_000000.html" target="_top" xlink:title="158">
<text text-anchor="middle" x="117.52" y="-55.2" font-family="Helvetica,sans-Serif" font-size="10.00">158</text>
</a>
</g>
</g>
</g>
</svg>
