<?xml version="1.0" encoding="UTF-8" standalone="no"?>
<!DOCTYPE svg PUBLIC "-//W3C//DTD SVG 1.1//EN"
 "http://www.w3.org/Graphics/SVG/1.1/DTD/svg11.dtd">
<!-- Generated by graphviz version 2.43.0 (0)
 -->
<!-- Title: iop/system/sysclib/src/newlib/libc/machine/mips Pages: 1 -->
<svg width="188pt" height="231pt"
 viewBox="0.00 0.00 188.00 231.00" xmlns="http://www.w3.org/2000/svg" xmlns:xlink="http://www.w3.org/1999/xlink">
<g id="graph0" class="graph" transform="scale(1 1) rotate(0) translate(4 227)">
<title>iop/system/sysclib/src/newlib/libc/machine/mips</title>
<polygon fill="white" stroke="transparent" points="-4,4 -4,-227 184,-227 184,4 -4,4"/>
<g id="clust1" class="cluster">
<title>clusterdir_67b2c9c050fe7ff1951c6b85ae729a71</title>
<g id="a_clust1"><a xlink:href="dir_67b2c9c050fe7ff1951c6b85ae729a71.html" target="_top" xlink:title="machine">
<polygon fill="#ddddee" stroke="black" points="8,-128 8,-215 172,-215 172,-128 8,-128"/>
<text text-anchor="middle" x="90" y="-203" font-family="Helvetica,sans-Serif" font-size="10.00">machine</text>
</a>
</g>
</g>
<g id="clust2" class="cluster">
<title>clusterdir_ef7bf7eca87c8b3cdcf1dd371e9b3d72</title>
<g id="a_clust2"><a xlink:href="dir_ef7bf7eca87c8b3cdcf1dd371e9b3d72.html" target="_top">
<polygon fill="#eeeeff" stroke="black" points="16,-136 16,-188 164,-188 164,-136 16,-136"/>
</a>
</g>
</g>
<!-- dir_ef7bf7eca87c8b3cdcf1dd371e9b3d72 -->
<g id="node1" class="node">
<title>dir_ef7bf7eca87c8b3cdcf1dd371e9b3d72</title>
<text text-anchor="middle" x="51" y="-159.5" font-family="Helvetica,sans-Serif" font-size="10.00">mips</text>
</g>
<!-- dir_ae0c0d12ba79935994e6f04422f81491 -->
<g id="node4" class="node">
<title>dir_ae0c0d12ba79935994e6f04422f81491</title>
<g id="a_node4"><a xlink:href="dir_ae0c0d12ba79935994e6f04422f81491.html" target="_top" xlink:title="include">
<polygon fill="none" stroke="black" points="88,-108 34,-108 34,-72 88,-72 88,-108"/>
<text text-anchor="middle" x="61" y="-87.5" font-family="Helvetica,sans-Serif" font-size="10.00">include</text>
</a>
</g>
</g>
<!-- dir_ef7bf7eca87c8b3cdcf1dd371e9b3d72&#45;&gt;dir_ae0c0d12ba79935994e6f04422f81491 -->
<g id="edge1" class="edge">
<title>dir_ef7bf7eca87c8b3cdcf1dd371e9b3d72&#45;&gt;dir_ae0c0d12ba79935994e6f04422f81491</title>
<path fill="none" stroke="black" d="M53.47,-143.7C54.57,-135.98 55.9,-126.71 57.13,-118.11"/>
<polygon fill="black" stroke="black" points="60.61,-118.5 58.56,-108.1 53.68,-117.51 60.61,-118.5"/>
<g id="a_edge1&#45;headlabel"><a xlink:href="dir_000587_000576.html" target="_top" xlink:title="1">
<text text-anchor="middle" x="62.91" y="-119.96" font-family="Helvetica,sans-Serif" font-size="10.00">1</text>
</a>
</g>
</g>
<!-- dir_52b517ede27dad439198e3fb326d5f5e -->
<g id="node2" class="node">
<title>dir_52b517ede27dad439198e3fb326d5f5e</title>
<g id="a_node2"><a xlink:href="dir_52b517ede27dad439198e3fb326d5f5e.html" target="_top" xlink:title="machine">
<polygon fill="white" stroke="black" points="155.5,-180 96.5,-180 96.5,-144 155.5,-144 155.5,-180"/>
<text text-anchor="middle" x="126" y="-159.5" font-family="Helvetica,sans-Serif" font-size="10.00">machine</text>
</a>
</g>
</g>
<!-- dir_bdd9a5d540de89e9fe90efdfc6973a4f -->
<g id="node3" class="node">
<title>dir_bdd9a5d540de89e9fe90efdfc6973a4f</title>
<g id="a_node3"><a xlink:href="dir_bdd9a5d540de89e9fe90efdfc6973a4f.html" target="_top" xlink:title="common">
<polygon fill="white" stroke="red" points="90.5,-36 31.5,-36 31.5,0 90.5,0 90.5,-36"/>
<text text-anchor="middle" x="61" y="-15.5" font-family="Helvetica,sans-Serif" font-size="10.00">common</text>
</a>
</g>
</g>
<!-- dir_52b517ede27dad439198e3fb326d5f5e&#45;&gt;dir_bdd9a5d540de89e9fe90efdfc6973a4f -->
<g id="edge3" class="edge">
<title>dir_52b517ede27dad439198e3fb326d5f5e&#45;&gt;dir_bdd9a5d540de89e9fe90efdfc6973a4f</title>
<path fill="none" stroke="black" d="M121.92,-143.71C117.23,-125.36 108.66,-95.78 97,-72 92.42,-62.66 86.38,-53.07 80.56,-44.66"/>
<polygon fill="black" stroke="black" points="83.31,-42.49 74.65,-36.39 77.62,-46.56 83.31,-42.49"/>
<g id="a_edge3&#45;headlabel"><a xlink:href="dir_000588_000000.html" target="_top" xlink:title="1">
<text text-anchor="middle" x="87.71" y="-41.26" font-family="Helvetica,sans-Serif" font-size="10.00">1</text>
</a>
</g>
</g>
<!-- dir_bdd9a5d540de89e9fe90efdfc6973a4f&#45;&gt;dir_ae0c0d12ba79935994e6f04422f81491 -->
<g id="edge2" class="edge">
<title>dir_bdd9a5d540de89e9fe90efdfc6973a4f&#45;&gt;dir_ae0c0d12ba79935994e6f04422f81491</title>
<path fill="none" stroke="black" d="M66.9,-36.1C67.7,-43.79 67.94,-53.05 67.6,-61.67"/>
<polygon fill="black" stroke="black" points="64.11,-61.48 66.92,-71.7 71.09,-61.96 64.11,-61.48"/>
<g id="a_edge2&#45;headlabel"><a xlink:href="dir_000000_000576.html" target="_top" xlink:title="3">
<text text-anchor="middle" x="61.52" y="-55.2" font-family="Helvetica,sans-Serif" font-size="10.00">3</text>
</a>
</g>
</g>
<!-- dir_ae0c0d12ba79935994e6f04422f81491&#45;&gt;dir_bdd9a5d540de89e9fe90efdfc6973a4f -->
<g id="edge4" class="edge">
<title>dir_ae0c0d12ba79935994e6f04422f81491&#45;&gt;dir_bdd9a5d540de89e9fe90efdfc6973a4f</title>
<path fill="none" stroke="black" d="M55.08,-71.7C54.29,-63.98 54.06,-54.71 54.4,-46.11"/>
<polygon fill="black" stroke="black" points="57.9,-46.32 55.1,-36.1 50.92,-45.84 57.9,-46.32"/>
<g id="a_edge4&#45;headlabel"><a xlink:href="dir_000576_000000.html" target="_top" xlink:title="1">
<text text-anchor="middle" x="60.48" y="-47.61" font-family="Helvetica,sans-Serif" font-size="10.00">1</text>
</a>
</g>
</g>
</g>
</svg>
