<?xml version="1.0" encoding="UTF-8" standalone="no"?>
<!DOCTYPE svg PUBLIC "-//W3C//DTD SVG 1.1//EN"
 "http://www.w3.org/Graphics/SVG/1.1/DTD/svg11.dtd">
<!-- Generated by graphviz version 9.0.0 (20230911.1827)
 -->
<!-- Title: iop/cdvd Pages: 1 -->
<svg width="263pt" height="142pt"
 viewBox="0.00 0.00 262.75 141.75" xmlns="http://www.w3.org/2000/svg" xmlns:xlink="http://www.w3.org/1999/xlink">
<g id="graph0" class="graph" transform="scale(1 1) rotate(0) translate(4 137.75)">
<title>iop/cdvd</title>
<g id="clust1" class="cluster">
<title>clusterdir_0981ace215aa2029f526b70c145b9fbe</title>
<g id="a_clust1"><a xlink:href="dir_0981ace215aa2029f526b70c145b9fbe.html" target="_top" xlink:title="iop">
<polygon fill="#deebf9" stroke="#404040" stroke-dasharray="5,2" points="8,-8 8,-125.75 193,-125.75 193,-8 8,-8"/>
<text text-anchor="middle" x="100.5" y="-112.25" font-family="Helvetica,sans-Serif" font-size="10.00">iop</text>
</a>
</g>
</g>
<g id="clust2" class="cluster">
<title>clusterdir_a12d8da7b0731a57c6a388326ad5e612</title>
<g id="a_clust2"><a xlink:href="dir_a12d8da7b0731a57c6a388326ad5e612.html" target="_top">
<polygon fill="#deebf9" stroke="#404040" stroke-width="2" points="16,-63.25 16,-98.5 185,-98.5 185,-63.25 16,-63.25"/>
</a>
</g>
</g>
<!-- dir_9be0baa3d4a3e9f480a9ee70594037fa -->
<g id="node1" class="node">
<title>dir_9be0baa3d4a3e9f480a9ee70594037fa</title>
<g id="a_node1"><a xlink:href="dir_9be0baa3d4a3e9f480a9ee70594037fa.html" target="_top" xlink:title="kernel">
<polygon fill="#60a2e3" stroke="red" points="96.12,-35.25 53.88,-35.25 53.88,-16 96.12,-16 96.12,-35.25"/>
<text text-anchor="middle" x="75" y="-21.75" font-family="Helvetica,sans-Serif" font-size="10.00">kernel</text>
</a>
</g>
</g>
<!-- dir_a12d8da7b0731a57c6a388326ad5e612 -->
<g id="node2" class="node">
<title>dir_a12d8da7b0731a57c6a388326ad5e612</title>
<text text-anchor="middle" x="158" y="-77" font-family="Helvetica,sans-Serif" font-size="10.00">cdvd</text>
</g>
<!-- dir_ae2e5b2d61c32fda6e87ab98b4cec460 -->
<g id="node3" class="node">
<title>dir_ae2e5b2d61c32fda6e87ab98b4cec460</title>
<g id="a_node3"><a xlink:href="dir_ae2e5b2d61c32fda6e87ab98b4cec460.html" target="_top" xlink:title="cdfs">
<polygon fill="#60a2e3" stroke="#404040" points="121.38,-90.5 86.62,-90.5 86.62,-71.25 121.38,-71.25 121.38,-90.5"/>
<text text-anchor="middle" x="104" y="-77" font-family="Helvetica,sans-Serif" font-size="10.00">cdfs</text>
</a>
</g>
</g>
<!-- dir_ae2e5b2d61c32fda6e87ab98b4cec460&#45;&gt;dir_9be0baa3d4a3e9f480a9ee70594037fa -->
<g id="edge1" class="edge">
<title>dir_ae2e5b2d61c32fda6e87ab98b4cec460&#45;&gt;dir_9be0baa3d4a3e9f480a9ee70594037fa</title>
<g id="a_edge1"><a xlink:href="dir_000038_000213.html" target="_top">
<path fill="none" stroke="#63b8ff" d="M99.21,-71.08C95.46,-64.19 90.09,-54.34 85.37,-45.66"/>
<polygon fill="#63b8ff" stroke="#63b8ff" points="88.47,-44.05 80.62,-36.94 82.33,-47.39 88.47,-44.05"/>
</a>
</g>
<g id="a_edge1&#45;headlabel"><a xlink:href="dir_000038_000213.html" target="_top" xlink:title="16">
<text text-anchor="middle" x="91.96" y="-40.64" font-family="Helvetica,sans-Serif" font-size="10.00" fill="#63b8ff">16</text>
</a>
</g>
</g>
<!-- dir_bdd9a5d540de89e9fe90efdfc6973a4f -->
<g id="node5" class="node">
<title>dir_bdd9a5d540de89e9fe90efdfc6973a4f</title>
<g id="a_node5"><a xlink:href="dir_bdd9a5d540de89e9fe90efdfc6973a4f.html" target="_top" xlink:title="common">
<polygon fill="#deebf9" stroke="red" points="254.75,-35.25 201.25,-35.25 201.25,-16 254.75,-16 254.75,-35.25"/>
<text text-anchor="middle" x="228" y="-21.75" font-family="Helvetica,sans-Serif" font-size="10.00">common</text>
</a>
</g>
</g>
<!-- dir_ae2e5b2d61c32fda6e87ab98b4cec460&#45;&gt;dir_bdd9a5d540de89e9fe90efdfc6973a4f -->
<g id="edge2" class="edge">
<title>dir_ae2e5b2d61c32fda6e87ab98b4cec460&#45;&gt;dir_bdd9a5d540de89e9fe90efdfc6973a4f</title>
<g id="a_edge2"><a xlink:href="dir_000038_000042.html" target="_top">
<path fill="none" stroke="#63b8ff" d="M117.45,-70.9C121.69,-68.26 126.45,-65.48 131,-63.25 150,-53.92 172.01,-45.43 190.26,-38.98"/>
<polygon fill="#63b8ff" stroke="#63b8ff" points="191.34,-42.31 199.64,-35.74 189.05,-35.7 191.34,-42.31"/>
</a>
</g>
<g id="a_edge2&#45;headlabel"><a xlink:href="dir_000038_000042.html" target="_top" xlink:title="3">
<text text-anchor="middle" x="190.3" y="-41.8" font-family="Helvetica,sans-Serif" font-size="10.00" fill="#63b8ff">3</text>
</a>
</g>
</g>
<!-- dir_e9f6397765e90b9450cf2a2f2169ae17 -->
<g id="node4" class="node">
<title>dir_e9f6397765e90b9450cf2a2f2169ae17</title>
<g id="a_node4"><a xlink:href="dir_e9f6397765e90b9450cf2a2f2169ae17.html" target="_top" xlink:title="xesdrv">
<polygon fill="#60a2e3" stroke="#404040" points="68.25,-90.5 23.75,-90.5 23.75,-71.25 68.25,-71.25 68.25,-90.5"/>
<text text-anchor="middle" x="46" y="-77" font-family="Helvetica,sans-Serif" font-size="10.00">xesdrv</text>
</a>
</g>
</g>
<!-- dir_e9f6397765e90b9450cf2a2f2169ae17&#45;&gt;dir_9be0baa3d4a3e9f480a9ee70594037fa -->
<g id="edge3" class="edge">
<title>dir_e9f6397765e90b9450cf2a2f2169ae17&#45;&gt;dir_9be0baa3d4a3e9f480a9ee70594037fa</title>
<g id="a_edge3"><a xlink:href="dir_000507_000213.html" target="_top">
<path fill="none" stroke="#63b8ff" d="M50.79,-71.08C54.54,-64.19 59.91,-54.34 64.63,-45.66"/>
<polygon fill="#63b8ff" stroke="#63b8ff" points="67.67,-47.39 69.38,-36.94 61.53,-44.05 67.67,-47.39"/>
</a>
</g>
<g id="a_edge3&#45;headlabel"><a xlink:href="dir_000507_000213.html" target="_top" xlink:title="5">
<text text-anchor="middle" x="69.17" y="-46.71" font-family="Helvetica,sans-Serif" font-size="10.00" fill="#63b8ff">5</text>
</a>
</g>
</g>
<!-- dir_e9f6397765e90b9450cf2a2f2169ae17&#45;&gt;dir_bdd9a5d540de89e9fe90efdfc6973a4f -->
<g id="edge4" class="edge">
<title>dir_e9f6397765e90b9450cf2a2f2169ae17&#45;&gt;dir_bdd9a5d540de89e9fe90efdfc6973a4f</title>
<g id="a_edge4"><a xlink:href="dir_000507_000042.html" target="_top">
<path fill="none" stroke="#63b8ff" d="M61.6,-70.79C66.7,-68.08 72.48,-65.3 78,-63.25 125.46,-45.65 142.1,-48.26 189.91,-36.95"/>
<polygon fill="#63b8ff" stroke="#63b8ff" points="190.63,-40.37 199.5,-34.58 188.95,-33.58 190.63,-40.37"/>
</a>
</g>
<g id="a_edge4&#45;headlabel"><a xlink:href="dir_000507_000042.html" target="_top" xlink:title="1">
<text text-anchor="middle" x="189.29" y="-39.75" font-family="Helvetica,sans-Serif" font-size="10.00" fill="#63b8ff">1</text>
</a>
</g>
</g>
</g>
</svg>
