<?xml version="1.0" encoding="UTF-8" standalone="no"?>
<!DOCTYPE svg PUBLIC "-//W3C//DTD SVG 1.1//EN"
 "http://www.w3.org/Graphics/SVG/1.1/DTD/svg11.dtd">
<!-- Generated by graphviz version 9.0.0 (20230911.1827)
 -->
<!-- Title: ee/kernel/src Pages: 1 -->
<svg width="413pt" height="142pt"
 viewBox="0.00 0.00 413.40 141.75" xmlns="http://www.w3.org/2000/svg" xmlns:xlink="http://www.w3.org/1999/xlink">
<g id="graph0" class="graph" transform="scale(1 1) rotate(0) translate(4 137.75)">
<title>ee/kernel/src</title>
<g id="clust1" class="cluster">
<title>clusterdir_694ec83a64f58cbdefbefce65cd1011c</title>
<g id="a_clust1"><a xlink:href="dir_694ec83a64f58cbdefbefce65cd1011c.html" target="_top" xlink:title="kernel">
<polygon fill="#deebf9" stroke="#7f7f7f" stroke-dasharray="5,2" points="8,-8 8,-125.75 250,-125.75 250,-8 8,-8"/>
<text text-anchor="middle" x="129" y="-112.25" font-family="Helvetica,sans-Serif" font-size="10.00">kernel</text>
</a>
</g>
</g>
<g id="clust2" class="cluster">
<title>clusterdir_a493926c6e9678712bca5b1e822bb94f</title>
<g id="a_clust2"><a xlink:href="dir_a493926c6e9678712bca5b1e822bb94f.html" target="_top">
<polygon fill="#deebf9" stroke="#404040" stroke-width="2" points="16,-63.25 16,-98.5 242,-98.5 242,-63.25 16,-63.25"/>
</a>
</g>
</g>
<!-- dir_8a6a67431f985d69787ebf051412922f -->
<g id="node1" class="node">
<title>dir_8a6a67431f985d69787ebf051412922f</title>
<g id="a_node1"><a xlink:href="dir_8a6a67431f985d69787ebf051412922f.html" target="_top" xlink:title="include">
<polygon fill="#60a2e3" stroke="#404040" points="156.38,-35.25 109.62,-35.25 109.62,-16 156.38,-16 156.38,-35.25"/>
<text text-anchor="middle" x="133" y="-21.75" font-family="Helvetica,sans-Serif" font-size="10.00">include</text>
</a>
</g>
</g>
<!-- dir_a493926c6e9678712bca5b1e822bb94f -->
<g id="node2" class="node">
<title>dir_a493926c6e9678712bca5b1e822bb94f</title>
<text text-anchor="middle" x="219" y="-77" font-family="Helvetica,sans-Serif" font-size="10.00">src</text>
</g>
<!-- dir_a493926c6e9678712bca5b1e822bb94f&#45;&gt;dir_8a6a67431f985d69787ebf051412922f -->
<g id="edge2" class="edge">
<title>dir_a493926c6e9678712bca5b1e822bb94f&#45;&gt;dir_8a6a67431f985d69787ebf051412922f</title>
<g id="a_edge2"><a xlink:href="dir_000267_000083.html" target="_top">
<path fill="none" stroke="#63b8ff" d="M207.93,-71.53C204.19,-68.81 199.97,-65.83 196,-63.25 184.22,-55.6 170.81,-47.69 159.4,-41.2"/>
<polygon fill="#63b8ff" stroke="#63b8ff" points="161.34,-38.27 150.9,-36.42 157.9,-44.37 161.34,-38.27"/>
</a>
</g>
<g id="a_edge2&#45;headlabel"><a xlink:href="dir_000267_000083.html" target="_top" xlink:title="56">
<text text-anchor="middle" x="164.54" y="-32.94" font-family="Helvetica,sans-Serif" font-size="10.00" fill="#63b8ff">56</text>
</a>
</g>
</g>
<!-- dir_0981ace215aa2029f526b70c145b9fbe -->
<g id="node6" class="node">
<title>dir_0981ace215aa2029f526b70c145b9fbe</title>
<g id="a_node6"><a xlink:href="dir_0981ace215aa2029f526b70c145b9fbe.html" target="_top" xlink:title="iop">
<polygon fill="#deebf9" stroke="red" points="358.4,-35.25 329.6,-35.25 329.6,-16 358.4,-16 358.4,-35.25"/>
<text text-anchor="middle" x="344" y="-21.75" font-family="Helvetica,sans-Serif" font-size="10.00">iop</text>
</a>
</g>
</g>
<!-- dir_a493926c6e9678712bca5b1e822bb94f&#45;&gt;dir_0981ace215aa2029f526b70c145b9fbe -->
<g id="edge1" class="edge">
<title>dir_a493926c6e9678712bca5b1e822bb94f&#45;&gt;dir_0981ace215aa2029f526b70c145b9fbe</title>
<g id="a_edge1"><a xlink:href="dir_000267_000167.html" target="_top">
<path fill="none" stroke="#63b8ff" d="M233.34,-73.77C254.23,-64.87 293.34,-48.21 319.03,-37.26"/>
<polygon fill="#63b8ff" stroke="#63b8ff" points="320.22,-40.56 328.05,-33.42 317.48,-34.12 320.22,-40.56"/>
</a>
</g>
<g id="a_edge1&#45;headlabel"><a xlink:href="dir_000267_000167.html" target="_top" xlink:title="5">
<text text-anchor="middle" x="319.42" y="-40.11" font-family="Helvetica,sans-Serif" font-size="10.00" fill="#63b8ff">5</text>
</a>
</g>
</g>
<!-- dir_a0a8ac7efb6662b749c1285408048e6d -->
<g id="node7" class="node">
<title>dir_a0a8ac7efb6662b749c1285408048e6d</title>
<g id="a_node7"><a xlink:href="dir_a0a8ac7efb6662b749c1285408048e6d.html" target="_top" xlink:title="erl">
<polygon fill="#deebf9" stroke="red" stroke-dasharray="5,2" points="405.4,-35.25 376.6,-35.25 376.6,-16 405.4,-16 405.4,-35.25"/>
<text text-anchor="middle" x="391" y="-21.75" font-family="Helvetica,sans-Serif" font-size="10.00">erl</text>
</a>
</g>
</g>
<!-- dir_a493926c6e9678712bca5b1e822bb94f&#45;&gt;dir_a0a8ac7efb6662b749c1285408048e6d -->
<g id="edge3" class="edge">
<title>dir_a493926c6e9678712bca5b1e822bb94f&#45;&gt;dir_a0a8ac7efb6662b749c1285408048e6d</title>
<g id="a_edge3"><a xlink:href="dir_000267_000044.html" target="_top">
<path fill="none" stroke="#63b8ff" d="M233.36,-75.81C258.24,-68.72 311.15,-53.4 365.45,-35.62"/>
<polygon fill="#63b8ff" stroke="#63b8ff" points="366.48,-38.97 374.88,-32.51 364.29,-32.32 366.48,-38.97"/>
</a>
</g>
<g id="a_edge3&#45;headlabel"><a xlink:href="dir_000267_000044.html" target="_top" xlink:title="1">
<text text-anchor="middle" x="365.39" y="-38.44" font-family="Helvetica,sans-Serif" font-size="10.00" fill="#63b8ff">1</text>
</a>
</g>
</g>
<!-- dir_bdd9a5d540de89e9fe90efdfc6973a4f -->
<g id="node8" class="node">
<title>dir_bdd9a5d540de89e9fe90efdfc6973a4f</title>
<g id="a_node8"><a xlink:href="dir_bdd9a5d540de89e9fe90efdfc6973a4f.html" target="_top" xlink:title="common">
<polygon fill="#deebf9" stroke="red" points="311.75,-35.25 258.25,-35.25 258.25,-16 311.75,-16 311.75,-35.25"/>
<text text-anchor="middle" x="285" y="-21.75" font-family="Helvetica,sans-Serif" font-size="10.00">common</text>
</a>
</g>
</g>
<!-- dir_a493926c6e9678712bca5b1e822bb94f&#45;&gt;dir_bdd9a5d540de89e9fe90efdfc6973a4f -->
<g id="edge4" class="edge">
<title>dir_a493926c6e9678712bca5b1e822bb94f&#45;&gt;dir_bdd9a5d540de89e9fe90efdfc6973a4f</title>
<g id="a_edge4"><a xlink:href="dir_000267_000022.html" target="_top">
<path fill="none" stroke="#63b8ff" d="M229.6,-71.32C239.15,-63.62 253.43,-52.1 265.1,-42.68"/>
<polygon fill="#63b8ff" stroke="#63b8ff" points="267,-45.65 272.58,-36.64 262.6,-40.2 267,-45.65"/>
</a>
</g>
<g id="a_edge4&#45;headlabel"><a xlink:href="dir_000267_000022.html" target="_top" xlink:title="18">
<text text-anchor="middle" x="267.16" y="-45.29" font-family="Helvetica,sans-Serif" font-size="10.00" fill="#63b8ff">18</text>
</a>
</g>
</g>
<!-- dir_51b4fd419f5cef2df1fa20f57f0c92da -->
<g id="node3" class="node">
<title>dir_51b4fd419f5cef2df1fa20f57f0c92da</title>
<g id="a_node3"><a xlink:href="dir_51b4fd419f5cef2df1fa20f57f0c92da.html" target="_top" xlink:title="osdsrc">
<polygon fill="#60a2e3" stroke="#404040" points="186.62,-90.5 141.38,-90.5 141.38,-71.25 186.62,-71.25 186.62,-90.5"/>
<text text-anchor="middle" x="164" y="-77" font-family="Helvetica,sans-Serif" font-size="10.00">osdsrc</text>
</a>
</g>
</g>
<!-- dir_51b4fd419f5cef2df1fa20f57f0c92da&#45;&gt;dir_8a6a67431f985d69787ebf051412922f -->
<g id="edge5" class="edge">
<title>dir_51b4fd419f5cef2df1fa20f57f0c92da&#45;&gt;dir_8a6a67431f985d69787ebf051412922f</title>
<g id="a_edge5"><a xlink:href="dir_000213_000083.html" target="_top">
<path fill="none" stroke="#63b8ff" d="M158.88,-71.08C154.82,-64.11 149.01,-54.12 143.91,-45.37"/>
<polygon fill="#63b8ff" stroke="#63b8ff" points="147.05,-43.8 138.99,-36.92 141,-47.32 147.05,-43.8"/>
</a>
</g>
<g id="a_edge5&#45;headlabel"><a xlink:href="dir_000213_000083.html" target="_top" xlink:title="4">
<text text-anchor="middle" x="150.55" y="-40.29" font-family="Helvetica,sans-Serif" font-size="10.00" fill="#63b8ff">4</text>
</a>
</g>
</g>
<!-- dir_51b4fd419f5cef2df1fa20f57f0c92da&#45;&gt;dir_bdd9a5d540de89e9fe90efdfc6973a4f -->
<g id="edge6" class="edge">
<title>dir_51b4fd419f5cef2df1fa20f57f0c92da&#45;&gt;dir_bdd9a5d540de89e9fe90efdfc6973a4f</title>
<g id="a_edge6"><a xlink:href="dir_000213_000022.html" target="_top">
<path fill="none" stroke="#63b8ff" d="M179.92,-70.92C184.72,-68.34 190.03,-65.59 195,-63.25 212.91,-54.83 233.3,-46.44 250.14,-39.82"/>
<polygon fill="#63b8ff" stroke="#63b8ff" points="251.17,-43.17 259.22,-36.28 248.64,-36.65 251.17,-43.17"/>
</a>
</g>
<g id="a_edge6&#45;headlabel"><a xlink:href="dir_000213_000022.html" target="_top" xlink:title="1">
<text text-anchor="middle" x="250.26" y="-42.7" font-family="Helvetica,sans-Serif" font-size="10.00" fill="#63b8ff">1</text>
</a>
</g>
</g>
<!-- dir_956615eb5c1ba3c328b30cb4364be616 -->
<g id="node4" class="node">
<title>dir_956615eb5c1ba3c328b30cb4364be616</title>
<g id="a_node4"><a xlink:href="dir_956615eb5c1ba3c328b30cb4364be616.html" target="_top" xlink:title="srcfile">
<polygon fill="#60a2e3" stroke="#404040" points="123.75,-90.5 82.25,-90.5 82.25,-71.25 123.75,-71.25 123.75,-90.5"/>
<text text-anchor="middle" x="103" y="-77" font-family="Helvetica,sans-Serif" font-size="10.00">srcfile</text>
</a>
</g>
</g>
<!-- dir_956615eb5c1ba3c328b30cb4364be616&#45;&gt;dir_8a6a67431f985d69787ebf051412922f -->
<g id="edge7" class="edge">
<title>dir_956615eb5c1ba3c328b30cb4364be616&#45;&gt;dir_8a6a67431f985d69787ebf051412922f</title>
<g id="a_edge7"><a xlink:href="dir_000401_000083.html" target="_top">
<path fill="none" stroke="#63b8ff" d="M107.95,-71.08C111.88,-64.11 117.51,-54.12 122.44,-45.37"/>
<polygon fill="#63b8ff" stroke="#63b8ff" points="125.34,-47.36 127.2,-36.93 119.24,-43.92 125.34,-47.36"/>
</a>
</g>
<g id="a_edge7&#45;headlabel"><a xlink:href="dir_000401_000083.html" target="_top" xlink:title="3">
<text text-anchor="middle" x="126.79" y="-46.69" font-family="Helvetica,sans-Serif" font-size="10.00" fill="#63b8ff">3</text>
</a>
</g>
</g>
<!-- dir_956615eb5c1ba3c328b30cb4364be616&#45;&gt;dir_bdd9a5d540de89e9fe90efdfc6973a4f -->
<g id="edge8" class="edge">
<title>dir_956615eb5c1ba3c328b30cb4364be616&#45;&gt;dir_bdd9a5d540de89e9fe90efdfc6973a4f</title>
<g id="a_edge8"><a xlink:href="dir_000401_000022.html" target="_top">
<path fill="none" stroke="#63b8ff" d="M116.74,-70.89C121.44,-68.13 126.81,-65.28 132,-63.25 180.37,-44.32 197.76,-48.26 246.96,-36.89"/>
<polygon fill="#63b8ff" stroke="#63b8ff" points="247.6,-40.34 256.5,-34.58 245.95,-33.54 247.6,-40.34"/>
</a>
</g>
<g id="a_edge8&#45;headlabel"><a xlink:href="dir_000401_000022.html" target="_top" xlink:title="2">
<text text-anchor="middle" x="246.25" y="-39.72" font-family="Helvetica,sans-Serif" font-size="10.00" fill="#63b8ff">2</text>
</a>
</g>
</g>
<!-- dir_9a87498b9a1b570e9d1e3baca4c4d515 -->
<g id="node5" class="node">
<title>dir_9a87498b9a1b570e9d1e3baca4c4d515</title>
<g id="a_node5"><a xlink:href="dir_9a87498b9a1b570e9d1e3baca4c4d515.html" target="_top" xlink:title="tlbsrc">
<polygon fill="#60a2e3" stroke="#404040" points="64,-90.5 24,-90.5 24,-71.25 64,-71.25 64,-90.5"/>
<text text-anchor="middle" x="44" y="-77" font-family="Helvetica,sans-Serif" font-size="10.00">tlbsrc</text>
</a>
</g>
</g>
<!-- dir_9a87498b9a1b570e9d1e3baca4c4d515&#45;&gt;dir_8a6a67431f985d69787ebf051412922f -->
<g id="edge9" class="edge">
<title>dir_9a87498b9a1b570e9d1e3baca4c4d515&#45;&gt;dir_8a6a67431f985d69787ebf051412922f</title>
<g id="a_edge9"><a xlink:href="dir_000422_000083.html" target="_top">
<path fill="none" stroke="#63b8ff" d="M59.1,-70.84C72.52,-62.81 92.41,-50.91 108.17,-41.48"/>
<polygon fill="#63b8ff" stroke="#63b8ff" points="109.75,-44.62 116.53,-36.48 106.15,-38.61 109.75,-44.62"/>
</a>
</g>
<g id="a_edge9&#45;headlabel"><a xlink:href="dir_000422_000083.html" target="_top" xlink:title="1">
<text text-anchor="middle" x="109.42" y="-44.25" font-family="Helvetica,sans-Serif" font-size="10.00" fill="#63b8ff">1</text>
</a>
</g>
</g>
<!-- dir_9a87498b9a1b570e9d1e3baca4c4d515&#45;&gt;dir_bdd9a5d540de89e9fe90efdfc6973a4f -->
<g id="edge10" class="edge">
<title>dir_9a87498b9a1b570e9d1e3baca4c4d515&#45;&gt;dir_bdd9a5d540de89e9fe90efdfc6973a4f</title>
<g id="a_edge10"><a xlink:href="dir_000422_000022.html" target="_top">
<path fill="none" stroke="#63b8ff" d="M57.37,-70.84C62.12,-68.01 67.63,-65.13 73,-63.25 146.37,-37.54 172.11,-51.05 247.08,-36.58"/>
<polygon fill="#63b8ff" stroke="#63b8ff" points="247.42,-40.08 256.51,-34.64 246.01,-33.22 247.42,-40.08"/>
</a>
</g>
<g id="a_edge10&#45;headlabel"><a xlink:href="dir_000422_000022.html" target="_top" xlink:title="1">
<text text-anchor="middle" x="245.95" y="-39.4" font-family="Helvetica,sans-Serif" font-size="10.00" fill="#63b8ff">1</text>
</a>
</g>
</g>
</g>
</svg>
