<?xml version="1.0" encoding="UTF-8" standalone="no"?>
<!DOCTYPE svg PUBLIC "-//W3C//DTD SVG 1.1//EN"
 "http://www.w3.org/Graphics/SVG/1.1/DTD/svg11.dtd">
<!-- Generated by graphviz version 2.43.0 (0)
 -->
<!-- Title: iop/tcpip/tcpip&#45;base/include Pages: 1 -->
<svg width="189pt" height="231pt"
 viewBox="0.00 0.00 188.50 231.00" xmlns="http://www.w3.org/2000/svg" xmlns:xlink="http://www.w3.org/1999/xlink">
<g id="graph0" class="graph" transform="scale(1 1) rotate(0) translate(4 227)">
<title>iop/tcpip/tcpip&#45;base/include</title>
<polygon fill="white" stroke="transparent" points="-4,4 -4,-227 184.5,-227 184.5,4 -4,4"/>
<g id="clust1" class="cluster">
<title>clusterdir_ab0c940ac9afa06c331831ae52f4280f</title>
<g id="a_clust1"><a xlink:href="dir_ab0c940ac9afa06c331831ae52f4280f.html" target="_top" xlink:title="tcpip&#45;base">
<polygon fill="#ddddee" stroke="black" points="14.5,-128 14.5,-215 172.5,-215 172.5,-128 14.5,-128"/>
<text text-anchor="middle" x="93.5" y="-203" font-family="Helvetica,sans-Serif" font-size="10.00">tcpip&#45;base</text>
</a>
</g>
</g>
<g id="clust2" class="cluster">
<title>clusterdir_7fe979218212ccd9b615f44ceca681f9</title>
<g id="a_clust2"><a xlink:href="dir_7fe979218212ccd9b615f44ceca681f9.html" target="_top">
<polygon fill="#eeeeff" stroke="black" points="22.5,-136 22.5,-188 164.5,-188 164.5,-136 22.5,-136"/>
</a>
</g>
</g>
<!-- dir_7fe979218212ccd9b615f44ceca681f9 -->
<g id="node1" class="node">
<title>dir_7fe979218212ccd9b615f44ceca681f9</title>
<text text-anchor="middle" x="129.5" y="-159.5" font-family="Helvetica,sans-Serif" font-size="10.00">include</text>
</g>
<!-- dir_dc679784e9af5b83c39640f602330bdc -->
<g id="node2" class="node">
<title>dir_dc679784e9af5b83c39640f602330bdc</title>
<g id="a_node2"><a xlink:href="dir_dc679784e9af5b83c39640f602330bdc.html" target="_top" xlink:title="arch">
<polygon fill="white" stroke="black" points="84.5,-180 30.5,-180 30.5,-144 84.5,-144 84.5,-180"/>
<text text-anchor="middle" x="57.5" y="-159.5" font-family="Helvetica,sans-Serif" font-size="10.00">arch</text>
</a>
</g>
</g>
<!-- dir_9be0baa3d4a3e9f480a9ee70594037fa -->
<g id="node3" class="node">
<title>dir_9be0baa3d4a3e9f480a9ee70594037fa</title>
<g id="a_node3"><a xlink:href="dir_9be0baa3d4a3e9f480a9ee70594037fa.html" target="_top" xlink:title="kernel">
<polygon fill="white" stroke="red" points="56.5,-108 2.5,-108 2.5,-72 56.5,-72 56.5,-108"/>
<text text-anchor="middle" x="29.5" y="-87.5" font-family="Helvetica,sans-Serif" font-size="10.00">kernel</text>
</a>
</g>
</g>
<!-- dir_dc679784e9af5b83c39640f602330bdc&#45;&gt;dir_9be0baa3d4a3e9f480a9ee70594037fa -->
<g id="edge2" class="edge">
<title>dir_dc679784e9af5b83c39640f602330bdc&#45;&gt;dir_9be0baa3d4a3e9f480a9ee70594037fa</title>
<path fill="none" stroke="black" d="M50.58,-143.7C47.43,-135.81 43.62,-126.3 40.12,-117.55"/>
<polygon fill="black" stroke="black" points="43.31,-116.09 36.34,-108.1 36.81,-118.69 43.31,-116.09"/>
<g id="a_edge2&#45;headlabel"><a xlink:href="dir_000442_000530.html" target="_top" xlink:title="1">
<text text-anchor="middle" x="47.28" y="-115.87" font-family="Helvetica,sans-Serif" font-size="10.00">1</text>
</a>
</g>
</g>
<!-- dir_bdd9a5d540de89e9fe90efdfc6973a4f -->
<g id="node4" class="node">
<title>dir_bdd9a5d540de89e9fe90efdfc6973a4f</title>
<g id="a_node4"><a xlink:href="dir_bdd9a5d540de89e9fe90efdfc6973a4f.html" target="_top" xlink:title="common">
<polygon fill="white" stroke="red" points="59,-36 0,-36 0,0 59,0 59,-36"/>
<text text-anchor="middle" x="29.5" y="-15.5" font-family="Helvetica,sans-Serif" font-size="10.00">common</text>
</a>
</g>
</g>
<!-- dir_dc679784e9af5b83c39640f602330bdc&#45;&gt;dir_bdd9a5d540de89e9fe90efdfc6973a4f -->
<g id="edge3" class="edge">
<title>dir_dc679784e9af5b83c39640f602330bdc&#45;&gt;dir_bdd9a5d540de89e9fe90efdfc6973a4f</title>
<path fill="none" stroke="black" d="M62.84,-143.87C67.66,-125.64 72.93,-96.17 65.5,-72 62.49,-62.22 56.99,-52.62 51.18,-44.33"/>
<polygon fill="black" stroke="black" points="53.91,-42.13 45.11,-36.23 48.31,-46.33 53.91,-42.13"/>
<g id="a_edge3&#45;headlabel"><a xlink:href="dir_000442_000000.html" target="_top" xlink:title="1">
<text text-anchor="middle" x="58.33" y="-40.8" font-family="Helvetica,sans-Serif" font-size="10.00">1</text>
</a>
</g>
</g>
<!-- dir_9be0baa3d4a3e9f480a9ee70594037fa&#45;&gt;dir_bdd9a5d540de89e9fe90efdfc6973a4f -->
<g id="edge1" class="edge">
<title>dir_9be0baa3d4a3e9f480a9ee70594037fa&#45;&gt;dir_bdd9a5d540de89e9fe90efdfc6973a4f</title>
<path fill="none" stroke="black" d="M23.58,-71.7C22.79,-63.98 22.56,-54.71 22.9,-46.11"/>
<polygon fill="black" stroke="black" points="26.4,-46.32 23.6,-36.1 19.42,-45.84 26.4,-46.32"/>
<g id="a_edge1&#45;headlabel"><a xlink:href="dir_000530_000000.html" target="_top" xlink:title="2">
<text text-anchor="middle" x="28.98" y="-47.61" font-family="Helvetica,sans-Serif" font-size="10.00">2</text>
</a>
</g>
</g>
<!-- dir_bdd9a5d540de89e9fe90efdfc6973a4f&#45;&gt;dir_9be0baa3d4a3e9f480a9ee70594037fa -->
<g id="edge4" class="edge">
<title>dir_bdd9a5d540de89e9fe90efdfc6973a4f&#45;&gt;dir_9be0baa3d4a3e9f480a9ee70594037fa</title>
<path fill="none" stroke="black" d="M35.4,-36.1C36.2,-43.79 36.44,-53.05 36.1,-61.67"/>
<polygon fill="black" stroke="black" points="32.61,-61.48 35.42,-71.7 39.59,-61.96 32.61,-61.48"/>
<g id="a_edge4&#45;headlabel"><a xlink:href="dir_000000_000530.html" target="_top" xlink:title="3">
<text text-anchor="middle" x="30.02" y="-55.2" font-family="Helvetica,sans-Serif" font-size="10.00">3</text>
</a>
</g>
</g>
</g>
</svg>
