<?xml version="1.0" encoding="UTF-8" standalone="no"?>
<!DOCTYPE svg PUBLIC "-//W3C//DTD SVG 1.1//EN"
 "http://www.w3.org/Graphics/SVG/1.1/DTD/svg11.dtd">
<!-- Generated by graphviz version 2.44.0 ()
 -->
<!-- Title: ee/network/netman Pages: 1 -->
<svg width="205pt" height="375pt"
 viewBox="0.00 0.00 205.31 375.00" xmlns="http://www.w3.org/2000/svg" xmlns:xlink="http://www.w3.org/1999/xlink">
<g id="graph0" class="graph" transform="scale(1 1) rotate(0) translate(4 371)">
<title>ee/network/netman</title>
<polygon fill="white" stroke="transparent" points="-4,4 -4,-371 201.31,-371 201.31,4 -4,4"/>
<g id="clust1" class="cluster">
<title>clusterdir_b47d22a23da27aa98d6e01bcdbde3243</title>
<g id="a_clust1"><a xlink:href="dir_b47d22a23da27aa98d6e01bcdbde3243.html" target="_top" xlink:title="network">
<polygon fill="#ddddee" stroke="black" points="31.31,-272 31.31,-359 189.31,-359 189.31,-272 31.31,-272"/>
<text text-anchor="middle" x="110.31" y="-347" font-family="Helvetica,sans-Serif" font-size="10.00">network</text>
</a>
</g>
</g>
<g id="clust2" class="cluster">
<title>clusterdir_2103a4ed81746d00ca3b9488f9daf9c4</title>
<g id="a_clust2"><a xlink:href="dir_2103a4ed81746d00ca3b9488f9daf9c4.html" target="_top">
<polygon fill="#eeeeff" stroke="black" points="39.31,-280 39.31,-332 181.31,-332 181.31,-280 39.31,-280"/>
</a>
</g>
</g>
<!-- dir_2103a4ed81746d00ca3b9488f9daf9c4 -->
<g id="node1" class="node">
<title>dir_2103a4ed81746d00ca3b9488f9daf9c4</title>
<text text-anchor="middle" x="146.31" y="-303.5" font-family="Helvetica,sans-Serif" font-size="10.00">netman</text>
</g>
<!-- dir_702336a0435434f6b8cf6e517dc2db4d -->
<g id="node2" class="node">
<title>dir_702336a0435434f6b8cf6e517dc2db4d</title>
<g id="a_node2"><a xlink:href="dir_702336a0435434f6b8cf6e517dc2db4d.html" target="_top" xlink:title="src">
<polygon fill="white" stroke="red" points="101.31,-324 47.31,-324 47.31,-288 101.31,-288 101.31,-324"/>
<text text-anchor="middle" x="74.31" y="-303.5" font-family="Helvetica,sans-Serif" font-size="10.00">src</text>
</a>
</g>
</g>
<!-- dir_a0a8ac7efb6662b749c1285408048e6d -->
<g id="node3" class="node">
<title>dir_a0a8ac7efb6662b749c1285408048e6d</title>
<g id="a_node3"><a xlink:href="dir_a0a8ac7efb6662b749c1285408048e6d.html" target="_top" xlink:title="erl">
<polygon fill="white" stroke="red" points="74.31,-252 20.31,-252 20.31,-216 74.31,-216 74.31,-252"/>
<text text-anchor="middle" x="47.31" y="-231.5" font-family="Helvetica,sans-Serif" font-size="10.00">erl</text>
</a>
</g>
</g>
<!-- dir_702336a0435434f6b8cf6e517dc2db4d&#45;&gt;dir_a0a8ac7efb6662b749c1285408048e6d -->
<g id="edge9" class="edge">
<title>dir_702336a0435434f6b8cf6e517dc2db4d&#45;&gt;dir_a0a8ac7efb6662b749c1285408048e6d</title>
<path fill="none" stroke="black" d="M67.64,-287.7C64.6,-279.81 60.93,-270.3 57.55,-261.55"/>
<polygon fill="black" stroke="black" points="60.77,-260.17 53.91,-252.1 54.24,-262.69 60.77,-260.17"/>
<g id="a_edge9&#45;headlabel"><a xlink:href="dir_000155_000206.html" target="_top" xlink:title="1">
<text text-anchor="middle" x="64.72" y="-260.01" font-family="Helvetica,sans-Serif" font-size="10.00">1</text>
</a>
</g>
</g>
<!-- dir_bdd9a5d540de89e9fe90efdfc6973a4f -->
<g id="node4" class="node">
<title>dir_bdd9a5d540de89e9fe90efdfc6973a4f</title>
<g id="a_node4"><a xlink:href="dir_bdd9a5d540de89e9fe90efdfc6973a4f.html" target="_top" xlink:title="common">
<polygon fill="white" stroke="red" points="93.31,-180 39.31,-180 39.31,-144 93.31,-144 93.31,-180"/>
<text text-anchor="middle" x="66.31" y="-159.5" font-family="Helvetica,sans-Serif" font-size="10.00">common</text>
</a>
</g>
</g>
<!-- dir_702336a0435434f6b8cf6e517dc2db4d&#45;&gt;dir_bdd9a5d540de89e9fe90efdfc6973a4f -->
<g id="edge10" class="edge">
<title>dir_702336a0435434f6b8cf6e517dc2db4d&#45;&gt;dir_bdd9a5d540de89e9fe90efdfc6973a4f</title>
<path fill="none" stroke="black" d="M78.63,-287.87C82.56,-269.89 87.2,-240.86 83.31,-216 81.95,-207.31 79.41,-198.1 76.7,-189.84"/>
<polygon fill="black" stroke="black" points="79.98,-188.62 73.38,-180.33 73.37,-190.93 79.98,-188.62"/>
<g id="a_edge10&#45;headlabel"><a xlink:href="dir_000155_000000.html" target="_top" xlink:title="9">
<text text-anchor="middle" x="83.85" y="-188.58" font-family="Helvetica,sans-Serif" font-size="10.00">9</text>
</a>
</g>
</g>
<!-- dir_694ec83a64f58cbdefbefce65cd1011c -->
<g id="node5" class="node">
<title>dir_694ec83a64f58cbdefbefce65cd1011c</title>
<g id="a_node5"><a xlink:href="dir_694ec83a64f58cbdefbefce65cd1011c.html" target="_top" xlink:title="kernel">
<polygon fill="white" stroke="red" points="149.31,-108 95.31,-108 95.31,-72 149.31,-72 149.31,-108"/>
<text text-anchor="middle" x="122.31" y="-87.5" font-family="Helvetica,sans-Serif" font-size="10.00">kernel</text>
</a>
</g>
</g>
<!-- dir_702336a0435434f6b8cf6e517dc2db4d&#45;&gt;dir_694ec83a64f58cbdefbefce65cd1011c -->
<g id="edge8" class="edge">
<title>dir_702336a0435434f6b8cf6e517dc2db4d&#45;&gt;dir_694ec83a64f58cbdefbefce65cd1011c</title>
<path fill="none" stroke="black" d="M82.49,-287.98C87.33,-277.67 93.44,-264.2 98.31,-252 110.87,-220.54 117.68,-213.4 123.31,-180 125.97,-164.22 123.46,-160 123.31,-144 123.23,-135.68 123.09,-126.63 122.93,-118.4"/>
<polygon fill="black" stroke="black" points="126.42,-118.11 122.72,-108.18 119.42,-118.25 126.42,-118.11"/>
<g id="a_edge8&#45;headlabel"><a xlink:href="dir_000155_000143.html" target="_top" xlink:title="3">
<text text-anchor="middle" x="129.33" y="-119.15" font-family="Helvetica,sans-Serif" font-size="10.00">3</text>
</a>
</g>
</g>
<!-- dir_0981ace215aa2029f526b70c145b9fbe -->
<g id="node6" class="node">
<title>dir_0981ace215aa2029f526b70c145b9fbe</title>
<g id="a_node6"><a xlink:href="dir_0981ace215aa2029f526b70c145b9fbe.html" target="_top" xlink:title="iop">
<polygon fill="white" stroke="red" points="85.31,-36 31.31,-36 31.31,0 85.31,0 85.31,-36"/>
<text text-anchor="middle" x="58.31" y="-15.5" font-family="Helvetica,sans-Serif" font-size="10.00">iop</text>
</a>
</g>
</g>
<!-- dir_702336a0435434f6b8cf6e517dc2db4d&#45;&gt;dir_0981ace215aa2029f526b70c145b9fbe -->
<g id="edge7" class="edge">
<title>dir_702336a0435434f6b8cf6e517dc2db4d&#45;&gt;dir_0981ace215aa2029f526b70c145b9fbe</title>
<path fill="none" stroke="black" d="M47.3,-290.07C33.81,-281 18.79,-268.07 11.31,-252 -4.11,-218.86 -6.89,-184.04 29.31,-72 32.26,-62.86 36.81,-53.48 41.44,-45.2"/>
<polygon fill="black" stroke="black" points="44.57,-46.79 46.62,-36.39 38.53,-43.24 44.57,-46.79"/>
<g id="a_edge7&#45;headlabel"><a xlink:href="dir_000155_000011.html" target="_top" xlink:title="1">
<text text-anchor="middle" x="45.2" y="-48.82" font-family="Helvetica,sans-Serif" font-size="10.00">1</text>
</a>
</g>
</g>
<!-- dir_a0a8ac7efb6662b749c1285408048e6d&#45;&gt;dir_bdd9a5d540de89e9fe90efdfc6973a4f -->
<g id="edge1" class="edge">
<title>dir_a0a8ac7efb6662b749c1285408048e6d&#45;&gt;dir_bdd9a5d540de89e9fe90efdfc6973a4f</title>
<path fill="none" stroke="black" d="M52.01,-215.7C54.12,-207.9 56.67,-198.51 59.03,-189.83"/>
<polygon fill="black" stroke="black" points="62.43,-190.67 61.67,-180.1 55.67,-188.84 62.43,-190.67"/>
<g id="a_edge1&#45;headlabel"><a xlink:href="dir_000206_000000.html" target="_top" xlink:title="1">
<text text-anchor="middle" x="64.23" y="-192.38" font-family="Helvetica,sans-Serif" font-size="10.00">1</text>
</a>
</g>
</g>
<!-- dir_a0a8ac7efb6662b749c1285408048e6d&#45;&gt;dir_0981ace215aa2029f526b70c145b9fbe -->
<g id="edge2" class="edge">
<title>dir_a0a8ac7efb6662b749c1285408048e6d&#45;&gt;dir_0981ace215aa2029f526b70c145b9fbe</title>
<path fill="none" stroke="black" d="M40.25,-215.67C36.47,-205.47 32.22,-192.22 30.31,-180 22.91,-132.7 37.43,-77.81 48.19,-45.88"/>
<polygon fill="black" stroke="black" points="51.52,-46.95 51.52,-36.36 44.91,-44.64 51.52,-46.95"/>
<g id="a_edge2&#45;headlabel"><a xlink:href="dir_000206_000011.html" target="_top" xlink:title="2">
<text text-anchor="middle" x="53.02" y="-48.78" font-family="Helvetica,sans-Serif" font-size="10.00">2</text>
</a>
</g>
</g>
<!-- dir_bdd9a5d540de89e9fe90efdfc6973a4f&#45;&gt;dir_694ec83a64f58cbdefbefce65cd1011c -->
<g id="edge12" class="edge">
<title>dir_bdd9a5d540de89e9fe90efdfc6973a4f&#45;&gt;dir_694ec83a64f58cbdefbefce65cd1011c</title>
<path fill="none" stroke="black" d="M74.24,-143.7C80.09,-135.3 88.08,-125.07 95.93,-115.86"/>
<polygon fill="black" stroke="black" points="98.77,-117.93 102.73,-108.1 93.51,-113.32 98.77,-117.93"/>
<g id="a_edge12&#45;headlabel"><a xlink:href="dir_000000_000143.html" target="_top" xlink:title="1">
<text text-anchor="middle" x="98.54" y="-120.01" font-family="Helvetica,sans-Serif" font-size="10.00">1</text>
</a>
</g>
</g>
<!-- dir_bdd9a5d540de89e9fe90efdfc6973a4f&#45;&gt;dir_0981ace215aa2029f526b70c145b9fbe -->
<g id="edge11" class="edge">
<title>dir_bdd9a5d540de89e9fe90efdfc6973a4f&#45;&gt;dir_0981ace215aa2029f526b70c145b9fbe</title>
<path fill="none" stroke="black" d="M60.76,-143.87C56.84,-119.67 54.04,-75.21 54.4,-46.39"/>
<polygon fill="black" stroke="black" points="57.9,-46.29 54.69,-36.19 50.9,-46.08 57.9,-46.29"/>
<g id="a_edge11&#45;headlabel"><a xlink:href="dir_000000_000011.html" target="_top" xlink:title="20">
<text text-anchor="middle" x="60.64" y="-47.46" font-family="Helvetica,sans-Serif" font-size="10.00">20</text>
</a>
</g>
</g>
<!-- dir_694ec83a64f58cbdefbefce65cd1011c&#45;&gt;dir_a0a8ac7efb6662b749c1285408048e6d -->
<g id="edge6" class="edge">
<title>dir_694ec83a64f58cbdefbefce65cd1011c&#45;&gt;dir_a0a8ac7efb6662b749c1285408048e6d</title>
<path fill="none" stroke="black" d="M121.38,-108.11C119.73,-126.84 115.12,-157.23 102.31,-180 96.16,-190.92 87.06,-201.01 78.02,-209.38"/>
<polygon fill="black" stroke="black" points="75.7,-206.76 70.5,-215.99 80.32,-212.02 75.7,-206.76"/>
<g id="a_edge6&#45;headlabel"><a xlink:href="dir_000143_000206.html" target="_top" xlink:title="1">
<text text-anchor="middle" x="76.52" y="-199.75" font-family="Helvetica,sans-Serif" font-size="10.00">1</text>
</a>
</g>
</g>
<!-- dir_694ec83a64f58cbdefbefce65cd1011c&#45;&gt;dir_bdd9a5d540de89e9fe90efdfc6973a4f -->
<g id="edge4" class="edge">
<title>dir_694ec83a64f58cbdefbefce65cd1011c&#45;&gt;dir_bdd9a5d540de89e9fe90efdfc6973a4f</title>
<path fill="none" stroke="black" d="M114.52,-108.1C108.71,-116.47 100.73,-126.69 92.88,-135.92"/>
<polygon fill="black" stroke="black" points="90.02,-133.87 86.07,-143.7 95.29,-138.48 90.02,-133.87"/>
<g id="a_edge4&#45;headlabel"><a xlink:href="dir_000143_000000.html" target="_top" xlink:title="24">
<text text-anchor="middle" x="90.26" y="-126.79" font-family="Helvetica,sans-Serif" font-size="10.00">24</text>
</a>
</g>
</g>
<!-- dir_694ec83a64f58cbdefbefce65cd1011c&#45;&gt;dir_0981ace215aa2029f526b70c145b9fbe -->
<g id="edge5" class="edge">
<title>dir_694ec83a64f58cbdefbefce65cd1011c&#45;&gt;dir_0981ace215aa2029f526b70c145b9fbe</title>
<path fill="none" stroke="black" d="M106.49,-71.7C98.74,-63.22 89.27,-52.86 80.79,-43.58"/>
<polygon fill="black" stroke="black" points="83.28,-41.12 73.95,-36.1 78.11,-45.85 83.28,-41.12"/>
<g id="a_edge5&#45;headlabel"><a xlink:href="dir_000143_000011.html" target="_top" xlink:title="5">
<text text-anchor="middle" x="87.8" y="-39.36" font-family="Helvetica,sans-Serif" font-size="10.00">5</text>
</a>
</g>
</g>
<!-- dir_0981ace215aa2029f526b70c145b9fbe&#45;&gt;dir_bdd9a5d540de89e9fe90efdfc6973a4f -->
<g id="edge3" class="edge">
<title>dir_0981ace215aa2029f526b70c145b9fbe&#45;&gt;dir_bdd9a5d540de89e9fe90efdfc6973a4f</title>
<path fill="none" stroke="black" d="M63.87,-36.19C67.79,-60.42 70.58,-104.89 70.23,-133.68"/>
<polygon fill="black" stroke="black" points="66.72,-133.77 69.93,-143.87 73.72,-133.98 66.72,-133.77"/>
<g id="a_edge3&#45;headlabel"><a xlink:href="dir_000011_000000.html" target="_top" xlink:title="158">
<text text-anchor="middle" x="63.99" y="-127.6" font-family="Helvetica,sans-Serif" font-size="10.00">158</text>
</a>
</g>
</g>
</g>
</svg>
