<?xml version="1.0" encoding="UTF-8" standalone="no"?>
<!DOCTYPE svg PUBLIC "-//W3C//DTD SVG 1.1//EN"
 "http://www.w3.org/Graphics/SVG/1.1/DTD/svg11.dtd">
<!-- Generated by graphviz version 2.43.0 (0)
 -->
<!-- Title: iop/arcade/s147mdev Pages: 1 -->
<svg width="196pt" height="375pt"
 viewBox="0.00 0.00 196.00 375.00" xmlns="http://www.w3.org/2000/svg" xmlns:xlink="http://www.w3.org/1999/xlink">
<g id="graph0" class="graph" transform="scale(1 1) rotate(0) translate(4 371)">
<title>iop/arcade/s147mdev</title>
<polygon fill="white" stroke="transparent" points="-4,4 -4,-371 192,-371 192,4 -4,4"/>
<g id="clust1" class="cluster">
<title>clusterdir_83706370b12deb47497ed91304cced4b</title>
<g id="a_clust1"><a xlink:href="dir_83706370b12deb47497ed91304cced4b.html" target="_top" xlink:title="arcade">
<polygon fill="#ddddee" stroke="black" points="8,-200 8,-359 180,-359 180,-200 8,-200"/>
<text text-anchor="middle" x="94" y="-347" font-family="Helvetica,sans-Serif" font-size="10.00">arcade</text>
</a>
</g>
</g>
<g id="clust2" class="cluster">
<title>clusterdir_58e31a5d2ae5137ed065a2438731004f</title>
<g id="a_clust2"><a xlink:href="dir_58e31a5d2ae5137ed065a2438731004f.html" target="_top">
<polygon fill="#eeeeff" stroke="black" points="16,-208 16,-332 172,-332 172,-208 16,-208"/>
</a>
</g>
</g>
<!-- dir_58e31a5d2ae5137ed065a2438731004f -->
<g id="node1" class="node">
<title>dir_58e31a5d2ae5137ed065a2438731004f</title>
<text text-anchor="middle" x="130" y="-303.5" font-family="Helvetica,sans-Serif" font-size="10.00">s147mdev</text>
</g>
<!-- dir_d8a2072387ffd8123a4de1c649214686 -->
<g id="node2" class="node">
<title>dir_d8a2072387ffd8123a4de1c649214686</title>
<g id="a_node2"><a xlink:href="dir_d8a2072387ffd8123a4de1c649214686.html" target="_top" xlink:title="include">
<polygon fill="white" stroke="black" points="78,-252 24,-252 24,-216 78,-216 78,-252"/>
<text text-anchor="middle" x="51" y="-231.5" font-family="Helvetica,sans-Serif" font-size="10.00">include</text>
</a>
</g>
</g>
<!-- dir_40ac35421bc63b72c26b6c69b1517fd6 -->
<g id="node5" class="node">
<title>dir_40ac35421bc63b72c26b6c69b1517fd6</title>
<g id="a_node5"><a xlink:href="dir_40ac35421bc63b72c26b6c69b1517fd6.html" target="_top" xlink:title="system">
<polygon fill="white" stroke="red" points="98,-180 44,-180 44,-144 98,-144 98,-180"/>
<text text-anchor="middle" x="71" y="-159.5" font-family="Helvetica,sans-Serif" font-size="10.00">system</text>
</a>
</g>
</g>
<!-- dir_d8a2072387ffd8123a4de1c649214686&#45;&gt;dir_40ac35421bc63b72c26b6c69b1517fd6 -->
<g id="edge2" class="edge">
<title>dir_d8a2072387ffd8123a4de1c649214686&#45;&gt;dir_40ac35421bc63b72c26b6c69b1517fd6</title>
<path fill="none" stroke="black" d="M55.94,-215.7C58.17,-207.9 60.85,-198.51 63.33,-189.83"/>
<polygon fill="black" stroke="black" points="66.73,-190.68 66.11,-180.1 60,-188.76 66.73,-190.68"/>
<g id="a_edge2&#45;headlabel"><a xlink:href="dir_000481_000215.html" target="_top" xlink:title="1">
<text text-anchor="middle" x="68.47" y="-192.42" font-family="Helvetica,sans-Serif" font-size="10.00">1</text>
</a>
</g>
</g>
<!-- dir_44a3b09642b338b60501cc0d22aa7c4d -->
<g id="node3" class="node">
<title>dir_44a3b09642b338b60501cc0d22aa7c4d</title>
<g id="a_node3"><a xlink:href="dir_44a3b09642b338b60501cc0d22aa7c4d.html" target="_top" xlink:title="src">
<polygon fill="white" stroke="black" points="78,-324 24,-324 24,-288 78,-288 78,-324"/>
<text text-anchor="middle" x="51" y="-303.5" font-family="Helvetica,sans-Serif" font-size="10.00">src</text>
</a>
</g>
</g>
<!-- dir_44a3b09642b338b60501cc0d22aa7c4d&#45;&gt;dir_d8a2072387ffd8123a4de1c649214686 -->
<g id="edge6" class="edge">
<title>dir_44a3b09642b338b60501cc0d22aa7c4d&#45;&gt;dir_d8a2072387ffd8123a4de1c649214686</title>
<path fill="none" stroke="black" d="M51,-287.7C51,-279.98 51,-270.71 51,-262.11"/>
<polygon fill="black" stroke="black" points="54.5,-262.1 51,-252.1 47.5,-262.1 54.5,-262.1"/>
<g id="a_edge6&#45;headlabel"><a xlink:href="dir_000056_000481.html" target="_top" xlink:title="1">
<text text-anchor="middle" x="57.34" y="-263.2" font-family="Helvetica,sans-Serif" font-size="10.00">1</text>
</a>
</g>
</g>
<!-- dir_9be0baa3d4a3e9f480a9ee70594037fa -->
<g id="node4" class="node">
<title>dir_9be0baa3d4a3e9f480a9ee70594037fa</title>
<g id="a_node4"><a xlink:href="dir_9be0baa3d4a3e9f480a9ee70594037fa.html" target="_top" xlink:title="kernel">
<polygon fill="white" stroke="red" points="162,-108 108,-108 108,-72 162,-72 162,-108"/>
<text text-anchor="middle" x="135" y="-87.5" font-family="Helvetica,sans-Serif" font-size="10.00">kernel</text>
</a>
</g>
</g>
<!-- dir_44a3b09642b338b60501cc0d22aa7c4d&#45;&gt;dir_9be0baa3d4a3e9f480a9ee70594037fa -->
<g id="edge5" class="edge">
<title>dir_44a3b09642b338b60501cc0d22aa7c4d&#45;&gt;dir_9be0baa3d4a3e9f480a9ee70594037fa</title>
<path fill="none" stroke="black" d="M73.05,-287.83C83.7,-278.39 95.71,-265.79 103,-252 125.72,-208.99 132.37,-151.75 134.28,-118.38"/>
<polygon fill="black" stroke="black" points="137.79,-118.19 134.76,-108.04 130.8,-117.87 137.79,-118.19"/>
<g id="a_edge5&#45;headlabel"><a xlink:href="dir_000056_000525.html" target="_top" xlink:title="1">
<text text-anchor="middle" x="140.46" y="-119.41" font-family="Helvetica,sans-Serif" font-size="10.00">1</text>
</a>
</g>
</g>
<!-- dir_44a3b09642b338b60501cc0d22aa7c4d&#45;&gt;dir_40ac35421bc63b72c26b6c69b1517fd6 -->
<g id="edge7" class="edge">
<title>dir_44a3b09642b338b60501cc0d22aa7c4d&#45;&gt;dir_40ac35421bc63b72c26b6c69b1517fd6</title>
<path fill="none" stroke="black" d="M66.61,-287.77C74.37,-278.03 82.95,-265.18 87,-252 93.79,-229.91 91.68,-222.63 87,-200 86.28,-196.54 85.23,-193 83.99,-189.55"/>
<polygon fill="black" stroke="black" points="87.2,-188.14 80.17,-180.21 80.72,-190.79 87.2,-188.14"/>
<g id="a_edge7&#45;headlabel"><a xlink:href="dir_000056_000215.html" target="_top" xlink:title="4">
<text text-anchor="middle" x="91.18" y="-187.9" font-family="Helvetica,sans-Serif" font-size="10.00">4</text>
</a>
</g>
</g>
<!-- dir_bdd9a5d540de89e9fe90efdfc6973a4f -->
<g id="node6" class="node">
<title>dir_bdd9a5d540de89e9fe90efdfc6973a4f</title>
<g id="a_node6"><a xlink:href="dir_bdd9a5d540de89e9fe90efdfc6973a4f.html" target="_top" xlink:title="common">
<polygon fill="white" stroke="red" points="164.5,-36 105.5,-36 105.5,0 164.5,0 164.5,-36"/>
<text text-anchor="middle" x="135" y="-15.5" font-family="Helvetica,sans-Serif" font-size="10.00">common</text>
</a>
</g>
</g>
<!-- dir_44a3b09642b338b60501cc0d22aa7c4d&#45;&gt;dir_bdd9a5d540de89e9fe90efdfc6973a4f -->
<g id="edge8" class="edge">
<title>dir_44a3b09642b338b60501cc0d22aa7c4d&#45;&gt;dir_bdd9a5d540de89e9fe90efdfc6973a4f</title>
<path fill="none" stroke="black" d="M78.02,-291.72C94.06,-282.57 113.61,-269.02 126,-252 165.46,-197.79 160.88,-174.28 171,-108 173.41,-92.18 175.7,-87.29 171,-72 167.99,-62.22 162.49,-52.62 156.68,-44.33"/>
<polygon fill="black" stroke="black" points="159.41,-42.13 150.61,-36.23 153.81,-46.33 159.41,-42.13"/>
<g id="a_edge8&#45;headlabel"><a xlink:href="dir_000056_000000.html" target="_top" xlink:title="1">
<text text-anchor="middle" x="163.83" y="-40.8" font-family="Helvetica,sans-Serif" font-size="10.00">1</text>
</a>
</g>
</g>
<!-- dir_9be0baa3d4a3e9f480a9ee70594037fa&#45;&gt;dir_bdd9a5d540de89e9fe90efdfc6973a4f -->
<g id="edge1" class="edge">
<title>dir_9be0baa3d4a3e9f480a9ee70594037fa&#45;&gt;dir_bdd9a5d540de89e9fe90efdfc6973a4f</title>
<path fill="none" stroke="black" d="M129.08,-71.7C128.29,-63.98 128.06,-54.71 128.4,-46.11"/>
<polygon fill="black" stroke="black" points="131.9,-46.32 129.1,-36.1 124.92,-45.84 131.9,-46.32"/>
<g id="a_edge1&#45;headlabel"><a xlink:href="dir_000525_000000.html" target="_top" xlink:title="2">
<text text-anchor="middle" x="134.48" y="-47.61" font-family="Helvetica,sans-Serif" font-size="10.00">2</text>
</a>
</g>
</g>
<!-- dir_40ac35421bc63b72c26b6c69b1517fd6&#45;&gt;dir_9be0baa3d4a3e9f480a9ee70594037fa -->
<g id="edge3" class="edge">
<title>dir_40ac35421bc63b72c26b6c69b1517fd6&#45;&gt;dir_9be0baa3d4a3e9f480a9ee70594037fa</title>
<path fill="none" stroke="black" d="M86.82,-143.7C94.57,-135.22 104.04,-124.86 112.52,-115.58"/>
<polygon fill="black" stroke="black" points="115.2,-117.85 119.36,-108.1 110.03,-113.12 115.2,-117.85"/>
<g id="a_edge3&#45;headlabel"><a xlink:href="dir_000215_000525.html" target="_top" xlink:title="105">
<text text-anchor="middle" x="114.87" y="-119.92" font-family="Helvetica,sans-Serif" font-size="10.00">105</text>
</a>
</g>
</g>
<!-- dir_40ac35421bc63b72c26b6c69b1517fd6&#45;&gt;dir_bdd9a5d540de89e9fe90efdfc6973a4f -->
<g id="edge4" class="edge">
<title>dir_40ac35421bc63b72c26b6c69b1517fd6&#45;&gt;dir_bdd9a5d540de89e9fe90efdfc6973a4f</title>
<path fill="none" stroke="black" d="M68.17,-143.71C70.29,-125.35 78.5,-95.77 90,-72 94.58,-62.54 100.68,-52.84 107.01,-44.37"/>
<polygon fill="black" stroke="black" points="109.9,-46.37 113.37,-36.36 104.41,-42.02 109.9,-46.37"/>
<g id="a_edge4&#45;headlabel"><a xlink:href="dir_000215_000000.html" target="_top" xlink:title="32">
<text text-anchor="middle" x="109.88" y="-48.45" font-family="Helvetica,sans-Serif" font-size="10.00">32</text>
</a>
</g>
</g>
<!-- dir_bdd9a5d540de89e9fe90efdfc6973a4f&#45;&gt;dir_9be0baa3d4a3e9f480a9ee70594037fa -->
<g id="edge9" class="edge">
<title>dir_bdd9a5d540de89e9fe90efdfc6973a4f&#45;&gt;dir_9be0baa3d4a3e9f480a9ee70594037fa</title>
<path fill="none" stroke="black" d="M140.9,-36.1C141.7,-43.79 141.94,-53.05 141.6,-61.67"/>
<polygon fill="black" stroke="black" points="138.11,-61.48 140.92,-71.7 145.09,-61.96 138.11,-61.48"/>
<g id="a_edge9&#45;headlabel"><a xlink:href="dir_000000_000525.html" target="_top" xlink:title="3">
<text text-anchor="middle" x="135.52" y="-55.2" font-family="Helvetica,sans-Serif" font-size="10.00">3</text>
</a>
</g>
</g>
<!-- dir_bdd9a5d540de89e9fe90efdfc6973a4f&#45;&gt;dir_40ac35421bc63b72c26b6c69b1517fd6 -->
<g id="edge10" class="edge">
<title>dir_bdd9a5d540de89e9fe90efdfc6973a4f&#45;&gt;dir_40ac35421bc63b72c26b6c69b1517fd6</title>
<path fill="none" stroke="black" d="M129.23,-36.36C122.92,-46.35 114.11,-59.38 108,-72 98.34,-91.96 91,-116.02 84.89,-134.09"/>
<polygon fill="black" stroke="black" points="81.53,-133.11 81.52,-143.71 88.14,-135.43 81.53,-133.11"/>
<g id="a_edge10&#45;headlabel"><a xlink:href="dir_000000_000215.html" target="_top" xlink:title="16">
<text text-anchor="middle" x="80.04" y="-126.28" font-family="Helvetica,sans-Serif" font-size="10.00">16</text>
</a>
</g>
</g>
</g>
</svg>
