<?xml version="1.0" encoding="UTF-8" standalone="no"?>
<!DOCTYPE svg PUBLIC "-//W3C//DTD SVG 1.1//EN"
 "http://www.w3.org/Graphics/SVG/1.1/DTD/svg11.dtd">
<!-- Generated by graphviz version 2.43.0 (0)
 -->
<!-- Title: iop/system/timrman Pages: 1 -->
<svg width="230pt" height="447pt"
 viewBox="0.00 0.00 230.00 447.00" xmlns="http://www.w3.org/2000/svg" xmlns:xlink="http://www.w3.org/1999/xlink">
<g id="graph0" class="graph" transform="scale(1 1) rotate(0) translate(4 443)">
<title>iop/system/timrman</title>
<polygon fill="white" stroke="transparent" points="-4,4 -4,-443 226,-443 226,4 -4,4"/>
<g id="clust1" class="cluster">
<title>clusterdir_40ac35421bc63b72c26b6c69b1517fd6</title>
<g id="a_clust1"><a xlink:href="dir_40ac35421bc63b72c26b6c69b1517fd6.html" target="_top" xlink:title="system">
<polygon fill="#ddddee" stroke="black" points="50,-272 50,-431 214,-431 214,-272 50,-272"/>
<text text-anchor="middle" x="132" y="-419" font-family="Helvetica,sans-Serif" font-size="10.00">system</text>
</a>
</g>
</g>
<g id="clust2" class="cluster">
<title>clusterdir_031757951e60c16ad930ba76071ecfef</title>
<g id="a_clust2"><a xlink:href="dir_031757951e60c16ad930ba76071ecfef.html" target="_top">
<polygon fill="#eeeeff" stroke="black" points="58,-280 58,-404 206,-404 206,-280 58,-280"/>
</a>
</g>
</g>
<!-- dir_031757951e60c16ad930ba76071ecfef -->
<g id="node1" class="node">
<title>dir_031757951e60c16ad930ba76071ecfef</title>
<text text-anchor="middle" x="168" y="-375.5" font-family="Helvetica,sans-Serif" font-size="10.00">timrman</text>
</g>
<!-- dir_dce4a208cb4992793dc296e9f1f99230 -->
<g id="node2" class="node">
<title>dir_dce4a208cb4992793dc296e9f1f99230</title>
<g id="a_node2"><a xlink:href="dir_dce4a208cb4992793dc296e9f1f99230.html" target="_top" xlink:title="include">
<polygon fill="white" stroke="black" points="120,-324 66,-324 66,-288 120,-288 120,-324"/>
<text text-anchor="middle" x="93" y="-303.5" font-family="Helvetica,sans-Serif" font-size="10.00">include</text>
</a>
</g>
</g>
<!-- dir_9be0baa3d4a3e9f480a9ee70594037fa -->
<g id="node4" class="node">
<title>dir_9be0baa3d4a3e9f480a9ee70594037fa</title>
<g id="a_node4"><a xlink:href="dir_9be0baa3d4a3e9f480a9ee70594037fa.html" target="_top" xlink:title="kernel">
<polygon fill="white" stroke="red" points="111,-252 57,-252 57,-216 111,-216 111,-252"/>
<text text-anchor="middle" x="84" y="-231.5" font-family="Helvetica,sans-Serif" font-size="10.00">kernel</text>
</a>
</g>
</g>
<!-- dir_dce4a208cb4992793dc296e9f1f99230&#45;&gt;dir_9be0baa3d4a3e9f480a9ee70594037fa -->
<g id="edge8" class="edge">
<title>dir_dce4a208cb4992793dc296e9f1f99230&#45;&gt;dir_9be0baa3d4a3e9f480a9ee70594037fa</title>
<path fill="none" stroke="black" d="M90.78,-287.7C89.78,-279.98 88.59,-270.71 87.49,-262.11"/>
<polygon fill="black" stroke="black" points="90.95,-261.58 86.2,-252.1 84,-262.47 90.95,-261.58"/>
<g id="a_edge8&#45;headlabel"><a xlink:href="dir_000592_000525.html" target="_top" xlink:title="1">
<text text-anchor="middle" x="94.22" y="-262.28" font-family="Helvetica,sans-Serif" font-size="10.00">1</text>
</a>
</g>
</g>
<!-- dir_3033a7a443f64c6f3e07e254502c7c60 -->
<g id="node3" class="node">
<title>dir_3033a7a443f64c6f3e07e254502c7c60</title>
<g id="a_node3"><a xlink:href="dir_3033a7a443f64c6f3e07e254502c7c60.html" target="_top" xlink:title="src">
<polygon fill="white" stroke="black" points="120,-396 66,-396 66,-360 120,-360 120,-396"/>
<text text-anchor="middle" x="93" y="-375.5" font-family="Helvetica,sans-Serif" font-size="10.00">src</text>
</a>
</g>
</g>
<!-- dir_3033a7a443f64c6f3e07e254502c7c60&#45;&gt;dir_dce4a208cb4992793dc296e9f1f99230 -->
<g id="edge5" class="edge">
<title>dir_3033a7a443f64c6f3e07e254502c7c60&#45;&gt;dir_dce4a208cb4992793dc296e9f1f99230</title>
<path fill="none" stroke="black" d="M93,-359.7C93,-351.98 93,-342.71 93,-334.11"/>
<polygon fill="black" stroke="black" points="96.5,-334.1 93,-324.1 89.5,-334.1 96.5,-334.1"/>
<g id="a_edge5&#45;headlabel"><a xlink:href="dir_000279_000592.html" target="_top" xlink:title="2">
<text text-anchor="middle" x="99.34" y="-335.2" font-family="Helvetica,sans-Serif" font-size="10.00">2</text>
</a>
</g>
</g>
<!-- dir_3033a7a443f64c6f3e07e254502c7c60&#45;&gt;dir_9be0baa3d4a3e9f480a9ee70594037fa -->
<g id="edge3" class="edge">
<title>dir_3033a7a443f64c6f3e07e254502c7c60&#45;&gt;dir_9be0baa3d4a3e9f480a9ee70594037fa</title>
<path fill="none" stroke="black" d="M77.39,-359.77C69.63,-350.03 61.05,-337.18 57,-324 50.21,-301.91 49.84,-293.97 57,-272 58.27,-268.11 60.11,-264.3 62.26,-260.68"/>
<polygon fill="black" stroke="black" points="65.32,-262.4 68.03,-252.16 59.52,-258.47 65.32,-262.4"/>
<g id="a_edge3&#45;headlabel"><a xlink:href="dir_000279_000525.html" target="_top" xlink:title="2">
<text text-anchor="middle" x="65.65" y="-264.47" font-family="Helvetica,sans-Serif" font-size="10.00">2</text>
</a>
</g>
</g>
<!-- dir_1d64e5e9f20206636d72b5bbe3d2b274 -->
<g id="node5" class="node">
<title>dir_1d64e5e9f20206636d72b5bbe3d2b274</title>
<g id="a_node5"><a xlink:href="dir_1d64e5e9f20206636d72b5bbe3d2b274.html" target="_top" xlink:title="loadcore">
<polygon fill="white" stroke="red" points="95.5,-36 36.5,-36 36.5,0 95.5,0 95.5,-36"/>
<text text-anchor="middle" x="66" y="-15.5" font-family="Helvetica,sans-Serif" font-size="10.00">loadcore</text>
</a>
</g>
</g>
<!-- dir_3033a7a443f64c6f3e07e254502c7c60&#45;&gt;dir_1d64e5e9f20206636d72b5bbe3d2b274 -->
<g id="edge4" class="edge">
<title>dir_3033a7a443f64c6f3e07e254502c7c60&#45;&gt;dir_1d64e5e9f20206636d72b5bbe3d2b274</title>
<path fill="none" stroke="black" d="M71.9,-359.68C44.46,-335.08 0,-287.16 0,-235 0,-235 0,-235 0,-161 0,-116.84 26.57,-71.56 45.99,-44.35"/>
<polygon fill="black" stroke="black" points="48.9,-46.31 52,-36.18 43.26,-42.16 48.9,-46.31"/>
<g id="a_edge4&#45;headlabel"><a xlink:href="dir_000279_000240.html" target="_top" xlink:title="1">
<text text-anchor="middle" x="49.05" y="-48.38" font-family="Helvetica,sans-Serif" font-size="10.00">1</text>
</a>
</g>
</g>
<!-- dir_7422a0894415a12ccd1d562a8ad09f2d -->
<g id="node6" class="node">
<title>dir_7422a0894415a12ccd1d562a8ad09f2d</title>
<g id="a_node6"><a xlink:href="dir_7422a0894415a12ccd1d562a8ad09f2d.html" target="_top" xlink:title="intrman">
<polygon fill="white" stroke="red" points="121.5,-108 66.5,-108 66.5,-72 121.5,-72 121.5,-108"/>
<text text-anchor="middle" x="94" y="-87.5" font-family="Helvetica,sans-Serif" font-size="10.00">intrman</text>
</a>
</g>
</g>
<!-- dir_3033a7a443f64c6f3e07e254502c7c60&#45;&gt;dir_7422a0894415a12ccd1d562a8ad09f2d -->
<g id="edge6" class="edge">
<title>dir_3033a7a443f64c6f3e07e254502c7c60&#45;&gt;dir_7422a0894415a12ccd1d562a8ad09f2d</title>
<path fill="none" stroke="black" d="M116.29,-359.82C127.3,-350.45 139.63,-337.93 147,-324 177.42,-266.52 167.2,-244.78 173,-180 174.43,-164.06 180.53,-158.12 173,-144 163.97,-127.07 146.86,-114.59 130.87,-106.01"/>
<polygon fill="black" stroke="black" points="132.16,-102.74 121.65,-101.4 129.03,-109 132.16,-102.74"/>
<g id="a_edge6&#45;headlabel"><a xlink:href="dir_000279_000232.html" target="_top" xlink:title="1">
<text text-anchor="middle" x="136.65" y="-99.31" font-family="Helvetica,sans-Serif" font-size="10.00">1</text>
</a>
</g>
</g>
<!-- dir_bdd9a5d540de89e9fe90efdfc6973a4f -->
<g id="node7" class="node">
<title>dir_bdd9a5d540de89e9fe90efdfc6973a4f</title>
<g id="a_node7"><a xlink:href="dir_bdd9a5d540de89e9fe90efdfc6973a4f.html" target="_top" xlink:title="common">
<polygon fill="white" stroke="red" points="163.5,-180 104.5,-180 104.5,-144 163.5,-144 163.5,-180"/>
<text text-anchor="middle" x="134" y="-159.5" font-family="Helvetica,sans-Serif" font-size="10.00">common</text>
</a>
</g>
</g>
<!-- dir_3033a7a443f64c6f3e07e254502c7c60&#45;&gt;dir_bdd9a5d540de89e9fe90efdfc6973a4f -->
<g id="edge7" class="edge">
<title>dir_3033a7a443f64c6f3e07e254502c7c60&#45;&gt;dir_bdd9a5d540de89e9fe90efdfc6973a4f</title>
<path fill="none" stroke="black" d="M108.45,-359.72C116.16,-349.96 124.74,-337.12 129,-324 143.58,-279.07 141.1,-223.34 137.72,-190.62"/>
<polygon fill="black" stroke="black" points="141.17,-190 136.56,-180.46 134.22,-190.79 141.17,-190"/>
<g id="a_edge7&#45;headlabel"><a xlink:href="dir_000279_000000.html" target="_top" xlink:title="2">
<text text-anchor="middle" x="144.4" y="-190.75" font-family="Helvetica,sans-Serif" font-size="10.00">2</text>
</a>
</g>
</g>
<!-- dir_9be0baa3d4a3e9f480a9ee70594037fa&#45;&gt;dir_bdd9a5d540de89e9fe90efdfc6973a4f -->
<g id="edge1" class="edge">
<title>dir_9be0baa3d4a3e9f480a9ee70594037fa&#45;&gt;dir_bdd9a5d540de89e9fe90efdfc6973a4f</title>
<path fill="none" stroke="black" d="M90.44,-215.7C95.52,-207.39 102.55,-197.28 109.54,-188.14"/>
<polygon fill="black" stroke="black" points="112.43,-190.12 115.89,-180.1 106.94,-185.78 112.43,-190.12"/>
<g id="a_edge1&#45;headlabel"><a xlink:href="dir_000525_000000.html" target="_top" xlink:title="2">
<text text-anchor="middle" x="112.43" y="-192.2" font-family="Helvetica,sans-Serif" font-size="10.00">2</text>
</a>
</g>
</g>
<!-- dir_1d64e5e9f20206636d72b5bbe3d2b274&#45;&gt;dir_9be0baa3d4a3e9f480a9ee70594037fa -->
<g id="edge2" class="edge">
<title>dir_1d64e5e9f20206636d72b5bbe3d2b274&#45;&gt;dir_9be0baa3d4a3e9f480a9ee70594037fa</title>
<path fill="none" stroke="black" d="M62.35,-36.09C60.32,-46.43 58.02,-59.91 57,-72 53,-119.45 65.88,-173.96 75.21,-205.83"/>
<polygon fill="black" stroke="black" points="71.95,-207.17 78.2,-215.73 78.65,-205.14 71.95,-207.17"/>
<g id="a_edge2&#45;headlabel"><a xlink:href="dir_000240_000525.html" target="_top" xlink:title="4">
<text text-anchor="middle" x="68.2" y="-202.05" font-family="Helvetica,sans-Serif" font-size="10.00">4</text>
</a>
</g>
</g>
<!-- dir_7422a0894415a12ccd1d562a8ad09f2d&#45;&gt;dir_9be0baa3d4a3e9f480a9ee70594037fa -->
<g id="edge9" class="edge">
<title>dir_7422a0894415a12ccd1d562a8ad09f2d&#45;&gt;dir_9be0baa3d4a3e9f480a9ee70594037fa</title>
<path fill="none" stroke="black" d="M92.79,-108.19C91.08,-132.42 87.95,-176.89 85.92,-205.68"/>
<polygon fill="black" stroke="black" points="82.42,-205.65 85.21,-215.87 89.4,-206.14 82.42,-205.65"/>
<g id="a_edge9&#45;headlabel"><a xlink:href="dir_000232_000525.html" target="_top" xlink:title="3">
<text text-anchor="middle" x="79.84" y="-199.37" font-family="Helvetica,sans-Serif" font-size="10.00">3</text>
</a>
</g>
</g>
<!-- dir_7422a0894415a12ccd1d562a8ad09f2d&#45;&gt;dir_1d64e5e9f20206636d72b5bbe3d2b274 -->
<g id="edge10" class="edge">
<title>dir_7422a0894415a12ccd1d562a8ad09f2d&#45;&gt;dir_1d64e5e9f20206636d72b5bbe3d2b274</title>
<path fill="none" stroke="black" d="M87.08,-71.7C83.93,-63.81 80.12,-54.3 76.62,-45.55"/>
<polygon fill="black" stroke="black" points="79.81,-44.09 72.84,-36.1 73.31,-46.69 79.81,-44.09"/>
<g id="a_edge10&#45;headlabel"><a xlink:href="dir_000232_000240.html" target="_top" xlink:title="1">
<text text-anchor="middle" x="83.78" y="-43.87" font-family="Helvetica,sans-Serif" font-size="10.00">1</text>
</a>
</g>
</g>
<!-- dir_7422a0894415a12ccd1d562a8ad09f2d&#45;&gt;dir_bdd9a5d540de89e9fe90efdfc6973a4f -->
<g id="edge11" class="edge">
<title>dir_7422a0894415a12ccd1d562a8ad09f2d&#45;&gt;dir_bdd9a5d540de89e9fe90efdfc6973a4f</title>
<path fill="none" stroke="black" d="M109.67,-108.1C115.04,-116.04 120.76,-125.67 125.43,-134.51"/>
<polygon fill="black" stroke="black" points="122.42,-136.32 130.03,-143.7 128.68,-133.19 122.42,-136.32"/>
<g id="a_edge11&#45;headlabel"><a xlink:href="dir_000232_000000.html" target="_top" xlink:title="3">
<text text-anchor="middle" x="118.28" y="-131.87" font-family="Helvetica,sans-Serif" font-size="10.00">3</text>
</a>
</g>
</g>
<!-- dir_bdd9a5d540de89e9fe90efdfc6973a4f&#45;&gt;dir_9be0baa3d4a3e9f480a9ee70594037fa -->
<g id="edge12" class="edge">
<title>dir_bdd9a5d540de89e9fe90efdfc6973a4f&#45;&gt;dir_9be0baa3d4a3e9f480a9ee70594037fa</title>
<path fill="none" stroke="black" d="M127.68,-180.1C122.63,-188.38 115.62,-198.49 108.63,-207.64"/>
<polygon fill="black" stroke="black" points="105.72,-205.68 102.28,-215.7 111.22,-210.01 105.72,-205.68"/>
<g id="a_edge12&#45;headlabel"><a xlink:href="dir_000000_000525.html" target="_top" xlink:title="3">
<text text-anchor="middle" x="105.72" y="-198.6" font-family="Helvetica,sans-Serif" font-size="10.00">3</text>
</a>
</g>
</g>
<!-- dir_bdd9a5d540de89e9fe90efdfc6973a4f&#45;&gt;dir_1d64e5e9f20206636d72b5bbe3d2b274 -->
<g id="edge13" class="edge">
<title>dir_bdd9a5d540de89e9fe90efdfc6973a4f&#45;&gt;dir_1d64e5e9f20206636d72b5bbe3d2b274</title>
<path fill="none" stroke="black" d="M137.43,-143.92C140.3,-125.22 142.33,-94.86 131,-72 124.92,-59.73 114.54,-49.33 103.83,-41.07"/>
<polygon fill="black" stroke="black" points="105.81,-38.18 95.65,-35.18 101.72,-43.86 105.81,-38.18"/>
<g id="a_edge13&#45;headlabel"><a xlink:href="dir_000000_000240.html" target="_top" xlink:title="2">
<text text-anchor="middle" x="110.39" y="-35.48" font-family="Helvetica,sans-Serif" font-size="10.00">2</text>
</a>
</g>
</g>
<!-- dir_bdd9a5d540de89e9fe90efdfc6973a4f&#45;&gt;dir_7422a0894415a12ccd1d562a8ad09f2d -->
<g id="edge14" class="edge">
<title>dir_bdd9a5d540de89e9fe90efdfc6973a4f&#45;&gt;dir_7422a0894415a12ccd1d562a8ad09f2d</title>
<path fill="none" stroke="black" d="M118.2,-143.7C112.82,-135.73 107.1,-126.1 102.45,-117.26"/>
<polygon fill="black" stroke="black" points="105.47,-115.49 97.88,-108.1 99.21,-118.62 105.47,-115.49"/>
<g id="a_edge14&#45;headlabel"><a xlink:href="dir_000000_000232.html" target="_top" xlink:title="2">
<text text-anchor="middle" x="109.62" y="-114.94" font-family="Helvetica,sans-Serif" font-size="10.00">2</text>
</a>
</g>
</g>
</g>
</svg>
