<?xml version="1.0" encoding="UTF-8" standalone="no"?>
<!DOCTYPE svg PUBLIC "-//W3C//DTD SVG 1.1//EN"
 "http://www.w3.org/Graphics/SVG/1.1/DTD/svg11.dtd">
<!-- Generated by graphviz version 2.44.0 ()
 -->
<!-- Title: iop/memorycard/mcserv Pages: 1 -->
<svg width="182pt" height="231pt"
 viewBox="0.00 0.00 182.00 231.00" xmlns="http://www.w3.org/2000/svg" xmlns:xlink="http://www.w3.org/1999/xlink">
<g id="graph0" class="graph" transform="scale(1 1) rotate(0) translate(4 227)">
<title>iop/memorycard/mcserv</title>
<polygon fill="white" stroke="transparent" points="-4,4 -4,-227 178,-227 178,4 -4,4"/>
<g id="clust1" class="cluster">
<title>clusterdir_5805bfcfbe100e4767f47461b3e6402b</title>
<g id="a_clust1"><a xlink:href="dir_5805bfcfbe100e4767f47461b3e6402b.html" target="_top" xlink:title="memorycard">
<polygon fill="#ddddee" stroke="black" points="8,-64 8,-215 166,-215 166,-64 8,-64"/>
<text text-anchor="middle" x="87" y="-203" font-family="Helvetica,sans-Serif" font-size="10.00">memorycard</text>
</a>
</g>
</g>
<g id="clust2" class="cluster">
<title>clusterdir_841d05e6e469c6e67dc741c932691089</title>
<g id="a_clust2"><a xlink:href="dir_841d05e6e469c6e67dc741c932691089.html" target="_top">
<polygon fill="#eeeeff" stroke="black" points="16,-136 16,-188 158,-188 158,-136 16,-136"/>
</a>
</g>
</g>
<!-- dir_ae48e1b29bfa2db4ecbd893188b24955 -->
<g id="node1" class="node">
<title>dir_ae48e1b29bfa2db4ecbd893188b24955</title>
<g id="a_node1"><a xlink:href="dir_ae48e1b29bfa2db4ecbd893188b24955.html" target="_top" xlink:title="mcman">
<polygon fill="white" stroke="red" points="74,-108 20,-108 20,-72 74,-72 74,-108"/>
<text text-anchor="middle" x="47" y="-87.5" font-family="Helvetica,sans-Serif" font-size="10.00">mcman</text>
</a>
</g>
</g>
<!-- dir_9be0baa3d4a3e9f480a9ee70594037fa -->
<g id="node4" class="node">
<title>dir_9be0baa3d4a3e9f480a9ee70594037fa</title>
<g id="a_node4"><a xlink:href="dir_9be0baa3d4a3e9f480a9ee70594037fa.html" target="_top" xlink:title="kernel">
<polygon fill="white" stroke="red" points="101,-36 47,-36 47,0 101,0 101,-36"/>
<text text-anchor="middle" x="74" y="-15.5" font-family="Helvetica,sans-Serif" font-size="10.00">kernel</text>
</a>
</g>
</g>
<!-- dir_ae48e1b29bfa2db4ecbd893188b24955&#45;&gt;dir_9be0baa3d4a3e9f480a9ee70594037fa -->
<g id="edge1" class="edge">
<title>dir_ae48e1b29bfa2db4ecbd893188b24955&#45;&gt;dir_9be0baa3d4a3e9f480a9ee70594037fa</title>
<path fill="none" stroke="black" d="M53.67,-71.7C56.71,-63.81 60.38,-54.3 63.76,-45.55"/>
<polygon fill="black" stroke="black" points="67.07,-46.69 67.4,-36.1 60.54,-44.17 67.07,-46.69"/>
<g id="a_edge1&#45;headlabel"><a xlink:href="dir_000063_000214.html" target="_top" xlink:title="25">
<text text-anchor="middle" x="68.42" y="-48.57" font-family="Helvetica,sans-Serif" font-size="10.00">25</text>
</a>
</g>
</g>
<!-- dir_841d05e6e469c6e67dc741c932691089 -->
<g id="node2" class="node">
<title>dir_841d05e6e469c6e67dc741c932691089</title>
<text text-anchor="middle" x="123" y="-159.5" font-family="Helvetica,sans-Serif" font-size="10.00">mcserv</text>
</g>
<!-- dir_a05adc316625002d920f1719f73759f9 -->
<g id="node3" class="node">
<title>dir_a05adc316625002d920f1719f73759f9</title>
<g id="a_node3"><a xlink:href="dir_a05adc316625002d920f1719f73759f9.html" target="_top" xlink:title="src">
<polygon fill="white" stroke="black" points="78,-180 24,-180 24,-144 78,-144 78,-180"/>
<text text-anchor="middle" x="51" y="-159.5" font-family="Helvetica,sans-Serif" font-size="10.00">src</text>
</a>
</g>
</g>
<!-- dir_a05adc316625002d920f1719f73759f9&#45;&gt;dir_ae48e1b29bfa2db4ecbd893188b24955 -->
<g id="edge3" class="edge">
<title>dir_a05adc316625002d920f1719f73759f9&#45;&gt;dir_ae48e1b29bfa2db4ecbd893188b24955</title>
<path fill="none" stroke="black" d="M50.01,-143.7C49.57,-135.98 49.04,-126.71 48.55,-118.11"/>
<polygon fill="black" stroke="black" points="52.04,-117.89 47.98,-108.1 45.05,-118.29 52.04,-117.89"/>
<g id="a_edge3&#45;headlabel"><a xlink:href="dir_000066_000063.html" target="_top" xlink:title="1">
<text text-anchor="middle" x="55.08" y="-118.82" font-family="Helvetica,sans-Serif" font-size="10.00">1</text>
</a>
</g>
</g>
<!-- dir_a05adc316625002d920f1719f73759f9&#45;&gt;dir_9be0baa3d4a3e9f480a9ee70594037fa -->
<g id="edge2" class="edge">
<title>dir_a05adc316625002d920f1719f73759f9&#45;&gt;dir_9be0baa3d4a3e9f480a9ee70594037fa</title>
<path fill="none" stroke="black" d="M67.04,-143.85C75.01,-134.12 83.83,-121.27 88,-108 94.42,-87.57 89.97,-63.54 84.44,-45.6"/>
<polygon fill="black" stroke="black" points="87.74,-44.43 81.23,-36.07 81.11,-46.67 87.74,-44.43"/>
<g id="a_edge2&#45;headlabel"><a xlink:href="dir_000066_000214.html" target="_top" xlink:title="14">
<text text-anchor="middle" x="91.58" y="-44.43" font-family="Helvetica,sans-Serif" font-size="10.00">14</text>
</a>
</g>
</g>
</g>
</svg>
