<?xml version="1.0" encoding="UTF-8" standalone="no"?>
<!DOCTYPE svg PUBLIC "-//W3C//DTD SVG 1.1//EN"
 "http://www.w3.org/Graphics/SVG/1.1/DTD/svg11.dtd">
<!-- Generated by graphviz version 2.43.0 (0)
 -->
<!-- Title: iop/sound/libspu2 Pages: 1 -->
<svg width="254pt" height="231pt"
 viewBox="0.00 0.00 254.00 231.00" xmlns="http://www.w3.org/2000/svg" xmlns:xlink="http://www.w3.org/1999/xlink">
<g id="graph0" class="graph" transform="scale(1 1) rotate(0) translate(4 227)">
<title>iop/sound/libspu2</title>
<polygon fill="white" stroke="transparent" points="-4,4 -4,-227 250,-227 250,4 -4,4"/>
<g id="clust1" class="cluster">
<title>clusterdir_838e88315325ec0d843359dcae22d639</title>
<g id="a_clust1"><a xlink:href="dir_838e88315325ec0d843359dcae22d639.html" target="_top" xlink:title="sound">
<polygon fill="#ddddee" stroke="black" points="8,-128 8,-215 238,-215 238,-128 8,-128"/>
<text text-anchor="middle" x="123" y="-203" font-family="Helvetica,sans-Serif" font-size="10.00">sound</text>
</a>
</g>
</g>
<g id="clust2" class="cluster">
<title>clusterdir_3bdb928cbd5acb3c07c5155022fcf7d7</title>
<g id="a_clust2"><a xlink:href="dir_3bdb928cbd5acb3c07c5155022fcf7d7.html" target="_top">
<polygon fill="#eeeeff" stroke="black" points="16,-136 16,-188 230,-188 230,-136 16,-136"/>
</a>
</g>
</g>
<!-- dir_3bdb928cbd5acb3c07c5155022fcf7d7 -->
<g id="node1" class="node">
<title>dir_3bdb928cbd5acb3c07c5155022fcf7d7</title>
<text text-anchor="middle" x="195" y="-159.5" font-family="Helvetica,sans-Serif" font-size="10.00">libspu2</text>
</g>
<!-- dir_54d42e7ac0c8c9b0bd3fe2b073c61af7 -->
<g id="node2" class="node">
<title>dir_54d42e7ac0c8c9b0bd3fe2b073c61af7</title>
<g id="a_node2"><a xlink:href="dir_54d42e7ac0c8c9b0bd3fe2b073c61af7.html" target="_top" xlink:title="include">
<polygon fill="white" stroke="black" points="150,-180 96,-180 96,-144 150,-144 150,-180"/>
<text text-anchor="middle" x="123" y="-159.5" font-family="Helvetica,sans-Serif" font-size="10.00">include</text>
</a>
</g>
</g>
<!-- dir_40ac35421bc63b72c26b6c69b1517fd6 -->
<g id="node4" class="node">
<title>dir_40ac35421bc63b72c26b6c69b1517fd6</title>
<g id="a_node4"><a xlink:href="dir_40ac35421bc63b72c26b6c69b1517fd6.html" target="_top" xlink:title="system">
<polygon fill="white" stroke="red" points="122,-108 68,-108 68,-72 122,-72 122,-108"/>
<text text-anchor="middle" x="95" y="-87.5" font-family="Helvetica,sans-Serif" font-size="10.00">system</text>
</a>
</g>
</g>
<!-- dir_54d42e7ac0c8c9b0bd3fe2b073c61af7&#45;&gt;dir_40ac35421bc63b72c26b6c69b1517fd6 -->
<g id="edge2" class="edge">
<title>dir_54d42e7ac0c8c9b0bd3fe2b073c61af7&#45;&gt;dir_40ac35421bc63b72c26b6c69b1517fd6</title>
<path fill="none" stroke="black" d="M116.08,-143.7C112.93,-135.81 109.12,-126.3 105.62,-117.55"/>
<polygon fill="black" stroke="black" points="108.81,-116.09 101.84,-108.1 102.31,-118.69 108.81,-116.09"/>
<g id="a_edge2&#45;headlabel"><a xlink:href="dir_000552_000226.html" target="_top" xlink:title="4">
<text text-anchor="middle" x="112.78" y="-115.87" font-family="Helvetica,sans-Serif" font-size="10.00">4</text>
</a>
</g>
</g>
<!-- dir_bdd9a5d540de89e9fe90efdfc6973a4f -->
<g id="node5" class="node">
<title>dir_bdd9a5d540de89e9fe90efdfc6973a4f</title>
<g id="a_node5"><a xlink:href="dir_bdd9a5d540de89e9fe90efdfc6973a4f.html" target="_top" xlink:title="common">
<polygon fill="white" stroke="red" points="124.5,-36 65.5,-36 65.5,0 124.5,0 124.5,-36"/>
<text text-anchor="middle" x="95" y="-15.5" font-family="Helvetica,sans-Serif" font-size="10.00">common</text>
</a>
</g>
</g>
<!-- dir_54d42e7ac0c8c9b0bd3fe2b073c61af7&#45;&gt;dir_bdd9a5d540de89e9fe90efdfc6973a4f -->
<g id="edge3" class="edge">
<title>dir_54d42e7ac0c8c9b0bd3fe2b073c61af7&#45;&gt;dir_bdd9a5d540de89e9fe90efdfc6973a4f</title>
<path fill="none" stroke="black" d="M128.34,-143.87C133.16,-125.64 138.43,-96.17 131,-72 127.99,-62.22 122.49,-52.62 116.68,-44.33"/>
<polygon fill="black" stroke="black" points="119.41,-42.13 110.61,-36.23 113.81,-46.33 119.41,-42.13"/>
<g id="a_edge3&#45;headlabel"><a xlink:href="dir_000552_000000.html" target="_top" xlink:title="1">
<text text-anchor="middle" x="123.83" y="-40.8" font-family="Helvetica,sans-Serif" font-size="10.00">1</text>
</a>
</g>
</g>
<!-- dir_be36dfe0fa2692ece4088139be3fa1db -->
<g id="node3" class="node">
<title>dir_be36dfe0fa2692ece4088139be3fa1db</title>
<g id="a_node3"><a xlink:href="dir_be36dfe0fa2692ece4088139be3fa1db.html" target="_top" xlink:title="src">
<polygon fill="white" stroke="black" points="78,-180 24,-180 24,-144 78,-144 78,-180"/>
<text text-anchor="middle" x="51" y="-159.5" font-family="Helvetica,sans-Serif" font-size="10.00">src</text>
</a>
</g>
</g>
<!-- dir_40ac35421bc63b72c26b6c69b1517fd6&#45;&gt;dir_bdd9a5d540de89e9fe90efdfc6973a4f -->
<g id="edge1" class="edge">
<title>dir_40ac35421bc63b72c26b6c69b1517fd6&#45;&gt;dir_bdd9a5d540de89e9fe90efdfc6973a4f</title>
<path fill="none" stroke="black" d="M89.08,-71.7C88.29,-63.98 88.06,-54.71 88.4,-46.11"/>
<polygon fill="black" stroke="black" points="91.9,-46.32 89.1,-36.1 84.92,-45.84 91.9,-46.32"/>
<g id="a_edge1&#45;headlabel"><a xlink:href="dir_000226_000000.html" target="_top" xlink:title="30">
<text text-anchor="middle" x="94.48" y="-47.61" font-family="Helvetica,sans-Serif" font-size="10.00">30</text>
</a>
</g>
</g>
<!-- dir_bdd9a5d540de89e9fe90efdfc6973a4f&#45;&gt;dir_40ac35421bc63b72c26b6c69b1517fd6 -->
<g id="edge4" class="edge">
<title>dir_bdd9a5d540de89e9fe90efdfc6973a4f&#45;&gt;dir_40ac35421bc63b72c26b6c69b1517fd6</title>
<path fill="none" stroke="black" d="M100.9,-36.1C101.7,-43.79 101.94,-53.05 101.6,-61.67"/>
<polygon fill="black" stroke="black" points="98.11,-61.48 100.92,-71.7 105.09,-61.96 98.11,-61.48"/>
<g id="a_edge4&#45;headlabel"><a xlink:href="dir_000000_000226.html" target="_top" xlink:title="16">
<text text-anchor="middle" x="95.52" y="-55.2" font-family="Helvetica,sans-Serif" font-size="10.00">16</text>
</a>
</g>
</g>
</g>
</svg>
