<?xml version="1.0" encoding="UTF-8" standalone="no"?>
<!DOCTYPE svg PUBLIC "-//W3C//DTD SVG 1.1//EN"
 "http://www.w3.org/Graphics/SVG/1.1/DTD/svg11.dtd">
<!-- Generated by graphviz version 2.43.0 (0)
 -->
<!-- Title: iop/system/dummymod Pages: 1 -->
<svg width="204pt" height="159pt"
 viewBox="0.00 0.00 204.00 159.00" xmlns="http://www.w3.org/2000/svg" xmlns:xlink="http://www.w3.org/1999/xlink">
<g id="graph0" class="graph" transform="scale(1 1) rotate(0) translate(4 155)">
<title>iop/system/dummymod</title>
<polygon fill="white" stroke="transparent" points="-4,4 -4,-155 200,-155 200,4 -4,4"/>
<g id="clust1" class="cluster">
<title>clusterdir_40ac35421bc63b72c26b6c69b1517fd6</title>
<g id="a_clust1"><a xlink:href="dir_40ac35421bc63b72c26b6c69b1517fd6.html" target="_top" xlink:title="system">
<polygon fill="#ddddee" stroke="black" points="8,-56 8,-143 188,-143 188,-56 8,-56"/>
<text text-anchor="middle" x="98" y="-131" font-family="Helvetica,sans-Serif" font-size="10.00">system</text>
</a>
</g>
</g>
<g id="clust2" class="cluster">
<title>clusterdir_0a9d37126d3b936a2cd77bfafbdc06cf</title>
<g id="a_clust2"><a xlink:href="dir_0a9d37126d3b936a2cd77bfafbdc06cf.html" target="_top">
<polygon fill="#eeeeff" stroke="black" points="16,-64 16,-116 180,-116 180,-64 16,-64"/>
</a>
</g>
</g>
<!-- dir_0a9d37126d3b936a2cd77bfafbdc06cf -->
<g id="node1" class="node">
<title>dir_0a9d37126d3b936a2cd77bfafbdc06cf</title>
<text text-anchor="middle" x="134" y="-87.5" font-family="Helvetica,sans-Serif" font-size="10.00">dummymod</text>
</g>
<!-- dir_d4d8b80efad9686e8abc6af08c017e38 -->
<g id="node2" class="node">
<title>dir_d4d8b80efad9686e8abc6af08c017e38</title>
<g id="a_node2"><a xlink:href="dir_d4d8b80efad9686e8abc6af08c017e38.html" target="_top" xlink:title="src">
<polygon fill="white" stroke="black" points="78,-108 24,-108 24,-72 78,-72 78,-108"/>
<text text-anchor="middle" x="51" y="-87.5" font-family="Helvetica,sans-Serif" font-size="10.00">src</text>
</a>
</g>
</g>
<!-- dir_1d64e5e9f20206636d72b5bbe3d2b274 -->
<g id="node3" class="node">
<title>dir_1d64e5e9f20206636d72b5bbe3d2b274</title>
<g id="a_node3"><a xlink:href="dir_1d64e5e9f20206636d72b5bbe3d2b274.html" target="_top" xlink:title="loadcore">
<polygon fill="white" stroke="red" points="80.5,-36 21.5,-36 21.5,0 80.5,0 80.5,-36"/>
<text text-anchor="middle" x="51" y="-15.5" font-family="Helvetica,sans-Serif" font-size="10.00">loadcore</text>
</a>
</g>
</g>
<!-- dir_d4d8b80efad9686e8abc6af08c017e38&#45;&gt;dir_1d64e5e9f20206636d72b5bbe3d2b274 -->
<g id="edge1" class="edge">
<title>dir_d4d8b80efad9686e8abc6af08c017e38&#45;&gt;dir_1d64e5e9f20206636d72b5bbe3d2b274</title>
<path fill="none" stroke="black" d="M51,-71.7C51,-63.98 51,-54.71 51,-46.11"/>
<polygon fill="black" stroke="black" points="54.5,-46.1 51,-36.1 47.5,-46.1 54.5,-46.1"/>
<g id="a_edge1&#45;headlabel"><a xlink:href="dir_000561_000251.html" target="_top" xlink:title="1">
<text text-anchor="middle" x="57.34" y="-47.2" font-family="Helvetica,sans-Serif" font-size="10.00">1</text>
</a>
</g>
</g>
</g>
</svg>
