<?xml version="1.0" encoding="UTF-8" standalone="no"?>
<!DOCTYPE svg PUBLIC "-//W3C//DTD SVG 1.1//EN"
 "http://www.w3.org/Graphics/SVG/1.1/DTD/svg11.dtd">
<!-- Generated by graphviz version 12.2.0 (20241103.1931)
 -->
<!-- Title: iop/system/excepman Pages: 1 -->
<svg width="298pt" height="181pt"
 viewBox="0.00 0.00 298.00 181.00" xmlns="http://www.w3.org/2000/svg" xmlns:xlink="http://www.w3.org/1999/xlink">
<g id="graph0" class="graph" transform="scale(1 1) rotate(0) translate(4 177)">
<title>iop/system/excepman</title>
<g id="clust1" class="cluster">
<title>clusterdir_40ac35421bc63b72c26b6c69b1517fd6</title>
<g id="a_clust1"><a xlink:href="dir_40ac35421bc63b72c26b6c69b1517fd6.html" target="_top" xlink:title="system">
<polygon fill="#deebf9" stroke="#7f7f7f" stroke-dasharray="5,2" points="8,-39.25 8,-165 279,-165 279,-39.25 8,-39.25"/>
<text text-anchor="middle" x="143.5" y="-151.5" font-family="Helvetica,sans-Serif" font-size="10.00">system</text>
</a>
</g>
</g>
<g id="clust2" class="cluster">
<title>clusterdir_07d95afa3a823c57813d0b20ca3e9410</title>
<g id="a_clust2"><a xlink:href="dir_07d95afa3a823c57813d0b20ca3e9410.html" target="_top">
<polygon fill="#deebf9" stroke="#404040" stroke-width="2" points="16,-47.25 16,-137.75 140,-137.75 140,-47.25 16,-47.25"/>
</a>
</g>
</g>
<!-- dir_1d64e5e9f20206636d72b5bbe3d2b274 -->
<g id="node1" class="node">
<title>dir_1d64e5e9f20206636d72b5bbe3d2b274</title>
<g id="a_node1"><a xlink:href="dir_1d64e5e9f20206636d72b5bbe3d2b274.html" target="_top" xlink:title="loadcore">
<polygon fill="#60a2e3" stroke="red" points="200.38,-74.5 147.62,-74.5 147.62,-55.25 200.38,-55.25 200.38,-74.5"/>
<text text-anchor="middle" x="174" y="-61" font-family="Helvetica,sans-Serif" font-size="10.00">loadcore</text>
</a>
</g>
</g>
<!-- dir_44719da65bb992f08c8ee8632a1136c7 -->
<g id="node2" class="node">
<title>dir_44719da65bb992f08c8ee8632a1136c7</title>
<g id="a_node2"><a xlink:href="dir_44719da65bb992f08c8ee8632a1136c7.html" target="_top" xlink:title="sysmem">
<polygon fill="#60a2e3" stroke="red" points="271.38,-74.5 218.62,-74.5 218.62,-55.25 271.38,-55.25 271.38,-74.5"/>
<text text-anchor="middle" x="245" y="-61" font-family="Helvetica,sans-Serif" font-size="10.00">sysmem</text>
</a>
</g>
</g>
<!-- dir_07d95afa3a823c57813d0b20ca3e9410 -->
<g id="node3" class="node">
<title>dir_07d95afa3a823c57813d0b20ca3e9410</title>
<text text-anchor="middle" x="54" y="-116.25" font-family="Helvetica,sans-Serif" font-size="10.00">excepman</text>
</g>
<!-- dir_93e72ac5e0899245066e72da711db400 -->
<g id="node4" class="node">
<title>dir_93e72ac5e0899245066e72da711db400</title>
<g id="a_node4"><a xlink:href="dir_93e72ac5e0899245066e72da711db400.html" target="_top" xlink:title="include">
<polygon fill="#60a2e3" stroke="#404040" points="129.38,-74.5 82.62,-74.5 82.62,-55.25 129.38,-55.25 129.38,-74.5"/>
<text text-anchor="middle" x="106" y="-61" font-family="Helvetica,sans-Serif" font-size="10.00">include</text>
</a>
</g>
</g>
<!-- dir_9be0baa3d4a3e9f480a9ee70594037fa -->
<g id="node6" class="node">
<title>dir_9be0baa3d4a3e9f480a9ee70594037fa</title>
<g id="a_node6"><a xlink:href="dir_9be0baa3d4a3e9f480a9ee70594037fa.html" target="_top" xlink:title="kernel">
<polygon fill="#deebf9" stroke="red" stroke-dasharray="5,2" points="223.12,-19.25 180.88,-19.25 180.88,0 223.12,0 223.12,-19.25"/>
<text text-anchor="middle" x="202" y="-5.75" font-family="Helvetica,sans-Serif" font-size="10.00">kernel</text>
</a>
</g>
</g>
<!-- dir_93e72ac5e0899245066e72da711db400&#45;&gt;dir_9be0baa3d4a3e9f480a9ee70594037fa -->
<g id="edge1" class="edge">
<title>dir_93e72ac5e0899245066e72da711db400&#45;&gt;dir_9be0baa3d4a3e9f480a9ee70594037fa</title>
<g id="a_edge1"><a xlink:href="dir_000209_000256.html" target="_top">
<path fill="none" stroke="#63b8ff" d="M114.36,-54.83C119.4,-49.76 126.15,-43.61 133,-39.25 144.4,-32 157.94,-25.92 169.99,-21.25"/>
<polygon fill="#63b8ff" stroke="#63b8ff" points="170.95,-24.62 179.12,-17.88 168.53,-18.05 170.95,-24.62"/>
</a>
</g>
<g id="a_edge1&#45;headlabel"><a xlink:href="dir_000209_000256.html" target="_top" xlink:title="1">
<text text-anchor="middle" x="169.98" y="-24.13" font-family="Helvetica,sans-Serif" font-size="10.00" fill="#63b8ff">1</text>
</a>
</g>
</g>
<!-- dir_bb6a3a7d8adb654c719be286ee32591c -->
<g id="node5" class="node">
<title>dir_bb6a3a7d8adb654c719be286ee32591c</title>
<g id="a_node5"><a xlink:href="dir_bb6a3a7d8adb654c719be286ee32591c.html" target="_top" xlink:title="src">
<polygon fill="#60a2e3" stroke="#404040" points="131.75,-129.75 102.25,-129.75 102.25,-110.5 131.75,-110.5 131.75,-129.75"/>
<text text-anchor="middle" x="117" y="-116.25" font-family="Helvetica,sans-Serif" font-size="10.00">src</text>
</a>
</g>
</g>
<!-- dir_bb6a3a7d8adb654c719be286ee32591c&#45;&gt;dir_1d64e5e9f20206636d72b5bbe3d2b274 -->
<g id="edge2" class="edge">
<title>dir_bb6a3a7d8adb654c719be286ee32591c&#45;&gt;dir_1d64e5e9f20206636d72b5bbe3d2b274</title>
<g id="a_edge2"><a xlink:href="dir_000510_000272.html" target="_top">
<path fill="none" stroke="#63b8ff" d="M126.67,-110.09C134.74,-102.55 146.47,-91.6 156.22,-82.48"/>
<polygon fill="#63b8ff" stroke="#63b8ff" points="158.45,-85.19 163.37,-75.81 153.67,-80.08 158.45,-85.19"/>
</a>
</g>
<g id="a_edge2&#45;headlabel"><a xlink:href="dir_000510_000272.html" target="_top" xlink:title="1">
<text text-anchor="middle" x="158.87" y="-84.81" font-family="Helvetica,sans-Serif" font-size="10.00" fill="#63b8ff">1</text>
</a>
</g>
</g>
<!-- dir_bb6a3a7d8adb654c719be286ee32591c&#45;&gt;dir_44719da65bb992f08c8ee8632a1136c7 -->
<g id="edge3" class="edge">
<title>dir_bb6a3a7d8adb654c719be286ee32591c&#45;&gt;dir_44719da65bb992f08c8ee8632a1136c7</title>
<g id="a_edge3"><a xlink:href="dir_000510_000570.html" target="_top">
<path fill="none" stroke="#63b8ff" d="M132.19,-112.81C152,-104.56 187.19,-89.92 213.02,-79.18"/>
<polygon fill="#63b8ff" stroke="#63b8ff" points="214.15,-82.5 222.04,-75.43 211.46,-76.04 214.15,-82.5"/>
</a>
</g>
<g id="a_edge3&#45;headlabel"><a xlink:href="dir_000510_000570.html" target="_top" xlink:title="1">
<text text-anchor="middle" x="213.32" y="-82.04" font-family="Helvetica,sans-Serif" font-size="10.00" fill="#63b8ff">1</text>
</a>
</g>
</g>
<!-- dir_bb6a3a7d8adb654c719be286ee32591c&#45;&gt;dir_93e72ac5e0899245066e72da711db400 -->
<g id="edge4" class="edge">
<title>dir_bb6a3a7d8adb654c719be286ee32591c&#45;&gt;dir_93e72ac5e0899245066e72da711db400</title>
<g id="a_edge4"><a xlink:href="dir_000510_000209.html" target="_top">
<path fill="none" stroke="#63b8ff" d="M115.18,-110.33C113.82,-103.74 111.9,-94.46 110.17,-86.07"/>
<polygon fill="#63b8ff" stroke="#63b8ff" points="113.61,-85.43 108.16,-76.34 106.76,-86.84 113.61,-85.43"/>
</a>
</g>
<g id="a_edge4&#45;headlabel"><a xlink:href="dir_000510_000209.html" target="_top" xlink:title="1">
<text text-anchor="middle" x="116.81" y="-83.02" font-family="Helvetica,sans-Serif" font-size="10.00" fill="#63b8ff">1</text>
</a>
</g>
</g>
<!-- dir_bb6a3a7d8adb654c719be286ee32591c&#45;&gt;dir_9be0baa3d4a3e9f480a9ee70594037fa -->
<g id="edge5" class="edge">
<title>dir_bb6a3a7d8adb654c719be286ee32591c&#45;&gt;dir_9be0baa3d4a3e9f480a9ee70594037fa</title>
<g id="a_edge5"><a xlink:href="dir_000510_000256.html" target="_top">
<path fill="none" stroke="#63b8ff" d="M132.2,-117.37C169.6,-112.72 264.43,-98.72 283,-74.5 292.53,-62.07 292.05,-52.04 283,-39.25 271.98,-23.67 251.74,-16.51 234.25,-13.25"/>
<polygon fill="#63b8ff" stroke="#63b8ff" points="235.18,-9.85 224.77,-11.84 234.15,-16.77 235.18,-9.85"/>
</a>
</g>
<g id="a_edge5&#45;headlabel"><a xlink:href="dir_000510_000256.html" target="_top" xlink:title="2">
<text text-anchor="middle" x="237.65" y="-3.47" font-family="Helvetica,sans-Serif" font-size="10.00" fill="#63b8ff">2</text>
</a>
</g>
</g>
</g>
</svg>
