<?xml version="1.0" encoding="UTF-8" standalone="no"?>
<!DOCTYPE svg PUBLIC "-//W3C//DTD SVG 1.1//EN"
 "http://www.w3.org/Graphics/SVG/1.1/DTD/svg11.dtd">
<!-- Generated by graphviz version 12.2.0 (20241103.1931)
 -->
<!-- Title: iop/system/sio2man Pages: 1 -->
<!--zoomable 181 -->

<svg id="main" version="1.1" xmlns="http://www.w3.org/2000/svg" xmlns:xlink="http://www.w3.org/1999/xlink" xml:space="preserve" onload="init(evt)">

<style type="text/css"><![CDATA[
.node, .edge {opacity: 0.7;}
.node.selected, .edge.selected {opacity: 1;}
.edge:hover path { stroke: red; }
.edge:hover polygon { stroke: red; fill: red; }
]]></style>

<defs>
  <circle id="rim" cx="0" cy="0" r="7"/>
  <circle id="rim2" cx="0" cy="0" r="3.5"/>
  <g id="zoomPlus">
    <use xlink:href="#rim" fill="#404040"><set attributeName="fill" to="#808080" begin="zoomplus.mouseover" end="zoomplus.mouseout"/></use>
    <path d="M-4,0h8M0,-4v8" fill="none" stroke="white" stroke-width="1.5" pointer-events="none"/>
  </g>
  <g id="zoomMin">
    <use xlink:href="#rim" fill="#404040"><set attributeName="fill" to="#808080" begin="zoomminus.mouseover" end="zoomminus.mouseout"/></use>
    <path d="M-4,0h8" fill="none" stroke="white" stroke-width="1.5" pointer-events="none"/>
  </g>
  <g id="arrowUp" transform="translate(30 24)">
    <use xlink:href="#rim"/>
    <path pointer-events="none" fill="none" stroke="white" stroke-width="1.5" d="M0,-3.0v7 M-2.5,-0.5L0,-3.0L2.5,-0.5"/>
  </g>
  <g id="arrowRight" transform="rotate(90) translate(36 -43)">
    <use xlink:href="#rim"/>
    <path pointer-events="none" fill="none" stroke="white" stroke-width="1.5" d="M0,-3.0v7 M-2.5,-0.5L0,-3.0L2.5,-0.5"/>
  </g>
  <g id="arrowDown" transform="rotate(180) translate(-30 -48)">
    <use xlink:href="#rim"/>
    <path pointer-events="none" fill="none" stroke="white" stroke-width="1.5" d="M0,-3.0v7 M-2.5,-0.5L0,-3.0L2.5,-0.5"/>
  </g>
  <g id="arrowLeft" transform="rotate(270) translate(-36 17)">
    <use xlink:href="#rim"/>
    <path pointer-events="none" fill="none" stroke="white" stroke-width="1.5" d="M0,-3.0v7 M-2.5,-0.5L0,-3.0L2.5,-0.5"/>
  </g>
  <g id="resetDef">
    <use xlink:href="#rim2" fill="#404040"><set attributeName="fill" to="#808080" begin="reset.mouseover" end="reset.mouseout"/></use>
  </g>
</defs>
<script type="application/ecmascript">
var viewWidth = 534;
var viewHeight = 181;
var sectionId = 'dynsection-0';
</script>
<script type="application/ecmascript" xlink:href="svg.min.js"/>
<svg id="graph" class="graph">
<g id="viewport">
<title>iop/system/sio2man</title>
<g id="clust1" class="cluster">
<title>clusterdir_40ac35421bc63b72c26b6c69b1517fd6</title>
<g id="a_clust1"><a xlink:href="dir_40ac35421bc63b72c26b6c69b1517fd6.html" target="_top" xlink:title="system">
<polygon fill="#deebf9" stroke="#7f7f7f" stroke-dasharray="5,2" points="8,-39.27 8,-165.02 424,-165.02 424,-39.27 8,-39.27"/>
<text text-anchor="middle" x="216" y="-151.52" font-family="Helvetica,sans-Serif" font-size="10.00">system</text>
</a>
</g>
</g>
<g id="clust2" class="cluster">
<title>clusterdir_1fd4d135da32a6b9ad91946f648cae84</title>
<g id="a_clust2"><a xlink:href="dir_1fd4d135da32a6b9ad91946f648cae84.html" target="_top">
<polygon fill="#deebf9" stroke="#404040" stroke-width="2" points="16,-47.27 16,-137.77 132,-137.77 132,-47.27 16,-47.27"/>
</a>
</g>
</g>
<!-- dir_d7026c86e7f8fc62fc6c0ebacfebf381 -->
<g id="node1" class="node">
<title>dir_d7026c86e7f8fc62fc6c0ebacfebf381</title>
<g id="a_node1"><a xlink:href="dir_d7026c86e7f8fc62fc6c0ebacfebf381.html" target="_top" xlink:title="dmacman">
<polygon fill="#60a2e3" stroke="red" points="198.38,-74.52 139.62,-74.52 139.62,-55.27 198.38,-55.27 198.38,-74.52"/>
<text text-anchor="middle" x="169" y="-61.02" font-family="Helvetica,sans-Serif" font-size="10.00">dmacman</text>
</a>
</g>
</g>
<!-- dir_7422a0894415a12ccd1d562a8ad09f2d -->
<g id="node2" class="node">
<title>dir_7422a0894415a12ccd1d562a8ad09f2d</title>
<g id="a_node2"><a xlink:href="dir_7422a0894415a12ccd1d562a8ad09f2d.html" target="_top" xlink:title="intrman">
<polygon fill="#60a2e3" stroke="red" points="265.12,-74.52 216.88,-74.52 216.88,-55.27 265.12,-55.27 265.12,-74.52"/>
<text text-anchor="middle" x="241" y="-61.02" font-family="Helvetica,sans-Serif" font-size="10.00">intrman</text>
</a>
</g>
</g>
<!-- dir_1d64e5e9f20206636d72b5bbe3d2b274 -->
<g id="node3" class="node">
<title>dir_1d64e5e9f20206636d72b5bbe3d2b274</title>
<g id="a_node3"><a xlink:href="dir_1d64e5e9f20206636d72b5bbe3d2b274.html" target="_top" xlink:title="loadcore">
<polygon fill="#60a2e3" stroke="red" points="336.38,-74.52 283.62,-74.52 283.62,-55.27 336.38,-55.27 336.38,-74.52"/>
<text text-anchor="middle" x="310" y="-61.02" font-family="Helvetica,sans-Serif" font-size="10.00">loadcore</text>
</a>
</g>
</g>
<!-- dir_d3b40e87d731c1e886b7a70e6daaf700 -->
<g id="node4" class="node">
<title>dir_d3b40e87d731c1e886b7a70e6daaf700</title>
<g id="a_node4"><a xlink:href="dir_d3b40e87d731c1e886b7a70e6daaf700.html" target="_top" xlink:title="threadman">
<polygon fill="#60a2e3" stroke="red" points="415.88,-74.52 354.12,-74.52 354.12,-55.27 415.88,-55.27 415.88,-74.52"/>
<text text-anchor="middle" x="385" y="-61.02" font-family="Helvetica,sans-Serif" font-size="10.00">threadman</text>
</a>
</g>
</g>
<!-- dir_1fd4d135da32a6b9ad91946f648cae84 -->
<g id="node5" class="node">
<title>dir_1fd4d135da32a6b9ad91946f648cae84</title>
<text text-anchor="middle" x="50" y="-116.27" font-family="Helvetica,sans-Serif" font-size="10.00">sio2man</text>
</g>
<!-- dir_5bd868b9dc477089b3a8cf6ff153fb80 -->
<g id="node6" class="node">
<title>dir_5bd868b9dc477089b3a8cf6ff153fb80</title>
<g id="a_node6"><a xlink:href="dir_5bd868b9dc477089b3a8cf6ff153fb80.html" target="_top" xlink:title="include">
<polygon fill="#60a2e3" stroke="#404040" points="121.38,-74.52 74.62,-74.52 74.62,-55.27 121.38,-55.27 121.38,-74.52"/>
<text text-anchor="middle" x="98" y="-61.02" font-family="Helvetica,sans-Serif" font-size="10.00">include</text>
</a>
</g>
</g>
<!-- dir_9be0baa3d4a3e9f480a9ee70594037fa -->
<g id="node8" class="node">
<title>dir_9be0baa3d4a3e9f480a9ee70594037fa</title>
<g id="a_node8"><a xlink:href="dir_9be0baa3d4a3e9f480a9ee70594037fa.html" target="_top" xlink:title="kernel">
<polygon fill="#deebf9" stroke="red" stroke-dasharray="5,2" points="292.12,-19.27 249.88,-19.27 249.88,-0.02 292.12,-0.02 292.12,-19.27"/>
<text text-anchor="middle" x="271" y="-5.77" font-family="Helvetica,sans-Serif" font-size="10.00">kernel</text>
</a>
</g>
</g>
<!-- dir_5bd868b9dc477089b3a8cf6ff153fb80&#45;&gt;dir_9be0baa3d4a3e9f480a9ee70594037fa -->
<g id="edge1" class="edge">
<title>dir_5bd868b9dc477089b3a8cf6ff153fb80&#45;&gt;dir_9be0baa3d4a3e9f480a9ee70594037fa</title>
<g id="a_edge1"><a xlink:href="dir_000225_000256.html" target="_top">
<path fill="none" stroke="#63b8ff" d="M105.6,-54.81C110.58,-49.47 117.52,-43.04 125,-39.27 161.05,-21.12 207.48,-14.46 238.2,-12.03"/>
<polygon fill="#63b8ff" stroke="#63b8ff" points="238.28,-15.53 248.03,-11.37 237.81,-8.55 238.28,-15.53"/>
</a>
</g>
<g id="a_edge1&#45;headlabel"><a xlink:href="dir_000225_000256.html" target="_top" xlink:title="1">
<text text-anchor="middle" x="236.4" y="-14.63" font-family="Helvetica,sans-Serif" font-size="10.00" fill="#63b8ff">1</text>
</a>
</g>
</g>
<!-- dir_1f4d3c5c1e3e1feb3d94e36d4b775ae1 -->
<g id="node7" class="node">
<title>dir_1f4d3c5c1e3e1feb3d94e36d4b775ae1</title>
<g id="a_node7"><a xlink:href="dir_1f4d3c5c1e3e1feb3d94e36d4b775ae1.html" target="_top" xlink:title="src">
<polygon fill="#60a2e3" stroke="#404040" points="123.75,-129.77 94.25,-129.77 94.25,-110.52 123.75,-110.52 123.75,-129.77"/>
<text text-anchor="middle" x="109" y="-116.27" font-family="Helvetica,sans-Serif" font-size="10.00">src</text>
</a>
</g>
</g>
<!-- dir_1f4d3c5c1e3e1feb3d94e36d4b775ae1&#45;&gt;dir_d7026c86e7f8fc62fc6c0ebacfebf381 -->
<g id="edge8" class="edge">
<title>dir_1f4d3c5c1e3e1feb3d94e36d4b775ae1&#45;&gt;dir_d7026c86e7f8fc62fc6c0ebacfebf381</title>
<g id="a_edge8"><a xlink:href="dir_000531_000055.html" target="_top">
<path fill="none" stroke="#63b8ff" d="M119.18,-110.11C127.76,-102.49 140.27,-91.4 150.6,-82.22"/>
<polygon fill="#63b8ff" stroke="#63b8ff" points="152.68,-85.06 157.84,-75.8 148.04,-79.82 152.68,-85.06"/>
</a>
</g>
<g id="a_edge8&#45;headlabel"><a xlink:href="dir_000531_000055.html" target="_top" xlink:title="1">
<text text-anchor="middle" x="153.01" y="-84.69" font-family="Helvetica,sans-Serif" font-size="10.00" fill="#63b8ff">1</text>
</a>
</g>
</g>
<!-- dir_1f4d3c5c1e3e1feb3d94e36d4b775ae1&#45;&gt;dir_7422a0894415a12ccd1d562a8ad09f2d -->
<g id="edge4" class="edge">
<title>dir_1f4d3c5c1e3e1feb3d94e36d4b775ae1&#45;&gt;dir_7422a0894415a12ccd1d562a8ad09f2d</title>
<g id="a_edge4"><a xlink:href="dir_000531_000246.html" target="_top">
<path fill="none" stroke="#63b8ff" d="M124.14,-113.04C144.5,-104.83 181.23,-90.01 208.09,-79.17"/>
<polygon fill="#63b8ff" stroke="#63b8ff" points="209.2,-82.5 217.16,-75.51 206.58,-76.01 209.2,-82.5"/>
</a>
</g>
<g id="a_edge4&#45;headlabel"><a xlink:href="dir_000531_000246.html" target="_top" xlink:title="1">
<text text-anchor="middle" x="208.33" y="-82.04" font-family="Helvetica,sans-Serif" font-size="10.00" fill="#63b8ff">1</text>
</a>
</g>
</g>
<!-- dir_1f4d3c5c1e3e1feb3d94e36d4b775ae1&#45;&gt;dir_1d64e5e9f20206636d72b5bbe3d2b274 -->
<g id="edge2" class="edge">
<title>dir_1f4d3c5c1e3e1feb3d94e36d4b775ae1&#45;&gt;dir_1d64e5e9f20206636d72b5bbe3d2b274</title>
<g id="a_edge2"><a xlink:href="dir_000531_000272.html" target="_top">
<path fill="none" stroke="#63b8ff" d="M124.11,-115.14C155.27,-106.89 227.48,-87.76 272.18,-75.92"/>
<polygon fill="#63b8ff" stroke="#63b8ff" points="272.94,-79.33 281.71,-73.39 271.15,-72.57 272.94,-79.33"/>
</a>
</g>
<g id="a_edge2&#45;headlabel"><a xlink:href="dir_000531_000272.html" target="_top" xlink:title="1">
<text text-anchor="middle" x="271.66" y="-78.74" font-family="Helvetica,sans-Serif" font-size="10.00" fill="#63b8ff">1</text>
</a>
</g>
</g>
<!-- dir_1f4d3c5c1e3e1feb3d94e36d4b775ae1&#45;&gt;dir_d3b40e87d731c1e886b7a70e6daaf700 -->
<g id="edge7" class="edge">
<title>dir_1f4d3c5c1e3e1feb3d94e36d4b775ae1&#45;&gt;dir_d3b40e87d731c1e886b7a70e6daaf700</title>
<g id="a_edge7"><a xlink:href="dir_000531_000580.html" target="_top">
<path fill="none" stroke="#63b8ff" d="M124.21,-116.41C160.26,-109.89 253.92,-92.79 342.9,-74.9"/>
<polygon fill="#63b8ff" stroke="#63b8ff" points="343.41,-78.37 352.52,-72.96 342.03,-71.51 343.41,-78.37"/>
</a>
</g>
<g id="a_edge7&#45;headlabel"><a xlink:href="dir_000531_000580.html" target="_top" xlink:title="1">
<text text-anchor="middle" x="341.94" y="-77.69" font-family="Helvetica,sans-Serif" font-size="10.00" fill="#63b8ff">1</text>
</a>
</g>
</g>
<!-- dir_1f4d3c5c1e3e1feb3d94e36d4b775ae1&#45;&gt;dir_5bd868b9dc477089b3a8cf6ff153fb80 -->
<g id="edge3" class="edge">
<title>dir_1f4d3c5c1e3e1feb3d94e36d4b775ae1&#45;&gt;dir_5bd868b9dc477089b3a8cf6ff153fb80</title>
<g id="a_edge3"><a xlink:href="dir_000531_000225.html" target="_top">
<path fill="none" stroke="#63b8ff" d="M107.18,-110.35C105.82,-103.76 103.9,-94.48 102.17,-86.1"/>
<polygon fill="#63b8ff" stroke="#63b8ff" points="105.61,-85.45 100.16,-76.36 98.76,-86.86 105.61,-85.45"/>
</a>
</g>
<g id="a_edge3&#45;headlabel"><a xlink:href="dir_000531_000225.html" target="_top" xlink:title="1">
<text text-anchor="middle" x="108.81" y="-83.04" font-family="Helvetica,sans-Serif" font-size="10.00" fill="#63b8ff">1</text>
</a>
</g>
</g>
<!-- dir_1f4d3c5c1e3e1feb3d94e36d4b775ae1&#45;&gt;dir_9be0baa3d4a3e9f480a9ee70594037fa -->
<g id="edge5" class="edge">
<title>dir_1f4d3c5c1e3e1feb3d94e36d4b775ae1&#45;&gt;dir_9be0baa3d4a3e9f480a9ee70594037fa</title>
<g id="a_edge5"><a xlink:href="dir_000531_000256.html" target="_top">
<path fill="none" stroke="#63b8ff" d="M124.15,-119.51C181.99,-120.53 387.72,-120.83 428,-74.52 438.28,-62.7 438.04,-51.3 428,-39.27 412.49,-20.68 345,-14.13 303.72,-11.85"/>
<polygon fill="#63b8ff" stroke="#63b8ff" points="304.01,-8.36 293.85,-11.36 303.66,-15.35 304.01,-8.36"/>
</a>
</g>
<g id="a_edge5&#45;headlabel"><a xlink:href="dir_000531_000256.html" target="_top" xlink:title="1">
<text text-anchor="middle" x="306.23" y="-1.75" font-family="Helvetica,sans-Serif" font-size="10.00" fill="#63b8ff">1</text>
</a>
</g>
</g>
<!-- dir_bdd9a5d540de89e9fe90efdfc6973a4f -->
<g id="node9" class="node">
<title>dir_bdd9a5d540de89e9fe90efdfc6973a4f</title>
<g id="a_node9"><a xlink:href="dir_bdd9a5d540de89e9fe90efdfc6973a4f.html" target="_top" xlink:title="common">
<polygon fill="#deebf9" stroke="red" points="525.75,-74.52 472.25,-74.52 472.25,-55.27 525.75,-55.27 525.75,-74.52"/>
<text text-anchor="middle" x="499" y="-61.02" font-family="Helvetica,sans-Serif" font-size="10.00">common</text>
</a>
</g>
</g>
<!-- dir_1f4d3c5c1e3e1feb3d94e36d4b775ae1&#45;&gt;dir_bdd9a5d540de89e9fe90efdfc6973a4f -->
<g id="edge6" class="edge">
<title>dir_1f4d3c5c1e3e1feb3d94e36d4b775ae1&#45;&gt;dir_bdd9a5d540de89e9fe90efdfc6973a4f</title>
<g id="a_edge6"><a xlink:href="dir_000531_000046.html" target="_top">
<path fill="none" stroke="#63b8ff" d="M124.03,-117.66C172.56,-112.77 329.41,-96.23 458,-74.52 459,-74.35 460.02,-74.18 461.05,-73.99"/>
<polygon fill="#63b8ff" stroke="#63b8ff" points="461.5,-77.47 470.67,-72.15 460.19,-70.59 461.5,-77.47"/>
</a>
</g>
<g id="a_edge6&#45;headlabel"><a xlink:href="dir_000531_000046.html" target="_top" xlink:title="1">
<text text-anchor="middle" x="459.99" y="-76.77" font-family="Helvetica,sans-Serif" font-size="10.00" fill="#63b8ff">1</text>
</a>
</g>
</g>
</g>
</svg>

<g id="navigator" transform="translate(0 0)" fill="#404254">
  <rect fill="#f2f5e9" fill-opacity="0.5" stroke="#606060" stroke-width=".5" x="0" y="0" width="60" height="60"/>
  <use id="zoomplus" xlink:href="#zoomPlus" x="17" y="9" onmousedown="handleZoom(evt,'in')"/>
  <use id="zoomminus" xlink:href="#zoomMin" x="42" y="9" onmousedown="handleZoom(evt,'out')"/>
  <use id="reset" xlink:href="#resetDef" x="30" y="36" onmousedown="handleReset()"/>
   <use id="arrowup" xlink:href="#arrowUp" x="0" y="0" onmousedown="handlePan(0,-1)"/>
  <use id="arrowright" xlink:href="#arrowRight" x="0" y="0" onmousedown="handlePan(1,0)"/>
  <use id="arrowdown" xlink:href="#arrowDown" x="0" y="0" onmousedown="handlePan(0,1)"/>
  <use id="arrowleft" xlink:href="#arrowLeft" x="0" y="0" onmousedown="handlePan(-1,0)"/>
</g>
<svg viewBox="0 0 15 15" width="100%" height="30px" preserveAspectRatio="xMaxYMin meet">
 <g id="arrow_out" transform="scale(0.3 0.3)">
  <a xlink:href="dir_1fd4d135da32a6b9ad91946f648cae84_dep_org.svg" target="_base">
   <rect id="button" ry="5" rx="5" y="6" x="6" height="38" width="38"
        fill="#f2f5e9" fill-opacity="0.5" stroke="#606060" stroke-width="1.0"/>
   <path id="arrow"
     d="M 11.500037,31.436501 C 11.940474,20.09759 22.043105,11.32322 32.158766,21.979434 L 37.068811,17.246167 C 37.068811,17.246167 37.088388,32 37.088388,32 L 22.160133,31.978069 C 22.160133,31.978069 26.997745,27.140456 26.997745,27.140456 C 18.528582,18.264221 13.291696,25.230495 11.500037,31.436501 z"
     style="fill:#404040;"/>
  </a>
 </g>
</svg>

<style type='text/css'>
<![CDATA[
[data-mouse-over-selected='false'] { opacity: 0.7; }
[data-mouse-over-selected='true']  { opacity: 1.0; }
]]>
</style>
<script type="application/ecmascript"><![CDATA[
document.addEventListener('DOMContentLoaded', (event) => {
  highlightEdges();
  highlightAdjacentNodes();
});
]]></script>
</svg>
