<?xml version="1.0" encoding="UTF-8" standalone="no"?>
<!DOCTYPE svg PUBLIC "-//W3C//DTD SVG 1.1//EN"
 "http://www.w3.org/Graphics/SVG/1.1/DTD/svg11.dtd">
<!-- Generated by graphviz version 2.43.0 (0)
 -->
<!-- Title: ee/rpc/tcpips/src Pages: 1 -->
<svg width="177pt" height="295pt"
 viewBox="0.00 0.00 177.00 295.00" xmlns="http://www.w3.org/2000/svg" xmlns:xlink="http://www.w3.org/1999/xlink">
<g id="graph0" class="graph" transform="scale(1 1) rotate(0) translate(4 291)">
<title>ee/rpc/tcpips/src</title>
<polygon fill="white" stroke="transparent" points="-4,4 -4,-291 173,-291 173,4 -4,4"/>
<g id="clust1" class="cluster">
<title>clusterdir_d367c99d526987235c59a734292a94e2</title>
<g id="a_clust1"><a xlink:href="dir_d367c99d526987235c59a734292a94e2.html" target="_top" xlink:title="tcpips">
<polygon fill="#ddddee" stroke="black" points="91,-208 91,-279 161,-279 161,-208 91,-208"/>
<text text-anchor="middle" x="126" y="-267" font-family="Helvetica,sans-Serif" font-size="10.00">tcpips</text>
</a>
</g>
</g>
<!-- dir_06508ded56efeb0264642d328f7c09ba -->
<g id="node1" class="node">
<title>dir_06508ded56efeb0264642d328f7c09ba</title>
<g id="a_node1"><a xlink:href="dir_06508ded56efeb0264642d328f7c09ba.html" target="_top" xlink:title="src">
<polygon fill="#eeeeff" stroke="black" points="153,-252 99,-252 99,-216 153,-216 153,-252"/>
<text text-anchor="middle" x="126" y="-231.5" font-family="Helvetica,sans-Serif" font-size="10.00">src</text>
</a>
</g>
</g>
<!-- dir_a0a8ac7efb6662b749c1285408048e6d -->
<g id="node2" class="node">
<title>dir_a0a8ac7efb6662b749c1285408048e6d</title>
<g id="a_node2"><a xlink:href="dir_a0a8ac7efb6662b749c1285408048e6d.html" target="_top" xlink:title="erl">
<polygon fill="white" stroke="red" points="54,-180 0,-180 0,-144 54,-144 54,-180"/>
<text text-anchor="middle" x="27" y="-159.5" font-family="Helvetica,sans-Serif" font-size="10.00">erl</text>
</a>
</g>
</g>
<!-- dir_06508ded56efeb0264642d328f7c09ba&#45;&gt;dir_a0a8ac7efb6662b749c1285408048e6d -->
<g id="edge2" class="edge">
<title>dir_06508ded56efeb0264642d328f7c09ba&#45;&gt;dir_a0a8ac7efb6662b749c1285408048e6d</title>
<path fill="none" stroke="black" d="M101.78,-215.88C89.08,-206.89 73.34,-195.76 59.58,-186.03"/>
<polygon fill="black" stroke="black" points="61.5,-183.11 51.31,-180.19 57.46,-188.82 61.5,-183.11"/>
<g id="a_edge2&#45;headlabel"><a xlink:href="dir_000377_000400.html" target="_top" xlink:title="1">
<text text-anchor="middle" x="66.07" y="-180.36" font-family="Helvetica,sans-Serif" font-size="10.00">1</text>
</a>
</g>
</g>
<!-- dir_be6a4eb92b3e198248caebd4132877bb -->
<g id="node3" class="node">
<title>dir_be6a4eb92b3e198248caebd4132877bb</title>
<g id="a_node3"><a xlink:href="dir_be6a4eb92b3e198248caebd4132877bb.html" target="_top" xlink:title="include">
<polygon fill="none" stroke="black" points="126,-180 72,-180 72,-144 126,-144 126,-180"/>
<text text-anchor="middle" x="99" y="-159.5" font-family="Helvetica,sans-Serif" font-size="10.00">include</text>
</a>
</g>
</g>
<!-- dir_06508ded56efeb0264642d328f7c09ba&#45;&gt;dir_be6a4eb92b3e198248caebd4132877bb -->
<g id="edge3" class="edge">
<title>dir_06508ded56efeb0264642d328f7c09ba&#45;&gt;dir_be6a4eb92b3e198248caebd4132877bb</title>
<path fill="none" stroke="black" d="M119.33,-215.7C116.29,-207.81 112.62,-198.3 109.24,-189.55"/>
<polygon fill="black" stroke="black" points="112.46,-188.17 105.6,-180.1 105.93,-190.69 112.46,-188.17"/>
<g id="a_edge3&#45;headlabel"><a xlink:href="dir_000377_000465.html" target="_top" xlink:title="2">
<text text-anchor="middle" x="116.4" y="-188.01" font-family="Helvetica,sans-Serif" font-size="10.00">2</text>
</a>
</g>
</g>
<!-- dir_694ec83a64f58cbdefbefce65cd1011c -->
<g id="node4" class="node">
<title>dir_694ec83a64f58cbdefbefce65cd1011c</title>
<g id="a_node4"><a xlink:href="dir_694ec83a64f58cbdefbefce65cd1011c.html" target="_top" xlink:title="kernel">
<polygon fill="white" stroke="red" points="149,-36 95,-36 95,0 149,0 149,-36"/>
<text text-anchor="middle" x="122" y="-15.5" font-family="Helvetica,sans-Serif" font-size="10.00">kernel</text>
</a>
</g>
</g>
<!-- dir_06508ded56efeb0264642d328f7c09ba&#45;&gt;dir_694ec83a64f58cbdefbefce65cd1011c -->
<g id="edge4" class="edge">
<title>dir_06508ded56efeb0264642d328f7c09ba&#45;&gt;dir_694ec83a64f58cbdefbefce65cd1011c</title>
<path fill="none" stroke="black" d="M135.4,-215.78C150.4,-185.99 176.44,-123.13 160,-72 156.81,-62.08 151,-52.44 144.87,-44.17"/>
<polygon fill="black" stroke="black" points="147.42,-41.74 138.46,-36.08 141.93,-46.09 147.42,-41.74"/>
<g id="a_edge4&#45;headlabel"><a xlink:href="dir_000377_000324.html" target="_top" xlink:title="2">
<text text-anchor="middle" x="151.88" y="-40.3" font-family="Helvetica,sans-Serif" font-size="10.00">2</text>
</a>
</g>
</g>
<!-- dir_bdd9a5d540de89e9fe90efdfc6973a4f -->
<g id="node5" class="node">
<title>dir_bdd9a5d540de89e9fe90efdfc6973a4f</title>
<g id="a_node5"><a xlink:href="dir_bdd9a5d540de89e9fe90efdfc6973a4f.html" target="_top" xlink:title="common">
<polygon fill="white" stroke="red" points="151.5,-108 92.5,-108 92.5,-72 151.5,-72 151.5,-108"/>
<text text-anchor="middle" x="122" y="-87.5" font-family="Helvetica,sans-Serif" font-size="10.00">common</text>
</a>
</g>
</g>
<!-- dir_06508ded56efeb0264642d328f7c09ba&#45;&gt;dir_bdd9a5d540de89e9fe90efdfc6973a4f -->
<g id="edge5" class="edge">
<title>dir_06508ded56efeb0264642d328f7c09ba&#45;&gt;dir_bdd9a5d540de89e9fe90efdfc6973a4f</title>
<path fill="none" stroke="black" d="M129.97,-215.92C133.61,-197.98 138.02,-168.98 135,-144 133.98,-135.53 132.07,-126.47 130.02,-118.28"/>
<polygon fill="black" stroke="black" points="133.36,-117.23 127.41,-108.47 126.6,-119.03 133.36,-117.23"/>
<g id="a_edge5&#45;headlabel"><a xlink:href="dir_000377_000000.html" target="_top" xlink:title="3">
<text text-anchor="middle" x="137.03" y="-117.48" font-family="Helvetica,sans-Serif" font-size="10.00">3</text>
</a>
</g>
</g>
<!-- dir_a0a8ac7efb6662b749c1285408048e6d&#45;&gt;dir_bdd9a5d540de89e9fe90efdfc6973a4f -->
<g id="edge1" class="edge">
<title>dir_a0a8ac7efb6662b749c1285408048e6d&#45;&gt;dir_bdd9a5d540de89e9fe90efdfc6973a4f</title>
<path fill="none" stroke="black" d="M50.48,-143.7C62.56,-134.8 77.45,-123.82 90.52,-114.2"/>
<polygon fill="black" stroke="black" points="92.81,-116.85 98.79,-108.1 88.66,-111.22 92.81,-116.85"/>
<g id="a_edge1&#45;headlabel"><a xlink:href="dir_000400_000000.html" target="_top" xlink:title="1">
<text text-anchor="middle" x="91.6" y="-118.77" font-family="Helvetica,sans-Serif" font-size="10.00">1</text>
</a>
</g>
</g>
<!-- dir_694ec83a64f58cbdefbefce65cd1011c&#45;&gt;dir_a0a8ac7efb6662b749c1285408048e6d -->
<g id="edge6" class="edge">
<title>dir_694ec83a64f58cbdefbefce65cd1011c&#45;&gt;dir_a0a8ac7efb6662b749c1285408048e6d</title>
<path fill="none" stroke="black" d="M108.67,-36.44C100.98,-46.66 91.23,-59.91 83,-72 68.82,-92.81 53.66,-117.04 42.7,-134.96"/>
<polygon fill="black" stroke="black" points="39.58,-133.34 37.37,-143.7 45.56,-136.98 39.58,-133.34"/>
<g id="a_edge6&#45;headlabel"><a xlink:href="dir_000324_000400.html" target="_top" xlink:title="1">
<text text-anchor="middle" x="39.03" y="-126.29" font-family="Helvetica,sans-Serif" font-size="10.00">1</text>
</a>
</g>
</g>
<!-- dir_694ec83a64f58cbdefbefce65cd1011c&#45;&gt;dir_bdd9a5d540de89e9fe90efdfc6973a4f -->
<g id="edge7" class="edge">
<title>dir_694ec83a64f58cbdefbefce65cd1011c&#45;&gt;dir_bdd9a5d540de89e9fe90efdfc6973a4f</title>
<path fill="none" stroke="black" d="M127.9,-36.1C128.7,-43.79 128.94,-53.05 128.6,-61.67"/>
<polygon fill="black" stroke="black" points="125.11,-61.48 127.92,-71.7 132.09,-61.96 125.11,-61.48"/>
<g id="a_edge7&#45;headlabel"><a xlink:href="dir_000324_000000.html" target="_top" xlink:title="35">
<text text-anchor="middle" x="122.52" y="-55.2" font-family="Helvetica,sans-Serif" font-size="10.00">35</text>
</a>
</g>
</g>
<!-- dir_bdd9a5d540de89e9fe90efdfc6973a4f&#45;&gt;dir_694ec83a64f58cbdefbefce65cd1011c -->
<g id="edge8" class="edge">
<title>dir_bdd9a5d540de89e9fe90efdfc6973a4f&#45;&gt;dir_694ec83a64f58cbdefbefce65cd1011c</title>
<path fill="none" stroke="black" d="M116.08,-71.7C115.29,-63.98 115.06,-54.71 115.4,-46.11"/>
<polygon fill="black" stroke="black" points="118.9,-46.32 116.1,-36.1 111.92,-45.84 118.9,-46.32"/>
<g id="a_edge8&#45;headlabel"><a xlink:href="dir_000000_000324.html" target="_top" xlink:title="1">
<text text-anchor="middle" x="121.48" y="-47.61" font-family="Helvetica,sans-Serif" font-size="10.00">1</text>
</a>
</g>
</g>
</g>
</svg>
