<?xml version="1.0" encoding="UTF-8" standalone="no"?>
<!DOCTYPE svg PUBLIC "-//W3C//DTD SVG 1.1//EN"
 "http://www.w3.org/Graphics/SVG/1.1/DTD/svg11.dtd">
<!-- Generated by graphviz version 9.0.0 (20230911.1827)
 -->
<!-- Title: ee/input Pages: 1 -->
<svg width="208pt" height="197pt"
 viewBox="0.00 0.00 208.40 197.00" xmlns="http://www.w3.org/2000/svg" xmlns:xlink="http://www.w3.org/1999/xlink">
<g id="graph0" class="graph" transform="scale(1 1) rotate(0) translate(4 193)">
<title>ee/input</title>
<g id="clust1" class="cluster">
<title>clusterdir_049738f1909e8dc3e45fe1f6b3faa109</title>
<g id="a_clust1"><a xlink:href="dir_049738f1909e8dc3e45fe1f6b3faa109.html" target="_top" xlink:title="ee">
<polygon fill="#deebf9" stroke="#404040" stroke-dasharray="5,2" points="8,-8 8,-181 161,-181 161,-8 8,-8"/>
<text text-anchor="middle" x="84.5" y="-167.5" font-family="Helvetica,sans-Serif" font-size="10.00">ee</text>
</a>
</g>
</g>
<g id="clust2" class="cluster">
<title>clusterdir_39941762bcf6eb45f8acbe5afd6e1dcf</title>
<g id="a_clust2"><a xlink:href="dir_39941762bcf6eb45f8acbe5afd6e1dcf.html" target="_top">
<polygon fill="#deebf9" stroke="#404040" stroke-width="2" points="16,-63.25 16,-153.75 117,-153.75 117,-63.25 16,-63.25"/>
</a>
</g>
</g>
<!-- dir_5b119dc963fa9b25ef41951231899460 -->
<g id="node1" class="node">
<title>dir_5b119dc963fa9b25ef41951231899460</title>
<g id="a_node1"><a xlink:href="dir_5b119dc963fa9b25ef41951231899460.html" target="_top" xlink:title="rpc">
<polygon fill="#60a2e3" stroke="red" points="82.75,-35.25 53.25,-35.25 53.25,-16 82.75,-16 82.75,-35.25"/>
<text text-anchor="middle" x="68" y="-21.75" font-family="Helvetica,sans-Serif" font-size="10.00">rpc</text>
</a>
</g>
</g>
<!-- dir_a0a8ac7efb6662b749c1285408048e6d -->
<g id="node2" class="node">
<title>dir_a0a8ac7efb6662b749c1285408048e6d</title>
<g id="a_node2"><a xlink:href="dir_a0a8ac7efb6662b749c1285408048e6d.html" target="_top" xlink:title="erl">
<polygon fill="#60a2e3" stroke="red" points="153.4,-90.5 124.6,-90.5 124.6,-71.25 153.4,-71.25 153.4,-90.5"/>
<text text-anchor="middle" x="139" y="-77" font-family="Helvetica,sans-Serif" font-size="10.00">erl</text>
</a>
</g>
</g>
<!-- dir_39941762bcf6eb45f8acbe5afd6e1dcf -->
<g id="node3" class="node">
<title>dir_39941762bcf6eb45f8acbe5afd6e1dcf</title>
<text text-anchor="middle" x="90" y="-132.25" font-family="Helvetica,sans-Serif" font-size="10.00">input</text>
</g>
<!-- dir_f6f36f3eb6875262b2c2259532f4a7d0 -->
<g id="node4" class="node">
<title>dir_f6f36f3eb6875262b2c2259532f4a7d0</title>
<g id="a_node4"><a xlink:href="dir_f6f36f3eb6875262b2c2259532f4a7d0.html" target="_top" xlink:title="include">
<polygon fill="#60a2e3" stroke="#404040" points="70.38,-90.5 23.62,-90.5 23.62,-71.25 70.38,-71.25 70.38,-90.5"/>
<text text-anchor="middle" x="47" y="-77" font-family="Helvetica,sans-Serif" font-size="10.00">include</text>
</a>
</g>
</g>
<!-- dir_f6f36f3eb6875262b2c2259532f4a7d0&#45;&gt;dir_5b119dc963fa9b25ef41951231899460 -->
<g id="edge1" class="edge">
<title>dir_f6f36f3eb6875262b2c2259532f4a7d0&#45;&gt;dir_5b119dc963fa9b25ef41951231899460</title>
<g id="a_edge1"><a xlink:href="dir_000081_000232.html" target="_top">
<path fill="none" stroke="#63b8ff" d="M50.47,-71.08C53.13,-64.34 56.9,-54.77 60.26,-46.24"/>
<polygon fill="#63b8ff" stroke="#63b8ff" points="63.49,-47.6 63.9,-37.02 56.98,-45.04 63.49,-47.6"/>
</a>
</g>
<g id="a_edge1&#45;headlabel"><a xlink:href="dir_000081_000232.html" target="_top" xlink:title="1">
<text text-anchor="middle" x="65.37" y="-46.71" font-family="Helvetica,sans-Serif" font-size="10.00" fill="#63b8ff">1</text>
</a>
</g>
</g>
<!-- dir_9805d618bf049a122c516d9b6b072b3f -->
<g id="node5" class="node">
<title>dir_9805d618bf049a122c516d9b6b072b3f</title>
<g id="a_node5"><a xlink:href="dir_9805d618bf049a122c516d9b6b072b3f.html" target="_top" xlink:title="src">
<polygon fill="#60a2e3" stroke="#404040" points="53.75,-145.75 24.25,-145.75 24.25,-126.5 53.75,-126.5 53.75,-145.75"/>
<text text-anchor="middle" x="39" y="-132.25" font-family="Helvetica,sans-Serif" font-size="10.00">src</text>
</a>
</g>
</g>
<!-- dir_9805d618bf049a122c516d9b6b072b3f&#45;&gt;dir_5b119dc963fa9b25ef41951231899460 -->
<g id="edge3" class="edge">
<title>dir_9805d618bf049a122c516d9b6b072b3f&#45;&gt;dir_5b119dc963fa9b25ef41951231899460</title>
<g id="a_edge3"><a xlink:href="dir_000264_000232.html" target="_top">
<path fill="none" stroke="#63b8ff" d="M51.03,-126.01C60.65,-117.89 73.42,-105.08 79,-90.5 84.48,-76.18 81.01,-59 76.56,-46.07"/>
<polygon fill="#63b8ff" stroke="#63b8ff" points="79.91,-45.02 72.99,-37 73.4,-47.59 79.91,-45.02"/>
</a>
</g>
<g id="a_edge3&#45;headlabel"><a xlink:href="dir_000264_000232.html" target="_top" xlink:title="1">
<text text-anchor="middle" x="83.31" y="-42.04" font-family="Helvetica,sans-Serif" font-size="10.00" fill="#63b8ff">1</text>
</a>
</g>
</g>
<!-- dir_9805d618bf049a122c516d9b6b072b3f&#45;&gt;dir_a0a8ac7efb6662b749c1285408048e6d -->
<g id="edge4" class="edge">
<title>dir_9805d618bf049a122c516d9b6b072b3f&#45;&gt;dir_a0a8ac7efb6662b749c1285408048e6d</title>
<g id="a_edge4"><a xlink:href="dir_000264_000044.html" target="_top">
<path fill="none" stroke="#63b8ff" d="M54.19,-127.04C70.16,-118.53 95.53,-105.02 114.37,-94.99"/>
<polygon fill="#63b8ff" stroke="#63b8ff" points="115.8,-98.19 122.99,-90.4 112.51,-92.01 115.8,-98.19"/>
</a>
</g>
<g id="a_edge4&#45;headlabel"><a xlink:href="dir_000264_000044.html" target="_top" xlink:title="1">
<text text-anchor="middle" x="115.3" y="-97.8" font-family="Helvetica,sans-Serif" font-size="10.00" fill="#63b8ff">1</text>
</a>
</g>
</g>
<!-- dir_9805d618bf049a122c516d9b6b072b3f&#45;&gt;dir_f6f36f3eb6875262b2c2259532f4a7d0 -->
<g id="edge5" class="edge">
<title>dir_9805d618bf049a122c516d9b6b072b3f&#45;&gt;dir_f6f36f3eb6875262b2c2259532f4a7d0</title>
<g id="a_edge5"><a xlink:href="dir_000264_000081.html" target="_top">
<path fill="none" stroke="#63b8ff" d="M40.32,-126.33C41.31,-119.74 42.71,-110.46 43.97,-102.07"/>
<polygon fill="#63b8ff" stroke="#63b8ff" points="47.4,-102.76 45.43,-92.36 40.48,-101.72 47.4,-102.76"/>
</a>
</g>
<g id="a_edge5&#45;headlabel"><a xlink:href="dir_000264_000081.html" target="_top" xlink:title="1">
<text text-anchor="middle" x="49.9" y="-101.37" font-family="Helvetica,sans-Serif" font-size="10.00" fill="#63b8ff">1</text>
</a>
</g>
</g>
<!-- dir_0981ace215aa2029f526b70c145b9fbe -->
<g id="node6" class="node">
<title>dir_0981ace215aa2029f526b70c145b9fbe</title>
<g id="a_node6"><a xlink:href="dir_0981ace215aa2029f526b70c145b9fbe.html" target="_top" xlink:title="iop">
<polygon fill="#deebf9" stroke="red" points="200.4,-90.5 171.6,-90.5 171.6,-71.25 200.4,-71.25 200.4,-90.5"/>
<text text-anchor="middle" x="186" y="-77" font-family="Helvetica,sans-Serif" font-size="10.00">iop</text>
</a>
</g>
</g>
<!-- dir_9805d618bf049a122c516d9b6b072b3f&#45;&gt;dir_0981ace215aa2029f526b70c145b9fbe -->
<g id="edge2" class="edge">
<title>dir_9805d618bf049a122c516d9b6b072b3f&#45;&gt;dir_0981ace215aa2029f526b70c145b9fbe</title>
<g id="a_edge2"><a xlink:href="dir_000264_000167.html" target="_top">
<path fill="none" stroke="#63b8ff" d="M54.23,-129.64C57.14,-128.59 60.16,-127.51 63,-126.5 105.01,-111.54 118.2,-108.1 160.83,-92.01"/>
<polygon fill="#63b8ff" stroke="#63b8ff" points="161.83,-95.37 169.94,-88.54 159.35,-88.82 161.83,-95.37"/>
</a>
</g>
<g id="a_edge2&#45;headlabel"><a xlink:href="dir_000264_000167.html" target="_top" xlink:title="1">
<text text-anchor="middle" x="160.9" y="-94.89" font-family="Helvetica,sans-Serif" font-size="10.00" fill="#63b8ff">1</text>
</a>
</g>
</g>
</g>
</svg>
