<?xml version="1.0" encoding="UTF-8" standalone="no"?>
<!DOCTYPE svg PUBLIC "-//W3C//DTD SVG 1.1//EN"
 "http://www.w3.org/Graphics/SVG/1.1/DTD/svg11.dtd">
<!-- Generated by graphviz version 9.0.0 (20230911.1827)
 -->
<!-- Title: ee/dma/include/dma.h Pages: 1 -->
<svg width="143pt" height="138pt"
 viewBox="0.00 0.00 142.88 137.75" xmlns="http://www.w3.org/2000/svg" xmlns:xlink="http://www.w3.org/1999/xlink">
<g id="graph0" class="graph" transform="scale(1 1) rotate(0) translate(4 133.75)">
<title>ee/dma/include/dma.h</title>
<!-- Node1 -->
<g id="Node000001" class="node">
<title>Node1</title>
<g id="a_Node000001"><a xlink:title=" ">
<polygon fill="#999999" stroke="#666666" points="111.25,-129.75 0,-129.75 0,-110.5 111.25,-110.5 111.25,-129.75"/>
<text text-anchor="middle" x="55.62" y="-116.25" font-family="Helvetica,sans-Serif" font-size="10.00">ee/dma/include/dma.h</text>
</a>
</g>
</g>
<!-- Node2 -->
<g id="Node000002" class="node">
<title>Node2</title>
<g id="a_Node000002"><a xlink:href="tamtypes_8h.html" target="_top" xlink:title=" ">
<polygon fill="white" stroke="#666666" points="87.25,-19.25 24,-19.25 24,0 87.25,0 87.25,-19.25"/>
<text text-anchor="middle" x="55.62" y="-5.75" font-family="Helvetica,sans-Serif" font-size="10.00">tamtypes.h</text>
</a>
</g>
</g>
<!-- Node1&#45;&gt;Node2 -->
<g id="edge1_Node000001_Node000002" class="edge">
<title>Node1&#45;&gt;Node2</title>
<g id="a_edge1_Node000001_Node000002"><a xlink:title=" ">
<path fill="none" stroke="#63b8ff" d="M50.9,-110.12C45.03,-97.83 36.18,-75.07 39.62,-55.25 41.1,-46.74 44.06,-37.71 47.03,-30.02"/>
<polygon fill="#63b8ff" stroke="#63b8ff" points="50.17,-31.58 50.78,-21 43.71,-28.89 50.17,-31.58"/>
</a>
</g>
</g>
<!-- Node3 -->
<g id="Node000003" class="node">
<title>Node3</title>
<g id="a_Node000003"><a xlink:href="packet2__types_8h_source.html" target="_top" xlink:title=" ">
<polygon fill="white" stroke="#666666" points="134.88,-74.5 48.38,-74.5 48.38,-55.25 134.88,-55.25 134.88,-74.5"/>
<text text-anchor="middle" x="91.62" y="-61" font-family="Helvetica,sans-Serif" font-size="10.00">packet2_types.h</text>
</a>
</g>
</g>
<!-- Node1&#45;&gt;Node3 -->
<g id="edge2_Node000001_Node000003" class="edge">
<title>Node1&#45;&gt;Node3</title>
<g id="a_edge2_Node000001_Node000003"><a xlink:title=" ">
<path fill="none" stroke="#63b8ff" d="M61.57,-110.33C66.34,-103.28 73.19,-93.15 79.15,-84.33"/>
<polygon fill="#63b8ff" stroke="#63b8ff" points="82,-86.36 84.7,-76.11 76.2,-82.44 82,-86.36"/>
</a>
</g>
</g>
<!-- Node3&#45;&gt;Node2 -->
<g id="edge3_Node000003_Node000002" class="edge">
<title>Node3&#45;&gt;Node2</title>
<g id="a_edge3_Node000003_Node000002"><a xlink:title=" ">
<path fill="none" stroke="#63b8ff" d="M85.68,-55.08C80.91,-48.03 74.06,-37.9 68.1,-29.08"/>
<polygon fill="#63b8ff" stroke="#63b8ff" points="71.05,-27.19 62.55,-20.86 65.25,-31.11 71.05,-27.19"/>
</a>
</g>
</g>
</g>
</svg>
