<?xml version="1.0" encoding="UTF-8" standalone="no"?>
<!DOCTYPE svg PUBLIC "-//W3C//DTD SVG 1.1//EN"
 "http://www.w3.org/Graphics/SVG/1.1/DTD/svg11.dtd">
<!-- Generated by graphviz version 9.0.0 (20230911.1827)
 -->
<!-- Title: iop/kernel/include/dmacman.h Pages: 1 -->
<svg width="2331pt" height="105pt"
 viewBox="0.00 0.00 2331.00 105.00" xmlns="http://www.w3.org/2000/svg" xmlns:xlink="http://www.w3.org/1999/xlink">
<g id="graph0" class="graph" transform="scale(1 1) rotate(0) translate(4 101)">
<title>iop/kernel/include/dmacman.h</title>
<!-- Node1 -->
<g id="Node000001" class="node">
<title>Node1</title>
<g id="a_Node000001"><a xlink:title=" ">
<polygon fill="#999999" stroke="#666666" points="1207.88,-97 1116.12,-97 1116.12,-66.5 1207.88,-66.5 1207.88,-97"/>
<text text-anchor="start" x="1124.12" y="-83.5" font-family="Helvetica,sans-Serif" font-size="10.00">iop/kernel/include</text>
<text text-anchor="middle" x="1162" y="-72.25" font-family="Helvetica,sans-Serif" font-size="10.00">/dmacman.h</text>
</a>
</g>
</g>
<!-- Node2 -->
<g id="Node000002" class="node">
<title>Node2</title>
<g id="a_Node000002"><a xlink:href="iop_2dev9_2dev9_2src_2irx__imports_8h_source.html" target="_top" xlink:title=" ">
<polygon fill="white" stroke="#666666" points="106,-30.5 0,-30.5 0,0 106,0 106,-30.5"/>
<text text-anchor="start" x="8" y="-17" font-family="Helvetica,sans-Serif" font-size="10.00">iop/dev9/dev9/src/irx</text>
<text text-anchor="middle" x="53" y="-5.75" font-family="Helvetica,sans-Serif" font-size="10.00">_imports.h</text>
</a>
</g>
</g>
<!-- Node1&#45;&gt;Node2 -->
<g id="edge1_Node000001_Node000002" class="edge">
<title>Node1&#45;&gt;Node2</title>
<g id="a_edge1_Node000001_Node000002"><a xlink:title=" ">
<path fill="none" stroke="#63b8ff" d="M1104.3,-79.33C914.17,-74.46 308.58,-57.17 115,-30.5 112.16,-30.11 109.25,-29.65 106.32,-29.14"/>
<polygon fill="#63b8ff" stroke="#63b8ff" points="1104.08,-82.83 1114.17,-79.59 1104.26,-75.83 1104.08,-82.83"/>
</a>
</g>
</g>
<!-- Node3 -->
<g id="Node000003" class="node">
<title>Node3</title>
<g id="a_Node000003"><a xlink:href="ps2dev9_8c.html" target="_top" xlink:title=" ">
<polygon fill="white" stroke="#666666" points="264.25,-24.88 123.75,-24.88 123.75,-5.63 264.25,-5.63 264.25,-24.88"/>
<text text-anchor="middle" x="194" y="-11.38" font-family="Helvetica,sans-Serif" font-size="10.00">iop/dev9/dev9/src/ps2dev9.c</text>
</a>
</g>
</g>
<!-- Node1&#45;&gt;Node3 -->
<g id="edge2_Node000001_Node000003" class="edge">
<title>Node1&#45;&gt;Node3</title>
<g id="a_edge2_Node000001_Node000003"><a xlink:title=" ">
<path fill="none" stroke="#63b8ff" d="M1104.65,-79.93C963,-77.38 585.46,-67.37 273,-30.5 261.93,-29.19 250.06,-27.31 238.98,-25.34"/>
<polygon fill="#63b8ff" stroke="#63b8ff" points="1104.45,-83.43 1114.51,-80.1 1104.57,-76.43 1104.45,-83.43"/>
</a>
</g>
</g>
<!-- Node4 -->
<g id="Node000004" class="node">
<title>Node4</title>
<g id="a_Node000004"><a xlink:href="iop_2dev9_2extflash_2src_2irx__imports_8h_source.html" target="_top" xlink:title=" ">
<polygon fill="white" stroke="#666666" points="387.62,-30.5 282.38,-30.5 282.38,0 387.62,0 387.62,-30.5"/>
<text text-anchor="start" x="290.38" y="-17" font-family="Helvetica,sans-Serif" font-size="10.00">iop/dev9/extflash/src</text>
<text text-anchor="middle" x="335" y="-5.75" font-family="Helvetica,sans-Serif" font-size="10.00">/irx_imports.h</text>
</a>
</g>
</g>
<!-- Node1&#45;&gt;Node4 -->
<g id="edge3_Node000001_Node000004" class="edge">
<title>Node1&#45;&gt;Node4</title>
<g id="a_edge3_Node000001_Node000004"><a xlink:title=" ">
<path fill="none" stroke="#63b8ff" d="M1104.54,-80.19C976.57,-78.25 658.7,-69.53 396,-30.5 393.31,-30.1 390.56,-29.64 387.8,-29.14"/>
<polygon fill="#63b8ff" stroke="#63b8ff" points="1104.4,-83.69 1114.45,-80.33 1104.5,-76.69 1104.4,-83.69"/>
</a>
</g>
</g>
<!-- Node5 -->
<g id="Node000005" class="node">
<title>Node5</title>
<g id="a_Node000005"><a xlink:href="i_link_8c_source.html" target="_top" xlink:title=" ">
<polygon fill="white" stroke="#666666" points="500.75,-30.5 405.25,-30.5 405.25,0 500.75,0 500.75,-30.5"/>
<text text-anchor="start" x="413.25" y="-17" font-family="Helvetica,sans-Serif" font-size="10.00">iop/iLink/iLinkman</text>
<text text-anchor="middle" x="453" y="-5.75" font-family="Helvetica,sans-Serif" font-size="10.00">/src/iLink.c</text>
</a>
</g>
</g>
<!-- Node1&#45;&gt;Node5 -->
<g id="edge4_Node000001_Node000005" class="edge">
<title>Node1&#45;&gt;Node5</title>
<g id="a_edge4_Node000001_Node000005"><a xlink:title=" ">
<path fill="none" stroke="#63b8ff" d="M1104.63,-79.56C990.62,-76.49 727.77,-65.86 510,-30.5 507.08,-30.03 504.09,-29.48 501.08,-28.87"/>
<polygon fill="#63b8ff" stroke="#63b8ff" points="1104.24,-83.05 1114.32,-79.81 1104.42,-76.06 1104.24,-83.05"/>
</a>
</g>
</g>
<!-- Node6 -->
<g id="Node000006" class="node">
<title>Node6</title>
<g id="a_Node000006"><a xlink:href="i_link___d_m_a_8c_source.html" target="_top" xlink:title=" ">
<polygon fill="white" stroke="#666666" points="614.75,-30.5 519.25,-30.5 519.25,0 614.75,0 614.75,-30.5"/>
<text text-anchor="start" x="527.25" y="-17" font-family="Helvetica,sans-Serif" font-size="10.00">iop/iLink/iLinkman</text>
<text text-anchor="middle" x="567" y="-5.75" font-family="Helvetica,sans-Serif" font-size="10.00">/src/iLink_DMA.c</text>
</a>
</g>
</g>
<!-- Node1&#45;&gt;Node6 -->
<g id="edge5_Node000001_Node000006" class="edge">
<title>Node1&#45;&gt;Node6</title>
<g id="a_edge5_Node000001_Node000006"><a xlink:title=" ">
<path fill="none" stroke="#63b8ff" d="M1104.41,-78.24C1005.56,-73.3 797.45,-60.11 624,-30.5 621.08,-30 618.1,-29.43 615.09,-28.82"/>
<polygon fill="#63b8ff" stroke="#63b8ff" points="1103.96,-81.73 1114.12,-78.72 1104.3,-74.73 1103.96,-81.73"/>
</a>
</g>
</g>
<!-- Node7 -->
<g id="Node000007" class="node">
<title>Node7</title>
<g id="a_Node000007"><a xlink:href="i_link__internal_8c_source.html" target="_top" xlink:title=" ">
<polygon fill="white" stroke="#666666" points="733.38,-30.5 632.62,-30.5 632.62,0 733.38,0 733.38,-30.5"/>
<text text-anchor="start" x="640.62" y="-17" font-family="Helvetica,sans-Serif" font-size="10.00">iop/iLink/iLinkman</text>
<text text-anchor="middle" x="683" y="-5.75" font-family="Helvetica,sans-Serif" font-size="10.00">/src/iLink_internal.c</text>
</a>
</g>
</g>
<!-- Node1&#45;&gt;Node7 -->
<g id="edge6_Node000001_Node000007" class="edge">
<title>Node1&#45;&gt;Node7</title>
<g id="a_edge6_Node000001_Node000007"><a xlink:title=" ">
<path fill="none" stroke="#63b8ff" d="M1104.29,-76.02C1023.03,-68.86 870.48,-53.62 742,-30.5 739.3,-30.01 736.55,-29.48 733.77,-28.91"/>
<polygon fill="#63b8ff" stroke="#63b8ff" points="1103.97,-79.5 1114.24,-76.88 1104.58,-72.53 1103.97,-79.5"/>
</a>
</g>
</g>
<!-- Node8 -->
<g id="Node000008" class="node">
<title>Node8</title>
<g id="a_Node000008"><a xlink:href="i_link__intr_8c_source.html" target="_top" xlink:title=" ">
<polygon fill="white" stroke="#666666" points="846.75,-30.5 751.25,-30.5 751.25,0 846.75,0 846.75,-30.5"/>
<text text-anchor="start" x="759.25" y="-17" font-family="Helvetica,sans-Serif" font-size="10.00">iop/iLink/iLinkman</text>
<text text-anchor="middle" x="799" y="-5.75" font-family="Helvetica,sans-Serif" font-size="10.00">/src/iLink_intr.c</text>
</a>
</g>
</g>
<!-- Node1&#45;&gt;Node8 -->
<g id="edge7_Node000001_Node000008" class="edge">
<title>Node1&#45;&gt;Node8</title>
<g id="a_edge7_Node000001_Node000008"><a xlink:title=" ">
<path fill="none" stroke="#63b8ff" d="M1104.59,-72.76C1042.91,-63.84 942.11,-48.3 856,-30.5 853.1,-29.9 850.13,-29.26 847.14,-28.58"/>
<polygon fill="#63b8ff" stroke="#63b8ff" points="1103.75,-76.18 1114.15,-74.13 1104.74,-69.25 1103.75,-76.18"/>
</a>
</g>
</g>
<!-- Node9 -->
<g id="Node000009" class="node">
<title>Node9</title>
<g id="a_Node000009"><a xlink:href="iop_2i_link_2i_linkman_2src_2irx__imports_8h_source.html" target="_top" xlink:title=" ">
<polygon fill="white" stroke="#666666" points="960.75,-30.5 865.25,-30.5 865.25,0 960.75,0 960.75,-30.5"/>
<text text-anchor="start" x="873.25" y="-17" font-family="Helvetica,sans-Serif" font-size="10.00">iop/iLink/iLinkman</text>
<text text-anchor="middle" x="913" y="-5.75" font-family="Helvetica,sans-Serif" font-size="10.00">/src/irx_imports.h</text>
</a>
</g>
</g>
<!-- Node1&#45;&gt;Node9 -->
<g id="edge8_Node000001_Node000009" class="edge">
<title>Node1&#45;&gt;Node9</title>
<g id="a_edge8_Node000001_Node000009"><a xlink:title=" ">
<path fill="none" stroke="#63b8ff" d="M1104.77,-65.93C1061.3,-54.66 1002.18,-39.35 961.13,-28.72"/>
<polygon fill="#63b8ff" stroke="#63b8ff" points="1103.73,-69.27 1114.28,-68.39 1105.48,-62.49 1103.73,-69.27"/>
</a>
</g>
</g>
<!-- Node10 -->
<g id="Node000010" class="node">
<title>Node10</title>
<g id="a_Node000010"><a xlink:href="smap_8c_source.html" target="_top" xlink:title=" ">
<polygon fill="white" stroke="#666666" points="1088.88,-30.5 979.12,-30.5 979.12,0 1088.88,0 1088.88,-30.5"/>
<text text-anchor="start" x="987.12" y="-17" font-family="Helvetica,sans-Serif" font-size="10.00">iop/network/smap/src</text>
<text text-anchor="middle" x="1034" y="-5.75" font-family="Helvetica,sans-Serif" font-size="10.00">/smap.c</text>
</a>
</g>
</g>
<!-- Node1&#45;&gt;Node10 -->
<g id="edge9_Node000001_Node000010" class="edge">
<title>Node1&#45;&gt;Node10</title>
<g id="a_edge9_Node000001_Node000010"><a xlink:title=" ">
<path fill="none" stroke="#63b8ff" d="M1122.93,-61.06C1103.6,-51.32 1080.66,-39.76 1062.93,-30.83"/>
<polygon fill="#63b8ff" stroke="#63b8ff" points="1121.1,-64.06 1131.6,-65.43 1124.25,-57.81 1121.1,-64.06"/>
</a>
</g>
</g>
<!-- Node11 -->
<g id="Node000011" class="node">
<title>Node11</title>
<g id="a_Node000011"><a xlink:href="xfer_8c_source.html" target="_top" xlink:title=" ">
<polygon fill="white" stroke="#666666" points="1216.88,-30.5 1107.12,-30.5 1107.12,0 1216.88,0 1216.88,-30.5"/>
<text text-anchor="start" x="1115.12" y="-17" font-family="Helvetica,sans-Serif" font-size="10.00">iop/network/smap/src</text>
<text text-anchor="middle" x="1162" y="-5.75" font-family="Helvetica,sans-Serif" font-size="10.00">/xfer.c</text>
</a>
</g>
</g>
<!-- Node1&#45;&gt;Node11 -->
<g id="edge10_Node000001_Node000011" class="edge">
<title>Node1&#45;&gt;Node11</title>
<g id="a_edge10_Node000001_Node000011"><a xlink:title=" ">
<path fill="none" stroke="#63b8ff" d="M1162,-54.81C1162,-46.64 1162,-37.91 1162,-30.83"/>
<polygon fill="#63b8ff" stroke="#63b8ff" points="1158.5,-54.6 1162,-64.6 1165.5,-54.6 1158.5,-54.6"/>
</a>
</g>
</g>
<!-- Node12 -->
<g id="Node000012" class="node">
<title>Node12</title>
<g id="a_Node000012"><a xlink:href="iop_2sio_2mx4sio__bd_2src_2irx__imports_8h_source.html" target="_top" xlink:title=" ">
<polygon fill="white" stroke="#666666" points="1345.25,-30.5 1234.75,-30.5 1234.75,0 1345.25,0 1345.25,-30.5"/>
<text text-anchor="start" x="1242.75" y="-17" font-family="Helvetica,sans-Serif" font-size="10.00">iop/sio/mx4sio_bd/src</text>
<text text-anchor="middle" x="1290" y="-5.75" font-family="Helvetica,sans-Serif" font-size="10.00">/irx_imports.h</text>
</a>
</g>
</g>
<!-- Node1&#45;&gt;Node12 -->
<g id="edge11_Node000001_Node000012" class="edge">
<title>Node1&#45;&gt;Node12</title>
<g id="a_edge11_Node000001_Node000012"><a xlink:title=" ">
<path fill="none" stroke="#63b8ff" d="M1201.07,-61.06C1220.4,-51.32 1243.34,-39.76 1261.07,-30.83"/>
<polygon fill="#63b8ff" stroke="#63b8ff" points="1199.75,-57.81 1192.4,-65.43 1202.9,-64.06 1199.75,-57.81"/>
</a>
</g>
</g>
<!-- Node13 -->
<g id="Node000013" class="node">
<title>Node13</title>
<g id="a_Node000013"><a xlink:href="mx4sio_8c_source.html" target="_top" xlink:title=" ">
<polygon fill="white" stroke="#666666" points="1474.25,-30.5 1363.75,-30.5 1363.75,0 1474.25,0 1474.25,-30.5"/>
<text text-anchor="start" x="1371.75" y="-17" font-family="Helvetica,sans-Serif" font-size="10.00">iop/sio/mx4sio_bd/src</text>
<text text-anchor="middle" x="1419" y="-5.75" font-family="Helvetica,sans-Serif" font-size="10.00">/mx4sio.c</text>
</a>
</g>
</g>
<!-- Node1&#45;&gt;Node13 -->
<g id="edge12_Node000001_Node000013" class="edge">
<title>Node1&#45;&gt;Node13</title>
<g id="a_edge12_Node000001_Node000013"><a xlink:title=" ">
<path fill="none" stroke="#63b8ff" d="M1219.36,-66.35C1262.31,-55.57 1320.74,-40.91 1363.28,-30.23"/>
<polygon fill="#63b8ff" stroke="#63b8ff" points="1218.56,-62.95 1209.71,-68.78 1220.26,-69.74 1218.56,-62.95"/>
</a>
</g>
</g>
<!-- Node14 -->
<g id="Node000014" class="node">
<title>Node14</title>
<g id="a_Node000014"><a xlink:href="dmacman_8c_source.html" target="_top" xlink:title=" ">
<polygon fill="white" stroke="#666666" points="1601.5,-30.5 1492.5,-30.5 1492.5,0 1601.5,0 1601.5,-30.5"/>
<text text-anchor="start" x="1500.5" y="-17" font-family="Helvetica,sans-Serif" font-size="10.00">iop/system/dmacman</text>
<text text-anchor="middle" x="1547" y="-5.75" font-family="Helvetica,sans-Serif" font-size="10.00">/src/dmacman.c</text>
</a>
</g>
</g>
<!-- Node1&#45;&gt;Node14 -->
<g id="edge13_Node000001_Node000014" class="edge">
<title>Node1&#45;&gt;Node14</title>
<g id="a_edge13_Node000001_Node000014"><a xlink:title=" ">
<path fill="none" stroke="#63b8ff" d="M1219.25,-72.91C1283.61,-63.84 1391.11,-47.9 1483,-30.5 1486.02,-29.93 1489.11,-29.32 1492.23,-28.68"/>
<polygon fill="#63b8ff" stroke="#63b8ff" points="1219.06,-69.41 1209.64,-74.26 1220.03,-76.34 1219.06,-69.41"/>
</a>
</g>
</g>
<!-- Node15 -->
<g id="Node000015" class="node">
<title>Node15</title>
<g id="a_Node000015"><a xlink:href="iop_2system_2sio2man_2src_2irx__imports_8h_source.html" target="_top" xlink:title=" ">
<polygon fill="white" stroke="#666666" points="1722.5,-30.5 1619.5,-30.5 1619.5,0 1722.5,0 1722.5,-30.5"/>
<text text-anchor="start" x="1627.5" y="-17" font-family="Helvetica,sans-Serif" font-size="10.00">iop/system/sio2man</text>
<text text-anchor="middle" x="1671" y="-5.75" font-family="Helvetica,sans-Serif" font-size="10.00">/src/irx_imports.h</text>
</a>
</g>
</g>
<!-- Node1&#45;&gt;Node15 -->
<g id="edge14_Node000001_Node000015" class="edge">
<title>Node1&#45;&gt;Node15</title>
<g id="a_edge14_Node000001_Node000015"><a xlink:title=" ">
<path fill="none" stroke="#63b8ff" d="M1219.45,-76.57C1305.16,-69.83 1471.37,-54.8 1611,-30.5 1613.64,-30.04 1616.33,-29.54 1619.05,-29"/>
<polygon fill="#63b8ff" stroke="#63b8ff" points="1219.36,-73.07 1209.66,-77.33 1219.9,-80.05 1219.36,-73.07"/>
</a>
</g>
</g>
<!-- Node16 -->
<g id="Node000016" class="node">
<title>Node16</title>
<g id="a_Node000016"><a xlink:href="sio2man_8c.html" target="_top" xlink:title=" ">
<polygon fill="white" stroke="#666666" points="1843.5,-30.5 1740.5,-30.5 1740.5,0 1843.5,0 1843.5,-30.5"/>
<text text-anchor="start" x="1748.5" y="-17" font-family="Helvetica,sans-Serif" font-size="10.00">iop/system/sio2man</text>
<text text-anchor="middle" x="1792" y="-5.75" font-family="Helvetica,sans-Serif" font-size="10.00">/src/sio2man.c</text>
</a>
</g>
</g>
<!-- Node1&#45;&gt;Node16 -->
<g id="edge15_Node000001_Node000016" class="edge">
<title>Node1&#45;&gt;Node16</title>
<g id="a_edge15_Node000001_Node000016"><a xlink:title=" ">
<path fill="none" stroke="#63b8ff" d="M1219.48,-78.45C1322.68,-73.7 1545.98,-60.63 1732,-30.5 1734.64,-30.07 1737.34,-29.59 1740.06,-29.07"/>
<polygon fill="#63b8ff" stroke="#63b8ff" points="1219.43,-74.94 1209.6,-78.89 1219.75,-81.94 1219.43,-74.94"/>
</a>
</g>
</g>
<!-- Node17 -->
<g id="Node000017" class="node">
<title>Node17</title>
<g id="a_Node000017"><a xlink:href="iop_2system_2udnl_2src_2irx__imports_8h_source.html" target="_top" xlink:title=" ">
<polygon fill="white" stroke="#666666" points="1962.38,-30.5 1861.62,-30.5 1861.62,0 1962.38,0 1962.38,-30.5"/>
<text text-anchor="start" x="1869.62" y="-17" font-family="Helvetica,sans-Serif" font-size="10.00">iop/system/udnl/src</text>
<text text-anchor="middle" x="1912" y="-5.75" font-family="Helvetica,sans-Serif" font-size="10.00">/irx_imports.h</text>
</a>
</g>
</g>
<!-- Node1&#45;&gt;Node17 -->
<g id="edge16_Node000001_Node000017" class="edge">
<title>Node1&#45;&gt;Node17</title>
<g id="a_edge16_Node000001_Node000017"><a xlink:title=" ">
<path fill="none" stroke="#63b8ff" d="M1219.3,-79.76C1338.14,-77.02 1619.81,-66.89 1853,-30.5 1855.71,-30.08 1858.47,-29.59 1861.26,-29.07"/>
<polygon fill="#63b8ff" stroke="#63b8ff" points="1219.41,-76.26 1209.49,-79.98 1219.57,-83.26 1219.41,-76.26"/>
</a>
</g>
</g>
<!-- Node18 -->
<g id="Node000018" class="node">
<title>Node18</title>
<g id="a_Node000018"><a xlink:href="udnl_8c_source.html" target="_top" xlink:title=" ">
<polygon fill="white" stroke="#666666" points="2081.38,-30.5 1980.62,-30.5 1980.62,0 2081.38,0 2081.38,-30.5"/>
<text text-anchor="start" x="1988.62" y="-17" font-family="Helvetica,sans-Serif" font-size="10.00">iop/system/udnl/src</text>
<text text-anchor="middle" x="2031" y="-5.75" font-family="Helvetica,sans-Serif" font-size="10.00">/udnl.c</text>
</a>
</g>
</g>
<!-- Node1&#45;&gt;Node18 -->
<g id="edge17_Node000001_Node000018" class="edge">
<title>Node1&#45;&gt;Node18</title>
<g id="a_edge17_Node000001_Node000018"><a xlink:title=" ">
<path fill="none" stroke="#63b8ff" d="M1219.85,-80.54C1353.1,-79.33 1691.65,-72.04 1971,-30.5 1974.07,-30.04 1977.22,-29.51 1980.38,-28.92"/>
<polygon fill="#63b8ff" stroke="#63b8ff" points="1219.84,-77.04 1209.87,-80.62 1219.89,-84.04 1219.84,-77.04"/>
</a>
</g>
</g>
<!-- Node19 -->
<g id="Node000019" class="node">
<title>Node19</title>
<g id="a_Node000019"><a xlink:href="iop_2usb_2camera_2src_2irx__imports_8h_source.html" target="_top" xlink:title=" ">
<polygon fill="white" stroke="#666666" points="2198.62,-30.5 2099.38,-30.5 2099.38,0 2198.62,0 2198.62,-30.5"/>
<text text-anchor="start" x="2107.38" y="-17" font-family="Helvetica,sans-Serif" font-size="10.00">iop/usb/camera/src</text>
<text text-anchor="middle" x="2149" y="-5.75" font-family="Helvetica,sans-Serif" font-size="10.00">/irx_imports.h</text>
</a>
</g>
</g>
<!-- Node1&#45;&gt;Node19 -->
<g id="edge18_Node000001_Node000019" class="edge">
<title>Node1&#45;&gt;Node19</title>
<g id="a_edge18_Node000001_Node000019"><a xlink:title=" ">
<path fill="none" stroke="#63b8ff" d="M1219.48,-81.28C1365.67,-81.83 1763.2,-78.4 2090,-30.5 2092.92,-30.07 2095.91,-29.57 2098.91,-29.01"/>
<polygon fill="#63b8ff" stroke="#63b8ff" points="1219.69,-77.78 1209.68,-81.23 1219.66,-84.78 1219.69,-77.78"/>
</a>
</g>
</g>
<!-- Node20 -->
<g id="Node000020" class="node">
<title>Node20</title>
<g id="a_Node000020"><a xlink:href="iop_2usb_2keyboard_2src_2irx__imports_8h_source.html" target="_top" xlink:title=" ">
<polygon fill="white" stroke="#666666" points="2323,-30.5 2217,-30.5 2217,0 2323,0 2323,-30.5"/>
<text text-anchor="start" x="2225" y="-17" font-family="Helvetica,sans-Serif" font-size="10.00">iop/usb/keyboard/src</text>
<text text-anchor="middle" x="2270" y="-5.75" font-family="Helvetica,sans-Serif" font-size="10.00">/irx_imports.h</text>
</a>
</g>
</g>
<!-- Node1&#45;&gt;Node20 -->
<g id="edge19_Node000001_Node000020" class="edge">
<title>Node1&#45;&gt;Node20</title>
<g id="a_edge19_Node000001_Node000020"><a xlink:title=" ">
<path fill="none" stroke="#63b8ff" d="M1219.65,-79.33C1409.59,-74.45 2014.61,-57.15 2208,-30.5 2210.84,-30.11 2213.75,-29.65 2216.68,-29.14"/>
<polygon fill="#63b8ff" stroke="#63b8ff" points="1219.69,-75.83 1209.79,-79.58 1219.87,-82.83 1219.69,-75.83"/>
</a>
</g>
</g>
</g>
</svg>
