<?xml version="1.0" encoding="UTF-8" standalone="no"?>
<!DOCTYPE svg PUBLIC "-//W3C//DTD SVG 1.1//EN"
 "http://www.w3.org/Graphics/SVG/1.1/DTD/svg11.dtd">
<!-- Generated by graphviz version 2.44.0 ()
 -->
<!-- Title: iop/kernel/include/dmacman.h Pages: 1 -->
<!--zoomable 106 -->
<svg id="main" version="1.1" xmlns="http://www.w3.org/2000/svg" xmlns:xlink="http://www.w3.org/1999/xlink" xml:space="preserve" onload="init(evt)">
<style type="text/css"><![CDATA[
.edge:hover path { stroke: red; }
.edge:hover polygon { stroke: red; fill: red; }
]]></style>
<script type="text/javascript"><![CDATA[
var edges = document.getElementsByTagName('g');
if (edges && edges.length) {
  for (var i=0;i<edges.length;i++) {
    if (edges[i].id.substr(0,4)=='edge') {
      edges[i].setAttribute('class','edge');
    }
  }
}
]]></script>
        <defs>
                <circle id="rim" cx="0" cy="0" r="7"/>
                <circle id="rim2" cx="0" cy="0" r="3.5"/>
                <g id="zoomPlus">
                        <use xlink:href="#rim" fill="#404040">
                                <set attributeName="fill" to="#808080" begin="zoomplus.mouseover" end="zoomplus.mouseout"/>
                        </use>
                        <path d="M-4,0h8M0,-4v8" fill="none" stroke="white" stroke-width="1.5" pointer-events="none"/>
                </g>
                <g id="zoomMin">
                        <use xlink:href="#rim" fill="#404040">
                                <set attributeName="fill" to="#808080" begin="zoomminus.mouseover" end="zoomminus.mouseout"/>
                        </use>
                        <path d="M-4,0h8" fill="none" stroke="white" stroke-width="1.5" pointer-events="none"/>
                </g>
                <g id="dirArrow">
                        <path fill="none" stroke="white" stroke-width="1.5" d="M0,-3.0v7 M-2.5,-0.5L0,-3.0L2.5,-0.5"/>
                </g>
               <g id="resetDef">
                       <use xlink:href="#rim2" fill="#404040">
                               <set attributeName="fill" to="#808080" begin="reset.mouseover" end="reset.mouseout"/>
                       </use>
               </g>
        </defs>

<script type="text/javascript">
var viewWidth = 1977;
var viewHeight = 106;
var sectionId = 'dynsection-1';
</script>
<script xlink:href="svgpan.js"/>
<svg id="graph" class="graph">
<g id="viewport">
<title>iop/kernel/include/dmacman.h</title>
<polygon fill="white" stroke="transparent" points="-4,4 -4,-102 1973,-102 1973,4 -4,4"/>
<!-- Node1 -->
<g id="node1" class="node">
<title>Node1</title>
<g id="a_node1"><a xlink:title=" ">
<polygon fill="#bfbfbf" stroke="black" points="932.5,-67.5 932.5,-97.5 1024.5,-97.5 1024.5,-67.5 932.5,-67.5"/>
<text text-anchor="start" x="940.5" y="-85.5" font-family="Helvetica,sans-Serif" font-size="10.00">iop/kernel/include</text>
<text text-anchor="middle" x="978.5" y="-74.5" font-family="Helvetica,sans-Serif" font-size="10.00">/dmacman.h</text>
</a>
</g>
</g>
<!-- Node2 -->
<g id="node2" class="node">
<title>Node2</title>
<g id="a_node2"><a xlink:href="iop_2dev9_2dev9_2src_2irx__imports_8h_source.html" target="_top" xlink:title=" ">
<polygon fill="white" stroke="black" points="0,-0.5 0,-30.5 107,-30.5 107,-0.5 0,-0.5"/>
<text text-anchor="start" x="8" y="-18.5" font-family="Helvetica,sans-Serif" font-size="10.00">iop/dev9/dev9/src/irx</text>
<text text-anchor="middle" x="53.5" y="-7.5" font-family="Helvetica,sans-Serif" font-size="10.00">_imports.h</text>
</a>
</g>
</g>
<!-- Node1&#45;&gt;Node2 -->
<g id="edge1" class="edge">
<title>Node1&#45;&gt;Node2</title>
<path fill="none" stroke="midnightblue" d="M922.04,-81.53C783.74,-80.88 417.32,-74.79 115.5,-31 112.77,-30.6 109.97,-30.15 107.16,-29.64"/>
<polygon fill="midnightblue" stroke="midnightblue" points="922.36,-85.03 932.38,-81.57 922.39,-78.03 922.36,-85.03"/>
</g>
<!-- Node3 -->
<g id="node3" class="node">
<title>Node3</title>
<g id="a_node3"><a xlink:href="ps2dev9_8c.html" target="_top" xlink:title=" ">
<polygon fill="white" stroke="black" points="125,-6 125,-25 266,-25 266,-6 125,-6"/>
<text text-anchor="middle" x="195.5" y="-13" font-family="Helvetica,sans-Serif" font-size="10.00">iop/dev9/dev9/src/ps2dev9.c</text>
</a>
</g>
</g>
<!-- Node1&#45;&gt;Node3 -->
<g id="edge2" class="edge">
<title>Node1&#45;&gt;Node3</title>
<path fill="none" stroke="midnightblue" d="M922.26,-79.52C802.77,-74.85 514.96,-61.21 275.5,-31 263.18,-29.45 249.87,-27.25 237.72,-25.03"/>
<polygon fill="midnightblue" stroke="midnightblue" points="922.14,-83.01 932.27,-79.9 922.41,-76.02 922.14,-83.01"/>
</g>
<!-- Node4 -->
<g id="node4" class="node">
<title>Node4</title>
<g id="a_node4"><a xlink:href="iop_2dev9_2extflash_2src_2irx__imports_8h_source.html" target="_top" xlink:title=" ">
<polygon fill="white" stroke="black" points="284.5,-0.5 284.5,-30.5 390.5,-30.5 390.5,-0.5 284.5,-0.5"/>
<text text-anchor="start" x="292.5" y="-18.5" font-family="Helvetica,sans-Serif" font-size="10.00">iop/dev9/extflash/src</text>
<text text-anchor="middle" x="337.5" y="-7.5" font-family="Helvetica,sans-Serif" font-size="10.00">/irx_imports.h</text>
</a>
</g>
</g>
<!-- Node1&#45;&gt;Node4 -->
<g id="edge3" class="edge">
<title>Node1&#45;&gt;Node4</title>
<path fill="none" stroke="midnightblue" d="M922.19,-79.26C818.31,-74.54 589.75,-61.39 399.5,-31 396.55,-30.53 393.54,-30 390.5,-29.42"/>
<polygon fill="midnightblue" stroke="midnightblue" points="922.3,-82.77 932.44,-79.72 922.61,-75.78 922.3,-82.77"/>
</g>
<!-- Node5 -->
<g id="node5" class="node">
<title>Node5</title>
<g id="a_node5"><a xlink:href="i_link_8c_source.html" target="_top" xlink:title=" ">
<polygon fill="white" stroke="black" points="408.5,-0.5 408.5,-30.5 504.5,-30.5 504.5,-0.5 408.5,-0.5"/>
<text text-anchor="start" x="416.5" y="-18.5" font-family="Helvetica,sans-Serif" font-size="10.00">iop/iLink/iLinkman</text>
<text text-anchor="middle" x="456.5" y="-7.5" font-family="Helvetica,sans-Serif" font-size="10.00">/src/iLink.c</text>
</a>
</g>
</g>
<!-- Node1&#45;&gt;Node5 -->
<g id="edge4" class="edge">
<title>Node1&#45;&gt;Node5</title>
<path fill="none" stroke="midnightblue" d="M922.31,-77.96C834.53,-71.87 659.74,-57.41 513.5,-31 510.59,-30.47 507.6,-29.88 504.6,-29.24"/>
<polygon fill="midnightblue" stroke="midnightblue" points="922.11,-81.46 932.32,-78.65 922.58,-74.48 922.11,-81.46"/>
</g>
<!-- Node6 -->
<g id="node6" class="node">
<title>Node6</title>
<g id="a_node6"><a xlink:href="i_link___d_m_a_8c_source.html" target="_top" xlink:title=" ">
<polygon fill="white" stroke="black" points="522.5,-0.5 522.5,-30.5 618.5,-30.5 618.5,-0.5 522.5,-0.5"/>
<text text-anchor="start" x="530.5" y="-18.5" font-family="Helvetica,sans-Serif" font-size="10.00">iop/iLink/iLinkman</text>
<text text-anchor="middle" x="570.5" y="-7.5" font-family="Helvetica,sans-Serif" font-size="10.00">/src/iLink_DMA.c</text>
</a>
</g>
</g>
<!-- Node1&#45;&gt;Node6 -->
<g id="edge5" class="edge">
<title>Node1&#45;&gt;Node6</title>
<path fill="none" stroke="midnightblue" d="M921.94,-75.24C852.3,-67.1 730.6,-51.47 627.5,-31 624.6,-30.42 621.62,-29.79 618.62,-29.12"/>
<polygon fill="midnightblue" stroke="midnightblue" points="921.9,-78.76 932.24,-76.43 922.71,-71.8 921.9,-78.76"/>
</g>
<!-- Node7 -->
<g id="node7" class="node">
<title>Node7</title>
<g id="a_node7"><a xlink:href="i_link__internal_8c_source.html" target="_top" xlink:title=" ">
<polygon fill="white" stroke="black" points="637,-0.5 637,-30.5 738,-30.5 738,-0.5 637,-0.5"/>
<text text-anchor="start" x="645" y="-18.5" font-family="Helvetica,sans-Serif" font-size="10.00">iop/iLink/iLinkman</text>
<text text-anchor="middle" x="687.5" y="-7.5" font-family="Helvetica,sans-Serif" font-size="10.00">/src/iLink_internal.c</text>
</a>
</g>
</g>
<!-- Node1&#45;&gt;Node7 -->
<g id="edge6" class="edge">
<title>Node1&#45;&gt;Node7</title>
<path fill="none" stroke="midnightblue" d="M922.47,-69.61C875.64,-59.59 807.13,-44.72 747.5,-31 744.47,-30.3 741.36,-29.58 738.22,-28.84"/>
<polygon fill="midnightblue" stroke="midnightblue" points="921.9,-73.07 932.41,-71.74 923.37,-66.22 921.9,-73.07"/>
</g>
<!-- Node8 -->
<g id="node8" class="node">
<title>Node8</title>
<g id="a_node8"><a xlink:href="i_link__intr_8c_source.html" target="_top" xlink:title=" ">
<polygon fill="white" stroke="black" points="756.5,-0.5 756.5,-30.5 852.5,-30.5 852.5,-0.5 756.5,-0.5"/>
<text text-anchor="start" x="764.5" y="-18.5" font-family="Helvetica,sans-Serif" font-size="10.00">iop/iLink/iLinkman</text>
<text text-anchor="middle" x="804.5" y="-7.5" font-family="Helvetica,sans-Serif" font-size="10.00">/src/iLink_intr.c</text>
</a>
</g>
</g>
<!-- Node1&#45;&gt;Node8 -->
<g id="edge7" class="edge">
<title>Node1&#45;&gt;Node8</title>
<path fill="none" stroke="midnightblue" d="M931.17,-63.82C903.2,-53.37 868.27,-40.32 842.18,-30.58"/>
<polygon fill="midnightblue" stroke="midnightblue" points="930.15,-67.18 940.74,-67.4 932.6,-60.62 930.15,-67.18"/>
</g>
<!-- Node9 -->
<g id="node9" class="node">
<title>Node9</title>
<g id="a_node9"><a xlink:href="iop_2i_link_2i_linkman_2src_2irx__imports_8h_source.html" target="_top" xlink:title=" ">
<polygon fill="white" stroke="black" points="870.5,-0.5 870.5,-30.5 966.5,-30.5 966.5,-0.5 870.5,-0.5"/>
<text text-anchor="start" x="878.5" y="-18.5" font-family="Helvetica,sans-Serif" font-size="10.00">iop/iLink/iLinkman</text>
<text text-anchor="middle" x="918.5" y="-7.5" font-family="Helvetica,sans-Serif" font-size="10.00">/src/irx_imports.h</text>
</a>
</g>
</g>
<!-- Node1&#45;&gt;Node9 -->
<g id="edge8" class="edge">
<title>Node1&#45;&gt;Node9</title>
<path fill="none" stroke="midnightblue" d="M958.68,-60.02C949.74,-50.34 939.43,-39.17 931.49,-30.58"/>
<polygon fill="midnightblue" stroke="midnightblue" points="956.13,-62.42 965.48,-67.4 961.27,-57.67 956.13,-62.42"/>
</g>
<!-- Node10 -->
<g id="node10" class="node">
<title>Node10</title>
<g id="a_node10"><a xlink:href="smap_8c_source.html" target="_top" xlink:title=" ">
<polygon fill="white" stroke="black" points="984.5,-0.5 984.5,-30.5 1094.5,-30.5 1094.5,-0.5 984.5,-0.5"/>
<text text-anchor="start" x="992.5" y="-18.5" font-family="Helvetica,sans-Serif" font-size="10.00">iop/network/smap/src</text>
<text text-anchor="middle" x="1039.5" y="-7.5" font-family="Helvetica,sans-Serif" font-size="10.00">/smap.c</text>
</a>
</g>
</g>
<!-- Node1&#45;&gt;Node10 -->
<g id="edge9" class="edge">
<title>Node1&#45;&gt;Node10</title>
<path fill="none" stroke="midnightblue" d="M998.65,-60.02C1007.74,-50.34 1018.22,-39.17 1026.29,-30.58"/>
<polygon fill="midnightblue" stroke="midnightblue" points="996.03,-57.71 991.74,-67.4 1001.13,-62.5 996.03,-57.71"/>
</g>
<!-- Node11 -->
<g id="node11" class="node">
<title>Node11</title>
<g id="a_node11"><a xlink:href="xfer_8c_source.html" target="_top" xlink:title=" ">
<polygon fill="white" stroke="black" points="1112.5,-0.5 1112.5,-30.5 1222.5,-30.5 1222.5,-0.5 1112.5,-0.5"/>
<text text-anchor="start" x="1120.5" y="-18.5" font-family="Helvetica,sans-Serif" font-size="10.00">iop/network/smap/src</text>
<text text-anchor="middle" x="1167.5" y="-7.5" font-family="Helvetica,sans-Serif" font-size="10.00">/xfer.c</text>
</a>
</g>
</g>
<!-- Node1&#45;&gt;Node11 -->
<g id="edge10" class="edge">
<title>Node1&#45;&gt;Node11</title>
<path fill="none" stroke="midnightblue" d="M1029.12,-64.09C1059.63,-53.6 1097.98,-40.41 1126.57,-30.58"/>
<polygon fill="midnightblue" stroke="midnightblue" points="1027.83,-60.83 1019.51,-67.4 1030.1,-67.45 1027.83,-60.83"/>
</g>
<!-- Node12 -->
<g id="node12" class="node">
<title>Node12</title>
<g id="a_node12"><a xlink:href="iop_2sio_2mx4sio__bd_2src_2irx__imports_8h_source.html" target="_top" xlink:title=" ">
<polygon fill="white" stroke="black" points="1241,-0.5 1241,-30.5 1352,-30.5 1352,-0.5 1241,-0.5"/>
<text text-anchor="start" x="1249" y="-18.5" font-family="Helvetica,sans-Serif" font-size="10.00">iop/sio/mx4sio_bd/src</text>
<text text-anchor="middle" x="1296.5" y="-7.5" font-family="Helvetica,sans-Serif" font-size="10.00">/irx_imports.h</text>
</a>
</g>
</g>
<!-- Node1&#45;&gt;Node12 -->
<g id="edge11" class="edge">
<title>Node1&#45;&gt;Node12</title>
<path fill="none" stroke="midnightblue" d="M1034.63,-70.67C1085.95,-60.68 1163.92,-45.28 1231.5,-31 1234.55,-30.35 1237.69,-29.68 1240.85,-29"/>
<polygon fill="midnightblue" stroke="midnightblue" points="1033.88,-67.25 1024.73,-72.6 1035.21,-74.12 1033.88,-67.25"/>
</g>
<!-- Node13 -->
<g id="node13" class="node">
<title>Node13</title>
<g id="a_node13"><a xlink:href="mx4sio_8c_source.html" target="_top" xlink:title=" ">
<polygon fill="white" stroke="black" points="1370,-0.5 1370,-30.5 1481,-30.5 1481,-0.5 1370,-0.5"/>
<text text-anchor="start" x="1378" y="-18.5" font-family="Helvetica,sans-Serif" font-size="10.00">iop/sio/mx4sio_bd/src</text>
<text text-anchor="middle" x="1425.5" y="-7.5" font-family="Helvetica,sans-Serif" font-size="10.00">/mx4sio.c</text>
</a>
</g>
</g>
<!-- Node1&#45;&gt;Node13 -->
<g id="edge12" class="edge">
<title>Node1&#45;&gt;Node13</title>
<path fill="none" stroke="midnightblue" d="M1034.85,-75.71C1109.75,-67.63 1246.11,-51.63 1361.5,-31 1364.19,-30.52 1366.94,-30 1369.71,-29.46"/>
<polygon fill="midnightblue" stroke="midnightblue" points="1034.27,-72.25 1024.7,-76.79 1035.01,-79.21 1034.27,-72.25"/>
</g>
<!-- Node14 -->
<g id="node14" class="node">
<title>Node14</title>
<g id="a_node14"><a xlink:href="iop_2system_2sio2man_2src_2irx__imports_8h_source.html" target="_top" xlink:title=" ">
<polygon fill="white" stroke="black" points="1499.5,-0.5 1499.5,-30.5 1603.5,-30.5 1603.5,-0.5 1499.5,-0.5"/>
<text text-anchor="start" x="1507.5" y="-18.5" font-family="Helvetica,sans-Serif" font-size="10.00">iop/system/sio2man</text>
<text text-anchor="middle" x="1551.5" y="-7.5" font-family="Helvetica,sans-Serif" font-size="10.00">/src/irx_imports.h</text>
</a>
</g>
</g>
<!-- Node1&#45;&gt;Node14 -->
<g id="edge13" class="edge">
<title>Node1&#45;&gt;Node14</title>
<path fill="none" stroke="midnightblue" d="M1034.88,-78.44C1129.54,-72.74 1326.2,-58.5 1490.5,-31 1493.4,-30.51 1496.36,-29.97 1499.35,-29.39"/>
<polygon fill="midnightblue" stroke="midnightblue" points="1034.45,-74.96 1024.67,-79.04 1034.86,-81.94 1034.45,-74.96"/>
</g>
<!-- Node15 -->
<g id="node15" class="node">
<title>Node15</title>
<g id="a_node15"><a xlink:href="sio2man_8c.html" target="_top" xlink:title=" ">
<polygon fill="white" stroke="black" points="1621.5,-0.5 1621.5,-30.5 1725.5,-30.5 1725.5,-0.5 1621.5,-0.5"/>
<text text-anchor="start" x="1629.5" y="-18.5" font-family="Helvetica,sans-Serif" font-size="10.00">iop/system/sio2man</text>
<text text-anchor="middle" x="1673.5" y="-7.5" font-family="Helvetica,sans-Serif" font-size="10.00">/src/sio2man.c</text>
</a>
</g>
</g>
<!-- Node1&#45;&gt;Node15 -->
<g id="edge14" class="edge">
<title>Node1&#45;&gt;Node15</title>
<path fill="none" stroke="midnightblue" d="M1034.83,-79.92C1145.94,-76.16 1400.91,-64.37 1612.5,-31 1615.4,-30.54 1618.37,-30.02 1621.36,-29.45"/>
<polygon fill="midnightblue" stroke="midnightblue" points="1034.41,-76.43 1024.53,-80.26 1034.64,-83.43 1034.41,-76.43"/>
</g>
<!-- Node16 -->
<g id="node16" class="node">
<title>Node16</title>
<g id="a_node16"><a xlink:href="iop_2usb_2camera_2src_2irx__imports_8h_source.html" target="_top" xlink:title=" ">
<polygon fill="white" stroke="black" points="1743.5,-0.5 1743.5,-30.5 1843.5,-30.5 1843.5,-0.5 1743.5,-0.5"/>
<text text-anchor="start" x="1751.5" y="-18.5" font-family="Helvetica,sans-Serif" font-size="10.00">iop/usb/camera/src</text>
<text text-anchor="middle" x="1793.5" y="-7.5" font-family="Helvetica,sans-Serif" font-size="10.00">/irx_imports.h</text>
</a>
</g>
</g>
<!-- Node1&#45;&gt;Node16 -->
<g id="edge15" class="edge">
<title>Node1&#45;&gt;Node16</title>
<path fill="none" stroke="midnightblue" d="M1035.02,-81.08C1161.24,-79.41 1475.31,-71.19 1734.5,-31 1737.42,-30.55 1740.4,-30.02 1743.41,-29.44"/>
<polygon fill="midnightblue" stroke="midnightblue" points="1034.79,-77.58 1024.83,-81.21 1034.87,-84.58 1034.79,-77.58"/>
</g>
<!-- Node17 -->
<g id="node17" class="node">
<title>Node17</title>
<g id="a_node17"><a xlink:href="iop_2usb_2keyboard_2src_2irx__imports_8h_source.html" target="_top" xlink:title=" ">
<polygon fill="white" stroke="black" points="1862,-0.5 1862,-30.5 1969,-30.5 1969,-0.5 1862,-0.5"/>
<text text-anchor="start" x="1870" y="-18.5" font-family="Helvetica,sans-Serif" font-size="10.00">iop/usb/keyboard/src</text>
<text text-anchor="middle" x="1915.5" y="-7.5" font-family="Helvetica,sans-Serif" font-size="10.00">/irx_imports.h</text>
</a>
</g>
</g>
<!-- Node1&#45;&gt;Node17 -->
<g id="edge16" class="edge">
<title>Node1&#45;&gt;Node17</title>
<path fill="none" stroke="midnightblue" d="M1034.75,-81.52C1174.07,-80.87 1546.08,-74.8 1852.5,-31 1855.61,-30.56 1858.8,-30.03 1862,-29.46"/>
<polygon fill="midnightblue" stroke="midnightblue" points="1034.72,-78.02 1024.73,-81.56 1034.75,-85.02 1034.72,-78.02"/>
</g>
</g>
</svg>
        <g id="navigator" transform="translate(0 0)" fill="#404254">
                <rect fill="#f2f5e9" fill-opacity="0.5" stroke="#606060" stroke-width=".5" x="0" y="0" width="60" height="60"/>
                <use id="zoomplus" xlink:href="#zoomPlus" x="17" y="9" onmousedown="handleZoom(evt,'in')"/>
                <use id="zoomminus" xlink:href="#zoomMin" x="42" y="9" onmousedown="handleZoom(evt,'out')"/>
                <use id="reset" xlink:href="#resetDef" x="30" y="36" onmousedown="handleReset()"/>
                <g id="arrowUp" xlink:href="#dirArrow" transform="translate(30 24)" onmousedown="handlePan(0,-1)">
                  <use xlink:href="#rim" fill="#404040">
                        <set attributeName="fill" to="#808080" begin="arrowUp.mouseover" end="arrowUp.mouseout"/>
                  </use>
                  <path fill="none" stroke="white" stroke-width="1.5" d="M0,-3.0v7 M-2.5,-0.5L0,-3.0L2.5,-0.5"/>
                </g>
                <g id="arrowRight" xlink:href="#dirArrow" transform="rotate(90) translate(36 -43)" onmousedown="handlePan(1,0)">
                  <use xlink:href="#rim" fill="#404040">
                        <set attributeName="fill" to="#808080" begin="arrowRight.mouseover" end="arrowRight.mouseout"/>
                  </use>
                  <path fill="none" stroke="white" stroke-width="1.5" d="M0,-3.0v7 M-2.5,-0.5L0,-3.0L2.5,-0.5"/>
                </g>
                <g id="arrowDown" xlink:href="#dirArrow" transform="rotate(180) translate(-30 -48)" onmousedown="handlePan(0,1)">
                  <use xlink:href="#rim" fill="#404040">
                        <set attributeName="fill" to="#808080" begin="arrowDown.mouseover" end="arrowDown.mouseout"/>
                  </use>
                  <path fill="none" stroke="white" stroke-width="1.5" d="M0,-3.0v7 M-2.5,-0.5L0,-3.0L2.5,-0.5"/>
                </g>
                <g id="arrowLeft" xlink:href="#dirArrow" transform="rotate(270) translate(-36 17)" onmousedown="handlePan(-1,0)">
                  <use xlink:href="#rim" fill="#404040">
                        <set attributeName="fill" to="#808080" begin="arrowLeft.mouseover" end="arrowLeft.mouseout"/>
                  </use>
                  <path fill="none" stroke="white" stroke-width="1.5" d="M0,-3.0v7 M-2.5,-0.5L0,-3.0L2.5,-0.5"/>
                </g>
        </g>
        <svg viewBox="0 0 15 15" width="100%" height="30px" preserveAspectRatio="xMaxYMin meet">
         <g id="arrow_out" transform="scale(0.3 0.3)">
          <a xlink:href="dmacman_8h__dep__incl_org.svg" target="_base">
           <rect id="button" ry="5" rx="5" y="6" x="6" height="38" width="38"
                fill="#f2f5e9" fill-opacity="0.5" stroke="#606060" stroke-width="1.0"/>
           <path id="arrow"
             d="M 11.500037,31.436501 C 11.940474,20.09759 22.043105,11.32322 32.158766,21.979434 L 37.068811,17.246167 C 37.068811,17.246167 37.088388,32 37.088388,32 L 22.160133,31.978069 C 22.160133,31.978069 26.997745,27.140456 26.997745,27.140456 C 18.528582,18.264221 13.291696,25.230495 11.500037,31.436501 z"
             style="fill:#404040;"/>
          </a>
         </g>
        </svg>
</svg>
