<?xml version="1.0" encoding="UTF-8" standalone="no"?>
<!DOCTYPE svg PUBLIC "-//W3C//DTD SVG 1.1//EN"
 "http://www.w3.org/Graphics/SVG/1.1/DTD/svg11.dtd">
<!-- Generated by graphviz version 12.2.0 (20241103.1931)
 -->
<!-- Title: iop/system/dmacman/include/dmacman.h Pages: 1 -->
<svg width="3024pt" height="238pt"
 viewBox="0.00 0.00 3023.88 238.00" xmlns="http://www.w3.org/2000/svg" xmlns:xlink="http://www.w3.org/1999/xlink">
<g id="graph0" class="graph" transform="scale(1 1) rotate(0) translate(4 234)">
<title>iop/system/dmacman/include/dmacman.h</title>
<!-- Node1 -->
<g id="Node000001" class="node">
<title>Node1</title>
<g id="a_Node000001"><a xlink:title=" ">
<polygon fill="#999999" stroke="#666666" points="1667.38,-230 1558.38,-230 1558.38,-199.5 1667.38,-199.5 1667.38,-230"/>
<text text-anchor="start" x="1566.38" y="-216.5" font-family="Helvetica,sans-Serif" font-size="10.00">iop/system/dmacman</text>
<text text-anchor="middle" x="1612.88" y="-205.25" font-family="Helvetica,sans-Serif" font-size="10.00">/include/dmacman.h</text>
</a>
</g>
</g>
<!-- Node2 -->
<g id="Node000002" class="node">
<title>Node2</title>
<g id="a_Node000002"><a xlink:href="iop_2arcade_2accore_2src_2irx__imports_8h_source.html" target="_top" xlink:title=" ">
<polygon fill="white" stroke="#666666" points="301.75,-163.5 192,-163.5 192,-133 301.75,-133 301.75,-163.5"/>
<text text-anchor="start" x="200" y="-150" font-family="Helvetica,sans-Serif" font-size="10.00">iop/arcade/accore/src</text>
<text text-anchor="middle" x="246.88" y="-138.75" font-family="Helvetica,sans-Serif" font-size="10.00">/irx_imports.h</text>
</a>
</g>
</g>
<!-- Node1&#45;&gt;Node2 -->
<g id="edge1_Node000001_Node000002" class="edge">
<title>Node1&#45;&gt;Node2</title>
<g id="a_edge1_Node000001_Node000002"><a xlink:title=" ">
<path fill="none" stroke="#63b8ff" d="M1546.7,-212.78C1316.82,-209.14 553.69,-194.96 310.88,-163.5 307.94,-163.12 304.94,-162.67 301.92,-162.17"/>
<polygon fill="#63b8ff" stroke="#63b8ff" points="1546.31,-216.27 1556.37,-212.93 1546.42,-209.27 1546.31,-216.27"/>
</a>
</g>
</g>
<!-- Node8 -->
<g id="Node000008" class="node">
<title>Node8</title>
<g id="a_Node000008"><a xlink:href="iop_2arcade_2s147nand_2src_2irx__imports_8h_source.html" target="_top" xlink:title=" ">
<polygon fill="white" stroke="#666666" points="425.88,-163.5 319.88,-163.5 319.88,-133 425.88,-133 425.88,-163.5"/>
<text text-anchor="start" x="327.88" y="-150" font-family="Helvetica,sans-Serif" font-size="10.00">iop/arcade/s147nand</text>
<text text-anchor="middle" x="372.88" y="-138.75" font-family="Helvetica,sans-Serif" font-size="10.00">/src/irx_imports.h</text>
</a>
</g>
</g>
<!-- Node1&#45;&gt;Node8 -->
<g id="edge7_Node000001_Node000008" class="edge">
<title>Node1&#45;&gt;Node8</title>
<g id="a_edge7_Node000001_Node000008"><a xlink:title=" ">
<path fill="none" stroke="#63b8ff" d="M1546.61,-212.52C1331.22,-208.28 652.24,-192.86 434.88,-163.5 432.03,-163.12 429.12,-162.66 426.2,-162.16"/>
<polygon fill="#63b8ff" stroke="#63b8ff" points="1546.44,-216.02 1556.51,-212.72 1546.58,-209.02 1546.44,-216.02"/>
</a>
</g>
</g>
<!-- Node10 -->
<g id="Node000010" class="node">
<title>Node10</title>
<g id="a_Node000010"><a xlink:href="iop_2cdvd_2cdvdfsv_2src_2irx__imports_8h_source.html" target="_top" xlink:title=" ">
<polygon fill="white" stroke="#666666" points="550.25,-163.5 443.5,-163.5 443.5,-133 550.25,-133 550.25,-163.5"/>
<text text-anchor="start" x="451.5" y="-150" font-family="Helvetica,sans-Serif" font-size="10.00">iop/cdvd/cdvdfsv/src</text>
<text text-anchor="middle" x="496.88" y="-138.75" font-family="Helvetica,sans-Serif" font-size="10.00">/irx_imports.h</text>
</a>
</g>
</g>
<!-- Node1&#45;&gt;Node10 -->
<g id="edge9_Node000001_Node000010" class="edge">
<title>Node1&#45;&gt;Node10</title>
<g id="a_edge9_Node000001_Node000010"><a xlink:title=" ">
<path fill="none" stroke="#63b8ff" d="M1546.6,-212.14C1346.6,-207.03 751.05,-189.95 558.88,-163.5 556.14,-163.12 553.35,-162.68 550.54,-162.2"/>
<polygon fill="#63b8ff" stroke="#63b8ff" points="1546.48,-215.64 1556.56,-212.39 1546.65,-208.64 1546.48,-215.64"/>
</a>
</g>
</g>
<!-- Node12 -->
<g id="Node000012" class="node">
<title>Node12</title>
<g id="a_Node000012"><a xlink:href="iop_2cdvd_2cdvdman_2src_2irx__imports_8h_source.html" target="_top" xlink:title=" ">
<polygon fill="white" stroke="#666666" points="679.88,-163.5 567.88,-163.5 567.88,-133 679.88,-133 679.88,-163.5"/>
<text text-anchor="start" x="575.88" y="-150" font-family="Helvetica,sans-Serif" font-size="10.00">iop/cdvd/cdvdman/src</text>
<text text-anchor="middle" x="623.88" y="-138.75" font-family="Helvetica,sans-Serif" font-size="10.00">/irx_imports.h</text>
</a>
</g>
</g>
<!-- Node1&#45;&gt;Node12 -->
<g id="edge11_Node000001_Node000012" class="edge">
<title>Node1&#45;&gt;Node12</title>
<g id="a_edge11_Node000001_Node000012"><a xlink:title=" ">
<path fill="none" stroke="#63b8ff" d="M1546.48,-213.81C1394.16,-213.13 1008.09,-206.88 688.88,-163.5 686.01,-163.11 683.09,-162.66 680.15,-162.17"/>
<polygon fill="#63b8ff" stroke="#63b8ff" points="1546.38,-217.3 1556.39,-213.84 1546.41,-210.3 1546.38,-217.3"/>
</a>
</g>
</g>
<!-- Node14 -->
<g id="Node000014" class="node">
<title>Node14</title>
<g id="a_Node000014"><a xlink:href="iop_2cdvd_2xatapi_2src_2irx__imports_8h_source.html" target="_top" xlink:title=" ">
<polygon fill="white" stroke="#666666" points="795.75,-163.5 698,-163.5 698,-133 795.75,-133 795.75,-163.5"/>
<text text-anchor="start" x="706" y="-150" font-family="Helvetica,sans-Serif" font-size="10.00">iop/cdvd/xatapi/src</text>
<text text-anchor="middle" x="746.88" y="-138.75" font-family="Helvetica,sans-Serif" font-size="10.00">/irx_imports.h</text>
</a>
</g>
</g>
<!-- Node1&#45;&gt;Node14 -->
<g id="edge13_Node000001_Node000014" class="edge">
<title>Node1&#45;&gt;Node14</title>
<g id="a_edge13_Node000001_Node000014"><a xlink:title=" ">
<path fill="none" stroke="#63b8ff" d="M1546.93,-213.63C1408.58,-212.5 1078.19,-205.23 804.88,-163.5 802,-163.06 799.07,-162.55 796.12,-161.98"/>
<polygon fill="#63b8ff" stroke="#63b8ff" points="1546.6,-217.13 1556.62,-213.7 1546.65,-210.13 1546.6,-217.13"/>
</a>
</g>
</g>
<!-- Node16 -->
<g id="Node000016" class="node">
<title>Node16</title>
<g id="a_Node000016"><a xlink:href="iop_2dev9_2dev9_2src_2irx__imports_8h_source.html" target="_top" xlink:title=" ">
<polygon fill="white" stroke="#666666" points="919.88,-163.5 813.88,-163.5 813.88,-133 919.88,-133 919.88,-163.5"/>
<text text-anchor="start" x="821.88" y="-150" font-family="Helvetica,sans-Serif" font-size="10.00">iop/dev9/dev9/src/irx</text>
<text text-anchor="middle" x="866.88" y="-138.75" font-family="Helvetica,sans-Serif" font-size="10.00">_imports.h</text>
</a>
</g>
</g>
<!-- Node1&#45;&gt;Node16 -->
<g id="edge15_Node000001_Node000016" class="edge">
<title>Node1&#45;&gt;Node16</title>
<g id="a_edge15_Node000001_Node000016"><a xlink:title=" ">
<path fill="none" stroke="#63b8ff" d="M1546.64,-212.24C1424.07,-208.7 1153.86,-197.42 928.88,-163.5 926.04,-163.07 923.13,-162.58 920.21,-162.05"/>
<polygon fill="#63b8ff" stroke="#63b8ff" points="1546.42,-215.73 1556.52,-212.51 1546.62,-208.74 1546.42,-215.73"/>
</a>
</g>
</g>
<!-- Node17 -->
<g id="Node000017" class="node">
<title>Node17</title>
<g id="a_Node000017"><a xlink:href="ps2dev9_8c.html" target="_top" xlink:title=" ">
<polygon fill="white" stroke="#666666" points="1078.12,-157.88 937.62,-157.88 937.62,-138.62 1078.12,-138.62 1078.12,-157.88"/>
<text text-anchor="middle" x="1007.88" y="-144.38" font-family="Helvetica,sans-Serif" font-size="10.00">iop/dev9/dev9/src/ps2dev9.c</text>
</a>
</g>
</g>
<!-- Node1&#45;&gt;Node17 -->
<g id="edge16_Node000001_Node000017" class="edge">
<title>Node1&#45;&gt;Node17</title>
<g id="a_edge16_Node000001_Node000017"><a xlink:title=" ">
<path fill="none" stroke="#63b8ff" d="M1546.77,-209.21C1446.89,-201.95 1251.65,-186.19 1086.88,-163.5 1076.38,-162.06 1065.16,-160.21 1054.56,-158.33"/>
<polygon fill="#63b8ff" stroke="#63b8ff" points="1546.45,-212.69 1556.67,-209.92 1546.95,-205.71 1546.45,-212.69"/>
</a>
</g>
</g>
<!-- Node18 -->
<g id="Node000018" class="node">
<title>Node18</title>
<g id="a_Node000018"><a xlink:href="iop_2dev9_2extflash_2src_2irx__imports_8h_source.html" target="_top" xlink:title=" ">
<polygon fill="white" stroke="#666666" points="1201.5,-163.5 1096.25,-163.5 1096.25,-133 1201.5,-133 1201.5,-163.5"/>
<text text-anchor="start" x="1104.25" y="-150" font-family="Helvetica,sans-Serif" font-size="10.00">iop/dev9/extflash/src</text>
<text text-anchor="middle" x="1148.88" y="-138.75" font-family="Helvetica,sans-Serif" font-size="10.00">/irx_imports.h</text>
</a>
</g>
</g>
<!-- Node1&#45;&gt;Node18 -->
<g id="edge17_Node000001_Node000018" class="edge">
<title>Node1&#45;&gt;Node18</title>
<g id="a_edge17_Node000001_Node000018"><a xlink:title=" ">
<path fill="none" stroke="#63b8ff" d="M1546.79,-207.67C1466.69,-199.8 1327.8,-184.56 1209.88,-163.5 1207.2,-163.02 1204.46,-162.5 1201.71,-161.95"/>
<polygon fill="#63b8ff" stroke="#63b8ff" points="1546.37,-211.14 1556.67,-208.63 1547.05,-204.18 1546.37,-211.14"/>
</a>
</g>
</g>
<!-- Node19 -->
<g id="Node000019" class="node">
<title>Node19</title>
<g id="a_Node000019"><a xlink:href="i_link_8c_source.html" target="_top" xlink:title=" ">
<polygon fill="white" stroke="#666666" points="1314.62,-163.5 1219.12,-163.5 1219.12,-133 1314.62,-133 1314.62,-163.5"/>
<text text-anchor="start" x="1227.12" y="-150" font-family="Helvetica,sans-Serif" font-size="10.00">iop/iLink/iLinkman</text>
<text text-anchor="middle" x="1266.88" y="-138.75" font-family="Helvetica,sans-Serif" font-size="10.00">/src/iLink.c</text>
</a>
</g>
</g>
<!-- Node1&#45;&gt;Node19 -->
<g id="edge18_Node000001_Node000019" class="edge">
<title>Node1&#45;&gt;Node19</title>
<g id="a_edge18_Node000001_Node000019"><a xlink:title=" ">
<path fill="none" stroke="#63b8ff" d="M1546.7,-203.65C1487.96,-194.35 1399.89,-179.59 1323.88,-163.5 1320.98,-162.89 1318.01,-162.23 1315.02,-161.55"/>
<polygon fill="#63b8ff" stroke="#63b8ff" points="1546.13,-207.1 1556.56,-205.2 1547.22,-200.19 1546.13,-207.1"/>
</a>
</g>
</g>
<!-- Node20 -->
<g id="Node000020" class="node">
<title>Node20</title>
<g id="a_Node000020"><a xlink:href="i_link___d_m_a_8c_source.html" target="_top" xlink:title=" ">
<polygon fill="white" stroke="#666666" points="1428.62,-163.5 1333.12,-163.5 1333.12,-133 1428.62,-133 1428.62,-163.5"/>
<text text-anchor="start" x="1341.12" y="-150" font-family="Helvetica,sans-Serif" font-size="10.00">iop/iLink/iLinkman</text>
<text text-anchor="middle" x="1380.88" y="-138.75" font-family="Helvetica,sans-Serif" font-size="10.00">/src/iLink_DMA.c</text>
</a>
</g>
</g>
<!-- Node1&#45;&gt;Node20 -->
<g id="edge19_Node000001_Node000020" class="edge">
<title>Node1&#45;&gt;Node20</title>
<g id="a_edge19_Node000001_Node000020"><a xlink:title=" ">
<path fill="none" stroke="#63b8ff" d="M1548.99,-195.99C1511.01,-185.43 1463.62,-172.25 1428.85,-162.59"/>
<polygon fill="#63b8ff" stroke="#63b8ff" points="1547.91,-199.32 1558.48,-198.63 1549.79,-192.58 1547.91,-199.32"/>
</a>
</g>
</g>
<!-- Node21 -->
<g id="Node000021" class="node">
<title>Node21</title>
<g id="a_Node000021"><a xlink:href="i_link__internal_8c_source.html" target="_top" xlink:title=" ">
<polygon fill="white" stroke="#666666" points="1547.25,-163.5 1446.5,-163.5 1446.5,-133 1547.25,-133 1547.25,-163.5"/>
<text text-anchor="start" x="1454.5" y="-150" font-family="Helvetica,sans-Serif" font-size="10.00">iop/iLink/iLinkman</text>
<text text-anchor="middle" x="1496.88" y="-138.75" font-family="Helvetica,sans-Serif" font-size="10.00">/src/iLink_internal.c</text>
</a>
</g>
</g>
<!-- Node1&#45;&gt;Node21 -->
<g id="edge20_Node000001_Node000021" class="edge">
<title>Node1&#45;&gt;Node21</title>
<g id="a_edge20_Node000001_Node000021"><a xlink:title=" ">
<path fill="none" stroke="#63b8ff" d="M1576.74,-193.66C1559.37,-184 1538.94,-172.64 1523.09,-163.83"/>
<polygon fill="#63b8ff" stroke="#63b8ff" points="1574.79,-196.58 1585.23,-198.38 1578.19,-190.46 1574.79,-196.58"/>
</a>
</g>
</g>
<!-- Node22 -->
<g id="Node000022" class="node">
<title>Node22</title>
<g id="a_Node000022"><a xlink:href="i_link__intr_8c_source.html" target="_top" xlink:title=" ">
<polygon fill="white" stroke="#666666" points="1660.62,-163.5 1565.12,-163.5 1565.12,-133 1660.62,-133 1660.62,-163.5"/>
<text text-anchor="start" x="1573.12" y="-150" font-family="Helvetica,sans-Serif" font-size="10.00">iop/iLink/iLinkman</text>
<text text-anchor="middle" x="1612.88" y="-138.75" font-family="Helvetica,sans-Serif" font-size="10.00">/src/iLink_intr.c</text>
</a>
</g>
</g>
<!-- Node1&#45;&gt;Node22 -->
<g id="edge21_Node000001_Node000022" class="edge">
<title>Node1&#45;&gt;Node22</title>
<g id="a_edge21_Node000001_Node000022"><a xlink:title=" ">
<path fill="none" stroke="#63b8ff" d="M1612.88,-187.81C1612.88,-179.64 1612.88,-170.91 1612.88,-163.83"/>
<polygon fill="#63b8ff" stroke="#63b8ff" points="1609.38,-187.6 1612.88,-197.6 1616.38,-187.6 1609.38,-187.6"/>
</a>
</g>
</g>
<!-- Node23 -->
<g id="Node000023" class="node">
<title>Node23</title>
<g id="a_Node000023"><a xlink:href="iop_2i_link_2i_linkman_2src_2irx__imports_8h_source.html" target="_top" xlink:title=" ">
<polygon fill="white" stroke="#666666" points="1774.62,-163.5 1679.12,-163.5 1679.12,-133 1774.62,-133 1774.62,-163.5"/>
<text text-anchor="start" x="1687.12" y="-150" font-family="Helvetica,sans-Serif" font-size="10.00">iop/iLink/iLinkman</text>
<text text-anchor="middle" x="1726.88" y="-138.75" font-family="Helvetica,sans-Serif" font-size="10.00">/src/irx_imports.h</text>
</a>
</g>
</g>
<!-- Node1&#45;&gt;Node23 -->
<g id="edge22_Node000001_Node000023" class="edge">
<title>Node1&#45;&gt;Node23</title>
<g id="a_edge22_Node000001_Node000023"><a xlink:title=" ">
<path fill="none" stroke="#63b8ff" d="M1648.39,-193.66C1665.45,-184 1685.53,-172.64 1701.11,-163.83"/>
<polygon fill="#63b8ff" stroke="#63b8ff" points="1647.04,-190.4 1640.06,-198.37 1650.49,-196.49 1647.04,-190.4"/>
</a>
</g>
</g>
<!-- Node24 -->
<g id="Node000024" class="node">
<title>Node24</title>
<g id="a_Node000024"><a xlink:href="smap_8c_source.html" target="_top" xlink:title=" ">
<polygon fill="white" stroke="#666666" points="1902.75,-163.5 1793,-163.5 1793,-133 1902.75,-133 1902.75,-163.5"/>
<text text-anchor="start" x="1801" y="-150" font-family="Helvetica,sans-Serif" font-size="10.00">iop/network/smap/src</text>
<text text-anchor="middle" x="1847.88" y="-138.75" font-family="Helvetica,sans-Serif" font-size="10.00">/smap.c</text>
</a>
</g>
</g>
<!-- Node1&#45;&gt;Node24 -->
<g id="edge23_Node000001_Node000024" class="edge">
<title>Node1&#45;&gt;Node24</title>
<g id="a_edge23_Node000001_Node000024"><a xlink:title=" ">
<path fill="none" stroke="#63b8ff" d="M1677.12,-196.12C1713.96,-186.01 1759.64,-173.47 1794.49,-163.9"/>
<polygon fill="#63b8ff" stroke="#63b8ff" points="1676.67,-192.61 1667.95,-198.63 1678.52,-199.36 1676.67,-192.61"/>
</a>
</g>
</g>
<!-- Node25 -->
<g id="Node000025" class="node">
<title>Node25</title>
<g id="a_Node000025"><a xlink:href="xfer_8c_source.html" target="_top" xlink:title=" ">
<polygon fill="white" stroke="#666666" points="2030.75,-163.5 1921,-163.5 1921,-133 2030.75,-133 2030.75,-163.5"/>
<text text-anchor="start" x="1929" y="-150" font-family="Helvetica,sans-Serif" font-size="10.00">iop/network/smap/src</text>
<text text-anchor="middle" x="1975.88" y="-138.75" font-family="Helvetica,sans-Serif" font-size="10.00">/xfer.c</text>
</a>
</g>
</g>
<!-- Node1&#45;&gt;Node25 -->
<g id="edge24_Node000001_Node000025" class="edge">
<title>Node1&#45;&gt;Node25</title>
<g id="a_edge24_Node000001_Node000025"><a xlink:title=" ">
<path fill="none" stroke="#63b8ff" d="M1679.2,-203.63C1739.91,-194.12 1832.16,-179.06 1911.88,-163.5 1914.78,-162.93 1917.75,-162.33 1920.76,-161.72"/>
<polygon fill="#63b8ff" stroke="#63b8ff" points="1678.7,-200.16 1669.36,-205.16 1679.78,-207.08 1678.7,-200.16"/>
</a>
</g>
</g>
<!-- Node26 -->
<g id="Node000026" class="node">
<title>Node26</title>
<g id="a_Node000026"><a xlink:href="iop_2sio_2mx4sio__bd_2src_2irx__imports_8h_source.html" target="_top" xlink:title=" ">
<polygon fill="white" stroke="#666666" points="2159.12,-163.5 2048.62,-163.5 2048.62,-133 2159.12,-133 2159.12,-163.5"/>
<text text-anchor="start" x="2056.62" y="-150" font-family="Helvetica,sans-Serif" font-size="10.00">iop/sio/mx4sio_bd/src</text>
<text text-anchor="middle" x="2103.88" y="-138.75" font-family="Helvetica,sans-Serif" font-size="10.00">/irx_imports.h</text>
</a>
</g>
</g>
<!-- Node1&#45;&gt;Node26 -->
<g id="edge25_Node000001_Node000026" class="edge">
<title>Node1&#45;&gt;Node26</title>
<g id="a_edge25_Node000001_Node000026"><a xlink:title=" ">
<path fill="none" stroke="#63b8ff" d="M1679.17,-208.06C1763.37,-200.35 1913.01,-185.03 2039.88,-163.5 2042.68,-163.02 2045.55,-162.5 2048.44,-161.96"/>
<polygon fill="#63b8ff" stroke="#63b8ff" points="1678.88,-204.57 1669.23,-208.96 1679.51,-211.54 1678.88,-204.57"/>
</a>
</g>
</g>
<!-- Node27 -->
<g id="Node000027" class="node">
<title>Node27</title>
<g id="a_Node000027"><a xlink:href="mx4sio_8c_source.html" target="_top" xlink:title=" ">
<polygon fill="white" stroke="#666666" points="2288.12,-163.5 2177.62,-163.5 2177.62,-133 2288.12,-133 2288.12,-163.5"/>
<text text-anchor="start" x="2185.62" y="-150" font-family="Helvetica,sans-Serif" font-size="10.00">iop/sio/mx4sio_bd/src</text>
<text text-anchor="middle" x="2232.88" y="-138.75" font-family="Helvetica,sans-Serif" font-size="10.00">/mx4sio.c</text>
</a>
</g>
</g>
<!-- Node1&#45;&gt;Node27 -->
<g id="edge26_Node000001_Node000027" class="edge">
<title>Node1&#45;&gt;Node27</title>
<g id="a_edge26_Node000001_Node000027"><a xlink:title=" ">
<path fill="none" stroke="#63b8ff" d="M1678.79,-210.47C1783.07,-204.67 1992.31,-190.58 2167.88,-163.5 2170.96,-163.02 2174.11,-162.49 2177.29,-161.92"/>
<polygon fill="#63b8ff" stroke="#63b8ff" points="1678.81,-206.96 1669.02,-211 1679.2,-213.95 1678.81,-206.96"/>
</a>
</g>
</g>
<!-- Node28 -->
<g id="Node000028" class="node">
<title>Node28</title>
<g id="a_Node000028"><a xlink:href="dmacman_8c_source.html" target="_top" xlink:title=" ">
<polygon fill="white" stroke="#666666" points="2415.38,-163.5 2306.38,-163.5 2306.38,-133 2415.38,-133 2415.38,-163.5"/>
<text text-anchor="start" x="2314.38" y="-150" font-family="Helvetica,sans-Serif" font-size="10.00">iop/system/dmacman</text>
<text text-anchor="middle" x="2360.88" y="-138.75" font-family="Helvetica,sans-Serif" font-size="10.00">/src/dmacman.c</text>
</a>
</g>
</g>
<!-- Node1&#45;&gt;Node28 -->
<g id="edge27_Node000001_Node000028" class="edge">
<title>Node1&#45;&gt;Node28</title>
<g id="a_edge27_Node000001_Node000028"><a xlink:title=" ">
<path fill="none" stroke="#63b8ff" d="M1679.09,-212.09C1801.62,-208.31 2071.78,-196.65 2296.88,-163.5 2299.92,-163.05 2303.03,-162.54 2306.16,-161.98"/>
<polygon fill="#63b8ff" stroke="#63b8ff" points="1679.1,-208.59 1669.21,-212.39 1679.31,-215.58 1679.1,-208.59"/>
</a>
</g>
</g>
<!-- Node29 -->
<g id="Node000029" class="node">
<title>Node29</title>
<g id="a_Node000029"><a xlink:href="iop_2system_2sio2man_2src_2irx__imports_8h_source.html" target="_top" xlink:title=" ">
<polygon fill="white" stroke="#666666" points="2536.38,-163.5 2433.38,-163.5 2433.38,-133 2536.38,-133 2536.38,-163.5"/>
<text text-anchor="start" x="2441.38" y="-150" font-family="Helvetica,sans-Serif" font-size="10.00">iop/system/sio2man</text>
<text text-anchor="middle" x="2484.88" y="-138.75" font-family="Helvetica,sans-Serif" font-size="10.00">/src/irx_imports.h</text>
</a>
</g>
</g>
<!-- Node1&#45;&gt;Node29 -->
<g id="edge28_Node000001_Node000029" class="edge">
<title>Node1&#45;&gt;Node29</title>
<g id="a_edge28_Node000001_Node000029"><a xlink:title=" ">
<path fill="none" stroke="#63b8ff" d="M1679.12,-213.48C1818.11,-212.08 2150.04,-204.33 2424.88,-163.5 2427.52,-163.11 2430.23,-162.65 2432.95,-162.16"/>
<polygon fill="#63b8ff" stroke="#63b8ff" points="1679.34,-209.98 1669.38,-213.57 1679.41,-216.98 1679.34,-209.98"/>
</a>
</g>
</g>
<!-- Node31 -->
<g id="Node000031" class="node">
<title>Node31</title>
<g id="a_Node000031"><a xlink:href="iop_2system_2udnl_2src_2irx__imports_8h_source.html" target="_top" xlink:title=" ">
<polygon fill="white" stroke="#666666" points="2655.25,-163.5 2554.5,-163.5 2554.5,-133 2655.25,-133 2655.25,-163.5"/>
<text text-anchor="start" x="2562.5" y="-150" font-family="Helvetica,sans-Serif" font-size="10.00">iop/system/udnl/src</text>
<text text-anchor="middle" x="2604.88" y="-138.75" font-family="Helvetica,sans-Serif" font-size="10.00">/irx_imports.h</text>
</a>
</g>
</g>
<!-- Node1&#45;&gt;Node31 -->
<g id="edge30_Node000001_Node000031" class="edge">
<title>Node1&#45;&gt;Node31</title>
<g id="a_edge30_Node000001_Node000031"><a xlink:title=" ">
<path fill="none" stroke="#63b8ff" d="M1679.14,-214.33C1832.51,-214.77 2223.44,-210.71 2545.88,-163.5 2548.59,-163.1 2551.35,-162.64 2554.14,-162.13"/>
<polygon fill="#63b8ff" stroke="#63b8ff" points="1679.17,-210.83 1669.16,-214.29 1679.14,-217.83 1679.17,-210.83"/>
</a>
</g>
</g>
<!-- Node32 -->
<g id="Node000032" class="node">
<title>Node32</title>
<g id="a_Node000032"><a xlink:href="udnl_8c_source.html" target="_top" xlink:title=" ">
<polygon fill="white" stroke="#666666" points="2774.25,-163.5 2673.5,-163.5 2673.5,-133 2774.25,-133 2774.25,-163.5"/>
<text text-anchor="start" x="2681.5" y="-150" font-family="Helvetica,sans-Serif" font-size="10.00">iop/system/udnl/src</text>
<text text-anchor="middle" x="2723.88" y="-138.75" font-family="Helvetica,sans-Serif" font-size="10.00">/udnl.c</text>
</a>
</g>
</g>
<!-- Node1&#45;&gt;Node32 -->
<g id="edge31_Node000001_Node000032" class="edge">
<title>Node1&#45;&gt;Node32</title>
<g id="a_edge31_Node000001_Node000032"><a xlink:title=" ">
<path fill="none" stroke="#63b8ff" d="M1679.32,-212.19C1879.12,-207.23 2472.46,-190.57 2663.88,-163.5 2666.95,-163.07 2670.1,-162.55 2673.26,-161.97"/>
<polygon fill="#63b8ff" stroke="#63b8ff" points="1679.28,-208.69 1669.36,-212.43 1679.45,-215.68 1679.28,-208.69"/>
</a>
</g>
</g>
<!-- Node33 -->
<g id="Node000033" class="node">
<title>Node33</title>
<g id="a_Node000033"><a xlink:href="iop_2usb_2camera_2src_2irx__imports_8h_source.html" target="_top" xlink:title=" ">
<polygon fill="white" stroke="#666666" points="2891.5,-163.5 2792.25,-163.5 2792.25,-133 2891.5,-133 2891.5,-163.5"/>
<text text-anchor="start" x="2800.25" y="-150" font-family="Helvetica,sans-Serif" font-size="10.00">iop/usb/camera/src</text>
<text text-anchor="middle" x="2841.88" y="-138.75" font-family="Helvetica,sans-Serif" font-size="10.00">/irx_imports.h</text>
</a>
</g>
</g>
<!-- Node1&#45;&gt;Node33 -->
<g id="edge32_Node000001_Node000033" class="edge">
<title>Node1&#45;&gt;Node33</title>
<g id="a_edge32_Node000001_Node000033"><a xlink:title=" ">
<path fill="none" stroke="#63b8ff" d="M1679.07,-212.6C1893.45,-208.6 2567.27,-193.87 2782.88,-163.5 2785.8,-163.09 2788.79,-162.6 2791.79,-162.05"/>
<polygon fill="#63b8ff" stroke="#63b8ff" points="1679.16,-209.09 1669.22,-212.78 1679.29,-216.09 1679.16,-209.09"/>
</a>
</g>
</g>
<!-- Node34 -->
<g id="Node000034" class="node">
<title>Node34</title>
<g id="a_Node000034"><a xlink:href="iop_2usb_2keyboard_2src_2irx__imports_8h_source.html" target="_top" xlink:title=" ">
<polygon fill="white" stroke="#666666" points="3015.88,-163.5 2909.88,-163.5 2909.88,-133 3015.88,-133 3015.88,-163.5"/>
<text text-anchor="start" x="2917.88" y="-150" font-family="Helvetica,sans-Serif" font-size="10.00">iop/usb/keyboard/src</text>
<text text-anchor="middle" x="2962.88" y="-138.75" font-family="Helvetica,sans-Serif" font-size="10.00">/irx_imports.h</text>
</a>
</g>
</g>
<!-- Node1&#45;&gt;Node34 -->
<g id="edge33_Node000001_Node000034" class="edge">
<title>Node1&#45;&gt;Node34</title>
<g id="a_edge33_Node000001_Node000034"><a xlink:title=" ">
<path fill="none" stroke="#63b8ff" d="M1679.07,-212.8C1907.39,-209.28 2661.04,-195.45 2900.88,-163.5 2903.72,-163.12 2906.63,-162.67 2909.56,-162.17"/>
<polygon fill="#63b8ff" stroke="#63b8ff" points="1679.11,-209.3 1669.16,-212.95 1679.21,-216.3 1679.11,-209.3"/>
</a>
</g>
</g>
<!-- Node3 -->
<g id="Node000003" class="node">
<title>Node3</title>
<g id="a_Node000003"><a xlink:href="accore__internal_8h_source.html" target="_top" xlink:title=" ">
<polygon fill="white" stroke="#666666" points="301.75,-97 192,-97 192,-66.5 301.75,-66.5 301.75,-97"/>
<text text-anchor="start" x="200" y="-83.5" font-family="Helvetica,sans-Serif" font-size="10.00">iop/arcade/accore/src</text>
<text text-anchor="middle" x="246.88" y="-72.25" font-family="Helvetica,sans-Serif" font-size="10.00">/accore_internal.h</text>
</a>
</g>
</g>
<!-- Node2&#45;&gt;Node3 -->
<g id="edge2_Node000002_Node000003" class="edge">
<title>Node2&#45;&gt;Node3</title>
<g id="a_edge2_Node000002_Node000003"><a xlink:title=" ">
<path fill="none" stroke="#63b8ff" d="M246.88,-121.31C246.88,-113.14 246.88,-104.41 246.88,-97.33"/>
<polygon fill="#63b8ff" stroke="#63b8ff" points="243.38,-121.1 246.88,-131.1 250.38,-121.1 243.38,-121.1"/>
</a>
</g>
</g>
<!-- Node4 -->
<g id="Node000004" class="node">
<title>Node4</title>
<g id="a_Node000004"><a xlink:href="accore-entry_8c_source.html" target="_top" xlink:title=" ">
<polygon fill="white" stroke="#666666" points="109.75,-30.5 0,-30.5 0,0 109.75,0 109.75,-30.5"/>
<text text-anchor="start" x="8" y="-17" font-family="Helvetica,sans-Serif" font-size="10.00">iop/arcade/accore/src</text>
<text text-anchor="middle" x="54.88" y="-5.75" font-family="Helvetica,sans-Serif" font-size="10.00">/accore&#45;entry.c</text>
</a>
</g>
</g>
<!-- Node3&#45;&gt;Node4 -->
<g id="edge3_Node000003_Node000004" class="edge">
<title>Node3&#45;&gt;Node4</title>
<g id="a_edge3_Node000003_Node000004"><a xlink:title=" ">
<path fill="none" stroke="#63b8ff" d="M192.68,-62.54C162.93,-52.55 126.52,-40.32 98.6,-30.94"/>
<polygon fill="#63b8ff" stroke="#63b8ff" points="191.28,-65.77 201.87,-65.63 193.51,-59.13 191.28,-65.77"/>
</a>
</g>
</g>
<!-- Node5 -->
<g id="Node000005" class="node">
<title>Node5</title>
<g id="a_Node000005"><a xlink:href="dev9_8c_source.html" target="_top" xlink:title=" ">
<polygon fill="white" stroke="#666666" points="237.75,-30.5 128,-30.5 128,0 237.75,0 237.75,-30.5"/>
<text text-anchor="start" x="136" y="-17" font-family="Helvetica,sans-Serif" font-size="10.00">iop/arcade/accore/src</text>
<text text-anchor="middle" x="182.88" y="-5.75" font-family="Helvetica,sans-Serif" font-size="10.00">/dev9.c</text>
</a>
</g>
</g>
<!-- Node3&#45;&gt;Node5 -->
<g id="edge4_Node000003_Node000005" class="edge">
<title>Node3&#45;&gt;Node5</title>
<g id="a_edge4_Node000003_Node000005"><a xlink:title=" ">
<path fill="none" stroke="#63b8ff" d="M224.49,-58.19C215.48,-49.11 205.35,-38.9 197.34,-30.83"/>
<polygon fill="#63b8ff" stroke="#63b8ff" points="221.76,-60.41 231.29,-65.04 226.73,-55.48 221.76,-60.41"/>
</a>
</g>
</g>
<!-- Node6 -->
<g id="Node000006" class="node">
<title>Node6</title>
<g id="a_Node000006"><a xlink:href="iop_2arcade_2accore_2src_2dma_8c_source.html" target="_top" xlink:title=" ">
<polygon fill="white" stroke="#666666" points="365.75,-30.5 256,-30.5 256,0 365.75,0 365.75,-30.5"/>
<text text-anchor="start" x="264" y="-17" font-family="Helvetica,sans-Serif" font-size="10.00">iop/arcade/accore/src</text>
<text text-anchor="middle" x="310.88" y="-5.75" font-family="Helvetica,sans-Serif" font-size="10.00">/dma.c</text>
</a>
</g>
</g>
<!-- Node3&#45;&gt;Node6 -->
<g id="edge5_Node000003_Node000006" class="edge">
<title>Node3&#45;&gt;Node6</title>
<g id="a_edge5_Node000003_Node000006"><a xlink:title=" ">
<path fill="none" stroke="#63b8ff" d="M269.26,-58.19C278.27,-49.11 288.4,-38.9 296.41,-30.83"/>
<polygon fill="#63b8ff" stroke="#63b8ff" points="267.02,-55.48 262.46,-65.04 271.99,-60.41 267.02,-55.48"/>
</a>
</g>
</g>
<!-- Node7 -->
<g id="Node000007" class="node">
<title>Node7</title>
<g id="a_Node000007"><a xlink:href="intr_8c_source.html" target="_top" xlink:title=" ">
<polygon fill="white" stroke="#666666" points="493.75,-30.5 384,-30.5 384,0 493.75,0 493.75,-30.5"/>
<text text-anchor="start" x="392" y="-17" font-family="Helvetica,sans-Serif" font-size="10.00">iop/arcade/accore/src</text>
<text text-anchor="middle" x="438.88" y="-5.75" font-family="Helvetica,sans-Serif" font-size="10.00">/intr.c</text>
</a>
</g>
</g>
<!-- Node3&#45;&gt;Node7 -->
<g id="edge6_Node000003_Node000007" class="edge">
<title>Node3&#45;&gt;Node7</title>
<g id="a_edge6_Node000003_Node000007"><a xlink:title=" ">
<path fill="none" stroke="#63b8ff" d="M301.07,-62.54C330.82,-52.55 367.23,-40.32 395.15,-30.94"/>
<polygon fill="#63b8ff" stroke="#63b8ff" points="300.24,-59.13 291.88,-65.63 302.47,-65.77 300.24,-59.13"/>
</a>
</g>
</g>
<!-- Node9 -->
<g id="Node000009" class="node">
<title>Node9</title>
<g id="a_Node000009"><a xlink:href="s147nand_8c_source.html" target="_top" xlink:title=" ">
<polygon fill="white" stroke="#666666" points="425.88,-97 319.88,-97 319.88,-66.5 425.88,-66.5 425.88,-97"/>
<text text-anchor="start" x="327.88" y="-83.5" font-family="Helvetica,sans-Serif" font-size="10.00">iop/arcade/s147nand</text>
<text text-anchor="middle" x="372.88" y="-72.25" font-family="Helvetica,sans-Serif" font-size="10.00">/src/s147nand.c</text>
</a>
</g>
</g>
<!-- Node8&#45;&gt;Node9 -->
<g id="edge8_Node000008_Node000009" class="edge">
<title>Node8&#45;&gt;Node9</title>
<g id="a_edge8_Node000008_Node000009"><a xlink:title=" ">
<path fill="none" stroke="#63b8ff" d="M372.88,-121.31C372.88,-113.14 372.88,-104.41 372.88,-97.33"/>
<polygon fill="#63b8ff" stroke="#63b8ff" points="369.38,-121.1 372.88,-131.1 376.38,-121.1 369.38,-121.1"/>
</a>
</g>
</g>
<!-- Node11 -->
<g id="Node000011" class="node">
<title>Node11</title>
<g id="a_Node000011"><a xlink:href="cdvdfsv_8c_source.html" target="_top" xlink:title=" ">
<polygon fill="white" stroke="#666666" points="550.25,-97 443.5,-97 443.5,-66.5 550.25,-66.5 550.25,-97"/>
<text text-anchor="start" x="451.5" y="-83.5" font-family="Helvetica,sans-Serif" font-size="10.00">iop/cdvd/cdvdfsv/src</text>
<text text-anchor="middle" x="496.88" y="-72.25" font-family="Helvetica,sans-Serif" font-size="10.00">/cdvdfsv.c</text>
</a>
</g>
</g>
<!-- Node10&#45;&gt;Node11 -->
<g id="edge10_Node000010_Node000011" class="edge">
<title>Node10&#45;&gt;Node11</title>
<g id="a_edge10_Node000010_Node000011"><a xlink:title=" ">
<path fill="none" stroke="#63b8ff" d="M496.88,-121.31C496.88,-113.14 496.88,-104.41 496.88,-97.33"/>
<polygon fill="#63b8ff" stroke="#63b8ff" points="493.38,-121.1 496.88,-131.1 500.38,-121.1 493.38,-121.1"/>
</a>
</g>
</g>
<!-- Node13 -->
<g id="Node000013" class="node">
<title>Node13</title>
<g id="a_Node000013"><a xlink:href="cdvdman_8c_source.html" target="_top" xlink:title=" ">
<polygon fill="white" stroke="#666666" points="679.88,-97 567.88,-97 567.88,-66.5 679.88,-66.5 679.88,-97"/>
<text text-anchor="start" x="575.88" y="-83.5" font-family="Helvetica,sans-Serif" font-size="10.00">iop/cdvd/cdvdman/src</text>
<text text-anchor="middle" x="623.88" y="-72.25" font-family="Helvetica,sans-Serif" font-size="10.00">/cdvdman.c</text>
</a>
</g>
</g>
<!-- Node12&#45;&gt;Node13 -->
<g id="edge12_Node000012_Node000013" class="edge">
<title>Node12&#45;&gt;Node13</title>
<g id="a_edge12_Node000012_Node000013"><a xlink:title=" ">
<path fill="none" stroke="#63b8ff" d="M623.88,-121.31C623.88,-113.14 623.88,-104.41 623.88,-97.33"/>
<polygon fill="#63b8ff" stroke="#63b8ff" points="620.38,-121.1 623.88,-131.1 627.38,-121.1 620.38,-121.1"/>
</a>
</g>
</g>
<!-- Node15 -->
<g id="Node000015" class="node">
<title>Node15</title>
<g id="a_Node000015"><a xlink:href="xatapi_8c_source.html" target="_top" xlink:title=" ">
<polygon fill="white" stroke="#666666" points="795.75,-97 698,-97 698,-66.5 795.75,-66.5 795.75,-97"/>
<text text-anchor="start" x="706" y="-83.5" font-family="Helvetica,sans-Serif" font-size="10.00">iop/cdvd/xatapi/src</text>
<text text-anchor="middle" x="746.88" y="-72.25" font-family="Helvetica,sans-Serif" font-size="10.00">/xatapi.c</text>
</a>
</g>
</g>
<!-- Node14&#45;&gt;Node15 -->
<g id="edge14_Node000014_Node000015" class="edge">
<title>Node14&#45;&gt;Node15</title>
<g id="a_edge14_Node000014_Node000015"><a xlink:title=" ">
<path fill="none" stroke="#63b8ff" d="M746.88,-121.31C746.88,-113.14 746.88,-104.41 746.88,-97.33"/>
<polygon fill="#63b8ff" stroke="#63b8ff" points="743.38,-121.1 746.88,-131.1 750.38,-121.1 743.38,-121.1"/>
</a>
</g>
</g>
<!-- Node30 -->
<g id="Node000030" class="node">
<title>Node30</title>
<g id="a_Node000030"><a xlink:href="sio2man_8c.html" target="_top" xlink:title=" ">
<polygon fill="white" stroke="#666666" points="2536.38,-97 2433.38,-97 2433.38,-66.5 2536.38,-66.5 2536.38,-97"/>
<text text-anchor="start" x="2441.38" y="-83.5" font-family="Helvetica,sans-Serif" font-size="10.00">iop/system/sio2man</text>
<text text-anchor="middle" x="2484.88" y="-72.25" font-family="Helvetica,sans-Serif" font-size="10.00">/src/sio2man.c</text>
</a>
</g>
</g>
<!-- Node29&#45;&gt;Node30 -->
<g id="edge29_Node000029_Node000030" class="edge">
<title>Node29&#45;&gt;Node30</title>
<g id="a_edge29_Node000029_Node000030"><a xlink:title=" ">
<path fill="none" stroke="#63b8ff" d="M2484.88,-121.31C2484.88,-113.14 2484.88,-104.41 2484.88,-97.33"/>
<polygon fill="#63b8ff" stroke="#63b8ff" points="2481.38,-121.1 2484.88,-131.1 2488.38,-121.1 2481.38,-121.1"/>
</a>
</g>
</g>
</g>
</svg>
