<?xml version="1.0" encoding="UTF-8" standalone="no"?>
<!DOCTYPE svg PUBLIC "-//W3C//DTD SVG 1.1//EN"
 "http://www.w3.org/Graphics/SVG/1.1/DTD/svg11.dtd">
<!-- Generated by graphviz version 2.44.0 ()
 -->
<!-- Title: ee/draw/include/draw2d.h Pages: 1 -->
<svg width="742pt" height="196pt"
 viewBox="0.00 0.00 741.50 196.00" xmlns="http://www.w3.org/2000/svg" xmlns:xlink="http://www.w3.org/1999/xlink">
<g id="graph0" class="graph" transform="scale(1 1) rotate(0) translate(4 192)">
<title>ee/draw/include/draw2d.h</title>
<polygon fill="white" stroke="transparent" points="-4,4 -4,-192 737.5,-192 737.5,4 -4,4"/>
<!-- Node1 -->
<g id="node1" class="node">
<title>Node1</title>
<g id="a_node1"><a xlink:title=" ">
<polygon fill="#bfbfbf" stroke="black" points="109,-168.5 109,-187.5 236,-187.5 236,-168.5 109,-168.5"/>
<text text-anchor="middle" x="172.5" y="-175.5" font-family="Helvetica,sans-Serif" font-size="10.00">ee/draw/include/draw2d.h</text>
</a>
</g>
</g>
<!-- Node2 -->
<g id="node2" class="node">
<title>Node2</title>
<g id="a_node2"><a xlink:href="draw_8h.html" target="_top" xlink:title=" ">
<polygon fill="white" stroke="black" points="319.5,-112.5 319.5,-131.5 435.5,-131.5 435.5,-112.5 319.5,-112.5"/>
<text text-anchor="middle" x="377.5" y="-119.5" font-family="Helvetica,sans-Serif" font-size="10.00">ee/draw/include/draw.h</text>
</a>
</g>
</g>
<!-- Node1&#45;&gt;Node2 -->
<g id="edge1" class="edge">
<title>Node1&#45;&gt;Node2</title>
<path fill="none" stroke="midnightblue" d="M214.91,-165.83C253.61,-155.63 309.99,-140.78 345.17,-131.52"/>
<polygon fill="midnightblue" stroke="midnightblue" points="213.76,-162.51 204.98,-168.44 215.54,-169.28 213.76,-162.51"/>
</g>
<!-- Node3 -->
<g id="node3" class="node">
<title>Node3</title>
<g id="a_node3"><a xlink:href="draw_2src_2draw_8c_source.html" target="_top" xlink:title=" ">
<polygon fill="white" stroke="black" points="0,-56.5 0,-75.5 99,-75.5 99,-56.5 0,-56.5"/>
<text text-anchor="middle" x="49.5" y="-63.5" font-family="Helvetica,sans-Serif" font-size="10.00">ee/draw/src/draw.c</text>
</a>
</g>
</g>
<!-- Node1&#45;&gt;Node3 -->
<g id="edge11" class="edge">
<title>Node1&#45;&gt;Node3</title>
<path fill="none" stroke="midnightblue" d="M155.18,-161.51C128.9,-138.01 79.81,-94.11 59.11,-75.59"/>
<polygon fill="midnightblue" stroke="midnightblue" points="153.06,-164.31 162.85,-168.37 157.73,-159.09 153.06,-164.31"/>
</g>
<!-- Node4 -->
<g id="node4" class="node">
<title>Node4</title>
<g id="a_node4"><a xlink:href="draw2d_8c_source.html" target="_top" xlink:title=" ">
<polygon fill="white" stroke="black" points="117.5,-56.5 117.5,-75.5 227.5,-75.5 227.5,-56.5 117.5,-56.5"/>
<text text-anchor="middle" x="172.5" y="-63.5" font-family="Helvetica,sans-Serif" font-size="10.00">ee/draw/src/draw2d.c</text>
</a>
</g>
</g>
<!-- Node1&#45;&gt;Node4 -->
<g id="edge12" class="edge">
<title>Node1&#45;&gt;Node4</title>
<path fill="none" stroke="midnightblue" d="M172.5,-158.35C172.5,-134.25 172.5,-93.31 172.5,-75.59"/>
<polygon fill="midnightblue" stroke="midnightblue" points="169,-158.37 172.5,-168.37 176,-158.37 169,-158.37"/>
</g>
<!-- Node2&#45;&gt;Node3 -->
<g id="edge2" class="edge">
<title>Node2&#45;&gt;Node3</title>
<path fill="none" stroke="midnightblue" d="M315.37,-110.77C252.62,-100.44 156.92,-84.69 99.08,-75.16"/>
<polygon fill="midnightblue" stroke="midnightblue" points="315.09,-114.27 325.53,-112.44 316.23,-107.37 315.09,-114.27"/>
</g>
<!-- Node2&#45;&gt;Node4 -->
<g id="edge3" class="edge">
<title>Node2&#45;&gt;Node4</title>
<path fill="none" stroke="midnightblue" d="M335.09,-109.83C296.39,-99.63 240.01,-84.78 204.83,-75.52"/>
<polygon fill="midnightblue" stroke="midnightblue" points="334.46,-113.28 345.02,-112.44 336.24,-106.51 334.46,-113.28"/>
</g>
<!-- Node5 -->
<g id="node5" class="node">
<title>Node5</title>
<g id="a_node5"><a xlink:href="draw3d_8c_source.html" target="_top" xlink:title=" ">
<polygon fill="white" stroke="black" points="623.5,-56.5 623.5,-75.5 733.5,-75.5 733.5,-56.5 623.5,-56.5"/>
<text text-anchor="middle" x="678.5" y="-63.5" font-family="Helvetica,sans-Serif" font-size="10.00">ee/draw/src/draw3d.c</text>
</a>
</g>
</g>
<!-- Node2&#45;&gt;Node5 -->
<g id="edge4" class="edge">
<title>Node2&#45;&gt;Node5</title>
<path fill="none" stroke="midnightblue" d="M435.11,-110.66C492,-100.46 577.95,-85.04 631.03,-75.52"/>
<polygon fill="midnightblue" stroke="midnightblue" points="434.42,-107.23 425.19,-112.44 435.66,-114.12 434.42,-107.23"/>
</g>
<!-- Node6 -->
<g id="node6" class="node">
<title>Node6</title>
<g id="a_node6"><a xlink:href="draw__environment_8c_source.html" target="_top" xlink:title=" ">
<polygon fill="white" stroke="black" points="245.5,-56.5 245.5,-75.5 403.5,-75.5 403.5,-56.5 245.5,-56.5"/>
<text text-anchor="middle" x="324.5" y="-63.5" font-family="Helvetica,sans-Serif" font-size="10.00">ee/draw/src/draw_environment.c</text>
</a>
</g>
</g>
<!-- Node2&#45;&gt;Node6 -->
<g id="edge5" class="edge">
<title>Node2&#45;&gt;Node6</title>
<path fill="none" stroke="midnightblue" d="M361.52,-104.72C352.18,-95.2 340.75,-83.56 333.09,-75.75"/>
<polygon fill="midnightblue" stroke="midnightblue" points="359.25,-107.4 368.75,-112.08 364.24,-102.49 359.25,-107.4"/>
</g>
<!-- Node7 -->
<g id="node7" class="node">
<title>Node7</title>
<g id="a_node7"><a xlink:href="font_8h.html" target="_top" xlink:title=" ">
<polygon fill="white" stroke="black" points="460,-56.5 460,-75.5 567,-75.5 567,-56.5 460,-56.5"/>
<text text-anchor="middle" x="513.5" y="-63.5" font-family="Helvetica,sans-Serif" font-size="10.00">ee/font/include/font.h</text>
</a>
</g>
</g>
<!-- Node2&#45;&gt;Node7 -->
<g id="edge6" class="edge">
<title>Node2&#45;&gt;Node7</title>
<path fill="none" stroke="midnightblue" d="M408.63,-108.64C434.16,-98.5 469.61,-84.43 492.05,-75.52"/>
<polygon fill="midnightblue" stroke="midnightblue" points="407.05,-105.5 399.05,-112.44 409.64,-112.01 407.05,-105.5"/>
</g>
<!-- Node8 -->
<g id="node8" class="node">
<title>Node8</title>
<g id="a_node8"><a xlink:href="fontx_8c_source.html" target="_top" xlink:title=" ">
<polygon fill="white" stroke="black" points="408,-0.5 408,-19.5 503,-19.5 503,-0.5 408,-0.5"/>
<text text-anchor="middle" x="455.5" y="-7.5" font-family="Helvetica,sans-Serif" font-size="10.00">ee/font/src/fontx.c</text>
</a>
</g>
</g>
<!-- Node2&#45;&gt;Node8 -->
<g id="edge9" class="edge">
<title>Node2&#45;&gt;Node8</title>
<path fill="none" stroke="midnightblue" d="M390.98,-104.3C397.62,-95.92 405.64,-85.55 412.5,-76 426.71,-56.22 442.19,-32.12 450.14,-19.55"/>
<polygon fill="midnightblue" stroke="midnightblue" points="388.19,-102.19 384.68,-112.19 393.65,-106.56 388.19,-102.19"/>
</g>
<!-- Node9 -->
<g id="node9" class="node">
<title>Node9</title>
<g id="a_node9"><a xlink:href="fsfont_8c_source.html" target="_top" xlink:title=" ">
<polygon fill="white" stroke="black" points="533.5,-0.5 533.5,-19.5 631.5,-19.5 631.5,-0.5 533.5,-0.5"/>
<text text-anchor="middle" x="582.5" y="-7.5" font-family="Helvetica,sans-Serif" font-size="10.00">ee/font/src/fsfont.c</text>
</a>
</g>
</g>
<!-- Node2&#45;&gt;Node9 -->
<g id="edge10" class="edge">
<title>Node2&#45;&gt;Node9</title>
<path fill="none" stroke="midnightblue" d="M445.48,-114.14C496.1,-107.53 559.31,-95.59 576.5,-76 590.25,-60.33 587.34,-33.6 584.61,-19.81"/>
<polygon fill="midnightblue" stroke="midnightblue" points="445.02,-110.67 435.54,-115.39 445.9,-117.62 445.02,-110.67"/>
</g>
<!-- Node7&#45;&gt;Node8 -->
<g id="edge7" class="edge">
<title>Node7&#45;&gt;Node8</title>
<path fill="none" stroke="midnightblue" d="M496.59,-49.25C486.3,-39.67 473.53,-27.79 464.99,-19.83"/>
<polygon fill="midnightblue" stroke="midnightblue" points="494.48,-52.07 504.18,-56.32 499.25,-46.95 494.48,-52.07"/>
</g>
<!-- Node7&#45;&gt;Node9 -->
<g id="edge8" class="edge">
<title>Node7&#45;&gt;Node9</title>
<path fill="none" stroke="midnightblue" d="M532.54,-50.1C544.96,-40.38 560.74,-28.03 571.21,-19.83"/>
<polygon fill="midnightblue" stroke="midnightblue" points="530.3,-47.4 524.59,-56.32 534.62,-52.92 530.3,-47.4"/>
</g>
</g>
</svg>
