<?xml version="1.0" encoding="UTF-8" standalone="no"?>
<!DOCTYPE svg PUBLIC "-//W3C//DTD SVG 1.1//EN"
 "http://www.w3.org/Graphics/SVG/1.1/DTD/svg11.dtd">
<!-- Generated by graphviz version 2.43.0 (0)
 -->
<!-- Title: ee/draw/include/draw3d.h Pages: 1 -->
<svg width="980pt" height="207pt"
 viewBox="0.00 0.00 980.49 207.00" xmlns="http://www.w3.org/2000/svg" xmlns:xlink="http://www.w3.org/1999/xlink">
<g id="graph0" class="graph" transform="scale(1 1) rotate(0) translate(4 203)">
<title>ee/draw/include/draw3d.h</title>
<polygon fill="white" stroke="transparent" points="-4,4 -4,-203 976.49,-203 976.49,4 -4,4"/>
<!-- Node1 -->
<g id="node1" class="node">
<title>Node1</title>
<g id="a_node1"><a xlink:title=" ">
<polygon fill="#bfbfbf" stroke="black" points="313.49,-179.5 313.49,-198.5 455.49,-198.5 455.49,-179.5 313.49,-179.5"/>
<text text-anchor="middle" x="384.49" y="-186.5" font-family="Helvetica,sans-Serif" font-size="10.00">ee/draw/include/draw3d.h</text>
</a>
</g>
</g>
<!-- Node2 -->
<g id="node2" class="node">
<title>Node2</title>
<g id="a_node2"><a xlink:href="draw_8h.html" target="_top" xlink:title=" ">
<polygon fill="white" stroke="black" points="319.99,-118 319.99,-137 448.99,-137 448.99,-118 319.99,-118"/>
<text text-anchor="middle" x="384.49" y="-125" font-family="Helvetica,sans-Serif" font-size="10.00">ee/draw/include/draw.h</text>
</a>
</g>
</g>
<!-- Node1&#45;&gt;Node2 -->
<g id="edge1" class="edge">
<title>Node1&#45;&gt;Node2</title>
<path fill="none" stroke="midnightblue" d="M384.49,-169.32C384.49,-158.5 384.49,-145.4 384.49,-137.01"/>
<polygon fill="midnightblue" stroke="midnightblue" points="380.99,-169.48 384.49,-179.48 387.99,-169.48 380.99,-169.48"/>
</g>
<!-- Node4 -->
<g id="node4" class="node">
<title>Node4</title>
<g id="a_node4"><a xlink:href="draw2d_8c_source.html" target="_top" xlink:title=" ">
<polygon fill="white" stroke="black" points="15.49,-56.5 15.49,-75.5 135.49,-75.5 135.49,-56.5 15.49,-56.5"/>
<text text-anchor="middle" x="75.49" y="-63.5" font-family="Helvetica,sans-Serif" font-size="10.00">ee/draw/src/draw2d.c</text>
</a>
</g>
</g>
<!-- Node1&#45;&gt;Node4 -->
<g id="edge11" class="edge">
<title>Node1&#45;&gt;Node4</title>
<path fill="none" stroke="midnightblue" d="M353.43,-175.84C291.02,-151.4 151.74,-96.86 97.61,-75.66"/>
<polygon fill="midnightblue" stroke="midnightblue" points="352.17,-179.1 362.76,-179.49 354.73,-172.59 352.17,-179.1"/>
</g>
<!-- Node8 -->
<g id="node8" class="node">
<title>Node8</title>
<g id="a_node8"><a xlink:href="fontx_8c_source.html" target="_top" xlink:title=" ">
<polygon fill="white" stroke="black" points="110.99,-0.5 110.99,-19.5 215.99,-19.5 215.99,-0.5 110.99,-0.5"/>
<text text-anchor="middle" x="163.49" y="-7.5" font-family="Helvetica,sans-Serif" font-size="10.00">ee/font/src/fontx.c</text>
</a>
</g>
</g>
<!-- Node1&#45;&gt;Node8 -->
<g id="edge12" class="edge">
<title>Node1&#45;&gt;Node8</title>
<path fill="none" stroke="midnightblue" d="M315.36,-177.88C216.3,-161.75 41.98,-126.78 6.49,-76 -21.9,-35.38 54.59,-20.08 110.53,-14.36"/>
<polygon fill="midnightblue" stroke="midnightblue" points="314.86,-181.34 325.29,-179.47 315.97,-174.43 314.86,-181.34"/>
</g>
<!-- Node9 -->
<g id="node9" class="node">
<title>Node9</title>
<g id="a_node9"><a xlink:href="fsfont_8c_source.html" target="_top" xlink:title=" ">
<polygon fill="white" stroke="black" points="744.49,-0.5 744.49,-19.5 852.49,-19.5 852.49,-0.5 744.49,-0.5"/>
<text text-anchor="middle" x="798.49" y="-7.5" font-family="Helvetica,sans-Serif" font-size="10.00">ee/font/src/fsfont.c</text>
</a>
</g>
</g>
<!-- Node1&#45;&gt;Node9 -->
<g id="edge13" class="edge">
<title>Node1&#45;&gt;Node9</title>
<path fill="none" stroke="midnightblue" d="M463.86,-178.1C572.79,-162.69 759.79,-129.11 800.49,-76 813.13,-59.51 806.57,-33.15 801.88,-19.62"/>
<polygon fill="midnightblue" stroke="midnightblue" points="463.32,-174.64 453.89,-179.49 464.28,-181.57 463.32,-174.64"/>
</g>
<!-- Node10 -->
<g id="node10" class="node">
<title>Node10</title>
<g id="a_node10"><a xlink:href="packet2__utils_8h_source.html" target="_top" xlink:title=" ">
<polygon fill="white" stroke="black" points="864.49,-112.5 864.49,-142.5 972.49,-142.5 972.49,-112.5 864.49,-112.5"/>
<text text-anchor="start" x="872.49" y="-130.5" font-family="Helvetica,sans-Serif" font-size="10.00">ee/packet2/include</text>
<text text-anchor="middle" x="918.49" y="-119.5" font-family="Helvetica,sans-Serif" font-size="10.00">/packet2_utils.h</text>
</a>
</g>
</g>
<!-- Node1&#45;&gt;Node10 -->
<g id="edge14" class="edge">
<title>Node1&#45;&gt;Node10</title>
<path fill="none" stroke="midnightblue" d="M466.08,-182.95C559.38,-176.51 716.55,-163.68 850.49,-143 855.02,-142.3 859.71,-141.49 864.4,-140.61"/>
<polygon fill="midnightblue" stroke="midnightblue" points="465.6,-179.47 455.86,-183.64 466.07,-186.45 465.6,-179.47"/>
</g>
<!-- Node3 -->
<g id="node3" class="node">
<title>Node3</title>
<g id="a_node3"><a xlink:href="draw_2src_2draw_8c_source.html" target="_top" xlink:title=" ">
<polygon fill="white" stroke="black" points="330.99,-56.5 330.99,-75.5 437.99,-75.5 437.99,-56.5 330.99,-56.5"/>
<text text-anchor="middle" x="384.49" y="-63.5" font-family="Helvetica,sans-Serif" font-size="10.00">ee/draw/src/draw.c</text>
</a>
</g>
</g>
<!-- Node2&#45;&gt;Node3 -->
<g id="edge2" class="edge">
<title>Node2&#45;&gt;Node3</title>
<path fill="none" stroke="midnightblue" d="M384.49,-107.82C384.49,-97 384.49,-83.9 384.49,-75.51"/>
<polygon fill="midnightblue" stroke="midnightblue" points="380.99,-107.98 384.49,-117.98 387.99,-107.98 380.99,-107.98"/>
</g>
<!-- Node2&#45;&gt;Node4 -->
<g id="edge3" class="edge">
<title>Node2&#45;&gt;Node4</title>
<path fill="none" stroke="midnightblue" d="M330.2,-116.05C270.33,-104.52 175.17,-86.19 119.68,-75.51"/>
<polygon fill="midnightblue" stroke="midnightblue" points="329.74,-119.52 340.22,-117.98 331.06,-112.65 329.74,-119.52"/>
</g>
<!-- Node5 -->
<g id="node5" class="node">
<title>Node5</title>
<g id="a_node5"><a xlink:href="draw3d_8c_source.html" target="_top" xlink:title=" ">
<polygon fill="white" stroke="black" points="456.49,-56.5 456.49,-75.5 576.49,-75.5 576.49,-56.5 456.49,-56.5"/>
<text text-anchor="middle" x="516.49" y="-63.5" font-family="Helvetica,sans-Serif" font-size="10.00">ee/draw/src/draw3d.c</text>
</a>
</g>
</g>
<!-- Node2&#45;&gt;Node5 -->
<g id="edge4" class="edge">
<title>Node2&#45;&gt;Node5</title>
<path fill="none" stroke="midnightblue" d="M412.61,-113.83C438.23,-102.28 475.38,-85.53 497.61,-75.51"/>
<polygon fill="midnightblue" stroke="midnightblue" points="411.08,-110.67 403.4,-117.98 413.96,-117.06 411.08,-110.67"/>
</g>
<!-- Node6 -->
<g id="node6" class="node">
<title>Node6</title>
<g id="a_node6"><a xlink:href="draw__environment_8c_source.html" target="_top" xlink:title=" ">
<polygon fill="white" stroke="black" points="594.49,-56.5 594.49,-75.5 770.49,-75.5 770.49,-56.5 594.49,-56.5"/>
<text text-anchor="middle" x="682.49" y="-63.5" font-family="Helvetica,sans-Serif" font-size="10.00">ee/draw/src/draw_environment.c</text>
</a>
</g>
</g>
<!-- Node2&#45;&gt;Node6 -->
<g id="edge5" class="edge">
<title>Node2&#45;&gt;Node6</title>
<path fill="none" stroke="midnightblue" d="M437.21,-115.97C494.96,-104.44 586.47,-86.17 639.87,-75.51"/>
<polygon fill="midnightblue" stroke="midnightblue" points="436.31,-112.58 427.19,-117.98 437.68,-119.45 436.31,-112.58"/>
</g>
<!-- Node7 -->
<g id="node7" class="node">
<title>Node7</title>
<g id="a_node7"><a xlink:href="font_8h.html" target="_top" xlink:title=" ">
<polygon fill="white" stroke="black" points="191.99,-56.5 191.99,-75.5 312.99,-75.5 312.99,-56.5 191.99,-56.5"/>
<text text-anchor="middle" x="252.49" y="-63.5" font-family="Helvetica,sans-Serif" font-size="10.00">ee/font/include/font.h</text>
</a>
</g>
</g>
<!-- Node2&#45;&gt;Node7 -->
<g id="edge6" class="edge">
<title>Node2&#45;&gt;Node7</title>
<path fill="none" stroke="midnightblue" d="M356.38,-113.83C330.75,-102.28 293.6,-85.53 271.37,-75.51"/>
<polygon fill="midnightblue" stroke="midnightblue" points="355.02,-117.06 365.58,-117.98 357.9,-110.67 355.02,-117.06"/>
</g>
<!-- Node2&#45;&gt;Node8 -->
<g id="edge9" class="edge">
<title>Node2&#45;&gt;Node8</title>
<path fill="none" stroke="midnightblue" d="M313.25,-116.34C262.94,-107.79 201.27,-94.06 182.49,-76 166.73,-60.84 163.84,-33.4 163.44,-19.52"/>
<polygon fill="midnightblue" stroke="midnightblue" points="312.71,-119.8 323.15,-117.98 313.85,-112.89 312.71,-119.8"/>
</g>
<!-- Node2&#45;&gt;Node9 -->
<g id="edge10" class="edge">
<title>Node2&#45;&gt;Node9</title>
<path fill="none" stroke="midnightblue" d="M459.31,-126.42C560.22,-124.75 732.73,-115.93 779.49,-76 796.12,-61.8 798.62,-33.92 798.74,-19.74"/>
<polygon fill="midnightblue" stroke="midnightblue" points="459.12,-122.92 449.17,-126.56 459.22,-129.92 459.12,-122.92"/>
</g>
<!-- Node7&#45;&gt;Node8 -->
<g id="edge7" class="edge">
<title>Node7&#45;&gt;Node8</title>
<path fill="none" stroke="midnightblue" d="M229.25,-50.9C212.93,-41 191.63,-28.07 177.75,-19.65"/>
<polygon fill="midnightblue" stroke="midnightblue" points="227.83,-54.13 238.19,-56.32 231.46,-48.14 227.83,-54.13"/>
</g>
<!-- Node7&#45;&gt;Node9 -->
<g id="edge8" class="edge">
<title>Node7&#45;&gt;Node9</title>
<path fill="none" stroke="midnightblue" d="M323.02,-55.86C482.02,-38.15 657.72,-22.77 744.42,-15.47"/>
<polygon fill="midnightblue" stroke="midnightblue" points="322.61,-52.38 313.06,-56.98 323.39,-59.34 322.61,-52.38"/>
</g>
</g>
</svg>
