<?xml version="1.0" encoding="UTF-8" standalone="no"?>
<!DOCTYPE svg PUBLIC "-//W3C//DTD SVG 1.1//EN"
 "http://www.w3.org/Graphics/SVG/1.1/DTD/svg11.dtd">
<!-- Generated by graphviz version 2.43.0 (0)
 -->
<!-- Title: ee/kernel/src/sifrpc.c Pages: 1 -->
<svg width="422pt" height="196pt"
 viewBox="0.00 0.00 421.57 196.00" xmlns="http://www.w3.org/2000/svg" xmlns:xlink="http://www.w3.org/1999/xlink">
<g id="graph0" class="graph" transform="scale(1 1) rotate(0) translate(4 192)">
<title>ee/kernel/src/sifrpc.c</title>
<polygon fill="white" stroke="transparent" points="-4,4 -4,-192 417.57,-192 417.57,4 -4,4"/>
<!-- Node1 -->
<g id="node1" class="node">
<title>Node1</title>
<g id="a_node1"><a xlink:title=" ">
<polygon fill="#bfbfbf" stroke="black" points="124.07,-168.5 124.07,-187.5 241.07,-187.5 241.07,-168.5 124.07,-168.5"/>
<text text-anchor="middle" x="182.57" y="-175.5" font-family="Helvetica,sans-Serif" font-size="10.00">ee/kernel/src/sifrpc.c</text>
</a>
</g>
</g>
<!-- Node2 -->
<g id="node2" class="node">
<title>Node2</title>
<g id="a_node2"><a xlink:href="tamtypes_8h.html" target="_top" xlink:title=" ">
<polygon fill="white" stroke="black" points="166.57,-0.5 166.57,-19.5 238.57,-19.5 238.57,-0.5 166.57,-0.5"/>
<text text-anchor="middle" x="202.57" y="-7.5" font-family="Helvetica,sans-Serif" font-size="10.00">tamtypes.h</text>
</a>
</g>
</g>
<!-- Node1&#45;&gt;Node2 -->
<g id="edge1" class="edge">
<title>Node1&#45;&gt;Node2</title>
<path fill="none" stroke="midnightblue" d="M123.95,-168.85C81.34,-161.59 28.9,-149.4 15.57,-132 -4.98,-105.19 -5.34,-82.53 15.57,-56 32.74,-34.21 106.41,-21.74 156,-15.68"/>
<polygon fill="midnightblue" stroke="midnightblue" points="156.66,-19.13 166.19,-14.49 155.85,-12.18 156.66,-19.13"/>
</g>
<!-- Node3 -->
<g id="node3" class="node">
<title>Node3</title>
<g id="a_node3"><a xlink:href="ps2lib__err_8h.html" target="_top" xlink:title=" ">
<polygon fill="white" stroke="black" points="25.07,-112.5 25.07,-131.5 98.07,-131.5 98.07,-112.5 25.07,-112.5"/>
<text text-anchor="middle" x="61.57" y="-119.5" font-family="Helvetica,sans-Serif" font-size="10.00">ps2lib_err.h</text>
</a>
</g>
</g>
<!-- Node1&#45;&gt;Node3 -->
<g id="edge2" class="edge">
<title>Node1&#45;&gt;Node3</title>
<path fill="none" stroke="midnightblue" d="M163.39,-168.44C143.66,-159.64 112.68,-145.81 90.07,-135.72"/>
<polygon fill="midnightblue" stroke="midnightblue" points="91.21,-132.4 80.65,-131.52 88.35,-138.79 91.21,-132.4"/>
</g>
<!-- Node4 -->
<g id="node4" class="node">
<title>Node4</title>
<g id="a_node4"><a xlink:href="kernel_8h.html" target="_top" xlink:title=" ">
<polygon fill="white" stroke="black" points="116.57,-112.5 116.57,-131.5 172.57,-131.5 172.57,-112.5 116.57,-112.5"/>
<text text-anchor="middle" x="144.57" y="-119.5" font-family="Helvetica,sans-Serif" font-size="10.00">kernel.h</text>
</a>
</g>
</g>
<!-- Node1&#45;&gt;Node4 -->
<g id="edge3" class="edge">
<title>Node1&#45;&gt;Node4</title>
<path fill="none" stroke="midnightblue" d="M176.29,-168.08C170.92,-160.46 163.05,-149.26 156.49,-139.94"/>
<polygon fill="midnightblue" stroke="midnightblue" points="159.34,-137.91 150.72,-131.75 153.62,-141.94 159.34,-137.91"/>
</g>
<!-- Node9 -->
<g id="node9" class="node">
<title>Node9</title>
<g id="a_node9"><a xlink:title=" ">
<polygon fill="white" stroke="#bfbfbf" points="191.07,-112.5 191.07,-131.5 250.07,-131.5 250.07,-112.5 191.07,-112.5"/>
<text text-anchor="middle" x="220.57" y="-119.5" font-family="Helvetica,sans-Serif" font-size="10.00">sifcmd.h</text>
</a>
</g>
</g>
<!-- Node1&#45;&gt;Node9 -->
<g id="edge10" class="edge">
<title>Node1&#45;&gt;Node9</title>
<path fill="none" stroke="midnightblue" d="M188.84,-168.08C194.21,-160.46 202.08,-149.26 208.64,-139.94"/>
<polygon fill="midnightblue" stroke="midnightblue" points="211.51,-141.94 214.41,-131.75 205.79,-137.91 211.51,-141.94"/>
</g>
<!-- Node10 -->
<g id="node10" class="node">
<title>Node10</title>
<g id="a_node10"><a xlink:title=" ">
<polygon fill="white" stroke="#bfbfbf" points="268.07,-112.5 268.07,-131.5 321.07,-131.5 321.07,-112.5 268.07,-112.5"/>
<text text-anchor="middle" x="294.57" y="-119.5" font-family="Helvetica,sans-Serif" font-size="10.00">sifrpc.h</text>
</a>
</g>
</g>
<!-- Node1&#45;&gt;Node10 -->
<g id="edge11" class="edge">
<title>Node1&#45;&gt;Node10</title>
<path fill="none" stroke="midnightblue" d="M200.56,-168.32C218.6,-159.62 246.61,-146.12 267.37,-136.11"/>
<polygon fill="midnightblue" stroke="midnightblue" points="269.13,-139.15 276.62,-131.65 266.09,-132.84 269.13,-139.15"/>
</g>
<!-- Node11 -->
<g id="node11" class="node">
<title>Node11</title>
<g id="a_node11"><a xlink:href="iopcontrol_8h.html" target="_top" xlink:title=" ">
<polygon fill="white" stroke="black" points="339.57,-112.5 339.57,-131.5 413.57,-131.5 413.57,-112.5 339.57,-112.5"/>
<text text-anchor="middle" x="376.57" y="-119.5" font-family="Helvetica,sans-Serif" font-size="10.00">iopcontrol.h</text>
</a>
</g>
</g>
<!-- Node1&#45;&gt;Node11 -->
<g id="edge12" class="edge">
<title>Node1&#45;&gt;Node11</title>
<path fill="none" stroke="midnightblue" d="M213.31,-168.44C246.51,-159.2 299.56,-144.44 336.12,-134.26"/>
<polygon fill="midnightblue" stroke="midnightblue" points="337.27,-137.57 345.97,-131.52 335.4,-130.83 337.27,-137.57"/>
</g>
<!-- Node5 -->
<g id="node5" class="node">
<title>Node5</title>
<g id="a_node5"><a xlink:title=" ">
<polygon fill="white" stroke="#bfbfbf" points="24.57,-56.5 24.57,-75.5 80.57,-75.5 80.57,-56.5 24.57,-56.5"/>
<text text-anchor="middle" x="52.57" y="-63.5" font-family="Helvetica,sans-Serif" font-size="10.00">stddef.h</text>
</a>
</g>
</g>
<!-- Node4&#45;&gt;Node5 -->
<g id="edge4" class="edge">
<title>Node4&#45;&gt;Node5</title>
<path fill="none" stroke="midnightblue" d="M129.78,-112.32C115.3,-103.82 92.99,-90.73 76.07,-80.8"/>
<polygon fill="midnightblue" stroke="midnightblue" points="77.71,-77.7 67.31,-75.65 74.16,-83.74 77.71,-77.7"/>
</g>
<!-- Node6 -->
<g id="node6" class="node">
<title>Node6</title>
<g id="a_node6"><a xlink:title=" ">
<polygon fill="white" stroke="#bfbfbf" points="98.57,-56.5 98.57,-75.5 154.57,-75.5 154.57,-56.5 98.57,-56.5"/>
<text text-anchor="middle" x="126.57" y="-63.5" font-family="Helvetica,sans-Serif" font-size="10.00">stdarg.h</text>
</a>
</g>
</g>
<!-- Node4&#45;&gt;Node6 -->
<g id="edge5" class="edge">
<title>Node4&#45;&gt;Node6</title>
<path fill="none" stroke="midnightblue" d="M141.59,-112.08C139.18,-104.85 135.7,-94.41 132.7,-85.4"/>
<polygon fill="midnightblue" stroke="midnightblue" points="135.97,-84.13 129.48,-75.75 129.32,-86.34 135.97,-84.13"/>
</g>
<!-- Node7 -->
<g id="node7" class="node">
<title>Node7</title>
<g id="a_node7"><a xlink:href="sifdma_8h.html" target="_top" xlink:title=" ">
<polygon fill="white" stroke="black" points="173.07,-56.5 173.07,-75.5 232.07,-75.5 232.07,-56.5 173.07,-56.5"/>
<text text-anchor="middle" x="202.57" y="-63.5" font-family="Helvetica,sans-Serif" font-size="10.00">sifdma.h</text>
</a>
</g>
</g>
<!-- Node4&#45;&gt;Node7 -->
<g id="edge6" class="edge">
<title>Node4&#45;&gt;Node7</title>
<path fill="none" stroke="midnightblue" d="M153.88,-112.32C162.46,-104.34 175.38,-92.31 185.75,-82.65"/>
<polygon fill="midnightblue" stroke="midnightblue" points="188.14,-85.21 193.08,-75.83 183.37,-80.09 188.14,-85.21"/>
</g>
<!-- Node8 -->
<g id="node8" class="node">
<title>Node8</title>
<g id="a_node8"><a xlink:href="mipscopaccess_8h.html" target="_top" xlink:title=" ">
<polygon fill="white" stroke="black" points="250.57,-56.5 250.57,-75.5 350.57,-75.5 350.57,-56.5 250.57,-56.5"/>
<text text-anchor="middle" x="300.57" y="-63.5" font-family="Helvetica,sans-Serif" font-size="10.00">mipscopaccess.h</text>
</a>
</g>
</g>
<!-- Node4&#45;&gt;Node8 -->
<g id="edge8" class="edge">
<title>Node4&#45;&gt;Node8</title>
<path fill="none" stroke="midnightblue" d="M169.28,-112.44C195.41,-103.4 236.83,-89.06 266.14,-78.92"/>
<polygon fill="midnightblue" stroke="midnightblue" points="267.66,-82.1 275.96,-75.52 265.37,-75.48 267.66,-82.1"/>
</g>
<!-- Node7&#45;&gt;Node2 -->
<g id="edge7" class="edge">
<title>Node7&#45;&gt;Node2</title>
<path fill="none" stroke="midnightblue" d="M202.57,-56.08C202.57,-49.01 202.57,-38.86 202.57,-29.99"/>
<polygon fill="midnightblue" stroke="midnightblue" points="206.07,-29.75 202.57,-19.75 199.07,-29.75 206.07,-29.75"/>
</g>
<!-- Node8&#45;&gt;Node2 -->
<g id="edge9" class="edge">
<title>Node8&#45;&gt;Node2</title>
<path fill="none" stroke="midnightblue" d="M284.82,-56.32C269.25,-47.74 245.19,-34.49 227.11,-24.52"/>
<polygon fill="midnightblue" stroke="midnightblue" points="228.72,-21.42 218.27,-19.65 225.34,-27.55 228.72,-21.42"/>
</g>
</g>
</svg>
