<?xml version="1.0" encoding="UTF-8" standalone="no"?>
<!DOCTYPE svg PUBLIC "-//W3C//DTD SVG 1.1//EN"
 "http://www.w3.org/Graphics/SVG/1.1/DTD/svg11.dtd">
<!-- Generated by graphviz version 12.2.0 (20241103.1931)
 -->
<!-- Title: ee/sbv/src/smod.c Pages: 1 -->
<!--zoomable 304 -->

<svg id="main" version="1.1" xmlns="http://www.w3.org/2000/svg" xmlns:xlink="http://www.w3.org/1999/xlink" xml:space="preserve" onload="init(evt)">

<style type="text/css"><![CDATA[
.node, .edge {opacity: 0.7;}
.node.selected, .edge.selected {opacity: 1;}
.edge:hover path { stroke: red; }
.edge:hover polygon { stroke: red; fill: red; }
]]></style>

<defs>
  <circle id="rim" cx="0" cy="0" r="7"/>
  <circle id="rim2" cx="0" cy="0" r="3.5"/>
  <g id="zoomPlus">
    <use xlink:href="#rim" fill="#404040"><set attributeName="fill" to="#808080" begin="zoomplus.mouseover" end="zoomplus.mouseout"/></use>
    <path d="M-4,0h8M0,-4v8" fill="none" stroke="white" stroke-width="1.5" pointer-events="none"/>
  </g>
  <g id="zoomMin">
    <use xlink:href="#rim" fill="#404040"><set attributeName="fill" to="#808080" begin="zoomminus.mouseover" end="zoomminus.mouseout"/></use>
    <path d="M-4,0h8" fill="none" stroke="white" stroke-width="1.5" pointer-events="none"/>
  </g>
  <g id="arrowUp" transform="translate(30 24)">
    <use xlink:href="#rim"/>
    <path pointer-events="none" fill="none" stroke="white" stroke-width="1.5" d="M0,-3.0v7 M-2.5,-0.5L0,-3.0L2.5,-0.5"/>
  </g>
  <g id="arrowRight" transform="rotate(90) translate(36 -43)">
    <use xlink:href="#rim"/>
    <path pointer-events="none" fill="none" stroke="white" stroke-width="1.5" d="M0,-3.0v7 M-2.5,-0.5L0,-3.0L2.5,-0.5"/>
  </g>
  <g id="arrowDown" transform="rotate(180) translate(-30 -48)">
    <use xlink:href="#rim"/>
    <path pointer-events="none" fill="none" stroke="white" stroke-width="1.5" d="M0,-3.0v7 M-2.5,-0.5L0,-3.0L2.5,-0.5"/>
  </g>
  <g id="arrowLeft" transform="rotate(270) translate(-36 17)">
    <use xlink:href="#rim"/>
    <path pointer-events="none" fill="none" stroke="white" stroke-width="1.5" d="M0,-3.0v7 M-2.5,-0.5L0,-3.0L2.5,-0.5"/>
  </g>
  <g id="resetDef">
    <use xlink:href="#rim2" fill="#404040"><set attributeName="fill" to="#808080" begin="reset.mouseover" end="reset.mouseout"/></use>
  </g>
</defs>
<script type="application/ecmascript">
var viewWidth = 716;
var viewHeight = 304;
var sectionId = 'dynsection-0';
</script>
<script type="application/ecmascript" xlink:href="svg.min.js"/>
<svg id="graph" class="graph">
<g id="viewport">
<title>ee/sbv/src/smod.c</title>
<!-- Node1 -->
<g id="Node000001" class="node">
<title>Node1</title>
<g id="a_Node000001"><a xlink:title=" ">
<polygon fill="#999999" stroke="#666666" points="523.5,-295.5 427.25,-295.5 427.25,-276.25 523.5,-276.25 523.5,-295.5"/>
<text text-anchor="middle" x="475.38" y="-282" font-family="Helvetica,sans-Serif" font-size="10.00">ee/sbv/src/smod.c</text>
</a>
</g>
</g>
<!-- Node2 -->
<g id="Node000002" class="node">
<title>Node2</title>
<g id="a_Node000002"><a xlink:href="tamtypes_8h.html" target="_top" xlink:title=" ">
<polygon fill="white" stroke="#666666" points="437,-19.25 373.75,-19.25 373.75,0 437,0 437,-19.25"/>
<text text-anchor="middle" x="405.38" y="-5.75" font-family="Helvetica,sans-Serif" font-size="10.00">tamtypes.h</text>
</a>
</g>
</g>
<!-- Node1&#45;&gt;Node2 -->
<g id="edge1_Node000001_Node000002" class="edge">
<title>Node1&#45;&gt;Node2</title>
<g id="a_edge1_Node000001_Node000002"><a xlink:title=" ">
<path fill="none" stroke="#63b8ff" d="M487.91,-276.01C509.96,-259.27 553.38,-220.69 553.38,-176.38 553.38,-176.38 553.38,-176.38 553.38,-119.12 553.38,-66.66 492.14,-36.8 448.45,-22.17"/>
<polygon fill="#63b8ff" stroke="#63b8ff" points="449.52,-18.84 438.93,-19.15 447.4,-25.51 449.52,-18.84"/>
</a>
</g>
</g>
<!-- Node3 -->
<g id="Node000003" class="node">
<title>Node3</title>
<g id="a_Node000003"><a xlink:href="kernel_8h.html" target="_top" xlink:title=" ">
<polygon fill="white" stroke="#666666" points="341.25,-185 291.5,-185 291.5,-165.75 341.25,-165.75 341.25,-185"/>
<text text-anchor="middle" x="316.38" y="-171.5" font-family="Helvetica,sans-Serif" font-size="10.00">kernel.h</text>
</a>
</g>
</g>
<!-- Node1&#45;&gt;Node3 -->
<g id="edge2_Node000001_Node000003" class="edge">
<title>Node1&#45;&gt;Node3</title>
<g id="a_edge2_Node000001_Node000003"><a xlink:title=" ">
<path fill="none" stroke="#63b8ff" d="M456.8,-275.87C440.01,-267.44 414.85,-254.11 394.38,-240.25 372.77,-225.63 349.88,-206.38 334.52,-192.85"/>
<polygon fill="#63b8ff" stroke="#63b8ff" points="336.94,-190.31 327.15,-186.26 332.28,-195.53 336.94,-190.31"/>
</a>
</g>
</g>
<!-- Node7 -->
<g id="Node000007" class="node">
<title>Node7</title>
<g id="a_Node000007"><a xlink:href="string_8h_source.html" target="_top" xlink:title=" ">
<polygon fill="white" stroke="#666666" points="264.12,-240.25 216.62,-240.25 216.62,-221 264.12,-221 264.12,-240.25"/>
<text text-anchor="middle" x="240.38" y="-226.75" font-family="Helvetica,sans-Serif" font-size="10.00">string.h</text>
</a>
</g>
</g>
<!-- Node1&#45;&gt;Node7 -->
<g id="edge7_Node000001_Node000007" class="edge">
<title>Node1&#45;&gt;Node7</title>
<g id="a_edge7_Node000001_Node000007"><a xlink:title=" ">
<path fill="none" stroke="#63b8ff" d="M435.24,-275.78C390.33,-265.6 318.28,-249.28 275.51,-239.59"/>
<polygon fill="#63b8ff" stroke="#63b8ff" points="276.53,-236.23 266,-237.43 274.98,-243.06 276.53,-236.23"/>
</a>
</g>
</g>
<!-- Node14 -->
<g id="Node000014" class="node">
<title>Node14</title>
<g id="a_Node000014"><a xlink:title=" ">
<polygon fill="#e0e0e0" stroke="#999999" points="629.12,-240.25 581.62,-240.25 581.62,-221 629.12,-221 629.12,-240.25"/>
<text text-anchor="middle" x="605.38" y="-226.75" font-family="Helvetica,sans-Serif" font-size="10.00">sifrpc.h</text>
</a>
</g>
</g>
<!-- Node1&#45;&gt;Node14 -->
<g id="edge18_Node000001_Node000014" class="edge">
<title>Node1&#45;&gt;Node14</title>
<g id="a_edge18_Node000001_Node000014"><a xlink:title=" ">
<path fill="none" stroke="#63b8ff" d="M497.43,-275.84C518.06,-267.39 549.16,-254.65 572.68,-245.02"/>
<polygon fill="#63b8ff" stroke="#63b8ff" points="573.89,-248.31 581.81,-241.28 571.23,-241.83 573.89,-248.31"/>
</a>
</g>
</g>
<!-- Node15 -->
<g id="Node000015" class="node">
<title>Node15</title>
<g id="a_Node000015"><a xlink:href="smem_8h.html" target="_top" xlink:title=" ">
<polygon fill="white" stroke="#666666" points="430.62,-74.5 380.12,-74.5 380.12,-55.25 430.62,-55.25 430.62,-74.5"/>
<text text-anchor="middle" x="405.38" y="-61" font-family="Helvetica,sans-Serif" font-size="10.00">smem.h</text>
</a>
</g>
</g>
<!-- Node1&#45;&gt;Node15 -->
<g id="edge19_Node000001_Node000015" class="edge">
<title>Node1&#45;&gt;Node15</title>
<g id="a_edge19_Node000001_Node000015"><a xlink:title=" ">
<path fill="none" stroke="#63b8ff" d="M472.54,-276.02C462.19,-243.62 426.21,-131.05 411.61,-85.37"/>
<polygon fill="#63b8ff" stroke="#63b8ff" points="415,-84.5 408.63,-76.04 408.34,-86.63 415,-84.5"/>
</a>
</g>
</g>
<!-- Node16 -->
<g id="Node000016" class="node">
<title>Node16</title>
<g id="a_Node000016"><a xlink:href="slib_8h.html" target="_top" xlink:title=" ">
<polygon fill="white" stroke="#666666" points="487.62,-74.5 449.12,-74.5 449.12,-55.25 487.62,-55.25 487.62,-74.5"/>
<text text-anchor="middle" x="468.38" y="-61" font-family="Helvetica,sans-Serif" font-size="10.00">slib.h</text>
</a>
</g>
</g>
<!-- Node1&#45;&gt;Node16 -->
<g id="edge21_Node000001_Node000016" class="edge">
<title>Node1&#45;&gt;Node16</title>
<g id="a_edge21_Node000001_Node000016"><a xlink:title=" ">
<path fill="none" stroke="#63b8ff" d="M474.53,-275.8C472.93,-258.27 469.55,-218.53 468.38,-185 467.16,-150.3 467.54,-109.87 467.94,-86.16"/>
<polygon fill="#63b8ff" stroke="#63b8ff" points="471.44,-86.42 468.13,-76.36 464.44,-86.29 471.44,-86.42"/>
</a>
</g>
</g>
<!-- Node17 -->
<g id="Node000017" class="node">
<title>Node17</title>
<g id="a_Node000017"><a xlink:href="smod_8h.html" target="_top" xlink:title=" ">
<polygon fill="white" stroke="#666666" points="525.12,-185 477.62,-185 477.62,-165.75 525.12,-165.75 525.12,-185"/>
<text text-anchor="middle" x="501.38" y="-171.5" font-family="Helvetica,sans-Serif" font-size="10.00">smod.h</text>
</a>
</g>
</g>
<!-- Node1&#45;&gt;Node17 -->
<g id="edge23_Node000001_Node000017" class="edge">
<title>Node1&#45;&gt;Node17</title>
<g id="a_edge23_Node000001_Node000017"><a xlink:title=" ">
<path fill="none" stroke="#63b8ff" d="M477.5,-276C481.64,-258.75 490.84,-220.33 496.54,-196.56"/>
<polygon fill="#63b8ff" stroke="#63b8ff" points="499.94,-197.39 498.87,-186.85 493.13,-195.76 499.94,-197.39"/>
</a>
</g>
</g>
<!-- Node18 -->
<g id="Node000018" class="node">
<title>Node18</title>
<g id="a_Node000018"><a xlink:href="ee_2sbv_2src_2common_8h_source.html" target="_top" xlink:title=" ">
<polygon fill="white" stroke="#666666" points="707.88,-240.25 646.88,-240.25 646.88,-221 707.88,-221 707.88,-240.25"/>
<text text-anchor="middle" x="677.38" y="-226.75" font-family="Helvetica,sans-Serif" font-size="10.00">common.h</text>
</a>
</g>
</g>
<!-- Node1&#45;&gt;Node18 -->
<g id="edge25_Node000001_Node000018" class="edge">
<title>Node1&#45;&gt;Node18</title>
<g id="a_edge25_Node000001_Node000018"><a xlink:title=" ">
<path fill="none" stroke="#63b8ff" d="M509.64,-275.84C544.43,-266.67 598.33,-252.46 635.59,-242.64"/>
<polygon fill="#63b8ff" stroke="#63b8ff" points="636.35,-246.06 645.12,-240.13 634.56,-239.29 636.35,-246.06"/>
</a>
</g>
</g>
<!-- Node4 -->
<g id="Node000004" class="node">
<title>Node4</title>
<g id="a_Node000004"><a xlink:title=" ">
<polygon fill="#e0e0e0" stroke="#999999" points="196.62,-19.25 146.12,-19.25 146.12,0 196.62,0 196.62,-19.25"/>
<text text-anchor="middle" x="171.38" y="-5.75" font-family="Helvetica,sans-Serif" font-size="10.00">stddef.h</text>
</a>
</g>
</g>
<!-- Node3&#45;&gt;Node4 -->
<g id="edge3_Node000003_Node000004" class="edge">
<title>Node3&#45;&gt;Node4</title>
<g id="a_edge3_Node000003_Node000004"><a xlink:title=" ">
<path fill="none" stroke="#63b8ff" d="M313.46,-165.56C308.47,-151.79 296.98,-125.24 278.38,-110.5 236.73,-77.51 195.78,-117.36 164.38,-74.5 155.09,-61.83 158.13,-43.78 162.75,-30.1"/>
<polygon fill="#63b8ff" stroke="#63b8ff" points="165.99,-31.44 166.4,-20.85 159.47,-28.88 165.99,-31.44"/>
</a>
</g>
</g>
<!-- Node5 -->
<g id="Node000005" class="node">
<title>Node5</title>
<g id="a_Node000005"><a xlink:title=" ">
<polygon fill="#e0e0e0" stroke="#999999" points="269.62,-129.75 219.12,-129.75 219.12,-110.5 269.62,-110.5 269.62,-129.75"/>
<text text-anchor="middle" x="244.38" y="-116.25" font-family="Helvetica,sans-Serif" font-size="10.00">stdarg.h</text>
</a>
</g>
</g>
<!-- Node3&#45;&gt;Node5 -->
<g id="edge4_Node000003_Node000005" class="edge">
<title>Node3&#45;&gt;Node5</title>
<g id="a_edge4_Node000003_Node000005"><a xlink:title=" ">
<path fill="none" stroke="#63b8ff" d="M304.16,-165.34C293.55,-157.49 277.94,-145.95 265.33,-136.62"/>
<polygon fill="#63b8ff" stroke="#63b8ff" points="267.75,-134.06 257.63,-130.92 263.58,-139.69 267.75,-134.06"/>
</a>
</g>
</g>
<!-- Node6 -->
<g id="Node000006" class="node">
<title>Node6</title>
<g id="a_Node000006"><a xlink:href="sifdma_8h.html" target="_top" xlink:title=" ">
<polygon fill="white" stroke="#666666" points="361.75,-74.5 309,-74.5 309,-55.25 361.75,-55.25 361.75,-74.5"/>
<text text-anchor="middle" x="335.38" y="-61" font-family="Helvetica,sans-Serif" font-size="10.00">sifdma.h</text>
</a>
</g>
</g>
<!-- Node3&#45;&gt;Node6 -->
<g id="edge5_Node000003_Node000006" class="edge">
<title>Node3&#45;&gt;Node6</title>
<g id="a_edge5_Node000003_Node000006"><a xlink:title=" ">
<path fill="none" stroke="#63b8ff" d="M317.93,-165.5C320.95,-148.25 327.68,-109.83 331.84,-86.06"/>
<polygon fill="#63b8ff" stroke="#63b8ff" points="335.26,-86.82 333.54,-76.37 328.37,-85.61 335.26,-86.82"/>
</a>
</g>
</g>
<!-- Node6&#45;&gt;Node2 -->
<g id="edge6_Node000006_Node000002" class="edge">
<title>Node6&#45;&gt;Node2</title>
<g id="a_edge6_Node000006_Node000002"><a xlink:title=" ">
<path fill="none" stroke="#63b8ff" d="M347.25,-54.84C357.47,-47.07 372.45,-35.67 384.64,-26.4"/>
<polygon fill="#63b8ff" stroke="#63b8ff" points="386.63,-29.28 392.47,-20.44 382.39,-23.71 386.63,-29.28"/>
</a>
</g>
</g>
<!-- Node8 -->
<g id="Node000008" class="node">
<title>Node8</title>
<g id="a_Node000008"><a xlink:href="sysclib_8h.html" target="_top" xlink:title=" ">
<polygon fill="white" stroke="#666666" points="196.12,-185 142.62,-185 142.62,-165.75 196.12,-165.75 196.12,-185"/>
<text text-anchor="middle" x="169.38" y="-171.5" font-family="Helvetica,sans-Serif" font-size="10.00">sysclib.h</text>
</a>
</g>
</g>
<!-- Node7&#45;&gt;Node8 -->
<g id="edge8_Node000007_Node000008" class="edge">
<title>Node7&#45;&gt;Node8</title>
<g id="a_edge8_Node000007_Node000008"><a xlink:title=" ">
<path fill="none" stroke="#63b8ff" d="M228.33,-220.59C217.97,-212.82 202.77,-201.42 190.41,-192.15"/>
<polygon fill="#63b8ff" stroke="#63b8ff" points="192.55,-189.38 182.45,-186.18 188.35,-194.98 192.55,-189.38"/>
</a>
</g>
</g>
<!-- Node8&#45;&gt;Node5 -->
<g id="edge14_Node000008_Node000005" class="edge">
<title>Node8&#45;&gt;Node5</title>
<g id="a_edge14_Node000008_Node000005"><a xlink:title=" ">
<path fill="none" stroke="#63b8ff" d="M182.1,-165.34C193.09,-157.54 209.22,-146.09 222.31,-136.79"/>
<polygon fill="#63b8ff" stroke="#63b8ff" points="224.23,-139.72 230.36,-131.08 220.18,-134.01 224.23,-139.72"/>
</a>
</g>
</g>
<!-- Node9 -->
<g id="Node000009" class="node">
<title>Node9</title>
<g id="a_Node000009"><a xlink:title=" ">
<polygon fill="#e0e0e0" stroke="#999999" points="46.75,-129.75 0,-129.75 0,-110.5 46.75,-110.5 46.75,-129.75"/>
<text text-anchor="middle" x="23.38" y="-116.25" font-family="Helvetica,sans-Serif" font-size="10.00">types.h</text>
</a>
</g>
</g>
<!-- Node8&#45;&gt;Node9 -->
<g id="edge9_Node000008_Node000009" class="edge">
<title>Node8&#45;&gt;Node9</title>
<g id="a_edge9_Node000008_Node000009"><a xlink:title=" ">
<path fill="none" stroke="#63b8ff" d="M144.61,-165.34C120.69,-156.62 84.27,-143.33 57.59,-133.6"/>
<polygon fill="#63b8ff" stroke="#63b8ff" points="58.83,-130.33 48.23,-130.19 56.43,-136.91 58.83,-130.33"/>
</a>
</g>
</g>
<!-- Node10 -->
<g id="Node000010" class="node">
<title>Node10</title>
<g id="a_Node000010"><a xlink:href="irx_8h.html" target="_top" xlink:title=" ">
<polygon fill="white" stroke="#666666" points="163,-129.75 129.75,-129.75 129.75,-110.5 163,-110.5 163,-129.75"/>
<text text-anchor="middle" x="146.38" y="-116.25" font-family="Helvetica,sans-Serif" font-size="10.00">irx.h</text>
</a>
</g>
</g>
<!-- Node8&#45;&gt;Node10 -->
<g id="edge10_Node000008_Node000010" class="edge">
<title>Node8&#45;&gt;Node10</title>
<g id="a_edge10_Node000008_Node000010"><a xlink:title=" ">
<path fill="none" stroke="#63b8ff" d="M165.58,-165.58C162.63,-158.76 158.44,-149.06 154.72,-140.45"/>
<polygon fill="#63b8ff" stroke="#63b8ff" points="158.03,-139.29 150.86,-131.5 151.61,-142.07 158.03,-139.29"/>
</a>
</g>
</g>
<!-- Node12 -->
<g id="Node000012" class="node">
<title>Node12</title>
<g id="a_Node000012"><a xlink:href="setjmp_8h.html" target="_top" xlink:title=" ">
<polygon fill="white" stroke="#666666" points="290.75,-74.5 238,-74.5 238,-55.25 290.75,-55.25 290.75,-74.5"/>
<text text-anchor="middle" x="264.38" y="-61" font-family="Helvetica,sans-Serif" font-size="10.00">setjmp.h</text>
</a>
</g>
</g>
<!-- Node8&#45;&gt;Node12 -->
<g id="edge15_Node000008_Node000012" class="edge">
<title>Node8&#45;&gt;Node12</title>
<g id="a_edge15_Node000008_Node000012"><a xlink:title=" ">
<path fill="none" stroke="#63b8ff" d="M173.91,-165.52C180.76,-152.62 194.64,-128.25 210.38,-110.5 219.89,-99.77 232.09,-89.46 242.49,-81.46"/>
<polygon fill="#63b8ff" stroke="#63b8ff" points="244.27,-84.5 250.19,-75.71 240.08,-78.89 244.27,-84.5"/>
</a>
</g>
</g>
<!-- Node13 -->
<g id="Node000013" class="node">
<title>Node13</title>
<g id="a_Node000013"><a xlink:href="ctype_8h.html" target="_top" xlink:title=" ">
<polygon fill="white" stroke="#666666" points="111.75,-129.75 65,-129.75 65,-110.5 111.75,-110.5 111.75,-129.75"/>
<text text-anchor="middle" x="88.38" y="-116.25" font-family="Helvetica,sans-Serif" font-size="10.00">ctype.h</text>
</a>
</g>
</g>
<!-- Node8&#45;&gt;Node13 -->
<g id="edge17_Node000008_Node000013" class="edge">
<title>Node8&#45;&gt;Node13</title>
<g id="a_edge17_Node000008_Node000013"><a xlink:title=" ">
<path fill="none" stroke="#63b8ff" d="M155.63,-165.34C143.65,-157.46 126,-145.86 111.79,-136.52"/>
<polygon fill="#63b8ff" stroke="#63b8ff" points="113.73,-133.6 103.45,-131.03 109.88,-139.45 113.73,-133.6"/>
</a>
</g>
</g>
<!-- Node11 -->
<g id="Node000011" class="node">
<title>Node11</title>
<g id="a_Node000011"><a xlink:href="iop_2kernel_2include_2types_8h_source.html" target="_top" xlink:title=" ">
<polygon fill="white" stroke="#666666" points="219.75,-74.5 173,-74.5 173,-55.25 219.75,-55.25 219.75,-74.5"/>
<text text-anchor="middle" x="196.38" y="-61" font-family="Helvetica,sans-Serif" font-size="10.00">types.h</text>
</a>
</g>
</g>
<!-- Node10&#45;&gt;Node11 -->
<g id="edge11_Node000010_Node000011" class="edge">
<title>Node10&#45;&gt;Node11</title>
<g id="a_edge11_Node000010_Node000011"><a xlink:title=" ">
<path fill="none" stroke="#63b8ff" d="M154.63,-110.33C161.54,-102.98 171.6,-92.26 180.11,-83.19"/>
<polygon fill="#63b8ff" stroke="#63b8ff" points="182.61,-85.65 186.9,-75.96 177.51,-80.86 182.61,-85.65"/>
</a>
</g>
</g>
<!-- Node11&#45;&gt;Node2 -->
<g id="edge13_Node000011_Node000002" class="edge">
<title>Node11&#45;&gt;Node2</title>
<g id="a_edge13_Node000011_Node000002"><a xlink:title=" ">
<path fill="none" stroke="#63b8ff" d="M220.16,-57.64C223.26,-56.83 226.39,-56.02 229.38,-55.25 274.83,-43.55 326.94,-30.36 362.59,-21.38"/>
<polygon fill="#63b8ff" stroke="#63b8ff" points="363.25,-24.82 372.09,-18.99 361.54,-18.03 363.25,-24.82"/>
</a>
</g>
</g>
<!-- Node11&#45;&gt;Node4 -->
<g id="edge12_Node000011_Node000004" class="edge">
<title>Node11&#45;&gt;Node4</title>
<g id="a_edge12_Node000011_Node000004"><a xlink:title=" ">
<path fill="none" stroke="#63b8ff" d="M192.25,-55.08C189.05,-48.26 184.49,-38.56 180.45,-29.95"/>
<polygon fill="#63b8ff" stroke="#63b8ff" points="183.65,-28.54 176.24,-20.98 177.32,-31.52 183.65,-28.54"/>
</a>
</g>
</g>
<!-- Node12&#45;&gt;Node2 -->
<g id="edge16_Node000012_Node000002" class="edge">
<title>Node12&#45;&gt;Node2</title>
<g id="a_edge16_Node000012_Node000002"><a xlink:title=" ">
<path fill="none" stroke="#63b8ff" d="M288.29,-54.84C310.88,-46.31 345.01,-33.42 370.6,-23.76"/>
<polygon fill="#63b8ff" stroke="#63b8ff" points="371.8,-27.04 379.92,-20.24 369.33,-20.5 371.8,-27.04"/>
</a>
</g>
</g>
<!-- Node15&#45;&gt;Node2 -->
<g id="edge20_Node000015_Node000002" class="edge">
<title>Node15&#45;&gt;Node2</title>
<g id="a_edge20_Node000015_Node000002"><a xlink:title=" ">
<path fill="none" stroke="#63b8ff" d="M405.38,-55.08C405.38,-48.57 405.38,-39.42 405.38,-31.12"/>
<polygon fill="#63b8ff" stroke="#63b8ff" points="408.88,-31.12 405.38,-21.12 401.88,-31.12 408.88,-31.12"/>
</a>
</g>
</g>
<!-- Node16&#45;&gt;Node2 -->
<g id="edge22_Node000016_Node000002" class="edge">
<title>Node16&#45;&gt;Node2</title>
<g id="a_edge22_Node000016_Node000002"><a xlink:title=" ">
<path fill="none" stroke="#63b8ff" d="M457.69,-54.84C448.67,-47.22 435.54,-36.12 424.69,-26.95"/>
<polygon fill="#63b8ff" stroke="#63b8ff" points="426.96,-24.28 417.06,-20.5 422.44,-29.63 426.96,-24.28"/>
</a>
</g>
</g>
<!-- Node17&#45;&gt;Node2 -->
<g id="edge24_Node000017_Node000002" class="edge">
<title>Node17&#45;&gt;Node2</title>
<g id="a_edge24_Node000017_Node000002"><a xlink:title=" ">
<path fill="none" stroke="#63b8ff" d="M503.85,-165.38C509.13,-144.19 519.23,-90.26 496.38,-55.25 485.33,-38.33 465.89,-27.61 447.8,-20.94"/>
<polygon fill="#63b8ff" stroke="#63b8ff" points="449.12,-17.69 438.53,-17.85 446.91,-24.33 449.12,-17.69"/>
</a>
</g>
</g>
</g>
</svg>

<g id="navigator" transform="translate(0 0)" fill="#404254">
  <rect fill="#f2f5e9" fill-opacity="0.5" stroke="#606060" stroke-width=".5" x="0" y="0" width="60" height="60"/>
  <use id="zoomplus" xlink:href="#zoomPlus" x="17" y="9" onmousedown="handleZoom(evt,'in')"/>
  <use id="zoomminus" xlink:href="#zoomMin" x="42" y="9" onmousedown="handleZoom(evt,'out')"/>
  <use id="reset" xlink:href="#resetDef" x="30" y="36" onmousedown="handleReset()"/>
   <use id="arrowup" xlink:href="#arrowUp" x="0" y="0" onmousedown="handlePan(0,-1)"/>
  <use id="arrowright" xlink:href="#arrowRight" x="0" y="0" onmousedown="handlePan(1,0)"/>
  <use id="arrowdown" xlink:href="#arrowDown" x="0" y="0" onmousedown="handlePan(0,1)"/>
  <use id="arrowleft" xlink:href="#arrowLeft" x="0" y="0" onmousedown="handlePan(-1,0)"/>
</g>
<svg viewBox="0 0 15 15" width="100%" height="30px" preserveAspectRatio="xMaxYMin meet">
 <g id="arrow_out" transform="scale(0.3 0.3)">
  <a xlink:href="ee_2sbv_2src_2smod_8c__incl_org.svg" target="_base">
   <rect id="button" ry="5" rx="5" y="6" x="6" height="38" width="38"
        fill="#f2f5e9" fill-opacity="0.5" stroke="#606060" stroke-width="1.0"/>
   <path id="arrow"
     d="M 11.500037,31.436501 C 11.940474,20.09759 22.043105,11.32322 32.158766,21.979434 L 37.068811,17.246167 C 37.068811,17.246167 37.088388,32 37.088388,32 L 22.160133,31.978069 C 22.160133,31.978069 26.997745,27.140456 26.997745,27.140456 C 18.528582,18.264221 13.291696,25.230495 11.500037,31.436501 z"
     style="fill:#404040;"/>
  </a>
 </g>
</svg>

<style type='text/css'>
<![CDATA[
[data-mouse-over-selected='false'] { opacity: 0.7; }
[data-mouse-over-selected='true']  { opacity: 1.0; }
]]>
</style>
<script type="application/ecmascript"><![CDATA[
document.addEventListener('DOMContentLoaded', (event) => {
  highlightEdges();
  highlightAdjacentNodes();
});
]]></script>
</svg>
