<?xml version="1.0" encoding="UTF-8" standalone="no"?>
<!DOCTYPE svg PUBLIC "-//W3C//DTD SVG 1.1//EN"
 "http://www.w3.org/Graphics/SVG/1.1/DTD/svg11.dtd">
<!-- Generated by graphviz version 2.44.0 ()
 -->
<!-- Title: ee/network/tcpip/src/ps2ip.c Pages: 1 -->
<svg width="1158pt" height="319pt"
 viewBox="0.00 0.00 1157.50 319.00" xmlns="http://www.w3.org/2000/svg" xmlns:xlink="http://www.w3.org/1999/xlink">
<g id="graph0" class="graph" transform="scale(1 1) rotate(0) translate(4 315)">
<title>ee/network/tcpip/src/ps2ip.c</title>
<polygon fill="white" stroke="transparent" points="-4,4 -4,-315 1153.5,-315 1153.5,4 -4,4"/>
<!-- Node1 -->
<g id="node1" class="node">
<title>Node1</title>
<g id="a_node1"><a xlink:title=" ">
<polygon fill="#bfbfbf" stroke="black" points="525,-280.5 525,-310.5 630,-310.5 630,-280.5 525,-280.5"/>
<text text-anchor="start" x="533" y="-298.5" font-family="Helvetica,sans-Serif" font-size="10.00">ee/network/tcpip/src</text>
<text text-anchor="middle" x="577.5" y="-287.5" font-family="Helvetica,sans-Serif" font-size="10.00">/ps2ip.c</text>
</a>
</g>
</g>
<!-- Node2 -->
<g id="node2" class="node">
<title>Node2</title>
<g id="a_node2"><a xlink:href="stdio_8h.html" target="_top" xlink:title=" ">
<polygon fill="white" stroke="black" points="64,-168.5 64,-187.5 109,-187.5 109,-168.5 64,-168.5"/>
<text text-anchor="middle" x="86.5" y="-175.5" font-family="Helvetica,sans-Serif" font-size="10.00">stdio.h</text>
</a>
</g>
</g>
<!-- Node1&#45;&gt;Node2 -->
<g id="edge1" class="edge">
<title>Node1&#45;&gt;Node2</title>
<path fill="none" stroke="midnightblue" d="M524.76,-291.82C428.23,-286.3 227.22,-271.79 163.5,-244 138.06,-232.91 114.59,-210.61 100.41,-195.24"/>
<polygon fill="midnightblue" stroke="midnightblue" points="102.8,-192.67 93.53,-187.54 97.58,-197.33 102.8,-192.67"/>
</g>
<!-- Node8 -->
<g id="node8" class="node">
<title>Node8</title>
<g id="a_node8"><a xlink:href="string_8h_source.html" target="_top" xlink:title=" ">
<polygon fill="white" stroke="black" points="172.5,-224.5 172.5,-243.5 220.5,-243.5 220.5,-224.5 172.5,-224.5"/>
<text text-anchor="middle" x="196.5" y="-231.5" font-family="Helvetica,sans-Serif" font-size="10.00">string.h</text>
</a>
</g>
</g>
<!-- Node1&#45;&gt;Node8 -->
<g id="edge7" class="edge">
<title>Node1&#45;&gt;Node8</title>
<path fill="none" stroke="midnightblue" d="M524.92,-286.29C445.67,-273.91 297.78,-250.82 230.9,-240.37"/>
<polygon fill="midnightblue" stroke="midnightblue" points="231.31,-236.89 220.89,-238.81 230.23,-243.81 231.31,-236.89"/>
</g>
<!-- Node12 -->
<g id="node12" class="node">
<title>Node12</title>
<g id="a_node12"><a xlink:href="netman_8h.html" target="_top" xlink:title=" ">
<polygon fill="white" stroke="black" points="246.5,-56.5 246.5,-75.5 302.5,-75.5 302.5,-56.5 246.5,-56.5"/>
<text text-anchor="middle" x="274.5" y="-63.5" font-family="Helvetica,sans-Serif" font-size="10.00">netman.h</text>
</a>
</g>
</g>
<!-- Node1&#45;&gt;Node12 -->
<g id="edge15" class="edge">
<title>Node1&#45;&gt;Node12</title>
<path fill="none" stroke="midnightblue" d="M524.89,-292.54C451.32,-288.61 323.23,-277.09 292.5,-244 251.91,-200.29 262.32,-121.81 269.88,-85.89"/>
<polygon fill="midnightblue" stroke="midnightblue" points="273.36,-86.34 272.16,-75.82 266.54,-84.79 273.36,-86.34"/>
</g>
<!-- Node13 -->
<g id="node13" class="node">
<title>Node13</title>
<g id="a_node13"><a xlink:title=" ">
<polygon fill="white" stroke="#bfbfbf" points="302,-224.5 302,-243.5 373,-243.5 373,-224.5 302,-224.5"/>
<text text-anchor="middle" x="337.5" y="-231.5" font-family="Helvetica,sans-Serif" font-size="10.00">lwip/memp.h</text>
</a>
</g>
</g>
<!-- Node1&#45;&gt;Node13 -->
<g id="edge17" class="edge">
<title>Node1&#45;&gt;Node13</title>
<path fill="none" stroke="midnightblue" d="M524.83,-281.44C481.96,-270.81 422.15,-255.99 381.73,-245.97"/>
<polygon fill="midnightblue" stroke="midnightblue" points="382.45,-242.54 371.9,-243.53 380.76,-249.33 382.45,-242.54"/>
</g>
<!-- Node14 -->
<g id="node14" class="node">
<title>Node14</title>
<g id="a_node14"><a xlink:title=" ">
<polygon fill="white" stroke="#bfbfbf" points="391,-224.5 391,-243.5 450,-243.5 450,-224.5 391,-224.5"/>
<text text-anchor="middle" x="420.5" y="-231.5" font-family="Helvetica,sans-Serif" font-size="10.00">lwip/sys.h</text>
</a>
</g>
</g>
<!-- Node1&#45;&gt;Node14 -->
<g id="edge18" class="edge">
<title>Node1&#45;&gt;Node14</title>
<path fill="none" stroke="midnightblue" d="M540.29,-280.4C513.72,-270.33 478.31,-256.91 452.89,-247.28"/>
<polygon fill="midnightblue" stroke="midnightblue" points="453.94,-243.93 443.34,-243.66 451.46,-250.47 453.94,-243.93"/>
</g>
<!-- Node15 -->
<g id="node15" class="node">
<title>Node15</title>
<g id="a_node15"><a xlink:title=" ">
<polygon fill="white" stroke="#bfbfbf" points="468.5,-224.5 468.5,-243.5 526.5,-243.5 526.5,-224.5 468.5,-224.5"/>
<text text-anchor="middle" x="497.5" y="-231.5" font-family="Helvetica,sans-Serif" font-size="10.00">lwip/tcp.h</text>
</a>
</g>
</g>
<!-- Node1&#45;&gt;Node15 -->
<g id="edge19" class="edge">
<title>Node1&#45;&gt;Node15</title>
<path fill="none" stroke="midnightblue" d="M558.54,-280.4C546.08,-271.13 529.8,-259.03 517.19,-249.65"/>
<polygon fill="midnightblue" stroke="midnightblue" points="519.25,-246.82 509.14,-243.66 515.08,-252.43 519.25,-246.82"/>
</g>
<!-- Node16 -->
<g id="node16" class="node">
<title>Node16</title>
<g id="a_node16"><a xlink:title=" ">
<polygon fill="white" stroke="#bfbfbf" points="545,-224.5 545,-243.5 610,-243.5 610,-224.5 545,-224.5"/>
<text text-anchor="middle" x="577.5" y="-231.5" font-family="Helvetica,sans-Serif" font-size="10.00">lwip/tcpip.h</text>
</a>
</g>
</g>
<!-- Node1&#45;&gt;Node16 -->
<g id="edge20" class="edge">
<title>Node1&#45;&gt;Node16</title>
<path fill="none" stroke="midnightblue" d="M577.5,-280.4C577.5,-272.47 577.5,-262.46 577.5,-253.86"/>
<polygon fill="midnightblue" stroke="midnightblue" points="581,-253.66 577.5,-243.66 574,-253.66 581,-253.66"/>
</g>
<!-- Node17 -->
<g id="node17" class="node">
<title>Node17</title>
<g id="a_node17"><a xlink:title=" ">
<polygon fill="white" stroke="#bfbfbf" points="628,-224.5 628,-243.5 691,-243.5 691,-224.5 628,-224.5"/>
<text text-anchor="middle" x="659.5" y="-231.5" font-family="Helvetica,sans-Serif" font-size="10.00">lwip/netif.h</text>
</a>
</g>
</g>
<!-- Node1&#45;&gt;Node17 -->
<g id="edge21" class="edge">
<title>Node1&#45;&gt;Node17</title>
<path fill="none" stroke="midnightblue" d="M596.93,-280.4C609.71,-271.13 626.39,-259.03 639.31,-249.65"/>
<polygon fill="midnightblue" stroke="midnightblue" points="641.53,-252.36 647.57,-243.66 637.42,-246.7 641.53,-252.36"/>
</g>
<!-- Node18 -->
<g id="node18" class="node">
<title>Node18</title>
<g id="a_node18"><a xlink:title=" ">
<polygon fill="white" stroke="#bfbfbf" points="709,-224.5 709,-243.5 774,-243.5 774,-224.5 709,-224.5"/>
<text text-anchor="middle" x="741.5" y="-231.5" font-family="Helvetica,sans-Serif" font-size="10.00">lwip/dhcp.h</text>
</a>
</g>
</g>
<!-- Node1&#45;&gt;Node18 -->
<g id="edge22" class="edge">
<title>Node1&#45;&gt;Node18</title>
<path fill="none" stroke="midnightblue" d="M616.37,-280.4C644.25,-270.28 681.44,-256.79 708.01,-247.15"/>
<polygon fill="midnightblue" stroke="midnightblue" points="709.43,-250.36 717.64,-243.66 707.04,-243.78 709.43,-250.36"/>
</g>
<!-- Node19 -->
<g id="node19" class="node">
<title>Node19</title>
<g id="a_node19"><a xlink:title=" ">
<polygon fill="white" stroke="#bfbfbf" points="792,-224.5 792,-243.5 877,-243.5 877,-224.5 792,-224.5"/>
<text text-anchor="middle" x="834.5" y="-231.5" font-family="Helvetica,sans-Serif" font-size="10.00">lwip/prot/dhcp.h</text>
</a>
</g>
</g>
<!-- Node1&#45;&gt;Node19 -->
<g id="edge23" class="edge">
<title>Node1&#45;&gt;Node19</title>
<path fill="none" stroke="midnightblue" d="M630.13,-282.32C676.45,-271.59 743.27,-256.12 787.74,-245.83"/>
<polygon fill="midnightblue" stroke="midnightblue" points="788.76,-249.18 797.71,-243.52 787.18,-242.36 788.76,-249.18"/>
</g>
<!-- Node20 -->
<g id="node20" class="node">
<title>Node20</title>
<g id="a_node20"><a xlink:title=" ">
<polygon fill="white" stroke="#bfbfbf" points="895.5,-224.5 895.5,-243.5 955.5,-243.5 955.5,-224.5 895.5,-224.5"/>
<text text-anchor="middle" x="925.5" y="-231.5" font-family="Helvetica,sans-Serif" font-size="10.00">lwip/inet.h</text>
</a>
</g>
</g>
<!-- Node1&#45;&gt;Node20 -->
<g id="edge24" class="edge">
<title>Node1&#45;&gt;Node20</title>
<path fill="none" stroke="midnightblue" d="M630.26,-286.81C691.73,-277.64 796.27,-261.34 885.5,-244 885.6,-243.98 885.7,-243.96 885.8,-243.94"/>
<polygon fill="midnightblue" stroke="midnightblue" points="886.31,-247.41 895.4,-241.97 884.9,-240.55 886.31,-247.41"/>
</g>
<!-- Node21 -->
<g id="node21" class="node">
<title>Node21</title>
<g id="a_node21"><a xlink:title=" ">
<polygon fill="white" stroke="#bfbfbf" points="974,-224.5 974,-243.5 1047,-243.5 1047,-224.5 974,-224.5"/>
<text text-anchor="middle" x="1010.5" y="-231.5" font-family="Helvetica,sans-Serif" font-size="10.00">netif/etharp.h</text>
</a>
</g>
</g>
<!-- Node1&#45;&gt;Node21 -->
<g id="edge25" class="edge">
<title>Node1&#45;&gt;Node21</title>
<path fill="none" stroke="midnightblue" d="M630.24,-288.69C702.89,-280.45 838.09,-264.27 963.7,-244.04"/>
<polygon fill="midnightblue" stroke="midnightblue" points="964.57,-247.44 973.88,-242.38 963.45,-240.53 964.57,-247.44"/>
</g>
<!-- Node22 -->
<g id="node22" class="node">
<title>Node22</title>
<g id="a_node22"><a xlink:href="ee_2network_2tcpip_2src_2ps2ip__internal_8h_source.html" target="_top" xlink:title=" ">
<polygon fill="white" stroke="black" points="1065.5,-224.5 1065.5,-243.5 1149.5,-243.5 1149.5,-224.5 1065.5,-224.5"/>
<text text-anchor="middle" x="1107.5" y="-231.5" font-family="Helvetica,sans-Serif" font-size="10.00">ps2ip_internal.h</text>
</a>
</g>
</g>
<!-- Node1&#45;&gt;Node22 -->
<g id="edge26" class="edge">
<title>Node1&#45;&gt;Node22</title>
<path fill="none" stroke="midnightblue" d="M630.1,-290.16C716.62,-282.76 894.58,-266.43 1055.17,-244.1"/>
<polygon fill="midnightblue" stroke="midnightblue" points="1055.82,-247.55 1065.24,-242.69 1054.85,-240.61 1055.82,-247.55"/>
</g>
<!-- Node3 -->
<g id="node3" class="node">
<title>Node3</title>
<g id="a_node3"><a xlink:title=" ">
<polygon fill="white" stroke="#bfbfbf" points="0,-112.5 0,-131.5 51,-131.5 51,-112.5 0,-112.5"/>
<text text-anchor="middle" x="25.5" y="-119.5" font-family="Helvetica,sans-Serif" font-size="10.00">stdarg.h</text>
</a>
</g>
</g>
<!-- Node2&#45;&gt;Node3 -->
<g id="edge2" class="edge">
<title>Node2&#45;&gt;Node3</title>
<path fill="none" stroke="midnightblue" d="M76.7,-168.32C67.68,-160.34 54.09,-148.31 43.18,-138.65"/>
<polygon fill="midnightblue" stroke="midnightblue" points="45.29,-135.84 35.48,-131.83 40.65,-141.08 45.29,-135.84"/>
</g>
<!-- Node4 -->
<g id="node4" class="node">
<title>Node4</title>
<g id="a_node4"><a xlink:href="irx_8h.html" target="_top" xlink:title=" ">
<polygon fill="white" stroke="black" points="69.5,-112.5 69.5,-131.5 103.5,-131.5 103.5,-112.5 69.5,-112.5"/>
<text text-anchor="middle" x="86.5" y="-119.5" font-family="Helvetica,sans-Serif" font-size="10.00">irx.h</text>
</a>
</g>
</g>
<!-- Node2&#45;&gt;Node4 -->
<g id="edge3" class="edge">
<title>Node2&#45;&gt;Node4</title>
<path fill="none" stroke="midnightblue" d="M86.5,-168.08C86.5,-161.01 86.5,-150.86 86.5,-141.99"/>
<polygon fill="midnightblue" stroke="midnightblue" points="90,-141.75 86.5,-131.75 83,-141.75 90,-141.75"/>
</g>
<!-- Node5 -->
<g id="node5" class="node">
<title>Node5</title>
<g id="a_node5"><a xlink:href="types_8h_source.html" target="_top" xlink:title=" ">
<polygon fill="white" stroke="black" points="105,-56.5 105,-75.5 152,-75.5 152,-56.5 105,-56.5"/>
<text text-anchor="middle" x="128.5" y="-63.5" font-family="Helvetica,sans-Serif" font-size="10.00">types.h</text>
</a>
</g>
</g>
<!-- Node4&#45;&gt;Node5 -->
<g id="edge4" class="edge">
<title>Node4&#45;&gt;Node5</title>
<path fill="none" stroke="midnightblue" d="M93.44,-112.08C99.43,-104.38 108.25,-93.03 115.55,-83.65"/>
<polygon fill="midnightblue" stroke="midnightblue" points="118.32,-85.79 121.69,-75.75 112.79,-81.5 118.32,-85.79"/>
</g>
<!-- Node6 -->
<g id="node6" class="node">
<title>Node6</title>
<g id="a_node6"><a xlink:title=" ">
<polygon fill="white" stroke="#bfbfbf" points="101,-0.5 101,-19.5 152,-19.5 152,-0.5 101,-0.5"/>
<text text-anchor="middle" x="126.5" y="-7.5" font-family="Helvetica,sans-Serif" font-size="10.00">stddef.h</text>
</a>
</g>
</g>
<!-- Node5&#45;&gt;Node6 -->
<g id="edge5" class="edge">
<title>Node5&#45;&gt;Node6</title>
<path fill="none" stroke="midnightblue" d="M128.17,-56.08C127.91,-49.01 127.53,-38.86 127.2,-29.99"/>
<polygon fill="midnightblue" stroke="midnightblue" points="130.69,-29.61 126.82,-19.75 123.7,-29.87 130.69,-29.61"/>
</g>
<!-- Node7 -->
<g id="node7" class="node">
<title>Node7</title>
<g id="a_node7"><a xlink:href="tamtypes_8h.html" target="_top" xlink:title=" ">
<polygon fill="white" stroke="black" points="170.5,-0.5 170.5,-19.5 234.5,-19.5 234.5,-0.5 170.5,-0.5"/>
<text text-anchor="middle" x="202.5" y="-7.5" font-family="Helvetica,sans-Serif" font-size="10.00">tamtypes.h</text>
</a>
</g>
</g>
<!-- Node5&#45;&gt;Node7 -->
<g id="edge6" class="edge">
<title>Node5&#45;&gt;Node7</title>
<path fill="none" stroke="midnightblue" d="M140.39,-56.32C151.65,-48.11 168.79,-35.6 182.21,-25.81"/>
<polygon fill="midnightblue" stroke="midnightblue" points="184.38,-28.56 190.39,-19.83 180.25,-22.9 184.38,-28.56"/>
</g>
<!-- Node9 -->
<g id="node9" class="node">
<title>Node9</title>
<g id="a_node9"><a xlink:href="sysclib_8h.html" target="_top" xlink:title=" ">
<polygon fill="white" stroke="black" points="145.5,-168.5 145.5,-187.5 199.5,-187.5 199.5,-168.5 145.5,-168.5"/>
<text text-anchor="middle" x="172.5" y="-175.5" font-family="Helvetica,sans-Serif" font-size="10.00">sysclib.h</text>
</a>
</g>
</g>
<!-- Node8&#45;&gt;Node9 -->
<g id="edge8" class="edge">
<title>Node8&#45;&gt;Node9</title>
<path fill="none" stroke="midnightblue" d="M192.54,-224.08C189.29,-216.77 184.58,-206.18 180.55,-197.1"/>
<polygon fill="midnightblue" stroke="midnightblue" points="183.65,-195.47 176.39,-187.75 177.25,-198.31 183.65,-195.47"/>
</g>
<!-- Node9&#45;&gt;Node3 -->
<g id="edge11" class="edge">
<title>Node9&#45;&gt;Node3</title>
<path fill="none" stroke="midnightblue" d="M149.21,-168.44C124.69,-159.44 85.9,-145.19 58.3,-135.05"/>
<polygon fill="midnightblue" stroke="midnightblue" points="59.28,-131.68 48.68,-131.52 56.86,-138.25 59.28,-131.68"/>
</g>
<!-- Node9&#45;&gt;Node4 -->
<g id="edge10" class="edge">
<title>Node9&#45;&gt;Node4</title>
<path fill="none" stroke="midnightblue" d="M158.68,-168.32C145.27,-159.9 124.68,-146.97 108.91,-137.07"/>
<polygon fill="midnightblue" stroke="midnightblue" points="110.61,-134.01 100.28,-131.65 106.89,-139.94 110.61,-134.01"/>
</g>
<!-- Node9&#45;&gt;Node5 -->
<g id="edge9" class="edge">
<title>Node9&#45;&gt;Node5</title>
<path fill="none" stroke="midnightblue" d="M167.77,-168.19C163.07,-159.23 155.8,-144.87 150.5,-132 144.12,-116.51 138.11,-98.42 133.99,-85.27"/>
<polygon fill="midnightblue" stroke="midnightblue" points="137.29,-84.07 131.01,-75.54 130.59,-86.13 137.29,-84.07"/>
</g>
<!-- Node10 -->
<g id="node10" class="node">
<title>Node10</title>
<g id="a_node10"><a xlink:href="setjmp_8h.html" target="_top" xlink:title=" ">
<polygon fill="white" stroke="black" points="175,-56.5 175,-75.5 228,-75.5 228,-56.5 175,-56.5"/>
<text text-anchor="middle" x="201.5" y="-63.5" font-family="Helvetica,sans-Serif" font-size="10.00">setjmp.h</text>
</a>
</g>
</g>
<!-- Node9&#45;&gt;Node10 -->
<g id="edge12" class="edge">
<title>Node9&#45;&gt;Node10</title>
<path fill="none" stroke="midnightblue" d="M185,-168.3C195.37,-160.25 209.39,-147.24 215.5,-132 221.66,-116.63 216.52,-98.08 210.81,-84.74"/>
<polygon fill="midnightblue" stroke="midnightblue" points="213.97,-83.22 206.51,-75.69 207.64,-86.22 213.97,-83.22"/>
</g>
<!-- Node11 -->
<g id="node11" class="node">
<title>Node11</title>
<g id="a_node11"><a xlink:href="ctype_8h.html" target="_top" xlink:title=" ">
<polygon fill="white" stroke="black" points="160,-112.5 160,-131.5 207,-131.5 207,-112.5 160,-112.5"/>
<text text-anchor="middle" x="183.5" y="-119.5" font-family="Helvetica,sans-Serif" font-size="10.00">ctype.h</text>
</a>
</g>
</g>
<!-- Node9&#45;&gt;Node11 -->
<g id="edge14" class="edge">
<title>Node9&#45;&gt;Node11</title>
<path fill="none" stroke="midnightblue" d="M174.32,-168.08C175.77,-160.93 177.87,-150.64 179.69,-141.69"/>
<polygon fill="midnightblue" stroke="midnightblue" points="183.15,-142.25 181.72,-131.75 176.29,-140.85 183.15,-142.25"/>
</g>
<!-- Node10&#45;&gt;Node7 -->
<g id="edge13" class="edge">
<title>Node10&#45;&gt;Node7</title>
<path fill="none" stroke="midnightblue" d="M201.67,-56.08C201.8,-49.01 201.98,-38.86 202.15,-29.99"/>
<polygon fill="midnightblue" stroke="midnightblue" points="205.65,-29.81 202.34,-19.75 198.65,-29.68 205.65,-29.81"/>
</g>
<!-- Node12&#45;&gt;Node7 -->
<g id="edge16" class="edge">
<title>Node12&#45;&gt;Node7</title>
<path fill="none" stroke="midnightblue" d="M262.93,-56.32C252.08,-48.18 235.62,-35.84 222.62,-26.09"/>
<polygon fill="midnightblue" stroke="midnightblue" points="224.38,-23.03 214.28,-19.83 220.18,-28.63 224.38,-23.03"/>
</g>
<!-- Node23 -->
<g id="node23" class="node">
<title>Node23</title>
<g id="a_node23"><a xlink:title=" ">
<polygon fill="white" stroke="#bfbfbf" points="1068,-168.5 1068,-187.5 1147,-187.5 1147,-168.5 1068,-168.5"/>
<text text-anchor="middle" x="1107.5" y="-175.5" font-family="Helvetica,sans-Serif" font-size="10.00">lwip/sockets.h</text>
</a>
</g>
</g>
<!-- Node22&#45;&gt;Node23 -->
<g id="edge27" class="edge">
<title>Node22&#45;&gt;Node23</title>
<path fill="none" stroke="midnightblue" d="M1107.5,-224.08C1107.5,-217.01 1107.5,-206.86 1107.5,-197.99"/>
<polygon fill="midnightblue" stroke="midnightblue" points="1111,-197.75 1107.5,-187.75 1104,-197.75 1111,-197.75"/>
</g>
</g>
</svg>
