<?xml version="1.0" encoding="UTF-8" standalone="no"?>
<!DOCTYPE svg PUBLIC "-//W3C//DTD SVG 1.1//EN"
 "http://www.w3.org/Graphics/SVG/1.1/DTD/svg11.dtd">
<!-- Generated by graphviz version 2.43.0 (0)
 -->
<!-- Title: ee/sbv/src/smod.c Pages: 1 -->
<svg width="674pt" height="308pt"
 viewBox="0.00 0.00 674.00 308.00" xmlns="http://www.w3.org/2000/svg" xmlns:xlink="http://www.w3.org/1999/xlink">
<g id="graph0" class="graph" transform="scale(1 1) rotate(0) translate(4 304)">
<title>ee/sbv/src/smod.c</title>
<polygon fill="white" stroke="transparent" points="-4,4 -4,-304 670,-304 670,4 -4,4"/>
<!-- Node1 -->
<g id="node1" class="node">
<title>Node1</title>
<g id="a_node1"><a xlink:title=" ">
<polygon fill="#bfbfbf" stroke="black" points="178,-280.5 178,-299.5 282,-299.5 282,-280.5 178,-280.5"/>
<text text-anchor="middle" x="230" y="-287.5" font-family="Helvetica,sans-Serif" font-size="10.00">ee/sbv/src/smod.c</text>
</a>
</g>
</g>
<!-- Node2 -->
<g id="node2" class="node">
<title>Node2</title>
<g id="a_node2"><a xlink:href="tamtypes_8h.html" target="_top" xlink:title=" ">
<polygon fill="white" stroke="black" points="221,-0.5 221,-19.5 293,-19.5 293,-0.5 221,-0.5"/>
<text text-anchor="middle" x="257" y="-7.5" font-family="Helvetica,sans-Serif" font-size="10.00">tamtypes.h</text>
</a>
</g>
</g>
<!-- Node1&#45;&gt;Node2 -->
<g id="edge1" class="edge">
<title>Node1&#45;&gt;Node2</title>
<path fill="none" stroke="midnightblue" d="M197.96,-280.44C154.98,-266.78 84,-235.65 84,-179 84,-179 84,-179 84,-121 84,-60.77 159.59,-32.1 210.84,-19.59"/>
<polygon fill="midnightblue" stroke="midnightblue" points="211.78,-22.96 220.73,-17.3 210.2,-16.14 211.78,-22.96"/>
</g>
<!-- Node3 -->
<g id="node3" class="node">
<title>Node3</title>
<g id="a_node3"><a xlink:href="kernel_8h.html" target="_top" xlink:title=" ">
<polygon fill="white" stroke="black" points="407,-112.5 407,-131.5 463,-131.5 463,-112.5 407,-112.5"/>
<text text-anchor="middle" x="435" y="-119.5" font-family="Helvetica,sans-Serif" font-size="10.00">kernel.h</text>
</a>
</g>
</g>
<!-- Node1&#45;&gt;Node3 -->
<g id="edge2" class="edge">
<title>Node1&#45;&gt;Node3</title>
<path fill="none" stroke="midnightblue" d="M253.46,-280.42C273.09,-272.61 301.29,-259.89 323,-244 364.97,-213.28 403.78,-165.22 422.78,-139.9"/>
<polygon fill="midnightblue" stroke="midnightblue" points="425.72,-141.8 428.85,-131.68 420.09,-137.65 425.72,-141.8"/>
</g>
<!-- Node8 -->
<g id="node8" class="node">
<title>Node8</title>
<g id="a_node8"><a xlink:href="string_8h_source.html" target="_top" xlink:title=" ">
<polygon fill="white" stroke="black" points="239.5,-224.5 239.5,-243.5 292.5,-243.5 292.5,-224.5 239.5,-224.5"/>
<text text-anchor="middle" x="266" y="-231.5" font-family="Helvetica,sans-Serif" font-size="10.00">string.h</text>
</a>
</g>
</g>
<!-- Node1&#45;&gt;Node8 -->
<g id="edge9" class="edge">
<title>Node1&#45;&gt;Node8</title>
<path fill="none" stroke="midnightblue" d="M235.94,-280.08C240.98,-272.53 248.34,-261.49 254.51,-252.23"/>
<polygon fill="midnightblue" stroke="midnightblue" points="257.53,-254.01 260.17,-243.75 251.71,-250.13 257.53,-254.01"/>
</g>
<!-- Node15 -->
<g id="node15" class="node">
<title>Node15</title>
<g id="a_node15"><a xlink:title=" ">
<polygon fill="white" stroke="#bfbfbf" points="168.5,-224.5 168.5,-243.5 221.5,-243.5 221.5,-224.5 168.5,-224.5"/>
<text text-anchor="middle" x="195" y="-231.5" font-family="Helvetica,sans-Serif" font-size="10.00">sifrpc.h</text>
</a>
</g>
</g>
<!-- Node1&#45;&gt;Node15 -->
<g id="edge20" class="edge">
<title>Node1&#45;&gt;Node15</title>
<path fill="none" stroke="midnightblue" d="M224.22,-280.08C219.33,-272.53 212.17,-261.49 206.17,-252.23"/>
<polygon fill="midnightblue" stroke="midnightblue" points="209.05,-250.24 200.67,-243.75 203.17,-254.05 209.05,-250.24"/>
</g>
<!-- Node16 -->
<g id="node16" class="node">
<title>Node16</title>
<g id="a_node16"><a xlink:href="smem_8h.html" target="_top" xlink:title=" ">
<polygon fill="white" stroke="black" points="0,-168.5 0,-187.5 56,-187.5 56,-168.5 0,-168.5"/>
<text text-anchor="middle" x="28" y="-175.5" font-family="Helvetica,sans-Serif" font-size="10.00">smem.h</text>
</a>
</g>
</g>
<!-- Node1&#45;&gt;Node16 -->
<g id="edge21" class="edge">
<title>Node1&#45;&gt;Node16</title>
<path fill="none" stroke="midnightblue" d="M177.94,-283.9C144.44,-278.46 101.46,-267.21 70,-244 53.82,-232.06 42.2,-211.86 35.34,-197.15"/>
<polygon fill="midnightblue" stroke="midnightblue" points="38.39,-195.37 31.19,-187.59 31.97,-198.16 38.39,-195.37"/>
</g>
<!-- Node17 -->
<g id="node17" class="node">
<title>Node17</title>
<g id="a_node17"><a xlink:href="slib_8h.html" target="_top" xlink:title=" ">
<polygon fill="white" stroke="black" points="114.5,-168.5 114.5,-187.5 157.5,-187.5 157.5,-168.5 114.5,-168.5"/>
<text text-anchor="middle" x="136" y="-175.5" font-family="Helvetica,sans-Serif" font-size="10.00">slib.h</text>
</a>
</g>
</g>
<!-- Node1&#45;&gt;Node17 -->
<g id="edge23" class="edge">
<title>Node1&#45;&gt;Node17</title>
<path fill="none" stroke="midnightblue" d="M209.3,-280.44C193.51,-272.95 172.28,-260.66 159,-244 148.28,-230.56 142.35,-211.74 139.21,-197.81"/>
<polygon fill="midnightblue" stroke="midnightblue" points="142.62,-197.02 137.25,-187.88 135.75,-198.37 142.62,-197.02"/>
</g>
<!-- Node18 -->
<g id="node18" class="node">
<title>Node18</title>
<g id="a_node18"><a xlink:href="smod_8h.html" target="_top" xlink:title=" ">
<polygon fill="white" stroke="black" points="313.5,-168.5 313.5,-187.5 366.5,-187.5 366.5,-168.5 313.5,-168.5"/>
<text text-anchor="middle" x="340" y="-175.5" font-family="Helvetica,sans-Serif" font-size="10.00">smod.h</text>
</a>
</g>
</g>
<!-- Node1&#45;&gt;Node18 -->
<g id="edge25" class="edge">
<title>Node1&#45;&gt;Node18</title>
<path fill="none" stroke="midnightblue" d="M248.27,-280.46C263.67,-272.59 285.61,-259.77 301,-244 314.46,-230.21 325.28,-210.92 332.08,-196.94"/>
<polygon fill="midnightblue" stroke="midnightblue" points="335.26,-198.4 336.3,-187.86 328.92,-195.45 335.26,-198.4"/>
</g>
<!-- Node19 -->
<g id="node19" class="node">
<title>Node19</title>
<g id="a_node19"><a xlink:href="ee_2sbv_2src_2common_8h_source.html" target="_top" xlink:title=" ">
<polygon fill="white" stroke="black" points="423,-224.5 423,-243.5 491,-243.5 491,-224.5 423,-224.5"/>
<text text-anchor="middle" x="457" y="-231.5" font-family="Helvetica,sans-Serif" font-size="10.00">common.h</text>
</a>
</g>
</g>
<!-- Node1&#45;&gt;Node19 -->
<g id="edge27" class="edge">
<title>Node1&#45;&gt;Node19</title>
<path fill="none" stroke="midnightblue" d="M265.97,-280.44C305.78,-270.97 369.98,-255.7 412.82,-245.51"/>
<polygon fill="midnightblue" stroke="midnightblue" points="413.77,-248.88 422.69,-243.16 412.15,-242.07 413.77,-248.88"/>
</g>
<!-- Node4 -->
<g id="node4" class="node">
<title>Node4</title>
<g id="a_node4"><a xlink:title=" ">
<polygon fill="white" stroke="#bfbfbf" points="610,-0.5 610,-19.5 666,-19.5 666,-0.5 610,-0.5"/>
<text text-anchor="middle" x="638" y="-7.5" font-family="Helvetica,sans-Serif" font-size="10.00">stddef.h</text>
</a>
</g>
</g>
<!-- Node3&#45;&gt;Node4 -->
<g id="edge3" class="edge">
<title>Node3&#45;&gt;Node4</title>
<path fill="none" stroke="midnightblue" d="M463.41,-116.98C518.49,-108.9 635.45,-90.25 647,-76 657.62,-62.89 652.94,-43.2 647.11,-28.93"/>
<polygon fill="midnightblue" stroke="midnightblue" points="650.22,-27.3 642.87,-19.67 643.85,-30.22 650.22,-27.3"/>
</g>
<!-- Node5 -->
<g id="node5" class="node">
<title>Node5</title>
<g id="a_node5"><a xlink:title=" ">
<polygon fill="white" stroke="#bfbfbf" points="314,-56.5 314,-75.5 370,-75.5 370,-56.5 314,-56.5"/>
<text text-anchor="middle" x="342" y="-63.5" font-family="Helvetica,sans-Serif" font-size="10.00">stdarg.h</text>
</a>
</g>
</g>
<!-- Node3&#45;&gt;Node5 -->
<g id="edge4" class="edge">
<title>Node3&#45;&gt;Node5</title>
<path fill="none" stroke="midnightblue" d="M420.06,-112.32C405.41,-103.82 382.87,-90.73 365.76,-80.8"/>
<polygon fill="midnightblue" stroke="midnightblue" points="367.31,-77.65 356.9,-75.65 363.8,-83.7 367.31,-77.65"/>
</g>
<!-- Node6 -->
<g id="node6" class="node">
<title>Node6</title>
<g id="a_node6"><a xlink:href="sifdma_8h.html" target="_top" xlink:title=" ">
<polygon fill="white" stroke="black" points="388.5,-56.5 388.5,-75.5 447.5,-75.5 447.5,-56.5 388.5,-56.5"/>
<text text-anchor="middle" x="418" y="-63.5" font-family="Helvetica,sans-Serif" font-size="10.00">sifdma.h</text>
</a>
</g>
</g>
<!-- Node3&#45;&gt;Node6 -->
<g id="edge5" class="edge">
<title>Node3&#45;&gt;Node6</title>
<path fill="none" stroke="midnightblue" d="M432.19,-112.08C429.92,-104.85 426.63,-94.41 423.79,-85.4"/>
<polygon fill="midnightblue" stroke="midnightblue" points="427.1,-84.24 420.75,-75.75 420.42,-86.34 427.1,-84.24"/>
</g>
<!-- Node7 -->
<g id="node7" class="node">
<title>Node7</title>
<g id="a_node7"><a xlink:href="mipscopaccess_8h.html" target="_top" xlink:title=" ">
<polygon fill="white" stroke="black" points="466,-56.5 466,-75.5 566,-75.5 566,-56.5 466,-56.5"/>
<text text-anchor="middle" x="516" y="-63.5" font-family="Helvetica,sans-Serif" font-size="10.00">mipscopaccess.h</text>
</a>
</g>
</g>
<!-- Node3&#45;&gt;Node7 -->
<g id="edge7" class="edge">
<title>Node3&#45;&gt;Node7</title>
<path fill="none" stroke="midnightblue" d="M448.01,-112.32C460.53,-103.98 479.68,-91.21 494.47,-81.35"/>
<polygon fill="midnightblue" stroke="midnightblue" points="496.64,-84.11 503.02,-75.65 492.76,-78.29 496.64,-84.11"/>
</g>
<!-- Node6&#45;&gt;Node2 -->
<g id="edge6" class="edge">
<title>Node6&#45;&gt;Node2</title>
<path fill="none" stroke="midnightblue" d="M392.49,-56.44C365.4,-47.36 322.41,-32.94 292.13,-22.78"/>
<polygon fill="midnightblue" stroke="midnightblue" points="292.99,-19.38 282.39,-19.52 290.76,-26.01 292.99,-19.38"/>
</g>
<!-- Node7&#45;&gt;Node2 -->
<g id="edge8" class="edge">
<title>Node7&#45;&gt;Node2</title>
<path fill="none" stroke="midnightblue" d="M474.96,-56.44C428.22,-46.7 352.03,-30.81 303.23,-20.64"/>
<polygon fill="midnightblue" stroke="midnightblue" points="303.75,-17.17 293.25,-18.56 302.33,-24.03 303.75,-17.17"/>
</g>
<!-- Node9 -->
<g id="node9" class="node">
<title>Node9</title>
<g id="a_node9"><a xlink:href="sysclib_8h.html" target="_top" xlink:title=" ">
<polygon fill="white" stroke="black" points="236.5,-168.5 236.5,-187.5 295.5,-187.5 295.5,-168.5 236.5,-168.5"/>
<text text-anchor="middle" x="266" y="-175.5" font-family="Helvetica,sans-Serif" font-size="10.00">sysclib.h</text>
</a>
</g>
</g>
<!-- Node8&#45;&gt;Node9 -->
<g id="edge10" class="edge">
<title>Node8&#45;&gt;Node9</title>
<path fill="none" stroke="midnightblue" d="M266,-224.08C266,-217.01 266,-206.86 266,-197.99"/>
<polygon fill="midnightblue" stroke="midnightblue" points="269.5,-197.75 266,-187.75 262.5,-197.75 269.5,-197.75"/>
</g>
<!-- Node9&#45;&gt;Node5 -->
<g id="edge16" class="edge">
<title>Node9&#45;&gt;Node5</title>
<path fill="none" stroke="midnightblue" d="M280.62,-168.42C293.02,-160.45 310.43,-147.49 321,-132 330.5,-118.07 335.93,-99.56 338.87,-85.86"/>
<polygon fill="midnightblue" stroke="midnightblue" points="342.38,-86.16 340.8,-75.68 335.5,-84.86 342.38,-86.16"/>
</g>
<!-- Node10 -->
<g id="node10" class="node">
<title>Node10</title>
<g id="a_node10"><a xlink:title=" ">
<polygon fill="white" stroke="#bfbfbf" points="188.5,-112.5 188.5,-131.5 241.5,-131.5 241.5,-112.5 188.5,-112.5"/>
<text text-anchor="middle" x="215" y="-119.5" font-family="Helvetica,sans-Serif" font-size="10.00">types.h</text>
</a>
</g>
</g>
<!-- Node9&#45;&gt;Node10 -->
<g id="edge11" class="edge">
<title>Node9&#45;&gt;Node10</title>
<path fill="none" stroke="midnightblue" d="M257.58,-168.08C250.15,-160.22 239.15,-148.57 230.19,-139.08"/>
<polygon fill="midnightblue" stroke="midnightblue" points="232.68,-136.62 223.26,-131.75 227.59,-141.42 232.68,-136.62"/>
</g>
<!-- Node11 -->
<g id="node11" class="node">
<title>Node11</title>
<g id="a_node11"><a xlink:href="irx_8h.html" target="_top" xlink:title=" ">
<polygon fill="white" stroke="black" points="512,-112.5 512,-131.5 550,-131.5 550,-112.5 512,-112.5"/>
<text text-anchor="middle" x="531" y="-119.5" font-family="Helvetica,sans-Serif" font-size="10.00">irx.h</text>
</a>
</g>
</g>
<!-- Node9&#45;&gt;Node11 -->
<g id="edge12" class="edge">
<title>Node9&#45;&gt;Node11</title>
<path fill="none" stroke="midnightblue" d="M295.79,-170.03C298.9,-169.33 302.01,-168.64 305,-168 375.49,-152.85 458.74,-136.73 501.85,-128.51"/>
<polygon fill="midnightblue" stroke="midnightblue" points="502.74,-131.91 511.91,-126.6 501.43,-125.03 502.74,-131.91"/>
</g>
<!-- Node13 -->
<g id="node13" class="node">
<title>Node13</title>
<g id="a_node13"><a xlink:href="setjmp_8h.html" target="_top" xlink:title=" ">
<polygon fill="white" stroke="black" points="182.5,-56.5 182.5,-75.5 241.5,-75.5 241.5,-56.5 182.5,-56.5"/>
<text text-anchor="middle" x="212" y="-63.5" font-family="Helvetica,sans-Serif" font-size="10.00">setjmp.h</text>
</a>
</g>
</g>
<!-- Node9&#45;&gt;Node13 -->
<g id="edge17" class="edge">
<title>Node9&#45;&gt;Node13</title>
<path fill="none" stroke="midnightblue" d="M236.22,-170.18C216.24,-163.89 191.38,-152.34 179,-132 169.1,-115.73 182.24,-96.13 194.75,-82.74"/>
<polygon fill="midnightblue" stroke="midnightblue" points="197.26,-85.18 201.87,-75.64 192.32,-80.22 197.26,-85.18"/>
</g>
<!-- Node14 -->
<g id="node14" class="node">
<title>Node14</title>
<g id="a_node14"><a xlink:href="ctype_8h.html" target="_top" xlink:title=" ">
<polygon fill="white" stroke="black" points="259.5,-112.5 259.5,-131.5 312.5,-131.5 312.5,-112.5 259.5,-112.5"/>
<text text-anchor="middle" x="286" y="-119.5" font-family="Helvetica,sans-Serif" font-size="10.00">ctype.h</text>
</a>
</g>
</g>
<!-- Node9&#45;&gt;Node14 -->
<g id="edge19" class="edge">
<title>Node9&#45;&gt;Node14</title>
<path fill="none" stroke="midnightblue" d="M269.3,-168.08C271.98,-160.85 275.85,-150.41 279.19,-141.4"/>
<polygon fill="midnightblue" stroke="midnightblue" points="282.57,-142.34 282.76,-131.75 276,-139.91 282.57,-142.34"/>
</g>
<!-- Node12 -->
<g id="node12" class="node">
<title>Node12</title>
<g id="a_node12"><a xlink:href="iop_2kernel_2include_2types_8h_source.html" target="_top" xlink:title=" ">
<polygon fill="white" stroke="black" points="584.5,-56.5 584.5,-75.5 637.5,-75.5 637.5,-56.5 584.5,-56.5"/>
<text text-anchor="middle" x="611" y="-63.5" font-family="Helvetica,sans-Serif" font-size="10.00">types.h</text>
</a>
</g>
</g>
<!-- Node11&#45;&gt;Node12 -->
<g id="edge13" class="edge">
<title>Node11&#45;&gt;Node12</title>
<path fill="none" stroke="midnightblue" d="M543.85,-112.32C556.22,-103.98 575.13,-91.21 589.74,-81.35"/>
<polygon fill="midnightblue" stroke="midnightblue" points="591.85,-84.15 598.18,-75.65 587.93,-78.35 591.85,-84.15"/>
</g>
<!-- Node12&#45;&gt;Node2 -->
<g id="edge15" class="edge">
<title>Node12&#45;&gt;Node2</title>
<path fill="none" stroke="midnightblue" d="M584.33,-58C581.2,-57.28 578.04,-56.59 575,-56 479.29,-37.32 365.95,-23.16 303.72,-16.06"/>
<polygon fill="midnightblue" stroke="midnightblue" points="303.78,-12.55 293.45,-14.9 302.99,-19.5 303.78,-12.55"/>
</g>
<!-- Node12&#45;&gt;Node4 -->
<g id="edge14" class="edge">
<title>Node12&#45;&gt;Node4</title>
<path fill="none" stroke="midnightblue" d="M615.46,-56.08C619.15,-48.69 624.52,-37.95 629.09,-28.81"/>
<polygon fill="midnightblue" stroke="midnightblue" points="632.28,-30.26 633.62,-19.75 626.02,-27.13 632.28,-30.26"/>
</g>
<!-- Node13&#45;&gt;Node2 -->
<g id="edge18" class="edge">
<title>Node13&#45;&gt;Node2</title>
<path fill="none" stroke="midnightblue" d="M219.43,-56.08C225.85,-48.38 235.31,-37.03 243.12,-27.65"/>
<polygon fill="midnightblue" stroke="midnightblue" points="245.99,-29.67 249.71,-19.75 240.62,-25.19 245.99,-29.67"/>
</g>
<!-- Node16&#45;&gt;Node2 -->
<g id="edge22" class="edge">
<title>Node16&#45;&gt;Node2</title>
<path fill="none" stroke="midnightblue" d="M28.3,-168.48C29.55,-146.37 36.06,-86.77 70,-56 90.44,-37.47 162.41,-24.11 210.87,-16.97"/>
<polygon fill="midnightblue" stroke="midnightblue" points="211.42,-20.43 220.82,-15.54 210.43,-13.5 211.42,-20.43"/>
</g>
<!-- Node17&#45;&gt;Node2 -->
<g id="edge24" class="edge">
<title>Node17&#45;&gt;Node2</title>
<path fill="none" stroke="midnightblue" d="M136.44,-168.34C137.95,-146.9 144.55,-90.62 173,-56 185.12,-41.25 203.37,-30.66 219.77,-23.47"/>
<polygon fill="midnightblue" stroke="midnightblue" points="221.23,-26.66 229.15,-19.63 218.57,-20.18 221.23,-26.66"/>
</g>
<!-- Node18&#45;&gt;Node2 -->
<g id="edge26" class="edge">
<title>Node18&#45;&gt;Node2</title>
<path fill="none" stroke="midnightblue" d="M338.28,-168.31C335.57,-155.58 329.72,-131.28 321,-112 306.75,-80.48 283.94,-47.21 269.75,-27.82"/>
<polygon fill="midnightblue" stroke="midnightblue" points="272.5,-25.64 263.72,-19.71 266.88,-29.82 272.5,-25.64"/>
</g>
</g>
</svg>
