<?xml version="1.0" encoding="UTF-8" standalone="no"?>
<!DOCTYPE svg PUBLIC "-//W3C//DTD SVG 1.1//EN"
 "http://www.w3.org/Graphics/SVG/1.1/DTD/svg11.dtd">
<!-- Generated by graphviz version 9.0.0 (20230911.1827)
 -->
<!-- Title: ee/rpc/keyboard/include/ps2kbd.h Pages: 1 -->
<svg width="127pt" height="172pt"
 viewBox="0.00 0.00 126.75 171.50" xmlns="http://www.w3.org/2000/svg" xmlns:xlink="http://www.w3.org/1999/xlink">
<g id="graph0" class="graph" transform="scale(1 1) rotate(0) translate(4 167.5)">
<title>ee/rpc/keyboard/include/ps2kbd.h</title>
<!-- Node1 -->
<g id="Node000001" class="node">
<title>Node1</title>
<g id="a_Node000001"><a xlink:title=" ">
<polygon fill="#999999" stroke="#666666" points="118.75,-163.5 0,-163.5 0,-133 118.75,-133 118.75,-163.5"/>
<text text-anchor="start" x="8" y="-150" font-family="Helvetica,sans-Serif" font-size="10.00">ee/rpc/keyboard/include</text>
<text text-anchor="middle" x="59.38" y="-138.75" font-family="Helvetica,sans-Serif" font-size="10.00">/ps2kbd.h</text>
</a>
</g>
</g>
<!-- Node2 -->
<g id="Node000002" class="node">
<title>Node2</title>
<g id="a_Node000002"><a xlink:href="libkbd_8h.html" target="_top" xlink:title=" ">
<polygon fill="white" stroke="#666666" points="118.75,-97 0,-97 0,-66.5 118.75,-66.5 118.75,-97"/>
<text text-anchor="start" x="8" y="-83.5" font-family="Helvetica,sans-Serif" font-size="10.00">ee/rpc/keyboard/include</text>
<text text-anchor="middle" x="59.38" y="-72.25" font-family="Helvetica,sans-Serif" font-size="10.00">/libkbd.h</text>
</a>
</g>
</g>
<!-- Node1&#45;&gt;Node2 -->
<g id="edge1_Node000001_Node000002" class="edge">
<title>Node1&#45;&gt;Node2</title>
<g id="a_edge1_Node000001_Node000002"><a xlink:title=" ">
<path fill="none" stroke="#63b8ff" d="M59.38,-121.31C59.38,-113.14 59.38,-104.41 59.38,-97.33"/>
<polygon fill="#63b8ff" stroke="#63b8ff" points="55.88,-121.1 59.38,-131.1 62.88,-121.1 55.88,-121.1"/>
</a>
</g>
</g>
<!-- Node3 -->
<g id="Node000003" class="node">
<title>Node3</title>
<g id="a_Node000003"><a xlink:href="libkbd_8c.html" target="_top" xlink:title=" ">
<polygon fill="white" stroke="#666666" points="110.12,-30.5 8.62,-30.5 8.62,0 110.12,0 110.12,-30.5"/>
<text text-anchor="start" x="16.62" y="-17" font-family="Helvetica,sans-Serif" font-size="10.00">ee/rpc/keyboard/src</text>
<text text-anchor="middle" x="59.38" y="-5.75" font-family="Helvetica,sans-Serif" font-size="10.00">/libkbd.c</text>
</a>
</g>
</g>
<!-- Node2&#45;&gt;Node3 -->
<g id="edge2_Node000002_Node000003" class="edge">
<title>Node2&#45;&gt;Node3</title>
<g id="a_edge2_Node000002_Node000003"><a xlink:title=" ">
<path fill="none" stroke="#63b8ff" d="M59.38,-54.81C59.38,-46.64 59.38,-37.91 59.38,-30.83"/>
<polygon fill="#63b8ff" stroke="#63b8ff" points="55.88,-54.6 59.38,-64.6 62.88,-54.6 55.88,-54.6"/>
</a>
</g>
</g>
</g>
</svg>
