<?xml version="1.0" encoding="UTF-8" standalone="no"?>
<!DOCTYPE svg PUBLIC "-//W3C//DTD SVG 1.1//EN"
 "http://www.w3.org/Graphics/SVG/1.1/DTD/svg11.dtd">
<!-- Generated by graphviz version 2.43.0 (0)
 -->
<!-- Title: ee/kernel/src/timer.c Pages: 1 -->
<!--zoomable 308 -->
<svg id="main" version="1.1" xmlns="http://www.w3.org/2000/svg" xmlns:xlink="http://www.w3.org/1999/xlink" xml:space="preserve" onload="init(evt)">
<style type="text/css"><![CDATA[
.edge:hover path { stroke: red; }
.edge:hover polygon { stroke: red; fill: red; }
]]></style>
<script type="text/javascript"><![CDATA[
var edges = document.getElementsByTagName('g');
if (edges && edges.length) {
  for (var i=0;i<edges.length;i++) {
    if (edges[i].id.substr(0,4)=='edge') {
      edges[i].setAttribute('class','edge');
    }
  }
}
]]></script>
        <defs>
                <circle id="rim" cx="0" cy="0" r="7"/>
                <circle id="rim2" cx="0" cy="0" r="3.5"/>
                <g id="zoomPlus">
                        <use xlink:href="#rim" fill="#404040">
                                <set attributeName="fill" to="#808080" begin="zoomplus.mouseover" end="zoomplus.mouseout"/>
                        </use>
                        <path d="M-4,0h8M0,-4v8" fill="none" stroke="white" stroke-width="1.5" pointer-events="none"/>
                </g>
                <g id="zoomMin">
                        <use xlink:href="#rim" fill="#404040">
                                <set attributeName="fill" to="#808080" begin="zoomminus.mouseover" end="zoomminus.mouseout"/>
                        </use>
                        <path d="M-4,0h8" fill="none" stroke="white" stroke-width="1.5" pointer-events="none"/>
                </g>
                <g id="dirArrow">
                        <path fill="none" stroke="white" stroke-width="1.5" d="M0,-3.0v7 M-2.5,-0.5L0,-3.0L2.5,-0.5"/>
                </g>
               <g id="resetDef">
                       <use xlink:href="#rim2" fill="#404040">
                               <set attributeName="fill" to="#808080" begin="reset.mouseover" end="reset.mouseout"/>
                       </use>
               </g>
        </defs>

<script type="text/javascript">
var viewWidth = 527;
var viewHeight = 308;
var sectionId = 'dynsection-0';
</script>
<script xlink:href="svgpan.js"/>
<svg id="graph" class="graph">
<g id="viewport">
<title>ee/kernel/src/timer.c</title>
<polygon fill="white" stroke="transparent" points="-4,4 -4,-304 522.5,-304 522.5,4 -4,4"/>
<!-- Node1 -->
<g id="node1" class="node">
<title>Node1</title>
<g id="a_node1"><a xlink:title=" ">
<polygon fill="#bfbfbf" stroke="black" points="236.5,-280.5 236.5,-299.5 352.5,-299.5 352.5,-280.5 236.5,-280.5"/>
<text text-anchor="middle" x="294.5" y="-287.5" font-family="Helvetica,sans-Serif" font-size="10.00">ee/kernel/src/timer.c</text>
</a>
</g>
</g>
<!-- Node2 -->
<g id="node2" class="node">
<title>Node2</title>
<g id="a_node2"><a xlink:href="kernel_8h.html" target="_top" xlink:title=" ">
<polygon fill="white" stroke="black" points="324.5,-168.5 324.5,-187.5 380.5,-187.5 380.5,-168.5 324.5,-168.5"/>
<text text-anchor="middle" x="352.5" y="-175.5" font-family="Helvetica,sans-Serif" font-size="10.00">kernel.h</text>
</a>
</g>
</g>
<!-- Node1&#45;&gt;Node2 -->
<g id="edge1" class="edge">
<title>Node1&#45;&gt;Node2</title>
<path fill="none" stroke="midnightblue" d="M299.05,-280.37C308.54,-262.38 330.59,-220.55 343.21,-196.63"/>
<polygon fill="midnightblue" stroke="midnightblue" points="346.4,-198.07 347.97,-187.59 340.21,-194.8 346.4,-198.07"/>
</g>
<!-- Node7 -->
<g id="node7" class="node">
<title>Node7</title>
<g id="a_node7"><a xlink:href="mipscopaccess_8h.html" target="_top" xlink:title=" ">
<polygon fill="white" stroke="black" points="418.5,-112.5 418.5,-131.5 518.5,-131.5 518.5,-112.5 418.5,-112.5"/>
<text text-anchor="middle" x="468.5" y="-119.5" font-family="Helvetica,sans-Serif" font-size="10.00">mipscopaccess.h</text>
</a>
</g>
</g>
<!-- Node1&#45;&gt;Node7 -->
<g id="edge21" class="edge">
<title>Node1&#45;&gt;Node7</title>
<path fill="none" stroke="midnightblue" d="M303.85,-280.08C331.96,-253.27 415.89,-173.19 451.85,-138.89"/>
<polygon fill="midnightblue" stroke="midnightblue" points="454.7,-141 459.52,-131.57 449.87,-135.94 454.7,-141"/>
</g>
<!-- Node8 -->
<g id="node8" class="node">
<title>Node8</title>
<g id="a_node8"><a xlink:href="timer_8h.html" target="_top" xlink:title=" ">
<polygon fill="white" stroke="black" points="0,-56.5 0,-75.5 51,-75.5 51,-56.5 0,-56.5"/>
<text text-anchor="middle" x="25.5" y="-63.5" font-family="Helvetica,sans-Serif" font-size="10.00">timer.h</text>
</a>
</g>
</g>
<!-- Node1&#45;&gt;Node8 -->
<g id="edge8" class="edge">
<title>Node1&#45;&gt;Node8</title>
<path fill="none" stroke="midnightblue" d="M261.19,-280.47C234.61,-272.92 196.92,-260.54 166.5,-244 94.96,-205.11 57.4,-205.09 21.5,-132 14.34,-117.43 16.47,-98.75 19.73,-85.16"/>
<polygon fill="midnightblue" stroke="midnightblue" points="23.1,-86.1 22.42,-75.52 16.35,-84.21 23.1,-86.1"/>
</g>
<!-- Node9 -->
<g id="node9" class="node">
<title>Node9</title>
<g id="a_node9"><a xlink:href="string_8h_source.html" target="_top" xlink:title=" ">
<polygon fill="white" stroke="black" points="176,-224.5 176,-243.5 229,-243.5 229,-224.5 176,-224.5"/>
<text text-anchor="middle" x="202.5" y="-231.5" font-family="Helvetica,sans-Serif" font-size="10.00">string.h</text>
</a>
</g>
</g>
<!-- Node1&#45;&gt;Node9 -->
<g id="edge10" class="edge">
<title>Node1&#45;&gt;Node9</title>
<path fill="none" stroke="midnightblue" d="M279.72,-280.32C265.23,-271.82 242.93,-258.73 226.01,-248.8"/>
<polygon fill="midnightblue" stroke="midnightblue" points="227.64,-245.7 217.24,-243.65 224.1,-251.74 227.64,-245.7"/>
</g>
<!-- Node3 -->
<g id="node3" class="node">
<title>Node3</title>
<g id="a_node3"><a xlink:title=" ">
<polygon fill="white" stroke="#bfbfbf" points="307.5,-0.5 307.5,-19.5 363.5,-19.5 363.5,-0.5 307.5,-0.5"/>
<text text-anchor="middle" x="335.5" y="-7.5" font-family="Helvetica,sans-Serif" font-size="10.00">stddef.h</text>
</a>
</g>
</g>
<!-- Node2&#45;&gt;Node3 -->
<g id="edge2" class="edge">
<title>Node2&#45;&gt;Node3</title>
<path fill="none" stroke="midnightblue" d="M352.75,-168.37C353,-159.32 353.36,-144.66 353.5,-132 353.6,-123.11 354.28,-120.85 353.5,-112 350.93,-82.94 344.28,-49.73 339.83,-29.57"/>
<polygon fill="midnightblue" stroke="midnightblue" points="343.18,-28.56 337.56,-19.58 336.36,-30.1 343.18,-28.56"/>
</g>
<!-- Node4 -->
<g id="node4" class="node">
<title>Node4</title>
<g id="a_node4"><a xlink:title=" ">
<polygon fill="white" stroke="#bfbfbf" points="268.5,-112.5 268.5,-131.5 324.5,-131.5 324.5,-112.5 268.5,-112.5"/>
<text text-anchor="middle" x="296.5" y="-119.5" font-family="Helvetica,sans-Serif" font-size="10.00">stdarg.h</text>
</a>
</g>
</g>
<!-- Node2&#45;&gt;Node4 -->
<g id="edge3" class="edge">
<title>Node2&#45;&gt;Node4</title>
<path fill="none" stroke="midnightblue" d="M343.5,-168.32C335.31,-160.42 322.99,-148.55 313.03,-138.94"/>
<polygon fill="midnightblue" stroke="midnightblue" points="315.29,-136.26 305.66,-131.83 310.43,-141.29 315.29,-136.26"/>
</g>
<!-- Node5 -->
<g id="node5" class="node">
<title>Node5</title>
<g id="a_node5"><a xlink:href="sifdma_8h.html" target="_top" xlink:title=" ">
<polygon fill="white" stroke="black" points="169,-56.5 169,-75.5 228,-75.5 228,-56.5 169,-56.5"/>
<text text-anchor="middle" x="198.5" y="-63.5" font-family="Helvetica,sans-Serif" font-size="10.00">sifdma.h</text>
</a>
</g>
</g>
<!-- Node2&#45;&gt;Node5 -->
<g id="edge4" class="edge">
<title>Node2&#45;&gt;Node5</title>
<path fill="none" stroke="midnightblue" d="M352.4,-168.16C351.76,-154.34 348.51,-127.58 333.5,-112 326.62,-104.85 275.21,-88.96 237.87,-78.1"/>
<polygon fill="midnightblue" stroke="midnightblue" points="238.82,-74.74 228.24,-75.33 236.88,-81.46 238.82,-74.74"/>
</g>
<!-- Node2&#45;&gt;Node7 -->
<g id="edge6" class="edge">
<title>Node2&#45;&gt;Node7</title>
<path fill="none" stroke="midnightblue" d="M370.88,-168.44C389.72,-159.68 419.23,-145.94 440.88,-135.86"/>
<polygon fill="midnightblue" stroke="midnightblue" points="442.62,-138.91 450.21,-131.52 439.66,-132.56 442.62,-138.91"/>
</g>
<!-- Node6 -->
<g id="node6" class="node">
<title>Node6</title>
<g id="a_node6"><a xlink:href="tamtypes_8h.html" target="_top" xlink:title=" ">
<polygon fill="white" stroke="black" points="162.5,-0.5 162.5,-19.5 234.5,-19.5 234.5,-0.5 162.5,-0.5"/>
<text text-anchor="middle" x="198.5" y="-7.5" font-family="Helvetica,sans-Serif" font-size="10.00">tamtypes.h</text>
</a>
</g>
</g>
<!-- Node5&#45;&gt;Node6 -->
<g id="edge5" class="edge">
<title>Node5&#45;&gt;Node6</title>
<path fill="none" stroke="midnightblue" d="M198.5,-56.08C198.5,-49.01 198.5,-38.86 198.5,-29.99"/>
<polygon fill="midnightblue" stroke="midnightblue" points="202,-29.75 198.5,-19.75 195,-29.75 202,-29.75"/>
</g>
<!-- Node7&#45;&gt;Node6 -->
<g id="edge7" class="edge">
<title>Node7&#45;&gt;Node6</title>
<path fill="none" stroke="midnightblue" d="M447.31,-112.37C399.7,-92.97 284.09,-45.87 228.86,-23.37"/>
<polygon fill="midnightblue" stroke="midnightblue" points="230.17,-20.12 219.59,-19.59 227.53,-26.61 230.17,-20.12"/>
</g>
<!-- Node8&#45;&gt;Node6 -->
<g id="edge9" class="edge">
<title>Node8&#45;&gt;Node6</title>
<path fill="none" stroke="midnightblue" d="M51.03,-57.03C80.16,-47.94 128.06,-32.99 161.33,-22.6"/>
<polygon fill="midnightblue" stroke="midnightblue" points="162.65,-25.86 171.15,-19.54 160.56,-19.17 162.65,-25.86"/>
</g>
<!-- Node10 -->
<g id="node10" class="node">
<title>Node10</title>
<g id="a_node10"><a xlink:href="sysclib_8h.html" target="_top" xlink:title=" ">
<polygon fill="white" stroke="black" points="150,-168.5 150,-187.5 209,-187.5 209,-168.5 150,-168.5"/>
<text text-anchor="middle" x="179.5" y="-175.5" font-family="Helvetica,sans-Serif" font-size="10.00">sysclib.h</text>
</a>
</g>
</g>
<!-- Node9&#45;&gt;Node10 -->
<g id="edge11" class="edge">
<title>Node9&#45;&gt;Node10</title>
<path fill="none" stroke="midnightblue" d="M198.7,-224.08C195.59,-216.77 191.08,-206.18 187.21,-197.1"/>
<polygon fill="midnightblue" stroke="midnightblue" points="190.37,-195.58 183.23,-187.75 183.93,-198.32 190.37,-195.58"/>
</g>
<!-- Node10&#45;&gt;Node4 -->
<g id="edge17" class="edge">
<title>Node10&#45;&gt;Node4</title>
<path fill="none" stroke="midnightblue" d="M198.04,-168.44C217.12,-159.64 247.07,-145.81 268.94,-135.72"/>
<polygon fill="midnightblue" stroke="midnightblue" points="270.43,-138.88 278.05,-131.52 267.5,-132.53 270.43,-138.88"/>
</g>
<!-- Node11 -->
<g id="node11" class="node">
<title>Node11</title>
<g id="a_node11"><a xlink:title=" ">
<polygon fill="white" stroke="#bfbfbf" points="141,-112.5 141,-131.5 194,-131.5 194,-112.5 141,-112.5"/>
<text text-anchor="middle" x="167.5" y="-119.5" font-family="Helvetica,sans-Serif" font-size="10.00">types.h</text>
</a>
</g>
</g>
<!-- Node10&#45;&gt;Node11 -->
<g id="edge12" class="edge">
<title>Node10&#45;&gt;Node11</title>
<path fill="none" stroke="midnightblue" d="M177.52,-168.08C175.93,-160.93 173.64,-150.64 171.65,-141.69"/>
<polygon fill="midnightblue" stroke="midnightblue" points="175.03,-140.75 169.44,-131.75 168.2,-142.27 175.03,-140.75"/>
</g>
<!-- Node12 -->
<g id="node12" class="node">
<title>Node12</title>
<g id="a_node12"><a xlink:href="irx_8h.html" target="_top" xlink:title=" ">
<polygon fill="white" stroke="black" points="212.5,-112.5 212.5,-131.5 250.5,-131.5 250.5,-112.5 212.5,-112.5"/>
<text text-anchor="middle" x="231.5" y="-119.5" font-family="Helvetica,sans-Serif" font-size="10.00">irx.h</text>
</a>
</g>
</g>
<!-- Node10&#45;&gt;Node12 -->
<g id="edge13" class="edge">
<title>Node10&#45;&gt;Node12</title>
<path fill="none" stroke="midnightblue" d="M188.09,-168.08C195.66,-160.22 206.88,-148.57 216.01,-139.08"/>
<polygon fill="midnightblue" stroke="midnightblue" points="218.66,-141.38 223.07,-131.75 213.62,-136.53 218.66,-141.38"/>
</g>
<!-- Node14 -->
<g id="node14" class="node">
<title>Node14</title>
<g id="a_node14"><a xlink:href="setjmp_8h.html" target="_top" xlink:title=" ">
<polygon fill="white" stroke="black" points="87,-56.5 87,-75.5 146,-75.5 146,-56.5 87,-56.5"/>
<text text-anchor="middle" x="116.5" y="-63.5" font-family="Helvetica,sans-Serif" font-size="10.00">setjmp.h</text>
</a>
</g>
</g>
<!-- Node10&#45;&gt;Node14 -->
<g id="edge18" class="edge">
<title>Node10&#45;&gt;Node14</title>
<path fill="none" stroke="midnightblue" d="M166.46,-168.2C155.46,-160.09 140.16,-147.05 131.5,-132 123.29,-117.73 119.57,-99.26 117.89,-85.66"/>
<polygon fill="midnightblue" stroke="midnightblue" points="121.36,-85.19 116.9,-75.57 114.39,-85.87 121.36,-85.19"/>
</g>
<!-- Node15 -->
<g id="node15" class="node">
<title>Node15</title>
<g id="a_node15"><a xlink:href="ctype_8h.html" target="_top" xlink:title=" ">
<polygon fill="white" stroke="black" points="31,-112.5 31,-131.5 84,-131.5 84,-112.5 31,-112.5"/>
<text text-anchor="middle" x="57.5" y="-119.5" font-family="Helvetica,sans-Serif" font-size="10.00">ctype.h</text>
</a>
</g>
</g>
<!-- Node10&#45;&gt;Node15 -->
<g id="edge20" class="edge">
<title>Node10&#45;&gt;Node15</title>
<path fill="none" stroke="midnightblue" d="M160.17,-168.44C140.18,-159.6 108.76,-145.69 85.94,-135.59"/>
<polygon fill="midnightblue" stroke="midnightblue" points="87.3,-132.36 76.74,-131.52 84.47,-138.76 87.3,-132.36"/>
</g>
<!-- Node13 -->
<g id="node13" class="node">
<title>Node13</title>
<g id="a_node13"><a xlink:href="iop_2kernel_2include_2types_8h_source.html" target="_top" xlink:title=" ">
<polygon fill="white" stroke="black" points="246,-56.5 246,-75.5 299,-75.5 299,-56.5 246,-56.5"/>
<text text-anchor="middle" x="272.5" y="-63.5" font-family="Helvetica,sans-Serif" font-size="10.00">types.h</text>
</a>
</g>
</g>
<!-- Node12&#45;&gt;Node13 -->
<g id="edge14" class="edge">
<title>Node12&#45;&gt;Node13</title>
<path fill="none" stroke="midnightblue" d="M238.27,-112.08C244.06,-104.46 252.56,-93.26 259.64,-83.94"/>
<polygon fill="midnightblue" stroke="midnightblue" points="262.6,-85.83 265.86,-75.75 257.02,-81.6 262.6,-85.83"/>
</g>
<!-- Node13&#45;&gt;Node3 -->
<g id="edge15" class="edge">
<title>Node13&#45;&gt;Node3</title>
<path fill="none" stroke="midnightblue" d="M282.62,-56.32C292.03,-48.26 306.24,-36.08 317.57,-26.37"/>
<polygon fill="midnightblue" stroke="midnightblue" points="319.88,-29 325.19,-19.83 315.32,-23.68 319.88,-29"/>
</g>
<!-- Node13&#45;&gt;Node6 -->
<g id="edge16" class="edge">
<title>Node13&#45;&gt;Node6</title>
<path fill="none" stroke="midnightblue" d="M260.61,-56.32C249.35,-48.11 232.21,-35.6 218.79,-25.81"/>
<polygon fill="midnightblue" stroke="midnightblue" points="220.75,-22.9 210.61,-19.83 216.62,-28.56 220.75,-22.9"/>
</g>
<!-- Node14&#45;&gt;Node6 -->
<g id="edge19" class="edge">
<title>Node14&#45;&gt;Node6</title>
<path fill="none" stroke="midnightblue" d="M129.67,-56.32C142.35,-47.98 161.73,-35.21 176.71,-25.35"/>
<polygon fill="midnightblue" stroke="midnightblue" points="178.93,-28.08 185.36,-19.65 175.08,-22.23 178.93,-28.08"/>
</g>
</g>
</svg>
        <g id="navigator" transform="translate(0 0)" fill="#404254">
                <rect fill="#f2f5e9" fill-opacity="0.5" stroke="#606060" stroke-width=".5" x="0" y="0" width="60" height="60"/>
                <use id="zoomplus" xlink:href="#zoomPlus" x="17" y="9" onmousedown="handleZoom(evt,'in')"/>
                <use id="zoomminus" xlink:href="#zoomMin" x="42" y="9" onmousedown="handleZoom(evt,'out')"/>
                <use id="reset" xlink:href="#resetDef" x="30" y="36" onmousedown="handleReset()"/>
                <g id="arrowUp" xlink:href="#dirArrow" transform="translate(30 24)" onmousedown="handlePan(0,-1)">
                  <use xlink:href="#rim" fill="#404040">
                        <set attributeName="fill" to="#808080" begin="arrowUp.mouseover" end="arrowUp.mouseout"/>
                  </use>
                  <path fill="none" stroke="white" stroke-width="1.5" d="M0,-3.0v7 M-2.5,-0.5L0,-3.0L2.5,-0.5"/>
                </g>
                <g id="arrowRight" xlink:href="#dirArrow" transform="rotate(90) translate(36 -43)" onmousedown="handlePan(1,0)">
                  <use xlink:href="#rim" fill="#404040">
                        <set attributeName="fill" to="#808080" begin="arrowRight.mouseover" end="arrowRight.mouseout"/>
                  </use>
                  <path fill="none" stroke="white" stroke-width="1.5" d="M0,-3.0v7 M-2.5,-0.5L0,-3.0L2.5,-0.5"/>
                </g>
                <g id="arrowDown" xlink:href="#dirArrow" transform="rotate(180) translate(-30 -48)" onmousedown="handlePan(0,1)">
                  <use xlink:href="#rim" fill="#404040">
                        <set attributeName="fill" to="#808080" begin="arrowDown.mouseover" end="arrowDown.mouseout"/>
                  </use>
                  <path fill="none" stroke="white" stroke-width="1.5" d="M0,-3.0v7 M-2.5,-0.5L0,-3.0L2.5,-0.5"/>
                </g>
                <g id="arrowLeft" xlink:href="#dirArrow" transform="rotate(270) translate(-36 17)" onmousedown="handlePan(-1,0)">
                  <use xlink:href="#rim" fill="#404040">
                        <set attributeName="fill" to="#808080" begin="arrowLeft.mouseover" end="arrowLeft.mouseout"/>
                  </use>
                  <path fill="none" stroke="white" stroke-width="1.5" d="M0,-3.0v7 M-2.5,-0.5L0,-3.0L2.5,-0.5"/>
                </g>
        </g>
        <svg viewBox="0 0 15 15" width="100%" height="30px" preserveAspectRatio="xMaxYMin meet">
         <g id="arrow_out" transform="scale(0.3 0.3)">
          <a xlink:href="ee_2kernel_2src_2timer_8c__incl_org.svg" target="_base">
           <rect id="button" ry="5" rx="5" y="6" x="6" height="38" width="38"
                fill="#f2f5e9" fill-opacity="0.5" stroke="#606060" stroke-width="1.0"/>
           <path id="arrow"
             d="M 11.500037,31.436501 C 11.940474,20.09759 22.043105,11.32322 32.158766,21.979434 L 37.068811,17.246167 C 37.068811,17.246167 37.088388,32 37.088388,32 L 22.160133,31.978069 C 22.160133,31.978069 26.997745,27.140456 26.997745,27.140456 C 18.528582,18.264221 13.291696,25.230495 11.500037,31.436501 z"
             style="fill:#404040;"/>
          </a>
         </g>
        </svg>
</svg>
