<?xml version="1.0" encoding="UTF-8" standalone="no"?>
<!DOCTYPE svg PUBLIC "-//W3C//DTD SVG 1.1//EN"
 "http://www.w3.org/Graphics/SVG/1.1/DTD/svg11.dtd">
<!-- Generated by graphviz version 2.44.0 ()
 -->
<!-- Title: common/include/ee_regs.h Pages: 1 -->
<svg width="1588pt" height="229pt"
 viewBox="0.00 0.00 1588.00 229.00" xmlns="http://www.w3.org/2000/svg" xmlns:xlink="http://www.w3.org/1999/xlink">
<g id="graph0" class="graph" transform="scale(1 1) rotate(0) translate(4 225)">
<title>common/include/ee_regs.h</title>
<polygon fill="white" stroke="transparent" points="-4,4 -4,-225 1584,-225 1584,4 -4,4"/>
<!-- Node1 -->
<g id="node1" class="node">
<title>Node1</title>
<g id="a_node1"><a xlink:title=" ">
<polygon fill="#bfbfbf" stroke="black" points="332.5,-201.5 332.5,-220.5 465.5,-220.5 465.5,-201.5 332.5,-201.5"/>
<text text-anchor="middle" x="399" y="-208.5" font-family="Helvetica,sans-Serif" font-size="10.00">common/include/ee_regs.h</text>
</a>
</g>
</g>
<!-- Node2 -->
<g id="node2" class="node">
<title>Node2</title>
<g id="a_node2"><a xlink:href="ps2__reg__defs_8h.html" target="_top" xlink:title=" ">
<polygon fill="white" stroke="black" points="345.5,-134.5 345.5,-164.5 452.5,-164.5 452.5,-134.5 345.5,-134.5"/>
<text text-anchor="start" x="353.5" y="-152.5" font-family="Helvetica,sans-Serif" font-size="10.00">common/include/ps2</text>
<text text-anchor="middle" x="399" y="-141.5" font-family="Helvetica,sans-Serif" font-size="10.00">_reg_defs.h</text>
</a>
</g>
</g>
<!-- Node1&#45;&gt;Node2 -->
<g id="edge1" class="edge">
<title>Node1&#45;&gt;Node2</title>
<path fill="none" stroke="midnightblue" d="M399,-191.23C399,-182.59 399,-172.5 399,-164.52"/>
<polygon fill="midnightblue" stroke="midnightblue" points="395.5,-191.48 399,-201.48 402.5,-191.48 395.5,-191.48"/>
</g>
<!-- Node5 -->
<g id="node5" class="node">
<title>Node5</title>
<g id="a_node5"><a xlink:href="ee__sif2_8c_source.html" target="_top" xlink:title=" ">
<polygon fill="white" stroke="black" points="0,-0.5 0,-30.5 108,-30.5 108,-0.5 0,-0.5"/>
<text text-anchor="start" x="8" y="-18.5" font-family="Helvetica,sans-Serif" font-size="10.00">common/sbus/src/ee</text>
<text text-anchor="middle" x="54" y="-7.5" font-family="Helvetica,sans-Serif" font-size="10.00">_sif2.c</text>
</a>
</g>
</g>
<!-- Node1&#45;&gt;Node5 -->
<g id="edge30" class="edge">
<title>Node1&#45;&gt;Node5</title>
<path fill="none" stroke="midnightblue" d="M373.68,-196.69C334.5,-176.01 256.92,-134.72 192,-98 151.31,-74.99 104.59,-47.08 77.29,-30.61"/>
<polygon fill="midnightblue" stroke="midnightblue" points="372.3,-199.92 382.78,-201.49 375.57,-193.73 372.3,-199.92"/>
</g>
<!-- Node17 -->
<g id="node17" class="node">
<title>Node17</title>
<g id="a_node17"><a xlink:href="srcfile_2src_2alarm_8c_source.html" target="_top" xlink:title=" ">
<polygon fill="white" stroke="black" points="470.5,-134.5 470.5,-164.5 571.5,-164.5 571.5,-134.5 470.5,-134.5"/>
<text text-anchor="start" x="478.5" y="-152.5" font-family="Helvetica,sans-Serif" font-size="10.00">ee/kernel/src/srcfile</text>
<text text-anchor="middle" x="521" y="-141.5" font-family="Helvetica,sans-Serif" font-size="10.00">/src/alarm.c</text>
</a>
</g>
</g>
<!-- Node1&#45;&gt;Node17 -->
<g id="edge31" class="edge">
<title>Node1&#45;&gt;Node17</title>
<path fill="none" stroke="midnightblue" d="M425.51,-197.07C445.21,-187.47 472.04,-174.38 492.25,-164.52"/>
<polygon fill="midnightblue" stroke="midnightblue" points="423.93,-193.95 416.48,-201.48 427,-200.24 423.93,-193.95"/>
</g>
<!-- Node3 -->
<g id="node3" class="node">
<title>Node3</title>
<g id="a_node3"><a xlink:href="ps2__sbus_8h.html" target="_top" xlink:title=" ">
<polygon fill="white" stroke="black" points="647,-67.5 647,-97.5 759,-97.5 759,-67.5 647,-67.5"/>
<text text-anchor="start" x="655" y="-85.5" font-family="Helvetica,sans-Serif" font-size="10.00">common/sbus/include</text>
<text text-anchor="middle" x="703" y="-74.5" font-family="Helvetica,sans-Serif" font-size="10.00">/ps2_sbus.h</text>
</a>
</g>
</g>
<!-- Node2&#45;&gt;Node3 -->
<g id="edge2" class="edge">
<title>Node2&#45;&gt;Node3</title>
<path fill="none" stroke="midnightblue" d="M462.84,-133.62C531.29,-118.55 599.89,-104.38 646.68,-94.85"/>
<polygon fill="midnightblue" stroke="midnightblue" points="461.76,-130.27 452.75,-135.85 463.27,-137.11 461.76,-130.27"/>
</g>
<!-- Node4 -->
<g id="node4" class="node">
<title>Node4</title>
<g id="a_node4"><a xlink:href="ee__sbus_8c_source.html" target="_top" xlink:title=" ">
<polygon fill="white" stroke="black" points="1338,-0.5 1338,-30.5 1446,-30.5 1446,-0.5 1338,-0.5"/>
<text text-anchor="start" x="1346" y="-18.5" font-family="Helvetica,sans-Serif" font-size="10.00">common/sbus/src/ee</text>
<text text-anchor="middle" x="1392" y="-7.5" font-family="Helvetica,sans-Serif" font-size="10.00">_sbus.c</text>
</a>
</g>
</g>
<!-- Node2&#45;&gt;Node4 -->
<g id="edge15" class="edge">
<title>Node2&#45;&gt;Node4</title>
<path fill="none" stroke="midnightblue" d="M462.69,-133.87C646.9,-105.21 697.06,-119.36 879,-98 1079.83,-74.42 1130.32,-68.59 1329,-31 1331.87,-30.46 1334.8,-29.88 1337.76,-29.27"/>
<polygon fill="midnightblue" stroke="midnightblue" points="462.01,-130.43 452.68,-135.45 463.1,-137.35 462.01,-130.43"/>
</g>
<!-- Node2&#45;&gt;Node5 -->
<g id="edge16" class="edge">
<title>Node2&#45;&gt;Node5</title>
<path fill="none" stroke="midnightblue" d="M353.05,-130.92C283.81,-104.43 154.11,-54.8 90.74,-30.56"/>
<polygon fill="midnightblue" stroke="midnightblue" points="351.82,-134.19 362.41,-134.5 354.32,-127.66 351.82,-134.19"/>
</g>
<!-- Node7 -->
<g id="node7" class="node">
<title>Node7</title>
<g id="a_node7"><a xlink:href="iop__sif2_8c_source.html" target="_top" xlink:title=" ">
<polygon fill="white" stroke="black" points="258,-0.5 258,-30.5 368,-30.5 368,-0.5 258,-0.5"/>
<text text-anchor="start" x="266" y="-18.5" font-family="Helvetica,sans-Serif" font-size="10.00">common/sbus/src/iop</text>
<text text-anchor="middle" x="313" y="-7.5" font-family="Helvetica,sans-Serif" font-size="10.00">_sif2.c</text>
</a>
</g>
</g>
<!-- Node2&#45;&gt;Node7 -->
<g id="edge17" class="edge">
<title>Node2&#45;&gt;Node7</title>
<path fill="none" stroke="midnightblue" d="M384.23,-125.83C366.4,-98.47 336.97,-53.28 322.14,-30.52"/>
<polygon fill="midnightblue" stroke="midnightblue" points="381.41,-127.91 389.8,-134.37 387.27,-124.08 381.41,-127.91"/>
</g>
<!-- Node9 -->
<g id="node9" class="node">
<title>Node9</title>
<g id="a_node9"><a xlink:href="ps2__sbus_8c_source.html" target="_top" xlink:title=" ">
<polygon fill="white" stroke="black" points="126.5,-0.5 126.5,-30.5 239.5,-30.5 239.5,-0.5 126.5,-0.5"/>
<text text-anchor="start" x="134.5" y="-18.5" font-family="Helvetica,sans-Serif" font-size="10.00">common/sbus/src/ps2</text>
<text text-anchor="middle" x="183" y="-7.5" font-family="Helvetica,sans-Serif" font-size="10.00">_sbus.c</text>
</a>
</g>
</g>
<!-- Node2&#45;&gt;Node9 -->
<g id="edge18" class="edge">
<title>Node2&#45;&gt;Node9</title>
<path fill="none" stroke="midnightblue" d="M367.3,-129.13C323.3,-102.24 244.73,-54.22 205.95,-30.52"/>
<polygon fill="midnightblue" stroke="midnightblue" points="365.53,-132.15 375.88,-134.37 369.18,-126.17 365.53,-132.15"/>
</g>
<!-- Node10 -->
<g id="node10" class="node">
<title>Node10</title>
<g id="a_node10"><a xlink:href="ps2__sif_8c_source.html" target="_top" xlink:title=" ">
<polygon fill="white" stroke="black" points="386.5,-0.5 386.5,-30.5 499.5,-30.5 499.5,-0.5 386.5,-0.5"/>
<text text-anchor="start" x="394.5" y="-18.5" font-family="Helvetica,sans-Serif" font-size="10.00">common/sbus/src/ps2</text>
<text text-anchor="middle" x="443" y="-7.5" font-family="Helvetica,sans-Serif" font-size="10.00">_sif.c</text>
</a>
</g>
</g>
<!-- Node2&#45;&gt;Node10 -->
<g id="edge19" class="edge">
<title>Node2&#45;&gt;Node10</title>
<path fill="none" stroke="midnightblue" d="M403.09,-124.48C406.25,-108.02 411.24,-85.85 418,-67 422.56,-54.29 429.47,-40.61 434.87,-30.7"/>
<polygon fill="midnightblue" stroke="midnightblue" points="399.63,-123.91 401.27,-134.37 406.52,-125.17 399.63,-123.91"/>
</g>
<!-- Node11 -->
<g id="node11" class="node">
<title>Node11</title>
<g id="a_node11"><a xlink:href="sif2cmd_8c_source.html" target="_top" xlink:title=" ">
<polygon fill="white" stroke="black" points="1180,-6 1180,-25 1320,-25 1320,-6 1180,-6"/>
<text text-anchor="middle" x="1250" y="-13" font-family="Helvetica,sans-Serif" font-size="10.00">common/sbus/src/sif2cmd.c</text>
</a>
</g>
</g>
<!-- Node2&#45;&gt;Node11 -->
<g id="edge29" class="edge">
<title>Node2&#45;&gt;Node11</title>
<path fill="none" stroke="midnightblue" d="M462.62,-133.83C598.05,-110.63 635.17,-116.82 768,-98 947.77,-72.53 992.14,-62.28 1171,-31 1181.71,-29.13 1193.23,-27.05 1204.07,-25.06"/>
<polygon fill="midnightblue" stroke="midnightblue" points="461.95,-130.39 452.69,-135.55 463.14,-137.29 461.95,-130.39"/>
</g>
<!-- Node16 -->
<g id="node16" class="node">
<title>Node16</title>
<g id="a_node16"><a xlink:href="sbus__priv_8h_source.html" target="_top" xlink:title=" ">
<polygon fill="white" stroke="black" points="427.5,-67.5 427.5,-97.5 546.5,-97.5 546.5,-67.5 427.5,-67.5"/>
<text text-anchor="start" x="435.5" y="-85.5" font-family="Helvetica,sans-Serif" font-size="10.00">common/sbus/src/sbus</text>
<text text-anchor="middle" x="487" y="-74.5" font-family="Helvetica,sans-Serif" font-size="10.00">_priv.h</text>
</a>
</g>
</g>
<!-- Node2&#45;&gt;Node16 -->
<g id="edge20" class="edge">
<title>Node2&#45;&gt;Node16</title>
<path fill="none" stroke="midnightblue" d="M426.14,-128.45C439.68,-118.45 455.73,-106.6 467.94,-97.58"/>
<polygon fill="midnightblue" stroke="midnightblue" points="424.06,-125.64 418.09,-134.4 428.22,-131.27 424.06,-125.64"/>
</g>
<!-- Node3&#45;&gt;Node4 -->
<g id="edge3" class="edge">
<title>Node3&#45;&gt;Node4</title>
<path fill="none" stroke="midnightblue" d="M769.03,-79.34C883.58,-74.88 1126.34,-62.32 1329,-31 1331.88,-30.55 1334.83,-30.05 1337.8,-29.5"/>
<polygon fill="midnightblue" stroke="midnightblue" points="768.87,-75.84 759.01,-79.72 769.14,-82.84 768.87,-75.84"/>
</g>
<!-- Node3&#45;&gt;Node5 -->
<g id="edge4" class="edge">
<title>Node3&#45;&gt;Node5</title>
<path fill="none" stroke="midnightblue" d="M636.84,-74.79C611.28,-72.26 581.79,-69.41 555,-67 360.46,-49.48 310.01,-60.98 117,-31 114.12,-30.55 111.17,-30.05 108.2,-29.5"/>
<polygon fill="midnightblue" stroke="midnightblue" points="636.5,-78.28 646.8,-75.78 637.19,-71.31 636.5,-78.28"/>
</g>
<!-- Node6 -->
<g id="node6" class="node">
<title>Node6</title>
<g id="a_node6"><a xlink:href="iop__sbus_8c_source.html" target="_top" xlink:title=" ">
<polygon fill="white" stroke="black" points="518,-0.5 518,-30.5 628,-30.5 628,-0.5 518,-0.5"/>
<text text-anchor="start" x="526" y="-18.5" font-family="Helvetica,sans-Serif" font-size="10.00">common/sbus/src/iop</text>
<text text-anchor="middle" x="573" y="-7.5" font-family="Helvetica,sans-Serif" font-size="10.00">_sbus.c</text>
</a>
</g>
</g>
<!-- Node3&#45;&gt;Node6 -->
<g id="edge5" class="edge">
<title>Node3&#45;&gt;Node6</title>
<path fill="none" stroke="midnightblue" d="M665.71,-62.85C645.15,-52.58 620.05,-40.03 601.15,-30.58"/>
<polygon fill="midnightblue" stroke="midnightblue" points="664.28,-66.05 674.79,-67.4 667.41,-59.79 664.28,-66.05"/>
</g>
<!-- Node3&#45;&gt;Node7 -->
<g id="edge6" class="edge">
<title>Node3&#45;&gt;Node7</title>
<path fill="none" stroke="midnightblue" d="M636.58,-72.58C570.54,-63.39 466.45,-48.04 377,-31 374.09,-30.45 371.11,-29.85 368.11,-29.24"/>
<polygon fill="midnightblue" stroke="midnightblue" points="636.46,-76.1 646.84,-74 637.42,-69.16 636.46,-76.1"/>
</g>
<!-- Node8 -->
<g id="node8" class="node">
<title>Node8</title>
<g id="a_node8"><a xlink:href="ps2__dbg_8c_source.html" target="_top" xlink:title=" ">
<polygon fill="white" stroke="black" points="646.5,-0.5 646.5,-30.5 759.5,-30.5 759.5,-0.5 646.5,-0.5"/>
<text text-anchor="start" x="654.5" y="-18.5" font-family="Helvetica,sans-Serif" font-size="10.00">common/sbus/src/ps2</text>
<text text-anchor="middle" x="703" y="-7.5" font-family="Helvetica,sans-Serif" font-size="10.00">_dbg.c</text>
</a>
</g>
</g>
<!-- Node3&#45;&gt;Node8 -->
<g id="edge7" class="edge">
<title>Node3&#45;&gt;Node8</title>
<path fill="none" stroke="midnightblue" d="M703,-57.11C703,-48.15 703,-38.32 703,-30.58"/>
<polygon fill="midnightblue" stroke="midnightblue" points="699.5,-57.4 703,-67.4 706.5,-57.4 699.5,-57.4"/>
</g>
<!-- Node3&#45;&gt;Node9 -->
<g id="edge8" class="edge">
<title>Node3&#45;&gt;Node9</title>
<path fill="none" stroke="midnightblue" d="M636.89,-75.01C529.54,-64.34 321.96,-43.04 249,-31 245.99,-30.5 242.91,-29.96 239.81,-29.38"/>
<polygon fill="midnightblue" stroke="midnightblue" points="636.66,-78.51 646.96,-76.01 637.35,-71.54 636.66,-78.51"/>
</g>
<!-- Node3&#45;&gt;Node10 -->
<g id="edge9" class="edge">
<title>Node3&#45;&gt;Node10</title>
<path fill="none" stroke="midnightblue" d="M636.94,-64.98C594.47,-54.37 539.88,-40.72 499.44,-30.61"/>
<polygon fill="midnightblue" stroke="midnightblue" points="636.35,-68.45 646.9,-67.48 638.05,-61.66 636.35,-68.45"/>
</g>
<!-- Node3&#45;&gt;Node11 -->
<g id="edge10" class="edge">
<title>Node3&#45;&gt;Node11</title>
<path fill="none" stroke="midnightblue" d="M769.52,-75.88C860.44,-67.85 1028.5,-51.74 1171,-31 1182.59,-29.31 1195.08,-27.17 1206.63,-25.06"/>
<polygon fill="midnightblue" stroke="midnightblue" points="769.02,-72.41 759.36,-76.78 769.63,-79.39 769.02,-72.41"/>
</g>
<!-- Node12 -->
<g id="node12" class="node">
<title>Node12</title>
<g id="a_node12"><a xlink:href="iop_2debug_2iop__sbusdbg_2src_2irx__imports_8h_source.html" target="_top" xlink:title=" ">
<polygon fill="white" stroke="black" points="778,-0.5 778,-30.5 894,-30.5 894,-0.5 778,-0.5"/>
<text text-anchor="start" x="786" y="-18.5" font-family="Helvetica,sans-Serif" font-size="10.00">iop/debug/iop_sbusdbg</text>
<text text-anchor="middle" x="836" y="-7.5" font-family="Helvetica,sans-Serif" font-size="10.00">/src/irx_imports.h</text>
</a>
</g>
</g>
<!-- Node3&#45;&gt;Node12 -->
<g id="edge11" class="edge">
<title>Node3&#45;&gt;Node12</title>
<path fill="none" stroke="midnightblue" d="M740.87,-62.99C761.95,-52.69 787.78,-40.07 807.2,-30.58"/>
<polygon fill="midnightblue" stroke="midnightblue" points="739.31,-59.86 731.86,-67.4 742.38,-66.15 739.31,-59.86"/>
</g>
<!-- Node13 -->
<g id="node13" class="node">
<title>Node13</title>
<g id="a_node13"><a xlink:href="iop_2debug_2iop__sbusdbg_2src_2main_8c_source.html" target="_top" xlink:title=" ">
<polygon fill="white" stroke="black" points="912,-0.5 912,-30.5 1028,-30.5 1028,-0.5 912,-0.5"/>
<text text-anchor="start" x="920" y="-18.5" font-family="Helvetica,sans-Serif" font-size="10.00">iop/debug/iop_sbusdbg</text>
<text text-anchor="middle" x="970" y="-7.5" font-family="Helvetica,sans-Serif" font-size="10.00">/src/main.c</text>
</a>
</g>
</g>
<!-- Node3&#45;&gt;Node13 -->
<g id="edge12" class="edge">
<title>Node3&#45;&gt;Node13</title>
<path fill="none" stroke="midnightblue" d="M769.04,-65.42C813.02,-54.72 870.26,-40.78 912.4,-30.52"/>
<polygon fill="midnightblue" stroke="midnightblue" points="768.19,-62.03 759.3,-67.79 769.84,-68.83 768.19,-62.03"/>
</g>
<!-- Node14 -->
<g id="node14" class="node">
<title>Node14</title>
<g id="a_node14"><a xlink:href="sbus__dbg_8c_source.html" target="_top" xlink:title=" ">
<polygon fill="white" stroke="black" points="1046,-0.5 1046,-30.5 1162,-30.5 1162,-0.5 1046,-0.5"/>
<text text-anchor="start" x="1054" y="-18.5" font-family="Helvetica,sans-Serif" font-size="10.00">iop/debug/iop_sbusdbg</text>
<text text-anchor="middle" x="1104" y="-7.5" font-family="Helvetica,sans-Serif" font-size="10.00">/src/sbus_dbg.c</text>
</a>
</g>
</g>
<!-- Node3&#45;&gt;Node14 -->
<g id="edge13" class="edge">
<title>Node3&#45;&gt;Node14</title>
<path fill="none" stroke="midnightblue" d="M769.1,-72.76C836.63,-63.53 944.42,-48 1037,-31 1039.93,-30.46 1042.92,-29.89 1045.94,-29.3"/>
<polygon fill="midnightblue" stroke="midnightblue" points="768.46,-69.31 759.03,-74.13 769.41,-76.25 768.46,-69.31"/>
</g>
<!-- Node15 -->
<g id="node15" class="node">
<title>Node15</title>
<g id="a_node15"><a xlink:href="sbus__tty_8c_source.html" target="_top" xlink:title=" ">
<polygon fill="white" stroke="black" points="1464,-0.5 1464,-30.5 1580,-30.5 1580,-0.5 1464,-0.5"/>
<text text-anchor="start" x="1472" y="-18.5" font-family="Helvetica,sans-Serif" font-size="10.00">iop/debug/iop_sbusdbg</text>
<text text-anchor="middle" x="1522" y="-7.5" font-family="Helvetica,sans-Serif" font-size="10.00">/src/sbus_tty.c</text>
</a>
</g>
</g>
<!-- Node3&#45;&gt;Node15 -->
<g id="edge14" class="edge">
<title>Node3&#45;&gt;Node15</title>
<path fill="none" stroke="midnightblue" d="M769.74,-80.29C901.4,-77.17 1203.64,-66.45 1455,-31 1457.95,-30.58 1460.96,-30.11 1463.99,-29.6"/>
<polygon fill="midnightblue" stroke="midnightblue" points="769.34,-76.79 759.42,-80.52 769.5,-83.79 769.34,-76.79"/>
</g>
<!-- Node16&#45;&gt;Node4 -->
<g id="edge21" class="edge">
<title>Node16&#45;&gt;Node4</title>
<path fill="none" stroke="midnightblue" d="M556.8,-74.16C582.33,-71.64 611.45,-68.97 638,-67 944.69,-44.3 1024.44,-73.65 1329,-31 1331.89,-30.6 1334.84,-30.12 1337.82,-29.6"/>
<polygon fill="midnightblue" stroke="midnightblue" points="556.44,-70.67 546.84,-75.15 557.14,-77.64 556.44,-70.67"/>
</g>
<!-- Node16&#45;&gt;Node5 -->
<g id="edge22" class="edge">
<title>Node16&#45;&gt;Node5</title>
<path fill="none" stroke="midnightblue" d="M417.25,-73.89C342.65,-65.3 221,-50.03 117,-31 114.13,-30.47 111.19,-29.91 108.23,-29.31"/>
<polygon fill="midnightblue" stroke="midnightblue" points="417.13,-77.4 427.46,-75.06 417.92,-70.44 417.13,-77.4"/>
</g>
<!-- Node16&#45;&gt;Node6 -->
<g id="edge23" class="edge">
<title>Node16&#45;&gt;Node6</title>
<path fill="none" stroke="midnightblue" d="M513.9,-61.17C527.05,-51.23 542.55,-39.51 554.38,-30.58"/>
<polygon fill="midnightblue" stroke="midnightblue" points="511.53,-58.57 505.66,-67.4 515.75,-64.16 511.53,-58.57"/>
</g>
<!-- Node16&#45;&gt;Node7 -->
<g id="edge24" class="edge">
<title>Node16&#45;&gt;Node7</title>
<path fill="none" stroke="midnightblue" d="M439.67,-63.82C411.7,-53.37 376.77,-40.32 350.68,-30.58"/>
<polygon fill="midnightblue" stroke="midnightblue" points="438.65,-67.18 449.24,-67.4 441.1,-60.62 438.65,-67.18"/>
</g>
<!-- Node16&#45;&gt;Node8 -->
<g id="edge25" class="edge">
<title>Node16&#45;&gt;Node8</title>
<path fill="none" stroke="midnightblue" d="M543.23,-64.58C578.31,-54.02 622.94,-40.59 656.11,-30.61"/>
<polygon fill="midnightblue" stroke="midnightblue" points="542.17,-61.24 533.6,-67.48 544.19,-67.95 542.17,-61.24"/>
</g>
<!-- Node16&#45;&gt;Node9 -->
<g id="edge26" class="edge">
<title>Node16&#45;&gt;Node9</title>
<path fill="none" stroke="midnightblue" d="M417.44,-66.88C369.97,-56.87 305.66,-43.24 249,-31 245.9,-30.33 242.73,-29.64 239.52,-28.95"/>
<polygon fill="midnightblue" stroke="midnightblue" points="416.8,-70.32 427.31,-68.96 418.25,-63.47 416.8,-70.32"/>
</g>
<!-- Node16&#45;&gt;Node10 -->
<g id="edge27" class="edge">
<title>Node16&#45;&gt;Node10</title>
<path fill="none" stroke="midnightblue" d="M471.68,-58.87C465.31,-49.46 458.12,-38.83 452.53,-30.58"/>
<polygon fill="midnightblue" stroke="midnightblue" points="468.95,-61.08 477.45,-67.4 474.75,-57.15 468.95,-61.08"/>
</g>
<!-- Node16&#45;&gt;Node11 -->
<g id="edge28" class="edge">
<title>Node16&#45;&gt;Node11</title>
<path fill="none" stroke="midnightblue" d="M556.82,-74.38C582.35,-71.89 611.47,-69.17 638,-67 874.64,-47.65 935.41,-60.48 1171,-31 1183.18,-29.48 1196.32,-27.29 1208.32,-25.07"/>
<polygon fill="midnightblue" stroke="midnightblue" points="556.46,-70.9 546.85,-75.36 557.15,-77.86 556.46,-70.9"/>
</g>
</g>
</svg>
