<?xml version="1.0" encoding="UTF-8" standalone="no"?>
<!DOCTYPE svg PUBLIC "-//W3C//DTD SVG 1.1//EN"
 "http://www.w3.org/Graphics/SVG/1.1/DTD/svg11.dtd">
<!-- Generated by graphviz version 9.0.0 (20230911.1827)
 -->
<!-- Title: common/include/ee_regs.h Pages: 1 -->
<!--zoomable 227 -->

<svg id="main" version="1.1" xmlns="http://www.w3.org/2000/svg" xmlns:xlink="http://www.w3.org/1999/xlink" xml:space="preserve" onload="init(evt)">
<style type="text/css"><![CDATA[
.node, .edge {opacity: 0.7;}
.node.selected, .edge.selected {opacity: 1;}
.edge:hover path { stroke: red; }
.edge:hover polygon { stroke: red; fill: red; }
]]></style>

<defs>
  <circle id="rim" cx="0" cy="0" r="7"/>
  <circle id="rim2" cx="0" cy="0" r="3.5"/>
  <g id="zoomPlus">
    <use xlink:href="#rim" fill="#404040"><set attributeName="fill" to="#808080" begin="zoomplus.mouseover" end="zoomplus.mouseout"/></use>
    <path d="M-4,0h8M0,-4v8" fill="none" stroke="white" stroke-width="1.5" pointer-events="none"/>
  </g>
  <g id="zoomMin">
    <use xlink:href="#rim" fill="#404040"><set attributeName="fill" to="#808080" begin="zoomminus.mouseover" end="zoomminus.mouseout"/></use>
    <path d="M-4,0h8" fill="none" stroke="white" stroke-width="1.5" pointer-events="none"/>
  </g>
  <g id="arrowUp" transform="translate(30 24)">
    <use xlink:href="#rim"/>
    <path pointer-events="none" fill="none" stroke="white" stroke-width="1.5" d="M0,-3.0v7 M-2.5,-0.5L0,-3.0L2.5,-0.5"/>
  </g>
  <g id="arrowRight" transform="rotate(90) translate(36 -43)">
    <use xlink:href="#rim"/>
    <path pointer-events="none" fill="none" stroke="white" stroke-width="1.5" d="M0,-3.0v7 M-2.5,-0.5L0,-3.0L2.5,-0.5"/>
  </g>
  <g id="arrowDown" transform="rotate(180) translate(-30 -48)">
    <use xlink:href="#rim"/>
    <path pointer-events="none" fill="none" stroke="white" stroke-width="1.5" d="M0,-3.0v7 M-2.5,-0.5L0,-3.0L2.5,-0.5"/>
  </g>
  <g id="arrowLeft" transform="rotate(270) translate(-36 17)">
    <use xlink:href="#rim"/>
    <path pointer-events="none" fill="none" stroke="white" stroke-width="1.5" d="M0,-3.0v7 M-2.5,-0.5L0,-3.0L2.5,-0.5"/>
  </g>
  <g id="resetDef">
    <use xlink:href="#rim2" fill="#404040"><set attributeName="fill" to="#808080" begin="reset.mouseover" end="reset.mouseout"/></use>
  </g>
</defs>
<script type="application/ecmascript">
var viewWidth = 1580;
var viewHeight = 227;
var sectionId = 'dynsection-1';
</script>
<script type="application/ecmascript" xlink:href="svg.min.js"/>
<svg id="graph" class="graph">
<g id="viewport">
<title>common/include/ee_regs.h</title>
<!-- Node1 -->
<g id="Node000001" class="node">
<title>Node1</title>
<g id="a_Node000001"><a xlink:title=" ">
<polygon fill="#999999" stroke="#666666" points="521.88,-218.75 389.62,-218.75 389.62,-199.5 521.88,-199.5 521.88,-218.75"/>
<text text-anchor="middle" x="455.75" y="-205.25" font-family="Helvetica,sans-Serif" font-size="10.00">common/include/ee_regs.h</text>
</a>
</g>
</g>
<!-- Node2 -->
<g id="Node000002" class="node">
<title>Node2</title>
<g id="a_Node000002"><a xlink:href="ps2__reg__defs_8h.html" target="_top" xlink:title=" ">
<polygon fill="white" stroke="#666666" points="448.75,-163.5 342.75,-163.5 342.75,-133 448.75,-133 448.75,-163.5"/>
<text text-anchor="start" x="350.75" y="-150" font-family="Helvetica,sans-Serif" font-size="10.00">common/include/ps2</text>
<text text-anchor="middle" x="395.75" y="-138.75" font-family="Helvetica,sans-Serif" font-size="10.00">_reg_defs.h</text>
</a>
</g>
</g>
<!-- Node1&#45;&gt;Node2 -->
<g id="edge1_Node000001_Node000002" class="edge">
<title>Node1&#45;&gt;Node2</title>
<g id="a_edge1_Node000001_Node000002"><a xlink:title=" ">
<path fill="none" stroke="#63b8ff" d="M438.55,-191.25C429.71,-182.57 419.03,-172.1 410.56,-163.78"/>
<polygon fill="#63b8ff" stroke="#63b8ff" points="435.97,-193.62 445.56,-198.12 440.87,-188.62 435.97,-193.62"/>
</a>
</g>
</g>
<!-- Node5 -->
<g id="Node000005" class="node">
<title>Node5</title>
<g id="a_Node000005"><a xlink:href="ee__sif2_8c_source.html" target="_top" xlink:title=" ">
<polygon fill="white" stroke="#666666" points="107.5,-30.5 0,-30.5 0,0 107.5,0 107.5,-30.5"/>
<text text-anchor="start" x="8" y="-17" font-family="Helvetica,sans-Serif" font-size="10.00">common/sbus/src/ee</text>
<text text-anchor="middle" x="53.75" y="-5.75" font-family="Helvetica,sans-Serif" font-size="10.00">_sif2.c</text>
</a>
</g>
</g>
<!-- Node1&#45;&gt;Node5 -->
<g id="edge30_Node000001_Node000005" class="edge">
<title>Node1&#45;&gt;Node5</title>
<g id="a_edge30_Node000001_Node000005"><a xlink:title=" ">
<path fill="none" stroke="#63b8ff" d="M418.28,-195.34C393.98,-186.83 361.75,-175.11 333.75,-163.5 269,-136.66 252.79,-129.61 190.75,-97 149.94,-75.55 104.07,-47.72 77.11,-30.96"/>
<polygon fill="#63b8ff" stroke="#63b8ff" points="416.82,-198.54 427.41,-198.52 419.12,-191.93 416.82,-198.54"/>
</a>
</g>
</g>
<!-- Node17 -->
<g id="Node000017" class="node">
<title>Node17</title>
<g id="a_Node000017"><a xlink:href="srcfile_2src_2alarm_8c_source.html" target="_top" xlink:title=" ">
<polygon fill="white" stroke="#666666" points="567.12,-163.5 466.38,-163.5 466.38,-133 567.12,-133 567.12,-163.5"/>
<text text-anchor="start" x="474.38" y="-150" font-family="Helvetica,sans-Serif" font-size="10.00">ee/kernel/src/srcfile</text>
<text text-anchor="middle" x="516.75" y="-138.75" font-family="Helvetica,sans-Serif" font-size="10.00">/src/alarm.c</text>
</a>
</g>
</g>
<!-- Node1&#45;&gt;Node17 -->
<g id="edge31_Node000001_Node000017" class="edge">
<title>Node1&#45;&gt;Node17</title>
<g id="a_edge31_Node000001_Node000017"><a xlink:title=" ">
<path fill="none" stroke="#63b8ff" d="M473.24,-191.25C482.23,-182.57 493.08,-172.1 501.69,-163.78"/>
<polygon fill="#63b8ff" stroke="#63b8ff" points="470.87,-188.67 466.1,-198.13 475.73,-193.71 470.87,-188.67"/>
</a>
</g>
</g>
<!-- Node18 -->
<g id="Node000018" class="node">
<title>Node18</title>
<g id="a_Node000018"><a xlink:href="libmpeg__core__c_8c_source.html" target="_top" xlink:title=" ">
<polygon fill="white" stroke="#666666" points="692.12,-163.5 585.38,-163.5 585.38,-133 692.12,-133 692.12,-163.5"/>
<text text-anchor="start" x="593.38" y="-150" font-family="Helvetica,sans-Serif" font-size="10.00">ee/mpeg/src/libmpeg</text>
<text text-anchor="middle" x="638.75" y="-138.75" font-family="Helvetica,sans-Serif" font-size="10.00">_core_c.c</text>
</a>
</g>
</g>
<!-- Node1&#45;&gt;Node18 -->
<g id="edge32_Node000001_Node000018" class="edge">
<title>Node1&#45;&gt;Node18</title>
<g id="a_edge32_Node000001_Node000018"><a xlink:title=" ">
<path fill="none" stroke="#63b8ff" d="M494.81,-195.56C523.59,-186.3 562.84,-173.67 593.07,-163.94"/>
<polygon fill="#63b8ff" stroke="#63b8ff" points="493.83,-192.2 485.38,-198.59 495.97,-198.86 493.83,-192.2"/>
</a>
</g>
</g>
<!-- Node3 -->
<g id="Node000003" class="node">
<title>Node3</title>
<g id="a_Node000003"><a xlink:href="ps2__sbus_8h.html" target="_top" xlink:title=" ">
<polygon fill="white" stroke="#666666" points="753.38,-97 642.12,-97 642.12,-66.5 753.38,-66.5 753.38,-97"/>
<text text-anchor="start" x="650.12" y="-83.5" font-family="Helvetica,sans-Serif" font-size="10.00">common/sbus/include</text>
<text text-anchor="middle" x="697.75" y="-72.25" font-family="Helvetica,sans-Serif" font-size="10.00">/ps2_sbus.h</text>
</a>
</g>
</g>
<!-- Node2&#45;&gt;Node3 -->
<g id="edge2_Node000002_Node000003" class="edge">
<title>Node2&#45;&gt;Node3</title>
<g id="a_edge2_Node000002_Node000003"><a xlink:title=" ">
<path fill="none" stroke="#63b8ff" d="M460.08,-132.51C528.04,-117.65 595.7,-103.6 641.92,-94.12"/>
<polygon fill="#63b8ff" stroke="#63b8ff" points="459.67,-129.02 450.65,-134.58 461.17,-135.86 459.67,-129.02"/>
</a>
</g>
</g>
<!-- Node4 -->
<g id="Node000004" class="node">
<title>Node4</title>
<g id="a_Node000004"><a xlink:href="ee__sbus_8c_source.html" target="_top" xlink:title=" ">
<polygon fill="white" stroke="#666666" points="1437.5,-30.5 1330,-30.5 1330,0 1437.5,0 1437.5,-30.5"/>
<text text-anchor="start" x="1338" y="-17" font-family="Helvetica,sans-Serif" font-size="10.00">common/sbus/src/ee</text>
<text text-anchor="middle" x="1383.75" y="-5.75" font-family="Helvetica,sans-Serif" font-size="10.00">_sbus.c</text>
</a>
</g>
</g>
<!-- Node2&#45;&gt;Node4 -->
<g id="edge15_Node000002_Node000004" class="edge">
<title>Node2&#45;&gt;Node4</title>
<g id="a_edge15_Node000002_Node000004"><a xlink:title=" ">
<path fill="none" stroke="#63b8ff" d="M460.45,-132.72C643.06,-104.71 693.13,-118.2 873.75,-97 1073.67,-73.53 1123.95,-67.85 1321.75,-30.5 1324.35,-30.01 1327.02,-29.48 1329.7,-28.94"/>
<polygon fill="#63b8ff" stroke="#63b8ff" points="459.93,-129.26 450.59,-134.26 461.01,-136.18 459.93,-129.26"/>
</a>
</g>
</g>
<!-- Node2&#45;&gt;Node5 -->
<g id="edge16_Node000002_Node000005" class="edge">
<title>Node2&#45;&gt;Node5</title>
<g id="a_edge16_Node000002_Node000005"><a xlink:title=" ">
<path fill="none" stroke="#63b8ff" d="M346.98,-128.57C278.29,-102.26 154.47,-54.83 92,-30.9"/>
<polygon fill="#63b8ff" stroke="#63b8ff" points="345.51,-131.75 356.1,-132.06 348.01,-125.22 345.51,-131.75"/>
</a>
</g>
</g>
<!-- Node7 -->
<g id="Node000007" class="node">
<title>Node7</title>
<g id="a_Node000007"><a xlink:href="iop__sif2_8c_source.html" target="_top" xlink:title=" ">
<polygon fill="white" stroke="#666666" points="365.62,-30.5 255.88,-30.5 255.88,0 365.62,0 365.62,-30.5"/>
<text text-anchor="start" x="263.88" y="-17" font-family="Helvetica,sans-Serif" font-size="10.00">common/sbus/src/iop</text>
<text text-anchor="middle" x="310.75" y="-5.75" font-family="Helvetica,sans-Serif" font-size="10.00">_sif2.c</text>
</a>
</g>
</g>
<!-- Node2&#45;&gt;Node7 -->
<g id="edge17_Node000002_Node000007" class="edge">
<title>Node2&#45;&gt;Node7</title>
<g id="a_edge17_Node000002_Node000007"><a xlink:title=" ">
<path fill="none" stroke="#63b8ff" d="M380.17,-123.24C362.64,-96.22 334.73,-53.2 320.21,-30.83"/>
<polygon fill="#63b8ff" stroke="#63b8ff" points="377.13,-124.98 385.5,-131.46 383,-121.17 377.13,-124.98"/>
</a>
</g>
</g>
<!-- Node9 -->
<g id="Node000009" class="node">
<title>Node9</title>
<g id="a_Node000009"><a xlink:href="ps2__sbus_8c_source.html" target="_top" xlink:title=" ">
<polygon fill="white" stroke="#666666" points="238.12,-30.5 125.38,-30.5 125.38,0 238.12,0 238.12,-30.5"/>
<text text-anchor="start" x="133.38" y="-17" font-family="Helvetica,sans-Serif" font-size="10.00">common/sbus/src/ps2</text>
<text text-anchor="middle" x="181.75" y="-5.75" font-family="Helvetica,sans-Serif" font-size="10.00">_sbus.c</text>
</a>
</g>
</g>
<!-- Node2&#45;&gt;Node9 -->
<g id="edge18_Node000002_Node000009" class="edge">
<title>Node2&#45;&gt;Node9</title>
<g id="a_edge18_Node000002_Node000009"><a xlink:title=" ">
<path fill="none" stroke="#63b8ff" d="M362.47,-126.88C318.96,-100.24 243.81,-54.24 205.58,-30.83"/>
<polygon fill="#63b8ff" stroke="#63b8ff" points="360.38,-129.7 370.74,-131.94 364.04,-123.73 360.38,-129.7"/>
</a>
</g>
</g>
<!-- Node10 -->
<g id="Node000010" class="node">
<title>Node10</title>
<g id="a_Node000010"><a xlink:href="ps2__sif_8c_source.html" target="_top" xlink:title=" ">
<polygon fill="white" stroke="#666666" points="496.12,-30.5 383.38,-30.5 383.38,0 496.12,0 496.12,-30.5"/>
<text text-anchor="start" x="391.38" y="-17" font-family="Helvetica,sans-Serif" font-size="10.00">common/sbus/src/ps2</text>
<text text-anchor="middle" x="439.75" y="-5.75" font-family="Helvetica,sans-Serif" font-size="10.00">_sif.c</text>
</a>
</g>
</g>
<!-- Node2&#45;&gt;Node10 -->
<g id="edge19_Node000002_Node000010" class="edge">
<title>Node2&#45;&gt;Node10</title>
<g id="a_edge19_Node000002_Node000010"><a xlink:title=" ">
<path fill="none" stroke="#63b8ff" d="M400.24,-121.46C403.43,-105.38 408.28,-84.42 414.75,-66.5 419.25,-54.04 426.02,-40.63 431.39,-30.81"/>
<polygon fill="#63b8ff" stroke="#63b8ff" points="396.82,-120.7 398.41,-131.18 403.7,-122 396.82,-120.7"/>
</a>
</g>
</g>
<!-- Node11 -->
<g id="Node000011" class="node">
<title>Node11</title>
<g id="a_Node000011"><a xlink:href="sif2cmd_8c_source.html" target="_top" xlink:title=" ">
<polygon fill="white" stroke="#666666" points="1312.25,-24.88 1173.25,-24.88 1173.25,-5.63 1312.25,-5.63 1312.25,-24.88"/>
<text text-anchor="middle" x="1242.75" y="-11.38" font-family="Helvetica,sans-Serif" font-size="10.00">common/sbus/src/sif2cmd.c</text>
</a>
</g>
</g>
<!-- Node2&#45;&gt;Node11 -->
<g id="edge29_Node000002_Node000011" class="edge">
<title>Node2&#45;&gt;Node11</title>
<g id="a_edge29_Node000002_Node000011"><a xlink:title=" ">
<path fill="none" stroke="#63b8ff" d="M460.21,-132.69C594.17,-110 631.17,-115.64 762.75,-97 942.05,-71.6 986.34,-61.55 1164.75,-30.5 1174.11,-28.87 1184.09,-27.09 1193.67,-25.35"/>
<polygon fill="#63b8ff" stroke="#63b8ff" points="459.86,-129.2 450.6,-134.34 461.05,-136.1 459.86,-129.2"/>
</a>
</g>
</g>
<!-- Node16 -->
<g id="Node000016" class="node">
<title>Node16</title>
<g id="a_Node000016"><a xlink:href="sbus__priv_8h_source.html" target="_top" xlink:title=" ">
<polygon fill="white" stroke="#666666" points="541.75,-97 423.75,-97 423.75,-66.5 541.75,-66.5 541.75,-97"/>
<text text-anchor="start" x="431.75" y="-83.5" font-family="Helvetica,sans-Serif" font-size="10.00">common/sbus/src/sbus</text>
<text text-anchor="middle" x="482.75" y="-72.25" font-family="Helvetica,sans-Serif" font-size="10.00">_priv.h</text>
</a>
</g>
</g>
<!-- Node2&#45;&gt;Node16 -->
<g id="edge20_Node000002_Node000016" class="edge">
<title>Node2&#45;&gt;Node16</title>
<g id="a_edge20_Node000002_Node000016"><a xlink:title=" ">
<path fill="none" stroke="#63b8ff" d="M424.69,-125.79C437.3,-116.44 451.75,-105.73 463.09,-97.33"/>
<polygon fill="#63b8ff" stroke="#63b8ff" points="422.66,-122.95 416.71,-131.71 426.83,-128.57 422.66,-122.95"/>
</a>
</g>
</g>
<!-- Node3&#45;&gt;Node4 -->
<g id="edge3_Node000003_Node000004" class="edge">
<title>Node3&#45;&gt;Node4</title>
<g id="a_edge3_Node000003_Node000004"><a xlink:title=" ">
<path fill="none" stroke="#63b8ff" d="M764.95,-78.55C879.7,-74.07 1120.55,-61.55 1321.75,-30.5 1324.37,-30.1 1327.04,-29.64 1329.74,-29.15"/>
<polygon fill="#63b8ff" stroke="#63b8ff" points="764.95,-75.04 755.09,-78.92 765.22,-82.04 764.95,-75.04"/>
</a>
</g>
</g>
<!-- Node3&#45;&gt;Node5 -->
<g id="edge4_Node000003_Node000005" class="edge">
<title>Node3&#45;&gt;Node5</title>
<g id="a_edge4_Node000003_Node000005"><a xlink:title=" ">
<path fill="none" stroke="#63b8ff" d="M630.68,-74.05C605.61,-71.6 576.88,-68.85 550.75,-66.5 357.98,-49.16 308.05,-59.92 116.75,-30.5 113.87,-30.06 110.92,-29.56 107.95,-29.02"/>
<polygon fill="#63b8ff" stroke="#63b8ff" points="630.12,-77.51 640.42,-75.01 630.81,-70.55 630.12,-77.51"/>
</a>
</g>
</g>
<!-- Node6 -->
<g id="Node000006" class="node">
<title>Node6</title>
<g id="a_Node000006"><a xlink:href="iop__sbus_8c_source.html" target="_top" xlink:title=" ">
<polygon fill="white" stroke="#666666" points="623.62,-30.5 513.88,-30.5 513.88,0 623.62,0 623.62,-30.5"/>
<text text-anchor="start" x="521.88" y="-17" font-family="Helvetica,sans-Serif" font-size="10.00">common/sbus/src/iop</text>
<text text-anchor="middle" x="568.75" y="-5.75" font-family="Helvetica,sans-Serif" font-size="10.00">_sbus.c</text>
</a>
</g>
</g>
<!-- Node3&#45;&gt;Node6 -->
<g id="edge5_Node000003_Node000006" class="edge">
<title>Node3&#45;&gt;Node6</title>
<g id="a_edge5_Node000003_Node000006"><a xlink:title=" ">
<path fill="none" stroke="#63b8ff" d="M658.37,-61.06C638.89,-51.32 615.78,-39.76 597.91,-30.83"/>
<polygon fill="#63b8ff" stroke="#63b8ff" points="656.61,-64.1 667.12,-65.44 659.75,-57.83 656.61,-64.1"/>
</a>
</g>
</g>
<!-- Node3&#45;&gt;Node7 -->
<g id="edge6_Node000003_Node000007" class="edge">
<title>Node3&#45;&gt;Node7</title>
<g id="a_edge6_Node000003_Node000007"><a xlink:title=" ">
<path fill="none" stroke="#63b8ff" d="M630.45,-71.57C564.96,-62.34 462.73,-47.12 374.75,-30.5 371.84,-29.95 368.86,-29.37 365.86,-28.76"/>
<polygon fill="#63b8ff" stroke="#63b8ff" points="629.95,-75.04 640.33,-72.96 630.92,-68.11 629.95,-75.04"/>
</a>
</g>
</g>
<!-- Node8 -->
<g id="Node000008" class="node">
<title>Node8</title>
<g id="a_Node000008"><a xlink:href="ps2__dbg_8c_source.html" target="_top" xlink:title=" ">
<polygon fill="white" stroke="#666666" points="754.12,-30.5 641.38,-30.5 641.38,0 754.12,0 754.12,-30.5"/>
<text text-anchor="start" x="649.38" y="-17" font-family="Helvetica,sans-Serif" font-size="10.00">common/sbus/src/ps2</text>
<text text-anchor="middle" x="697.75" y="-5.75" font-family="Helvetica,sans-Serif" font-size="10.00">_dbg.c</text>
</a>
</g>
</g>
<!-- Node3&#45;&gt;Node8 -->
<g id="edge7_Node000003_Node000008" class="edge">
<title>Node3&#45;&gt;Node8</title>
<g id="a_edge7_Node000003_Node000008"><a xlink:title=" ">
<path fill="none" stroke="#63b8ff" d="M697.75,-54.81C697.75,-46.64 697.75,-37.91 697.75,-30.83"/>
<polygon fill="#63b8ff" stroke="#63b8ff" points="694.25,-54.6 697.75,-64.6 701.25,-54.6 694.25,-54.6"/>
</a>
</g>
</g>
<!-- Node3&#45;&gt;Node9 -->
<g id="edge8_Node000003_Node000009" class="edge">
<title>Node3&#45;&gt;Node9</title>
<g id="a_edge8_Node000003_Node000009"><a xlink:title=" ">
<path fill="none" stroke="#63b8ff" d="M630.37,-74.12C523.24,-63.43 318.84,-42.39 246.75,-30.5 244.01,-30.05 241.22,-29.56 238.4,-29.04"/>
<polygon fill="#63b8ff" stroke="#63b8ff" points="629.87,-77.59 640.17,-75.1 630.57,-70.62 629.87,-77.59"/>
</a>
</g>
</g>
<!-- Node3&#45;&gt;Node10 -->
<g id="edge9_Node000003_Node000010" class="edge">
<title>Node3&#45;&gt;Node10</title>
<g id="a_edge9_Node000003_Node000010"><a xlink:title=" ">
<path fill="none" stroke="#63b8ff" d="M630.62,-63.97C588.97,-53.56 536.06,-40.33 496.51,-30.44"/>
<polygon fill="#63b8ff" stroke="#63b8ff" points="629.75,-67.36 640.3,-66.39 631.45,-60.57 629.75,-67.36"/>
</a>
</g>
</g>
<!-- Node3&#45;&gt;Node11 -->
<g id="edge10_Node000003_Node000011" class="edge">
<title>Node3&#45;&gt;Node11</title>
<g id="a_edge10_Node000003_Node000011"><a xlink:title=" ">
<path fill="none" stroke="#63b8ff" d="M764.86,-75.09C855.75,-67.07 1022.93,-51.06 1164.75,-30.5 1174.97,-29.02 1185.89,-27.18 1196.23,-25.33"/>
<polygon fill="#63b8ff" stroke="#63b8ff" points="764.79,-71.58 755.14,-75.94 765.4,-78.56 764.79,-71.58"/>
</a>
</g>
</g>
<!-- Node12 -->
<g id="Node000012" class="node">
<title>Node12</title>
<g id="a_Node000012"><a xlink:href="iop_2debug_2iop__sbusdbg_2src_2irx__imports_8h_source.html" target="_top" xlink:title=" ">
<polygon fill="white" stroke="#666666" points="887.62,-30.5 771.88,-30.5 771.88,0 887.62,0 887.62,-30.5"/>
<text text-anchor="start" x="779.88" y="-17" font-family="Helvetica,sans-Serif" font-size="10.00">iop/debug/iop_sbusdbg</text>
<text text-anchor="middle" x="829.75" y="-5.75" font-family="Helvetica,sans-Serif" font-size="10.00">/src/irx_imports.h</text>
</a>
</g>
</g>
<!-- Node3&#45;&gt;Node12 -->
<g id="edge11_Node000003_Node000012" class="edge">
<title>Node3&#45;&gt;Node12</title>
<g id="a_edge11_Node000003_Node000012"><a xlink:title=" ">
<path fill="none" stroke="#63b8ff" d="M738.04,-61.06C757.98,-51.32 781.63,-39.76 799.92,-30.83"/>
<polygon fill="#63b8ff" stroke="#63b8ff" points="736.51,-57.91 729.06,-65.45 739.58,-64.2 736.51,-57.91"/>
</a>
</g>
</g>
<!-- Node13 -->
<g id="Node000013" class="node">
<title>Node13</title>
<g id="a_Node000013"><a xlink:href="iop_2debug_2iop__sbusdbg_2src_2main_8c_source.html" target="_top" xlink:title=" ">
<polygon fill="white" stroke="#666666" points="1021.62,-30.5 905.88,-30.5 905.88,0 1021.62,0 1021.62,-30.5"/>
<text text-anchor="start" x="913.88" y="-17" font-family="Helvetica,sans-Serif" font-size="10.00">iop/debug/iop_sbusdbg</text>
<text text-anchor="middle" x="963.75" y="-5.75" font-family="Helvetica,sans-Serif" font-size="10.00">/src/main.c</text>
</a>
</g>
</g>
<!-- Node3&#45;&gt;Node13 -->
<g id="edge12_Node000003_Node000013" class="edge">
<title>Node3&#45;&gt;Node13</title>
<g id="a_edge12_Node000003_Node000013"><a xlink:title=" ">
<path fill="none" stroke="#63b8ff" d="M764.85,-64.48C808.17,-53.98 863.97,-40.44 905.44,-30.39"/>
<polygon fill="#63b8ff" stroke="#63b8ff" points="764.2,-61.04 755.31,-66.79 765.85,-67.84 764.2,-61.04"/>
</a>
</g>
</g>
<!-- Node14 -->
<g id="Node000014" class="node">
<title>Node14</title>
<g id="a_Node000014"><a xlink:href="sbus__dbg_8c_source.html" target="_top" xlink:title=" ">
<polygon fill="white" stroke="#666666" points="1155.62,-30.5 1039.88,-30.5 1039.88,0 1155.62,0 1155.62,-30.5"/>
<text text-anchor="start" x="1047.88" y="-17" font-family="Helvetica,sans-Serif" font-size="10.00">iop/debug/iop_sbusdbg</text>
<text text-anchor="middle" x="1097.75" y="-5.75" font-family="Helvetica,sans-Serif" font-size="10.00">/src/sbus_dbg.c</text>
</a>
</g>
</g>
<!-- Node3&#45;&gt;Node14 -->
<g id="edge13_Node000003_Node000014" class="edge">
<title>Node3&#45;&gt;Node14</title>
<g id="a_edge13_Node000003_Node000014"><a xlink:title=" ">
<path fill="none" stroke="#63b8ff" d="M764.89,-71.82C832.28,-62.57 938.98,-47.17 1030.75,-30.5 1033.68,-29.97 1036.67,-29.41 1039.69,-28.82"/>
<polygon fill="#63b8ff" stroke="#63b8ff" points="764.53,-68.34 755.1,-73.16 765.48,-75.27 764.53,-68.34"/>
</a>
</g>
</g>
<!-- Node15 -->
<g id="Node000015" class="node">
<title>Node15</title>
<g id="a_Node000015"><a xlink:href="sbus__tty_8c_source.html" target="_top" xlink:title=" ">
<polygon fill="white" stroke="#666666" points="1571.62,-30.5 1455.88,-30.5 1455.88,0 1571.62,0 1571.62,-30.5"/>
<text text-anchor="start" x="1463.88" y="-17" font-family="Helvetica,sans-Serif" font-size="10.00">iop/debug/iop_sbusdbg</text>
<text text-anchor="middle" x="1513.75" y="-5.75" font-family="Helvetica,sans-Serif" font-size="10.00">/src/sbus_tty.c</text>
</a>
</g>
</g>
<!-- Node3&#45;&gt;Node15 -->
<g id="edge14_Node000003_Node000015" class="edge">
<title>Node3&#45;&gt;Node15</title>
<g id="a_edge14_Node000003_Node000015"><a xlink:title=" ">
<path fill="none" stroke="#63b8ff" d="M764.9,-79.45C896.39,-76.2 1196.77,-65.29 1446.75,-30.5 1449.69,-30.09 1452.7,-29.62 1455.73,-29.12"/>
<polygon fill="#63b8ff" stroke="#63b8ff" points="764.89,-75.95 754.98,-79.69 765.06,-82.95 764.89,-75.95"/>
</a>
</g>
</g>
<!-- Node16&#45;&gt;Node4 -->
<g id="edge21_Node000016_Node000004" class="edge">
<title>Node16&#45;&gt;Node4</title>
<g id="a_edge21_Node000016_Node000004"><a xlink:title=" ">
<path fill="none" stroke="#63b8ff" d="M553.44,-73.41C578.47,-70.98 606.85,-68.41 632.75,-66.5 938.56,-43.99 1018.07,-73 1321.75,-30.5 1324.38,-30.13 1327.05,-29.71 1329.75,-29.24"/>
<polygon fill="#63b8ff" stroke="#63b8ff" points="553.31,-69.91 543.7,-74.37 553.99,-76.87 553.31,-69.91"/>
</a>
</g>
</g>
<!-- Node16&#45;&gt;Node5 -->
<g id="edge22_Node000016_Node000005" class="edge">
<title>Node16&#45;&gt;Node5</title>
<g id="a_edge22_Node000016_Node000005"><a xlink:title=" ">
<path fill="none" stroke="#63b8ff" d="M412.54,-72.93C338.65,-64.27 219.1,-49.06 116.75,-30.5 113.88,-29.98 110.95,-29.42 107.99,-28.83"/>
<polygon fill="#63b8ff" stroke="#63b8ff" points="411.71,-76.36 422.05,-74.04 412.52,-69.4 411.71,-76.36"/>
</a>
</g>
</g>
<!-- Node16&#45;&gt;Node6 -->
<g id="edge23_Node000016_Node000006" class="edge">
<title>Node16&#45;&gt;Node6</title>
<g id="a_edge23_Node000016_Node000006"><a xlink:title=" ">
<path fill="none" stroke="#63b8ff" d="M511.36,-59.29C523.82,-49.94 538.11,-39.23 549.31,-30.83"/>
<polygon fill="#63b8ff" stroke="#63b8ff" points="509.38,-56.41 503.48,-65.21 513.58,-62.01 509.38,-56.41"/>
</a>
</g>
</g>
<!-- Node16&#45;&gt;Node7 -->
<g id="edge24_Node000016_Node000007" class="edge">
<title>Node16&#45;&gt;Node7</title>
<g id="a_edge24_Node000016_Node000007"><a xlink:title=" ">
<path fill="none" stroke="#63b8ff" d="M433.14,-62.15C406.69,-52.23 374.6,-40.2 349.92,-30.94"/>
<polygon fill="#63b8ff" stroke="#63b8ff" points="431.71,-65.35 442.3,-65.58 434.17,-58.79 431.71,-65.35"/>
</a>
</g>
</g>
<!-- Node16&#45;&gt;Node8 -->
<g id="edge25_Node000016_Node000008" class="edge">
<title>Node16&#45;&gt;Node8</title>
<g id="a_edge25_Node000016_Node000008"><a xlink:title=" ">
<path fill="none" stroke="#63b8ff" d="M542.4,-62.85C575.95,-52.79 617.3,-40.39 648.9,-30.9"/>
<polygon fill="#63b8ff" stroke="#63b8ff" points="541.83,-59.37 533.26,-65.6 543.84,-66.08 541.83,-59.37"/>
</a>
</g>
</g>
<!-- Node16&#45;&gt;Node9 -->
<g id="edge26_Node000016_Node000009" class="edge">
<title>Node16&#45;&gt;Node9</title>
<g id="a_edge26_Node000016_Node000009"><a xlink:title=" ">
<path fill="none" stroke="#63b8ff" d="M412.6,-65.93C365.64,-55.98 302.47,-42.54 246.75,-30.5 244.04,-29.91 241.27,-29.31 238.47,-28.7"/>
<polygon fill="#63b8ff" stroke="#63b8ff" points="411.58,-69.29 422.09,-67.94 413.03,-62.44 411.58,-69.29"/>
</a>
</g>
</g>
<!-- Node16&#45;&gt;Node10 -->
<g id="edge27_Node000016_Node000010" class="edge">
<title>Node16&#45;&gt;Node10</title>
<g id="a_edge27_Node000016_Node000010"><a xlink:title=" ">
<path fill="none" stroke="#63b8ff" d="M466.78,-56.79C460.96,-48.07 454.58,-38.49 449.47,-30.83"/>
<polygon fill="#63b8ff" stroke="#63b8ff" points="463.69,-58.48 472.15,-64.85 469.52,-54.59 463.69,-58.48"/>
</a>
</g>
</g>
<!-- Node16&#45;&gt;Node11 -->
<g id="edge28_Node000016_Node000011" class="edge">
<title>Node16&#45;&gt;Node11</title>
<g id="a_edge28_Node000016_Node000011"><a xlink:title=" ">
<path fill="none" stroke="#63b8ff" d="M553.46,-73.63C578.49,-71.22 606.86,-68.61 632.75,-66.5 868.96,-47.29 929.59,-59.84 1164.75,-30.5 1175.54,-29.15 1187.1,-27.28 1197.93,-25.34"/>
<polygon fill="#63b8ff" stroke="#63b8ff" points="553.33,-70.13 543.72,-74.58 554.01,-77.1 553.33,-70.13"/>
</a>
</g>
</g>
</g>
</svg>

<g id="navigator" transform="translate(0 0)" fill="#404254">
  <rect fill="#f2f5e9" fill-opacity="0.5" stroke="#606060" stroke-width=".5" x="0" y="0" width="60" height="60"/>
  <use id="zoomplus" xlink:href="#zoomPlus" x="17" y="9" onmousedown="handleZoom(evt,'in')"/>
  <use id="zoomminus" xlink:href="#zoomMin" x="42" y="9" onmousedown="handleZoom(evt,'out')"/>
  <use id="reset" xlink:href="#resetDef" x="30" y="36" onmousedown="handleReset()"/>
   <use id="arrowup" xlink:href="#arrowUp" x="0" y="0" onmousedown="handlePan(0,-1)"/>
  <use id="arrowright" xlink:href="#arrowRight" x="0" y="0" onmousedown="handlePan(1,0)"/>
  <use id="arrowdown" xlink:href="#arrowDown" x="0" y="0" onmousedown="handlePan(0,1)"/>
  <use id="arrowleft" xlink:href="#arrowLeft" x="0" y="0" onmousedown="handlePan(-1,0)"/>
</g>
<svg viewBox="0 0 15 15" width="100%" height="30px" preserveAspectRatio="xMaxYMin meet">
 <g id="arrow_out" transform="scale(0.3 0.3)">
  <a xlink:href="ee__regs_8h__dep__incl_org.svg" target="_base">
   <rect id="button" ry="5" rx="5" y="6" x="6" height="38" width="38"
        fill="#f2f5e9" fill-opacity="0.5" stroke="#606060" stroke-width="1.0"/>
   <path id="arrow"
     d="M 11.500037,31.436501 C 11.940474,20.09759 22.043105,11.32322 32.158766,21.979434 L 37.068811,17.246167 C 37.068811,17.246167 37.088388,32 37.088388,32 L 22.160133,31.978069 C 22.160133,31.978069 26.997745,27.140456 26.997745,27.140456 C 18.528582,18.264221 13.291696,25.230495 11.500037,31.436501 z"
     style="fill:#404040;"/>
  </a>
 </g>
</svg>

<style type='text/css'>
<![CDATA[
[data-mouse-over-selected='false'] { opacity: 0.7; }
[data-mouse-over-selected='true']  { opacity: 1.0; }
]]>
</style>
<script type="application/ecmascript"><![CDATA[
document.addEventListener('DOMContentLoaded', (event) => {
  highlightEdges();
  highlightAdjacentNodes();
});
]]></script>
</svg>
