<?xml version="1.0" encoding="UTF-8" standalone="no"?>
<!DOCTYPE svg PUBLIC "-//W3C//DTD SVG 1.1//EN"
 "http://www.w3.org/Graphics/SVG/1.1/DTD/svg11.dtd">
<!-- Generated by graphviz version 12.2.0 (20241103.1931)
 -->
<!-- Title: iop/sound/libsd/src/effect.c Pages: 1 -->
<svg width="291pt" height="260pt"
 viewBox="0.00 0.00 290.64 259.50" xmlns="http://www.w3.org/2000/svg" xmlns:xlink="http://www.w3.org/1999/xlink">

<svg id="main" version="1.1" xmlns="http://www.w3.org/2000/svg" xmlns:xlink="http://www.w3.org/1999/xlink" xml:space="preserve">

<style type="text/css"><![CDATA[
.node, .edge {opacity: 0.7;}
.node.selected, .edge.selected {opacity: 1;}
.edge:hover path { stroke: red; }
.edge:hover polygon { stroke: red; fill: red; }
]]></style>
<script type="application/ecmascript" xlink:href="svg.min.js"/>
<svg id="graph" class="graph">
<g id="graph0" class="graph" transform="scale(1 1) rotate(0) translate(4 255.5)">
<title>iop/sound/libsd/src/effect.c</title>
<!-- Node1 -->
<g id="Node000001" class="node">
<title>Node1</title>
<g id="a_Node000001"><a xlink:title=" ">
<polygon fill="#999999" stroke="#666666" points="119.14,-251.5 21.39,-251.5 21.39,-221 119.14,-221 119.14,-251.5"/>
<text text-anchor="start" x="29.39" y="-238" font-family="Helvetica,sans-Serif" font-size="10.00">iop/sound/libsd/src</text>
<text text-anchor="middle" x="70.27" y="-226.75" font-family="Helvetica,sans-Serif" font-size="10.00">/effect.c</text>
</a>
</g>
</g>
<!-- Node2 -->
<g id="Node000002" class="node">
<title>Node2</title>
<g id="a_Node000002"><a xlink:title=" ">
<polygon fill="#e0e0e0" stroke="#999999" points="47.64,-129.75 0.89,-129.75 0.89,-110.5 47.64,-110.5 47.64,-129.75"/>
<text text-anchor="middle" x="24.27" y="-116.25" font-family="Helvetica,sans-Serif" font-size="10.00">types.h</text>
</a>
</g>
</g>
<!-- Node1&#45;&gt;Node2 -->
<g id="edge1_Node000001_Node000002" class="edge">
<title>Node1&#45;&gt;Node2</title>
<g id="a_edge1_Node000001_Node000002"><a xlink:title=" ">
<path fill="none" stroke="#63b8ff" d="M39.54,-220.56C25.77,-212.22 10.94,-200.35 3.27,-185 -4.07,-170.34 2.97,-152.53 10.81,-139.45"/>
<polygon fill="#63b8ff" stroke="#63b8ff" points="13.56,-141.65 16.18,-131.39 7.73,-137.77 13.56,-141.65"/>
</a>
</g>
</g>
<!-- Node3 -->
<g id="Node000003" class="node">
<title>Node3</title>
<g id="a_Node000003"><a xlink:title=" ">
<polygon fill="#e0e0e0" stroke="#999999" points="56.14,-185 12.39,-185 12.39,-165.75 56.14,-165.75 56.14,-185"/>
<text text-anchor="middle" x="34.27" y="-171.5" font-family="Helvetica,sans-Serif" font-size="10.00">libsd.h</text>
</a>
</g>
</g>
<!-- Node1&#45;&gt;Node3 -->
<g id="edge2_Node000001_Node000003" class="edge">
<title>Node1&#45;&gt;Node3</title>
<g id="a_edge2_Node000001_Node000003"><a xlink:title=" ">
<path fill="none" stroke="#63b8ff" d="M61.37,-220.7C56.62,-212.94 50.74,-203.31 45.66,-195.01"/>
<polygon fill="#63b8ff" stroke="#63b8ff" points="48.81,-193.45 40.61,-186.74 42.84,-197.1 48.81,-193.45"/>
</a>
</g>
</g>
<!-- Node4 -->
<g id="Node000004" class="node">
<title>Node4</title>
<g id="a_Node000004"><a xlink:href="spu2regs_8h.html" target="_top" xlink:title=" ">
<polygon fill="white" stroke="#666666" points="137.89,-185 74.64,-185 74.64,-165.75 137.89,-165.75 137.89,-185"/>
<text text-anchor="middle" x="106.27" y="-171.5" font-family="Helvetica,sans-Serif" font-size="10.00">spu2regs.h</text>
</a>
</g>
</g>
<!-- Node1&#45;&gt;Node4 -->
<g id="edge3_Node000001_Node000004" class="edge">
<title>Node1&#45;&gt;Node4</title>
<g id="a_edge3_Node000001_Node000004"><a xlink:title=" ">
<path fill="none" stroke="#63b8ff" d="M79.17,-220.7C83.91,-212.94 89.8,-203.31 94.87,-195.01"/>
<polygon fill="#63b8ff" stroke="#63b8ff" points="97.7,-197.1 99.93,-186.74 91.72,-193.45 97.7,-197.1"/>
</a>
</g>
</g>
<!-- Node5 -->
<g id="Node000005" class="node">
<title>Node5</title>
<g id="a_Node000005"><a xlink:href="sysclib_8h.html" target="_top" xlink:title=" ">
<polygon fill="white" stroke="#666666" points="209.02,-185 155.52,-185 155.52,-165.75 209.02,-165.75 209.02,-185"/>
<text text-anchor="middle" x="182.27" y="-171.5" font-family="Helvetica,sans-Serif" font-size="10.00">sysclib.h</text>
</a>
</g>
</g>
<!-- Node1&#45;&gt;Node5 -->
<g id="edge4_Node000001_Node000005" class="edge">
<title>Node1&#45;&gt;Node5</title>
<g id="a_edge4_Node000001_Node000005"><a xlink:title=" ">
<path fill="none" stroke="#63b8ff" d="M98.24,-220.55C115.62,-211.41 137.86,-199.72 155.1,-190.66"/>
<polygon fill="#63b8ff" stroke="#63b8ff" points="156.53,-193.86 163.75,-186.11 153.27,-187.66 156.53,-193.86"/>
</a>
</g>
</g>
<!-- Node5&#45;&gt;Node2 -->
<g id="edge5_Node000005_Node000002" class="edge">
<title>Node5&#45;&gt;Node2</title>
<g id="a_edge5_Node000005_Node000002"><a xlink:title=" ">
<path fill="none" stroke="#63b8ff" d="M155.46,-165.34C128.88,-156.38 88.03,-142.61 58.98,-132.82"/>
<polygon fill="#63b8ff" stroke="#63b8ff" points="60.12,-129.52 49.53,-129.64 57.89,-136.15 60.12,-129.52"/>
</a>
</g>
</g>
<!-- Node6 -->
<g id="Node000006" class="node">
<title>Node6</title>
<g id="a_Node000006"><a xlink:href="irx_8h.html" target="_top" xlink:title=" ">
<polygon fill="white" stroke="#666666" points="111.89,-129.75 78.64,-129.75 78.64,-110.5 111.89,-110.5 111.89,-129.75"/>
<text text-anchor="middle" x="95.27" y="-116.25" font-family="Helvetica,sans-Serif" font-size="10.00">irx.h</text>
</a>
</g>
</g>
<!-- Node5&#45;&gt;Node6 -->
<g id="edge6_Node000005_Node000006" class="edge">
<title>Node5&#45;&gt;Node6</title>
<g id="a_edge6_Node000005_Node000006"><a xlink:title=" ">
<path fill="none" stroke="#63b8ff" d="M167.51,-165.34C154.38,-157.31 134.94,-145.41 119.53,-135.98"/>
<polygon fill="#63b8ff" stroke="#63b8ff" points="121.74,-133.23 111.39,-130.99 118.09,-139.2 121.74,-133.23"/>
</a>
</g>
</g>
<!-- Node10 -->
<g id="Node000010" class="node">
<title>Node10</title>
<g id="a_Node000010"><a xlink:title=" ">
<polygon fill="#e0e0e0" stroke="#999999" points="180.52,-129.75 130.02,-129.75 130.02,-110.5 180.52,-110.5 180.52,-129.75"/>
<text text-anchor="middle" x="155.27" y="-116.25" font-family="Helvetica,sans-Serif" font-size="10.00">stdarg.h</text>
</a>
</g>
</g>
<!-- Node5&#45;&gt;Node10 -->
<g id="edge10_Node000005_Node000010" class="edge">
<title>Node5&#45;&gt;Node10</title>
<g id="a_edge10_Node000005_Node000010"><a xlink:title=" ">
<path fill="none" stroke="#63b8ff" d="M177.81,-165.58C174.31,-158.69 169.32,-148.84 164.92,-140.16"/>
<polygon fill="#63b8ff" stroke="#63b8ff" points="168.15,-138.8 160.51,-131.46 161.91,-141.96 168.15,-138.8"/>
</a>
</g>
</g>
<!-- Node11 -->
<g id="Node000011" class="node">
<title>Node11</title>
<g id="a_Node000011"><a xlink:href="setjmp_8h.html" target="_top" xlink:title=" ">
<polygon fill="white" stroke="#666666" points="229.64,-74.5 176.89,-74.5 176.89,-55.25 229.64,-55.25 229.64,-74.5"/>
<text text-anchor="middle" x="203.27" y="-61" font-family="Helvetica,sans-Serif" font-size="10.00">setjmp.h</text>
</a>
</g>
</g>
<!-- Node5&#45;&gt;Node11 -->
<g id="edge11_Node000005_Node000011" class="edge">
<title>Node5&#45;&gt;Node11</title>
<g id="a_edge11_Node000005_Node000011"><a xlink:title=" ">
<path fill="none" stroke="#63b8ff" d="M183.98,-165.5C187.32,-148.25 194.76,-109.83 199.36,-86.06"/>
<polygon fill="#63b8ff" stroke="#63b8ff" points="202.77,-86.85 201.24,-76.36 195.9,-85.52 202.77,-86.85"/>
</a>
</g>
</g>
<!-- Node12 -->
<g id="Node000012" class="node">
<title>Node12</title>
<g id="a_Node000012"><a xlink:href="ctype_8h.html" target="_top" xlink:title=" ">
<polygon fill="white" stroke="#666666" points="282.64,-129.75 235.89,-129.75 235.89,-110.5 282.64,-110.5 282.64,-129.75"/>
<text text-anchor="middle" x="259.27" y="-116.25" font-family="Helvetica,sans-Serif" font-size="10.00">ctype.h</text>
</a>
</g>
</g>
<!-- Node5&#45;&gt;Node12 -->
<g id="edge13_Node000005_Node000012" class="edge">
<title>Node5&#45;&gt;Node12</title>
<g id="a_edge13_Node000005_Node000012"><a xlink:title=" ">
<path fill="none" stroke="#63b8ff" d="M195.33,-165.34C206.72,-157.46 223.5,-145.86 237,-136.52"/>
<polygon fill="#63b8ff" stroke="#63b8ff" points="238.66,-139.63 244.9,-131.06 234.68,-133.87 238.66,-139.63"/>
</a>
</g>
</g>
<!-- Node7 -->
<g id="Node000007" class="node">
<title>Node7</title>
<g id="a_Node000007"><a xlink:href="iop_2kernel_2include_2types_8h_source.html" target="_top" xlink:title=" ">
<polygon fill="white" stroke="#666666" points="137.64,-74.5 90.89,-74.5 90.89,-55.25 137.64,-55.25 137.64,-74.5"/>
<text text-anchor="middle" x="114.27" y="-61" font-family="Helvetica,sans-Serif" font-size="10.00">types.h</text>
</a>
</g>
</g>
<!-- Node6&#45;&gt;Node7 -->
<g id="edge7_Node000006_Node000007" class="edge">
<title>Node6&#45;&gt;Node7</title>
<g id="a_edge7_Node000006_Node000007"><a xlink:title=" ">
<path fill="none" stroke="#63b8ff" d="M98.4,-110.33C100.81,-103.59 104.22,-94.02 107.27,-85.49"/>
<polygon fill="#63b8ff" stroke="#63b8ff" points="110.49,-86.88 110.55,-76.28 103.89,-84.53 110.49,-86.88"/>
</a>
</g>
</g>
<!-- Node8 -->
<g id="Node000008" class="node">
<title>Node8</title>
<g id="a_Node000008"><a xlink:title=" ">
<polygon fill="#e0e0e0" stroke="#999999" points="139.52,-19.25 89.02,-19.25 89.02,0 139.52,0 139.52,-19.25"/>
<text text-anchor="middle" x="114.27" y="-5.75" font-family="Helvetica,sans-Serif" font-size="10.00">stddef.h</text>
</a>
</g>
</g>
<!-- Node7&#45;&gt;Node8 -->
<g id="edge8_Node000007_Node000008" class="edge">
<title>Node7&#45;&gt;Node8</title>
<g id="a_edge8_Node000007_Node000008"><a xlink:title=" ">
<path fill="none" stroke="#63b8ff" d="M114.27,-55.08C114.27,-48.57 114.27,-39.42 114.27,-31.12"/>
<polygon fill="#63b8ff" stroke="#63b8ff" points="117.77,-31.12 114.27,-21.12 110.77,-31.12 117.77,-31.12"/>
</a>
</g>
</g>
<!-- Node9 -->
<g id="Node000009" class="node">
<title>Node9</title>
<g id="a_Node000009"><a xlink:href="tamtypes_8h.html" target="_top" xlink:title=" ">
<polygon fill="white" stroke="#666666" points="229.89,-19.25 166.64,-19.25 166.64,0 229.89,0 229.89,-19.25"/>
<text text-anchor="middle" x="198.27" y="-5.75" font-family="Helvetica,sans-Serif" font-size="10.00">tamtypes.h</text>
</a>
</g>
</g>
<!-- Node7&#45;&gt;Node9 -->
<g id="edge9_Node000007_Node000009" class="edge">
<title>Node7&#45;&gt;Node9</title>
<g id="a_edge9_Node000007_Node000009"><a xlink:title=" ">
<path fill="none" stroke="#63b8ff" d="M128.52,-54.84C141.07,-46.89 159.6,-35.14 174.41,-25.75"/>
<polygon fill="#63b8ff" stroke="#63b8ff" points="176.1,-28.82 182.67,-20.51 172.35,-22.91 176.1,-28.82"/>
</a>
</g>
</g>
<!-- Node11&#45;&gt;Node9 -->
<g id="edge12_Node000011_Node000009" class="edge">
<title>Node11&#45;&gt;Node9</title>
<g id="a_edge12_Node000011_Node000009"><a xlink:title=" ">
<path fill="none" stroke="#63b8ff" d="M202.44,-55.08C201.82,-48.49 200.95,-39.21 200.16,-30.82"/>
<polygon fill="#63b8ff" stroke="#63b8ff" points="203.67,-30.75 199.25,-21.12 196.7,-31.4 203.67,-30.75"/>
</a>
</g>
</g>
</g>
</svg>
</svg>

<style type='text/css'>
<![CDATA[
[data-mouse-over-selected='false'] { opacity: 0.7; }
[data-mouse-over-selected='true']  { opacity: 1.0; }
]]>
</style>
<script type="application/ecmascript"><![CDATA[
document.addEventListener('DOMContentLoaded', (event) => {
  highlightEdges();
  highlightAdjacentNodes();
});
]]></script>
</svg>
