<?xml version="1.0" encoding="UTF-8" standalone="no"?>
<!DOCTYPE svg PUBLIC "-//W3C//DTD SVG 1.1//EN"
 "http://www.w3.org/Graphics/SVG/1.1/DTD/svg11.dtd">
<!-- Generated by graphviz version 2.43.0 (0)
 -->
<!-- Title: iop/sound/libsd/src/effect.c Pages: 1 -->
<svg width="316pt" height="263pt"
 viewBox="0.00 0.00 315.83 263.00" xmlns="http://www.w3.org/2000/svg" xmlns:xlink="http://www.w3.org/1999/xlink">
<g id="graph0" class="graph" transform="scale(1 1) rotate(0) translate(4 259)">
<title>iop/sound/libsd/src/effect.c</title>
<polygon fill="white" stroke="transparent" points="-4,4 -4,-259 311.83,-259 311.83,4 -4,4"/>
<!-- Node1 -->
<g id="node1" class="node">
<title>Node1</title>
<g id="a_node1"><a xlink:title=" ">
<polygon fill="#bfbfbf" stroke="black" points="22.83,-224.5 22.83,-254.5 129.83,-254.5 129.83,-224.5 22.83,-224.5"/>
<text text-anchor="start" x="30.83" y="-242.5" font-family="Helvetica,sans-Serif" font-size="10.00">iop/sound/libsd/src</text>
<text text-anchor="middle" x="76.33" y="-231.5" font-family="Helvetica,sans-Serif" font-size="10.00">/effect.c</text>
</a>
</g>
</g>
<!-- Node2 -->
<g id="node2" class="node">
<title>Node2</title>
<g id="a_node2"><a xlink:title=" ">
<polygon fill="white" stroke="#bfbfbf" points="0.83,-112.5 0.83,-131.5 53.83,-131.5 53.83,-112.5 0.83,-112.5"/>
<text text-anchor="middle" x="27.33" y="-119.5" font-family="Helvetica,sans-Serif" font-size="10.00">types.h</text>
</a>
</g>
</g>
<!-- Node1&#45;&gt;Node2 -->
<g id="edge1" class="edge">
<title>Node1&#45;&gt;Node2</title>
<path fill="none" stroke="midnightblue" d="M42.92,-224.34C27.95,-216.09 11.78,-204.11 3.33,-188 -4.83,-172.42 4.16,-153.43 13.38,-140"/>
<polygon fill="midnightblue" stroke="midnightblue" points="16.39,-141.82 19.59,-131.71 10.79,-137.62 16.39,-141.82"/>
</g>
<!-- Node3 -->
<g id="node3" class="node">
<title>Node3</title>
<g id="a_node3"><a xlink:title=" ">
<polygon fill="white" stroke="#bfbfbf" points="12.83,-168.5 12.83,-187.5 61.83,-187.5 61.83,-168.5 12.83,-168.5"/>
<text text-anchor="middle" x="37.33" y="-175.5" font-family="Helvetica,sans-Serif" font-size="10.00">libsd.h</text>
</a>
</g>
</g>
<!-- Node1&#45;&gt;Node3 -->
<g id="edge2" class="edge">
<title>Node1&#45;&gt;Node3</title>
<path fill="none" stroke="midnightblue" d="M67.09,-224.4C61.54,-215.93 54.44,-205.1 48.57,-196.14"/>
<polygon fill="midnightblue" stroke="midnightblue" points="51.42,-194.1 43.01,-187.66 45.56,-197.94 51.42,-194.1"/>
</g>
<!-- Node4 -->
<g id="node4" class="node">
<title>Node4</title>
<g id="a_node4"><a xlink:href="spu2regs_8h.html" target="_top" xlink:title=" ">
<polygon fill="white" stroke="black" points="80.33,-168.5 80.33,-187.5 150.33,-187.5 150.33,-168.5 80.33,-168.5"/>
<text text-anchor="middle" x="115.33" y="-175.5" font-family="Helvetica,sans-Serif" font-size="10.00">spu2regs.h</text>
</a>
</g>
</g>
<!-- Node1&#45;&gt;Node4 -->
<g id="edge3" class="edge">
<title>Node1&#45;&gt;Node4</title>
<path fill="none" stroke="midnightblue" d="M85.58,-224.4C91.13,-215.93 98.23,-205.1 104.1,-196.14"/>
<polygon fill="midnightblue" stroke="midnightblue" points="107.1,-197.94 109.66,-187.66 101.25,-194.1 107.1,-197.94"/>
</g>
<!-- Node5 -->
<g id="node5" class="node">
<title>Node5</title>
<g id="a_node5"><a xlink:href="sysclib_8h.html" target="_top" xlink:title=" ">
<polygon fill="white" stroke="black" points="168.83,-168.5 168.83,-187.5 227.83,-187.5 227.83,-168.5 168.83,-168.5"/>
<text text-anchor="middle" x="198.33" y="-175.5" font-family="Helvetica,sans-Serif" font-size="10.00">sysclib.h</text>
</a>
</g>
</g>
<!-- Node1&#45;&gt;Node5 -->
<g id="edge4" class="edge">
<title>Node1&#45;&gt;Node5</title>
<path fill="none" stroke="midnightblue" d="M105.25,-224.4C125.35,-214.59 151.95,-201.62 171.57,-192.05"/>
<polygon fill="midnightblue" stroke="midnightblue" points="173.13,-195.19 180.58,-187.66 170.06,-188.9 173.13,-195.19"/>
</g>
<!-- Node5&#45;&gt;Node2 -->
<g id="edge5" class="edge">
<title>Node5&#45;&gt;Node2</title>
<path fill="none" stroke="midnightblue" d="M171.24,-168.44C142.26,-159.29 96.14,-144.73 63.94,-134.56"/>
<polygon fill="midnightblue" stroke="midnightblue" points="64.61,-131.1 54.02,-131.43 62.5,-137.78 64.61,-131.1"/>
</g>
<!-- Node6 -->
<g id="node6" class="node">
<title>Node6</title>
<g id="a_node6"><a xlink:href="irx_8h.html" target="_top" xlink:title=" ">
<polygon fill="white" stroke="black" points="86.33,-112.5 86.33,-131.5 124.33,-131.5 124.33,-112.5 86.33,-112.5"/>
<text text-anchor="middle" x="105.33" y="-119.5" font-family="Helvetica,sans-Serif" font-size="10.00">irx.h</text>
</a>
</g>
</g>
<!-- Node5&#45;&gt;Node6 -->
<g id="edge6" class="edge">
<title>Node5&#45;&gt;Node6</title>
<path fill="none" stroke="midnightblue" d="M183.39,-168.32C168.75,-159.82 146.2,-146.73 129.1,-136.8"/>
<polygon fill="midnightblue" stroke="midnightblue" points="130.64,-133.65 120.24,-131.65 127.13,-139.7 130.64,-133.65"/>
</g>
<!-- Node10 -->
<g id="node10" class="node">
<title>Node10</title>
<g id="a_node10"><a xlink:title=" ">
<polygon fill="white" stroke="#bfbfbf" points="142.33,-112.5 142.33,-131.5 198.33,-131.5 198.33,-112.5 142.33,-112.5"/>
<text text-anchor="middle" x="170.33" y="-119.5" font-family="Helvetica,sans-Serif" font-size="10.00">stdarg.h</text>
</a>
</g>
</g>
<!-- Node5&#45;&gt;Node10 -->
<g id="edge10" class="edge">
<title>Node5&#45;&gt;Node10</title>
<path fill="none" stroke="midnightblue" d="M193.71,-168.08C189.88,-160.69 184.31,-149.95 179.57,-140.81"/>
<polygon fill="midnightblue" stroke="midnightblue" points="182.58,-139.02 174.87,-131.75 176.37,-142.24 182.58,-139.02"/>
</g>
<!-- Node11 -->
<g id="node11" class="node">
<title>Node11</title>
<g id="a_node11"><a xlink:href="setjmp_8h.html" target="_top" xlink:title=" ">
<polygon fill="white" stroke="black" points="191.83,-56.5 191.83,-75.5 250.83,-75.5 250.83,-56.5 191.83,-56.5"/>
<text text-anchor="middle" x="221.33" y="-63.5" font-family="Helvetica,sans-Serif" font-size="10.00">setjmp.h</text>
</a>
</g>
</g>
<!-- Node5&#45;&gt;Node11 -->
<g id="edge11" class="edge">
<title>Node5&#45;&gt;Node11</title>
<path fill="none" stroke="midnightblue" d="M200.14,-168.37C203.85,-150.62 212.41,-109.67 217.44,-85.6"/>
<polygon fill="midnightblue" stroke="midnightblue" points="220.92,-86.1 219.54,-75.59 214.06,-84.66 220.92,-86.1"/>
</g>
<!-- Node12 -->
<g id="node12" class="node">
<title>Node12</title>
<g id="a_node12"><a xlink:href="ctype_8h.html" target="_top" xlink:title=" ">
<polygon fill="white" stroke="black" points="254.83,-112.5 254.83,-131.5 307.83,-131.5 307.83,-112.5 254.83,-112.5"/>
<text text-anchor="middle" x="281.33" y="-119.5" font-family="Helvetica,sans-Serif" font-size="10.00">ctype.h</text>
</a>
</g>
</g>
<!-- Node5&#45;&gt;Node12 -->
<g id="edge13" class="edge">
<title>Node5&#45;&gt;Node12</title>
<path fill="none" stroke="midnightblue" d="M211.67,-168.32C224.5,-159.98 244.12,-147.21 259.27,-137.35"/>
<polygon fill="midnightblue" stroke="midnightblue" points="261.56,-140.04 268.03,-131.65 257.74,-134.17 261.56,-140.04"/>
</g>
<!-- Node7 -->
<g id="node7" class="node">
<title>Node7</title>
<g id="a_node7"><a xlink:href="iop_2kernel_2include_2types_8h_source.html" target="_top" xlink:title=" ">
<polygon fill="white" stroke="black" points="97.83,-56.5 97.83,-75.5 150.83,-75.5 150.83,-56.5 97.83,-56.5"/>
<text text-anchor="middle" x="124.33" y="-63.5" font-family="Helvetica,sans-Serif" font-size="10.00">types.h</text>
</a>
</g>
</g>
<!-- Node6&#45;&gt;Node7 -->
<g id="edge7" class="edge">
<title>Node6&#45;&gt;Node7</title>
<path fill="none" stroke="midnightblue" d="M108.47,-112.08C111.02,-104.85 114.69,-94.41 117.86,-85.4"/>
<polygon fill="midnightblue" stroke="midnightblue" points="121.24,-86.35 121.25,-75.75 114.63,-84.02 121.24,-86.35"/>
</g>
<!-- Node8 -->
<g id="node8" class="node">
<title>Node8</title>
<g id="a_node8"><a xlink:title=" ">
<polygon fill="white" stroke="#bfbfbf" points="96.33,-0.5 96.33,-19.5 152.33,-19.5 152.33,-0.5 96.33,-0.5"/>
<text text-anchor="middle" x="124.33" y="-7.5" font-family="Helvetica,sans-Serif" font-size="10.00">stddef.h</text>
</a>
</g>
</g>
<!-- Node7&#45;&gt;Node8 -->
<g id="edge8" class="edge">
<title>Node7&#45;&gt;Node8</title>
<path fill="none" stroke="midnightblue" d="M124.33,-56.08C124.33,-49.01 124.33,-38.86 124.33,-29.99"/>
<polygon fill="midnightblue" stroke="midnightblue" points="127.83,-29.75 124.33,-19.75 120.83,-29.75 127.83,-29.75"/>
</g>
<!-- Node9 -->
<g id="node9" class="node">
<title>Node9</title>
<g id="a_node9"><a xlink:href="tamtypes_8h.html" target="_top" xlink:title=" ">
<polygon fill="white" stroke="black" points="180.33,-0.5 180.33,-19.5 252.33,-19.5 252.33,-0.5 180.33,-0.5"/>
<text text-anchor="middle" x="216.33" y="-7.5" font-family="Helvetica,sans-Serif" font-size="10.00">tamtypes.h</text>
</a>
</g>
</g>
<!-- Node7&#45;&gt;Node9 -->
<g id="edge9" class="edge">
<title>Node7&#45;&gt;Node9</title>
<path fill="none" stroke="midnightblue" d="M139.11,-56.32C153.6,-47.82 175.91,-34.73 192.83,-24.8"/>
<polygon fill="midnightblue" stroke="midnightblue" points="194.74,-27.74 201.59,-19.65 191.19,-21.7 194.74,-27.74"/>
</g>
<!-- Node11&#45;&gt;Node9 -->
<g id="edge12" class="edge">
<title>Node11&#45;&gt;Node9</title>
<path fill="none" stroke="midnightblue" d="M220.51,-56.08C219.85,-49.01 218.91,-38.86 218.09,-29.99"/>
<polygon fill="midnightblue" stroke="midnightblue" points="221.55,-29.39 217.14,-19.75 214.58,-30.03 221.55,-29.39"/>
</g>
</g>
</svg>
