<?xml version="1.0" encoding="UTF-8" standalone="no"?>
<!DOCTYPE svg PUBLIC "-//W3C//DTD SVG 1.1//EN"
 "http://www.w3.org/Graphics/SVG/1.1/DTD/svg11.dtd">
<!-- Generated by graphviz version 9.0.0 (20230911.1827)
 -->
<!-- Title: ee/erl/include/erl.h Pages: 1 -->
<svg width="4667pt" height="94pt"
 viewBox="0.00 0.00 4667.25 93.75" xmlns="http://www.w3.org/2000/svg" xmlns:xlink="http://www.w3.org/1999/xlink">
<g id="graph0" class="graph" transform="scale(1 1) rotate(0) translate(4 89.75)">
<title>ee/erl/include/erl.h</title>
<!-- Node1 -->
<g id="Node000001" class="node">
<title>Node1</title>
<g id="a_Node000001"><a xlink:title=" ">
<polygon fill="#999999" stroke="#666666" points="2523.62,-85.75 2428.88,-85.75 2428.88,-66.5 2523.62,-66.5 2523.62,-85.75"/>
<text text-anchor="middle" x="2476.25" y="-72.25" font-family="Helvetica,sans-Serif" font-size="10.00">ee/erl/include/erl.h</text>
</a>
</g>
</g>
<!-- Node2 -->
<g id="Node000002" class="node">
<title>Node2</title>
<g id="a_Node000002"><a xlink:href="debug_2src_2erl-support_8c_source.html" target="_top" xlink:title=" ">
<polygon fill="white" stroke="#666666" points="128.5,-24.88 0,-24.88 0,-5.63 128.5,-5.63 128.5,-24.88"/>
<text text-anchor="middle" x="64.25" y="-11.38" font-family="Helvetica,sans-Serif" font-size="10.00">ee/debug/src/erl&#45;support.c</text>
</a>
</g>
</g>
<!-- Node1&#45;&gt;Node2 -->
<g id="edge1_Node000001_Node000002" class="edge">
<title>Node1&#45;&gt;Node2</title>
<g id="a_edge1_Node000001_Node000002"><a xlink:title=" ">
<path fill="none" stroke="#63b8ff" d="M2417.26,-75.39C2100.52,-76.59 598.78,-79.57 137.25,-30.5 126.46,-29.35 114.9,-27.42 104.22,-25.35"/>
<polygon fill="#63b8ff" stroke="#63b8ff" points="2416.96,-78.89 2426.94,-75.35 2416.93,-71.89 2416.96,-78.89"/>
</a>
</g>
</g>
<!-- Node3 -->
<g id="Node000003" class="node">
<title>Node3</title>
<g id="a_Node000003"><a xlink:href="dma_2src_2erl-support_8c_source.html" target="_top" xlink:title=" ">
<polygon fill="white" stroke="#666666" points="267.75,-24.88 146.75,-24.88 146.75,-5.63 267.75,-5.63 267.75,-24.88"/>
<text text-anchor="middle" x="207.25" y="-11.38" font-family="Helvetica,sans-Serif" font-size="10.00">ee/dma/src/erl&#45;support.c</text>
</a>
</g>
</g>
<!-- Node1&#45;&gt;Node3 -->
<g id="edge2_Node000001_Node000003" class="edge">
<title>Node1&#45;&gt;Node3</title>
<g id="a_edge2_Node000001_Node000003"><a xlink:title=" ">
<path fill="none" stroke="#63b8ff" d="M2417.37,-75.39C2112.25,-76.55 708.45,-79.1 276.25,-30.5 266.04,-29.35 255.1,-27.42 245.01,-25.35"/>
<polygon fill="#63b8ff" stroke="#63b8ff" points="2417.09,-78.89 2427.08,-75.35 2417.07,-71.89 2417.09,-78.89"/>
</a>
</g>
</g>
<!-- Node4 -->
<g id="Node000004" class="node">
<title>Node4</title>
<g id="a_Node000004"><a xlink:href="draw_2src_2erl-support_8c_source.html" target="_top" xlink:title=" ">
<polygon fill="white" stroke="#666666" points="408.88,-24.88 285.62,-24.88 285.62,-5.63 408.88,-5.63 408.88,-24.88"/>
<text text-anchor="middle" x="347.25" y="-11.38" font-family="Helvetica,sans-Serif" font-size="10.00">ee/draw/src/erl&#45;support.c</text>
</a>
</g>
</g>
<!-- Node1&#45;&gt;Node4 -->
<g id="edge3_Node000001_Node000004" class="edge">
<title>Node1&#45;&gt;Node4</title>
<g id="a_edge3_Node000001_Node000004"><a xlink:title=" ">
<path fill="none" stroke="#63b8ff" d="M2417.45,-75.25C2124.53,-75.66 820.93,-74.92 418.25,-30.5 407.75,-29.34 396.5,-27.41 386.12,-25.34"/>
<polygon fill="#63b8ff" stroke="#63b8ff" points="2417.14,-78.75 2427.13,-75.24 2417.12,-71.75 2417.14,-78.75"/>
</a>
</g>
</g>
<!-- Node5 -->
<g id="Node000005" class="node">
<title>Node5</title>
<g id="a_Node000005"><a xlink:href="eedebug_2src_2erl-support_8c_source.html" target="_top" xlink:title=" ">
<polygon fill="white" stroke="#666666" points="523.38,-30.5 427.12,-30.5 427.12,0 523.38,0 523.38,-30.5"/>
<text text-anchor="start" x="435.12" y="-17" font-family="Helvetica,sans-Serif" font-size="10.00">ee/eedebug/src/erl</text>
<text text-anchor="middle" x="475.25" y="-5.75" font-family="Helvetica,sans-Serif" font-size="10.00">&#45;support.c</text>
</a>
</g>
</g>
<!-- Node1&#45;&gt;Node5 -->
<g id="edge4_Node000001_Node000005" class="edge">
<title>Node1&#45;&gt;Node5</title>
<g id="a_edge4_Node000001_Node000005"><a xlink:title=" ">
<path fill="none" stroke="#63b8ff" d="M2417.2,-74.55C2112.27,-71.48 722.7,-56.17 532.25,-30.5 529.42,-30.12 526.53,-29.65 523.62,-29.12"/>
<polygon fill="#63b8ff" stroke="#63b8ff" points="2416.87,-78.05 2426.91,-74.65 2416.94,-71.05 2416.87,-78.05"/>
</a>
</g>
</g>
<!-- Node6 -->
<g id="Node000006" class="node">
<title>Node6</title>
<g id="a_Node000006"><a xlink:href="erl-loader_8c_source.html" target="_top" xlink:title=" ">
<polygon fill="white" stroke="#666666" points="640.88,-30.5 541.62,-30.5 541.62,0 640.88,0 640.88,-30.5"/>
<text text-anchor="start" x="549.62" y="-17" font-family="Helvetica,sans-Serif" font-size="10.00">ee/erl&#45;loader/src/erl</text>
<text text-anchor="middle" x="591.25" y="-5.75" font-family="Helvetica,sans-Serif" font-size="10.00">&#45;loader.c</text>
</a>
</g>
</g>
<!-- Node1&#45;&gt;Node6 -->
<g id="edge5_Node000001_Node000006" class="edge">
<title>Node1&#45;&gt;Node6</title>
<g id="a_edge5_Node000001_Node000006"><a xlink:title=" ">
<path fill="none" stroke="#63b8ff" d="M2417.55,-75.4C2145.18,-76.41 1002.89,-77.69 649.25,-30.5 646.58,-30.14 643.85,-29.71 641.11,-29.23"/>
<polygon fill="#63b8ff" stroke="#63b8ff" points="2417.24,-78.9 2427.23,-75.36 2417.22,-71.9 2417.24,-78.9"/>
</a>
</g>
</g>
<!-- Node7 -->
<g id="Node000007" class="node">
<title>Node7</title>
<g id="a_Node000007"><a xlink:href="erl_8c.html" target="_top" xlink:title=" ">
<polygon fill="white" stroke="#666666" points="736,-24.88 658.5,-24.88 658.5,-5.63 736,-5.63 736,-24.88"/>
<text text-anchor="middle" x="697.25" y="-11.38" font-family="Helvetica,sans-Serif" font-size="10.00">ee/erl/src/erl.c</text>
</a>
</g>
</g>
<!-- Node1&#45;&gt;Node7 -->
<g id="edge6_Node000001_Node000007" class="edge">
<title>Node1&#45;&gt;Node7</title>
<g id="a_edge6_Node000001_Node000007"><a xlink:title=" ">
<path fill="none" stroke="#63b8ff" d="M2417.39,-74.53C2133.55,-71.51 913,-57.09 745.25,-30.5 738.04,-29.36 730.39,-27.43 723.37,-25.36"/>
<polygon fill="#63b8ff" stroke="#63b8ff" points="2417.1,-78.02 2427.13,-74.63 2417.17,-71.02 2417.1,-78.02"/>
</a>
</g>
</g>
<!-- Node8 -->
<g id="Node000008" class="node">
<title>Node8</title>
<g id="a_Node000008"><a xlink:href="font_2src_2erl-support_8c_source.html" target="_top" xlink:title=" ">
<polygon fill="white" stroke="#666666" points="872.62,-24.88 753.88,-24.88 753.88,-5.63 872.62,-5.63 872.62,-24.88"/>
<text text-anchor="middle" x="813.25" y="-11.38" font-family="Helvetica,sans-Serif" font-size="10.00">ee/font/src/erl&#45;support.c</text>
</a>
</g>
</g>
<!-- Node1&#45;&gt;Node8 -->
<g id="edge7_Node000001_Node000008" class="edge">
<title>Node1&#45;&gt;Node8</title>
<g id="a_edge7_Node000001_Node000008"><a xlink:title=" ">
<path fill="none" stroke="#63b8ff" d="M2417.12,-74.86C2166.16,-73.52 1188.13,-66.09 882.25,-30.5 872.17,-29.33 861.37,-27.42 851.38,-25.37"/>
<polygon fill="#63b8ff" stroke="#63b8ff" points="2416.98,-78.36 2427,-74.91 2417.02,-71.36 2416.98,-78.36"/>
</a>
</g>
</g>
<!-- Node9 -->
<g id="Node000009" class="node">
<title>Node9</title>
<g id="a_Node000009"><a xlink:href="graph_2src_2erl-support_8c_source.html" target="_top" xlink:title=" ">
<polygon fill="white" stroke="#666666" points="1017.38,-24.88 891.12,-24.88 891.12,-5.63 1017.38,-5.63 1017.38,-24.88"/>
<text text-anchor="middle" x="954.25" y="-11.38" font-family="Helvetica,sans-Serif" font-size="10.00">ee/graph/src/erl&#45;support.c</text>
</a>
</g>
</g>
<!-- Node1&#45;&gt;Node9 -->
<g id="edge8_Node000001_Node000009" class="edge">
<title>Node1&#45;&gt;Node9</title>
<g id="a_edge8_Node000001_Node000009"><a xlink:title=" ">
<path fill="none" stroke="#63b8ff" d="M2417.13,-74.6C2180.67,-72.32 1302.49,-61.87 1026.25,-30.5 1015.74,-29.31 1004.48,-27.39 994.05,-25.34"/>
<polygon fill="#63b8ff" stroke="#63b8ff" points="2417,-78.1 2427.04,-74.7 2417.07,-71.1 2417,-78.1"/>
</a>
</g>
</g>
<!-- Node10 -->
<g id="Node000010" class="node">
<title>Node10</title>
<g id="a_Node000010"><a xlink:href="input_2src_2erl-support_8c_source.html" target="_top" xlink:title=" ">
<polygon fill="white" stroke="#666666" points="1158.88,-24.88 1035.62,-24.88 1035.62,-5.63 1158.88,-5.63 1158.88,-24.88"/>
<text text-anchor="middle" x="1097.25" y="-11.38" font-family="Helvetica,sans-Serif" font-size="10.00">ee/input/src/erl&#45;support.c</text>
</a>
</g>
</g>
<!-- Node1&#45;&gt;Node10 -->
<g id="edge9_Node000001_Node000010" class="edge">
<title>Node1&#45;&gt;Node10</title>
<g id="a_edge9_Node000001_Node000010"><a xlink:title=" ">
<path fill="none" stroke="#63b8ff" d="M2417.12,-74.42C2195.51,-71.57 1414.34,-59.66 1167.25,-30.5 1157.03,-29.29 1146.08,-27.37 1135.94,-25.32"/>
<polygon fill="#63b8ff" stroke="#63b8ff" points="2416.91,-77.92 2426.95,-74.54 2417,-70.92 2416.91,-77.92"/>
</a>
</g>
</g>
<!-- Node11 -->
<g id="Node000011" class="node">
<title>Node11</title>
<g id="a_Node000011"><a xlink:href="iopreboot_2src_2erl-support_8c_source.html" target="_top" xlink:title=" ">
<polygon fill="white" stroke="#666666" points="1275.88,-30.5 1176.62,-30.5 1176.62,0 1275.88,0 1275.88,-30.5"/>
<text text-anchor="start" x="1184.62" y="-17" font-family="Helvetica,sans-Serif" font-size="10.00">ee/iopreboot/src/erl</text>
<text text-anchor="middle" x="1226.25" y="-5.75" font-family="Helvetica,sans-Serif" font-size="10.00">&#45;support.c</text>
</a>
</g>
</g>
<!-- Node1&#45;&gt;Node11 -->
<g id="edge10_Node000001_Node000011" class="edge">
<title>Node1&#45;&gt;Node11</title>
<g id="a_edge10_Node000001_Node000011"><a xlink:title=" ">
<path fill="none" stroke="#63b8ff" d="M2417.3,-74.47C2208.91,-71.92 1507.67,-61.21 1285.25,-30.5 1282.33,-30.1 1279.34,-29.61 1276.33,-29.07"/>
<polygon fill="#63b8ff" stroke="#63b8ff" points="2417.02,-77.97 2427.07,-74.59 2417.11,-70.97 2417.02,-77.97"/>
</a>
</g>
</g>
<!-- Node12 -->
<g id="Node000012" class="node">
<title>Node12</title>
<g id="a_Node000012"><a xlink:href="kernel_2src_2erl-support_8c_source.html" target="_top" xlink:title=" ">
<polygon fill="white" stroke="#666666" points="1422.5,-24.88 1294,-24.88 1294,-5.63 1422.5,-5.63 1422.5,-24.88"/>
<text text-anchor="middle" x="1358.25" y="-11.38" font-family="Helvetica,sans-Serif" font-size="10.00">ee/kernel/src/erl&#45;support.c</text>
</a>
</g>
</g>
<!-- Node1&#45;&gt;Node12 -->
<g id="edge11_Node000001_Node000012" class="edge">
<title>Node1&#45;&gt;Node12</title>
<g id="a_edge11_Node000001_Node000012"><a xlink:title=" ">
<path fill="none" stroke="#63b8ff" d="M2417.02,-75.64C2257.39,-76.38 1805.14,-74.13 1432.25,-30.5 1421.59,-29.25 1410.17,-27.34 1399.57,-25.32"/>
<polygon fill="#63b8ff" stroke="#63b8ff" points="2416.95,-79.14 2426.93,-75.59 2416.91,-72.14 2416.95,-79.14"/>
</a>
</g>
</g>
<!-- Node13 -->
<g id="Node000013" class="node">
<title>Node13</title>
<g id="a_Node000013"><a xlink:href="libgs_2src_2erl-support_8c_source.html" target="_top" xlink:title=" ">
<polygon fill="white" stroke="#666666" points="1563.5,-24.88 1441,-24.88 1441,-5.63 1563.5,-5.63 1563.5,-24.88"/>
<text text-anchor="middle" x="1502.25" y="-11.38" font-family="Helvetica,sans-Serif" font-size="10.00">ee/libgs/src/erl&#45;support.c</text>
</a>
</g>
</g>
<!-- Node1&#45;&gt;Node13 -->
<g id="edge12_Node000001_Node000013" class="edge">
<title>Node1&#45;&gt;Node13</title>
<g id="a_edge12_Node000001_Node000013"><a xlink:title=" ">
<path fill="none" stroke="#63b8ff" d="M2417.27,-75.3C2272.66,-75.05 1889.13,-70.34 1572.25,-30.5 1562.28,-29.25 1551.62,-27.36 1541.69,-25.37"/>
<polygon fill="#63b8ff" stroke="#63b8ff" points="2416.97,-78.8 2426.98,-75.31 2416.98,-71.8 2416.97,-78.8"/>
</a>
</g>
</g>
<!-- Node14 -->
<g id="Node000014" class="node">
<title>Node14</title>
<g id="a_Node000014"><a xlink:href="libvux_2src_2erl-support_8c_source.html" target="_top" xlink:title=" ">
<polygon fill="white" stroke="#666666" points="1708.75,-24.88 1581.75,-24.88 1581.75,-5.63 1708.75,-5.63 1708.75,-24.88"/>
<text text-anchor="middle" x="1645.25" y="-11.38" font-family="Helvetica,sans-Serif" font-size="10.00">ee/libvux/src/erl&#45;support.c</text>
</a>
</g>
</g>
<!-- Node1&#45;&gt;Node14 -->
<g id="edge13_Node000001_Node000014" class="edge">
<title>Node1&#45;&gt;Node14</title>
<g id="a_edge13_Node000001_Node000014"><a xlink:title=" ">
<path fill="none" stroke="#63b8ff" d="M2417.16,-74.34C2289.24,-72.04 1977.29,-63.26 1718.25,-30.5 1708,-29.2 1697.03,-27.33 1686.79,-25.36"/>
<polygon fill="#63b8ff" stroke="#63b8ff" points="2417.02,-77.83 2427.08,-74.51 2417.14,-70.84 2417.02,-77.83"/>
</a>
</g>
</g>
<!-- Node15 -->
<g id="Node000015" class="node">
<title>Node15</title>
<g id="a_Node000015"><a xlink:href="math3d_2src_2erl-support_8c_source.html" target="_top" xlink:title=" ">
<polygon fill="white" stroke="#666666" points="1861.5,-24.88 1727,-24.88 1727,-5.63 1861.5,-5.63 1861.5,-24.88"/>
<text text-anchor="middle" x="1794.25" y="-11.38" font-family="Helvetica,sans-Serif" font-size="10.00">ee/math3d/src/erl&#45;support.c</text>
</a>
</g>
</g>
<!-- Node1&#45;&gt;Node15 -->
<g id="edge14_Node000001_Node000015" class="edge">
<title>Node1&#45;&gt;Node15</title>
<g id="a_edge14_Node000001_Node000015"><a xlink:title=" ">
<path fill="none" stroke="#63b8ff" d="M2417.18,-72.97C2308.54,-68.52 2069.85,-56.48 1870.25,-30.5 1859.73,-29.13 1848.47,-27.25 1837.92,-25.3"/>
<polygon fill="#63b8ff" stroke="#63b8ff" points="2416.89,-76.46 2427.02,-73.37 2417.17,-69.47 2416.89,-76.46"/>
</a>
</g>
</g>
<!-- Node16 -->
<g id="Node000016" class="node">
<title>Node16</title>
<g id="a_Node000016"><a xlink:href="mpeg_2src_2erl-support_8c_source.html" target="_top" xlink:title=" ">
<polygon fill="white" stroke="#666666" points="2005.38,-24.88 1879.12,-24.88 1879.12,-5.63 2005.38,-5.63 2005.38,-24.88"/>
<text text-anchor="middle" x="1942.25" y="-11.38" font-family="Helvetica,sans-Serif" font-size="10.00">ee/mpeg/src/erl&#45;support.c</text>
</a>
</g>
</g>
<!-- Node1&#45;&gt;Node16 -->
<g id="edge15_Node000001_Node000016" class="edge">
<title>Node1&#45;&gt;Node16</title>
<g id="a_edge15_Node000001_Node000016"><a xlink:title=" ">
<path fill="none" stroke="#63b8ff" d="M2417.15,-71.3C2329.07,-65.17 2158.27,-51.65 2014.25,-30.5 2004.54,-29.07 1994.16,-27.22 1984.39,-25.32"/>
<polygon fill="#63b8ff" stroke="#63b8ff" points="2416.78,-74.78 2427,-71.98 2417.26,-67.8 2416.78,-74.78"/>
</a>
</g>
</g>
<!-- Node17 -->
<g id="Node000017" class="node">
<title>Node17</title>
<g id="a_Node000017"><a xlink:href="network_2netman_2src_2erl-support_8c_source.html" target="_top" xlink:title=" ">
<polygon fill="white" stroke="#666666" points="2139.12,-30.5 2023.38,-30.5 2023.38,0 2139.12,0 2139.12,-30.5"/>
<text text-anchor="start" x="2031.38" y="-17" font-family="Helvetica,sans-Serif" font-size="10.00">ee/network/netman/src</text>
<text text-anchor="middle" x="2081.25" y="-5.75" font-family="Helvetica,sans-Serif" font-size="10.00">/erl&#45;support.c</text>
</a>
</g>
</g>
<!-- Node1&#45;&gt;Node17 -->
<g id="edge16_Node000001_Node000017" class="edge">
<title>Node1&#45;&gt;Node17</title>
<g id="a_edge16_Node000001_Node000017"><a xlink:title=" ">
<path fill="none" stroke="#63b8ff" d="M2417.18,-68.43C2351.35,-60.66 2241.85,-46.8 2148.25,-30.5 2145.32,-29.99 2142.33,-29.44 2139.3,-28.87"/>
<polygon fill="#63b8ff" stroke="#63b8ff" points="2416.71,-71.9 2427.05,-69.59 2417.52,-64.95 2416.71,-71.9"/>
</a>
</g>
</g>
<!-- Node18 -->
<g id="Node000018" class="node">
<title>Node18</title>
<g id="a_Node000018"><a xlink:href="network_2tcpip_2src_2erl-support_8c_source.html" target="_top" xlink:title=" ">
<polygon fill="white" stroke="#666666" points="2261.5,-30.5 2157,-30.5 2157,0 2261.5,0 2261.5,-30.5"/>
<text text-anchor="start" x="2165" y="-17" font-family="Helvetica,sans-Serif" font-size="10.00">ee/network/tcpip/src</text>
<text text-anchor="middle" x="2209.25" y="-5.75" font-family="Helvetica,sans-Serif" font-size="10.00">/erl&#45;support.c</text>
</a>
</g>
</g>
<!-- Node1&#45;&gt;Node18 -->
<g id="edge17_Node000001_Node000018" class="edge">
<title>Node1&#45;&gt;Node18</title>
<g id="a_edge17_Node000001_Node000018"><a xlink:title=" ">
<path fill="none" stroke="#63b8ff" d="M2421.95,-63.61C2380.38,-54.74 2321.65,-42.07 2270.25,-30.5 2267.49,-29.88 2264.66,-29.24 2261.81,-28.59"/>
<polygon fill="#63b8ff" stroke="#63b8ff" points="2421.21,-67.03 2431.72,-65.7 2422.67,-60.19 2421.21,-67.03"/>
</a>
</g>
</g>
<!-- Node19 -->
<g id="Node000019" class="node">
<title>Node19</title>
<g id="a_Node000019"><a xlink:href="packet_2src_2erl-support_8c_source.html" target="_top" xlink:title=" ">
<polygon fill="white" stroke="#666666" points="2411,-24.88 2279.5,-24.88 2279.5,-5.63 2411,-5.63 2411,-24.88"/>
<text text-anchor="middle" x="2345.25" y="-11.38" font-family="Helvetica,sans-Serif" font-size="10.00">ee/packet/src/erl&#45;support.c</text>
</a>
</g>
</g>
<!-- Node1&#45;&gt;Node19 -->
<g id="edge18_Node000001_Node000019" class="edge">
<title>Node1&#45;&gt;Node19</title>
<g id="a_edge18_Node000001_Node000019"><a xlink:title=" ">
<path fill="none" stroke="#63b8ff" d="M2445.75,-61.42C2420.95,-50.27 2386.67,-34.87 2365.24,-25.23"/>
<polygon fill="#63b8ff" stroke="#63b8ff" points="2444.13,-64.53 2454.69,-65.43 2447,-58.14 2444.13,-64.53"/>
</a>
</g>
</g>
<!-- Node20 -->
<g id="Node000020" class="node">
<title>Node20</title>
<g id="a_Node000020"><a xlink:href="packet2_2src_2erl-support_8c_source.html" target="_top" xlink:title=" ">
<polygon fill="white" stroke="#666666" points="2523.25,-30.5 2429.25,-30.5 2429.25,0 2523.25,0 2523.25,-30.5"/>
<text text-anchor="start" x="2437.25" y="-17" font-family="Helvetica,sans-Serif" font-size="10.00">ee/packet2/src/erl</text>
<text text-anchor="middle" x="2476.25" y="-5.75" font-family="Helvetica,sans-Serif" font-size="10.00">&#45;support.c</text>
</a>
</g>
</g>
<!-- Node1&#45;&gt;Node20 -->
<g id="edge19_Node000001_Node000020" class="edge">
<title>Node1&#45;&gt;Node20</title>
<g id="a_edge19_Node000001_Node000020"><a xlink:title=" ">
<path fill="none" stroke="#63b8ff" d="M2476.25,-54.92C2476.25,-46.99 2476.25,-38.06 2476.25,-30.78"/>
<polygon fill="#63b8ff" stroke="#63b8ff" points="2472.75,-54.67 2476.25,-64.67 2479.75,-54.67 2472.75,-54.67"/>
</a>
</g>
</g>
<!-- Node21 -->
<g id="Node000021" class="node">
<title>Node21</title>
<g id="a_Node000021"><a xlink:href="rpc_2ahx_2src_2erl-support_8c_source.html" target="_top" xlink:title=" ">
<polygon fill="white" stroke="#666666" points="2632.75,-30.5 2541.75,-30.5 2541.75,0 2632.75,0 2632.75,-30.5"/>
<text text-anchor="start" x="2549.75" y="-17" font-family="Helvetica,sans-Serif" font-size="10.00">ee/rpc/ahx/src/erl</text>
<text text-anchor="middle" x="2587.25" y="-5.75" font-family="Helvetica,sans-Serif" font-size="10.00">&#45;support.c</text>
</a>
</g>
</g>
<!-- Node1&#45;&gt;Node21 -->
<g id="edge20_Node000001_Node000021" class="edge">
<title>Node1&#45;&gt;Node21</title>
<g id="a_edge20_Node000001_Node000021"><a xlink:title=" ">
<path fill="none" stroke="#63b8ff" d="M2503.07,-60.9C2520.27,-51.77 2542.54,-39.96 2559.85,-30.78"/>
<polygon fill="#63b8ff" stroke="#63b8ff" points="2501.64,-57.7 2494.45,-65.47 2504.92,-63.88 2501.64,-57.7"/>
</a>
</g>
</g>
<!-- Node22 -->
<g id="Node000022" class="node">
<title>Node22</title>
<g id="a_Node000022"><a xlink:href="rpc_2audsrv_2src_2erl-support_8c_source.html" target="_top" xlink:title=" ">
<polygon fill="white" stroke="#666666" points="2755.88,-30.5 2650.62,-30.5 2650.62,0 2755.88,0 2755.88,-30.5"/>
<text text-anchor="start" x="2658.62" y="-17" font-family="Helvetica,sans-Serif" font-size="10.00">ee/rpc/audsrv/src/erl</text>
<text text-anchor="middle" x="2703.25" y="-5.75" font-family="Helvetica,sans-Serif" font-size="10.00">&#45;support.c</text>
</a>
</g>
</g>
<!-- Node1&#45;&gt;Node22 -->
<g id="edge21_Node000001_Node000022" class="edge">
<title>Node1&#45;&gt;Node22</title>
<g id="a_edge21_Node000001_Node000022"><a xlink:title=" ">
<path fill="none" stroke="#63b8ff" d="M2522.23,-63.2C2559.37,-53.57 2611.67,-40 2650.51,-29.93"/>
<polygon fill="#63b8ff" stroke="#63b8ff" points="2521.49,-59.78 2512.69,-65.67 2523.24,-66.55 2521.49,-59.78"/>
</a>
</g>
</g>
<!-- Node23 -->
<g id="Node000023" class="node">
<title>Node23</title>
<g id="a_Node000023"><a xlink:href="rpc_2camera_2src_2erl-support_8c_source.html" target="_top" xlink:title=" ">
<polygon fill="white" stroke="#666666" points="2882.38,-30.5 2774.12,-30.5 2774.12,0 2882.38,0 2882.38,-30.5"/>
<text text-anchor="start" x="2782.12" y="-17" font-family="Helvetica,sans-Serif" font-size="10.00">ee/rpc/camera/src/erl</text>
<text text-anchor="middle" x="2828.25" y="-5.75" font-family="Helvetica,sans-Serif" font-size="10.00">&#45;support.c</text>
</a>
</g>
</g>
<!-- Node1&#45;&gt;Node23 -->
<g id="edge22_Node000001_Node000023" class="edge">
<title>Node1&#45;&gt;Node23</title>
<g id="a_edge22_Node000001_Node000023"><a xlink:title=" ">
<path fill="none" stroke="#63b8ff" d="M2535.23,-67.24C2593.78,-59.12 2685.99,-45.56 2765.25,-30.5 2768,-29.98 2770.82,-29.42 2773.66,-28.84"/>
<polygon fill="#63b8ff" stroke="#63b8ff" points="2534.91,-63.75 2525.48,-68.58 2535.87,-70.68 2534.91,-63.75"/>
</a>
</g>
</g>
<!-- Node24 -->
<g id="Node000024" class="node">
<title>Node24</title>
<g id="a_Node000024"><a xlink:href="rpc_2cdvd_2src_2erl-support_8c_source.html" target="_top" xlink:title=" ">
<polygon fill="white" stroke="#666666" points="2997.75,-30.5 2900.75,-30.5 2900.75,0 2997.75,0 2997.75,-30.5"/>
<text text-anchor="start" x="2908.75" y="-17" font-family="Helvetica,sans-Serif" font-size="10.00">ee/rpc/cdvd/src/erl</text>
<text text-anchor="middle" x="2949.25" y="-5.75" font-family="Helvetica,sans-Serif" font-size="10.00">&#45;support.c</text>
</a>
</g>
</g>
<!-- Node1&#45;&gt;Node24 -->
<g id="edge23_Node000001_Node000024" class="edge">
<title>Node1&#45;&gt;Node24</title>
<g id="a_edge23_Node000001_Node000024"><a xlink:title=" ">
<path fill="none" stroke="#63b8ff" d="M2535.25,-71.28C2616.04,-65.44 2765.41,-52.62 2891.25,-30.5 2894.21,-29.98 2897.25,-29.39 2900.3,-28.76"/>
<polygon fill="#63b8ff" stroke="#63b8ff" points="2535.08,-67.78 2525.35,-71.98 2535.57,-74.76 2535.08,-67.78"/>
</a>
</g>
</g>
<!-- Node25 -->
<g id="Node000025" class="node">
<title>Node25</title>
<g id="a_Node000025"><a xlink:href="rpc_2filexio_2src_2erl-support_8c_source.html" target="_top" xlink:title=" ">
<polygon fill="white" stroke="#666666" points="3102.5,-30.5 3016,-30.5 3016,0 3102.5,0 3102.5,-30.5"/>
<text text-anchor="start" x="3024" y="-17" font-family="Helvetica,sans-Serif" font-size="10.00">ee/rpc/filexio/src</text>
<text text-anchor="middle" x="3059.25" y="-5.75" font-family="Helvetica,sans-Serif" font-size="10.00">/erl&#45;support.c</text>
</a>
</g>
</g>
<!-- Node1&#45;&gt;Node25 -->
<g id="edge24_Node000001_Node000025" class="edge">
<title>Node1&#45;&gt;Node25</title>
<g id="a_edge24_Node000001_Node000025"><a xlink:title=" ">
<path fill="none" stroke="#63b8ff" d="M2535.35,-73.69C2633.89,-70.52 2837.66,-60.6 3007.25,-30.5 3010.01,-30.01 3012.85,-29.44 3015.69,-28.81"/>
<polygon fill="#63b8ff" stroke="#63b8ff" points="2535.27,-70.2 2525.38,-74 2535.48,-77.19 2535.27,-70.2"/>
</a>
</g>
</g>
<!-- Node26 -->
<g id="Node000026" class="node">
<title>Node26</title>
<g id="a_Node000026"><a xlink:href="rpc_2hdd_2src_2erl-support_8c_source.html" target="_top" xlink:title=" ">
<polygon fill="white" stroke="#666666" points="3212.12,-30.5 3120.38,-30.5 3120.38,0 3212.12,0 3212.12,-30.5"/>
<text text-anchor="start" x="3128.38" y="-17" font-family="Helvetica,sans-Serif" font-size="10.00">ee/rpc/hdd/src/erl</text>
<text text-anchor="middle" x="3166.25" y="-5.75" font-family="Helvetica,sans-Serif" font-size="10.00">&#45;support.c</text>
</a>
</g>
</g>
<!-- Node1&#45;&gt;Node26 -->
<g id="edge25_Node000001_Node000026" class="edge">
<title>Node1&#45;&gt;Node26</title>
<g id="a_edge25_Node000001_Node000026"><a xlink:title=" ">
<path fill="none" stroke="#63b8ff" d="M2535.43,-74.58C2648.2,-72.73 2901.35,-64.77 3111.25,-30.5 3114.17,-30.02 3117.16,-29.46 3120.17,-28.84"/>
<polygon fill="#63b8ff" stroke="#63b8ff" points="2535.45,-71.07 2525.5,-74.73 2535.56,-78.07 2535.45,-71.07"/>
</a>
</g>
</g>
<!-- Node27 -->
<g id="Node000027" class="node">
<title>Node27</title>
<g id="a_Node000027"><a xlink:href="rpc_2keyboard_2src_2erl-support_8c_source.html" target="_top" xlink:title=" ">
<polygon fill="white" stroke="#666666" points="3332,-30.5 3230.5,-30.5 3230.5,0 3332,0 3332,-30.5"/>
<text text-anchor="start" x="3238.5" y="-17" font-family="Helvetica,sans-Serif" font-size="10.00">ee/rpc/keyboard/src</text>
<text text-anchor="middle" x="3281.25" y="-5.75" font-family="Helvetica,sans-Serif" font-size="10.00">/erl&#45;support.c</text>
</a>
</g>
</g>
<!-- Node1&#45;&gt;Node27 -->
<g id="edge26_Node000001_Node000027" class="edge">
<title>Node1&#45;&gt;Node27</title>
<g id="a_edge26_Node000001_Node000027"><a xlink:title=" ">
<path fill="none" stroke="#63b8ff" d="M2535.36,-75.05C2661.88,-74.14 2967.98,-67.87 3221.25,-30.5 3224.22,-30.06 3227.25,-29.55 3230.3,-28.98"/>
<polygon fill="#63b8ff" stroke="#63b8ff" points="2535.54,-71.55 2525.56,-75.11 2535.58,-78.55 2535.54,-71.55"/>
</a>
</g>
</g>
<!-- Node28 -->
<g id="Node000028" class="node">
<title>Node28</title>
<g id="a_Node000028"><a xlink:href="rpc_2memorycard_2src_2erl-support_8c_source.html" target="_top" xlink:title=" ">
<polygon fill="white" stroke="#666666" points="3466.12,-30.5 3350.38,-30.5 3350.38,0 3466.12,0 3466.12,-30.5"/>
<text text-anchor="start" x="3358.38" y="-17" font-family="Helvetica,sans-Serif" font-size="10.00">ee/rpc/memorycard/src</text>
<text text-anchor="middle" x="3408.25" y="-5.75" font-family="Helvetica,sans-Serif" font-size="10.00">/erl&#45;support.c</text>
</a>
</g>
</g>
<!-- Node1&#45;&gt;Node28 -->
<g id="edge27_Node000001_Node000028" class="edge">
<title>Node1&#45;&gt;Node28</title>
<g id="a_edge27_Node000001_Node000028"><a xlink:title=" ">
<path fill="none" stroke="#63b8ff" d="M2535.13,-75.28C2675.38,-74.97 3039.98,-70.06 3341.25,-30.5 3344.08,-30.13 3346.97,-29.7 3349.88,-29.23"/>
<polygon fill="#63b8ff" stroke="#63b8ff" points="2535.35,-71.78 2525.35,-75.3 2535.36,-78.78 2535.35,-71.78"/>
</a>
</g>
</g>
<!-- Node29 -->
<g id="Node000029" class="node">
<title>Node29</title>
<g id="a_Node000029"><a xlink:href="rpc_2mouse_2src_2erl-support_8c_source.html" target="_top" xlink:title=" ">
<polygon fill="white" stroke="#666666" points="3589.88,-30.5 3484.62,-30.5 3484.62,0 3589.88,0 3589.88,-30.5"/>
<text text-anchor="start" x="3492.62" y="-17" font-family="Helvetica,sans-Serif" font-size="10.00">ee/rpc/mouse/src/erl</text>
<text text-anchor="middle" x="3537.25" y="-5.75" font-family="Helvetica,sans-Serif" font-size="10.00">&#45;support.c</text>
</a>
</g>
</g>
<!-- Node1&#45;&gt;Node29 -->
<g id="edge28_Node000001_Node000029" class="edge">
<title>Node1&#45;&gt;Node29</title>
<g id="a_edge28_Node000001_Node000029"><a xlink:title=" ">
<path fill="none" stroke="#63b8ff" d="M2535.36,-73.89C2721.17,-69.79 3291.89,-55.46 3475.25,-30.5 3478.2,-30.1 3481.23,-29.62 3484.27,-29.09"/>
<polygon fill="#63b8ff" stroke="#63b8ff" points="2535.38,-70.39 2525.46,-74.11 2535.54,-77.39 2535.38,-70.39"/>
</a>
</g>
</g>
<!-- Node30 -->
<g id="Node000030" class="node">
<title>Node30</title>
<g id="a_Node000030"><a xlink:href="rpc_2multitap_2src_2erl-support_8c_source.html" target="_top" xlink:title=" ">
<polygon fill="white" stroke="#666666" points="3704.75,-30.5 3607.75,-30.5 3607.75,0 3704.75,0 3704.75,-30.5"/>
<text text-anchor="start" x="3615.75" y="-17" font-family="Helvetica,sans-Serif" font-size="10.00">ee/rpc/multitap/src</text>
<text text-anchor="middle" x="3656.25" y="-5.75" font-family="Helvetica,sans-Serif" font-size="10.00">/erl&#45;support.c</text>
</a>
</g>
</g>
<!-- Node1&#45;&gt;Node30 -->
<g id="edge29_Node000001_Node000030" class="edge">
<title>Node1&#45;&gt;Node30</title>
<g id="a_edge29_Node000001_Node000030"><a xlink:title=" ">
<path fill="none" stroke="#63b8ff" d="M2535.48,-74.38C2736.39,-71.58 3390.94,-60.35 3599.25,-30.5 3601.88,-30.12 3604.56,-29.68 3607.25,-29.18"/>
<polygon fill="#63b8ff" stroke="#63b8ff" points="2535.49,-70.87 2525.54,-74.51 2535.58,-77.87 2535.49,-70.87"/>
</a>
</g>
</g>
<!-- Node31 -->
<g id="Node000031" class="node">
<title>Node31</title>
<g id="a_Node000031"><a xlink:href="rpc_2pad_2src_2erl-support_8c_source.html" target="_top" xlink:title=" ">
<polygon fill="white" stroke="#666666" points="3814.12,-30.5 3722.38,-30.5 3722.38,0 3814.12,0 3814.12,-30.5"/>
<text text-anchor="start" x="3730.38" y="-17" font-family="Helvetica,sans-Serif" font-size="10.00">ee/rpc/pad/src/erl</text>
<text text-anchor="middle" x="3768.25" y="-5.75" font-family="Helvetica,sans-Serif" font-size="10.00">&#45;support.c</text>
</a>
</g>
</g>
<!-- Node1&#45;&gt;Node31 -->
<g id="edge30_Node000001_Node000031" class="edge">
<title>Node1&#45;&gt;Node31</title>
<g id="a_edge30_Node000001_Node000031"><a xlink:title=" ">
<path fill="none" stroke="#63b8ff" d="M2535.05,-74.73C2748.56,-73.05 3482.49,-64.82 3714.25,-30.5 3716.84,-30.12 3719.48,-29.66 3722.14,-29.14"/>
<polygon fill="#63b8ff" stroke="#63b8ff" points="2535.28,-71.23 2525.31,-74.81 2535.34,-78.23 2535.28,-71.23"/>
</a>
</g>
</g>
<!-- Node32 -->
<g id="Node000032" class="node">
<title>Node32</title>
<g id="a_Node000032"><a xlink:href="rpc_2poweroff_2src_2erl-support_8c_source.html" target="_top" xlink:title=" ">
<polygon fill="white" stroke="#666666" points="3931.88,-30.5 3832.62,-30.5 3832.62,0 3931.88,0 3931.88,-30.5"/>
<text text-anchor="start" x="3840.62" y="-17" font-family="Helvetica,sans-Serif" font-size="10.00">ee/rpc/poweroff/src</text>
<text text-anchor="middle" x="3882.25" y="-5.75" font-family="Helvetica,sans-Serif" font-size="10.00">/erl&#45;support.c</text>
</a>
</g>
</g>
<!-- Node1&#45;&gt;Node32 -->
<g id="edge31_Node000001_Node000032" class="edge">
<title>Node1&#45;&gt;Node32</title>
<g id="a_edge31_Node000001_Node000032"><a xlink:title=" ">
<path fill="none" stroke="#63b8ff" d="M2535.27,-74.77C2760.89,-73.16 3568.87,-65.07 3823.25,-30.5 3826.17,-30.1 3829.16,-29.62 3832.17,-29.08"/>
<polygon fill="#63b8ff" stroke="#63b8ff" points="2535.53,-71.27 2525.55,-74.84 2535.58,-78.27 2535.53,-71.27"/>
</a>
</g>
</g>
<!-- Node33 -->
<g id="Node000033" class="node">
<title>Node33</title>
<g id="a_Node000033"><a xlink:href="rpc_2ps2snd_2src_2erl-support_8c_source.html" target="_top" xlink:title=" ">
<polygon fill="white" stroke="#666666" points="4057,-30.5 3949.5,-30.5 3949.5,0 4057,0 4057,-30.5"/>
<text text-anchor="start" x="3957.5" y="-17" font-family="Helvetica,sans-Serif" font-size="10.00">ee/rpc/ps2snd/src/erl</text>
<text text-anchor="middle" x="4003.25" y="-5.75" font-family="Helvetica,sans-Serif" font-size="10.00">&#45;support.c</text>
</a>
</g>
</g>
<!-- Node1&#45;&gt;Node33 -->
<g id="edge32_Node000001_Node000033" class="edge">
<title>Node1&#45;&gt;Node33</title>
<g id="a_edge32_Node000001_Node000033"><a xlink:title=" ">
<path fill="none" stroke="#63b8ff" d="M2535.61,-74.86C2774.04,-73.58 3662.51,-66.43 3941.25,-30.5 3943.88,-30.16 3946.56,-29.76 3949.26,-29.31"/>
<polygon fill="#63b8ff" stroke="#63b8ff" points="2535.59,-71.36 2525.61,-74.92 2535.63,-78.36 2535.59,-71.36"/>
</a>
</g>
</g>
<!-- Node34 -->
<g id="Node000034" class="node">
<title>Node34</title>
<g id="a_Node000034"><a xlink:href="rpc_2remote_2src_2erl-support_8c_source.html" target="_top" xlink:title=" ">
<polygon fill="white" stroke="#666666" points="4181.25,-30.5 4075.25,-30.5 4075.25,0 4181.25,0 4181.25,-30.5"/>
<text text-anchor="start" x="4083.25" y="-17" font-family="Helvetica,sans-Serif" font-size="10.00">ee/rpc/remote/src/erl</text>
<text text-anchor="middle" x="4128.25" y="-5.75" font-family="Helvetica,sans-Serif" font-size="10.00">&#45;support.c</text>
</a>
</g>
</g>
<!-- Node1&#45;&gt;Node34 -->
<g id="edge33_Node000001_Node000034" class="edge">
<title>Node1&#45;&gt;Node34</title>
<g id="a_edge33_Node000001_Node000034"><a xlink:title=" ">
<path fill="none" stroke="#63b8ff" d="M2535.26,-75.03C2785.67,-74.39 3761.55,-69.4 4066.25,-30.5 4069.1,-30.14 4072.01,-29.7 4074.94,-29.21"/>
<polygon fill="#63b8ff" stroke="#63b8ff" points="2535.39,-71.53 2525.4,-75.05 2535.41,-78.53 2535.39,-71.53"/>
</a>
</g>
</g>
<!-- Node35 -->
<g id="Node000035" class="node">
<title>Node35</title>
<g id="a_Node000035"><a xlink:href="rpc_2secr_2src_2erl-support_8c_source.html" target="_top" xlink:title=" ">
<polygon fill="white" stroke="#666666" points="4293.62,-30.5 4198.88,-30.5 4198.88,0 4293.62,0 4293.62,-30.5"/>
<text text-anchor="start" x="4206.88" y="-17" font-family="Helvetica,sans-Serif" font-size="10.00">ee/rpc/secr/src/erl</text>
<text text-anchor="middle" x="4246.25" y="-5.75" font-family="Helvetica,sans-Serif" font-size="10.00">&#45;support.c</text>
</a>
</g>
</g>
<!-- Node1&#45;&gt;Node35 -->
<g id="edge34_Node000001_Node000035" class="edge">
<title>Node1&#45;&gt;Node35</title>
<g id="a_edge34_Node000001_Node000035"><a xlink:title=" ">
<path fill="none" stroke="#63b8ff" d="M2535.13,-75.35C2797.33,-76.1 3860.31,-76.19 4190.25,-30.5 4192.93,-30.13 4195.67,-29.68 4198.43,-29.17"/>
<polygon fill="#63b8ff" stroke="#63b8ff" points="2535.49,-71.85 2525.48,-75.32 2535.47,-78.85 2535.49,-71.85"/>
</a>
</g>
</g>
<!-- Node36 -->
<g id="Node000036" class="node">
<title>Node36</title>
<g id="a_Node000036"><a xlink:href="rpc_2sior_2src_2erl-support_8c_source.html" target="_top" xlink:title=" ">
<polygon fill="white" stroke="#666666" points="4403.12,-30.5 4311.38,-30.5 4311.38,0 4403.12,0 4403.12,-30.5"/>
<text text-anchor="start" x="4319.38" y="-17" font-family="Helvetica,sans-Serif" font-size="10.00">ee/rpc/sior/src/erl</text>
<text text-anchor="middle" x="4357.25" y="-5.75" font-family="Helvetica,sans-Serif" font-size="10.00">&#45;support.c</text>
</a>
</g>
</g>
<!-- Node1&#45;&gt;Node36 -->
<g id="edge35_Node000001_Node000036" class="edge">
<title>Node1&#45;&gt;Node36</title>
<g id="a_edge35_Node000001_Node000036"><a xlink:title=" ">
<path fill="none" stroke="#63b8ff" d="M2534.93,-75.5C2807.21,-76.94 3949.11,-79.9 4302.25,-30.5 4305.08,-30.1 4307.98,-29.61 4310.89,-29.06"/>
<polygon fill="#63b8ff" stroke="#63b8ff" points="2535.28,-72 2525.26,-75.44 2535.24,-79 2535.28,-72"/>
</a>
</g>
</g>
<!-- Node37 -->
<g id="Node000037" class="node">
<title>Node37</title>
<g id="a_Node000037"><a xlink:href="rpc_2tcpips_2src_2erl-support_8c_source.html" target="_top" xlink:title=" ">
<polygon fill="white" stroke="#666666" points="4523.38,-30.5 4421.12,-30.5 4421.12,0 4523.38,0 4523.38,-30.5"/>
<text text-anchor="start" x="4429.12" y="-17" font-family="Helvetica,sans-Serif" font-size="10.00">ee/rpc/tcpips/src/erl</text>
<text text-anchor="middle" x="4472.25" y="-5.75" font-family="Helvetica,sans-Serif" font-size="10.00">&#45;support.c</text>
</a>
</g>
</g>
<!-- Node1&#45;&gt;Node37 -->
<g id="edge36_Node000001_Node000037" class="edge">
<title>Node1&#45;&gt;Node37</title>
<g id="a_edge36_Node000001_Node000037"><a xlink:title=" ">
<path fill="none" stroke="#63b8ff" d="M2535.21,-75.43C2817.85,-76.66 4035.88,-78.98 4412.25,-30.5 4415.01,-30.14 4417.83,-29.71 4420.67,-29.23"/>
<polygon fill="#63b8ff" stroke="#63b8ff" points="2535.53,-71.94 2525.51,-75.39 2535.5,-78.94 2535.53,-71.94"/>
</a>
</g>
</g>
<!-- Node38 -->
<g id="Node000038" class="node">
<title>Node38</title>
<g id="a_Node000038"><a xlink:href="sbv_2src_2erl-support_8c_source.html" target="_top" xlink:title=" ">
<polygon fill="white" stroke="#666666" points="4659.25,-24.88 4541.25,-24.88 4541.25,-5.63 4659.25,-5.63 4659.25,-24.88"/>
<text text-anchor="middle" x="4600.25" y="-11.38" font-family="Helvetica,sans-Serif" font-size="10.00">ee/sbv/src/erl&#45;support.c</text>
</a>
</g>
</g>
<!-- Node1&#45;&gt;Node38 -->
<g id="edge37_Node000001_Node000038" class="edge">
<title>Node1&#45;&gt;Node38</title>
<g id="a_edge37_Node000001_Node000038"><a xlink:title=" ">
<path fill="none" stroke="#63b8ff" d="M2535,-75.32C2827.67,-76.04 4130.15,-76.59 4532.25,-30.5 4542.32,-29.35 4553.1,-27.42 4563.04,-25.34"/>
<polygon fill="#63b8ff" stroke="#63b8ff" points="2535.34,-71.82 2525.33,-75.29 2535.32,-78.82 2535.34,-71.82"/>
</a>
</g>
</g>
</g>
</svg>
