<?xml version="1.0" encoding="UTF-8" standalone="no"?>
<!DOCTYPE svg PUBLIC "-//W3C//DTD SVG 1.1//EN"
 "http://www.w3.org/Graphics/SVG/1.1/DTD/svg11.dtd">
<!-- Generated by graphviz version 2.43.0 (0)
 -->
<!-- Title: iop/system/excepman/include/excepman.h Pages: 1 -->
<svg width="1789pt" height="173pt"
 viewBox="0.00 0.00 1789.00 173.00" xmlns="http://www.w3.org/2000/svg" xmlns:xlink="http://www.w3.org/1999/xlink">
<g id="graph0" class="graph" transform="scale(1 1) rotate(0) translate(4 169)">
<title>iop/system/excepman/include/excepman.h</title>
<polygon fill="white" stroke="transparent" points="-4,4 -4,-169 1785,-169 1785,4 -4,4"/>
<!-- Node1 -->
<g id="node1" class="node">
<title>Node1</title>
<g id="a_node1"><a xlink:title=" ">
<polygon fill="#bfbfbf" stroke="black" points="845.5,-134.5 845.5,-164.5 970.5,-164.5 970.5,-134.5 845.5,-134.5"/>
<text text-anchor="start" x="853.5" y="-152.5" font-family="Helvetica,sans-Serif" font-size="10.00">iop/system/excepman</text>
<text text-anchor="middle" x="908" y="-141.5" font-family="Helvetica,sans-Serif" font-size="10.00">/include/excepman.h</text>
</a>
</g>
</g>
<!-- Node2 -->
<g id="node2" class="node">
<title>Node2</title>
<g id="a_node2"><a xlink:href="common_2sbus_2src_2irx__imports_8h_source.html" target="_top" xlink:title=" ">
<polygon fill="white" stroke="black" points="0,-67.5 0,-97.5 118,-97.5 118,-67.5 0,-67.5"/>
<text text-anchor="start" x="8" y="-85.5" font-family="Helvetica,sans-Serif" font-size="10.00">common/sbus/src/irx</text>
<text text-anchor="middle" x="59" y="-74.5" font-family="Helvetica,sans-Serif" font-size="10.00">_imports.h</text>
</a>
</g>
</g>
<!-- Node1&#45;&gt;Node2 -->
<g id="edge1" class="edge">
<title>Node1&#45;&gt;Node2</title>
<path fill="none" stroke="midnightblue" d="M835.36,-147.33C696.93,-144.31 386.01,-133.79 127,-98 124.13,-97.6 121.2,-97.15 118.25,-96.66"/>
<polygon fill="midnightblue" stroke="midnightblue" points="835.36,-150.83 845.43,-147.54 835.5,-143.83 835.36,-150.83"/>
</g>
<!-- Node3 -->
<g id="node3" class="node">
<title>Node3</title>
<g id="a_node3"><a xlink:href="iop_2debug_2iop__sbusdbg_2src_2irx__imports_8h_source.html" target="_top" xlink:title=" ">
<polygon fill="white" stroke="black" points="136,-67.5 136,-97.5 264,-97.5 264,-67.5 136,-67.5"/>
<text text-anchor="start" x="144" y="-85.5" font-family="Helvetica,sans-Serif" font-size="10.00">iop/debug/iop_sbusdbg</text>
<text text-anchor="middle" x="200" y="-74.5" font-family="Helvetica,sans-Serif" font-size="10.00">/src/irx_imports.h</text>
</a>
</g>
</g>
<!-- Node1&#45;&gt;Node3 -->
<g id="edge2" class="edge">
<title>Node1&#45;&gt;Node3</title>
<path fill="none" stroke="midnightblue" d="M835.06,-145.47C716.67,-139.93 475.51,-126.07 273,-98 270.06,-97.59 267.05,-97.14 264.02,-96.66"/>
<polygon fill="midnightblue" stroke="midnightblue" points="834.95,-148.97 845.1,-145.93 835.27,-141.98 834.95,-148.97"/>
</g>
<!-- Node4 -->
<g id="node4" class="node">
<title>Node4</title>
<g id="a_node4"><a xlink:href="iop_2debug_2iop__sbusdbg_2src_2main_8c_source.html" target="_top" xlink:title=" ">
<polygon fill="white" stroke="black" points="282,-67.5 282,-97.5 410,-97.5 410,-67.5 282,-67.5"/>
<text text-anchor="start" x="290" y="-85.5" font-family="Helvetica,sans-Serif" font-size="10.00">iop/debug/iop_sbusdbg</text>
<text text-anchor="middle" x="346" y="-74.5" font-family="Helvetica,sans-Serif" font-size="10.00">/src/main.c</text>
</a>
</g>
</g>
<!-- Node1&#45;&gt;Node4 -->
<g id="edge3" class="edge">
<title>Node1&#45;&gt;Node4</title>
<path fill="none" stroke="midnightblue" d="M835.08,-143.1C739.29,-135.53 565.98,-120.14 419,-98 416.06,-97.56 413.06,-97.08 410.03,-96.57"/>
<polygon fill="midnightblue" stroke="midnightblue" points="835,-146.61 845.24,-143.9 835.54,-139.63 835,-146.61"/>
</g>
<!-- Node5 -->
<g id="node5" class="node">
<title>Node5</title>
<g id="a_node5"><a xlink:href="sbus__dbg_8c_source.html" target="_top" xlink:title=" ">
<polygon fill="white" stroke="black" points="428,-67.5 428,-97.5 556,-97.5 556,-67.5 428,-67.5"/>
<text text-anchor="start" x="436" y="-85.5" font-family="Helvetica,sans-Serif" font-size="10.00">iop/debug/iop_sbusdbg</text>
<text text-anchor="middle" x="492" y="-74.5" font-family="Helvetica,sans-Serif" font-size="10.00">/src/sbus_dbg.c</text>
</a>
</g>
</g>
<!-- Node1&#45;&gt;Node5 -->
<g id="edge4" class="edge">
<title>Node1&#45;&gt;Node5</title>
<path fill="none" stroke="midnightblue" d="M835.28,-138.87C765.74,-129.4 657.99,-114.07 565,-98 562.07,-97.49 559.08,-96.96 556.06,-96.41"/>
<polygon fill="midnightblue" stroke="midnightblue" points="834.88,-142.34 845.26,-140.22 835.82,-135.41 834.88,-142.34"/>
</g>
<!-- Node6 -->
<g id="node6" class="node">
<title>Node6</title>
<g id="a_node6"><a xlink:href="sbus__tty_8c_source.html" target="_top" xlink:title=" ">
<polygon fill="white" stroke="black" points="574,-67.5 574,-97.5 702,-97.5 702,-67.5 574,-67.5"/>
<text text-anchor="start" x="582" y="-85.5" font-family="Helvetica,sans-Serif" font-size="10.00">iop/debug/iop_sbusdbg</text>
<text text-anchor="middle" x="638" y="-74.5" font-family="Helvetica,sans-Serif" font-size="10.00">/src/sbus_tty.c</text>
</a>
</g>
</g>
<!-- Node1&#45;&gt;Node6 -->
<g id="edge5" class="edge">
<title>Node1&#45;&gt;Node6</title>
<path fill="none" stroke="midnightblue" d="M839.95,-132.12C795.77,-121.48 738.78,-107.76 696.61,-97.61"/>
<polygon fill="midnightblue" stroke="midnightblue" points="839.2,-135.54 849.75,-134.48 840.84,-128.73 839.2,-135.54"/>
</g>
<!-- Node7 -->
<g id="node7" class="node">
<title>Node7</title>
<g id="a_node7"><a xlink:href="iop__debug_8c.html" target="_top" xlink:title=" ">
<polygon fill="white" stroke="black" points="720.5,-67.5 720.5,-97.5 833.5,-97.5 833.5,-67.5 720.5,-67.5"/>
<text text-anchor="start" x="728.5" y="-85.5" font-family="Helvetica,sans-Serif" font-size="10.00">iop/debug/iopdebug</text>
<text text-anchor="middle" x="777" y="-74.5" font-family="Helvetica,sans-Serif" font-size="10.00">/src/iop_debug.c</text>
</a>
</g>
</g>
<!-- Node1&#45;&gt;Node7 -->
<g id="edge6" class="edge">
<title>Node1&#45;&gt;Node7</title>
<path fill="none" stroke="midnightblue" d="M870.42,-129.85C849.71,-119.58 824.41,-107.03 805.37,-97.58"/>
<polygon fill="midnightblue" stroke="midnightblue" points="869.06,-133.09 879.57,-134.4 872.17,-126.82 869.06,-133.09"/>
</g>
<!-- Node8 -->
<g id="node8" class="node">
<title>Node8</title>
<g id="a_node8"><a xlink:href="iop_2debug_2iopdebug_2src_2irx__imports_8h_source.html" target="_top" xlink:title=" ">
<polygon fill="white" stroke="black" points="851.5,-67.5 851.5,-97.5 964.5,-97.5 964.5,-67.5 851.5,-67.5"/>
<text text-anchor="start" x="859.5" y="-85.5" font-family="Helvetica,sans-Serif" font-size="10.00">iop/debug/iopdebug</text>
<text text-anchor="middle" x="908" y="-74.5" font-family="Helvetica,sans-Serif" font-size="10.00">/src/irx_imports.h</text>
</a>
</g>
</g>
<!-- Node1&#45;&gt;Node8 -->
<g id="edge7" class="edge">
<title>Node1&#45;&gt;Node8</title>
<path fill="none" stroke="midnightblue" d="M908,-124.11C908,-115.15 908,-105.32 908,-97.58"/>
<polygon fill="midnightblue" stroke="midnightblue" points="904.5,-124.4 908,-134.4 911.5,-124.4 904.5,-124.4"/>
</g>
<!-- Node9 -->
<g id="node9" class="node">
<title>Node9</title>
<g id="a_node9"><a xlink:href="ioptrap_8c.html" target="_top" xlink:title=" ">
<polygon fill="white" stroke="black" points="982.5,-67.5 982.5,-97.5 1101.5,-97.5 1101.5,-67.5 982.5,-67.5"/>
<text text-anchor="start" x="990.5" y="-85.5" font-family="Helvetica,sans-Serif" font-size="10.00">iop/debug/ioptrap/src</text>
<text text-anchor="middle" x="1042" y="-74.5" font-family="Helvetica,sans-Serif" font-size="10.00">/ioptrap.c</text>
</a>
</g>
</g>
<!-- Node1&#45;&gt;Node9 -->
<g id="edge8" class="edge">
<title>Node1&#45;&gt;Node9</title>
<path fill="none" stroke="midnightblue" d="M946.15,-129.99C967.39,-119.69 993.41,-107.07 1012.98,-97.58"/>
<polygon fill="midnightblue" stroke="midnightblue" points="944.55,-126.88 937.08,-134.4 947.6,-133.18 944.55,-126.88"/>
</g>
<!-- Node10 -->
<g id="node10" class="node">
<title>Node10</title>
<g id="a_node10"><a xlink:href="iop_2debug_2ioptrap_2src_2irx__imports_8h_source.html" target="_top" xlink:title=" ">
<polygon fill="white" stroke="black" points="1119.5,-67.5 1119.5,-97.5 1238.5,-97.5 1238.5,-67.5 1119.5,-67.5"/>
<text text-anchor="start" x="1127.5" y="-85.5" font-family="Helvetica,sans-Serif" font-size="10.00">iop/debug/ioptrap/src</text>
<text text-anchor="middle" x="1179" y="-74.5" font-family="Helvetica,sans-Serif" font-size="10.00">/irx_imports.h</text>
</a>
</g>
</g>
<!-- Node1&#45;&gt;Node10 -->
<g id="edge9" class="edge">
<title>Node1&#45;&gt;Node10</title>
<path fill="none" stroke="midnightblue" d="M976.3,-132.12C1020.64,-121.48 1077.84,-107.76 1120.17,-97.61"/>
<polygon fill="midnightblue" stroke="midnightblue" points="975.38,-128.74 966.47,-134.48 977.01,-135.55 975.38,-128.74"/>
</g>
<!-- Node11 -->
<g id="node11" class="node">
<title>Node11</title>
<g id="a_node11"><a xlink:href="iop_2debug_2ppctty_2src_2main_8c_source.html" target="_top" xlink:title=" ">
<polygon fill="white" stroke="black" points="1257,-67.5 1257,-97.5 1373,-97.5 1373,-67.5 1257,-67.5"/>
<text text-anchor="start" x="1265" y="-85.5" font-family="Helvetica,sans-Serif" font-size="10.00">iop/debug/ppctty/src</text>
<text text-anchor="middle" x="1315" y="-74.5" font-family="Helvetica,sans-Serif" font-size="10.00">/main.c</text>
</a>
</g>
</g>
<!-- Node1&#45;&gt;Node11 -->
<g id="edge10" class="edge">
<title>Node1&#45;&gt;Node11</title>
<path fill="none" stroke="midnightblue" d="M980.88,-139.09C1049.88,-129.84 1156.28,-114.72 1248,-98 1250.93,-97.47 1253.92,-96.9 1256.94,-96.31"/>
<polygon fill="midnightblue" stroke="midnightblue" points="980,-135.67 970.56,-140.46 980.93,-142.61 980,-135.67"/>
</g>
<!-- Node12 -->
<g id="node12" class="node">
<title>Node12</title>
<g id="a_node12"><a xlink:href="iop_2debug_2ppctty_2src_2tty_8c_source.html" target="_top" xlink:title=" ">
<polygon fill="white" stroke="black" points="1391,-67.5 1391,-97.5 1507,-97.5 1507,-67.5 1391,-67.5"/>
<text text-anchor="start" x="1399" y="-85.5" font-family="Helvetica,sans-Serif" font-size="10.00">iop/debug/ppctty/src</text>
<text text-anchor="middle" x="1449" y="-74.5" font-family="Helvetica,sans-Serif" font-size="10.00">/tty.c</text>
</a>
</g>
</g>
<!-- Node1&#45;&gt;Node12 -->
<g id="edge11" class="edge">
<title>Node1&#45;&gt;Node12</title>
<path fill="none" stroke="midnightblue" d="M980.96,-143.16C1074.31,-135.78 1240.84,-120.73 1382,-98 1384.94,-97.53 1387.94,-97.01 1390.97,-96.46"/>
<polygon fill="midnightblue" stroke="midnightblue" points="980.47,-139.69 970.78,-143.96 981.02,-146.67 980.47,-139.69"/>
</g>
<!-- Node13 -->
<g id="node13" class="node">
<title>Node13</title>
<g id="a_node13"><a xlink:href="excepman_8c_source.html" target="_top" xlink:title=" ">
<polygon fill="white" stroke="black" points="1525.5,-67.5 1525.5,-97.5 1650.5,-97.5 1650.5,-67.5 1525.5,-67.5"/>
<text text-anchor="start" x="1533.5" y="-85.5" font-family="Helvetica,sans-Serif" font-size="10.00">iop/system/excepman</text>
<text text-anchor="middle" x="1588" y="-74.5" font-family="Helvetica,sans-Serif" font-size="10.00">/src/excepman.c</text>
</a>
</g>
</g>
<!-- Node1&#45;&gt;Node13 -->
<g id="edge12" class="edge">
<title>Node1&#45;&gt;Node13</title>
<path fill="none" stroke="midnightblue" d="M980.89,-145.18C1095.31,-139.35 1323.86,-125.23 1516,-98 1519.03,-97.57 1522.12,-97.09 1525.25,-96.58"/>
<polygon fill="midnightblue" stroke="midnightblue" points="980.66,-141.69 970.85,-145.68 981.01,-148.68 980.66,-141.69"/>
</g>
<!-- Node14 -->
<g id="node14" class="node">
<title>Node14</title>
<g id="a_node14"><a xlink:href="iop_2system_2intrman_2src_2irx__imports_8h_source.html" target="_top" xlink:title=" ">
<polygon fill="white" stroke="black" points="1669,-67.5 1669,-97.5 1781,-97.5 1781,-67.5 1669,-67.5"/>
<text text-anchor="start" x="1677" y="-85.5" font-family="Helvetica,sans-Serif" font-size="10.00">iop/system/intrman</text>
<text text-anchor="middle" x="1725" y="-74.5" font-family="Helvetica,sans-Serif" font-size="10.00">/src/irx_imports.h</text>
</a>
</g>
</g>
<!-- Node1&#45;&gt;Node14 -->
<g id="edge13" class="edge">
<title>Node1&#45;&gt;Node14</title>
<path fill="none" stroke="midnightblue" d="M980.93,-147.29C1115.71,-144.23 1412.61,-133.69 1660,-98 1662.86,-97.59 1665.78,-97.12 1668.73,-96.6"/>
<polygon fill="midnightblue" stroke="midnightblue" points="980.65,-143.79 970.73,-147.51 980.81,-150.79 980.65,-143.79"/>
</g>
<!-- Node15 -->
<g id="node15" class="node">
<title>Node15</title>
<g id="a_node15"><a xlink:href="intrman_8c_source.html" target="_top" xlink:title=" ">
<polygon fill="white" stroke="black" points="1669,-0.5 1669,-30.5 1781,-30.5 1781,-0.5 1669,-0.5"/>
<text text-anchor="start" x="1677" y="-18.5" font-family="Helvetica,sans-Serif" font-size="10.00">iop/system/intrman</text>
<text text-anchor="middle" x="1725" y="-7.5" font-family="Helvetica,sans-Serif" font-size="10.00">/src/intrman.c</text>
</a>
</g>
</g>
<!-- Node14&#45;&gt;Node15 -->
<g id="edge14" class="edge">
<title>Node14&#45;&gt;Node15</title>
<path fill="none" stroke="midnightblue" d="M1725,-57.11C1725,-48.15 1725,-38.32 1725,-30.58"/>
<polygon fill="midnightblue" stroke="midnightblue" points="1721.5,-57.4 1725,-67.4 1728.5,-57.4 1721.5,-57.4"/>
</g>
</g>
</svg>
