<?xml version="1.0" encoding="UTF-8" standalone="no"?>
<!DOCTYPE svg PUBLIC "-//W3C//DTD SVG 1.1//EN"
 "http://www.w3.org/Graphics/SVG/1.1/DTD/svg11.dtd">
<!-- Generated by graphviz version 12.2.0 (20241103.1931)
 -->
<!-- Title: iop/system/excepman/include/excepman.h Pages: 1 -->
<svg width="1625pt" height="172pt"
 viewBox="0.00 0.00 1624.62 171.50" xmlns="http://www.w3.org/2000/svg" xmlns:xlink="http://www.w3.org/1999/xlink">
<g id="graph0" class="graph" transform="scale(1 1) rotate(0) translate(4 167.5)">
<title>iop/system/excepman/include/excepman.h</title>
<!-- Node1 -->
<g id="Node000001" class="node">
<title>Node1</title>
<g id="a_Node000001"><a xlink:title=" ">
<polygon fill="#999999" stroke="#666666" points="883.62,-163.5 773.12,-163.5 773.12,-133 883.62,-133 883.62,-163.5"/>
<text text-anchor="start" x="781.12" y="-150" font-family="Helvetica,sans-Serif" font-size="10.00">iop/system/excepman</text>
<text text-anchor="middle" x="828.38" y="-138.75" font-family="Helvetica,sans-Serif" font-size="10.00">/include/excepman.h</text>
</a>
</g>
</g>
<!-- Node2 -->
<g id="Node000002" class="node">
<title>Node2</title>
<g id="a_Node000002"><a xlink:href="common_2sbus_2src_2irx__imports_8h_source.html" target="_top" xlink:title=" ">
<polygon fill="white" stroke="#666666" points="106.75,-97 0,-97 0,-66.5 106.75,-66.5 106.75,-97"/>
<text text-anchor="start" x="8" y="-83.5" font-family="Helvetica,sans-Serif" font-size="10.00">common/sbus/src/irx</text>
<text text-anchor="middle" x="53.38" y="-72.25" font-family="Helvetica,sans-Serif" font-size="10.00">_imports.h</text>
</a>
</g>
</g>
<!-- Node1&#45;&gt;Node2 -->
<g id="edge1_Node000001_Node000002" class="edge">
<title>Node1&#45;&gt;Node2</title>
<g id="a_edge1_Node000001_Node000002"><a xlink:title=" ">
<path fill="none" stroke="#63b8ff" d="M761.64,-146C634.99,-142.88 351.33,-132.21 115.38,-97 112.64,-96.59 109.86,-96.13 107.05,-95.62"/>
<polygon fill="#63b8ff" stroke="#63b8ff" points="761.45,-149.5 771.53,-146.24 761.61,-142.5 761.45,-149.5"/>
</a>
</g>
</g>
<!-- Node3 -->
<g id="Node000003" class="node">
<title>Node3</title>
<g id="a_Node000003"><a xlink:href="iop_2debug_2iop__sbusdbg_2src_2irx__imports_8h_source.html" target="_top" xlink:title=" ">
<polygon fill="white" stroke="#666666" points="240.25,-97 124.5,-97 124.5,-66.5 240.25,-66.5 240.25,-97"/>
<text text-anchor="start" x="132.5" y="-83.5" font-family="Helvetica,sans-Serif" font-size="10.00">iop/debug/iop_sbusdbg</text>
<text text-anchor="middle" x="182.38" y="-72.25" font-family="Helvetica,sans-Serif" font-size="10.00">/src/irx_imports.h</text>
</a>
</g>
</g>
<!-- Node1&#45;&gt;Node3 -->
<g id="edge2_Node000001_Node000003" class="edge">
<title>Node1&#45;&gt;Node3</title>
<g id="a_edge2_Node000001_Node000003"><a xlink:title=" ">
<path fill="none" stroke="#63b8ff" d="M761.66,-144.13C653.6,-138.48 433.76,-124.5 249.38,-97 246.43,-96.56 243.43,-96.07 240.4,-95.55"/>
<polygon fill="#63b8ff" stroke="#63b8ff" points="761.35,-147.62 771.51,-144.64 761.71,-140.63 761.35,-147.62"/>
</a>
</g>
</g>
<!-- Node4 -->
<g id="Node000004" class="node">
<title>Node4</title>
<g id="a_Node000004"><a xlink:href="iop_2debug_2iop__sbusdbg_2src_2main_8c_source.html" target="_top" xlink:title=" ">
<polygon fill="white" stroke="#666666" points="374.25,-97 258.5,-97 258.5,-66.5 374.25,-66.5 374.25,-97"/>
<text text-anchor="start" x="266.5" y="-83.5" font-family="Helvetica,sans-Serif" font-size="10.00">iop/debug/iop_sbusdbg</text>
<text text-anchor="middle" x="316.38" y="-72.25" font-family="Helvetica,sans-Serif" font-size="10.00">/src/main.c</text>
</a>
</g>
</g>
<!-- Node1&#45;&gt;Node4 -->
<g id="edge3_Node000001_Node000004" class="edge">
<title>Node1&#45;&gt;Node4</title>
<g id="a_edge3_Node000001_Node000004"><a xlink:title=" ">
<path fill="none" stroke="#63b8ff" d="M761.3,-141.72C673.96,-134.05 516.68,-118.65 383.38,-97 380.44,-96.52 377.44,-96 374.41,-95.45"/>
<polygon fill="#63b8ff" stroke="#63b8ff" points="760.86,-145.2 771.13,-142.58 761.47,-138.22 760.86,-145.2"/>
</a>
</g>
</g>
<!-- Node5 -->
<g id="Node000005" class="node">
<title>Node5</title>
<g id="a_Node000005"><a xlink:href="sbus__dbg_8c_source.html" target="_top" xlink:title=" ">
<polygon fill="white" stroke="#666666" points="508.25,-97 392.5,-97 392.5,-66.5 508.25,-66.5 508.25,-97"/>
<text text-anchor="start" x="400.5" y="-83.5" font-family="Helvetica,sans-Serif" font-size="10.00">iop/debug/iop_sbusdbg</text>
<text text-anchor="middle" x="450.38" y="-72.25" font-family="Helvetica,sans-Serif" font-size="10.00">/src/sbus_dbg.c</text>
</a>
</g>
</g>
<!-- Node1&#45;&gt;Node5 -->
<g id="edge4_Node000001_Node000005" class="edge">
<title>Node1&#45;&gt;Node5</title>
<g id="a_edge4_Node000001_Node000005"><a xlink:title=" ">
<path fill="none" stroke="#63b8ff" d="M761.52,-137.42C698.43,-127.92 601.26,-112.69 517.38,-97 514.45,-96.45 511.46,-95.88 508.44,-95.28"/>
<polygon fill="#63b8ff" stroke="#63b8ff" points="760.99,-140.88 771.4,-138.91 762.03,-133.96 760.99,-140.88"/>
</a>
</g>
</g>
<!-- Node6 -->
<g id="Node000006" class="node">
<title>Node6</title>
<g id="a_Node000006"><a xlink:href="sbus__tty_8c_source.html" target="_top" xlink:title=" ">
<polygon fill="white" stroke="#666666" points="642.25,-97 526.5,-97 526.5,-66.5 642.25,-66.5 642.25,-97"/>
<text text-anchor="start" x="534.5" y="-83.5" font-family="Helvetica,sans-Serif" font-size="10.00">iop/debug/iop_sbusdbg</text>
<text text-anchor="middle" x="584.38" y="-72.25" font-family="Helvetica,sans-Serif" font-size="10.00">/src/sbus_tty.c</text>
</a>
</g>
</g>
<!-- Node1&#45;&gt;Node6 -->
<g id="edge5_Node000001_Node000006" class="edge">
<title>Node1&#45;&gt;Node6</title>
<g id="a_edge5_Node000001_Node000006"><a xlink:title=" ">
<path fill="none" stroke="#63b8ff" d="M761.67,-129.62C723.42,-119.51 675.99,-106.97 639.81,-97.4"/>
<polygon fill="#63b8ff" stroke="#63b8ff" points="760.68,-132.97 771.24,-132.15 762.47,-126.21 760.68,-132.97"/>
</a>
</g>
</g>
<!-- Node7 -->
<g id="Node000007" class="node">
<title>Node7</title>
<g id="a_Node000007"><a xlink:href="iop__debug_8c.html" target="_top" xlink:title=" ">
<polygon fill="white" stroke="#666666" points="760.38,-97 660.38,-97 660.38,-66.5 760.38,-66.5 760.38,-97"/>
<text text-anchor="start" x="668.38" y="-83.5" font-family="Helvetica,sans-Serif" font-size="10.00">iop/debug/iopdebug</text>
<text text-anchor="middle" x="710.38" y="-72.25" font-family="Helvetica,sans-Serif" font-size="10.00">/src/iop_debug.c</text>
</a>
</g>
</g>
<!-- Node1&#45;&gt;Node7 -->
<g id="edge6_Node000001_Node000007" class="edge">
<title>Node1&#45;&gt;Node7</title>
<g id="a_edge6_Node000001_Node000007"><a xlink:title=" ">
<path fill="none" stroke="#63b8ff" d="M791.62,-127.16C773.95,-117.5 753.17,-106.14 737.05,-97.33"/>
<polygon fill="#63b8ff" stroke="#63b8ff" points="789.82,-130.16 800.27,-131.89 793.17,-124.02 789.82,-130.16"/>
</a>
</g>
</g>
<!-- Node8 -->
<g id="Node000008" class="node">
<title>Node8</title>
<g id="a_Node000008"><a xlink:href="iop_2debug_2iopdebug_2src_2irx__imports_8h_source.html" target="_top" xlink:title=" ">
<polygon fill="white" stroke="#666666" points="878.38,-97 778.38,-97 778.38,-66.5 878.38,-66.5 878.38,-97"/>
<text text-anchor="start" x="786.38" y="-83.5" font-family="Helvetica,sans-Serif" font-size="10.00">iop/debug/iopdebug</text>
<text text-anchor="middle" x="828.38" y="-72.25" font-family="Helvetica,sans-Serif" font-size="10.00">/src/irx_imports.h</text>
</a>
</g>
</g>
<!-- Node1&#45;&gt;Node8 -->
<g id="edge7_Node000001_Node000008" class="edge">
<title>Node1&#45;&gt;Node8</title>
<g id="a_edge7_Node000001_Node000008"><a xlink:title=" ">
<path fill="none" stroke="#63b8ff" d="M828.38,-121.31C828.38,-113.14 828.38,-104.41 828.38,-97.33"/>
<polygon fill="#63b8ff" stroke="#63b8ff" points="824.88,-121.1 828.38,-131.1 831.88,-121.1 824.88,-121.1"/>
</a>
</g>
</g>
<!-- Node9 -->
<g id="Node000009" class="node">
<title>Node9</title>
<g id="a_Node000009"><a xlink:href="ioptrap_8c.html" target="_top" xlink:title=" ">
<polygon fill="white" stroke="#666666" points="1002.75,-97 896,-97 896,-66.5 1002.75,-66.5 1002.75,-97"/>
<text text-anchor="start" x="904" y="-83.5" font-family="Helvetica,sans-Serif" font-size="10.00">iop/debug/ioptrap/src</text>
<text text-anchor="middle" x="949.38" y="-72.25" font-family="Helvetica,sans-Serif" font-size="10.00">/ioptrap.c</text>
</a>
</g>
</g>
<!-- Node1&#45;&gt;Node9 -->
<g id="edge8_Node000001_Node000009" class="edge">
<title>Node1&#45;&gt;Node9</title>
<g id="a_edge8_Node000001_Node000009"><a xlink:title=" ">
<path fill="none" stroke="#63b8ff" d="M865.81,-127.29C883.98,-117.61 905.42,-106.18 922.03,-97.33"/>
<polygon fill="#63b8ff" stroke="#63b8ff" points="864.35,-124.11 857.17,-131.9 867.64,-130.29 864.35,-124.11"/>
</a>
</g>
</g>
<!-- Node10 -->
<g id="Node000010" class="node">
<title>Node10</title>
<g id="a_Node000010"><a xlink:href="iop_2debug_2ioptrap_2src_2irx__imports_8h_source.html" target="_top" xlink:title=" ">
<polygon fill="white" stroke="#666666" points="1127.75,-97 1021,-97 1021,-66.5 1127.75,-66.5 1127.75,-97"/>
<text text-anchor="start" x="1029" y="-83.5" font-family="Helvetica,sans-Serif" font-size="10.00">iop/debug/ioptrap/src</text>
<text text-anchor="middle" x="1074.38" y="-72.25" font-family="Helvetica,sans-Serif" font-size="10.00">/irx_imports.h</text>
</a>
</g>
</g>
<!-- Node1&#45;&gt;Node10 -->
<g id="edge9_Node000001_Node000010" class="edge">
<title>Node1&#45;&gt;Node10</title>
<g id="a_edge9_Node000001_Node000010"><a xlink:title=" ">
<path fill="none" stroke="#63b8ff" d="M895,-129.78C934.47,-119.43 983.81,-106.49 1020.75,-96.81"/>
<polygon fill="#63b8ff" stroke="#63b8ff" points="894.14,-126.39 885.35,-132.31 895.91,-133.16 894.14,-126.39"/>
</a>
</g>
</g>
<!-- Node11 -->
<g id="Node000011" class="node">
<title>Node11</title>
<g id="a_Node000011"><a xlink:href="iop_2debug_2ppctty_2src_2main_8c_source.html" target="_top" xlink:title=" ">
<polygon fill="white" stroke="#666666" points="1249.25,-97 1145.5,-97 1145.5,-66.5 1249.25,-66.5 1249.25,-97"/>
<text text-anchor="start" x="1153.5" y="-83.5" font-family="Helvetica,sans-Serif" font-size="10.00">iop/debug/ppctty/src</text>
<text text-anchor="middle" x="1197.38" y="-72.25" font-family="Helvetica,sans-Serif" font-size="10.00">/main.c</text>
</a>
</g>
</g>
<!-- Node1&#45;&gt;Node11 -->
<g id="edge10_Node000001_Node000011" class="edge">
<title>Node1&#45;&gt;Node11</title>
<g id="a_edge10_Node000001_Node000011"><a xlink:title=" ">
<path fill="none" stroke="#63b8ff" d="M895.22,-137.68C957.76,-128.41 1053.7,-113.38 1136.38,-97 1139.26,-96.43 1142.21,-95.82 1145.18,-95.19"/>
<polygon fill="#63b8ff" stroke="#63b8ff" points="894.82,-134.2 885.44,-139.12 895.84,-141.13 894.82,-134.2"/>
</a>
</g>
</g>
<!-- Node12 -->
<g id="Node000012" class="node">
<title>Node12</title>
<g id="a_Node000012"><a xlink:href="iop_2debug_2ppctty_2src_2tty_8c_source.html" target="_top" xlink:title=" ">
<polygon fill="white" stroke="#666666" points="1371.25,-97 1267.5,-97 1267.5,-66.5 1371.25,-66.5 1371.25,-97"/>
<text text-anchor="start" x="1275.5" y="-83.5" font-family="Helvetica,sans-Serif" font-size="10.00">iop/debug/ppctty/src</text>
<text text-anchor="middle" x="1319.38" y="-72.25" font-family="Helvetica,sans-Serif" font-size="10.00">/tty.c</text>
</a>
</g>
</g>
<!-- Node1&#45;&gt;Node12 -->
<g id="edge11_Node000001_Node000012" class="edge">
<title>Node1&#45;&gt;Node12</title>
<g id="a_edge11_Node000001_Node000012"><a xlink:title=" ">
<path fill="none" stroke="#63b8ff" d="M895.26,-141.8C980.12,-134.34 1130.78,-119.28 1258.38,-97 1261.27,-96.49 1264.23,-95.94 1267.21,-95.35"/>
<polygon fill="#63b8ff" stroke="#63b8ff" points="895.15,-138.29 885.49,-142.65 895.76,-145.27 895.15,-138.29"/>
</a>
</g>
</g>
<!-- Node13 -->
<g id="Node000013" class="node">
<title>Node13</title>
<g id="a_Node000013"><a xlink:href="excepman_8c_source.html" target="_top" xlink:title=" ">
<polygon fill="white" stroke="#666666" points="1499.62,-97 1389.12,-97 1389.12,-66.5 1499.62,-66.5 1499.62,-97"/>
<text text-anchor="start" x="1397.12" y="-83.5" font-family="Helvetica,sans-Serif" font-size="10.00">iop/system/excepman</text>
<text text-anchor="middle" x="1444.38" y="-72.25" font-family="Helvetica,sans-Serif" font-size="10.00">/src/excepman.c</text>
</a>
</g>
</g>
<!-- Node1&#45;&gt;Node13 -->
<g id="edge12_Node000001_Node000013" class="edge">
<title>Node1&#45;&gt;Node13</title>
<g id="a_edge12_Node000001_Node000013"><a xlink:title=" ">
<path fill="none" stroke="#63b8ff" d="M895.17,-143.94C999.31,-138.16 1206.49,-124.16 1380.38,-97 1383.19,-96.56 1386.06,-96.07 1388.95,-95.55"/>
<polygon fill="#63b8ff" stroke="#63b8ff" points="895.2,-140.43 885.41,-144.47 895.59,-147.42 895.2,-140.43"/>
</a>
</g>
</g>
<!-- Node14 -->
<g id="Node000014" class="node">
<title>Node14</title>
<g id="a_Node000014"><a xlink:href="iop_2system_2intrman_2src_2irx__imports_8h_source.html" target="_top" xlink:title=" ">
<polygon fill="white" stroke="#666666" points="1616.62,-97 1518.12,-97 1518.12,-66.5 1616.62,-66.5 1616.62,-97"/>
<text text-anchor="start" x="1526.12" y="-83.5" font-family="Helvetica,sans-Serif" font-size="10.00">iop/system/intrman</text>
<text text-anchor="middle" x="1567.38" y="-72.25" font-family="Helvetica,sans-Serif" font-size="10.00">/src/irx_imports.h</text>
</a>
</g>
</g>
<!-- Node1&#45;&gt;Node14 -->
<g id="edge13_Node000001_Node000014" class="edge">
<title>Node1&#45;&gt;Node14</title>
<g id="a_edge13_Node000001_Node000014"><a xlink:title=" ">
<path fill="none" stroke="#63b8ff" d="M895.19,-145.92C1017.54,-142.69 1285.46,-131.92 1508.38,-97 1511.5,-96.51 1514.7,-95.94 1517.92,-95.31"/>
<polygon fill="#63b8ff" stroke="#63b8ff" points="895.23,-142.42 885.33,-146.17 895.41,-149.42 895.23,-142.42"/>
</a>
</g>
</g>
<!-- Node15 -->
<g id="Node000015" class="node">
<title>Node15</title>
<g id="a_Node000015"><a xlink:href="intrman_8c_source.html" target="_top" xlink:title=" ">
<polygon fill="white" stroke="#666666" points="1616.62,-30.5 1518.12,-30.5 1518.12,0 1616.62,0 1616.62,-30.5"/>
<text text-anchor="start" x="1526.12" y="-17" font-family="Helvetica,sans-Serif" font-size="10.00">iop/system/intrman</text>
<text text-anchor="middle" x="1567.38" y="-5.75" font-family="Helvetica,sans-Serif" font-size="10.00">/src/intrman.c</text>
</a>
</g>
</g>
<!-- Node14&#45;&gt;Node15 -->
<g id="edge14_Node000014_Node000015" class="edge">
<title>Node14&#45;&gt;Node15</title>
<g id="a_edge14_Node000014_Node000015"><a xlink:title=" ">
<path fill="none" stroke="#63b8ff" d="M1567.38,-54.81C1567.38,-46.64 1567.38,-37.91 1567.38,-30.83"/>
<polygon fill="#63b8ff" stroke="#63b8ff" points="1563.88,-54.6 1567.38,-64.6 1570.88,-54.6 1563.88,-54.6"/>
</a>
</g>
</g>
</g>
</svg>
