<?xml version="1.0" encoding="UTF-8" standalone="no"?>
<!DOCTYPE svg PUBLIC "-//W3C//DTD SVG 1.1//EN"
 "http://www.w3.org/Graphics/SVG/1.1/DTD/svg11.dtd">
<!-- Generated by graphviz version 2.43.0 (0)
 -->
<!-- Title: iop/fs/fakehost/src/fakehost.c Pages: 1 -->
<!--zoomable 263 -->
<svg id="main" version="1.1" xmlns="http://www.w3.org/2000/svg" xmlns:xlink="http://www.w3.org/1999/xlink" xml:space="preserve" onload="init(evt)">
<style type="text/css"><![CDATA[
.edge:hover path { stroke: red; }
.edge:hover polygon { stroke: red; fill: red; }
]]></style>
<script type="text/javascript"><![CDATA[
var edges = document.getElementsByTagName('g');
if (edges && edges.length) {
  for (var i=0;i<edges.length;i++) {
    if (edges[i].id.substr(0,4)=='edge') {
      edges[i].setAttribute('class','edge');
    }
  }
}
]]></script>
        <defs>
                <circle id="rim" cx="0" cy="0" r="7"/>
                <circle id="rim2" cx="0" cy="0" r="3.5"/>
                <g id="zoomPlus">
                        <use xlink:href="#rim" fill="#404040">
                                <set attributeName="fill" to="#808080" begin="zoomplus.mouseover" end="zoomplus.mouseout"/>
                        </use>
                        <path d="M-4,0h8M0,-4v8" fill="none" stroke="white" stroke-width="1.5" pointer-events="none"/>
                </g>
                <g id="zoomMin">
                        <use xlink:href="#rim" fill="#404040">
                                <set attributeName="fill" to="#808080" begin="zoomminus.mouseover" end="zoomminus.mouseout"/>
                        </use>
                        <path d="M-4,0h8" fill="none" stroke="white" stroke-width="1.5" pointer-events="none"/>
                </g>
                <g id="dirArrow">
                        <path fill="none" stroke="white" stroke-width="1.5" d="M0,-3.0v7 M-2.5,-0.5L0,-3.0L2.5,-0.5"/>
                </g>
               <g id="resetDef">
                       <use xlink:href="#rim2" fill="#404040">
                               <set attributeName="fill" to="#808080" begin="reset.mouseover" end="reset.mouseout"/>
                       </use>
               </g>
        </defs>

<script type="text/javascript">
var viewWidth = 994;
var viewHeight = 263;
var sectionId = 'dynsection-0';
</script>
<script xlink:href="svgpan.js"/>
<svg id="graph" class="graph">
<g id="viewport">
<title>iop/fs/fakehost/src/fakehost.c</title>
<polygon fill="white" stroke="transparent" points="-4,4 -4,-259 990,-259 990,4 -4,4"/>
<!-- Node1 -->
<g id="node1" class="node">
<title>Node1</title>
<g id="a_node1"><a xlink:title=" ">
<polygon fill="#bfbfbf" stroke="black" points="400.5,-224.5 400.5,-254.5 506.5,-254.5 506.5,-224.5 400.5,-224.5"/>
<text text-anchor="start" x="408.5" y="-242.5" font-family="Helvetica,sans-Serif" font-size="10.00">iop/fs/fakehost/src</text>
<text text-anchor="middle" x="453.5" y="-231.5" font-family="Helvetica,sans-Serif" font-size="10.00">/fakehost.c</text>
</a>
</g>
</g>
<!-- Node2 -->
<g id="node2" class="node">
<title>Node2</title>
<g id="a_node2"><a xlink:title=" ">
<polygon fill="white" stroke="#bfbfbf" points="468,-112.5 468,-131.5 521,-131.5 521,-112.5 468,-112.5"/>
<text text-anchor="middle" x="494.5" y="-119.5" font-family="Helvetica,sans-Serif" font-size="10.00">types.h</text>
</a>
</g>
</g>
<!-- Node1&#45;&gt;Node2 -->
<g id="edge1" class="edge">
<title>Node1&#45;&gt;Node2</title>
<path fill="none" stroke="midnightblue" d="M506.52,-237.42C543.58,-233.55 590.71,-221.7 615.5,-188 640.1,-154.57 575.32,-136.55 531.32,-128.44"/>
<polygon fill="midnightblue" stroke="midnightblue" points="531.65,-124.95 521.2,-126.68 530.45,-131.84 531.65,-124.95"/>
</g>
<!-- Node3 -->
<g id="node3" class="node">
<title>Node3</title>
<g id="a_node3"><a xlink:href="loadcore_8h.html" target="_top" xlink:title=" ">
<polygon fill="white" stroke="black" points="378.5,-168.5 378.5,-187.5 446.5,-187.5 446.5,-168.5 378.5,-168.5"/>
<text text-anchor="middle" x="412.5" y="-175.5" font-family="Helvetica,sans-Serif" font-size="10.00">loadcore.h</text>
</a>
</g>
</g>
<!-- Node1&#45;&gt;Node3 -->
<g id="edge2" class="edge">
<title>Node1&#45;&gt;Node3</title>
<path fill="none" stroke="midnightblue" d="M443.78,-224.4C437.95,-215.93 430.48,-205.1 424.31,-196.14"/>
<polygon fill="midnightblue" stroke="midnightblue" points="427.02,-193.91 418.47,-187.66 421.26,-197.88 427.02,-193.91"/>
</g>
<!-- Node8 -->
<g id="node8" class="node">
<title>Node8</title>
<g id="a_node8"><a xlink:href="stdio_8h.html" target="_top" xlink:title=" ">
<polygon fill="white" stroke="black" points="77.5,-168.5 77.5,-187.5 127.5,-187.5 127.5,-168.5 77.5,-168.5"/>
<text text-anchor="middle" x="102.5" y="-175.5" font-family="Helvetica,sans-Serif" font-size="10.00">stdio.h</text>
</a>
</g>
</g>
<!-- Node1&#45;&gt;Node8 -->
<g id="edge8" class="edge">
<title>Node1&#45;&gt;Node8</title>
<path fill="none" stroke="midnightblue" d="M400.48,-231.72C339.38,-223.53 235.81,-208.52 137.76,-188.09"/>
<polygon fill="midnightblue" stroke="midnightblue" points="138.19,-184.61 127.68,-185.97 136.75,-191.46 138.19,-184.61"/>
</g>
<!-- Node10 -->
<g id="node10" class="node">
<title>Node10</title>
<g id="a_node10"><a xlink:href="sysclib_8h.html" target="_top" xlink:title=" ">
<polygon fill="white" stroke="black" points="0,-168.5 0,-187.5 59,-187.5 59,-168.5 0,-168.5"/>
<text text-anchor="middle" x="29.5" y="-175.5" font-family="Helvetica,sans-Serif" font-size="10.00">sysclib.h</text>
</a>
</g>
</g>
<!-- Node1&#45;&gt;Node10 -->
<g id="edge11" class="edge">
<title>Node1&#45;&gt;Node10</title>
<path fill="none" stroke="midnightblue" d="M400.32,-233.16C327.77,-225.52 193.57,-210.1 69.32,-187.99"/>
<polygon fill="midnightblue" stroke="midnightblue" points="69.71,-184.5 59.25,-186.18 68.47,-191.39 69.71,-184.5"/>
</g>
<!-- Node13 -->
<g id="node13" class="node">
<title>Node13</title>
<g id="a_node13"><a xlink:href="errno_8h.html" target="_top" xlink:title=" ">
<polygon fill="white" stroke="black" points="309,-168.5 309,-187.5 360,-187.5 360,-168.5 309,-168.5"/>
<text text-anchor="middle" x="334.5" y="-175.5" font-family="Helvetica,sans-Serif" font-size="10.00">errno.h</text>
</a>
</g>
</g>
<!-- Node1&#45;&gt;Node13 -->
<g id="edge18" class="edge">
<title>Node1&#45;&gt;Node13</title>
<path fill="none" stroke="midnightblue" d="M425.3,-224.4C405.78,-214.64 379.97,-201.74 360.87,-192.18"/>
<polygon fill="midnightblue" stroke="midnightblue" points="362.33,-189 351.82,-187.66 359.19,-195.26 362.33,-189"/>
</g>
<!-- Node14 -->
<g id="node14" class="node">
<title>Node14</title>
<g id="a_node14"><a xlink:href="thbase_8h.html" target="_top" xlink:title=" ">
<polygon fill="white" stroke="black" points="465,-168.5 465,-187.5 524,-187.5 524,-168.5 465,-168.5"/>
<text text-anchor="middle" x="494.5" y="-175.5" font-family="Helvetica,sans-Serif" font-size="10.00">thbase.h</text>
</a>
</g>
</g>
<!-- Node1&#45;&gt;Node14 -->
<g id="edge19" class="edge">
<title>Node1&#45;&gt;Node14</title>
<path fill="none" stroke="midnightblue" d="M463.22,-224.4C469.05,-215.93 476.52,-205.1 482.69,-196.14"/>
<polygon fill="midnightblue" stroke="midnightblue" points="485.74,-197.88 488.53,-187.66 479.98,-193.91 485.74,-197.88"/>
</g>
<!-- Node15 -->
<g id="node15" class="node">
<title>Node15</title>
<g id="a_node15"><a xlink:href="intrman_8h.html" target="_top" xlink:title=" ">
<polygon fill="white" stroke="black" points="542.5,-168.5 542.5,-187.5 606.5,-187.5 606.5,-168.5 542.5,-168.5"/>
<text text-anchor="middle" x="574.5" y="-175.5" font-family="Helvetica,sans-Serif" font-size="10.00">intrman.h</text>
</a>
</g>
</g>
<!-- Node1&#45;&gt;Node15 -->
<g id="edge22" class="edge">
<title>Node1&#45;&gt;Node15</title>
<path fill="none" stroke="midnightblue" d="M482.18,-224.4C502.02,-214.64 528.26,-201.74 547.69,-192.18"/>
<polygon fill="midnightblue" stroke="midnightblue" points="549.46,-195.21 556.89,-187.66 546.38,-188.93 549.46,-195.21"/>
</g>
<!-- Node16 -->
<g id="node16" class="node">
<title>Node16</title>
<g id="a_node16"><a xlink:href="sysmem_8h.html" target="_top" xlink:title=" ">
<polygon fill="white" stroke="black" points="145.5,-168.5 145.5,-187.5 213.5,-187.5 213.5,-168.5 145.5,-168.5"/>
<text text-anchor="middle" x="179.5" y="-175.5" font-family="Helvetica,sans-Serif" font-size="10.00">sysmem.h</text>
</a>
</g>
</g>
<!-- Node1&#45;&gt;Node16 -->
<g id="edge25" class="edge">
<title>Node1&#45;&gt;Node16</title>
<path fill="none" stroke="midnightblue" d="M400.35,-226.96C348.91,-215.79 271.86,-199.06 223.69,-188.6"/>
<polygon fill="midnightblue" stroke="midnightblue" points="224.39,-185.17 213.87,-186.46 222.9,-192.01 224.39,-185.17"/>
</g>
<!-- Node17 -->
<g id="node17" class="node">
<title>Node17</title>
<g id="a_node17"><a xlink:href="sifman_8h.html" target="_top" xlink:title=" ">
<polygon fill="white" stroke="black" points="232,-168.5 232,-187.5 291,-187.5 291,-168.5 232,-168.5"/>
<text text-anchor="middle" x="261.5" y="-175.5" font-family="Helvetica,sans-Serif" font-size="10.00">sifman.h</text>
</a>
</g>
</g>
<!-- Node1&#45;&gt;Node17 -->
<g id="edge29" class="edge">
<title>Node1&#45;&gt;Node17</title>
<path fill="none" stroke="midnightblue" d="M408,-224.4C374.68,-214.07 330.01,-200.23 298.79,-190.56"/>
<polygon fill="midnightblue" stroke="midnightblue" points="299.75,-187.19 289.16,-187.57 297.67,-193.87 299.75,-187.19"/>
</g>
<!-- Node18 -->
<g id="node18" class="node">
<title>Node18</title>
<g id="a_node18"><a xlink:title=" ">
<polygon fill="white" stroke="#bfbfbf" points="663,-168.5 663,-187.5 722,-187.5 722,-168.5 663,-168.5"/>
<text text-anchor="middle" x="692.5" y="-175.5" font-family="Helvetica,sans-Serif" font-size="10.00">sifcmd.h</text>
</a>
</g>
</g>
<!-- Node1&#45;&gt;Node18 -->
<g id="edge32" class="edge">
<title>Node1&#45;&gt;Node18</title>
<path fill="none" stroke="midnightblue" d="M506.54,-225.3C550.82,-214.27 612.95,-198.8 652.97,-188.84"/>
<polygon fill="midnightblue" stroke="midnightblue" points="654.03,-192.18 662.89,-186.37 652.34,-185.39 654.03,-192.18"/>
</g>
<!-- Node19 -->
<g id="node19" class="node">
<title>Node19</title>
<g id="a_node19"><a xlink:href="ioman_x_8h.html" target="_top" xlink:title=" ">
<polygon fill="white" stroke="black" points="740,-168.5 740,-187.5 803,-187.5 803,-168.5 740,-168.5"/>
<text text-anchor="middle" x="771.5" y="-175.5" font-family="Helvetica,sans-Serif" font-size="10.00">iomanX.h</text>
</a>
</g>
</g>
<!-- Node1&#45;&gt;Node19 -->
<g id="edge33" class="edge">
<title>Node1&#45;&gt;Node19</title>
<path fill="none" stroke="midnightblue" d="M506.66,-229.52C560.57,-220.26 646.64,-205.06 729.79,-188.29"/>
<polygon fill="midnightblue" stroke="midnightblue" points="730.54,-191.71 739.65,-186.29 729.15,-184.85 730.54,-191.71"/>
</g>
<!-- Node25 -->
<g id="node25" class="node">
<title>Node25</title>
<g id="a_node25"><a xlink:href="ioman__mod_8h.html" target="_top" xlink:title=" ">
<polygon fill="white" stroke="black" points="821,-168.5 821,-187.5 904,-187.5 904,-168.5 821,-168.5"/>
<text text-anchor="middle" x="862.5" y="-175.5" font-family="Helvetica,sans-Serif" font-size="10.00">ioman_mod.h</text>
</a>
</g>
</g>
<!-- Node1&#45;&gt;Node25 -->
<g id="edge41" class="edge">
<title>Node1&#45;&gt;Node25</title>
<path fill="none" stroke="midnightblue" d="M506.52,-231.69C574.66,-222.79 696.88,-206.35 810.84,-188.22"/>
<polygon fill="midnightblue" stroke="midnightblue" points="811.46,-191.67 820.78,-186.63 810.35,-184.76 811.46,-191.67"/>
</g>
<!-- Node3&#45;&gt;Node2 -->
<g id="edge3" class="edge">
<title>Node3&#45;&gt;Node2</title>
<path fill="none" stroke="midnightblue" d="M425.67,-168.32C438.35,-159.98 457.73,-147.21 472.71,-137.35"/>
<polygon fill="midnightblue" stroke="midnightblue" points="474.93,-140.08 481.36,-131.65 471.08,-134.23 474.93,-140.08"/>
</g>
<!-- Node4 -->
<g id="node4" class="node">
<title>Node4</title>
<g id="a_node4"><a xlink:href="irx_8h.html" target="_top" xlink:title=" ">
<polygon fill="white" stroke="black" points="242.5,-112.5 242.5,-131.5 280.5,-131.5 280.5,-112.5 242.5,-112.5"/>
<text text-anchor="middle" x="261.5" y="-119.5" font-family="Helvetica,sans-Serif" font-size="10.00">irx.h</text>
</a>
</g>
</g>
<!-- Node3&#45;&gt;Node4 -->
<g id="edge4" class="edge">
<title>Node3&#45;&gt;Node4</title>
<path fill="none" stroke="midnightblue" d="M388.57,-168.44C361.91,-158.91 318.81,-143.49 290.31,-133.3"/>
<polygon fill="midnightblue" stroke="midnightblue" points="291.13,-129.88 280.53,-129.81 288.77,-136.47 291.13,-129.88"/>
</g>
<!-- Node5 -->
<g id="node5" class="node">
<title>Node5</title>
<g id="a_node5"><a xlink:href="iop_2kernel_2include_2types_8h_source.html" target="_top" xlink:title=" ">
<polygon fill="white" stroke="black" points="193,-56.5 193,-75.5 246,-75.5 246,-56.5 193,-56.5"/>
<text text-anchor="middle" x="219.5" y="-63.5" font-family="Helvetica,sans-Serif" font-size="10.00">types.h</text>
</a>
</g>
</g>
<!-- Node4&#45;&gt;Node5 -->
<g id="edge5" class="edge">
<title>Node4&#45;&gt;Node5</title>
<path fill="none" stroke="midnightblue" d="M254.56,-112.08C248.57,-104.38 239.75,-93.03 232.45,-83.65"/>
<polygon fill="midnightblue" stroke="midnightblue" points="235.21,-81.5 226.31,-75.75 229.68,-85.79 235.21,-81.5"/>
</g>
<!-- Node6 -->
<g id="node6" class="node">
<title>Node6</title>
<g id="a_node6"><a xlink:title=" ">
<polygon fill="white" stroke="#bfbfbf" points="191.5,-0.5 191.5,-19.5 247.5,-19.5 247.5,-0.5 191.5,-0.5"/>
<text text-anchor="middle" x="219.5" y="-7.5" font-family="Helvetica,sans-Serif" font-size="10.00">stddef.h</text>
</a>
</g>
</g>
<!-- Node5&#45;&gt;Node6 -->
<g id="edge6" class="edge">
<title>Node5&#45;&gt;Node6</title>
<path fill="none" stroke="midnightblue" d="M219.5,-56.08C219.5,-49.01 219.5,-38.86 219.5,-29.99"/>
<polygon fill="midnightblue" stroke="midnightblue" points="223,-29.75 219.5,-19.75 216,-29.75 223,-29.75"/>
</g>
<!-- Node7 -->
<g id="node7" class="node">
<title>Node7</title>
<g id="a_node7"><a xlink:href="tamtypes_8h.html" target="_top" xlink:title=" ">
<polygon fill="white" stroke="black" points="90.5,-0.5 90.5,-19.5 162.5,-19.5 162.5,-0.5 90.5,-0.5"/>
<text text-anchor="middle" x="126.5" y="-7.5" font-family="Helvetica,sans-Serif" font-size="10.00">tamtypes.h</text>
</a>
</g>
</g>
<!-- Node5&#45;&gt;Node7 -->
<g id="edge7" class="edge">
<title>Node5&#45;&gt;Node7</title>
<path fill="none" stroke="midnightblue" d="M204.56,-56.32C189.91,-47.82 167.37,-34.73 150.26,-24.8"/>
<polygon fill="midnightblue" stroke="midnightblue" points="151.81,-21.65 141.4,-19.65 148.3,-27.7 151.81,-21.65"/>
</g>
<!-- Node8&#45;&gt;Node4 -->
<g id="edge10" class="edge">
<title>Node8&#45;&gt;Node4</title>
<path fill="none" stroke="midnightblue" d="M127.69,-168.44C156.33,-158.72 202.98,-142.88 232.94,-132.7"/>
<polygon fill="midnightblue" stroke="midnightblue" points="234.07,-136.01 242.41,-129.48 231.82,-129.38 234.07,-136.01"/>
</g>
<!-- Node9 -->
<g id="node9" class="node">
<title>Node9</title>
<g id="a_node9"><a xlink:title=" ">
<polygon fill="white" stroke="#bfbfbf" points="132.5,-112.5 132.5,-131.5 188.5,-131.5 188.5,-112.5 132.5,-112.5"/>
<text text-anchor="middle" x="160.5" y="-119.5" font-family="Helvetica,sans-Serif" font-size="10.00">stdarg.h</text>
</a>
</g>
</g>
<!-- Node8&#45;&gt;Node9 -->
<g id="edge9" class="edge">
<title>Node8&#45;&gt;Node9</title>
<path fill="none" stroke="midnightblue" d="M111.82,-168.32C120.39,-160.34 133.31,-148.31 143.69,-138.65"/>
<polygon fill="midnightblue" stroke="midnightblue" points="146.08,-141.21 151.01,-131.83 141.31,-136.09 146.08,-141.21"/>
</g>
<!-- Node10&#45;&gt;Node2 -->
<g id="edge12" class="edge">
<title>Node10&#45;&gt;Node2</title>
<path fill="none" stroke="midnightblue" d="M59.24,-169.75C62.35,-169.1 65.48,-168.51 68.5,-168 211.46,-144.04 383.68,-130.48 457.73,-125.37"/>
<polygon fill="midnightblue" stroke="midnightblue" points="458.19,-128.85 467.93,-124.68 457.71,-121.87 458.19,-128.85"/>
</g>
<!-- Node10&#45;&gt;Node4 -->
<g id="edge13" class="edge">
<title>Node10&#45;&gt;Node4</title>
<path fill="none" stroke="midnightblue" d="M59.35,-170.05C104.11,-159.63 188.05,-140.1 232.37,-129.78"/>
<polygon fill="midnightblue" stroke="midnightblue" points="233.28,-133.16 242.23,-127.49 231.7,-126.34 233.28,-133.16"/>
</g>
<!-- Node10&#45;&gt;Node9 -->
<g id="edge14" class="edge">
<title>Node10&#45;&gt;Node9</title>
<path fill="none" stroke="midnightblue" d="M50.26,-168.44C71.82,-159.56 105.76,-145.56 130.29,-135.45"/>
<polygon fill="midnightblue" stroke="midnightblue" points="131.93,-138.56 139.84,-131.52 129.26,-132.09 131.93,-138.56"/>
</g>
<!-- Node11 -->
<g id="node11" class="node">
<title>Node11</title>
<g id="a_node11"><a xlink:href="setjmp_8h.html" target="_top" xlink:title=" ">
<polygon fill="white" stroke="black" points="76,-56.5 76,-75.5 135,-75.5 135,-56.5 76,-56.5"/>
<text text-anchor="middle" x="105.5" y="-63.5" font-family="Helvetica,sans-Serif" font-size="10.00">setjmp.h</text>
</a>
</g>
</g>
<!-- Node10&#45;&gt;Node11 -->
<g id="edge15" class="edge">
<title>Node10&#45;&gt;Node11</title>
<path fill="none" stroke="midnightblue" d="M36.74,-168.23C44.01,-159.3 55.4,-144.96 64.5,-132 75.6,-116.18 87.27,-97.45 95.3,-84.17"/>
<polygon fill="midnightblue" stroke="midnightblue" points="98.31,-85.96 100.45,-75.59 92.31,-82.36 98.31,-85.96"/>
</g>
<!-- Node12 -->
<g id="node12" class="node">
<title>Node12</title>
<g id="a_node12"><a xlink:href="ctype_8h.html" target="_top" xlink:title=" ">
<polygon fill="white" stroke="black" points="3,-112.5 3,-131.5 56,-131.5 56,-112.5 3,-112.5"/>
<text text-anchor="middle" x="29.5" y="-119.5" font-family="Helvetica,sans-Serif" font-size="10.00">ctype.h</text>
</a>
</g>
</g>
<!-- Node10&#45;&gt;Node12 -->
<g id="edge17" class="edge">
<title>Node10&#45;&gt;Node12</title>
<path fill="none" stroke="midnightblue" d="M29.5,-168.08C29.5,-161.01 29.5,-150.86 29.5,-141.99"/>
<polygon fill="midnightblue" stroke="midnightblue" points="33,-141.75 29.5,-131.75 26,-141.75 33,-141.75"/>
</g>
<!-- Node11&#45;&gt;Node7 -->
<g id="edge16" class="edge">
<title>Node11&#45;&gt;Node7</title>
<path fill="none" stroke="midnightblue" d="M108.97,-56.08C111.81,-48.77 115.93,-38.18 119.46,-29.1"/>
<polygon fill="midnightblue" stroke="midnightblue" points="122.73,-30.34 123.1,-19.75 116.21,-27.8 122.73,-30.34"/>
</g>
<!-- Node14&#45;&gt;Node2 -->
<g id="edge20" class="edge">
<title>Node14&#45;&gt;Node2</title>
<path fill="none" stroke="midnightblue" d="M494.5,-168.08C494.5,-161.01 494.5,-150.86 494.5,-141.99"/>
<polygon fill="midnightblue" stroke="midnightblue" points="498,-141.75 494.5,-131.75 491,-141.75 498,-141.75"/>
</g>
<!-- Node14&#45;&gt;Node4 -->
<g id="edge21" class="edge">
<title>Node14&#45;&gt;Node4</title>
<path fill="none" stroke="midnightblue" d="M464.99,-170.16C420.1,-159.76 335.16,-140.07 290.55,-129.73"/>
<polygon fill="midnightblue" stroke="midnightblue" points="291.17,-126.28 280.64,-127.43 289.59,-133.1 291.17,-126.28"/>
</g>
<!-- Node15&#45;&gt;Node2 -->
<g id="edge23" class="edge">
<title>Node15&#45;&gt;Node2</title>
<path fill="none" stroke="midnightblue" d="M561.65,-168.32C549.28,-159.98 530.37,-147.21 515.76,-137.35"/>
<polygon fill="midnightblue" stroke="midnightblue" points="517.57,-134.35 507.32,-131.65 513.65,-140.15 517.57,-134.35"/>
</g>
<!-- Node15&#45;&gt;Node4 -->
<g id="edge24" class="edge">
<title>Node15&#45;&gt;Node4</title>
<path fill="none" stroke="midnightblue" d="M542.3,-169.77C539.33,-169.15 536.36,-168.55 533.5,-168 445.48,-151.07 340.69,-134.83 290.76,-127.33"/>
<polygon fill="midnightblue" stroke="midnightblue" points="291.1,-123.84 280.69,-125.82 290.06,-130.76 291.1,-123.84"/>
</g>
<!-- Node16&#45;&gt;Node2 -->
<g id="edge26" class="edge">
<title>Node16&#45;&gt;Node2</title>
<path fill="none" stroke="midnightblue" d="M213.74,-169.7C216.7,-169.11 219.65,-168.53 222.5,-168 306.35,-152.3 405.28,-136.65 457.65,-128.59"/>
<polygon fill="midnightblue" stroke="midnightblue" points="458.44,-132.01 467.79,-127.03 457.38,-125.09 458.44,-132.01"/>
</g>
<!-- Node16&#45;&gt;Node4 -->
<g id="edge27" class="edge">
<title>Node16&#45;&gt;Node4</title>
<path fill="none" stroke="midnightblue" d="M192.67,-168.32C205.35,-159.98 224.73,-147.21 239.71,-137.35"/>
<polygon fill="midnightblue" stroke="midnightblue" points="241.93,-140.08 248.36,-131.65 238.08,-134.23 241.93,-140.08"/>
</g>
<!-- Node16&#45;&gt;Node9 -->
<g id="edge28" class="edge">
<title>Node16&#45;&gt;Node9</title>
<path fill="none" stroke="midnightblue" d="M176.36,-168.08C173.82,-160.85 170.14,-150.41 166.97,-141.4"/>
<polygon fill="midnightblue" stroke="midnightblue" points="170.2,-140.02 163.58,-131.75 163.6,-142.35 170.2,-140.02"/>
</g>
<!-- Node17&#45;&gt;Node2 -->
<g id="edge30" class="edge">
<title>Node17&#45;&gt;Node2</title>
<path fill="none" stroke="midnightblue" d="M291.01,-170.16C333.47,-160.32 411.76,-142.18 457.87,-131.49"/>
<polygon fill="midnightblue" stroke="midnightblue" points="458.8,-134.87 467.75,-129.2 457.22,-128.05 458.8,-134.87"/>
</g>
<!-- Node17&#45;&gt;Node4 -->
<g id="edge31" class="edge">
<title>Node17&#45;&gt;Node4</title>
<path fill="none" stroke="midnightblue" d="M261.5,-168.08C261.5,-161.01 261.5,-150.86 261.5,-141.99"/>
<polygon fill="midnightblue" stroke="midnightblue" points="265,-141.75 261.5,-131.75 258,-141.75 265,-141.75"/>
</g>
<!-- Node19&#45;&gt;Node2 -->
<g id="edge34" class="edge">
<title>Node19&#45;&gt;Node2</title>
<path fill="none" stroke="midnightblue" d="M739.64,-169.73C736.89,-169.13 734.15,-168.55 731.5,-168 660.78,-153.33 577.79,-138.01 531.15,-129.56"/>
<polygon fill="midnightblue" stroke="midnightblue" points="531.68,-126.1 521.21,-127.77 530.43,-132.99 531.68,-126.1"/>
</g>
<!-- Node19&#45;&gt;Node9 -->
<g id="edge35" class="edge">
<title>Node19&#45;&gt;Node9</title>
<path fill="none" stroke="midnightblue" d="M739.7,-169.4C736.94,-168.87 734.18,-168.4 731.5,-168 511.97,-135.55 454.36,-153.58 233.5,-132 222.12,-130.89 209.76,-129.45 198.51,-128.05"/>
<polygon fill="midnightblue" stroke="midnightblue" points="198.9,-124.58 188.54,-126.79 198.02,-131.52 198.9,-124.58"/>
</g>
<!-- Node20 -->
<g id="node20" class="node">
<title>Node20</title>
<g id="a_node20"><a xlink:href="io__common_8h.html" target="_top" xlink:title=" ">
<polygon fill="white" stroke="black" points="821,-112.5 821,-131.5 904,-131.5 904,-112.5 821,-112.5"/>
<text text-anchor="middle" x="862.5" y="-119.5" font-family="Helvetica,sans-Serif" font-size="10.00">io_common.h</text>
</a>
</g>
</g>
<!-- Node19&#45;&gt;Node20 -->
<g id="edge36" class="edge">
<title>Node19&#45;&gt;Node20</title>
<path fill="none" stroke="midnightblue" d="M786.12,-168.32C800.45,-159.82 822.51,-146.73 839.25,-136.8"/>
<polygon fill="midnightblue" stroke="midnightblue" points="841.1,-139.77 847.92,-131.65 837.53,-133.75 841.1,-139.77"/>
</g>
<!-- Node23 -->
<g id="node23" class="node">
<title>Node23</title>
<g id="a_node23"><a xlink:href="iox__stat_8h.html" target="_top" xlink:title=" ">
<polygon fill="white" stroke="black" points="738,-112.5 738,-131.5 803,-131.5 803,-112.5 738,-112.5"/>
<text text-anchor="middle" x="770.5" y="-119.5" font-family="Helvetica,sans-Serif" font-size="10.00">iox_stat.h</text>
</a>
</g>
</g>
<!-- Node19&#45;&gt;Node23 -->
<g id="edge39" class="edge">
<title>Node19&#45;&gt;Node23</title>
<path fill="none" stroke="midnightblue" d="M771.33,-168.08C771.2,-161.01 771.02,-150.86 770.85,-141.99"/>
<polygon fill="midnightblue" stroke="midnightblue" points="774.35,-141.68 770.66,-131.75 767.35,-141.81 774.35,-141.68"/>
</g>
<!-- Node21 -->
<g id="node21" class="node">
<title>Node21</title>
<g id="a_node21"><a xlink:href="sys_2fcntl_8h_source.html" target="_top" xlink:title=" ">
<polygon fill="white" stroke="black" points="826,-56.5 826,-75.5 893,-75.5 893,-56.5 826,-56.5"/>
<text text-anchor="middle" x="859.5" y="-63.5" font-family="Helvetica,sans-Serif" font-size="10.00">sys/fcntl.h</text>
</a>
</g>
</g>
<!-- Node20&#45;&gt;Node21 -->
<g id="edge37" class="edge">
<title>Node20&#45;&gt;Node21</title>
<path fill="none" stroke="midnightblue" d="M862,-112.08C861.61,-105.01 861.05,-94.86 860.55,-85.99"/>
<polygon fill="midnightblue" stroke="midnightblue" points="864.04,-85.54 859.99,-75.75 857.05,-85.93 864.04,-85.54"/>
</g>
<!-- Node22 -->
<g id="node22" class="node">
<title>Node22</title>
<g id="a_node22"><a xlink:href="unistd_8h_source.html" target="_top" xlink:title=" ">
<polygon fill="white" stroke="black" points="911,-56.5 911,-75.5 986,-75.5 986,-56.5 911,-56.5"/>
<text text-anchor="middle" x="948.5" y="-63.5" font-family="Helvetica,sans-Serif" font-size="10.00">sys/unistd.h</text>
</a>
</g>
</g>
<!-- Node20&#45;&gt;Node22 -->
<g id="edge38" class="edge">
<title>Node20&#45;&gt;Node22</title>
<path fill="none" stroke="midnightblue" d="M876.32,-112.32C889.73,-103.9 910.32,-90.97 926.09,-81.07"/>
<polygon fill="midnightblue" stroke="midnightblue" points="928.11,-83.94 934.72,-75.65 924.39,-78.01 928.11,-83.94"/>
</g>
<!-- Node24 -->
<g id="node24" class="node">
<title>Node24</title>
<g id="a_node24"><a xlink:href="time_8h.html" target="_top" xlink:title=" ">
<polygon fill="white" stroke="black" points="736.5,-56.5 736.5,-75.5 804.5,-75.5 804.5,-56.5 736.5,-56.5"/>
<text text-anchor="middle" x="770.5" y="-63.5" font-family="Helvetica,sans-Serif" font-size="10.00">sys/time.h</text>
</a>
</g>
</g>
<!-- Node23&#45;&gt;Node24 -->
<g id="edge40" class="edge">
<title>Node23&#45;&gt;Node24</title>
<path fill="none" stroke="midnightblue" d="M770.5,-112.08C770.5,-105.01 770.5,-94.86 770.5,-85.99"/>
<polygon fill="midnightblue" stroke="midnightblue" points="774,-85.75 770.5,-75.75 767,-85.75 774,-85.75"/>
</g>
<!-- Node25&#45;&gt;Node2 -->
<g id="edge42" class="edge">
<title>Node25&#45;&gt;Node2</title>
<path fill="none" stroke="midnightblue" d="M820.78,-169.37C817.98,-168.89 815.2,-168.43 812.5,-168 710.97,-151.68 590.69,-135.52 531.36,-127.76"/>
<polygon fill="midnightblue" stroke="midnightblue" points="531.72,-124.28 521.35,-126.45 530.82,-131.22 531.72,-124.28"/>
</g>
<!-- Node25&#45;&gt;Node4 -->
<g id="edge43" class="edge">
<title>Node25&#45;&gt;Node4</title>
<path fill="none" stroke="midnightblue" d="M820.81,-169.18C818,-168.75 815.21,-168.35 812.5,-168 613.94,-142.08 373.06,-128.52 290.72,-124.39"/>
<polygon fill="midnightblue" stroke="midnightblue" points="290.76,-120.89 280.6,-123.89 290.42,-127.88 290.76,-120.89"/>
</g>
<!-- Node25&#45;&gt;Node20 -->
<g id="edge44" class="edge">
<title>Node25&#45;&gt;Node20</title>
<path fill="none" stroke="midnightblue" d="M862.5,-168.08C862.5,-161.01 862.5,-150.86 862.5,-141.99"/>
<polygon fill="midnightblue" stroke="midnightblue" points="866,-141.75 862.5,-131.75 859,-141.75 866,-141.75"/>
</g>
<!-- Node25&#45;&gt;Node23 -->
<g id="edge45" class="edge">
<title>Node25&#45;&gt;Node23</title>
<path fill="none" stroke="midnightblue" d="M847.72,-168.32C833.23,-159.82 810.93,-146.73 794.01,-136.8"/>
<polygon fill="midnightblue" stroke="midnightblue" points="795.64,-133.7 785.24,-131.65 792.1,-139.74 795.64,-133.7"/>
</g>
</g>
</svg>
        <g id="navigator" transform="translate(0 0)" fill="#404254">
                <rect fill="#f2f5e9" fill-opacity="0.5" stroke="#606060" stroke-width=".5" x="0" y="0" width="60" height="60"/>
                <use id="zoomplus" xlink:href="#zoomPlus" x="17" y="9" onmousedown="handleZoom(evt,'in')"/>
                <use id="zoomminus" xlink:href="#zoomMin" x="42" y="9" onmousedown="handleZoom(evt,'out')"/>
                <use id="reset" xlink:href="#resetDef" x="30" y="36" onmousedown="handleReset()"/>
                <g id="arrowUp" xlink:href="#dirArrow" transform="translate(30 24)" onmousedown="handlePan(0,-1)">
                  <use xlink:href="#rim" fill="#404040">
                        <set attributeName="fill" to="#808080" begin="arrowUp.mouseover" end="arrowUp.mouseout"/>
                  </use>
                  <path fill="none" stroke="white" stroke-width="1.5" d="M0,-3.0v7 M-2.5,-0.5L0,-3.0L2.5,-0.5"/>
                </g>
                <g id="arrowRight" xlink:href="#dirArrow" transform="rotate(90) translate(36 -43)" onmousedown="handlePan(1,0)">
                  <use xlink:href="#rim" fill="#404040">
                        <set attributeName="fill" to="#808080" begin="arrowRight.mouseover" end="arrowRight.mouseout"/>
                  </use>
                  <path fill="none" stroke="white" stroke-width="1.5" d="M0,-3.0v7 M-2.5,-0.5L0,-3.0L2.5,-0.5"/>
                </g>
                <g id="arrowDown" xlink:href="#dirArrow" transform="rotate(180) translate(-30 -48)" onmousedown="handlePan(0,1)">
                  <use xlink:href="#rim" fill="#404040">
                        <set attributeName="fill" to="#808080" begin="arrowDown.mouseover" end="arrowDown.mouseout"/>
                  </use>
                  <path fill="none" stroke="white" stroke-width="1.5" d="M0,-3.0v7 M-2.5,-0.5L0,-3.0L2.5,-0.5"/>
                </g>
                <g id="arrowLeft" xlink:href="#dirArrow" transform="rotate(270) translate(-36 17)" onmousedown="handlePan(-1,0)">
                  <use xlink:href="#rim" fill="#404040">
                        <set attributeName="fill" to="#808080" begin="arrowLeft.mouseover" end="arrowLeft.mouseout"/>
                  </use>
                  <path fill="none" stroke="white" stroke-width="1.5" d="M0,-3.0v7 M-2.5,-0.5L0,-3.0L2.5,-0.5"/>
                </g>
        </g>
        <svg viewBox="0 0 15 15" width="100%" height="30px" preserveAspectRatio="xMaxYMin meet">
         <g id="arrow_out" transform="scale(0.3 0.3)">
          <a xlink:href="fakehost_8c__incl_org.svg" target="_base">
           <rect id="button" ry="5" rx="5" y="6" x="6" height="38" width="38"
                fill="#f2f5e9" fill-opacity="0.5" stroke="#606060" stroke-width="1.0"/>
           <path id="arrow"
             d="M 11.500037,31.436501 C 11.940474,20.09759 22.043105,11.32322 32.158766,21.979434 L 37.068811,17.246167 C 37.068811,17.246167 37.088388,32 37.088388,32 L 22.160133,31.978069 C 22.160133,31.978069 26.997745,27.140456 26.997745,27.140456 C 18.528582,18.264221 13.291696,25.230495 11.500037,31.436501 z"
             style="fill:#404040;"/>
          </a>
         </g>
        </svg>
</svg>
