<?xml version="1.0" encoding="UTF-8" standalone="no"?>
<!DOCTYPE svg PUBLIC "-//W3C//DTD SVG 1.1//EN"
 "http://www.w3.org/Graphics/SVG/1.1/DTD/svg11.dtd">
<!-- Generated by graphviz version 9.0.0 (20230911.1827)
 -->
<!-- Title: ee/font/include/font.h Pages: 1 -->
<svg width="894pt" height="304pt"
 viewBox="0.00 0.00 893.81 303.50" xmlns="http://www.w3.org/2000/svg" xmlns:xlink="http://www.w3.org/1999/xlink">
<g id="graph0" class="graph" transform="scale(1 1) rotate(0) translate(4 299.5)">
<title>ee/font/include/font.h</title>
<!-- Node1 -->
<g id="Node000001" class="node">
<title>Node1</title>
<g id="a_Node000001"><a xlink:title=" ">
<polygon fill="#999999" stroke="#666666" points="272.31,-295.5 165.56,-295.5 165.56,-276.25 272.31,-276.25 272.31,-295.5"/>
<text text-anchor="middle" x="218.94" y="-282" font-family="Helvetica,sans-Serif" font-size="10.00">ee/font/include/font.h</text>
</a>
</g>
</g>
<!-- Node2 -->
<g id="Node000002" class="node">
<title>Node2</title>
<g id="a_Node000002"><a xlink:href="draw_8h.html" target="_top" xlink:title=" ">
<polygon fill="white" stroke="#666666" points="462.19,-240.25 417.69,-240.25 417.69,-221 462.19,-221 462.19,-240.25"/>
<text text-anchor="middle" x="439.94" y="-226.75" font-family="Helvetica,sans-Serif" font-size="10.00">draw.h</text>
</a>
</g>
</g>
<!-- Node1&#45;&gt;Node2 -->
<g id="edge1_Node000001_Node000002" class="edge">
<title>Node1&#45;&gt;Node2</title>
<g id="a_edge1_Node000001_Node000002"><a xlink:title=" ">
<path fill="none" stroke="#63b8ff" d="M256.68,-275.78C298.64,-265.67 365.81,-249.49 406.12,-239.77"/>
<polygon fill="#63b8ff" stroke="#63b8ff" points="406.85,-243.2 415.75,-237.45 405.21,-236.39 406.85,-243.2"/>
</a>
</g>
</g>
<!-- Node3 -->
<g id="Node000003" class="node">
<title>Node3</title>
<g id="a_Node000003"><a xlink:href="tamtypes_8h.html" target="_top" xlink:title=" ">
<polygon fill="white" stroke="#666666" points="461.56,-19.25 398.31,-19.25 398.31,0 461.56,0 461.56,-19.25"/>
<text text-anchor="middle" x="429.94" y="-5.75" font-family="Helvetica,sans-Serif" font-size="10.00">tamtypes.h</text>
</a>
</g>
</g>
<!-- Node1&#45;&gt;Node3 -->
<g id="edge32_Node000001_Node000003" class="edge">
<title>Node1&#45;&gt;Node3</title>
<g id="a_edge32_Node000001_Node000003"><a xlink:title=" ">
<path fill="none" stroke="#63b8ff" d="M165.33,-281.15C100.78,-273.42 0.94,-249.62 0.94,-176.38 0.94,-176.38 0.94,-176.38 0.94,-119.12 0.94,-89.51 -2.81,-74.22 19.94,-55.25 47.71,-32.09 287.01,-17.69 386.67,-12.65"/>
<polygon fill="#63b8ff" stroke="#63b8ff" points="386.78,-16.15 396.59,-12.16 386.43,-9.16 386.78,-16.15"/>
</a>
</g>
</g>
<!-- Node2&#45;&gt;Node3 -->
<g id="edge2_Node000002_Node000003" class="edge">
<title>Node2&#45;&gt;Node3</title>
<g id="a_edge2_Node000002_Node000003"><a xlink:title=" ">
<path fill="none" stroke="#63b8ff" d="M462.46,-227.52C515.32,-222.25 645.69,-207.33 682.94,-185 739.14,-151.32 795.98,-104.65 752.94,-55.25 717.14,-14.16 552.49,-9.64 473.05,-9.92"/>
<polygon fill="#63b8ff" stroke="#63b8ff" points="473.47,-6.41 463.49,-9.98 473.51,-13.41 473.47,-6.41"/>
</a>
</g>
</g>
<!-- Node4 -->
<g id="Node000004" class="node">
<title>Node4</title>
<g id="a_Node000004"><a xlink:href="draw__blending_8h.html" target="_top" xlink:title=" ">
<polygon fill="white" stroke="#666666" points="885.81,-74.5 800.06,-74.5 800.06,-55.25 885.81,-55.25 885.81,-74.5"/>
<text text-anchor="middle" x="842.94" y="-61" font-family="Helvetica,sans-Serif" font-size="10.00">draw_blending.h</text>
</a>
</g>
</g>
<!-- Node2&#45;&gt;Node4 -->
<g id="edge3_Node000002_Node000004" class="edge">
<title>Node2&#45;&gt;Node4</title>
<g id="a_edge3_Node000002_Node000004"><a xlink:title=" ">
<path fill="none" stroke="#63b8ff" d="M462.48,-229.46C530.77,-228.54 733.92,-222.64 785.94,-185 818.81,-161.21 833.47,-113.39 839.39,-86.12"/>
<polygon fill="#63b8ff" stroke="#63b8ff" points="842.81,-86.87 841.3,-76.38 835.94,-85.52 842.81,-86.87"/>
</a>
</g>
</g>
<!-- Node5 -->
<g id="Node000005" class="node">
<title>Node5</title>
<g id="a_Node000005"><a xlink:href="draw__buffers_8h.html" target="_top" xlink:title=" ">
<polygon fill="white" stroke="#666666" points="428.44,-129.75 349.44,-129.75 349.44,-110.5 428.44,-110.5 428.44,-129.75"/>
<text text-anchor="middle" x="388.94" y="-116.25" font-family="Helvetica,sans-Serif" font-size="10.00">draw_buffers.h</text>
</a>
</g>
</g>
<!-- Node2&#45;&gt;Node5 -->
<g id="edge5_Node000002_Node000005" class="edge">
<title>Node2&#45;&gt;Node5</title>
<g id="a_edge5_Node000002_Node000005"><a xlink:title=" ">
<path fill="none" stroke="#63b8ff" d="M438.24,-220.6C435.64,-207.9 430,-184.24 420.94,-165.75 416.34,-156.36 409.8,-146.82 403.84,-138.99"/>
<polygon fill="#63b8ff" stroke="#63b8ff" points="406.68,-136.95 397.72,-131.3 401.21,-141.31 406.68,-136.95"/>
</a>
</g>
</g>
<!-- Node6 -->
<g id="Node000006" class="node">
<title>Node6</title>
<g id="a_Node000006"><a xlink:href="draw__dithering_8h.html" target="_top" xlink:title=" ">
<polygon fill="white" stroke="#666666" points="115.19,-74.5 28.69,-74.5 28.69,-55.25 115.19,-55.25 115.19,-74.5"/>
<text text-anchor="middle" x="71.94" y="-61" font-family="Helvetica,sans-Serif" font-size="10.00">draw_dithering.h</text>
</a>
</g>
</g>
<!-- Node2&#45;&gt;Node6 -->
<g id="edge7_Node000002_Node000006" class="edge">
<title>Node2&#45;&gt;Node6</title>
<g id="a_edge7_Node000002_Node000006"><a xlink:title=" ">
<path fill="none" stroke="#63b8ff" d="M417.25,-229.92C369.03,-229.71 253.7,-224.7 167.94,-185 133.53,-169.07 126.16,-159.72 102.94,-129.75 92.43,-116.18 84.18,-98.48 78.84,-85.15"/>
<polygon fill="#63b8ff" stroke="#63b8ff" points="82.27,-84.31 75.45,-76.2 75.72,-86.79 82.27,-84.31"/>
</a>
</g>
</g>
<!-- Node7 -->
<g id="Node000007" class="node">
<title>Node7</title>
<g id="a_Node000007"><a xlink:href="draw__fog_8h.html" target="_top" xlink:title=" ">
<polygon fill="white" stroke="#666666" points="175.56,-129.75 112.31,-129.75 112.31,-110.5 175.56,-110.5 175.56,-129.75"/>
<text text-anchor="middle" x="143.94" y="-116.25" font-family="Helvetica,sans-Serif" font-size="10.00">draw_fog.h</text>
</a>
</g>
</g>
<!-- Node2&#45;&gt;Node7 -->
<g id="edge9_Node000002_Node000007" class="edge">
<title>Node2&#45;&gt;Node7</title>
<g id="a_edge9_Node000002_Node000007"><a xlink:title=" ">
<path fill="none" stroke="#63b8ff" d="M417.31,-227.67C363.53,-222.7 229.74,-208.29 191.94,-185 174.43,-174.21 161.11,-154.51 152.99,-139.82"/>
<polygon fill="#63b8ff" stroke="#63b8ff" points="156.21,-138.43 148.51,-131.15 149.99,-141.64 156.21,-138.43"/>
</a>
</g>
</g>
<!-- Node8 -->
<g id="Node000008" class="node">
<title>Node8</title>
<g id="a_Node000008"><a xlink:href="draw__masking_8h.html" target="_top" xlink:title=" ">
<polygon fill="white" stroke="#666666" points="257.19,-74.5 170.69,-74.5 170.69,-55.25 257.19,-55.25 257.19,-74.5"/>
<text text-anchor="middle" x="213.94" y="-61" font-family="Helvetica,sans-Serif" font-size="10.00">draw_masking.h</text>
</a>
</g>
</g>
<!-- Node2&#45;&gt;Node8 -->
<g id="edge11_Node000002_Node000008" class="edge">
<title>Node2&#45;&gt;Node8</title>
<g id="a_edge11_Node000002_Node000008"><a xlink:title=" ">
<path fill="none" stroke="#63b8ff" d="M417.22,-228.23C367.27,-224.68 250.33,-213.43 224.94,-185 200.68,-157.85 204.49,-112.02 209.3,-85.82"/>
<polygon fill="#63b8ff" stroke="#63b8ff" points="212.69,-86.7 211.31,-76.19 205.84,-85.27 212.69,-86.7"/>
</a>
</g>
</g>
<!-- Node9 -->
<g id="Node000009" class="node">
<title>Node9</title>
<g id="a_Node000009"><a xlink:href="draw__primitives_8h.html" target="_top" xlink:title=" ">
<polygon fill="white" stroke="#666666" points="667.81,-129.75 576.06,-129.75 576.06,-110.5 667.81,-110.5 667.81,-129.75"/>
<text text-anchor="middle" x="621.94" y="-116.25" font-family="Helvetica,sans-Serif" font-size="10.00">draw_primitives.h</text>
</a>
</g>
</g>
<!-- Node2&#45;&gt;Node9 -->
<g id="edge13_Node000002_Node000009" class="edge">
<title>Node2&#45;&gt;Node9</title>
<g id="a_edge13_Node000002_Node000009"><a xlink:title=" ">
<path fill="none" stroke="#63b8ff" d="M462.69,-222.76C485.49,-215.33 521.11,-202.2 548.94,-185 570.53,-171.65 592,-151.88 606.01,-137.88"/>
<polygon fill="#63b8ff" stroke="#63b8ff" points="608.15,-140.69 612.64,-131.09 603.15,-135.8 608.15,-140.69"/>
</a>
</g>
</g>
<!-- Node10 -->
<g id="Node000010" class="node">
<title>Node10</title>
<g id="a_Node000010"><a xlink:href="draw__sampling_8h.html" target="_top" xlink:title=" ">
<polygon fill="white" stroke="#666666" points="322.31,-185 233.56,-185 233.56,-165.75 322.31,-165.75 322.31,-185"/>
<text text-anchor="middle" x="277.94" y="-171.5" font-family="Helvetica,sans-Serif" font-size="10.00">draw_sampling.h</text>
</a>
</g>
</g>
<!-- Node2&#45;&gt;Node10 -->
<g id="edge15_Node000002_Node000010" class="edge">
<title>Node2&#45;&gt;Node10</title>
<g id="a_edge15_Node000002_Node000010"><a xlink:title=" ">
<path fill="none" stroke="#63b8ff" d="M417.41,-222.22C391.28,-213.63 347.76,-199.33 316.28,-188.98"/>
<polygon fill="#63b8ff" stroke="#63b8ff" points="317.72,-185.77 307.13,-185.97 315.54,-192.42 317.72,-185.77"/>
</a>
</g>
</g>
<!-- Node11 -->
<g id="Node000011" class="node">
<title>Node11</title>
<g id="a_Node000011"><a xlink:href="draw__tests_8h.html" target="_top" xlink:title=" ">
<polygon fill="white" stroke="#666666" points="411.69,-185 340.19,-185 340.19,-165.75 411.69,-165.75 411.69,-185"/>
<text text-anchor="middle" x="375.94" y="-171.5" font-family="Helvetica,sans-Serif" font-size="10.00">draw_tests.h</text>
</a>
</g>
</g>
<!-- Node2&#45;&gt;Node11 -->
<g id="edge17_Node000002_Node000011" class="edge">
<title>Node2&#45;&gt;Node11</title>
<g id="a_edge17_Node000002_Node000011"><a xlink:title=" ">
<path fill="none" stroke="#63b8ff" d="M429.08,-220.59C419.83,-212.9 406.31,-201.65 395.23,-192.43"/>
<polygon fill="#63b8ff" stroke="#63b8ff" points="397.72,-189.95 387.8,-186.24 393.25,-195.33 397.72,-189.95"/>
</a>
</g>
</g>
<!-- Node12 -->
<g id="Node000012" class="node">
<title>Node12</title>
<g id="a_Node000012"><a xlink:href="draw__types_8h.html" target="_top" xlink:title=" ">
<polygon fill="white" stroke="#666666" points="558.44,-129.75 485.44,-129.75 485.44,-110.5 558.44,-110.5 558.44,-129.75"/>
<text text-anchor="middle" x="521.94" y="-116.25" font-family="Helvetica,sans-Serif" font-size="10.00">draw_types.h</text>
</a>
</g>
</g>
<!-- Node2&#45;&gt;Node12 -->
<g id="edge20_Node000002_Node000012" class="edge">
<title>Node2&#45;&gt;Node12</title>
<g id="a_edge20_Node000002_Node000012"><a xlink:title=" ">
<path fill="none" stroke="#63b8ff" d="M462.51,-225.83C484.76,-220.76 517.58,-209.4 532.94,-185 541.28,-171.74 537.3,-154.01 531.92,-140.6"/>
<polygon fill="#63b8ff" stroke="#63b8ff" points="535.11,-139.14 527.75,-131.51 528.75,-142.06 535.11,-139.14"/>
</a>
</g>
</g>
<!-- Node14 -->
<g id="Node000014" class="node">
<title>Node14</title>
<g id="a_Node000014"><a xlink:href="draw2d_8h.html" target="_top" xlink:title=" ">
<polygon fill="white" stroke="#666666" points="523.44,-185 468.44,-185 468.44,-165.75 523.44,-165.75 523.44,-185"/>
<text text-anchor="middle" x="495.94" y="-171.5" font-family="Helvetica,sans-Serif" font-size="10.00">draw2d.h</text>
</a>
</g>
</g>
<!-- Node2&#45;&gt;Node14 -->
<g id="edge23_Node000002_Node000014" class="edge">
<title>Node2&#45;&gt;Node14</title>
<g id="a_edge23_Node000002_Node000014"><a xlink:title=" ">
<path fill="none" stroke="#63b8ff" d="M449.44,-220.59C457.37,-213.05 468.89,-202.1 478.47,-192.98"/>
<polygon fill="#63b8ff" stroke="#63b8ff" points="480.65,-195.74 485.48,-186.32 475.82,-190.67 480.65,-195.74"/>
</a>
</g>
</g>
<!-- Node15 -->
<g id="Node000015" class="node">
<title>Node15</title>
<g id="a_Node000015"><a xlink:href="draw3d_8h.html" target="_top" xlink:title=" ">
<polygon fill="white" stroke="#666666" points="673.44,-185 618.44,-185 618.44,-165.75 673.44,-165.75 673.44,-185"/>
<text text-anchor="middle" x="645.94" y="-171.5" font-family="Helvetica,sans-Serif" font-size="10.00">draw3d.h</text>
</a>
</g>
</g>
<!-- Node2&#45;&gt;Node15 -->
<g id="edge26_Node000002_Node000015" class="edge">
<title>Node2&#45;&gt;Node15</title>
<g id="a_edge26_Node000002_Node000015"><a xlink:title=" ">
<path fill="none" stroke="#63b8ff" d="M462.37,-223.82C497.05,-214.86 564.11,-197.53 606.86,-186.48"/>
<polygon fill="#63b8ff" stroke="#63b8ff" points="607.69,-189.88 616.5,-183.98 605.94,-183.1 607.69,-189.88"/>
</a>
</g>
</g>
<!-- Node4&#45;&gt;Node3 -->
<g id="edge4_Node000004_Node000003" class="edge">
<title>Node4&#45;&gt;Node3</title>
<g id="a_edge4_Node000004_Node000003"><a xlink:title=" ">
<path fill="none" stroke="#63b8ff" d="M799.69,-57.21C795.05,-56.53 790.4,-55.87 785.94,-55.25 673.31,-39.67 540.29,-23.62 473.23,-15.69"/>
<polygon fill="#63b8ff" stroke="#63b8ff" points="473.73,-12.23 463.39,-14.53 472.91,-19.18 473.73,-12.23"/>
</a>
</g>
</g>
<!-- Node5&#45;&gt;Node3 -->
<g id="edge6_Node000005_Node000003" class="edge">
<title>Node5&#45;&gt;Node3</title>
<g id="a_edge6_Node000005_Node000003"><a xlink:title=" ">
<path fill="none" stroke="#63b8ff" d="M392.29,-110.25C398.87,-92.84 413.59,-53.87 422.55,-30.16"/>
<polygon fill="#63b8ff" stroke="#63b8ff" points="425.74,-31.63 426,-21.04 419.19,-29.16 425.74,-31.63"/>
</a>
</g>
</g>
<!-- Node6&#45;&gt;Node3 -->
<g id="edge8_Node000006_Node000003" class="edge">
<title>Node6&#45;&gt;Node3</title>
<g id="a_edge8_Node000006_Node000003"><a xlink:title=" ">
<path fill="none" stroke="#63b8ff" d="M115.5,-57.27C120.04,-56.59 124.58,-55.9 128.94,-55.25 220.58,-41.52 327.96,-25.66 386.48,-17.03"/>
<polygon fill="#63b8ff" stroke="#63b8ff" points="386.98,-20.49 396.36,-15.57 385.96,-13.57 386.98,-20.49"/>
</a>
</g>
</g>
<!-- Node7&#45;&gt;Node3 -->
<g id="edge10_Node000007_Node000003" class="edge">
<title>Node7&#45;&gt;Node3</title>
<g id="a_edge10_Node000007_Node000003"><a xlink:title=" ">
<path fill="none" stroke="#63b8ff" d="M143.66,-110.17C143.76,-96.21 146.15,-69.4 161.94,-55.25 194.33,-26.23 319.14,-15.86 386.4,-12.33"/>
<polygon fill="#63b8ff" stroke="#63b8ff" points="386.53,-15.83 396.35,-11.84 386.19,-8.84 386.53,-15.83"/>
</a>
</g>
</g>
<!-- Node8&#45;&gt;Node3 -->
<g id="edge12_Node000008_Node000003" class="edge">
<title>Node8&#45;&gt;Node3</title>
<g id="a_edge12_Node000008_Node000003"><a xlink:title=" ">
<path fill="none" stroke="#63b8ff" d="M250.58,-54.84C288.34,-45.53 347.18,-31.03 387.08,-21.19"/>
<polygon fill="#63b8ff" stroke="#63b8ff" points="387.71,-24.64 396.58,-18.85 386.03,-17.84 387.71,-24.64"/>
</a>
</g>
</g>
<!-- Node9&#45;&gt;Node3 -->
<g id="edge14_Node000009_Node000003" class="edge">
<title>Node9&#45;&gt;Node3</title>
<g id="a_edge14_Node000009_Node000003"><a xlink:title=" ">
<path fill="none" stroke="#63b8ff" d="M614.62,-110.05C603.2,-96.4 579.84,-70.59 554.94,-55.25 529.59,-39.63 497.98,-28.41 472.9,-21.13"/>
<polygon fill="#63b8ff" stroke="#63b8ff" points="473.9,-17.78 463.33,-18.46 472.03,-24.52 473.9,-17.78"/>
</a>
</g>
</g>
<!-- Node10&#45;&gt;Node3 -->
<g id="edge16_Node000010_Node000003" class="edge">
<title>Node10&#45;&gt;Node3</title>
<g id="a_edge16_Node000010_Node000003"><a xlink:title=" ">
<path fill="none" stroke="#63b8ff" d="M282.38,-165.39C293.17,-144.22 322.58,-90.32 358.94,-55.25 371.38,-43.25 387.55,-32.78 401.32,-25"/>
<polygon fill="#63b8ff" stroke="#63b8ff" points="402.83,-28.17 409.95,-20.32 399.49,-22.02 402.83,-28.17"/>
</a>
</g>
</g>
<!-- Node11&#45;&gt;Node3 -->
<g id="edge18_Node000011_Node000003" class="edge">
<title>Node11&#45;&gt;Node3</title>
<g id="a_edge18_Node000011_Node000003"><a xlink:title=" ">
<path fill="none" stroke="#63b8ff" d="M365.5,-165.65C352.53,-153.69 333.01,-131.3 340.94,-110.5 354.4,-75.15 386.77,-44.35 408.53,-26.62"/>
<polygon fill="#63b8ff" stroke="#63b8ff" points="410.51,-29.51 416.21,-20.57 406.18,-24.01 410.51,-29.51"/>
</a>
</g>
</g>
<!-- Node11&#45;&gt;Node5 -->
<g id="edge19_Node000011_Node000005" class="edge">
<title>Node11&#45;&gt;Node5</title>
<g id="a_edge19_Node000011_Node000005"><a xlink:title=" ">
<path fill="none" stroke="#63b8ff" d="M378.08,-165.58C379.71,-158.92 382.01,-149.49 384.08,-141.03"/>
<polygon fill="#63b8ff" stroke="#63b8ff" points="387.41,-142.12 386.38,-131.58 380.61,-140.46 387.41,-142.12"/>
</a>
</g>
</g>
<!-- Node13 -->
<g id="Node000013" class="node">
<title>Node13</title>
<g id="a_Node000013"><a xlink:href="math3d_8h.html" target="_top" xlink:title=" ">
<polygon fill="white" stroke="#666666" points="545.81,-74.5 490.06,-74.5 490.06,-55.25 545.81,-55.25 545.81,-74.5"/>
<text text-anchor="middle" x="517.94" y="-61" font-family="Helvetica,sans-Serif" font-size="10.00">math3d.h</text>
</a>
</g>
</g>
<!-- Node12&#45;&gt;Node13 -->
<g id="edge21_Node000012_Node000013" class="edge">
<title>Node12&#45;&gt;Node13</title>
<g id="a_edge21_Node000012_Node000013"><a xlink:title=" ">
<path fill="none" stroke="#63b8ff" d="M521.28,-110.33C520.78,-103.74 520.08,-94.46 519.45,-86.07"/>
<polygon fill="#63b8ff" stroke="#63b8ff" points="522.96,-86.08 518.73,-76.37 515.98,-86.6 522.96,-86.08"/>
</a>
</g>
</g>
<!-- Node13&#45;&gt;Node3 -->
<g id="edge22_Node000013_Node000003" class="edge">
<title>Node13&#45;&gt;Node3</title>
<g id="a_edge22_Node000013_Node000003"><a xlink:title=" ">
<path fill="none" stroke="#63b8ff" d="M503.01,-54.84C489.73,-46.81 470.07,-34.91 454.48,-25.48"/>
<polygon fill="#63b8ff" stroke="#63b8ff" points="456.6,-22.67 446.23,-20.49 452.98,-28.66 456.6,-22.67"/>
</a>
</g>
</g>
<!-- Node14&#45;&gt;Node3 -->
<g id="edge24_Node000014_Node000003" class="edge">
<title>Node14&#45;&gt;Node3</title>
<g id="a_edge24_Node000014_Node000003"><a xlink:title=" ">
<path fill="none" stroke="#63b8ff" d="M492.08,-165.51C488.19,-156.53 482.05,-142.22 476.94,-129.75 462.64,-94.89 446.68,-53.98 437.52,-30.31"/>
<polygon fill="#63b8ff" stroke="#63b8ff" points="440.8,-29.1 433.94,-21.04 434.27,-31.63 440.8,-29.1"/>
</a>
</g>
</g>
<!-- Node14&#45;&gt;Node12 -->
<g id="edge25_Node000014_Node000012" class="edge">
<title>Node14&#45;&gt;Node12</title>
<g id="a_edge25_Node000014_Node000012"><a xlink:title=" ">
<path fill="none" stroke="#63b8ff" d="M500.23,-165.58C503.56,-158.76 508.3,-149.06 512.5,-140.45"/>
<polygon fill="#63b8ff" stroke="#63b8ff" points="515.64,-141.99 516.89,-131.47 509.35,-138.92 515.64,-141.99"/>
</a>
</g>
</g>
<!-- Node15&#45;&gt;Node3 -->
<g id="edge27_Node000015_Node000003" class="edge">
<title>Node15&#45;&gt;Node3</title>
<g id="a_edge27_Node000015_Node000003"><a xlink:title=" ">
<path fill="none" stroke="#63b8ff" d="M655.88,-165.49C668.64,-152.96 687.92,-129.49 676.94,-110.5 635.69,-39.18 532.26,-18.75 473.15,-12.93"/>
<polygon fill="#63b8ff" stroke="#63b8ff" points="473.73,-9.47 463.46,-12.08 473.12,-16.44 473.73,-9.47"/>
</a>
</g>
</g>
<!-- Node15&#45;&gt;Node9 -->
<g id="edge28_Node000015_Node000009" class="edge">
<title>Node15&#45;&gt;Node9</title>
<g id="a_edge28_Node000015_Node000009"><a xlink:title=" ">
<path fill="none" stroke="#63b8ff" d="M641.97,-165.58C638.9,-158.76 634.53,-149.06 630.65,-140.45"/>
<polygon fill="#63b8ff" stroke="#63b8ff" points="633.91,-139.17 626.61,-131.49 627.53,-142.04 633.91,-139.17"/>
</a>
</g>
</g>
<!-- Node15&#45;&gt;Node12 -->
<g id="edge29_Node000015_Node000012" class="edge">
<title>Node15&#45;&gt;Node12</title>
<g id="a_edge29_Node000015_Node000012"><a xlink:title=" ">
<path fill="none" stroke="#63b8ff" d="M624.9,-165.34C605.31,-156.93 575.83,-144.27 553.43,-134.65"/>
<polygon fill="#63b8ff" stroke="#63b8ff" points="555.04,-131.53 544.47,-130.8 552.27,-137.96 555.04,-131.53"/>
</a>
</g>
</g>
<!-- Node16 -->
<g id="Node000016" class="node">
<title>Node16</title>
<g id="a_Node000016"><a xlink:href="gif__tags_8h.html" target="_top" xlink:title=" ">
<polygon fill="white" stroke="#666666" points="743.94,-74.5 685.94,-74.5 685.94,-55.25 743.94,-55.25 743.94,-74.5"/>
<text text-anchor="middle" x="714.94" y="-61" font-family="Helvetica,sans-Serif" font-size="10.00">gif_tags.h</text>
</a>
</g>
</g>
<!-- Node15&#45;&gt;Node16 -->
<g id="edge30_Node000015_Node000016" class="edge">
<title>Node15&#45;&gt;Node16</title>
<g id="a_edge30_Node000015_Node000016"><a xlink:title=" ">
<path fill="none" stroke="#63b8ff" d="M667.65,-165.33C682.26,-158.01 700.51,-146.21 709.94,-129.75 717.48,-116.58 718.4,-99.31 717.62,-86.05"/>
<polygon fill="#63b8ff" stroke="#63b8ff" points="721.13,-85.94 716.66,-76.33 714.16,-86.63 721.13,-85.94"/>
</a>
</g>
</g>
<!-- Node16&#45;&gt;Node3 -->
<g id="edge31_Node000016_Node000003" class="edge">
<title>Node16&#45;&gt;Node3</title>
<g id="a_edge31_Node000016_Node000003"><a xlink:title=" ">
<path fill="none" stroke="#63b8ff" d="M685.8,-57.97C681.17,-57.05 676.42,-56.11 671.94,-55.25 602.37,-41.86 521.39,-27.09 472.97,-18.35"/>
<polygon fill="#63b8ff" stroke="#63b8ff" points="473.63,-14.91 463.17,-16.58 472.39,-21.8 473.63,-14.91"/>
</a>
</g>
</g>
</g>
</svg>
