<?xml version="1.0" encoding="UTF-8" standalone="no"?>
<!DOCTYPE svg PUBLIC "-//W3C//DTD SVG 1.1//EN"
 "http://www.w3.org/Graphics/SVG/1.1/DTD/svg11.dtd">
<!-- Generated by graphviz version 9.0.0 (20230911.1827)
 -->
<!-- Title: iop/sound/libsd/src/freesd.c Pages: 1 -->
<svg width="457pt" height="260pt"
 viewBox="0.00 0.00 457.00 259.50" xmlns="http://www.w3.org/2000/svg" xmlns:xlink="http://www.w3.org/1999/xlink">

<svg id="main" version="1.1" xmlns="http://www.w3.org/2000/svg" xmlns:xlink="http://www.w3.org/1999/xlink" xml:space="preserve" onload="init(evt)">
<style type="text/css"><![CDATA[
.node, .edge {opacity: 0.7;}
.node.selected, .edge.selected {opacity: 1;}
.edge:hover path { stroke: red; }
.edge:hover polygon { stroke: red; fill: red; }
]]></style>
<script type="application/ecmascript" xlink:href="svg.min.js"/>
<svg id="graph" class="graph">
<g id="graph0" class="graph" transform="scale(1 1) rotate(0) translate(4 255.5)">
<title>iop/sound/libsd/src/freesd.c</title>
<!-- Node1 -->
<g id="Node000001" class="node">
<title>Node1</title>
<g id="a_Node000001"><a xlink:title=" ">
<polygon fill="#999999" stroke="#666666" points="255.25,-251.5 157.5,-251.5 157.5,-221 255.25,-221 255.25,-251.5"/>
<text text-anchor="start" x="165.5" y="-238" font-family="Helvetica,sans-Serif" font-size="10.00">iop/sound/libsd/src</text>
<text text-anchor="middle" x="206.38" y="-226.75" font-family="Helvetica,sans-Serif" font-size="10.00">/freesd.c</text>
</a>
</g>
</g>
<!-- Node2 -->
<g id="Node000002" class="node">
<title>Node2</title>
<g id="a_Node000002"><a xlink:title=" ">
<polygon fill="#e0e0e0" stroke="#999999" points="46.75,-185 0,-185 0,-165.75 46.75,-165.75 46.75,-185"/>
<text text-anchor="middle" x="23.38" y="-171.5" font-family="Helvetica,sans-Serif" font-size="10.00">types.h</text>
</a>
</g>
</g>
<!-- Node1&#45;&gt;Node2 -->
<g id="edge1_Node000001_Node000002" class="edge">
<title>Node1&#45;&gt;Node2</title>
<g id="a_edge1_Node000001_Node000002"><a xlink:title=" ">
<path fill="none" stroke="#63b8ff" d="M160.67,-220.55C128.8,-210.29 86.94,-196.83 57.86,-187.47"/>
<polygon fill="#63b8ff" stroke="#63b8ff" points="59.04,-184.17 48.45,-184.44 56.9,-190.84 59.04,-184.17"/>
</a>
</g>
</g>
<!-- Node3 -->
<g id="Node000003" class="node">
<title>Node3</title>
<g id="a_Node000003"><a xlink:href="irx_8h.html" target="_top" xlink:title=" ">
<polygon fill="white" stroke="#666666" points="168,-129.75 134.75,-129.75 134.75,-110.5 168,-110.5 168,-129.75"/>
<text text-anchor="middle" x="151.38" y="-116.25" font-family="Helvetica,sans-Serif" font-size="10.00">irx.h</text>
</a>
</g>
</g>
<!-- Node1&#45;&gt;Node3 -->
<g id="edge2_Node000001_Node000003" class="edge">
<title>Node1&#45;&gt;Node3</title>
<g id="a_edge2_Node000001_Node000003"><a xlink:title=" ">
<path fill="none" stroke="#63b8ff" d="M192.28,-220.53C183.92,-211.06 173.75,-198.11 167.38,-185 160.63,-171.13 156.55,-154.14 154.2,-141.18"/>
<polygon fill="#63b8ff" stroke="#63b8ff" points="157.72,-141.02 152.69,-131.7 150.81,-142.13 157.72,-141.02"/>
</a>
</g>
</g>
<!-- Node7 -->
<g id="Node000007" class="node">
<title>Node7</title>
<g id="a_Node000007"><a xlink:href="loadcore_8h.html" target="_top" xlink:title=" ">
<polygon fill="white" stroke="#666666" points="236.5,-185 176.25,-185 176.25,-165.75 236.5,-165.75 236.5,-185"/>
<text text-anchor="middle" x="206.38" y="-171.5" font-family="Helvetica,sans-Serif" font-size="10.00">loadcore.h</text>
</a>
</g>
</g>
<!-- Node1&#45;&gt;Node7 -->
<g id="edge6_Node000001_Node000007" class="edge">
<title>Node1&#45;&gt;Node7</title>
<g id="a_edge6_Node000001_Node000007"><a xlink:title=" ">
<path fill="none" stroke="#63b8ff" d="M206.38,-220.7C206.38,-213.46 206.38,-204.59 206.38,-196.69"/>
<polygon fill="#63b8ff" stroke="#63b8ff" points="209.88,-196.96 206.38,-186.96 202.88,-196.96 209.88,-196.96"/>
</a>
</g>
</g>
<!-- Node8 -->
<g id="Node000008" class="node">
<title>Node8</title>
<g id="a_Node000008"><a xlink:href="stdio_8h.html" target="_top" xlink:title=" ">
<polygon fill="white" stroke="#666666" points="298.62,-185 254.12,-185 254.12,-165.75 298.62,-165.75 298.62,-185"/>
<text text-anchor="middle" x="276.38" y="-171.5" font-family="Helvetica,sans-Serif" font-size="10.00">stdio.h</text>
</a>
</g>
</g>
<!-- Node1&#45;&gt;Node8 -->
<g id="edge9_Node000001_Node000008" class="edge">
<title>Node1&#45;&gt;Node8</title>
<g id="a_edge9_Node000001_Node000008"><a xlink:title=" ">
<path fill="none" stroke="#63b8ff" d="M223.68,-220.7C233.72,-212.25 246.4,-201.58 256.81,-192.83"/>
<polygon fill="#63b8ff" stroke="#63b8ff" points="259.03,-195.54 264.43,-186.43 254.52,-190.18 259.03,-195.54"/>
</a>
</g>
</g>
<!-- Node10 -->
<g id="Node000010" class="node">
<title>Node10</title>
<g id="a_Node000010"><a xlink:href="intrman_8h.html" target="_top" xlink:title=" ">
<polygon fill="white" stroke="#666666" points="120.25,-185 64.5,-185 64.5,-165.75 120.25,-165.75 120.25,-185"/>
<text text-anchor="middle" x="92.38" y="-171.5" font-family="Helvetica,sans-Serif" font-size="10.00">intrman.h</text>
</a>
</g>
</g>
<!-- Node1&#45;&gt;Node10 -->
<g id="edge12_Node000001_Node000010" class="edge">
<title>Node1&#45;&gt;Node10</title>
<g id="a_edge12_Node000001_Node000010"><a xlink:title=" ">
<path fill="none" stroke="#63b8ff" d="M177.9,-220.55C160.21,-211.41 137.57,-199.72 120.03,-190.66"/>
<polygon fill="#63b8ff" stroke="#63b8ff" points="121.69,-187.58 111.2,-186.1 118.48,-193.8 121.69,-187.58"/>
</a>
</g>
</g>
<!-- Node11 -->
<g id="Node000011" class="node">
<title>Node11</title>
<g id="a_Node000011"><a xlink:title=" ">
<polygon fill="#e0e0e0" stroke="#999999" points="367.62,-185 317.12,-185 317.12,-165.75 367.62,-165.75 367.62,-185"/>
<text text-anchor="middle" x="342.38" y="-171.5" font-family="Helvetica,sans-Serif" font-size="10.00">freesd.h</text>
</a>
</g>
</g>
<!-- Node1&#45;&gt;Node11 -->
<g id="edge15_Node000001_Node000011" class="edge">
<title>Node1&#45;&gt;Node11</title>
<g id="a_edge15_Node000001_Node000011"><a xlink:title=" ">
<path fill="none" stroke="#63b8ff" d="M240.34,-220.55C262.05,-211.15 289.99,-199.05 311.14,-189.89"/>
<polygon fill="#63b8ff" stroke="#63b8ff" points="312.34,-193.19 320.13,-186.01 309.56,-186.77 312.34,-193.19"/>
</a>
</g>
</g>
<!-- Node12 -->
<g id="Node000012" class="node">
<title>Node12</title>
<g id="a_Node000012"><a xlink:href="spu2regs_8h.html" target="_top" xlink:title=" ">
<polygon fill="white" stroke="#666666" points="449,-185 385.75,-185 385.75,-165.75 449,-165.75 449,-185"/>
<text text-anchor="middle" x="417.38" y="-171.5" font-family="Helvetica,sans-Serif" font-size="10.00">spu2regs.h</text>
</a>
</g>
</g>
<!-- Node1&#45;&gt;Node12 -->
<g id="edge16_Node000001_Node000012" class="edge">
<title>Node1&#45;&gt;Node12</title>
<g id="a_edge16_Node000001_Node000012"><a xlink:title=" ">
<path fill="none" stroke="#63b8ff" d="M255.58,-221.52C291.73,-211.43 340.35,-197.87 374.83,-188.25"/>
<polygon fill="#63b8ff" stroke="#63b8ff" points="375.35,-191.74 384.04,-185.68 373.47,-184.99 375.35,-191.74"/>
</a>
</g>
</g>
<!-- Node4 -->
<g id="Node000004" class="node">
<title>Node4</title>
<g id="a_Node000004"><a xlink:href="iop_2kernel_2include_2types_8h_source.html" target="_top" xlink:title=" ">
<polygon fill="white" stroke="#666666" points="174.75,-74.5 128,-74.5 128,-55.25 174.75,-55.25 174.75,-74.5"/>
<text text-anchor="middle" x="151.38" y="-61" font-family="Helvetica,sans-Serif" font-size="10.00">types.h</text>
</a>
</g>
</g>
<!-- Node3&#45;&gt;Node4 -->
<g id="edge3_Node000003_Node000004" class="edge">
<title>Node3&#45;&gt;Node4</title>
<g id="a_edge3_Node000003_Node000004"><a xlink:title=" ">
<path fill="none" stroke="#63b8ff" d="M151.38,-110.33C151.38,-103.82 151.38,-94.67 151.38,-86.37"/>
<polygon fill="#63b8ff" stroke="#63b8ff" points="154.88,-86.37 151.38,-76.37 147.88,-86.37 154.88,-86.37"/>
</a>
</g>
</g>
<!-- Node5 -->
<g id="Node000005" class="node">
<title>Node5</title>
<g id="a_Node000005"><a xlink:title=" ">
<polygon fill="#e0e0e0" stroke="#999999" points="139.62,-19.25 89.12,-19.25 89.12,0 139.62,0 139.62,-19.25"/>
<text text-anchor="middle" x="114.38" y="-5.75" font-family="Helvetica,sans-Serif" font-size="10.00">stddef.h</text>
</a>
</g>
</g>
<!-- Node4&#45;&gt;Node5 -->
<g id="edge4_Node000004_Node000005" class="edge">
<title>Node4&#45;&gt;Node5</title>
<g id="a_edge4_Node000004_Node000005"><a xlink:title=" ">
<path fill="none" stroke="#63b8ff" d="M145.27,-55.08C140.31,-47.96 133.17,-37.68 127,-28.8"/>
<polygon fill="#63b8ff" stroke="#63b8ff" points="130.06,-27.07 121.48,-20.85 124.31,-31.06 130.06,-27.07"/>
</a>
</g>
</g>
<!-- Node6 -->
<g id="Node000006" class="node">
<title>Node6</title>
<g id="a_Node000006"><a xlink:href="tamtypes_8h.html" target="_top" xlink:title=" ">
<polygon fill="white" stroke="#666666" points="221,-19.25 157.75,-19.25 157.75,0 221,0 221,-19.25"/>
<text text-anchor="middle" x="189.38" y="-5.75" font-family="Helvetica,sans-Serif" font-size="10.00">tamtypes.h</text>
</a>
</g>
</g>
<!-- Node4&#45;&gt;Node6 -->
<g id="edge5_Node000004_Node000006" class="edge">
<title>Node4&#45;&gt;Node6</title>
<g id="a_edge5_Node000004_Node000006"><a xlink:title=" ">
<path fill="none" stroke="#63b8ff" d="M157.65,-55.08C162.73,-47.96 170.07,-37.68 176.41,-28.8"/>
<polygon fill="#63b8ff" stroke="#63b8ff" points="179.12,-31.01 182.08,-20.84 173.43,-26.95 179.12,-31.01"/>
</a>
</g>
</g>
<!-- Node7&#45;&gt;Node3 -->
<g id="edge8_Node000007_Node000003" class="edge">
<title>Node7&#45;&gt;Node3</title>
<g id="a_edge8_Node000007_Node000003"><a xlink:title=" ">
<path fill="none" stroke="#63b8ff" d="M197.29,-165.58C189.54,-158.07 178.16,-147.06 168.68,-137.88"/>
<polygon fill="#63b8ff" stroke="#63b8ff" points="171.36,-135.6 161.74,-131.16 166.49,-140.63 171.36,-135.6"/>
</a>
</g>
</g>
<!-- Node7&#45;&gt;Node4 -->
<g id="edge7_Node000007_Node000004" class="edge">
<title>Node7&#45;&gt;Node4</title>
<g id="a_edge7_Node000007_Node000004"><a xlink:title=" ">
<path fill="none" stroke="#63b8ff" d="M202.71,-165.56C197.46,-153.12 187.33,-129.76 177.38,-110.5 172.9,-101.85 167.55,-92.5 162.86,-84.61"/>
<polygon fill="#63b8ff" stroke="#63b8ff" points="165.98,-83 157.81,-76.25 159.98,-86.62 165.98,-83"/>
</a>
</g>
</g>
<!-- Node8&#45;&gt;Node3 -->
<g id="edge11_Node000008_Node000003" class="edge">
<title>Node8&#45;&gt;Node3</title>
<g id="a_edge11_Node000008_Node000003"><a xlink:title=" ">
<path fill="none" stroke="#63b8ff" d="M255.17,-165.34C234.1,-156.37 201.7,-142.56 178.7,-132.77"/>
<polygon fill="#63b8ff" stroke="#63b8ff" points="180.23,-129.61 169.66,-128.91 177.49,-136.05 180.23,-129.61"/>
</a>
</g>
</g>
<!-- Node9 -->
<g id="Node000009" class="node">
<title>Node9</title>
<g id="a_Node000009"><a xlink:title=" ">
<polygon fill="#e0e0e0" stroke="#999999" points="301.62,-129.75 251.12,-129.75 251.12,-110.5 301.62,-110.5 301.62,-129.75"/>
<text text-anchor="middle" x="276.38" y="-116.25" font-family="Helvetica,sans-Serif" font-size="10.00">stdarg.h</text>
</a>
</g>
</g>
<!-- Node8&#45;&gt;Node9 -->
<g id="edge10_Node000008_Node000009" class="edge">
<title>Node8&#45;&gt;Node9</title>
<g id="a_edge10_Node000008_Node000009"><a xlink:title=" ">
<path fill="none" stroke="#63b8ff" d="M276.38,-165.58C276.38,-159.07 276.38,-149.92 276.38,-141.62"/>
<polygon fill="#63b8ff" stroke="#63b8ff" points="279.88,-141.62 276.38,-131.62 272.88,-141.62 279.88,-141.62"/>
</a>
</g>
</g>
<!-- Node10&#45;&gt;Node3 -->
<g id="edge14_Node000010_Node000003" class="edge">
<title>Node10&#45;&gt;Node3</title>
<g id="a_edge14_Node000010_Node000003"><a xlink:title=" ">
<path fill="none" stroke="#63b8ff" d="M102.38,-165.34C110.74,-157.8 122.87,-146.85 132.98,-137.73"/>
<polygon fill="#63b8ff" stroke="#63b8ff" points="135.31,-140.34 140.39,-131.04 130.62,-135.14 135.31,-140.34"/>
</a>
</g>
</g>
<!-- Node10&#45;&gt;Node4 -->
<g id="edge13_Node000010_Node000004" class="edge">
<title>Node10&#45;&gt;Node4</title>
<g id="a_edge13_Node000010_Node000004"><a xlink:title=" ">
<path fill="none" stroke="#63b8ff" d="M96.72,-165.62C102.9,-153.25 114.68,-129.97 125.38,-110.5 130.12,-101.85 135.59,-92.4 140.28,-84.43"/>
<polygon fill="#63b8ff" stroke="#63b8ff" points="143.2,-86.38 145.29,-75.99 137.18,-82.81 143.2,-86.38"/>
</a>
</g>
</g>
</g>
</svg>
</svg>

<style type='text/css'>
<![CDATA[
[data-mouse-over-selected='false'] { opacity: 0.7; }
[data-mouse-over-selected='true']  { opacity: 1.0; }
]]>
</style>
<script type="application/ecmascript"><![CDATA[
document.addEventListener('DOMContentLoaded', (event) => {
  highlightEdges();
  highlightAdjacentNodes();
});
]]></script>
</svg>
