<?xml version="1.0" encoding="UTF-8" standalone="no"?>
<!DOCTYPE svg PUBLIC "-//W3C//DTD SVG 1.1//EN"
 "http://www.w3.org/Graphics/SVG/1.1/DTD/svg11.dtd">
<!-- Generated by graphviz version 12.2.0 (20241103.1931)
 -->
<!-- Title: iop/system/mtapman/src/freemtap.c Pages: 1 -->
<svg width="484pt" height="315pt"
 viewBox="0.00 0.00 484.39 314.75" xmlns="http://www.w3.org/2000/svg" xmlns:xlink="http://www.w3.org/1999/xlink">

<svg id="main" version="1.1" xmlns="http://www.w3.org/2000/svg" xmlns:xlink="http://www.w3.org/1999/xlink" xml:space="preserve">

<style type="text/css"><![CDATA[
.node, .edge {opacity: 0.7;}
.node.selected, .edge.selected {opacity: 1;}
.edge:hover path { stroke: red; }
.edge:hover polygon { stroke: red; fill: red; }
]]></style>
<script type="application/ecmascript" xlink:href="svg.min.js"/>
<svg id="graph" class="graph">
<g id="graph0" class="graph" transform="scale(1 1) rotate(0) translate(4 310.75)">
<title>iop/system/mtapman/src/freemtap.c</title>
<!-- Node1 -->
<g id="Node000001" class="node">
<title>Node1</title>
<g id="a_Node000001"><a xlink:title=" ">
<polygon fill="#999999" stroke="#666666" points="283.89,-306.75 177.14,-306.75 177.14,-276.25 283.89,-276.25 283.89,-306.75"/>
<text text-anchor="start" x="185.14" y="-293.25" font-family="Helvetica,sans-Serif" font-size="10.00">iop/system/mtapman</text>
<text text-anchor="middle" x="230.51" y="-282" font-family="Helvetica,sans-Serif" font-size="10.00">/src/freemtap.c</text>
</a>
</g>
</g>
<!-- Node2 -->
<g id="Node000002" class="node">
<title>Node2</title>
<g id="a_Node000002"><a xlink:title=" ">
<polygon fill="#e0e0e0" stroke="#999999" points="142.89,-129.75 96.14,-129.75 96.14,-110.5 142.89,-110.5 142.89,-129.75"/>
<text text-anchor="middle" x="119.51" y="-116.25" font-family="Helvetica,sans-Serif" font-size="10.00">types.h</text>
</a>
</g>
</g>
<!-- Node1&#45;&gt;Node2 -->
<g id="edge1_Node000001_Node000002" class="edge">
<title>Node1&#45;&gt;Node2</title>
<g id="a_edge1_Node000001_Node000002"><a xlink:title=" ">
<path fill="none" stroke="#63b8ff" d="M176.96,-282.47C122.72,-271.16 41.67,-244.76 4.51,-185 -16.33,-151.48 43.4,-134.1 84.4,-126.35"/>
<polygon fill="#63b8ff" stroke="#63b8ff" points="84.91,-129.82 94.15,-124.64 83.69,-122.92 84.91,-129.82"/>
</a>
</g>
</g>
<!-- Node3 -->
<g id="Node000003" class="node">
<title>Node3</title>
<g id="a_Node000003"><a xlink:href="irx_8h.html" target="_top" xlink:title=" ">
<polygon fill="white" stroke="#666666" points="245.14,-129.75 211.89,-129.75 211.89,-110.5 245.14,-110.5 245.14,-129.75"/>
<text text-anchor="middle" x="228.51" y="-116.25" font-family="Helvetica,sans-Serif" font-size="10.00">irx.h</text>
</a>
</g>
</g>
<!-- Node1&#45;&gt;Node3 -->
<g id="edge2_Node000001_Node000003" class="edge">
<title>Node1&#45;&gt;Node3</title>
<g id="a_edge2_Node000001_Node000003"><a xlink:title=" ">
<path fill="none" stroke="#63b8ff" d="M261.06,-275.84C275.15,-267.44 290.68,-255.51 299.51,-240.25 316.16,-211.5 322.1,-194.53 305.51,-165.75 295.01,-147.52 273.89,-136.06 256.43,-129.32"/>
<polygon fill="#63b8ff" stroke="#63b8ff" points="257.65,-126.04 247.05,-126.05 255.34,-132.65 257.65,-126.04"/>
</a>
</g>
</g>
<!-- Node7 -->
<g id="Node000007" class="node">
<title>Node7</title>
<g id="a_Node000007"><a xlink:href="stdio_8h.html" target="_top" xlink:title=" ">
<polygon fill="white" stroke="#666666" points="396.76,-240.25 352.26,-240.25 352.26,-221 396.76,-221 396.76,-240.25"/>
<text text-anchor="middle" x="374.51" y="-226.75" font-family="Helvetica,sans-Serif" font-size="10.00">stdio.h</text>
</a>
</g>
</g>
<!-- Node1&#45;&gt;Node7 -->
<g id="edge6_Node000001_Node000007" class="edge">
<title>Node1&#45;&gt;Node7</title>
<g id="a_edge6_Node000001_Node000007"><a xlink:title=" ">
<path fill="none" stroke="#63b8ff" d="M266.48,-275.8C289.68,-266.31 319.59,-254.08 342.06,-244.89"/>
<polygon fill="#63b8ff" stroke="#63b8ff" points="343.1,-248.25 351.03,-241.23 340.45,-241.77 343.1,-248.25"/>
</a>
</g>
</g>
<!-- Node9 -->
<g id="Node000009" class="node">
<title>Node9</title>
<g id="a_Node000009"><a xlink:href="loadcore_8h.html" target="_top" xlink:title=" ">
<polygon fill="white" stroke="#666666" points="73.64,-185 13.39,-185 13.39,-165.75 73.64,-165.75 73.64,-185"/>
<text text-anchor="middle" x="43.51" y="-171.5" font-family="Helvetica,sans-Serif" font-size="10.00">loadcore.h</text>
</a>
</g>
</g>
<!-- Node1&#45;&gt;Node9 -->
<g id="edge9_Node000001_Node000009" class="edge">
<title>Node1&#45;&gt;Node9</title>
<g id="a_edge9_Node000001_Node000009"><a xlink:title=" ">
<path fill="none" stroke="#63b8ff" d="M206.45,-275.81C170.72,-254.01 103.99,-213.28 68.01,-191.32"/>
<polygon fill="#63b8ff" stroke="#63b8ff" points="69.96,-188.42 59.6,-186.19 66.32,-194.39 69.96,-188.42"/>
</a>
</g>
</g>
<!-- Node10 -->
<g id="Node000010" class="node">
<title>Node10</title>
<g id="a_Node000010"><a xlink:href="thevent_8h.html" target="_top" xlink:title=" ">
<polygon fill="white" stroke="#666666" points="147.39,-185 91.64,-185 91.64,-165.75 147.39,-165.75 147.39,-185"/>
<text text-anchor="middle" x="119.51" y="-171.5" font-family="Helvetica,sans-Serif" font-size="10.00">thevent.h</text>
</a>
</g>
</g>
<!-- Node1&#45;&gt;Node10 -->
<g id="edge12_Node000001_Node000010" class="edge">
<title>Node1&#45;&gt;Node10</title>
<g id="a_edge12_Node000001_Node000010"><a xlink:title=" ">
<path fill="none" stroke="#63b8ff" d="M216.46,-276.05C195.96,-254.97 157.94,-215.88 136.1,-193.43"/>
<polygon fill="#63b8ff" stroke="#63b8ff" points="138.88,-191.26 129.39,-186.53 133.86,-196.14 138.88,-191.26"/>
</a>
</g>
</g>
<!-- Node11 -->
<g id="Node000011" class="node">
<title>Node11</title>
<g id="a_Node000011"><a xlink:href="thbase_8h.html" target="_top" xlink:title=" ">
<polygon fill="white" stroke="#666666" points="217.89,-185 165.14,-185 165.14,-165.75 217.89,-165.75 217.89,-185"/>
<text text-anchor="middle" x="191.51" y="-171.5" font-family="Helvetica,sans-Serif" font-size="10.00">thbase.h</text>
</a>
</g>
</g>
<!-- Node1&#45;&gt;Node11 -->
<g id="edge15_Node000001_Node000011" class="edge">
<title>Node1&#45;&gt;Node11</title>
<g id="a_edge15_Node000001_Node000011"><a xlink:title=" ">
<path fill="none" stroke="#63b8ff" d="M225.58,-276.05C218.66,-255.81 206.07,-218.97 198.29,-196.19"/>
<polygon fill="#63b8ff" stroke="#63b8ff" points="201.65,-195.21 195.1,-186.88 195.03,-197.47 201.65,-195.21"/>
</a>
</g>
</g>
<!-- Node12 -->
<g id="Node000012" class="node">
<title>Node12</title>
<g id="a_Node000012"><a xlink:href="xsio2man_8h.html" target="_top" xlink:title=" ">
<polygon fill="white" stroke="#666666" points="290.89,-240.25 226.14,-240.25 226.14,-221 290.89,-221 290.89,-240.25"/>
<text text-anchor="middle" x="258.51" y="-226.75" font-family="Helvetica,sans-Serif" font-size="10.00">xsio2man.h</text>
</a>
</g>
</g>
<!-- Node1&#45;&gt;Node12 -->
<g id="edge18_Node000001_Node000012" class="edge">
<title>Node1&#45;&gt;Node12</title>
<g id="a_edge18_Node000001_Node000012"><a xlink:title=" ">
<path fill="none" stroke="#63b8ff" d="M237.44,-275.95C241,-268.45 245.4,-259.2 249.26,-251.1"/>
<polygon fill="#63b8ff" stroke="#63b8ff" points="252.41,-252.6 253.55,-242.07 246.09,-249.6 252.41,-252.6"/>
</a>
</g>
</g>
<!-- Node14 -->
<g id="Node000014" class="node">
<title>Node14</title>
<g id="a_Node000014"><a xlink:href="freemtap_8h.html" target="_top" xlink:title=" ">
<polygon fill="white" stroke="#666666" points="476.39,-240.25 414.64,-240.25 414.64,-221 476.39,-221 476.39,-240.25"/>
<text text-anchor="middle" x="445.51" y="-226.75" font-family="Helvetica,sans-Serif" font-size="10.00">freemtap.h</text>
</a>
</g>
</g>
<!-- Node1&#45;&gt;Node14 -->
<g id="edge22_Node000001_Node000014" class="edge">
<title>Node1&#45;&gt;Node14</title>
<g id="a_edge22_Node000001_Node000014"><a xlink:title=" ">
<path fill="none" stroke="#63b8ff" d="M284.21,-275.8C321.09,-265.7 369.35,-252.48 403.44,-243.15"/>
<polygon fill="#63b8ff" stroke="#63b8ff" points="404.24,-246.56 412.96,-240.54 402.39,-239.81 404.24,-246.56"/>
</a>
</g>
</g>
<!-- Node4 -->
<g id="Node000004" class="node">
<title>Node4</title>
<g id="a_Node000004"><a xlink:href="iop_2kernel_2include_2types_8h_source.html" target="_top" xlink:title=" ">
<polygon fill="white" stroke="#666666" points="251.89,-74.5 205.14,-74.5 205.14,-55.25 251.89,-55.25 251.89,-74.5"/>
<text text-anchor="middle" x="228.51" y="-61" font-family="Helvetica,sans-Serif" font-size="10.00">types.h</text>
</a>
</g>
</g>
<!-- Node3&#45;&gt;Node4 -->
<g id="edge3_Node000003_Node000004" class="edge">
<title>Node3&#45;&gt;Node4</title>
<g id="a_edge3_Node000003_Node000004"><a xlink:title=" ">
<path fill="none" stroke="#63b8ff" d="M228.51,-110.33C228.51,-103.82 228.51,-94.67 228.51,-86.37"/>
<polygon fill="#63b8ff" stroke="#63b8ff" points="232.02,-86.37 228.51,-76.37 225.02,-86.37 232.02,-86.37"/>
</a>
</g>
</g>
<!-- Node5 -->
<g id="Node000005" class="node">
<title>Node5</title>
<g id="a_Node000005"><a xlink:title=" ">
<polygon fill="#e0e0e0" stroke="#999999" points="216.76,-19.25 166.26,-19.25 166.26,0 216.76,0 216.76,-19.25"/>
<text text-anchor="middle" x="191.51" y="-5.75" font-family="Helvetica,sans-Serif" font-size="10.00">stddef.h</text>
</a>
</g>
</g>
<!-- Node4&#45;&gt;Node5 -->
<g id="edge4_Node000004_Node000005" class="edge">
<title>Node4&#45;&gt;Node5</title>
<g id="a_edge4_Node000004_Node000005"><a xlink:title=" ">
<path fill="none" stroke="#63b8ff" d="M222.41,-55.08C217.45,-47.96 210.31,-37.68 204.14,-28.8"/>
<polygon fill="#63b8ff" stroke="#63b8ff" points="207.2,-27.07 198.62,-20.85 201.45,-31.06 207.2,-27.07"/>
</a>
</g>
</g>
<!-- Node6 -->
<g id="Node000006" class="node">
<title>Node6</title>
<g id="a_Node000006"><a xlink:href="tamtypes_8h.html" target="_top" xlink:title=" ">
<polygon fill="white" stroke="#666666" points="298.14,-19.25 234.89,-19.25 234.89,0 298.14,0 298.14,-19.25"/>
<text text-anchor="middle" x="266.51" y="-5.75" font-family="Helvetica,sans-Serif" font-size="10.00">tamtypes.h</text>
</a>
</g>
</g>
<!-- Node4&#45;&gt;Node6 -->
<g id="edge5_Node000004_Node000006" class="edge">
<title>Node4&#45;&gt;Node6</title>
<g id="a_edge5_Node000004_Node000006"><a xlink:title=" ">
<path fill="none" stroke="#63b8ff" d="M234.79,-55.08C239.87,-47.96 247.21,-37.68 253.55,-28.8"/>
<polygon fill="#63b8ff" stroke="#63b8ff" points="256.26,-31.01 259.22,-20.84 250.57,-26.95 256.26,-31.01"/>
</a>
</g>
</g>
<!-- Node7&#45;&gt;Node3 -->
<g id="edge8_Node000007_Node000003" class="edge">
<title>Node7&#45;&gt;Node3</title>
<g id="a_edge8_Node000007_Node000003"><a xlink:title=" ">
<path fill="none" stroke="#63b8ff" d="M371.59,-220.53C366.77,-206.88 355.91,-181.05 338.51,-165.75 314.95,-145.02 280.5,-133.16 256.45,-126.96"/>
<polygon fill="#63b8ff" stroke="#63b8ff" points="257.27,-123.55 246.73,-124.63 255.64,-130.36 257.27,-123.55"/>
</a>
</g>
</g>
<!-- Node8 -->
<g id="Node000008" class="node">
<title>Node8</title>
<g id="a_Node000008"><a xlink:title=" ">
<polygon fill="#e0e0e0" stroke="#999999" points="440.76,-185 390.26,-185 390.26,-165.75 440.76,-165.75 440.76,-185"/>
<text text-anchor="middle" x="415.51" y="-171.5" font-family="Helvetica,sans-Serif" font-size="10.00">stdarg.h</text>
</a>
</g>
</g>
<!-- Node7&#45;&gt;Node8 -->
<g id="edge7_Node000007_Node000008" class="edge">
<title>Node7&#45;&gt;Node8</title>
<g id="a_edge7_Node000007_Node000008"><a xlink:title=" ">
<path fill="none" stroke="#63b8ff" d="M381.29,-220.83C386.83,-213.63 394.86,-203.21 401.74,-194.26"/>
<polygon fill="#63b8ff" stroke="#63b8ff" points="404.35,-196.62 407.67,-186.56 398.8,-192.35 404.35,-196.62"/>
</a>
</g>
</g>
<!-- Node9&#45;&gt;Node2 -->
<g id="edge10_Node000009_Node000002" class="edge">
<title>Node9&#45;&gt;Node2</title>
<g id="a_edge10_Node000009_Node000002"><a xlink:title=" ">
<path fill="none" stroke="#63b8ff" d="M56.41,-165.34C67.54,-157.54 83.89,-146.09 97.15,-136.79"/>
<polygon fill="#63b8ff" stroke="#63b8ff" points="99.14,-139.68 105.32,-131.07 95.12,-133.94 99.14,-139.68"/>
</a>
</g>
</g>
<!-- Node9&#45;&gt;Node3 -->
<g id="edge11_Node000009_Node000003" class="edge">
<title>Node9&#45;&gt;Node3</title>
<g id="a_edge11_Node000009_Node000003"><a xlink:title=" ">
<path fill="none" stroke="#63b8ff" d="M74.06,-165.58C109.32,-155.43 166.79,-138.89 200.8,-129.1"/>
<polygon fill="#63b8ff" stroke="#63b8ff" points="201.68,-132.49 210.32,-126.36 199.74,-125.77 201.68,-132.49"/>
</a>
</g>
</g>
<!-- Node10&#45;&gt;Node2 -->
<g id="edge13_Node000010_Node000002" class="edge">
<title>Node10&#45;&gt;Node2</title>
<g id="a_edge13_Node000010_Node000002"><a xlink:title=" ">
<path fill="none" stroke="#63b8ff" d="M119.51,-165.58C119.51,-159.07 119.51,-149.92 119.51,-141.62"/>
<polygon fill="#63b8ff" stroke="#63b8ff" points="123.02,-141.62 119.51,-131.62 116.02,-141.62 123.02,-141.62"/>
</a>
</g>
</g>
<!-- Node10&#45;&gt;Node3 -->
<g id="edge14_Node000010_Node000003" class="edge">
<title>Node10&#45;&gt;Node3</title>
<g id="a_edge14_Node000010_Node000003"><a xlink:title=" ">
<path fill="none" stroke="#63b8ff" d="M138.01,-165.34C155.43,-156.83 181.74,-143.97 201.51,-134.32"/>
<polygon fill="#63b8ff" stroke="#63b8ff" points="202.92,-137.53 210.37,-129.99 199.84,-131.24 202.92,-137.53"/>
</a>
</g>
</g>
<!-- Node11&#45;&gt;Node2 -->
<g id="edge16_Node000011_Node000002" class="edge">
<title>Node11&#45;&gt;Node2</title>
<g id="a_edge16_Node000011_Node000002"><a xlink:title=" ">
<path fill="none" stroke="#63b8ff" d="M179.3,-165.34C168.69,-157.49 153.08,-145.95 140.47,-136.62"/>
<polygon fill="#63b8ff" stroke="#63b8ff" points="142.89,-134.06 132.77,-130.92 138.72,-139.69 142.89,-134.06"/>
</a>
</g>
</g>
<!-- Node11&#45;&gt;Node3 -->
<g id="edge17_Node000011_Node000003" class="edge">
<title>Node11&#45;&gt;Node3</title>
<g id="a_edge17_Node000011_Node000003"><a xlink:title=" ">
<path fill="none" stroke="#63b8ff" d="M197.62,-165.58C202.58,-158.46 209.72,-148.18 215.89,-139.3"/>
<polygon fill="#63b8ff" stroke="#63b8ff" points="218.58,-141.56 221.41,-131.35 212.83,-137.57 218.58,-141.56"/>
</a>
</g>
</g>
<!-- Node13 -->
<g id="Node000013" class="node">
<title>Node13</title>
<g id="a_Node000013"><a xlink:href="sio2man_8h.html" target="_top" xlink:title=" ">
<polygon fill="white" stroke="#666666" points="296.64,-185 236.39,-185 236.39,-165.75 296.64,-165.75 296.64,-185"/>
<text text-anchor="middle" x="266.51" y="-171.5" font-family="Helvetica,sans-Serif" font-size="10.00">sio2man.h</text>
</a>
</g>
</g>
<!-- Node12&#45;&gt;Node13 -->
<g id="edge19_Node000012_Node000013" class="edge">
<title>Node12&#45;&gt;Node13</title>
<g id="a_edge19_Node000012_Node000013"><a xlink:title=" ">
<path fill="none" stroke="#63b8ff" d="M259.84,-220.83C260.83,-214.24 262.22,-204.96 263.48,-196.57"/>
<polygon fill="#63b8ff" stroke="#63b8ff" points="266.92,-197.26 264.94,-186.86 259.99,-196.22 266.92,-197.26"/>
</a>
</g>
</g>
<!-- Node13&#45;&gt;Node2 -->
<g id="edge20_Node000013_Node000002" class="edge">
<title>Node13&#45;&gt;Node2</title>
<g id="a_edge20_Node000013_Node000002"><a xlink:title=" ">
<path fill="none" stroke="#63b8ff" d="M241.58,-165.34C217.39,-156.58 180.5,-143.21 153.6,-133.47"/>
<polygon fill="#63b8ff" stroke="#63b8ff" points="155.13,-130.3 144.54,-130.19 152.75,-136.89 155.13,-130.3"/>
</a>
</g>
</g>
<!-- Node13&#45;&gt;Node3 -->
<g id="edge21_Node000013_Node000003" class="edge">
<title>Node13&#45;&gt;Node3</title>
<g id="a_edge21_Node000013_Node000003"><a xlink:title=" ">
<path fill="none" stroke="#63b8ff" d="M260.24,-165.58C255.16,-158.46 247.82,-148.18 241.48,-139.3"/>
<polygon fill="#63b8ff" stroke="#63b8ff" points="244.46,-137.45 235.81,-131.34 238.77,-141.51 244.46,-137.45"/>
</a>
</g>
</g>
</g>
</svg>
</svg>

<style type='text/css'>
<![CDATA[
[data-mouse-over-selected='false'] { opacity: 0.7; }
[data-mouse-over-selected='true']  { opacity: 1.0; }
]]>
</style>
<script type="application/ecmascript"><![CDATA[
document.addEventListener('DOMContentLoaded', (event) => {
  highlightEdges();
  highlightAdjacentNodes();
});
]]></script>
</svg>
