<?xml version="1.0" encoding="UTF-8" standalone="no"?>
<!DOCTYPE svg PUBLIC "-//W3C//DTD SVG 1.1//EN"
 "http://www.w3.org/Graphics/SVG/1.1/DTD/svg11.dtd">
<!-- Generated by graphviz version 9.0.0 (20230911.1827)
 -->
<!-- Title: common/include/gif_tags.h Pages: 1 -->
<!--zoomable 271 -->

<svg id="main" version="1.1" xmlns="http://www.w3.org/2000/svg" xmlns:xlink="http://www.w3.org/1999/xlink" xml:space="preserve" onload="init(evt)">
<style type="text/css"><![CDATA[
.node, .edge {opacity: 0.7;}
.node.selected, .edge.selected {opacity: 1;}
.edge:hover path { stroke: red; }
.edge:hover polygon { stroke: red; fill: red; }
]]></style>

<defs>
  <circle id="rim" cx="0" cy="0" r="7"/>
  <circle id="rim2" cx="0" cy="0" r="3.5"/>
  <g id="zoomPlus">
    <use xlink:href="#rim" fill="#404040"><set attributeName="fill" to="#808080" begin="zoomplus.mouseover" end="zoomplus.mouseout"/></use>
    <path d="M-4,0h8M0,-4v8" fill="none" stroke="white" stroke-width="1.5" pointer-events="none"/>
  </g>
  <g id="zoomMin">
    <use xlink:href="#rim" fill="#404040"><set attributeName="fill" to="#808080" begin="zoomminus.mouseover" end="zoomminus.mouseout"/></use>
    <path d="M-4,0h8" fill="none" stroke="white" stroke-width="1.5" pointer-events="none"/>
  </g>
  <g id="arrowUp" transform="translate(30 24)">
    <use xlink:href="#rim"/>
    <path pointer-events="none" fill="none" stroke="white" stroke-width="1.5" d="M0,-3.0v7 M-2.5,-0.5L0,-3.0L2.5,-0.5"/>
  </g>
  <g id="arrowRight" transform="rotate(90) translate(36 -43)">
    <use xlink:href="#rim"/>
    <path pointer-events="none" fill="none" stroke="white" stroke-width="1.5" d="M0,-3.0v7 M-2.5,-0.5L0,-3.0L2.5,-0.5"/>
  </g>
  <g id="arrowDown" transform="rotate(180) translate(-30 -48)">
    <use xlink:href="#rim"/>
    <path pointer-events="none" fill="none" stroke="white" stroke-width="1.5" d="M0,-3.0v7 M-2.5,-0.5L0,-3.0L2.5,-0.5"/>
  </g>
  <g id="arrowLeft" transform="rotate(270) translate(-36 17)">
    <use xlink:href="#rim"/>
    <path pointer-events="none" fill="none" stroke="white" stroke-width="1.5" d="M0,-3.0v7 M-2.5,-0.5L0,-3.0L2.5,-0.5"/>
  </g>
  <g id="resetDef">
    <use xlink:href="#rim2" fill="#404040"><set attributeName="fill" to="#808080" begin="reset.mouseover" end="reset.mouseout"/></use>
  </g>
</defs>
<script type="application/ecmascript">
var viewWidth = 802;
var viewHeight = 271;
var sectionId = 'dynsection-1';
</script>
<script type="application/ecmascript" xlink:href="svg.min.js"/>
<svg id="graph" class="graph">
<g id="viewport">
<title>common/include/gif_tags.h</title>
<!-- Node1 -->
<g id="Node000001" class="node">
<title>Node1</title>
<g id="a_Node000001"><a xlink:title=" ">
<polygon fill="#999999" stroke="#666666" points="338.84,-262.75 238.09,-262.75 238.09,-232.25 338.84,-232.25 338.84,-262.75"/>
<text text-anchor="start" x="246.09" y="-249.25" font-family="Helvetica,sans-Serif" font-size="10.00">common/include/gif</text>
<text text-anchor="middle" x="288.47" y="-238" font-family="Helvetica,sans-Serif" font-size="10.00">_tags.h</text>
</a>
</g>
</g>
<!-- Node2 -->
<g id="Node000002" class="node">
<title>Node2</title>
<g id="a_Node000002"><a xlink:href="draw3d_8h.html" target="_top" xlink:title=" ">
<polygon fill="white" stroke="#666666" points="227.59,-196.25 101.34,-196.25 101.34,-177 227.59,-177 227.59,-196.25"/>
<text text-anchor="middle" x="164.47" y="-182.75" font-family="Helvetica,sans-Serif" font-size="10.00">ee/draw/include/draw3d.h</text>
</a>
</g>
</g>
<!-- Node1&#45;&gt;Node2 -->
<g id="edge1_Node000001_Node000002" class="edge">
<title>Node1&#45;&gt;Node2</title>
<g id="a_edge1_Node000001_Node000002"><a xlink:title=" ">
<path fill="none" stroke="#63b8ff" d="M247.28,-226.94C225.74,-216.72 200.41,-204.69 183.48,-196.65"/>
<polygon fill="#63b8ff" stroke="#63b8ff" points="245.6,-230.02 256.13,-231.15 248.6,-223.7 245.6,-230.02"/>
</a>
</g>
</g>
<!-- Node4 -->
<g id="Node000004" class="node">
<title>Node4</title>
<g id="a_Node000004"><a xlink:href="draw_2src_2draw_8c_source.html" target="_top" xlink:title=" ">
<polygon fill="white" stroke="#666666" points="491.72,-74.5 393.22,-74.5 393.22,-55.25 491.72,-55.25 491.72,-74.5"/>
<text text-anchor="middle" x="442.47" y="-61" font-family="Helvetica,sans-Serif" font-size="10.00">ee/draw/src/draw.c</text>
</a>
</g>
</g>
<!-- Node1&#45;&gt;Node4 -->
<g id="edge16_Node000001_Node000004" class="edge">
<title>Node1&#45;&gt;Node4</title>
<g id="a_edge16_Node000001_Node000004"><a xlink:title=" ">
<path fill="none" stroke="#63b8ff" d="M312.05,-223.88C333.21,-203.12 364.67,-171.1 389.47,-141 408.14,-118.33 427.35,-89.44 436.68,-74.98"/>
<polygon fill="#63b8ff" stroke="#63b8ff" points="309.74,-221.24 305.02,-230.73 314.62,-226.26 309.74,-221.24"/>
</a>
</g>
</g>
<!-- Node5 -->
<g id="Node000005" class="node">
<title>Node5</title>
<g id="a_Node000005"><a xlink:href="draw2d_8c_source.html" target="_top" xlink:title=" ">
<polygon fill="white" stroke="#666666" points="136.97,-74.5 27.97,-74.5 27.97,-55.25 136.97,-55.25 136.97,-74.5"/>
<text text-anchor="middle" x="82.47" y="-61" font-family="Helvetica,sans-Serif" font-size="10.00">ee/draw/src/draw2d.c</text>
</a>
</g>
</g>
<!-- Node1&#45;&gt;Node5 -->
<g id="edge17_Node000001_Node000005" class="edge">
<title>Node1&#45;&gt;Node5</title>
<g id="a_edge17_Node000001_Node000005"><a xlink:title=" ">
<path fill="none" stroke="#63b8ff" d="M226.29,-242.76C184.89,-237.52 131.18,-225.17 92.47,-196.25 59.75,-171.81 49.84,-150.19 59.47,-110.5 62.67,-97.29 70.51,-83.61 76.15,-74.93"/>
<polygon fill="#63b8ff" stroke="#63b8ff" points="225.78,-246.22 236.12,-243.88 226.58,-239.27 225.78,-246.22"/>
</a>
</g>
</g>
<!-- Node6 -->
<g id="Node000006" class="node">
<title>Node6</title>
<g id="a_Node000006"><a xlink:href="draw3d_8c_source.html" target="_top" xlink:title=" ">
<polygon fill="white" stroke="#666666" points="618.97,-74.5 509.97,-74.5 509.97,-55.25 618.97,-55.25 618.97,-74.5"/>
<text text-anchor="middle" x="564.47" y="-61" font-family="Helvetica,sans-Serif" font-size="10.00">ee/draw/src/draw3d.c</text>
</a>
</g>
</g>
<!-- Node1&#45;&gt;Node6 -->
<g id="edge18_Node000001_Node000006" class="edge">
<title>Node1&#45;&gt;Node6</title>
<g id="a_edge18_Node000001_Node000006"><a xlink:title=" ">
<path fill="none" stroke="#63b8ff" d="M319.94,-225.9C379.9,-186.66 508.32,-102.62 550.63,-74.93"/>
<polygon fill="#63b8ff" stroke="#63b8ff" points="318.31,-222.79 311.85,-231.2 322.14,-228.65 318.31,-222.79"/>
</a>
</g>
</g>
<!-- Node7 -->
<g id="Node000007" class="node">
<title>Node7</title>
<g id="a_Node000007"><a xlink:href="draw__environment_8c_source.html" target="_top" xlink:title=" ">
<polygon fill="white" stroke="#666666" points="793.97,-74.5 636.97,-74.5 636.97,-55.25 793.97,-55.25 793.97,-74.5"/>
<text text-anchor="middle" x="715.47" y="-61" font-family="Helvetica,sans-Serif" font-size="10.00">ee/draw/src/draw_environment.c</text>
</a>
</g>
</g>
<!-- Node1&#45;&gt;Node7 -->
<g id="edge19_Node000001_Node000007" class="edge">
<title>Node1&#45;&gt;Node7</title>
<g id="a_edge19_Node000001_Node000007"><a xlink:title=" ">
<path fill="none" stroke="#63b8ff" d="M333.6,-227.41C424.76,-188.85 627.85,-102.94 694.11,-74.91"/>
<polygon fill="#63b8ff" stroke="#63b8ff" points="332.29,-224.16 324.44,-231.28 335.02,-230.61 332.29,-224.16"/>
</a>
</g>
</g>
<!-- Node9 -->
<g id="Node000009" class="node">
<title>Node9</title>
<g id="a_Node000009"><a xlink:href="fontx_8c_source.html" target="_top" xlink:title=" ">
<polygon fill="white" stroke="#666666" points="129.47,-19.25 35.47,-19.25 35.47,0 129.47,0 129.47,-19.25"/>
<text text-anchor="middle" x="82.47" y="-5.75" font-family="Helvetica,sans-Serif" font-size="10.00">ee/font/src/fontx.c</text>
</a>
</g>
</g>
<!-- Node1&#45;&gt;Node9 -->
<g id="edge20_Node000001_Node000009" class="edge">
<title>Node1&#45;&gt;Node9</title>
<g id="a_edge20_Node000001_Node000009"><a xlink:title=" ">
<path fill="none" stroke="#63b8ff" d="M226.36,-238.53C170.08,-230.22 92.4,-215.69 68.47,-196.25 16.13,-153.74 -19.95,-114.37 12.47,-55.25 21.82,-38.19 40.78,-26.71 56.61,-19.68"/>
<polygon fill="#63b8ff" stroke="#63b8ff" points="225.77,-241.98 236.16,-239.94 226.76,-235.05 225.77,-241.98"/>
</a>
</g>
</g>
<!-- Node3 -->
<g id="Node000003" class="node">
<title>Node3</title>
<g id="a_Node000003"><a xlink:href="draw_8h.html" target="_top" xlink:title=" ">
<polygon fill="white" stroke="#666666" points="380.34,-135.38 264.59,-135.38 264.59,-116.12 380.34,-116.12 380.34,-135.38"/>
<text text-anchor="middle" x="322.47" y="-121.88" font-family="Helvetica,sans-Serif" font-size="10.00">ee/draw/include/draw.h</text>
</a>
</g>
</g>
<!-- Node2&#45;&gt;Node3 -->
<g id="edge2_Node000002_Node000003" class="edge">
<title>Node2&#45;&gt;Node3</title>
<g id="a_edge2_Node000002_Node000003"><a xlink:title=" ">
<path fill="none" stroke="#63b8ff" d="M199.22,-172.67C229.17,-161.51 271.64,-145.69 298.1,-135.83"/>
<polygon fill="#63b8ff" stroke="#63b8ff" points="198.38,-169.25 190.23,-176.03 200.82,-175.81 198.38,-169.25"/>
</a>
</g>
</g>
<!-- Node2&#45;&gt;Node5 -->
<g id="edge12_Node000002_Node000005" class="edge">
<title>Node2&#45;&gt;Node5</title>
<g id="a_edge12_Node000002_Node000005"><a xlink:title=" ">
<path fill="none" stroke="#63b8ff" d="M110.37,-172.72C94.09,-166.04 78.04,-156 68.47,-141 55.2,-120.2 68.6,-89.96 76.92,-74.99"/>
<polygon fill="#63b8ff" stroke="#63b8ff" points="109.01,-175.95 119.6,-176.12 111.43,-169.38 109.01,-175.95"/>
</a>
</g>
</g>
<!-- Node2&#45;&gt;Node9 -->
<g id="edge13_Node000002_Node000009" class="edge">
<title>Node2&#45;&gt;Node9</title>
<g id="a_edge13_Node000002_Node000009"><a xlink:title=" ">
<path fill="none" stroke="#63b8ff" d="M117.99,-172.82C98.37,-165.76 76.25,-155.42 59.47,-141 33.14,-118.37 27.94,-107.91 18.47,-74.5 16.13,-66.27 14.51,-62.83 18.47,-55.25 27.18,-38.56 45.3,-26.84 60.04,-19.61"/>
<polygon fill="#63b8ff" stroke="#63b8ff" points="116.85,-176.13 127.44,-176.03 119.1,-169.5 116.85,-176.13"/>
</a>
</g>
</g>
<!-- Node10 -->
<g id="Node000010" class="node">
<title>Node10</title>
<g id="a_Node000010"><a xlink:href="fsfont_8c_source.html" target="_top" xlink:title=" ">
<polygon fill="white" stroke="#666666" points="333.34,-19.25 235.59,-19.25 235.59,0 333.34,0 333.34,-19.25"/>
<text text-anchor="middle" x="284.47" y="-5.75" font-family="Helvetica,sans-Serif" font-size="10.00">ee/font/src/fsfont.c</text>
</a>
</g>
</g>
<!-- Node2&#45;&gt;Node10 -->
<g id="edge14_Node000002_Node000010" class="edge">
<title>Node2&#45;&gt;Node10</title>
<g id="a_edge14_Node000002_Node000010"><a xlink:title=" ">
<path fill="none" stroke="#63b8ff" d="M173.1,-166.41C176.63,-158.54 180.75,-149.34 184.47,-141 201.44,-102.92 196.19,-87.61 222.47,-55.25 234.84,-40.01 253.63,-27.48 267.28,-19.62"/>
<polygon fill="#63b8ff" stroke="#63b8ff" points="169.99,-164.8 169.08,-175.36 176.37,-167.67 169.99,-164.8"/>
</a>
</g>
</g>
<!-- Node11 -->
<g id="Node000011" class="node">
<title>Node11</title>
<g id="a_Node000011"><a xlink:href="packet2__utils_8h_source.html" target="_top" xlink:title=" ">
<polygon fill="white" stroke="#666666" points="175.34,-141 77.59,-141 77.59,-110.5 175.34,-110.5 175.34,-141"/>
<text text-anchor="start" x="85.59" y="-127.5" font-family="Helvetica,sans-Serif" font-size="10.00">ee/packet2/include</text>
<text text-anchor="middle" x="126.47" y="-116.25" font-family="Helvetica,sans-Serif" font-size="10.00">/packet2_utils.h</text>
</a>
</g>
</g>
<!-- Node2&#45;&gt;Node11 -->
<g id="edge15_Node000002_Node000011" class="edge">
<title>Node2&#45;&gt;Node11</title>
<g id="a_edge15_Node000002_Node000011"><a xlink:title=" ">
<path fill="none" stroke="#63b8ff" d="M152.51,-167.1C147.13,-158.77 140.88,-149.08 135.85,-141.28"/>
<polygon fill="#63b8ff" stroke="#63b8ff" points="149.51,-168.91 157.88,-175.41 155.39,-165.11 149.51,-168.91"/>
</a>
</g>
</g>
<!-- Node3&#45;&gt;Node4 -->
<g id="edge3_Node000003_Node000004" class="edge">
<title>Node3&#45;&gt;Node4</title>
<g id="a_edge3_Node000003_Node000004"><a xlink:title=" ">
<path fill="none" stroke="#63b8ff" d="M351.02,-110.74C373.69,-99.62 404.7,-84.4 424.16,-74.86"/>
<polygon fill="#63b8ff" stroke="#63b8ff" points="349.75,-107.47 342.31,-115.01 352.83,-113.75 349.75,-107.47"/>
</a>
</g>
</g>
<!-- Node3&#45;&gt;Node5 -->
<g id="edge4_Node000003_Node000005" class="edge">
<title>Node3&#45;&gt;Node5</title>
<g id="a_edge4_Node000003_Node000005"><a xlink:title=" ">
<path fill="none" stroke="#63b8ff" d="M274.39,-112.96C228.74,-101.76 161.08,-85.16 119.48,-74.96"/>
<polygon fill="#63b8ff" stroke="#63b8ff" points="273.48,-116.34 284.02,-115.32 275.15,-109.54 273.48,-116.34"/>
</a>
</g>
</g>
<!-- Node3&#45;&gt;Node6 -->
<g id="edge5_Node000003_Node000006" class="edge">
<title>Node3&#45;&gt;Node6</title>
<g id="a_edge5_Node000003_Node000006"><a xlink:title=" ">
<path fill="none" stroke="#63b8ff" d="M370.65,-113.03C416.69,-101.83 485.11,-85.18 527.14,-74.96"/>
<polygon fill="#63b8ff" stroke="#63b8ff" points="370.11,-109.56 361.22,-115.32 371.77,-116.36 370.11,-109.56"/>
</a>
</g>
</g>
<!-- Node3&#45;&gt;Node7 -->
<g id="edge6_Node000003_Node000007" class="edge">
<title>Node3&#45;&gt;Node7</title>
<g id="a_edge6_Node000003_Node000007"><a xlink:title=" ">
<path fill="none" stroke="#63b8ff" d="M391.58,-114.4C466.09,-103.23 583.54,-85.64 654.65,-74.99"/>
<polygon fill="#63b8ff" stroke="#63b8ff" points="391.32,-110.9 381.95,-115.84 392.36,-117.82 391.32,-110.9"/>
</a>
</g>
</g>
<!-- Node8 -->
<g id="Node000008" class="node">
<title>Node8</title>
<g id="a_Node000008"><a xlink:href="font_8h.html" target="_top" xlink:title=" ">
<polygon fill="white" stroke="#666666" points="337.84,-74.5 231.09,-74.5 231.09,-55.25 337.84,-55.25 337.84,-74.5"/>
<text text-anchor="middle" x="284.47" y="-61" font-family="Helvetica,sans-Serif" font-size="10.00">ee/font/include/font.h</text>
</a>
</g>
</g>
<!-- Node3&#45;&gt;Node8 -->
<g id="edge7_Node000003_Node000008" class="edge">
<title>Node3&#45;&gt;Node8</title>
<g id="a_edge7_Node000003_Node000008"><a xlink:title=" ">
<path fill="none" stroke="#63b8ff" d="M310.57,-106.31C303.82,-95.85 295.67,-83.23 290.29,-74.9"/>
<polygon fill="#63b8ff" stroke="#63b8ff" points="307.51,-108.03 315.88,-114.54 313.39,-104.24 307.51,-108.03"/>
</a>
</g>
</g>
<!-- Node3&#45;&gt;Node9 -->
<g id="edge10_Node000003_Node000009" class="edge">
<title>Node3&#45;&gt;Node9</title>
<g id="a_edge10_Node000003_Node000009"><a xlink:title=" ">
<path fill="none" stroke="#63b8ff" d="M293.24,-110.85C243.42,-87.16 143.38,-39.59 101.55,-19.7"/>
<polygon fill="#63b8ff" stroke="#63b8ff" points="291.74,-114.01 302.27,-115.14 294.74,-107.69 291.74,-114.01"/>
</a>
</g>
</g>
<!-- Node3&#45;&gt;Node10 -->
<g id="edge11_Node000003_Node000010" class="edge">
<title>Node3&#45;&gt;Node10</title>
<g id="a_edge11_Node000003_Node000010"><a xlink:title=" ">
<path fill="none" stroke="#63b8ff" d="M336.57,-106.6C345.91,-92.24 354.99,-71.89 346.47,-55.25 338,-38.73 320.25,-26.93 305.91,-19.63"/>
<polygon fill="#63b8ff" stroke="#63b8ff" points="333.8,-104.46 330.86,-114.64 339.51,-108.52 333.8,-104.46"/>
</a>
</g>
</g>
<!-- Node8&#45;&gt;Node9 -->
<g id="edge8_Node000008_Node000009" class="edge">
<title>Node8&#45;&gt;Node9</title>
<g id="a_edge8_Node000008_Node000009"><a xlink:title=" ">
<path fill="none" stroke="#63b8ff" d="M239.22,-51.95C202.2,-42.19 150.63,-28.59 116.9,-19.7"/>
<polygon fill="#63b8ff" stroke="#63b8ff" points="238.18,-55.29 248.74,-54.46 239.96,-48.52 238.18,-55.29"/>
</a>
</g>
</g>
<!-- Node8&#45;&gt;Node10 -->
<g id="edge9_Node000008_Node000010" class="edge">
<title>Node8&#45;&gt;Node10</title>
<g id="a_edge9_Node000008_Node000010"><a xlink:title=" ">
<path fill="none" stroke="#63b8ff" d="M284.47,-43.63C284.47,-35.34 284.47,-26.17 284.47,-19.61"/>
<polygon fill="#63b8ff" stroke="#63b8ff" points="280.97,-43.57 284.47,-53.57 287.97,-43.57 280.97,-43.57"/>
</a>
</g>
</g>
</g>
</svg>

<g id="navigator" transform="translate(0 0)" fill="#404254">
  <rect fill="#f2f5e9" fill-opacity="0.5" stroke="#606060" stroke-width=".5" x="0" y="0" width="60" height="60"/>
  <use id="zoomplus" xlink:href="#zoomPlus" x="17" y="9" onmousedown="handleZoom(evt,'in')"/>
  <use id="zoomminus" xlink:href="#zoomMin" x="42" y="9" onmousedown="handleZoom(evt,'out')"/>
  <use id="reset" xlink:href="#resetDef" x="30" y="36" onmousedown="handleReset()"/>
   <use id="arrowup" xlink:href="#arrowUp" x="0" y="0" onmousedown="handlePan(0,-1)"/>
  <use id="arrowright" xlink:href="#arrowRight" x="0" y="0" onmousedown="handlePan(1,0)"/>
  <use id="arrowdown" xlink:href="#arrowDown" x="0" y="0" onmousedown="handlePan(0,1)"/>
  <use id="arrowleft" xlink:href="#arrowLeft" x="0" y="0" onmousedown="handlePan(-1,0)"/>
</g>
<svg viewBox="0 0 15 15" width="100%" height="30px" preserveAspectRatio="xMaxYMin meet">
 <g id="arrow_out" transform="scale(0.3 0.3)">
  <a xlink:href="gif__tags_8h__dep__incl_org.svg" target="_base">
   <rect id="button" ry="5" rx="5" y="6" x="6" height="38" width="38"
        fill="#f2f5e9" fill-opacity="0.5" stroke="#606060" stroke-width="1.0"/>
   <path id="arrow"
     d="M 11.500037,31.436501 C 11.940474,20.09759 22.043105,11.32322 32.158766,21.979434 L 37.068811,17.246167 C 37.068811,17.246167 37.088388,32 37.088388,32 L 22.160133,31.978069 C 22.160133,31.978069 26.997745,27.140456 26.997745,27.140456 C 18.528582,18.264221 13.291696,25.230495 11.500037,31.436501 z"
     style="fill:#404040;"/>
  </a>
 </g>
</svg>

<style type='text/css'>
<![CDATA[
[data-mouse-over-selected='false'] { opacity: 0.7; }
[data-mouse-over-selected='true']  { opacity: 1.0; }
]]>
</style>
<script type="application/ecmascript"><![CDATA[
document.addEventListener('DOMContentLoaded', (event) => {
  highlightEdges();
  highlightAdjacentNodes();
});
]]></script>
</svg>
