<?xml version="1.0" encoding="UTF-8" standalone="no"?>
<!DOCTYPE svg PUBLIC "-//W3C//DTD SVG 1.1//EN"
 "http://www.w3.org/Graphics/SVG/1.1/DTD/svg11.dtd">
<!-- Generated by graphviz version 2.43.0 (0)
 -->
<!-- Title: ee/graph/include/graph_vram.h Pages: 1 -->
<svg width="528pt" height="173pt"
 viewBox="0.00 0.00 527.50 173.00" xmlns="http://www.w3.org/2000/svg" xmlns:xlink="http://www.w3.org/1999/xlink">
<g id="graph0" class="graph" transform="scale(1 1) rotate(0) translate(4 169)">
<title>ee/graph/include/graph_vram.h</title>
<polygon fill="white" stroke="transparent" points="-4,4 -4,-169 523.5,-169 523.5,4 -4,4"/>
<!-- Node1 -->
<g id="node1" class="node">
<title>Node1</title>
<g id="a_node1"><a xlink:title=" ">
<polygon fill="#bfbfbf" stroke="black" points="256,-134.5 256,-164.5 384,-164.5 384,-134.5 256,-134.5"/>
<text text-anchor="start" x="264" y="-152.5" font-family="Helvetica,sans-Serif" font-size="10.00">ee/graph/include/graph</text>
<text text-anchor="middle" x="320" y="-141.5" font-family="Helvetica,sans-Serif" font-size="10.00">_vram.h</text>
</a>
</g>
</g>
<!-- Node2 -->
<g id="node2" class="node">
<title>Node2</title>
<g id="a_node2"><a xlink:href="graph_8h.html" target="_top" xlink:title=" ">
<polygon fill="white" stroke="black" points="181.5,-73 181.5,-92 318.5,-92 318.5,-73 181.5,-73"/>
<text text-anchor="middle" x="250" y="-80" font-family="Helvetica,sans-Serif" font-size="10.00">ee/graph/include/graph.h</text>
</a>
</g>
</g>
<!-- Node1&#45;&gt;Node2 -->
<g id="edge1" class="edge">
<title>Node1&#45;&gt;Node2</title>
<path fill="none" stroke="midnightblue" d="M297.21,-127.34C284.35,-115.4 268.99,-101.14 259.36,-92.19"/>
<polygon fill="midnightblue" stroke="midnightblue" points="295.1,-130.16 304.81,-134.4 299.86,-125.03 295.1,-130.16"/>
</g>
<!-- Node7 -->
<g id="node7" class="node">
<title>Node7</title>
<g id="a_node7"><a xlink:href="graph__vram_8c_source.html" target="_top" xlink:title=" ">
<polygon fill="white" stroke="black" points="336.5,-67.5 336.5,-97.5 443.5,-97.5 443.5,-67.5 336.5,-67.5"/>
<text text-anchor="start" x="344.5" y="-85.5" font-family="Helvetica,sans-Serif" font-size="10.00">ee/graph/src/graph</text>
<text text-anchor="middle" x="390" y="-74.5" font-family="Helvetica,sans-Serif" font-size="10.00">_vram.c</text>
</a>
</g>
</g>
<!-- Node1&#45;&gt;Node7 -->
<g id="edge6" class="edge">
<title>Node1&#45;&gt;Node7</title>
<path fill="none" stroke="midnightblue" d="M342.82,-127.31C353.32,-117.56 365.49,-106.26 374.84,-97.58"/>
<polygon fill="midnightblue" stroke="midnightblue" points="340.14,-125.03 335.19,-134.4 344.9,-130.16 340.14,-125.03"/>
</g>
<!-- Node3 -->
<g id="node3" class="node">
<title>Node3</title>
<g id="a_node3"><a xlink:href="graph_8c_source.html" target="_top" xlink:title=" ">
<polygon fill="white" stroke="black" points="0,-6 0,-25 116,-25 116,-6 0,-6"/>
<text text-anchor="middle" x="58" y="-13" font-family="Helvetica,sans-Serif" font-size="10.00">ee/graph/src/graph.c</text>
</a>
</g>
</g>
<!-- Node2&#45;&gt;Node3 -->
<g id="edge2" class="edge">
<title>Node2&#45;&gt;Node3</title>
<path fill="none" stroke="midnightblue" d="M214.85,-69.6C176.79,-56.71 117,-36.47 83.3,-25.06"/>
<polygon fill="midnightblue" stroke="midnightblue" points="213.91,-72.98 224.5,-72.87 216.15,-66.35 213.91,-72.98"/>
</g>
<!-- Node4 -->
<g id="node4" class="node">
<title>Node4</title>
<g id="a_node4"><a xlink:href="graph__config_8c_source.html" target="_top" xlink:title=" ">
<polygon fill="white" stroke="black" points="134.5,-0.5 134.5,-30.5 241.5,-30.5 241.5,-0.5 134.5,-0.5"/>
<text text-anchor="start" x="142.5" y="-18.5" font-family="Helvetica,sans-Serif" font-size="10.00">ee/graph/src/graph</text>
<text text-anchor="middle" x="188" y="-7.5" font-family="Helvetica,sans-Serif" font-size="10.00">_config.c</text>
</a>
</g>
</g>
<!-- Node2&#45;&gt;Node4 -->
<g id="edge3" class="edge">
<title>Node2&#45;&gt;Node4</title>
<path fill="none" stroke="midnightblue" d="M234.55,-65.3C224.37,-54.63 211.18,-40.8 201.44,-30.59"/>
<polygon fill="midnightblue" stroke="midnightblue" points="232.2,-67.91 241.64,-72.73 237.27,-63.08 232.2,-67.91"/>
</g>
<!-- Node5 -->
<g id="node5" class="node">
<title>Node5</title>
<g id="a_node5"><a xlink:href="graph__mode_8c_source.html" target="_top" xlink:title=" ">
<polygon fill="white" stroke="black" points="259.5,-0.5 259.5,-30.5 366.5,-30.5 366.5,-0.5 259.5,-0.5"/>
<text text-anchor="start" x="267.5" y="-18.5" font-family="Helvetica,sans-Serif" font-size="10.00">ee/graph/src/graph</text>
<text text-anchor="middle" x="313" y="-7.5" font-family="Helvetica,sans-Serif" font-size="10.00">_mode.c</text>
</a>
</g>
</g>
<!-- Node2&#45;&gt;Node5 -->
<g id="edge4" class="edge">
<title>Node2&#45;&gt;Node5</title>
<path fill="none" stroke="midnightblue" d="M265.7,-65.3C276.04,-54.63 289.45,-40.8 299.34,-30.59"/>
<polygon fill="midnightblue" stroke="midnightblue" points="262.94,-63.12 258.5,-72.73 267.97,-67.99 262.94,-63.12"/>
</g>
<!-- Node6 -->
<g id="node6" class="node">
<title>Node6</title>
<g id="a_node6"><a xlink:href="math3d_8c_source.html" target="_top" xlink:title=" ">
<polygon fill="white" stroke="black" points="384.5,-6 384.5,-25 519.5,-25 519.5,-6 384.5,-6"/>
<text text-anchor="middle" x="452" y="-13" font-family="Helvetica,sans-Serif" font-size="10.00">ee/math3d/src/math3d.c</text>
</a>
</g>
</g>
<!-- Node2&#45;&gt;Node6 -->
<g id="edge5" class="edge">
<title>Node2&#45;&gt;Node6</title>
<path fill="none" stroke="midnightblue" d="M286.47,-69.77C326.49,-56.89 389.78,-36.52 425.39,-25.06"/>
<polygon fill="midnightblue" stroke="midnightblue" points="285.27,-66.47 276.82,-72.87 287.42,-73.14 285.27,-66.47"/>
</g>
</g>
</svg>
