<?xml version="1.0" encoding="UTF-8" standalone="no"?>
<!DOCTYPE svg PUBLIC "-//W3C//DTD SVG 1.1//EN"
 "http://www.w3.org/Graphics/SVG/1.1/DTD/svg11.dtd">
<!-- Generated by graphviz version 9.0.0 (20230911.1827)
 -->
<!-- Title: ee/graph/include/graph_vram.h Pages: 1 -->
<svg width="482pt" height="172pt"
 viewBox="0.00 0.00 481.75 171.50" xmlns="http://www.w3.org/2000/svg" xmlns:xlink="http://www.w3.org/1999/xlink">
<g id="graph0" class="graph" transform="scale(1 1) rotate(0) translate(4 167.5)">
<title>ee/graph/include/graph_vram.h</title>
<!-- Node1 -->
<g id="Node000001" class="node">
<title>Node1</title>
<g id="a_Node000001"><a xlink:title=" ">
<polygon fill="#999999" stroke="#666666" points="348.38,-163.5 234.12,-163.5 234.12,-133 348.38,-133 348.38,-163.5"/>
<text text-anchor="start" x="242.12" y="-150" font-family="Helvetica,sans-Serif" font-size="10.00">ee/graph/include/graph</text>
<text text-anchor="middle" x="291.25" y="-138.75" font-family="Helvetica,sans-Serif" font-size="10.00">_vram.h</text>
</a>
</g>
</g>
<!-- Node2 -->
<g id="Node000002" class="node">
<title>Node2</title>
<g id="a_Node000002"><a xlink:href="graph_8h.html" target="_top" xlink:title=" ">
<polygon fill="white" stroke="#666666" points="289.12,-91.38 167.38,-91.38 167.38,-72.12 289.12,-72.12 289.12,-91.38"/>
<text text-anchor="middle" x="228.25" y="-77.88" font-family="Helvetica,sans-Serif" font-size="10.00">ee/graph/include/graph.h</text>
</a>
</g>
</g>
<!-- Node1&#45;&gt;Node2 -->
<g id="edge1_Node000001_Node000002" class="edge">
<title>Node1&#45;&gt;Node2</title>
<g id="a_edge1_Node000001_Node000002"><a xlink:title=" ">
<path fill="none" stroke="#63b8ff" d="M269.23,-124.71C258.07,-113.28 245.17,-100.07 236.87,-91.57"/>
<polygon fill="#63b8ff" stroke="#63b8ff" points="266.41,-126.82 275.9,-131.53 271.41,-121.93 266.41,-126.82"/>
</a>
</g>
</g>
<!-- Node7 -->
<g id="Node000007" class="node">
<title>Node7</title>
<g id="a_Node000007"><a xlink:href="graph__vram_8c_source.html" target="_top" xlink:title=" ">
<polygon fill="white" stroke="#666666" points="403.75,-97 306.75,-97 306.75,-66.5 403.75,-66.5 403.75,-97"/>
<text text-anchor="start" x="314.75" y="-83.5" font-family="Helvetica,sans-Serif" font-size="10.00">ee/graph/src/graph</text>
<text text-anchor="middle" x="355.25" y="-72.25" font-family="Helvetica,sans-Serif" font-size="10.00">_vram.c</text>
</a>
</g>
</g>
<!-- Node1&#45;&gt;Node7 -->
<g id="edge6_Node000001_Node000007" class="edge">
<title>Node1&#45;&gt;Node7</title>
<g id="a_edge6_Node000001_Node000007"><a xlink:title=" ">
<path fill="none" stroke="#63b8ff" d="M313.64,-124.69C322.65,-115.61 332.78,-105.4 340.78,-97.33"/>
<polygon fill="#63b8ff" stroke="#63b8ff" points="311.4,-121.98 306.84,-131.54 316.37,-126.91 311.4,-121.98"/>
</a>
</g>
</g>
<!-- Node3 -->
<g id="Node000003" class="node">
<title>Node3</title>
<g id="a_Node000003"><a xlink:href="graph_8c_source.html" target="_top" xlink:title=" ">
<polygon fill="white" stroke="#666666" points="104.5,-24.88 0,-24.88 0,-5.63 104.5,-5.63 104.5,-24.88"/>
<text text-anchor="middle" x="52.25" y="-11.38" font-family="Helvetica,sans-Serif" font-size="10.00">ee/graph/src/graph.c</text>
</a>
</g>
</g>
<!-- Node2&#45;&gt;Node3 -->
<g id="edge2_Node000002_Node000003" class="edge">
<title>Node2&#45;&gt;Node3</title>
<g id="a_edge2_Node000002_Node000003"><a xlink:title=" ">
<path fill="none" stroke="#63b8ff" d="M192.89,-67.79C158.51,-55.19 107.18,-36.38 76.97,-25.31"/>
<polygon fill="#63b8ff" stroke="#63b8ff" points="191.39,-70.97 201.99,-71.12 193.8,-64.4 191.39,-70.97"/>
</a>
</g>
</g>
<!-- Node4 -->
<g id="Node000004" class="node">
<title>Node4</title>
<g id="a_Node000004"><a xlink:href="graph__config_8c_source.html" target="_top" xlink:title=" ">
<polygon fill="white" stroke="#666666" points="219.75,-30.5 122.75,-30.5 122.75,0 219.75,0 219.75,-30.5"/>
<text text-anchor="start" x="130.75" y="-17" font-family="Helvetica,sans-Serif" font-size="10.00">ee/graph/src/graph</text>
<text text-anchor="middle" x="171.25" y="-5.75" font-family="Helvetica,sans-Serif" font-size="10.00">_config.c</text>
</a>
</g>
</g>
<!-- Node2&#45;&gt;Node4 -->
<g id="edge3_Node000002_Node000004" class="edge">
<title>Node2&#45;&gt;Node4</title>
<g id="a_edge3_Node000002_Node000004"><a xlink:title=" ">
<path fill="none" stroke="#63b8ff" d="M212.78,-63.25C203.73,-53.01 192.45,-40.24 183.93,-30.59"/>
<polygon fill="#63b8ff" stroke="#63b8ff" points="210.08,-65.47 219.32,-70.65 215.32,-60.84 210.08,-65.47"/>
</a>
</g>
</g>
<!-- Node5 -->
<g id="Node000005" class="node">
<title>Node5</title>
<g id="a_Node000005"><a xlink:href="graph__mode_8c_source.html" target="_top" xlink:title=" ">
<polygon fill="white" stroke="#666666" points="334.75,-30.5 237.75,-30.5 237.75,0 334.75,0 334.75,-30.5"/>
<text text-anchor="start" x="245.75" y="-17" font-family="Helvetica,sans-Serif" font-size="10.00">ee/graph/src/graph</text>
<text text-anchor="middle" x="286.25" y="-5.75" font-family="Helvetica,sans-Serif" font-size="10.00">_mode.c</text>
</a>
</g>
</g>
<!-- Node2&#45;&gt;Node5 -->
<g id="edge4_Node000002_Node000005" class="edge">
<title>Node2&#45;&gt;Node5</title>
<g id="a_edge4_Node000002_Node000005"><a xlink:title=" ">
<path fill="none" stroke="#63b8ff" d="M243.99,-63.25C253.2,-53.01 264.68,-40.24 273.35,-30.59"/>
<polygon fill="#63b8ff" stroke="#63b8ff" points="241.41,-60.88 237.33,-70.66 246.62,-65.56 241.41,-60.88"/>
</a>
</g>
</g>
<!-- Node6 -->
<g id="Node000006" class="node">
<title>Node6</title>
<g id="a_Node000006"><a xlink:href="math3d_8c_source.html" target="_top" xlink:title=" ">
<polygon fill="white" stroke="#666666" points="473.75,-24.88 352.75,-24.88 352.75,-5.63 473.75,-5.63 473.75,-24.88"/>
<text text-anchor="middle" x="413.25" y="-11.38" font-family="Helvetica,sans-Serif" font-size="10.00">ee/math3d/src/math3d.c</text>
</a>
</g>
</g>
<!-- Node2&#45;&gt;Node6 -->
<g id="edge5_Node000002_Node000006" class="edge">
<title>Node2&#45;&gt;Node6</title>
<g id="a_edge5_Node000002_Node000006"><a xlink:title=" ">
<path fill="none" stroke="#63b8ff" d="M264.95,-67.95C301.09,-55.35 355.38,-36.43 387.27,-25.31"/>
<polygon fill="#63b8ff" stroke="#63b8ff" points="264.08,-64.55 255.79,-71.15 266.39,-71.16 264.08,-64.55"/>
</a>
</g>
</g>
</g>
</svg>
