<?xml version="1.0" encoding="UTF-8" standalone="no"?>
<!DOCTYPE svg PUBLIC "-//W3C//DTD SVG 1.1//EN"
 "http://www.w3.org/Graphics/SVG/1.1/DTD/svg11.dtd">
<!-- Generated by graphviz version 2.43.0 (0)
 -->
<!-- Title: common/include/gs_gp.h Pages: 1 -->
<svg width="836pt" height="95pt"
 viewBox="0.00 0.00 835.50 95.00" xmlns="http://www.w3.org/2000/svg" xmlns:xlink="http://www.w3.org/1999/xlink">
<g id="graph0" class="graph" transform="scale(1 1) rotate(0) translate(4 91)">
<title>common/include/gs_gp.h</title>
<polygon fill="white" stroke="transparent" points="-4,4 -4,-91 831.5,-91 831.5,4 -4,4"/>
<!-- Node1 -->
<g id="node1" class="node">
<title>Node1</title>
<g id="a_node1"><a xlink:title=" ">
<polygon fill="#bfbfbf" stroke="black" points="337.5,-67.5 337.5,-86.5 475.5,-86.5 475.5,-67.5 337.5,-67.5"/>
<text text-anchor="middle" x="406.5" y="-74.5" font-family="Helvetica,sans-Serif" font-size="10.00">common/include/gs_gp.h</text>
</a>
</g>
</g>
<!-- Node2 -->
<g id="node2" class="node">
<title>Node2</title>
<g id="a_node2"><a xlink:href="draw_2src_2draw_8c_source.html" target="_top" xlink:title=" ">
<polygon fill="white" stroke="black" points="0,-6 0,-25 107,-25 107,-6 0,-6"/>
<text text-anchor="middle" x="53.5" y="-13" font-family="Helvetica,sans-Serif" font-size="10.00">ee/draw/src/draw.c</text>
</a>
</g>
</g>
<!-- Node1&#45;&gt;Node2 -->
<g id="edge1" class="edge">
<title>Node1&#45;&gt;Node2</title>
<path fill="none" stroke="midnightblue" d="M332.98,-66.09C274.2,-57.81 189.81,-45.1 116.5,-31 107.35,-29.24 97.51,-27.1 88.39,-25"/>
<polygon fill="midnightblue" stroke="midnightblue" points="332.52,-69.56 342.91,-67.48 333.49,-62.63 332.52,-69.56"/>
</g>
<!-- Node3 -->
<g id="node3" class="node">
<title>Node3</title>
<g id="a_node3"><a xlink:href="draw2d_8c_source.html" target="_top" xlink:title=" ">
<polygon fill="white" stroke="black" points="125.5,-6 125.5,-25 245.5,-25 245.5,-6 125.5,-6"/>
<text text-anchor="middle" x="185.5" y="-13" font-family="Helvetica,sans-Serif" font-size="10.00">ee/draw/src/draw2d.c</text>
</a>
</g>
</g>
<!-- Node1&#45;&gt;Node3 -->
<g id="edge2" class="edge">
<title>Node1&#45;&gt;Node3</title>
<path fill="none" stroke="midnightblue" d="M364.98,-64.82C322.05,-53.26 255.97,-35.47 217.11,-25.01"/>
<polygon fill="midnightblue" stroke="midnightblue" points="364.27,-68.25 374.84,-67.48 366.09,-61.5 364.27,-68.25"/>
</g>
<!-- Node4 -->
<g id="node4" class="node">
<title>Node4</title>
<g id="a_node4"><a xlink:href="draw3d_8c_source.html" target="_top" xlink:title=" ">
<polygon fill="white" stroke="black" points="263.5,-6 263.5,-25 383.5,-25 383.5,-6 263.5,-6"/>
<text text-anchor="middle" x="323.5" y="-13" font-family="Helvetica,sans-Serif" font-size="10.00">ee/draw/src/draw3d.c</text>
</a>
</g>
</g>
<!-- Node1&#45;&gt;Node4 -->
<g id="edge3" class="edge">
<title>Node1&#45;&gt;Node4</title>
<path fill="none" stroke="midnightblue" d="M386.43,-61.61C370.47,-50.17 348.67,-34.55 335.37,-25.01"/>
<polygon fill="midnightblue" stroke="midnightblue" points="384.44,-64.49 394.61,-67.48 388.52,-58.8 384.44,-64.49"/>
</g>
<!-- Node5 -->
<g id="node5" class="node">
<title>Node5</title>
<g id="a_node5"><a xlink:href="draw__environment_8c_source.html" target="_top" xlink:title=" ">
<polygon fill="white" stroke="black" points="401.5,-6 401.5,-25 577.5,-25 577.5,-6 401.5,-6"/>
<text text-anchor="middle" x="489.5" y="-13" font-family="Helvetica,sans-Serif" font-size="10.00">ee/draw/src/draw_environment.c</text>
</a>
</g>
</g>
<!-- Node1&#45;&gt;Node5 -->
<g id="edge4" class="edge">
<title>Node1&#45;&gt;Node5</title>
<path fill="none" stroke="midnightblue" d="M426.57,-61.61C442.53,-50.17 464.33,-34.55 477.63,-25.01"/>
<polygon fill="midnightblue" stroke="midnightblue" points="424.48,-58.8 418.39,-67.48 428.56,-64.49 424.48,-58.8"/>
</g>
<!-- Node6 -->
<g id="node6" class="node">
<title>Node6</title>
<g id="a_node6"><a xlink:href="fontx_8c_source.html" target="_top" xlink:title=" ">
<polygon fill="white" stroke="black" points="596,-6 596,-25 701,-25 701,-6 596,-6"/>
<text text-anchor="middle" x="648.5" y="-13" font-family="Helvetica,sans-Serif" font-size="10.00">ee/font/src/fontx.c</text>
</a>
</g>
</g>
<!-- Node1&#45;&gt;Node6 -->
<g id="edge5" class="edge">
<title>Node1&#45;&gt;Node6</title>
<path fill="none" stroke="midnightblue" d="M451.07,-65.04C498.05,-53.49 571.06,-35.54 613.89,-25.01"/>
<polygon fill="midnightblue" stroke="midnightblue" points="450.05,-61.69 441.17,-67.48 451.72,-68.49 450.05,-61.69"/>
</g>
<!-- Node7 -->
<g id="node7" class="node">
<title>Node7</title>
<g id="a_node7"><a xlink:href="packet2__utils_8h_source.html" target="_top" xlink:title=" ">
<polygon fill="white" stroke="black" points="719.5,-0.5 719.5,-30.5 827.5,-30.5 827.5,-0.5 719.5,-0.5"/>
<text text-anchor="start" x="727.5" y="-18.5" font-family="Helvetica,sans-Serif" font-size="10.00">ee/packet2/include</text>
<text text-anchor="middle" x="773.5" y="-7.5" font-family="Helvetica,sans-Serif" font-size="10.00">/packet2_utils.h</text>
</a>
</g>
</g>
<!-- Node1&#45;&gt;Node7 -->
<g id="edge6" class="edge">
<title>Node1&#45;&gt;Node7</title>
<path fill="none" stroke="midnightblue" d="M484.71,-66.16C546.27,-57.99 634.14,-45.41 710.5,-31 713.37,-30.46 716.3,-29.88 719.26,-29.27"/>
<polygon fill="midnightblue" stroke="midnightblue" points="484.13,-62.7 474.67,-67.48 485.05,-69.64 484.13,-62.7"/>
</g>
</g>
</svg>
