<?xml version="1.0" encoding="UTF-8" standalone="no"?>
<!DOCTYPE svg PUBLIC "-//W3C//DTD SVG 1.1//EN"
 "http://www.w3.org/Graphics/SVG/1.1/DTD/svg11.dtd">
<!-- Generated by graphviz version 12.2.0 (20241103.1931)
 -->
<!-- Title: common/include/hdd&#45;ioctl.h Pages: 1 -->
<svg width="3698pt" height="238pt"
 viewBox="0.00 0.00 3697.62 238.00" xmlns="http://www.w3.org/2000/svg" xmlns:xlink="http://www.w3.org/1999/xlink">
<g id="graph0" class="graph" transform="scale(1 1) rotate(0) translate(4 234)">
<title>common/include/hdd&#45;ioctl.h</title>
<!-- Node1 -->
<g id="Node000001" class="node">
<title>Node1</title>
<g id="a_Node000001"><a xlink:title=" ">
<polygon fill="#999999" stroke="#666666" points="2464.12,-230 2358.12,-230 2358.12,-199.5 2464.12,-199.5 2464.12,-230"/>
<text text-anchor="start" x="2366.12" y="-216.5" font-family="Helvetica,sans-Serif" font-size="10.00">common/include/hdd</text>
<text text-anchor="middle" x="2411.12" y="-205.25" font-family="Helvetica,sans-Serif" font-size="10.00">&#45;ioctl.h</text>
</a>
</g>
</g>
<!-- Node2 -->
<g id="Node000002" class="node">
<title>Node2</title>
<g id="a_Node000002"><a xlink:href="libhdd_8h.html" target="_top" xlink:title=" ">
<polygon fill="white" stroke="#666666" points="375.88,-163.5 280.38,-163.5 280.38,-133 375.88,-133 375.88,-163.5"/>
<text text-anchor="start" x="288.38" y="-150" font-family="Helvetica,sans-Serif" font-size="10.00">ee/rpc/hdd/include</text>
<text text-anchor="middle" x="328.12" y="-138.75" font-family="Helvetica,sans-Serif" font-size="10.00">/libhdd.h</text>
</a>
</g>
</g>
<!-- Node1&#45;&gt;Node2 -->
<g id="edge1_Node000001_Node000002" class="edge">
<title>Node1&#45;&gt;Node2</title>
<g id="a_edge1_Node000001_Node000002"><a xlink:title=" ">
<path fill="none" stroke="#63b8ff" d="M2346.44,-212C2121.39,-205.86 1351.66,-184.59 716.12,-163.5 593.68,-159.44 449.53,-153.96 376.21,-151.13"/>
<polygon fill="#63b8ff" stroke="#63b8ff" points="2346.08,-215.49 2356.17,-212.26 2346.27,-208.49 2346.08,-215.49"/>
</a>
</g>
</g>
<!-- Node4 -->
<g id="Node000004" class="node">
<title>Node4</title>
<g id="a_Node000004"><a xlink:href="cdvdman_8c_source.html" target="_top" xlink:title=" ">
<polygon fill="white" stroke="#666666" points="837.12,-163.5 725.12,-163.5 725.12,-133 837.12,-133 837.12,-163.5"/>
<text text-anchor="start" x="733.12" y="-150" font-family="Helvetica,sans-Serif" font-size="10.00">iop/cdvd/cdvdman/src</text>
<text text-anchor="middle" x="781.12" y="-138.75" font-family="Helvetica,sans-Serif" font-size="10.00">/cdvdman.c</text>
</a>
</g>
</g>
<!-- Node1&#45;&gt;Node4 -->
<g id="edge3_Node000001_Node000004" class="edge">
<title>Node1&#45;&gt;Node4</title>
<g id="a_edge3_Node000001_Node000004"><a xlink:title=" ">
<path fill="none" stroke="#63b8ff" d="M2346.3,-213.26C2089.54,-211.06 1143.51,-200.55 846.12,-163.5 843.26,-163.14 840.33,-162.72 837.39,-162.25"/>
<polygon fill="#63b8ff" stroke="#63b8ff" points="2346.1,-216.75 2356.13,-213.34 2346.16,-209.76 2346.1,-216.75"/>
</a>
</g>
</g>
<!-- Node5 -->
<g id="Node000005" class="node">
<title>Node5</title>
<g id="a_Node000005"><a xlink:href="dev9_8h.html" target="_top" xlink:title=" ">
<polygon fill="white" stroke="#666666" points="965.38,-163.5 854.88,-163.5 854.88,-133 965.38,-133 965.38,-163.5"/>
<text text-anchor="start" x="862.88" y="-150" font-family="Helvetica,sans-Serif" font-size="10.00">iop/dev9/dev9/include</text>
<text text-anchor="middle" x="910.12" y="-138.75" font-family="Helvetica,sans-Serif" font-size="10.00">/dev9.h</text>
</a>
</g>
</g>
<!-- Node1&#45;&gt;Node5 -->
<g id="edge4_Node000001_Node000005" class="edge">
<title>Node1&#45;&gt;Node5</title>
<g id="a_edge4_Node000001_Node000005"><a xlink:title=" ">
<path fill="none" stroke="#63b8ff" d="M2346.3,-210.96C2096.5,-200.23 1198.64,-161.65 965.67,-151.64"/>
<polygon fill="#63b8ff" stroke="#63b8ff" points="2346.05,-214.46 2356.19,-211.39 2346.35,-207.46 2346.05,-214.46"/>
</a>
</g>
</g>
<!-- Node17 -->
<g id="Node000017" class="node">
<title>Node17</title>
<g id="a_Node000017"><a xlink:href="hdd_8c_source.html" target="_top" xlink:title=" ">
<polygon fill="white" stroke="#666666" points="1519.62,-91.38 1410.62,-91.38 1410.62,-72.12 1519.62,-72.12 1519.62,-91.38"/>
<text text-anchor="middle" x="1465.12" y="-77.88" font-family="Helvetica,sans-Serif" font-size="10.00">iop/hdd/apa/src/hdd.c</text>
</a>
</g>
</g>
<!-- Node1&#45;&gt;Node17 -->
<g id="edge16_Node000001_Node000017" class="edge">
<title>Node1&#45;&gt;Node17</title>
<g id="a_edge16_Node000001_Node000017"><a xlink:title=" ">
<path fill="none" stroke="#63b8ff" d="M2346.45,-213.54C2225.56,-212.14 1957.53,-204.23 1736.12,-163.5 1642.7,-146.31 1535.68,-108.97 1488.99,-91.77"/>
<polygon fill="#63b8ff" stroke="#63b8ff" points="2346.14,-217.04 2356.17,-213.64 2346.21,-210.04 2346.14,-217.04"/>
</a>
</g>
</g>
<!-- Node18 -->
<g id="Node000018" class="node">
<title>Node18</title>
<g id="a_Node000018"><a xlink:href="hdd__fio_8c_source.html" target="_top" xlink:title=" ">
<polygon fill="white" stroke="#666666" points="1638.88,-97 1537.38,-97 1537.38,-66.5 1638.88,-66.5 1638.88,-97"/>
<text text-anchor="start" x="1545.38" y="-83.5" font-family="Helvetica,sans-Serif" font-size="10.00">iop/hdd/apa/src/hdd</text>
<text text-anchor="middle" x="1588.12" y="-72.25" font-family="Helvetica,sans-Serif" font-size="10.00">_fio.c</text>
</a>
</g>
</g>
<!-- Node1&#45;&gt;Node18 -->
<g id="edge17_Node000001_Node000018" class="edge">
<title>Node1&#45;&gt;Node18</title>
<g id="a_edge17_Node000001_Node000018"><a xlink:title=" ">
<path fill="none" stroke="#63b8ff" d="M2346.17,-211.9C2242.84,-208.05 2035.02,-196.56 1862.12,-163.5 1777.61,-147.34 1681.8,-115.99 1628.82,-97.47"/>
<polygon fill="#63b8ff" stroke="#63b8ff" points="2346.01,-215.4 2356.13,-212.26 2346.26,-208.41 2346.01,-215.4"/>
</a>
</g>
</g>
<!-- Node19 -->
<g id="Node000019" class="node">
<title>Node19</title>
<g id="a_Node000019"><a xlink:href="bitmap__fsck_8c_source.html" target="_top" xlink:title=" ">
<polygon fill="white" stroke="#666666" points="2652.12,-163.5 2534.12,-163.5 2534.12,-133 2652.12,-133 2652.12,-163.5"/>
<text text-anchor="start" x="2542.12" y="-150" font-family="Helvetica,sans-Serif" font-size="10.00">iop/hdd/fsck/src/bitmap</text>
<text text-anchor="middle" x="2593.12" y="-138.75" font-family="Helvetica,sans-Serif" font-size="10.00">_fsck.c</text>
</a>
</g>
</g>
<!-- Node1&#45;&gt;Node19 -->
<g id="edge18_Node000001_Node000019" class="edge">
<title>Node1&#45;&gt;Node19</title>
<g id="a_edge18_Node000001_Node000019"><a xlink:title=" ">
<path fill="none" stroke="#63b8ff" d="M2463.24,-195.28C2491.31,-185.33 2525.44,-173.24 2551.68,-163.94"/>
<polygon fill="#63b8ff" stroke="#63b8ff" points="2462.11,-191.97 2453.85,-198.61 2464.44,-198.57 2462.11,-191.97"/>
</a>
</g>
</g>
<!-- Node20 -->
<g id="Node000020" class="node">
<title>Node20</title>
<g id="a_Node000020"><a xlink:href="fsck_8c_source.html" target="_top" xlink:title=" ">
<polygon fill="white" stroke="#666666" points="2785.62,-157.88 2670.62,-157.88 2670.62,-138.62 2785.62,-138.62 2785.62,-157.88"/>
<text text-anchor="middle" x="2728.12" y="-144.38" font-family="Helvetica,sans-Serif" font-size="10.00">iop/hdd/fsck/src/fsck.c</text>
</a>
</g>
</g>
<!-- Node1&#45;&gt;Node20 -->
<g id="edge19_Node000001_Node000020" class="edge">
<title>Node1&#45;&gt;Node20</title>
<g id="a_edge19_Node000001_Node000020"><a xlink:title=" ">
<path fill="none" stroke="#63b8ff" d="M2475.4,-201.04C2525.92,-190.99 2598.05,-176.55 2661.12,-163.5 2669.04,-161.86 2677.48,-160.09 2685.61,-158.37"/>
<polygon fill="#63b8ff" stroke="#63b8ff" points="2474.93,-197.56 2465.8,-202.94 2476.29,-204.43 2474.93,-197.56"/>
</a>
</g>
</g>
<!-- Node21 -->
<g id="Node000021" class="node">
<title>Node21</title>
<g id="a_Node000021"><a xlink:href="fssk_8c_source.html" target="_top" xlink:title=" ">
<polygon fill="white" stroke="#666666" points="2918.62,-157.88 2803.62,-157.88 2803.62,-138.62 2918.62,-138.62 2918.62,-157.88"/>
<text text-anchor="middle" x="2861.12" y="-144.38" font-family="Helvetica,sans-Serif" font-size="10.00">iop/hdd/fssk/src/fssk.c</text>
</a>
</g>
</g>
<!-- Node1&#45;&gt;Node21 -->
<g id="edge20_Node000001_Node000021" class="edge">
<title>Node1&#45;&gt;Node21</title>
<g id="a_edge20_Node000001_Node000021"><a xlink:title=" ">
<path fill="none" stroke="#63b8ff" d="M2475.79,-206.94C2552.31,-198.5 2683.43,-182.83 2795.12,-163.5 2803.67,-162.02 2812.79,-160.21 2821.44,-158.37"/>
<polygon fill="#63b8ff" stroke="#63b8ff" points="2475.51,-203.45 2465.95,-208.02 2476.27,-210.41 2475.51,-203.45"/>
</a>
</g>
</g>
<!-- Node22 -->
<g id="Node000022" class="node">
<title>Node22</title>
<g id="a_Node000022"><a xlink:href="hdck_8c_source.html" target="_top" xlink:title=" ">
<polygon fill="white" stroke="#666666" points="1776.88,-91.38 1657.38,-91.38 1657.38,-72.12 1776.88,-72.12 1776.88,-91.38"/>
<text text-anchor="middle" x="1717.12" y="-77.88" font-family="Helvetica,sans-Serif" font-size="10.00">iop/hdd/hdck/src/hdck.c</text>
</a>
</g>
</g>
<!-- Node1&#45;&gt;Node22 -->
<g id="edge21_Node000001_Node000022" class="edge">
<title>Node1&#45;&gt;Node22</title>
<g id="a_edge21_Node000001_Node000022"><a xlink:title=" ">
<path fill="none" stroke="#63b8ff" d="M2346.26,-210.2C2260.2,-204.6 2103.92,-191.36 1973.12,-163.5 1885.61,-144.86 1785.37,-108.76 1740.72,-91.87"/>
<polygon fill="#63b8ff" stroke="#63b8ff" points="2345.96,-213.68 2356.16,-210.82 2346.4,-206.7 2345.96,-213.68"/>
</a>
</g>
</g>
<!-- Node23 -->
<g id="Node000023" class="node">
<title>Node23</title>
<g id="a_Node000023"><a xlink:href="hdl_8c_source.html" target="_top" xlink:title=" ">
<polygon fill="white" stroke="#666666" points="1905.75,-91.38 1794.5,-91.38 1794.5,-72.12 1905.75,-72.12 1905.75,-91.38"/>
<text text-anchor="middle" x="1850.12" y="-77.88" font-family="Helvetica,sans-Serif" font-size="10.00">iop/hdd/hdsk/src/hdl.c</text>
</a>
</g>
</g>
<!-- Node1&#45;&gt;Node23 -->
<g id="edge22_Node000001_Node000023" class="edge">
<title>Node1&#45;&gt;Node23</title>
<g id="a_edge22_Node000001_Node000023"><a xlink:title=" ">
<path fill="none" stroke="#63b8ff" d="M2346.66,-208.37C2277.13,-201.62 2163.55,-187.88 2068.12,-163.5 1993.04,-144.32 1907.96,-108.49 1870.11,-91.77"/>
<polygon fill="#63b8ff" stroke="#63b8ff" points="2346.06,-211.82 2356.35,-209.28 2346.72,-204.86 2346.06,-211.82"/>
</a>
</g>
</g>
<!-- Node24 -->
<g id="Node000024" class="node">
<title>Node24</title>
<g id="a_Node000024"><a xlink:href="hdsk_8c_source.html" target="_top" xlink:title=" ">
<polygon fill="white" stroke="#666666" points="2042.88,-91.38 1923.38,-91.38 1923.38,-72.12 2042.88,-72.12 2042.88,-91.38"/>
<text text-anchor="middle" x="1983.12" y="-77.88" font-family="Helvetica,sans-Serif" font-size="10.00">iop/hdd/hdsk/src/hdsk.c</text>
</a>
</g>
</g>
<!-- Node1&#45;&gt;Node24 -->
<g id="edge23_Node000001_Node000024" class="edge">
<title>Node1&#45;&gt;Node24</title>
<g id="a_edge23_Node000001_Node000024"><a xlink:title=" ">
<path fill="none" stroke="#63b8ff" d="M2346.38,-207.45C2289.96,-200.66 2206.52,-187.44 2137.12,-163.5 2082.33,-144.6 2023.1,-108.63 1996.91,-91.82"/>
<polygon fill="#63b8ff" stroke="#63b8ff" points="2345.8,-210.91 2356.14,-208.59 2346.61,-203.95 2345.8,-210.91"/>
</a>
</g>
</g>
<!-- Node25 -->
<g id="Node000025" class="node">
<title>Node25</title>
<g id="a_Node000025"><a xlink:href="sim_8c_source.html" target="_top" xlink:title=" ">
<polygon fill="white" stroke="#666666" points="2175.25,-91.38 2061,-91.38 2061,-72.12 2175.25,-72.12 2175.25,-91.38"/>
<text text-anchor="middle" x="2118.12" y="-77.88" font-family="Helvetica,sans-Serif" font-size="10.00">iop/hdd/hdsk/src/sim.c</text>
</a>
</g>
</g>
<!-- Node1&#45;&gt;Node25 -->
<g id="edge24_Node000001_Node000025" class="edge">
<title>Node1&#45;&gt;Node25</title>
<g id="a_edge24_Node000001_Node000025"><a xlink:title=" ">
<path fill="none" stroke="#63b8ff" d="M2346.42,-213.8C2294.33,-210.86 2221.42,-199.75 2169.12,-163.5 2142.82,-145.27 2127.19,-108.63 2121.09,-91.7"/>
<polygon fill="#63b8ff" stroke="#63b8ff" points="2346.2,-217.29 2356.36,-214.26 2346.53,-210.3 2346.2,-217.29"/>
</a>
</g>
</g>
<!-- Node26 -->
<g id="Node000026" class="node">
<title>Node26</title>
<g id="a_Node000026"><a xlink:href="libapa_8h_source.html" target="_top" xlink:title=" ">
<polygon fill="white" stroke="#666666" points="2288,-163.5 2178.25,-163.5 2178.25,-133 2288,-133 2288,-163.5"/>
<text text-anchor="start" x="2186.25" y="-150" font-family="Helvetica,sans-Serif" font-size="10.00">iop/hdd/libapa/include</text>
<text text-anchor="middle" x="2233.12" y="-138.75" font-family="Helvetica,sans-Serif" font-size="10.00">/libapa.h</text>
</a>
</g>
</g>
<!-- Node1&#45;&gt;Node26 -->
<g id="edge25_Node000001_Node000026" class="edge">
<title>Node1&#45;&gt;Node26</title>
<g id="a_edge25_Node000001_Node000026"><a xlink:title=" ">
<path fill="none" stroke="#63b8ff" d="M2360.15,-195.28C2332.71,-185.33 2299.32,-173.24 2273.66,-163.94"/>
<polygon fill="#63b8ff" stroke="#63b8ff" points="2358.72,-198.48 2369.31,-198.6 2361.1,-191.9 2358.72,-198.48"/>
</a>
</g>
</g>
<!-- Node30 -->
<g id="Node000030" class="node">
<title>Node30</title>
<g id="a_Node000030"><a xlink:href="apa_8c_source.html" target="_top" xlink:title=" ">
<polygon fill="white" stroke="#666666" points="2665.38,-97 2572.88,-97 2572.88,-66.5 2665.38,-66.5 2665.38,-97"/>
<text text-anchor="start" x="2580.88" y="-83.5" font-family="Helvetica,sans-Serif" font-size="10.00">iop/hdd/libapa/src</text>
<text text-anchor="middle" x="2619.12" y="-72.25" font-family="Helvetica,sans-Serif" font-size="10.00">/apa.c</text>
</a>
</g>
</g>
<!-- Node1&#45;&gt;Node30 -->
<g id="edge41_Node000001_Node000030" class="edge">
<title>Node1&#45;&gt;Node30</title>
<g id="a_edge41_Node000001_Node000030"><a xlink:title=" ">
<path fill="none" stroke="#63b8ff" d="M2373.2,-193.28C2347.98,-177.05 2322.46,-153.73 2340.12,-133 2372.82,-94.63 2514.78,-107.33 2564.12,-97 2566.83,-96.43 2569.6,-95.82 2572.39,-95.18"/>
<polygon fill="#63b8ff" stroke="#63b8ff" points="2371.12,-196.11 2381.47,-198.34 2374.77,-190.14 2371.12,-196.11"/>
</a>
</g>
</g>
<!-- Node31 -->
<g id="Node000031" class="node">
<title>Node31</title>
<g id="a_Node000031"><a xlink:href="libapa_2src_2cache_8c_source.html" target="_top" xlink:title=" ">
<polygon fill="white" stroke="#666666" points="2776.38,-97 2683.88,-97 2683.88,-66.5 2776.38,-66.5 2776.38,-97"/>
<text text-anchor="start" x="2691.88" y="-83.5" font-family="Helvetica,sans-Serif" font-size="10.00">iop/hdd/libapa/src</text>
<text text-anchor="middle" x="2730.12" y="-72.25" font-family="Helvetica,sans-Serif" font-size="10.00">/cache.c</text>
</a>
</g>
</g>
<!-- Node1&#45;&gt;Node31 -->
<g id="edge42_Node000001_Node000031" class="edge">
<title>Node1&#45;&gt;Node31</title>
<g id="a_edge42_Node000001_Node000031"><a xlink:title=" ">
<path fill="none" stroke="#63b8ff" d="M2389.61,-190.56C2376.04,-173.08 2363.59,-149.41 2378.12,-133 2422.06,-83.4 2608.99,-109.2 2674.12,-97 2677.18,-96.43 2680.32,-95.78 2683.47,-95.1"/>
<polygon fill="#63b8ff" stroke="#63b8ff" points="2386.63,-192.44 2395.71,-197.89 2392.01,-187.97 2386.63,-192.44"/>
</a>
</g>
</g>
<!-- Node32 -->
<g id="Node000032" class="node">
<title>Node32</title>
<g id="a_Node000032"><a xlink:href="free_8c_source.html" target="_top" xlink:title=" ">
<polygon fill="white" stroke="#666666" points="2887.38,-97 2794.88,-97 2794.88,-66.5 2887.38,-66.5 2887.38,-97"/>
<text text-anchor="start" x="2802.88" y="-83.5" font-family="Helvetica,sans-Serif" font-size="10.00">iop/hdd/libapa/src</text>
<text text-anchor="middle" x="2841.12" y="-72.25" font-family="Helvetica,sans-Serif" font-size="10.00">/free.c</text>
</a>
</g>
</g>
<!-- Node1&#45;&gt;Node32 -->
<g id="edge43_Node000001_Node000032" class="edge">
<title>Node1&#45;&gt;Node32</title>
<g id="a_edge43_Node000001_Node000032"><a xlink:title=" ">
<path fill="none" stroke="#63b8ff" d="M2404.93,-188.22C2402.25,-170.38 2402.35,-147.27 2416.12,-133 2473.34,-73.72 2703.97,-111.2 2785.12,-97 2788.19,-96.46 2791.33,-95.85 2794.49,-95.18"/>
<polygon fill="#63b8ff" stroke="#63b8ff" points="2401.45,-188.65 2406.76,-197.82 2408.33,-187.34 2401.45,-188.65"/>
</a>
</g>
</g>
<!-- Node33 -->
<g id="Node000033" class="node">
<title>Node33</title>
<g id="a_Node000033"><a xlink:href="libapa_2src_2journal_8c_source.html" target="_top" xlink:title=" ">
<polygon fill="white" stroke="#666666" points="2998.38,-97 2905.88,-97 2905.88,-66.5 2998.38,-66.5 2998.38,-97"/>
<text text-anchor="start" x="2913.88" y="-83.5" font-family="Helvetica,sans-Serif" font-size="10.00">iop/hdd/libapa/src</text>
<text text-anchor="middle" x="2952.12" y="-72.25" font-family="Helvetica,sans-Serif" font-size="10.00">/journal.c</text>
</a>
</g>
</g>
<!-- Node1&#45;&gt;Node33 -->
<g id="edge44_Node000001_Node000033" class="edge">
<title>Node1&#45;&gt;Node33</title>
<g id="a_edge44_Node000001_Node000033"><a xlink:title=" ">
<path fill="none" stroke="#63b8ff" d="M2417.61,-188.21C2423.76,-169.62 2434.98,-145.58 2454.12,-133 2536.48,-78.88 2798.92,-113.21 2896.12,-97 2899.19,-96.49 2902.34,-95.89 2905.5,-95.24"/>
<polygon fill="#63b8ff" stroke="#63b8ff" points="2414.27,-187.16 2414.77,-197.75 2420.98,-189.16 2414.27,-187.16"/>
</a>
</g>
</g>
<!-- Node34 -->
<g id="Node000034" class="node">
<title>Node34</title>
<g id="a_Node000034"><a xlink:href="libapa_2src_2misc_8c_source.html" target="_top" xlink:title=" ">
<polygon fill="white" stroke="#666666" points="3109.38,-97 3016.88,-97 3016.88,-66.5 3109.38,-66.5 3109.38,-97"/>
<text text-anchor="start" x="3024.88" y="-83.5" font-family="Helvetica,sans-Serif" font-size="10.00">iop/hdd/libapa/src</text>
<text text-anchor="middle" x="3063.12" y="-72.25" font-family="Helvetica,sans-Serif" font-size="10.00">/misc.c</text>
</a>
</g>
</g>
<!-- Node1&#45;&gt;Node34 -->
<g id="edge45_Node000001_Node000034" class="edge">
<title>Node1&#45;&gt;Node34</title>
<g id="a_edge45_Node000001_Node000034"><a xlink:title=" ">
<path fill="none" stroke="#63b8ff" d="M2430.92,-190.67C2449.9,-169.2 2477.73,-139.55 2492.12,-133 2596.56,-85.51 2893.86,-115.22 3007.12,-97 3010.2,-96.51 3013.34,-95.92 3016.51,-95.28"/>
<polygon fill="#63b8ff" stroke="#63b8ff" points="2428.34,-188.31 2424.39,-198.14 2433.61,-192.92 2428.34,-188.31"/>
</a>
</g>
</g>
<!-- Node35 -->
<g id="Node000035" class="node">
<title>Node35</title>
<g id="a_Node000035"><a xlink:href="password_8c_source.html" target="_top" xlink:title=" ">
<polygon fill="white" stroke="#666666" points="3220.38,-97 3127.88,-97 3127.88,-66.5 3220.38,-66.5 3220.38,-97"/>
<text text-anchor="start" x="3135.88" y="-83.5" font-family="Helvetica,sans-Serif" font-size="10.00">iop/hdd/libapa/src</text>
<text text-anchor="middle" x="3174.12" y="-72.25" font-family="Helvetica,sans-Serif" font-size="10.00">/password.c</text>
</a>
</g>
</g>
<!-- Node1&#45;&gt;Node35 -->
<g id="edge46_Node000001_Node000035" class="edge">
<title>Node1&#45;&gt;Node35</title>
<g id="a_edge46_Node000001_Node000035"><a xlink:title=" ">
<path fill="none" stroke="#63b8ff" d="M2445.24,-193.13C2459.13,-184.38 2475.17,-173.84 2489.12,-163.5 2505.98,-151.02 2505.66,-140.81 2525.12,-133 2647.64,-83.82 2987.69,-117.37 3118.12,-97 3121.2,-96.52 3124.35,-95.95 3127.51,-95.31"/>
<polygon fill="#63b8ff" stroke="#63b8ff" points="2443.49,-190.09 2436.85,-198.35 2447.19,-196.03 2443.49,-190.09"/>
</a>
</g>
</g>
<!-- Node36 -->
<g id="Node000036" class="node">
<title>Node36</title>
<g id="a_Node000036"><a xlink:href="libpfs_2src_2cache_8c_source.html" target="_top" xlink:title=" ">
<polygon fill="white" stroke="#666666" points="3027.25,-163.5 2937,-163.5 2937,-133 3027.25,-133 3027.25,-163.5"/>
<text text-anchor="start" x="2945" y="-150" font-family="Helvetica,sans-Serif" font-size="10.00">iop/hdd/libpfs/src</text>
<text text-anchor="middle" x="2982.12" y="-138.75" font-family="Helvetica,sans-Serif" font-size="10.00">/cache.c</text>
</a>
</g>
</g>
<!-- Node1&#45;&gt;Node36 -->
<g id="edge47_Node000001_Node000036" class="edge">
<title>Node1&#45;&gt;Node36</title>
<g id="a_edge47_Node000001_Node000036"><a xlink:title=" ">
<path fill="none" stroke="#63b8ff" d="M2475.57,-210.83C2573.84,-205.62 2766.75,-192.44 2928.12,-163.5 2930.89,-163 2933.73,-162.44 2936.58,-161.82"/>
<polygon fill="#63b8ff" stroke="#63b8ff" points="2475.67,-207.32 2465.86,-211.33 2476.03,-214.31 2475.67,-207.32"/>
</a>
</g>
</g>
<!-- Node37 -->
<g id="Node000037" class="node">
<title>Node37</title>
<g id="a_Node000037"><a xlink:href="libpfs_2src_2journal_8c_source.html" target="_top" xlink:title=" ">
<polygon fill="white" stroke="#666666" points="3135.25,-163.5 3045,-163.5 3045,-133 3135.25,-133 3135.25,-163.5"/>
<text text-anchor="start" x="3053" y="-150" font-family="Helvetica,sans-Serif" font-size="10.00">iop/hdd/libpfs/src</text>
<text text-anchor="middle" x="3090.12" y="-138.75" font-family="Helvetica,sans-Serif" font-size="10.00">/journal.c</text>
</a>
</g>
</g>
<!-- Node1&#45;&gt;Node37 -->
<g id="edge48_Node000001_Node000037" class="edge">
<title>Node1&#45;&gt;Node37</title>
<g id="a_edge48_Node000001_Node000037"><a xlink:title=" ">
<path fill="none" stroke="#63b8ff" d="M2475.89,-212.33C2589.91,-208.99 2833.57,-198.09 3036.12,-163.5 3038.9,-163.03 3041.73,-162.48 3044.58,-161.88"/>
<polygon fill="#63b8ff" stroke="#63b8ff" points="2476.02,-208.82 2466.13,-212.6 2476.22,-215.82 2476.02,-208.82"/>
</a>
</g>
</g>
<!-- Node38 -->
<g id="Node000038" class="node">
<title>Node38</title>
<g id="a_Node000038"><a xlink:href="libpfs_2src_2misc_8c_source.html" target="_top" xlink:title=" ">
<polygon fill="white" stroke="#666666" points="3243.25,-163.5 3153,-163.5 3153,-133 3243.25,-133 3243.25,-163.5"/>
<text text-anchor="start" x="3161" y="-150" font-family="Helvetica,sans-Serif" font-size="10.00">iop/hdd/libpfs/src</text>
<text text-anchor="middle" x="3198.12" y="-138.75" font-family="Helvetica,sans-Serif" font-size="10.00">/misc.c</text>
</a>
</g>
</g>
<!-- Node1&#45;&gt;Node38 -->
<g id="edge49_Node000001_Node000038" class="edge">
<title>Node1&#45;&gt;Node38</title>
<g id="a_edge49_Node000001_Node000038"><a xlink:title=" ">
<path fill="none" stroke="#63b8ff" d="M2475.56,-213.42C2603.74,-211.87 2899.47,-203.79 3144.12,-163.5 3146.9,-163.04 3149.74,-162.51 3152.59,-161.92"/>
<polygon fill="#63b8ff" stroke="#63b8ff" points="2475.89,-209.92 2465.93,-213.53 2475.97,-216.92 2475.89,-209.92"/>
</a>
</g>
</g>
<!-- Node39 -->
<g id="Node000039" class="node">
<title>Node39</title>
<g id="a_Node000039"><a xlink:href="super_8c_source.html" target="_top" xlink:title=" ">
<polygon fill="white" stroke="#666666" points="3351.25,-163.5 3261,-163.5 3261,-133 3351.25,-133 3351.25,-163.5"/>
<text text-anchor="start" x="3269" y="-150" font-family="Helvetica,sans-Serif" font-size="10.00">iop/hdd/libpfs/src</text>
<text text-anchor="middle" x="3306.12" y="-138.75" font-family="Helvetica,sans-Serif" font-size="10.00">/super.c</text>
</a>
</g>
</g>
<!-- Node1&#45;&gt;Node39 -->
<g id="edge50_Node000001_Node000039" class="edge">
<title>Node1&#45;&gt;Node39</title>
<g id="a_edge50_Node000001_Node000039"><a xlink:title=" ">
<path fill="none" stroke="#63b8ff" d="M2475.61,-214.23C2617.13,-214.35 2965.2,-209.46 3252.12,-163.5 3254.9,-163.06 3257.74,-162.53 3260.6,-161.94"/>
<polygon fill="#63b8ff" stroke="#63b8ff" points="2475.69,-210.73 2465.68,-214.22 2475.67,-217.73 2475.69,-210.73"/>
</a>
</g>
</g>
<!-- Node40 -->
<g id="Node000040" class="node">
<title>Node40</title>
<g id="a_Node000040"><a xlink:href="super_write_8c_source.html" target="_top" xlink:title=" ">
<polygon fill="white" stroke="#666666" points="3459.25,-163.5 3369,-163.5 3369,-133 3459.25,-133 3459.25,-163.5"/>
<text text-anchor="start" x="3377" y="-150" font-family="Helvetica,sans-Serif" font-size="10.00">iop/hdd/libpfs/src</text>
<text text-anchor="middle" x="3414.12" y="-138.75" font-family="Helvetica,sans-Serif" font-size="10.00">/superWrite.c</text>
</a>
</g>
</g>
<!-- Node1&#45;&gt;Node40 -->
<g id="edge51_Node000001_Node000040" class="edge">
<title>Node1&#45;&gt;Node40</title>
<g id="a_edge51_Node000001_Node000040"><a xlink:title=" ">
<path fill="none" stroke="#63b8ff" d="M2475.79,-212.05C2660.66,-206.93 3189.08,-190.31 3360.12,-163.5 3362.9,-163.06 3365.74,-162.55 3368.6,-161.97"/>
<polygon fill="#63b8ff" stroke="#63b8ff" points="2475.79,-208.55 2465.89,-212.33 2475.98,-215.55 2475.79,-208.55"/>
</a>
</g>
</g>
<!-- Node41 -->
<g id="Node000041" class="node">
<title>Node41</title>
<g id="a_Node000041"><a xlink:href="pfs__fio_8c_source.html" target="_top" xlink:title=" ">
<polygon fill="white" stroke="#666666" points="3574.62,-163.5 3477.62,-163.5 3477.62,-133 3574.62,-133 3574.62,-163.5"/>
<text text-anchor="start" x="3485.62" y="-150" font-family="Helvetica,sans-Serif" font-size="10.00">iop/hdd/pfs/src/pfs</text>
<text text-anchor="middle" x="3526.12" y="-138.75" font-family="Helvetica,sans-Serif" font-size="10.00">_fio.c</text>
</a>
</g>
</g>
<!-- Node1&#45;&gt;Node41 -->
<g id="edge52_Node000001_Node000041" class="edge">
<title>Node1&#45;&gt;Node41</title>
<g id="a_edge52_Node000001_Node000041"><a xlink:title=" ">
<path fill="none" stroke="#63b8ff" d="M2475.88,-212.31C2674.77,-207.64 3275.05,-191.54 3468.12,-163.5 3471.1,-163.07 3474.15,-162.55 3477.21,-161.97"/>
<polygon fill="#63b8ff" stroke="#63b8ff" points="2475.9,-208.81 2465.99,-212.54 2476.07,-215.81 2475.9,-208.81"/>
</a>
</g>
</g>
<!-- Node42 -->
<g id="Node000042" class="node">
<title>Node42</title>
<g id="a_Node000042"><a xlink:href="pfs__fioctl_8c_source.html" target="_top" xlink:title=" ">
<polygon fill="white" stroke="#666666" points="3689.62,-163.5 3592.62,-163.5 3592.62,-133 3689.62,-133 3689.62,-163.5"/>
<text text-anchor="start" x="3600.62" y="-150" font-family="Helvetica,sans-Serif" font-size="10.00">iop/hdd/pfs/src/pfs</text>
<text text-anchor="middle" x="3641.12" y="-138.75" font-family="Helvetica,sans-Serif" font-size="10.00">_fioctl.c</text>
</a>
</g>
</g>
<!-- Node1&#45;&gt;Node42 -->
<g id="edge53_Node000001_Node000042" class="edge">
<title>Node1&#45;&gt;Node42</title>
<g id="a_edge53_Node000001_Node000042"><a xlink:title=" ">
<path fill="none" stroke="#63b8ff" d="M2475.66,-212.7C2688.58,-208.98 3367.47,-194.89 3584.12,-163.5 3586.75,-163.12 3589.43,-162.67 3592.13,-162.17"/>
<polygon fill="#63b8ff" stroke="#63b8ff" points="2475.84,-209.2 2465.9,-212.87 2475.96,-216.2 2475.84,-209.2"/>
</a>
</g>
</g>
<!-- Node3 -->
<g id="Node000003" class="node">
<title>Node3</title>
<g id="a_Node000003"><a xlink:href="libhdd_8c_source.html" target="_top" xlink:title=" ">
<polygon fill="white" stroke="#666666" points="114.25,-91.38 0,-91.38 0,-72.12 114.25,-72.12 114.25,-91.38"/>
<text text-anchor="middle" x="57.12" y="-77.88" font-family="Helvetica,sans-Serif" font-size="10.00">ee/rpc/hdd/src/libhdd.c</text>
</a>
</g>
</g>
<!-- Node2&#45;&gt;Node3 -->
<g id="edge2_Node000002_Node000003" class="edge">
<title>Node2&#45;&gt;Node3</title>
<g id="a_edge2_Node000002_Node000003"><a xlink:title=" ">
<path fill="none" stroke="#63b8ff" d="M269.08,-133.2C216.26,-120.63 140.39,-102.57 95.2,-91.81"/>
<polygon fill="#63b8ff" stroke="#63b8ff" points="267.98,-136.53 278.52,-135.44 269.6,-129.72 267.98,-136.53"/>
</a>
</g>
</g>
<!-- Node6 -->
<g id="Node000006" class="node">
<title>Node6</title>
<g id="a_Node000006"><a xlink:href="acdev9_8c_source.html" target="_top" xlink:title=" ">
<polygon fill="white" stroke="#666666" points="492.12,-97 380.12,-97 380.12,-66.5 492.12,-66.5 492.12,-97"/>
<text text-anchor="start" x="388.12" y="-83.5" font-family="Helvetica,sans-Serif" font-size="10.00">iop/arcade/acdev9/src</text>
<text text-anchor="middle" x="436.12" y="-72.25" font-family="Helvetica,sans-Serif" font-size="10.00">/acdev9.c</text>
</a>
</g>
</g>
<!-- Node5&#45;&gt;Node6 -->
<g id="edge5_Node000005_Node000006" class="edge">
<title>Node5&#45;&gt;Node6</title>
<g id="a_edge5_Node000005_Node000006"><a xlink:title=" ">
<path fill="none" stroke="#63b8ff" d="M843.59,-132.71C692,-108.81 649.76,-120.97 501.12,-97 498.27,-96.54 495.36,-96.03 492.42,-95.5"/>
<polygon fill="#63b8ff" stroke="#63b8ff" points="842.77,-136.13 853.2,-134.26 843.89,-129.22 842.77,-136.13"/>
</a>
</g>
</g>
<!-- Node7 -->
<g id="Node000007" class="node">
<title>Node7</title>
<g id="a_Node000007"><a xlink:href="aifdev9_8h_source.html" target="_top" xlink:title=" ">
<polygon fill="white" stroke="#666666" points="620.38,-97 509.88,-97 509.88,-66.5 620.38,-66.5 620.38,-97"/>
<text text-anchor="start" x="517.88" y="-83.5" font-family="Helvetica,sans-Serif" font-size="10.00">iop/dev9/dev9/include</text>
<text text-anchor="middle" x="565.12" y="-72.25" font-family="Helvetica,sans-Serif" font-size="10.00">/aifdev9.h</text>
</a>
</g>
</g>
<!-- Node5&#45;&gt;Node7 -->
<g id="edge6_Node000005_Node000007" class="edge">
<title>Node5&#45;&gt;Node7</title>
<g id="a_edge6_Node000005_Node000007"><a xlink:title=" ">
<path fill="none" stroke="#63b8ff" d="M843.39,-132.54C748.65,-114.47 722.14,-114.74 630.12,-97 627.06,-96.41 623.92,-95.78 620.76,-95.14"/>
<polygon fill="#63b8ff" stroke="#63b8ff" points="842.69,-135.96 853.17,-134.42 844.02,-129.09 842.69,-135.96"/>
</a>
</g>
</g>
<!-- Node8 -->
<g id="Node000008" class="node">
<title>Node8</title>
<g id="a_Node000008"><a xlink:href="ps2dev9_8c.html" target="_top" xlink:title=" ">
<polygon fill="white" stroke="#666666" points="779.38,-91.38 638.88,-91.38 638.88,-72.12 779.38,-72.12 779.38,-91.38"/>
<text text-anchor="middle" x="709.12" y="-77.88" font-family="Helvetica,sans-Serif" font-size="10.00">iop/dev9/dev9/src/ps2dev9.c</text>
</a>
</g>
</g>
<!-- Node5&#45;&gt;Node8 -->
<g id="edge7_Node000005_Node000008" class="edge">
<title>Node5&#45;&gt;Node8</title>
<g id="a_edge7_Node000005_Node000008"><a xlink:title=" ">
<path fill="none" stroke="#63b8ff" d="M853.38,-129.04C815.54,-116.9 767.4,-101.45 737.42,-91.83"/>
<polygon fill="#63b8ff" stroke="#63b8ff" points="852.23,-132.35 862.82,-132.07 854.37,-125.68 852.23,-132.35"/>
</a>
</g>
</g>
<!-- Node9 -->
<g id="Node000009" class="node">
<title>Node9</title>
<g id="a_Node000009"><a xlink:href="iop_2dev9_2extflash_2src_2irx__imports_8h_source.html" target="_top" xlink:title=" ">
<polygon fill="white" stroke="#666666" points="902.75,-97 797.5,-97 797.5,-66.5 902.75,-66.5 902.75,-97"/>
<text text-anchor="start" x="805.5" y="-83.5" font-family="Helvetica,sans-Serif" font-size="10.00">iop/dev9/extflash/src</text>
<text text-anchor="middle" x="850.12" y="-72.25" font-family="Helvetica,sans-Serif" font-size="10.00">/irx_imports.h</text>
</a>
</g>
</g>
<!-- Node5&#45;&gt;Node9 -->
<g id="edge8_Node000005_Node000009" class="edge">
<title>Node5&#45;&gt;Node9</title>
<g id="a_edge8_Node000005_Node000009"><a xlink:title=" ">
<path fill="none" stroke="#63b8ff" d="M888.88,-124.41C880.5,-115.4 871.12,-105.32 863.69,-97.33"/>
<polygon fill="#63b8ff" stroke="#63b8ff" points="886.11,-126.57 895.48,-131.51 891.23,-121.8 886.11,-126.57"/>
</a>
</g>
</g>
<!-- Node10 -->
<g id="Node000010" class="node">
<title>Node10</title>
<g id="a_Node000010"><a xlink:href="dvrdrv_8c_source.html" target="_top" xlink:title=" ">
<polygon fill="white" stroke="#666666" points="1019.75,-97 920.5,-97 920.5,-66.5 1019.75,-66.5 1019.75,-97"/>
<text text-anchor="start" x="928.5" y="-83.5" font-family="Helvetica,sans-Serif" font-size="10.00">iop/dev9/pvrdrv/src</text>
<text text-anchor="middle" x="970.12" y="-72.25" font-family="Helvetica,sans-Serif" font-size="10.00">/dvrdrv.c</text>
</a>
</g>
</g>
<!-- Node5&#45;&gt;Node10 -->
<g id="edge9_Node000005_Node000010" class="edge">
<title>Node5&#45;&gt;Node10</title>
<g id="a_edge9_Node000005_Node000010"><a xlink:title=" ">
<path fill="none" stroke="#63b8ff" d="M931.37,-124.41C939.75,-115.4 949.13,-105.32 956.56,-97.33"/>
<polygon fill="#63b8ff" stroke="#63b8ff" points="929.02,-121.8 924.77,-131.51 934.14,-126.57 929.02,-121.8"/>
</a>
</g>
</g>
<!-- Node11 -->
<g id="Node000011" class="node">
<title>Node11</title>
<g id="a_Node000011"><a xlink:href="iop_2dev9_2pvrdrv_2src_2irx__imports_8h_source.html" target="_top" xlink:title=" ">
<polygon fill="white" stroke="#666666" points="1136.75,-97 1037.5,-97 1037.5,-66.5 1136.75,-66.5 1136.75,-97"/>
<text text-anchor="start" x="1045.5" y="-83.5" font-family="Helvetica,sans-Serif" font-size="10.00">iop/dev9/pvrdrv/src</text>
<text text-anchor="middle" x="1087.12" y="-72.25" font-family="Helvetica,sans-Serif" font-size="10.00">/irx_imports.h</text>
</a>
</g>
</g>
<!-- Node5&#45;&gt;Node11 -->
<g id="edge10_Node000005_Node000011" class="edge">
<title>Node5&#45;&gt;Node11</title>
<g id="a_edge10_Node000005_Node000011"><a xlink:title=" ">
<path fill="none" stroke="#63b8ff" d="M960.81,-128.78C988.1,-118.83 1021.3,-106.74 1046.81,-97.44"/>
<polygon fill="#63b8ff" stroke="#63b8ff" points="959.91,-125.38 951.71,-132.1 962.31,-131.96 959.91,-125.38"/>
</a>
</g>
</g>
<!-- Node12 -->
<g id="Node000012" class="node">
<title>Node12</title>
<g id="a_Node000012"><a xlink:href="iop_2network_2smap_2src_2include_2irx__imports_8h_source.html" target="_top" xlink:title=" ">
<polygon fill="white" stroke="#666666" points="1265,-97 1155.25,-97 1155.25,-66.5 1265,-66.5 1265,-97"/>
<text text-anchor="start" x="1163.25" y="-83.5" font-family="Helvetica,sans-Serif" font-size="10.00">iop/network/smap/src</text>
<text text-anchor="middle" x="1210.12" y="-72.25" font-family="Helvetica,sans-Serif" font-size="10.00">/include/irx_imports.h</text>
</a>
</g>
</g>
<!-- Node5&#45;&gt;Node12 -->
<g id="edge11_Node000005_Node000012" class="edge">
<title>Node5&#45;&gt;Node12</title>
<g id="a_edge11_Node000005_Node000012"><a xlink:title=" ">
<path fill="none" stroke="#63b8ff" d="M976.49,-133.29C1023.81,-123.3 1088.91,-109.46 1146.12,-97 1149.02,-96.37 1151.98,-95.72 1154.97,-95.06"/>
<polygon fill="#63b8ff" stroke="#63b8ff" points="976.01,-129.81 966.95,-135.3 977.46,-136.66 976.01,-129.81"/>
</a>
</g>
</g>
<!-- Node13 -->
<g id="Node000013" class="node">
<title>Node13</title>
<g id="a_Node000013"><a xlink:href="smap_8c_source.html" target="_top" xlink:title=" ">
<polygon fill="white" stroke="#666666" points="1393,-97 1283.25,-97 1283.25,-66.5 1393,-66.5 1393,-97"/>
<text text-anchor="start" x="1291.25" y="-83.5" font-family="Helvetica,sans-Serif" font-size="10.00">iop/network/smap/src</text>
<text text-anchor="middle" x="1338.12" y="-72.25" font-family="Helvetica,sans-Serif" font-size="10.00">/smap.c</text>
</a>
</g>
</g>
<!-- Node5&#45;&gt;Node13 -->
<g id="edge12_Node000005_Node000013" class="edge">
<title>Node5&#45;&gt;Node13</title>
<g id="a_edge12_Node000005_Node000013"><a xlink:title=" ">
<path fill="none" stroke="#63b8ff" d="M977.19,-139.66C1050.42,-130.99 1171.02,-115.56 1274.12,-97 1277.04,-96.48 1280.02,-95.91 1283.02,-95.32"/>
<polygon fill="#63b8ff" stroke="#63b8ff" points="976.88,-136.17 967.35,-140.82 977.69,-143.13 976.88,-136.17"/>
</a>
</g>
</g>
<!-- Node14 -->
<g id="Node000014" class="node">
<title>Node14</title>
<g id="a_Node000014"><a xlink:href="xfer_8c_source.html" target="_top" xlink:title=" ">
<polygon fill="white" stroke="#666666" points="242,-97 132.25,-97 132.25,-66.5 242,-66.5 242,-97"/>
<text text-anchor="start" x="140.25" y="-83.5" font-family="Helvetica,sans-Serif" font-size="10.00">iop/network/smap/src</text>
<text text-anchor="middle" x="187.12" y="-72.25" font-family="Helvetica,sans-Serif" font-size="10.00">/xfer.c</text>
</a>
</g>
</g>
<!-- Node5&#45;&gt;Node14 -->
<g id="edge13_Node000005_Node000014" class="edge">
<title>Node5&#45;&gt;Node14</title>
<g id="a_edge13_Node000005_Node000014"><a xlink:title=" ">
<path fill="none" stroke="#63b8ff" d="M843.33,-132.77C581.75,-97.15 509.76,-133.38 251.12,-97 248.19,-96.59 245.2,-96.11 242.18,-95.59"/>
<polygon fill="#63b8ff" stroke="#63b8ff" points="842.84,-136.23 853.22,-134.14 843.8,-129.3 842.84,-136.23"/>
</a>
</g>
</g>
<!-- Node15 -->
<g id="Node000015" class="node">
<title>Node15</title>
<g id="a_Node000015"><a xlink:href="iop_2network_2spduart_2src_2irx__imports_8h_source.html" target="_top" xlink:title=" ">
<polygon fill="white" stroke="#666666" points="361.88,-97 260.38,-97 260.38,-66.5 361.88,-66.5 361.88,-97"/>
<text text-anchor="start" x="268.38" y="-83.5" font-family="Helvetica,sans-Serif" font-size="10.00">iop/network/spduart</text>
<text text-anchor="middle" x="311.12" y="-72.25" font-family="Helvetica,sans-Serif" font-size="10.00">/src/irx_imports.h</text>
</a>
</g>
</g>
<!-- Node5&#45;&gt;Node15 -->
<g id="edge14_Node000005_Node000015" class="edge">
<title>Node5&#45;&gt;Node15</title>
<g id="a_edge14_Node000005_Node000015"><a xlink:title=" ">
<path fill="none" stroke="#63b8ff" d="M843.36,-132.74C634.67,-102.87 576.65,-128.99 371.12,-97 368.16,-96.54 365.13,-96.01 362.08,-95.43"/>
<polygon fill="#63b8ff" stroke="#63b8ff" points="842.81,-136.2 853.22,-134.18 843.83,-129.27 842.81,-136.2"/>
</a>
</g>
</g>
<!-- Node16 -->
<g id="Node000016" class="node">
<title>Node16</title>
<g id="a_Node000016"><a xlink:href="spduart_8c_source.html" target="_top" xlink:title=" ">
<polygon fill="white" stroke="#666666" points="361.88,-30.5 260.38,-30.5 260.38,0 361.88,0 361.88,-30.5"/>
<text text-anchor="start" x="268.38" y="-17" font-family="Helvetica,sans-Serif" font-size="10.00">iop/network/spduart</text>
<text text-anchor="middle" x="311.12" y="-5.75" font-family="Helvetica,sans-Serif" font-size="10.00">/src/spduart.c</text>
</a>
</g>
</g>
<!-- Node15&#45;&gt;Node16 -->
<g id="edge15_Node000015_Node000016" class="edge">
<title>Node15&#45;&gt;Node16</title>
<g id="a_edge15_Node000015_Node000016"><a xlink:title=" ">
<path fill="none" stroke="#63b8ff" d="M311.12,-54.81C311.12,-46.64 311.12,-37.91 311.12,-30.83"/>
<polygon fill="#63b8ff" stroke="#63b8ff" points="307.63,-54.6 311.13,-64.6 314.63,-54.6 307.63,-54.6"/>
</a>
</g>
</g>
<!-- Node26&#45;&gt;Node17 -->
<g id="edge26_Node000026_Node000017" class="edge">
<title>Node26&#45;&gt;Node17</title>
<g id="a_edge26_Node000026_Node000017"><a xlink:title=" ">
<path fill="none" stroke="#63b8ff" d="M2166.68,-145.86C2041.24,-142.5 1761.19,-131.46 1528.12,-97 1519.25,-95.69 1509.77,-93.8 1500.93,-91.83"/>
<polygon fill="#63b8ff" stroke="#63b8ff" points="2166.37,-149.35 2176.46,-146.11 2166.55,-142.36 2166.37,-149.35"/>
</a>
</g>
</g>
<!-- Node26&#45;&gt;Node18 -->
<g id="edge28_Node000026_Node000018" class="edge">
<title>Node26&#45;&gt;Node18</title>
<g id="a_edge28_Node000026_Node000018"><a xlink:title=" ">
<path fill="none" stroke="#63b8ff" d="M2166.5,-144.73C2057.51,-139.88 1834.57,-126.98 1648.12,-97 1645.17,-96.52 1642.14,-95.98 1639.09,-95.39"/>
<polygon fill="#63b8ff" stroke="#63b8ff" points="2166.3,-148.22 2176.44,-145.16 2166.6,-141.23 2166.3,-148.22"/>
</a>
</g>
</g>
<!-- Node26&#45;&gt;Node22 -->
<g id="edge29_Node000026_Node000022" class="edge">
<title>Node26&#45;&gt;Node22</title>
<g id="a_edge29_Node000026_Node000022"><a xlink:title=" ">
<path fill="none" stroke="#63b8ff" d="M2166.7,-141.78C2078.99,-134.11 1919.91,-118.63 1785.12,-97 1776.07,-95.55 1766.4,-93.7 1757.28,-91.82"/>
<polygon fill="#63b8ff" stroke="#63b8ff" points="2166.3,-145.26 2176.56,-142.64 2166.9,-138.29 2166.3,-145.26"/>
</a>
</g>
</g>
<!-- Node26&#45;&gt;Node23 -->
<g id="edge31_Node000026_Node000023" class="edge">
<title>Node26&#45;&gt;Node23</title>
<g id="a_edge31_Node000026_Node000023"><a xlink:title=" ">
<path fill="none" stroke="#63b8ff" d="M2166.66,-138.02C2101.98,-128.75 2001.03,-113.5 1914.12,-97 1905.96,-95.45 1897.25,-93.62 1888.97,-91.81"/>
<polygon fill="#63b8ff" stroke="#63b8ff" points="2166.01,-141.47 2176.41,-139.41 2167,-134.54 2166.01,-141.47"/>
</a>
</g>
</g>
<!-- Node26&#45;&gt;Node24 -->
<g id="edge32_Node000026_Node000024" class="edge">
<title>Node26&#45;&gt;Node24</title>
<g id="a_edge32_Node000026_Node000024"><a xlink:title=" ">
<path fill="none" stroke="#63b8ff" d="M2167.08,-130.21C2119.29,-117.88 2056.6,-101.71 2018.13,-91.78"/>
<polygon fill="#63b8ff" stroke="#63b8ff" points="2165.93,-133.53 2176.49,-132.64 2167.68,-126.75 2165.93,-133.53"/>
</a>
</g>
</g>
<!-- Node26&#45;&gt;Node25 -->
<g id="edge34_Node000026_Node000025" class="edge">
<title>Node26&#45;&gt;Node25</title>
<g id="a_edge34_Node000026_Node000025"><a xlink:title=" ">
<path fill="none" stroke="#63b8ff" d="M2197.1,-127.04C2176,-115.21 2150.41,-100.86 2134.19,-91.76"/>
<polygon fill="#63b8ff" stroke="#63b8ff" points="2195.28,-130.03 2205.71,-131.87 2198.7,-123.93 2195.28,-130.03"/>
</a>
</g>
</g>
<!-- Node27 -->
<g id="Node000027" class="node">
<title>Node27</title>
<g id="a_Node000027"><a xlink:href="hdd__blkio_8c_source.html" target="_top" xlink:title=" ">
<polygon fill="white" stroke="#666666" points="2294.88,-97 2193.38,-97 2193.38,-66.5 2294.88,-66.5 2294.88,-97"/>
<text text-anchor="start" x="2201.38" y="-83.5" font-family="Helvetica,sans-Serif" font-size="10.00">iop/hdd/apa/src/hdd</text>
<text text-anchor="middle" x="2244.12" y="-72.25" font-family="Helvetica,sans-Serif" font-size="10.00">_blkio.c</text>
</a>
</g>
</g>
<!-- Node26&#45;&gt;Node27 -->
<g id="edge27_Node000026_Node000027" class="edge">
<title>Node26&#45;&gt;Node27</title>
<g id="a_edge27_Node000026_Node000027"><a xlink:title=" ">
<path fill="none" stroke="#63b8ff" d="M2237.55,-121.31C2238.94,-113.14 2240.43,-104.41 2241.64,-97.33"/>
<polygon fill="#63b8ff" stroke="#63b8ff" points="2234.11,-120.68 2235.88,-131.12 2241.01,-121.85 2234.11,-120.68"/>
</a>
</g>
</g>
<!-- Node28 -->
<g id="Node000028" class="node">
<title>Node28</title>
<g id="a_Node000028"><a xlink:href="misc__hdck_8c_source.html" target="_top" xlink:title=" ">
<polygon fill="white" stroke="#666666" points="2425.12,-97 2313.12,-97 2313.12,-66.5 2425.12,-66.5 2425.12,-97"/>
<text text-anchor="start" x="2321.12" y="-83.5" font-family="Helvetica,sans-Serif" font-size="10.00">iop/hdd/hdck/src/misc</text>
<text text-anchor="middle" x="2369.12" y="-72.25" font-family="Helvetica,sans-Serif" font-size="10.00">_hdck.c</text>
</a>
</g>
</g>
<!-- Node26&#45;&gt;Node28 -->
<g id="edge30_Node000026_Node000028" class="edge">
<title>Node26&#45;&gt;Node28</title>
<g id="a_edge30_Node000026_Node000028"><a xlink:title=" ">
<path fill="none" stroke="#63b8ff" d="M2274.35,-127.7C2294.95,-117.93 2319.46,-106.31 2338.39,-97.33"/>
<polygon fill="#63b8ff" stroke="#63b8ff" points="2272.89,-124.52 2265.35,-131.97 2275.89,-130.84 2272.89,-124.52"/>
</a>
</g>
</g>
<!-- Node29 -->
<g id="Node000029" class="node">
<title>Node29</title>
<g id="a_Node000029"><a xlink:href="misc__hdsk_8c_source.html" target="_top" xlink:title=" ">
<polygon fill="white" stroke="#666666" points="2555.12,-97 2443.12,-97 2443.12,-66.5 2555.12,-66.5 2555.12,-97"/>
<text text-anchor="start" x="2451.12" y="-83.5" font-family="Helvetica,sans-Serif" font-size="10.00">iop/hdd/hdsk/src/misc</text>
<text text-anchor="middle" x="2499.12" y="-72.25" font-family="Helvetica,sans-Serif" font-size="10.00">_hdsk.c</text>
</a>
</g>
</g>
<!-- Node26&#45;&gt;Node29 -->
<g id="edge33_Node000026_Node000029" class="edge">
<title>Node26&#45;&gt;Node29</title>
<g id="a_edge33_Node000026_Node000029"><a xlink:title=" ">
<path fill="none" stroke="#63b8ff" d="M2299.15,-131.24C2343.28,-120.54 2400.72,-106.61 2442.71,-96.43"/>
<polygon fill="#63b8ff" stroke="#63b8ff" points="2298.6,-127.77 2289.71,-133.53 2300.25,-134.57 2298.6,-127.77"/>
</a>
</g>
</g>
<!-- Node26&#45;&gt;Node30 -->
<g id="edge35_Node000026_Node000030" class="edge">
<title>Node26&#45;&gt;Node30</title>
<g id="a_edge35_Node000026_Node000030"><a xlink:title=" ">
<path fill="none" stroke="#63b8ff" d="M2299.6,-133.44C2300.45,-133.29 2301.29,-133.14 2302.12,-133 2417.97,-113.1 2448.81,-119.78 2564.12,-97 2566.83,-96.46 2569.61,-95.88 2572.4,-95.25"/>
<polygon fill="#63b8ff" stroke="#63b8ff" points="2299.12,-129.97 2289.91,-135.22 2300.38,-136.85 2299.12,-129.97"/>
</a>
</g>
</g>
<!-- Node26&#45;&gt;Node31 -->
<g id="edge36_Node000026_Node000031" class="edge">
<title>Node26&#45;&gt;Node31</title>
<g id="a_edge36_Node000026_Node000031"><a xlink:title=" ">
<path fill="none" stroke="#63b8ff" d="M2299.47,-138.15C2312.92,-136.38 2326.97,-134.58 2340.12,-133 2488.36,-115.14 2527.19,-123.48 2674.12,-97 2677.19,-96.45 2680.33,-95.82 2683.48,-95.15"/>
<polygon fill="#63b8ff" stroke="#63b8ff" points="2299.3,-134.64 2289.85,-139.43 2300.22,-141.58 2299.3,-134.64"/>
</a>
</g>
</g>
<!-- Node26&#45;&gt;Node32 -->
<g id="edge37_Node000026_Node000032" class="edge">
<title>Node26&#45;&gt;Node32</title>
<g id="a_edge37_Node000026_Node000032"><a xlink:title=" ">
<path fill="none" stroke="#63b8ff" d="M2299.62,-140.58C2324.27,-138.14 2352.47,-135.4 2378.12,-133 2558.93,-116.12 2606.11,-127.49 2785.12,-97 2788.19,-96.48 2791.34,-95.87 2794.49,-95.21"/>
<polygon fill="#63b8ff" stroke="#63b8ff" points="2299.31,-137.09 2289.7,-141.56 2300,-144.06 2299.31,-137.09"/>
</a>
</g>
</g>
<!-- Node26&#45;&gt;Node33 -->
<g id="edge38_Node000026_Node000033" class="edge">
<title>Node26&#45;&gt;Node33</title>
<g id="a_edge38_Node000026_Node000033"><a xlink:title=" ">
<path fill="none" stroke="#63b8ff" d="M2299.8,-142.01C2334.49,-139.3 2377.59,-135.95 2416.12,-133 2629.44,-116.7 2684.99,-131.51 2896.12,-97 2899.19,-96.5 2902.34,-95.91 2905.5,-95.26"/>
<polygon fill="#63b8ff" stroke="#63b8ff" points="2299.58,-138.52 2289.89,-142.79 2300.13,-145.5 2299.58,-138.52"/>
</a>
</g>
</g>
<!-- Node26&#45;&gt;Node34 -->
<g id="edge39_Node000026_Node000034" class="edge">
<title>Node26&#45;&gt;Node34</title>
<g id="a_edge39_Node000026_Node000034"><a xlink:title=" ">
<path fill="none" stroke="#63b8ff" d="M2299.62,-142.95C2486.82,-130.85 3004.95,-97.34 3007.12,-97 3010.2,-96.51 3013.35,-95.94 3016.51,-95.3"/>
<polygon fill="#63b8ff" stroke="#63b8ff" points="2299.56,-139.45 2289.81,-143.59 2300.02,-146.43 2299.56,-139.45"/>
</a>
</g>
</g>
<!-- Node26&#45;&gt;Node35 -->
<g id="edge40_Node000026_Node000035" class="edge">
<title>Node26&#45;&gt;Node35</title>
<g id="a_edge40_Node000026_Node000035"><a xlink:title=" ">
<path fill="none" stroke="#63b8ff" d="M2299.87,-143.54C2504.21,-132.19 3108.02,-98.56 3118.12,-97 3121.2,-96.53 3124.35,-95.96 3127.51,-95.33"/>
<polygon fill="#63b8ff" stroke="#63b8ff" points="2299.73,-140.05 2289.94,-144.1 2300.12,-147.04 2299.73,-140.05"/>
</a>
</g>
</g>
</g>
</svg>
