<?xml version="1.0" encoding="UTF-8" standalone="no"?>
<!DOCTYPE svg PUBLIC "-//W3C//DTD SVG 1.1//EN"
 "http://www.w3.org/Graphics/SVG/1.1/DTD/svg11.dtd">
<!-- Generated by graphviz version 12.2.0 (20241103.1931)
 -->
<!-- Title: iop/system/heaplib/include/heaplib.h Pages: 1 -->
<!--zoomable 172 -->

<svg id="main" version="1.1" xmlns="http://www.w3.org/2000/svg" xmlns:xlink="http://www.w3.org/1999/xlink" xml:space="preserve" onload="init(evt)">

<style type="text/css"><![CDATA[
.node, .edge {opacity: 0.7;}
.node.selected, .edge.selected {opacity: 1;}
.edge:hover path { stroke: red; }
.edge:hover polygon { stroke: red; fill: red; }
]]></style>

<defs>
  <circle id="rim" cx="0" cy="0" r="7"/>
  <circle id="rim2" cx="0" cy="0" r="3.5"/>
  <g id="zoomPlus">
    <use xlink:href="#rim" fill="#404040"><set attributeName="fill" to="#808080" begin="zoomplus.mouseover" end="zoomplus.mouseout"/></use>
    <path d="M-4,0h8M0,-4v8" fill="none" stroke="white" stroke-width="1.5" pointer-events="none"/>
  </g>
  <g id="zoomMin">
    <use xlink:href="#rim" fill="#404040"><set attributeName="fill" to="#808080" begin="zoomminus.mouseover" end="zoomminus.mouseout"/></use>
    <path d="M-4,0h8" fill="none" stroke="white" stroke-width="1.5" pointer-events="none"/>
  </g>
  <g id="arrowUp" transform="translate(30 24)">
    <use xlink:href="#rim"/>
    <path pointer-events="none" fill="none" stroke="white" stroke-width="1.5" d="M0,-3.0v7 M-2.5,-0.5L0,-3.0L2.5,-0.5"/>
  </g>
  <g id="arrowRight" transform="rotate(90) translate(36 -43)">
    <use xlink:href="#rim"/>
    <path pointer-events="none" fill="none" stroke="white" stroke-width="1.5" d="M0,-3.0v7 M-2.5,-0.5L0,-3.0L2.5,-0.5"/>
  </g>
  <g id="arrowDown" transform="rotate(180) translate(-30 -48)">
    <use xlink:href="#rim"/>
    <path pointer-events="none" fill="none" stroke="white" stroke-width="1.5" d="M0,-3.0v7 M-2.5,-0.5L0,-3.0L2.5,-0.5"/>
  </g>
  <g id="arrowLeft" transform="rotate(270) translate(-36 17)">
    <use xlink:href="#rim"/>
    <path pointer-events="none" fill="none" stroke="white" stroke-width="1.5" d="M0,-3.0v7 M-2.5,-0.5L0,-3.0L2.5,-0.5"/>
  </g>
  <g id="resetDef">
    <use xlink:href="#rim2" fill="#404040"><set attributeName="fill" to="#808080" begin="reset.mouseover" end="reset.mouseout"/></use>
  </g>
</defs>
<script type="application/ecmascript">
var viewWidth = 729;
var viewHeight = 172;
var sectionId = 'dynsection-1';
</script>
<script type="application/ecmascript" xlink:href="svg.min.js"/>
<svg id="graph" class="graph">
<g id="viewport">
<title>iop/system/heaplib/include/heaplib.h</title>
<!-- Node1 -->
<g id="Node000001" class="node">
<title>Node1</title>
<g id="a_Node000001"><a xlink:title=" ">
<polygon fill="#999999" stroke="#666666" points="391.62,-163.5 294.62,-163.5 294.62,-133 391.62,-133 391.62,-163.5"/>
<text text-anchor="start" x="302.62" y="-150" font-family="Helvetica,sans-Serif" font-size="10.00">iop/system/heaplib</text>
<text text-anchor="middle" x="343.12" y="-138.75" font-family="Helvetica,sans-Serif" font-size="10.00">/include/heaplib.h</text>
</a>
</g>
</g>
<!-- Node2 -->
<g id="Node000002" class="node">
<title>Node2</title>
<g id="a_Node000002"><a xlink:href="iop_2network_2netcnf_2src_2irx__imports_8h_source.html" target="_top" xlink:title=" ">
<polygon fill="white" stroke="#666666" points="96.25,-97 0,-97 0,-66.5 96.25,-66.5 96.25,-97"/>
<text text-anchor="start" x="8" y="-83.5" font-family="Helvetica,sans-Serif" font-size="10.00">iop/network/netcnf</text>
<text text-anchor="middle" x="48.12" y="-72.25" font-family="Helvetica,sans-Serif" font-size="10.00">/src/irx_imports.h</text>
</a>
</g>
</g>
<!-- Node1&#45;&gt;Node2 -->
<g id="edge1_Node000001_Node000002" class="edge">
<title>Node1&#45;&gt;Node2</title>
<g id="a_edge1_Node000001_Node000002"><a xlink:title=" ">
<path fill="none" stroke="#63b8ff" d="M283.34,-135.12C235.35,-125.26 166.29,-110.77 106.12,-97 102.99,-96.28 99.77,-95.53 96.52,-94.76"/>
<polygon fill="#63b8ff" stroke="#63b8ff" points="282.48,-138.52 292.97,-137.1 283.88,-131.66 282.48,-138.52"/>
</a>
</g>
</g>
<!-- Node3 -->
<g id="Node000003" class="node">
<title>Node3</title>
<g id="a_Node000003"><a xlink:href="iop_2network_2netcnfif_2src_2irx__imports_8h_source.html" target="_top" xlink:title=" ">
<polygon fill="white" stroke="#666666" points="215.5,-97 114.75,-97 114.75,-66.5 215.5,-66.5 215.5,-97"/>
<text text-anchor="start" x="122.75" y="-83.5" font-family="Helvetica,sans-Serif" font-size="10.00">iop/network/netcnfif</text>
<text text-anchor="middle" x="165.12" y="-72.25" font-family="Helvetica,sans-Serif" font-size="10.00">/src/irx_imports.h</text>
</a>
</g>
</g>
<!-- Node1&#45;&gt;Node3 -->
<g id="edge2_Node000001_Node000003" class="edge">
<title>Node1&#45;&gt;Node3</title>
<g id="a_edge2_Node000001_Node000003"><a xlink:title=" ">
<path fill="none" stroke="#63b8ff" d="M292.15,-128.78C264.71,-118.83 231.32,-106.74 205.66,-97.44"/>
<polygon fill="#63b8ff" stroke="#63b8ff" points="290.72,-131.98 301.31,-132.1 293.1,-125.4 290.72,-131.98"/>
</a>
</g>
</g>
<!-- Node5 -->
<g id="Node000005" class="node">
<title>Node5</title>
<g id="a_Node000005"><a xlink:href="heaplib_8c_source.html" target="_top" xlink:title=" ">
<polygon fill="white" stroke="#666666" points="330.62,-97 233.62,-97 233.62,-66.5 330.62,-66.5 330.62,-97"/>
<text text-anchor="start" x="241.62" y="-83.5" font-family="Helvetica,sans-Serif" font-size="10.00">iop/system/heaplib</text>
<text text-anchor="middle" x="282.12" y="-72.25" font-family="Helvetica,sans-Serif" font-size="10.00">/src/heaplib.c</text>
</a>
</g>
</g>
<!-- Node1&#45;&gt;Node5 -->
<g id="edge4_Node000001_Node000005" class="edge">
<title>Node1&#45;&gt;Node5</title>
<g id="a_edge4_Node000001_Node000005"><a xlink:title=" ">
<path fill="none" stroke="#63b8ff" d="M321.52,-124.41C313,-115.4 303.47,-105.32 295.91,-97.33"/>
<polygon fill="#63b8ff" stroke="#63b8ff" points="318.83,-126.65 328.24,-131.51 323.91,-121.84 318.83,-126.65"/>
</a>
</g>
</g>
<!-- Node6 -->
<g id="Node000006" class="node">
<title>Node6</title>
<g id="a_Node000006"><a xlink:href="iop_2system_2threadman_2src_2irx__imports_8h_source.html" target="_top" xlink:title=" ">
<polygon fill="white" stroke="#666666" points="461.12,-97 349.12,-97 349.12,-66.5 461.12,-66.5 461.12,-97"/>
<text text-anchor="start" x="357.12" y="-83.5" font-family="Helvetica,sans-Serif" font-size="10.00">iop/system/threadman</text>
<text text-anchor="middle" x="405.12" y="-72.25" font-family="Helvetica,sans-Serif" font-size="10.00">/src/irx_imports.h</text>
</a>
</g>
</g>
<!-- Node1&#45;&gt;Node6 -->
<g id="edge5_Node000001_Node000006" class="edge">
<title>Node1&#45;&gt;Node6</title>
<g id="a_edge5_Node000001_Node000006"><a xlink:title=" ">
<path fill="none" stroke="#63b8ff" d="M365.08,-124.41C373.74,-115.4 383.43,-105.32 391.11,-97.33"/>
<polygon fill="#63b8ff" stroke="#63b8ff" points="362.65,-121.89 358.24,-131.52 367.7,-126.74 362.65,-121.89"/>
</a>
</g>
</g>
<!-- Node7 -->
<g id="Node000007" class="node">
<title>Node7</title>
<g id="a_Node000007"><a xlink:href="thcommon_8c_source.html" target="_top" xlink:title=" ">
<polygon fill="white" stroke="#666666" points="591.12,-97 479.12,-97 479.12,-66.5 591.12,-66.5 591.12,-97"/>
<text text-anchor="start" x="487.12" y="-83.5" font-family="Helvetica,sans-Serif" font-size="10.00">iop/system/threadman</text>
<text text-anchor="middle" x="535.12" y="-72.25" font-family="Helvetica,sans-Serif" font-size="10.00">/src/thcommon.c</text>
</a>
</g>
</g>
<!-- Node1&#45;&gt;Node7 -->
<g id="edge6_Node000001_Node000007" class="edge">
<title>Node1&#45;&gt;Node7</title>
<g id="a_edge6_Node000001_Node000007"><a xlink:title=" ">
<path fill="none" stroke="#63b8ff" d="M397.32,-129.04C427.07,-119.05 463.48,-106.82 491.4,-97.44"/>
<polygon fill="#63b8ff" stroke="#63b8ff" points="396.49,-125.63 388.13,-132.13 398.72,-132.27 396.49,-125.63"/>
</a>
</g>
</g>
<!-- Node8 -->
<g id="Node000008" class="node">
<title>Node8</title>
<g id="a_Node000008"><a xlink:href="thvpool_8c_source.html" target="_top" xlink:title=" ">
<polygon fill="white" stroke="#666666" points="721.12,-97 609.12,-97 609.12,-66.5 721.12,-66.5 721.12,-97"/>
<text text-anchor="start" x="617.12" y="-83.5" font-family="Helvetica,sans-Serif" font-size="10.00">iop/system/threadman</text>
<text text-anchor="middle" x="665.12" y="-72.25" font-family="Helvetica,sans-Serif" font-size="10.00">/src/thvpool.c</text>
</a>
</g>
</g>
<!-- Node1&#45;&gt;Node8 -->
<g id="edge7_Node000001_Node000008" class="edge">
<title>Node1&#45;&gt;Node8</title>
<g id="a_edge7_Node000001_Node000008"><a xlink:title=" ">
<path fill="none" stroke="#63b8ff" d="M403.03,-135.94C455.17,-125.99 532.73,-110.97 600.12,-97 602.95,-96.41 605.85,-95.81 608.77,-95.19"/>
<polygon fill="#63b8ff" stroke="#63b8ff" points="402.64,-132.45 393.47,-137.76 403.95,-139.32 402.64,-132.45"/>
</a>
</g>
</g>
<!-- Node4 -->
<g id="Node000004" class="node">
<title>Node4</title>
<g id="a_Node000004"><a xlink:href="netcnfif_8c_source.html" target="_top" xlink:title=" ">
<polygon fill="white" stroke="#666666" points="215.5,-30.5 114.75,-30.5 114.75,0 215.5,0 215.5,-30.5"/>
<text text-anchor="start" x="122.75" y="-17" font-family="Helvetica,sans-Serif" font-size="10.00">iop/network/netcnfif</text>
<text text-anchor="middle" x="165.12" y="-5.75" font-family="Helvetica,sans-Serif" font-size="10.00">/src/netcnfif.c</text>
</a>
</g>
</g>
<!-- Node3&#45;&gt;Node4 -->
<g id="edge3_Node000003_Node000004" class="edge">
<title>Node3&#45;&gt;Node4</title>
<g id="a_edge3_Node000003_Node000004"><a xlink:title=" ">
<path fill="none" stroke="#63b8ff" d="M165.12,-54.81C165.12,-46.64 165.12,-37.91 165.12,-30.83"/>
<polygon fill="#63b8ff" stroke="#63b8ff" points="161.63,-54.6 165.13,-64.6 168.63,-54.6 161.63,-54.6"/>
</a>
</g>
</g>
</g>
</svg>

<g id="navigator" transform="translate(0 0)" fill="#404254">
  <rect fill="#f2f5e9" fill-opacity="0.5" stroke="#606060" stroke-width=".5" x="0" y="0" width="60" height="60"/>
  <use id="zoomplus" xlink:href="#zoomPlus" x="17" y="9" onmousedown="handleZoom(evt,'in')"/>
  <use id="zoomminus" xlink:href="#zoomMin" x="42" y="9" onmousedown="handleZoom(evt,'out')"/>
  <use id="reset" xlink:href="#resetDef" x="30" y="36" onmousedown="handleReset()"/>
   <use id="arrowup" xlink:href="#arrowUp" x="0" y="0" onmousedown="handlePan(0,-1)"/>
  <use id="arrowright" xlink:href="#arrowRight" x="0" y="0" onmousedown="handlePan(1,0)"/>
  <use id="arrowdown" xlink:href="#arrowDown" x="0" y="0" onmousedown="handlePan(0,1)"/>
  <use id="arrowleft" xlink:href="#arrowLeft" x="0" y="0" onmousedown="handlePan(-1,0)"/>
</g>
<svg viewBox="0 0 15 15" width="100%" height="30px" preserveAspectRatio="xMaxYMin meet">
 <g id="arrow_out" transform="scale(0.3 0.3)">
  <a xlink:href="heaplib_8h__dep__incl_org.svg" target="_base">
   <rect id="button" ry="5" rx="5" y="6" x="6" height="38" width="38"
        fill="#f2f5e9" fill-opacity="0.5" stroke="#606060" stroke-width="1.0"/>
   <path id="arrow"
     d="M 11.500037,31.436501 C 11.940474,20.09759 22.043105,11.32322 32.158766,21.979434 L 37.068811,17.246167 C 37.068811,17.246167 37.088388,32 37.088388,32 L 22.160133,31.978069 C 22.160133,31.978069 26.997745,27.140456 26.997745,27.140456 C 18.528582,18.264221 13.291696,25.230495 11.500037,31.436501 z"
     style="fill:#404040;"/>
  </a>
 </g>
</svg>

<style type='text/css'>
<![CDATA[
[data-mouse-over-selected='false'] { opacity: 0.7; }
[data-mouse-over-selected='true']  { opacity: 1.0; }
]]>
</style>
<script type="application/ecmascript"><![CDATA[
document.addEventListener('DOMContentLoaded', (event) => {
  highlightEdges();
  highlightAdjacentNodes();
});
]]></script>
</svg>
