<?xml version="1.0" encoding="UTF-8" standalone="no"?>
<!DOCTYPE svg PUBLIC "-//W3C//DTD SVG 1.1//EN"
 "http://www.w3.org/Graphics/SVG/1.1/DTD/svg11.dtd">
<!-- Generated by graphviz version 9.0.0 (20230911.1827)
 -->
<!-- Title: iop/usb/usbd/src/hub.h Pages: 1 -->
<svg width="400pt" height="83pt"
 viewBox="0.00 0.00 400.00 82.50" xmlns="http://www.w3.org/2000/svg" xmlns:xlink="http://www.w3.org/1999/xlink">
<g id="graph0" class="graph" transform="scale(1 1) rotate(0) translate(4 78.5)">
<title>iop/usb/usbd/src/hub.h</title>
<!-- Node1 -->
<g id="Node000001" class="node">
<title>Node1</title>
<g id="a_Node000001"><a xlink:title=" ">
<polygon fill="#999999" stroke="#666666" points="254.38,-74.5 140.12,-74.5 140.12,-55.25 254.38,-55.25 254.38,-74.5"/>
<text text-anchor="middle" x="197.25" y="-61" font-family="Helvetica,sans-Serif" font-size="10.00">iop/usb/usbd/src/hub.h</text>
</a>
</g>
</g>
<!-- Node2 -->
<g id="Node000002" class="node">
<title>Node2</title>
<g id="a_Node000002"><a xlink:href="driver_8c.html" target="_top" xlink:title=" ">
<polygon fill="white" stroke="#666666" points="122.5,-19.25 0,-19.25 0,0 122.5,0 122.5,-19.25"/>
<text text-anchor="middle" x="61.25" y="-5.75" font-family="Helvetica,sans-Serif" font-size="10.00">iop/usb/usbd/src/driver.c</text>
</a>
</g>
</g>
<!-- Node1&#45;&gt;Node2 -->
<g id="edge1_Node000001_Node000002" class="edge">
<title>Node1&#45;&gt;Node2</title>
<g id="a_edge1_Node000001_Node000002"><a xlink:title=" ">
<path fill="none" stroke="#63b8ff" d="M163.51,-50.66C138.89,-41.02 106.16,-28.21 84.43,-19.7"/>
<polygon fill="#63b8ff" stroke="#63b8ff" points="162.18,-53.9 172.77,-54.29 164.73,-47.38 162.18,-53.9"/>
</a>
</g>
</g>
<!-- Node3 -->
<g id="Node000003" class="node">
<title>Node3</title>
<g id="a_Node000003"><a xlink:href="hcd_8c.html" target="_top" xlink:title=" ">
<polygon fill="white" stroke="#666666" points="254.38,-19.25 140.12,-19.25 140.12,0 254.38,0 254.38,-19.25"/>
<text text-anchor="middle" x="197.25" y="-5.75" font-family="Helvetica,sans-Serif" font-size="10.00">iop/usb/usbd/src/hcd.c</text>
</a>
</g>
</g>
<!-- Node1&#45;&gt;Node3 -->
<g id="edge2_Node000001_Node000003" class="edge">
<title>Node1&#45;&gt;Node3</title>
<g id="a_edge2_Node000001_Node000003"><a xlink:title=" ">
<path fill="none" stroke="#63b8ff" d="M197.25,-43.63C197.25,-35.34 197.25,-26.17 197.25,-19.61"/>
<polygon fill="#63b8ff" stroke="#63b8ff" points="193.75,-43.57 197.25,-53.57 200.75,-43.57 193.75,-43.57"/>
</a>
</g>
</g>
<!-- Node4 -->
<g id="Node000004" class="node">
<title>Node4</title>
<g id="a_Node000004"><a xlink:href="usbd_8c.html" target="_top" xlink:title=" ">
<polygon fill="white" stroke="#666666" points="392,-19.25 272.5,-19.25 272.5,0 392,0 392,-19.25"/>
<text text-anchor="middle" x="332.25" y="-5.75" font-family="Helvetica,sans-Serif" font-size="10.00">iop/usb/usbd/src/usbd.c</text>
</a>
</g>
</g>
<!-- Node1&#45;&gt;Node4 -->
<g id="edge3_Node000001_Node000004" class="edge">
<title>Node1&#45;&gt;Node4</title>
<g id="a_edge3_Node000001_Node000004"><a xlink:title=" ">
<path fill="none" stroke="#63b8ff" d="M230.74,-50.66C255.18,-41.02 287.67,-28.21 309.24,-19.7"/>
<polygon fill="#63b8ff" stroke="#63b8ff" points="229.58,-47.36 221.56,-54.29 232.15,-53.87 229.58,-47.36"/>
</a>
</g>
</g>
</g>
</svg>
