<?xml version="1.0" encoding="UTF-8" standalone="no"?>
<!DOCTYPE svg PUBLIC "-//W3C//DTD SVG 1.1//EN"
 "http://www.w3.org/Graphics/SVG/1.1/DTD/svg11.dtd">
<!-- Generated by graphviz version 9.0.0 (20230911.1827)
 -->
<!-- Title: ee/iopreboot/src/imgdrv/src/imgdrv.c Pages: 1 -->
<svg width="296pt" height="260pt"
 viewBox="0.00 0.00 296.25 259.50" xmlns="http://www.w3.org/2000/svg" xmlns:xlink="http://www.w3.org/1999/xlink">

<svg id="main" version="1.1" xmlns="http://www.w3.org/2000/svg" xmlns:xlink="http://www.w3.org/1999/xlink" xml:space="preserve" onload="init(evt)">
<style type="text/css"><![CDATA[
.node, .edge {opacity: 0.7;}
.node.selected, .edge.selected {opacity: 1;}
.edge:hover path { stroke: red; }
.edge:hover polygon { stroke: red; fill: red; }
]]></style>
<script type="application/ecmascript" xlink:href="svg.min.js"/>
<svg id="graph" class="graph">
<g id="graph0" class="graph" transform="scale(1 1) rotate(0) translate(4 255.5)">
<title>ee/iopreboot/src/imgdrv/src/imgdrv.c</title>
<!-- Node1 -->
<g id="Node000001" class="node">
<title>Node1</title>
<g id="a_Node000001"><a xlink:title=" ">
<polygon fill="#999999" stroke="#666666" points="259.12,-251.5 141.12,-251.5 141.12,-221 259.12,-221 259.12,-251.5"/>
<text text-anchor="start" x="149.12" y="-238" font-family="Helvetica,sans-Serif" font-size="10.00">ee/iopreboot/src/imgdrv</text>
<text text-anchor="middle" x="200.12" y="-226.75" font-family="Helvetica,sans-Serif" font-size="10.00">/src/imgdrv.c</text>
</a>
</g>
</g>
<!-- Node2 -->
<g id="Node000002" class="node">
<title>Node2</title>
<g id="a_Node000002"><a xlink:href="ioman_8h.html" target="_top" xlink:title=" ">
<polygon fill="white" stroke="#666666" points="172,-185 122.25,-185 122.25,-165.75 172,-165.75 172,-185"/>
<text text-anchor="middle" x="147.12" y="-171.5" font-family="Helvetica,sans-Serif" font-size="10.00">ioman.h</text>
</a>
</g>
</g>
<!-- Node1&#45;&gt;Node2 -->
<g id="edge1_Node000001_Node000002" class="edge">
<title>Node1&#45;&gt;Node2</title>
<g id="a_edge1_Node000001_Node000002"><a xlink:title=" ">
<path fill="none" stroke="#63b8ff" d="M187.02,-220.7C179.73,-212.59 170.6,-202.45 162.91,-193.91"/>
<polygon fill="#63b8ff" stroke="#63b8ff" points="165.6,-191.67 156.31,-186.58 160.4,-196.35 165.6,-191.67"/>
</a>
</g>
</g>
<!-- Node6 -->
<g id="Node000006" class="node">
<title>Node6</title>
<g id="a_Node000006"><a xlink:href="irx_8h.html" target="_top" xlink:title=" ">
<polygon fill="white" stroke="#666666" points="220.75,-129.75 187.5,-129.75 187.5,-110.5 220.75,-110.5 220.75,-129.75"/>
<text text-anchor="middle" x="204.12" y="-116.25" font-family="Helvetica,sans-Serif" font-size="10.00">irx.h</text>
</a>
</g>
</g>
<!-- Node1&#45;&gt;Node6 -->
<g id="edge10_Node000001_Node000006" class="edge">
<title>Node1&#45;&gt;Node6</title>
<g id="a_edge10_Node000001_Node000006"><a xlink:title=" ">
<path fill="none" stroke="#63b8ff" d="M200.63,-220.8C201.33,-200.75 202.61,-164.4 203.41,-141.57"/>
<polygon fill="#63b8ff" stroke="#63b8ff" points="206.9,-141.83 203.75,-131.71 199.91,-141.58 206.9,-141.83"/>
</a>
</g>
</g>
<!-- Node10 -->
<g id="Node000010" class="node">
<title>Node10</title>
<g id="a_Node000010"><a xlink:href="loadcore_8h.html" target="_top" xlink:title=" ">
<polygon fill="white" stroke="#666666" points="288.25,-185 228,-185 228,-165.75 288.25,-165.75 288.25,-185"/>
<text text-anchor="middle" x="258.12" y="-171.5" font-family="Helvetica,sans-Serif" font-size="10.00">loadcore.h</text>
</a>
</g>
</g>
<!-- Node1&#45;&gt;Node10 -->
<g id="edge11_Node000001_Node000010" class="edge">
<title>Node1&#45;&gt;Node10</title>
<g id="a_edge11_Node000001_Node000010"><a xlink:title=" ">
<path fill="none" stroke="#63b8ff" d="M214.46,-220.7C222.53,-212.51 232.65,-202.23 241.12,-193.64"/>
<polygon fill="#63b8ff" stroke="#63b8ff" points="243.6,-196.11 248.12,-186.53 238.61,-191.2 243.6,-196.11"/>
</a>
</g>
</g>
<!-- Node3 -->
<g id="Node000003" class="node">
<title>Node3</title>
<g id="a_Node000003"><a xlink:href="iop_2kernel_2include_2types_8h_source.html" target="_top" xlink:title=" ">
<polygon fill="white" stroke="#666666" points="227.5,-74.5 180.75,-74.5 180.75,-55.25 227.5,-55.25 227.5,-74.5"/>
<text text-anchor="middle" x="204.12" y="-61" font-family="Helvetica,sans-Serif" font-size="10.00">types.h</text>
</a>
</g>
</g>
<!-- Node2&#45;&gt;Node3 -->
<g id="edge2_Node000002_Node000003" class="edge">
<title>Node2&#45;&gt;Node3</title>
<g id="a_edge2_Node000002_Node000003"><a xlink:title=" ">
<path fill="none" stroke="#63b8ff" d="M151.13,-165.59C156.85,-153.18 167.8,-129.86 178.12,-110.5 182.71,-101.9 188.08,-92.57 192.75,-84.67"/>
<polygon fill="#63b8ff" stroke="#63b8ff" points="195.63,-86.67 197.76,-76.29 189.63,-83.07 195.63,-86.67"/>
</a>
</g>
</g>
<!-- Node2&#45;&gt;Node6 -->
<g id="edge5_Node000002_Node000006" class="edge">
<title>Node2&#45;&gt;Node6</title>
<g id="a_edge5_Node000002_Node000006"><a xlink:title=" ">
<path fill="none" stroke="#63b8ff" d="M156.79,-165.34C164.87,-157.8 176.59,-146.85 186.35,-137.73"/>
<polygon fill="#63b8ff" stroke="#63b8ff" points="188.57,-140.44 193.49,-131.06 183.8,-135.33 188.57,-140.44"/>
</a>
</g>
</g>
<!-- Node7 -->
<g id="Node000007" class="node">
<title>Node7</title>
<g id="a_Node000007"><a xlink:href="io__common_8h.html" target="_top" xlink:title=" ">
<polygon fill="white" stroke="#666666" points="131,-129.75 57.25,-129.75 57.25,-110.5 131,-110.5 131,-129.75"/>
<text text-anchor="middle" x="94.12" y="-116.25" font-family="Helvetica,sans-Serif" font-size="10.00">io_common.h</text>
</a>
</g>
</g>
<!-- Node2&#45;&gt;Node7 -->
<g id="edge7_Node000002_Node000007" class="edge">
<title>Node2&#45;&gt;Node7</title>
<g id="a_edge7_Node000002_Node000007"><a xlink:title=" ">
<path fill="none" stroke="#63b8ff" d="M138.37,-165.58C130.98,-158.15 120.16,-147.29 111.08,-138.16"/>
<polygon fill="#63b8ff" stroke="#63b8ff" points="113.67,-135.8 104.13,-131.18 108.71,-140.74 113.67,-135.8"/>
</a>
</g>
</g>
<!-- Node4 -->
<g id="Node000004" class="node">
<title>Node4</title>
<g id="a_Node000004"><a xlink:title=" ">
<polygon fill="#e0e0e0" stroke="#999999" points="191.38,-19.25 140.88,-19.25 140.88,0 191.38,0 191.38,-19.25"/>
<text text-anchor="middle" x="166.12" y="-5.75" font-family="Helvetica,sans-Serif" font-size="10.00">stddef.h</text>
</a>
</g>
</g>
<!-- Node3&#45;&gt;Node4 -->
<g id="edge3_Node000003_Node000004" class="edge">
<title>Node3&#45;&gt;Node4</title>
<g id="a_edge3_Node000003_Node000004"><a xlink:title=" ">
<path fill="none" stroke="#63b8ff" d="M197.85,-55.08C192.77,-47.96 185.43,-37.68 179.09,-28.8"/>
<polygon fill="#63b8ff" stroke="#63b8ff" points="182.07,-26.95 173.42,-20.84 176.38,-31.01 182.07,-26.95"/>
</a>
</g>
</g>
<!-- Node5 -->
<g id="Node000005" class="node">
<title>Node5</title>
<g id="a_Node000005"><a xlink:href="tamtypes_8h.html" target="_top" xlink:title=" ">
<polygon fill="white" stroke="#666666" points="272.75,-19.25 209.5,-19.25 209.5,0 272.75,0 272.75,-19.25"/>
<text text-anchor="middle" x="241.12" y="-5.75" font-family="Helvetica,sans-Serif" font-size="10.00">tamtypes.h</text>
</a>
</g>
</g>
<!-- Node3&#45;&gt;Node5 -->
<g id="edge4_Node000003_Node000005" class="edge">
<title>Node3&#45;&gt;Node5</title>
<g id="a_edge4_Node000003_Node000005"><a xlink:title=" ">
<path fill="none" stroke="#63b8ff" d="M210.23,-55.08C215.19,-47.96 222.33,-37.68 228.5,-28.8"/>
<polygon fill="#63b8ff" stroke="#63b8ff" points="231.19,-31.06 234.02,-20.85 225.44,-27.07 231.19,-31.06"/>
</a>
</g>
</g>
<!-- Node6&#45;&gt;Node3 -->
<g id="edge6_Node000006_Node000003" class="edge">
<title>Node6&#45;&gt;Node3</title>
<g id="a_edge6_Node000006_Node000003"><a xlink:title=" ">
<path fill="none" stroke="#63b8ff" d="M204.12,-110.33C204.12,-103.82 204.12,-94.67 204.12,-86.37"/>
<polygon fill="#63b8ff" stroke="#63b8ff" points="207.63,-86.37 204.13,-76.37 200.63,-86.37 207.63,-86.37"/>
</a>
</g>
</g>
<!-- Node8 -->
<g id="Node000008" class="node">
<title>Node8</title>
<g id="a_Node000008"><a xlink:href="fcntl_8h_source.html" target="_top" xlink:title=" ">
<polygon fill="white" stroke="#666666" points="60.25,-74.5 0,-74.5 0,-55.25 60.25,-55.25 60.25,-74.5"/>
<text text-anchor="middle" x="30.12" y="-61" font-family="Helvetica,sans-Serif" font-size="10.00">sys/fcntl.h</text>
</a>
</g>
</g>
<!-- Node7&#45;&gt;Node8 -->
<g id="edge8_Node000007_Node000008" class="edge">
<title>Node7&#45;&gt;Node8</title>
<g id="a_edge8_Node000007_Node000008"><a xlink:title=" ">
<path fill="none" stroke="#63b8ff" d="M83.27,-110.09C74.02,-102.4 60.5,-91.15 49.42,-81.93"/>
<polygon fill="#63b8ff" stroke="#63b8ff" points="51.91,-79.45 41.98,-75.74 47.43,-84.83 51.91,-79.45"/>
</a>
</g>
</g>
<!-- Node9 -->
<g id="Node000009" class="node">
<title>Node9</title>
<g id="a_Node000009"><a xlink:href="unistd_8h_source.html" target="_top" xlink:title=" ">
<polygon fill="white" stroke="#666666" points="146,-74.5 78.25,-74.5 78.25,-55.25 146,-55.25 146,-74.5"/>
<text text-anchor="middle" x="112.12" y="-61" font-family="Helvetica,sans-Serif" font-size="10.00">sys/unistd.h</text>
</a>
</g>
</g>
<!-- Node7&#45;&gt;Node9 -->
<g id="edge9_Node000007_Node000009" class="edge">
<title>Node7&#45;&gt;Node9</title>
<g id="a_edge9_Node000007_Node000009"><a xlink:title=" ">
<path fill="none" stroke="#63b8ff" d="M97.1,-110.33C99.38,-103.59 102.61,-94.02 105.49,-85.49"/>
<polygon fill="#63b8ff" stroke="#63b8ff" points="108.72,-86.89 108.6,-76.29 102.09,-84.65 108.72,-86.89"/>
</a>
</g>
</g>
<!-- Node10&#45;&gt;Node3 -->
<g id="edge12_Node000010_Node000003" class="edge">
<title>Node10&#45;&gt;Node3</title>
<g id="a_edge12_Node000010_Node000003"><a xlink:title=" ">
<path fill="none" stroke="#63b8ff" d="M254.63,-165.55C249.61,-153.09 239.89,-129.71 230.12,-110.5 225.71,-101.82 220.36,-92.47 215.67,-84.58"/>
<polygon fill="#63b8ff" stroke="#63b8ff" points="218.78,-82.97 210.6,-76.23 212.79,-86.59 218.78,-82.97"/>
</a>
</g>
</g>
<!-- Node10&#45;&gt;Node6 -->
<g id="edge13_Node000010_Node000006" class="edge">
<title>Node10&#45;&gt;Node6</title>
<g id="a_edge13_Node000010_Node000006"><a xlink:title=" ">
<path fill="none" stroke="#63b8ff" d="M249.21,-165.58C241.67,-158.15 230.66,-147.29 221.4,-138.16"/>
<polygon fill="#63b8ff" stroke="#63b8ff" points="223.89,-135.7 214.31,-131.17 218.98,-140.69 223.89,-135.7"/>
</a>
</g>
</g>
</g>
</svg>
</svg>

<style type='text/css'>
<![CDATA[
[data-mouse-over-selected='false'] { opacity: 0.7; }
[data-mouse-over-selected='true']  { opacity: 1.0; }
]]>
</style>
<script type="application/ecmascript"><![CDATA[
document.addEventListener('DOMContentLoaded', (event) => {
  highlightEdges();
  highlightAdjacentNodes();
});
]]></script>
</svg>
