<?xml version="1.0" encoding="UTF-8" standalone="no"?>
<!DOCTYPE svg PUBLIC "-//W3C//DTD SVG 1.1//EN"
 "http://www.w3.org/Graphics/SVG/1.1/DTD/svg11.dtd">
<!-- Generated by graphviz version 9.0.0 (20230911.1827)
 -->
<!-- Title: common/include/io_common.h Pages: 1 -->
<svg width="157pt" height="83pt"
 viewBox="0.00 0.00 156.88 82.50" xmlns="http://www.w3.org/2000/svg" xmlns:xlink="http://www.w3.org/1999/xlink">
<g id="graph0" class="graph" transform="scale(1 1) rotate(0) translate(4 78.5)">
<title>common/include/io_common.h</title>
<!-- Node1 -->
<g id="Node000001" class="node">
<title>Node1</title>
<g id="a_Node000001"><a xlink:title=" ">
<polygon fill="#999999" stroke="#666666" points="148,-74.5 0,-74.5 0,-55.25 148,-55.25 148,-74.5"/>
<text text-anchor="middle" x="74" y="-61" font-family="Helvetica,sans-Serif" font-size="10.00">common/include/io_common.h</text>
</a>
</g>
</g>
<!-- Node2 -->
<g id="Node000002" class="node">
<title>Node2</title>
<g id="a_Node000002"><a xlink:href="fcntl_8h_source.html" target="_top" xlink:title=" ">
<polygon fill="white" stroke="#666666" points="63.12,-19.25 2.88,-19.25 2.88,0 63.12,0 63.12,-19.25"/>
<text text-anchor="middle" x="33" y="-5.75" font-family="Helvetica,sans-Serif" font-size="10.00">sys/fcntl.h</text>
</a>
</g>
</g>
<!-- Node1&#45;&gt;Node2 -->
<g id="edge1_Node000001_Node000002" class="edge">
<title>Node1&#45;&gt;Node2</title>
<g id="a_edge1_Node000001_Node000002"><a xlink:title=" ">
<path fill="none" stroke="#63b8ff" d="M67.23,-55.08C61.68,-47.88 53.66,-37.46 46.77,-28.51"/>
<polygon fill="#63b8ff" stroke="#63b8ff" points="49.71,-26.6 40.84,-20.81 44.17,-30.87 49.71,-26.6"/>
</a>
</g>
</g>
<!-- Node3 -->
<g id="Node000003" class="node">
<title>Node3</title>
<g id="a_Node000003"><a xlink:href="unistd_8h_source.html" target="_top" xlink:title=" ">
<polygon fill="white" stroke="#666666" points="148.88,-19.25 81.12,-19.25 81.12,0 148.88,0 148.88,-19.25"/>
<text text-anchor="middle" x="115" y="-5.75" font-family="Helvetica,sans-Serif" font-size="10.00">sys/unistd.h</text>
</a>
</g>
</g>
<!-- Node1&#45;&gt;Node3 -->
<g id="edge2_Node000001_Node000003" class="edge">
<title>Node1&#45;&gt;Node3</title>
<g id="a_edge2_Node000001_Node000003"><a xlink:title=" ">
<path fill="none" stroke="#63b8ff" d="M80.77,-55.08C86.32,-47.88 94.34,-37.46 101.23,-28.51"/>
<polygon fill="#63b8ff" stroke="#63b8ff" points="103.83,-30.87 107.16,-20.81 98.29,-26.6 103.83,-30.87"/>
</a>
</g>
</g>
</g>
</svg>
