<?xml version="1.0" encoding="UTF-8" standalone="no"?>
<!DOCTYPE svg PUBLIC "-//W3C//DTD SVG 1.1//EN"
 "http://www.w3.org/Graphics/SVG/1.1/DTD/svg11.dtd">
<!-- Generated by graphviz version 2.43.0 (0)
 -->
<!-- Title: iop/system/ioman/include/ioman_mod.h Pages: 1 -->
<svg width="368pt" height="207pt"
 viewBox="0.00 0.00 368.00 207.00" xmlns="http://www.w3.org/2000/svg" xmlns:xlink="http://www.w3.org/1999/xlink">
<g id="graph0" class="graph" transform="scale(1 1) rotate(0) translate(4 203)">
<title>iop/system/ioman/include/ioman_mod.h</title>
<polygon fill="white" stroke="transparent" points="-4,4 -4,-203 364,-203 364,4 -4,4"/>
<!-- Node1 -->
<g id="node1" class="node">
<title>Node1</title>
<g id="a_node1"><a xlink:title=" ">
<polygon fill="#bfbfbf" stroke="black" points="58.5,-168.5 58.5,-198.5 201.5,-198.5 201.5,-168.5 58.5,-168.5"/>
<text text-anchor="start" x="66.5" y="-186.5" font-family="Helvetica,sans-Serif" font-size="10.00">iop/system/ioman/include</text>
<text text-anchor="middle" x="130" y="-175.5" font-family="Helvetica,sans-Serif" font-size="10.00">/ioman_mod.h</text>
</a>
</g>
</g>
<!-- Node2 -->
<g id="node2" class="node">
<title>Node2</title>
<g id="a_node2"><a xlink:title=" ">
<polygon fill="white" stroke="#bfbfbf" points="0.5,-112.5 0.5,-131.5 53.5,-131.5 53.5,-112.5 0.5,-112.5"/>
<text text-anchor="middle" x="27" y="-119.5" font-family="Helvetica,sans-Serif" font-size="10.00">types.h</text>
</a>
</g>
</g>
<!-- Node1&#45;&gt;Node2 -->
<g id="edge1" class="edge">
<title>Node1&#45;&gt;Node2</title>
<path fill="none" stroke="midnightblue" d="M105.59,-168.4C89.08,-158.86 67.38,-146.32 50.96,-136.84"/>
<polygon fill="midnightblue" stroke="midnightblue" points="52.4,-133.63 41.99,-131.66 48.9,-139.69 52.4,-133.63"/>
</g>
<!-- Node3 -->
<g id="node3" class="node">
<title>Node3</title>
<g id="a_node3"><a xlink:href="irx_8h.html" target="_top" xlink:title=" ">
<polygon fill="white" stroke="black" points="72,-112.5 72,-131.5 110,-131.5 110,-112.5 72,-112.5"/>
<text text-anchor="middle" x="91" y="-119.5" font-family="Helvetica,sans-Serif" font-size="10.00">irx.h</text>
</a>
</g>
</g>
<!-- Node1&#45;&gt;Node3 -->
<g id="edge2" class="edge">
<title>Node1&#45;&gt;Node3</title>
<path fill="none" stroke="midnightblue" d="M120.76,-168.4C115.21,-159.93 108.11,-149.1 102.23,-140.14"/>
<polygon fill="midnightblue" stroke="midnightblue" points="105.08,-138.1 96.67,-131.66 99.23,-141.94 105.08,-138.1"/>
</g>
<!-- Node7 -->
<g id="node7" class="node">
<title>Node7</title>
<g id="a_node7"><a xlink:href="io__common_8h.html" target="_top" xlink:title=" ">
<polygon fill="white" stroke="black" points="128.5,-112.5 128.5,-131.5 211.5,-131.5 211.5,-112.5 128.5,-112.5"/>
<text text-anchor="middle" x="170" y="-119.5" font-family="Helvetica,sans-Serif" font-size="10.00">io_common.h</text>
</a>
</g>
</g>
<!-- Node1&#45;&gt;Node7 -->
<g id="edge6" class="edge">
<title>Node1&#45;&gt;Node7</title>
<path fill="none" stroke="midnightblue" d="M139.48,-168.4C145.17,-159.93 152.45,-149.1 158.48,-140.14"/>
<polygon fill="midnightblue" stroke="midnightblue" points="161.51,-141.91 164.18,-131.66 155.7,-138 161.51,-141.91"/>
</g>
<!-- Node10 -->
<g id="node10" class="node">
<title>Node10</title>
<g id="a_node10"><a xlink:href="iox__stat_8h.html" target="_top" xlink:title=" ">
<polygon fill="white" stroke="black" points="272.5,-112.5 272.5,-131.5 337.5,-131.5 337.5,-112.5 272.5,-112.5"/>
<text text-anchor="middle" x="305" y="-119.5" font-family="Helvetica,sans-Serif" font-size="10.00">iox_stat.h</text>
</a>
</g>
</g>
<!-- Node1&#45;&gt;Node10 -->
<g id="edge9" class="edge">
<title>Node1&#45;&gt;Node10</title>
<path fill="none" stroke="midnightblue" d="M171.47,-168.4C201.58,-158.16 241.85,-144.47 270.27,-134.81"/>
<polygon fill="midnightblue" stroke="midnightblue" points="271.45,-138.1 279.79,-131.57 269.2,-131.48 271.45,-138.1"/>
</g>
<!-- Node4 -->
<g id="node4" class="node">
<title>Node4</title>
<g id="a_node4"><a xlink:href="iop_2kernel_2include_2types_8h_source.html" target="_top" xlink:title=" ">
<polygon fill="white" stroke="black" points="42.5,-56.5 42.5,-75.5 95.5,-75.5 95.5,-56.5 42.5,-56.5"/>
<text text-anchor="middle" x="69" y="-63.5" font-family="Helvetica,sans-Serif" font-size="10.00">types.h</text>
</a>
</g>
</g>
<!-- Node3&#45;&gt;Node4 -->
<g id="edge3" class="edge">
<title>Node3&#45;&gt;Node4</title>
<path fill="none" stroke="midnightblue" d="M87.37,-112.08C84.39,-104.77 80.07,-94.18 76.38,-85.1"/>
<polygon fill="midnightblue" stroke="midnightblue" points="79.58,-83.69 72.57,-75.75 73.1,-86.33 79.58,-83.69"/>
</g>
<!-- Node5 -->
<g id="node5" class="node">
<title>Node5</title>
<g id="a_node5"><a xlink:title=" ">
<polygon fill="white" stroke="#bfbfbf" points="0,-0.5 0,-19.5 56,-19.5 56,-0.5 0,-0.5"/>
<text text-anchor="middle" x="28" y="-7.5" font-family="Helvetica,sans-Serif" font-size="10.00">stddef.h</text>
</a>
</g>
</g>
<!-- Node4&#45;&gt;Node5 -->
<g id="edge4" class="edge">
<title>Node4&#45;&gt;Node5</title>
<path fill="none" stroke="midnightblue" d="M62.23,-56.08C56.44,-48.46 47.94,-37.26 40.86,-27.94"/>
<polygon fill="midnightblue" stroke="midnightblue" points="43.48,-25.6 34.64,-19.75 37.9,-29.83 43.48,-25.6"/>
</g>
<!-- Node6 -->
<g id="node6" class="node">
<title>Node6</title>
<g id="a_node6"><a xlink:href="tamtypes_8h.html" target="_top" xlink:title=" ">
<polygon fill="white" stroke="black" points="74,-0.5 74,-19.5 146,-19.5 146,-0.5 74,-0.5"/>
<text text-anchor="middle" x="110" y="-7.5" font-family="Helvetica,sans-Serif" font-size="10.00">tamtypes.h</text>
</a>
</g>
</g>
<!-- Node4&#45;&gt;Node6 -->
<g id="edge5" class="edge">
<title>Node4&#45;&gt;Node6</title>
<path fill="none" stroke="midnightblue" d="M75.77,-56.08C81.56,-48.46 90.06,-37.26 97.14,-27.94"/>
<polygon fill="midnightblue" stroke="midnightblue" points="100.1,-29.83 103.36,-19.75 94.52,-25.6 100.1,-29.83"/>
</g>
<!-- Node8 -->
<g id="node8" class="node">
<title>Node8</title>
<g id="a_node8"><a xlink:href="sys_2fcntl_8h_source.html" target="_top" xlink:title=" ">
<polygon fill="white" stroke="black" points="113.5,-56.5 113.5,-75.5 180.5,-75.5 180.5,-56.5 113.5,-56.5"/>
<text text-anchor="middle" x="147" y="-63.5" font-family="Helvetica,sans-Serif" font-size="10.00">sys/fcntl.h</text>
</a>
</g>
</g>
<!-- Node7&#45;&gt;Node8 -->
<g id="edge7" class="edge">
<title>Node7&#45;&gt;Node8</title>
<path fill="none" stroke="midnightblue" d="M166.2,-112.08C163.09,-104.77 158.58,-94.18 154.71,-85.1"/>
<polygon fill="midnightblue" stroke="midnightblue" points="157.87,-83.58 150.73,-75.75 151.43,-86.32 157.87,-83.58"/>
</g>
<!-- Node9 -->
<g id="node9" class="node">
<title>Node9</title>
<g id="a_node9"><a xlink:href="unistd_8h_source.html" target="_top" xlink:title=" ">
<polygon fill="white" stroke="black" points="198.5,-56.5 198.5,-75.5 273.5,-75.5 273.5,-56.5 198.5,-56.5"/>
<text text-anchor="middle" x="236" y="-63.5" font-family="Helvetica,sans-Serif" font-size="10.00">sys/unistd.h</text>
</a>
</g>
</g>
<!-- Node7&#45;&gt;Node9 -->
<g id="edge8" class="edge">
<title>Node7&#45;&gt;Node9</title>
<path fill="none" stroke="midnightblue" d="M180.6,-112.32C190.46,-104.26 205.35,-92.08 217.22,-82.37"/>
<polygon fill="midnightblue" stroke="midnightblue" points="219.68,-84.88 225.2,-75.83 215.25,-79.46 219.68,-84.88"/>
</g>
<!-- Node11 -->
<g id="node11" class="node">
<title>Node11</title>
<g id="a_node11"><a xlink:href="time_8h.html" target="_top" xlink:title=" ">
<polygon fill="white" stroke="black" points="292,-56.5 292,-75.5 360,-75.5 360,-56.5 292,-56.5"/>
<text text-anchor="middle" x="326" y="-63.5" font-family="Helvetica,sans-Serif" font-size="10.00">sys/time.h</text>
</a>
</g>
</g>
<!-- Node10&#45;&gt;Node11 -->
<g id="edge10" class="edge">
<title>Node10&#45;&gt;Node11</title>
<path fill="none" stroke="midnightblue" d="M308.47,-112.08C311.31,-104.77 315.43,-94.18 318.96,-85.1"/>
<polygon fill="midnightblue" stroke="midnightblue" points="322.23,-86.34 322.6,-75.75 315.71,-83.8 322.23,-86.34"/>
</g>
</g>
</svg>
