<?xml version="1.0" encoding="UTF-8" standalone="no"?>
<!DOCTYPE svg PUBLIC "-//W3C//DTD SVG 1.1//EN"
 "http://www.w3.org/Graphics/SVG/1.1/DTD/svg11.dtd">
<!-- Generated by graphviz version 9.0.0 (20230911.1827)
 -->
<!-- Title: iop/system/iomanx/src/iomanX.c Pages: 1 -->
<svg width="554pt" height="315pt"
 viewBox="0.00 0.00 554.00 314.75" xmlns="http://www.w3.org/2000/svg" xmlns:xlink="http://www.w3.org/1999/xlink">
<g id="graph0" class="graph" transform="scale(1 1) rotate(0) translate(4 310.75)">
<title>iop/system/iomanx/src/iomanX.c</title>
<!-- Node1 -->
<g id="Node000001" class="node">
<title>Node1</title>
<g id="a_Node000001"><a xlink:title=" ">
<polygon fill="#999999" stroke="#666666" points="274.62,-306.75 161.12,-306.75 161.12,-276.25 274.62,-276.25 274.62,-306.75"/>
<text text-anchor="start" x="169.12" y="-293.25" font-family="Helvetica,sans-Serif" font-size="10.00">iop/system/iomanx/src</text>
<text text-anchor="middle" x="217.88" y="-282" font-family="Helvetica,sans-Serif" font-size="10.00">/iomanX.c</text>
</a>
</g>
</g>
<!-- Node2 -->
<g id="Node000002" class="node">
<title>Node2</title>
<g id="a_Node000002"><a xlink:href="string_8h_source.html" target="_top" xlink:title=" ">
<polygon fill="white" stroke="#666666" points="188.62,-240.25 141.12,-240.25 141.12,-221 188.62,-221 188.62,-240.25"/>
<text text-anchor="middle" x="164.88" y="-226.75" font-family="Helvetica,sans-Serif" font-size="10.00">string.h</text>
</a>
</g>
</g>
<!-- Node1&#45;&gt;Node2 -->
<g id="edge1_Node000001_Node000002" class="edge">
<title>Node1&#45;&gt;Node2</title>
<g id="a_edge1_Node000001_Node000002"><a xlink:title=" ">
<path fill="none" stroke="#63b8ff" d="M204.77,-275.95C197.48,-267.84 188.35,-257.7 180.66,-249.16"/>
<polygon fill="#63b8ff" stroke="#63b8ff" points="183.35,-246.92 174.06,-241.83 178.15,-251.6 183.35,-246.92"/>
</a>
</g>
</g>
<!-- Node8 -->
<g id="Node000008" class="node">
<title>Node8</title>
<g id="a_Node000008"><a xlink:title=" ">
<polygon fill="#e0e0e0" stroke="#999999" points="266.12,-129.75 215.62,-129.75 215.62,-110.5 266.12,-110.5 266.12,-129.75"/>
<text text-anchor="middle" x="240.88" y="-116.25" font-family="Helvetica,sans-Serif" font-size="10.00">stdarg.h</text>
</a>
</g>
</g>
<!-- Node1&#45;&gt;Node8 -->
<g id="edge29_Node000001_Node000008" class="edge">
<title>Node1&#45;&gt;Node8</title>
<g id="a_edge29_Node000001_Node000008"><a xlink:title=" ">
<path fill="none" stroke="#63b8ff" d="M219.88,-275.77C224,-245.37 233.47,-175.69 238.15,-141.21"/>
<polygon fill="#63b8ff" stroke="#63b8ff" points="241.56,-142.11 239.43,-131.73 234.62,-141.17 241.56,-142.11"/>
</a>
</g>
</g>
<!-- Node11 -->
<g id="Node000011" class="node">
<title>Node11</title>
<g id="a_Node000011"><a xlink:title=" ">
<polygon fill="#e0e0e0" stroke="#999999" points="424.25,-240.25 377.5,-240.25 377.5,-221 424.25,-221 424.25,-240.25"/>
<text text-anchor="middle" x="400.88" y="-226.75" font-family="Helvetica,sans-Serif" font-size="10.00">types.h</text>
</a>
</g>
</g>
<!-- Node1&#45;&gt;Node11 -->
<g id="edge12_Node000001_Node000011" class="edge">
<title>Node1&#45;&gt;Node11</title>
<g id="a_edge12_Node000001_Node000011"><a xlink:title=" ">
<path fill="none" stroke="#63b8ff" d="M263.58,-275.8C295.45,-265.54 337.31,-252.08 366.39,-242.72"/>
<polygon fill="#63b8ff" stroke="#63b8ff" points="367.35,-246.09 375.8,-239.69 365.21,-239.42 367.35,-246.09"/>
</a>
</g>
</g>
<!-- Node12 -->
<g id="Node000012" class="node">
<title>Node12</title>
<g id="a_Node000012"><a xlink:href="intrman_8h.html" target="_top" xlink:title=" ">
<polygon fill="white" stroke="#666666" points="55.75,-185 0,-185 0,-165.75 55.75,-165.75 55.75,-185"/>
<text text-anchor="middle" x="27.88" y="-171.5" font-family="Helvetica,sans-Serif" font-size="10.00">intrman.h</text>
</a>
</g>
</g>
<!-- Node1&#45;&gt;Node12 -->
<g id="edge13_Node000001_Node000012" class="edge">
<title>Node1&#45;&gt;Node12</title>
<g id="a_edge13_Node000001_Node000012"><a xlink:title=" ">
<path fill="none" stroke="#63b8ff" d="M183.3,-275.78C162.64,-266.5 136.17,-253.75 113.88,-240.25 89.94,-225.76 64.43,-206.23 47.47,-192.6"/>
<polygon fill="#63b8ff" stroke="#63b8ff" points="49.68,-189.89 39.72,-186.29 45.26,-195.32 49.68,-189.89"/>
</a>
</g>
</g>
<!-- Node13 -->
<g id="Node000013" class="node">
<title>Node13</title>
<g id="a_Node000013"><a xlink:href="stdio_8h.html" target="_top" xlink:title=" ">
<polygon fill="white" stroke="#666666" points="118.12,-185 73.62,-185 73.62,-165.75 118.12,-165.75 118.12,-185"/>
<text text-anchor="middle" x="95.88" y="-171.5" font-family="Helvetica,sans-Serif" font-size="10.00">stdio.h</text>
</a>
</g>
</g>
<!-- Node1&#45;&gt;Node13 -->
<g id="edge16_Node000001_Node000013" class="edge">
<title>Node1&#45;&gt;Node13</title>
<g id="a_edge16_Node000001_Node000013"><a xlink:title=" ">
<path fill="none" stroke="#63b8ff" d="M183.6,-275.76C166.57,-267.2 146.55,-255.16 131.88,-240.25 119.18,-227.35 109.48,-209.08 103.37,-195.38"/>
<polygon fill="#63b8ff" stroke="#63b8ff" points="106.76,-194.43 99.67,-186.56 100.31,-197.13 106.76,-194.43"/>
</a>
</g>
</g>
<!-- Node14 -->
<g id="Node000014" class="node">
<title>Node14</title>
<g id="a_Node000014"><a xlink:href="ioman_x_8h.html" target="_top" xlink:title=" ">
<polygon fill="white" stroke="#666666" points="322.12,-240.25 265.62,-240.25 265.62,-221 322.12,-221 322.12,-240.25"/>
<text text-anchor="middle" x="293.88" y="-226.75" font-family="Helvetica,sans-Serif" font-size="10.00">iomanX.h</text>
</a>
</g>
</g>
<!-- Node1&#45;&gt;Node14 -->
<g id="edge19_Node000001_Node000014" class="edge">
<title>Node1&#45;&gt;Node14</title>
<g id="a_edge19_Node000001_Node000014"><a xlink:title=" ">
<path fill="none" stroke="#63b8ff" d="M236.66,-275.95C247.79,-267.33 261.9,-256.4 273.32,-247.55"/>
<polygon fill="#63b8ff" stroke="#63b8ff" points="275.2,-250.52 280.96,-241.63 270.91,-244.99 275.2,-250.52"/>
</a>
</g>
</g>
<!-- Node15 -->
<g id="Node000015" class="node">
<title>Node15</title>
<g id="a_Node000015"><a xlink:href="errno_8h.html" target="_top" xlink:title=" ">
<polygon fill="white" stroke="#666666" points="534.5,-185 489.25,-185 489.25,-165.75 534.5,-165.75 534.5,-185"/>
<text text-anchor="middle" x="511.88" y="-171.5" font-family="Helvetica,sans-Serif" font-size="10.00">errno.h</text>
</a>
</g>
</g>
<!-- Node1&#45;&gt;Node15 -->
<g id="edge28_Node000001_Node000015" class="edge">
<title>Node1&#45;&gt;Node15</title>
<g id="a_edge28_Node000001_Node000015"><a xlink:title=" ">
<path fill="none" stroke="#63b8ff" d="M252.2,-275.77C274.7,-265.99 304.7,-252.69 330.88,-240.25 347.97,-232.12 351.33,-228.12 368.88,-221 388.77,-212.92 442.5,-196.7 478.13,-186.2"/>
<polygon fill="#63b8ff" stroke="#63b8ff" points="478.94,-189.61 487.55,-183.43 476.97,-182.89 478.94,-189.61"/>
</a>
</g>
</g>
<!-- Node3 -->
<g id="Node000003" class="node">
<title>Node3</title>
<g id="a_Node000003"><a xlink:href="sysclib_8h.html" target="_top" xlink:title=" ">
<polygon fill="white" stroke="#666666" points="189.62,-185 136.12,-185 136.12,-165.75 189.62,-165.75 189.62,-185"/>
<text text-anchor="middle" x="162.88" y="-171.5" font-family="Helvetica,sans-Serif" font-size="10.00">sysclib.h</text>
</a>
</g>
</g>
<!-- Node2&#45;&gt;Node3 -->
<g id="edge2_Node000002_Node000003" class="edge">
<title>Node2&#45;&gt;Node3</title>
<g id="a_edge2_Node000002_Node000003"><a xlink:title=" ">
<path fill="none" stroke="#63b8ff" d="M164.54,-220.83C164.3,-214.24 163.95,-204.96 163.63,-196.57"/>
<polygon fill="#63b8ff" stroke="#63b8ff" points="167.14,-196.73 163.27,-186.87 160.15,-197 167.14,-196.73"/>
</a>
</g>
</g>
<!-- Node4 -->
<g id="Node000004" class="node">
<title>Node4</title>
<g id="a_Node000004"><a xlink:href="iop_2kernel_2include_2types_8h_source.html" target="_top" xlink:title=" ">
<polygon fill="white" stroke="#666666" points="109.25,-74.5 62.5,-74.5 62.5,-55.25 109.25,-55.25 109.25,-74.5"/>
<text text-anchor="middle" x="85.88" y="-61" font-family="Helvetica,sans-Serif" font-size="10.00">types.h</text>
</a>
</g>
</g>
<!-- Node3&#45;&gt;Node4 -->
<g id="edge3_Node000003_Node000004" class="edge">
<title>Node3&#45;&gt;Node4</title>
<g id="a_edge3_Node000003_Node000004"><a xlink:title=" ">
<path fill="none" stroke="#63b8ff" d="M146.04,-165.37C133.01,-157.57 115.45,-145.14 104.88,-129.75 95.94,-116.74 91.13,-99.46 88.59,-86.15"/>
<polygon fill="#63b8ff" stroke="#63b8ff" points="92.06,-85.7 87.03,-76.38 85.15,-86.8 92.06,-85.7"/>
</a>
</g>
</g>
<!-- Node7 -->
<g id="Node000007" class="node">
<title>Node7</title>
<g id="a_Node000007"><a xlink:href="irx_8h.html" target="_top" xlink:title=" ">
<polygon fill="white" stroke="#666666" points="57.5,-129.75 24.25,-129.75 24.25,-110.5 57.5,-110.5 57.5,-129.75"/>
<text text-anchor="middle" x="40.88" y="-116.25" font-family="Helvetica,sans-Serif" font-size="10.00">irx.h</text>
</a>
</g>
</g>
<!-- Node3&#45;&gt;Node7 -->
<g id="edge6_Node000003_Node000007" class="edge">
<title>Node3&#45;&gt;Node7</title>
<g id="a_edge6_Node000003_Node000007"><a xlink:title=" ">
<path fill="none" stroke="#63b8ff" d="M142.18,-165.34C121.82,-156.46 90.63,-142.84 68.24,-133.07"/>
<polygon fill="#63b8ff" stroke="#63b8ff" points="69.69,-129.88 59.12,-129.09 66.89,-136.3 69.69,-129.88"/>
</a>
</g>
</g>
<!-- Node3&#45;&gt;Node8 -->
<g id="edge8_Node000003_Node000008" class="edge">
<title>Node3&#45;&gt;Node8</title>
<g id="a_edge8_Node000003_Node000008"><a xlink:title=" ">
<path fill="none" stroke="#63b8ff" d="M176.11,-165.34C187.65,-157.46 204.64,-145.86 218.32,-136.52"/>
<polygon fill="#63b8ff" stroke="#63b8ff" points="220.04,-139.58 226.33,-131.06 216.1,-133.8 220.04,-139.58"/>
</a>
</g>
</g>
<!-- Node9 -->
<g id="Node000009" class="node">
<title>Node9</title>
<g id="a_Node000009"><a xlink:href="setjmp_8h.html" target="_top" xlink:title=" ">
<polygon fill="white" stroke="#666666" points="207.25,-74.5 154.5,-74.5 154.5,-55.25 207.25,-55.25 207.25,-74.5"/>
<text text-anchor="middle" x="180.88" y="-61" font-family="Helvetica,sans-Serif" font-size="10.00">setjmp.h</text>
</a>
</g>
</g>
<!-- Node3&#45;&gt;Node9 -->
<g id="edge9_Node000003_Node000009" class="edge">
<title>Node3&#45;&gt;Node9</title>
<g id="a_edge9_Node000003_Node000009"><a xlink:title=" ">
<path fill="none" stroke="#63b8ff" d="M164.35,-165.5C167.21,-148.25 173.58,-109.83 177.53,-86.06"/>
<polygon fill="#63b8ff" stroke="#63b8ff" points="180.95,-86.81 179.13,-76.37 174.04,-85.66 180.95,-86.81"/>
</a>
</g>
</g>
<!-- Node10 -->
<g id="Node000010" class="node">
<title>Node10</title>
<g id="a_Node000010"><a xlink:href="ctype_8h.html" target="_top" xlink:title=" ">
<polygon fill="white" stroke="#666666" points="160.25,-129.75 113.5,-129.75 113.5,-110.5 160.25,-110.5 160.25,-129.75"/>
<text text-anchor="middle" x="136.88" y="-116.25" font-family="Helvetica,sans-Serif" font-size="10.00">ctype.h</text>
</a>
</g>
</g>
<!-- Node3&#45;&gt;Node10 -->
<g id="edge11_Node000003_Node000010" class="edge">
<title>Node3&#45;&gt;Node10</title>
<g id="a_edge11_Node000003_Node000010"><a xlink:title=" ">
<path fill="none" stroke="#63b8ff" d="M158.58,-165.58C155.25,-158.76 150.51,-149.06 146.31,-140.45"/>
<polygon fill="#63b8ff" stroke="#63b8ff" points="149.46,-138.92 141.93,-131.47 143.17,-141.99 149.46,-138.92"/>
</a>
</g>
</g>
<!-- Node5 -->
<g id="Node000005" class="node">
<title>Node5</title>
<g id="a_Node000005"><a xlink:title=" ">
<polygon fill="#e0e0e0" stroke="#999999" points="111.12,-19.25 60.62,-19.25 60.62,0 111.12,0 111.12,-19.25"/>
<text text-anchor="middle" x="85.88" y="-5.75" font-family="Helvetica,sans-Serif" font-size="10.00">stddef.h</text>
</a>
</g>
</g>
<!-- Node4&#45;&gt;Node5 -->
<g id="edge4_Node000004_Node000005" class="edge">
<title>Node4&#45;&gt;Node5</title>
<g id="a_edge4_Node000004_Node000005"><a xlink:title=" ">
<path fill="none" stroke="#63b8ff" d="M85.88,-55.08C85.88,-48.57 85.88,-39.42 85.88,-31.12"/>
<polygon fill="#63b8ff" stroke="#63b8ff" points="89.38,-31.12 85.88,-21.12 82.38,-31.12 89.38,-31.12"/>
</a>
</g>
</g>
<!-- Node6 -->
<g id="Node000006" class="node">
<title>Node6</title>
<g id="a_Node000006"><a xlink:href="tamtypes_8h.html" target="_top" xlink:title=" ">
<polygon fill="white" stroke="#666666" points="205.5,-19.25 142.25,-19.25 142.25,0 205.5,0 205.5,-19.25"/>
<text text-anchor="middle" x="173.88" y="-5.75" font-family="Helvetica,sans-Serif" font-size="10.00">tamtypes.h</text>
</a>
</g>
</g>
<!-- Node4&#45;&gt;Node6 -->
<g id="edge5_Node000004_Node000006" class="edge">
<title>Node4&#45;&gt;Node6</title>
<g id="a_edge5_Node000004_Node000006"><a xlink:title=" ">
<path fill="none" stroke="#63b8ff" d="M100.8,-54.84C114.08,-46.81 133.74,-34.91 149.33,-25.48"/>
<polygon fill="#63b8ff" stroke="#63b8ff" points="150.84,-28.66 157.58,-20.49 147.21,-22.67 150.84,-28.66"/>
</a>
</g>
</g>
<!-- Node7&#45;&gt;Node4 -->
<g id="edge7_Node000007_Node000004" class="edge">
<title>Node7&#45;&gt;Node4</title>
<g id="a_edge7_Node000007_Node000004"><a xlink:title=" ">
<path fill="none" stroke="#63b8ff" d="M48.31,-110.33C54.46,-103.05 63.39,-92.48 71,-83.48"/>
<polygon fill="#63b8ff" stroke="#63b8ff" points="73.52,-85.91 77.31,-76.02 68.18,-81.39 73.52,-85.91"/>
</a>
</g>
</g>
<!-- Node9&#45;&gt;Node6 -->
<g id="edge10_Node000009_Node000006" class="edge">
<title>Node9&#45;&gt;Node6</title>
<g id="a_edge10_Node000009_Node000006"><a xlink:title=" ">
<path fill="none" stroke="#63b8ff" d="M179.72,-55.08C178.85,-48.49 177.63,-39.21 176.53,-30.82"/>
<polygon fill="#63b8ff" stroke="#63b8ff" points="180.03,-30.57 175.25,-21.11 173.09,-31.48 180.03,-30.57"/>
</a>
</g>
</g>
<!-- Node12&#45;&gt;Node4 -->
<g id="edge14_Node000012_Node000004" class="edge">
<title>Node12&#45;&gt;Node4</title>
<g id="a_edge14_Node000012_Node000004"><a xlink:title=" ">
<path fill="none" stroke="#63b8ff" d="M22.51,-165.54C15.45,-152.66 5.02,-128.33 14.88,-110.5 22.84,-96.08 37.64,-85.69 51.67,-78.58"/>
<polygon fill="#63b8ff" stroke="#63b8ff" points="53.13,-81.77 60.75,-74.41 50.2,-75.41 53.13,-81.77"/>
</a>
</g>
</g>
<!-- Node12&#45;&gt;Node7 -->
<g id="edge15_Node000012_Node000007" class="edge">
<title>Node12&#45;&gt;Node7</title>
<g id="a_edge15_Node000012_Node000007"><a xlink:title=" ">
<path fill="none" stroke="#63b8ff" d="M30.02,-165.58C31.65,-158.92 33.95,-149.49 36.02,-141.03"/>
<polygon fill="#63b8ff" stroke="#63b8ff" points="39.35,-142.12 38.32,-131.58 32.55,-140.46 39.35,-142.12"/>
</a>
</g>
</g>
<!-- Node13&#45;&gt;Node7 -->
<g id="edge18_Node000013_Node000007" class="edge">
<title>Node13&#45;&gt;Node7</title>
<g id="a_edge18_Node000013_Node000007"><a xlink:title=" ">
<path fill="none" stroke="#63b8ff" d="M86.79,-165.58C79.04,-158.07 67.66,-147.06 58.18,-137.88"/>
<polygon fill="#63b8ff" stroke="#63b8ff" points="60.86,-135.6 51.24,-131.16 55.99,-140.63 60.86,-135.6"/>
</a>
</g>
</g>
<!-- Node13&#45;&gt;Node8 -->
<g id="edge17_Node000013_Node000008" class="edge">
<title>Node13&#45;&gt;Node8</title>
<g id="a_edge17_Node000013_Node000008"><a xlink:title=" ">
<path fill="none" stroke="#63b8ff" d="M118.53,-166.05C141.91,-157.47 178.7,-143.96 205.84,-133.99"/>
<polygon fill="#63b8ff" stroke="#63b8ff" points="206.84,-137.35 215.02,-130.62 204.43,-130.78 206.84,-137.35"/>
</a>
</g>
</g>
<!-- Node14&#45;&gt;Node4 -->
<g id="edge20_Node000014_Node000004" class="edge">
<title>Node14&#45;&gt;Node4</title>
<g id="a_edge20_Node000014_Node000004"><a xlink:title=" ">
<path fill="none" stroke="#63b8ff" d="M295.44,-220.75C298.75,-198.86 303.95,-141.8 274.88,-110.5 264.39,-99.21 172.55,-81.3 120.85,-71.97"/>
<polygon fill="#63b8ff" stroke="#63b8ff" points="121.51,-68.53 111.05,-70.22 120.28,-75.42 121.51,-68.53"/>
</a>
</g>
</g>
<!-- Node14&#45;&gt;Node8 -->
<g id="edge22_Node000014_Node000008" class="edge">
<title>Node14&#45;&gt;Node8</title>
<g id="a_edge22_Node000014_Node000008"><a xlink:title=" ">
<path fill="none" stroke="#63b8ff" d="M289.54,-220.75C281,-203.26 261.83,-164.02 250.26,-140.34"/>
<polygon fill="#63b8ff" stroke="#63b8ff" points="253.47,-138.94 245.94,-131.49 247.18,-142.01 253.47,-138.94"/>
</a>
</g>
</g>
<!-- Node14&#45;&gt;Node15 -->
<g id="edge21_Node000014_Node000015" class="edge">
<title>Node14&#45;&gt;Node15</title>
<g id="a_edge21_Node000014_Node000015"><a xlink:title=" ">
<path fill="none" stroke="#63b8ff" d="M322.47,-223.15C357.14,-215.22 417.61,-201.15 478.01,-185.68"/>
<polygon fill="#63b8ff" stroke="#63b8ff" points="478.6,-189.14 487.41,-183.25 476.85,-182.36 478.6,-189.14"/>
</a>
</g>
</g>
<!-- Node16 -->
<g id="Node000016" class="node">
<title>Node16</title>
<g id="a_Node000016"><a xlink:href="io__common_8h.html" target="_top" xlink:title=" ">
<polygon fill="white" stroke="#666666" points="395.75,-185 322,-185 322,-165.75 395.75,-165.75 395.75,-185"/>
<text text-anchor="middle" x="358.88" y="-171.5" font-family="Helvetica,sans-Serif" font-size="10.00">io_common.h</text>
</a>
</g>
</g>
<!-- Node14&#45;&gt;Node16 -->
<g id="edge23_Node000014_Node000016" class="edge">
<title>Node14&#45;&gt;Node16</title>
<g id="a_edge23_Node000014_Node000016"><a xlink:title=" ">
<path fill="none" stroke="#63b8ff" d="M304.9,-220.59C314.3,-212.9 328.02,-201.65 339.28,-192.43"/>
<polygon fill="#63b8ff" stroke="#63b8ff" points="341.32,-195.28 346.84,-186.23 336.89,-189.86 341.32,-195.28"/>
</a>
</g>
</g>
<!-- Node19 -->
<g id="Node000019" class="node">
<title>Node19</title>
<g id="a_Node000019"><a xlink:href="iox__stat_8h.html" target="_top" xlink:title=" ">
<polygon fill="white" stroke="#666666" points="471.5,-185 414.25,-185 414.25,-165.75 471.5,-165.75 471.5,-185"/>
<text text-anchor="middle" x="442.88" y="-171.5" font-family="Helvetica,sans-Serif" font-size="10.00">iox_stat.h</text>
</a>
</g>
</g>
<!-- Node14&#45;&gt;Node19 -->
<g id="edge26_Node000014_Node000019" class="edge">
<title>Node14&#45;&gt;Node19</title>
<g id="a_edge26_Node000014_Node000019"><a xlink:title=" ">
<path fill="none" stroke="#63b8ff" d="M319.15,-220.59C343.23,-211.99 379.73,-198.94 406.86,-189.25"/>
<polygon fill="#63b8ff" stroke="#63b8ff" points="407.81,-192.62 416.05,-185.96 405.46,-186.03 407.81,-192.62"/>
</a>
</g>
</g>
<!-- Node17 -->
<g id="Node000017" class="node">
<title>Node17</title>
<g id="a_Node000017"><a xlink:href="fcntl_8h_source.html" target="_top" xlink:title=" ">
<polygon fill="white" stroke="#666666" points="468,-129.75 407.75,-129.75 407.75,-110.5 468,-110.5 468,-129.75"/>
<text text-anchor="middle" x="437.88" y="-116.25" font-family="Helvetica,sans-Serif" font-size="10.00">sys/fcntl.h</text>
</a>
</g>
</g>
<!-- Node16&#45;&gt;Node17 -->
<g id="edge24_Node000016_Node000017" class="edge">
<title>Node16&#45;&gt;Node17</title>
<g id="a_edge24_Node000016_Node000017"><a xlink:title=" ">
<path fill="none" stroke="#63b8ff" d="M372.28,-165.34C383.97,-157.46 401.18,-145.86 415.04,-136.52"/>
<polygon fill="#63b8ff" stroke="#63b8ff" points="416.82,-139.54 423.15,-131.05 412.9,-133.74 416.82,-139.54"/>
</a>
</g>
</g>
<!-- Node18 -->
<g id="Node000018" class="node">
<title>Node18</title>
<g id="a_Node000018"><a xlink:href="unistd_8h_source.html" target="_top" xlink:title=" ">
<polygon fill="white" stroke="#666666" points="389.75,-129.75 322,-129.75 322,-110.5 389.75,-110.5 389.75,-129.75"/>
<text text-anchor="middle" x="355.88" y="-116.25" font-family="Helvetica,sans-Serif" font-size="10.00">sys/unistd.h</text>
</a>
</g>
</g>
<!-- Node16&#45;&gt;Node18 -->
<g id="edge25_Node000016_Node000018" class="edge">
<title>Node16&#45;&gt;Node18</title>
<g id="a_edge25_Node000016_Node000018"><a xlink:title=" ">
<path fill="none" stroke="#63b8ff" d="M358.38,-165.58C358.01,-158.99 357.49,-149.71 357.01,-141.32"/>
<polygon fill="#63b8ff" stroke="#63b8ff" points="360.52,-141.41 356.47,-131.62 353.53,-141.8 360.52,-141.41"/>
</a>
</g>
</g>
<!-- Node20 -->
<g id="Node000020" class="node">
<title>Node20</title>
<g id="a_Node000020"><a xlink:href="time_8h.html" target="_top" xlink:title=" ">
<polygon fill="white" stroke="#666666" points="546,-129.75 485.75,-129.75 485.75,-110.5 546,-110.5 546,-129.75"/>
<text text-anchor="middle" x="515.88" y="-116.25" font-family="Helvetica,sans-Serif" font-size="10.00">sys/time.h</text>
</a>
</g>
</g>
<!-- Node19&#45;&gt;Node20 -->
<g id="edge27_Node000019_Node000020" class="edge">
<title>Node19&#45;&gt;Node20</title>
<g id="a_edge27_Node000019_Node000020"><a xlink:title=" ">
<path fill="none" stroke="#63b8ff" d="M455.26,-165.34C466.02,-157.49 481.85,-145.95 494.63,-136.62"/>
<polygon fill="#63b8ff" stroke="#63b8ff" points="496.44,-139.64 502.45,-130.92 492.31,-133.98 496.44,-139.64"/>
</a>
</g>
</g>
</g>
</svg>
