<?xml version="1.0" encoding="UTF-8" standalone="no"?>
<!DOCTYPE svg PUBLIC "-//W3C//DTD SVG 1.1//EN"
 "http://www.w3.org/Graphics/SVG/1.1/DTD/svg11.dtd">
<!-- Generated by graphviz version 2.43.0 (0)
 -->
<!-- Title: common/include/iop_mmio_hwport.h Pages: 1 -->
<svg width="1216pt" height="106pt"
 viewBox="0.00 0.00 1216.00 106.00" xmlns="http://www.w3.org/2000/svg" xmlns:xlink="http://www.w3.org/1999/xlink">
<g id="graph0" class="graph" transform="scale(1 1) rotate(0) translate(4 102)">
<title>common/include/iop_mmio_hwport.h</title>
<polygon fill="white" stroke="transparent" points="-4,4 -4,-102 1212,-102 1212,4 -4,4"/>
<!-- Node1 -->
<g id="node1" class="node">
<title>Node1</title>
<g id="a_node1"><a xlink:title=" ">
<polygon fill="#bfbfbf" stroke="black" points="553,-67.5 553,-97.5 669,-97.5 669,-67.5 553,-67.5"/>
<text text-anchor="start" x="561" y="-85.5" font-family="Helvetica,sans-Serif" font-size="10.00">common/include/iop</text>
<text text-anchor="middle" x="611" y="-74.5" font-family="Helvetica,sans-Serif" font-size="10.00">_mmio_hwport.h</text>
</a>
</g>
</g>
<!-- Node2 -->
<g id="node2" class="node">
<title>Node2</title>
<g id="a_node2"><a xlink:href="s147nand_8c_source.html" target="_top" xlink:title=" ">
<polygon fill="white" stroke="black" points="0,-0.5 0,-30.5 118,-30.5 118,-0.5 0,-0.5"/>
<text text-anchor="start" x="8" y="-18.5" font-family="Helvetica,sans-Serif" font-size="10.00">iop/arcade/s147nand</text>
<text text-anchor="middle" x="59" y="-7.5" font-family="Helvetica,sans-Serif" font-size="10.00">/src/s147nand.c</text>
</a>
</g>
</g>
<!-- Node1&#45;&gt;Node2 -->
<g id="edge1" class="edge">
<title>Node1&#45;&gt;Node2</title>
<path fill="none" stroke="midnightblue" d="M542.39,-76.65C448.32,-69.47 274.19,-54.3 127,-31 124.14,-30.55 121.22,-30.05 118.27,-29.53"/>
<polygon fill="midnightblue" stroke="midnightblue" points="542.39,-80.16 552.63,-77.42 542.92,-73.18 542.39,-80.16"/>
</g>
<!-- Node3 -->
<g id="node3" class="node">
<title>Node3</title>
<g id="a_node3"><a xlink:href="cdvdman_8c_source.html" target="_top" xlink:title=" ">
<polygon fill="white" stroke="black" points="136.5,-0.5 136.5,-30.5 259.5,-30.5 259.5,-0.5 136.5,-0.5"/>
<text text-anchor="start" x="144.5" y="-18.5" font-family="Helvetica,sans-Serif" font-size="10.00">iop/cdvd/cdvdman/src</text>
<text text-anchor="middle" x="198" y="-7.5" font-family="Helvetica,sans-Serif" font-size="10.00">/cdvdman.c</text>
</a>
</g>
</g>
<!-- Node1&#45;&gt;Node3 -->
<g id="edge2" class="edge">
<title>Node1&#45;&gt;Node3</title>
<path fill="none" stroke="midnightblue" d="M542.43,-72.5C473.25,-63.16 363.46,-47.61 269,-31 265.9,-30.46 262.73,-29.88 259.53,-29.28"/>
<polygon fill="midnightblue" stroke="midnightblue" points="542.37,-76.03 552.75,-73.89 543.31,-69.09 542.37,-76.03"/>
</g>
<!-- Node4 -->
<g id="node4" class="node">
<title>Node4</title>
<g id="a_node4"><a xlink:href="boardinf_8c_source.html" target="_top" xlink:title=" ">
<polygon fill="white" stroke="black" points="278,-0.5 278,-30.5 392,-30.5 392,-0.5 278,-0.5"/>
<text text-anchor="start" x="286" y="-18.5" font-family="Helvetica,sans-Serif" font-size="10.00">iop/system/boardinf</text>
<text text-anchor="middle" x="335" y="-7.5" font-family="Helvetica,sans-Serif" font-size="10.00">/src/boardinf.c</text>
</a>
</g>
</g>
<!-- Node1&#45;&gt;Node4 -->
<g id="edge3" class="edge">
<title>Node1&#45;&gt;Node4</title>
<path fill="none" stroke="midnightblue" d="M542.85,-65.45C496.54,-54.54 435.97,-40.28 392.17,-29.96"/>
<polygon fill="midnightblue" stroke="midnightblue" points="542.27,-68.91 552.8,-67.79 543.87,-62.1 542.27,-68.91"/>
</g>
<!-- Node5 -->
<g id="node5" class="node">
<title>Node5</title>
<g id="a_node5"><a xlink:href="eeconf_8c_source.html" target="_top" xlink:title=" ">
<polygon fill="white" stroke="black" points="410,-0.5 410,-30.5 534,-30.5 534,-0.5 410,-0.5"/>
<text text-anchor="start" x="418" y="-18.5" font-family="Helvetica,sans-Serif" font-size="10.00">iop/system/eeconf/src</text>
<text text-anchor="middle" x="472" y="-7.5" font-family="Helvetica,sans-Serif" font-size="10.00">/eeconf.c</text>
</a>
</g>
</g>
<!-- Node1&#45;&gt;Node5 -->
<g id="edge4" class="edge">
<title>Node1&#45;&gt;Node5</title>
<path fill="none" stroke="midnightblue" d="M571.72,-63.13C549.63,-52.8 522.49,-40.11 502.1,-30.58"/>
<polygon fill="midnightblue" stroke="midnightblue" points="570.3,-66.33 580.84,-67.4 573.26,-59.99 570.3,-66.33"/>
</g>
<!-- Node6 -->
<g id="node6" class="node">
<title>Node6</title>
<g id="a_node6"><a xlink:href="igreeting_8c_source.html" target="_top" xlink:title=" ">
<polygon fill="white" stroke="black" points="552.5,-0.5 552.5,-30.5 669.5,-30.5 669.5,-0.5 552.5,-0.5"/>
<text text-anchor="start" x="560.5" y="-18.5" font-family="Helvetica,sans-Serif" font-size="10.00">iop/system/igreeting</text>
<text text-anchor="middle" x="611" y="-7.5" font-family="Helvetica,sans-Serif" font-size="10.00">/src/igreeting.c</text>
</a>
</g>
</g>
<!-- Node1&#45;&gt;Node6 -->
<g id="edge5" class="edge">
<title>Node1&#45;&gt;Node6</title>
<path fill="none" stroke="midnightblue" d="M611,-57.11C611,-48.15 611,-38.32 611,-30.58"/>
<polygon fill="midnightblue" stroke="midnightblue" points="607.5,-57.4 611,-67.4 614.5,-57.4 607.5,-57.4"/>
</g>
<!-- Node7 -->
<g id="node7" class="node">
<title>Node7</title>
<g id="a_node7"><a xlink:href="intrman_8c_source.html" target="_top" xlink:title=" ">
<polygon fill="white" stroke="black" points="688,-0.5 688,-30.5 800,-30.5 800,-0.5 688,-0.5"/>
<text text-anchor="start" x="696" y="-18.5" font-family="Helvetica,sans-Serif" font-size="10.00">iop/system/intrman</text>
<text text-anchor="middle" x="744" y="-7.5" font-family="Helvetica,sans-Serif" font-size="10.00">/src/intrman.c</text>
</a>
</g>
</g>
<!-- Node1&#45;&gt;Node7 -->
<g id="edge6" class="edge">
<title>Node1&#45;&gt;Node7</title>
<path fill="none" stroke="midnightblue" d="M648.87,-62.99C669.95,-52.69 695.78,-40.07 715.2,-30.58"/>
<polygon fill="midnightblue" stroke="midnightblue" points="647.31,-59.86 639.86,-67.4 650.38,-66.15 647.31,-59.86"/>
</g>
<!-- Node8 -->
<g id="node8" class="node">
<title>Node8</title>
<g id="a_node8"><a xlink:href="rmreset_8c_source.html" target="_top" xlink:title=" ">
<polygon fill="white" stroke="black" points="818,-0.5 818,-30.5 930,-30.5 930,-0.5 818,-0.5"/>
<text text-anchor="start" x="826" y="-18.5" font-family="Helvetica,sans-Serif" font-size="10.00">iop/system/rmreset</text>
<text text-anchor="middle" x="874" y="-7.5" font-family="Helvetica,sans-Serif" font-size="10.00">/src/rmreset.c</text>
</a>
</g>
</g>
<!-- Node1&#45;&gt;Node8 -->
<g id="edge7" class="edge">
<title>Node1&#45;&gt;Node8</title>
<path fill="none" stroke="midnightblue" d="M677.62,-65.03C720.93,-54.33 776.76,-40.53 817.81,-30.39"/>
<polygon fill="midnightblue" stroke="midnightblue" points="676.61,-61.68 667.74,-67.48 678.29,-68.47 676.61,-61.68"/>
</g>
<!-- Node9 -->
<g id="node9" class="node">
<title>Node9</title>
<g id="a_node9"><a xlink:href="sifman_8c_source.html" target="_top" xlink:title=" ">
<polygon fill="white" stroke="black" points="948.5,-0.5 948.5,-30.5 1073.5,-30.5 1073.5,-0.5 948.5,-0.5"/>
<text text-anchor="start" x="956.5" y="-18.5" font-family="Helvetica,sans-Serif" font-size="10.00">iop/system/sifman/src</text>
<text text-anchor="middle" x="1011" y="-7.5" font-family="Helvetica,sans-Serif" font-size="10.00">/sifman.c</text>
</a>
</g>
</g>
<!-- Node1&#45;&gt;Node9 -->
<g id="edge8" class="edge">
<title>Node1&#45;&gt;Node9</title>
<path fill="none" stroke="midnightblue" d="M679.13,-71.94C745.57,-62.4 849.43,-46.91 939,-31 942.01,-30.46 945.09,-29.9 948.2,-29.32"/>
<polygon fill="midnightblue" stroke="midnightblue" points="678.6,-68.48 669.2,-73.36 679.59,-75.41 678.6,-68.48"/>
</g>
<!-- Node10 -->
<g id="node10" class="node">
<title>Node10</title>
<g id="a_node10"><a xlink:href="sio2man_8c.html" target="_top" xlink:title=" ">
<polygon fill="white" stroke="black" points="1092,-0.5 1092,-30.5 1208,-30.5 1208,-0.5 1092,-0.5"/>
<text text-anchor="start" x="1100" y="-18.5" font-family="Helvetica,sans-Serif" font-size="10.00">iop/system/sio2man</text>
<text text-anchor="middle" x="1150" y="-7.5" font-family="Helvetica,sans-Serif" font-size="10.00">/src/sio2man.c</text>
</a>
</g>
</g>
<!-- Node1&#45;&gt;Node10 -->
<g id="edge9" class="edge">
<title>Node1&#45;&gt;Node10</title>
<path fill="none" stroke="midnightblue" d="M679.05,-76.51C771.05,-69.24 940.08,-54.04 1083,-31 1085.94,-30.53 1088.94,-30.01 1091.97,-29.46"/>
<polygon fill="midnightblue" stroke="midnightblue" points="678.73,-73.02 669.03,-77.29 679.27,-80 678.73,-73.02"/>
</g>
</g>
</svg>
