<?xml version="1.0" encoding="UTF-8" standalone="no"?>
<!DOCTYPE svg PUBLIC "-//W3C//DTD SVG 1.1//EN"
 "http://www.w3.org/Graphics/SVG/1.1/DTD/svg11.dtd">
<!-- Generated by graphviz version 9.0.0 (20230911.1827)
 -->
<!-- Title: iop/system/iopmgr/src/main.c Pages: 1 -->
<svg width="547pt" height="315pt"
 viewBox="0.00 0.00 547.25 314.75" xmlns="http://www.w3.org/2000/svg" xmlns:xlink="http://www.w3.org/1999/xlink">
<g id="graph0" class="graph" transform="scale(1 1) rotate(0) translate(4 310.75)">
<title>iop/system/iopmgr/src/main.c</title>
<!-- Node1 -->
<g id="Node000001" class="node">
<title>Node1</title>
<g id="a_Node000001"><a xlink:title=" ">
<polygon fill="#999999" stroke="#666666" points="253.12,-306.75 141.12,-306.75 141.12,-276.25 253.12,-276.25 253.12,-306.75"/>
<text text-anchor="start" x="149.12" y="-293.25" font-family="Helvetica,sans-Serif" font-size="10.00">iop/system/iopmgr/src</text>
<text text-anchor="middle" x="197.12" y="-282" font-family="Helvetica,sans-Serif" font-size="10.00">/main.c</text>
</a>
</g>
</g>
<!-- Node2 -->
<g id="Node000002" class="node">
<title>Node2</title>
<g id="a_Node000002"><a xlink:title=" ">
<polygon fill="#e0e0e0" stroke="#999999" points="79.5,-185 32.75,-185 32.75,-165.75 79.5,-165.75 79.5,-185"/>
<text text-anchor="middle" x="56.12" y="-171.5" font-family="Helvetica,sans-Serif" font-size="10.00">types.h</text>
</a>
</g>
</g>
<!-- Node1&#45;&gt;Node2 -->
<g id="edge1_Node000001_Node000002" class="edge">
<title>Node1&#45;&gt;Node2</title>
<g id="a_edge1_Node000001_Node000002"><a xlink:title=" ">
<path fill="none" stroke="#63b8ff" d="M178.98,-275.81C152.5,-254.38 103.44,-214.67 76.01,-192.47"/>
<polygon fill="#63b8ff" stroke="#63b8ff" points="78.43,-189.93 68.46,-186.36 74.03,-195.37 78.43,-189.93"/>
</a>
</g>
</g>
<!-- Node3 -->
<g id="Node000003" class="node">
<title>Node3</title>
<g id="a_Node000003"><a xlink:href="defs_8h.html" target="_top" xlink:title=" ">
<polygon fill="white" stroke="#666666" points="42.25,-240.25 0,-240.25 0,-221 42.25,-221 42.25,-240.25"/>
<text text-anchor="middle" x="21.12" y="-226.75" font-family="Helvetica,sans-Serif" font-size="10.00">defs.h</text>
</a>
</g>
</g>
<!-- Node1&#45;&gt;Node3 -->
<g id="edge2_Node000001_Node000003" class="edge">
<title>Node1&#45;&gt;Node3</title>
<g id="a_edge2_Node000001_Node000003"><a xlink:title=" ">
<path fill="none" stroke="#63b8ff" d="M153.17,-275.8C122.2,-265.44 81.44,-251.8 53.44,-242.44"/>
<polygon fill="#63b8ff" stroke="#63b8ff" points="54.68,-239.16 44.09,-239.31 52.46,-245.8 54.68,-239.16"/>
</a>
</g>
</g>
<!-- Node7 -->
<g id="Node000007" class="node">
<title>Node7</title>
<g id="a_Node000007"><a xlink:href="irx_8h.html" target="_top" xlink:title=" ">
<polygon fill="white" stroke="#666666" points="225.75,-129.75 192.5,-129.75 192.5,-110.5 225.75,-110.5 225.75,-129.75"/>
<text text-anchor="middle" x="209.12" y="-116.25" font-family="Helvetica,sans-Serif" font-size="10.00">irx.h</text>
</a>
</g>
</g>
<!-- Node1&#45;&gt;Node7 -->
<g id="edge6_Node000001_Node000007" class="edge">
<title>Node1&#45;&gt;Node7</title>
<g id="a_edge6_Node000001_Node000007"><a xlink:title=" ">
<path fill="none" stroke="#63b8ff" d="M199.91,-276.05C201.73,-266.04 203.96,-252.38 205.12,-240.25 208.45,-205.66 209.13,-165.2 209.21,-141.45"/>
<polygon fill="#63b8ff" stroke="#63b8ff" points="212.71,-141.63 209.2,-131.63 205.71,-141.63 212.71,-141.63"/>
</a>
</g>
</g>
<!-- Node8 -->
<g id="Node000008" class="node">
<title>Node8</title>
<g id="a_Node000008"><a xlink:href="ioman_x_8h.html" target="_top" xlink:title=" ">
<polygon fill="white" stroke="#666666" points="439.38,-185 382.88,-185 382.88,-165.75 439.38,-165.75 439.38,-185"/>
<text text-anchor="middle" x="411.12" y="-171.5" font-family="Helvetica,sans-Serif" font-size="10.00">iomanX.h</text>
</a>
</g>
</g>
<!-- Node1&#45;&gt;Node8 -->
<g id="edge8_Node000001_Node000008" class="edge">
<title>Node1&#45;&gt;Node8</title>
<g id="a_edge8_Node000001_Node000008"><a xlink:title=" ">
<path fill="none" stroke="#63b8ff" d="M224.66,-275.81C265.91,-253.82 343.23,-212.58 384.15,-190.76"/>
<polygon fill="#63b8ff" stroke="#63b8ff" points="385.68,-193.91 392.86,-186.12 382.39,-187.74 385.68,-193.91"/>
</a>
</g>
</g>
<!-- Node15 -->
<g id="Node000015" class="node">
<title>Node15</title>
<g id="a_Node000015"><a xlink:href="stdio_8h.html" target="_top" xlink:title=" ">
<polygon fill="white" stroke="#666666" points="364.38,-185 319.88,-185 319.88,-165.75 364.38,-165.75 364.38,-185"/>
<text text-anchor="middle" x="342.12" y="-171.5" font-family="Helvetica,sans-Serif" font-size="10.00">stdio.h</text>
</a>
</g>
</g>
<!-- Node1&#45;&gt;Node15 -->
<g id="edge16_Node000001_Node000015" class="edge">
<title>Node1&#45;&gt;Node15</title>
<g id="a_edge16_Node000001_Node000015"><a xlink:title=" ">
<path fill="none" stroke="#63b8ff" d="M215.78,-275.81C243.02,-254.38 293.46,-214.67 321.68,-192.47"/>
<polygon fill="#63b8ff" stroke="#63b8ff" points="323.77,-195.28 329.46,-186.34 319.44,-189.78 323.77,-195.28"/>
</a>
</g>
</g>
<!-- Node16 -->
<g id="Node000016" class="node">
<title>Node16</title>
<g id="a_Node000016"><a xlink:href="iopmgr_8h.html" target="_top" xlink:title=" ">
<polygon fill="white" stroke="#666666" points="196.5,-240.25 143.75,-240.25 143.75,-221 196.5,-221 196.5,-240.25"/>
<text text-anchor="middle" x="170.12" y="-226.75" font-family="Helvetica,sans-Serif" font-size="10.00">iopmgr.h</text>
</a>
</g>
</g>
<!-- Node1&#45;&gt;Node16 -->
<g id="edge19_Node000001_Node000016" class="edge">
<title>Node1&#45;&gt;Node16</title>
<g id="a_edge19_Node000001_Node000016"><a xlink:title=" ">
<path fill="none" stroke="#63b8ff" d="M190.45,-275.95C187.01,-268.45 182.77,-259.2 179.05,-251.1"/>
<polygon fill="#63b8ff" stroke="#63b8ff" points="182.27,-249.71 174.92,-242.08 175.91,-252.63 182.27,-249.71"/>
</a>
</g>
</g>
<!-- Node4 -->
<g id="Node000004" class="node">
<title>Node4</title>
<g id="a_Node000004"><a xlink:href="iop_2kernel_2include_2types_8h_source.html" target="_top" xlink:title=" ">
<polygon fill="white" stroke="#666666" points="232.5,-74.5 185.75,-74.5 185.75,-55.25 232.5,-55.25 232.5,-74.5"/>
<text text-anchor="middle" x="209.12" y="-61" font-family="Helvetica,sans-Serif" font-size="10.00">types.h</text>
</a>
</g>
</g>
<!-- Node3&#45;&gt;Node4 -->
<g id="edge3_Node000003_Node000004" class="edge">
<title>Node3&#45;&gt;Node4</title>
<g id="a_edge3_Node000003_Node000004"><a xlink:title=" ">
<path fill="none" stroke="#63b8ff" d="M18.95,-220.55C16.33,-207.37 13.49,-182.67 24.12,-165.75 57.84,-112.14 130.82,-85.32 174.37,-73.61"/>
<polygon fill="#63b8ff" stroke="#63b8ff" points="175,-77.06 183.82,-71.19 173.27,-70.27 175,-77.06"/>
</a>
</g>
</g>
<!-- Node5 -->
<g id="Node000005" class="node">
<title>Node5</title>
<g id="a_Node000005"><a xlink:title=" ">
<polygon fill="#e0e0e0" stroke="#999999" points="197.38,-19.25 146.88,-19.25 146.88,0 197.38,0 197.38,-19.25"/>
<text text-anchor="middle" x="172.12" y="-5.75" font-family="Helvetica,sans-Serif" font-size="10.00">stddef.h</text>
</a>
</g>
</g>
<!-- Node4&#45;&gt;Node5 -->
<g id="edge4_Node000004_Node000005" class="edge">
<title>Node4&#45;&gt;Node5</title>
<g id="a_edge4_Node000004_Node000005"><a xlink:title=" ">
<path fill="none" stroke="#63b8ff" d="M203.02,-55.08C198.06,-47.96 190.92,-37.68 184.75,-28.8"/>
<polygon fill="#63b8ff" stroke="#63b8ff" points="187.81,-27.07 179.23,-20.85 182.06,-31.06 187.81,-27.07"/>
</a>
</g>
</g>
<!-- Node6 -->
<g id="Node000006" class="node">
<title>Node6</title>
<g id="a_Node000006"><a xlink:href="tamtypes_8h.html" target="_top" xlink:title=" ">
<polygon fill="white" stroke="#666666" points="278.75,-19.25 215.5,-19.25 215.5,0 278.75,0 278.75,-19.25"/>
<text text-anchor="middle" x="247.12" y="-5.75" font-family="Helvetica,sans-Serif" font-size="10.00">tamtypes.h</text>
</a>
</g>
</g>
<!-- Node4&#45;&gt;Node6 -->
<g id="edge5_Node000004_Node000006" class="edge">
<title>Node4&#45;&gt;Node6</title>
<g id="a_edge5_Node000004_Node000006"><a xlink:title=" ">
<path fill="none" stroke="#63b8ff" d="M215.4,-55.08C220.48,-47.96 227.82,-37.68 234.16,-28.8"/>
<polygon fill="#63b8ff" stroke="#63b8ff" points="236.87,-31.01 239.83,-20.84 231.18,-26.95 236.87,-31.01"/>
</a>
</g>
</g>
<!-- Node7&#45;&gt;Node4 -->
<g id="edge7_Node000007_Node000004" class="edge">
<title>Node7&#45;&gt;Node4</title>
<g id="a_edge7_Node000007_Node000004"><a xlink:title=" ">
<path fill="none" stroke="#63b8ff" d="M209.12,-110.33C209.12,-103.82 209.12,-94.67 209.12,-86.37"/>
<polygon fill="#63b8ff" stroke="#63b8ff" points="212.63,-86.37 209.13,-76.37 205.63,-86.37 212.63,-86.37"/>
</a>
</g>
</g>
<!-- Node8&#45;&gt;Node4 -->
<g id="edge9_Node000008_Node000004" class="edge">
<title>Node8&#45;&gt;Node4</title>
<g id="a_edge9_Node000008_Node000004"><a xlink:title=" ">
<path fill="none" stroke="#63b8ff" d="M403.42,-165.26C391.42,-151.58 366.92,-125.71 341.12,-110.5 310.49,-92.44 271.52,-80.4 243.88,-73.43"/>
<polygon fill="#63b8ff" stroke="#63b8ff" points="244.8,-70.05 234.26,-71.11 243.15,-76.86 244.8,-70.05"/>
</a>
</g>
</g>
<!-- Node9 -->
<g id="Node000009" class="node">
<title>Node9</title>
<g id="a_Node000009"><a xlink:title=" ">
<polygon fill="#e0e0e0" stroke="#999999" points="332.38,-129.75 281.88,-129.75 281.88,-110.5 332.38,-110.5 332.38,-129.75"/>
<text text-anchor="middle" x="307.12" y="-116.25" font-family="Helvetica,sans-Serif" font-size="10.00">stdarg.h</text>
</a>
</g>
</g>
<!-- Node8&#45;&gt;Node9 -->
<g id="edge10_Node000008_Node000009" class="edge">
<title>Node8&#45;&gt;Node9</title>
<g id="a_edge10_Node000008_Node000009"><a xlink:title=" ">
<path fill="none" stroke="#63b8ff" d="M393.48,-165.34C377.5,-157.16 353.67,-144.96 335.09,-135.44"/>
<polygon fill="#63b8ff" stroke="#63b8ff" points="336.7,-132.33 326.2,-130.89 333.51,-138.57 336.7,-132.33"/>
</a>
</g>
</g>
<!-- Node10 -->
<g id="Node000010" class="node">
<title>Node10</title>
<g id="a_Node000010"><a xlink:href="io__common_8h.html" target="_top" xlink:title=" ">
<polygon fill="white" stroke="#666666" points="462,-129.75 388.25,-129.75 388.25,-110.5 462,-110.5 462,-129.75"/>
<text text-anchor="middle" x="425.12" y="-116.25" font-family="Helvetica,sans-Serif" font-size="10.00">io_common.h</text>
</a>
</g>
</g>
<!-- Node8&#45;&gt;Node10 -->
<g id="edge11_Node000008_Node000010" class="edge">
<title>Node8&#45;&gt;Node10</title>
<g id="a_edge11_Node000008_Node000010"><a xlink:title=" ">
<path fill="none" stroke="#63b8ff" d="M413.44,-165.58C415.19,-158.92 417.67,-149.49 419.89,-141.03"/>
<polygon fill="#63b8ff" stroke="#63b8ff" points="423.22,-142.13 422.38,-131.57 416.45,-140.35 423.22,-142.13"/>
</a>
</g>
</g>
<!-- Node13 -->
<g id="Node000013" class="node">
<title>Node13</title>
<g id="a_Node000013"><a xlink:href="iox__stat_8h.html" target="_top" xlink:title=" ">
<polygon fill="white" stroke="#666666" points="537.75,-129.75 480.5,-129.75 480.5,-110.5 537.75,-110.5 537.75,-129.75"/>
<text text-anchor="middle" x="509.12" y="-116.25" font-family="Helvetica,sans-Serif" font-size="10.00">iox_stat.h</text>
</a>
</g>
</g>
<!-- Node8&#45;&gt;Node13 -->
<g id="edge14_Node000008_Node000013" class="edge">
<title>Node8&#45;&gt;Node13</title>
<g id="a_edge14_Node000008_Node000013"><a xlink:title=" ">
<path fill="none" stroke="#63b8ff" d="M427.75,-165.34C442.81,-157.16 465.27,-144.96 482.78,-135.44"/>
<polygon fill="#63b8ff" stroke="#63b8ff" points="483.97,-138.77 491.09,-130.93 480.63,-132.62 483.97,-138.77"/>
</a>
</g>
</g>
<!-- Node11 -->
<g id="Node000011" class="node">
<title>Node11</title>
<g id="a_Node000011"><a xlink:href="fcntl_8h_source.html" target="_top" xlink:title=" ">
<polygon fill="white" stroke="#666666" points="374.25,-74.5 314,-74.5 314,-55.25 374.25,-55.25 374.25,-74.5"/>
<text text-anchor="middle" x="344.12" y="-61" font-family="Helvetica,sans-Serif" font-size="10.00">sys/fcntl.h</text>
</a>
</g>
</g>
<!-- Node10&#45;&gt;Node11 -->
<g id="edge12_Node000010_Node000011" class="edge">
<title>Node10&#45;&gt;Node11</title>
<g id="a_edge12_Node000010_Node000011"><a xlink:title=" ">
<path fill="none" stroke="#63b8ff" d="M411.38,-110.09C399.4,-102.21 381.75,-90.61 367.54,-81.27"/>
<polygon fill="#63b8ff" stroke="#63b8ff" points="369.48,-78.35 359.2,-75.78 365.63,-84.2 369.48,-78.35"/>
</a>
</g>
</g>
<!-- Node12 -->
<g id="Node000012" class="node">
<title>Node12</title>
<g id="a_Node000012"><a xlink:href="unistd_8h_source.html" target="_top" xlink:title=" ">
<polygon fill="white" stroke="#666666" points="460,-74.5 392.25,-74.5 392.25,-55.25 460,-55.25 460,-74.5"/>
<text text-anchor="middle" x="426.12" y="-61" font-family="Helvetica,sans-Serif" font-size="10.00">sys/unistd.h</text>
</a>
</g>
</g>
<!-- Node10&#45;&gt;Node12 -->
<g id="edge13_Node000010_Node000012" class="edge">
<title>Node10&#45;&gt;Node12</title>
<g id="a_edge13_Node000010_Node000012"><a xlink:title=" ">
<path fill="none" stroke="#63b8ff" d="M425.29,-110.33C425.41,-103.82 425.58,-94.67 425.74,-86.37"/>
<polygon fill="#63b8ff" stroke="#63b8ff" points="429.24,-86.44 425.93,-76.37 422.24,-86.3 429.24,-86.44"/>
</a>
</g>
</g>
<!-- Node14 -->
<g id="Node000014" class="node">
<title>Node14</title>
<g id="a_Node000014"><a xlink:href="time_8h.html" target="_top" xlink:title=" ">
<polygon fill="white" stroke="#666666" points="539.25,-74.5 479,-74.5 479,-55.25 539.25,-55.25 539.25,-74.5"/>
<text text-anchor="middle" x="509.12" y="-61" font-family="Helvetica,sans-Serif" font-size="10.00">sys/time.h</text>
</a>
</g>
</g>
<!-- Node13&#45;&gt;Node14 -->
<g id="edge15_Node000013_Node000014" class="edge">
<title>Node13&#45;&gt;Node14</title>
<g id="a_edge15_Node000013_Node000014"><a xlink:title=" ">
<path fill="none" stroke="#63b8ff" d="M509.12,-110.33C509.12,-103.82 509.12,-94.67 509.12,-86.37"/>
<polygon fill="#63b8ff" stroke="#63b8ff" points="512.63,-86.37 509.13,-76.37 505.63,-86.37 512.63,-86.37"/>
</a>
</g>
</g>
<!-- Node15&#45;&gt;Node7 -->
<g id="edge18_Node000015_Node000007" class="edge">
<title>Node15&#45;&gt;Node7</title>
<g id="a_edge18_Node000015_Node000007"><a xlink:title=" ">
<path fill="none" stroke="#63b8ff" d="M319.56,-165.34C296.55,-156.13 260.84,-141.83 236.3,-132"/>
<polygon fill="#63b8ff" stroke="#63b8ff" points="237.88,-128.87 227.29,-128.4 235.28,-135.37 237.88,-128.87"/>
</a>
</g>
</g>
<!-- Node15&#45;&gt;Node9 -->
<g id="edge17_Node000015_Node000009" class="edge">
<title>Node15&#45;&gt;Node9</title>
<g id="a_edge17_Node000015_Node000009"><a xlink:title=" ">
<path fill="none" stroke="#63b8ff" d="M336.35,-165.58C331.71,-158.53 325.05,-148.4 319.26,-139.58"/>
<polygon fill="#63b8ff" stroke="#63b8ff" points="322.28,-137.81 313.86,-131.37 316.43,-141.65 322.28,-137.81"/>
</a>
</g>
</g>
<!-- Node16&#45;&gt;Node2 -->
<g id="edge20_Node000016_Node000002" class="edge">
<title>Node16&#45;&gt;Node2</title>
<g id="a_edge20_Node000016_Node000002"><a xlink:title=" ">
<path fill="none" stroke="#63b8ff" d="M150.79,-220.59C133.02,-212.29 106.41,-199.86 85.92,-190.29"/>
<polygon fill="#63b8ff" stroke="#63b8ff" points="87.47,-187.15 76.93,-186.09 84.51,-193.5 87.47,-187.15"/>
</a>
</g>
</g>
<!-- Node16&#45;&gt;Node7 -->
<g id="edge21_Node000016_Node000007" class="edge">
<title>Node16&#45;&gt;Node7</title>
<g id="a_edge21_Node000016_Node000007"><a xlink:title=" ">
<path fill="none" stroke="#63b8ff" d="M173.32,-220.75C179.57,-203.34 193.58,-164.37 202.1,-140.66"/>
<polygon fill="#63b8ff" stroke="#63b8ff" points="205.29,-142.15 205.38,-131.55 198.7,-139.78 205.29,-142.15"/>
</a>
</g>
</g>
<!-- Node17 -->
<g id="Node000017" class="node">
<title>Node17</title>
<g id="a_Node000017"><a xlink:href="ioman_8h.html" target="_top" xlink:title=" ">
<polygon fill="white" stroke="#666666" points="302,-185 252.25,-185 252.25,-165.75 302,-165.75 302,-185"/>
<text text-anchor="middle" x="277.12" y="-171.5" font-family="Helvetica,sans-Serif" font-size="10.00">ioman.h</text>
</a>
</g>
</g>
<!-- Node16&#45;&gt;Node17 -->
<g id="edge22_Node000016_Node000017" class="edge">
<title>Node16&#45;&gt;Node17</title>
<g id="a_edge22_Node000016_Node000017"><a xlink:title=" ">
<path fill="none" stroke="#63b8ff" d="M188.28,-220.59C204.8,-212.37 229.47,-200.09 248.62,-190.56"/>
<polygon fill="#63b8ff" stroke="#63b8ff" points="250.14,-193.72 257.53,-186.13 247.02,-187.45 250.14,-193.72"/>
</a>
</g>
</g>
<!-- Node18 -->
<g id="Node000018" class="node">
<title>Node18</title>
<g id="a_Node000018"><a xlink:href="loadcore_8h.html" target="_top" xlink:title=" ">
<polygon fill="white" stroke="#666666" points="158.25,-185 98,-185 98,-165.75 158.25,-165.75 158.25,-185"/>
<text text-anchor="middle" x="128.12" y="-171.5" font-family="Helvetica,sans-Serif" font-size="10.00">loadcore.h</text>
</a>
</g>
</g>
<!-- Node16&#45;&gt;Node18 -->
<g id="edge26_Node000016_Node000018" class="edge">
<title>Node16&#45;&gt;Node18</title>
<g id="a_edge26_Node000016_Node000018"><a xlink:title=" ">
<path fill="none" stroke="#63b8ff" d="M163.19,-220.83C157.51,-213.63 149.29,-203.21 142.23,-194.26"/>
<polygon fill="#63b8ff" stroke="#63b8ff" points="145.09,-192.23 136.15,-186.55 139.59,-196.57 145.09,-192.23"/>
</a>
</g>
</g>
<!-- Node17&#45;&gt;Node4 -->
<g id="edge23_Node000017_Node000004" class="edge">
<title>Node17&#45;&gt;Node4</title>
<g id="a_edge23_Node000017_Node000004"><a xlink:title=" ">
<path fill="none" stroke="#63b8ff" d="M271.56,-165.5C260.5,-147.85 235.56,-108.05 220.76,-84.45"/>
<polygon fill="#63b8ff" stroke="#63b8ff" points="223.85,-82.77 215.57,-76.16 217.92,-86.49 223.85,-82.77"/>
</a>
</g>
</g>
<!-- Node17&#45;&gt;Node7 -->
<g id="edge24_Node000017_Node000007" class="edge">
<title>Node17&#45;&gt;Node7</title>
<g id="a_edge24_Node000017_Node000007"><a xlink:title=" ">
<path fill="none" stroke="#63b8ff" d="M265.59,-165.34C255.66,-157.57 241.11,-146.17 229.27,-136.9"/>
<polygon fill="#63b8ff" stroke="#63b8ff" points="231.71,-134.37 221.68,-130.96 227.4,-139.88 231.71,-134.37"/>
</a>
</g>
</g>
<!-- Node17&#45;&gt;Node10 -->
<g id="edge25_Node000017_Node000010" class="edge">
<title>Node17&#45;&gt;Node10</title>
<g id="a_edge25_Node000017_Node000010"><a xlink:title=" ">
<path fill="none" stroke="#63b8ff" d="M302.23,-165.34C326.15,-156.74 362.41,-143.69 389.35,-134"/>
<polygon fill="#63b8ff" stroke="#63b8ff" points="390.25,-137.39 398.47,-130.71 387.88,-130.81 390.25,-137.39"/>
</a>
</g>
</g>
<!-- Node18&#45;&gt;Node4 -->
<g id="edge27_Node000018_Node000004" class="edge">
<title>Node18&#45;&gt;Node4</title>
<g id="a_edge27_Node000018_Node000004"><a xlink:title=" ">
<path fill="none" stroke="#63b8ff" d="M134.75,-165.5C148.04,-147.69 178.18,-107.33 195.73,-83.81"/>
<polygon fill="#63b8ff" stroke="#63b8ff" points="198.32,-86.2 201.5,-76.09 192.71,-82.01 198.32,-86.2"/>
</a>
</g>
</g>
<!-- Node18&#45;&gt;Node7 -->
<g id="edge28_Node000018_Node000007" class="edge">
<title>Node18&#45;&gt;Node7</title>
<g id="a_edge28_Node000018_Node000007"><a xlink:title=" ">
<path fill="none" stroke="#63b8ff" d="M141.87,-165.34C153.85,-157.46 171.5,-145.86 185.71,-136.52"/>
<polygon fill="#63b8ff" stroke="#63b8ff" points="187.62,-139.45 194.05,-131.03 183.77,-133.6 187.62,-139.45"/>
</a>
</g>
</g>
</g>
</svg>
