<?xml version="1.0" encoding="UTF-8" standalone="no"?>
<!DOCTYPE svg PUBLIC "-//W3C//DTD SVG 1.1//EN"
 "http://www.w3.org/Graphics/SVG/1.1/DTD/svg11.dtd">
<!-- Generated by graphviz version 2.43.0 (0)
 -->
<!-- Title: iop/debug/iopdebug/src/main.c Pages: 1 -->
<svg width="491pt" height="319pt"
 viewBox="0.00 0.00 491.49 319.00" xmlns="http://www.w3.org/2000/svg" xmlns:xlink="http://www.w3.org/1999/xlink">
<g id="graph0" class="graph" transform="scale(1 1) rotate(0) translate(4 315)">
<title>iop/debug/iopdebug/src/main.c</title>
<polygon fill="white" stroke="transparent" points="-4,4 -4,-315 487.49,-315 487.49,4 -4,4"/>
<!-- Node1 -->
<g id="node1" class="node">
<title>Node1</title>
<g id="a_node1"><a xlink:title=" ">
<polygon fill="#bfbfbf" stroke="black" points="188.99,-280.5 188.99,-310.5 301.99,-310.5 301.99,-280.5 188.99,-280.5"/>
<text text-anchor="start" x="196.99" y="-298.5" font-family="Helvetica,sans-Serif" font-size="10.00">iop/debug/iopdebug</text>
<text text-anchor="middle" x="245.49" y="-287.5" font-family="Helvetica,sans-Serif" font-size="10.00">/src/main.c</text>
</a>
</g>
</g>
<!-- Node2 -->
<g id="node2" class="node">
<title>Node2</title>
<g id="a_node2"><a xlink:href="tamtypes_8h.html" target="_top" xlink:title=" ">
<polygon fill="white" stroke="black" points="354.49,-0.5 354.49,-19.5 426.49,-19.5 426.49,-0.5 354.49,-0.5"/>
<text text-anchor="middle" x="390.49" y="-7.5" font-family="Helvetica,sans-Serif" font-size="10.00">tamtypes.h</text>
</a>
</g>
</g>
<!-- Node1&#45;&gt;Node2 -->
<g id="edge1" class="edge">
<title>Node1&#45;&gt;Node2</title>
<path fill="none" stroke="midnightblue" d="M302.19,-291.24C372.59,-283.76 483.49,-259.26 483.49,-179 483.49,-179 483.49,-179 483.49,-121 483.49,-78.31 442.14,-43.64 414.58,-25.28"/>
<polygon fill="midnightblue" stroke="midnightblue" points="416.15,-22.13 405.84,-19.69 412.38,-28.03 416.15,-22.13"/>
</g>
<!-- Node3 -->
<g id="node3" class="node">
<title>Node3</title>
<g id="a_node3"><a xlink:href="stdio_8h.html" target="_top" xlink:title=" ">
<polygon fill="white" stroke="black" points="16.49,-224.5 16.49,-243.5 66.49,-243.5 66.49,-224.5 16.49,-224.5"/>
<text text-anchor="middle" x="41.49" y="-231.5" font-family="Helvetica,sans-Serif" font-size="10.00">stdio.h</text>
</a>
</g>
</g>
<!-- Node1&#45;&gt;Node3 -->
<g id="edge2" class="edge">
<title>Node1&#45;&gt;Node3</title>
<path fill="none" stroke="midnightblue" d="M197.4,-280.47C160.25,-269.64 109.71,-254.9 76.37,-245.17"/>
<polygon fill="midnightblue" stroke="midnightblue" points="77.19,-241.77 66.61,-242.33 75.23,-248.49 77.19,-241.77"/>
</g>
<!-- Node8 -->
<g id="node8" class="node">
<title>Node8</title>
<g id="a_node8"><a xlink:href="loadcore_8h.html" target="_top" xlink:title=" ">
<polygon fill="white" stroke="black" points="165.49,-168.5 165.49,-187.5 233.49,-187.5 233.49,-168.5 165.49,-168.5"/>
<text text-anchor="middle" x="199.49" y="-175.5" font-family="Helvetica,sans-Serif" font-size="10.00">loadcore.h</text>
</a>
</g>
</g>
<!-- Node1&#45;&gt;Node8 -->
<g id="edge8" class="edge">
<title>Node1&#45;&gt;Node8</title>
<path fill="none" stroke="midnightblue" d="M239.85,-280.34C231.52,-259.43 215.94,-220.31 206.76,-197.27"/>
<polygon fill="midnightblue" stroke="midnightblue" points="209.89,-195.66 202.94,-187.67 203.39,-198.25 209.89,-195.66"/>
</g>
<!-- Node10 -->
<g id="node10" class="node">
<title>Node10</title>
<g id="a_node10"><a xlink:href="thbase_8h.html" target="_top" xlink:title=" ">
<polygon fill="white" stroke="black" points="87.99,-168.5 87.99,-187.5 146.99,-187.5 146.99,-168.5 87.99,-168.5"/>
<text text-anchor="middle" x="117.49" y="-175.5" font-family="Helvetica,sans-Serif" font-size="10.00">thbase.h</text>
</a>
</g>
</g>
<!-- Node1&#45;&gt;Node10 -->
<g id="edge11" class="edge">
<title>Node1&#45;&gt;Node10</title>
<path fill="none" stroke="midnightblue" d="M229.79,-280.34C205.68,-258.58 159.7,-217.09 134.7,-194.54"/>
<polygon fill="midnightblue" stroke="midnightblue" points="136.86,-191.77 127.09,-187.67 132.17,-196.97 136.86,-191.77"/>
</g>
<!-- Node11 -->
<g id="node11" class="node">
<title>Node11</title>
<g id="a_node11"><a xlink:href="iopdebug_8h.html" target="_top" xlink:title=" ">
<polygon fill="white" stroke="black" points="333.99,-168.5 333.99,-187.5 404.99,-187.5 404.99,-168.5 333.99,-168.5"/>
<text text-anchor="middle" x="369.49" y="-175.5" font-family="Helvetica,sans-Serif" font-size="10.00">iopdebug.h</text>
</a>
</g>
</g>
<!-- Node1&#45;&gt;Node11 -->
<g id="edge14" class="edge">
<title>Node1&#45;&gt;Node11</title>
<path fill="none" stroke="midnightblue" d="M284.45,-280.38C303,-272.09 324.38,-260.05 339.49,-244 351.98,-230.73 360,-211.34 364.58,-197.19"/>
<polygon fill="midnightblue" stroke="midnightblue" points="367.94,-198.16 367.42,-187.58 361.23,-196.18 367.94,-198.16"/>
</g>
<!-- Node14 -->
<g id="node14" class="node">
<title>Node14</title>
<g id="a_node14"><a xlink:href="iopdebug__priv_8h.html" target="_top" xlink:title=" ">
<polygon fill="white" stroke="black" points="236.49,-224.5 236.49,-243.5 330.49,-243.5 330.49,-224.5 236.49,-224.5"/>
<text text-anchor="middle" x="283.49" y="-231.5" font-family="Helvetica,sans-Serif" font-size="10.00">iopdebug_priv.h</text>
</a>
</g>
</g>
<!-- Node1&#45;&gt;Node14 -->
<g id="edge20" class="edge">
<title>Node1&#45;&gt;Node14</title>
<path fill="none" stroke="midnightblue" d="M254.49,-280.4C259.9,-271.93 266.82,-261.1 272.54,-252.14"/>
<polygon fill="midnightblue" stroke="midnightblue" points="275.52,-253.97 277.96,-243.66 269.62,-250.2 275.52,-253.97"/>
</g>
<!-- Node4 -->
<g id="node4" class="node">
<title>Node4</title>
<g id="a_node4"><a xlink:title=" ">
<polygon fill="white" stroke="#bfbfbf" points="13.49,-168.5 13.49,-187.5 69.49,-187.5 69.49,-168.5 13.49,-168.5"/>
<text text-anchor="middle" x="41.49" y="-175.5" font-family="Helvetica,sans-Serif" font-size="10.00">stdarg.h</text>
</a>
</g>
</g>
<!-- Node3&#45;&gt;Node4 -->
<g id="edge3" class="edge">
<title>Node3&#45;&gt;Node4</title>
<path fill="none" stroke="midnightblue" d="M41.49,-224.08C41.49,-217.01 41.49,-206.86 41.49,-197.99"/>
<polygon fill="midnightblue" stroke="midnightblue" points="44.99,-197.75 41.49,-187.75 37.99,-197.75 44.99,-197.75"/>
</g>
<!-- Node5 -->
<g id="node5" class="node">
<title>Node5</title>
<g id="a_node5"><a xlink:href="irx_8h.html" target="_top" xlink:title=" ">
<polygon fill="white" stroke="black" points="155.49,-112.5 155.49,-131.5 193.49,-131.5 193.49,-112.5 155.49,-112.5"/>
<text text-anchor="middle" x="174.49" y="-119.5" font-family="Helvetica,sans-Serif" font-size="10.00">irx.h</text>
</a>
</g>
</g>
<!-- Node3&#45;&gt;Node5 -->
<g id="edge4" class="edge">
<title>Node3&#45;&gt;Node5</title>
<path fill="none" stroke="midnightblue" d="M30.13,-224.33C14.58,-211.41 -9.85,-186.62 4.49,-168 21.56,-145.82 101.4,-132.32 145.33,-126.45"/>
<polygon fill="midnightblue" stroke="midnightblue" points="145.94,-129.9 155.41,-125.16 145.04,-122.96 145.94,-129.9"/>
</g>
<!-- Node6 -->
<g id="node6" class="node">
<title>Node6</title>
<g id="a_node6"><a xlink:href="iop_2kernel_2include_2types_8h_source.html" target="_top" xlink:title=" ">
<polygon fill="white" stroke="black" points="207.99,-56.5 207.99,-75.5 260.99,-75.5 260.99,-56.5 207.99,-56.5"/>
<text text-anchor="middle" x="234.49" y="-63.5" font-family="Helvetica,sans-Serif" font-size="10.00">types.h</text>
</a>
</g>
</g>
<!-- Node5&#45;&gt;Node6 -->
<g id="edge5" class="edge">
<title>Node5&#45;&gt;Node6</title>
<path fill="none" stroke="midnightblue" d="M184.13,-112.32C193,-104.34 206.36,-92.31 217.09,-82.65"/>
<polygon fill="midnightblue" stroke="midnightblue" points="219.58,-85.13 224.67,-75.83 214.9,-79.92 219.58,-85.13"/>
</g>
<!-- Node6&#45;&gt;Node2 -->
<g id="edge7" class="edge">
<title>Node6&#45;&gt;Node2</title>
<path fill="none" stroke="midnightblue" d="M259.2,-56.44C285.33,-47.4 326.75,-33.06 356.06,-22.92"/>
<polygon fill="midnightblue" stroke="midnightblue" points="357.58,-26.1 365.88,-19.52 355.29,-19.48 357.58,-26.1"/>
</g>
<!-- Node7 -->
<g id="node7" class="node">
<title>Node7</title>
<g id="a_node7"><a xlink:title=" ">
<polygon fill="white" stroke="#bfbfbf" points="206.49,-0.5 206.49,-19.5 262.49,-19.5 262.49,-0.5 206.49,-0.5"/>
<text text-anchor="middle" x="234.49" y="-7.5" font-family="Helvetica,sans-Serif" font-size="10.00">stddef.h</text>
</a>
</g>
</g>
<!-- Node6&#45;&gt;Node7 -->
<g id="edge6" class="edge">
<title>Node6&#45;&gt;Node7</title>
<path fill="none" stroke="midnightblue" d="M234.49,-56.08C234.49,-49.01 234.49,-38.86 234.49,-29.99"/>
<polygon fill="midnightblue" stroke="midnightblue" points="237.99,-29.75 234.49,-19.75 230.99,-29.75 237.99,-29.75"/>
</g>
<!-- Node8&#45;&gt;Node5 -->
<g id="edge10" class="edge">
<title>Node8&#45;&gt;Node5</title>
<path fill="none" stroke="midnightblue" d="M195.36,-168.08C191.97,-160.77 187.07,-150.18 182.87,-141.1"/>
<polygon fill="midnightblue" stroke="midnightblue" points="185.92,-139.36 178.54,-131.75 179.56,-142.3 185.92,-139.36"/>
</g>
<!-- Node9 -->
<g id="node9" class="node">
<title>Node9</title>
<g id="a_node9"><a xlink:title=" ">
<polygon fill="white" stroke="#bfbfbf" points="211.99,-112.5 211.99,-131.5 264.99,-131.5 264.99,-112.5 211.99,-112.5"/>
<text text-anchor="middle" x="238.49" y="-119.5" font-family="Helvetica,sans-Serif" font-size="10.00">types.h</text>
</a>
</g>
</g>
<!-- Node8&#45;&gt;Node9 -->
<g id="edge9" class="edge">
<title>Node8&#45;&gt;Node9</title>
<path fill="none" stroke="midnightblue" d="M205.93,-168.08C211.44,-160.46 219.52,-149.26 226.25,-139.94"/>
<polygon fill="midnightblue" stroke="midnightblue" points="229.15,-141.91 232.17,-131.75 223.47,-137.81 229.15,-141.91"/>
</g>
<!-- Node10&#45;&gt;Node5 -->
<g id="edge13" class="edge">
<title>Node10&#45;&gt;Node5</title>
<path fill="none" stroke="midnightblue" d="M126.64,-168.32C134.99,-160.42 147.52,-148.55 157.66,-138.94"/>
<polygon fill="midnightblue" stroke="midnightblue" points="160.31,-141.25 165.16,-131.83 155.49,-136.17 160.31,-141.25"/>
</g>
<!-- Node10&#45;&gt;Node9 -->
<g id="edge12" class="edge">
<title>Node10&#45;&gt;Node9</title>
<path fill="none" stroke="midnightblue" d="M136.66,-168.44C156.4,-159.64 187.37,-145.81 209.98,-135.72"/>
<polygon fill="midnightblue" stroke="midnightblue" points="211.7,-138.79 219.4,-131.52 208.84,-132.4 211.7,-138.79"/>
</g>
<!-- Node11&#45;&gt;Node5 -->
<g id="edge16" class="edge">
<title>Node11&#45;&gt;Node5</title>
<path fill="none" stroke="midnightblue" d="M336.63,-168.47C303.07,-159.67 249.51,-145.37 203.49,-132 203.38,-131.97 203.28,-131.94 203.18,-131.91"/>
<polygon fill="midnightblue" stroke="midnightblue" points="204.07,-128.52 193.49,-129 202.06,-135.23 204.07,-128.52"/>
</g>
<!-- Node11&#45;&gt;Node9 -->
<g id="edge15" class="edge">
<title>Node11&#45;&gt;Node9</title>
<path fill="none" stroke="midnightblue" d="M348.73,-168.44C327.17,-159.56 293.22,-145.56 268.69,-135.45"/>
<polygon fill="midnightblue" stroke="midnightblue" points="269.73,-132.09 259.15,-131.52 267.06,-138.56 269.73,-132.09"/>
</g>
<!-- Node12 -->
<g id="node12" class="node">
<title>Node12</title>
<g id="a_node12"><a xlink:href="iop__cop0__defs_8h.html" target="_top" xlink:title=" ">
<polygon fill="white" stroke="black" points="321.99,-112.5 321.99,-131.5 416.99,-131.5 416.99,-112.5 321.99,-112.5"/>
<text text-anchor="middle" x="369.49" y="-119.5" font-family="Helvetica,sans-Serif" font-size="10.00">iop_cop0_defs.h</text>
</a>
</g>
</g>
<!-- Node11&#45;&gt;Node12 -->
<g id="edge17" class="edge">
<title>Node11&#45;&gt;Node12</title>
<path fill="none" stroke="midnightblue" d="M369.49,-168.08C369.49,-161.01 369.49,-150.86 369.49,-141.99"/>
<polygon fill="midnightblue" stroke="midnightblue" points="372.99,-141.75 369.49,-131.75 365.99,-141.75 372.99,-141.75"/>
</g>
<!-- Node13 -->
<g id="node13" class="node">
<title>Node13</title>
<g id="a_node13"><a xlink:href="ps2__debug_8h.html" target="_top" xlink:title=" ">
<polygon fill="white" stroke="black" points="296.49,-56.5 296.49,-75.5 374.49,-75.5 374.49,-56.5 296.49,-56.5"/>
<text text-anchor="middle" x="335.49" y="-63.5" font-family="Helvetica,sans-Serif" font-size="10.00">ps2_debug.h</text>
</a>
</g>
</g>
<!-- Node11&#45;&gt;Node13 -->
<g id="edge18" class="edge">
<title>Node11&#45;&gt;Node13</title>
<path fill="none" stroke="midnightblue" d="M351.98,-168.46C338.7,-160.92 321.41,-148.53 313.49,-132 305.96,-116.29 314.21,-97.31 322.67,-83.93"/>
<polygon fill="midnightblue" stroke="midnightblue" points="325.57,-85.89 328.37,-75.67 319.81,-81.92 325.57,-85.89"/>
</g>
<!-- Node13&#45;&gt;Node2 -->
<g id="edge19" class="edge">
<title>Node13&#45;&gt;Node2</title>
<path fill="none" stroke="midnightblue" d="M344.57,-56.08C352.66,-48.14 364.68,-36.34 374.4,-26.8"/>
<polygon fill="midnightblue" stroke="midnightblue" points="376.89,-29.25 381.57,-19.75 371.99,-24.26 376.89,-29.25"/>
</g>
<!-- Node14&#45;&gt;Node2 -->
<g id="edge21" class="edge">
<title>Node14&#45;&gt;Node2</title>
<path fill="none" stroke="midnightblue" d="M330.77,-228.33C358.99,-223.06 393.34,-211.84 414.49,-188 454.56,-142.81 419.76,-63.92 400.83,-28.78"/>
<polygon fill="midnightblue" stroke="midnightblue" points="403.7,-26.74 395.77,-19.72 397.59,-30.16 403.7,-26.74"/>
</g>
<!-- Node15 -->
<g id="node15" class="node">
<title>Node15</title>
<g id="a_node15"><a xlink:href="intrman_8h.html" target="_top" xlink:title=" ">
<polygon fill="white" stroke="black" points="251.49,-168.5 251.49,-187.5 315.49,-187.5 315.49,-168.5 251.49,-168.5"/>
<text text-anchor="middle" x="283.49" y="-175.5" font-family="Helvetica,sans-Serif" font-size="10.00">intrman.h</text>
</a>
</g>
</g>
<!-- Node14&#45;&gt;Node15 -->
<g id="edge22" class="edge">
<title>Node14&#45;&gt;Node15</title>
<path fill="none" stroke="midnightblue" d="M283.49,-224.08C283.49,-217.01 283.49,-206.86 283.49,-197.99"/>
<polygon fill="midnightblue" stroke="midnightblue" points="286.99,-197.75 283.49,-187.75 279.99,-197.75 286.99,-197.75"/>
</g>
<!-- Node15&#45;&gt;Node5 -->
<g id="edge24" class="edge">
<title>Node15&#45;&gt;Node5</title>
<path fill="none" stroke="midnightblue" d="M265.97,-168.32C248.41,-159.62 221.15,-146.12 200.95,-136.11"/>
<polygon fill="midnightblue" stroke="midnightblue" points="202.47,-132.96 191.96,-131.65 199.36,-139.23 202.47,-132.96"/>
</g>
<!-- Node15&#45;&gt;Node9 -->
<g id="edge23" class="edge">
<title>Node15&#45;&gt;Node9</title>
<path fill="none" stroke="midnightblue" d="M276.06,-168.08C269.63,-160.38 260.18,-149.03 252.36,-139.65"/>
<polygon fill="midnightblue" stroke="midnightblue" points="254.87,-137.19 245.78,-131.75 249.49,-141.67 254.87,-137.19"/>
</g>
</g>
</svg>
