<?xml version="1.0" encoding="UTF-8" standalone="no"?>
<!DOCTYPE svg PUBLIC "-//W3C//DTD SVG 1.1//EN"
 "http://www.w3.org/Graphics/SVG/1.1/DTD/svg11.dtd">
<!-- Generated by graphviz version 12.2.0 (20241103.1931)
 -->
<!-- Title: common/include/iop_mmio_hwport.h Pages: 1 -->
<svg width="728pt" height="105pt"
 viewBox="0.00 0.00 727.88 105.00" xmlns="http://www.w3.org/2000/svg" xmlns:xlink="http://www.w3.org/1999/xlink">
<g id="graph0" class="graph" transform="scale(1 1) rotate(0) translate(4 101)">
<title>common/include/iop_mmio_hwport.h</title>
<!-- Node1 -->
<g id="Node000001" class="node">
<title>Node1</title>
<g id="a_Node000001"><a xlink:title=" ">
<polygon fill="#999999" stroke="#666666" points="410.88,-97 307.88,-97 307.88,-66.5 410.88,-66.5 410.88,-97"/>
<text text-anchor="start" x="315.88" y="-83.5" font-family="Helvetica,sans-Serif" font-size="10.00">common/include/iop</text>
<text text-anchor="middle" x="359.38" y="-72.25" font-family="Helvetica,sans-Serif" font-size="10.00">_mmio_hwport.h</text>
</a>
</g>
</g>
<!-- Node2 -->
<g id="Node000002" class="node">
<title>Node2</title>
<g id="a_Node000002"><a xlink:href="boardinf_8c_source.html" target="_top" xlink:title=" ">
<polygon fill="white" stroke="#666666" points="100.75,-30.5 0,-30.5 0,0 100.75,0 100.75,-30.5"/>
<text text-anchor="start" x="8" y="-17" font-family="Helvetica,sans-Serif" font-size="10.00">iop/system/boardinf</text>
<text text-anchor="middle" x="50.38" y="-5.75" font-family="Helvetica,sans-Serif" font-size="10.00">/src/boardinf.c</text>
</a>
</g>
</g>
<!-- Node1&#45;&gt;Node2 -->
<g id="edge1_Node000001_Node000002" class="edge">
<title>Node1&#45;&gt;Node2</title>
<g id="a_edge1_Node000001_Node000002"><a xlink:title=" ">
<path fill="none" stroke="#63b8ff" d="M296.45,-68.8C245.81,-59.02 172.87,-44.54 109.38,-30.5 106.7,-29.91 103.96,-29.29 101.19,-28.66"/>
<polygon fill="#63b8ff" stroke="#63b8ff" points="295.57,-72.2 306.06,-70.65 296.9,-65.32 295.57,-72.2"/>
</a>
</g>
</g>
<!-- Node3 -->
<g id="Node000003" class="node">
<title>Node3</title>
<g id="a_Node000003"><a xlink:href="eeconf_8c_source.html" target="_top" xlink:title=" ">
<polygon fill="white" stroke="#666666" points="230.38,-30.5 118.38,-30.5 118.38,0 230.38,0 230.38,-30.5"/>
<text text-anchor="start" x="126.38" y="-17" font-family="Helvetica,sans-Serif" font-size="10.00">iop/system/eeconf/src</text>
<text text-anchor="middle" x="174.38" y="-5.75" font-family="Helvetica,sans-Serif" font-size="10.00">/eeconf.c</text>
</a>
</g>
</g>
<!-- Node1&#45;&gt;Node3 -->
<g id="edge2_Node000001_Node000003" class="edge">
<title>Node1&#45;&gt;Node3</title>
<g id="a_edge2_Node000001_Node000003"><a xlink:title=" ">
<path fill="none" stroke="#63b8ff" d="M306.77,-62.41C278.18,-52.44 243.29,-40.28 216.51,-30.94"/>
<polygon fill="#63b8ff" stroke="#63b8ff" points="305.37,-65.63 315.97,-65.62 307.68,-59.02 305.37,-65.63"/>
</a>
</g>
</g>
<!-- Node4 -->
<g id="Node000004" class="node">
<title>Node4</title>
<g id="a_Node000004"><a xlink:href="igreeting_8c_source.html" target="_top" xlink:title=" ">
<polygon fill="white" stroke="#666666" points="351.88,-30.5 248.88,-30.5 248.88,0 351.88,0 351.88,-30.5"/>
<text text-anchor="start" x="256.88" y="-17" font-family="Helvetica,sans-Serif" font-size="10.00">iop/system/igreeting</text>
<text text-anchor="middle" x="300.38" y="-5.75" font-family="Helvetica,sans-Serif" font-size="10.00">/src/igreeting.c</text>
</a>
</g>
</g>
<!-- Node1&#45;&gt;Node4 -->
<g id="edge3_Node000001_Node000004" class="edge">
<title>Node1&#45;&gt;Node4</title>
<g id="a_edge3_Node000001_Node000004"><a xlink:title=" ">
<path fill="none" stroke="#63b8ff" d="M338.23,-57.63C330.05,-48.69 320.94,-38.74 313.71,-30.83"/>
<polygon fill="#63b8ff" stroke="#63b8ff" points="335.63,-59.98 344.97,-65 340.8,-55.26 335.63,-59.98"/>
</a>
</g>
</g>
<!-- Node5 -->
<g id="Node000005" class="node">
<title>Node5</title>
<g id="a_Node000005"><a xlink:href="intrman_8c_source.html" target="_top" xlink:title=" ">
<polygon fill="white" stroke="#666666" points="468.62,-30.5 370.12,-30.5 370.12,0 468.62,0 468.62,-30.5"/>
<text text-anchor="start" x="378.12" y="-17" font-family="Helvetica,sans-Serif" font-size="10.00">iop/system/intrman</text>
<text text-anchor="middle" x="419.38" y="-5.75" font-family="Helvetica,sans-Serif" font-size="10.00">/src/intrman.c</text>
</a>
</g>
</g>
<!-- Node1&#45;&gt;Node5 -->
<g id="edge4_Node000001_Node000005" class="edge">
<title>Node1&#45;&gt;Node5</title>
<g id="a_edge4_Node000001_Node000005"><a xlink:title=" ">
<path fill="none" stroke="#63b8ff" d="M380.62,-57.91C389,-48.9 398.38,-38.82 405.81,-30.83"/>
<polygon fill="#63b8ff" stroke="#63b8ff" points="378.27,-55.3 374.02,-65.01 383.39,-60.07 378.27,-55.3"/>
</a>
</g>
</g>
<!-- Node6 -->
<g id="Node000006" class="node">
<title>Node6</title>
<g id="a_Node000006"><a xlink:href="sifman_8c_source.html" target="_top" xlink:title=" ">
<polygon fill="white" stroke="#666666" points="598.38,-30.5 486.38,-30.5 486.38,0 598.38,0 598.38,-30.5"/>
<text text-anchor="start" x="494.38" y="-17" font-family="Helvetica,sans-Serif" font-size="10.00">iop/system/sifman/src</text>
<text text-anchor="middle" x="542.38" y="-5.75" font-family="Helvetica,sans-Serif" font-size="10.00">/sifman.c</text>
</a>
</g>
</g>
<!-- Node1&#45;&gt;Node6 -->
<g id="edge5_Node000001_Node000006" class="edge">
<title>Node1&#45;&gt;Node6</title>
<g id="a_edge5_Node000001_Node000006"><a xlink:title=" ">
<path fill="none" stroke="#63b8ff" d="M411.41,-62.41C439.69,-52.44 474.2,-40.28 500.7,-30.94"/>
<polygon fill="#63b8ff" stroke="#63b8ff" points="410.6,-58.99 402.33,-65.61 412.92,-65.59 410.6,-58.99"/>
</a>
</g>
</g>
<!-- Node7 -->
<g id="Node000007" class="node">
<title>Node7</title>
<g id="a_Node000007"><a xlink:href="sio2man_8c.html" target="_top" xlink:title=" ">
<polygon fill="white" stroke="#666666" points="719.88,-30.5 616.88,-30.5 616.88,0 719.88,0 719.88,-30.5"/>
<text text-anchor="start" x="624.88" y="-17" font-family="Helvetica,sans-Serif" font-size="10.00">iop/system/sio2man</text>
<text text-anchor="middle" x="668.38" y="-5.75" font-family="Helvetica,sans-Serif" font-size="10.00">/src/sio2man.c</text>
</a>
</g>
</g>
<!-- Node1&#45;&gt;Node7 -->
<g id="edge6_Node000001_Node000007" class="edge">
<title>Node1&#45;&gt;Node7</title>
<g id="a_edge6_Node000001_Node000007"><a xlink:title=" ">
<path fill="none" stroke="#63b8ff" d="M422.24,-68.55C472.44,-58.67 544.53,-44.21 607.38,-30.5 610.35,-29.85 613.4,-29.17 616.48,-28.48"/>
<polygon fill="#63b8ff" stroke="#63b8ff" points="421.87,-65.05 412.73,-70.41 423.21,-71.92 421.87,-65.05"/>
</a>
</g>
</g>
</g>
</svg>
