<?xml version="1.0" encoding="UTF-8" standalone="no"?>
<!DOCTYPE svg PUBLIC "-//W3C//DTD SVG 1.1//EN"
 "http://www.w3.org/Graphics/SVG/1.1/DTD/svg11.dtd">
<!-- Generated by graphviz version 12.2.0 (20241103.1931)
 -->
<!-- Title: iop/system/iopmgr/src/slib.c Pages: 1 -->
<!--zoomable 315 -->

<svg id="main" version="1.1" xmlns="http://www.w3.org/2000/svg" xmlns:xlink="http://www.w3.org/1999/xlink" xml:space="preserve" onload="init(evt)">

<style type="text/css"><![CDATA[
.node, .edge {opacity: 0.7;}
.node.selected, .edge.selected {opacity: 1;}
.edge:hover path { stroke: red; }
.edge:hover polygon { stroke: red; fill: red; }
]]></style>

<defs>
  <circle id="rim" cx="0" cy="0" r="7"/>
  <circle id="rim2" cx="0" cy="0" r="3.5"/>
  <g id="zoomPlus">
    <use xlink:href="#rim" fill="#404040"><set attributeName="fill" to="#808080" begin="zoomplus.mouseover" end="zoomplus.mouseout"/></use>
    <path d="M-4,0h8M0,-4v8" fill="none" stroke="white" stroke-width="1.5" pointer-events="none"/>
  </g>
  <g id="zoomMin">
    <use xlink:href="#rim" fill="#404040"><set attributeName="fill" to="#808080" begin="zoomminus.mouseover" end="zoomminus.mouseout"/></use>
    <path d="M-4,0h8" fill="none" stroke="white" stroke-width="1.5" pointer-events="none"/>
  </g>
  <g id="arrowUp" transform="translate(30 24)">
    <use xlink:href="#rim"/>
    <path pointer-events="none" fill="none" stroke="white" stroke-width="1.5" d="M0,-3.0v7 M-2.5,-0.5L0,-3.0L2.5,-0.5"/>
  </g>
  <g id="arrowRight" transform="rotate(90) translate(36 -43)">
    <use xlink:href="#rim"/>
    <path pointer-events="none" fill="none" stroke="white" stroke-width="1.5" d="M0,-3.0v7 M-2.5,-0.5L0,-3.0L2.5,-0.5"/>
  </g>
  <g id="arrowDown" transform="rotate(180) translate(-30 -48)">
    <use xlink:href="#rim"/>
    <path pointer-events="none" fill="none" stroke="white" stroke-width="1.5" d="M0,-3.0v7 M-2.5,-0.5L0,-3.0L2.5,-0.5"/>
  </g>
  <g id="arrowLeft" transform="rotate(270) translate(-36 17)">
    <use xlink:href="#rim"/>
    <path pointer-events="none" fill="none" stroke="white" stroke-width="1.5" d="M0,-3.0v7 M-2.5,-0.5L0,-3.0L2.5,-0.5"/>
  </g>
  <g id="resetDef">
    <use xlink:href="#rim2" fill="#404040"><set attributeName="fill" to="#808080" begin="reset.mouseover" end="reset.mouseout"/></use>
  </g>
</defs>
<script type="application/ecmascript">
var viewWidth = 620;
var viewHeight = 315;
var sectionId = 'dynsection-0';
</script>
<script type="application/ecmascript" xlink:href="svg.min.js"/>
<svg id="graph" class="graph">
<g id="viewport">
<title>iop/system/iopmgr/src/slib.c</title>
<!-- Node1 -->
<g id="Node000001" class="node">
<title>Node1</title>
<g id="a_Node000001"><a xlink:title=" ">
<polygon fill="#999999" stroke="#666666" points="403.12,-306.75 291.12,-306.75 291.12,-276.25 403.12,-276.25 403.12,-306.75"/>
<text text-anchor="start" x="299.12" y="-293.25" font-family="Helvetica,sans-Serif" font-size="10.00">iop/system/iopmgr/src</text>
<text text-anchor="middle" x="347.12" y="-282" font-family="Helvetica,sans-Serif" font-size="10.00">/slib.c</text>
</a>
</g>
</g>
<!-- Node2 -->
<g id="Node000002" class="node">
<title>Node2</title>
<g id="a_Node000002"><a xlink:title=" ">
<polygon fill="#e0e0e0" stroke="#999999" points="303.5,-129.75 256.75,-129.75 256.75,-110.5 303.5,-110.5 303.5,-129.75"/>
<text text-anchor="middle" x="280.12" y="-116.25" font-family="Helvetica,sans-Serif" font-size="10.00">types.h</text>
</a>
</g>
</g>
<!-- Node1&#45;&gt;Node2 -->
<g id="edge1_Node000001_Node000002" class="edge">
<title>Node1&#45;&gt;Node2</title>
<g id="a_edge1_Node000001_Node000002"><a xlink:title=" ">
<path fill="none" stroke="#63b8ff" d="M305.3,-275.83C267.62,-260.03 214.92,-230.8 193.12,-185 180.49,-158.45 216.05,-140.44 245.45,-130.49"/>
<polygon fill="#63b8ff" stroke="#63b8ff" points="246.38,-133.86 254.87,-127.52 244.28,-127.19 246.38,-133.86"/>
</a>
</g>
</g>
<!-- Node3 -->
<g id="Node000003" class="node">
<title>Node3</title>
<g id="a_Node000003"><a xlink:href="defs_8h.html" target="_top" xlink:title=" ">
<polygon fill="white" stroke="#666666" points="146.25,-240.25 104,-240.25 104,-221 146.25,-221 146.25,-240.25"/>
<text text-anchor="middle" x="125.12" y="-226.75" font-family="Helvetica,sans-Serif" font-size="10.00">defs.h</text>
</a>
</g>
</g>
<!-- Node1&#45;&gt;Node3 -->
<g id="edge2_Node000001_Node000003" class="edge">
<title>Node1&#45;&gt;Node3</title>
<g id="a_edge2_Node000001_Node000003"><a xlink:title=" ">
<path fill="none" stroke="#63b8ff" d="M291.68,-275.8C249.45,-264.6 192.76,-249.56 157.61,-240.24"/>
<polygon fill="#63b8ff" stroke="#63b8ff" points="158.59,-236.88 148.03,-237.7 156.8,-243.65 158.59,-236.88"/>
</a>
</g>
</g>
<!-- Node7 -->
<g id="Node000007" class="node">
<title>Node7</title>
<g id="a_Node000007"><a xlink:href="irx_8h.html" target="_top" xlink:title=" ">
<polygon fill="white" stroke="#666666" points="413.75,-129.75 380.5,-129.75 380.5,-110.5 413.75,-110.5 413.75,-129.75"/>
<text text-anchor="middle" x="397.12" y="-116.25" font-family="Helvetica,sans-Serif" font-size="10.00">irx.h</text>
</a>
</g>
</g>
<!-- Node1&#45;&gt;Node7 -->
<g id="edge6_Node000001_Node000007" class="edge">
<title>Node1&#45;&gt;Node7</title>
<g id="a_edge6_Node000001_Node000007"><a xlink:title=" ">
<path fill="none" stroke="#63b8ff" d="M360.58,-275.83C377.17,-256.63 404.48,-221.16 415.12,-185 419.55,-169.95 414.18,-152.85 408.18,-140.13"/>
<polygon fill="#63b8ff" stroke="#63b8ff" points="411.44,-138.8 403.68,-131.58 405.24,-142.06 411.44,-138.8"/>
</a>
</g>
</g>
<!-- Node8 -->
<g id="Node000008" class="node">
<title>Node8</title>
<g id="a_Node000008"><a xlink:href="loadcore_8h.html" target="_top" xlink:title=" ">
<polygon fill="white" stroke="#666666" points="406.25,-185 346,-185 346,-165.75 406.25,-165.75 406.25,-185"/>
<text text-anchor="middle" x="376.12" y="-171.5" font-family="Helvetica,sans-Serif" font-size="10.00">loadcore.h</text>
</a>
</g>
</g>
<!-- Node1&#45;&gt;Node8 -->
<g id="edge8_Node000001_Node000008" class="edge">
<title>Node1&#45;&gt;Node8</title>
<g id="a_edge8_Node000001_Node000008"><a xlink:title=" ">
<path fill="none" stroke="#63b8ff" d="M350.8,-276.05C355.92,-255.9 365.22,-219.31 371.01,-196.5"/>
<polygon fill="#63b8ff" stroke="#63b8ff" points="374.38,-197.47 373.45,-186.91 367.59,-195.74 374.38,-197.47"/>
</a>
</g>
</g>
<!-- Node9 -->
<g id="Node000009" class="node">
<title>Node9</title>
<g id="a_Node000009"><a xlink:href="ioman_8h.html" target="_top" xlink:title=" ">
<polygon fill="white" stroke="#666666" points="252,-185 202.25,-185 202.25,-165.75 252,-165.75 252,-185"/>
<text text-anchor="middle" x="227.12" y="-171.5" font-family="Helvetica,sans-Serif" font-size="10.00">ioman.h</text>
</a>
</g>
</g>
<!-- Node1&#45;&gt;Node9 -->
<g id="edge11_Node000001_Node000009" class="edge">
<title>Node1&#45;&gt;Node9</title>
<g id="a_edge11_Node000001_Node000009"><a xlink:title=" ">
<path fill="none" stroke="#63b8ff" d="M326.45,-275.79C313.51,-266.23 296.77,-253.17 283.12,-240.25 267.62,-225.56 251.73,-207.05 240.86,-193.74"/>
<polygon fill="#63b8ff" stroke="#63b8ff" points="243.85,-191.87 234.85,-186.27 238.4,-196.26 243.85,-191.87"/>
</a>
</g>
</g>
<!-- Node13 -->
<g id="Node000013" class="node">
<title>Node13</title>
<g id="a_Node000013"><a xlink:href="stdio_8h.html" target="_top" xlink:title=" ">
<polygon fill="white" stroke="#666666" points="506.38,-185 461.88,-185 461.88,-165.75 506.38,-165.75 506.38,-185"/>
<text text-anchor="middle" x="484.12" y="-171.5" font-family="Helvetica,sans-Serif" font-size="10.00">stdio.h</text>
</a>
</g>
</g>
<!-- Node1&#45;&gt;Node13 -->
<g id="edge17_Node000001_Node000013" class="edge">
<title>Node1&#45;&gt;Node13</title>
<g id="a_edge17_Node000001_Node000013"><a xlink:title=" ">
<path fill="none" stroke="#63b8ff" d="M390.18,-275.78C409.56,-267.58 431.72,-255.83 448.12,-240.25 461.25,-227.79 470.9,-209.46 476.89,-195.63"/>
<polygon fill="#63b8ff" stroke="#63b8ff" points="479.99,-197.29 480.49,-186.71 473.5,-194.67 479.99,-197.29"/>
</a>
</g>
</g>
<!-- Node15 -->
<g id="Node000015" class="node">
<title>Node15</title>
<g id="a_Node000015"><a xlink:href="sysclib_8h.html" target="_top" xlink:title=" ">
<polygon fill="white" stroke="#666666" points="577.88,-185 524.38,-185 524.38,-165.75 577.88,-165.75 577.88,-185"/>
<text text-anchor="middle" x="551.12" y="-171.5" font-family="Helvetica,sans-Serif" font-size="10.00">sysclib.h</text>
</a>
</g>
</g>
<!-- Node1&#45;&gt;Node15 -->
<g id="edge20_Node000001_Node000015" class="edge">
<title>Node1&#45;&gt;Node15</title>
<g id="a_edge20_Node000001_Node000015"><a xlink:title=" ">
<path fill="none" stroke="#63b8ff" d="M391.51,-275.79C415.54,-266.99 445.31,-254.71 470.12,-240.25 493.66,-226.53 517.83,-206.56 533.57,-192.61"/>
<polygon fill="#63b8ff" stroke="#63b8ff" points="535.59,-195.5 540.67,-186.2 530.9,-190.3 535.59,-195.5"/>
</a>
</g>
</g>
<!-- Node18 -->
<g id="Node000018" class="node">
<title>Node18</title>
<g id="a_Node000018"><a xlink:href="iopmgr_8h.html" target="_top" xlink:title=" ">
<polygon fill="white" stroke="#666666" points="344.5,-240.25 291.75,-240.25 291.75,-221 344.5,-221 344.5,-240.25"/>
<text text-anchor="middle" x="318.12" y="-226.75" font-family="Helvetica,sans-Serif" font-size="10.00">iopmgr.h</text>
</a>
</g>
</g>
<!-- Node1&#45;&gt;Node18 -->
<g id="edge27_Node000001_Node000018" class="edge">
<title>Node1&#45;&gt;Node18</title>
<g id="a_edge27_Node000001_Node000018"><a xlink:title=" ">
<path fill="none" stroke="#63b8ff" d="M339.96,-275.95C336.22,-268.36 331.6,-258.99 327.58,-250.82"/>
<polygon fill="#63b8ff" stroke="#63b8ff" points="330.82,-249.48 323.26,-242.06 324.54,-252.58 330.82,-249.48"/>
</a>
</g>
</g>
<!-- Node4 -->
<g id="Node000004" class="node">
<title>Node4</title>
<g id="a_Node000004"><a xlink:href="iop_2kernel_2include_2types_8h_source.html" target="_top" xlink:title=" ">
<polygon fill="white" stroke="#666666" points="420.5,-74.5 373.75,-74.5 373.75,-55.25 420.5,-55.25 420.5,-74.5"/>
<text text-anchor="middle" x="397.12" y="-61" font-family="Helvetica,sans-Serif" font-size="10.00">types.h</text>
</a>
</g>
</g>
<!-- Node3&#45;&gt;Node4 -->
<g id="edge3_Node000003_Node000004" class="edge">
<title>Node3&#45;&gt;Node4</title>
<g id="a_edge3_Node000003_Node000004"><a xlink:title=" ">
<path fill="none" stroke="#63b8ff" d="M131.73,-220.54C148.51,-198.16 195.18,-140.08 248.12,-110.5 284.39,-90.24 330.88,-78.21 362.21,-71.84"/>
<polygon fill="#63b8ff" stroke="#63b8ff" points="362.78,-75.3 371.93,-69.96 361.45,-68.42 362.78,-75.3"/>
</a>
</g>
</g>
<!-- Node5 -->
<g id="Node000005" class="node">
<title>Node5</title>
<g id="a_Node000005"><a xlink:title=" ">
<polygon fill="#e0e0e0" stroke="#999999" points="422.38,-19.25 371.88,-19.25 371.88,0 422.38,0 422.38,-19.25"/>
<text text-anchor="middle" x="397.12" y="-5.75" font-family="Helvetica,sans-Serif" font-size="10.00">stddef.h</text>
</a>
</g>
</g>
<!-- Node4&#45;&gt;Node5 -->
<g id="edge4_Node000004_Node000005" class="edge">
<title>Node4&#45;&gt;Node5</title>
<g id="a_edge4_Node000004_Node000005"><a xlink:title=" ">
<path fill="none" stroke="#63b8ff" d="M397.12,-55.08C397.12,-48.57 397.12,-39.42 397.12,-31.12"/>
<polygon fill="#63b8ff" stroke="#63b8ff" points="400.63,-31.12 397.13,-21.12 393.63,-31.12 400.63,-31.12"/>
</a>
</g>
</g>
<!-- Node6 -->
<g id="Node000006" class="node">
<title>Node6</title>
<g id="a_Node000006"><a xlink:href="tamtypes_8h.html" target="_top" xlink:title=" ">
<polygon fill="white" stroke="#666666" points="546.75,-19.25 483.5,-19.25 483.5,0 546.75,0 546.75,-19.25"/>
<text text-anchor="middle" x="515.12" y="-5.75" font-family="Helvetica,sans-Serif" font-size="10.00">tamtypes.h</text>
</a>
</g>
</g>
<!-- Node4&#45;&gt;Node6 -->
<g id="edge5_Node000004_Node000006" class="edge">
<title>Node4&#45;&gt;Node6</title>
<g id="a_edge5_Node000004_Node000006"><a xlink:title=" ">
<path fill="none" stroke="#63b8ff" d="M417.14,-54.84C435.62,-46.5 463.33,-34 484.57,-24.41"/>
<polygon fill="#63b8ff" stroke="#63b8ff" points="485.95,-27.63 493.63,-20.33 483.08,-21.25 485.95,-27.63"/>
</a>
</g>
</g>
<!-- Node7&#45;&gt;Node4 -->
<g id="edge7_Node000007_Node000004" class="edge">
<title>Node7&#45;&gt;Node4</title>
<g id="a_edge7_Node000007_Node000004"><a xlink:title=" ">
<path fill="none" stroke="#63b8ff" d="M397.12,-110.33C397.12,-103.82 397.12,-94.67 397.12,-86.37"/>
<polygon fill="#63b8ff" stroke="#63b8ff" points="400.63,-86.37 397.13,-76.37 393.63,-86.37 400.63,-86.37"/>
</a>
</g>
</g>
<!-- Node8&#45;&gt;Node2 -->
<g id="edge9_Node000008_Node000002" class="edge">
<title>Node8&#45;&gt;Node2</title>
<g id="a_edge9_Node000008_Node000002"><a xlink:title=" ">
<path fill="none" stroke="#63b8ff" d="M359.84,-165.34C345.22,-157.23 323.5,-145.18 306.42,-135.71"/>
<polygon fill="#63b8ff" stroke="#63b8ff" points="308.26,-132.73 297.81,-130.94 304.86,-138.85 308.26,-132.73"/>
</a>
</g>
</g>
<!-- Node8&#45;&gt;Node7 -->
<g id="edge10_Node000008_Node000007" class="edge">
<title>Node8&#45;&gt;Node7</title>
<g id="a_edge10_Node000008_Node000007"><a xlink:title=" ">
<path fill="none" stroke="#63b8ff" d="M379.59,-165.58C382.25,-158.84 386.02,-149.27 389.39,-140.74"/>
<polygon fill="#63b8ff" stroke="#63b8ff" points="392.61,-142.1 393.03,-131.52 386.1,-139.54 392.61,-142.1"/>
</a>
</g>
</g>
<!-- Node9&#45;&gt;Node2 -->
<g id="edge12_Node000009_Node000002" class="edge">
<title>Node9&#45;&gt;Node2</title>
<g id="a_edge12_Node000009_Node000002"><a xlink:title=" ">
<path fill="none" stroke="#63b8ff" d="M235.88,-165.58C243.27,-158.15 254.09,-147.29 263.17,-138.16"/>
<polygon fill="#63b8ff" stroke="#63b8ff" points="265.54,-140.74 270.12,-131.18 260.58,-135.8 265.54,-140.74"/>
</a>
</g>
</g>
<!-- Node9&#45;&gt;Node7 -->
<g id="edge13_Node000009_Node000007" class="edge">
<title>Node9&#45;&gt;Node7</title>
<g id="a_edge13_Node000009_Node000007"><a xlink:title=" ">
<path fill="none" stroke="#63b8ff" d="M252.21,-166.52C283.47,-156.73 336.72,-140.05 369.23,-129.86"/>
<polygon fill="#63b8ff" stroke="#63b8ff" points="370.25,-133.21 378.75,-126.88 368.16,-126.53 370.25,-133.21"/>
</a>
</g>
</g>
<!-- Node10 -->
<g id="Node000010" class="node">
<title>Node10</title>
<g id="a_Node000010"><a xlink:href="io__common_8h.html" target="_top" xlink:title=" ">
<polygon fill="white" stroke="#666666" points="108,-129.75 34.25,-129.75 34.25,-110.5 108,-110.5 108,-129.75"/>
<text text-anchor="middle" x="71.12" y="-116.25" font-family="Helvetica,sans-Serif" font-size="10.00">io_common.h</text>
</a>
</g>
</g>
<!-- Node9&#45;&gt;Node10 -->
<g id="edge14_Node000009_Node000010" class="edge">
<title>Node9&#45;&gt;Node10</title>
<g id="a_edge14_Node000009_Node000010"><a xlink:title=" ">
<path fill="none" stroke="#63b8ff" d="M202.06,-165.82C176.71,-157.16 137.22,-143.69 108.24,-133.79"/>
<polygon fill="#63b8ff" stroke="#63b8ff" points="109.72,-130.6 99.13,-130.68 107.46,-137.23 109.72,-130.6"/>
</a>
</g>
</g>
<!-- Node11 -->
<g id="Node000011" class="node">
<title>Node11</title>
<g id="a_Node000011"><a xlink:href="sys_2fcntl_8h_source.html" target="_top" xlink:title=" ">
<polygon fill="white" stroke="#666666" points="60.25,-74.5 0,-74.5 0,-55.25 60.25,-55.25 60.25,-74.5"/>
<text text-anchor="middle" x="30.12" y="-61" font-family="Helvetica,sans-Serif" font-size="10.00">sys/fcntl.h</text>
</a>
</g>
</g>
<!-- Node10&#45;&gt;Node11 -->
<g id="edge15_Node000010_Node000011" class="edge">
<title>Node10&#45;&gt;Node11</title>
<g id="a_edge15_Node000010_Node000011"><a xlink:title=" ">
<path fill="none" stroke="#63b8ff" d="M64.35,-110.33C58.81,-103.13 50.78,-92.71 43.9,-83.76"/>
<polygon fill="#63b8ff" stroke="#63b8ff" points="46.84,-81.85 37.97,-76.06 41.29,-86.12 46.84,-81.85"/>
</a>
</g>
</g>
<!-- Node12 -->
<g id="Node000012" class="node">
<title>Node12</title>
<g id="a_Node000012"><a xlink:href="unistd_8h_source.html" target="_top" xlink:title=" ">
<polygon fill="white" stroke="#666666" points="146,-74.5 78.25,-74.5 78.25,-55.25 146,-55.25 146,-74.5"/>
<text text-anchor="middle" x="112.12" y="-61" font-family="Helvetica,sans-Serif" font-size="10.00">sys/unistd.h</text>
</a>
</g>
</g>
<!-- Node10&#45;&gt;Node12 -->
<g id="edge16_Node000010_Node000012" class="edge">
<title>Node10&#45;&gt;Node12</title>
<g id="a_edge16_Node000010_Node000012"><a xlink:title=" ">
<path fill="none" stroke="#63b8ff" d="M77.9,-110.33C83.44,-103.13 91.47,-92.71 98.35,-83.76"/>
<polygon fill="#63b8ff" stroke="#63b8ff" points="100.96,-86.12 104.28,-76.06 95.41,-81.85 100.96,-86.12"/>
</a>
</g>
</g>
<!-- Node13&#45;&gt;Node7 -->
<g id="edge19_Node000013_Node000007" class="edge">
<title>Node13&#45;&gt;Node7</title>
<g id="a_edge19_Node000013_Node000007"><a xlink:title=" ">
<path fill="none" stroke="#63b8ff" d="M469.37,-165.34C456.24,-157.31 436.8,-145.41 421.39,-135.98"/>
<polygon fill="#63b8ff" stroke="#63b8ff" points="423.6,-133.23 413.25,-130.99 419.95,-139.2 423.6,-133.23"/>
</a>
</g>
</g>
<!-- Node14 -->
<g id="Node000014" class="node">
<title>Node14</title>
<g id="a_Node000014"><a xlink:title=" ">
<polygon fill="#e0e0e0" stroke="#999999" points="509.38,-129.75 458.88,-129.75 458.88,-110.5 509.38,-110.5 509.38,-129.75"/>
<text text-anchor="middle" x="484.12" y="-116.25" font-family="Helvetica,sans-Serif" font-size="10.00">stdarg.h</text>
</a>
</g>
</g>
<!-- Node13&#45;&gt;Node14 -->
<g id="edge18_Node000013_Node000014" class="edge">
<title>Node13&#45;&gt;Node14</title>
<g id="a_edge18_Node000013_Node000014"><a xlink:title=" ">
<path fill="none" stroke="#63b8ff" d="M484.12,-165.58C484.12,-159.07 484.12,-149.92 484.12,-141.62"/>
<polygon fill="#63b8ff" stroke="#63b8ff" points="487.63,-141.62 484.13,-131.62 480.63,-141.62 487.63,-141.62"/>
</a>
</g>
</g>
<!-- Node15&#45;&gt;Node2 -->
<g id="edge21_Node000015_Node000002" class="edge">
<title>Node15&#45;&gt;Node2</title>
<g id="a_edge21_Node000015_Node000002"><a xlink:title=" ">
<path fill="none" stroke="#63b8ff" d="M524.03,-167.74C521.03,-167.05 518.02,-166.37 515.12,-165.75 444.34,-150.56 360.99,-135.36 315.01,-127.21"/>
<polygon fill="#63b8ff" stroke="#63b8ff" points="315.83,-123.81 305.37,-125.51 314.61,-130.7 315.83,-123.81"/>
</a>
</g>
</g>
<!-- Node15&#45;&gt;Node7 -->
<g id="edge22_Node000015_Node000007" class="edge">
<title>Node15&#45;&gt;Node7</title>
<g id="a_edge22_Node000015_Node000007"><a xlink:title=" ">
<path fill="none" stroke="#63b8ff" d="M525,-165.34C497.09,-155.69 453.05,-140.46 424.63,-130.63"/>
<polygon fill="#63b8ff" stroke="#63b8ff" points="425.88,-127.36 415.28,-127.4 423.59,-133.98 425.88,-127.36"/>
</a>
</g>
</g>
<!-- Node15&#45;&gt;Node14 -->
<g id="edge23_Node000015_Node000014" class="edge">
<title>Node15&#45;&gt;Node14</title>
<g id="a_edge23_Node000015_Node000014"><a xlink:title=" ">
<path fill="none" stroke="#63b8ff" d="M539.76,-165.34C530.08,-157.65 515.93,-146.4 504.32,-137.18"/>
<polygon fill="#63b8ff" stroke="#63b8ff" points="506.51,-134.45 496.51,-130.97 502.16,-139.93 506.51,-134.45"/>
</a>
</g>
</g>
<!-- Node16 -->
<g id="Node000016" class="node">
<title>Node16</title>
<g id="a_Node000016"><a xlink:href="setjmp_8h.html" target="_top" xlink:title=" ">
<polygon fill="white" stroke="#666666" points="552.5,-74.5 499.75,-74.5 499.75,-55.25 552.5,-55.25 552.5,-74.5"/>
<text text-anchor="middle" x="526.12" y="-61" font-family="Helvetica,sans-Serif" font-size="10.00">setjmp.h</text>
</a>
</g>
</g>
<!-- Node15&#45;&gt;Node16 -->
<g id="edge24_Node000015_Node000016" class="edge">
<title>Node15&#45;&gt;Node16</title>
<g id="a_edge24_Node000015_Node000016"><a xlink:title=" ">
<path fill="none" stroke="#63b8ff" d="M549.08,-165.5C545.11,-148.25 536.25,-109.83 530.78,-86.06"/>
<polygon fill="#63b8ff" stroke="#63b8ff" points="534.19,-85.31 528.54,-76.35 527.37,-86.88 534.19,-85.31"/>
</a>
</g>
</g>
<!-- Node17 -->
<g id="Node000017" class="node">
<title>Node17</title>
<g id="a_Node000017"><a xlink:href="ctype_8h.html" target="_top" xlink:title=" ">
<polygon fill="white" stroke="#666666" points="611.5,-129.75 564.75,-129.75 564.75,-110.5 611.5,-110.5 611.5,-129.75"/>
<text text-anchor="middle" x="588.12" y="-116.25" font-family="Helvetica,sans-Serif" font-size="10.00">ctype.h</text>
</a>
</g>
</g>
<!-- Node15&#45;&gt;Node17 -->
<g id="edge26_Node000015_Node000017" class="edge">
<title>Node15&#45;&gt;Node17</title>
<g id="a_edge26_Node000015_Node000017"><a xlink:title=" ">
<path fill="none" stroke="#63b8ff" d="M557.23,-165.58C562.19,-158.46 569.33,-148.18 575.5,-139.3"/>
<polygon fill="#63b8ff" stroke="#63b8ff" points="578.19,-141.56 581.02,-131.35 572.44,-137.57 578.19,-141.56"/>
</a>
</g>
</g>
<!-- Node16&#45;&gt;Node6 -->
<g id="edge25_Node000016_Node000006" class="edge">
<title>Node16&#45;&gt;Node6</title>
<g id="a_edge25_Node000016_Node000006"><a xlink:title=" ">
<path fill="none" stroke="#63b8ff" d="M524.31,-55.08C522.95,-48.49 521.03,-39.21 519.3,-30.82"/>
<polygon fill="#63b8ff" stroke="#63b8ff" points="522.74,-30.18 517.29,-21.09 515.88,-31.59 522.74,-30.18"/>
</a>
</g>
</g>
<!-- Node18&#45;&gt;Node2 -->
<g id="edge28_Node000018_Node000002" class="edge">
<title>Node18&#45;&gt;Node2</title>
<g id="a_edge28_Node000018_Node000002"><a xlink:title=" ">
<path fill="none" stroke="#63b8ff" d="M315.02,-220.75C308.95,-203.42 295.4,-164.73 287.08,-140.99"/>
<polygon fill="#63b8ff" stroke="#63b8ff" points="290.39,-139.84 283.78,-131.56 283.78,-142.15 290.39,-139.84"/>
</a>
</g>
</g>
<!-- Node18&#45;&gt;Node7 -->
<g id="edge29_Node000018_Node000007" class="edge">
<title>Node18&#45;&gt;Node7</title>
<g id="a_edge29_Node000018_Node000007"><a xlink:title=" ">
<path fill="none" stroke="#63b8ff" d="M319,-220.59C320.65,-207.46 325.19,-182.82 337.12,-165.75 345.7,-153.49 358.71,-143.22 370.43,-135.64"/>
<polygon fill="#63b8ff" stroke="#63b8ff" points="372.22,-138.65 378.96,-130.47 368.59,-132.66 372.22,-138.65"/>
</a>
</g>
</g>
<!-- Node18&#45;&gt;Node8 -->
<g id="edge31_Node000018_Node000008" class="edge">
<title>Node18&#45;&gt;Node8</title>
<g id="a_edge31_Node000018_Node000008"><a xlink:title=" ">
<path fill="none" stroke="#63b8ff" d="M327.96,-220.59C336.18,-213.05 348.11,-202.1 358.04,-192.98"/>
<polygon fill="#63b8ff" stroke="#63b8ff" points="360.32,-195.64 365.32,-186.3 355.58,-190.48 360.32,-195.64"/>
</a>
</g>
</g>
<!-- Node18&#45;&gt;Node9 -->
<g id="edge30_Node000018_Node000009" class="edge">
<title>Node18&#45;&gt;Node9</title>
<g id="a_edge30_Node000018_Node000009"><a xlink:title=" ">
<path fill="none" stroke="#63b8ff" d="M302.69,-220.59C288.96,-212.56 268.63,-200.66 252.51,-191.23"/>
<polygon fill="#63b8ff" stroke="#63b8ff" points="254.34,-188.25 243.94,-186.22 250.81,-194.29 254.34,-188.25"/>
</a>
</g>
</g>
</g>
</svg>

<g id="navigator" transform="translate(0 0)" fill="#404254">
  <rect fill="#f2f5e9" fill-opacity="0.5" stroke="#606060" stroke-width=".5" x="0" y="0" width="60" height="60"/>
  <use id="zoomplus" xlink:href="#zoomPlus" x="17" y="9" onmousedown="handleZoom(evt,'in')"/>
  <use id="zoomminus" xlink:href="#zoomMin" x="42" y="9" onmousedown="handleZoom(evt,'out')"/>
  <use id="reset" xlink:href="#resetDef" x="30" y="36" onmousedown="handleReset()"/>
   <use id="arrowup" xlink:href="#arrowUp" x="0" y="0" onmousedown="handlePan(0,-1)"/>
  <use id="arrowright" xlink:href="#arrowRight" x="0" y="0" onmousedown="handlePan(1,0)"/>
  <use id="arrowdown" xlink:href="#arrowDown" x="0" y="0" onmousedown="handlePan(0,1)"/>
  <use id="arrowleft" xlink:href="#arrowLeft" x="0" y="0" onmousedown="handlePan(-1,0)"/>
</g>
<svg viewBox="0 0 15 15" width="100%" height="30px" preserveAspectRatio="xMaxYMin meet">
 <g id="arrow_out" transform="scale(0.3 0.3)">
  <a xlink:href="iop_2system_2iopmgr_2src_2slib_8c__incl_org.svg" target="_base">
   <rect id="button" ry="5" rx="5" y="6" x="6" height="38" width="38"
        fill="#f2f5e9" fill-opacity="0.5" stroke="#606060" stroke-width="1.0"/>
   <path id="arrow"
     d="M 11.500037,31.436501 C 11.940474,20.09759 22.043105,11.32322 32.158766,21.979434 L 37.068811,17.246167 C 37.068811,17.246167 37.088388,32 37.088388,32 L 22.160133,31.978069 C 22.160133,31.978069 26.997745,27.140456 26.997745,27.140456 C 18.528582,18.264221 13.291696,25.230495 11.500037,31.436501 z"
     style="fill:#404040;"/>
  </a>
 </g>
</svg>

<style type='text/css'>
<![CDATA[
[data-mouse-over-selected='false'] { opacity: 0.7; }
[data-mouse-over-selected='true']  { opacity: 1.0; }
]]>
</style>
<script type="application/ecmascript"><![CDATA[
document.addEventListener('DOMContentLoaded', (event) => {
  highlightEdges();
  highlightAdjacentNodes();
});
]]></script>
</svg>
