<?xml version="1.0" encoding="UTF-8" standalone="no"?>
<!DOCTYPE svg PUBLIC "-//W3C//DTD SVG 1.1//EN"
 "http://www.w3.org/Graphics/SVG/1.1/DTD/svg11.dtd">
<!-- Generated by graphviz version 2.44.0 ()
 -->
<!-- Title: iop/debug/iopdebug/src/iop_debug.c Pages: 1 -->
<svg width="515pt" height="319pt"
 viewBox="0.00 0.00 515.00 319.00" xmlns="http://www.w3.org/2000/svg" xmlns:xlink="http://www.w3.org/1999/xlink">
<g id="graph0" class="graph" transform="scale(1 1) rotate(0) translate(4 315)">
<title>iop/debug/iopdebug/src/iop_debug.c</title>
<polygon fill="white" stroke="transparent" points="-4,4 -4,-315 511,-315 511,4 -4,4"/>
<!-- Node1 -->
<g id="node1" class="node">
<title>Node1</title>
<g id="a_node1"><a xlink:title=" ">
<polygon fill="#bfbfbf" stroke="black" points="207.5,-280.5 207.5,-310.5 308.5,-310.5 308.5,-280.5 207.5,-280.5"/>
<text text-anchor="start" x="215.5" y="-298.5" font-family="Helvetica,sans-Serif" font-size="10.00">iop/debug/iopdebug</text>
<text text-anchor="middle" x="258" y="-287.5" font-family="Helvetica,sans-Serif" font-size="10.00">/src/iop_debug.c</text>
</a>
</g>
</g>
<!-- Node2 -->
<g id="node2" class="node">
<title>Node2</title>
<g id="a_node2"><a xlink:href="tamtypes_8h.html" target="_top" xlink:title=" ">
<polygon fill="white" stroke="black" points="62,-0.5 62,-19.5 126,-19.5 126,-0.5 62,-0.5"/>
<text text-anchor="middle" x="94" y="-7.5" font-family="Helvetica,sans-Serif" font-size="10.00">tamtypes.h</text>
</a>
</g>
</g>
<!-- Node1&#45;&gt;Node2 -->
<g id="edge1" class="edge">
<title>Node1&#45;&gt;Node2</title>
<path fill="none" stroke="midnightblue" d="M207.34,-293.61C132.2,-289.29 0,-268.93 0,-179 0,-179 0,-179 0,-121 0,-77.93 42.16,-43.21 70.01,-24.98"/>
<polygon fill="midnightblue" stroke="midnightblue" points="71.88,-27.94 78.48,-19.65 68.15,-22.01 71.88,-27.94"/>
</g>
<!-- Node3 -->
<g id="node3" class="node">
<title>Node3</title>
<g id="a_node3"><a xlink:href="excepman_8h.html" target="_top" xlink:title=" ">
<polygon fill="white" stroke="black" points="439,-168.5 439,-187.5 507,-187.5 507,-168.5 439,-168.5"/>
<text text-anchor="middle" x="473" y="-175.5" font-family="Helvetica,sans-Serif" font-size="10.00">excepman.h</text>
</a>
</g>
</g>
<!-- Node1&#45;&gt;Node3 -->
<g id="edge2" class="edge">
<title>Node1&#45;&gt;Node3</title>
<path fill="none" stroke="midnightblue" d="M280.22,-280.27C303.65,-265.5 341.83,-242.07 376,-224 398.32,-212.2 424.31,-200.23 443.76,-191.61"/>
<polygon fill="midnightblue" stroke="midnightblue" points="445.27,-194.77 453.01,-187.54 442.45,-188.36 445.27,-194.77"/>
</g>
<!-- Node7 -->
<g id="node7" class="node">
<title>Node7</title>
<g id="a_node7"><a xlink:href="iop__cop0__defs_8h.html" target="_top" xlink:title=" ">
<polygon fill="white" stroke="black" points="333.5,-168.5 333.5,-187.5 420.5,-187.5 420.5,-168.5 333.5,-168.5"/>
<text text-anchor="middle" x="377" y="-175.5" font-family="Helvetica,sans-Serif" font-size="10.00">iop_cop0_defs.h</text>
</a>
</g>
</g>
<!-- Node1&#45;&gt;Node7 -->
<g id="edge8" class="edge">
<title>Node1&#45;&gt;Node7</title>
<path fill="none" stroke="midnightblue" d="M272.59,-280.34C294.91,-258.68 337.38,-217.45 360.69,-194.83"/>
<polygon fill="midnightblue" stroke="midnightblue" points="363.33,-197.15 368.07,-187.67 358.45,-192.12 363.33,-197.15"/>
</g>
<!-- Node8 -->
<g id="node8" class="node">
<title>Node8</title>
<g id="a_node8"><a xlink:href="ps2__debug_8h.html" target="_top" xlink:title=" ">
<polygon fill="white" stroke="black" points="28.5,-168.5 28.5,-187.5 99.5,-187.5 99.5,-168.5 28.5,-168.5"/>
<text text-anchor="middle" x="64" y="-175.5" font-family="Helvetica,sans-Serif" font-size="10.00">ps2_debug.h</text>
</a>
</g>
</g>
<!-- Node1&#45;&gt;Node8 -->
<g id="edge9" class="edge">
<title>Node1&#45;&gt;Node8</title>
<path fill="none" stroke="midnightblue" d="M207.37,-284.08C178.41,-276.37 142.49,-263.73 115,-244 97.58,-231.5 83.11,-211.43 74.09,-196.9"/>
<polygon fill="midnightblue" stroke="midnightblue" points="76.86,-194.7 68.75,-187.88 70.83,-198.27 76.86,-194.7"/>
</g>
<!-- Node9 -->
<g id="node9" class="node">
<title>Node9</title>
<g id="a_node9"><a xlink:href="iopdebug_8h.html" target="_top" xlink:title=" ">
<polygon fill="white" stroke="black" points="226.5,-224.5 226.5,-243.5 289.5,-243.5 289.5,-224.5 226.5,-224.5"/>
<text text-anchor="middle" x="258" y="-231.5" font-family="Helvetica,sans-Serif" font-size="10.00">iopdebug.h</text>
</a>
</g>
</g>
<!-- Node1&#45;&gt;Node9 -->
<g id="edge11" class="edge">
<title>Node1&#45;&gt;Node9</title>
<path fill="none" stroke="midnightblue" d="M258,-280.4C258,-272.47 258,-262.46 258,-253.86"/>
<polygon fill="midnightblue" stroke="midnightblue" points="261.5,-253.66 258,-243.66 254.5,-253.66 261.5,-253.66"/>
</g>
<!-- Node11 -->
<g id="node11" class="node">
<title>Node11</title>
<g id="a_node11"><a xlink:href="iopdebug__priv_8h.html" target="_top" xlink:title=" ">
<polygon fill="white" stroke="black" points="124,-224.5 124,-243.5 208,-243.5 208,-224.5 124,-224.5"/>
<text text-anchor="middle" x="166" y="-231.5" font-family="Helvetica,sans-Serif" font-size="10.00">iopdebug_priv.h</text>
</a>
</g>
</g>
<!-- Node1&#45;&gt;Node11 -->
<g id="edge16" class="edge">
<title>Node1&#45;&gt;Node11</title>
<path fill="none" stroke="midnightblue" d="M236.2,-280.4C221.59,-270.95 202.43,-258.56 187.82,-249.11"/>
<polygon fill="midnightblue" stroke="midnightblue" points="189.68,-246.15 179.39,-243.66 185.88,-252.03 189.68,-246.15"/>
</g>
<!-- Node13 -->
<g id="node13" class="node">
<title>Node13</title>
<g id="a_node13"><a xlink:href="iopdebug__defs_8h.html" target="_top" xlink:title=" ">
<polygon fill="white" stroke="black" points="384.5,-224.5 384.5,-243.5 471.5,-243.5 471.5,-224.5 384.5,-224.5"/>
<text text-anchor="middle" x="428" y="-231.5" font-family="Helvetica,sans-Serif" font-size="10.00">iopdebug_defs.h</text>
</a>
</g>
</g>
<!-- Node1&#45;&gt;Node13 -->
<g id="edge21" class="edge">
<title>Node1&#45;&gt;Node13</title>
<path fill="none" stroke="midnightblue" d="M298.29,-280.4C327.32,-270.24 366.08,-256.67 393.65,-247.02"/>
<polygon fill="midnightblue" stroke="midnightblue" points="394.98,-250.26 403.26,-243.66 392.67,-243.66 394.98,-250.26"/>
</g>
<!-- Node4 -->
<g id="node4" class="node">
<title>Node4</title>
<g id="a_node4"><a xlink:href="types_8h_source.html" target="_top" xlink:title=" ">
<polygon fill="white" stroke="black" points="173.5,-56.5 173.5,-75.5 220.5,-75.5 220.5,-56.5 173.5,-56.5"/>
<text text-anchor="middle" x="197" y="-63.5" font-family="Helvetica,sans-Serif" font-size="10.00">types.h</text>
</a>
</g>
</g>
<!-- Node3&#45;&gt;Node4 -->
<g id="edge3" class="edge">
<title>Node3&#45;&gt;Node4</title>
<path fill="none" stroke="midnightblue" d="M451.34,-168.37C402.67,-148.97 284.49,-101.87 228.03,-79.37"/>
<polygon fill="midnightblue" stroke="midnightblue" points="229.14,-76.04 218.56,-75.59 226.55,-82.55 229.14,-76.04"/>
</g>
<!-- Node6 -->
<g id="node6" class="node">
<title>Node6</title>
<g id="a_node6"><a xlink:href="irx_8h.html" target="_top" xlink:title=" ">
<polygon fill="white" stroke="black" points="220,-112.5 220,-131.5 254,-131.5 254,-112.5 220,-112.5"/>
<text text-anchor="middle" x="237" y="-119.5" font-family="Helvetica,sans-Serif" font-size="10.00">irx.h</text>
</a>
</g>
</g>
<!-- Node3&#45;&gt;Node6 -->
<g id="edge6" class="edge">
<title>Node3&#45;&gt;Node6</title>
<path fill="none" stroke="midnightblue" d="M438.94,-169.21C391.65,-158.39 307.07,-139.03 263.92,-129.16"/>
<polygon fill="midnightblue" stroke="midnightblue" points="264.67,-125.74 254.14,-126.92 263.11,-132.56 264.67,-125.74"/>
</g>
<!-- Node4&#45;&gt;Node2 -->
<g id="edge5" class="edge">
<title>Node4&#45;&gt;Node2</title>
<path fill="none" stroke="midnightblue" d="M180.45,-56.32C164.01,-47.7 138.57,-34.36 119.53,-24.39"/>
<polygon fill="midnightblue" stroke="midnightblue" points="120.99,-21.2 110.51,-19.65 117.74,-27.4 120.99,-21.2"/>
</g>
<!-- Node5 -->
<g id="node5" class="node">
<title>Node5</title>
<g id="a_node5"><a xlink:title=" ">
<polygon fill="white" stroke="#bfbfbf" points="171.5,-0.5 171.5,-19.5 222.5,-19.5 222.5,-0.5 171.5,-0.5"/>
<text text-anchor="middle" x="197" y="-7.5" font-family="Helvetica,sans-Serif" font-size="10.00">stddef.h</text>
</a>
</g>
</g>
<!-- Node4&#45;&gt;Node5 -->
<g id="edge4" class="edge">
<title>Node4&#45;&gt;Node5</title>
<path fill="none" stroke="midnightblue" d="M197,-56.08C197,-49.01 197,-38.86 197,-29.99"/>
<polygon fill="midnightblue" stroke="midnightblue" points="200.5,-29.75 197,-19.75 193.5,-29.75 200.5,-29.75"/>
</g>
<!-- Node6&#45;&gt;Node4 -->
<g id="edge7" class="edge">
<title>Node6&#45;&gt;Node4</title>
<path fill="none" stroke="midnightblue" d="M230.39,-112.08C224.74,-104.46 216.46,-93.26 209.55,-83.94"/>
<polygon fill="midnightblue" stroke="midnightblue" points="212.25,-81.7 203.48,-75.75 206.62,-85.87 212.25,-81.7"/>
</g>
<!-- Node8&#45;&gt;Node2 -->
<g id="edge10" class="edge">
<title>Node8&#45;&gt;Node2</title>
<path fill="none" stroke="midnightblue" d="M65.61,-168.08C70.34,-141.95 84.2,-65.21 90.64,-29.58"/>
<polygon fill="midnightblue" stroke="midnightblue" points="94.12,-30.03 92.45,-19.57 87.23,-28.79 94.12,-30.03"/>
</g>
<!-- Node9&#45;&gt;Node6 -->
<g id="edge13" class="edge">
<title>Node9&#45;&gt;Node6</title>
<path fill="none" stroke="midnightblue" d="M256.35,-224.37C252.96,-206.62 245.15,-165.67 240.55,-141.6"/>
<polygon fill="midnightblue" stroke="midnightblue" points="243.95,-140.76 238.64,-131.59 237.08,-142.07 243.95,-140.76"/>
</g>
<!-- Node9&#45;&gt;Node7 -->
<g id="edge14" class="edge">
<title>Node9&#45;&gt;Node7</title>
<path fill="none" stroke="midnightblue" d="M276.86,-224.44C296.27,-215.64 326.73,-201.81 348.96,-191.72"/>
<polygon fill="midnightblue" stroke="midnightblue" points="350.57,-194.84 358.23,-187.52 347.68,-188.46 350.57,-194.84"/>
</g>
<!-- Node9&#45;&gt;Node8 -->
<g id="edge15" class="edge">
<title>Node9&#45;&gt;Node8</title>
<path fill="none" stroke="midnightblue" d="M227.26,-224.44C194.06,-215.2 141.01,-200.44 104.44,-190.26"/>
<polygon fill="midnightblue" stroke="midnightblue" points="105.17,-186.83 94.6,-187.52 103.29,-193.57 105.17,-186.83"/>
</g>
<!-- Node10 -->
<g id="node10" class="node">
<title>Node10</title>
<g id="a_node10"><a xlink:title=" ">
<polygon fill="white" stroke="#bfbfbf" points="268.5,-168.5 268.5,-187.5 315.5,-187.5 315.5,-168.5 268.5,-168.5"/>
<text text-anchor="middle" x="292" y="-175.5" font-family="Helvetica,sans-Serif" font-size="10.00">types.h</text>
</a>
</g>
</g>
<!-- Node9&#45;&gt;Node10 -->
<g id="edge12" class="edge">
<title>Node9&#45;&gt;Node10</title>
<path fill="none" stroke="midnightblue" d="M263.61,-224.08C268.37,-216.53 275.32,-205.49 281.15,-196.23"/>
<polygon fill="midnightblue" stroke="midnightblue" points="284.12,-198.08 286.49,-187.75 278.2,-194.35 284.12,-198.08"/>
</g>
<!-- Node11&#45;&gt;Node2 -->
<g id="edge17" class="edge">
<title>Node11&#45;&gt;Node2</title>
<path fill="none" stroke="midnightblue" d="M162.08,-224.48C158.02,-215.51 151.65,-200.93 147,-188 126.51,-131.03 107.42,-61.85 98.81,-29.43"/>
<polygon fill="midnightblue" stroke="midnightblue" points="102.15,-28.36 96.21,-19.58 95.38,-30.14 102.15,-28.36"/>
</g>
<!-- Node12 -->
<g id="node12" class="node">
<title>Node12</title>
<g id="a_node12"><a xlink:href="intrman_8h.html" target="_top" xlink:title=" ">
<polygon fill="white" stroke="black" points="156,-168.5 156,-187.5 212,-187.5 212,-168.5 156,-168.5"/>
<text text-anchor="middle" x="184" y="-175.5" font-family="Helvetica,sans-Serif" font-size="10.00">intrman.h</text>
</a>
</g>
</g>
<!-- Node11&#45;&gt;Node12 -->
<g id="edge18" class="edge">
<title>Node11&#45;&gt;Node12</title>
<path fill="none" stroke="midnightblue" d="M168.97,-224.08C171.38,-216.85 174.86,-206.41 177.87,-197.4"/>
<polygon fill="midnightblue" stroke="midnightblue" points="181.24,-198.34 181.08,-187.75 174.6,-196.13 181.24,-198.34"/>
</g>
<!-- Node12&#45;&gt;Node4 -->
<g id="edge19" class="edge">
<title>Node12&#45;&gt;Node4</title>
<path fill="none" stroke="midnightblue" d="M185.02,-168.37C187.12,-150.62 191.96,-109.67 194.8,-85.6"/>
<polygon fill="midnightblue" stroke="midnightblue" points="198.29,-85.93 195.98,-75.59 191.34,-85.11 198.29,-85.93"/>
</g>
<!-- Node12&#45;&gt;Node6 -->
<g id="edge20" class="edge">
<title>Node12&#45;&gt;Node6</title>
<path fill="none" stroke="midnightblue" d="M192.75,-168.08C200.47,-160.22 211.9,-148.57 221.22,-139.08"/>
<polygon fill="midnightblue" stroke="midnightblue" points="223.9,-141.34 228.41,-131.75 218.91,-136.44 223.9,-141.34"/>
</g>
</g>
</svg>
