<?xml version="1.0" encoding="UTF-8" standalone="no"?>
<!DOCTYPE svg PUBLIC "-//W3C//DTD SVG 1.1//EN"
 "http://www.w3.org/Graphics/SVG/1.1/DTD/svg11.dtd">
<!-- Generated by graphviz version 9.0.0 (20230911.1827)
 -->
<!-- Title: common/include/iop_regs.h Pages: 1 -->
<!--zoomable 238 -->

<svg id="main" version="1.1" xmlns="http://www.w3.org/2000/svg" xmlns:xlink="http://www.w3.org/1999/xlink" xml:space="preserve" onload="init(evt)">
<style type="text/css"><![CDATA[
.node, .edge {opacity: 0.7;}
.node.selected, .edge.selected {opacity: 1;}
.edge:hover path { stroke: red; }
.edge:hover polygon { stroke: red; fill: red; }
]]></style>

<defs>
  <circle id="rim" cx="0" cy="0" r="7"/>
  <circle id="rim2" cx="0" cy="0" r="3.5"/>
  <g id="zoomPlus">
    <use xlink:href="#rim" fill="#404040"><set attributeName="fill" to="#808080" begin="zoomplus.mouseover" end="zoomplus.mouseout"/></use>
    <path d="M-4,0h8M0,-4v8" fill="none" stroke="white" stroke-width="1.5" pointer-events="none"/>
  </g>
  <g id="zoomMin">
    <use xlink:href="#rim" fill="#404040"><set attributeName="fill" to="#808080" begin="zoomminus.mouseover" end="zoomminus.mouseout"/></use>
    <path d="M-4,0h8" fill="none" stroke="white" stroke-width="1.5" pointer-events="none"/>
  </g>
  <g id="arrowUp" transform="translate(30 24)">
    <use xlink:href="#rim"/>
    <path pointer-events="none" fill="none" stroke="white" stroke-width="1.5" d="M0,-3.0v7 M-2.5,-0.5L0,-3.0L2.5,-0.5"/>
  </g>
  <g id="arrowRight" transform="rotate(90) translate(36 -43)">
    <use xlink:href="#rim"/>
    <path pointer-events="none" fill="none" stroke="white" stroke-width="1.5" d="M0,-3.0v7 M-2.5,-0.5L0,-3.0L2.5,-0.5"/>
  </g>
  <g id="arrowDown" transform="rotate(180) translate(-30 -48)">
    <use xlink:href="#rim"/>
    <path pointer-events="none" fill="none" stroke="white" stroke-width="1.5" d="M0,-3.0v7 M-2.5,-0.5L0,-3.0L2.5,-0.5"/>
  </g>
  <g id="arrowLeft" transform="rotate(270) translate(-36 17)">
    <use xlink:href="#rim"/>
    <path pointer-events="none" fill="none" stroke="white" stroke-width="1.5" d="M0,-3.0v7 M-2.5,-0.5L0,-3.0L2.5,-0.5"/>
  </g>
  <g id="resetDef">
    <use xlink:href="#rim2" fill="#404040"><set attributeName="fill" to="#808080" begin="reset.mouseover" end="reset.mouseout"/></use>
  </g>
</defs>
<script type="application/ecmascript">
var viewWidth = 1581;
var viewHeight = 238;
var sectionId = 'dynsection-1';
</script>
<script type="application/ecmascript" xlink:href="svg.min.js"/>
<svg id="graph" class="graph">
<g id="viewport">
<title>common/include/iop_regs.h</title>
<!-- Node1 -->
<g id="Node000001" class="node">
<title>Node1</title>
<g id="a_Node000001"><a xlink:title=" ">
<polygon fill="#999999" stroke="#666666" points="1433.88,-230 1330.88,-230 1330.88,-199.5 1433.88,-199.5 1433.88,-230"/>
<text text-anchor="start" x="1338.88" y="-216.5" font-family="Helvetica,sans-Serif" font-size="10.00">common/include/iop</text>
<text text-anchor="middle" x="1382.38" y="-205.25" font-family="Helvetica,sans-Serif" font-size="10.00">_regs.h</text>
</a>
</g>
</g>
<!-- Node2 -->
<g id="Node000002" class="node">
<title>Node2</title>
<g id="a_Node000002"><a xlink:href="ps2__reg__defs_8h.html" target="_top" xlink:title=" ">
<polygon fill="white" stroke="#666666" points="622.38,-163.5 516.38,-163.5 516.38,-133 622.38,-133 622.38,-163.5"/>
<text text-anchor="start" x="524.38" y="-150" font-family="Helvetica,sans-Serif" font-size="10.00">common/include/ps2</text>
<text text-anchor="middle" x="569.38" y="-138.75" font-family="Helvetica,sans-Serif" font-size="10.00">_reg_defs.h</text>
</a>
</g>
</g>
<!-- Node1&#45;&gt;Node2 -->
<g id="edge1_Node000001_Node000002" class="edge">
<title>Node1&#45;&gt;Node2</title>
<g id="a_edge1_Node000001_Node000002"><a xlink:title=" ">
<path fill="none" stroke="#63b8ff" d="M1319.43,-208.76C1164.51,-196.47 766.93,-164.92 622.67,-153.48"/>
<polygon fill="#63b8ff" stroke="#63b8ff" points="1318.84,-212.22 1329.08,-209.52 1319.39,-205.24 1318.84,-212.22"/>
</a>
</g>
</g>
<!-- Node7 -->
<g id="Node000007" class="node">
<title>Node7</title>
<g id="a_Node000007"><a xlink:href="iop__sif2_8c_source.html" target="_top" xlink:title=" ">
<polygon fill="white" stroke="#666666" points="1573.25,-30.5 1463.5,-30.5 1463.5,0 1573.25,0 1573.25,-30.5"/>
<text text-anchor="start" x="1471.5" y="-17" font-family="Helvetica,sans-Serif" font-size="10.00">common/sbus/src/iop</text>
<text text-anchor="middle" x="1518.38" y="-5.75" font-family="Helvetica,sans-Serif" font-size="10.00">_sif2.c</text>
</a>
</g>
</g>
<!-- Node1&#45;&gt;Node7 -->
<g id="edge30_Node000001_Node000007" class="edge">
<title>Node1&#45;&gt;Node7</title>
<g id="a_edge30_Node000001_Node000007"><a xlink:title=" ">
<path fill="none" stroke="#63b8ff" d="M1384.74,-188.13C1387.13,-171.57 1391.89,-150 1401.38,-133 1425.84,-89.14 1471.53,-50.69 1497.99,-30.75"/>
<polygon fill="#63b8ff" stroke="#63b8ff" points="1381.31,-187.32 1383.57,-197.67 1388.26,-188.17 1381.31,-187.32"/>
</a>
</g>
</g>
<!-- Node17 -->
<g id="Node000017" class="node">
<title>Node17</title>
<g id="a_Node000017"><a xlink:href="iop_2debug_2ppctty_2src_2main_8c_source.html" target="_top" xlink:title=" ">
<polygon fill="white" stroke="#666666" points="1514.25,-163.5 1410.5,-163.5 1410.5,-133 1514.25,-133 1514.25,-163.5"/>
<text text-anchor="start" x="1418.5" y="-150" font-family="Helvetica,sans-Serif" font-size="10.00">iop/debug/ppctty/src</text>
<text text-anchor="middle" x="1462.38" y="-138.75" font-family="Helvetica,sans-Serif" font-size="10.00">/main.c</text>
</a>
</g>
</g>
<!-- Node1&#45;&gt;Node17 -->
<g id="edge31_Node000001_Node000017" class="edge">
<title>Node1&#45;&gt;Node17</title>
<g id="a_edge31_Node000001_Node000017"><a xlink:title=" ">
<path fill="none" stroke="#63b8ff" d="M1409.33,-192.02C1420.84,-182.73 1433.98,-172.15 1444.29,-163.83"/>
<polygon fill="#63b8ff" stroke="#63b8ff" points="1407.29,-189.16 1401.71,-198.16 1411.69,-194.61 1407.29,-189.16"/>
</a>
</g>
</g>
<!-- Node3 -->
<g id="Node000003" class="node">
<title>Node3</title>
<g id="a_Node000003"><a xlink:href="ps2__sbus_8h.html" target="_top" xlink:title=" ">
<polygon fill="white" stroke="#666666" points="783,-97 671.75,-97 671.75,-66.5 783,-66.5 783,-97"/>
<text text-anchor="start" x="679.75" y="-83.5" font-family="Helvetica,sans-Serif" font-size="10.00">common/sbus/include</text>
<text text-anchor="middle" x="727.38" y="-72.25" font-family="Helvetica,sans-Serif" font-size="10.00">/ps2_sbus.h</text>
</a>
</g>
</g>
<!-- Node2&#45;&gt;Node3 -->
<g id="edge2_Node000002_Node000003" class="edge">
<title>Node2&#45;&gt;Node3</title>
<g id="a_edge2_Node000002_Node000003"><a xlink:title=" ">
<path fill="none" stroke="#63b8ff" d="M615.59,-128.38C639.77,-118.51 668.92,-106.61 691.39,-97.44"/>
<polygon fill="#63b8ff" stroke="#63b8ff" points="614.56,-125.02 606.63,-132.04 617.21,-131.5 614.56,-125.02"/>
</a>
</g>
</g>
<!-- Node4 -->
<g id="Node000004" class="node">
<title>Node4</title>
<g id="a_Node000004"><a xlink:href="ee__sbus_8c_source.html" target="_top" xlink:title=" ">
<polygon fill="white" stroke="#666666" points="1043.12,-30.5 935.62,-30.5 935.62,0 1043.12,0 1043.12,-30.5"/>
<text text-anchor="start" x="943.62" y="-17" font-family="Helvetica,sans-Serif" font-size="10.00">common/sbus/src/ee</text>
<text text-anchor="middle" x="989.38" y="-5.75" font-family="Helvetica,sans-Serif" font-size="10.00">_sbus.c</text>
</a>
</g>
</g>
<!-- Node2&#45;&gt;Node4 -->
<g id="edge15_Node000002_Node000004" class="edge">
<title>Node2&#45;&gt;Node4</title>
<g id="a_edge15_Node000002_Node000004"><a xlink:title=" ">
<path fill="none" stroke="#63b8ff" d="M633.82,-135.7C678.77,-126.92 739.86,-113.55 792.38,-97 852.48,-78.06 919.91,-48.53 958.24,-30.92"/>
<polygon fill="#63b8ff" stroke="#63b8ff" points="633.4,-132.21 624.24,-137.54 634.72,-139.09 633.4,-132.21"/>
</a>
</g>
</g>
<!-- Node5 -->
<g id="Node000005" class="node">
<title>Node5</title>
<g id="a_Node000005"><a xlink:href="ee__sif2_8c_source.html" target="_top" xlink:title=" ">
<polygon fill="white" stroke="#666666" points="238.12,-30.5 130.62,-30.5 130.62,0 238.12,0 238.12,-30.5"/>
<text text-anchor="start" x="138.62" y="-17" font-family="Helvetica,sans-Serif" font-size="10.00">common/sbus/src/ee</text>
<text text-anchor="middle" x="184.38" y="-5.75" font-family="Helvetica,sans-Serif" font-size="10.00">_sif2.c</text>
</a>
</g>
</g>
<!-- Node2&#45;&gt;Node5 -->
<g id="edge16_Node000002_Node000005" class="edge">
<title>Node2&#45;&gt;Node5</title>
<g id="a_edge16_Node000002_Node000005"><a xlink:title=" ">
<path fill="none" stroke="#63b8ff" d="M511.58,-129.05C482.12,-119.67 445.77,-107.93 413.38,-97 347.07,-74.63 270.46,-47.32 224.8,-30.88"/>
<polygon fill="#63b8ff" stroke="#63b8ff" points="510.47,-132.37 521.06,-132.06 512.59,-125.7 510.47,-132.37"/>
</a>
</g>
</g>
<!-- Node2&#45;&gt;Node7 -->
<g id="edge17_Node000002_Node000007" class="edge">
<title>Node2&#45;&gt;Node7</title>
<g id="a_edge17_Node000002_Node000007"><a xlink:title=" ">
<path fill="none" stroke="#63b8ff" d="M634.17,-140.68C780.83,-125.37 1149.22,-84.49 1454.38,-30.5 1457.29,-29.98 1460.27,-29.43 1463.28,-28.84"/>
<polygon fill="#63b8ff" stroke="#63b8ff" points="633.83,-137.19 624.25,-141.71 634.56,-144.16 633.83,-137.19"/>
</a>
</g>
</g>
<!-- Node9 -->
<g id="Node000009" class="node">
<title>Node9</title>
<g id="a_Node000009"><a xlink:href="ps2__sbus_8c_source.html" target="_top" xlink:title=" ">
<polygon fill="white" stroke="#666666" points="112.75,-30.5 0,-30.5 0,0 112.75,0 112.75,-30.5"/>
<text text-anchor="start" x="8" y="-17" font-family="Helvetica,sans-Serif" font-size="10.00">common/sbus/src/ps2</text>
<text text-anchor="middle" x="56.38" y="-5.75" font-family="Helvetica,sans-Serif" font-size="10.00">_sbus.c</text>
</a>
</g>
</g>
<!-- Node2&#45;&gt;Node9 -->
<g id="edge18_Node000002_Node000009" class="edge">
<title>Node2&#45;&gt;Node9</title>
<g id="a_edge18_Node000002_Node000009"><a xlink:title=" ">
<path fill="none" stroke="#63b8ff" d="M505.28,-136.01C454.98,-126.77 383.34,-112.68 321.38,-97 242.58,-77.06 152.33,-48.26 100.09,-30.98"/>
<polygon fill="#63b8ff" stroke="#63b8ff" points="504.36,-139.4 514.82,-137.75 505.61,-132.51 504.36,-139.4"/>
</a>
</g>
</g>
<!-- Node10 -->
<g id="Node000010" class="node">
<title>Node10</title>
<g id="a_Node000010"><a xlink:href="ps2__sif_8c_source.html" target="_top" xlink:title=" ">
<polygon fill="white" stroke="#666666" points="368.75,-30.5 256,-30.5 256,0 368.75,0 368.75,-30.5"/>
<text text-anchor="start" x="264" y="-17" font-family="Helvetica,sans-Serif" font-size="10.00">common/sbus/src/ps2</text>
<text text-anchor="middle" x="312.38" y="-5.75" font-family="Helvetica,sans-Serif" font-size="10.00">_sif.c</text>
</a>
</g>
</g>
<!-- Node2&#45;&gt;Node10 -->
<g id="edge19_Node000002_Node000010" class="edge">
<title>Node2&#45;&gt;Node10</title>
<g id="a_edge19_Node000002_Node000010"><a xlink:title=" ">
<path fill="none" stroke="#63b8ff" d="M530.72,-127.55C478.68,-101.02 387.29,-54.44 340.99,-30.83"/>
<polygon fill="#63b8ff" stroke="#63b8ff" points="529.04,-130.62 539.54,-132.04 532.22,-124.38 529.04,-130.62"/>
</a>
</g>
</g>
<!-- Node11 -->
<g id="Node000011" class="node">
<title>Node11</title>
<g id="a_Node000011"><a xlink:href="sif2cmd_8c_source.html" target="_top" xlink:title=" ">
<polygon fill="white" stroke="#666666" points="525.88,-24.88 386.88,-24.88 386.88,-5.63 525.88,-5.63 525.88,-24.88"/>
<text text-anchor="middle" x="456.38" y="-11.38" font-family="Helvetica,sans-Serif" font-size="10.00">common/sbus/src/sif2cmd.c</text>
</a>
</g>
</g>
<!-- Node2&#45;&gt;Node11 -->
<g id="edge29_Node000002_Node000011" class="edge">
<title>Node2&#45;&gt;Node11</title>
<g id="a_edge29_Node000002_Node000011"><a xlink:title=" ">
<path fill="none" stroke="#63b8ff" d="M535.2,-126.29C523.57,-118.1 511.07,-108.02 501.38,-97 481.34,-74.22 466.36,-41.06 459.89,-25.27"/>
<polygon fill="#63b8ff" stroke="#63b8ff" points="533.18,-129.16 543.43,-131.86 537.11,-123.36 533.18,-129.16"/>
</a>
</g>
</g>
<!-- Node16 -->
<g id="Node000016" class="node">
<title>Node16</title>
<g id="a_Node000016"><a xlink:href="sbus__priv_8h_source.html" target="_top" xlink:title=" ">
<polygon fill="white" stroke="#666666" points="628.38,-97 510.38,-97 510.38,-66.5 628.38,-66.5 628.38,-97"/>
<text text-anchor="start" x="518.38" y="-83.5" font-family="Helvetica,sans-Serif" font-size="10.00">common/sbus/src/sbus</text>
<text text-anchor="middle" x="569.38" y="-72.25" font-family="Helvetica,sans-Serif" font-size="10.00">_priv.h</text>
</a>
</g>
</g>
<!-- Node2&#45;&gt;Node16 -->
<g id="edge20_Node000002_Node000016" class="edge">
<title>Node2&#45;&gt;Node16</title>
<g id="a_edge20_Node000002_Node000016"><a xlink:title=" ">
<path fill="none" stroke="#63b8ff" d="M569.38,-121.31C569.38,-113.14 569.38,-104.41 569.38,-97.33"/>
<polygon fill="#63b8ff" stroke="#63b8ff" points="565.88,-121.1 569.38,-131.1 572.88,-121.1 565.88,-121.1"/>
</a>
</g>
</g>
<!-- Node3&#45;&gt;Node4 -->
<g id="edge3_Node000003_Node000004" class="edge">
<title>Node3&#45;&gt;Node4</title>
<g id="a_edge3_Node000003_Node000004"><a xlink:title=" ">
<path fill="none" stroke="#63b8ff" d="M794.38,-64.25C838.13,-53.48 894.5,-39.61 935.37,-29.55"/>
<polygon fill="#63b8ff" stroke="#63b8ff" points="793.6,-60.84 784.73,-66.63 795.28,-67.64 793.6,-60.84"/>
</a>
</g>
</g>
<!-- Node3&#45;&gt;Node5 -->
<g id="edge4_Node000003_Node000005" class="edge">
<title>Node3&#45;&gt;Node5</title>
<g id="a_edge4_Node000003_Node000005"><a xlink:title=" ">
<path fill="none" stroke="#63b8ff" d="M660.13,-69.61C652.47,-68.49 644.76,-67.42 637.38,-66.5 464.65,-44.88 419.3,-57.76 247.38,-30.5 244.5,-30.04 241.55,-29.53 238.58,-28.98"/>
<polygon fill="#63b8ff" stroke="#63b8ff" points="659.38,-73.04 669.79,-71.07 660.42,-66.12 659.38,-73.04"/>
</a>
</g>
</g>
<!-- Node6 -->
<g id="Node000006" class="node">
<title>Node6</title>
<g id="a_Node000006"><a xlink:href="iop__sbus_8c_source.html" target="_top" xlink:title=" ">
<polygon fill="white" stroke="#666666" points="653.25,-30.5 543.5,-30.5 543.5,0 653.25,0 653.25,-30.5"/>
<text text-anchor="start" x="551.5" y="-17" font-family="Helvetica,sans-Serif" font-size="10.00">common/sbus/src/iop</text>
<text text-anchor="middle" x="598.38" y="-5.75" font-family="Helvetica,sans-Serif" font-size="10.00">_sbus.c</text>
</a>
</g>
</g>
<!-- Node3&#45;&gt;Node6 -->
<g id="edge5_Node000003_Node000006" class="edge">
<title>Node3&#45;&gt;Node6</title>
<g id="a_edge5_Node000003_Node000006"><a xlink:title=" ">
<path fill="none" stroke="#63b8ff" d="M688,-61.06C668.51,-51.32 645.4,-39.76 627.53,-30.83"/>
<polygon fill="#63b8ff" stroke="#63b8ff" points="686.24,-64.1 696.75,-65.44 689.37,-57.83 686.24,-64.1"/>
</a>
</g>
</g>
<!-- Node3&#45;&gt;Node7 -->
<g id="edge6_Node000003_Node000007" class="edge">
<title>Node3&#45;&gt;Node7</title>
<g id="a_edge6_Node000003_Node000007"><a xlink:title=" ">
<path fill="none" stroke="#63b8ff" d="M794.52,-79.47C923.18,-76.28 1213.12,-65.49 1454.38,-30.5 1457.3,-30.08 1460.3,-29.59 1463.31,-29.06"/>
<polygon fill="#63b8ff" stroke="#63b8ff" points="794.74,-75.96 784.83,-79.7 794.91,-82.96 794.74,-75.96"/>
</a>
</g>
</g>
<!-- Node8 -->
<g id="Node000008" class="node">
<title>Node8</title>
<g id="a_Node000008"><a xlink:href="ps2__dbg_8c_source.html" target="_top" xlink:title=" ">
<polygon fill="white" stroke="#666666" points="783.75,-30.5 671,-30.5 671,0 783.75,0 783.75,-30.5"/>
<text text-anchor="start" x="679" y="-17" font-family="Helvetica,sans-Serif" font-size="10.00">common/sbus/src/ps2</text>
<text text-anchor="middle" x="727.38" y="-5.75" font-family="Helvetica,sans-Serif" font-size="10.00">_dbg.c</text>
</a>
</g>
</g>
<!-- Node3&#45;&gt;Node8 -->
<g id="edge7_Node000003_Node000008" class="edge">
<title>Node3&#45;&gt;Node8</title>
<g id="a_edge7_Node000003_Node000008"><a xlink:title=" ">
<path fill="none" stroke="#63b8ff" d="M727.38,-54.81C727.38,-46.64 727.38,-37.91 727.38,-30.83"/>
<polygon fill="#63b8ff" stroke="#63b8ff" points="723.88,-54.6 727.38,-64.6 730.88,-54.6 723.88,-54.6"/>
</a>
</g>
</g>
<!-- Node3&#45;&gt;Node9 -->
<g id="edge8_Node000003_Node000009" class="edge">
<title>Node3&#45;&gt;Node9</title>
<g id="a_edge8_Node000003_Node000009"><a xlink:title=" ">
<path fill="none" stroke="#63b8ff" d="M660.15,-69.45C652.48,-68.35 644.77,-67.34 637.38,-66.5 408.96,-40.5 348.93,-63.2 121.38,-30.5 118.63,-30.11 115.83,-29.66 113.01,-29.18"/>
<polygon fill="#63b8ff" stroke="#63b8ff" points="659.41,-72.88 669.81,-70.88 660.43,-65.95 659.41,-72.88"/>
</a>
</g>
</g>
<!-- Node3&#45;&gt;Node10 -->
<g id="edge9_Node000003_Node000010" class="edge">
<title>Node3&#45;&gt;Node10</title>
<g id="a_edge9_Node000003_Node000010"><a xlink:title=" ">
<path fill="none" stroke="#63b8ff" d="M660.41,-70C652.65,-68.8 644.84,-67.61 637.38,-66.5 521.98,-49.38 492.22,-51.01 377.38,-30.5 374.65,-30.01 371.86,-29.49 369.04,-28.95"/>
<polygon fill="#63b8ff" stroke="#63b8ff" points="659.79,-73.45 670.21,-71.53 660.87,-66.53 659.79,-73.45"/>
</a>
</g>
</g>
<!-- Node3&#45;&gt;Node11 -->
<g id="edge10_Node000003_Node000011" class="edge">
<title>Node3&#45;&gt;Node11</title>
<g id="a_edge10_Node000003_Node000011"><a xlink:title=" ">
<path fill="none" stroke="#63b8ff" d="M660.38,-64.81C608.21,-52.39 537.66,-35.6 494.67,-25.36"/>
<polygon fill="#63b8ff" stroke="#63b8ff" points="659.54,-68.2 670.08,-67.11 661.16,-61.39 659.54,-68.2"/>
</a>
</g>
</g>
<!-- Node12 -->
<g id="Node000012" class="node">
<title>Node12</title>
<g id="a_Node000012"><a xlink:href="iop_2debug_2iop__sbusdbg_2src_2irx__imports_8h_source.html" target="_top" xlink:title=" ">
<polygon fill="white" stroke="#666666" points="917.25,-30.5 801.5,-30.5 801.5,0 917.25,0 917.25,-30.5"/>
<text text-anchor="start" x="809.5" y="-17" font-family="Helvetica,sans-Serif" font-size="10.00">iop/debug/iop_sbusdbg</text>
<text text-anchor="middle" x="859.38" y="-5.75" font-family="Helvetica,sans-Serif" font-size="10.00">/src/irx_imports.h</text>
</a>
</g>
</g>
<!-- Node3&#45;&gt;Node12 -->
<g id="edge11_Node000003_Node000012" class="edge">
<title>Node3&#45;&gt;Node12</title>
<g id="a_edge11_Node000003_Node000012"><a xlink:title=" ">
<path fill="none" stroke="#63b8ff" d="M767.67,-61.06C787.6,-51.32 811.25,-39.76 829.54,-30.83"/>
<polygon fill="#63b8ff" stroke="#63b8ff" points="766.14,-57.91 758.69,-65.45 769.21,-64.2 766.14,-57.91"/>
</a>
</g>
</g>
<!-- Node13 -->
<g id="Node000013" class="node">
<title>Node13</title>
<g id="a_Node000013"><a xlink:href="iop_2debug_2iop__sbusdbg_2src_2main_8c_source.html" target="_top" xlink:title=" ">
<polygon fill="white" stroke="#666666" points="1177.25,-30.5 1061.5,-30.5 1061.5,0 1177.25,0 1177.25,-30.5"/>
<text text-anchor="start" x="1069.5" y="-17" font-family="Helvetica,sans-Serif" font-size="10.00">iop/debug/iop_sbusdbg</text>
<text text-anchor="middle" x="1119.38" y="-5.75" font-family="Helvetica,sans-Serif" font-size="10.00">/src/main.c</text>
</a>
</g>
</g>
<!-- Node3&#45;&gt;Node13 -->
<g id="edge12_Node000003_Node000013" class="edge">
<title>Node3&#45;&gt;Node13</title>
<g id="a_edge12_Node000003_Node000013"><a xlink:title=" ">
<path fill="none" stroke="#63b8ff" d="M794.36,-71.51C860.2,-62.17 963.46,-46.82 1052.38,-30.5 1055.3,-29.96 1058.29,-29.4 1061.31,-28.81"/>
<polygon fill="#63b8ff" stroke="#63b8ff" points="794.23,-68 784.82,-72.86 795.21,-74.93 794.23,-68"/>
</a>
</g>
</g>
<!-- Node14 -->
<g id="Node000014" class="node">
<title>Node14</title>
<g id="a_Node000014"><a xlink:href="sbus__dbg_8c_source.html" target="_top" xlink:title=" ">
<polygon fill="white" stroke="#666666" points="1311.25,-30.5 1195.5,-30.5 1195.5,0 1311.25,0 1311.25,-30.5"/>
<text text-anchor="start" x="1203.5" y="-17" font-family="Helvetica,sans-Serif" font-size="10.00">iop/debug/iop_sbusdbg</text>
<text text-anchor="middle" x="1253.38" y="-5.75" font-family="Helvetica,sans-Serif" font-size="10.00">/src/sbus_dbg.c</text>
</a>
</g>
</g>
<!-- Node3&#45;&gt;Node14 -->
<g id="edge13_Node000003_Node000014" class="edge">
<title>Node3&#45;&gt;Node14</title>
<g id="a_edge13_Node000003_Node000014"><a xlink:title=" ">
<path fill="none" stroke="#63b8ff" d="M794.8,-75.5C884.54,-68.04 1047.99,-52.73 1186.38,-30.5 1189.31,-30.03 1192.31,-29.51 1195.34,-28.97"/>
<polygon fill="#63b8ff" stroke="#63b8ff" points="794.62,-72.01 784.94,-76.32 795.2,-78.98 794.62,-72.01"/>
</a>
</g>
</g>
<!-- Node15 -->
<g id="Node000015" class="node">
<title>Node15</title>
<g id="a_Node000015"><a xlink:href="sbus__tty_8c_source.html" target="_top" xlink:title=" ">
<polygon fill="white" stroke="#666666" points="1445.25,-30.5 1329.5,-30.5 1329.5,0 1445.25,0 1445.25,-30.5"/>
<text text-anchor="start" x="1337.5" y="-17" font-family="Helvetica,sans-Serif" font-size="10.00">iop/debug/iop_sbusdbg</text>
<text text-anchor="middle" x="1387.38" y="-5.75" font-family="Helvetica,sans-Serif" font-size="10.00">/src/sbus_tty.c</text>
</a>
</g>
</g>
<!-- Node3&#45;&gt;Node15 -->
<g id="edge14_Node000003_Node000015" class="edge">
<title>Node3&#45;&gt;Node15</title>
<g id="a_edge14_Node000003_Node000015"><a xlink:title=" ">
<path fill="none" stroke="#63b8ff" d="M794.5,-77.8C904.74,-72.34 1130.85,-58.57 1320.38,-30.5 1323.32,-30.06 1326.32,-29.58 1329.35,-29.05"/>
<polygon fill="#63b8ff" stroke="#63b8ff" points="794.57,-74.29 784.75,-78.27 794.91,-81.28 794.57,-74.29"/>
</a>
</g>
</g>
<!-- Node16&#45;&gt;Node4 -->
<g id="edge21_Node000016_Node000004" class="edge">
<title>Node16&#45;&gt;Node4</title>
<g id="a_edge21_Node000016_Node000004"><a xlink:title=" ">
<path fill="none" stroke="#63b8ff" d="M639.59,-69.86C647.28,-68.71 654.99,-67.57 662.38,-66.5 779.57,-49.53 809.85,-51.58 926.38,-30.5 929.24,-29.98 932.18,-29.42 935.14,-28.83"/>
<polygon fill="#63b8ff" stroke="#63b8ff" points="639.25,-66.38 629.89,-71.33 640.3,-73.3 639.25,-66.38"/>
</a>
</g>
</g>
<!-- Node16&#45;&gt;Node5 -->
<g id="edge22_Node000016_Node000005" class="edge">
<title>Node16&#45;&gt;Node5</title>
<g id="a_edge22_Node000016_Node000005"><a xlink:title=" ">
<path fill="none" stroke="#63b8ff" d="M498.72,-71.13C433.32,-61.89 333.49,-46.94 247.38,-30.5 244.51,-29.95 241.58,-29.37 238.62,-28.77"/>
<polygon fill="#63b8ff" stroke="#63b8ff" points="498.23,-74.59 508.62,-72.52 499.2,-67.66 498.23,-74.59"/>
</a>
</g>
</g>
<!-- Node16&#45;&gt;Node6 -->
<g id="edge23_Node000016_Node000006" class="edge">
<title>Node16&#45;&gt;Node6</title>
<g id="a_edge23_Node000016_Node000006"><a xlink:title=" ">
<path fill="none" stroke="#63b8ff" d="M580.66,-55.66C584.44,-47.25 588.52,-38.16 591.82,-30.83"/>
<polygon fill="#63b8ff" stroke="#63b8ff" points="577.48,-54.18 576.58,-64.73 583.87,-57.05 577.48,-54.18"/>
</a>
</g>
</g>
<!-- Node16&#45;&gt;Node7 -->
<g id="edge24_Node000016_Node000007" class="edge">
<title>Node16&#45;&gt;Node7</title>
<g id="a_edge24_Node000016_Node000007"><a xlink:title=" ">
<path fill="none" stroke="#63b8ff" d="M640.11,-69.11C647.62,-68.11 655.14,-67.22 662.38,-66.5 1013.02,-31.77 1105.09,-76.97 1454.38,-30.5 1457.31,-30.11 1460.31,-29.65 1463.33,-29.14"/>
<polygon fill="#63b8ff" stroke="#63b8ff" points="639.71,-65.63 630.29,-70.47 640.68,-72.56 639.71,-65.63"/>
</a>
</g>
</g>
<!-- Node16&#45;&gt;Node8 -->
<g id="edge25_Node000016_Node000008" class="edge">
<title>Node16&#45;&gt;Node8</title>
<g id="a_edge25_Node000016_Node000008"><a xlink:title=" ">
<path fill="none" stroke="#63b8ff" d="M615.59,-61.88C639.77,-52.01 668.92,-40.11 691.39,-30.94"/>
<polygon fill="#63b8ff" stroke="#63b8ff" points="614.56,-58.52 606.63,-65.54 617.21,-65 614.56,-58.52"/>
</a>
</g>
</g>
<!-- Node16&#45;&gt;Node9 -->
<g id="edge26_Node000016_Node000009" class="edge">
<title>Node16&#45;&gt;Node9</title>
<g id="a_edge26_Node000016_Node000009"><a xlink:title=" ">
<path fill="none" stroke="#63b8ff" d="M498.8,-75.12C410.27,-67.54 253.98,-52.41 121.38,-30.5 118.64,-30.05 115.85,-29.56 113.03,-29.03"/>
<polygon fill="#63b8ff" stroke="#63b8ff" points="498.27,-78.59 508.53,-75.95 498.86,-71.61 498.27,-78.59"/>
</a>
</g>
</g>
<!-- Node16&#45;&gt;Node10 -->
<g id="edge27_Node000016_Node000010" class="edge">
<title>Node16&#45;&gt;Node10</title>
<g id="a_edge27_Node000016_Node000010"><a xlink:title=" ">
<path fill="none" stroke="#63b8ff" d="M499.73,-63.27C458.72,-52.98 407.51,-40.13 369,-30.46"/>
<polygon fill="#63b8ff" stroke="#63b8ff" points="498.72,-66.63 509.27,-65.66 500.42,-59.84 498.72,-66.63"/>
</a>
</g>
</g>
<!-- Node16&#45;&gt;Node11 -->
<g id="edge28_Node000016_Node000011" class="edge">
<title>Node16&#45;&gt;Node11</title>
<g id="a_edge28_Node000016_Node000011"><a xlink:title=" ">
<path fill="none" stroke="#63b8ff" d="M533.97,-60.54C513.25,-48.71 488.1,-34.36 472.16,-25.26"/>
<polygon fill="#63b8ff" stroke="#63b8ff" points="532,-63.45 542.42,-65.36 535.47,-57.37 532,-63.45"/>
</a>
</g>
</g>
</g>
</svg>

<g id="navigator" transform="translate(0 0)" fill="#404254">
  <rect fill="#f2f5e9" fill-opacity="0.5" stroke="#606060" stroke-width=".5" x="0" y="0" width="60" height="60"/>
  <use id="zoomplus" xlink:href="#zoomPlus" x="17" y="9" onmousedown="handleZoom(evt,'in')"/>
  <use id="zoomminus" xlink:href="#zoomMin" x="42" y="9" onmousedown="handleZoom(evt,'out')"/>
  <use id="reset" xlink:href="#resetDef" x="30" y="36" onmousedown="handleReset()"/>
   <use id="arrowup" xlink:href="#arrowUp" x="0" y="0" onmousedown="handlePan(0,-1)"/>
  <use id="arrowright" xlink:href="#arrowRight" x="0" y="0" onmousedown="handlePan(1,0)"/>
  <use id="arrowdown" xlink:href="#arrowDown" x="0" y="0" onmousedown="handlePan(0,1)"/>
  <use id="arrowleft" xlink:href="#arrowLeft" x="0" y="0" onmousedown="handlePan(-1,0)"/>
</g>
<svg viewBox="0 0 15 15" width="100%" height="30px" preserveAspectRatio="xMaxYMin meet">
 <g id="arrow_out" transform="scale(0.3 0.3)">
  <a xlink:href="iop__regs_8h__dep__incl_org.svg" target="_base">
   <rect id="button" ry="5" rx="5" y="6" x="6" height="38" width="38"
        fill="#f2f5e9" fill-opacity="0.5" stroke="#606060" stroke-width="1.0"/>
   <path id="arrow"
     d="M 11.500037,31.436501 C 11.940474,20.09759 22.043105,11.32322 32.158766,21.979434 L 37.068811,17.246167 C 37.068811,17.246167 37.088388,32 37.088388,32 L 22.160133,31.978069 C 22.160133,31.978069 26.997745,27.140456 26.997745,27.140456 C 18.528582,18.264221 13.291696,25.230495 11.500037,31.436501 z"
     style="fill:#404040;"/>
  </a>
 </g>
</svg>

<style type='text/css'>
<![CDATA[
[data-mouse-over-selected='false'] { opacity: 0.7; }
[data-mouse-over-selected='true']  { opacity: 1.0; }
]]>
</style>
<script type="application/ecmascript"><![CDATA[
document.addEventListener('DOMContentLoaded', (event) => {
  highlightEdges();
  highlightAdjacentNodes();
});
]]></script>
</svg>
