<?xml version="1.0" encoding="UTF-8" standalone="no"?>
<!DOCTYPE svg PUBLIC "-//W3C//DTD SVG 1.1//EN"
 "http://www.w3.org/Graphics/SVG/1.1/DTD/svg11.dtd">
<!-- Generated by graphviz version 2.44.0 ()
 -->
<!-- Title: iop/debug/iopdebug/src/main.c Pages: 1 -->
<svg width="597pt" height="319pt"
 viewBox="0.00 0.00 596.50 319.00" xmlns="http://www.w3.org/2000/svg" xmlns:xlink="http://www.w3.org/1999/xlink">
<g id="graph0" class="graph" transform="scale(1 1) rotate(0) translate(4 315)">
<title>iop/debug/iopdebug/src/main.c</title>
<polygon fill="white" stroke="transparent" points="-4,4 -4,-315 592.5,-315 592.5,4 -4,4"/>
<!-- Node1 -->
<g id="node1" class="node">
<title>Node1</title>
<g id="a_node1"><a xlink:title=" ">
<polygon fill="#bfbfbf" stroke="black" points="204,-280.5 204,-310.5 305,-310.5 305,-280.5 204,-280.5"/>
<text text-anchor="start" x="212" y="-298.5" font-family="Helvetica,sans-Serif" font-size="10.00">iop/debug/iopdebug</text>
<text text-anchor="middle" x="254.5" y="-287.5" font-family="Helvetica,sans-Serif" font-size="10.00">/src/main.c</text>
</a>
</g>
</g>
<!-- Node2 -->
<g id="node2" class="node">
<title>Node2</title>
<g id="a_node2"><a xlink:href="tamtypes_8h.html" target="_top" xlink:title=" ">
<polygon fill="white" stroke="black" points="341.5,-0.5 341.5,-19.5 405.5,-19.5 405.5,-0.5 341.5,-0.5"/>
<text text-anchor="middle" x="373.5" y="-7.5" font-family="Helvetica,sans-Serif" font-size="10.00">tamtypes.h</text>
</a>
</g>
</g>
<!-- Node1&#45;&gt;Node2 -->
<g id="edge1" class="edge">
<title>Node1&#45;&gt;Node2</title>
<path fill="none" stroke="midnightblue" d="M305.23,-287.72C398.66,-273.79 588.5,-238.21 588.5,-179 588.5,-179 588.5,-179 588.5,-121 588.5,-44.15 478.28,-20.96 415.67,-13.98"/>
<polygon fill="midnightblue" stroke="midnightblue" points="415.99,-10.5 405.69,-12.96 415.28,-17.46 415.99,-10.5"/>
</g>
<!-- Node3 -->
<g id="node3" class="node">
<title>Node3</title>
<g id="a_node3"><a xlink:href="stdio_8h.html" target="_top" xlink:title=" ">
<polygon fill="white" stroke="black" points="191,-224.5 191,-243.5 236,-243.5 236,-224.5 191,-224.5"/>
<text text-anchor="middle" x="213.5" y="-231.5" font-family="Helvetica,sans-Serif" font-size="10.00">stdio.h</text>
</a>
</g>
</g>
<!-- Node1&#45;&gt;Node3 -->
<g id="edge2" class="edge">
<title>Node1&#45;&gt;Node3</title>
<path fill="none" stroke="midnightblue" d="M244.78,-280.4C238.95,-271.93 231.48,-261.1 225.31,-252.14"/>
<polygon fill="midnightblue" stroke="midnightblue" points="228.02,-249.91 219.47,-243.66 222.26,-253.88 228.02,-249.91"/>
</g>
<!-- Node8 -->
<g id="node8" class="node">
<title>Node8</title>
<g id="a_node8"><a xlink:href="loadcore_8h.html" target="_top" xlink:title=" ">
<polygon fill="white" stroke="black" points="0,-168.5 0,-187.5 61,-187.5 61,-168.5 0,-168.5"/>
<text text-anchor="middle" x="30.5" y="-175.5" font-family="Helvetica,sans-Serif" font-size="10.00">loadcore.h</text>
</a>
</g>
</g>
<!-- Node1&#45;&gt;Node8 -->
<g id="edge8" class="edge">
<title>Node1&#45;&gt;Node8</title>
<path fill="none" stroke="midnightblue" d="M226.42,-280.46C206.35,-270.39 178.71,-256.46 154.5,-244 120.2,-226.35 80.76,-205.6 55.75,-192.38"/>
<polygon fill="midnightblue" stroke="midnightblue" points="57.38,-189.28 46.91,-187.7 54.11,-195.47 57.38,-189.28"/>
</g>
<!-- Node9 -->
<g id="node9" class="node">
<title>Node9</title>
<g id="a_node9"><a xlink:href="thbase_8h.html" target="_top" xlink:title=" ">
<polygon fill="white" stroke="black" points="79,-168.5 79,-187.5 132,-187.5 132,-168.5 79,-168.5"/>
<text text-anchor="middle" x="105.5" y="-175.5" font-family="Helvetica,sans-Serif" font-size="10.00">thbase.h</text>
</a>
</g>
</g>
<!-- Node1&#45;&gt;Node9 -->
<g id="edge11" class="edge">
<title>Node1&#45;&gt;Node9</title>
<path fill="none" stroke="midnightblue" d="M233.01,-280.47C218.24,-270.64 198.35,-256.98 181.5,-244 160.61,-227.91 137.76,-208.03 122.62,-194.53"/>
<polygon fill="midnightblue" stroke="midnightblue" points="124.85,-191.82 115.07,-187.74 120.17,-197.03 124.85,-191.82"/>
</g>
<!-- Node10 -->
<g id="node10" class="node">
<title>Node10</title>
<g id="a_node10"><a xlink:href="iopdebug_8h.html" target="_top" xlink:title=" ">
<polygon fill="white" stroke="black" points="370,-168.5 370,-187.5 433,-187.5 433,-168.5 370,-168.5"/>
<text text-anchor="middle" x="401.5" y="-175.5" font-family="Helvetica,sans-Serif" font-size="10.00">iopdebug.h</text>
</a>
</g>
</g>
<!-- Node1&#45;&gt;Node10 -->
<g id="edge14" class="edge">
<title>Node1&#45;&gt;Node10</title>
<path fill="none" stroke="midnightblue" d="M287.37,-280.44C306.08,-271.55 329.33,-258.92 347.5,-244 364.43,-230.1 379.98,-210.31 390,-196.22"/>
<polygon fill="midnightblue" stroke="midnightblue" points="392.94,-198.12 395.74,-187.91 387.18,-194.14 392.94,-198.12"/>
</g>
<!-- Node14 -->
<g id="node14" class="node">
<title>Node14</title>
<g id="a_node14"><a xlink:href="iopdebug__priv_8h.html" target="_top" xlink:title=" ">
<polygon fill="white" stroke="black" points="254.5,-224.5 254.5,-243.5 338.5,-243.5 338.5,-224.5 254.5,-224.5"/>
<text text-anchor="middle" x="296.5" y="-231.5" font-family="Helvetica,sans-Serif" font-size="10.00">iopdebug_priv.h</text>
</a>
</g>
</g>
<!-- Node1&#45;&gt;Node14 -->
<g id="edge20" class="edge">
<title>Node1&#45;&gt;Node14</title>
<path fill="none" stroke="midnightblue" d="M264.45,-280.4C270.49,-271.84 278.24,-260.87 284.6,-251.86"/>
<polygon fill="midnightblue" stroke="midnightblue" points="287.48,-253.85 290.39,-243.66 281.76,-249.81 287.48,-253.85"/>
</g>
<!-- Node4 -->
<g id="node4" class="node">
<title>Node4</title>
<g id="a_node4"><a xlink:title=" ">
<polygon fill="white" stroke="#bfbfbf" points="150,-168.5 150,-187.5 201,-187.5 201,-168.5 150,-168.5"/>
<text text-anchor="middle" x="175.5" y="-175.5" font-family="Helvetica,sans-Serif" font-size="10.00">stdarg.h</text>
</a>
</g>
</g>
<!-- Node3&#45;&gt;Node4 -->
<g id="edge3" class="edge">
<title>Node3&#45;&gt;Node4</title>
<path fill="none" stroke="midnightblue" d="M207.23,-224.08C201.86,-216.46 193.98,-205.26 187.42,-195.94"/>
<polygon fill="midnightblue" stroke="midnightblue" points="190.28,-193.91 181.66,-187.75 184.55,-197.94 190.28,-193.91"/>
</g>
<!-- Node5 -->
<g id="node5" class="node">
<title>Node5</title>
<g id="a_node5"><a xlink:href="irx_8h.html" target="_top" xlink:title=" ">
<polygon fill="white" stroke="black" points="212.5,-112.5 212.5,-131.5 246.5,-131.5 246.5,-112.5 212.5,-112.5"/>
<text text-anchor="middle" x="229.5" y="-119.5" font-family="Helvetica,sans-Serif" font-size="10.00">irx.h</text>
</a>
</g>
</g>
<!-- Node3&#45;&gt;Node5 -->
<g id="edge4" class="edge">
<title>Node3&#45;&gt;Node5</title>
<path fill="none" stroke="midnightblue" d="M214.76,-224.37C217.34,-206.62 223.29,-165.67 226.79,-141.6"/>
<polygon fill="midnightblue" stroke="midnightblue" points="230.27,-141.99 228.25,-131.59 223.35,-140.98 230.27,-141.99"/>
</g>
<!-- Node6 -->
<g id="node6" class="node">
<title>Node6</title>
<g id="a_node6"><a xlink:href="types_8h_source.html" target="_top" xlink:title=" ">
<polygon fill="white" stroke="black" points="206,-56.5 206,-75.5 253,-75.5 253,-56.5 206,-56.5"/>
<text text-anchor="middle" x="229.5" y="-63.5" font-family="Helvetica,sans-Serif" font-size="10.00">types.h</text>
</a>
</g>
</g>
<!-- Node5&#45;&gt;Node6 -->
<g id="edge5" class="edge">
<title>Node5&#45;&gt;Node6</title>
<path fill="none" stroke="midnightblue" d="M229.5,-112.08C229.5,-105.01 229.5,-94.86 229.5,-85.99"/>
<polygon fill="midnightblue" stroke="midnightblue" points="233,-85.75 229.5,-75.75 226,-85.75 233,-85.75"/>
</g>
<!-- Node6&#45;&gt;Node2 -->
<g id="edge7" class="edge">
<title>Node6&#45;&gt;Node2</title>
<path fill="none" stroke="midnightblue" d="M252.32,-56.44C276.33,-47.44 314.33,-33.19 341.37,-23.05"/>
<polygon fill="midnightblue" stroke="midnightblue" points="342.66,-26.3 350.79,-19.52 340.2,-19.75 342.66,-26.3"/>
</g>
<!-- Node7 -->
<g id="node7" class="node">
<title>Node7</title>
<g id="a_node7"><a xlink:title=" ">
<polygon fill="white" stroke="#bfbfbf" points="204,-0.5 204,-19.5 255,-19.5 255,-0.5 204,-0.5"/>
<text text-anchor="middle" x="229.5" y="-7.5" font-family="Helvetica,sans-Serif" font-size="10.00">stddef.h</text>
</a>
</g>
</g>
<!-- Node6&#45;&gt;Node7 -->
<g id="edge6" class="edge">
<title>Node6&#45;&gt;Node7</title>
<path fill="none" stroke="midnightblue" d="M229.5,-56.08C229.5,-49.01 229.5,-38.86 229.5,-29.99"/>
<polygon fill="midnightblue" stroke="midnightblue" points="233,-29.75 229.5,-19.75 226,-29.75 233,-29.75"/>
</g>
<!-- Node8&#45;&gt;Node5 -->
<g id="edge10" class="edge">
<title>Node8&#45;&gt;Node5</title>
<path fill="none" stroke="midnightblue" d="M61.16,-168.68C99.76,-158.21 165.47,-140.37 202.34,-130.37"/>
<polygon fill="midnightblue" stroke="midnightblue" points="203.63,-133.65 212.36,-127.65 201.8,-126.89 203.63,-133.65"/>
</g>
<!-- Node8&#45;&gt;Node6 -->
<g id="edge9" class="edge">
<title>Node8&#45;&gt;Node6</title>
<path fill="none" stroke="midnightblue" d="M46.12,-168.37C80.63,-149.29 163.61,-103.42 205.07,-80.51"/>
<polygon fill="midnightblue" stroke="midnightblue" points="206.9,-83.49 213.96,-75.59 203.51,-77.37 206.9,-83.49"/>
</g>
<!-- Node9&#45;&gt;Node5 -->
<g id="edge13" class="edge">
<title>Node9&#45;&gt;Node5</title>
<path fill="none" stroke="midnightblue" d="M125.15,-168.44C146.18,-159.28 179.67,-144.7 203.02,-134.53"/>
<polygon fill="midnightblue" stroke="midnightblue" points="204.57,-137.67 212.34,-130.47 201.77,-131.26 204.57,-137.67"/>
</g>
<!-- Node9&#45;&gt;Node6 -->
<g id="edge12" class="edge">
<title>Node9&#45;&gt;Node6</title>
<path fill="none" stroke="midnightblue" d="M115.23,-168.37C136.15,-149.81 185.63,-105.91 212.1,-82.44"/>
<polygon fill="midnightblue" stroke="midnightblue" points="214.66,-84.85 219.82,-75.59 210.01,-79.61 214.66,-84.85"/>
</g>
<!-- Node10&#45;&gt;Node5 -->
<g id="edge16" class="edge">
<title>Node10&#45;&gt;Node5</title>
<path fill="none" stroke="midnightblue" d="M374.25,-168.44C341.94,-158.3 288.44,-141.5 256.32,-131.42"/>
<polygon fill="midnightblue" stroke="midnightblue" points="257.29,-128.06 246.7,-128.4 255.19,-134.73 257.29,-128.06"/>
</g>
<!-- Node11 -->
<g id="node11" class="node">
<title>Node11</title>
<g id="a_node11"><a xlink:title=" ">
<polygon fill="white" stroke="#bfbfbf" points="408,-112.5 408,-131.5 455,-131.5 455,-112.5 408,-112.5"/>
<text text-anchor="middle" x="431.5" y="-119.5" font-family="Helvetica,sans-Serif" font-size="10.00">types.h</text>
</a>
</g>
</g>
<!-- Node10&#45;&gt;Node11 -->
<g id="edge15" class="edge">
<title>Node10&#45;&gt;Node11</title>
<path fill="none" stroke="midnightblue" d="M406.45,-168.08C410.6,-160.61 416.65,-149.72 421.77,-140.52"/>
<polygon fill="midnightblue" stroke="midnightblue" points="424.84,-142.19 426.64,-131.75 418.72,-138.79 424.84,-142.19"/>
</g>
<!-- Node12 -->
<g id="node12" class="node">
<title>Node12</title>
<g id="a_node12"><a xlink:href="iop__cop0__defs_8h.html" target="_top" xlink:title=" ">
<polygon fill="white" stroke="black" points="473,-112.5 473,-131.5 560,-131.5 560,-112.5 473,-112.5"/>
<text text-anchor="middle" x="516.5" y="-119.5" font-family="Helvetica,sans-Serif" font-size="10.00">iop_cop0_defs.h</text>
</a>
</g>
</g>
<!-- Node10&#45;&gt;Node12 -->
<g id="edge17" class="edge">
<title>Node10&#45;&gt;Node12</title>
<path fill="none" stroke="midnightblue" d="M419.72,-168.44C438.4,-159.68 467.66,-145.94 489.12,-135.86"/>
<polygon fill="midnightblue" stroke="midnightblue" points="490.8,-138.93 498.36,-131.52 487.82,-132.6 490.8,-138.93"/>
</g>
<!-- Node13 -->
<g id="node13" class="node">
<title>Node13</title>
<g id="a_node13"><a xlink:href="ps2__debug_8h.html" target="_top" xlink:title=" ">
<polygon fill="white" stroke="black" points="370,-56.5 370,-75.5 441,-75.5 441,-56.5 370,-56.5"/>
<text text-anchor="middle" x="405.5" y="-63.5" font-family="Helvetica,sans-Serif" font-size="10.00">ps2_debug.h</text>
</a>
</g>
</g>
<!-- Node10&#45;&gt;Node13 -->
<g id="edge18" class="edge">
<title>Node10&#45;&gt;Node13</title>
<path fill="none" stroke="midnightblue" d="M400.69,-168.16C399.66,-155.64 398.17,-132.05 399.5,-112 400.07,-103.34 401.27,-93.81 402.44,-85.75"/>
<polygon fill="midnightblue" stroke="midnightblue" points="405.94,-86.01 404.01,-75.59 399.02,-84.94 405.94,-86.01"/>
</g>
<!-- Node13&#45;&gt;Node2 -->
<g id="edge19" class="edge">
<title>Node13&#45;&gt;Node2</title>
<path fill="none" stroke="midnightblue" d="M400.22,-56.08C395.79,-48.61 389.34,-37.72 383.88,-28.52"/>
<polygon fill="midnightblue" stroke="midnightblue" points="386.79,-26.57 378.69,-19.75 380.77,-30.14 386.79,-26.57"/>
</g>
<!-- Node14&#45;&gt;Node2 -->
<g id="edge21" class="edge">
<title>Node14&#45;&gt;Node2</title>
<path fill="none" stroke="midnightblue" d="M302.34,-224.37C308.11,-215.54 316.85,-201.28 322.5,-188 328.82,-173.14 356.91,-71.57 368.49,-29.35"/>
<polygon fill="midnightblue" stroke="midnightblue" points="371.9,-30.13 371.17,-19.56 365.15,-28.28 371.9,-30.13"/>
</g>
<!-- Node15 -->
<g id="node15" class="node">
<title>Node15</title>
<g id="a_node15"><a xlink:href="intrman_8h.html" target="_top" xlink:title=" ">
<polygon fill="white" stroke="black" points="257.5,-168.5 257.5,-187.5 313.5,-187.5 313.5,-168.5 257.5,-168.5"/>
<text text-anchor="middle" x="285.5" y="-175.5" font-family="Helvetica,sans-Serif" font-size="10.00">intrman.h</text>
</a>
</g>
</g>
<!-- Node14&#45;&gt;Node15 -->
<g id="edge22" class="edge">
<title>Node14&#45;&gt;Node15</title>
<path fill="none" stroke="midnightblue" d="M294.68,-224.08C293.23,-216.93 291.13,-206.64 289.31,-197.69"/>
<polygon fill="midnightblue" stroke="midnightblue" points="292.71,-196.85 287.28,-187.75 285.85,-198.25 292.71,-196.85"/>
</g>
<!-- Node15&#45;&gt;Node5 -->
<g id="edge24" class="edge">
<title>Node15&#45;&gt;Node5</title>
<path fill="none" stroke="midnightblue" d="M276.5,-168.32C268.31,-160.42 255.99,-148.55 246.03,-138.94"/>
<polygon fill="midnightblue" stroke="midnightblue" points="248.29,-136.26 238.66,-131.83 243.43,-141.29 248.29,-136.26"/>
</g>
<!-- Node15&#45;&gt;Node6 -->
<g id="edge23" class="edge">
<title>Node15&#45;&gt;Node6</title>
<path fill="none" stroke="midnightblue" d="M281.86,-168.47C276.44,-155.93 265.79,-131.86 255.5,-112 250.73,-102.79 244.99,-92.77 240.13,-84.53"/>
<polygon fill="midnightblue" stroke="midnightblue" points="243.06,-82.62 234.92,-75.83 237.05,-86.21 243.06,-82.62"/>
</g>
</g>
</svg>
