<?xml version="1.0" encoding="UTF-8" standalone="no"?>
<!DOCTYPE svg PUBLIC "-//W3C//DTD SVG 1.1//EN"
 "http://www.w3.org/Graphics/SVG/1.1/DTD/svg11.dtd">
<!-- Generated by graphviz version 2.43.0 (0)
 -->
<!-- Title: iop/system/iopmgr/src/smod.c Pages: 1 -->
<svg width="658pt" height="319pt"
 viewBox="0.00 0.00 658.00 319.00" xmlns="http://www.w3.org/2000/svg" xmlns:xlink="http://www.w3.org/1999/xlink">
<g id="graph0" class="graph" transform="scale(1 1) rotate(0) translate(4 315)">
<title>iop/system/iopmgr/src/smod.c</title>
<polygon fill="white" stroke="transparent" points="-4,4 -4,-315 654,-315 654,4 -4,4"/>
<!-- Node1 -->
<g id="node1" class="node">
<title>Node1</title>
<g id="a_node1"><a xlink:title=" ">
<polygon fill="#bfbfbf" stroke="black" points="304,-280.5 304,-310.5 429,-310.5 429,-280.5 304,-280.5"/>
<text text-anchor="start" x="312" y="-298.5" font-family="Helvetica,sans-Serif" font-size="10.00">iop/system/iopmgr/src</text>
<text text-anchor="middle" x="366.5" y="-287.5" font-family="Helvetica,sans-Serif" font-size="10.00">/smod.c</text>
</a>
</g>
</g>
<!-- Node2 -->
<g id="node2" class="node">
<title>Node2</title>
<g id="a_node2"><a xlink:title=" ">
<polygon fill="white" stroke="#bfbfbf" points="271,-112.5 271,-131.5 324,-131.5 324,-112.5 271,-112.5"/>
<text text-anchor="middle" x="297.5" y="-119.5" font-family="Helvetica,sans-Serif" font-size="10.00">types.h</text>
</a>
</g>
</g>
<!-- Node1&#45;&gt;Node2 -->
<g id="edge1" class="edge">
<title>Node1&#45;&gt;Node2</title>
<path fill="none" stroke="midnightblue" d="M322.9,-280.37C283.26,-264.83 227.56,-235.55 204.5,-188 190.93,-160.01 229.49,-141.82 261.02,-131.99"/>
<polygon fill="midnightblue" stroke="midnightblue" points="262.33,-135.25 270.94,-129.09 260.36,-128.54 262.33,-135.25"/>
</g>
<!-- Node3 -->
<g id="node3" class="node">
<title>Node3</title>
<g id="a_node3"><a xlink:href="defs_8h.html" target="_top" xlink:title=" ">
<polygon fill="white" stroke="black" points="110,-224.5 110,-243.5 157,-243.5 157,-224.5 110,-224.5"/>
<text text-anchor="middle" x="133.5" y="-231.5" font-family="Helvetica,sans-Serif" font-size="10.00">defs.h</text>
</a>
</g>
</g>
<!-- Node1&#45;&gt;Node3 -->
<g id="edge2" class="edge">
<title>Node1&#45;&gt;Node3</title>
<path fill="none" stroke="midnightblue" d="M311.58,-280.47C266.81,-269.04 205.03,-253.27 167.25,-243.62"/>
<polygon fill="midnightblue" stroke="midnightblue" points="167.82,-240.15 157.26,-241.07 166.08,-246.93 167.82,-240.15"/>
</g>
<!-- Node7 -->
<g id="node7" class="node">
<title>Node7</title>
<g id="a_node7"><a xlink:href="irx_8h.html" target="_top" xlink:title=" ">
<polygon fill="white" stroke="black" points="400.5,-112.5 400.5,-131.5 438.5,-131.5 438.5,-112.5 400.5,-112.5"/>
<text text-anchor="middle" x="419.5" y="-119.5" font-family="Helvetica,sans-Serif" font-size="10.00">irx.h</text>
</a>
</g>
</g>
<!-- Node1&#45;&gt;Node7 -->
<g id="edge6" class="edge">
<title>Node1&#45;&gt;Node7</title>
<path fill="none" stroke="midnightblue" d="M380.81,-280.23C398.81,-261.15 428.79,-225.38 440.5,-188 445.53,-171.95 438.54,-153.73 431.3,-140.67"/>
<polygon fill="midnightblue" stroke="midnightblue" points="434.1,-138.54 425.92,-131.82 428.12,-142.18 434.1,-138.54"/>
</g>
<!-- Node8 -->
<g id="node8" class="node">
<title>Node8</title>
<g id="a_node8"><a xlink:href="loadcore_8h.html" target="_top" xlink:title=" ">
<polygon fill="white" stroke="black" points="363.5,-168.5 363.5,-187.5 431.5,-187.5 431.5,-168.5 363.5,-168.5"/>
<text text-anchor="middle" x="397.5" y="-175.5" font-family="Helvetica,sans-Serif" font-size="10.00">loadcore.h</text>
</a>
</g>
</g>
<!-- Node1&#45;&gt;Node8 -->
<g id="edge8" class="edge">
<title>Node1&#45;&gt;Node8</title>
<path fill="none" stroke="midnightblue" d="M370.3,-280.34C375.89,-259.53 386.32,-220.66 392.51,-197.58"/>
<polygon fill="midnightblue" stroke="midnightblue" points="395.96,-198.23 395.17,-187.67 389.2,-196.42 395.96,-198.23"/>
</g>
<!-- Node9 -->
<g id="node9" class="node">
<title>Node9</title>
<g id="a_node9"><a xlink:href="ioman_8h.html" target="_top" xlink:title=" ">
<polygon fill="white" stroke="black" points="213.5,-168.5 213.5,-187.5 269.5,-187.5 269.5,-168.5 213.5,-168.5"/>
<text text-anchor="middle" x="241.5" y="-175.5" font-family="Helvetica,sans-Serif" font-size="10.00">ioman.h</text>
</a>
</g>
</g>
<!-- Node1&#45;&gt;Node9 -->
<g id="edge11" class="edge">
<title>Node1&#45;&gt;Node9</title>
<path fill="none" stroke="midnightblue" d="M344,-280.32C329.73,-270.84 311.24,-257.64 296.5,-244 280.3,-229.01 264.29,-209.4 253.76,-195.65"/>
<polygon fill="midnightblue" stroke="midnightblue" points="256.49,-193.46 247.68,-187.57 250.9,-197.67 256.49,-193.46"/>
</g>
<!-- Node13 -->
<g id="node13" class="node">
<title>Node13</title>
<g id="a_node13"><a xlink:href="stdio_8h.html" target="_top" xlink:title=" ">
<polygon fill="white" stroke="black" points="487.5,-168.5 487.5,-187.5 537.5,-187.5 537.5,-168.5 487.5,-168.5"/>
<text text-anchor="middle" x="512.5" y="-175.5" font-family="Helvetica,sans-Serif" font-size="10.00">stdio.h</text>
</a>
</g>
</g>
<!-- Node1&#45;&gt;Node13 -->
<g id="edge17" class="edge">
<title>Node1&#45;&gt;Node13</title>
<path fill="none" stroke="midnightblue" d="M410.59,-280.48C431.39,-272.27 455.53,-260.27 473.5,-244 487.95,-230.92 498.73,-211.23 505.25,-196.95"/>
<polygon fill="midnightblue" stroke="midnightblue" points="508.5,-198.25 509.24,-187.68 502.07,-195.48 508.5,-198.25"/>
</g>
<!-- Node15 -->
<g id="node15" class="node">
<title>Node15</title>
<g id="a_node15"><a xlink:href="sysclib_8h.html" target="_top" xlink:title=" ">
<polygon fill="white" stroke="black" points="556,-168.5 556,-187.5 615,-187.5 615,-168.5 556,-168.5"/>
<text text-anchor="middle" x="585.5" y="-175.5" font-family="Helvetica,sans-Serif" font-size="10.00">sysclib.h</text>
</a>
</g>
</g>
<!-- Node1&#45;&gt;Node15 -->
<g id="edge20" class="edge">
<title>Node1&#45;&gt;Node15</title>
<path fill="none" stroke="midnightblue" d="M410.43,-280.41C435.97,-271.46 468.37,-258.8 495.5,-244 522.01,-229.54 549.79,-208.43 567.35,-194.23"/>
<polygon fill="midnightblue" stroke="midnightblue" points="570.03,-196.55 575.54,-187.5 565.59,-191.14 570.03,-196.55"/>
</g>
<!-- Node18 -->
<g id="node18" class="node">
<title>Node18</title>
<g id="a_node18"><a xlink:href="iopmgr_8h.html" target="_top" xlink:title=" ">
<polygon fill="white" stroke="black" points="306,-224.5 306,-243.5 365,-243.5 365,-224.5 306,-224.5"/>
<text text-anchor="middle" x="335.5" y="-231.5" font-family="Helvetica,sans-Serif" font-size="10.00">iopmgr.h</text>
</a>
</g>
</g>
<!-- Node1&#45;&gt;Node18 -->
<g id="edge27" class="edge">
<title>Node1&#45;&gt;Node18</title>
<path fill="none" stroke="midnightblue" d="M359.15,-280.4C354.83,-272.11 349.33,-261.55 344.73,-252.71"/>
<polygon fill="midnightblue" stroke="midnightblue" points="347.74,-250.91 340.01,-243.66 341.53,-254.14 347.74,-250.91"/>
</g>
<!-- Node4 -->
<g id="node4" class="node">
<title>Node4</title>
<g id="a_node4"><a xlink:href="iop_2kernel_2include_2types_8h_source.html" target="_top" xlink:title=" ">
<polygon fill="white" stroke="black" points="393,-56.5 393,-75.5 446,-75.5 446,-56.5 393,-56.5"/>
<text text-anchor="middle" x="419.5" y="-63.5" font-family="Helvetica,sans-Serif" font-size="10.00">types.h</text>
</a>
</g>
</g>
<!-- Node3&#45;&gt;Node4 -->
<g id="edge3" class="edge">
<title>Node3&#45;&gt;Node4</title>
<path fill="none" stroke="midnightblue" d="M139.92,-224.42C157.05,-202.19 206.28,-142.31 261.5,-112 300.08,-90.82 349.55,-78.83 382.77,-72.64"/>
<polygon fill="midnightblue" stroke="midnightblue" points="383.72,-76.02 392.95,-70.83 382.49,-69.13 383.72,-76.02"/>
</g>
<!-- Node5 -->
<g id="node5" class="node">
<title>Node5</title>
<g id="a_node5"><a xlink:title=" ">
<polygon fill="white" stroke="#bfbfbf" points="391.5,-0.5 391.5,-19.5 447.5,-19.5 447.5,-0.5 391.5,-0.5"/>
<text text-anchor="middle" x="419.5" y="-7.5" font-family="Helvetica,sans-Serif" font-size="10.00">stddef.h</text>
</a>
</g>
</g>
<!-- Node4&#45;&gt;Node5 -->
<g id="edge4" class="edge">
<title>Node4&#45;&gt;Node5</title>
<path fill="none" stroke="midnightblue" d="M419.5,-56.08C419.5,-49.01 419.5,-38.86 419.5,-29.99"/>
<polygon fill="midnightblue" stroke="midnightblue" points="423,-29.75 419.5,-19.75 416,-29.75 423,-29.75"/>
</g>
<!-- Node6 -->
<g id="node6" class="node">
<title>Node6</title>
<g id="a_node6"><a xlink:href="tamtypes_8h.html" target="_top" xlink:title=" ">
<polygon fill="white" stroke="black" points="509.5,-0.5 509.5,-19.5 581.5,-19.5 581.5,-0.5 509.5,-0.5"/>
<text text-anchor="middle" x="545.5" y="-7.5" font-family="Helvetica,sans-Serif" font-size="10.00">tamtypes.h</text>
</a>
</g>
</g>
<!-- Node4&#45;&gt;Node6 -->
<g id="edge5" class="edge">
<title>Node4&#45;&gt;Node6</title>
<path fill="none" stroke="midnightblue" d="M439.47,-56.44C460.11,-47.6 492.56,-33.69 516.13,-23.59"/>
<polygon fill="midnightblue" stroke="midnightblue" points="517.82,-26.67 525.63,-19.52 515.06,-20.24 517.82,-26.67"/>
</g>
<!-- Node7&#45;&gt;Node4 -->
<g id="edge7" class="edge">
<title>Node7&#45;&gt;Node4</title>
<path fill="none" stroke="midnightblue" d="M419.5,-112.08C419.5,-105.01 419.5,-94.86 419.5,-85.99"/>
<polygon fill="midnightblue" stroke="midnightblue" points="423,-85.75 419.5,-75.75 416,-85.75 423,-85.75"/>
</g>
<!-- Node8&#45;&gt;Node2 -->
<g id="edge9" class="edge">
<title>Node8&#45;&gt;Node2</title>
<path fill="none" stroke="midnightblue" d="M381.43,-168.32C365.54,-159.74 340.99,-146.49 322.54,-136.52"/>
<polygon fill="midnightblue" stroke="midnightblue" points="323.99,-133.33 313.53,-131.65 320.66,-139.49 323.99,-133.33"/>
</g>
<!-- Node8&#45;&gt;Node7 -->
<g id="edge10" class="edge">
<title>Node8&#45;&gt;Node7</title>
<path fill="none" stroke="midnightblue" d="M401.13,-168.08C404.11,-160.77 408.43,-150.18 412.12,-141.1"/>
<polygon fill="midnightblue" stroke="midnightblue" points="415.4,-142.33 415.93,-131.75 408.92,-139.69 415.4,-142.33"/>
</g>
<!-- Node9&#45;&gt;Node2 -->
<g id="edge12" class="edge">
<title>Node9&#45;&gt;Node2</title>
<path fill="none" stroke="midnightblue" d="M250.5,-168.32C258.69,-160.42 271.01,-148.55 280.97,-138.94"/>
<polygon fill="midnightblue" stroke="midnightblue" points="283.57,-141.29 288.34,-131.83 278.71,-136.26 283.57,-141.29"/>
</g>
<!-- Node9&#45;&gt;Node7 -->
<g id="edge13" class="edge">
<title>Node9&#45;&gt;Node7</title>
<path fill="none" stroke="midnightblue" d="M269.7,-168.44C302.84,-158.39 357.52,-141.8 390.85,-131.69"/>
<polygon fill="midnightblue" stroke="midnightblue" points="391.9,-135.03 400.46,-128.78 389.87,-128.33 391.9,-135.03"/>
</g>
<!-- Node10 -->
<g id="node10" class="node">
<title>Node10</title>
<g id="a_node10"><a xlink:href="io__common_8h.html" target="_top" xlink:title=" ">
<polygon fill="white" stroke="black" points="36,-112.5 36,-131.5 119,-131.5 119,-112.5 36,-112.5"/>
<text text-anchor="middle" x="77.5" y="-119.5" font-family="Helvetica,sans-Serif" font-size="10.00">io_common.h</text>
</a>
</g>
</g>
<!-- Node9&#45;&gt;Node10 -->
<g id="edge14" class="edge">
<title>Node9&#45;&gt;Node10</title>
<path fill="none" stroke="midnightblue" d="M215.51,-168.44C187.8,-159.32 143.75,-144.81 112.88,-134.65"/>
<polygon fill="midnightblue" stroke="midnightblue" points="113.96,-131.32 103.36,-131.52 111.77,-137.97 113.96,-131.32"/>
</g>
<!-- Node11 -->
<g id="node11" class="node">
<title>Node11</title>
<g id="a_node11"><a xlink:href="sys_2fcntl_8h_source.html" target="_top" xlink:title=" ">
<polygon fill="white" stroke="black" points="0,-56.5 0,-75.5 67,-75.5 67,-56.5 0,-56.5"/>
<text text-anchor="middle" x="33.5" y="-63.5" font-family="Helvetica,sans-Serif" font-size="10.00">sys/fcntl.h</text>
</a>
</g>
</g>
<!-- Node10&#45;&gt;Node11 -->
<g id="edge15" class="edge">
<title>Node10&#45;&gt;Node11</title>
<path fill="none" stroke="midnightblue" d="M70.23,-112.08C63.96,-104.38 54.71,-93.03 47.07,-83.65"/>
<polygon fill="midnightblue" stroke="midnightblue" points="49.66,-81.29 40.63,-75.75 44.23,-85.71 49.66,-81.29"/>
</g>
<!-- Node12 -->
<g id="node12" class="node">
<title>Node12</title>
<g id="a_node12"><a xlink:href="unistd_8h_source.html" target="_top" xlink:title=" ">
<polygon fill="white" stroke="black" points="85,-56.5 85,-75.5 160,-75.5 160,-56.5 85,-56.5"/>
<text text-anchor="middle" x="122.5" y="-63.5" font-family="Helvetica,sans-Serif" font-size="10.00">sys/unistd.h</text>
</a>
</g>
</g>
<!-- Node10&#45;&gt;Node12 -->
<g id="edge16" class="edge">
<title>Node10&#45;&gt;Node12</title>
<path fill="none" stroke="midnightblue" d="M84.93,-112.08C91.35,-104.38 100.81,-93.03 108.62,-83.65"/>
<polygon fill="midnightblue" stroke="midnightblue" points="111.49,-85.67 115.21,-75.75 106.12,-81.19 111.49,-85.67"/>
</g>
<!-- Node13&#45;&gt;Node7 -->
<g id="edge19" class="edge">
<title>Node13&#45;&gt;Node7</title>
<path fill="none" stroke="midnightblue" d="M497.56,-168.32C482.91,-159.82 460.37,-146.73 443.26,-136.8"/>
<polygon fill="midnightblue" stroke="midnightblue" points="444.81,-133.65 434.4,-131.65 441.3,-139.7 444.81,-133.65"/>
</g>
<!-- Node14 -->
<g id="node14" class="node">
<title>Node14</title>
<g id="a_node14"><a xlink:title=" ">
<polygon fill="white" stroke="#bfbfbf" points="484.5,-112.5 484.5,-131.5 540.5,-131.5 540.5,-112.5 484.5,-112.5"/>
<text text-anchor="middle" x="512.5" y="-119.5" font-family="Helvetica,sans-Serif" font-size="10.00">stdarg.h</text>
</a>
</g>
</g>
<!-- Node13&#45;&gt;Node14 -->
<g id="edge18" class="edge">
<title>Node13&#45;&gt;Node14</title>
<path fill="none" stroke="midnightblue" d="M512.5,-168.08C512.5,-161.01 512.5,-150.86 512.5,-141.99"/>
<polygon fill="midnightblue" stroke="midnightblue" points="516,-141.75 512.5,-131.75 509,-141.75 516,-141.75"/>
</g>
<!-- Node15&#45;&gt;Node2 -->
<g id="edge21" class="edge">
<title>Node15&#45;&gt;Node2</title>
<path fill="none" stroke="midnightblue" d="M555.72,-169.97C552.61,-169.29 549.49,-168.62 546.5,-168 471.34,-152.54 382.81,-137.23 334.16,-129.06"/>
<polygon fill="midnightblue" stroke="midnightblue" points="334.55,-125.58 324.11,-127.38 333.4,-132.48 334.55,-125.58"/>
</g>
<!-- Node15&#45;&gt;Node7 -->
<g id="edge22" class="edge">
<title>Node15&#45;&gt;Node7</title>
<path fill="none" stroke="midnightblue" d="M559.2,-168.44C529.14,-158.66 480.07,-142.7 448.8,-132.53"/>
<polygon fill="midnightblue" stroke="midnightblue" points="449.53,-129.09 438.94,-129.32 447.36,-135.74 449.53,-129.09"/>
</g>
<!-- Node15&#45;&gt;Node14 -->
<g id="edge23" class="edge">
<title>Node15&#45;&gt;Node14</title>
<path fill="none" stroke="midnightblue" d="M573.77,-168.32C562.66,-160.11 545.76,-147.6 532.52,-137.81"/>
<polygon fill="midnightblue" stroke="midnightblue" points="534.56,-134.97 524.44,-131.83 530.4,-140.59 534.56,-134.97"/>
</g>
<!-- Node16 -->
<g id="node16" class="node">
<title>Node16</title>
<g id="a_node16"><a xlink:href="setjmp_8h.html" target="_top" xlink:title=" ">
<polygon fill="white" stroke="black" points="527,-56.5 527,-75.5 586,-75.5 586,-56.5 527,-56.5"/>
<text text-anchor="middle" x="556.5" y="-63.5" font-family="Helvetica,sans-Serif" font-size="10.00">setjmp.h</text>
</a>
</g>
</g>
<!-- Node15&#45;&gt;Node16 -->
<g id="edge24" class="edge">
<title>Node15&#45;&gt;Node16</title>
<path fill="none" stroke="midnightblue" d="M583.22,-168.37C578.52,-150.54 567.65,-109.3 561.32,-85.27"/>
<polygon fill="midnightblue" stroke="midnightblue" points="564.7,-84.37 558.77,-75.59 557.93,-86.15 564.7,-84.37"/>
</g>
<!-- Node17 -->
<g id="node17" class="node">
<title>Node17</title>
<g id="a_node17"><a xlink:href="ctype_8h.html" target="_top" xlink:title=" ">
<polygon fill="white" stroke="black" points="597,-112.5 597,-131.5 650,-131.5 650,-112.5 597,-112.5"/>
<text text-anchor="middle" x="623.5" y="-119.5" font-family="Helvetica,sans-Serif" font-size="10.00">ctype.h</text>
</a>
</g>
</g>
<!-- Node15&#45;&gt;Node17 -->
<g id="edge26" class="edge">
<title>Node15&#45;&gt;Node17</title>
<path fill="none" stroke="midnightblue" d="M591.77,-168.08C597.14,-160.46 605.02,-149.26 611.58,-139.94"/>
<polygon fill="midnightblue" stroke="midnightblue" points="614.45,-141.94 617.34,-131.75 608.72,-137.91 614.45,-141.94"/>
</g>
<!-- Node16&#45;&gt;Node6 -->
<g id="edge25" class="edge">
<title>Node16&#45;&gt;Node6</title>
<path fill="none" stroke="midnightblue" d="M554.68,-56.08C553.23,-48.93 551.13,-38.64 549.31,-29.69"/>
<polygon fill="midnightblue" stroke="midnightblue" points="552.71,-28.85 547.28,-19.75 545.85,-30.25 552.71,-28.85"/>
</g>
<!-- Node18&#45;&gt;Node2 -->
<g id="edge28" class="edge">
<title>Node18&#45;&gt;Node2</title>
<path fill="none" stroke="midnightblue" d="M332.52,-224.37C326.36,-206.54 312.11,-165.3 303.81,-141.27"/>
<polygon fill="midnightblue" stroke="midnightblue" points="307.04,-139.9 300.47,-131.59 300.43,-142.19 307.04,-139.9"/>
</g>
<!-- Node18&#45;&gt;Node7 -->
<g id="edge29" class="edge">
<title>Node18&#45;&gt;Node7</title>
<path fill="none" stroke="midnightblue" d="M336.21,-224.2C337.66,-210.89 341.98,-185.35 354.5,-168 364,-154.83 378.6,-144.23 391.55,-136.62"/>
<polygon fill="midnightblue" stroke="midnightblue" points="393.54,-139.53 400.6,-131.63 390.16,-133.4 393.54,-139.53"/>
</g>
<!-- Node18&#45;&gt;Node8 -->
<g id="edge31" class="edge">
<title>Node18&#45;&gt;Node8</title>
<path fill="none" stroke="midnightblue" d="M345.46,-224.32C354.63,-216.34 368.44,-204.31 379.53,-194.65"/>
<polygon fill="midnightblue" stroke="midnightblue" points="382.12,-197.04 387.36,-187.83 377.52,-191.76 382.12,-197.04"/>
</g>
<!-- Node18&#45;&gt;Node9 -->
<g id="edge30" class="edge">
<title>Node18&#45;&gt;Node9</title>
<path fill="none" stroke="midnightblue" d="M320.4,-224.32C305.6,-215.82 282.81,-202.73 265.52,-192.8"/>
<polygon fill="midnightblue" stroke="midnightblue" points="266.98,-189.6 256.57,-187.65 263.49,-195.67 266.98,-189.6"/>
</g>
</g>
</svg>
