<?xml version="1.0" encoding="UTF-8" standalone="no"?>
<!DOCTYPE svg PUBLIC "-//W3C//DTD SVG 1.1//EN"
 "http://www.w3.org/Graphics/SVG/1.1/DTD/svg11.dtd">
<!-- Generated by graphviz version 9.0.0 (20230911.1827)
 -->
<!-- Title: iop/sound/audsrv/src/adpcm.c Pages: 1 -->
<svg width="1062pt" height="260pt"
 viewBox="0.00 0.00 1061.50 259.50" xmlns="http://www.w3.org/2000/svg" xmlns:xlink="http://www.w3.org/1999/xlink">
<g id="graph0" class="graph" transform="scale(1 1) rotate(0) translate(4 255.5)">
<title>iop/sound/audsrv/src/adpcm.c</title>
<!-- Node1 -->
<g id="Node000001" class="node">
<title>Node1</title>
<g id="a_Node000001"><a xlink:title=" ">
<polygon fill="#999999" stroke="#666666" points="550.5,-251.5 443.75,-251.5 443.75,-221 550.5,-221 550.5,-251.5"/>
<text text-anchor="start" x="451.75" y="-238" font-family="Helvetica,sans-Serif" font-size="10.00">iop/sound/audsrv/src</text>
<text text-anchor="middle" x="497.12" y="-226.75" font-family="Helvetica,sans-Serif" font-size="10.00">/adpcm.c</text>
</a>
</g>
</g>
<!-- Node2 -->
<g id="Node000002" class="node">
<title>Node2</title>
<g id="a_Node000002"><a xlink:href="stdio_8h.html" target="_top" xlink:title=" ">
<polygon fill="white" stroke="#666666" points="424.38,-185 379.88,-185 379.88,-165.75 424.38,-165.75 424.38,-185"/>
<text text-anchor="middle" x="402.12" y="-171.5" font-family="Helvetica,sans-Serif" font-size="10.00">stdio.h</text>
</a>
</g>
</g>
<!-- Node1&#45;&gt;Node2 -->
<g id="edge1_Node000001_Node000002" class="edge">
<title>Node1&#45;&gt;Node2</title>
<g id="a_edge1_Node000001_Node000002"><a xlink:title=" ">
<path fill="none" stroke="#63b8ff" d="M473.64,-220.7C459.32,-211.82 441.04,-200.49 426.54,-191.51"/>
<polygon fill="#63b8ff" stroke="#63b8ff" points="428.4,-188.54 418.06,-186.25 424.71,-194.49 428.4,-188.54"/>
</a>
</g>
</g>
<!-- Node8 -->
<g id="Node000008" class="node">
<title>Node8</title>
<g id="a_Node000008"><a xlink:href="thbase_8h.html" target="_top" xlink:title=" ">
<polygon fill="white" stroke="#666666" points="204.5,-185 151.75,-185 151.75,-165.75 204.5,-165.75 204.5,-185"/>
<text text-anchor="middle" x="178.12" y="-171.5" font-family="Helvetica,sans-Serif" font-size="10.00">thbase.h</text>
</a>
</g>
</g>
<!-- Node1&#45;&gt;Node8 -->
<g id="edge7_Node000001_Node000008" class="edge">
<title>Node1&#45;&gt;Node8</title>
<g id="a_edge7_Node000001_Node000008"><a xlink:title=" ">
<path fill="none" stroke="#63b8ff" d="M443.48,-226.7C388.82,-217.77 301.36,-202.88 216.03,-185.29"/>
<polygon fill="#63b8ff" stroke="#63b8ff" points="216.81,-181.87 206.3,-183.27 215.38,-188.73 216.81,-181.87"/>
</a>
</g>
</g>
<!-- Node9 -->
<g id="Node000009" class="node">
<title>Node9</title>
<g id="a_Node000009"><a xlink:href="thsemap_8h.html" target="_top" xlink:title=" ">
<polygon fill="white" stroke="#666666" points="283.62,-185 222.62,-185 222.62,-165.75 283.62,-165.75 283.62,-185"/>
<text text-anchor="middle" x="253.12" y="-171.5" font-family="Helvetica,sans-Serif" font-size="10.00">thsemap.h</text>
</a>
</g>
</g>
<!-- Node1&#45;&gt;Node9 -->
<g id="edge10_Node000001_Node000009" class="edge">
<title>Node1&#45;&gt;Node9</title>
<g id="a_edge10_Node000001_Node000009"><a xlink:title=" ">
<path fill="none" stroke="#63b8ff" d="M443.28,-222.26C398.63,-211.49 336.07,-196.39 295.08,-186.5"/>
<polygon fill="#63b8ff" stroke="#63b8ff" points="296.14,-183.15 285.59,-184.21 294.49,-189.96 296.14,-183.15"/>
</a>
</g>
</g>
<!-- Node10 -->
<g id="Node000010" class="node">
<title>Node10</title>
<g id="a_Node000010"><a xlink:href="loadcore_8h.html" target="_top" xlink:title=" ">
<polygon fill="white" stroke="#666666" points="60.25,-185 0,-185 0,-165.75 60.25,-165.75 60.25,-185"/>
<text text-anchor="middle" x="30.12" y="-171.5" font-family="Helvetica,sans-Serif" font-size="10.00">loadcore.h</text>
</a>
</g>
</g>
<!-- Node1&#45;&gt;Node10 -->
<g id="edge13_Node000001_Node000010" class="edge">
<title>Node1&#45;&gt;Node10</title>
<g id="a_edge13_Node000001_Node000010"><a xlink:title=" ">
<path fill="none" stroke="#63b8ff" d="M443.5,-230.7C364.34,-223.61 211.36,-208.43 72.01,-185.34"/>
<polygon fill="#63b8ff" stroke="#63b8ff" points="72.66,-181.9 62.22,-183.7 71.5,-188.8 72.66,-181.9"/>
</a>
</g>
</g>
<!-- Node11 -->
<g id="Node000011" class="node">
<title>Node11</title>
<g id="a_Node000011"><a xlink:href="sysmem_8h.html" target="_top" xlink:title=" ">
<polygon fill="white" stroke="#666666" points="362.25,-185 302,-185 302,-165.75 362.25,-165.75 362.25,-185"/>
<text text-anchor="middle" x="332.12" y="-171.5" font-family="Helvetica,sans-Serif" font-size="10.00">sysmem.h</text>
</a>
</g>
</g>
<!-- Node1&#45;&gt;Node11 -->
<g id="edge16_Node000001_Node000011" class="edge">
<title>Node1&#45;&gt;Node11</title>
<g id="a_edge16_Node000001_Node000011"><a xlink:title=" ">
<path fill="none" stroke="#63b8ff" d="M455.91,-220.55C428.97,-210.93 394.12,-198.5 368.26,-189.27"/>
<polygon fill="#63b8ff" stroke="#63b8ff" points="369.45,-185.98 358.85,-185.91 367.1,-192.57 369.45,-185.98"/>
</a>
</g>
</g>
<!-- Node12 -->
<g id="Node000012" class="node">
<title>Node12</title>
<g id="a_Node000012"><a xlink:href="intrman_8h.html" target="_top" xlink:title=" ">
<polygon fill="white" stroke="#666666" points="134,-185 78.25,-185 78.25,-165.75 134,-165.75 134,-185"/>
<text text-anchor="middle" x="106.12" y="-171.5" font-family="Helvetica,sans-Serif" font-size="10.00">intrman.h</text>
</a>
</g>
</g>
<!-- Node1&#45;&gt;Node12 -->
<g id="edge20_Node000001_Node000012" class="edge">
<title>Node1&#45;&gt;Node12</title>
<g id="a_edge20_Node000001_Node000012"><a xlink:title=" ">
<path fill="none" stroke="#63b8ff" d="M443.51,-229.13C376.2,-221.12 256.98,-205.84 145.47,-185.29"/>
<polygon fill="#63b8ff" stroke="#63b8ff" points="146.31,-181.89 135.84,-183.5 145.03,-188.77 146.31,-181.89"/>
</a>
</g>
</g>
<!-- Node13 -->
<g id="Node000013" class="node">
<title>Node13</title>
<g id="a_Node000013"><a xlink:title=" ">
<polygon fill="#e0e0e0" stroke="#999999" points="486,-185 442.25,-185 442.25,-165.75 486,-165.75 486,-185"/>
<text text-anchor="middle" x="464.12" y="-171.5" font-family="Helvetica,sans-Serif" font-size="10.00">libsd.h</text>
</a>
</g>
</g>
<!-- Node1&#45;&gt;Node13 -->
<g id="edge23_Node000001_Node000013" class="edge">
<title>Node1&#45;&gt;Node13</title>
<g id="a_edge23_Node000001_Node000013"><a xlink:title=" ">
<path fill="none" stroke="#63b8ff" d="M488.97,-220.7C484.67,-213.03 479.34,-203.52 474.73,-195.29"/>
<polygon fill="#63b8ff" stroke="#63b8ff" points="477.89,-193.78 469.95,-186.77 471.79,-197.21 477.89,-193.78"/>
</a>
</g>
</g>
<!-- Node14 -->
<g id="Node000014" class="node">
<title>Node14</title>
<g id="a_Node000014"><a xlink:href="sysclib_8h.html" target="_top" xlink:title=" ">
<polygon fill="white" stroke="#666666" points="557.88,-185 504.38,-185 504.38,-165.75 557.88,-165.75 557.88,-185"/>
<text text-anchor="middle" x="531.12" y="-171.5" font-family="Helvetica,sans-Serif" font-size="10.00">sysclib.h</text>
</a>
</g>
</g>
<!-- Node1&#45;&gt;Node14 -->
<g id="edge24_Node000001_Node000014" class="edge">
<title>Node1&#45;&gt;Node14</title>
<g id="a_edge24_Node000001_Node000014"><a xlink:title=" ">
<path fill="none" stroke="#63b8ff" d="M505.53,-220.7C509.96,-213.03 515.45,-203.52 520.2,-195.29"/>
<polygon fill="#63b8ff" stroke="#63b8ff" points="523.16,-197.17 525.13,-186.76 517.09,-193.67 523.16,-197.17"/>
</a>
</g>
</g>
<!-- Node17 -->
<g id="Node000017" class="node">
<title>Node17</title>
<g id="a_Node000017"><a xlink:title=" ">
<polygon fill="#e0e0e0" stroke="#999999" points="628.5,-185 575.75,-185 575.75,-165.75 628.5,-165.75 628.5,-185"/>
<text text-anchor="middle" x="602.12" y="-171.5" font-family="Helvetica,sans-Serif" font-size="10.00">audsrv.h</text>
</a>
</g>
</g>
<!-- Node1&#45;&gt;Node17 -->
<g id="edge31_Node000001_Node000017" class="edge">
<title>Node1&#45;&gt;Node17</title>
<g id="a_edge31_Node000001_Node000017"><a xlink:title=" ">
<path fill="none" stroke="#63b8ff" d="M523.35,-220.55C539.49,-211.49 560.1,-199.94 576.19,-190.91"/>
<polygon fill="#63b8ff" stroke="#63b8ff" points="577.69,-194.09 584.7,-186.14 574.27,-187.98 577.69,-194.09"/>
</a>
</g>
</g>
<!-- Node18 -->
<g id="Node000018" class="node">
<title>Node18</title>
<g id="a_Node000018"><a xlink:href="audsrv__internal_8h.html" target="_top" xlink:title=" ">
<polygon fill="white" stroke="#666666" points="735.88,-185 646.38,-185 646.38,-165.75 735.88,-165.75 735.88,-185"/>
<text text-anchor="middle" x="691.12" y="-171.5" font-family="Helvetica,sans-Serif" font-size="10.00">audsrv_internal.h</text>
</a>
</g>
</g>
<!-- Node1&#45;&gt;Node18 -->
<g id="edge32_Node000001_Node000018" class="edge">
<title>Node1&#45;&gt;Node18</title>
<g id="a_edge32_Node000001_Node000018"><a xlink:title=" ">
<path fill="none" stroke="#63b8ff" d="M545.58,-220.55C577.86,-210.75 619.82,-198.02 650.38,-188.74"/>
<polygon fill="#63b8ff" stroke="#63b8ff" points="651.09,-192.18 659.64,-185.93 649.05,-185.49 651.09,-192.18"/>
</a>
</g>
</g>
<!-- Node19 -->
<g id="Node000019" class="node">
<title>Node19</title>
<g id="a_Node000019"><a xlink:href="iop_2sound_2audsrv_2src_2common_8h.html" target="_top" xlink:title=" ">
<polygon fill="white" stroke="#666666" points="814.62,-185 753.62,-185 753.62,-165.75 814.62,-165.75 814.62,-185"/>
<text text-anchor="middle" x="784.12" y="-171.5" font-family="Helvetica,sans-Serif" font-size="10.00">common.h</text>
</a>
</g>
</g>
<!-- Node1&#45;&gt;Node19 -->
<g id="edge33_Node000001_Node000019" class="edge">
<title>Node1&#45;&gt;Node19</title>
<g id="a_edge33_Node000001_Node000019"><a xlink:title=" ">
<path fill="none" stroke="#63b8ff" d="M550.88,-224.64C598.7,-215.14 670.83,-200.66 742.46,-185.54"/>
<polygon fill="#63b8ff" stroke="#63b8ff" points="742.94,-189.01 752,-183.52 741.49,-182.17 742.94,-189.01"/>
</a>
</g>
</g>
<!-- Node20 -->
<g id="Node000020" class="node">
<title>Node20</title>
<g id="a_Node000020"><a xlink:href="iop_2sound_2audsrv_2src_2rpc__server_8h.html" target="_top" xlink:title=" ">
<polygon fill="white" stroke="#666666" points="901.75,-185 832.5,-185 832.5,-165.75 901.75,-165.75 901.75,-185"/>
<text text-anchor="middle" x="867.12" y="-171.5" font-family="Helvetica,sans-Serif" font-size="10.00">rpc_server.h</text>
</a>
</g>
</g>
<!-- Node1&#45;&gt;Node20 -->
<g id="edge34_Node000001_Node000020" class="edge">
<title>Node1&#45;&gt;Node20</title>
<g id="a_edge34_Node000001_Node000020"><a xlink:title=" ">
<path fill="none" stroke="#63b8ff" d="M550.77,-227.77C613.31,-218.88 720.05,-203.18 821.08,-185.48"/>
<polygon fill="#63b8ff" stroke="#63b8ff" points="821.69,-188.92 830.93,-183.74 820.47,-182.03 821.69,-188.92"/>
</a>
</g>
</g>
<!-- Node21 -->
<g id="Node000021" class="node">
<title>Node21</title>
<g id="a_Node000021"><a xlink:href="spu_8h.html" target="_top" xlink:title=" ">
<polygon fill="white" stroke="#666666" points="958.75,-185 919.5,-185 919.5,-165.75 958.75,-165.75 958.75,-185"/>
<text text-anchor="middle" x="939.12" y="-171.5" font-family="Helvetica,sans-Serif" font-size="10.00">spu.h</text>
</a>
</g>
</g>
<!-- Node1&#45;&gt;Node21 -->
<g id="edge35_Node000001_Node000021" class="edge">
<title>Node1&#45;&gt;Node21</title>
<g id="a_edge35_Node000001_Node000021"><a xlink:title=" ">
<path fill="none" stroke="#63b8ff" d="M550.89,-231.79C628.17,-226.16 775.16,-212.93 907.89,-185.38"/>
<polygon fill="#63b8ff" stroke="#63b8ff" points="908.51,-188.83 917.57,-183.34 907.06,-181.98 908.51,-188.83"/>
</a>
</g>
</g>
<!-- Node22 -->
<g id="Node000022" class="node">
<title>Node22</title>
<g id="a_Node000022"><a xlink:href="sound_2audsrv_2src_2debug__printf_8h_source.html" target="_top" xlink:title=" ">
<polygon fill="white" stroke="#666666" points="1053.5,-185 976.75,-185 976.75,-165.75 1053.5,-165.75 1053.5,-185"/>
<text text-anchor="middle" x="1015.12" y="-171.5" font-family="Helvetica,sans-Serif" font-size="10.00">debug_printf.h</text>
</a>
</g>
</g>
<!-- Node1&#45;&gt;Node22 -->
<g id="edge36_Node000001_Node000022" class="edge">
<title>Node1&#45;&gt;Node22</title>
<g id="a_edge36_Node000001_Node000022"><a xlink:title=" ">
<path fill="none" stroke="#63b8ff" d="M550.97,-230.83C636.58,-223.52 809.23,-207.58 965.23,-185.33"/>
<polygon fill="#63b8ff" stroke="#63b8ff" points="965.54,-188.82 974.94,-183.93 964.54,-181.89 965.54,-188.82"/>
</a>
</g>
</g>
<!-- Node3 -->
<g id="Node000003" class="node">
<title>Node3</title>
<g id="a_Node000003"><a xlink:title=" ">
<polygon fill="#e0e0e0" stroke="#999999" points="407.38,-129.75 356.88,-129.75 356.88,-110.5 407.38,-110.5 407.38,-129.75"/>
<text text-anchor="middle" x="382.12" y="-116.25" font-family="Helvetica,sans-Serif" font-size="10.00">stdarg.h</text>
</a>
</g>
</g>
<!-- Node2&#45;&gt;Node3 -->
<g id="edge2_Node000002_Node000003" class="edge">
<title>Node2&#45;&gt;Node3</title>
<g id="a_edge2_Node000002_Node000003"><a xlink:title=" ">
<path fill="none" stroke="#63b8ff" d="M398.82,-165.58C396.29,-158.84 392.7,-149.27 389.49,-140.74"/>
<polygon fill="#63b8ff" stroke="#63b8ff" points="392.82,-139.66 386.03,-131.53 386.27,-142.12 392.82,-139.66"/>
</a>
</g>
</g>
<!-- Node4 -->
<g id="Node000004" class="node">
<title>Node4</title>
<g id="a_Node000004"><a xlink:href="irx_8h.html" target="_top" xlink:title=" ">
<polygon fill="white" stroke="#666666" points="250.75,-129.75 217.5,-129.75 217.5,-110.5 250.75,-110.5 250.75,-129.75"/>
<text text-anchor="middle" x="234.12" y="-116.25" font-family="Helvetica,sans-Serif" font-size="10.00">irx.h</text>
</a>
</g>
</g>
<!-- Node2&#45;&gt;Node4 -->
<g id="edge3_Node000002_Node000004" class="edge">
<title>Node2&#45;&gt;Node4</title>
<g id="a_edge3_Node000002_Node000004"><a xlink:title=" ">
<path fill="none" stroke="#63b8ff" d="M379.47,-167.19C348.86,-157.49 294.37,-140.22 261.51,-129.8"/>
<polygon fill="#63b8ff" stroke="#63b8ff" points="262.89,-126.57 252.3,-126.89 260.78,-133.24 262.89,-126.57"/>
</a>
</g>
</g>
<!-- Node5 -->
<g id="Node000005" class="node">
<title>Node5</title>
<g id="a_Node000005"><a xlink:href="iop_2kernel_2include_2types_8h_source.html" target="_top" xlink:title=" ">
<polygon fill="white" stroke="#666666" points="279.5,-74.5 232.75,-74.5 232.75,-55.25 279.5,-55.25 279.5,-74.5"/>
<text text-anchor="middle" x="256.12" y="-61" font-family="Helvetica,sans-Serif" font-size="10.00">types.h</text>
</a>
</g>
</g>
<!-- Node4&#45;&gt;Node5 -->
<g id="edge4_Node000004_Node000005" class="edge">
<title>Node4&#45;&gt;Node5</title>
<g id="a_edge4_Node000004_Node000005"><a xlink:title=" ">
<path fill="none" stroke="#63b8ff" d="M237.76,-110.33C240.54,-103.59 244.5,-94.02 248.02,-85.49"/>
<polygon fill="#63b8ff" stroke="#63b8ff" points="251.25,-86.84 251.84,-76.26 244.78,-84.16 251.25,-86.84"/>
</a>
</g>
</g>
<!-- Node6 -->
<g id="Node000006" class="node">
<title>Node6</title>
<g id="a_Node000006"><a xlink:title=" ">
<polygon fill="#e0e0e0" stroke="#999999" points="281.38,-19.25 230.88,-19.25 230.88,0 281.38,0 281.38,-19.25"/>
<text text-anchor="middle" x="256.12" y="-5.75" font-family="Helvetica,sans-Serif" font-size="10.00">stddef.h</text>
</a>
</g>
</g>
<!-- Node5&#45;&gt;Node6 -->
<g id="edge5_Node000005_Node000006" class="edge">
<title>Node5&#45;&gt;Node6</title>
<g id="a_edge5_Node000005_Node000006"><a xlink:title=" ">
<path fill="none" stroke="#63b8ff" d="M256.12,-55.08C256.12,-48.57 256.12,-39.42 256.12,-31.12"/>
<polygon fill="#63b8ff" stroke="#63b8ff" points="259.63,-31.12 256.13,-21.12 252.63,-31.12 259.63,-31.12"/>
</a>
</g>
</g>
<!-- Node7 -->
<g id="Node000007" class="node">
<title>Node7</title>
<g id="a_Node000007"><a xlink:href="tamtypes_8h.html" target="_top" xlink:title=" ">
<polygon fill="white" stroke="#666666" points="459.75,-19.25 396.5,-19.25 396.5,0 459.75,0 459.75,-19.25"/>
<text text-anchor="middle" x="428.12" y="-5.75" font-family="Helvetica,sans-Serif" font-size="10.00">tamtypes.h</text>
</a>
</g>
</g>
<!-- Node5&#45;&gt;Node7 -->
<g id="edge6_Node000005_Node000007" class="edge">
<title>Node5&#45;&gt;Node7</title>
<g id="a_edge6_Node000005_Node000007"><a xlink:title=" ">
<path fill="none" stroke="#63b8ff" d="M279.68,-56.58C307.54,-47.96 354.36,-33.46 387.97,-23.06"/>
<polygon fill="#63b8ff" stroke="#63b8ff" points="388.86,-26.45 397.37,-20.15 386.79,-19.76 388.86,-26.45"/>
</a>
</g>
</g>
<!-- Node8&#45;&gt;Node4 -->
<g id="edge9_Node000008_Node000004" class="edge">
<title>Node8&#45;&gt;Node4</title>
<g id="a_edge9_Node000008_Node000004"><a xlink:title=" ">
<path fill="none" stroke="#63b8ff" d="M187.62,-165.34C195.56,-157.8 207.07,-146.85 216.66,-137.73"/>
<polygon fill="#63b8ff" stroke="#63b8ff" points="218.83,-140.49 223.67,-131.07 214.01,-135.42 218.83,-140.49"/>
</a>
</g>
</g>
<!-- Node8&#45;&gt;Node5 -->
<g id="edge8_Node000008_Node000005" class="edge">
<title>Node8&#45;&gt;Node5</title>
<g id="a_edge8_Node000008_Node000005"><a xlink:title=" ">
<path fill="none" stroke="#63b8ff" d="M181.05,-165.54C185.57,-152.66 195.12,-128.31 208.12,-110.5 215.87,-99.88 226.4,-89.76 235.62,-81.85"/>
<polygon fill="#63b8ff" stroke="#63b8ff" points="237.59,-84.76 243.09,-75.7 233.14,-79.36 237.59,-84.76"/>
</a>
</g>
</g>
<!-- Node9&#45;&gt;Node4 -->
<g id="edge12_Node000009_Node000004" class="edge">
<title>Node9&#45;&gt;Node4</title>
<g id="a_edge12_Node000009_Node000004"><a xlink:title=" ">
<path fill="none" stroke="#63b8ff" d="M249.99,-165.58C247.58,-158.84 244.17,-149.27 241.12,-140.74"/>
<polygon fill="#63b8ff" stroke="#63b8ff" points="244.5,-139.78 237.84,-131.53 237.9,-142.13 244.5,-139.78"/>
</a>
</g>
</g>
<!-- Node9&#45;&gt;Node5 -->
<g id="edge11_Node000009_Node000005" class="edge">
<title>Node9&#45;&gt;Node5</title>
<g id="a_edge11_Node000009_Node000005"><a xlink:title=" ">
<path fill="none" stroke="#63b8ff" d="M254.93,-165.53C256.66,-156.56 259.15,-142.26 260.12,-129.75 261.26,-115.13 260.17,-98.6 258.83,-86.02"/>
<polygon fill="#63b8ff" stroke="#63b8ff" points="262.35,-85.99 257.68,-76.48 255.41,-86.83 262.35,-85.99"/>
</a>
</g>
</g>
<!-- Node10&#45;&gt;Node4 -->
<g id="edge15_Node000010_Node000004" class="edge">
<title>Node10&#45;&gt;Node4</title>
<g id="a_edge15_Node000010_Node000004"><a xlink:title=" ">
<path fill="none" stroke="#63b8ff" d="M60.67,-166.4C100.15,-156.1 168.35,-138.29 206.41,-128.36"/>
<polygon fill="#63b8ff" stroke="#63b8ff" points="206.93,-131.84 215.72,-125.93 205.16,-125.07 206.93,-131.84"/>
</a>
</g>
</g>
<!-- Node10&#45;&gt;Node5 -->
<g id="edge14_Node000010_Node000005" class="edge">
<title>Node10&#45;&gt;Node5</title>
<g id="a_edge14_Node000010_Node000005"><a xlink:title=" ">
<path fill="none" stroke="#63b8ff" d="M48.31,-165.4C73.57,-152.97 120.73,-129.84 161.12,-110.5 182.97,-100.04 207.74,-88.42 226.51,-79.65"/>
<polygon fill="#63b8ff" stroke="#63b8ff" points="227.84,-82.89 235.43,-75.49 224.89,-76.55 227.84,-82.89"/>
</a>
</g>
</g>
<!-- Node11&#45;&gt;Node3 -->
<g id="edge19_Node000011_Node000003" class="edge">
<title>Node11&#45;&gt;Node3</title>
<g id="a_edge19_Node000011_Node000003"><a xlink:title=" ">
<path fill="none" stroke="#63b8ff" d="M340.38,-165.58C347.29,-158.23 357.35,-147.51 365.86,-138.44"/>
<polygon fill="#63b8ff" stroke="#63b8ff" points="368.36,-140.9 372.65,-131.21 363.26,-136.11 368.36,-140.9"/>
</a>
</g>
</g>
<!-- Node11&#45;&gt;Node4 -->
<g id="edge18_Node000011_Node000004" class="edge">
<title>Node11&#45;&gt;Node4</title>
<g id="a_edge18_Node000011_Node000004"><a xlink:title=" ">
<path fill="none" stroke="#63b8ff" d="M315.5,-165.34C300.44,-157.16 277.98,-144.96 260.47,-135.44"/>
<polygon fill="#63b8ff" stroke="#63b8ff" points="262.62,-132.62 252.16,-130.93 259.28,-138.77 262.62,-132.62"/>
</a>
</g>
</g>
<!-- Node11&#45;&gt;Node5 -->
<g id="edge17_Node000011_Node000005" class="edge">
<title>Node11&#45;&gt;Node5</title>
<g id="a_edge17_Node000011_Node000005"><a xlink:title=" ">
<path fill="none" stroke="#63b8ff" d="M325.91,-165.5C313.49,-147.77 285.42,-107.69 268.91,-84.13"/>
<polygon fill="#63b8ff" stroke="#63b8ff" points="271.9,-82.3 263.3,-76.12 266.17,-86.31 271.9,-82.3"/>
</a>
</g>
</g>
<!-- Node12&#45;&gt;Node4 -->
<g id="edge22_Node000012_Node000004" class="edge">
<title>Node12&#45;&gt;Node4</title>
<g id="a_edge22_Node000012_Node000004"><a xlink:title=" ">
<path fill="none" stroke="#63b8ff" d="M127.84,-165.34C149.64,-156.27 183.28,-142.28 206.86,-132.47"/>
<polygon fill="#63b8ff" stroke="#63b8ff" points="207.93,-135.81 215.82,-128.74 205.25,-129.35 207.93,-135.81"/>
</a>
</g>
</g>
<!-- Node12&#45;&gt;Node5 -->
<g id="edge21_Node000012_Node000005" class="edge">
<title>Node12&#45;&gt;Node5</title>
<g id="a_edge21_Node000012_Node000005"><a xlink:title=" ">
<path fill="none" stroke="#63b8ff" d="M118.01,-165.37C134.52,-152.9 165.41,-129.73 192.12,-110.5 205.7,-100.73 221.06,-90.01 233.33,-81.52"/>
<polygon fill="#63b8ff" stroke="#63b8ff" points="235.31,-84.41 241.56,-75.85 231.34,-78.64 235.31,-84.41"/>
</a>
</g>
</g>
<!-- Node14&#45;&gt;Node3 -->
<g id="edge27_Node000014_Node000003" class="edge">
<title>Node14&#45;&gt;Node3</title>
<g id="a_edge27_Node000014_Node000003"><a xlink:title=" ">
<path fill="none" stroke="#63b8ff" d="M505.85,-165.34C481.77,-156.74 445.27,-143.69 418.14,-134"/>
<polygon fill="#63b8ff" stroke="#63b8ff" points="419.54,-130.78 408.95,-130.71 417.19,-137.37 419.54,-130.78"/>
</a>
</g>
</g>
<!-- Node14&#45;&gt;Node4 -->
<g id="edge26_Node000014_Node000004" class="edge">
<title>Node14&#45;&gt;Node4</title>
<g id="a_edge26_Node000014_Node000004"><a xlink:title=" ">
<path fill="none" stroke="#63b8ff" d="M504.04,-167.68C501.04,-167 498.02,-166.34 495.12,-165.75 410.82,-148.46 310.24,-132.6 262.28,-125.32"/>
<polygon fill="#63b8ff" stroke="#63b8ff" points="262.9,-121.87 252.49,-123.84 261.85,-128.79 262.9,-121.87"/>
</a>
</g>
</g>
<!-- Node14&#45;&gt;Node5 -->
<g id="edge25_Node000014_Node000005" class="edge">
<title>Node14&#45;&gt;Node5</title>
<g id="a_edge25_Node000014_Node000005"><a xlink:title=" ">
<path fill="none" stroke="#63b8ff" d="M526.72,-165.28C519.37,-151.13 503.2,-124.07 481.12,-110.5 421.52,-73.85 337.74,-66.49 291.05,-65.48"/>
<polygon fill="#63b8ff" stroke="#63b8ff" points="291.3,-61.98 281.26,-65.36 291.21,-68.98 291.3,-61.98"/>
</a>
</g>
</g>
<!-- Node15 -->
<g id="Node000015" class="node">
<title>Node15</title>
<g id="a_Node000015"><a xlink:href="setjmp_8h.html" target="_top" xlink:title=" ">
<polygon fill="white" stroke="#666666" points="509.5,-74.5 456.75,-74.5 456.75,-55.25 509.5,-55.25 509.5,-74.5"/>
<text text-anchor="middle" x="483.12" y="-61" font-family="Helvetica,sans-Serif" font-size="10.00">setjmp.h</text>
</a>
</g>
</g>
<!-- Node14&#45;&gt;Node15 -->
<g id="edge28_Node000014_Node000015" class="edge">
<title>Node14&#45;&gt;Node15</title>
<g id="a_edge28_Node000014_Node000015"><a xlink:title=" ">
<path fill="none" stroke="#63b8ff" d="M529.74,-165.36C527.57,-152.68 522.71,-129.04 514.12,-110.5 509.78,-101.11 503.46,-91.57 497.67,-83.74"/>
<polygon fill="#63b8ff" stroke="#63b8ff" points="500.61,-81.82 491.72,-76.07 495.08,-86.11 500.61,-81.82"/>
</a>
</g>
</g>
<!-- Node16 -->
<g id="Node000016" class="node">
<title>Node16</title>
<g id="a_Node000016"><a xlink:href="ctype_8h.html" target="_top" xlink:title=" ">
<polygon fill="white" stroke="#666666" points="472.5,-129.75 425.75,-129.75 425.75,-110.5 472.5,-110.5 472.5,-129.75"/>
<text text-anchor="middle" x="449.12" y="-116.25" font-family="Helvetica,sans-Serif" font-size="10.00">ctype.h</text>
</a>
</g>
</g>
<!-- Node14&#45;&gt;Node16 -->
<g id="edge30_Node000014_Node000016" class="edge">
<title>Node14&#45;&gt;Node16</title>
<g id="a_edge30_Node000014_Node000016"><a xlink:title=" ">
<path fill="none" stroke="#63b8ff" d="M517.21,-165.34C504.96,-157.39 486.87,-145.64 472.41,-136.25"/>
<polygon fill="#63b8ff" stroke="#63b8ff" points="474.67,-133.54 464.37,-131.03 470.85,-139.41 474.67,-133.54"/>
</a>
</g>
</g>
<!-- Node15&#45;&gt;Node7 -->
<g id="edge29_Node000015_Node000007" class="edge">
<title>Node15&#45;&gt;Node7</title>
<g id="a_edge29_Node000015_Node000007"><a xlink:title=" ">
<path fill="none" stroke="#63b8ff" d="M474.04,-55.08C466.29,-47.57 454.91,-36.56 445.43,-27.38"/>
<polygon fill="#63b8ff" stroke="#63b8ff" points="448.11,-25.1 438.49,-20.66 443.24,-30.13 448.11,-25.1"/>
</a>
</g>
</g>
</g>
</svg>
