<?xml version="1.0" encoding="UTF-8" standalone="no"?>
<!DOCTYPE svg PUBLIC "-//W3C//DTD SVG 1.1//EN"
 "http://www.w3.org/Graphics/SVG/1.1/DTD/svg11.dtd">
<!-- Generated by graphviz version 12.2.0 (20241103.1931)
 -->
<!-- Title: iop/debug/iopdebug/src/main.c Pages: 1 -->
<svg width="453pt" height="315pt"
 viewBox="0.00 0.00 453.33 314.75" xmlns="http://www.w3.org/2000/svg" xmlns:xlink="http://www.w3.org/1999/xlink">

<svg id="main" version="1.1" xmlns="http://www.w3.org/2000/svg" xmlns:xlink="http://www.w3.org/1999/xlink" xml:space="preserve">

<style type="text/css"><![CDATA[
.node, .edge {opacity: 0.7;}
.node.selected, .edge.selected {opacity: 1;}
.edge:hover path { stroke: red; }
.edge:hover polygon { stroke: red; fill: red; }
]]></style>
<script type="application/ecmascript" xlink:href="svg.min.js"/>
<svg id="graph" class="graph">
<g id="graph0" class="graph" transform="scale(1 1) rotate(0) translate(4 310.75)">
<title>iop/debug/iopdebug/src/main.c</title>
<!-- Node1 -->
<g id="Node000001" class="node">
<title>Node1</title>
<g id="a_Node000001"><a xlink:title=" ">
<polygon fill="#999999" stroke="#666666" points="274.33,-306.75 174.33,-306.75 174.33,-276.25 274.33,-276.25 274.33,-306.75"/>
<text text-anchor="start" x="182.33" y="-293.25" font-family="Helvetica,sans-Serif" font-size="10.00">iop/debug/iopdebug</text>
<text text-anchor="middle" x="224.33" y="-282" font-family="Helvetica,sans-Serif" font-size="10.00">/src/main.c</text>
</a>
</g>
</g>
<!-- Node2 -->
<g id="Node000002" class="node">
<title>Node2</title>
<g id="a_Node000002"><a xlink:href="tamtypes_8h.html" target="_top" xlink:title=" ">
<polygon fill="white" stroke="#666666" points="386.95,-19.25 323.7,-19.25 323.7,0 386.95,0 386.95,-19.25"/>
<text text-anchor="middle" x="355.33" y="-5.75" font-family="Helvetica,sans-Serif" font-size="10.00">tamtypes.h</text>
</a>
</g>
</g>
<!-- Node1&#45;&gt;Node2 -->
<g id="edge1_Node000001_Node000002" class="edge">
<title>Node1&#45;&gt;Node2</title>
<g id="a_edge1_Node000001_Node000002"><a xlink:title=" ">
<path fill="none" stroke="#63b8ff" d="M274.75,-286.4C339.98,-278.03 445.33,-252.7 445.33,-176.38 445.33,-176.38 445.33,-176.38 445.33,-119.12 445.33,-78.11 406.76,-44.3 380.12,-25.83"/>
<polygon fill="#63b8ff" stroke="#63b8ff" points="382.13,-22.97 371.86,-20.36 378.26,-28.8 382.13,-22.97"/>
</a>
</g>
</g>
<!-- Node3 -->
<g id="Node000003" class="node">
<title>Node3</title>
<g id="a_Node000003"><a xlink:href="stdio_8h.html" target="_top" xlink:title=" ">
<polygon fill="white" stroke="#666666" points="60.58,-240.25 16.08,-240.25 16.08,-221 60.58,-221 60.58,-240.25"/>
<text text-anchor="middle" x="38.33" y="-226.75" font-family="Helvetica,sans-Serif" font-size="10.00">stdio.h</text>
</a>
</g>
</g>
<!-- Node1&#45;&gt;Node3 -->
<g id="edge2_Node000001_Node000003" class="edge">
<title>Node1&#45;&gt;Node3</title>
<g id="a_edge2_Node000001_Node000003"><a xlink:title=" ">
<path fill="none" stroke="#63b8ff" d="M177.87,-275.8C144.67,-265.29 100.8,-251.4 71.18,-242.02"/>
<polygon fill="#63b8ff" stroke="#63b8ff" points="72.62,-238.81 62.03,-239.13 70.5,-245.48 72.62,-238.81"/>
</a>
</g>
</g>
<!-- Node8 -->
<g id="Node000008" class="node">
<title>Node8</title>
<g id="a_Node000008"><a xlink:href="loadcore_8h.html" target="_top" xlink:title=" ">
<polygon fill="white" stroke="#666666" points="213.45,-185 153.2,-185 153.2,-165.75 213.45,-165.75 213.45,-185"/>
<text text-anchor="middle" x="183.33" y="-171.5" font-family="Helvetica,sans-Serif" font-size="10.00">loadcore.h</text>
</a>
</g>
</g>
<!-- Node1&#45;&gt;Node8 -->
<g id="edge8_Node000001_Node000008" class="edge">
<title>Node1&#45;&gt;Node8</title>
<g id="a_edge8_Node000001_Node000008"><a xlink:title=" ">
<path fill="none" stroke="#63b8ff" d="M219.14,-276.05C211.87,-255.81 198.63,-218.97 190.45,-196.19"/>
<polygon fill="#63b8ff" stroke="#63b8ff" points="193.77,-195.1 187.1,-186.87 187.19,-197.47 193.77,-195.1"/>
</a>
</g>
</g>
<!-- Node10 -->
<g id="Node000010" class="node">
<title>Node10</title>
<g id="a_Node000010"><a xlink:href="thbase_8h.html" target="_top" xlink:title=" ">
<polygon fill="white" stroke="#666666" points="134.7,-185 81.95,-185 81.95,-165.75 134.7,-165.75 134.7,-185"/>
<text text-anchor="middle" x="108.33" y="-171.5" font-family="Helvetica,sans-Serif" font-size="10.00">thbase.h</text>
</a>
</g>
</g>
<!-- Node1&#45;&gt;Node10 -->
<g id="edge11_Node000001_Node000010" class="edge">
<title>Node1&#45;&gt;Node10</title>
<g id="a_edge11_Node000001_Node000010"><a xlink:title=" ">
<path fill="none" stroke="#63b8ff" d="M209.64,-276.05C188.22,-254.97 148.49,-215.88 125.66,-193.43"/>
<polygon fill="#63b8ff" stroke="#63b8ff" points="128.21,-191.03 118.63,-186.51 123.3,-196.02 128.21,-191.03"/>
</a>
</g>
</g>
<!-- Node11 -->
<g id="Node000011" class="node">
<title>Node11</title>
<g id="a_Node000011"><a xlink:href="iopdebug_8h.html" target="_top" xlink:title=" ">
<polygon fill="white" stroke="#666666" points="367.58,-185 305.08,-185 305.08,-165.75 367.58,-165.75 367.58,-185"/>
<text text-anchor="middle" x="336.33" y="-171.5" font-family="Helvetica,sans-Serif" font-size="10.00">iopdebug.h</text>
</a>
</g>
</g>
<!-- Node1&#45;&gt;Node11 -->
<g id="edge14_Node000001_Node000011" class="edge">
<title>Node1&#45;&gt;Node11</title>
<g id="a_edge14_Node000001_Node000011"><a xlink:title=" ">
<path fill="none" stroke="#63b8ff" d="M260.7,-275.88C277.65,-267.55 296.96,-255.67 310.33,-240.25 321.26,-227.64 327.99,-209.84 331.86,-196.23"/>
<polygon fill="#63b8ff" stroke="#63b8ff" points="335.23,-197.19 334.28,-186.64 328.44,-195.48 335.23,-197.19"/>
</a>
</g>
</g>
<!-- Node14 -->
<g id="Node000014" class="node">
<title>Node14</title>
<g id="a_Node000014"><a xlink:href="iopdebug__priv_8h.html" target="_top" xlink:title=" ">
<polygon fill="white" stroke="#666666" points="301.08,-240.25 217.58,-240.25 217.58,-221 301.08,-221 301.08,-240.25"/>
<text text-anchor="middle" x="259.33" y="-226.75" font-family="Helvetica,sans-Serif" font-size="10.00">iopdebug_priv.h</text>
</a>
</g>
</g>
<!-- Node1&#45;&gt;Node14 -->
<g id="edge20_Node000001_Node000014" class="edge">
<title>Node1&#45;&gt;Node14</title>
<g id="a_edge20_Node000001_Node000014"><a xlink:title=" ">
<path fill="none" stroke="#63b8ff" d="M232.98,-275.95C237.54,-268.28 243.19,-258.77 248.08,-250.54"/>
<polygon fill="#63b8ff" stroke="#63b8ff" points="251.06,-252.39 253.16,-242 245.04,-248.81 251.06,-252.39"/>
</a>
</g>
</g>
<!-- Node4 -->
<g id="Node000004" class="node">
<title>Node4</title>
<g id="a_Node000004"><a xlink:title=" ">
<polygon fill="#e0e0e0" stroke="#999999" points="63.58,-185 13.08,-185 13.08,-165.75 63.58,-165.75 63.58,-185"/>
<text text-anchor="middle" x="38.33" y="-171.5" font-family="Helvetica,sans-Serif" font-size="10.00">stdarg.h</text>
</a>
</g>
</g>
<!-- Node3&#45;&gt;Node4 -->
<g id="edge3_Node000003_Node000004" class="edge">
<title>Node3&#45;&gt;Node4</title>
<g id="a_edge3_Node000003_Node000004"><a xlink:title=" ">
<path fill="none" stroke="#63b8ff" d="M38.33,-220.83C38.33,-214.32 38.33,-205.17 38.33,-196.87"/>
<polygon fill="#63b8ff" stroke="#63b8ff" points="41.83,-196.87 38.33,-186.87 34.83,-196.87 41.83,-196.87"/>
</a>
</g>
</g>
<!-- Node5 -->
<g id="Node000005" class="node">
<title>Node5</title>
<g id="a_Node000005"><a xlink:href="irx_8h.html" target="_top" xlink:title=" ">
<polygon fill="white" stroke="#666666" points="172.95,-129.75 139.7,-129.75 139.7,-110.5 172.95,-110.5 172.95,-129.75"/>
<text text-anchor="middle" x="156.33" y="-116.25" font-family="Helvetica,sans-Serif" font-size="10.00">irx.h</text>
</a>
</g>
</g>
<!-- Node3&#45;&gt;Node5 -->
<g id="edge4_Node000003_Node000005" class="edge">
<title>Node3&#45;&gt;Node5</title>
<g id="a_edge4_Node000003_Node000005"><a xlink:title=" ">
<path fill="none" stroke="#63b8ff" d="M27.53,-220.87C13.09,-208.08 -9.22,-183.85 4.33,-165.75 19.15,-145.95 88.2,-131.94 127.94,-125.36"/>
<polygon fill="#63b8ff" stroke="#63b8ff" points="128.42,-128.83 137.75,-123.8 127.32,-121.92 128.42,-128.83"/>
</a>
</g>
</g>
<!-- Node6 -->
<g id="Node000006" class="node">
<title>Node6</title>
<g id="a_Node000006"><a xlink:href="iop_2kernel_2include_2types_8h_source.html" target="_top" xlink:title=" ">
<polygon fill="white" stroke="#666666" points="234.7,-74.5 187.95,-74.5 187.95,-55.25 234.7,-55.25 234.7,-74.5"/>
<text text-anchor="middle" x="211.33" y="-61" font-family="Helvetica,sans-Serif" font-size="10.00">types.h</text>
</a>
</g>
</g>
<!-- Node5&#45;&gt;Node6 -->
<g id="edge5_Node000005_Node000006" class="edge">
<title>Node5&#45;&gt;Node6</title>
<g id="a_edge5_Node000005_Node000006"><a xlink:title=" ">
<path fill="none" stroke="#63b8ff" d="M165.41,-110.33C173.17,-102.82 184.54,-91.81 194.02,-82.63"/>
<polygon fill="#63b8ff" stroke="#63b8ff" points="196.21,-85.38 200.96,-75.91 191.34,-80.35 196.21,-85.38"/>
</a>
</g>
</g>
<!-- Node6&#45;&gt;Node2 -->
<g id="edge7_Node000006_Node000002" class="edge">
<title>Node6&#45;&gt;Node2</title>
<g id="a_edge7_Node000006_Node000002"><a xlink:title=" ">
<path fill="none" stroke="#63b8ff" d="M235.11,-55.08C258.31,-46.5 293.89,-33.35 320.32,-23.57"/>
<polygon fill="#63b8ff" stroke="#63b8ff" points="321.45,-26.89 329.61,-20.13 319.02,-20.32 321.45,-26.89"/>
</a>
</g>
</g>
<!-- Node7 -->
<g id="Node000007" class="node">
<title>Node7</title>
<g id="a_Node000007"><a xlink:title=" ">
<polygon fill="#e0e0e0" stroke="#999999" points="236.58,-19.25 186.08,-19.25 186.08,0 236.58,0 236.58,-19.25"/>
<text text-anchor="middle" x="211.33" y="-5.75" font-family="Helvetica,sans-Serif" font-size="10.00">stddef.h</text>
</a>
</g>
</g>
<!-- Node6&#45;&gt;Node7 -->
<g id="edge6_Node000006_Node000007" class="edge">
<title>Node6&#45;&gt;Node7</title>
<g id="a_edge6_Node000006_Node000007"><a xlink:title=" ">
<path fill="none" stroke="#63b8ff" d="M211.33,-55.08C211.33,-48.57 211.33,-39.42 211.33,-31.12"/>
<polygon fill="#63b8ff" stroke="#63b8ff" points="214.83,-31.12 211.33,-21.12 207.83,-31.12 214.83,-31.12"/>
</a>
</g>
</g>
<!-- Node8&#45;&gt;Node5 -->
<g id="edge10_Node000008_Node000005" class="edge">
<title>Node8&#45;&gt;Node5</title>
<g id="a_edge10_Node000008_Node000005"><a xlink:title=" ">
<path fill="none" stroke="#63b8ff" d="M178.87,-165.58C175.37,-158.69 170.38,-148.84 165.98,-140.16"/>
<polygon fill="#63b8ff" stroke="#63b8ff" points="169.21,-138.8 161.57,-131.46 162.97,-141.96 169.21,-138.8"/>
</a>
</g>
</g>
<!-- Node9 -->
<g id="Node000009" class="node">
<title>Node9</title>
<g id="a_Node000009"><a xlink:title=" ">
<polygon fill="#e0e0e0" stroke="#999999" points="237.7,-129.75 190.95,-129.75 190.95,-110.5 237.7,-110.5 237.7,-129.75"/>
<text text-anchor="middle" x="214.33" y="-116.25" font-family="Helvetica,sans-Serif" font-size="10.00">types.h</text>
</a>
</g>
</g>
<!-- Node8&#45;&gt;Node9 -->
<g id="edge9_Node000008_Node000009" class="edge">
<title>Node8&#45;&gt;Node9</title>
<g id="a_edge9_Node000008_Node000009"><a xlink:title=" ">
<path fill="none" stroke="#63b8ff" d="M188.45,-165.58C192.51,-158.61 198.32,-148.62 203.41,-139.87"/>
<polygon fill="#63b8ff" stroke="#63b8ff" points="206.33,-141.82 208.34,-131.42 200.28,-138.3 206.33,-141.82"/>
</a>
</g>
</g>
<!-- Node10&#45;&gt;Node5 -->
<g id="edge13_Node000010_Node000005" class="edge">
<title>Node10&#45;&gt;Node5</title>
<g id="a_edge13_Node000010_Node000005"><a xlink:title=" ">
<path fill="none" stroke="#63b8ff" d="M116.25,-165.58C122.88,-158.23 132.54,-147.51 140.72,-138.44"/>
<polygon fill="#63b8ff" stroke="#63b8ff" points="143.12,-141 147.22,-131.23 137.92,-136.32 143.12,-141"/>
</a>
</g>
</g>
<!-- Node10&#45;&gt;Node9 -->
<g id="edge12_Node000010_Node000009" class="edge">
<title>Node10&#45;&gt;Node9</title>
<g id="a_edge12_Node000010_Node000009"><a xlink:title=" ">
<path fill="none" stroke="#63b8ff" d="M126.31,-165.34C142.68,-157.12 167.12,-144.84 186.09,-135.31"/>
<polygon fill="#63b8ff" stroke="#63b8ff" points="187.54,-138.5 194.91,-130.88 184.4,-132.24 187.54,-138.5"/>
</a>
</g>
</g>
<!-- Node11&#45;&gt;Node5 -->
<g id="edge16_Node000011_Node000005" class="edge">
<title>Node11&#45;&gt;Node5</title>
<g id="a_edge16_Node000011_Node000005"><a xlink:title=" ">
<path fill="none" stroke="#63b8ff" d="M304.66,-165.58C275.65,-157.44 231.26,-144.78 184.1,-130.21"/>
<polygon fill="#63b8ff" stroke="#63b8ff" points="185.39,-126.95 174.81,-127.33 183.32,-133.64 185.39,-126.95"/>
</a>
</g>
</g>
<!-- Node11&#45;&gt;Node9 -->
<g id="edge15_Node000011_Node000009" class="edge">
<title>Node11&#45;&gt;Node9</title>
<g id="a_edge15_Node000011_Node000009"><a xlink:title=" ">
<path fill="none" stroke="#63b8ff" d="M315.63,-165.34C296.44,-156.97 267.61,-144.38 245.61,-134.78"/>
<polygon fill="#63b8ff" stroke="#63b8ff" points="247.08,-131.6 236.51,-130.81 244.28,-138.02 247.08,-131.6"/>
</a>
</g>
</g>
<!-- Node12 -->
<g id="Node000012" class="node">
<title>Node12</title>
<g id="a_Node000012"><a xlink:href="iop__cop0__defs_8h.html" target="_top" xlink:title=" ">
<polygon fill="white" stroke="#666666" points="379.58,-129.75 293.08,-129.75 293.08,-110.5 379.58,-110.5 379.58,-129.75"/>
<text text-anchor="middle" x="336.33" y="-116.25" font-family="Helvetica,sans-Serif" font-size="10.00">iop_cop0_defs.h</text>
</a>
</g>
</g>
<!-- Node11&#45;&gt;Node12 -->
<g id="edge17_Node000011_Node000012" class="edge">
<title>Node11&#45;&gt;Node12</title>
<g id="a_edge17_Node000011_Node000012"><a xlink:title=" ">
<path fill="none" stroke="#63b8ff" d="M336.33,-165.58C336.33,-159.07 336.33,-149.92 336.33,-141.62"/>
<polygon fill="#63b8ff" stroke="#63b8ff" points="339.83,-141.62 336.33,-131.62 332.83,-141.62 339.83,-141.62"/>
</a>
</g>
</g>
<!-- Node13 -->
<g id="Node000013" class="node">
<title>Node13</title>
<g id="a_Node000013"><a xlink:href="ps2__debug_8h.html" target="_top" xlink:title=" ">
<polygon fill="white" stroke="#666666" points="339.7,-74.5 268.95,-74.5 268.95,-55.25 339.7,-55.25 339.7,-74.5"/>
<text text-anchor="middle" x="304.33" y="-61" font-family="Helvetica,sans-Serif" font-size="10.00">ps2_debug.h</text>
</a>
</g>
</g>
<!-- Node11&#45;&gt;Node13 -->
<g id="edge18_Node000011_Node000013" class="edge">
<title>Node11&#45;&gt;Node13</title>
<g id="a_edge18_Node000011_Node000013"><a xlink:title=" ">
<path fill="none" stroke="#63b8ff" d="M319.54,-165.32C307.26,-157.66 291.53,-145.42 284.33,-129.75 277.58,-115.07 284.06,-97.49 291.4,-84.49"/>
<polygon fill="#63b8ff" stroke="#63b8ff" points="294.32,-86.43 296.68,-76.1 288.39,-82.7 294.32,-86.43"/>
</a>
</g>
</g>
<!-- Node13&#45;&gt;Node2 -->
<g id="edge19_Node000013_Node000002" class="edge">
<title>Node13&#45;&gt;Node2</title>
<g id="a_edge19_Node000013_Node000002"><a xlink:title=" ">
<path fill="none" stroke="#63b8ff" d="M312.75,-55.08C319.87,-47.65 330.27,-36.79 339.01,-27.66"/>
<polygon fill="#63b8ff" stroke="#63b8ff" points="341.29,-30.35 345.68,-20.7 336.23,-25.5 341.29,-30.35"/>
</a>
</g>
</g>
<!-- Node14&#45;&gt;Node2 -->
<g id="edge21_Node000014_Node000002" class="edge">
<title>Node14&#45;&gt;Node2</title>
<g id="a_edge21_Node000014_Node000002"><a xlink:title=" ">
<path fill="none" stroke="#63b8ff" d="M301.35,-223.8C326.63,-218.11 357.48,-206.92 376.33,-185 414.54,-140.56 383.54,-64.56 365.71,-29.44"/>
<polygon fill="#63b8ff" stroke="#63b8ff" points="368.97,-28.11 361.2,-20.9 362.78,-31.38 368.97,-28.11"/>
</a>
</g>
</g>
<!-- Node15 -->
<g id="Node000015" class="node">
<title>Node15</title>
<g id="a_Node000015"><a xlink:href="intrman_8h.html" target="_top" xlink:title=" ">
<polygon fill="white" stroke="#666666" points="287.2,-185 231.45,-185 231.45,-165.75 287.2,-165.75 287.2,-185"/>
<text text-anchor="middle" x="259.33" y="-171.5" font-family="Helvetica,sans-Serif" font-size="10.00">intrman.h</text>
</a>
</g>
</g>
<!-- Node14&#45;&gt;Node15 -->
<g id="edge22_Node000014_Node000015" class="edge">
<title>Node14&#45;&gt;Node15</title>
<g id="a_edge22_Node000014_Node000015"><a xlink:title=" ">
<path fill="none" stroke="#63b8ff" d="M259.33,-220.83C259.33,-214.32 259.33,-205.17 259.33,-196.87"/>
<polygon fill="#63b8ff" stroke="#63b8ff" points="262.83,-196.87 259.33,-186.87 255.83,-196.87 262.83,-196.87"/>
</a>
</g>
</g>
<!-- Node15&#45;&gt;Node5 -->
<g id="edge24_Node000015_Node000005" class="edge">
<title>Node15&#45;&gt;Node5</title>
<g id="a_edge24_Node000015_Node000005"><a xlink:title=" ">
<path fill="none" stroke="#63b8ff" d="M241.86,-165.34C225.83,-157.06 201.85,-144.66 183.36,-135.1"/>
<polygon fill="#63b8ff" stroke="#63b8ff" points="185.04,-132.03 174.55,-130.54 181.82,-138.24 185.04,-132.03"/>
</a>
</g>
</g>
<!-- Node15&#45;&gt;Node9 -->
<g id="edge23_Node000015_Node000009" class="edge">
<title>Node15&#45;&gt;Node9</title>
<g id="a_edge23_Node000015_Node000009"><a xlink:title=" ">
<path fill="none" stroke="#63b8ff" d="M251.9,-165.58C245.75,-158.3 236.81,-147.73 229.2,-138.73"/>
<polygon fill="#63b8ff" stroke="#63b8ff" points="232.03,-136.64 222.9,-131.27 226.68,-141.16 232.03,-136.64"/>
</a>
</g>
</g>
</g>
</svg>
</svg>

<style type='text/css'>
<![CDATA[
[data-mouse-over-selected='false'] { opacity: 0.7; }
[data-mouse-over-selected='true']  { opacity: 1.0; }
]]>
</style>
<script type="application/ecmascript"><![CDATA[
document.addEventListener('DOMContentLoaded', (event) => {
  highlightEdges();
  highlightAdjacentNodes();
});
]]></script>
</svg>
