<?xml version="1.0" encoding="UTF-8" standalone="no"?>
<!DOCTYPE svg PUBLIC "-//W3C//DTD SVG 1.1//EN"
 "http://www.w3.org/Graphics/SVG/1.1/DTD/svg11.dtd">
<!-- Generated by graphviz version 12.2.0 (20241103.1931)
 -->
<!-- Title: ee/kernel/src/iopcontrol.c Pages: 1 -->
<svg width="448pt" height="304pt"
 viewBox="0.00 0.00 447.86 303.50" xmlns="http://www.w3.org/2000/svg" xmlns:xlink="http://www.w3.org/1999/xlink">

<svg id="main" version="1.1" xmlns="http://www.w3.org/2000/svg" xmlns:xlink="http://www.w3.org/1999/xlink" xml:space="preserve">

<style type="text/css"><![CDATA[
.node, .edge {opacity: 0.7;}
.node.selected, .edge.selected {opacity: 1;}
.edge:hover path { stroke: red; }
.edge:hover polygon { stroke: red; fill: red; }
]]></style>
<script type="application/ecmascript" xlink:href="svg.min.js"/>
<svg id="graph" class="graph">
<g id="graph0" class="graph" transform="scale(1 1) rotate(0) translate(4 299.5)">
<title>ee/kernel/src/iopcontrol.c</title>
<!-- Node1 -->
<g id="Node000001" class="node">
<title>Node1</title>
<g id="a_Node000001"><a xlink:title=" ">
<polygon fill="#999999" stroke="#666666" points="285.48,-295.5 160.73,-295.5 160.73,-276.25 285.48,-276.25 285.48,-295.5"/>
<text text-anchor="middle" x="223.11" y="-282" font-family="Helvetica,sans-Serif" font-size="10.00">ee/kernel/src/iopcontrol.c</text>
</a>
</g>
</g>
<!-- Node2 -->
<g id="Node000002" class="node">
<title>Node2</title>
<g id="a_Node000002"><a xlink:href="tamtypes_8h.html" target="_top" xlink:title=" ">
<polygon fill="white" stroke="#666666" points="176.73,-19.25 113.48,-19.25 113.48,0 176.73,0 176.73,-19.25"/>
<text text-anchor="middle" x="145.11" y="-5.75" font-family="Helvetica,sans-Serif" font-size="10.00">tamtypes.h</text>
</a>
</g>
</g>
<!-- Node1&#45;&gt;Node2 -->
<g id="edge1_Node000001_Node000002" class="edge">
<title>Node1&#45;&gt;Node2</title>
<g id="a_edge1_Node000001_Node000002"><a xlink:title=" ">
<path fill="none" stroke="#63b8ff" d="M260.23,-275.76C280.85,-269.01 305.6,-257.85 322.11,-240.25 342.85,-218.13 346.11,-206.7 346.11,-176.38 346.11,-176.38 346.11,-176.38 346.11,-119.12 346.11,-47.93 247.25,-23.23 188.2,-14.83"/>
<polygon fill="#63b8ff" stroke="#63b8ff" points="188.83,-11.38 178.46,-13.55 187.92,-18.32 188.83,-11.38"/>
</a>
</g>
</g>
<!-- Node3 -->
<g id="Node000003" class="node">
<title>Node3</title>
<g id="a_Node000003"><a xlink:href="kernel_8h.html" target="_top" xlink:title=" ">
<polygon fill="white" stroke="#666666" points="50.98,-185 1.23,-185 1.23,-165.75 50.98,-165.75 50.98,-185"/>
<text text-anchor="middle" x="26.11" y="-171.5" font-family="Helvetica,sans-Serif" font-size="10.00">kernel.h</text>
</a>
</g>
</g>
<!-- Node1&#45;&gt;Node3 -->
<g id="edge2_Node000001_Node000003" class="edge">
<title>Node1&#45;&gt;Node3</title>
<g id="a_edge2_Node000001_Node000003"><a xlink:title=" ">
<path fill="none" stroke="#63b8ff" d="M191.08,-275.81C166.62,-268.18 132.56,-256 105.11,-240.25 81.83,-226.9 58.32,-206.86 43.07,-192.79"/>
<polygon fill="#63b8ff" stroke="#63b8ff" points="45.9,-190.64 36.22,-186.34 41.1,-195.74 45.9,-190.64"/>
</a>
</g>
</g>
<!-- Node7 -->
<g id="Node000007" class="node">
<title>Node7</title>
<g id="a_Node000007"><a xlink:title=" ">
<polygon fill="#e0e0e0" stroke="#999999" points="181.48,-240.25 128.73,-240.25 128.73,-221 181.48,-221 181.48,-240.25"/>
<text text-anchor="middle" x="155.11" y="-226.75" font-family="Helvetica,sans-Serif" font-size="10.00">sifcmd.h</text>
</a>
</g>
</g>
<!-- Node1&#45;&gt;Node7 -->
<g id="edge7_Node000001_Node000007" class="edge">
<title>Node1&#45;&gt;Node7</title>
<g id="a_edge7_Node000001_Node000007"><a xlink:title=" ">
<path fill="none" stroke="#63b8ff" d="M211.57,-275.84C201.65,-268.07 187.1,-256.67 175.25,-247.4"/>
<polygon fill="#63b8ff" stroke="#63b8ff" points="177.7,-244.87 167.66,-241.46 173.38,-250.38 177.7,-244.87"/>
</a>
</g>
</g>
<!-- Node8 -->
<g id="Node000008" class="node">
<title>Node8</title>
<g id="a_Node000008"><a xlink:title=" ">
<polygon fill="#e0e0e0" stroke="#999999" points="246.86,-240.25 199.36,-240.25 199.36,-221 246.86,-221 246.86,-240.25"/>
<text text-anchor="middle" x="223.11" y="-226.75" font-family="Helvetica,sans-Serif" font-size="10.00">sifrpc.h</text>
</a>
</g>
</g>
<!-- Node1&#45;&gt;Node8 -->
<g id="edge8_Node000001_Node000008" class="edge">
<title>Node1&#45;&gt;Node8</title>
<g id="a_edge8_Node000001_Node000008"><a xlink:title=" ">
<path fill="none" stroke="#63b8ff" d="M223.11,-276.08C223.11,-269.57 223.11,-260.42 223.11,-252.12"/>
<polygon fill="#63b8ff" stroke="#63b8ff" points="226.61,-252.12 223.11,-242.12 219.61,-252.12 226.61,-252.12"/>
</a>
</g>
</g>
<!-- Node9 -->
<g id="Node000009" class="node">
<title>Node9</title>
<g id="a_Node000009"><a xlink:href="string_8h_source.html" target="_top" xlink:title=" ">
<polygon fill="white" stroke="#666666" points="312.86,-240.25 265.36,-240.25 265.36,-221 312.86,-221 312.86,-240.25"/>
<text text-anchor="middle" x="289.11" y="-226.75" font-family="Helvetica,sans-Serif" font-size="10.00">string.h</text>
</a>
</g>
</g>
<!-- Node1&#45;&gt;Node9 -->
<g id="edge9_Node000001_Node000009" class="edge">
<title>Node1&#45;&gt;Node9</title>
<g id="a_edge9_Node000001_Node000009"><a xlink:title=" ">
<path fill="none" stroke="#63b8ff" d="M234.3,-275.84C243.84,-268.15 257.78,-256.9 269.21,-247.68"/>
<polygon fill="#63b8ff" stroke="#63b8ff" points="271.31,-250.48 276.9,-241.48 266.92,-245.03 271.31,-250.48"/>
</a>
</g>
</g>
<!-- Node16 -->
<g id="Node000016" class="node">
<title>Node16</title>
<g id="a_Node000016"><a xlink:href="stdio_8h.html" target="_top" xlink:title=" ">
<polygon fill="white" stroke="#666666" points="123.36,-185 78.86,-185 78.86,-165.75 123.36,-165.75 123.36,-185"/>
<text text-anchor="middle" x="101.11" y="-171.5" font-family="Helvetica,sans-Serif" font-size="10.00">stdio.h</text>
</a>
</g>
</g>
<!-- Node1&#45;&gt;Node16 -->
<g id="edge20_Node000001_Node000016" class="edge">
<title>Node1&#45;&gt;Node16</title>
<g id="a_edge20_Node000001_Node000016"><a xlink:title=" ">
<path fill="none" stroke="#63b8ff" d="M181.47,-275.78C160.41,-269.19 136.01,-258.18 120.11,-240.25 109.41,-228.19 104.73,-210.33 102.68,-196.56"/>
<polygon fill="#63b8ff" stroke="#63b8ff" points="106.19,-196.41 101.62,-186.86 99.23,-197.18 106.19,-196.41"/>
</a>
</g>
</g>
<!-- Node17 -->
<g id="Node000017" class="node">
<title>Node17</title>
<g id="a_Node000017"><a xlink:href="iopcontrol_8h.html" target="_top" xlink:title=" ">
<polygon fill="white" stroke="#666666" points="439.86,-240.25 374.36,-240.25 374.36,-221 439.86,-221 439.86,-240.25"/>
<text text-anchor="middle" x="407.11" y="-226.75" font-family="Helvetica,sans-Serif" font-size="10.00">iopcontrol.h</text>
</a>
</g>
</g>
<!-- Node1&#45;&gt;Node17 -->
<g id="edge23_Node000001_Node000017" class="edge">
<title>Node1&#45;&gt;Node17</title>
<g id="a_edge23_Node000001_Node000017"><a xlink:title=" ">
<path fill="none" stroke="#63b8ff" d="M254.32,-275.84C284.72,-267.04 331.15,-253.61 364.84,-243.86"/>
<polygon fill="#63b8ff" stroke="#63b8ff" points="365.66,-247.27 374.29,-241.12 363.71,-240.54 365.66,-247.27"/>
</a>
</g>
</g>
<!-- Node4 -->
<g id="Node000004" class="node">
<title>Node4</title>
<g id="a_Node000004"><a xlink:title=" ">
<polygon fill="#e0e0e0" stroke="#999999" points="69.36,-19.25 18.86,-19.25 18.86,0 69.36,0 69.36,-19.25"/>
<text text-anchor="middle" x="44.11" y="-5.75" font-family="Helvetica,sans-Serif" font-size="10.00">stddef.h</text>
</a>
</g>
</g>
<!-- Node3&#45;&gt;Node4 -->
<g id="edge3_Node000003_Node000004" class="edge">
<title>Node3&#45;&gt;Node4</title>
<g id="a_edge3_Node000003_Node000004"><a xlink:title=" ">
<path fill="none" stroke="#63b8ff" d="M21.41,-165.41C11.47,-145.16 -9.65,-94.57 5.11,-55.25 9.14,-44.5 17.08,-34.64 24.74,-26.94"/>
<polygon fill="#63b8ff" stroke="#63b8ff" points="26.7,-29.89 31.64,-20.52 21.93,-24.76 26.7,-29.89"/>
</a>
</g>
</g>
<!-- Node5 -->
<g id="Node000005" class="node">
<title>Node5</title>
<g id="a_Node000005"><a xlink:title=" ">
<polygon fill="#e0e0e0" stroke="#999999" points="99.36,-129.75 48.86,-129.75 48.86,-110.5 99.36,-110.5 99.36,-129.75"/>
<text text-anchor="middle" x="74.11" y="-116.25" font-family="Helvetica,sans-Serif" font-size="10.00">stdarg.h</text>
</a>
</g>
</g>
<!-- Node3&#45;&gt;Node5 -->
<g id="edge4_Node000003_Node000005" class="edge">
<title>Node3&#45;&gt;Node5</title>
<g id="a_edge4_Node000003_Node000005"><a xlink:title=" ">
<path fill="none" stroke="#63b8ff" d="M34.03,-165.58C40.66,-158.23 50.32,-147.51 58.5,-138.44"/>
<polygon fill="#63b8ff" stroke="#63b8ff" points="60.9,-141 65,-131.23 55.7,-136.32 60.9,-141"/>
</a>
</g>
</g>
<!-- Node6 -->
<g id="Node000006" class="node">
<title>Node6</title>
<g id="a_Node000006"><a xlink:href="sifdma_8h.html" target="_top" xlink:title=" ">
<polygon fill="white" stroke="#666666" points="66.48,-74.5 13.73,-74.5 13.73,-55.25 66.48,-55.25 66.48,-74.5"/>
<text text-anchor="middle" x="40.11" y="-61" font-family="Helvetica,sans-Serif" font-size="10.00">sifdma.h</text>
</a>
</g>
</g>
<!-- Node3&#45;&gt;Node6 -->
<g id="edge5_Node000003_Node000006" class="edge">
<title>Node3&#45;&gt;Node6</title>
<g id="a_edge5_Node000003_Node000006"><a xlink:title=" ">
<path fill="none" stroke="#63b8ff" d="M27.25,-165.5C29.48,-148.25 34.44,-109.83 37.5,-86.06"/>
<polygon fill="#63b8ff" stroke="#63b8ff" points="40.94,-86.74 38.75,-76.38 34,-85.85 40.94,-86.74"/>
</a>
</g>
</g>
<!-- Node6&#45;&gt;Node2 -->
<g id="edge6_Node000006_Node000002" class="edge">
<title>Node6&#45;&gt;Node2</title>
<g id="a_edge6_Node000006_Node000002"><a xlink:title=" ">
<path fill="none" stroke="#63b8ff" d="M57.92,-54.84C74.14,-46.62 98.34,-34.34 117.14,-24.81"/>
<polygon fill="#63b8ff" stroke="#63b8ff" points="118.52,-28.03 125.86,-20.39 115.36,-21.79 118.52,-28.03"/>
</a>
</g>
</g>
<!-- Node10 -->
<g id="Node000010" class="node">
<title>Node10</title>
<g id="a_Node000010"><a xlink:href="sysclib_8h.html" target="_top" xlink:title=" ">
<polygon fill="white" stroke="#666666" points="230.86,-185 177.36,-185 177.36,-165.75 230.86,-165.75 230.86,-185"/>
<text text-anchor="middle" x="204.11" y="-171.5" font-family="Helvetica,sans-Serif" font-size="10.00">sysclib.h</text>
</a>
</g>
</g>
<!-- Node9&#45;&gt;Node10 -->
<g id="edge10_Node000009_Node000010" class="edge">
<title>Node9&#45;&gt;Node10</title>
<g id="a_edge10_Node000009_Node000010"><a xlink:title=" ">
<path fill="none" stroke="#63b8ff" d="M274.69,-220.59C261.99,-212.64 243.23,-200.89 228.25,-191.5"/>
<polygon fill="#63b8ff" stroke="#63b8ff" points="230.21,-188.6 219.88,-186.26 226.5,-194.53 230.21,-188.6"/>
</a>
</g>
</g>
<!-- Node10&#45;&gt;Node5 -->
<g id="edge16_Node000010_Node000005" class="edge">
<title>Node10&#45;&gt;Node5</title>
<g id="a_edge16_Node000010_Node000005"><a xlink:title=" ">
<path fill="none" stroke="#63b8ff" d="M182.06,-165.34C161.42,-156.89 130.33,-144.15 106.8,-134.52"/>
<polygon fill="#63b8ff" stroke="#63b8ff" points="108.25,-131.33 97.67,-130.78 105.6,-137.81 108.25,-131.33"/>
</a>
</g>
</g>
<!-- Node11 -->
<g id="Node000011" class="node">
<title>Node11</title>
<g id="a_Node000011"><a xlink:title=" ">
<polygon fill="#e0e0e0" stroke="#999999" points="318.48,-129.75 271.73,-129.75 271.73,-110.5 318.48,-110.5 318.48,-129.75"/>
<text text-anchor="middle" x="295.11" y="-116.25" font-family="Helvetica,sans-Serif" font-size="10.00">types.h</text>
</a>
</g>
</g>
<!-- Node10&#45;&gt;Node11 -->
<g id="edge11_Node000010_Node000011" class="edge">
<title>Node10&#45;&gt;Node11</title>
<g id="a_edge11_Node000010_Node000011"><a xlink:title=" ">
<path fill="none" stroke="#63b8ff" d="M219.54,-165.34C233.27,-157.31 253.61,-145.41 269.72,-135.98"/>
<polygon fill="#63b8ff" stroke="#63b8ff" points="271.43,-139.04 278.29,-130.97 267.89,-133 271.43,-139.04"/>
</a>
</g>
</g>
<!-- Node12 -->
<g id="Node000012" class="node">
<title>Node12</title>
<g id="a_Node000012"><a xlink:href="irx_8h.html" target="_top" xlink:title=" ">
<polygon fill="white" stroke="#666666" points="150.73,-129.75 117.48,-129.75 117.48,-110.5 150.73,-110.5 150.73,-129.75"/>
<text text-anchor="middle" x="134.11" y="-116.25" font-family="Helvetica,sans-Serif" font-size="10.00">irx.h</text>
</a>
</g>
</g>
<!-- Node10&#45;&gt;Node12 -->
<g id="edge12_Node000010_Node000012" class="edge">
<title>Node10&#45;&gt;Node12</title>
<g id="a_edge12_Node000010_Node000012"><a xlink:title=" ">
<path fill="none" stroke="#63b8ff" d="M192.23,-165.34C182.02,-157.57 167.04,-146.17 154.84,-136.9"/>
<polygon fill="#63b8ff" stroke="#63b8ff" points="157.09,-134.21 147.01,-130.94 152.85,-139.78 157.09,-134.21"/>
</a>
</g>
</g>
<!-- Node14 -->
<g id="Node000014" class="node">
<title>Node14</title>
<g id="a_Node000014"><a xlink:href="setjmp_8h.html" target="_top" xlink:title=" ">
<polygon fill="white" stroke="#666666" points="205.48,-74.5 152.73,-74.5 152.73,-55.25 205.48,-55.25 205.48,-74.5"/>
<text text-anchor="middle" x="179.11" y="-61" font-family="Helvetica,sans-Serif" font-size="10.00">setjmp.h</text>
</a>
</g>
</g>
<!-- Node10&#45;&gt;Node14 -->
<g id="edge17_Node000010_Node000014" class="edge">
<title>Node10&#45;&gt;Node14</title>
<g id="a_edge17_Node000010_Node000014"><a xlink:title=" ">
<path fill="none" stroke="#63b8ff" d="M202.06,-165.5C198.09,-148.25 189.24,-109.83 183.76,-86.06"/>
<polygon fill="#63b8ff" stroke="#63b8ff" points="187.18,-85.31 181.52,-76.35 180.36,-86.88 187.18,-85.31"/>
</a>
</g>
</g>
<!-- Node15 -->
<g id="Node000015" class="node">
<title>Node15</title>
<g id="a_Node000015"><a xlink:href="ctype_8h.html" target="_top" xlink:title=" ">
<polygon fill="white" stroke="#666666" points="253.48,-129.75 206.73,-129.75 206.73,-110.5 253.48,-110.5 253.48,-129.75"/>
<text text-anchor="middle" x="230.11" y="-116.25" font-family="Helvetica,sans-Serif" font-size="10.00">ctype.h</text>
</a>
</g>
</g>
<!-- Node10&#45;&gt;Node15 -->
<g id="edge19_Node000010_Node000015" class="edge">
<title>Node10&#45;&gt;Node15</title>
<g id="a_edge19_Node000010_Node000015"><a xlink:title=" ">
<path fill="none" stroke="#63b8ff" d="M208.4,-165.58C211.73,-158.76 216.47,-149.06 220.67,-140.45"/>
<polygon fill="#63b8ff" stroke="#63b8ff" points="223.81,-141.99 225.06,-131.47 217.52,-138.92 223.81,-141.99"/>
</a>
</g>
</g>
<!-- Node13 -->
<g id="Node000013" class="node">
<title>Node13</title>
<g id="a_Node000013"><a xlink:href="iop_2kernel_2include_2types_8h_source.html" target="_top" xlink:title=" ">
<polygon fill="white" stroke="#666666" points="134.48,-74.5 87.73,-74.5 87.73,-55.25 134.48,-55.25 134.48,-74.5"/>
<text text-anchor="middle" x="111.11" y="-61" font-family="Helvetica,sans-Serif" font-size="10.00">types.h</text>
</a>
</g>
</g>
<!-- Node12&#45;&gt;Node13 -->
<g id="edge13_Node000012_Node000013" class="edge">
<title>Node12&#45;&gt;Node13</title>
<g id="a_edge13_Node000012_Node000013"><a xlink:title=" ">
<path fill="none" stroke="#63b8ff" d="M130.31,-110.33C127.36,-103.51 123.17,-93.81 119.46,-85.2"/>
<polygon fill="#63b8ff" stroke="#63b8ff" points="122.77,-84.04 115.59,-76.25 116.34,-86.82 122.77,-84.04"/>
</a>
</g>
</g>
<!-- Node13&#45;&gt;Node2 -->
<g id="edge15_Node000013_Node000002" class="edge">
<title>Node13&#45;&gt;Node2</title>
<g id="a_edge15_Node000013_Node000002"><a xlink:title=" ">
<path fill="none" stroke="#63b8ff" d="M116.72,-55.08C121.22,-48.03 127.69,-37.9 133.32,-29.08"/>
<polygon fill="#63b8ff" stroke="#63b8ff" points="136.13,-31.2 138.56,-20.88 130.23,-27.43 136.13,-31.2"/>
</a>
</g>
</g>
<!-- Node13&#45;&gt;Node4 -->
<g id="edge14_Node000013_Node000004" class="edge">
<title>Node13&#45;&gt;Node4</title>
<g id="a_edge14_Node000013_Node000004"><a xlink:title=" ">
<path fill="none" stroke="#63b8ff" d="M99.74,-54.84C90.06,-47.15 75.91,-35.9 64.3,-26.68"/>
<polygon fill="#63b8ff" stroke="#63b8ff" points="66.5,-23.95 56.49,-20.47 62.14,-29.43 66.5,-23.95"/>
</a>
</g>
</g>
<!-- Node14&#45;&gt;Node2 -->
<g id="edge18_Node000014_Node000002" class="edge">
<title>Node14&#45;&gt;Node2</title>
<g id="a_edge18_Node000014_Node000002"><a xlink:title=" ">
<path fill="none" stroke="#63b8ff" d="M173.49,-55.08C168.99,-48.03 162.52,-37.9 156.89,-29.08"/>
<polygon fill="#63b8ff" stroke="#63b8ff" points="159.99,-27.43 151.66,-20.88 154.09,-31.2 159.99,-27.43"/>
</a>
</g>
</g>
<!-- Node16&#45;&gt;Node5 -->
<g id="edge21_Node000016_Node000005" class="edge">
<title>Node16&#45;&gt;Node5</title>
<g id="a_edge21_Node000016_Node000005"><a xlink:title=" ">
<path fill="none" stroke="#63b8ff" d="M96.65,-165.58C93.15,-158.69 88.16,-148.84 83.76,-140.16"/>
<polygon fill="#63b8ff" stroke="#63b8ff" points="86.99,-138.8 79.35,-131.46 80.75,-141.96 86.99,-138.8"/>
</a>
</g>
</g>
<!-- Node16&#45;&gt;Node12 -->
<g id="edge22_Node000016_Node000012" class="edge">
<title>Node16&#45;&gt;Node12</title>
<g id="a_edge22_Node000016_Node000012"><a xlink:title=" ">
<path fill="none" stroke="#63b8ff" d="M106.56,-165.58C110.88,-158.61 117.07,-148.62 122.49,-139.87"/>
<polygon fill="#63b8ff" stroke="#63b8ff" points="125.45,-141.74 127.74,-131.4 119.5,-138.05 125.45,-141.74"/>
</a>
</g>
</g>
</g>
</svg>
</svg>

<style type='text/css'>
<![CDATA[
[data-mouse-over-selected='false'] { opacity: 0.7; }
[data-mouse-over-selected='true']  { opacity: 1.0; }
]]>
</style>
<script type="application/ecmascript"><![CDATA[
document.addEventListener('DOMContentLoaded', (event) => {
  highlightEdges();
  highlightAdjacentNodes();
});
]]></script>
</svg>
