<?xml version="1.0" encoding="UTF-8" standalone="no"?>
<!DOCTYPE svg PUBLIC "-//W3C//DTD SVG 1.1//EN"
 "http://www.w3.org/Graphics/SVG/1.1/DTD/svg11.dtd">
<!-- Generated by graphviz version 9.0.0 (20230911.1827)
 -->
<!-- Title: ee/kernel/src/iopcontrol.c Pages: 1 -->
<svg width="466pt" height="304pt"
 viewBox="0.00 0.00 465.75 303.50" xmlns="http://www.w3.org/2000/svg" xmlns:xlink="http://www.w3.org/1999/xlink">
<g id="graph0" class="graph" transform="scale(1 1) rotate(0) translate(4 299.5)">
<title>ee/kernel/src/iopcontrol.c</title>
<!-- Node1 -->
<g id="Node000001" class="node">
<title>Node1</title>
<g id="a_Node000001"><a xlink:title=" ">
<polygon fill="#999999" stroke="#666666" points="290.38,-295.5 165.62,-295.5 165.62,-276.25 290.38,-276.25 290.38,-295.5"/>
<text text-anchor="middle" x="228" y="-282" font-family="Helvetica,sans-Serif" font-size="10.00">ee/kernel/src/iopcontrol.c</text>
</a>
</g>
</g>
<!-- Node2 -->
<g id="Node000002" class="node">
<title>Node2</title>
<g id="a_Node000002"><a xlink:href="tamtypes_8h.html" target="_top" xlink:title=" ">
<polygon fill="white" stroke="#666666" points="147.62,-19.25 84.38,-19.25 84.38,0 147.62,0 147.62,-19.25"/>
<text text-anchor="middle" x="116" y="-5.75" font-family="Helvetica,sans-Serif" font-size="10.00">tamtypes.h</text>
</a>
</g>
</g>
<!-- Node1&#45;&gt;Node2 -->
<g id="edge1_Node000001_Node000002" class="edge">
<title>Node1&#45;&gt;Node2</title>
<g id="a_edge1_Node000001_Node000002"><a xlink:title=" ">
<path fill="none" stroke="#63b8ff" d="M165.4,-281.3C97.9,-273.66 0,-249.91 0,-176.38 0,-176.38 0,-176.38 0,-119.12 0,-87.17 10.59,-78.03 33,-55.25 46.27,-41.76 64.49,-31.35 80.48,-23.99"/>
<polygon fill="#63b8ff" stroke="#63b8ff" points="81.43,-27.4 89.21,-20.2 78.64,-20.98 81.43,-27.4"/>
</a>
</g>
</g>
<!-- Node3 -->
<g id="Node000003" class="node">
<title>Node3</title>
<g id="a_Node000003"><a xlink:href="kernel_8h.html" target="_top" xlink:title=" ">
<polygon fill="white" stroke="#666666" points="302.88,-185 253.12,-185 253.12,-165.75 302.88,-165.75 302.88,-185"/>
<text text-anchor="middle" x="278" y="-171.5" font-family="Helvetica,sans-Serif" font-size="10.00">kernel.h</text>
</a>
</g>
</g>
<!-- Node1&#45;&gt;Node3 -->
<g id="edge2_Node000001_Node000003" class="edge">
<title>Node1&#45;&gt;Node3</title>
<g id="a_edge2_Node000001_Node000003"><a xlink:title=" ">
<path fill="none" stroke="#63b8ff" d="M229.73,-275.87C232.38,-263.19 238.08,-239.56 247,-221 251.48,-211.67 257.82,-202.15 263.59,-194.3"/>
<polygon fill="#63b8ff" stroke="#63b8ff" points="266.18,-196.67 269.5,-186.61 260.63,-192.41 266.18,-196.67"/>
</a>
</g>
</g>
<!-- Node7 -->
<g id="Node000007" class="node">
<title>Node7</title>
<g id="a_Node000007"><a xlink:title=" ">
<polygon fill="#e0e0e0" stroke="#999999" points="308.38,-240.25 255.62,-240.25 255.62,-221 308.38,-221 308.38,-240.25"/>
<text text-anchor="middle" x="282" y="-226.75" font-family="Helvetica,sans-Serif" font-size="10.00">sifcmd.h</text>
</a>
</g>
</g>
<!-- Node1&#45;&gt;Node7 -->
<g id="edge7_Node000001_Node000007" class="edge">
<title>Node1&#45;&gt;Node7</title>
<g id="a_edge7_Node000001_Node000007"><a xlink:title=" ">
<path fill="none" stroke="#63b8ff" d="M236.92,-276.08C244.45,-268.65 255.47,-257.79 264.73,-248.66"/>
<polygon fill="#63b8ff" stroke="#63b8ff" points="267.15,-251.19 271.81,-241.67 262.23,-246.2 267.15,-251.19"/>
</a>
</g>
</g>
<!-- Node8 -->
<g id="Node000008" class="node">
<title>Node8</title>
<g id="a_Node000008"><a xlink:title=" ">
<polygon fill="#e0e0e0" stroke="#999999" points="373.75,-240.25 326.25,-240.25 326.25,-221 373.75,-221 373.75,-240.25"/>
<text text-anchor="middle" x="350" y="-226.75" font-family="Helvetica,sans-Serif" font-size="10.00">sifrpc.h</text>
</a>
</g>
</g>
<!-- Node1&#45;&gt;Node8 -->
<g id="edge8_Node000001_Node000008" class="edge">
<title>Node1&#45;&gt;Node8</title>
<g id="a_edge8_Node000001_Node000008"><a xlink:title=" ">
<path fill="none" stroke="#63b8ff" d="M248.7,-275.84C267.89,-267.47 296.71,-254.88 318.72,-245.28"/>
<polygon fill="#63b8ff" stroke="#63b8ff" points="320.05,-248.52 327.82,-241.31 317.25,-242.1 320.05,-248.52"/>
</a>
</g>
</g>
<!-- Node9 -->
<g id="Node000009" class="node">
<title>Node9</title>
<g id="a_Node000009"><a xlink:href="string_8h_source.html" target="_top" xlink:title=" ">
<polygon fill="white" stroke="#666666" points="154.75,-240.25 107.25,-240.25 107.25,-221 154.75,-221 154.75,-240.25"/>
<text text-anchor="middle" x="131" y="-226.75" font-family="Helvetica,sans-Serif" font-size="10.00">string.h</text>
</a>
</g>
</g>
<!-- Node1&#45;&gt;Node9 -->
<g id="edge9_Node000001_Node000009" class="edge">
<title>Node1&#45;&gt;Node9</title>
<g id="a_edge9_Node000001_Node000009"><a xlink:title=" ">
<path fill="none" stroke="#63b8ff" d="M211.55,-275.84C196.77,-267.73 174.82,-255.68 157.57,-246.21"/>
<polygon fill="#63b8ff" stroke="#63b8ff" points="159.31,-243.18 148.86,-241.43 155.94,-249.31 159.31,-243.18"/>
</a>
</g>
</g>
<!-- Node15 -->
<g id="Node000015" class="node">
<title>Node15</title>
<g id="a_Node000015"><a xlink:href="stdio_8h.html" target="_top" xlink:title=" ">
<polygon fill="white" stroke="#666666" points="216.25,-185 171.75,-185 171.75,-165.75 216.25,-165.75 216.25,-185"/>
<text text-anchor="middle" x="194" y="-171.5" font-family="Helvetica,sans-Serif" font-size="10.00">stdio.h</text>
</a>
</g>
</g>
<!-- Node1&#45;&gt;Node15 -->
<g id="edge20_Node000001_Node000015" class="edge">
<title>Node1&#45;&gt;Node15</title>
<g id="a_edge20_Node000001_Node000015"><a xlink:title=" ">
<path fill="none" stroke="#63b8ff" d="M225.21,-275.99C222.38,-266.98 217.89,-252.65 214,-240.25 209.36,-225.46 204.13,-208.74 200.18,-196.12"/>
<polygon fill="#63b8ff" stroke="#63b8ff" points="203.63,-195.41 197.3,-186.92 196.95,-197.51 203.63,-195.41"/>
</a>
</g>
</g>
<!-- Node16 -->
<g id="Node000016" class="node">
<title>Node16</title>
<g id="a_Node000016"><a xlink:href="iopcontrol_8h.html" target="_top" xlink:title=" ">
<polygon fill="white" stroke="#666666" points="457.75,-240.25 392.25,-240.25 392.25,-221 457.75,-221 457.75,-240.25"/>
<text text-anchor="middle" x="425" y="-226.75" font-family="Helvetica,sans-Serif" font-size="10.00">iopcontrol.h</text>
</a>
</g>
</g>
<!-- Node1&#45;&gt;Node16 -->
<g id="edge23_Node000001_Node000016" class="edge">
<title>Node1&#45;&gt;Node16</title>
<g id="a_edge23_Node000001_Node000016"><a xlink:title=" ">
<path fill="none" stroke="#63b8ff" d="M261.42,-275.84C294.45,-266.91 345.15,-253.21 381.34,-243.43"/>
<polygon fill="#63b8ff" stroke="#63b8ff" points="381.87,-246.91 390.61,-240.92 380.05,-240.15 381.87,-246.91"/>
</a>
</g>
</g>
<!-- Node4 -->
<g id="Node000004" class="node">
<title>Node4</title>
<g id="a_Node000004"><a xlink:title=" ">
<polygon fill="#e0e0e0" stroke="#999999" points="223.25,-19.25 172.75,-19.25 172.75,0 223.25,0 223.25,-19.25"/>
<text text-anchor="middle" x="198" y="-5.75" font-family="Helvetica,sans-Serif" font-size="10.00">stddef.h</text>
</a>
</g>
</g>
<!-- Node3&#45;&gt;Node4 -->
<g id="edge3_Node000003_Node000004" class="edge">
<title>Node3&#45;&gt;Node4</title>
<g id="a_edge3_Node000003_Node000004"><a xlink:title=" ">
<path fill="none" stroke="#63b8ff" d="M282.44,-165.32C292.18,-144 312.78,-89.82 289,-55.25 276.33,-36.83 253.82,-25.7 234.36,-19.16"/>
<polygon fill="#63b8ff" stroke="#63b8ff" points="235.38,-15.82 224.8,-16.26 233.35,-22.52 235.38,-15.82"/>
</a>
</g>
</g>
<!-- Node5 -->
<g id="Node000005" class="node">
<title>Node5</title>
<g id="a_Node000005"><a xlink:title=" ">
<polygon fill="#e0e0e0" stroke="#999999" points="270.25,-129.75 219.75,-129.75 219.75,-110.5 270.25,-110.5 270.25,-129.75"/>
<text text-anchor="middle" x="245" y="-116.25" font-family="Helvetica,sans-Serif" font-size="10.00">stdarg.h</text>
</a>
</g>
</g>
<!-- Node3&#45;&gt;Node5 -->
<g id="edge4_Node000003_Node000005" class="edge">
<title>Node3&#45;&gt;Node5</title>
<g id="a_edge4_Node000003_Node000005"><a xlink:title=" ">
<path fill="none" stroke="#63b8ff" d="M272.55,-165.58C268.23,-158.61 262.04,-148.62 256.62,-139.87"/>
<polygon fill="#63b8ff" stroke="#63b8ff" points="259.61,-138.05 251.36,-131.4 253.66,-141.74 259.61,-138.05"/>
</a>
</g>
</g>
<!-- Node6 -->
<g id="Node000006" class="node">
<title>Node6</title>
<g id="a_Node000006"><a xlink:href="sifdma_8h.html" target="_top" xlink:title=" ">
<polygon fill="white" stroke="#666666" points="280.38,-74.5 227.62,-74.5 227.62,-55.25 280.38,-55.25 280.38,-74.5"/>
<text text-anchor="middle" x="254" y="-61" font-family="Helvetica,sans-Serif" font-size="10.00">sifdma.h</text>
</a>
</g>
</g>
<!-- Node3&#45;&gt;Node6 -->
<g id="edge5_Node000003_Node000006" class="edge">
<title>Node3&#45;&gt;Node6</title>
<g id="a_edge5_Node000003_Node000006"><a xlink:title=" ">
<path fill="none" stroke="#63b8ff" d="M279.61,-165.52C281.55,-153.02 283.99,-129.6 279,-110.5 276.59,-101.28 271.82,-91.96 267.08,-84.23"/>
<polygon fill="#63b8ff" stroke="#63b8ff" points="270.14,-82.51 261.7,-76.11 264.3,-86.38 270.14,-82.51"/>
</a>
</g>
</g>
<!-- Node6&#45;&gt;Node2 -->
<g id="edge6_Node000006_Node000002" class="edge">
<title>Node6&#45;&gt;Node2</title>
<g id="a_edge6_Node000006_Node000002"><a xlink:title=" ">
<path fill="none" stroke="#63b8ff" d="M230.59,-54.84C208.48,-46.31 175.08,-33.42 150.03,-23.76"/>
<polygon fill="#63b8ff" stroke="#63b8ff" points="151.53,-20.58 140.94,-20.25 149.01,-27.11 151.53,-20.58"/>
</a>
</g>
</g>
<!-- Node10 -->
<g id="Node000010" class="node">
<title>Node10</title>
<g id="a_Node000010"><a xlink:href="sysclib_8h.html" target="_top" xlink:title=" ">
<polygon fill="white" stroke="#666666" points="153.75,-185 100.25,-185 100.25,-165.75 153.75,-165.75 153.75,-185"/>
<text text-anchor="middle" x="127" y="-171.5" font-family="Helvetica,sans-Serif" font-size="10.00">sysclib.h</text>
</a>
</g>
</g>
<!-- Node9&#45;&gt;Node10 -->
<g id="edge10_Node000009_Node000010" class="edge">
<title>Node9&#45;&gt;Node10</title>
<g id="a_edge10_Node000009_Node000010"><a xlink:title=" ">
<path fill="none" stroke="#63b8ff" d="M130.34,-220.83C129.84,-214.24 129.15,-204.96 128.52,-196.57"/>
<polygon fill="#63b8ff" stroke="#63b8ff" points="132.03,-196.58 127.79,-186.87 125.05,-197.1 132.03,-196.58"/>
</a>
</g>
</g>
<!-- Node10&#45;&gt;Node5 -->
<g id="edge16_Node000010_Node000005" class="edge">
<title>Node10&#45;&gt;Node5</title>
<g id="a_edge16_Node000010_Node000005"><a xlink:title=" ">
<path fill="none" stroke="#63b8ff" d="M147.02,-165.34C165.49,-157 193.21,-144.5 214.45,-134.91"/>
<polygon fill="#63b8ff" stroke="#63b8ff" points="215.83,-138.13 223.51,-130.83 212.95,-131.75 215.83,-138.13"/>
</a>
</g>
</g>
<!-- Node11 -->
<g id="Node000011" class="node">
<title>Node11</title>
<g id="a_Node000011"><a xlink:href="iop_2kernel_2include_2types_8h_source.html" target="_top" xlink:title=" ">
<polygon fill="white" stroke="#666666" points="180.38,-74.5 133.62,-74.5 133.62,-55.25 180.38,-55.25 180.38,-74.5"/>
<text text-anchor="middle" x="157" y="-61" font-family="Helvetica,sans-Serif" font-size="10.00">types.h</text>
</a>
</g>
</g>
<!-- Node10&#45;&gt;Node11 -->
<g id="edge11_Node000010_Node000011" class="edge">
<title>Node10&#45;&gt;Node11</title>
<g id="a_edge11_Node000010_Node000011"><a xlink:title=" ">
<path fill="none" stroke="#63b8ff" d="M116.66,-165.25C103.9,-152.83 85.05,-129.93 95,-110.5 101.61,-97.59 113.89,-87.57 125.79,-80.32"/>
<polygon fill="#63b8ff" stroke="#63b8ff" points="127.2,-83.54 134.24,-75.62 123.8,-77.42 127.2,-83.54"/>
</a>
</g>
</g>
<!-- Node12 -->
<g id="Node000012" class="node">
<title>Node12</title>
<g id="a_Node000012"><a xlink:href="irx_8h.html" target="_top" xlink:title=" ">
<polygon fill="white" stroke="#666666" points="201.62,-129.75 168.38,-129.75 168.38,-110.5 201.62,-110.5 201.62,-129.75"/>
<text text-anchor="middle" x="185" y="-116.25" font-family="Helvetica,sans-Serif" font-size="10.00">irx.h</text>
</a>
</g>
</g>
<!-- Node10&#45;&gt;Node12 -->
<g id="edge14_Node000010_Node000012" class="edge">
<title>Node10&#45;&gt;Node12</title>
<g id="a_edge14_Node000010_Node000012"><a xlink:title=" ">
<path fill="none" stroke="#63b8ff" d="M136.84,-165.34C145.05,-157.8 156.98,-146.85 166.91,-137.73"/>
<polygon fill="#63b8ff" stroke="#63b8ff" points="169.19,-140.39 174.19,-131.05 164.46,-135.23 169.19,-140.39"/>
</a>
</g>
</g>
<!-- Node13 -->
<g id="Node000013" class="node">
<title>Node13</title>
<g id="a_Node000013"><a xlink:href="setjmp_8h.html" target="_top" xlink:title=" ">
<polygon fill="white" stroke="#666666" points="94.38,-74.5 41.62,-74.5 41.62,-55.25 94.38,-55.25 94.38,-74.5"/>
<text text-anchor="middle" x="68" y="-61" font-family="Helvetica,sans-Serif" font-size="10.00">setjmp.h</text>
</a>
</g>
</g>
<!-- Node10&#45;&gt;Node13 -->
<g id="edge17_Node000010_Node000013" class="edge">
<title>Node10&#45;&gt;Node13</title>
<g id="a_edge17_Node000010_Node000013"><a xlink:title=" ">
<path fill="none" stroke="#63b8ff" d="M117.36,-165.28C108.86,-156.79 96.67,-143.41 89,-129.75 81.21,-115.86 75.76,-98.64 72.36,-85.58"/>
<polygon fill="#63b8ff" stroke="#63b8ff" points="75.81,-84.96 70.09,-76.05 69.01,-86.59 75.81,-84.96"/>
</a>
</g>
</g>
<!-- Node14 -->
<g id="Node000014" class="node">
<title>Node14</title>
<g id="a_Node000014"><a xlink:href="ctype_8h.html" target="_top" xlink:title=" ">
<polygon fill="white" stroke="#666666" points="150.38,-129.75 103.62,-129.75 103.62,-110.5 150.38,-110.5 150.38,-129.75"/>
<text text-anchor="middle" x="127" y="-116.25" font-family="Helvetica,sans-Serif" font-size="10.00">ctype.h</text>
</a>
</g>
</g>
<!-- Node10&#45;&gt;Node14 -->
<g id="edge19_Node000010_Node000014" class="edge">
<title>Node10&#45;&gt;Node14</title>
<g id="a_edge19_Node000010_Node000014"><a xlink:title=" ">
<path fill="none" stroke="#63b8ff" d="M127,-165.58C127,-159.07 127,-149.92 127,-141.62"/>
<polygon fill="#63b8ff" stroke="#63b8ff" points="130.5,-141.62 127,-131.62 123.5,-141.62 130.5,-141.62"/>
</a>
</g>
</g>
<!-- Node11&#45;&gt;Node2 -->
<g id="edge13_Node000011_Node000002" class="edge">
<title>Node11&#45;&gt;Node2</title>
<g id="a_edge13_Node000011_Node000002"><a xlink:title=" ">
<path fill="none" stroke="#63b8ff" d="M150.23,-55.08C144.68,-47.88 136.66,-37.46 129.77,-28.51"/>
<polygon fill="#63b8ff" stroke="#63b8ff" points="132.71,-26.6 123.84,-20.81 127.17,-30.87 132.71,-26.6"/>
</a>
</g>
</g>
<!-- Node11&#45;&gt;Node4 -->
<g id="edge12_Node000011_Node000004" class="edge">
<title>Node11&#45;&gt;Node4</title>
<g id="a_edge12_Node000011_Node000004"><a xlink:title=" ">
<path fill="none" stroke="#63b8ff" d="M163.77,-55.08C169.32,-47.88 177.34,-37.46 184.23,-28.51"/>
<polygon fill="#63b8ff" stroke="#63b8ff" points="186.83,-30.87 190.16,-20.81 181.29,-26.6 186.83,-30.87"/>
</a>
</g>
</g>
<!-- Node12&#45;&gt;Node11 -->
<g id="edge15_Node000012_Node000011" class="edge">
<title>Node12&#45;&gt;Node11</title>
<g id="a_edge15_Node000012_Node000011"><a xlink:title=" ">
<path fill="none" stroke="#63b8ff" d="M180.38,-110.33C176.75,-103.44 171.57,-93.59 167.01,-84.91"/>
<polygon fill="#63b8ff" stroke="#63b8ff" points="170.18,-83.42 162.43,-76.2 163.98,-86.68 170.18,-83.42"/>
</a>
</g>
</g>
<!-- Node13&#45;&gt;Node2 -->
<g id="edge18_Node000013_Node000002" class="edge">
<title>Node13&#45;&gt;Node2</title>
<g id="a_edge18_Node000013_Node000002"><a xlink:title=" ">
<path fill="none" stroke="#63b8ff" d="M75.93,-55.08C82.56,-47.73 92.22,-37.01 100.39,-27.94"/>
<polygon fill="#63b8ff" stroke="#63b8ff" points="102.79,-30.5 106.89,-20.73 97.59,-25.82 102.79,-30.5"/>
</a>
</g>
</g>
<!-- Node15&#45;&gt;Node5 -->
<g id="edge21_Node000015_Node000005" class="edge">
<title>Node15&#45;&gt;Node5</title>
<g id="a_edge21_Node000015_Node000005"><a xlink:title=" ">
<path fill="none" stroke="#63b8ff" d="M202.42,-165.58C209.54,-158.15 219.94,-147.29 228.69,-138.16"/>
<polygon fill="#63b8ff" stroke="#63b8ff" points="230.96,-140.85 235.35,-131.2 225.9,-136 230.96,-140.85"/>
</a>
</g>
</g>
<!-- Node15&#45;&gt;Node12 -->
<g id="edge22_Node000015_Node000012" class="edge">
<title>Node15&#45;&gt;Node12</title>
<g id="a_edge22_Node000015_Node000012"><a xlink:title=" ">
<path fill="none" stroke="#63b8ff" d="M192.51,-165.58C191.4,-158.99 189.83,-149.71 188.41,-141.32"/>
<polygon fill="#63b8ff" stroke="#63b8ff" points="191.89,-140.88 186.77,-131.6 184.99,-142.05 191.89,-140.88"/>
</a>
</g>
</g>
</g>
</svg>
