<?xml version="1.0" encoding="UTF-8" standalone="no"?>
<!DOCTYPE svg PUBLIC "-//W3C//DTD SVG 1.1//EN"
 "http://www.w3.org/Graphics/SVG/1.1/DTD/svg11.dtd">
<!-- Generated by graphviz version 9.0.0 (20230911.1827)
 -->
<!-- Title: iop/debug/iopdebug/include/iopdebug.h Pages: 1 -->
<svg width="256pt" height="204pt"
 viewBox="0.00 0.00 255.75 204.25" xmlns="http://www.w3.org/2000/svg" xmlns:xlink="http://www.w3.org/1999/xlink">

<svg id="main" version="1.1" xmlns="http://www.w3.org/2000/svg" xmlns:xlink="http://www.w3.org/1999/xlink" xml:space="preserve" onload="init(evt)">
<style type="text/css"><![CDATA[
.node, .edge {opacity: 0.7;}
.node.selected, .edge.selected {opacity: 1;}
.edge:hover path { stroke: red; }
.edge:hover polygon { stroke: red; fill: red; }
]]></style>
<script type="application/ecmascript" xlink:href="svg.min.js"/>
<svg id="graph" class="graph">
<g id="graph0" class="graph" transform="scale(1 1) rotate(0) translate(4 200.25)">
<title>iop/debug/iopdebug/include/iopdebug.h</title>
<!-- Node1 -->
<g id="Node000001" class="node">
<title>Node1</title>
<g id="a_Node000001"><a xlink:title=" ">
<polygon fill="#999999" stroke="#666666" points="170.38,-196.25 70.38,-196.25 70.38,-165.75 170.38,-165.75 170.38,-196.25"/>
<text text-anchor="start" x="78.38" y="-182.75" font-family="Helvetica,sans-Serif" font-size="10.00">iop/debug/iopdebug</text>
<text text-anchor="middle" x="120.38" y="-171.5" font-family="Helvetica,sans-Serif" font-size="10.00">/include/iopdebug.h</text>
</a>
</g>
</g>
<!-- Node2 -->
<g id="Node000002" class="node">
<title>Node2</title>
<g id="a_Node000002"><a xlink:title=" ">
<polygon fill="#e0e0e0" stroke="#999999" points="46.75,-129.75 0,-129.75 0,-110.5 46.75,-110.5 46.75,-129.75"/>
<text text-anchor="middle" x="23.38" y="-116.25" font-family="Helvetica,sans-Serif" font-size="10.00">types.h</text>
</a>
</g>
</g>
<!-- Node1&#45;&gt;Node2 -->
<g id="edge1_Node000001_Node000002" class="edge">
<title>Node1&#45;&gt;Node2</title>
<g id="a_edge1_Node000001_Node000002"><a xlink:title=" ">
<path fill="none" stroke="#63b8ff" d="M96.4,-165.45C81.63,-156.48 62.74,-145.02 47.88,-136"/>
<polygon fill="#63b8ff" stroke="#63b8ff" points="49.99,-133.18 39.62,-130.99 46.36,-139.17 49.99,-133.18"/>
</a>
</g>
</g>
<!-- Node3 -->
<g id="Node000003" class="node">
<title>Node3</title>
<g id="a_Node000003"><a xlink:href="irx_8h.html" target="_top" xlink:title=" ">
<polygon fill="white" stroke="#666666" points="98,-129.75 64.75,-129.75 64.75,-110.5 98,-110.5 98,-129.75"/>
<text text-anchor="middle" x="81.38" y="-116.25" font-family="Helvetica,sans-Serif" font-size="10.00">irx.h</text>
</a>
</g>
</g>
<!-- Node1&#45;&gt;Node3 -->
<g id="edge2_Node000001_Node000003" class="edge">
<title>Node1&#45;&gt;Node3</title>
<g id="a_edge2_Node000001_Node000003"><a xlink:title=" ">
<path fill="none" stroke="#63b8ff" d="M110.73,-165.45C105.6,-157.69 99.22,-148.06 93.72,-139.76"/>
<polygon fill="#63b8ff" stroke="#63b8ff" points="96.66,-137.87 88.22,-131.46 90.83,-141.73 96.66,-137.87"/>
</a>
</g>
</g>
<!-- Node7 -->
<g id="Node000007" class="node">
<title>Node7</title>
<g id="a_Node000007"><a xlink:href="iop__cop0__defs_8h.html" target="_top" xlink:title=" ">
<polygon fill="white" stroke="#666666" points="202.62,-129.75 116.12,-129.75 116.12,-110.5 202.62,-110.5 202.62,-129.75"/>
<text text-anchor="middle" x="159.38" y="-116.25" font-family="Helvetica,sans-Serif" font-size="10.00">iop_cop0_defs.h</text>
</a>
</g>
</g>
<!-- Node1&#45;&gt;Node7 -->
<g id="edge6_Node000001_Node000007" class="edge">
<title>Node1&#45;&gt;Node7</title>
<g id="a_edge6_Node000001_Node000007"><a xlink:title=" ">
<path fill="none" stroke="#63b8ff" d="M130.02,-165.45C135.15,-157.69 141.53,-148.06 147.03,-139.76"/>
<polygon fill="#63b8ff" stroke="#63b8ff" points="149.92,-141.73 152.53,-131.46 144.09,-137.87 149.92,-141.73"/>
</a>
</g>
</g>
<!-- Node8 -->
<g id="Node000008" class="node">
<title>Node8</title>
<g id="a_Node000008"><a xlink:href="ps2__debug_8h.html" target="_top" xlink:title=" ">
<polygon fill="white" stroke="#666666" points="247.75,-74.5 177,-74.5 177,-55.25 247.75,-55.25 247.75,-74.5"/>
<text text-anchor="middle" x="212.38" y="-61" font-family="Helvetica,sans-Serif" font-size="10.00">ps2_debug.h</text>
</a>
</g>
</g>
<!-- Node1&#45;&gt;Node8 -->
<g id="edge7_Node000001_Node000008" class="edge">
<title>Node1&#45;&gt;Node8</title>
<g id="a_edge7_Node000001_Node000008"><a xlink:title=" ">
<path fill="none" stroke="#63b8ff" d="M167.34,-165.35C184.23,-157.58 201.52,-146.15 211.38,-129.75 219.17,-116.78 218.94,-99.5 217.02,-86.18"/>
<polygon fill="#63b8ff" stroke="#63b8ff" points="220.47,-85.55 215.16,-76.38 213.59,-86.86 220.47,-85.55"/>
</a>
</g>
</g>
<!-- Node4 -->
<g id="Node000004" class="node">
<title>Node4</title>
<g id="a_Node000004"><a xlink:href="iop_2kernel_2include_2types_8h_source.html" target="_top" xlink:title=" ">
<polygon fill="white" stroke="#666666" points="140.75,-74.5 94,-74.5 94,-55.25 140.75,-55.25 140.75,-74.5"/>
<text text-anchor="middle" x="117.38" y="-61" font-family="Helvetica,sans-Serif" font-size="10.00">types.h</text>
</a>
</g>
</g>
<!-- Node3&#45;&gt;Node4 -->
<g id="edge3_Node000003_Node000004" class="edge">
<title>Node3&#45;&gt;Node4</title>
<g id="a_edge3_Node000003_Node000004"><a xlink:title=" ">
<path fill="none" stroke="#63b8ff" d="M87.32,-110.33C92.09,-103.28 98.94,-93.15 104.9,-84.33"/>
<polygon fill="#63b8ff" stroke="#63b8ff" points="107.75,-86.36 110.45,-76.11 101.95,-82.44 107.75,-86.36"/>
</a>
</g>
</g>
<!-- Node5 -->
<g id="Node000005" class="node">
<title>Node5</title>
<g id="a_Node000005"><a xlink:title=" ">
<polygon fill="#e0e0e0" stroke="#999999" points="142.62,-19.25 92.12,-19.25 92.12,0 142.62,0 142.62,-19.25"/>
<text text-anchor="middle" x="117.38" y="-5.75" font-family="Helvetica,sans-Serif" font-size="10.00">stddef.h</text>
</a>
</g>
</g>
<!-- Node4&#45;&gt;Node5 -->
<g id="edge4_Node000004_Node000005" class="edge">
<title>Node4&#45;&gt;Node5</title>
<g id="a_edge4_Node000004_Node000005"><a xlink:title=" ">
<path fill="none" stroke="#63b8ff" d="M117.38,-55.08C117.38,-48.57 117.38,-39.42 117.38,-31.12"/>
<polygon fill="#63b8ff" stroke="#63b8ff" points="120.88,-31.12 117.38,-21.12 113.88,-31.12 120.88,-31.12"/>
</a>
</g>
</g>
<!-- Node6 -->
<g id="Node000006" class="node">
<title>Node6</title>
<g id="a_Node000006"><a xlink:href="tamtypes_8h.html" target="_top" xlink:title=" ">
<polygon fill="white" stroke="#666666" points="225,-19.25 161.75,-19.25 161.75,0 225,0 225,-19.25"/>
<text text-anchor="middle" x="193.38" y="-5.75" font-family="Helvetica,sans-Serif" font-size="10.00">tamtypes.h</text>
</a>
</g>
</g>
<!-- Node4&#45;&gt;Node6 -->
<g id="edge5_Node000004_Node000006" class="edge">
<title>Node4&#45;&gt;Node6</title>
<g id="a_edge5_Node000004_Node000006"><a xlink:title=" ">
<path fill="none" stroke="#63b8ff" d="M130.27,-54.84C141.4,-47.04 157.75,-35.59 171.01,-26.29"/>
<polygon fill="#63b8ff" stroke="#63b8ff" points="173,-29.18 179.18,-20.57 168.98,-23.44 173,-29.18"/>
</a>
</g>
</g>
<!-- Node8&#45;&gt;Node6 -->
<g id="edge8_Node000008_Node000006" class="edge">
<title>Node8&#45;&gt;Node6</title>
<g id="a_edge8_Node000008_Node000006"><a xlink:title=" ">
<path fill="none" stroke="#63b8ff" d="M209.24,-55.08C206.83,-48.34 203.42,-38.77 200.37,-30.24"/>
<polygon fill="#63b8ff" stroke="#63b8ff" points="203.75,-29.28 197.09,-21.03 197.15,-31.63 203.75,-29.28"/>
</a>
</g>
</g>
</g>
</svg>
</svg>

<style type='text/css'>
<![CDATA[
[data-mouse-over-selected='false'] { opacity: 0.7; }
[data-mouse-over-selected='true']  { opacity: 1.0; }
]]>
</style>
<script type="application/ecmascript"><![CDATA[
document.addEventListener('DOMContentLoaded', (event) => {
  highlightEdges();
  highlightAdjacentNodes();
});
]]></script>
</svg>
