<?xml version="1.0" encoding="UTF-8" standalone="no"?>
<!DOCTYPE svg PUBLIC "-//W3C//DTD SVG 1.1//EN"
 "http://www.w3.org/Graphics/SVG/1.1/DTD/svg11.dtd">
<!-- Generated by graphviz version 2.44.0 ()
 -->
<!-- Title: iop/debug/iopdebug/include/iopdebug.h Pages: 1 -->
<svg width="258pt" height="207pt"
 viewBox="0.00 0.00 258.00 207.00" xmlns="http://www.w3.org/2000/svg" xmlns:xlink="http://www.w3.org/1999/xlink">
<g id="graph0" class="graph" transform="scale(1 1) rotate(0) translate(4 203)">
<title>iop/debug/iopdebug/include/iopdebug.h</title>
<polygon fill="white" stroke="transparent" points="-4,4 -4,-203 254,-203 254,4 -4,4"/>
<!-- Node1 -->
<g id="node1" class="node">
<title>Node1</title>
<g id="a_node1"><a xlink:title=" ">
<polygon fill="#bfbfbf" stroke="black" points="71,-168.5 71,-198.5 172,-198.5 172,-168.5 71,-168.5"/>
<text text-anchor="start" x="79" y="-186.5" font-family="Helvetica,sans-Serif" font-size="10.00">iop/debug/iopdebug</text>
<text text-anchor="middle" x="121.5" y="-175.5" font-family="Helvetica,sans-Serif" font-size="10.00">/include/iopdebug.h</text>
</a>
</g>
</g>
<!-- Node2 -->
<g id="node2" class="node">
<title>Node2</title>
<g id="a_node2"><a xlink:title=" ">
<polygon fill="white" stroke="#bfbfbf" points="0,-112.5 0,-131.5 47,-131.5 47,-112.5 0,-112.5"/>
<text text-anchor="middle" x="23.5" y="-119.5" font-family="Helvetica,sans-Serif" font-size="10.00">types.h</text>
</a>
</g>
</g>
<!-- Node1&#45;&gt;Node2 -->
<g id="edge1" class="edge">
<title>Node1&#45;&gt;Node2</title>
<path fill="none" stroke="midnightblue" d="M98.28,-168.4C82.71,-158.95 62.3,-146.56 46.74,-137.11"/>
<polygon fill="midnightblue" stroke="midnightblue" points="48.12,-133.86 37.76,-131.66 44.49,-139.84 48.12,-133.86"/>
</g>
<!-- Node3 -->
<g id="node3" class="node">
<title>Node3</title>
<g id="a_node3"><a xlink:href="irx_8h.html" target="_top" xlink:title=" ">
<polygon fill="white" stroke="black" points="65.5,-112.5 65.5,-131.5 99.5,-131.5 99.5,-112.5 65.5,-112.5"/>
<text text-anchor="middle" x="82.5" y="-119.5" font-family="Helvetica,sans-Serif" font-size="10.00">irx.h</text>
</a>
</g>
</g>
<!-- Node1&#45;&gt;Node3 -->
<g id="edge2" class="edge">
<title>Node1&#45;&gt;Node3</title>
<path fill="none" stroke="midnightblue" d="M112.26,-168.4C106.71,-159.93 99.61,-149.1 93.73,-140.14"/>
<polygon fill="midnightblue" stroke="midnightblue" points="96.58,-138.1 88.17,-131.66 90.73,-141.94 96.58,-138.1"/>
</g>
<!-- Node7 -->
<g id="node7" class="node">
<title>Node7</title>
<g id="a_node7"><a xlink:href="iop__cop0__defs_8h.html" target="_top" xlink:title=" ">
<polygon fill="white" stroke="black" points="118,-112.5 118,-131.5 205,-131.5 205,-112.5 118,-112.5"/>
<text text-anchor="middle" x="161.5" y="-119.5" font-family="Helvetica,sans-Serif" font-size="10.00">iop_cop0_defs.h</text>
</a>
</g>
</g>
<!-- Node1&#45;&gt;Node7 -->
<g id="edge6" class="edge">
<title>Node1&#45;&gt;Node7</title>
<path fill="none" stroke="midnightblue" d="M130.98,-168.4C136.67,-159.93 143.95,-149.1 149.98,-140.14"/>
<polygon fill="midnightblue" stroke="midnightblue" points="153.01,-141.91 155.68,-131.66 147.2,-138 153.01,-141.91"/>
</g>
<!-- Node8 -->
<g id="node8" class="node">
<title>Node8</title>
<g id="a_node8"><a xlink:href="ps2__debug_8h.html" target="_top" xlink:title=" ">
<polygon fill="white" stroke="black" points="179,-56.5 179,-75.5 250,-75.5 250,-56.5 179,-56.5"/>
<text text-anchor="middle" x="214.5" y="-63.5" font-family="Helvetica,sans-Serif" font-size="10.00">ps2_debug.h</text>
</a>
</g>
</g>
<!-- Node1&#45;&gt;Node8 -->
<g id="edge7" class="edge">
<title>Node1&#45;&gt;Node8</title>
<path fill="none" stroke="midnightblue" d="M168.64,-168.48C186.22,-160.71 204.36,-149.05 214.5,-132 222.79,-118.07 221.78,-99.32 219.29,-85.53"/>
<polygon fill="midnightblue" stroke="midnightblue" points="222.7,-84.74 217.13,-75.73 215.87,-86.25 222.7,-84.74"/>
</g>
<!-- Node4 -->
<g id="node4" class="node">
<title>Node4</title>
<g id="a_node4"><a xlink:href="types_8h_source.html" target="_top" xlink:title=" ">
<polygon fill="white" stroke="black" points="96,-56.5 96,-75.5 143,-75.5 143,-56.5 96,-56.5"/>
<text text-anchor="middle" x="119.5" y="-63.5" font-family="Helvetica,sans-Serif" font-size="10.00">types.h</text>
</a>
</g>
</g>
<!-- Node3&#45;&gt;Node4 -->
<g id="edge3" class="edge">
<title>Node3&#45;&gt;Node4</title>
<path fill="none" stroke="midnightblue" d="M88.61,-112.08C93.78,-104.53 101.35,-93.49 107.69,-84.23"/>
<polygon fill="midnightblue" stroke="midnightblue" points="110.74,-85.98 113.5,-75.75 104.96,-82.02 110.74,-85.98"/>
</g>
<!-- Node5 -->
<g id="node5" class="node">
<title>Node5</title>
<g id="a_node5"><a xlink:title=" ">
<polygon fill="white" stroke="#bfbfbf" points="94,-0.5 94,-19.5 145,-19.5 145,-0.5 94,-0.5"/>
<text text-anchor="middle" x="119.5" y="-7.5" font-family="Helvetica,sans-Serif" font-size="10.00">stddef.h</text>
</a>
</g>
</g>
<!-- Node4&#45;&gt;Node5 -->
<g id="edge4" class="edge">
<title>Node4&#45;&gt;Node5</title>
<path fill="none" stroke="midnightblue" d="M119.5,-56.08C119.5,-49.01 119.5,-38.86 119.5,-29.99"/>
<polygon fill="midnightblue" stroke="midnightblue" points="123,-29.75 119.5,-19.75 116,-29.75 123,-29.75"/>
</g>
<!-- Node6 -->
<g id="node6" class="node">
<title>Node6</title>
<g id="a_node6"><a xlink:href="tamtypes_8h.html" target="_top" xlink:title=" ">
<polygon fill="white" stroke="black" points="163.5,-0.5 163.5,-19.5 227.5,-19.5 227.5,-0.5 163.5,-0.5"/>
<text text-anchor="middle" x="195.5" y="-7.5" font-family="Helvetica,sans-Serif" font-size="10.00">tamtypes.h</text>
</a>
</g>
</g>
<!-- Node4&#45;&gt;Node6 -->
<g id="edge5" class="edge">
<title>Node4&#45;&gt;Node6</title>
<path fill="none" stroke="midnightblue" d="M131.71,-56.32C143.28,-48.11 160.88,-35.6 174.66,-25.81"/>
<polygon fill="midnightblue" stroke="midnightblue" points="176.94,-28.48 183.07,-19.83 172.89,-22.77 176.94,-28.48"/>
</g>
<!-- Node8&#45;&gt;Node6 -->
<g id="edge8" class="edge">
<title>Node8&#45;&gt;Node6</title>
<path fill="none" stroke="midnightblue" d="M211.36,-56.08C208.82,-48.85 205.14,-38.41 201.97,-29.4"/>
<polygon fill="midnightblue" stroke="midnightblue" points="205.2,-28.02 198.58,-19.75 198.6,-30.35 205.2,-28.02"/>
</g>
</g>
</svg>
