<?xml version="1.0" encoding="UTF-8" standalone="no"?>
<!DOCTYPE svg PUBLIC "-//W3C//DTD SVG 1.1//EN"
 "http://www.w3.org/Graphics/SVG/1.1/DTD/svg11.dtd">
<!-- Generated by graphviz version 2.43.0 (0)
 -->
<!-- Title: ee/kernel/include/iopheap.h Pages: 1 -->
<svg width="1229pt" height="95pt"
 viewBox="0.00 0.00 1228.50 95.00" xmlns="http://www.w3.org/2000/svg" xmlns:xlink="http://www.w3.org/1999/xlink">
<g id="graph0" class="graph" transform="scale(1 1) rotate(0) translate(4 91)">
<title>ee/kernel/include/iopheap.h</title>
<polygon fill="white" stroke="transparent" points="-4,4 -4,-91 1224.5,-91 1224.5,4 -4,4"/>
<!-- Node1 -->
<g id="node1" class="node">
<title>Node1</title>
<g id="a_node1"><a xlink:title=" ">
<polygon fill="#bfbfbf" stroke="black" points="537,-67.5 537,-86.5 688,-86.5 688,-67.5 537,-67.5"/>
<text text-anchor="middle" x="612.5" y="-74.5" font-family="Helvetica,sans-Serif" font-size="10.00">ee/kernel/include/iopheap.h</text>
</a>
</g>
</g>
<!-- Node2 -->
<g id="node2" class="node">
<title>Node2</title>
<g id="a_node2"><a xlink:href="_sif_iop_reboot_buffer_8c.html" target="_top" xlink:title=" ">
<polygon fill="white" stroke="black" points="0,-0.5 0,-30.5 161,-30.5 161,-0.5 0,-0.5"/>
<text text-anchor="start" x="8" y="-18.5" font-family="Helvetica,sans-Serif" font-size="10.00">ee/iopreboot/src/SifIopReboot</text>
<text text-anchor="middle" x="80.5" y="-7.5" font-family="Helvetica,sans-Serif" font-size="10.00">Buffer.c</text>
</a>
</g>
</g>
<!-- Node1&#45;&gt;Node2 -->
<g id="edge1" class="edge">
<title>Node1&#45;&gt;Node2</title>
<path fill="none" stroke="midnightblue" d="M526.61,-68.82C437.23,-60.99 293.29,-47.36 169.5,-31 166.86,-30.65 164.18,-30.29 161.48,-29.91"/>
<polygon fill="midnightblue" stroke="midnightblue" points="526.43,-72.32 536.7,-69.7 527.04,-65.34 526.43,-72.32"/>
</g>
<!-- Node3 -->
<g id="node3" class="node">
<title>Node3</title>
<g id="a_node3"><a xlink:href="iopheap_8c_source.html" target="_top" xlink:title=" ">
<polygon fill="white" stroke="black" points="179,-6 179,-25 308,-25 308,-6 179,-6"/>
<text text-anchor="middle" x="243.5" y="-13" font-family="Helvetica,sans-Serif" font-size="10.00">ee/kernel/src/iopheap.c</text>
</a>
</g>
</g>
<!-- Node1&#45;&gt;Node3 -->
<g id="edge2" class="edge">
<title>Node1&#45;&gt;Node3</title>
<path fill="none" stroke="midnightblue" d="M541.55,-66.03C481.71,-57.42 393.85,-44.3 317.5,-31 307.05,-29.18 295.81,-27.06 285.32,-25.01"/>
<polygon fill="midnightblue" stroke="midnightblue" points="541.25,-69.52 551.64,-67.48 542.24,-62.6 541.25,-69.52"/>
</g>
<!-- Node4 -->
<g id="node4" class="node">
<title>Node4</title>
<g id="a_node4"><a xlink:href="ee_2kernel_2src_2loadfile_8c.html" target="_top" xlink:title=" ">
<polygon fill="white" stroke="black" points="326.5,-6 326.5,-25 452.5,-25 452.5,-6 326.5,-6"/>
<text text-anchor="middle" x="389.5" y="-13" font-family="Helvetica,sans-Serif" font-size="10.00">ee/kernel/src/loadfile.c</text>
</a>
</g>
</g>
<!-- Node1&#45;&gt;Node4 -->
<g id="edge3" class="edge">
<title>Node1&#45;&gt;Node4</title>
<path fill="none" stroke="midnightblue" d="M570.88,-64.9C527.57,-53.34 460.69,-35.5 421.39,-25.01"/>
<polygon fill="midnightblue" stroke="midnightblue" points="569.99,-68.28 580.55,-67.48 571.79,-61.52 569.99,-68.28"/>
</g>
<!-- Node5 -->
<g id="node5" class="node">
<title>Node5</title>
<g id="a_node5"><a xlink:href="audsrv__rpc_8c.html" target="_top" xlink:title=" ">
<polygon fill="white" stroke="black" points="470.5,-0.5 470.5,-30.5 606.5,-30.5 606.5,-0.5 470.5,-0.5"/>
<text text-anchor="start" x="478.5" y="-18.5" font-family="Helvetica,sans-Serif" font-size="10.00">ee/rpc/audsrv/src/audsrv</text>
<text text-anchor="middle" x="538.5" y="-7.5" font-family="Helvetica,sans-Serif" font-size="10.00">_rpc.c</text>
</a>
</g>
</g>
<!-- Node1&#45;&gt;Node5 -->
<g id="edge4" class="edge">
<title>Node1&#45;&gt;Node5</title>
<path fill="none" stroke="midnightblue" d="M594.09,-61.2C582.42,-51.81 567.42,-39.75 555.94,-30.52"/>
<polygon fill="midnightblue" stroke="midnightblue" points="591.91,-63.94 601.9,-67.48 596.3,-58.48 591.91,-63.94"/>
</g>
<!-- Node6 -->
<g id="node6" class="node">
<title>Node6</title>
<g id="a_node6"><a xlink:href="libhdd_8c_source.html" target="_top" xlink:title=" ">
<polygon fill="white" stroke="black" points="624.5,-6 624.5,-25 750.5,-25 750.5,-6 624.5,-6"/>
<text text-anchor="middle" x="687.5" y="-13" font-family="Helvetica,sans-Serif" font-size="10.00">ee/rpc/hdd/src/libhdd.c</text>
</a>
</g>
</g>
<!-- Node1&#45;&gt;Node6 -->
<g id="edge5" class="edge">
<title>Node1&#45;&gt;Node6</title>
<path fill="none" stroke="midnightblue" d="M631.44,-60.97C645.79,-49.59 664.98,-34.37 676.77,-25.01"/>
<polygon fill="midnightblue" stroke="midnightblue" points="628.9,-58.52 623.25,-67.48 633.26,-64 628.9,-58.52"/>
</g>
<!-- Node7 -->
<g id="node7" class="node">
<title>Node7</title>
<g id="a_node7"><a xlink:href="ee_2rpc_2ps2snd_2src_2ps2snd_8c_source.html" target="_top" xlink:title=" ">
<polygon fill="white" stroke="black" points="769,-6 769,-25 916,-25 916,-6 769,-6"/>
<text text-anchor="middle" x="842.5" y="-13" font-family="Helvetica,sans-Serif" font-size="10.00">ee/rpc/ps2snd/src/ps2snd.c</text>
</a>
</g>
</g>
<!-- Node1&#45;&gt;Node7 -->
<g id="edge6" class="edge">
<title>Node1&#45;&gt;Node7</title>
<path fill="none" stroke="midnightblue" d="M655.14,-64.97C699.8,-53.41 768.99,-35.52 809.61,-25.01"/>
<polygon fill="midnightblue" stroke="midnightblue" points="654.26,-61.58 645.45,-67.48 656.01,-68.36 654.26,-61.58"/>
</g>
<!-- Node8 -->
<g id="node8" class="node">
<title>Node8</title>
<g id="a_node8"><a xlink:href="patch__enable__lmb_8c.html" target="_top" xlink:title=" ">
<polygon fill="white" stroke="black" points="934.5,-0.5 934.5,-30.5 1068.5,-30.5 1068.5,-0.5 934.5,-0.5"/>
<text text-anchor="start" x="942.5" y="-18.5" font-family="Helvetica,sans-Serif" font-size="10.00">ee/sbv/src/patch_enable</text>
<text text-anchor="middle" x="1001.5" y="-7.5" font-family="Helvetica,sans-Serif" font-size="10.00">_lmb.c</text>
</a>
</g>
</g>
<!-- Node1&#45;&gt;Node8 -->
<g id="edge7" class="edge">
<title>Node1&#45;&gt;Node8</title>
<path fill="none" stroke="midnightblue" d="M687.91,-66.14C751.4,-57.61 844.55,-44.53 925.5,-31 928.41,-30.51 931.39,-30 934.39,-29.48"/>
<polygon fill="midnightblue" stroke="midnightblue" points="687.43,-62.68 677.98,-67.47 688.35,-69.61 687.43,-62.68"/>
</g>
<!-- Node9 -->
<g id="node9" class="node">
<title>Node9</title>
<g id="a_node9"><a xlink:href="patch__fileio_8c_source.html" target="_top" xlink:title=" ">
<polygon fill="white" stroke="black" points="1086.5,-6 1086.5,-25 1220.5,-25 1220.5,-6 1086.5,-6"/>
<text text-anchor="middle" x="1153.5" y="-13" font-family="Helvetica,sans-Serif" font-size="10.00">ee/sbv/src/patch_fileio.c</text>
</a>
</g>
</g>
<!-- Node1&#45;&gt;Node9 -->
<g id="edge8" class="edge">
<title>Node1&#45;&gt;Node9</title>
<path fill="none" stroke="midnightblue" d="M698.03,-70.09C791.53,-63.09 945.62,-49.92 1077.5,-31 1088.93,-29.36 1101.26,-27.18 1112.6,-25.02"/>
<polygon fill="midnightblue" stroke="midnightblue" points="697.77,-66.6 688.06,-70.84 698.29,-73.59 697.77,-66.6"/>
</g>
</g>
</svg>
