<?xml version="1.0" encoding="UTF-8" standalone="no"?>
<!DOCTYPE svg PUBLIC "-//W3C//DTD SVG 1.1//EN"
 "http://www.w3.org/Graphics/SVG/1.1/DTD/svg11.dtd">
<!-- Generated by graphviz version 2.43.0 (0)
 -->
<!-- Title: iop/debug/ioptrap/include/ioptrap.h Pages: 1 -->
<svg width="264pt" height="106pt"
 viewBox="0.00 0.00 264.00 106.00" xmlns="http://www.w3.org/2000/svg" xmlns:xlink="http://www.w3.org/1999/xlink">
<g id="graph0" class="graph" transform="scale(1 1) rotate(0) translate(4 102)">
<title>iop/debug/ioptrap/include/ioptrap.h</title>
<polygon fill="white" stroke="transparent" points="-4,4 -4,-102 260,-102 260,4 -4,4"/>
<!-- Node1 -->
<g id="node1" class="node">
<title>Node1</title>
<g id="a_node1"><a xlink:title=" ">
<polygon fill="#bfbfbf" stroke="black" points="57.5,-67.5 57.5,-97.5 197.5,-97.5 197.5,-67.5 57.5,-67.5"/>
<text text-anchor="start" x="65.5" y="-85.5" font-family="Helvetica,sans-Serif" font-size="10.00">iop/debug/ioptrap/include</text>
<text text-anchor="middle" x="127.5" y="-74.5" font-family="Helvetica,sans-Serif" font-size="10.00">/ioptrap.h</text>
</a>
</g>
</g>
<!-- Node2 -->
<g id="node2" class="node">
<title>Node2</title>
<g id="a_node2"><a xlink:href="breakpoint_8c_source.html" target="_top" xlink:title=" ">
<polygon fill="white" stroke="black" points="0,-0.5 0,-30.5 119,-30.5 119,-0.5 0,-0.5"/>
<text text-anchor="start" x="8" y="-18.5" font-family="Helvetica,sans-Serif" font-size="10.00">iop/debug/ioptrap/src</text>
<text text-anchor="middle" x="59.5" y="-7.5" font-family="Helvetica,sans-Serif" font-size="10.00">/breakpoint.c</text>
</a>
</g>
</g>
<!-- Node1&#45;&gt;Node2 -->
<g id="edge1" class="edge">
<title>Node1&#45;&gt;Node2</title>
<path fill="none" stroke="midnightblue" d="M105.33,-60.31C95.13,-50.56 83.31,-39.26 74.23,-30.58"/>
<polygon fill="midnightblue" stroke="midnightblue" points="103.1,-63.02 112.75,-67.4 107.93,-57.96 103.1,-63.02"/>
</g>
<!-- Node3 -->
<g id="node3" class="node">
<title>Node3</title>
<g id="a_node3"><a xlink:href="ioptrap_8c.html" target="_top" xlink:title=" ">
<polygon fill="white" stroke="black" points="137,-0.5 137,-30.5 256,-30.5 256,-0.5 137,-0.5"/>
<text text-anchor="start" x="145" y="-18.5" font-family="Helvetica,sans-Serif" font-size="10.00">iop/debug/ioptrap/src</text>
<text text-anchor="middle" x="196.5" y="-7.5" font-family="Helvetica,sans-Serif" font-size="10.00">/ioptrap.c</text>
</a>
</g>
</g>
<!-- Node1&#45;&gt;Node3 -->
<g id="edge2" class="edge">
<title>Node1&#45;&gt;Node3</title>
<path fill="none" stroke="midnightblue" d="M149.99,-60.31C160.34,-50.56 172.34,-39.26 181.56,-30.58"/>
<polygon fill="midnightblue" stroke="midnightblue" points="147.35,-57.99 142.47,-67.4 152.15,-63.09 147.35,-57.99"/>
</g>
</g>
</svg>
