<?xml version="1.0" encoding="UTF-8" standalone="no"?>
<!DOCTYPE svg PUBLIC "-//W3C//DTD SVG 1.1//EN"
 "http://www.w3.org/Graphics/SVG/1.1/DTD/svg11.dtd">
<!-- Generated by graphviz version 2.44.0 ()
 -->
<!-- Title: common/include/iox_stat.h Pages: 1 -->
<svg width="5189pt" height="240pt"
 viewBox="0.00 0.00 5188.50 240.00" xmlns="http://www.w3.org/2000/svg" xmlns:xlink="http://www.w3.org/1999/xlink">
<g id="graph0" class="graph" transform="scale(1 1) rotate(0) translate(4 236)">
<title>common/include/iox_stat.h</title>
<polygon fill="white" stroke="transparent" points="-4,4 -4,-236 5184.5,-236 5184.5,4 -4,4"/>
<!-- Node1 -->
<g id="node1" class="node">
<title>Node1</title>
<g id="a_node1"><a xlink:title=" ">
<polygon fill="#bfbfbf" stroke="black" points="2682,-201.5 2682,-231.5 2785,-231.5 2785,-201.5 2682,-201.5"/>
<text text-anchor="start" x="2690" y="-219.5" font-family="Helvetica,sans-Serif" font-size="10.00">common/include/iox</text>
<text text-anchor="middle" x="2733.5" y="-208.5" font-family="Helvetica,sans-Serif" font-size="10.00">_stat.h</text>
</a>
</g>
</g>
<!-- Node2 -->
<g id="node2" class="node">
<title>Node2</title>
<g id="a_node2"><a xlink:href="file_xio_8h.html" target="_top" xlink:title=" ">
<polygon fill="white" stroke="black" points="227,-140 227,-159 352,-159 352,-140 227,-140"/>
<text text-anchor="middle" x="289.5" y="-147" font-family="Helvetica,sans-Serif" font-size="10.00">common/include/fileXio.h</text>
</a>
</g>
</g>
<!-- Node1&#45;&gt;Node2 -->
<g id="edge1" class="edge">
<title>Node1&#45;&gt;Node2</title>
<path fill="none" stroke="midnightblue" d="M2671.46,-213.86C2433.26,-207.56 1554.42,-184.31 830.5,-165 657.45,-160.38 453.25,-154.9 352.39,-152.19"/>
<polygon fill="midnightblue" stroke="midnightblue" points="2671.57,-217.36 2681.66,-214.13 2671.75,-210.37 2671.57,-217.36"/>
</g>
<!-- Node8 -->
<g id="node8" class="node">
<title>Node8</title>
<g id="a_node8"><a xlink:href="ps2sdkapi_8c_source.html" target="_top" xlink:title=" ">
<polygon fill="white" stroke="black" points="2797.5,-140 2797.5,-159 2913.5,-159 2913.5,-140 2797.5,-140"/>
<text text-anchor="middle" x="2855.5" y="-147" font-family="Helvetica,sans-Serif" font-size="10.00">ee/libc/src/ps2sdkapi.c</text>
</a>
</g>
</g>
<!-- Node1&#45;&gt;Node8 -->
<g id="edge7" class="edge">
<title>Node1&#45;&gt;Node8</title>
<path fill="none" stroke="midnightblue" d="M2768.9,-196.64C2792.24,-184.2 2821.69,-168.51 2839.53,-159.01"/>
<polygon fill="midnightblue" stroke="midnightblue" points="2767.15,-193.6 2759.97,-201.4 2770.44,-199.78 2767.15,-193.6"/>
</g>
<!-- Node9 -->
<g id="node9" class="node">
<title>Node9</title>
<g id="a_node9"><a xlink:href="iop_2cdvd_2cdfs_2src_2main_8c_source.html" target="_top" xlink:title=" ">
<polygon fill="white" stroke="black" points="2932,-140 2932,-159 3055,-159 3055,-140 2932,-140"/>
<text text-anchor="middle" x="2993.5" y="-147" font-family="Helvetica,sans-Serif" font-size="10.00">iop/cdvd/cdfs/src/main.c</text>
</a>
</g>
</g>
<!-- Node1&#45;&gt;Node9 -->
<g id="edge8" class="edge">
<title>Node1&#45;&gt;Node9</title>
<path fill="none" stroke="midnightblue" d="M2795.16,-200.08C2846.48,-187.25 2917.66,-169.46 2959.32,-159.05"/>
<polygon fill="midnightblue" stroke="midnightblue" points="2794.03,-196.76 2785.18,-202.58 2795.73,-203.55 2794.03,-196.76"/>
</g>
<!-- Node10 -->
<g id="node10" class="node">
<title>Node10</title>
<g id="a_node10"><a xlink:href="ioman__mod_8h.html" target="_top" xlink:title=" ">
<polygon fill="white" stroke="black" points="839.5,-134.5 839.5,-164.5 931.5,-164.5 931.5,-134.5 839.5,-134.5"/>
<text text-anchor="start" x="847.5" y="-152.5" font-family="Helvetica,sans-Serif" font-size="10.00">iop/kernel/include</text>
<text text-anchor="middle" x="885.5" y="-141.5" font-family="Helvetica,sans-Serif" font-size="10.00">/ioman_mod.h</text>
</a>
</g>
</g>
<!-- Node1&#45;&gt;Node10 -->
<g id="edge9" class="edge">
<title>Node1&#45;&gt;Node10</title>
<path fill="none" stroke="midnightblue" d="M2671.41,-213.32C2383.7,-203.2 1183.42,-160.98 931.86,-152.13"/>
<polygon fill="midnightblue" stroke="midnightblue" points="2671.54,-216.82 2681.66,-213.68 2671.79,-209.83 2671.54,-216.82"/>
</g>
<!-- Node18 -->
<g id="node18" class="node">
<title>Node18</title>
<g id="a_node18"><a xlink:href="ioman_x_8h.html" target="_top" xlink:title=" ">
<polygon fill="white" stroke="black" points="2687.5,-134.5 2687.5,-164.5 2779.5,-164.5 2779.5,-134.5 2687.5,-134.5"/>
<text text-anchor="start" x="2695.5" y="-152.5" font-family="Helvetica,sans-Serif" font-size="10.00">iop/kernel/include</text>
<text text-anchor="middle" x="2733.5" y="-141.5" font-family="Helvetica,sans-Serif" font-size="10.00">/iomanX.h</text>
</a>
</g>
</g>
<!-- Node1&#45;&gt;Node18 -->
<g id="edge17" class="edge">
<title>Node1&#45;&gt;Node18</title>
<path fill="none" stroke="midnightblue" d="M2733.5,-191.11C2733.5,-182.15 2733.5,-172.32 2733.5,-164.58"/>
<polygon fill="midnightblue" stroke="midnightblue" points="2730,-191.4 2733.5,-201.4 2737,-191.4 2730,-191.4"/>
</g>
<!-- Node3 -->
<g id="node3" class="node">
<title>Node3</title>
<g id="a_node3"><a xlink:href="file_xio__rpc_8h.html" target="_top" xlink:title=" ">
<polygon fill="white" stroke="black" points="50.5,-67.5 50.5,-97.5 154.5,-97.5 154.5,-67.5 50.5,-67.5"/>
<text text-anchor="start" x="58.5" y="-85.5" font-family="Helvetica,sans-Serif" font-size="10.00">ee/rpc/filexio/include</text>
<text text-anchor="middle" x="102.5" y="-74.5" font-family="Helvetica,sans-Serif" font-size="10.00">/fileXio_rpc.h</text>
</a>
</g>
</g>
<!-- Node2&#45;&gt;Node3 -->
<g id="edge2" class="edge">
<title>Node2&#45;&gt;Node3</title>
<path fill="none" stroke="midnightblue" d="M254.95,-136.49C223.25,-125.47 176.27,-109.14 142.86,-97.53"/>
<polygon fill="midnightblue" stroke="midnightblue" points="254.07,-139.89 264.67,-139.87 256.37,-133.28 254.07,-139.89"/>
</g>
<!-- Node6 -->
<g id="node6" class="node">
<title>Node6</title>
<g id="a_node6"><a xlink:href="sbus__tty_8c_source.html" target="_top" xlink:title=" ">
<polygon fill="white" stroke="black" points="172.5,-67.5 172.5,-97.5 288.5,-97.5 288.5,-67.5 172.5,-67.5"/>
<text text-anchor="start" x="180.5" y="-85.5" font-family="Helvetica,sans-Serif" font-size="10.00">iop/debug/iop_sbusdbg</text>
<text text-anchor="middle" x="230.5" y="-74.5" font-family="Helvetica,sans-Serif" font-size="10.00">/src/sbus_tty.c</text>
</a>
</g>
</g>
<!-- Node2&#45;&gt;Node6 -->
<g id="edge5" class="edge">
<title>Node2&#45;&gt;Node6</title>
<path fill="none" stroke="midnightblue" d="M274.8,-132.3C265.11,-121.63 252.56,-107.8 243.29,-97.59"/>
<polygon fill="midnightblue" stroke="midnightblue" points="272.23,-134.68 281.54,-139.73 277.41,-129.98 272.23,-134.68"/>
</g>
<!-- Node7 -->
<g id="node7" class="node">
<title>Node7</title>
<g id="a_node7"><a xlink:href="file_xio__iop_8c.html" target="_top" xlink:title=" ">
<polygon fill="white" stroke="black" points="306.5,-67.5 306.5,-97.5 390.5,-97.5 390.5,-67.5 306.5,-67.5"/>
<text text-anchor="start" x="314.5" y="-85.5" font-family="Helvetica,sans-Serif" font-size="10.00">iop/fs/filexio/src</text>
<text text-anchor="middle" x="348.5" y="-74.5" font-family="Helvetica,sans-Serif" font-size="10.00">/fileXio_iop.c</text>
</a>
</g>
</g>
<!-- Node2&#45;&gt;Node7 -->
<g id="edge6" class="edge">
<title>Node2&#45;&gt;Node7</title>
<path fill="none" stroke="midnightblue" d="M304.2,-132.3C313.89,-121.63 326.44,-107.8 335.71,-97.59"/>
<polygon fill="midnightblue" stroke="midnightblue" points="301.59,-129.98 297.46,-139.73 306.77,-134.68 301.59,-129.98"/>
</g>
<!-- Node4 -->
<g id="node4" class="node">
<title>Node4</title>
<g id="a_node4"><a xlink:href="file_xio__rpc_8c.html" target="_top" xlink:title=" ">
<polygon fill="white" stroke="black" points="0,-0.5 0,-30.5 87,-30.5 87,-0.5 0,-0.5"/>
<text text-anchor="start" x="8" y="-18.5" font-family="Helvetica,sans-Serif" font-size="10.00">ee/rpc/filexio/src</text>
<text text-anchor="middle" x="43.5" y="-7.5" font-family="Helvetica,sans-Serif" font-size="10.00">/fileXio_rpc.c</text>
</a>
</g>
</g>
<!-- Node3&#45;&gt;Node4 -->
<g id="edge3" class="edge">
<title>Node3&#45;&gt;Node4</title>
<path fill="none" stroke="midnightblue" d="M82.75,-59.74C74.02,-50.12 64,-39.09 56.28,-30.58"/>
<polygon fill="midnightblue" stroke="midnightblue" points="80.39,-62.34 89.7,-67.4 85.57,-57.64 80.39,-62.34"/>
</g>
<!-- Node5 -->
<g id="node5" class="node">
<title>Node5</title>
<g id="a_node5"><a xlink:href="libhdd_8c_source.html" target="_top" xlink:title=" ">
<polygon fill="white" stroke="black" points="105,-6 105,-25 220,-25 220,-6 105,-6"/>
<text text-anchor="middle" x="162.5" y="-13" font-family="Helvetica,sans-Serif" font-size="10.00">ee/rpc/hdd/src/libhdd.c</text>
</a>
</g>
</g>
<!-- Node3&#45;&gt;Node5 -->
<g id="edge4" class="edge">
<title>Node3&#45;&gt;Node5</title>
<path fill="none" stroke="midnightblue" d="M122.35,-60C133.3,-48.13 146.3,-34.05 154.47,-25.19"/>
<polygon fill="midnightblue" stroke="midnightblue" points="119.73,-57.67 115.52,-67.4 124.87,-62.42 119.73,-57.67"/>
</g>
<!-- Node11 -->
<g id="node11" class="node">
<title>Node11</title>
<g id="a_node11"><a xlink:href="fakehost_8c.html" target="_top" xlink:title=" ">
<polygon fill="white" stroke="black" points="546.5,-67.5 546.5,-97.5 644.5,-97.5 644.5,-67.5 546.5,-67.5"/>
<text text-anchor="start" x="554.5" y="-85.5" font-family="Helvetica,sans-Serif" font-size="10.00">iop/fs/fakehost/src</text>
<text text-anchor="middle" x="595.5" y="-74.5" font-family="Helvetica,sans-Serif" font-size="10.00">/fakehost.c</text>
</a>
</g>
</g>
<!-- Node10&#45;&gt;Node11 -->
<g id="edge10" class="edge">
<title>Node10&#45;&gt;Node11</title>
<path fill="none" stroke="midnightblue" d="M829.19,-136.75C782.14,-126.81 713.33,-111.99 653.5,-98 650.57,-97.31 647.56,-96.6 644.52,-95.87"/>
<polygon fill="midnightblue" stroke="midnightblue" points="828.68,-140.22 839.19,-138.86 830.12,-133.37 828.68,-140.22"/>
</g>
<!-- Node12 -->
<g id="node12" class="node">
<title>Node12</title>
<g id="a_node12"><a xlink:href="iop_2fs_2fakehost_2src_2irx__imports_8h_source.html" target="_top" xlink:title=" ">
<polygon fill="white" stroke="black" points="662.5,-67.5 662.5,-97.5 760.5,-97.5 760.5,-67.5 662.5,-67.5"/>
<text text-anchor="start" x="670.5" y="-85.5" font-family="Helvetica,sans-Serif" font-size="10.00">iop/fs/fakehost/src</text>
<text text-anchor="middle" x="711.5" y="-74.5" font-family="Helvetica,sans-Serif" font-size="10.00">/irx_imports.h</text>
</a>
</g>
</g>
<!-- Node10&#45;&gt;Node12 -->
<g id="edge11" class="edge">
<title>Node10&#45;&gt;Node12</title>
<path fill="none" stroke="midnightblue" d="M838.17,-130.82C810.2,-120.37 775.27,-107.32 749.18,-97.58"/>
<polygon fill="midnightblue" stroke="midnightblue" points="837.15,-134.18 847.74,-134.4 839.6,-127.62 837.15,-134.18"/>
</g>
<!-- Node13 -->
<g id="node13" class="node">
<title>Node13</title>
<g id="a_node13"><a xlink:href="iop_2fs_2http_2src_2irx__imports_8h_source.html" target="_top" xlink:title=" ">
<polygon fill="white" stroke="black" points="778,-67.5 778,-97.5 867,-97.5 867,-67.5 778,-67.5"/>
<text text-anchor="start" x="786" y="-85.5" font-family="Helvetica,sans-Serif" font-size="10.00">iop/fs/http/src/irx</text>
<text text-anchor="middle" x="822.5" y="-74.5" font-family="Helvetica,sans-Serif" font-size="10.00">_imports.h</text>
</a>
</g>
</g>
<!-- Node10&#45;&gt;Node13 -->
<g id="edge12" class="edge">
<title>Node10&#45;&gt;Node13</title>
<path fill="none" stroke="midnightblue" d="M864.69,-127.02C855.3,-117.34 844.48,-106.17 836.14,-97.58"/>
<polygon fill="midnightblue" stroke="midnightblue" points="862.36,-129.65 871.83,-134.4 867.38,-124.78 862.36,-129.65"/>
</g>
<!-- Node14 -->
<g id="node14" class="node">
<title>Node14</title>
<g id="a_node14"><a xlink:href="ps2http_8c_source.html" target="_top" xlink:title=" ">
<polygon fill="white" stroke="black" points="409,-73 409,-92 528,-92 528,-73 409,-73"/>
<text text-anchor="middle" x="468.5" y="-80" font-family="Helvetica,sans-Serif" font-size="10.00">iop/fs/http/src/ps2http.c</text>
</a>
</g>
</g>
<!-- Node10&#45;&gt;Node14 -->
<g id="edge13" class="edge">
<title>Node10&#45;&gt;Node14</title>
<path fill="none" stroke="midnightblue" d="M829.27,-141.45C760.32,-132.55 639.99,-116.19 537.5,-98 527.62,-96.25 516.99,-94.13 507.1,-92.06"/>
<polygon fill="midnightblue" stroke="midnightblue" points="829.11,-144.96 839.47,-142.76 830,-138.01 829.11,-144.96"/>
</g>
<!-- Node15 -->
<g id="node15" class="node">
<title>Node15</title>
<g id="a_node15"><a xlink:href="devscan_8c.html" target="_top" xlink:title=" ">
<polygon fill="white" stroke="black" points="885,-73 885,-92 1014,-92 1014,-73 885,-73"/>
<text text-anchor="middle" x="949.5" y="-80" font-family="Helvetica,sans-Serif" font-size="10.00">iop/fs/netfs/src/devscan.c</text>
</a>
</g>
</g>
<!-- Node10&#45;&gt;Node15 -->
<g id="edge14" class="edge">
<title>Node10&#45;&gt;Node15</title>
<path fill="none" stroke="midnightblue" d="M906.67,-127C918.35,-115.13 932.22,-101.05 940.94,-92.19"/>
<polygon fill="midnightblue" stroke="midnightblue" points="903.91,-124.81 899.39,-134.4 908.9,-129.73 903.91,-124.81"/>
</g>
<!-- Node16 -->
<g id="node16" class="node">
<title>Node16</title>
<g id="a_node16"><a xlink:href="iop_2fs_2netfs_2src_2irx__imports_8h_source.html" target="_top" xlink:title=" ">
<polygon fill="white" stroke="black" points="1032,-67.5 1032,-97.5 1127,-97.5 1127,-67.5 1032,-67.5"/>
<text text-anchor="start" x="1040" y="-85.5" font-family="Helvetica,sans-Serif" font-size="10.00">iop/fs/netfs/src/irx</text>
<text text-anchor="middle" x="1079.5" y="-74.5" font-family="Helvetica,sans-Serif" font-size="10.00">_imports.h</text>
</a>
</g>
</g>
<!-- Node10&#45;&gt;Node16 -->
<g id="edge15" class="edge">
<title>Node10&#45;&gt;Node16</title>
<path fill="none" stroke="midnightblue" d="M937.46,-131.09C968.77,-120.6 1008.14,-107.41 1037.49,-97.58"/>
<polygon fill="midnightblue" stroke="midnightblue" points="935.97,-127.9 927.6,-134.4 938.19,-134.54 935.97,-127.9"/>
</g>
<!-- Node17 -->
<g id="node17" class="node">
<title>Node17</title>
<g id="a_node17"><a xlink:href="ps2__fio_8c.html" target="_top" xlink:title=" ">
<polygon fill="white" stroke="black" points="1145,-67.5 1145,-97.5 1246,-97.5 1246,-67.5 1145,-67.5"/>
<text text-anchor="start" x="1153" y="-85.5" font-family="Helvetica,sans-Serif" font-size="10.00">iop/fs/netfs/src/ps2</text>
<text text-anchor="middle" x="1195.5" y="-74.5" font-family="Helvetica,sans-Serif" font-size="10.00">_fio.c</text>
</a>
</g>
</g>
<!-- Node10&#45;&gt;Node17 -->
<g id="edge16" class="edge">
<title>Node10&#45;&gt;Node17</title>
<path fill="none" stroke="midnightblue" d="M941.72,-137.9C992.68,-128.12 1069.8,-112.9 1136.5,-98 1139.18,-97.4 1141.92,-96.78 1144.68,-96.13"/>
<polygon fill="midnightblue" stroke="midnightblue" points="941.05,-134.46 931.89,-139.78 942.37,-141.34 941.05,-134.46"/>
</g>
<!-- Node18&#45;&gt;Node7 -->
<g id="edge25" class="edge">
<title>Node18&#45;&gt;Node7</title>
<path fill="none" stroke="midnightblue" d="M2676.58,-148.14C2341.31,-145.89 630.7,-132.78 399.5,-98 396.59,-97.56 393.61,-97.01 390.62,-96.37"/>
<polygon fill="midnightblue" stroke="midnightblue" points="2676.99,-151.64 2687.02,-148.21 2677.04,-144.64 2676.99,-151.64"/>
</g>
<!-- Node18&#45;&gt;Node11 -->
<g id="edge23" class="edge">
<title>Node18&#45;&gt;Node11</title>
<path fill="none" stroke="midnightblue" d="M2676.81,-148.81C2386.11,-150.16 1060.56,-153.13 653.5,-98 650.62,-97.61 647.68,-97.13 644.72,-96.59"/>
<polygon fill="midnightblue" stroke="midnightblue" points="2677.12,-152.31 2687.11,-148.76 2677.09,-145.31 2677.12,-152.31"/>
</g>
<!-- Node18&#45;&gt;Node12 -->
<g id="edge24" class="edge">
<title>Node18&#45;&gt;Node12</title>
<path fill="none" stroke="midnightblue" d="M2676.81,-148.75C2395.9,-149.73 1151.48,-150.95 768.5,-98 765.97,-97.65 763.39,-97.23 760.8,-96.76"/>
<polygon fill="midnightblue" stroke="midnightblue" points="2677.17,-152.25 2687.16,-148.71 2677.15,-145.25 2677.17,-152.25"/>
</g>
<!-- Node18&#45;&gt;Node13 -->
<g id="edge27" class="edge">
<title>Node18&#45;&gt;Node13</title>
<path fill="none" stroke="midnightblue" d="M2676.84,-148.79C2405.33,-149.89 1235.78,-151.39 875.5,-98 872.76,-97.59 869.97,-97.09 867.16,-96.53"/>
<polygon fill="midnightblue" stroke="midnightblue" points="2677.25,-152.29 2687.24,-148.74 2677.22,-145.29 2677.25,-152.29"/>
</g>
<!-- Node18&#45;&gt;Node15 -->
<g id="edge28" class="edge">
<title>Node18&#45;&gt;Node15</title>
<path fill="none" stroke="midnightblue" d="M2676.87,-148.08C2419.06,-145.96 1354.65,-135.08 1023.5,-98 1011.4,-96.65 998.33,-94.36 986.58,-92"/>
<polygon fill="midnightblue" stroke="midnightblue" points="2677.09,-151.58 2687.12,-148.16 2677.15,-144.58 2677.09,-151.58"/>
</g>
<!-- Node18&#45;&gt;Node16 -->
<g id="edge29" class="edge">
<title>Node18&#45;&gt;Node16</title>
<path fill="none" stroke="midnightblue" d="M2676.97,-148.36C2429.85,-147.49 1443.16,-141.33 1136.5,-98 1133.47,-97.57 1130.36,-97.04 1127.24,-96.45"/>
<polygon fill="midnightblue" stroke="midnightblue" points="2677.15,-151.86 2687.16,-148.39 2677.17,-144.86 2677.15,-151.86"/>
</g>
<!-- Node18&#45;&gt;Node17 -->
<g id="edge30" class="edge">
<title>Node18&#45;&gt;Node17</title>
<path fill="none" stroke="midnightblue" d="M2677.39,-148.11C2442.58,-146.22 1537.97,-136.55 1255.5,-98 1252.42,-97.58 1249.27,-97.07 1246.1,-96.49"/>
<polygon fill="midnightblue" stroke="midnightblue" points="2677.39,-151.61 2687.41,-148.18 2677.44,-144.61 2677.39,-151.61"/>
</g>
<!-- Node19 -->
<g id="node19" class="node">
<title>Node19</title>
<g id="a_node19"><a xlink:href="ps2dev9_8c.html" target="_top" xlink:title=" ">
<polygon fill="white" stroke="black" points="1560,-73 1560,-92 1701,-92 1701,-73 1560,-73"/>
<text text-anchor="middle" x="1630.5" y="-80" font-family="Helvetica,sans-Serif" font-size="10.00">iop/dev9/dev9/src/ps2dev9.c</text>
</a>
</g>
</g>
<!-- Node18&#45;&gt;Node19 -->
<g id="edge18" class="edge">
<title>Node18&#45;&gt;Node19</title>
<path fill="none" stroke="midnightblue" d="M2677.24,-148.28C2522.46,-147.14 2077.47,-140.13 1710.5,-98 1697.88,-96.55 1684.24,-94.33 1671.87,-92.06"/>
<polygon fill="midnightblue" stroke="midnightblue" points="2677.42,-151.79 2687.44,-148.35 2677.47,-144.79 2677.42,-151.79"/>
</g>
<!-- Node20 -->
<g id="node20" class="node">
<title>Node20</title>
<g id="a_node20"><a xlink:href="iop_2dev9_2extflash_2src_2irx__imports_8h_source.html" target="_top" xlink:title=" ">
<polygon fill="white" stroke="black" points="1719.5,-67.5 1719.5,-97.5 1825.5,-97.5 1825.5,-67.5 1719.5,-67.5"/>
<text text-anchor="start" x="1727.5" y="-85.5" font-family="Helvetica,sans-Serif" font-size="10.00">iop/dev9/extflash/src</text>
<text text-anchor="middle" x="1772.5" y="-74.5" font-family="Helvetica,sans-Serif" font-size="10.00">/irx_imports.h</text>
</a>
</g>
</g>
<!-- Node18&#45;&gt;Node20 -->
<g id="edge19" class="edge">
<title>Node18&#45;&gt;Node20</title>
<path fill="none" stroke="midnightblue" d="M2677.24,-148.65C2535.31,-148.3 2151.47,-142.91 1835.5,-98 1832.28,-97.54 1828.98,-97 1825.66,-96.4"/>
<polygon fill="midnightblue" stroke="midnightblue" points="2677.43,-152.15 2687.44,-148.66 2677.44,-145.15 2677.43,-152.15"/>
</g>
<!-- Node21 -->
<g id="node21" class="node">
<title>Node21</title>
<g id="a_node21"><a xlink:href="fs_2bdmfs__vfat_2src_2fs__driver_8c_source.html" target="_top" xlink:title=" ">
<polygon fill="white" stroke="black" points="1844,-67.5 1844,-97.5 1953,-97.5 1953,-67.5 1844,-67.5"/>
<text text-anchor="start" x="1852" y="-85.5" font-family="Helvetica,sans-Serif" font-size="10.00">iop/fs/bdmfs_vfat/src</text>
<text text-anchor="middle" x="1898.5" y="-74.5" font-family="Helvetica,sans-Serif" font-size="10.00">/fs_driver.c</text>
</a>
</g>
</g>
<!-- Node18&#45;&gt;Node21 -->
<g id="edge20" class="edge">
<title>Node18&#45;&gt;Node21</title>
<path fill="none" stroke="midnightblue" d="M2676.85,-147.83C2548.86,-145.67 2227.84,-136.5 1962.5,-98 1959.46,-97.56 1956.34,-97.05 1953.21,-96.49"/>
<polygon fill="midnightblue" stroke="midnightblue" points="2677.12,-151.34 2687.18,-148 2677.23,-144.34 2677.12,-151.34"/>
</g>
<!-- Node22 -->
<g id="node22" class="node">
<title>Node22</title>
<g id="a_node22"><a xlink:href="devfs_8c.html" target="_top" xlink:title=" ">
<polygon fill="white" stroke="black" points="1971,-73 1971,-92 2090,-92 2090,-73 1971,-73"/>
<text text-anchor="middle" x="2030.5" y="-80" font-family="Helvetica,sans-Serif" font-size="10.00">iop/fs/devfs/src/devfs.c</text>
</a>
</g>
</g>
<!-- Node18&#45;&gt;Node22 -->
<g id="edge21" class="edge">
<title>Node18&#45;&gt;Node22</title>
<path fill="none" stroke="midnightblue" d="M2676.83,-146.41C2565.63,-141.79 2311.24,-128.55 2099.5,-98 2088.84,-96.46 2077.35,-94.27 2066.87,-92.05"/>
<polygon fill="midnightblue" stroke="midnightblue" points="2677,-149.92 2687.14,-146.84 2677.29,-142.93 2677,-149.92"/>
</g>
<!-- Node23 -->
<g id="node23" class="node">
<title>Node23</title>
<g id="a_node23"><a xlink:href="iop_2fs_2devfs_2src_2irx__imports_8h_source.html" target="_top" xlink:title=" ">
<polygon fill="white" stroke="black" points="2108,-67.5 2108,-97.5 2205,-97.5 2205,-67.5 2108,-67.5"/>
<text text-anchor="start" x="2116" y="-85.5" font-family="Helvetica,sans-Serif" font-size="10.00">iop/fs/devfs/src/irx</text>
<text text-anchor="middle" x="2156.5" y="-74.5" font-family="Helvetica,sans-Serif" font-size="10.00">_imports.h</text>
</a>
</g>
</g>
<!-- Node18&#45;&gt;Node23 -->
<g id="edge22" class="edge">
<title>Node18&#45;&gt;Node23</title>
<path fill="none" stroke="midnightblue" d="M2677.22,-145.85C2581.42,-140.71 2380.74,-127.22 2213.5,-98 2210.78,-97.53 2208.01,-96.99 2205.21,-96.41"/>
<polygon fill="midnightblue" stroke="midnightblue" points="2677.1,-149.35 2687.27,-146.38 2677.47,-142.36 2677.1,-149.35"/>
</g>
<!-- Node24 -->
<g id="node24" class="node">
<title>Node24</title>
<g id="a_node24"><a xlink:href="iop_2fs_2filexio_2src_2irx__imports_8h_source.html" target="_top" xlink:title=" ">
<polygon fill="white" stroke="black" points="2222.5,-67.5 2222.5,-97.5 2306.5,-97.5 2306.5,-67.5 2222.5,-67.5"/>
<text text-anchor="start" x="2230.5" y="-85.5" font-family="Helvetica,sans-Serif" font-size="10.00">iop/fs/filexio/src</text>
<text text-anchor="middle" x="2264.5" y="-74.5" font-family="Helvetica,sans-Serif" font-size="10.00">/irx_imports.h</text>
</a>
</g>
</g>
<!-- Node18&#45;&gt;Node24 -->
<g id="edge26" class="edge">
<title>Node18&#45;&gt;Node24</title>
<path fill="none" stroke="midnightblue" d="M2676.92,-144.49C2596.15,-138.14 2443.4,-123.74 2315.5,-98 2312.61,-97.42 2309.65,-96.76 2306.68,-96.04"/>
<polygon fill="midnightblue" stroke="midnightblue" points="2677.11,-148.02 2687.35,-145.3 2677.65,-141.04 2677.11,-148.02"/>
</g>
<!-- Node25 -->
<g id="node25" class="node">
<title>Node25</title>
<g id="a_node25"><a xlink:href="hdd_8c_source.html" target="_top" xlink:title=" ">
<polygon fill="white" stroke="black" points="2324.5,-73 2324.5,-92 2434.5,-92 2434.5,-73 2324.5,-73"/>
<text text-anchor="middle" x="2379.5" y="-80" font-family="Helvetica,sans-Serif" font-size="10.00">iop/hdd/apa/src/hdd.c</text>
</a>
</g>
</g>
<!-- Node18&#45;&gt;Node25 -->
<g id="edge31" class="edge">
<title>Node18&#45;&gt;Node25</title>
<path fill="none" stroke="midnightblue" d="M2677.26,-139.57C2618.72,-130.07 2524.45,-114.21 2443.5,-98 2434.45,-96.19 2424.72,-94.07 2415.65,-92.02"/>
<polygon fill="midnightblue" stroke="midnightblue" points="2676.98,-143.07 2687.41,-141.21 2678.1,-136.16 2676.98,-143.07"/>
</g>
<!-- Node26 -->
<g id="node26" class="node">
<title>Node26</title>
<g id="a_node26"><a xlink:href="hdd__fio_8c_source.html" target="_top" xlink:title=" ">
<polygon fill="white" stroke="black" points="2452.5,-67.5 2452.5,-97.5 2554.5,-97.5 2554.5,-67.5 2452.5,-67.5"/>
<text text-anchor="start" x="2460.5" y="-85.5" font-family="Helvetica,sans-Serif" font-size="10.00">iop/hdd/apa/src/hdd</text>
<text text-anchor="middle" x="2503.5" y="-74.5" font-family="Helvetica,sans-Serif" font-size="10.00">_fio.c</text>
</a>
</g>
</g>
<!-- Node18&#45;&gt;Node26 -->
<g id="edge32" class="edge">
<title>Node18&#45;&gt;Node26</title>
<path fill="none" stroke="midnightblue" d="M2677.36,-132.63C2639.43,-121.91 2589.8,-107.89 2553.28,-97.57"/>
<polygon fill="midnightblue" stroke="midnightblue" points="2676.66,-136.07 2687.23,-135.42 2678.56,-129.34 2676.66,-136.07"/>
</g>
<!-- Node27 -->
<g id="node27" class="node">
<title>Node27</title>
<g id="a_node27"><a xlink:href="iop_2hdd_2apa_2src_2irx__imports_8h_source.html" target="_top" xlink:title=" ">
<polygon fill="white" stroke="black" points="2572.5,-67.5 2572.5,-97.5 2668.5,-97.5 2668.5,-67.5 2572.5,-67.5"/>
<text text-anchor="start" x="2580.5" y="-85.5" font-family="Helvetica,sans-Serif" font-size="10.00">iop/hdd/apa/src/irx</text>
<text text-anchor="middle" x="2620.5" y="-74.5" font-family="Helvetica,sans-Serif" font-size="10.00">_imports.h</text>
</a>
</g>
</g>
<!-- Node18&#45;&gt;Node27 -->
<g id="edge33" class="edge">
<title>Node18&#45;&gt;Node27</title>
<path fill="none" stroke="midnightblue" d="M2700.11,-129.3C2682.43,-119.12 2661.1,-106.85 2644.97,-97.58"/>
<polygon fill="midnightblue" stroke="midnightblue" points="2698.57,-132.44 2708.98,-134.4 2702.06,-126.38 2698.57,-132.44"/>
</g>
<!-- Node28 -->
<g id="node28" class="node">
<title>Node28</title>
<g id="a_node28"><a xlink:href="apa_8c_source.html" target="_top" xlink:title=" ">
<polygon fill="white" stroke="black" points="2687,-67.5 2687,-97.5 2780,-97.5 2780,-67.5 2687,-67.5"/>
<text text-anchor="start" x="2695" y="-85.5" font-family="Helvetica,sans-Serif" font-size="10.00">iop/hdd/libapa/src</text>
<text text-anchor="middle" x="2733.5" y="-74.5" font-family="Helvetica,sans-Serif" font-size="10.00">/apa.c</text>
</a>
</g>
</g>
<!-- Node18&#45;&gt;Node28 -->
<g id="edge34" class="edge">
<title>Node18&#45;&gt;Node28</title>
<path fill="none" stroke="midnightblue" d="M2733.5,-124.11C2733.5,-115.15 2733.5,-105.32 2733.5,-97.58"/>
<polygon fill="midnightblue" stroke="midnightblue" points="2730,-124.4 2733.5,-134.4 2737,-124.4 2730,-124.4"/>
</g>
<!-- Node29 -->
<g id="node29" class="node">
<title>Node29</title>
<g id="a_node29"><a xlink:href="libapa_2src_2cache_8c_source.html" target="_top" xlink:title=" ">
<polygon fill="white" stroke="black" points="2798,-67.5 2798,-97.5 2891,-97.5 2891,-67.5 2798,-67.5"/>
<text text-anchor="start" x="2806" y="-85.5" font-family="Helvetica,sans-Serif" font-size="10.00">iop/hdd/libapa/src</text>
<text text-anchor="middle" x="2844.5" y="-74.5" font-family="Helvetica,sans-Serif" font-size="10.00">/cache.c</text>
</a>
</g>
</g>
<!-- Node18&#45;&gt;Node29 -->
<g id="edge35" class="edge">
<title>Node18&#45;&gt;Node29</title>
<path fill="none" stroke="midnightblue" d="M2766.3,-129.3C2783.66,-119.12 2804.62,-106.85 2820.46,-97.58"/>
<polygon fill="midnightblue" stroke="midnightblue" points="2764.45,-126.32 2757.59,-134.4 2767.98,-132.36 2764.45,-126.32"/>
</g>
<!-- Node30 -->
<g id="node30" class="node">
<title>Node30</title>
<g id="a_node30"><a xlink:href="free_8c_source.html" target="_top" xlink:title=" ">
<polygon fill="white" stroke="black" points="2909,-67.5 2909,-97.5 3002,-97.5 3002,-67.5 2909,-67.5"/>
<text text-anchor="start" x="2917" y="-85.5" font-family="Helvetica,sans-Serif" font-size="10.00">iop/hdd/libapa/src</text>
<text text-anchor="middle" x="2955.5" y="-74.5" font-family="Helvetica,sans-Serif" font-size="10.00">/free.c</text>
</a>
</g>
</g>
<!-- Node18&#45;&gt;Node30 -->
<g id="edge36" class="edge">
<title>Node18&#45;&gt;Node30</title>
<path fill="none" stroke="midnightblue" d="M2789.38,-132.14C2826.28,-121.33 2874.07,-107.34 2908.91,-97.14"/>
<polygon fill="midnightblue" stroke="midnightblue" points="2788.38,-128.78 2779.77,-134.95 2790.35,-135.5 2788.38,-128.78"/>
</g>
<!-- Node31 -->
<g id="node31" class="node">
<title>Node31</title>
<g id="a_node31"><a xlink:href="libapa_2src_2journal_8c_source.html" target="_top" xlink:title=" ">
<polygon fill="white" stroke="black" points="3020,-67.5 3020,-97.5 3113,-97.5 3113,-67.5 3020,-67.5"/>
<text text-anchor="start" x="3028" y="-85.5" font-family="Helvetica,sans-Serif" font-size="10.00">iop/hdd/libapa/src</text>
<text text-anchor="middle" x="3066.5" y="-74.5" font-family="Helvetica,sans-Serif" font-size="10.00">/journal.c</text>
</a>
</g>
</g>
<!-- Node18&#45;&gt;Node31 -->
<g id="edge37" class="edge">
<title>Node18&#45;&gt;Node31</title>
<path fill="none" stroke="midnightblue" d="M2789.44,-133.93C2888.44,-113.51 2916.36,-118.17 3011.5,-98 3014.2,-97.43 3016.98,-96.81 3019.77,-96.15"/>
<polygon fill="midnightblue" stroke="midnightblue" points="2788.7,-130.51 2779.64,-135.99 2790.14,-137.36 2788.7,-130.51"/>
</g>
<!-- Node32 -->
<g id="node32" class="node">
<title>Node32</title>
<g id="a_node32"><a xlink:href="libapa_2src_2misc_8c_source.html" target="_top" xlink:title=" ">
<polygon fill="white" stroke="black" points="3131,-67.5 3131,-97.5 3224,-97.5 3224,-67.5 3131,-67.5"/>
<text text-anchor="start" x="3139" y="-85.5" font-family="Helvetica,sans-Serif" font-size="10.00">iop/hdd/libapa/src</text>
<text text-anchor="middle" x="3177.5" y="-74.5" font-family="Helvetica,sans-Serif" font-size="10.00">/misc.c</text>
</a>
</g>
</g>
<!-- Node18&#45;&gt;Node32 -->
<g id="edge38" class="edge">
<title>Node18&#45;&gt;Node32</title>
<path fill="none" stroke="midnightblue" d="M2789.48,-134.01C2937.11,-107.65 2978.83,-124.52 3122.5,-98 3125.22,-97.5 3128,-96.93 3130.8,-96.32"/>
<polygon fill="midnightblue" stroke="midnightblue" points="2788.81,-130.57 2779.6,-135.81 2790.07,-137.46 2788.81,-130.57"/>
</g>
<!-- Node33 -->
<g id="node33" class="node">
<title>Node33</title>
<g id="a_node33"><a xlink:href="password_8c_source.html" target="_top" xlink:title=" ">
<polygon fill="white" stroke="black" points="3242,-67.5 3242,-97.5 3335,-97.5 3335,-67.5 3242,-67.5"/>
<text text-anchor="start" x="3250" y="-85.5" font-family="Helvetica,sans-Serif" font-size="10.00">iop/hdd/libapa/src</text>
<text text-anchor="middle" x="3288.5" y="-74.5" font-family="Helvetica,sans-Serif" font-size="10.00">/password.c</text>
</a>
</g>
</g>
<!-- Node18&#45;&gt;Node33 -->
<g id="edge39" class="edge">
<title>Node18&#45;&gt;Node33</title>
<path fill="none" stroke="midnightblue" d="M2789.65,-134.02C2985.91,-101.58 3041.16,-130.87 3233.5,-98 3236.23,-97.53 3239.01,-97 3241.82,-96.41"/>
<polygon fill="midnightblue" stroke="midnightblue" points="2788.86,-130.6 2779.58,-135.72 2790.03,-137.51 2788.86,-130.6"/>
</g>
<!-- Node34 -->
<g id="node34" class="node">
<title>Node34</title>
<g id="a_node34"><a xlink:href="dir_8c_source.html" target="_top" xlink:title=" ">
<polygon fill="white" stroke="black" points="3353,-67.5 3353,-97.5 3444,-97.5 3444,-67.5 3353,-67.5"/>
<text text-anchor="start" x="3361" y="-85.5" font-family="Helvetica,sans-Serif" font-size="10.00">iop/hdd/libpfs/src</text>
<text text-anchor="middle" x="3398.5" y="-74.5" font-family="Helvetica,sans-Serif" font-size="10.00">/dir.c</text>
</a>
</g>
</g>
<!-- Node18&#45;&gt;Node34 -->
<g id="edge40" class="edge">
<title>Node18&#45;&gt;Node34</title>
<path fill="none" stroke="midnightblue" d="M2789.5,-134.07C3034.72,-95.4 3103.39,-137.77 3344.5,-98 3347.28,-97.54 3350.12,-97 3352.97,-96.4"/>
<polygon fill="midnightblue" stroke="midnightblue" points="2788.89,-130.62 2779.57,-135.66 2790,-137.53 2788.89,-130.62"/>
</g>
<!-- Node35 -->
<g id="node35" class="node">
<title>Node35</title>
<g id="a_node35"><a xlink:href="libpfs_2src_2misc_8c_source.html" target="_top" xlink:title=" ">
<polygon fill="white" stroke="black" points="3462,-67.5 3462,-97.5 3553,-97.5 3553,-67.5 3462,-67.5"/>
<text text-anchor="start" x="3470" y="-85.5" font-family="Helvetica,sans-Serif" font-size="10.00">iop/hdd/libpfs/src</text>
<text text-anchor="middle" x="3507.5" y="-74.5" font-family="Helvetica,sans-Serif" font-size="10.00">/misc.c</text>
</a>
</g>
</g>
<!-- Node18&#45;&gt;Node35 -->
<g id="edge41" class="edge">
<title>Node18&#45;&gt;Node35</title>
<path fill="none" stroke="midnightblue" d="M2789.64,-134.06C3082.73,-89.29 3164.49,-144.11 3453.5,-98 3456.28,-97.56 3459.12,-97.03 3461.98,-96.44"/>
<polygon fill="midnightblue" stroke="midnightblue" points="2788.91,-130.63 2779.57,-135.63 2789.99,-137.55 2788.91,-130.63"/>
</g>
<!-- Node36 -->
<g id="node36" class="node">
<title>Node36</title>
<g id="a_node36"><a xlink:href="iop_2hdd_2pfs_2src_2irx__imports_8h_source.html" target="_top" xlink:title=" ">
<polygon fill="white" stroke="black" points="3571.5,-67.5 3571.5,-97.5 3665.5,-97.5 3665.5,-67.5 3571.5,-67.5"/>
<text text-anchor="start" x="3579.5" y="-85.5" font-family="Helvetica,sans-Serif" font-size="10.00">iop/hdd/pfs/src/irx</text>
<text text-anchor="middle" x="3618.5" y="-74.5" font-family="Helvetica,sans-Serif" font-size="10.00">_imports.h</text>
</a>
</g>
</g>
<!-- Node18&#45;&gt;Node36 -->
<g id="edge42" class="edge">
<title>Node18&#45;&gt;Node36</title>
<path fill="none" stroke="midnightblue" d="M2789.47,-134.1C3130.69,-83.09 3225.23,-148.95 3562.5,-98 3565.38,-97.56 3568.33,-97.04 3571.29,-96.46"/>
<polygon fill="midnightblue" stroke="midnightblue" points="2788.93,-130.64 2779.56,-135.6 2789.98,-137.56 2788.93,-130.64"/>
</g>
<!-- Node37 -->
<g id="node37" class="node">
<title>Node37</title>
<g id="a_node37"><a xlink:href="pfs_8c_source.html" target="_top" xlink:title=" ">
<polygon fill="white" stroke="black" points="3684,-73 3684,-92 3789,-92 3789,-73 3684,-73"/>
<text text-anchor="middle" x="3736.5" y="-80" font-family="Helvetica,sans-Serif" font-size="10.00">iop/hdd/pfs/src/pfs.c</text>
</a>
</g>
</g>
<!-- Node18&#45;&gt;Node37 -->
<g id="edge43" class="edge">
<title>Node18&#45;&gt;Node37</title>
<path fill="none" stroke="midnightblue" d="M2789.72,-134.07C3180.05,-76.71 3287.33,-150.66 3674.5,-98 3684.58,-96.63 3695.42,-94.37 3705.17,-92.04"/>
<polygon fill="midnightblue" stroke="midnightblue" points="2788.94,-130.65 2779.56,-135.58 2789.97,-137.57 2788.94,-130.65"/>
</g>
<!-- Node38 -->
<g id="node38" class="node">
<title>Node38</title>
<g id="a_node38"><a xlink:href="pfs__fio_8c_source.html" target="_top" xlink:title=" ">
<polygon fill="white" stroke="black" points="3807.5,-67.5 3807.5,-97.5 3905.5,-97.5 3905.5,-67.5 3807.5,-67.5"/>
<text text-anchor="start" x="3815.5" y="-85.5" font-family="Helvetica,sans-Serif" font-size="10.00">iop/hdd/pfs/src/pfs</text>
<text text-anchor="middle" x="3856.5" y="-74.5" font-family="Helvetica,sans-Serif" font-size="10.00">_fio.c</text>
</a>
</g>
</g>
<!-- Node18&#45;&gt;Node38 -->
<g id="edge44" class="edge">
<title>Node18&#45;&gt;Node38</title>
<path fill="none" stroke="midnightblue" d="M2789.47,-134.11C3234.64,-69.69 3357,-160.35 3798.5,-98 3801.38,-97.59 3804.32,-97.1 3807.28,-96.55"/>
<polygon fill="midnightblue" stroke="midnightblue" points="2788.95,-130.65 2779.56,-135.56 2789.96,-137.58 2788.95,-130.65"/>
</g>
<!-- Node39 -->
<g id="node39" class="node">
<title>Node39</title>
<g id="a_node39"><a xlink:href="pfs__fioctl_8c_source.html" target="_top" xlink:title=" ">
<polygon fill="white" stroke="black" points="3923.5,-67.5 3923.5,-97.5 4021.5,-97.5 4021.5,-67.5 3923.5,-67.5"/>
<text text-anchor="start" x="3931.5" y="-85.5" font-family="Helvetica,sans-Serif" font-size="10.00">iop/hdd/pfs/src/pfs</text>
<text text-anchor="middle" x="3972.5" y="-74.5" font-family="Helvetica,sans-Serif" font-size="10.00">_fioctl.c</text>
</a>
</g>
</g>
<!-- Node18&#45;&gt;Node39 -->
<g id="edge45" class="edge">
<title>Node18&#45;&gt;Node39</title>
<path fill="none" stroke="midnightblue" d="M2789.48,-134.11C3285.75,-63.1 3421.86,-166.65 3914.5,-98 3917.38,-97.6 3920.32,-97.11 3923.28,-96.56"/>
<polygon fill="midnightblue" stroke="midnightblue" points="2788.95,-130.65 2779.56,-135.55 2789.96,-137.58 2788.95,-130.65"/>
</g>
<!-- Node40 -->
<g id="node40" class="node">
<title>Node40</title>
<g id="a_node40"><a xlink:href="i_link_2_i_e_e_e1394__disk_2src_2fs__driver_8c_source.html" target="_top" xlink:title=" ">
<polygon fill="white" stroke="black" points="4039.5,-67.5 4039.5,-97.5 4143.5,-97.5 4143.5,-67.5 4039.5,-67.5"/>
<text text-anchor="start" x="4047.5" y="-85.5" font-family="Helvetica,sans-Serif" font-size="10.00">iop/iLink/IEEE1394</text>
<text text-anchor="middle" x="4091.5" y="-74.5" font-family="Helvetica,sans-Serif" font-size="10.00">_disk/src/fs_driver.c</text>
</a>
</g>
</g>
<!-- Node18&#45;&gt;Node40 -->
<g id="edge46" class="edge">
<title>Node18&#45;&gt;Node40</title>
<path fill="none" stroke="midnightblue" d="M2789.68,-134.09C3336.89,-56.49 3486.35,-169.79 4030.5,-98 4033.41,-97.62 4036.39,-97.15 4039.39,-96.63"/>
<polygon fill="midnightblue" stroke="midnightblue" points="2788.96,-130.66 2779.56,-135.54 2789.95,-137.59 2788.96,-130.66"/>
</g>
<!-- Node41 -->
<g id="node41" class="node">
<title>Node41</title>
<g id="a_node41"><a xlink:href="smb__fio_8c_source.html" target="_top" xlink:title=" ">
<polygon fill="white" stroke="black" points="4162,-67.5 4162,-97.5 4269,-97.5 4269,-67.5 4162,-67.5"/>
<text text-anchor="start" x="4170" y="-85.5" font-family="Helvetica,sans-Serif" font-size="10.00">iop/network/smbman</text>
<text text-anchor="middle" x="4215.5" y="-74.5" font-family="Helvetica,sans-Serif" font-size="10.00">/src/smb_fio.c</text>
</a>
</g>
</g>
<!-- Node18&#45;&gt;Node41 -->
<g id="edge47" class="edge">
<title>Node18&#45;&gt;Node41</title>
<path fill="none" stroke="midnightblue" d="M2789.78,-134.08C3390.66,-49.54 3554.28,-173.96 4152.5,-98 4155.51,-97.62 4158.58,-97.16 4161.67,-96.63"/>
<polygon fill="midnightblue" stroke="midnightblue" points="2788.96,-130.66 2779.55,-135.53 2789.95,-137.59 2788.96,-130.66"/>
</g>
<!-- Node42 -->
<g id="node42" class="node">
<title>Node42</title>
<g id="a_node42"><a xlink:href="smbman_8c_source.html" target="_top" xlink:title=" ">
<polygon fill="white" stroke="black" points="4287,-67.5 4287,-97.5 4394,-97.5 4394,-67.5 4287,-67.5"/>
<text text-anchor="start" x="4295" y="-85.5" font-family="Helvetica,sans-Serif" font-size="10.00">iop/network/smbman</text>
<text text-anchor="middle" x="4340.5" y="-74.5" font-family="Helvetica,sans-Serif" font-size="10.00">/src/smbman.c</text>
</a>
</g>
</g>
<!-- Node18&#45;&gt;Node42 -->
<g id="edge48" class="edge">
<title>Node18&#45;&gt;Node42</title>
<path fill="none" stroke="midnightblue" d="M2789.74,-134.09C3446.17,-42.37 3624.78,-181.44 4278.5,-98 4281.24,-97.65 4284.04,-97.23 4286.85,-96.76"/>
<polygon fill="midnightblue" stroke="midnightblue" points="2788.97,-130.66 2779.55,-135.52 2789.94,-137.59 2788.97,-130.66"/>
</g>
<!-- Node43 -->
<g id="node43" class="node">
<title>Node43</title>
<g id="a_node43"><a xlink:href="ioman__sbv_8c.html" target="_top" xlink:title=" ">
<polygon fill="white" stroke="black" points="4412.5,-67.5 4412.5,-97.5 4526.5,-97.5 4526.5,-67.5 4412.5,-67.5"/>
<text text-anchor="start" x="4420.5" y="-85.5" font-family="Helvetica,sans-Serif" font-size="10.00">iop/system/iomanx/src</text>
<text text-anchor="middle" x="4469.5" y="-74.5" font-family="Helvetica,sans-Serif" font-size="10.00">/ioman_sbv.c</text>
</a>
</g>
</g>
<!-- Node18&#45;&gt;Node43 -->
<g id="edge49" class="edge">
<title>Node18&#45;&gt;Node43</title>
<path fill="none" stroke="midnightblue" d="M2789.56,-134.14C3160.24,-84.92 4050.29,-140.33 4403.5,-98 4406.41,-97.65 4409.38,-97.23 4412.38,-96.76"/>
<polygon fill="midnightblue" stroke="midnightblue" points="2788.98,-130.69 2779.55,-135.52 2789.94,-137.63 2788.98,-130.69"/>
</g>
<!-- Node44 -->
<g id="node44" class="node">
<title>Node44</title>
<g id="a_node44"><a xlink:href="ioman_x_8c.html" target="_top" xlink:title=" ">
<polygon fill="white" stroke="black" points="4544.5,-67.5 4544.5,-97.5 4658.5,-97.5 4658.5,-67.5 4544.5,-67.5"/>
<text text-anchor="start" x="4552.5" y="-85.5" font-family="Helvetica,sans-Serif" font-size="10.00">iop/system/iomanx/src</text>
<text text-anchor="middle" x="4601.5" y="-74.5" font-family="Helvetica,sans-Serif" font-size="10.00">/iomanX.c</text>
</a>
</g>
</g>
<!-- Node18&#45;&gt;Node44 -->
<g id="edge50" class="edge">
<title>Node18&#45;&gt;Node44</title>
<path fill="none" stroke="midnightblue" d="M2789.47,-134.16C3189.23,-81.18 4153.12,-143.5 4535.5,-98 4538.41,-97.65 4541.39,-97.24 4544.38,-96.77"/>
<polygon fill="midnightblue" stroke="midnightblue" points="2788.99,-130.69 2779.55,-135.51 2789.93,-137.63 2788.99,-130.69"/>
</g>
<!-- Node45 -->
<g id="node45" class="node">
<title>Node45</title>
<g id="a_node45"><a xlink:href="commandline_8c.html" target="_top" xlink:title=" ">
<polygon fill="white" stroke="black" points="4677,-67.5 4677,-97.5 4790,-97.5 4790,-67.5 4677,-67.5"/>
<text text-anchor="start" x="4685" y="-85.5" font-family="Helvetica,sans-Serif" font-size="10.00">iop/system/iopmgr/src</text>
<text text-anchor="middle" x="4733.5" y="-74.5" font-family="Helvetica,sans-Serif" font-size="10.00">/commandline.c</text>
</a>
</g>
</g>
<!-- Node18&#45;&gt;Node45 -->
<g id="edge51" class="edge">
<title>Node18&#45;&gt;Node45</title>
<path fill="none" stroke="midnightblue" d="M2789.57,-134.14C3218.51,-77.45 4256,-146.66 4667.5,-98 4670.53,-97.64 4673.62,-97.21 4676.74,-96.71"/>
<polygon fill="midnightblue" stroke="midnightblue" points="2788.99,-130.69 2779.55,-135.51 2789.93,-137.63 2788.99,-130.69"/>
</g>
<!-- Node46 -->
<g id="node46" class="node">
<title>Node46</title>
<g id="a_node46"><a xlink:href="devices_8c.html" target="_top" xlink:title=" ">
<polygon fill="white" stroke="black" points="4808,-67.5 4808,-97.5 4921,-97.5 4921,-67.5 4808,-67.5"/>
<text text-anchor="start" x="4816" y="-85.5" font-family="Helvetica,sans-Serif" font-size="10.00">iop/system/iopmgr/src</text>
<text text-anchor="middle" x="4864.5" y="-74.5" font-family="Helvetica,sans-Serif" font-size="10.00">/devices.c</text>
</a>
</g>
</g>
<!-- Node18&#45;&gt;Node46 -->
<g id="edge52" class="edge">
<title>Node18&#45;&gt;Node46</title>
<path fill="none" stroke="midnightblue" d="M2789.58,-134.14C3247.66,-73.73 4358.93,-150.54 4799.5,-98 4802.26,-97.67 4805.07,-97.28 4807.9,-96.83"/>
<polygon fill="midnightblue" stroke="midnightblue" points="2788.99,-130.69 2779.55,-135.5 2789.93,-137.63 2788.99,-130.69"/>
</g>
<!-- Node47 -->
<g id="node47" class="node">
<title>Node47</title>
<g id="a_node47"><a xlink:href="iop_2system_2iopmgr_2src_2main_8c.html" target="_top" xlink:title=" ">
<polygon fill="white" stroke="black" points="4939,-67.5 4939,-97.5 5052,-97.5 5052,-67.5 4939,-67.5"/>
<text text-anchor="start" x="4947" y="-85.5" font-family="Helvetica,sans-Serif" font-size="10.00">iop/system/iopmgr/src</text>
<text text-anchor="middle" x="4995.5" y="-74.5" font-family="Helvetica,sans-Serif" font-size="10.00">/main.c</text>
</a>
</g>
</g>
<!-- Node18&#45;&gt;Node47 -->
<g id="edge53" class="edge">
<title>Node18&#45;&gt;Node47</title>
<path fill="none" stroke="midnightblue" d="M2789.5,-134.15C3276.43,-70.01 4460.98,-153.73 4930.5,-98 4933.26,-97.67 4936.07,-97.28 4938.9,-96.84"/>
<polygon fill="midnightblue" stroke="midnightblue" points="2788.99,-130.69 2779.55,-135.5 2789.93,-137.63 2788.99,-130.69"/>
</g>
<!-- Node48 -->
<g id="node48" class="node">
<title>Node48</title>
<g id="a_node48"><a xlink:href="iop_2usb_2mouse_2src_2irx__imports_8h_source.html" target="_top" xlink:title=" ">
<polygon fill="white" stroke="black" points="5070.5,-67.5 5070.5,-97.5 5180.5,-97.5 5180.5,-67.5 5070.5,-67.5"/>
<text text-anchor="start" x="5078.5" y="-85.5" font-family="Helvetica,sans-Serif" font-size="10.00">iop/usb/mouse/src/irx</text>
<text text-anchor="middle" x="5125.5" y="-74.5" font-family="Helvetica,sans-Serif" font-size="10.00">_imports.h</text>
</a>
</g>
</g>
<!-- Node18&#45;&gt;Node48 -->
<g id="edge54" class="edge">
<title>Node18&#45;&gt;Node48</title>
<path fill="none" stroke="midnightblue" d="M2789.72,-134.12C3305.68,-66.33 4563.22,-157.74 5061.5,-98 5064.44,-97.65 5067.44,-97.22 5070.47,-96.73"/>
<polygon fill="midnightblue" stroke="midnightblue" points="2788.99,-130.69 2779.55,-135.5 2789.93,-137.63 2788.99,-130.69"/>
</g>
<!-- Node49 -->
<g id="node49" class="node">
<title>Node49</title>
<g id="a_node49"><a xlink:href="ps2mouse_8c.html" target="_top" xlink:title=" ">
<polygon fill="white" stroke="black" points="1264.5,-73 1264.5,-92 1416.5,-92 1416.5,-73 1264.5,-73"/>
<text text-anchor="middle" x="1340.5" y="-80" font-family="Helvetica,sans-Serif" font-size="10.00">iop/usb/mouse/src/ps2mouse.c</text>
</a>
</g>
</g>
<!-- Node18&#45;&gt;Node49 -->
<g id="edge55" class="edge">
<title>Node18&#45;&gt;Node49</title>
<path fill="none" stroke="midnightblue" d="M2677.22,-148.9C2495.57,-149.65 1908.71,-147.76 1426.5,-98 1412.79,-96.59 1397.97,-94.34 1384.54,-92.04"/>
<polygon fill="midnightblue" stroke="midnightblue" points="2677.35,-152.4 2687.34,-148.86 2677.32,-145.4 2677.35,-152.4"/>
</g>
<!-- Node50 -->
<g id="node50" class="node">
<title>Node50</title>
<g id="a_node50"><a xlink:href="usb_2usbhdfsd_2src_2fs__driver_8c_source.html" target="_top" xlink:title=" ">
<polygon fill="white" stroke="black" points="1435,-67.5 1435,-97.5 1542,-97.5 1542,-67.5 1435,-67.5"/>
<text text-anchor="start" x="1443" y="-85.5" font-family="Helvetica,sans-Serif" font-size="10.00">iop/usb/usbhdfsd/src</text>
<text text-anchor="middle" x="1488.5" y="-74.5" font-family="Helvetica,sans-Serif" font-size="10.00">/fs_driver.c</text>
</a>
</g>
</g>
<!-- Node18&#45;&gt;Node50 -->
<g id="edge56" class="edge">
<title>Node18&#45;&gt;Node50</title>
<path fill="none" stroke="midnightblue" d="M2677.31,-147.47C2473.46,-143.51 1773.19,-127.99 1551.5,-98 1548.5,-97.59 1545.43,-97.11 1542.34,-96.57"/>
<polygon fill="midnightblue" stroke="midnightblue" points="2677.42,-150.97 2687.49,-147.66 2677.56,-143.97 2677.42,-150.97"/>
</g>
</g>
</svg>
