<?xml version="1.0" encoding="UTF-8" standalone="no"?>
<!DOCTYPE svg PUBLIC "-//W3C//DTD SVG 1.1//EN"
 "http://www.w3.org/Graphics/SVG/1.1/DTD/svg11.dtd">
<!-- Generated by graphviz version 12.2.0 (20241103.1931)
 -->
<!-- Title: iop/kernel/include/kerr.h Pages: 1 -->
<!--zoomable 105 -->

<svg id="main" version="1.1" xmlns="http://www.w3.org/2000/svg" xmlns:xlink="http://www.w3.org/1999/xlink" xml:space="preserve" onload="init(evt)">

<style type="text/css"><![CDATA[
.node, .edge {opacity: 0.7;}
.node.selected, .edge.selected {opacity: 1;}
.edge:hover path { stroke: red; }
.edge:hover polygon { stroke: red; fill: red; }
]]></style>

<defs>
  <circle id="rim" cx="0" cy="0" r="7"/>
  <circle id="rim2" cx="0" cy="0" r="3.5"/>
  <g id="zoomPlus">
    <use xlink:href="#rim" fill="#404040"><set attributeName="fill" to="#808080" begin="zoomplus.mouseover" end="zoomplus.mouseout"/></use>
    <path d="M-4,0h8M0,-4v8" fill="none" stroke="white" stroke-width="1.5" pointer-events="none"/>
  </g>
  <g id="zoomMin">
    <use xlink:href="#rim" fill="#404040"><set attributeName="fill" to="#808080" begin="zoomminus.mouseover" end="zoomminus.mouseout"/></use>
    <path d="M-4,0h8" fill="none" stroke="white" stroke-width="1.5" pointer-events="none"/>
  </g>
  <g id="arrowUp" transform="translate(30 24)">
    <use xlink:href="#rim"/>
    <path pointer-events="none" fill="none" stroke="white" stroke-width="1.5" d="M0,-3.0v7 M-2.5,-0.5L0,-3.0L2.5,-0.5"/>
  </g>
  <g id="arrowRight" transform="rotate(90) translate(36 -43)">
    <use xlink:href="#rim"/>
    <path pointer-events="none" fill="none" stroke="white" stroke-width="1.5" d="M0,-3.0v7 M-2.5,-0.5L0,-3.0L2.5,-0.5"/>
  </g>
  <g id="arrowDown" transform="rotate(180) translate(-30 -48)">
    <use xlink:href="#rim"/>
    <path pointer-events="none" fill="none" stroke="white" stroke-width="1.5" d="M0,-3.0v7 M-2.5,-0.5L0,-3.0L2.5,-0.5"/>
  </g>
  <g id="arrowLeft" transform="rotate(270) translate(-36 17)">
    <use xlink:href="#rim"/>
    <path pointer-events="none" fill="none" stroke="white" stroke-width="1.5" d="M0,-3.0v7 M-2.5,-0.5L0,-3.0L2.5,-0.5"/>
  </g>
  <g id="resetDef">
    <use xlink:href="#rim2" fill="#404040"><set attributeName="fill" to="#808080" begin="reset.mouseover" end="reset.mouseout"/></use>
  </g>
</defs>
<script type="application/ecmascript">
var viewWidth = 2883;
var viewHeight = 105;
var sectionId = 'dynsection-0';
</script>
<script type="application/ecmascript" xlink:href="svg.min.js"/>
<svg id="graph" class="graph">
<g id="viewport">
<title>iop/kernel/include/kerr.h</title>
<!-- Node1 -->
<g id="Node000001" class="node">
<title>Node1</title>
<g id="a_Node000001"><a xlink:title=" ">
<polygon fill="#999999" stroke="#666666" points="1476.25,-97 1384.5,-97 1384.5,-66.5 1476.25,-66.5 1476.25,-97"/>
<text text-anchor="start" x="1392.5" y="-83.5" font-family="Helvetica,sans-Serif" font-size="10.00">iop/kernel/include</text>
<text text-anchor="middle" x="1430.38" y="-72.25" font-family="Helvetica,sans-Serif" font-size="10.00">/kerr.h</text>
</a>
</g>
</g>
<!-- Node2 -->
<g id="Node000002" class="node">
<title>Node2</title>
<g id="a_Node000002"><a xlink:href="cdvdfsv_8c_source.html" target="_top" xlink:title=" ">
<polygon fill="white" stroke="#666666" points="106.75,-30.5 0,-30.5 0,0 106.75,0 106.75,-30.5"/>
<text text-anchor="start" x="8" y="-17" font-family="Helvetica,sans-Serif" font-size="10.00">iop/cdvd/cdvdfsv/src</text>
<text text-anchor="middle" x="53.38" y="-5.75" font-family="Helvetica,sans-Serif" font-size="10.00">/cdvdfsv.c</text>
</a>
</g>
</g>
<!-- Node1&#45;&gt;Node2 -->
<g id="edge1_Node000001_Node000002" class="edge">
<title>Node1&#45;&gt;Node2</title>
<g id="a_edge1_Node000001_Node000002"><a xlink:title=" ">
<path fill="none" stroke="#63b8ff" d="M1372.81,-79.99C1152.63,-76.85 363.87,-63.51 115.38,-30.5 112.64,-30.14 109.84,-29.71 107.03,-29.23"/>
<polygon fill="#63b8ff" stroke="#63b8ff" points="1372.51,-83.48 1382.56,-80.13 1372.61,-76.48 1372.51,-83.48"/>
</a>
</g>
</g>
<!-- Node3 -->
<g id="Node000003" class="node">
<title>Node3</title>
<g id="a_Node000003"><a xlink:href="cdvdman_8c_source.html" target="_top" xlink:title=" ">
<polygon fill="white" stroke="#666666" points="236.38,-30.5 124.38,-30.5 124.38,0 236.38,0 236.38,-30.5"/>
<text text-anchor="start" x="132.38" y="-17" font-family="Helvetica,sans-Serif" font-size="10.00">iop/cdvd/cdvdman/src</text>
<text text-anchor="middle" x="180.38" y="-5.75" font-family="Helvetica,sans-Serif" font-size="10.00">/cdvdman.c</text>
</a>
</g>
</g>
<!-- Node1&#45;&gt;Node3 -->
<g id="edge2_Node000001_Node000003" class="edge">
<title>Node1&#45;&gt;Node3</title>
<g id="a_edge2_Node000001_Node000003"><a xlink:title=" ">
<path fill="none" stroke="#63b8ff" d="M1372.83,-79.63C1166.93,-75.43 467.35,-59.32 245.38,-30.5 242.51,-30.13 239.59,-29.69 236.64,-29.21"/>
<polygon fill="#63b8ff" stroke="#63b8ff" points="1372.67,-83.13 1382.74,-79.83 1372.81,-76.13 1372.67,-83.13"/>
</a>
</g>
</g>
<!-- Node4 -->
<g id="Node000004" class="node">
<title>Node4</title>
<g id="a_Node000004"><a xlink:href="cdvdstm_8c_source.html" target="_top" xlink:title=" ">
<polygon fill="white" stroke="#666666" points="364.25,-30.5 254.5,-30.5 254.5,0 364.25,0 364.25,-30.5"/>
<text text-anchor="start" x="262.5" y="-17" font-family="Helvetica,sans-Serif" font-size="10.00">iop/cdvd/cdvdstm/src</text>
<text text-anchor="middle" x="309.38" y="-5.75" font-family="Helvetica,sans-Serif" font-size="10.00">/cdvdstm.c</text>
</a>
</g>
</g>
<!-- Node1&#45;&gt;Node4 -->
<g id="edge3_Node000001_Node000004" class="edge">
<title>Node1&#45;&gt;Node4</title>
<g id="a_edge3_Node000001_Node000004"><a xlink:title=" ">
<path fill="none" stroke="#63b8ff" d="M1372.59,-81.47C1212.84,-82.72 751.97,-81.27 373.38,-30.5 370.44,-30.11 367.44,-29.65 364.43,-29.14"/>
<polygon fill="#63b8ff" stroke="#63b8ff" points="1372.53,-84.97 1382.5,-81.39 1372.47,-77.97 1372.53,-84.97"/>
</a>
</g>
</g>
<!-- Node5 -->
<g id="Node000005" class="node">
<title>Node5</title>
<g id="a_Node000005"><a xlink:href="xatapi_8c_source.html" target="_top" xlink:title=" ">
<polygon fill="white" stroke="#666666" points="480.25,-30.5 382.5,-30.5 382.5,0 480.25,0 480.25,-30.5"/>
<text text-anchor="start" x="390.5" y="-17" font-family="Helvetica,sans-Serif" font-size="10.00">iop/cdvd/xatapi/src</text>
<text text-anchor="middle" x="431.38" y="-5.75" font-family="Helvetica,sans-Serif" font-size="10.00">/xatapi.c</text>
</a>
</g>
</g>
<!-- Node1&#45;&gt;Node5 -->
<g id="edge4_Node000001_Node000005" class="edge">
<title>Node1&#45;&gt;Node5</title>
<g id="a_edge4_Node000001_Node000005"><a xlink:title=" ">
<path fill="none" stroke="#63b8ff" d="M1373.06,-81.5C1225.48,-82.6 820.7,-80.43 488.38,-30.5 485.85,-30.12 483.28,-29.68 480.69,-29.19"/>
<polygon fill="#63b8ff" stroke="#63b8ff" points="1372.99,-85 1382.96,-81.41 1372.94,-78 1372.99,-85"/>
</a>
</g>
</g>
<!-- Node6 -->
<g id="Node000006" class="node">
<title>Node6</title>
<g id="a_Node000006"><a xlink:href="fsck_8c_source.html" target="_top" xlink:title=" ">
<polygon fill="white" stroke="#666666" points="612.88,-24.88 497.88,-24.88 497.88,-5.63 612.88,-5.63 612.88,-24.88"/>
<text text-anchor="middle" x="555.38" y="-11.38" font-family="Helvetica,sans-Serif" font-size="10.00">iop/hdd/fsck/src/fsck.c</text>
</a>
</g>
</g>
<!-- Node1&#45;&gt;Node6 -->
<g id="edge5_Node000001_Node000006" class="edge">
<title>Node1&#45;&gt;Node6</title>
<g id="a_edge5_Node000001_Node000006"><a xlink:title=" ">
<path fill="none" stroke="#63b8ff" d="M1372.58,-80.14C1239.46,-78.09 901.13,-69.17 621.38,-30.5 612.09,-29.22 602.16,-27.34 592.9,-25.37"/>
<polygon fill="#63b8ff" stroke="#63b8ff" points="1372.51,-83.64 1382.56,-80.29 1372.61,-76.64 1372.51,-83.64"/>
</a>
</g>
</g>
<!-- Node7 -->
<g id="Node000007" class="node">
<title>Node7</title>
<g id="a_Node000007"><a xlink:href="fssk_8c_source.html" target="_top" xlink:title=" ">
<polygon fill="white" stroke="#666666" points="745.88,-24.88 630.88,-24.88 630.88,-5.63 745.88,-5.63 745.88,-24.88"/>
<text text-anchor="middle" x="688.38" y="-11.38" font-family="Helvetica,sans-Serif" font-size="10.00">iop/hdd/fssk/src/fssk.c</text>
</a>
</g>
</g>
<!-- Node1&#45;&gt;Node7 -->
<g id="edge6_Node000001_Node000007" class="edge">
<title>Node1&#45;&gt;Node7</title>
<g id="a_edge6_Node000001_Node000007"><a xlink:title=" ">
<path fill="none" stroke="#63b8ff" d="M1372.74,-79.15C1255.66,-75.32 981.85,-63.35 754.38,-30.5 745.21,-29.18 735.42,-27.31 726.25,-25.37"/>
<polygon fill="#63b8ff" stroke="#63b8ff" points="1372.62,-82.65 1382.72,-79.47 1372.84,-75.66 1372.62,-82.65"/>
</a>
</g>
</g>
<!-- Node8 -->
<g id="Node000008" class="node">
<title>Node8</title>
<g id="a_Node000008"><a xlink:href="hdsk_8c_source.html" target="_top" xlink:title=" ">
<polygon fill="white" stroke="#666666" points="883.12,-24.88 763.62,-24.88 763.62,-5.63 883.12,-5.63 883.12,-24.88"/>
<text text-anchor="middle" x="823.38" y="-11.38" font-family="Helvetica,sans-Serif" font-size="10.00">iop/hdd/hdsk/src/hdsk.c</text>
</a>
</g>
</g>
<!-- Node1&#45;&gt;Node8 -->
<g id="edge7_Node000001_Node000008" class="edge">
<title>Node1&#45;&gt;Node8</title>
<g id="a_edge7_Node000001_Node000008"><a xlink:title=" ">
<path fill="none" stroke="#63b8ff" d="M1372.91,-77.48C1274.24,-71.39 1066.4,-56.52 892.38,-30.5 883.06,-29.11 873.11,-27.26 863.74,-25.37"/>
<polygon fill="#63b8ff" stroke="#63b8ff" points="1372.4,-80.95 1382.6,-78.07 1372.83,-73.96 1372.4,-80.95"/>
</a>
</g>
</g>
<!-- Node9 -->
<g id="Node000009" class="node">
<title>Node9</title>
<g id="a_Node000009"><a xlink:href="excepman_8c_source.html" target="_top" xlink:title=" ">
<polygon fill="white" stroke="#666666" points="1011.62,-30.5 901.12,-30.5 901.12,0 1011.62,0 1011.62,-30.5"/>
<text text-anchor="start" x="909.12" y="-17" font-family="Helvetica,sans-Serif" font-size="10.00">iop/system/excepman</text>
<text text-anchor="middle" x="956.38" y="-5.75" font-family="Helvetica,sans-Serif" font-size="10.00">/src/excepman.c</text>
</a>
</g>
</g>
<!-- Node1&#45;&gt;Node9 -->
<g id="edge8_Node000001_Node000009" class="edge">
<title>Node1&#45;&gt;Node9</title>
<g id="a_edge8_Node000001_Node000009"><a xlink:title=" ">
<path fill="none" stroke="#63b8ff" d="M1372.96,-75.41C1293.61,-67.63 1146.06,-51.78 1021.38,-30.5 1018.3,-29.98 1015.15,-29.4 1011.98,-28.8"/>
<polygon fill="#63b8ff" stroke="#63b8ff" points="1372.37,-78.87 1382.66,-76.35 1373.05,-71.9 1372.37,-78.87"/>
</a>
</g>
</g>
<!-- Node10 -->
<g id="Node000010" class="node">
<title>Node10</title>
<g id="a_Node000010"><a xlink:href="intrman_8c_source.html" target="_top" xlink:title=" ">
<polygon fill="white" stroke="#666666" points="1128.62,-30.5 1030.12,-30.5 1030.12,0 1128.62,0 1128.62,-30.5"/>
<text text-anchor="start" x="1038.12" y="-17" font-family="Helvetica,sans-Serif" font-size="10.00">iop/system/intrman</text>
<text text-anchor="middle" x="1079.38" y="-5.75" font-family="Helvetica,sans-Serif" font-size="10.00">/src/intrman.c</text>
</a>
</g>
</g>
<!-- Node1&#45;&gt;Node10 -->
<g id="edge9_Node000001_Node000010" class="edge">
<title>Node1&#45;&gt;Node10</title>
<g id="a_edge9_Node000001_Node000010"><a xlink:title=" ">
<path fill="none" stroke="#63b8ff" d="M1372.64,-72.09C1313.38,-62.91 1218.61,-47.42 1137.38,-30.5 1134.63,-29.93 1131.83,-29.32 1129,-28.69"/>
<polygon fill="#63b8ff" stroke="#63b8ff" points="1372.09,-75.55 1382.51,-73.61 1373.16,-68.63 1372.09,-75.55"/>
</a>
</g>
</g>
<!-- Node11 -->
<g id="Node000011" class="node">
<title>Node11</title>
<g id="a_Node000011"><a xlink:href="loadcore_8c_source.html" target="_top" xlink:title=" ">
<polygon fill="white" stroke="#666666" points="1249.88,-30.5 1146.88,-30.5 1146.88,0 1249.88,0 1249.88,-30.5"/>
<text text-anchor="start" x="1154.88" y="-17" font-family="Helvetica,sans-Serif" font-size="10.00">iop/system/loadcore</text>
<text text-anchor="middle" x="1198.38" y="-5.75" font-family="Helvetica,sans-Serif" font-size="10.00">/src/loadcore.c</text>
</a>
</g>
</g>
<!-- Node1&#45;&gt;Node11 -->
<g id="edge10_Node000001_Node000011" class="edge">
<title>Node1&#45;&gt;Node11</title>
<g id="a_edge10_Node000001_Node000011"><a xlink:title=" ">
<path fill="none" stroke="#63b8ff" d="M1373.45,-64.92C1335.73,-54.44 1286.65,-40.79 1250.06,-30.62"/>
<polygon fill="#63b8ff" stroke="#63b8ff" points="1372.23,-68.22 1382.8,-67.52 1374.11,-61.47 1372.23,-68.22"/>
</a>
</g>
</g>
<!-- Node12 -->
<g id="Node000012" class="node">
<title>Node12</title>
<g id="a_Node000012"><a xlink:href="eeelfloader_8c_source.html" target="_top" xlink:title=" ">
<polygon fill="white" stroke="#666666" points="1364.5,-30.5 1268.25,-30.5 1268.25,0 1364.5,0 1364.5,-30.5"/>
<text text-anchor="start" x="1276.25" y="-17" font-family="Helvetica,sans-Serif" font-size="10.00">iop/system/loadfile</text>
<text text-anchor="middle" x="1316.38" y="-5.75" font-family="Helvetica,sans-Serif" font-size="10.00">/src/eeelfloader.c</text>
</a>
</g>
</g>
<!-- Node1&#45;&gt;Node12 -->
<g id="edge11_Node000001_Node000012" class="edge">
<title>Node1&#45;&gt;Node12</title>
<g id="a_edge11_Node000001_Node000012"><a xlink:title=" ">
<path fill="none" stroke="#63b8ff" d="M1394.86,-60.66C1377.8,-51 1357.72,-39.64 1342.14,-30.83"/>
<polygon fill="#63b8ff" stroke="#63b8ff" points="1392.76,-63.49 1403.19,-65.37 1396.21,-57.4 1392.76,-63.49"/>
</a>
</g>
</g>
<!-- Node13 -->
<g id="Node000013" class="node">
<title>Node13</title>
<g id="a_Node000013"><a xlink:href="iop_2system_2loadfile_2src_2loadfile_8c_source.html" target="_top" xlink:title=" ">
<polygon fill="white" stroke="#666666" points="1478.5,-30.5 1382.25,-30.5 1382.25,0 1478.5,0 1478.5,-30.5"/>
<text text-anchor="start" x="1390.25" y="-17" font-family="Helvetica,sans-Serif" font-size="10.00">iop/system/loadfile</text>
<text text-anchor="middle" x="1430.38" y="-5.75" font-family="Helvetica,sans-Serif" font-size="10.00">/src/loadfile.c</text>
</a>
</g>
</g>
<!-- Node1&#45;&gt;Node13 -->
<g id="edge12_Node000001_Node000013" class="edge">
<title>Node1&#45;&gt;Node13</title>
<g id="a_edge12_Node000001_Node000013"><a xlink:title=" ">
<path fill="none" stroke="#63b8ff" d="M1430.38,-54.81C1430.38,-46.64 1430.38,-37.91 1430.38,-30.83"/>
<polygon fill="#63b8ff" stroke="#63b8ff" points="1426.88,-54.6 1430.38,-64.6 1433.88,-54.6 1426.88,-54.6"/>
</a>
</g>
</g>
<!-- Node14 -->
<g id="Node000014" class="node">
<title>Node14</title>
<g id="a_Node000014"><a xlink:href="modload_8c_source.html" target="_top" xlink:title=" ">
<polygon fill="white" stroke="#666666" points="1599.88,-30.5 1496.88,-30.5 1496.88,0 1599.88,0 1599.88,-30.5"/>
<text text-anchor="start" x="1504.88" y="-17" font-family="Helvetica,sans-Serif" font-size="10.00">iop/system/modload</text>
<text text-anchor="middle" x="1548.38" y="-5.75" font-family="Helvetica,sans-Serif" font-size="10.00">/src/modload.c</text>
</a>
</g>
</g>
<!-- Node1&#45;&gt;Node14 -->
<g id="edge13_Node000001_Node000014" class="edge">
<title>Node1&#45;&gt;Node14</title>
<g id="a_edge13_Node000001_Node000014"><a xlink:title=" ">
<path fill="none" stroke="#63b8ff" d="M1467.13,-60.66C1484.8,-51 1505.58,-39.64 1521.7,-30.83"/>
<polygon fill="#63b8ff" stroke="#63b8ff" points="1465.58,-57.52 1458.48,-65.39 1468.93,-63.66 1465.58,-57.52"/>
</a>
</g>
</g>
<!-- Node15 -->
<g id="Node000015" class="node">
<title>Node15</title>
<g id="a_Node000015"><a xlink:href="msifrpc_8c_source.html" target="_top" xlink:title=" ">
<polygon fill="white" stroke="#666666" points="1716.62,-30.5 1618.12,-30.5 1618.12,0 1716.62,0 1716.62,-30.5"/>
<text text-anchor="start" x="1626.12" y="-17" font-family="Helvetica,sans-Serif" font-size="10.00">iop/system/msifrpc</text>
<text text-anchor="middle" x="1667.38" y="-5.75" font-family="Helvetica,sans-Serif" font-size="10.00">/src/msifrpc.c</text>
</a>
</g>
</g>
<!-- Node1&#45;&gt;Node15 -->
<g id="edge14_Node000001_Node000015" class="edge">
<title>Node1&#45;&gt;Node15</title>
<g id="a_edge14_Node000001_Node000015"><a xlink:title=" ">
<path fill="none" stroke="#63b8ff" d="M1487.51,-65.2C1527.34,-54.36 1579.94,-40.04 1617.96,-29.7"/>
<polygon fill="#63b8ff" stroke="#63b8ff" points="1486.82,-61.76 1478.09,-67.76 1488.66,-68.51 1486.82,-61.76"/>
</a>
</g>
</g>
<!-- Node16 -->
<g id="Node000016" class="node">
<title>Node16</title>
<g id="a_Node000016"><a xlink:href="thbase_8c_source.html" target="_top" xlink:title=" ">
<polygon fill="white" stroke="#666666" points="1846.38,-30.5 1734.38,-30.5 1734.38,0 1846.38,0 1846.38,-30.5"/>
<text text-anchor="start" x="1742.38" y="-17" font-family="Helvetica,sans-Serif" font-size="10.00">iop/system/threadman</text>
<text text-anchor="middle" x="1790.38" y="-5.75" font-family="Helvetica,sans-Serif" font-size="10.00">/src/thbase.c</text>
</a>
</g>
</g>
<!-- Node1&#45;&gt;Node16 -->
<g id="edge15_Node000001_Node000016" class="edge">
<title>Node1&#45;&gt;Node16</title>
<g id="a_edge15_Node000001_Node000016"><a xlink:title=" ">
<path fill="none" stroke="#63b8ff" d="M1487.79,-71.79C1547.34,-62.31 1643.09,-46.52 1725.38,-30.5 1728.21,-29.95 1731.11,-29.37 1734.04,-28.77"/>
<polygon fill="#63b8ff" stroke="#63b8ff" points="1487.56,-68.28 1478.23,-73.31 1488.66,-75.2 1487.56,-68.28"/>
</a>
</g>
</g>
<!-- Node17 -->
<g id="Node000017" class="node">
<title>Node17</title>
<g id="a_Node000017"><a xlink:href="thcommon_8c_source.html" target="_top" xlink:title=" ">
<polygon fill="white" stroke="#666666" points="1976.38,-30.5 1864.38,-30.5 1864.38,0 1976.38,0 1976.38,-30.5"/>
<text text-anchor="start" x="1872.38" y="-17" font-family="Helvetica,sans-Serif" font-size="10.00">iop/system/threadman</text>
<text text-anchor="middle" x="1920.38" y="-5.75" font-family="Helvetica,sans-Serif" font-size="10.00">/src/thcommon.c</text>
</a>
</g>
</g>
<!-- Node1&#45;&gt;Node17 -->
<g id="edge16_Node000001_Node000017" class="edge">
<title>Node1&#45;&gt;Node17</title>
<g id="a_edge16_Node000001_Node000017"><a xlink:title=" ">
<path fill="none" stroke="#63b8ff" d="M1487.8,-75.76C1569.71,-68.24 1724.65,-52.5 1855.38,-30.5 1858.22,-30.02 1861.13,-29.5 1864.07,-28.95"/>
<polygon fill="#63b8ff" stroke="#63b8ff" points="1487.65,-72.26 1478,-76.66 1488.28,-79.23 1487.65,-72.26"/>
</a>
</g>
</g>
<!-- Node18 -->
<g id="Node000018" class="node">
<title>Node18</title>
<g id="a_Node000018"><a xlink:href="thevent_8c_source.html" target="_top" xlink:title=" ">
<polygon fill="white" stroke="#666666" points="2106.38,-30.5 1994.38,-30.5 1994.38,0 2106.38,0 2106.38,-30.5"/>
<text text-anchor="start" x="2002.38" y="-17" font-family="Helvetica,sans-Serif" font-size="10.00">iop/system/threadman</text>
<text text-anchor="middle" x="2050.38" y="-5.75" font-family="Helvetica,sans-Serif" font-size="10.00">/src/thevent.c</text>
</a>
</g>
</g>
<!-- Node1&#45;&gt;Node18 -->
<g id="edge17_Node000001_Node000018" class="edge">
<title>Node1&#45;&gt;Node18</title>
<g id="a_edge17_Node000001_Node000018"><a xlink:title=" ">
<path fill="none" stroke="#63b8ff" d="M1488.13,-77.91C1589.34,-72.41 1805.1,-58.31 1985.38,-30.5 1988.23,-30.06 1991.15,-29.57 1994.09,-29.04"/>
<polygon fill="#63b8ff" stroke="#63b8ff" points="1487.97,-74.42 1478.17,-78.45 1488.35,-81.41 1487.97,-74.42"/>
</a>
</g>
</g>
<!-- Node19 -->
<g id="Node000019" class="node">
<title>Node19</title>
<g id="a_Node000019"><a xlink:href="thfpool_8c_source.html" target="_top" xlink:title=" ">
<polygon fill="white" stroke="#666666" points="2236.38,-30.5 2124.38,-30.5 2124.38,0 2236.38,0 2236.38,-30.5"/>
<text text-anchor="start" x="2132.38" y="-17" font-family="Helvetica,sans-Serif" font-size="10.00">iop/system/threadman</text>
<text text-anchor="middle" x="2180.38" y="-5.75" font-family="Helvetica,sans-Serif" font-size="10.00">/src/thfpool.c</text>
</a>
</g>
</g>
<!-- Node1&#45;&gt;Node19 -->
<g id="edge18_Node000001_Node000019" class="edge">
<title>Node1&#45;&gt;Node19</title>
<g id="a_edge18_Node000001_Node000019"><a xlink:title=" ">
<path fill="none" stroke="#63b8ff" d="M1487.99,-79.3C1606.19,-75.7 1884.41,-64.11 2115.38,-30.5 2118.23,-30.08 2121.15,-29.61 2124.09,-29.1"/>
<polygon fill="#63b8ff" stroke="#63b8ff" points="1488.13,-75.79 1478.24,-79.58 1488.34,-82.79 1488.13,-75.79"/>
</a>
</g>
</g>
<!-- Node20 -->
<g id="Node000020" class="node">
<title>Node20</title>
<g id="a_Node000020"><a xlink:href="thmsgbx_8c_source.html" target="_top" xlink:title=" ">
<polygon fill="white" stroke="#666666" points="2366.38,-30.5 2254.38,-30.5 2254.38,0 2366.38,0 2366.38,-30.5"/>
<text text-anchor="start" x="2262.38" y="-17" font-family="Helvetica,sans-Serif" font-size="10.00">iop/system/threadman</text>
<text text-anchor="middle" x="2310.38" y="-5.75" font-family="Helvetica,sans-Serif" font-size="10.00">/src/thmsgbx.c</text>
</a>
</g>
</g>
<!-- Node1&#45;&gt;Node20 -->
<g id="edge19_Node000001_Node000020" class="edge">
<title>Node1&#45;&gt;Node20</title>
<g id="a_edge19_Node000001_Node000020"><a xlink:title=" ">
<path fill="none" stroke="#63b8ff" d="M1487.71,-80.25C1621.22,-78.42 1962.98,-69.92 2245.38,-30.5 2248.24,-30.1 2251.16,-29.64 2254.1,-29.14"/>
<polygon fill="#63b8ff" stroke="#63b8ff" points="1488.05,-76.74 1478.09,-80.37 1488.14,-83.74 1488.05,-76.74"/>
</a>
</g>
</g>
<!-- Node21 -->
<g id="Node000021" class="node">
<title>Node21</title>
<g id="a_Node000021"><a xlink:href="thsemap_8c_source.html" target="_top" xlink:title=" ">
<polygon fill="white" stroke="#666666" points="2496.38,-30.5 2384.38,-30.5 2384.38,0 2496.38,0 2496.38,-30.5"/>
<text text-anchor="start" x="2392.38" y="-17" font-family="Helvetica,sans-Serif" font-size="10.00">iop/system/threadman</text>
<text text-anchor="middle" x="2440.38" y="-5.75" font-family="Helvetica,sans-Serif" font-size="10.00">/src/thsemap.c</text>
</a>
</g>
</g>
<!-- Node1&#45;&gt;Node21 -->
<g id="edge20_Node000001_Node000021" class="edge">
<title>Node1&#45;&gt;Node21</title>
<g id="a_edge20_Node000001_Node000021"><a xlink:title=" ">
<path fill="none" stroke="#63b8ff" d="M1487.79,-80.94C1635.65,-80.72 2041.3,-75.7 2375.38,-30.5 2378.24,-30.11 2381.16,-29.67 2384.1,-29.17"/>
<polygon fill="#63b8ff" stroke="#63b8ff" points="1487.86,-77.44 1477.86,-80.95 1487.87,-84.44 1487.86,-77.44"/>
</a>
</g>
</g>
<!-- Node22 -->
<g id="Node000022" class="node">
<title>Node22</title>
<g id="a_Node000022"><a xlink:href="thvpool_8c_source.html" target="_top" xlink:title=" ">
<polygon fill="white" stroke="#666666" points="2626.38,-30.5 2514.38,-30.5 2514.38,0 2626.38,0 2626.38,-30.5"/>
<text text-anchor="start" x="2522.38" y="-17" font-family="Helvetica,sans-Serif" font-size="10.00">iop/system/threadman</text>
<text text-anchor="middle" x="2570.38" y="-5.75" font-family="Helvetica,sans-Serif" font-size="10.00">/src/thvpool.c</text>
</a>
</g>
</g>
<!-- Node1&#45;&gt;Node22 -->
<g id="edge21_Node000001_Node000022" class="edge">
<title>Node1&#45;&gt;Node22</title>
<g id="a_edge21_Node000001_Node000022"><a xlink:title=" ">
<path fill="none" stroke="#63b8ff" d="M1487.79,-81.47C1648.99,-82.75 2119.18,-81.49 2505.38,-30.5 2508.24,-30.12 2511.16,-29.68 2514.11,-29.2"/>
<polygon fill="#63b8ff" stroke="#63b8ff" points="1488.27,-77.97 1478.24,-81.39 1488.21,-84.97 1488.27,-77.97"/>
</a>
</g>
</g>
<!-- Node23 -->
<g id="Node000023" class="node">
<title>Node23</title>
<g id="a_Node000023"><a xlink:href="timrman_8c_source.html" target="_top" xlink:title=" ">
<polygon fill="white" stroke="#666666" points="2746.12,-30.5 2644.62,-30.5 2644.62,0 2746.12,0 2746.12,-30.5"/>
<text text-anchor="start" x="2652.62" y="-17" font-family="Helvetica,sans-Serif" font-size="10.00">iop/system/timrman</text>
<text text-anchor="middle" x="2695.38" y="-5.75" font-family="Helvetica,sans-Serif" font-size="10.00">/src/timrman.c</text>
</a>
</g>
</g>
<!-- Node1&#45;&gt;Node23 -->
<g id="edge22_Node000001_Node000023" class="edge">
<title>Node1&#45;&gt;Node23</title>
<g id="a_edge22_Node000001_Node000023"><a xlink:title=" ">
<path fill="none" stroke="#63b8ff" d="M1487.89,-79.81C1696.03,-76.19 2409.55,-61.73 2635.38,-30.5 2638.34,-30.09 2641.38,-29.6 2644.44,-29.05"/>
<polygon fill="#63b8ff" stroke="#63b8ff" points="1488.09,-76.31 1478.15,-79.98 1488.21,-83.31 1488.09,-76.31"/>
</a>
</g>
</g>
<!-- Node24 -->
<g id="Node000024" class="node">
<title>Node24</title>
<g id="a_Node000024"><a xlink:href="vblank_8c_source.html" target="_top" xlink:title=" ">
<polygon fill="white" stroke="#666666" points="2875,-30.5 2763.75,-30.5 2763.75,0 2875,0 2875,-30.5"/>
<text text-anchor="start" x="2771.75" y="-17" font-family="Helvetica,sans-Serif" font-size="10.00">iop/system/vblank/src</text>
<text text-anchor="middle" x="2819.38" y="-5.75" font-family="Helvetica,sans-Serif" font-size="10.00">/vblank.c</text>
</a>
</g>
</g>
<!-- Node1&#45;&gt;Node24 -->
<g id="edge23_Node000001_Node000024" class="edge">
<title>Node1&#45;&gt;Node24</title>
<g id="a_edge23_Node000001_Node000024"><a xlink:title=" ">
<path fill="none" stroke="#63b8ff" d="M1488,-79.95C1709.31,-76.68 2504.73,-62.88 2755.38,-30.5 2757.97,-30.16 2760.62,-29.77 2763.28,-29.34"/>
<polygon fill="#63b8ff" stroke="#63b8ff" points="1488.14,-76.45 1478.2,-80.1 1488.25,-83.45 1488.14,-76.45"/>
</a>
</g>
</g>
</g>
</svg>

<g id="navigator" transform="translate(0 0)" fill="#404254">
  <rect fill="#f2f5e9" fill-opacity="0.5" stroke="#606060" stroke-width=".5" x="0" y="0" width="60" height="60"/>
  <use id="zoomplus" xlink:href="#zoomPlus" x="17" y="9" onmousedown="handleZoom(evt,'in')"/>
  <use id="zoomminus" xlink:href="#zoomMin" x="42" y="9" onmousedown="handleZoom(evt,'out')"/>
  <use id="reset" xlink:href="#resetDef" x="30" y="36" onmousedown="handleReset()"/>
   <use id="arrowup" xlink:href="#arrowUp" x="0" y="0" onmousedown="handlePan(0,-1)"/>
  <use id="arrowright" xlink:href="#arrowRight" x="0" y="0" onmousedown="handlePan(1,0)"/>
  <use id="arrowdown" xlink:href="#arrowDown" x="0" y="0" onmousedown="handlePan(0,1)"/>
  <use id="arrowleft" xlink:href="#arrowLeft" x="0" y="0" onmousedown="handlePan(-1,0)"/>
</g>
<svg viewBox="0 0 15 15" width="100%" height="30px" preserveAspectRatio="xMaxYMin meet">
 <g id="arrow_out" transform="scale(0.3 0.3)">
  <a xlink:href="kerr_8h__dep__incl_org.svg" target="_base">
   <rect id="button" ry="5" rx="5" y="6" x="6" height="38" width="38"
        fill="#f2f5e9" fill-opacity="0.5" stroke="#606060" stroke-width="1.0"/>
   <path id="arrow"
     d="M 11.500037,31.436501 C 11.940474,20.09759 22.043105,11.32322 32.158766,21.979434 L 37.068811,17.246167 C 37.068811,17.246167 37.088388,32 37.088388,32 L 22.160133,31.978069 C 22.160133,31.978069 26.997745,27.140456 26.997745,27.140456 C 18.528582,18.264221 13.291696,25.230495 11.500037,31.436501 z"
     style="fill:#404040;"/>
  </a>
 </g>
</svg>

<style type='text/css'>
<![CDATA[
[data-mouse-over-selected='false'] { opacity: 0.7; }
[data-mouse-over-selected='true']  { opacity: 1.0; }
]]>
</style>
<script type="application/ecmascript"><![CDATA[
document.addEventListener('DOMContentLoaded', (event) => {
  highlightEdges();
  highlightAdjacentNodes();
});
]]></script>
</svg>
