<?xml version="1.0" encoding="UTF-8" standalone="no"?>
<!DOCTYPE svg PUBLIC "-//W3C//DTD SVG 1.1//EN"
 "http://www.w3.org/Graphics/SVG/1.1/DTD/svg11.dtd">
<!-- Generated by graphviz version 2.43.0 (0)
 -->
<!-- Title: iop/kernel/include/kerr.h Pages: 1 -->
<!--zoomable 106 -->
<svg id="main" version="1.1" xmlns="http://www.w3.org/2000/svg" xmlns:xlink="http://www.w3.org/1999/xlink" xml:space="preserve" onload="init(evt)">
<style type="text/css"><![CDATA[
.edge:hover path { stroke: red; }
.edge:hover polygon { stroke: red; fill: red; }
]]></style>
<script type="text/javascript"><![CDATA[
var edges = document.getElementsByTagName('g');
if (edges && edges.length) {
  for (var i=0;i<edges.length;i++) {
    if (edges[i].id.substr(0,4)=='edge') {
      edges[i].setAttribute('class','edge');
    }
  }
}
]]></script>
        <defs>
                <circle id="rim" cx="0" cy="0" r="7"/>
                <circle id="rim2" cx="0" cy="0" r="3.5"/>
                <g id="zoomPlus">
                        <use xlink:href="#rim" fill="#404040">
                                <set attributeName="fill" to="#808080" begin="zoomplus.mouseover" end="zoomplus.mouseout"/>
                        </use>
                        <path d="M-4,0h8M0,-4v8" fill="none" stroke="white" stroke-width="1.5" pointer-events="none"/>
                </g>
                <g id="zoomMin">
                        <use xlink:href="#rim" fill="#404040">
                                <set attributeName="fill" to="#808080" begin="zoomminus.mouseover" end="zoomminus.mouseout"/>
                        </use>
                        <path d="M-4,0h8" fill="none" stroke="white" stroke-width="1.5" pointer-events="none"/>
                </g>
                <g id="dirArrow">
                        <path fill="none" stroke="white" stroke-width="1.5" d="M0,-3.0v7 M-2.5,-0.5L0,-3.0L2.5,-0.5"/>
                </g>
               <g id="resetDef">
                       <use xlink:href="#rim2" fill="#404040">
                               <set attributeName="fill" to="#808080" begin="reset.mouseover" end="reset.mouseout"/>
                       </use>
               </g>
        </defs>

<script type="text/javascript">
var viewWidth = 3184;
var viewHeight = 106;
var sectionId = 'dynsection-0';
</script>
<script xlink:href="svgpan.js"/>
<svg id="graph" class="graph">
<g id="viewport">
<title>iop/kernel/include/kerr.h</title>
<polygon fill="white" stroke="transparent" points="-4,4 -4,-102 3180,-102 3180,4 -4,4"/>
<!-- Node1 -->
<g id="node1" class="node">
<title>Node1</title>
<g id="a_node1"><a xlink:title=" ">
<polygon fill="#bfbfbf" stroke="black" points="1515.5,-67.5 1515.5,-97.5 1618.5,-97.5 1618.5,-67.5 1515.5,-67.5"/>
<text text-anchor="start" x="1523.5" y="-85.5" font-family="Helvetica,sans-Serif" font-size="10.00">iop/kernel/include</text>
<text text-anchor="middle" x="1567" y="-74.5" font-family="Helvetica,sans-Serif" font-size="10.00">/kerr.h</text>
</a>
</g>
</g>
<!-- Node2 -->
<g id="node2" class="node">
<title>Node2</title>
<g id="a_node2"><a xlink:href="cdvdfsv_8c_source.html" target="_top" xlink:title=" ">
<polygon fill="white" stroke="black" points="0,-0.5 0,-30.5 116,-30.5 116,-0.5 0,-0.5"/>
<text text-anchor="start" x="8" y="-18.5" font-family="Helvetica,sans-Serif" font-size="10.00">iop/cdvd/cdvdfsv/src</text>
<text text-anchor="middle" x="58" y="-7.5" font-family="Helvetica,sans-Serif" font-size="10.00">/cdvdfsv.c</text>
</a>
</g>
</g>
<!-- Node1&#45;&gt;Node2 -->
<g id="edge1" class="edge">
<title>Node1&#45;&gt;Node2</title>
<path fill="none" stroke="midnightblue" d="M1505.23,-80.8C1265.72,-77.87 398.25,-65.08 125,-31 122.17,-30.65 119.27,-30.23 116.36,-29.77"/>
<polygon fill="midnightblue" stroke="midnightblue" points="1505.44,-84.3 1515.49,-80.93 1505.53,-77.31 1505.44,-84.3"/>
</g>
<!-- Node3 -->
<g id="node3" class="node">
<title>Node3</title>
<g id="a_node3"><a xlink:href="cdvdman_8c_source.html" target="_top" xlink:title=" ">
<polygon fill="white" stroke="black" points="134.5,-0.5 134.5,-30.5 257.5,-30.5 257.5,-0.5 134.5,-0.5"/>
<text text-anchor="start" x="142.5" y="-18.5" font-family="Helvetica,sans-Serif" font-size="10.00">iop/cdvd/cdvdman/src</text>
<text text-anchor="middle" x="196" y="-7.5" font-family="Helvetica,sans-Serif" font-size="10.00">/cdvdman.c</text>
</a>
</g>
</g>
<!-- Node1&#45;&gt;Node3 -->
<g id="edge2" class="edge">
<title>Node1&#45;&gt;Node3</title>
<path fill="none" stroke="midnightblue" d="M1505.09,-80.43C1280.8,-76.35 511.19,-60.48 267,-31 264,-30.64 260.94,-30.22 257.86,-29.75"/>
<polygon fill="midnightblue" stroke="midnightblue" points="1505.29,-83.94 1515.35,-80.62 1505.42,-76.94 1505.29,-83.94"/>
</g>
<!-- Node4 -->
<g id="node4" class="node">
<title>Node4</title>
<g id="a_node4"><a xlink:href="cdvdstm_8c_source.html" target="_top" xlink:title=" ">
<polygon fill="white" stroke="black" points="276,-0.5 276,-30.5 396,-30.5 396,-0.5 276,-0.5"/>
<text text-anchor="start" x="284" y="-18.5" font-family="Helvetica,sans-Serif" font-size="10.00">iop/cdvd/cdvdstm/src</text>
<text text-anchor="middle" x="336" y="-7.5" font-family="Helvetica,sans-Serif" font-size="10.00">/cdvdstm.c</text>
</a>
</g>
</g>
<!-- Node1&#45;&gt;Node4 -->
<g id="edge3" class="edge">
<title>Node1&#45;&gt;Node4</title>
<path fill="none" stroke="midnightblue" d="M1505.12,-80.15C1296.64,-75.39 620.86,-58.19 405,-31 402.09,-30.63 399.11,-30.21 396.11,-29.74"/>
<polygon fill="midnightblue" stroke="midnightblue" points="1505.2,-83.65 1515.28,-80.38 1505.36,-76.65 1505.2,-83.65"/>
</g>
<!-- Node5 -->
<g id="node5" class="node">
<title>Node5</title>
<g id="a_node5"><a xlink:href="xatapi_8c_source.html" target="_top" xlink:title=" ">
<polygon fill="white" stroke="black" points="414.5,-0.5 414.5,-30.5 523.5,-30.5 523.5,-0.5 414.5,-0.5"/>
<text text-anchor="start" x="422.5" y="-18.5" font-family="Helvetica,sans-Serif" font-size="10.00">iop/cdvd/xatapi/src</text>
<text text-anchor="middle" x="469" y="-7.5" font-family="Helvetica,sans-Serif" font-size="10.00">/xatapi.c</text>
</a>
</g>
</g>
<!-- Node1&#45;&gt;Node5 -->
<g id="edge4" class="edge">
<title>Node1&#45;&gt;Node5</title>
<path fill="none" stroke="midnightblue" d="M1505.15,-79.92C1312.02,-74.77 721.75,-57.25 532,-31 529.22,-30.62 526.38,-30.17 523.53,-29.67"/>
<polygon fill="midnightblue" stroke="midnightblue" points="1505.32,-83.43 1515.4,-80.2 1505.5,-76.43 1505.32,-83.43"/>
</g>
<!-- Node6 -->
<g id="node6" class="node">
<title>Node6</title>
<g id="a_node6"><a xlink:href="fsck_8c_source.html" target="_top" xlink:title=" ">
<polygon fill="white" stroke="black" points="541.5,-6 541.5,-25 666.5,-25 666.5,-6 541.5,-6"/>
<text text-anchor="middle" x="604" y="-13" font-family="Helvetica,sans-Serif" font-size="10.00">iop/hdd/fsck/src/fsck.c</text>
</a>
</g>
</g>
<!-- Node1&#45;&gt;Node6 -->
<g id="edge5" class="edge">
<title>Node1&#45;&gt;Node6</title>
<path fill="none" stroke="midnightblue" d="M1505.42,-81.08C1360.2,-79.42 985.19,-71.24 675,-31 663.77,-29.54 651.66,-27.32 640.68,-25.05"/>
<polygon fill="midnightblue" stroke="midnightblue" points="1505.44,-84.58 1515.47,-81.19 1505.51,-77.58 1505.44,-84.58"/>
</g>
<!-- Node7 -->
<g id="node7" class="node">
<title>Node7</title>
<g id="a_node7"><a xlink:href="fssk_8c_source.html" target="_top" xlink:title=" ">
<polygon fill="white" stroke="black" points="684.5,-6 684.5,-25 809.5,-25 809.5,-6 684.5,-6"/>
<text text-anchor="middle" x="747" y="-13" font-family="Helvetica,sans-Serif" font-size="10.00">iop/hdd/fssk/src/fssk.c</text>
</a>
</g>
</g>
<!-- Node1&#45;&gt;Node7 -->
<g id="edge6" class="edge">
<title>Node1&#45;&gt;Node7</title>
<path fill="none" stroke="midnightblue" d="M1505.42,-80.14C1377.05,-76.7 1071.7,-65.3 818,-31 806.9,-29.5 794.94,-27.29 784.06,-25.05"/>
<polygon fill="midnightblue" stroke="midnightblue" points="1505.36,-83.64 1515.45,-80.4 1505.55,-76.64 1505.36,-83.64"/>
</g>
<!-- Node8 -->
<g id="node8" class="node">
<title>Node8</title>
<g id="a_node8"><a xlink:href="hdsk_8c_source.html" target="_top" xlink:title=" ">
<polygon fill="white" stroke="black" points="827.5,-6 827.5,-25 958.5,-25 958.5,-6 827.5,-6"/>
<text text-anchor="middle" x="893" y="-13" font-family="Helvetica,sans-Serif" font-size="10.00">iop/hdd/hdsk/src/hdsk.c</text>
</a>
</g>
</g>
<!-- Node1&#45;&gt;Node8 -->
<g id="edge7" class="edge">
<title>Node1&#45;&gt;Node8</title>
<path fill="none" stroke="midnightblue" d="M1505.26,-78.54C1396.23,-72.81 1162.58,-58.31 967,-31 955.72,-29.42 943.56,-27.25 932.42,-25.06"/>
<polygon fill="midnightblue" stroke="midnightblue" points="1505.25,-82.04 1515.42,-79.07 1505.62,-75.05 1505.25,-82.04"/>
</g>
<!-- Node9 -->
<g id="node9" class="node">
<title>Node9</title>
<g id="a_node9"><a xlink:href="excepman_8c_source.html" target="_top" xlink:title=" ">
<polygon fill="white" stroke="black" points="976.5,-0.5 976.5,-30.5 1101.5,-30.5 1101.5,-0.5 976.5,-0.5"/>
<text text-anchor="start" x="984.5" y="-18.5" font-family="Helvetica,sans-Serif" font-size="10.00">iop/system/excepman</text>
<text text-anchor="middle" x="1039" y="-7.5" font-family="Helvetica,sans-Serif" font-size="10.00">/src/excepman.c</text>
</a>
</g>
</g>
<!-- Node1&#45;&gt;Node9 -->
<g id="edge8" class="edge">
<title>Node1&#45;&gt;Node9</title>
<path fill="none" stroke="midnightblue" d="M1505.1,-76.39C1417.19,-68.75 1251.24,-52.84 1111,-31 1107.98,-30.53 1104.89,-30.02 1101.77,-29.48"/>
<polygon fill="midnightblue" stroke="midnightblue" points="1504.91,-79.89 1515.17,-77.26 1505.51,-72.92 1504.91,-79.89"/>
</g>
<!-- Node10 -->
<g id="node10" class="node">
<title>Node10</title>
<g id="a_node10"><a xlink:href="intrman_8c_source.html" target="_top" xlink:title=" ">
<polygon fill="white" stroke="black" points="1120,-0.5 1120,-30.5 1232,-30.5 1232,-0.5 1120,-0.5"/>
<text text-anchor="start" x="1128" y="-18.5" font-family="Helvetica,sans-Serif" font-size="10.00">iop/system/intrman</text>
<text text-anchor="middle" x="1176" y="-7.5" font-family="Helvetica,sans-Serif" font-size="10.00">/src/intrman.c</text>
</a>
</g>
</g>
<!-- Node1&#45;&gt;Node10 -->
<g id="edge9" class="edge">
<title>Node1&#45;&gt;Node10</title>
<path fill="none" stroke="midnightblue" d="M1505.26,-73.17C1439.54,-64.02 1332.62,-48.3 1241,-31 1238.16,-30.46 1235.25,-29.89 1232.32,-29.3"/>
<polygon fill="midnightblue" stroke="midnightblue" points="1505.05,-76.67 1515.44,-74.58 1506.02,-69.74 1505.05,-76.67"/>
</g>
<!-- Node11 -->
<g id="node11" class="node">
<title>Node11</title>
<g id="a_node11"><a xlink:href="loadcore_8c_source.html" target="_top" xlink:title=" ">
<polygon fill="white" stroke="black" points="1250,-0.5 1250,-30.5 1366,-30.5 1366,-0.5 1250,-0.5"/>
<text text-anchor="start" x="1258" y="-18.5" font-family="Helvetica,sans-Serif" font-size="10.00">iop/system/loadcore</text>
<text text-anchor="middle" x="1308" y="-7.5" font-family="Helvetica,sans-Serif" font-size="10.00">/src/loadcore.c</text>
</a>
</g>
</g>
<!-- Node1&#45;&gt;Node11 -->
<g id="edge10" class="edge">
<title>Node1&#45;&gt;Node11</title>
<path fill="none" stroke="midnightblue" d="M1505.46,-66.05C1462.58,-55.29 1405.84,-41.05 1364.19,-30.6"/>
<polygon fill="midnightblue" stroke="midnightblue" points="1504.66,-69.46 1515.21,-68.5 1506.36,-62.67 1504.66,-69.46"/>
</g>
<!-- Node12 -->
<g id="node12" class="node">
<title>Node12</title>
<g id="a_node12"><a xlink:href="eeelfloader_8c_source.html" target="_top" xlink:title=" ">
<polygon fill="white" stroke="black" points="1384,-0.5 1384,-30.5 1494,-30.5 1494,-0.5 1384,-0.5"/>
<text text-anchor="start" x="1392" y="-18.5" font-family="Helvetica,sans-Serif" font-size="10.00">iop/system/loadfile</text>
<text text-anchor="middle" x="1439" y="-7.5" font-family="Helvetica,sans-Serif" font-size="10.00">/src/eeelfloader.c</text>
</a>
</g>
</g>
<!-- Node1&#45;&gt;Node12 -->
<g id="edge11" class="edge">
<title>Node1&#45;&gt;Node12</title>
<path fill="none" stroke="midnightblue" d="M1530.28,-62.85C1510.04,-52.58 1485.33,-40.03 1466.72,-30.58"/>
<polygon fill="midnightblue" stroke="midnightblue" points="1528.72,-65.99 1539.23,-67.4 1531.89,-59.75 1528.72,-65.99"/>
</g>
<!-- Node13 -->
<g id="node13" class="node">
<title>Node13</title>
<g id="a_node13"><a xlink:href="iop_2system_2loadfile_2src_2loadfile_8c_source.html" target="_top" xlink:title=" ">
<polygon fill="white" stroke="black" points="1512,-0.5 1512,-30.5 1622,-30.5 1622,-0.5 1512,-0.5"/>
<text text-anchor="start" x="1520" y="-18.5" font-family="Helvetica,sans-Serif" font-size="10.00">iop/system/loadfile</text>
<text text-anchor="middle" x="1567" y="-7.5" font-family="Helvetica,sans-Serif" font-size="10.00">/src/loadfile.c</text>
</a>
</g>
</g>
<!-- Node1&#45;&gt;Node13 -->
<g id="edge12" class="edge">
<title>Node1&#45;&gt;Node13</title>
<path fill="none" stroke="midnightblue" d="M1567,-57.11C1567,-48.15 1567,-38.32 1567,-30.58"/>
<polygon fill="midnightblue" stroke="midnightblue" points="1563.5,-57.4 1567,-67.4 1570.5,-57.4 1563.5,-57.4"/>
</g>
<!-- Node14 -->
<g id="node14" class="node">
<title>Node14</title>
<g id="a_node14"><a xlink:href="modload_8c_source.html" target="_top" xlink:title=" ">
<polygon fill="white" stroke="black" points="1640,-0.5 1640,-30.5 1756,-30.5 1756,-0.5 1640,-0.5"/>
<text text-anchor="start" x="1648" y="-18.5" font-family="Helvetica,sans-Serif" font-size="10.00">iop/system/modload</text>
<text text-anchor="middle" x="1698" y="-7.5" font-family="Helvetica,sans-Serif" font-size="10.00">/src/modload.c</text>
</a>
</g>
</g>
<!-- Node1&#45;&gt;Node14 -->
<g id="edge13" class="edge">
<title>Node1&#45;&gt;Node14</title>
<path fill="none" stroke="midnightblue" d="M1604.58,-62.85C1625.29,-52.58 1650.59,-40.03 1669.63,-30.58"/>
<polygon fill="midnightblue" stroke="midnightblue" points="1602.83,-59.82 1595.43,-67.4 1605.94,-66.09 1602.83,-59.82"/>
</g>
<!-- Node15 -->
<g id="node15" class="node">
<title>Node15</title>
<g id="a_node15"><a xlink:href="msifrpc_8c_source.html" target="_top" xlink:title=" ">
<polygon fill="white" stroke="black" points="1774,-0.5 1774,-30.5 1884,-30.5 1884,-0.5 1774,-0.5"/>
<text text-anchor="start" x="1782" y="-18.5" font-family="Helvetica,sans-Serif" font-size="10.00">iop/system/msifrpc</text>
<text text-anchor="middle" x="1829" y="-7.5" font-family="Helvetica,sans-Serif" font-size="10.00">/src/msifrpc.c</text>
</a>
</g>
</g>
<!-- Node1&#45;&gt;Node15 -->
<g id="edge14" class="edge">
<title>Node1&#45;&gt;Node15</title>
<path fill="none" stroke="midnightblue" d="M1628.48,-66.25C1672.48,-55.33 1731.21,-40.76 1773.73,-30.21"/>
<polygon fill="midnightblue" stroke="midnightblue" points="1627.63,-62.85 1618.76,-68.66 1629.31,-69.65 1627.63,-62.85"/>
</g>
<!-- Node16 -->
<g id="node16" class="node">
<title>Node16</title>
<g id="a_node16"><a xlink:href="thbase_8c_source.html" target="_top" xlink:title=" ">
<polygon fill="white" stroke="black" points="1902.5,-0.5 1902.5,-30.5 2029.5,-30.5 2029.5,-0.5 1902.5,-0.5"/>
<text text-anchor="start" x="1910.5" y="-18.5" font-family="Helvetica,sans-Serif" font-size="10.00">iop/system/threadman</text>
<text text-anchor="middle" x="1966" y="-7.5" font-family="Helvetica,sans-Serif" font-size="10.00">/src/thbase.c</text>
</a>
</g>
</g>
<!-- Node1&#45;&gt;Node16 -->
<g id="edge15" class="edge">
<title>Node1&#45;&gt;Node16</title>
<path fill="none" stroke="midnightblue" d="M1628.95,-72.7C1694.63,-63.19 1801.32,-47.2 1893,-31 1896.05,-30.46 1899.18,-29.89 1902.33,-29.31"/>
<polygon fill="midnightblue" stroke="midnightblue" points="1628.17,-69.28 1618.77,-74.17 1629.17,-76.21 1628.17,-69.28"/>
</g>
<!-- Node17 -->
<g id="node17" class="node">
<title>Node17</title>
<g id="a_node17"><a xlink:href="thcommon_8c_source.html" target="_top" xlink:title=" ">
<polygon fill="white" stroke="black" points="2047.5,-0.5 2047.5,-30.5 2174.5,-30.5 2174.5,-0.5 2047.5,-0.5"/>
<text text-anchor="start" x="2055.5" y="-18.5" font-family="Helvetica,sans-Serif" font-size="10.00">iop/system/threadman</text>
<text text-anchor="middle" x="2111" y="-7.5" font-family="Helvetica,sans-Serif" font-size="10.00">/src/thcommon.c</text>
</a>
</g>
</g>
<!-- Node1&#45;&gt;Node17 -->
<g id="edge16" class="edge">
<title>Node1&#45;&gt;Node17</title>
<path fill="none" stroke="midnightblue" d="M1628.6,-76.73C1718.94,-69.33 1892.53,-53.54 2039,-31 2041.77,-30.57 2044.6,-30.11 2047.45,-29.63"/>
<polygon fill="midnightblue" stroke="midnightblue" points="1628.22,-73.25 1618.54,-77.55 1628.79,-80.23 1628.22,-73.25"/>
</g>
<!-- Node18 -->
<g id="node18" class="node">
<title>Node18</title>
<g id="a_node18"><a xlink:href="thevent_8c_source.html" target="_top" xlink:title=" ">
<polygon fill="white" stroke="black" points="2192.5,-0.5 2192.5,-30.5 2319.5,-30.5 2319.5,-0.5 2192.5,-0.5"/>
<text text-anchor="start" x="2200.5" y="-18.5" font-family="Helvetica,sans-Serif" font-size="10.00">iop/system/threadman</text>
<text text-anchor="middle" x="2256" y="-7.5" font-family="Helvetica,sans-Serif" font-size="10.00">/src/thevent.c</text>
</a>
</g>
</g>
<!-- Node1&#45;&gt;Node18 -->
<g id="edge17" class="edge">
<title>Node1&#45;&gt;Node18</title>
<path fill="none" stroke="midnightblue" d="M1628.88,-78.84C1740.32,-73.51 1981.99,-59.51 2184,-31 2186.78,-30.61 2189.61,-30.18 2192.47,-29.71"/>
<polygon fill="midnightblue" stroke="midnightblue" points="1628.65,-75.34 1618.82,-79.31 1628.98,-82.34 1628.65,-75.34"/>
</g>
<!-- Node19 -->
<g id="node19" class="node">
<title>Node19</title>
<g id="a_node19"><a xlink:href="thfpool_8c_source.html" target="_top" xlink:title=" ">
<polygon fill="white" stroke="black" points="2337.5,-0.5 2337.5,-30.5 2464.5,-30.5 2464.5,-0.5 2337.5,-0.5"/>
<text text-anchor="start" x="2345.5" y="-18.5" font-family="Helvetica,sans-Serif" font-size="10.00">iop/system/threadman</text>
<text text-anchor="middle" x="2401" y="-7.5" font-family="Helvetica,sans-Serif" font-size="10.00">/src/thfpool.c</text>
</a>
</g>
</g>
<!-- Node1&#45;&gt;Node19 -->
<g id="edge18" class="edge">
<title>Node1&#45;&gt;Node19</title>
<path fill="none" stroke="midnightblue" d="M1628.68,-80.18C1758.69,-76.8 2070.21,-65.48 2329,-31 2331.78,-30.63 2334.62,-30.22 2337.47,-29.77"/>
<polygon fill="midnightblue" stroke="midnightblue" points="1628.43,-76.69 1618.52,-80.44 1628.6,-83.68 1628.43,-76.69"/>
</g>
<!-- Node20 -->
<g id="node20" class="node">
<title>Node20</title>
<g id="a_node20"><a xlink:href="thmsgbx_8c_source.html" target="_top" xlink:title=" ">
<polygon fill="white" stroke="black" points="2482.5,-0.5 2482.5,-30.5 2609.5,-30.5 2609.5,-0.5 2482.5,-0.5"/>
<text text-anchor="start" x="2490.5" y="-18.5" font-family="Helvetica,sans-Serif" font-size="10.00">iop/system/threadman</text>
<text text-anchor="middle" x="2546" y="-7.5" font-family="Helvetica,sans-Serif" font-size="10.00">/src/thmsgbx.c</text>
</a>
</g>
</g>
<!-- Node1&#45;&gt;Node20 -->
<g id="edge19" class="edge">
<title>Node1&#45;&gt;Node20</title>
<path fill="none" stroke="midnightblue" d="M1628.81,-81.1C1775.87,-79.49 2157.96,-71.41 2474,-31 2476.78,-30.64 2479.62,-30.24 2482.48,-29.81"/>
<polygon fill="midnightblue" stroke="midnightblue" points="1628.59,-77.6 1618.63,-81.21 1628.66,-84.6 1628.59,-77.6"/>
</g>
<!-- Node21 -->
<g id="node21" class="node">
<title>Node21</title>
<g id="a_node21"><a xlink:href="thsemap_8c_source.html" target="_top" xlink:title=" ">
<polygon fill="white" stroke="black" points="2627.5,-0.5 2627.5,-30.5 2754.5,-30.5 2754.5,-0.5 2627.5,-0.5"/>
<text text-anchor="start" x="2635.5" y="-18.5" font-family="Helvetica,sans-Serif" font-size="10.00">iop/system/threadman</text>
<text text-anchor="middle" x="2691" y="-7.5" font-family="Helvetica,sans-Serif" font-size="10.00">/src/thsemap.c</text>
</a>
</g>
</g>
<!-- Node1&#45;&gt;Node21 -->
<g id="edge20" class="edge">
<title>Node1&#45;&gt;Node21</title>
<path fill="none" stroke="midnightblue" d="M1628.99,-81.78C1791.89,-81.8 2245.23,-77.34 2619,-31 2621.78,-30.65 2624.62,-30.26 2627.48,-29.83"/>
<polygon fill="midnightblue" stroke="midnightblue" points="1628.69,-78.28 1618.68,-81.77 1628.68,-85.28 1628.69,-78.28"/>
</g>
<!-- Node22 -->
<g id="node22" class="node">
<title>Node22</title>
<g id="a_node22"><a xlink:href="thvpool_8c_source.html" target="_top" xlink:title=" ">
<polygon fill="white" stroke="black" points="2772.5,-0.5 2772.5,-30.5 2899.5,-30.5 2899.5,-0.5 2772.5,-0.5"/>
<text text-anchor="start" x="2780.5" y="-18.5" font-family="Helvetica,sans-Serif" font-size="10.00">iop/system/threadman</text>
<text text-anchor="middle" x="2836" y="-7.5" font-family="Helvetica,sans-Serif" font-size="10.00">/src/thvpool.c</text>
</a>
</g>
</g>
<!-- Node1&#45;&gt;Node22 -->
<g id="edge21" class="edge">
<title>Node1&#45;&gt;Node22</title>
<path fill="none" stroke="midnightblue" d="M1628.59,-80.18C1840.79,-75.42 2540.77,-58.02 2764,-31 2766.78,-30.66 2769.62,-30.28 2772.48,-29.85"/>
<polygon fill="midnightblue" stroke="midnightblue" points="1628.48,-76.68 1618.56,-80.4 1628.63,-83.68 1628.48,-76.68"/>
</g>
<!-- Node23 -->
<g id="node23" class="node">
<title>Node23</title>
<g id="a_node23"><a xlink:href="timrman_8c_source.html" target="_top" xlink:title=" ">
<polygon fill="white" stroke="black" points="2918,-0.5 2918,-30.5 3034,-30.5 3034,-0.5 2918,-0.5"/>
<text text-anchor="start" x="2926" y="-18.5" font-family="Helvetica,sans-Serif" font-size="10.00">iop/system/timrman</text>
<text text-anchor="middle" x="2976" y="-7.5" font-family="Helvetica,sans-Serif" font-size="10.00">/src/timrman.c</text>
</a>
</g>
</g>
<!-- Node1&#45;&gt;Node23 -->
<g id="edge22" class="edge">
<title>Node1&#45;&gt;Node23</title>
<path fill="none" stroke="midnightblue" d="M1628.63,-80.62C1857.21,-77.12 2656.26,-62.85 2909,-31 2911.83,-30.64 2914.73,-30.23 2917.64,-29.76"/>
<polygon fill="midnightblue" stroke="midnightblue" points="1628.45,-77.12 1618.5,-80.77 1628.55,-84.12 1628.45,-77.12"/>
</g>
<!-- Node24 -->
<g id="node24" class="node">
<title>Node24</title>
<g id="a_node24"><a xlink:href="vblank_8c_source.html" target="_top" xlink:title=" ">
<polygon fill="white" stroke="black" points="3052,-0.5 3052,-30.5 3176,-30.5 3176,-0.5 3052,-0.5"/>
<text text-anchor="start" x="3060" y="-18.5" font-family="Helvetica,sans-Serif" font-size="10.00">iop/system/vblank/src</text>
<text text-anchor="middle" x="3114" y="-7.5" font-family="Helvetica,sans-Serif" font-size="10.00">/vblank.c</text>
</a>
</g>
</g>
<!-- Node1&#45;&gt;Node24 -->
<g id="edge23" class="edge">
<title>Node1&#45;&gt;Node24</title>
<path fill="none" stroke="midnightblue" d="M1628.63,-80.77C1871.45,-77.66 2762.49,-64.21 3043,-31 3045.87,-30.66 3048.8,-30.26 3051.76,-29.82"/>
<polygon fill="midnightblue" stroke="midnightblue" points="1628.52,-77.27 1618.57,-80.89 1628.61,-84.27 1628.52,-77.27"/>
</g>
</g>
</svg>
        <g id="navigator" transform="translate(0 0)" fill="#404254">
                <rect fill="#f2f5e9" fill-opacity="0.5" stroke="#606060" stroke-width=".5" x="0" y="0" width="60" height="60"/>
                <use id="zoomplus" xlink:href="#zoomPlus" x="17" y="9" onmousedown="handleZoom(evt,'in')"/>
                <use id="zoomminus" xlink:href="#zoomMin" x="42" y="9" onmousedown="handleZoom(evt,'out')"/>
                <use id="reset" xlink:href="#resetDef" x="30" y="36" onmousedown="handleReset()"/>
                <g id="arrowUp" xlink:href="#dirArrow" transform="translate(30 24)" onmousedown="handlePan(0,-1)">
                  <use xlink:href="#rim" fill="#404040">
                        <set attributeName="fill" to="#808080" begin="arrowUp.mouseover" end="arrowUp.mouseout"/>
                  </use>
                  <path fill="none" stroke="white" stroke-width="1.5" d="M0,-3.0v7 M-2.5,-0.5L0,-3.0L2.5,-0.5"/>
                </g>
                <g id="arrowRight" xlink:href="#dirArrow" transform="rotate(90) translate(36 -43)" onmousedown="handlePan(1,0)">
                  <use xlink:href="#rim" fill="#404040">
                        <set attributeName="fill" to="#808080" begin="arrowRight.mouseover" end="arrowRight.mouseout"/>
                  </use>
                  <path fill="none" stroke="white" stroke-width="1.5" d="M0,-3.0v7 M-2.5,-0.5L0,-3.0L2.5,-0.5"/>
                </g>
                <g id="arrowDown" xlink:href="#dirArrow" transform="rotate(180) translate(-30 -48)" onmousedown="handlePan(0,1)">
                  <use xlink:href="#rim" fill="#404040">
                        <set attributeName="fill" to="#808080" begin="arrowDown.mouseover" end="arrowDown.mouseout"/>
                  </use>
                  <path fill="none" stroke="white" stroke-width="1.5" d="M0,-3.0v7 M-2.5,-0.5L0,-3.0L2.5,-0.5"/>
                </g>
                <g id="arrowLeft" xlink:href="#dirArrow" transform="rotate(270) translate(-36 17)" onmousedown="handlePan(-1,0)">
                  <use xlink:href="#rim" fill="#404040">
                        <set attributeName="fill" to="#808080" begin="arrowLeft.mouseover" end="arrowLeft.mouseout"/>
                  </use>
                  <path fill="none" stroke="white" stroke-width="1.5" d="M0,-3.0v7 M-2.5,-0.5L0,-3.0L2.5,-0.5"/>
                </g>
        </g>
        <svg viewBox="0 0 15 15" width="100%" height="30px" preserveAspectRatio="xMaxYMin meet">
         <g id="arrow_out" transform="scale(0.3 0.3)">
          <a xlink:href="kerr_8h__dep__incl_org.svg" target="_base">
           <rect id="button" ry="5" rx="5" y="6" x="6" height="38" width="38"
                fill="#f2f5e9" fill-opacity="0.5" stroke="#606060" stroke-width="1.0"/>
           <path id="arrow"
             d="M 11.500037,31.436501 C 11.940474,20.09759 22.043105,11.32322 32.158766,21.979434 L 37.068811,17.246167 C 37.068811,17.246167 37.088388,32 37.088388,32 L 22.160133,31.978069 C 22.160133,31.978069 26.997745,27.140456 26.997745,27.140456 C 18.528582,18.264221 13.291696,25.230495 11.500037,31.436501 z"
             style="fill:#404040;"/>
          </a>
         </g>
        </svg>
</svg>
