<?xml version="1.0" encoding="UTF-8" standalone="no"?>
<!DOCTYPE svg PUBLIC "-//W3C//DTD SVG 1.1//EN"
 "http://www.w3.org/Graphics/SVG/1.1/DTD/svg11.dtd">
<!-- Generated by graphviz version 9.0.0 (20230911.1827)
 -->
<!-- Title: ee/rpc/cdvd/include/libcdvd.h Pages: 1 -->
<svg width="1276pt" height="172pt"
 viewBox="0.00 0.00 1275.50 171.50" xmlns="http://www.w3.org/2000/svg" xmlns:xlink="http://www.w3.org/1999/xlink">
<g id="graph0" class="graph" transform="scale(1 1) rotate(0) translate(4 167.5)">
<title>ee/rpc/cdvd/include/libcdvd.h</title>
<!-- Node1 -->
<g id="Node000001" class="node">
<title>Node1</title>
<g id="a_Node000001"><a xlink:title=" ">
<polygon fill="#999999" stroke="#666666" points="1074.88,-163.5 974.12,-163.5 974.12,-133 1074.88,-133 1074.88,-163.5"/>
<text text-anchor="start" x="982.12" y="-150" font-family="Helvetica,sans-Serif" font-size="10.00">ee/rpc/cdvd/include</text>
<text text-anchor="middle" x="1024.5" y="-138.75" font-family="Helvetica,sans-Serif" font-size="10.00">/libcdvd.h</text>
</a>
</g>
</g>
<!-- Node2 -->
<g id="Node000002" class="node">
<title>Node2</title>
<g id="a_Node000002"><a xlink:href="osd__config_8h.html" target="_top" xlink:title=" ">
<polygon fill="white" stroke="#666666" points="733.62,-97 625.38,-97 625.38,-66.5 733.62,-66.5 733.62,-97"/>
<text text-anchor="start" x="633.38" y="-83.5" font-family="Helvetica,sans-Serif" font-size="10.00">ee/kernel/include/osd</text>
<text text-anchor="middle" x="679.5" y="-72.25" font-family="Helvetica,sans-Serif" font-size="10.00">_config.h</text>
</a>
</g>
</g>
<!-- Node1&#45;&gt;Node2 -->
<g id="edge1_Node000001_Node000002" class="edge">
<title>Node1&#45;&gt;Node2</title>
<g id="a_edge1_Node000001_Node000002"><a xlink:title=" ">
<path fill="none" stroke="#63b8ff" d="M963.05,-135.76C897.95,-123.59 796.15,-104.56 733.87,-92.92"/>
<polygon fill="#63b8ff" stroke="#63b8ff" points="962,-139.13 972.48,-137.52 963.29,-132.25 962,-139.13"/>
</a>
</g>
</g>
<!-- Node12 -->
<g id="Node000012" class="node">
<title>Node12</title>
<g id="a_Node000012"><a xlink:href="scmd_8c.html" target="_top" xlink:title=" ">
<polygon fill="white" stroke="#666666" points="1256.5,-24.88 1138.5,-24.88 1138.5,-5.63 1256.5,-5.63 1256.5,-24.88"/>
<text text-anchor="middle" x="1197.5" y="-11.38" font-family="Helvetica,sans-Serif" font-size="10.00">ee/rpc/cdvd/src/scmd.c</text>
</a>
</g>
</g>
<!-- Node1&#45;&gt;Node12 -->
<g id="edge14_Node000001_Node000012" class="edge">
<title>Node1&#45;&gt;Node12</title>
<g id="a_edge14_Node000001_Node000012"><a xlink:title=" ">
<path fill="none" stroke="#63b8ff" d="M1006,-123.33C995.07,-106.08 985.64,-83.01 998.5,-66.5 1003.41,-60.19 1099.27,-38.03 1156.13,-25.34"/>
<polygon fill="#63b8ff" stroke="#63b8ff" points="1003.05,-125.22 1011.6,-131.47 1008.82,-121.25 1003.05,-125.22"/>
</a>
</g>
</g>
<!-- Node13 -->
<g id="Node000013" class="node">
<title>Node13</title>
<g id="a_Node000013"><a xlink:href="libcdvd_8c.html" target="_top" xlink:title=" ">
<polygon fill="white" stroke="#666666" points="1131.88,-91.38 1007.12,-91.38 1007.12,-72.12 1131.88,-72.12 1131.88,-91.38"/>
<text text-anchor="middle" x="1069.5" y="-77.88" font-family="Helvetica,sans-Serif" font-size="10.00">ee/rpc/cdvd/src/libcdvd.c</text>
</a>
</g>
</g>
<!-- Node1&#45;&gt;Node13 -->
<g id="edge12_Node000001_Node000013" class="edge">
<title>Node1&#45;&gt;Node13</title>
<g id="a_edge12_Node000001_Node000013"><a xlink:title=" ">
<path fill="none" stroke="#63b8ff" d="M1041.16,-123.37C1048.91,-112.27 1057.65,-99.74 1063.34,-91.57"/>
<polygon fill="#63b8ff" stroke="#63b8ff" points="1038.43,-121.17 1035.58,-131.37 1044.17,-125.17 1038.43,-121.17"/>
</a>
</g>
</g>
<!-- Node14 -->
<g id="Node000014" class="node">
<title>Node14</title>
<g id="a_Node000014"><a xlink:href="ncmd_8c.html" target="_top" xlink:title=" ">
<polygon fill="white" stroke="#666666" points="1267.5,-91.38 1149.5,-91.38 1149.5,-72.12 1267.5,-72.12 1267.5,-91.38"/>
<text text-anchor="middle" x="1208.5" y="-77.88" font-family="Helvetica,sans-Serif" font-size="10.00">ee/rpc/cdvd/src/ncmd.c</text>
</a>
</g>
</g>
<!-- Node1&#45;&gt;Node14 -->
<g id="edge13_Node000001_Node000014" class="edge">
<title>Node1&#45;&gt;Node14</title>
<g id="a_edge13_Node000001_Node000014"><a xlink:title=" ">
<path fill="none" stroke="#63b8ff" d="M1077.11,-128.81C1111.62,-116.71 1155.26,-101.41 1182.53,-91.85"/>
<polygon fill="#63b8ff" stroke="#63b8ff" points="1075.96,-125.5 1067.68,-132.11 1078.28,-132.11 1075.96,-125.5"/>
</a>
</g>
</g>
<!-- Node3 -->
<g id="Node000003" class="node">
<title>Node3</title>
<g id="a_Node000003"><a xlink:href="graph__mode_8c_source.html" target="_top" xlink:title=" ">
<polygon fill="white" stroke="#666666" points="97,-30.5 0,-30.5 0,0 97,0 97,-30.5"/>
<text text-anchor="start" x="8" y="-17" font-family="Helvetica,sans-Serif" font-size="10.00">ee/graph/src/graph</text>
<text text-anchor="middle" x="48.5" y="-5.75" font-family="Helvetica,sans-Serif" font-size="10.00">_mode.c</text>
</a>
</g>
</g>
<!-- Node2&#45;&gt;Node3 -->
<g id="edge2_Node000002_Node000003" class="edge">
<title>Node2&#45;&gt;Node3</title>
<g id="a_edge2_Node000002_Node000003"><a xlink:title=" ">
<path fill="none" stroke="#63b8ff" d="M613.8,-78.27C506.86,-73.49 288.77,-60.7 106.5,-30.5 103.53,-30.01 100.49,-29.45 97.44,-28.83"/>
<polygon fill="#63b8ff" stroke="#63b8ff" points="613.38,-81.75 623.52,-78.69 613.69,-74.76 613.38,-81.75"/>
</a>
</g>
</g>
<!-- Node4 -->
<g id="Node000004" class="node">
<title>Node4</title>
<g id="a_Node000004"><a xlink:href="libosd_8c.html" target="_top" xlink:title=" ">
<polygon fill="white" stroke="#666666" points="223.62,-24.88 115.38,-24.88 115.38,-5.63 223.62,-5.63 223.62,-24.88"/>
<text text-anchor="middle" x="169.5" y="-11.38" font-family="Helvetica,sans-Serif" font-size="10.00">ee/kernel/src/libosd.c</text>
</a>
</g>
</g>
<!-- Node2&#45;&gt;Node4 -->
<g id="edge3_Node000002_Node000004" class="edge">
<title>Node2&#45;&gt;Node4</title>
<g id="a_edge3_Node000002_Node000004"><a xlink:title=" ">
<path fill="none" stroke="#63b8ff" d="M613.69,-75.55C526.4,-68.15 367.73,-52.94 233.5,-30.5 224.97,-29.07 215.86,-27.24 207.27,-25.36"/>
<polygon fill="#63b8ff" stroke="#63b8ff" points="613.24,-79.03 623.49,-76.37 613.82,-72.05 613.24,-79.03"/>
</a>
</g>
</g>
<!-- Node5 -->
<g id="Node000005" class="node">
<title>Node5</title>
<g id="a_Node000005"><a xlink:href="libosd__common_8c.html" target="_top" xlink:title=" ">
<polygon fill="white" stroke="#666666" points="342.88,-30.5 242.12,-30.5 242.12,0 342.88,0 342.88,-30.5"/>
<text text-anchor="start" x="250.12" y="-17" font-family="Helvetica,sans-Serif" font-size="10.00">ee/kernel/src/libosd</text>
<text text-anchor="middle" x="292.5" y="-5.75" font-family="Helvetica,sans-Serif" font-size="10.00">_common.c</text>
</a>
</g>
</g>
<!-- Node2&#45;&gt;Node5 -->
<g id="edge4_Node000002_Node000005" class="edge">
<title>Node2&#45;&gt;Node5</title>
<g id="a_edge4_Node000002_Node000005"><a xlink:title=" ">
<path fill="none" stroke="#63b8ff" d="M613.79,-72.24C547.56,-63.29 442.56,-48.08 352.5,-30.5 349.45,-29.9 346.33,-29.26 343.18,-28.59"/>
<polygon fill="#63b8ff" stroke="#63b8ff" points="613,-75.67 623.38,-73.53 613.93,-68.73 613,-75.67"/>
</a>
</g>
</g>
<!-- Node6 -->
<g id="Node000006" class="node">
<title>Node6</title>
<g id="a_Node000006"><a xlink:href="libosd__full_8c.html" target="_top" xlink:title=" ">
<polygon fill="white" stroke="#666666" points="461.88,-30.5 361.12,-30.5 361.12,0 461.88,0 461.88,-30.5"/>
<text text-anchor="start" x="369.12" y="-17" font-family="Helvetica,sans-Serif" font-size="10.00">ee/kernel/src/libosd</text>
<text text-anchor="middle" x="411.5" y="-5.75" font-family="Helvetica,sans-Serif" font-size="10.00">_full.c</text>
</a>
</g>
</g>
<!-- Node2&#45;&gt;Node6 -->
<g id="edge5_Node000002_Node000006" class="edge">
<title>Node2&#45;&gt;Node6</title>
<g id="a_edge5_Node000002_Node000006"><a xlink:title=" ">
<path fill="none" stroke="#63b8ff" d="M613.94,-65.01C572.76,-55.11 518.52,-42.07 470.5,-30.5 467.84,-29.86 465.11,-29.2 462.35,-28.53"/>
<polygon fill="#63b8ff" stroke="#63b8ff" points="612.92,-68.36 623.46,-67.29 614.55,-61.55 612.92,-68.36"/>
</a>
</g>
</g>
<!-- Node7 -->
<g id="Node000007" class="node">
<title>Node7</title>
<g id="a_Node000007"><a xlink:href="osd__config_8c.html" target="_top" xlink:title=" ">
<polygon fill="white" stroke="#666666" points="609.12,-24.88 479.88,-24.88 479.88,-5.63 609.12,-5.63 609.12,-24.88"/>
<text text-anchor="middle" x="544.5" y="-11.38" font-family="Helvetica,sans-Serif" font-size="10.00">ee/kernel/src/osd_config.c</text>
</a>
</g>
</g>
<!-- Node2&#45;&gt;Node7 -->
<g id="edge6_Node000002_Node000007" class="edge">
<title>Node2&#45;&gt;Node7</title>
<g id="a_edge6_Node000002_Node000007"><a xlink:title=" ">
<path fill="none" stroke="#63b8ff" d="M638.55,-61.19C613.54,-49.24 582.74,-34.52 563.36,-25.26"/>
<polygon fill="#63b8ff" stroke="#63b8ff" points="636.97,-64.31 647.5,-65.46 639.99,-57.99 636.97,-64.31"/>
</a>
</g>
</g>
<!-- Node8 -->
<g id="Node000008" class="node">
<title>Node8</title>
<g id="a_Node000008"><a xlink:href="osd_8c_source.html" target="_top" xlink:title=" ">
<polygon fill="white" stroke="#666666" points="731.75,-30.5 627.25,-30.5 627.25,0 731.75,0 731.75,-30.5"/>
<text text-anchor="start" x="635.25" y="-17" font-family="Helvetica,sans-Serif" font-size="10.00">ee/kernel/src/osdsrc</text>
<text text-anchor="middle" x="679.5" y="-5.75" font-family="Helvetica,sans-Serif" font-size="10.00">/src/osd.c</text>
</a>
</g>
</g>
<!-- Node2&#45;&gt;Node8 -->
<g id="edge7_Node000002_Node000008" class="edge">
<title>Node2&#45;&gt;Node8</title>
<g id="a_edge7_Node000002_Node000008"><a xlink:title=" ">
<path fill="none" stroke="#63b8ff" d="M679.5,-54.81C679.5,-46.64 679.5,-37.91 679.5,-30.83"/>
<polygon fill="#63b8ff" stroke="#63b8ff" points="676,-54.6 679.5,-64.6 683,-54.6 676,-54.6"/>
</a>
</g>
</g>
<!-- Node9 -->
<g id="Node000009" class="node">
<title>Node9</title>
<g id="a_Node000009"><a xlink:href="osdsrc_8c_source.html" target="_top" xlink:title=" ">
<polygon fill="white" stroke="#666666" points="854.75,-30.5 750.25,-30.5 750.25,0 854.75,0 854.75,-30.5"/>
<text text-anchor="start" x="758.25" y="-17" font-family="Helvetica,sans-Serif" font-size="10.00">ee/kernel/src/osdsrc</text>
<text text-anchor="middle" x="802.5" y="-5.75" font-family="Helvetica,sans-Serif" font-size="10.00">/src/osdsrc.c</text>
</a>
</g>
</g>
<!-- Node2&#45;&gt;Node9 -->
<g id="edge8_Node000002_Node000009" class="edge">
<title>Node2&#45;&gt;Node9</title>
<g id="a_edge8_Node000002_Node000009"><a xlink:title=" ">
<path fill="none" stroke="#63b8ff" d="M717.56,-60.79C736.03,-51.11 757.82,-39.68 774.7,-30.83"/>
<polygon fill="#63b8ff" stroke="#63b8ff" points="715.98,-57.67 708.75,-65.41 719.23,-63.87 715.98,-57.67"/>
</a>
</g>
</g>
<!-- Node10 -->
<g id="Node000010" class="node">
<title>Node10</title>
<g id="a_Node000010"><a xlink:href="rtc_8c.html" target="_top" xlink:title=" ">
<polygon fill="white" stroke="#666666" points="973.88,-24.88 873.12,-24.88 873.12,-5.63 973.88,-5.63 973.88,-24.88"/>
<text text-anchor="middle" x="923.5" y="-11.38" font-family="Helvetica,sans-Serif" font-size="10.00">ee/libcglue/src/rtc.c</text>
</a>
</g>
</g>
<!-- Node2&#45;&gt;Node10 -->
<g id="edge9_Node000002_Node000010" class="edge">
<title>Node2&#45;&gt;Node10</title>
<g id="a_edge9_Node000002_Node000010"><a xlink:title=" ">
<path fill="none" stroke="#63b8ff" d="M744.83,-63.48C791.28,-51.2 851.82,-35.2 889.15,-25.33"/>
<polygon fill="#63b8ff" stroke="#63b8ff" points="744.19,-60.03 735.42,-65.97 745.98,-66.8 744.19,-60.03"/>
</a>
</g>
</g>
<!-- Node11 -->
<g id="Node000011" class="node">
<title>Node11</title>
<g id="a_Node000011"><a xlink:href="timezone_8c.html" target="_top" xlink:title=" ">
<polygon fill="white" stroke="#666666" points="1120.75,-24.88 992.25,-24.88 992.25,-5.63 1120.75,-5.63 1120.75,-24.88"/>
<text text-anchor="middle" x="1056.5" y="-11.38" font-family="Helvetica,sans-Serif" font-size="10.00">ee/libcglue/src/timezone.c</text>
</a>
</g>
</g>
<!-- Node2&#45;&gt;Node11 -->
<g id="edge10_Node000002_Node000011" class="edge">
<title>Node2&#45;&gt;Node11</title>
<g id="a_edge10_Node000002_Node000011"><a xlink:title=" ">
<path fill="none" stroke="#63b8ff" d="M745.11,-70.37C806.54,-60.54 900.85,-45.13 982.5,-30.5 991.51,-28.88 1001.13,-27.09 1010.35,-25.33"/>
<polygon fill="#63b8ff" stroke="#63b8ff" points="744.85,-66.87 735.53,-71.9 745.96,-73.78 744.85,-66.87"/>
</a>
</g>
</g>
<!-- Node2&#45;&gt;Node12 -->
<g id="edge11_Node000002_Node000012" class="edge">
<title>Node2&#45;&gt;Node12</title>
<g id="a_edge11_Node000002_Node000012"><a xlink:title=" ">
<path fill="none" stroke="#63b8ff" d="M745.5,-75.37C833.44,-67.74 993.74,-52.25 1129.5,-30.5 1138.55,-29.05 1148.22,-27.2 1157.35,-25.33"/>
<polygon fill="#63b8ff" stroke="#63b8ff" points="745.27,-71.87 735.61,-76.22 745.87,-78.85 745.27,-71.87"/>
</a>
</g>
</g>
</g>
</svg>
