<?xml version="1.0" encoding="UTF-8" standalone="no"?>
<!DOCTYPE svg PUBLIC "-//W3C//DTD SVG 1.1//EN"
 "http://www.w3.org/Graphics/SVG/1.1/DTD/svg11.dtd">
<!-- Generated by graphviz version 9.0.0 (20230911.1827)
 -->
<!-- Title: ee/rpc/cdvd/src/libcdvd.c Pages: 1 -->
<svg width="575pt" height="304pt"
 viewBox="0.00 0.00 574.75 303.50" xmlns="http://www.w3.org/2000/svg" xmlns:xlink="http://www.w3.org/1999/xlink">
<g id="graph0" class="graph" transform="scale(1 1) rotate(0) translate(4 299.5)">
<title>ee/rpc/cdvd/src/libcdvd.c</title>
<!-- Node1 -->
<g id="Node000001" class="node">
<title>Node1</title>
<g id="a_Node000001"><a xlink:title=" ">
<polygon fill="#999999" stroke="#666666" points="385.62,-295.5 260.88,-295.5 260.88,-276.25 385.62,-276.25 385.62,-295.5"/>
<text text-anchor="middle" x="323.25" y="-282" font-family="Helvetica,sans-Serif" font-size="10.00">ee/rpc/cdvd/src/libcdvd.c</text>
</a>
</g>
</g>
<!-- Node2 -->
<g id="Node000002" class="node">
<title>Node2</title>
<g id="a_Node000002"><a xlink:href="stdio_8h.html" target="_top" xlink:title=" ">
<polygon fill="white" stroke="#666666" points="125.5,-185 81,-185 81,-165.75 125.5,-165.75 125.5,-185"/>
<text text-anchor="middle" x="103.25" y="-171.5" font-family="Helvetica,sans-Serif" font-size="10.00">stdio.h</text>
</a>
</g>
</g>
<!-- Node1&#45;&gt;Node2 -->
<g id="edge1_Node000001_Node000002" class="edge">
<title>Node1&#45;&gt;Node2</title>
<g id="a_edge1_Node000001_Node000002"><a xlink:title=" ">
<path fill="none" stroke="#63b8ff" d="M296.44,-275.83C272.99,-267.58 238.23,-254.53 209.25,-240.25 179.44,-225.56 146.95,-205.3 125.91,-191.57"/>
<polygon fill="#63b8ff" stroke="#63b8ff" points="128.1,-188.82 117.82,-186.24 124.24,-194.66 128.1,-188.82"/>
</a>
</g>
</g>
<!-- Node3 -->
<g id="Node000003" class="node">
<title>Node3</title>
<g id="a_Node000003"><a xlink:title=" ">
<polygon fill="#e0e0e0" stroke="#999999" points="50.5,-129.75 0,-129.75 0,-110.5 50.5,-110.5 50.5,-129.75"/>
<text text-anchor="middle" x="25.25" y="-116.25" font-family="Helvetica,sans-Serif" font-size="10.00">stdarg.h</text>
</a>
</g>
</g>
<!-- Node1&#45;&gt;Node3 -->
<g id="edge25_Node000001_Node000003" class="edge">
<title>Node1&#45;&gt;Node3</title>
<g id="a_edge25_Node000001_Node000003"><a xlink:title=" ">
<path fill="none" stroke="#63b8ff" d="M275.2,-275.86C220.59,-263.51 131.39,-236.71 72.25,-185 57.37,-171.98 44.39,-153.47 35.87,-139.72"/>
<polygon fill="#63b8ff" stroke="#63b8ff" points="38.93,-138.02 30.81,-131.22 32.91,-141.6 38.93,-138.02"/>
</a>
</g>
</g>
<!-- Node7 -->
<g id="Node000007" class="node">
<title>Node7</title>
<g id="a_Node000007"><a xlink:href="tamtypes_8h.html" target="_top" xlink:title=" ">
<polygon fill="white" stroke="#666666" points="323.88,-19.25 260.62,-19.25 260.62,0 323.88,0 323.88,-19.25"/>
<text text-anchor="middle" x="292.25" y="-5.75" font-family="Helvetica,sans-Serif" font-size="10.00">tamtypes.h</text>
</a>
</g>
</g>
<!-- Node1&#45;&gt;Node7 -->
<g id="edge7_Node000001_Node000007" class="edge">
<title>Node1&#45;&gt;Node7</title>
<g id="a_edge7_Node000001_Node000007"><a xlink:title=" ">
<path fill="none" stroke="#63b8ff" d="M326.45,-276.01C332.77,-257.67 346.25,-214.12 346.25,-176.38 346.25,-176.38 346.25,-176.38 346.25,-119.12 346.25,-89.51 340.85,-81.56 327.25,-55.25 322.24,-45.55 315,-35.88 308.4,-28.03"/>
<polygon fill="#63b8ff" stroke="#63b8ff" points="311.11,-25.81 301.87,-20.62 305.86,-30.44 311.11,-25.81"/>
</a>
</g>
</g>
<!-- Node8 -->
<g id="Node000008" class="node">
<title>Node8</title>
<g id="a_Node000008"><a xlink:href="kernel_8h.html" target="_top" xlink:title=" ">
<polygon fill="white" stroke="#666666" points="193.12,-185 143.38,-185 143.38,-165.75 193.12,-165.75 193.12,-185"/>
<text text-anchor="middle" x="168.25" y="-171.5" font-family="Helvetica,sans-Serif" font-size="10.00">kernel.h</text>
</a>
</g>
</g>
<!-- Node1&#45;&gt;Node8 -->
<g id="edge8_Node000001_Node000008" class="edge">
<title>Node1&#45;&gt;Node8</title>
<g id="a_edge8_Node000001_Node000008"><a xlink:title=" ">
<path fill="none" stroke="#63b8ff" d="M301.56,-275.8C283.35,-267.72 257.06,-254.92 236.25,-240.25 216.7,-226.47 197.08,-207.34 183.98,-193.61"/>
<polygon fill="#63b8ff" stroke="#63b8ff" points="186.79,-191.5 177.4,-186.59 181.68,-196.28 186.79,-191.5"/>
</a>
</g>
</g>
<!-- Node10 -->
<g id="Node000010" class="node">
<title>Node10</title>
<g id="a_Node000010"><a xlink:title=" ">
<polygon fill="#e0e0e0" stroke="#999999" points="494,-240.25 446.5,-240.25 446.5,-221 494,-221 494,-240.25"/>
<text text-anchor="middle" x="470.25" y="-226.75" font-family="Helvetica,sans-Serif" font-size="10.00">sifrpc.h</text>
</a>
</g>
</g>
<!-- Node1&#45;&gt;Node10 -->
<g id="edge13_Node000001_Node000010" class="edge">
<title>Node1&#45;&gt;Node10</title>
<g id="a_edge13_Node000001_Node000010"><a xlink:title=" ">
<path fill="none" stroke="#63b8ff" d="M348.19,-275.84C372.23,-267.13 408.83,-253.87 435.68,-244.15"/>
<polygon fill="#63b8ff" stroke="#63b8ff" points="436.54,-247.56 444.75,-240.86 434.15,-240.98 436.54,-247.56"/>
</a>
</g>
</g>
<!-- Node11 -->
<g id="Node000011" class="node">
<title>Node11</title>
<g id="a_Node000011"><a xlink:href="string_8h_source.html" target="_top" xlink:title=" ">
<polygon fill="white" stroke="#666666" points="293,-240.25 245.5,-240.25 245.5,-221 293,-221 293,-240.25"/>
<text text-anchor="middle" x="269.25" y="-226.75" font-family="Helvetica,sans-Serif" font-size="10.00">string.h</text>
</a>
</g>
</g>
<!-- Node1&#45;&gt;Node11 -->
<g id="edge14_Node000001_Node000011" class="edge">
<title>Node1&#45;&gt;Node11</title>
<g id="a_edge14_Node000001_Node000011"><a xlink:title=" ">
<path fill="none" stroke="#63b8ff" d="M314.33,-276.08C306.8,-268.65 295.78,-257.79 286.52,-248.66"/>
<polygon fill="#63b8ff" stroke="#63b8ff" points="289.02,-246.2 279.44,-241.67 284.1,-251.19 289.02,-246.2"/>
</a>
</g>
</g>
<!-- Node15 -->
<g id="Node000015" class="node">
<title>Node15</title>
<g id="a_Node000015"><a xlink:href="libcdvd_8h.html" target="_top" xlink:title=" ">
<polygon fill="white" stroke="#666666" points="428.38,-240.25 374.12,-240.25 374.12,-221 428.38,-221 428.38,-240.25"/>
<text text-anchor="middle" x="401.25" y="-226.75" font-family="Helvetica,sans-Serif" font-size="10.00">libcdvd.h</text>
</a>
</g>
</g>
<!-- Node1&#45;&gt;Node15 -->
<g id="edge22_Node000001_Node000015" class="edge">
<title>Node1&#45;&gt;Node15</title>
<g id="a_edge22_Node000001_Node000015"><a xlink:title=" ">
<path fill="none" stroke="#63b8ff" d="M336.48,-275.84C348.02,-267.96 365.02,-256.36 378.7,-247.02"/>
<polygon fill="#63b8ff" stroke="#63b8ff" points="380.42,-250.08 386.7,-241.56 376.47,-244.3 380.42,-250.08"/>
</a>
</g>
</g>
<!-- Node17 -->
<g id="Node000017" class="node">
<title>Node17</title>
<g id="a_Node000017"><a xlink:href="ee_2rpc_2cdvd_2src_2internal_8h.html" target="_top" xlink:title=" ">
<polygon fill="white" stroke="#666666" points="566.75,-240.25 511.75,-240.25 511.75,-221 566.75,-221 566.75,-240.25"/>
<text text-anchor="middle" x="539.25" y="-226.75" font-family="Helvetica,sans-Serif" font-size="10.00">internal.h</text>
</a>
</g>
</g>
<!-- Node1&#45;&gt;Node17 -->
<g id="edge26_Node000001_Node000017" class="edge">
<title>Node1&#45;&gt;Node17</title>
<g id="a_edge26_Node000001_Node000017"><a xlink:title=" ">
<path fill="none" stroke="#63b8ff" d="M359.89,-275.84C398.89,-266.23 460.36,-251.07 500.24,-241.24"/>
<polygon fill="#63b8ff" stroke="#63b8ff" points="501.04,-244.65 509.91,-238.86 499.36,-237.85 501.04,-244.65"/>
</a>
</g>
</g>
<!-- Node2&#45;&gt;Node3 -->
<g id="edge2_Node000002_Node000003" class="edge">
<title>Node2&#45;&gt;Node3</title>
<g id="a_edge2_Node000002_Node000003"><a xlink:title=" ">
<path fill="none" stroke="#63b8ff" d="M90.02,-165.34C78.48,-157.46 61.48,-145.86 47.8,-136.52"/>
<polygon fill="#63b8ff" stroke="#63b8ff" points="50.03,-133.8 39.8,-131.06 46.08,-139.58 50.03,-133.8"/>
</a>
</g>
</g>
<!-- Node4 -->
<g id="Node000004" class="node">
<title>Node4</title>
<g id="a_Node000004"><a xlink:href="irx_8h.html" target="_top" xlink:title=" ">
<polygon fill="white" stroke="#666666" points="139.88,-129.75 106.62,-129.75 106.62,-110.5 139.88,-110.5 139.88,-129.75"/>
<text text-anchor="middle" x="123.25" y="-116.25" font-family="Helvetica,sans-Serif" font-size="10.00">irx.h</text>
</a>
</g>
</g>
<!-- Node2&#45;&gt;Node4 -->
<g id="edge3_Node000002_Node000004" class="edge">
<title>Node2&#45;&gt;Node4</title>
<g id="a_edge3_Node000002_Node000004"><a xlink:title=" ">
<path fill="none" stroke="#63b8ff" d="M106.55,-165.58C109.08,-158.84 112.68,-149.27 115.88,-140.74"/>
<polygon fill="#63b8ff" stroke="#63b8ff" points="119.1,-142.12 119.34,-131.53 112.55,-139.66 119.1,-142.12"/>
</a>
</g>
</g>
<!-- Node5 -->
<g id="Node000005" class="node">
<title>Node5</title>
<g id="a_Node000005"><a xlink:href="iop_2kernel_2include_2types_8h_source.html" target="_top" xlink:title=" ">
<polygon fill="white" stroke="#666666" points="158.62,-74.5 111.88,-74.5 111.88,-55.25 158.62,-55.25 158.62,-74.5"/>
<text text-anchor="middle" x="135.25" y="-61" font-family="Helvetica,sans-Serif" font-size="10.00">types.h</text>
</a>
</g>
</g>
<!-- Node4&#45;&gt;Node5 -->
<g id="edge4_Node000004_Node000005" class="edge">
<title>Node4&#45;&gt;Node5</title>
<g id="a_edge4_Node000004_Node000005"><a xlink:title=" ">
<path fill="none" stroke="#63b8ff" d="M125.23,-110.33C126.72,-103.74 128.81,-94.46 130.7,-86.07"/>
<polygon fill="#63b8ff" stroke="#63b8ff" points="134.11,-86.86 132.89,-76.34 127.28,-85.32 134.11,-86.86"/>
</a>
</g>
</g>
<!-- Node6 -->
<g id="Node000006" class="node">
<title>Node6</title>
<g id="a_Node000006"><a xlink:title=" ">
<polygon fill="#e0e0e0" stroke="#999999" points="132.5,-19.25 82,-19.25 82,0 132.5,0 132.5,-19.25"/>
<text text-anchor="middle" x="107.25" y="-5.75" font-family="Helvetica,sans-Serif" font-size="10.00">stddef.h</text>
</a>
</g>
</g>
<!-- Node5&#45;&gt;Node6 -->
<g id="edge5_Node000005_Node000006" class="edge">
<title>Node5&#45;&gt;Node6</title>
<g id="a_edge5_Node000005_Node000006"><a xlink:title=" ">
<path fill="none" stroke="#63b8ff" d="M130.63,-55.08C127,-48.19 121.82,-38.34 117.26,-29.66"/>
<polygon fill="#63b8ff" stroke="#63b8ff" points="120.43,-28.17 112.68,-20.95 114.23,-31.43 120.43,-28.17"/>
</a>
</g>
</g>
<!-- Node5&#45;&gt;Node7 -->
<g id="edge6_Node000005_Node000007" class="edge">
<title>Node5&#45;&gt;Node7</title>
<g id="a_edge6_Node000005_Node000007"><a xlink:title=" ">
<path fill="none" stroke="#63b8ff" d="M159.09,-55.79C184.5,-47.17 225.07,-33.41 254.76,-23.34"/>
<polygon fill="#63b8ff" stroke="#63b8ff" points="255.77,-26.69 264.11,-20.17 253.52,-20.07 255.77,-26.69"/>
</a>
</g>
</g>
<!-- Node8&#45;&gt;Node3 -->
<g id="edge10_Node000008_Node000003" class="edge">
<title>Node8&#45;&gt;Node3</title>
<g id="a_edge10_Node000008_Node000003"><a xlink:title=" ">
<path fill="none" stroke="#63b8ff" d="M143.99,-165.34C120.98,-156.77 86.16,-143.81 60.17,-134.13"/>
<polygon fill="#63b8ff" stroke="#63b8ff" points="61.64,-130.94 51.05,-130.73 59.2,-137.5 61.64,-130.94"/>
</a>
</g>
</g>
<!-- Node8&#45;&gt;Node6 -->
<g id="edge9_Node000008_Node000006" class="edge">
<title>Node8&#45;&gt;Node6</title>
<g id="a_edge9_Node000008_Node000006"><a xlink:title=" ">
<path fill="none" stroke="#63b8ff" d="M143.1,-165.88C126.84,-158.93 106.97,-147.34 97.25,-129.75 79.91,-98.37 90.52,-55.1 99.26,-30.28"/>
<polygon fill="#63b8ff" stroke="#63b8ff" points="102.46,-31.71 102.73,-21.12 95.92,-29.23 102.46,-31.71"/>
</a>
</g>
</g>
<!-- Node9 -->
<g id="Node000009" class="node">
<title>Node9</title>
<g id="a_Node000009"><a xlink:href="sifdma_8h.html" target="_top" xlink:title=" ">
<polygon fill="white" stroke="#666666" points="241.62,-74.5 188.88,-74.5 188.88,-55.25 241.62,-55.25 241.62,-74.5"/>
<text text-anchor="middle" x="215.25" y="-61" font-family="Helvetica,sans-Serif" font-size="10.00">sifdma.h</text>
</a>
</g>
</g>
<!-- Node8&#45;&gt;Node9 -->
<g id="edge11_Node000008_Node000009" class="edge">
<title>Node8&#45;&gt;Node9</title>
<g id="a_edge11_Node000008_Node000009"><a xlink:title=" ">
<path fill="none" stroke="#63b8ff" d="M172.1,-165.5C179.64,-148.09 196.52,-109.12 206.79,-85.41"/>
<polygon fill="#63b8ff" stroke="#63b8ff" points="209.99,-86.83 210.75,-76.27 203.56,-84.05 209.99,-86.83"/>
</a>
</g>
</g>
<!-- Node9&#45;&gt;Node7 -->
<g id="edge12_Node000009_Node000007" class="edge">
<title>Node9&#45;&gt;Node7</title>
<g id="a_edge12_Node000009_Node000007"><a xlink:title=" ">
<path fill="none" stroke="#63b8ff" d="M228.31,-54.84C239.71,-46.96 256.48,-35.36 269.99,-26.02"/>
<polygon fill="#63b8ff" stroke="#63b8ff" points="271.65,-29.13 277.88,-20.56 267.66,-23.37 271.65,-29.13"/>
</a>
</g>
</g>
<!-- Node12 -->
<g id="Node000012" class="node">
<title>Node12</title>
<g id="a_Node000012"><a xlink:href="sysclib_8h.html" target="_top" xlink:title=" ">
<polygon fill="white" stroke="#666666" points="274,-185 220.5,-185 220.5,-165.75 274,-165.75 274,-185"/>
<text text-anchor="middle" x="247.25" y="-171.5" font-family="Helvetica,sans-Serif" font-size="10.00">sysclib.h</text>
</a>
</g>
</g>
<!-- Node11&#45;&gt;Node12 -->
<g id="edge15_Node000011_Node000012" class="edge">
<title>Node11&#45;&gt;Node12</title>
<g id="a_edge15_Node000011_Node000012"><a xlink:title=" ">
<path fill="none" stroke="#63b8ff" d="M265.62,-220.83C262.83,-214.09 258.88,-204.52 255.35,-195.99"/>
<polygon fill="#63b8ff" stroke="#63b8ff" points="258.59,-194.66 251.54,-186.76 252.12,-197.34 258.59,-194.66"/>
</a>
</g>
</g>
<!-- Node12&#45;&gt;Node3 -->
<g id="edge18_Node000012_Node000003" class="edge">
<title>Node12&#45;&gt;Node3</title>
<g id="a_edge18_Node000012_Node000003"><a xlink:title=" ">
<path fill="none" stroke="#63b8ff" d="M220.03,-167.85C180.38,-158.34 106.65,-140.65 62.16,-129.98"/>
<polygon fill="#63b8ff" stroke="#63b8ff" points="62.99,-126.58 52.45,-127.65 61.35,-133.38 62.99,-126.58"/>
</a>
</g>
</g>
<!-- Node12&#45;&gt;Node4 -->
<g id="edge17_Node000012_Node000004" class="edge">
<title>Node12&#45;&gt;Node4</title>
<g id="a_edge17_Node000012_Node000004"><a xlink:title=" ">
<path fill="none" stroke="#63b8ff" d="M226.22,-165.34C205.31,-156.37 173.17,-142.56 150.36,-132.77"/>
<polygon fill="#63b8ff" stroke="#63b8ff" points="151.97,-129.65 141.4,-128.92 149.2,-136.08 151.97,-129.65"/>
</a>
</g>
</g>
<!-- Node12&#45;&gt;Node5 -->
<g id="edge16_Node000012_Node000005" class="edge">
<title>Node12&#45;&gt;Node5</title>
<g id="a_edge16_Node000012_Node000005"><a xlink:title=" ">
<path fill="none" stroke="#63b8ff" d="M238.08,-165.5C219.46,-147.46 176.92,-106.25 152.8,-82.88"/>
<polygon fill="#63b8ff" stroke="#63b8ff" points="155.25,-80.37 145.63,-75.93 150.38,-85.4 155.25,-80.37"/>
</a>
</g>
</g>
<!-- Node13 -->
<g id="Node000013" class="node">
<title>Node13</title>
<g id="a_Node000013"><a xlink:href="setjmp_8h.html" target="_top" xlink:title=" ">
<polygon fill="white" stroke="#666666" points="318.62,-74.5 265.88,-74.5 265.88,-55.25 318.62,-55.25 318.62,-74.5"/>
<text text-anchor="middle" x="292.25" y="-61" font-family="Helvetica,sans-Serif" font-size="10.00">setjmp.h</text>
</a>
</g>
</g>
<!-- Node12&#45;&gt;Node13 -->
<g id="edge19_Node000012_Node000013" class="edge">
<title>Node12&#45;&gt;Node13</title>
<g id="a_edge19_Node000012_Node000013"><a xlink:title=" ">
<path fill="none" stroke="#63b8ff" d="M259.69,-165.32C269.67,-157.24 283.02,-144.44 289.25,-129.75 295.04,-116.11 295.6,-99.32 294.82,-86.38"/>
<polygon fill="#63b8ff" stroke="#63b8ff" points="298.31,-86.11 293.88,-76.49 291.34,-86.78 298.31,-86.11"/>
</a>
</g>
</g>
<!-- Node14 -->
<g id="Node000014" class="node">
<title>Node14</title>
<g id="a_Node000014"><a xlink:href="ctype_8h.html" target="_top" xlink:title=" ">
<polygon fill="white" stroke="#666666" points="280.62,-129.75 233.88,-129.75 233.88,-110.5 280.62,-110.5 280.62,-129.75"/>
<text text-anchor="middle" x="257.25" y="-116.25" font-family="Helvetica,sans-Serif" font-size="10.00">ctype.h</text>
</a>
</g>
</g>
<!-- Node12&#45;&gt;Node14 -->
<g id="edge21_Node000012_Node000014" class="edge">
<title>Node12&#45;&gt;Node14</title>
<g id="a_edge21_Node000012_Node000014"><a xlink:title=" ">
<path fill="none" stroke="#63b8ff" d="M248.9,-165.58C250.14,-158.99 251.88,-149.71 253.46,-141.32"/>
<polygon fill="#63b8ff" stroke="#63b8ff" points="256.88,-142.07 255.28,-131.6 250,-140.78 256.88,-142.07"/>
</a>
</g>
</g>
<!-- Node13&#45;&gt;Node7 -->
<g id="edge20_Node000013_Node000007" class="edge">
<title>Node13&#45;&gt;Node7</title>
<g id="a_edge20_Node000013_Node000007"><a xlink:title=" ">
<path fill="none" stroke="#63b8ff" d="M292.25,-55.08C292.25,-48.57 292.25,-39.42 292.25,-31.12"/>
<polygon fill="#63b8ff" stroke="#63b8ff" points="295.75,-31.12 292.25,-21.12 288.75,-31.12 295.75,-31.12"/>
</a>
</g>
</g>
<!-- Node16 -->
<g id="Node000016" class="node">
<title>Node16</title>
<g id="a_Node000016"><a xlink:href="libcdvd-common_8h.html" target="_top" xlink:title=" ">
<polygon fill="white" stroke="#666666" points="468.62,-74.5 373.88,-74.5 373.88,-55.25 468.62,-55.25 468.62,-74.5"/>
<text text-anchor="middle" x="421.25" y="-61" font-family="Helvetica,sans-Serif" font-size="10.00">libcdvd&#45;common.h</text>
</a>
</g>
</g>
<!-- Node15&#45;&gt;Node16 -->
<g id="edge23_Node000015_Node000016" class="edge">
<title>Node15&#45;&gt;Node16</title>
<g id="a_edge23_Node000015_Node000016"><a xlink:title=" ">
<path fill="none" stroke="#63b8ff" d="M402.33,-220.82C405.42,-195.5 414.4,-122 418.78,-86.09"/>
<polygon fill="#63b8ff" stroke="#63b8ff" points="422.25,-86.58 419.99,-76.22 415.3,-85.73 422.25,-86.58"/>
</a>
</g>
</g>
<!-- Node16&#45;&gt;Node7 -->
<g id="edge24_Node000016_Node000007" class="edge">
<title>Node16&#45;&gt;Node7</title>
<g id="a_edge24_Node000016_Node000007"><a xlink:title=" ">
<path fill="none" stroke="#63b8ff" d="M399.37,-54.84C378.89,-46.39 348.04,-33.65 324.69,-24.02"/>
<polygon fill="#63b8ff" stroke="#63b8ff" points="326.22,-20.86 315.64,-20.28 323.55,-27.33 326.22,-20.86"/>
</a>
</g>
</g>
</g>
</svg>
