<?xml version="1.0" encoding="UTF-8" standalone="no"?>
<!DOCTYPE svg PUBLIC "-//W3C//DTD SVG 1.1//EN"
 "http://www.w3.org/Graphics/SVG/1.1/DTD/svg11.dtd">
<!-- Generated by graphviz version 2.44.0 ()
 -->
<!-- Title: common/include/libcdvd&#45;common.h Pages: 1 -->
<!--zoomable 240 -->
<svg id="main" version="1.1" xmlns="http://www.w3.org/2000/svg" xmlns:xlink="http://www.w3.org/1999/xlink" xml:space="preserve" onload="init(evt)">
<style type="text/css"><![CDATA[
.edge:hover path { stroke: red; }
.edge:hover polygon { stroke: red; fill: red; }
]]></style>
<script type="text/javascript"><![CDATA[
var edges = document.getElementsByTagName('g');
if (edges && edges.length) {
  for (var i=0;i<edges.length;i++) {
    if (edges[i].id.substr(0,4)=='edge') {
      edges[i].setAttribute('class','edge');
    }
  }
}
]]></script>
        <defs>
                <circle id="rim" cx="0" cy="0" r="7"/>
                <circle id="rim2" cx="0" cy="0" r="3.5"/>
                <g id="zoomPlus">
                        <use xlink:href="#rim" fill="#404040">
                                <set attributeName="fill" to="#808080" begin="zoomplus.mouseover" end="zoomplus.mouseout"/>
                        </use>
                        <path d="M-4,0h8M0,-4v8" fill="none" stroke="white" stroke-width="1.5" pointer-events="none"/>
                </g>
                <g id="zoomMin">
                        <use xlink:href="#rim" fill="#404040">
                                <set attributeName="fill" to="#808080" begin="zoomminus.mouseover" end="zoomminus.mouseout"/>
                        </use>
                        <path d="M-4,0h8" fill="none" stroke="white" stroke-width="1.5" pointer-events="none"/>
                </g>
                <g id="dirArrow">
                        <path fill="none" stroke="white" stroke-width="1.5" d="M0,-3.0v7 M-2.5,-0.5L0,-3.0L2.5,-0.5"/>
                </g>
               <g id="resetDef">
                       <use xlink:href="#rim2" fill="#404040">
                               <set attributeName="fill" to="#808080" begin="reset.mouseover" end="reset.mouseout"/>
                       </use>
               </g>
        </defs>

<script type="text/javascript">
var viewWidth = 3787;
var viewHeight = 240;
var sectionId = 'dynsection-1';
</script>
<script xlink:href="svgpan.js"/>
<svg id="graph" class="graph">
<g id="viewport">
<title>common/include/libcdvd&#45;common.h</title>
<polygon fill="white" stroke="transparent" points="-4,4 -4,-236 3782.5,-236 3782.5,4 -4,4"/>
<!-- Node1 -->
<g id="node1" class="node">
<title>Node1</title>
<g id="a_node1"><a xlink:title=" ">
<polygon fill="#bfbfbf" stroke="black" points="1709,-201.5 1709,-231.5 1831,-231.5 1831,-201.5 1709,-201.5"/>
<text text-anchor="start" x="1717" y="-219.5" font-family="Helvetica,sans-Serif" font-size="10.00">common/include/libcdvd</text>
<text text-anchor="middle" x="1770" y="-208.5" font-family="Helvetica,sans-Serif" font-size="10.00">&#45;common.h</text>
</a>
</g>
</g>
<!-- Node2 -->
<g id="node2" class="node">
<title>Node2</title>
<g id="a_node2"><a xlink:href="libcdvd_8h.html" target="_top" xlink:title=" ">
<polygon fill="white" stroke="black" points="1029.5,-134.5 1029.5,-164.5 1130.5,-164.5 1130.5,-134.5 1029.5,-134.5"/>
<text text-anchor="start" x="1037.5" y="-152.5" font-family="Helvetica,sans-Serif" font-size="10.00">ee/rpc/cdvd/include</text>
<text text-anchor="middle" x="1080" y="-141.5" font-family="Helvetica,sans-Serif" font-size="10.00">/libcdvd.h</text>
</a>
</g>
</g>
<!-- Node1&#45;&gt;Node2 -->
<g id="edge1" class="edge">
<title>Node1&#45;&gt;Node2</title>
<path fill="none" stroke="midnightblue" d="M1698.59,-208.77C1558.72,-195.6 1251.79,-166.68 1130.63,-155.27"/>
<polygon fill="midnightblue" stroke="midnightblue" points="1698.48,-212.28 1708.77,-209.73 1699.14,-205.31 1698.48,-212.28"/>
</g>
<!-- Node16 -->
<g id="node16" class="node">
<title>Node16</title>
<g id="a_node16"><a xlink:href="cdfs__iop_8c_source.html" target="_top" xlink:title=" ">
<polygon fill="white" stroke="black" points="1713.5,-134.5 1713.5,-164.5 1826.5,-164.5 1826.5,-134.5 1713.5,-134.5"/>
<text text-anchor="start" x="1721.5" y="-152.5" font-family="Helvetica,sans-Serif" font-size="10.00">iop/cdvd/cdfs/src/cdfs</text>
<text text-anchor="middle" x="1770" y="-141.5" font-family="Helvetica,sans-Serif" font-size="10.00">_iop.c</text>
</a>
</g>
</g>
<!-- Node1&#45;&gt;Node16 -->
<g id="edge16" class="edge">
<title>Node1&#45;&gt;Node16</title>
<path fill="none" stroke="midnightblue" d="M1770,-191.11C1770,-182.15 1770,-172.32 1770,-164.58"/>
<polygon fill="midnightblue" stroke="midnightblue" points="1766.5,-191.4 1770,-201.4 1773.5,-191.4 1766.5,-191.4"/>
</g>
<!-- Node17 -->
<g id="node17" class="node">
<title>Node17</title>
<g id="a_node17"><a xlink:href="cdvdman_8h.html" target="_top" xlink:title=" ">
<polygon fill="white" stroke="black" points="2411,-134.5 2411,-164.5 2503,-164.5 2503,-134.5 2411,-134.5"/>
<text text-anchor="start" x="2419" y="-152.5" font-family="Helvetica,sans-Serif" font-size="10.00">iop/kernel/include</text>
<text text-anchor="middle" x="2457" y="-141.5" font-family="Helvetica,sans-Serif" font-size="10.00">/cdvdman.h</text>
</a>
</g>
</g>
<!-- Node1&#45;&gt;Node17 -->
<g id="edge17" class="edge">
<title>Node1&#45;&gt;Node17</title>
<path fill="none" stroke="midnightblue" d="M1841.53,-208.73C1982.59,-195.39 2293.1,-166.01 2410.66,-154.88"/>
<polygon fill="midnightblue" stroke="midnightblue" points="1840.89,-205.28 1831.27,-209.7 1841.55,-212.25 1840.89,-205.28"/>
</g>
<!-- Node3 -->
<g id="node3" class="node">
<title>Node3</title>
<g id="a_node3"><a xlink:href="osd__config_8h.html" target="_top" xlink:title=" ">
<polygon fill="white" stroke="black" points="634.5,-67.5 634.5,-97.5 743.5,-97.5 743.5,-67.5 634.5,-67.5"/>
<text text-anchor="start" x="642.5" y="-85.5" font-family="Helvetica,sans-Serif" font-size="10.00">ee/kernel/include/osd</text>
<text text-anchor="middle" x="689" y="-74.5" font-family="Helvetica,sans-Serif" font-size="10.00">_config.h</text>
</a>
</g>
</g>
<!-- Node2&#45;&gt;Node3 -->
<g id="edge2" class="edge">
<title>Node2&#45;&gt;Node3</title>
<path fill="none" stroke="midnightblue" d="M1018.99,-138.36C943.52,-125.81 816.16,-104.64 743.71,-92.6"/>
<polygon fill="midnightblue" stroke="midnightblue" points="1018.85,-141.88 1029.28,-140.07 1019.99,-134.98 1018.85,-141.88"/>
</g>
<!-- Node13 -->
<g id="node13" class="node">
<title>Node13</title>
<g id="a_node13"><a xlink:href="scmd_8c.html" target="_top" xlink:title=" ">
<polygon fill="white" stroke="black" points="1147.5,-6 1147.5,-25 1266.5,-25 1266.5,-6 1147.5,-6"/>
<text text-anchor="middle" x="1207" y="-13" font-family="Helvetica,sans-Serif" font-size="10.00">ee/rpc/cdvd/src/scmd.c</text>
</a>
</g>
</g>
<!-- Node2&#45;&gt;Node13 -->
<g id="edge15" class="edge">
<title>Node2&#45;&gt;Node13</title>
<path fill="none" stroke="midnightblue" d="M1038.61,-129.16C1026.52,-121.3 1014.75,-110.97 1008,-98 1001.64,-85.78 999.54,-77.87 1008,-67 1012.99,-60.58 1112,-37.65 1168.44,-25.01"/>
<polygon fill="midnightblue" stroke="midnightblue" points="1037.04,-132.29 1047.41,-134.44 1040.64,-126.29 1037.04,-132.29"/>
</g>
<!-- Node14 -->
<g id="node14" class="node">
<title>Node14</title>
<g id="a_node14"><a xlink:href="libcdvd_8c.html" target="_top" xlink:title=" ">
<polygon fill="white" stroke="black" points="1017.5,-73 1017.5,-92 1142.5,-92 1142.5,-73 1017.5,-73"/>
<text text-anchor="middle" x="1080" y="-80" font-family="Helvetica,sans-Serif" font-size="10.00">ee/rpc/cdvd/src/libcdvd.c</text>
</a>
</g>
</g>
<!-- Node2&#45;&gt;Node14 -->
<g id="edge13" class="edge">
<title>Node2&#45;&gt;Node14</title>
<path fill="none" stroke="midnightblue" d="M1080,-124.25C1080,-113.02 1080,-100.38 1080,-92.19"/>
<polygon fill="midnightblue" stroke="midnightblue" points="1076.5,-124.4 1080,-134.4 1083.5,-124.4 1076.5,-124.4"/>
</g>
<!-- Node15 -->
<g id="node15" class="node">
<title>Node15</title>
<g id="a_node15"><a xlink:href="ncmd_8c.html" target="_top" xlink:title=" ">
<polygon fill="white" stroke="black" points="1160.5,-73 1160.5,-92 1279.5,-92 1279.5,-73 1160.5,-73"/>
<text text-anchor="middle" x="1220" y="-80" font-family="Helvetica,sans-Serif" font-size="10.00">ee/rpc/cdvd/src/ncmd.c</text>
</a>
</g>
</g>
<!-- Node2&#45;&gt;Node15 -->
<g id="edge14" class="edge">
<title>Node2&#45;&gt;Node15</title>
<path fill="none" stroke="midnightblue" d="M1119.56,-130.13C1146.51,-117.62 1180.93,-101.64 1201.68,-92.01"/>
<polygon fill="midnightblue" stroke="midnightblue" points="1117.97,-127.01 1110.38,-134.4 1120.92,-133.36 1117.97,-127.01"/>
</g>
<!-- Node4 -->
<g id="node4" class="node">
<title>Node4</title>
<g id="a_node4"><a xlink:href="scr__printf_8c.html" target="_top" xlink:title=" ">
<polygon fill="white" stroke="black" points="0,-6 0,-25 124,-25 124,-6 0,-6"/>
<text text-anchor="middle" x="62" y="-13" font-family="Helvetica,sans-Serif" font-size="10.00">ee/debug/src/scr_printf.c</text>
</a>
</g>
</g>
<!-- Node3&#45;&gt;Node4 -->
<g id="edge3" class="edge">
<title>Node3&#45;&gt;Node4</title>
<path fill="none" stroke="midnightblue" d="M624.28,-77.96C520.3,-71.74 309.79,-57 133,-31 122.17,-29.41 110.5,-27.22 99.82,-25.03"/>
<polygon fill="midnightblue" stroke="midnightblue" points="624.12,-81.45 634.31,-78.55 624.53,-74.47 624.12,-81.45"/>
</g>
<!-- Node5 -->
<g id="node5" class="node">
<title>Node5</title>
<g id="a_node5"><a xlink:href="graph__mode_8c_source.html" target="_top" xlink:title=" ">
<polygon fill="white" stroke="black" points="142,-0.5 142,-30.5 240,-30.5 240,-0.5 142,-0.5"/>
<text text-anchor="start" x="150" y="-18.5" font-family="Helvetica,sans-Serif" font-size="10.00">ee/graph/src/graph</text>
<text text-anchor="middle" x="191" y="-7.5" font-family="Helvetica,sans-Serif" font-size="10.00">_mode.c</text>
</a>
</g>
</g>
<!-- Node3&#45;&gt;Node5 -->
<g id="edge4" class="edge">
<title>Node3&#45;&gt;Node5</title>
<path fill="none" stroke="midnightblue" d="M624.33,-76.74C538.2,-69.79 381.31,-55.03 249,-31 246.14,-30.48 243.21,-29.9 240.27,-29.28"/>
<polygon fill="midnightblue" stroke="midnightblue" points="624.23,-80.24 634.47,-77.55 624.78,-73.26 624.23,-80.24"/>
</g>
<!-- Node6 -->
<g id="node6" class="node">
<title>Node6</title>
<g id="a_node6"><a xlink:href="libosd_8c.html" target="_top" xlink:title=" ">
<polygon fill="white" stroke="black" points="258.5,-6 258.5,-25 367.5,-25 367.5,-6 258.5,-6"/>
<text text-anchor="middle" x="313" y="-13" font-family="Helvetica,sans-Serif" font-size="10.00">ee/kernel/src/libosd.c</text>
</a>
</g>
</g>
<!-- Node3&#45;&gt;Node6 -->
<g id="edge5" class="edge">
<title>Node3&#45;&gt;Node6</title>
<path fill="none" stroke="midnightblue" d="M623.98,-72.29C560.52,-63.01 461.33,-47.68 376,-31 366.97,-29.23 357.26,-27.11 348.23,-25.04"/>
<polygon fill="midnightblue" stroke="midnightblue" points="623.84,-75.81 634.24,-73.79 624.85,-68.88 623.84,-75.81"/>
</g>
<!-- Node7 -->
<g id="node7" class="node">
<title>Node7</title>
<g id="a_node7"><a xlink:href="libosd__common_8c.html" target="_top" xlink:title=" ">
<polygon fill="white" stroke="black" points="385.5,-0.5 385.5,-30.5 486.5,-30.5 486.5,-0.5 385.5,-0.5"/>
<text text-anchor="start" x="393.5" y="-18.5" font-family="Helvetica,sans-Serif" font-size="10.00">ee/kernel/src/libosd</text>
<text text-anchor="middle" x="436" y="-7.5" font-family="Helvetica,sans-Serif" font-size="10.00">_common.c</text>
</a>
</g>
</g>
<!-- Node3&#45;&gt;Node7 -->
<g id="edge6" class="edge">
<title>Node3&#45;&gt;Node7</title>
<path fill="none" stroke="midnightblue" d="M624.65,-64.97C581.8,-53.96 526.3,-39.7 486.62,-29.5"/>
<polygon fill="midnightblue" stroke="midnightblue" points="623.86,-68.38 634.41,-67.48 625.6,-61.6 623.86,-68.38"/>
</g>
<!-- Node8 -->
<g id="node8" class="node">
<title>Node8</title>
<g id="a_node8"><a xlink:href="libosd__full_8c.html" target="_top" xlink:title=" ">
<polygon fill="white" stroke="black" points="504.5,-0.5 504.5,-30.5 605.5,-30.5 605.5,-0.5 504.5,-0.5"/>
<text text-anchor="start" x="512.5" y="-18.5" font-family="Helvetica,sans-Serif" font-size="10.00">ee/kernel/src/libosd</text>
<text text-anchor="middle" x="555" y="-7.5" font-family="Helvetica,sans-Serif" font-size="10.00">_full.c</text>
</a>
</g>
</g>
<!-- Node3&#45;&gt;Node8 -->
<g id="edge7" class="edge">
<title>Node3&#45;&gt;Node8</title>
<path fill="none" stroke="midnightblue" d="M650.85,-62.99C629.61,-52.69 603.59,-40.07 584.02,-30.58"/>
<polygon fill="midnightblue" stroke="midnightblue" points="649.4,-66.18 659.92,-67.4 652.45,-59.88 649.4,-66.18"/>
</g>
<!-- Node9 -->
<g id="node9" class="node">
<title>Node9</title>
<g id="a_node9"><a xlink:href="osd__config_8c.html" target="_top" xlink:title=" ">
<polygon fill="white" stroke="black" points="624,-6 624,-25 754,-25 754,-6 624,-6"/>
<text text-anchor="middle" x="689" y="-13" font-family="Helvetica,sans-Serif" font-size="10.00">ee/kernel/src/osd_config.c</text>
</a>
</g>
</g>
<!-- Node3&#45;&gt;Node9 -->
<g id="edge8" class="edge">
<title>Node3&#45;&gt;Node9</title>
<path fill="none" stroke="midnightblue" d="M689,-57.25C689,-46.02 689,-33.38 689,-25.19"/>
<polygon fill="midnightblue" stroke="midnightblue" points="685.5,-57.4 689,-67.4 692.5,-57.4 685.5,-57.4"/>
</g>
<!-- Node10 -->
<g id="node10" class="node">
<title>Node10</title>
<g id="a_node10"><a xlink:href="osd_8c_source.html" target="_top" xlink:title=" ">
<polygon fill="white" stroke="black" points="772.5,-0.5 772.5,-30.5 877.5,-30.5 877.5,-0.5 772.5,-0.5"/>
<text text-anchor="start" x="780.5" y="-18.5" font-family="Helvetica,sans-Serif" font-size="10.00">ee/kernel/src/osdsrc</text>
<text text-anchor="middle" x="825" y="-7.5" font-family="Helvetica,sans-Serif" font-size="10.00">/src/osd.c</text>
</a>
</g>
</g>
<!-- Node3&#45;&gt;Node10 -->
<g id="edge9" class="edge">
<title>Node3&#45;&gt;Node10</title>
<path fill="none" stroke="midnightblue" d="M727.72,-62.99C749.28,-52.69 775.69,-40.07 795.55,-30.58"/>
<polygon fill="midnightblue" stroke="midnightblue" points="726.02,-59.93 718.51,-67.4 729.04,-66.24 726.02,-59.93"/>
</g>
<!-- Node11 -->
<g id="node11" class="node">
<title>Node11</title>
<g id="a_node11"><a xlink:href="osdsrc_8c_source.html" target="_top" xlink:title=" ">
<polygon fill="white" stroke="black" points="895.5,-0.5 895.5,-30.5 1000.5,-30.5 1000.5,-0.5 895.5,-0.5"/>
<text text-anchor="start" x="903.5" y="-18.5" font-family="Helvetica,sans-Serif" font-size="10.00">ee/kernel/src/osdsrc</text>
<text text-anchor="middle" x="948" y="-7.5" font-family="Helvetica,sans-Serif" font-size="10.00">/src/osdsrc.c</text>
</a>
</g>
</g>
<!-- Node3&#45;&gt;Node11 -->
<g id="edge10" class="edge">
<title>Node3&#45;&gt;Node11</title>
<path fill="none" stroke="midnightblue" d="M753.57,-65.3C797.26,-54.33 854.26,-40.02 895.23,-29.74"/>
<polygon fill="midnightblue" stroke="midnightblue" points="752.46,-61.97 743.61,-67.79 754.16,-68.76 752.46,-61.97"/>
</g>
<!-- Node12 -->
<g id="node12" class="node">
<title>Node12</title>
<g id="a_node12"><a xlink:href="timezone_8c.html" target="_top" xlink:title=" ">
<polygon fill="white" stroke="black" points="1018.5,-6 1018.5,-25 1129.5,-25 1129.5,-6 1018.5,-6"/>
<text text-anchor="middle" x="1074" y="-13" font-family="Helvetica,sans-Serif" font-size="10.00">ee/libc/src/timezone.c</text>
</a>
</g>
</g>
<!-- Node3&#45;&gt;Node12 -->
<g id="edge11" class="edge">
<title>Node3&#45;&gt;Node12</title>
<path fill="none" stroke="midnightblue" d="M753.6,-72.52C818.38,-63.24 920.89,-47.76 1009,-31 1018.31,-29.23 1028.33,-27.1 1037.64,-25.03"/>
<polygon fill="midnightblue" stroke="midnightblue" points="752.94,-69.08 743.54,-73.96 753.93,-76.01 752.94,-69.08"/>
</g>
<!-- Node3&#45;&gt;Node13 -->
<g id="edge12" class="edge">
<title>Node3&#45;&gt;Node13</title>
<path fill="none" stroke="midnightblue" d="M753.88,-76.16C841.41,-68.5 1002.04,-52.88 1138,-31 1148.27,-29.35 1159.33,-27.19 1169.52,-25.05"/>
<polygon fill="midnightblue" stroke="midnightblue" points="753.49,-72.68 743.83,-77.03 754.1,-79.65 753.49,-72.68"/>
</g>
<!-- Node18 -->
<g id="node18" class="node">
<title>Node18</title>
<g id="a_node18"><a xlink:href="common_2sbus_2src_2irx__imports_8h_source.html" target="_top" xlink:title=" ">
<polygon fill="white" stroke="black" points="1297.5,-67.5 1297.5,-97.5 1404.5,-97.5 1404.5,-67.5 1297.5,-67.5"/>
<text text-anchor="start" x="1305.5" y="-85.5" font-family="Helvetica,sans-Serif" font-size="10.00">common/sbus/src/irx</text>
<text text-anchor="middle" x="1351" y="-74.5" font-family="Helvetica,sans-Serif" font-size="10.00">_imports.h</text>
</a>
</g>
</g>
<!-- Node17&#45;&gt;Node18 -->
<g id="edge18" class="edge">
<title>Node17&#45;&gt;Node18</title>
<path fill="none" stroke="midnightblue" d="M2400.64,-147.09C2212.53,-142.19 1607.21,-124.7 1414,-98 1411,-97.59 1407.93,-97.1 1404.84,-96.55"/>
<polygon fill="midnightblue" stroke="midnightblue" points="2400.77,-150.6 2410.86,-147.36 2400.95,-143.6 2400.77,-150.6"/>
</g>
<!-- Node19 -->
<g id="node19" class="node">
<title>Node19</title>
<g id="a_node19"><a xlink:href="iop_2cdvd_2cdfs_2src_2irx__imports_8h_source.html" target="_top" xlink:title=" ">
<polygon fill="white" stroke="black" points="1423,-67.5 1423,-97.5 1527,-97.5 1527,-67.5 1423,-67.5"/>
<text text-anchor="start" x="1431" y="-85.5" font-family="Helvetica,sans-Serif" font-size="10.00">iop/cdvd/cdfs/src/irx</text>
<text text-anchor="middle" x="1475" y="-74.5" font-family="Helvetica,sans-Serif" font-size="10.00">_imports.h</text>
</a>
</g>
</g>
<!-- Node17&#45;&gt;Node19 -->
<g id="edge19" class="edge">
<title>Node17&#45;&gt;Node19</title>
<path fill="none" stroke="midnightblue" d="M2400.32,-148.9C2255.55,-149.16 1860.68,-145.1 1536,-98 1533.09,-97.58 1530.12,-97.08 1527.13,-96.54"/>
<polygon fill="midnightblue" stroke="midnightblue" points="2400.72,-152.4 2410.71,-148.87 2400.7,-145.4 2400.72,-152.4"/>
</g>
<!-- Node20 -->
<g id="node20" class="node">
<title>Node20</title>
<g id="a_node20"><a xlink:href="iop_2debug_2iop__sbusdbg_2src_2irx__imports_8h_source.html" target="_top" xlink:title=" ">
<polygon fill="white" stroke="black" points="1545,-67.5 1545,-97.5 1661,-97.5 1661,-67.5 1545,-67.5"/>
<text text-anchor="start" x="1553" y="-85.5" font-family="Helvetica,sans-Serif" font-size="10.00">iop/debug/iop_sbusdbg</text>
<text text-anchor="middle" x="1603" y="-74.5" font-family="Helvetica,sans-Serif" font-size="10.00">/src/irx_imports.h</text>
</a>
</g>
</g>
<!-- Node17&#45;&gt;Node20 -->
<g id="edge20" class="edge">
<title>Node17&#45;&gt;Node20</title>
<path fill="none" stroke="midnightblue" d="M2400.54,-147.76C2270.86,-145.43 1941.97,-135.94 1670,-98 1667.05,-97.59 1664.04,-97.12 1661.01,-96.61"/>
<polygon fill="midnightblue" stroke="midnightblue" points="2400.57,-151.26 2410.63,-147.93 2400.69,-144.26 2400.57,-151.26"/>
</g>
<!-- Node21 -->
<g id="node21" class="node">
<title>Node21</title>
<g id="a_node21"><a xlink:href="iop_2debug_2iopdebug_2src_2irx__imports_8h_source.html" target="_top" xlink:title=" ">
<polygon fill="white" stroke="black" points="1679.5,-67.5 1679.5,-97.5 1780.5,-97.5 1780.5,-67.5 1679.5,-67.5"/>
<text text-anchor="start" x="1687.5" y="-85.5" font-family="Helvetica,sans-Serif" font-size="10.00">iop/debug/iopdebug</text>
<text text-anchor="middle" x="1730" y="-74.5" font-family="Helvetica,sans-Serif" font-size="10.00">/src/irx_imports.h</text>
</a>
</g>
</g>
<!-- Node17&#45;&gt;Node21 -->
<g id="edge21" class="edge">
<title>Node17&#45;&gt;Node21</title>
<path fill="none" stroke="midnightblue" d="M2400.93,-147.39C2285.64,-144.42 2013.92,-133.89 1789,-98 1786.29,-97.57 1783.53,-97.07 1780.74,-96.54"/>
<polygon fill="midnightblue" stroke="midnightblue" points="2400.85,-150.89 2410.94,-147.64 2401.03,-143.89 2400.85,-150.89"/>
</g>
<!-- Node22 -->
<g id="node22" class="node">
<title>Node22</title>
<g id="a_node22"><a xlink:href="fs_2bdmfs__vfat_2src_2fat__write_8c_source.html" target="_top" xlink:title=" ">
<polygon fill="white" stroke="black" points="1798.5,-67.5 1798.5,-97.5 1907.5,-97.5 1907.5,-67.5 1798.5,-67.5"/>
<text text-anchor="start" x="1806.5" y="-85.5" font-family="Helvetica,sans-Serif" font-size="10.00">iop/fs/bdmfs_vfat/src</text>
<text text-anchor="middle" x="1853" y="-74.5" font-family="Helvetica,sans-Serif" font-size="10.00">/fat_write.c</text>
</a>
</g>
</g>
<!-- Node17&#45;&gt;Node22 -->
<g id="edge22" class="edge">
<title>Node17&#45;&gt;Node22</title>
<path fill="none" stroke="midnightblue" d="M2400.73,-145.72C2302.07,-140.3 2091.63,-126.28 1916,-98 1913.23,-97.55 1910.4,-97.06 1907.55,-96.52"/>
<polygon fill="midnightblue" stroke="midnightblue" points="2400.61,-149.22 2410.78,-146.26 2400.99,-142.23 2400.61,-149.22"/>
</g>
<!-- Node23 -->
<g id="node23" class="node">
<title>Node23</title>
<g id="a_node23"><a xlink:href="iop_2fs_2bdmfs__vfat_2src_2irx__imports_8h_source.html" target="_top" xlink:title=" ">
<polygon fill="white" stroke="black" points="1925.5,-67.5 1925.5,-97.5 2034.5,-97.5 2034.5,-67.5 1925.5,-67.5"/>
<text text-anchor="start" x="1933.5" y="-85.5" font-family="Helvetica,sans-Serif" font-size="10.00">iop/fs/bdmfs_vfat/src</text>
<text text-anchor="middle" x="1980" y="-74.5" font-family="Helvetica,sans-Serif" font-size="10.00">/irx_imports.h</text>
</a>
</g>
</g>
<!-- Node17&#45;&gt;Node23 -->
<g id="edge23" class="edge">
<title>Node17&#45;&gt;Node23</title>
<path fill="none" stroke="midnightblue" d="M2400.63,-143.43C2320.88,-135.84 2170.68,-120.04 2044,-98 2040.97,-97.47 2037.87,-96.9 2034.74,-96.28"/>
<polygon fill="midnightblue" stroke="midnightblue" points="2400.66,-146.95 2410.94,-144.4 2401.31,-139.98 2400.66,-146.95"/>
</g>
<!-- Node24 -->
<g id="node24" class="node">
<title>Node24</title>
<g id="a_node24"><a xlink:href="iop_2hdd_2apa_2src_2irx__imports_8h_source.html" target="_top" xlink:title=" ">
<polygon fill="white" stroke="black" points="2053,-67.5 2053,-97.5 2149,-97.5 2149,-67.5 2053,-67.5"/>
<text text-anchor="start" x="2061" y="-85.5" font-family="Helvetica,sans-Serif" font-size="10.00">iop/hdd/apa/src/irx</text>
<text text-anchor="middle" x="2101" y="-74.5" font-family="Helvetica,sans-Serif" font-size="10.00">_imports.h</text>
</a>
</g>
</g>
<!-- Node17&#45;&gt;Node24 -->
<g id="edge24" class="edge">
<title>Node17&#45;&gt;Node24</title>
<path fill="none" stroke="midnightblue" d="M2400.87,-140.42C2340.58,-131.42 2242.11,-115.77 2158,-98 2155.1,-97.39 2152.13,-96.73 2149.14,-96.04"/>
<polygon fill="midnightblue" stroke="midnightblue" points="2400.53,-143.91 2410.94,-141.92 2401.56,-136.99 2400.53,-143.91"/>
</g>
<!-- Node25 -->
<g id="node25" class="node">
<title>Node25</title>
<g id="a_node25"><a xlink:href="iop_2hdd_2pfs_2src_2irx__imports_8h_source.html" target="_top" xlink:title=" ">
<polygon fill="white" stroke="black" points="2167,-67.5 2167,-97.5 2261,-97.5 2261,-67.5 2167,-67.5"/>
<text text-anchor="start" x="2175" y="-85.5" font-family="Helvetica,sans-Serif" font-size="10.00">iop/hdd/pfs/src/irx</text>
<text text-anchor="middle" x="2214" y="-74.5" font-family="Helvetica,sans-Serif" font-size="10.00">_imports.h</text>
</a>
</g>
</g>
<!-- Node17&#45;&gt;Node25 -->
<g id="edge25" class="edge">
<title>Node17&#45;&gt;Node25</title>
<path fill="none" stroke="midnightblue" d="M2400.86,-133.48C2358.6,-122.18 2301.31,-106.85 2261.35,-96.17"/>
<polygon fill="midnightblue" stroke="midnightblue" points="2400.16,-136.92 2410.72,-136.12 2401.97,-130.16 2400.16,-136.92"/>
</g>
<!-- Node26 -->
<g id="node26" class="node">
<title>Node26</title>
<g id="a_node26"><a xlink:href="iop_2i_link_2_i_e_e_e1394__bd_2src_2irx__imports_8h_source.html" target="_top" xlink:title=" ">
<polygon fill="white" stroke="black" points="2279.5,-67.5 2279.5,-97.5 2386.5,-97.5 2386.5,-67.5 2279.5,-67.5"/>
<text text-anchor="start" x="2287.5" y="-85.5" font-family="Helvetica,sans-Serif" font-size="10.00">iop/iLink/IEEE1394</text>
<text text-anchor="middle" x="2333" y="-74.5" font-family="Helvetica,sans-Serif" font-size="10.00">_bd/src/irx_imports.h</text>
</a>
</g>
</g>
<!-- Node17&#45;&gt;Node26 -->
<g id="edge26" class="edge">
<title>Node17&#45;&gt;Node26</title>
<path fill="none" stroke="midnightblue" d="M2421.16,-129.71C2401.61,-119.46 2377.8,-106.98 2359.85,-97.58"/>
<polygon fill="midnightblue" stroke="midnightblue" points="2419.61,-132.85 2430.09,-134.4 2422.86,-126.65 2419.61,-132.85"/>
</g>
<!-- Node27 -->
<g id="node27" class="node">
<title>Node27</title>
<g id="a_node27"><a xlink:href="i_link_2_i_e_e_e1394__disk_2src_2fat__write_8c_source.html" target="_top" xlink:title=" ">
<polygon fill="white" stroke="black" points="2405,-67.5 2405,-97.5 2509,-97.5 2509,-67.5 2405,-67.5"/>
<text text-anchor="start" x="2413" y="-85.5" font-family="Helvetica,sans-Serif" font-size="10.00">iop/iLink/IEEE1394</text>
<text text-anchor="middle" x="2457" y="-74.5" font-family="Helvetica,sans-Serif" font-size="10.00">_disk/src/fat_write.c</text>
</a>
</g>
</g>
<!-- Node17&#45;&gt;Node27 -->
<g id="edge27" class="edge">
<title>Node17&#45;&gt;Node27</title>
<path fill="none" stroke="midnightblue" d="M2457,-124.11C2457,-115.15 2457,-105.32 2457,-97.58"/>
<polygon fill="midnightblue" stroke="midnightblue" points="2453.5,-124.4 2457,-134.4 2460.5,-124.4 2453.5,-124.4"/>
</g>
<!-- Node28 -->
<g id="node28" class="node">
<title>Node28</title>
<g id="a_node28"><a xlink:href="iop_2i_link_2_i_e_e_e1394__disk_2src_2irx__imports_8h_source.html" target="_top" xlink:title=" ">
<polygon fill="white" stroke="black" points="2527,-67.5 2527,-97.5 2641,-97.5 2641,-67.5 2527,-67.5"/>
<text text-anchor="start" x="2535" y="-85.5" font-family="Helvetica,sans-Serif" font-size="10.00">iop/iLink/IEEE1394</text>
<text text-anchor="middle" x="2584" y="-74.5" font-family="Helvetica,sans-Serif" font-size="10.00">_disk/src/irx_imports.h</text>
</a>
</g>
</g>
<!-- Node17&#45;&gt;Node28 -->
<g id="edge28" class="edge">
<title>Node17&#45;&gt;Node28</title>
<path fill="none" stroke="midnightblue" d="M2493.7,-129.71C2513.73,-119.46 2538.12,-106.98 2556.5,-97.58"/>
<polygon fill="midnightblue" stroke="midnightblue" points="2491.86,-126.72 2484.56,-134.4 2495.05,-132.96 2491.86,-126.72"/>
</g>
<!-- Node29 -->
<g id="node29" class="node">
<title>Node29</title>
<g id="a_node29"><a xlink:href="i_link__internal_8c_source.html" target="_top" xlink:title=" ">
<polygon fill="white" stroke="black" points="2659.5,-67.5 2659.5,-97.5 2760.5,-97.5 2760.5,-67.5 2659.5,-67.5"/>
<text text-anchor="start" x="2667.5" y="-85.5" font-family="Helvetica,sans-Serif" font-size="10.00">iop/iLink/iLinkman</text>
<text text-anchor="middle" x="2710" y="-74.5" font-family="Helvetica,sans-Serif" font-size="10.00">/src/iLink_internal.c</text>
</a>
</g>
</g>
<!-- Node17&#45;&gt;Node29 -->
<g id="edge29" class="edge">
<title>Node17&#45;&gt;Node29</title>
<path fill="none" stroke="midnightblue" d="M2513.02,-134.11C2556.8,-122.86 2617.11,-107.36 2659.43,-96.49"/>
<polygon fill="midnightblue" stroke="midnightblue" points="2511.92,-130.78 2503.11,-136.65 2513.67,-137.56 2511.92,-130.78"/>
</g>
<!-- Node30 -->
<g id="node30" class="node">
<title>Node30</title>
<g id="a_node30"><a xlink:href="iop_2i_link_2i_linkman_2src_2irx__imports_8h_source.html" target="_top" xlink:title=" ">
<polygon fill="white" stroke="black" points="2779,-67.5 2779,-97.5 2875,-97.5 2875,-67.5 2779,-67.5"/>
<text text-anchor="start" x="2787" y="-85.5" font-family="Helvetica,sans-Serif" font-size="10.00">iop/iLink/iLinkman</text>
<text text-anchor="middle" x="2827" y="-74.5" font-family="Helvetica,sans-Serif" font-size="10.00">/src/irx_imports.h</text>
</a>
</g>
</g>
<!-- Node17&#45;&gt;Node30 -->
<g id="edge30" class="edge">
<title>Node17&#45;&gt;Node30</title>
<path fill="none" stroke="midnightblue" d="M2513.29,-140.85C2575.96,-131.99 2680.16,-116.26 2769,-98 2772.25,-97.33 2775.6,-96.6 2778.96,-95.84"/>
<polygon fill="midnightblue" stroke="midnightblue" points="2512.63,-137.41 2503.21,-142.27 2513.6,-144.34 2512.63,-137.41"/>
</g>
<!-- Node31 -->
<g id="node31" class="node">
<title>Node31</title>
<g id="a_node31"><a xlink:href="iop_2memorycard_2mcman_2src_2irx__imports_8h_source.html" target="_top" xlink:title=" ">
<polygon fill="white" stroke="black" points="2893.5,-67.5 2893.5,-97.5 3014.5,-97.5 3014.5,-67.5 2893.5,-67.5"/>
<text text-anchor="start" x="2901.5" y="-85.5" font-family="Helvetica,sans-Serif" font-size="10.00">iop/memorycard/mcman</text>
<text text-anchor="middle" x="2954" y="-74.5" font-family="Helvetica,sans-Serif" font-size="10.00">/src/irx_imports.h</text>
</a>
</g>
</g>
<!-- Node17&#45;&gt;Node31 -->
<g id="edge31" class="edge">
<title>Node17&#45;&gt;Node31</title>
<path fill="none" stroke="midnightblue" d="M2513.4,-143.4C2595.32,-135.63 2751.86,-119.46 2884,-98 2887.06,-97.5 2890.19,-96.96 2893.35,-96.4"/>
<polygon fill="midnightblue" stroke="midnightblue" points="2512.94,-139.93 2503.31,-144.35 2513.59,-146.9 2512.94,-139.93"/>
</g>
<!-- Node32 -->
<g id="node32" class="node">
<title>Node32</title>
<g id="a_node32"><a xlink:href="mcman-internal_8h_source.html" target="_top" xlink:title=" ">
<polygon fill="white" stroke="black" points="3032.5,-67.5 3032.5,-97.5 3153.5,-97.5 3153.5,-67.5 3032.5,-67.5"/>
<text text-anchor="start" x="3040.5" y="-85.5" font-family="Helvetica,sans-Serif" font-size="10.00">iop/memorycard/mcman</text>
<text text-anchor="middle" x="3093" y="-74.5" font-family="Helvetica,sans-Serif" font-size="10.00">/src/mcman&#45;internal.h</text>
</a>
</g>
</g>
<!-- Node17&#45;&gt;Node32 -->
<g id="edge32" class="edge">
<title>Node17&#45;&gt;Node32</title>
<path fill="none" stroke="midnightblue" d="M2513.25,-145.7C2615.4,-140.13 2838.07,-125.72 3024,-98 3026.78,-97.58 3029.63,-97.13 3032.49,-96.64"/>
<polygon fill="midnightblue" stroke="midnightblue" points="2512.95,-142.21 2503.15,-146.24 2513.33,-149.2 2512.95,-142.21"/>
</g>
<!-- Node38 -->
<g id="node38" class="node">
<title>Node38</title>
<g id="a_node38"><a xlink:href="cdrom_8c.html" target="_top" xlink:title=" ">
<polygon fill="white" stroke="black" points="3171.5,-67.5 3171.5,-97.5 3278.5,-97.5 3278.5,-67.5 3171.5,-67.5"/>
<text text-anchor="start" x="3179.5" y="-85.5" font-family="Helvetica,sans-Serif" font-size="10.00">iop/sound/audsrv/src</text>
<text text-anchor="middle" x="3225" y="-74.5" font-family="Helvetica,sans-Serif" font-size="10.00">/cdrom.c</text>
</a>
</g>
</g>
<!-- Node17&#45;&gt;Node38 -->
<g id="edge38" class="edge">
<title>Node17&#45;&gt;Node38</title>
<path fill="none" stroke="midnightblue" d="M2513.17,-147.5C2633.15,-144.69 2923.06,-134.4 3163,-98 3165.73,-97.59 3168.52,-97.11 3171.33,-96.6"/>
<polygon fill="midnightblue" stroke="midnightblue" points="2513.04,-144 2503.12,-147.72 2513.2,-151 2513.04,-144"/>
</g>
<!-- Node39 -->
<g id="node39" class="node">
<title>Node39</title>
<g id="a_node39"><a xlink:href="iop_2sound_2audsrv_2src_2irx__imports_8h_source.html" target="_top" xlink:title=" ">
<polygon fill="white" stroke="black" points="3296.5,-67.5 3296.5,-97.5 3403.5,-97.5 3403.5,-67.5 3296.5,-67.5"/>
<text text-anchor="start" x="3304.5" y="-85.5" font-family="Helvetica,sans-Serif" font-size="10.00">iop/sound/audsrv/src</text>
<text text-anchor="middle" x="3350" y="-74.5" font-family="Helvetica,sans-Serif" font-size="10.00">/irx_imports.h</text>
</a>
</g>
</g>
<!-- Node17&#45;&gt;Node39 -->
<g id="edge39" class="edge">
<title>Node17&#45;&gt;Node39</title>
<path fill="none" stroke="midnightblue" d="M2513.3,-148.35C2647.92,-147.28 2998.78,-140.3 3288,-98 3290.73,-97.6 3293.53,-97.14 3296.34,-96.64"/>
<polygon fill="midnightblue" stroke="midnightblue" points="2513.2,-144.85 2503.22,-148.42 2513.25,-151.85 2513.2,-144.85"/>
</g>
<!-- Node40 -->
<g id="node40" class="node">
<title>Node40</title>
<g id="a_node40"><a xlink:href="api_8c_source.html" target="_top" xlink:title=" ">
<polygon fill="white" stroke="black" points="3421.5,-67.5 3421.5,-97.5 3528.5,-97.5 3528.5,-67.5 3421.5,-67.5"/>
<text text-anchor="start" x="3429.5" y="-85.5" font-family="Helvetica,sans-Serif" font-size="10.00">iop/usb/usbhdfsd/src</text>
<text text-anchor="middle" x="3475" y="-74.5" font-family="Helvetica,sans-Serif" font-size="10.00">/api.c</text>
</a>
</g>
</g>
<!-- Node17&#45;&gt;Node40 -->
<g id="edge40" class="edge">
<title>Node17&#45;&gt;Node40</title>
<path fill="none" stroke="midnightblue" d="M2513.25,-148.99C2661.34,-149.53 3073.94,-146.22 3413,-98 3415.74,-97.61 3418.53,-97.16 3421.34,-96.66"/>
<polygon fill="midnightblue" stroke="midnightblue" points="2513.06,-145.49 2503.05,-148.94 2513.03,-152.49 2513.06,-145.49"/>
</g>
<!-- Node41 -->
<g id="node41" class="node">
<title>Node41</title>
<g id="a_node41"><a xlink:href="usb_2usbhdfsd_2src_2fat__write_8c_source.html" target="_top" xlink:title=" ">
<polygon fill="white" stroke="black" points="3546.5,-67.5 3546.5,-97.5 3653.5,-97.5 3653.5,-67.5 3546.5,-67.5"/>
<text text-anchor="start" x="3554.5" y="-85.5" font-family="Helvetica,sans-Serif" font-size="10.00">iop/usb/usbhdfsd/src</text>
<text text-anchor="middle" x="3600" y="-74.5" font-family="Helvetica,sans-Serif" font-size="10.00">/fat_write.c</text>
</a>
</g>
</g>
<!-- Node17&#45;&gt;Node41 -->
<g id="edge41" class="edge">
<title>Node17&#45;&gt;Node41</title>
<path fill="none" stroke="midnightblue" d="M2513.47,-147.23C2706.19,-142.67 3337.12,-125.94 3538,-98 3540.74,-97.62 3543.53,-97.17 3546.34,-96.68"/>
<polygon fill="midnightblue" stroke="midnightblue" points="2513.2,-143.73 2503.28,-147.47 2513.36,-150.73 2513.2,-143.73"/>
</g>
<!-- Node42 -->
<g id="node42" class="node">
<title>Node42</title>
<g id="a_node42"><a xlink:href="iop_2usb_2usbhdfsd_2src_2irx__imports_8h_source.html" target="_top" xlink:title=" ">
<polygon fill="white" stroke="black" points="3671.5,-67.5 3671.5,-97.5 3778.5,-97.5 3778.5,-67.5 3671.5,-67.5"/>
<text text-anchor="start" x="3679.5" y="-85.5" font-family="Helvetica,sans-Serif" font-size="10.00">iop/usb/usbhdfsd/src</text>
<text text-anchor="middle" x="3725" y="-74.5" font-family="Helvetica,sans-Serif" font-size="10.00">/irx_imports.h</text>
</a>
</g>
</g>
<!-- Node17&#45;&gt;Node42 -->
<g id="edge42" class="edge">
<title>Node17&#45;&gt;Node42</title>
<path fill="none" stroke="midnightblue" d="M2513.32,-147.55C2720.01,-143.83 3436.49,-128.95 3663,-98 3665.74,-97.63 3668.53,-97.19 3671.35,-96.7"/>
<polygon fill="midnightblue" stroke="midnightblue" points="2513.23,-144.05 2503.3,-147.72 2513.36,-151.05 2513.23,-144.05"/>
</g>
<!-- Node33 -->
<g id="node33" class="node">
<title>Node33</title>
<g id="a_node33"><a xlink:href="iop_2memorycard_2mcman_2src_2main_8c_source.html" target="_top" xlink:title=" ">
<polygon fill="white" stroke="black" points="2754.5,-0.5 2754.5,-30.5 2875.5,-30.5 2875.5,-0.5 2754.5,-0.5"/>
<text text-anchor="start" x="2762.5" y="-18.5" font-family="Helvetica,sans-Serif" font-size="10.00">iop/memorycard/mcman</text>
<text text-anchor="middle" x="2815" y="-7.5" font-family="Helvetica,sans-Serif" font-size="10.00">/src/main.c</text>
</a>
</g>
</g>
<!-- Node32&#45;&gt;Node33 -->
<g id="edge33" class="edge">
<title>Node32&#45;&gt;Node33</title>
<path fill="none" stroke="midnightblue" d="M3023.22,-65.19C2977.7,-54.54 2918.86,-40.78 2875.35,-30.61"/>
<polygon fill="midnightblue" stroke="midnightblue" points="3022.49,-68.61 3033.02,-67.48 3024.08,-61.79 3022.49,-68.61"/>
</g>
<!-- Node34 -->
<g id="node34" class="node">
<title>Node34</title>
<g id="a_node34"><a xlink:href="mcdev_8c_source.html" target="_top" xlink:title=" ">
<polygon fill="white" stroke="black" points="2893.5,-0.5 2893.5,-30.5 3014.5,-30.5 3014.5,-0.5 2893.5,-0.5"/>
<text text-anchor="start" x="2901.5" y="-18.5" font-family="Helvetica,sans-Serif" font-size="10.00">iop/memorycard/mcman</text>
<text text-anchor="middle" x="2954" y="-7.5" font-family="Helvetica,sans-Serif" font-size="10.00">/src/mcdev.c</text>
</a>
</g>
</g>
<!-- Node32&#45;&gt;Node34 -->
<g id="edge34" class="edge">
<title>Node32&#45;&gt;Node34</title>
<path fill="none" stroke="midnightblue" d="M3053.72,-63.13C3031.63,-52.8 3004.49,-40.11 2984.1,-30.58"/>
<polygon fill="midnightblue" stroke="midnightblue" points="3052.3,-66.33 3062.84,-67.4 3055.26,-59.99 3052.3,-66.33"/>
</g>
<!-- Node35 -->
<g id="node35" class="node">
<title>Node35</title>
<g id="a_node35"><a xlink:href="mcsio2_8c_source.html" target="_top" xlink:title=" ">
<polygon fill="white" stroke="black" points="3032.5,-0.5 3032.5,-30.5 3153.5,-30.5 3153.5,-0.5 3032.5,-0.5"/>
<text text-anchor="start" x="3040.5" y="-18.5" font-family="Helvetica,sans-Serif" font-size="10.00">iop/memorycard/mcman</text>
<text text-anchor="middle" x="3093" y="-7.5" font-family="Helvetica,sans-Serif" font-size="10.00">/src/mcsio2.c</text>
</a>
</g>
</g>
<!-- Node32&#45;&gt;Node35 -->
<g id="edge35" class="edge">
<title>Node32&#45;&gt;Node35</title>
<path fill="none" stroke="midnightblue" d="M3093,-57.11C3093,-48.15 3093,-38.32 3093,-30.58"/>
<polygon fill="midnightblue" stroke="midnightblue" points="3089.5,-57.4 3093,-67.4 3096.5,-57.4 3089.5,-57.4"/>
</g>
<!-- Node36 -->
<g id="node36" class="node">
<title>Node36</title>
<g id="a_node36"><a xlink:href="ps1mc__fio_8c_source.html" target="_top" xlink:title=" ">
<polygon fill="white" stroke="black" points="3171.5,-0.5 3171.5,-30.5 3292.5,-30.5 3292.5,-0.5 3171.5,-0.5"/>
<text text-anchor="start" x="3179.5" y="-18.5" font-family="Helvetica,sans-Serif" font-size="10.00">iop/memorycard/mcman</text>
<text text-anchor="middle" x="3232" y="-7.5" font-family="Helvetica,sans-Serif" font-size="10.00">/src/ps1mc_fio.c</text>
</a>
</g>
</g>
<!-- Node32&#45;&gt;Node36 -->
<g id="edge36" class="edge">
<title>Node32&#45;&gt;Node36</title>
<path fill="none" stroke="midnightblue" d="M3132.28,-63.13C3154.37,-52.8 3181.51,-40.11 3201.9,-30.58"/>
<polygon fill="midnightblue" stroke="midnightblue" points="3130.74,-59.99 3123.16,-67.4 3133.7,-66.33 3130.74,-59.99"/>
</g>
<!-- Node37 -->
<g id="node37" class="node">
<title>Node37</title>
<g id="a_node37"><a xlink:href="ps2mc__fio_8c_source.html" target="_top" xlink:title=" ">
<polygon fill="white" stroke="black" points="3310.5,-0.5 3310.5,-30.5 3431.5,-30.5 3431.5,-0.5 3310.5,-0.5"/>
<text text-anchor="start" x="3318.5" y="-18.5" font-family="Helvetica,sans-Serif" font-size="10.00">iop/memorycard/mcman</text>
<text text-anchor="middle" x="3371" y="-7.5" font-family="Helvetica,sans-Serif" font-size="10.00">/src/ps2mc_fio.c</text>
</a>
</g>
</g>
<!-- Node32&#45;&gt;Node37 -->
<g id="edge37" class="edge">
<title>Node32&#45;&gt;Node37</title>
<path fill="none" stroke="midnightblue" d="M3162.78,-65.19C3208.3,-54.54 3267.14,-40.78 3310.65,-30.61"/>
<polygon fill="midnightblue" stroke="midnightblue" points="3161.92,-61.79 3152.98,-67.48 3163.51,-68.61 3161.92,-61.79"/>
</g>
</g>
</svg>
        <g id="navigator" transform="translate(0 0)" fill="#404254">
                <rect fill="#f2f5e9" fill-opacity="0.5" stroke="#606060" stroke-width=".5" x="0" y="0" width="60" height="60"/>
                <use id="zoomplus" xlink:href="#zoomPlus" x="17" y="9" onmousedown="handleZoom(evt,'in')"/>
                <use id="zoomminus" xlink:href="#zoomMin" x="42" y="9" onmousedown="handleZoom(evt,'out')"/>
                <use id="reset" xlink:href="#resetDef" x="30" y="36" onmousedown="handleReset()"/>
                <g id="arrowUp" xlink:href="#dirArrow" transform="translate(30 24)" onmousedown="handlePan(0,-1)">
                  <use xlink:href="#rim" fill="#404040">
                        <set attributeName="fill" to="#808080" begin="arrowUp.mouseover" end="arrowUp.mouseout"/>
                  </use>
                  <path fill="none" stroke="white" stroke-width="1.5" d="M0,-3.0v7 M-2.5,-0.5L0,-3.0L2.5,-0.5"/>
                </g>
                <g id="arrowRight" xlink:href="#dirArrow" transform="rotate(90) translate(36 -43)" onmousedown="handlePan(1,0)">
                  <use xlink:href="#rim" fill="#404040">
                        <set attributeName="fill" to="#808080" begin="arrowRight.mouseover" end="arrowRight.mouseout"/>
                  </use>
                  <path fill="none" stroke="white" stroke-width="1.5" d="M0,-3.0v7 M-2.5,-0.5L0,-3.0L2.5,-0.5"/>
                </g>
                <g id="arrowDown" xlink:href="#dirArrow" transform="rotate(180) translate(-30 -48)" onmousedown="handlePan(0,1)">
                  <use xlink:href="#rim" fill="#404040">
                        <set attributeName="fill" to="#808080" begin="arrowDown.mouseover" end="arrowDown.mouseout"/>
                  </use>
                  <path fill="none" stroke="white" stroke-width="1.5" d="M0,-3.0v7 M-2.5,-0.5L0,-3.0L2.5,-0.5"/>
                </g>
                <g id="arrowLeft" xlink:href="#dirArrow" transform="rotate(270) translate(-36 17)" onmousedown="handlePan(-1,0)">
                  <use xlink:href="#rim" fill="#404040">
                        <set attributeName="fill" to="#808080" begin="arrowLeft.mouseover" end="arrowLeft.mouseout"/>
                  </use>
                  <path fill="none" stroke="white" stroke-width="1.5" d="M0,-3.0v7 M-2.5,-0.5L0,-3.0L2.5,-0.5"/>
                </g>
        </g>
        <svg viewBox="0 0 15 15" width="100%" height="30px" preserveAspectRatio="xMaxYMin meet">
         <g id="arrow_out" transform="scale(0.3 0.3)">
          <a xlink:href="libcdvd-common_8h__dep__incl_org.svg" target="_base">
           <rect id="button" ry="5" rx="5" y="6" x="6" height="38" width="38"
                fill="#f2f5e9" fill-opacity="0.5" stroke="#606060" stroke-width="1.0"/>
           <path id="arrow"
             d="M 11.500037,31.436501 C 11.940474,20.09759 22.043105,11.32322 32.158766,21.979434 L 37.068811,17.246167 C 37.068811,17.246167 37.088388,32 37.088388,32 L 22.160133,31.978069 C 22.160133,31.978069 26.997745,27.140456 26.997745,27.140456 C 18.528582,18.264221 13.291696,25.230495 11.500037,31.436501 z"
             style="fill:#404040;"/>
          </a>
         </g>
        </svg>
</svg>
