<?xml version="1.0" encoding="UTF-8" standalone="no"?>
<!DOCTYPE svg PUBLIC "-//W3C//DTD SVG 1.1//EN"
 "http://www.w3.org/Graphics/SVG/1.1/DTD/svg11.dtd">
<!-- Generated by graphviz version 2.44.0 ()
 -->
<!-- Title: ee/rpc/hdd/include/libhdd.h Pages: 1 -->
<svg width="179pt" height="151pt"
 viewBox="0.00 0.00 179.00 151.00" xmlns="http://www.w3.org/2000/svg" xmlns:xlink="http://www.w3.org/1999/xlink">
<g id="graph0" class="graph" transform="scale(1 1) rotate(0) translate(4 147)">
<title>ee/rpc/hdd/include/libhdd.h</title>
<polygon fill="white" stroke="transparent" points="-4,4 -4,-147 175,-147 175,4 -4,4"/>
<!-- Node1 -->
<g id="node1" class="node">
<title>Node1</title>
<g id="a_node1"><a xlink:title=" ">
<polygon fill="#bfbfbf" stroke="black" points="14,-112.5 14,-142.5 110,-142.5 110,-112.5 14,-112.5"/>
<text text-anchor="start" x="22" y="-130.5" font-family="Helvetica,sans-Serif" font-size="10.00">ee/rpc/hdd/include</text>
<text text-anchor="middle" x="62" y="-119.5" font-family="Helvetica,sans-Serif" font-size="10.00">/libhdd.h</text>
</a>
</g>
</g>
<!-- Node2 -->
<g id="node2" class="node">
<title>Node2</title>
<g id="a_node2"><a xlink:href="tamtypes_8h.html" target="_top" xlink:title=" ">
<polygon fill="white" stroke="black" points="0,-0.5 0,-19.5 64,-19.5 64,-0.5 0,-0.5"/>
<text text-anchor="middle" x="32" y="-7.5" font-family="Helvetica,sans-Serif" font-size="10.00">tamtypes.h</text>
</a>
</g>
</g>
<!-- Node1&#45;&gt;Node2 -->
<g id="edge1" class="edge">
<title>Node1&#45;&gt;Node2</title>
<path fill="none" stroke="midnightblue" d="M46.35,-112.25C37.34,-102.93 26.85,-89.94 22,-76 16.67,-60.68 20.33,-42.36 24.65,-29.07"/>
<polygon fill="midnightblue" stroke="midnightblue" points="27.95,-30.25 28.09,-19.65 21.37,-27.84 27.95,-30.25"/>
</g>
<!-- Node3 -->
<g id="node3" class="node">
<title>Node3</title>
<g id="a_node3"><a xlink:href="hdd-ioctl_8h.html" target="_top" xlink:title=" ">
<polygon fill="white" stroke="black" points="31.5,-56.5 31.5,-75.5 92.5,-75.5 92.5,-56.5 31.5,-56.5"/>
<text text-anchor="middle" x="62" y="-63.5" font-family="Helvetica,sans-Serif" font-size="10.00">hdd&#45;ioctl.h</text>
</a>
</g>
</g>
<!-- Node1&#45;&gt;Node3 -->
<g id="edge2" class="edge">
<title>Node1&#45;&gt;Node3</title>
<path fill="none" stroke="midnightblue" d="M62,-112.4C62,-104.47 62,-94.46 62,-85.86"/>
<polygon fill="midnightblue" stroke="midnightblue" points="65.5,-85.66 62,-75.66 58.5,-85.66 65.5,-85.66"/>
</g>
<!-- Node4 -->
<g id="node4" class="node">
<title>Node4</title>
<g id="a_node4"><a xlink:href="libpwroff_8h.html" target="_top" xlink:title="Power&#45;off library.">
<polygon fill="white" stroke="black" points="111,-56.5 111,-75.5 171,-75.5 171,-56.5 111,-56.5"/>
<text text-anchor="middle" x="141" y="-63.5" font-family="Helvetica,sans-Serif" font-size="10.00">libpwroff.h</text>
</a>
</g>
</g>
<!-- Node1&#45;&gt;Node4 -->
<g id="edge4" class="edge">
<title>Node1&#45;&gt;Node4</title>
<path fill="none" stroke="midnightblue" d="M80.72,-112.4C92.91,-103.22 108.79,-91.26 121.19,-81.92"/>
<polygon fill="midnightblue" stroke="midnightblue" points="123.62,-84.47 129.5,-75.66 119.41,-78.88 123.62,-84.47"/>
</g>
<!-- Node3&#45;&gt;Node2 -->
<g id="edge3" class="edge">
<title>Node3&#45;&gt;Node2</title>
<path fill="none" stroke="midnightblue" d="M57.05,-56.08C52.9,-48.61 46.85,-37.72 41.73,-28.52"/>
<polygon fill="midnightblue" stroke="midnightblue" points="44.78,-26.79 36.86,-19.75 38.66,-30.19 44.78,-26.79"/>
</g>
</g>
</svg>
