<?xml version="1.0" encoding="UTF-8" standalone="no"?>
<!DOCTYPE svg PUBLIC "-//W3C//DTD SVG 1.1//EN"
 "http://www.w3.org/Graphics/SVG/1.1/DTD/svg11.dtd">
<!-- Generated by graphviz version 2.43.0 (0)
 -->
<!-- Title: ee/rpc/mouse/src/libmouse.c Pages: 1 -->
<svg width="482pt" height="308pt"
 viewBox="0.00 0.00 481.70 308.00" xmlns="http://www.w3.org/2000/svg" xmlns:xlink="http://www.w3.org/1999/xlink">
<g id="graph0" class="graph" transform="scale(1 1) rotate(0) translate(4 304)">
<title>ee/rpc/mouse/src/libmouse.c</title>
<polygon fill="white" stroke="transparent" points="-4,4 -4,-304 477.7,-304 477.7,4 -4,4"/>
<!-- Node1 -->
<g id="node1" class="node">
<title>Node1</title>
<g id="a_node1"><a xlink:title=" ">
<polygon fill="#bfbfbf" stroke="black" points="183.7,-280.5 183.7,-299.5 339.7,-299.5 339.7,-280.5 183.7,-280.5"/>
<text text-anchor="middle" x="261.7" y="-287.5" font-family="Helvetica,sans-Serif" font-size="10.00">ee/rpc/mouse/src/libmouse.c</text>
</a>
</g>
</g>
<!-- Node2 -->
<g id="node2" class="node">
<title>Node2</title>
<g id="a_node2"><a xlink:href="stdio_8h.html" target="_top" xlink:title=" ">
<polygon fill="white" stroke="black" points="254.7,-168.5 254.7,-187.5 304.7,-187.5 304.7,-168.5 254.7,-168.5"/>
<text text-anchor="middle" x="279.7" y="-175.5" font-family="Helvetica,sans-Serif" font-size="10.00">stdio.h</text>
</a>
</g>
</g>
<!-- Node1&#45;&gt;Node2 -->
<g id="edge1" class="edge">
<title>Node1&#45;&gt;Node2</title>
<path fill="none" stroke="midnightblue" d="M263.12,-280.37C266.02,-262.62 272.72,-221.67 276.66,-197.6"/>
<polygon fill="midnightblue" stroke="midnightblue" points="280.14,-198.03 278.3,-187.59 273.23,-196.89 280.14,-198.03"/>
</g>
<!-- Node7 -->
<g id="node7" class="node">
<title>Node7</title>
<g id="a_node7"><a xlink:href="tamtypes_8h.html" target="_top" xlink:title=" ">
<polygon fill="white" stroke="black" points="172.7,-0.5 172.7,-19.5 244.7,-19.5 244.7,-0.5 172.7,-0.5"/>
<text text-anchor="middle" x="208.7" y="-7.5" font-family="Helvetica,sans-Serif" font-size="10.00">tamtypes.h</text>
</a>
</g>
</g>
<!-- Node1&#45;&gt;Node7 -->
<g id="edge7" class="edge">
<title>Node1&#45;&gt;Node7</title>
<path fill="none" stroke="midnightblue" d="M183.39,-287.73C106.52,-281.83 0.7,-259.15 0.7,-179 0.7,-179 0.7,-179 0.7,-121 0.7,-90.9 -2.11,-76.74 19.7,-56 39.96,-36.74 113.19,-23.56 162.32,-16.66"/>
<polygon fill="midnightblue" stroke="midnightblue" points="162.97,-20.1 172.41,-15.28 162.03,-13.17 162.97,-20.1"/>
</g>
<!-- Node8 -->
<g id="node8" class="node">
<title>Node8</title>
<g id="a_node8"><a xlink:title=" ">
<polygon fill="white" stroke="#bfbfbf" points="328.2,-224.5 328.2,-243.5 381.2,-243.5 381.2,-224.5 328.2,-224.5"/>
<text text-anchor="middle" x="354.7" y="-231.5" font-family="Helvetica,sans-Serif" font-size="10.00">sifrpc.h</text>
</a>
</g>
</g>
<!-- Node1&#45;&gt;Node8 -->
<g id="edge8" class="edge">
<title>Node1&#45;&gt;Node8</title>
<path fill="none" stroke="midnightblue" d="M276.65,-280.32C291.29,-271.82 313.84,-258.73 330.94,-248.8"/>
<polygon fill="midnightblue" stroke="midnightblue" points="332.91,-251.7 339.8,-243.65 329.39,-245.65 332.91,-251.7"/>
</g>
<!-- Node9 -->
<g id="node9" class="node">
<title>Node9</title>
<g id="a_node9"><a xlink:href="kernel_8h.html" target="_top" xlink:title=" ">
<polygon fill="white" stroke="black" points="359.7,-168.5 359.7,-187.5 415.7,-187.5 415.7,-168.5 359.7,-168.5"/>
<text text-anchor="middle" x="387.7" y="-175.5" font-family="Helvetica,sans-Serif" font-size="10.00">kernel.h</text>
</a>
</g>
</g>
<!-- Node1&#45;&gt;Node9 -->
<g id="edge9" class="edge">
<title>Node1&#45;&gt;Node9</title>
<path fill="none" stroke="midnightblue" d="M268.22,-280.36C278.36,-267.27 298.89,-242.01 319.7,-224 333.27,-212.26 350.07,-201.11 363.58,-192.85"/>
<polygon fill="midnightblue" stroke="midnightblue" points="365.54,-195.76 372.33,-187.62 361.95,-189.75 365.54,-195.76"/>
</g>
<!-- Node12 -->
<g id="node12" class="node">
<title>Node12</title>
<g id="a_node12"><a xlink:href="string_8h_source.html" target="_top" xlink:title=" ">
<polygon fill="white" stroke="black" points="180.2,-224.5 180.2,-243.5 233.2,-243.5 233.2,-224.5 180.2,-224.5"/>
<text text-anchor="middle" x="206.7" y="-231.5" font-family="Helvetica,sans-Serif" font-size="10.00">string.h</text>
</a>
</g>
</g>
<!-- Node1&#45;&gt;Node12 -->
<g id="edge16" class="edge">
<title>Node1&#45;&gt;Node12</title>
<path fill="none" stroke="midnightblue" d="M252.62,-280.08C244.53,-272.14 232.51,-260.34 222.79,-250.8"/>
<polygon fill="midnightblue" stroke="midnightblue" points="225.2,-248.26 215.62,-243.75 220.3,-253.25 225.2,-248.26"/>
</g>
<!-- Node17 -->
<g id="node17" class="node">
<title>Node17</title>
<g id="a_node17"><a xlink:href="iopcontrol_8h.html" target="_top" xlink:title=" ">
<polygon fill="white" stroke="black" points="399.7,-224.5 399.7,-243.5 473.7,-243.5 473.7,-224.5 399.7,-224.5"/>
<text text-anchor="middle" x="436.7" y="-231.5" font-family="Helvetica,sans-Serif" font-size="10.00">iopcontrol.h</text>
</a>
</g>
</g>
<!-- Node1&#45;&gt;Node17 -->
<g id="edge24" class="edge">
<title>Node1&#45;&gt;Node17</title>
<path fill="none" stroke="midnightblue" d="M289.43,-280.44C319.13,-271.28 366.42,-256.69 399.37,-246.52"/>
<polygon fill="midnightblue" stroke="midnightblue" points="400.58,-249.81 409.1,-243.52 398.52,-243.12 400.58,-249.81"/>
</g>
<!-- Node18 -->
<g id="node18" class="node">
<title>Node18</title>
<g id="a_node18"><a xlink:href="libmouse_8h.html" target="_top" xlink:title=" ">
<polygon fill="white" stroke="black" points="67.2,-224.5 67.2,-243.5 138.2,-243.5 138.2,-224.5 67.2,-224.5"/>
<text text-anchor="middle" x="102.7" y="-231.5" font-family="Helvetica,sans-Serif" font-size="10.00">libmouse.h</text>
</a>
</g>
</g>
<!-- Node1&#45;&gt;Node18 -->
<g id="edge25" class="edge">
<title>Node1&#45;&gt;Node18</title>
<path fill="none" stroke="midnightblue" d="M236.51,-280.44C209.76,-271.36 167.3,-256.94 137.4,-246.78"/>
<polygon fill="midnightblue" stroke="midnightblue" points="138.37,-243.42 127.78,-243.52 136.12,-250.05 138.37,-243.42"/>
</g>
<!-- Node3 -->
<g id="node3" class="node">
<title>Node3</title>
<g id="a_node3"><a xlink:title=" ">
<polygon fill="white" stroke="#bfbfbf" points="303.7,-112.5 303.7,-131.5 359.7,-131.5 359.7,-112.5 303.7,-112.5"/>
<text text-anchor="middle" x="331.7" y="-119.5" font-family="Helvetica,sans-Serif" font-size="10.00">stdarg.h</text>
</a>
</g>
</g>
<!-- Node2&#45;&gt;Node3 -->
<g id="edge2" class="edge">
<title>Node2&#45;&gt;Node3</title>
<path fill="none" stroke="midnightblue" d="M288.29,-168.08C295.86,-160.22 307.08,-148.57 316.22,-139.08"/>
<polygon fill="midnightblue" stroke="midnightblue" points="318.86,-141.38 323.28,-131.75 313.82,-136.53 318.86,-141.38"/>
</g>
<!-- Node4 -->
<g id="node4" class="node">
<title>Node4</title>
<g id="a_node4"><a xlink:href="irx_8h.html" target="_top" xlink:title=" ">
<polygon fill="white" stroke="black" points="247.7,-112.5 247.7,-131.5 285.7,-131.5 285.7,-112.5 247.7,-112.5"/>
<text text-anchor="middle" x="266.7" y="-119.5" font-family="Helvetica,sans-Serif" font-size="10.00">irx.h</text>
</a>
</g>
</g>
<!-- Node2&#45;&gt;Node4 -->
<g id="edge3" class="edge">
<title>Node2&#45;&gt;Node4</title>
<path fill="none" stroke="midnightblue" d="M277.56,-168.08C275.83,-160.93 273.36,-150.64 271.2,-141.69"/>
<polygon fill="midnightblue" stroke="midnightblue" points="274.55,-140.65 268.81,-131.75 267.75,-142.29 274.55,-140.65"/>
</g>
<!-- Node5 -->
<g id="node5" class="node">
<title>Node5</title>
<g id="a_node5"><a xlink:href="iop_2kernel_2include_2types_8h_source.html" target="_top" xlink:title=" ">
<polygon fill="white" stroke="black" points="277.2,-56.5 277.2,-75.5 330.2,-75.5 330.2,-56.5 277.2,-56.5"/>
<text text-anchor="middle" x="303.7" y="-63.5" font-family="Helvetica,sans-Serif" font-size="10.00">types.h</text>
</a>
</g>
</g>
<!-- Node4&#45;&gt;Node5 -->
<g id="edge4" class="edge">
<title>Node4&#45;&gt;Node5</title>
<path fill="none" stroke="midnightblue" d="M272.81,-112.08C277.99,-104.53 285.55,-93.49 291.9,-84.23"/>
<polygon fill="midnightblue" stroke="midnightblue" points="294.94,-85.98 297.71,-75.75 289.17,-82.02 294.94,-85.98"/>
</g>
<!-- Node6 -->
<g id="node6" class="node">
<title>Node6</title>
<g id="a_node6"><a xlink:title=" ">
<polygon fill="white" stroke="#bfbfbf" points="296.7,-0.5 296.7,-19.5 352.7,-19.5 352.7,-0.5 296.7,-0.5"/>
<text text-anchor="middle" x="324.7" y="-7.5" font-family="Helvetica,sans-Serif" font-size="10.00">stddef.h</text>
</a>
</g>
</g>
<!-- Node5&#45;&gt;Node6 -->
<g id="edge5" class="edge">
<title>Node5&#45;&gt;Node6</title>
<path fill="none" stroke="midnightblue" d="M307.17,-56.08C310.02,-48.77 314.13,-38.18 317.66,-29.1"/>
<polygon fill="midnightblue" stroke="midnightblue" points="320.94,-30.34 321.3,-19.75 314.41,-27.8 320.94,-30.34"/>
</g>
<!-- Node5&#45;&gt;Node7 -->
<g id="edge6" class="edge">
<title>Node5&#45;&gt;Node7</title>
<path fill="none" stroke="midnightblue" d="M288.44,-56.32C273.48,-47.82 250.45,-34.73 232.98,-24.8"/>
<polygon fill="midnightblue" stroke="midnightblue" points="234.35,-21.55 223.93,-19.65 230.89,-27.64 234.35,-21.55"/>
</g>
<!-- Node9&#45;&gt;Node3 -->
<g id="edge11" class="edge">
<title>Node9&#45;&gt;Node3</title>
<path fill="none" stroke="midnightblue" d="M378.71,-168.32C370.51,-160.42 358.2,-148.55 348.23,-138.94"/>
<polygon fill="midnightblue" stroke="midnightblue" points="350.49,-136.26 340.86,-131.83 345.63,-141.29 350.49,-136.26"/>
</g>
<!-- Node9&#45;&gt;Node6 -->
<g id="edge10" class="edge">
<title>Node9&#45;&gt;Node6</title>
<path fill="none" stroke="midnightblue" d="M399.55,-168.44C426.18,-148.14 486.28,-95.83 457.7,-56 436.32,-26.19 394.12,-15.88 362.96,-12.44"/>
<polygon fill="midnightblue" stroke="midnightblue" points="363.14,-8.94 352.87,-11.52 362.51,-15.91 363.14,-8.94"/>
</g>
<!-- Node10 -->
<g id="node10" class="node">
<title>Node10</title>
<g id="a_node10"><a xlink:href="sifdma_8h.html" target="_top" xlink:title=" ">
<polygon fill="white" stroke="black" points="200.2,-56.5 200.2,-75.5 259.2,-75.5 259.2,-56.5 200.2,-56.5"/>
<text text-anchor="middle" x="229.7" y="-63.5" font-family="Helvetica,sans-Serif" font-size="10.00">sifdma.h</text>
</a>
</g>
</g>
<!-- Node9&#45;&gt;Node10 -->
<g id="edge12" class="edge">
<title>Node9&#45;&gt;Node10</title>
<path fill="none" stroke="midnightblue" d="M387.62,-168.15C387,-154.31 383.78,-127.51 368.7,-112 361.54,-104.63 307.77,-88.56 269.25,-77.76"/>
<polygon fill="midnightblue" stroke="midnightblue" points="269.91,-74.31 259.34,-75 268.03,-81.05 269.91,-74.31"/>
</g>
<!-- Node11 -->
<g id="node11" class="node">
<title>Node11</title>
<g id="a_node11"><a xlink:href="mipscopaccess_8h.html" target="_top" xlink:title=" ">
<polygon fill="white" stroke="black" points="348.7,-56.5 348.7,-75.5 448.7,-75.5 448.7,-56.5 348.7,-56.5"/>
<text text-anchor="middle" x="398.7" y="-63.5" font-family="Helvetica,sans-Serif" font-size="10.00">mipscopaccess.h</text>
</a>
</g>
</g>
<!-- Node9&#45;&gt;Node11 -->
<g id="edge14" class="edge">
<title>Node9&#45;&gt;Node11</title>
<path fill="none" stroke="midnightblue" d="M391.3,-168.22C394.76,-159.28 399.74,-144.94 401.7,-132 404.04,-116.62 403,-98.99 401.53,-85.97"/>
<polygon fill="midnightblue" stroke="midnightblue" points="404.98,-85.35 400.21,-75.89 398.04,-86.26 404.98,-85.35"/>
</g>
<!-- Node10&#45;&gt;Node7 -->
<g id="edge13" class="edge">
<title>Node10&#45;&gt;Node7</title>
<path fill="none" stroke="midnightblue" d="M226.24,-56.08C223.39,-48.77 219.27,-38.18 215.74,-29.1"/>
<polygon fill="midnightblue" stroke="midnightblue" points="218.99,-27.8 212.11,-19.75 212.47,-30.34 218.99,-27.8"/>
</g>
<!-- Node11&#45;&gt;Node7 -->
<g id="edge15" class="edge">
<title>Node11&#45;&gt;Node7</title>
<path fill="none" stroke="midnightblue" d="M368.6,-56.44C336.08,-47.2 284.13,-32.44 248.31,-22.26"/>
<polygon fill="midnightblue" stroke="midnightblue" points="249.24,-18.88 238.67,-19.52 247.33,-25.62 249.24,-18.88"/>
</g>
<!-- Node13 -->
<g id="node13" class="node">
<title>Node13</title>
<g id="a_node13"><a xlink:href="sysclib_8h.html" target="_top" xlink:title=" ">
<polygon fill="white" stroke="black" points="177.2,-168.5 177.2,-187.5 236.2,-187.5 236.2,-168.5 177.2,-168.5"/>
<text text-anchor="middle" x="206.7" y="-175.5" font-family="Helvetica,sans-Serif" font-size="10.00">sysclib.h</text>
</a>
</g>
</g>
<!-- Node12&#45;&gt;Node13 -->
<g id="edge17" class="edge">
<title>Node12&#45;&gt;Node13</title>
<path fill="none" stroke="midnightblue" d="M206.7,-224.08C206.7,-217.01 206.7,-206.86 206.7,-197.99"/>
<polygon fill="midnightblue" stroke="midnightblue" points="210.2,-197.75 206.7,-187.75 203.2,-197.75 210.2,-197.75"/>
</g>
<!-- Node13&#45;&gt;Node3 -->
<g id="edge20" class="edge">
<title>Node13&#45;&gt;Node3</title>
<path fill="none" stroke="midnightblue" d="M226.51,-168.44C246.99,-159.6 279.19,-145.69 302.57,-135.59"/>
<polygon fill="midnightblue" stroke="midnightblue" points="304.2,-138.7 311.99,-131.52 301.42,-132.27 304.2,-138.7"/>
</g>
<!-- Node13&#45;&gt;Node4 -->
<g id="edge19" class="edge">
<title>Node13&#45;&gt;Node4</title>
<path fill="none" stroke="midnightblue" d="M216.34,-168.32C225.21,-160.34 238.58,-148.31 249.31,-138.65"/>
<polygon fill="midnightblue" stroke="midnightblue" points="251.8,-141.13 256.89,-131.83 247.11,-135.92 251.8,-141.13"/>
</g>
<!-- Node14 -->
<g id="node14" class="node">
<title>Node14</title>
<g id="a_node14"><a xlink:title=" ">
<polygon fill="white" stroke="#bfbfbf" points="67.2,-112.5 67.2,-131.5 120.2,-131.5 120.2,-112.5 67.2,-112.5"/>
<text text-anchor="middle" x="93.7" y="-119.5" font-family="Helvetica,sans-Serif" font-size="10.00">types.h</text>
</a>
</g>
</g>
<!-- Node13&#45;&gt;Node14 -->
<g id="edge18" class="edge">
<title>Node13&#45;&gt;Node14</title>
<path fill="none" stroke="midnightblue" d="M188.8,-168.44C170.45,-159.68 141.7,-145.94 120.61,-135.86"/>
<polygon fill="midnightblue" stroke="midnightblue" points="122.06,-132.67 111.53,-131.52 119.04,-138.99 122.06,-132.67"/>
</g>
<!-- Node15 -->
<g id="node15" class="node">
<title>Node15</title>
<g id="a_node15"><a xlink:href="setjmp_8h.html" target="_top" xlink:title=" ">
<polygon fill="white" stroke="black" points="123.2,-56.5 123.2,-75.5 182.2,-75.5 182.2,-56.5 123.2,-56.5"/>
<text text-anchor="middle" x="152.7" y="-63.5" font-family="Helvetica,sans-Serif" font-size="10.00">setjmp.h</text>
</a>
</g>
</g>
<!-- Node13&#45;&gt;Node15 -->
<g id="edge21" class="edge">
<title>Node13&#45;&gt;Node15</title>
<path fill="none" stroke="midnightblue" d="M207.76,-168.49C208.97,-155.56 209.76,-130.53 200.7,-112 194.8,-99.94 184.2,-89.46 174.46,-81.66"/>
<polygon fill="midnightblue" stroke="midnightblue" points="176.36,-78.71 166.26,-75.52 172.16,-84.32 176.36,-78.71"/>
</g>
<!-- Node16 -->
<g id="node16" class="node">
<title>Node16</title>
<g id="a_node16"><a xlink:href="ctype_8h.html" target="_top" xlink:title=" ">
<polygon fill="white" stroke="black" points="138.2,-112.5 138.2,-131.5 191.2,-131.5 191.2,-112.5 138.2,-112.5"/>
<text text-anchor="middle" x="164.7" y="-119.5" font-family="Helvetica,sans-Serif" font-size="10.00">ctype.h</text>
</a>
</g>
</g>
<!-- Node13&#45;&gt;Node16 -->
<g id="edge23" class="edge">
<title>Node13&#45;&gt;Node16</title>
<path fill="none" stroke="midnightblue" d="M199.77,-168.08C193.77,-160.38 184.95,-149.03 177.66,-139.65"/>
<polygon fill="midnightblue" stroke="midnightblue" points="180.41,-137.5 171.51,-131.75 174.89,-141.79 180.41,-137.5"/>
</g>
<!-- Node15&#45;&gt;Node7 -->
<g id="edge22" class="edge">
<title>Node15&#45;&gt;Node7</title>
<path fill="none" stroke="midnightblue" d="M161.7,-56.32C169.9,-48.42 182.21,-36.55 192.18,-26.94"/>
<polygon fill="midnightblue" stroke="midnightblue" points="194.77,-29.29 199.54,-19.83 189.91,-24.26 194.77,-29.29"/>
</g>
<!-- Node19 -->
<g id="node19" class="node">
<title>Node19</title>
<g id="a_node19"><a xlink:href="ee_2rpc_2mouse_2include_2ps2mouse_8h.html" target="_top" xlink:title=" ">
<polygon fill="white" stroke="black" points="28.7,-56.5 28.7,-75.5 104.7,-75.5 104.7,-56.5 28.7,-56.5"/>
<text text-anchor="middle" x="66.7" y="-63.5" font-family="Helvetica,sans-Serif" font-size="10.00">ps2mouse.h</text>
</a>
</g>
</g>
<!-- Node18&#45;&gt;Node19 -->
<g id="edge26" class="edge">
<title>Node18&#45;&gt;Node19</title>
<path fill="none" stroke="midnightblue" d="M97.27,-224.24C87.07,-207.24 65.41,-168.24 57.7,-132 54.41,-116.5 57.35,-98.66 60.72,-85.6"/>
<polygon fill="midnightblue" stroke="midnightblue" points="64.11,-86.48 63.53,-75.9 57.39,-84.53 64.11,-86.48"/>
</g>
<!-- Node19&#45;&gt;Node7 -->
<g id="edge27" class="edge">
<title>Node19&#45;&gt;Node7</title>
<path fill="none" stroke="midnightblue" d="M89.2,-56.44C112.78,-47.48 150.03,-33.31 176.67,-23.18"/>
<polygon fill="midnightblue" stroke="midnightblue" points="178.21,-26.34 186.31,-19.52 175.72,-19.8 178.21,-26.34"/>
</g>
</g>
</svg>
