<?xml version="1.0" encoding="UTF-8" standalone="no"?>
<!DOCTYPE svg PUBLIC "-//W3C//DTD SVG 1.1//EN"
 "http://www.w3.org/Graphics/SVG/1.1/DTD/svg11.dtd">
<!-- Generated by graphviz version 2.44.0 ()
 -->
<!-- Title: common/include/libmc&#45;common.h Pages: 1 -->
<svg width="959pt" height="240pt"
 viewBox="0.00 0.00 958.50 240.00" xmlns="http://www.w3.org/2000/svg" xmlns:xlink="http://www.w3.org/1999/xlink">
<g id="graph0" class="graph" transform="scale(1 1) rotate(0) translate(4 236)">
<title>common/include/libmc&#45;common.h</title>
<polygon fill="white" stroke="transparent" points="-4,4 -4,-236 954.5,-236 954.5,4 -4,4"/>
<!-- Node1 -->
<g id="node1" class="node">
<title>Node1</title>
<g id="a_node1"><a xlink:title=" ">
<polygon fill="#bfbfbf" stroke="black" points="209,-201.5 209,-231.5 323,-231.5 323,-201.5 209,-201.5"/>
<text text-anchor="start" x="217" y="-219.5" font-family="Helvetica,sans-Serif" font-size="10.00">common/include/libmc</text>
<text text-anchor="middle" x="266" y="-208.5" font-family="Helvetica,sans-Serif" font-size="10.00">&#45;common.h</text>
</a>
</g>
</g>
<!-- Node2 -->
<g id="node2" class="node">
<title>Node2</title>
<g id="a_node2"><a xlink:href="libmc_8h.html" target="_top" xlink:title=" ">
<polygon fill="white" stroke="black" points="126,-134.5 126,-164.5 260,-164.5 260,-134.5 126,-134.5"/>
<text text-anchor="start" x="134" y="-152.5" font-family="Helvetica,sans-Serif" font-size="10.00">ee/rpc/memorycard/include</text>
<text text-anchor="middle" x="193" y="-141.5" font-family="Helvetica,sans-Serif" font-size="10.00">/libmc.h</text>
</a>
</g>
</g>
<!-- Node1&#45;&gt;Node2 -->
<g id="edge1" class="edge">
<title>Node1&#45;&gt;Node2</title>
<path fill="none" stroke="midnightblue" d="M242.53,-194.6C231.5,-184.78 218.66,-173.34 208.81,-164.58"/>
<polygon fill="midnightblue" stroke="midnightblue" points="240.36,-197.36 250.16,-201.4 245.02,-192.13 240.36,-197.36"/>
</g>
<!-- Node4 -->
<g id="node4" class="node">
<title>Node4</title>
<g id="a_node4"><a xlink:href="mcman_8h.html" target="_top" xlink:title=" ">
<polygon fill="white" stroke="black" points="412.5,-134.5 412.5,-164.5 533.5,-164.5 533.5,-134.5 412.5,-134.5"/>
<text text-anchor="start" x="420.5" y="-152.5" font-family="Helvetica,sans-Serif" font-size="10.00">iop/memorycard/mcman</text>
<text text-anchor="middle" x="473" y="-141.5" font-family="Helvetica,sans-Serif" font-size="10.00">/include/mcman.h</text>
</a>
</g>
</g>
<!-- Node1&#45;&gt;Node4 -->
<g id="edge3" class="edge">
<title>Node1&#45;&gt;Node4</title>
<path fill="none" stroke="midnightblue" d="M320.32,-198.44C353.87,-187.91 396.41,-174.55 428.06,-164.61"/>
<polygon fill="midnightblue" stroke="midnightblue" points="319.15,-195.14 310.66,-201.48 321.25,-201.82 319.15,-195.14"/>
</g>
<!-- Node3 -->
<g id="node3" class="node">
<title>Node3</title>
<g id="a_node3"><a xlink:href="libmc_8c.html" target="_top" xlink:title=" ">
<polygon fill="white" stroke="black" points="0,-67.5 0,-97.5 116,-97.5 116,-67.5 0,-67.5"/>
<text text-anchor="start" x="8" y="-85.5" font-family="Helvetica,sans-Serif" font-size="10.00">ee/rpc/memorycard/src</text>
<text text-anchor="middle" x="58" y="-74.5" font-family="Helvetica,sans-Serif" font-size="10.00">/libmc.c</text>
</a>
</g>
</g>
<!-- Node2&#45;&gt;Node3 -->
<g id="edge2" class="edge">
<title>Node2&#45;&gt;Node3</title>
<path fill="none" stroke="midnightblue" d="M154.56,-129.99C133.16,-119.69 106.95,-107.07 87.24,-97.58"/>
<polygon fill="midnightblue" stroke="midnightblue" points="153.18,-133.21 163.71,-134.4 156.22,-126.9 153.18,-133.21"/>
</g>
<!-- Node5 -->
<g id="node5" class="node">
<title>Node5</title>
<g id="a_node5"><a xlink:href="iop_2memorycard_2mcman_2src_2main_8c_source.html" target="_top" xlink:title=" ">
<polygon fill="white" stroke="black" points="134.5,-67.5 134.5,-97.5 255.5,-97.5 255.5,-67.5 134.5,-67.5"/>
<text text-anchor="start" x="142.5" y="-85.5" font-family="Helvetica,sans-Serif" font-size="10.00">iop/memorycard/mcman</text>
<text text-anchor="middle" x="195" y="-74.5" font-family="Helvetica,sans-Serif" font-size="10.00">/src/main.c</text>
</a>
</g>
</g>
<!-- Node4&#45;&gt;Node5 -->
<g id="edge4" class="edge">
<title>Node4&#45;&gt;Node5</title>
<path fill="none" stroke="midnightblue" d="M403.22,-132.19C357.7,-121.54 298.86,-107.78 255.35,-97.61"/>
<polygon fill="midnightblue" stroke="midnightblue" points="402.49,-135.61 413.02,-134.48 404.08,-128.79 402.49,-135.61"/>
</g>
<!-- Node6 -->
<g id="node6" class="node">
<title>Node6</title>
<g id="a_node6"><a xlink:href="mcdev_8c_source.html" target="_top" xlink:title=" ">
<polygon fill="white" stroke="black" points="273.5,-67.5 273.5,-97.5 394.5,-97.5 394.5,-67.5 273.5,-67.5"/>
<text text-anchor="start" x="281.5" y="-85.5" font-family="Helvetica,sans-Serif" font-size="10.00">iop/memorycard/mcman</text>
<text text-anchor="middle" x="334" y="-74.5" font-family="Helvetica,sans-Serif" font-size="10.00">/src/mcdev.c</text>
</a>
</g>
</g>
<!-- Node4&#45;&gt;Node6 -->
<g id="edge5" class="edge">
<title>Node4&#45;&gt;Node6</title>
<path fill="none" stroke="midnightblue" d="M433.72,-130.13C411.63,-119.8 384.49,-107.11 364.1,-97.58"/>
<polygon fill="midnightblue" stroke="midnightblue" points="432.3,-133.33 442.84,-134.4 435.26,-126.99 432.3,-133.33"/>
</g>
<!-- Node7 -->
<g id="node7" class="node">
<title>Node7</title>
<g id="a_node7"><a xlink:href="mcsio2_8c_source.html" target="_top" xlink:title=" ">
<polygon fill="white" stroke="black" points="412.5,-67.5 412.5,-97.5 533.5,-97.5 533.5,-67.5 412.5,-67.5"/>
<text text-anchor="start" x="420.5" y="-85.5" font-family="Helvetica,sans-Serif" font-size="10.00">iop/memorycard/mcman</text>
<text text-anchor="middle" x="473" y="-74.5" font-family="Helvetica,sans-Serif" font-size="10.00">/src/mcsio2.c</text>
</a>
</g>
</g>
<!-- Node4&#45;&gt;Node7 -->
<g id="edge6" class="edge">
<title>Node4&#45;&gt;Node7</title>
<path fill="none" stroke="midnightblue" d="M473,-124.11C473,-115.15 473,-105.32 473,-97.58"/>
<polygon fill="midnightblue" stroke="midnightblue" points="469.5,-124.4 473,-134.4 476.5,-124.4 469.5,-124.4"/>
</g>
<!-- Node8 -->
<g id="node8" class="node">
<title>Node8</title>
<g id="a_node8"><a xlink:href="ps1mc__fio_8c_source.html" target="_top" xlink:title=" ">
<polygon fill="white" stroke="black" points="551.5,-67.5 551.5,-97.5 672.5,-97.5 672.5,-67.5 551.5,-67.5"/>
<text text-anchor="start" x="559.5" y="-85.5" font-family="Helvetica,sans-Serif" font-size="10.00">iop/memorycard/mcman</text>
<text text-anchor="middle" x="612" y="-74.5" font-family="Helvetica,sans-Serif" font-size="10.00">/src/ps1mc_fio.c</text>
</a>
</g>
</g>
<!-- Node4&#45;&gt;Node8 -->
<g id="edge7" class="edge">
<title>Node4&#45;&gt;Node8</title>
<path fill="none" stroke="midnightblue" d="M512.28,-130.13C534.37,-119.8 561.51,-107.11 581.9,-97.58"/>
<polygon fill="midnightblue" stroke="midnightblue" points="510.74,-126.99 503.16,-134.4 513.7,-133.33 510.74,-126.99"/>
</g>
<!-- Node9 -->
<g id="node9" class="node">
<title>Node9</title>
<g id="a_node9"><a xlink:href="ps2mc__fio_8c_source.html" target="_top" xlink:title=" ">
<polygon fill="white" stroke="black" points="690.5,-67.5 690.5,-97.5 811.5,-97.5 811.5,-67.5 690.5,-67.5"/>
<text text-anchor="start" x="698.5" y="-85.5" font-family="Helvetica,sans-Serif" font-size="10.00">iop/memorycard/mcman</text>
<text text-anchor="middle" x="751" y="-74.5" font-family="Helvetica,sans-Serif" font-size="10.00">/src/ps2mc_fio.c</text>
</a>
</g>
</g>
<!-- Node4&#45;&gt;Node9 -->
<g id="edge8" class="edge">
<title>Node4&#45;&gt;Node9</title>
<path fill="none" stroke="midnightblue" d="M542.78,-132.19C588.3,-121.54 647.14,-107.78 690.65,-97.61"/>
<polygon fill="midnightblue" stroke="midnightblue" points="541.92,-128.79 532.98,-134.48 543.51,-135.61 541.92,-128.79"/>
</g>
<!-- Node10 -->
<g id="node10" class="node">
<title>Node10</title>
<g id="a_node10"><a xlink:href="mcserv_8h_source.html" target="_top" xlink:title=" ">
<polygon fill="white" stroke="black" points="829.5,-67.5 829.5,-97.5 950.5,-97.5 950.5,-67.5 829.5,-67.5"/>
<text text-anchor="start" x="837.5" y="-85.5" font-family="Helvetica,sans-Serif" font-size="10.00">iop/memorycard/mcserv</text>
<text text-anchor="middle" x="890" y="-74.5" font-family="Helvetica,sans-Serif" font-size="10.00">/src/mcserv.h</text>
</a>
</g>
</g>
<!-- Node4&#45;&gt;Node10 -->
<g id="edge9" class="edge">
<title>Node4&#45;&gt;Node10</title>
<path fill="none" stroke="midnightblue" d="M543.63,-139.58C614.09,-130.37 725.32,-114.98 821,-98 823.77,-97.51 826.6,-96.99 829.46,-96.45"/>
<polygon fill="midnightblue" stroke="midnightblue" points="543,-136.13 533.54,-140.89 543.91,-143.07 543,-136.13"/>
</g>
<!-- Node11 -->
<g id="node11" class="node">
<title>Node11</title>
<g id="a_node11"><a xlink:href="mcserv_8c_source.html" target="_top" xlink:title=" ">
<polygon fill="white" stroke="black" points="829.5,-0.5 829.5,-30.5 950.5,-30.5 950.5,-0.5 829.5,-0.5"/>
<text text-anchor="start" x="837.5" y="-18.5" font-family="Helvetica,sans-Serif" font-size="10.00">iop/memorycard/mcserv</text>
<text text-anchor="middle" x="890" y="-7.5" font-family="Helvetica,sans-Serif" font-size="10.00">/src/mcserv.c</text>
</a>
</g>
</g>
<!-- Node10&#45;&gt;Node11 -->
<g id="edge10" class="edge">
<title>Node10&#45;&gt;Node11</title>
<path fill="none" stroke="midnightblue" d="M890,-57.11C890,-48.15 890,-38.32 890,-30.58"/>
<polygon fill="midnightblue" stroke="midnightblue" points="886.5,-57.4 890,-67.4 893.5,-57.4 886.5,-57.4"/>
</g>
</g>
</svg>
