<?xml version="1.0" encoding="UTF-8" standalone="no"?>
<!DOCTYPE svg PUBLIC "-//W3C//DTD SVG 1.1//EN"
 "http://www.w3.org/Graphics/SVG/1.1/DTD/svg11.dtd">
<!-- Generated by graphviz version 9.0.0 (20230911.1827)
 -->
<!-- Title: ee/mpeg/include/libmpeg.h Pages: 1 -->
<svg width="256pt" height="160pt"
 viewBox="0.00 0.00 255.50 160.25" xmlns="http://www.w3.org/2000/svg" xmlns:xlink="http://www.w3.org/1999/xlink">

<svg id="main" version="1.1" xmlns="http://www.w3.org/2000/svg" xmlns:xlink="http://www.w3.org/1999/xlink" xml:space="preserve" onload="init(evt)">
<style type="text/css"><![CDATA[
.node, .edge {opacity: 0.7;}
.node.selected, .edge.selected {opacity: 1;}
.edge:hover path { stroke: red; }
.edge:hover polygon { stroke: red; fill: red; }
]]></style>
<script type="application/ecmascript" xlink:href="svg.min.js"/>
<svg id="graph" class="graph">
<g id="graph0" class="graph" transform="scale(1 1) rotate(0) translate(4 156.25)">
<title>ee/mpeg/include/libmpeg.h</title>
<!-- Node1 -->
<g id="Node000001" class="node">
<title>Node1</title>
<g id="a_Node000001"><a xlink:title=" ">
<polygon fill="#999999" stroke="#666666" points="187.88,-152.25 56.38,-152.25 56.38,-133 187.88,-133 187.88,-152.25"/>
<text text-anchor="middle" x="122.12" y="-138.75" font-family="Helvetica,sans-Serif" font-size="10.00">ee/mpeg/include/libmpeg.h</text>
</a>
</g>
</g>
<!-- Node2 -->
<g id="Node000002" class="node">
<title>Node2</title>
<g id="a_Node000002"><a xlink:href="libmpeg_8c_source.html" target="_top" xlink:title=" ">
<polygon fill="white" stroke="#666666" points="114.25,-24.88 0,-24.88 0,-5.63 114.25,-5.63 114.25,-24.88"/>
<text text-anchor="middle" x="57.12" y="-11.38" font-family="Helvetica,sans-Serif" font-size="10.00">ee/mpeg/src/libmpeg.c</text>
</a>
</g>
</g>
<!-- Node1&#45;&gt;Node2 -->
<g id="edge1_Node000001_Node000002" class="edge">
<title>Node1&#45;&gt;Node2</title>
<g id="a_edge1_Node000001_Node000002"><a xlink:title=" ">
<path fill="none" stroke="#63b8ff" d="M91.15,-127.06C79.29,-119.79 66.98,-109.78 60.12,-97 47.53,-73.51 51.98,-40.41 55.11,-24.9"/>
<polygon fill="#63b8ff" stroke="#63b8ff" points="89.12,-129.93 99.55,-131.78 92.55,-123.83 89.12,-129.93"/>
</a>
</g>
</g>
<!-- Node3 -->
<g id="Node000003" class="node">
<title>Node3</title>
<g id="a_Node000003"><a xlink:href="libmpeg__core__c_8c_source.html" target="_top" xlink:title=" ">
<polygon fill="white" stroke="#666666" points="247.5,-30.5 140.75,-30.5 140.75,0 247.5,0 247.5,-30.5"/>
<text text-anchor="start" x="148.75" y="-17" font-family="Helvetica,sans-Serif" font-size="10.00">ee/mpeg/src/libmpeg</text>
<text text-anchor="middle" x="194.12" y="-5.75" font-family="Helvetica,sans-Serif" font-size="10.00">_core_c.c</text>
</a>
</g>
</g>
<!-- Node1&#45;&gt;Node3 -->
<g id="edge2_Node000001_Node000003" class="edge">
<title>Node1&#45;&gt;Node3</title>
<g id="a_edge2_Node000001_Node000003"><a xlink:title=" ">
<path fill="none" stroke="#63b8ff" d="M152.06,-127.07C163.98,-119.72 176.62,-109.66 184.12,-97 196.3,-76.46 196.76,-47.85 195.66,-30.77"/>
<polygon fill="#63b8ff" stroke="#63b8ff" points="150.62,-123.86 143.66,-131.85 154.08,-129.94 150.62,-123.86"/>
</a>
</g>
</g>
<!-- Node4 -->
<g id="Node000004" class="node">
<title>Node4</title>
<g id="a_Node000004"><a xlink:href="libmpeg__internal_8h.html" target="_top" xlink:title=" ">
<polygon fill="white" stroke="#666666" points="175.5,-97 68.75,-97 68.75,-66.5 175.5,-66.5 175.5,-97"/>
<text text-anchor="start" x="76.75" y="-83.5" font-family="Helvetica,sans-Serif" font-size="10.00">ee/mpeg/src/libmpeg</text>
<text text-anchor="middle" x="122.12" y="-72.25" font-family="Helvetica,sans-Serif" font-size="10.00">_internal.h</text>
</a>
</g>
</g>
<!-- Node1&#45;&gt;Node4 -->
<g id="edge3_Node000001_Node000004" class="edge">
<title>Node1&#45;&gt;Node4</title>
<g id="a_edge3_Node000001_Node000004"><a xlink:title=" ">
<path fill="none" stroke="#63b8ff" d="M122.12,-121.42C122.12,-113.49 122.12,-104.56 122.12,-97.28"/>
<polygon fill="#63b8ff" stroke="#63b8ff" points="118.63,-121.17 122.13,-131.17 125.63,-121.17 118.63,-121.17"/>
</a>
</g>
</g>
<!-- Node4&#45;&gt;Node2 -->
<g id="edge4_Node000004_Node000002" class="edge">
<title>Node4&#45;&gt;Node2</title>
<g id="a_edge4_Node000004_Node000002"><a xlink:title=" ">
<path fill="none" stroke="#63b8ff" d="M99.41,-58.21C87.9,-46.78 74.58,-33.57 66.02,-25.07"/>
<polygon fill="#63b8ff" stroke="#63b8ff" points="96.74,-60.49 106.3,-65.05 101.67,-55.52 96.74,-60.49"/>
</a>
</g>
</g>
<!-- Node4&#45;&gt;Node3 -->
<g id="edge5_Node000004_Node000003" class="edge">
<title>Node4&#45;&gt;Node3</title>
<g id="a_edge5_Node000004_Node000003"><a xlink:title=" ">
<path fill="none" stroke="#63b8ff" d="M147,-58.46C157.21,-49.32 168.75,-38.98 177.85,-30.83"/>
<polygon fill="#63b8ff" stroke="#63b8ff" points="144.7,-55.82 139.59,-65.1 149.37,-61.04 144.7,-55.82"/>
</a>
</g>
</g>
</g>
</svg>
</svg>

<style type='text/css'>
<![CDATA[
[data-mouse-over-selected='false'] { opacity: 0.7; }
[data-mouse-over-selected='true']  { opacity: 1.0; }
]]>
</style>
<script type="application/ecmascript"><![CDATA[
document.addEventListener('DOMContentLoaded', (event) => {
  highlightEdges();
  highlightAdjacentNodes();
});
]]></script>
</svg>
