<?xml version="1.0" encoding="UTF-8" standalone="no"?>
<!DOCTYPE svg PUBLIC "-//W3C//DTD SVG 1.1//EN"
 "http://www.w3.org/Graphics/SVG/1.1/DTD/svg11.dtd">
<!-- Generated by graphviz version 12.2.0 (20241103.1931)
 -->
<!-- Title: ee/rpc/memorycard/include/libmc.h Pages: 1 -->
<svg width="142pt" height="149pt"
 viewBox="0.00 0.00 142.12 149.00" xmlns="http://www.w3.org/2000/svg" xmlns:xlink="http://www.w3.org/1999/xlink">
<g id="graph0" class="graph" transform="scale(1 1) rotate(0) translate(4 145)">
<title>ee/rpc/memorycard/include/libmc.h</title>
<!-- Node1 -->
<g id="Node000001" class="node">
<title>Node1</title>
<g id="a_Node000001"><a xlink:title=" ">
<polygon fill="#999999" stroke="#666666" points="134.12,-141 1.12,-141 1.12,-110.5 134.12,-110.5 134.12,-141"/>
<text text-anchor="start" x="9.12" y="-127.5" font-family="Helvetica,sans-Serif" font-size="10.00">ee/rpc/memorycard/include</text>
<text text-anchor="middle" x="67.62" y="-116.25" font-family="Helvetica,sans-Serif" font-size="10.00">/libmc.h</text>
</a>
</g>
</g>
<!-- Node2 -->
<g id="Node000002" class="node">
<title>Node2</title>
<g id="a_Node000002"><a xlink:href="libmc-common_8h.html" target="_top" xlink:title=" ">
<polygon fill="white" stroke="#666666" points="111.25,-74.5 24,-74.5 24,-55.25 111.25,-55.25 111.25,-74.5"/>
<text text-anchor="middle" x="67.62" y="-61" font-family="Helvetica,sans-Serif" font-size="10.00">libmc&#45;common.h</text>
</a>
</g>
</g>
<!-- Node1&#45;&gt;Node2 -->
<g id="edge1_Node000001_Node000002" class="edge">
<title>Node1&#45;&gt;Node2</title>
<g id="a_edge1_Node000001_Node000002"><a xlink:title=" ">
<path fill="none" stroke="#63b8ff" d="M67.62,-110.2C67.62,-102.96 67.62,-94.09 67.62,-86.19"/>
<polygon fill="#63b8ff" stroke="#63b8ff" points="71.13,-86.46 67.63,-76.46 64.13,-86.46 71.13,-86.46"/>
</a>
</g>
</g>
<!-- Node3 -->
<g id="Node000003" class="node">
<title>Node3</title>
<g id="a_Node000003"><a xlink:href="tamtypes_8h.html" target="_top" xlink:title=" ">
<polygon fill="white" stroke="#666666" points="63.25,-19.25 0,-19.25 0,0 63.25,0 63.25,-19.25"/>
<text text-anchor="middle" x="31.62" y="-5.75" font-family="Helvetica,sans-Serif" font-size="10.00">tamtypes.h</text>
</a>
</g>
</g>
<!-- Node2&#45;&gt;Node3 -->
<g id="edge2_Node000002_Node000003" class="edge">
<title>Node2&#45;&gt;Node3</title>
<g id="a_edge2_Node000002_Node000003"><a xlink:title=" ">
<path fill="none" stroke="#63b8ff" d="M61.68,-55.08C56.91,-48.03 50.06,-37.9 44.1,-29.08"/>
<polygon fill="#63b8ff" stroke="#63b8ff" points="47.05,-27.19 38.55,-20.86 41.25,-31.11 47.05,-27.19"/>
</a>
</g>
</g>
<!-- Node4 -->
<g id="Node000004" class="node">
<title>Node4</title>
<g id="a_Node000004"><a xlink:href="errno_8h.html" target="_top" xlink:title=" ">
<polygon fill="white" stroke="#666666" points="126.25,-19.25 81,-19.25 81,0 126.25,0 126.25,-19.25"/>
<text text-anchor="middle" x="103.62" y="-5.75" font-family="Helvetica,sans-Serif" font-size="10.00">errno.h</text>
</a>
</g>
</g>
<!-- Node2&#45;&gt;Node4 -->
<g id="edge3_Node000002_Node000004" class="edge">
<title>Node2&#45;&gt;Node4</title>
<g id="a_edge3_Node000002_Node000004"><a xlink:title=" ">
<path fill="none" stroke="#63b8ff" d="M73.57,-55.08C78.34,-48.03 85.19,-37.9 91.15,-29.08"/>
<polygon fill="#63b8ff" stroke="#63b8ff" points="94,-31.11 96.7,-20.86 88.2,-27.19 94,-31.11"/>
</a>
</g>
</g>
</g>
</svg>
