<?xml version="1.0" encoding="UTF-8" standalone="no"?>
<!DOCTYPE svg PUBLIC "-//W3C//DTD SVG 1.1//EN"
 "http://www.w3.org/Graphics/SVG/1.1/DTD/svg11.dtd">
<!-- Generated by graphviz version 9.0.0 (20230911.1827)
 -->
<!-- Title: ee/kernel/src/libosd_full.c Pages: 1 -->
<svg width="370pt" height="260pt"
 viewBox="0.00 0.00 370.38 259.50" xmlns="http://www.w3.org/2000/svg" xmlns:xlink="http://www.w3.org/1999/xlink">
<g id="graph0" class="graph" transform="scale(1 1) rotate(0) translate(4 255.5)">
<title>ee/kernel/src/libosd_full.c</title>
<!-- Node1 -->
<g id="Node000001" class="node">
<title>Node1</title>
<g id="a_Node000001"><a xlink:title=" ">
<polygon fill="#999999" stroke="#666666" points="221.62,-251.5 120.88,-251.5 120.88,-221 221.62,-221 221.62,-251.5"/>
<text text-anchor="start" x="128.88" y="-238" font-family="Helvetica,sans-Serif" font-size="10.00">ee/kernel/src/libosd</text>
<text text-anchor="middle" x="171.25" y="-226.75" font-family="Helvetica,sans-Serif" font-size="10.00">_full.c</text>
</a>
</g>
</g>
<!-- Node2 -->
<g id="Node000002" class="node">
<title>Node2</title>
<g id="a_Node000002"><a xlink:href="kernel_8h.html" target="_top" xlink:title=" ">
<polygon fill="white" stroke="#666666" points="121.12,-185 71.38,-185 71.38,-165.75 121.12,-165.75 121.12,-185"/>
<text text-anchor="middle" x="96.25" y="-171.5" font-family="Helvetica,sans-Serif" font-size="10.00">kernel.h</text>
</a>
</g>
</g>
<!-- Node1&#45;&gt;Node2 -->
<g id="edge1_Node000001_Node000002" class="edge">
<title>Node1&#45;&gt;Node2</title>
<g id="a_edge1_Node000001_Node000002"><a xlink:title=" ">
<path fill="none" stroke="#63b8ff" d="M152.71,-220.7C141.73,-212.08 127.81,-201.15 116.53,-192.3"/>
<polygon fill="#63b8ff" stroke="#63b8ff" points="119.03,-189.81 109,-186.39 114.71,-195.31 119.03,-189.81"/>
</a>
</g>
</g>
<!-- Node7 -->
<g id="Node000007" class="node">
<title>Node7</title>
<g id="a_Node000007"><a xlink:href="syscallnr_8h.html" target="_top" xlink:title=" ">
<polygon fill="white" stroke="#666666" points="202.12,-185 140.38,-185 140.38,-165.75 202.12,-165.75 202.12,-185"/>
<text text-anchor="middle" x="171.25" y="-171.5" font-family="Helvetica,sans-Serif" font-size="10.00">syscallnr.h</text>
</a>
</g>
</g>
<!-- Node1&#45;&gt;Node7 -->
<g id="edge6_Node000001_Node000007" class="edge">
<title>Node1&#45;&gt;Node7</title>
<g id="a_edge6_Node000001_Node000007"><a xlink:title=" ">
<path fill="none" stroke="#63b8ff" d="M171.25,-220.7C171.25,-213.46 171.25,-204.59 171.25,-196.69"/>
<polygon fill="#63b8ff" stroke="#63b8ff" points="174.75,-196.96 171.25,-186.96 167.75,-196.96 174.75,-196.96"/>
</a>
</g>
</g>
<!-- Node8 -->
<g id="Node000008" class="node">
<title>Node8</title>
<g id="a_Node000008"><a xlink:href="osd__config_8h.html" target="_top" xlink:title=" ">
<polygon fill="white" stroke="#666666" points="291.25,-185 221.25,-185 221.25,-165.75 291.25,-165.75 291.25,-185"/>
<text text-anchor="middle" x="256.25" y="-171.5" font-family="Helvetica,sans-Serif" font-size="10.00">osd_config.h</text>
</a>
</g>
</g>
<!-- Node1&#45;&gt;Node8 -->
<g id="edge7_Node000001_Node000008" class="edge">
<title>Node1&#45;&gt;Node8</title>
<g id="a_edge7_Node000001_Node000008"><a xlink:title=" ">
<path fill="none" stroke="#63b8ff" d="M192.26,-220.7C204.95,-211.9 221.12,-200.71 234.02,-191.77"/>
<polygon fill="#63b8ff" stroke="#63b8ff" points="235.67,-194.88 241.9,-186.31 231.69,-189.13 235.67,-194.88"/>
</a>
</g>
</g>
<!-- Node3 -->
<g id="Node000003" class="node">
<title>Node3</title>
<g id="a_Node000003"><a xlink:title=" ">
<polygon fill="#e0e0e0" stroke="#999999" points="50.5,-129.75 0,-129.75 0,-110.5 50.5,-110.5 50.5,-129.75"/>
<text text-anchor="middle" x="25.25" y="-116.25" font-family="Helvetica,sans-Serif" font-size="10.00">stddef.h</text>
</a>
</g>
</g>
<!-- Node2&#45;&gt;Node3 -->
<g id="edge2_Node000002_Node000003" class="edge">
<title>Node2&#45;&gt;Node3</title>
<g id="a_edge2_Node000002_Node000003"><a xlink:title=" ">
<path fill="none" stroke="#63b8ff" d="M84.21,-165.34C73.84,-157.57 58.65,-146.17 46.28,-136.9"/>
<polygon fill="#63b8ff" stroke="#63b8ff" points="48.43,-134.13 38.33,-130.93 44.23,-139.73 48.43,-134.13"/>
</a>
</g>
</g>
<!-- Node4 -->
<g id="Node000004" class="node">
<title>Node4</title>
<g id="a_Node000004"><a xlink:title=" ">
<polygon fill="#e0e0e0" stroke="#999999" points="119.5,-129.75 69,-129.75 69,-110.5 119.5,-110.5 119.5,-129.75"/>
<text text-anchor="middle" x="94.25" y="-116.25" font-family="Helvetica,sans-Serif" font-size="10.00">stdarg.h</text>
</a>
</g>
</g>
<!-- Node2&#45;&gt;Node4 -->
<g id="edge3_Node000002_Node000004" class="edge">
<title>Node2&#45;&gt;Node4</title>
<g id="a_edge3_Node000002_Node000004"><a xlink:title=" ">
<path fill="none" stroke="#63b8ff" d="M95.92,-165.58C95.67,-158.99 95.32,-149.71 95.01,-141.32"/>
<polygon fill="#63b8ff" stroke="#63b8ff" points="98.52,-141.48 94.64,-131.62 91.52,-141.75 98.52,-141.48"/>
</a>
</g>
</g>
<!-- Node5 -->
<g id="Node000005" class="node">
<title>Node5</title>
<g id="a_Node000005"><a xlink:href="sifdma_8h.html" target="_top" xlink:title=" ">
<polygon fill="white" stroke="#666666" points="168.62,-74.5 115.88,-74.5 115.88,-55.25 168.62,-55.25 168.62,-74.5"/>
<text text-anchor="middle" x="142.25" y="-61" font-family="Helvetica,sans-Serif" font-size="10.00">sifdma.h</text>
</a>
</g>
</g>
<!-- Node2&#45;&gt;Node5 -->
<g id="edge4_Node000002_Node000005" class="edge">
<title>Node2&#45;&gt;Node5</title>
<g id="a_edge4_Node000002_Node000005"><a xlink:title=" ">
<path fill="none" stroke="#63b8ff" d="M104.31,-165.49C111.64,-156.94 122.2,-143.34 128.25,-129.75 134.42,-115.9 137.96,-99.13 139.94,-86.24"/>
<polygon fill="#63b8ff" stroke="#63b8ff" points="143.4,-86.78 141.23,-76.41 136.46,-85.87 143.4,-86.78"/>
</a>
</g>
</g>
<!-- Node6 -->
<g id="Node000006" class="node">
<title>Node6</title>
<g id="a_Node000006"><a xlink:href="tamtypes_8h.html" target="_top" xlink:title=" ">
<polygon fill="white" stroke="#666666" points="227.88,-19.25 164.62,-19.25 164.62,0 227.88,0 227.88,-19.25"/>
<text text-anchor="middle" x="196.25" y="-5.75" font-family="Helvetica,sans-Serif" font-size="10.00">tamtypes.h</text>
</a>
</g>
</g>
<!-- Node5&#45;&gt;Node6 -->
<g id="edge5_Node000005_Node000006" class="edge">
<title>Node5&#45;&gt;Node6</title>
<g id="a_edge5_Node000005_Node000006"><a xlink:title=" ">
<path fill="none" stroke="#63b8ff" d="M151.17,-55.08C158.7,-47.65 169.72,-36.79 178.98,-27.66"/>
<polygon fill="#63b8ff" stroke="#63b8ff" points="181.4,-30.19 186.06,-20.67 176.48,-25.2 181.4,-30.19"/>
</a>
</g>
</g>
<!-- Node8&#45;&gt;Node6 -->
<g id="edge8_Node000008_Node000006" class="edge">
<title>Node8&#45;&gt;Node6</title>
<g id="a_edge8_Node000008_Node000006"><a xlink:title=" ">
<path fill="none" stroke="#63b8ff" d="M244.9,-165.39C235.36,-157.18 222.21,-144.15 215.25,-129.75 199.71,-97.63 196.44,-55.5 195.99,-30.91"/>
<polygon fill="#63b8ff" stroke="#63b8ff" points="199.49,-31.02 195.97,-21.02 192.49,-31.03 199.49,-31.02"/>
</a>
</g>
</g>
<!-- Node9 -->
<g id="Node000009" class="node">
<title>Node9</title>
<g id="a_Node000009"><a xlink:href="rom0__info_8h.html" target="_top" xlink:title=" ">
<polygon fill="white" stroke="#666666" points="290.38,-129.75 224.12,-129.75 224.12,-110.5 290.38,-110.5 290.38,-129.75"/>
<text text-anchor="middle" x="257.25" y="-116.25" font-family="Helvetica,sans-Serif" font-size="10.00">rom0_info.h</text>
</a>
</g>
</g>
<!-- Node8&#45;&gt;Node9 -->
<g id="edge9_Node000008_Node000009" class="edge">
<title>Node8&#45;&gt;Node9</title>
<g id="a_edge9_Node000008_Node000009"><a xlink:title=" ">
<path fill="none" stroke="#63b8ff" d="M256.42,-165.58C256.54,-159.07 256.71,-149.92 256.87,-141.62"/>
<polygon fill="#63b8ff" stroke="#63b8ff" points="260.36,-141.69 257.05,-131.62 253.37,-141.55 260.36,-141.69"/>
</a>
</g>
</g>
<!-- Node10 -->
<g id="Node000010" class="node">
<title>Node10</title>
<g id="a_Node000010"><a xlink:href="libcdvd_8h.html" target="_top" xlink:title=" ">
<polygon fill="white" stroke="#666666" points="362.38,-129.75 308.12,-129.75 308.12,-110.5 362.38,-110.5 362.38,-129.75"/>
<text text-anchor="middle" x="335.25" y="-116.25" font-family="Helvetica,sans-Serif" font-size="10.00">libcdvd.h</text>
</a>
</g>
</g>
<!-- Node8&#45;&gt;Node10 -->
<g id="edge10_Node000008_Node000010" class="edge">
<title>Node8&#45;&gt;Node10</title>
<g id="a_edge10_Node000008_Node000010"><a xlink:title=" ">
<path fill="none" stroke="#63b8ff" d="M269.65,-165.34C281.34,-157.46 298.55,-145.86 312.41,-136.52"/>
<polygon fill="#63b8ff" stroke="#63b8ff" points="314.19,-139.54 320.53,-131.05 310.28,-133.74 314.19,-139.54"/>
</a>
</g>
</g>
<!-- Node11 -->
<g id="Node000011" class="node">
<title>Node11</title>
<g id="a_Node000011"><a xlink:href="libcdvd-common_8h.html" target="_top" xlink:title=" ">
<polygon fill="white" stroke="#666666" points="350.62,-74.5 255.88,-74.5 255.88,-55.25 350.62,-55.25 350.62,-74.5"/>
<text text-anchor="middle" x="303.25" y="-61" font-family="Helvetica,sans-Serif" font-size="10.00">libcdvd&#45;common.h</text>
</a>
</g>
</g>
<!-- Node10&#45;&gt;Node11 -->
<g id="edge11_Node000010_Node000011" class="edge">
<title>Node10&#45;&gt;Node11</title>
<g id="a_edge11_Node000010_Node000011"><a xlink:title=" ">
<path fill="none" stroke="#63b8ff" d="M329.97,-110.33C325.78,-103.36 319.77,-93.37 314.52,-84.62"/>
<polygon fill="#63b8ff" stroke="#63b8ff" points="317.58,-82.93 309.43,-76.16 311.58,-86.53 317.58,-82.93"/>
</a>
</g>
</g>
<!-- Node11&#45;&gt;Node6 -->
<g id="edge12_Node000011_Node000006" class="edge">
<title>Node11&#45;&gt;Node6</title>
<g id="a_edge12_Node000011_Node000006"><a xlink:title=" ">
<path fill="none" stroke="#63b8ff" d="M285.1,-54.84C268.57,-46.62 243.91,-34.34 224.75,-24.81"/>
<polygon fill="#63b8ff" stroke="#63b8ff" points="226.36,-21.7 215.85,-20.38 223.24,-27.97 226.36,-21.7"/>
</a>
</g>
</g>
</g>
</svg>
