<?xml version="1.0" encoding="UTF-8" standalone="no"?>
<!DOCTYPE svg PUBLIC "-//W3C//DTD SVG 1.1//EN"
 "http://www.w3.org/Graphics/SVG/1.1/DTD/svg11.dtd">
<!-- Generated by graphviz version 9.0.0 (20230911.1827)
 -->
<!-- Title: ee/rpc/poweroff/include/libpwroff.h Pages: 1 -->
<svg width="230pt" height="160pt"
 viewBox="0.00 0.00 229.75 160.25" xmlns="http://www.w3.org/2000/svg" xmlns:xlink="http://www.w3.org/1999/xlink">
<g id="graph0" class="graph" transform="scale(1 1) rotate(0) translate(4 156.25)">
<title>ee/rpc/poweroff/include/libpwroff.h</title>
<!-- Node1 -->
<g id="Node000001" class="node">
<title>Node1</title>
<g id="a_Node000001"><a xlink:title="Power&#45;off library.">
<polygon fill="#999999" stroke="#666666" points="172.38,-152.25 55.88,-152.25 55.88,-121.75 172.38,-121.75 172.38,-152.25"/>
<text text-anchor="start" x="63.88" y="-138.75" font-family="Helvetica,sans-Serif" font-size="10.00">ee/rpc/poweroff/include</text>
<text text-anchor="middle" x="114.12" y="-127.5" font-family="Helvetica,sans-Serif" font-size="10.00">/libpwroff.h</text>
</a>
</g>
</g>
<!-- Node2 -->
<g id="Node000002" class="node">
<title>Node2</title>
<g id="a_Node000002"><a xlink:href="libhdd_8h.html" target="_top" xlink:title=" ">
<polygon fill="white" stroke="#666666" points="104.88,-85.75 9.38,-85.75 9.38,-55.25 104.88,-55.25 104.88,-85.75"/>
<text text-anchor="start" x="17.38" y="-72.25" font-family="Helvetica,sans-Serif" font-size="10.00">ee/rpc/hdd/include</text>
<text text-anchor="middle" x="57.13" y="-61" font-family="Helvetica,sans-Serif" font-size="10.00">/libhdd.h</text>
</a>
</g>
</g>
<!-- Node1&#45;&gt;Node2 -->
<g id="edge1_Node000001_Node000002" class="edge">
<title>Node1&#45;&gt;Node2</title>
<g id="a_edge1_Node000001_Node000002"><a xlink:title=" ">
<path fill="none" stroke="#63b8ff" d="M93.69,-112.88C85.79,-103.94 77,-93.99 70.01,-86.08"/>
<polygon fill="#63b8ff" stroke="#63b8ff" points="90.94,-115.05 100.19,-120.23 96.19,-110.42 90.94,-115.05"/>
</a>
</g>
</g>
<!-- Node4 -->
<g id="Node000004" class="node">
<title>Node4</title>
<g id="a_Node000004"><a xlink:href="ee_2rpc_2poweroff_2src_2poweroff_8c_source.html" target="_top" xlink:title=" ">
<polygon fill="white" stroke="#666666" points="221.75,-85.75 122.5,-85.75 122.5,-55.25 221.75,-55.25 221.75,-85.75"/>
<text text-anchor="start" x="130.5" y="-72.25" font-family="Helvetica,sans-Serif" font-size="10.00">ee/rpc/poweroff/src</text>
<text text-anchor="middle" x="172.12" y="-61" font-family="Helvetica,sans-Serif" font-size="10.00">/poweroff.c</text>
</a>
</g>
</g>
<!-- Node1&#45;&gt;Node4 -->
<g id="edge3_Node000001_Node000004" class="edge">
<title>Node1&#45;&gt;Node4</title>
<g id="a_edge3_Node000001_Node000004"><a xlink:title=" ">
<path fill="none" stroke="#63b8ff" d="M134.92,-112.88C142.95,-103.94 151.91,-93.99 159.02,-86.08"/>
<polygon fill="#63b8ff" stroke="#63b8ff" points="132.38,-110.46 128.3,-120.24 137.59,-115.14 132.38,-110.46"/>
</a>
</g>
</g>
<!-- Node3 -->
<g id="Node000003" class="node">
<title>Node3</title>
<g id="a_Node000003"><a xlink:href="libhdd_8c_source.html" target="_top" xlink:title=" ">
<polygon fill="white" stroke="#666666" points="114.25,-19.25 0,-19.25 0,0 114.25,0 114.25,-19.25"/>
<text text-anchor="middle" x="57.13" y="-5.75" font-family="Helvetica,sans-Serif" font-size="10.00">ee/rpc/hdd/src/libhdd.c</text>
</a>
</g>
</g>
<!-- Node2&#45;&gt;Node3 -->
<g id="edge2_Node000002_Node000003" class="edge">
<title>Node2&#45;&gt;Node3</title>
<g id="a_edge2_Node000002_Node000003"><a xlink:title=" ">
<path fill="none" stroke="#63b8ff" d="M57.13,-43.48C57.13,-34.98 57.13,-26.09 57.13,-19.7"/>
<polygon fill="#63b8ff" stroke="#63b8ff" points="53.63,-43.43 57.13,-53.43 60.63,-43.43 53.63,-43.43"/>
</a>
</g>
</g>
</g>
</svg>
