<?xml version="1.0" encoding="UTF-8" standalone="no"?>
<!DOCTYPE svg PUBLIC "-//W3C//DTD SVG 1.1//EN"
 "http://www.w3.org/Graphics/SVG/1.1/DTD/svg11.dtd">
<!-- Generated by graphviz version 2.43.0 (0)
 -->
<!-- Title: ee/rpc/pad/include/libpad.h Pages: 1 -->
<svg width="322pt" height="151pt"
 viewBox="0.00 0.00 321.50 151.00" xmlns="http://www.w3.org/2000/svg" xmlns:xlink="http://www.w3.org/1999/xlink">
<g id="graph0" class="graph" transform="scale(1 1) rotate(0) translate(4 147)">
<title>ee/rpc/pad/include/libpad.h</title>
<polygon fill="white" stroke="transparent" points="-4,4 -4,-147 317.5,-147 317.5,4 -4,4"/>
<!-- Node1 -->
<g id="node1" class="node">
<title>Node1</title>
<g id="a_node1"><a xlink:title=" ">
<polygon fill="#bfbfbf" stroke="black" points="106.5,-112.5 106.5,-142.5 212.5,-142.5 212.5,-112.5 106.5,-112.5"/>
<text text-anchor="start" x="114.5" y="-130.5" font-family="Helvetica,sans-Serif" font-size="10.00">ee/rpc/pad/include</text>
<text text-anchor="middle" x="159.5" y="-119.5" font-family="Helvetica,sans-Serif" font-size="10.00">/libpad.h</text>
</a>
</g>
</g>
<!-- Node2 -->
<g id="node2" class="node">
<title>Node2</title>
<g id="a_node2"><a xlink:href="input_8h.html" target="_top" xlink:title=" ">
<polygon fill="white" stroke="black" points="0,-56.5 0,-75.5 131,-75.5 131,-56.5 0,-56.5"/>
<text text-anchor="middle" x="65.5" y="-63.5" font-family="Helvetica,sans-Serif" font-size="10.00">ee/input/include/input.h</text>
</a>
</g>
</g>
<!-- Node1&#45;&gt;Node2 -->
<g id="edge1" class="edge">
<title>Node1&#45;&gt;Node2</title>
<path fill="none" stroke="midnightblue" d="M128.34,-106.78C111.68,-96.23 92.01,-83.78 79.18,-75.66"/>
<polygon fill="midnightblue" stroke="midnightblue" points="126.9,-110.01 137.22,-112.4 130.65,-104.09 126.9,-110.01"/>
</g>
<!-- Node3 -->
<g id="node3" class="node">
<title>Node3</title>
<g id="a_node3"><a xlink:href="input_8c_source.html" target="_top" xlink:title=" ">
<polygon fill="white" stroke="black" points="57.5,-0.5 57.5,-19.5 167.5,-19.5 167.5,-0.5 57.5,-0.5"/>
<text text-anchor="middle" x="112.5" y="-7.5" font-family="Helvetica,sans-Serif" font-size="10.00">ee/input/src/input.c</text>
</a>
</g>
</g>
<!-- Node1&#45;&gt;Node3 -->
<g id="edge3" class="edge">
<title>Node1&#45;&gt;Node3</title>
<path fill="none" stroke="midnightblue" d="M154.87,-102.51C151.74,-88.59 146.98,-70.92 140.5,-56 134.63,-42.5 125.16,-28.29 118.88,-19.54"/>
<polygon fill="midnightblue" stroke="midnightblue" points="151.45,-103.26 156.95,-112.31 158.3,-101.8 151.45,-103.26"/>
</g>
<!-- Node4 -->
<g id="node4" class="node">
<title>Node4</title>
<g id="a_node4"><a xlink:href="libpad_8c.html" target="_top" xlink:title=" ">
<polygon fill="white" stroke="black" points="187.5,-56.5 187.5,-75.5 313.5,-75.5 313.5,-56.5 187.5,-56.5"/>
<text text-anchor="middle" x="250.5" y="-63.5" font-family="Helvetica,sans-Serif" font-size="10.00">ee/rpc/pad/src/libpad.c</text>
</a>
</g>
</g>
<!-- Node1&#45;&gt;Node4 -->
<g id="edge4" class="edge">
<title>Node1&#45;&gt;Node4</title>
<path fill="none" stroke="midnightblue" d="M189.67,-106.78C205.79,-96.23 224.83,-83.78 237.26,-75.66"/>
<polygon fill="midnightblue" stroke="midnightblue" points="187.52,-104 181.07,-112.4 191.35,-109.86 187.52,-104"/>
</g>
<!-- Node2&#45;&gt;Node3 -->
<g id="edge2" class="edge">
<title>Node2&#45;&gt;Node3</title>
<path fill="none" stroke="midnightblue" d="M79.92,-48.43C88.16,-38.97 98.15,-27.48 104.88,-19.75"/>
<polygon fill="midnightblue" stroke="midnightblue" points="77.19,-46.24 73.26,-56.08 82.47,-50.84 77.19,-46.24"/>
</g>
</g>
</svg>
