<?xml version="1.0" encoding="UTF-8" standalone="no"?>
<!DOCTYPE svg PUBLIC "-//W3C//DTD SVG 1.1//EN"
 "http://www.w3.org/Graphics/SVG/1.1/DTD/svg11.dtd">
<!-- Generated by graphviz version 2.43.0 (0)
 -->
<!-- Title: ee/rpc/remote/src/librm.c Pages: 1 -->
<svg width="496pt" height="308pt"
 viewBox="0.00 0.00 495.57 308.00" xmlns="http://www.w3.org/2000/svg" xmlns:xlink="http://www.w3.org/1999/xlink">
<g id="graph0" class="graph" transform="scale(1 1) rotate(0) translate(4 304)">
<title>ee/rpc/remote/src/librm.c</title>
<polygon fill="white" stroke="transparent" points="-4,4 -4,-304 491.57,-304 491.57,4 -4,4"/>
<!-- Node1 -->
<g id="node1" class="node">
<title>Node1</title>
<g id="a_node1"><a xlink:title=" ">
<polygon fill="#bfbfbf" stroke="black" points="192.26,-280.5 192.26,-299.5 331.26,-299.5 331.26,-280.5 192.26,-280.5"/>
<text text-anchor="middle" x="261.76" y="-287.5" font-family="Helvetica,sans-Serif" font-size="10.00">ee/rpc/remote/src/librm.c</text>
</a>
</g>
</g>
<!-- Node2 -->
<g id="node2" class="node">
<title>Node2</title>
<g id="a_node2"><a xlink:href="stdio_8h.html" target="_top" xlink:title=" ">
<polygon fill="white" stroke="black" points="254.76,-168.5 254.76,-187.5 304.76,-187.5 304.76,-168.5 254.76,-168.5"/>
<text text-anchor="middle" x="279.76" y="-175.5" font-family="Helvetica,sans-Serif" font-size="10.00">stdio.h</text>
</a>
</g>
</g>
<!-- Node1&#45;&gt;Node2 -->
<g id="edge1" class="edge">
<title>Node1&#45;&gt;Node2</title>
<path fill="none" stroke="midnightblue" d="M263.18,-280.37C266.08,-262.62 272.78,-221.67 276.72,-197.6"/>
<polygon fill="midnightblue" stroke="midnightblue" points="280.2,-198.03 278.36,-187.59 273.29,-196.89 280.2,-198.03"/>
</g>
<!-- Node7 -->
<g id="node7" class="node">
<title>Node7</title>
<g id="a_node7"><a xlink:href="tamtypes_8h.html" target="_top" xlink:title=" ">
<polygon fill="white" stroke="black" points="194.76,-0.5 194.76,-19.5 266.76,-19.5 266.76,-0.5 194.76,-0.5"/>
<text text-anchor="middle" x="230.76" y="-7.5" font-family="Helvetica,sans-Serif" font-size="10.00">tamtypes.h</text>
</a>
</g>
</g>
<!-- Node1&#45;&gt;Node7 -->
<g id="edge7" class="edge">
<title>Node1&#45;&gt;Node7</title>
<path fill="none" stroke="midnightblue" d="M192.16,-288.34C114.85,-283.48 0.76,-262.22 0.76,-179 0.76,-179 0.76,-179 0.76,-121 0.76,-90.9 -2.29,-76.48 19.76,-56 43.23,-34.21 129.47,-21.46 184.17,-15.38"/>
<polygon fill="midnightblue" stroke="midnightblue" points="184.76,-18.84 194.33,-14.29 184.01,-11.88 184.76,-18.84"/>
</g>
<!-- Node8 -->
<g id="node8" class="node">
<title>Node8</title>
<g id="a_node8"><a xlink:title=" ">
<polygon fill="white" stroke="#bfbfbf" points="328.26,-224.5 328.26,-243.5 381.26,-243.5 381.26,-224.5 328.26,-224.5"/>
<text text-anchor="middle" x="354.76" y="-231.5" font-family="Helvetica,sans-Serif" font-size="10.00">sifrpc.h</text>
</a>
</g>
</g>
<!-- Node1&#45;&gt;Node8 -->
<g id="edge8" class="edge">
<title>Node1&#45;&gt;Node8</title>
<path fill="none" stroke="midnightblue" d="M276.71,-280.32C291.35,-271.82 313.9,-258.73 331,-248.8"/>
<polygon fill="midnightblue" stroke="midnightblue" points="332.97,-251.7 339.86,-243.65 329.45,-245.65 332.97,-251.7"/>
</g>
<!-- Node9 -->
<g id="node9" class="node">
<title>Node9</title>
<g id="a_node9"><a xlink:href="kernel_8h.html" target="_top" xlink:title=" ">
<polygon fill="white" stroke="black" points="359.76,-168.5 359.76,-187.5 415.76,-187.5 415.76,-168.5 359.76,-168.5"/>
<text text-anchor="middle" x="387.76" y="-175.5" font-family="Helvetica,sans-Serif" font-size="10.00">kernel.h</text>
</a>
</g>
</g>
<!-- Node1&#45;&gt;Node9 -->
<g id="edge9" class="edge">
<title>Node1&#45;&gt;Node9</title>
<path fill="none" stroke="midnightblue" d="M268.28,-280.36C278.42,-267.27 298.95,-242.01 319.76,-224 333.33,-212.26 350.13,-201.11 363.64,-192.85"/>
<polygon fill="midnightblue" stroke="midnightblue" points="365.6,-195.76 372.39,-187.62 362.01,-189.75 365.6,-195.76"/>
</g>
<!-- Node12 -->
<g id="node12" class="node">
<title>Node12</title>
<g id="a_node12"><a xlink:href="string_8h_source.html" target="_top" xlink:title=" ">
<polygon fill="white" stroke="black" points="180.26,-224.5 180.26,-243.5 233.26,-243.5 233.26,-224.5 180.26,-224.5"/>
<text text-anchor="middle" x="206.76" y="-231.5" font-family="Helvetica,sans-Serif" font-size="10.00">string.h</text>
</a>
</g>
</g>
<!-- Node1&#45;&gt;Node12 -->
<g id="edge16" class="edge">
<title>Node1&#45;&gt;Node12</title>
<path fill="none" stroke="midnightblue" d="M252.68,-280.08C244.59,-272.14 232.57,-260.34 222.85,-250.8"/>
<polygon fill="midnightblue" stroke="midnightblue" points="225.27,-248.26 215.68,-243.75 220.36,-253.25 225.27,-248.26"/>
</g>
<!-- Node17 -->
<g id="node17" class="node">
<title>Node17</title>
<g id="a_node17"><a xlink:href="iopcontrol_8h.html" target="_top" xlink:title=" ">
<polygon fill="white" stroke="black" points="399.76,-224.5 399.76,-243.5 473.76,-243.5 473.76,-224.5 399.76,-224.5"/>
<text text-anchor="middle" x="436.76" y="-231.5" font-family="Helvetica,sans-Serif" font-size="10.00">iopcontrol.h</text>
</a>
</g>
</g>
<!-- Node1&#45;&gt;Node17 -->
<g id="edge24" class="edge">
<title>Node1&#45;&gt;Node17</title>
<path fill="none" stroke="midnightblue" d="M289.49,-280.44C319.19,-271.28 366.48,-256.69 399.43,-246.52"/>
<polygon fill="midnightblue" stroke="midnightblue" points="400.64,-249.81 409.16,-243.52 398.58,-243.12 400.64,-249.81"/>
</g>
<!-- Node18 -->
<g id="node18" class="node">
<title>Node18</title>
<g id="a_node18"><a xlink:href="librm_8h.html" target="_top" xlink:title="RPC Interface for PS2 Remote Control Driver (RMMAN)">
<polygon fill="white" stroke="black" points="77.26,-224.5 77.26,-243.5 128.26,-243.5 128.26,-224.5 77.26,-224.5"/>
<text text-anchor="middle" x="102.76" y="-231.5" font-family="Helvetica,sans-Serif" font-size="10.00">librm.h</text>
</a>
</g>
</g>
<!-- Node1&#45;&gt;Node18 -->
<g id="edge25" class="edge">
<title>Node1&#45;&gt;Node18</title>
<path fill="none" stroke="midnightblue" d="M236.57,-280.44C209.82,-271.36 167.36,-256.94 137.46,-246.78"/>
<polygon fill="midnightblue" stroke="midnightblue" points="138.43,-243.42 127.84,-243.52 136.18,-250.05 138.43,-243.42"/>
</g>
<!-- Node3 -->
<g id="node3" class="node">
<title>Node3</title>
<g id="a_node3"><a xlink:title=" ">
<polygon fill="white" stroke="#bfbfbf" points="303.76,-112.5 303.76,-131.5 359.76,-131.5 359.76,-112.5 303.76,-112.5"/>
<text text-anchor="middle" x="331.76" y="-119.5" font-family="Helvetica,sans-Serif" font-size="10.00">stdarg.h</text>
</a>
</g>
</g>
<!-- Node2&#45;&gt;Node3 -->
<g id="edge2" class="edge">
<title>Node2&#45;&gt;Node3</title>
<path fill="none" stroke="midnightblue" d="M288.35,-168.08C295.92,-160.22 307.14,-148.57 316.28,-139.08"/>
<polygon fill="midnightblue" stroke="midnightblue" points="318.92,-141.38 323.34,-131.75 313.88,-136.53 318.92,-141.38"/>
</g>
<!-- Node4 -->
<g id="node4" class="node">
<title>Node4</title>
<g id="a_node4"><a xlink:href="irx_8h.html" target="_top" xlink:title=" ">
<polygon fill="white" stroke="black" points="247.76,-112.5 247.76,-131.5 285.76,-131.5 285.76,-112.5 247.76,-112.5"/>
<text text-anchor="middle" x="266.76" y="-119.5" font-family="Helvetica,sans-Serif" font-size="10.00">irx.h</text>
</a>
</g>
</g>
<!-- Node2&#45;&gt;Node4 -->
<g id="edge3" class="edge">
<title>Node2&#45;&gt;Node4</title>
<path fill="none" stroke="midnightblue" d="M277.62,-168.08C275.9,-160.93 273.42,-150.64 271.26,-141.69"/>
<polygon fill="midnightblue" stroke="midnightblue" points="274.61,-140.65 268.87,-131.75 267.81,-142.29 274.61,-140.65"/>
</g>
<!-- Node5 -->
<g id="node5" class="node">
<title>Node5</title>
<g id="a_node5"><a xlink:href="iop_2kernel_2include_2types_8h_source.html" target="_top" xlink:title=" ">
<polygon fill="white" stroke="black" points="299.26,-56.5 299.26,-75.5 352.26,-75.5 352.26,-56.5 299.26,-56.5"/>
<text text-anchor="middle" x="325.76" y="-63.5" font-family="Helvetica,sans-Serif" font-size="10.00">types.h</text>
</a>
</g>
</g>
<!-- Node4&#45;&gt;Node5 -->
<g id="edge4" class="edge">
<title>Node4&#45;&gt;Node5</title>
<path fill="none" stroke="midnightblue" d="M276.24,-112.32C284.97,-104.34 298.11,-92.31 308.66,-82.65"/>
<polygon fill="midnightblue" stroke="midnightblue" points="311.1,-85.17 316.11,-75.83 306.37,-80 311.1,-85.17"/>
</g>
<!-- Node6 -->
<g id="node6" class="node">
<title>Node6</title>
<g id="a_node6"><a xlink:title=" ">
<polygon fill="white" stroke="#bfbfbf" points="318.76,-0.5 318.76,-19.5 374.76,-19.5 374.76,-0.5 318.76,-0.5"/>
<text text-anchor="middle" x="346.76" y="-7.5" font-family="Helvetica,sans-Serif" font-size="10.00">stddef.h</text>
</a>
</g>
</g>
<!-- Node5&#45;&gt;Node6 -->
<g id="edge5" class="edge">
<title>Node5&#45;&gt;Node6</title>
<path fill="none" stroke="midnightblue" d="M329.23,-56.08C332.08,-48.77 336.19,-38.18 339.72,-29.1"/>
<polygon fill="midnightblue" stroke="midnightblue" points="343,-30.34 343.36,-19.75 336.47,-27.8 343,-30.34"/>
</g>
<!-- Node5&#45;&gt;Node7 -->
<g id="edge6" class="edge">
<title>Node5&#45;&gt;Node7</title>
<path fill="none" stroke="midnightblue" d="M310.5,-56.32C295.54,-47.82 272.51,-34.73 255.04,-24.8"/>
<polygon fill="midnightblue" stroke="midnightblue" points="256.41,-21.55 245.99,-19.65 252.95,-27.64 256.41,-21.55"/>
</g>
<!-- Node9&#45;&gt;Node3 -->
<g id="edge11" class="edge">
<title>Node9&#45;&gt;Node3</title>
<path fill="none" stroke="midnightblue" d="M378.77,-168.32C370.57,-160.42 358.26,-148.55 348.29,-138.94"/>
<polygon fill="midnightblue" stroke="midnightblue" points="350.55,-136.26 340.93,-131.83 345.69,-141.29 350.55,-136.26"/>
</g>
<!-- Node9&#45;&gt;Node6 -->
<g id="edge10" class="edge">
<title>Node9&#45;&gt;Node6</title>
<path fill="none" stroke="midnightblue" d="M403.46,-168.32C437.07,-148.62 510.53,-98.89 479.76,-56 458.38,-26.19 416.18,-15.88 385.02,-12.44"/>
<polygon fill="midnightblue" stroke="midnightblue" points="385.2,-8.94 374.93,-11.52 384.57,-15.91 385.2,-8.94"/>
</g>
<!-- Node10 -->
<g id="node10" class="node">
<title>Node10</title>
<g id="a_node10"><a xlink:href="sifdma_8h.html" target="_top" xlink:title=" ">
<polygon fill="white" stroke="black" points="222.26,-56.5 222.26,-75.5 281.26,-75.5 281.26,-56.5 222.26,-56.5"/>
<text text-anchor="middle" x="251.76" y="-63.5" font-family="Helvetica,sans-Serif" font-size="10.00">sifdma.h</text>
</a>
</g>
</g>
<!-- Node9&#45;&gt;Node10 -->
<g id="edge12" class="edge">
<title>Node9&#45;&gt;Node10</title>
<path fill="none" stroke="midnightblue" d="M387.58,-168.24C386.82,-154.53 383.41,-127.92 368.76,-112 357.87,-100.17 320.56,-87 290.97,-77.98"/>
<polygon fill="midnightblue" stroke="midnightblue" points="291.86,-74.59 281.27,-75.09 289.86,-81.3 291.86,-74.59"/>
</g>
<!-- Node11 -->
<g id="node11" class="node">
<title>Node11</title>
<g id="a_node11"><a xlink:href="mipscopaccess_8h.html" target="_top" xlink:title=" ">
<polygon fill="white" stroke="black" points="370.76,-56.5 370.76,-75.5 470.76,-75.5 470.76,-56.5 370.76,-56.5"/>
<text text-anchor="middle" x="420.76" y="-63.5" font-family="Helvetica,sans-Serif" font-size="10.00">mipscopaccess.h</text>
</a>
</g>
</g>
<!-- Node9&#45;&gt;Node11 -->
<g id="edge14" class="edge">
<title>Node9&#45;&gt;Node11</title>
<path fill="none" stroke="midnightblue" d="M390.49,-168.39C393.35,-159.34 397.94,-144.69 401.76,-132 406.49,-116.35 411.69,-98.52 415.45,-85.5"/>
<polygon fill="midnightblue" stroke="midnightblue" points="418.82,-86.42 418.23,-75.85 412.1,-84.49 418.82,-86.42"/>
</g>
<!-- Node10&#45;&gt;Node7 -->
<g id="edge13" class="edge">
<title>Node10&#45;&gt;Node7</title>
<path fill="none" stroke="midnightblue" d="M248.3,-56.08C245.45,-48.77 241.33,-38.18 237.8,-29.1"/>
<polygon fill="midnightblue" stroke="midnightblue" points="241.05,-27.8 234.17,-19.75 234.53,-30.34 241.05,-27.8"/>
</g>
<!-- Node11&#45;&gt;Node7 -->
<g id="edge15" class="edge">
<title>Node11&#45;&gt;Node7</title>
<path fill="none" stroke="midnightblue" d="M390.66,-56.44C358.14,-47.2 306.19,-32.44 270.37,-22.26"/>
<polygon fill="midnightblue" stroke="midnightblue" points="271.31,-18.88 260.73,-19.52 269.39,-25.62 271.31,-18.88"/>
</g>
<!-- Node13 -->
<g id="node13" class="node">
<title>Node13</title>
<g id="a_node13"><a xlink:href="sysclib_8h.html" target="_top" xlink:title=" ">
<polygon fill="white" stroke="black" points="177.26,-168.5 177.26,-187.5 236.26,-187.5 236.26,-168.5 177.26,-168.5"/>
<text text-anchor="middle" x="206.76" y="-175.5" font-family="Helvetica,sans-Serif" font-size="10.00">sysclib.h</text>
</a>
</g>
</g>
<!-- Node12&#45;&gt;Node13 -->
<g id="edge17" class="edge">
<title>Node12&#45;&gt;Node13</title>
<path fill="none" stroke="midnightblue" d="M206.76,-224.08C206.76,-217.01 206.76,-206.86 206.76,-197.99"/>
<polygon fill="midnightblue" stroke="midnightblue" points="210.26,-197.75 206.76,-187.75 203.26,-197.75 210.26,-197.75"/>
</g>
<!-- Node13&#45;&gt;Node3 -->
<g id="edge20" class="edge">
<title>Node13&#45;&gt;Node3</title>
<path fill="none" stroke="midnightblue" d="M226.57,-168.44C247.05,-159.6 279.25,-145.69 302.63,-135.59"/>
<polygon fill="midnightblue" stroke="midnightblue" points="304.26,-138.7 312.05,-131.52 301.48,-132.27 304.26,-138.7"/>
</g>
<!-- Node13&#45;&gt;Node4 -->
<g id="edge19" class="edge">
<title>Node13&#45;&gt;Node4</title>
<path fill="none" stroke="midnightblue" d="M216.4,-168.32C225.27,-160.34 238.64,-148.31 249.37,-138.65"/>
<polygon fill="midnightblue" stroke="midnightblue" points="251.86,-141.13 256.95,-131.83 247.17,-135.92 251.86,-141.13"/>
</g>
<!-- Node14 -->
<g id="node14" class="node">
<title>Node14</title>
<g id="a_node14"><a xlink:title=" ">
<polygon fill="white" stroke="#bfbfbf" points="67.26,-112.5 67.26,-131.5 120.26,-131.5 120.26,-112.5 67.26,-112.5"/>
<text text-anchor="middle" x="93.76" y="-119.5" font-family="Helvetica,sans-Serif" font-size="10.00">types.h</text>
</a>
</g>
</g>
<!-- Node13&#45;&gt;Node14 -->
<g id="edge18" class="edge">
<title>Node13&#45;&gt;Node14</title>
<path fill="none" stroke="midnightblue" d="M188.86,-168.44C170.51,-159.68 141.76,-145.94 120.67,-135.86"/>
<polygon fill="midnightblue" stroke="midnightblue" points="122.12,-132.67 111.59,-131.52 119.1,-138.99 122.12,-132.67"/>
</g>
<!-- Node15 -->
<g id="node15" class="node">
<title>Node15</title>
<g id="a_node15"><a xlink:href="setjmp_8h.html" target="_top" xlink:title=" ">
<polygon fill="white" stroke="black" points="145.26,-56.5 145.26,-75.5 204.26,-75.5 204.26,-56.5 145.26,-56.5"/>
<text text-anchor="middle" x="174.76" y="-63.5" font-family="Helvetica,sans-Serif" font-size="10.00">setjmp.h</text>
</a>
</g>
</g>
<!-- Node13&#45;&gt;Node15 -->
<g id="edge21" class="edge">
<title>Node13&#45;&gt;Node15</title>
<path fill="none" stroke="midnightblue" d="M207.13,-168.35C207.4,-155.68 206.95,-131.44 200.76,-112 197.66,-102.24 192.19,-92.28 187.07,-84.22"/>
<polygon fill="midnightblue" stroke="midnightblue" points="189.86,-82.11 181.38,-75.76 184.06,-86.01 189.86,-82.11"/>
</g>
<!-- Node16 -->
<g id="node16" class="node">
<title>Node16</title>
<g id="a_node16"><a xlink:href="ctype_8h.html" target="_top" xlink:title=" ">
<polygon fill="white" stroke="black" points="138.26,-112.5 138.26,-131.5 191.26,-131.5 191.26,-112.5 138.26,-112.5"/>
<text text-anchor="middle" x="164.76" y="-119.5" font-family="Helvetica,sans-Serif" font-size="10.00">ctype.h</text>
</a>
</g>
</g>
<!-- Node13&#45;&gt;Node16 -->
<g id="edge23" class="edge">
<title>Node13&#45;&gt;Node16</title>
<path fill="none" stroke="midnightblue" d="M199.83,-168.08C193.84,-160.38 185.01,-149.03 177.72,-139.65"/>
<polygon fill="midnightblue" stroke="midnightblue" points="180.47,-137.5 171.57,-131.75 174.95,-141.79 180.47,-137.5"/>
</g>
<!-- Node15&#45;&gt;Node7 -->
<g id="edge22" class="edge">
<title>Node15&#45;&gt;Node7</title>
<path fill="none" stroke="midnightblue" d="M183.76,-56.32C191.96,-48.42 204.27,-36.55 214.24,-26.94"/>
<polygon fill="midnightblue" stroke="midnightblue" points="216.83,-29.29 221.6,-19.83 211.98,-24.26 216.83,-29.29"/>
</g>
<!-- Node19 -->
<g id="node19" class="node">
<title>Node19</title>
<g id="a_node19"><a xlink:href="librm-common_8h.html" target="_top" xlink:title=" ">
<polygon fill="white" stroke="black" points="28.76,-56.5 28.76,-75.5 126.76,-75.5 126.76,-56.5 28.76,-56.5"/>
<text text-anchor="middle" x="77.76" y="-63.5" font-family="Helvetica,sans-Serif" font-size="10.00">librm&#45;common.h</text>
</a>
</g>
</g>
<!-- Node18&#45;&gt;Node19 -->
<g id="edge26" class="edge">
<title>Node18&#45;&gt;Node19</title>
<path fill="none" stroke="midnightblue" d="M97.33,-224.24C87.13,-207.24 65.47,-168.24 57.76,-132 54.28,-115.62 60.8,-97.44 67.3,-84.48"/>
<polygon fill="midnightblue" stroke="midnightblue" points="70.37,-86.15 72.11,-75.7 64.23,-82.79 70.37,-86.15"/>
</g>
<!-- Node19&#45;&gt;Node7 -->
<g id="edge27" class="edge">
<title>Node19&#45;&gt;Node7</title>
<path fill="none" stroke="midnightblue" d="M102.01,-56.44C127.64,-47.4 168.25,-33.06 197,-22.92"/>
<polygon fill="midnightblue" stroke="midnightblue" points="198.37,-26.15 206.63,-19.52 196.04,-19.54 198.37,-26.15"/>
</g>
</g>
</svg>
