<?xml version="1.0" encoding="UTF-8" standalone="no"?>
<!DOCTYPE svg PUBLIC "-//W3C//DTD SVG 1.1//EN"
 "http://www.w3.org/Graphics/SVG/1.1/DTD/svg11.dtd">
<!-- Generated by graphviz version 2.43.0 (0)
 -->
<!-- Title: common/include/libsd&#45;common.h Pages: 1 -->
<svg width="2218pt" height="307pt"
 viewBox="0.00 0.00 2218.00 307.00" xmlns="http://www.w3.org/2000/svg" xmlns:xlink="http://www.w3.org/1999/xlink">
<g id="graph0" class="graph" transform="scale(1 1) rotate(0) translate(4 303)">
<title>common/include/libsd&#45;common.h</title>
<polygon fill="white" stroke="transparent" points="-4,4 -4,-303 2214,-303 2214,4 -4,4"/>
<!-- Node1 -->
<g id="node1" class="node">
<title>Node1</title>
<g id="a_node1"><a xlink:title=" ">
<polygon fill="#bfbfbf" stroke="black" points="969.5,-268.5 969.5,-298.5 1093.5,-298.5 1093.5,-268.5 969.5,-268.5"/>
<text text-anchor="start" x="977.5" y="-286.5" font-family="Helvetica,sans-Serif" font-size="10.00">common/include/libsd</text>
<text text-anchor="middle" x="1031.5" y="-275.5" font-family="Helvetica,sans-Serif" font-size="10.00">&#45;common.h</text>
</a>
</g>
</g>
<!-- Node2 -->
<g id="node2" class="node">
<title>Node2</title>
<g id="a_node2"><a xlink:href="ee_2rpc_2ps2snd_2include_2libsd_8h_source.html" target="_top" xlink:title=" ">
<polygon fill="white" stroke="black" points="899.5,-201.5 899.5,-231.5 1021.5,-231.5 1021.5,-201.5 899.5,-201.5"/>
<text text-anchor="start" x="907.5" y="-219.5" font-family="Helvetica,sans-Serif" font-size="10.00">ee/rpc/ps2snd/include</text>
<text text-anchor="middle" x="960.5" y="-208.5" font-family="Helvetica,sans-Serif" font-size="10.00">/libsd.h</text>
</a>
</g>
</g>
<!-- Node1&#45;&gt;Node2 -->
<g id="edge1" class="edge">
<title>Node1&#45;&gt;Node2</title>
<path fill="none" stroke="midnightblue" d="M1008.67,-261.6C997.95,-251.78 985.45,-240.34 975.88,-231.58"/>
<polygon fill="midnightblue" stroke="midnightblue" points="1006.35,-264.22 1016.09,-268.4 1011.08,-259.06 1006.35,-264.22"/>
</g>
<!-- Node3 -->
<g id="node3" class="node">
<title>Node3</title>
<g id="a_node3"><a xlink:href="iop_2sound_2libsd_2include_2libsd_8h.html" target="_top" xlink:title=" ">
<polygon fill="white" stroke="black" points="1039.5,-201.5 1039.5,-231.5 1167.5,-231.5 1167.5,-201.5 1039.5,-201.5"/>
<text text-anchor="start" x="1047.5" y="-219.5" font-family="Helvetica,sans-Serif" font-size="10.00">iop/sound/libsd/include</text>
<text text-anchor="middle" x="1103.5" y="-208.5" font-family="Helvetica,sans-Serif" font-size="10.00">/libsd.h</text>
</a>
</g>
</g>
<!-- Node1&#45;&gt;Node3 -->
<g id="edge2" class="edge">
<title>Node1&#45;&gt;Node3</title>
<path fill="none" stroke="midnightblue" d="M1054.65,-261.6C1065.52,-251.78 1078.2,-240.34 1087.91,-231.58"/>
<polygon fill="midnightblue" stroke="midnightblue" points="1052.2,-259.1 1047.12,-268.4 1056.89,-264.29 1052.2,-259.1"/>
</g>
<!-- Node4 -->
<g id="node4" class="node">
<title>Node4</title>
<g id="a_node4"><a xlink:href="ps2snd_8h.html" target="_top" xlink:title=" ">
<polygon fill="white" stroke="black" points="138.5,-140 138.5,-159 282.5,-159 282.5,-140 138.5,-140"/>
<text text-anchor="middle" x="210.5" y="-147" font-family="Helvetica,sans-Serif" font-size="10.00">common/include/ps2snd.h</text>
</a>
</g>
</g>
<!-- Node3&#45;&gt;Node4 -->
<g id="edge3" class="edge">
<title>Node3&#45;&gt;Node4</title>
<path fill="none" stroke="midnightblue" d="M1029.32,-200.99C704.56,-161.87 617.88,-199.85 296.5,-165 282.95,-163.53 268.3,-161.3 255,-159.03"/>
<polygon fill="midnightblue" stroke="midnightblue" points="1029.14,-204.5 1039.49,-202.23 1029.99,-197.55 1029.14,-204.5"/>
</g>
<!-- Node6 -->
<g id="node6" class="node">
<title>Node6</title>
<g id="a_node6"><a xlink:href="adpcm-stream_8c_source.html" target="_top" xlink:title=" ">
<polygon fill="white" stroke="black" points="0,-67.5 0,-97.5 119,-97.5 119,-67.5 0,-67.5"/>
<text text-anchor="start" x="8" y="-85.5" font-family="Helvetica,sans-Serif" font-size="10.00">iop/sound/ps2snd/src</text>
<text text-anchor="middle" x="59.5" y="-74.5" font-family="Helvetica,sans-Serif" font-size="10.00">/adpcm&#45;stream.c</text>
</a>
</g>
</g>
<!-- Node3&#45;&gt;Node6 -->
<g id="edge22" class="edge">
<title>Node3&#45;&gt;Node6</title>
<path fill="none" stroke="midnightblue" d="M1029.27,-201.2C892.57,-190.22 217.23,-207.44 129.5,-165 99.61,-150.54 77.45,-116.79 66.71,-97.56"/>
<polygon fill="midnightblue" stroke="midnightblue" points="1029.2,-204.71 1039.5,-202.2 1029.88,-197.75 1029.2,-204.71"/>
</g>
<!-- Node7 -->
<g id="node7" class="node">
<title>Node7</title>
<g id="a_node7"><a xlink:href="iop_2sound_2ps2snd_2src_2ps2snd_8c_source.html" target="_top" xlink:title=" ">
<polygon fill="white" stroke="black" points="302,-67.5 302,-97.5 421,-97.5 421,-67.5 302,-67.5"/>
<text text-anchor="start" x="310" y="-85.5" font-family="Helvetica,sans-Serif" font-size="10.00">iop/sound/ps2snd/src</text>
<text text-anchor="middle" x="361.5" y="-74.5" font-family="Helvetica,sans-Serif" font-size="10.00">/ps2snd.c</text>
</a>
</g>
</g>
<!-- Node3&#45;&gt;Node7 -->
<g id="edge24" class="edge">
<title>Node3&#45;&gt;Node7</title>
<path fill="none" stroke="midnightblue" d="M1029.32,-201.29C915.83,-193.29 381.43,-219.67 329.5,-165 311.39,-145.93 332.37,-115.42 347.88,-97.63"/>
<polygon fill="midnightblue" stroke="midnightblue" points="1029.21,-204.79 1039.49,-202.24 1029.86,-197.83 1029.21,-204.79"/>
</g>
<!-- Node8 -->
<g id="node8" class="node">
<title>Node8</title>
<g id="a_node8"><a xlink:href="iop_2dev9_2extflash_2src_2irx__imports_8h_source.html" target="_top" xlink:title=" ">
<polygon fill="white" stroke="black" points="338.5,-134.5 338.5,-164.5 456.5,-164.5 456.5,-134.5 338.5,-134.5"/>
<text text-anchor="start" x="346.5" y="-152.5" font-family="Helvetica,sans-Serif" font-size="10.00">iop/dev9/extflash/src</text>
<text text-anchor="middle" x="397.5" y="-141.5" font-family="Helvetica,sans-Serif" font-size="10.00">/irx_imports.h</text>
</a>
</g>
</g>
<!-- Node3&#45;&gt;Node8 -->
<g id="edge7" class="edge">
<title>Node3&#45;&gt;Node8</title>
<path fill="none" stroke="midnightblue" d="M1029.36,-200.98C779.22,-169.22 711.48,-198.88 465.5,-165 462.63,-164.6 459.7,-164.16 456.75,-163.67"/>
<polygon fill="midnightblue" stroke="midnightblue" points="1029.12,-204.48 1039.49,-202.29 1030.02,-197.54 1029.12,-204.48"/>
</g>
<!-- Node9 -->
<g id="node9" class="node">
<title>Node9</title>
<g id="a_node9"><a xlink:href="ahx__irx_8c_source.html" target="_top" xlink:title=" ">
<polygon fill="white" stroke="black" points="475,-134.5 475,-164.5 598,-164.5 598,-134.5 475,-134.5"/>
<text text-anchor="start" x="483" y="-152.5" font-family="Helvetica,sans-Serif" font-size="10.00">iop/sound/ahx/src/ahx</text>
<text text-anchor="middle" x="536.5" y="-141.5" font-family="Helvetica,sans-Serif" font-size="10.00">_irx.c</text>
</a>
</g>
</g>
<!-- Node3&#45;&gt;Node9 -->
<g id="edge8" class="edge">
<title>Node3&#45;&gt;Node9</title>
<path fill="none" stroke="midnightblue" d="M1029.56,-200.98C841.95,-175.16 791.06,-191.46 607.5,-165 604.51,-164.57 601.46,-164.09 598.38,-163.58"/>
<polygon fill="midnightblue" stroke="midnightblue" points="1029.09,-204.45 1039.47,-202.36 1030.06,-197.51 1029.09,-204.45"/>
</g>
<!-- Node10 -->
<g id="node10" class="node">
<title>Node10</title>
<g id="a_node10"><a xlink:href="ahx_2src_2include_2freesd_8h_source.html" target="_top" xlink:title=" ">
<polygon fill="white" stroke="black" points="616.5,-134.5 616.5,-164.5 756.5,-164.5 756.5,-134.5 616.5,-134.5"/>
<text text-anchor="start" x="624.5" y="-152.5" font-family="Helvetica,sans-Serif" font-size="10.00">iop/sound/ahx/src/include</text>
<text text-anchor="middle" x="686.5" y="-141.5" font-family="Helvetica,sans-Serif" font-size="10.00">/freesd.h</text>
</a>
</g>
</g>
<!-- Node3&#45;&gt;Node10 -->
<g id="edge9" class="edge">
<title>Node3&#45;&gt;Node10</title>
<path fill="none" stroke="midnightblue" d="M1029.31,-200.87C911.54,-181.52 879.66,-183.22 765.5,-165 762.61,-164.54 759.66,-164.06 756.68,-163.56"/>
<polygon fill="midnightblue" stroke="midnightblue" points="1029.01,-204.36 1039.45,-202.55 1030.15,-197.46 1029.01,-204.36"/>
</g>
<!-- Node11 -->
<g id="node11" class="node">
<title>Node11</title>
<g id="a_node11"><a xlink:href="iop_2sound_2audsrv_2src_2adpcm_8c.html" target="_top" xlink:title=" ">
<polygon fill="white" stroke="black" points="775,-134.5 775,-164.5 892,-164.5 892,-134.5 775,-134.5"/>
<text text-anchor="start" x="783" y="-152.5" font-family="Helvetica,sans-Serif" font-size="10.00">iop/sound/audsrv/src</text>
<text text-anchor="middle" x="833.5" y="-141.5" font-family="Helvetica,sans-Serif" font-size="10.00">/adpcm.c</text>
</a>
</g>
</g>
<!-- Node3&#45;&gt;Node11 -->
<g id="edge10" class="edge">
<title>Node3&#45;&gt;Node11</title>
<path fill="none" stroke="midnightblue" d="M1035.45,-199.12C991.27,-188.48 934.28,-174.76 892.11,-164.61"/>
<polygon fill="midnightblue" stroke="midnightblue" points="1034.7,-202.54 1045.25,-201.48 1036.34,-195.73 1034.7,-202.54"/>
</g>
<!-- Node12 -->
<g id="node12" class="node">
<title>Node12</title>
<g id="a_node12"><a xlink:href="audsrv_8c.html" target="_top" xlink:title=" ">
<polygon fill="white" stroke="black" points="910,-134.5 910,-164.5 1027,-164.5 1027,-134.5 910,-134.5"/>
<text text-anchor="start" x="918" y="-152.5" font-family="Helvetica,sans-Serif" font-size="10.00">iop/sound/audsrv/src</text>
<text text-anchor="middle" x="968.5" y="-141.5" font-family="Helvetica,sans-Serif" font-size="10.00">/audsrv.c</text>
</a>
</g>
</g>
<!-- Node3&#45;&gt;Node12 -->
<g id="edge11" class="edge">
<title>Node3&#45;&gt;Node12</title>
<path fill="none" stroke="midnightblue" d="M1065.06,-196.99C1043.66,-186.69 1017.45,-174.07 997.74,-164.58"/>
<polygon fill="midnightblue" stroke="midnightblue" points="1063.68,-200.21 1074.21,-201.4 1066.72,-193.9 1063.68,-200.21"/>
</g>
<!-- Node13 -->
<g id="node13" class="node">
<title>Node13</title>
<g id="a_node13"><a xlink:href="cdrom_8c.html" target="_top" xlink:title=" ">
<polygon fill="white" stroke="black" points="1045,-134.5 1045,-164.5 1162,-164.5 1162,-134.5 1045,-134.5"/>
<text text-anchor="start" x="1053" y="-152.5" font-family="Helvetica,sans-Serif" font-size="10.00">iop/sound/audsrv/src</text>
<text text-anchor="middle" x="1103.5" y="-141.5" font-family="Helvetica,sans-Serif" font-size="10.00">/cdrom.c</text>
</a>
</g>
</g>
<!-- Node3&#45;&gt;Node13 -->
<g id="edge12" class="edge">
<title>Node3&#45;&gt;Node13</title>
<path fill="none" stroke="midnightblue" d="M1103.5,-191.11C1103.5,-182.15 1103.5,-172.32 1103.5,-164.58"/>
<polygon fill="midnightblue" stroke="midnightblue" points="1100,-191.4 1103.5,-201.4 1107,-191.4 1100,-191.4"/>
</g>
<!-- Node14 -->
<g id="node14" class="node">
<title>Node14</title>
<g id="a_node14"><a xlink:href="iop_2sound_2audsrv_2src_2irx__imports_8h_source.html" target="_top" xlink:title=" ">
<polygon fill="white" stroke="black" points="1180,-134.5 1180,-164.5 1297,-164.5 1297,-134.5 1180,-134.5"/>
<text text-anchor="start" x="1188" y="-152.5" font-family="Helvetica,sans-Serif" font-size="10.00">iop/sound/audsrv/src</text>
<text text-anchor="middle" x="1238.5" y="-141.5" font-family="Helvetica,sans-Serif" font-size="10.00">/irx_imports.h</text>
</a>
</g>
</g>
<!-- Node3&#45;&gt;Node14 -->
<g id="edge13" class="edge">
<title>Node3&#45;&gt;Node14</title>
<path fill="none" stroke="midnightblue" d="M1141.94,-196.99C1163.34,-186.69 1189.55,-174.07 1209.26,-164.58"/>
<polygon fill="midnightblue" stroke="midnightblue" points="1140.28,-193.9 1132.79,-201.4 1143.32,-200.21 1140.28,-193.9"/>
</g>
<!-- Node15 -->
<g id="node15" class="node">
<title>Node15</title>
<g id="a_node15"><a xlink:href="iop_2sound_2audsrv_2src_2rpc__client_8c_source.html" target="_top" xlink:title=" ">
<polygon fill="white" stroke="black" points="1315,-134.5 1315,-164.5 1432,-164.5 1432,-134.5 1315,-134.5"/>
<text text-anchor="start" x="1323" y="-152.5" font-family="Helvetica,sans-Serif" font-size="10.00">iop/sound/audsrv/src</text>
<text text-anchor="middle" x="1373.5" y="-141.5" font-family="Helvetica,sans-Serif" font-size="10.00">/rpc_client.c</text>
</a>
</g>
</g>
<!-- Node3&#45;&gt;Node15 -->
<g id="edge14" class="edge">
<title>Node3&#45;&gt;Node15</title>
<path fill="none" stroke="midnightblue" d="M1171.55,-199.12C1215.73,-188.48 1272.72,-174.76 1314.89,-164.61"/>
<polygon fill="midnightblue" stroke="midnightblue" points="1170.66,-195.73 1161.75,-201.48 1172.3,-202.54 1170.66,-195.73"/>
</g>
<!-- Node16 -->
<g id="node16" class="node">
<title>Node16</title>
<g id="a_node16"><a xlink:href="batch_8c.html" target="_top" xlink:title=" ">
<polygon fill="white" stroke="black" points="1450,-134.5 1450,-164.5 1557,-164.5 1557,-134.5 1450,-134.5"/>
<text text-anchor="start" x="1458" y="-152.5" font-family="Helvetica,sans-Serif" font-size="10.00">iop/sound/libsd/src</text>
<text text-anchor="middle" x="1503.5" y="-141.5" font-family="Helvetica,sans-Serif" font-size="10.00">/batch.c</text>
</a>
</g>
</g>
<!-- Node3&#45;&gt;Node16 -->
<g id="edge15" class="edge">
<title>Node3&#45;&gt;Node16</title>
<path fill="none" stroke="midnightblue" d="M1177.98,-206.03C1246.46,-196.92 1350.66,-182.04 1440.5,-165 1443.59,-164.41 1446.75,-163.78 1449.94,-163.12"/>
<polygon fill="midnightblue" stroke="midnightblue" points="1177.18,-202.6 1167.73,-207.38 1178.1,-209.54 1177.18,-202.6"/>
</g>
<!-- Node17 -->
<g id="node17" class="node">
<title>Node17</title>
<g id="a_node17"><a xlink:href="effect_8c.html" target="_top" xlink:title=" ">
<polygon fill="white" stroke="black" points="1575,-134.5 1575,-164.5 1682,-164.5 1682,-134.5 1575,-134.5"/>
<text text-anchor="start" x="1583" y="-152.5" font-family="Helvetica,sans-Serif" font-size="10.00">iop/sound/libsd/src</text>
<text text-anchor="middle" x="1628.5" y="-141.5" font-family="Helvetica,sans-Serif" font-size="10.00">/effect.c</text>
</a>
</g>
</g>
<!-- Node3&#45;&gt;Node17 -->
<g id="edge16" class="edge">
<title>Node3&#45;&gt;Node17</title>
<path fill="none" stroke="midnightblue" d="M1177.73,-210.09C1269.31,-202.78 1429.58,-187.99 1565.5,-165 1568.6,-164.48 1571.77,-163.89 1574.97,-163.27"/>
<polygon fill="midnightblue" stroke="midnightblue" points="1177.42,-206.6 1167.73,-210.87 1177.97,-213.58 1177.42,-206.6"/>
</g>
<!-- Node18 -->
<g id="node18" class="node">
<title>Node18</title>
<g id="a_node18"><a xlink:href="libsd_2src_2include_2freesd_8h_source.html" target="_top" xlink:title=" ">
<polygon fill="white" stroke="black" points="1700,-134.5 1700,-164.5 1807,-164.5 1807,-134.5 1700,-134.5"/>
<text text-anchor="start" x="1708" y="-152.5" font-family="Helvetica,sans-Serif" font-size="10.00">iop/sound/libsd/src</text>
<text text-anchor="middle" x="1753.5" y="-141.5" font-family="Helvetica,sans-Serif" font-size="10.00">/include/freesd.h</text>
</a>
</g>
</g>
<!-- Node3&#45;&gt;Node18 -->
<g id="edge17" class="edge">
<title>Node3&#45;&gt;Node18</title>
<path fill="none" stroke="midnightblue" d="M1177.86,-212.45C1289.67,-207.12 1507.51,-193.78 1690.5,-165 1693.6,-164.51 1696.78,-163.96 1699.98,-163.36"/>
<polygon fill="midnightblue" stroke="midnightblue" points="1177.52,-208.96 1167.7,-212.93 1177.85,-215.96 1177.52,-208.96"/>
</g>
<!-- Node23 -->
<g id="node23" class="node">
<title>Node23</title>
<g id="a_node23"><a xlink:href="iop_2sound_2ps2snd_2src_2irx__imports_8h_source.html" target="_top" xlink:title=" ">
<polygon fill="white" stroke="black" points="1825,-134.5 1825,-164.5 1944,-164.5 1944,-134.5 1825,-134.5"/>
<text text-anchor="start" x="1833" y="-152.5" font-family="Helvetica,sans-Serif" font-size="10.00">iop/sound/ps2snd/src</text>
<text text-anchor="middle" x="1884.5" y="-141.5" font-family="Helvetica,sans-Serif" font-size="10.00">/irx_imports.h</text>
</a>
</g>
</g>
<!-- Node3&#45;&gt;Node23 -->
<g id="edge23" class="edge">
<title>Node3&#45;&gt;Node23</title>
<path fill="none" stroke="midnightblue" d="M1177.86,-213.56C1307.77,-209.43 1584.28,-197.34 1815.5,-165 1818.53,-164.58 1821.63,-164.1 1824.75,-163.58"/>
<polygon fill="midnightblue" stroke="midnightblue" points="1177.52,-210.07 1167.63,-213.88 1177.73,-217.07 1177.52,-210.07"/>
</g>
<!-- Node24 -->
<g id="node24" class="node">
<title>Node24</title>
<g id="a_node24"><a xlink:href="iop_2sound_2sdrdrv_2src_2irx__imports_8h_source.html" target="_top" xlink:title=" ">
<polygon fill="white" stroke="black" points="1962,-134.5 1962,-164.5 2077,-164.5 2077,-134.5 1962,-134.5"/>
<text text-anchor="start" x="1970" y="-152.5" font-family="Helvetica,sans-Serif" font-size="10.00">iop/sound/sdrdrv/src</text>
<text text-anchor="middle" x="2019.5" y="-141.5" font-family="Helvetica,sans-Serif" font-size="10.00">/irx_imports.h</text>
</a>
</g>
</g>
<!-- Node3&#45;&gt;Node24 -->
<g id="edge25" class="edge">
<title>Node3&#45;&gt;Node24</title>
<path fill="none" stroke="midnightblue" d="M1177.88,-214.99C1326.15,-213.12 1668.76,-204.49 1953.5,-165 1956.17,-164.63 1958.9,-164.21 1961.64,-163.75"/>
<polygon fill="midnightblue" stroke="midnightblue" points="1177.5,-211.5 1167.55,-215.12 1177.59,-218.5 1177.5,-211.5"/>
</g>
<!-- Node29 -->
<g id="node29" class="node">
<title>Node29</title>
<g id="a_node29"><a xlink:href="iop_2usb_2camera_2src_2irx__imports_8h_source.html" target="_top" xlink:title=" ">
<polygon fill="white" stroke="black" points="2095,-134.5 2095,-164.5 2204,-164.5 2204,-134.5 2095,-134.5"/>
<text text-anchor="start" x="2103" y="-152.5" font-family="Helvetica,sans-Serif" font-size="10.00">iop/usb/camera/src</text>
<text text-anchor="middle" x="2149.5" y="-141.5" font-family="Helvetica,sans-Serif" font-size="10.00">/irx_imports.h</text>
</a>
</g>
</g>
<!-- Node3&#45;&gt;Node29 -->
<g id="edge30" class="edge">
<title>Node3&#45;&gt;Node29</title>
<path fill="none" stroke="midnightblue" d="M1177.7,-216.1C1342.2,-216.47 1749.57,-212.06 2086.5,-165 2089.28,-164.61 2092.12,-164.16 2094.97,-163.66"/>
<polygon fill="midnightblue" stroke="midnightblue" points="1177.71,-212.6 1167.69,-216.07 1177.68,-219.6 1177.71,-212.6"/>
</g>
<!-- Node5 -->
<g id="node5" class="node">
<title>Node5</title>
<g id="a_node5"><a xlink:href="ee_2rpc_2ps2snd_2src_2ps2snd_8c_source.html" target="_top" xlink:title=" ">
<polygon fill="white" stroke="black" points="137,-73 137,-92 284,-92 284,-73 137,-73"/>
<text text-anchor="middle" x="210.5" y="-80" font-family="Helvetica,sans-Serif" font-size="10.00">ee/rpc/ps2snd/src/ps2snd.c</text>
</a>
</g>
</g>
<!-- Node4&#45;&gt;Node5 -->
<g id="edge4" class="edge">
<title>Node4&#45;&gt;Node5</title>
<path fill="none" stroke="midnightblue" d="M210.5,-129.54C210.5,-117.17 210.5,-101.62 210.5,-92.13"/>
<polygon fill="midnightblue" stroke="midnightblue" points="207,-129.73 210.5,-139.73 214,-129.73 207,-129.73"/>
</g>
<!-- Node4&#45;&gt;Node6 -->
<g id="edge5" class="edge">
<title>Node4&#45;&gt;Node6</title>
<path fill="none" stroke="midnightblue" d="M181.26,-135.91C155.69,-124.91 118.6,-108.94 92.09,-97.53"/>
<polygon fill="midnightblue" stroke="midnightblue" points="179.88,-139.13 190.45,-139.87 182.65,-132.7 179.88,-139.13"/>
</g>
<!-- Node4&#45;&gt;Node7 -->
<g id="edge6" class="edge">
<title>Node4&#45;&gt;Node7</title>
<path fill="none" stroke="midnightblue" d="M239.74,-135.91C265.31,-124.91 302.4,-108.94 328.91,-97.53"/>
<polygon fill="midnightblue" stroke="midnightblue" points="238.35,-132.7 230.55,-139.87 241.12,-139.13 238.35,-132.7"/>
</g>
<!-- Node19 -->
<g id="node19" class="node">
<title>Node19</title>
<g id="a_node19"><a xlink:href="spu2_8c_source.html" target="_top" xlink:title=" ">
<polygon fill="white" stroke="black" points="1426,-73 1426,-92 1563,-92 1563,-73 1426,-73"/>
<text text-anchor="middle" x="1494.5" y="-80" font-family="Helvetica,sans-Serif" font-size="10.00">iop/sound/ahx/src/spu2.c</text>
</a>
</g>
</g>
<!-- Node18&#45;&gt;Node19 -->
<g id="edge18" class="edge">
<title>Node18&#45;&gt;Node19</title>
<path fill="none" stroke="midnightblue" d="M1689.92,-132.54C1639.04,-119.77 1569.65,-102.36 1528.71,-92.09"/>
<polygon fill="midnightblue" stroke="midnightblue" points="1689.28,-135.99 1699.84,-135.03 1690.99,-129.2 1689.28,-135.99"/>
</g>
<!-- Node20 -->
<g id="node20" class="node">
<title>Node20</title>
<g id="a_node20"><a xlink:href="sound_2libsd_2src_2block_8c.html" target="_top" xlink:title=" ">
<polygon fill="white" stroke="black" points="1581,-67.5 1581,-97.5 1688,-97.5 1688,-67.5 1581,-67.5"/>
<text text-anchor="start" x="1589" y="-85.5" font-family="Helvetica,sans-Serif" font-size="10.00">iop/sound/libsd/src</text>
<text text-anchor="middle" x="1634.5" y="-74.5" font-family="Helvetica,sans-Serif" font-size="10.00">/block.c</text>
</a>
</g>
</g>
<!-- Node18&#45;&gt;Node20 -->
<g id="edge19" class="edge">
<title>Node18&#45;&gt;Node20</title>
<path fill="none" stroke="midnightblue" d="M1718.85,-129.57C1700.13,-119.35 1677.41,-106.94 1660.27,-97.58"/>
<polygon fill="midnightblue" stroke="midnightblue" points="1717.22,-132.67 1727.68,-134.4 1720.58,-126.53 1717.22,-132.67"/>
</g>
<!-- Node21 -->
<g id="node21" class="node">
<title>Node21</title>
<g id="a_node21"><a xlink:href="freesd_8c.html" target="_top" xlink:title=" ">
<polygon fill="white" stroke="black" points="1706,-67.5 1706,-97.5 1813,-97.5 1813,-67.5 1706,-67.5"/>
<text text-anchor="start" x="1714" y="-85.5" font-family="Helvetica,sans-Serif" font-size="10.00">iop/sound/libsd/src</text>
<text text-anchor="middle" x="1759.5" y="-74.5" font-family="Helvetica,sans-Serif" font-size="10.00">/freesd.c</text>
</a>
</g>
</g>
<!-- Node18&#45;&gt;Node21 -->
<g id="edge20" class="edge">
<title>Node18&#45;&gt;Node21</title>
<path fill="none" stroke="midnightblue" d="M1755.72,-124.4C1756.56,-115.37 1757.48,-105.41 1758.2,-97.58"/>
<polygon fill="midnightblue" stroke="midnightblue" points="1752.24,-124.12 1754.8,-134.4 1759.21,-124.76 1752.24,-124.12"/>
</g>
<!-- Node22 -->
<g id="node22" class="node">
<title>Node22</title>
<g id="a_node22"><a xlink:href="voice_8c.html" target="_top" xlink:title=" ">
<polygon fill="white" stroke="black" points="1831,-67.5 1831,-97.5 1938,-97.5 1938,-67.5 1831,-67.5"/>
<text text-anchor="start" x="1839" y="-85.5" font-family="Helvetica,sans-Serif" font-size="10.00">iop/sound/libsd/src</text>
<text text-anchor="middle" x="1884.5" y="-74.5" font-family="Helvetica,sans-Serif" font-size="10.00">/voice.c</text>
</a>
</g>
</g>
<!-- Node18&#45;&gt;Node22 -->
<g id="edge21" class="edge">
<title>Node18&#45;&gt;Node22</title>
<path fill="none" stroke="midnightblue" d="M1791.08,-129.85C1811.79,-119.58 1837.09,-107.03 1856.13,-97.58"/>
<polygon fill="midnightblue" stroke="midnightblue" points="1789.33,-126.82 1781.93,-134.4 1792.44,-133.09 1789.33,-126.82"/>
</g>
<!-- Node25 -->
<g id="node25" class="node">
<title>Node25</title>
<g id="a_node25"><a xlink:href="sdr__i_8h_source.html" target="_top" xlink:title=" ">
<polygon fill="white" stroke="black" points="1962,-67.5 1962,-97.5 2077,-97.5 2077,-67.5 1962,-67.5"/>
<text text-anchor="start" x="1970" y="-85.5" font-family="Helvetica,sans-Serif" font-size="10.00">iop/sound/sdrdrv/src</text>
<text text-anchor="middle" x="2019.5" y="-74.5" font-family="Helvetica,sans-Serif" font-size="10.00">/sdr_i.h</text>
</a>
</g>
</g>
<!-- Node24&#45;&gt;Node25 -->
<g id="edge26" class="edge">
<title>Node24&#45;&gt;Node25</title>
<path fill="none" stroke="midnightblue" d="M2019.5,-124.11C2019.5,-115.15 2019.5,-105.32 2019.5,-97.58"/>
<polygon fill="midnightblue" stroke="midnightblue" points="2016,-124.4 2019.5,-134.4 2023,-124.4 2016,-124.4"/>
</g>
<!-- Node26 -->
<g id="node26" class="node">
<title>Node26</title>
<g id="a_node26"><a xlink:href="sdd__cb_8c_source.html" target="_top" xlink:title=" ">
<polygon fill="white" stroke="black" points="1829,-0.5 1829,-30.5 1944,-30.5 1944,-0.5 1829,-0.5"/>
<text text-anchor="start" x="1837" y="-18.5" font-family="Helvetica,sans-Serif" font-size="10.00">iop/sound/sdrdrv/src</text>
<text text-anchor="middle" x="1886.5" y="-7.5" font-family="Helvetica,sans-Serif" font-size="10.00">/sdd_cb.c</text>
</a>
</g>
</g>
<!-- Node25&#45;&gt;Node26 -->
<g id="edge27" class="edge">
<title>Node25&#45;&gt;Node26</title>
<path fill="none" stroke="midnightblue" d="M1981.63,-62.99C1960.55,-52.69 1934.72,-40.07 1915.3,-30.58"/>
<polygon fill="midnightblue" stroke="midnightblue" points="1980.12,-66.15 1990.64,-67.4 1983.19,-59.86 1980.12,-66.15"/>
</g>
<!-- Node27 -->
<g id="node27" class="node">
<title>Node27</title>
<g id="a_node27"><a xlink:href="sdd__com_8c_source.html" target="_top" xlink:title=" ">
<polygon fill="white" stroke="black" points="1962,-0.5 1962,-30.5 2077,-30.5 2077,-0.5 1962,-0.5"/>
<text text-anchor="start" x="1970" y="-18.5" font-family="Helvetica,sans-Serif" font-size="10.00">iop/sound/sdrdrv/src</text>
<text text-anchor="middle" x="2019.5" y="-7.5" font-family="Helvetica,sans-Serif" font-size="10.00">/sdd_com.c</text>
</a>
</g>
</g>
<!-- Node25&#45;&gt;Node27 -->
<g id="edge28" class="edge">
<title>Node25&#45;&gt;Node27</title>
<path fill="none" stroke="midnightblue" d="M2019.5,-57.11C2019.5,-48.15 2019.5,-38.32 2019.5,-30.58"/>
<polygon fill="midnightblue" stroke="midnightblue" points="2016,-57.4 2019.5,-67.4 2023,-57.4 2016,-57.4"/>
</g>
<!-- Node28 -->
<g id="node28" class="node">
<title>Node28</title>
<g id="a_node28"><a xlink:href="sdd__main_8c_source.html" target="_top" xlink:title=" ">
<polygon fill="white" stroke="black" points="2095,-0.5 2095,-30.5 2210,-30.5 2210,-0.5 2095,-0.5"/>
<text text-anchor="start" x="2103" y="-18.5" font-family="Helvetica,sans-Serif" font-size="10.00">iop/sound/sdrdrv/src</text>
<text text-anchor="middle" x="2152.5" y="-7.5" font-family="Helvetica,sans-Serif" font-size="10.00">/sdd_main.c</text>
</a>
</g>
</g>
<!-- Node25&#45;&gt;Node28 -->
<g id="edge29" class="edge">
<title>Node25&#45;&gt;Node28</title>
<path fill="none" stroke="midnightblue" d="M2057.37,-62.99C2078.45,-52.69 2104.28,-40.07 2123.7,-30.58"/>
<polygon fill="midnightblue" stroke="midnightblue" points="2055.81,-59.86 2048.36,-67.4 2058.88,-66.15 2055.81,-59.86"/>
</g>
</g>
</svg>
