<?xml version="1.0" encoding="UTF-8" standalone="no"?>
<!DOCTYPE svg PUBLIC "-//W3C//DTD SVG 1.1//EN"
 "http://www.w3.org/Graphics/SVG/1.1/DTD/svg11.dtd">
<!-- Generated by graphviz version 2.43.0 (0)
 -->
<!-- Title: ee/libvux/include/libvux.h Pages: 1 -->
<svg width="363pt" height="140pt"
 viewBox="0.00 0.00 363.00 140.00" xmlns="http://www.w3.org/2000/svg" xmlns:xlink="http://www.w3.org/1999/xlink">
<g id="graph0" class="graph" transform="scale(1 1) rotate(0) translate(4 136)">
<title>ee/libvux/include/libvux.h</title>
<polygon fill="white" stroke="transparent" points="-4,4 -4,-136 359,-136 359,4 -4,4"/>
<!-- Node1 -->
<g id="node1" class="node">
<title>Node1</title>
<g id="a_node1"><a xlink:title=" ">
<polygon fill="#bfbfbf" stroke="black" points="114,-112.5 114,-131.5 256,-131.5 256,-112.5 114,-112.5"/>
<text text-anchor="middle" x="185" y="-119.5" font-family="Helvetica,sans-Serif" font-size="10.00">ee/libvux/include/libvux.h</text>
</a>
</g>
</g>
<!-- Node2 -->
<g id="node2" class="node">
<title>Node2</title>
<g id="a_node2"><a xlink:href="vuhw_8c_source.html" target="_top" xlink:title=" ">
<polygon fill="white" stroke="black" points="0,-56.5 0,-75.5 116,-75.5 116,-56.5 0,-56.5"/>
<text text-anchor="middle" x="58" y="-63.5" font-family="Helvetica,sans-Serif" font-size="10.00">ee/libvux/src/vuhw.c</text>
</a>
</g>
</g>
<!-- Node1&#45;&gt;Node2 -->
<g id="edge1" class="edge">
<title>Node1&#45;&gt;Node2</title>
<path fill="none" stroke="midnightblue" d="M155.61,-108.5C131.8,-98.38 98.89,-84.39 78.03,-75.52"/>
<polygon fill="midnightblue" stroke="midnightblue" points="154.3,-111.75 164.88,-112.44 157.04,-105.31 154.3,-111.75"/>
</g>
<!-- Node3 -->
<g id="node3" class="node">
<title>Node3</title>
<g id="a_node3"><a xlink:href="vusw_8c_source.html" target="_top" xlink:title=" ">
<polygon fill="white" stroke="black" points="104.5,-0.5 104.5,-19.5 219.5,-19.5 219.5,-0.5 104.5,-0.5"/>
<text text-anchor="middle" x="162" y="-7.5" font-family="Helvetica,sans-Serif" font-size="10.00">ee/libvux/src/vusw.c</text>
</a>
</g>
</g>
<!-- Node1&#45;&gt;Node3 -->
<g id="edge2" class="edge">
<title>Node1&#45;&gt;Node3</title>
<path fill="none" stroke="midnightblue" d="M174.3,-103.67C169.9,-95.58 165.3,-85.62 163,-76 158.27,-56.24 159.7,-32.13 160.96,-19.56"/>
<polygon fill="midnightblue" stroke="midnightblue" points="171.36,-105.57 179.41,-112.47 177.42,-102.06 171.36,-105.57"/>
</g>
<!-- Node4 -->
<g id="node4" class="node">
<title>Node4</title>
<g id="a_node4"><a xlink:href="vux_8h_source.html" target="_top" xlink:title=" ">
<polygon fill="white" stroke="black" points="172.5,-56.5 172.5,-75.5 281.5,-75.5 281.5,-56.5 172.5,-56.5"/>
<text text-anchor="middle" x="227" y="-63.5" font-family="Helvetica,sans-Serif" font-size="10.00">ee/libvux/src/vux.h</text>
</a>
</g>
</g>
<!-- Node1&#45;&gt;Node4 -->
<g id="edge3" class="edge">
<title>Node1&#45;&gt;Node4</title>
<path fill="none" stroke="midnightblue" d="M198.11,-104.14C205.43,-94.74 214.24,-83.4 220.19,-75.75"/>
<polygon fill="midnightblue" stroke="midnightblue" points="195.31,-102.04 191.94,-112.08 200.84,-106.34 195.31,-102.04"/>
</g>
<!-- Node5 -->
<g id="node5" class="node">
<title>Node5</title>
<g id="a_node5"><a xlink:href="vux_8c_source.html" target="_top" xlink:title=" ">
<polygon fill="white" stroke="black" points="247,-0.5 247,-19.5 355,-19.5 355,-0.5 247,-0.5"/>
<text text-anchor="middle" x="301" y="-7.5" font-family="Helvetica,sans-Serif" font-size="10.00">ee/libvux/src/vux.c</text>
</a>
</g>
</g>
<!-- Node1&#45;&gt;Node5 -->
<g id="edge6" class="edge">
<title>Node1&#45;&gt;Node5</title>
<path fill="none" stroke="midnightblue" d="M240.23,-109.25C259.04,-102.55 278.46,-92.13 291,-76 303.9,-59.42 303.42,-33.09 302.13,-19.6"/>
<polygon fill="midnightblue" stroke="midnightblue" points="238.91,-106 230.49,-112.43 241.08,-112.65 238.91,-106"/>
</g>
<!-- Node4&#45;&gt;Node3 -->
<g id="edge4" class="edge">
<title>Node4&#45;&gt;Node3</title>
<path fill="none" stroke="midnightblue" d="M208.73,-49.82C197.08,-40.15 182.4,-27.95 172.63,-19.83"/>
<polygon fill="midnightblue" stroke="midnightblue" points="206.63,-52.63 216.56,-56.32 211.1,-47.24 206.63,-52.63"/>
</g>
<!-- Node4&#45;&gt;Node5 -->
<g id="edge5" class="edge">
<title>Node4&#45;&gt;Node5</title>
<path fill="none" stroke="midnightblue" d="M247.03,-50.38C260.41,-40.62 277.56,-28.11 288.89,-19.83"/>
<polygon fill="midnightblue" stroke="midnightblue" points="244.9,-47.6 238.89,-56.32 249.03,-53.26 244.9,-47.6"/>
</g>
</g>
</svg>
