<?xml version="1.0" encoding="UTF-8" standalone="no"?>
<!DOCTYPE svg PUBLIC "-//W3C//DTD SVG 1.1//EN"
 "http://www.w3.org/Graphics/SVG/1.1/DTD/svg11.dtd">
<!-- Generated by graphviz version 2.44.0 ()
 -->
<!-- Title: iop/kernel/include/limits.h Pages: 1 -->
<svg width="854pt" height="106pt"
 viewBox="0.00 0.00 853.50 106.00" xmlns="http://www.w3.org/2000/svg" xmlns:xlink="http://www.w3.org/1999/xlink">
<g id="graph0" class="graph" transform="scale(1 1) rotate(0) translate(4 102)">
<title>iop/kernel/include/limits.h</title>
<polygon fill="white" stroke="transparent" points="-4,4 -4,-102 849.5,-102 849.5,4 -4,4"/>
<!-- Node1 -->
<g id="node1" class="node">
<title>Node1</title>
<g id="a_node1"><a xlink:title=" ">
<polygon fill="#bfbfbf" stroke="black" points="384,-67.5 384,-97.5 476,-97.5 476,-67.5 384,-67.5"/>
<text text-anchor="start" x="392" y="-85.5" font-family="Helvetica,sans-Serif" font-size="10.00">iop/kernel/include</text>
<text text-anchor="middle" x="430" y="-74.5" font-family="Helvetica,sans-Serif" font-size="10.00">/limits.h</text>
</a>
</g>
</g>
<!-- Node2 -->
<g id="node2" class="node">
<title>Node2</title>
<g id="a_node2"><a xlink:href="ps2sdkapi_8c_source.html" target="_top" xlink:title=" ">
<polygon fill="white" stroke="black" points="0,-6 0,-25 116,-25 116,-6 0,-6"/>
<text text-anchor="middle" x="58" y="-13" font-family="Helvetica,sans-Serif" font-size="10.00">ee/libc/src/ps2sdkapi.c</text>
</a>
</g>
</g>
<!-- Node1&#45;&gt;Node2 -->
<g id="edge1" class="edge">
<title>Node1&#45;&gt;Node2</title>
<path fill="none" stroke="midnightblue" d="M373.65,-73.02C312.33,-63.59 211.47,-47.5 125,-31 115.53,-29.19 105.35,-27.08 95.85,-25.03"/>
<polygon fill="midnightblue" stroke="midnightblue" points="373.47,-76.53 383.89,-74.59 374.53,-69.61 373.47,-76.53"/>
</g>
<!-- Node3 -->
<g id="node3" class="node">
<title>Node3</title>
<g id="a_node3"><a xlink:href="ee_2network_2tcpip_2src_2sys__arch_8c_source.html" target="_top" xlink:title=" ">
<polygon fill="white" stroke="black" points="134.5,-0.5 134.5,-30.5 239.5,-30.5 239.5,-0.5 134.5,-0.5"/>
<text text-anchor="start" x="142.5" y="-18.5" font-family="Helvetica,sans-Serif" font-size="10.00">ee/network/tcpip/src</text>
<text text-anchor="middle" x="187" y="-7.5" font-family="Helvetica,sans-Serif" font-size="10.00">/sys_arch.c</text>
</a>
</g>
</g>
<!-- Node1&#45;&gt;Node3 -->
<g id="edge2" class="edge">
<title>Node1&#45;&gt;Node3</title>
<path fill="none" stroke="midnightblue" d="M374,-66.52C333.48,-55.68 279.1,-41.14 239.43,-30.53"/>
<polygon fill="midnightblue" stroke="midnightblue" points="373.16,-69.92 383.72,-69.12 374.97,-63.16 373.16,-69.92"/>
</g>
<!-- Node4 -->
<g id="node4" class="node">
<title>Node4</title>
<g id="a_node4"><a xlink:href="fs_2bdmfs__vfat_2src_2fat__driver_8c_source.html" target="_top" xlink:title=" ">
<polygon fill="white" stroke="black" points="257.5,-0.5 257.5,-30.5 366.5,-30.5 366.5,-0.5 257.5,-0.5"/>
<text text-anchor="start" x="265.5" y="-18.5" font-family="Helvetica,sans-Serif" font-size="10.00">iop/fs/bdmfs_vfat/src</text>
<text text-anchor="middle" x="312" y="-7.5" font-family="Helvetica,sans-Serif" font-size="10.00">/fat_driver.c</text>
</a>
</g>
</g>
<!-- Node1&#45;&gt;Node4 -->
<g id="edge3" class="edge">
<title>Node1&#45;&gt;Node4</title>
<path fill="none" stroke="midnightblue" d="M395.39,-62.44C376.88,-52.24 354.48,-39.9 337.55,-30.58"/>
<polygon fill="midnightblue" stroke="midnightblue" points="393.95,-65.64 404.4,-67.4 397.33,-59.51 393.95,-65.64"/>
</g>
<!-- Node5 -->
<g id="node5" class="node">
<title>Node5</title>
<g id="a_node5"><a xlink:href="bitmap_8c_source.html" target="_top" xlink:title=" ">
<polygon fill="white" stroke="black" points="384.5,-0.5 384.5,-30.5 475.5,-30.5 475.5,-0.5 384.5,-0.5"/>
<text text-anchor="start" x="392.5" y="-18.5" font-family="Helvetica,sans-Serif" font-size="10.00">iop/hdd/libpfs/src</text>
<text text-anchor="middle" x="430" y="-7.5" font-family="Helvetica,sans-Serif" font-size="10.00">/bitmap.c</text>
</a>
</g>
</g>
<!-- Node1&#45;&gt;Node5 -->
<g id="edge4" class="edge">
<title>Node1&#45;&gt;Node5</title>
<path fill="none" stroke="midnightblue" d="M430,-57.11C430,-48.15 430,-38.32 430,-30.58"/>
<polygon fill="midnightblue" stroke="midnightblue" points="426.5,-57.4 430,-67.4 433.5,-57.4 426.5,-57.4"/>
</g>
<!-- Node6 -->
<g id="node6" class="node">
<title>Node6</title>
<g id="a_node6"><a xlink:href="iop_2network_2netman_2src_2rpc__client_8c_source.html" target="_top" xlink:title=" ">
<polygon fill="white" stroke="black" points="494,-0.5 494,-30.5 596,-30.5 596,-0.5 494,-0.5"/>
<text text-anchor="start" x="502" y="-18.5" font-family="Helvetica,sans-Serif" font-size="10.00">iop/network/netman</text>
<text text-anchor="middle" x="545" y="-7.5" font-family="Helvetica,sans-Serif" font-size="10.00">/src/rpc_client.c</text>
</a>
</g>
</g>
<!-- Node1&#45;&gt;Node6 -->
<g id="edge5" class="edge">
<title>Node1&#45;&gt;Node6</title>
<path fill="none" stroke="midnightblue" d="M463.98,-62.3C481.97,-52.12 503.68,-39.85 520.1,-30.58"/>
<polygon fill="midnightblue" stroke="midnightblue" points="461.94,-59.43 454.95,-67.4 465.38,-65.52 461.94,-59.43"/>
</g>
<!-- Node7 -->
<g id="node7" class="node">
<title>Node7</title>
<g id="a_node7"><a xlink:href="smb_8c_source.html" target="_top" xlink:title=" ">
<polygon fill="white" stroke="black" points="613.5,-0.5 613.5,-30.5 720.5,-30.5 720.5,-0.5 613.5,-0.5"/>
<text text-anchor="start" x="621.5" y="-18.5" font-family="Helvetica,sans-Serif" font-size="10.00">iop/network/smbman</text>
<text text-anchor="middle" x="667" y="-7.5" font-family="Helvetica,sans-Serif" font-size="10.00">/src/smb.c</text>
</a>
</g>
</g>
<!-- Node1&#45;&gt;Node7 -->
<g id="edge6" class="edge">
<title>Node1&#45;&gt;Node7</title>
<path fill="none" stroke="midnightblue" d="M485.98,-66.15C525.37,-55.34 577.67,-41 615.93,-30.51"/>
<polygon fill="midnightblue" stroke="midnightblue" points="484.98,-62.79 476.26,-68.81 486.83,-69.54 484.98,-62.79"/>
</g>
<!-- Node8 -->
<g id="node8" class="node">
<title>Node8</title>
<g id="a_node8"><a xlink:href="usb_2usbhdfsd_2src_2fat__driver_8c_source.html" target="_top" xlink:title=" ">
<polygon fill="white" stroke="black" points="738.5,-0.5 738.5,-30.5 845.5,-30.5 845.5,-0.5 738.5,-0.5"/>
<text text-anchor="start" x="746.5" y="-18.5" font-family="Helvetica,sans-Serif" font-size="10.00">iop/usb/usbhdfsd/src</text>
<text text-anchor="middle" x="792" y="-7.5" font-family="Helvetica,sans-Serif" font-size="10.00">/fat_driver.c</text>
</a>
</g>
</g>
<!-- Node1&#45;&gt;Node8 -->
<g id="edge7" class="edge">
<title>Node1&#45;&gt;Node8</title>
<path fill="none" stroke="midnightblue" d="M486.26,-73.11C546.69,-63.85 645.44,-47.99 730,-31 732.71,-30.46 735.48,-29.88 738.28,-29.28"/>
<polygon fill="midnightblue" stroke="midnightblue" points="485.52,-69.68 476.16,-74.65 486.58,-76.6 485.52,-69.68"/>
</g>
</g>
</svg>
