<?xml version="1.0" encoding="UTF-8" standalone="no"?>
<!DOCTYPE svg PUBLIC "-//W3C//DTD SVG 1.1//EN"
 "http://www.w3.org/Graphics/SVG/1.1/DTD/svg11.dtd">
<!-- Generated by graphviz version 12.2.0 (20241103.1931)
 -->
<!-- Title: common/include/loadfile&#45;common.h Pages: 1 -->
<!--zoomable 172 -->

<svg id="main" version="1.1" xmlns="http://www.w3.org/2000/svg" xmlns:xlink="http://www.w3.org/1999/xlink" xml:space="preserve" onload="init(evt)">

<style type="text/css"><![CDATA[
.node, .edge {opacity: 0.7;}
.node.selected, .edge.selected {opacity: 1;}
.edge:hover path { stroke: red; }
.edge:hover polygon { stroke: red; fill: red; }
]]></style>

<defs>
  <circle id="rim" cx="0" cy="0" r="7"/>
  <circle id="rim2" cx="0" cy="0" r="3.5"/>
  <g id="zoomPlus">
    <use xlink:href="#rim" fill="#404040"><set attributeName="fill" to="#808080" begin="zoomplus.mouseover" end="zoomplus.mouseout"/></use>
    <path d="M-4,0h8M0,-4v8" fill="none" stroke="white" stroke-width="1.5" pointer-events="none"/>
  </g>
  <g id="zoomMin">
    <use xlink:href="#rim" fill="#404040"><set attributeName="fill" to="#808080" begin="zoomminus.mouseover" end="zoomminus.mouseout"/></use>
    <path d="M-4,0h8" fill="none" stroke="white" stroke-width="1.5" pointer-events="none"/>
  </g>
  <g id="arrowUp" transform="translate(30 24)">
    <use xlink:href="#rim"/>
    <path pointer-events="none" fill="none" stroke="white" stroke-width="1.5" d="M0,-3.0v7 M-2.5,-0.5L0,-3.0L2.5,-0.5"/>
  </g>
  <g id="arrowRight" transform="rotate(90) translate(36 -43)">
    <use xlink:href="#rim"/>
    <path pointer-events="none" fill="none" stroke="white" stroke-width="1.5" d="M0,-3.0v7 M-2.5,-0.5L0,-3.0L2.5,-0.5"/>
  </g>
  <g id="arrowDown" transform="rotate(180) translate(-30 -48)">
    <use xlink:href="#rim"/>
    <path pointer-events="none" fill="none" stroke="white" stroke-width="1.5" d="M0,-3.0v7 M-2.5,-0.5L0,-3.0L2.5,-0.5"/>
  </g>
  <g id="arrowLeft" transform="rotate(270) translate(-36 17)">
    <use xlink:href="#rim"/>
    <path pointer-events="none" fill="none" stroke="white" stroke-width="1.5" d="M0,-3.0v7 M-2.5,-0.5L0,-3.0L2.5,-0.5"/>
  </g>
  <g id="resetDef">
    <use xlink:href="#rim2" fill="#404040"><set attributeName="fill" to="#808080" begin="reset.mouseover" end="reset.mouseout"/></use>
  </g>
</defs>
<script type="application/ecmascript">
var viewWidth = 675;
var viewHeight = 172;
var sectionId = 'dynsection-1';
</script>
<script type="application/ecmascript" xlink:href="svg.min.js"/>
<svg id="graph" class="graph">
<g id="viewport">
<title>common/include/loadfile&#45;common.h</title>
<!-- Node1 -->
<g id="Node000001" class="node">
<title>Node1</title>
<g id="a_Node000001"><a xlink:title=" ">
<polygon fill="#999999" stroke="#666666" points="455.62,-163.5 335.38,-163.5 335.38,-133 455.62,-133 455.62,-163.5"/>
<text text-anchor="start" x="343.38" y="-150" font-family="Helvetica,sans-Serif" font-size="10.00">common/include/loadfile</text>
<text text-anchor="middle" x="395.5" y="-138.75" font-family="Helvetica,sans-Serif" font-size="10.00">&#45;common.h</text>
</a>
</g>
</g>
<!-- Node2 -->
<g id="Node000002" class="node">
<title>Node2</title>
<g id="a_Node000002"><a xlink:href="loadfile_8h.html" target="_top" xlink:title=" ">
<polygon fill="white" stroke="#666666" points="395.5,-91.38 265.5,-91.38 265.5,-72.12 395.5,-72.12 395.5,-91.38"/>
<text text-anchor="middle" x="330.5" y="-77.88" font-family="Helvetica,sans-Serif" font-size="10.00">ee/kernel/include/loadfile.h</text>
</a>
</g>
</g>
<!-- Node1&#45;&gt;Node2 -->
<g id="edge1_Node000001_Node000002" class="edge">
<title>Node1&#45;&gt;Node2</title>
<g id="a_edge1_Node000001_Node000002"><a xlink:title=" ">
<path fill="none" stroke="#63b8ff" d="M372.78,-124.71C361.27,-113.28 347.96,-100.07 339.39,-91.57"/>
<polygon fill="#63b8ff" stroke="#63b8ff" points="370.11,-126.99 379.68,-131.55 375.04,-122.02 370.11,-126.99"/>
</a>
</g>
</g>
<!-- Node8 -->
<g id="Node000008" class="node">
<title>Node8</title>
<g id="a_Node000008"><a xlink:href="iop_2system_2loadfile_2src_2loadfile_8c_source.html" target="_top" xlink:title=" ">
<polygon fill="white" stroke="#666666" points="509.62,-97 413.38,-97 413.38,-66.5 509.62,-66.5 509.62,-97"/>
<text text-anchor="start" x="421.38" y="-83.5" font-family="Helvetica,sans-Serif" font-size="10.00">iop/system/loadfile</text>
<text text-anchor="middle" x="461.5" y="-72.25" font-family="Helvetica,sans-Serif" font-size="10.00">/src/loadfile.c</text>
</a>
</g>
</g>
<!-- Node1&#45;&gt;Node8 -->
<g id="edge7_Node000001_Node000008" class="edge">
<title>Node1&#45;&gt;Node8</title>
<g id="a_edge7_Node000001_Node000008"><a xlink:title=" ">
<path fill="none" stroke="#63b8ff" d="M418.59,-124.69C427.88,-115.61 438.32,-105.4 446.58,-97.33"/>
<polygon fill="#63b8ff" stroke="#63b8ff" points="416.26,-122.06 411.56,-131.56 421.16,-127.07 416.26,-122.06"/>
</a>
</g>
</g>
<!-- Node3 -->
<g id="Node000003" class="node">
<title>Node3</title>
<g id="a_Node000003"><a xlink:href="loader_8c_source.html" target="_top" xlink:title=" ">
<polygon fill="white" stroke="#666666" points="115,-30.5 0,-30.5 0,0 115,0 115,-30.5"/>
<text text-anchor="start" x="8" y="-17" font-family="Helvetica,sans-Serif" font-size="10.00">ee/elf&#45;loader/src/loader</text>
<text text-anchor="middle" x="57.5" y="-5.75" font-family="Helvetica,sans-Serif" font-size="10.00">/src/loader.c</text>
</a>
</g>
</g>
<!-- Node2&#45;&gt;Node3 -->
<g id="edge2_Node000002_Node000003" class="edge">
<title>Node2&#45;&gt;Node3</title>
<g id="a_edge2_Node000002_Node000003"><a xlink:title=" ">
<path fill="none" stroke="#63b8ff" d="M280.93,-69.04C234.31,-58.02 164.53,-41.54 115.38,-29.92"/>
<polygon fill="#63b8ff" stroke="#63b8ff" points="279.95,-72.4 290.49,-71.3 281.56,-65.59 279.95,-72.4"/>
</a>
</g>
</g>
<!-- Node4 -->
<g id="Node000004" class="node">
<title>Node4</title>
<g id="a_Node000004"><a xlink:href="elf__loader__compat_8c_source.html" target="_top" xlink:title=" ">
<polygon fill="white" stroke="#666666" points="239.5,-30.5 133.5,-30.5 133.5,0 239.5,0 239.5,-30.5"/>
<text text-anchor="start" x="141.5" y="-17" font-family="Helvetica,sans-Serif" font-size="10.00">ee/elf&#45;loader2/src</text>
<text text-anchor="middle" x="186.5" y="-5.75" font-family="Helvetica,sans-Serif" font-size="10.00">/elf_loader_compat.c</text>
</a>
</g>
</g>
<!-- Node2&#45;&gt;Node4 -->
<g id="edge3_Node000002_Node000004" class="edge">
<title>Node2&#45;&gt;Node4</title>
<g id="a_edge3_Node000002_Node000004"><a xlink:title=" ">
<path fill="none" stroke="#63b8ff" d="M299.98,-67.08C276.27,-56.46 243.45,-41.76 219.2,-30.9"/>
<polygon fill="#63b8ff" stroke="#63b8ff" points="298.24,-70.13 308.79,-71.03 301.1,-63.74 298.24,-70.13"/>
</a>
</g>
</g>
<!-- Node5 -->
<g id="Node000005" class="node">
<title>Node5</title>
<g id="a_Node000005"><a xlink:href="_sif_iop_reboot_buffer_8c.html" target="_top" xlink:title=" ">
<polygon fill="white" stroke="#666666" points="403,-30.5 258,-30.5 258,0 403,0 403,-30.5"/>
<text text-anchor="start" x="266" y="-17" font-family="Helvetica,sans-Serif" font-size="10.00">ee/iopreboot/src/SifIopReboot</text>
<text text-anchor="middle" x="330.5" y="-5.75" font-family="Helvetica,sans-Serif" font-size="10.00">Buffer.c</text>
</a>
</g>
</g>
<!-- Node2&#45;&gt;Node5 -->
<g id="edge4_Node000002_Node000005" class="edge">
<title>Node2&#45;&gt;Node5</title>
<g id="a_edge4_Node000002_Node000005"><a xlink:title=" ">
<path fill="none" stroke="#63b8ff" d="M330.5,-60.37C330.5,-50.69 330.5,-39.35 330.5,-30.59"/>
<polygon fill="#63b8ff" stroke="#63b8ff" points="327,-60.27 330.5,-70.27 334,-60.27 327,-60.27"/>
</a>
</g>
</g>
<!-- Node6 -->
<g id="Node000006" class="node">
<title>Node6</title>
<g id="a_Node000006"><a xlink:href="ee_2kernel_2src_2loadfile_8c.html" target="_top" xlink:title=" ">
<polygon fill="white" stroke="#666666" points="533.88,-24.88 421.12,-24.88 421.12,-5.63 533.88,-5.63 533.88,-24.88"/>
<text text-anchor="middle" x="477.5" y="-11.38" font-family="Helvetica,sans-Serif" font-size="10.00">ee/kernel/src/loadfile.c</text>
</a>
</g>
</g>
<!-- Node2&#45;&gt;Node6 -->
<g id="edge5_Node000002_Node000006" class="edge">
<title>Node2&#45;&gt;Node6</title>
<g id="a_edge5_Node000002_Node000006"><a xlink:title=" ">
<path fill="none" stroke="#63b8ff" d="M361.54,-67.13C390.23,-54.54 432.06,-36.19 456.86,-25.31"/>
<polygon fill="#63b8ff" stroke="#63b8ff" points="360.39,-63.81 352.64,-71.04 363.2,-70.22 360.39,-63.81"/>
</a>
</g>
</g>
<!-- Node7 -->
<g id="Node000007" class="node">
<title>Node7</title>
<g id="a_Node000007"><a xlink:href="libhdd_8c_source.html" target="_top" xlink:title=" ">
<polygon fill="white" stroke="#666666" points="666.62,-24.88 552.38,-24.88 552.38,-5.63 666.62,-5.63 666.62,-24.88"/>
<text text-anchor="middle" x="609.5" y="-11.38" font-family="Helvetica,sans-Serif" font-size="10.00">ee/rpc/hdd/src/libhdd.c</text>
</a>
</g>
</g>
<!-- Node2&#45;&gt;Node7 -->
<g id="edge6_Node000002_Node000007" class="edge">
<title>Node2&#45;&gt;Node7</title>
<g id="a_edge6_Node000002_Node000007"><a xlink:title=" ">
<path fill="none" stroke="#63b8ff" d="M380.99,-69.08C435.38,-56.5 520.77,-36.76 570.32,-25.31"/>
<polygon fill="#63b8ff" stroke="#63b8ff" points="380.31,-65.64 371.36,-71.3 381.89,-72.46 380.31,-65.64"/>
</a>
</g>
</g>
</g>
</svg>

<g id="navigator" transform="translate(0 0)" fill="#404254">
  <rect fill="#f2f5e9" fill-opacity="0.5" stroke="#606060" stroke-width=".5" x="0" y="0" width="60" height="60"/>
  <use id="zoomplus" xlink:href="#zoomPlus" x="17" y="9" onmousedown="handleZoom(evt,'in')"/>
  <use id="zoomminus" xlink:href="#zoomMin" x="42" y="9" onmousedown="handleZoom(evt,'out')"/>
  <use id="reset" xlink:href="#resetDef" x="30" y="36" onmousedown="handleReset()"/>
   <use id="arrowup" xlink:href="#arrowUp" x="0" y="0" onmousedown="handlePan(0,-1)"/>
  <use id="arrowright" xlink:href="#arrowRight" x="0" y="0" onmousedown="handlePan(1,0)"/>
  <use id="arrowdown" xlink:href="#arrowDown" x="0" y="0" onmousedown="handlePan(0,1)"/>
  <use id="arrowleft" xlink:href="#arrowLeft" x="0" y="0" onmousedown="handlePan(-1,0)"/>
</g>
<svg viewBox="0 0 15 15" width="100%" height="30px" preserveAspectRatio="xMaxYMin meet">
 <g id="arrow_out" transform="scale(0.3 0.3)">
  <a xlink:href="loadfile-common_8h__dep__incl_org.svg" target="_base">
   <rect id="button" ry="5" rx="5" y="6" x="6" height="38" width="38"
        fill="#f2f5e9" fill-opacity="0.5" stroke="#606060" stroke-width="1.0"/>
   <path id="arrow"
     d="M 11.500037,31.436501 C 11.940474,20.09759 22.043105,11.32322 32.158766,21.979434 L 37.068811,17.246167 C 37.068811,17.246167 37.088388,32 37.088388,32 L 22.160133,31.978069 C 22.160133,31.978069 26.997745,27.140456 26.997745,27.140456 C 18.528582,18.264221 13.291696,25.230495 11.500037,31.436501 z"
     style="fill:#404040;"/>
  </a>
 </g>
</svg>

<style type='text/css'>
<![CDATA[
[data-mouse-over-selected='false'] { opacity: 0.7; }
[data-mouse-over-selected='true']  { opacity: 1.0; }
]]>
</style>
<script type="application/ecmascript"><![CDATA[
document.addEventListener('DOMContentLoaded', (event) => {
  highlightEdges();
  highlightAdjacentNodes();
});
]]></script>
</svg>
