<?xml version="1.0" encoding="UTF-8" standalone="no"?>
<!DOCTYPE svg PUBLIC "-//W3C//DTD SVG 1.1//EN"
 "http://www.w3.org/Graphics/SVG/1.1/DTD/svg11.dtd">
<!-- Generated by graphviz version 12.2.0 (20241103.1931)
 -->
<!-- Title: ee/libcglue/src/lock.c Pages: 1 -->
<svg width="401pt" height="248pt"
 viewBox="0.00 0.00 400.50 248.25" xmlns="http://www.w3.org/2000/svg" xmlns:xlink="http://www.w3.org/1999/xlink">
<g id="graph0" class="graph" transform="scale(1 1) rotate(0) translate(4 244.25)">
<title>ee/libcglue/src/lock.c</title>
<!-- Node1 -->
<g id="Node000001" class="node">
<title>Node1</title>
<g id="a_Node000001"><a xlink:title=" ">
<polygon fill="#999999" stroke="#666666" points="241.5,-240.25 134,-240.25 134,-221 241.5,-221 241.5,-240.25"/>
<text text-anchor="middle" x="187.75" y="-226.75" font-family="Helvetica,sans-Serif" font-size="10.00">ee/libcglue/src/lock.c</text>
</a>
</g>
</g>
<!-- Node2 -->
<g id="Node000002" class="node">
<title>Node2</title>
<g id="a_Node000002"><a xlink:title=" ">
<polygon fill="#e0e0e0" stroke="#999999" points="47.5,-185 0,-185 0,-165.75 47.5,-165.75 47.5,-185"/>
<text text-anchor="middle" x="23.75" y="-171.5" font-family="Helvetica,sans-Serif" font-size="10.00">stdint.h</text>
</a>
</g>
</g>
<!-- Node1&#45;&gt;Node2 -->
<g id="edge1_Node000001_Node000002" class="edge">
<title>Node1&#45;&gt;Node2</title>
<g id="a_edge1_Node000001_Node000002"><a xlink:title=" ">
<path fill="none" stroke="#63b8ff" d="M159.93,-220.59C132.05,-211.54 89.06,-197.58 58.85,-187.77"/>
<polygon fill="#63b8ff" stroke="#63b8ff" points="59.99,-184.46 49.4,-184.7 57.83,-191.12 59.99,-184.46"/>
</a>
</g>
</g>
<!-- Node3 -->
<g id="Node000003" class="node">
<title>Node3</title>
<g id="a_Node000003"><a xlink:href="stdio_8h.html" target="_top" xlink:title=" ">
<polygon fill="white" stroke="#666666" points="110,-185 65.5,-185 65.5,-165.75 110,-165.75 110,-185"/>
<text text-anchor="middle" x="87.75" y="-171.5" font-family="Helvetica,sans-Serif" font-size="10.00">stdio.h</text>
</a>
</g>
</g>
<!-- Node1&#45;&gt;Node3 -->
<g id="edge2_Node000001_Node000003" class="edge">
<title>Node1&#45;&gt;Node3</title>
<g id="a_edge2_Node000001_Node000003"><a xlink:title=" ">
<path fill="none" stroke="#63b8ff" d="M170.79,-220.59C155.49,-212.44 132.72,-200.32 114.89,-190.83"/>
<polygon fill="#63b8ff" stroke="#63b8ff" points="116.6,-187.77 106.13,-186.16 113.31,-193.95 116.6,-187.77"/>
</a>
</g>
</g>
<!-- Node9 -->
<g id="Node000009" class="node">
<title>Node9</title>
<g id="a_Node000009"><a xlink:title=" ">
<polygon fill="#e0e0e0" stroke="#999999" points="250.25,-185 195.25,-185 195.25,-165.75 250.25,-165.75 250.25,-185"/>
<text text-anchor="middle" x="222.75" y="-171.5" font-family="Helvetica,sans-Serif" font-size="10.00">stdbool.h</text>
</a>
</g>
</g>
<!-- Node1&#45;&gt;Node9 -->
<g id="edge8_Node000001_Node000009" class="edge">
<title>Node1&#45;&gt;Node9</title>
<g id="a_edge8_Node000001_Node000009"><a xlink:title=" ">
<path fill="none" stroke="#63b8ff" d="M193.53,-220.83C198.16,-213.78 204.82,-203.65 210.62,-194.83"/>
<polygon fill="#63b8ff" stroke="#63b8ff" points="213.45,-196.9 216.01,-186.62 207.6,-193.06 213.45,-196.9"/>
</a>
</g>
</g>
<!-- Node10 -->
<g id="Node000010" class="node">
<title>Node10</title>
<g id="a_Node000010"><a xlink:title=" ">
<polygon fill="#e0e0e0" stroke="#999999" points="315.12,-185 268.38,-185 268.38,-165.75 315.12,-165.75 315.12,-185"/>
<text text-anchor="middle" x="291.75" y="-171.5" font-family="Helvetica,sans-Serif" font-size="10.00">stdlib.h</text>
</a>
</g>
</g>
<!-- Node1&#45;&gt;Node10 -->
<g id="edge9_Node000001_Node000010" class="edge">
<title>Node1&#45;&gt;Node10</title>
<g id="a_edge9_Node000001_Node000010"><a xlink:title=" ">
<path fill="none" stroke="#63b8ff" d="M205.39,-220.59C221.38,-212.41 245.21,-200.21 263.79,-190.69"/>
<polygon fill="#63b8ff" stroke="#63b8ff" points="265.37,-193.82 272.67,-186.14 262.18,-187.58 265.37,-193.82"/>
</a>
</g>
</g>
<!-- Node11 -->
<g id="Node000011" class="node">
<title>Node11</title>
<g id="a_Node000011"><a xlink:title=" ">
<polygon fill="#e0e0e0" stroke="#999999" points="392.5,-185 333,-185 333,-165.75 392.5,-165.75 392.5,-185"/>
<text text-anchor="middle" x="362.75" y="-171.5" font-family="Helvetica,sans-Serif" font-size="10.00">sys/lock.h</text>
</a>
</g>
</g>
<!-- Node1&#45;&gt;Node11 -->
<g id="edge10_Node000001_Node000011" class="edge">
<title>Node1&#45;&gt;Node11</title>
<g id="a_edge10_Node000001_Node000011"><a xlink:title=" ">
<path fill="none" stroke="#63b8ff" d="M217.44,-220.59C246.22,-211.83 290.12,-198.48 322.13,-188.73"/>
<polygon fill="#63b8ff" stroke="#63b8ff" points="322.92,-192.15 331.47,-185.89 320.88,-185.46 322.92,-192.15"/>
</a>
</g>
</g>
<!-- Node12 -->
<g id="Node000012" class="node">
<title>Node12</title>
<g id="a_Node000012"><a xlink:href="kernel_8h.html" target="_top" xlink:title=" ">
<polygon fill="white" stroke="#666666" points="177.62,-185 127.88,-185 127.88,-165.75 177.62,-165.75 177.62,-185"/>
<text text-anchor="middle" x="152.75" y="-171.5" font-family="Helvetica,sans-Serif" font-size="10.00">kernel.h</text>
</a>
</g>
</g>
<!-- Node1&#45;&gt;Node12 -->
<g id="edge11_Node000001_Node000012" class="edge">
<title>Node1&#45;&gt;Node12</title>
<g id="a_edge11_Node000001_Node000012"><a xlink:title=" ">
<path fill="none" stroke="#63b8ff" d="M181.97,-220.83C177.34,-213.78 170.68,-203.65 164.88,-194.83"/>
<polygon fill="#63b8ff" stroke="#63b8ff" points="167.9,-193.06 159.49,-186.62 162.05,-196.9 167.9,-193.06"/>
</a>
</g>
</g>
<!-- Node4 -->
<g id="Node000004" class="node">
<title>Node4</title>
<g id="a_Node000004"><a xlink:title=" ">
<polygon fill="#e0e0e0" stroke="#999999" points="125,-129.75 74.5,-129.75 74.5,-110.5 125,-110.5 125,-129.75"/>
<text text-anchor="middle" x="99.75" y="-116.25" font-family="Helvetica,sans-Serif" font-size="10.00">stdarg.h</text>
</a>
</g>
</g>
<!-- Node3&#45;&gt;Node4 -->
<g id="edge3_Node000003_Node000004" class="edge">
<title>Node3&#45;&gt;Node4</title>
<g id="a_edge3_Node000003_Node000004"><a xlink:title=" ">
<path fill="none" stroke="#63b8ff" d="M89.73,-165.58C91.22,-158.99 93.31,-149.71 95.2,-141.32"/>
<polygon fill="#63b8ff" stroke="#63b8ff" points="98.61,-142.11 97.39,-131.59 91.78,-140.57 98.61,-142.11"/>
</a>
</g>
</g>
<!-- Node5 -->
<g id="Node000005" class="node">
<title>Node5</title>
<g id="a_Node000005"><a xlink:href="irx_8h.html" target="_top" xlink:title=" ">
<polygon fill="white" stroke="#666666" points="56.38,-129.75 23.12,-129.75 23.12,-110.5 56.38,-110.5 56.38,-129.75"/>
<text text-anchor="middle" x="39.75" y="-116.25" font-family="Helvetica,sans-Serif" font-size="10.00">irx.h</text>
</a>
</g>
</g>
<!-- Node3&#45;&gt;Node5 -->
<g id="edge4_Node000003_Node000005" class="edge">
<title>Node3&#45;&gt;Node5</title>
<g id="a_edge4_Node000003_Node000005"><a xlink:title=" ">
<path fill="none" stroke="#63b8ff" d="M79.82,-165.58C73.19,-158.23 63.53,-147.51 55.36,-138.44"/>
<polygon fill="#63b8ff" stroke="#63b8ff" points="58.16,-136.32 48.86,-131.23 52.96,-141 58.16,-136.32"/>
</a>
</g>
</g>
<!-- Node6 -->
<g id="Node000006" class="node">
<title>Node6</title>
<g id="a_Node000006"><a xlink:href="iop_2kernel_2include_2types_8h_source.html" target="_top" xlink:title=" ">
<polygon fill="white" stroke="#666666" points="227.12,-74.5 180.38,-74.5 180.38,-55.25 227.12,-55.25 227.12,-74.5"/>
<text text-anchor="middle" x="203.75" y="-61" font-family="Helvetica,sans-Serif" font-size="10.00">types.h</text>
</a>
</g>
</g>
<!-- Node5&#45;&gt;Node6 -->
<g id="edge5_Node000005_Node000006" class="edge">
<title>Node5&#45;&gt;Node6</title>
<g id="a_edge5_Node000005_Node000006"><a xlink:title=" ">
<path fill="none" stroke="#63b8ff" d="M56.81,-113.45C59.79,-112.46 62.86,-111.45 65.75,-110.5 101.08,-98.93 141.57,-85.86 169.5,-76.87"/>
<polygon fill="#63b8ff" stroke="#63b8ff" points="170.4,-80.26 178.85,-73.86 168.26,-73.59 170.4,-80.26"/>
</a>
</g>
</g>
<!-- Node7 -->
<g id="Node000007" class="node">
<title>Node7</title>
<g id="a_Node000007"><a xlink:title=" ">
<polygon fill="#e0e0e0" stroke="#999999" points="200,-19.25 149.5,-19.25 149.5,0 200,0 200,-19.25"/>
<text text-anchor="middle" x="174.75" y="-5.75" font-family="Helvetica,sans-Serif" font-size="10.00">stddef.h</text>
</a>
</g>
</g>
<!-- Node6&#45;&gt;Node7 -->
<g id="edge6_Node000006_Node000007" class="edge">
<title>Node6&#45;&gt;Node7</title>
<g id="a_edge6_Node000006_Node000007"><a xlink:title=" ">
<path fill="none" stroke="#63b8ff" d="M198.96,-55.08C195.21,-48.19 189.84,-38.34 185.12,-29.66"/>
<polygon fill="#63b8ff" stroke="#63b8ff" points="188.22,-28.05 180.37,-20.94 182.08,-31.39 188.22,-28.05"/>
</a>
</g>
</g>
<!-- Node8 -->
<g id="Node000008" class="node">
<title>Node8</title>
<g id="a_Node000008"><a xlink:href="tamtypes_8h.html" target="_top" xlink:title=" ">
<polygon fill="white" stroke="#666666" points="292.38,-19.25 229.12,-19.25 229.12,0 292.38,0 292.38,-19.25"/>
<text text-anchor="middle" x="260.75" y="-5.75" font-family="Helvetica,sans-Serif" font-size="10.00">tamtypes.h</text>
</a>
</g>
</g>
<!-- Node6&#45;&gt;Node8 -->
<g id="edge7_Node000006_Node000008" class="edge">
<title>Node6&#45;&gt;Node8</title>
<g id="a_edge7_Node000006_Node000008"><a xlink:title=" ">
<path fill="none" stroke="#63b8ff" d="M213.42,-54.84C221.49,-47.3 233.22,-36.35 242.97,-27.23"/>
<polygon fill="#63b8ff" stroke="#63b8ff" points="245.2,-29.94 250.12,-20.56 240.42,-24.83 245.2,-29.94"/>
</a>
</g>
</g>
<!-- Node12&#45;&gt;Node4 -->
<g id="edge13_Node000012_Node000004" class="edge">
<title>Node12&#45;&gt;Node4</title>
<g id="a_edge13_Node000012_Node000004"><a xlink:title=" ">
<path fill="none" stroke="#63b8ff" d="M144,-165.58C136.6,-158.15 125.79,-147.29 116.7,-138.16"/>
<polygon fill="#63b8ff" stroke="#63b8ff" points="119.29,-135.8 109.76,-131.18 114.33,-140.74 119.29,-135.8"/>
</a>
</g>
</g>
<!-- Node12&#45;&gt;Node7 -->
<g id="edge12_Node000012_Node000007" class="edge">
<title>Node12&#45;&gt;Node7</title>
<g id="a_edge12_Node000012_Node000007"><a xlink:title=" ">
<path fill="none" stroke="#63b8ff" d="M153.93,-165.57C157.33,-140.25 167.21,-66.75 172.03,-30.84"/>
<polygon fill="#63b8ff" stroke="#63b8ff" points="175.5,-31.35 173.36,-20.97 168.56,-30.42 175.5,-31.35"/>
</a>
</g>
</g>
<!-- Node13 -->
<g id="Node000013" class="node">
<title>Node13</title>
<g id="a_Node000013"><a xlink:href="sifdma_8h.html" target="_top" xlink:title=" ">
<polygon fill="white" stroke="#666666" points="298.12,-74.5 245.38,-74.5 245.38,-55.25 298.12,-55.25 298.12,-74.5"/>
<text text-anchor="middle" x="271.75" y="-61" font-family="Helvetica,sans-Serif" font-size="10.00">sifdma.h</text>
</a>
</g>
</g>
<!-- Node12&#45;&gt;Node13 -->
<g id="edge14_Node000012_Node000013" class="edge">
<title>Node12&#45;&gt;Node13</title>
<g id="a_edge14_Node000012_Node000013"><a xlink:title=" ">
<path fill="none" stroke="#63b8ff" d="M162.49,-165.5C182.36,-147.38 227.87,-105.88 253.44,-82.57"/>
<polygon fill="#63b8ff" stroke="#63b8ff" points="255.73,-85.22 260.76,-75.9 251.01,-80.05 255.73,-85.22"/>
</a>
</g>
</g>
<!-- Node13&#45;&gt;Node8 -->
<g id="edge15_Node000013_Node000008" class="edge">
<title>Node13&#45;&gt;Node8</title>
<g id="a_edge15_Node000013_Node000008"><a xlink:title=" ">
<path fill="none" stroke="#63b8ff" d="M269.93,-55.08C268.57,-48.49 266.65,-39.21 264.92,-30.82"/>
<polygon fill="#63b8ff" stroke="#63b8ff" points="268.36,-30.18 262.91,-21.09 261.51,-31.59 268.36,-30.18"/>
</a>
</g>
</g>
</g>
</svg>
