<?xml version="1.0" encoding="UTF-8" standalone="no"?>
<!DOCTYPE svg PUBLIC "-//W3C//DTD SVG 1.1//EN"
 "http://www.w3.org/Graphics/SVG/1.1/DTD/svg11.dtd">
<!-- Generated by graphviz version 2.43.0 (0)
 -->
<!-- Title: iop/memorycard/mcman/include/mcman.h Pages: 1 -->
<svg width="1522pt" height="173pt"
 viewBox="0.00 0.00 1521.50 173.00" xmlns="http://www.w3.org/2000/svg" xmlns:xlink="http://www.w3.org/1999/xlink">
<g id="graph0" class="graph" transform="scale(1 1) rotate(0) translate(4 169)">
<title>iop/memorycard/mcman/include/mcman.h</title>
<polygon fill="white" stroke="transparent" points="-4,4 -4,-169 1517.5,-169 1517.5,4 -4,4"/>
<!-- Node1 -->
<g id="node1" class="node">
<title>Node1</title>
<g id="a_node1"><a xlink:title=" ">
<polygon fill="#bfbfbf" stroke="black" points="701,-134.5 701,-164.5 838,-164.5 838,-134.5 701,-134.5"/>
<text text-anchor="start" x="709" y="-152.5" font-family="Helvetica,sans-Serif" font-size="10.00">iop/memorycard/mcman</text>
<text text-anchor="middle" x="769.5" y="-141.5" font-family="Helvetica,sans-Serif" font-size="10.00">/include/mcman.h</text>
</a>
</g>
</g>
<!-- Node2 -->
<g id="node2" class="node">
<title>Node2</title>
<g id="a_node2"><a xlink:href="xfromman_8h_source.html" target="_top" xlink:title=" ">
<polygon fill="white" stroke="black" points="0,-67.5 0,-97.5 137,-97.5 137,-67.5 0,-67.5"/>
<text text-anchor="start" x="8" y="-85.5" font-family="Helvetica,sans-Serif" font-size="10.00">iop/memorycard/mcman</text>
<text text-anchor="middle" x="68.5" y="-74.5" font-family="Helvetica,sans-Serif" font-size="10.00">/include/xfromman.h</text>
</a>
</g>
</g>
<!-- Node1&#45;&gt;Node2 -->
<g id="edge1" class="edge">
<title>Node1&#45;&gt;Node2</title>
<path fill="none" stroke="midnightblue" d="M690.84,-144.8C572.23,-138.62 340.71,-124.21 145.5,-98 142.8,-97.64 140.06,-97.24 137.29,-96.83"/>
<polygon fill="midnightblue" stroke="midnightblue" points="690.75,-148.3 700.92,-145.32 691.11,-141.31 690.75,-148.3"/>
</g>
<!-- Node3 -->
<g id="node3" class="node">
<title>Node3</title>
<g id="a_node3"><a xlink:href="iop_2memorycard_2mcman_2src_2main_8c_source.html" target="_top" xlink:title=" ">
<polygon fill="white" stroke="black" points="155,-67.5 155,-97.5 292,-97.5 292,-67.5 155,-67.5"/>
<text text-anchor="start" x="163" y="-85.5" font-family="Helvetica,sans-Serif" font-size="10.00">iop/memorycard/mcman</text>
<text text-anchor="middle" x="223.5" y="-74.5" font-family="Helvetica,sans-Serif" font-size="10.00">/src/main.c</text>
</a>
</g>
</g>
<!-- Node1&#45;&gt;Node3 -->
<g id="edge2" class="edge">
<title>Node1&#45;&gt;Node3</title>
<path fill="none" stroke="midnightblue" d="M690.72,-141.93C597.34,-133.7 437.15,-118.19 300.5,-98 297.81,-97.6 295.07,-97.18 292.3,-96.73"/>
<polygon fill="midnightblue" stroke="midnightblue" points="690.67,-145.44 700.93,-142.82 691.28,-138.46 690.67,-145.44"/>
</g>
<!-- Node4 -->
<g id="node4" class="node">
<title>Node4</title>
<g id="a_node4"><a xlink:href="mcdev_8c_source.html" target="_top" xlink:title=" ">
<polygon fill="white" stroke="black" points="310,-67.5 310,-97.5 447,-97.5 447,-67.5 310,-67.5"/>
<text text-anchor="start" x="318" y="-85.5" font-family="Helvetica,sans-Serif" font-size="10.00">iop/memorycard/mcman</text>
<text text-anchor="middle" x="378.5" y="-74.5" font-family="Helvetica,sans-Serif" font-size="10.00">/src/mcdev.c</text>
</a>
</g>
</g>
<!-- Node1&#45;&gt;Node4 -->
<g id="edge3" class="edge">
<title>Node1&#45;&gt;Node4</title>
<path fill="none" stroke="midnightblue" d="M690.81,-136.34C627.46,-126.41 536.16,-111.83 456.5,-98 453.51,-97.48 450.47,-96.95 447.39,-96.4"/>
<polygon fill="midnightblue" stroke="midnightblue" points="690.31,-139.8 700.73,-137.89 691.39,-132.88 690.31,-139.8"/>
</g>
<!-- Node5 -->
<g id="node5" class="node">
<title>Node5</title>
<g id="a_node5"><a xlink:href="mciomanx__backing_8c_source.html" target="_top" xlink:title=" ">
<polygon fill="white" stroke="black" points="465.5,-67.5 465.5,-97.5 605.5,-97.5 605.5,-67.5 465.5,-67.5"/>
<text text-anchor="start" x="473.5" y="-85.5" font-family="Helvetica,sans-Serif" font-size="10.00">iop/memorycard/mcman</text>
<text text-anchor="middle" x="535.5" y="-74.5" font-family="Helvetica,sans-Serif" font-size="10.00">/src/mciomanx_backing.c</text>
</a>
</g>
</g>
<!-- Node1&#45;&gt;Node5 -->
<g id="edge4" class="edge">
<title>Node1&#45;&gt;Node5</title>
<path fill="none" stroke="midnightblue" d="M709.07,-131.71C670.99,-121.14 622.39,-107.63 586.3,-97.61"/>
<polygon fill="midnightblue" stroke="midnightblue" points="708.44,-135.17 719.01,-134.48 710.32,-128.43 708.44,-135.17"/>
</g>
<!-- Node6 -->
<g id="node6" class="node">
<title>Node6</title>
<g id="a_node6"><a xlink:href="mcsio2_8c_source.html" target="_top" xlink:title=" ">
<polygon fill="white" stroke="black" points="624,-67.5 624,-97.5 761,-97.5 761,-67.5 624,-67.5"/>
<text text-anchor="start" x="632" y="-85.5" font-family="Helvetica,sans-Serif" font-size="10.00">iop/memorycard/mcman</text>
<text text-anchor="middle" x="692.5" y="-74.5" font-family="Helvetica,sans-Serif" font-size="10.00">/src/mcsio2.c</text>
</a>
</g>
</g>
<!-- Node1&#45;&gt;Node6 -->
<g id="edge5" class="edge">
<title>Node1&#45;&gt;Node6</title>
<path fill="none" stroke="midnightblue" d="M745.08,-127.88C733.38,-118.01 719.66,-106.43 709.18,-97.58"/>
<polygon fill="midnightblue" stroke="midnightblue" points="742.89,-130.62 752.79,-134.4 747.41,-125.27 742.89,-130.62"/>
</g>
<!-- Node7 -->
<g id="node7" class="node">
<title>Node7</title>
<g id="a_node7"><a xlink:href="ps1mc__fio_8c_source.html" target="_top" xlink:title=" ">
<polygon fill="white" stroke="black" points="779,-67.5 779,-97.5 916,-97.5 916,-67.5 779,-67.5"/>
<text text-anchor="start" x="787" y="-85.5" font-family="Helvetica,sans-Serif" font-size="10.00">iop/memorycard/mcman</text>
<text text-anchor="middle" x="847.5" y="-74.5" font-family="Helvetica,sans-Serif" font-size="10.00">/src/ps1mc_fio.c</text>
</a>
</g>
</g>
<!-- Node1&#45;&gt;Node7 -->
<g id="edge6" class="edge">
<title>Node1&#45;&gt;Node7</title>
<path fill="none" stroke="midnightblue" d="M794.24,-127.88C806.09,-118.01 819.98,-106.43 830.61,-97.58"/>
<polygon fill="midnightblue" stroke="midnightblue" points="791.87,-125.31 786.42,-134.4 796.35,-130.68 791.87,-125.31"/>
</g>
<!-- Node8 -->
<g id="node8" class="node">
<title>Node8</title>
<g id="a_node8"><a xlink:href="ps2mc__fio_8c_source.html" target="_top" xlink:title=" ">
<polygon fill="white" stroke="black" points="934,-67.5 934,-97.5 1071,-97.5 1071,-67.5 934,-67.5"/>
<text text-anchor="start" x="942" y="-85.5" font-family="Helvetica,sans-Serif" font-size="10.00">iop/memorycard/mcman</text>
<text text-anchor="middle" x="1002.5" y="-74.5" font-family="Helvetica,sans-Serif" font-size="10.00">/src/ps2mc_fio.c</text>
</a>
</g>
</g>
<!-- Node1&#45;&gt;Node8 -->
<g id="edge7" class="edge">
<title>Node1&#45;&gt;Node8</title>
<path fill="none" stroke="midnightblue" d="M829.67,-131.71C867.58,-121.14 915.99,-107.63 951.92,-97.61"/>
<polygon fill="midnightblue" stroke="midnightblue" points="828.46,-128.42 819.77,-134.48 830.34,-135.16 828.46,-128.42"/>
</g>
<!-- Node9 -->
<g id="node9" class="node">
<title>Node9</title>
<g id="a_node9"><a xlink:href="iop_2memorycard_2mcserv_2src_2irx__imports_8h_source.html" target="_top" xlink:title=" ">
<polygon fill="white" stroke="black" points="1089.5,-67.5 1089.5,-97.5 1225.5,-97.5 1225.5,-67.5 1089.5,-67.5"/>
<text text-anchor="start" x="1097.5" y="-85.5" font-family="Helvetica,sans-Serif" font-size="10.00">iop/memorycard/mcserv</text>
<text text-anchor="middle" x="1157.5" y="-74.5" font-family="Helvetica,sans-Serif" font-size="10.00">/src/irx_imports.h</text>
</a>
</g>
</g>
<!-- Node1&#45;&gt;Node9 -->
<g id="edge8" class="edge">
<title>Node1&#45;&gt;Node9</title>
<path fill="none" stroke="midnightblue" d="M848.43,-136.14C911.13,-126.2 1001.01,-111.69 1079.5,-98 1082.76,-97.43 1086.09,-96.84 1089.45,-96.24"/>
<polygon fill="midnightblue" stroke="midnightblue" points="847.55,-132.74 838.22,-137.76 848.64,-139.65 847.55,-132.74"/>
</g>
<!-- Node10 -->
<g id="node10" class="node">
<title>Node10</title>
<g id="a_node10"><a xlink:href="mcserv_8h_source.html" target="_top" xlink:title=" ">
<polygon fill="white" stroke="black" points="1243.5,-67.5 1243.5,-97.5 1379.5,-97.5 1379.5,-67.5 1243.5,-67.5"/>
<text text-anchor="start" x="1251.5" y="-85.5" font-family="Helvetica,sans-Serif" font-size="10.00">iop/memorycard/mcserv</text>
<text text-anchor="middle" x="1311.5" y="-74.5" font-family="Helvetica,sans-Serif" font-size="10.00">/src/mcserv.h</text>
</a>
</g>
</g>
<!-- Node1&#45;&gt;Node10 -->
<g id="edge9" class="edge">
<title>Node1&#45;&gt;Node10</title>
<path fill="none" stroke="midnightblue" d="M848.4,-141.82C941.1,-133.54 1099.4,-118.03 1234.5,-98 1237.33,-97.58 1240.21,-97.13 1243.11,-96.66"/>
<polygon fill="midnightblue" stroke="midnightblue" points="847.91,-138.35 838.26,-142.72 848.53,-145.32 847.91,-138.35"/>
</g>
<!-- Node12 -->
<g id="node12" class="node">
<title>Node12</title>
<g id="a_node12"><a xlink:href="iop_2security_2daemon_2src_2irx__imports_8h_source.html" target="_top" xlink:title=" ">
<polygon fill="white" stroke="black" points="1397.5,-67.5 1397.5,-97.5 1513.5,-97.5 1513.5,-67.5 1397.5,-67.5"/>
<text text-anchor="start" x="1405.5" y="-85.5" font-family="Helvetica,sans-Serif" font-size="10.00">iop/security/daemon</text>
<text text-anchor="middle" x="1455.5" y="-74.5" font-family="Helvetica,sans-Serif" font-size="10.00">/src/irx_imports.h</text>
</a>
</g>
</g>
<!-- Node1&#45;&gt;Node12 -->
<g id="edge11" class="edge">
<title>Node1&#45;&gt;Node12</title>
<path fill="none" stroke="midnightblue" d="M848.1,-145.41C966.02,-140.02 1195.48,-126.63 1388.5,-98 1391.44,-97.56 1394.45,-97.07 1397.48,-96.55"/>
<polygon fill="midnightblue" stroke="midnightblue" points="847.91,-141.91 838.08,-145.86 848.22,-148.91 847.91,-141.91"/>
</g>
<!-- Node11 -->
<g id="node11" class="node">
<title>Node11</title>
<g id="a_node11"><a xlink:href="mcserv_8c_source.html" target="_top" xlink:title=" ">
<polygon fill="white" stroke="black" points="1243.5,-0.5 1243.5,-30.5 1379.5,-30.5 1379.5,-0.5 1243.5,-0.5"/>
<text text-anchor="start" x="1251.5" y="-18.5" font-family="Helvetica,sans-Serif" font-size="10.00">iop/memorycard/mcserv</text>
<text text-anchor="middle" x="1311.5" y="-7.5" font-family="Helvetica,sans-Serif" font-size="10.00">/src/mcserv.c</text>
</a>
</g>
</g>
<!-- Node10&#45;&gt;Node11 -->
<g id="edge10" class="edge">
<title>Node10&#45;&gt;Node11</title>
<path fill="none" stroke="midnightblue" d="M1311.5,-57.11C1311.5,-48.15 1311.5,-38.32 1311.5,-30.58"/>
<polygon fill="midnightblue" stroke="midnightblue" points="1308,-57.4 1311.5,-67.4 1315,-57.4 1308,-57.4"/>
</g>
<!-- Node13 -->
<g id="node13" class="node">
<title>Node13</title>
<g id="a_node13"><a xlink:href="daemon_8c_source.html" target="_top" xlink:title=" ">
<polygon fill="white" stroke="black" points="1397.5,-0.5 1397.5,-30.5 1513.5,-30.5 1513.5,-0.5 1397.5,-0.5"/>
<text text-anchor="start" x="1405.5" y="-18.5" font-family="Helvetica,sans-Serif" font-size="10.00">iop/security/daemon</text>
<text text-anchor="middle" x="1455.5" y="-7.5" font-family="Helvetica,sans-Serif" font-size="10.00">/src/daemon.c</text>
</a>
</g>
</g>
<!-- Node12&#45;&gt;Node13 -->
<g id="edge12" class="edge">
<title>Node12&#45;&gt;Node13</title>
<path fill="none" stroke="midnightblue" d="M1455.5,-57.11C1455.5,-48.15 1455.5,-38.32 1455.5,-30.58"/>
<polygon fill="midnightblue" stroke="midnightblue" points="1452,-57.4 1455.5,-67.4 1459,-57.4 1452,-57.4"/>
</g>
</g>
</svg>
