<?xml version="1.0" encoding="UTF-8" standalone="no"?>
<!DOCTYPE svg PUBLIC "-//W3C//DTD SVG 1.1//EN"
 "http://www.w3.org/Graphics/SVG/1.1/DTD/svg11.dtd">
<!-- Generated by graphviz version 12.2.0 (20241103.1931)
 -->
<!-- Title: iop/memorycard/mcman/include/mcman.h Pages: 1 -->
<svg width="226pt" height="204pt"
 viewBox="0.00 0.00 226.00 204.25" xmlns="http://www.w3.org/2000/svg" xmlns:xlink="http://www.w3.org/1999/xlink">
<g id="graph0" class="graph" transform="scale(1 1) rotate(0) translate(4 200.25)">
<title>iop/memorycard/mcman/include/mcman.h</title>
<!-- Node1 -->
<g id="Node000001" class="node">
<title>Node1</title>
<g id="a_Node000001"><a xlink:title=" ">
<polygon fill="#999999" stroke="#666666" points="141.5,-196.25 21.25,-196.25 21.25,-165.75 141.5,-165.75 141.5,-196.25"/>
<text text-anchor="start" x="29.25" y="-182.75" font-family="Helvetica,sans-Serif" font-size="10.00">iop/memorycard/mcman</text>
<text text-anchor="middle" x="81.38" y="-171.5" font-family="Helvetica,sans-Serif" font-size="10.00">/include/mcman.h</text>
</a>
</g>
</g>
<!-- Node2 -->
<g id="Node000002" class="node">
<title>Node2</title>
<g id="a_Node000002"><a xlink:title=" ">
<polygon fill="#e0e0e0" stroke="#999999" points="46.75,-129.75 0,-129.75 0,-110.5 46.75,-110.5 46.75,-129.75"/>
<text text-anchor="middle" x="23.38" y="-116.25" font-family="Helvetica,sans-Serif" font-size="10.00">types.h</text>
</a>
</g>
</g>
<!-- Node1&#45;&gt;Node2 -->
<g id="edge1_Node000001_Node000002" class="edge">
<title>Node1&#45;&gt;Node2</title>
<g id="a_edge1_Node000001_Node000002"><a xlink:title=" ">
<path fill="none" stroke="#63b8ff" d="M67.04,-165.45C58.97,-157.26 48.85,-146.98 40.38,-138.39"/>
<polygon fill="#63b8ff" stroke="#63b8ff" points="42.89,-135.95 33.38,-131.28 37.9,-140.86 42.89,-135.95"/>
</a>
</g>
</g>
<!-- Node3 -->
<g id="Node000003" class="node">
<title>Node3</title>
<g id="a_Node000003"><a xlink:href="irx_8h.html" target="_top" xlink:title=" ">
<polygon fill="white" stroke="#666666" points="98,-129.75 64.75,-129.75 64.75,-110.5 98,-110.5 98,-129.75"/>
<text text-anchor="middle" x="81.38" y="-116.25" font-family="Helvetica,sans-Serif" font-size="10.00">irx.h</text>
</a>
</g>
</g>
<!-- Node1&#45;&gt;Node3 -->
<g id="edge2_Node000001_Node000003" class="edge">
<title>Node1&#45;&gt;Node3</title>
<g id="a_edge2_Node000001_Node000003"><a xlink:title=" ">
<path fill="none" stroke="#63b8ff" d="M81.38,-165.45C81.38,-158.21 81.38,-149.34 81.38,-141.44"/>
<polygon fill="#63b8ff" stroke="#63b8ff" points="84.88,-141.71 81.38,-131.71 77.88,-141.71 84.88,-141.71"/>
</a>
</g>
</g>
<!-- Node7 -->
<g id="Node000007" class="node">
<title>Node7</title>
<g id="a_Node000007"><a xlink:href="libmc-common_8h.html" target="_top" xlink:title=" ">
<polygon fill="white" stroke="#666666" points="203,-129.75 115.75,-129.75 115.75,-110.5 203,-110.5 203,-129.75"/>
<text text-anchor="middle" x="159.38" y="-116.25" font-family="Helvetica,sans-Serif" font-size="10.00">libmc&#45;common.h</text>
</a>
</g>
</g>
<!-- Node1&#45;&gt;Node7 -->
<g id="edge6_Node000001_Node000007" class="edge">
<title>Node1&#45;&gt;Node7</title>
<g id="a_edge6_Node000001_Node000007"><a xlink:title=" ">
<path fill="none" stroke="#63b8ff" d="M100.66,-165.45C112.08,-156.83 126.56,-145.9 138.28,-137.05"/>
<polygon fill="#63b8ff" stroke="#63b8ff" points="140.27,-139.93 146.14,-131.11 136.05,-134.34 140.27,-139.93"/>
</a>
</g>
</g>
<!-- Node4 -->
<g id="Node000004" class="node">
<title>Node4</title>
<g id="a_Node000004"><a xlink:href="iop_2kernel_2include_2types_8h_source.html" target="_top" xlink:title=" ">
<polygon fill="white" stroke="#666666" points="104.75,-74.5 58,-74.5 58,-55.25 104.75,-55.25 104.75,-74.5"/>
<text text-anchor="middle" x="81.38" y="-61" font-family="Helvetica,sans-Serif" font-size="10.00">types.h</text>
</a>
</g>
</g>
<!-- Node3&#45;&gt;Node4 -->
<g id="edge3_Node000003_Node000004" class="edge">
<title>Node3&#45;&gt;Node4</title>
<g id="a_edge3_Node000003_Node000004"><a xlink:title=" ">
<path fill="none" stroke="#63b8ff" d="M81.38,-110.33C81.38,-103.82 81.38,-94.67 81.38,-86.37"/>
<polygon fill="#63b8ff" stroke="#63b8ff" points="84.88,-86.37 81.38,-76.37 77.88,-86.37 84.88,-86.37"/>
</a>
</g>
</g>
<!-- Node5 -->
<g id="Node000005" class="node">
<title>Node5</title>
<g id="a_Node000005"><a xlink:title=" ">
<polygon fill="#e0e0e0" stroke="#999999" points="94.62,-19.25 44.12,-19.25 44.12,0 94.62,0 94.62,-19.25"/>
<text text-anchor="middle" x="69.38" y="-5.75" font-family="Helvetica,sans-Serif" font-size="10.00">stddef.h</text>
</a>
</g>
</g>
<!-- Node4&#45;&gt;Node5 -->
<g id="edge4_Node000004_Node000005" class="edge">
<title>Node4&#45;&gt;Node5</title>
<g id="a_edge4_Node000004_Node000005"><a xlink:title=" ">
<path fill="none" stroke="#63b8ff" d="M79.39,-55.08C77.91,-48.49 75.82,-39.21 73.93,-30.82"/>
<polygon fill="#63b8ff" stroke="#63b8ff" points="77.35,-30.07 71.73,-21.09 70.52,-31.61 77.35,-30.07"/>
</a>
</g>
</g>
<!-- Node6 -->
<g id="Node000006" class="node">
<title>Node6</title>
<g id="a_Node000006"><a xlink:href="tamtypes_8h.html" target="_top" xlink:title=" ">
<polygon fill="white" stroke="#666666" points="176,-19.25 112.75,-19.25 112.75,0 176,0 176,-19.25"/>
<text text-anchor="middle" x="144.38" y="-5.75" font-family="Helvetica,sans-Serif" font-size="10.00">tamtypes.h</text>
</a>
</g>
</g>
<!-- Node4&#45;&gt;Node6 -->
<g id="edge5_Node000004_Node000006" class="edge">
<title>Node4&#45;&gt;Node6</title>
<g id="a_edge5_Node000004_Node000006"><a xlink:title=" ">
<path fill="none" stroke="#63b8ff" d="M92.06,-54.84C101.08,-47.22 114.21,-36.12 125.06,-26.95"/>
<polygon fill="#63b8ff" stroke="#63b8ff" points="127.31,-29.63 132.69,-20.5 122.79,-24.28 127.31,-29.63"/>
</a>
</g>
</g>
<!-- Node7&#45;&gt;Node6 -->
<g id="edge7_Node000007_Node000006" class="edge">
<title>Node7&#45;&gt;Node6</title>
<g id="a_edge7_Node000007_Node000006"><a xlink:title=" ">
<path fill="none" stroke="#63b8ff" d="M158.15,-110.25C155.76,-93 150.45,-54.58 147.17,-30.81"/>
<polygon fill="#63b8ff" stroke="#63b8ff" points="150.66,-30.55 145.83,-21.13 143.73,-31.51 150.66,-30.55"/>
</a>
</g>
</g>
<!-- Node8 -->
<g id="Node000008" class="node">
<title>Node8</title>
<g id="a_Node000008"><a xlink:href="errno_8h.html" target="_top" xlink:title=" ">
<polygon fill="white" stroke="#666666" points="218,-74.5 172.75,-74.5 172.75,-55.25 218,-55.25 218,-74.5"/>
<text text-anchor="middle" x="195.38" y="-61" font-family="Helvetica,sans-Serif" font-size="10.00">errno.h</text>
</a>
</g>
</g>
<!-- Node7&#45;&gt;Node8 -->
<g id="edge8_Node000007_Node000008" class="edge">
<title>Node7&#45;&gt;Node8</title>
<g id="a_edge8_Node000007_Node000008"><a xlink:title=" ">
<path fill="none" stroke="#63b8ff" d="M165.32,-110.33C170.09,-103.28 176.94,-93.15 182.9,-84.33"/>
<polygon fill="#63b8ff" stroke="#63b8ff" points="185.75,-86.36 188.45,-76.11 179.95,-82.44 185.75,-86.36"/>
</a>
</g>
</g>
</g>
</svg>
