<?xml version="1.0" encoding="UTF-8" standalone="no"?>
<!DOCTYPE svg PUBLIC "-//W3C//DTD SVG 1.1//EN"
 "http://www.w3.org/Graphics/SVG/1.1/DTD/svg11.dtd">
<!-- Generated by graphviz version 2.43.0 (0)
 -->
<!-- Title: iop/memorycard/mcman/include/mcman.h Pages: 1 -->
<!--zoomable 173 -->
<svg id="main" version="1.1" xmlns="http://www.w3.org/2000/svg" xmlns:xlink="http://www.w3.org/1999/xlink" xml:space="preserve" onload="init(evt)">
<style type="text/css"><![CDATA[
.edge:hover path { stroke: red; }
.edge:hover polygon { stroke: red; fill: red; }
]]></style>
<script type="text/javascript"><![CDATA[
var edges = document.getElementsByTagName('g');
if (edges && edges.length) {
  for (var i=0;i<edges.length;i++) {
    if (edges[i].id.substr(0,4)=='edge') {
      edges[i].setAttribute('class','edge');
    }
  }
}
]]></script>
        <defs>
                <circle id="rim" cx="0" cy="0" r="7"/>
                <circle id="rim2" cx="0" cy="0" r="3.5"/>
                <g id="zoomPlus">
                        <use xlink:href="#rim" fill="#404040">
                                <set attributeName="fill" to="#808080" begin="zoomplus.mouseover" end="zoomplus.mouseout"/>
                        </use>
                        <path d="M-4,0h8M0,-4v8" fill="none" stroke="white" stroke-width="1.5" pointer-events="none"/>
                </g>
                <g id="zoomMin">
                        <use xlink:href="#rim" fill="#404040">
                                <set attributeName="fill" to="#808080" begin="zoomminus.mouseover" end="zoomminus.mouseout"/>
                        </use>
                        <path d="M-4,0h8" fill="none" stroke="white" stroke-width="1.5" pointer-events="none"/>
                </g>
                <g id="dirArrow">
                        <path fill="none" stroke="white" stroke-width="1.5" d="M0,-3.0v7 M-2.5,-0.5L0,-3.0L2.5,-0.5"/>
                </g>
               <g id="resetDef">
                       <use xlink:href="#rim2" fill="#404040">
                               <set attributeName="fill" to="#808080" begin="reset.mouseover" end="reset.mouseout"/>
                       </use>
               </g>
        </defs>

<script type="text/javascript">
var viewWidth = 1233;
var viewHeight = 173;
var sectionId = 'dynsection-1';
</script>
<script xlink:href="svgpan.js"/>
<svg id="graph" class="graph">
<g id="viewport">
<title>iop/memorycard/mcman/include/mcman.h</title>
<polygon fill="white" stroke="transparent" points="-4,4 -4,-169 1228.5,-169 1228.5,4 -4,4"/>
<!-- Node1 -->
<g id="node1" class="node">
<title>Node1</title>
<g id="a_node1"><a xlink:title=" ">
<polygon fill="#bfbfbf" stroke="black" points="546,-134.5 546,-164.5 683,-164.5 683,-134.5 546,-134.5"/>
<text text-anchor="start" x="554" y="-152.5" font-family="Helvetica,sans-Serif" font-size="10.00">iop/memorycard/mcman</text>
<text text-anchor="middle" x="614.5" y="-141.5" font-family="Helvetica,sans-Serif" font-size="10.00">/include/mcman.h</text>
</a>
</g>
</g>
<!-- Node2 -->
<g id="node2" class="node">
<title>Node2</title>
<g id="a_node2"><a xlink:href="iop_2memorycard_2mcman_2src_2main_8c_source.html" target="_top" xlink:title=" ">
<polygon fill="white" stroke="black" points="0,-67.5 0,-97.5 137,-97.5 137,-67.5 0,-67.5"/>
<text text-anchor="start" x="8" y="-85.5" font-family="Helvetica,sans-Serif" font-size="10.00">iop/memorycard/mcman</text>
<text text-anchor="middle" x="68.5" y="-74.5" font-family="Helvetica,sans-Serif" font-size="10.00">/src/main.c</text>
</a>
</g>
</g>
<!-- Node1&#45;&gt;Node2 -->
<g id="edge1" class="edge">
<title>Node1&#45;&gt;Node2</title>
<path fill="none" stroke="midnightblue" d="M535.5,-141.83C442.27,-133.53 282.69,-117.98 146.5,-98 143.5,-97.56 140.44,-97.09 137.36,-96.59"/>
<polygon fill="midnightblue" stroke="midnightblue" points="535.43,-145.34 545.7,-142.73 536.04,-138.36 535.43,-145.34"/>
</g>
<!-- Node3 -->
<g id="node3" class="node">
<title>Node3</title>
<g id="a_node3"><a xlink:href="mcdev_8c_source.html" target="_top" xlink:title=" ">
<polygon fill="white" stroke="black" points="155,-67.5 155,-97.5 292,-97.5 292,-67.5 155,-67.5"/>
<text text-anchor="start" x="163" y="-85.5" font-family="Helvetica,sans-Serif" font-size="10.00">iop/memorycard/mcman</text>
<text text-anchor="middle" x="223.5" y="-74.5" font-family="Helvetica,sans-Serif" font-size="10.00">/src/mcdev.c</text>
</a>
</g>
</g>
<!-- Node1&#45;&gt;Node3 -->
<g id="edge2" class="edge">
<title>Node1&#45;&gt;Node3</title>
<path fill="none" stroke="midnightblue" d="M535.81,-136.34C472.46,-126.41 381.16,-111.83 301.5,-98 298.51,-97.48 295.47,-96.95 292.39,-96.4"/>
<polygon fill="midnightblue" stroke="midnightblue" points="535.31,-139.8 545.73,-137.89 536.39,-132.88 535.31,-139.8"/>
</g>
<!-- Node4 -->
<g id="node4" class="node">
<title>Node4</title>
<g id="a_node4"><a xlink:href="mciomanx__backing_8c_source.html" target="_top" xlink:title=" ">
<polygon fill="white" stroke="black" points="310.5,-67.5 310.5,-97.5 450.5,-97.5 450.5,-67.5 310.5,-67.5"/>
<text text-anchor="start" x="318.5" y="-85.5" font-family="Helvetica,sans-Serif" font-size="10.00">iop/memorycard/mcman</text>
<text text-anchor="middle" x="380.5" y="-74.5" font-family="Helvetica,sans-Serif" font-size="10.00">/src/mciomanx_backing.c</text>
</a>
</g>
</g>
<!-- Node1&#45;&gt;Node4 -->
<g id="edge3" class="edge">
<title>Node1&#45;&gt;Node4</title>
<path fill="none" stroke="midnightblue" d="M554.07,-131.71C515.99,-121.14 467.39,-107.63 431.3,-97.61"/>
<polygon fill="midnightblue" stroke="midnightblue" points="553.44,-135.17 564.01,-134.48 555.32,-128.43 553.44,-135.17"/>
</g>
<!-- Node5 -->
<g id="node5" class="node">
<title>Node5</title>
<g id="a_node5"><a xlink:href="mcsio2_8c_source.html" target="_top" xlink:title=" ">
<polygon fill="white" stroke="black" points="469,-67.5 469,-97.5 606,-97.5 606,-67.5 469,-67.5"/>
<text text-anchor="start" x="477" y="-85.5" font-family="Helvetica,sans-Serif" font-size="10.00">iop/memorycard/mcman</text>
<text text-anchor="middle" x="537.5" y="-74.5" font-family="Helvetica,sans-Serif" font-size="10.00">/src/mcsio2.c</text>
</a>
</g>
</g>
<!-- Node1&#45;&gt;Node5 -->
<g id="edge4" class="edge">
<title>Node1&#45;&gt;Node5</title>
<path fill="none" stroke="midnightblue" d="M590.08,-127.88C578.38,-118.01 564.66,-106.43 554.18,-97.58"/>
<polygon fill="midnightblue" stroke="midnightblue" points="587.89,-130.62 597.79,-134.4 592.41,-125.27 587.89,-130.62"/>
</g>
<!-- Node6 -->
<g id="node6" class="node">
<title>Node6</title>
<g id="a_node6"><a xlink:href="ps1mc__fio_8c_source.html" target="_top" xlink:title=" ">
<polygon fill="white" stroke="black" points="624,-67.5 624,-97.5 761,-97.5 761,-67.5 624,-67.5"/>
<text text-anchor="start" x="632" y="-85.5" font-family="Helvetica,sans-Serif" font-size="10.00">iop/memorycard/mcman</text>
<text text-anchor="middle" x="692.5" y="-74.5" font-family="Helvetica,sans-Serif" font-size="10.00">/src/ps1mc_fio.c</text>
</a>
</g>
</g>
<!-- Node1&#45;&gt;Node6 -->
<g id="edge5" class="edge">
<title>Node1&#45;&gt;Node6</title>
<path fill="none" stroke="midnightblue" d="M639.24,-127.88C651.09,-118.01 664.98,-106.43 675.61,-97.58"/>
<polygon fill="midnightblue" stroke="midnightblue" points="636.87,-125.31 631.42,-134.4 641.35,-130.68 636.87,-125.31"/>
</g>
<!-- Node7 -->
<g id="node7" class="node">
<title>Node7</title>
<g id="a_node7"><a xlink:href="ps2mc__fio_8c_source.html" target="_top" xlink:title=" ">
<polygon fill="white" stroke="black" points="779,-67.5 779,-97.5 916,-97.5 916,-67.5 779,-67.5"/>
<text text-anchor="start" x="787" y="-85.5" font-family="Helvetica,sans-Serif" font-size="10.00">iop/memorycard/mcman</text>
<text text-anchor="middle" x="847.5" y="-74.5" font-family="Helvetica,sans-Serif" font-size="10.00">/src/ps2mc_fio.c</text>
</a>
</g>
</g>
<!-- Node1&#45;&gt;Node7 -->
<g id="edge6" class="edge">
<title>Node1&#45;&gt;Node7</title>
<path fill="none" stroke="midnightblue" d="M674.67,-131.71C712.58,-121.14 760.99,-107.63 796.92,-97.61"/>
<polygon fill="midnightblue" stroke="midnightblue" points="673.46,-128.42 664.77,-134.48 675.34,-135.16 673.46,-128.42"/>
</g>
<!-- Node8 -->
<g id="node8" class="node">
<title>Node8</title>
<g id="a_node8"><a xlink:href="iop_2memorycard_2mcserv_2src_2irx__imports_8h_source.html" target="_top" xlink:title=" ">
<polygon fill="white" stroke="black" points="934.5,-67.5 934.5,-97.5 1070.5,-97.5 1070.5,-67.5 934.5,-67.5"/>
<text text-anchor="start" x="942.5" y="-85.5" font-family="Helvetica,sans-Serif" font-size="10.00">iop/memorycard/mcserv</text>
<text text-anchor="middle" x="1002.5" y="-74.5" font-family="Helvetica,sans-Serif" font-size="10.00">/src/irx_imports.h</text>
</a>
</g>
</g>
<!-- Node1&#45;&gt;Node8 -->
<g id="edge7" class="edge">
<title>Node1&#45;&gt;Node8</title>
<path fill="none" stroke="midnightblue" d="M693.39,-136.25C756.31,-126.35 846.65,-111.82 925.5,-98 928.45,-97.48 931.46,-96.95 934.5,-96.4"/>
<polygon fill="midnightblue" stroke="midnightblue" points="692.48,-132.85 683.14,-137.86 693.57,-139.77 692.48,-132.85"/>
</g>
<!-- Node9 -->
<g id="node9" class="node">
<title>Node9</title>
<g id="a_node9"><a xlink:href="mcserv_8h_source.html" target="_top" xlink:title=" ">
<polygon fill="white" stroke="black" points="1088.5,-67.5 1088.5,-97.5 1224.5,-97.5 1224.5,-67.5 1088.5,-67.5"/>
<text text-anchor="start" x="1096.5" y="-85.5" font-family="Helvetica,sans-Serif" font-size="10.00">iop/memorycard/mcserv</text>
<text text-anchor="middle" x="1156.5" y="-74.5" font-family="Helvetica,sans-Serif" font-size="10.00">/src/mcserv.h</text>
</a>
</g>
</g>
<!-- Node1&#45;&gt;Node9 -->
<g id="edge8" class="edge">
<title>Node1&#45;&gt;Node9</title>
<path fill="none" stroke="midnightblue" d="M693.4,-141.82C786.1,-133.54 944.4,-118.03 1079.5,-98 1082.33,-97.58 1085.21,-97.13 1088.11,-96.66"/>
<polygon fill="midnightblue" stroke="midnightblue" points="692.91,-138.35 683.26,-142.72 693.53,-145.32 692.91,-138.35"/>
</g>
<!-- Node10 -->
<g id="node10" class="node">
<title>Node10</title>
<g id="a_node10"><a xlink:href="mcserv_8c_source.html" target="_top" xlink:title=" ">
<polygon fill="white" stroke="black" points="1088.5,-0.5 1088.5,-30.5 1224.5,-30.5 1224.5,-0.5 1088.5,-0.5"/>
<text text-anchor="start" x="1096.5" y="-18.5" font-family="Helvetica,sans-Serif" font-size="10.00">iop/memorycard/mcserv</text>
<text text-anchor="middle" x="1156.5" y="-7.5" font-family="Helvetica,sans-Serif" font-size="10.00">/src/mcserv.c</text>
</a>
</g>
</g>
<!-- Node9&#45;&gt;Node10 -->
<g id="edge9" class="edge">
<title>Node9&#45;&gt;Node10</title>
<path fill="none" stroke="midnightblue" d="M1156.5,-57.11C1156.5,-48.15 1156.5,-38.32 1156.5,-30.58"/>
<polygon fill="midnightblue" stroke="midnightblue" points="1153,-57.4 1156.5,-67.4 1160,-57.4 1153,-57.4"/>
</g>
</g>
</svg>
        <g id="navigator" transform="translate(0 0)" fill="#404254">
                <rect fill="#f2f5e9" fill-opacity="0.5" stroke="#606060" stroke-width=".5" x="0" y="0" width="60" height="60"/>
                <use id="zoomplus" xlink:href="#zoomPlus" x="17" y="9" onmousedown="handleZoom(evt,'in')"/>
                <use id="zoomminus" xlink:href="#zoomMin" x="42" y="9" onmousedown="handleZoom(evt,'out')"/>
                <use id="reset" xlink:href="#resetDef" x="30" y="36" onmousedown="handleReset()"/>
                <g id="arrowUp" xlink:href="#dirArrow" transform="translate(30 24)" onmousedown="handlePan(0,-1)">
                  <use xlink:href="#rim" fill="#404040">
                        <set attributeName="fill" to="#808080" begin="arrowUp.mouseover" end="arrowUp.mouseout"/>
                  </use>
                  <path fill="none" stroke="white" stroke-width="1.5" d="M0,-3.0v7 M-2.5,-0.5L0,-3.0L2.5,-0.5"/>
                </g>
                <g id="arrowRight" xlink:href="#dirArrow" transform="rotate(90) translate(36 -43)" onmousedown="handlePan(1,0)">
                  <use xlink:href="#rim" fill="#404040">
                        <set attributeName="fill" to="#808080" begin="arrowRight.mouseover" end="arrowRight.mouseout"/>
                  </use>
                  <path fill="none" stroke="white" stroke-width="1.5" d="M0,-3.0v7 M-2.5,-0.5L0,-3.0L2.5,-0.5"/>
                </g>
                <g id="arrowDown" xlink:href="#dirArrow" transform="rotate(180) translate(-30 -48)" onmousedown="handlePan(0,1)">
                  <use xlink:href="#rim" fill="#404040">
                        <set attributeName="fill" to="#808080" begin="arrowDown.mouseover" end="arrowDown.mouseout"/>
                  </use>
                  <path fill="none" stroke="white" stroke-width="1.5" d="M0,-3.0v7 M-2.5,-0.5L0,-3.0L2.5,-0.5"/>
                </g>
                <g id="arrowLeft" xlink:href="#dirArrow" transform="rotate(270) translate(-36 17)" onmousedown="handlePan(-1,0)">
                  <use xlink:href="#rim" fill="#404040">
                        <set attributeName="fill" to="#808080" begin="arrowLeft.mouseover" end="arrowLeft.mouseout"/>
                  </use>
                  <path fill="none" stroke="white" stroke-width="1.5" d="M0,-3.0v7 M-2.5,-0.5L0,-3.0L2.5,-0.5"/>
                </g>
        </g>
        <svg viewBox="0 0 15 15" width="100%" height="30px" preserveAspectRatio="xMaxYMin meet">
         <g id="arrow_out" transform="scale(0.3 0.3)">
          <a xlink:href="mcman_8h__dep__incl_org.svg" target="_base">
           <rect id="button" ry="5" rx="5" y="6" x="6" height="38" width="38"
                fill="#f2f5e9" fill-opacity="0.5" stroke="#606060" stroke-width="1.0"/>
           <path id="arrow"
             d="M 11.500037,31.436501 C 11.940474,20.09759 22.043105,11.32322 32.158766,21.979434 L 37.068811,17.246167 C 37.068811,17.246167 37.088388,32 37.088388,32 L 22.160133,31.978069 C 22.160133,31.978069 26.997745,27.140456 26.997745,27.140456 C 18.528582,18.264221 13.291696,25.230495 11.500037,31.436501 z"
             style="fill:#404040;"/>
          </a>
         </g>
        </svg>
</svg>
