<?xml version="1.0" encoding="UTF-8" standalone="no"?>
<!DOCTYPE svg PUBLIC "-//W3C//DTD SVG 1.1//EN"
 "http://www.w3.org/Graphics/SVG/1.1/DTD/svg11.dtd">
<!-- Generated by graphviz version 12.2.0 (20241103.1931)
 -->
<!-- Title: iop/system/modload/include/modload.h Pages: 1 -->
<!--zoomable 238 -->

<svg id="main" version="1.1" xmlns="http://www.w3.org/2000/svg" xmlns:xlink="http://www.w3.org/1999/xlink" xml:space="preserve" onload="init(evt)">

<style type="text/css"><![CDATA[
.node, .edge {opacity: 0.7;}
.node.selected, .edge.selected {opacity: 1;}
.edge:hover path { stroke: red; }
.edge:hover polygon { stroke: red; fill: red; }
]]></style>

<defs>
  <circle id="rim" cx="0" cy="0" r="7"/>
  <circle id="rim2" cx="0" cy="0" r="3.5"/>
  <g id="zoomPlus">
    <use xlink:href="#rim" fill="#404040"><set attributeName="fill" to="#808080" begin="zoomplus.mouseover" end="zoomplus.mouseout"/></use>
    <path d="M-4,0h8M0,-4v8" fill="none" stroke="white" stroke-width="1.5" pointer-events="none"/>
  </g>
  <g id="zoomMin">
    <use xlink:href="#rim" fill="#404040"><set attributeName="fill" to="#808080" begin="zoomminus.mouseover" end="zoomminus.mouseout"/></use>
    <path d="M-4,0h8" fill="none" stroke="white" stroke-width="1.5" pointer-events="none"/>
  </g>
  <g id="arrowUp" transform="translate(30 24)">
    <use xlink:href="#rim"/>
    <path pointer-events="none" fill="none" stroke="white" stroke-width="1.5" d="M0,-3.0v7 M-2.5,-0.5L0,-3.0L2.5,-0.5"/>
  </g>
  <g id="arrowRight" transform="rotate(90) translate(36 -43)">
    <use xlink:href="#rim"/>
    <path pointer-events="none" fill="none" stroke="white" stroke-width="1.5" d="M0,-3.0v7 M-2.5,-0.5L0,-3.0L2.5,-0.5"/>
  </g>
  <g id="arrowDown" transform="rotate(180) translate(-30 -48)">
    <use xlink:href="#rim"/>
    <path pointer-events="none" fill="none" stroke="white" stroke-width="1.5" d="M0,-3.0v7 M-2.5,-0.5L0,-3.0L2.5,-0.5"/>
  </g>
  <g id="arrowLeft" transform="rotate(270) translate(-36 17)">
    <use xlink:href="#rim"/>
    <path pointer-events="none" fill="none" stroke="white" stroke-width="1.5" d="M0,-3.0v7 M-2.5,-0.5L0,-3.0L2.5,-0.5"/>
  </g>
  <g id="resetDef">
    <use xlink:href="#rim2" fill="#404040"><set attributeName="fill" to="#808080" begin="reset.mouseover" end="reset.mouseout"/></use>
  </g>
</defs>
<script type="application/ecmascript">
var viewWidth = 1719;
var viewHeight = 238;
var sectionId = 'dynsection-1';
</script>
<script type="application/ecmascript" xlink:href="svg.min.js"/>
<svg id="graph" class="graph">
<g id="viewport">
<title>iop/system/modload/include/modload.h</title>
<!-- Node1 -->
<g id="Node000001" class="node">
<title>Node1</title>
<g id="a_Node000001"><a xlink:title=" ">
<polygon fill="#999999" stroke="#666666" points="935.88,-230 832.88,-230 832.88,-199.5 935.88,-199.5 935.88,-230"/>
<text text-anchor="start" x="840.88" y="-216.5" font-family="Helvetica,sans-Serif" font-size="10.00">iop/system/modload</text>
<text text-anchor="middle" x="884.38" y="-205.25" font-family="Helvetica,sans-Serif" font-size="10.00">/include/modload.h</text>
</a>
</g>
</g>
<!-- Node2 -->
<g id="Node000002" class="node">
<title>Node2</title>
<g id="a_Node000002"><a xlink:href="common_2sbus_2src_2irx__imports_8h_source.html" target="_top" xlink:title=" ">
<polygon fill="white" stroke="#666666" points="106.75,-163.5 0,-163.5 0,-133 106.75,-133 106.75,-163.5"/>
<text text-anchor="start" x="8" y="-150" font-family="Helvetica,sans-Serif" font-size="10.00">common/sbus/src/irx</text>
<text text-anchor="middle" x="53.38" y="-138.75" font-family="Helvetica,sans-Serif" font-size="10.00">_imports.h</text>
</a>
</g>
</g>
<!-- Node1&#45;&gt;Node2 -->
<g id="edge1_Node000001_Node000002" class="edge">
<title>Node1&#45;&gt;Node2</title>
<g id="a_edge1_Node000001_Node000002"><a xlink:title=" ">
<path fill="none" stroke="#63b8ff" d="M821.35,-213.05C689.58,-210.84 375.58,-201.65 115.38,-163.5 112.64,-163.1 109.85,-162.64 107.04,-162.14"/>
<polygon fill="#63b8ff" stroke="#63b8ff" points="821.21,-216.55 831.26,-213.21 821.32,-209.55 821.21,-216.55"/>
</a>
</g>
</g>
<!-- Node3 -->
<g id="Node000003" class="node">
<title>Node3</title>
<g id="a_Node000003"><a xlink:href="iop_2arcade_2s147netb_2src_2irx__imports_8h_source.html" target="_top" xlink:title=" ">
<polygon fill="white" stroke="#666666" points="228.25,-163.5 124.5,-163.5 124.5,-133 228.25,-133 228.25,-163.5"/>
<text text-anchor="start" x="132.5" y="-150" font-family="Helvetica,sans-Serif" font-size="10.00">iop/arcade/s147netb</text>
<text text-anchor="middle" x="176.38" y="-138.75" font-family="Helvetica,sans-Serif" font-size="10.00">/src/irx_imports.h</text>
</a>
</g>
</g>
<!-- Node1&#45;&gt;Node3 -->
<g id="edge2_Node000001_Node000003" class="edge">
<title>Node1&#45;&gt;Node3</title>
<g id="a_edge2_Node000001_Node000003"><a xlink:title=" ">
<path fill="none" stroke="#63b8ff" d="M821.01,-212.02C704.72,-208.14 449.7,-196.35 237.38,-163.5 234.47,-163.05 231.5,-162.54 228.52,-161.98"/>
<polygon fill="#63b8ff" stroke="#63b8ff" points="820.87,-215.52 830.98,-212.34 821.09,-208.52 820.87,-215.52"/>
</a>
</g>
</g>
<!-- Node5 -->
<g id="Node000005" class="node">
<title>Node5</title>
<g id="a_Node000005"><a xlink:href="iop_2debug_2iop__sbusdbg_2src_2irx__imports_8h_source.html" target="_top" xlink:title=" ">
<polygon fill="white" stroke="#666666" points="362.25,-163.5 246.5,-163.5 246.5,-133 362.25,-133 362.25,-163.5"/>
<text text-anchor="start" x="254.5" y="-150" font-family="Helvetica,sans-Serif" font-size="10.00">iop/debug/iop_sbusdbg</text>
<text text-anchor="middle" x="304.38" y="-138.75" font-family="Helvetica,sans-Serif" font-size="10.00">/src/irx_imports.h</text>
</a>
</g>
</g>
<!-- Node1&#45;&gt;Node5 -->
<g id="edge4_Node000001_Node000005" class="edge">
<title>Node1&#45;&gt;Node5</title>
<g id="a_edge4_Node000001_Node000005"><a xlink:title=" ">
<path fill="none" stroke="#63b8ff" d="M821.06,-209.84C723.92,-203.32 532.41,-188.43 371.38,-163.5 368.44,-163.05 365.43,-162.54 362.41,-162.01"/>
<polygon fill="#63b8ff" stroke="#63b8ff" points="820.72,-213.32 830.93,-210.49 821.18,-206.34 820.72,-213.32"/>
</a>
</g>
</g>
<!-- Node6 -->
<g id="Node000006" class="node">
<title>Node6</title>
<g id="a_Node000006"><a xlink:href="iop_2debug_2iopdebug_2src_2irx__imports_8h_source.html" target="_top" xlink:title=" ">
<polygon fill="white" stroke="#666666" points="480.38,-163.5 380.38,-163.5 380.38,-133 480.38,-133 480.38,-163.5"/>
<text text-anchor="start" x="388.38" y="-150" font-family="Helvetica,sans-Serif" font-size="10.00">iop/debug/iopdebug</text>
<text text-anchor="middle" x="430.38" y="-138.75" font-family="Helvetica,sans-Serif" font-size="10.00">/src/irx_imports.h</text>
</a>
</g>
</g>
<!-- Node1&#45;&gt;Node6 -->
<g id="edge5_Node000001_Node000006" class="edge">
<title>Node1&#45;&gt;Node6</title>
<g id="a_edge5_Node000001_Node000006"><a xlink:title=" ">
<path fill="none" stroke="#63b8ff" d="M821.55,-207.92C743.34,-200.17 605.86,-184.91 489.38,-163.5 486.58,-162.99 483.71,-162.42 480.83,-161.82"/>
<polygon fill="#63b8ff" stroke="#63b8ff" points="820.85,-211.37 831.14,-208.86 821.53,-204.4 820.85,-211.37"/>
</a>
</g>
</g>
<!-- Node7 -->
<g id="Node000007" class="node">
<title>Node7</title>
<g id="a_Node000007"><a xlink:href="iop_2debug_2ppctty_2src_2irx__imports_8h_source.html" target="_top" xlink:title=" ">
<polygon fill="white" stroke="#666666" points="602.25,-163.5 498.5,-163.5 498.5,-133 602.25,-133 602.25,-163.5"/>
<text text-anchor="start" x="506.5" y="-150" font-family="Helvetica,sans-Serif" font-size="10.00">iop/debug/ppctty/src</text>
<text text-anchor="middle" x="550.38" y="-138.75" font-family="Helvetica,sans-Serif" font-size="10.00">/irx_imports.h</text>
</a>
</g>
</g>
<!-- Node1&#45;&gt;Node7 -->
<g id="edge6_Node000001_Node000007" class="edge">
<title>Node1&#45;&gt;Node7</title>
<g id="a_edge6_Node000001_Node000007"><a xlink:title=" ">
<path fill="none" stroke="#63b8ff" d="M821.35,-203.02C765.91,-193.38 683.09,-178.47 611.38,-163.5 608.5,-162.9 605.55,-162.27 602.58,-161.62"/>
<polygon fill="#63b8ff" stroke="#63b8ff" points="820.46,-206.42 830.91,-204.68 821.66,-199.52 820.46,-206.42"/>
</a>
</g>
</g>
<!-- Node8 -->
<g id="Node000008" class="node">
<title>Node8</title>
<g id="a_Node000008"><a xlink:href="iop_2memorycard_2mcman_2src_2irx__imports_8h_source.html" target="_top" xlink:title=" ">
<polygon fill="white" stroke="#666666" points="740.5,-163.5 620.25,-163.5 620.25,-133 740.5,-133 740.5,-163.5"/>
<text text-anchor="start" x="628.25" y="-150" font-family="Helvetica,sans-Serif" font-size="10.00">iop/memorycard/mcman</text>
<text text-anchor="middle" x="680.38" y="-138.75" font-family="Helvetica,sans-Serif" font-size="10.00">/src/irx_imports.h</text>
</a>
</g>
</g>
<!-- Node1&#45;&gt;Node8 -->
<g id="edge7_Node000001_Node000008" class="edge">
<title>Node1&#45;&gt;Node8</title>
<g id="a_edge7_Node000001_Node000008"><a xlink:title=" ">
<path fill="none" stroke="#63b8ff" d="M826.95,-195.59C795.27,-185.58 756.45,-173.3 726.72,-163.9"/>
<polygon fill="#63b8ff" stroke="#63b8ff" points="825.8,-198.9 836.39,-198.58 827.91,-192.23 825.8,-198.9"/>
</a>
</g>
</g>
<!-- Node9 -->
<g id="Node000009" class="node">
<title>Node9</title>
<g id="a_Node000009"><a xlink:href="mcman-internal_8h_source.html" target="_top" xlink:title=" ">
<polygon fill="white" stroke="#666666" points="878.5,-163.5 758.25,-163.5 758.25,-133 878.5,-133 878.5,-163.5"/>
<text text-anchor="start" x="766.25" y="-150" font-family="Helvetica,sans-Serif" font-size="10.00">iop/memorycard/mcman</text>
<text text-anchor="middle" x="818.38" y="-138.75" font-family="Helvetica,sans-Serif" font-size="10.00">/src/mcman&#45;internal.h</text>
</a>
</g>
</g>
<!-- Node1&#45;&gt;Node9 -->
<g id="edge8_Node000001_Node000009" class="edge">
<title>Node1&#45;&gt;Node9</title>
<g id="a_edge8_Node000001_Node000009"><a xlink:title=" ">
<path fill="none" stroke="#63b8ff" d="M861.29,-191.19C852,-182.11 841.55,-171.9 833.29,-163.83"/>
<polygon fill="#63b8ff" stroke="#63b8ff" points="858.72,-193.57 868.32,-198.06 863.61,-188.56 858.72,-193.57"/>
</a>
</g>
</g>
<!-- Node16 -->
<g id="Node000016" class="node">
<title>Node16</title>
<g id="a_Node000016"><a xlink:href="smap_8c_source.html" target="_top" xlink:title=" ">
<polygon fill="white" stroke="#666666" points="1006.25,-163.5 896.5,-163.5 896.5,-133 1006.25,-133 1006.25,-163.5"/>
<text text-anchor="start" x="904.5" y="-150" font-family="Helvetica,sans-Serif" font-size="10.00">iop/network/smap/src</text>
<text text-anchor="middle" x="951.38" y="-138.75" font-family="Helvetica,sans-Serif" font-size="10.00">/smap.c</text>
</a>
</g>
</g>
<!-- Node1&#45;&gt;Node16 -->
<g id="edge15_Node000001_Node000016" class="edge">
<title>Node1&#45;&gt;Node16</title>
<g id="a_edge15_Node000001_Node000016"><a xlink:title=" ">
<path fill="none" stroke="#63b8ff" d="M907.81,-191.19C917.24,-182.11 927.85,-171.9 936.23,-163.83"/>
<polygon fill="#63b8ff" stroke="#63b8ff" points="905.45,-188.61 900.67,-198.06 910.3,-193.65 905.45,-188.61"/>
</a>
</g>
</g>
<!-- Node17 -->
<g id="Node000017" class="node">
<title>Node17</title>
<g id="a_Node000017"><a xlink:href="xfer_8c_source.html" target="_top" xlink:title=" ">
<polygon fill="white" stroke="#666666" points="1134.25,-163.5 1024.5,-163.5 1024.5,-133 1134.25,-133 1134.25,-163.5"/>
<text text-anchor="start" x="1032.5" y="-150" font-family="Helvetica,sans-Serif" font-size="10.00">iop/network/smap/src</text>
<text text-anchor="middle" x="1079.38" y="-138.75" font-family="Helvetica,sans-Serif" font-size="10.00">/xfer.c</text>
</a>
</g>
</g>
<!-- Node1&#45;&gt;Node17 -->
<g id="edge16_Node000001_Node000017" class="edge">
<title>Node1&#45;&gt;Node17</title>
<g id="a_edge16_Node000001_Node000017"><a xlink:title=" ">
<path fill="none" stroke="#63b8ff" d="M939.42,-195.54C969.64,-185.55 1006.61,-173.32 1034.96,-163.94"/>
<polygon fill="#63b8ff" stroke="#63b8ff" points="938.46,-192.18 930.06,-198.64 940.65,-198.82 938.46,-192.18"/>
</a>
</g>
</g>
<!-- Node18 -->
<g id="Node000018" class="node">
<title>Node18</title>
<g id="a_Node000018"><a xlink:href="iop_2security_2secrman_2src_2irx__imports_8h_source.html" target="_top" xlink:title=" ">
<polygon fill="white" stroke="#666666" points="1258.38,-163.5 1152.38,-163.5 1152.38,-133 1258.38,-133 1258.38,-163.5"/>
<text text-anchor="start" x="1160.38" y="-150" font-family="Helvetica,sans-Serif" font-size="10.00">iop/security/secrman</text>
<text text-anchor="middle" x="1205.38" y="-138.75" font-family="Helvetica,sans-Serif" font-size="10.00">/src/irx_imports.h</text>
</a>
</g>
</g>
<!-- Node1&#45;&gt;Node18 -->
<g id="edge17_Node000001_Node000018" class="edge">
<title>Node1&#45;&gt;Node18</title>
<g id="a_edge17_Node000001_Node000018"><a xlink:title=" ">
<path fill="none" stroke="#63b8ff" d="M947.23,-202.18C999.76,-192.36 1076.58,-177.65 1143.38,-163.5 1146.18,-162.9 1149.06,-162.28 1151.97,-161.65"/>
<polygon fill="#63b8ff" stroke="#63b8ff" points="946.75,-198.71 937.57,-203.98 948.04,-205.59 946.75,-198.71"/>
</a>
</g>
</g>
<!-- Node19 -->
<g id="Node000019" class="node">
<title>Node19</title>
<g id="a_Node000019"><a xlink:href="secrman_8c_source.html" target="_top" xlink:title=" ">
<polygon fill="white" stroke="#666666" points="1382.38,-163.5 1276.38,-163.5 1276.38,-133 1382.38,-133 1382.38,-163.5"/>
<text text-anchor="start" x="1284.38" y="-150" font-family="Helvetica,sans-Serif" font-size="10.00">iop/security/secrman</text>
<text text-anchor="middle" x="1329.38" y="-138.75" font-family="Helvetica,sans-Serif" font-size="10.00">/src/secrman.c</text>
</a>
</g>
</g>
<!-- Node1&#45;&gt;Node19 -->
<g id="edge18_Node000001_Node000019" class="edge">
<title>Node1&#45;&gt;Node19</title>
<g id="a_edge18_Node000001_Node000019"><a xlink:title=" ">
<path fill="none" stroke="#63b8ff" d="M947.63,-207.32C1023.8,-199.15 1155.47,-183.65 1267.38,-163.5 1270.2,-162.99 1273.09,-162.44 1276.01,-161.86"/>
<polygon fill="#63b8ff" stroke="#63b8ff" points="947.42,-203.83 937.85,-208.36 948.16,-210.79 947.42,-203.83"/>
</a>
</g>
</g>
<!-- Node20 -->
<g id="Node000020" class="node">
<title>Node20</title>
<g id="a_Node000020"><a xlink:href="xmodload_8h.html" target="_top" xlink:title=" ">
<polygon fill="white" stroke="#666666" points="1503.88,-163.5 1400.88,-163.5 1400.88,-133 1503.88,-133 1503.88,-163.5"/>
<text text-anchor="start" x="1408.88" y="-150" font-family="Helvetica,sans-Serif" font-size="10.00">iop/system/modload</text>
<text text-anchor="middle" x="1452.38" y="-138.75" font-family="Helvetica,sans-Serif" font-size="10.00">/include/xmodload.h</text>
</a>
</g>
</g>
<!-- Node1&#45;&gt;Node20 -->
<g id="edge19_Node000001_Node000020" class="edge">
<title>Node1&#45;&gt;Node20</title>
<g id="a_edge19_Node000001_Node000020"><a xlink:title=" ">
<path fill="none" stroke="#63b8ff" d="M947.39,-210.16C1043.6,-204.08 1232.68,-189.78 1391.38,-163.5 1394.38,-163 1397.46,-162.44 1400.55,-161.84"/>
<polygon fill="#63b8ff" stroke="#63b8ff" points="947.4,-206.65 937.63,-210.77 947.83,-213.64 947.4,-206.65"/>
</a>
</g>
</g>
<!-- Node24 -->
<g id="Node000024" class="node">
<title>Node24</title>
<g id="a_Node000024"><a xlink:href="modload_8c_source.html" target="_top" xlink:title=" ">
<polygon fill="white" stroke="#666666" points="1583.88,-97 1480.88,-97 1480.88,-66.5 1583.88,-66.5 1583.88,-97"/>
<text text-anchor="start" x="1488.88" y="-83.5" font-family="Helvetica,sans-Serif" font-size="10.00">iop/system/modload</text>
<text text-anchor="middle" x="1532.38" y="-72.25" font-family="Helvetica,sans-Serif" font-size="10.00">/src/modload.c</text>
</a>
</g>
</g>
<!-- Node1&#45;&gt;Node24 -->
<g id="edge26_Node000001_Node000024" class="edge">
<title>Node1&#45;&gt;Node24</title>
<g id="a_edge26_Node000001_Node000024"><a xlink:title=" ">
<path fill="none" stroke="#63b8ff" d="M947.66,-212.86C1098.75,-210.14 1471.11,-199.81 1513.38,-163.5 1532.38,-147.17 1534.33,-115.73 1533.63,-97.27"/>
<polygon fill="#63b8ff" stroke="#63b8ff" points="947.77,-209.35 937.83,-213.03 947.89,-216.35 947.77,-209.35"/>
</a>
</g>
</g>
<!-- Node27 -->
<g id="Node000027" class="node">
<title>Node27</title>
<g id="a_Node000027"><a xlink:href="iop_2system_2reboot_2src_2irx__imports_8h_source.html" target="_top" xlink:title=" ">
<polygon fill="white" stroke="#666666" points="1691.25,-163.5 1581.5,-163.5 1581.5,-133 1691.25,-133 1691.25,-163.5"/>
<text text-anchor="start" x="1589.5" y="-150" font-family="Helvetica,sans-Serif" font-size="10.00">iop/system/reboot/src</text>
<text text-anchor="middle" x="1636.38" y="-138.75" font-family="Helvetica,sans-Serif" font-size="10.00">/irx_imports.h</text>
</a>
</g>
</g>
<!-- Node1&#45;&gt;Node27 -->
<g id="edge27_Node000001_Node000027" class="edge">
<title>Node1&#45;&gt;Node27</title>
<g id="a_edge27_Node000001_Node000027"><a xlink:title=" ">
<path fill="none" stroke="#63b8ff" d="M947.3,-210.68C1065.14,-204.55 1327.01,-189.15 1546.38,-163.5 1557.69,-162.18 1569.76,-160.47 1581.26,-158.7"/>
<polygon fill="#63b8ff" stroke="#63b8ff" points="947.33,-207.17 937.53,-211.18 947.69,-214.17 947.33,-207.17"/>
</a>
</g>
</g>
<!-- Node4 -->
<g id="Node000004" class="node">
<title>Node4</title>
<g id="a_Node000004"><a xlink:href="s147netb_8c_source.html" target="_top" xlink:title=" ">
<polygon fill="white" stroke="#666666" points="228.25,-97 124.5,-97 124.5,-66.5 228.25,-66.5 228.25,-97"/>
<text text-anchor="start" x="132.5" y="-83.5" font-family="Helvetica,sans-Serif" font-size="10.00">iop/arcade/s147netb</text>
<text text-anchor="middle" x="176.38" y="-72.25" font-family="Helvetica,sans-Serif" font-size="10.00">/src/s147netb.c</text>
</a>
</g>
</g>
<!-- Node3&#45;&gt;Node4 -->
<g id="edge3_Node000003_Node000004" class="edge">
<title>Node3&#45;&gt;Node4</title>
<g id="a_edge3_Node000003_Node000004"><a xlink:title=" ">
<path fill="none" stroke="#63b8ff" d="M176.38,-121.31C176.38,-113.14 176.38,-104.41 176.38,-97.33"/>
<polygon fill="#63b8ff" stroke="#63b8ff" points="172.88,-121.1 176.38,-131.1 179.88,-121.1 172.88,-121.1"/>
</a>
</g>
</g>
<!-- Node10 -->
<g id="Node000010" class="node">
<title>Node10</title>
<g id="a_Node000010"><a xlink:href="iop_2memorycard_2mcman_2src_2main_8c_source.html" target="_top" xlink:title=" ">
<polygon fill="white" stroke="#666666" points="491.5,-97 371.25,-97 371.25,-66.5 491.5,-66.5 491.5,-97"/>
<text text-anchor="start" x="379.25" y="-83.5" font-family="Helvetica,sans-Serif" font-size="10.00">iop/memorycard/mcman</text>
<text text-anchor="middle" x="431.38" y="-72.25" font-family="Helvetica,sans-Serif" font-size="10.00">/src/main.c</text>
</a>
</g>
</g>
<!-- Node9&#45;&gt;Node10 -->
<g id="edge9_Node000009_Node000010" class="edge">
<title>Node9&#45;&gt;Node10</title>
<g id="a_edge9_Node000009_Node000010"><a xlink:title=" ">
<path fill="none" stroke="#63b8ff" d="M746.64,-132.59C637.3,-113.83 606.96,-115.69 500.38,-97 497.6,-96.51 494.77,-96 491.92,-95.47"/>
<polygon fill="#63b8ff" stroke="#63b8ff" points="745.89,-136.01 756.34,-134.27 747.09,-129.11 745.89,-136.01"/>
</a>
</g>
</g>
<!-- Node11 -->
<g id="Node000011" class="node">
<title>Node11</title>
<g id="a_Node000011"><a xlink:href="mcdev_8c_source.html" target="_top" xlink:title=" ">
<polygon fill="white" stroke="#666666" points="629.5,-97 509.25,-97 509.25,-66.5 629.5,-66.5 629.5,-97"/>
<text text-anchor="start" x="517.25" y="-83.5" font-family="Helvetica,sans-Serif" font-size="10.00">iop/memorycard/mcman</text>
<text text-anchor="middle" x="569.38" y="-72.25" font-family="Helvetica,sans-Serif" font-size="10.00">/src/mcdev.c</text>
</a>
</g>
</g>
<!-- Node9&#45;&gt;Node11 -->
<g id="edge10_Node000009_Node000011" class="edge">
<title>Node9&#45;&gt;Node11</title>
<g id="a_edge10_Node000009_Node000011"><a xlink:title=" ">
<path fill="none" stroke="#63b8ff" d="M750.55,-129.68C711.48,-119.56 662.94,-106.99 625.94,-97.4"/>
<polygon fill="#63b8ff" stroke="#63b8ff" points="749.54,-133.03 760.1,-132.15 751.29,-126.26 749.54,-133.03"/>
</a>
</g>
</g>
<!-- Node12 -->
<g id="Node000012" class="node">
<title>Node12</title>
<g id="a_Node000012"><a xlink:href="mciomanx__backing_8c_source.html" target="_top" xlink:title=" ">
<polygon fill="white" stroke="#666666" points="773.5,-97 647.25,-97 647.25,-66.5 773.5,-66.5 773.5,-97"/>
<text text-anchor="start" x="655.25" y="-83.5" font-family="Helvetica,sans-Serif" font-size="10.00">iop/memorycard/mcman</text>
<text text-anchor="middle" x="710.38" y="-72.25" font-family="Helvetica,sans-Serif" font-size="10.00">/src/mciomanx_backing.c</text>
</a>
</g>
</g>
<!-- Node9&#45;&gt;Node12 -->
<g id="edge11_Node000009_Node000012" class="edge">
<title>Node9&#45;&gt;Node12</title>
<g id="a_edge11_Node000009_Node000012"><a xlink:title=" ">
<path fill="none" stroke="#63b8ff" d="M784.28,-126.89C768.21,-117.29 749.4,-106.06 734.78,-97.33"/>
<polygon fill="#63b8ff" stroke="#63b8ff" points="782.19,-129.72 792.57,-131.84 785.78,-123.71 782.19,-129.72"/>
</a>
</g>
</g>
<!-- Node13 -->
<g id="Node000013" class="node">
<title>Node13</title>
<g id="a_Node000013"><a xlink:href="mcsio2_8c_source.html" target="_top" xlink:title=" ">
<polygon fill="white" stroke="#666666" points="911.5,-97 791.25,-97 791.25,-66.5 911.5,-66.5 911.5,-97"/>
<text text-anchor="start" x="799.25" y="-83.5" font-family="Helvetica,sans-Serif" font-size="10.00">iop/memorycard/mcman</text>
<text text-anchor="middle" x="851.38" y="-72.25" font-family="Helvetica,sans-Serif" font-size="10.00">/src/mcsio2.c</text>
</a>
</g>
</g>
<!-- Node9&#45;&gt;Node13 -->
<g id="edge12_Node000009_Node000013" class="edge">
<title>Node9&#45;&gt;Node13</title>
<g id="a_edge12_Node000009_Node000013"><a xlink:title=" ">
<path fill="none" stroke="#63b8ff" d="M831.07,-122.44C835.41,-113.96 840.12,-104.74 843.92,-97.33"/>
<polygon fill="#63b8ff" stroke="#63b8ff" points="827.99,-120.77 826.55,-131.27 834.22,-123.96 827.99,-120.77"/>
</a>
</g>
</g>
<!-- Node14 -->
<g id="Node000014" class="node">
<title>Node14</title>
<g id="a_Node000014"><a xlink:href="ps1mc__fio_8c_source.html" target="_top" xlink:title=" ">
<polygon fill="white" stroke="#666666" points="1049.5,-97 929.25,-97 929.25,-66.5 1049.5,-66.5 1049.5,-97"/>
<text text-anchor="start" x="937.25" y="-83.5" font-family="Helvetica,sans-Serif" font-size="10.00">iop/memorycard/mcman</text>
<text text-anchor="middle" x="989.38" y="-72.25" font-family="Helvetica,sans-Serif" font-size="10.00">/src/ps1mc_fio.c</text>
</a>
</g>
</g>
<!-- Node9&#45;&gt;Node14 -->
<g id="edge13_Node000009_Node000014" class="edge">
<title>Node9&#45;&gt;Node14</title>
<g id="a_edge13_Node000009_Node000014"><a xlink:title=" ">
<path fill="none" stroke="#63b8ff" d="M867.69,-128.65C893.99,-118.73 925.89,-106.7 950.43,-97.44"/>
<polygon fill="#63b8ff" stroke="#63b8ff" points="866.71,-125.28 858.59,-132.08 869.19,-131.83 866.71,-125.28"/>
</a>
</g>
</g>
<!-- Node15 -->
<g id="Node000015" class="node">
<title>Node15</title>
<g id="a_Node000015"><a xlink:href="ps2mc__fio_8c_source.html" target="_top" xlink:title=" ">
<polygon fill="white" stroke="#666666" points="1187.5,-97 1067.25,-97 1067.25,-66.5 1187.5,-66.5 1187.5,-97"/>
<text text-anchor="start" x="1075.25" y="-83.5" font-family="Helvetica,sans-Serif" font-size="10.00">iop/memorycard/mcman</text>
<text text-anchor="middle" x="1127.38" y="-72.25" font-family="Helvetica,sans-Serif" font-size="10.00">/src/ps2mc_fio.c</text>
</a>
</g>
</g>
<!-- Node9&#45;&gt;Node15 -->
<g id="edge14_Node000009_Node000015" class="edge">
<title>Node9&#45;&gt;Node15</title>
<g id="a_edge14_Node000009_Node000015"><a xlink:title=" ">
<path fill="none" stroke="#63b8ff" d="M889.83,-132.33C943.5,-121.13 1016.17,-105.96 1066.95,-95.36"/>
<polygon fill="#63b8ff" stroke="#63b8ff" points="889.24,-128.88 880.17,-134.35 890.67,-135.73 889.24,-128.88"/>
</a>
</g>
</g>
<!-- Node21 -->
<g id="Node000021" class="node">
<title>Node21</title>
<g id="a_Node000021"><a xlink:href="iop_2system_2loadfile_2src_2irx__imports_8h_source.html" target="_top" xlink:title=" ">
<polygon fill="white" stroke="#666666" points="1335.5,-97 1239.25,-97 1239.25,-66.5 1335.5,-66.5 1335.5,-97"/>
<text text-anchor="start" x="1247.25" y="-83.5" font-family="Helvetica,sans-Serif" font-size="10.00">iop/system/loadfile</text>
<text text-anchor="middle" x="1287.38" y="-72.25" font-family="Helvetica,sans-Serif" font-size="10.00">/src/irx_imports.h</text>
</a>
</g>
</g>
<!-- Node20&#45;&gt;Node21 -->
<g id="edge20_Node000020_Node000021" class="edge">
<title>Node20&#45;&gt;Node21</title>
<g id="a_edge20_Node000020_Node000021"><a xlink:title=" ">
<path fill="none" stroke="#63b8ff" d="M1404.45,-128.51C1379.14,-118.62 1348.53,-106.65 1324.95,-97.44"/>
<polygon fill="#63b8ff" stroke="#63b8ff" points="1402.94,-131.68 1413.52,-132.06 1405.48,-125.16 1402.94,-131.68"/>
</a>
</g>
</g>
<!-- Node20&#45;&gt;Node24 -->
<g id="edge23_Node000020_Node000024" class="edge">
<title>Node20&#45;&gt;Node24</title>
<g id="a_edge23_Node000020_Node000024"><a xlink:title=" ">
<path fill="none" stroke="#63b8ff" d="M1479.33,-125.52C1490.84,-116.23 1503.98,-105.65 1514.29,-97.33"/>
<polygon fill="#63b8ff" stroke="#63b8ff" points="1477.29,-122.66 1471.71,-131.66 1481.69,-128.11 1477.29,-122.66"/>
</a>
</g>
</g>
<!-- Node25 -->
<g id="Node000025" class="node">
<title>Node25</title>
<g id="a_Node000025"><a xlink:href="iop_2usb_2usbmload_2src_2irx__imports_8h_source.html" target="_top" xlink:title=" ">
<polygon fill="white" stroke="#666666" points="1462.88,-97 1353.88,-97 1353.88,-66.5 1462.88,-66.5 1462.88,-97"/>
<text text-anchor="start" x="1361.88" y="-83.5" font-family="Helvetica,sans-Serif" font-size="10.00">iop/usb/usbmload/src</text>
<text text-anchor="middle" x="1408.38" y="-72.25" font-family="Helvetica,sans-Serif" font-size="10.00">/irx_imports.h</text>
</a>
</g>
</g>
<!-- Node20&#45;&gt;Node25 -->
<g id="edge24_Node000020_Node000025" class="edge">
<title>Node20&#45;&gt;Node25</title>
<g id="a_edge24_Node000020_Node000025"><a xlink:title=" ">
<path fill="none" stroke="#63b8ff" d="M1436.03,-123.29C1430.08,-114.57 1423.55,-104.99 1418.32,-97.33"/>
<polygon fill="#63b8ff" stroke="#63b8ff" points="1433.01,-125.08 1441.54,-131.36 1438.79,-121.13 1433.01,-125.08"/>
</a>
</g>
</g>
<!-- Node22 -->
<g id="Node000022" class="node">
<title>Node22</title>
<g id="a_Node000022"><a xlink:href="eeelfloader_8c_source.html" target="_top" xlink:title=" ">
<polygon fill="white" stroke="#666666" points="1221.5,-30.5 1125.25,-30.5 1125.25,0 1221.5,0 1221.5,-30.5"/>
<text text-anchor="start" x="1133.25" y="-17" font-family="Helvetica,sans-Serif" font-size="10.00">iop/system/loadfile</text>
<text text-anchor="middle" x="1173.38" y="-5.75" font-family="Helvetica,sans-Serif" font-size="10.00">/src/eeelfloader.c</text>
</a>
</g>
</g>
<!-- Node21&#45;&gt;Node22 -->
<g id="edge21_Node000021_Node000022" class="edge">
<title>Node21&#45;&gt;Node22</title>
<g id="a_edge21_Node000021_Node000022"><a xlink:title=" ">
<path fill="none" stroke="#63b8ff" d="M1251.86,-60.66C1234.8,-51 1214.72,-39.64 1199.14,-30.83"/>
<polygon fill="#63b8ff" stroke="#63b8ff" points="1249.76,-63.49 1260.19,-65.37 1253.21,-57.4 1249.76,-63.49"/>
</a>
</g>
</g>
<!-- Node23 -->
<g id="Node000023" class="node">
<title>Node23</title>
<g id="a_Node000023"><a xlink:href="iop_2system_2loadfile_2src_2loadfile_8c_source.html" target="_top" xlink:title=" ">
<polygon fill="white" stroke="#666666" points="1335.5,-30.5 1239.25,-30.5 1239.25,0 1335.5,0 1335.5,-30.5"/>
<text text-anchor="start" x="1247.25" y="-17" font-family="Helvetica,sans-Serif" font-size="10.00">iop/system/loadfile</text>
<text text-anchor="middle" x="1287.38" y="-5.75" font-family="Helvetica,sans-Serif" font-size="10.00">/src/loadfile.c</text>
</a>
</g>
</g>
<!-- Node21&#45;&gt;Node23 -->
<g id="edge22_Node000021_Node000023" class="edge">
<title>Node21&#45;&gt;Node23</title>
<g id="a_edge22_Node000021_Node000023"><a xlink:title=" ">
<path fill="none" stroke="#63b8ff" d="M1287.38,-54.81C1287.38,-46.64 1287.38,-37.91 1287.38,-30.83"/>
<polygon fill="#63b8ff" stroke="#63b8ff" points="1283.88,-54.6 1287.38,-64.6 1290.88,-54.6 1283.88,-54.6"/>
</a>
</g>
</g>
<!-- Node26 -->
<g id="Node000026" class="node">
<title>Node26</title>
<g id="a_Node000026"><a xlink:href="usbmload_8c_source.html" target="_top" xlink:title=" ">
<polygon fill="white" stroke="#666666" points="1462.88,-30.5 1353.88,-30.5 1353.88,0 1462.88,0 1462.88,-30.5"/>
<text text-anchor="start" x="1361.88" y="-17" font-family="Helvetica,sans-Serif" font-size="10.00">iop/usb/usbmload/src</text>
<text text-anchor="middle" x="1408.38" y="-5.75" font-family="Helvetica,sans-Serif" font-size="10.00">/usbmload.c</text>
</a>
</g>
</g>
<!-- Node25&#45;&gt;Node26 -->
<g id="edge25_Node000025_Node000026" class="edge">
<title>Node25&#45;&gt;Node26</title>
<g id="a_edge25_Node000025_Node000026"><a xlink:title=" ">
<path fill="none" stroke="#63b8ff" d="M1408.38,-54.81C1408.38,-46.64 1408.38,-37.91 1408.38,-30.83"/>
<polygon fill="#63b8ff" stroke="#63b8ff" points="1404.88,-54.6 1408.38,-64.6 1411.88,-54.6 1404.88,-54.6"/>
</a>
</g>
</g>
<!-- Node28 -->
<g id="Node000028" class="node">
<title>Node28</title>
<g id="a_Node000028"><a xlink:href="reboot_8c_source.html" target="_top" xlink:title=" ">
<polygon fill="white" stroke="#666666" points="1711.25,-97 1601.5,-97 1601.5,-66.5 1711.25,-66.5 1711.25,-97"/>
<text text-anchor="start" x="1609.5" y="-83.5" font-family="Helvetica,sans-Serif" font-size="10.00">iop/system/reboot/src</text>
<text text-anchor="middle" x="1656.38" y="-72.25" font-family="Helvetica,sans-Serif" font-size="10.00">/reboot.c</text>
</a>
</g>
</g>
<!-- Node27&#45;&gt;Node28 -->
<g id="edge28_Node000027_Node000028" class="edge">
<title>Node27&#45;&gt;Node28</title>
<g id="a_edge28_Node000027_Node000028"><a xlink:title=" ">
<path fill="none" stroke="#63b8ff" d="M1644.24,-121.88C1646.83,-113.55 1649.61,-104.58 1651.85,-97.33"/>
<polygon fill="#63b8ff" stroke="#63b8ff" points="1640.98,-120.58 1641.36,-131.17 1647.67,-122.65 1640.98,-120.58"/>
</a>
</g>
</g>
</g>
</svg>

<g id="navigator" transform="translate(0 0)" fill="#404254">
  <rect fill="#f2f5e9" fill-opacity="0.5" stroke="#606060" stroke-width=".5" x="0" y="0" width="60" height="60"/>
  <use id="zoomplus" xlink:href="#zoomPlus" x="17" y="9" onmousedown="handleZoom(evt,'in')"/>
  <use id="zoomminus" xlink:href="#zoomMin" x="42" y="9" onmousedown="handleZoom(evt,'out')"/>
  <use id="reset" xlink:href="#resetDef" x="30" y="36" onmousedown="handleReset()"/>
   <use id="arrowup" xlink:href="#arrowUp" x="0" y="0" onmousedown="handlePan(0,-1)"/>
  <use id="arrowright" xlink:href="#arrowRight" x="0" y="0" onmousedown="handlePan(1,0)"/>
  <use id="arrowdown" xlink:href="#arrowDown" x="0" y="0" onmousedown="handlePan(0,1)"/>
  <use id="arrowleft" xlink:href="#arrowLeft" x="0" y="0" onmousedown="handlePan(-1,0)"/>
</g>
<svg viewBox="0 0 15 15" width="100%" height="30px" preserveAspectRatio="xMaxYMin meet">
 <g id="arrow_out" transform="scale(0.3 0.3)">
  <a xlink:href="modload_8h__dep__incl_org.svg" target="_base">
   <rect id="button" ry="5" rx="5" y="6" x="6" height="38" width="38"
        fill="#f2f5e9" fill-opacity="0.5" stroke="#606060" stroke-width="1.0"/>
   <path id="arrow"
     d="M 11.500037,31.436501 C 11.940474,20.09759 22.043105,11.32322 32.158766,21.979434 L 37.068811,17.246167 C 37.068811,17.246167 37.088388,32 37.088388,32 L 22.160133,31.978069 C 22.160133,31.978069 26.997745,27.140456 26.997745,27.140456 C 18.528582,18.264221 13.291696,25.230495 11.500037,31.436501 z"
     style="fill:#404040;"/>
  </a>
 </g>
</svg>

<style type='text/css'>
<![CDATA[
[data-mouse-over-selected='false'] { opacity: 0.7; }
[data-mouse-over-selected='true']  { opacity: 1.0; }
]]>
</style>
<script type="application/ecmascript"><![CDATA[
document.addEventListener('DOMContentLoaded', (event) => {
  highlightEdges();
  highlightAdjacentNodes();
});
]]></script>
</svg>
