<?xml version="1.0" encoding="UTF-8" standalone="no"?>
<!DOCTYPE svg PUBLIC "-//W3C//DTD SVG 1.1//EN"
 "http://www.w3.org/Graphics/SVG/1.1/DTD/svg11.dtd">
<!-- Generated by graphviz version 2.44.0 ()
 -->
<!-- Title: ee/rpc/cdvd/src/ncmd.c Pages: 1 -->
<!--zoomable 308 -->
<svg id="main" version="1.1" xmlns="http://www.w3.org/2000/svg" xmlns:xlink="http://www.w3.org/1999/xlink" xml:space="preserve" onload="init(evt)">
<style type="text/css"><![CDATA[
.edge:hover path { stroke: red; }
.edge:hover polygon { stroke: red; fill: red; }
]]></style>
<script type="text/javascript"><![CDATA[
var edges = document.getElementsByTagName('g');
if (edges && edges.length) {
  for (var i=0;i<edges.length;i++) {
    if (edges[i].id.substr(0,4)=='edge') {
      edges[i].setAttribute('class','edge');
    }
  }
}
]]></script>
        <defs>
                <circle id="rim" cx="0" cy="0" r="7"/>
                <circle id="rim2" cx="0" cy="0" r="3.5"/>
                <g id="zoomPlus">
                        <use xlink:href="#rim" fill="#404040">
                                <set attributeName="fill" to="#808080" begin="zoomplus.mouseover" end="zoomplus.mouseout"/>
                        </use>
                        <path d="M-4,0h8M0,-4v8" fill="none" stroke="white" stroke-width="1.5" pointer-events="none"/>
                </g>
                <g id="zoomMin">
                        <use xlink:href="#rim" fill="#404040">
                                <set attributeName="fill" to="#808080" begin="zoomminus.mouseover" end="zoomminus.mouseout"/>
                        </use>
                        <path d="M-4,0h8" fill="none" stroke="white" stroke-width="1.5" pointer-events="none"/>
                </g>
                <g id="dirArrow">
                        <path fill="none" stroke="white" stroke-width="1.5" d="M0,-3.0v7 M-2.5,-0.5L0,-3.0L2.5,-0.5"/>
                </g>
               <g id="resetDef">
                       <use xlink:href="#rim2" fill="#404040">
                               <set attributeName="fill" to="#808080" begin="reset.mouseover" end="reset.mouseout"/>
                       </use>
               </g>
        </defs>

<script type="text/javascript">
var viewWidth = 531;
var viewHeight = 308;
var sectionId = 'dynsection-0';
</script>
<script xlink:href="svgpan.js"/>
<svg id="graph" class="graph">
<g id="viewport">
<title>ee/rpc/cdvd/src/ncmd.c</title>
<polygon fill="white" stroke="transparent" points="-4,4 -4,-304 527,-304 527,4 -4,4"/>
<!-- Node1 -->
<g id="node1" class="node">
<title>Node1</title>
<g id="a_node1"><a xlink:title=" ">
<polygon fill="#bfbfbf" stroke="black" points="257.5,-280.5 257.5,-299.5 376.5,-299.5 376.5,-280.5 257.5,-280.5"/>
<text text-anchor="middle" x="317" y="-287.5" font-family="Helvetica,sans-Serif" font-size="10.00">ee/rpc/cdvd/src/ncmd.c</text>
</a>
</g>
</g>
<!-- Node2 -->
<g id="node2" class="node">
<title>Node2</title>
<g id="a_node2"><a xlink:href="stdio_8h.html" target="_top" xlink:title=" ">
<polygon fill="white" stroke="black" points="92.5,-168.5 92.5,-187.5 137.5,-187.5 137.5,-168.5 92.5,-168.5"/>
<text text-anchor="middle" x="115" y="-175.5" font-family="Helvetica,sans-Serif" font-size="10.00">stdio.h</text>
</a>
</g>
</g>
<!-- Node1&#45;&gt;Node2 -->
<g id="edge1" class="edge">
<title>Node1&#45;&gt;Node2</title>
<path fill="none" stroke="midnightblue" d="M288.36,-280.36C264.26,-272.52 229.3,-259.78 201,-244 175.39,-229.72 148.91,-208.57 132.22,-194.31"/>
<polygon fill="midnightblue" stroke="midnightblue" points="134.29,-191.47 124.44,-187.55 129.7,-196.75 134.29,-191.47"/>
</g>
<!-- Node8 -->
<g id="node8" class="node">
<title>Node8</title>
<g id="a_node8"><a xlink:href="kernel_8h.html" target="_top" xlink:title=" ">
<polygon fill="white" stroke="black" points="0,-168.5 0,-187.5 50,-187.5 50,-168.5 0,-168.5"/>
<text text-anchor="middle" x="25" y="-175.5" font-family="Helvetica,sans-Serif" font-size="10.00">kernel.h</text>
</a>
</g>
</g>
<!-- Node1&#45;&gt;Node8 -->
<g id="edge7" class="edge">
<title>Node1&#45;&gt;Node8</title>
<path fill="none" stroke="midnightblue" d="M283.79,-280.45C253.11,-272.22 206.43,-258.86 167,-244 125.47,-228.35 78.99,-206.14 50.87,-192.15"/>
<polygon fill="midnightblue" stroke="midnightblue" points="52.24,-188.92 41.73,-187.57 49.1,-195.18 52.24,-188.92"/>
</g>
<!-- Node10 -->
<g id="node10" class="node">
<title>Node10</title>
<g id="a_node10"><a xlink:title=" ">
<polygon fill="white" stroke="#bfbfbf" points="401,-224.5 401,-243.5 449,-243.5 449,-224.5 401,-224.5"/>
<text text-anchor="middle" x="425" y="-231.5" font-family="Helvetica,sans-Serif" font-size="10.00">sifrpc.h</text>
</a>
</g>
</g>
<!-- Node1&#45;&gt;Node10 -->
<g id="edge12" class="edge">
<title>Node1&#45;&gt;Node10</title>
<path fill="none" stroke="midnightblue" d="M334.35,-280.32C351.67,-271.66 378.52,-258.24 398.5,-248.25"/>
<polygon fill="midnightblue" stroke="midnightblue" points="400.31,-251.26 407.69,-243.65 397.18,-245 400.31,-251.26"/>
</g>
<!-- Node11 -->
<g id="node11" class="node">
<title>Node11</title>
<g id="a_node11"><a xlink:href="libcdvd_8h.html" target="_top" xlink:title=" ">
<polygon fill="white" stroke="black" points="289.5,-224.5 289.5,-243.5 344.5,-243.5 344.5,-224.5 289.5,-224.5"/>
<text text-anchor="middle" x="317" y="-231.5" font-family="Helvetica,sans-Serif" font-size="10.00">libcdvd.h</text>
</a>
</g>
</g>
<!-- Node1&#45;&gt;Node11 -->
<g id="edge13" class="edge">
<title>Node1&#45;&gt;Node11</title>
<path fill="none" stroke="midnightblue" d="M317,-280.08C317,-273.01 317,-262.86 317,-253.99"/>
<polygon fill="midnightblue" stroke="midnightblue" points="320.5,-253.75 317,-243.75 313.5,-253.75 320.5,-253.75"/>
</g>
<!-- Node13 -->
<g id="node13" class="node">
<title>Node13</title>
<g id="a_node13"><a xlink:href="libcdvd-rpc_8h.html" target="_top" xlink:title=" ">
<polygon fill="white" stroke="black" points="337.5,-56.5 337.5,-75.5 408.5,-75.5 408.5,-56.5 337.5,-56.5"/>
<text text-anchor="middle" x="373" y="-63.5" font-family="Helvetica,sans-Serif" font-size="10.00">libcdvd&#45;rpc.h</text>
</a>
</g>
</g>
<!-- Node1&#45;&gt;Node13 -->
<g id="edge16" class="edge">
<title>Node1&#45;&gt;Node13</title>
<path fill="none" stroke="midnightblue" d="M326.73,-280.42C335.49,-272.08 347.89,-258.55 354,-244 376.69,-189.96 376.19,-118.85 374.41,-85.62"/>
<polygon fill="midnightblue" stroke="midnightblue" points="377.89,-85.29 373.76,-75.54 370.91,-85.74 377.89,-85.29"/>
</g>
<!-- Node14 -->
<g id="node14" class="node">
<title>Node14</title>
<g id="a_node14"><a xlink:href="string_8h_source.html" target="_top" xlink:title=" ">
<polygon fill="white" stroke="black" points="210,-224.5 210,-243.5 258,-243.5 258,-224.5 210,-224.5"/>
<text text-anchor="middle" x="234" y="-231.5" font-family="Helvetica,sans-Serif" font-size="10.00">string.h</text>
</a>
</g>
</g>
<!-- Node1&#45;&gt;Node14 -->
<g id="edge18" class="edge">
<title>Node1&#45;&gt;Node14</title>
<path fill="none" stroke="midnightblue" d="M303.66,-280.32C290.84,-271.98 271.22,-259.21 256.06,-249.35"/>
<polygon fill="midnightblue" stroke="midnightblue" points="257.59,-246.17 247.3,-243.65 253.78,-252.04 257.59,-246.17"/>
</g>
<!-- Node18 -->
<g id="node18" class="node">
<title>Node18</title>
<g id="a_node18"><a xlink:href="ee_2rpc_2cdvd_2src_2internal_8h.html" target="_top" xlink:title=" ">
<polygon fill="white" stroke="black" points="467,-224.5 467,-243.5 523,-243.5 523,-224.5 467,-224.5"/>
<text text-anchor="middle" x="495" y="-231.5" font-family="Helvetica,sans-Serif" font-size="10.00">internal.h</text>
</a>
</g>
</g>
<!-- Node1&#45;&gt;Node18 -->
<g id="edge26" class="edge">
<title>Node1&#45;&gt;Node18</title>
<path fill="none" stroke="midnightblue" d="M345.2,-280.44C375.41,-271.28 423.51,-256.69 457.03,-246.52"/>
<polygon fill="midnightblue" stroke="midnightblue" points="458.37,-249.77 466.93,-243.52 456.34,-243.07 458.37,-249.77"/>
</g>
<!-- Node3 -->
<g id="node3" class="node">
<title>Node3</title>
<g id="a_node3"><a xlink:title=" ">
<polygon fill="white" stroke="#bfbfbf" points="28.5,-112.5 28.5,-131.5 79.5,-131.5 79.5,-112.5 28.5,-112.5"/>
<text text-anchor="middle" x="54" y="-119.5" font-family="Helvetica,sans-Serif" font-size="10.00">stdarg.h</text>
</a>
</g>
</g>
<!-- Node2&#45;&gt;Node3 -->
<g id="edge2" class="edge">
<title>Node2&#45;&gt;Node3</title>
<path fill="none" stroke="midnightblue" d="M105.2,-168.32C96.18,-160.34 82.59,-148.31 71.68,-138.65"/>
<polygon fill="midnightblue" stroke="midnightblue" points="73.79,-135.84 63.98,-131.83 69.15,-141.08 73.79,-135.84"/>
</g>
<!-- Node4 -->
<g id="node4" class="node">
<title>Node4</title>
<g id="a_node4"><a xlink:href="irx_8h.html" target="_top" xlink:title=" ">
<polygon fill="white" stroke="black" points="98,-112.5 98,-131.5 132,-131.5 132,-112.5 98,-112.5"/>
<text text-anchor="middle" x="115" y="-119.5" font-family="Helvetica,sans-Serif" font-size="10.00">irx.h</text>
</a>
</g>
</g>
<!-- Node2&#45;&gt;Node4 -->
<g id="edge3" class="edge">
<title>Node2&#45;&gt;Node4</title>
<path fill="none" stroke="midnightblue" d="M115,-168.08C115,-161.01 115,-150.86 115,-141.99"/>
<polygon fill="midnightblue" stroke="midnightblue" points="118.5,-141.75 115,-131.75 111.5,-141.75 118.5,-141.75"/>
</g>
<!-- Node5 -->
<g id="node5" class="node">
<title>Node5</title>
<g id="a_node5"><a xlink:href="types_8h_source.html" target="_top" xlink:title=" ">
<polygon fill="white" stroke="black" points="105.5,-56.5 105.5,-75.5 152.5,-75.5 152.5,-56.5 105.5,-56.5"/>
<text text-anchor="middle" x="129" y="-63.5" font-family="Helvetica,sans-Serif" font-size="10.00">types.h</text>
</a>
</g>
</g>
<!-- Node4&#45;&gt;Node5 -->
<g id="edge4" class="edge">
<title>Node4&#45;&gt;Node5</title>
<path fill="none" stroke="midnightblue" d="M117.31,-112.08C119.17,-104.93 121.84,-94.64 124.15,-85.69"/>
<polygon fill="midnightblue" stroke="midnightblue" points="127.61,-86.31 126.73,-75.75 120.83,-84.55 127.61,-86.31"/>
</g>
<!-- Node6 -->
<g id="node6" class="node">
<title>Node6</title>
<g id="a_node6"><a xlink:title=" ">
<polygon fill="white" stroke="#bfbfbf" points="27.5,-0.5 27.5,-19.5 78.5,-19.5 78.5,-0.5 27.5,-0.5"/>
<text text-anchor="middle" x="53" y="-7.5" font-family="Helvetica,sans-Serif" font-size="10.00">stddef.h</text>
</a>
</g>
</g>
<!-- Node5&#45;&gt;Node6 -->
<g id="edge5" class="edge">
<title>Node5&#45;&gt;Node6</title>
<path fill="none" stroke="midnightblue" d="M116.79,-56.32C105.22,-48.11 87.62,-35.6 73.84,-25.81"/>
<polygon fill="midnightblue" stroke="midnightblue" points="75.61,-22.77 65.43,-19.83 71.56,-28.48 75.61,-22.77"/>
</g>
<!-- Node7 -->
<g id="node7" class="node">
<title>Node7</title>
<g id="a_node7"><a xlink:href="tamtypes_8h.html" target="_top" xlink:title=" ">
<polygon fill="white" stroke="black" points="164,-0.5 164,-19.5 228,-19.5 228,-0.5 164,-0.5"/>
<text text-anchor="middle" x="196" y="-7.5" font-family="Helvetica,sans-Serif" font-size="10.00">tamtypes.h</text>
</a>
</g>
</g>
<!-- Node5&#45;&gt;Node7 -->
<g id="edge6" class="edge">
<title>Node5&#45;&gt;Node7</title>
<path fill="none" stroke="midnightblue" d="M139.76,-56.32C149.77,-48.26 164.89,-36.08 176.93,-26.37"/>
<polygon fill="midnightblue" stroke="midnightblue" points="179.45,-28.83 185.04,-19.83 175.06,-23.38 179.45,-28.83"/>
</g>
<!-- Node8&#45;&gt;Node3 -->
<g id="edge9" class="edge">
<title>Node8&#45;&gt;Node3</title>
<path fill="none" stroke="midnightblue" d="M29.79,-168.08C33.76,-160.69 39.53,-149.95 44.43,-140.81"/>
<polygon fill="midnightblue" stroke="midnightblue" points="47.65,-142.22 49.3,-131.75 41.49,-138.91 47.65,-142.22"/>
</g>
<!-- Node8&#45;&gt;Node6 -->
<g id="edge8" class="edge">
<title>Node8&#45;&gt;Node6</title>
<path fill="none" stroke="midnightblue" d="M21.16,-168.42C12.63,-148.08 -5.91,-95.69 10,-56 14.68,-44.33 23.99,-33.97 32.76,-26.14"/>
<polygon fill="midnightblue" stroke="midnightblue" points="35.05,-28.78 40.5,-19.7 30.58,-23.4 35.05,-28.78"/>
</g>
<!-- Node9 -->
<g id="node9" class="node">
<title>Node9</title>
<g id="a_node9"><a xlink:href="sifdma_8h.html" target="_top" xlink:title=" ">
<polygon fill="white" stroke="black" points="19.5,-56.5 19.5,-75.5 72.5,-75.5 72.5,-56.5 19.5,-56.5"/>
<text text-anchor="middle" x="46" y="-63.5" font-family="Helvetica,sans-Serif" font-size="10.00">sifdma.h</text>
</a>
</g>
</g>
<!-- Node8&#45;&gt;Node9 -->
<g id="edge10" class="edge">
<title>Node8&#45;&gt;Node9</title>
<path fill="none" stroke="midnightblue" d="M22.29,-168.41C18.73,-155.81 13.55,-131.66 19,-112 21.79,-101.92 27.51,-91.83 32.97,-83.77"/>
<polygon fill="midnightblue" stroke="midnightblue" points="35.82,-85.79 38.85,-75.64 30.15,-81.69 35.82,-85.79"/>
</g>
<!-- Node9&#45;&gt;Node7 -->
<g id="edge11" class="edge">
<title>Node9&#45;&gt;Node7</title>
<path fill="none" stroke="midnightblue" d="M69.77,-56.44C94.89,-47.4 134.71,-33.06 162.9,-22.92"/>
<polygon fill="midnightblue" stroke="midnightblue" points="164.12,-26.2 172.34,-19.52 161.75,-19.61 164.12,-26.2"/>
</g>
<!-- Node12 -->
<g id="node12" class="node">
<title>Node12</title>
<g id="a_node12"><a xlink:href="libcdvd-common_8h.html" target="_top" xlink:title=" ">
<polygon fill="white" stroke="black" points="224.5,-56.5 224.5,-75.5 319.5,-75.5 319.5,-56.5 224.5,-56.5"/>
<text text-anchor="middle" x="272" y="-63.5" font-family="Helvetica,sans-Serif" font-size="10.00">libcdvd&#45;common.h</text>
</a>
</g>
</g>
<!-- Node11&#45;&gt;Node12 -->
<g id="edge14" class="edge">
<title>Node11&#45;&gt;Node12</title>
<path fill="none" stroke="midnightblue" d="M319.05,-224.36C323.45,-203.89 332.18,-151.23 316,-112 311.15,-100.25 301.62,-89.88 292.66,-82.07"/>
<polygon fill="midnightblue" stroke="midnightblue" points="294.72,-79.23 284.75,-75.64 290.31,-84.66 294.72,-79.23"/>
</g>
<!-- Node12&#45;&gt;Node7 -->
<g id="edge15" class="edge">
<title>Node12&#45;&gt;Node7</title>
<path fill="none" stroke="midnightblue" d="M259.79,-56.32C248.22,-48.11 230.62,-35.6 216.84,-25.81"/>
<polygon fill="midnightblue" stroke="midnightblue" points="218.61,-22.77 208.43,-19.83 214.56,-28.48 218.61,-22.77"/>
</g>
<!-- Node13&#45;&gt;Node7 -->
<g id="edge17" class="edge">
<title>Node13&#45;&gt;Node7</title>
<path fill="none" stroke="midnightblue" d="M344.95,-56.44C314.92,-47.28 267.09,-32.69 233.76,-22.52"/>
<polygon fill="midnightblue" stroke="midnightblue" points="234.5,-19.09 223.91,-19.52 232.46,-25.78 234.5,-19.09"/>
</g>
<!-- Node15 -->
<g id="node15" class="node">
<title>Node15</title>
<g id="a_node15"><a xlink:href="sysclib_8h.html" target="_top" xlink:title=" ">
<polygon fill="white" stroke="black" points="171,-168.5 171,-187.5 225,-187.5 225,-168.5 171,-168.5"/>
<text text-anchor="middle" x="198" y="-175.5" font-family="Helvetica,sans-Serif" font-size="10.00">sysclib.h</text>
</a>
</g>
</g>
<!-- Node14&#45;&gt;Node15 -->
<g id="edge19" class="edge">
<title>Node14&#45;&gt;Node15</title>
<path fill="none" stroke="midnightblue" d="M228.06,-224.08C223.02,-216.53 215.66,-205.49 209.49,-196.23"/>
<polygon fill="midnightblue" stroke="midnightblue" points="212.29,-194.13 203.83,-187.75 206.47,-198.01 212.29,-194.13"/>
</g>
<!-- Node15&#45;&gt;Node3 -->
<g id="edge22" class="edge">
<title>Node15&#45;&gt;Node3</title>
<path fill="none" stroke="midnightblue" d="M175.18,-168.44C151.17,-159.44 113.17,-145.19 86.13,-135.05"/>
<polygon fill="midnightblue" stroke="midnightblue" points="87.3,-131.75 76.71,-131.52 84.84,-138.3 87.3,-131.75"/>
</g>
<!-- Node15&#45;&gt;Node4 -->
<g id="edge21" class="edge">
<title>Node15&#45;&gt;Node4</title>
<path fill="none" stroke="midnightblue" d="M184.66,-168.32C171.84,-159.98 152.22,-147.21 137.06,-137.35"/>
<polygon fill="midnightblue" stroke="midnightblue" points="138.59,-134.17 128.3,-131.65 134.78,-140.04 138.59,-134.17"/>
</g>
<!-- Node15&#45;&gt;Node5 -->
<g id="edge20" class="edge">
<title>Node15&#45;&gt;Node5</title>
<path fill="none" stroke="midnightblue" d="M192.59,-168.37C181.25,-150.3 154.83,-108.18 139.86,-84.31"/>
<polygon fill="midnightblue" stroke="midnightblue" points="142.67,-82.2 134.39,-75.59 136.74,-85.92 142.67,-82.2"/>
</g>
<!-- Node16 -->
<g id="node16" class="node">
<title>Node16</title>
<g id="a_node16"><a xlink:href="setjmp_8h.html" target="_top" xlink:title=" ">
<polygon fill="white" stroke="black" points="253.5,-112.5 253.5,-131.5 306.5,-131.5 306.5,-112.5 253.5,-112.5"/>
<text text-anchor="middle" x="280" y="-119.5" font-family="Helvetica,sans-Serif" font-size="10.00">setjmp.h</text>
</a>
</g>
</g>
<!-- Node15&#45;&gt;Node16 -->
<g id="edge23" class="edge">
<title>Node15&#45;&gt;Node16</title>
<path fill="none" stroke="midnightblue" d="M211.17,-168.32C223.85,-159.98 243.23,-147.21 258.21,-137.35"/>
<polygon fill="midnightblue" stroke="midnightblue" points="260.43,-140.08 266.86,-131.65 256.58,-134.23 260.43,-140.08"/>
</g>
<!-- Node17 -->
<g id="node17" class="node">
<title>Node17</title>
<g id="a_node17"><a xlink:href="ctype_8h.html" target="_top" xlink:title=" ">
<polygon fill="white" stroke="black" points="188.5,-112.5 188.5,-131.5 235.5,-131.5 235.5,-112.5 188.5,-112.5"/>
<text text-anchor="middle" x="212" y="-119.5" font-family="Helvetica,sans-Serif" font-size="10.00">ctype.h</text>
</a>
</g>
</g>
<!-- Node15&#45;&gt;Node17 -->
<g id="edge25" class="edge">
<title>Node15&#45;&gt;Node17</title>
<path fill="none" stroke="midnightblue" d="M200.31,-168.08C202.17,-160.93 204.84,-150.64 207.15,-141.69"/>
<polygon fill="midnightblue" stroke="midnightblue" points="210.61,-142.31 209.73,-131.75 203.83,-140.55 210.61,-142.31"/>
</g>
<!-- Node16&#45;&gt;Node7 -->
<g id="edge24" class="edge">
<title>Node16&#45;&gt;Node7</title>
<path fill="none" stroke="midnightblue" d="M261.75,-112.41C247.36,-104.76 227.81,-92.26 216,-76 206.13,-62.42 201.06,-43.87 198.49,-30.06"/>
<polygon fill="midnightblue" stroke="midnightblue" points="201.89,-29.13 196.88,-19.8 194.97,-30.22 201.89,-29.13"/>
</g>
</g>
</svg>
        <g id="navigator" transform="translate(0 0)" fill="#404254">
                <rect fill="#f2f5e9" fill-opacity="0.5" stroke="#606060" stroke-width=".5" x="0" y="0" width="60" height="60"/>
                <use id="zoomplus" xlink:href="#zoomPlus" x="17" y="9" onmousedown="handleZoom(evt,'in')"/>
                <use id="zoomminus" xlink:href="#zoomMin" x="42" y="9" onmousedown="handleZoom(evt,'out')"/>
                <use id="reset" xlink:href="#resetDef" x="30" y="36" onmousedown="handleReset()"/>
                <g id="arrowUp" xlink:href="#dirArrow" transform="translate(30 24)" onmousedown="handlePan(0,-1)">
                  <use xlink:href="#rim" fill="#404040">
                        <set attributeName="fill" to="#808080" begin="arrowUp.mouseover" end="arrowUp.mouseout"/>
                  </use>
                  <path fill="none" stroke="white" stroke-width="1.5" d="M0,-3.0v7 M-2.5,-0.5L0,-3.0L2.5,-0.5"/>
                </g>
                <g id="arrowRight" xlink:href="#dirArrow" transform="rotate(90) translate(36 -43)" onmousedown="handlePan(1,0)">
                  <use xlink:href="#rim" fill="#404040">
                        <set attributeName="fill" to="#808080" begin="arrowRight.mouseover" end="arrowRight.mouseout"/>
                  </use>
                  <path fill="none" stroke="white" stroke-width="1.5" d="M0,-3.0v7 M-2.5,-0.5L0,-3.0L2.5,-0.5"/>
                </g>
                <g id="arrowDown" xlink:href="#dirArrow" transform="rotate(180) translate(-30 -48)" onmousedown="handlePan(0,1)">
                  <use xlink:href="#rim" fill="#404040">
                        <set attributeName="fill" to="#808080" begin="arrowDown.mouseover" end="arrowDown.mouseout"/>
                  </use>
                  <path fill="none" stroke="white" stroke-width="1.5" d="M0,-3.0v7 M-2.5,-0.5L0,-3.0L2.5,-0.5"/>
                </g>
                <g id="arrowLeft" xlink:href="#dirArrow" transform="rotate(270) translate(-36 17)" onmousedown="handlePan(-1,0)">
                  <use xlink:href="#rim" fill="#404040">
                        <set attributeName="fill" to="#808080" begin="arrowLeft.mouseover" end="arrowLeft.mouseout"/>
                  </use>
                  <path fill="none" stroke="white" stroke-width="1.5" d="M0,-3.0v7 M-2.5,-0.5L0,-3.0L2.5,-0.5"/>
                </g>
        </g>
        <svg viewBox="0 0 15 15" width="100%" height="30px" preserveAspectRatio="xMaxYMin meet">
         <g id="arrow_out" transform="scale(0.3 0.3)">
          <a xlink:href="ncmd_8c__incl_org.svg" target="_base">
           <rect id="button" ry="5" rx="5" y="6" x="6" height="38" width="38"
                fill="#f2f5e9" fill-opacity="0.5" stroke="#606060" stroke-width="1.0"/>
           <path id="arrow"
             d="M 11.500037,31.436501 C 11.940474,20.09759 22.043105,11.32322 32.158766,21.979434 L 37.068811,17.246167 C 37.068811,17.246167 37.088388,32 37.088388,32 L 22.160133,31.978069 C 22.160133,31.978069 26.997745,27.140456 26.997745,27.140456 C 18.528582,18.264221 13.291696,25.230495 11.500037,31.436501 z"
             style="fill:#404040;"/>
          </a>
         </g>
        </svg>
</svg>
