<?xml version="1.0" encoding="UTF-8" standalone="no"?>
<!DOCTYPE svg PUBLIC "-//W3C//DTD SVG 1.1//EN"
 "http://www.w3.org/Graphics/SVG/1.1/DTD/svg11.dtd">
<!-- Generated by graphviz version 12.2.0 (20241103.1931)
 -->
<!-- Title: ee/rpc/cdvd/src/ncmd.c Pages: 1 -->
<svg width="507pt" height="304pt"
 viewBox="0.00 0.00 507.38 303.50" xmlns="http://www.w3.org/2000/svg" xmlns:xlink="http://www.w3.org/1999/xlink">
<g id="graph0" class="graph" transform="scale(1 1) rotate(0) translate(4 299.5)">
<title>ee/rpc/cdvd/src/ncmd.c</title>
<!-- Node1 -->
<g id="Node000001" class="node">
<title>Node1</title>
<g id="a_Node000001"><a xlink:title=" ">
<polygon fill="#999999" stroke="#666666" points="296.88,-295.5 178.88,-295.5 178.88,-276.25 296.88,-276.25 296.88,-295.5"/>
<text text-anchor="middle" x="237.88" y="-282" font-family="Helvetica,sans-Serif" font-size="10.00">ee/rpc/cdvd/src/ncmd.c</text>
</a>
</g>
</g>
<!-- Node2 -->
<g id="Node000002" class="node">
<title>Node2</title>
<g id="a_Node000002"><a xlink:href="stdio_8h.html" target="_top" xlink:title=" ">
<polygon fill="white" stroke="#666666" points="136.12,-185 91.62,-185 91.62,-165.75 136.12,-165.75 136.12,-185"/>
<text text-anchor="middle" x="113.88" y="-171.5" font-family="Helvetica,sans-Serif" font-size="10.00">stdio.h</text>
</a>
</g>
</g>
<!-- Node1&#45;&gt;Node2 -->
<g id="edge1_Node000001_Node000002" class="edge">
<title>Node1&#45;&gt;Node2</title>
<g id="a_edge1_Node000001_Node000002"><a xlink:title=" ">
<path fill="none" stroke="#63b8ff" d="M201.33,-275.84C180.64,-269.07 155.63,-257.88 138.88,-240.25 127.44,-228.22 121.05,-210.37 117.59,-196.59"/>
<polygon fill="#63b8ff" stroke="#63b8ff" points="121.02,-195.89 115.51,-186.84 114.18,-197.36 121.02,-195.89"/>
</a>
</g>
</g>
<!-- Node8 -->
<g id="Node000008" class="node">
<title>Node8</title>
<g id="a_Node000008"><a xlink:href="kernel_8h.html" target="_top" xlink:title=" ">
<polygon fill="white" stroke="#666666" points="49.75,-185 0,-185 0,-165.75 49.75,-165.75 49.75,-185"/>
<text text-anchor="middle" x="24.88" y="-171.5" font-family="Helvetica,sans-Serif" font-size="10.00">kernel.h</text>
</a>
</g>
</g>
<!-- Node1&#45;&gt;Node8 -->
<g id="edge7_Node000001_Node000008" class="edge">
<title>Node1&#45;&gt;Node8</title>
<g id="a_edge7_Node000001_Node000008"><a xlink:title=" ">
<path fill="none" stroke="#63b8ff" d="M209.76,-275.8C186.03,-267.71 151.46,-254.91 122.88,-240.25 95.02,-225.96 65.18,-205.73 45.85,-191.88"/>
<polygon fill="#63b8ff" stroke="#63b8ff" points="48.13,-189.22 37.98,-186.18 44.02,-194.88 48.13,-189.22"/>
</a>
</g>
</g>
<!-- Node10 -->
<g id="Node000010" class="node">
<title>Node10</title>
<g id="a_Node000010"><a xlink:title=" ">
<polygon fill="#e0e0e0" stroke="#999999" points="195.62,-240.25 148.12,-240.25 148.12,-221 195.62,-221 195.62,-240.25"/>
<text text-anchor="middle" x="171.88" y="-226.75" font-family="Helvetica,sans-Serif" font-size="10.00">sifrpc.h</text>
</a>
</g>
</g>
<!-- Node1&#45;&gt;Node10 -->
<g id="edge12_Node000001_Node000010" class="edge">
<title>Node1&#45;&gt;Node10</title>
<g id="a_edge12_Node000001_Node000010"><a xlink:title=" ">
<path fill="none" stroke="#63b8ff" d="M226.68,-275.84C217.14,-268.15 203.2,-256.9 191.77,-247.68"/>
<polygon fill="#63b8ff" stroke="#63b8ff" points="194.06,-245.03 184.08,-241.48 189.67,-250.48 194.06,-245.03"/>
</a>
</g>
</g>
<!-- Node11 -->
<g id="Node000011" class="node">
<title>Node11</title>
<g id="a_Node000011"><a xlink:href="libcdvd_8h.html" target="_top" xlink:title=" ">
<polygon fill="white" stroke="#666666" points="426,-240.25 371.75,-240.25 371.75,-221 426,-221 426,-240.25"/>
<text text-anchor="middle" x="398.88" y="-226.75" font-family="Helvetica,sans-Serif" font-size="10.00">libcdvd.h</text>
</a>
</g>
</g>
<!-- Node1&#45;&gt;Node11 -->
<g id="edge13_Node000001_Node000011" class="edge">
<title>Node1&#45;&gt;Node11</title>
<g id="a_edge13_Node000001_Node000011"><a xlink:title=" ">
<path fill="none" stroke="#63b8ff" d="M265.19,-275.84C291.44,-267.16 331.35,-253.96 360.73,-244.24"/>
<polygon fill="#63b8ff" stroke="#63b8ff" points="361.6,-247.64 369.99,-241.18 359.4,-240.99 361.6,-247.64"/>
</a>
</g>
</g>
<!-- Node13 -->
<g id="Node000013" class="node">
<title>Node13</title>
<g id="a_Node000013"><a xlink:href="libcdvd-rpc_8h.html" target="_top" xlink:title=" ">
<polygon fill="white" stroke="#666666" points="353.25,-240.25 282.5,-240.25 282.5,-221 353.25,-221 353.25,-240.25"/>
<text text-anchor="middle" x="317.88" y="-226.75" font-family="Helvetica,sans-Serif" font-size="10.00">libcdvd&#45;rpc.h</text>
</a>
</g>
</g>
<!-- Node1&#45;&gt;Node13 -->
<g id="edge16_Node000001_Node000013" class="edge">
<title>Node1&#45;&gt;Node13</title>
<g id="a_edge16_Node000001_Node000013"><a xlink:title=" ">
<path fill="none" stroke="#63b8ff" d="M251.45,-275.84C263.28,-267.96 280.71,-256.36 294.75,-247.02"/>
<polygon fill="#63b8ff" stroke="#63b8ff" points="296.59,-250 302.98,-241.54 292.71,-244.17 296.59,-250"/>
</a>
</g>
</g>
<!-- Node14 -->
<g id="Node000014" class="node">
<title>Node14</title>
<g id="a_Node000014"><a xlink:href="string_8h_source.html" target="_top" xlink:title=" ">
<polygon fill="white" stroke="#666666" points="261.62,-240.25 214.12,-240.25 214.12,-221 261.62,-221 261.62,-240.25"/>
<text text-anchor="middle" x="237.88" y="-226.75" font-family="Helvetica,sans-Serif" font-size="10.00">string.h</text>
</a>
</g>
</g>
<!-- Node1&#45;&gt;Node14 -->
<g id="edge19_Node000001_Node000014" class="edge">
<title>Node1&#45;&gt;Node14</title>
<g id="a_edge19_Node000001_Node000014"><a xlink:title=" ">
<path fill="none" stroke="#63b8ff" d="M237.88,-276.08C237.88,-269.57 237.88,-260.42 237.88,-252.12"/>
<polygon fill="#63b8ff" stroke="#63b8ff" points="241.38,-252.12 237.88,-242.12 234.38,-252.12 241.38,-252.12"/>
</a>
</g>
</g>
<!-- Node19 -->
<g id="Node000019" class="node">
<title>Node19</title>
<g id="a_Node000019"><a xlink:href="ee_2rpc_2cdvd_2src_2internal_8h.html" target="_top" xlink:title=" ">
<polygon fill="white" stroke="#666666" points="499.38,-240.25 444.38,-240.25 444.38,-221 499.38,-221 499.38,-240.25"/>
<text text-anchor="middle" x="471.88" y="-226.75" font-family="Helvetica,sans-Serif" font-size="10.00">internal.h</text>
</a>
</g>
</g>
<!-- Node1&#45;&gt;Node19 -->
<g id="edge27_Node000001_Node000019" class="edge">
<title>Node1&#45;&gt;Node19</title>
<g id="a_edge27_Node000001_Node000019"><a xlink:title=" ">
<path fill="none" stroke="#63b8ff" d="M278.26,-275.8C315.76,-267.36 373.45,-254.34 432.88,-240.7"/>
<polygon fill="#63b8ff" stroke="#63b8ff" points="433.56,-244.13 442.52,-238.48 431.99,-237.31 433.56,-244.13"/>
</a>
</g>
</g>
<!-- Node3 -->
<g id="Node000003" class="node">
<title>Node3</title>
<g id="a_Node000003"><a xlink:title=" ">
<polygon fill="#e0e0e0" stroke="#999999" points="79.12,-129.75 28.62,-129.75 28.62,-110.5 79.12,-110.5 79.12,-129.75"/>
<text text-anchor="middle" x="53.88" y="-116.25" font-family="Helvetica,sans-Serif" font-size="10.00">stdarg.h</text>
</a>
</g>
</g>
<!-- Node2&#45;&gt;Node3 -->
<g id="edge2_Node000002_Node000003" class="edge">
<title>Node2&#45;&gt;Node3</title>
<g id="a_edge2_Node000002_Node000003"><a xlink:title=" ">
<path fill="none" stroke="#63b8ff" d="M103.7,-165.34C95.11,-157.72 82.61,-146.62 72.27,-137.45"/>
<polygon fill="#63b8ff" stroke="#63b8ff" points="74.84,-135.05 65.03,-131.03 70.19,-140.29 74.84,-135.05"/>
</a>
</g>
</g>
<!-- Node4 -->
<g id="Node000004" class="node">
<title>Node4</title>
<g id="a_Node000004"><a xlink:href="irx_8h.html" target="_top" xlink:title=" ">
<polygon fill="white" stroke="#666666" points="130.5,-129.75 97.25,-129.75 97.25,-110.5 130.5,-110.5 130.5,-129.75"/>
<text text-anchor="middle" x="113.88" y="-116.25" font-family="Helvetica,sans-Serif" font-size="10.00">irx.h</text>
</a>
</g>
</g>
<!-- Node2&#45;&gt;Node4 -->
<g id="edge3_Node000002_Node000004" class="edge">
<title>Node2&#45;&gt;Node4</title>
<g id="a_edge3_Node000002_Node000004"><a xlink:title=" ">
<path fill="none" stroke="#63b8ff" d="M113.88,-165.58C113.88,-159.07 113.88,-149.92 113.88,-141.62"/>
<polygon fill="#63b8ff" stroke="#63b8ff" points="117.38,-141.62 113.88,-131.62 110.38,-141.62 117.38,-141.62"/>
</a>
</g>
</g>
<!-- Node5 -->
<g id="Node000005" class="node">
<title>Node5</title>
<g id="a_Node000005"><a xlink:href="iop_2kernel_2include_2types_8h_source.html" target="_top" xlink:title=" ">
<polygon fill="white" stroke="#666666" points="90.25,-74.5 43.5,-74.5 43.5,-55.25 90.25,-55.25 90.25,-74.5"/>
<text text-anchor="middle" x="66.88" y="-61" font-family="Helvetica,sans-Serif" font-size="10.00">types.h</text>
</a>
</g>
</g>
<!-- Node4&#45;&gt;Node5 -->
<g id="edge4_Node000004_Node000005" class="edge">
<title>Node4&#45;&gt;Node5</title>
<g id="a_edge4_Node000004_Node000005"><a xlink:title=" ">
<path fill="none" stroke="#63b8ff" d="M106.11,-110.33C99.69,-103.05 90.36,-92.48 82.41,-83.48"/>
<polygon fill="#63b8ff" stroke="#63b8ff" points="85.05,-81.18 75.81,-75.99 79.8,-85.81 85.05,-81.18"/>
</a>
</g>
</g>
<!-- Node6 -->
<g id="Node000006" class="node">
<title>Node6</title>
<g id="a_Node000006"><a xlink:title=" ">
<polygon fill="#e0e0e0" stroke="#999999" points="64.12,-19.25 13.62,-19.25 13.62,0 64.12,0 64.12,-19.25"/>
<text text-anchor="middle" x="38.88" y="-5.75" font-family="Helvetica,sans-Serif" font-size="10.00">stddef.h</text>
</a>
</g>
</g>
<!-- Node5&#45;&gt;Node6 -->
<g id="edge5_Node000005_Node000006" class="edge">
<title>Node5&#45;&gt;Node6</title>
<g id="a_edge5_Node000005_Node000006"><a xlink:title=" ">
<path fill="none" stroke="#63b8ff" d="M62.25,-55.08C58.63,-48.19 53.45,-38.34 48.88,-29.66"/>
<polygon fill="#63b8ff" stroke="#63b8ff" points="52.06,-28.17 44.3,-20.95 45.86,-31.43 52.06,-28.17"/>
</a>
</g>
</g>
<!-- Node7 -->
<g id="Node000007" class="node">
<title>Node7</title>
<g id="a_Node000007"><a xlink:href="tamtypes_8h.html" target="_top" xlink:title=" ">
<polygon fill="white" stroke="#666666" points="237.5,-19.25 174.25,-19.25 174.25,0 237.5,0 237.5,-19.25"/>
<text text-anchor="middle" x="205.88" y="-5.75" font-family="Helvetica,sans-Serif" font-size="10.00">tamtypes.h</text>
</a>
</g>
</g>
<!-- Node5&#45;&gt;Node7 -->
<g id="edge6_Node000005_Node000007" class="edge">
<title>Node5&#45;&gt;Node7</title>
<g id="a_edge6_Node000005_Node000007"><a xlink:title=" ">
<path fill="none" stroke="#63b8ff" d="M90.45,-54.84C112.72,-46.31 146.37,-33.42 171.6,-23.76"/>
<polygon fill="#63b8ff" stroke="#63b8ff" points="172.68,-27.09 180.77,-20.24 170.18,-20.55 172.68,-27.09"/>
</a>
</g>
</g>
<!-- Node8&#45;&gt;Node3 -->
<g id="edge9_Node000008_Node000003" class="edge">
<title>Node8&#45;&gt;Node3</title>
<g id="a_edge9_Node000008_Node000003"><a xlink:title=" ">
<path fill="none" stroke="#63b8ff" d="M29.66,-165.58C33.42,-158.69 38.78,-148.84 43.51,-140.16"/>
<polygon fill="#63b8ff" stroke="#63b8ff" points="46.55,-141.89 48.26,-131.44 40.4,-138.55 46.55,-141.89"/>
</a>
</g>
</g>
<!-- Node8&#45;&gt;Node6 -->
<g id="edge8_Node000008_Node000006" class="edge">
<title>Node8&#45;&gt;Node6</title>
<g id="a_edge8_Node000008_Node000006"><a xlink:title=" ">
<path fill="none" stroke="#63b8ff" d="M20.88,-165.37C17.18,-156.51 11.96,-142.49 9.88,-129.75 4.03,-93.99 18.78,-53.11 29.32,-29.74"/>
<polygon fill="#63b8ff" stroke="#63b8ff" points="32.41,-31.4 33.54,-20.86 26.08,-28.39 32.41,-31.4"/>
</a>
</g>
</g>
<!-- Node9 -->
<g id="Node000009" class="node">
<title>Node9</title>
<g id="a_Node000009"><a xlink:href="sifdma_8h.html" target="_top" xlink:title=" ">
<polygon fill="white" stroke="#666666" points="161.25,-74.5 108.5,-74.5 108.5,-55.25 161.25,-55.25 161.25,-74.5"/>
<text text-anchor="middle" x="134.88" y="-61" font-family="Helvetica,sans-Serif" font-size="10.00">sifdma.h</text>
</a>
</g>
</g>
<!-- Node8&#45;&gt;Node9 -->
<g id="edge10_Node000008_Node000009" class="edge">
<title>Node8&#45;&gt;Node9</title>
<g id="a_edge10_Node000008_Node000009"><a xlink:title=" ">
<path fill="none" stroke="#63b8ff" d="M21,-165.64C15.79,-152.44 8.44,-127.2 19.88,-110.5 28.99,-97.18 67.25,-84.07 97.16,-75.55"/>
<polygon fill="#63b8ff" stroke="#63b8ff" points="97.98,-78.95 106.68,-72.92 96.11,-72.21 97.98,-78.95"/>
</a>
</g>
</g>
<!-- Node9&#45;&gt;Node7 -->
<g id="edge11_Node000009_Node000007" class="edge">
<title>Node9&#45;&gt;Node7</title>
<g id="a_edge11_Node000009_Node000007"><a xlink:title=" ">
<path fill="none" stroke="#63b8ff" d="M146.92,-54.84C157.28,-47.07 172.48,-35.67 184.84,-26.4"/>
<polygon fill="#63b8ff" stroke="#63b8ff" points="186.9,-29.23 192.8,-20.43 182.7,-23.63 186.9,-29.23"/>
</a>
</g>
</g>
<!-- Node12 -->
<g id="Node000012" class="node">
<title>Node12</title>
<g id="a_Node000012"><a xlink:href="libcdvd-common_8h.html" target="_top" xlink:title=" ">
<polygon fill="white" stroke="#666666" points="447.25,-185 352.5,-185 352.5,-165.75 447.25,-165.75 447.25,-185"/>
<text text-anchor="middle" x="399.88" y="-171.5" font-family="Helvetica,sans-Serif" font-size="10.00">libcdvd&#45;common.h</text>
</a>
</g>
</g>
<!-- Node11&#45;&gt;Node12 -->
<g id="edge14_Node000011_Node000012" class="edge">
<title>Node11&#45;&gt;Node12</title>
<g id="a_edge14_Node000011_Node000012"><a xlink:title=" ">
<path fill="none" stroke="#63b8ff" d="M399.04,-220.83C399.16,-214.32 399.33,-205.17 399.49,-196.87"/>
<polygon fill="#63b8ff" stroke="#63b8ff" points="402.99,-196.94 399.68,-186.87 395.99,-196.8 402.99,-196.94"/>
</a>
</g>
</g>
<!-- Node12&#45;&gt;Node7 -->
<g id="edge15_Node000012_Node000007" class="edge">
<title>Node12&#45;&gt;Node7</title>
<g id="a_edge15_Node000012_Node000007"><a xlink:title=" ">
<path fill="none" stroke="#63b8ff" d="M397.88,-165.45C392.49,-143.45 375.61,-86.14 339.88,-55.25 314.44,-33.26 277.81,-22.03 249.28,-16.33"/>
<polygon fill="#63b8ff" stroke="#63b8ff" points="249.95,-12.9 239.48,-14.55 248.7,-19.78 249.95,-12.9"/>
</a>
</g>
</g>
<!-- Node13&#45;&gt;Node7 -->
<g id="edge17_Node000013_Node000007" class="edge">
<title>Node13&#45;&gt;Node7</title>
<g id="a_edge17_Node000013_Node000007"><a xlink:title=" ">
<path fill="none" stroke="#63b8ff" d="M319.04,-220.72C321.32,-200.15 324.71,-148.24 306.88,-110.5 289.65,-74.05 253.24,-43.43 229.17,-26.05"/>
<polygon fill="#63b8ff" stroke="#63b8ff" points="231.44,-23.37 221.24,-20.51 227.43,-29.11 231.44,-23.37"/>
</a>
</g>
</g>
<!-- Node13&#45;&gt;Node12 -->
<g id="edge18_Node000013_Node000012" class="edge">
<title>Node13&#45;&gt;Node12</title>
<g id="a_edge18_Node000013_Node000012"><a xlink:title=" ">
<path fill="none" stroke="#63b8ff" d="M331.79,-220.59C344.04,-212.64 362.13,-200.89 376.59,-191.5"/>
<polygon fill="#63b8ff" stroke="#63b8ff" points="378.15,-194.66 384.63,-186.28 374.33,-188.79 378.15,-194.66"/>
</a>
</g>
</g>
<!-- Node15 -->
<g id="Node000015" class="node">
<title>Node15</title>
<g id="a_Node000015"><a xlink:href="sysclib_8h.html" target="_top" xlink:title=" ">
<polygon fill="white" stroke="#666666" points="221.62,-185 168.12,-185 168.12,-165.75 221.62,-165.75 221.62,-185"/>
<text text-anchor="middle" x="194.88" y="-171.5" font-family="Helvetica,sans-Serif" font-size="10.00">sysclib.h</text>
</a>
</g>
</g>
<!-- Node14&#45;&gt;Node15 -->
<g id="edge20_Node000014_Node000015" class="edge">
<title>Node14&#45;&gt;Node15</title>
<g id="a_edge20_Node000014_Node000015"><a xlink:title=" ">
<path fill="none" stroke="#63b8ff" d="M230.77,-220.83C224.96,-213.63 216.54,-203.21 209.32,-194.26"/>
<polygon fill="#63b8ff" stroke="#63b8ff" points="212.09,-192.12 203.08,-186.54 206.64,-196.52 212.09,-192.12"/>
</a>
</g>
</g>
<!-- Node15&#45;&gt;Node3 -->
<g id="edge23_Node000015_Node000003" class="edge">
<title>Node15&#45;&gt;Node3</title>
<g id="a_edge23_Node000015_Node000003"><a xlink:title=" ">
<path fill="none" stroke="#63b8ff" d="M170.96,-165.34C148.37,-156.81 114.24,-143.92 88.65,-134.26"/>
<polygon fill="#63b8ff" stroke="#63b8ff" points="89.92,-131 79.33,-130.74 87.45,-137.54 89.92,-131"/>
</a>
</g>
</g>
<!-- Node15&#45;&gt;Node4 -->
<g id="edge22_Node000015_Node000004" class="edge">
<title>Node15&#45;&gt;Node4</title>
<g id="a_edge22_Node000015_Node000004"><a xlink:title=" ">
<path fill="none" stroke="#63b8ff" d="M181.13,-165.34C169.15,-157.46 151.5,-145.86 137.29,-136.52"/>
<polygon fill="#63b8ff" stroke="#63b8ff" points="139.23,-133.6 128.95,-131.03 135.38,-139.45 139.23,-133.6"/>
</a>
</g>
</g>
<!-- Node16 -->
<g id="Node000016" class="node">
<title>Node16</title>
<g id="a_Node000016"><a xlink:title=" ">
<polygon fill="#e0e0e0" stroke="#999999" points="233.25,-129.75 186.5,-129.75 186.5,-110.5 233.25,-110.5 233.25,-129.75"/>
<text text-anchor="middle" x="209.88" y="-116.25" font-family="Helvetica,sans-Serif" font-size="10.00">types.h</text>
</a>
</g>
</g>
<!-- Node15&#45;&gt;Node16 -->
<g id="edge21_Node000015_Node000016" class="edge">
<title>Node15&#45;&gt;Node16</title>
<g id="a_edge21_Node000015_Node000016"><a xlink:title=" ">
<path fill="none" stroke="#63b8ff" d="M197.35,-165.58C199.23,-158.92 201.88,-149.49 204.27,-141.03"/>
<polygon fill="#63b8ff" stroke="#63b8ff" points="207.59,-142.14 206.93,-131.57 200.85,-140.24 207.59,-142.14"/>
</a>
</g>
</g>
<!-- Node17 -->
<g id="Node000017" class="node">
<title>Node17</title>
<g id="a_Node000017"><a xlink:href="setjmp_8h.html" target="_top" xlink:title=" ">
<polygon fill="white" stroke="#666666" points="232.25,-74.5 179.5,-74.5 179.5,-55.25 232.25,-55.25 232.25,-74.5"/>
<text text-anchor="middle" x="205.88" y="-61" font-family="Helvetica,sans-Serif" font-size="10.00">setjmp.h</text>
</a>
</g>
</g>
<!-- Node15&#45;&gt;Node17 -->
<g id="edge24_Node000015_Node000017" class="edge">
<title>Node15&#45;&gt;Node17</title>
<g id="a_edge24_Node000015_Node000017"><a xlink:title=" ">
<path fill="none" stroke="#63b8ff" d="M189.53,-165.67C182.65,-153.34 172.23,-130.13 177.88,-110.5 180.62,-100.97 186.06,-91.5 191.43,-83.76"/>
<polygon fill="#63b8ff" stroke="#63b8ff" points="194.1,-86.02 197.29,-75.92 188.5,-81.83 194.1,-86.02"/>
</a>
</g>
</g>
<!-- Node18 -->
<g id="Node000018" class="node">
<title>Node18</title>
<g id="a_Node000018"><a xlink:href="ctype_8h.html" target="_top" xlink:title=" ">
<polygon fill="white" stroke="#666666" points="298.25,-129.75 251.5,-129.75 251.5,-110.5 298.25,-110.5 298.25,-129.75"/>
<text text-anchor="middle" x="274.88" y="-116.25" font-family="Helvetica,sans-Serif" font-size="10.00">ctype.h</text>
</a>
</g>
</g>
<!-- Node15&#45;&gt;Node18 -->
<g id="edge26_Node000015_Node000018" class="edge">
<title>Node15&#45;&gt;Node18</title>
<g id="a_edge26_Node000015_Node000018"><a xlink:title=" ">
<path fill="none" stroke="#63b8ff" d="M208.45,-165.34C220.28,-157.46 237.71,-145.86 251.75,-136.52"/>
<polygon fill="#63b8ff" stroke="#63b8ff" points="253.59,-139.5 259.98,-131.04 249.71,-133.67 253.59,-139.5"/>
</a>
</g>
</g>
<!-- Node17&#45;&gt;Node7 -->
<g id="edge25_Node000017_Node000007" class="edge">
<title>Node17&#45;&gt;Node7</title>
<g id="a_edge25_Node000017_Node000007"><a xlink:title=" ">
<path fill="none" stroke="#63b8ff" d="M205.88,-55.08C205.88,-48.57 205.88,-39.42 205.88,-31.12"/>
<polygon fill="#63b8ff" stroke="#63b8ff" points="209.38,-31.12 205.88,-21.12 202.38,-31.12 209.38,-31.12"/>
</a>
</g>
</g>
</g>
</svg>
