<?xml version="1.0" encoding="UTF-8" standalone="no"?>
<!DOCTYPE svg PUBLIC "-//W3C//DTD SVG 1.1//EN"
 "http://www.w3.org/Graphics/SVG/1.1/DTD/svg11.dtd">
<!-- Generated by graphviz version 2.43.0 (0)
 -->
<!-- Title: ee/rpc/cdvd/src/ncmd.c Pages: 1 -->
<!--zoomable 308 -->
<svg id="main" version="1.1" xmlns="http://www.w3.org/2000/svg" xmlns:xlink="http://www.w3.org/1999/xlink" xml:space="preserve" onload="init(evt)">
<style type="text/css"><![CDATA[
.edge:hover path { stroke: red; }
.edge:hover polygon { stroke: red; fill: red; }
]]></style>
<script type="text/javascript"><![CDATA[
var edges = document.getElementsByTagName('g');
if (edges && edges.length) {
  for (var i=0;i<edges.length;i++) {
    if (edges[i].id.substr(0,4)=='edge') {
      edges[i].setAttribute('class','edge');
    }
  }
}
]]></script>
        <defs>
                <circle id="rim" cx="0" cy="0" r="7"/>
                <circle id="rim2" cx="0" cy="0" r="3.5"/>
                <g id="zoomPlus">
                        <use xlink:href="#rim" fill="#404040">
                                <set attributeName="fill" to="#808080" begin="zoomplus.mouseover" end="zoomplus.mouseout"/>
                        </use>
                        <path d="M-4,0h8M0,-4v8" fill="none" stroke="white" stroke-width="1.5" pointer-events="none"/>
                </g>
                <g id="zoomMin">
                        <use xlink:href="#rim" fill="#404040">
                                <set attributeName="fill" to="#808080" begin="zoomminus.mouseover" end="zoomminus.mouseout"/>
                        </use>
                        <path d="M-4,0h8" fill="none" stroke="white" stroke-width="1.5" pointer-events="none"/>
                </g>
                <g id="dirArrow">
                        <path fill="none" stroke="white" stroke-width="1.5" d="M0,-3.0v7 M-2.5,-0.5L0,-3.0L2.5,-0.5"/>
                </g>
               <g id="resetDef">
                       <use xlink:href="#rim2" fill="#404040">
                               <set attributeName="fill" to="#808080" begin="reset.mouseover" end="reset.mouseout"/>
                       </use>
               </g>
        </defs>

<script type="text/javascript">
var viewWidth = 651;
var viewHeight = 308;
var sectionId = 'dynsection-0';
</script>
<script xlink:href="svgpan.js"/>
<svg id="graph" class="graph">
<g id="viewport">
<title>ee/rpc/cdvd/src/ncmd.c</title>
<polygon fill="white" stroke="transparent" points="-4,4 -4,-304 647,-304 647,4 -4,4"/>
<!-- Node1 -->
<g id="node1" class="node">
<title>Node1</title>
<g id="a_node1"><a xlink:title=" ">
<polygon fill="#bfbfbf" stroke="black" points="304.5,-280.5 304.5,-299.5 432.5,-299.5 432.5,-280.5 304.5,-280.5"/>
<text text-anchor="middle" x="368.5" y="-287.5" font-family="Helvetica,sans-Serif" font-size="10.00">ee/rpc/cdvd/src/ncmd.c</text>
</a>
</g>
</g>
<!-- Node2 -->
<g id="node2" class="node">
<title>Node2</title>
<g id="a_node2"><a xlink:href="stdio_8h.html" target="_top" xlink:title=" ">
<polygon fill="white" stroke="black" points="342.5,-168.5 342.5,-187.5 392.5,-187.5 392.5,-168.5 342.5,-168.5"/>
<text text-anchor="middle" x="367.5" y="-175.5" font-family="Helvetica,sans-Serif" font-size="10.00">stdio.h</text>
</a>
</g>
</g>
<!-- Node1&#45;&gt;Node2 -->
<g id="edge1" class="edge">
<title>Node1&#45;&gt;Node2</title>
<path fill="none" stroke="midnightblue" d="M368.42,-280.37C368.26,-262.62 367.89,-221.67 367.67,-197.6"/>
<polygon fill="midnightblue" stroke="midnightblue" points="371.17,-197.56 367.58,-187.59 364.17,-197.62 371.17,-197.56"/>
</g>
<!-- Node8 -->
<g id="node8" class="node">
<title>Node8</title>
<g id="a_node8"><a xlink:href="kernel_8h.html" target="_top" xlink:title=" ">
<polygon fill="white" stroke="black" points="456.5,-168.5 456.5,-187.5 512.5,-187.5 512.5,-168.5 456.5,-168.5"/>
<text text-anchor="middle" x="484.5" y="-175.5" font-family="Helvetica,sans-Serif" font-size="10.00">kernel.h</text>
</a>
</g>
</g>
<!-- Node1&#45;&gt;Node8 -->
<g id="edge7" class="edge">
<title>Node1&#45;&gt;Node8</title>
<path fill="none" stroke="midnightblue" d="M372.12,-280.07C377.94,-266.59 390.47,-240.84 407.5,-224 421.09,-210.57 439.46,-199.63 454.86,-191.9"/>
<polygon fill="midnightblue" stroke="midnightblue" points="456.49,-195 463.99,-187.51 453.46,-188.69 456.49,-195"/>
</g>
<!-- Node11 -->
<g id="node11" class="node">
<title>Node11</title>
<g id="a_node11"><a xlink:title=" ">
<polygon fill="white" stroke="#bfbfbf" points="416,-224.5 416,-243.5 469,-243.5 469,-224.5 416,-224.5"/>
<text text-anchor="middle" x="442.5" y="-231.5" font-family="Helvetica,sans-Serif" font-size="10.00">sifrpc.h</text>
</a>
</g>
</g>
<!-- Node1&#45;&gt;Node11 -->
<g id="edge14" class="edge">
<title>Node1&#45;&gt;Node11</title>
<path fill="none" stroke="midnightblue" d="M380.39,-280.32C391.65,-272.11 408.79,-259.6 422.21,-249.81"/>
<polygon fill="midnightblue" stroke="midnightblue" points="424.38,-252.56 430.39,-243.83 420.25,-246.9 424.38,-252.56"/>
</g>
<!-- Node12 -->
<g id="node12" class="node">
<title>Node12</title>
<g id="a_node12"><a xlink:href="libcdvd_8h.html" target="_top" xlink:title=" ">
<polygon fill="white" stroke="black" points="23,-224.5 23,-243.5 84,-243.5 84,-224.5 23,-224.5"/>
<text text-anchor="middle" x="53.5" y="-231.5" font-family="Helvetica,sans-Serif" font-size="10.00">libcdvd.h</text>
</a>
</g>
</g>
<!-- Node1&#45;&gt;Node12 -->
<g id="edge15" class="edge">
<title>Node1&#45;&gt;Node12</title>
<path fill="none" stroke="midnightblue" d="M310.11,-280.47C256.5,-272.41 174.64,-259.51 93.88,-243.97"/>
<polygon fill="midnightblue" stroke="midnightblue" points="94.52,-240.53 84.04,-242.07 93.19,-247.4 94.52,-240.53"/>
</g>
<!-- Node14 -->
<g id="node14" class="node">
<title>Node14</title>
<g id="a_node14"><a xlink:href="libcdvd-rpc_8h.html" target="_top" xlink:title=" ">
<polygon fill="white" stroke="black" points="102.5,-224.5 102.5,-243.5 182.5,-243.5 182.5,-224.5 102.5,-224.5"/>
<text text-anchor="middle" x="142.5" y="-231.5" font-family="Helvetica,sans-Serif" font-size="10.00">libcdvd&#45;rpc.h</text>
</a>
</g>
</g>
<!-- Node1&#45;&gt;Node14 -->
<g id="edge18" class="edge">
<title>Node1&#45;&gt;Node14</title>
<path fill="none" stroke="midnightblue" d="M332.69,-280.44C293.51,-271.08 230.62,-256.06 187.98,-245.87"/>
<polygon fill="midnightblue" stroke="midnightblue" points="188.68,-242.44 178.14,-243.52 187.06,-249.24 188.68,-242.44"/>
</g>
<!-- Node15 -->
<g id="node15" class="node">
<title>Node15</title>
<g id="a_node15"><a xlink:href="string_8h_source.html" target="_top" xlink:title=" ">
<polygon fill="white" stroke="black" points="268,-224.5 268,-243.5 321,-243.5 321,-224.5 268,-224.5"/>
<text text-anchor="middle" x="294.5" y="-231.5" font-family="Helvetica,sans-Serif" font-size="10.00">string.h</text>
</a>
</g>
</g>
<!-- Node1&#45;&gt;Node15 -->
<g id="edge21" class="edge">
<title>Node1&#45;&gt;Node15</title>
<path fill="none" stroke="midnightblue" d="M356.61,-280.32C345.35,-272.11 328.21,-259.6 314.79,-249.81"/>
<polygon fill="midnightblue" stroke="midnightblue" points="316.75,-246.9 306.61,-243.83 312.62,-252.56 316.75,-246.9"/>
</g>
<!-- Node20 -->
<g id="node20" class="node">
<title>Node20</title>
<g id="a_node20"><a xlink:href="iopcontrol_8h.html" target="_top" xlink:title=" ">
<polygon fill="white" stroke="black" points="487.5,-224.5 487.5,-243.5 561.5,-243.5 561.5,-224.5 487.5,-224.5"/>
<text text-anchor="middle" x="524.5" y="-231.5" font-family="Helvetica,sans-Serif" font-size="10.00">iopcontrol.h</text>
</a>
</g>
</g>
<!-- Node1&#45;&gt;Node20 -->
<g id="edge29" class="edge">
<title>Node1&#45;&gt;Node20</title>
<path fill="none" stroke="midnightblue" d="M393.22,-280.44C419.35,-271.4 460.76,-257.06 490.08,-246.92"/>
<polygon fill="midnightblue" stroke="midnightblue" points="491.59,-250.1 499.9,-243.52 489.3,-243.48 491.59,-250.1"/>
</g>
<!-- Node21 -->
<g id="node21" class="node">
<title>Node21</title>
<g id="a_node21"><a xlink:href="ee_2rpc_2cdvd_2src_2internal_8h.html" target="_top" xlink:title=" ">
<polygon fill="white" stroke="black" points="580,-224.5 580,-243.5 643,-243.5 643,-224.5 580,-224.5"/>
<text text-anchor="middle" x="611.5" y="-231.5" font-family="Helvetica,sans-Serif" font-size="10.00">internal.h</text>
</a>
</g>
</g>
<!-- Node1&#45;&gt;Node21 -->
<g id="edge30" class="edge">
<title>Node1&#45;&gt;Node21</title>
<path fill="none" stroke="midnightblue" d="M407,-280.44C451.42,-270.57 524.18,-254.4 569.88,-244.25"/>
<polygon fill="midnightblue" stroke="midnightblue" points="570.76,-247.64 579.76,-242.05 569.24,-240.81 570.76,-247.64"/>
</g>
<!-- Node3 -->
<g id="node3" class="node">
<title>Node3</title>
<g id="a_node3"><a xlink:title=" ">
<polygon fill="white" stroke="#bfbfbf" points="400.5,-112.5 400.5,-131.5 456.5,-131.5 456.5,-112.5 400.5,-112.5"/>
<text text-anchor="middle" x="428.5" y="-119.5" font-family="Helvetica,sans-Serif" font-size="10.00">stdarg.h</text>
</a>
</g>
</g>
<!-- Node2&#45;&gt;Node3 -->
<g id="edge2" class="edge">
<title>Node2&#45;&gt;Node3</title>
<path fill="none" stroke="midnightblue" d="M377.3,-168.32C386.32,-160.34 399.91,-148.31 410.82,-138.65"/>
<polygon fill="midnightblue" stroke="midnightblue" points="413.35,-141.08 418.52,-131.83 408.71,-135.84 413.35,-141.08"/>
</g>
<!-- Node4 -->
<g id="node4" class="node">
<title>Node4</title>
<g id="a_node4"><a xlink:href="irx_8h.html" target="_top" xlink:title=" ">
<polygon fill="white" stroke="black" points="344.5,-112.5 344.5,-131.5 382.5,-131.5 382.5,-112.5 344.5,-112.5"/>
<text text-anchor="middle" x="363.5" y="-119.5" font-family="Helvetica,sans-Serif" font-size="10.00">irx.h</text>
</a>
</g>
</g>
<!-- Node2&#45;&gt;Node4 -->
<g id="edge3" class="edge">
<title>Node2&#45;&gt;Node4</title>
<path fill="none" stroke="midnightblue" d="M366.84,-168.08C366.32,-161.01 365.56,-150.86 364.91,-141.99"/>
<polygon fill="midnightblue" stroke="midnightblue" points="368.38,-141.47 364.15,-131.75 361.4,-141.98 368.38,-141.47"/>
</g>
<!-- Node5 -->
<g id="node5" class="node">
<title>Node5</title>
<g id="a_node5"><a xlink:href="iop_2kernel_2include_2types_8h_source.html" target="_top" xlink:title=" ">
<polygon fill="white" stroke="black" points="360,-56.5 360,-75.5 413,-75.5 413,-56.5 360,-56.5"/>
<text text-anchor="middle" x="386.5" y="-63.5" font-family="Helvetica,sans-Serif" font-size="10.00">types.h</text>
</a>
</g>
</g>
<!-- Node4&#45;&gt;Node5 -->
<g id="edge4" class="edge">
<title>Node4&#45;&gt;Node5</title>
<path fill="none" stroke="midnightblue" d="M367.3,-112.08C370.41,-104.77 374.92,-94.18 378.79,-85.1"/>
<polygon fill="midnightblue" stroke="midnightblue" points="382.07,-86.32 382.77,-75.75 375.63,-83.58 382.07,-86.32"/>
</g>
<!-- Node6 -->
<g id="node6" class="node">
<title>Node6</title>
<g id="a_node6"><a xlink:title=" ">
<polygon fill="white" stroke="#bfbfbf" points="445.5,-0.5 445.5,-19.5 501.5,-19.5 501.5,-0.5 445.5,-0.5"/>
<text text-anchor="middle" x="473.5" y="-7.5" font-family="Helvetica,sans-Serif" font-size="10.00">stddef.h</text>
</a>
</g>
</g>
<!-- Node5&#45;&gt;Node6 -->
<g id="edge5" class="edge">
<title>Node5&#45;&gt;Node6</title>
<path fill="none" stroke="midnightblue" d="M400.48,-56.32C414.05,-47.9 434.88,-34.97 450.82,-25.07"/>
<polygon fill="midnightblue" stroke="midnightblue" points="452.91,-27.9 459.56,-19.65 449.21,-21.95 452.91,-27.9"/>
</g>
<!-- Node7 -->
<g id="node7" class="node">
<title>Node7</title>
<g id="a_node7"><a xlink:href="tamtypes_8h.html" target="_top" xlink:title=" ">
<polygon fill="white" stroke="black" points="206.5,-0.5 206.5,-19.5 278.5,-19.5 278.5,-0.5 206.5,-0.5"/>
<text text-anchor="middle" x="242.5" y="-7.5" font-family="Helvetica,sans-Serif" font-size="10.00">tamtypes.h</text>
</a>
</g>
</g>
<!-- Node5&#45;&gt;Node7 -->
<g id="edge6" class="edge">
<title>Node5&#45;&gt;Node7</title>
<path fill="none" stroke="midnightblue" d="M363.68,-56.44C339.67,-47.44 301.67,-33.19 274.63,-23.05"/>
<polygon fill="midnightblue" stroke="midnightblue" points="275.8,-19.75 265.21,-19.52 273.34,-26.3 275.8,-19.75"/>
</g>
<!-- Node8&#45;&gt;Node3 -->
<g id="edge9" class="edge">
<title>Node8&#45;&gt;Node3</title>
<path fill="none" stroke="midnightblue" d="M475.5,-168.32C467.31,-160.42 454.99,-148.55 445.03,-138.94"/>
<polygon fill="midnightblue" stroke="midnightblue" points="447.29,-136.26 437.66,-131.83 442.43,-141.29 447.29,-136.26"/>
</g>
<!-- Node8&#45;&gt;Node6 -->
<g id="edge8" class="edge">
<title>Node8&#45;&gt;Node6</title>
<path fill="none" stroke="midnightblue" d="M491.17,-168.25C505.74,-148 537.8,-96.51 520.5,-56 515.35,-43.95 505.22,-33.58 495.67,-25.84"/>
<polygon fill="midnightblue" stroke="midnightblue" points="497.67,-22.96 487.58,-19.74 493.46,-28.55 497.67,-22.96"/>
</g>
<!-- Node9 -->
<g id="node9" class="node">
<title>Node9</title>
<g id="a_node9"><a xlink:href="sifdma_8h.html" target="_top" xlink:title=" ">
<polygon fill="white" stroke="black" points="452,-56.5 452,-75.5 511,-75.5 511,-56.5 452,-56.5"/>
<text text-anchor="middle" x="481.5" y="-63.5" font-family="Helvetica,sans-Serif" font-size="10.00">sifdma.h</text>
</a>
</g>
</g>
<!-- Node8&#45;&gt;Node9 -->
<g id="edge10" class="edge">
<title>Node8&#45;&gt;Node9</title>
<path fill="none" stroke="midnightblue" d="M488.63,-168.2C493.98,-155.74 502.19,-132.21 498.5,-112 496.81,-102.76 493.33,-92.95 489.95,-84.85"/>
<polygon fill="midnightblue" stroke="midnightblue" points="493.13,-83.4 485.87,-75.69 486.74,-86.25 493.13,-83.4"/>
</g>
<!-- Node10 -->
<g id="node10" class="node">
<title>Node10</title>
<g id="a_node10"><a xlink:href="mipscopaccess_8h.html" target="_top" xlink:title=" ">
<polygon fill="white" stroke="black" points="241.5,-56.5 241.5,-75.5 341.5,-75.5 341.5,-56.5 241.5,-56.5"/>
<text text-anchor="middle" x="291.5" y="-63.5" font-family="Helvetica,sans-Serif" font-size="10.00">mipscopaccess.h</text>
</a>
</g>
</g>
<!-- Node8&#45;&gt;Node10 -->
<g id="edge12" class="edge">
<title>Node8&#45;&gt;Node10</title>
<path fill="none" stroke="midnightblue" d="M484.54,-168.49C484.12,-154.64 481.2,-127.22 465.5,-112 449.18,-96.19 395.11,-83.8 351.52,-76.06"/>
<polygon fill="midnightblue" stroke="midnightblue" points="352,-72.59 341.55,-74.34 350.81,-79.49 352,-72.59"/>
</g>
<!-- Node9&#45;&gt;Node7 -->
<g id="edge11" class="edge">
<title>Node9&#45;&gt;Node7</title>
<path fill="none" stroke="midnightblue" d="M451.71,-58.27C410.71,-49.01 336.49,-32.24 288.37,-21.36"/>
<polygon fill="midnightblue" stroke="midnightblue" points="289.05,-17.93 278.52,-19.14 287.51,-24.76 289.05,-17.93"/>
</g>
<!-- Node10&#45;&gt;Node7 -->
<g id="edge13" class="edge">
<title>Node10&#45;&gt;Node7</title>
<path fill="none" stroke="midnightblue" d="M283.41,-56.08C276.34,-48.3 265.91,-36.8 257.35,-27.37"/>
<polygon fill="midnightblue" stroke="midnightblue" points="259.75,-24.8 250.44,-19.75 254.57,-29.51 259.75,-24.8"/>
</g>
<!-- Node13 -->
<g id="node13" class="node">
<title>Node13</title>
<g id="a_node13"><a xlink:href="libcdvd-common_8h.html" target="_top" xlink:title=" ">
<polygon fill="white" stroke="black" points="0,-168.5 0,-187.5 107,-187.5 107,-168.5 0,-168.5"/>
<text text-anchor="middle" x="53.5" y="-175.5" font-family="Helvetica,sans-Serif" font-size="10.00">libcdvd&#45;common.h</text>
</a>
</g>
</g>
<!-- Node12&#45;&gt;Node13 -->
<g id="edge16" class="edge">
<title>Node12&#45;&gt;Node13</title>
<path fill="none" stroke="midnightblue" d="M53.5,-224.08C53.5,-217.01 53.5,-206.86 53.5,-197.99"/>
<polygon fill="midnightblue" stroke="midnightblue" points="57,-197.75 53.5,-187.75 50,-197.75 57,-197.75"/>
</g>
<!-- Node13&#45;&gt;Node7 -->
<g id="edge17" class="edge">
<title>Node13&#45;&gt;Node7</title>
<path fill="none" stroke="midnightblue" d="M56.05,-168.33C62.94,-146.38 83.96,-88.1 121.5,-56 142.76,-37.82 172.05,-26.67 196.49,-20.02"/>
<polygon fill="midnightblue" stroke="midnightblue" points="197.45,-23.38 206.28,-17.52 195.72,-16.6 197.45,-23.38"/>
</g>
<!-- Node14&#45;&gt;Node7 -->
<g id="edge19" class="edge">
<title>Node14&#45;&gt;Node7</title>
<path fill="none" stroke="midnightblue" d="M140.35,-224.33C134.06,-196.93 118.39,-110.77 154.5,-56 164.69,-40.55 181.9,-30.13 198.42,-23.25"/>
<polygon fill="midnightblue" stroke="midnightblue" points="199.92,-26.43 208.01,-19.59 197.42,-19.89 199.92,-26.43"/>
</g>
<!-- Node14&#45;&gt;Node13 -->
<g id="edge20" class="edge">
<title>Node14&#45;&gt;Node13</title>
<path fill="none" stroke="midnightblue" d="M128.2,-224.32C114.32,-215.9 93.01,-202.97 76.7,-193.07"/>
<polygon fill="midnightblue" stroke="midnightblue" points="78.13,-189.85 67.76,-187.65 74.5,-195.83 78.13,-189.85"/>
</g>
<!-- Node16 -->
<g id="node16" class="node">
<title>Node16</title>
<g id="a_node16"><a xlink:href="sysclib_8h.html" target="_top" xlink:title=" ">
<polygon fill="white" stroke="black" points="265,-168.5 265,-187.5 324,-187.5 324,-168.5 265,-168.5"/>
<text text-anchor="middle" x="294.5" y="-175.5" font-family="Helvetica,sans-Serif" font-size="10.00">sysclib.h</text>
</a>
</g>
</g>
<!-- Node15&#45;&gt;Node16 -->
<g id="edge22" class="edge">
<title>Node15&#45;&gt;Node16</title>
<path fill="none" stroke="midnightblue" d="M294.5,-224.08C294.5,-217.01 294.5,-206.86 294.5,-197.99"/>
<polygon fill="midnightblue" stroke="midnightblue" points="298,-197.75 294.5,-187.75 291,-197.75 298,-197.75"/>
</g>
<!-- Node16&#45;&gt;Node3 -->
<g id="edge25" class="edge">
<title>Node16&#45;&gt;Node3</title>
<path fill="none" stroke="midnightblue" d="M315.73,-168.44C337.88,-159.52 372.82,-145.44 397.94,-135.32"/>
<polygon fill="midnightblue" stroke="midnightblue" points="399.4,-138.5 407.37,-131.52 396.78,-132.01 399.4,-138.5"/>
</g>
<!-- Node16&#45;&gt;Node4 -->
<g id="edge24" class="edge">
<title>Node16&#45;&gt;Node4</title>
<path fill="none" stroke="midnightblue" d="M305.59,-168.32C315.99,-160.18 331.76,-147.84 344.22,-138.09"/>
<polygon fill="midnightblue" stroke="midnightblue" points="346.49,-140.75 352.21,-131.83 342.18,-135.24 346.49,-140.75"/>
</g>
<!-- Node17 -->
<g id="node17" class="node">
<title>Node17</title>
<g id="a_node17"><a xlink:title=" ">
<polygon fill="white" stroke="#bfbfbf" points="273,-112.5 273,-131.5 326,-131.5 326,-112.5 273,-112.5"/>
<text text-anchor="middle" x="299.5" y="-119.5" font-family="Helvetica,sans-Serif" font-size="10.00">types.h</text>
</a>
</g>
</g>
<!-- Node16&#45;&gt;Node17 -->
<g id="edge23" class="edge">
<title>Node16&#45;&gt;Node17</title>
<path fill="none" stroke="midnightblue" d="M295.33,-168.08C295.98,-161.01 296.92,-150.86 297.74,-141.99"/>
<polygon fill="midnightblue" stroke="midnightblue" points="301.25,-142.03 298.69,-131.75 294.28,-141.39 301.25,-142.03"/>
</g>
<!-- Node18 -->
<g id="node18" class="node">
<title>Node18</title>
<g id="a_node18"><a xlink:href="setjmp_8h.html" target="_top" xlink:title=" ">
<polygon fill="white" stroke="black" points="164,-56.5 164,-75.5 223,-75.5 223,-56.5 164,-56.5"/>
<text text-anchor="middle" x="193.5" y="-63.5" font-family="Helvetica,sans-Serif" font-size="10.00">setjmp.h</text>
</a>
</g>
</g>
<!-- Node16&#45;&gt;Node18 -->
<g id="edge26" class="edge">
<title>Node16&#45;&gt;Node18</title>
<path fill="none" stroke="midnightblue" d="M264.67,-172.75C240.65,-167.59 208.35,-156.32 192.5,-132 183.65,-118.42 185.04,-99.62 187.97,-85.73"/>
<polygon fill="midnightblue" stroke="midnightblue" points="191.42,-86.39 190.49,-75.84 184.63,-84.67 191.42,-86.39"/>
</g>
<!-- Node19 -->
<g id="node19" class="node">
<title>Node19</title>
<g id="a_node19"><a xlink:href="ctype_8h.html" target="_top" xlink:title=" ">
<polygon fill="white" stroke="black" points="202,-112.5 202,-131.5 255,-131.5 255,-112.5 202,-112.5"/>
<text text-anchor="middle" x="228.5" y="-119.5" font-family="Helvetica,sans-Serif" font-size="10.00">ctype.h</text>
</a>
</g>
</g>
<!-- Node16&#45;&gt;Node19 -->
<g id="edge28" class="edge">
<title>Node16&#45;&gt;Node19</title>
<path fill="none" stroke="midnightblue" d="M283.9,-168.32C274.04,-160.26 259.15,-148.08 247.28,-138.37"/>
<polygon fill="midnightblue" stroke="midnightblue" points="249.25,-135.46 239.3,-131.83 244.82,-140.88 249.25,-135.46"/>
</g>
<!-- Node18&#45;&gt;Node7 -->
<g id="edge27" class="edge">
<title>Node18&#45;&gt;Node7</title>
<path fill="none" stroke="midnightblue" d="M201.59,-56.08C208.66,-48.3 219.09,-36.8 227.65,-27.37"/>
<polygon fill="midnightblue" stroke="midnightblue" points="230.43,-29.51 234.56,-19.75 225.25,-24.8 230.43,-29.51"/>
</g>
</g>
</svg>
        <g id="navigator" transform="translate(0 0)" fill="#404254">
                <rect fill="#f2f5e9" fill-opacity="0.5" stroke="#606060" stroke-width=".5" x="0" y="0" width="60" height="60"/>
                <use id="zoomplus" xlink:href="#zoomPlus" x="17" y="9" onmousedown="handleZoom(evt,'in')"/>
                <use id="zoomminus" xlink:href="#zoomMin" x="42" y="9" onmousedown="handleZoom(evt,'out')"/>
                <use id="reset" xlink:href="#resetDef" x="30" y="36" onmousedown="handleReset()"/>
                <g id="arrowUp" xlink:href="#dirArrow" transform="translate(30 24)" onmousedown="handlePan(0,-1)">
                  <use xlink:href="#rim" fill="#404040">
                        <set attributeName="fill" to="#808080" begin="arrowUp.mouseover" end="arrowUp.mouseout"/>
                  </use>
                  <path fill="none" stroke="white" stroke-width="1.5" d="M0,-3.0v7 M-2.5,-0.5L0,-3.0L2.5,-0.5"/>
                </g>
                <g id="arrowRight" xlink:href="#dirArrow" transform="rotate(90) translate(36 -43)" onmousedown="handlePan(1,0)">
                  <use xlink:href="#rim" fill="#404040">
                        <set attributeName="fill" to="#808080" begin="arrowRight.mouseover" end="arrowRight.mouseout"/>
                  </use>
                  <path fill="none" stroke="white" stroke-width="1.5" d="M0,-3.0v7 M-2.5,-0.5L0,-3.0L2.5,-0.5"/>
                </g>
                <g id="arrowDown" xlink:href="#dirArrow" transform="rotate(180) translate(-30 -48)" onmousedown="handlePan(0,1)">
                  <use xlink:href="#rim" fill="#404040">
                        <set attributeName="fill" to="#808080" begin="arrowDown.mouseover" end="arrowDown.mouseout"/>
                  </use>
                  <path fill="none" stroke="white" stroke-width="1.5" d="M0,-3.0v7 M-2.5,-0.5L0,-3.0L2.5,-0.5"/>
                </g>
                <g id="arrowLeft" xlink:href="#dirArrow" transform="rotate(270) translate(-36 17)" onmousedown="handlePan(-1,0)">
                  <use xlink:href="#rim" fill="#404040">
                        <set attributeName="fill" to="#808080" begin="arrowLeft.mouseover" end="arrowLeft.mouseout"/>
                  </use>
                  <path fill="none" stroke="white" stroke-width="1.5" d="M0,-3.0v7 M-2.5,-0.5L0,-3.0L2.5,-0.5"/>
                </g>
        </g>
        <svg viewBox="0 0 15 15" width="100%" height="30px" preserveAspectRatio="xMaxYMin meet">
         <g id="arrow_out" transform="scale(0.3 0.3)">
          <a xlink:href="ncmd_8c__incl_org.svg" target="_base">
           <rect id="button" ry="5" rx="5" y="6" x="6" height="38" width="38"
                fill="#f2f5e9" fill-opacity="0.5" stroke="#606060" stroke-width="1.0"/>
           <path id="arrow"
             d="M 11.500037,31.436501 C 11.940474,20.09759 22.043105,11.32322 32.158766,21.979434 L 37.068811,17.246167 C 37.068811,17.246167 37.088388,32 37.088388,32 L 22.160133,31.978069 C 22.160133,31.978069 26.997745,27.140456 26.997745,27.140456 C 18.528582,18.264221 13.291696,25.230495 11.500037,31.436501 z"
             style="fill:#404040;"/>
          </a>
         </g>
        </svg>
</svg>
