<?xml version="1.0" encoding="UTF-8" standalone="no"?>
<!DOCTYPE svg PUBLIC "-//W3C//DTD SVG 1.1//EN"
 "http://www.w3.org/Graphics/SVG/1.1/DTD/svg11.dtd">
<!-- Generated by graphviz version 2.44.0 ()
 -->
<!-- Title: ee/kernel/include/osd_config.h Pages: 1 -->
<svg width="158pt" height="207pt"
 viewBox="0.00 0.00 158.00 207.00" xmlns="http://www.w3.org/2000/svg" xmlns:xlink="http://www.w3.org/1999/xlink">
<g id="graph0" class="graph" transform="scale(1 1) rotate(0) translate(4 203)">
<title>ee/kernel/include/osd_config.h</title>
<polygon fill="white" stroke="transparent" points="-4,4 -4,-203 154,-203 154,4 -4,4"/>
<!-- Node1 -->
<g id="node1" class="node">
<title>Node1</title>
<g id="a_node1"><a xlink:title=" ">
<polygon fill="#bfbfbf" stroke="black" points="0,-168.5 0,-198.5 109,-198.5 109,-168.5 0,-168.5"/>
<text text-anchor="start" x="8" y="-186.5" font-family="Helvetica,sans-Serif" font-size="10.00">ee/kernel/include/osd</text>
<text text-anchor="middle" x="54.5" y="-175.5" font-family="Helvetica,sans-Serif" font-size="10.00">_config.h</text>
</a>
</g>
</g>
<!-- Node2 -->
<g id="node2" class="node">
<title>Node2</title>
<g id="a_node2"><a xlink:href="tamtypes_8h.html" target="_top" xlink:title=" ">
<polygon fill="white" stroke="black" points="32.5,-0.5 32.5,-19.5 96.5,-19.5 96.5,-0.5 32.5,-0.5"/>
<text text-anchor="middle" x="64.5" y="-7.5" font-family="Helvetica,sans-Serif" font-size="10.00">tamtypes.h</text>
</a>
</g>
</g>
<!-- Node1&#45;&gt;Node2 -->
<g id="edge1" class="edge">
<title>Node1&#45;&gt;Node2</title>
<path fill="none" stroke="midnightblue" d="M51.3,-168.31C46.49,-144.76 38.76,-96.19 46.5,-56 48.29,-46.7 51.98,-36.89 55.56,-28.8"/>
<polygon fill="midnightblue" stroke="midnightblue" points="58.77,-30.2 59.88,-19.66 52.44,-27.21 58.77,-30.2"/>
</g>
<!-- Node3 -->
<g id="node3" class="node">
<title>Node3</title>
<g id="a_node3"><a xlink:href="libcdvd_8h.html" target="_top" xlink:title=" ">
<polygon fill="white" stroke="black" points="65,-112.5 65,-131.5 120,-131.5 120,-112.5 65,-112.5"/>
<text text-anchor="middle" x="92.5" y="-119.5" font-family="Helvetica,sans-Serif" font-size="10.00">libcdvd.h</text>
</a>
</g>
</g>
<!-- Node1&#45;&gt;Node3 -->
<g id="edge2" class="edge">
<title>Node1&#45;&gt;Node3</title>
<path fill="none" stroke="midnightblue" d="M63.51,-168.4C68.91,-159.93 75.83,-149.1 81.55,-140.14"/>
<polygon fill="midnightblue" stroke="midnightblue" points="84.54,-141.97 86.97,-131.66 78.64,-138.2 84.54,-141.97"/>
</g>
<!-- Node4 -->
<g id="node4" class="node">
<title>Node4</title>
<g id="a_node4"><a xlink:href="libcdvd-common_8h.html" target="_top" xlink:title=" ">
<polygon fill="white" stroke="black" points="55,-56.5 55,-75.5 150,-75.5 150,-56.5 55,-56.5"/>
<text text-anchor="middle" x="102.5" y="-63.5" font-family="Helvetica,sans-Serif" font-size="10.00">libcdvd&#45;common.h</text>
</a>
</g>
</g>
<!-- Node3&#45;&gt;Node4 -->
<g id="edge3" class="edge">
<title>Node3&#45;&gt;Node4</title>
<path fill="none" stroke="midnightblue" d="M94.15,-112.08C95.48,-104.93 97.38,-94.64 99.04,-85.69"/>
<polygon fill="midnightblue" stroke="midnightblue" points="102.5,-86.22 100.88,-75.75 95.62,-84.95 102.5,-86.22"/>
</g>
<!-- Node4&#45;&gt;Node2 -->
<g id="edge4" class="edge">
<title>Node4&#45;&gt;Node2</title>
<path fill="none" stroke="midnightblue" d="M96.23,-56.08C90.86,-48.46 82.98,-37.26 76.42,-27.94"/>
<polygon fill="midnightblue" stroke="midnightblue" points="79.28,-25.91 70.66,-19.75 73.55,-29.94 79.28,-25.91"/>
</g>
</g>
</svg>
