<?xml version="1.0" encoding="UTF-8" standalone="no"?>
<!DOCTYPE svg PUBLIC "-//W3C//DTD SVG 1.1//EN"
 "http://www.w3.org/Graphics/SVG/1.1/DTD/svg11.dtd">
<!-- Generated by graphviz version 12.2.0 (20241103.1931)
 -->
<!-- Title: iop/system/padman/src/padMiscFuncs.c Pages: 1 -->
<!--zoomable 260 -->

<svg id="main" version="1.1" xmlns="http://www.w3.org/2000/svg" xmlns:xlink="http://www.w3.org/1999/xlink" xml:space="preserve" onload="init(evt)">

<style type="text/css"><![CDATA[
.node, .edge {opacity: 0.7;}
.node.selected, .edge.selected {opacity: 1;}
.edge:hover path { stroke: red; }
.edge:hover polygon { stroke: red; fill: red; }
]]></style>

<defs>
  <circle id="rim" cx="0" cy="0" r="7"/>
  <circle id="rim2" cx="0" cy="0" r="3.5"/>
  <g id="zoomPlus">
    <use xlink:href="#rim" fill="#404040"><set attributeName="fill" to="#808080" begin="zoomplus.mouseover" end="zoomplus.mouseout"/></use>
    <path d="M-4,0h8M0,-4v8" fill="none" stroke="white" stroke-width="1.5" pointer-events="none"/>
  </g>
  <g id="zoomMin">
    <use xlink:href="#rim" fill="#404040"><set attributeName="fill" to="#808080" begin="zoomminus.mouseover" end="zoomminus.mouseout"/></use>
    <path d="M-4,0h8" fill="none" stroke="white" stroke-width="1.5" pointer-events="none"/>
  </g>
  <g id="arrowUp" transform="translate(30 24)">
    <use xlink:href="#rim"/>
    <path pointer-events="none" fill="none" stroke="white" stroke-width="1.5" d="M0,-3.0v7 M-2.5,-0.5L0,-3.0L2.5,-0.5"/>
  </g>
  <g id="arrowRight" transform="rotate(90) translate(36 -43)">
    <use xlink:href="#rim"/>
    <path pointer-events="none" fill="none" stroke="white" stroke-width="1.5" d="M0,-3.0v7 M-2.5,-0.5L0,-3.0L2.5,-0.5"/>
  </g>
  <g id="arrowDown" transform="rotate(180) translate(-30 -48)">
    <use xlink:href="#rim"/>
    <path pointer-events="none" fill="none" stroke="white" stroke-width="1.5" d="M0,-3.0v7 M-2.5,-0.5L0,-3.0L2.5,-0.5"/>
  </g>
  <g id="arrowLeft" transform="rotate(270) translate(-36 17)">
    <use xlink:href="#rim"/>
    <path pointer-events="none" fill="none" stroke="white" stroke-width="1.5" d="M0,-3.0v7 M-2.5,-0.5L0,-3.0L2.5,-0.5"/>
  </g>
  <g id="resetDef">
    <use xlink:href="#rim2" fill="#404040"><set attributeName="fill" to="#808080" begin="reset.mouseover" end="reset.mouseout"/></use>
  </g>
</defs>
<script type="application/ecmascript">
var viewWidth = 558;
var viewHeight = 260;
var sectionId = 'dynsection-0';
</script>
<script type="application/ecmascript" xlink:href="svg.min.js"/>
<svg id="graph" class="graph">
<g id="viewport">
<title>iop/system/padman/src/padMiscFuncs.c</title>
<!-- Node1 -->
<g id="Node000001" class="node">
<title>Node1</title>
<g id="a_Node000001"><a xlink:title=" ">
<polygon fill="#999999" stroke="#666666" points="322.71,-251.5 205.46,-251.5 205.46,-221 322.71,-221 322.71,-251.5"/>
<text text-anchor="start" x="213.46" y="-238" font-family="Helvetica,sans-Serif" font-size="10.00">iop/system/padman/src</text>
<text text-anchor="middle" x="264.09" y="-226.75" font-family="Helvetica,sans-Serif" font-size="10.00">/padMiscFuncs.c</text>
</a>
</g>
</g>
<!-- Node2 -->
<g id="Node000002" class="node">
<title>Node2</title>
<g id="a_Node000002"><a xlink:title=" ">
<polygon fill="#e0e0e0" stroke="#999999" points="140.46,-129.75 93.71,-129.75 93.71,-110.5 140.46,-110.5 140.46,-129.75"/>
<text text-anchor="middle" x="117.09" y="-116.25" font-family="Helvetica,sans-Serif" font-size="10.00">types.h</text>
</a>
</g>
</g>
<!-- Node1&#45;&gt;Node2 -->
<g id="edge1_Node000001_Node000002" class="edge">
<title>Node1&#45;&gt;Node2</title>
<g id="a_edge1_Node000001_Node000002"><a xlink:title=" ">
<path fill="none" stroke="#63b8ff" d="M205.25,-232.23C137.05,-227.34 30.83,-215.02 6.09,-185 -18.42,-155.26 41.12,-136.52 82.15,-127.51"/>
<polygon fill="#63b8ff" stroke="#63b8ff" points="82.84,-130.94 91.92,-125.48 81.42,-124.08 82.84,-130.94"/>
</a>
</g>
</g>
<!-- Node3 -->
<g id="Node000003" class="node">
<title>Node3</title>
<g id="a_Node000003"><a xlink:href="freepad_8h.html" target="_top" xlink:title=" ">
<polygon fill="white" stroke="#666666" points="70.96,-185 15.21,-185 15.21,-165.75 70.96,-165.75 70.96,-185"/>
<text text-anchor="middle" x="43.09" y="-171.5" font-family="Helvetica,sans-Serif" font-size="10.00">freepad.h</text>
</a>
</g>
</g>
<!-- Node1&#45;&gt;Node3 -->
<g id="edge2_Node000001_Node000003" class="edge">
<title>Node1&#45;&gt;Node3</title>
<g id="a_edge2_Node000001_Node000003"><a xlink:title=" ">
<path fill="none" stroke="#63b8ff" d="M208.89,-220.55C169.43,-210.03 117.31,-196.15 82.12,-186.77"/>
<polygon fill="#63b8ff" stroke="#63b8ff" points="83.35,-183.48 72.79,-184.29 81.55,-190.24 83.35,-183.48"/>
</a>
</g>
</g>
<!-- Node4 -->
<g id="Node000004" class="node">
<title>Node4</title>
<g id="a_Node000004"><a xlink:href="irx_8h.html" target="_top" xlink:title=" ">
<polygon fill="white" stroke="#666666" points="280.71,-129.75 247.46,-129.75 247.46,-110.5 280.71,-110.5 280.71,-129.75"/>
<text text-anchor="middle" x="264.09" y="-116.25" font-family="Helvetica,sans-Serif" font-size="10.00">irx.h</text>
</a>
</g>
</g>
<!-- Node1&#45;&gt;Node4 -->
<g id="edge24_Node000001_Node000004" class="edge">
<title>Node1&#45;&gt;Node4</title>
<g id="a_edge24_Node000001_Node000004"><a xlink:title=" ">
<path fill="none" stroke="#63b8ff" d="M279.75,-220.58C288.45,-211.33 298.43,-198.58 303.09,-185 305.86,-176.91 306.09,-173.76 303.09,-165.75 299.05,-155 291.12,-145.14 283.46,-137.44"/>
<polygon fill="#63b8ff" stroke="#63b8ff" points="286.26,-135.26 276.55,-131.02 281.49,-140.39 286.26,-135.26"/>
</a>
</g>
</g>
<!-- Node8 -->
<g id="Node000008" class="node">
<title>Node8</title>
<g id="a_Node000008"><a xlink:href="stdio_8h.html" target="_top" xlink:title=" ">
<polygon fill="white" stroke="#666666" points="464.34,-185 419.84,-185 419.84,-165.75 464.34,-165.75 464.34,-185"/>
<text text-anchor="middle" x="442.09" y="-171.5" font-family="Helvetica,sans-Serif" font-size="10.00">stdio.h</text>
</a>
</g>
</g>
<!-- Node1&#45;&gt;Node8 -->
<g id="edge8_Node000001_Node000008" class="edge">
<title>Node1&#45;&gt;Node8</title>
<g id="a_edge8_Node000001_Node000008"><a xlink:title=" ">
<path fill="none" stroke="#63b8ff" d="M308.54,-220.55C339.5,-210.31 380.13,-196.87 408.41,-187.51"/>
<polygon fill="#63b8ff" stroke="#63b8ff" points="409.51,-190.84 417.91,-184.37 407.31,-184.19 409.51,-190.84"/>
</a>
</g>
</g>
<!-- Node10 -->
<g id="Node000010" class="node">
<title>Node10</title>
<g id="a_Node000010"><a xlink:href="sio2_cmds_8h.html" target="_top" xlink:title=" ">
<polygon fill="white" stroke="#666666" points="549.59,-185 482.59,-185 482.59,-165.75 549.59,-165.75 549.59,-185"/>
<text text-anchor="middle" x="516.09" y="-171.5" font-family="Helvetica,sans-Serif" font-size="10.00">sio2Cmds.h</text>
</a>
</g>
</g>
<!-- Node1&#45;&gt;Node10 -->
<g id="edge11_Node000001_Node000010" class="edge">
<title>Node1&#45;&gt;Node10</title>
<g id="a_edge11_Node000001_Node000010"><a xlink:title=" ">
<path fill="none" stroke="#63b8ff" d="M323.17,-221.45C368.38,-210.88 429.78,-196.54 471.07,-186.89"/>
<polygon fill="#63b8ff" stroke="#63b8ff" points="471.73,-190.33 480.67,-184.65 470.14,-183.52 471.73,-190.33"/>
</a>
</g>
</g>
<!-- Node11 -->
<g id="Node000011" class="node">
<title>Node11</title>
<g id="a_Node000011"><a xlink:href="sysmem_8h.html" target="_top" xlink:title=" ">
<polygon fill="white" stroke="#666666" points="294.21,-185 233.96,-185 233.96,-165.75 294.21,-165.75 294.21,-185"/>
<text text-anchor="middle" x="264.09" y="-171.5" font-family="Helvetica,sans-Serif" font-size="10.00">sysmem.h</text>
</a>
</g>
</g>
<!-- Node1&#45;&gt;Node11 -->
<g id="edge12_Node000001_Node000011" class="edge">
<title>Node1&#45;&gt;Node11</title>
<g id="a_edge12_Node000001_Node000011"><a xlink:title=" ">
<path fill="none" stroke="#63b8ff" d="M264.09,-220.7C264.09,-213.46 264.09,-204.59 264.09,-196.69"/>
<polygon fill="#63b8ff" stroke="#63b8ff" points="267.59,-196.96 264.09,-186.96 260.59,-196.96 267.59,-196.96"/>
</a>
</g>
</g>
<!-- Node12 -->
<g id="Node000012" class="node">
<title>Node12</title>
<g id="a_Node000012"><a xlink:href="thevent_8h.html" target="_top" xlink:title=" ">
<polygon fill="white" stroke="#666666" points="144.96,-185 89.21,-185 89.21,-165.75 144.96,-165.75 144.96,-185"/>
<text text-anchor="middle" x="117.09" y="-171.5" font-family="Helvetica,sans-Serif" font-size="10.00">thevent.h</text>
</a>
</g>
</g>
<!-- Node1&#45;&gt;Node12 -->
<g id="edge16_Node000001_Node000012" class="edge">
<title>Node1&#45;&gt;Node12</title>
<g id="a_edge16_Node000001_Node000012"><a xlink:title=" ">
<path fill="none" stroke="#63b8ff" d="M227.37,-220.55C203.69,-211.06 173.15,-198.83 150.22,-189.64"/>
<polygon fill="#63b8ff" stroke="#63b8ff" points="151.62,-186.44 141.04,-185.97 149.02,-192.93 151.62,-186.44"/>
</a>
</g>
</g>
<!-- Node13 -->
<g id="Node000013" class="node">
<title>Node13</title>
<g id="a_Node000013"><a xlink:href="thbase_8h.html" target="_top" xlink:title=" ">
<polygon fill="white" stroke="#666666" points="215.46,-185 162.71,-185 162.71,-165.75 215.46,-165.75 215.46,-185"/>
<text text-anchor="middle" x="189.09" y="-171.5" font-family="Helvetica,sans-Serif" font-size="10.00">thbase.h</text>
</a>
</g>
</g>
<!-- Node1&#45;&gt;Node13 -->
<g id="edge19_Node000001_Node000013" class="edge">
<title>Node1&#45;&gt;Node13</title>
<g id="a_edge19_Node000001_Node000013"><a xlink:title=" ">
<path fill="none" stroke="#63b8ff" d="M245.55,-220.7C234.57,-212.08 220.64,-201.15 209.37,-192.3"/>
<polygon fill="#63b8ff" stroke="#63b8ff" points="211.87,-189.81 201.84,-186.39 207.54,-195.31 211.87,-189.81"/>
</a>
</g>
</g>
<!-- Node14 -->
<g id="Node000014" class="node">
<title>Node14</title>
<g id="a_Node000014"><a xlink:href="vblank_8h.html" target="_top" xlink:title=" ">
<polygon fill="white" stroke="#666666" points="402.09,-185 350.09,-185 350.09,-165.75 402.09,-165.75 402.09,-185"/>
<text text-anchor="middle" x="376.09" y="-171.5" font-family="Helvetica,sans-Serif" font-size="10.00">vblank.h</text>
</a>
</g>
</g>
<!-- Node1&#45;&gt;Node14 -->
<g id="edge22_Node000001_Node000014" class="edge">
<title>Node1&#45;&gt;Node14</title>
<g id="a_edge22_Node000001_Node000014"><a xlink:title=" ">
<path fill="none" stroke="#63b8ff" d="M292.06,-220.55C309.44,-211.41 331.68,-199.72 348.92,-190.66"/>
<polygon fill="#63b8ff" stroke="#63b8ff" points="350.35,-193.86 357.57,-186.11 347.09,-187.66 350.35,-193.86"/>
</a>
</g>
</g>
<!-- Node3&#45;&gt;Node2 -->
<g id="edge7_Node000003_Node000002" class="edge">
<title>Node3&#45;&gt;Node2</title>
<g id="a_edge7_Node000003_Node000002"><a xlink:title=" ">
<path fill="none" stroke="#63b8ff" d="M55.64,-165.34C66.55,-157.49 82.59,-145.95 95.55,-136.62"/>
<polygon fill="#63b8ff" stroke="#63b8ff" points="97.42,-139.59 103.49,-130.91 93.33,-133.91 97.42,-139.59"/>
</a>
</g>
</g>
<!-- Node3&#45;&gt;Node4 -->
<g id="edge3_Node000003_Node000004" class="edge">
<title>Node3&#45;&gt;Node4</title>
<g id="a_edge3_Node000003_Node000004"><a xlink:title=" ">
<path fill="none" stroke="#63b8ff" d="M71.08,-167.63C113.45,-157.42 193.44,-138.15 235.92,-127.91"/>
<polygon fill="#63b8ff" stroke="#63b8ff" points="236.72,-131.32 245.62,-125.58 235.08,-124.51 236.72,-131.32"/>
</a>
</g>
</g>
<!-- Node5 -->
<g id="Node000005" class="node">
<title>Node5</title>
<g id="a_Node000005"><a xlink:href="iop_2kernel_2include_2types_8h_source.html" target="_top" xlink:title=" ">
<polygon fill="white" stroke="#666666" points="287.46,-74.5 240.71,-74.5 240.71,-55.25 287.46,-55.25 287.46,-74.5"/>
<text text-anchor="middle" x="264.09" y="-61" font-family="Helvetica,sans-Serif" font-size="10.00">types.h</text>
</a>
</g>
</g>
<!-- Node4&#45;&gt;Node5 -->
<g id="edge4_Node000004_Node000005" class="edge">
<title>Node4&#45;&gt;Node5</title>
<g id="a_edge4_Node000004_Node000005"><a xlink:title=" ">
<path fill="none" stroke="#63b8ff" d="M264.09,-110.33C264.09,-103.82 264.09,-94.67 264.09,-86.37"/>
<polygon fill="#63b8ff" stroke="#63b8ff" points="267.59,-86.37 264.09,-76.37 260.59,-86.37 267.59,-86.37"/>
</a>
</g>
</g>
<!-- Node6 -->
<g id="Node000006" class="node">
<title>Node6</title>
<g id="a_Node000006"><a xlink:title=" ">
<polygon fill="#e0e0e0" stroke="#999999" points="252.34,-19.25 201.84,-19.25 201.84,0 252.34,0 252.34,-19.25"/>
<text text-anchor="middle" x="227.09" y="-5.75" font-family="Helvetica,sans-Serif" font-size="10.00">stddef.h</text>
</a>
</g>
</g>
<!-- Node5&#45;&gt;Node6 -->
<g id="edge5_Node000005_Node000006" class="edge">
<title>Node5&#45;&gt;Node6</title>
<g id="a_edge5_Node000005_Node000006"><a xlink:title=" ">
<path fill="none" stroke="#63b8ff" d="M257.98,-55.08C253.03,-47.96 245.88,-37.68 239.71,-28.8"/>
<polygon fill="#63b8ff" stroke="#63b8ff" points="242.77,-27.07 234.19,-20.85 237.02,-31.06 242.77,-27.07"/>
</a>
</g>
</g>
<!-- Node7 -->
<g id="Node000007" class="node">
<title>Node7</title>
<g id="a_Node000007"><a xlink:href="tamtypes_8h.html" target="_top" xlink:title=" ">
<polygon fill="white" stroke="#666666" points="333.71,-19.25 270.46,-19.25 270.46,0 333.71,0 333.71,-19.25"/>
<text text-anchor="middle" x="302.09" y="-5.75" font-family="Helvetica,sans-Serif" font-size="10.00">tamtypes.h</text>
</a>
</g>
</g>
<!-- Node5&#45;&gt;Node7 -->
<g id="edge6_Node000005_Node000007" class="edge">
<title>Node5&#45;&gt;Node7</title>
<g id="a_edge6_Node000005_Node000007"><a xlink:title=" ">
<path fill="none" stroke="#63b8ff" d="M270.36,-55.08C275.45,-47.96 282.78,-37.68 289.12,-28.8"/>
<polygon fill="#63b8ff" stroke="#63b8ff" points="291.84,-31.01 294.8,-20.84 286.14,-26.95 291.84,-31.01"/>
</a>
</g>
</g>
<!-- Node8&#45;&gt;Node4 -->
<g id="edge10_Node000008_Node000004" class="edge">
<title>Node8&#45;&gt;Node4</title>
<g id="a_edge10_Node000008_Node000004"><a xlink:title=" ">
<path fill="none" stroke="#63b8ff" d="M419.54,-167.63C387.1,-157.93 327.29,-140.03 292.06,-129.49"/>
<polygon fill="#63b8ff" stroke="#63b8ff" points="293.17,-126.17 282.59,-126.66 291.16,-132.88 293.17,-126.17"/>
</a>
</g>
</g>
<!-- Node9 -->
<g id="Node000009" class="node">
<title>Node9</title>
<g id="a_Node000009"><a xlink:title=" ">
<polygon fill="#e0e0e0" stroke="#999999" points="408.34,-129.75 357.84,-129.75 357.84,-110.5 408.34,-110.5 408.34,-129.75"/>
<text text-anchor="middle" x="383.09" y="-116.25" font-family="Helvetica,sans-Serif" font-size="10.00">stdarg.h</text>
</a>
</g>
</g>
<!-- Node8&#45;&gt;Node9 -->
<g id="edge9_Node000008_Node000009" class="edge">
<title>Node8&#45;&gt;Node9</title>
<g id="a_edge9_Node000008_Node000009"><a xlink:title=" ">
<path fill="none" stroke="#63b8ff" d="M432.08,-165.34C423.72,-157.8 411.59,-146.85 401.49,-137.73"/>
<polygon fill="#63b8ff" stroke="#63b8ff" points="403.84,-135.14 394.07,-131.04 399.15,-140.34 403.84,-135.14"/>
</a>
</g>
</g>
<!-- Node11&#45;&gt;Node2 -->
<g id="edge13_Node000011_Node000002" class="edge">
<title>Node11&#45;&gt;Node2</title>
<g id="a_edge13_Node000011_Node000002"><a xlink:title=" ">
<path fill="none" stroke="#63b8ff" d="M239.15,-165.34C214.96,-156.58 178.07,-143.21 151.17,-133.47"/>
<polygon fill="#63b8ff" stroke="#63b8ff" points="152.7,-130.3 142.11,-130.19 150.32,-136.89 152.7,-130.3"/>
</a>
</g>
</g>
<!-- Node11&#45;&gt;Node4 -->
<g id="edge14_Node000011_Node000004" class="edge">
<title>Node11&#45;&gt;Node4</title>
<g id="a_edge14_Node000011_Node000004"><a xlink:title=" ">
<path fill="none" stroke="#63b8ff" d="M264.09,-165.58C264.09,-159.07 264.09,-149.92 264.09,-141.62"/>
<polygon fill="#63b8ff" stroke="#63b8ff" points="267.59,-141.62 264.09,-131.62 260.59,-141.62 267.59,-141.62"/>
</a>
</g>
</g>
<!-- Node11&#45;&gt;Node9 -->
<g id="edge15_Node000011_Node000009" class="edge">
<title>Node11&#45;&gt;Node9</title>
<g id="a_edge15_Node000011_Node000009"><a xlink:title=" ">
<path fill="none" stroke="#63b8ff" d="M284.27,-165.34C302.99,-156.97 331.11,-144.38 352.57,-134.78"/>
<polygon fill="#63b8ff" stroke="#63b8ff" points="353.72,-138.1 361.42,-130.82 350.86,-131.71 353.72,-138.1"/>
</a>
</g>
</g>
<!-- Node12&#45;&gt;Node2 -->
<g id="edge17_Node000012_Node000002" class="edge">
<title>Node12&#45;&gt;Node2</title>
<g id="a_edge17_Node000012_Node000002"><a xlink:title=" ">
<path fill="none" stroke="#63b8ff" d="M117.09,-165.58C117.09,-159.07 117.09,-149.92 117.09,-141.62"/>
<polygon fill="#63b8ff" stroke="#63b8ff" points="120.59,-141.62 117.09,-131.62 113.59,-141.62 120.59,-141.62"/>
</a>
</g>
</g>
<!-- Node12&#45;&gt;Node4 -->
<g id="edge18_Node000012_Node000004" class="edge">
<title>Node12&#45;&gt;Node4</title>
<g id="a_edge18_Node000012_Node000004"><a xlink:title=" ">
<path fill="none" stroke="#63b8ff" d="M142.02,-165.34C168.26,-155.84 209.43,-140.92 236.59,-131.09"/>
<polygon fill="#63b8ff" stroke="#63b8ff" points="237.65,-134.42 245.86,-127.73 235.27,-127.84 237.65,-134.42"/>
</a>
</g>
</g>
<!-- Node13&#45;&gt;Node2 -->
<g id="edge20_Node000013_Node000002" class="edge">
<title>Node13&#45;&gt;Node2</title>
<g id="a_edge20_Node000013_Node000002"><a xlink:title=" ">
<path fill="none" stroke="#63b8ff" d="M176.87,-165.34C166.26,-157.49 150.65,-145.95 138.04,-136.62"/>
<polygon fill="#63b8ff" stroke="#63b8ff" points="140.46,-134.06 130.34,-130.92 136.3,-139.69 140.46,-134.06"/>
</a>
</g>
</g>
<!-- Node13&#45;&gt;Node4 -->
<g id="edge21_Node000013_Node000004" class="edge">
<title>Node13&#45;&gt;Node4</title>
<g id="a_edge21_Node000013_Node000004"><a xlink:title=" ">
<path fill="none" stroke="#63b8ff" d="M201.81,-165.34C212.8,-157.54 228.93,-146.09 242.02,-136.79"/>
<polygon fill="#63b8ff" stroke="#63b8ff" points="243.94,-139.72 250.07,-131.08 239.89,-134.01 243.94,-139.72"/>
</a>
</g>
</g>
<!-- Node14&#45;&gt;Node4 -->
<g id="edge23_Node000014_Node000004" class="edge">
<title>Node14&#45;&gt;Node4</title>
<g id="a_edge23_Node000014_Node000004"><a xlink:title=" ">
<path fill="none" stroke="#63b8ff" d="M357.09,-165.34C338.99,-156.74 311.58,-143.7 291.19,-134.01"/>
<polygon fill="#63b8ff" stroke="#63b8ff" points="292.88,-130.94 282.34,-129.81 289.87,-137.26 292.88,-130.94"/>
</a>
</g>
</g>
</g>
</svg>

<g id="navigator" transform="translate(0 0)" fill="#404254">
  <rect fill="#f2f5e9" fill-opacity="0.5" stroke="#606060" stroke-width=".5" x="0" y="0" width="60" height="60"/>
  <use id="zoomplus" xlink:href="#zoomPlus" x="17" y="9" onmousedown="handleZoom(evt,'in')"/>
  <use id="zoomminus" xlink:href="#zoomMin" x="42" y="9" onmousedown="handleZoom(evt,'out')"/>
  <use id="reset" xlink:href="#resetDef" x="30" y="36" onmousedown="handleReset()"/>
   <use id="arrowup" xlink:href="#arrowUp" x="0" y="0" onmousedown="handlePan(0,-1)"/>
  <use id="arrowright" xlink:href="#arrowRight" x="0" y="0" onmousedown="handlePan(1,0)"/>
  <use id="arrowdown" xlink:href="#arrowDown" x="0" y="0" onmousedown="handlePan(0,1)"/>
  <use id="arrowleft" xlink:href="#arrowLeft" x="0" y="0" onmousedown="handlePan(-1,0)"/>
</g>
<svg viewBox="0 0 15 15" width="100%" height="30px" preserveAspectRatio="xMaxYMin meet">
 <g id="arrow_out" transform="scale(0.3 0.3)">
  <a xlink:href="pad_misc_funcs_8c__incl_org.svg" target="_base">
   <rect id="button" ry="5" rx="5" y="6" x="6" height="38" width="38"
        fill="#f2f5e9" fill-opacity="0.5" stroke="#606060" stroke-width="1.0"/>
   <path id="arrow"
     d="M 11.500037,31.436501 C 11.940474,20.09759 22.043105,11.32322 32.158766,21.979434 L 37.068811,17.246167 C 37.068811,17.246167 37.088388,32 37.088388,32 L 22.160133,31.978069 C 22.160133,31.978069 26.997745,27.140456 26.997745,27.140456 C 18.528582,18.264221 13.291696,25.230495 11.500037,31.436501 z"
     style="fill:#404040;"/>
  </a>
 </g>
</svg>

<style type='text/css'>
<![CDATA[
[data-mouse-over-selected='false'] { opacity: 0.7; }
[data-mouse-over-selected='true']  { opacity: 1.0; }
]]>
</style>
<script type="application/ecmascript"><![CDATA[
document.addEventListener('DOMContentLoaded', (event) => {
  highlightEdges();
  highlightAdjacentNodes();
});
]]></script>
</svg>
