<?xml version="1.0" encoding="UTF-8" standalone="no"?>
<!DOCTYPE svg PUBLIC "-//W3C//DTD SVG 1.1//EN"
 "http://www.w3.org/Graphics/SVG/1.1/DTD/svg11.dtd">
<!-- Generated by graphviz version 9.0.0 (20230911.1827)
 -->
<!-- Title: iop/system/padman/src/padPortOpen.c Pages: 1 -->
<!--zoomable 260 -->

<svg id="main" version="1.1" xmlns="http://www.w3.org/2000/svg" xmlns:xlink="http://www.w3.org/1999/xlink" xml:space="preserve" onload="init(evt)">
<style type="text/css"><![CDATA[
.node, .edge {opacity: 0.7;}
.node.selected, .edge.selected {opacity: 1;}
.edge:hover path { stroke: red; }
.edge:hover polygon { stroke: red; fill: red; }
]]></style>

<defs>
  <circle id="rim" cx="0" cy="0" r="7"/>
  <circle id="rim2" cx="0" cy="0" r="3.5"/>
  <g id="zoomPlus">
    <use xlink:href="#rim" fill="#404040"><set attributeName="fill" to="#808080" begin="zoomplus.mouseover" end="zoomplus.mouseout"/></use>
    <path d="M-4,0h8M0,-4v8" fill="none" stroke="white" stroke-width="1.5" pointer-events="none"/>
  </g>
  <g id="zoomMin">
    <use xlink:href="#rim" fill="#404040"><set attributeName="fill" to="#808080" begin="zoomminus.mouseover" end="zoomminus.mouseout"/></use>
    <path d="M-4,0h8" fill="none" stroke="white" stroke-width="1.5" pointer-events="none"/>
  </g>
  <g id="arrowUp" transform="translate(30 24)">
    <use xlink:href="#rim"/>
    <path pointer-events="none" fill="none" stroke="white" stroke-width="1.5" d="M0,-3.0v7 M-2.5,-0.5L0,-3.0L2.5,-0.5"/>
  </g>
  <g id="arrowRight" transform="rotate(90) translate(36 -43)">
    <use xlink:href="#rim"/>
    <path pointer-events="none" fill="none" stroke="white" stroke-width="1.5" d="M0,-3.0v7 M-2.5,-0.5L0,-3.0L2.5,-0.5"/>
  </g>
  <g id="arrowDown" transform="rotate(180) translate(-30 -48)">
    <use xlink:href="#rim"/>
    <path pointer-events="none" fill="none" stroke="white" stroke-width="1.5" d="M0,-3.0v7 M-2.5,-0.5L0,-3.0L2.5,-0.5"/>
  </g>
  <g id="arrowLeft" transform="rotate(270) translate(-36 17)">
    <use xlink:href="#rim"/>
    <path pointer-events="none" fill="none" stroke="white" stroke-width="1.5" d="M0,-3.0v7 M-2.5,-0.5L0,-3.0L2.5,-0.5"/>
  </g>
  <g id="resetDef">
    <use xlink:href="#rim2" fill="#404040"><set attributeName="fill" to="#808080" begin="reset.mouseover" end="reset.mouseout"/></use>
  </g>
</defs>
<script type="application/ecmascript">
var viewWidth = 539;
var viewHeight = 260;
var sectionId = 'dynsection-0';
</script>
<script type="application/ecmascript" xlink:href="svg.min.js"/>
<svg id="graph" class="graph">
<g id="viewport">
<title>iop/system/padman/src/padPortOpen.c</title>
<!-- Node1 -->
<g id="Node000001" class="node">
<title>Node1</title>
<g id="a_Node000001"><a xlink:title=" ">
<polygon fill="#999999" stroke="#666666" points="288,-251.5 170.75,-251.5 170.75,-221 288,-221 288,-251.5"/>
<text text-anchor="start" x="178.75" y="-238" font-family="Helvetica,sans-Serif" font-size="10.00">iop/system/padman/src</text>
<text text-anchor="middle" x="229.38" y="-226.75" font-family="Helvetica,sans-Serif" font-size="10.00">/padPortOpen.c</text>
</a>
</g>
</g>
<!-- Node2 -->
<g id="Node000002" class="node">
<title>Node2</title>
<g id="a_Node000002"><a xlink:title=" ">
<polygon fill="#e0e0e0" stroke="#999999" points="46.75,-129.75 0,-129.75 0,-110.5 46.75,-110.5 46.75,-129.75"/>
<text text-anchor="middle" x="23.38" y="-116.25" font-family="Helvetica,sans-Serif" font-size="10.00">types.h</text>
</a>
</g>
</g>
<!-- Node1&#45;&gt;Node2 -->
<g id="edge1_Node000001_Node000002" class="edge">
<title>Node1&#45;&gt;Node2</title>
<g id="a_edge1_Node000001_Node000002"><a xlink:title=" ">
<path fill="none" stroke="#63b8ff" d="M170.45,-229.61C113.65,-222.82 33.55,-209.18 14.38,-185 4.48,-172.52 8.35,-154.2 13.75,-140.38"/>
<polygon fill="#63b8ff" stroke="#63b8ff" points="16.87,-141.99 17.76,-131.43 10.48,-139.13 16.87,-141.99"/>
</a>
</g>
</g>
<!-- Node3 -->
<g id="Node000003" class="node">
<title>Node3</title>
<g id="a_Node000003"><a xlink:href="freepad_8h.html" target="_top" xlink:title=" ">
<polygon fill="white" stroke="#666666" points="79.25,-185 23.5,-185 23.5,-165.75 79.25,-165.75 79.25,-185"/>
<text text-anchor="middle" x="51.38" y="-171.5" font-family="Helvetica,sans-Serif" font-size="10.00">freepad.h</text>
</a>
</g>
</g>
<!-- Node1&#45;&gt;Node3 -->
<g id="edge2_Node000001_Node000003" class="edge">
<title>Node1&#45;&gt;Node3</title>
<g id="a_edge2_Node000001_Node000003"><a xlink:title=" ">
<path fill="none" stroke="#63b8ff" d="M184.92,-220.55C155.55,-210.83 117.48,-198.24 89.5,-188.98"/>
<polygon fill="#63b8ff" stroke="#63b8ff" points="90.97,-185.78 80.37,-185.97 88.77,-192.43 90.97,-185.78"/>
</a>
</g>
</g>
<!-- Node8 -->
<g id="Node000008" class="node">
<title>Node8</title>
<g id="a_Node000008"><a xlink:href="stdio_8h.html" target="_top" xlink:title=" ">
<polygon fill="white" stroke="#666666" points="285.62,-185 241.12,-185 241.12,-165.75 285.62,-165.75 285.62,-185"/>
<text text-anchor="middle" x="263.38" y="-171.5" font-family="Helvetica,sans-Serif" font-size="10.00">stdio.h</text>
</a>
</g>
</g>
<!-- Node1&#45;&gt;Node8 -->
<g id="edge8_Node000001_Node000008" class="edge">
<title>Node1&#45;&gt;Node8</title>
<g id="a_edge8_Node000001_Node000008"><a xlink:title=" ">
<path fill="none" stroke="#63b8ff" d="M237.78,-220.7C242.21,-213.03 247.7,-203.52 252.45,-195.29"/>
<polygon fill="#63b8ff" stroke="#63b8ff" points="255.41,-197.17 257.38,-186.76 249.34,-193.67 255.41,-197.17"/>
</a>
</g>
</g>
<!-- Node10 -->
<g id="Node000010" class="node">
<title>Node10</title>
<g id="a_Node000010"><a xlink:href="thevent_8h.html" target="_top" xlink:title=" ">
<polygon fill="white" stroke="#666666" points="223.25,-185 167.5,-185 167.5,-165.75 223.25,-165.75 223.25,-185"/>
<text text-anchor="middle" x="195.38" y="-171.5" font-family="Helvetica,sans-Serif" font-size="10.00">thevent.h</text>
</a>
</g>
</g>
<!-- Node1&#45;&gt;Node10 -->
<g id="edge11_Node000001_Node000010" class="edge">
<title>Node1&#45;&gt;Node10</title>
<g id="a_edge11_Node000001_Node000010"><a xlink:title=" ">
<path fill="none" stroke="#63b8ff" d="M220.97,-220.7C216.54,-213.03 211.05,-203.52 206.3,-195.29"/>
<polygon fill="#63b8ff" stroke="#63b8ff" points="209.41,-193.67 201.37,-186.76 203.34,-197.17 209.41,-193.67"/>
</a>
</g>
</g>
<!-- Node11 -->
<g id="Node000011" class="node">
<title>Node11</title>
<g id="a_Node000011"><a xlink:href="thbase_8h.html" target="_top" xlink:title=" ">
<polygon fill="white" stroke="#666666" points="149.75,-185 97,-185 97,-165.75 149.75,-165.75 149.75,-185"/>
<text text-anchor="middle" x="123.38" y="-171.5" font-family="Helvetica,sans-Serif" font-size="10.00">thbase.h</text>
</a>
</g>
</g>
<!-- Node1&#45;&gt;Node11 -->
<g id="edge14_Node000001_Node000011" class="edge">
<title>Node1&#45;&gt;Node11</title>
<g id="a_edge14_Node000001_Node000011"><a xlink:title=" ">
<path fill="none" stroke="#63b8ff" d="M202.9,-220.55C186.6,-211.49 165.8,-199.94 149.55,-190.91"/>
<polygon fill="#63b8ff" stroke="#63b8ff" points="151.4,-187.93 140.95,-186.14 148,-194.05 151.4,-187.93"/>
</a>
</g>
</g>
<!-- Node12 -->
<g id="Node000012" class="node">
<title>Node12</title>
<g id="a_Node000012"><a xlink:href="sio2_cmds_8h.html" target="_top" xlink:title=" ">
<polygon fill="white" stroke="#666666" points="370.88,-185 303.88,-185 303.88,-165.75 370.88,-165.75 370.88,-185"/>
<text text-anchor="middle" x="337.38" y="-171.5" font-family="Helvetica,sans-Serif" font-size="10.00">sio2Cmds.h</text>
</a>
</g>
</g>
<!-- Node1&#45;&gt;Node12 -->
<g id="edge17_Node000001_Node000012" class="edge">
<title>Node1&#45;&gt;Node12</title>
<g id="a_edge17_Node000001_Node000012"><a xlink:title=" ">
<path fill="none" stroke="#63b8ff" d="M256.35,-220.55C272.95,-211.49 294.15,-199.94 310.7,-190.91"/>
<polygon fill="#63b8ff" stroke="#63b8ff" points="312.38,-193.99 319.48,-186.13 309.03,-187.84 312.38,-193.99"/>
</a>
</g>
</g>
<!-- Node13 -->
<g id="Node000013" class="node">
<title>Node13</title>
<g id="a_Node000013"><a xlink:href="pad_cmds_8h.html" target="_top" xlink:title=" ">
<polygon fill="white" stroke="#666666" points="453.75,-185 389,-185 389,-165.75 453.75,-165.75 453.75,-185"/>
<text text-anchor="middle" x="421.38" y="-171.5" font-family="Helvetica,sans-Serif" font-size="10.00">padCmds.h</text>
</a>
</g>
</g>
<!-- Node1&#45;&gt;Node13 -->
<g id="edge18_Node000001_Node000013" class="edge">
<title>Node1&#45;&gt;Node13</title>
<g id="a_edge18_Node000001_Node000013"><a xlink:title=" ">
<path fill="none" stroke="#63b8ff" d="M277.33,-220.55C309.14,-210.79 350.44,-198.13 380.65,-188.86"/>
<polygon fill="#63b8ff" stroke="#63b8ff" points="381.67,-192.21 390.2,-185.93 379.61,-185.52 381.67,-192.21"/>
</a>
</g>
</g>
<!-- Node14 -->
<g id="Node000014" class="node">
<title>Node14</title>
<g id="a_Node000014"><a xlink:href="pad_data_8h.html" target="_top" xlink:title=" ">
<polygon fill="white" stroke="#666666" points="531.12,-185 471.62,-185 471.62,-165.75 531.12,-165.75 531.12,-185"/>
<text text-anchor="middle" x="501.38" y="-171.5" font-family="Helvetica,sans-Serif" font-size="10.00">padData.h</text>
</a>
</g>
</g>
<!-- Node1&#45;&gt;Node14 -->
<g id="edge19_Node000001_Node000014" class="edge">
<title>Node1&#45;&gt;Node14</title>
<g id="a_edge19_Node000001_Node000014"><a xlink:title=" ">
<path fill="none" stroke="#63b8ff" d="M288.29,-222.63C332.83,-213.08 395.8,-199.52 459.99,-185.51"/>
<polygon fill="#63b8ff" stroke="#63b8ff" points="460.64,-188.95 469.67,-183.4 459.15,-182.11 460.64,-188.95"/>
</a>
</g>
</g>
<!-- Node3&#45;&gt;Node2 -->
<g id="edge7_Node000003_Node000002" class="edge">
<title>Node3&#45;&gt;Node2</title>
<g id="a_edge7_Node000003_Node000002"><a xlink:title=" ">
<path fill="none" stroke="#63b8ff" d="M46.75,-165.58C43.13,-158.69 37.95,-148.84 33.38,-140.16"/>
<polygon fill="#63b8ff" stroke="#63b8ff" points="36.56,-138.67 28.8,-131.45 30.36,-141.93 36.56,-138.67"/>
</a>
</g>
</g>
<!-- Node4 -->
<g id="Node000004" class="node">
<title>Node4</title>
<g id="a_Node000004"><a xlink:href="irx_8h.html" target="_top" xlink:title=" ">
<polygon fill="white" stroke="#666666" points="174,-129.75 140.75,-129.75 140.75,-110.5 174,-110.5 174,-129.75"/>
<text text-anchor="middle" x="157.38" y="-116.25" font-family="Helvetica,sans-Serif" font-size="10.00">irx.h</text>
</a>
</g>
</g>
<!-- Node3&#45;&gt;Node4 -->
<g id="edge3_Node000003_Node000004" class="edge">
<title>Node3&#45;&gt;Node4</title>
<g id="a_edge3_Node000003_Node000004"><a xlink:title=" ">
<path fill="none" stroke="#63b8ff" d="M69.36,-165.34C86.02,-156.97 111.06,-144.39 130.17,-134.79"/>
<polygon fill="#63b8ff" stroke="#63b8ff" points="131.64,-137.97 139.01,-130.35 128.5,-131.71 131.64,-137.97"/>
</a>
</g>
</g>
<!-- Node5 -->
<g id="Node000005" class="node">
<title>Node5</title>
<g id="a_Node000005"><a xlink:href="iop_2kernel_2include_2types_8h_source.html" target="_top" xlink:title=" ">
<polygon fill="white" stroke="#666666" points="180.75,-74.5 134,-74.5 134,-55.25 180.75,-55.25 180.75,-74.5"/>
<text text-anchor="middle" x="157.38" y="-61" font-family="Helvetica,sans-Serif" font-size="10.00">types.h</text>
</a>
</g>
</g>
<!-- Node4&#45;&gt;Node5 -->
<g id="edge4_Node000004_Node000005" class="edge">
<title>Node4&#45;&gt;Node5</title>
<g id="a_edge4_Node000004_Node000005"><a xlink:title=" ">
<path fill="none" stroke="#63b8ff" d="M157.38,-110.33C157.38,-103.82 157.38,-94.67 157.38,-86.37"/>
<polygon fill="#63b8ff" stroke="#63b8ff" points="160.88,-86.37 157.38,-76.37 153.88,-86.37 160.88,-86.37"/>
</a>
</g>
</g>
<!-- Node6 -->
<g id="Node000006" class="node">
<title>Node6</title>
<g id="a_Node000006"><a xlink:title=" ">
<polygon fill="#e0e0e0" stroke="#999999" points="145.62,-19.25 95.12,-19.25 95.12,0 145.62,0 145.62,-19.25"/>
<text text-anchor="middle" x="120.38" y="-5.75" font-family="Helvetica,sans-Serif" font-size="10.00">stddef.h</text>
</a>
</g>
</g>
<!-- Node5&#45;&gt;Node6 -->
<g id="edge5_Node000005_Node000006" class="edge">
<title>Node5&#45;&gt;Node6</title>
<g id="a_edge5_Node000005_Node000006"><a xlink:title=" ">
<path fill="none" stroke="#63b8ff" d="M151.27,-55.08C146.31,-47.96 139.17,-37.68 133,-28.8"/>
<polygon fill="#63b8ff" stroke="#63b8ff" points="136.06,-27.07 127.48,-20.85 130.31,-31.06 136.06,-27.07"/>
</a>
</g>
</g>
<!-- Node7 -->
<g id="Node000007" class="node">
<title>Node7</title>
<g id="a_Node000007"><a xlink:href="tamtypes_8h.html" target="_top" xlink:title=" ">
<polygon fill="white" stroke="#666666" points="227,-19.25 163.75,-19.25 163.75,0 227,0 227,-19.25"/>
<text text-anchor="middle" x="195.38" y="-5.75" font-family="Helvetica,sans-Serif" font-size="10.00">tamtypes.h</text>
</a>
</g>
</g>
<!-- Node5&#45;&gt;Node7 -->
<g id="edge6_Node000005_Node000007" class="edge">
<title>Node5&#45;&gt;Node7</title>
<g id="a_edge6_Node000005_Node000007"><a xlink:title=" ">
<path fill="none" stroke="#63b8ff" d="M163.65,-55.08C168.73,-47.96 176.07,-37.68 182.41,-28.8"/>
<polygon fill="#63b8ff" stroke="#63b8ff" points="185.12,-31.01 188.08,-20.84 179.43,-26.95 185.12,-31.01"/>
</a>
</g>
</g>
<!-- Node8&#45;&gt;Node4 -->
<g id="edge10_Node000008_Node000004" class="edge">
<title>Node8&#45;&gt;Node4</title>
<g id="a_edge10_Node000008_Node000004"><a xlink:title=" ">
<path fill="none" stroke="#63b8ff" d="M245.39,-165.34C228.73,-156.97 203.69,-144.39 184.58,-134.79"/>
<polygon fill="#63b8ff" stroke="#63b8ff" points="186.25,-131.71 175.74,-130.35 183.11,-137.97 186.25,-131.71"/>
</a>
</g>
</g>
<!-- Node9 -->
<g id="Node000009" class="node">
<title>Node9</title>
<g id="a_Node000009"><a xlink:title=" ">
<polygon fill="#e0e0e0" stroke="#999999" points="288.62,-129.75 238.12,-129.75 238.12,-110.5 288.62,-110.5 288.62,-129.75"/>
<text text-anchor="middle" x="263.38" y="-116.25" font-family="Helvetica,sans-Serif" font-size="10.00">stdarg.h</text>
</a>
</g>
</g>
<!-- Node8&#45;&gt;Node9 -->
<g id="edge9_Node000008_Node000009" class="edge">
<title>Node8&#45;&gt;Node9</title>
<g id="a_edge9_Node000008_Node000009"><a xlink:title=" ">
<path fill="none" stroke="#63b8ff" d="M263.38,-165.58C263.38,-159.07 263.38,-149.92 263.38,-141.62"/>
<polygon fill="#63b8ff" stroke="#63b8ff" points="266.88,-141.62 263.38,-131.62 259.88,-141.62 266.88,-141.62"/>
</a>
</g>
</g>
<!-- Node10&#45;&gt;Node4 -->
<g id="edge13_Node000010_Node000004" class="edge">
<title>Node10&#45;&gt;Node4</title>
<g id="a_edge13_Node000010_Node000004"><a xlink:title=" ">
<path fill="none" stroke="#63b8ff" d="M189.1,-165.58C184.02,-158.46 176.68,-148.18 170.34,-139.3"/>
<polygon fill="#63b8ff" stroke="#63b8ff" points="173.32,-137.45 164.67,-131.34 167.63,-141.51 173.32,-137.45"/>
</a>
</g>
</g>
<!-- Node10&#45;&gt;Node5 -->
<g id="edge12_Node000010_Node000005" class="edge">
<title>Node10&#45;&gt;Node5</title>
<g id="a_edge12_Node000010_Node000005"><a xlink:title=" ">
<path fill="none" stroke="#63b8ff" d="M194.66,-165.44C193.45,-152.85 190.39,-129.32 183.38,-110.5 180.02,-101.49 174.91,-92.2 170.11,-84.44"/>
<polygon fill="#63b8ff" stroke="#63b8ff" points="173.16,-82.72 164.77,-76.25 167.3,-86.54 173.16,-82.72"/>
</a>
</g>
</g>
<!-- Node11&#45;&gt;Node4 -->
<g id="edge16_Node000011_Node000004" class="edge">
<title>Node11&#45;&gt;Node4</title>
<g id="a_edge16_Node000011_Node000004"><a xlink:title=" ">
<path fill="none" stroke="#63b8ff" d="M128.99,-165.58C133.49,-158.53 139.96,-148.4 145.59,-139.58"/>
<polygon fill="#63b8ff" stroke="#63b8ff" points="148.39,-141.7 150.82,-131.38 142.49,-137.93 148.39,-141.7"/>
</a>
</g>
</g>
<!-- Node11&#45;&gt;Node5 -->
<g id="edge15_Node000011_Node000005" class="edge">
<title>Node11&#45;&gt;Node5</title>
<g id="a_edge15_Node000011_Node000005"><a xlink:title=" ">
<path fill="none" stroke="#63b8ff" d="M123.38,-165.45C123.62,-152.86 125,-129.35 131.38,-110.5 134.46,-101.39 139.52,-92.08 144.36,-84.34"/>
<polygon fill="#63b8ff" stroke="#63b8ff" points="147.17,-86.44 149.79,-76.18 141.34,-82.57 147.17,-86.44"/>
</a>
</g>
</g>
</g>
</svg>

<g id="navigator" transform="translate(0 0)" fill="#404254">
  <rect fill="#f2f5e9" fill-opacity="0.5" stroke="#606060" stroke-width=".5" x="0" y="0" width="60" height="60"/>
  <use id="zoomplus" xlink:href="#zoomPlus" x="17" y="9" onmousedown="handleZoom(evt,'in')"/>
  <use id="zoomminus" xlink:href="#zoomMin" x="42" y="9" onmousedown="handleZoom(evt,'out')"/>
  <use id="reset" xlink:href="#resetDef" x="30" y="36" onmousedown="handleReset()"/>
   <use id="arrowup" xlink:href="#arrowUp" x="0" y="0" onmousedown="handlePan(0,-1)"/>
  <use id="arrowright" xlink:href="#arrowRight" x="0" y="0" onmousedown="handlePan(1,0)"/>
  <use id="arrowdown" xlink:href="#arrowDown" x="0" y="0" onmousedown="handlePan(0,1)"/>
  <use id="arrowleft" xlink:href="#arrowLeft" x="0" y="0" onmousedown="handlePan(-1,0)"/>
</g>
<svg viewBox="0 0 15 15" width="100%" height="30px" preserveAspectRatio="xMaxYMin meet">
 <g id="arrow_out" transform="scale(0.3 0.3)">
  <a xlink:href="pad_port_open_8c__incl_org.svg" target="_base">
   <rect id="button" ry="5" rx="5" y="6" x="6" height="38" width="38"
        fill="#f2f5e9" fill-opacity="0.5" stroke="#606060" stroke-width="1.0"/>
   <path id="arrow"
     d="M 11.500037,31.436501 C 11.940474,20.09759 22.043105,11.32322 32.158766,21.979434 L 37.068811,17.246167 C 37.068811,17.246167 37.088388,32 37.088388,32 L 22.160133,31.978069 C 22.160133,31.978069 26.997745,27.140456 26.997745,27.140456 C 18.528582,18.264221 13.291696,25.230495 11.500037,31.436501 z"
     style="fill:#404040;"/>
  </a>
 </g>
</svg>

<style type='text/css'>
<![CDATA[
[data-mouse-over-selected='false'] { opacity: 0.7; }
[data-mouse-over-selected='true']  { opacity: 1.0; }
]]>
</style>
<script type="application/ecmascript"><![CDATA[
document.addEventListener('DOMContentLoaded', (event) => {
  highlightEdges();
  highlightAdjacentNodes();
});
]]></script>
</svg>
