<?xml version="1.0" encoding="UTF-8" standalone="no"?>
<!DOCTYPE svg PUBLIC "-//W3C//DTD SVG 1.1//EN"
 "http://www.w3.org/Graphics/SVG/1.1/DTD/svg11.dtd">
<!-- Generated by graphviz version 9.0.0 (20230911.1827)
 -->
<!-- Title: iop/system/padman/src/padMiscFuncs.c Pages: 1 -->
<svg width="566pt" height="260pt"
 viewBox="0.00 0.00 565.88 259.50" xmlns="http://www.w3.org/2000/svg" xmlns:xlink="http://www.w3.org/1999/xlink">
<g id="graph0" class="graph" transform="scale(1 1) rotate(0) translate(4 255.5)">
<title>iop/system/padman/src/padMiscFuncs.c</title>
<!-- Node1 -->
<g id="Node000001" class="node">
<title>Node1</title>
<g id="a_Node000001"><a xlink:title=" ">
<polygon fill="#999999" stroke="#666666" points="310,-251.5 192.75,-251.5 192.75,-221 310,-221 310,-251.5"/>
<text text-anchor="start" x="200.75" y="-238" font-family="Helvetica,sans-Serif" font-size="10.00">iop/system/padman/src</text>
<text text-anchor="middle" x="251.38" y="-226.75" font-family="Helvetica,sans-Serif" font-size="10.00">/padMiscFuncs.c</text>
</a>
</g>
</g>
<!-- Node2 -->
<g id="Node000002" class="node">
<title>Node2</title>
<g id="a_Node000002"><a xlink:title=" ">
<polygon fill="#e0e0e0" stroke="#999999" points="46.75,-129.75 0,-129.75 0,-110.5 46.75,-110.5 46.75,-129.75"/>
<text text-anchor="middle" x="23.38" y="-116.25" font-family="Helvetica,sans-Serif" font-size="10.00">types.h</text>
</a>
</g>
</g>
<!-- Node1&#45;&gt;Node2 -->
<g id="edge1_Node000001_Node000002" class="edge">
<title>Node1&#45;&gt;Node2</title>
<g id="a_edge1_Node000001_Node000002"><a xlink:title=" ">
<path fill="none" stroke="#63b8ff" d="M192.53,-231.07C129.76,-225.24 36.38,-212.17 14.38,-185 4.35,-172.63 8.24,-154.29 13.68,-140.44"/>
<polygon fill="#63b8ff" stroke="#63b8ff" points="16.8,-142.02 17.72,-131.46 10.42,-139.14 16.8,-142.02"/>
</a>
</g>
</g>
<!-- Node3 -->
<g id="Node000003" class="node">
<title>Node3</title>
<g id="a_Node000003"><a xlink:href="freepad_8h.html" target="_top" xlink:title=" ">
<polygon fill="white" stroke="#666666" points="79.25,-185 23.5,-185 23.5,-165.75 79.25,-165.75 79.25,-185"/>
<text text-anchor="middle" x="51.38" y="-171.5" font-family="Helvetica,sans-Serif" font-size="10.00">freepad.h</text>
</a>
</g>
</g>
<!-- Node1&#45;&gt;Node3 -->
<g id="edge2_Node000001_Node000003" class="edge">
<title>Node1&#45;&gt;Node3</title>
<g id="a_edge2_Node000001_Node000003"><a xlink:title=" ">
<path fill="none" stroke="#63b8ff" d="M201.42,-220.55C167.21,-210.47 122.47,-197.3 90.77,-187.97"/>
<polygon fill="#63b8ff" stroke="#63b8ff" points="91.76,-184.62 81.18,-185.15 89.78,-191.33 91.76,-184.62"/>
</a>
</g>
</g>
<!-- Node4 -->
<g id="Node000004" class="node">
<title>Node4</title>
<g id="a_Node000004"><a xlink:href="irx_8h.html" target="_top" xlink:title=" ">
<polygon fill="white" stroke="#666666" points="270,-129.75 236.75,-129.75 236.75,-110.5 270,-110.5 270,-129.75"/>
<text text-anchor="middle" x="253.38" y="-116.25" font-family="Helvetica,sans-Serif" font-size="10.00">irx.h</text>
</a>
</g>
</g>
<!-- Node1&#45;&gt;Node4 -->
<g id="edge24_Node000001_Node000004" class="edge">
<title>Node1&#45;&gt;Node4</title>
<g id="a_edge24_Node000001_Node000004"><a xlink:title=" ">
<path fill="none" stroke="#63b8ff" d="M251.63,-220.8C251.98,-200.75 252.62,-164.4 253.02,-141.57"/>
<polygon fill="#63b8ff" stroke="#63b8ff" points="256.51,-141.77 253.19,-131.71 249.51,-141.65 256.51,-141.77"/>
</a>
</g>
</g>
<!-- Node8 -->
<g id="Node000008" class="node">
<title>Node8</title>
<g id="a_Node000008"><a xlink:href="stdio_8h.html" target="_top" xlink:title=" ">
<polygon fill="white" stroke="#666666" points="394.62,-185 350.12,-185 350.12,-165.75 394.62,-165.75 394.62,-185"/>
<text text-anchor="middle" x="372.38" y="-171.5" font-family="Helvetica,sans-Serif" font-size="10.00">stdio.h</text>
</a>
</g>
</g>
<!-- Node1&#45;&gt;Node8 -->
<g id="edge8_Node000001_Node000008" class="edge">
<title>Node1&#45;&gt;Node8</title>
<g id="a_edge8_Node000001_Node000008"><a xlink:title=" ">
<path fill="none" stroke="#63b8ff" d="M281.6,-220.55C300.56,-211.32 324.86,-199.5 343.55,-190.4"/>
<polygon fill="#63b8ff" stroke="#63b8ff" points="345,-193.59 352.46,-186.07 341.93,-187.29 345,-193.59"/>
</a>
</g>
</g>
<!-- Node10 -->
<g id="Node000010" class="node">
<title>Node10</title>
<g id="a_Node000010"><a xlink:href="sio2_cmds_8h.html" target="_top" xlink:title=" ">
<polygon fill="white" stroke="#666666" points="557.88,-185 490.88,-185 490.88,-165.75 557.88,-165.75 557.88,-185"/>
<text text-anchor="middle" x="524.38" y="-171.5" font-family="Helvetica,sans-Serif" font-size="10.00">sio2Cmds.h</text>
</a>
</g>
</g>
<!-- Node1&#45;&gt;Node10 -->
<g id="edge11_Node000001_Node000010" class="edge">
<title>Node1&#45;&gt;Node10</title>
<g id="a_edge11_Node000001_Node000010"><a xlink:title=" ">
<path fill="none" stroke="#63b8ff" d="M310.28,-222.55C361,-211.61 433.12,-196.05 479.34,-186.09"/>
<polygon fill="#63b8ff" stroke="#63b8ff" points="479.98,-189.53 489.02,-184 478.51,-182.69 479.98,-189.53"/>
</a>
</g>
</g>
<!-- Node11 -->
<g id="Node000011" class="node">
<title>Node11</title>
<g id="a_Node000011"><a xlink:href="sysmem_8h.html" target="_top" xlink:title=" ">
<polygon fill="white" stroke="#666666" points="472.5,-185 412.25,-185 412.25,-165.75 472.5,-165.75 472.5,-185"/>
<text text-anchor="middle" x="442.38" y="-171.5" font-family="Helvetica,sans-Serif" font-size="10.00">sysmem.h</text>
</a>
</g>
</g>
<!-- Node1&#45;&gt;Node11 -->
<g id="edge12_Node000001_Node000011" class="edge">
<title>Node1&#45;&gt;Node11</title>
<g id="a_edge12_Node000001_Node000011"><a xlink:title=" ">
<path fill="none" stroke="#63b8ff" d="M299.08,-220.55C330.73,-210.79 371.81,-198.13 401.86,-188.86"/>
<polygon fill="#63b8ff" stroke="#63b8ff" points="402.83,-192.23 411.36,-185.94 400.77,-185.54 402.83,-192.23"/>
</a>
</g>
</g>
<!-- Node12 -->
<g id="Node000012" class="node">
<title>Node12</title>
<g id="a_Node000012"><a xlink:href="thevent_8h.html" target="_top" xlink:title=" ">
<polygon fill="white" stroke="#666666" points="153.25,-185 97.5,-185 97.5,-165.75 153.25,-165.75 153.25,-185"/>
<text text-anchor="middle" x="125.38" y="-171.5" font-family="Helvetica,sans-Serif" font-size="10.00">thevent.h</text>
</a>
</g>
</g>
<!-- Node1&#45;&gt;Node12 -->
<g id="edge16_Node000001_Node000012" class="edge">
<title>Node1&#45;&gt;Node12</title>
<g id="a_edge16_Node000001_Node000012"><a xlink:title=" ">
<path fill="none" stroke="#63b8ff" d="M219.9,-220.55C200.07,-211.28 174.62,-199.38 155.12,-190.27"/>
<polygon fill="#63b8ff" stroke="#63b8ff" points="156.61,-187.11 146.07,-186.04 153.65,-193.45 156.61,-187.11"/>
</a>
</g>
</g>
<!-- Node13 -->
<g id="Node000013" class="node">
<title>Node13</title>
<g id="a_Node000013"><a xlink:href="thbase_8h.html" target="_top" xlink:title=" ">
<polygon fill="white" stroke="#666666" points="331.75,-185 279,-185 279,-165.75 331.75,-165.75 331.75,-185"/>
<text text-anchor="middle" x="305.38" y="-171.5" font-family="Helvetica,sans-Serif" font-size="10.00">thbase.h</text>
</a>
</g>
</g>
<!-- Node1&#45;&gt;Node13 -->
<g id="edge19_Node000001_Node000013" class="edge">
<title>Node1&#45;&gt;Node13</title>
<g id="a_edge19_Node000001_Node000013"><a xlink:title=" ">
<path fill="none" stroke="#63b8ff" d="M264.72,-220.7C272.15,-212.59 281.46,-202.45 289.29,-193.91"/>
<polygon fill="#63b8ff" stroke="#63b8ff" points="291.85,-196.3 296.03,-186.57 286.69,-191.57 291.85,-196.3"/>
</a>
</g>
</g>
<!-- Node14 -->
<g id="Node000014" class="node">
<title>Node14</title>
<g id="a_Node000014"><a xlink:href="vblank_8h.html" target="_top" xlink:title=" ">
<polygon fill="white" stroke="#666666" points="223.38,-185 171.38,-185 171.38,-165.75 223.38,-165.75 223.38,-185"/>
<text text-anchor="middle" x="197.38" y="-171.5" font-family="Helvetica,sans-Serif" font-size="10.00">vblank.h</text>
</a>
</g>
</g>
<!-- Node1&#45;&gt;Node14 -->
<g id="edge22_Node000001_Node000014" class="edge">
<title>Node1&#45;&gt;Node14</title>
<g id="a_edge22_Node000001_Node000014"><a xlink:title=" ">
<path fill="none" stroke="#63b8ff" d="M238.03,-220.7C230.6,-212.59 221.29,-202.45 213.46,-193.91"/>
<polygon fill="#63b8ff" stroke="#63b8ff" points="216.06,-191.57 206.72,-186.57 210.9,-196.3 216.06,-191.57"/>
</a>
</g>
</g>
<!-- Node3&#45;&gt;Node2 -->
<g id="edge7_Node000003_Node000002" class="edge">
<title>Node3&#45;&gt;Node2</title>
<g id="a_edge7_Node000003_Node000002"><a xlink:title=" ">
<path fill="none" stroke="#63b8ff" d="M46.75,-165.58C43.13,-158.69 37.95,-148.84 33.38,-140.16"/>
<polygon fill="#63b8ff" stroke="#63b8ff" points="36.56,-138.67 28.8,-131.45 30.36,-141.93 36.56,-138.67"/>
</a>
</g>
</g>
<!-- Node3&#45;&gt;Node4 -->
<g id="edge3_Node000003_Node000004" class="edge">
<title>Node3&#45;&gt;Node4</title>
<g id="a_edge3_Node000003_Node000004"><a xlink:title=" ">
<path fill="none" stroke="#63b8ff" d="M79.46,-166.97C118.07,-156.79 187.12,-138.59 225.58,-128.45"/>
<polygon fill="#63b8ff" stroke="#63b8ff" points="226.22,-131.9 235,-125.97 224.44,-125.13 226.22,-131.9"/>
</a>
</g>
</g>
<!-- Node5 -->
<g id="Node000005" class="node">
<title>Node5</title>
<g id="a_Node000005"><a xlink:href="iop_2kernel_2include_2types_8h_source.html" target="_top" xlink:title=" ">
<polygon fill="white" stroke="#666666" points="303.75,-74.5 257,-74.5 257,-55.25 303.75,-55.25 303.75,-74.5"/>
<text text-anchor="middle" x="280.38" y="-61" font-family="Helvetica,sans-Serif" font-size="10.00">types.h</text>
</a>
</g>
</g>
<!-- Node4&#45;&gt;Node5 -->
<g id="edge4_Node000004_Node000005" class="edge">
<title>Node4&#45;&gt;Node5</title>
<g id="a_edge4_Node000004_Node000005"><a xlink:title=" ">
<path fill="none" stroke="#63b8ff" d="M257.83,-110.33C261.33,-103.44 266.32,-93.59 270.72,-84.91"/>
<polygon fill="#63b8ff" stroke="#63b8ff" points="273.73,-86.71 275.14,-76.21 267.49,-83.55 273.73,-86.71"/>
</a>
</g>
</g>
<!-- Node6 -->
<g id="Node000006" class="node">
<title>Node6</title>
<g id="a_Node000006"><a xlink:title=" ">
<polygon fill="#e0e0e0" stroke="#999999" points="268.62,-19.25 218.12,-19.25 218.12,0 268.62,0 268.62,-19.25"/>
<text text-anchor="middle" x="243.38" y="-5.75" font-family="Helvetica,sans-Serif" font-size="10.00">stddef.h</text>
</a>
</g>
</g>
<!-- Node5&#45;&gt;Node6 -->
<g id="edge5_Node000005_Node000006" class="edge">
<title>Node5&#45;&gt;Node6</title>
<g id="a_edge5_Node000005_Node000006"><a xlink:title=" ">
<path fill="none" stroke="#63b8ff" d="M274.27,-55.08C269.31,-47.96 262.17,-37.68 256,-28.8"/>
<polygon fill="#63b8ff" stroke="#63b8ff" points="259.06,-27.07 250.48,-20.85 253.31,-31.06 259.06,-27.07"/>
</a>
</g>
</g>
<!-- Node7 -->
<g id="Node000007" class="node">
<title>Node7</title>
<g id="a_Node000007"><a xlink:href="tamtypes_8h.html" target="_top" xlink:title=" ">
<polygon fill="white" stroke="#666666" points="350,-19.25 286.75,-19.25 286.75,0 350,0 350,-19.25"/>
<text text-anchor="middle" x="318.38" y="-5.75" font-family="Helvetica,sans-Serif" font-size="10.00">tamtypes.h</text>
</a>
</g>
</g>
<!-- Node5&#45;&gt;Node7 -->
<g id="edge6_Node000005_Node000007" class="edge">
<title>Node5&#45;&gt;Node7</title>
<g id="a_edge6_Node000005_Node000007"><a xlink:title=" ">
<path fill="none" stroke="#63b8ff" d="M286.65,-55.08C291.73,-47.96 299.07,-37.68 305.41,-28.8"/>
<polygon fill="#63b8ff" stroke="#63b8ff" points="308.12,-31.01 311.08,-20.84 302.43,-26.95 308.12,-31.01"/>
</a>
</g>
</g>
<!-- Node8&#45;&gt;Node4 -->
<g id="edge10_Node000008_Node000004" class="edge">
<title>Node8&#45;&gt;Node4</title>
<g id="a_edge10_Node000008_Node000004"><a xlink:title=" ">
<path fill="none" stroke="#63b8ff" d="M352.19,-165.34C332.45,-156.51 302.26,-143 280.44,-133.24"/>
<polygon fill="#63b8ff" stroke="#63b8ff" points="282.13,-130.16 271.57,-129.27 279.27,-136.55 282.13,-130.16"/>
</a>
</g>
</g>
<!-- Node9 -->
<g id="Node000009" class="node">
<title>Node9</title>
<g id="a_Node000009"><a xlink:title=" ">
<polygon fill="#e0e0e0" stroke="#999999" points="401.62,-129.75 351.12,-129.75 351.12,-110.5 401.62,-110.5 401.62,-129.75"/>
<text text-anchor="middle" x="376.38" y="-116.25" font-family="Helvetica,sans-Serif" font-size="10.00">stdarg.h</text>
</a>
</g>
</g>
<!-- Node8&#45;&gt;Node9 -->
<g id="edge9_Node000008_Node000009" class="edge">
<title>Node8&#45;&gt;Node9</title>
<g id="a_edge9_Node000008_Node000009"><a xlink:title=" ">
<path fill="none" stroke="#63b8ff" d="M373.04,-165.58C373.53,-158.99 374.23,-149.71 374.86,-141.32"/>
<polygon fill="#63b8ff" stroke="#63b8ff" points="378.33,-141.85 375.59,-131.62 371.35,-141.33 378.33,-141.85"/>
</a>
</g>
</g>
<!-- Node11&#45;&gt;Node4 -->
<g id="edge14_Node000011_Node000004" class="edge">
<title>Node11&#45;&gt;Node4</title>
<g id="a_edge14_Node000011_Node000004"><a xlink:title=" ">
<path fill="none" stroke="#63b8ff" d="M412.01,-165.82C375.82,-155.62 315.88,-138.73 280.96,-128.9"/>
<polygon fill="#63b8ff" stroke="#63b8ff" points="282.18,-125.6 271.61,-126.26 280.28,-132.34 282.18,-125.6"/>
</a>
</g>
</g>
<!-- Node11&#45;&gt;Node5 -->
<g id="edge13_Node000011_Node000005" class="edge">
<title>Node11&#45;&gt;Node5</title>
<g id="a_edge13_Node000011_Node000005"><a xlink:title=" ">
<path fill="none" stroke="#63b8ff" d="M440.28,-165.62C436.57,-151.95 427.55,-125.52 410.38,-110.5 383.54,-87.03 343.74,-75.76 315.26,-70.44"/>
<polygon fill="#63b8ff" stroke="#63b8ff" points="316.13,-67.03 305.68,-68.81 314.96,-73.93 316.13,-67.03"/>
</a>
</g>
</g>
<!-- Node11&#45;&gt;Node9 -->
<g id="edge15_Node000011_Node000009" class="edge">
<title>Node11&#45;&gt;Node9</title>
<g id="a_edge15_Node000011_Node000009"><a xlink:title=" ">
<path fill="none" stroke="#63b8ff" d="M431.18,-165.34C421.64,-157.65 407.7,-146.4 396.27,-137.18"/>
<polygon fill="#63b8ff" stroke="#63b8ff" points="398.56,-134.53 388.58,-130.98 394.17,-139.98 398.56,-134.53"/>
</a>
</g>
</g>
<!-- Node12&#45;&gt;Node4 -->
<g id="edge18_Node000012_Node000004" class="edge">
<title>Node12&#45;&gt;Node4</title>
<g id="a_edge18_Node000012_Node000004"><a xlink:title=" ">
<path fill="none" stroke="#63b8ff" d="M147.09,-165.34C168.89,-156.27 202.53,-142.28 226.11,-132.47"/>
<polygon fill="#63b8ff" stroke="#63b8ff" points="227.18,-135.81 235.07,-128.74 224.5,-129.35 227.18,-135.81"/>
</a>
</g>
</g>
<!-- Node12&#45;&gt;Node5 -->
<g id="edge17_Node000012_Node000005" class="edge">
<title>Node12&#45;&gt;Node5</title>
<g id="a_edge17_Node000012_Node000005"><a xlink:title=" ">
<path fill="none" stroke="#63b8ff" d="M138.32,-165.31C164.83,-146.76 225.54,-104.26 258.35,-81.29"/>
<polygon fill="#63b8ff" stroke="#63b8ff" points="260.15,-84.31 266.33,-75.7 256.13,-78.57 260.15,-84.31"/>
</a>
</g>
</g>
<!-- Node13&#45;&gt;Node4 -->
<g id="edge21_Node000013_Node000004" class="edge">
<title>Node13&#45;&gt;Node4</title>
<g id="a_edge21_Node000013_Node000004"><a xlink:title=" ">
<path fill="none" stroke="#63b8ff" d="M296.79,-165.58C289.53,-158.15 278.92,-147.29 270.01,-138.16"/>
<polygon fill="#63b8ff" stroke="#63b8ff" points="272.7,-135.9 263.21,-131.19 267.69,-140.79 272.7,-135.9"/>
</a>
</g>
</g>
<!-- Node13&#45;&gt;Node5 -->
<g id="edge20_Node000013_Node000005" class="edge">
<title>Node13&#45;&gt;Node5</title>
<g id="a_edge20_Node000013_Node000005"><a xlink:title=" ">
<path fill="none" stroke="#63b8ff" d="M303.33,-165.5C299.36,-148.25 290.5,-109.83 285.03,-86.06"/>
<polygon fill="#63b8ff" stroke="#63b8ff" points="288.44,-85.31 282.79,-76.35 281.62,-86.88 288.44,-85.31"/>
</a>
</g>
</g>
<!-- Node14&#45;&gt;Node4 -->
<g id="edge23_Node000014_Node000004" class="edge">
<title>Node14&#45;&gt;Node4</title>
<g id="a_edge23_Node000014_Node000004"><a xlink:title=" ">
<path fill="none" stroke="#63b8ff" d="M206.87,-165.34C214.81,-157.8 226.32,-146.85 235.91,-137.73"/>
<polygon fill="#63b8ff" stroke="#63b8ff" points="238.08,-140.49 242.92,-131.07 233.26,-135.42 238.08,-140.49"/>
</a>
</g>
</g>
</g>
</svg>
