<?xml version="1.0" encoding="UTF-8" standalone="no"?>
<!DOCTYPE svg PUBLIC "-//W3C//DTD SVG 1.1//EN"
 "http://www.w3.org/Graphics/SVG/1.1/DTD/svg11.dtd">
<!-- Generated by graphviz version 2.43.0 (0)
 -->
<!-- Title: iop/input/padman/src/padData.h Pages: 1 -->
<svg width="538pt" height="106pt"
 viewBox="0.00 0.00 538.00 106.00" xmlns="http://www.w3.org/2000/svg" xmlns:xlink="http://www.w3.org/1999/xlink">
<g id="graph0" class="graph" transform="scale(1 1) rotate(0) translate(4 102)">
<title>iop/input/padman/src/padData.h</title>
<polygon fill="white" stroke="transparent" points="-4,4 -4,-102 534,-102 534,4 -4,4"/>
<!-- Node1 -->
<g id="node1" class="node">
<title>Node1</title>
<g id="a_node1"><a xlink:title=" ">
<polygon fill="#bfbfbf" stroke="black" points="205,-67.5 205,-97.5 324,-97.5 324,-67.5 205,-67.5"/>
<text text-anchor="start" x="213" y="-85.5" font-family="Helvetica,sans-Serif" font-size="10.00">iop/input/padman/src</text>
<text text-anchor="middle" x="264.5" y="-74.5" font-family="Helvetica,sans-Serif" font-size="10.00">/padData.h</text>
</a>
</g>
</g>
<!-- Node2 -->
<g id="node2" class="node">
<title>Node2</title>
<g id="a_node2"><a xlink:href="pad_cmds_8c.html" target="_top" xlink:title=" ">
<polygon fill="white" stroke="black" points="0,-0.5 0,-30.5 119,-30.5 119,-0.5 0,-0.5"/>
<text text-anchor="start" x="8" y="-18.5" font-family="Helvetica,sans-Serif" font-size="10.00">iop/input/padman/src</text>
<text text-anchor="middle" x="59.5" y="-7.5" font-family="Helvetica,sans-Serif" font-size="10.00">/padCmds.c</text>
</a>
</g>
</g>
<!-- Node1&#45;&gt;Node2 -->
<g id="edge1" class="edge">
<title>Node1&#45;&gt;Node2</title>
<path fill="none" stroke="midnightblue" d="M210.71,-64.44C177.48,-53.91 135.35,-40.55 104,-30.61"/>
<polygon fill="midnightblue" stroke="midnightblue" points="209.68,-67.79 220.27,-67.48 211.8,-61.12 209.68,-67.79"/>
</g>
<!-- Node3 -->
<g id="node3" class="node">
<title>Node3</title>
<g id="a_node3"><a xlink:href="pad_data_8c.html" target="_top" xlink:title=" ">
<polygon fill="white" stroke="black" points="137,-0.5 137,-30.5 256,-30.5 256,-0.5 137,-0.5"/>
<text text-anchor="start" x="145" y="-18.5" font-family="Helvetica,sans-Serif" font-size="10.00">iop/input/padman/src</text>
<text text-anchor="middle" x="196.5" y="-7.5" font-family="Helvetica,sans-Serif" font-size="10.00">/padData.c</text>
</a>
</g>
</g>
<!-- Node1&#45;&gt;Node3 -->
<g id="edge2" class="edge">
<title>Node1&#45;&gt;Node3</title>
<path fill="none" stroke="midnightblue" d="M242.33,-60.31C232.13,-50.56 220.31,-39.26 211.23,-30.58"/>
<polygon fill="midnightblue" stroke="midnightblue" points="240.1,-63.02 249.75,-67.4 244.93,-57.96 240.1,-63.02"/>
</g>
<!-- Node4 -->
<g id="node4" class="node">
<title>Node4</title>
<g id="a_node4"><a xlink:href="pad_init_8c.html" target="_top" xlink:title=" ">
<polygon fill="white" stroke="black" points="274,-0.5 274,-30.5 393,-30.5 393,-0.5 274,-0.5"/>
<text text-anchor="start" x="282" y="-18.5" font-family="Helvetica,sans-Serif" font-size="10.00">iop/input/padman/src</text>
<text text-anchor="middle" x="333.5" y="-7.5" font-family="Helvetica,sans-Serif" font-size="10.00">/padInit.c</text>
</a>
</g>
</g>
<!-- Node1&#45;&gt;Node4 -->
<g id="edge3" class="edge">
<title>Node1&#45;&gt;Node4</title>
<path fill="none" stroke="midnightblue" d="M286.99,-60.31C297.34,-50.56 309.34,-39.26 318.56,-30.58"/>
<polygon fill="midnightblue" stroke="midnightblue" points="284.35,-57.99 279.47,-67.4 289.15,-63.09 284.35,-57.99"/>
</g>
<!-- Node5 -->
<g id="node5" class="node">
<title>Node5</title>
<g id="a_node5"><a xlink:href="pad_port_open_8c.html" target="_top" xlink:title=" ">
<polygon fill="white" stroke="black" points="411,-0.5 411,-30.5 530,-30.5 530,-0.5 411,-0.5"/>
<text text-anchor="start" x="419" y="-18.5" font-family="Helvetica,sans-Serif" font-size="10.00">iop/input/padman/src</text>
<text text-anchor="middle" x="470.5" y="-7.5" font-family="Helvetica,sans-Serif" font-size="10.00">/padPortOpen.c</text>
</a>
</g>
</g>
<!-- Node1&#45;&gt;Node5 -->
<g id="edge4" class="edge">
<title>Node1&#45;&gt;Node5</title>
<path fill="none" stroke="midnightblue" d="M318.55,-64.44C351.95,-53.91 394.28,-40.55 425.78,-30.61"/>
<polygon fill="midnightblue" stroke="midnightblue" points="317.43,-61.13 308.95,-67.48 319.54,-67.8 317.43,-61.13"/>
</g>
</g>
</svg>
