<?xml version="1.0" encoding="UTF-8" standalone="no"?>
<!DOCTYPE svg PUBLIC "-//W3C//DTD SVG 1.1//EN"
 "http://www.w3.org/Graphics/SVG/1.1/DTD/svg11.dtd">
<!-- Generated by graphviz version 2.43.0 (0)
 -->
<!-- Title: ee/sbv/src/patch_enable_lmb.c Pages: 1 -->
<!--zoomable 319 -->
<svg id="main" version="1.1" xmlns="http://www.w3.org/2000/svg" xmlns:xlink="http://www.w3.org/1999/xlink" xml:space="preserve" onload="init(evt)">
<style type="text/css"><![CDATA[
.edge:hover path { stroke: red; }
.edge:hover polygon { stroke: red; fill: red; }
]]></style>
<script type="text/javascript"><![CDATA[
var edges = document.getElementsByTagName('g');
if (edges && edges.length) {
  for (var i=0;i<edges.length;i++) {
    if (edges[i].id.substr(0,4)=='edge') {
      edges[i].setAttribute('class','edge');
    }
  }
}
]]></script>
        <defs>
                <circle id="rim" cx="0" cy="0" r="7"/>
                <circle id="rim2" cx="0" cy="0" r="3.5"/>
                <g id="zoomPlus">
                        <use xlink:href="#rim" fill="#404040">
                                <set attributeName="fill" to="#808080" begin="zoomplus.mouseover" end="zoomplus.mouseout"/>
                        </use>
                        <path d="M-4,0h8M0,-4v8" fill="none" stroke="white" stroke-width="1.5" pointer-events="none"/>
                </g>
                <g id="zoomMin">
                        <use xlink:href="#rim" fill="#404040">
                                <set attributeName="fill" to="#808080" begin="zoomminus.mouseover" end="zoomminus.mouseout"/>
                        </use>
                        <path d="M-4,0h8" fill="none" stroke="white" stroke-width="1.5" pointer-events="none"/>
                </g>
                <g id="dirArrow">
                        <path fill="none" stroke="white" stroke-width="1.5" d="M0,-3.0v7 M-2.5,-0.5L0,-3.0L2.5,-0.5"/>
                </g>
               <g id="resetDef">
                       <use xlink:href="#rim2" fill="#404040">
                               <set attributeName="fill" to="#808080" begin="reset.mouseover" end="reset.mouseout"/>
                       </use>
               </g>
        </defs>

<script type="text/javascript">
var viewWidth = 679;
var viewHeight = 319;
var sectionId = 'dynsection-0';
</script>
<script xlink:href="svgpan.js"/>
<svg id="graph" class="graph">
<g id="viewport">
<title>ee/sbv/src/patch_enable_lmb.c</title>
<polygon fill="white" stroke="transparent" points="-4,4 -4,-315 675,-315 675,4 -4,4"/>
<!-- Node1 -->
<g id="node1" class="node">
<title>Node1</title>
<g id="a_node1"><a xlink:title=" ">
<polygon fill="#bfbfbf" stroke="black" points="210,-280.5 210,-310.5 344,-310.5 344,-280.5 210,-280.5"/>
<text text-anchor="start" x="218" y="-298.5" font-family="Helvetica,sans-Serif" font-size="10.00">ee/sbv/src/patch_enable</text>
<text text-anchor="middle" x="277" y="-287.5" font-family="Helvetica,sans-Serif" font-size="10.00">_lmb.c</text>
</a>
</g>
</g>
<!-- Node2 -->
<g id="node2" class="node">
<title>Node2</title>
<g id="a_node2"><a xlink:href="tamtypes_8h.html" target="_top" xlink:title=" ">
<polygon fill="white" stroke="black" points="226,-0.5 226,-19.5 298,-19.5 298,-0.5 226,-0.5"/>
<text text-anchor="middle" x="262" y="-7.5" font-family="Helvetica,sans-Serif" font-size="10.00">tamtypes.h</text>
</a>
</g>
</g>
<!-- Node1&#45;&gt;Node2 -->
<g id="edge1" class="edge">
<title>Node1&#45;&gt;Node2</title>
<path fill="none" stroke="midnightblue" d="M209.66,-290.32C173.64,-284.67 131.05,-272 103,-244 81.7,-222.74 84,-209.1 84,-179 84,-179 84,-179 84,-121 84,-58.89 163.4,-30.67 216.14,-18.79"/>
<polygon fill="midnightblue" stroke="midnightblue" points="216.93,-22.2 225.98,-16.69 215.47,-15.35 216.93,-22.2"/>
</g>
<!-- Node3 -->
<g id="node3" class="node">
<title>Node3</title>
<g id="a_node3"><a xlink:href="kernel_8h.html" target="_top" xlink:title=" ">
<polygon fill="white" stroke="black" points="412,-112.5 412,-131.5 468,-131.5 468,-112.5 412,-112.5"/>
<text text-anchor="middle" x="440" y="-119.5" font-family="Helvetica,sans-Serif" font-size="10.00">kernel.h</text>
</a>
</g>
</g>
<!-- Node1&#45;&gt;Node3 -->
<g id="edge2" class="edge">
<title>Node1&#45;&gt;Node3</title>
<path fill="none" stroke="midnightblue" d="M323.26,-280.43C343.59,-272.39 366.53,-260.54 383,-244 412.25,-214.63 428.42,-167.39 435.53,-141.48"/>
<polygon fill="midnightblue" stroke="midnightblue" points="438.92,-142.35 438.04,-131.79 432.14,-140.6 438.92,-142.35"/>
</g>
<!-- Node8 -->
<g id="node8" class="node">
<title>Node8</title>
<g id="a_node8"><a xlink:href="iopheap_8h.html" target="_top" xlink:title=" ">
<polygon fill="white" stroke="black" points="112.5,-224.5 112.5,-243.5 177.5,-243.5 177.5,-224.5 112.5,-224.5"/>
<text text-anchor="middle" x="145" y="-231.5" font-family="Helvetica,sans-Serif" font-size="10.00">iopheap.h</text>
</a>
</g>
</g>
<!-- Node1&#45;&gt;Node8 -->
<g id="edge9" class="edge">
<title>Node1&#45;&gt;Node8</title>
<path fill="none" stroke="midnightblue" d="M245.72,-280.4C223.77,-270.51 194.66,-257.38 173.38,-247.79"/>
<polygon fill="midnightblue" stroke="midnightblue" points="174.76,-244.58 164.21,-243.66 171.89,-250.96 174.76,-244.58"/>
</g>
<!-- Node9 -->
<g id="node9" class="node">
<title>Node9</title>
<g id="a_node9"><a xlink:title=" ">
<polygon fill="white" stroke="#bfbfbf" points="195.5,-224.5 195.5,-243.5 248.5,-243.5 248.5,-224.5 195.5,-224.5"/>
<text text-anchor="middle" x="222" y="-231.5" font-family="Helvetica,sans-Serif" font-size="10.00">sifrpc.h</text>
</a>
</g>
</g>
<!-- Node1&#45;&gt;Node9 -->
<g id="edge10" class="edge">
<title>Node1&#45;&gt;Node9</title>
<path fill="none" stroke="midnightblue" d="M263.97,-280.4C255.81,-271.58 245.28,-260.18 236.81,-251.02"/>
<polygon fill="midnightblue" stroke="midnightblue" points="239.36,-248.63 230,-243.66 234.22,-253.38 239.36,-248.63"/>
</g>
<!-- Node10 -->
<g id="node10" class="node">
<title>Node10</title>
<g id="a_node10"><a xlink:href="string_8h_source.html" target="_top" xlink:title=" ">
<polygon fill="white" stroke="black" points="305.5,-224.5 305.5,-243.5 358.5,-243.5 358.5,-224.5 305.5,-224.5"/>
<text text-anchor="middle" x="332" y="-231.5" font-family="Helvetica,sans-Serif" font-size="10.00">string.h</text>
</a>
</g>
</g>
<!-- Node1&#45;&gt;Node10 -->
<g id="edge11" class="edge">
<title>Node1&#45;&gt;Node10</title>
<path fill="none" stroke="midnightblue" d="M290.03,-280.4C298.19,-271.58 308.72,-260.18 317.19,-251.02"/>
<polygon fill="midnightblue" stroke="midnightblue" points="319.78,-253.38 324,-243.66 314.64,-248.63 319.78,-253.38"/>
</g>
<!-- Node17 -->
<g id="node17" class="node">
<title>Node17</title>
<g id="a_node17"><a xlink:href="smem_8h.html" target="_top" xlink:title=" ">
<polygon fill="white" stroke="black" points="0,-168.5 0,-187.5 56,-187.5 56,-168.5 0,-168.5"/>
<text text-anchor="middle" x="28" y="-175.5" font-family="Helvetica,sans-Serif" font-size="10.00">smem.h</text>
</a>
</g>
</g>
<!-- Node1&#45;&gt;Node17 -->
<g id="edge22" class="edge">
<title>Node1&#45;&gt;Node17</title>
<path fill="none" stroke="midnightblue" d="M209.74,-290.78C166.45,-285.5 110.85,-273.05 70,-244 53.61,-232.35 42.03,-212.1 35.24,-197.29"/>
<polygon fill="midnightblue" stroke="midnightblue" points="38.28,-195.5 31.14,-187.67 31.84,-198.24 38.28,-195.5"/>
</g>
<!-- Node18 -->
<g id="node18" class="node">
<title>Node18</title>
<g id="a_node18"><a xlink:href="smod_8h.html" target="_top" xlink:title=" ">
<polygon fill="white" stroke="black" points="156.5,-168.5 156.5,-187.5 209.5,-187.5 209.5,-168.5 156.5,-168.5"/>
<text text-anchor="middle" x="183" y="-175.5" font-family="Helvetica,sans-Serif" font-size="10.00">smod.h</text>
</a>
</g>
</g>
<!-- Node1&#45;&gt;Node18 -->
<g id="edge24" class="edge">
<title>Node1&#45;&gt;Node18</title>
<path fill="none" stroke="midnightblue" d="M276.03,-280.44C274.35,-265.16 269.71,-240.71 257,-224 246.32,-209.96 229.89,-199.34 215.22,-191.95"/>
<polygon fill="midnightblue" stroke="midnightblue" points="216.45,-188.66 205.92,-187.56 213.47,-194.99 216.45,-188.66"/>
</g>
<!-- Node19 -->
<g id="node19" class="node">
<title>Node19</title>
<g id="a_node19"><a xlink:href="slib_8h.html" target="_top" xlink:title=" ">
<polygon fill="white" stroke="black" points="343.5,-168.5 343.5,-187.5 386.5,-187.5 386.5,-168.5 343.5,-168.5"/>
<text text-anchor="middle" x="365" y="-175.5" font-family="Helvetica,sans-Serif" font-size="10.00">slib.h</text>
</a>
</g>
</g>
<!-- Node1&#45;&gt;Node19 -->
<g id="edge26" class="edge">
<title>Node1&#45;&gt;Node19</title>
<path fill="none" stroke="midnightblue" d="M322.18,-280.34C339.35,-272.51 357.13,-260.85 367,-244 375.19,-230.01 373.56,-211.26 370.56,-197.49"/>
<polygon fill="midnightblue" stroke="midnightblue" points="373.91,-196.5 368.01,-187.71 367.14,-198.27 373.91,-196.5"/>
</g>
<!-- Node20 -->
<g id="node20" class="node">
<title>Node20</title>
<g id="a_node20"><a xlink:href="ee_2sbv_2src_2common_8h_source.html" target="_top" xlink:title=" ">
<polygon fill="white" stroke="black" points="453,-224.5 453,-243.5 521,-243.5 521,-224.5 453,-224.5"/>
<text text-anchor="middle" x="487" y="-231.5" font-family="Helvetica,sans-Serif" font-size="10.00">common.h</text>
</a>
</g>
</g>
<!-- Node1&#45;&gt;Node20 -->
<g id="edge28" class="edge">
<title>Node1&#45;&gt;Node20</title>
<path fill="none" stroke="midnightblue" d="M326.5,-280.47C363.36,-270.03 413.03,-255.96 447.31,-246.25"/>
<polygon fill="midnightblue" stroke="midnightblue" points="448.31,-249.6 456.98,-243.51 446.4,-242.87 448.31,-249.6"/>
</g>
<!-- Node4 -->
<g id="node4" class="node">
<title>Node4</title>
<g id="a_node4"><a xlink:title=" ">
<polygon fill="white" stroke="#bfbfbf" points="615,-0.5 615,-19.5 671,-19.5 671,-0.5 615,-0.5"/>
<text text-anchor="middle" x="643" y="-7.5" font-family="Helvetica,sans-Serif" font-size="10.00">stddef.h</text>
</a>
</g>
</g>
<!-- Node3&#45;&gt;Node4 -->
<g id="edge3" class="edge">
<title>Node3&#45;&gt;Node4</title>
<path fill="none" stroke="midnightblue" d="M468.41,-116.98C523.49,-108.9 640.45,-90.25 652,-76 662.62,-62.89 657.94,-43.2 652.11,-28.93"/>
<polygon fill="midnightblue" stroke="midnightblue" points="655.22,-27.3 647.87,-19.67 648.85,-30.22 655.22,-27.3"/>
</g>
<!-- Node5 -->
<g id="node5" class="node">
<title>Node5</title>
<g id="a_node5"><a xlink:title=" ">
<polygon fill="white" stroke="#bfbfbf" points="319,-56.5 319,-75.5 375,-75.5 375,-56.5 319,-56.5"/>
<text text-anchor="middle" x="347" y="-63.5" font-family="Helvetica,sans-Serif" font-size="10.00">stdarg.h</text>
</a>
</g>
</g>
<!-- Node3&#45;&gt;Node5 -->
<g id="edge4" class="edge">
<title>Node3&#45;&gt;Node5</title>
<path fill="none" stroke="midnightblue" d="M425.06,-112.32C410.41,-103.82 387.87,-90.73 370.76,-80.8"/>
<polygon fill="midnightblue" stroke="midnightblue" points="372.31,-77.65 361.9,-75.65 368.8,-83.7 372.31,-77.65"/>
</g>
<!-- Node6 -->
<g id="node6" class="node">
<title>Node6</title>
<g id="a_node6"><a xlink:href="sifdma_8h.html" target="_top" xlink:title=" ">
<polygon fill="white" stroke="black" points="393.5,-56.5 393.5,-75.5 452.5,-75.5 452.5,-56.5 393.5,-56.5"/>
<text text-anchor="middle" x="423" y="-63.5" font-family="Helvetica,sans-Serif" font-size="10.00">sifdma.h</text>
</a>
</g>
</g>
<!-- Node3&#45;&gt;Node6 -->
<g id="edge5" class="edge">
<title>Node3&#45;&gt;Node6</title>
<path fill="none" stroke="midnightblue" d="M437.19,-112.08C434.92,-104.85 431.63,-94.41 428.79,-85.4"/>
<polygon fill="midnightblue" stroke="midnightblue" points="432.1,-84.24 425.75,-75.75 425.42,-86.34 432.1,-84.24"/>
</g>
<!-- Node7 -->
<g id="node7" class="node">
<title>Node7</title>
<g id="a_node7"><a xlink:href="mipscopaccess_8h.html" target="_top" xlink:title=" ">
<polygon fill="white" stroke="black" points="471,-56.5 471,-75.5 571,-75.5 571,-56.5 471,-56.5"/>
<text text-anchor="middle" x="521" y="-63.5" font-family="Helvetica,sans-Serif" font-size="10.00">mipscopaccess.h</text>
</a>
</g>
</g>
<!-- Node3&#45;&gt;Node7 -->
<g id="edge7" class="edge">
<title>Node3&#45;&gt;Node7</title>
<path fill="none" stroke="midnightblue" d="M453.01,-112.32C465.53,-103.98 484.68,-91.21 499.47,-81.35"/>
<polygon fill="midnightblue" stroke="midnightblue" points="501.64,-84.11 508.02,-75.65 497.76,-78.29 501.64,-84.11"/>
</g>
<!-- Node6&#45;&gt;Node2 -->
<g id="edge6" class="edge">
<title>Node6&#45;&gt;Node2</title>
<path fill="none" stroke="midnightblue" d="M397.49,-56.44C370.4,-47.36 327.41,-32.94 297.13,-22.78"/>
<polygon fill="midnightblue" stroke="midnightblue" points="297.99,-19.38 287.39,-19.52 295.76,-26.01 297.99,-19.38"/>
</g>
<!-- Node7&#45;&gt;Node2 -->
<g id="edge8" class="edge">
<title>Node7&#45;&gt;Node2</title>
<path fill="none" stroke="midnightblue" d="M479.96,-56.44C433.22,-46.7 357.03,-30.81 308.23,-20.64"/>
<polygon fill="midnightblue" stroke="midnightblue" points="308.75,-17.17 298.25,-18.56 307.33,-24.03 308.75,-17.17"/>
</g>
<!-- Node11 -->
<g id="node11" class="node">
<title>Node11</title>
<g id="a_node11"><a xlink:href="sysclib_8h.html" target="_top" xlink:title=" ">
<polygon fill="white" stroke="black" points="263.5,-168.5 263.5,-187.5 322.5,-187.5 322.5,-168.5 263.5,-168.5"/>
<text text-anchor="middle" x="293" y="-175.5" font-family="Helvetica,sans-Serif" font-size="10.00">sysclib.h</text>
</a>
</g>
</g>
<!-- Node10&#45;&gt;Node11 -->
<g id="edge12" class="edge">
<title>Node10&#45;&gt;Node11</title>
<path fill="none" stroke="midnightblue" d="M325.56,-224.08C320.05,-216.46 311.97,-205.26 305.24,-195.94"/>
<polygon fill="midnightblue" stroke="midnightblue" points="308.01,-193.81 299.32,-187.75 302.34,-197.91 308.01,-193.81"/>
</g>
<!-- Node11&#45;&gt;Node5 -->
<g id="edge18" class="edge">
<title>Node11&#45;&gt;Node5</title>
<path fill="none" stroke="midnightblue" d="M300.74,-168.26C308.09,-159.58 319.03,-145.63 326,-132 333.59,-117.15 339.18,-99 342.67,-85.66"/>
<polygon fill="midnightblue" stroke="midnightblue" points="346.12,-86.31 345.12,-75.76 339.32,-84.63 346.12,-86.31"/>
</g>
<!-- Node12 -->
<g id="node12" class="node">
<title>Node12</title>
<g id="a_node12"><a xlink:title=" ">
<polygon fill="white" stroke="#bfbfbf" points="193.5,-112.5 193.5,-131.5 246.5,-131.5 246.5,-112.5 193.5,-112.5"/>
<text text-anchor="middle" x="220" y="-119.5" font-family="Helvetica,sans-Serif" font-size="10.00">types.h</text>
</a>
</g>
</g>
<!-- Node11&#45;&gt;Node12 -->
<g id="edge13" class="edge">
<title>Node11&#45;&gt;Node12</title>
<path fill="none" stroke="midnightblue" d="M281.27,-168.32C270.16,-160.11 253.26,-147.6 240.02,-137.81"/>
<polygon fill="midnightblue" stroke="midnightblue" points="242.06,-134.97 231.94,-131.83 237.9,-140.59 242.06,-134.97"/>
</g>
<!-- Node13 -->
<g id="node13" class="node">
<title>Node13</title>
<g id="a_node13"><a xlink:href="irx_8h.html" target="_top" xlink:title=" ">
<polygon fill="white" stroke="black" points="517,-112.5 517,-131.5 555,-131.5 555,-112.5 517,-112.5"/>
<text text-anchor="middle" x="536" y="-119.5" font-family="Helvetica,sans-Serif" font-size="10.00">irx.h</text>
</a>
</g>
</g>
<!-- Node11&#45;&gt;Node13 -->
<g id="edge14" class="edge">
<title>Node11&#45;&gt;Node13</title>
<path fill="none" stroke="midnightblue" d="M322.8,-170.38C369.71,-159.95 460.23,-139.84 506.78,-129.49"/>
<polygon fill="midnightblue" stroke="midnightblue" points="507.82,-132.85 516.82,-127.26 506.3,-126.02 507.82,-132.85"/>
</g>
<!-- Node15 -->
<g id="node15" class="node">
<title>Node15</title>
<g id="a_node15"><a xlink:href="setjmp_8h.html" target="_top" xlink:title=" ">
<polygon fill="white" stroke="black" points="187.5,-56.5 187.5,-75.5 246.5,-75.5 246.5,-56.5 187.5,-56.5"/>
<text text-anchor="middle" x="217" y="-63.5" font-family="Helvetica,sans-Serif" font-size="10.00">setjmp.h</text>
</a>
</g>
</g>
<!-- Node11&#45;&gt;Node15 -->
<g id="edge19" class="edge">
<title>Node11&#45;&gt;Node15</title>
<path fill="none" stroke="midnightblue" d="M263.48,-173.79C237.65,-169.24 201.59,-158.29 184,-132 173.41,-116.17 186.67,-96.5 199.4,-82.96"/>
<polygon fill="midnightblue" stroke="midnightblue" points="202.01,-85.3 206.65,-75.78 197.08,-80.33 202.01,-85.3"/>
</g>
<!-- Node16 -->
<g id="node16" class="node">
<title>Node16</title>
<g id="a_node16"><a xlink:href="ctype_8h.html" target="_top" xlink:title=" ">
<polygon fill="white" stroke="black" points="264.5,-112.5 264.5,-131.5 317.5,-131.5 317.5,-112.5 264.5,-112.5"/>
<text text-anchor="middle" x="291" y="-119.5" font-family="Helvetica,sans-Serif" font-size="10.00">ctype.h</text>
</a>
</g>
</g>
<!-- Node11&#45;&gt;Node16 -->
<g id="edge21" class="edge">
<title>Node11&#45;&gt;Node16</title>
<path fill="none" stroke="midnightblue" d="M292.67,-168.08C292.41,-161.01 292.03,-150.86 291.7,-141.99"/>
<polygon fill="midnightblue" stroke="midnightblue" points="295.19,-141.61 291.32,-131.75 288.2,-141.87 295.19,-141.61"/>
</g>
<!-- Node14 -->
<g id="node14" class="node">
<title>Node14</title>
<g id="a_node14"><a xlink:href="iop_2kernel_2include_2types_8h_source.html" target="_top" xlink:title=" ">
<polygon fill="white" stroke="black" points="589.5,-56.5 589.5,-75.5 642.5,-75.5 642.5,-56.5 589.5,-56.5"/>
<text text-anchor="middle" x="616" y="-63.5" font-family="Helvetica,sans-Serif" font-size="10.00">types.h</text>
</a>
</g>
</g>
<!-- Node13&#45;&gt;Node14 -->
<g id="edge15" class="edge">
<title>Node13&#45;&gt;Node14</title>
<path fill="none" stroke="midnightblue" d="M548.85,-112.32C561.22,-103.98 580.13,-91.21 594.74,-81.35"/>
<polygon fill="midnightblue" stroke="midnightblue" points="596.85,-84.15 603.18,-75.65 592.93,-78.35 596.85,-84.15"/>
</g>
<!-- Node14&#45;&gt;Node2 -->
<g id="edge17" class="edge">
<title>Node14&#45;&gt;Node2</title>
<path fill="none" stroke="midnightblue" d="M589.33,-58C586.2,-57.28 583.04,-56.59 580,-56 484.29,-37.32 370.95,-23.16 308.72,-16.06"/>
<polygon fill="midnightblue" stroke="midnightblue" points="308.78,-12.55 298.45,-14.9 307.99,-19.5 308.78,-12.55"/>
</g>
<!-- Node14&#45;&gt;Node4 -->
<g id="edge16" class="edge">
<title>Node14&#45;&gt;Node4</title>
<path fill="none" stroke="midnightblue" d="M620.46,-56.08C624.15,-48.69 629.52,-37.95 634.09,-28.81"/>
<polygon fill="midnightblue" stroke="midnightblue" points="637.28,-30.26 638.62,-19.75 631.02,-27.13 637.28,-30.26"/>
</g>
<!-- Node15&#45;&gt;Node2 -->
<g id="edge20" class="edge">
<title>Node15&#45;&gt;Node2</title>
<path fill="none" stroke="midnightblue" d="M224.43,-56.08C230.85,-48.38 240.31,-37.03 248.12,-27.65"/>
<polygon fill="midnightblue" stroke="midnightblue" points="250.99,-29.67 254.71,-19.75 245.62,-25.19 250.99,-29.67"/>
</g>
<!-- Node17&#45;&gt;Node2 -->
<g id="edge23" class="edge">
<title>Node17&#45;&gt;Node2</title>
<path fill="none" stroke="midnightblue" d="M28.29,-168.47C29.51,-146.33 35.97,-86.67 70,-56 91.13,-36.96 165.73,-23.67 215.48,-16.7"/>
<polygon fill="midnightblue" stroke="midnightblue" points="216.26,-20.13 225.69,-15.31 215.31,-13.19 216.26,-20.13"/>
</g>
<!-- Node18&#45;&gt;Node2 -->
<g id="edge25" class="edge">
<title>Node18&#45;&gt;Node2</title>
<path fill="none" stroke="midnightblue" d="M179.58,-168.27C171.93,-147.17 155.75,-92.42 178,-56 187.29,-40.8 203.62,-30.43 219.43,-23.51"/>
<polygon fill="midnightblue" stroke="midnightblue" points="221.14,-26.59 229.13,-19.63 218.55,-20.09 221.14,-26.59"/>
</g>
<!-- Node19&#45;&gt;Node2 -->
<g id="edge27" class="edge">
<title>Node19&#45;&gt;Node2</title>
<path fill="none" stroke="midnightblue" d="M359.77,-168.13C352.35,-155.57 338.3,-131.94 326,-112 307.74,-82.39 285.96,-48.27 273.1,-28.23"/>
<polygon fill="midnightblue" stroke="midnightblue" points="275.9,-26.12 267.55,-19.6 270.01,-29.91 275.9,-26.12"/>
</g>
</g>
</svg>
        <g id="navigator" transform="translate(0 0)" fill="#404254">
                <rect fill="#f2f5e9" fill-opacity="0.5" stroke="#606060" stroke-width=".5" x="0" y="0" width="60" height="60"/>
                <use id="zoomplus" xlink:href="#zoomPlus" x="17" y="9" onmousedown="handleZoom(evt,'in')"/>
                <use id="zoomminus" xlink:href="#zoomMin" x="42" y="9" onmousedown="handleZoom(evt,'out')"/>
                <use id="reset" xlink:href="#resetDef" x="30" y="36" onmousedown="handleReset()"/>
                <g id="arrowUp" xlink:href="#dirArrow" transform="translate(30 24)" onmousedown="handlePan(0,-1)">
                  <use xlink:href="#rim" fill="#404040">
                        <set attributeName="fill" to="#808080" begin="arrowUp.mouseover" end="arrowUp.mouseout"/>
                  </use>
                  <path fill="none" stroke="white" stroke-width="1.5" d="M0,-3.0v7 M-2.5,-0.5L0,-3.0L2.5,-0.5"/>
                </g>
                <g id="arrowRight" xlink:href="#dirArrow" transform="rotate(90) translate(36 -43)" onmousedown="handlePan(1,0)">
                  <use xlink:href="#rim" fill="#404040">
                        <set attributeName="fill" to="#808080" begin="arrowRight.mouseover" end="arrowRight.mouseout"/>
                  </use>
                  <path fill="none" stroke="white" stroke-width="1.5" d="M0,-3.0v7 M-2.5,-0.5L0,-3.0L2.5,-0.5"/>
                </g>
                <g id="arrowDown" xlink:href="#dirArrow" transform="rotate(180) translate(-30 -48)" onmousedown="handlePan(0,1)">
                  <use xlink:href="#rim" fill="#404040">
                        <set attributeName="fill" to="#808080" begin="arrowDown.mouseover" end="arrowDown.mouseout"/>
                  </use>
                  <path fill="none" stroke="white" stroke-width="1.5" d="M0,-3.0v7 M-2.5,-0.5L0,-3.0L2.5,-0.5"/>
                </g>
                <g id="arrowLeft" xlink:href="#dirArrow" transform="rotate(270) translate(-36 17)" onmousedown="handlePan(-1,0)">
                  <use xlink:href="#rim" fill="#404040">
                        <set attributeName="fill" to="#808080" begin="arrowLeft.mouseover" end="arrowLeft.mouseout"/>
                  </use>
                  <path fill="none" stroke="white" stroke-width="1.5" d="M0,-3.0v7 M-2.5,-0.5L0,-3.0L2.5,-0.5"/>
                </g>
        </g>
        <svg viewBox="0 0 15 15" width="100%" height="30px" preserveAspectRatio="xMaxYMin meet">
         <g id="arrow_out" transform="scale(0.3 0.3)">
          <a xlink:href="patch__enable__lmb_8c__incl_org.svg" target="_base">
           <rect id="button" ry="5" rx="5" y="6" x="6" height="38" width="38"
                fill="#f2f5e9" fill-opacity="0.5" stroke="#606060" stroke-width="1.0"/>
           <path id="arrow"
             d="M 11.500037,31.436501 C 11.940474,20.09759 22.043105,11.32322 32.158766,21.979434 L 37.068811,17.246167 C 37.068811,17.246167 37.088388,32 37.088388,32 L 22.160133,31.978069 C 22.160133,31.978069 26.997745,27.140456 26.997745,27.140456 C 18.528582,18.264221 13.291696,25.230495 11.500037,31.436501 z"
             style="fill:#404040;"/>
          </a>
         </g>
        </svg>
</svg>
