<?xml version="1.0" encoding="UTF-8" standalone="no"?>
<!DOCTYPE svg PUBLIC "-//W3C//DTD SVG 1.1//EN"
 "http://www.w3.org/Graphics/SVG/1.1/DTD/svg11.dtd">
<!-- Generated by graphviz version 9.0.0 (20230911.1827)
 -->
<!-- Title: ee/sbv/src/patch_enable_lmb.c Pages: 1 -->
<svg width="776pt" height="315pt"
 viewBox="0.00 0.00 775.88 314.75" xmlns="http://www.w3.org/2000/svg" xmlns:xlink="http://www.w3.org/1999/xlink">
<g id="graph0" class="graph" transform="scale(1 1) rotate(0) translate(4 310.75)">
<title>ee/sbv/src/patch_enable_lmb.c</title>
<!-- Node1 -->
<g id="Node000001" class="node">
<title>Node1</title>
<g id="a_Node000001"><a xlink:title=" ">
<polygon fill="#999999" stroke="#666666" points="561.62,-306.75 439.12,-306.75 439.12,-276.25 561.62,-276.25 561.62,-306.75"/>
<text text-anchor="start" x="447.12" y="-293.25" font-family="Helvetica,sans-Serif" font-size="10.00">ee/sbv/src/patch_enable</text>
<text text-anchor="middle" x="500.38" y="-282" font-family="Helvetica,sans-Serif" font-size="10.00">_lmb.c</text>
</a>
</g>
</g>
<!-- Node2 -->
<g id="Node000002" class="node">
<title>Node2</title>
<g id="a_Node000002"><a xlink:href="tamtypes_8h.html" target="_top" xlink:title=" ">
<polygon fill="white" stroke="#666666" points="419,-19.25 355.75,-19.25 355.75,0 419,0 419,-19.25"/>
<text text-anchor="middle" x="387.38" y="-5.75" font-family="Helvetica,sans-Serif" font-size="10.00">tamtypes.h</text>
</a>
</g>
</g>
<!-- Node1&#45;&gt;Node2 -->
<g id="edge1_Node000001_Node000002" class="edge">
<title>Node1&#45;&gt;Node2</title>
<g id="a_edge1_Node000001_Node000002"><a xlink:title=" ">
<path fill="none" stroke="#63b8ff" d="M508.44,-275.78C529.09,-235.9 578.8,-124.1 528.38,-55.25 506.12,-24.86 463.07,-14.65 430.36,-11.46"/>
<polygon fill="#63b8ff" stroke="#63b8ff" points="431.03,-8.01 420.79,-10.73 430.49,-14.98 431.03,-8.01"/>
</a>
</g>
</g>
<!-- Node3 -->
<g id="Node000003" class="node">
<title>Node3</title>
<g id="a_Node000003"><a xlink:href="kernel_8h.html" target="_top" xlink:title=" ">
<polygon fill="white" stroke="#666666" points="336.25,-185 286.5,-185 286.5,-165.75 336.25,-165.75 336.25,-185"/>
<text text-anchor="middle" x="311.38" y="-171.5" font-family="Helvetica,sans-Serif" font-size="10.00">kernel.h</text>
</a>
</g>
</g>
<!-- Node1&#45;&gt;Node3 -->
<g id="edge2_Node000001_Node000003" class="edge">
<title>Node1&#45;&gt;Node3</title>
<g id="a_edge2_Node000001_Node000003"><a xlink:title=" ">
<path fill="none" stroke="#63b8ff" d="M476.05,-275.81C439.94,-254.01 372.49,-213.28 336.13,-191.32"/>
<polygon fill="#63b8ff" stroke="#63b8ff" points="338,-188.36 327.63,-186.19 334.38,-194.35 338,-188.36"/>
</a>
</g>
</g>
<!-- Node7 -->
<g id="Node000007" class="node">
<title>Node7</title>
<g id="a_Node000007"><a xlink:href="iopheap_8h.html" target="_top" xlink:title=" ">
<polygon fill="white" stroke="#666666" points="624,-240.25 566.75,-240.25 566.75,-221 624,-221 624,-240.25"/>
<text text-anchor="middle" x="595.38" y="-226.75" font-family="Helvetica,sans-Serif" font-size="10.00">iopheap.h</text>
</a>
</g>
</g>
<!-- Node1&#45;&gt;Node7 -->
<g id="edge7_Node000001_Node000007" class="edge">
<title>Node1&#45;&gt;Node7</title>
<g id="a_edge7_Node000001_Node000007"><a xlink:title=" ">
<path fill="none" stroke="#63b8ff" d="M523.86,-275.95C538.18,-267.07 556.46,-255.74 570.96,-246.76"/>
<polygon fill="#63b8ff" stroke="#63b8ff" points="572.79,-249.74 579.44,-241.5 569.1,-243.79 572.79,-249.74"/>
</a>
</g>
</g>
<!-- Node8 -->
<g id="Node000008" class="node">
<title>Node8</title>
<g id="a_Node000008"><a xlink:title=" ">
<polygon fill="#e0e0e0" stroke="#999999" points="689.12,-240.25 641.62,-240.25 641.62,-221 689.12,-221 689.12,-240.25"/>
<text text-anchor="middle" x="665.38" y="-226.75" font-family="Helvetica,sans-Serif" font-size="10.00">sifrpc.h</text>
</a>
</g>
</g>
<!-- Node1&#45;&gt;Node8 -->
<g id="edge8_Node000001_Node000008" class="edge">
<title>Node1&#45;&gt;Node8</title>
<g id="a_edge8_Node000001_Node000008"><a xlink:title=" ">
<path fill="none" stroke="#63b8ff" d="M541.59,-275.8C569.15,-265.96 604.99,-253.17 631.01,-243.89"/>
<polygon fill="#63b8ff" stroke="#63b8ff" points="631.84,-247.31 640.09,-240.65 629.49,-240.71 631.84,-247.31"/>
</a>
</g>
</g>
<!-- Node9 -->
<g id="Node000009" class="node">
<title>Node9</title>
<g id="a_Node000009"><a xlink:href="string_8h_source.html" target="_top" xlink:title=" ">
<polygon fill="white" stroke="#666666" points="222.12,-240.25 174.62,-240.25 174.62,-221 222.12,-221 222.12,-240.25"/>
<text text-anchor="middle" x="198.38" y="-226.75" font-family="Helvetica,sans-Serif" font-size="10.00">string.h</text>
</a>
</g>
</g>
<!-- Node1&#45;&gt;Node9 -->
<g id="edge9_Node000001_Node000009" class="edge">
<title>Node1&#45;&gt;Node9</title>
<g id="a_edge9_Node000001_Node000009"><a xlink:title=" ">
<path fill="none" stroke="#63b8ff" d="M438.9,-278.51C377.11,-266.47 284.02,-248.32 233.69,-238.51"/>
<polygon fill="#63b8ff" stroke="#63b8ff" points="234.42,-235.09 223.93,-236.61 233.08,-241.96 234.42,-235.09"/>
</a>
</g>
</g>
<!-- Node15 -->
<g id="Node000015" class="node">
<title>Node15</title>
<g id="a_Node000015"><a xlink:href="smem_8h.html" target="_top" xlink:title=" ">
<polygon fill="white" stroke="#666666" points="417.62,-185 367.12,-185 367.12,-165.75 417.62,-165.75 417.62,-185"/>
<text text-anchor="middle" x="392.38" y="-171.5" font-family="Helvetica,sans-Serif" font-size="10.00">smem.h</text>
</a>
</g>
</g>
<!-- Node1&#45;&gt;Node15 -->
<g id="edge20_Node000001_Node000015" class="edge">
<title>Node1&#45;&gt;Node15</title>
<g id="a_edge20_Node000001_Node000015"><a xlink:title=" ">
<path fill="none" stroke="#63b8ff" d="M480.07,-275.81C467.66,-266.35 451.83,-253.4 439.38,-240.25 425.93,-226.05 412.94,-207.94 404.03,-194.64"/>
<polygon fill="#63b8ff" stroke="#63b8ff" points="407.07,-192.88 398.67,-186.43 401.21,-196.71 407.07,-192.88"/>
</a>
</g>
</g>
<!-- Node16 -->
<g id="Node000016" class="node">
<title>Node16</title>
<g id="a_Node000016"><a xlink:href="smod_8h.html" target="_top" xlink:title=" ">
<polygon fill="white" stroke="#666666" points="463.12,-74.5 415.62,-74.5 415.62,-55.25 463.12,-55.25 463.12,-74.5"/>
<text text-anchor="middle" x="439.38" y="-61" font-family="Helvetica,sans-Serif" font-size="10.00">smod.h</text>
</a>
</g>
</g>
<!-- Node1&#45;&gt;Node16 -->
<g id="edge22_Node000001_Node000016" class="edge">
<title>Node1&#45;&gt;Node16</title>
<g id="a_edge22_Node000001_Node000016"><a xlink:title=" ">
<path fill="none" stroke="#63b8ff" d="M496.37,-275.76C485.74,-236.59 456.75,-129.87 444.72,-85.56"/>
<polygon fill="#63b8ff" stroke="#63b8ff" points="448.14,-84.81 442.14,-76.07 441.39,-86.64 448.14,-84.81"/>
</a>
</g>
</g>
<!-- Node17 -->
<g id="Node000017" class="node">
<title>Node17</title>
<g id="a_Node000017"><a xlink:href="slib_8h.html" target="_top" xlink:title=" ">
<polygon fill="white" stroke="#666666" points="519.62,-74.5 481.12,-74.5 481.12,-55.25 519.62,-55.25 519.62,-74.5"/>
<text text-anchor="middle" x="500.38" y="-61" font-family="Helvetica,sans-Serif" font-size="10.00">slib.h</text>
</a>
</g>
</g>
<!-- Node1&#45;&gt;Node17 -->
<g id="edge24_Node000001_Node000017" class="edge">
<title>Node1&#45;&gt;Node17</title>
<g id="a_edge24_Node000001_Node000017"><a xlink:title=" ">
<path fill="none" stroke="#63b8ff" d="M500.38,-275.76C500.38,-236.67 500.38,-130.33 500.38,-85.85"/>
<polygon fill="#63b8ff" stroke="#63b8ff" points="503.88,-86.13 500.38,-76.13 496.88,-86.13 503.88,-86.13"/>
</a>
</g>
</g>
<!-- Node18 -->
<g id="Node000018" class="node">
<title>Node18</title>
<g id="a_Node000018"><a xlink:href="ee_2sbv_2src_2common_8h_source.html" target="_top" xlink:title=" ">
<polygon fill="white" stroke="#666666" points="767.88,-240.25 706.88,-240.25 706.88,-221 767.88,-221 767.88,-240.25"/>
<text text-anchor="middle" x="737.38" y="-226.75" font-family="Helvetica,sans-Serif" font-size="10.00">common.h</text>
</a>
</g>
</g>
<!-- Node1&#45;&gt;Node18 -->
<g id="edge26_Node000001_Node000018" class="edge">
<title>Node1&#45;&gt;Node18</title>
<g id="a_edge26_Node000001_Node000018"><a xlink:title=" ">
<path fill="none" stroke="#63b8ff" d="M559.57,-275.8C601.81,-265.3 657.61,-251.44 695.34,-242.07"/>
<polygon fill="#63b8ff" stroke="#63b8ff" points="696.11,-245.48 704.97,-239.67 694.42,-238.69 696.11,-245.48"/>
</a>
</g>
</g>
<!-- Node4 -->
<g id="Node000004" class="node">
<title>Node4</title>
<g id="a_Node000004"><a xlink:title=" ">
<polygon fill="#e0e0e0" stroke="#999999" points="236.62,-19.25 186.12,-19.25 186.12,0 236.62,0 236.62,-19.25"/>
<text text-anchor="middle" x="211.38" y="-5.75" font-family="Helvetica,sans-Serif" font-size="10.00">stddef.h</text>
</a>
</g>
</g>
<!-- Node3&#45;&gt;Node4 -->
<g id="edge3_Node000003_Node000004" class="edge">
<title>Node3&#45;&gt;Node4</title>
<g id="a_edge3_Node000003_Node000004"><a xlink:title=" ">
<path fill="none" stroke="#63b8ff" d="M308.33,-165.39C303.87,-152.74 294.94,-129.14 284.38,-110.5 267.06,-79.95 242.09,-47.68 226.3,-28.35"/>
<polygon fill="#63b8ff" stroke="#63b8ff" points="229.01,-26.14 219.93,-20.67 223.62,-30.6 229.01,-26.14"/>
</a>
</g>
</g>
<!-- Node5 -->
<g id="Node000005" class="node">
<title>Node5</title>
<g id="a_Node000005"><a xlink:title=" ">
<polygon fill="#e0e0e0" stroke="#999999" points="275.62,-129.75 225.12,-129.75 225.12,-110.5 275.62,-110.5 275.62,-129.75"/>
<text text-anchor="middle" x="250.38" y="-116.25" font-family="Helvetica,sans-Serif" font-size="10.00">stdarg.h</text>
</a>
</g>
</g>
<!-- Node3&#45;&gt;Node5 -->
<g id="edge4_Node000003_Node000005" class="edge">
<title>Node3&#45;&gt;Node5</title>
<g id="a_edge4_Node000003_Node000005"><a xlink:title=" ">
<path fill="none" stroke="#63b8ff" d="M301.03,-165.34C292.3,-157.72 279.59,-146.62 269.08,-137.45"/>
<polygon fill="#63b8ff" stroke="#63b8ff" points="271.55,-134.96 261.71,-131.02 266.94,-140.23 271.55,-134.96"/>
</a>
</g>
</g>
<!-- Node6 -->
<g id="Node000006" class="node">
<title>Node6</title>
<g id="a_Node000006"><a xlink:href="sifdma_8h.html" target="_top" xlink:title=" ">
<polygon fill="white" stroke="#666666" points="359.75,-74.5 307,-74.5 307,-55.25 359.75,-55.25 359.75,-74.5"/>
<text text-anchor="middle" x="333.38" y="-61" font-family="Helvetica,sans-Serif" font-size="10.00">sifdma.h</text>
</a>
</g>
</g>
<!-- Node3&#45;&gt;Node6 -->
<g id="edge5_Node000003_Node000006" class="edge">
<title>Node3&#45;&gt;Node6</title>
<g id="a_edge5_Node000003_Node000006"><a xlink:title=" ">
<path fill="none" stroke="#63b8ff" d="M313.18,-165.5C316.67,-148.25 324.46,-109.83 329.28,-86.06"/>
<polygon fill="#63b8ff" stroke="#63b8ff" points="332.69,-86.86 331.25,-76.36 325.83,-85.47 332.69,-86.86"/>
</a>
</g>
</g>
<!-- Node6&#45;&gt;Node2 -->
<g id="edge6_Node000006_Node000002" class="edge">
<title>Node6&#45;&gt;Node2</title>
<g id="a_edge6_Node000006_Node000002"><a xlink:title=" ">
<path fill="none" stroke="#63b8ff" d="M342.29,-55.08C349.83,-47.65 360.84,-36.79 370.1,-27.66"/>
<polygon fill="#63b8ff" stroke="#63b8ff" points="372.52,-30.19 377.19,-20.67 367.61,-25.2 372.52,-30.19"/>
</a>
</g>
</g>
<!-- Node10 -->
<g id="Node000010" class="node">
<title>Node10</title>
<g id="a_Node000010"><a xlink:href="sysclib_8h.html" target="_top" xlink:title=" ">
<polygon fill="white" stroke="#666666" points="180.12,-185 126.62,-185 126.62,-165.75 180.12,-165.75 180.12,-185"/>
<text text-anchor="middle" x="153.38" y="-171.5" font-family="Helvetica,sans-Serif" font-size="10.00">sysclib.h</text>
</a>
</g>
</g>
<!-- Node9&#45;&gt;Node10 -->
<g id="edge10_Node000009_Node000010" class="edge">
<title>Node9&#45;&gt;Node10</title>
<g id="a_edge10_Node000009_Node000010"><a xlink:title=" ">
<path fill="none" stroke="#63b8ff" d="M190.94,-220.83C184.79,-213.55 175.86,-202.98 168.25,-193.98"/>
<polygon fill="#63b8ff" stroke="#63b8ff" points="171.07,-191.89 161.94,-186.52 165.73,-196.41 171.07,-191.89"/>
</a>
</g>
</g>
<!-- Node10&#45;&gt;Node5 -->
<g id="edge16_Node000010_Node000005" class="edge">
<title>Node10&#45;&gt;Node5</title>
<g id="a_edge16_Node000010_Node000005"><a xlink:title=" ">
<path fill="none" stroke="#63b8ff" d="M169.83,-165.34C184.6,-157.23 206.55,-145.18 223.81,-135.71"/>
<polygon fill="#63b8ff" stroke="#63b8ff" points="225.43,-138.81 232.51,-130.93 222.06,-132.68 225.43,-138.81"/>
</a>
</g>
</g>
<!-- Node11 -->
<g id="Node000011" class="node">
<title>Node11</title>
<g id="a_Node000011"><a xlink:href="iop_2kernel_2include_2types_8h_source.html" target="_top" xlink:title=" ">
<polygon fill="white" stroke="#666666" points="165.75,-74.5 119,-74.5 119,-55.25 165.75,-55.25 165.75,-74.5"/>
<text text-anchor="middle" x="142.38" y="-61" font-family="Helvetica,sans-Serif" font-size="10.00">types.h</text>
</a>
</g>
</g>
<!-- Node10&#45;&gt;Node11 -->
<g id="edge11_Node000010_Node000011" class="edge">
<title>Node10&#45;&gt;Node11</title>
<g id="a_edge11_Node000010_Node000011"><a xlink:title=" ">
<path fill="none" stroke="#63b8ff" d="M151.44,-165.53C149.56,-156.57 146.78,-142.26 145.38,-129.75 143.73,-115.18 142.99,-98.63 142.65,-86.03"/>
<polygon fill="#63b8ff" stroke="#63b8ff" points="146.15,-86.02 142.45,-76.1 139.15,-86.16 146.15,-86.02"/>
</a>
</g>
</g>
<!-- Node12 -->
<g id="Node000012" class="node">
<title>Node12</title>
<g id="a_Node000012"><a xlink:href="irx_8h.html" target="_top" xlink:title=" ">
<polygon fill="white" stroke="#666666" points="98,-129.75 64.75,-129.75 64.75,-110.5 98,-110.5 98,-129.75"/>
<text text-anchor="middle" x="81.38" y="-116.25" font-family="Helvetica,sans-Serif" font-size="10.00">irx.h</text>
</a>
</g>
</g>
<!-- Node10&#45;&gt;Node12 -->
<g id="edge14_Node000010_Node000012" class="edge">
<title>Node10&#45;&gt;Node12</title>
<g id="a_edge14_Node000010_Node000012"><a xlink:title=" ">
<path fill="none" stroke="#63b8ff" d="M141.16,-165.34C130.55,-157.49 114.94,-145.95 102.33,-136.62"/>
<polygon fill="#63b8ff" stroke="#63b8ff" points="104.75,-134.06 94.63,-130.92 100.58,-139.69 104.75,-134.06"/>
</a>
</g>
</g>
<!-- Node13 -->
<g id="Node000013" class="node">
<title>Node13</title>
<g id="a_Node000013"><a xlink:href="setjmp_8h.html" target="_top" xlink:title=" ">
<polygon fill="white" stroke="#666666" points="206.75,-129.75 154,-129.75 154,-110.5 206.75,-110.5 206.75,-129.75"/>
<text text-anchor="middle" x="180.38" y="-116.25" font-family="Helvetica,sans-Serif" font-size="10.00">setjmp.h</text>
</a>
</g>
</g>
<!-- Node10&#45;&gt;Node13 -->
<g id="edge17_Node000010_Node000013" class="edge">
<title>Node10&#45;&gt;Node13</title>
<g id="a_edge17_Node000010_Node000013"><a xlink:title=" ">
<path fill="none" stroke="#63b8ff" d="M157.83,-165.58C161.33,-158.69 166.32,-148.84 170.72,-140.16"/>
<polygon fill="#63b8ff" stroke="#63b8ff" points="173.73,-141.96 175.14,-131.46 167.49,-138.8 173.73,-141.96"/>
</a>
</g>
</g>
<!-- Node14 -->
<g id="Node000014" class="node">
<title>Node14</title>
<g id="a_Node000014"><a xlink:href="ctype_8h.html" target="_top" xlink:title=" ">
<polygon fill="white" stroke="#666666" points="46.75,-129.75 0,-129.75 0,-110.5 46.75,-110.5 46.75,-129.75"/>
<text text-anchor="middle" x="23.38" y="-116.25" font-family="Helvetica,sans-Serif" font-size="10.00">ctype.h</text>
</a>
</g>
</g>
<!-- Node10&#45;&gt;Node14 -->
<g id="edge19_Node000010_Node000014" class="edge">
<title>Node10&#45;&gt;Node14</title>
<g id="a_edge19_Node000010_Node000014"><a xlink:title=" ">
<path fill="none" stroke="#63b8ff" d="M131.32,-165.34C110.69,-156.89 79.59,-144.15 56.07,-134.52"/>
<polygon fill="#63b8ff" stroke="#63b8ff" points="57.52,-131.33 46.94,-130.78 54.86,-137.81 57.52,-131.33"/>
</a>
</g>
</g>
<!-- Node11&#45;&gt;Node2 -->
<g id="edge13_Node000011_Node000002" class="edge">
<title>Node11&#45;&gt;Node2</title>
<g id="a_edge13_Node000011_Node000002"><a xlink:title=" ">
<path fill="none" stroke="#63b8ff" d="M165.87,-58.77C206.95,-49.84 292.43,-31.26 344.36,-19.97"/>
<polygon fill="#63b8ff" stroke="#63b8ff" points="345.02,-23.41 354.05,-17.87 343.54,-16.57 345.02,-23.41"/>
</a>
</g>
</g>
<!-- Node11&#45;&gt;Node4 -->
<g id="edge12_Node000011_Node000004" class="edge">
<title>Node11&#45;&gt;Node4</title>
<g id="a_edge12_Node000011_Node000004"><a xlink:title=" ">
<path fill="none" stroke="#63b8ff" d="M154.08,-54.84C164.15,-47.07 178.92,-35.67 190.94,-26.4"/>
<polygon fill="#63b8ff" stroke="#63b8ff" points="192.87,-29.33 198.64,-20.45 188.59,-23.79 192.87,-29.33"/>
</a>
</g>
</g>
<!-- Node12&#45;&gt;Node11 -->
<g id="edge15_Node000012_Node000011" class="edge">
<title>Node12&#45;&gt;Node11</title>
<g id="a_edge15_Node000012_Node000011"><a xlink:title=" ">
<path fill="none" stroke="#63b8ff" d="M91.72,-110.09C100.45,-102.47 113.16,-91.37 123.67,-82.2"/>
<polygon fill="#63b8ff" stroke="#63b8ff" points="125.81,-84.98 131.04,-75.77 121.2,-79.71 125.81,-84.98"/>
</a>
</g>
</g>
<!-- Node13&#45;&gt;Node2 -->
<g id="edge18_Node000013_Node000002" class="edge">
<title>Node13&#45;&gt;Node2</title>
<g id="a_edge18_Node000013_Node000002"><a xlink:title=" ">
<path fill="none" stroke="#63b8ff" d="M196.71,-110.08C219.4,-97.55 261.81,-74.31 298.38,-55.25 318.43,-44.8 341.23,-33.37 358.74,-24.7"/>
<polygon fill="#63b8ff" stroke="#63b8ff" points="360.11,-27.93 367.52,-20.36 357.01,-21.65 360.11,-27.93"/>
</a>
</g>
</g>
<!-- Node15&#45;&gt;Node2 -->
<g id="edge21_Node000015_Node000002" class="edge">
<title>Node15&#45;&gt;Node2</title>
<g id="a_edge21_Node000015_Node000002"><a xlink:title=" ">
<path fill="none" stroke="#63b8ff" d="M392.11,-165.57C391.33,-140.25 389.09,-66.75 387.99,-30.84"/>
<polygon fill="#63b8ff" stroke="#63b8ff" points="391.5,-30.87 387.69,-20.99 384.5,-31.09 391.5,-30.87"/>
</a>
</g>
</g>
<!-- Node16&#45;&gt;Node2 -->
<g id="edge23_Node000016_Node000002" class="edge">
<title>Node16&#45;&gt;Node2</title>
<g id="a_edge23_Node000016_Node000002"><a xlink:title=" ">
<path fill="none" stroke="#63b8ff" d="M430.79,-55.08C423.53,-47.65 412.92,-36.79 404.01,-27.66"/>
<polygon fill="#63b8ff" stroke="#63b8ff" points="406.7,-25.4 397.21,-20.69 401.69,-30.29 406.7,-25.4"/>
</a>
</g>
</g>
<!-- Node17&#45;&gt;Node2 -->
<g id="edge25_Node000017_Node000002" class="edge">
<title>Node17&#45;&gt;Node2</title>
<g id="a_edge25_Node000017_Node000002"><a xlink:title=" ">
<path fill="none" stroke="#63b8ff" d="M481.21,-54.84C463.59,-46.54 437.22,-34.11 416.91,-24.54"/>
<polygon fill="#63b8ff" stroke="#63b8ff" points="418.55,-21.44 408.01,-20.35 415.56,-27.78 418.55,-21.44"/>
</a>
</g>
</g>
</g>
</svg>
