<?xml version="1.0" encoding="UTF-8" standalone="no"?>
<!DOCTYPE svg PUBLIC "-//W3C//DTD SVG 1.1//EN"
 "http://www.w3.org/Graphics/SVG/1.1/DTD/svg11.dtd">
<!-- Generated by graphviz version 2.44.0 ()
 -->
<!-- Title: iop/system/siftoo/src/pipe.c Pages: 1 -->
<svg width="208pt" height="263pt"
 viewBox="0.00 0.00 208.00 263.00" xmlns="http://www.w3.org/2000/svg" xmlns:xlink="http://www.w3.org/1999/xlink">
<g id="graph0" class="graph" transform="scale(1 1) rotate(0) translate(4 259)">
<title>iop/system/siftoo/src/pipe.c</title>
<polygon fill="white" stroke="transparent" points="-4,4 -4,-259 204,-259 204,4 -4,4"/>
<!-- Node1 -->
<g id="node1" class="node">
<title>Node1</title>
<g id="a_node1"><a xlink:title=" ">
<polygon fill="#bfbfbf" stroke="black" points="19,-224.5 19,-254.5 126,-254.5 126,-224.5 19,-224.5"/>
<text text-anchor="start" x="27" y="-242.5" font-family="Helvetica,sans-Serif" font-size="10.00">iop/system/siftoo/src</text>
<text text-anchor="middle" x="72.5" y="-231.5" font-family="Helvetica,sans-Serif" font-size="10.00">/pipe.c</text>
</a>
</g>
</g>
<!-- Node2 -->
<g id="node2" class="node">
<title>Node2</title>
<g id="a_node2"><a xlink:title=" ">
<polygon fill="white" stroke="#bfbfbf" points="68,-112.5 68,-131.5 115,-131.5 115,-112.5 68,-112.5"/>
<text text-anchor="middle" x="91.5" y="-119.5" font-family="Helvetica,sans-Serif" font-size="10.00">types.h</text>
</a>
</g>
</g>
<!-- Node1&#45;&gt;Node2 -->
<g id="edge1" class="edge">
<title>Node1&#45;&gt;Node2</title>
<path fill="none" stroke="midnightblue" d="M68.2,-224.48C64.46,-210.08 60.37,-187.13 65.5,-168 68.15,-158.1 73.57,-148.13 78.77,-140.1"/>
<polygon fill="midnightblue" stroke="midnightblue" points="81.79,-141.89 84.61,-131.68 76.04,-137.91 81.79,-141.89"/>
</g>
<!-- Node3 -->
<g id="node3" class="node">
<title>Node3</title>
<g id="a_node3"><a xlink:href="defs_8h.html" target="_top" xlink:title=" ">
<polygon fill="white" stroke="black" points="0,-112.5 0,-131.5 43,-131.5 43,-112.5 0,-112.5"/>
<text text-anchor="middle" x="21.5" y="-119.5" font-family="Helvetica,sans-Serif" font-size="10.00">defs.h</text>
</a>
</g>
</g>
<!-- Node1&#45;&gt;Node3 -->
<g id="edge2" class="edge">
<title>Node1&#45;&gt;Node3</title>
<path fill="none" stroke="midnightblue" d="M66.25,-224.34C56.97,-203.34 39.58,-163.96 29.43,-140.96"/>
<polygon fill="midnightblue" stroke="midnightblue" points="32.57,-139.4 25.33,-131.67 26.17,-142.23 32.57,-139.4"/>
</g>
<!-- Node7 -->
<g id="node7" class="node">
<title>Node7</title>
<g id="a_node7"><a xlink:href="sbusintr_8h.html" target="_top" xlink:title=" ">
<polygon fill="white" stroke="black" points="141,-168.5 141,-187.5 200,-187.5 200,-168.5 141,-168.5"/>
<text text-anchor="middle" x="170.5" y="-175.5" font-family="Helvetica,sans-Serif" font-size="10.00">sbusintr.h</text>
</a>
</g>
</g>
<!-- Node1&#45;&gt;Node7 -->
<g id="edge6" class="edge">
<title>Node1&#45;&gt;Node7</title>
<path fill="none" stroke="midnightblue" d="M95.72,-224.4C111.29,-214.95 131.7,-202.56 147.26,-193.11"/>
<polygon fill="midnightblue" stroke="midnightblue" points="149.51,-195.84 156.24,-187.66 145.88,-189.86 149.51,-195.84"/>
</g>
<!-- Node9 -->
<g id="node9" class="node">
<title>Node9</title>
<g id="a_node9"><a xlink:href="siftoo_8h.html" target="_top" xlink:title=" ">
<polygon fill="white" stroke="black" points="74.5,-168.5 74.5,-187.5 122.5,-187.5 122.5,-168.5 74.5,-168.5"/>
<text text-anchor="middle" x="98.5" y="-175.5" font-family="Helvetica,sans-Serif" font-size="10.00">siftoo.h</text>
</a>
</g>
</g>
<!-- Node1&#45;&gt;Node9 -->
<g id="edge10" class="edge">
<title>Node1&#45;&gt;Node9</title>
<path fill="none" stroke="midnightblue" d="M78.66,-224.4C82.24,-216.2 86.8,-205.78 90.64,-196.99"/>
<polygon fill="midnightblue" stroke="midnightblue" points="93.92,-198.22 94.72,-187.66 87.51,-195.42 93.92,-198.22"/>
</g>
<!-- Node4 -->
<g id="node4" class="node">
<title>Node4</title>
<g id="a_node4"><a xlink:href="types_8h_source.html" target="_top" xlink:title=" ">
<polygon fill="white" stroke="black" points="59,-56.5 59,-75.5 106,-75.5 106,-56.5 59,-56.5"/>
<text text-anchor="middle" x="82.5" y="-63.5" font-family="Helvetica,sans-Serif" font-size="10.00">types.h</text>
</a>
</g>
</g>
<!-- Node3&#45;&gt;Node4 -->
<g id="edge3" class="edge">
<title>Node3&#45;&gt;Node4</title>
<path fill="none" stroke="midnightblue" d="M31.3,-112.32C40.32,-104.34 53.91,-92.31 64.82,-82.65"/>
<polygon fill="midnightblue" stroke="midnightblue" points="67.35,-85.08 72.52,-75.83 62.71,-79.84 67.35,-85.08"/>
</g>
<!-- Node5 -->
<g id="node5" class="node">
<title>Node5</title>
<g id="a_node5"><a xlink:title=" ">
<polygon fill="white" stroke="#bfbfbf" points="19,-0.5 19,-19.5 70,-19.5 70,-0.5 19,-0.5"/>
<text text-anchor="middle" x="44.5" y="-7.5" font-family="Helvetica,sans-Serif" font-size="10.00">stddef.h</text>
</a>
</g>
</g>
<!-- Node4&#45;&gt;Node5 -->
<g id="edge4" class="edge">
<title>Node4&#45;&gt;Node5</title>
<path fill="none" stroke="midnightblue" d="M76.23,-56.08C70.86,-48.46 62.98,-37.26 56.42,-27.94"/>
<polygon fill="midnightblue" stroke="midnightblue" points="59.28,-25.91 50.66,-19.75 53.55,-29.94 59.28,-25.91"/>
</g>
<!-- Node6 -->
<g id="node6" class="node">
<title>Node6</title>
<g id="a_node6"><a xlink:href="tamtypes_8h.html" target="_top" xlink:title=" ">
<polygon fill="white" stroke="black" points="88.5,-0.5 88.5,-19.5 152.5,-19.5 152.5,-0.5 88.5,-0.5"/>
<text text-anchor="middle" x="120.5" y="-7.5" font-family="Helvetica,sans-Serif" font-size="10.00">tamtypes.h</text>
</a>
</g>
</g>
<!-- Node4&#45;&gt;Node6 -->
<g id="edge5" class="edge">
<title>Node4&#45;&gt;Node6</title>
<path fill="none" stroke="midnightblue" d="M88.77,-56.08C94.14,-48.46 102.02,-37.26 108.58,-27.94"/>
<polygon fill="midnightblue" stroke="midnightblue" points="111.45,-29.94 114.34,-19.75 105.72,-25.91 111.45,-29.94"/>
</g>
<!-- Node7&#45;&gt;Node2 -->
<g id="edge7" class="edge">
<title>Node7&#45;&gt;Node2</title>
<path fill="none" stroke="midnightblue" d="M157.81,-168.32C145.6,-159.98 126.92,-147.21 112.5,-137.35"/>
<polygon fill="midnightblue" stroke="midnightblue" points="114.39,-134.41 104.16,-131.65 110.44,-140.19 114.39,-134.41"/>
</g>
<!-- Node8 -->
<g id="node8" class="node">
<title>Node8</title>
<g id="a_node8"><a xlink:href="irx_8h.html" target="_top" xlink:title=" ">
<polygon fill="white" stroke="black" points="133.5,-112.5 133.5,-131.5 167.5,-131.5 167.5,-112.5 133.5,-112.5"/>
<text text-anchor="middle" x="150.5" y="-119.5" font-family="Helvetica,sans-Serif" font-size="10.00">irx.h</text>
</a>
</g>
</g>
<!-- Node7&#45;&gt;Node8 -->
<g id="edge8" class="edge">
<title>Node7&#45;&gt;Node8</title>
<path fill="none" stroke="midnightblue" d="M167.2,-168.08C164.52,-160.85 160.65,-150.41 157.31,-141.4"/>
<polygon fill="midnightblue" stroke="midnightblue" points="160.5,-139.91 153.74,-131.75 153.93,-142.34 160.5,-139.91"/>
</g>
<!-- Node8&#45;&gt;Node4 -->
<g id="edge9" class="edge">
<title>Node8&#45;&gt;Node4</title>
<path fill="none" stroke="midnightblue" d="M139.57,-112.32C129.33,-104.18 113.78,-91.84 101.5,-82.09"/>
<polygon fill="midnightblue" stroke="midnightblue" points="103.63,-79.31 93.62,-75.83 99.28,-84.79 103.63,-79.31"/>
</g>
<!-- Node9&#45;&gt;Node2 -->
<g id="edge11" class="edge">
<title>Node9&#45;&gt;Node2</title>
<path fill="none" stroke="midnightblue" d="M97.34,-168.08C96.42,-160.93 95.08,-150.64 93.92,-141.69"/>
<polygon fill="midnightblue" stroke="midnightblue" points="97.39,-141.22 92.63,-131.75 90.45,-142.12 97.39,-141.22"/>
</g>
<!-- Node9&#45;&gt;Node8 -->
<g id="edge12" class="edge">
<title>Node9&#45;&gt;Node8</title>
<path fill="none" stroke="midnightblue" d="M107.09,-168.08C114.66,-160.22 125.88,-148.57 135.01,-139.08"/>
<polygon fill="midnightblue" stroke="midnightblue" points="137.66,-141.38 142.07,-131.75 132.62,-136.53 137.66,-141.38"/>
</g>
</g>
</svg>
