<?xml version="1.0" encoding="UTF-8" standalone="no"?>
<!DOCTYPE svg PUBLIC "-//W3C//DTD SVG 1.1//EN"
 "http://www.w3.org/Graphics/SVG/1.1/DTD/svg11.dtd">
<!-- Generated by graphviz version 9.0.0 (20230911.1827)
 -->
<!-- Title: iop/system/siftoo/src/pipe.c Pages: 1 -->
<svg width="206pt" height="260pt"
 viewBox="0.00 0.00 206.12 259.50" xmlns="http://www.w3.org/2000/svg" xmlns:xlink="http://www.w3.org/1999/xlink">
<g id="graph0" class="graph" transform="scale(1 1) rotate(0) translate(4 255.5)">
<title>iop/system/siftoo/src/pipe.c</title>
<!-- Node1 -->
<g id="Node000001" class="node">
<title>Node1</title>
<g id="a_Node000001"><a xlink:title=" ">
<polygon fill="#999999" stroke="#666666" points="125.5,-251.5 18.75,-251.5 18.75,-221 125.5,-221 125.5,-251.5"/>
<text text-anchor="start" x="26.75" y="-238" font-family="Helvetica,sans-Serif" font-size="10.00">iop/system/siftoo/src</text>
<text text-anchor="middle" x="72.12" y="-226.75" font-family="Helvetica,sans-Serif" font-size="10.00">/pipe.c</text>
</a>
</g>
</g>
<!-- Node2 -->
<g id="Node000002" class="node">
<title>Node2</title>
<g id="a_Node000002"><a xlink:title=" ">
<polygon fill="#e0e0e0" stroke="#999999" points="114.5,-129.75 67.75,-129.75 67.75,-110.5 114.5,-110.5 114.5,-129.75"/>
<text text-anchor="middle" x="91.12" y="-116.25" font-family="Helvetica,sans-Serif" font-size="10.00">types.h</text>
</a>
</g>
</g>
<!-- Node1&#45;&gt;Node2 -->
<g id="edge1_Node000001_Node000002" class="edge">
<title>Node1&#45;&gt;Node2</title>
<g id="a_edge1_Node000001_Node000002"><a xlink:title=" ">
<path fill="none" stroke="#63b8ff" d="M67.64,-220.63C63.97,-206.39 60.13,-184.25 65.12,-165.75 67.63,-156.47 72.6,-147.13 77.53,-139.41"/>
<polygon fill="#63b8ff" stroke="#63b8ff" points="80.33,-141.52 83.13,-131.3 74.57,-137.54 80.33,-141.52"/>
</a>
</g>
</g>
<!-- Node3 -->
<g id="Node000003" class="node">
<title>Node3</title>
<g id="a_Node000003"><a xlink:href="defs_8h.html" target="_top" xlink:title=" ">
<polygon fill="white" stroke="#666666" points="42.25,-129.75 0,-129.75 0,-110.5 42.25,-110.5 42.25,-129.75"/>
<text text-anchor="middle" x="21.12" y="-116.25" font-family="Helvetica,sans-Serif" font-size="10.00">defs.h</text>
</a>
</g>
</g>
<!-- Node1&#45;&gt;Node3 -->
<g id="edge2_Node000001_Node000003" class="edge">
<title>Node1&#45;&gt;Node3</title>
<g id="a_edge2_Node000001_Node000003"><a xlink:title=" ">
<path fill="none" stroke="#63b8ff" d="M65.67,-220.8C56.58,-200.47 40.01,-163.38 29.84,-140.62"/>
<polygon fill="#63b8ff" stroke="#63b8ff" points="33.07,-139.28 25.8,-131.58 26.68,-142.14 33.07,-139.28"/>
</a>
</g>
</g>
<!-- Node7 -->
<g id="Node000007" class="node">
<title>Node7</title>
<g id="a_Node000007"><a xlink:href="sbusintr_8h.html" target="_top" xlink:title=" ">
<polygon fill="white" stroke="#666666" points="198.12,-185 140.12,-185 140.12,-165.75 198.12,-165.75 198.12,-185"/>
<text text-anchor="middle" x="169.12" y="-171.5" font-family="Helvetica,sans-Serif" font-size="10.00">sbusintr.h</text>
</a>
</g>
</g>
<!-- Node1&#45;&gt;Node7 -->
<g id="edge6_Node000001_Node000007" class="edge">
<title>Node1&#45;&gt;Node7</title>
<g id="a_edge6_Node000001_Node000007"><a xlink:title=" ">
<path fill="none" stroke="#63b8ff" d="M96.1,-220.7C110.87,-211.73 129.76,-200.27 144.62,-191.25"/>
<polygon fill="#63b8ff" stroke="#63b8ff" points="146.14,-194.42 152.88,-186.24 142.51,-188.43 146.14,-194.42"/>
</a>
</g>
</g>
<!-- Node9 -->
<g id="Node000009" class="node">
<title>Node9</title>
<g id="a_Node000009"><a xlink:href="siftoo_8h.html" target="_top" xlink:title=" ">
<polygon fill="white" stroke="#666666" points="121.88,-185 74.38,-185 74.38,-165.75 121.88,-165.75 121.88,-185"/>
<text text-anchor="middle" x="98.12" y="-171.5" font-family="Helvetica,sans-Serif" font-size="10.00">siftoo.h</text>
</a>
</g>
</g>
<!-- Node1&#45;&gt;Node9 -->
<g id="edge10_Node000001_Node000009" class="edge">
<title>Node1&#45;&gt;Node9</title>
<g id="a_edge10_Node000001_Node000009"><a xlink:title=" ">
<path fill="none" stroke="#63b8ff" d="M78.55,-220.7C81.86,-213.2 85.95,-203.95 89.53,-195.85"/>
<polygon fill="#63b8ff" stroke="#63b8ff" points="92.67,-197.4 93.51,-186.84 86.26,-194.57 92.67,-197.4"/>
</a>
</g>
</g>
<!-- Node4 -->
<g id="Node000004" class="node">
<title>Node4</title>
<g id="a_Node000004"><a xlink:href="iop_2kernel_2include_2types_8h_source.html" target="_top" xlink:title=" ">
<polygon fill="white" stroke="#666666" points="104.5,-74.5 57.75,-74.5 57.75,-55.25 104.5,-55.25 104.5,-74.5"/>
<text text-anchor="middle" x="81.12" y="-61" font-family="Helvetica,sans-Serif" font-size="10.00">types.h</text>
</a>
</g>
</g>
<!-- Node3&#45;&gt;Node4 -->
<g id="edge3_Node000003_Node000004" class="edge">
<title>Node3&#45;&gt;Node4</title>
<g id="a_edge3_Node000003_Node000004"><a xlink:title=" ">
<path fill="none" stroke="#63b8ff" d="M31.3,-110.09C39.89,-102.47 52.39,-91.37 62.73,-82.2"/>
<polygon fill="#63b8ff" stroke="#63b8ff" points="64.81,-85.04 69.97,-75.78 60.16,-79.8 64.81,-85.04"/>
</a>
</g>
</g>
<!-- Node5 -->
<g id="Node000005" class="node">
<title>Node5</title>
<g id="a_Node000005"><a xlink:title=" ">
<polygon fill="#e0e0e0" stroke="#999999" points="69.38,-19.25 18.88,-19.25 18.88,0 69.38,0 69.38,-19.25"/>
<text text-anchor="middle" x="44.12" y="-5.75" font-family="Helvetica,sans-Serif" font-size="10.00">stddef.h</text>
</a>
</g>
</g>
<!-- Node4&#45;&gt;Node5 -->
<g id="edge4_Node000004_Node000005" class="edge">
<title>Node4&#45;&gt;Node5</title>
<g id="a_edge4_Node000004_Node000005"><a xlink:title=" ">
<path fill="none" stroke="#63b8ff" d="M75.02,-55.08C70.06,-47.96 62.92,-37.68 56.75,-28.8"/>
<polygon fill="#63b8ff" stroke="#63b8ff" points="59.81,-27.07 51.23,-20.85 54.06,-31.06 59.81,-27.07"/>
</a>
</g>
</g>
<!-- Node6 -->
<g id="Node000006" class="node">
<title>Node6</title>
<g id="a_Node000006"><a xlink:href="tamtypes_8h.html" target="_top" xlink:title=" ">
<polygon fill="white" stroke="#666666" points="150.75,-19.25 87.5,-19.25 87.5,0 150.75,0 150.75,-19.25"/>
<text text-anchor="middle" x="119.12" y="-5.75" font-family="Helvetica,sans-Serif" font-size="10.00">tamtypes.h</text>
</a>
</g>
</g>
<!-- Node4&#45;&gt;Node6 -->
<g id="edge5_Node000004_Node000006" class="edge">
<title>Node4&#45;&gt;Node6</title>
<g id="a_edge5_Node000004_Node000006"><a xlink:title=" ">
<path fill="none" stroke="#63b8ff" d="M87.4,-55.08C92.48,-47.96 99.82,-37.68 106.16,-28.8"/>
<polygon fill="#63b8ff" stroke="#63b8ff" points="108.87,-31.01 111.83,-20.84 103.18,-26.95 108.87,-31.01"/>
</a>
</g>
</g>
<!-- Node7&#45;&gt;Node2 -->
<g id="edge7_Node000007_Node000002" class="edge">
<title>Node7&#45;&gt;Node2</title>
<g id="a_edge7_Node000007_Node000002"><a xlink:title=" ">
<path fill="none" stroke="#63b8ff" d="M155.89,-165.34C144.35,-157.46 127.36,-145.86 113.68,-136.52"/>
<polygon fill="#63b8ff" stroke="#63b8ff" points="115.9,-133.8 105.67,-131.06 111.96,-139.58 115.9,-133.8"/>
</a>
</g>
</g>
<!-- Node8 -->
<g id="Node000008" class="node">
<title>Node8</title>
<g id="a_Node000008"><a xlink:href="irx_8h.html" target="_top" xlink:title=" ">
<polygon fill="white" stroke="#666666" points="165.75,-129.75 132.5,-129.75 132.5,-110.5 165.75,-110.5 165.75,-129.75"/>
<text text-anchor="middle" x="149.12" y="-116.25" font-family="Helvetica,sans-Serif" font-size="10.00">irx.h</text>
</a>
</g>
</g>
<!-- Node7&#45;&gt;Node8 -->
<g id="edge8_Node000007_Node000008" class="edge">
<title>Node7&#45;&gt;Node8</title>
<g id="a_edge8_Node000007_Node000008"><a xlink:title=" ">
<path fill="none" stroke="#63b8ff" d="M165.82,-165.58C163.29,-158.84 159.7,-149.27 156.49,-140.74"/>
<polygon fill="#63b8ff" stroke="#63b8ff" points="159.82,-139.66 153.03,-131.53 153.27,-142.12 159.82,-139.66"/>
</a>
</g>
</g>
<!-- Node8&#45;&gt;Node4 -->
<g id="edge9_Node000008_Node000004" class="edge">
<title>Node8&#45;&gt;Node4</title>
<g id="a_edge9_Node000008_Node000004"><a xlink:title=" ">
<path fill="none" stroke="#63b8ff" d="M137.59,-110.09C127.66,-102.32 113.11,-90.92 101.27,-81.65"/>
<polygon fill="#63b8ff" stroke="#63b8ff" points="103.71,-79.12 93.68,-75.71 99.4,-84.63 103.71,-79.12"/>
</a>
</g>
</g>
<!-- Node9&#45;&gt;Node2 -->
<g id="edge11_Node000009_Node000002" class="edge">
<title>Node9&#45;&gt;Node2</title>
<g id="a_edge11_Node000009_Node000002"><a xlink:title=" ">
<path fill="none" stroke="#63b8ff" d="M96.97,-165.58C96.1,-158.99 94.88,-149.71 93.78,-141.32"/>
<polygon fill="#63b8ff" stroke="#63b8ff" points="97.28,-141.07 92.5,-131.61 90.34,-141.98 97.28,-141.07"/>
</a>
</g>
</g>
<!-- Node9&#45;&gt;Node8 -->
<g id="edge12_Node000009_Node000008" class="edge">
<title>Node9&#45;&gt;Node8</title>
<g id="a_edge12_Node000009_Node000008"><a xlink:title=" ">
<path fill="none" stroke="#63b8ff" d="M106.55,-165.58C113.66,-158.15 124.07,-147.29 132.81,-138.16"/>
<polygon fill="#63b8ff" stroke="#63b8ff" points="135.08,-140.85 139.47,-131.2 130.03,-136 135.08,-140.85"/>
</a>
</g>
</g>
</g>
</svg>
