<?xml version="1.0" encoding="UTF-8" standalone="no"?>
<!DOCTYPE svg PUBLIC "-//W3C//DTD SVG 1.1//EN"
 "http://www.w3.org/Graphics/SVG/1.1/DTD/svg11.dtd">
<!-- Generated by graphviz version 9.0.0 (20230911.1827)
 -->
<!-- Title: common/sbus/include/ps2_sbus.h Pages: 1 -->
<!--zoomable 105 -->

<svg id="main" version="1.1" xmlns="http://www.w3.org/2000/svg" xmlns:xlink="http://www.w3.org/1999/xlink" xml:space="preserve" onload="init(evt)">
<style type="text/css"><![CDATA[
.node, .edge {opacity: 0.7;}
.node.selected, .edge.selected {opacity: 1;}
.edge:hover path { stroke: red; }
.edge:hover polygon { stroke: red; fill: red; }
]]></style>

<defs>
  <circle id="rim" cx="0" cy="0" r="7"/>
  <circle id="rim2" cx="0" cy="0" r="3.5"/>
  <g id="zoomPlus">
    <use xlink:href="#rim" fill="#404040"><set attributeName="fill" to="#808080" begin="zoomplus.mouseover" end="zoomplus.mouseout"/></use>
    <path d="M-4,0h8M0,-4v8" fill="none" stroke="white" stroke-width="1.5" pointer-events="none"/>
  </g>
  <g id="zoomMin">
    <use xlink:href="#rim" fill="#404040"><set attributeName="fill" to="#808080" begin="zoomminus.mouseover" end="zoomminus.mouseout"/></use>
    <path d="M-4,0h8" fill="none" stroke="white" stroke-width="1.5" pointer-events="none"/>
  </g>
  <g id="arrowUp" transform="translate(30 24)">
    <use xlink:href="#rim"/>
    <path pointer-events="none" fill="none" stroke="white" stroke-width="1.5" d="M0,-3.0v7 M-2.5,-0.5L0,-3.0L2.5,-0.5"/>
  </g>
  <g id="arrowRight" transform="rotate(90) translate(36 -43)">
    <use xlink:href="#rim"/>
    <path pointer-events="none" fill="none" stroke="white" stroke-width="1.5" d="M0,-3.0v7 M-2.5,-0.5L0,-3.0L2.5,-0.5"/>
  </g>
  <g id="arrowDown" transform="rotate(180) translate(-30 -48)">
    <use xlink:href="#rim"/>
    <path pointer-events="none" fill="none" stroke="white" stroke-width="1.5" d="M0,-3.0v7 M-2.5,-0.5L0,-3.0L2.5,-0.5"/>
  </g>
  <g id="arrowLeft" transform="rotate(270) translate(-36 17)">
    <use xlink:href="#rim"/>
    <path pointer-events="none" fill="none" stroke="white" stroke-width="1.5" d="M0,-3.0v7 M-2.5,-0.5L0,-3.0L2.5,-0.5"/>
  </g>
  <g id="resetDef">
    <use xlink:href="#rim2" fill="#404040"><set attributeName="fill" to="#808080" begin="reset.mouseover" end="reset.mouseout"/></use>
  </g>
</defs>
<script type="application/ecmascript">
var viewWidth = 1583;
var viewHeight = 105;
var sectionId = 'dynsection-1';
</script>
<script type="application/ecmascript" xlink:href="svg.min.js"/>
<svg id="graph" class="graph">
<g id="viewport">
<title>common/sbus/include/ps2_sbus.h</title>
<!-- Node1 -->
<g id="Node000001" class="node">
<title>Node1</title>
<g id="a_Node000001"><a xlink:title=" ">
<polygon fill="#999999" stroke="#666666" points="815.38,-97 704.12,-97 704.12,-66.5 815.38,-66.5 815.38,-97"/>
<text text-anchor="start" x="712.12" y="-83.5" font-family="Helvetica,sans-Serif" font-size="10.00">common/sbus/include</text>
<text text-anchor="middle" x="759.75" y="-72.25" font-family="Helvetica,sans-Serif" font-size="10.00">/ps2_sbus.h</text>
</a>
</g>
</g>
<!-- Node2 -->
<g id="Node000002" class="node">
<title>Node2</title>
<g id="a_Node000002"><a xlink:href="ee__sbus_8c_source.html" target="_top" xlink:title=" ">
<polygon fill="white" stroke="#666666" points="107.5,-30.5 0,-30.5 0,0 107.5,0 107.5,-30.5"/>
<text text-anchor="start" x="8" y="-17" font-family="Helvetica,sans-Serif" font-size="10.00">common/sbus/src/ee</text>
<text text-anchor="middle" x="53.75" y="-5.75" font-family="Helvetica,sans-Serif" font-size="10.00">_sbus.c</text>
</a>
</g>
</g>
<!-- Node1&#45;&gt;Node2 -->
<g id="edge1_Node000001_Node000002" class="edge">
<title>Node1&#45;&gt;Node2</title>
<g id="a_edge1_Node000001_Node000002"><a xlink:title=" ">
<path fill="none" stroke="#63b8ff" d="M692.69,-78.7C575.35,-74.4 325.41,-62.08 116.75,-30.5 113.87,-30.06 110.92,-29.57 107.95,-29.03"/>
<polygon fill="#63b8ff" stroke="#63b8ff" points="692.34,-82.19 702.45,-79.05 692.59,-75.19 692.34,-82.19"/>
</a>
</g>
</g>
<!-- Node3 -->
<g id="Node000003" class="node">
<title>Node3</title>
<g id="a_Node000003"><a xlink:href="ee__sif2_8c_source.html" target="_top" xlink:title=" ">
<polygon fill="white" stroke="#666666" points="233.5,-30.5 126,-30.5 126,0 233.5,0 233.5,-30.5"/>
<text text-anchor="start" x="134" y="-17" font-family="Helvetica,sans-Serif" font-size="10.00">common/sbus/src/ee</text>
<text text-anchor="middle" x="179.75" y="-5.75" font-family="Helvetica,sans-Serif" font-size="10.00">_sif2.c</text>
</a>
</g>
</g>
<!-- Node1&#45;&gt;Node3 -->
<g id="edge2_Node000001_Node000003" class="edge">
<title>Node1&#45;&gt;Node3</title>
<g id="a_edge2_Node000001_Node000003"><a xlink:title=" ">
<path fill="none" stroke="#63b8ff" d="M692.68,-76.93C593.75,-70.69 403.11,-56.33 242.75,-30.5 239.87,-30.04 236.93,-29.52 233.96,-28.97"/>
<polygon fill="#63b8ff" stroke="#63b8ff" points="692.28,-80.41 702.48,-77.54 692.71,-73.42 692.28,-80.41"/>
</a>
</g>
</g>
<!-- Node4 -->
<g id="Node000004" class="node">
<title>Node4</title>
<g id="a_Node000004"><a xlink:href="iop__sbus_8c_source.html" target="_top" xlink:title=" ">
<polygon fill="white" stroke="#666666" points="361.62,-30.5 251.88,-30.5 251.88,0 361.62,0 361.62,-30.5"/>
<text text-anchor="start" x="259.88" y="-17" font-family="Helvetica,sans-Serif" font-size="10.00">common/sbus/src/iop</text>
<text text-anchor="middle" x="306.75" y="-5.75" font-family="Helvetica,sans-Serif" font-size="10.00">_sbus.c</text>
</a>
</g>
</g>
<!-- Node1&#45;&gt;Node4 -->
<g id="edge3_Node000001_Node000004" class="edge">
<title>Node1&#45;&gt;Node4</title>
<g id="a_edge3_Node000001_Node000004"><a xlink:title=" ">
<path fill="none" stroke="#63b8ff" d="M692.72,-73.96C614.98,-65.65 483.1,-50.22 370.75,-30.5 367.83,-29.99 364.85,-29.43 361.84,-28.85"/>
<polygon fill="#63b8ff" stroke="#63b8ff" points="691.97,-77.4 702.28,-74.97 692.71,-70.44 691.97,-77.4"/>
</a>
</g>
</g>
<!-- Node5 -->
<g id="Node000005" class="node">
<title>Node5</title>
<g id="a_Node000005"><a xlink:href="iop__sif2_8c_source.html" target="_top" xlink:title=" ">
<polygon fill="white" stroke="#666666" points="489.62,-30.5 379.88,-30.5 379.88,0 489.62,0 489.62,-30.5"/>
<text text-anchor="start" x="387.88" y="-17" font-family="Helvetica,sans-Serif" font-size="10.00">common/sbus/src/iop</text>
<text text-anchor="middle" x="434.75" y="-5.75" font-family="Helvetica,sans-Serif" font-size="10.00">_sif2.c</text>
</a>
</g>
</g>
<!-- Node1&#45;&gt;Node5 -->
<g id="edge4_Node000001_Node000005" class="edge">
<title>Node1&#45;&gt;Node5</title>
<g id="a_edge4_Node000001_Node000005"><a xlink:title=" ">
<path fill="none" stroke="#63b8ff" d="M692.41,-68.34C639.64,-58.48 564.42,-44.13 498.75,-30.5 495.85,-29.9 492.88,-29.27 489.89,-28.63"/>
<polygon fill="#63b8ff" stroke="#63b8ff" points="691.69,-71.76 702.16,-70.16 692.98,-64.88 691.69,-71.76"/>
</a>
</g>
</g>
<!-- Node6 -->
<g id="Node000006" class="node">
<title>Node6</title>
<g id="a_Node000006"><a xlink:href="ps2__dbg_8c_source.html" target="_top" xlink:title=" ">
<polygon fill="white" stroke="#666666" points="620.12,-30.5 507.38,-30.5 507.38,0 620.12,0 620.12,-30.5"/>
<text text-anchor="start" x="515.38" y="-17" font-family="Helvetica,sans-Serif" font-size="10.00">common/sbus/src/ps2</text>
<text text-anchor="middle" x="563.75" y="-5.75" font-family="Helvetica,sans-Serif" font-size="10.00">_dbg.c</text>
</a>
</g>
</g>
<!-- Node1&#45;&gt;Node6 -->
<g id="edge5_Node000001_Node000006" class="edge">
<title>Node1&#45;&gt;Node6</title>
<g id="a_edge5_Node000001_Node000006"><a xlink:title=" ">
<path fill="none" stroke="#63b8ff" d="M704.42,-62.54C674.05,-52.55 636.89,-40.32 608.39,-30.94"/>
<polygon fill="#63b8ff" stroke="#63b8ff" points="703.24,-65.84 713.84,-65.64 705.43,-59.19 703.24,-65.84"/>
</a>
</g>
</g>
<!-- Node7 -->
<g id="Node000007" class="node">
<title>Node7</title>
<g id="a_Node000007"><a xlink:href="ps2__sbus_8c_source.html" target="_top" xlink:title=" ">
<polygon fill="white" stroke="#666666" points="751.12,-30.5 638.38,-30.5 638.38,0 751.12,0 751.12,-30.5"/>
<text text-anchor="start" x="646.38" y="-17" font-family="Helvetica,sans-Serif" font-size="10.00">common/sbus/src/ps2</text>
<text text-anchor="middle" x="694.75" y="-5.75" font-family="Helvetica,sans-Serif" font-size="10.00">_sbus.c</text>
</a>
</g>
</g>
<!-- Node1&#45;&gt;Node7 -->
<g id="edge6_Node000001_Node000007" class="edge">
<title>Node1&#45;&gt;Node7</title>
<g id="a_edge6_Node000001_Node000007"><a xlink:title=" ">
<path fill="none" stroke="#63b8ff" d="M737.01,-58.19C727.86,-49.11 717.58,-38.9 709.44,-30.83"/>
<polygon fill="#63b8ff" stroke="#63b8ff" points="734.36,-60.49 743.93,-65.05 739.29,-55.52 734.36,-60.49"/>
</a>
</g>
</g>
<!-- Node8 -->
<g id="Node000008" class="node">
<title>Node8</title>
<g id="a_Node000008"><a xlink:href="ps2__sif_8c_source.html" target="_top" xlink:title=" ">
<polygon fill="white" stroke="#666666" points="882.12,-30.5 769.38,-30.5 769.38,0 882.12,0 882.12,-30.5"/>
<text text-anchor="start" x="777.38" y="-17" font-family="Helvetica,sans-Serif" font-size="10.00">common/sbus/src/ps2</text>
<text text-anchor="middle" x="825.75" y="-5.75" font-family="Helvetica,sans-Serif" font-size="10.00">_sif.c</text>
</a>
</g>
</g>
<!-- Node1&#45;&gt;Node8 -->
<g id="edge7_Node000001_Node000008" class="edge">
<title>Node1&#45;&gt;Node8</title>
<g id="a_edge7_Node000001_Node000008"><a xlink:title=" ">
<path fill="none" stroke="#63b8ff" d="M782.84,-58.19C792.13,-49.11 802.57,-38.9 810.83,-30.83"/>
<polygon fill="#63b8ff" stroke="#63b8ff" points="780.51,-55.56 775.81,-65.06 785.41,-60.57 780.51,-55.56"/>
</a>
</g>
</g>
<!-- Node9 -->
<g id="Node000009" class="node">
<title>Node9</title>
<g id="a_Node000009"><a xlink:href="sif2cmd_8c_source.html" target="_top" xlink:title=" ">
<polygon fill="white" stroke="#666666" points="1039.25,-24.88 900.25,-24.88 900.25,-5.63 1039.25,-5.63 1039.25,-24.88"/>
<text text-anchor="middle" x="969.75" y="-11.38" font-family="Helvetica,sans-Serif" font-size="10.00">common/sbus/src/sif2cmd.c</text>
</a>
</g>
</g>
<!-- Node1&#45;&gt;Node9 -->
<g id="edge8_Node000001_Node000009" class="edge">
<title>Node1&#45;&gt;Node9</title>
<g id="a_edge8_Node000001_Node000009"><a xlink:title=" ">
<path fill="none" stroke="#63b8ff" d="M818.52,-62.7C858.14,-50.53 908.73,-34.99 940.19,-25.33"/>
<polygon fill="#63b8ff" stroke="#63b8ff" points="817.64,-59.31 809.11,-65.59 819.7,-66 817.64,-59.31"/>
</a>
</g>
</g>
<!-- Node10 -->
<g id="Node000010" class="node">
<title>Node10</title>
<g id="a_Node000010"><a xlink:href="iop_2debug_2iop__sbusdbg_2src_2irx__imports_8h_source.html" target="_top" xlink:title=" ">
<polygon fill="white" stroke="#666666" points="1172.62,-30.5 1056.88,-30.5 1056.88,0 1172.62,0 1172.62,-30.5"/>
<text text-anchor="start" x="1064.88" y="-17" font-family="Helvetica,sans-Serif" font-size="10.00">iop/debug/iop_sbusdbg</text>
<text text-anchor="middle" x="1114.75" y="-5.75" font-family="Helvetica,sans-Serif" font-size="10.00">/src/irx_imports.h</text>
</a>
</g>
</g>
<!-- Node1&#45;&gt;Node10 -->
<g id="edge9_Node000001_Node000010" class="edge">
<title>Node1&#45;&gt;Node10</title>
<g id="a_edge9_Node000001_Node000010"><a xlink:title=" ">
<path fill="none" stroke="#63b8ff" d="M827.16,-69.82C885.82,-60.12 973.07,-45.24 1048.75,-30.5 1051.28,-30.01 1053.87,-29.49 1056.47,-28.97"/>
<polygon fill="#63b8ff" stroke="#63b8ff" points="826.61,-66.37 817.31,-71.45 827.75,-73.27 826.61,-66.37"/>
</a>
</g>
</g>
<!-- Node11 -->
<g id="Node000011" class="node">
<title>Node11</title>
<g id="a_Node000011"><a xlink:href="iop_2debug_2iop__sbusdbg_2src_2main_8c_source.html" target="_top" xlink:title=" ">
<polygon fill="white" stroke="#666666" points="1306.62,-30.5 1190.88,-30.5 1190.88,0 1306.62,0 1306.62,-30.5"/>
<text text-anchor="start" x="1198.88" y="-17" font-family="Helvetica,sans-Serif" font-size="10.00">iop/debug/iop_sbusdbg</text>
<text text-anchor="middle" x="1248.75" y="-5.75" font-family="Helvetica,sans-Serif" font-size="10.00">/src/main.c</text>
</a>
</g>
</g>
<!-- Node1&#45;&gt;Node11 -->
<g id="edge10_Node000001_Node000011" class="edge">
<title>Node1&#45;&gt;Node11</title>
<g id="a_edge10_Node000001_Node000011"><a xlink:title=" ">
<path fill="none" stroke="#63b8ff" d="M826.97,-74.65C910.46,-66.64 1057.13,-51.13 1181.75,-30.5 1184.68,-30.01 1187.68,-29.49 1190.71,-28.93"/>
<polygon fill="#63b8ff" stroke="#63b8ff" points="826.75,-71.16 817.12,-75.59 827.41,-78.13 826.75,-71.16"/>
</a>
</g>
</g>
<!-- Node12 -->
<g id="Node000012" class="node">
<title>Node12</title>
<g id="a_Node000012"><a xlink:href="sbus__dbg_8c_source.html" target="_top" xlink:title=" ">
<polygon fill="white" stroke="#666666" points="1440.62,-30.5 1324.88,-30.5 1324.88,0 1440.62,0 1440.62,-30.5"/>
<text text-anchor="start" x="1332.88" y="-17" font-family="Helvetica,sans-Serif" font-size="10.00">iop/debug/iop_sbusdbg</text>
<text text-anchor="middle" x="1382.75" y="-5.75" font-family="Helvetica,sans-Serif" font-size="10.00">/src/sbus_dbg.c</text>
</a>
</g>
</g>
<!-- Node1&#45;&gt;Node12 -->
<g id="edge11_Node000001_Node000012" class="edge">
<title>Node1&#45;&gt;Node12</title>
<g id="a_edge11_Node000001_Node000012"><a xlink:title=" ">
<path fill="none" stroke="#63b8ff" d="M827,-77.27C931.86,-71.26 1140.47,-56.96 1315.75,-30.5 1318.69,-30.06 1321.69,-29.56 1324.72,-29.03"/>
<polygon fill="#63b8ff" stroke="#63b8ff" points="826.95,-73.77 817.16,-77.83 827.34,-80.76 826.95,-73.77"/>
</a>
</g>
</g>
<!-- Node13 -->
<g id="Node000013" class="node">
<title>Node13</title>
<g id="a_Node000013"><a xlink:href="sbus__tty_8c_source.html" target="_top" xlink:title=" ">
<polygon fill="white" stroke="#666666" points="1574.62,-30.5 1458.88,-30.5 1458.88,0 1574.62,0 1574.62,-30.5"/>
<text text-anchor="start" x="1466.88" y="-17" font-family="Helvetica,sans-Serif" font-size="10.00">iop/debug/iop_sbusdbg</text>
<text text-anchor="middle" x="1516.75" y="-5.75" font-family="Helvetica,sans-Serif" font-size="10.00">/src/sbus_tty.c</text>
</a>
</g>
</g>
<!-- Node1&#45;&gt;Node13 -->
<g id="edge12_Node000001_Node000013" class="edge">
<title>Node1&#45;&gt;Node13</title>
<g id="a_edge12_Node000001_Node000013"><a xlink:title=" ">
<path fill="none" stroke="#63b8ff" d="M826.61,-78.92C950.22,-74.86 1222.58,-62.78 1449.75,-30.5 1452.69,-30.08 1455.7,-29.61 1458.73,-29.1"/>
<polygon fill="#63b8ff" stroke="#63b8ff" points="826.87,-75.41 816.99,-79.23 827.1,-82.41 826.87,-75.41"/>
</a>
</g>
</g>
</g>
</svg>

<g id="navigator" transform="translate(0 0)" fill="#404254">
  <rect fill="#f2f5e9" fill-opacity="0.5" stroke="#606060" stroke-width=".5" x="0" y="0" width="60" height="60"/>
  <use id="zoomplus" xlink:href="#zoomPlus" x="17" y="9" onmousedown="handleZoom(evt,'in')"/>
  <use id="zoomminus" xlink:href="#zoomMin" x="42" y="9" onmousedown="handleZoom(evt,'out')"/>
  <use id="reset" xlink:href="#resetDef" x="30" y="36" onmousedown="handleReset()"/>
   <use id="arrowup" xlink:href="#arrowUp" x="0" y="0" onmousedown="handlePan(0,-1)"/>
  <use id="arrowright" xlink:href="#arrowRight" x="0" y="0" onmousedown="handlePan(1,0)"/>
  <use id="arrowdown" xlink:href="#arrowDown" x="0" y="0" onmousedown="handlePan(0,1)"/>
  <use id="arrowleft" xlink:href="#arrowLeft" x="0" y="0" onmousedown="handlePan(-1,0)"/>
</g>
<svg viewBox="0 0 15 15" width="100%" height="30px" preserveAspectRatio="xMaxYMin meet">
 <g id="arrow_out" transform="scale(0.3 0.3)">
  <a xlink:href="ps2__sbus_8h__dep__incl_org.svg" target="_base">
   <rect id="button" ry="5" rx="5" y="6" x="6" height="38" width="38"
        fill="#f2f5e9" fill-opacity="0.5" stroke="#606060" stroke-width="1.0"/>
   <path id="arrow"
     d="M 11.500037,31.436501 C 11.940474,20.09759 22.043105,11.32322 32.158766,21.979434 L 37.068811,17.246167 C 37.068811,17.246167 37.088388,32 37.088388,32 L 22.160133,31.978069 C 22.160133,31.978069 26.997745,27.140456 26.997745,27.140456 C 18.528582,18.264221 13.291696,25.230495 11.500037,31.436501 z"
     style="fill:#404040;"/>
  </a>
 </g>
</svg>

<style type='text/css'>
<![CDATA[
[data-mouse-over-selected='false'] { opacity: 0.7; }
[data-mouse-over-selected='true']  { opacity: 1.0; }
]]>
</style>
<script type="application/ecmascript"><![CDATA[
document.addEventListener('DOMContentLoaded', (event) => {
  highlightEdges();
  highlightAdjacentNodes();
});
]]></script>
</svg>
