<?xml version="1.0" encoding="UTF-8" standalone="no"?>
<!DOCTYPE svg PUBLIC "-//W3C//DTD SVG 1.1//EN"
 "http://www.w3.org/Graphics/SVG/1.1/DTD/svg11.dtd">
<!-- Generated by graphviz version 9.0.0 (20230911.1827)
 -->
<!-- Title: common/include/ps2_debug.h Pages: 1 -->
<svg width="916pt" height="172pt"
 viewBox="0.00 0.00 915.62 171.50" xmlns="http://www.w3.org/2000/svg" xmlns:xlink="http://www.w3.org/1999/xlink">
<g id="graph0" class="graph" transform="scale(1 1) rotate(0) translate(4 167.5)">
<title>common/include/ps2_debug.h</title>
<!-- Node1 -->
<g id="Node000001" class="node">
<title>Node1</title>
<g id="a_Node000001"><a xlink:title=" ">
<polygon fill="#999999" stroke="#666666" points="379.62,-163.5 273.62,-163.5 273.62,-133 379.62,-133 379.62,-163.5"/>
<text text-anchor="start" x="281.62" y="-150" font-family="Helvetica,sans-Serif" font-size="10.00">common/include/ps2</text>
<text text-anchor="middle" x="326.62" y="-138.75" font-family="Helvetica,sans-Serif" font-size="10.00">_debug.h</text>
</a>
</g>
</g>
<!-- Node2 -->
<g id="Node000002" class="node">
<title>Node2</title>
<g id="a_Node000002"><a xlink:href="ee__debug_8h.html" target="_top" xlink:title=" ">
<polygon fill="white" stroke="#666666" points="131.62,-97 31.62,-97 31.62,-66.5 131.62,-66.5 131.62,-97"/>
<text text-anchor="start" x="39.62" y="-83.5" font-family="Helvetica,sans-Serif" font-size="10.00">ee/eedebug/include</text>
<text text-anchor="middle" x="81.62" y="-72.25" font-family="Helvetica,sans-Serif" font-size="10.00">/ee_debug.h</text>
</a>
</g>
</g>
<!-- Node1&#45;&gt;Node2 -->
<g id="edge1_Node000001_Node000002" class="edge">
<title>Node1&#45;&gt;Node2</title>
<g id="a_edge1_Node000001_Node000002"><a xlink:title=" ">
<path fill="none" stroke="#63b8ff" d="M262.27,-130.31C221.58,-119.6 169.75,-105.95 132.05,-96.02"/>
<polygon fill="#63b8ff" stroke="#63b8ff" points="261.14,-133.63 271.7,-132.79 262.92,-126.86 261.14,-133.63"/>
</a>
</g>
</g>
<!-- Node4 -->
<g id="Node000004" class="node">
<title>Node4</title>
<g id="a_Node000004"><a xlink:href="iop__sbusdbg_8h.html" target="_top" xlink:title=" ">
<polygon fill="white" stroke="#666666" points="279.5,-97 163.75,-97 163.75,-66.5 279.5,-66.5 279.5,-97"/>
<text text-anchor="start" x="171.75" y="-83.5" font-family="Helvetica,sans-Serif" font-size="10.00">iop/debug/iop_sbusdbg</text>
<text text-anchor="middle" x="221.62" y="-72.25" font-family="Helvetica,sans-Serif" font-size="10.00">/include/iop_sbusdbg.h</text>
</a>
</g>
</g>
<!-- Node1&#45;&gt;Node4 -->
<g id="edge3_Node000001_Node000004" class="edge">
<title>Node1&#45;&gt;Node4</title>
<g id="a_edge3_Node000001_Node000004"><a xlink:title=" ">
<path fill="none" stroke="#63b8ff" d="M293.03,-126.61C277.51,-117.08 259.44,-105.98 245.36,-97.33"/>
<polygon fill="#63b8ff" stroke="#63b8ff" points="291.16,-129.57 301.51,-131.82 294.82,-123.61 291.16,-129.57"/>
</a>
</g>
</g>
<!-- Node5 -->
<g id="Node000005" class="node">
<title>Node5</title>
<g id="a_Node000005"><a xlink:href="sbus__dbg_8c_source.html" target="_top" xlink:title=" ">
<polygon fill="white" stroke="#666666" points="269.5,-30.5 153.75,-30.5 153.75,0 269.5,0 269.5,-30.5"/>
<text text-anchor="start" x="161.75" y="-17" font-family="Helvetica,sans-Serif" font-size="10.00">iop/debug/iop_sbusdbg</text>
<text text-anchor="middle" x="211.62" y="-5.75" font-family="Helvetica,sans-Serif" font-size="10.00">/src/sbus_dbg.c</text>
</a>
</g>
</g>
<!-- Node1&#45;&gt;Node5 -->
<g id="edge4_Node000001_Node000005" class="edge">
<title>Node1&#45;&gt;Node5</title>
<g id="a_edge4_Node000001_Node000005"><a xlink:title=" ">
<path fill="none" stroke="#63b8ff" d="M318.81,-121.92C312.63,-104.87 302.68,-82.64 288.62,-66.5 275.73,-51.69 257.46,-39.51 241.94,-30.85"/>
<polygon fill="#63b8ff" stroke="#63b8ff" points="315.48,-122.99 322.01,-131.33 322.1,-120.73 315.48,-122.99"/>
</a>
</g>
</g>
<!-- Node6 -->
<g id="Node000006" class="node">
<title>Node6</title>
<g id="a_Node000006"><a xlink:href="sbus__tty_8c_source.html" target="_top" xlink:title=" ">
<polygon fill="white" stroke="#666666" points="403.5,-30.5 287.75,-30.5 287.75,0 403.5,0 403.5,-30.5"/>
<text text-anchor="start" x="295.75" y="-17" font-family="Helvetica,sans-Serif" font-size="10.00">iop/debug/iop_sbusdbg</text>
<text text-anchor="middle" x="345.62" y="-5.75" font-family="Helvetica,sans-Serif" font-size="10.00">/src/sbus_tty.c</text>
</a>
</g>
</g>
<!-- Node1&#45;&gt;Node6 -->
<g id="edge5_Node000001_Node000006" class="edge">
<title>Node1&#45;&gt;Node6</title>
<g id="a_edge5_Node000001_Node000006"><a xlink:title=" ">
<path fill="none" stroke="#63b8ff" d="M330.37,-121.43C334.3,-94.34 340.34,-52.71 343.51,-30.83"/>
<polygon fill="#63b8ff" stroke="#63b8ff" points="326.92,-120.83 328.95,-131.23 333.85,-121.84 326.92,-120.83"/>
</a>
</g>
</g>
<!-- Node7 -->
<g id="Node000007" class="node">
<title>Node7</title>
<g id="a_Node000007"><a xlink:href="iopdebug_8h.html" target="_top" xlink:title=" ">
<polygon fill="white" stroke="#666666" points="529.62,-97 429.62,-97 429.62,-66.5 529.62,-66.5 529.62,-97"/>
<text text-anchor="start" x="437.62" y="-83.5" font-family="Helvetica,sans-Serif" font-size="10.00">iop/debug/iopdebug</text>
<text text-anchor="middle" x="479.62" y="-72.25" font-family="Helvetica,sans-Serif" font-size="10.00">/include/iopdebug.h</text>
</a>
</g>
</g>
<!-- Node1&#45;&gt;Node7 -->
<g id="edge6_Node000001_Node000007" class="edge">
<title>Node1&#45;&gt;Node7</title>
<g id="a_edge6_Node000001_Node000007"><a xlink:title=" ">
<path fill="none" stroke="#63b8ff" d="M371.7,-128.25C395.04,-118.41 423.12,-106.57 444.78,-97.44"/>
<polygon fill="#63b8ff" stroke="#63b8ff" points="370.59,-124.92 362.74,-132.03 373.31,-131.37 370.59,-124.92"/>
</a>
</g>
</g>
<!-- Node10 -->
<g id="Node000010" class="node">
<title>Node10</title>
<g id="a_Node000010"><a xlink:href="iop__debug_8c.html" target="_top" xlink:title=" ">
<polygon fill="white" stroke="#666666" points="907.62,-30.5 807.62,-30.5 807.62,0 907.62,0 907.62,-30.5"/>
<text text-anchor="start" x="815.62" y="-17" font-family="Helvetica,sans-Serif" font-size="10.00">iop/debug/iopdebug</text>
<text text-anchor="middle" x="857.62" y="-5.75" font-family="Helvetica,sans-Serif" font-size="10.00">/src/iop_debug.c</text>
</a>
</g>
</g>
<!-- Node1&#45;&gt;Node10 -->
<g id="edge13_Node000001_Node000010" class="edge">
<title>Node1&#45;&gt;Node10</title>
<g id="a_edge13_Node000001_Node000010"><a xlink:title=" ">
<path fill="none" stroke="#63b8ff" d="M391.02,-132.25C433.07,-122.4 489.16,-109.12 538.62,-97 633.65,-73.71 744.29,-45.45 807.13,-29.28"/>
<polygon fill="#63b8ff" stroke="#63b8ff" points="390.24,-128.84 381.3,-134.53 391.83,-135.66 390.24,-128.84"/>
</a>
</g>
</g>
<!-- Node3 -->
<g id="Node000003" class="node">
<title>Node3</title>
<g id="a_Node000003"><a xlink:href="ee__debug_8c_source.html" target="_top" xlink:title=" ">
<polygon fill="white" stroke="#666666" points="135.25,-24.88 0,-24.88 0,-5.63 135.25,-5.63 135.25,-24.88"/>
<text text-anchor="middle" x="67.62" y="-11.38" font-family="Helvetica,sans-Serif" font-size="10.00">ee/eedebug/src/ee_debug.c</text>
</a>
</g>
</g>
<!-- Node2&#45;&gt;Node3 -->
<g id="edge2_Node000002_Node000003" class="edge">
<title>Node2&#45;&gt;Node3</title>
<g id="a_edge2_Node000002_Node000003"><a xlink:title=" ">
<path fill="none" stroke="#63b8ff" d="M76.07,-55.18C73.76,-44.51 71.22,-32.83 69.54,-25.07"/>
<polygon fill="#63b8ff" stroke="#63b8ff" points="72.59,-55.6 78.13,-64.63 79.43,-54.12 72.59,-55.6"/>
</a>
</g>
</g>
<!-- Node7&#45;&gt;Node5 -->
<g id="edge9_Node000007_Node000005" class="edge">
<title>Node7&#45;&gt;Node5</title>
<g id="a_edge9_Node000007_Node000005"><a xlink:title=" ">
<path fill="none" stroke="#63b8ff" d="M418.22,-65.97C373.59,-55.23 313.57,-40.79 269.73,-30.23"/>
<polygon fill="#63b8ff" stroke="#63b8ff" points="417.2,-69.33 427.74,-68.26 418.84,-62.52 417.2,-69.33"/>
</a>
</g>
</g>
<!-- Node7&#45;&gt;Node6 -->
<g id="edge10_Node000007_Node000006" class="edge">
<title>Node7&#45;&gt;Node6</title>
<g id="a_edge10_Node000007_Node000006"><a xlink:title=" ">
<path fill="none" stroke="#63b8ff" d="M439,-61.2C418.7,-51.43 394.56,-39.81 375.91,-30.83"/>
<polygon fill="#63b8ff" stroke="#63b8ff" points="437.33,-64.27 447.85,-65.46 440.36,-57.97 437.33,-64.27"/>
</a>
</g>
</g>
<!-- Node8 -->
<g id="Node000008" class="node">
<title>Node8</title>
<g id="a_Node000008"><a xlink:href="iop_2debug_2iop__sbusdbg_2src_2irx__imports_8h_source.html" target="_top" xlink:title=" ">
<polygon fill="white" stroke="#666666" points="537.5,-30.5 421.75,-30.5 421.75,0 537.5,0 537.5,-30.5"/>
<text text-anchor="start" x="429.75" y="-17" font-family="Helvetica,sans-Serif" font-size="10.00">iop/debug/iop_sbusdbg</text>
<text text-anchor="middle" x="479.62" y="-5.75" font-family="Helvetica,sans-Serif" font-size="10.00">/src/irx_imports.h</text>
</a>
</g>
</g>
<!-- Node7&#45;&gt;Node8 -->
<g id="edge7_Node000007_Node000008" class="edge">
<title>Node7&#45;&gt;Node8</title>
<g id="a_edge7_Node000007_Node000008"><a xlink:title=" ">
<path fill="none" stroke="#63b8ff" d="M479.62,-54.81C479.62,-46.64 479.62,-37.91 479.62,-30.83"/>
<polygon fill="#63b8ff" stroke="#63b8ff" points="476.13,-54.6 479.63,-64.6 483.13,-54.6 476.13,-54.6"/>
</a>
</g>
</g>
<!-- Node9 -->
<g id="Node000009" class="node">
<title>Node9</title>
<g id="a_Node000009"><a xlink:href="iop_2debug_2iop__sbusdbg_2src_2main_8c_source.html" target="_top" xlink:title=" ">
<polygon fill="white" stroke="#666666" points="671.5,-30.5 555.75,-30.5 555.75,0 671.5,0 671.5,-30.5"/>
<text text-anchor="start" x="563.75" y="-17" font-family="Helvetica,sans-Serif" font-size="10.00">iop/debug/iop_sbusdbg</text>
<text text-anchor="middle" x="613.62" y="-5.75" font-family="Helvetica,sans-Serif" font-size="10.00">/src/main.c</text>
</a>
</g>
</g>
<!-- Node7&#45;&gt;Node9 -->
<g id="edge8_Node000007_Node000009" class="edge">
<title>Node7&#45;&gt;Node9</title>
<g id="a_edge8_Node000007_Node000009"><a xlink:title=" ">
<path fill="none" stroke="#63b8ff" d="M520.25,-61.2C540.55,-51.43 564.69,-39.81 583.34,-30.83"/>
<polygon fill="#63b8ff" stroke="#63b8ff" points="518.89,-57.97 511.4,-65.46 521.92,-64.27 518.89,-57.97"/>
</a>
</g>
</g>
<!-- Node7&#45;&gt;Node10 -->
<g id="edge11_Node000007_Node000010" class="edge">
<title>Node7&#45;&gt;Node10</title>
<g id="a_edge11_Node000007_Node000010"><a xlink:title=" ">
<path fill="none" stroke="#63b8ff" d="M541.01,-72.58C605.44,-63.66 709.54,-48.24 798.62,-30.5 801.42,-29.94 804.27,-29.35 807.15,-28.72"/>
<polygon fill="#63b8ff" stroke="#63b8ff" points="540.78,-69.08 531.35,-73.91 541.73,-76.01 540.78,-69.08"/>
</a>
</g>
</g>
<!-- Node11 -->
<g id="Node000011" class="node">
<title>Node11</title>
<g id="a_Node000011"><a xlink:href="iop_2debug_2iopdebug_2src_2main_8c.html" target="_top" xlink:title=" ">
<polygon fill="white" stroke="#666666" points="789.62,-30.5 689.62,-30.5 689.62,0 789.62,0 789.62,-30.5"/>
<text text-anchor="start" x="697.62" y="-17" font-family="Helvetica,sans-Serif" font-size="10.00">iop/debug/iopdebug</text>
<text text-anchor="middle" x="739.62" y="-5.75" font-family="Helvetica,sans-Serif" font-size="10.00">/src/main.c</text>
</a>
</g>
</g>
<!-- Node7&#45;&gt;Node11 -->
<g id="edge12_Node000007_Node000011" class="edge">
<title>Node7&#45;&gt;Node11</title>
<g id="a_edge12_Node000007_Node000011"><a xlink:title=" ">
<path fill="none" stroke="#63b8ff" d="M541.2,-65.47C586.4,-54.26 647.03,-39.22 689.33,-28.73"/>
<polygon fill="#63b8ff" stroke="#63b8ff" points="540.4,-62.07 531.53,-67.87 542.08,-68.86 540.4,-62.07"/>
</a>
</g>
</g>
</g>
</svg>
