<?xml version="1.0" encoding="UTF-8" standalone="no"?>
<!DOCTYPE svg PUBLIC "-//W3C//DTD SVG 1.1//EN"
 "http://www.w3.org/Graphics/SVG/1.1/DTD/svg11.dtd">
<!-- Generated by graphviz version 2.43.0 (0)
 -->
<!-- Title: common/include/ps2_reg_defs.h Pages: 1 -->
<svg width="185pt" height="151pt"
 viewBox="0.00 0.00 184.50 151.00" xmlns="http://www.w3.org/2000/svg" xmlns:xlink="http://www.w3.org/1999/xlink">
<g id="graph0" class="graph" transform="scale(1 1) rotate(0) translate(4 147)">
<title>common/include/ps2_reg_defs.h</title>
<polygon fill="white" stroke="transparent" points="-4,4 -4,-147 180.5,-147 180.5,4 -4,4"/>
<!-- Node1 -->
<g id="node1" class="node">
<title>Node1</title>
<g id="a_node1"><a xlink:title=" ">
<polygon fill="#bfbfbf" stroke="black" points="0,-112.5 0,-142.5 118,-142.5 118,-112.5 0,-112.5"/>
<text text-anchor="start" x="8" y="-130.5" font-family="Helvetica,sans-Serif" font-size="10.00">common/include/ps2</text>
<text text-anchor="middle" x="59" y="-119.5" font-family="Helvetica,sans-Serif" font-size="10.00">_reg_defs.h</text>
</a>
</g>
</g>
<!-- Node2 -->
<g id="node2" class="node">
<title>Node2</title>
<g id="a_node2"><a xlink:href="tamtypes_8h.html" target="_top" xlink:title=" ">
<polygon fill="white" stroke="black" points="23,-0.5 23,-19.5 95,-19.5 95,-0.5 23,-0.5"/>
<text text-anchor="middle" x="59" y="-7.5" font-family="Helvetica,sans-Serif" font-size="10.00">tamtypes.h</text>
</a>
</g>
</g>
<!-- Node1&#45;&gt;Node2 -->
<g id="edge1" class="edge">
<title>Node1&#45;&gt;Node2</title>
<path fill="none" stroke="midnightblue" d="M42.97,-112.32C33.73,-103.04 22.98,-90.05 18,-76 15.03,-67.62 14.79,-64.29 18,-56 22.45,-44.5 31.37,-34.13 39.75,-26.25"/>
<polygon fill="midnightblue" stroke="midnightblue" points="42.24,-28.73 47.46,-19.51 37.63,-23.46 42.24,-28.73"/>
</g>
<!-- Node3 -->
<g id="node3" class="node">
<title>Node3</title>
<g id="a_node3"><a xlink:href="ee__regs_8h.html" target="_top" xlink:title=" ">
<polygon fill="white" stroke="black" points="27,-56.5 27,-75.5 91,-75.5 91,-56.5 27,-56.5"/>
<text text-anchor="middle" x="59" y="-63.5" font-family="Helvetica,sans-Serif" font-size="10.00">ee_regs.h</text>
</a>
</g>
</g>
<!-- Node1&#45;&gt;Node3 -->
<g id="edge2" class="edge">
<title>Node1&#45;&gt;Node3</title>
<path fill="none" stroke="midnightblue" d="M59,-112.4C59,-104.47 59,-94.46 59,-85.86"/>
<polygon fill="midnightblue" stroke="midnightblue" points="62.5,-85.66 59,-75.66 55.5,-85.66 62.5,-85.66"/>
</g>
<!-- Node4 -->
<g id="node4" class="node">
<title>Node4</title>
<g id="a_node4"><a xlink:href="iop__regs_8h.html" target="_top" xlink:title=" ">
<polygon fill="white" stroke="black" points="109.5,-56.5 109.5,-75.5 176.5,-75.5 176.5,-56.5 109.5,-56.5"/>
<text text-anchor="middle" x="143" y="-63.5" font-family="Helvetica,sans-Serif" font-size="10.00">iop_regs.h</text>
</a>
</g>
</g>
<!-- Node1&#45;&gt;Node4 -->
<g id="edge4" class="edge">
<title>Node1&#45;&gt;Node4</title>
<path fill="none" stroke="midnightblue" d="M78.91,-112.4C91.99,-103.13 109.08,-91.03 122.32,-81.65"/>
<polygon fill="midnightblue" stroke="midnightblue" points="124.64,-84.29 130.78,-75.66 120.59,-78.58 124.64,-84.29"/>
</g>
<!-- Node3&#45;&gt;Node2 -->
<g id="edge3" class="edge">
<title>Node3&#45;&gt;Node2</title>
<path fill="none" stroke="midnightblue" d="M59,-56.08C59,-49.01 59,-38.86 59,-29.99"/>
<polygon fill="midnightblue" stroke="midnightblue" points="62.5,-29.75 59,-19.75 55.5,-29.75 62.5,-29.75"/>
</g>
<!-- Node4&#45;&gt;Node2 -->
<g id="edge5" class="edge">
<title>Node4&#45;&gt;Node2</title>
<path fill="none" stroke="midnightblue" d="M129.5,-56.32C116.4,-47.9 96.29,-34.97 80.89,-25.07"/>
<polygon fill="midnightblue" stroke="midnightblue" points="82.77,-22.12 72.46,-19.65 78.98,-28.01 82.77,-22.12"/>
</g>
</g>
</svg>
