<?xml version="1.0" encoding="UTF-8" standalone="no"?>
<!DOCTYPE svg PUBLIC "-//W3C//DTD SVG 1.1//EN"
 "http://www.w3.org/Graphics/SVG/1.1/DTD/svg11.dtd">
<!-- Generated by graphviz version 2.43.0 (0)
 -->
<!-- Title: iop/dev9/atad/src/ps2atad.c Pages: 1 -->
<!--zoomable 252 -->
<svg id="main" version="1.1" xmlns="http://www.w3.org/2000/svg" xmlns:xlink="http://www.w3.org/1999/xlink" xml:space="preserve" onload="init(evt)">
<style type="text/css"><![CDATA[
.edge:hover path { stroke: red; }
.edge:hover polygon { stroke: red; fill: red; }
]]></style>
<script type="text/javascript"><![CDATA[
var edges = document.getElementsByTagName('g');
if (edges && edges.length) {
  for (var i=0;i<edges.length;i++) {
    if (edges[i].id.substr(0,4)=='edge') {
      edges[i].setAttribute('class','edge');
    }
  }
}
]]></script>
        <defs>
                <circle id="rim" cx="0" cy="0" r="7"/>
                <circle id="rim2" cx="0" cy="0" r="3.5"/>
                <g id="zoomPlus">
                        <use xlink:href="#rim" fill="#404040">
                                <set attributeName="fill" to="#808080" begin="zoomplus.mouseover" end="zoomplus.mouseout"/>
                        </use>
                        <path d="M-4,0h8M0,-4v8" fill="none" stroke="white" stroke-width="1.5" pointer-events="none"/>
                </g>
                <g id="zoomMin">
                        <use xlink:href="#rim" fill="#404040">
                                <set attributeName="fill" to="#808080" begin="zoomminus.mouseover" end="zoomminus.mouseout"/>
                        </use>
                        <path d="M-4,0h8" fill="none" stroke="white" stroke-width="1.5" pointer-events="none"/>
                </g>
                <g id="dirArrow">
                        <path fill="none" stroke="white" stroke-width="1.5" d="M0,-3.0v7 M-2.5,-0.5L0,-3.0L2.5,-0.5"/>
                </g>
               <g id="resetDef">
                       <use xlink:href="#rim2" fill="#404040">
                               <set attributeName="fill" to="#808080" begin="reset.mouseover" end="reset.mouseout"/>
                       </use>
               </g>
        </defs>

<script type="text/javascript">
var viewWidth = 602;
var viewHeight = 252;
var sectionId = 'dynsection-0';
</script>
<script xlink:href="svgpan.js"/>
<svg id="graph" class="graph">
<g id="viewport">
<title>iop/dev9/atad/src/ps2atad.c</title>
<polygon fill="white" stroke="transparent" points="-4,4 -4,-248 598,-248 598,4 -4,4"/>
<!-- Node1 -->
<g id="node1" class="node">
<title>Node1</title>
<g id="a_node1"><a xlink:title=" ">
<polygon fill="#bfbfbf" stroke="black" points="186,-224.5 186,-243.5 337,-243.5 337,-224.5 186,-224.5"/>
<text text-anchor="middle" x="261.5" y="-231.5" font-family="Helvetica,sans-Serif" font-size="10.00">iop/dev9/atad/src/ps2atad.c</text>
</a>
</g>
</g>
<!-- Node2 -->
<g id="node2" class="node">
<title>Node2</title>
<g id="a_node2"><a xlink:title=" ">
<polygon fill="white" stroke="#bfbfbf" points="155,-112.5 155,-131.5 208,-131.5 208,-112.5 155,-112.5"/>
<text text-anchor="middle" x="181.5" y="-119.5" font-family="Helvetica,sans-Serif" font-size="10.00">types.h</text>
</a>
</g>
</g>
<!-- Node1&#45;&gt;Node2 -->
<g id="edge1" class="edge">
<title>Node1&#45;&gt;Node2</title>
<path fill="none" stroke="midnightblue" d="M185.83,-228.36C126.53,-222.96 50.9,-211.56 31.5,-188 -1.72,-147.65 90.45,-131.72 144.82,-125.95"/>
<polygon fill="midnightblue" stroke="midnightblue" points="145.21,-129.43 154.82,-124.96 144.52,-122.47 145.21,-129.43"/>
</g>
<!-- Node3 -->
<g id="node3" class="node">
<title>Node3</title>
<g id="a_node3"><a xlink:href="defs_8h.html" target="_top" xlink:title=" ">
<polygon fill="white" stroke="black" points="0,-112.5 0,-131.5 47,-131.5 47,-112.5 0,-112.5"/>
<text text-anchor="middle" x="23.5" y="-119.5" font-family="Helvetica,sans-Serif" font-size="10.00">defs.h</text>
</a>
</g>
</g>
<!-- Node1&#45;&gt;Node3 -->
<g id="edge2" class="edge">
<title>Node1&#45;&gt;Node3</title>
<path fill="none" stroke="midnightblue" d="M185.96,-229.17C123.32,-224.23 41.3,-213.05 20.5,-188 9.92,-175.26 12.44,-155.79 16.53,-141.48"/>
<polygon fill="midnightblue" stroke="midnightblue" points="19.93,-142.33 19.77,-131.74 13.29,-140.12 19.93,-142.33"/>
</g>
<!-- Node7 -->
<g id="node7" class="node">
<title>Node7</title>
<g id="a_node7"><a xlink:href="irx_8h.html" target="_top" xlink:title=" ">
<polygon fill="white" stroke="black" points="277.5,-112.5 277.5,-131.5 315.5,-131.5 315.5,-112.5 277.5,-112.5"/>
<text text-anchor="middle" x="296.5" y="-119.5" font-family="Helvetica,sans-Serif" font-size="10.00">irx.h</text>
</a>
</g>
</g>
<!-- Node1&#45;&gt;Node7 -->
<g id="edge6" class="edge">
<title>Node1&#45;&gt;Node7</title>
<path fill="none" stroke="midnightblue" d="M292.52,-224.44C310.53,-217.69 331.73,-206.3 342.5,-188 353.13,-169.94 335.04,-150.48 318.52,-137.61"/>
<polygon fill="midnightblue" stroke="midnightblue" points="320.32,-134.59 310.18,-131.52 316.2,-140.24 320.32,-134.59"/>
</g>
<!-- Node8 -->
<g id="node8" class="node">
<title>Node8</title>
<g id="a_node8"><a xlink:href="loadcore_8h.html" target="_top" xlink:title=" ">
<polygon fill="white" stroke="black" points="106.5,-168.5 106.5,-187.5 174.5,-187.5 174.5,-168.5 106.5,-168.5"/>
<text text-anchor="middle" x="140.5" y="-175.5" font-family="Helvetica,sans-Serif" font-size="10.00">loadcore.h</text>
</a>
</g>
</g>
<!-- Node1&#45;&gt;Node8 -->
<g id="edge8" class="edge">
<title>Node1&#45;&gt;Node8</title>
<path fill="none" stroke="midnightblue" d="M242.33,-224.44C222.59,-215.64 191.61,-201.81 169.01,-191.72"/>
<polygon fill="midnightblue" stroke="midnightblue" points="170.14,-188.4 159.58,-187.52 167.29,-194.79 170.14,-188.4"/>
</g>
<!-- Node9 -->
<g id="node9" class="node">
<title>Node9</title>
<g id="a_node9"><a xlink:href="thbase_8h.html" target="_top" xlink:title=" ">
<polygon fill="white" stroke="black" points="193,-168.5 193,-187.5 252,-187.5 252,-168.5 193,-168.5"/>
<text text-anchor="middle" x="222.5" y="-175.5" font-family="Helvetica,sans-Serif" font-size="10.00">thbase.h</text>
</a>
</g>
</g>
<!-- Node1&#45;&gt;Node9 -->
<g id="edge11" class="edge">
<title>Node1&#45;&gt;Node9</title>
<path fill="none" stroke="midnightblue" d="M255.06,-224.08C249.55,-216.46 241.47,-205.26 234.74,-195.94"/>
<polygon fill="midnightblue" stroke="midnightblue" points="237.51,-193.81 228.82,-187.75 231.84,-197.91 237.51,-193.81"/>
</g>
<!-- Node10 -->
<g id="node10" class="node">
<title>Node10</title>
<g id="a_node10"><a xlink:href="thevent_8h.html" target="_top" xlink:title=" ">
<polygon fill="white" stroke="black" points="270,-168.5 270,-187.5 333,-187.5 333,-168.5 270,-168.5"/>
<text text-anchor="middle" x="301.5" y="-175.5" font-family="Helvetica,sans-Serif" font-size="10.00">thevent.h</text>
</a>
</g>
</g>
<!-- Node1&#45;&gt;Node10 -->
<g id="edge14" class="edge">
<title>Node1&#45;&gt;Node10</title>
<path fill="none" stroke="midnightblue" d="M268.11,-224.08C273.76,-216.46 282.04,-205.26 288.95,-195.94"/>
<polygon fill="midnightblue" stroke="midnightblue" points="291.88,-197.87 295.02,-187.75 286.25,-193.7 291.88,-197.87"/>
</g>
<!-- Node11 -->
<g id="node11" class="node">
<title>Node11</title>
<g id="a_node11"><a xlink:href="stdio_8h.html" target="_top" xlink:title=" ">
<polygon fill="white" stroke="black" points="467.5,-168.5 467.5,-187.5 517.5,-187.5 517.5,-168.5 467.5,-168.5"/>
<text text-anchor="middle" x="492.5" y="-175.5" font-family="Helvetica,sans-Serif" font-size="10.00">stdio.h</text>
</a>
</g>
</g>
<!-- Node1&#45;&gt;Node11 -->
<g id="edge17" class="edge">
<title>Node1&#45;&gt;Node11</title>
<path fill="none" stroke="midnightblue" d="M300.84,-224.43C338.57,-216.12 397.39,-202.92 457.27,-188.24"/>
<polygon fill="midnightblue" stroke="midnightblue" points="458.4,-191.57 467.27,-185.78 456.73,-184.77 458.4,-191.57"/>
</g>
<!-- Node13 -->
<g id="node13" class="node">
<title>Node13</title>
<g id="a_node13"><a xlink:href="sysclib_8h.html" target="_top" xlink:title=" ">
<polygon fill="white" stroke="black" points="390,-168.5 390,-187.5 449,-187.5 449,-168.5 390,-168.5"/>
<text text-anchor="middle" x="419.5" y="-175.5" font-family="Helvetica,sans-Serif" font-size="10.00">sysclib.h</text>
</a>
</g>
</g>
<!-- Node1&#45;&gt;Node13 -->
<g id="edge20" class="edge">
<title>Node1&#45;&gt;Node13</title>
<path fill="none" stroke="midnightblue" d="M286.54,-224.44C313.12,-215.36 355.31,-200.94 385.02,-190.78"/>
<polygon fill="midnightblue" stroke="midnightblue" points="386.25,-194.06 394.58,-187.52 383.99,-187.44 386.25,-194.06"/>
</g>
<!-- Node16 -->
<g id="node16" class="node">
<title>Node16</title>
<g id="a_node16"><a xlink:href="atad_8h.html" target="_top" xlink:title=" ">
<polygon fill="white" stroke="black" points="41,-168.5 41,-187.5 88,-187.5 88,-168.5 41,-168.5"/>
<text text-anchor="middle" x="64.5" y="-175.5" font-family="Helvetica,sans-Serif" font-size="10.00">atad.h</text>
</a>
</g>
</g>
<!-- Node1&#45;&gt;Node16 -->
<g id="edge27" class="edge">
<title>Node1&#45;&gt;Node16</title>
<path fill="none" stroke="midnightblue" d="M230.28,-224.44C194.19,-214.55 134.99,-198.32 97.97,-188.17"/>
<polygon fill="midnightblue" stroke="midnightblue" points="98.72,-184.75 88.15,-185.48 96.87,-191.5 98.72,-184.75"/>
</g>
<!-- Node17 -->
<g id="node17" class="node">
<title>Node17</title>
<g id="a_node17"><a xlink:href="atahw_8h.html" target="_top" xlink:title=" ">
<polygon fill="white" stroke="black" points="539,-112.5 539,-131.5 594,-131.5 594,-112.5 539,-112.5"/>
<text text-anchor="middle" x="566.5" y="-119.5" font-family="Helvetica,sans-Serif" font-size="10.00">atahw.h</text>
</a>
</g>
</g>
<!-- Node1&#45;&gt;Node17 -->
<g id="edge30" class="edge">
<title>Node1&#45;&gt;Node17</title>
<path fill="none" stroke="midnightblue" d="M337.08,-227.12C404.23,-220.66 496.28,-208.39 526.5,-188 542.94,-176.91 553.83,-156.57 560.04,-141.58"/>
<polygon fill="midnightblue" stroke="midnightblue" points="563.46,-142.42 563.75,-131.83 556.92,-139.93 563.46,-142.42"/>
</g>
<!-- Node4 -->
<g id="node4" class="node">
<title>Node4</title>
<g id="a_node4"><a xlink:href="iop_2kernel_2include_2types_8h_source.html" target="_top" xlink:title=" ">
<polygon fill="white" stroke="black" points="267,-56.5 267,-75.5 320,-75.5 320,-56.5 267,-56.5"/>
<text text-anchor="middle" x="293.5" y="-63.5" font-family="Helvetica,sans-Serif" font-size="10.00">types.h</text>
</a>
</g>
</g>
<!-- Node3&#45;&gt;Node4 -->
<g id="edge3" class="edge">
<title>Node3&#45;&gt;Node4</title>
<path fill="none" stroke="midnightblue" d="M47.46,-116.21C94.85,-106.73 200.79,-85.54 256.94,-74.31"/>
<polygon fill="midnightblue" stroke="midnightblue" points="257.7,-77.73 266.82,-72.34 256.33,-70.86 257.7,-77.73"/>
</g>
<!-- Node5 -->
<g id="node5" class="node">
<title>Node5</title>
<g id="a_node5"><a xlink:title=" ">
<polygon fill="white" stroke="#bfbfbf" points="265.5,-0.5 265.5,-19.5 321.5,-19.5 321.5,-0.5 265.5,-0.5"/>
<text text-anchor="middle" x="293.5" y="-7.5" font-family="Helvetica,sans-Serif" font-size="10.00">stddef.h</text>
</a>
</g>
</g>
<!-- Node4&#45;&gt;Node5 -->
<g id="edge4" class="edge">
<title>Node4&#45;&gt;Node5</title>
<path fill="none" stroke="midnightblue" d="M293.5,-56.08C293.5,-49.01 293.5,-38.86 293.5,-29.99"/>
<polygon fill="midnightblue" stroke="midnightblue" points="297,-29.75 293.5,-19.75 290,-29.75 297,-29.75"/>
</g>
<!-- Node6 -->
<g id="node6" class="node">
<title>Node6</title>
<g id="a_node6"><a xlink:href="tamtypes_8h.html" target="_top" xlink:title=" ">
<polygon fill="white" stroke="black" points="408.5,-0.5 408.5,-19.5 480.5,-19.5 480.5,-0.5 408.5,-0.5"/>
<text text-anchor="middle" x="444.5" y="-7.5" font-family="Helvetica,sans-Serif" font-size="10.00">tamtypes.h</text>
</a>
</g>
</g>
<!-- Node4&#45;&gt;Node6 -->
<g id="edge5" class="edge">
<title>Node4&#45;&gt;Node6</title>
<path fill="none" stroke="midnightblue" d="M317.43,-56.44C342.72,-47.4 382.8,-33.06 411.18,-22.92"/>
<polygon fill="midnightblue" stroke="midnightblue" points="412.45,-26.18 420.69,-19.52 410.09,-19.59 412.45,-26.18"/>
</g>
<!-- Node7&#45;&gt;Node4 -->
<g id="edge7" class="edge">
<title>Node7&#45;&gt;Node4</title>
<path fill="none" stroke="midnightblue" d="M296,-112.08C295.61,-105.01 295.05,-94.86 294.55,-85.99"/>
<polygon fill="midnightblue" stroke="midnightblue" points="298.04,-85.54 293.99,-75.75 291.05,-85.93 298.04,-85.54"/>
</g>
<!-- Node8&#45;&gt;Node2 -->
<g id="edge9" class="edge">
<title>Node8&#45;&gt;Node2</title>
<path fill="none" stroke="midnightblue" d="M147.27,-168.08C153.06,-160.46 161.56,-149.26 168.64,-139.94"/>
<polygon fill="midnightblue" stroke="midnightblue" points="171.6,-141.83 174.86,-131.75 166.02,-137.6 171.6,-141.83"/>
</g>
<!-- Node8&#45;&gt;Node7 -->
<g id="edge10" class="edge">
<title>Node8&#45;&gt;Node7</title>
<path fill="none" stroke="midnightblue" d="M165.22,-168.44C193.04,-158.81 238.18,-143.19 267.61,-133"/>
<polygon fill="midnightblue" stroke="midnightblue" points="269,-136.22 277.31,-129.64 266.71,-129.61 269,-136.22"/>
</g>
<!-- Node9&#45;&gt;Node2 -->
<g id="edge12" class="edge">
<title>Node9&#45;&gt;Node2</title>
<path fill="none" stroke="midnightblue" d="M215.73,-168.08C209.94,-160.46 201.44,-149.26 194.36,-139.94"/>
<polygon fill="midnightblue" stroke="midnightblue" points="196.98,-137.6 188.14,-131.75 191.4,-141.83 196.98,-137.6"/>
</g>
<!-- Node9&#45;&gt;Node7 -->
<g id="edge13" class="edge">
<title>Node9&#45;&gt;Node7</title>
<path fill="none" stroke="midnightblue" d="M234.39,-168.32C245.65,-160.11 262.79,-147.6 276.21,-137.81"/>
<polygon fill="midnightblue" stroke="midnightblue" points="278.38,-140.56 284.39,-131.83 274.25,-134.9 278.38,-140.56"/>
</g>
<!-- Node10&#45;&gt;Node2 -->
<g id="edge15" class="edge">
<title>Node10&#45;&gt;Node2</title>
<path fill="none" stroke="midnightblue" d="M282.49,-168.44C262.91,-159.64 232.19,-145.81 209.77,-135.72"/>
<polygon fill="midnightblue" stroke="midnightblue" points="210.98,-132.43 200.43,-131.52 208.11,-138.81 210.98,-132.43"/>
</g>
<!-- Node10&#45;&gt;Node7 -->
<g id="edge16" class="edge">
<title>Node10&#45;&gt;Node7</title>
<path fill="none" stroke="midnightblue" d="M300.67,-168.08C300.02,-161.01 299.08,-150.86 298.26,-141.99"/>
<polygon fill="midnightblue" stroke="midnightblue" points="301.72,-141.39 297.31,-131.75 294.75,-142.03 301.72,-141.39"/>
</g>
<!-- Node11&#45;&gt;Node7 -->
<g id="edge19" class="edge">
<title>Node11&#45;&gt;Node7</title>
<path fill="none" stroke="midnightblue" d="M467.28,-170.05C430.99,-160.05 364.19,-141.65 325.77,-131.07"/>
<polygon fill="midnightblue" stroke="midnightblue" points="326.31,-127.58 315.74,-128.3 324.45,-134.33 326.31,-127.58"/>
</g>
<!-- Node12 -->
<g id="node12" class="node">
<title>Node12</title>
<g id="a_node12"><a xlink:title=" ">
<polygon fill="white" stroke="#bfbfbf" points="464.5,-112.5 464.5,-131.5 520.5,-131.5 520.5,-112.5 464.5,-112.5"/>
<text text-anchor="middle" x="492.5" y="-119.5" font-family="Helvetica,sans-Serif" font-size="10.00">stdarg.h</text>
</a>
</g>
</g>
<!-- Node11&#45;&gt;Node12 -->
<g id="edge18" class="edge">
<title>Node11&#45;&gt;Node12</title>
<path fill="none" stroke="midnightblue" d="M492.5,-168.08C492.5,-161.01 492.5,-150.86 492.5,-141.99"/>
<polygon fill="midnightblue" stroke="midnightblue" points="496,-141.75 492.5,-131.75 489,-141.75 496,-141.75"/>
</g>
<!-- Node13&#45;&gt;Node2 -->
<g id="edge21" class="edge">
<title>Node13&#45;&gt;Node2</title>
<path fill="none" stroke="midnightblue" d="M389.84,-170.27C346.3,-160.39 265.18,-141.99 218.03,-131.29"/>
<polygon fill="midnightblue" stroke="midnightblue" points="218.76,-127.86 208.23,-129.06 217.21,-134.69 218.76,-127.86"/>
</g>
<!-- Node13&#45;&gt;Node7 -->
<g id="edge22" class="edge">
<title>Node13&#45;&gt;Node7</title>
<path fill="none" stroke="midnightblue" d="M400.01,-168.44C379.86,-159.6 348.18,-145.69 325.17,-135.59"/>
<polygon fill="midnightblue" stroke="midnightblue" points="326.46,-132.33 315.9,-131.52 323.65,-138.74 326.46,-132.33"/>
</g>
<!-- Node13&#45;&gt;Node12 -->
<g id="edge23" class="edge">
<title>Node13&#45;&gt;Node12</title>
<path fill="none" stroke="midnightblue" d="M431.23,-168.32C442.34,-160.11 459.24,-147.6 472.48,-137.81"/>
<polygon fill="midnightblue" stroke="midnightblue" points="474.6,-140.59 480.56,-131.83 470.44,-134.97 474.6,-140.59"/>
</g>
<!-- Node14 -->
<g id="node14" class="node">
<title>Node14</title>
<g id="a_node14"><a xlink:href="setjmp_8h.html" target="_top" xlink:title=" ">
<polygon fill="white" stroke="black" points="338,-56.5 338,-75.5 397,-75.5 397,-56.5 338,-56.5"/>
<text text-anchor="middle" x="367.5" y="-63.5" font-family="Helvetica,sans-Serif" font-size="10.00">setjmp.h</text>
</a>
</g>
</g>
<!-- Node13&#45;&gt;Node14 -->
<g id="edge24" class="edge">
<title>Node13&#45;&gt;Node14</title>
<path fill="none" stroke="midnightblue" d="M411.08,-168.43C403.13,-159.88 391.42,-146.02 384.5,-132 377.24,-117.29 372.83,-99.13 370.32,-85.74"/>
<polygon fill="midnightblue" stroke="midnightblue" points="373.76,-85.09 368.65,-75.81 366.86,-86.25 373.76,-85.09"/>
</g>
<!-- Node15 -->
<g id="node15" class="node">
<title>Node15</title>
<g id="a_node15"><a xlink:href="ctype_8h.html" target="_top" xlink:title=" ">
<polygon fill="white" stroke="black" points="393,-112.5 393,-131.5 446,-131.5 446,-112.5 393,-112.5"/>
<text text-anchor="middle" x="419.5" y="-119.5" font-family="Helvetica,sans-Serif" font-size="10.00">ctype.h</text>
</a>
</g>
</g>
<!-- Node13&#45;&gt;Node15 -->
<g id="edge26" class="edge">
<title>Node13&#45;&gt;Node15</title>
<path fill="none" stroke="midnightblue" d="M419.5,-168.08C419.5,-161.01 419.5,-150.86 419.5,-141.99"/>
<polygon fill="midnightblue" stroke="midnightblue" points="423,-141.75 419.5,-131.75 416,-141.75 423,-141.75"/>
</g>
<!-- Node14&#45;&gt;Node6 -->
<g id="edge25" class="edge">
<title>Node14&#45;&gt;Node6</title>
<path fill="none" stroke="midnightblue" d="M379.87,-56.32C391.66,-48.06 409.63,-35.45 423.64,-25.63"/>
<polygon fill="midnightblue" stroke="midnightblue" points="425.98,-28.26 432.16,-19.65 421.96,-22.53 425.98,-28.26"/>
</g>
<!-- Node16&#45;&gt;Node2 -->
<g id="edge28" class="edge">
<title>Node16&#45;&gt;Node2</title>
<path fill="none" stroke="midnightblue" d="M83.04,-168.44C102.12,-159.64 132.07,-145.81 153.94,-135.72"/>
<polygon fill="midnightblue" stroke="midnightblue" points="155.43,-138.88 163.05,-131.52 152.5,-132.53 155.43,-138.88"/>
</g>
<!-- Node16&#45;&gt;Node7 -->
<g id="edge29" class="edge">
<title>Node16&#45;&gt;Node7</title>
<path fill="none" stroke="midnightblue" d="M88.26,-170.39C91.36,-169.56 94.5,-168.75 97.5,-168 157.5,-153.04 228.22,-137.56 267.13,-129.22"/>
<polygon fill="midnightblue" stroke="midnightblue" points="268.17,-132.58 277.22,-127.06 266.71,-125.73 268.17,-132.58"/>
</g>
<!-- Node17&#45;&gt;Node6 -->
<g id="edge31" class="edge">
<title>Node17&#45;&gt;Node6</title>
<path fill="none" stroke="midnightblue" d="M571.77,-112.09C578.96,-98.64 589.64,-72.93 577.5,-56 557.93,-28.71 520.91,-17.76 490.88,-13.47"/>
<polygon fill="midnightblue" stroke="midnightblue" points="490.95,-9.95 480.6,-12.21 490.1,-16.9 490.95,-9.95"/>
</g>
<!-- Node18 -->
<g id="node18" class="node">
<title>Node18</title>
<g id="a_node18"><a xlink:href="aifregs_8h.html" target="_top" xlink:title=" ">
<polygon fill="white" stroke="black" points="415,-56.5 415,-75.5 474,-75.5 474,-56.5 415,-56.5"/>
<text text-anchor="middle" x="444.5" y="-63.5" font-family="Helvetica,sans-Serif" font-size="10.00">aifregs.h</text>
</a>
</g>
</g>
<!-- Node17&#45;&gt;Node18 -->
<g id="edge32" class="edge">
<title>Node17&#45;&gt;Node18</title>
<path fill="none" stroke="midnightblue" d="M547.17,-112.44C527.18,-103.6 495.76,-89.69 472.94,-79.59"/>
<polygon fill="midnightblue" stroke="midnightblue" points="474.3,-76.36 463.74,-75.52 471.47,-82.76 474.3,-76.36"/>
</g>
<!-- Node19 -->
<g id="node19" class="node">
<title>Node19</title>
<g id="a_node19"><a xlink:href="speedregs_8h.html" target="_top" xlink:title=" ">
<polygon fill="white" stroke="black" points="492.5,-56.5 492.5,-75.5 568.5,-75.5 568.5,-56.5 492.5,-56.5"/>
<text text-anchor="middle" x="530.5" y="-63.5" font-family="Helvetica,sans-Serif" font-size="10.00">speedregs.h</text>
</a>
</g>
</g>
<!-- Node17&#45;&gt;Node19 -->
<g id="edge34" class="edge">
<title>Node17&#45;&gt;Node19</title>
<path fill="none" stroke="midnightblue" d="M560.56,-112.08C555.52,-104.53 548.16,-93.49 541.99,-84.23"/>
<polygon fill="midnightblue" stroke="midnightblue" points="544.79,-82.13 536.33,-75.75 538.97,-86.01 544.79,-82.13"/>
</g>
<!-- Node18&#45;&gt;Node6 -->
<g id="edge33" class="edge">
<title>Node18&#45;&gt;Node6</title>
<path fill="none" stroke="midnightblue" d="M444.5,-56.08C444.5,-49.01 444.5,-38.86 444.5,-29.99"/>
<polygon fill="midnightblue" stroke="midnightblue" points="448,-29.75 444.5,-19.75 441,-29.75 448,-29.75"/>
</g>
<!-- Node19&#45;&gt;Node6 -->
<g id="edge35" class="edge">
<title>Node19&#45;&gt;Node6</title>
<path fill="none" stroke="midnightblue" d="M516.68,-56.32C503.27,-47.9 482.68,-34.97 466.91,-25.07"/>
<polygon fill="midnightblue" stroke="midnightblue" points="468.61,-22.01 458.28,-19.65 464.89,-27.94 468.61,-22.01"/>
</g>
</g>
</svg>
        <g id="navigator" transform="translate(0 0)" fill="#404254">
                <rect fill="#f2f5e9" fill-opacity="0.5" stroke="#606060" stroke-width=".5" x="0" y="0" width="60" height="60"/>
                <use id="zoomplus" xlink:href="#zoomPlus" x="17" y="9" onmousedown="handleZoom(evt,'in')"/>
                <use id="zoomminus" xlink:href="#zoomMin" x="42" y="9" onmousedown="handleZoom(evt,'out')"/>
                <use id="reset" xlink:href="#resetDef" x="30" y="36" onmousedown="handleReset()"/>
                <g id="arrowUp" xlink:href="#dirArrow" transform="translate(30 24)" onmousedown="handlePan(0,-1)">
                  <use xlink:href="#rim" fill="#404040">
                        <set attributeName="fill" to="#808080" begin="arrowUp.mouseover" end="arrowUp.mouseout"/>
                  </use>
                  <path fill="none" stroke="white" stroke-width="1.5" d="M0,-3.0v7 M-2.5,-0.5L0,-3.0L2.5,-0.5"/>
                </g>
                <g id="arrowRight" xlink:href="#dirArrow" transform="rotate(90) translate(36 -43)" onmousedown="handlePan(1,0)">
                  <use xlink:href="#rim" fill="#404040">
                        <set attributeName="fill" to="#808080" begin="arrowRight.mouseover" end="arrowRight.mouseout"/>
                  </use>
                  <path fill="none" stroke="white" stroke-width="1.5" d="M0,-3.0v7 M-2.5,-0.5L0,-3.0L2.5,-0.5"/>
                </g>
                <g id="arrowDown" xlink:href="#dirArrow" transform="rotate(180) translate(-30 -48)" onmousedown="handlePan(0,1)">
                  <use xlink:href="#rim" fill="#404040">
                        <set attributeName="fill" to="#808080" begin="arrowDown.mouseover" end="arrowDown.mouseout"/>
                  </use>
                  <path fill="none" stroke="white" stroke-width="1.5" d="M0,-3.0v7 M-2.5,-0.5L0,-3.0L2.5,-0.5"/>
                </g>
                <g id="arrowLeft" xlink:href="#dirArrow" transform="rotate(270) translate(-36 17)" onmousedown="handlePan(-1,0)">
                  <use xlink:href="#rim" fill="#404040">
                        <set attributeName="fill" to="#808080" begin="arrowLeft.mouseover" end="arrowLeft.mouseout"/>
                  </use>
                  <path fill="none" stroke="white" stroke-width="1.5" d="M0,-3.0v7 M-2.5,-0.5L0,-3.0L2.5,-0.5"/>
                </g>
        </g>
        <svg viewBox="0 0 15 15" width="100%" height="30px" preserveAspectRatio="xMaxYMin meet">
         <g id="arrow_out" transform="scale(0.3 0.3)">
          <a xlink:href="ps2atad_8c__incl_org.svg" target="_base">
           <rect id="button" ry="5" rx="5" y="6" x="6" height="38" width="38"
                fill="#f2f5e9" fill-opacity="0.5" stroke="#606060" stroke-width="1.0"/>
           <path id="arrow"
             d="M 11.500037,31.436501 C 11.940474,20.09759 22.043105,11.32322 32.158766,21.979434 L 37.068811,17.246167 C 37.068811,17.246167 37.088388,32 37.088388,32 L 22.160133,31.978069 C 22.160133,31.978069 26.997745,27.140456 26.997745,27.140456 C 18.528582,18.264221 13.291696,25.230495 11.500037,31.436501 z"
             style="fill:#404040;"/>
          </a>
         </g>
        </svg>
</svg>
