<?xml version="1.0" encoding="UTF-8" standalone="no"?>
<!DOCTYPE svg PUBLIC "-//W3C//DTD SVG 1.1//EN"
 "http://www.w3.org/Graphics/SVG/1.1/DTD/svg11.dtd">
<!-- Generated by graphviz version 2.44.0 ()
 -->
<!-- Title: common/include/ps2ip_rpc.h Pages: 1 -->
<svg width="168pt" height="151pt"
 viewBox="0.00 0.00 167.50 151.00" xmlns="http://www.w3.org/2000/svg" xmlns:xlink="http://www.w3.org/1999/xlink">
<g id="graph0" class="graph" transform="scale(1 1) rotate(0) translate(4 147)">
<title>common/include/ps2ip_rpc.h</title>
<polygon fill="white" stroke="transparent" points="-4,4 -4,-147 163.5,-147 163.5,4 -4,4"/>
<!-- Node1 -->
<g id="node1" class="node">
<title>Node1</title>
<g id="a_node1"><a xlink:title=" ">
<polygon fill="#bfbfbf" stroke="black" points="1,-112.5 1,-142.5 115,-142.5 115,-112.5 1,-112.5"/>
<text text-anchor="start" x="9" y="-130.5" font-family="Helvetica,sans-Serif" font-size="10.00">common/include/ps2ip</text>
<text text-anchor="middle" x="58" y="-119.5" font-family="Helvetica,sans-Serif" font-size="10.00">_rpc.h</text>
</a>
</g>
</g>
<!-- Node2 -->
<g id="node2" class="node">
<title>Node2</title>
<g id="a_node2"><a xlink:href="tamtypes_8h.html" target="_top" xlink:title=" ">
<polygon fill="white" stroke="black" points="0,-0.5 0,-19.5 64,-19.5 64,-0.5 0,-0.5"/>
<text text-anchor="middle" x="32" y="-7.5" font-family="Helvetica,sans-Serif" font-size="10.00">tamtypes.h</text>
</a>
</g>
</g>
<!-- Node1&#45;&gt;Node2 -->
<g id="edge1" class="edge">
<title>Node1&#45;&gt;Node2</title>
<path fill="none" stroke="midnightblue" d="M45.76,-112.12C38.46,-102.57 29.88,-89.36 26,-76 21.56,-60.69 23.81,-42.59 26.74,-29.38"/>
<polygon fill="midnightblue" stroke="midnightblue" points="30.15,-30.16 29.22,-19.6 23.37,-28.43 30.15,-30.16"/>
</g>
<!-- Node3 -->
<g id="node3" class="node">
<title>Node3</title>
<g id="a_node3"><a xlink:href="tcpip_8h.html" target="_top" xlink:title=" ">
<polygon fill="white" stroke="black" points="35.5,-56.5 35.5,-75.5 80.5,-75.5 80.5,-56.5 35.5,-56.5"/>
<text text-anchor="middle" x="58" y="-63.5" font-family="Helvetica,sans-Serif" font-size="10.00">tcpip.h</text>
</a>
</g>
</g>
<!-- Node1&#45;&gt;Node3 -->
<g id="edge2" class="edge">
<title>Node1&#45;&gt;Node3</title>
<path fill="none" stroke="midnightblue" d="M58,-112.4C58,-104.47 58,-94.46 58,-85.86"/>
<polygon fill="midnightblue" stroke="midnightblue" points="61.5,-85.66 58,-75.66 54.5,-85.66 61.5,-85.66"/>
</g>
<!-- Node4 -->
<g id="node4" class="node">
<title>Node4</title>
<g id="a_node4"><a xlink:href="time_8h.html" target="_top" xlink:title=" ">
<polygon fill="white" stroke="black" points="98.5,-56.5 98.5,-75.5 159.5,-75.5 159.5,-56.5 98.5,-56.5"/>
<text text-anchor="middle" x="129" y="-63.5" font-family="Helvetica,sans-Serif" font-size="10.00">sys/time.h</text>
</a>
</g>
</g>
<!-- Node1&#45;&gt;Node4 -->
<g id="edge4" class="edge">
<title>Node1&#45;&gt;Node4</title>
<path fill="none" stroke="midnightblue" d="M74.83,-112.4C85.67,-103.31 99.78,-91.49 110.87,-82.19"/>
<polygon fill="midnightblue" stroke="midnightblue" points="113.25,-84.76 118.67,-75.66 108.76,-79.4 113.25,-84.76"/>
</g>
<!-- Node3&#45;&gt;Node2 -->
<g id="edge3" class="edge">
<title>Node3&#45;&gt;Node2</title>
<path fill="none" stroke="midnightblue" d="M53.71,-56.08C50.15,-48.69 44.98,-37.95 40.58,-28.81"/>
<polygon fill="midnightblue" stroke="midnightblue" points="43.71,-27.24 36.21,-19.75 37.4,-30.28 43.71,-27.24"/>
</g>
</g>
</svg>
