<?xml version="1.0" encoding="UTF-8" standalone="no"?>
<!DOCTYPE svg PUBLIC "-//W3C//DTD SVG 1.1//EN"
 "http://www.w3.org/Graphics/SVG/1.1/DTD/svg11.dtd">
<!-- Generated by graphviz version 2.43.0 (0)
 -->
<!-- Title: ee/rpc/tcpips/src/ps2ipc.c Pages: 1 -->
<!--zoomable 308 -->
<svg id="main" version="1.1" xmlns="http://www.w3.org/2000/svg" xmlns:xlink="http://www.w3.org/1999/xlink" xml:space="preserve" onload="init(evt)">
<style type="text/css"><![CDATA[
.edge:hover path { stroke: red; }
.edge:hover polygon { stroke: red; fill: red; }
]]></style>
<script type="text/javascript"><![CDATA[
var edges = document.getElementsByTagName('g');
if (edges && edges.length) {
  for (var i=0;i<edges.length;i++) {
    if (edges[i].id.substr(0,4)=='edge') {
      edges[i].setAttribute('class','edge');
    }
  }
}
]]></script>
        <defs>
                <circle id="rim" cx="0" cy="0" r="7"/>
                <circle id="rim2" cx="0" cy="0" r="3.5"/>
                <g id="zoomPlus">
                        <use xlink:href="#rim" fill="#404040">
                                <set attributeName="fill" to="#808080" begin="zoomplus.mouseover" end="zoomplus.mouseout"/>
                        </use>
                        <path d="M-4,0h8M0,-4v8" fill="none" stroke="white" stroke-width="1.5" pointer-events="none"/>
                </g>
                <g id="zoomMin">
                        <use xlink:href="#rim" fill="#404040">
                                <set attributeName="fill" to="#808080" begin="zoomminus.mouseover" end="zoomminus.mouseout"/>
                        </use>
                        <path d="M-4,0h8" fill="none" stroke="white" stroke-width="1.5" pointer-events="none"/>
                </g>
                <g id="dirArrow">
                        <path fill="none" stroke="white" stroke-width="1.5" d="M0,-3.0v7 M-2.5,-0.5L0,-3.0L2.5,-0.5"/>
                </g>
               <g id="resetDef">
                       <use xlink:href="#rim2" fill="#404040">
                               <set attributeName="fill" to="#808080" begin="reset.mouseover" end="reset.mouseout"/>
                       </use>
               </g>
        </defs>

<script type="text/javascript">
var viewWidth = 1046;
var viewHeight = 308;
var sectionId = 'dynsection-0';
</script>
<script xlink:href="svgpan.js"/>
<svg id="graph" class="graph">
<g id="viewport">
<title>ee/rpc/tcpips/src/ps2ipc.c</title>
<polygon fill="white" stroke="transparent" points="-4,4 -4,-304 1042.07,-304 1042.07,4 -4,4"/>
<!-- Node1 -->
<g id="node1" class="node">
<title>Node1</title>
<g id="a_node1"><a xlink:title=" ">
<polygon fill="#bfbfbf" stroke="black" points="620.5,-280.5 620.5,-299.5 759.5,-299.5 759.5,-280.5 620.5,-280.5"/>
<text text-anchor="middle" x="690" y="-287.5" font-family="Helvetica,sans-Serif" font-size="10.00">ee/rpc/tcpips/src/ps2ipc.c</text>
</a>
</g>
</g>
<!-- Node2 -->
<g id="node2" class="node">
<title>Node2</title>
<g id="a_node2"><a xlink:href="tamtypes_8h.html" target="_top" xlink:title=" ">
<polygon fill="white" stroke="black" points="468,-0.5 468,-19.5 540,-19.5 540,-0.5 468,-0.5"/>
<text text-anchor="middle" x="504" y="-7.5" font-family="Helvetica,sans-Serif" font-size="10.00">tamtypes.h</text>
</a>
</g>
</g>
<!-- Node1&#45;&gt;Node2 -->
<g id="edge1" class="edge">
<title>Node1&#45;&gt;Node2</title>
<path fill="none" stroke="midnightblue" d="M759.8,-281.21C861.13,-267.93 1037,-236.59 1037,-179 1037,-179 1037,-179 1037,-121 1037,-90.9 1041.27,-75.09 1018,-56 982.28,-26.71 670.41,-15.4 550.6,-12.12"/>
<polygon fill="midnightblue" stroke="midnightblue" points="550.38,-8.61 540.29,-11.84 550.19,-15.61 550.38,-8.61"/>
</g>
<!-- Node3 -->
<g id="node3" class="node">
<title>Node3</title>
<g id="a_node3"><a xlink:href="string_8h_source.html" target="_top" xlink:title=" ">
<polygon fill="white" stroke="black" points="262.5,-224.5 262.5,-243.5 315.5,-243.5 315.5,-224.5 262.5,-224.5"/>
<text text-anchor="middle" x="289" y="-231.5" font-family="Helvetica,sans-Serif" font-size="10.00">string.h</text>
</a>
</g>
</g>
<!-- Node1&#45;&gt;Node3 -->
<g id="edge2" class="edge">
<title>Node1&#45;&gt;Node3</title>
<path fill="none" stroke="midnightblue" d="M626.46,-280.44C541.77,-269.04 394.63,-249.22 326.1,-240"/>
<polygon fill="midnightblue" stroke="midnightblue" points="326.18,-236.48 315.8,-238.61 325.24,-243.41 326.18,-236.48"/>
</g>
<!-- Node12 -->
<g id="node12" class="node">
<title>Node12</title>
<g id="a_node12"><a xlink:href="kernel_8h.html" target="_top" xlink:title=" ">
<polygon fill="white" stroke="black" points="336,-112.5 336,-131.5 392,-131.5 392,-112.5 336,-112.5"/>
<text text-anchor="middle" x="364" y="-119.5" font-family="Helvetica,sans-Serif" font-size="10.00">kernel.h</text>
</a>
</g>
</g>
<!-- Node1&#45;&gt;Node12 -->
<g id="edge13" class="edge">
<title>Node1&#45;&gt;Node12</title>
<path fill="none" stroke="midnightblue" d="M672.93,-280.31C619.35,-253.02 454.23,-168.95 389.97,-136.22"/>
<polygon fill="midnightblue" stroke="midnightblue" points="391.4,-133.02 380.9,-131.61 388.22,-139.26 391.4,-133.02"/>
</g>
<!-- Node15 -->
<g id="node15" class="node">
<title>Node15</title>
<g id="a_node15"><a xlink:title=" ">
<polygon fill="white" stroke="#bfbfbf" points="663.5,-224.5 663.5,-243.5 716.5,-243.5 716.5,-224.5 663.5,-224.5"/>
<text text-anchor="middle" x="690" y="-231.5" font-family="Helvetica,sans-Serif" font-size="10.00">sifrpc.h</text>
</a>
</g>
</g>
<!-- Node1&#45;&gt;Node15 -->
<g id="edge20" class="edge">
<title>Node1&#45;&gt;Node15</title>
<path fill="none" stroke="midnightblue" d="M690,-280.08C690,-273.01 690,-262.86 690,-253.99"/>
<polygon fill="midnightblue" stroke="midnightblue" points="693.5,-253.75 690,-243.75 686.5,-253.75 693.5,-253.75"/>
</g>
<!-- Node16 -->
<g id="node16" class="node">
<title>Node16</title>
<g id="a_node16"><a xlink:href="iopcontrol_8h.html" target="_top" xlink:title=" ">
<polygon fill="white" stroke="black" points="735,-224.5 735,-243.5 809,-243.5 809,-224.5 735,-224.5"/>
<text text-anchor="middle" x="772" y="-231.5" font-family="Helvetica,sans-Serif" font-size="10.00">iopcontrol.h</text>
</a>
</g>
</g>
<!-- Node1&#45;&gt;Node16 -->
<g id="edge21" class="edge">
<title>Node1&#45;&gt;Node16</title>
<path fill="none" stroke="midnightblue" d="M703.17,-280.32C715.85,-271.98 735.23,-259.21 750.21,-249.35"/>
<polygon fill="midnightblue" stroke="midnightblue" points="752.43,-252.08 758.86,-243.65 748.58,-246.23 752.43,-252.08"/>
</g>
<!-- Node17 -->
<g id="node17" class="node">
<title>Node17</title>
<g id="a_node17"><a xlink:href="ps2ips_8h.html" target="_top" xlink:title=" ">
<polygon fill="white" stroke="black" points="606.5,-168.5 606.5,-187.5 663.5,-187.5 663.5,-168.5 606.5,-168.5"/>
<text text-anchor="middle" x="635" y="-175.5" font-family="Helvetica,sans-Serif" font-size="10.00">ps2ips.h</text>
</a>
</g>
</g>
<!-- Node1&#45;&gt;Node17 -->
<g id="edge22" class="edge">
<title>Node1&#45;&gt;Node17</title>
<path fill="none" stroke="midnightblue" d="M681.71,-280.36C673.86,-271.76 662.22,-257.87 655,-244 647.34,-229.27 642.06,-211.11 638.86,-197.73"/>
<polygon fill="midnightblue" stroke="midnightblue" points="642.23,-196.8 636.65,-187.8 635.4,-198.32 642.23,-196.8"/>
</g>
<!-- Node24 -->
<g id="node24" class="node">
<title>Node24</title>
<g id="a_node24"><a xlink:href="ps2ip__rpc_8h.html" target="_top" xlink:title=" ">
<polygon fill="white" stroke="black" points="850,-112.5 850,-131.5 922,-131.5 922,-112.5 850,-112.5"/>
<text text-anchor="middle" x="886" y="-119.5" font-family="Helvetica,sans-Serif" font-size="10.00">ps2ip_rpc.h</text>
</a>
</g>
</g>
<!-- Node1&#45;&gt;Node24 -->
<g id="edge32" class="edge">
<title>Node1&#45;&gt;Node24</title>
<path fill="none" stroke="midnightblue" d="M739.16,-280.43C764.9,-273.93 795.63,-262.78 818,-244 851.1,-216.21 871.2,-167.96 880.27,-141.56"/>
<polygon fill="midnightblue" stroke="midnightblue" points="883.71,-142.3 883.48,-131.71 877.05,-140.13 883.71,-142.3"/>
</g>
<!-- Node4 -->
<g id="node4" class="node">
<title>Node4</title>
<g id="a_node4"><a xlink:href="sysclib_8h.html" target="_top" xlink:title=" ">
<polygon fill="white" stroke="black" points="156.5,-168.5 156.5,-187.5 215.5,-187.5 215.5,-168.5 156.5,-168.5"/>
<text text-anchor="middle" x="186" y="-175.5" font-family="Helvetica,sans-Serif" font-size="10.00">sysclib.h</text>
</a>
</g>
</g>
<!-- Node3&#45;&gt;Node4 -->
<g id="edge3" class="edge">
<title>Node3&#45;&gt;Node4</title>
<path fill="none" stroke="midnightblue" d="M272.45,-224.32C256.01,-215.7 230.57,-202.36 211.53,-192.39"/>
<polygon fill="midnightblue" stroke="midnightblue" points="212.99,-189.2 202.51,-187.65 209.74,-195.4 212.99,-189.2"/>
</g>
<!-- Node5 -->
<g id="node5" class="node">
<title>Node5</title>
<g id="a_node5"><a xlink:title=" ">
<polygon fill="white" stroke="#bfbfbf" points="56.5,-112.5 56.5,-131.5 109.5,-131.5 109.5,-112.5 56.5,-112.5"/>
<text text-anchor="middle" x="83" y="-119.5" font-family="Helvetica,sans-Serif" font-size="10.00">types.h</text>
</a>
</g>
</g>
<!-- Node4&#45;&gt;Node5 -->
<g id="edge4" class="edge">
<title>Node4&#45;&gt;Node5</title>
<path fill="none" stroke="midnightblue" d="M169.45,-168.32C153.01,-159.7 127.57,-146.36 108.53,-136.39"/>
<polygon fill="midnightblue" stroke="midnightblue" points="109.99,-133.2 99.51,-131.65 106.74,-139.4 109.99,-133.2"/>
</g>
<!-- Node6 -->
<g id="node6" class="node">
<title>Node6</title>
<g id="a_node6"><a xlink:href="irx_8h.html" target="_top" xlink:title=" ">
<polygon fill="white" stroke="black" points="0,-112.5 0,-131.5 38,-131.5 38,-112.5 0,-112.5"/>
<text text-anchor="middle" x="19" y="-119.5" font-family="Helvetica,sans-Serif" font-size="10.00">irx.h</text>
</a>
</g>
</g>
<!-- Node4&#45;&gt;Node6 -->
<g id="edge5" class="edge">
<title>Node4&#45;&gt;Node6</title>
<path fill="none" stroke="midnightblue" d="M159.54,-168.44C129.13,-158.61 79.39,-142.53 47.97,-132.37"/>
<polygon fill="midnightblue" stroke="midnightblue" points="48.66,-128.91 38.07,-129.16 46.5,-135.57 48.66,-128.91"/>
</g>
<!-- Node9 -->
<g id="node9" class="node">
<title>Node9</title>
<g id="a_node9"><a xlink:title=" ">
<polygon fill="white" stroke="#bfbfbf" points="164,-56.5 164,-75.5 220,-75.5 220,-56.5 164,-56.5"/>
<text text-anchor="middle" x="192" y="-63.5" font-family="Helvetica,sans-Serif" font-size="10.00">stdarg.h</text>
</a>
</g>
</g>
<!-- Node4&#45;&gt;Node9 -->
<g id="edge9" class="edge">
<title>Node4&#45;&gt;Node9</title>
<path fill="none" stroke="midnightblue" d="M188.23,-168.45C190.46,-159.45 193.73,-144.84 195,-132 196.53,-116.52 195.55,-98.89 194.31,-85.9"/>
<polygon fill="midnightblue" stroke="midnightblue" points="197.78,-85.41 193.22,-75.85 190.82,-86.17 197.78,-85.41"/>
</g>
<!-- Node10 -->
<g id="node10" class="node">
<title>Node10</title>
<g id="a_node10"><a xlink:href="setjmp_8h.html" target="_top" xlink:title=" ">
<polygon fill="white" stroke="black" points="127.5,-112.5 127.5,-131.5 186.5,-131.5 186.5,-112.5 127.5,-112.5"/>
<text text-anchor="middle" x="157" y="-119.5" font-family="Helvetica,sans-Serif" font-size="10.00">setjmp.h</text>
</a>
</g>
</g>
<!-- Node4&#45;&gt;Node10 -->
<g id="edge10" class="edge">
<title>Node4&#45;&gt;Node10</title>
<path fill="none" stroke="midnightblue" d="M181.21,-168.08C177.24,-160.69 171.47,-149.95 166.57,-140.81"/>
<polygon fill="midnightblue" stroke="midnightblue" points="169.51,-138.91 161.7,-131.75 163.35,-142.22 169.51,-138.91"/>
</g>
<!-- Node11 -->
<g id="node11" class="node">
<title>Node11</title>
<g id="a_node11"><a xlink:href="ctype_8h.html" target="_top" xlink:title=" ">
<polygon fill="white" stroke="black" points="243.5,-112.5 243.5,-131.5 296.5,-131.5 296.5,-112.5 243.5,-112.5"/>
<text text-anchor="middle" x="270" y="-119.5" font-family="Helvetica,sans-Serif" font-size="10.00">ctype.h</text>
</a>
</g>
</g>
<!-- Node4&#45;&gt;Node11 -->
<g id="edge12" class="edge">
<title>Node4&#45;&gt;Node11</title>
<path fill="none" stroke="midnightblue" d="M199.5,-168.32C212.6,-159.9 232.71,-146.97 248.11,-137.07"/>
<polygon fill="midnightblue" stroke="midnightblue" points="250.02,-140.01 256.54,-131.65 246.23,-134.12 250.02,-140.01"/>
</g>
<!-- Node7 -->
<g id="node7" class="node">
<title>Node7</title>
<g id="a_node7"><a xlink:href="iop_2kernel_2include_2types_8h_source.html" target="_top" xlink:title=" ">
<polygon fill="white" stroke="black" points="54.5,-56.5 54.5,-75.5 107.5,-75.5 107.5,-56.5 54.5,-56.5"/>
<text text-anchor="middle" x="81" y="-63.5" font-family="Helvetica,sans-Serif" font-size="10.00">types.h</text>
</a>
</g>
</g>
<!-- Node6&#45;&gt;Node7 -->
<g id="edge6" class="edge">
<title>Node6&#45;&gt;Node7</title>
<path fill="none" stroke="midnightblue" d="M28.96,-112.32C38.13,-104.34 51.94,-92.31 63.03,-82.65"/>
<polygon fill="midnightblue" stroke="midnightblue" points="65.62,-85.04 70.86,-75.83 61.02,-79.76 65.62,-85.04"/>
</g>
<!-- Node7&#45;&gt;Node2 -->
<g id="edge8" class="edge">
<title>Node7&#45;&gt;Node2</title>
<path fill="none" stroke="midnightblue" d="M107.83,-58.71C112.54,-57.72 117.4,-56.77 122,-56 242.35,-35.75 385.56,-21.48 457.65,-14.97"/>
<polygon fill="midnightblue" stroke="midnightblue" points="458.11,-18.44 467.75,-14.07 457.48,-11.47 458.11,-18.44"/>
</g>
<!-- Node8 -->
<g id="node8" class="node">
<title>Node8</title>
<g id="a_node8"><a xlink:title=" ">
<polygon fill="white" stroke="#bfbfbf" points="220,-0.5 220,-19.5 276,-19.5 276,-0.5 220,-0.5"/>
<text text-anchor="middle" x="248" y="-7.5" font-family="Helvetica,sans-Serif" font-size="10.00">stddef.h</text>
</a>
</g>
</g>
<!-- Node7&#45;&gt;Node8 -->
<g id="edge7" class="edge">
<title>Node7&#45;&gt;Node8</title>
<path fill="none" stroke="midnightblue" d="M107.46,-56.44C135.68,-47.32 180.54,-32.81 211.97,-22.65"/>
<polygon fill="midnightblue" stroke="midnightblue" points="213.22,-25.92 221.66,-19.52 211.07,-19.26 213.22,-25.92"/>
</g>
<!-- Node10&#45;&gt;Node2 -->
<g id="edge11" class="edge">
<title>Node10&#45;&gt;Node2</title>
<path fill="none" stroke="midnightblue" d="M153.36,-112.17C148.32,-98.35 141.28,-71.6 155,-56 174.69,-33.6 367.4,-19.19 457.72,-13.61"/>
<polygon fill="midnightblue" stroke="midnightblue" points="458.18,-17.09 467.95,-12.99 457.76,-10.11 458.18,-17.09"/>
</g>
<!-- Node12&#45;&gt;Node8 -->
<g id="edge14" class="edge">
<title>Node12&#45;&gt;Node8</title>
<path fill="none" stroke="midnightblue" d="M335.59,-113.32C315.38,-106.53 288.93,-94.73 272,-76 260.29,-63.04 254.14,-43.87 251.02,-29.71"/>
<polygon fill="midnightblue" stroke="midnightblue" points="254.41,-28.81 249.11,-19.64 247.53,-30.11 254.41,-28.81"/>
</g>
<!-- Node12&#45;&gt;Node9 -->
<g id="edge15" class="edge">
<title>Node12&#45;&gt;Node9</title>
<path fill="none" stroke="midnightblue" d="M336.75,-112.44C307.56,-103.28 261.08,-88.69 228.69,-78.52"/>
<polygon fill="midnightblue" stroke="midnightblue" points="229.72,-75.17 219.13,-75.52 227.62,-81.85 229.72,-75.17"/>
</g>
<!-- Node13 -->
<g id="node13" class="node">
<title>Node13</title>
<g id="a_node13"><a xlink:href="sifdma_8h.html" target="_top" xlink:title=" ">
<polygon fill="white" stroke="black" points="432.5,-56.5 432.5,-75.5 491.5,-75.5 491.5,-56.5 432.5,-56.5"/>
<text text-anchor="middle" x="462" y="-63.5" font-family="Helvetica,sans-Serif" font-size="10.00">sifdma.h</text>
</a>
</g>
</g>
<!-- Node12&#45;&gt;Node13 -->
<g id="edge16" class="edge">
<title>Node12&#45;&gt;Node13</title>
<path fill="none" stroke="midnightblue" d="M379.75,-112.32C395.32,-103.74 419.38,-90.49 437.46,-80.52"/>
<polygon fill="midnightblue" stroke="midnightblue" points="439.22,-83.55 446.29,-75.65 435.85,-77.42 439.22,-83.55"/>
</g>
<!-- Node14 -->
<g id="node14" class="node">
<title>Node14</title>
<g id="a_node14"><a xlink:href="mipscopaccess_8h.html" target="_top" xlink:title=" ">
<polygon fill="white" stroke="black" points="314,-56.5 314,-75.5 414,-75.5 414,-56.5 314,-56.5"/>
<text text-anchor="middle" x="364" y="-63.5" font-family="Helvetica,sans-Serif" font-size="10.00">mipscopaccess.h</text>
</a>
</g>
</g>
<!-- Node12&#45;&gt;Node14 -->
<g id="edge18" class="edge">
<title>Node12&#45;&gt;Node14</title>
<path fill="none" stroke="midnightblue" d="M364,-112.08C364,-105.01 364,-94.86 364,-85.99"/>
<polygon fill="midnightblue" stroke="midnightblue" points="367.5,-85.75 364,-75.75 360.5,-85.75 367.5,-85.75"/>
</g>
<!-- Node13&#45;&gt;Node2 -->
<g id="edge17" class="edge">
<title>Node13&#45;&gt;Node2</title>
<path fill="none" stroke="midnightblue" d="M468.94,-56.08C474.93,-48.38 483.75,-37.03 491.05,-27.65"/>
<polygon fill="midnightblue" stroke="midnightblue" points="493.82,-29.79 497.19,-19.75 488.29,-25.5 493.82,-29.79"/>
</g>
<!-- Node14&#45;&gt;Node2 -->
<g id="edge19" class="edge">
<title>Node14&#45;&gt;Node2</title>
<path fill="none" stroke="midnightblue" d="M386.18,-56.44C409.43,-47.48 446.15,-33.31 472.42,-23.18"/>
<polygon fill="midnightblue" stroke="midnightblue" points="473.85,-26.38 481.92,-19.52 471.33,-19.85 473.85,-26.38"/>
</g>
<!-- Node18 -->
<g id="node18" class="node">
<title>Node18</title>
<g id="a_node18"><a xlink:href="socket_8h_source.html" target="_top" xlink:title=" ">
<polygon fill="white" stroke="black" points="596.5,-112.5 596.5,-131.5 673.5,-131.5 673.5,-112.5 596.5,-112.5"/>
<text text-anchor="middle" x="635" y="-119.5" font-family="Helvetica,sans-Serif" font-size="10.00">sys/socket.h</text>
</a>
</g>
</g>
<!-- Node17&#45;&gt;Node18 -->
<g id="edge23" class="edge">
<title>Node17&#45;&gt;Node18</title>
<path fill="none" stroke="midnightblue" d="M635,-168.08C635,-161.01 635,-150.86 635,-141.99"/>
<polygon fill="midnightblue" stroke="midnightblue" points="638.5,-141.75 635,-131.75 631.5,-141.75 638.5,-141.75"/>
</g>
<!-- Node18&#45;&gt;Node8 -->
<g id="edge25" class="edge">
<title>Node18&#45;&gt;Node8</title>
<path fill="none" stroke="midnightblue" d="M596.47,-119.12C520.56,-114.86 354.72,-102.73 305,-76 284.64,-65.05 268.14,-43.75 258.23,-28.51"/>
<polygon fill="midnightblue" stroke="midnightblue" points="261.18,-26.62 252.94,-19.96 255.23,-30.3 261.18,-26.62"/>
</g>
<!-- Node19 -->
<g id="node19" class="node">
<title>Node19</title>
<g id="a_node19"><a xlink:title=" ">
<polygon fill="white" stroke="#bfbfbf" points="600.5,-56.5 600.5,-75.5 653.5,-75.5 653.5,-56.5 600.5,-56.5"/>
<text text-anchor="middle" x="627" y="-63.5" font-family="Helvetica,sans-Serif" font-size="10.00">stdint.h</text>
</a>
</g>
</g>
<!-- Node18&#45;&gt;Node19 -->
<g id="edge24" class="edge">
<title>Node18&#45;&gt;Node19</title>
<path fill="none" stroke="midnightblue" d="M633.68,-112.08C632.62,-104.93 631.09,-94.64 629.77,-85.69"/>
<polygon fill="midnightblue" stroke="midnightblue" points="633.22,-85.13 628.3,-75.75 626.3,-86.16 633.22,-85.13"/>
</g>
<!-- Node20 -->
<g id="node20" class="node">
<title>Node20</title>
<g id="a_node20"><a xlink:href="iop_2kernel_2include_2sys_2types_8h_source.html" target="_top" xlink:title=" ">
<polygon fill="white" stroke="black" points="510,-56.5 510,-75.5 582,-75.5 582,-56.5 510,-56.5"/>
<text text-anchor="middle" x="546" y="-63.5" font-family="Helvetica,sans-Serif" font-size="10.00">sys/types.h</text>
</a>
</g>
</g>
<!-- Node18&#45;&gt;Node20 -->
<g id="edge26" class="edge">
<title>Node18&#45;&gt;Node20</title>
<path fill="none" stroke="midnightblue" d="M620.7,-112.32C606.82,-103.9 585.51,-90.97 569.2,-81.07"/>
<polygon fill="midnightblue" stroke="midnightblue" points="570.63,-77.85 560.26,-75.65 567,-83.83 570.63,-77.85"/>
</g>
<!-- Node21 -->
<g id="node21" class="node">
<title>Node21</title>
<g id="a_node21"><a xlink:title=" ">
<polygon fill="white" stroke="#bfbfbf" points="671.5,-56.5 671.5,-75.5 742.5,-75.5 742.5,-56.5 671.5,-56.5"/>
<text text-anchor="middle" x="707" y="-63.5" font-family="Helvetica,sans-Serif" font-size="10.00">sys/cdefs.h</text>
</a>
</g>
</g>
<!-- Node18&#45;&gt;Node21 -->
<g id="edge28" class="edge">
<title>Node18&#45;&gt;Node21</title>
<path fill="none" stroke="midnightblue" d="M646.57,-112.32C657.42,-104.18 673.88,-91.84 686.88,-82.09"/>
<polygon fill="midnightblue" stroke="midnightblue" points="689.32,-84.63 695.22,-75.83 685.12,-79.03 689.32,-84.63"/>
</g>
<!-- Node22 -->
<g id="node22" class="node">
<title>Node22</title>
<g id="a_node22"><a xlink:href="unistd_8h_source.html" target="_top" xlink:title=" ">
<polygon fill="white" stroke="black" points="761,-56.5 761,-75.5 817,-75.5 817,-56.5 761,-56.5"/>
<text text-anchor="middle" x="789" y="-63.5" font-family="Helvetica,sans-Serif" font-size="10.00">unistd.h</text>
</a>
</g>
</g>
<!-- Node18&#45;&gt;Node22 -->
<g id="edge29" class="edge">
<title>Node18&#45;&gt;Node22</title>
<path fill="none" stroke="midnightblue" d="M659.4,-112.44C685.2,-103.4 726.08,-89.06 755.02,-78.92"/>
<polygon fill="midnightblue" stroke="midnightblue" points="756.43,-82.13 764.71,-75.52 754.12,-75.52 756.43,-82.13"/>
</g>
<!-- Node23 -->
<g id="node23" class="node">
<title>Node23</title>
<g id="a_node23"><a xlink:href="tcpip_8h.html" target="_top" xlink:title=" ">
<polygon fill="white" stroke="black" points="835,-56.5 835,-75.5 885,-75.5 885,-56.5 835,-56.5"/>
<text text-anchor="middle" x="860" y="-63.5" font-family="Helvetica,sans-Serif" font-size="10.00">tcpip.h</text>
</a>
</g>
</g>
<!-- Node18&#45;&gt;Node23 -->
<g id="edge30" class="edge">
<title>Node18&#45;&gt;Node23</title>
<path fill="none" stroke="midnightblue" d="M672.76,-112.42C709.31,-104.05 766.52,-90.76 824.99,-76.2"/>
<polygon fill="midnightblue" stroke="midnightblue" points="825.92,-79.58 834.77,-73.76 824.22,-72.79 825.92,-79.58"/>
</g>
<!-- Node20&#45;&gt;Node2 -->
<g id="edge27" class="edge">
<title>Node20&#45;&gt;Node2</title>
<path fill="none" stroke="midnightblue" d="M539.06,-56.08C533.07,-48.38 524.25,-37.03 516.95,-27.65"/>
<polygon fill="midnightblue" stroke="midnightblue" points="519.71,-25.5 510.81,-19.75 514.18,-29.79 519.71,-25.5"/>
</g>
<!-- Node23&#45;&gt;Node2 -->
<g id="edge31" class="edge">
<title>Node23&#45;&gt;Node2</title>
<path fill="none" stroke="midnightblue" d="M834.83,-57.98C831.86,-57.26 828.87,-56.58 826,-56 728.77,-36.41 613.31,-22.51 550.45,-15.72"/>
<polygon fill="midnightblue" stroke="midnightblue" points="550.77,-12.24 540.46,-14.65 550.03,-19.2 550.77,-12.24"/>
</g>
<!-- Node24&#45;&gt;Node2 -->
<g id="edge33" class="edge">
<title>Node24&#45;&gt;Node2</title>
<path fill="none" stroke="midnightblue" d="M890.85,-112.17C897.7,-98.36 907.92,-71.62 894,-56 871.47,-30.72 648.83,-17.57 550.4,-12.95"/>
<polygon fill="midnightblue" stroke="midnightblue" points="550.3,-9.44 540.15,-12.48 549.98,-16.44 550.3,-9.44"/>
</g>
<!-- Node24&#45;&gt;Node23 -->
<g id="edge34" class="edge">
<title>Node24&#45;&gt;Node23</title>
<path fill="none" stroke="midnightblue" d="M881.71,-112.08C878.15,-104.69 872.98,-93.95 868.58,-84.81"/>
<polygon fill="midnightblue" stroke="midnightblue" points="871.71,-83.24 864.21,-75.75 865.4,-86.28 871.71,-83.24"/>
</g>
<!-- Node25 -->
<g id="node25" class="node">
<title>Node25</title>
<g id="a_node25"><a xlink:href="time_8h.html" target="_top" xlink:title=" ">
<polygon fill="white" stroke="black" points="941,-56.5 941,-75.5 1009,-75.5 1009,-56.5 941,-56.5"/>
<text text-anchor="middle" x="975" y="-63.5" font-family="Helvetica,sans-Serif" font-size="10.00">sys/time.h</text>
</a>
</g>
</g>
<!-- Node24&#45;&gt;Node25 -->
<g id="edge35" class="edge">
<title>Node24&#45;&gt;Node25</title>
<path fill="none" stroke="midnightblue" d="M900.3,-112.32C914.18,-103.9 935.49,-90.97 951.8,-81.07"/>
<polygon fill="midnightblue" stroke="midnightblue" points="954,-83.83 960.74,-75.65 950.37,-77.85 954,-83.83"/>
</g>
</g>
</svg>
        <g id="navigator" transform="translate(0 0)" fill="#404254">
                <rect fill="#f2f5e9" fill-opacity="0.5" stroke="#606060" stroke-width=".5" x="0" y="0" width="60" height="60"/>
                <use id="zoomplus" xlink:href="#zoomPlus" x="17" y="9" onmousedown="handleZoom(evt,'in')"/>
                <use id="zoomminus" xlink:href="#zoomMin" x="42" y="9" onmousedown="handleZoom(evt,'out')"/>
                <use id="reset" xlink:href="#resetDef" x="30" y="36" onmousedown="handleReset()"/>
                <g id="arrowUp" xlink:href="#dirArrow" transform="translate(30 24)" onmousedown="handlePan(0,-1)">
                  <use xlink:href="#rim" fill="#404040">
                        <set attributeName="fill" to="#808080" begin="arrowUp.mouseover" end="arrowUp.mouseout"/>
                  </use>
                  <path fill="none" stroke="white" stroke-width="1.5" d="M0,-3.0v7 M-2.5,-0.5L0,-3.0L2.5,-0.5"/>
                </g>
                <g id="arrowRight" xlink:href="#dirArrow" transform="rotate(90) translate(36 -43)" onmousedown="handlePan(1,0)">
                  <use xlink:href="#rim" fill="#404040">
                        <set attributeName="fill" to="#808080" begin="arrowRight.mouseover" end="arrowRight.mouseout"/>
                  </use>
                  <path fill="none" stroke="white" stroke-width="1.5" d="M0,-3.0v7 M-2.5,-0.5L0,-3.0L2.5,-0.5"/>
                </g>
                <g id="arrowDown" xlink:href="#dirArrow" transform="rotate(180) translate(-30 -48)" onmousedown="handlePan(0,1)">
                  <use xlink:href="#rim" fill="#404040">
                        <set attributeName="fill" to="#808080" begin="arrowDown.mouseover" end="arrowDown.mouseout"/>
                  </use>
                  <path fill="none" stroke="white" stroke-width="1.5" d="M0,-3.0v7 M-2.5,-0.5L0,-3.0L2.5,-0.5"/>
                </g>
                <g id="arrowLeft" xlink:href="#dirArrow" transform="rotate(270) translate(-36 17)" onmousedown="handlePan(-1,0)">
                  <use xlink:href="#rim" fill="#404040">
                        <set attributeName="fill" to="#808080" begin="arrowLeft.mouseover" end="arrowLeft.mouseout"/>
                  </use>
                  <path fill="none" stroke="white" stroke-width="1.5" d="M0,-3.0v7 M-2.5,-0.5L0,-3.0L2.5,-0.5"/>
                </g>
        </g>
        <svg viewBox="0 0 15 15" width="100%" height="30px" preserveAspectRatio="xMaxYMin meet">
         <g id="arrow_out" transform="scale(0.3 0.3)">
          <a xlink:href="ps2ipc_8c__incl_org.svg" target="_base">
           <rect id="button" ry="5" rx="5" y="6" x="6" height="38" width="38"
                fill="#f2f5e9" fill-opacity="0.5" stroke="#606060" stroke-width="1.0"/>
           <path id="arrow"
             d="M 11.500037,31.436501 C 11.940474,20.09759 22.043105,11.32322 32.158766,21.979434 L 37.068811,17.246167 C 37.068811,17.246167 37.088388,32 37.088388,32 L 22.160133,31.978069 C 22.160133,31.978069 26.997745,27.140456 26.997745,27.140456 C 18.528582,18.264221 13.291696,25.230495 11.500037,31.436501 z"
             style="fill:#404040;"/>
          </a>
         </g>
        </svg>
</svg>
