<?xml version="1.0" encoding="UTF-8" standalone="no"?>
<!DOCTYPE svg PUBLIC "-//W3C//DTD SVG 1.1//EN"
 "http://www.w3.org/Graphics/SVG/1.1/DTD/svg11.dtd">
<!-- Generated by graphviz version 2.43.0 (0)
 -->
<!-- Title: common/include/ps2ip_rpc.h Pages: 1 -->
<svg width="183pt" height="151pt"
 viewBox="0.00 0.00 182.50 151.00" xmlns="http://www.w3.org/2000/svg" xmlns:xlink="http://www.w3.org/1999/xlink">
<g id="graph0" class="graph" transform="scale(1 1) rotate(0) translate(4 147)">
<title>common/include/ps2ip_rpc.h</title>
<polygon fill="white" stroke="transparent" points="-4,4 -4,-147 178.5,-147 178.5,4 -4,4"/>
<!-- Node1 -->
<g id="node1" class="node">
<title>Node1</title>
<g id="a_node1"><a xlink:title=" ">
<polygon fill="#bfbfbf" stroke="black" points="0,-112.5 0,-142.5 127,-142.5 127,-112.5 0,-112.5"/>
<text text-anchor="start" x="8" y="-130.5" font-family="Helvetica,sans-Serif" font-size="10.00">common/include/ps2ip</text>
<text text-anchor="middle" x="63.5" y="-119.5" font-family="Helvetica,sans-Serif" font-size="10.00">_rpc.h</text>
</a>
</g>
</g>
<!-- Node2 -->
<g id="node2" class="node">
<title>Node2</title>
<g id="a_node2"><a xlink:href="tamtypes_8h.html" target="_top" xlink:title=" ">
<polygon fill="white" stroke="black" points="0.5,-0.5 0.5,-19.5 72.5,-19.5 72.5,-0.5 0.5,-0.5"/>
<text text-anchor="middle" x="36.5" y="-7.5" font-family="Helvetica,sans-Serif" font-size="10.00">tamtypes.h</text>
</a>
</g>
</g>
<!-- Node1&#45;&gt;Node2 -->
<g id="edge1" class="edge">
<title>Node1&#45;&gt;Node2</title>
<path fill="none" stroke="midnightblue" d="M50.51,-112.25C42.76,-102.75 33.64,-89.55 29.5,-76 24.84,-60.73 27.41,-42.63 30.68,-29.41"/>
<polygon fill="midnightblue" stroke="midnightblue" points="34.09,-30.19 33.44,-19.62 27.35,-28.29 34.09,-30.19"/>
</g>
<!-- Node3 -->
<g id="node3" class="node">
<title>Node3</title>
<g id="a_node3"><a xlink:href="tcpip_8h.html" target="_top" xlink:title=" ">
<polygon fill="white" stroke="black" points="38.5,-56.5 38.5,-75.5 88.5,-75.5 88.5,-56.5 38.5,-56.5"/>
<text text-anchor="middle" x="63.5" y="-63.5" font-family="Helvetica,sans-Serif" font-size="10.00">tcpip.h</text>
</a>
</g>
</g>
<!-- Node1&#45;&gt;Node3 -->
<g id="edge2" class="edge">
<title>Node1&#45;&gt;Node3</title>
<path fill="none" stroke="midnightblue" d="M63.5,-112.4C63.5,-104.47 63.5,-94.46 63.5,-85.86"/>
<polygon fill="midnightblue" stroke="midnightblue" points="67,-85.66 63.5,-75.66 60,-85.66 67,-85.66"/>
</g>
<!-- Node4 -->
<g id="node4" class="node">
<title>Node4</title>
<g id="a_node4"><a xlink:href="time_8h.html" target="_top" xlink:title=" ">
<polygon fill="white" stroke="black" points="106.5,-56.5 106.5,-75.5 174.5,-75.5 174.5,-56.5 106.5,-56.5"/>
<text text-anchor="middle" x="140.5" y="-63.5" font-family="Helvetica,sans-Serif" font-size="10.00">sys/time.h</text>
</a>
</g>
</g>
<!-- Node1&#45;&gt;Node4 -->
<g id="edge4" class="edge">
<title>Node1&#45;&gt;Node4</title>
<path fill="none" stroke="midnightblue" d="M81.75,-112.4C93.63,-103.22 109.11,-91.26 121.19,-81.92"/>
<polygon fill="midnightblue" stroke="midnightblue" points="123.52,-84.54 129.3,-75.66 119.24,-79 123.52,-84.54"/>
</g>
<!-- Node3&#45;&gt;Node2 -->
<g id="edge3" class="edge">
<title>Node3&#45;&gt;Node2</title>
<path fill="none" stroke="midnightblue" d="M59.04,-56.08C55.35,-48.69 49.98,-37.95 45.41,-28.81"/>
<polygon fill="midnightblue" stroke="midnightblue" points="48.48,-27.13 40.88,-19.75 42.22,-30.26 48.48,-27.13"/>
</g>
</g>
</svg>
