<?xml version="1.0" encoding="UTF-8" standalone="no"?>
<!DOCTYPE svg PUBLIC "-//W3C//DTD SVG 1.1//EN"
 "http://www.w3.org/Graphics/SVG/1.1/DTD/svg11.dtd">
<!-- Generated by graphviz version 9.0.0 (20230911.1827)
 -->
<!-- Title: common/include/ps2lib_err.h Pages: 1 -->
<svg width="612pt" height="105pt"
 viewBox="0.00 0.00 611.75 105.00" xmlns="http://www.w3.org/2000/svg" xmlns:xlink="http://www.w3.org/1999/xlink">
<g id="graph0" class="graph" transform="scale(1 1) rotate(0) translate(4 101)">
<title>common/include/ps2lib_err.h</title>
<!-- Node1 -->
<g id="Node000001" class="node">
<title>Node1</title>
<g id="a_Node000001"><a xlink:title=" ">
<polygon fill="#999999" stroke="#666666" points="369,-97 253.25,-97 253.25,-66.5 369,-66.5 369,-97"/>
<text text-anchor="start" x="261.25" y="-83.5" font-family="Helvetica,sans-Serif" font-size="10.00">common/include/ps2lib</text>
<text text-anchor="middle" x="311.12" y="-72.25" font-family="Helvetica,sans-Serif" font-size="10.00">_err.h</text>
</a>
</g>
</g>
<!-- Node2 -->
<g id="Node000002" class="node">
<title>Node2</title>
<g id="a_Node000002"><a xlink:href="ee_2kernel_2src_2fileio_8c.html" target="_top" xlink:title=" ">
<polygon fill="white" stroke="#666666" points="102.25,-24.88 0,-24.88 0,-5.63 102.25,-5.63 102.25,-24.88"/>
<text text-anchor="middle" x="51.12" y="-11.38" font-family="Helvetica,sans-Serif" font-size="10.00">ee/kernel/src/fileio.c</text>
</a>
</g>
</g>
<!-- Node1&#45;&gt;Node2 -->
<g id="edge1_Node000001_Node000002" class="edge">
<title>Node1&#45;&gt;Node2</title>
<g id="a_edge1_Node000001_Node000002"><a xlink:title=" ">
<path fill="none" stroke="#63b8ff" d="M241.81,-63.55C192.23,-51.26 127.49,-35.19 87.63,-25.31"/>
<polygon fill="#63b8ff" stroke="#63b8ff" points="240.76,-66.9 251.31,-65.91 242.44,-60.11 240.76,-66.9"/>
</a>
</g>
</g>
<!-- Node3 -->
<g id="Node000003" class="node">
<title>Node3</title>
<g id="a_Node000003"><a xlink:href="iopheap_8c_source.html" target="_top" xlink:title=" ">
<polygon fill="white" stroke="#666666" points="236.38,-24.88 119.88,-24.88 119.88,-5.63 236.38,-5.63 236.38,-24.88"/>
<text text-anchor="middle" x="178.12" y="-11.38" font-family="Helvetica,sans-Serif" font-size="10.00">ee/kernel/src/iopheap.c</text>
</a>
</g>
</g>
<!-- Node1&#45;&gt;Node3 -->
<g id="edge2_Node000001_Node000003" class="edge">
<title>Node1&#45;&gt;Node3</title>
<g id="a_edge2_Node000001_Node000003"><a xlink:title=" ">
<path fill="none" stroke="#63b8ff" d="M270.78,-61.19C246.14,-49.24 215.8,-34.52 196.7,-25.26"/>
<polygon fill="#63b8ff" stroke="#63b8ff" points="269.06,-64.24 279.58,-65.45 272.11,-57.94 269.06,-64.24"/>
</a>
</g>
</g>
<!-- Node4 -->
<g id="Node000004" class="node">
<title>Node4</title>
<g id="a_Node000004"><a xlink:href="ee_2kernel_2src_2loadfile_8c.html" target="_top" xlink:title=" ">
<polygon fill="white" stroke="#666666" points="367.5,-24.88 254.75,-24.88 254.75,-5.63 367.5,-5.63 367.5,-24.88"/>
<text text-anchor="middle" x="311.12" y="-11.38" font-family="Helvetica,sans-Serif" font-size="10.00">ee/kernel/src/loadfile.c</text>
</a>
</g>
</g>
<!-- Node1&#45;&gt;Node4 -->
<g id="edge3_Node000001_Node000004" class="edge">
<title>Node1&#45;&gt;Node4</title>
<g id="a_edge3_Node000001_Node000004"><a xlink:title=" ">
<path fill="none" stroke="#63b8ff" d="M311.12,-54.84C311.12,-44.26 311.12,-32.75 311.12,-25.07"/>
<polygon fill="#63b8ff" stroke="#63b8ff" points="307.63,-54.6 311.13,-64.6 314.63,-54.6 307.63,-54.6"/>
</a>
</g>
</g>
<!-- Node5 -->
<g id="Node000005" class="node">
<title>Node5</title>
<g id="a_Node000005"><a xlink:href="ee_2kernel_2src_2sifrpc_8c.html" target="_top" xlink:title=" ">
<polygon fill="white" stroke="#666666" points="492.5,-24.88 385.75,-24.88 385.75,-5.63 492.5,-5.63 492.5,-24.88"/>
<text text-anchor="middle" x="439.12" y="-11.38" font-family="Helvetica,sans-Serif" font-size="10.00">ee/kernel/src/sifrpc.c</text>
</a>
</g>
</g>
<!-- Node1&#45;&gt;Node5 -->
<g id="edge4_Node000001_Node000005" class="edge">
<title>Node1&#45;&gt;Node5</title>
<g id="a_edge4_Node000001_Node000005"><a xlink:title=" ">
<path fill="none" stroke="#63b8ff" d="M350.27,-61.03C373.93,-49.1 402.95,-34.48 421.25,-25.26"/>
<polygon fill="#63b8ff" stroke="#63b8ff" points="348.88,-57.81 341.52,-65.43 352.03,-64.06 348.88,-57.81"/>
</a>
</g>
</g>
<!-- Node6 -->
<g id="Node000006" class="node">
<title>Node6</title>
<g id="a_Node000006"><a xlink:href="xprintf_8c_source.html" target="_top" xlink:title=" ">
<polygon fill="white" stroke="#666666" points="603.75,-30.5 510.5,-30.5 510.5,0 603.75,0 603.75,-30.5"/>
<text text-anchor="start" x="518.5" y="-17" font-family="Helvetica,sans-Serif" font-size="10.00">iop/debug/sior/src</text>
<text text-anchor="middle" x="557.12" y="-5.75" font-family="Helvetica,sans-Serif" font-size="10.00">/xprintf.c</text>
</a>
</g>
</g>
<!-- Node1&#45;&gt;Node6 -->
<g id="edge5_Node000001_Node000006" class="edge">
<title>Node1&#45;&gt;Node6</title>
<g id="a_edge5_Node000001_Node000006"><a xlink:title=" ">
<path fill="none" stroke="#63b8ff" d="M378.2,-63.16C420.08,-52.18 472.94,-38.32 510.32,-28.52"/>
<polygon fill="#63b8ff" stroke="#63b8ff" points="377.5,-59.73 368.72,-65.65 379.28,-66.5 377.5,-59.73"/>
</a>
</g>
</g>
</g>
</svg>
