<?xml version="1.0" encoding="UTF-8" standalone="no"?>
<!DOCTYPE svg PUBLIC "-//W3C//DTD SVG 1.1//EN"
 "http://www.w3.org/Graphics/SVG/1.1/DTD/svg11.dtd">
<!-- Generated by graphviz version 2.44.0 ()
 -->
<!-- Title: common/include/ps2lib_err.h Pages: 1 -->
<svg width="615pt" height="106pt"
 viewBox="0.00 0.00 614.50 106.00" xmlns="http://www.w3.org/2000/svg" xmlns:xlink="http://www.w3.org/1999/xlink">
<g id="graph0" class="graph" transform="scale(1 1) rotate(0) translate(4 102)">
<title>common/include/ps2lib_err.h</title>
<polygon fill="white" stroke="transparent" points="-4,4 -4,-102 610.5,-102 610.5,4 -4,4"/>
<!-- Node1 -->
<g id="node1" class="node">
<title>Node1</title>
<g id="a_node1"><a xlink:title=" ">
<polygon fill="#bfbfbf" stroke="black" points="254.5,-67.5 254.5,-97.5 370.5,-97.5 370.5,-67.5 254.5,-67.5"/>
<text text-anchor="start" x="262.5" y="-85.5" font-family="Helvetica,sans-Serif" font-size="10.00">common/include/ps2lib</text>
<text text-anchor="middle" x="312.5" y="-74.5" font-family="Helvetica,sans-Serif" font-size="10.00">_err.h</text>
</a>
</g>
</g>
<!-- Node2 -->
<g id="node2" class="node">
<title>Node2</title>
<g id="a_node2"><a xlink:href="fileio_8c.html" target="_top" xlink:title=" ">
<polygon fill="white" stroke="black" points="0,-6 0,-25 103,-25 103,-6 0,-6"/>
<text text-anchor="middle" x="51.5" y="-13" font-family="Helvetica,sans-Serif" font-size="10.00">ee/kernel/src/fileio.c</text>
</a>
</g>
</g>
<!-- Node1&#45;&gt;Node2 -->
<g id="edge1" class="edge">
<title>Node1&#45;&gt;Node2</title>
<path fill="none" stroke="midnightblue" d="M246.21,-64.99C195.06,-52.25 126.38,-35.15 85.75,-25.03"/>
<polygon fill="midnightblue" stroke="midnightblue" points="245.64,-68.46 256.19,-67.48 247.33,-61.66 245.64,-68.46"/>
</g>
<!-- Node3 -->
<g id="node3" class="node">
<title>Node3</title>
<g id="a_node3"><a xlink:href="iopheap_8c_source.html" target="_top" xlink:title=" ">
<polygon fill="white" stroke="black" points="121,-6 121,-25 238,-25 238,-6 121,-6"/>
<text text-anchor="middle" x="179.5" y="-13" font-family="Helvetica,sans-Serif" font-size="10.00">ee/kernel/src/iopheap.c</text>
</a>
</g>
</g>
<!-- Node1&#45;&gt;Node3 -->
<g id="edge2" class="edge">
<title>Node1&#45;&gt;Node3</title>
<path fill="none" stroke="midnightblue" d="M274.58,-62.97C249.03,-50.48 216.53,-34.6 196.91,-25.01"/>
<polygon fill="midnightblue" stroke="midnightblue" points="273.12,-66.15 283.64,-67.4 276.19,-59.86 273.12,-66.15"/>
</g>
<!-- Node4 -->
<g id="node4" class="node">
<title>Node4</title>
<g id="a_node4"><a xlink:href="loadfile_8c.html" target="_top" xlink:title=" ">
<polygon fill="white" stroke="black" points="256,-6 256,-25 369,-25 369,-6 256,-6"/>
<text text-anchor="middle" x="312.5" y="-13" font-family="Helvetica,sans-Serif" font-size="10.00">ee/kernel/src/loadfile.c</text>
</a>
</g>
</g>
<!-- Node1&#45;&gt;Node4 -->
<g id="edge3" class="edge">
<title>Node1&#45;&gt;Node4</title>
<path fill="none" stroke="midnightblue" d="M312.5,-57.25C312.5,-46.02 312.5,-33.38 312.5,-25.19"/>
<polygon fill="midnightblue" stroke="midnightblue" points="309,-57.4 312.5,-67.4 316,-57.4 309,-57.4"/>
</g>
<!-- Node5 -->
<g id="node5" class="node">
<title>Node5</title>
<g id="a_node5"><a xlink:href="sifrpc_8c.html" target="_top" xlink:title=" ">
<polygon fill="white" stroke="black" points="387,-6 387,-25 494,-25 494,-6 387,-6"/>
<text text-anchor="middle" x="440.5" y="-13" font-family="Helvetica,sans-Serif" font-size="10.00">ee/kernel/src/sifrpc.c</text>
</a>
</g>
</g>
<!-- Node1&#45;&gt;Node5 -->
<g id="edge4" class="edge">
<title>Node1&#45;&gt;Node5</title>
<path fill="none" stroke="midnightblue" d="M349.32,-62.8C373.86,-50.34 404.94,-34.56 423.75,-25.01"/>
<polygon fill="midnightblue" stroke="midnightblue" points="347.61,-59.75 340.27,-67.4 350.78,-65.99 347.61,-59.75"/>
</g>
<!-- Node6 -->
<g id="node6" class="node">
<title>Node6</title>
<g id="a_node6"><a xlink:href="xprintf_8c_source.html" target="_top" xlink:title=" ">
<polygon fill="white" stroke="black" points="512.5,-0.5 512.5,-30.5 606.5,-30.5 606.5,-0.5 512.5,-0.5"/>
<text text-anchor="start" x="520.5" y="-18.5" font-family="Helvetica,sans-Serif" font-size="10.00">iop/debug/sior/src</text>
<text text-anchor="middle" x="559.5" y="-7.5" font-family="Helvetica,sans-Serif" font-size="10.00">/xprintf.c</text>
</a>
</g>
</g>
<!-- Node1&#45;&gt;Node6 -->
<g id="edge5" class="edge">
<title>Node1&#45;&gt;Node6</title>
<path fill="none" stroke="midnightblue" d="M375.49,-64.92C418.04,-53.73 473.32,-39.18 512.14,-28.96"/>
<polygon fill="midnightblue" stroke="midnightblue" points="374.57,-61.55 365.79,-67.48 376.35,-68.32 374.57,-61.55"/>
</g>
</g>
</svg>
