<?xml version="1.0" encoding="UTF-8" standalone="no"?>
<!DOCTYPE svg PUBLIC "-//W3C//DTD SVG 1.1//EN"
 "http://www.w3.org/Graphics/SVG/1.1/DTD/svg11.dtd">
<!-- Generated by graphviz version 9.0.0 (20230911.1827)
 -->
<!-- Title: common/include/ps2snd.h Pages: 1 -->
<svg width="399pt" height="94pt"
 viewBox="0.00 0.00 398.50 93.75" xmlns="http://www.w3.org/2000/svg" xmlns:xlink="http://www.w3.org/1999/xlink">
<g id="graph0" class="graph" transform="scale(1 1) rotate(0) translate(4 89.75)">
<title>common/include/ps2snd.h</title>
<!-- Node1 -->
<g id="Node000001" class="node">
<title>Node1</title>
<g id="a_Node000001"><a xlink:title=" ">
<polygon fill="#999999" stroke="#666666" points="273.62,-85.75 144.38,-85.75 144.38,-66.5 273.62,-66.5 273.62,-85.75"/>
<text text-anchor="middle" x="209" y="-72.25" font-family="Helvetica,sans-Serif" font-size="10.00">common/include/ps2snd.h</text>
</a>
</g>
</g>
<!-- Node2 -->
<g id="Node000002" class="node">
<title>Node2</title>
<g id="a_Node000002"><a xlink:href="ee_2rpc_2ps2snd_2src_2ps2snd_8c_source.html" target="_top" xlink:title=" ">
<polygon fill="white" stroke="#666666" points="136,-24.88 0,-24.88 0,-5.63 136,-5.63 136,-24.88"/>
<text text-anchor="middle" x="68" y="-11.38" font-family="Helvetica,sans-Serif" font-size="10.00">ee/rpc/ps2snd/src/ps2snd.c</text>
</a>
</g>
</g>
<!-- Node1&#45;&gt;Node2 -->
<g id="edge1_Node000001_Node000002" class="edge">
<title>Node1&#45;&gt;Node2</title>
<g id="a_edge1_Node000001_Node000002"><a xlink:title=" ">
<path fill="none" stroke="#63b8ff" d="M176.89,-61.72C150.14,-50.55 112.79,-34.95 89.52,-25.23"/>
<polygon fill="#63b8ff" stroke="#63b8ff" points="175.3,-64.85 185.88,-65.47 178,-58.39 175.3,-64.85"/>
</a>
</g>
</g>
<!-- Node3 -->
<g id="Node000003" class="node">
<title>Node3</title>
<g id="a_Node000003"><a xlink:href="adpcm-stream_8c_source.html" target="_top" xlink:title=" ">
<polygon fill="white" stroke="#666666" points="263.5,-30.5 154.5,-30.5 154.5,0 263.5,0 263.5,-30.5"/>
<text text-anchor="start" x="162.5" y="-17" font-family="Helvetica,sans-Serif" font-size="10.00">iop/sound/ps2snd/src</text>
<text text-anchor="middle" x="209" y="-5.75" font-family="Helvetica,sans-Serif" font-size="10.00">/adpcm&#45;stream.c</text>
</a>
</g>
</g>
<!-- Node1&#45;&gt;Node3 -->
<g id="edge2_Node000001_Node000003" class="edge">
<title>Node1&#45;&gt;Node3</title>
<g id="a_edge2_Node000001_Node000003"><a xlink:title=" ">
<path fill="none" stroke="#63b8ff" d="M209,-54.92C209,-46.99 209,-38.06 209,-30.78"/>
<polygon fill="#63b8ff" stroke="#63b8ff" points="205.5,-54.67 209,-64.67 212.5,-54.67 205.5,-54.67"/>
</a>
</g>
</g>
<!-- Node4 -->
<g id="Node000004" class="node">
<title>Node4</title>
<g id="a_Node000004"><a xlink:href="iop_2sound_2ps2snd_2src_2ps2snd_8c_source.html" target="_top" xlink:title=" ">
<polygon fill="white" stroke="#666666" points="390.5,-30.5 281.5,-30.5 281.5,0 390.5,0 390.5,-30.5"/>
<text text-anchor="start" x="289.5" y="-17" font-family="Helvetica,sans-Serif" font-size="10.00">iop/sound/ps2snd/src</text>
<text text-anchor="middle" x="336" y="-5.75" font-family="Helvetica,sans-Serif" font-size="10.00">/ps2snd.c</text>
</a>
</g>
</g>
<!-- Node1&#45;&gt;Node4 -->
<g id="edge3_Node000001_Node000004" class="edge">
<title>Node1&#45;&gt;Node4</title>
<g id="a_edge3_Node000001_Node000004"><a xlink:title=" ">
<path fill="none" stroke="#63b8ff" d="M238.8,-61.31C258.48,-52.19 284.24,-40.24 304.3,-30.94"/>
<polygon fill="#63b8ff" stroke="#63b8ff" points="237.54,-58.04 229.94,-65.42 240.48,-64.39 237.54,-58.04"/>
</a>
</g>
</g>
</g>
</svg>
