<?xml version="1.0" encoding="UTF-8" standalone="no"?>
<!DOCTYPE svg PUBLIC "-//W3C//DTD SVG 1.1//EN"
 "http://www.w3.org/Graphics/SVG/1.1/DTD/svg11.dtd">
<!-- Generated by graphviz version 2.43.0 (0)
 -->
<!-- Title: iop/dev9/pvrdrv/include/pvrdrv.h Pages: 1 -->
<!--zoomable 106 -->
<svg id="main" version="1.1" xmlns="http://www.w3.org/2000/svg" xmlns:xlink="http://www.w3.org/1999/xlink" xml:space="preserve" onload="init(evt)">
<style type="text/css"><![CDATA[
.edge:hover path { stroke: red; }
.edge:hover polygon { stroke: red; fill: red; }
]]></style>
<script type="text/javascript"><![CDATA[
var edges = document.getElementsByTagName('g');
if (edges && edges.length) {
  for (var i=0;i<edges.length;i++) {
    if (edges[i].id.substr(0,4)=='edge') {
      edges[i].setAttribute('class','edge');
    }
  }
}
]]></script>
        <defs>
                <circle id="rim" cx="0" cy="0" r="7"/>
                <circle id="rim2" cx="0" cy="0" r="3.5"/>
                <g id="zoomPlus">
                        <use xlink:href="#rim" fill="#404040">
                                <set attributeName="fill" to="#808080" begin="zoomplus.mouseover" end="zoomplus.mouseout"/>
                        </use>
                        <path d="M-4,0h8M0,-4v8" fill="none" stroke="white" stroke-width="1.5" pointer-events="none"/>
                </g>
                <g id="zoomMin">
                        <use xlink:href="#rim" fill="#404040">
                                <set attributeName="fill" to="#808080" begin="zoomminus.mouseover" end="zoomminus.mouseout"/>
                        </use>
                        <path d="M-4,0h8" fill="none" stroke="white" stroke-width="1.5" pointer-events="none"/>
                </g>
                <g id="dirArrow">
                        <path fill="none" stroke="white" stroke-width="1.5" d="M0,-3.0v7 M-2.5,-0.5L0,-3.0L2.5,-0.5"/>
                </g>
               <g id="resetDef">
                       <use xlink:href="#rim2" fill="#404040">
                               <set attributeName="fill" to="#808080" begin="reset.mouseover" end="reset.mouseout"/>
                       </use>
               </g>
        </defs>

<script type="text/javascript">
var viewWidth = 1633;
var viewHeight = 106;
var sectionId = 'dynsection-1';
</script>
<script xlink:href="svgpan.js"/>
<svg id="graph" class="graph">
<g id="viewport">
<title>iop/dev9/pvrdrv/include/pvrdrv.h</title>
<polygon fill="white" stroke="transparent" points="-4,4 -4,-102 1629,-102 1629,4 -4,4"/>
<!-- Node1 -->
<g id="node1" class="node">
<title>Node1</title>
<g id="a_node1"><a xlink:title=" ">
<polygon fill="#bfbfbf" stroke="black" points="744.5,-67.5 744.5,-97.5 875.5,-97.5 875.5,-67.5 744.5,-67.5"/>
<text text-anchor="start" x="752.5" y="-85.5" font-family="Helvetica,sans-Serif" font-size="10.00">iop/dev9/pvrdrv/include</text>
<text text-anchor="middle" x="810" y="-74.5" font-family="Helvetica,sans-Serif" font-size="10.00">/pvrdrv.h</text>
</a>
</g>
</g>
<!-- Node2 -->
<g id="node2" class="node">
<title>Node2</title>
<g id="a_node2"><a xlink:href="dvrdrv_8c_source.html" target="_top" xlink:title=" ">
<polygon fill="white" stroke="black" points="0,-0.5 0,-30.5 110,-30.5 110,-0.5 0,-0.5"/>
<text text-anchor="start" x="8" y="-18.5" font-family="Helvetica,sans-Serif" font-size="10.00">iop/dev9/pvrdrv/src</text>
<text text-anchor="middle" x="55" y="-7.5" font-family="Helvetica,sans-Serif" font-size="10.00">/dvrdrv.c</text>
</a>
</g>
</g>
<!-- Node1&#45;&gt;Node2 -->
<g id="edge1" class="edge">
<title>Node1&#45;&gt;Node2</title>
<path fill="none" stroke="midnightblue" d="M734.32,-79.68C606.77,-75.77 341.11,-64.09 119,-31 116.07,-30.56 113.08,-30.07 110.06,-29.52"/>
<polygon fill="midnightblue" stroke="midnightblue" points="734.28,-83.18 744.38,-79.98 734.49,-76.18 734.28,-83.18"/>
</g>
<!-- Node3 -->
<g id="node3" class="node">
<title>Node3</title>
<g id="a_node3"><a xlink:href="dvr_8c_source.html" target="_top" xlink:title=" ">
<polygon fill="white" stroke="black" points="128.5,-6 128.5,-25 247.5,-25 247.5,-6 128.5,-6"/>
<text text-anchor="middle" x="188" y="-13" font-family="Helvetica,sans-Serif" font-size="10.00">iop/dvrp/dvr/src/dvr.c</text>
</a>
</g>
</g>
<!-- Node1&#45;&gt;Node3 -->
<g id="edge2" class="edge">
<title>Node1&#45;&gt;Node3</title>
<path fill="none" stroke="midnightblue" d="M734.11,-77.37C627.23,-70.91 426.48,-56.46 257,-31 246.47,-29.42 235.13,-27.24 224.74,-25.05"/>
<polygon fill="midnightblue" stroke="midnightblue" points="733.97,-80.86 744.16,-77.97 734.38,-73.88 733.97,-80.86"/>
</g>
<!-- Node4 -->
<g id="node4" class="node">
<title>Node4</title>
<g id="a_node4"><a xlink:href="iop_2dvrp_2dvr_2src_2irx__imports_8h_source.html" target="_top" xlink:title=" ">
<polygon fill="white" stroke="black" points="266,-0.5 266,-30.5 374,-30.5 374,-0.5 266,-0.5"/>
<text text-anchor="start" x="274" y="-18.5" font-family="Helvetica,sans-Serif" font-size="10.00">iop/dvrp/dvr/src/irx</text>
<text text-anchor="middle" x="320" y="-7.5" font-family="Helvetica,sans-Serif" font-size="10.00">_imports.h</text>
</a>
</g>
</g>
<!-- Node1&#45;&gt;Node4 -->
<g id="edge3" class="edge">
<title>Node1&#45;&gt;Node4</title>
<path fill="none" stroke="midnightblue" d="M734.05,-75.03C648.39,-67.14 505.09,-52.21 383,-31 380.12,-30.5 377.18,-29.95 374.22,-29.37"/>
<polygon fill="midnightblue" stroke="midnightblue" points="733.93,-78.53 744.21,-75.95 734.57,-71.56 733.93,-78.53"/>
</g>
<!-- Node5 -->
<g id="node5" class="node">
<title>Node5</title>
<g id="a_node5"><a xlink:href="dvrav_8c_source.html" target="_top" xlink:title=" ">
<polygon fill="white" stroke="black" points="392,-0.5 392,-30.5 496,-30.5 496,-0.5 392,-0.5"/>
<text text-anchor="start" x="400" y="-18.5" font-family="Helvetica,sans-Serif" font-size="10.00">iop/dvrp/dvrav/src</text>
<text text-anchor="middle" x="444" y="-7.5" font-family="Helvetica,sans-Serif" font-size="10.00">/dvrav.c</text>
</a>
</g>
</g>
<!-- Node1&#45;&gt;Node5 -->
<g id="edge4" class="edge">
<title>Node1&#45;&gt;Node5</title>
<path fill="none" stroke="midnightblue" d="M734.25,-70.45C672.37,-61.07 582.75,-46.66 505,-31 502.12,-30.42 499.17,-29.8 496.19,-29.16"/>
<polygon fill="midnightblue" stroke="midnightblue" points="733.9,-73.94 744.31,-71.97 734.95,-67.02 733.9,-73.94"/>
</g>
<!-- Node6 -->
<g id="node6" class="node">
<title>Node6</title>
<g id="a_node6"><a xlink:href="iop_2dvrp_2dvrav_2src_2irx__imports_8h_source.html" target="_top" xlink:title=" ">
<polygon fill="white" stroke="black" points="514,-0.5 514,-30.5 618,-30.5 618,-0.5 514,-0.5"/>
<text text-anchor="start" x="522" y="-18.5" font-family="Helvetica,sans-Serif" font-size="10.00">iop/dvrp/dvrav/src</text>
<text text-anchor="middle" x="566" y="-7.5" font-family="Helvetica,sans-Serif" font-size="10.00">/irx_imports.h</text>
</a>
</g>
</g>
<!-- Node1&#45;&gt;Node6 -->
<g id="edge5" class="edge">
<title>Node1&#45;&gt;Node6</title>
<path fill="none" stroke="midnightblue" d="M747.68,-64.9C707.58,-54.22 656.06,-40.49 618.13,-30.39"/>
<polygon fill="midnightblue" stroke="midnightblue" points="746.79,-68.28 757.36,-67.48 748.59,-61.52 746.79,-68.28"/>
</g>
<!-- Node7 -->
<g id="node7" class="node">
<title>Node7</title>
<g id="a_node7"><a xlink:href="dvrdv_8c_source.html" target="_top" xlink:title=" ">
<polygon fill="white" stroke="black" points="636,-0.5 636,-30.5 740,-30.5 740,-0.5 636,-0.5"/>
<text text-anchor="start" x="644" y="-18.5" font-family="Helvetica,sans-Serif" font-size="10.00">iop/dvrp/dvrdv/src</text>
<text text-anchor="middle" x="688" y="-7.5" font-family="Helvetica,sans-Serif" font-size="10.00">/dvrdv.c</text>
</a>
</g>
</g>
<!-- Node1&#45;&gt;Node7 -->
<g id="edge6" class="edge">
<title>Node1&#45;&gt;Node7</title>
<path fill="none" stroke="midnightblue" d="M774.48,-62.57C755.29,-52.35 732,-39.94 714.42,-30.58"/>
<polygon fill="midnightblue" stroke="midnightblue" points="773.06,-65.78 783.53,-67.4 776.35,-59.6 773.06,-65.78"/>
</g>
<!-- Node8 -->
<g id="node8" class="node">
<title>Node8</title>
<g id="a_node8"><a xlink:href="iop_2dvrp_2dvrdv_2src_2irx__imports_8h_source.html" target="_top" xlink:title=" ">
<polygon fill="white" stroke="black" points="758,-0.5 758,-30.5 862,-30.5 862,-0.5 758,-0.5"/>
<text text-anchor="start" x="766" y="-18.5" font-family="Helvetica,sans-Serif" font-size="10.00">iop/dvrp/dvrdv/src</text>
<text text-anchor="middle" x="810" y="-7.5" font-family="Helvetica,sans-Serif" font-size="10.00">/irx_imports.h</text>
</a>
</g>
</g>
<!-- Node1&#45;&gt;Node8 -->
<g id="edge7" class="edge">
<title>Node1&#45;&gt;Node8</title>
<path fill="none" stroke="midnightblue" d="M810,-57.11C810,-48.15 810,-38.32 810,-30.58"/>
<polygon fill="midnightblue" stroke="midnightblue" points="806.5,-57.4 810,-67.4 813.5,-57.4 806.5,-57.4"/>
</g>
<!-- Node9 -->
<g id="node9" class="node">
<title>Node9</title>
<g id="a_node9"><a xlink:href="dvrfile_8c_source.html" target="_top" xlink:title=" ">
<polygon fill="white" stroke="black" points="880.5,-0.5 880.5,-30.5 987.5,-30.5 987.5,-0.5 880.5,-0.5"/>
<text text-anchor="start" x="888.5" y="-18.5" font-family="Helvetica,sans-Serif" font-size="10.00">iop/dvrp/dvrfile/src</text>
<text text-anchor="middle" x="934" y="-7.5" font-family="Helvetica,sans-Serif" font-size="10.00">/dvrfile.c</text>
</a>
</g>
</g>
<!-- Node1&#45;&gt;Node9 -->
<g id="edge8" class="edge">
<title>Node1&#45;&gt;Node9</title>
<path fill="none" stroke="midnightblue" d="M845.84,-62.71C865.39,-52.46 889.2,-39.98 907.15,-30.58"/>
<polygon fill="midnightblue" stroke="midnightblue" points="844.14,-59.65 836.91,-67.4 847.39,-65.85 844.14,-59.65"/>
</g>
<!-- Node10 -->
<g id="node10" class="node">
<title>Node10</title>
<g id="a_node10"><a xlink:href="iop_2dvrp_2dvrfile_2src_2irx__imports_8h_source.html" target="_top" xlink:title=" ">
<polygon fill="white" stroke="black" points="1005.5,-0.5 1005.5,-30.5 1112.5,-30.5 1112.5,-0.5 1005.5,-0.5"/>
<text text-anchor="start" x="1013.5" y="-18.5" font-family="Helvetica,sans-Serif" font-size="10.00">iop/dvrp/dvrfile/src</text>
<text text-anchor="middle" x="1059" y="-7.5" font-family="Helvetica,sans-Serif" font-size="10.00">/irx_imports.h</text>
</a>
</g>
</g>
<!-- Node1&#45;&gt;Node10 -->
<g id="edge9" class="edge">
<title>Node1&#45;&gt;Node10</title>
<path fill="none" stroke="midnightblue" d="M873.56,-64.91C914.34,-54.26 966.7,-40.59 1005.37,-30.5"/>
<polygon fill="midnightblue" stroke="midnightblue" points="872.51,-61.56 863.72,-67.48 874.28,-68.34 872.51,-61.56"/>
</g>
<!-- Node11 -->
<g id="node11" class="node">
<title>Node11</title>
<g id="a_node11"><a xlink:href="dvripl_8c_source.html" target="_top" xlink:title=" ">
<polygon fill="white" stroke="black" points="1131,-0.5 1131,-30.5 1235,-30.5 1235,-0.5 1131,-0.5"/>
<text text-anchor="start" x="1139" y="-18.5" font-family="Helvetica,sans-Serif" font-size="10.00">iop/dvrp/dvripl/src</text>
<text text-anchor="middle" x="1183" y="-7.5" font-family="Helvetica,sans-Serif" font-size="10.00">/dvripl.c</text>
</a>
</g>
</g>
<!-- Node1&#45;&gt;Node11 -->
<g id="edge10" class="edge">
<title>Node1&#45;&gt;Node11</title>
<path fill="none" stroke="midnightblue" d="M885.6,-70.84C948.95,-61.53 1041.68,-47.02 1122,-31 1124.88,-30.42 1127.84,-29.81 1130.81,-29.17"/>
<polygon fill="midnightblue" stroke="midnightblue" points="885.07,-67.38 875.69,-72.29 886.09,-74.31 885.07,-67.38"/>
</g>
<!-- Node12 -->
<g id="node12" class="node">
<title>Node12</title>
<g id="a_node12"><a xlink:href="iop_2dvrp_2dvripl_2src_2irx__imports_8h_source.html" target="_top" xlink:title=" ">
<polygon fill="white" stroke="black" points="1253,-0.5 1253,-30.5 1357,-30.5 1357,-0.5 1253,-0.5"/>
<text text-anchor="start" x="1261" y="-18.5" font-family="Helvetica,sans-Serif" font-size="10.00">iop/dvrp/dvripl/src</text>
<text text-anchor="middle" x="1305" y="-7.5" font-family="Helvetica,sans-Serif" font-size="10.00">/irx_imports.h</text>
</a>
</g>
</g>
<!-- Node1&#45;&gt;Node12 -->
<g id="edge11" class="edge">
<title>Node1&#45;&gt;Node12</title>
<path fill="none" stroke="midnightblue" d="M885.83,-75.4C972.76,-67.77 1119.33,-52.99 1244,-31 1246.89,-30.49 1249.86,-29.93 1252.84,-29.32"/>
<polygon fill="midnightblue" stroke="midnightblue" points="885.45,-71.92 875.79,-76.27 886.05,-78.89 885.45,-71.92"/>
</g>
<!-- Node13 -->
<g id="node13" class="node">
<title>Node13</title>
<g id="a_node13"><a xlink:href="dvrmisc_8c_source.html" target="_top" xlink:title=" ">
<polygon fill="white" stroke="black" points="1375,-0.5 1375,-30.5 1491,-30.5 1491,-0.5 1375,-0.5"/>
<text text-anchor="start" x="1383" y="-18.5" font-family="Helvetica,sans-Serif" font-size="10.00">iop/dvrp/dvrmisc/src</text>
<text text-anchor="middle" x="1433" y="-7.5" font-family="Helvetica,sans-Serif" font-size="10.00">/dvrmisc.c</text>
</a>
</g>
</g>
<!-- Node1&#45;&gt;Node13 -->
<g id="edge12" class="edge">
<title>Node1&#45;&gt;Node13</title>
<path fill="none" stroke="midnightblue" d="M885.88,-77.56C993.26,-71.32 1195.45,-57.1 1366,-31 1368.94,-30.55 1371.95,-30.05 1374.98,-29.51"/>
<polygon fill="midnightblue" stroke="midnightblue" points="885.58,-74.07 875.79,-78.14 885.98,-81.06 885.58,-74.07"/>
</g>
<!-- Node14 -->
<g id="node14" class="node">
<title>Node14</title>
<g id="a_node14"><a xlink:href="iop_2dvrp_2dvrmisc_2src_2irx__imports_8h_source.html" target="_top" xlink:title=" ">
<polygon fill="white" stroke="black" points="1509,-0.5 1509,-30.5 1625,-30.5 1625,-0.5 1509,-0.5"/>
<text text-anchor="start" x="1517" y="-18.5" font-family="Helvetica,sans-Serif" font-size="10.00">iop/dvrp/dvrmisc/src</text>
<text text-anchor="middle" x="1567" y="-7.5" font-family="Helvetica,sans-Serif" font-size="10.00">/irx_imports.h</text>
</a>
</g>
</g>
<!-- Node1&#45;&gt;Node14 -->
<g id="edge13" class="edge">
<title>Node1&#45;&gt;Node14</title>
<path fill="none" stroke="midnightblue" d="M886.03,-79.41C1013.55,-75.14 1278.34,-62.94 1500,-31 1502.94,-30.58 1505.95,-30.1 1508.99,-29.58"/>
<polygon fill="midnightblue" stroke="midnightblue" points="885.86,-75.92 875.98,-79.74 886.09,-82.91 885.86,-75.92"/>
</g>
</g>
</svg>
        <g id="navigator" transform="translate(0 0)" fill="#404254">
                <rect fill="#f2f5e9" fill-opacity="0.5" stroke="#606060" stroke-width=".5" x="0" y="0" width="60" height="60"/>
                <use id="zoomplus" xlink:href="#zoomPlus" x="17" y="9" onmousedown="handleZoom(evt,'in')"/>
                <use id="zoomminus" xlink:href="#zoomMin" x="42" y="9" onmousedown="handleZoom(evt,'out')"/>
                <use id="reset" xlink:href="#resetDef" x="30" y="36" onmousedown="handleReset()"/>
                <g id="arrowUp" xlink:href="#dirArrow" transform="translate(30 24)" onmousedown="handlePan(0,-1)">
                  <use xlink:href="#rim" fill="#404040">
                        <set attributeName="fill" to="#808080" begin="arrowUp.mouseover" end="arrowUp.mouseout"/>
                  </use>
                  <path fill="none" stroke="white" stroke-width="1.5" d="M0,-3.0v7 M-2.5,-0.5L0,-3.0L2.5,-0.5"/>
                </g>
                <g id="arrowRight" xlink:href="#dirArrow" transform="rotate(90) translate(36 -43)" onmousedown="handlePan(1,0)">
                  <use xlink:href="#rim" fill="#404040">
                        <set attributeName="fill" to="#808080" begin="arrowRight.mouseover" end="arrowRight.mouseout"/>
                  </use>
                  <path fill="none" stroke="white" stroke-width="1.5" d="M0,-3.0v7 M-2.5,-0.5L0,-3.0L2.5,-0.5"/>
                </g>
                <g id="arrowDown" xlink:href="#dirArrow" transform="rotate(180) translate(-30 -48)" onmousedown="handlePan(0,1)">
                  <use xlink:href="#rim" fill="#404040">
                        <set attributeName="fill" to="#808080" begin="arrowDown.mouseover" end="arrowDown.mouseout"/>
                  </use>
                  <path fill="none" stroke="white" stroke-width="1.5" d="M0,-3.0v7 M-2.5,-0.5L0,-3.0L2.5,-0.5"/>
                </g>
                <g id="arrowLeft" xlink:href="#dirArrow" transform="rotate(270) translate(-36 17)" onmousedown="handlePan(-1,0)">
                  <use xlink:href="#rim" fill="#404040">
                        <set attributeName="fill" to="#808080" begin="arrowLeft.mouseover" end="arrowLeft.mouseout"/>
                  </use>
                  <path fill="none" stroke="white" stroke-width="1.5" d="M0,-3.0v7 M-2.5,-0.5L0,-3.0L2.5,-0.5"/>
                </g>
        </g>
        <svg viewBox="0 0 15 15" width="100%" height="30px" preserveAspectRatio="xMaxYMin meet">
         <g id="arrow_out" transform="scale(0.3 0.3)">
          <a xlink:href="pvrdrv_8h__dep__incl_org.svg" target="_base">
           <rect id="button" ry="5" rx="5" y="6" x="6" height="38" width="38"
                fill="#f2f5e9" fill-opacity="0.5" stroke="#606060" stroke-width="1.0"/>
           <path id="arrow"
             d="M 11.500037,31.436501 C 11.940474,20.09759 22.043105,11.32322 32.158766,21.979434 L 37.068811,17.246167 C 37.068811,17.246167 37.088388,32 37.088388,32 L 22.160133,31.978069 C 22.160133,31.978069 26.997745,27.140456 26.997745,27.140456 C 18.528582,18.264221 13.291696,25.230495 11.500037,31.436501 z"
             style="fill:#404040;"/>
          </a>
         </g>
        </svg>
</svg>
