<?xml version="1.0" encoding="UTF-8" standalone="no"?>
<!DOCTYPE svg PUBLIC "-//W3C//DTD SVG 1.1//EN"
 "http://www.w3.org/Graphics/SVG/1.1/DTD/svg11.dtd">
<!-- Generated by graphviz version 9.0.0 (20230911.1827)
 -->
<!-- Title: iop/dev9/pvrdrv/include/pvrdrv.h Pages: 1 -->
<svg width="1490pt" height="105pt"
 viewBox="0.00 0.00 1489.88 105.00" xmlns="http://www.w3.org/2000/svg" xmlns:xlink="http://www.w3.org/1999/xlink">
<g id="graph0" class="graph" transform="scale(1 1) rotate(0) translate(4 101)">
<title>iop/dev9/pvrdrv/include/pvrdrv.h</title>
<!-- Node1 -->
<g id="Node000001" class="node">
<title>Node1</title>
<g id="a_Node000001"><a xlink:title=" ">
<polygon fill="#999999" stroke="#666666" points="797.88,-97 681.38,-97 681.38,-66.5 797.88,-66.5 797.88,-97"/>
<text text-anchor="start" x="689.38" y="-83.5" font-family="Helvetica,sans-Serif" font-size="10.00">iop/dev9/pvrdrv/include</text>
<text text-anchor="middle" x="739.62" y="-72.25" font-family="Helvetica,sans-Serif" font-size="10.00">/pvrdrv.h</text>
</a>
</g>
</g>
<!-- Node2 -->
<g id="Node000002" class="node">
<title>Node2</title>
<g id="a_Node000002"><a xlink:href="dvrdrv_8c_source.html" target="_top" xlink:title=" ">
<polygon fill="white" stroke="#666666" points="99.25,-30.5 0,-30.5 0,0 99.25,0 99.25,-30.5"/>
<text text-anchor="start" x="8" y="-17" font-family="Helvetica,sans-Serif" font-size="10.00">iop/dev9/pvrdrv/src</text>
<text text-anchor="middle" x="49.62" y="-5.75" font-family="Helvetica,sans-Serif" font-size="10.00">/dvrdrv.c</text>
</a>
</g>
</g>
<!-- Node1&#45;&gt;Node2 -->
<g id="edge1_Node000001_Node000002" class="edge">
<title>Node1&#45;&gt;Node2</title>
<g id="a_edge1_Node000001_Node000002"><a xlink:title=" ">
<path fill="none" stroke="#63b8ff" d="M670.06,-78.89C553.18,-74.95 310.32,-63.24 107.62,-30.5 104.96,-30.07 102.24,-29.58 99.51,-29.05"/>
<polygon fill="#63b8ff" stroke="#63b8ff" points="669.68,-82.38 679.79,-79.21 669.91,-75.38 669.68,-82.38"/>
</a>
</g>
</g>
<!-- Node3 -->
<g id="Node000003" class="node">
<title>Node3</title>
<g id="a_Node000003"><a xlink:href="dvr_8c_source.html" target="_top" xlink:title=" ">
<polygon fill="white" stroke="#666666" points="224.38,-24.88 116.88,-24.88 116.88,-5.63 224.38,-5.63 224.38,-24.88"/>
<text text-anchor="middle" x="170.62" y="-11.38" font-family="Helvetica,sans-Serif" font-size="10.00">iop/dvrp/dvr/src/dvr.c</text>
</a>
</g>
</g>
<!-- Node1&#45;&gt;Node3 -->
<g id="edge2_Node000001_Node000003" class="edge">
<title>Node1&#45;&gt;Node3</title>
<g id="a_edge2_Node000001_Node000003"><a xlink:title=" ">
<path fill="none" stroke="#63b8ff" d="M669.66,-76.54C571.69,-70.03 388.28,-55.57 233.62,-30.5 224.99,-29.1 215.77,-27.23 207.12,-25.31"/>
<polygon fill="#63b8ff" stroke="#63b8ff" points="669.17,-80.02 679.37,-77.18 669.62,-73.03 669.17,-80.02"/>
</a>
</g>
</g>
<!-- Node4 -->
<g id="Node000004" class="node">
<title>Node4</title>
<g id="a_Node000004"><a xlink:href="iop_2dvrp_2dvr_2src_2irx__imports_8h_source.html" target="_top" xlink:title=" ">
<polygon fill="white" stroke="#666666" points="338.75,-30.5 242.5,-30.5 242.5,0 338.75,0 338.75,-30.5"/>
<text text-anchor="start" x="250.5" y="-17" font-family="Helvetica,sans-Serif" font-size="10.00">iop/dvrp/dvr/src/irx</text>
<text text-anchor="middle" x="290.62" y="-5.75" font-family="Helvetica,sans-Serif" font-size="10.00">_imports.h</text>
</a>
</g>
</g>
<!-- Node1&#45;&gt;Node4 -->
<g id="edge3_Node000001_Node000004" class="edge">
<title>Node1&#45;&gt;Node4</title>
<g id="a_edge3_Node000001_Node000004"><a xlink:title=" ">
<path fill="none" stroke="#63b8ff" d="M669.96,-74.32C591.28,-66.47 459.61,-51.6 347.62,-30.5 344.82,-29.97 341.94,-29.39 339.05,-28.77"/>
<polygon fill="#63b8ff" stroke="#63b8ff" points="669.37,-77.78 679.67,-75.27 670.06,-70.81 669.37,-77.78"/>
</a>
</g>
</g>
<!-- Node5 -->
<g id="Node000005" class="node">
<title>Node5</title>
<g id="a_Node000005"><a xlink:href="dvrav_8c_source.html" target="_top" xlink:title=" ">
<polygon fill="white" stroke="#666666" points="450.62,-30.5 356.62,-30.5 356.62,0 450.62,0 450.62,-30.5"/>
<text text-anchor="start" x="364.62" y="-17" font-family="Helvetica,sans-Serif" font-size="10.00">iop/dvrp/dvrav/src</text>
<text text-anchor="middle" x="403.62" y="-5.75" font-family="Helvetica,sans-Serif" font-size="10.00">/dvrav.c</text>
</a>
</g>
</g>
<!-- Node1&#45;&gt;Node5 -->
<g id="edge4_Node000001_Node000005" class="edge">
<title>Node1&#45;&gt;Node5</title>
<g id="a_edge4_Node000001_Node000005"><a xlink:title=" ">
<path fill="none" stroke="#63b8ff" d="M669.92,-69.66C613.1,-60.29 530.9,-45.94 459.62,-30.5 456.78,-29.88 453.86,-29.22 450.93,-28.54"/>
<polygon fill="#63b8ff" stroke="#63b8ff" points="669,-73.06 679.44,-71.23 670.14,-66.15 669,-73.06"/>
</a>
</g>
</g>
<!-- Node6 -->
<g id="Node000006" class="node">
<title>Node6</title>
<g id="a_Node000006"><a xlink:href="iop_2dvrp_2dvrav_2src_2irx__imports_8h_source.html" target="_top" xlink:title=" ">
<polygon fill="white" stroke="#666666" points="562.62,-30.5 468.62,-30.5 468.62,0 562.62,0 562.62,-30.5"/>
<text text-anchor="start" x="476.62" y="-17" font-family="Helvetica,sans-Serif" font-size="10.00">iop/dvrp/dvrav/src</text>
<text text-anchor="middle" x="515.62" y="-5.75" font-family="Helvetica,sans-Serif" font-size="10.00">/irx_imports.h</text>
</a>
</g>
</g>
<!-- Node1&#45;&gt;Node6 -->
<g id="edge5_Node000001_Node000006" class="edge">
<title>Node1&#45;&gt;Node6</title>
<g id="a_edge5_Node000001_Node000006"><a xlink:title=" ">
<path fill="none" stroke="#63b8ff" d="M677.59,-62.89C641.39,-52.46 596.43,-39.52 563.07,-29.91"/>
<polygon fill="#63b8ff" stroke="#63b8ff" points="676.48,-66.21 687.06,-65.61 678.42,-59.48 676.48,-66.21"/>
</a>
</g>
</g>
<!-- Node7 -->
<g id="Node000007" class="node">
<title>Node7</title>
<g id="a_Node000007"><a xlink:href="dvrdv_8c_source.html" target="_top" xlink:title=" ">
<polygon fill="white" stroke="#666666" points="674.62,-30.5 580.62,-30.5 580.62,0 674.62,0 674.62,-30.5"/>
<text text-anchor="start" x="588.62" y="-17" font-family="Helvetica,sans-Serif" font-size="10.00">iop/dvrp/dvrdv/src</text>
<text text-anchor="middle" x="627.62" y="-5.75" font-family="Helvetica,sans-Serif" font-size="10.00">/dvrdv.c</text>
</a>
</g>
</g>
<!-- Node1&#45;&gt;Node7 -->
<g id="edge6_Node000001_Node000007" class="edge">
<title>Node1&#45;&gt;Node7</title>
<g id="a_edge6_Node000001_Node000007"><a xlink:title=" ">
<path fill="none" stroke="#63b8ff" d="M704.26,-60.39C687.6,-50.79 668.1,-39.56 652.94,-30.83"/>
<polygon fill="#63b8ff" stroke="#63b8ff" points="702.49,-63.4 712.9,-65.36 705.98,-57.34 702.49,-63.4"/>
</a>
</g>
</g>
<!-- Node8 -->
<g id="Node000008" class="node">
<title>Node8</title>
<g id="a_Node000008"><a xlink:href="iop_2dvrp_2dvrdv_2src_2irx__imports_8h_source.html" target="_top" xlink:title=" ">
<polygon fill="white" stroke="#666666" points="786.62,-30.5 692.62,-30.5 692.62,0 786.62,0 786.62,-30.5"/>
<text text-anchor="start" x="700.62" y="-17" font-family="Helvetica,sans-Serif" font-size="10.00">iop/dvrp/dvrdv/src</text>
<text text-anchor="middle" x="739.62" y="-5.75" font-family="Helvetica,sans-Serif" font-size="10.00">/irx_imports.h</text>
</a>
</g>
</g>
<!-- Node1&#45;&gt;Node8 -->
<g id="edge7_Node000001_Node000008" class="edge">
<title>Node1&#45;&gt;Node8</title>
<g id="a_edge7_Node000001_Node000008"><a xlink:title=" ">
<path fill="none" stroke="#63b8ff" d="M739.62,-54.81C739.62,-46.64 739.62,-37.91 739.62,-30.83"/>
<polygon fill="#63b8ff" stroke="#63b8ff" points="736.13,-54.6 739.63,-64.6 743.13,-54.6 736.13,-54.6"/>
</a>
</g>
</g>
<!-- Node9 -->
<g id="Node000009" class="node">
<title>Node9</title>
<g id="a_Node000009"><a xlink:href="dvrfile_8c_source.html" target="_top" xlink:title=" ">
<polygon fill="white" stroke="#666666" points="900.38,-30.5 804.88,-30.5 804.88,0 900.38,0 900.38,-30.5"/>
<text text-anchor="start" x="812.88" y="-17" font-family="Helvetica,sans-Serif" font-size="10.00">iop/dvrp/dvrfile/src</text>
<text text-anchor="middle" x="852.62" y="-5.75" font-family="Helvetica,sans-Serif" font-size="10.00">/dvrfile.c</text>
</a>
</g>
</g>
<!-- Node1&#45;&gt;Node9 -->
<g id="edge8_Node000001_Node000009" class="edge">
<title>Node1&#45;&gt;Node9</title>
<g id="a_edge8_Node000001_Node000009"><a xlink:title=" ">
<path fill="none" stroke="#63b8ff" d="M774.83,-60.66C791.74,-51 811.65,-39.64 827.09,-30.83"/>
<polygon fill="#63b8ff" stroke="#63b8ff" points="773.53,-57.37 766.58,-65.36 777,-63.45 773.53,-57.37"/>
</a>
</g>
</g>
<!-- Node10 -->
<g id="Node000010" class="node">
<title>Node10</title>
<g id="a_Node000010"><a xlink:href="iop_2dvrp_2dvrfile_2src_2irx__imports_8h_source.html" target="_top" xlink:title=" ">
<polygon fill="white" stroke="#666666" points="1014.38,-30.5 918.88,-30.5 918.88,0 1014.38,0 1014.38,-30.5"/>
<text text-anchor="start" x="926.88" y="-17" font-family="Helvetica,sans-Serif" font-size="10.00">iop/dvrp/dvrfile/src</text>
<text text-anchor="middle" x="966.62" y="-5.75" font-family="Helvetica,sans-Serif" font-size="10.00">/irx_imports.h</text>
</a>
</g>
</g>
<!-- Node1&#45;&gt;Node10 -->
<g id="edge9_Node000001_Node000010" class="edge">
<title>Node1&#45;&gt;Node10</title>
<g id="a_edge9_Node000001_Node000010"><a xlink:title=" ">
<path fill="none" stroke="#63b8ff" d="M802.02,-63.02C838.79,-52.57 884.59,-39.56 918.54,-29.91"/>
<polygon fill="#63b8ff" stroke="#63b8ff" points="801.54,-59.52 792.87,-65.62 803.45,-66.25 801.54,-59.52"/>
</a>
</g>
</g>
<!-- Node11 -->
<g id="Node000011" class="node">
<title>Node11</title>
<g id="a_Node000011"><a xlink:href="dvripl_8c_source.html" target="_top" xlink:title=" ">
<polygon fill="white" stroke="#666666" points="1125.25,-30.5 1032,-30.5 1032,0 1125.25,0 1125.25,-30.5"/>
<text text-anchor="start" x="1040" y="-17" font-family="Helvetica,sans-Serif" font-size="10.00">iop/dvrp/dvripl/src</text>
<text text-anchor="middle" x="1078.62" y="-5.75" font-family="Helvetica,sans-Serif" font-size="10.00">/dvripl.c</text>
</a>
</g>
</g>
<!-- Node1&#45;&gt;Node11 -->
<g id="edge10_Node000001_Node000011" class="edge">
<title>Node1&#45;&gt;Node11</title>
<g id="a_edge10_Node000001_Node000011"><a xlink:title=" ">
<path fill="none" stroke="#63b8ff" d="M809.53,-69.95C867.2,-60.66 951.04,-46.3 1023.62,-30.5 1026.23,-29.93 1028.89,-29.33 1031.58,-28.7"/>
<polygon fill="#63b8ff" stroke="#63b8ff" points="809.17,-66.46 799.85,-71.5 810.28,-73.37 809.17,-66.46"/>
</a>
</g>
</g>
<!-- Node12 -->
<g id="Node000012" class="node">
<title>Node12</title>
<g id="a_Node000012"><a xlink:href="iop_2dvrp_2dvripl_2src_2irx__imports_8h_source.html" target="_top" xlink:title=" ">
<polygon fill="white" stroke="#666666" points="1236.25,-30.5 1143,-30.5 1143,0 1236.25,0 1236.25,-30.5"/>
<text text-anchor="start" x="1151" y="-17" font-family="Helvetica,sans-Serif" font-size="10.00">iop/dvrp/dvripl/src</text>
<text text-anchor="middle" x="1189.62" y="-5.75" font-family="Helvetica,sans-Serif" font-size="10.00">/irx_imports.h</text>
</a>
</g>
</g>
<!-- Node1&#45;&gt;Node12 -->
<g id="edge11_Node000001_Node000012" class="edge">
<title>Node1&#45;&gt;Node12</title>
<g id="a_edge11_Node000001_Node000012"><a xlink:title=" ">
<path fill="none" stroke="#63b8ff" d="M809.52,-74.57C888.79,-66.93 1021.72,-52.22 1134.62,-30.5 1137.24,-30 1139.92,-29.44 1142.61,-28.85"/>
<polygon fill="#63b8ff" stroke="#63b8ff" points="809.35,-71.07 799.73,-75.5 810.01,-78.03 809.35,-71.07"/>
</a>
</g>
</g>
<!-- Node13 -->
<g id="Node000013" class="node">
<title>Node13</title>
<g id="a_Node000013"><a xlink:href="dvrmisc_8c_source.html" target="_top" xlink:title=" ">
<polygon fill="white" stroke="#666666" points="1358.88,-30.5 1254.38,-30.5 1254.38,0 1358.88,0 1358.88,-30.5"/>
<text text-anchor="start" x="1262.38" y="-17" font-family="Helvetica,sans-Serif" font-size="10.00">iop/dvrp/dvrmisc/src</text>
<text text-anchor="middle" x="1306.62" y="-5.75" font-family="Helvetica,sans-Serif" font-size="10.00">/dvrmisc.c</text>
</a>
</g>
</g>
<!-- Node1&#45;&gt;Node13 -->
<g id="edge12_Node000001_Node000013" class="edge">
<title>Node1&#45;&gt;Node13</title>
<g id="a_edge12_Node000001_Node000013"><a xlink:title=" ">
<path fill="none" stroke="#63b8ff" d="M809.22,-76.72C907.12,-70.4 1090.85,-56.15 1245.62,-30.5 1248.41,-30.04 1251.27,-29.52 1254.14,-28.97"/>
<polygon fill="#63b8ff" stroke="#63b8ff" points="809.27,-73.21 799.51,-77.34 809.72,-80.2 809.27,-73.21"/>
</a>
</g>
</g>
<!-- Node14 -->
<g id="Node000014" class="node">
<title>Node14</title>
<g id="a_Node000014"><a xlink:href="iop_2dvrp_2dvrmisc_2src_2irx__imports_8h_source.html" target="_top" xlink:title=" ">
<polygon fill="white" stroke="#666666" points="1481.88,-30.5 1377.38,-30.5 1377.38,0 1481.88,0 1481.88,-30.5"/>
<text text-anchor="start" x="1385.38" y="-17" font-family="Helvetica,sans-Serif" font-size="10.00">iop/dvrp/dvrmisc/src</text>
<text text-anchor="middle" x="1429.62" y="-5.75" font-family="Helvetica,sans-Serif" font-size="10.00">/irx_imports.h</text>
</a>
</g>
</g>
<!-- Node1&#45;&gt;Node14 -->
<g id="edge13_Node000001_Node000014" class="edge">
<title>Node1&#45;&gt;Node14</title>
<g id="a_edge13_Node000001_Node000014"><a xlink:title=" ">
<path fill="none" stroke="#63b8ff" d="M809.15,-78.5C925.38,-74.01 1166.24,-61.53 1367.62,-30.5 1370.68,-30.03 1373.81,-29.49 1376.96,-28.91"/>
<polygon fill="#63b8ff" stroke="#63b8ff" points="809.34,-74.99 799.48,-78.87 809.6,-81.99 809.34,-74.99"/>
</a>
</g>
</g>
</g>
</svg>
