<?xml version="1.0" encoding="UTF-8" standalone="no"?>
<!DOCTYPE svg PUBLIC "-//W3C//DTD SVG 1.1//EN"
 "http://www.w3.org/Graphics/SVG/1.1/DTD/svg11.dtd">
<!-- Generated by graphviz version 9.0.0 (20230911.1827)
 -->
<!-- Title: iop/system/rmman/include/rmman.h Pages: 1 -->
<svg width="206pt" height="204pt"
 viewBox="0.00 0.00 205.88 204.25" xmlns="http://www.w3.org/2000/svg" xmlns:xlink="http://www.w3.org/1999/xlink">
<g id="graph0" class="graph" transform="scale(1 1) rotate(0) translate(4 200.25)">
<title>iop/system/rmman/include/rmman.h</title>
<!-- Node1 -->
<g id="Node000001" class="node">
<title>Node1</title>
<g id="a_Node000001"><a xlink:title=" ">
<polygon fill="#999999" stroke="#666666" points="146.38,-196.25 16.38,-196.25 16.38,-165.75 146.38,-165.75 146.38,-196.25"/>
<text text-anchor="start" x="24.38" y="-182.75" font-family="Helvetica,sans-Serif" font-size="10.00">iop/system/rmman/include</text>
<text text-anchor="middle" x="81.38" y="-171.5" font-family="Helvetica,sans-Serif" font-size="10.00">/rmman.h</text>
</a>
</g>
</g>
<!-- Node2 -->
<g id="Node000002" class="node">
<title>Node2</title>
<g id="a_Node000002"><a xlink:title=" ">
<polygon fill="#e0e0e0" stroke="#999999" points="46.75,-129.75 0,-129.75 0,-110.5 46.75,-110.5 46.75,-129.75"/>
<text text-anchor="middle" x="23.38" y="-116.25" font-family="Helvetica,sans-Serif" font-size="10.00">types.h</text>
</a>
</g>
</g>
<!-- Node1&#45;&gt;Node2 -->
<g id="edge1_Node000001_Node000002" class="edge">
<title>Node1&#45;&gt;Node2</title>
<g id="a_edge1_Node000001_Node000002"><a xlink:title=" ">
<path fill="none" stroke="#63b8ff" d="M67.04,-165.45C58.97,-157.26 48.85,-146.98 40.38,-138.39"/>
<polygon fill="#63b8ff" stroke="#63b8ff" points="42.89,-135.95 33.38,-131.28 37.9,-140.86 42.89,-135.95"/>
</a>
</g>
</g>
<!-- Node3 -->
<g id="Node000003" class="node">
<title>Node3</title>
<g id="a_Node000003"><a xlink:href="irx_8h.html" target="_top" xlink:title=" ">
<polygon fill="white" stroke="#666666" points="98,-129.75 64.75,-129.75 64.75,-110.5 98,-110.5 98,-129.75"/>
<text text-anchor="middle" x="81.38" y="-116.25" font-family="Helvetica,sans-Serif" font-size="10.00">irx.h</text>
</a>
</g>
</g>
<!-- Node1&#45;&gt;Node3 -->
<g id="edge2_Node000001_Node000003" class="edge">
<title>Node1&#45;&gt;Node3</title>
<g id="a_edge2_Node000001_Node000003"><a xlink:title=" ">
<path fill="none" stroke="#63b8ff" d="M81.38,-165.45C81.38,-158.21 81.38,-149.34 81.38,-141.44"/>
<polygon fill="#63b8ff" stroke="#63b8ff" points="84.88,-141.71 81.38,-131.71 77.88,-141.71 84.88,-141.71"/>
</a>
</g>
</g>
<!-- Node7 -->
<g id="Node000007" class="node">
<title>Node7</title>
<g id="a_Node000007"><a xlink:href="librm-common_8h.html" target="_top" xlink:title=" ">
<polygon fill="white" stroke="#666666" points="197.88,-74.5 112.88,-74.5 112.88,-55.25 197.88,-55.25 197.88,-74.5"/>
<text text-anchor="middle" x="155.38" y="-61" font-family="Helvetica,sans-Serif" font-size="10.00">librm&#45;common.h</text>
</a>
</g>
</g>
<!-- Node1&#45;&gt;Node7 -->
<g id="edge6_Node000001_Node000007" class="edge">
<title>Node1&#45;&gt;Node7</title>
<g id="a_edge6_Node000001_Node000007"><a xlink:title=" ">
<path fill="none" stroke="#63b8ff" d="M90.75,-165.55C104.11,-144.94 128.64,-107.1 143.33,-84.44"/>
<polygon fill="#63b8ff" stroke="#63b8ff" points="146.16,-86.51 148.67,-76.22 140.29,-82.7 146.16,-86.51"/>
</a>
</g>
</g>
<!-- Node4 -->
<g id="Node000004" class="node">
<title>Node4</title>
<g id="a_Node000004"><a xlink:href="iop_2kernel_2include_2types_8h_source.html" target="_top" xlink:title=" ">
<polygon fill="white" stroke="#666666" points="94.75,-74.5 48,-74.5 48,-55.25 94.75,-55.25 94.75,-74.5"/>
<text text-anchor="middle" x="71.38" y="-61" font-family="Helvetica,sans-Serif" font-size="10.00">types.h</text>
</a>
</g>
</g>
<!-- Node3&#45;&gt;Node4 -->
<g id="edge3_Node000003_Node000004" class="edge">
<title>Node3&#45;&gt;Node4</title>
<g id="a_edge3_Node000003_Node000004"><a xlink:title=" ">
<path fill="none" stroke="#63b8ff" d="M79.72,-110.33C78.49,-103.74 76.74,-94.46 75.17,-86.07"/>
<polygon fill="#63b8ff" stroke="#63b8ff" points="78.63,-85.53 73.34,-76.35 71.75,-86.82 78.63,-85.53"/>
</a>
</g>
</g>
<!-- Node5 -->
<g id="Node000005" class="node">
<title>Node5</title>
<g id="a_Node000005"><a xlink:title=" ">
<polygon fill="#e0e0e0" stroke="#999999" points="96.62,-19.25 46.12,-19.25 46.12,0 96.62,0 96.62,-19.25"/>
<text text-anchor="middle" x="71.38" y="-5.75" font-family="Helvetica,sans-Serif" font-size="10.00">stddef.h</text>
</a>
</g>
</g>
<!-- Node4&#45;&gt;Node5 -->
<g id="edge4_Node000004_Node000005" class="edge">
<title>Node4&#45;&gt;Node5</title>
<g id="a_edge4_Node000004_Node000005"><a xlink:title=" ">
<path fill="none" stroke="#63b8ff" d="M71.38,-55.08C71.38,-48.57 71.38,-39.42 71.38,-31.12"/>
<polygon fill="#63b8ff" stroke="#63b8ff" points="74.88,-31.12 71.38,-21.12 67.88,-31.12 74.88,-31.12"/>
</a>
</g>
</g>
<!-- Node6 -->
<g id="Node000006" class="node">
<title>Node6</title>
<g id="a_Node000006"><a xlink:href="tamtypes_8h.html" target="_top" xlink:title=" ">
<polygon fill="white" stroke="#666666" points="182,-19.25 118.75,-19.25 118.75,0 182,0 182,-19.25"/>
<text text-anchor="middle" x="150.38" y="-5.75" font-family="Helvetica,sans-Serif" font-size="10.00">tamtypes.h</text>
</a>
</g>
</g>
<!-- Node4&#45;&gt;Node6 -->
<g id="edge5_Node000004_Node000006" class="edge">
<title>Node4&#45;&gt;Node6</title>
<g id="a_edge5_Node000004_Node000006"><a xlink:title=" ">
<path fill="none" stroke="#63b8ff" d="M84.78,-54.84C96.47,-46.96 113.68,-35.36 127.54,-26.02"/>
<polygon fill="#63b8ff" stroke="#63b8ff" points="129.32,-29.04 135.65,-20.55 125.4,-23.24 129.32,-29.04"/>
</a>
</g>
</g>
<!-- Node7&#45;&gt;Node6 -->
<g id="edge7_Node000007_Node000006" class="edge">
<title>Node7&#45;&gt;Node6</title>
<g id="a_edge7_Node000007_Node000006"><a xlink:title=" ">
<path fill="none" stroke="#63b8ff" d="M154.55,-55.08C153.93,-48.49 153.06,-39.21 152.27,-30.82"/>
<polygon fill="#63b8ff" stroke="#63b8ff" points="155.78,-30.75 151.36,-21.12 148.81,-31.4 155.78,-30.75"/>
</a>
</g>
</g>
</g>
</svg>
