<?xml version="1.0" encoding="UTF-8" standalone="no"?>
<!DOCTYPE svg PUBLIC "-//W3C//DTD SVG 1.1//EN"
 "http://www.w3.org/Graphics/SVG/1.1/DTD/svg11.dtd">
<!-- Generated by graphviz version 9.0.0 (20230911.1827)
 -->
<!-- Title: iop/fs/romdrv/include/romdrv.h Pages: 1 -->
<svg width="634pt" height="105pt"
 viewBox="0.00 0.00 634.25 105.00" xmlns="http://www.w3.org/2000/svg" xmlns:xlink="http://www.w3.org/1999/xlink">
<g id="graph0" class="graph" transform="scale(1 1) rotate(0) translate(4 101)">
<title>iop/fs/romdrv/include/romdrv.h</title>
<!-- Node1 -->
<g id="Node000001" class="node">
<title>Node1</title>
<g id="a_Node000001"><a xlink:title=" ">
<polygon fill="#999999" stroke="#666666" points="367.62,-97 260.88,-97 260.88,-66.5 367.62,-66.5 367.62,-97"/>
<text text-anchor="start" x="268.88" y="-83.5" font-family="Helvetica,sans-Serif" font-size="10.00">iop/fs/romdrv/include</text>
<text text-anchor="middle" x="314.25" y="-72.25" font-family="Helvetica,sans-Serif" font-size="10.00">/romdrv.h</text>
</a>
</g>
</g>
<!-- Node2 -->
<g id="Node000002" class="node">
<title>Node2</title>
<g id="a_Node000002"><a xlink:href="adddrv_8c_source.html" target="_top" xlink:title=" ">
<polygon fill="white" stroke="#666666" points="128.5,-24.88 0,-24.88 0,-5.63 128.5,-5.63 128.5,-24.88"/>
<text text-anchor="middle" x="64.25" y="-11.38" font-family="Helvetica,sans-Serif" font-size="10.00">iop/fs/adddrv/src/adddrv.c</text>
</a>
</g>
</g>
<!-- Node1&#45;&gt;Node2 -->
<g id="edge1_Node000001_Node000002" class="edge">
<title>Node1&#45;&gt;Node2</title>
<g id="a_edge1_Node000001_Node000002"><a xlink:title=" ">
<path fill="none" stroke="#63b8ff" d="M249.72,-64.1C201.79,-51.73 138.22,-35.33 99.33,-25.3"/>
<polygon fill="#63b8ff" stroke="#63b8ff" points="248.6,-67.43 259.15,-66.54 250.34,-60.65 248.6,-67.43"/>
</a>
</g>
</g>
<!-- Node3 -->
<g id="Node000003" class="node">
<title>Node3</title>
<g id="a_Node000003"><a xlink:href="iop_2fs_2adddrv_2src_2irx__imports_8h_source.html" target="_top" xlink:title=" ">
<polygon fill="white" stroke="#666666" points="248,-30.5 146.5,-30.5 146.5,0 248,0 248,-30.5"/>
<text text-anchor="start" x="154.5" y="-17" font-family="Helvetica,sans-Serif" font-size="10.00">iop/fs/adddrv/src/irx</text>
<text text-anchor="middle" x="197.25" y="-5.75" font-family="Helvetica,sans-Serif" font-size="10.00">_imports.h</text>
</a>
</g>
</g>
<!-- Node1&#45;&gt;Node3 -->
<g id="edge2_Node000001_Node000003" class="edge">
<title>Node1&#45;&gt;Node3</title>
<g id="a_edge2_Node000001_Node000003"><a xlink:title=" ">
<path fill="none" stroke="#63b8ff" d="M277.8,-60.66C260.29,-51 239.68,-39.64 223.69,-30.83"/>
<polygon fill="#63b8ff" stroke="#63b8ff" points="275.93,-63.62 286.38,-65.38 279.31,-57.49 275.93,-63.62"/>
</a>
</g>
</g>
<!-- Node4 -->
<g id="Node000004" class="node">
<title>Node4</title>
<g id="a_Node000004"><a xlink:href="addrom2_8c_source.html" target="_top" xlink:title=" ">
<polygon fill="white" stroke="#666666" points="362.75,-30.5 265.75,-30.5 265.75,0 362.75,0 362.75,-30.5"/>
<text text-anchor="start" x="273.75" y="-17" font-family="Helvetica,sans-Serif" font-size="10.00">iop/fs/addrom2/src</text>
<text text-anchor="middle" x="314.25" y="-5.75" font-family="Helvetica,sans-Serif" font-size="10.00">/addrom2.c</text>
</a>
</g>
</g>
<!-- Node1&#45;&gt;Node4 -->
<g id="edge3_Node000001_Node000004" class="edge">
<title>Node1&#45;&gt;Node4</title>
<g id="a_edge3_Node000001_Node000004"><a xlink:title=" ">
<path fill="none" stroke="#63b8ff" d="M314.25,-54.81C314.25,-46.64 314.25,-37.91 314.25,-30.83"/>
<polygon fill="#63b8ff" stroke="#63b8ff" points="310.75,-54.6 314.25,-64.6 317.75,-54.6 310.75,-54.6"/>
</a>
</g>
</g>
<!-- Node5 -->
<g id="Node000005" class="node">
<title>Node5</title>
<g id="a_Node000005"><a xlink:href="iop_2fs_2addrom2_2src_2irx__imports_8h_source.html" target="_top" xlink:title=" ">
<polygon fill="white" stroke="#666666" points="477.75,-30.5 380.75,-30.5 380.75,0 477.75,0 477.75,-30.5"/>
<text text-anchor="start" x="388.75" y="-17" font-family="Helvetica,sans-Serif" font-size="10.00">iop/fs/addrom2/src</text>
<text text-anchor="middle" x="429.25" y="-5.75" font-family="Helvetica,sans-Serif" font-size="10.00">/irx_imports.h</text>
</a>
</g>
</g>
<!-- Node1&#45;&gt;Node5 -->
<g id="edge4_Node000001_Node000005" class="edge">
<title>Node1&#45;&gt;Node5</title>
<g id="a_edge4_Node000001_Node000005"><a xlink:title=" ">
<path fill="none" stroke="#63b8ff" d="M350.07,-60.66C367.29,-51 387.55,-39.64 403.26,-30.83"/>
<polygon fill="#63b8ff" stroke="#63b8ff" points="348.68,-57.43 341.67,-65.37 352.1,-63.53 348.68,-57.43"/>
</a>
</g>
</g>
<!-- Node6 -->
<g id="Node000006" class="node">
<title>Node6</title>
<g id="a_Node000006"><a xlink:href="romdrv_8c_source.html" target="_top" xlink:title=" ">
<polygon fill="white" stroke="#666666" points="626.25,-24.88 496.25,-24.88 496.25,-5.63 626.25,-5.63 626.25,-24.88"/>
<text text-anchor="middle" x="561.25" y="-11.38" font-family="Helvetica,sans-Serif" font-size="10.00">iop/fs/romdrv/src/romdrv.c</text>
</a>
</g>
</g>
<!-- Node1&#45;&gt;Node6 -->
<g id="edge5_Node000001_Node000006" class="edge">
<title>Node1&#45;&gt;Node6</title>
<g id="a_edge5_Node000001_Node000006"><a xlink:title=" ">
<path fill="none" stroke="#63b8ff" d="M378.88,-63.87C426.06,-51.55 488.2,-35.33 526.4,-25.35"/>
<polygon fill="#63b8ff" stroke="#63b8ff" points="378.1,-60.46 369.31,-66.37 379.87,-67.23 378.1,-60.46"/>
</a>
</g>
</g>
</g>
</svg>
