<?xml version="1.0" encoding="UTF-8" standalone="no"?>
<!DOCTYPE svg PUBLIC "-//W3C//DTD SVG 1.1//EN"
 "http://www.w3.org/Graphics/SVG/1.1/DTD/svg11.dtd">
<!-- Generated by graphviz version 12.2.0 (20241103.1931)
 -->
<!-- Title: iop/system/mtapman/src/rpcservers.c Pages: 1 -->
<svg width="395pt" height="260pt"
 viewBox="0.00 0.00 394.57 259.50" xmlns="http://www.w3.org/2000/svg" xmlns:xlink="http://www.w3.org/1999/xlink">

<svg id="main" version="1.1" xmlns="http://www.w3.org/2000/svg" xmlns:xlink="http://www.w3.org/1999/xlink" xml:space="preserve">

<style type="text/css"><![CDATA[
.node, .edge {opacity: 0.7;}
.node.selected, .edge.selected {opacity: 1;}
.edge:hover path { stroke: red; }
.edge:hover polygon { stroke: red; fill: red; }
]]></style>
<script type="application/ecmascript" xlink:href="svg.min.js"/>
<svg id="graph" class="graph">
<g id="graph0" class="graph" transform="scale(1 1) rotate(0) translate(4 255.5)">
<title>iop/system/mtapman/src/rpcservers.c</title>
<!-- Node1 -->
<g id="Node000001" class="node">
<title>Node1</title>
<g id="a_Node000001"><a xlink:title=" ">
<polygon fill="#999999" stroke="#666666" points="217.57,-251.5 110.82,-251.5 110.82,-221 217.57,-221 217.57,-251.5"/>
<text text-anchor="start" x="118.82" y="-238" font-family="Helvetica,sans-Serif" font-size="10.00">iop/system/mtapman</text>
<text text-anchor="middle" x="164.19" y="-226.75" font-family="Helvetica,sans-Serif" font-size="10.00">/src/rpcservers.c</text>
</a>
</g>
</g>
<!-- Node2 -->
<g id="Node000002" class="node">
<title>Node2</title>
<g id="a_Node000002"><a xlink:title=" ">
<polygon fill="#e0e0e0" stroke="#999999" points="62.57,-129.75 15.82,-129.75 15.82,-110.5 62.57,-110.5 62.57,-129.75"/>
<text text-anchor="middle" x="39.19" y="-116.25" font-family="Helvetica,sans-Serif" font-size="10.00">types.h</text>
</a>
</g>
</g>
<!-- Node1&#45;&gt;Node2 -->
<g id="edge1_Node000001_Node000002" class="edge">
<title>Node1&#45;&gt;Node2</title>
<g id="a_edge1_Node000001_Node000002"><a xlink:title=" ">
<path fill="none" stroke="#63b8ff" d="M110.66,-233.93C74.23,-229.89 28.4,-217.98 4.19,-185 -6.84,-169.97 6.44,-151.07 19.69,-137.74"/>
<polygon fill="#63b8ff" stroke="#63b8ff" points="21.69,-140.66 26.61,-131.28 16.91,-135.55 21.69,-140.66"/>
</a>
</g>
</g>
<!-- Node3 -->
<g id="Node000003" class="node">
<title>Node3</title>
<g id="a_Node000003"><a xlink:href="irx_8h.html" target="_top" xlink:title=" ">
<polygon fill="white" stroke="#666666" points="148.82,-129.75 115.57,-129.75 115.57,-110.5 148.82,-110.5 148.82,-129.75"/>
<text text-anchor="middle" x="132.19" y="-116.25" font-family="Helvetica,sans-Serif" font-size="10.00">irx.h</text>
</a>
</g>
</g>
<!-- Node1&#45;&gt;Node3 -->
<g id="edge2_Node000001_Node000003" class="edge">
<title>Node1&#45;&gt;Node3</title>
<g id="a_edge2_Node000001_Node000003"><a xlink:title=" ">
<path fill="none" stroke="#63b8ff" d="M160.26,-220.59C156.47,-206.51 150.53,-184.65 145.19,-165.75 142.89,-157.6 140.29,-148.62 138.03,-140.88"/>
<polygon fill="#63b8ff" stroke="#63b8ff" points="141.43,-140.06 135.26,-131.45 134.72,-142.04 141.43,-140.06"/>
</a>
</g>
</g>
<!-- Node7 -->
<g id="Node000007" class="node">
<title>Node7</title>
<g id="a_Node000007"><a xlink:href="stdio_8h.html" target="_top" xlink:title=" ">
<polygon fill="white" stroke="#666666" points="236.44,-185 191.94,-185 191.94,-165.75 236.44,-165.75 236.44,-185"/>
<text text-anchor="middle" x="214.19" y="-171.5" font-family="Helvetica,sans-Serif" font-size="10.00">stdio.h</text>
</a>
</g>
</g>
<!-- Node1&#45;&gt;Node7 -->
<g id="edge6_Node000001_Node000007" class="edge">
<title>Node1&#45;&gt;Node7</title>
<g id="a_edge6_Node000001_Node000007"><a xlink:title=" ">
<path fill="none" stroke="#63b8ff" d="M176.55,-220.7C183.36,-212.68 191.87,-202.67 199.07,-194.19"/>
<polygon fill="#63b8ff" stroke="#63b8ff" points="201.7,-196.49 205.51,-186.6 196.37,-191.96 201.7,-196.49"/>
</a>
</g>
</g>
<!-- Node9 -->
<g id="Node000009" class="node">
<title>Node9</title>
<g id="a_Node000009"><a xlink:href="freemtap_8h.html" target="_top" xlink:title=" ">
<polygon fill="white" stroke="#666666" points="316.07,-185 254.32,-185 254.32,-165.75 316.07,-165.75 316.07,-185"/>
<text text-anchor="middle" x="285.19" y="-171.5" font-family="Helvetica,sans-Serif" font-size="10.00">freemtap.h</text>
</a>
</g>
</g>
<!-- Node1&#45;&gt;Node9 -->
<g id="edge9_Node000001_Node000009" class="edge">
<title>Node1&#45;&gt;Node9</title>
<g id="a_edge9_Node000001_Node000009"><a xlink:title=" ">
<path fill="none" stroke="#63b8ff" d="M194.42,-220.55C213.37,-211.32 237.68,-199.5 256.37,-190.4"/>
<polygon fill="#63b8ff" stroke="#63b8ff" points="257.82,-193.59 265.28,-186.07 254.75,-187.29 257.82,-193.59"/>
</a>
</g>
</g>
<!-- Node10 -->
<g id="Node000010" class="node">
<title>Node10</title>
<g id="a_Node000010"><a xlink:href="sifman_8h.html" target="_top" xlink:title=" ">
<polygon fill="white" stroke="#666666" points="136.57,-185 83.82,-185 83.82,-165.75 136.57,-165.75 136.57,-185"/>
<text text-anchor="middle" x="110.19" y="-171.5" font-family="Helvetica,sans-Serif" font-size="10.00">sifman.h</text>
</a>
</g>
</g>
<!-- Node1&#45;&gt;Node10 -->
<g id="edge10_Node000001_Node000010" class="edge">
<title>Node1&#45;&gt;Node10</title>
<g id="a_edge10_Node000001_Node000010"><a xlink:title=" ">
<path fill="none" stroke="#63b8ff" d="M150.85,-220.7C143.42,-212.59 134.11,-202.45 126.28,-193.91"/>
<polygon fill="#63b8ff" stroke="#63b8ff" points="128.88,-191.57 119.54,-186.57 123.72,-196.3 128.88,-191.57"/>
</a>
</g>
</g>
<!-- Node11 -->
<g id="Node000011" class="node">
<title>Node11</title>
<g id="a_Node000011"><a xlink:title=" ">
<polygon fill="#e0e0e0" stroke="#999999" points="386.57,-185 333.82,-185 333.82,-165.75 386.57,-165.75 386.57,-185"/>
<text text-anchor="middle" x="360.19" y="-171.5" font-family="Helvetica,sans-Serif" font-size="10.00">sifcmd.h</text>
</a>
</g>
</g>
<!-- Node1&#45;&gt;Node11 -->
<g id="edge13_Node000001_Node000011" class="edge">
<title>Node1&#45;&gt;Node11</title>
<g id="a_edge13_Node000001_Node000011"><a xlink:title=" ">
<path fill="none" stroke="#63b8ff" d="M213.15,-220.55C247.08,-210.35 291.58,-196.99 322.7,-187.64"/>
<polygon fill="#63b8ff" stroke="#63b8ff" points="323.5,-191.05 332.07,-184.82 321.49,-184.35 323.5,-191.05"/>
</a>
</g>
</g>
<!-- Node12 -->
<g id="Node000012" class="node">
<title>Node12</title>
<g id="a_Node000012"><a xlink:href="thbase_8h.html" target="_top" xlink:title=" ">
<polygon fill="white" stroke="#666666" points="65.57,-185 12.82,-185 12.82,-165.75 65.57,-165.75 65.57,-185"/>
<text text-anchor="middle" x="39.19" y="-171.5" font-family="Helvetica,sans-Serif" font-size="10.00">thbase.h</text>
</a>
</g>
</g>
<!-- Node1&#45;&gt;Node12 -->
<g id="edge14_Node000001_Node000012" class="edge">
<title>Node1&#45;&gt;Node12</title>
<g id="a_edge14_Node000001_Node000012"><a xlink:title=" ">
<path fill="none" stroke="#63b8ff" d="M132.97,-220.55C113.3,-211.28 88.05,-199.38 68.71,-190.27"/>
<polygon fill="#63b8ff" stroke="#63b8ff" points="70.27,-187.14 59.73,-186.05 67.29,-193.48 70.27,-187.14"/>
</a>
</g>
</g>
<!-- Node4 -->
<g id="Node000004" class="node">
<title>Node4</title>
<g id="a_Node000004"><a xlink:href="iop_2kernel_2include_2types_8h_source.html" target="_top" xlink:title=" ">
<polygon fill="white" stroke="#666666" points="155.57,-74.5 108.82,-74.5 108.82,-55.25 155.57,-55.25 155.57,-74.5"/>
<text text-anchor="middle" x="132.19" y="-61" font-family="Helvetica,sans-Serif" font-size="10.00">types.h</text>
</a>
</g>
</g>
<!-- Node3&#45;&gt;Node4 -->
<g id="edge3_Node000003_Node000004" class="edge">
<title>Node3&#45;&gt;Node4</title>
<g id="a_edge3_Node000003_Node000004"><a xlink:title=" ">
<path fill="none" stroke="#63b8ff" d="M132.19,-110.33C132.19,-103.82 132.19,-94.67 132.19,-86.37"/>
<polygon fill="#63b8ff" stroke="#63b8ff" points="135.69,-86.37 132.19,-76.37 128.69,-86.37 135.69,-86.37"/>
</a>
</g>
</g>
<!-- Node5 -->
<g id="Node000005" class="node">
<title>Node5</title>
<g id="a_Node000005"><a xlink:title=" ">
<polygon fill="#e0e0e0" stroke="#999999" points="120.44,-19.25 69.94,-19.25 69.94,0 120.44,0 120.44,-19.25"/>
<text text-anchor="middle" x="95.19" y="-5.75" font-family="Helvetica,sans-Serif" font-size="10.00">stddef.h</text>
</a>
</g>
</g>
<!-- Node4&#45;&gt;Node5 -->
<g id="edge4_Node000004_Node000005" class="edge">
<title>Node4&#45;&gt;Node5</title>
<g id="a_edge4_Node000004_Node000005"><a xlink:title=" ">
<path fill="none" stroke="#63b8ff" d="M126.09,-55.08C121.13,-47.96 113.99,-37.68 107.82,-28.8"/>
<polygon fill="#63b8ff" stroke="#63b8ff" points="110.88,-27.07 102.3,-20.85 105.13,-31.06 110.88,-27.07"/>
</a>
</g>
</g>
<!-- Node6 -->
<g id="Node000006" class="node">
<title>Node6</title>
<g id="a_Node000006"><a xlink:href="tamtypes_8h.html" target="_top" xlink:title=" ">
<polygon fill="white" stroke="#666666" points="201.82,-19.25 138.57,-19.25 138.57,0 201.82,0 201.82,-19.25"/>
<text text-anchor="middle" x="170.19" y="-5.75" font-family="Helvetica,sans-Serif" font-size="10.00">tamtypes.h</text>
</a>
</g>
</g>
<!-- Node4&#45;&gt;Node6 -->
<g id="edge5_Node000004_Node000006" class="edge">
<title>Node4&#45;&gt;Node6</title>
<g id="a_edge5_Node000004_Node000006"><a xlink:title=" ">
<path fill="none" stroke="#63b8ff" d="M138.47,-55.08C143.55,-47.96 150.89,-37.68 157.23,-28.8"/>
<polygon fill="#63b8ff" stroke="#63b8ff" points="159.94,-31.01 162.9,-20.84 154.25,-26.95 159.94,-31.01"/>
</a>
</g>
</g>
<!-- Node7&#45;&gt;Node3 -->
<g id="edge8_Node000007_Node000003" class="edge">
<title>Node7&#45;&gt;Node3</title>
<g id="a_edge8_Node000007_Node000003"><a xlink:title=" ">
<path fill="none" stroke="#63b8ff" d="M200.28,-165.34C188.03,-157.39 169.94,-145.64 155.48,-136.25"/>
<polygon fill="#63b8ff" stroke="#63b8ff" points="157.74,-133.54 147.44,-131.03 153.92,-139.41 157.74,-133.54"/>
</a>
</g>
</g>
<!-- Node8 -->
<g id="Node000008" class="node">
<title>Node8</title>
<g id="a_Node000008"><a xlink:title=" ">
<polygon fill="#e0e0e0" stroke="#999999" points="239.44,-129.75 188.94,-129.75 188.94,-110.5 239.44,-110.5 239.44,-129.75"/>
<text text-anchor="middle" x="214.19" y="-116.25" font-family="Helvetica,sans-Serif" font-size="10.00">stdarg.h</text>
</a>
</g>
</g>
<!-- Node7&#45;&gt;Node8 -->
<g id="edge7_Node000007_Node000008" class="edge">
<title>Node7&#45;&gt;Node8</title>
<g id="a_edge7_Node000007_Node000008"><a xlink:title=" ">
<path fill="none" stroke="#63b8ff" d="M214.19,-165.58C214.19,-159.07 214.19,-149.92 214.19,-141.62"/>
<polygon fill="#63b8ff" stroke="#63b8ff" points="217.69,-141.62 214.19,-131.62 210.69,-141.62 217.69,-141.62"/>
</a>
</g>
</g>
<!-- Node10&#45;&gt;Node2 -->
<g id="edge11_Node000010_Node000002" class="edge">
<title>Node10&#45;&gt;Node2</title>
<g id="a_edge11_Node000010_Node000002"><a xlink:title=" ">
<path fill="none" stroke="#63b8ff" d="M98.15,-165.34C87.79,-157.57 72.59,-146.17 60.23,-136.9"/>
<polygon fill="#63b8ff" stroke="#63b8ff" points="62.37,-134.13 52.27,-130.93 58.17,-139.73 62.37,-134.13"/>
</a>
</g>
</g>
<!-- Node10&#45;&gt;Node3 -->
<g id="edge12_Node000010_Node000003" class="edge">
<title>Node10&#45;&gt;Node3</title>
<g id="a_edge12_Node000010_Node000003"><a xlink:title=" ">
<path fill="none" stroke="#63b8ff" d="M113.83,-165.58C116.61,-158.84 120.57,-149.27 124.09,-140.74"/>
<polygon fill="#63b8ff" stroke="#63b8ff" points="127.32,-142.09 127.91,-131.51 120.85,-139.41 127.32,-142.09"/>
</a>
</g>
</g>
<!-- Node12&#45;&gt;Node2 -->
<g id="edge15_Node000012_Node000002" class="edge">
<title>Node12&#45;&gt;Node2</title>
<g id="a_edge15_Node000012_Node000002"><a xlink:title=" ">
<path fill="none" stroke="#63b8ff" d="M39.19,-165.58C39.19,-159.07 39.19,-149.92 39.19,-141.62"/>
<polygon fill="#63b8ff" stroke="#63b8ff" points="42.69,-141.62 39.19,-131.62 35.69,-141.62 42.69,-141.62"/>
</a>
</g>
</g>
<!-- Node12&#45;&gt;Node3 -->
<g id="edge16_Node000012_Node000003" class="edge">
<title>Node12&#45;&gt;Node3</title>
<g id="a_edge16_Node000012_Node000003"><a xlink:title=" ">
<path fill="none" stroke="#63b8ff" d="M54.97,-165.34C69.13,-157.23 90.18,-145.18 106.72,-135.71"/>
<polygon fill="#63b8ff" stroke="#63b8ff" points="108.09,-138.96 115.03,-130.95 104.61,-132.89 108.09,-138.96"/>
</a>
</g>
</g>
</g>
</svg>
</svg>

<style type='text/css'>
<![CDATA[
[data-mouse-over-selected='false'] { opacity: 0.7; }
[data-mouse-over-selected='true']  { opacity: 1.0; }
]]>
</style>
<script type="application/ecmascript"><![CDATA[
document.addEventListener('DOMContentLoaded', (event) => {
  highlightEdges();
  highlightAdjacentNodes();
});
]]></script>
</svg>
