<?xml version="1.0" encoding="UTF-8" standalone="no"?>
<!DOCTYPE svg PUBLIC "-//W3C//DTD SVG 1.1//EN"
 "http://www.w3.org/Graphics/SVG/1.1/DTD/svg11.dtd">
<!-- Generated by graphviz version 12.2.0 (20241103.1931)
 -->
<!-- Title: common/include/s147_mmio_hwport.h Pages: 1 -->
<svg width="468pt" height="105pt"
 viewBox="0.00 0.00 467.75 105.00" xmlns="http://www.w3.org/2000/svg" xmlns:xlink="http://www.w3.org/1999/xlink">
<g id="graph0" class="graph" transform="scale(1 1) rotate(0) translate(4 101)">
<title>common/include/s147_mmio_hwport.h</title>
<!-- Node1 -->
<g id="Node000001" class="node">
<title>Node1</title>
<g id="a_Node000001"><a xlink:title=" ">
<polygon fill="#999999" stroke="#666666" points="282.38,-97 171.12,-97 171.12,-66.5 282.38,-66.5 282.38,-97"/>
<text text-anchor="start" x="179.12" y="-83.5" font-family="Helvetica,sans-Serif" font-size="10.00">common/include/s147</text>
<text text-anchor="middle" x="226.75" y="-72.25" font-family="Helvetica,sans-Serif" font-size="10.00">_mmio_hwport.h</text>
</a>
</g>
</g>
<!-- Node2 -->
<g id="Node000002" class="node">
<title>Node2</title>
<g id="a_Node000002"><a xlink:href="romwrite_8c_source.html" target="_top" xlink:title=" ">
<polygon fill="white" stroke="#666666" points="101.5,-30.5 0,-30.5 0,0 101.5,0 101.5,-30.5"/>
<text text-anchor="start" x="8" y="-17" font-family="Helvetica,sans-Serif" font-size="10.00">iop/arcade/romwrite</text>
<text text-anchor="middle" x="50.75" y="-5.75" font-family="Helvetica,sans-Serif" font-size="10.00">/src/romwrite.c</text>
</a>
</g>
</g>
<!-- Node1&#45;&gt;Node2 -->
<g id="edge1_Node000001_Node000002" class="edge">
<title>Node1&#45;&gt;Node2</title>
<g id="a_edge1_Node000001_Node000002"><a xlink:title=" ">
<path fill="none" stroke="#63b8ff" d="M176.35,-62.28C149.21,-52.33 116.2,-40.24 90.83,-30.94"/>
<polygon fill="#63b8ff" stroke="#63b8ff" points="174.8,-65.44 185.39,-65.59 177.21,-58.87 174.8,-65.44"/>
</a>
</g>
</g>
<!-- Node3 -->
<g id="Node000003" class="node">
<title>Node3</title>
<g id="a_Node000003"><a xlink:href="s147ctrl_8c_source.html" target="_top" xlink:title=" ">
<polygon fill="white" stroke="#666666" points="218,-30.5 119.5,-30.5 119.5,0 218,0 218,-30.5"/>
<text text-anchor="start" x="127.5" y="-17" font-family="Helvetica,sans-Serif" font-size="10.00">iop/arcade/s147ctrl</text>
<text text-anchor="middle" x="168.75" y="-5.75" font-family="Helvetica,sans-Serif" font-size="10.00">/src/s147ctrl.c</text>
</a>
</g>
</g>
<!-- Node1&#45;&gt;Node3 -->
<g id="edge2_Node000001_Node000003" class="edge">
<title>Node1&#45;&gt;Node3</title>
<g id="a_edge2_Node000001_Node000003"><a xlink:title=" ">
<path fill="none" stroke="#63b8ff" d="M205.96,-57.63C197.92,-48.69 188.97,-38.74 181.86,-30.83"/>
<polygon fill="#63b8ff" stroke="#63b8ff" points="203.29,-59.89 212.58,-64.99 208.49,-55.21 203.29,-59.89"/>
</a>
</g>
</g>
<!-- Node4 -->
<g id="Node000004" class="node">
<title>Node4</title>
<g id="a_Node000004"><a xlink:href="s147link_8c_source.html" target="_top" xlink:title=" ">
<polygon fill="white" stroke="#666666" points="335.75,-30.5 235.75,-30.5 235.75,0 335.75,0 335.75,-30.5"/>
<text text-anchor="start" x="243.75" y="-17" font-family="Helvetica,sans-Serif" font-size="10.00">iop/arcade/s147link</text>
<text text-anchor="middle" x="285.75" y="-5.75" font-family="Helvetica,sans-Serif" font-size="10.00">/src/s147link.c</text>
</a>
</g>
</g>
<!-- Node1&#45;&gt;Node4 -->
<g id="edge3_Node000001_Node000004" class="edge">
<title>Node1&#45;&gt;Node4</title>
<g id="a_edge3_Node000001_Node000004"><a xlink:title=" ">
<path fill="none" stroke="#63b8ff" d="M247.9,-57.63C256.07,-48.69 265.18,-38.74 272.41,-30.83"/>
<polygon fill="#63b8ff" stroke="#63b8ff" points="245.33,-55.26 241.16,-65 250.49,-59.98 245.33,-55.26"/>
</a>
</g>
</g>
<!-- Node5 -->
<g id="Node000005" class="node">
<title>Node5</title>
<g id="a_Node000005"><a xlink:href="s147nand_8c_source.html" target="_top" xlink:title=" ">
<polygon fill="white" stroke="#666666" points="459.75,-30.5 353.75,-30.5 353.75,0 459.75,0 459.75,-30.5"/>
<text text-anchor="start" x="361.75" y="-17" font-family="Helvetica,sans-Serif" font-size="10.00">iop/arcade/s147nand</text>
<text text-anchor="middle" x="406.75" y="-5.75" font-family="Helvetica,sans-Serif" font-size="10.00">/src/s147nand.c</text>
</a>
</g>
</g>
<!-- Node1&#45;&gt;Node5 -->
<g id="edge4_Node000001_Node000005" class="edge">
<title>Node1&#45;&gt;Node5</title>
<g id="a_edge4_Node000001_Node000005"><a xlink:title=" ">
<path fill="none" stroke="#63b8ff" d="M278.3,-62.28C306.05,-52.33 339.81,-40.24 365.76,-30.94"/>
<polygon fill="#63b8ff" stroke="#63b8ff" points="277.25,-58.94 269.02,-65.6 279.61,-65.52 277.25,-58.94"/>
</a>
</g>
</g>
</g>
</svg>
