<?xml version="1.0" encoding="UTF-8" standalone="no"?>
<!DOCTYPE svg PUBLIC "-//W3C//DTD SVG 1.1//EN"
 "http://www.w3.org/Graphics/SVG/1.1/DTD/svg11.dtd">
<!-- Generated by graphviz version 2.43.0 (0)
 -->
<!-- Title: iop/system/sbusintr/src/sbusintr.c Pages: 1 -->
<svg width="393pt" height="263pt"
 viewBox="0.00 0.00 392.85 263.00" xmlns="http://www.w3.org/2000/svg" xmlns:xlink="http://www.w3.org/1999/xlink">
<g id="graph0" class="graph" transform="scale(1 1) rotate(0) translate(4 259)">
<title>iop/system/sbusintr/src/sbusintr.c</title>
<polygon fill="white" stroke="transparent" points="-4,4 -4,-259 388.85,-259 388.85,4 -4,4"/>
<!-- Node1 -->
<g id="node1" class="node">
<title>Node1</title>
<g id="a_node1"><a xlink:title=" ">
<polygon fill="#bfbfbf" stroke="black" points="156.85,-224.5 156.85,-254.5 269.85,-254.5 269.85,-224.5 156.85,-224.5"/>
<text text-anchor="start" x="164.85" y="-242.5" font-family="Helvetica,sans-Serif" font-size="10.00">iop/system/sbusintr</text>
<text text-anchor="middle" x="213.35" y="-231.5" font-family="Helvetica,sans-Serif" font-size="10.00">/src/sbusintr.c</text>
</a>
</g>
</g>
<!-- Node2 -->
<g id="node2" class="node">
<title>Node2</title>
<g id="a_node2"><a xlink:title=" ">
<polygon fill="white" stroke="#bfbfbf" points="106.85,-112.5 106.85,-131.5 159.85,-131.5 159.85,-112.5 106.85,-112.5"/>
<text text-anchor="middle" x="133.35" y="-119.5" font-family="Helvetica,sans-Serif" font-size="10.00">types.h</text>
</a>
</g>
</g>
<!-- Node1&#45;&gt;Node2 -->
<g id="edge1" class="edge">
<title>Node1&#45;&gt;Node2</title>
<path fill="none" stroke="midnightblue" d="M156.84,-232.51C102.11,-225.4 24.77,-211.46 6.35,-188 -20.67,-153.59 50.06,-135.72 96.51,-127.95"/>
<polygon fill="midnightblue" stroke="midnightblue" points="97.25,-131.37 106.58,-126.35 96.16,-124.46 97.25,-131.37"/>
</g>
<!-- Node3 -->
<g id="node3" class="node">
<title>Node3</title>
<g id="a_node3"><a xlink:href="defs_8h.html" target="_top" xlink:title=" ">
<polygon fill="white" stroke="black" points="337.85,-112.5 337.85,-131.5 384.85,-131.5 384.85,-112.5 337.85,-112.5"/>
<text text-anchor="middle" x="361.35" y="-119.5" font-family="Helvetica,sans-Serif" font-size="10.00">defs.h</text>
</a>
</g>
</g>
<!-- Node1&#45;&gt;Node3 -->
<g id="edge2" class="edge">
<title>Node1&#45;&gt;Node3</title>
<path fill="none" stroke="midnightblue" d="M270.09,-231.12C298.3,-224.49 330.52,-211.9 350.35,-188 360.96,-175.21 363.08,-156.02 362.92,-141.81"/>
<polygon fill="midnightblue" stroke="midnightblue" points="366.41,-141.5 362.42,-131.69 359.41,-141.85 366.41,-141.5"/>
</g>
<!-- Node7 -->
<g id="node7" class="node">
<title>Node7</title>
<g id="a_node7"><a xlink:href="irx_8h.html" target="_top" xlink:title=" ">
<polygon fill="white" stroke="black" points="223.35,-112.5 223.35,-131.5 261.35,-131.5 261.35,-112.5 223.35,-112.5"/>
<text text-anchor="middle" x="242.35" y="-119.5" font-family="Helvetica,sans-Serif" font-size="10.00">irx.h</text>
</a>
</g>
</g>
<!-- Node1&#45;&gt;Node7 -->
<g id="edge6" class="edge">
<title>Node1&#45;&gt;Node7</title>
<path fill="none" stroke="midnightblue" d="M270.14,-229.15C294.17,-222.08 319.9,-209.69 334.35,-188 353.07,-159.9 304.7,-140.14 271.22,-130.25"/>
<polygon fill="midnightblue" stroke="midnightblue" points="271.97,-126.83 261.39,-127.5 270.08,-133.57 271.97,-126.83"/>
</g>
<!-- Node8 -->
<g id="node8" class="node">
<title>Node8</title>
<g id="a_node8"><a xlink:href="loadcore_8h.html" target="_top" xlink:title=" ">
<polygon fill="white" stroke="black" points="15.35,-168.5 15.35,-187.5 83.35,-187.5 83.35,-168.5 15.35,-168.5"/>
<text text-anchor="middle" x="49.35" y="-175.5" font-family="Helvetica,sans-Serif" font-size="10.00">loadcore.h</text>
</a>
</g>
</g>
<!-- Node1&#45;&gt;Node8 -->
<g id="edge8" class="edge">
<title>Node1&#45;&gt;Node8</title>
<path fill="none" stroke="midnightblue" d="M174.49,-224.4C146.6,-214.28 109.41,-200.79 82.84,-191.15"/>
<polygon fill="midnightblue" stroke="midnightblue" points="83.81,-187.78 73.21,-187.66 81.42,-194.36 83.81,-187.78"/>
</g>
<!-- Node9 -->
<g id="node9" class="node">
<title>Node9</title>
<g id="a_node9"><a xlink:href="intrman_8h.html" target="_top" xlink:title=" ">
<polygon fill="white" stroke="black" points="101.35,-168.5 101.35,-187.5 165.35,-187.5 165.35,-168.5 101.35,-168.5"/>
<text text-anchor="middle" x="133.35" y="-175.5" font-family="Helvetica,sans-Serif" font-size="10.00">intrman.h</text>
</a>
</g>
</g>
<!-- Node1&#45;&gt;Node9 -->
<g id="edge11" class="edge">
<title>Node1&#45;&gt;Node9</title>
<path fill="none" stroke="midnightblue" d="M194.39,-224.4C181.93,-215.13 165.65,-203.03 153.04,-193.65"/>
<polygon fill="midnightblue" stroke="midnightblue" points="155.1,-190.82 144.99,-187.66 150.93,-196.43 155.1,-190.82"/>
</g>
<!-- Node10 -->
<g id="node10" class="node">
<title>Node10</title>
<g id="a_node10"><a xlink:href="sifman_8h.html" target="_top" xlink:title=" ">
<polygon fill="white" stroke="black" points="183.85,-168.5 183.85,-187.5 242.85,-187.5 242.85,-168.5 183.85,-168.5"/>
<text text-anchor="middle" x="213.35" y="-175.5" font-family="Helvetica,sans-Serif" font-size="10.00">sifman.h</text>
</a>
</g>
</g>
<!-- Node1&#45;&gt;Node10 -->
<g id="edge14" class="edge">
<title>Node1&#45;&gt;Node10</title>
<path fill="none" stroke="midnightblue" d="M213.35,-224.4C213.35,-216.47 213.35,-206.46 213.35,-197.86"/>
<polygon fill="midnightblue" stroke="midnightblue" points="216.85,-197.66 213.35,-187.66 209.85,-197.66 216.85,-197.66"/>
</g>
<!-- Node11 -->
<g id="node11" class="node">
<title>Node11</title>
<g id="a_node11"><a xlink:href="sbusintr_8h.html" target="_top" xlink:title=" ">
<polygon fill="white" stroke="black" points="261.35,-168.5 261.35,-187.5 325.35,-187.5 325.35,-168.5 261.35,-168.5"/>
<text text-anchor="middle" x="293.35" y="-175.5" font-family="Helvetica,sans-Serif" font-size="10.00">sbusintr.h</text>
</a>
</g>
</g>
<!-- Node1&#45;&gt;Node11 -->
<g id="edge17" class="edge">
<title>Node1&#45;&gt;Node11</title>
<path fill="none" stroke="midnightblue" d="M232.31,-224.4C244.77,-215.13 261.05,-203.03 273.66,-193.65"/>
<polygon fill="midnightblue" stroke="midnightblue" points="275.78,-196.43 281.71,-187.66 271.6,-190.82 275.78,-196.43"/>
</g>
<!-- Node4 -->
<g id="node4" class="node">
<title>Node4</title>
<g id="a_node4"><a xlink:href="iop_2kernel_2include_2types_8h_source.html" target="_top" xlink:title=" ">
<polygon fill="white" stroke="black" points="274.85,-56.5 274.85,-75.5 327.85,-75.5 327.85,-56.5 274.85,-56.5"/>
<text text-anchor="middle" x="301.35" y="-63.5" font-family="Helvetica,sans-Serif" font-size="10.00">types.h</text>
</a>
</g>
</g>
<!-- Node3&#45;&gt;Node4 -->
<g id="edge3" class="edge">
<title>Node3&#45;&gt;Node4</title>
<path fill="none" stroke="midnightblue" d="M351.71,-112.32C342.84,-104.34 329.48,-92.31 318.74,-82.65"/>
<polygon fill="midnightblue" stroke="midnightblue" points="320.94,-79.92 311.17,-75.83 316.26,-85.13 320.94,-79.92"/>
</g>
<!-- Node5 -->
<g id="node5" class="node">
<title>Node5</title>
<g id="a_node5"><a xlink:title=" ">
<polygon fill="white" stroke="#bfbfbf" points="232.35,-0.5 232.35,-19.5 288.35,-19.5 288.35,-0.5 232.35,-0.5"/>
<text text-anchor="middle" x="260.35" y="-7.5" font-family="Helvetica,sans-Serif" font-size="10.00">stddef.h</text>
</a>
</g>
</g>
<!-- Node4&#45;&gt;Node5 -->
<g id="edge4" class="edge">
<title>Node4&#45;&gt;Node5</title>
<path fill="none" stroke="midnightblue" d="M294.58,-56.08C288.79,-48.46 280.29,-37.26 273.21,-27.94"/>
<polygon fill="midnightblue" stroke="midnightblue" points="275.83,-25.6 267,-19.75 270.25,-29.83 275.83,-25.6"/>
</g>
<!-- Node6 -->
<g id="node6" class="node">
<title>Node6</title>
<g id="a_node6"><a xlink:href="tamtypes_8h.html" target="_top" xlink:title=" ">
<polygon fill="white" stroke="black" points="306.35,-0.5 306.35,-19.5 378.35,-19.5 378.35,-0.5 306.35,-0.5"/>
<text text-anchor="middle" x="342.35" y="-7.5" font-family="Helvetica,sans-Serif" font-size="10.00">tamtypes.h</text>
</a>
</g>
</g>
<!-- Node4&#45;&gt;Node6 -->
<g id="edge5" class="edge">
<title>Node4&#45;&gt;Node6</title>
<path fill="none" stroke="midnightblue" d="M308.12,-56.08C313.91,-48.46 322.41,-37.26 329.49,-27.94"/>
<polygon fill="midnightblue" stroke="midnightblue" points="332.45,-29.83 335.71,-19.75 326.87,-25.6 332.45,-29.83"/>
</g>
<!-- Node7&#45;&gt;Node4 -->
<g id="edge7" class="edge">
<title>Node7&#45;&gt;Node4</title>
<path fill="none" stroke="midnightblue" d="M251.83,-112.32C260.55,-104.34 273.69,-92.31 284.25,-82.65"/>
<polygon fill="midnightblue" stroke="midnightblue" points="286.69,-85.17 291.7,-75.83 281.96,-80 286.69,-85.17"/>
</g>
<!-- Node8&#45;&gt;Node2 -->
<g id="edge9" class="edge">
<title>Node8&#45;&gt;Node2</title>
<path fill="none" stroke="midnightblue" d="M62.85,-168.32C75.95,-159.9 96.06,-146.97 111.46,-137.07"/>
<polygon fill="midnightblue" stroke="midnightblue" points="113.37,-140.01 119.89,-131.65 109.58,-134.12 113.37,-140.01"/>
</g>
<!-- Node8&#45;&gt;Node7 -->
<g id="edge10" class="edge">
<title>Node8&#45;&gt;Node7</title>
<path fill="none" stroke="midnightblue" d="M79.93,-168.44C116.6,-158.18 177.58,-141.12 213.47,-131.08"/>
<polygon fill="midnightblue" stroke="midnightblue" points="214.63,-134.39 223.32,-128.32 212.75,-127.65 214.63,-134.39"/>
</g>
<!-- Node9&#45;&gt;Node2 -->
<g id="edge12" class="edge">
<title>Node9&#45;&gt;Node2</title>
<path fill="none" stroke="midnightblue" d="M133.35,-168.08C133.35,-161.01 133.35,-150.86 133.35,-141.99"/>
<polygon fill="midnightblue" stroke="midnightblue" points="136.85,-141.75 133.35,-131.75 129.85,-141.75 136.85,-141.75"/>
</g>
<!-- Node9&#45;&gt;Node7 -->
<g id="edge13" class="edge">
<title>Node9&#45;&gt;Node7</title>
<path fill="none" stroke="midnightblue" d="M150.86,-168.32C168.42,-159.62 195.68,-146.12 215.88,-136.11"/>
<polygon fill="midnightblue" stroke="midnightblue" points="217.47,-139.23 224.88,-131.65 214.37,-132.96 217.47,-139.23"/>
</g>
<!-- Node10&#45;&gt;Node2 -->
<g id="edge15" class="edge">
<title>Node10&#45;&gt;Node2</title>
<path fill="none" stroke="midnightblue" d="M200.5,-168.32C188.13,-159.98 169.22,-147.21 154.61,-137.35"/>
<polygon fill="midnightblue" stroke="midnightblue" points="156.42,-134.35 146.17,-131.65 152.5,-140.15 156.42,-134.35"/>
</g>
<!-- Node10&#45;&gt;Node7 -->
<g id="edge16" class="edge">
<title>Node10&#45;&gt;Node7</title>
<path fill="none" stroke="midnightblue" d="M218.14,-168.08C222.11,-160.69 227.88,-149.95 232.79,-140.81"/>
<polygon fill="midnightblue" stroke="midnightblue" points="236,-142.22 237.65,-131.75 229.84,-138.91 236,-142.22"/>
</g>
<!-- Node11&#45;&gt;Node2 -->
<g id="edge18" class="edge">
<title>Node11&#45;&gt;Node2</title>
<path fill="none" stroke="midnightblue" d="M268,-168.44C241.08,-159.36 198.35,-144.94 168.26,-134.78"/>
<polygon fill="midnightblue" stroke="midnightblue" points="169.18,-131.4 158.58,-131.52 166.94,-138.03 169.18,-131.4"/>
</g>
<!-- Node11&#45;&gt;Node7 -->
<g id="edge19" class="edge">
<title>Node11&#45;&gt;Node7</title>
<path fill="none" stroke="midnightblue" d="M284.93,-168.08C277.5,-160.22 266.5,-148.57 257.54,-139.08"/>
<polygon fill="midnightblue" stroke="midnightblue" points="260.03,-136.62 250.62,-131.75 254.94,-141.42 260.03,-136.62"/>
</g>
</g>
</svg>
