<?xml version="1.0" encoding="UTF-8" standalone="no"?>
<!DOCTYPE svg PUBLIC "-//W3C//DTD SVG 1.1//EN"
 "http://www.w3.org/Graphics/SVG/1.1/DTD/svg11.dtd">
<!-- Generated by graphviz version 9.0.0 (20230911.1827)
 -->
<!-- Title: iop/system/sbusintr/src/sbusintr.c Pages: 1 -->
<svg width="385pt" height="260pt"
 viewBox="0.00 0.00 384.50 259.50" xmlns="http://www.w3.org/2000/svg" xmlns:xlink="http://www.w3.org/1999/xlink">
<g id="graph0" class="graph" transform="scale(1 1) rotate(0) translate(4 255.5)">
<title>iop/system/sbusintr/src/sbusintr.c</title>
<!-- Node1 -->
<g id="Node000001" class="node">
<title>Node1</title>
<g id="a_Node000001"><a xlink:title=" ">
<polygon fill="#999999" stroke="#666666" points="228.75,-251.5 128,-251.5 128,-221 228.75,-221 228.75,-251.5"/>
<text text-anchor="start" x="136" y="-238" font-family="Helvetica,sans-Serif" font-size="10.00">iop/system/sbusintr</text>
<text text-anchor="middle" x="178.38" y="-226.75" font-family="Helvetica,sans-Serif" font-size="10.00">/src/sbusintr.c</text>
</a>
</g>
</g>
<!-- Node2 -->
<g id="Node000002" class="node">
<title>Node2</title>
<g id="a_Node000002"><a xlink:title=" ">
<polygon fill="#e0e0e0" stroke="#999999" points="46.75,-129.75 0,-129.75 0,-110.5 46.75,-110.5 46.75,-129.75"/>
<text text-anchor="middle" x="23.38" y="-116.25" font-family="Helvetica,sans-Serif" font-size="10.00">types.h</text>
</a>
</g>
</g>
<!-- Node1&#45;&gt;Node2 -->
<g id="edge1_Node000001_Node000002" class="edge">
<title>Node1&#45;&gt;Node2</title>
<g id="a_edge1_Node000001_Node000002"><a xlink:title=" ">
<path fill="none" stroke="#63b8ff" d="M127.58,-234.85C89.41,-231.53 39.4,-220.13 13.38,-185 3.87,-172.18 8.01,-153.89 13.57,-140.17"/>
<polygon fill="#63b8ff" stroke="#63b8ff" points="16.65,-141.86 17.67,-131.31 10.29,-138.92 16.65,-141.86"/>
</a>
</g>
</g>
<!-- Node3 -->
<g id="Node000003" class="node">
<title>Node3</title>
<g id="a_Node000003"><a xlink:href="defs_8h.html" target="_top" xlink:title=" ">
<polygon fill="white" stroke="#666666" points="376.5,-129.75 334.25,-129.75 334.25,-110.5 376.5,-110.5 376.5,-129.75"/>
<text text-anchor="middle" x="355.38" y="-116.25" font-family="Helvetica,sans-Serif" font-size="10.00">defs.h</text>
</a>
</g>
</g>
<!-- Node1&#45;&gt;Node3 -->
<g id="edge2_Node000001_Node000003" class="edge">
<title>Node1&#45;&gt;Node3</title>
<g id="a_edge2_Node000001_Node000003"><a xlink:title=" ">
<path fill="none" stroke="#63b8ff" d="M229.24,-234.77C268.36,-231.46 320.45,-220.1 349.38,-185 359.25,-173.02 360.15,-155.16 358.92,-141.37"/>
<polygon fill="#63b8ff" stroke="#63b8ff" points="362.41,-141.07 357.6,-131.63 355.48,-142.01 362.41,-141.07"/>
</a>
</g>
</g>
<!-- Node7 -->
<g id="Node000007" class="node">
<title>Node7</title>
<g id="a_Node000007"><a xlink:href="irx_8h.html" target="_top" xlink:title=" ">
<polygon fill="white" stroke="#666666" points="201,-129.75 167.75,-129.75 167.75,-110.5 201,-110.5 201,-129.75"/>
<text text-anchor="middle" x="184.38" y="-116.25" font-family="Helvetica,sans-Serif" font-size="10.00">irx.h</text>
</a>
</g>
</g>
<!-- Node1&#45;&gt;Node7 -->
<g id="edge6_Node000001_Node000007" class="edge">
<title>Node1&#45;&gt;Node7</title>
<g id="a_edge6_Node000001_Node000007"><a xlink:title=" ">
<path fill="none" stroke="#63b8ff" d="M179.13,-220.8C180.19,-200.75 182.1,-164.4 183.3,-141.57"/>
<polygon fill="#63b8ff" stroke="#63b8ff" points="186.79,-141.88 183.82,-131.71 179.8,-141.51 186.79,-141.88"/>
</a>
</g>
</g>
<!-- Node8 -->
<g id="Node000008" class="node">
<title>Node8</title>
<g id="a_Node000008"><a xlink:href="loadcore_8h.html" target="_top" xlink:title=" ">
<polygon fill="white" stroke="#666666" points="266.5,-185 206.25,-185 206.25,-165.75 266.5,-165.75 266.5,-185"/>
<text text-anchor="middle" x="236.38" y="-171.5" font-family="Helvetica,sans-Serif" font-size="10.00">loadcore.h</text>
</a>
</g>
</g>
<!-- Node1&#45;&gt;Node8 -->
<g id="edge8_Node000001_Node000008" class="edge">
<title>Node1&#45;&gt;Node8</title>
<g id="a_edge8_Node000001_Node000008"><a xlink:title=" ">
<path fill="none" stroke="#63b8ff" d="M192.71,-220.7C200.78,-212.51 210.9,-202.23 219.37,-193.64"/>
<polygon fill="#63b8ff" stroke="#63b8ff" points="221.85,-196.11 226.37,-186.53 216.86,-191.2 221.85,-196.11"/>
</a>
</g>
</g>
<!-- Node9 -->
<g id="Node000009" class="node">
<title>Node9</title>
<g id="a_Node000009"><a xlink:href="intrman_8h.html" target="_top" xlink:title=" ">
<polygon fill="white" stroke="#666666" points="340.25,-185 284.5,-185 284.5,-165.75 340.25,-165.75 340.25,-185"/>
<text text-anchor="middle" x="312.38" y="-171.5" font-family="Helvetica,sans-Serif" font-size="10.00">intrman.h</text>
</a>
</g>
</g>
<!-- Node1&#45;&gt;Node9 -->
<g id="edge11_Node000001_Node000009" class="edge">
<title>Node1&#45;&gt;Node9</title>
<g id="a_edge11_Node000001_Node000009"><a xlink:title=" ">
<path fill="none" stroke="#63b8ff" d="M211.84,-220.55C233.13,-211.19 260.51,-199.16 281.32,-190.02"/>
<polygon fill="#63b8ff" stroke="#63b8ff" points="282.69,-193.24 290.44,-186.01 279.88,-186.83 282.69,-193.24"/>
</a>
</g>
</g>
<!-- Node10 -->
<g id="Node000010" class="node">
<title>Node10</title>
<g id="a_Node000010"><a xlink:href="sifman_8h.html" target="_top" xlink:title=" ">
<polygon fill="white" stroke="#666666" points="150.75,-185 98,-185 98,-165.75 150.75,-165.75 150.75,-185"/>
<text text-anchor="middle" x="124.38" y="-171.5" font-family="Helvetica,sans-Serif" font-size="10.00">sifman.h</text>
</a>
</g>
</g>
<!-- Node1&#45;&gt;Node10 -->
<g id="edge14_Node000001_Node000010" class="edge">
<title>Node1&#45;&gt;Node10</title>
<g id="a_edge14_Node000001_Node000010"><a xlink:title=" ">
<path fill="none" stroke="#63b8ff" d="M165.03,-220.7C157.6,-212.59 148.29,-202.45 140.46,-193.91"/>
<polygon fill="#63b8ff" stroke="#63b8ff" points="143.06,-191.57 133.72,-186.57 137.9,-196.3 143.06,-191.57"/>
</a>
</g>
</g>
<!-- Node11 -->
<g id="Node000011" class="node">
<title>Node11</title>
<g id="a_Node000011"><a xlink:href="sbusintr_8h.html" target="_top" xlink:title=" ">
<polygon fill="white" stroke="#666666" points="80.38,-185 22.38,-185 22.38,-165.75 80.38,-165.75 80.38,-185"/>
<text text-anchor="middle" x="51.38" y="-171.5" font-family="Helvetica,sans-Serif" font-size="10.00">sbusintr.h</text>
</a>
</g>
</g>
<!-- Node1&#45;&gt;Node11 -->
<g id="edge17_Node000001_Node000011" class="edge">
<title>Node1&#45;&gt;Node11</title>
<g id="a_edge17_Node000001_Node000011"><a xlink:title=" ">
<path fill="none" stroke="#63b8ff" d="M146.66,-220.55C126.57,-211.23 100.77,-199.27 81.08,-190.15"/>
<polygon fill="#63b8ff" stroke="#63b8ff" points="82.77,-187.07 72.22,-186.04 79.83,-193.42 82.77,-187.07"/>
</a>
</g>
</g>
<!-- Node4 -->
<g id="Node000004" class="node">
<title>Node4</title>
<g id="a_Node000004"><a xlink:href="iop_2kernel_2include_2types_8h_source.html" target="_top" xlink:title=" ">
<polygon fill="white" stroke="#666666" points="259.75,-74.5 213,-74.5 213,-55.25 259.75,-55.25 259.75,-74.5"/>
<text text-anchor="middle" x="236.38" y="-61" font-family="Helvetica,sans-Serif" font-size="10.00">types.h</text>
</a>
</g>
</g>
<!-- Node3&#45;&gt;Node4 -->
<g id="edge3_Node000003_Node000004" class="edge">
<title>Node3&#45;&gt;Node4</title>
<g id="a_edge3_Node000003_Node000004"><a xlink:title=" ">
<path fill="none" stroke="#63b8ff" d="M335.19,-110.09C316.47,-101.72 288.35,-89.13 266.89,-79.53"/>
<polygon fill="#63b8ff" stroke="#63b8ff" points="268.6,-76.46 258.04,-75.57 265.74,-82.85 268.6,-76.46"/>
</a>
</g>
</g>
<!-- Node5 -->
<g id="Node000005" class="node">
<title>Node5</title>
<g id="a_Node000005"><a xlink:title=" ">
<polygon fill="#e0e0e0" stroke="#999999" points="224.62,-19.25 174.12,-19.25 174.12,0 224.62,0 224.62,-19.25"/>
<text text-anchor="middle" x="199.38" y="-5.75" font-family="Helvetica,sans-Serif" font-size="10.00">stddef.h</text>
</a>
</g>
</g>
<!-- Node4&#45;&gt;Node5 -->
<g id="edge4_Node000004_Node000005" class="edge">
<title>Node4&#45;&gt;Node5</title>
<g id="a_edge4_Node000004_Node000005"><a xlink:title=" ">
<path fill="none" stroke="#63b8ff" d="M230.27,-55.08C225.31,-47.96 218.17,-37.68 212,-28.8"/>
<polygon fill="#63b8ff" stroke="#63b8ff" points="215.06,-27.07 206.48,-20.85 209.31,-31.06 215.06,-27.07"/>
</a>
</g>
</g>
<!-- Node6 -->
<g id="Node000006" class="node">
<title>Node6</title>
<g id="a_Node000006"><a xlink:href="tamtypes_8h.html" target="_top" xlink:title=" ">
<polygon fill="white" stroke="#666666" points="306,-19.25 242.75,-19.25 242.75,0 306,0 306,-19.25"/>
<text text-anchor="middle" x="274.38" y="-5.75" font-family="Helvetica,sans-Serif" font-size="10.00">tamtypes.h</text>
</a>
</g>
</g>
<!-- Node4&#45;&gt;Node6 -->
<g id="edge5_Node000004_Node000006" class="edge">
<title>Node4&#45;&gt;Node6</title>
<g id="a_edge5_Node000004_Node000006"><a xlink:title=" ">
<path fill="none" stroke="#63b8ff" d="M242.65,-55.08C247.73,-47.96 255.07,-37.68 261.41,-28.8"/>
<polygon fill="#63b8ff" stroke="#63b8ff" points="264.12,-31.01 267.08,-20.84 258.43,-26.95 264.12,-31.01"/>
</a>
</g>
</g>
<!-- Node7&#45;&gt;Node4 -->
<g id="edge7_Node000007_Node000004" class="edge">
<title>Node7&#45;&gt;Node4</title>
<g id="a_edge7_Node000007_Node000004"><a xlink:title=" ">
<path fill="none" stroke="#63b8ff" d="M192.96,-110.33C200.22,-102.9 210.83,-92.04 219.74,-82.91"/>
<polygon fill="#63b8ff" stroke="#63b8ff" points="222.06,-85.54 226.54,-75.94 217.05,-80.65 222.06,-85.54"/>
</a>
</g>
</g>
<!-- Node8&#45;&gt;Node4 -->
<g id="edge9_Node000008_Node000004" class="edge">
<title>Node8&#45;&gt;Node4</title>
<g id="a_edge9_Node000008_Node000004"><a xlink:title=" ">
<path fill="none" stroke="#63b8ff" d="M236.38,-165.5C236.38,-148.25 236.38,-109.83 236.38,-86.06"/>
<polygon fill="#63b8ff" stroke="#63b8ff" points="239.88,-86.39 236.38,-76.39 232.88,-86.39 239.88,-86.39"/>
</a>
</g>
</g>
<!-- Node8&#45;&gt;Node7 -->
<g id="edge10_Node000008_Node000007" class="edge">
<title>Node8&#45;&gt;Node7</title>
<g id="a_edge10_Node000008_Node000007"><a xlink:title=" ">
<path fill="none" stroke="#63b8ff" d="M227.79,-165.58C220.53,-158.15 209.92,-147.29 201.01,-138.16"/>
<polygon fill="#63b8ff" stroke="#63b8ff" points="203.7,-135.9 194.21,-131.19 198.69,-140.79 203.7,-135.9"/>
</a>
</g>
</g>
<!-- Node9&#45;&gt;Node4 -->
<g id="edge12_Node000009_Node000004" class="edge">
<title>Node9&#45;&gt;Node4</title>
<g id="a_edge12_Node000009_Node000004"><a xlink:title=" ">
<path fill="none" stroke="#63b8ff" d="M306.16,-165.5C293.74,-147.77 265.67,-107.69 249.16,-84.13"/>
<polygon fill="#63b8ff" stroke="#63b8ff" points="252.15,-82.3 243.55,-76.12 246.42,-86.31 252.15,-82.3"/>
</a>
</g>
</g>
<!-- Node9&#45;&gt;Node7 -->
<g id="edge13_Node000009_Node000007" class="edge">
<title>Node9&#45;&gt;Node7</title>
<g id="a_edge13_Node000009_Node000007"><a xlink:title=" ">
<path fill="none" stroke="#63b8ff" d="M290.66,-165.34C268.86,-156.27 235.22,-142.28 211.64,-132.47"/>
<polygon fill="#63b8ff" stroke="#63b8ff" points="213.25,-129.35 202.68,-128.74 210.57,-135.81 213.25,-129.35"/>
</a>
</g>
</g>
<!-- Node10&#45;&gt;Node4 -->
<g id="edge15_Node000010_Node000004" class="edge">
<title>Node10&#45;&gt;Node4</title>
<g id="a_edge15_Node000010_Node000004"><a xlink:title=" ">
<path fill="none" stroke="#63b8ff" d="M127.27,-165.56C131.99,-152.27 142.46,-126.91 158.38,-110.5 171,-97.49 188.23,-87.1 203.28,-79.62"/>
<polygon fill="#63b8ff" stroke="#63b8ff" points="204.35,-82.99 211.91,-75.57 201.37,-76.66 204.35,-82.99"/>
</a>
</g>
</g>
<!-- Node10&#45;&gt;Node7 -->
<g id="edge16_Node000010_Node000007" class="edge">
<title>Node10&#45;&gt;Node7</title>
<g id="a_edge16_Node000010_Node000007"><a xlink:title=" ">
<path fill="none" stroke="#63b8ff" d="M134.55,-165.34C143.14,-157.72 155.64,-146.62 165.98,-137.45"/>
<polygon fill="#63b8ff" stroke="#63b8ff" points="168.06,-140.29 173.22,-131.03 163.41,-135.05 168.06,-140.29"/>
</a>
</g>
</g>
<!-- Node11&#45;&gt;Node2 -->
<g id="edge18_Node000011_Node000002" class="edge">
<title>Node11&#45;&gt;Node2</title>
<g id="a_edge18_Node000011_Node000002"><a xlink:title=" ">
<path fill="none" stroke="#63b8ff" d="M46.75,-165.58C43.13,-158.69 37.95,-148.84 33.38,-140.16"/>
<polygon fill="#63b8ff" stroke="#63b8ff" points="36.56,-138.67 28.8,-131.45 30.36,-141.93 36.56,-138.67"/>
</a>
</g>
</g>
<!-- Node11&#45;&gt;Node7 -->
<g id="edge19_Node000011_Node000007" class="edge">
<title>Node11&#45;&gt;Node7</title>
<g id="a_edge19_Node000011_Node000007"><a xlink:title=" ">
<path fill="none" stroke="#63b8ff" d="M73.94,-165.34C96.95,-156.13 132.66,-141.83 157.2,-132"/>
<polygon fill="#63b8ff" stroke="#63b8ff" points="158.22,-135.37 166.21,-128.4 155.62,-128.87 158.22,-135.37"/>
</a>
</g>
</g>
</g>
</svg>
