<?xml version="1.0" encoding="UTF-8" standalone="no"?>
<!DOCTYPE svg PUBLIC "-//W3C//DTD SVG 1.1//EN"
 "http://www.w3.org/Graphics/SVG/1.1/DTD/svg11.dtd">
<!-- Generated by graphviz version 9.0.0 (20230911.1827)
 -->
<!-- Title: ee/debug/src/scr_printf.c Pages: 1 -->
<svg width="469pt" height="248pt"
 viewBox="0.00 0.00 468.50 248.25" xmlns="http://www.w3.org/2000/svg" xmlns:xlink="http://www.w3.org/1999/xlink">
<g id="graph0" class="graph" transform="scale(1 1) rotate(0) translate(4 244.25)">
<title>ee/debug/src/scr_printf.c</title>
<!-- Node1 -->
<g id="Node000001" class="node">
<title>Node1</title>
<g id="a_Node000001"><a xlink:title=" ">
<polygon fill="#999999" stroke="#666666" points="289.25,-240.25 166,-240.25 166,-221 289.25,-221 289.25,-240.25"/>
<text text-anchor="middle" x="227.62" y="-226.75" font-family="Helvetica,sans-Serif" font-size="10.00">ee/debug/src/scr_printf.c</text>
</a>
</g>
</g>
<!-- Node2 -->
<g id="Node000002" class="node">
<title>Node2</title>
<g id="a_Node000002"><a xlink:href="stdio_8h.html" target="_top" xlink:title=" ">
<polygon fill="white" stroke="#666666" points="92.88,-185 48.38,-185 48.38,-165.75 92.88,-165.75 92.88,-185"/>
<text text-anchor="middle" x="70.62" y="-171.5" font-family="Helvetica,sans-Serif" font-size="10.00">stdio.h</text>
</a>
</g>
</g>
<!-- Node1&#45;&gt;Node2 -->
<g id="edge1_Node000001_Node000002" class="edge">
<title>Node1&#45;&gt;Node2</title>
<g id="a_edge1_Node000001_Node000002"><a xlink:title=" ">
<path fill="none" stroke="#63b8ff" d="M200.99,-220.59C174.27,-211.53 133.03,-197.54 104.11,-187.73"/>
<polygon fill="#63b8ff" stroke="#63b8ff" points="105.33,-184.45 94.74,-184.55 103.08,-191.08 105.33,-184.45"/>
</a>
</g>
</g>
<!-- Node3 -->
<g id="Node000003" class="node">
<title>Node3</title>
<g id="a_Node000003"><a xlink:title=" ">
<polygon fill="#e0e0e0" stroke="#999999" points="101.88,-129.75 51.38,-129.75 51.38,-110.5 101.88,-110.5 101.88,-129.75"/>
<text text-anchor="middle" x="76.62" y="-116.25" font-family="Helvetica,sans-Serif" font-size="10.00">stdarg.h</text>
</a>
</g>
</g>
<!-- Node1&#45;&gt;Node3 -->
<g id="edge15_Node000001_Node000003" class="edge">
<title>Node1&#45;&gt;Node3</title>
<g id="a_edge15_Node000001_Node000003"><a xlink:title=" ">
<path fill="none" stroke="#63b8ff" d="M205.16,-220.64C186.67,-212.7 160.24,-200.05 139.62,-185 121.02,-171.42 102.89,-152.21 90.89,-138.41"/>
<polygon fill="#63b8ff" stroke="#63b8ff" points="93.75,-136.37 84.61,-131.01 88.42,-140.9 93.75,-136.37"/>
</a>
</g>
</g>
<!-- Node7 -->
<g id="Node000007" class="node">
<title>Node7</title>
<g id="a_Node000007"><a xlink:href="tamtypes_8h.html" target="_top" xlink:title=" ">
<polygon fill="white" stroke="#666666" points="205.25,-19.25 142,-19.25 142,0 205.25,0 205.25,-19.25"/>
<text text-anchor="middle" x="173.62" y="-5.75" font-family="Helvetica,sans-Serif" font-size="10.00">tamtypes.h</text>
</a>
</g>
</g>
<!-- Node1&#45;&gt;Node7 -->
<g id="edge7_Node000001_Node000007" class="edge">
<title>Node1&#45;&gt;Node7</title>
<g id="a_edge7_Node000001_Node000007"><a xlink:title=" ">
<path fill="none" stroke="#63b8ff" d="M228.32,-220.87C230.05,-194.63 232.86,-114.76 208.62,-55.25 204.56,-45.27 197.57,-35.66 190.9,-27.93"/>
<polygon fill="#63b8ff" stroke="#63b8ff" points="193.53,-25.62 184.17,-20.66 188.39,-30.37 193.53,-25.62"/>
</a>
</g>
</g>
<!-- Node8 -->
<g id="Node000008" class="node">
<title>Node8</title>
<g id="a_Node000008"><a xlink:title=" ">
<polygon fill="#e0e0e0" stroke="#999999" points="308,-185 255.25,-185 255.25,-165.75 308,-165.75 308,-185"/>
<text text-anchor="middle" x="281.62" y="-171.5" font-family="Helvetica,sans-Serif" font-size="10.00">sifcmd.h</text>
</a>
</g>
</g>
<!-- Node1&#45;&gt;Node8 -->
<g id="edge8_Node000001_Node000008" class="edge">
<title>Node1&#45;&gt;Node8</title>
<g id="a_edge8_Node000001_Node000008"><a xlink:title=" ">
<path fill="none" stroke="#63b8ff" d="M236.54,-220.83C244.08,-213.4 255.09,-202.54 264.35,-193.41"/>
<polygon fill="#63b8ff" stroke="#63b8ff" points="266.77,-195.94 271.44,-186.42 261.86,-190.95 266.77,-195.94"/>
</a>
</g>
</g>
<!-- Node9 -->
<g id="Node000009" class="node">
<title>Node9</title>
<g id="a_Node000009"><a xlink:href="kernel_8h.html" target="_top" xlink:title=" ">
<polygon fill="white" stroke="#666666" points="198.5,-185 148.75,-185 148.75,-165.75 198.5,-165.75 198.5,-185"/>
<text text-anchor="middle" x="173.62" y="-171.5" font-family="Helvetica,sans-Serif" font-size="10.00">kernel.h</text>
</a>
</g>
</g>
<!-- Node1&#45;&gt;Node9 -->
<g id="edge9_Node000001_Node000009" class="edge">
<title>Node1&#45;&gt;Node9</title>
<g id="a_edge9_Node000001_Node000009"><a xlink:title=" ">
<path fill="none" stroke="#63b8ff" d="M218.71,-220.83C211.17,-213.4 200.16,-202.54 190.9,-193.41"/>
<polygon fill="#63b8ff" stroke="#63b8ff" points="193.39,-190.95 183.81,-186.42 188.48,-195.94 193.39,-190.95"/>
</a>
</g>
</g>
<!-- Node11 -->
<g id="Node000011" class="node">
<title>Node11</title>
<g id="a_Node000011"><a xlink:href="rom0__info_8h.html" target="_top" xlink:title=" ">
<polygon fill="white" stroke="#666666" points="392.75,-185 326.5,-185 326.5,-165.75 392.75,-165.75 392.75,-185"/>
<text text-anchor="middle" x="359.62" y="-171.5" font-family="Helvetica,sans-Serif" font-size="10.00">rom0_info.h</text>
</a>
</g>
</g>
<!-- Node1&#45;&gt;Node11 -->
<g id="edge14_Node000001_Node000011" class="edge">
<title>Node1&#45;&gt;Node11</title>
<g id="a_edge14_Node000001_Node000011"><a xlink:title=" ">
<path fill="none" stroke="#63b8ff" d="M250.02,-220.59C271.07,-212.1 302.83,-199.29 326.75,-189.64"/>
<polygon fill="#63b8ff" stroke="#63b8ff" points="327.76,-193.01 335.72,-186.02 325.14,-186.51 327.76,-193.01"/>
</a>
</g>
</g>
<!-- Node12 -->
<g id="Node000012" class="node">
<title>Node12</title>
<g id="a_Node000012"><a xlink:title=" ">
<polygon fill="#e0e0e0" stroke="#999999" points="460.5,-185 410.75,-185 410.75,-165.75 460.5,-165.75 460.5,-185"/>
<text text-anchor="middle" x="435.62" y="-171.5" font-family="Helvetica,sans-Serif" font-size="10.00">debug.h</text>
</a>
</g>
</g>
<!-- Node1&#45;&gt;Node12 -->
<g id="edge16_Node000001_Node000012" class="edge">
<title>Node1&#45;&gt;Node12</title>
<g id="a_edge16_Node000001_Node000012"><a xlink:title=" ">
<path fill="none" stroke="#63b8ff" d="M262.91,-220.59C300.99,-210.84 361.32,-195.4 399.67,-185.58"/>
<polygon fill="#63b8ff" stroke="#63b8ff" points="400.05,-189.1 408.87,-183.22 398.31,-182.31 400.05,-189.1"/>
</a>
</g>
</g>
<!-- Node2&#45;&gt;Node3 -->
<g id="edge2_Node000002_Node000003" class="edge">
<title>Node2&#45;&gt;Node3</title>
<g id="a_edge2_Node000002_Node000003"><a xlink:title=" ">
<path fill="none" stroke="#63b8ff" d="M71.62,-165.58C72.36,-158.99 73.4,-149.71 74.35,-141.32"/>
<polygon fill="#63b8ff" stroke="#63b8ff" points="77.8,-141.94 75.44,-131.61 70.85,-141.16 77.8,-141.94"/>
</a>
</g>
</g>
<!-- Node4 -->
<g id="Node000004" class="node">
<title>Node4</title>
<g id="a_Node000004"><a xlink:href="irx_8h.html" target="_top" xlink:title=" ">
<polygon fill="white" stroke="#666666" points="33.25,-129.75 0,-129.75 0,-110.5 33.25,-110.5 33.25,-129.75"/>
<text text-anchor="middle" x="16.62" y="-116.25" font-family="Helvetica,sans-Serif" font-size="10.00">irx.h</text>
</a>
</g>
</g>
<!-- Node2&#45;&gt;Node4 -->
<g id="edge3_Node000002_Node000004" class="edge">
<title>Node2&#45;&gt;Node4</title>
<g id="a_edge3_Node000002_Node000004"><a xlink:title=" ">
<path fill="none" stroke="#63b8ff" d="M61.71,-165.58C54.17,-158.15 43.16,-147.29 33.9,-138.16"/>
<polygon fill="#63b8ff" stroke="#63b8ff" points="36.39,-135.7 26.81,-131.17 31.48,-140.69 36.39,-135.7"/>
</a>
</g>
</g>
<!-- Node5 -->
<g id="Node000005" class="node">
<title>Node5</title>
<g id="a_Node000005"><a xlink:href="iop_2kernel_2include_2types_8h_source.html" target="_top" xlink:title=" ">
<polygon fill="white" stroke="#666666" points="129,-74.5 82.25,-74.5 82.25,-55.25 129,-55.25 129,-74.5"/>
<text text-anchor="middle" x="105.62" y="-61" font-family="Helvetica,sans-Serif" font-size="10.00">types.h</text>
</a>
</g>
</g>
<!-- Node4&#45;&gt;Node5 -->
<g id="edge4_Node000004_Node000005" class="edge">
<title>Node4&#45;&gt;Node5</title>
<g id="a_edge4_Node000004_Node000005"><a xlink:title=" ">
<path fill="none" stroke="#63b8ff" d="M31.72,-110.09C45.15,-102.06 65.04,-90.16 80.8,-80.73"/>
<polygon fill="#63b8ff" stroke="#63b8ff" points="82.37,-83.87 89.15,-75.73 78.78,-77.86 82.37,-83.87"/>
</a>
</g>
</g>
<!-- Node6 -->
<g id="Node000006" class="node">
<title>Node6</title>
<g id="a_Node000006"><a xlink:title=" ">
<polygon fill="#e0e0e0" stroke="#999999" points="101.88,-19.25 51.38,-19.25 51.38,0 101.88,0 101.88,-19.25"/>
<text text-anchor="middle" x="76.62" y="-5.75" font-family="Helvetica,sans-Serif" font-size="10.00">stddef.h</text>
</a>
</g>
</g>
<!-- Node5&#45;&gt;Node6 -->
<g id="edge5_Node000005_Node000006" class="edge">
<title>Node5&#45;&gt;Node6</title>
<g id="a_edge5_Node000005_Node000006"><a xlink:title=" ">
<path fill="none" stroke="#63b8ff" d="M100.84,-55.08C97.08,-48.19 91.72,-38.34 86.99,-29.66"/>
<polygon fill="#63b8ff" stroke="#63b8ff" points="90.1,-28.05 82.24,-20.94 83.95,-31.39 90.1,-28.05"/>
</a>
</g>
</g>
<!-- Node5&#45;&gt;Node7 -->
<g id="edge6_Node000005_Node000007" class="edge">
<title>Node5&#45;&gt;Node7</title>
<g id="a_edge6_Node000005_Node000007"><a xlink:title=" ">
<path fill="none" stroke="#63b8ff" d="M117.16,-54.84C127.09,-47.07 141.64,-35.67 153.48,-26.4"/>
<polygon fill="#63b8ff" stroke="#63b8ff" points="155.35,-29.38 161.07,-20.46 151.04,-23.87 155.35,-29.38"/>
</a>
</g>
</g>
<!-- Node9&#45;&gt;Node3 -->
<g id="edge11_Node000009_Node000003" class="edge">
<title>Node9&#45;&gt;Node3</title>
<g id="a_edge11_Node000009_Node000003"><a xlink:title=" ">
<path fill="none" stroke="#63b8ff" d="M157.17,-165.34C142.4,-157.23 120.45,-145.18 103.19,-135.71"/>
<polygon fill="#63b8ff" stroke="#63b8ff" points="104.94,-132.68 94.49,-130.93 101.57,-138.81 104.94,-132.68"/>
</a>
</g>
</g>
<!-- Node9&#45;&gt;Node6 -->
<g id="edge10_Node000009_Node000006" class="edge">
<title>Node9&#45;&gt;Node6</title>
<g id="a_edge10_Node000009_Node000006"><a xlink:title=" ">
<path fill="none" stroke="#63b8ff" d="M165.12,-165.64C153.07,-153.29 130.3,-130.04 110.62,-110.5 94.35,-94.33 82.55,-95.64 73.62,-74.5 67.8,-60.7 68.95,-43.71 71.33,-30.72"/>
<polygon fill="#63b8ff" stroke="#63b8ff" points="74.69,-31.73 73.48,-21.21 67.87,-30.19 74.69,-31.73"/>
</a>
</g>
</g>
<!-- Node10 -->
<g id="Node000010" class="node">
<title>Node10</title>
<g id="a_Node000010"><a xlink:href="sifdma_8h.html" target="_top" xlink:title=" ">
<polygon fill="white" stroke="#666666" points="200,-74.5 147.25,-74.5 147.25,-55.25 200,-55.25 200,-74.5"/>
<text text-anchor="middle" x="173.62" y="-61" font-family="Helvetica,sans-Serif" font-size="10.00">sifdma.h</text>
</a>
</g>
</g>
<!-- Node9&#45;&gt;Node10 -->
<g id="edge12_Node000009_Node000010" class="edge">
<title>Node9&#45;&gt;Node10</title>
<g id="a_edge12_Node000009_Node000010"><a xlink:title=" ">
<path fill="none" stroke="#63b8ff" d="M173.62,-165.5C173.62,-148.25 173.62,-109.83 173.62,-86.06"/>
<polygon fill="#63b8ff" stroke="#63b8ff" points="177.13,-86.39 173.63,-76.39 170.13,-86.39 177.13,-86.39"/>
</a>
</g>
</g>
<!-- Node10&#45;&gt;Node7 -->
<g id="edge13_Node000010_Node000007" class="edge">
<title>Node10&#45;&gt;Node7</title>
<g id="a_edge13_Node000010_Node000007"><a xlink:title=" ">
<path fill="none" stroke="#63b8ff" d="M173.62,-55.08C173.62,-48.57 173.62,-39.42 173.62,-31.12"/>
<polygon fill="#63b8ff" stroke="#63b8ff" points="177.13,-31.12 173.63,-21.12 170.13,-31.12 177.13,-31.12"/>
</a>
</g>
</g>
</g>
</svg>
