<?xml version="1.0" encoding="UTF-8" standalone="no"?>
<!DOCTYPE svg PUBLIC "-//W3C//DTD SVG 1.1//EN"
 "http://www.w3.org/Graphics/SVG/1.1/DTD/svg11.dtd">
<!-- Generated by graphviz version 2.44.0 ()
 -->
<!-- Title: iop/kernel/include/secrman.h Pages: 1 -->
<svg width="181pt" height="263pt"
 viewBox="0.00 0.00 181.12 263.00" xmlns="http://www.w3.org/2000/svg" xmlns:xlink="http://www.w3.org/1999/xlink">
<g id="graph0" class="graph" transform="scale(1 1) rotate(0) translate(4 259)">
<title>iop/kernel/include/secrman.h</title>
<polygon fill="white" stroke="transparent" points="-4,4 -4,-259 177.12,-259 177.12,4 -4,4"/>
<!-- Node1 -->
<g id="node1" class="node">
<title>Node1</title>
<g id="a_node1"><a xlink:title=" ">
<polygon fill="#bfbfbf" stroke="black" points="3.62,-224.5 3.62,-254.5 95.62,-254.5 95.62,-224.5 3.62,-224.5"/>
<text text-anchor="start" x="11.62" y="-242.5" font-family="Helvetica,sans-Serif" font-size="10.00">iop/kernel/include</text>
<text text-anchor="middle" x="49.62" y="-231.5" font-family="Helvetica,sans-Serif" font-size="10.00">/secrman.h</text>
</a>
</g>
</g>
<!-- Node2 -->
<g id="node2" class="node">
<title>Node2</title>
<g id="a_node2"><a xlink:href="types_8h_source.html" target="_top" xlink:title=" ">
<polygon fill="white" stroke="black" points="4.12,-56.5 4.12,-75.5 51.12,-75.5 51.12,-56.5 4.12,-56.5"/>
<text text-anchor="middle" x="27.62" y="-63.5" font-family="Helvetica,sans-Serif" font-size="10.00">types.h</text>
</a>
</g>
</g>
<!-- Node1&#45;&gt;Node2 -->
<g id="edge1" class="edge">
<title>Node1&#45;&gt;Node2</title>
<path fill="none" stroke="midnightblue" d="M40.88,-224.36C29.22,-204.57 9.16,-167.1 1.62,-132 -0.25,-123.31 -0.68,-120.59 1.62,-112 4.27,-102.1 9.69,-92.13 14.89,-84.1"/>
<polygon fill="midnightblue" stroke="midnightblue" points="17.91,-85.89 20.73,-75.68 12.15,-81.91 17.91,-85.89"/>
</g>
<!-- Node5 -->
<g id="node5" class="node">
<title>Node5</title>
<g id="a_node5"><a xlink:href="irx_8h.html" target="_top" xlink:title=" ">
<polygon fill="white" stroke="black" points="10.62,-112.5 10.62,-131.5 44.62,-131.5 44.62,-112.5 10.62,-112.5"/>
<text text-anchor="middle" x="27.62" y="-119.5" font-family="Helvetica,sans-Serif" font-size="10.00">irx.h</text>
</a>
</g>
</g>
<!-- Node1&#45;&gt;Node5 -->
<g id="edge4" class="edge">
<title>Node1&#45;&gt;Node5</title>
<path fill="none" stroke="midnightblue" d="M46.92,-224.34C42.96,-203.53 35.55,-164.66 31.16,-141.58"/>
<polygon fill="midnightblue" stroke="midnightblue" points="34.58,-140.84 29.27,-131.67 27.7,-142.15 34.58,-140.84"/>
</g>
<!-- Node6 -->
<g id="node6" class="node">
<title>Node6</title>
<g id="a_node6"><a xlink:href="sio2man_8h.html" target="_top" xlink:title=" ">
<polygon fill="white" stroke="black" points="49.12,-168.5 49.12,-187.5 110.12,-187.5 110.12,-168.5 49.12,-168.5"/>
<text text-anchor="middle" x="79.62" y="-175.5" font-family="Helvetica,sans-Serif" font-size="10.00">sio2man.h</text>
</a>
</g>
</g>
<!-- Node1&#45;&gt;Node6 -->
<g id="edge6" class="edge">
<title>Node1&#45;&gt;Node6</title>
<path fill="none" stroke="midnightblue" d="M56.73,-224.4C60.91,-216.11 66.23,-205.55 70.69,-196.71"/>
<polygon fill="midnightblue" stroke="midnightblue" points="73.88,-198.16 75.25,-187.66 67.63,-195.01 73.88,-198.16"/>
</g>
<!-- Node8 -->
<g id="node8" class="node">
<title>Node8</title>
<g id="a_node8"><a xlink:href="libsecr-common_8h.html" target="_top" xlink:title=" ">
<polygon fill="white" stroke="black" points="80.12,-56.5 80.12,-75.5 173.12,-75.5 173.12,-56.5 80.12,-56.5"/>
<text text-anchor="middle" x="126.62" y="-63.5" font-family="Helvetica,sans-Serif" font-size="10.00">libsecr&#45;common.h</text>
</a>
</g>
</g>
<!-- Node1&#45;&gt;Node8 -->
<g id="edge9" class="edge">
<title>Node1&#45;&gt;Node8</title>
<path fill="none" stroke="midnightblue" d="M80.21,-224.44C94.78,-216.05 110.9,-203.9 119.62,-188 137.44,-155.52 134.06,-110.5 130.21,-85.54"/>
<polygon fill="midnightblue" stroke="midnightblue" points="133.64,-84.85 128.48,-75.6 126.75,-86.05 133.64,-84.85"/>
</g>
<!-- Node3 -->
<g id="node3" class="node">
<title>Node3</title>
<g id="a_node3"><a xlink:title=" ">
<polygon fill="white" stroke="#bfbfbf" points="2.12,-0.5 2.12,-19.5 53.12,-19.5 53.12,-0.5 2.12,-0.5"/>
<text text-anchor="middle" x="27.62" y="-7.5" font-family="Helvetica,sans-Serif" font-size="10.00">stddef.h</text>
</a>
</g>
</g>
<!-- Node2&#45;&gt;Node3 -->
<g id="edge2" class="edge">
<title>Node2&#45;&gt;Node3</title>
<path fill="none" stroke="midnightblue" d="M27.62,-56.08C27.62,-49.01 27.62,-38.86 27.62,-29.99"/>
<polygon fill="midnightblue" stroke="midnightblue" points="31.12,-29.75 27.62,-19.75 24.12,-29.75 31.12,-29.75"/>
</g>
<!-- Node4 -->
<g id="node4" class="node">
<title>Node4</title>
<g id="a_node4"><a xlink:href="tamtypes_8h.html" target="_top" xlink:title=" ">
<polygon fill="white" stroke="black" points="77.62,-0.5 77.62,-19.5 141.62,-19.5 141.62,-0.5 77.62,-0.5"/>
<text text-anchor="middle" x="109.62" y="-7.5" font-family="Helvetica,sans-Serif" font-size="10.00">tamtypes.h</text>
</a>
</g>
</g>
<!-- Node2&#45;&gt;Node4 -->
<g id="edge3" class="edge">
<title>Node2&#45;&gt;Node4</title>
<path fill="none" stroke="midnightblue" d="M40.79,-56.32C53.46,-47.98 72.85,-35.21 87.82,-25.35"/>
<polygon fill="midnightblue" stroke="midnightblue" points="90.05,-28.08 96.48,-19.65 86.2,-22.23 90.05,-28.08"/>
</g>
<!-- Node5&#45;&gt;Node2 -->
<g id="edge5" class="edge">
<title>Node5&#45;&gt;Node2</title>
<path fill="none" stroke="midnightblue" d="M27.62,-112.08C27.62,-105.01 27.62,-94.86 27.62,-85.99"/>
<polygon fill="midnightblue" stroke="midnightblue" points="31.12,-85.75 27.62,-75.75 24.12,-85.75 31.12,-85.75"/>
</g>
<!-- Node6&#45;&gt;Node5 -->
<g id="edge8" class="edge">
<title>Node6&#45;&gt;Node5</title>
<path fill="none" stroke="midnightblue" d="M71.03,-168.08C63.46,-160.22 52.24,-148.57 43.1,-139.08"/>
<polygon fill="midnightblue" stroke="midnightblue" points="45.5,-136.53 36.04,-131.75 40.46,-141.38 45.5,-136.53"/>
</g>
<!-- Node7 -->
<g id="node7" class="node">
<title>Node7</title>
<g id="a_node7"><a xlink:title=" ">
<polygon fill="white" stroke="#bfbfbf" points="63.12,-112.5 63.12,-131.5 110.12,-131.5 110.12,-112.5 63.12,-112.5"/>
<text text-anchor="middle" x="86.62" y="-119.5" font-family="Helvetica,sans-Serif" font-size="10.00">types.h</text>
</a>
</g>
</g>
<!-- Node6&#45;&gt;Node7 -->
<g id="edge7" class="edge">
<title>Node6&#45;&gt;Node7</title>
<path fill="none" stroke="midnightblue" d="M80.77,-168.08C81.7,-160.93 83.04,-150.64 84.2,-141.69"/>
<polygon fill="midnightblue" stroke="midnightblue" points="87.67,-142.12 85.48,-131.75 80.73,-141.22 87.67,-142.12"/>
</g>
<!-- Node8&#45;&gt;Node4 -->
<g id="edge10" class="edge">
<title>Node8&#45;&gt;Node4</title>
<path fill="none" stroke="midnightblue" d="M123.81,-56.08C121.53,-48.85 118.25,-38.41 115.41,-29.4"/>
<polygon fill="midnightblue" stroke="midnightblue" points="118.71,-28.24 112.37,-19.75 112.04,-30.34 118.71,-28.24"/>
</g>
</g>
</svg>
