<?xml version="1.0" encoding="UTF-8" standalone="no"?>
<!DOCTYPE svg PUBLIC "-//W3C//DTD SVG 1.1//EN"
 "http://www.w3.org/Graphics/SVG/1.1/DTD/svg11.dtd">
<!-- Generated by graphviz version 12.2.0 (20241103.1931)
 -->
<!-- Title: iop/security/secrman/include/secrman.h Pages: 1 -->
<svg width="228pt" height="260pt"
 viewBox="0.00 0.00 227.62 259.50" xmlns="http://www.w3.org/2000/svg" xmlns:xlink="http://www.w3.org/1999/xlink">

<svg id="main" version="1.1" xmlns="http://www.w3.org/2000/svg" xmlns:xlink="http://www.w3.org/1999/xlink" xml:space="preserve">

<style type="text/css"><![CDATA[
.node, .edge {opacity: 0.7;}
.node.selected, .edge.selected {opacity: 1;}
.edge:hover path { stroke: red; }
.edge:hover polygon { stroke: red; fill: red; }
]]></style>
<script type="application/ecmascript" xlink:href="svg.min.js"/>
<svg id="graph" class="graph">
<g id="graph0" class="graph" transform="scale(1 1) rotate(0) translate(4 255.5)">
<title>iop/security/secrman/include/secrman.h</title>
<!-- Node1 -->
<g id="Node000001" class="node">
<title>Node1</title>
<g id="a_Node000001"><a xlink:title=" ">
<polygon fill="#999999" stroke="#666666" points="159.38,-251.5 53.38,-251.5 53.38,-221 159.38,-221 159.38,-251.5"/>
<text text-anchor="start" x="61.38" y="-238" font-family="Helvetica,sans-Serif" font-size="10.00">iop/security/secrman</text>
<text text-anchor="middle" x="106.38" y="-226.75" font-family="Helvetica,sans-Serif" font-size="10.00">/include/secrman.h</text>
</a>
</g>
</g>
<!-- Node2 -->
<g id="Node000002" class="node">
<title>Node2</title>
<g id="a_Node000002"><a xlink:title=" ">
<polygon fill="#e0e0e0" stroke="#999999" points="46.75,-129.75 0,-129.75 0,-110.5 46.75,-110.5 46.75,-129.75"/>
<text text-anchor="middle" x="23.38" y="-116.25" font-family="Helvetica,sans-Serif" font-size="10.00">types.h</text>
</a>
</g>
</g>
<!-- Node1&#45;&gt;Node2 -->
<g id="edge1_Node000001_Node000002" class="edge">
<title>Node1&#45;&gt;Node2</title>
<g id="a_edge1_Node000001_Node000002"><a xlink:title=" ">
<path fill="none" stroke="#63b8ff" d="M78.08,-220.65C64.13,-212.07 48.23,-199.96 38.38,-185 29.83,-172.02 26.13,-154.74 24.54,-141.43"/>
<polygon fill="#63b8ff" stroke="#63b8ff" points="28.04,-141.32 23.7,-131.65 21.07,-141.91 28.04,-141.32"/>
</a>
</g>
</g>
<!-- Node3 -->
<g id="Node000003" class="node">
<title>Node3</title>
<g id="a_Node000003"><a xlink:href="irx_8h.html" target="_top" xlink:title=" ">
<polygon fill="white" stroke="#666666" points="102,-129.75 68.75,-129.75 68.75,-110.5 102,-110.5 102,-129.75"/>
<text text-anchor="middle" x="85.38" y="-116.25" font-family="Helvetica,sans-Serif" font-size="10.00">irx.h</text>
</a>
</g>
</g>
<!-- Node1&#45;&gt;Node3 -->
<g id="edge2_Node000001_Node000003" class="edge">
<title>Node1&#45;&gt;Node3</title>
<g id="a_edge2_Node000001_Node000003"><a xlink:title=" ">
<path fill="none" stroke="#63b8ff" d="M112.18,-220.57C116.97,-206.3 122.13,-184.13 116.38,-165.75 113.32,-156 107.31,-146.52 101.38,-138.82"/>
<polygon fill="#63b8ff" stroke="#63b8ff" points="104.2,-136.74 95.12,-131.29 98.82,-141.22 104.2,-136.74"/>
</a>
</g>
</g>
<!-- Node7 -->
<g id="Node000007" class="node">
<title>Node7</title>
<g id="a_Node000007"><a xlink:href="sio2man_8h.html" target="_top" xlink:title=" ">
<polygon fill="white" stroke="#666666" points="107.5,-185 47.25,-185 47.25,-165.75 107.5,-165.75 107.5,-185"/>
<text text-anchor="middle" x="77.38" y="-171.5" font-family="Helvetica,sans-Serif" font-size="10.00">sio2man.h</text>
</a>
</g>
</g>
<!-- Node1&#45;&gt;Node7 -->
<g id="edge6_Node000001_Node000007" class="edge">
<title>Node1&#45;&gt;Node7</title>
<g id="a_edge6_Node000001_Node000007"><a xlink:title=" ">
<path fill="none" stroke="#63b8ff" d="M99.21,-220.7C95.47,-213.11 90.85,-203.74 86.83,-195.57"/>
<polygon fill="#63b8ff" stroke="#63b8ff" points="90.07,-194.23 82.51,-186.81 83.79,-197.33 90.07,-194.23"/>
</a>
</g>
</g>
<!-- Node8 -->
<g id="Node000008" class="node">
<title>Node8</title>
<g id="a_Node000008"><a xlink:href="libsecr-common_8h.html" target="_top" xlink:title=" ">
<polygon fill="white" stroke="#666666" points="219.62,-74.5 127.12,-74.5 127.12,-55.25 219.62,-55.25 219.62,-74.5"/>
<text text-anchor="middle" x="173.38" y="-61" font-family="Helvetica,sans-Serif" font-size="10.00">libsecr&#45;common.h</text>
</a>
</g>
</g>
<!-- Node1&#45;&gt;Node8 -->
<g id="edge9_Node000001_Node000008" class="edge">
<title>Node1&#45;&gt;Node8</title>
<g id="a_edge9_Node000001_Node000008"><a xlink:title=" ">
<path fill="none" stroke="#63b8ff" d="M114.3,-220.52C119.48,-210.62 126.21,-197.2 131.38,-185 145.86,-150.78 159.57,-109.66 167.19,-85.78"/>
<polygon fill="#63b8ff" stroke="#63b8ff" points="170.46,-87.02 170.13,-76.43 163.79,-84.92 170.46,-87.02"/>
</a>
</g>
</g>
<!-- Node4 -->
<g id="Node000004" class="node">
<title>Node4</title>
<g id="a_Node000004"><a xlink:href="iop_2kernel_2include_2types_8h_source.html" target="_top" xlink:title=" ">
<polygon fill="white" stroke="#666666" points="108.75,-74.5 62,-74.5 62,-55.25 108.75,-55.25 108.75,-74.5"/>
<text text-anchor="middle" x="85.38" y="-61" font-family="Helvetica,sans-Serif" font-size="10.00">types.h</text>
</a>
</g>
</g>
<!-- Node3&#45;&gt;Node4 -->
<g id="edge3_Node000003_Node000004" class="edge">
<title>Node3&#45;&gt;Node4</title>
<g id="a_edge3_Node000003_Node000004"><a xlink:title=" ">
<path fill="none" stroke="#63b8ff" d="M85.38,-110.33C85.38,-103.82 85.38,-94.67 85.38,-86.37"/>
<polygon fill="#63b8ff" stroke="#63b8ff" points="88.88,-86.37 85.38,-76.37 81.88,-86.37 88.88,-86.37"/>
</a>
</g>
</g>
<!-- Node5 -->
<g id="Node000005" class="node">
<title>Node5</title>
<g id="a_Node000005"><a xlink:title=" ">
<polygon fill="#e0e0e0" stroke="#999999" points="110.62,-19.25 60.12,-19.25 60.12,0 110.62,0 110.62,-19.25"/>
<text text-anchor="middle" x="85.38" y="-5.75" font-family="Helvetica,sans-Serif" font-size="10.00">stddef.h</text>
</a>
</g>
</g>
<!-- Node4&#45;&gt;Node5 -->
<g id="edge4_Node000004_Node000005" class="edge">
<title>Node4&#45;&gt;Node5</title>
<g id="a_edge4_Node000004_Node000005"><a xlink:title=" ">
<path fill="none" stroke="#63b8ff" d="M85.38,-55.08C85.38,-48.57 85.38,-39.42 85.38,-31.12"/>
<polygon fill="#63b8ff" stroke="#63b8ff" points="88.88,-31.12 85.38,-21.12 81.88,-31.12 88.88,-31.12"/>
</a>
</g>
</g>
<!-- Node6 -->
<g id="Node000006" class="node">
<title>Node6</title>
<g id="a_Node000006"><a xlink:href="tamtypes_8h.html" target="_top" xlink:title=" ">
<polygon fill="white" stroke="#666666" points="198,-19.25 134.75,-19.25 134.75,0 198,0 198,-19.25"/>
<text text-anchor="middle" x="166.38" y="-5.75" font-family="Helvetica,sans-Serif" font-size="10.00">tamtypes.h</text>
</a>
</g>
</g>
<!-- Node4&#45;&gt;Node6 -->
<g id="edge5_Node000004_Node000006" class="edge">
<title>Node4&#45;&gt;Node6</title>
<g id="a_edge5_Node000004_Node000006"><a xlink:title=" ">
<path fill="none" stroke="#63b8ff" d="M99.12,-54.84C111.1,-46.96 128.75,-35.36 142.96,-26.02"/>
<polygon fill="#63b8ff" stroke="#63b8ff" points="144.87,-28.95 151.3,-20.53 141.02,-23.1 144.87,-28.95"/>
</a>
</g>
</g>
<!-- Node7&#45;&gt;Node2 -->
<g id="edge7_Node000007_Node000002" class="edge">
<title>Node7&#45;&gt;Node2</title>
<g id="a_edge7_Node000007_Node000002"><a xlink:title=" ">
<path fill="none" stroke="#63b8ff" d="M68.46,-165.58C60.92,-158.15 49.91,-147.29 40.65,-138.16"/>
<polygon fill="#63b8ff" stroke="#63b8ff" points="43.14,-135.7 33.56,-131.17 38.23,-140.69 43.14,-135.7"/>
</a>
</g>
</g>
<!-- Node7&#45;&gt;Node3 -->
<g id="edge8_Node000007_Node000003" class="edge">
<title>Node7&#45;&gt;Node3</title>
<g id="a_edge8_Node000007_Node000003"><a xlink:title=" ">
<path fill="none" stroke="#63b8ff" d="M78.7,-165.58C79.69,-158.99 81.08,-149.71 82.34,-141.32"/>
<polygon fill="#63b8ff" stroke="#63b8ff" points="85.78,-142.01 83.8,-131.61 78.85,-140.97 85.78,-142.01"/>
</a>
</g>
</g>
<!-- Node8&#45;&gt;Node6 -->
<g id="edge10_Node000008_Node000006" class="edge">
<title>Node8&#45;&gt;Node6</title>
<g id="a_edge10_Node000008_Node000006"><a xlink:title=" ">
<path fill="none" stroke="#63b8ff" d="M172.22,-55.08C171.35,-48.49 170.13,-39.21 169.03,-30.82"/>
<polygon fill="#63b8ff" stroke="#63b8ff" points="172.53,-30.57 167.75,-21.11 165.59,-31.48 172.53,-30.57"/>
</a>
</g>
</g>
</g>
</svg>
</svg>

<style type='text/css'>
<![CDATA[
[data-mouse-over-selected='false'] { opacity: 0.7; }
[data-mouse-over-selected='true']  { opacity: 1.0; }
]]>
</style>
<script type="application/ecmascript"><![CDATA[
document.addEventListener('DOMContentLoaded', (event) => {
  highlightEdges();
  highlightAdjacentNodes();
});
]]></script>
</svg>
