<?xml version="1.0" encoding="UTF-8" standalone="no"?>
<!DOCTYPE svg PUBLIC "-//W3C//DTD SVG 1.1//EN"
 "http://www.w3.org/Graphics/SVG/1.1/DTD/svg11.dtd">
<!-- Generated by graphviz version 2.43.0 (0)
 -->
<!-- Title: iop/system/siftoo/include/siftoo.h Pages: 1 -->
<svg width="187pt" height="207pt"
 viewBox="0.00 0.00 186.50 207.00" xmlns="http://www.w3.org/2000/svg" xmlns:xlink="http://www.w3.org/1999/xlink">
<g id="graph0" class="graph" transform="scale(1 1) rotate(0) translate(4 203)">
<title>iop/system/siftoo/include/siftoo.h</title>
<polygon fill="white" stroke="transparent" points="-4,4 -4,-203 182.5,-203 182.5,4 -4,4"/>
<!-- Node1 -->
<g id="node1" class="node">
<title>Node1</title>
<g id="a_node1"><a xlink:title=" ">
<polygon fill="#bfbfbf" stroke="black" points="0,-168.5 0,-198.5 139,-198.5 139,-168.5 0,-168.5"/>
<text text-anchor="start" x="8" y="-186.5" font-family="Helvetica,sans-Serif" font-size="10.00">iop/system/siftoo/include</text>
<text text-anchor="middle" x="69.5" y="-175.5" font-family="Helvetica,sans-Serif" font-size="10.00">/siftoo.h</text>
</a>
</g>
</g>
<!-- Node2 -->
<g id="node2" class="node">
<title>Node2</title>
<g id="a_node2"><a xlink:title=" ">
<polygon fill="white" stroke="#bfbfbf" points="11,-112.5 11,-131.5 64,-131.5 64,-112.5 11,-112.5"/>
<text text-anchor="middle" x="37.5" y="-119.5" font-family="Helvetica,sans-Serif" font-size="10.00">types.h</text>
</a>
</g>
</g>
<!-- Node1&#45;&gt;Node2 -->
<g id="edge1" class="edge">
<title>Node1&#45;&gt;Node2</title>
<path fill="none" stroke="midnightblue" d="M61.92,-168.4C57.46,-160.11 51.78,-149.55 47.02,-140.71"/>
<polygon fill="midnightblue" stroke="midnightblue" points="49.98,-138.81 42.16,-131.66 43.81,-142.12 49.98,-138.81"/>
</g>
<!-- Node3 -->
<g id="node3" class="node">
<title>Node3</title>
<g id="a_node3"><a xlink:href="irx_8h.html" target="_top" xlink:title=" ">
<polygon fill="white" stroke="black" points="82.5,-112.5 82.5,-131.5 120.5,-131.5 120.5,-112.5 82.5,-112.5"/>
<text text-anchor="middle" x="101.5" y="-119.5" font-family="Helvetica,sans-Serif" font-size="10.00">irx.h</text>
</a>
</g>
</g>
<!-- Node1&#45;&gt;Node3 -->
<g id="edge2" class="edge">
<title>Node1&#45;&gt;Node3</title>
<path fill="none" stroke="midnightblue" d="M77.08,-168.4C81.54,-160.11 87.22,-149.55 91.98,-140.71"/>
<polygon fill="midnightblue" stroke="midnightblue" points="95.19,-142.12 96.84,-131.66 89.02,-138.81 95.19,-142.12"/>
</g>
<!-- Node4 -->
<g id="node4" class="node">
<title>Node4</title>
<g id="a_node4"><a xlink:href="iop_2kernel_2include_2types_8h_source.html" target="_top" xlink:title=" ">
<polygon fill="white" stroke="black" points="75,-56.5 75,-75.5 128,-75.5 128,-56.5 75,-56.5"/>
<text text-anchor="middle" x="101.5" y="-63.5" font-family="Helvetica,sans-Serif" font-size="10.00">types.h</text>
</a>
</g>
</g>
<!-- Node3&#45;&gt;Node4 -->
<g id="edge3" class="edge">
<title>Node3&#45;&gt;Node4</title>
<path fill="none" stroke="midnightblue" d="M101.5,-112.08C101.5,-105.01 101.5,-94.86 101.5,-85.99"/>
<polygon fill="midnightblue" stroke="midnightblue" points="105,-85.75 101.5,-75.75 98,-85.75 105,-85.75"/>
</g>
<!-- Node5 -->
<g id="node5" class="node">
<title>Node5</title>
<g id="a_node5"><a xlink:title=" ">
<polygon fill="white" stroke="#bfbfbf" points="32.5,-0.5 32.5,-19.5 88.5,-19.5 88.5,-0.5 32.5,-0.5"/>
<text text-anchor="middle" x="60.5" y="-7.5" font-family="Helvetica,sans-Serif" font-size="10.00">stddef.h</text>
</a>
</g>
</g>
<!-- Node4&#45;&gt;Node5 -->
<g id="edge4" class="edge">
<title>Node4&#45;&gt;Node5</title>
<path fill="none" stroke="midnightblue" d="M94.73,-56.08C88.94,-48.46 80.44,-37.26 73.36,-27.94"/>
<polygon fill="midnightblue" stroke="midnightblue" points="75.98,-25.6 67.14,-19.75 70.4,-29.83 75.98,-25.6"/>
</g>
<!-- Node6 -->
<g id="node6" class="node">
<title>Node6</title>
<g id="a_node6"><a xlink:href="tamtypes_8h.html" target="_top" xlink:title=" ">
<polygon fill="white" stroke="black" points="106.5,-0.5 106.5,-19.5 178.5,-19.5 178.5,-0.5 106.5,-0.5"/>
<text text-anchor="middle" x="142.5" y="-7.5" font-family="Helvetica,sans-Serif" font-size="10.00">tamtypes.h</text>
</a>
</g>
</g>
<!-- Node4&#45;&gt;Node6 -->
<g id="edge5" class="edge">
<title>Node4&#45;&gt;Node6</title>
<path fill="none" stroke="midnightblue" d="M108.27,-56.08C114.06,-48.46 122.56,-37.26 129.64,-27.94"/>
<polygon fill="midnightblue" stroke="midnightblue" points="132.6,-29.83 135.86,-19.75 127.02,-25.6 132.6,-29.83"/>
</g>
</g>
</svg>
