<?xml version="1.0" encoding="UTF-8" standalone="no"?>
<!DOCTYPE svg PUBLIC "-//W3C//DTD SVG 1.1//EN"
 "http://www.w3.org/Graphics/SVG/1.1/DTD/svg11.dtd">
<!-- Generated by graphviz version 2.43.0 (0)
 -->
<!-- Title: iop/system/padman/src/sio2Cmds.h Pages: 1 -->
<svg width="884pt" height="106pt"
 viewBox="0.00 0.00 884.00 106.00" xmlns="http://www.w3.org/2000/svg" xmlns:xlink="http://www.w3.org/1999/xlink">
<g id="graph0" class="graph" transform="scale(1 1) rotate(0) translate(4 102)">
<title>iop/system/padman/src/sio2Cmds.h</title>
<polygon fill="white" stroke="transparent" points="-4,4 -4,-102 880,-102 880,4 -4,4"/>
<!-- Node1 -->
<g id="node1" class="node">
<title>Node1</title>
<g id="a_node1"><a xlink:title=" ">
<polygon fill="#bfbfbf" stroke="black" points="372,-67.5 372,-97.5 503,-97.5 503,-67.5 372,-67.5"/>
<text text-anchor="start" x="380" y="-85.5" font-family="Helvetica,sans-Serif" font-size="10.00">iop/system/padman/src</text>
<text text-anchor="middle" x="437.5" y="-74.5" font-family="Helvetica,sans-Serif" font-size="10.00">/sio2Cmds.h</text>
</a>
</g>
</g>
<!-- Node2 -->
<g id="node2" class="node">
<title>Node2</title>
<g id="a_node2"><a xlink:href="pad_cmds_8c.html" target="_top" xlink:title=" ">
<polygon fill="white" stroke="black" points="0,-0.5 0,-30.5 131,-30.5 131,-0.5 0,-0.5"/>
<text text-anchor="start" x="8" y="-18.5" font-family="Helvetica,sans-Serif" font-size="10.00">iop/system/padman/src</text>
<text text-anchor="middle" x="65.5" y="-7.5" font-family="Helvetica,sans-Serif" font-size="10.00">/padCmds.c</text>
</a>
</g>
</g>
<!-- Node1&#45;&gt;Node2 -->
<g id="edge1" class="edge">
<title>Node1&#45;&gt;Node2</title>
<path fill="none" stroke="midnightblue" d="M361.53,-69.18C301.25,-59.27 214.89,-44.77 139.5,-31 136.8,-30.51 134.04,-30 131.25,-29.47"/>
<polygon fill="midnightblue" stroke="midnightblue" points="361.29,-72.68 371.72,-70.85 362.42,-65.78 361.29,-72.68"/>
</g>
<!-- Node3 -->
<g id="node3" class="node">
<title>Node3</title>
<g id="a_node3"><a xlink:href="pad_data_8c.html" target="_top" xlink:title=" ">
<polygon fill="white" stroke="black" points="149,-0.5 149,-30.5 280,-30.5 280,-0.5 149,-0.5"/>
<text text-anchor="start" x="157" y="-18.5" font-family="Helvetica,sans-Serif" font-size="10.00">iop/system/padman/src</text>
<text text-anchor="middle" x="214.5" y="-7.5" font-family="Helvetica,sans-Serif" font-size="10.00">/padData.c</text>
</a>
</g>
</g>
<!-- Node1&#45;&gt;Node3 -->
<g id="edge2" class="edge">
<title>Node1&#45;&gt;Node3</title>
<path fill="none" stroke="midnightblue" d="M379.45,-64.58C343.23,-54.02 297.15,-40.59 262.91,-30.61"/>
<polygon fill="midnightblue" stroke="midnightblue" points="378.81,-68.04 389.39,-67.48 380.77,-61.32 378.81,-68.04"/>
</g>
<!-- Node4 -->
<g id="node4" class="node">
<title>Node4</title>
<g id="a_node4"><a xlink:href="pad_init_8c.html" target="_top" xlink:title=" ">
<polygon fill="white" stroke="black" points="298,-0.5 298,-30.5 429,-30.5 429,-0.5 298,-0.5"/>
<text text-anchor="start" x="306" y="-18.5" font-family="Helvetica,sans-Serif" font-size="10.00">iop/system/padman/src</text>
<text text-anchor="middle" x="363.5" y="-7.5" font-family="Helvetica,sans-Serif" font-size="10.00">/padInit.c</text>
</a>
</g>
</g>
<!-- Node1&#45;&gt;Node4 -->
<g id="edge3" class="edge">
<title>Node1&#45;&gt;Node4</title>
<path fill="none" stroke="midnightblue" d="M413.7,-60.6C402.53,-50.78 389.51,-39.34 379.53,-30.58"/>
<polygon fill="midnightblue" stroke="midnightblue" points="411.62,-63.43 421.44,-67.4 416.24,-58.17 411.62,-63.43"/>
</g>
<!-- Node5 -->
<g id="node5" class="node">
<title>Node5</title>
<g id="a_node5"><a xlink:href="pad_misc_funcs_8c.html" target="_top" xlink:title=" ">
<polygon fill="white" stroke="black" points="447,-0.5 447,-30.5 578,-30.5 578,-0.5 447,-0.5"/>
<text text-anchor="start" x="455" y="-18.5" font-family="Helvetica,sans-Serif" font-size="10.00">iop/system/padman/src</text>
<text text-anchor="middle" x="512.5" y="-7.5" font-family="Helvetica,sans-Serif" font-size="10.00">/padMiscFuncs.c</text>
</a>
</g>
</g>
<!-- Node1&#45;&gt;Node5 -->
<g id="edge4" class="edge">
<title>Node1&#45;&gt;Node5</title>
<path fill="none" stroke="midnightblue" d="M461.62,-60.6C472.94,-50.78 486.14,-39.34 496.26,-30.58"/>
<polygon fill="midnightblue" stroke="midnightblue" points="459.04,-58.2 453.77,-67.4 463.62,-63.49 459.04,-58.2"/>
</g>
<!-- Node6 -->
<g id="node6" class="node">
<title>Node6</title>
<g id="a_node6"><a xlink:href="pad_port_open_8c.html" target="_top" xlink:title=" ">
<polygon fill="white" stroke="black" points="596,-0.5 596,-30.5 727,-30.5 727,-0.5 596,-0.5"/>
<text text-anchor="start" x="604" y="-18.5" font-family="Helvetica,sans-Serif" font-size="10.00">iop/system/padman/src</text>
<text text-anchor="middle" x="661.5" y="-7.5" font-family="Helvetica,sans-Serif" font-size="10.00">/padPortOpen.c</text>
</a>
</g>
</g>
<!-- Node1&#45;&gt;Node6 -->
<g id="edge5" class="edge">
<title>Node1&#45;&gt;Node6</title>
<path fill="none" stroke="midnightblue" d="M495.81,-64.58C532.19,-54.02 578.47,-40.59 612.87,-30.61"/>
<polygon fill="midnightblue" stroke="midnightblue" points="494.46,-61.33 485.83,-67.48 496.41,-68.05 494.46,-61.33"/>
</g>
<!-- Node7 -->
<g id="node7" class="node">
<title>Node7</title>
<g id="a_node7"><a xlink:href="sio2_cmds_8c.html" target="_top" xlink:title=" ">
<polygon fill="white" stroke="black" points="745,-0.5 745,-30.5 876,-30.5 876,-0.5 745,-0.5"/>
<text text-anchor="start" x="753" y="-18.5" font-family="Helvetica,sans-Serif" font-size="10.00">iop/system/padman/src</text>
<text text-anchor="middle" x="810.5" y="-7.5" font-family="Helvetica,sans-Serif" font-size="10.00">/sio2Cmds.c</text>
</a>
</g>
</g>
<!-- Node1&#45;&gt;Node7 -->
<g id="edge6" class="edge">
<title>Node1&#45;&gt;Node7</title>
<path fill="none" stroke="midnightblue" d="M513.43,-69.24C573.93,-59.33 660.74,-44.82 736.5,-31 739.2,-30.51 741.96,-30 744.75,-29.48"/>
<polygon fill="midnightblue" stroke="midnightblue" points="512.51,-65.84 503.21,-70.91 513.64,-72.75 512.51,-65.84"/>
</g>
</g>
</svg>
