<?xml version="1.0" encoding="UTF-8" standalone="no"?>
<!DOCTYPE svg PUBLIC "-//W3C//DTD SVG 1.1//EN"
 "http://www.w3.org/Graphics/SVG/1.1/DTD/svg11.dtd">
<!-- Generated by graphviz version 2.43.0 (0)
 -->
<!-- Title: iop/sio/sio2man/include/sio2man.h Pages: 1 -->
<svg width="2013pt" height="240pt"
 viewBox="0.00 0.00 2013.00 240.00" xmlns="http://www.w3.org/2000/svg" xmlns:xlink="http://www.w3.org/1999/xlink">
<g id="graph0" class="graph" transform="scale(1 1) rotate(0) translate(4 236)">
<title>iop/sio/sio2man/include/sio2man.h</title>
<polygon fill="white" stroke="transparent" points="-4,4 -4,-236 2009,-236 2009,4 -4,4"/>
<!-- Node1 -->
<g id="node1" class="node">
<title>Node1</title>
<g id="a_node1"><a xlink:title=" ">
<polygon fill="#bfbfbf" stroke="black" points="738.5,-201.5 738.5,-231.5 870.5,-231.5 870.5,-201.5 738.5,-201.5"/>
<text text-anchor="start" x="746.5" y="-219.5" font-family="Helvetica,sans-Serif" font-size="10.00">iop/sio/sio2man/include</text>
<text text-anchor="middle" x="804.5" y="-208.5" font-family="Helvetica,sans-Serif" font-size="10.00">/sio2man.h</text>
</a>
</g>
</g>
<!-- Node2 -->
<g id="node2" class="node">
<title>Node2</title>
<g id="a_node2"><a xlink:href="iop_2input_2padman_2src_2irx__imports_8h_source.html" target="_top" xlink:title=" ">
<polygon fill="white" stroke="black" points="394,-134.5 394,-164.5 513,-164.5 513,-134.5 394,-134.5"/>
<text text-anchor="start" x="402" y="-152.5" font-family="Helvetica,sans-Serif" font-size="10.00">iop/input/padman/src</text>
<text text-anchor="middle" x="453.5" y="-141.5" font-family="Helvetica,sans-Serif" font-size="10.00">/irx_imports.h</text>
</a>
</g>
</g>
<!-- Node1&#45;&gt;Node2 -->
<g id="edge1" class="edge">
<title>Node1&#45;&gt;Node2</title>
<path fill="none" stroke="midnightblue" d="M728.32,-202.62C671.28,-192.8 591.38,-178.68 521.5,-165 518.78,-164.47 515.99,-163.91 513.18,-163.34"/>
<polygon fill="midnightblue" stroke="midnightblue" points="727.89,-206.1 738.34,-204.34 729.07,-199.2 727.89,-206.1"/>
</g>
<!-- Node3 -->
<g id="node3" class="node">
<title>Node3</title>
<g id="a_node3"><a xlink:href="pad_data_8c.html" target="_top" xlink:title=" ">
<polygon fill="white" stroke="black" points="531,-134.5 531,-164.5 650,-164.5 650,-134.5 531,-134.5"/>
<text text-anchor="start" x="539" y="-152.5" font-family="Helvetica,sans-Serif" font-size="10.00">iop/input/padman/src</text>
<text text-anchor="middle" x="590.5" y="-141.5" font-family="Helvetica,sans-Serif" font-size="10.00">/padData.c</text>
</a>
</g>
</g>
<!-- Node1&#45;&gt;Node3 -->
<g id="edge2" class="edge">
<title>Node1&#45;&gt;Node3</title>
<path fill="none" stroke="midnightblue" d="M748.35,-198.44C713.66,-187.91 669.68,-174.55 636.96,-164.61"/>
<polygon fill="midnightblue" stroke="midnightblue" points="747.74,-201.92 758.33,-201.48 749.78,-195.22 747.74,-201.92"/>
</g>
<!-- Node4 -->
<g id="node4" class="node">
<title>Node4</title>
<g id="a_node4"><a xlink:href="iop_2memorycard_2mcman_2src_2irx__imports_8h_source.html" target="_top" xlink:title=" ">
<polygon fill="white" stroke="black" points="232,-67.5 232,-97.5 369,-97.5 369,-67.5 232,-67.5"/>
<text text-anchor="start" x="240" y="-85.5" font-family="Helvetica,sans-Serif" font-size="10.00">iop/memorycard/mcman</text>
<text text-anchor="middle" x="300.5" y="-74.5" font-family="Helvetica,sans-Serif" font-size="10.00">/src/irx_imports.h</text>
</a>
</g>
</g>
<!-- Node1&#45;&gt;Node4 -->
<g id="edge3" class="edge">
<title>Node1&#45;&gt;Node4</title>
<path fill="none" stroke="midnightblue" d="M756.17,-197.65C735.76,-189.12 712.2,-177.94 692.5,-165 675.41,-153.77 677.06,-142.59 658.5,-134 544.23,-81.13 501.87,-117.66 377.5,-98 374.81,-97.58 372.08,-97.13 369.31,-96.67"/>
<polygon fill="midnightblue" stroke="midnightblue" points="755.03,-200.96 765.61,-201.5 757.67,-194.48 755.03,-200.96"/>
</g>
<!-- Node5 -->
<g id="node5" class="node">
<title>Node5</title>
<g id="a_node5"><a xlink:href="mcman-internal_8h_source.html" target="_top" xlink:title=" ">
<polygon fill="white" stroke="black" points="387,-67.5 387,-97.5 524,-97.5 524,-67.5 387,-67.5"/>
<text text-anchor="start" x="395" y="-85.5" font-family="Helvetica,sans-Serif" font-size="10.00">iop/memorycard/mcman</text>
<text text-anchor="middle" x="455.5" y="-74.5" font-family="Helvetica,sans-Serif" font-size="10.00">/src/mcman&#45;internal.h</text>
</a>
</g>
</g>
<!-- Node1&#45;&gt;Node5 -->
<g id="edge4" class="edge">
<title>Node1&#45;&gt;Node5</title>
<path fill="none" stroke="midnightblue" d="M776.95,-195.35C744.17,-171.38 693.68,-134.53 692.5,-134 677.13,-127.15 588.4,-109.13 524,-96.59"/>
<polygon fill="midnightblue" stroke="midnightblue" points="775.13,-198.35 785.26,-201.43 779.26,-192.7 775.13,-198.35"/>
</g>
<!-- Node12 -->
<g id="node12" class="node">
<title>Node12</title>
<g id="a_node12"><a xlink:href="secrman_8h.html" target="_top" xlink:title=" ">
<polygon fill="white" stroke="black" points="745,-134.5 745,-164.5 864,-164.5 864,-134.5 745,-134.5"/>
<text text-anchor="start" x="753" y="-152.5" font-family="Helvetica,sans-Serif" font-size="10.00">iop/security/secrman</text>
<text text-anchor="middle" x="804.5" y="-141.5" font-family="Helvetica,sans-Serif" font-size="10.00">/include/secrman.h</text>
</a>
</g>
</g>
<!-- Node1&#45;&gt;Node12 -->
<g id="edge11" class="edge">
<title>Node1&#45;&gt;Node12</title>
<path fill="none" stroke="midnightblue" d="M804.5,-191.11C804.5,-182.15 804.5,-172.32 804.5,-164.58"/>
<polygon fill="midnightblue" stroke="midnightblue" points="801,-191.4 804.5,-201.4 808,-191.4 801,-191.4"/>
</g>
<!-- Node16 -->
<g id="node16" class="node">
<title>Node16</title>
<g id="a_node16"><a xlink:href="secrman_8c_source.html" target="_top" xlink:title=" ">
<polygon fill="white" stroke="black" points="1207,-67.5 1207,-97.5 1326,-97.5 1326,-67.5 1207,-67.5"/>
<text text-anchor="start" x="1215" y="-85.5" font-family="Helvetica,sans-Serif" font-size="10.00">iop/security/secrman</text>
<text text-anchor="middle" x="1266.5" y="-74.5" font-family="Helvetica,sans-Serif" font-size="10.00">/src/secrman.c</text>
</a>
</g>
</g>
<!-- Node1&#45;&gt;Node16 -->
<g id="edge20" class="edge">
<title>Node1&#45;&gt;Node16</title>
<path fill="none" stroke="midnightblue" d="M832.14,-195.29C844.55,-186.14 859.33,-175.12 872.5,-165 890.06,-151.51 891.09,-142.59 911.5,-134 1029.58,-84.3 1071.15,-119.19 1197.5,-98 1200.52,-97.49 1203.6,-96.95 1206.72,-96.38"/>
<polygon fill="midnightblue" stroke="midnightblue" points="829.95,-192.56 823.97,-201.3 834.1,-198.19 829.95,-192.56"/>
</g>
<!-- Node19 -->
<g id="node19" class="node">
<title>Node19</title>
<g id="a_node19"><a xlink:href="sio2man__hook_8c_source.html" target="_top" xlink:title=" ">
<polygon fill="white" stroke="black" points="920.5,-134.5 920.5,-164.5 1042.5,-164.5 1042.5,-134.5 920.5,-134.5"/>
<text text-anchor="start" x="928.5" y="-152.5" font-family="Helvetica,sans-Serif" font-size="10.00">iop/sio/mx4sio_bd/src</text>
<text text-anchor="middle" x="981.5" y="-141.5" font-family="Helvetica,sans-Serif" font-size="10.00">/sio2man_hook.c</text>
</a>
</g>
</g>
<!-- Node1&#45;&gt;Node19 -->
<g id="edge21" class="edge">
<title>Node1&#45;&gt;Node19</title>
<path fill="none" stroke="midnightblue" d="M852.65,-197.82C881.1,-187.37 916.63,-174.32 943.17,-164.58"/>
<polygon fill="midnightblue" stroke="midnightblue" points="851.09,-194.66 842.91,-201.4 853.5,-201.23 851.09,-194.66"/>
</g>
<!-- Node20 -->
<g id="node20" class="node">
<title>Node20</title>
<g id="a_node20"><a xlink:href="log_8h.html" target="_top" xlink:title=" ">
<polygon fill="white" stroke="black" points="1060.5,-134.5 1060.5,-164.5 1192.5,-164.5 1192.5,-134.5 1060.5,-134.5"/>
<text text-anchor="start" x="1068.5" y="-152.5" font-family="Helvetica,sans-Serif" font-size="10.00">iop/sio/sio2man/include</text>
<text text-anchor="middle" x="1126.5" y="-141.5" font-family="Helvetica,sans-Serif" font-size="10.00">/log.h</text>
</a>
</g>
</g>
<!-- Node1&#45;&gt;Node20 -->
<g id="edge22" class="edge">
<title>Node1&#45;&gt;Node20</title>
<path fill="none" stroke="midnightblue" d="M880.8,-200.1C935.38,-189.08 1008.11,-174.4 1060.26,-163.87"/>
<polygon fill="midnightblue" stroke="midnightblue" points="879.94,-196.7 870.83,-202.11 881.32,-203.56 879.94,-196.7"/>
</g>
<!-- Node21 -->
<g id="node21" class="node">
<title>Node21</title>
<g id="a_node21"><a xlink:href="xsio2man_8h.html" target="_top" xlink:title=" ">
<polygon fill="white" stroke="black" points="1470.5,-134.5 1470.5,-164.5 1602.5,-164.5 1602.5,-134.5 1470.5,-134.5"/>
<text text-anchor="start" x="1478.5" y="-152.5" font-family="Helvetica,sans-Serif" font-size="10.00">iop/sio/sio2man/include</text>
<text text-anchor="middle" x="1536.5" y="-141.5" font-family="Helvetica,sans-Serif" font-size="10.00">/xsio2man.h</text>
</a>
</g>
</g>
<!-- Node1&#45;&gt;Node21 -->
<g id="edge23" class="edge">
<title>Node1&#45;&gt;Node21</title>
<path fill="none" stroke="midnightblue" d="M880.83,-208.72C1024.91,-195.93 1334.6,-168.43 1470.4,-156.37"/>
<polygon fill="midnightblue" stroke="midnightblue" points="880.4,-205.25 870.75,-209.62 881.02,-212.22 880.4,-205.25"/>
</g>
<!-- Node6 -->
<g id="node6" class="node">
<title>Node6</title>
<g id="a_node6"><a xlink:href="iop_2memorycard_2mcman_2src_2main_8c_source.html" target="_top" xlink:title=" ">
<polygon fill="white" stroke="black" points="465,-0.5 465,-30.5 602,-30.5 602,-0.5 465,-0.5"/>
<text text-anchor="start" x="473" y="-18.5" font-family="Helvetica,sans-Serif" font-size="10.00">iop/memorycard/mcman</text>
<text text-anchor="middle" x="533.5" y="-7.5" font-family="Helvetica,sans-Serif" font-size="10.00">/src/main.c</text>
</a>
</g>
</g>
<!-- Node5&#45;&gt;Node6 -->
<g id="edge5" class="edge">
<title>Node5&#45;&gt;Node6</title>
<path fill="none" stroke="midnightblue" d="M480.24,-60.88C492.09,-51.01 505.98,-39.43 516.61,-30.58"/>
<polygon fill="midnightblue" stroke="midnightblue" points="477.87,-58.31 472.42,-67.4 482.35,-63.68 477.87,-58.31"/>
</g>
<!-- Node7 -->
<g id="node7" class="node">
<title>Node7</title>
<g id="a_node7"><a xlink:href="mcdev_8c_source.html" target="_top" xlink:title=" ">
<polygon fill="white" stroke="black" points="620,-0.5 620,-30.5 757,-30.5 757,-0.5 620,-0.5"/>
<text text-anchor="start" x="628" y="-18.5" font-family="Helvetica,sans-Serif" font-size="10.00">iop/memorycard/mcman</text>
<text text-anchor="middle" x="688.5" y="-7.5" font-family="Helvetica,sans-Serif" font-size="10.00">/src/mcdev.c</text>
</a>
</g>
</g>
<!-- Node5&#45;&gt;Node7 -->
<g id="edge6" class="edge">
<title>Node5&#45;&gt;Node7</title>
<path fill="none" stroke="midnightblue" d="M515.67,-64.71C553.58,-54.14 601.99,-40.63 637.92,-30.61"/>
<polygon fill="midnightblue" stroke="midnightblue" points="514.46,-61.42 505.77,-67.48 516.34,-68.16 514.46,-61.42"/>
</g>
<!-- Node8 -->
<g id="node8" class="node">
<title>Node8</title>
<g id="a_node8"><a xlink:href="mciomanx__backing_8c_source.html" target="_top" xlink:title=" ">
<polygon fill="white" stroke="black" points="775.5,-0.5 775.5,-30.5 915.5,-30.5 915.5,-0.5 775.5,-0.5"/>
<text text-anchor="start" x="783.5" y="-18.5" font-family="Helvetica,sans-Serif" font-size="10.00">iop/memorycard/mcman</text>
<text text-anchor="middle" x="845.5" y="-7.5" font-family="Helvetica,sans-Serif" font-size="10.00">/src/mciomanx_backing.c</text>
</a>
</g>
</g>
<!-- Node5&#45;&gt;Node8 -->
<g id="edge7" class="edge">
<title>Node5&#45;&gt;Node8</title>
<path fill="none" stroke="midnightblue" d="M534.22,-66.74C637.45,-49.23 665.29,-47.82 765.5,-31 768.7,-30.46 771.97,-29.9 775.28,-29.33"/>
<polygon fill="midnightblue" stroke="midnightblue" points="533.6,-63.29 524.33,-68.42 534.77,-70.19 533.6,-63.29"/>
</g>
<!-- Node9 -->
<g id="node9" class="node">
<title>Node9</title>
<g id="a_node9"><a xlink:href="mcsio2_8c_source.html" target="_top" xlink:title=" ">
<polygon fill="white" stroke="black" points="0,-0.5 0,-30.5 137,-30.5 137,-0.5 0,-0.5"/>
<text text-anchor="start" x="8" y="-18.5" font-family="Helvetica,sans-Serif" font-size="10.00">iop/memorycard/mcman</text>
<text text-anchor="middle" x="68.5" y="-7.5" font-family="Helvetica,sans-Serif" font-size="10.00">/src/mcsio2.c</text>
</a>
</g>
</g>
<!-- Node5&#45;&gt;Node9 -->
<g id="edge8" class="edge">
<title>Node5&#45;&gt;Node9</title>
<path fill="none" stroke="midnightblue" d="M376.68,-66.89C272.98,-49.4 245.23,-48.12 145.5,-31 142.82,-30.54 140.09,-30.06 137.33,-29.57"/>
<polygon fill="midnightblue" stroke="midnightblue" points="376.17,-70.36 386.62,-68.58 377.34,-63.46 376.17,-70.36"/>
</g>
<!-- Node10 -->
<g id="node10" class="node">
<title>Node10</title>
<g id="a_node10"><a xlink:href="ps1mc__fio_8c_source.html" target="_top" xlink:title=" ">
<polygon fill="white" stroke="black" points="155,-0.5 155,-30.5 292,-30.5 292,-0.5 155,-0.5"/>
<text text-anchor="start" x="163" y="-18.5" font-family="Helvetica,sans-Serif" font-size="10.00">iop/memorycard/mcman</text>
<text text-anchor="middle" x="223.5" y="-7.5" font-family="Helvetica,sans-Serif" font-size="10.00">/src/ps1mc_fio.c</text>
</a>
</g>
</g>
<!-- Node5&#45;&gt;Node10 -->
<g id="edge9" class="edge">
<title>Node5&#45;&gt;Node10</title>
<path fill="none" stroke="midnightblue" d="M395.59,-64.71C357.84,-54.14 309.64,-40.63 273.87,-30.61"/>
<polygon fill="midnightblue" stroke="midnightblue" points="394.87,-68.15 405.45,-67.48 396.76,-61.41 394.87,-68.15"/>
</g>
<!-- Node11 -->
<g id="node11" class="node">
<title>Node11</title>
<g id="a_node11"><a xlink:href="ps2mc__fio_8c_source.html" target="_top" xlink:title=" ">
<polygon fill="white" stroke="black" points="310,-0.5 310,-30.5 447,-30.5 447,-0.5 310,-0.5"/>
<text text-anchor="start" x="318" y="-18.5" font-family="Helvetica,sans-Serif" font-size="10.00">iop/memorycard/mcman</text>
<text text-anchor="middle" x="378.5" y="-7.5" font-family="Helvetica,sans-Serif" font-size="10.00">/src/ps2mc_fio.c</text>
</a>
</g>
</g>
<!-- Node5&#45;&gt;Node11 -->
<g id="edge10" class="edge">
<title>Node5&#45;&gt;Node11</title>
<path fill="none" stroke="midnightblue" d="M431.08,-60.88C419.38,-51.01 405.66,-39.43 395.18,-30.58"/>
<polygon fill="midnightblue" stroke="midnightblue" points="428.89,-63.62 438.79,-67.4 433.41,-58.27 428.89,-63.62"/>
</g>
<!-- Node12&#45;&gt;Node4 -->
<g id="edge12" class="edge">
<title>Node12&#45;&gt;Node4</title>
<path fill="none" stroke="midnightblue" d="M734.86,-139.32C720.84,-137.52 706.2,-135.67 692.5,-134 552.62,-116.95 516.83,-119.05 377.5,-98 374.81,-97.59 372.07,-97.16 369.31,-96.71"/>
<polygon fill="midnightblue" stroke="midnightblue" points="734.58,-142.81 744.94,-140.62 735.47,-135.87 734.58,-142.81"/>
</g>
<!-- Node12&#45;&gt;Node5 -->
<g id="edge13" class="edge">
<title>Node12&#45;&gt;Node5</title>
<path fill="none" stroke="midnightblue" d="M734.88,-134.83C733.41,-134.55 731.95,-134.27 730.5,-134 642.61,-117.4 620.45,-114.28 532.5,-98 529.82,-97.5 527.1,-97 524.34,-96.49"/>
<polygon fill="midnightblue" stroke="midnightblue" points="734.26,-138.27 744.74,-136.72 735.58,-131.4 734.26,-138.27"/>
</g>
<!-- Node13 -->
<g id="node13" class="node">
<title>Node13</title>
<g id="a_node13"><a xlink:href="_card_auth_8c_source.html" target="_top" xlink:title=" ">
<polygon fill="white" stroke="black" points="1070,-67.5 1070,-97.5 1189,-97.5 1189,-67.5 1070,-67.5"/>
<text text-anchor="start" x="1078" y="-85.5" font-family="Helvetica,sans-Serif" font-size="10.00">iop/security/secrman</text>
<text text-anchor="middle" x="1129.5" y="-74.5" font-family="Helvetica,sans-Serif" font-size="10.00">/src/CardAuth.c</text>
</a>
</g>
</g>
<!-- Node12&#45;&gt;Node13 -->
<g id="edge14" class="edge">
<title>Node12&#45;&gt;Node13</title>
<path fill="none" stroke="midnightblue" d="M874.17,-134.8C943.59,-121.15 1042.41,-101.68 1060.5,-98 1063.5,-97.39 1066.57,-96.76 1069.67,-96.12"/>
<polygon fill="midnightblue" stroke="midnightblue" points="873.29,-131.41 864.15,-136.77 874.64,-138.28 873.29,-131.41"/>
</g>
<!-- Node14 -->
<g id="node14" class="node">
<title>Node14</title>
<g id="a_node14"><a xlink:href="keyman_8c_source.html" target="_top" xlink:title=" ">
<polygon fill="white" stroke="black" points="542,-67.5 542,-97.5 661,-97.5 661,-67.5 542,-67.5"/>
<text text-anchor="start" x="550" y="-85.5" font-family="Helvetica,sans-Serif" font-size="10.00">iop/security/secrman</text>
<text text-anchor="middle" x="601.5" y="-74.5" font-family="Helvetica,sans-Serif" font-size="10.00">/src/keyman.c</text>
</a>
</g>
</g>
<!-- Node12&#45;&gt;Node14 -->
<g id="edge15" class="edge">
<title>Node12&#45;&gt;Node14</title>
<path fill="none" stroke="midnightblue" d="M750.56,-131.23C717.72,-120.71 676.3,-107.45 645.46,-97.58"/>
<polygon fill="midnightblue" stroke="midnightblue" points="749.86,-134.68 760.45,-134.4 752,-128.01 749.86,-134.68"/>
</g>
<!-- Node15 -->
<g id="node15" class="node">
<title>Node15</title>
<g id="a_node15"><a xlink:href="_mecha_auth_8c_source.html" target="_top" xlink:title=" ">
<polygon fill="white" stroke="black" points="679,-67.5 679,-97.5 798,-97.5 798,-67.5 679,-67.5"/>
<text text-anchor="start" x="687" y="-85.5" font-family="Helvetica,sans-Serif" font-size="10.00">iop/security/secrman</text>
<text text-anchor="middle" x="738.5" y="-74.5" font-family="Helvetica,sans-Serif" font-size="10.00">/src/MechaAuth.c</text>
</a>
</g>
</g>
<!-- Node12&#45;&gt;Node15 -->
<g id="edge16" class="edge">
<title>Node12&#45;&gt;Node15</title>
<path fill="none" stroke="midnightblue" d="M782.99,-127.31C773.09,-117.56 761.61,-106.26 752.79,-97.58"/>
<polygon fill="midnightblue" stroke="midnightblue" points="780.6,-129.87 790.18,-134.4 785.51,-124.89 780.6,-129.87"/>
</g>
<!-- Node12&#45;&gt;Node16 -->
<g id="edge17" class="edge">
<title>Node12&#45;&gt;Node16</title>
<path fill="none" stroke="midnightblue" d="M874.09,-134.7C875.57,-134.46 877.04,-134.22 878.5,-134 1019.51,-112.26 1056.64,-120.7 1197.5,-98 1200.52,-97.51 1203.61,-96.98 1206.73,-96.42"/>
<polygon fill="midnightblue" stroke="midnightblue" points="873.48,-131.25 864.2,-136.37 874.65,-138.15 873.48,-131.25"/>
</g>
<!-- Node17 -->
<g id="node17" class="node">
<title>Node17</title>
<g id="a_node17"><a xlink:href="iop_2security_2secrsif_2src_2irx__imports_8h_source.html" target="_top" xlink:title=" ">
<polygon fill="white" stroke="black" points="816,-67.5 816,-97.5 925,-97.5 925,-67.5 816,-67.5"/>
<text text-anchor="start" x="824" y="-85.5" font-family="Helvetica,sans-Serif" font-size="10.00">iop/security/secrsif</text>
<text text-anchor="middle" x="870.5" y="-74.5" font-family="Helvetica,sans-Serif" font-size="10.00">/src/irx_imports.h</text>
</a>
</g>
</g>
<!-- Node12&#45;&gt;Node17 -->
<g id="edge18" class="edge">
<title>Node12&#45;&gt;Node17</title>
<path fill="none" stroke="midnightblue" d="M826.01,-127.31C835.91,-117.56 847.39,-106.26 856.21,-97.58"/>
<polygon fill="midnightblue" stroke="midnightblue" points="823.49,-124.89 818.82,-134.4 828.4,-129.87 823.49,-124.89"/>
</g>
<!-- Node18 -->
<g id="node18" class="node">
<title>Node18</title>
<g id="a_node18"><a xlink:href="secrsif_8c_source.html" target="_top" xlink:title=" ">
<polygon fill="white" stroke="black" points="943,-67.5 943,-97.5 1052,-97.5 1052,-67.5 943,-67.5"/>
<text text-anchor="start" x="951" y="-85.5" font-family="Helvetica,sans-Serif" font-size="10.00">iop/security/secrsif</text>
<text text-anchor="middle" x="997.5" y="-74.5" font-family="Helvetica,sans-Serif" font-size="10.00">/src/secrsif.c</text>
</a>
</g>
</g>
<!-- Node12&#45;&gt;Node18 -->
<g id="edge19" class="edge">
<title>Node12&#45;&gt;Node18</title>
<path fill="none" stroke="midnightblue" d="M856.19,-131.09C887.34,-120.6 926.51,-107.41 955.7,-97.58"/>
<polygon fill="midnightblue" stroke="midnightblue" points="854.74,-127.89 846.38,-134.4 856.97,-134.52 854.74,-127.89"/>
</g>
<!-- Node22 -->
<g id="node22" class="node">
<title>Node22</title>
<g id="a_node22"><a xlink:href="freemtap_8c.html" target="_top" xlink:title=" ">
<polygon fill="white" stroke="black" points="1344.5,-67.5 1344.5,-97.5 1460.5,-97.5 1460.5,-67.5 1344.5,-67.5"/>
<text text-anchor="start" x="1352.5" y="-85.5" font-family="Helvetica,sans-Serif" font-size="10.00">iop/sio/mtapman/src</text>
<text text-anchor="middle" x="1402.5" y="-74.5" font-family="Helvetica,sans-Serif" font-size="10.00">/freemtap.c</text>
</a>
</g>
</g>
<!-- Node21&#45;&gt;Node22 -->
<g id="edge24" class="edge">
<title>Node21&#45;&gt;Node22</title>
<path fill="none" stroke="midnightblue" d="M1498.35,-129.99C1477.11,-119.69 1451.09,-107.07 1431.52,-97.58"/>
<polygon fill="midnightblue" stroke="midnightblue" points="1496.9,-133.18 1507.42,-134.4 1499.95,-126.88 1496.9,-133.18"/>
</g>
<!-- Node23 -->
<g id="node23" class="node">
<title>Node23</title>
<g id="a_node23"><a xlink:href="iop_2sio_2mtapman_2src_2irx__imports_8h_source.html" target="_top" xlink:title=" ">
<polygon fill="white" stroke="black" points="1478.5,-67.5 1478.5,-97.5 1594.5,-97.5 1594.5,-67.5 1478.5,-67.5"/>
<text text-anchor="start" x="1486.5" y="-85.5" font-family="Helvetica,sans-Serif" font-size="10.00">iop/sio/mtapman/src</text>
<text text-anchor="middle" x="1536.5" y="-74.5" font-family="Helvetica,sans-Serif" font-size="10.00">/irx_imports.h</text>
</a>
</g>
</g>
<!-- Node21&#45;&gt;Node23 -->
<g id="edge25" class="edge">
<title>Node21&#45;&gt;Node23</title>
<path fill="none" stroke="midnightblue" d="M1536.5,-124.11C1536.5,-115.15 1536.5,-105.32 1536.5,-97.58"/>
<polygon fill="midnightblue" stroke="midnightblue" points="1533,-124.4 1536.5,-134.4 1540,-124.4 1533,-124.4"/>
</g>
<!-- Node24 -->
<g id="node24" class="node">
<title>Node24</title>
<g id="a_node24"><a xlink:href="mx4sio_8c_source.html" target="_top" xlink:title=" ">
<polygon fill="white" stroke="black" points="1612.5,-67.5 1612.5,-97.5 1734.5,-97.5 1734.5,-67.5 1612.5,-67.5"/>
<text text-anchor="start" x="1620.5" y="-85.5" font-family="Helvetica,sans-Serif" font-size="10.00">iop/sio/mx4sio_bd/src</text>
<text text-anchor="middle" x="1673.5" y="-74.5" font-family="Helvetica,sans-Serif" font-size="10.00">/mx4sio.c</text>
</a>
</g>
</g>
<!-- Node21&#45;&gt;Node24 -->
<g id="edge26" class="edge">
<title>Node21&#45;&gt;Node24</title>
<path fill="none" stroke="midnightblue" d="M1575.51,-129.99C1597.22,-119.69 1623.83,-107.07 1643.83,-97.58"/>
<polygon fill="midnightblue" stroke="midnightblue" points="1573.76,-126.95 1566.23,-134.4 1576.76,-133.27 1573.76,-126.95"/>
</g>
<!-- Node25 -->
<g id="node25" class="node">
<title>Node25</title>
<g id="a_node25"><a xlink:href="rsio2man_8h.html" target="_top" xlink:title=" ">
<polygon fill="white" stroke="black" points="1752.5,-67.5 1752.5,-97.5 1884.5,-97.5 1884.5,-67.5 1752.5,-67.5"/>
<text text-anchor="start" x="1760.5" y="-85.5" font-family="Helvetica,sans-Serif" font-size="10.00">iop/sio/sio2man/include</text>
<text text-anchor="middle" x="1818.5" y="-74.5" font-family="Helvetica,sans-Serif" font-size="10.00">/rsio2man.h</text>
</a>
</g>
</g>
<!-- Node21&#45;&gt;Node25 -->
<g id="edge27" class="edge">
<title>Node21&#45;&gt;Node25</title>
<path fill="none" stroke="midnightblue" d="M1607.28,-132.19C1653.46,-121.54 1713.14,-107.78 1757.28,-97.61"/>
<polygon fill="midnightblue" stroke="midnightblue" points="1606.3,-128.82 1597.34,-134.48 1607.87,-135.64 1606.3,-128.82"/>
</g>
<!-- Node26 -->
<g id="node26" class="node">
<title>Node26</title>
<g id="a_node26"><a xlink:href="iop_2input_2rmman_2src_2irx__imports_8h_source.html" target="_top" xlink:title=" ">
<polygon fill="white" stroke="black" points="1628,-0.5 1628,-30.5 1743,-30.5 1743,-0.5 1628,-0.5"/>
<text text-anchor="start" x="1636" y="-18.5" font-family="Helvetica,sans-Serif" font-size="10.00">iop/input/rmman/src</text>
<text text-anchor="middle" x="1685.5" y="-7.5" font-family="Helvetica,sans-Serif" font-size="10.00">/irx_imports.h</text>
</a>
</g>
</g>
<!-- Node25&#45;&gt;Node26 -->
<g id="edge28" class="edge">
<title>Node25&#45;&gt;Node26</title>
<path fill="none" stroke="midnightblue" d="M1780.63,-62.99C1759.55,-52.69 1733.72,-40.07 1714.3,-30.58"/>
<polygon fill="midnightblue" stroke="midnightblue" points="1779.12,-66.15 1789.64,-67.4 1782.19,-59.86 1779.12,-66.15"/>
</g>
<!-- Node27 -->
<g id="node27" class="node">
<title>Node27</title>
<g id="a_node27"><a xlink:href="rmman_8c_source.html" target="_top" xlink:title=" ">
<polygon fill="white" stroke="black" points="1761,-0.5 1761,-30.5 1876,-30.5 1876,-0.5 1761,-0.5"/>
<text text-anchor="start" x="1769" y="-18.5" font-family="Helvetica,sans-Serif" font-size="10.00">iop/input/rmman/src</text>
<text text-anchor="middle" x="1818.5" y="-7.5" font-family="Helvetica,sans-Serif" font-size="10.00">/rmman.c</text>
</a>
</g>
</g>
<!-- Node25&#45;&gt;Node27 -->
<g id="edge29" class="edge">
<title>Node25&#45;&gt;Node27</title>
<path fill="none" stroke="midnightblue" d="M1818.5,-57.11C1818.5,-48.15 1818.5,-38.32 1818.5,-30.58"/>
<polygon fill="midnightblue" stroke="midnightblue" points="1815,-57.4 1818.5,-67.4 1822,-57.4 1815,-57.4"/>
</g>
<!-- Node28 -->
<g id="node28" class="node">
<title>Node28</title>
<g id="a_node28"><a xlink:href="sio2man_8c.html" target="_top" xlink:title=" ">
<polygon fill="white" stroke="black" points="1894,-0.5 1894,-30.5 2005,-30.5 2005,-0.5 1894,-0.5"/>
<text text-anchor="start" x="1902" y="-18.5" font-family="Helvetica,sans-Serif" font-size="10.00">iop/sio/sio2man/src</text>
<text text-anchor="middle" x="1949.5" y="-7.5" font-family="Helvetica,sans-Serif" font-size="10.00">/sio2man.c</text>
</a>
</g>
</g>
<!-- Node25&#45;&gt;Node28 -->
<g id="edge30" class="edge">
<title>Node25&#45;&gt;Node28</title>
<path fill="none" stroke="midnightblue" d="M1856.08,-62.85C1876.79,-52.58 1902.09,-40.03 1921.13,-30.58"/>
<polygon fill="midnightblue" stroke="midnightblue" points="1854.33,-59.82 1846.93,-67.4 1857.44,-66.09 1854.33,-59.82"/>
</g>
</g>
</svg>
