<?xml version="1.0" encoding="UTF-8" standalone="no"?>
<!DOCTYPE svg PUBLIC "-//W3C//DTD SVG 1.1//EN"
 "http://www.w3.org/Graphics/SVG/1.1/DTD/svg11.dtd">
<!-- Generated by graphviz version 9.0.0 (20230911.1827)
 -->
<!-- Title: iop/system/sio2man/src/sio2man.c Pages: 1 -->
<!--zoomable 315 -->

<svg id="main" version="1.1" xmlns="http://www.w3.org/2000/svg" xmlns:xlink="http://www.w3.org/1999/xlink" xml:space="preserve" onload="init(evt)">
<style type="text/css"><![CDATA[
.node, .edge {opacity: 0.7;}
.node.selected, .edge.selected {opacity: 1;}
.edge:hover path { stroke: red; }
.edge:hover polygon { stroke: red; fill: red; }
]]></style>

<defs>
  <circle id="rim" cx="0" cy="0" r="7"/>
  <circle id="rim2" cx="0" cy="0" r="3.5"/>
  <g id="zoomPlus">
    <use xlink:href="#rim" fill="#404040"><set attributeName="fill" to="#808080" begin="zoomplus.mouseover" end="zoomplus.mouseout"/></use>
    <path d="M-4,0h8M0,-4v8" fill="none" stroke="white" stroke-width="1.5" pointer-events="none"/>
  </g>
  <g id="zoomMin">
    <use xlink:href="#rim" fill="#404040"><set attributeName="fill" to="#808080" begin="zoomminus.mouseover" end="zoomminus.mouseout"/></use>
    <path d="M-4,0h8" fill="none" stroke="white" stroke-width="1.5" pointer-events="none"/>
  </g>
  <g id="arrowUp" transform="translate(30 24)">
    <use xlink:href="#rim"/>
    <path pointer-events="none" fill="none" stroke="white" stroke-width="1.5" d="M0,-3.0v7 M-2.5,-0.5L0,-3.0L2.5,-0.5"/>
  </g>
  <g id="arrowRight" transform="rotate(90) translate(36 -43)">
    <use xlink:href="#rim"/>
    <path pointer-events="none" fill="none" stroke="white" stroke-width="1.5" d="M0,-3.0v7 M-2.5,-0.5L0,-3.0L2.5,-0.5"/>
  </g>
  <g id="arrowDown" transform="rotate(180) translate(-30 -48)">
    <use xlink:href="#rim"/>
    <path pointer-events="none" fill="none" stroke="white" stroke-width="1.5" d="M0,-3.0v7 M-2.5,-0.5L0,-3.0L2.5,-0.5"/>
  </g>
  <g id="arrowLeft" transform="rotate(270) translate(-36 17)">
    <use xlink:href="#rim"/>
    <path pointer-events="none" fill="none" stroke="white" stroke-width="1.5" d="M0,-3.0v7 M-2.5,-0.5L0,-3.0L2.5,-0.5"/>
  </g>
  <g id="resetDef">
    <use xlink:href="#rim2" fill="#404040"><set attributeName="fill" to="#808080" begin="reset.mouseover" end="reset.mouseout"/></use>
  </g>
</defs>
<script type="application/ecmascript">
var viewWidth = 771;
var viewHeight = 315;
var sectionId = 'dynsection-0';
</script>
<script type="application/ecmascript" xlink:href="svg.min.js"/>
<svg id="graph" class="graph">
<g id="viewport">
<title>iop/system/sio2man/src/sio2man.c</title>
<!-- Node1 -->
<g id="Node000001" class="node">
<title>Node1</title>
<g id="a_Node000001"><a xlink:title=" ">
<polygon fill="#999999" stroke="#666666" points="452.38,-306.75 349.38,-306.75 349.38,-276.25 452.38,-276.25 452.38,-306.75"/>
<text text-anchor="start" x="357.38" y="-293.25" font-family="Helvetica,sans-Serif" font-size="10.00">iop/system/sio2man</text>
<text text-anchor="middle" x="400.88" y="-282" font-family="Helvetica,sans-Serif" font-size="10.00">/src/sio2man.c</text>
</a>
</g>
</g>
<!-- Node2 -->
<g id="Node000002" class="node">
<title>Node2</title>
<g id="a_Node000002"><a xlink:href="irx_8h.html" target="_top" xlink:title=" ">
<polygon fill="white" stroke="#666666" points="364.5,-129.75 331.25,-129.75 331.25,-110.5 364.5,-110.5 364.5,-129.75"/>
<text text-anchor="middle" x="347.88" y="-116.25" font-family="Helvetica,sans-Serif" font-size="10.00">irx.h</text>
</a>
</g>
</g>
<!-- Node1&#45;&gt;Node2 -->
<g id="edge1_Node000001_Node000002" class="edge">
<title>Node1&#45;&gt;Node2</title>
<g id="a_edge1_Node000001_Node000002"><a xlink:title=" ">
<path fill="none" stroke="#63b8ff" d="M362.66,-275.88C327.06,-259.81 276.74,-230.11 257.88,-185 245.29,-154.9 289.25,-136.59 320.11,-127.69"/>
<polygon fill="#63b8ff" stroke="#63b8ff" points="320.93,-131.1 329.69,-125.13 319.12,-124.33 320.93,-131.1"/>
</a>
</g>
</g>
<!-- Node6 -->
<g id="Node000006" class="node">
<title>Node6</title>
<g id="a_Node000006"><a xlink:href="defs_8h.html" target="_top" xlink:title=" ">
<polygon fill="white" stroke="#666666" points="692,-240.25 649.75,-240.25 649.75,-221 692,-221 692,-240.25"/>
<text text-anchor="middle" x="670.88" y="-226.75" font-family="Helvetica,sans-Serif" font-size="10.00">defs.h</text>
</a>
</g>
</g>
<!-- Node1&#45;&gt;Node6 -->
<g id="edge5_Node000001_Node000006" class="edge">
<title>Node1&#45;&gt;Node6</title>
<g id="a_edge5_Node000001_Node000006"><a xlink:title=" ">
<path fill="none" stroke="#63b8ff" d="M452.61,-279.22C507.41,-267.27 592.23,-248.77 638.34,-238.72"/>
<polygon fill="#63b8ff" stroke="#63b8ff" points="638.95,-242.17 647.97,-236.62 637.46,-235.33 638.95,-242.17"/>
</a>
</g>
</g>
<!-- Node7 -->
<g id="Node000007" class="node">
<title>Node7</title>
<g id="a_Node000007"><a xlink:title=" ">
<polygon fill="#e0e0e0" stroke="#999999" points="763.25,-129.75 716.5,-129.75 716.5,-110.5 763.25,-110.5 763.25,-129.75"/>
<text text-anchor="middle" x="739.88" y="-116.25" font-family="Helvetica,sans-Serif" font-size="10.00">types.h</text>
</a>
</g>
</g>
<!-- Node1&#45;&gt;Node7 -->
<g id="edge7_Node000001_Node000007" class="edge">
<title>Node1&#45;&gt;Node7</title>
<g id="a_edge7_Node000001_Node000007"><a xlink:title=" ">
<path fill="none" stroke="#63b8ff" d="M452.76,-288.17C528.55,-283.73 664.49,-271.54 700.88,-240.25 729.94,-215.25 737.47,-168.25 739.34,-141.36"/>
<polygon fill="#63b8ff" stroke="#63b8ff" points="742.83,-141.63 739.81,-131.47 735.84,-141.3 742.83,-141.63"/>
</a>
</g>
</g>
<!-- Node8 -->
<g id="Node000008" class="node">
<title>Node8</title>
<g id="a_Node000008"><a xlink:href="loadcore_8h.html" target="_top" xlink:title=" ">
<polygon fill="white" stroke="#666666" points="507,-185 446.75,-185 446.75,-165.75 507,-165.75 507,-185"/>
<text text-anchor="middle" x="476.88" y="-171.5" font-family="Helvetica,sans-Serif" font-size="10.00">loadcore.h</text>
</a>
</g>
</g>
<!-- Node1&#45;&gt;Node8 -->
<g id="edge8_Node000001_Node000008" class="edge">
<title>Node1&#45;&gt;Node8</title>
<g id="a_edge8_Node000001_Node000008"><a xlink:title=" ">
<path fill="none" stroke="#63b8ff" d="M410.5,-276.05C424.22,-255.44 449.42,-217.6 464.51,-194.94"/>
<polygon fill="#63b8ff" stroke="#63b8ff" points="467.36,-196.97 469.99,-186.71 461.54,-193.09 467.36,-196.97"/>
</a>
</g>
</g>
<!-- Node9 -->
<g id="Node000009" class="node">
<title>Node9</title>
<g id="a_Node000009"><a xlink:href="intrman_8h.html" target="_top" xlink:title=" ">
<polygon fill="white" stroke="#666666" points="55.75,-185 0,-185 0,-165.75 55.75,-165.75 55.75,-185"/>
<text text-anchor="middle" x="27.88" y="-171.5" font-family="Helvetica,sans-Serif" font-size="10.00">intrman.h</text>
</a>
</g>
</g>
<!-- Node1&#45;&gt;Node9 -->
<g id="edge11_Node000001_Node000009" class="edge">
<title>Node1&#45;&gt;Node9</title>
<g id="a_edge11_Node000001_Node000009"><a xlink:title=" ">
<path fill="none" stroke="#63b8ff" d="M348.88,-282.7C300.88,-274.71 227.99,-260.58 166.88,-240.25 126.39,-226.78 81.97,-205.06 54.5,-190.75"/>
<polygon fill="#63b8ff" stroke="#63b8ff" points="56.32,-187.75 45.85,-186.18 53.06,-193.94 56.32,-187.75"/>
</a>
</g>
</g>
<!-- Node10 -->
<g id="Node000010" class="node">
<title>Node10</title>
<g id="a_Node000010"><a xlink:href="dmacman_8h.html" target="_top" xlink:title=" ">
<polygon fill="white" stroke="#666666" points="140,-185 73.75,-185 73.75,-165.75 140,-165.75 140,-185"/>
<text text-anchor="middle" x="106.88" y="-171.5" font-family="Helvetica,sans-Serif" font-size="10.00">dmacman.h</text>
</a>
</g>
</g>
<!-- Node1&#45;&gt;Node10 -->
<g id="edge14_Node000001_Node000010" class="edge">
<title>Node1&#45;&gt;Node10</title>
<g id="a_edge14_Node000001_Node000010"><a xlink:title=" ">
<path fill="none" stroke="#63b8ff" d="M349,-282C308.58,-274.24 251.66,-260.82 204.88,-240.25 175.9,-227.51 145.89,-206.61 126.84,-192.21"/>
<polygon fill="#63b8ff" stroke="#63b8ff" points="129.19,-189.6 119.14,-186.27 124.92,-195.15 129.19,-189.6"/>
</a>
</g>
</g>
<!-- Node11 -->
<g id="Node000011" class="node">
<title>Node11</title>
<g id="a_Node000011"><a xlink:href="stdio_8h.html" target="_top" xlink:title=" ">
<polygon fill="white" stroke="#666666" points="367.12,-240.25 322.62,-240.25 322.62,-221 367.12,-221 367.12,-240.25"/>
<text text-anchor="middle" x="344.88" y="-226.75" font-family="Helvetica,sans-Serif" font-size="10.00">stdio.h</text>
</a>
</g>
</g>
<!-- Node1&#45;&gt;Node11 -->
<g id="edge17_Node000001_Node000011" class="edge">
<title>Node1&#45;&gt;Node11</title>
<g id="a_edge17_Node000001_Node000011"><a xlink:title=" ">
<path fill="none" stroke="#63b8ff" d="M387.03,-275.95C379.24,-267.76 369.47,-257.48 361.3,-248.89"/>
<polygon fill="#63b8ff" stroke="#63b8ff" points="363.98,-246.63 354.55,-241.8 358.91,-251.46 363.98,-246.63"/>
</a>
</g>
</g>
<!-- Node13 -->
<g id="Node000013" class="node">
<title>Node13</title>
<g id="a_Node000013"><a xlink:href="thbase_8h.html" target="_top" xlink:title=" ">
<polygon fill="white" stroke="#666666" points="211.25,-185 158.5,-185 158.5,-165.75 211.25,-165.75 211.25,-185"/>
<text text-anchor="middle" x="184.88" y="-171.5" font-family="Helvetica,sans-Serif" font-size="10.00">thbase.h</text>
</a>
</g>
</g>
<!-- Node1&#45;&gt;Node13 -->
<g id="edge20_Node000001_Node000013" class="edge">
<title>Node1&#45;&gt;Node13</title>
<g id="a_edge20_Node000001_Node000013"><a xlink:title=" ">
<path fill="none" stroke="#63b8ff" d="M349.11,-285.67C311.5,-279.95 261.07,-267.46 224.88,-240.25 209.69,-228.83 198.86,-209.82 192.34,-195.5"/>
<polygon fill="#63b8ff" stroke="#63b8ff" points="195.72,-194.51 188.61,-186.65 189.27,-197.23 195.72,-194.51"/>
</a>
</g>
</g>
<!-- Node14 -->
<g id="Node000014" class="node">
<title>Node14</title>
<g id="a_Node000014"><a xlink:href="thevent_8h.html" target="_top" xlink:title=" ">
<polygon fill="white" stroke="#666666" points="428.75,-185 373,-185 373,-165.75 428.75,-165.75 428.75,-185"/>
<text text-anchor="middle" x="400.88" y="-171.5" font-family="Helvetica,sans-Serif" font-size="10.00">thevent.h</text>
</a>
</g>
</g>
<!-- Node1&#45;&gt;Node14 -->
<g id="edge23_Node000001_Node000014" class="edge">
<title>Node1&#45;&gt;Node14</title>
<g id="a_edge23_Node000001_Node000014"><a xlink:title=" ">
<path fill="none" stroke="#63b8ff" d="M400.88,-276.05C400.88,-256 400.88,-219.65 400.88,-196.82"/>
<polygon fill="#63b8ff" stroke="#63b8ff" points="404.38,-196.96 400.88,-186.96 397.38,-196.96 404.38,-196.96"/>
</a>
</g>
</g>
<!-- Node15 -->
<g id="Node000015" class="node">
<title>Node15</title>
<g id="a_Node000015"><a xlink:href="ioman_8h.html" target="_top" xlink:title=" ">
<polygon fill="white" stroke="#666666" points="574.75,-185 525,-185 525,-165.75 574.75,-165.75 574.75,-185"/>
<text text-anchor="middle" x="549.88" y="-171.5" font-family="Helvetica,sans-Serif" font-size="10.00">ioman.h</text>
</a>
</g>
</g>
<!-- Node1&#45;&gt;Node15 -->
<g id="edge26_Node000001_Node000015" class="edge">
<title>Node1&#45;&gt;Node15</title>
<g id="a_edge26_Node000001_Node000015"><a xlink:title=" ">
<path fill="none" stroke="#63b8ff" d="M420.05,-275.81C448.15,-254.29 500.33,-214.33 529.24,-192.18"/>
<polygon fill="#63b8ff" stroke="#63b8ff" points="531.07,-195.19 536.88,-186.33 526.82,-189.63 531.07,-195.19"/>
</a>
</g>
</g>
<!-- Node19 -->
<g id="Node000019" class="node">
<title>Node19</title>
<g id="a_Node000019"><a xlink:href="xsio2man_8h.html" target="_top" xlink:title=" ">
<polygon fill="white" stroke="#666666" points="621.25,-240.25 556.5,-240.25 556.5,-221 621.25,-221 621.25,-240.25"/>
<text text-anchor="middle" x="588.88" y="-226.75" font-family="Helvetica,sans-Serif" font-size="10.00">xsio2man.h</text>
</a>
</g>
</g>
<!-- Node1&#45;&gt;Node19 -->
<g id="edge32_Node000001_Node000019" class="edge">
<title>Node1&#45;&gt;Node19</title>
<g id="a_edge32_Node000001_Node000019"><a xlink:title=" ">
<path fill="none" stroke="#63b8ff" d="M447.83,-275.8C478.98,-266.04 519.42,-253.38 549,-244.11"/>
<polygon fill="#63b8ff" stroke="#63b8ff" points="549.83,-247.52 558.32,-241.19 547.73,-240.84 549.83,-247.52"/>
</a>
</g>
</g>
<!-- Node3 -->
<g id="Node000003" class="node">
<title>Node3</title>
<g id="a_Node000003"><a xlink:href="iop_2kernel_2include_2types_8h_source.html" target="_top" xlink:title=" ">
<polygon fill="white" stroke="#666666" points="391.25,-74.5 344.5,-74.5 344.5,-55.25 391.25,-55.25 391.25,-74.5"/>
<text text-anchor="middle" x="367.88" y="-61" font-family="Helvetica,sans-Serif" font-size="10.00">types.h</text>
</a>
</g>
</g>
<!-- Node2&#45;&gt;Node3 -->
<g id="edge2_Node000002_Node000003" class="edge">
<title>Node2&#45;&gt;Node3</title>
<g id="a_edge2_Node000002_Node000003"><a xlink:title=" ">
<path fill="none" stroke="#63b8ff" d="M351.18,-110.33C353.71,-103.59 357.3,-94.02 360.51,-85.49"/>
<polygon fill="#63b8ff" stroke="#63b8ff" points="363.73,-86.87 363.97,-76.28 357.18,-84.41 363.73,-86.87"/>
</a>
</g>
</g>
<!-- Node4 -->
<g id="Node000004" class="node">
<title>Node4</title>
<g id="a_Node000004"><a xlink:title=" ">
<polygon fill="#e0e0e0" stroke="#999999" points="356.12,-19.25 305.62,-19.25 305.62,0 356.12,0 356.12,-19.25"/>
<text text-anchor="middle" x="330.88" y="-5.75" font-family="Helvetica,sans-Serif" font-size="10.00">stddef.h</text>
</a>
</g>
</g>
<!-- Node3&#45;&gt;Node4 -->
<g id="edge3_Node000003_Node000004" class="edge">
<title>Node3&#45;&gt;Node4</title>
<g id="a_edge3_Node000003_Node000004"><a xlink:title=" ">
<path fill="none" stroke="#63b8ff" d="M361.77,-55.08C356.81,-47.96 349.67,-37.68 343.5,-28.8"/>
<polygon fill="#63b8ff" stroke="#63b8ff" points="346.56,-27.07 337.98,-20.85 340.81,-31.06 346.56,-27.07"/>
</a>
</g>
</g>
<!-- Node5 -->
<g id="Node000005" class="node">
<title>Node5</title>
<g id="a_Node000005"><a xlink:href="tamtypes_8h.html" target="_top" xlink:title=" ">
<polygon fill="white" stroke="#666666" points="437.5,-19.25 374.25,-19.25 374.25,0 437.5,0 437.5,-19.25"/>
<text text-anchor="middle" x="405.88" y="-5.75" font-family="Helvetica,sans-Serif" font-size="10.00">tamtypes.h</text>
</a>
</g>
</g>
<!-- Node3&#45;&gt;Node5 -->
<g id="edge4_Node000003_Node000005" class="edge">
<title>Node3&#45;&gt;Node5</title>
<g id="a_edge4_Node000003_Node000005"><a xlink:title=" ">
<path fill="none" stroke="#63b8ff" d="M374.15,-55.08C379.23,-47.96 386.57,-37.68 392.91,-28.8"/>
<polygon fill="#63b8ff" stroke="#63b8ff" points="395.62,-31.01 398.58,-20.84 389.93,-26.95 395.62,-31.01"/>
</a>
</g>
</g>
<!-- Node6&#45;&gt;Node3 -->
<g id="edge6_Node000006_Node000003" class="edge">
<title>Node6&#45;&gt;Node3</title>
<g id="a_edge6_Node000006_Node000003"><a xlink:title=" ">
<path fill="none" stroke="#63b8ff" d="M672.31,-220.63C673.94,-207.11 674.87,-181.45 661.88,-165.75 628.08,-124.95 472.86,-87.92 402.6,-72.93"/>
<polygon fill="#63b8ff" stroke="#63b8ff" points="403.68,-69.58 393.17,-70.94 402.24,-76.43 403.68,-69.58"/>
</a>
</g>
</g>
<!-- Node8&#45;&gt;Node2 -->
<g id="edge10_Node000008_Node000002" class="edge">
<title>Node8&#45;&gt;Node2</title>
<g id="a_edge10_Node000008_Node000002"><a xlink:title=" ">
<path fill="none" stroke="#63b8ff" d="M454.99,-165.34C433.02,-156.27 399.12,-142.28 375.35,-132.47"/>
<polygon fill="#63b8ff" stroke="#63b8ff" points="376.89,-129.32 366.31,-128.74 374.22,-135.79 376.89,-129.32"/>
</a>
</g>
</g>
<!-- Node8&#45;&gt;Node3 -->
<g id="edge9_Node000008_Node000003" class="edge">
<title>Node8&#45;&gt;Node3</title>
<g id="a_edge9_Node000008_Node000003"><a xlink:title=" ">
<path fill="none" stroke="#63b8ff" d="M467.96,-165.5C449.83,-147.46 408.43,-106.25 384.95,-82.88"/>
<polygon fill="#63b8ff" stroke="#63b8ff" points="387.55,-80.52 377.99,-75.94 382.61,-85.48 387.55,-80.52"/>
</a>
</g>
</g>
<!-- Node9&#45;&gt;Node2 -->
<g id="edge13_Node000009_Node000002" class="edge">
<title>Node9&#45;&gt;Node2</title>
<g id="a_edge13_Node000009_Node000002"><a xlink:title=" ">
<path fill="none" stroke="#63b8ff" d="M56.11,-167.57C59.06,-166.93 62.03,-166.31 64.88,-165.75 157.55,-147.67 268.41,-131.86 319.52,-124.9"/>
<polygon fill="#63b8ff" stroke="#63b8ff" points="319.95,-128.37 329.39,-123.57 319.02,-121.44 319.95,-128.37"/>
</a>
</g>
</g>
<!-- Node9&#45;&gt;Node3 -->
<g id="edge12_Node000009_Node000003" class="edge">
<title>Node9&#45;&gt;Node3</title>
<g id="a_edge12_Node000009_Node000003"><a xlink:title=" ">
<path fill="none" stroke="#63b8ff" d="M53.9,-165.3C90.42,-152.65 158.99,-129.15 217.88,-110.5 257.26,-98.02 302.79,-84.62 333.26,-75.8"/>
<polygon fill="#63b8ff" stroke="#63b8ff" points="334.06,-79.21 342.7,-73.07 332.12,-72.48 334.06,-79.21"/>
</a>
</g>
</g>
<!-- Node10&#45;&gt;Node2 -->
<g id="edge16_Node000010_Node000002" class="edge">
<title>Node10&#45;&gt;Node2</title>
<g id="a_edge16_Node000010_Node000002"><a xlink:title=" ">
<path fill="none" stroke="#63b8ff" d="M140.39,-166.97C188.13,-156.42 274.89,-137.25 319.58,-127.38"/>
<polygon fill="#63b8ff" stroke="#63b8ff" points="320.27,-130.81 329.28,-125.23 318.76,-123.97 320.27,-130.81"/>
</a>
</g>
</g>
<!-- Node10&#45;&gt;Node3 -->
<g id="edge15_Node000010_Node000003" class="edge">
<title>Node10&#45;&gt;Node3</title>
<g id="a_edge15_Node000010_Node000003"><a xlink:title=" ">
<path fill="none" stroke="#63b8ff" d="M128.68,-165.31C174.64,-146.2 281.67,-101.71 335.6,-79.29"/>
<polygon fill="#63b8ff" stroke="#63b8ff" points="336.66,-82.64 344.55,-75.57 333.97,-76.18 336.66,-82.64"/>
</a>
</g>
</g>
<!-- Node11&#45;&gt;Node2 -->
<g id="edge19_Node000011_Node000002" class="edge">
<title>Node11&#45;&gt;Node2</title>
<g id="a_edge19_Node000011_Node000002"><a xlink:title=" ">
<path fill="none" stroke="#63b8ff" d="M345.12,-220.75C345.6,-203.5 346.66,-165.08 347.32,-141.31"/>
<polygon fill="#63b8ff" stroke="#63b8ff" points="350.81,-141.73 347.58,-131.64 343.81,-141.54 350.81,-141.73"/>
</a>
</g>
</g>
<!-- Node12 -->
<g id="Node000012" class="node">
<title>Node12</title>
<g id="a_Node000012"><a xlink:title=" ">
<polygon fill="#e0e0e0" stroke="#999999" points="317.12,-185 266.62,-185 266.62,-165.75 317.12,-165.75 317.12,-185"/>
<text text-anchor="middle" x="291.88" y="-171.5" font-family="Helvetica,sans-Serif" font-size="10.00">stdarg.h</text>
</a>
</g>
</g>
<!-- Node11&#45;&gt;Node12 -->
<g id="edge18_Node000011_Node000012" class="edge">
<title>Node11&#45;&gt;Node12</title>
<g id="a_edge18_Node000011_Node000012"><a xlink:title=" ">
<path fill="none" stroke="#63b8ff" d="M336.12,-220.83C328.73,-213.4 317.91,-202.54 308.83,-193.41"/>
<polygon fill="#63b8ff" stroke="#63b8ff" points="311.42,-191.05 301.88,-186.43 306.46,-195.99 311.42,-191.05"/>
</a>
</g>
</g>
<!-- Node13&#45;&gt;Node2 -->
<g id="edge22_Node000013_Node000002" class="edge">
<title>Node13&#45;&gt;Node2</title>
<g id="a_edge22_Node000013_Node000002"><a xlink:title=" ">
<path fill="none" stroke="#63b8ff" d="M211.43,-165.7C241.34,-155.93 289.75,-140.11 320.14,-130.18"/>
<polygon fill="#63b8ff" stroke="#63b8ff" points="320.98,-133.59 329.4,-127.16 318.8,-126.94 320.98,-133.59"/>
</a>
</g>
</g>
<!-- Node13&#45;&gt;Node3 -->
<g id="edge21_Node000013_Node000003" class="edge">
<title>Node13&#45;&gt;Node3</title>
<g id="a_edge21_Node000013_Node000003"><a xlink:title=" ">
<path fill="none" stroke="#63b8ff" d="M200.16,-165.31C231.78,-146.56 304.63,-103.37 343.07,-80.58"/>
<polygon fill="#63b8ff" stroke="#63b8ff" points="344.38,-83.87 351.2,-75.76 340.81,-77.85 344.38,-83.87"/>
</a>
</g>
</g>
<!-- Node14&#45;&gt;Node2 -->
<g id="edge25_Node000014_Node000002" class="edge">
<title>Node14&#45;&gt;Node2</title>
<g id="a_edge25_Node000014_Node000002"><a xlink:title=" ">
<path fill="none" stroke="#63b8ff" d="M392.12,-165.58C384.73,-158.15 373.91,-147.29 364.83,-138.16"/>
<polygon fill="#63b8ff" stroke="#63b8ff" points="367.42,-135.8 357.88,-131.18 362.46,-140.74 367.42,-135.8"/>
</a>
</g>
</g>
<!-- Node14&#45;&gt;Node3 -->
<g id="edge24_Node000014_Node000003" class="edge">
<title>Node14&#45;&gt;Node3</title>
<g id="a_edge24_Node000014_Node000003"><a xlink:title=" ">
<path fill="none" stroke="#63b8ff" d="M398.17,-165.5C392.9,-148.17 381.14,-109.48 373.92,-85.74"/>
<polygon fill="#63b8ff" stroke="#63b8ff" points="377.31,-84.87 371.05,-76.32 370.61,-86.91 377.31,-84.87"/>
</a>
</g>
</g>
<!-- Node15&#45;&gt;Node2 -->
<g id="edge28_Node000015_Node000002" class="edge">
<title>Node15&#45;&gt;Node2</title>
<g id="a_edge28_Node000015_Node000002"><a xlink:title=" ">
<path fill="none" stroke="#63b8ff" d="M524.7,-167.74C486.76,-157.74 415.18,-138.87 375.72,-128.47"/>
<polygon fill="#63b8ff" stroke="#63b8ff" points="376.84,-125.14 366.28,-125.98 375.05,-131.91 376.84,-125.14"/>
</a>
</g>
</g>
<!-- Node15&#45;&gt;Node3 -->
<g id="edge27_Node000015_Node000003" class="edge">
<title>Node15&#45;&gt;Node3</title>
<g id="a_edge27_Node000015_Node000003"><a xlink:title=" ">
<path fill="none" stroke="#63b8ff" d="M534.67,-165.31C503.36,-146.64 431.39,-103.74 393.03,-80.87"/>
<polygon fill="#63b8ff" stroke="#63b8ff" points="394.85,-77.88 384.46,-75.76 391.26,-83.89 394.85,-77.88"/>
</a>
</g>
</g>
<!-- Node16 -->
<g id="Node000016" class="node">
<title>Node16</title>
<g id="a_Node000016"><a xlink:href="io__common_8h.html" target="_top" xlink:title=" ">
<polygon fill="white" stroke="#666666" points="698.75,-129.75 625,-129.75 625,-110.5 698.75,-110.5 698.75,-129.75"/>
<text text-anchor="middle" x="661.88" y="-116.25" font-family="Helvetica,sans-Serif" font-size="10.00">io_common.h</text>
</a>
</g>
</g>
<!-- Node15&#45;&gt;Node16 -->
<g id="edge29_Node000015_Node000016" class="edge">
<title>Node15&#45;&gt;Node16</title>
<g id="a_edge29_Node000015_Node000016"><a xlink:title=" ">
<path fill="none" stroke="#63b8ff" d="M568.87,-165.34C586.33,-157.04 612.47,-144.61 632.6,-135.04"/>
<polygon fill="#63b8ff" stroke="#63b8ff" points="633.89,-138.31 641.42,-130.85 630.88,-131.99 633.89,-138.31"/>
</a>
</g>
</g>
<!-- Node17 -->
<g id="Node000017" class="node">
<title>Node17</title>
<g id="a_Node000017"><a xlink:href="fcntl_8h_source.html" target="_top" xlink:title=" ">
<polygon fill="white" stroke="#666666" points="733,-74.5 672.75,-74.5 672.75,-55.25 733,-55.25 733,-74.5"/>
<text text-anchor="middle" x="702.88" y="-61" font-family="Helvetica,sans-Serif" font-size="10.00">sys/fcntl.h</text>
</a>
</g>
</g>
<!-- Node16&#45;&gt;Node17 -->
<g id="edge30_Node000016_Node000017" class="edge">
<title>Node16&#45;&gt;Node17</title>
<g id="a_edge30_Node000016_Node000017"><a xlink:title=" ">
<path fill="none" stroke="#63b8ff" d="M668.65,-110.33C674.19,-103.13 682.22,-92.71 689.1,-83.76"/>
<polygon fill="#63b8ff" stroke="#63b8ff" points="691.71,-86.12 695.03,-76.06 686.16,-81.85 691.71,-86.12"/>
</a>
</g>
</g>
<!-- Node18 -->
<g id="Node000018" class="node">
<title>Node18</title>
<g id="a_Node000018"><a xlink:href="unistd_8h_source.html" target="_top" xlink:title=" ">
<polygon fill="white" stroke="#666666" points="654.75,-74.5 587,-74.5 587,-55.25 654.75,-55.25 654.75,-74.5"/>
<text text-anchor="middle" x="620.88" y="-61" font-family="Helvetica,sans-Serif" font-size="10.00">sys/unistd.h</text>
</a>
</g>
</g>
<!-- Node16&#45;&gt;Node18 -->
<g id="edge31_Node000016_Node000018" class="edge">
<title>Node16&#45;&gt;Node18</title>
<g id="a_edge31_Node000016_Node000018"><a xlink:title=" ">
<path fill="none" stroke="#63b8ff" d="M655.1,-110.33C649.56,-103.13 641.53,-92.71 634.65,-83.76"/>
<polygon fill="#63b8ff" stroke="#63b8ff" points="637.59,-81.85 628.72,-76.06 632.04,-86.12 637.59,-81.85"/>
</a>
</g>
</g>
<!-- Node20 -->
<g id="Node000020" class="node">
<title>Node20</title>
<g id="a_Node000020"><a xlink:href="sio2man_8h.html" target="_top" xlink:title=" ">
<polygon fill="white" stroke="#666666" points="653,-185 592.75,-185 592.75,-165.75 653,-165.75 653,-185"/>
<text text-anchor="middle" x="622.88" y="-171.5" font-family="Helvetica,sans-Serif" font-size="10.00">sio2man.h</text>
</a>
</g>
</g>
<!-- Node19&#45;&gt;Node20 -->
<g id="edge33_Node000019_Node000020" class="edge">
<title>Node19&#45;&gt;Node20</title>
<g id="a_edge33_Node000019_Node000020"><a xlink:title=" ">
<path fill="none" stroke="#63b8ff" d="M594.49,-220.83C598.99,-213.78 605.46,-203.65 611.09,-194.83"/>
<polygon fill="#63b8ff" stroke="#63b8ff" points="613.89,-196.95 616.32,-186.63 607.99,-193.18 613.89,-196.95"/>
</a>
</g>
</g>
<!-- Node20&#45;&gt;Node2 -->
<g id="edge35_Node000020_Node000002" class="edge">
<title>Node20&#45;&gt;Node2</title>
<g id="a_edge35_Node000020_Node000002"><a xlink:title=" ">
<path fill="none" stroke="#63b8ff" d="M592.66,-167.6C589.69,-166.96 586.73,-166.34 583.88,-165.75 509.01,-150.4 420.39,-134.16 376.07,-126.17"/>
<polygon fill="#63b8ff" stroke="#63b8ff" points="376.75,-122.73 366.28,-124.41 375.51,-129.62 376.75,-122.73"/>
</a>
</g>
</g>
<!-- Node20&#45;&gt;Node7 -->
<g id="edge34_Node000020_Node000007" class="edge">
<title>Node20&#45;&gt;Node7</title>
<g id="a_edge34_Node000020_Node000007"><a xlink:title=" ">
<path fill="none" stroke="#63b8ff" d="M642.72,-165.34C661.04,-157 688.52,-144.5 709.58,-134.91"/>
<polygon fill="#63b8ff" stroke="#63b8ff" points="710.9,-138.16 718.55,-130.83 708,-131.79 710.9,-138.16"/>
</a>
</g>
</g>
</g>
</svg>

<g id="navigator" transform="translate(0 0)" fill="#404254">
  <rect fill="#f2f5e9" fill-opacity="0.5" stroke="#606060" stroke-width=".5" x="0" y="0" width="60" height="60"/>
  <use id="zoomplus" xlink:href="#zoomPlus" x="17" y="9" onmousedown="handleZoom(evt,'in')"/>
  <use id="zoomminus" xlink:href="#zoomMin" x="42" y="9" onmousedown="handleZoom(evt,'out')"/>
  <use id="reset" xlink:href="#resetDef" x="30" y="36" onmousedown="handleReset()"/>
   <use id="arrowup" xlink:href="#arrowUp" x="0" y="0" onmousedown="handlePan(0,-1)"/>
  <use id="arrowright" xlink:href="#arrowRight" x="0" y="0" onmousedown="handlePan(1,0)"/>
  <use id="arrowdown" xlink:href="#arrowDown" x="0" y="0" onmousedown="handlePan(0,1)"/>
  <use id="arrowleft" xlink:href="#arrowLeft" x="0" y="0" onmousedown="handlePan(-1,0)"/>
</g>
<svg viewBox="0 0 15 15" width="100%" height="30px" preserveAspectRatio="xMaxYMin meet">
 <g id="arrow_out" transform="scale(0.3 0.3)">
  <a xlink:href="sio2man_8c__incl_org.svg" target="_base">
   <rect id="button" ry="5" rx="5" y="6" x="6" height="38" width="38"
        fill="#f2f5e9" fill-opacity="0.5" stroke="#606060" stroke-width="1.0"/>
   <path id="arrow"
     d="M 11.500037,31.436501 C 11.940474,20.09759 22.043105,11.32322 32.158766,21.979434 L 37.068811,17.246167 C 37.068811,17.246167 37.088388,32 37.088388,32 L 22.160133,31.978069 C 22.160133,31.978069 26.997745,27.140456 26.997745,27.140456 C 18.528582,18.264221 13.291696,25.230495 11.500037,31.436501 z"
     style="fill:#404040;"/>
  </a>
 </g>
</svg>

<style type='text/css'>
<![CDATA[
[data-mouse-over-selected='false'] { opacity: 0.7; }
[data-mouse-over-selected='true']  { opacity: 1.0; }
]]>
</style>
<script type="application/ecmascript"><![CDATA[
document.addEventListener('DOMContentLoaded', (event) => {
  highlightEdges();
  highlightAdjacentNodes();
});
]]></script>
</svg>
