<?xml version="1.0" encoding="UTF-8" standalone="no"?>
<!DOCTYPE svg PUBLIC "-//W3C//DTD SVG 1.1//EN"
 "http://www.w3.org/Graphics/SVG/1.1/DTD/svg11.dtd">
<!-- Generated by graphviz version 2.43.0 (0)
 -->
<!-- Title: iop/system/sio2man/include/sio2man.h Pages: 1 -->
<svg width="2027pt" height="240pt"
 viewBox="0.00 0.00 2026.50 240.00" xmlns="http://www.w3.org/2000/svg" xmlns:xlink="http://www.w3.org/1999/xlink">
<g id="graph0" class="graph" transform="scale(1 1) rotate(0) translate(4 236)">
<title>iop/system/sio2man/include/sio2man.h</title>
<polygon fill="white" stroke="transparent" points="-4,4 -4,-236 2022.5,-236 2022.5,4 -4,4"/>
<!-- Node1 -->
<g id="node1" class="node">
<title>Node1</title>
<g id="a_node1"><a xlink:title=" ">
<polygon fill="#bfbfbf" stroke="black" points="887.5,-201.5 887.5,-231.5 1003.5,-231.5 1003.5,-201.5 887.5,-201.5"/>
<text text-anchor="start" x="895.5" y="-219.5" font-family="Helvetica,sans-Serif" font-size="10.00">iop/system/sio2man</text>
<text text-anchor="middle" x="945.5" y="-208.5" font-family="Helvetica,sans-Serif" font-size="10.00">/include/sio2man.h</text>
</a>
</g>
</g>
<!-- Node2 -->
<g id="node2" class="node">
<title>Node2</title>
<g id="a_node2"><a xlink:href="iop_2memorycard_2mcman_2src_2irx__imports_8h_source.html" target="_top" xlink:title=" ">
<polygon fill="white" stroke="black" points="232,-67.5 232,-97.5 369,-97.5 369,-67.5 232,-67.5"/>
<text text-anchor="start" x="240" y="-85.5" font-family="Helvetica,sans-Serif" font-size="10.00">iop/memorycard/mcman</text>
<text text-anchor="middle" x="300.5" y="-74.5" font-family="Helvetica,sans-Serif" font-size="10.00">/src/irx_imports.h</text>
</a>
</g>
</g>
<!-- Node1&#45;&gt;Node2 -->
<g id="edge1" class="edge">
<title>Node1&#45;&gt;Node2</title>
<path fill="none" stroke="midnightblue" d="M877.18,-208.28C806.11,-200.17 691.84,-185.41 594.5,-165 504.56,-146.14 401.49,-115.41 344.4,-97.56"/>
<polygon fill="midnightblue" stroke="midnightblue" points="877.01,-211.79 887.34,-209.43 877.8,-204.83 877.01,-211.79"/>
</g>
<!-- Node3 -->
<g id="node3" class="node">
<title>Node3</title>
<g id="a_node3"><a xlink:href="mcman-internal_8h_source.html" target="_top" xlink:title=" ">
<polygon fill="white" stroke="black" points="387,-67.5 387,-97.5 524,-97.5 524,-67.5 387,-67.5"/>
<text text-anchor="start" x="395" y="-85.5" font-family="Helvetica,sans-Serif" font-size="10.00">iop/memorycard/mcman</text>
<text text-anchor="middle" x="455.5" y="-74.5" font-family="Helvetica,sans-Serif" font-size="10.00">/src/mcman&#45;internal.h</text>
</a>
</g>
</g>
<!-- Node1&#45;&gt;Node3 -->
<g id="edge2" class="edge">
<title>Node1&#45;&gt;Node3</title>
<path fill="none" stroke="midnightblue" d="M877.4,-203.79C827.73,-194.7 758.98,-180.98 699.5,-165 625.31,-145.07 540.67,-115.13 493.11,-97.63"/>
<polygon fill="midnightblue" stroke="midnightblue" points="876.92,-207.26 887.38,-205.6 878.17,-200.37 876.92,-207.26"/>
</g>
<!-- Node10 -->
<g id="node10" class="node">
<title>Node10</title>
<g id="a_node10"><a xlink:href="secrman_8h.html" target="_top" xlink:title=" ">
<polygon fill="white" stroke="black" points="709,-134.5 709,-164.5 828,-164.5 828,-134.5 709,-134.5"/>
<text text-anchor="start" x="717" y="-152.5" font-family="Helvetica,sans-Serif" font-size="10.00">iop/security/secrman</text>
<text text-anchor="middle" x="768.5" y="-141.5" font-family="Helvetica,sans-Serif" font-size="10.00">/include/secrman.h</text>
</a>
</g>
</g>
<!-- Node1&#45;&gt;Node10 -->
<g id="edge9" class="edge">
<title>Node1&#45;&gt;Node10</title>
<path fill="none" stroke="midnightblue" d="M897.35,-197.82C868.9,-187.37 833.37,-174.32 806.83,-164.58"/>
<polygon fill="midnightblue" stroke="midnightblue" points="896.5,-201.23 907.09,-201.4 898.91,-194.66 896.5,-201.23"/>
</g>
<!-- Node14 -->
<g id="node14" class="node">
<title>Node14</title>
<g id="a_node14"><a xlink:href="secrman_8c_source.html" target="_top" xlink:title=" ">
<polygon fill="white" stroke="black" points="1207,-67.5 1207,-97.5 1326,-97.5 1326,-67.5 1207,-67.5"/>
<text text-anchor="start" x="1215" y="-85.5" font-family="Helvetica,sans-Serif" font-size="10.00">iop/security/secrman</text>
<text text-anchor="middle" x="1266.5" y="-74.5" font-family="Helvetica,sans-Serif" font-size="10.00">/src/secrman.c</text>
</a>
</g>
</g>
<!-- Node1&#45;&gt;Node14 -->
<g id="edge18" class="edge">
<title>Node1&#45;&gt;Node14</title>
<path fill="none" stroke="midnightblue" d="M909.86,-195.89C884.1,-179.26 856.84,-154.86 875.5,-134 923.5,-80.33 1126.41,-109.42 1197.5,-98 1200.52,-97.51 1203.61,-96.99 1206.73,-96.43"/>
<polygon fill="midnightblue" stroke="midnightblue" points="908.13,-198.93 918.47,-201.22 911.81,-192.98 908.13,-198.93"/>
</g>
<!-- Node17 -->
<g id="node17" class="node">
<title>Node17</title>
<g id="a_node17"><a xlink:href="sio2man__hook_8c_source.html" target="_top" xlink:title=" ">
<polygon fill="white" stroke="black" points="884.5,-134.5 884.5,-164.5 1006.5,-164.5 1006.5,-134.5 884.5,-134.5"/>
<text text-anchor="start" x="892.5" y="-152.5" font-family="Helvetica,sans-Serif" font-size="10.00">iop/sio/mx4sio_bd/src</text>
<text text-anchor="middle" x="945.5" y="-141.5" font-family="Helvetica,sans-Serif" font-size="10.00">/sio2man_hook.c</text>
</a>
</g>
</g>
<!-- Node1&#45;&gt;Node17 -->
<g id="edge19" class="edge">
<title>Node1&#45;&gt;Node17</title>
<path fill="none" stroke="midnightblue" d="M945.5,-191.11C945.5,-182.15 945.5,-172.32 945.5,-164.58"/>
<polygon fill="midnightblue" stroke="midnightblue" points="942,-191.4 945.5,-201.4 949,-191.4 942,-191.4"/>
</g>
<!-- Node18 -->
<g id="node18" class="node">
<title>Node18</title>
<g id="a_node18"><a xlink:href="iop_2system_2padman_2src_2irx__imports_8h_source.html" target="_top" xlink:title=" ">
<polygon fill="white" stroke="black" points="1025,-134.5 1025,-164.5 1156,-164.5 1156,-134.5 1025,-134.5"/>
<text text-anchor="start" x="1033" y="-152.5" font-family="Helvetica,sans-Serif" font-size="10.00">iop/system/padman/src</text>
<text text-anchor="middle" x="1090.5" y="-141.5" font-family="Helvetica,sans-Serif" font-size="10.00">/irx_imports.h</text>
</a>
</g>
</g>
<!-- Node1&#45;&gt;Node18 -->
<g id="edge20" class="edge">
<title>Node1&#45;&gt;Node18</title>
<path fill="none" stroke="midnightblue" d="M986.17,-197.27C1009.26,-186.92 1037.74,-174.15 1059.1,-164.58"/>
<polygon fill="midnightblue" stroke="midnightblue" points="984.66,-194.11 976.96,-201.4 987.52,-200.5 984.66,-194.11"/>
</g>
<!-- Node19 -->
<g id="node19" class="node">
<title>Node19</title>
<g id="a_node19"><a xlink:href="pad_data_8c.html" target="_top" xlink:title=" ">
<polygon fill="white" stroke="black" points="1174,-134.5 1174,-164.5 1305,-164.5 1305,-134.5 1174,-134.5"/>
<text text-anchor="start" x="1182" y="-152.5" font-family="Helvetica,sans-Serif" font-size="10.00">iop/system/padman/src</text>
<text text-anchor="middle" x="1239.5" y="-141.5" font-family="Helvetica,sans-Serif" font-size="10.00">/padData.c</text>
</a>
</g>
</g>
<!-- Node1&#45;&gt;Node19 -->
<g id="edge21" class="edge">
<title>Node1&#45;&gt;Node19</title>
<path fill="none" stroke="midnightblue" d="M1013.45,-200.48C1062.41,-189.65 1128.01,-175.15 1175.93,-164.55"/>
<polygon fill="midnightblue" stroke="midnightblue" points="1012.59,-197.08 1003.58,-202.66 1014.1,-203.92 1012.59,-197.08"/>
</g>
<!-- Node20 -->
<g id="node20" class="node">
<title>Node20</title>
<g id="a_node20"><a xlink:href="log_8h.html" target="_top" xlink:title=" ">
<polygon fill="white" stroke="black" points="1323.5,-134.5 1323.5,-164.5 1439.5,-164.5 1439.5,-134.5 1323.5,-134.5"/>
<text text-anchor="start" x="1331.5" y="-152.5" font-family="Helvetica,sans-Serif" font-size="10.00">iop/system/sio2man</text>
<text text-anchor="middle" x="1381.5" y="-141.5" font-family="Helvetica,sans-Serif" font-size="10.00">/include/log.h</text>
</a>
</g>
</g>
<!-- Node1&#45;&gt;Node20 -->
<g id="edge22" class="edge">
<title>Node1&#45;&gt;Node20</title>
<path fill="none" stroke="midnightblue" d="M1013.83,-207.65C1087.9,-198.79 1209.45,-183.21 1313.5,-165 1316.71,-164.44 1320,-163.83 1323.32,-163.2"/>
<polygon fill="midnightblue" stroke="midnightblue" points="1013.22,-204.2 1003.71,-208.86 1014.05,-211.15 1013.22,-204.2"/>
</g>
<!-- Node21 -->
<g id="node21" class="node">
<title>Node21</title>
<g id="a_node21"><a xlink:href="xsio2man_8h.html" target="_top" xlink:title=" ">
<polygon fill="white" stroke="black" points="1487.5,-134.5 1487.5,-164.5 1603.5,-164.5 1603.5,-134.5 1487.5,-134.5"/>
<text text-anchor="start" x="1495.5" y="-152.5" font-family="Helvetica,sans-Serif" font-size="10.00">iop/system/sio2man</text>
<text text-anchor="middle" x="1545.5" y="-141.5" font-family="Helvetica,sans-Serif" font-size="10.00">/include/xsio2man.h</text>
</a>
</g>
</g>
<!-- Node1&#45;&gt;Node21 -->
<g id="edge23" class="edge">
<title>Node1&#45;&gt;Node21</title>
<path fill="none" stroke="midnightblue" d="M1013.94,-209.69C1110.83,-201.21 1293.47,-184.36 1448.5,-165 1461.09,-163.43 1474.56,-161.54 1487.35,-159.66"/>
<polygon fill="midnightblue" stroke="midnightblue" points="1013.35,-206.22 1003.69,-210.58 1013.96,-213.2 1013.35,-206.22"/>
</g>
<!-- Node4 -->
<g id="node4" class="node">
<title>Node4</title>
<g id="a_node4"><a xlink:href="iop_2memorycard_2mcman_2src_2main_8c_source.html" target="_top" xlink:title=" ">
<polygon fill="white" stroke="black" points="465,-0.5 465,-30.5 602,-30.5 602,-0.5 465,-0.5"/>
<text text-anchor="start" x="473" y="-18.5" font-family="Helvetica,sans-Serif" font-size="10.00">iop/memorycard/mcman</text>
<text text-anchor="middle" x="533.5" y="-7.5" font-family="Helvetica,sans-Serif" font-size="10.00">/src/main.c</text>
</a>
</g>
</g>
<!-- Node3&#45;&gt;Node4 -->
<g id="edge3" class="edge">
<title>Node3&#45;&gt;Node4</title>
<path fill="none" stroke="midnightblue" d="M480.24,-60.88C492.09,-51.01 505.98,-39.43 516.61,-30.58"/>
<polygon fill="midnightblue" stroke="midnightblue" points="477.87,-58.31 472.42,-67.4 482.35,-63.68 477.87,-58.31"/>
</g>
<!-- Node5 -->
<g id="node5" class="node">
<title>Node5</title>
<g id="a_node5"><a xlink:href="mcdev_8c_source.html" target="_top" xlink:title=" ">
<polygon fill="white" stroke="black" points="620,-0.5 620,-30.5 757,-30.5 757,-0.5 620,-0.5"/>
<text text-anchor="start" x="628" y="-18.5" font-family="Helvetica,sans-Serif" font-size="10.00">iop/memorycard/mcman</text>
<text text-anchor="middle" x="688.5" y="-7.5" font-family="Helvetica,sans-Serif" font-size="10.00">/src/mcdev.c</text>
</a>
</g>
</g>
<!-- Node3&#45;&gt;Node5 -->
<g id="edge4" class="edge">
<title>Node3&#45;&gt;Node5</title>
<path fill="none" stroke="midnightblue" d="M515.67,-64.71C553.58,-54.14 601.99,-40.63 637.92,-30.61"/>
<polygon fill="midnightblue" stroke="midnightblue" points="514.46,-61.42 505.77,-67.48 516.34,-68.16 514.46,-61.42"/>
</g>
<!-- Node6 -->
<g id="node6" class="node">
<title>Node6</title>
<g id="a_node6"><a xlink:href="mciomanx__backing_8c_source.html" target="_top" xlink:title=" ">
<polygon fill="white" stroke="black" points="775.5,-0.5 775.5,-30.5 915.5,-30.5 915.5,-0.5 775.5,-0.5"/>
<text text-anchor="start" x="783.5" y="-18.5" font-family="Helvetica,sans-Serif" font-size="10.00">iop/memorycard/mcman</text>
<text text-anchor="middle" x="845.5" y="-7.5" font-family="Helvetica,sans-Serif" font-size="10.00">/src/mciomanx_backing.c</text>
</a>
</g>
</g>
<!-- Node3&#45;&gt;Node6 -->
<g id="edge5" class="edge">
<title>Node3&#45;&gt;Node6</title>
<path fill="none" stroke="midnightblue" d="M534.22,-66.74C637.45,-49.23 665.29,-47.82 765.5,-31 768.7,-30.46 771.97,-29.9 775.28,-29.33"/>
<polygon fill="midnightblue" stroke="midnightblue" points="533.6,-63.29 524.33,-68.42 534.77,-70.19 533.6,-63.29"/>
</g>
<!-- Node7 -->
<g id="node7" class="node">
<title>Node7</title>
<g id="a_node7"><a xlink:href="mcsio2_8c_source.html" target="_top" xlink:title=" ">
<polygon fill="white" stroke="black" points="0,-0.5 0,-30.5 137,-30.5 137,-0.5 0,-0.5"/>
<text text-anchor="start" x="8" y="-18.5" font-family="Helvetica,sans-Serif" font-size="10.00">iop/memorycard/mcman</text>
<text text-anchor="middle" x="68.5" y="-7.5" font-family="Helvetica,sans-Serif" font-size="10.00">/src/mcsio2.c</text>
</a>
</g>
</g>
<!-- Node3&#45;&gt;Node7 -->
<g id="edge6" class="edge">
<title>Node3&#45;&gt;Node7</title>
<path fill="none" stroke="midnightblue" d="M376.68,-66.89C272.98,-49.4 245.23,-48.12 145.5,-31 142.82,-30.54 140.09,-30.06 137.33,-29.57"/>
<polygon fill="midnightblue" stroke="midnightblue" points="376.17,-70.36 386.62,-68.58 377.34,-63.46 376.17,-70.36"/>
</g>
<!-- Node8 -->
<g id="node8" class="node">
<title>Node8</title>
<g id="a_node8"><a xlink:href="ps1mc__fio_8c_source.html" target="_top" xlink:title=" ">
<polygon fill="white" stroke="black" points="155,-0.5 155,-30.5 292,-30.5 292,-0.5 155,-0.5"/>
<text text-anchor="start" x="163" y="-18.5" font-family="Helvetica,sans-Serif" font-size="10.00">iop/memorycard/mcman</text>
<text text-anchor="middle" x="223.5" y="-7.5" font-family="Helvetica,sans-Serif" font-size="10.00">/src/ps1mc_fio.c</text>
</a>
</g>
</g>
<!-- Node3&#45;&gt;Node8 -->
<g id="edge7" class="edge">
<title>Node3&#45;&gt;Node8</title>
<path fill="none" stroke="midnightblue" d="M395.59,-64.71C357.84,-54.14 309.64,-40.63 273.87,-30.61"/>
<polygon fill="midnightblue" stroke="midnightblue" points="394.87,-68.15 405.45,-67.48 396.76,-61.41 394.87,-68.15"/>
</g>
<!-- Node9 -->
<g id="node9" class="node">
<title>Node9</title>
<g id="a_node9"><a xlink:href="ps2mc__fio_8c_source.html" target="_top" xlink:title=" ">
<polygon fill="white" stroke="black" points="310,-0.5 310,-30.5 447,-30.5 447,-0.5 310,-0.5"/>
<text text-anchor="start" x="318" y="-18.5" font-family="Helvetica,sans-Serif" font-size="10.00">iop/memorycard/mcman</text>
<text text-anchor="middle" x="378.5" y="-7.5" font-family="Helvetica,sans-Serif" font-size="10.00">/src/ps2mc_fio.c</text>
</a>
</g>
</g>
<!-- Node3&#45;&gt;Node9 -->
<g id="edge8" class="edge">
<title>Node3&#45;&gt;Node9</title>
<path fill="none" stroke="midnightblue" d="M431.08,-60.88C419.38,-51.01 405.66,-39.43 395.18,-30.58"/>
<polygon fill="midnightblue" stroke="midnightblue" points="428.89,-63.62 438.79,-67.4 433.41,-58.27 428.89,-63.62"/>
</g>
<!-- Node10&#45;&gt;Node2 -->
<g id="edge10" class="edge">
<title>Node10&#45;&gt;Node2</title>
<path fill="none" stroke="midnightblue" d="M698.5,-140.69C620.12,-131.66 489.42,-115.75 377.5,-98 374.81,-97.57 372.08,-97.13 369.31,-96.66"/>
<polygon fill="midnightblue" stroke="midnightblue" points="698.39,-144.2 708.73,-141.87 699.19,-137.25 698.39,-144.2"/>
</g>
<!-- Node10&#45;&gt;Node3 -->
<g id="edge11" class="edge">
<title>Node10&#45;&gt;Node3</title>
<path fill="none" stroke="midnightblue" d="M699,-134.07C646.55,-123.18 575,-108.32 523.04,-97.53"/>
<polygon fill="midnightblue" stroke="midnightblue" points="698.39,-137.51 708.89,-136.12 699.81,-130.66 698.39,-137.51"/>
</g>
<!-- Node11 -->
<g id="node11" class="node">
<title>Node11</title>
<g id="a_node11"><a xlink:href="_card_auth_8c_source.html" target="_top" xlink:title=" ">
<polygon fill="white" stroke="black" points="1070,-67.5 1070,-97.5 1189,-97.5 1189,-67.5 1070,-67.5"/>
<text text-anchor="start" x="1078" y="-85.5" font-family="Helvetica,sans-Serif" font-size="10.00">iop/security/secrman</text>
<text text-anchor="middle" x="1129.5" y="-74.5" font-family="Helvetica,sans-Serif" font-size="10.00">/src/CardAuth.c</text>
</a>
</g>
</g>
<!-- Node10&#45;&gt;Node11 -->
<g id="edge12" class="edge">
<title>Node10&#45;&gt;Node11</title>
<path fill="none" stroke="midnightblue" d="M838.11,-134.8C839.59,-134.53 841.05,-134.26 842.5,-134 939.14,-116.56 963.98,-116.1 1060.5,-98 1063.51,-97.44 1066.59,-96.84 1069.69,-96.23"/>
<polygon fill="midnightblue" stroke="midnightblue" points="837.44,-131.36 828.25,-136.63 838.72,-138.25 837.44,-131.36"/>
</g>
<!-- Node12 -->
<g id="node12" class="node">
<title>Node12</title>
<g id="a_node12"><a xlink:href="keyman_8c_source.html" target="_top" xlink:title=" ">
<polygon fill="white" stroke="black" points="542,-67.5 542,-97.5 661,-97.5 661,-67.5 542,-67.5"/>
<text text-anchor="start" x="550" y="-85.5" font-family="Helvetica,sans-Serif" font-size="10.00">iop/security/secrman</text>
<text text-anchor="middle" x="601.5" y="-74.5" font-family="Helvetica,sans-Serif" font-size="10.00">/src/keyman.c</text>
</a>
</g>
</g>
<!-- Node10&#45;&gt;Node12 -->
<g id="edge13" class="edge">
<title>Node10&#45;&gt;Node12</title>
<path fill="none" stroke="midnightblue" d="M722.72,-130.68C695.94,-120.26 662.6,-107.28 637.67,-97.58"/>
<polygon fill="midnightblue" stroke="midnightblue" points="721.67,-134.03 732.26,-134.4 724.21,-127.51 721.67,-134.03"/>
</g>
<!-- Node13 -->
<g id="node13" class="node">
<title>Node13</title>
<g id="a_node13"><a xlink:href="_mecha_auth_8c_source.html" target="_top" xlink:title=" ">
<polygon fill="white" stroke="black" points="679,-67.5 679,-97.5 798,-97.5 798,-67.5 679,-67.5"/>
<text text-anchor="start" x="687" y="-85.5" font-family="Helvetica,sans-Serif" font-size="10.00">iop/security/secrman</text>
<text text-anchor="middle" x="738.5" y="-74.5" font-family="Helvetica,sans-Serif" font-size="10.00">/src/MechaAuth.c</text>
</a>
</g>
</g>
<!-- Node10&#45;&gt;Node13 -->
<g id="edge14" class="edge">
<title>Node10&#45;&gt;Node13</title>
<path fill="none" stroke="midnightblue" d="M757.78,-125.28C753.51,-116.02 748.73,-105.66 745,-97.58"/>
<polygon fill="midnightblue" stroke="midnightblue" points="754.62,-126.78 761.99,-134.4 760.98,-123.85 754.62,-126.78"/>
</g>
<!-- Node10&#45;&gt;Node14 -->
<g id="edge15" class="edge">
<title>Node10&#45;&gt;Node14</title>
<path fill="none" stroke="midnightblue" d="M838.09,-134.67C839.57,-134.44 841.04,-134.22 842.5,-134 999.37,-110.73 1040.79,-122.34 1197.5,-98 1200.52,-97.53 1203.62,-97.01 1206.73,-96.46"/>
<polygon fill="midnightblue" stroke="midnightblue" points="837.49,-131.23 828.19,-136.31 838.63,-138.13 837.49,-131.23"/>
</g>
<!-- Node15 -->
<g id="node15" class="node">
<title>Node15</title>
<g id="a_node15"><a xlink:href="iop_2security_2secrsif_2src_2irx__imports_8h_source.html" target="_top" xlink:title=" ">
<polygon fill="white" stroke="black" points="816,-67.5 816,-97.5 925,-97.5 925,-67.5 816,-67.5"/>
<text text-anchor="start" x="824" y="-85.5" font-family="Helvetica,sans-Serif" font-size="10.00">iop/security/secrsif</text>
<text text-anchor="middle" x="870.5" y="-74.5" font-family="Helvetica,sans-Serif" font-size="10.00">/src/irx_imports.h</text>
</a>
</g>
</g>
<!-- Node10&#45;&gt;Node15 -->
<g id="edge16" class="edge">
<title>Node10&#45;&gt;Node15</title>
<path fill="none" stroke="midnightblue" d="M799.08,-129.02C814.95,-118.9 833.98,-106.77 848.41,-97.58"/>
<polygon fill="midnightblue" stroke="midnightblue" points="797.18,-126.07 790.63,-134.4 800.95,-131.97 797.18,-126.07"/>
</g>
<!-- Node16 -->
<g id="node16" class="node">
<title>Node16</title>
<g id="a_node16"><a xlink:href="secrsif_8c_source.html" target="_top" xlink:title=" ">
<polygon fill="white" stroke="black" points="943,-67.5 943,-97.5 1052,-97.5 1052,-67.5 943,-67.5"/>
<text text-anchor="start" x="951" y="-85.5" font-family="Helvetica,sans-Serif" font-size="10.00">iop/security/secrsif</text>
<text text-anchor="middle" x="997.5" y="-74.5" font-family="Helvetica,sans-Serif" font-size="10.00">/src/secrsif.c</text>
</a>
</g>
</g>
<!-- Node10&#45;&gt;Node16 -->
<g id="edge17" class="edge">
<title>Node10&#45;&gt;Node16</title>
<path fill="none" stroke="midnightblue" d="M827.64,-131.71C864.9,-121.14 912.47,-107.63 947.79,-97.61"/>
<polygon fill="midnightblue" stroke="midnightblue" points="826.57,-128.38 817.91,-134.48 828.48,-135.11 826.57,-128.38"/>
</g>
<!-- Node22 -->
<g id="node22" class="node">
<title>Node22</title>
<g id="a_node22"><a xlink:href="mx4sio_8c_source.html" target="_top" xlink:title=" ">
<polygon fill="white" stroke="black" points="1344.5,-67.5 1344.5,-97.5 1466.5,-97.5 1466.5,-67.5 1344.5,-67.5"/>
<text text-anchor="start" x="1352.5" y="-85.5" font-family="Helvetica,sans-Serif" font-size="10.00">iop/sio/mx4sio_bd/src</text>
<text text-anchor="middle" x="1405.5" y="-74.5" font-family="Helvetica,sans-Serif" font-size="10.00">/mx4sio.c</text>
</a>
</g>
</g>
<!-- Node21&#45;&gt;Node22 -->
<g id="edge24" class="edge">
<title>Node21&#45;&gt;Node22</title>
<path fill="none" stroke="midnightblue" d="M1505.93,-130.13C1483.69,-119.8 1456.35,-107.11 1435.82,-97.58"/>
<polygon fill="midnightblue" stroke="midnightblue" points="1504.58,-133.36 1515.12,-134.4 1507.53,-127.01 1504.58,-133.36"/>
</g>
<!-- Node23 -->
<g id="node23" class="node">
<title>Node23</title>
<g id="a_node23"><a xlink:href="freemtap_8c.html" target="_top" xlink:title=" ">
<polygon fill="white" stroke="black" points="1485,-67.5 1485,-97.5 1606,-97.5 1606,-67.5 1485,-67.5"/>
<text text-anchor="start" x="1493" y="-85.5" font-family="Helvetica,sans-Serif" font-size="10.00">iop/system/mtapman</text>
<text text-anchor="middle" x="1545.5" y="-74.5" font-family="Helvetica,sans-Serif" font-size="10.00">/src/freemtap.c</text>
</a>
</g>
</g>
<!-- Node21&#45;&gt;Node23 -->
<g id="edge25" class="edge">
<title>Node21&#45;&gt;Node23</title>
<path fill="none" stroke="midnightblue" d="M1545.5,-124.11C1545.5,-115.15 1545.5,-105.32 1545.5,-97.58"/>
<polygon fill="midnightblue" stroke="midnightblue" points="1542,-124.4 1545.5,-134.4 1549,-124.4 1542,-124.4"/>
</g>
<!-- Node24 -->
<g id="node24" class="node">
<title>Node24</title>
<g id="a_node24"><a xlink:href="iop_2system_2mtapman_2src_2irx__imports_8h_source.html" target="_top" xlink:title=" ">
<polygon fill="white" stroke="black" points="1624,-67.5 1624,-97.5 1745,-97.5 1745,-67.5 1624,-67.5"/>
<text text-anchor="start" x="1632" y="-85.5" font-family="Helvetica,sans-Serif" font-size="10.00">iop/system/mtapman</text>
<text text-anchor="middle" x="1684.5" y="-74.5" font-family="Helvetica,sans-Serif" font-size="10.00">/src/irx_imports.h</text>
</a>
</g>
</g>
<!-- Node21&#45;&gt;Node24 -->
<g id="edge26" class="edge">
<title>Node21&#45;&gt;Node24</title>
<path fill="none" stroke="midnightblue" d="M1584.78,-130.13C1606.87,-119.8 1634.01,-107.11 1654.4,-97.58"/>
<polygon fill="midnightblue" stroke="midnightblue" points="1583.24,-126.99 1575.66,-134.4 1586.2,-133.33 1583.24,-126.99"/>
</g>
<!-- Node25 -->
<g id="node25" class="node">
<title>Node25</title>
<g id="a_node25"><a xlink:href="rsio2man_8h.html" target="_top" xlink:title=" ">
<polygon fill="white" stroke="black" points="1763.5,-67.5 1763.5,-97.5 1879.5,-97.5 1879.5,-67.5 1763.5,-67.5"/>
<text text-anchor="start" x="1771.5" y="-85.5" font-family="Helvetica,sans-Serif" font-size="10.00">iop/system/sio2man</text>
<text text-anchor="middle" x="1821.5" y="-74.5" font-family="Helvetica,sans-Serif" font-size="10.00">/include/rsio2man.h</text>
</a>
</g>
</g>
<!-- Node21&#45;&gt;Node25 -->
<g id="edge27" class="edge">
<title>Node21&#45;&gt;Node25</title>
<path fill="none" stroke="midnightblue" d="M1613.58,-132.47C1659.57,-121.64 1719.64,-107.49 1763.38,-97.19"/>
<polygon fill="midnightblue" stroke="midnightblue" points="1612.63,-129.1 1603.7,-134.79 1614.23,-135.91 1612.63,-129.1"/>
</g>
<!-- Node26 -->
<g id="node26" class="node">
<title>Node26</title>
<g id="a_node26"><a xlink:href="iop_2system_2rmman_2src_2irx__imports_8h_source.html" target="_top" xlink:title=" ">
<polygon fill="white" stroke="black" points="1614.5,-0.5 1614.5,-30.5 1740.5,-30.5 1740.5,-0.5 1614.5,-0.5"/>
<text text-anchor="start" x="1622.5" y="-18.5" font-family="Helvetica,sans-Serif" font-size="10.00">iop/system/rmman/src</text>
<text text-anchor="middle" x="1677.5" y="-7.5" font-family="Helvetica,sans-Serif" font-size="10.00">/irx_imports.h</text>
</a>
</g>
</g>
<!-- Node25&#45;&gt;Node26 -->
<g id="edge28" class="edge">
<title>Node25&#45;&gt;Node26</title>
<path fill="none" stroke="midnightblue" d="M1781.11,-63.27C1758.18,-52.92 1729.9,-40.15 1708.68,-30.58"/>
<polygon fill="midnightblue" stroke="midnightblue" points="1779.7,-66.47 1790.25,-67.4 1782.58,-60.09 1779.7,-66.47"/>
</g>
<!-- Node27 -->
<g id="node27" class="node">
<title>Node27</title>
<g id="a_node27"><a xlink:href="rmman_8c_source.html" target="_top" xlink:title=" ">
<polygon fill="white" stroke="black" points="1758.5,-0.5 1758.5,-30.5 1884.5,-30.5 1884.5,-0.5 1758.5,-0.5"/>
<text text-anchor="start" x="1766.5" y="-18.5" font-family="Helvetica,sans-Serif" font-size="10.00">iop/system/rmman/src</text>
<text text-anchor="middle" x="1821.5" y="-7.5" font-family="Helvetica,sans-Serif" font-size="10.00">/rmman.c</text>
</a>
</g>
</g>
<!-- Node25&#45;&gt;Node27 -->
<g id="edge29" class="edge">
<title>Node25&#45;&gt;Node27</title>
<path fill="none" stroke="midnightblue" d="M1821.5,-57.11C1821.5,-48.15 1821.5,-38.32 1821.5,-30.58"/>
<polygon fill="midnightblue" stroke="midnightblue" points="1818,-57.4 1821.5,-67.4 1825,-57.4 1818,-57.4"/>
</g>
<!-- Node28 -->
<g id="node28" class="node">
<title>Node28</title>
<g id="a_node28"><a xlink:href="sio2man_8c.html" target="_top" xlink:title=" ">
<polygon fill="white" stroke="black" points="1902.5,-0.5 1902.5,-30.5 2018.5,-30.5 2018.5,-0.5 1902.5,-0.5"/>
<text text-anchor="start" x="1910.5" y="-18.5" font-family="Helvetica,sans-Serif" font-size="10.00">iop/system/sio2man</text>
<text text-anchor="middle" x="1960.5" y="-7.5" font-family="Helvetica,sans-Serif" font-size="10.00">/src/sio2man.c</text>
</a>
</g>
</g>
<!-- Node25&#45;&gt;Node28 -->
<g id="edge30" class="edge">
<title>Node25&#45;&gt;Node28</title>
<path fill="none" stroke="midnightblue" d="M1860.78,-63.13C1882.87,-52.8 1910.01,-40.11 1930.4,-30.58"/>
<polygon fill="midnightblue" stroke="midnightblue" points="1859.24,-59.99 1851.66,-67.4 1862.2,-66.33 1859.24,-59.99"/>
</g>
</g>
</svg>
