<?xml version="1.0" encoding="UTF-8" standalone="no"?>
<!DOCTYPE svg PUBLIC "-//W3C//DTD SVG 1.1//EN"
 "http://www.w3.org/Graphics/SVG/1.1/DTD/svg11.dtd">
<!-- Generated by graphviz version 2.43.0 (0)
 -->
<!-- Title: ee/kernel/src/sio.c Pages: 1 -->
<!--zoomable 308 -->
<svg id="main" version="1.1" xmlns="http://www.w3.org/2000/svg" xmlns:xlink="http://www.w3.org/1999/xlink" xml:space="preserve" onload="init(evt)">
<style type="text/css"><![CDATA[
.edge:hover path { stroke: red; }
.edge:hover polygon { stroke: red; fill: red; }
]]></style>
<script type="text/javascript"><![CDATA[
var edges = document.getElementsByTagName('g');
if (edges && edges.length) {
  for (var i=0;i<edges.length;i++) {
    if (edges[i].id.substr(0,4)=='edge') {
      edges[i].setAttribute('class','edge');
    }
  }
}
]]></script>
        <defs>
                <circle id="rim" cx="0" cy="0" r="7"/>
                <circle id="rim2" cx="0" cy="0" r="3.5"/>
                <g id="zoomPlus">
                        <use xlink:href="#rim" fill="#404040">
                                <set attributeName="fill" to="#808080" begin="zoomplus.mouseover" end="zoomplus.mouseout"/>
                        </use>
                        <path d="M-4,0h8M0,-4v8" fill="none" stroke="white" stroke-width="1.5" pointer-events="none"/>
                </g>
                <g id="zoomMin">
                        <use xlink:href="#rim" fill="#404040">
                                <set attributeName="fill" to="#808080" begin="zoomminus.mouseover" end="zoomminus.mouseout"/>
                        </use>
                        <path d="M-4,0h8" fill="none" stroke="white" stroke-width="1.5" pointer-events="none"/>
                </g>
                <g id="dirArrow">
                        <path fill="none" stroke="white" stroke-width="1.5" d="M0,-3.0v7 M-2.5,-0.5L0,-3.0L2.5,-0.5"/>
                </g>
               <g id="resetDef">
                       <use xlink:href="#rim2" fill="#404040">
                               <set attributeName="fill" to="#808080" begin="reset.mouseover" end="reset.mouseout"/>
                       </use>
               </g>
        </defs>

<script type="text/javascript">
var viewWidth = 537;
var viewHeight = 308;
var sectionId = 'dynsection-0';
</script>
<script xlink:href="svgpan.js"/>
<svg id="graph" class="graph">
<g id="viewport">
<title>ee/kernel/src/sio.c</title>
<polygon fill="white" stroke="transparent" points="-4,4 -4,-304 533,-304 533,4 -4,4"/>
<!-- Node1 -->
<g id="node1" class="node">
<title>Node1</title>
<g id="a_node1"><a xlink:title=" ">
<polygon fill="#bfbfbf" stroke="black" points="202,-280.5 202,-299.5 306,-299.5 306,-280.5 202,-280.5"/>
<text text-anchor="middle" x="254" y="-287.5" font-family="Helvetica,sans-Serif" font-size="10.00">ee/kernel/src/sio.c</text>
</a>
</g>
</g>
<!-- Node2 -->
<g id="node2" class="node">
<title>Node2</title>
<g id="a_node2"><a xlink:href="stdio_8h.html" target="_top" xlink:title=" ">
<polygon fill="white" stroke="black" points="229,-168.5 229,-187.5 279,-187.5 279,-168.5 229,-168.5"/>
<text text-anchor="middle" x="254" y="-175.5" font-family="Helvetica,sans-Serif" font-size="10.00">stdio.h</text>
</a>
</g>
</g>
<!-- Node1&#45;&gt;Node2 -->
<g id="edge1" class="edge">
<title>Node1&#45;&gt;Node2</title>
<path fill="none" stroke="midnightblue" d="M254,-280.37C254,-262.62 254,-221.67 254,-197.6"/>
<polygon fill="midnightblue" stroke="midnightblue" points="257.5,-197.59 254,-187.59 250.5,-197.59 257.5,-197.59"/>
</g>
<!-- Node3 -->
<g id="node3" class="node">
<title>Node3</title>
<g id="a_node3"><a xlink:title=" ">
<polygon fill="white" stroke="#bfbfbf" points="169,-112.5 169,-131.5 225,-131.5 225,-112.5 169,-112.5"/>
<text text-anchor="middle" x="197" y="-119.5" font-family="Helvetica,sans-Serif" font-size="10.00">stdarg.h</text>
</a>
</g>
</g>
<!-- Node1&#45;&gt;Node3 -->
<g id="edge8" class="edge">
<title>Node1&#45;&gt;Node3</title>
<path fill="none" stroke="midnightblue" d="M250.94,-280.08C241.92,-253.83 215.39,-176.55 203.22,-141.12"/>
<polygon fill="midnightblue" stroke="midnightblue" points="206.5,-139.89 199.94,-131.57 199.88,-142.16 206.5,-139.89"/>
</g>
<!-- Node6 -->
<g id="node6" class="node">
<title>Node6</title>
<g id="a_node6"><a xlink:title=" ">
<polygon fill="white" stroke="#bfbfbf" points="127,-0.5 127,-19.5 183,-19.5 183,-0.5 127,-0.5"/>
<text text-anchor="middle" x="155" y="-7.5" font-family="Helvetica,sans-Serif" font-size="10.00">stddef.h</text>
</a>
</g>
</g>
<!-- Node1&#45;&gt;Node6 -->
<g id="edge7" class="edge">
<title>Node1&#45;&gt;Node6</title>
<path fill="none" stroke="midnightblue" d="M201.99,-288.63C127.68,-285.06 0,-266.22 0,-179 0,-179 0,-179 0,-121 0,-63.67 71.4,-33.49 117.28,-20.01"/>
<polygon fill="midnightblue" stroke="midnightblue" points="118.24,-23.38 126.93,-17.31 116.36,-16.64 118.24,-23.38"/>
</g>
<!-- Node7 -->
<g id="node7" class="node">
<title>Node7</title>
<g id="a_node7"><a xlink:href="tamtypes_8h.html" target="_top" xlink:title=" ">
<polygon fill="white" stroke="black" points="285,-0.5 285,-19.5 357,-19.5 357,-0.5 285,-0.5"/>
<text text-anchor="middle" x="321" y="-7.5" font-family="Helvetica,sans-Serif" font-size="10.00">tamtypes.h</text>
</a>
</g>
</g>
<!-- Node1&#45;&gt;Node7 -->
<g id="edge9" class="edge">
<title>Node1&#45;&gt;Node7</title>
<path fill="none" stroke="midnightblue" d="M300.03,-280.45C378.31,-264.59 529,-227.72 529,-179 529,-179 529,-179 529,-121 529,-48.4 428.76,-23.59 367.45,-15.2"/>
<polygon fill="midnightblue" stroke="midnightblue" points="367.59,-11.69 357.23,-13.9 366.71,-18.64 367.59,-11.69"/>
</g>
<!-- Node8 -->
<g id="node8" class="node">
<title>Node8</title>
<g id="a_node8"><a xlink:href="kernel_8h.html" target="_top" xlink:title=" ">
<polygon fill="white" stroke="black" points="113,-168.5 113,-187.5 169,-187.5 169,-168.5 113,-168.5"/>
<text text-anchor="middle" x="141" y="-175.5" font-family="Helvetica,sans-Serif" font-size="10.00">kernel.h</text>
</a>
</g>
</g>
<!-- Node1&#45;&gt;Node8 -->
<g id="edge10" class="edge">
<title>Node1&#45;&gt;Node8</title>
<path fill="none" stroke="midnightblue" d="M236.47,-280.39C221.38,-272.4 199.63,-259.43 184,-244 169.9,-230.08 157.86,-210.81 150.14,-196.87"/>
<polygon fill="midnightblue" stroke="midnightblue" points="153.1,-195 145.31,-187.82 146.92,-198.29 153.1,-195"/>
</g>
<!-- Node11 -->
<g id="node11" class="node">
<title>Node11</title>
<g id="a_node11"><a xlink:href="string_8h_source.html" target="_top" xlink:title=" ">
<polygon fill="white" stroke="black" points="339.5,-224.5 339.5,-243.5 392.5,-243.5 392.5,-224.5 339.5,-224.5"/>
<text text-anchor="middle" x="366" y="-231.5" font-family="Helvetica,sans-Serif" font-size="10.00">string.h</text>
</a>
</g>
</g>
<!-- Node1&#45;&gt;Node11 -->
<g id="edge17" class="edge">
<title>Node1&#45;&gt;Node11</title>
<path fill="none" stroke="midnightblue" d="M271.99,-280.32C290.04,-271.62 318.05,-258.12 338.8,-248.11"/>
<polygon fill="midnightblue" stroke="midnightblue" points="340.56,-251.15 348.05,-243.65 337.52,-244.84 340.56,-251.15"/>
</g>
<!-- Node16 -->
<g id="node16" class="node">
<title>Node16</title>
<g id="a_node16"><a xlink:href="sio_8h.html" target="_top" xlink:title=" ">
<polygon fill="white" stroke="black" points="334,-56.5 334,-75.5 374,-75.5 374,-56.5 334,-56.5"/>
<text text-anchor="middle" x="354" y="-63.5" font-family="Helvetica,sans-Serif" font-size="10.00">sio.h</text>
</a>
</g>
</g>
<!-- Node1&#45;&gt;Node16 -->
<g id="edge25" class="edge">
<title>Node1&#45;&gt;Node16</title>
<path fill="none" stroke="midnightblue" d="M257.28,-280.38C267.19,-254.49 298.12,-175.29 329,-112 333.51,-102.76 339.01,-92.74 343.7,-84.51"/>
<polygon fill="midnightblue" stroke="midnightblue" points="346.76,-86.22 348.74,-75.82 340.7,-82.72 346.76,-86.22"/>
</g>
<!-- Node2&#45;&gt;Node3 -->
<g id="edge2" class="edge">
<title>Node2&#45;&gt;Node3</title>
<path fill="none" stroke="midnightblue" d="M244.84,-168.32C236.5,-160.42 223.97,-148.55 213.82,-138.94"/>
<polygon fill="midnightblue" stroke="midnightblue" points="215.99,-136.17 206.32,-131.83 211.18,-141.25 215.99,-136.17"/>
</g>
<!-- Node4 -->
<g id="node4" class="node">
<title>Node4</title>
<g id="a_node4"><a xlink:href="irx_8h.html" target="_top" xlink:title=" ">
<polygon fill="white" stroke="black" points="243,-112.5 243,-131.5 281,-131.5 281,-112.5 243,-112.5"/>
<text text-anchor="middle" x="262" y="-119.5" font-family="Helvetica,sans-Serif" font-size="10.00">irx.h</text>
</a>
</g>
</g>
<!-- Node2&#45;&gt;Node4 -->
<g id="edge3" class="edge">
<title>Node2&#45;&gt;Node4</title>
<path fill="none" stroke="midnightblue" d="M255.32,-168.08C256.38,-160.93 257.91,-150.64 259.23,-141.69"/>
<polygon fill="midnightblue" stroke="midnightblue" points="262.7,-142.16 260.7,-131.75 255.78,-141.13 262.7,-142.16"/>
</g>
<!-- Node5 -->
<g id="node5" class="node">
<title>Node5</title>
<g id="a_node5"><a xlink:href="iop_2kernel_2include_2types_8h_source.html" target="_top" xlink:title=" ">
<polygon fill="white" stroke="black" points="262.5,-56.5 262.5,-75.5 315.5,-75.5 315.5,-56.5 262.5,-56.5"/>
<text text-anchor="middle" x="289" y="-63.5" font-family="Helvetica,sans-Serif" font-size="10.00">types.h</text>
</a>
</g>
</g>
<!-- Node4&#45;&gt;Node5 -->
<g id="edge4" class="edge">
<title>Node4&#45;&gt;Node5</title>
<path fill="none" stroke="midnightblue" d="M266.46,-112.08C270.15,-104.69 275.52,-93.95 280.09,-84.81"/>
<polygon fill="midnightblue" stroke="midnightblue" points="283.28,-86.26 284.62,-75.75 277.02,-83.13 283.28,-86.26"/>
</g>
<!-- Node5&#45;&gt;Node6 -->
<g id="edge5" class="edge">
<title>Node5&#45;&gt;Node6</title>
<path fill="none" stroke="midnightblue" d="M267.77,-56.44C245.62,-47.52 210.68,-33.44 185.56,-23.32"/>
<polygon fill="midnightblue" stroke="midnightblue" points="186.72,-20.01 176.13,-19.52 184.1,-26.5 186.72,-20.01"/>
</g>
<!-- Node5&#45;&gt;Node7 -->
<g id="edge6" class="edge">
<title>Node5&#45;&gt;Node7</title>
<path fill="none" stroke="midnightblue" d="M294.28,-56.08C298.71,-48.61 305.16,-37.72 310.62,-28.52"/>
<polygon fill="midnightblue" stroke="midnightblue" points="313.73,-30.14 315.81,-19.75 307.71,-26.57 313.73,-30.14"/>
</g>
<!-- Node8&#45;&gt;Node3 -->
<g id="edge12" class="edge">
<title>Node8&#45;&gt;Node3</title>
<path fill="none" stroke="midnightblue" d="M150,-168.32C158.19,-160.42 170.51,-148.55 180.47,-138.94"/>
<polygon fill="midnightblue" stroke="midnightblue" points="183.07,-141.29 187.84,-131.83 178.21,-136.26 183.07,-141.29"/>
</g>
<!-- Node8&#45;&gt;Node6 -->
<g id="edge11" class="edge">
<title>Node8&#45;&gt;Node6</title>
<path fill="none" stroke="midnightblue" d="M126.74,-168.34C96.19,-148.69 29.39,-99.05 57,-56 70.17,-35.46 95.34,-24.17 116.87,-18.03"/>
<polygon fill="midnightblue" stroke="midnightblue" points="117.95,-21.37 126.77,-15.49 116.21,-14.59 117.95,-21.37"/>
</g>
<!-- Node9 -->
<g id="node9" class="node">
<title>Node9</title>
<g id="a_node9"><a xlink:href="sifdma_8h.html" target="_top" xlink:title=" ">
<polygon fill="white" stroke="black" points="66.5,-56.5 66.5,-75.5 125.5,-75.5 125.5,-56.5 66.5,-56.5"/>
<text text-anchor="middle" x="96" y="-63.5" font-family="Helvetica,sans-Serif" font-size="10.00">sifdma.h</text>
</a>
</g>
</g>
<!-- Node8&#45;&gt;Node9 -->
<g id="edge13" class="edge">
<title>Node8&#45;&gt;Node9</title>
<path fill="none" stroke="midnightblue" d="M137.47,-168.37C130.14,-150.46 113.15,-108.92 103.34,-84.95"/>
<polygon fill="midnightblue" stroke="midnightblue" points="106.54,-83.52 99.51,-75.59 100.06,-86.17 106.54,-83.52"/>
</g>
<!-- Node10 -->
<g id="node10" class="node">
<title>Node10</title>
<g id="a_node10"><a xlink:href="mipscopaccess_8h.html" target="_top" xlink:title=" ">
<polygon fill="white" stroke="black" points="144,-56.5 144,-75.5 244,-75.5 244,-56.5 144,-56.5"/>
<text text-anchor="middle" x="194" y="-63.5" font-family="Helvetica,sans-Serif" font-size="10.00">mipscopaccess.h</text>
</a>
</g>
</g>
<!-- Node8&#45;&gt;Node10 -->
<g id="edge15" class="edge">
<title>Node8&#45;&gt;Node10</title>
<path fill="none" stroke="midnightblue" d="M142.52,-168.21C144.96,-155.36 150.5,-130.91 160,-112 165.16,-101.74 172.72,-91.44 179.41,-83.28"/>
<polygon fill="midnightblue" stroke="midnightblue" points="182.09,-85.54 185.92,-75.66 176.77,-80.99 182.09,-85.54"/>
</g>
<!-- Node9&#45;&gt;Node7 -->
<g id="edge14" class="edge">
<title>Node9&#45;&gt;Node7</title>
<path fill="none" stroke="midnightblue" d="M125.88,-57.83C164.14,-48.65 230.82,-32.64 275.43,-21.94"/>
<polygon fill="midnightblue" stroke="midnightblue" points="276.52,-25.27 285.43,-19.54 274.89,-18.47 276.52,-25.27"/>
</g>
<!-- Node10&#45;&gt;Node7 -->
<g id="edge16" class="edge">
<title>Node10&#45;&gt;Node7</title>
<path fill="none" stroke="midnightblue" d="M214.12,-56.44C235.02,-47.56 267.93,-33.56 291.72,-23.45"/>
<polygon fill="midnightblue" stroke="midnightblue" points="293.14,-26.65 300.97,-19.52 290.4,-20.21 293.14,-26.65"/>
</g>
<!-- Node12 -->
<g id="node12" class="node">
<title>Node12</title>
<g id="a_node12"><a xlink:href="sysclib_8h.html" target="_top" xlink:title=" ">
<polygon fill="white" stroke="black" points="337.5,-168.5 337.5,-187.5 396.5,-187.5 396.5,-168.5 337.5,-168.5"/>
<text text-anchor="middle" x="367" y="-175.5" font-family="Helvetica,sans-Serif" font-size="10.00">sysclib.h</text>
</a>
</g>
</g>
<!-- Node11&#45;&gt;Node12 -->
<g id="edge18" class="edge">
<title>Node11&#45;&gt;Node12</title>
<path fill="none" stroke="midnightblue" d="M366.17,-224.08C366.3,-217.01 366.48,-206.86 366.65,-197.99"/>
<polygon fill="midnightblue" stroke="midnightblue" points="370.15,-197.81 366.84,-187.75 363.15,-197.68 370.15,-197.81"/>
</g>
<!-- Node12&#45;&gt;Node3 -->
<g id="edge21" class="edge">
<title>Node12&#45;&gt;Node3</title>
<path fill="none" stroke="midnightblue" d="M340.06,-168.44C311.34,-159.32 265.67,-144.81 233.68,-134.65"/>
<polygon fill="midnightblue" stroke="midnightblue" points="234.4,-131.21 223.81,-131.52 232.28,-137.88 234.4,-131.21"/>
</g>
<!-- Node12&#45;&gt;Node4 -->
<g id="edge20" class="edge">
<title>Node12&#45;&gt;Node4</title>
<path fill="none" stroke="midnightblue" d="M350.13,-168.32C333.29,-159.66 307.19,-146.24 287.76,-136.25"/>
<polygon fill="midnightblue" stroke="midnightblue" points="289.32,-133.12 278.83,-131.65 286.12,-139.34 289.32,-133.12"/>
</g>
<!-- Node13 -->
<g id="node13" class="node">
<title>Node13</title>
<g id="a_node13"><a xlink:title=" ">
<polygon fill="white" stroke="#bfbfbf" points="447.5,-112.5 447.5,-131.5 500.5,-131.5 500.5,-112.5 447.5,-112.5"/>
<text text-anchor="middle" x="474" y="-119.5" font-family="Helvetica,sans-Serif" font-size="10.00">types.h</text>
</a>
</g>
</g>
<!-- Node12&#45;&gt;Node13 -->
<g id="edge19" class="edge">
<title>Node12&#45;&gt;Node13</title>
<path fill="none" stroke="midnightblue" d="M384.19,-168.32C401.35,-159.66 427.95,-146.24 447.75,-136.25"/>
<polygon fill="midnightblue" stroke="midnightblue" points="449.5,-139.28 456.85,-131.65 446.35,-133.04 449.5,-139.28"/>
</g>
<!-- Node14 -->
<g id="node14" class="node">
<title>Node14</title>
<g id="a_node14"><a xlink:href="setjmp_8h.html" target="_top" xlink:title=" ">
<polygon fill="white" stroke="black" points="392.5,-56.5 392.5,-75.5 451.5,-75.5 451.5,-56.5 392.5,-56.5"/>
<text text-anchor="middle" x="422" y="-63.5" font-family="Helvetica,sans-Serif" font-size="10.00">setjmp.h</text>
</a>
</g>
</g>
<!-- Node12&#45;&gt;Node14 -->
<g id="edge22" class="edge">
<title>Node12&#45;&gt;Node14</title>
<path fill="none" stroke="midnightblue" d="M374.7,-168.24C382.02,-159.54 392.94,-145.58 400,-132 407.73,-117.14 413.61,-98.99 417.33,-85.65"/>
<polygon fill="midnightblue" stroke="midnightblue" points="420.78,-86.32 419.95,-75.75 414.01,-84.53 420.78,-86.32"/>
</g>
<!-- Node15 -->
<g id="node15" class="node">
<title>Node15</title>
<g id="a_node15"><a xlink:href="ctype_8h.html" target="_top" xlink:title=" ">
<polygon fill="white" stroke="black" points="337.5,-112.5 337.5,-131.5 390.5,-131.5 390.5,-112.5 337.5,-112.5"/>
<text text-anchor="middle" x="364" y="-119.5" font-family="Helvetica,sans-Serif" font-size="10.00">ctype.h</text>
</a>
</g>
</g>
<!-- Node12&#45;&gt;Node15 -->
<g id="edge24" class="edge">
<title>Node12&#45;&gt;Node15</title>
<path fill="none" stroke="midnightblue" d="M366.5,-168.08C366.11,-161.01 365.55,-150.86 365.05,-141.99"/>
<polygon fill="midnightblue" stroke="midnightblue" points="368.54,-141.54 364.49,-131.75 361.55,-141.93 368.54,-141.54"/>
</g>
<!-- Node14&#45;&gt;Node7 -->
<g id="edge23" class="edge">
<title>Node14&#45;&gt;Node7</title>
<path fill="none" stroke="midnightblue" d="M405.77,-56.32C389.65,-47.7 364.7,-34.36 346.04,-24.39"/>
<polygon fill="midnightblue" stroke="midnightblue" points="347.66,-21.28 337.19,-19.65 344.36,-27.46 347.66,-21.28"/>
</g>
<!-- Node16&#45;&gt;Node6 -->
<g id="edge27" class="edge">
<title>Node16&#45;&gt;Node6</title>
<path fill="none" stroke="midnightblue" d="M333.75,-58.6C330.82,-57.7 327.84,-56.82 325,-56 279.93,-43.05 227.74,-29.44 193.2,-20.62"/>
<polygon fill="midnightblue" stroke="midnightblue" points="193.63,-17.12 183.08,-18.05 191.9,-23.9 193.63,-17.12"/>
</g>
<!-- Node16&#45;&gt;Node7 -->
<g id="edge26" class="edge">
<title>Node16&#45;&gt;Node7</title>
<path fill="none" stroke="midnightblue" d="M348.55,-56.08C343.99,-48.61 337.33,-37.72 331.71,-28.52"/>
<polygon fill="midnightblue" stroke="midnightblue" points="334.55,-26.46 326.35,-19.75 328.58,-30.11 334.55,-26.46"/>
</g>
</g>
</svg>
        <g id="navigator" transform="translate(0 0)" fill="#404254">
                <rect fill="#f2f5e9" fill-opacity="0.5" stroke="#606060" stroke-width=".5" x="0" y="0" width="60" height="60"/>
                <use id="zoomplus" xlink:href="#zoomPlus" x="17" y="9" onmousedown="handleZoom(evt,'in')"/>
                <use id="zoomminus" xlink:href="#zoomMin" x="42" y="9" onmousedown="handleZoom(evt,'out')"/>
                <use id="reset" xlink:href="#resetDef" x="30" y="36" onmousedown="handleReset()"/>
                <g id="arrowUp" xlink:href="#dirArrow" transform="translate(30 24)" onmousedown="handlePan(0,-1)">
                  <use xlink:href="#rim" fill="#404040">
                        <set attributeName="fill" to="#808080" begin="arrowUp.mouseover" end="arrowUp.mouseout"/>
                  </use>
                  <path fill="none" stroke="white" stroke-width="1.5" d="M0,-3.0v7 M-2.5,-0.5L0,-3.0L2.5,-0.5"/>
                </g>
                <g id="arrowRight" xlink:href="#dirArrow" transform="rotate(90) translate(36 -43)" onmousedown="handlePan(1,0)">
                  <use xlink:href="#rim" fill="#404040">
                        <set attributeName="fill" to="#808080" begin="arrowRight.mouseover" end="arrowRight.mouseout"/>
                  </use>
                  <path fill="none" stroke="white" stroke-width="1.5" d="M0,-3.0v7 M-2.5,-0.5L0,-3.0L2.5,-0.5"/>
                </g>
                <g id="arrowDown" xlink:href="#dirArrow" transform="rotate(180) translate(-30 -48)" onmousedown="handlePan(0,1)">
                  <use xlink:href="#rim" fill="#404040">
                        <set attributeName="fill" to="#808080" begin="arrowDown.mouseover" end="arrowDown.mouseout"/>
                  </use>
                  <path fill="none" stroke="white" stroke-width="1.5" d="M0,-3.0v7 M-2.5,-0.5L0,-3.0L2.5,-0.5"/>
                </g>
                <g id="arrowLeft" xlink:href="#dirArrow" transform="rotate(270) translate(-36 17)" onmousedown="handlePan(-1,0)">
                  <use xlink:href="#rim" fill="#404040">
                        <set attributeName="fill" to="#808080" begin="arrowLeft.mouseover" end="arrowLeft.mouseout"/>
                  </use>
                  <path fill="none" stroke="white" stroke-width="1.5" d="M0,-3.0v7 M-2.5,-0.5L0,-3.0L2.5,-0.5"/>
                </g>
        </g>
        <svg viewBox="0 0 15 15" width="100%" height="30px" preserveAspectRatio="xMaxYMin meet">
         <g id="arrow_out" transform="scale(0.3 0.3)">
          <a xlink:href="sio_8c__incl_org.svg" target="_base">
           <rect id="button" ry="5" rx="5" y="6" x="6" height="38" width="38"
                fill="#f2f5e9" fill-opacity="0.5" stroke="#606060" stroke-width="1.0"/>
           <path id="arrow"
             d="M 11.500037,31.436501 C 11.940474,20.09759 22.043105,11.32322 32.158766,21.979434 L 37.068811,17.246167 C 37.068811,17.246167 37.088388,32 37.088388,32 L 22.160133,31.978069 C 22.160133,31.978069 26.997745,27.140456 26.997745,27.140456 C 18.528582,18.264221 13.291696,25.230495 11.500037,31.436501 z"
             style="fill:#404040;"/>
          </a>
         </g>
        </svg>
</svg>
