<?xml version="1.0" encoding="UTF-8" standalone="no"?>
<!DOCTYPE svg PUBLIC "-//W3C//DTD SVG 1.1//EN"
 "http://www.w3.org/Graphics/SVG/1.1/DTD/svg11.dtd">
<!-- Generated by graphviz version 12.2.0 (20241103.1931)
 -->
<!-- Title: ee/kernel/src/sio.c Pages: 1 -->
<svg width="462pt" height="304pt"
 viewBox="0.00 0.00 462.00 303.50" xmlns="http://www.w3.org/2000/svg" xmlns:xlink="http://www.w3.org/1999/xlink">
<g id="graph0" class="graph" transform="scale(1 1) rotate(0) translate(4 299.5)">
<title>ee/kernel/src/sio.c</title>
<!-- Node1 -->
<g id="Node000001" class="node">
<title>Node1</title>
<g id="a_Node000001"><a xlink:title=" ">
<polygon fill="#999999" stroke="#666666" points="223.75,-295.5 128.25,-295.5 128.25,-276.25 223.75,-276.25 223.75,-295.5"/>
<text text-anchor="middle" x="176" y="-282" font-family="Helvetica,sans-Serif" font-size="10.00">ee/kernel/src/sio.c</text>
</a>
</g>
</g>
<!-- Node2 -->
<g id="Node000002" class="node">
<title>Node2</title>
<g id="a_Node000002"><a xlink:href="stdio_8h.html" target="_top" xlink:title=" ">
<polygon fill="white" stroke="#666666" points="248.25,-185 203.75,-185 203.75,-165.75 248.25,-165.75 248.25,-185"/>
<text text-anchor="middle" x="226" y="-171.5" font-family="Helvetica,sans-Serif" font-size="10.00">stdio.h</text>
</a>
</g>
</g>
<!-- Node1&#45;&gt;Node2 -->
<g id="edge1_Node000001_Node000002" class="edge">
<title>Node1&#45;&gt;Node2</title>
<g id="a_edge1_Node000001_Node000002"><a xlink:title=" ">
<path fill="none" stroke="#63b8ff" d="M180.09,-276C188.15,-258.51 206.23,-219.27 217.15,-195.59"/>
<polygon fill="#63b8ff" stroke="#63b8ff" points="220.21,-197.3 221.22,-186.75 213.85,-194.37 220.21,-197.3"/>
</a>
</g>
</g>
<!-- Node3 -->
<g id="Node000003" class="node">
<title>Node3</title>
<g id="a_Node000003"><a xlink:title=" ">
<polygon fill="#e0e0e0" stroke="#999999" points="207.25,-129.75 156.75,-129.75 156.75,-110.5 207.25,-110.5 207.25,-129.75"/>
<text text-anchor="middle" x="182" y="-116.25" font-family="Helvetica,sans-Serif" font-size="10.00">stdarg.h</text>
</a>
</g>
</g>
<!-- Node1&#45;&gt;Node3 -->
<g id="edge8_Node000001_Node000003" class="edge">
<title>Node1&#45;&gt;Node3</title>
<g id="a_edge8_Node000001_Node000003"><a xlink:title=" ">
<path fill="none" stroke="#63b8ff" d="M176.32,-276.07C177.25,-250.75 179.94,-177.25 181.26,-141.34"/>
<polygon fill="#63b8ff" stroke="#63b8ff" points="184.75,-141.61 181.62,-131.48 177.76,-141.35 184.75,-141.61"/>
</a>
</g>
</g>
<!-- Node6 -->
<g id="Node000006" class="node">
<title>Node6</title>
<g id="a_Node000006"><a xlink:title=" ">
<polygon fill="#e0e0e0" stroke="#999999" points="94.25,-19.25 43.75,-19.25 43.75,0 94.25,0 94.25,-19.25"/>
<text text-anchor="middle" x="69" y="-5.75" font-family="Helvetica,sans-Serif" font-size="10.00">stddef.h</text>
</a>
</g>
</g>
<!-- Node1&#45;&gt;Node6 -->
<g id="edge7_Node000001_Node000006" class="edge">
<title>Node1&#45;&gt;Node6</title>
<g id="a_edge7_Node000001_Node000006"><a xlink:title=" ">
<path fill="none" stroke="#63b8ff" d="M127.91,-276.6C75.8,-264.56 0,-236.68 0,-176.38 0,-176.38 0,-176.38 0,-119.12 0,-89.51 3.13,-80.26 19,-55.25 26.02,-44.2 36.52,-34.24 46.09,-26.55"/>
<polygon fill="#63b8ff" stroke="#63b8ff" points="48.13,-29.4 53.99,-20.58 43.9,-23.82 48.13,-29.4"/>
</a>
</g>
</g>
<!-- Node7 -->
<g id="Node000007" class="node">
<title>Node7</title>
<g id="a_Node000007"><a xlink:href="tamtypes_8h.html" target="_top" xlink:title=" ">
<polygon fill="white" stroke="#666666" points="249.62,-19.25 186.38,-19.25 186.38,0 249.62,0 249.62,-19.25"/>
<text text-anchor="middle" x="218" y="-5.75" font-family="Helvetica,sans-Serif" font-size="10.00">tamtypes.h</text>
</a>
</g>
</g>
<!-- Node1&#45;&gt;Node7 -->
<g id="edge9_Node000001_Node000007" class="edge">
<title>Node1&#45;&gt;Node7</title>
<g id="a_edge9_Node000001_Node000007"><a xlink:title=" ">
<path fill="none" stroke="#63b8ff" d="M224.11,-276.35C303.67,-260.86 454,-225.14 454,-176.38 454,-176.38 454,-176.38 454,-119.12 454,-35.15 329.11,-15.93 261.04,-11.7"/>
<polygon fill="#63b8ff" stroke="#63b8ff" points="261.51,-8.22 251.34,-11.18 261.14,-15.21 261.51,-8.22"/>
</a>
</g>
</g>
<!-- Node8 -->
<g id="Node000008" class="node">
<title>Node8</title>
<g id="a_Node000008"><a xlink:href="kernel_8h.html" target="_top" xlink:title=" ">
<polygon fill="white" stroke="#666666" points="147.88,-185 98.12,-185 98.12,-165.75 147.88,-165.75 147.88,-185"/>
<text text-anchor="middle" x="123" y="-171.5" font-family="Helvetica,sans-Serif" font-size="10.00">kernel.h</text>
</a>
</g>
</g>
<!-- Node1&#45;&gt;Node8 -->
<g id="edge10_Node000001_Node000008" class="edge">
<title>Node1&#45;&gt;Node8</title>
<g id="a_edge10_Node000001_Node000008"><a xlink:title=" ">
<path fill="none" stroke="#63b8ff" d="M171.66,-276C163.12,-258.51 143.95,-219.27 132.38,-195.59"/>
<polygon fill="#63b8ff" stroke="#63b8ff" points="135.6,-194.19 128.06,-186.74 129.31,-197.26 135.6,-194.19"/>
</a>
</g>
</g>
<!-- Node10 -->
<g id="Node000010" class="node">
<title>Node10</title>
<g id="a_Node000010"><a xlink:href="string_8h_source.html" target="_top" xlink:title=" ">
<polygon fill="white" stroke="#666666" points="306.75,-240.25 259.25,-240.25 259.25,-221 306.75,-221 306.75,-240.25"/>
<text text-anchor="middle" x="283" y="-226.75" font-family="Helvetica,sans-Serif" font-size="10.00">string.h</text>
</a>
</g>
</g>
<!-- Node1&#45;&gt;Node10 -->
<g id="edge15_Node000001_Node000010" class="edge">
<title>Node1&#45;&gt;Node10</title>
<g id="a_edge15_Node000001_Node000010"><a xlink:title=" ">
<path fill="none" stroke="#63b8ff" d="M194.15,-275.84C210.68,-267.62 235.34,-255.34 254.5,-245.81"/>
<polygon fill="#63b8ff" stroke="#63b8ff" points="256.01,-248.97 263.4,-241.38 252.89,-242.7 256.01,-248.97"/>
</a>
</g>
</g>
<!-- Node15 -->
<g id="Node000015" class="node">
<title>Node15</title>
<g id="a_Node000015"><a xlink:href="sio_8h.html" target="_top" xlink:title=" ">
<polygon fill="white" stroke="#666666" points="64.12,-74.5 27.88,-74.5 27.88,-55.25 64.12,-55.25 64.12,-74.5"/>
<text text-anchor="middle" x="46" y="-61" font-family="Helvetica,sans-Serif" font-size="10.00">sio.h</text>
</a>
</g>
</g>
<!-- Node1&#45;&gt;Node15 -->
<g id="edge23_Node000001_Node000015" class="edge">
<title>Node1&#45;&gt;Node15</title>
<g id="a_edge23_Node000001_Node000015"><a xlink:title=" ">
<path fill="none" stroke="#63b8ff" d="M166.05,-275.89C148.34,-259.44 111.14,-222.66 89,-185 69.93,-152.56 57.14,-110.24 50.75,-85.76"/>
<polygon fill="#63b8ff" stroke="#63b8ff" points="54.18,-85.06 48.37,-76.2 47.39,-86.75 54.18,-85.06"/>
</a>
</g>
</g>
<!-- Node2&#45;&gt;Node3 -->
<g id="edge2_Node000002_Node000003" class="edge">
<title>Node2&#45;&gt;Node3</title>
<g id="a_edge2_Node000002_Node000003"><a xlink:title=" ">
<path fill="none" stroke="#63b8ff" d="M218.73,-165.58C212.72,-158.3 203.99,-147.73 196.54,-138.73"/>
<polygon fill="#63b8ff" stroke="#63b8ff" points="199.46,-136.76 190.39,-131.28 194.06,-141.21 199.46,-136.76"/>
</a>
</g>
</g>
<!-- Node4 -->
<g id="Node000004" class="node">
<title>Node4</title>
<g id="a_Node000004"><a xlink:href="irx_8h.html" target="_top" xlink:title=" ">
<polygon fill="white" stroke="#666666" points="258.62,-129.75 225.38,-129.75 225.38,-110.5 258.62,-110.5 258.62,-129.75"/>
<text text-anchor="middle" x="242" y="-116.25" font-family="Helvetica,sans-Serif" font-size="10.00">irx.h</text>
</a>
</g>
</g>
<!-- Node2&#45;&gt;Node4 -->
<g id="edge3_Node000002_Node000004" class="edge">
<title>Node2&#45;&gt;Node4</title>
<g id="a_edge3_Node000002_Node000004"><a xlink:title=" ">
<path fill="none" stroke="#63b8ff" d="M228.64,-165.58C230.64,-158.92 233.48,-149.49 236.02,-141.03"/>
<polygon fill="#63b8ff" stroke="#63b8ff" points="239.34,-142.14 238.86,-131.56 232.64,-140.13 239.34,-142.14"/>
</a>
</g>
</g>
<!-- Node5 -->
<g id="Node000005" class="node">
<title>Node5</title>
<g id="a_Node000005"><a xlink:href="iop_2kernel_2include_2types_8h_source.html" target="_top" xlink:title=" ">
<polygon fill="white" stroke="#666666" points="241.38,-74.5 194.62,-74.5 194.62,-55.25 241.38,-55.25 241.38,-74.5"/>
<text text-anchor="middle" x="218" y="-61" font-family="Helvetica,sans-Serif" font-size="10.00">types.h</text>
</a>
</g>
</g>
<!-- Node4&#45;&gt;Node5 -->
<g id="edge4_Node000004_Node000005" class="edge">
<title>Node4&#45;&gt;Node5</title>
<g id="a_edge4_Node000004_Node000005"><a xlink:title=" ">
<path fill="none" stroke="#63b8ff" d="M238.04,-110.33C234.96,-103.51 230.59,-93.81 226.71,-85.2"/>
<polygon fill="#63b8ff" stroke="#63b8ff" points="229.97,-83.92 222.67,-76.24 223.59,-86.79 229.97,-83.92"/>
</a>
</g>
</g>
<!-- Node5&#45;&gt;Node6 -->
<g id="edge5_Node000005_Node000006" class="edge">
<title>Node5&#45;&gt;Node6</title>
<g id="a_edge5_Node000005_Node000006"><a xlink:title=" ">
<path fill="none" stroke="#63b8ff" d="M194.39,-55.44C170.34,-46.84 132.73,-33.4 104.97,-23.48"/>
<polygon fill="#63b8ff" stroke="#63b8ff" points="106.51,-20.32 95.92,-20.25 104.16,-26.91 106.51,-20.32"/>
</a>
</g>
</g>
<!-- Node5&#45;&gt;Node7 -->
<g id="edge6_Node000005_Node000007" class="edge">
<title>Node5&#45;&gt;Node7</title>
<g id="a_edge6_Node000005_Node000007"><a xlink:title=" ">
<path fill="none" stroke="#63b8ff" d="M218,-55.08C218,-48.57 218,-39.42 218,-31.12"/>
<polygon fill="#63b8ff" stroke="#63b8ff" points="221.5,-31.12 218,-21.12 214.5,-31.12 221.5,-31.12"/>
</a>
</g>
</g>
<!-- Node8&#45;&gt;Node3 -->
<g id="edge12_Node000008_Node000003" class="edge">
<title>Node8&#45;&gt;Node3</title>
<g id="a_edge12_Node000008_Node000003"><a xlink:title=" ">
<path fill="none" stroke="#63b8ff" d="M133.01,-165.34C141.37,-157.8 153.5,-146.85 163.6,-137.73"/>
<polygon fill="#63b8ff" stroke="#63b8ff" points="165.94,-140.34 171.02,-131.04 161.25,-135.14 165.94,-140.34"/>
</a>
</g>
</g>
<!-- Node8&#45;&gt;Node6 -->
<g id="edge11_Node000008_Node000006" class="edge">
<title>Node8&#45;&gt;Node6</title>
<g id="a_edge11_Node000008_Node000006"><a xlink:title=" ">
<path fill="none" stroke="#63b8ff" d="M120.1,-165.57C111.71,-140.14 87.29,-66.1 75.51,-30.37"/>
<polygon fill="#63b8ff" stroke="#63b8ff" points="78.85,-29.31 72.39,-20.91 72.2,-31.5 78.85,-29.31"/>
</a>
</g>
</g>
<!-- Node9 -->
<g id="Node000009" class="node">
<title>Node9</title>
<g id="a_Node000009"><a xlink:href="sifdma_8h.html" target="_top" xlink:title=" ">
<polygon fill="white" stroke="#666666" points="175.38,-74.5 122.62,-74.5 122.62,-55.25 175.38,-55.25 175.38,-74.5"/>
<text text-anchor="middle" x="149" y="-61" font-family="Helvetica,sans-Serif" font-size="10.00">sifdma.h</text>
</a>
</g>
</g>
<!-- Node8&#45;&gt;Node9 -->
<g id="edge13_Node000008_Node000009" class="edge">
<title>Node8&#45;&gt;Node9</title>
<g id="a_edge13_Node000008_Node000009"><a xlink:title=" ">
<path fill="none" stroke="#63b8ff" d="M125.13,-165.5C129.26,-148.25 138.47,-109.83 144.16,-86.06"/>
<polygon fill="#63b8ff" stroke="#63b8ff" points="147.56,-86.89 146.49,-76.35 140.76,-85.26 147.56,-86.89"/>
</a>
</g>
</g>
<!-- Node9&#45;&gt;Node7 -->
<g id="edge14_Node000009_Node000007" class="edge">
<title>Node9&#45;&gt;Node7</title>
<g id="a_edge14_Node000009_Node000007"><a xlink:title=" ">
<path fill="none" stroke="#63b8ff" d="M160.7,-54.84C170.78,-47.07 185.54,-35.67 197.56,-26.4"/>
<polygon fill="#63b8ff" stroke="#63b8ff" points="199.49,-29.33 205.27,-20.45 195.21,-23.79 199.49,-29.33"/>
</a>
</g>
</g>
<!-- Node11 -->
<g id="Node000011" class="node">
<title>Node11</title>
<g id="a_Node000011"><a xlink:href="sysclib_8h.html" target="_top" xlink:title=" ">
<polygon fill="white" stroke="#666666" points="319.75,-185 266.25,-185 266.25,-165.75 319.75,-165.75 319.75,-185"/>
<text text-anchor="middle" x="293" y="-171.5" font-family="Helvetica,sans-Serif" font-size="10.00">sysclib.h</text>
</a>
</g>
</g>
<!-- Node10&#45;&gt;Node11 -->
<g id="edge16_Node000010_Node000011" class="edge">
<title>Node10&#45;&gt;Node11</title>
<g id="a_edge16_Node000010_Node000011"><a xlink:title=" ">
<path fill="none" stroke="#63b8ff" d="M284.65,-220.83C285.89,-214.24 287.63,-204.96 289.21,-196.57"/>
<polygon fill="#63b8ff" stroke="#63b8ff" points="292.63,-197.32 291.03,-186.85 285.75,-196.03 292.63,-197.32"/>
</a>
</g>
</g>
<!-- Node11&#45;&gt;Node3 -->
<g id="edge19_Node000011_Node000003" class="edge">
<title>Node11&#45;&gt;Node3</title>
<g id="a_edge19_Node000011_Node000003"><a xlink:title=" ">
<path fill="none" stroke="#63b8ff" d="M274.17,-165.34C256.95,-157.08 231.2,-144.73 211.29,-135.18"/>
<polygon fill="#63b8ff" stroke="#63b8ff" points="212.82,-132.03 202.29,-130.86 209.79,-138.34 212.82,-132.03"/>
</a>
</g>
</g>
<!-- Node11&#45;&gt;Node4 -->
<g id="edge18_Node000011_Node000004" class="edge">
<title>Node11&#45;&gt;Node4</title>
<g id="a_edge18_Node000011_Node000004"><a xlink:title=" ">
<path fill="none" stroke="#63b8ff" d="M284.58,-165.58C277.46,-158.15 267.06,-147.29 258.31,-138.16"/>
<polygon fill="#63b8ff" stroke="#63b8ff" points="261.1,-136 251.65,-131.2 256.04,-140.85 261.1,-136"/>
</a>
</g>
</g>
<!-- Node12 -->
<g id="Node000012" class="node">
<title>Node12</title>
<g id="a_Node000012"><a xlink:title=" ">
<polygon fill="#e0e0e0" stroke="#999999" points="361.38,-129.75 314.62,-129.75 314.62,-110.5 361.38,-110.5 361.38,-129.75"/>
<text text-anchor="middle" x="338" y="-116.25" font-family="Helvetica,sans-Serif" font-size="10.00">types.h</text>
</a>
</g>
</g>
<!-- Node11&#45;&gt;Node12 -->
<g id="edge17_Node000011_Node000012" class="edge">
<title>Node11&#45;&gt;Node12</title>
<g id="a_edge17_Node000011_Node000012"><a xlink:title=" ">
<path fill="none" stroke="#63b8ff" d="M300.43,-165.58C306.58,-158.3 315.51,-147.73 323.13,-138.73"/>
<polygon fill="#63b8ff" stroke="#63b8ff" points="325.65,-141.16 329.43,-131.27 320.3,-136.64 325.65,-141.16"/>
</a>
</g>
</g>
<!-- Node13 -->
<g id="Node000013" class="node">
<title>Node13</title>
<g id="a_Node000013"><a xlink:href="setjmp_8h.html" target="_top" xlink:title=" ">
<polygon fill="white" stroke="#666666" points="313.38,-74.5 260.62,-74.5 260.62,-55.25 313.38,-55.25 313.38,-74.5"/>
<text text-anchor="middle" x="287" y="-61" font-family="Helvetica,sans-Serif" font-size="10.00">setjmp.h</text>
</a>
</g>
</g>
<!-- Node11&#45;&gt;Node13 -->
<g id="edge20_Node000011_Node000013" class="edge">
<title>Node11&#45;&gt;Node13</title>
<g id="a_edge20_Node000011_Node000013"><a xlink:title=" ">
<path fill="none" stroke="#63b8ff" d="M292.51,-165.5C291.56,-148.25 289.43,-109.83 288.12,-86.06"/>
<polygon fill="#63b8ff" stroke="#63b8ff" points="291.63,-86.18 287.58,-76.39 284.64,-86.57 291.63,-86.18"/>
</a>
</g>
</g>
<!-- Node14 -->
<g id="Node000014" class="node">
<title>Node14</title>
<g id="a_Node000014"><a xlink:href="ctype_8h.html" target="_top" xlink:title=" ">
<polygon fill="white" stroke="#666666" points="426.38,-129.75 379.62,-129.75 379.62,-110.5 426.38,-110.5 426.38,-129.75"/>
<text text-anchor="middle" x="403" y="-116.25" font-family="Helvetica,sans-Serif" font-size="10.00">ctype.h</text>
</a>
</g>
</g>
<!-- Node11&#45;&gt;Node14 -->
<g id="edge22_Node000011_Node000014" class="edge">
<title>Node11&#45;&gt;Node14</title>
<g id="a_edge22_Node000011_Node000014"><a xlink:title=" ">
<path fill="none" stroke="#63b8ff" d="M311.66,-165.34C328.73,-157.08 354.24,-144.73 373.97,-135.18"/>
<polygon fill="#63b8ff" stroke="#63b8ff" points="375.41,-138.37 382.89,-130.86 372.36,-132.07 375.41,-138.37"/>
</a>
</g>
</g>
<!-- Node13&#45;&gt;Node7 -->
<g id="edge21_Node000013_Node000007" class="edge">
<title>Node13&#45;&gt;Node7</title>
<g id="a_edge21_Node000013_Node000007"><a xlink:title=" ">
<path fill="none" stroke="#63b8ff" d="M275.3,-54.84C265.22,-47.07 250.46,-35.67 238.44,-26.4"/>
<polygon fill="#63b8ff" stroke="#63b8ff" points="240.79,-23.79 230.73,-20.45 236.51,-29.33 240.79,-23.79"/>
</a>
</g>
</g>
<!-- Node15&#45;&gt;Node6 -->
<g id="edge25_Node000015_Node000006" class="edge">
<title>Node15&#45;&gt;Node6</title>
<g id="a_edge25_Node000015_Node000006"><a xlink:title=" ">
<path fill="none" stroke="#63b8ff" d="M49.8,-55.08C52.74,-48.26 56.94,-38.56 60.65,-29.95"/>
<polygon fill="#63b8ff" stroke="#63b8ff" points="63.77,-31.57 64.52,-21 57.34,-28.79 63.77,-31.57"/>
</a>
</g>
</g>
<!-- Node15&#45;&gt;Node7 -->
<g id="edge24_Node000015_Node000007" class="edge">
<title>Node15&#45;&gt;Node7</title>
<g id="a_edge24_Node000015_Node000007"><a xlink:title=" ">
<path fill="none" stroke="#63b8ff" d="M64.41,-58.18C91.35,-49.84 142.19,-34.1 177.98,-23.02"/>
<polygon fill="#63b8ff" stroke="#63b8ff" points="178.6,-26.49 187.11,-20.19 176.53,-19.8 178.6,-26.49"/>
</a>
</g>
</g>
</g>
</svg>
