<?xml version="1.0" encoding="UTF-8" standalone="no"?>
<!DOCTYPE svg PUBLIC "-//W3C//DTD SVG 1.1//EN"
 "http://www.w3.org/Graphics/SVG/1.1/DTD/svg11.dtd">
<!-- Generated by graphviz version 2.43.0 (0)
 -->
<!-- Title: ee/kernel/include/sio.h Pages: 1 -->
<svg width="374pt" height="95pt"
 viewBox="0.00 0.00 374.00 95.00" xmlns="http://www.w3.org/2000/svg" xmlns:xlink="http://www.w3.org/1999/xlink">
<g id="graph0" class="graph" transform="scale(1 1) rotate(0) translate(4 91)">
<title>ee/kernel/include/sio.h</title>
<polygon fill="white" stroke="transparent" points="-4,4 -4,-91 370,-91 370,4 -4,4"/>
<!-- Node1 -->
<g id="node1" class="node">
<title>Node1</title>
<g id="a_node1"><a xlink:title=" ">
<polygon fill="#bfbfbf" stroke="black" points="119,-67.5 119,-86.5 245,-86.5 245,-67.5 119,-67.5"/>
<text text-anchor="middle" x="182" y="-74.5" font-family="Helvetica,sans-Serif" font-size="10.00">ee/kernel/include/sio.h</text>
</a>
</g>
</g>
<!-- Node2 -->
<g id="node2" class="node">
<title>Node2</title>
<g id="a_node2"><a xlink:href="sio_8c.html" target="_top" xlink:title=" ">
<polygon fill="white" stroke="black" points="0,-6 0,-25 104,-25 104,-6 0,-6"/>
<text text-anchor="middle" x="52" y="-13" font-family="Helvetica,sans-Serif" font-size="10.00">ee/kernel/src/sio.c</text>
</a>
</g>
</g>
<!-- Node1&#45;&gt;Node2 -->
<g id="edge1" class="edge">
<title>Node1&#45;&gt;Node2</title>
<path fill="none" stroke="midnightblue" d="M153.98,-63.17C128.75,-51.63 92.39,-34.99 70.59,-25.01"/>
<polygon fill="midnightblue" stroke="midnightblue" points="152.82,-66.5 163.37,-67.48 155.74,-60.13 152.82,-66.5"/>
</g>
<!-- Node3 -->
<g id="node3" class="node">
<title>Node3</title>
<g id="a_node3"><a xlink:href="libcglue_2src_2glue_8c_source.html" target="_top" xlink:title=" ">
<polygon fill="white" stroke="black" points="122.5,-6 122.5,-25 241.5,-25 241.5,-6 122.5,-6"/>
<text text-anchor="middle" x="182" y="-13" font-family="Helvetica,sans-Serif" font-size="10.00">ee/libcglue/src/glue.c</text>
</a>
</g>
</g>
<!-- Node1&#45;&gt;Node3 -->
<g id="edge2" class="edge">
<title>Node1&#45;&gt;Node3</title>
<path fill="none" stroke="midnightblue" d="M182,-57.32C182,-46.5 182,-33.4 182,-25.01"/>
<polygon fill="midnightblue" stroke="midnightblue" points="178.5,-57.48 182,-67.48 185.5,-57.48 178.5,-57.48"/>
</g>
<!-- Node4 -->
<g id="node4" class="node">
<title>Node4</title>
<g id="a_node4"><a xlink:href="sior__rpc_8c.html" target="_top" xlink:title=" ">
<polygon fill="white" stroke="black" points="260,-0.5 260,-30.5 366,-30.5 366,-0.5 260,-0.5"/>
<text text-anchor="start" x="268" y="-18.5" font-family="Helvetica,sans-Serif" font-size="10.00">ee/rpc/sior/src/sior</text>
<text text-anchor="middle" x="313" y="-7.5" font-family="Helvetica,sans-Serif" font-size="10.00">_rpc.c</text>
</a>
</g>
</g>
<!-- Node1&#45;&gt;Node4 -->
<g id="edge3" class="edge">
<title>Node1&#45;&gt;Node4</title>
<path fill="none" stroke="midnightblue" d="M209.89,-63.33C231.09,-53.7 260.23,-40.47 282.13,-30.52"/>
<polygon fill="midnightblue" stroke="midnightblue" points="208.43,-60.15 200.77,-67.48 211.32,-66.53 208.43,-60.15"/>
</g>
</g>
</svg>
