<?xml version="1.0" encoding="UTF-8" standalone="no"?>
<!DOCTYPE svg PUBLIC "-//W3C//DTD SVG 1.1//EN"
 "http://www.w3.org/Graphics/SVG/1.1/DTD/svg11.dtd">
<!-- Generated by graphviz version 9.0.0 (20230911.1827)
 -->
<!-- Title: iop/kernel/include/sior.h Pages: 1 -->
<svg width="205pt" height="204pt"
 viewBox="0.00 0.00 205.12 204.25" xmlns="http://www.w3.org/2000/svg" xmlns:xlink="http://www.w3.org/1999/xlink">

<svg id="main" version="1.1" xmlns="http://www.w3.org/2000/svg" xmlns:xlink="http://www.w3.org/1999/xlink" xml:space="preserve" onload="init(evt)">
<style type="text/css"><![CDATA[
.node, .edge {opacity: 0.7;}
.node.selected, .edge.selected {opacity: 1;}
.edge:hover path { stroke: red; }
.edge:hover polygon { stroke: red; fill: red; }
]]></style>
<script type="application/ecmascript" xlink:href="svg.min.js"/>
<svg id="graph" class="graph">
<g id="graph0" class="graph" transform="scale(1 1) rotate(0) translate(4 200.25)">
<title>iop/kernel/include/sior.h</title>
<!-- Node1 -->
<g id="Node000001" class="node">
<title>Node1</title>
<g id="a_Node000001"><a xlink:title=" ">
<polygon fill="#999999" stroke="#666666" points="131.12,-196.25 39.38,-196.25 39.38,-165.75 131.12,-165.75 131.12,-196.25"/>
<text text-anchor="start" x="47.38" y="-182.75" font-family="Helvetica,sans-Serif" font-size="10.00">iop/kernel/include</text>
<text text-anchor="middle" x="85.25" y="-171.5" font-family="Helvetica,sans-Serif" font-size="10.00">/sior.h</text>
</a>
</g>
</g>
<!-- Node2 -->
<g id="Node000002" class="node">
<title>Node2</title>
<g id="a_Node000002"><a xlink:title=" ">
<polygon fill="#e0e0e0" stroke="#999999" points="50.5,-129.75 0,-129.75 0,-110.5 50.5,-110.5 50.5,-129.75"/>
<text text-anchor="middle" x="25.25" y="-116.25" font-family="Helvetica,sans-Serif" font-size="10.00">stdarg.h</text>
</a>
</g>
</g>
<!-- Node1&#45;&gt;Node2 -->
<g id="edge1_Node000001_Node000002" class="edge">
<title>Node1&#45;&gt;Node2</title>
<g id="a_edge1_Node000001_Node000002"><a xlink:title=" ">
<path fill="none" stroke="#63b8ff" d="M70.42,-165.45C61.99,-157.17 51.38,-146.77 42.57,-138.12"/>
<polygon fill="#63b8ff" stroke="#63b8ff" points="45.17,-135.77 35.58,-131.26 40.27,-140.76 45.17,-135.77"/>
</a>
</g>
</g>
<!-- Node3 -->
<g id="Node000003" class="node">
<title>Node3</title>
<g id="a_Node000003"><a xlink:href="irx_8h.html" target="_top" xlink:title=" ">
<polygon fill="white" stroke="#666666" points="101.88,-129.75 68.62,-129.75 68.62,-110.5 101.88,-110.5 101.88,-129.75"/>
<text text-anchor="middle" x="85.25" y="-116.25" font-family="Helvetica,sans-Serif" font-size="10.00">irx.h</text>
</a>
</g>
</g>
<!-- Node1&#45;&gt;Node3 -->
<g id="edge2_Node000001_Node000003" class="edge">
<title>Node1&#45;&gt;Node3</title>
<g id="a_edge2_Node000001_Node000003"><a xlink:title=" ">
<path fill="none" stroke="#63b8ff" d="M85.25,-165.45C85.25,-158.21 85.25,-149.34 85.25,-141.44"/>
<polygon fill="#63b8ff" stroke="#63b8ff" points="88.75,-141.71 85.25,-131.71 81.75,-141.71 88.75,-141.71"/>
</a>
</g>
</g>
<!-- Node7 -->
<g id="Node000007" class="node">
<title>Node7</title>
<g id="a_Node000007"><a xlink:href="sior-common_8h.html" target="_top" xlink:title=" ">
<polygon fill="white" stroke="#666666" points="197.12,-74.5 117.38,-74.5 117.38,-55.25 197.12,-55.25 197.12,-74.5"/>
<text text-anchor="middle" x="157.25" y="-61" font-family="Helvetica,sans-Serif" font-size="10.00">sior&#45;common.h</text>
</a>
</g>
</g>
<!-- Node1&#45;&gt;Node7 -->
<g id="edge6_Node000001_Node000007" class="edge">
<title>Node1&#45;&gt;Node7</title>
<g id="a_edge6_Node000001_Node000007"><a xlink:title=" ">
<path fill="none" stroke="#63b8ff" d="M94.37,-165.55C107.37,-144.94 131.24,-107.1 145.54,-84.44"/>
<polygon fill="#63b8ff" stroke="#63b8ff" points="148.34,-86.55 150.72,-76.23 142.42,-82.82 148.34,-86.55"/>
</a>
</g>
</g>
<!-- Node4 -->
<g id="Node000004" class="node">
<title>Node4</title>
<g id="a_Node000004"><a xlink:href="iop_2kernel_2include_2types_8h_source.html" target="_top" xlink:title=" ">
<polygon fill="white" stroke="#666666" points="99.62,-74.5 52.88,-74.5 52.88,-55.25 99.62,-55.25 99.62,-74.5"/>
<text text-anchor="middle" x="76.25" y="-61" font-family="Helvetica,sans-Serif" font-size="10.00">types.h</text>
</a>
</g>
</g>
<!-- Node3&#45;&gt;Node4 -->
<g id="edge3_Node000003_Node000004" class="edge">
<title>Node3&#45;&gt;Node4</title>
<g id="a_edge3_Node000003_Node000004"><a xlink:title=" ">
<path fill="none" stroke="#63b8ff" d="M83.76,-110.33C82.65,-103.74 81.08,-94.46 79.66,-86.07"/>
<polygon fill="#63b8ff" stroke="#63b8ff" points="83.14,-85.63 78.02,-76.35 76.24,-86.8 83.14,-85.63"/>
</a>
</g>
</g>
<!-- Node5 -->
<g id="Node000005" class="node">
<title>Node5</title>
<g id="a_Node000005"><a xlink:title=" ">
<polygon fill="#e0e0e0" stroke="#999999" points="101.5,-19.25 51,-19.25 51,0 101.5,0 101.5,-19.25"/>
<text text-anchor="middle" x="76.25" y="-5.75" font-family="Helvetica,sans-Serif" font-size="10.00">stddef.h</text>
</a>
</g>
</g>
<!-- Node4&#45;&gt;Node5 -->
<g id="edge4_Node000004_Node000005" class="edge">
<title>Node4&#45;&gt;Node5</title>
<g id="a_edge4_Node000004_Node000005"><a xlink:title=" ">
<path fill="none" stroke="#63b8ff" d="M76.25,-55.08C76.25,-48.57 76.25,-39.42 76.25,-31.12"/>
<polygon fill="#63b8ff" stroke="#63b8ff" points="79.75,-31.12 76.25,-21.12 72.75,-31.12 79.75,-31.12"/>
</a>
</g>
</g>
<!-- Node6 -->
<g id="Node000006" class="node">
<title>Node6</title>
<g id="a_Node000006"><a xlink:href="tamtypes_8h.html" target="_top" xlink:title=" ">
<polygon fill="white" stroke="#666666" points="185.88,-19.25 122.62,-19.25 122.62,0 185.88,0 185.88,-19.25"/>
<text text-anchor="middle" x="154.25" y="-5.75" font-family="Helvetica,sans-Serif" font-size="10.00">tamtypes.h</text>
</a>
</g>
</g>
<!-- Node4&#45;&gt;Node6 -->
<g id="edge5_Node000004_Node000006" class="edge">
<title>Node4&#45;&gt;Node6</title>
<g id="a_edge5_Node000004_Node000006"><a xlink:title=" ">
<path fill="none" stroke="#63b8ff" d="M89.48,-54.84C101.02,-46.96 118.02,-35.36 131.7,-26.02"/>
<polygon fill="#63b8ff" stroke="#63b8ff" points="133.42,-29.08 139.7,-20.56 129.47,-23.3 133.42,-29.08"/>
</a>
</g>
</g>
<!-- Node7&#45;&gt;Node6 -->
<g id="edge7_Node000007_Node000006" class="edge">
<title>Node7&#45;&gt;Node6</title>
<g id="a_edge7_Node000007_Node000006"><a xlink:title=" ">
<path fill="none" stroke="#63b8ff" d="M156.75,-55.08C156.38,-48.49 155.86,-39.21 155.39,-30.82"/>
<polygon fill="#63b8ff" stroke="#63b8ff" points="158.9,-30.91 154.84,-21.12 151.91,-31.3 158.9,-30.91"/>
</a>
</g>
</g>
</g>
</svg>
</svg>

<style type='text/css'>
<![CDATA[
[data-mouse-over-selected='false'] { opacity: 0.7; }
[data-mouse-over-selected='true']  { opacity: 1.0; }
]]>
</style>
<script type="application/ecmascript"><![CDATA[
document.addEventListener('DOMContentLoaded', (event) => {
  highlightEdges();
  highlightAdjacentNodes();
});
]]></script>
</svg>
