<?xml version="1.0" encoding="UTF-8" standalone="no"?>
<!DOCTYPE svg PUBLIC "-//W3C//DTD SVG 1.1//EN"
 "http://www.w3.org/Graphics/SVG/1.1/DTD/svg11.dtd">
<!-- Generated by graphviz version 9.0.0 (20230911.1827)
 -->
<!-- Title: common/include/smapregs.h Pages: 1 -->
<svg width="149pt" height="138pt"
 viewBox="0.00 0.00 148.50 137.75" xmlns="http://www.w3.org/2000/svg" xmlns:xlink="http://www.w3.org/1999/xlink">
<g id="graph0" class="graph" transform="scale(1 1) rotate(0) translate(4 133.75)">
<title>common/include/smapregs.h</title>
<!-- Node1 -->
<g id="Node000001" class="node">
<title>Node1</title>
<g id="a_Node000001"><a xlink:title=" ">
<polygon fill="#999999" stroke="#666666" points="140.5,-129.75 0,-129.75 0,-110.5 140.5,-110.5 140.5,-129.75"/>
<text text-anchor="middle" x="70.25" y="-116.25" font-family="Helvetica,sans-Serif" font-size="10.00">common/include/smapregs.h</text>
</a>
</g>
</g>
<!-- Node2 -->
<g id="Node000002" class="node">
<title>Node2</title>
<g id="a_Node000002"><a xlink:href="tamtypes_8h.html" target="_top" xlink:title=" ">
<polygon fill="white" stroke="#666666" points="101.88,-19.25 38.62,-19.25 38.62,0 101.88,0 101.88,-19.25"/>
<text text-anchor="middle" x="70.25" y="-5.75" font-family="Helvetica,sans-Serif" font-size="10.00">tamtypes.h</text>
</a>
</g>
</g>
<!-- Node1&#45;&gt;Node2 -->
<g id="edge1_Node000001_Node000002" class="edge">
<title>Node1&#45;&gt;Node2</title>
<g id="a_edge1_Node000001_Node000002"><a xlink:title=" ">
<path fill="none" stroke="#63b8ff" d="M66.7,-110.08C62.3,-97.75 55.65,-74.94 58.25,-55.25 59.34,-47 61.51,-38.12 63.72,-30.46"/>
<polygon fill="#63b8ff" stroke="#63b8ff" points="66.98,-31.75 66.6,-21.16 60.3,-29.67 66.98,-31.75"/>
</a>
</g>
</g>
<!-- Node3 -->
<g id="Node000003" class="node">
<title>Node3</title>
<g id="a_Node000003"><a xlink:href="speedregs_8h.html" target="_top" xlink:title=" ">
<polygon fill="white" stroke="#666666" points="135.5,-74.5 67,-74.5 67,-55.25 135.5,-55.25 135.5,-74.5"/>
<text text-anchor="middle" x="101.25" y="-61" font-family="Helvetica,sans-Serif" font-size="10.00">speedregs.h</text>
</a>
</g>
</g>
<!-- Node1&#45;&gt;Node3 -->
<g id="edge2_Node000001_Node000003" class="edge">
<title>Node1&#45;&gt;Node3</title>
<g id="a_edge2_Node000001_Node000003"><a xlink:title=" ">
<path fill="none" stroke="#63b8ff" d="M75.37,-110.33C79.43,-103.36 85.24,-93.37 90.34,-84.62"/>
<polygon fill="#63b8ff" stroke="#63b8ff" points="93.25,-86.57 95.26,-76.17 87.2,-83.05 93.25,-86.57"/>
</a>
</g>
</g>
<!-- Node3&#45;&gt;Node2 -->
<g id="edge3_Node000003_Node000002" class="edge">
<title>Node3&#45;&gt;Node2</title>
<g id="a_edge3_Node000003_Node000002"><a xlink:title=" ">
<path fill="none" stroke="#63b8ff" d="M96.13,-55.08C92.07,-48.11 86.26,-38.12 81.16,-29.37"/>
<polygon fill="#63b8ff" stroke="#63b8ff" points="84.3,-27.8 76.24,-20.92 78.25,-31.32 84.3,-27.8"/>
</a>
</g>
</g>
</g>
</svg>
