<?xml version="1.0" encoding="UTF-8" standalone="no"?>
<!DOCTYPE svg PUBLIC "-//W3C//DTD SVG 1.1//EN"
 "http://www.w3.org/Graphics/SVG/1.1/DTD/svg11.dtd">
<!-- Generated by graphviz version 2.44.0 ()
 -->
<!-- Title: ee/sbv/include/smem.h Pages: 1 -->
<svg width="365pt" height="95pt"
 viewBox="0.00 0.00 365.00 95.00" xmlns="http://www.w3.org/2000/svg" xmlns:xlink="http://www.w3.org/1999/xlink">
<g id="graph0" class="graph" transform="scale(1 1) rotate(0) translate(4 91)">
<title>ee/sbv/include/smem.h</title>
<polygon fill="white" stroke="transparent" points="-4,4 -4,-91 361,-91 361,4 -4,4"/>
<!-- Node1 -->
<g id="node1" class="node">
<title>Node1</title>
<g id="a_node1"><a xlink:title=" ">
<polygon fill="#bfbfbf" stroke="black" points="133,-67.5 133,-86.5 250,-86.5 250,-67.5 133,-67.5"/>
<text text-anchor="middle" x="191.5" y="-74.5" font-family="Helvetica,sans-Serif" font-size="10.00">ee/sbv/include/smem.h</text>
</a>
</g>
</g>
<!-- Node2 -->
<g id="node2" class="node">
<title>Node2</title>
<g id="a_node2"><a xlink:href="patch__enable__lmb_8c.html" target="_top" xlink:title=" ">
<polygon fill="white" stroke="black" points="0,-0.5 0,-30.5 123,-30.5 123,-0.5 0,-0.5"/>
<text text-anchor="start" x="8" y="-18.5" font-family="Helvetica,sans-Serif" font-size="10.00">ee/sbv/src/patch_enable</text>
<text text-anchor="middle" x="61.5" y="-7.5" font-family="Helvetica,sans-Serif" font-size="10.00">_lmb.c</text>
</a>
</g>
</g>
<!-- Node1&#45;&gt;Node2 -->
<g id="edge1" class="edge">
<title>Node1&#45;&gt;Node2</title>
<path fill="none" stroke="midnightblue" d="M163.53,-63.2C142.53,-53.58 113.77,-40.42 92.14,-30.52"/>
<polygon fill="midnightblue" stroke="midnightblue" points="162.32,-66.5 172.87,-67.48 165.24,-60.13 162.32,-66.5"/>
</g>
<!-- Node3 -->
<g id="node3" class="node">
<title>Node3</title>
<g id="a_node3"><a xlink:href="smem_8c.html" target="_top" xlink:title=" ">
<polygon fill="white" stroke="black" points="141.5,-6 141.5,-25 241.5,-25 241.5,-6 141.5,-6"/>
<text text-anchor="middle" x="191.5" y="-13" font-family="Helvetica,sans-Serif" font-size="10.00">ee/sbv/src/smem.c</text>
</a>
</g>
</g>
<!-- Node1&#45;&gt;Node3 -->
<g id="edge2" class="edge">
<title>Node1&#45;&gt;Node3</title>
<path fill="none" stroke="midnightblue" d="M191.5,-57.32C191.5,-46.5 191.5,-33.4 191.5,-25.01"/>
<polygon fill="midnightblue" stroke="midnightblue" points="188,-57.48 191.5,-67.48 195,-57.48 188,-57.48"/>
</g>
<!-- Node4 -->
<g id="node4" class="node">
<title>Node4</title>
<g id="a_node4"><a xlink:href="ee_2sbv_2src_2smod_8c.html" target="_top" xlink:title=" ">
<polygon fill="white" stroke="black" points="260,-6 260,-25 357,-25 357,-6 260,-6"/>
<text text-anchor="middle" x="308.5" y="-13" font-family="Helvetica,sans-Serif" font-size="10.00">ee/sbv/src/smod.c</text>
</a>
</g>
</g>
<!-- Node1&#45;&gt;Node4 -->
<g id="edge3" class="edge">
<title>Node1&#45;&gt;Node4</title>
<path fill="none" stroke="midnightblue" d="M217.33,-62.87C240,-51.33 272.32,-34.9 291.77,-25.01"/>
<polygon fill="midnightblue" stroke="midnightblue" points="215.59,-59.82 208.26,-67.48 218.76,-66.06 215.59,-59.82"/>
</g>
</g>
</svg>
