<?xml version="1.0" encoding="UTF-8" standalone="no"?>
<!DOCTYPE svg PUBLIC "-//W3C//DTD SVG 1.1//EN"
 "http://www.w3.org/Graphics/SVG/1.1/DTD/svg11.dtd">
<!-- Generated by graphviz version 12.2.0 (20241103.1931)
 -->
<!-- Title: common/include/speedregs.h Pages: 1 -->
<!--zoomable 160 -->

<svg id="main" version="1.1" xmlns="http://www.w3.org/2000/svg" xmlns:xlink="http://www.w3.org/1999/xlink" xml:space="preserve" onload="init(evt)">

<style type="text/css"><![CDATA[
.node, .edge {opacity: 0.7;}
.node.selected, .edge.selected {opacity: 1;}
.edge:hover path { stroke: red; }
.edge:hover polygon { stroke: red; fill: red; }
]]></style>

<defs>
  <circle id="rim" cx="0" cy="0" r="7"/>
  <circle id="rim2" cx="0" cy="0" r="3.5"/>
  <g id="zoomPlus">
    <use xlink:href="#rim" fill="#404040"><set attributeName="fill" to="#808080" begin="zoomplus.mouseover" end="zoomplus.mouseout"/></use>
    <path d="M-4,0h8M0,-4v8" fill="none" stroke="white" stroke-width="1.5" pointer-events="none"/>
  </g>
  <g id="zoomMin">
    <use xlink:href="#rim" fill="#404040"><set attributeName="fill" to="#808080" begin="zoomminus.mouseover" end="zoomminus.mouseout"/></use>
    <path d="M-4,0h8" fill="none" stroke="white" stroke-width="1.5" pointer-events="none"/>
  </g>
  <g id="arrowUp" transform="translate(30 24)">
    <use xlink:href="#rim"/>
    <path pointer-events="none" fill="none" stroke="white" stroke-width="1.5" d="M0,-3.0v7 M-2.5,-0.5L0,-3.0L2.5,-0.5"/>
  </g>
  <g id="arrowRight" transform="rotate(90) translate(36 -43)">
    <use xlink:href="#rim"/>
    <path pointer-events="none" fill="none" stroke="white" stroke-width="1.5" d="M0,-3.0v7 M-2.5,-0.5L0,-3.0L2.5,-0.5"/>
  </g>
  <g id="arrowDown" transform="rotate(180) translate(-30 -48)">
    <use xlink:href="#rim"/>
    <path pointer-events="none" fill="none" stroke="white" stroke-width="1.5" d="M0,-3.0v7 M-2.5,-0.5L0,-3.0L2.5,-0.5"/>
  </g>
  <g id="arrowLeft" transform="rotate(270) translate(-36 17)">
    <use xlink:href="#rim"/>
    <path pointer-events="none" fill="none" stroke="white" stroke-width="1.5" d="M0,-3.0v7 M-2.5,-0.5L0,-3.0L2.5,-0.5"/>
  </g>
  <g id="resetDef">
    <use xlink:href="#rim2" fill="#404040"><set attributeName="fill" to="#808080" begin="reset.mouseover" end="reset.mouseout"/></use>
  </g>
</defs>
<script type="application/ecmascript">
var viewWidth = 2281;
var viewHeight = 160;
var sectionId = 'dynsection-1';
</script>
<script type="application/ecmascript" xlink:href="svg.min.js"/>
<svg id="graph" class="graph">
<g id="viewport">
<title>common/include/speedregs.h</title>
<!-- Node1 -->
<g id="Node000001" class="node">
<title>Node1</title>
<g id="a_Node000001"><a xlink:title=" ">
<polygon fill="#999999" stroke="#666666" points="1538.62,-152.25 1395.88,-152.25 1395.88,-133 1538.62,-133 1538.62,-152.25"/>
<text text-anchor="middle" x="1467.25" y="-138.75" font-family="Helvetica,sans-Serif" font-size="10.00">common/include/speedregs.h</text>
</a>
</g>
</g>
<!-- Node2 -->
<g id="Node000002" class="node">
<title>Node2</title>
<g id="a_Node000002"><a xlink:href="atahw_8h.html" target="_top" xlink:title=" ">
<polygon fill="white" stroke="#666666" points="579.25,-91.38 455.25,-91.38 455.25,-72.12 579.25,-72.12 579.25,-91.38"/>
<text text-anchor="middle" x="517.25" y="-77.88" font-family="Helvetica,sans-Serif" font-size="10.00">common/include/atahw.h</text>
</a>
</g>
</g>
<!-- Node1&#45;&gt;Node2 -->
<g id="edge1_Node000001_Node000002" class="edge">
<title>Node1&#45;&gt;Node2</title>
<g id="a_edge1_Node000001_Node000002"><a xlink:title=" ">
<path fill="none" stroke="#63b8ff" d="M1384.04,-136.47C1196.72,-124.86 745.36,-96.89 579.64,-86.62"/>
<polygon fill="#63b8ff" stroke="#63b8ff" points="1383.75,-139.96 1393.95,-137.08 1384.18,-132.97 1383.75,-139.96"/>
</a>
</g>
</g>
<!-- Node10 -->
<g id="Node000010" class="node">
<title>Node10</title>
<g id="a_Node000010"><a xlink:href="smapregs_8h.html" target="_top" xlink:title=" ">
<polygon fill="white" stroke="#666666" points="1140.5,-91.38 1000,-91.38 1000,-72.12 1140.5,-72.12 1140.5,-91.38"/>
<text text-anchor="middle" x="1070.25" y="-77.88" font-family="Helvetica,sans-Serif" font-size="10.00">common/include/smapregs.h</text>
</a>
</g>
</g>
<!-- Node1&#45;&gt;Node10 -->
<g id="edge9_Node000001_Node000010" class="edge">
<title>Node1&#45;&gt;Node10</title>
<g id="a_edge9_Node000001_Node000010"><a xlink:title=" ">
<path fill="none" stroke="#63b8ff" d="M1388.61,-131C1325.25,-122.3 1233.93,-109.44 1154.25,-97 1144.02,-95.4 1133.1,-93.61 1122.64,-91.86"/>
<polygon fill="#63b8ff" stroke="#63b8ff" points="1387.82,-134.42 1398.21,-132.31 1388.77,-127.49 1387.82,-134.42"/>
</a>
</g>
</g>
<!-- Node11 -->
<g id="Node000011" class="node">
<title>Node11</title>
<g id="a_Node000011"><a xlink:href="ps2dev9_8c.html" target="_top" xlink:title=" ">
<polygon fill="white" stroke="#666666" points="1042.5,-24.88 902,-24.88 902,-5.63 1042.5,-5.63 1042.5,-24.88"/>
<text text-anchor="middle" x="972.25" y="-11.38" font-family="Helvetica,sans-Serif" font-size="10.00">iop/dev9/dev9/src/ps2dev9.c</text>
</a>
</g>
</g>
<!-- Node1&#45;&gt;Node11 -->
<g id="edge13_Node000001_Node000011" class="edge">
<title>Node1&#45;&gt;Node11</title>
<g id="a_edge13_Node000001_Node000011"><a xlink:title=" ">
<path fill="none" stroke="#63b8ff" d="M1384.23,-139.04C1255.68,-134.28 1020.18,-122.2 991.25,-97 970.29,-78.74 970.13,-42.12 971.33,-25.2"/>
<polygon fill="#63b8ff" stroke="#63b8ff" points="1383.93,-142.53 1394.05,-139.4 1384.19,-135.54 1383.93,-142.53"/>
</a>
</g>
</g>
<!-- Node12 -->
<g id="Node000012" class="node">
<title>Node12</title>
<g id="a_Node000012"><a xlink:href="smap_8c_source.html" target="_top" xlink:title=" ">
<polygon fill="white" stroke="#666666" points="1170.12,-30.5 1060.38,-30.5 1060.38,0 1170.12,0 1170.12,-30.5"/>
<text text-anchor="start" x="1068.38" y="-17" font-family="Helvetica,sans-Serif" font-size="10.00">iop/network/smap/src</text>
<text text-anchor="middle" x="1115.25" y="-5.75" font-family="Helvetica,sans-Serif" font-size="10.00">/smap.c</text>
</a>
</g>
</g>
<!-- Node1&#45;&gt;Node12 -->
<g id="edge22_Node000001_Node000012" class="edge">
<title>Node1&#45;&gt;Node12</title>
<g id="a_edge22_Node000001_Node000012"><a xlink:title=" ">
<path fill="none" stroke="#63b8ff" d="M1384.1,-137.59C1333.16,-132.57 1267.69,-121.47 1214.25,-97 1179.16,-80.93 1146.04,-49.4 1128.41,-30.85"/>
<polygon fill="#63b8ff" stroke="#63b8ff" points="1383.62,-141.06 1393.9,-138.48 1384.26,-134.08 1383.62,-141.06"/>
</a>
</g>
</g>
<!-- Node13 -->
<g id="Node000013" class="node">
<title>Node13</title>
<g id="a_Node000013"><a xlink:href="xfer_8c_source.html" target="_top" xlink:title=" ">
<polygon fill="white" stroke="#666666" points="1298.12,-30.5 1188.38,-30.5 1188.38,0 1298.12,0 1298.12,-30.5"/>
<text text-anchor="start" x="1196.38" y="-17" font-family="Helvetica,sans-Serif" font-size="10.00">iop/network/smap/src</text>
<text text-anchor="middle" x="1243.25" y="-5.75" font-family="Helvetica,sans-Serif" font-size="10.00">/xfer.c</text>
</a>
</g>
</g>
<!-- Node1&#45;&gt;Node13 -->
<g id="edge23_Node000001_Node000013" class="edge">
<title>Node1&#45;&gt;Node13</title>
<g id="a_edge23_Node000001_Node000013"><a xlink:title=" ">
<path fill="none" stroke="#63b8ff" d="M1384.04,-137.38C1322.25,-132.28 1245.35,-121.15 1225.25,-97 1209.54,-78.12 1222.85,-48.44 1233.42,-30.8"/>
<polygon fill="#63b8ff" stroke="#63b8ff" points="1383.63,-140.86 1393.87,-138.15 1384.18,-133.88 1383.63,-140.86"/>
</a>
</g>
</g>
<!-- Node14 -->
<g id="Node000014" class="node">
<title>Node14</title>
<g id="a_Node000014"><a xlink:href="extflash_8c_source.html" target="_top" xlink:title=" ">
<polygon fill="white" stroke="#666666" points="1339.88,-97 1234.62,-97 1234.62,-66.5 1339.88,-66.5 1339.88,-97"/>
<text text-anchor="start" x="1242.62" y="-83.5" font-family="Helvetica,sans-Serif" font-size="10.00">iop/dev9/extflash/src</text>
<text text-anchor="middle" x="1287.25" y="-72.25" font-family="Helvetica,sans-Serif" font-size="10.00">/extflash.c</text>
</a>
</g>
</g>
<!-- Node1&#45;&gt;Node14 -->
<g id="edge14_Node000001_Node000014" class="edge">
<title>Node1&#45;&gt;Node14</title>
<g id="a_edge14_Node000001_Node000014"><a xlink:title=" ">
<path fill="none" stroke="#63b8ff" d="M1428.83,-129.06C1400.52,-119.8 1361.92,-107.17 1332.18,-97.44"/>
<polygon fill="#63b8ff" stroke="#63b8ff" points="1427.49,-132.3 1438.08,-132.08 1429.66,-125.65 1427.49,-132.3"/>
</a>
</g>
</g>
<!-- Node15 -->
<g id="Node000015" class="node">
<title>Node15</title>
<g id="a_Node000015"><a xlink:href="dvrdrv_8c_source.html" target="_top" xlink:title=" ">
<polygon fill="white" stroke="#666666" points="1456.88,-97 1357.62,-97 1357.62,-66.5 1456.88,-66.5 1456.88,-97"/>
<text text-anchor="start" x="1365.62" y="-83.5" font-family="Helvetica,sans-Serif" font-size="10.00">iop/dev9/pvrdrv/src</text>
<text text-anchor="middle" x="1407.25" y="-72.25" font-family="Helvetica,sans-Serif" font-size="10.00">/dvrdrv.c</text>
</a>
</g>
</g>
<!-- Node1&#45;&gt;Node15 -->
<g id="edge15_Node000001_Node000015" class="edge">
<title>Node1&#45;&gt;Node15</title>
<g id="a_edge15_Node000001_Node000015"><a xlink:title=" ">
<path fill="none" stroke="#63b8ff" d="M1450.05,-124.75C1441.21,-116.07 1430.53,-105.6 1422.06,-97.28"/>
<polygon fill="#63b8ff" stroke="#63b8ff" points="1447.47,-127.12 1457.06,-131.62 1452.37,-122.12 1447.47,-127.12"/>
</a>
</g>
</g>
<!-- Node16 -->
<g id="Node000016" class="node">
<title>Node16</title>
<g id="a_Node000016"><a xlink:href="dvr_8c_source.html" target="_top" xlink:title=" ">
<polygon fill="white" stroke="#666666" points="1582,-91.38 1474.5,-91.38 1474.5,-72.12 1582,-72.12 1582,-91.38"/>
<text text-anchor="middle" x="1528.25" y="-77.88" font-family="Helvetica,sans-Serif" font-size="10.00">iop/dvrp/dvr/src/dvr.c</text>
</a>
</g>
</g>
<!-- Node1&#45;&gt;Node16 -->
<g id="edge16_Node000001_Node000016" class="edge">
<title>Node1&#45;&gt;Node16</title>
<g id="a_edge16_Node000001_Node000016"><a xlink:title=" ">
<path fill="none" stroke="#63b8ff" d="M1484.68,-124.8C1495.82,-114.05 1509.82,-100.54 1518.9,-91.78"/>
<polygon fill="#63b8ff" stroke="#63b8ff" points="1482.37,-122.17 1477.6,-131.63 1487.23,-127.21 1482.37,-122.17"/>
</a>
</g>
</g>
<!-- Node17 -->
<g id="Node000017" class="node">
<title>Node17</title>
<g id="a_Node000017"><a xlink:href="dvrav_8c_source.html" target="_top" xlink:title=" ">
<polygon fill="white" stroke="#666666" points="1694.25,-97 1600.25,-97 1600.25,-66.5 1694.25,-66.5 1694.25,-97"/>
<text text-anchor="start" x="1608.25" y="-83.5" font-family="Helvetica,sans-Serif" font-size="10.00">iop/dvrp/dvrav/src</text>
<text text-anchor="middle" x="1647.25" y="-72.25" font-family="Helvetica,sans-Serif" font-size="10.00">/dvrav.c</text>
</a>
</g>
</g>
<!-- Node1&#45;&gt;Node17 -->
<g id="edge17_Node000001_Node000017" class="edge">
<title>Node1&#45;&gt;Node17</title>
<g id="a_edge17_Node000001_Node000017"><a xlink:title=" ">
<path fill="none" stroke="#63b8ff" d="M1505.67,-129.06C1533.98,-119.8 1572.58,-107.17 1602.32,-97.44"/>
<polygon fill="#63b8ff" stroke="#63b8ff" points="1504.84,-125.65 1496.42,-132.08 1507.01,-132.3 1504.84,-125.65"/>
</a>
</g>
</g>
<!-- Node18 -->
<g id="Node000018" class="node">
<title>Node18</title>
<g id="a_Node000018"><a xlink:href="dvrdv_8c_source.html" target="_top" xlink:title=" ">
<polygon fill="white" stroke="#666666" points="1806.25,-97 1712.25,-97 1712.25,-66.5 1806.25,-66.5 1806.25,-97"/>
<text text-anchor="start" x="1720.25" y="-83.5" font-family="Helvetica,sans-Serif" font-size="10.00">iop/dvrp/dvrdv/src</text>
<text text-anchor="middle" x="1759.25" y="-72.25" font-family="Helvetica,sans-Serif" font-size="10.00">/dvrdv.c</text>
</a>
</g>
</g>
<!-- Node1&#45;&gt;Node18 -->
<g id="edge18_Node000001_Node000018" class="edge">
<title>Node1&#45;&gt;Node18</title>
<g id="a_edge18_Node000001_Node000018"><a xlink:title=" ">
<path fill="none" stroke="#63b8ff" d="M1531.47,-130.6C1579.05,-122.16 1645.4,-109.82 1703.25,-97 1706.09,-96.37 1709.01,-95.7 1711.94,-95.01"/>
<polygon fill="#63b8ff" stroke="#63b8ff" points="1531.13,-127.1 1521.89,-132.29 1532.35,-134 1531.13,-127.1"/>
</a>
</g>
</g>
<!-- Node19 -->
<g id="Node000019" class="node">
<title>Node19</title>
<g id="a_Node000019"><a xlink:href="dvrfile_8c_source.html" target="_top" xlink:title=" ">
<polygon fill="white" stroke="#666666" points="1920,-97 1824.5,-97 1824.5,-66.5 1920,-66.5 1920,-97"/>
<text text-anchor="start" x="1832.5" y="-83.5" font-family="Helvetica,sans-Serif" font-size="10.00">iop/dvrp/dvrfile/src</text>
<text text-anchor="middle" x="1872.25" y="-72.25" font-family="Helvetica,sans-Serif" font-size="10.00">/dvrfile.c</text>
</a>
</g>
</g>
<!-- Node1&#45;&gt;Node19 -->
<g id="edge19_Node000001_Node000019" class="edge">
<title>Node1&#45;&gt;Node19</title>
<g id="a_edge19_Node000001_Node000019"><a xlink:title=" ">
<path fill="none" stroke="#63b8ff" d="M1550.01,-133.78C1620.79,-126.41 1725.19,-113.97 1815.25,-97 1818.16,-96.45 1821.14,-95.85 1824.14,-95.2"/>
<polygon fill="#63b8ff" stroke="#63b8ff" points="1550.04,-130.26 1540.46,-134.76 1550.76,-137.22 1550.04,-130.26"/>
</a>
</g>
</g>
<!-- Node20 -->
<g id="Node000020" class="node">
<title>Node20</title>
<g id="a_Node000020"><a xlink:href="dvripl_8c_source.html" target="_top" xlink:title=" ">
<polygon fill="white" stroke="#666666" points="2030.88,-97 1937.62,-97 1937.62,-66.5 2030.88,-66.5 2030.88,-97"/>
<text text-anchor="start" x="1945.62" y="-83.5" font-family="Helvetica,sans-Serif" font-size="10.00">iop/dvrp/dvripl/src</text>
<text text-anchor="middle" x="1984.25" y="-72.25" font-family="Helvetica,sans-Serif" font-size="10.00">/dvripl.c</text>
</a>
</g>
</g>
<!-- Node1&#45;&gt;Node20 -->
<g id="edge20_Node000001_Node000020" class="edge">
<title>Node1&#45;&gt;Node20</title>
<g id="a_edge20_Node000001_Node000020"><a xlink:title=" ">
<path fill="none" stroke="#63b8ff" d="M1550.25,-137.55C1643.13,-132.07 1797.85,-120.22 1929.25,-97 1931.87,-96.54 1934.55,-96.01 1937.25,-95.45"/>
<polygon fill="#63b8ff" stroke="#63b8ff" points="1550.24,-134.04 1540.46,-138.11 1550.65,-141.03 1550.24,-134.04"/>
</a>
</g>
</g>
<!-- Node21 -->
<g id="Node000021" class="node">
<title>Node21</title>
<g id="a_Node000021"><a xlink:href="dvrmisc_8c_source.html" target="_top" xlink:title=" ">
<polygon fill="white" stroke="#666666" points="2153.5,-97 2049,-97 2049,-66.5 2153.5,-66.5 2153.5,-97"/>
<text text-anchor="start" x="2057" y="-83.5" font-family="Helvetica,sans-Serif" font-size="10.00">iop/dvrp/dvrmisc/src</text>
<text text-anchor="middle" x="2101.25" y="-72.25" font-family="Helvetica,sans-Serif" font-size="10.00">/dvrmisc.c</text>
</a>
</g>
</g>
<!-- Node1&#45;&gt;Node21 -->
<g id="edge21_Node000001_Node000021" class="edge">
<title>Node1&#45;&gt;Node21</title>
<g id="a_edge21_Node000001_Node000021"><a xlink:title=" ">
<path fill="none" stroke="#63b8ff" d="M1550.31,-139.11C1662.18,-134.82 1867.22,-123.79 2040.25,-97 2043.04,-96.57 2045.9,-96.08 2048.78,-95.54"/>
<polygon fill="#63b8ff" stroke="#63b8ff" points="1550.49,-135.6 1540.63,-139.47 1550.75,-142.59 1550.49,-135.6"/>
</a>
</g>
</g>
<!-- Node22 -->
<g id="Node000022" class="node">
<title>Node22</title>
<g id="a_Node000022"><a xlink:href="spduart_8c_source.html" target="_top" xlink:title=" ">
<polygon fill="white" stroke="#666666" points="2273,-97 2171.5,-97 2171.5,-66.5 2273,-66.5 2273,-97"/>
<text text-anchor="start" x="2179.5" y="-83.5" font-family="Helvetica,sans-Serif" font-size="10.00">iop/network/spduart</text>
<text text-anchor="middle" x="2222.25" y="-72.25" font-family="Helvetica,sans-Serif" font-size="10.00">/src/spduart.c</text>
</a>
</g>
</g>
<!-- Node1&#45;&gt;Node22 -->
<g id="edge24_Node000001_Node000022" class="edge">
<title>Node1&#45;&gt;Node22</title>
<g id="a_edge24_Node000001_Node000022"><a xlink:title=" ">
<path fill="none" stroke="#63b8ff" d="M1550.45,-140.82C1681.33,-138.52 1943.02,-129.83 2162.25,-97 2165.21,-96.56 2168.25,-96.04 2171.3,-95.47"/>
<polygon fill="#63b8ff" stroke="#63b8ff" points="1550.41,-137.32 1540.47,-140.98 1550.53,-144.31 1550.41,-137.32"/>
</a>
</g>
</g>
<!-- Node3 -->
<g id="Node000003" class="node">
<title>Node3</title>
<g id="a_Node000003"><a xlink:href="ata_8c_source.html" target="_top" xlink:title=" ">
<polygon fill="white" stroke="#666666" points="760.5,-30.5 656,-30.5 656,0 760.5,0 760.5,-30.5"/>
<text text-anchor="start" x="664" y="-17" font-family="Helvetica,sans-Serif" font-size="10.00">iop/arcade/acata/src</text>
<text text-anchor="middle" x="708.25" y="-5.75" font-family="Helvetica,sans-Serif" font-size="10.00">/ata.c</text>
</a>
</g>
</g>
<!-- Node2&#45;&gt;Node3 -->
<g id="edge2_Node000002_Node000003" class="edge">
<title>Node2&#45;&gt;Node3</title>
<g id="a_edge2_Node000002_Node000003"><a xlink:title=" ">
<path fill="none" stroke="#63b8ff" d="M554.79,-68.07C586.42,-57.39 631.69,-42.1 664.87,-30.9"/>
<polygon fill="#63b8ff" stroke="#63b8ff" points="554,-64.65 545.64,-71.16 556.24,-71.28 554,-64.65"/>
</a>
</g>
</g>
<!-- Node4 -->
<g id="Node000004" class="node">
<title>Node4</title>
<g id="a_Node000004"><a xlink:href="atacmd_8c_source.html" target="_top" xlink:title=" ">
<polygon fill="white" stroke="#666666" points="883.5,-30.5 779,-30.5 779,0 883.5,0 883.5,-30.5"/>
<text text-anchor="start" x="787" y="-17" font-family="Helvetica,sans-Serif" font-size="10.00">iop/arcade/acata/src</text>
<text text-anchor="middle" x="831.25" y="-5.75" font-family="Helvetica,sans-Serif" font-size="10.00">/atacmd.c</text>
</a>
</g>
</g>
<!-- Node2&#45;&gt;Node4 -->
<g id="edge3_Node000002_Node000004" class="edge">
<title>Node2&#45;&gt;Node4</title>
<g id="a_edge3_Node000002_Node000004"><a xlink:title=" ">
<path fill="none" stroke="#63b8ff" d="M575.87,-69.56C627,-59.68 703.15,-44.68 769.25,-30.5 772.27,-29.85 775.38,-29.17 778.51,-28.48"/>
<polygon fill="#63b8ff" stroke="#63b8ff" points="575.35,-66.1 566.2,-71.43 576.68,-72.97 575.35,-66.1"/>
</a>
</g>
</g>
<!-- Node5 -->
<g id="Node000005" class="node">
<title>Node5</title>
<g id="a_Node000005"><a xlink:href="atapicmd_8c_source.html" target="_top" xlink:title=" ">
<polygon fill="white" stroke="#666666" points="104.5,-30.5 0,-30.5 0,0 104.5,0 104.5,-30.5"/>
<text text-anchor="start" x="8" y="-17" font-family="Helvetica,sans-Serif" font-size="10.00">iop/arcade/acata/src</text>
<text text-anchor="middle" x="52.25" y="-5.75" font-family="Helvetica,sans-Serif" font-size="10.00">/atapicmd.c</text>
</a>
</g>
</g>
<!-- Node2&#45;&gt;Node5 -->
<g id="edge4_Node000002_Node000005" class="edge">
<title>Node2&#45;&gt;Node5</title>
<g id="a_edge4_Node000002_Node000005"><a xlink:title=" ">
<path fill="none" stroke="#63b8ff" d="M443.9,-73.98C362.68,-65.94 228.05,-50.99 113.25,-30.5 110.47,-30 107.62,-29.46 104.75,-28.89"/>
<polygon fill="#63b8ff" stroke="#63b8ff" points="443.2,-77.43 453.49,-74.92 443.88,-70.46 443.2,-77.43"/>
</a>
</g>
</g>
<!-- Node6 -->
<g id="Node000006" class="node">
<title>Node6</title>
<g id="a_Node000006"><a xlink:href="acatad_8c_source.html" target="_top" xlink:title=" ">
<polygon fill="white" stroke="#666666" points="232.12,-30.5 122.38,-30.5 122.38,0 232.12,0 232.12,-30.5"/>
<text text-anchor="start" x="130.38" y="-17" font-family="Helvetica,sans-Serif" font-size="10.00">iop/arcade/acatad/src</text>
<text text-anchor="middle" x="177.25" y="-5.75" font-family="Helvetica,sans-Serif" font-size="10.00">/acatad.c</text>
</a>
</g>
</g>
<!-- Node2&#45;&gt;Node6 -->
<g id="edge5_Node000002_Node000006" class="edge">
<title>Node2&#45;&gt;Node6</title>
<g id="a_edge5_Node000002_Node000006"><a xlink:title=" ">
<path fill="none" stroke="#63b8ff" d="M452.53,-69.7C396.51,-59.96 313.38,-45.09 241.25,-30.5 238.35,-29.91 235.38,-29.3 232.38,-28.67"/>
<polygon fill="#63b8ff" stroke="#63b8ff" points="451.76,-73.12 462.21,-71.38 452.96,-66.22 451.76,-73.12"/>
</a>
</g>
</g>
<!-- Node7 -->
<g id="Node000007" class="node">
<title>Node7</title>
<g id="a_Node000007"><a xlink:href="acd_8c_source.html" target="_top" xlink:title=" ">
<polygon fill="white" stroke="#666666" points="362.25,-30.5 250.25,-30.5 250.25,0 362.25,0 362.25,-30.5"/>
<text text-anchor="start" x="258.25" y="-17" font-family="Helvetica,sans-Serif" font-size="10.00">iop/arcade/accdvd/src</text>
<text text-anchor="middle" x="306.25" y="-5.75" font-family="Helvetica,sans-Serif" font-size="10.00">/acd.c</text>
</a>
</g>
</g>
<!-- Node2&#45;&gt;Node7 -->
<g id="edge6_Node000002_Node000007" class="edge">
<title>Node2&#45;&gt;Node7</title>
<g id="a_edge6_Node000002_Node000007"><a xlink:title=" ">
<path fill="none" stroke="#63b8ff" d="M476.69,-68.35C441.71,-57.66 391.14,-42.2 354.17,-30.9"/>
<polygon fill="#63b8ff" stroke="#63b8ff" points="475.43,-71.63 486.02,-71.2 477.48,-64.93 475.43,-71.63"/>
</a>
</g>
</g>
<!-- Node8 -->
<g id="Node000008" class="node">
<title>Node8</title>
<g id="a_Node000008"><a xlink:href="ps2atad_8c.html" target="_top" xlink:title=" ">
<polygon fill="white" stroke="#666666" points="516.25,-24.88 380.25,-24.88 380.25,-5.63 516.25,-5.63 516.25,-24.88"/>
<text text-anchor="middle" x="448.25" y="-11.38" font-family="Helvetica,sans-Serif" font-size="10.00">iop/dev9/atad/src/ps2atad.c</text>
</a>
</g>
</g>
<!-- Node2&#45;&gt;Node8 -->
<g id="edge7_Node000002_Node000008" class="edge">
<title>Node2&#45;&gt;Node8</title>
<g id="a_edge7_Node000002_Node000008"><a xlink:title=" ">
<path fill="none" stroke="#63b8ff" d="M499.28,-63.95C486,-51.54 468.44,-35.12 457.76,-25.14"/>
<polygon fill="#63b8ff" stroke="#63b8ff" points="496.85,-66.48 506.55,-70.75 501.63,-61.36 496.85,-66.48"/>
</a>
</g>
</g>
<!-- Node9 -->
<g id="Node000009" class="node">
<title>Node9</title>
<g id="a_Node000009"><a xlink:href="hdproatad_8c_source.html" target="_top" xlink:title=" ">
<polygon fill="white" stroke="#666666" points="638.12,-30.5 534.38,-30.5 534.38,0 638.12,0 638.12,-30.5"/>
<text text-anchor="start" x="542.38" y="-17" font-family="Helvetica,sans-Serif" font-size="10.00">iop/dev9/hdpro_atad</text>
<text text-anchor="middle" x="586.25" y="-5.75" font-family="Helvetica,sans-Serif" font-size="10.00">/src/hdproatad.c</text>
</a>
</g>
</g>
<!-- Node2&#45;&gt;Node9 -->
<g id="edge8_Node000002_Node000009" class="edge">
<title>Node2&#45;&gt;Node9</title>
<g id="a_edge8_Node000002_Node000009"><a xlink:title=" ">
<path fill="none" stroke="#63b8ff" d="M535.24,-63.93C546.23,-53.66 560.13,-40.67 570.64,-30.84"/>
<polygon fill="#63b8ff" stroke="#63b8ff" points="532.87,-61.36 527.95,-70.75 537.65,-66.48 532.87,-61.36"/>
</a>
</g>
</g>
<!-- Node10&#45;&gt;Node11 -->
<g id="edge10_Node000010_Node000011" class="edge">
<title>Node10&#45;&gt;Node11</title>
<g id="a_edge10_Node000010_Node000011"><a xlink:title=" ">
<path fill="none" stroke="#63b8ff" d="M1047.2,-65.58C1028.22,-53.09 1001.95,-35.8 986.08,-25.35"/>
<polygon fill="#63b8ff" stroke="#63b8ff" points="1045.08,-68.38 1055.36,-70.95 1048.93,-62.53 1045.08,-68.38"/>
</a>
</g>
</g>
<!-- Node10&#45;&gt;Node12 -->
<g id="edge11_Node000010_Node000012" class="edge">
<title>Node10&#45;&gt;Node12</title>
<g id="a_edge11_Node000010_Node000012"><a xlink:title=" ">
<path fill="none" stroke="#63b8ff" d="M1082.9,-62.62C1089.97,-52.49 1098.65,-40.04 1105.24,-30.59"/>
<polygon fill="#63b8ff" stroke="#63b8ff" points="1080.22,-60.34 1077.37,-70.54 1085.97,-64.34 1080.22,-60.34"/>
</a>
</g>
</g>
<!-- Node10&#45;&gt;Node13 -->
<g id="edge12_Node000010_Node000013" class="edge">
<title>Node10&#45;&gt;Node13</title>
<g id="a_edge12_Node000010_Node000013"><a xlink:title=" ">
<path fill="none" stroke="#63b8ff" d="M1105.38,-67.65C1133.97,-56.99 1174.3,-41.96 1203.96,-30.9"/>
<polygon fill="#63b8ff" stroke="#63b8ff" points="1104.24,-64.34 1096.09,-71.12 1106.68,-70.9 1104.24,-64.34"/>
</a>
</g>
</g>
</g>
</svg>

<g id="navigator" transform="translate(0 0)" fill="#404254">
  <rect fill="#f2f5e9" fill-opacity="0.5" stroke="#606060" stroke-width=".5" x="0" y="0" width="60" height="60"/>
  <use id="zoomplus" xlink:href="#zoomPlus" x="17" y="9" onmousedown="handleZoom(evt,'in')"/>
  <use id="zoomminus" xlink:href="#zoomMin" x="42" y="9" onmousedown="handleZoom(evt,'out')"/>
  <use id="reset" xlink:href="#resetDef" x="30" y="36" onmousedown="handleReset()"/>
   <use id="arrowup" xlink:href="#arrowUp" x="0" y="0" onmousedown="handlePan(0,-1)"/>
  <use id="arrowright" xlink:href="#arrowRight" x="0" y="0" onmousedown="handlePan(1,0)"/>
  <use id="arrowdown" xlink:href="#arrowDown" x="0" y="0" onmousedown="handlePan(0,1)"/>
  <use id="arrowleft" xlink:href="#arrowLeft" x="0" y="0" onmousedown="handlePan(-1,0)"/>
</g>
<svg viewBox="0 0 15 15" width="100%" height="30px" preserveAspectRatio="xMaxYMin meet">
 <g id="arrow_out" transform="scale(0.3 0.3)">
  <a xlink:href="speedregs_8h__dep__incl_org.svg" target="_base">
   <rect id="button" ry="5" rx="5" y="6" x="6" height="38" width="38"
        fill="#f2f5e9" fill-opacity="0.5" stroke="#606060" stroke-width="1.0"/>
   <path id="arrow"
     d="M 11.500037,31.436501 C 11.940474,20.09759 22.043105,11.32322 32.158766,21.979434 L 37.068811,17.246167 C 37.068811,17.246167 37.088388,32 37.088388,32 L 22.160133,31.978069 C 22.160133,31.978069 26.997745,27.140456 26.997745,27.140456 C 18.528582,18.264221 13.291696,25.230495 11.500037,31.436501 z"
     style="fill:#404040;"/>
  </a>
 </g>
</svg>

<style type='text/css'>
<![CDATA[
[data-mouse-over-selected='false'] { opacity: 0.7; }
[data-mouse-over-selected='true']  { opacity: 1.0; }
]]>
</style>
<script type="application/ecmascript"><![CDATA[
document.addEventListener('DOMContentLoaded', (event) => {
  highlightEdges();
  highlightAdjacentNodes();
});
]]></script>
</svg>
