<?xml version="1.0" encoding="UTF-8" standalone="no"?>
<!DOCTYPE svg PUBLIC "-//W3C//DTD SVG 1.1//EN"
 "http://www.w3.org/Graphics/SVG/1.1/DTD/svg11.dtd">
<!-- Generated by graphviz version 9.0.0 (20230911.1827)
 -->
<!-- Title: iop/kernel/include/ssbusc.h Pages: 1 -->
<svg width="744pt" height="172pt"
 viewBox="0.00 0.00 743.50 171.50" xmlns="http://www.w3.org/2000/svg" xmlns:xlink="http://www.w3.org/1999/xlink">
<g id="graph0" class="graph" transform="scale(1 1) rotate(0) translate(4 167.5)">
<title>iop/kernel/include/ssbusc.h</title>
<!-- Node1 -->
<g id="Node000001" class="node">
<title>Node1</title>
<g id="a_Node000001"><a xlink:title=" ">
<polygon fill="#999999" stroke="#666666" points="426.25,-163.5 334.5,-163.5 334.5,-133 426.25,-133 426.25,-163.5"/>
<text text-anchor="start" x="342.5" y="-150" font-family="Helvetica,sans-Serif" font-size="10.00">iop/kernel/include</text>
<text text-anchor="middle" x="380.38" y="-138.75" font-family="Helvetica,sans-Serif" font-size="10.00">/ssbusc.h</text>
</a>
</g>
</g>
<!-- Node2 -->
<g id="Node000002" class="node">
<title>Node2</title>
<g id="a_Node000002"><a xlink:href="iop_2arcade_2acdev_2src_2irx__imports_8h_source.html" target="_top" xlink:title=" ">
<polygon fill="white" stroke="#666666" points="106.75,-97 0,-97 0,-66.5 106.75,-66.5 106.75,-97"/>
<text text-anchor="start" x="8" y="-83.5" font-family="Helvetica,sans-Serif" font-size="10.00">iop/arcade/acdev/src</text>
<text text-anchor="middle" x="53.38" y="-72.25" font-family="Helvetica,sans-Serif" font-size="10.00">/irx_imports.h</text>
</a>
</g>
</g>
<!-- Node1&#45;&gt;Node2 -->
<g id="edge1_Node000001_Node000002" class="edge">
<title>Node1&#45;&gt;Node2</title>
<g id="a_edge1_Node000001_Node000002"><a xlink:title=" ">
<path fill="none" stroke="#63b8ff" d="M322.7,-136.86C269.14,-127.08 187.23,-111.75 116.38,-97 113.3,-96.36 110.15,-95.69 106.96,-95"/>
<polygon fill="#63b8ff" stroke="#63b8ff" points="322.07,-140.3 332.53,-138.65 323.32,-133.42 322.07,-140.3"/>
</a>
</g>
</g>
<!-- Node4 -->
<g id="Node000004" class="node">
<title>Node4</title>
<g id="a_Node000004"><a xlink:href="adddrv_8c_source.html" target="_top" xlink:title=" ">
<polygon fill="white" stroke="#666666" points="253.62,-91.38 125.12,-91.38 125.12,-72.12 253.62,-72.12 253.62,-91.38"/>
<text text-anchor="middle" x="189.38" y="-77.88" font-family="Helvetica,sans-Serif" font-size="10.00">iop/fs/adddrv/src/adddrv.c</text>
</a>
</g>
</g>
<!-- Node1&#45;&gt;Node4 -->
<g id="edge3_Node000001_Node000004" class="edge">
<title>Node1&#45;&gt;Node4</title>
<g id="a_edge3_Node000001_Node000004"><a xlink:title=" ">
<path fill="none" stroke="#63b8ff" d="M326.23,-128.97C290.33,-116.84 244.77,-101.46 216.33,-91.85"/>
<polygon fill="#63b8ff" stroke="#63b8ff" points="325.01,-132.25 335.6,-132.13 327.25,-125.61 325.01,-132.25"/>
</a>
</g>
</g>
<!-- Node5 -->
<g id="Node000005" class="node">
<title>Node5</title>
<g id="a_Node000005"><a xlink:href="iop_2fs_2adddrv_2src_2irx__imports_8h_source.html" target="_top" xlink:title=" ">
<polygon fill="white" stroke="#666666" points="373.12,-97 271.62,-97 271.62,-66.5 373.12,-66.5 373.12,-97"/>
<text text-anchor="start" x="279.62" y="-83.5" font-family="Helvetica,sans-Serif" font-size="10.00">iop/fs/adddrv/src/irx</text>
<text text-anchor="middle" x="322.38" y="-72.25" font-family="Helvetica,sans-Serif" font-size="10.00">_imports.h</text>
</a>
</g>
</g>
<!-- Node1&#45;&gt;Node5 -->
<g id="edge4_Node000001_Node000005" class="edge">
<title>Node1&#45;&gt;Node5</title>
<g id="a_edge4_Node000001_Node000005"><a xlink:title=" ">
<path fill="none" stroke="#63b8ff" d="M359.58,-124.13C351.55,-115.19 342.59,-105.24 335.48,-97.33"/>
<polygon fill="#63b8ff" stroke="#63b8ff" points="356.91,-126.39 366.2,-131.49 362.12,-121.71 356.91,-126.39"/>
</a>
</g>
</g>
<!-- Node6 -->
<g id="Node000006" class="node">
<title>Node6</title>
<g id="a_Node000006"><a xlink:href="addrom2_8c_source.html" target="_top" xlink:title=" ">
<polygon fill="white" stroke="#666666" points="487.88,-97 390.88,-97 390.88,-66.5 487.88,-66.5 487.88,-97"/>
<text text-anchor="start" x="398.88" y="-83.5" font-family="Helvetica,sans-Serif" font-size="10.00">iop/fs/addrom2/src</text>
<text text-anchor="middle" x="439.38" y="-72.25" font-family="Helvetica,sans-Serif" font-size="10.00">/addrom2.c</text>
</a>
</g>
</g>
<!-- Node1&#45;&gt;Node6 -->
<g id="edge5_Node000001_Node000006" class="edge">
<title>Node1&#45;&gt;Node6</title>
<g id="a_edge5_Node000001_Node000006"><a xlink:title=" ">
<path fill="none" stroke="#63b8ff" d="M401.52,-124.13C409.7,-115.19 418.81,-105.24 426.04,-97.33"/>
<polygon fill="#63b8ff" stroke="#63b8ff" points="398.95,-121.76 394.78,-131.5 404.12,-126.48 398.95,-121.76"/>
</a>
</g>
</g>
<!-- Node7 -->
<g id="Node000007" class="node">
<title>Node7</title>
<g id="a_Node000007"><a xlink:href="iop_2fs_2addrom2_2src_2irx__imports_8h_source.html" target="_top" xlink:title=" ">
<polygon fill="white" stroke="#666666" points="602.88,-97 505.88,-97 505.88,-66.5 602.88,-66.5 602.88,-97"/>
<text text-anchor="start" x="513.88" y="-83.5" font-family="Helvetica,sans-Serif" font-size="10.00">iop/fs/addrom2/src</text>
<text text-anchor="middle" x="554.38" y="-72.25" font-family="Helvetica,sans-Serif" font-size="10.00">/irx_imports.h</text>
</a>
</g>
</g>
<!-- Node1&#45;&gt;Node7 -->
<g id="edge6_Node000001_Node000007" class="edge">
<title>Node1&#45;&gt;Node7</title>
<g id="a_edge6_Node000001_Node000007"><a xlink:title=" ">
<path fill="none" stroke="#63b8ff" d="M430.56,-128.65C457.32,-118.73 489.78,-106.7 514.75,-97.44"/>
<polygon fill="#63b8ff" stroke="#63b8ff" points="429.44,-125.33 421.28,-132.09 431.87,-131.89 429.44,-125.33"/>
</a>
</g>
</g>
<!-- Node8 -->
<g id="Node000008" class="node">
<title>Node8</title>
<g id="a_Node000008"><a xlink:href="ssbusc_8c_source.html" target="_top" xlink:title=" ">
<polygon fill="white" stroke="#666666" points="735.5,-97 621.25,-97 621.25,-66.5 735.5,-66.5 735.5,-97"/>
<text text-anchor="start" x="629.25" y="-83.5" font-family="Helvetica,sans-Serif" font-size="10.00">iop/system/ssbusc/src</text>
<text text-anchor="middle" x="678.38" y="-72.25" font-family="Helvetica,sans-Serif" font-size="10.00">/ssbusc.c</text>
</a>
</g>
</g>
<!-- Node1&#45;&gt;Node8 -->
<g id="edge7_Node000001_Node000008" class="edge">
<title>Node1&#45;&gt;Node8</title>
<g id="a_edge7_Node000001_Node000008"><a xlink:title=" ">
<path fill="none" stroke="#63b8ff" d="M437.78,-134.82C490.45,-123.43 568.06,-106.63 620.79,-95.21"/>
<polygon fill="#63b8ff" stroke="#63b8ff" points="437.12,-131.39 428.09,-136.92 438.6,-138.23 437.12,-131.39"/>
</a>
</g>
</g>
<!-- Node3 -->
<g id="Node000003" class="node">
<title>Node3</title>
<g id="a_Node000003"><a xlink:href="acdev_8c_source.html" target="_top" xlink:title=" ">
<polygon fill="white" stroke="#666666" points="106.75,-30.5 0,-30.5 0,0 106.75,0 106.75,-30.5"/>
<text text-anchor="start" x="8" y="-17" font-family="Helvetica,sans-Serif" font-size="10.00">iop/arcade/acdev/src</text>
<text text-anchor="middle" x="53.38" y="-5.75" font-family="Helvetica,sans-Serif" font-size="10.00">/acdev.c</text>
</a>
</g>
</g>
<!-- Node2&#45;&gt;Node3 -->
<g id="edge2_Node000002_Node000003" class="edge">
<title>Node2&#45;&gt;Node3</title>
<g id="a_edge2_Node000002_Node000003"><a xlink:title=" ">
<path fill="none" stroke="#63b8ff" d="M53.38,-54.81C53.38,-46.64 53.38,-37.91 53.38,-30.83"/>
<polygon fill="#63b8ff" stroke="#63b8ff" points="49.88,-54.6 53.38,-64.6 56.88,-54.6 49.88,-54.6"/>
</a>
</g>
</g>
</g>
</svg>
