<?xml version="1.0" encoding="UTF-8" standalone="no"?>
<!DOCTYPE svg PUBLIC "-//W3C//DTD SVG 1.1//EN"
 "http://www.w3.org/Graphics/SVG/1.1/DTD/svg11.dtd">
<!-- Generated by graphviz version 9.0.0 (20230911.1827)
 -->
<!-- Title: packet2_t Pages: 1 -->
<svg width="202pt" height="94pt"
 viewBox="0.00 0.00 202.12 93.75" xmlns="http://www.w3.org/2000/svg" xmlns:xlink="http://www.w3.org/1999/xlink">
<g id="graph0" class="graph" transform="scale(1 1) rotate(0) translate(4 89.75)">
<title>packet2_t</title>
<!-- Node1 -->
<g id="Node000001" class="node">
<title>Node1</title>
<g id="a_Node000001"><a xlink:title=" ">
<polygon fill="#999999" stroke="#666666" points="104.25,-19.25 45.5,-19.25 45.5,0 104.25,0 104.25,-19.25"/>
<text text-anchor="middle" x="74.88" y="-5.75" font-family="Helvetica,sans-Serif" font-size="10.00">packet2_t</text>
</a>
</g>
</g>
<!-- Node2 -->
<g id="Node000002" class="node">
<title>Node2</title>
<g id="a_Node000002"><a xlink:href="group__packet2__types.html#structdma__tag__t" target="_top" xlink:title=" ">
<polygon fill="white" stroke="#666666" points="61.75,-85.75 0,-85.75 0,-66.5 61.75,-66.5 61.75,-85.75"/>
<text text-anchor="middle" x="30.88" y="-72.25" font-family="Helvetica,sans-Serif" font-size="10.00">dma_tag_t</text>
</a>
</g>
</g>
<!-- Node2&#45;&gt;Node1 -->
<g id="edge1_Node000001_Node000002" class="edge">
<title>Node2&#45;&gt;Node1</title>
<g id="a_edge1_Node000001_Node000002"><a xlink:title=" ">
<path fill="none" stroke="#9a32cd" stroke-dasharray="5,2" d="M27.87,-54.76C27.9,-48.79 28.88,-42.47 31.88,-37.25 36.34,-29.48 44.07,-23.68 51.76,-19.51"/>
<polygon fill="#9a32cd" stroke="#9a32cd" points="24.37,-54.88 28.69,-64.55 31.34,-54.29 24.37,-54.88"/>
</a>
</g>
<text text-anchor="middle" x="64.88" y="-39" font-family="Helvetica,sans-Serif" font-size="10.00" fill="grey"> tag_opened_at</text>
</g>
<!-- Node3 -->
<g id="Node000003" class="node">
<title>Node3</title>
<g id="a_Node000003"><a xlink:href="group__packet2__types.html#structvif__code__t" target="_top" xlink:title=" ">
<polygon fill="white" stroke="#666666" points="150.38,-85.75 89.38,-85.75 89.38,-66.5 150.38,-66.5 150.38,-85.75"/>
<text text-anchor="middle" x="119.88" y="-72.25" font-family="Helvetica,sans-Serif" font-size="10.00">vif_code_t</text>
</a>
</g>
</g>
<!-- Node3&#45;&gt;Node1 -->
<g id="edge2_Node000001_Node000003" class="edge">
<title>Node3&#45;&gt;Node1</title>
<g id="a_edge2_Node000001_Node000003"><a xlink:title=" ">
<path fill="none" stroke="#9a32cd" stroke-dasharray="5,2" d="M109.95,-56.47C106.38,-50.2 102.17,-43.28 97.88,-37.25 93.48,-31.08 87.94,-24.64 83.41,-19.64"/>
<polygon fill="#9a32cd" stroke="#9a32cd" points="106.64,-57.71 114.53,-64.78 112.78,-54.34 106.64,-57.71"/>
</a>
</g>
<text text-anchor="middle" x="149.5" y="-39" font-family="Helvetica,sans-Serif" font-size="10.00" fill="grey"> vif_code_opened_at</text>
</g>
</g>
</svg>
