<?xml version="1.0" encoding="UTF-8" standalone="no"?>
<!DOCTYPE svg PUBLIC "-//W3C//DTD SVG 1.1//EN"
 "http://www.w3.org/Graphics/SVG/1.1/DTD/svg11.dtd">
<!-- Generated by graphviz version 2.44.0 ()
 -->
<!-- Title: GS_SPRITE_F4 Pages: 1 -->
<svg width="178pt" height="173pt"
 viewBox="0.00 0.00 177.50 173.00" xmlns="http://www.w3.org/2000/svg" xmlns:xlink="http://www.w3.org/1999/xlink">
<g id="graph0" class="graph" transform="scale(1 1) rotate(0) translate(4 169)">
<title>GS_SPRITE_F4</title>
<polygon fill="white" stroke="transparent" points="-4,4 -4,-169 173.5,-169 173.5,4 -4,4"/>
<!-- Node1 -->
<g id="node1" class="node">
<title>Node1</title>
<g id="a_node1"><a xlink:title=" ">
<polygon fill="#bfbfbf" stroke="black" points="36,-0.5 36,-19.5 124,-19.5 124,-0.5 36,-0.5"/>
<text text-anchor="middle" x="80" y="-7.5" font-family="Helvetica,sans-Serif" font-size="10.00">GS_SPRITE_F4</text>
</a>
</g>
</g>
<!-- Node2 -->
<g id="node2" class="node">
<title>Node2</title>
<g id="a_node2"><a xlink:href="libgs_8h.html#struct_g_s___r___x_y_z" target="_top" xlink:title=" ">
<polygon fill="white" stroke="black" points="0,-78.5 0,-97.5 68,-97.5 68,-78.5 0,-78.5"/>
<text text-anchor="middle" x="34" y="-85.5" font-family="Helvetica,sans-Serif" font-size="10.00">GS_R_XYZ</text>
</a>
</g>
</g>
<!-- Node2&#45;&gt;Node1 -->
<g id="edge1" class="edge">
<title>Node2&#45;&gt;Node1</title>
<path fill="none" stroke="#9a32cd" stroke-dasharray="5,2" d="M44.55,-69.57C54,-53.95 67.47,-31.7 74.78,-19.62"/>
<polygon fill="#9a32cd" stroke="#9a32cd" points="41.46,-67.91 39.28,-78.28 47.45,-71.54 41.46,-67.91"/>
<text text-anchor="middle" x="74" y="-52" font-family="Helvetica,sans-Serif" font-size="10.00"> xyz0</text>
<text text-anchor="middle" x="74" y="-41" font-family="Helvetica,sans-Serif" font-size="10.00">xyz1</text>
</g>
<!-- Node3 -->
<g id="node3" class="node">
<title>Node3</title>
<g id="a_node3"><a xlink:href="libgs_8h.html#struct_g_s___x_y_z" target="_top" xlink:title=" ">
<polygon fill="white" stroke="black" points="6,-145.5 6,-164.5 62,-164.5 62,-145.5 6,-145.5"/>
<text text-anchor="middle" x="34" y="-152.5" font-family="Helvetica,sans-Serif" font-size="10.00">GS_XYZ</text>
</a>
</g>
</g>
<!-- Node3&#45;&gt;Node2 -->
<g id="edge2" class="edge">
<title>Node3&#45;&gt;Node2</title>
<path fill="none" stroke="#9a32cd" stroke-dasharray="5,2" d="M34,-135.04C34,-122.67 34,-107.12 34,-97.63"/>
<polygon fill="#9a32cd" stroke="#9a32cd" points="30.5,-135.23 34,-145.23 37.5,-135.23 30.5,-135.23"/>
<text text-anchor="middle" x="45" y="-119" font-family="Helvetica,sans-Serif" font-size="10.00"> data</text>
</g>
<!-- Node4 -->
<g id="node4" class="node">
<title>Node4</title>
<g id="a_node4"><a xlink:href="libgs_8h.html#struct_g_s___r___r_g_b_a_q" target="_top" xlink:title=" ">
<polygon fill="white" stroke="black" points="86.5,-78.5 86.5,-97.5 169.5,-97.5 169.5,-78.5 86.5,-78.5"/>
<text text-anchor="middle" x="128" y="-85.5" font-family="Helvetica,sans-Serif" font-size="10.00">GS_R_RGBAQ</text>
</a>
</g>
</g>
<!-- Node4&#45;&gt;Node1 -->
<g id="edge3" class="edge">
<title>Node4&#45;&gt;Node1</title>
<path fill="none" stroke="#9a32cd" stroke-dasharray="5,2" d="M116.99,-69.57C107.13,-53.95 93.07,-31.7 85.44,-19.62"/>
<polygon fill="#9a32cd" stroke="#9a32cd" points="114.19,-71.7 122.49,-78.28 120.11,-67.96 114.19,-71.7"/>
<text text-anchor="middle" x="126" y="-46.5" font-family="Helvetica,sans-Serif" font-size="10.00"> rgbaq0</text>
</g>
<!-- Node5 -->
<g id="node5" class="node">
<title>Node5</title>
<g id="a_node5"><a xlink:href="libgs_8h.html#struct_g_s___r_g_b_a_q" target="_top" xlink:title=" ">
<polygon fill="white" stroke="black" points="92.5,-145.5 92.5,-164.5 163.5,-164.5 163.5,-145.5 92.5,-145.5"/>
<text text-anchor="middle" x="128" y="-152.5" font-family="Helvetica,sans-Serif" font-size="10.00">GS_RGBAQ</text>
</a>
</g>
</g>
<!-- Node5&#45;&gt;Node4 -->
<g id="edge4" class="edge">
<title>Node5&#45;&gt;Node4</title>
<path fill="none" stroke="#9a32cd" stroke-dasharray="5,2" d="M128,-135.04C128,-122.67 128,-107.12 128,-97.63"/>
<polygon fill="#9a32cd" stroke="#9a32cd" points="124.5,-135.23 128,-145.23 131.5,-135.23 124.5,-135.23"/>
<text text-anchor="middle" x="139" y="-119" font-family="Helvetica,sans-Serif" font-size="10.00"> data</text>
</g>
</g>
</svg>
