<?xml version="1.0" encoding="UTF-8" standalone="no"?>
<!DOCTYPE svg PUBLIC "-//W3C//DTD SVG 1.1//EN"
 "http://www.w3.org/Graphics/SVG/1.1/DTD/svg11.dtd">
<!-- Generated by graphviz version 2.43.0 (0)
 -->
<!-- Title: sifman_internals_ Pages: 1 -->
<svg width="254pt" height="195pt"
 viewBox="0.00 0.00 253.50 195.00" xmlns="http://www.w3.org/2000/svg" xmlns:xlink="http://www.w3.org/1999/xlink">
<g id="graph0" class="graph" transform="scale(1 1) rotate(0) translate(4 191)">
<title>sifman_internals_</title>
<polygon fill="white" stroke="transparent" points="-4,4 -4,-191 249.5,-191 249.5,4 -4,4"/>
<!-- Node1 -->
<g id="node1" class="node">
<title>Node1</title>
<g id="a_node1"><a xlink:title=" ">
<polygon fill="#bfbfbf" stroke="black" points="86.5,-0.5 86.5,-19.5 190.5,-19.5 190.5,-0.5 86.5,-0.5"/>
<text text-anchor="middle" x="138.5" y="-7.5" font-family="Helvetica,sans-Serif" font-size="10.00">sifman_internals_</text>
</a>
</g>
</g>
<!-- Node2 -->
<g id="node2" class="node">
<title>Node2</title>
<g id="a_node2"><a xlink:href="structsif__completion__cb__info__arr__.html" target="_top" xlink:title=" ">
<polygon fill="white" stroke="black" points="0,-100.5 0,-119.5 153,-119.5 153,-100.5 0,-100.5"/>
<text text-anchor="middle" x="76.5" y="-107.5" font-family="Helvetica,sans-Serif" font-size="10.00">sif_completion_cb_info_arr_</text>
</a>
</g>
</g>
<!-- Node2&#45;&gt;Node1 -->
<g id="edge1" class="edge">
<title>Node2&#45;&gt;Node1</title>
<path fill="none" stroke="#9a32cd" stroke-dasharray="5,2" d="M78.85,-90.01C81.52,-74.73 87.1,-53.36 98.5,-38 104.19,-30.33 112.75,-24.14 120.49,-19.63"/>
<polygon fill="#9a32cd" stroke="#9a32cd" points="75.33,-89.89 77.33,-100.3 82.25,-90.92 75.33,-89.89"/>
<text text-anchor="middle" x="138.5" y="-74" font-family="Helvetica,sans-Serif" font-size="10.00"> sif_bufcom1</text>
<text text-anchor="middle" x="138.5" y="-63" font-family="Helvetica,sans-Serif" font-size="10.00">sif_bufcom2</text>
<text text-anchor="middle" x="138.5" y="-52" font-family="Helvetica,sans-Serif" font-size="10.00">sif_otherbufcom</text>
<text text-anchor="middle" x="138.5" y="-41" font-family="Helvetica,sans-Serif" font-size="10.00">sif_curbufcom</text>
</g>
<!-- Node3 -->
<g id="node3" class="node">
<title>Node3</title>
<g id="a_node3"><a xlink:href="structsif__completion__cb__info__.html" target="_top" xlink:title=" ">
<polygon fill="white" stroke="black" points="9.5,-167.5 9.5,-186.5 143.5,-186.5 143.5,-167.5 9.5,-167.5"/>
<text text-anchor="middle" x="76.5" y="-174.5" font-family="Helvetica,sans-Serif" font-size="10.00">sif_completion_cb_info_</text>
</a>
</g>
</g>
<!-- Node3&#45;&gt;Node2 -->
<g id="edge2" class="edge">
<title>Node3&#45;&gt;Node2</title>
<path fill="none" stroke="#9a32cd" stroke-dasharray="5,2" d="M76.5,-157.04C76.5,-144.67 76.5,-129.12 76.5,-119.63"/>
<polygon fill="#9a32cd" stroke="#9a32cd" points="73,-157.23 76.5,-167.23 80,-157.23 73,-157.23"/>
<text text-anchor="middle" x="87.5" y="-141" font-family="Helvetica,sans-Serif" font-size="10.00"> info</text>
</g>
<!-- Node4 -->
<g id="node4" class="node">
<title>Node4</title>
<g id="a_node4"><a xlink:href="structsif__info__.html" target="_top" xlink:title=" ">
<polygon fill="white" stroke="black" points="171.5,-100.5 171.5,-119.5 229.5,-119.5 229.5,-100.5 171.5,-100.5"/>
<text text-anchor="middle" x="200.5" y="-107.5" font-family="Helvetica,sans-Serif" font-size="10.00">sif_info_</text>
</a>
</g>
</g>
<!-- Node4&#45;&gt;Node1 -->
<g id="edge3" class="edge">
<title>Node4&#45;&gt;Node1</title>
<path fill="none" stroke="#9a32cd" stroke-dasharray="5,2" d="M198.15,-90.01C195.48,-74.73 189.9,-53.36 178.5,-38 172.81,-30.33 164.25,-24.14 156.51,-19.63"/>
<polygon fill="#9a32cd" stroke="#9a32cd" points="194.75,-90.92 199.67,-100.3 201.67,-89.89 194.75,-90.92"/>
<text text-anchor="middle" x="221" y="-74" font-family="Helvetica,sans-Serif" font-size="10.00"> one</text>
<text text-anchor="middle" x="221" y="-63" font-family="Helvetica,sans-Serif" font-size="10.00">sif_curbuf</text>
<text text-anchor="middle" x="221" y="-52" font-family="Helvetica,sans-Serif" font-size="10.00">sif_buf1</text>
<text text-anchor="middle" x="221" y="-41" font-family="Helvetica,sans-Serif" font-size="10.00">sif_buf2</text>
</g>
</g>
</svg>
