<?xml version="1.0" encoding="UTF-8" standalone="no"?>
<!DOCTYPE svg PUBLIC "-//W3C//DTD SVG 1.1//EN"
 "http://www.w3.org/Graphics/SVG/1.1/DTD/svg11.dtd">
<!-- Generated by graphviz version 2.43.0 (0)
 -->
<!-- Title: SecrSifDiskBootHeaderParams Pages: 1 -->
<svg width="240pt" height="162pt"
 viewBox="0.00 0.00 239.50 162.00" xmlns="http://www.w3.org/2000/svg" xmlns:xlink="http://www.w3.org/1999/xlink">
<g id="graph0" class="graph" transform="scale(1 1) rotate(0) translate(4 158)">
<title>SecrSifDiskBootHeaderParams</title>
<polygon fill="white" stroke="transparent" points="-4,4 -4,-158 235.5,-158 235.5,4 -4,4"/>
<!-- Node1 -->
<g id="node1" class="node">
<title>Node1</title>
<g id="a_node1"><a xlink:title=" ">
<polygon fill="#bfbfbf" stroke="black" points="29.5,-0.5 29.5,-19.5 195.5,-19.5 195.5,-0.5 29.5,-0.5"/>
<text text-anchor="middle" x="112.5" y="-7.5" font-family="Helvetica,sans-Serif" font-size="10.00">SecrSifDiskBootHeaderParams</text>
</a>
</g>
</g>
<!-- Node2 -->
<g id="node2" class="node">
<title>Node2</title>
<g id="a_node2"><a xlink:href="libsecr-common_8h.html#struct_secr_bit_table" target="_top" xlink:title=" ">
<polygon fill="white" stroke="black" points="74,-67.5 74,-86.5 151,-86.5 151,-67.5 74,-67.5"/>
<text text-anchor="middle" x="112.5" y="-74.5" font-family="Helvetica,sans-Serif" font-size="10.00">SecrBitTable</text>
</a>
</g>
</g>
<!-- Node2&#45;&gt;Node1 -->
<g id="edge1" class="edge">
<title>Node2&#45;&gt;Node1</title>
<path fill="none" stroke="#9a32cd" stroke-dasharray="5,2" d="M112.5,-57.04C112.5,-44.67 112.5,-29.12 112.5,-19.63"/>
<polygon fill="#9a32cd" stroke="#9a32cd" points="109,-57.23 112.5,-67.23 116,-57.23 109,-57.23"/>
<text text-anchor="middle" x="134" y="-41" font-family="Helvetica,sans-Serif" font-size="10.00"> BitTable</text>
</g>
<!-- Node3 -->
<g id="node3" class="node">
<title>Node3</title>
<g id="a_node3"><a xlink:href="libsecr-common_8h.html#struct_secr_bit_block_data" target="_top" xlink:title=" ">
<polygon fill="white" stroke="black" points="0,-134.5 0,-153.5 101,-153.5 101,-134.5 0,-134.5"/>
<text text-anchor="middle" x="50.5" y="-141.5" font-family="Helvetica,sans-Serif" font-size="10.00">SecrBitBlockData</text>
</a>
</g>
</g>
<!-- Node3&#45;&gt;Node2 -->
<g id="edge2" class="edge">
<title>Node3&#45;&gt;Node2</title>
<path fill="none" stroke="#9a32cd" stroke-dasharray="5,2" d="M65.76,-127C77.92,-114.25 94.48,-96.89 104.27,-86.63"/>
<polygon fill="#9a32cd" stroke="#9a32cd" points="63.23,-124.58 58.86,-134.23 68.3,-129.41 63.23,-124.58"/>
<text text-anchor="middle" x="103" y="-108" font-family="Helvetica,sans-Serif" font-size="10.00"> blocks</text>
</g>
<!-- Node4 -->
<g id="node4" class="node">
<title>Node4</title>
<g id="a_node4"><a xlink:href="libsecr-common_8h.html#struct_secr_bit_table_header" target="_top" xlink:title=" ">
<polygon fill="white" stroke="black" points="119.5,-134.5 119.5,-153.5 231.5,-153.5 231.5,-134.5 119.5,-134.5"/>
<text text-anchor="middle" x="175.5" y="-141.5" font-family="Helvetica,sans-Serif" font-size="10.00">SecrBitTableHeader</text>
</a>
</g>
</g>
<!-- Node4&#45;&gt;Node2 -->
<g id="edge3" class="edge">
<title>Node4&#45;&gt;Node2</title>
<path fill="none" stroke="#9a32cd" stroke-dasharray="5,2" d="M159.99,-127C147.63,-114.25 130.81,-96.89 120.86,-86.63"/>
<polygon fill="#9a32cd" stroke="#9a32cd" points="157.53,-129.49 167,-134.23 162.56,-124.62 157.53,-129.49"/>
<text text-anchor="middle" x="166" y="-108" font-family="Helvetica,sans-Serif" font-size="10.00"> header</text>
</g>
</g>
</svg>
