<?xml version="1.0" encoding="UTF-8" standalone="no"?>
<!DOCTYPE svg PUBLIC "-//W3C//DTD SVG 1.1//EN"
 "http://www.w3.org/Graphics/SVG/1.1/DTD/svg11.dtd">
<!-- Generated by graphviz version 12.2.0 (20241103.1931)
 -->
<!-- Title: _libcglue_fdman_socket_ops_ Pages: 1 -->
<svg width="778pt" height="254pt"
 viewBox="0.00 0.00 778.38 253.50" xmlns="http://www.w3.org/2000/svg" xmlns:xlink="http://www.w3.org/1999/xlink">
<g id="graph0" class="graph" transform="scale(1 1) rotate(0) translate(4 249.5)">
<title>_libcglue_fdman_socket_ops_</title>
<!-- Node1 -->
<g id="Node000001" class="node">
<title>Node1</title>
<g id="a_Node000001"><a xlink:title=" ">
<polygon fill="#999999" stroke="#666666" points="314,-19.25 166.75,-19.25 166.75,0 314,0 314,-19.25"/>
<text text-anchor="middle" x="240.38" y="-5.75" font-family="Helvetica,sans-Serif" font-size="10.00">_libcglue_fdman_socket_ops_</text>
</a>
</g>
</g>
<!-- Node2 -->
<g id="Node000002" class="node">
<title>Node2</title>
<g id="a_Node000002"><a xlink:href="structt__ip__info.html" target="_top" xlink:title=" ">
<polygon fill="white" stroke="#666666" points="52.75,-132.38 0,-132.38 0,-113.12 52.75,-113.12 52.75,-132.38"/>
<text text-anchor="middle" x="26.38" y="-118.88" font-family="Helvetica,sans-Serif" font-size="10.00">t_ip_info</text>
</a>
</g>
</g>
<!-- Node2&#45;&gt;Node1 -->
<g id="edge1_Node000001_Node000002" class="edge">
<title>Node2&#45;&gt;Node1</title>
<g id="a_edge1_Node000001_Node000002"><a xlink:title=" ">
<path fill="none" stroke="#9a32cd" stroke-dasharray="5,2" d="M30.12,-101.83C34.92,-82.16 45.25,-52.84 66.12,-37.25 82,-25.39 126.41,-18.72 166.41,-15.02"/>
<polygon fill="#9a32cd" stroke="#9a32cd" points="26.74,-100.87 28.07,-111.38 33.59,-102.34 26.74,-100.87"/>
</a>
</g>
<text text-anchor="middle" x="86.75" y="-55.88" font-family="Helvetica,sans-Serif" font-size="10.00" fill="grey"> getconfig</text>
<text text-anchor="middle" x="86.75" y="-44.62" font-family="Helvetica,sans-Serif" font-size="10.00" fill="grey">setconfig</text>
</g>
<!-- Node3 -->
<g id="Node000003" class="node">
<title>Node3</title>
<g id="a_Node000003"><a xlink:href="tcpip_8h.html#structin__addr" target="_top" xlink:title=" ">
<polygon fill="white" stroke="#bfbfbf" points="50.12,-245.5 2.62,-245.5 2.62,-226.25 50.12,-226.25 50.12,-245.5"/>
<text text-anchor="middle" x="26.38" y="-232" font-family="Helvetica,sans-Serif" font-size="10.00">in_addr</text>
</a>
</g>
</g>
<!-- Node3&#45;&gt;Node2 -->
<g id="edge2_Node000002_Node000003" class="edge">
<title>Node3&#45;&gt;Node2</title>
<g id="a_edge2_Node000002_Node000003"><a xlink:title=" ">
<path fill="none" stroke="#9a32cd" stroke-dasharray="5,2" d="M26.38,-214.3C26.38,-189.88 26.38,-150.26 26.38,-132.66"/>
<polygon fill="#9a32cd" stroke="#9a32cd" points="22.88,-214.27 26.38,-224.27 29.88,-214.27 22.88,-214.27"/>
</a>
</g>
<text text-anchor="middle" x="45.12" y="-198.75" font-family="Helvetica,sans-Serif" font-size="10.00" fill="grey"> gw</text>
<text text-anchor="middle" x="45.12" y="-187.5" font-family="Helvetica,sans-Serif" font-size="10.00" fill="grey">ipaddr</text>
<text text-anchor="middle" x="45.12" y="-176.25" font-family="Helvetica,sans-Serif" font-size="10.00" fill="grey">netmask</text>
</g>
<!-- Node4 -->
<g id="Node000004" class="node">
<title>Node4</title>
<g id="a_Node000004"><a xlink:href="tcpip_8h.html#structip4__addr" target="_top" xlink:title=" ">
<polygon fill="white" stroke="#666666" points="243.75,-132.38 191,-132.38 191,-113.12 243.75,-113.12 243.75,-132.38"/>
<text text-anchor="middle" x="217.38" y="-118.88" font-family="Helvetica,sans-Serif" font-size="10.00">ip4_addr</text>
</a>
</g>
</g>
<!-- Node4&#45;&gt;Node1 -->
<g id="edge3_Node000001_Node000004" class="edge">
<title>Node4&#45;&gt;Node1</title>
<g id="a_edge3_Node000001_Node000004"><a xlink:title=" ">
<path fill="none" stroke="#9a32cd" stroke-dasharray="5,2" d="M205.71,-103.01C196.22,-85.14 186.12,-57.97 197.62,-37.25 201.87,-29.61 209.32,-23.87 216.83,-19.72"/>
<polygon fill="#9a32cd" stroke="#9a32cd" points="202.56,-104.56 210.59,-111.48 208.63,-101.06 202.56,-104.56"/>
</a>
</g>
<text text-anchor="middle" x="229.5" y="-55.88" font-family="Helvetica,sans-Serif" font-size="10.00" fill="grey"> dns_getserver</text>
<text text-anchor="middle" x="229.5" y="-44.62" font-family="Helvetica,sans-Serif" font-size="10.00" fill="grey">dns_setserver</text>
</g>
<!-- Node5 -->
<g id="Node000005" class="node">
<title>Node5</title>
<g id="a_Node000005"><a xlink:href="struct__libcglue__fdman__fd__info__.html" target="_top" xlink:title=" ">
<polygon fill="white" stroke="#bfbfbf" points="528.38,-138 428.38,-138 428.38,-107.5 528.38,-107.5 528.38,-138"/>
<text text-anchor="start" x="436.38" y="-124.5" font-family="Helvetica,sans-Serif" font-size="10.00">_libcglue_fdman_fd</text>
<text text-anchor="middle" x="478.38" y="-113.25" font-family="Helvetica,sans-Serif" font-size="10.00">_info_</text>
</a>
</g>
</g>
<!-- Node5&#45;&gt;Node1 -->
<g id="edge4_Node000001_Node000005" class="edge">
<title>Node5&#45;&gt;Node1</title>
<g id="a_edge4_Node000001_Node000005"><a xlink:title=" ">
<path fill="none" stroke="#9a32cd" stroke-dasharray="5,2" d="M460.45,-98.44C442.05,-74.79 415.17,-41.12 408.38,-37.25 392.28,-28.07 351.59,-21.5 314.29,-17.17"/>
<polygon fill="#9a32cd" stroke="#9a32cd" points="457.44,-100.28 466.34,-106.04 462.98,-95.99 457.44,-100.28"/>
</a>
</g>
<text text-anchor="middle" x="453.34" y="-50.25" font-family="Helvetica,sans-Serif" font-size="10.00" fill="grey"> socket</text>
</g>
<!-- Node6 -->
<g id="Node000006" class="node">
<title>Node6</title>
<g id="a_Node000006"><a xlink:href="struct__libcglue__fdman__fd__ops__.html" target="_top" xlink:title=" ">
<polygon fill="white" stroke="#bfbfbf" points="646.5,-19.25 520.25,-19.25 520.25,0 646.5,0 646.5,-19.25"/>
<text text-anchor="middle" x="583.38" y="-5.75" font-family="Helvetica,sans-Serif" font-size="10.00">_libcglue_fdman_fd_ops_</text>
</a>
</g>
</g>
<!-- Node5&#45;&gt;Node6 -->
<g id="edge7_Node000006_Node000005" class="edge">
<title>Node5&#45;&gt;Node6</title>
<g id="a_edge7_Node000006_Node000005"><a xlink:title=" ">
<path fill="none" stroke="#9a32cd" stroke-dasharray="5,2" d="M474.63,-95.9C473.46,-77.45 475.19,-53.18 488.88,-37.25 496.98,-27.81 508.15,-21.59 519.98,-17.52"/>
<polygon fill="#9a32cd" stroke="#9a32cd" points="471.14,-96.19 475.61,-105.79 478.11,-95.5 471.14,-96.19"/>
</a>
</g>
<text text-anchor="middle" x="504.62" y="-50.25" font-family="Helvetica,sans-Serif" font-size="10.00" fill="grey"> accept</text>
</g>
<!-- Node6&#45;&gt;Node5 -->
<g id="edge5_Node000005_Node000006" class="edge">
<title>Node6&#45;&gt;Node5</title>
<g id="a_edge5_Node000005_Node000006"><a xlink:title=" ">
<path fill="none" stroke="#9a32cd" stroke-dasharray="5,2" d="M564.86,-27.14C561.32,-30.43 557.69,-33.9 554.38,-37.25 531.06,-60.81 505.61,-89.84 490.88,-107.01"/>
<polygon fill="#9a32cd" stroke="#9a32cd" points="567.07,-29.86 572.1,-20.53 562.35,-24.68 567.07,-29.86"/>
</a>
</g>
<text text-anchor="middle" x="563.38" y="-50.25" font-family="Helvetica,sans-Serif" font-size="10.00" fill="grey"> ops</text>
</g>
<!-- Node7 -->
<g id="Node000007" class="node">
<title>Node7</title>
<g id="a_Node000007"><a xlink:href="thread_8c.html#structrequest" target="_top" xlink:title=" ">
<polygon fill="white" stroke="#bfbfbf" points="594.5,-132.38 546.25,-132.38 546.25,-113.12 594.5,-113.12 594.5,-132.38"/>
<text text-anchor="middle" x="570.38" y="-118.88" font-family="Helvetica,sans-Serif" font-size="10.00">request</text>
</a>
</g>
</g>
<!-- Node7&#45;&gt;Node6 -->
<g id="edge6_Node000006_Node000007" class="edge">
<title>Node7&#45;&gt;Node6</title>
<g id="a_edge6_Node000006_Node000007"><a xlink:title=" ">
<path fill="none" stroke="#9a32cd" stroke-dasharray="5,2" d="M572.74,-101.52C575.6,-77.12 580.26,-37.21 582.33,-19.53"/>
<polygon fill="#9a32cd" stroke="#9a32cd" points="569.3,-100.81 571.61,-111.15 576.25,-101.63 569.3,-100.81"/>
</a>
</g>
<text text-anchor="middle" x="591.86" y="-55.88" font-family="Helvetica,sans-Serif" font-size="10.00" fill="grey"> ioctl</text>
<text text-anchor="middle" x="591.86" y="-44.62" font-family="Helvetica,sans-Serif" font-size="10.00" fill="grey">ioctl2</text>
</g>
<!-- Node8 -->
<g id="Node000008" class="node">
<title>Node8</title>
<g id="a_Node000008"><a xlink:href="tcpip_8h.html#structsockaddr" target="_top" xlink:title=" ">
<polygon fill="white" stroke="#bfbfbf" points="515.25,-245.5 459.5,-245.5 459.5,-226.25 515.25,-226.25 515.25,-245.5"/>
<text text-anchor="middle" x="487.38" y="-232" font-family="Helvetica,sans-Serif" font-size="10.00">sockaddr</text>
</a>
</g>
</g>
<!-- Node8&#45;&gt;Node6 -->
<g id="edge8_Node000006_Node000008" class="edge">
<title>Node8&#45;&gt;Node6</title>
<g id="a_edge8_Node000006_Node000008"><a xlink:title=" ">
<path fill="none" stroke="#9a32cd" stroke-dasharray="5,2" d="M522.8,-221.4C550.02,-208.99 585.83,-187.74 603.38,-156.5 629.34,-110.26 626.39,-86.75 607.38,-37.25 604.74,-30.4 599.44,-24.2 594.48,-19.52"/>
<polygon fill="#9a32cd" stroke="#9a32cd" points="521.65,-218.08 513.87,-225.27 524.44,-224.51 521.65,-218.08"/>
</a>
</g>
<text text-anchor="middle" x="651.49" y="-147" font-family="Helvetica,sans-Serif" font-size="10.00" fill="grey"> bind</text>
<text text-anchor="middle" x="651.49" y="-135.75" font-family="Helvetica,sans-Serif" font-size="10.00" fill="grey">connect</text>
<text text-anchor="middle" x="651.49" y="-124.5" font-family="Helvetica,sans-Serif" font-size="10.00" fill="grey">getpeername</text>
<text text-anchor="middle" x="651.49" y="-113.25" font-family="Helvetica,sans-Serif" font-size="10.00" fill="grey">getsockname</text>
<text text-anchor="middle" x="651.49" y="-102" font-family="Helvetica,sans-Serif" font-size="10.00" fill="grey">recvfrom</text>
<text text-anchor="middle" x="651.49" y="-90.75" font-family="Helvetica,sans-Serif" font-size="10.00" fill="grey">sendto</text>
</g>
<!-- Node13 -->
<g id="Node000013" class="node">
<title>Node13</title>
<g id="a_Node000013"><a xlink:href="tcpip_8h.html#structaddrinfo" target="_top" xlink:title=" ">
<polygon fill="white" stroke="#bfbfbf" points="121.62,-132.38 71.12,-132.38 71.12,-113.12 121.62,-113.12 121.62,-132.38"/>
<text text-anchor="middle" x="96.38" y="-118.88" font-family="Helvetica,sans-Serif" font-size="10.00">addrinfo</text>
</a>
</g>
</g>
<!-- Node8&#45;&gt;Node13 -->
<g id="edge14_Node000013_Node000008" class="edge">
<title>Node8&#45;&gt;Node13</title>
<g id="a_edge14_Node000013_Node000008"><a xlink:title=" ">
<path fill="none" stroke="#9a32cd" stroke-dasharray="5,2" d="M448.4,-226.34C390.02,-213.22 276.65,-186.46 182.38,-156.5 160.14,-149.44 135.3,-139.78 118.05,-132.78"/>
<polygon fill="#9a32cd" stroke="#9a32cd" points="447.32,-229.68 457.85,-228.45 448.85,-222.85 447.32,-229.68"/>
</a>
</g>
<text text-anchor="middle" x="387.16" y="-187.5" font-family="Helvetica,sans-Serif" font-size="10.00" fill="grey"> ai_addr</text>
</g>
<!-- Node9 -->
<g id="Node000009" class="node">
<title>Node9</title>
<g id="a_Node000009"><a xlink:href="structmsghdr.html" target="_top" xlink:title=" ">
<polygon fill="white" stroke="#bfbfbf" points="755.5,-132.38 707.25,-132.38 707.25,-113.12 755.5,-113.12 755.5,-132.38"/>
<text text-anchor="middle" x="731.38" y="-118.88" font-family="Helvetica,sans-Serif" font-size="10.00">msghdr</text>
</a>
</g>
</g>
<!-- Node9&#45;&gt;Node6 -->
<g id="edge9_Node000006_Node000009" class="edge">
<title>Node9&#45;&gt;Node6</title>
<g id="a_edge9_Node000006_Node000009"><a xlink:title=" ">
<path fill="none" stroke="#9a32cd" stroke-dasharray="5,2" d="M716.7,-104.14C700.52,-85.58 672.96,-56.44 644.38,-37.25 633.73,-30.1 620.84,-24.15 609.67,-19.69"/>
<polygon fill="#9a32cd" stroke="#9a32cd" points="713.94,-106.29 723.09,-111.62 719.26,-101.74 713.94,-106.29"/>
</a>
</g>
<text text-anchor="middle" x="702.78" y="-55.88" font-family="Helvetica,sans-Serif" font-size="10.00" fill="grey"> recvmsg</text>
<text text-anchor="middle" x="702.78" y="-44.62" font-family="Helvetica,sans-Serif" font-size="10.00" fill="grey">sendmsg</text>
</g>
<!-- Node10 -->
<g id="Node000010" class="node">
<title>Node10</title>
<g id="a_Node000010"><a xlink:href="structiovec.html" target="_top" xlink:title=" ">
<polygon fill="white" stroke="#bfbfbf" points="751,-245.5 711.75,-245.5 711.75,-226.25 751,-226.25 751,-245.5"/>
<text text-anchor="middle" x="731.38" y="-232" font-family="Helvetica,sans-Serif" font-size="10.00">iovec</text>
</a>
</g>
</g>
<!-- Node10&#45;&gt;Node9 -->
<g id="edge10_Node000009_Node000010" class="edge">
<title>Node10&#45;&gt;Node9</title>
<g id="a_edge10_Node000009_Node000010"><a xlink:title=" ">
<path fill="none" stroke="#9a32cd" stroke-dasharray="5,2" d="M731.38,-214.3C731.38,-189.88 731.38,-150.26 731.38,-132.66"/>
<polygon fill="#9a32cd" stroke="#9a32cd" points="727.88,-214.27 731.38,-224.27 734.88,-214.27 727.88,-214.27"/>
</a>
</g>
<text text-anchor="middle" x="750.88" y="-187.5" font-family="Helvetica,sans-Serif" font-size="10.00" fill="grey"> msg_iov</text>
</g>
<!-- Node11 -->
<g id="Node000011" class="node">
<title>Node11</title>
<g id="a_Node000011"><a xlink:href="tcpip_8h.html#structfd__set" target="_top" xlink:title=" ">
<polygon fill="white" stroke="#bfbfbf" points="304.88,-132.38 261.88,-132.38 261.88,-113.12 304.88,-113.12 304.88,-132.38"/>
<text text-anchor="middle" x="283.38" y="-118.88" font-family="Helvetica,sans-Serif" font-size="10.00">fd_set</text>
</a>
</g>
</g>
<!-- Node11&#45;&gt;Node1 -->
<g id="edge11_Node000001_Node000011" class="edge">
<title>Node11&#45;&gt;Node1</title>
<g id="a_edge11_Node000001_Node000011"><a xlink:title=" ">
<path fill="none" stroke="#9a32cd" stroke-dasharray="5,2" d="M280.52,-101.49C277.47,-83.83 271.64,-57.9 261.38,-37.25 258.13,-30.71 253.1,-24.26 248.78,-19.35"/>
<polygon fill="#9a32cd" stroke="#9a32cd" points="277.03,-101.85 282.03,-111.19 283.95,-100.77 277.03,-101.85"/>
</a>
</g>
<text text-anchor="middle" x="287.99" y="-50.25" font-family="Helvetica,sans-Serif" font-size="10.00" fill="grey"> select</text>
</g>
<!-- Node12 -->
<g id="Node000012" class="node">
<title>Node12</title>
<g id="a_Node000012"><a xlink:href="tcpip_8h.html#structhostent" target="_top" xlink:title=" ">
<polygon fill="white" stroke="#bfbfbf" points="371.5,-132.38 323.25,-132.38 323.25,-113.12 371.5,-113.12 371.5,-132.38"/>
<text text-anchor="middle" x="347.38" y="-118.88" font-family="Helvetica,sans-Serif" font-size="10.00">hostent</text>
</a>
</g>
</g>
<!-- Node12&#45;&gt;Node1 -->
<g id="edge12_Node000001_Node000012" class="edge">
<title>Node12&#45;&gt;Node1</title>
<g id="a_edge12_Node000001_Node000012"><a xlink:title=" ">
<path fill="none" stroke="#9a32cd" stroke-dasharray="5,2" d="M342.26,-101.93C336.45,-83.01 325.24,-54.87 306.38,-37.25 297.98,-29.41 286.97,-23.75 276.36,-19.72"/>
<polygon fill="#9a32cd" stroke="#9a32cd" points="338.84,-102.68 344.92,-111.36 345.58,-100.79 338.84,-102.68"/>
</a>
</g>
<text text-anchor="middle" x="366.95" y="-61.5" font-family="Helvetica,sans-Serif" font-size="10.00" fill="grey"> gethostbyaddr</text>
<text text-anchor="middle" x="366.95" y="-50.25" font-family="Helvetica,sans-Serif" font-size="10.00" fill="grey">gethostbyname</text>
<text text-anchor="middle" x="366.95" y="-39" font-family="Helvetica,sans-Serif" font-size="10.00" fill="grey">gethostbyname_r</text>
</g>
<!-- Node13&#45;&gt;Node1 -->
<g id="edge13_Node000001_Node000013" class="edge">
<title>Node13&#45;&gt;Node1</title>
<g id="a_edge13_Node000001_Node000013"><a xlink:title=" ">
<path fill="none" stroke="#9a32cd" stroke-dasharray="5,2" d="M100.34,-101.67C105.21,-82.34 115.39,-53.68 135.12,-37.25 144.68,-29.29 156.31,-23.67 168.3,-19.7"/>
<polygon fill="#9a32cd" stroke="#9a32cd" points="96.95,-100.81 98.19,-111.33 103.78,-102.33 96.95,-100.81"/>
</a>
</g>
<text text-anchor="middle" x="161.75" y="-55.88" font-family="Helvetica,sans-Serif" font-size="10.00" fill="grey"> freeaddrinfo</text>
<text text-anchor="middle" x="161.75" y="-44.62" font-family="Helvetica,sans-Serif" font-size="10.00" fill="grey">getaddrinfo</text>
</g>
<!-- Node13&#45;&gt;Node13 -->
<g id="edge15_Node000013_Node000013" class="edge">
<title>Node13&#45;&gt;Node13</title>
<g id="a_edge15_Node000013_Node000013"><a xlink:title=" ">
<path fill="none" stroke="#9a32cd" stroke-dasharray="5,2" d="M121.25,-135.54C131.24,-136.27 139.62,-132 139.62,-122.75 139.62,-110.15 124.07,-106.8 110.1,-112.71"/>
<polygon fill="#9a32cd" stroke="#9a32cd" points="122.12,-132.15 111.57,-133.15 120.45,-138.94 122.12,-132.15"/>
</a>
</g>
<text text-anchor="middle" x="156.12" y="-118.88" font-family="Helvetica,sans-Serif" font-size="10.00" fill="grey"> ai_next</text>
</g>
</g>
</svg>
