<?xml version="1.0" encoding="UTF-8" standalone="no"?>
<!DOCTYPE svg PUBLIC "-//W3C//DTD SVG 1.1//EN"
 "http://www.w3.org/Graphics/SVG/1.1/DTD/svg11.dtd">
<!-- Generated by graphviz version 2.43.0 (0)
 -->
<!-- Title: msif_cmd_callrpc_8000001A Pages: 1 -->
<svg width="500pt" height="253pt"
 viewBox="0.00 0.00 500.00 253.00" xmlns="http://www.w3.org/2000/svg" xmlns:xlink="http://www.w3.org/1999/xlink">
<g id="graph0" class="graph" transform="scale(1 1) rotate(0) translate(4 249)">
<title>msif_cmd_callrpc_8000001A</title>
<polygon fill="white" stroke="transparent" points="-4,4 -4,-249 496,-249 496,4 -4,4"/>
<!-- Node1 -->
<g id="node1" class="node">
<title>Node1</title>
<g id="a_node1"><a xlink:title=" ">
<polygon fill="#bfbfbf" stroke="black" points="0,-0.5 0,-19.5 156,-19.5 156,-0.5 0,-0.5"/>
<text text-anchor="middle" x="78" y="-7.5" font-family="Helvetica,sans-Serif" font-size="10.00">msif_cmd_callrpc_8000001A</text>
</a>
</g>
</g>
<!-- Node2 -->
<g id="node2" class="node">
<title>Node2</title>
<g id="a_node2"><a xlink:href="struct__sifm__client__data.html" target="_top" xlink:title=" ">
<polygon fill="white" stroke="black" points="134.5,-158.5 134.5,-177.5 237.5,-177.5 237.5,-158.5 134.5,-158.5"/>
<text text-anchor="middle" x="186" y="-165.5" font-family="Helvetica,sans-Serif" font-size="10.00">_sifm_client_data</text>
</a>
</g>
</g>
<!-- Node2&#45;&gt;Node1 -->
<g id="edge1" class="edge">
<title>Node2&#45;&gt;Node1</title>
<path fill="none" stroke="#9a32cd" stroke-dasharray="5,2" d="M174.05,-149.99C160.61,-130.83 138.16,-98.74 119,-71 106.38,-52.73 91.73,-31.22 83.81,-19.56"/>
<polygon fill="#9a32cd" stroke="#9a32cd" points="171.26,-152.11 179.87,-158.28 176.99,-148.09 171.26,-152.11"/>
<text text-anchor="middle" x="162" y="-97.5" font-family="Helvetica,sans-Serif" font-size="10.00"> m_cd</text>
</g>
<!-- Node3 -->
<g id="node3" class="node">
<title>Node3</title>
<g id="a_node3"><a xlink:href="struct__sifm__serve__data.html" target="_top" xlink:title=" ">
<polygon fill="white" stroke="black" points="188.5,-90.5 188.5,-109.5 291.5,-109.5 291.5,-90.5 188.5,-90.5"/>
<text text-anchor="middle" x="240" y="-97.5" font-family="Helvetica,sans-Serif" font-size="10.00">_sifm_serve_data</text>
</a>
</g>
</g>
<!-- Node2&#45;&gt;Node3 -->
<g id="edge6" class="edge">
<title>Node2&#45;&gt;Node3</title>
<path fill="none" stroke="#9a32cd" stroke-dasharray="5,2" d="M180.15,-148.36C179.19,-141.82 179.46,-134.69 183,-129 188.6,-120.02 198.01,-113.83 207.59,-109.61"/>
<polygon fill="#9a32cd" stroke="#9a32cd" points="176.84,-149.56 182.59,-158.46 183.65,-147.92 176.84,-149.56"/>
<text text-anchor="middle" x="198.5" y="-132" font-family="Helvetica,sans-Serif" font-size="10.00"> client</text>
</g>
<!-- Node3&#45;&gt;Node1 -->
<g id="edge12" class="edge">
<title>Node3&#45;&gt;Node1</title>
<path fill="none" stroke="#9a32cd" stroke-dasharray="5,2" d="M197.95,-87.28C185.35,-82.99 171.77,-77.54 160,-71 139.55,-59.64 137.9,-51.78 119,-38 110.19,-31.57 99.94,-24.82 91.89,-19.68"/>
<polygon fill="#9a32cd" stroke="#9a32cd" points="197.19,-90.71 207.78,-90.48 199.35,-84.06 197.19,-90.71"/>
<text text-anchor="middle" x="175" y="-52" font-family="Helvetica,sans-Serif" font-size="10.00"> m_sd</text>
</g>
<!-- Node3&#45;&gt;Node2 -->
<g id="edge2" class="edge">
<title>Node3&#45;&gt;Node2</title>
<path fill="none" stroke="#9a32cd" stroke-dasharray="5,2" d="M231.62,-118.91C227.95,-125.85 223.26,-133.64 218,-140 212.25,-146.94 204.56,-153.49 198.16,-158.4"/>
<polygon fill="#9a32cd" stroke="#9a32cd" points="234.93,-120.12 236.24,-109.61 228.66,-117.01 234.93,-120.12"/>
<text text-anchor="middle" x="241.5" y="-132" font-family="Helvetica,sans-Serif" font-size="10.00"> serve</text>
</g>
<!-- Node3&#45;&gt;Node3 -->
<g id="edge7" class="edge">
<title>Node3&#45;&gt;Node3</title>
<path fill="none" stroke="#9a32cd" stroke-dasharray="5,2" d="M301.46,-104.88C306.42,-103.82 309.5,-102.19 309.5,-100 309.5,-96.58 302,-94.54 291.53,-93.87"/>
<polygon fill="#9a32cd" stroke="#9a32cd" points="301.01,-101.41 291.53,-106.13 301.88,-108.35 301.01,-101.41"/>
<text text-anchor="middle" x="322" y="-103" font-family="Helvetica,sans-Serif" font-size="10.00"> next</text>
<text text-anchor="middle" x="322" y="-92" font-family="Helvetica,sans-Serif" font-size="10.00">link</text>
</g>
<!-- Node4 -->
<g id="node4" class="node">
<title>Node4</title>
<g id="a_node4"><a xlink:href="struct__sifm__serve__entry.html" target="_top" xlink:title=" ">
<polygon fill="white" stroke="black" points="174.5,-0.5 174.5,-19.5 281.5,-19.5 281.5,-0.5 174.5,-0.5"/>
<text text-anchor="middle" x="228" y="-7.5" font-family="Helvetica,sans-Serif" font-size="10.00">_sifm_serve_entry</text>
</a>
</g>
</g>
<!-- Node3&#45;&gt;Node4 -->
<g id="edge5" class="edge">
<title>Node3&#45;&gt;Node4</title>
<path fill="none" stroke="#9a32cd" stroke-dasharray="5,2" d="M210.39,-84.78C205.41,-81.01 200.91,-76.44 198,-71 191.08,-58.07 192.03,-51.4 198,-38 201.31,-30.57 207.78,-24.34 213.86,-19.73"/>
<polygon fill="#9a32cd" stroke="#9a32cd" points="208.74,-87.88 219.04,-90.36 212.53,-82 208.74,-87.88"/>
<text text-anchor="middle" x="223.5" y="-52" font-family="Helvetica,sans-Serif" font-size="10.00"> serve_list</text>
</g>
<!-- Node5 -->
<g id="node5" class="node">
<title>Node5</title>
<g id="a_node5"><a xlink:href="struct__sifm__queue__data.html" target="_top" xlink:title=" ">
<polygon fill="white" stroke="black" points="343,-0.5 343,-19.5 449,-19.5 449,-0.5 343,-0.5"/>
<text text-anchor="middle" x="396" y="-7.5" font-family="Helvetica,sans-Serif" font-size="10.00">_sifm_queue_data</text>
</a>
</g>
</g>
<!-- Node3&#45;&gt;Node5 -->
<g id="edge9" class="edge">
<title>Node3&#45;&gt;Node5</title>
<path fill="none" stroke="#9a32cd" stroke-dasharray="5,2" d="M267.66,-85.95C276.54,-81.48 286.33,-76.28 295,-71 316.5,-57.92 319.41,-50.92 341,-38 352.41,-31.17 365.79,-24.57 376.5,-19.61"/>
<polygon fill="#9a32cd" stroke="#9a32cd" points="265.89,-82.91 258.46,-90.47 268.98,-89.2 265.89,-82.91"/>
<text text-anchor="middle" x="352.5" y="-63" font-family="Helvetica,sans-Serif" font-size="10.00"> end</text>
<text text-anchor="middle" x="352.5" y="-52" font-family="Helvetica,sans-Serif" font-size="10.00">link</text>
<text text-anchor="middle" x="352.5" y="-41" font-family="Helvetica,sans-Serif" font-size="10.00">start</text>
</g>
<!-- Node4&#45;&gt;Node3 -->
<g id="edge3" class="edge">
<title>Node4&#45;&gt;Node3</title>
<path fill="none" stroke="#9a32cd" stroke-dasharray="5,2" d="M246.38,-27.11C249.08,-30.42 251.47,-34.1 253,-38 258.35,-51.66 256.16,-56.68 253,-71 251.52,-77.7 248.27,-84.7 245.39,-90.02"/>
<polygon fill="#9a32cd" stroke="#9a32cd" points="248.75,-24.52 239.3,-19.72 243.69,-29.36 248.75,-24.52"/>
<text text-anchor="middle" x="274" y="-52" font-family="Helvetica,sans-Serif" font-size="10.00"> sentry</text>
</g>
<!-- Node4&#45;&gt;Node4 -->
<g id="edge4" class="edge">
<title>Node4&#45;&gt;Node4</title>
<path fill="none" stroke="#9a32cd" stroke-dasharray="5,2" d="M291.52,-16.23C296.46,-14.86 299.5,-12.78 299.5,-10 299.5,-5.66 292.08,-3.03 281.63,-2.12"/>
<polygon fill="#9a32cd" stroke="#9a32cd" points="290.92,-12.78 281.63,-17.88 292.07,-19.69 290.92,-12.78"/>
<text text-anchor="middle" x="312" y="-7.5" font-family="Helvetica,sans-Serif" font-size="10.00"> next</text>
</g>
<!-- Node5&#45;&gt;Node3 -->
<g id="edge8" class="edge">
<title>Node5&#45;&gt;Node3</title>
<path fill="none" stroke="#9a32cd" stroke-dasharray="5,2" d="M392,-29.58C388.13,-43.06 380.89,-60.69 368,-71 346.6,-88.12 316.98,-95.33 291.63,-98.16"/>
<polygon fill="#9a32cd" stroke="#9a32cd" points="395.4,-30.42 394.43,-19.87 388.61,-28.72 395.4,-30.42"/>
<text text-anchor="middle" x="402.5" y="-52" font-family="Helvetica,sans-Serif" font-size="10.00"> base</text>
</g>
<!-- Node5&#45;&gt;Node5 -->
<g id="edge10" class="edge">
<title>Node5&#45;&gt;Node5</title>
<path fill="none" stroke="#9a32cd" stroke-dasharray="5,2" d="M459.43,-16.13C464.12,-14.76 467,-12.71 467,-10 467,-5.66 459.63,-3.03 449.26,-2.12"/>
<polygon fill="#9a32cd" stroke="#9a32cd" points="458.52,-12.74 449.26,-17.88 459.71,-19.63 458.52,-12.74"/>
<text text-anchor="middle" x="479.5" y="-7.5" font-family="Helvetica,sans-Serif" font-size="10.00"> next</text>
</g>
<!-- Node6 -->
<g id="node6" class="node">
<title>Node6</title>
<g id="a_node6"><a xlink:href="struct__sifm__rpc__data.html" target="_top" xlink:title=" ">
<polygon fill="white" stroke="black" points="140.5,-225.5 140.5,-244.5 231.5,-244.5 231.5,-225.5 140.5,-225.5"/>
<text text-anchor="middle" x="186" y="-232.5" font-family="Helvetica,sans-Serif" font-size="10.00">_sifm_rpc_data</text>
</a>
</g>
</g>
<!-- Node6&#45;&gt;Node2 -->
<g id="edge11" class="edge">
<title>Node6&#45;&gt;Node2</title>
<path fill="none" stroke="#9a32cd" stroke-dasharray="5,2" d="M186,-215.04C186,-202.67 186,-187.12 186,-177.63"/>
<polygon fill="#9a32cd" stroke="#9a32cd" points="182.5,-215.23 186,-225.23 189.5,-215.23 182.5,-215.23"/>
<text text-anchor="middle" x="198.5" y="-199" font-family="Helvetica,sans-Serif" font-size="10.00"> rpcd</text>
</g>
</g>
</svg>
