<?xml version="1.0" encoding="UTF-8" standalone="no"?>
<!DOCTYPE svg PUBLIC "-//W3C//DTD SVG 1.1//EN"
 "http://www.w3.org/Graphics/SVG/1.1/DTD/svg11.dtd">
<!-- Generated by graphviz version 2.44.0 ()
 -->
<!-- Title: t_SifRpcDataQueue Pages: 1 -->
<svg width="253pt" height="186pt"
 viewBox="0.00 0.00 252.50 186.00" xmlns="http://www.w3.org/2000/svg" xmlns:xlink="http://www.w3.org/1999/xlink">
<g id="graph0" class="graph" transform="scale(1 1) rotate(0) translate(4 182)">
<title>t_SifRpcDataQueue</title>
<polygon fill="white" stroke="transparent" points="-4,4 -4,-182 248.5,-182 248.5,4 -4,4"/>
<!-- Node1 -->
<g id="node1" class="node">
<title>Node1</title>
<g id="a_node1"><a xlink:title=" ">
<polygon fill="#bfbfbf" stroke="black" points="0,-158.5 0,-177.5 103,-177.5 103,-158.5 0,-158.5"/>
<text text-anchor="middle" x="51.5" y="-165.5" font-family="Helvetica,sans-Serif" font-size="10.00">t_SifRpcDataQueue</text>
</a>
</g>
</g>
<!-- Node1&#45;&gt;Node1 -->
<g id="edge7" class="edge">
<title>Node1&#45;&gt;Node1</title>
<path fill="none" stroke="#9a32cd" stroke-dasharray="5,2" d="M112.96,-174.31C117.92,-172.94 121,-170.84 121,-168 121,-163.57 113.5,-160.93 103.03,-160.06"/>
<polygon fill="#9a32cd" stroke="#9a32cd" points="112.33,-170.87 103.03,-175.94 113.46,-177.78 112.33,-170.87"/>
<text text-anchor="middle" x="131.5" y="-165.5" font-family="Helvetica,sans-Serif" font-size="10.00"> next</text>
</g>
<!-- Node2 -->
<g id="node2" class="node">
<title>Node2</title>
<g id="a_node2"><a xlink:href="iop_2kernel_2include_2sifcmd_8h.html#structt___sif_rpc_server_data" target="_top" xlink:title=" ">
<polygon fill="white" stroke="black" points="0,-68.5 0,-87.5 103,-87.5 103,-68.5 0,-68.5"/>
<text text-anchor="middle" x="51.5" y="-75.5" font-family="Helvetica,sans-Serif" font-size="10.00">t_SifRpcServerData</text>
</a>
</g>
</g>
<!-- Node1&#45;&gt;Node2 -->
<g id="edge6" class="edge">
<title>Node1&#45;&gt;Node2</title>
<path fill="none" stroke="#9a32cd" stroke-dasharray="5,2" d="M32.64,-151.27C29.73,-147.88 27.14,-144.07 25.5,-140 20.02,-126.4 20.14,-120.65 25.5,-107 28.51,-99.34 34.7,-92.53 40.29,-87.55"/>
<polygon fill="#9a32cd" stroke="#9a32cd" points="30.2,-153.78 39.76,-158.37 35.15,-148.83 30.2,-153.78"/>
<text text-anchor="middle" x="37.5" y="-121" font-family="Helvetica,sans-Serif" font-size="10.00"> base</text>
</g>
<!-- Node2&#45;&gt;Node1 -->
<g id="edge1" class="edge">
<title>Node2&#45;&gt;Node1</title>
<path fill="none" stroke="#9a32cd" stroke-dasharray="5,2" d="M53.04,-98C53.23,-101.01 53.4,-104.09 53.5,-107 54.02,-121.66 54.04,-125.34 53.5,-140 53.27,-146.2 52.75,-153.18 52.29,-158.5"/>
<polygon fill="#9a32cd" stroke="#9a32cd" points="56.52,-97.54 52.29,-87.82 49.53,-98.05 56.52,-97.54"/>
<text text-anchor="middle" x="64.5" y="-132" font-family="Helvetica,sans-Serif" font-size="10.00"> end</text>
<text text-anchor="middle" x="64.5" y="-121" font-family="Helvetica,sans-Serif" font-size="10.00">link</text>
<text text-anchor="middle" x="64.5" y="-110" font-family="Helvetica,sans-Serif" font-size="10.00">start</text>
</g>
<!-- Node2&#45;&gt;Node2 -->
<g id="edge2" class="edge">
<title>Node2&#45;&gt;Node2</title>
<path fill="none" stroke="#9a32cd" stroke-dasharray="5,2" d="M112.96,-82.88C117.92,-81.82 121,-80.19 121,-78 121,-74.58 113.5,-72.54 103.03,-71.87"/>
<polygon fill="#9a32cd" stroke="#9a32cd" points="112.51,-79.41 103.03,-84.13 113.38,-86.35 112.51,-79.41"/>
<text text-anchor="middle" x="130.5" y="-81" font-family="Helvetica,sans-Serif" font-size="10.00"> link</text>
<text text-anchor="middle" x="130.5" y="-70" font-family="Helvetica,sans-Serif" font-size="10.00">next</text>
</g>
<!-- Node3 -->
<g id="node3" class="node">
<title>Node3</title>
<g id="a_node3"><a xlink:href="iop_2kernel_2include_2sifcmd_8h.html#structt___sif_rpc_client_data" target="_top" xlink:title=" ">
<polygon fill="white" stroke="black" points="55,-0.5 55,-19.5 154,-19.5 154,-0.5 55,-0.5"/>
<text text-anchor="middle" x="104.5" y="-7.5" font-family="Helvetica,sans-Serif" font-size="10.00">t_SifRpcClientData</text>
</a>
</g>
</g>
<!-- Node2&#45;&gt;Node3 -->
<g id="edge4" class="edge">
<title>Node2&#45;&gt;Node3</title>
<path fill="none" stroke="#9a32cd" stroke-dasharray="5,2" d="M45.6,-58.34C44.54,-51.49 44.76,-43.96 48.5,-38 53.84,-29.5 62.69,-23.61 71.79,-19.56"/>
<polygon fill="#9a32cd" stroke="#9a32cd" points="42.24,-59.34 48.01,-68.22 49.04,-57.68 42.24,-59.34"/>
<text text-anchor="middle" x="63.5" y="-41" font-family="Helvetica,sans-Serif" font-size="10.00"> server</text>
</g>
<!-- Node3&#45;&gt;Node2 -->
<g id="edge3" class="edge">
<title>Node3&#45;&gt;Node2</title>
<path fill="none" stroke="#9a32cd" stroke-dasharray="5,2" d="M95.8,-28.61C92.13,-35.29 87.53,-42.79 82.5,-49 76.66,-56.22 68.91,-63.22 62.62,-68.41"/>
<polygon fill="#9a32cd" stroke="#9a32cd" points="98.96,-30.12 100.48,-19.63 92.75,-26.89 98.96,-30.12"/>
<text text-anchor="middle" x="103.5" y="-41" font-family="Helvetica,sans-Serif" font-size="10.00"> client</text>
</g>
<!-- Node4 -->
<g id="node4" class="node">
<title>Node4</title>
<g id="a_node4"><a xlink:href="iop_2kernel_2include_2sifcmd_8h.html#structt___sif_rpc_header" target="_top" xlink:title=" ">
<polygon fill="white" stroke="black" points="158.5,-68.5 158.5,-87.5 244.5,-87.5 244.5,-68.5 158.5,-68.5"/>
<text text-anchor="middle" x="201.5" y="-75.5" font-family="Helvetica,sans-Serif" font-size="10.00">t_SifRpcHeader</text>
</a>
</g>
</g>
<!-- Node4&#45;&gt;Node3 -->
<g id="edge5" class="edge">
<title>Node4&#45;&gt;Node3</title>
<path fill="none" stroke="#9a32cd" stroke-dasharray="5,2" d="M180.39,-62.63C161.1,-49.51 133.23,-30.55 117.18,-19.63"/>
<polygon fill="#9a32cd" stroke="#9a32cd" points="178.58,-65.64 188.82,-68.37 182.52,-59.85 178.58,-65.64"/>
<text text-anchor="middle" x="166.5" y="-41" font-family="Helvetica,sans-Serif" font-size="10.00"> hdr</text>
</g>
</g>
</svg>
