<?xml version="1.0" encoding="UTF-8" standalone="no"?>
<!DOCTYPE svg PUBLIC "-//W3C//DTD SVG 1.1//EN"
 "http://www.w3.org/Graphics/SVG/1.1/DTD/svg11.dtd">
<!-- Generated by graphviz version 2.43.0 (0)
 -->
<!-- Title: mcExtraEndParam_ Pages: 1 -->
<svg width="296pt" height="251pt"
 viewBox="0.00 0.00 296.00 251.00" xmlns="http://www.w3.org/2000/svg" xmlns:xlink="http://www.w3.org/1999/xlink">
<g id="graph0" class="graph" transform="scale(1 1) rotate(0) translate(4 247)">
<title>mcExtraEndParam_</title>
<polygon fill="white" stroke="transparent" points="-4,4 -4,-247 292,-247 292,4 -4,4"/>
<!-- Node1 -->
<g id="node1" class="node">
<title>Node1</title>
<g id="a_node1"><a xlink:title=" ">
<polygon fill="#bfbfbf" stroke="black" points="78.5,-0.5 78.5,-19.5 189.5,-19.5 189.5,-0.5 78.5,-0.5"/>
<text text-anchor="middle" x="134" y="-7.5" font-family="Helvetica,sans-Serif" font-size="10.00">mcExtraEndParam_</text>
</a>
</g>
</g>
<!-- Node2 -->
<g id="node2" class="node">
<title>Node2</title>
<g id="a_node2"><a xlink:href="libmc_8c.html#unionlibmc__extra__send__recv__unio" target="_top" xlink:title=" ">
<polygon fill="white" stroke="black" points="56.5,-67.5 56.5,-86.5 211.5,-86.5 211.5,-67.5 56.5,-67.5"/>
<text text-anchor="middle" x="134" y="-74.5" font-family="Helvetica,sans-Serif" font-size="10.00">libmc_extra_send_recv_unio</text>
</a>
</g>
</g>
<!-- Node2&#45;&gt;Node1 -->
<g id="edge1" class="edge">
<title>Node2&#45;&gt;Node1</title>
<path fill="none" stroke="#9a32cd" stroke-dasharray="5,2" d="M134,-57.04C134,-44.67 134,-29.12 134,-19.63"/>
<polygon fill="#9a32cd" stroke="#9a32cd" points="130.5,-57.23 134,-67.23 137.5,-57.23 130.5,-57.23"/>
<text text-anchor="middle" x="202" y="-41" font-family="Helvetica,sans-Serif" font-size="10.00"> m_extra_send_recv_param</text>
</g>
<!-- Node3 -->
<g id="node3" class="node">
<title>Node3</title>
<g id="a_node3"><a xlink:href="mcman_8h.html#struct__sce_mc_tbl_get_dir" target="_top" xlink:title=" ">
<polygon fill="white" stroke="black" points="5.5,-140 5.5,-159 104.5,-159 104.5,-140 5.5,-140"/>
<text text-anchor="middle" x="55" y="-147" font-family="Helvetica,sans-Serif" font-size="10.00">_sceMcTblGetDir</text>
</a>
</g>
</g>
<!-- Node3&#45;&gt;Node2 -->
<g id="edge2" class="edge">
<title>Node3&#45;&gt;Node2</title>
<path fill="none" stroke="#9a32cd" stroke-dasharray="5,2" d="M57.42,-129.65C59.34,-121.24 62.8,-111.74 69,-105 76.78,-96.55 87.61,-90.67 98.2,-86.6"/>
<polygon fill="#9a32cd" stroke="#9a32cd" points="53.93,-129.29 55.67,-139.74 60.82,-130.49 53.93,-129.29"/>
<text text-anchor="middle" x="110" y="-108" font-family="Helvetica,sans-Serif" font-size="10.00"> m_file_info_buff</text>
</g>
<!-- Node4 -->
<g id="node4" class="node">
<title>Node4</title>
<g id="a_node4"><a xlink:href="libmc-common_8h.html#struct__sce_mc_st_date_time" target="_top" xlink:title=" ">
<polygon fill="white" stroke="black" points="0,-223.5 0,-242.5 110,-242.5 110,-223.5 0,-223.5"/>
<text text-anchor="middle" x="55" y="-230.5" font-family="Helvetica,sans-Serif" font-size="10.00">_sceMcStDateTime</text>
</a>
</g>
</g>
<!-- Node4&#45;&gt;Node3 -->
<g id="edge3" class="edge">
<title>Node4&#45;&gt;Node3</title>
<path fill="none" stroke="#9a32cd" stroke-dasharray="5,2" d="M55,-212.88C55,-195.9 55,-171.87 55,-159.16"/>
<polygon fill="#9a32cd" stroke="#9a32cd" points="51.5,-213.28 55,-223.28 58.5,-213.28 51.5,-213.28"/>
<text text-anchor="middle" x="76" y="-197" font-family="Helvetica,sans-Serif" font-size="10.00"> _Modify</text>
<text text-anchor="middle" x="76" y="-186" font-family="Helvetica,sans-Serif" font-size="10.00">_Create</text>
</g>
<!-- Node5 -->
<g id="node5" class="node">
<title>Node5</title>
<g id="a_node5"><a xlink:href="libmc_8c.html#structlibmc__page__read__align__data__stru" target="_top" xlink:title=" ">
<polygon fill="white" stroke="black" points="122.5,-134.5 122.5,-164.5 251.5,-164.5 251.5,-134.5 122.5,-134.5"/>
<text text-anchor="start" x="130.5" y="-152.5" font-family="Helvetica,sans-Serif" font-size="10.00">libmc_page_read_align</text>
<text text-anchor="middle" x="187" y="-141.5" font-family="Helvetica,sans-Serif" font-size="10.00">_data_stru</text>
</a>
</g>
</g>
<!-- Node5&#45;&gt;Node2 -->
<g id="edge4" class="edge">
<title>Node5&#45;&gt;Node2</title>
<path fill="none" stroke="#9a32cd" stroke-dasharray="5,2" d="M170.09,-126.01C160.11,-112.73 148.03,-96.66 140.69,-86.89"/>
<polygon fill="#9a32cd" stroke="#9a32cd" points="167.47,-128.34 176.27,-134.23 173.06,-124.14 167.47,-128.34"/>
<text text-anchor="middle" x="225" y="-108" font-family="Helvetica,sans-Serif" font-size="10.00"> m_page_read_align_data</text>
</g>
</g>
</svg>
