<?xml version="1.0" encoding="UTF-8" standalone="no"?>
<!DOCTYPE svg PUBLIC "-//W3C//DTD SVG 1.1//EN"
 "http://www.w3.org/Graphics/SVG/1.1/DTD/svg11.dtd">
<!-- Generated by graphviz version 12.2.0 (20241103.1931)
 -->
<!-- Title: ac_dma Pages: 1 -->
<svg width="205pt" height="97pt"
 viewBox="0.00 0.00 204.75 97.00" xmlns="http://www.w3.org/2000/svg" xmlns:xlink="http://www.w3.org/1999/xlink">
<g id="graph0" class="graph" transform="scale(1 1) rotate(0) translate(4 93)">
<title>ac_dma</title>
<!-- Node1 -->
<g id="Node000001" class="node">
<title>Node1</title>
<g id="a_Node000001"><a xlink:title=" ">
<polygon fill="#999999" stroke="#666666" points="120.25,-19.25 69.75,-19.25 69.75,0 120.25,0 120.25,-19.25"/>
<text text-anchor="middle" x="95" y="-5.75" font-family="Helvetica,sans-Serif" font-size="10.00">ac_dma</text>
</a>
</g>
</g>
<!-- Node2 -->
<g id="Node000002" class="node">
<title>Node2</title>
<g id="a_Node000002"><a xlink:href="structac__queue.html" target="_top" xlink:title=" ">
<polygon fill="white" stroke="#bfbfbf" points="58,-87.38 0,-87.38 0,-68.12 58,-68.12 58,-87.38"/>
<text text-anchor="middle" x="29" y="-73.88" font-family="Helvetica,sans-Serif" font-size="10.00">ac_queue</text>
</a>
</g>
</g>
<!-- Node2&#45;&gt;Node1 -->
<g id="edge1_Node000001_Node000002" class="edge">
<title>Node2&#45;&gt;Node1</title>
<g id="a_edge1_Node000001_Node000002"><a xlink:title=" ">
<path fill="none" stroke="#9a32cd" stroke-dasharray="5,2" d="M45.99,-59.73C58.86,-46.84 76.01,-29.65 86.24,-19.4"/>
<polygon fill="#9a32cd" stroke="#9a32cd" points="43.56,-57.21 38.97,-66.76 48.51,-62.16 43.56,-57.21"/>
</a>
</g>
<text text-anchor="middle" x="85.91" y="-39" font-family="Helvetica,sans-Serif" font-size="10.00" fill="grey"> d_chain</text>
</g>
<!-- Node2&#45;&gt;Node2 -->
<g id="edge2_Node000002_Node000002" class="edge">
<title>Node2&#45;&gt;Node2</title>
<g id="a_edge2_Node000002_Node000002"><a xlink:title=" ">
<path fill="none" stroke="#9a32cd" stroke-dasharray="5,2" d="M69.61,-83.04C73.52,-81.96 76,-80.2 76,-77.75 76,-73.39 68.17,-71.21 58.38,-71.21"/>
<polygon fill="#9a32cd" stroke="#9a32cd" points="69.43,-79.54 59.88,-84.12 70.21,-86.49 69.43,-79.54"/>
</a>
</g>
<text text-anchor="middle" x="91.38" y="-79.5" font-family="Helvetica,sans-Serif" font-size="10.00" fill="grey"> q_next</text>
<text text-anchor="middle" x="91.38" y="-68.25" font-family="Helvetica,sans-Serif" font-size="10.00" fill="grey">q_prev</text>
</g>
<!-- Node3 -->
<g id="Node000003" class="node">
<title>Node3</title>
<g id="a_Node000003"><a xlink:href="structac__dma__ops.html" target="_top" xlink:title=" ">
<polygon fill="white" stroke="#bfbfbf" points="196.75,-87.38 125.25,-87.38 125.25,-68.12 196.75,-68.12 196.75,-87.38"/>
<text text-anchor="middle" x="161" y="-73.88" font-family="Helvetica,sans-Serif" font-size="10.00">ac_dma_ops</text>
</a>
</g>
</g>
<!-- Node3&#45;&gt;Node1 -->
<g id="edge3_Node000001_Node000003" class="edge">
<title>Node3&#45;&gt;Node1</title>
<g id="a_edge3_Node000001_Node000003"><a xlink:title=" ">
<path fill="none" stroke="#9a32cd" stroke-dasharray="5,2" d="M144.01,-59.73C131.14,-46.84 113.99,-29.65 103.76,-19.4"/>
<polygon fill="#9a32cd" stroke="#9a32cd" points="141.49,-62.16 151.03,-66.76 146.44,-57.21 141.49,-62.16"/>
</a>
</g>
<text text-anchor="middle" x="146.2" y="-39" font-family="Helvetica,sans-Serif" font-size="10.00" fill="grey"> d_ops</text>
</g>
</g>
</svg>
