<?xml version="1.0" encoding="UTF-8" standalone="no"?>
<!DOCTYPE svg PUBLIC "-//W3C//DTD SVG 1.1//EN"
 "http://www.w3.org/Graphics/SVG/1.1/DTD/svg11.dtd">
<!-- Generated by graphviz version 2.43.0 (0)
 -->
<!-- Title: _sifm_serve_data Pages: 1 -->
<svg width="487pt" height="119pt"
 viewBox="0.00 0.00 486.50 119.00" xmlns="http://www.w3.org/2000/svg" xmlns:xlink="http://www.w3.org/1999/xlink">
<g id="graph0" class="graph" transform="scale(1 1) rotate(0) translate(4 115)">
<title>_sifm_serve_data</title>
<polygon fill="white" stroke="transparent" points="-4,4 -4,-115 482.5,-115 482.5,4 -4,4"/>
<!-- Node1 -->
<g id="node1" class="node">
<title>Node1</title>
<g id="a_node1"><a xlink:title=" ">
<polygon fill="#bfbfbf" stroke="black" points="187,-90.5 187,-109.5 290,-109.5 290,-90.5 187,-90.5"/>
<text text-anchor="middle" x="238.5" y="-97.5" font-family="Helvetica,sans-Serif" font-size="10.00">_sifm_serve_data</text>
</a>
</g>
</g>
<!-- Node1&#45;&gt;Node1 -->
<g id="edge7" class="edge">
<title>Node1&#45;&gt;Node1</title>
<path fill="none" stroke="#9a32cd" stroke-dasharray="5,2" d="M299.96,-106.31C304.92,-104.94 308,-102.84 308,-100 308,-95.57 300.5,-92.93 290.03,-92.06"/>
<polygon fill="#9a32cd" stroke="#9a32cd" points="299.33,-102.87 290.03,-107.94 300.46,-109.78 299.33,-102.87"/>
<text text-anchor="middle" x="320.5" y="-103" font-family="Helvetica,sans-Serif" font-size="10.00"> next</text>
<text text-anchor="middle" x="320.5" y="-92" font-family="Helvetica,sans-Serif" font-size="10.00">link</text>
</g>
<!-- Node2 -->
<g id="node2" class="node">
<title>Node2</title>
<g id="a_node2"><a xlink:href="struct__sifm__serve__entry.html" target="_top" xlink:title=" ">
<polygon fill="white" stroke="black" points="161,-0.5 161,-19.5 268,-19.5 268,-0.5 161,-0.5"/>
<text text-anchor="middle" x="214.5" y="-7.5" font-family="Helvetica,sans-Serif" font-size="10.00">_sifm_serve_entry</text>
</a>
</g>
</g>
<!-- Node1&#45;&gt;Node2 -->
<g id="edge3" class="edge">
<title>Node1&#45;&gt;Node2</title>
<path fill="none" stroke="#9a32cd" stroke-dasharray="5,2" d="M210.53,-84.75C205.69,-80.96 201.31,-76.39 198.5,-71 191.73,-57.99 194.62,-52.15 198.5,-38 200.29,-31.48 204.1,-24.95 207.55,-19.94"/>
<polygon fill="#9a32cd" stroke="#9a32cd" points="208.68,-87.72 218.93,-90.38 212.57,-81.91 208.68,-87.72"/>
<text text-anchor="middle" x="224" y="-52" font-family="Helvetica,sans-Serif" font-size="10.00"> serve_list</text>
</g>
<!-- Node3 -->
<g id="node3" class="node">
<title>Node3</title>
<g id="a_node3"><a xlink:href="struct__sifm__client__data.html" target="_top" xlink:title=" ">
<polygon fill="white" stroke="black" points="40,-0.5 40,-19.5 143,-19.5 143,-0.5 40,-0.5"/>
<text text-anchor="middle" x="91.5" y="-7.5" font-family="Helvetica,sans-Serif" font-size="10.00">_sifm_client_data</text>
</a>
</g>
</g>
<!-- Node1&#45;&gt;Node3 -->
<g id="edge5" class="edge">
<title>Node1&#45;&gt;Node3</title>
<path fill="none" stroke="#9a32cd" stroke-dasharray="5,2" d="M176.42,-95.08C141.04,-91.41 101.59,-84.38 90.5,-71 78.54,-56.56 83.89,-32.76 88.12,-19.91"/>
<polygon fill="#9a32cd" stroke="#9a32cd" points="176.46,-98.6 186.75,-96.08 177.13,-91.64 176.46,-98.6"/>
<text text-anchor="middle" x="106" y="-52" font-family="Helvetica,sans-Serif" font-size="10.00"> serve</text>
</g>
<!-- Node5 -->
<g id="node5" class="node">
<title>Node5</title>
<g id="a_node5"><a xlink:href="struct__sifm__queue__data.html" target="_top" xlink:title=" ">
<polygon fill="white" stroke="black" points="329.5,-0.5 329.5,-19.5 435.5,-19.5 435.5,-0.5 329.5,-0.5"/>
<text text-anchor="middle" x="382.5" y="-7.5" font-family="Helvetica,sans-Serif" font-size="10.00">_sifm_queue_data</text>
</a>
</g>
</g>
<!-- Node1&#45;&gt;Node5 -->
<g id="edge9" class="edge">
<title>Node1&#45;&gt;Node5</title>
<path fill="none" stroke="#9a32cd" stroke-dasharray="5,2" d="M300.13,-96.64C321.38,-93 343.96,-85.58 360.5,-71 375.65,-57.65 380.38,-32.95 381.85,-19.79"/>
<polygon fill="#9a32cd" stroke="#9a32cd" points="299.55,-93.19 290.17,-98.11 300.57,-100.12 299.55,-93.19"/>
<text text-anchor="middle" x="389" y="-63" font-family="Helvetica,sans-Serif" font-size="10.00"> end</text>
<text text-anchor="middle" x="389" y="-52" font-family="Helvetica,sans-Serif" font-size="10.00">link</text>
<text text-anchor="middle" x="389" y="-41" font-family="Helvetica,sans-Serif" font-size="10.00">start</text>
</g>
<!-- Node2&#45;&gt;Node1 -->
<g id="edge1" class="edge">
<title>Node2&#45;&gt;Node1</title>
<path fill="none" stroke="#9a32cd" stroke-dasharray="5,2" d="M242.93,-25.62C247.19,-29.08 250.98,-33.2 253.5,-38 262.51,-55.19 251.74,-77.97 244.34,-90.25"/>
<polygon fill="#9a32cd" stroke="#9a32cd" points="244.62,-22.53 234.39,-19.74 240.65,-28.29 244.62,-22.53"/>
<text text-anchor="middle" x="274.5" y="-52" font-family="Helvetica,sans-Serif" font-size="10.00"> sentry</text>
</g>
<!-- Node2&#45;&gt;Node2 -->
<g id="edge2" class="edge">
<title>Node2&#45;&gt;Node2</title>
<path fill="none" stroke="#9a32cd" stroke-dasharray="5,2" d="M278.02,-16.23C282.96,-14.86 286,-12.78 286,-10 286,-5.66 278.58,-3.03 268.13,-2.12"/>
<polygon fill="#9a32cd" stroke="#9a32cd" points="277.42,-12.78 268.13,-17.88 278.57,-19.69 277.42,-12.78"/>
<text text-anchor="middle" x="298.5" y="-7.5" font-family="Helvetica,sans-Serif" font-size="10.00"> next</text>
</g>
<!-- Node3&#45;&gt;Node1 -->
<g id="edge4" class="edge">
<title>Node3&#45;&gt;Node1</title>
<path fill="none" stroke="#9a32cd" stroke-dasharray="5,2" d="M111.19,-26.09C115.95,-29.89 120.97,-34.02 125.5,-38 141.32,-51.9 141.61,-59.89 159.5,-71 173.22,-79.52 189.9,-85.91 204.38,-90.43"/>
<polygon fill="#9a32cd" stroke="#9a32cd" points="113.09,-23.14 103.06,-19.72 108.77,-28.65 113.09,-23.14"/>
<text text-anchor="middle" x="175" y="-52" font-family="Helvetica,sans-Serif" font-size="10.00"> client</text>
</g>
<!-- Node4 -->
<g id="node4" class="node">
<title>Node4</title>
<g id="a_node4"><a xlink:href="struct__sifm__rpc__data.html" target="_top" xlink:title=" ">
<polygon fill="white" stroke="black" points="0,-90.5 0,-109.5 91,-109.5 91,-90.5 0,-90.5"/>
<text text-anchor="middle" x="45.5" y="-97.5" font-family="Helvetica,sans-Serif" font-size="10.00">_sifm_rpc_data</text>
</a>
</g>
</g>
<!-- Node4&#45;&gt;Node3 -->
<g id="edge6" class="edge">
<title>Node4&#45;&gt;Node3</title>
<path fill="none" stroke="#9a32cd" stroke-dasharray="5,2" d="M41.33,-80.47C39.48,-67.69 39.13,-50.77 46.5,-38 51.24,-29.79 59.55,-23.8 67.75,-19.57"/>
<polygon fill="#9a32cd" stroke="#9a32cd" points="37.92,-81.24 43.19,-90.43 44.8,-79.96 37.92,-81.24"/>
<text text-anchor="middle" x="59" y="-52" font-family="Helvetica,sans-Serif" font-size="10.00"> rpcd</text>
</g>
<!-- Node5&#45;&gt;Node1 -->
<g id="edge8" class="edge">
<title>Node5&#45;&gt;Node1</title>
<path fill="none" stroke="#9a32cd" stroke-dasharray="5,2" d="M355.74,-24.42C348.34,-28.48 340.44,-33.15 333.5,-38 315.16,-50.8 314.14,-58.63 295.5,-71 284.02,-78.62 270.16,-85.47 258.98,-90.49"/>
<polygon fill="#9a32cd" stroke="#9a32cd" points="357.54,-27.42 364.73,-19.63 354.26,-21.24 357.54,-27.42"/>
<text text-anchor="middle" x="347" y="-52" font-family="Helvetica,sans-Serif" font-size="10.00"> base</text>
</g>
<!-- Node5&#45;&gt;Node5 -->
<g id="edge10" class="edge">
<title>Node5&#45;&gt;Node5</title>
<path fill="none" stroke="#9a32cd" stroke-dasharray="5,2" d="M445.93,-16.13C450.62,-14.76 453.5,-12.71 453.5,-10 453.5,-5.66 446.13,-3.03 435.76,-2.12"/>
<polygon fill="#9a32cd" stroke="#9a32cd" points="445.02,-12.74 435.76,-17.88 446.21,-19.63 445.02,-12.74"/>
<text text-anchor="middle" x="466" y="-7.5" font-family="Helvetica,sans-Serif" font-size="10.00"> next</text>
</g>
</g>
</svg>
