<?xml version="1.0" encoding="UTF-8" standalone="no"?>
<!DOCTYPE svg PUBLIC "-//W3C//DTD SVG 1.1//EN"
 "http://www.w3.org/Graphics/SVG/1.1/DTD/svg11.dtd">
<!-- Generated by graphviz version 2.43.0 (0)
 -->
<!-- Title: thmon_rtlist_item Pages: 1 -->
<svg width="261pt" height="186pt"
 viewBox="0.00 0.00 260.50 186.00" xmlns="http://www.w3.org/2000/svg" xmlns:xlink="http://www.w3.org/1999/xlink">
<g id="graph0" class="graph" transform="scale(1 1) rotate(0) translate(4 182)">
<title>thmon_rtlist_item</title>
<polygon fill="white" stroke="transparent" points="-4,4 -4,-182 256.5,-182 256.5,4 -4,4"/>
<!-- Node1 -->
<g id="node1" class="node">
<title>Node1</title>
<g id="a_node1"><a xlink:title=" ">
<polygon fill="#bfbfbf" stroke="black" points="50.5,-0.5 50.5,-19.5 154.5,-19.5 154.5,-0.5 50.5,-0.5"/>
<text text-anchor="middle" x="102.5" y="-7.5" font-family="Helvetica,sans-Serif" font-size="10.00">thmon_rtlist_item</text>
</a>
</g>
</g>
<!-- Node2 -->
<g id="node2" class="node">
<title>Node2</title>
<g id="a_node2"><a xlink:href="thbase_8h.html#struct__iop__sys__clock" target="_top" xlink:title=" ">
<polygon fill="white" stroke="black" points="11,-78.5 11,-97.5 100,-97.5 100,-78.5 11,-78.5"/>
<text text-anchor="middle" x="55.5" y="-85.5" font-family="Helvetica,sans-Serif" font-size="10.00">_iop_sys_clock</text>
</a>
</g>
</g>
<!-- Node2&#45;&gt;Node1 -->
<g id="edge1" class="edge">
<title>Node2&#45;&gt;Node1</title>
<path fill="none" stroke="#9a32cd" stroke-dasharray="5,2" d="M51.72,-68.18C50.78,-58.54 51.24,-46.97 56.5,-38 61.28,-29.85 69.55,-23.91 77.77,-19.71"/>
<polygon fill="#9a32cd" stroke="#9a32cd" points="48.31,-69 53.29,-78.35 55.23,-67.94 48.31,-69"/>
<text text-anchor="middle" x="92.5" y="-52" font-family="Helvetica,sans-Serif" font-size="10.00"> m_old_clocks</text>
<text text-anchor="middle" x="92.5" y="-41" font-family="Helvetica,sans-Serif" font-size="10.00">m_new_clocks</text>
</g>
<!-- Node3 -->
<g id="node3" class="node">
<title>Node3</title>
<g id="a_node3"><a xlink:href="structthread.html" target="_top" xlink:title=" ">
<polygon fill="white" stroke="black" points="126.5,-78.5 126.5,-97.5 174.5,-97.5 174.5,-78.5 126.5,-78.5"/>
<text text-anchor="middle" x="150.5" y="-85.5" font-family="Helvetica,sans-Serif" font-size="10.00">thread</text>
</a>
</g>
</g>
<!-- Node3&#45;&gt;Node1 -->
<g id="edge2" class="edge">
<title>Node3&#45;&gt;Node1</title>
<path fill="none" stroke="#9a32cd" stroke-dasharray="5,2" d="M143.97,-68.54C140.17,-59.01 134.87,-47.43 128.5,-38 123.91,-31.21 117.54,-24.56 112.25,-19.56"/>
<polygon fill="#9a32cd" stroke="#9a32cd" points="140.81,-70.08 147.6,-78.21 147.36,-67.62 140.81,-70.08"/>
<text text-anchor="middle" x="174" y="-46.5" font-family="Helvetica,sans-Serif" font-size="10.00"> m_thread_ptr</text>
</g>
<!-- Node4 -->
<g id="node4" class="node">
<title>Node4</title>
<g id="a_node4"><a xlink:href="structlist__head.html" target="_top" xlink:title=" ">
<polygon fill="white" stroke="black" points="0,-157.5 0,-176.5 61,-176.5 61,-157.5 0,-157.5"/>
<text text-anchor="middle" x="30.5" y="-164.5" font-family="Helvetica,sans-Serif" font-size="10.00">list_head</text>
</a>
</g>
</g>
<!-- Node4&#45;&gt;Node3 -->
<g id="edge3" class="edge">
<title>Node4&#45;&gt;Node3</title>
<path fill="none" stroke="#9a32cd" stroke-dasharray="5,2" d="M47.11,-150.39C58.9,-139.83 75.42,-126.03 91.5,-116 103.06,-108.78 116.88,-102.36 128.23,-97.59"/>
<polygon fill="#9a32cd" stroke="#9a32cd" points="44.46,-148.08 39.44,-157.41 49.18,-153.24 44.46,-148.08"/>
<text text-anchor="middle" x="119" y="-130" font-family="Helvetica,sans-Serif" font-size="10.00"> thread_list</text>
<text text-anchor="middle" x="119" y="-119" font-family="Helvetica,sans-Serif" font-size="10.00">queue</text>
</g>
<!-- Node4&#45;&gt;Node4 -->
<g id="edge4" class="edge">
<title>Node4&#45;&gt;Node4</title>
<path fill="none" stroke="#9a32cd" stroke-dasharray="5,2" d="M71.23,-173.39C75.94,-172.21 79,-170.08 79,-167 79,-162.08 71.17,-159.58 61.28,-159.5"/>
<polygon fill="#9a32cd" stroke="#9a32cd" points="70.84,-169.91 61.28,-174.5 71.61,-176.87 70.84,-169.91"/>
<text text-anchor="middle" x="91.5" y="-170" font-family="Helvetica,sans-Serif" font-size="10.00"> prev</text>
<text text-anchor="middle" x="91.5" y="-159" font-family="Helvetica,sans-Serif" font-size="10.00">next</text>
</g>
<!-- Node5 -->
<g id="node5" class="node">
<title>Node5</title>
<g id="a_node5"><a xlink:href="structheaptag.html" target="_top" xlink:title=" ">
<polygon fill="white" stroke="black" points="122.5,-157.5 122.5,-176.5 178.5,-176.5 178.5,-157.5 122.5,-157.5"/>
<text text-anchor="middle" x="150.5" y="-164.5" font-family="Helvetica,sans-Serif" font-size="10.00">heaptag</text>
</a>
</g>
</g>
<!-- Node5&#45;&gt;Node3 -->
<g id="edge5" class="edge">
<title>Node5&#45;&gt;Node3</title>
<path fill="none" stroke="#9a32cd" stroke-dasharray="5,2" d="M150.5,-147.31C150.5,-131.59 150.5,-109.81 150.5,-97.81"/>
<polygon fill="#9a32cd" stroke="#9a32cd" points="147,-147.47 150.5,-157.47 154,-147.47 147,-147.47"/>
<text text-anchor="middle" x="160" y="-124.5" font-family="Helvetica,sans-Serif" font-size="10.00"> tag</text>
</g>
<!-- Node6 -->
<g id="node6" class="node">
<title>Node6</title>
<g id="a_node6"><a xlink:href="structregctx.html" target="_top" xlink:title=" ">
<polygon fill="white" stroke="black" points="197,-157.5 197,-176.5 244,-176.5 244,-157.5 197,-157.5"/>
<text text-anchor="middle" x="220.5" y="-164.5" font-family="Helvetica,sans-Serif" font-size="10.00">regctx</text>
</a>
</g>
</g>
<!-- Node6&#45;&gt;Node3 -->
<g id="edge6" class="edge">
<title>Node6&#45;&gt;Node3</title>
<path fill="none" stroke="#9a32cd" stroke-dasharray="5,2" d="M205.95,-150C191.56,-134.16 170.05,-110.51 158.51,-97.81"/>
<polygon fill="#9a32cd" stroke="#9a32cd" points="203.42,-152.42 212.74,-157.47 208.6,-147.71 203.42,-152.42"/>
<text text-anchor="middle" x="223" y="-124.5" font-family="Helvetica,sans-Serif" font-size="10.00"> saved_regs</text>
</g>
</g>
</svg>
