<?xml version="1.0" encoding="UTF-8" standalone="no"?>
<!DOCTYPE svg PUBLIC "-//W3C//DTD SVG 1.1//EN"
 "http://www.w3.org/Graphics/SVG/1.1/DTD/svg11.dtd">
<!-- Generated by graphviz version 12.2.0 (20241103.1931)
 -->
<!-- Title: ac_atapi Pages: 1 -->
<svg width="225pt" height="164pt"
 viewBox="0.00 0.00 225.38 163.50" xmlns="http://www.w3.org/2000/svg" xmlns:xlink="http://www.w3.org/1999/xlink">

<svg id="main" version="1.1" xmlns="http://www.w3.org/2000/svg" xmlns:xlink="http://www.w3.org/1999/xlink" xml:space="preserve">

<style type="text/css"><![CDATA[
.node, .edge {opacity: 0.7;}
.node.selected, .edge.selected {opacity: 1;}
.edge:hover path { stroke: red; }
.edge:hover polygon { stroke: red; fill: red; }
]]></style>
<script type="application/ecmascript" xlink:href="svg.min.js"/>
<svg id="graph" class="graph">
<g id="graph0" class="graph" transform="scale(1 1) rotate(0) translate(4 159.5)">
<title>ac_atapi</title>
<!-- Node1 -->
<g id="Node000001" class="node">
<title>Node1</title>
<g id="a_Node000001"><a xlink:title=" ">
<polygon fill="#999999" stroke="#666666" points="160.38,-19.25 107.62,-19.25 107.62,0 160.38,0 160.38,-19.25"/>
<text text-anchor="middle" x="134" y="-5.75" font-family="Helvetica,sans-Serif" font-size="10.00">ac_atapi</text>
</a>
</g>
</g>
<!-- Node1&#45;&gt;Node1 -->
<g id="edge5_Node000001_Node000001" class="edge">
<title>Node1&#45;&gt;Node1</title>
<g id="a_edge5_Node000001_Node000001"><a xlink:title=" ">
<path fill="none" stroke="#9a32cd" stroke-dasharray="5,2" d="M172.31,-14.67C176.02,-13.65 178.38,-11.97 178.38,-9.62 178.38,-5.34 170.51,-3.26 160.86,-3.4"/>
<polygon fill="#9a32cd" stroke="#9a32cd" points="171.96,-11.19 162.37,-15.7 172.67,-18.16 171.96,-11.19"/>
</a>
</g>
<text text-anchor="middle" x="197.88" y="-5.75" font-family="Helvetica,sans-Serif" font-size="10.00" fill="grey"> ap_done</text>
</g>
<!-- Node2 -->
<g id="Node000002" class="node">
<title>Node2</title>
<g id="a_Node000002"><a xlink:href="structac__ata__h.html" target="_top" xlink:title=" ">
<polygon fill="white" stroke="#bfbfbf" points="120.88,-85.75 65.12,-85.75 65.12,-66.5 120.88,-66.5 120.88,-85.75"/>
<text text-anchor="middle" x="93" y="-72.25" font-family="Helvetica,sans-Serif" font-size="10.00">ac_ata_h</text>
</a>
</g>
</g>
<!-- Node2&#45;&gt;Node1 -->
<g id="edge1_Node000001_Node000002" class="edge">
<title>Node2&#45;&gt;Node1</title>
<g id="a_edge1_Node000001_Node000002"><a xlink:title=" ">
<path fill="none" stroke="#9a32cd" stroke-dasharray="5,2" d="M104.83,-56.51C112.56,-44.35 122.31,-29.02 128.35,-19.52"/>
<polygon fill="#9a32cd" stroke="#9a32cd" points="101.92,-54.56 99.51,-64.88 107.83,-58.32 101.92,-54.56"/>
</a>
</g>
<text text-anchor="middle" x="127.58" y="-39" font-family="Helvetica,sans-Serif" font-size="10.00" fill="grey"> ap_h</text>
</g>
<!-- Node3 -->
<g id="Node000003" class="node">
<title>Node3</title>
<g id="a_Node000003"><a xlink:href="structac__queue.html" target="_top" xlink:title=" ">
<polygon fill="white" stroke="#bfbfbf" points="58,-153.88 0,-153.88 0,-134.62 58,-134.62 58,-153.88"/>
<text text-anchor="middle" x="29" y="-140.38" font-family="Helvetica,sans-Serif" font-size="10.00">ac_queue</text>
</a>
</g>
</g>
<!-- Node3&#45;&gt;Node2 -->
<g id="edge2_Node000002_Node000003" class="edge">
<title>Node3&#45;&gt;Node2</title>
<g id="a_edge2_Node000002_Node000003"><a xlink:title=" ">
<path fill="none" stroke="#9a32cd" stroke-dasharray="5,2" d="M45.47,-126.23C57.95,-113.34 74.59,-96.15 84.51,-85.9"/>
<polygon fill="#9a32cd" stroke="#9a32cd" points="43.12,-123.62 38.68,-133.24 48.15,-128.49 43.12,-123.62"/>
</a>
</g>
<text text-anchor="middle" x="84.73" y="-105.5" font-family="Helvetica,sans-Serif" font-size="10.00" fill="grey"> a_chain</text>
</g>
<!-- Node3&#45;&gt;Node3 -->
<g id="edge3_Node000003_Node000003" class="edge">
<title>Node3&#45;&gt;Node3</title>
<g id="a_edge3_Node000003_Node000003"><a xlink:title=" ">
<path fill="none" stroke="#9a32cd" stroke-dasharray="5,2" d="M69.61,-149.54C73.52,-148.46 76,-146.7 76,-144.25 76,-139.89 68.17,-137.71 58.38,-137.71"/>
<polygon fill="#9a32cd" stroke="#9a32cd" points="69.43,-146.04 59.88,-150.62 70.21,-152.99 69.43,-146.04"/>
</a>
</g>
<text text-anchor="middle" x="91.38" y="-146" font-family="Helvetica,sans-Serif" font-size="10.00" fill="grey"> q_next</text>
<text text-anchor="middle" x="91.38" y="-134.75" font-family="Helvetica,sans-Serif" font-size="10.00" fill="grey">q_prev</text>
</g>
<!-- Node4 -->
<g id="Node000004" class="node">
<title>Node4</title>
<g id="a_Node000004"><a xlink:href="structac__ata__ops.html" target="_top" xlink:title=" ">
<polygon fill="white" stroke="#bfbfbf" points="191.12,-153.88 124.88,-153.88 124.88,-134.62 191.12,-134.62 191.12,-153.88"/>
<text text-anchor="middle" x="158" y="-140.38" font-family="Helvetica,sans-Serif" font-size="10.00">ac_ata_ops</text>
</a>
</g>
</g>
<!-- Node4&#45;&gt;Node2 -->
<g id="edge4_Node000002_Node000004" class="edge">
<title>Node4&#45;&gt;Node2</title>
<g id="a_edge4_Node000002_Node000004"><a xlink:title=" ">
<path fill="none" stroke="#9a32cd" stroke-dasharray="5,2" d="M141.27,-126.23C128.6,-113.34 111.7,-96.15 101.63,-85.9"/>
<polygon fill="#9a32cd" stroke="#9a32cd" points="138.67,-128.57 148.17,-133.25 143.66,-123.67 138.67,-128.57"/>
</a>
</g>
<text text-anchor="middle" x="143.64" y="-105.5" font-family="Helvetica,sans-Serif" font-size="10.00" fill="grey"> a_ops</text>
</g>
<!-- Node5 -->
<g id="Node000005" class="node">
<title>Node5</title>
<g id="a_Node000005"><a xlink:href="unionac__atapi__pkt.html" target="_top" xlink:title=" ">
<polygon fill="white" stroke="#bfbfbf" points="210.75,-85.75 139.25,-85.75 139.25,-66.5 210.75,-66.5 210.75,-85.75"/>
<text text-anchor="middle" x="175" y="-72.25" font-family="Helvetica,sans-Serif" font-size="10.00">ac_atapi_pkt</text>
</a>
</g>
</g>
<!-- Node5&#45;&gt;Node1 -->
<g id="edge6_Node000001_Node000005" class="edge">
<title>Node5&#45;&gt;Node1</title>
<g id="a_edge6_Node000001_Node000005"><a xlink:title=" ">
<path fill="none" stroke="#9a32cd" stroke-dasharray="5,2" d="M163.17,-56.51C155.44,-44.35 145.69,-29.02 139.65,-19.52"/>
<polygon fill="#9a32cd" stroke="#9a32cd" points="160.17,-58.32 168.49,-64.88 166.08,-54.56 160.17,-58.32"/>
</a>
</g>
<text text-anchor="middle" x="180.58" y="-39" font-family="Helvetica,sans-Serif" font-size="10.00" fill="grey"> ap_packet</text>
</g>
</g>
</svg>
</svg>

<style type='text/css'>
<![CDATA[
[data-mouse-over-selected='false'] { opacity: 0.7; }
[data-mouse-over-selected='true']  { opacity: 1.0; }
]]>
</style>
<script type="application/ecmascript"><![CDATA[
document.addEventListener('DOMContentLoaded', (event) => {
  highlightEdges();
  highlightAdjacentNodes();
});
]]></script>
</svg>
