<?xml version="1.0" encoding="UTF-8" standalone="no"?>
<!DOCTYPE svg PUBLIC "-//W3C//DTD SVG 1.1//EN"
 "http://www.w3.org/Graphics/SVG/1.1/DTD/svg11.dtd">
<!-- Generated by graphviz version 2.44.0 ()
 -->
<!-- Title: fxio_dread_packet Pages: 1 -->
<svg width="103pt" height="162pt"
 viewBox="0.00 0.00 103.00 162.00" xmlns="http://www.w3.org/2000/svg" xmlns:xlink="http://www.w3.org/1999/xlink">
<g id="graph0" class="graph" transform="scale(1 1) rotate(0) translate(4 158)">
<title>fxio_dread_packet</title>
<polygon fill="white" stroke="transparent" points="-4,4 -4,-158 99,-158 99,4 -4,4"/>
<!-- Node1 -->
<g id="node1" class="node">
<title>Node1</title>
<g id="a_node1"><a xlink:title=" ">
<polygon fill="#bfbfbf" stroke="black" points="0,-0.5 0,-19.5 95,-19.5 95,-0.5 0,-0.5"/>
<text text-anchor="middle" x="47.5" y="-7.5" font-family="Helvetica,sans-Serif" font-size="10.00">fxio_dread_packet</text>
</a>
</g>
</g>
<!-- Node2 -->
<g id="node2" class="node">
<title>Node2</title>
<g id="a_node2"><a xlink:href="iox__stat_8h.html#structiox__dirent__t" target="_top" xlink:title=" ">
<polygon fill="white" stroke="black" points="14.5,-67.5 14.5,-86.5 80.5,-86.5 80.5,-67.5 14.5,-67.5"/>
<text text-anchor="middle" x="47.5" y="-74.5" font-family="Helvetica,sans-Serif" font-size="10.00">iox_dirent_t</text>
</a>
</g>
</g>
<!-- Node2&#45;&gt;Node1 -->
<g id="edge1" class="edge">
<title>Node2&#45;&gt;Node1</title>
<path fill="none" stroke="#9a32cd" stroke-dasharray="5,2" d="M47.5,-57.04C47.5,-44.67 47.5,-29.12 47.5,-19.63"/>
<polygon fill="#9a32cd" stroke="#9a32cd" points="44,-57.23 47.5,-67.23 51,-57.23 44,-57.23"/>
<text text-anchor="middle" x="61" y="-41" font-family="Helvetica,sans-Serif" font-size="10.00"> dirent</text>
</g>
<!-- Node3 -->
<g id="node3" class="node">
<title>Node3</title>
<g id="a_node3"><a xlink:href="iox__stat_8h.html#structiox__stat__t" target="_top" xlink:title=" ">
<polygon fill="white" stroke="black" points="18,-134.5 18,-153.5 77,-153.5 77,-134.5 18,-134.5"/>
<text text-anchor="middle" x="47.5" y="-141.5" font-family="Helvetica,sans-Serif" font-size="10.00">iox_stat_t</text>
</a>
</g>
</g>
<!-- Node3&#45;&gt;Node2 -->
<g id="edge2" class="edge">
<title>Node3&#45;&gt;Node2</title>
<path fill="none" stroke="#9a32cd" stroke-dasharray="5,2" d="M47.5,-124.04C47.5,-111.67 47.5,-96.12 47.5,-86.63"/>
<polygon fill="#9a32cd" stroke="#9a32cd" points="44,-124.23 47.5,-134.23 51,-124.23 44,-124.23"/>
<text text-anchor="middle" x="57" y="-108" font-family="Helvetica,sans-Serif" font-size="10.00"> stat</text>
</g>
</g>
</svg>
