<?xml version="1.0" encoding="UTF-8" standalone="no"?>
<!DOCTYPE svg PUBLIC "-//W3C//DTD SVG 1.1//EN"
 "http://www.w3.org/Graphics/SVG/1.1/DTD/svg11.dtd">
<!-- Generated by graphviz version 2.43.0 (0)
 -->
<!-- Title: sceInetPktQ Pages: 1 -->
<svg width="125pt" height="108pt"
 viewBox="0.00 0.00 124.50 108.00" xmlns="http://www.w3.org/2000/svg" xmlns:xlink="http://www.w3.org/1999/xlink">
<g id="graph0" class="graph" transform="scale(1 1) rotate(0) translate(4 104)">
<title>sceInetPktQ</title>
<polygon fill="white" stroke="transparent" points="-4,4 -4,-104 120.5,-104 120.5,4 -4,4"/>
<!-- Node1 -->
<g id="node1" class="node">
<title>Node1</title>
<g id="a_node1"><a xlink:title=" ">
<polygon fill="#bfbfbf" stroke="black" points="0,-0.5 0,-19.5 75,-19.5 75,-0.5 0,-0.5"/>
<text text-anchor="middle" x="37.5" y="-7.5" font-family="Helvetica,sans-Serif" font-size="10.00">sceInetPktQ</text>
</a>
</g>
</g>
<!-- Node2 -->
<g id="node2" class="node">
<title>Node2</title>
<g id="a_node2"><a xlink:href="structsce_inet_pkt.html" target="_top" xlink:title=" ">
<polygon fill="white" stroke="black" points="3.5,-79.5 3.5,-98.5 71.5,-98.5 71.5,-79.5 3.5,-79.5"/>
<text text-anchor="middle" x="37.5" y="-86.5" font-family="Helvetica,sans-Serif" font-size="10.00">sceInetPkt</text>
</a>
</g>
</g>
<!-- Node2&#45;&gt;Node1 -->
<g id="edge1" class="edge">
<title>Node2&#45;&gt;Node1</title>
<path fill="none" stroke="#9a32cd" stroke-dasharray="5,2" d="M37.5,-69.31C37.5,-53.59 37.5,-31.81 37.5,-19.81"/>
<polygon fill="#9a32cd" stroke="#9a32cd" points="34,-69.47 37.5,-79.47 41,-69.47 34,-69.47"/>
<text text-anchor="middle" x="51.5" y="-52" font-family="Helvetica,sans-Serif" font-size="10.00"> head</text>
<text text-anchor="middle" x="51.5" y="-41" font-family="Helvetica,sans-Serif" font-size="10.00">tail</text>
</g>
<!-- Node2&#45;&gt;Node2 -->
<g id="edge2" class="edge">
<title>Node2&#45;&gt;Node2</title>
<path fill="none" stroke="#9a32cd" stroke-dasharray="5,2" d="M81.65,-95.27C86.42,-94.07 89.5,-91.98 89.5,-89 89.5,-84.23 81.63,-81.74 71.51,-81.52"/>
<polygon fill="#9a32cd" stroke="#9a32cd" points="81.02,-91.82 71.51,-96.48 81.85,-98.77 81.02,-91.82"/>
<text text-anchor="middle" x="103" y="-92" font-family="Helvetica,sans-Serif" font-size="10.00"> back</text>
<text text-anchor="middle" x="103" y="-81" font-family="Helvetica,sans-Serif" font-size="10.00">forw</text>
</g>
</g>
</svg>
