<?xml version="1.0" encoding="UTF-8" standalone="no"?>
<!DOCTYPE svg PUBLIC "-//W3C//DTD SVG 1.1//EN"
 "http://www.w3.org/Graphics/SVG/1.1/DTD/svg11.dtd">
<!-- Generated by graphviz version 2.44.0 ()
 -->
<!-- Title: iop_library_table_t Pages: 1 -->
<svg width="137pt" height="173pt"
 viewBox="0.00 0.00 137.00 173.00" xmlns="http://www.w3.org/2000/svg" xmlns:xlink="http://www.w3.org/1999/xlink">
<g id="graph0" class="graph" transform="scale(1 1) rotate(0) translate(4 169)">
<title>iop_library_table_t</title>
<polygon fill="white" stroke="transparent" points="-4,4 -4,-169 133,-169 133,4 -4,4"/>
<!-- Node1 -->
<g id="node1" class="node">
<title>Node1</title>
<g id="a_node1"><a xlink:title=" ">
<polygon fill="#bfbfbf" stroke="black" points="0,-0.5 0,-19.5 95,-19.5 95,-0.5 0,-0.5"/>
<text text-anchor="middle" x="47.5" y="-7.5" font-family="Helvetica,sans-Serif" font-size="10.00">iop_library_table_t</text>
</a>
</g>
</g>
<!-- Node2 -->
<g id="node2" class="node">
<title>Node2</title>
<g id="a_node2"><a xlink:href="loadcore_8h.html#struct__iop__library" target="_top" xlink:title=" ">
<polygon fill="white" stroke="black" points="15,-78.5 15,-97.5 80,-97.5 80,-78.5 15,-78.5"/>
<text text-anchor="middle" x="47.5" y="-85.5" font-family="Helvetica,sans-Serif" font-size="10.00">_iop_library</text>
</a>
</g>
</g>
<!-- Node2&#45;&gt;Node1 -->
<g id="edge1" class="edge">
<title>Node2&#45;&gt;Node1</title>
<path fill="none" stroke="#9a32cd" stroke-dasharray="5,2" d="M47.5,-68.22C47.5,-52.7 47.5,-31.36 47.5,-19.62"/>
<polygon fill="#9a32cd" stroke="#9a32cd" points="44,-68.28 47.5,-78.28 51,-68.28 44,-68.28"/>
<text text-anchor="middle" x="59.5" y="-52" font-family="Helvetica,sans-Serif" font-size="10.00"> head</text>
<text text-anchor="middle" x="59.5" y="-41" font-family="Helvetica,sans-Serif" font-size="10.00">tail</text>
</g>
<!-- Node2&#45;&gt;Node2 -->
<g id="edge4" class="edge">
<title>Node2&#45;&gt;Node2</title>
<path fill="none" stroke="#9a32cd" stroke-dasharray="5,2" d="M90.14,-93.07C94.91,-92.11 98,-90.42 98,-88 98,-84.12 90.1,-82.13 80.04,-82.01"/>
<polygon fill="#9a32cd" stroke="#9a32cd" points="89.68,-89.59 80.04,-93.99 90.32,-96.56 89.68,-89.59"/>
<text text-anchor="middle" x="109" y="-85.5" font-family="Helvetica,sans-Serif" font-size="10.00"> prev</text>
</g>
<!-- Node3 -->
<g id="node3" class="node">
<title>Node3</title>
<g id="a_node3"><a xlink:href="irx_8h.html#structirx__import__table" target="_top" xlink:title=" ">
<polygon fill="white" stroke="black" points="5,-145.5 5,-164.5 90,-164.5 90,-145.5 5,-145.5"/>
<text text-anchor="middle" x="47.5" y="-152.5" font-family="Helvetica,sans-Serif" font-size="10.00">irx_import_table</text>
</a>
</g>
</g>
<!-- Node3&#45;&gt;Node2 -->
<g id="edge2" class="edge">
<title>Node3&#45;&gt;Node2</title>
<path fill="none" stroke="#9a32cd" stroke-dasharray="5,2" d="M47.5,-135.04C47.5,-122.67 47.5,-107.12 47.5,-97.63"/>
<polygon fill="#9a32cd" stroke="#9a32cd" points="44,-135.23 47.5,-145.23 51,-135.23 44,-135.23"/>
<text text-anchor="middle" x="60.5" y="-119" font-family="Helvetica,sans-Serif" font-size="10.00"> caller</text>
</g>
<!-- Node3&#45;&gt;Node3 -->
<g id="edge3" class="edge">
<title>Node3&#45;&gt;Node3</title>
<path fill="none" stroke="#9a32cd" stroke-dasharray="5,2" d="M100.32,-159.74C105.04,-158.75 108,-157.17 108,-155 108,-151.53 100.42,-149.57 90.18,-149.11"/>
<polygon fill="#9a32cd" stroke="#9a32cd" points="99.72,-156.29 90.18,-160.89 100.51,-163.24 99.72,-156.29"/>
<text text-anchor="middle" x="118.5" y="-152.5" font-family="Helvetica,sans-Serif" font-size="10.00"> next</text>
</g>
</g>
</svg>
