<?xml version="1.0" encoding="UTF-8" standalone="no"?>
<!DOCTYPE svg PUBLIC "-//W3C//DTD SVG 1.1//EN"
 "http://www.w3.org/Graphics/SVG/1.1/DTD/svg11.dtd">
<!-- Generated by graphviz version 2.43.0 (0)
 -->
<!-- Title: ac_ata Pages: 1 -->
<svg width="231pt" height="164pt"
 viewBox="0.00 0.00 231.00 164.00" xmlns="http://www.w3.org/2000/svg" xmlns:xlink="http://www.w3.org/1999/xlink">
<g id="graph0" class="graph" transform="scale(1 1) rotate(0) translate(4 160)">
<title>ac_ata</title>
<polygon fill="white" stroke="transparent" points="-4,4 -4,-160 227,-160 227,4 -4,4"/>
<!-- Node1 -->
<g id="node1" class="node">
<title>Node1</title>
<g id="a_node1"><a xlink:title=" ">
<polygon fill="#bfbfbf" stroke="black" points="112,-0.5 112,-19.5 161,-19.5 161,-0.5 112,-0.5"/>
<text text-anchor="middle" x="136.5" y="-7.5" font-family="Helvetica,sans-Serif" font-size="10.00">ac_ata</text>
</a>
</g>
</g>
<!-- Node1&#45;&gt;Node1 -->
<g id="edge1" class="edge">
<title>Node1&#45;&gt;Node1</title>
<path fill="none" stroke="#9a32cd" stroke-dasharray="5,2" d="M171.53,-15.25C176.03,-14.34 179,-12.59 179,-10 179,-5.75 171,-3.76 161.38,-4.02"/>
<polygon fill="#9a32cd" stroke="#9a32cd" points="171.11,-11.78 161.38,-15.98 171.61,-18.76 171.11,-11.78"/>
<text text-anchor="middle" x="201" y="-7.5" font-family="Helvetica,sans-Serif" font-size="10.00"> ac_done</text>
</g>
<!-- Node2 -->
<g id="node2" class="node">
<title>Node2</title>
<g id="a_node2"><a xlink:href="structac__ata__h.html" target="_top" xlink:title=" ">
<polygon fill="white" stroke="black" points="106.5,-67.5 106.5,-86.5 166.5,-86.5 166.5,-67.5 106.5,-67.5"/>
<text text-anchor="middle" x="136.5" y="-74.5" font-family="Helvetica,sans-Serif" font-size="10.00">ac_ata_h</text>
</a>
</g>
</g>
<!-- Node2&#45;&gt;Node1 -->
<g id="edge2" class="edge">
<title>Node2&#45;&gt;Node1</title>
<path fill="none" stroke="#9a32cd" stroke-dasharray="5,2" d="M136.5,-57.04C136.5,-44.67 136.5,-29.12 136.5,-19.63"/>
<polygon fill="#9a32cd" stroke="#9a32cd" points="133,-57.23 136.5,-67.23 140,-57.23 133,-57.23"/>
<text text-anchor="middle" x="149.5" y="-41" font-family="Helvetica,sans-Serif" font-size="10.00"> ac_h</text>
</g>
<!-- Node3 -->
<g id="node3" class="node">
<title>Node3</title>
<g id="a_node3"><a xlink:href="structac__queue.html" target="_top" xlink:title=" ">
<polygon fill="white" stroke="black" points="0,-135.5 0,-154.5 63,-154.5 63,-135.5 0,-135.5"/>
<text text-anchor="middle" x="31.5" y="-142.5" font-family="Helvetica,sans-Serif" font-size="10.00">ac_queue</text>
</a>
</g>
</g>
<!-- Node3&#45;&gt;Node2 -->
<g id="edge3" class="edge">
<title>Node3&#45;&gt;Node2</title>
<path fill="none" stroke="#9a32cd" stroke-dasharray="5,2" d="M53.79,-129.99C74.68,-116.86 105.24,-97.65 122.77,-86.63"/>
<polygon fill="#9a32cd" stroke="#9a32cd" points="51.83,-127.09 45.23,-135.37 55.56,-133.01 51.83,-127.09"/>
<text text-anchor="middle" x="114" y="-108" font-family="Helvetica,sans-Serif" font-size="10.00"> a_chain</text>
</g>
<!-- Node3&#45;&gt;Node3 -->
<g id="edge4" class="edge">
<title>Node3&#45;&gt;Node3</title>
<path fill="none" stroke="#9a32cd" stroke-dasharray="5,2" d="M73.65,-150.31C78.12,-149.28 81,-147.51 81,-145 81,-140.88 73.26,-138.76 63.4,-138.63"/>
<polygon fill="#9a32cd" stroke="#9a32cd" points="72.98,-146.86 63.4,-151.37 73.71,-153.82 72.98,-146.86"/>
<text text-anchor="middle" x="99.5" y="-148" font-family="Helvetica,sans-Serif" font-size="10.00"> q_prev</text>
<text text-anchor="middle" x="99.5" y="-137" font-family="Helvetica,sans-Serif" font-size="10.00">q_next</text>
</g>
<!-- Node4 -->
<g id="node4" class="node">
<title>Node4</title>
<g id="a_node4"><a xlink:href="structac__ata__ops.html" target="_top" xlink:title=" ">
<polygon fill="white" stroke="black" points="136,-135.5 136,-154.5 207,-154.5 207,-135.5 136,-135.5"/>
<text text-anchor="middle" x="171.5" y="-142.5" font-family="Helvetica,sans-Serif" font-size="10.00">ac_ata_ops</text>
</a>
</g>
</g>
<!-- Node4&#45;&gt;Node2 -->
<g id="edge5" class="edge">
<title>Node4&#45;&gt;Node2</title>
<path fill="none" stroke="#9a32cd" stroke-dasharray="5,2" d="M162.05,-126.19C155.3,-113.45 146.5,-96.86 141.19,-86.84"/>
<polygon fill="#9a32cd" stroke="#9a32cd" points="159.15,-128.18 166.92,-135.37 165.33,-124.9 159.15,-128.18"/>
<text text-anchor="middle" x="171.5" y="-108" font-family="Helvetica,sans-Serif" font-size="10.00"> a_ops</text>
</g>
</g>
</svg>
