<?xml version="1.0" encoding="UTF-8" standalone="no"?>
<!DOCTYPE svg PUBLIC "-//W3C//DTD SVG 1.1//EN"
 "http://www.w3.org/Graphics/SVG/1.1/DTD/svg11.dtd">
<!-- Generated by graphviz version 9.0.0 (20230911.1827)
 -->
<!-- Title: _libcglue_fdman_fd_ops_ Pages: 1 -->
<svg width="160pt" height="228pt"
 viewBox="0.00 0.00 159.62 227.75" xmlns="http://www.w3.org/2000/svg" xmlns:xlink="http://www.w3.org/1999/xlink">

<svg id="main" version="1.1" xmlns="http://www.w3.org/2000/svg" xmlns:xlink="http://www.w3.org/1999/xlink" xml:space="preserve" onload="init(evt)">
<style type="text/css"><![CDATA[
.node, .edge {opacity: 0.7;}
.node.selected, .edge.selected {opacity: 1;}
.edge:hover path { stroke: red; }
.edge:hover polygon { stroke: red; fill: red; }
]]></style>
<script type="application/ecmascript" xlink:href="svg.min.js"/>
<svg id="graph" class="graph">
<g id="graph0" class="graph" transform="scale(1 1) rotate(0) translate(4 223.75)">
<title>_libcglue_fdman_fd_ops_</title>
<!-- Node1 -->
<g id="Node000001" class="node">
<title>Node1</title>
<g id="a_Node000001"><a xlink:title=" ">
<polygon fill="#999999" stroke="#666666" points="126.25,-97 0,-97 0,-77.75 126.25,-77.75 126.25,-97"/>
<text text-anchor="middle" x="63.12" y="-83.5" font-family="Helvetica,sans-Serif" font-size="10.00">_libcglue_fdman_fd_ops_</text>
</a>
</g>
</g>
<!-- Node3 -->
<g id="Node000003" class="node">
<title>Node3</title>
<g id="a_Node000003"><a xlink:href="struct__libcglue__fdman__fd__info__.html" target="_top" xlink:title=" ">
<polygon fill="white" stroke="#bfbfbf" points="113.12,-30.5 13.12,-30.5 13.12,0 113.12,0 113.12,-30.5"/>
<text text-anchor="start" x="21.12" y="-17" font-family="Helvetica,sans-Serif" font-size="10.00">_libcglue_fdman_fd</text>
<text text-anchor="middle" x="63.12" y="-5.75" font-family="Helvetica,sans-Serif" font-size="10.00">_info_</text>
</a>
</g>
</g>
<!-- Node1&#45;&gt;Node3 -->
<g id="edge3_Node000003_Node000001" class="edge">
<title>Node1&#45;&gt;Node3</title>
<g id="a_edge3_Node000003_Node000001"><a xlink:title=" ">
<path fill="none" stroke="#9a32cd" stroke-dasharray="5,2" d="M45.93,-68.84C43.97,-65.99 42.27,-62.92 41.12,-59.75 39.43,-55.05 39.65,-53.28 41.12,-48.5 43.08,-42.15 46.77,-35.94 50.57,-30.69"/>
<polygon fill="#9a32cd" stroke="#9a32cd" points="43.11,-70.92 52.19,-76.38 48.5,-66.45 43.11,-70.92"/>
</a>
</g>
<text text-anchor="middle" x="50.12" y="-50.25" font-family="Helvetica,sans-Serif" font-size="10.00" fill="grey"> ops</text>
</g>
<!-- Node2 -->
<g id="Node000002" class="node">
<title>Node2</title>
<g id="a_Node000002"><a xlink:href="thread_8c.html#structrequest" target="_top" xlink:title=" ">
<polygon fill="white" stroke="#bfbfbf" points="52.25,-219.75 4,-219.75 4,-200.5 52.25,-200.5 52.25,-219.75"/>
<text text-anchor="middle" x="28.12" y="-206.25" font-family="Helvetica,sans-Serif" font-size="10.00">request</text>
</a>
</g>
</g>
<!-- Node2&#45;&gt;Node1 -->
<g id="edge1_Node000001_Node000002" class="edge">
<title>Node2&#45;&gt;Node1</title>
<g id="a_edge1_Node000001_Node000002"><a xlink:title=" ">
<path fill="none" stroke="#9a32cd" stroke-dasharray="5,2" d="M32.73,-189.02C37.29,-169.83 44.74,-140.2 52.88,-115 54.82,-108.97 57.39,-102.31 59.46,-97.16"/>
<polygon fill="#9a32cd" stroke="#9a32cd" points="29.33,-188.2 30.47,-198.73 36.15,-189.79 29.33,-188.2"/>
</a>
</g>
<text text-anchor="middle" x="63.75" y="-150.5" font-family="Helvetica,sans-Serif" font-size="10.00" fill="grey"> ioctl</text>
<text text-anchor="middle" x="63.75" y="-139.25" font-family="Helvetica,sans-Serif" font-size="10.00" fill="grey">ioctl2</text>
</g>
<!-- Node3&#45;&gt;Node1 -->
<g id="edge2_Node000001_Node000003" class="edge">
<title>Node3&#45;&gt;Node1</title>
<g id="a_edge2_Node000001_Node000003"><a xlink:title=" ">
<path fill="none" stroke="#9a32cd" stroke-dasharray="5,2" d="M63.12,-42.1C63.12,-54.52 63.12,-68.61 63.12,-77.49"/>
<polygon fill="#9a32cd" stroke="#9a32cd" points="66.63,-42.43 63.13,-32.43 59.63,-42.43 66.63,-42.43"/>
</a>
</g>
<text text-anchor="middle" x="78.88" y="-50.25" font-family="Helvetica,sans-Serif" font-size="10.00" fill="grey"> accept</text>
</g>
<!-- Node4 -->
<g id="Node000004" class="node">
<title>Node4</title>
<g id="a_Node000004"><a xlink:href="tcpip_8h.html#structsockaddr" target="_top" xlink:title=" ">
<polygon fill="white" stroke="#bfbfbf" points="126,-219.75 70.25,-219.75 70.25,-200.5 126,-200.5 126,-219.75"/>
<text text-anchor="middle" x="98.12" y="-206.25" font-family="Helvetica,sans-Serif" font-size="10.00">sockaddr</text>
</a>
</g>
</g>
<!-- Node4&#45;&gt;Node1 -->
<g id="edge4_Node000001_Node000004" class="edge">
<title>Node4&#45;&gt;Node1</title>
<g id="a_edge4_Node000001_Node000004"><a xlink:title=" ">
<path fill="none" stroke="#9a32cd" stroke-dasharray="5,2" d="M94.75,-188.83C91.21,-169.51 84.94,-139.78 76.12,-115 73.92,-108.8 70.67,-102.14 67.97,-97.04"/>
<polygon fill="#9a32cd" stroke="#9a32cd" points="91.29,-189.37 96.45,-198.62 98.18,-188.17 91.29,-189.37"/>
</a>
</g>
<text text-anchor="middle" x="122.38" y="-173" font-family="Helvetica,sans-Serif" font-size="10.00" fill="grey"> bind</text>
<text text-anchor="middle" x="122.38" y="-161.75" font-family="Helvetica,sans-Serif" font-size="10.00" fill="grey">connect</text>
<text text-anchor="middle" x="122.38" y="-150.5" font-family="Helvetica,sans-Serif" font-size="10.00" fill="grey">getpeername</text>
<text text-anchor="middle" x="122.38" y="-139.25" font-family="Helvetica,sans-Serif" font-size="10.00" fill="grey">getsockname</text>
<text text-anchor="middle" x="122.38" y="-128" font-family="Helvetica,sans-Serif" font-size="10.00" fill="grey">recvfrom</text>
<text text-anchor="middle" x="122.38" y="-116.75" font-family="Helvetica,sans-Serif" font-size="10.00" fill="grey">sendto</text>
</g>
</g>
</svg>
</svg>

<style type='text/css'>
<![CDATA[
[data-mouse-over-selected='false'] { opacity: 0.7; }
[data-mouse-over-selected='true']  { opacity: 1.0; }
]]>
</style>
<script type="application/ecmascript"><![CDATA[
document.addEventListener('DOMContentLoaded', (event) => {
  highlightEdges();
  highlightAdjacentNodes();
});
]]></script>
</svg>
