<?xml version="1.0" encoding="UTF-8" standalone="no"?>
<!DOCTYPE svg PUBLIC "-//W3C//DTD SVG 1.1//EN"
 "http://www.w3.org/Graphics/SVG/1.1/DTD/svg11.dtd">
<!-- Generated by graphviz version 2.43.0 (0)
 -->
<!-- Title: htab Pages: 1 -->
<svg width="207pt" height="184pt"
 viewBox="0.00 0.00 206.50 184.00" xmlns="http://www.w3.org/2000/svg" xmlns:xlink="http://www.w3.org/1999/xlink">
<g id="graph0" class="graph" transform="scale(1 1) rotate(0) translate(4 180)">
<title>htab</title>
<polygon fill="white" stroke="transparent" points="-4,4 -4,-180 202.5,-180 202.5,4 -4,4"/>
<!-- Node1 -->
<g id="node1" class="node">
<title>Node1</title>
<g id="a_node1"><a xlink:title=" ">
<polygon fill="#bfbfbf" stroke="black" points="56.5,-0.5 56.5,-19.5 94.5,-19.5 94.5,-0.5 56.5,-0.5"/>
<text text-anchor="middle" x="75.5" y="-7.5" font-family="Helvetica,sans-Serif" font-size="10.00">htab</text>
</a>
</g>
</g>
<!-- Node2 -->
<g id="node2" class="node">
<title>Node2</title>
<g id="a_node2"><a xlink:href="structhitem.html" target="_top" xlink:title=" ">
<polygon fill="white" stroke="black" points="0,-78.5 0,-97.5 45,-97.5 45,-78.5 0,-78.5"/>
<text text-anchor="middle" x="22.5" y="-85.5" font-family="Helvetica,sans-Serif" font-size="10.00">hitem</text>
</a>
</g>
</g>
<!-- Node2&#45;&gt;Node1 -->
<g id="edge1" class="edge">
<title>Node2&#45;&gt;Node1</title>
<path fill="none" stroke="#9a32cd" stroke-dasharray="5,2" d="M34.35,-70.01C45.26,-54.37 60.98,-31.81 69.49,-19.62"/>
<polygon fill="#9a32cd" stroke="#9a32cd" points="31.43,-68.08 28.58,-78.28 37.17,-72.08 31.43,-68.08"/>
<text text-anchor="middle" x="69.5" y="-52" font-family="Helvetica,sans-Serif" font-size="10.00"> table</text>
<text text-anchor="middle" x="69.5" y="-41" font-family="Helvetica,sans-Serif" font-size="10.00">ipos</text>
</g>
<!-- Node2&#45;&gt;Node2 -->
<g id="edge2" class="edge">
<title>Node2&#45;&gt;Node2</title>
<path fill="none" stroke="#9a32cd" stroke-dasharray="5,2" d="M55.5,-94.33C60,-93.28 63,-91.17 63,-88 63,-82.8 54.93,-80.45 45.4,-80.94"/>
<polygon fill="#9a32cd" stroke="#9a32cd" points="55.12,-90.85 45.4,-95.06 55.63,-97.83 55.12,-90.85"/>
<text text-anchor="middle" x="75.5" y="-85.5" font-family="Helvetica,sans-Serif" font-size="10.00"> next</text>
</g>
<!-- Node3 -->
<g id="node3" class="node">
<title>Node3</title>
<g id="a_node3"><a xlink:href="structreroot.html" target="_top" xlink:title=" ">
<polygon fill="white" stroke="black" points="106.5,-78.5 106.5,-97.5 152.5,-97.5 152.5,-78.5 106.5,-78.5"/>
<text text-anchor="middle" x="129.5" y="-85.5" font-family="Helvetica,sans-Serif" font-size="10.00">reroot</text>
</a>
</g>
</g>
<!-- Node3&#45;&gt;Node1 -->
<g id="edge3" class="edge">
<title>Node3&#45;&gt;Node1</title>
<path fill="none" stroke="#9a32cd" stroke-dasharray="5,2" d="M117.43,-70.01C106.32,-54.37 90.29,-31.81 81.62,-19.62"/>
<polygon fill="#9a32cd" stroke="#9a32cd" points="114.66,-72.16 123.31,-78.28 120.37,-68.1 114.66,-72.16"/>
<text text-anchor="middle" x="124.5" y="-46.5" font-family="Helvetica,sans-Serif" font-size="10.00"> space</text>
</g>
<!-- Node4 -->
<g id="node4" class="node">
<title>Node4</title>
<g id="a_node4"><a xlink:href="structrecycle.html" target="_top" xlink:title=" ">
<polygon fill="white" stroke="black" points="103.5,-156.5 103.5,-175.5 155.5,-175.5 155.5,-156.5 103.5,-156.5"/>
<text text-anchor="middle" x="129.5" y="-163.5" font-family="Helvetica,sans-Serif" font-size="10.00">recycle</text>
</a>
</g>
</g>
<!-- Node4&#45;&gt;Node3 -->
<g id="edge4" class="edge">
<title>Node4&#45;&gt;Node3</title>
<path fill="none" stroke="#9a32cd" stroke-dasharray="5,2" d="M129.5,-146.22C129.5,-130.7 129.5,-109.36 129.5,-97.62"/>
<polygon fill="#9a32cd" stroke="#9a32cd" points="126,-146.28 129.5,-156.28 133,-146.28 126,-146.28"/>
<text text-anchor="middle" x="143.5" y="-130" font-family="Helvetica,sans-Serif" font-size="10.00"> trash</text>
<text text-anchor="middle" x="143.5" y="-119" font-family="Helvetica,sans-Serif" font-size="10.00">list</text>
</g>
<!-- Node4&#45;&gt;Node4 -->
<g id="edge5" class="edge">
<title>Node4&#45;&gt;Node4</title>
<path fill="none" stroke="#9a32cd" stroke-dasharray="5,2" d="M165.97,-172.19C170.52,-171.09 173.5,-169.03 173.5,-166 173.5,-161.03 165.46,-158.66 155.7,-158.89"/>
<polygon fill="#9a32cd" stroke="#9a32cd" points="165.35,-168.73 155.7,-173.11 165.97,-175.71 165.35,-168.73"/>
<text text-anchor="middle" x="186" y="-163.5" font-family="Helvetica,sans-Serif" font-size="10.00"> next</text>
</g>
</g>
</svg>
