<?xml version="1.0" encoding="UTF-8" standalone="no"?>
<!DOCTYPE svg PUBLIC "-//W3C//DTD SVG 1.1//EN"
 "http://www.w3.org/Graphics/SVG/1.1/DTD/svg11.dtd">
<!-- Generated by graphviz version 9.0.0 (20230911.1827)
 -->
<!-- Title: heaplib_chunk_ Pages: 1 -->
<svg width="217pt" height="105pt"
 viewBox="0.00 0.00 216.75 105.00" xmlns="http://www.w3.org/2000/svg" xmlns:xlink="http://www.w3.org/1999/xlink">
<g id="graph0" class="graph" transform="scale(1 1) rotate(0) translate(4 101)">
<title>heaplib_chunk_</title>
<!-- Node1 -->
<g id="Node000001" class="node">
<title>Node1</title>
<g id="a_Node000001"><a xlink:title=" ">
<polygon fill="#999999" stroke="#666666" points="105.25,-19.25 21.75,-19.25 21.75,0 105.25,0 105.25,-19.25"/>
<text text-anchor="middle" x="63.5" y="-5.75" font-family="Helvetica,sans-Serif" font-size="10.00">heaplib_chunk_</text>
</a>
</g>
</g>
<!-- Node2 -->
<g id="Node000002" class="node">
<title>Node2</title>
<g id="a_Node000002"><a xlink:href="structheaplib__chunk__fragment__.html" target="_top" xlink:title=" ">
<polygon fill="white" stroke="#bfbfbf" points="127,-97 0,-97 0,-77.75 127,-77.75 127,-97"/>
<text text-anchor="middle" x="63.5" y="-83.5" font-family="Helvetica,sans-Serif" font-size="10.00">heaplib_chunk_fragment_</text>
</a>
</g>
</g>
<!-- Node2&#45;&gt;Node1 -->
<g id="edge1_Node000001_Node000002" class="edge">
<title>Node2&#45;&gt;Node1</title>
<g id="a_edge1_Node000001_Node000002"><a xlink:title=" ">
<path fill="none" stroke="#9a32cd" stroke-dasharray="5,2" d="M63.5,-66.1C63.5,-50.95 63.5,-30.98 63.5,-19.6"/>
<polygon fill="#9a32cd" stroke="#9a32cd" points="60,-65.87 63.5,-75.87 67,-65.87 60,-65.87"/>
</a>
</g>
<text text-anchor="middle" x="111.5" y="-50.25" font-family="Helvetica,sans-Serif" font-size="10.00" fill="grey"> chunk_fragment_prev</text>
<text text-anchor="middle" x="111.5" y="-39" font-family="Helvetica,sans-Serif" font-size="10.00" fill="grey">fragment</text>
</g>
<!-- Node2&#45;&gt;Node2 -->
<g id="edge2_Node000002_Node000002" class="edge">
<title>Node2&#45;&gt;Node2</title>
<g id="a_edge2_Node000002_Node000002"><a xlink:title=" ">
<path fill="none" stroke="#9a32cd" stroke-dasharray="5,2" d="M138.57,-92.21C142.6,-91.03 145,-89.42 145,-87.38 145,-83.84 137.83,-81.6 127.4,-80.63"/>
<polygon fill="#9a32cd" stroke="#9a32cd" points="138.16,-88.73 128.89,-93.86 139.33,-95.63 138.16,-88.73"/>
</a>
</g>
<text text-anchor="middle" x="176.88" y="-83.5" font-family="Helvetica,sans-Serif" font-size="10.00" fill="grey"> next_fragment</text>
</g>
</g>
</svg>
