<?xml version="1.0" encoding="UTF-8" standalone="no"?>
<!DOCTYPE svg PUBLIC "-//W3C//DTD SVG 1.1//EN"
 "http://www.w3.org/Graphics/SVG/1.1/DTD/svg11.dtd">
<!-- Generated by graphviz version 2.44.0 ()
 -->
<!-- Title: _ioman_data Pages: 1 -->
<svg width="233pt" height="253pt"
 viewBox="0.00 0.00 233.00 253.00" xmlns="http://www.w3.org/2000/svg" xmlns:xlink="http://www.w3.org/1999/xlink">
<g id="graph0" class="graph" transform="scale(1 1) rotate(0) translate(4 249)">
<title>_ioman_data</title>
<polygon fill="white" stroke="transparent" points="-4,4 -4,-249 229,-249 229,4 -4,4"/>
<!-- Node1 -->
<g id="node1" class="node">
<title>Node1</title>
<g id="a_node1"><a xlink:title=" ">
<polygon fill="#bfbfbf" stroke="black" points="0,-158.5 0,-177.5 72,-177.5 72,-158.5 0,-158.5"/>
<text text-anchor="middle" x="36" y="-165.5" font-family="Helvetica,sans-Serif" font-size="10.00">_ioman_data</text>
</a>
</g>
</g>
<!-- Node3 -->
<g id="node3" class="node">
<title>Node3</title>
<g id="a_node3"><a xlink:href="devfs_8c.html#structsubdev__t" target="_top" xlink:title=" ">
<polygon fill="white" stroke="black" points="65,-69.5 65,-88.5 121,-88.5 121,-69.5 65,-69.5"/>
<text text-anchor="middle" x="93" y="-76.5" font-family="Helvetica,sans-Serif" font-size="10.00">subdev_t</text>
</a>
</g>
</g>
<!-- Node1&#45;&gt;Node3 -->
<g id="edge4" class="edge">
<title>Node1&#45;&gt;Node3</title>
<path fill="none" stroke="#9a32cd" stroke-dasharray="5,2" d="M35.92,-148.09C36.74,-135.44 39.57,-118.97 48,-107 53.67,-98.96 62.56,-92.89 70.95,-88.57"/>
<polygon fill="#9a32cd" stroke="#9a32cd" points="32.41,-148.31 35.63,-158.41 39.41,-148.51 32.41,-148.31"/>
<text text-anchor="middle" x="71" y="-121" font-family="Helvetica,sans-Serif" font-size="10.00"> open_files</text>
</g>
<!-- Node2 -->
<g id="node2" class="node">
<title>Node2</title>
<g id="a_node2"><a xlink:href="devfs_8c.html#struct__devfs__device" target="_top" xlink:title=" ">
<polygon fill="white" stroke="black" points="53,-1.5 53,-20.5 133,-20.5 133,-1.5 53,-1.5"/>
<text text-anchor="middle" x="93" y="-8.5" font-family="Helvetica,sans-Serif" font-size="10.00">_devfs_device</text>
</a>
</g>
</g>
<!-- Node2&#45;&gt;Node1 -->
<g id="edge1" class="edge">
<title>Node2&#45;&gt;Node1</title>
<path fill="none" stroke="#9a32cd" stroke-dasharray="5,2" d="M72.76,-26.91C60.3,-37.26 45.2,-52.18 37,-69 22.38,-98.98 29.56,-140.5 33.73,-158.31"/>
<polygon fill="#9a32cd" stroke="#9a32cd" points="75.18,-29.46 80.84,-20.51 70.83,-23.97 75.18,-29.46"/>
<text text-anchor="middle" x="46.5" y="-76.5" font-family="Helvetica,sans-Serif" font-size="10.00"> dev</text>
</g>
<!-- Node2&#45;&gt;Node2 -->
<g id="edge2" class="edge">
<title>Node2&#45;&gt;Node2</title>
<path fill="none" stroke="#9a32cd" stroke-dasharray="5,2" d="M143.26,-16.12C148,-15.07 151,-13.37 151,-11 151,-7.21 143.33,-5.12 133.12,-4.7"/>
<polygon fill="#9a32cd" stroke="#9a32cd" points="142.65,-12.67 133.12,-17.3 143.46,-19.62 142.65,-12.67"/>
<text text-anchor="middle" x="163" y="-14" font-family="Helvetica,sans-Serif" font-size="10.00"> back</text>
<text text-anchor="middle" x="163" y="-3" font-family="Helvetica,sans-Serif" font-size="10.00">forw</text>
</g>
<!-- Node3&#45;&gt;Node2 -->
<g id="edge3" class="edge">
<title>Node3&#45;&gt;Node2</title>
<path fill="none" stroke="#9a32cd" stroke-dasharray="5,2" d="M93,-59.04C93,-46.47 93,-30.56 93,-20.84"/>
<polygon fill="#9a32cd" stroke="#9a32cd" points="89.5,-59.37 93,-69.37 96.5,-59.37 89.5,-59.37"/>
<text text-anchor="middle" x="113" y="-43" font-family="Helvetica,sans-Serif" font-size="10.00"> subdevs</text>
</g>
<!-- Node4 -->
<g id="node4" class="node">
<title>Node4</title>
<g id="a_node4"><a xlink:href="devfs_8h.html#uniondevfs__loc__t" target="_top" xlink:title=" ">
<polygon fill="white" stroke="black" points="74.5,-225.5 74.5,-244.5 141.5,-244.5 141.5,-225.5 74.5,-225.5"/>
<text text-anchor="middle" x="108" y="-232.5" font-family="Helvetica,sans-Serif" font-size="10.00">devfs_loc_t</text>
</a>
</g>
</g>
<!-- Node4&#45;&gt;Node1 -->
<g id="edge9" class="edge">
<title>Node4&#45;&gt;Node1</title>
<path fill="none" stroke="#9a32cd" stroke-dasharray="5,2" d="M90.93,-218.65C86.7,-214.84 82.18,-210.78 78,-207 66.9,-196.99 54.18,-185.47 45.67,-177.76"/>
<polygon fill="#9a32cd" stroke="#9a32cd" points="88.76,-221.41 98.54,-225.49 93.44,-216.2 88.76,-221.41"/>
<text text-anchor="middle" x="86" y="-199" font-family="Helvetica,sans-Serif" font-size="10.00"> loc</text>
</g>
<!-- Node4&#45;&gt;Node3 -->
<g id="edge5" class="edge">
<title>Node4&#45;&gt;Node3</title>
<path fill="none" stroke="#9a32cd" stroke-dasharray="5,2" d="M106.15,-214.98C102.87,-181.37 96.19,-112.76 93.84,-88.63"/>
<polygon fill="#9a32cd" stroke="#9a32cd" points="102.7,-215.67 107.15,-225.28 109.66,-214.99 102.7,-215.67"/>
<text text-anchor="middle" x="116.5" y="-165.5" font-family="Helvetica,sans-Serif" font-size="10.00"> extent</text>
</g>
<!-- Node6 -->
<g id="node6" class="node">
<title>Node6</title>
<g id="a_node6"><a xlink:href="devfs_8h.html#structdevfs__info__t" target="_top" xlink:title=" ">
<polygon fill="white" stroke="black" points="155,-158.5 155,-177.5 225,-177.5 225,-158.5 155,-158.5"/>
<text text-anchor="middle" x="190" y="-165.5" font-family="Helvetica,sans-Serif" font-size="10.00">devfs_info_t</text>
</a>
</g>
</g>
<!-- Node4&#45;&gt;Node6 -->
<g id="edge8" class="edge">
<title>Node4&#45;&gt;Node6</title>
<path fill="none" stroke="#9a32cd" stroke-dasharray="5,2" d="M127.28,-218.71C143.44,-205.91 165.92,-188.09 179.12,-177.63"/>
<polygon fill="#9a32cd" stroke="#9a32cd" points="124.72,-216.28 119.06,-225.23 129.07,-221.76 124.72,-216.28"/>
<text text-anchor="middle" x="161" y="-199" font-family="Helvetica,sans-Serif" font-size="10.00"> loc</text>
</g>
<!-- Node5 -->
<g id="node5" class="node">
<title>Node5</title>
<g id="a_node5"><a xlink:href="devfs_8h.html#structdevfs__node__t" target="_top" xlink:title=" ">
<polygon fill="white" stroke="black" points="141.5,-69.5 141.5,-88.5 216.5,-88.5 216.5,-69.5 141.5,-69.5"/>
<text text-anchor="middle" x="179" y="-76.5" font-family="Helvetica,sans-Serif" font-size="10.00">devfs_node_t</text>
</a>
</g>
</g>
<!-- Node5&#45;&gt;Node2 -->
<g id="edge6" class="edge">
<title>Node5&#45;&gt;Node2</title>
<path fill="none" stroke="#9a32cd" stroke-dasharray="5,2" d="M162.91,-62.27C155.31,-55.15 145.96,-46.83 137,-40 127.78,-32.98 116.78,-25.98 108.09,-20.73"/>
<polygon fill="#9a32cd" stroke="#9a32cd" points="160.72,-65.02 170.37,-69.39 165.55,-59.95 160.72,-65.02"/>
<text text-anchor="middle" x="162" y="-43" font-family="Helvetica,sans-Serif" font-size="10.00"> node</text>
</g>
<!-- Node6&#45;&gt;Node5 -->
<g id="edge7" class="edge">
<title>Node6&#45;&gt;Node5</title>
<path fill="none" stroke="#9a32cd" stroke-dasharray="5,2" d="M187.62,-148.19C185.29,-129.74 181.83,-102.41 180.09,-88.62"/>
<polygon fill="#9a32cd" stroke="#9a32cd" points="184.18,-148.86 188.91,-158.34 191.12,-147.98 184.18,-148.86"/>
<text text-anchor="middle" x="197" y="-132" font-family="Helvetica,sans-Serif" font-size="10.00"> ioctl</text>
<text text-anchor="middle" x="197" y="-121" font-family="Helvetica,sans-Serif" font-size="10.00">read</text>
<text text-anchor="middle" x="197" y="-110" font-family="Helvetica,sans-Serif" font-size="10.00">write</text>
</g>
</g>
</svg>
