<?xml version="1.0" encoding="UTF-8" standalone="no"?>
<!DOCTYPE svg PUBLIC "-//W3C//DTD SVG 1.1//EN"
 "http://www.w3.org/Graphics/SVG/1.1/DTD/svg11.dtd">
<!-- Generated by graphviz version 2.43.0 (0)
 -->
<!-- Title: sceNetCnfEnv Pages: 1 -->
<svg width="579pt" height="480pt"
 viewBox="0.00 0.00 579.00 480.00" xmlns="http://www.w3.org/2000/svg" xmlns:xlink="http://www.w3.org/1999/xlink">
<g id="graph0" class="graph" transform="scale(1 1) rotate(0) translate(4 476)">
<title>sceNetCnfEnv</title>
<polygon fill="white" stroke="transparent" points="-4,4 -4,-476 575,-476 575,4 -4,4"/>
<!-- Node1 -->
<g id="node1" class="node">
<title>Node1</title>
<g id="a_node1"><a xlink:title=" ">
<polygon fill="#bfbfbf" stroke="black" points="189.5,-0.5 189.5,-19.5 274.5,-19.5 274.5,-0.5 189.5,-0.5"/>
<text text-anchor="middle" x="232" y="-7.5" font-family="Helvetica,sans-Serif" font-size="10.00">sceNetCnfEnv</text>
</a>
</g>
</g>
<!-- Node2 -->
<g id="node2" class="node">
<title>Node2</title>
<g id="a_node2"><a xlink:href="structsce_net_cnf_interface.html" target="_top" xlink:title=" ">
<polygon fill="white" stroke="black" points="164,-283.5 164,-302.5 274,-302.5 274,-283.5 164,-283.5"/>
<text text-anchor="middle" x="219" y="-290.5" font-family="Helvetica,sans-Serif" font-size="10.00">sceNetCnfInterface</text>
</a>
</g>
</g>
<!-- Node2&#45;&gt;Node1 -->
<g id="edge1" class="edge">
<title>Node2&#45;&gt;Node1</title>
<path fill="none" stroke="#9a32cd" stroke-dasharray="5,2" d="M217.7,-273.3C216.89,-260.09 216,-241.97 216,-226 216,-226 216,-226 216,-76 216,-55.31 223.74,-31.97 228.45,-19.66"/>
<polygon fill="#9a32cd" stroke="#9a32cd" points="214.22,-273.71 218.36,-283.46 221.2,-273.25 214.22,-273.71"/>
<text text-anchor="middle" x="224" y="-153.5" font-family="Helvetica,sans-Serif" font-size="10.00"> ifc</text>
</g>
<!-- Node8 -->
<g id="node8" class="node">
<title>Node8</title>
<g id="a_node8"><a xlink:href="structsce_net_cnf_pair.html" target="_top" xlink:title=" ">
<polygon fill="white" stroke="black" points="263.5,-146.5 263.5,-165.5 348.5,-165.5 348.5,-146.5 263.5,-146.5"/>
<text text-anchor="middle" x="306" y="-153.5" font-family="Helvetica,sans-Serif" font-size="10.00">sceNetCnfPair</text>
</a>
</g>
</g>
<!-- Node2&#45;&gt;Node8 -->
<g id="edge10" class="edge">
<title>Node2&#45;&gt;Node8</title>
<path fill="none" stroke="#9a32cd" stroke-dasharray="5,2" d="M230.34,-274.4C249.19,-245.15 286.29,-187.59 300.38,-165.71"/>
<polygon fill="#9a32cd" stroke="#9a32cd" points="227.18,-272.84 224.71,-283.14 233.07,-276.63 227.18,-272.84"/>
<text text-anchor="middle" x="277.5" y="-228" font-family="Helvetica,sans-Serif" font-size="10.00"> ifc</text>
<text text-anchor="middle" x="277.5" y="-217" font-family="Helvetica,sans-Serif" font-size="10.00">dev</text>
</g>
<!-- Node9 -->
<g id="node9" class="node">
<title>Node9</title>
<g id="a_node9"><a xlink:href="structsce_net_cnf_ctl.html" target="_top" xlink:title=" ">
<polygon fill="white" stroke="black" points="299,-215.5 299,-234.5 379,-234.5 379,-215.5 299,-215.5"/>
<text text-anchor="middle" x="339" y="-222.5" font-family="Helvetica,sans-Serif" font-size="10.00">sceNetCnfCtl</text>
</a>
</g>
</g>
<!-- Node2&#45;&gt;Node9 -->
<g id="edge14" class="edge">
<title>Node2&#45;&gt;Node9</title>
<path fill="none" stroke="#9a32cd" stroke-dasharray="5,2" d="M247.65,-279.19C256.82,-274.89 266.93,-269.93 276,-265 293.63,-255.41 313.17,-243.02 325.74,-234.81"/>
<polygon fill="#9a32cd" stroke="#9a32cd" points="246.14,-276.04 238.53,-283.41 249.08,-282.39 246.14,-276.04"/>
<text text-anchor="middle" x="301" y="-257" font-family="Helvetica,sans-Serif" font-size="10.00"> ifc</text>
</g>
<!-- Node3 -->
<g id="node3" class="node">
<title>Node3</title>
<g id="a_node3"><a xlink:href="structsce_net_cnf_interface__want__allow.html" target="_top" xlink:title=" ">
<polygon fill="white" stroke="black" points="0,-361.5 0,-391.5 110,-391.5 110,-361.5 0,-361.5"/>
<text text-anchor="start" x="8" y="-379.5" font-family="Helvetica,sans-Serif" font-size="10.00">sceNetCnfInterface</text>
<text text-anchor="middle" x="55" y="-368.5" font-family="Helvetica,sans-Serif" font-size="10.00">_want_allow</text>
</a>
</g>
</g>
<!-- Node3&#45;&gt;Node2 -->
<g id="edge2" class="edge">
<title>Node3&#45;&gt;Node2</title>
<path fill="none" stroke="#9a32cd" stroke-dasharray="5,2" d="M81.21,-355.13C96.54,-343.93 116.64,-330.43 136,-321 151.67,-313.37 170.01,-307.14 185.46,-302.6"/>
<polygon fill="#9a32cd" stroke="#9a32cd" points="78.71,-352.63 72.78,-361.41 82.89,-358.25 78.71,-352.63"/>
<text text-anchor="middle" x="150" y="-335" font-family="Helvetica,sans-Serif" font-size="10.00"> want</text>
<text text-anchor="middle" x="150" y="-324" font-family="Helvetica,sans-Serif" font-size="10.00">allow</text>
</g>
<!-- Node4 -->
<g id="node4" class="node">
<title>Node4</title>
<g id="a_node4"><a xlink:href="structsce_net_cnf_command.html" target="_top" xlink:title=" ">
<polygon fill="white" stroke="black" points="128.5,-367 128.5,-386 245.5,-386 245.5,-367 128.5,-367"/>
<text text-anchor="middle" x="187" y="-374" font-family="Helvetica,sans-Serif" font-size="10.00">sceNetCnfCommand</text>
</a>
</g>
</g>
<!-- Node4&#45;&gt;Node2 -->
<g id="edge3" class="edge">
<title>Node4&#45;&gt;Node2</title>
<path fill="none" stroke="#9a32cd" stroke-dasharray="5,2" d="M175.61,-358.06C169.87,-346.9 165.38,-332.43 172,-321 176.81,-312.69 185.25,-306.72 193.66,-302.54"/>
<polygon fill="#9a32cd" stroke="#9a32cd" points="172.68,-359.98 180.74,-366.86 178.73,-356.45 172.68,-359.98"/>
<text text-anchor="middle" x="199" y="-335" font-family="Helvetica,sans-Serif" font-size="10.00"> cmd_head</text>
<text text-anchor="middle" x="199" y="-324" font-family="Helvetica,sans-Serif" font-size="10.00">cmd_tail</text>
</g>
<!-- Node4&#45;&gt;Node4 -->
<g id="edge4" class="edge">
<title>Node4&#45;&gt;Node4</title>
<path fill="none" stroke="#9a32cd" stroke-dasharray="5,2" d="M255.58,-382.57C260.5,-381.19 263.5,-379.17 263.5,-376.5 263.5,-372.33 256.18,-369.74 245.7,-368.73"/>
<polygon fill="#9a32cd" stroke="#9a32cd" points="254.96,-379.12 245.7,-384.27 256.14,-386.02 254.96,-379.12"/>
<text text-anchor="middle" x="277" y="-379.5" font-family="Helvetica,sans-Serif" font-size="10.00"> back</text>
<text text-anchor="middle" x="277" y="-368.5" font-family="Helvetica,sans-Serif" font-size="10.00">forw</text>
</g>
<!-- Node5 -->
<g id="node5" class="node">
<title>Node5</title>
<g id="a_node5"><a xlink:href="structsce_net_cnf_unknown_list.html" target="_top" xlink:title=" ">
<polygon fill="white" stroke="black" points="341,-367 341,-386 471,-386 471,-367 341,-367"/>
<text text-anchor="middle" x="406" y="-374" font-family="Helvetica,sans-Serif" font-size="10.00">sceNetCnfUnknownList</text>
</a>
</g>
</g>
<!-- Node5&#45;&gt;Node2 -->
<g id="edge5" class="edge">
<title>Node5&#45;&gt;Node2</title>
<path fill="none" stroke="#9a32cd" stroke-dasharray="5,2" d="M330.91,-367.72C307.66,-362.97 282.72,-355.32 262,-343 245.07,-332.94 231.29,-313.92 224.2,-302.76"/>
<polygon fill="#9a32cd" stroke="#9a32cd" points="330.28,-371.17 340.76,-369.59 331.59,-364.29 330.28,-371.17"/>
<text text-anchor="middle" x="296" y="-329.5" font-family="Helvetica,sans-Serif" font-size="10.00"> unknown_list</text>
</g>
<!-- Node7 -->
<g id="node7" class="node">
<title>Node7</title>
<g id="a_node7"><a xlink:href="structsce_net_cnf_root.html" target="_top" xlink:title=" ">
<polygon fill="white" stroke="black" points="261.5,-67.5 261.5,-86.5 350.5,-86.5 350.5,-67.5 261.5,-67.5"/>
<text text-anchor="middle" x="306" y="-74.5" font-family="Helvetica,sans-Serif" font-size="10.00">sceNetCnfRoot</text>
</a>
</g>
</g>
<!-- Node5&#45;&gt;Node7 -->
<g id="edge17" class="edge">
<title>Node5&#45;&gt;Node7</title>
<path fill="none" stroke="#9a32cd" stroke-dasharray="5,2" d="M411.86,-356.64C416.42,-340.26 422,-315.79 422,-294 422,-294 422,-294 422,-155 422,-116.93 378.09,-96.56 344.3,-86.52"/>
<polygon fill="#9a32cd" stroke="#9a32cd" points="408.4,-355.99 408.93,-366.57 415.12,-357.96 408.4,-355.99"/>
<text text-anchor="middle" x="456" y="-222.5" font-family="Helvetica,sans-Serif" font-size="10.00"> unknown_list</text>
</g>
<!-- Node5&#45;&gt;Node8 -->
<g id="edge12" class="edge">
<title>Node5&#45;&gt;Node8</title>
<path fill="none" stroke="#9a32cd" stroke-dasharray="5,2" d="M425.25,-360.61C461.04,-331.13 530.98,-263.86 494,-214 460.78,-169.21 393.31,-158.38 348.89,-156.41"/>
<polygon fill="#9a32cd" stroke="#9a32cd" points="422.97,-357.95 417.37,-366.95 427.36,-363.41 422.97,-357.95"/>
<text text-anchor="middle" x="537" y="-257" font-family="Helvetica,sans-Serif" font-size="10.00"> unknown_list</text>
</g>
<!-- Node10 -->
<g id="node10" class="node">
<title>Node10</title>
<g id="a_node10"><a xlink:href="structsce_net_cnf_dial.html" target="_top" xlink:title=" ">
<polygon fill="white" stroke="black" points="296,-283.5 296,-302.5 382,-302.5 382,-283.5 296,-283.5"/>
<text text-anchor="middle" x="339" y="-290.5" font-family="Helvetica,sans-Serif" font-size="10.00">sceNetCnfDial</text>
</a>
</g>
</g>
<!-- Node5&#45;&gt;Node10 -->
<g id="edge16" class="edge">
<title>Node5&#45;&gt;Node10</title>
<path fill="none" stroke="#9a32cd" stroke-dasharray="5,2" d="M362.92,-362.67C353.88,-357.95 345.45,-351.57 340,-343 332.23,-330.8 334.34,-313.19 336.63,-302.74"/>
<polygon fill="#9a32cd" stroke="#9a32cd" points="361.51,-365.88 372.06,-366.87 364.43,-359.52 361.51,-365.88"/>
<text text-anchor="middle" x="374" y="-329.5" font-family="Helvetica,sans-Serif" font-size="10.00"> unknown_list</text>
</g>
<!-- Node6 -->
<g id="node6" class="node">
<title>Node6</title>
<g id="a_node6"><a xlink:href="structsce_net_cnf_unknown.html" target="_top" xlink:title=" ">
<polygon fill="white" stroke="black" points="349.5,-451.5 349.5,-470.5 462.5,-470.5 462.5,-451.5 349.5,-451.5"/>
<text text-anchor="middle" x="406" y="-458.5" font-family="Helvetica,sans-Serif" font-size="10.00">sceNetCnfUnknown</text>
</a>
</g>
</g>
<!-- Node6&#45;&gt;Node5 -->
<g id="edge6" class="edge">
<title>Node6&#45;&gt;Node5</title>
<path fill="none" stroke="#9a32cd" stroke-dasharray="5,2" d="M406,-441.43C406,-424.13 406,-399.11 406,-386.1"/>
<polygon fill="#9a32cd" stroke="#9a32cd" points="402.5,-441.48 406,-451.48 409.5,-441.48 402.5,-441.48"/>
<text text-anchor="middle" x="420" y="-424" font-family="Helvetica,sans-Serif" font-size="10.00"> head</text>
<text text-anchor="middle" x="420" y="-413" font-family="Helvetica,sans-Serif" font-size="10.00">tail</text>
</g>
<!-- Node6&#45;&gt;Node6 -->
<g id="edge7" class="edge">
<title>Node6&#45;&gt;Node6</title>
<path fill="none" stroke="#9a32cd" stroke-dasharray="5,2" d="M472.49,-466.59C477.45,-465.34 480.5,-463.48 480.5,-461 480.5,-457.13 473.07,-454.76 462.53,-453.88"/>
<polygon fill="#9a32cd" stroke="#9a32cd" points="471.88,-463.14 462.53,-468.12 472.94,-470.06 471.88,-463.14"/>
<text text-anchor="middle" x="494" y="-464" font-family="Helvetica,sans-Serif" font-size="10.00"> back</text>
<text text-anchor="middle" x="494" y="-453" font-family="Helvetica,sans-Serif" font-size="10.00">forw</text>
</g>
<!-- Node7&#45;&gt;Node1 -->
<g id="edge8" class="edge">
<title>Node7&#45;&gt;Node1</title>
<path fill="none" stroke="#9a32cd" stroke-dasharray="5,2" d="M288.19,-60.36C273.64,-47.58 253.62,-29.99 241.82,-19.63"/>
<polygon fill="#9a32cd" stroke="#9a32cd" points="286.2,-63.26 296.02,-67.23 290.82,-58 286.2,-63.26"/>
<text text-anchor="middle" x="284.5" y="-41" font-family="Helvetica,sans-Serif" font-size="10.00"> root</text>
</g>
<!-- Node8&#45;&gt;Node7 -->
<g id="edge9" class="edge">
<title>Node8&#45;&gt;Node7</title>
<path fill="none" stroke="#9a32cd" stroke-dasharray="5,2" d="M306,-136.31C306,-120.59 306,-98.81 306,-86.81"/>
<polygon fill="#9a32cd" stroke="#9a32cd" points="302.5,-136.47 306,-146.47 309.5,-136.47 302.5,-136.47"/>
<text text-anchor="middle" x="332" y="-119" font-family="Helvetica,sans-Serif" font-size="10.00"> pair_head</text>
<text text-anchor="middle" x="332" y="-108" font-family="Helvetica,sans-Serif" font-size="10.00">pair_tail</text>
</g>
<!-- Node8&#45;&gt;Node8 -->
<g id="edge11" class="edge">
<title>Node8&#45;&gt;Node8</title>
<path fill="none" stroke="#9a32cd" stroke-dasharray="5,2" d="M358.82,-161.04C363.54,-159.98 366.5,-158.3 366.5,-156 366.5,-152.31 358.92,-150.23 348.68,-149.74"/>
<polygon fill="#9a32cd" stroke="#9a32cd" points="358.19,-157.59 348.68,-162.26 359.03,-164.54 358.19,-157.59"/>
<text text-anchor="middle" x="380" y="-159" font-family="Helvetica,sans-Serif" font-size="10.00"> back</text>
<text text-anchor="middle" x="380" y="-148" font-family="Helvetica,sans-Serif" font-size="10.00">forw</text>
</g>
<!-- Node9&#45;&gt;Node8 -->
<g id="edge13" class="edge">
<title>Node9&#45;&gt;Node8</title>
<path fill="none" stroke="#9a32cd" stroke-dasharray="5,2" d="M330.23,-206.19C323.75,-193.05 315.23,-175.74 310.21,-165.55"/>
<polygon fill="#9a32cd" stroke="#9a32cd" points="327.13,-207.82 334.69,-215.24 333.41,-204.72 327.13,-207.82"/>
<text text-anchor="middle" x="332" y="-188" font-family="Helvetica,sans-Serif" font-size="10.00"> ctl</text>
</g>
<!-- Node10&#45;&gt;Node9 -->
<g id="edge15" class="edge">
<title>Node10&#45;&gt;Node9</title>
<path fill="none" stroke="#9a32cd" stroke-dasharray="5,2" d="M339,-273.04C339,-260.47 339,-244.56 339,-234.84"/>
<polygon fill="#9a32cd" stroke="#9a32cd" points="335.5,-273.37 339,-283.37 342.5,-273.37 335.5,-273.37"/>
<text text-anchor="middle" x="350" y="-257" font-family="Helvetica,sans-Serif" font-size="10.00"> dial</text>
</g>
</g>
</svg>
