<?xml version="1.0" encoding="UTF-8" standalone="no"?>
<!DOCTYPE svg PUBLIC "-//W3C//DTD SVG 1.1//EN"
 "http://www.w3.org/Graphics/SVG/1.1/DTD/svg11.dtd">
<!-- Generated by graphviz version 9.0.0 (20230911.1827)
 -->
<!-- Title: pad_t Pages: 1 -->
<svg width="174pt" height="94pt"
 viewBox="0.00 0.00 174.12 93.75" xmlns="http://www.w3.org/2000/svg" xmlns:xlink="http://www.w3.org/1999/xlink">
<g id="graph0" class="graph" transform="scale(1 1) rotate(0) translate(4 89.75)">
<title>pad_t</title>
<!-- Node1 -->
<g id="Node000001" class="node">
<title>Node1</title>
<g id="a_Node000001"><a xlink:title=" ">
<polygon fill="#999999" stroke="#666666" points="110.38,-19.25 70.38,-19.25 70.38,0 110.38,0 110.38,-19.25"/>
<text text-anchor="middle" x="90.38" y="-5.75" font-family="Helvetica,sans-Serif" font-size="10.00">pad_t</text>
</a>
</g>
</g>
<!-- Node2 -->
<g id="Node000002" class="node">
<title>Node2</title>
<g id="a_Node000002"><a xlink:href="libpad_8h.html#structpad_button_status" target="_top" xlink:title=" ">
<polygon fill="white" stroke="#666666" points="88.75,-85.75 0,-85.75 0,-66.5 88.75,-66.5 88.75,-85.75"/>
<text text-anchor="middle" x="44.38" y="-72.25" font-family="Helvetica,sans-Serif" font-size="10.00">padButtonStatus</text>
</a>
</g>
</g>
<!-- Node2&#45;&gt;Node1 -->
<g id="edge1_Node000001_Node000002" class="edge">
<title>Node2&#45;&gt;Node1</title>
<g id="a_edge1_Node000001_Node000002"><a xlink:title=" ">
<path fill="none" stroke="#9a32cd" stroke-dasharray="5,2" d="M57.39,-56.88C66.1,-44.66 77.19,-29.11 84.03,-19.52"/>
<polygon fill="#9a32cd" stroke="#9a32cd" points="54.61,-54.75 51.65,-64.92 60.31,-58.81 54.61,-54.75"/>
</a>
</g>
<text text-anchor="middle" x="87.62" y="-39" font-family="Helvetica,sans-Serif" font-size="10.00" fill="grey"> buttons</text>
</g>
<!-- Node3 -->
<g id="Node000003" class="node">
<title>Node3</title>
<g id="a_Node000003"><a xlink:href="input_8h.html#structactuator__t" target="_top" xlink:title=" ">
<polygon fill="white" stroke="#bfbfbf" points="166.12,-85.75 106.62,-85.75 106.62,-66.5 166.12,-66.5 166.12,-85.75"/>
<text text-anchor="middle" x="136.38" y="-72.25" font-family="Helvetica,sans-Serif" font-size="10.00">actuator_t</text>
</a>
</g>
</g>
<!-- Node3&#45;&gt;Node1 -->
<g id="edge2_Node000001_Node000003" class="edge">
<title>Node3&#45;&gt;Node1</title>
<g id="a_edge2_Node000001_Node000003"><a xlink:title=" ">
<path fill="none" stroke="#9a32cd" stroke-dasharray="5,2" d="M123.36,-56.88C114.65,-44.66 103.56,-29.11 96.72,-19.52"/>
<polygon fill="#9a32cd" stroke="#9a32cd" points="120.44,-58.81 129.1,-64.92 126.14,-54.75 120.44,-58.81"/>
</a>
</g>
<text text-anchor="middle" x="134.12" y="-39" font-family="Helvetica,sans-Serif" font-size="10.00" fill="grey"> actuator</text>
</g>
</g>
</svg>
