<?xml version="1.0" encoding="UTF-8" standalone="no"?>
<!DOCTYPE svg PUBLIC "-//W3C//DTD SVG 1.1//EN"
 "http://www.w3.org/Graphics/SVG/1.1/DTD/svg11.dtd">
<!-- Generated by graphviz version 9.0.0 (20230911.1827)
 -->
<!-- Title: pfs_file_slot_t Pages: 1 -->
<svg width="391pt" height="319pt"
 viewBox="0.00 0.00 391.00 319.00" xmlns="http://www.w3.org/2000/svg" xmlns:xlink="http://www.w3.org/1999/xlink">

<svg id="main" version="1.1" xmlns="http://www.w3.org/2000/svg" xmlns:xlink="http://www.w3.org/1999/xlink" xml:space="preserve" onload="init(evt)">
<style type="text/css"><![CDATA[
.node, .edge {opacity: 0.7;}
.node.selected, .edge.selected {opacity: 1;}
.edge:hover path { stroke: red; }
.edge:hover polygon { stroke: red; fill: red; }
]]></style>
<script type="application/ecmascript" xlink:href="svg.min.js"/>
<svg id="graph" class="graph">
<g id="graph0" class="graph" transform="scale(1 1) rotate(0) translate(4 315)">
<title>pfs_file_slot_t</title>
<!-- Node1 -->
<g id="Node000001" class="node">
<title>Node1</title>
<g id="a_Node000001"><a xlink:title=" ">
<polygon fill="#999999" stroke="#666666" points="211.5,-19.25 135.5,-19.25 135.5,0 211.5,0 211.5,-19.25"/>
<text text-anchor="middle" x="173.5" y="-5.75" font-family="Helvetica,sans-Serif" font-size="10.00">pfs_file_slot_t</text>
</a>
</g>
</g>
<!-- Node2 -->
<g id="Node000002" class="node">
<title>Node2</title>
<g id="a_Node000002"><a xlink:href="ioman_x_8h.html#struct__ioman_x__iop__file" target="_top" xlink:title=" ">
<polygon fill="white" stroke="#666666" points="108.25,-85.75 18.75,-85.75 18.75,-66.5 108.25,-66.5 108.25,-85.75"/>
<text text-anchor="middle" x="63.5" y="-72.25" font-family="Helvetica,sans-Serif" font-size="10.00">_iomanX_iop_file</text>
</a>
</g>
</g>
<!-- Node2&#45;&gt;Node1 -->
<g id="edge1_Node000001_Node000002" class="edge">
<title>Node2&#45;&gt;Node1</title>
<g id="a_edge1_Node000001_Node000002"><a xlink:title=" ">
<path fill="none" stroke="#9a32cd" stroke-dasharray="5,2" d="M84.89,-59.83C95.29,-52.65 108.08,-44.17 120,-37.25 130.95,-30.89 143.61,-24.55 153.87,-19.65"/>
<polygon fill="#9a32cd" stroke="#9a32cd" points="83.19,-56.75 77.01,-65.36 87.21,-62.49 83.19,-56.75"/>
</a>
</g>
<text text-anchor="middle" x="125.75" y="-39" font-family="Helvetica,sans-Serif" font-size="10.00" fill="grey"> fd</text>
</g>
<!-- Node3 -->
<g id="Node000003" class="node">
<title>Node3</title>
<g id="a_Node000003"><a xlink:href="ioman_x_8h.html#struct__ioman_x__iop__device" target="_top" xlink:title=" ">
<polygon fill="white" stroke="#bfbfbf" points="116.5,-153.88 10.5,-153.88 10.5,-134.62 116.5,-134.62 116.5,-153.88"/>
<text text-anchor="middle" x="63.5" y="-140.38" font-family="Helvetica,sans-Serif" font-size="10.00">_iomanX_iop_device</text>
</a>
</g>
</g>
<!-- Node3&#45;&gt;Node2 -->
<g id="edge2_Node000002_Node000003" class="edge">
<title>Node3&#45;&gt;Node2</title>
<g id="a_edge2_Node000002_Node000003"><a xlink:title=" ">
<path fill="none" stroke="#9a32cd" stroke-dasharray="5,2" d="M63.5,-123.18C63.5,-110.73 63.5,-95.36 63.5,-85.9"/>
<polygon fill="#9a32cd" stroke="#9a32cd" points="60,-122.82 63.5,-132.82 67,-122.82 60,-122.82"/>
</a>
</g>
<text text-anchor="middle" x="78.88" y="-105.5" font-family="Helvetica,sans-Serif" font-size="10.00" fill="grey"> device</text>
</g>
<!-- Node4 -->
<g id="Node000004" class="node">
<title>Node4</title>
<g id="a_Node000004"><a xlink:href="struct__ioman_x__iop__device__ops.html" target="_top" xlink:title=" ">
<polygon fill="white" stroke="#bfbfbf" points="127,-222 0,-222 0,-202.75 127,-202.75 127,-222"/>
<text text-anchor="middle" x="63.5" y="-208.5" font-family="Helvetica,sans-Serif" font-size="10.00">_iomanX_iop_device_ops</text>
</a>
</g>
</g>
<!-- Node4&#45;&gt;Node3 -->
<g id="edge3_Node000003_Node000004" class="edge">
<title>Node4&#45;&gt;Node3</title>
<g id="a_edge3_Node000003_Node000004"><a xlink:title=" ">
<path fill="none" stroke="#9a32cd" stroke-dasharray="5,2" d="M63.5,-191.31C63.5,-178.86 63.5,-163.49 63.5,-154.03"/>
<polygon fill="#9a32cd" stroke="#9a32cd" points="60,-190.94 63.5,-200.94 67,-190.94 60,-190.94"/>
</a>
</g>
<text text-anchor="middle" x="72.5" y="-175.25" font-family="Helvetica,sans-Serif" font-size="10.00" fill="grey"> ops</text>
</g>
<!-- Node5 -->
<g id="Node000005" class="node">
<title>Node5</title>
<g id="a_Node000005"><a xlink:href="structpfs__cache__s.html" target="_top" xlink:title=" ">
<polygon fill="white" stroke="#bfbfbf" points="239.25,-153.88 167.75,-153.88 167.75,-134.62 239.25,-134.62 239.25,-153.88"/>
<text text-anchor="middle" x="203.5" y="-140.38" font-family="Helvetica,sans-Serif" font-size="10.00">pfs_cache_s</text>
</a>
</g>
</g>
<!-- Node5&#45;&gt;Node1 -->
<g id="edge4_Node000001_Node000005" class="edge">
<title>Node5&#45;&gt;Node1</title>
<g id="a_edge4_Node000001_Node000005"><a xlink:title=" ">
<path fill="none" stroke="#9a32cd" stroke-dasharray="5,2" d="M183.51,-126.7C172.51,-116.25 159.93,-101.73 154,-85.75 145.37,-62.51 159.22,-33.87 167.69,-19.59"/>
<polygon fill="#9a32cd" stroke="#9a32cd" points="180.92,-129.08 190.7,-133.15 185.59,-123.86 180.92,-129.08"/>
</a>
</g>
<text text-anchor="middle" x="165.75" y="-72.25" font-family="Helvetica,sans-Serif" font-size="10.00" fill="grey"> clink</text>
</g>
<!-- Node5&#45;&gt;Node5 -->
<g id="edge5_Node000005_Node000005" class="edge">
<title>Node5&#45;&gt;Node5</title>
<g id="a_edge5_Node000005_Node000005"><a xlink:title=" ">
<path fill="none" stroke="#9a32cd" stroke-dasharray="5,2" d="M250.96,-149.27C254.84,-148.19 257.25,-146.51 257.25,-144.25 257.25,-140.23 249.64,-138.06 239.67,-137.75"/>
<polygon fill="#9a32cd" stroke="#9a32cd" points="250.64,-145.79 241.17,-150.55 251.54,-152.73 250.64,-145.79"/>
</a>
</g>
<text text-anchor="middle" x="267.38" y="-146" font-family="Helvetica,sans-Serif" font-size="10.00" fill="grey"> next</text>
<text text-anchor="middle" x="267.38" y="-134.75" font-family="Helvetica,sans-Serif" font-size="10.00" fill="grey">prev</text>
</g>
<!-- Node9 -->
<g id="Node000009" class="node">
<title>Node9</title>
<g id="a_Node000009"><a xlink:href="structpfs__blockpos__t.html" target="_top" xlink:title=" ">
<polygon fill="white" stroke="#bfbfbf" points="267.5,-85.75 185.5,-85.75 185.5,-66.5 267.5,-66.5 267.5,-85.75"/>
<text text-anchor="middle" x="226.5" y="-72.25" font-family="Helvetica,sans-Serif" font-size="10.00">pfs_blockpos_t</text>
</a>
</g>
</g>
<!-- Node5&#45;&gt;Node9 -->
<g id="edge10_Node000009_Node000005" class="edge">
<title>Node5&#45;&gt;Node9</title>
<g id="a_edge10_Node000009_Node000005"><a xlink:title=" ">
<path fill="none" stroke="#9a32cd" stroke-dasharray="5,2" d="M210.34,-123.57C214.7,-111.06 220.12,-95.46 223.45,-85.9"/>
<polygon fill="#9a32cd" stroke="#9a32cd" points="207.08,-122.31 207.1,-132.9 213.69,-124.61 207.08,-122.31"/>
</a>
</g>
<text text-anchor="middle" x="229.25" y="-105.5" font-family="Helvetica,sans-Serif" font-size="10.00" fill="grey"> inode</text>
</g>
<!-- Node6 -->
<g id="Node000006" class="node">
<title>Node6</title>
<g id="a_Node000006"><a xlink:href="structpfs__mount__t.html" target="_top" xlink:title=" ">
<polygon fill="white" stroke="#bfbfbf" points="238.5,-222 168.5,-222 168.5,-202.75 238.5,-202.75 238.5,-222"/>
<text text-anchor="middle" x="203.5" y="-208.5" font-family="Helvetica,sans-Serif" font-size="10.00">pfs_mount_t</text>
</a>
</g>
</g>
<!-- Node6&#45;&gt;Node5 -->
<g id="edge6_Node000005_Node000006" class="edge">
<title>Node6&#45;&gt;Node5</title>
<g id="a_edge6_Node000005_Node000006"><a xlink:title=" ">
<path fill="none" stroke="#9a32cd" stroke-dasharray="5,2" d="M203.5,-191.31C203.5,-178.86 203.5,-163.49 203.5,-154.03"/>
<polygon fill="#9a32cd" stroke="#9a32cd" points="200,-190.94 203.5,-200.94 207,-190.94 200,-190.94"/>
</a>
</g>
<text text-anchor="middle" x="224.88" y="-175.25" font-family="Helvetica,sans-Serif" font-size="10.00" fill="grey"> pfsMount</text>
</g>
<!-- Node7 -->
<g id="Node000007" class="node">
<title>Node7</title>
<g id="a_Node000007"><a xlink:href="structpfs__block__device__t.html" target="_top" xlink:title=" ">
<polygon fill="white" stroke="#bfbfbf" points="198.5,-311 98.5,-311 98.5,-291.75 198.5,-291.75 198.5,-311"/>
<text text-anchor="middle" x="148.5" y="-297.5" font-family="Helvetica,sans-Serif" font-size="10.00">pfs_block_device_t</text>
</a>
</g>
</g>
<!-- Node7&#45;&gt;Node6 -->
<g id="edge7_Node000006_Node000007" class="edge">
<title>Node7&#45;&gt;Node6</title>
<g id="a_edge7_Node000006_Node000007"><a xlink:title=" ">
<path fill="none" stroke="#9a32cd" stroke-dasharray="5,2" d="M154.27,-280.62C158.47,-268.25 164.96,-252.36 173.75,-240 178.49,-233.34 185.18,-227.16 191.02,-222.43"/>
<polygon fill="#9a32cd" stroke="#9a32cd" points="150.94,-279.53 151.29,-290.12 157.62,-281.63 150.94,-279.53"/>
</a>
</g>
<text text-anchor="middle" x="195.88" y="-253" font-family="Helvetica,sans-Serif" font-size="10.00" fill="grey"> blockDev</text>
</g>
<!-- Node8 -->
<g id="Node000008" class="node">
<title>Node8</title>
<g id="a_Node000008"><a xlink:href="structpfs__blockinfo__t.html" target="_top" xlink:title=" ">
<polygon fill="white" stroke="#bfbfbf" points="298.5,-311 216.5,-311 216.5,-291.75 298.5,-291.75 298.5,-311"/>
<text text-anchor="middle" x="257.5" y="-297.5" font-family="Helvetica,sans-Serif" font-size="10.00">pfs_blockinfo_t</text>
</a>
</g>
</g>
<!-- Node8&#45;&gt;Node6 -->
<g id="edge8_Node000006_Node000008" class="edge">
<title>Node8&#45;&gt;Node6</title>
<g id="a_edge8_Node000006_Node000008"><a xlink:title=" ">
<path fill="none" stroke="#9a32cd" stroke-dasharray="5,2" d="M245.99,-281.83C234.65,-263.56 217.81,-236.43 209.13,-222.44"/>
<polygon fill="#9a32cd" stroke="#9a32cd" points="242.88,-283.46 251.13,-290.11 248.83,-279.76 242.88,-283.46"/>
</a>
</g>
<text text-anchor="middle" x="263.5" y="-264.25" font-family="Helvetica,sans-Serif" font-size="10.00" fill="grey"> current_dir</text>
<text text-anchor="middle" x="263.5" y="-253" font-family="Helvetica,sans-Serif" font-size="10.00" fill="grey">log</text>
<text text-anchor="middle" x="263.5" y="-241.75" font-family="Helvetica,sans-Serif" font-size="10.00" fill="grey">root_dir</text>
</g>
<!-- Node9&#45;&gt;Node1 -->
<g id="edge9_Node000001_Node000009" class="edge">
<title>Node9&#45;&gt;Node1</title>
<g id="a_edge9_Node000001_Node000009"><a xlink:title=" ">
<path fill="none" stroke="#9a32cd" stroke-dasharray="5,2" d="M212.11,-57.61C201.98,-45.28 188.85,-29.31 180.81,-19.52"/>
<polygon fill="#9a32cd" stroke="#9a32cd" points="209.12,-59.48 218.17,-64.99 214.53,-55.04 209.12,-59.48"/>
</a>
</g>
<text text-anchor="middle" x="226.75" y="-39" font-family="Helvetica,sans-Serif" font-size="10.00" fill="grey"> block_pos</text>
</g>
<!-- Node10 -->
<g id="Node000010" class="node">
<title>Node10</title>
<g id="a_Node000010"><a xlink:href="structpfs__unaligned__io__t.html" target="_top" xlink:title=" ">
<polygon fill="white" stroke="#bfbfbf" points="383,-85.75 286,-85.75 286,-66.5 383,-66.5 383,-85.75"/>
<text text-anchor="middle" x="334.5" y="-72.25" font-family="Helvetica,sans-Serif" font-size="10.00">pfs_unaligned_io_t</text>
</a>
</g>
</g>
<!-- Node10&#45;&gt;Node1 -->
<g id="edge11_Node000001_Node000010" class="edge">
<title>Node10&#45;&gt;Node1</title>
<g id="a_edge11_Node000001_Node000010"><a xlink:title=" ">
<path fill="none" stroke="#9a32cd" stroke-dasharray="5,2" d="M306.71,-60.92C291.49,-53.41 272.19,-44.31 254.5,-37.25 238.14,-30.72 219.49,-24.51 204.21,-19.73"/>
<polygon fill="#9a32cd" stroke="#9a32cd" points="305.12,-64.04 315.63,-65.38 308.25,-57.78 305.12,-64.04"/>
</a>
</g>
<text text-anchor="middle" x="300.25" y="-39" font-family="Helvetica,sans-Serif" font-size="10.00" fill="grey"> unaligned</text>
</g>
</g>
</svg>
</svg>

<style type='text/css'>
<![CDATA[
[data-mouse-over-selected='false'] { opacity: 0.7; }
[data-mouse-over-selected='true']  { opacity: 1.0; }
]]>
</style>
<script type="application/ecmascript"><![CDATA[
document.addEventListener('DOMContentLoaded', (event) => {
  highlightEdges();
  highlightAdjacentNodes();
});
]]></script>
</svg>
