<?xml version="1.0" encoding="UTF-8" standalone="no"?>
<!DOCTYPE svg PUBLIC "-//W3C//DTD SVG 1.1//EN"
 "http://www.w3.org/Graphics/SVG/1.1/DTD/svg11.dtd">
<!-- Generated by graphviz version 2.43.0 (0)
 -->
<!-- Title: nameserver Pages: 1 -->
<svg width="295pt" height="97pt"
 viewBox="0.00 0.00 294.50 97.00" xmlns="http://www.w3.org/2000/svg" xmlns:xlink="http://www.w3.org/1999/xlink">
<g id="graph0" class="graph" transform="scale(1 1) rotate(0) translate(4 93)">
<title>nameserver</title>
<polygon fill="white" stroke="transparent" points="-4,4 -4,-93 290.5,-93 290.5,4 -4,4"/>
<!-- Node1 -->
<g id="node1" class="node">
<title>Node1</title>
<g id="a_node1"><a xlink:title=" ">
<polygon fill="#bfbfbf" stroke="black" points="47.5,-0.5 47.5,-19.5 122.5,-19.5 122.5,-0.5 47.5,-0.5"/>
<text text-anchor="middle" x="85" y="-7.5" font-family="Helvetica,sans-Serif" font-size="10.00">nameserver</text>
</a>
</g>
</g>
<!-- Node2 -->
<g id="node2" class="node">
<title>Node2</title>
<g id="a_node2"><a xlink:href="structsce_net_cnf_address.html" target="_top" xlink:title=" ">
<polygon fill="white" stroke="black" points="0,-68.5 0,-87.5 106,-87.5 106,-68.5 0,-68.5"/>
<text text-anchor="middle" x="53" y="-75.5" font-family="Helvetica,sans-Serif" font-size="10.00">sceNetCnfAddress</text>
</a>
</g>
</g>
<!-- Node2&#45;&gt;Node1 -->
<g id="edge1" class="edge">
<title>Node2&#45;&gt;Node1</title>
<path fill="none" stroke="#9a32cd" stroke-dasharray="5,2" d="M61.64,-59.19C67.81,-46.45 75.86,-29.86 80.71,-19.84"/>
<polygon fill="#9a32cd" stroke="#9a32cd" points="58.4,-57.85 57.18,-68.37 64.7,-60.9 58.4,-57.85"/>
<text text-anchor="middle" x="93" y="-41" font-family="Helvetica,sans-Serif" font-size="10.00"> address</text>
</g>
<!-- Node3 -->
<g id="node3" class="node">
<title>Node3</title>
<g id="a_node3"><a xlink:href="structsce_net_cnf_command.html" target="_top" xlink:title=" ">
<polygon fill="white" stroke="black" points="124.5,-68.5 124.5,-87.5 241.5,-87.5 241.5,-68.5 124.5,-68.5"/>
<text text-anchor="middle" x="183" y="-75.5" font-family="Helvetica,sans-Serif" font-size="10.00">sceNetCnfCommand</text>
</a>
</g>
</g>
<!-- Node3&#45;&gt;Node1 -->
<g id="edge2" class="edge">
<title>Node3&#45;&gt;Node1</title>
<path fill="none" stroke="#9a32cd" stroke-dasharray="5,2" d="M161.67,-62.63C142.19,-49.51 114.03,-30.55 97.81,-19.63"/>
<polygon fill="#9a32cd" stroke="#9a32cd" points="159.94,-65.69 170.19,-68.37 163.85,-59.88 159.94,-65.69"/>
<text text-anchor="middle" x="151.5" y="-41" font-family="Helvetica,sans-Serif" font-size="10.00"> cmd</text>
</g>
<!-- Node3&#45;&gt;Node3 -->
<g id="edge3" class="edge">
<title>Node3&#45;&gt;Node3</title>
<path fill="none" stroke="#9a32cd" stroke-dasharray="5,2" d="M251.94,-82.61C256.64,-81.55 259.5,-80.01 259.5,-78 259.5,-74.78 252.18,-72.78 241.7,-72"/>
<polygon fill="#9a32cd" stroke="#9a32cd" points="251.13,-79.19 241.7,-84 252.08,-86.12 251.13,-79.19"/>
<text text-anchor="middle" x="273" y="-81" font-family="Helvetica,sans-Serif" font-size="10.00"> back</text>
<text text-anchor="middle" x="273" y="-70" font-family="Helvetica,sans-Serif" font-size="10.00">forw</text>
</g>
</g>
</svg>
