<?xml version="1.0" encoding="UTF-8" standalone="no"?>
<!DOCTYPE svg PUBLIC "-//W3C//DTD SVG 1.1//EN"
 "http://www.w3.org/Graphics/SVG/1.1/DTD/svg11.dtd">
<!-- Generated by graphviz version 12.2.0 (20241103.1931)
 -->
<!-- Title: msif_msgbox_msg Pages: 1 -->
<svg width="406pt" height="452pt"
 viewBox="0.00 0.00 406.00 452.00" xmlns="http://www.w3.org/2000/svg" xmlns:xlink="http://www.w3.org/1999/xlink">
<g id="graph0" class="graph" transform="scale(1 1) rotate(0) translate(4 448)">
<title>msif_msgbox_msg</title>
<!-- Node1 -->
<g id="Node000001" class="node">
<title>Node1</title>
<g id="a_Node000001"><a xlink:title=" ">
<polygon fill="#999999" stroke="#666666" points="160.88,-19.25 63.12,-19.25 63.12,0 160.88,0 160.88,-19.25"/>
<text text-anchor="middle" x="112" y="-5.75" font-family="Helvetica,sans-Serif" font-size="10.00">msif_msgbox_msg</text>
</a>
</g>
</g>
<!-- Node2 -->
<g id="Node000002" class="node">
<title>Node2</title>
<g id="a_Node000002"><a xlink:href="structmsif__msgbox__msg2.html" target="_top" xlink:title=" ">
<polygon fill="white" stroke="#bfbfbf" points="163.5,-85.75 60.5,-85.75 60.5,-66.5 163.5,-66.5 163.5,-85.75"/>
<text text-anchor="middle" x="112" y="-72.25" font-family="Helvetica,sans-Serif" font-size="10.00">msif_msgbox_msg2</text>
</a>
</g>
</g>
<!-- Node2&#45;&gt;Node1 -->
<g id="edge1_Node000001_Node000002" class="edge">
<title>Node2&#45;&gt;Node1</title>
<g id="a_edge1_Node000001_Node000002"><a xlink:title=" ">
<path fill="none" stroke="#9a32cd" stroke-dasharray="5,2" d="M112,-54.65C112,-42.82 112,-28.54 112,-19.52"/>
<polygon fill="#9a32cd" stroke="#9a32cd" points="108.5,-54.64 112,-64.64 115.5,-54.64 108.5,-54.64"/>
</a>
</g>
<text text-anchor="middle" x="131.88" y="-39" font-family="Helvetica,sans-Serif" font-size="10.00" fill="grey"> m_msg2</text>
</g>
<!-- Node3 -->
<g id="Node000003" class="node">
<title>Node3</title>
<g id="a_Node000003"><a xlink:href="struct__sifm__client__data.html" target="_top" xlink:title=" ">
<polygon fill="white" stroke="#bfbfbf" points="154.25,-377.5 61.75,-377.5 61.75,-358.25 154.25,-358.25 154.25,-377.5"/>
<text text-anchor="middle" x="108" y="-364" font-family="Helvetica,sans-Serif" font-size="10.00">_sifm_client_data</text>
</a>
</g>
</g>
<!-- Node3&#45;&gt;Node2 -->
<g id="edge2_Node000002_Node000003" class="edge">
<title>Node3&#45;&gt;Node2</title>
<g id="a_edge2_Node000002_Node000003"><a xlink:title=" ">
<path fill="none" stroke="#9a32cd" stroke-dasharray="5,2" d="M51.98,-354.19C25.67,-344.59 0,-328.19 0,-300.75 0,-300.75 0,-300.75 0,-141.62 0,-111.11 31.61,-94.81 61.24,-86.24"/>
<polygon fill="#9a32cd" stroke="#9a32cd" points="50.79,-357.49 61.39,-357.31 53,-350.84 50.79,-357.49"/>
</a>
</g>
<text text-anchor="middle" x="27.75" y="-205.25" font-family="Helvetica,sans-Serif" font-size="10.00" fill="grey"> m_eebuf_cd</text>
</g>
<!-- Node5 -->
<g id="Node000005" class="node">
<title>Node5</title>
<g id="a_Node000005"><a xlink:href="struct__sifm__serve__data.html" target="_top" xlink:title=" ">
<polygon fill="white" stroke="#bfbfbf" points="203.62,-309.38 110.38,-309.38 110.38,-290.12 203.62,-290.12 203.62,-309.38"/>
<text text-anchor="middle" x="157" y="-295.88" font-family="Helvetica,sans-Serif" font-size="10.00">_sifm_serve_data</text>
</a>
</g>
</g>
<!-- Node3&#45;&gt;Node5 -->
<g id="edge5_Node000005_Node000003" class="edge">
<title>Node3&#45;&gt;Node5</title>
<g id="a_edge5_Node000005_Node000003"><a xlink:title=" ">
<path fill="none" stroke="#9a32cd" stroke-dasharray="5,2" d="M102.47,-346.94C101.84,-340.83 102.35,-334.32 105.5,-329 110.64,-320.31 119.51,-314.12 128.45,-309.79"/>
<polygon fill="#9a32cd" stroke="#9a32cd" points="98.95,-347.2 104.36,-356.3 105.81,-345.81 98.95,-347.2"/>
</a>
</g>
<text text-anchor="middle" x="118.25" y="-330.75" font-family="Helvetica,sans-Serif" font-size="10.00" fill="grey"> client</text>
</g>
<!-- Node4 -->
<g id="Node000004" class="node">
<title>Node4</title>
<g id="a_Node000004"><a xlink:href="struct__sifm__rpc__data.html" target="_top" xlink:title=" ">
<polygon fill="white" stroke="#bfbfbf" points="149.38,-444 66.62,-444 66.62,-424.75 149.38,-424.75 149.38,-444"/>
<text text-anchor="middle" x="108" y="-430.5" font-family="Helvetica,sans-Serif" font-size="10.00">_sifm_rpc_data</text>
</a>
</g>
</g>
<!-- Node4&#45;&gt;Node3 -->
<g id="edge3_Node000003_Node000004" class="edge">
<title>Node4&#45;&gt;Node3</title>
<g id="a_edge3_Node000003_Node000004"><a xlink:title=" ">
<path fill="none" stroke="#9a32cd" stroke-dasharray="5,2" d="M108,-412.9C108,-401.07 108,-386.79 108,-377.77"/>
<polygon fill="#9a32cd" stroke="#9a32cd" points="104.5,-412.89 108,-422.89 111.5,-412.89 104.5,-412.89"/>
</a>
</g>
<text text-anchor="middle" x="118.5" y="-397.25" font-family="Helvetica,sans-Serif" font-size="10.00" fill="grey"> rpcd</text>
</g>
<!-- Node5&#45;&gt;Node2 -->
<g id="edge17_Node000002_Node000005" class="edge">
<title>Node5&#45;&gt;Node2</title>
<g id="a_edge17_Node000002_Node000005"><a xlink:title=" ">
<path fill="none" stroke="#9a32cd" stroke-dasharray="5,2" d="M137.1,-282.08C133.47,-278.49 129.92,-274.55 127,-270.5 112.17,-249.94 108.46,-243.51 103,-218.75 92.17,-169.67 104.32,-108.88 109.7,-86.21"/>
<polygon fill="#9a32cd" stroke="#9a32cd" points="134.58,-284.51 144.32,-288.68 139.31,-279.35 134.58,-284.51"/>
</a>
</g>
<text text-anchor="middle" x="111.84" y="-172" font-family="Helvetica,sans-Serif" font-size="10.00" fill="grey"> m_sd</text>
</g>
<!-- Node5&#45;&gt;Node3 -->
<g id="edge4_Node000003_Node000005" class="edge">
<title>Node5&#45;&gt;Node3</title>
<g id="a_edge4_Node000003_Node000005"><a xlink:title=" ">
<path fill="none" stroke="#9a32cd" stroke-dasharray="5,2" d="M148,-319.44C144.36,-326.26 139.87,-333.85 135,-340.25 130.14,-346.64 123.78,-352.99 118.45,-357.88"/>
<polygon fill="#9a32cd" stroke="#9a32cd" points="150.87,-321.51 152.26,-311.01 144.62,-318.35 150.87,-321.51"/>
</a>
</g>
<text text-anchor="middle" x="155.08" y="-330.75" font-family="Helvetica,sans-Serif" font-size="10.00" fill="grey"> serve</text>
</g>
<!-- Node5&#45;&gt;Node5 -->
<g id="edge6_Node000005_Node000005" class="edge">
<title>Node5&#45;&gt;Node5</title>
<g id="a_edge6_Node000005_Node000005"><a xlink:title=" ">
<path fill="none" stroke="#9a32cd" stroke-dasharray="5,2" d="M215.43,-304.42C219.29,-303.34 221.62,-301.78 221.62,-299.75 221.62,-296.14 214.24,-294.02 204.05,-293.4"/>
<polygon fill="#9a32cd" stroke="#9a32cd" points="214.94,-300.96 205.55,-305.88 215.95,-307.88 214.94,-300.96"/>
</a>
</g>
<text text-anchor="middle" x="230.62" y="-301.5" font-family="Helvetica,sans-Serif" font-size="10.00" fill="grey"> link</text>
<text text-anchor="middle" x="230.62" y="-290.25" font-family="Helvetica,sans-Serif" font-size="10.00" fill="grey">next</text>
</g>
<!-- Node6 -->
<g id="Node000006" class="node">
<title>Node6</title>
<g id="a_Node000006"><a xlink:href="struct__sifm__queue__data.html" target="_top" xlink:title=" ">
<polygon fill="white" stroke="#bfbfbf" points="207.75,-218.75 112.25,-218.75 112.25,-199.5 207.75,-199.5 207.75,-218.75"/>
<text text-anchor="middle" x="160" y="-205.25" font-family="Helvetica,sans-Serif" font-size="10.00">_sifm_queue_data</text>
</a>
</g>
</g>
<!-- Node5&#45;&gt;Node6 -->
<g id="edge8_Node000006_Node000005" class="edge">
<title>Node5&#45;&gt;Node6</title>
<g id="a_edge8_Node000006_Node000005"><a xlink:title=" ">
<path fill="none" stroke="#9a32cd" stroke-dasharray="5,2" d="M140.03,-280.99C137.76,-277.72 135.78,-274.17 134.5,-270.5 129.55,-256.34 128.91,-250.67 134.5,-236.75 137.27,-229.86 142.76,-223.75 147.94,-219.12"/>
<polygon fill="#9a32cd" stroke="#9a32cd" points="137.26,-283.13 146.31,-288.65 142.67,-278.7 137.26,-283.13"/>
</a>
</g>
<text text-anchor="middle" x="144.25" y="-261" font-family="Helvetica,sans-Serif" font-size="10.00" fill="grey"> end</text>
<text text-anchor="middle" x="144.25" y="-249.75" font-family="Helvetica,sans-Serif" font-size="10.00" fill="grey">link</text>
<text text-anchor="middle" x="144.25" y="-238.5" font-family="Helvetica,sans-Serif" font-size="10.00" fill="grey">start</text>
</g>
<!-- Node7 -->
<g id="Node000007" class="node">
<title>Node7</title>
<g id="a_Node000007"><a xlink:href="struct__sifm__serve__entry.html" target="_top" xlink:title=" ">
<polygon fill="white" stroke="#bfbfbf" points="359.75,-218.75 264.25,-218.75 264.25,-199.5 359.75,-199.5 359.75,-218.75"/>
<text text-anchor="middle" x="312" y="-205.25" font-family="Helvetica,sans-Serif" font-size="10.00">_sifm_serve_entry</text>
</a>
</g>
</g>
<!-- Node5&#45;&gt;Node7 -->
<g id="edge11_Node000007_Node000005" class="edge">
<title>Node5&#45;&gt;Node7</title>
<g id="a_edge11_Node000007_Node000005"><a xlink:title=" ">
<path fill="none" stroke="#9a32cd" stroke-dasharray="5,2" d="M174.06,-282.28C189.04,-268.55 211.95,-249.28 234.75,-236.75 248.18,-229.37 264.02,-223.48 277.86,-219.13"/>
<polygon fill="#9a32cd" stroke="#9a32cd" points="171.83,-279.57 166.94,-288.96 176.62,-284.67 171.83,-279.57"/>
</a>
</g>
<text text-anchor="middle" x="256.88" y="-249.75" font-family="Helvetica,sans-Serif" font-size="10.00" fill="grey"> serve_list</text>
</g>
<!-- Node6&#45;&gt;Node5 -->
<g id="edge7_Node000005_Node000006" class="edge">
<title>Node6&#45;&gt;Node5</title>
<g id="a_edge7_Node000005_Node000006"><a xlink:title=" ">
<path fill="none" stroke="#9a32cd" stroke-dasharray="5,2" d="M159.31,-230.6C158.67,-249.34 157.76,-276.2 157.3,-289.93"/>
<polygon fill="#9a32cd" stroke="#9a32cd" points="162.8,-230.8 159.64,-220.69 155.81,-230.56 162.8,-230.8"/>
</a>
</g>
<text text-anchor="middle" x="170.65" y="-249.75" font-family="Helvetica,sans-Serif" font-size="10.00" fill="grey"> base</text>
</g>
<!-- Node6&#45;&gt;Node6 -->
<g id="edge9_Node000006_Node000006" class="edge">
<title>Node6&#45;&gt;Node6</title>
<g id="a_edge9_Node000006_Node000006"><a xlink:title=" ">
<path fill="none" stroke="#9a32cd" stroke-dasharray="5,2" d="M219.56,-213.55C223.42,-212.52 225.75,-211.04 225.75,-209.12 225.75,-205.72 218.38,-203.7 208.16,-203.09"/>
<polygon fill="#9a32cd" stroke="#9a32cd" points="219.08,-210.08 209.66,-214.95 220.05,-217.02 219.08,-210.08"/>
</a>
</g>
<text text-anchor="middle" x="235.88" y="-205.25" font-family="Helvetica,sans-Serif" font-size="10.00" fill="grey"> next</text>
</g>
<!-- Node8 -->
<g id="Node000008" class="node">
<title>Node8</title>
<g id="a_Node000008"><a xlink:href="structmsif__data.html" target="_top" xlink:title=" ">
<polygon fill="white" stroke="#bfbfbf" points="170.38,-152.25 111.62,-152.25 111.62,-133 170.38,-133 170.38,-152.25"/>
<text text-anchor="middle" x="141" y="-138.75" font-family="Helvetica,sans-Serif" font-size="10.00">msif_data</text>
</a>
</g>
</g>
<!-- Node6&#45;&gt;Node8 -->
<g id="edge14_Node000008_Node000006" class="edge">
<title>Node6&#45;&gt;Node8</title>
<g id="a_edge14_Node000008_Node000006"><a xlink:title=" ">
<path fill="none" stroke="#9a32cd" stroke-dasharray="5,2" d="M143.19,-190.55C141.28,-187.7 139.61,-184.65 138.5,-181.5 135.16,-172.06 136.67,-160.47 138.45,-152.62"/>
<polygon fill="#9a32cd" stroke="#9a32cd" points="140.28,-192.52 149.3,-198.08 145.72,-188.11 140.28,-192.52"/>
</a>
</g>
<text text-anchor="middle" x="175.25" y="-172" font-family="Helvetica,sans-Serif" font-size="10.00" fill="grey"> m_active_queue</text>
</g>
<!-- Node7&#45;&gt;Node2 -->
<g id="edge16_Node000002_Node000007" class="edge">
<title>Node7&#45;&gt;Node2</title>
<g id="a_edge16_Node000002_Node000007"><a xlink:title=" ">
<path fill="none" stroke="#9a32cd" stroke-dasharray="5,2" d="M320.79,-188.24C322.19,-182.13 322.26,-175.61 319,-170.25 286.27,-116.36 213.59,-93.46 163.69,-83.86"/>
<polygon fill="#9a32cd" stroke="#9a32cd" points="317.5,-187.05 317.49,-197.64 324.11,-189.36 317.5,-187.05"/>
</a>
</g>
<text text-anchor="middle" x="342.17" y="-138.75" font-family="Helvetica,sans-Serif" font-size="10.00" fill="grey"> m_mserve_entry</text>
</g>
<!-- Node7&#45;&gt;Node5 -->
<g id="edge10_Node000005_Node000007" class="edge">
<title>Node7&#45;&gt;Node5</title>
<g id="a_edge10_Node000005_Node000007"><a xlink:title=" ">
<path fill="none" stroke="#9a32cd" stroke-dasharray="5,2" d="M307.32,-230.03C303.15,-243.42 295.68,-260.42 283,-270.5 260.8,-288.15 229.78,-295.25 204.07,-297.93"/>
<polygon fill="#9a32cd" stroke="#9a32cd" points="310.67,-231.07 309.89,-220.5 303.91,-229.25 310.67,-231.07"/>
</a>
</g>
<text text-anchor="middle" x="318.8" y="-249.75" font-family="Helvetica,sans-Serif" font-size="10.00" fill="grey"> sentry</text>
</g>
<!-- Node7&#45;&gt;Node7 -->
<g id="edge12_Node000007_Node000007" class="edge">
<title>Node7&#45;&gt;Node7</title>
<g id="a_edge12_Node000007_Node000007"><a xlink:title=" ">
<path fill="none" stroke="#9a32cd" stroke-dasharray="5,2" d="M371.56,-213.55C375.42,-212.52 377.75,-211.04 377.75,-209.12 377.75,-205.72 370.38,-203.7 360.16,-203.09"/>
<polygon fill="#9a32cd" stroke="#9a32cd" points="371.08,-210.08 361.66,-214.95 372.05,-217.02 371.08,-210.08"/>
</a>
</g>
<text text-anchor="middle" x="387.88" y="-205.25" font-family="Helvetica,sans-Serif" font-size="10.00" fill="grey"> next</text>
</g>
<!-- Node7&#45;&gt;Node8 -->
<g id="edge15_Node000008_Node000007" class="edge">
<title>Node7&#45;&gt;Node8</title>
<g id="a_edge15_Node000008_Node000007"><a xlink:title=" ">
<path fill="none" stroke="#9a32cd" stroke-dasharray="5,2" d="M272.43,-195.48C260.3,-191.32 247,-186.49 235,-181.5 224.49,-177.13 222.45,-174.75 212,-170.25 197.25,-163.89 180.43,-157.55 166.87,-152.65"/>
<polygon fill="#9a32cd" stroke="#9a32cd" points="271.14,-198.73 281.73,-198.6 273.37,-192.1 271.14,-198.73"/>
</a>
</g>
<text text-anchor="middle" x="277" y="-172" font-family="Helvetica,sans-Serif" font-size="10.00" fill="grey"> g_mserv_entries_ll</text>
</g>
<!-- Node8&#45;&gt;Node2 -->
<g id="edge13_Node000002_Node000008" class="edge">
<title>Node8&#45;&gt;Node2</title>
<g id="a_edge13_Node000002_Node000008"><a xlink:title=" ">
<path fill="none" stroke="#9a32cd" stroke-dasharray="5,2" d="M132.3,-122.27C126.89,-110.23 120.18,-95.33 116,-86.02"/>
<polygon fill="#9a32cd" stroke="#9a32cd" points="129.05,-123.59 136.35,-131.28 135.44,-120.72 129.05,-123.59"/>
</a>
</g>
<text text-anchor="middle" x="157.49" y="-105.5" font-family="Helvetica,sans-Serif" font-size="10.00" fill="grey"> m_msif_data</text>
</g>
</g>
</svg>
