<?xml version="1.0" encoding="UTF-8" standalone="no"?>
<!DOCTYPE svg PUBLIC "-//W3C//DTD SVG 1.1//EN"
 "http://www.w3.org/Graphics/SVG/1.1/DTD/svg11.dtd">
<!-- Generated by graphviz version 2.43.0 (0)
 -->
<!-- Title: fpool Pages: 1 -->
<svg width="318pt" height="164pt"
 viewBox="0.00 0.00 318.00 164.00" xmlns="http://www.w3.org/2000/svg" xmlns:xlink="http://www.w3.org/1999/xlink">
<g id="graph0" class="graph" transform="scale(1 1) rotate(0) translate(4 160)">
<title>fpool</title>
<polygon fill="white" stroke="transparent" points="-4,4 -4,-160 314,-160 314,4 -4,4"/>
<!-- Node1 -->
<g id="node1" class="node">
<title>Node1</title>
<g id="a_node1"><a xlink:title=" ">
<polygon fill="#bfbfbf" stroke="black" points="112,-0.5 112,-19.5 153,-19.5 153,-0.5 112,-0.5"/>
<text text-anchor="middle" x="132.5" y="-7.5" font-family="Helvetica,sans-Serif" font-size="10.00">fpool</text>
</a>
</g>
</g>
<!-- Node2 -->
<g id="node2" class="node">
<title>Node2</title>
<g id="a_node2"><a xlink:href="structlist__head.html" target="_top" xlink:title=" ">
<polygon fill="white" stroke="black" points="0,-135.5 0,-154.5 61,-154.5 61,-135.5 0,-135.5"/>
<text text-anchor="middle" x="30.5" y="-142.5" font-family="Helvetica,sans-Serif" font-size="10.00">list_head</text>
</a>
</g>
</g>
<!-- Node2&#45;&gt;Node1 -->
<g id="edge1" class="edge">
<title>Node2&#45;&gt;Node1</title>
<path fill="none" stroke="#9a32cd" stroke-dasharray="5,2" d="M22.95,-125.54C17.46,-108.99 12.71,-84.67 23.5,-67 42.68,-35.59 85.71,-21.06 111.6,-14.94"/>
<polygon fill="#9a32cd" stroke="#9a32cd" points="19.75,-126.98 26.5,-135.15 26.31,-124.55 19.75,-126.98"/>
<text text-anchor="middle" x="42" y="-74.5" font-family="Helvetica,sans-Serif" font-size="10.00"> fpl_list</text>
</g>
<!-- Node2&#45;&gt;Node2 -->
<g id="edge2" class="edge">
<title>Node2&#45;&gt;Node2</title>
<path fill="none" stroke="#9a32cd" stroke-dasharray="5,2" d="M71.58,-150.35C76.09,-149.33 79,-147.55 79,-145 79,-140.82 71.17,-138.69 61.28,-138.63"/>
<polygon fill="#9a32cd" stroke="#9a32cd" points="70.89,-146.91 61.28,-151.37 71.58,-153.87 70.89,-146.91"/>
<text text-anchor="middle" x="91.5" y="-148" font-family="Helvetica,sans-Serif" font-size="10.00"> prev</text>
<text text-anchor="middle" x="91.5" y="-137" font-family="Helvetica,sans-Serif" font-size="10.00">next</text>
</g>
<!-- Node4 -->
<g id="node4" class="node">
<title>Node4</title>
<g id="a_node4"><a xlink:href="structevent.html" target="_top" xlink:title=" ">
<polygon fill="white" stroke="black" points="69.5,-67.5 69.5,-86.5 113.5,-86.5 113.5,-67.5 69.5,-67.5"/>
<text text-anchor="middle" x="91.5" y="-74.5" font-family="Helvetica,sans-Serif" font-size="10.00">event</text>
</a>
</g>
</g>
<!-- Node2&#45;&gt;Node4 -->
<g id="edge5" class="edge">
<title>Node2&#45;&gt;Node4</title>
<path fill="none" stroke="#9a32cd" stroke-dasharray="5,2" d="M45.58,-127.68C57.51,-114.78 73.7,-97.26 83.33,-86.84"/>
<polygon fill="#9a32cd" stroke="#9a32cd" points="42.69,-125.65 38.47,-135.37 47.83,-130.4 42.69,-125.65"/>
<text text-anchor="middle" x="86.5" y="-108" font-family="Helvetica,sans-Serif" font-size="10.00"> waiters</text>
</g>
<!-- Node3 -->
<g id="node3" class="node">
<title>Node3</title>
<g id="a_node3"><a xlink:href="structheaptag.html" target="_top" xlink:title=" ">
<polygon fill="white" stroke="black" points="131.5,-67.5 131.5,-86.5 187.5,-86.5 187.5,-67.5 131.5,-67.5"/>
<text text-anchor="middle" x="159.5" y="-74.5" font-family="Helvetica,sans-Serif" font-size="10.00">heaptag</text>
</a>
</g>
</g>
<!-- Node3&#45;&gt;Node1 -->
<g id="edge3" class="edge">
<title>Node3&#45;&gt;Node1</title>
<path fill="none" stroke="#9a32cd" stroke-dasharray="5,2" d="M151.94,-57.79C146.75,-45.31 140.11,-29.31 136.08,-19.63"/>
<polygon fill="#9a32cd" stroke="#9a32cd" points="148.79,-59.34 155.86,-67.23 155.25,-56.66 148.79,-59.34"/>
<text text-anchor="middle" x="157" y="-41" font-family="Helvetica,sans-Serif" font-size="10.00"> tag</text>
</g>
<!-- Node4&#45;&gt;Node1 -->
<g id="edge4" class="edge">
<title>Node4&#45;&gt;Node1</title>
<path fill="none" stroke="#9a32cd" stroke-dasharray="5,2" d="M98.18,-58.08C100.96,-51.54 104.48,-44.21 108.5,-38 112.72,-31.47 118.48,-24.93 123.3,-19.92"/>
<polygon fill="#9a32cd" stroke="#9a32cd" points="94.89,-56.88 94.45,-67.47 101.4,-59.47 94.89,-56.88"/>
<text text-anchor="middle" x="124" y="-41" font-family="Helvetica,sans-Serif" font-size="10.00"> event</text>
</g>
<!-- Node5 -->
<g id="node5" class="node">
<title>Node5</title>
<g id="a_node5"><a xlink:href="structfpl__block.html" target="_top" xlink:title=" ">
<polygon fill="white" stroke="black" points="206,-67.5 206,-86.5 267,-86.5 267,-67.5 206,-67.5"/>
<text text-anchor="middle" x="236.5" y="-74.5" font-family="Helvetica,sans-Serif" font-size="10.00">fpl_block</text>
</a>
</g>
</g>
<!-- Node5&#45;&gt;Node1 -->
<g id="edge6" class="edge">
<title>Node5&#45;&gt;Node1</title>
<path fill="none" stroke="#9a32cd" stroke-dasharray="5,2" d="M213.73,-61.77C193.14,-48.9 163.51,-30.38 146.3,-19.63"/>
<polygon fill="#9a32cd" stroke="#9a32cd" points="212.14,-64.9 222.47,-67.23 215.85,-58.97 212.14,-64.9"/>
<text text-anchor="middle" x="202" y="-41" font-family="Helvetica,sans-Serif" font-size="10.00"> free</text>
</g>
<!-- Node5&#45;&gt;Node5 -->
<g id="edge7" class="edge">
<title>Node5&#45;&gt;Node5</title>
<path fill="none" stroke="#9a32cd" stroke-dasharray="5,2" d="M277.58,-82.04C282.09,-81.08 285,-79.4 285,-77 285,-73.06 277.17,-71.06 267.28,-71"/>
<polygon fill="#9a32cd" stroke="#9a32cd" points="276.92,-78.59 267.28,-83 277.57,-85.56 276.92,-78.59"/>
<text text-anchor="middle" x="297.5" y="-74.5" font-family="Helvetica,sans-Serif" font-size="10.00"> next</text>
</g>
</g>
</svg>
