<?xml version="1.0" encoding="UTF-8" standalone="no"?>
<!DOCTYPE svg PUBLIC "-//W3C//DTD SVG 1.1//EN"
 "http://www.w3.org/Graphics/SVG/1.1/DTD/svg11.dtd">
<!-- Generated by graphviz version 9.0.0 (20230911.1827)
 -->
<!-- Title: hdd_file_slot_t Pages: 1 -->
<svg width="195pt" height="227pt"
 viewBox="0.00 0.00 195.00 226.75" xmlns="http://www.w3.org/2000/svg" xmlns:xlink="http://www.w3.org/1999/xlink">
<g id="graph0" class="graph" transform="scale(1 1) rotate(0) translate(4 222.75)">
<title>hdd_file_slot_t</title>
<!-- Node1 -->
<g id="Node000001" class="node">
<title>Node1</title>
<g id="a_Node000001"><a xlink:title=" ">
<polygon fill="#999999" stroke="#666666" points="171.62,-19.25 93.38,-19.25 93.38,0 171.62,0 171.62,-19.25"/>
<text text-anchor="middle" x="132.5" y="-5.75" font-family="Helvetica,sans-Serif" font-size="10.00">hdd_file_slot_t</text>
</a>
</g>
</g>
<!-- Node2 -->
<g id="Node000002" class="node">
<title>Node2</title>
<g id="a_Node000002"><a xlink:href="ioman_x_8h.html#struct__ioman_x__iop__file" target="_top" xlink:title=" ">
<polygon fill="white" stroke="#666666" points="108.25,-85.75 18.75,-85.75 18.75,-66.5 108.25,-66.5 108.25,-85.75"/>
<text text-anchor="middle" x="63.5" y="-72.25" font-family="Helvetica,sans-Serif" font-size="10.00">_iomanX_iop_file</text>
</a>
</g>
</g>
<!-- Node2&#45;&gt;Node1 -->
<g id="edge1_Node000001_Node000002" class="edge">
<title>Node2&#45;&gt;Node1</title>
<g id="a_edge1_Node000001_Node000002"><a xlink:title=" ">
<path fill="none" stroke="#9a32cd" stroke-dasharray="5,2" d="M81.47,-58.33C94.75,-45.91 112.31,-29.5 122.99,-19.52"/>
<polygon fill="#9a32cd" stroke="#9a32cd" points="79.12,-55.74 74.2,-65.12 83.9,-60.85 79.12,-55.74"/>
</a>
</g>
<text text-anchor="middle" x="105.12" y="-39" font-family="Helvetica,sans-Serif" font-size="10.00" fill="grey"> f</text>
</g>
<!-- Node3 -->
<g id="Node000003" class="node">
<title>Node3</title>
<g id="a_Node000003"><a xlink:href="ioman_x_8h.html#struct__ioman_x__iop__device" target="_top" xlink:title=" ">
<polygon fill="white" stroke="#bfbfbf" points="116.5,-152.25 10.5,-152.25 10.5,-133 116.5,-133 116.5,-152.25"/>
<text text-anchor="middle" x="63.5" y="-138.75" font-family="Helvetica,sans-Serif" font-size="10.00">_iomanX_iop_device</text>
</a>
</g>
</g>
<!-- Node3&#45;&gt;Node2 -->
<g id="edge2_Node000002_Node000003" class="edge">
<title>Node3&#45;&gt;Node2</title>
<g id="a_edge2_Node000002_Node000003"><a xlink:title=" ">
<path fill="none" stroke="#9a32cd" stroke-dasharray="5,2" d="M63.5,-121.15C63.5,-109.32 63.5,-95.04 63.5,-86.02"/>
<polygon fill="#9a32cd" stroke="#9a32cd" points="60,-121.14 63.5,-131.14 67,-121.14 60,-121.14"/>
</a>
</g>
<text text-anchor="middle" x="78.88" y="-105.5" font-family="Helvetica,sans-Serif" font-size="10.00" fill="grey"> device</text>
</g>
<!-- Node4 -->
<g id="Node000004" class="node">
<title>Node4</title>
<g id="a_Node000004"><a xlink:href="struct__ioman_x__iop__device__ops.html" target="_top" xlink:title=" ">
<polygon fill="white" stroke="#bfbfbf" points="127,-218.75 0,-218.75 0,-199.5 127,-199.5 127,-218.75"/>
<text text-anchor="middle" x="63.5" y="-205.25" font-family="Helvetica,sans-Serif" font-size="10.00">_iomanX_iop_device_ops</text>
</a>
</g>
</g>
<!-- Node4&#45;&gt;Node3 -->
<g id="edge3_Node000003_Node000004" class="edge">
<title>Node4&#45;&gt;Node3</title>
<g id="a_edge3_Node000003_Node000004"><a xlink:title=" ">
<path fill="none" stroke="#9a32cd" stroke-dasharray="5,2" d="M63.5,-187.65C63.5,-175.82 63.5,-161.54 63.5,-152.52"/>
<polygon fill="#9a32cd" stroke="#9a32cd" points="60,-187.64 63.5,-197.64 67,-187.64 60,-187.64"/>
</a>
</g>
<text text-anchor="middle" x="72.5" y="-172" font-family="Helvetica,sans-Serif" font-size="10.00" fill="grey"> ops</text>
</g>
<!-- Node5 -->
<g id="Node000005" class="node">
<title>Node5</title>
<g id="a_Node000005"><a xlink:href="structapa__sub__t.html" target="_top" xlink:title=" ">
<polygon fill="white" stroke="#bfbfbf" points="187,-85.75 126,-85.75 126,-66.5 187,-66.5 187,-85.75"/>
<text text-anchor="middle" x="156.5" y="-72.25" font-family="Helvetica,sans-Serif" font-size="10.00">apa_sub_t</text>
</a>
</g>
</g>
<!-- Node5&#45;&gt;Node1 -->
<g id="edge4_Node000001_Node000005" class="edge">
<title>Node5&#45;&gt;Node1</title>
<g id="a_edge4_Node000001_Node000005"><a xlink:title=" ">
<path fill="none" stroke="#9a32cd" stroke-dasharray="5,2" d="M149.16,-55.4C144.71,-43.43 139.24,-28.73 135.81,-19.52"/>
<polygon fill="#9a32cd" stroke="#9a32cd" points="145.87,-56.59 152.64,-64.74 152.43,-54.15 145.87,-56.59"/>
</a>
</g>
<text text-anchor="middle" x="157.5" y="-39" font-family="Helvetica,sans-Serif" font-size="10.00" fill="grey"> parts</text>
</g>
</g>
</svg>
