<?xml version="1.0" encoding="UTF-8" standalone="no"?>
<!DOCTYPE svg PUBLIC "-//W3C//DTD SVG 1.1//EN"
 "http://www.w3.org/Graphics/SVG/1.1/DTD/svg11.dtd">
<!-- Generated by graphviz version 2.43.0 (0)
 -->
<!-- Title: uart_softc Pages: 1 -->
<svg width="73pt" height="106pt"
 viewBox="0.00 0.00 73.00 106.00" xmlns="http://www.w3.org/2000/svg" xmlns:xlink="http://www.w3.org/1999/xlink">
<g id="graph0" class="graph" transform="scale(1 1) rotate(0) translate(4 102)">
<title>uart_softc</title>
<polygon fill="white" stroke="transparent" points="-4,4 -4,-102 69,-102 69,4 -4,4"/>
<!-- Node1 -->
<g id="node1" class="node">
<title>Node1</title>
<g id="a_node1"><a xlink:title=" ">
<polygon fill="#bfbfbf" stroke="black" points="0,-0.5 0,-19.5 65,-19.5 65,-0.5 0,-0.5"/>
<text text-anchor="middle" x="32.5" y="-7.5" font-family="Helvetica,sans-Serif" font-size="10.00">uart_softc</text>
</a>
</g>
</g>
<!-- Node2 -->
<g id="node2" class="node">
<title>Node2</title>
<g id="a_node2"><a xlink:href="structuart__buf.html" target="_top" xlink:title=" ">
<polygon fill="white" stroke="black" points="4,-78.5 4,-97.5 61,-97.5 61,-78.5 4,-78.5"/>
<text text-anchor="middle" x="32.5" y="-85.5" font-family="Helvetica,sans-Serif" font-size="10.00">uart_buf</text>
</a>
</g>
</g>
<!-- Node2&#45;&gt;Node1 -->
<g id="edge1" class="edge">
<title>Node2&#45;&gt;Node1</title>
<path fill="none" stroke="#9a32cd" stroke-dasharray="5,2" d="M32.5,-68.22C32.5,-52.7 32.5,-31.36 32.5,-19.62"/>
<polygon fill="#9a32cd" stroke="#9a32cd" points="29,-68.28 32.5,-78.28 36,-68.28 29,-68.28"/>
<text text-anchor="middle" x="45.5" y="-52" font-family="Helvetica,sans-Serif" font-size="10.00"> xmit</text>
<text text-anchor="middle" x="45.5" y="-41" font-family="Helvetica,sans-Serif" font-size="10.00">recv</text>
</g>
</g>
</svg>
