<?xml version="1.0" encoding="UTF-8" standalone="no"?>
<!DOCTYPE svg PUBLIC "-//W3C//DTD SVG 1.1//EN"
 "http://www.w3.org/Graphics/SVG/1.1/DTD/svg11.dtd">
<!-- Generated by graphviz version 9.0.0 (20230911.1827)
 -->
<!-- Title: sifman_internals_ Pages: 1 -->
<svg width="216pt" height="194pt"
 viewBox="0.00 0.00 216.12 194.00" xmlns="http://www.w3.org/2000/svg" xmlns:xlink="http://www.w3.org/1999/xlink">
<g id="graph0" class="graph" transform="scale(1 1) rotate(0) translate(4 190)">
<title>sifman_internals_</title>
<!-- Node1 -->
<g id="Node000001" class="node">
<title>Node1</title>
<g id="a_Node000001"><a xlink:title=" ">
<polygon fill="#999999" stroke="#666666" points="105.62,-19.25 13.12,-19.25 13.12,0 105.62,0 105.62,-19.25"/>
<text text-anchor="middle" x="59.38" y="-5.75" font-family="Helvetica,sans-Serif" font-size="10.00">sifman_internals_</text>
</a>
</g>
</g>
<!-- Node2 -->
<g id="Node000002" class="node">
<title>Node2</title>
<g id="a_Node000002"><a xlink:href="structsif__info__.html" target="_top" xlink:title=" ">
<polygon fill="white" stroke="#bfbfbf" points="52.75,-119.5 0,-119.5 0,-100.25 52.75,-100.25 52.75,-119.5"/>
<text text-anchor="middle" x="26.38" y="-106" font-family="Helvetica,sans-Serif" font-size="10.00">sif_info_</text>
</a>
</g>
</g>
<!-- Node2&#45;&gt;Node1 -->
<g id="edge1_Node000001_Node000002" class="edge">
<title>Node2&#45;&gt;Node1</title>
<g id="a_edge1_Node000001_Node000002"><a xlink:title=" ">
<path fill="none" stroke="#9a32cd" stroke-dasharray="5,2" d="M33,-89.17C40.1,-68.02 51.06,-35.37 56.34,-19.67"/>
<polygon fill="#9a32cd" stroke="#9a32cd" points="29.77,-87.78 29.9,-98.37 36.4,-90.01 29.77,-87.78"/>
</a>
</g>
<text text-anchor="middle" x="71.75" y="-72.75" font-family="Helvetica,sans-Serif" font-size="10.00" fill="grey"> one</text>
<text text-anchor="middle" x="71.75" y="-61.5" font-family="Helvetica,sans-Serif" font-size="10.00" fill="grey">sif_buf1</text>
<text text-anchor="middle" x="71.75" y="-50.25" font-family="Helvetica,sans-Serif" font-size="10.00" fill="grey">sif_buf2</text>
<text text-anchor="middle" x="71.75" y="-39" font-family="Helvetica,sans-Serif" font-size="10.00" fill="grey">sif_curbuf</text>
</g>
<!-- Node3 -->
<g id="Node000003" class="node">
<title>Node3</title>
<g id="a_Node000003"><a xlink:href="structsif__completion__cb__info__arr__.html" target="_top" xlink:title=" ">
<polygon fill="white" stroke="#bfbfbf" points="208.12,-119.5 70.62,-119.5 70.62,-100.25 208.12,-100.25 208.12,-119.5"/>
<text text-anchor="middle" x="139.38" y="-106" font-family="Helvetica,sans-Serif" font-size="10.00">sif_completion_cb_info_arr_</text>
</a>
</g>
</g>
<!-- Node3&#45;&gt;Node1 -->
<g id="edge2_Node000001_Node000003" class="edge">
<title>Node3&#45;&gt;Node1</title>
<g id="a_edge2_Node000001_Node000003"><a xlink:title=" ">
<path fill="none" stroke="#9a32cd" stroke-dasharray="5,2" d="M129.6,-90.04C121.19,-74.85 108.11,-53.43 93.38,-37.25 87.32,-30.6 79.47,-24.33 72.84,-19.55"/>
<polygon fill="#9a32cd" stroke="#9a32cd" points="126.32,-91.35 134.13,-98.5 132.49,-88.04 126.32,-91.35"/>
</a>
</g>
<text text-anchor="middle" x="159.25" y="-72.75" font-family="Helvetica,sans-Serif" font-size="10.00" fill="grey"> sif_bufcom1</text>
<text text-anchor="middle" x="159.25" y="-61.5" font-family="Helvetica,sans-Serif" font-size="10.00" fill="grey">sif_bufcom2</text>
<text text-anchor="middle" x="159.25" y="-50.25" font-family="Helvetica,sans-Serif" font-size="10.00" fill="grey">sif_curbufcom</text>
<text text-anchor="middle" x="159.25" y="-39" font-family="Helvetica,sans-Serif" font-size="10.00" fill="grey">sif_otherbufcom</text>
</g>
<!-- Node4 -->
<g id="Node000004" class="node">
<title>Node4</title>
<g id="a_Node000004"><a xlink:href="structsif__completion__cb__info__.html" target="_top" xlink:title=" ">
<polygon fill="white" stroke="#bfbfbf" points="199.88,-186 78.88,-186 78.88,-166.75 199.88,-166.75 199.88,-186"/>
<text text-anchor="middle" x="139.38" y="-172.5" font-family="Helvetica,sans-Serif" font-size="10.00">sif_completion_cb_info_</text>
</a>
</g>
</g>
<!-- Node4&#45;&gt;Node3 -->
<g id="edge3_Node000003_Node000004" class="edge">
<title>Node4&#45;&gt;Node3</title>
<g id="a_edge3_Node000003_Node000004"><a xlink:title=" ">
<path fill="none" stroke="#9a32cd" stroke-dasharray="5,2" d="M139.38,-154.9C139.38,-143.07 139.38,-128.79 139.38,-119.77"/>
<polygon fill="#9a32cd" stroke="#9a32cd" points="135.88,-154.89 139.38,-164.89 142.88,-154.89 135.88,-154.89"/>
</a>
</g>
<text text-anchor="middle" x="148.38" y="-139.25" font-family="Helvetica,sans-Serif" font-size="10.00" fill="grey"> info</text>
</g>
</g>
</svg>
