<?xml version="1.0" encoding="UTF-8" standalone="no"?>
<!DOCTYPE svg PUBLIC "-//W3C//DTD SVG 1.1//EN"
 "http://www.w3.org/Graphics/SVG/1.1/DTD/svg11.dtd">
<!-- Generated by graphviz version 12.2.0 (20241103.1931)
 -->
<!-- Title: sdhd_info Pages: 1 -->
<svg width="297pt" height="212pt"
 viewBox="0.00 0.00 297.25 212.25" xmlns="http://www.w3.org/2000/svg" xmlns:xlink="http://www.w3.org/1999/xlink">
<g id="graph0" class="graph" transform="scale(1 1) rotate(0) translate(4 208.25)">
<title>sdhd_info</title>
<!-- Node1 -->
<g id="Node000001" class="node">
<title>Node1</title>
<g id="a_Node000001"><a xlink:title=" ">
<polygon fill="#999999" stroke="#666666" points="289.25,-111.25 231.25,-111.25 231.25,-92 289.25,-92 289.25,-111.25"/>
<text text-anchor="middle" x="260.25" y="-97.75" font-family="Helvetica,sans-Serif" font-size="10.00">sdhd_info</text>
</a>
</g>
</g>
<!-- Node2 -->
<g id="Node000002" class="node">
<title>Node2</title>
<g id="a_Node000002"><a xlink:href="structsce_hard_synth_version_chunk__.html" target="_top" xlink:title=" ">
<polygon fill="white" stroke="#bfbfbf" points="151,-204.25 7.5,-204.25 7.5,-185 151,-185 151,-204.25"/>
<text text-anchor="middle" x="79.25" y="-190.75" font-family="Helvetica,sans-Serif" font-size="10.00">sceHardSynthVersionChunk_</text>
</a>
</g>
</g>
<!-- Node2&#45;&gt;Node1 -->
<g id="edge1_Node000001_Node000002" class="edge">
<title>Node2&#45;&gt;Node1</title>
<g id="a_edge1_Node000001_Node000002"><a xlink:title=" ">
<path fill="none" stroke="#9a32cd" stroke-dasharray="5,2" d="M150.08,-181.56C171.7,-175.25 194.69,-166.02 213.25,-152.62 229.49,-140.9 244.23,-122.6 252.44,-111.41"/>
<polygon fill="#9a32cd" stroke="#9a32cd" points="149.46,-178.1 140.73,-184.12 151.3,-184.86 149.46,-178.1"/>
</a>
</g>
<text text-anchor="middle" x="194.88" y="-174.14" font-family="Helvetica,sans-Serif" font-size="10.00" fill="grey"> m_vers</text>
</g>
<!-- Node3 -->
<g id="Node000003" class="node">
<title>Node3</title>
<g id="a_Node000003"><a xlink:href="structsce_hard_synth_header_chunk__.html" target="_top" xlink:title=" ">
<polygon fill="white" stroke="#bfbfbf" points="150.25,-167.25 8.25,-167.25 8.25,-148 150.25,-148 150.25,-167.25"/>
<text text-anchor="middle" x="79.25" y="-153.75" font-family="Helvetica,sans-Serif" font-size="10.00">sceHardSynthHeaderChunk_</text>
</a>
</g>
</g>
<!-- Node3&#45;&gt;Node1 -->
<g id="edge2_Node000001_Node000003" class="edge">
<title>Node3&#45;&gt;Node1</title>
<g id="a_edge2_Node000001_Node000003"><a xlink:title=" ">
<path fill="none" stroke="#9a32cd" stroke-dasharray="5,2" d="M147.22,-145.07C168.67,-140.11 192.29,-133.65 213.25,-125.62 223.18,-121.82 233.73,-116.43 242.21,-111.72"/>
<polygon fill="#9a32cd" stroke="#9a32cd" points="146.7,-141.6 137.7,-147.2 148.23,-148.43 146.7,-141.6"/>
</a>
</g>
<text text-anchor="middle" x="194.88" y="-139.05" font-family="Helvetica,sans-Serif" font-size="10.00" fill="grey"> m_head</text>
</g>
<!-- Node4 -->
<g id="Node000004" class="node">
<title>Node4</title>
<g id="a_Node000004"><a xlink:href="structsce_hard_synth_program_chunk__.html" target="_top" xlink:title=" ">
<polygon fill="white" stroke="#bfbfbf" points="152.88,-130.25 5.62,-130.25 5.62,-111 152.88,-111 152.88,-130.25"/>
<text text-anchor="middle" x="79.25" y="-116.75" font-family="Helvetica,sans-Serif" font-size="10.00">sceHardSynthProgramChunk_</text>
</a>
</g>
</g>
<!-- Node4&#45;&gt;Node1 -->
<g id="edge3_Node000001_Node000004" class="edge">
<title>Node4&#45;&gt;Node1</title>
<g id="a_edge3_Node000001_Node000004"><a xlink:title=" ">
<path fill="none" stroke="#9a32cd" stroke-dasharray="5,2" d="M164.59,-111.67C188.45,-109.14 212.8,-106.56 230.83,-104.64"/>
<polygon fill="#9a32cd" stroke="#9a32cd" points="164.39,-108.17 154.82,-112.71 165.13,-115.13 164.39,-108.17"/>
</a>
</g>
<text text-anchor="middle" x="194.88" y="-111.74" font-family="Helvetica,sans-Serif" font-size="10.00" fill="grey"> m_prog</text>
</g>
<!-- Node5 -->
<g id="Node000005" class="node">
<title>Node5</title>
<g id="a_Node000005"><a xlink:href="structsce_hard_synth_sample_set_chunk__.html" target="_top" xlink:title=" ">
<polygon fill="white" stroke="#bfbfbf" points="158.5,-93.25 0,-93.25 0,-74 158.5,-74 158.5,-93.25"/>
<text text-anchor="middle" x="79.25" y="-79.75" font-family="Helvetica,sans-Serif" font-size="10.00">sceHardSynthSampleSetChunk_</text>
</a>
</g>
</g>
<!-- Node5&#45;&gt;Node1 -->
<g id="edge4_Node000001_Node000005" class="edge">
<title>Node5&#45;&gt;Node1</title>
<g id="a_edge4_Node000001_Node000005"><a xlink:title=" ">
<path fill="none" stroke="#9a32cd" stroke-dasharray="5,2" d="M169.74,-82.81C184.35,-83.63 199.27,-85.06 213.25,-87.38 219.02,-88.33 225.08,-89.83 230.83,-91.5"/>
<polygon fill="#9a32cd" stroke="#9a32cd" points="170.32,-79.33 160.17,-82.36 169.99,-86.33 170.32,-79.33"/>
</a>
</g>
<text text-anchor="middle" x="194.88" y="-89.12" font-family="Helvetica,sans-Serif" font-size="10.00" fill="grey"> m_sset</text>
</g>
<!-- Node6 -->
<g id="Node000006" class="node">
<title>Node6</title>
<g id="a_Node000006"><a xlink:href="structsce_hard_synth_sample_chunk__.html" target="_top" xlink:title=" ">
<polygon fill="white" stroke="#bfbfbf" points="151,-56.25 7.5,-56.25 7.5,-37 151,-37 151,-56.25"/>
<text text-anchor="middle" x="79.25" y="-42.75" font-family="Helvetica,sans-Serif" font-size="10.00">sceHardSynthSampleChunk_</text>
</a>
</g>
</g>
<!-- Node6&#45;&gt;Node1 -->
<g id="edge5_Node000001_Node000006" class="edge">
<title>Node6&#45;&gt;Node1</title>
<g id="a_edge5_Node000001_Node000006"><a xlink:title=" ">
<path fill="none" stroke="#9a32cd" stroke-dasharray="5,2" d="M162.5,-53.97C179.69,-57.18 197.39,-61.78 213.25,-68.38 226.53,-73.9 239.63,-83.94 248.43,-91.54"/>
<polygon fill="#9a32cd" stroke="#9a32cd" points="163.25,-50.55 152.8,-52.31 162.07,-57.45 163.25,-50.55"/>
</a>
</g>
<text text-anchor="middle" x="194.88" y="-70.12" font-family="Helvetica,sans-Serif" font-size="10.00" fill="grey"> m_smpl</text>
</g>
<!-- Node7 -->
<g id="Node000007" class="node">
<title>Node7</title>
<g id="a_Node000007"><a xlink:href="structsce_hard_synth_vag_info_chunk.html" target="_top" xlink:title=" ">
<polygon fill="white" stroke="#bfbfbf" points="148.75,-19.25 9.75,-19.25 9.75,0 148.75,0 148.75,-19.25"/>
<text text-anchor="middle" x="79.25" y="-5.75" font-family="Helvetica,sans-Serif" font-size="10.00">sceHardSynthVagInfoChunk</text>
</a>
</g>
</g>
<!-- Node7&#45;&gt;Node1 -->
<g id="edge6_Node000001_Node000007" class="edge">
<title>Node7&#45;&gt;Node1</title>
<g id="a_edge6_Node000001_Node000007"><a xlink:title=" ">
<path fill="none" stroke="#9a32cd" stroke-dasharray="5,2" d="M160.32,-19.94C178.74,-24.79 197.52,-31.91 213.25,-42.38 232.33,-55.07 246.92,-78.31 254.17,-91.6"/>
<polygon fill="#9a32cd" stroke="#9a32cd" points="161.25,-16.56 150.71,-17.63 159.61,-23.37 161.25,-16.56"/>
</a>
</g>
<text text-anchor="middle" x="194.88" y="-44.12" font-family="Helvetica,sans-Serif" font-size="10.00" fill="grey"> m_vagi</text>
</g>
</g>
</svg>
