<?xml version="1.0" encoding="UTF-8" standalone="no"?>
<!DOCTYPE svg PUBLIC "-//W3C//DTD SVG 1.1//EN"
 "http://www.w3.org/Graphics/SVG/1.1/DTD/svg11.dtd">
<!-- Generated by graphviz version 9.0.0 (20230911.1827)
 -->
<!-- Title: GS_SPRITE_FT4_P Pages: 1 -->
<svg width="346pt" height="172pt"
 viewBox="0.00 0.00 345.62 171.50" xmlns="http://www.w3.org/2000/svg" xmlns:xlink="http://www.w3.org/1999/xlink">

<svg id="main" version="1.1" xmlns="http://www.w3.org/2000/svg" xmlns:xlink="http://www.w3.org/1999/xlink" xml:space="preserve" onload="init(evt)">
<style type="text/css"><![CDATA[
.node, .edge {opacity: 0.7;}
.node.selected, .edge.selected {opacity: 1;}
.edge:hover path { stroke: red; }
.edge:hover polygon { stroke: red; fill: red; }
]]></style>
<script type="application/ecmascript" xlink:href="svg.min.js"/>
<svg id="graph" class="graph">
<g id="graph0" class="graph" transform="scale(1 1) rotate(0) translate(4 167.5)">
<title>GS_SPRITE_FT4_P</title>
<!-- Node1 -->
<g id="Node000001" class="node">
<title>Node1</title>
<g id="a_Node000001"><a xlink:title=" ">
<polygon fill="#999999" stroke="#666666" points="229.75,-19.25 124.5,-19.25 124.5,0 229.75,0 229.75,-19.25"/>
<text text-anchor="middle" x="177.12" y="-5.75" font-family="Helvetica,sans-Serif" font-size="10.00">GS_SPRITE_FT4_P</text>
</a>
</g>
</g>
<!-- Node2 -->
<g id="Node000002" class="node">
<title>Node2</title>
<g id="a_Node000002"><a xlink:href="libgs_8h.html#struct_g_s___r___p_r_i_m" target="_top" xlink:title=" ">
<polygon fill="white" stroke="#bfbfbf" points="72.25,-97 0,-97 0,-77.75 72.25,-77.75 72.25,-97"/>
<text text-anchor="middle" x="36.12" y="-83.5" font-family="Helvetica,sans-Serif" font-size="10.00">GS_R_PRIM</text>
</a>
</g>
</g>
<!-- Node2&#45;&gt;Node1 -->
<g id="edge1_Node000001_Node000002" class="edge">
<title>Node2&#45;&gt;Node1</title>
<g id="a_edge1_Node000001_Node000002"><a xlink:title=" ">
<path fill="none" stroke="#9a32cd" stroke-dasharray="5,2" d="M61.25,-71.7C78.51,-61.73 102.04,-48.39 123.12,-37.25 134.59,-31.2 147.61,-24.76 158,-19.73"/>
<polygon fill="#9a32cd" stroke="#9a32cd" points="59.59,-68.61 52.69,-76.66 63.1,-74.67 59.59,-68.61"/>
</a>
</g>
<text text-anchor="middle" x="133.62" y="-44.62" font-family="Helvetica,sans-Serif" font-size="10.00" fill="grey"> prim</text>
</g>
<!-- Node3 -->
<g id="Node000003" class="node">
<title>Node3</title>
<g id="a_Node000003"><a xlink:href="libgs_8h.html#struct_g_s___p_r_i_m" target="_top" xlink:title=" ">
<polygon fill="white" stroke="#bfbfbf" points="66.25,-163.5 6,-163.5 6,-144.25 66.25,-144.25 66.25,-163.5"/>
<text text-anchor="middle" x="36.12" y="-150" font-family="Helvetica,sans-Serif" font-size="10.00">GS_PRIM</text>
</a>
</g>
</g>
<!-- Node3&#45;&gt;Node2 -->
<g id="edge2_Node000002_Node000003" class="edge">
<title>Node3&#45;&gt;Node2</title>
<g id="a_edge2_Node000002_Node000003"><a xlink:title=" ">
<path fill="none" stroke="#9a32cd" stroke-dasharray="5,2" d="M36.12,-132.4C36.12,-120.57 36.12,-106.29 36.12,-97.27"/>
<polygon fill="#9a32cd" stroke="#9a32cd" points="32.63,-132.39 36.13,-142.39 39.63,-132.39 32.63,-132.39"/>
</a>
</g>
<text text-anchor="middle" x="46.62" y="-116.75" font-family="Helvetica,sans-Serif" font-size="10.00" fill="grey"> data</text>
</g>
<!-- Node4 -->
<g id="Node000004" class="node">
<title>Node4</title>
<g id="a_Node000004"><a xlink:href="libgs_8h.html#struct_g_s___r___r_g_b_a_q" target="_top" xlink:title=" ">
<polygon fill="white" stroke="#bfbfbf" points="173.5,-97 90.75,-97 90.75,-77.75 173.5,-77.75 173.5,-97"/>
<text text-anchor="middle" x="132.12" y="-83.5" font-family="Helvetica,sans-Serif" font-size="10.00">GS_R_RGBAQ</text>
</a>
</g>
</g>
<!-- Node4&#45;&gt;Node1 -->
<g id="edge3_Node000001_Node000004" class="edge">
<title>Node4&#45;&gt;Node1</title>
<g id="a_edge3_Node000001_Node000004"><a xlink:title=" ">
<path fill="none" stroke="#9a32cd" stroke-dasharray="5,2" d="M142.26,-67.54C147.32,-58.32 153.64,-47.11 159.62,-37.25 163.3,-31.2 167.68,-24.54 171.13,-19.4"/>
<polygon fill="#9a32cd" stroke="#9a32cd" points="139.23,-65.78 137.53,-76.24 145.38,-69.13 139.23,-65.78"/>
</a>
</g>
<text text-anchor="middle" x="175.88" y="-44.62" font-family="Helvetica,sans-Serif" font-size="10.00" fill="grey"> rgbaq0</text>
</g>
<!-- Node5 -->
<g id="Node000005" class="node">
<title>Node5</title>
<g id="a_Node000005"><a xlink:href="libgs_8h.html#struct_g_s___r_g_b_a_q" target="_top" xlink:title=" ">
<polygon fill="white" stroke="#bfbfbf" points="167.5,-163.5 96.75,-163.5 96.75,-144.25 167.5,-144.25 167.5,-163.5"/>
<text text-anchor="middle" x="132.12" y="-150" font-family="Helvetica,sans-Serif" font-size="10.00">GS_RGBAQ</text>
</a>
</g>
</g>
<!-- Node5&#45;&gt;Node4 -->
<g id="edge4_Node000004_Node000005" class="edge">
<title>Node5&#45;&gt;Node4</title>
<g id="a_edge4_Node000004_Node000005"><a xlink:title=" ">
<path fill="none" stroke="#9a32cd" stroke-dasharray="5,2" d="M132.12,-132.4C132.12,-120.57 132.12,-106.29 132.12,-97.27"/>
<polygon fill="#9a32cd" stroke="#9a32cd" points="128.63,-132.39 132.13,-142.39 135.63,-132.39 128.63,-132.39"/>
</a>
</g>
<text text-anchor="middle" x="142.62" y="-116.75" font-family="Helvetica,sans-Serif" font-size="10.00" fill="grey"> data</text>
</g>
<!-- Node6 -->
<g id="Node000006" class="node">
<title>Node6</title>
<g id="a_Node000006"><a xlink:href="libgs_8h.html#struct_g_s___r___u_v" target="_top" xlink:title=" ">
<polygon fill="white" stroke="#bfbfbf" points="253,-97 191.25,-97 191.25,-77.75 253,-77.75 253,-97"/>
<text text-anchor="middle" x="222.12" y="-83.5" font-family="Helvetica,sans-Serif" font-size="10.00">GS_R_UV</text>
</a>
</g>
</g>
<!-- Node6&#45;&gt;Node1 -->
<g id="edge5_Node000001_Node000006" class="edge">
<title>Node6&#45;&gt;Node1</title>
<g id="a_edge5_Node000001_Node000006"><a xlink:title=" ">
<path fill="none" stroke="#9a32cd" stroke-dasharray="5,2" d="M211.14,-67.89C202.04,-52.56 189.49,-31.44 182.46,-19.6"/>
<polygon fill="#9a32cd" stroke="#9a32cd" points="207.9,-69.28 216.01,-76.09 213.91,-65.7 207.9,-69.28"/>
</a>
</g>
<text text-anchor="middle" x="216.12" y="-50.25" font-family="Helvetica,sans-Serif" font-size="10.00" fill="grey"> uv0</text>
<text text-anchor="middle" x="216.12" y="-39" font-family="Helvetica,sans-Serif" font-size="10.00" fill="grey">uv1</text>
</g>
<!-- Node7 -->
<g id="Node000007" class="node">
<title>Node7</title>
<g id="a_Node000007"><a xlink:href="libgs_8h.html#struct_g_s___u_v" target="_top" xlink:title=" ">
<polygon fill="white" stroke="#bfbfbf" points="247,-163.5 197.25,-163.5 197.25,-144.25 247,-144.25 247,-163.5"/>
<text text-anchor="middle" x="222.12" y="-150" font-family="Helvetica,sans-Serif" font-size="10.00">GS_UV</text>
</a>
</g>
</g>
<!-- Node7&#45;&gt;Node6 -->
<g id="edge6_Node000006_Node000007" class="edge">
<title>Node7&#45;&gt;Node6</title>
<g id="a_edge6_Node000006_Node000007"><a xlink:title=" ">
<path fill="none" stroke="#9a32cd" stroke-dasharray="5,2" d="M222.12,-132.4C222.12,-120.57 222.12,-106.29 222.12,-97.27"/>
<polygon fill="#9a32cd" stroke="#9a32cd" points="218.63,-132.39 222.13,-142.39 225.63,-132.39 218.63,-132.39"/>
</a>
</g>
<text text-anchor="middle" x="232.62" y="-116.75" font-family="Helvetica,sans-Serif" font-size="10.00" fill="grey"> data</text>
</g>
<!-- Node8 -->
<g id="Node000008" class="node">
<title>Node8</title>
<g id="a_Node000008"><a xlink:href="libgs_8h.html#struct_g_s___r___x_y_z" target="_top" xlink:title=" ">
<polygon fill="white" stroke="#bfbfbf" points="337.62,-97 270.62,-97 270.62,-77.75 337.62,-77.75 337.62,-97"/>
<text text-anchor="middle" x="304.12" y="-83.5" font-family="Helvetica,sans-Serif" font-size="10.00">GS_R_XYZ</text>
</a>
</g>
</g>
<!-- Node8&#45;&gt;Node1 -->
<g id="edge7_Node000001_Node000008" class="edge">
<title>Node8&#45;&gt;Node1</title>
<g id="a_edge7_Node000001_Node000008"><a xlink:title=" ">
<path fill="none" stroke="#9a32cd" stroke-dasharray="5,2" d="M282.1,-71.06C267.36,-61.03 247.38,-47.86 229.12,-37.25 218.25,-30.93 205.71,-24.49 195.67,-19.52"/>
<polygon fill="#9a32cd" stroke="#9a32cd" points="279.91,-73.8 290.13,-76.57 283.87,-68.03 279.91,-73.8"/>
</a>
</g>
<text text-anchor="middle" x="275.62" y="-50.25" font-family="Helvetica,sans-Serif" font-size="10.00" fill="grey"> xyz0</text>
<text text-anchor="middle" x="275.62" y="-39" font-family="Helvetica,sans-Serif" font-size="10.00" fill="grey">xyz1</text>
</g>
<!-- Node9 -->
<g id="Node000009" class="node">
<title>Node9</title>
<g id="a_Node000009"><a xlink:href="libgs_8h.html#struct_g_s___x_y_z" target="_top" xlink:title=" ">
<polygon fill="white" stroke="#bfbfbf" points="331.62,-163.5 276.62,-163.5 276.62,-144.25 331.62,-144.25 331.62,-163.5"/>
<text text-anchor="middle" x="304.12" y="-150" font-family="Helvetica,sans-Serif" font-size="10.00">GS_XYZ</text>
</a>
</g>
</g>
<!-- Node9&#45;&gt;Node8 -->
<g id="edge8_Node000008_Node000009" class="edge">
<title>Node9&#45;&gt;Node8</title>
<g id="a_edge8_Node000008_Node000009"><a xlink:title=" ">
<path fill="none" stroke="#9a32cd" stroke-dasharray="5,2" d="M304.12,-132.4C304.12,-120.57 304.12,-106.29 304.12,-97.27"/>
<polygon fill="#9a32cd" stroke="#9a32cd" points="300.63,-132.39 304.13,-142.39 307.63,-132.39 300.63,-132.39"/>
</a>
</g>
<text text-anchor="middle" x="314.62" y="-116.75" font-family="Helvetica,sans-Serif" font-size="10.00" fill="grey"> data</text>
</g>
</g>
</svg>
</svg>

<style type='text/css'>
<![CDATA[
[data-mouse-over-selected='false'] { opacity: 0.7; }
[data-mouse-over-selected='true']  { opacity: 1.0; }
]]>
</style>
<script type="application/ecmascript"><![CDATA[
document.addEventListener('DOMContentLoaded', (event) => {
  highlightEdges();
  highlightAdjacentNodes();
});
]]></script>
</svg>
