<?xml version="1.0" encoding="UTF-8" standalone="no"?>
<!DOCTYPE svg PUBLIC "-//W3C//DTD SVG 1.1//EN"
 "http://www.w3.org/Graphics/SVG/1.1/DTD/svg11.dtd">
<!-- Generated by graphviz version 12.2.0 (20241103.1931)
 -->
<!-- Title: _endpoint Pages: 1 -->
<svg width="752pt" height="497pt"
 viewBox="0.00 0.00 751.68 496.50" xmlns="http://www.w3.org/2000/svg" xmlns:xlink="http://www.w3.org/1999/xlink">
<g id="graph0" class="graph" transform="scale(1 1) rotate(0) translate(4 492.5)">
<title>_endpoint</title>
<!-- Node1 -->
<g id="Node000001" class="node">
<title>Node1</title>
<g id="a_Node000001"><a xlink:title=" ">
<polygon fill="#999999" stroke="#666666" points="298.06,-261.62 240.06,-261.62 240.06,-242.38 298.06,-242.38 298.06,-261.62"/>
<text text-anchor="middle" x="269.06" y="-248.12" font-family="Helvetica,sans-Serif" font-size="10.00">_endpoint</text>
</a>
</g>
</g>
<!-- Node1&#45;&gt;Node1 -->
<g id="edge1_Node000001_Node000001" class="edge">
<title>Node1&#45;&gt;Node1</title>
<g id="a_edge1_Node000001_Node000001"><a xlink:title=" ">
<path fill="none" stroke="#9a32cd" stroke-dasharray="5,2" d="M309.67,-258.99C313.58,-257.57 316.06,-255.24 316.06,-252 316.06,-246.23 308.22,-243.35 298.43,-243.35"/>
<polygon fill="#9a32cd" stroke="#9a32cd" points="309.31,-255.51 299.93,-260.43 310.33,-262.43 309.31,-255.51"/>
</a>
</g>
<text text-anchor="middle" x="344.18" y="-265" font-family="Helvetica,sans-Serif" font-size="10.00" fill="grey"> m_busyNext</text>
<text text-anchor="middle" x="344.18" y="-253.75" font-family="Helvetica,sans-Serif" font-size="10.00" fill="grey">m_busyPrev</text>
<text text-anchor="middle" x="344.18" y="-242.5" font-family="Helvetica,sans-Serif" font-size="10.00" fill="grey">m_next</text>
<text text-anchor="middle" x="344.18" y="-231.25" font-family="Helvetica,sans-Serif" font-size="10.00" fill="grey">m_prev</text>
</g>
<!-- Node2 -->
<g id="Node000002" class="node">
<title>Node2</title>
<g id="a_Node000002"><a xlink:href="usbdpriv_8h.html#struct__device" target="_top" xlink:title=" ">
<polygon fill="white" stroke="#bfbfbf" points="257.93,-37.75 208.18,-37.75 208.18,-18.5 257.93,-18.5 257.93,-37.75"/>
<text text-anchor="middle" x="233.06" y="-24.25" font-family="Helvetica,sans-Serif" font-size="10.00">_device</text>
</a>
</g>
</g>
<!-- Node1&#45;&gt;Node2 -->
<g id="edge4_Node000002_Node000001" class="edge">
<title>Node1&#45;&gt;Node2</title>
<g id="a_edge4_Node000002_Node000001"><a xlink:title=" ">
<path fill="none" stroke="#9a32cd" stroke-dasharray="5,2" d="M228.47,-250.55C173.91,-247.49 78.66,-232.98 34.31,-171 -16.64,-99.81 143.92,-51.16 207.92,-35"/>
<polygon fill="#9a32cd" stroke="#9a32cd" points="228.13,-254.04 238.27,-250.99 228.44,-247.05 228.13,-254.04"/>
</a>
</g>
<text text-anchor="middle" x="78.18" y="-155.88" font-family="Helvetica,sans-Serif" font-size="10.00" fill="grey"> m_endpointListEnd</text>
<text text-anchor="middle" x="78.18" y="-144.62" font-family="Helvetica,sans-Serif" font-size="10.00" fill="grey">m_endpointListStart</text>
</g>
<!-- Node5 -->
<g id="Node000005" class="node">
<title>Node5</title>
<g id="a_Node000005"><a xlink:href="usbdpriv_8h.html#struct__io_request" target="_top" xlink:title=" ">
<polygon fill="white" stroke="#bfbfbf" points="432.43,-163.75 367.68,-163.75 367.68,-144.5 432.43,-144.5 432.43,-163.75"/>
<text text-anchor="middle" x="400.06" y="-150.25" font-family="Helvetica,sans-Serif" font-size="10.00">_ioRequest</text>
</a>
</g>
</g>
<!-- Node1&#45;&gt;Node5 -->
<g id="edge11_Node000005_Node000001" class="edge">
<title>Node1&#45;&gt;Node5</title>
<g id="a_edge11_Node000005_Node000001"><a xlink:title=" ">
<path fill="none" stroke="#9a32cd" stroke-dasharray="5,2" d="M309.57,-245.09C332.58,-239.81 360.41,-229.92 379.06,-211.5 392.28,-198.43 397.27,-176.28 399.08,-164"/>
<polygon fill="#9a32cd" stroke="#9a32cd" points="308.97,-241.64 299.87,-247.08 310.37,-248.5 308.97,-241.64"/>
</a>
</g>
<text text-anchor="middle" x="435.32" y="-196.38" font-family="Helvetica,sans-Serif" font-size="10.00" fill="grey"> m_correspEndpoint</text>
</g>
<!-- Node2&#45;&gt;Node1 -->
<g id="edge2_Node000001_Node000002" class="edge">
<title>Node2&#45;&gt;Node1</title>
<g id="a_edge2_Node000001_Node000002"><a xlink:title=" ">
<path fill="none" stroke="#9a32cd" stroke-dasharray="5,2" d="M244.74,-47.9C249.06,-55.75 253.52,-65.16 256.06,-74.25 273.44,-136.48 271.05,-215.55 269.63,-241.96"/>
<polygon fill="#9a32cd" stroke="#9a32cd" points="247.79,-46.18 239.71,-39.32 241.75,-49.72 247.79,-46.18"/>
</a>
</g>
<text text-anchor="middle" x="308.79" y="-150.25" font-family="Helvetica,sans-Serif" font-size="10.00" fill="grey"> m_correspDevice</text>
</g>
<!-- Node2&#45;&gt;Node2 -->
<g id="edge3_Node000002_Node000002" class="edge">
<title>Node2&#45;&gt;Node2</title>
<g id="a_edge3_Node000002_Node000002"><a xlink:title=" ">
<path fill="none" stroke="#9a32cd" stroke-dasharray="5,2" d="M257.72,-40.91C267.62,-41.64 275.93,-37.38 275.93,-28.12 275.93,-15.53 260.52,-12.18 246.67,-18.09"/>
<polygon fill="#9a32cd" stroke="#9a32cd" points="258.68,-37.55 248.13,-38.53 256.99,-44.34 258.68,-37.55"/>
</a>
</g>
<text text-anchor="middle" x="311.56" y="-46.75" font-family="Helvetica,sans-Serif" font-size="10.00" fill="grey"> m_childListEnd</text>
<text text-anchor="middle" x="311.56" y="-35.5" font-family="Helvetica,sans-Serif" font-size="10.00" fill="grey">m_childListStart</text>
<text text-anchor="middle" x="311.56" y="-24.25" font-family="Helvetica,sans-Serif" font-size="10.00" fill="grey">m_next</text>
<text text-anchor="middle" x="311.56" y="-13" font-family="Helvetica,sans-Serif" font-size="10.00" fill="grey">m_parent</text>
<text text-anchor="middle" x="311.56" y="-1.75" font-family="Helvetica,sans-Serif" font-size="10.00" fill="grey">m_prev</text>
</g>
<!-- Node3 -->
<g id="Node000003" class="node">
<title>Node3</title>
<g id="a_Node000003"><a xlink:href="usbd_8h.html#struct___usb_driver" target="_top" xlink:title=" ">
<polygon fill="white" stroke="#666666" points="195.43,-163.75 130.68,-163.75 130.68,-144.5 195.43,-144.5 195.43,-163.75"/>
<text text-anchor="middle" x="163.06" y="-150.25" font-family="Helvetica,sans-Serif" font-size="10.00">_UsbDriver</text>
</a>
</g>
</g>
<!-- Node3&#45;&gt;Node2 -->
<g id="edge5_Node000002_Node000003" class="edge">
<title>Node3&#45;&gt;Node2</title>
<g id="a_edge5_Node000002_Node000003"><a xlink:title=" ">
<path fill="none" stroke="#9a32cd" stroke-dasharray="5,2" d="M170.56,-133.63C177.18,-117.29 187.53,-93.61 199.06,-74.25 206.98,-60.93 218.08,-46.86 225.41,-38.05"/>
<polygon fill="#9a32cd" stroke="#9a32cd" points="167.42,-132.06 167,-142.65 173.93,-134.63 167.42,-132.06"/>
</a>
</g>
<text text-anchor="middle" x="227.56" y="-92.88" font-family="Helvetica,sans-Serif" font-size="10.00" fill="grey"> m_devDriver</text>
</g>
<!-- Node3&#45;&gt;Node3 -->
<g id="edge6_Node000003_Node000003" class="edge">
<title>Node3&#45;&gt;Node3</title>
<g id="a_edge6_Node000003_Node000003"><a xlink:title=" ">
<path fill="none" stroke="#9a32cd" stroke-dasharray="5,2" d="M206.64,-161.1C210.8,-159.68 213.43,-157.35 213.43,-154.12 213.43,-148.54 205.55,-145.66 195.52,-145.49"/>
<polygon fill="#9a32cd" stroke="#9a32cd" points="206.39,-157.6 197.01,-162.54 207.42,-164.52 206.39,-157.6"/>
</a>
</g>
<text text-anchor="middle" x="223.56" y="-155.88" font-family="Helvetica,sans-Serif" font-size="10.00" fill="grey"> next</text>
<text text-anchor="middle" x="223.56" y="-144.62" font-family="Helvetica,sans-Serif" font-size="10.00" fill="grey">prev</text>
</g>
<!-- Node4 -->
<g id="Node000004" class="node">
<title>Node4</title>
<g id="a_Node000004"><a xlink:href="usbdpriv_8h.html#struct__timer_cb_struct" target="_top" xlink:title=" ">
<polygon fill="white" stroke="#bfbfbf" points="96.68,-342.62 15.43,-342.62 15.43,-323.38 96.68,-323.38 96.68,-342.62"/>
<text text-anchor="middle" x="56.06" y="-329.12" font-family="Helvetica,sans-Serif" font-size="10.00">_timerCbStruct</text>
</a>
</g>
</g>
<!-- Node4&#45;&gt;Node1 -->
<g id="edge24_Node000001_Node000004" class="edge">
<title>Node4&#45;&gt;Node1</title>
<g id="a_edge24_Node000001_Node000004"><a xlink:title=" ">
<path fill="none" stroke="#9a32cd" stroke-dasharray="5,2" d="M91.08,-319.01C134.35,-302.96 206.86,-276.07 244.58,-262.08"/>
<polygon fill="#9a32cd" stroke="#9a32cd" points="90.07,-315.65 81.91,-322.41 92.5,-322.22 90.07,-315.65"/>
</a>
</g>
<text text-anchor="middle" x="181.31" y="-294.25" font-family="Helvetica,sans-Serif" font-size="10.00" fill="grey"> m_timer</text>
</g>
<!-- Node4&#45;&gt;Node2 -->
<g id="edge7_Node000002_Node000004" class="edge">
<title>Node4&#45;&gt;Node2</title>
<g id="a_edge7_Node000002_Node000004"><a xlink:title=" ">
<path fill="none" stroke="#9a32cd" stroke-dasharray="5,2" d="M45.47,-312.73C20.86,-265.03 -33.5,-140.53 30.06,-74.25 54.36,-48.91 158.91,-36.03 207.75,-31.3"/>
<polygon fill="#9a32cd" stroke="#9a32cd" points="42.38,-314.36 50.16,-321.55 48.56,-311.08 42.38,-314.36"/>
</a>
</g>
<text text-anchor="middle" x="25.75" y="-196.38" font-family="Helvetica,sans-Serif" font-size="10.00" fill="grey"> m_timer</text>
</g>
<!-- Node4&#45;&gt;Node4 -->
<g id="edge8_Node000004_Node000004" class="edge">
<title>Node4&#45;&gt;Node4</title>
<g id="a_edge8_Node000004_Node000004"><a xlink:title=" ">
<path fill="none" stroke="#9a32cd" stroke-dasharray="5,2" d="M108.45,-337.85C112.31,-336.76 114.68,-335.15 114.68,-333 114.68,-329.19 107.2,-327.04 97.15,-326.56"/>
<polygon fill="#9a32cd" stroke="#9a32cd" points="108.06,-334.37 98.65,-339.23 109.04,-341.31 108.06,-334.37"/>
</a>
</g>
<text text-anchor="middle" x="131.56" y="-334.75" font-family="Helvetica,sans-Serif" font-size="10.00" fill="grey"> m_next</text>
<text text-anchor="middle" x="131.56" y="-323.5" font-family="Helvetica,sans-Serif" font-size="10.00" fill="grey">m_prev</text>
</g>
<!-- Node5&#45;&gt;Node1 -->
<g id="edge17_Node000001_Node000005" class="edge">
<title>Node5&#45;&gt;Node1</title>
<g id="a_edge17_Node000001_Node000005"><a xlink:title=" ">
<path fill="none" stroke="#9a32cd" stroke-dasharray="5,2" d="M361.66,-167.85C333.46,-177.22 299.95,-188.44 299.31,-189 282.93,-203.38 274.55,-228.65 271.07,-242.06"/>
<polygon fill="#9a32cd" stroke="#9a32cd" points="362.7,-171.19 371.08,-164.72 360.49,-164.55 362.7,-171.19"/>
</a>
</g>
<text text-anchor="middle" x="337.18" y="-202" font-family="Helvetica,sans-Serif" font-size="10.00" fill="grey"> m_ioReqListEnd</text>
<text text-anchor="middle" x="337.18" y="-190.75" font-family="Helvetica,sans-Serif" font-size="10.00" fill="grey">m_ioReqListStart</text>
</g>
<!-- Node5&#45;&gt;Node2 -->
<g id="edge9_Node000002_Node000005" class="edge">
<title>Node5&#45;&gt;Node2</title>
<g id="a_edge9_Node000002_Node000005"><a xlink:title=" ">
<path fill="none" stroke="#9a32cd" stroke-dasharray="5,2" d="M378.73,-137.29C343.15,-110.87 272.84,-58.67 244.9,-37.92"/>
<polygon fill="#9a32cd" stroke="#9a32cd" points="376.45,-139.95 386.56,-143.1 380.62,-134.33 376.45,-139.95"/>
</a>
</g>
<text text-anchor="middle" x="380.33" y="-92.88" font-family="Helvetica,sans-Serif" font-size="10.00" fill="grey"> m_ioRequest</text>
</g>
<!-- Node5&#45;&gt;Node5 -->
<g id="edge10_Node000005_Node000005" class="edge">
<title>Node5&#45;&gt;Node5</title>
<g id="a_edge10_Node000005_Node000005"><a xlink:title=" ">
<path fill="none" stroke="#9a32cd" stroke-dasharray="5,2" d="M443.64,-161.1C447.8,-159.68 450.43,-157.35 450.43,-154.12 450.43,-148.54 442.55,-145.66 432.52,-145.49"/>
<polygon fill="#9a32cd" stroke="#9a32cd" points="443.39,-157.6 434.01,-162.54 444.42,-164.52 443.39,-157.6"/>
</a>
</g>
<text text-anchor="middle" x="486.43" y="-161.5" font-family="Helvetica,sans-Serif" font-size="10.00" fill="grey"> m_callbackProc</text>
<text text-anchor="middle" x="486.43" y="-150.25" font-family="Helvetica,sans-Serif" font-size="10.00" fill="grey">m_next</text>
<text text-anchor="middle" x="486.43" y="-139" font-family="Helvetica,sans-Serif" font-size="10.00" fill="grey">m_prev</text>
</g>
<!-- Node6 -->
<g id="Node000006" class="node">
<title>Node6</title>
<g id="a_Node000006"><a xlink:href="usbd_8h.html#struct_usb_device_request" target="_top" xlink:title=" ">
<polygon fill="white" stroke="#bfbfbf" points="560.06,-261.62 460.06,-261.62 460.06,-242.38 560.06,-242.38 560.06,-261.62"/>
<text text-anchor="middle" x="510.06" y="-248.12" font-family="Helvetica,sans-Serif" font-size="10.00">UsbDeviceRequest</text>
</a>
</g>
</g>
<!-- Node6&#45;&gt;Node5 -->
<g id="edge12_Node000005_Node000006" class="edge">
<title>Node6&#45;&gt;Node5</title>
<g id="a_edge12_Node000005_Node000006"><a xlink:title=" ">
<path fill="none" stroke="#9a32cd" stroke-dasharray="5,2" d="M507.43,-231.21C504.69,-217.76 499.16,-200.4 488.06,-189 473.32,-173.87 451.09,-165.39 432.66,-160.69"/>
<polygon fill="#9a32cd" stroke="#9a32cd" points="503.91,-231.39 508.99,-240.69 510.82,-230.26 503.91,-231.39"/>
</a>
</g>
<text text-anchor="middle" x="525.52" y="-196.38" font-family="Helvetica,sans-Serif" font-size="10.00" fill="grey"> m_devReq</text>
</g>
<!-- Node7 -->
<g id="Node000007" class="node">
<title>Node7</title>
<g id="a_Node000007"><a xlink:href="usbd_8h.html#structsce_usbd_multi_isochronous_request" target="_top" xlink:title=" ">
<polygon fill="white" stroke="#bfbfbf" points="743.68,-261.62 578.43,-261.62 578.43,-242.38 743.68,-242.38 743.68,-261.62"/>
<text text-anchor="middle" x="661.06" y="-248.12" font-family="Helvetica,sans-Serif" font-size="10.00">sceUsbdMultiIsochronousRequest</text>
</a>
</g>
</g>
<!-- Node7&#45;&gt;Node5 -->
<g id="edge13_Node000005_Node000007" class="edge">
<title>Node7&#45;&gt;Node5</title>
<g id="a_edge13_Node000005_Node000007"><a xlink:title=" ">
<path fill="none" stroke="#9a32cd" stroke-dasharray="5,2" d="M639.28,-235.68C618.35,-221.61 585.35,-201.17 554.06,-189 513.74,-173.33 464.53,-164.1 432.76,-159.33"/>
<polygon fill="#9a32cd" stroke="#9a32cd" points="637.05,-238.39 647.28,-241.15 641.01,-232.61 637.05,-238.39"/>
</a>
</g>
<text text-anchor="middle" x="614.38" y="-196.38" font-family="Helvetica,sans-Serif" font-size="10.00" fill="grey"> m_req</text>
</g>
<!-- Node8 -->
<g id="Node000008" class="node">
<title>Node8</title>
<g id="a_Node000008"><a xlink:href="usbd_8h.html#structsce_usbd_isochronous_psw_len" target="_top" xlink:title=" ">
<polygon fill="white" stroke="#bfbfbf" points="733.18,-342.62 588.93,-342.62 588.93,-323.38 733.18,-323.38 733.18,-342.62"/>
<text text-anchor="middle" x="661.06" y="-329.12" font-family="Helvetica,sans-Serif" font-size="10.00">sceUsbdIsochronousPswLen</text>
</a>
</g>
</g>
<!-- Node8&#45;&gt;Node7 -->
<g id="edge14_Node000007_Node000008" class="edge">
<title>Node8&#45;&gt;Node7</title>
<g id="a_edge14_Node000007_Node000008"><a xlink:title=" ">
<path fill="none" stroke="#9a32cd" stroke-dasharray="5,2" d="M661.06,-311.54C661.06,-295.49 661.06,-273.92 661.06,-261.96"/>
<polygon fill="#9a32cd" stroke="#9a32cd" points="657.56,-311.42 661.06,-321.42 664.56,-311.42 657.56,-311.42"/>
</a>
</g>
<text text-anchor="middle" x="680.18" y="-294.25" font-family="Helvetica,sans-Serif" font-size="10.00" fill="grey"> Packets</text>
</g>
<!-- Node9 -->
<g id="Node000009" class="node">
<title>Node9</title>
<g id="a_Node000009"><a xlink:href="usbdpriv_8h.html#struct__usbd_report_descriptor" target="_top" xlink:title=" ">
<polygon fill="white" stroke="#bfbfbf" points="655.56,-163.75 540.56,-163.75 540.56,-144.5 655.56,-144.5 655.56,-163.75"/>
<text text-anchor="middle" x="598.06" y="-150.25" font-family="Helvetica,sans-Serif" font-size="10.00">_usbdReportDescriptor</text>
</a>
</g>
</g>
<!-- Node9&#45;&gt;Node2 -->
<g id="edge15_Node000002_Node000009" class="edge">
<title>Node9&#45;&gt;Node2</title>
<g id="a_edge15_Node000002_Node000009"><a xlink:title=" ">
<path fill="none" stroke="#9a32cd" stroke-dasharray="5,2" d="M569.48,-139.17C533.77,-122.13 470.48,-93.24 414.06,-74.25 359.57,-55.91 293.63,-41.31 258.31,-34.08"/>
<polygon fill="#9a32cd" stroke="#9a32cd" points="567.74,-142.22 578.27,-143.39 570.78,-135.91 567.74,-142.22"/>
</a>
</g>
<text text-anchor="start" x="524.48" y="-109.75" font-family="Helvetica,sans-Serif" font-size="10.00" fill="grey"> m_reportDescriptorCurFor</text>
<text text-anchor="middle" x="581.48" y="-98.5" font-family="Helvetica,sans-Serif" font-size="10.00" fill="grey">Fetch</text>
<text text-anchor="middle" x="581.48" y="-87.25" font-family="Helvetica,sans-Serif" font-size="10.00" fill="grey">m_reportDescriptorEnd</text>
<text text-anchor="middle" x="581.48" y="-76" font-family="Helvetica,sans-Serif" font-size="10.00" fill="grey">m_reportDescriptorStart</text>
</g>
<!-- Node9&#45;&gt;Node9 -->
<g id="edge16_Node000009_Node000009" class="edge">
<title>Node9&#45;&gt;Node9</title>
<g id="a_edge16_Node000009_Node000009"><a xlink:title=" ">
<path fill="none" stroke="#9a32cd" stroke-dasharray="5,2" d="M667.1,-160.04C671.14,-158.62 673.56,-156.65 673.56,-154.12 673.56,-149.76 666.33,-147.04 655.98,-145.98"/>
<polygon fill="#9a32cd" stroke="#9a32cd" points="666.59,-156.58 657.47,-161.97 667.96,-163.44 666.59,-156.58"/>
</a>
</g>
<text text-anchor="middle" x="690.43" y="-155.88" font-family="Helvetica,sans-Serif" font-size="10.00" fill="grey"> m_next</text>
<text text-anchor="middle" x="690.43" y="-144.62" font-family="Helvetica,sans-Serif" font-size="10.00" fill="grey">m_prev</text>
</g>
<!-- Node10 -->
<g id="Node000010" class="node">
<title>Node10</title>
<g id="a_Node000010"><a xlink:href="usbdpriv_8h.html#struct__hc_ed" target="_top" xlink:title=" ">
<polygon fill="white" stroke="#bfbfbf" points="290.56,-342.62 247.56,-342.62 247.56,-323.38 290.56,-323.38 290.56,-342.62"/>
<text text-anchor="middle" x="269.06" y="-329.12" font-family="Helvetica,sans-Serif" font-size="10.00">_hcEd</text>
</a>
</g>
</g>
<!-- Node10&#45;&gt;Node1 -->
<g id="edge18_Node000001_Node000010" class="edge">
<title>Node10&#45;&gt;Node1</title>
<g id="a_edge18_Node000001_Node000010"><a xlink:title=" ">
<path fill="none" stroke="#9a32cd" stroke-dasharray="5,2" d="M269.06,-311.54C269.06,-295.49 269.06,-273.92 269.06,-261.96"/>
<polygon fill="#9a32cd" stroke="#9a32cd" points="265.56,-311.42 269.06,-321.42 272.56,-311.42 265.56,-311.42"/>
</a>
</g>
<text text-anchor="middle" x="287.81" y="-294.25" font-family="Helvetica,sans-Serif" font-size="10.00" fill="grey"> m_hcEd</text>
</g>
<!-- Node10&#45;&gt;Node10 -->
<g id="edge23_Node000010_Node000010" class="edge">
<title>Node10&#45;&gt;Node10</title>
<g id="a_edge23_Node000010_Node000010"><a xlink:title=" ">
<path fill="none" stroke="#9a32cd" stroke-dasharray="5,2" d="M302.39,-338.53C306.13,-337.49 308.56,-335.64 308.56,-333 308.56,-328.16 300.45,-326.01 290.99,-326.54"/>
<polygon fill="#9a32cd" stroke="#9a32cd" points="302.18,-335.03 292.5,-339.34 302.75,-342.01 302.18,-335.03"/>
</a>
</g>
<text text-anchor="middle" x="325.43" y="-329.12" font-family="Helvetica,sans-Serif" font-size="10.00" fill="grey"> m_next</text>
</g>
<!-- Node11 -->
<g id="Node000011" class="node">
<title>Node11</title>
<g id="a_Node000011"><a xlink:href="usbdpriv_8h.html#union__hc_ed_hc_area_u" target="_top" xlink:title=" ">
<polygon fill="white" stroke="#bfbfbf" points="268.81,-422 185.31,-422 185.31,-402.75 268.81,-402.75 268.81,-422"/>
<text text-anchor="middle" x="227.06" y="-408.5" font-family="Helvetica,sans-Serif" font-size="10.00">_hcEdHcAreaU</text>
</a>
</g>
</g>
<!-- Node11&#45;&gt;Node10 -->
<g id="edge19_Node000010_Node000011" class="edge">
<title>Node11&#45;&gt;Node10</title>
<g id="a_edge19_Node000010_Node000011"><a xlink:title=" ">
<path fill="none" stroke="#9a32cd" stroke-dasharray="5,2" d="M226.36,-391.04C226.86,-381.74 228.66,-370.9 233.56,-362.25 238.06,-354.3 245.77,-347.75 252.86,-342.97"/>
<polygon fill="#9a32cd" stroke="#9a32cd" points="222.86,-390.88 226.31,-400.9 229.86,-390.91 222.86,-390.88"/>
</a>
</g>
<text text-anchor="middle" x="256.81" y="-369.62" font-family="Helvetica,sans-Serif" font-size="10.00" fill="grey"> m_hcArea</text>
</g>
<!-- Node12 -->
<g id="Node000012" class="node">
<title>Node12</title>
<g id="a_Node000012"><a xlink:href="usbdpriv_8h.html#struct__hc_ed_hc_area" target="_top" xlink:title=" ">
<polygon fill="white" stroke="#bfbfbf" points="265.06,-488.5 189.06,-488.5 189.06,-469.25 265.06,-469.25 265.06,-488.5"/>
<text text-anchor="middle" x="227.06" y="-475" font-family="Helvetica,sans-Serif" font-size="10.00">_hcEdHcArea</text>
</a>
</g>
</g>
<!-- Node12&#45;&gt;Node11 -->
<g id="edge20_Node000011_Node000012" class="edge">
<title>Node12&#45;&gt;Node11</title>
<g id="a_edge20_Node000011_Node000012"><a xlink:title=" ">
<path fill="none" stroke="#9a32cd" stroke-dasharray="5,2" d="M227.06,-457.4C227.06,-445.57 227.06,-431.29 227.06,-422.27"/>
<polygon fill="#9a32cd" stroke="#9a32cd" points="223.56,-457.39 227.06,-467.39 230.56,-457.39 223.56,-457.39"/>
</a>
</g>
<text text-anchor="middle" x="236.43" y="-441.75" font-family="Helvetica,sans-Serif" font-size="10.00" fill="grey"> stru</text>
</g>
<!-- Node13 -->
<g id="Node000013" class="node">
<title>Node13</title>
<g id="a_Node000013"><a xlink:href="usbdpriv_8h.html#struct__hc_td" target="_top" xlink:title=" ">
<polygon fill="white" stroke="#bfbfbf" points="329.56,-422 286.56,-422 286.56,-402.75 329.56,-402.75 329.56,-422"/>
<text text-anchor="middle" x="308.06" y="-408.5" font-family="Helvetica,sans-Serif" font-size="10.00">_hcTd</text>
</a>
</g>
</g>
<!-- Node13&#45;&gt;Node10 -->
<g id="edge21_Node000010_Node000013" class="edge">
<title>Node13&#45;&gt;Node10</title>
<g id="a_edge21_Node000010_Node000013"><a xlink:title=" ">
<path fill="none" stroke="#9a32cd" stroke-dasharray="5,2" d="M298.42,-392.26C290.45,-376.45 279.5,-354.73 273.48,-342.77"/>
<polygon fill="#9a32cd" stroke="#9a32cd" points="295.27,-393.79 302.9,-401.15 301.53,-390.64 295.27,-393.79"/>
</a>
</g>
<text text-anchor="middle" x="317.95" y="-375.25" font-family="Helvetica,sans-Serif" font-size="10.00" fill="grey"> m_tdHead</text>
<text text-anchor="middle" x="317.95" y="-364" font-family="Helvetica,sans-Serif" font-size="10.00" fill="grey">m_tdTail</text>
</g>
<!-- Node13&#45;&gt;Node13 -->
<g id="edge22_Node000013_Node000013" class="edge">
<title>Node13&#45;&gt;Node13</title>
<g id="a_edge22_Node000013_Node000013"><a xlink:title=" ">
<path fill="none" stroke="#9a32cd" stroke-dasharray="5,2" d="M341.39,-417.64C345.13,-416.65 347.56,-414.9 347.56,-412.38 347.56,-407.76 339.45,-405.71 329.99,-406.22"/>
<polygon fill="#9a32cd" stroke="#9a32cd" points="341.2,-414.15 331.5,-418.42 341.74,-421.13 341.2,-414.15"/>
</a>
</g>
<text text-anchor="middle" x="364.43" y="-408.5" font-family="Helvetica,sans-Serif" font-size="10.00" fill="grey"> m_next</text>
</g>
</g>
</svg>
