<?xml version="1.0" encoding="UTF-8" standalone="no"?>
<!DOCTYPE svg PUBLIC "-//W3C//DTD SVG 1.1//EN"
 "http://www.w3.org/Graphics/SVG/1.1/DTD/svg11.dtd">
<!-- Generated by graphviz version 2.44.0 ()
 -->
<!-- Title: pfs_mount_t Pages: 1 -->
<svg width="210pt" height="117pt"
 viewBox="0.00 0.00 210.00 117.00" xmlns="http://www.w3.org/2000/svg" xmlns:xlink="http://www.w3.org/1999/xlink">
<g id="graph0" class="graph" transform="scale(1 1) rotate(0) translate(4 113)">
<title>pfs_mount_t</title>
<polygon fill="white" stroke="transparent" points="-4,4 -4,-113 206,-113 206,4 -4,4"/>
<!-- Node1 -->
<g id="node1" class="node">
<title>Node1</title>
<g id="a_node1"><a xlink:title=" ">
<polygon fill="#bfbfbf" stroke="black" points="61,-0.5 61,-19.5 132,-19.5 132,-0.5 61,-0.5"/>
<text text-anchor="middle" x="96.5" y="-7.5" font-family="Helvetica,sans-Serif" font-size="10.00">pfs_mount_t</text>
</a>
</g>
</g>
<!-- Node2 -->
<g id="node2" class="node">
<title>Node2</title>
<g id="a_node2"><a xlink:href="structpfs__blockinfo__t.html" target="_top" xlink:title=" ">
<polygon fill="white" stroke="black" points="0,-89.5 0,-108.5 83,-108.5 83,-89.5 0,-89.5"/>
<text text-anchor="middle" x="41.5" y="-96.5" font-family="Helvetica,sans-Serif" font-size="10.00">pfs_blockinfo_t</text>
</a>
</g>
</g>
<!-- Node2&#45;&gt;Node1 -->
<g id="edge1" class="edge">
<title>Node2&#45;&gt;Node1</title>
<path fill="none" stroke="#9a32cd" stroke-dasharray="5,2" d="M52.41,-80.74C64.07,-62.3 82.08,-33.8 91.05,-19.62"/>
<polygon fill="#9a32cd" stroke="#9a32cd" points="49.36,-79.02 46.97,-89.34 55.28,-82.76 49.36,-79.02"/>
<text text-anchor="middle" x="104" y="-63" font-family="Helvetica,sans-Serif" font-size="10.00"> current_dir</text>
<text text-anchor="middle" x="104" y="-52" font-family="Helvetica,sans-Serif" font-size="10.00">log</text>
<text text-anchor="middle" x="104" y="-41" font-family="Helvetica,sans-Serif" font-size="10.00">root_dir</text>
</g>
<!-- Node3 -->
<g id="node3" class="node">
<title>Node3</title>
<g id="a_node3"><a xlink:href="structpfs__block__device__t.html" target="_top" xlink:title=" ">
<polygon fill="white" stroke="black" points="101,-89.5 101,-108.5 202,-108.5 202,-89.5 101,-89.5"/>
<text text-anchor="middle" x="151.5" y="-96.5" font-family="Helvetica,sans-Serif" font-size="10.00">pfs_block_device_t</text>
</a>
</g>
</g>
<!-- Node3&#45;&gt;Node1 -->
<g id="edge2" class="edge">
<title>Node3&#45;&gt;Node1</title>
<path fill="none" stroke="#9a32cd" stroke-dasharray="5,2" d="M147.42,-79.37C144.05,-66.86 138.35,-50.45 129.5,-38 124.35,-30.76 116.78,-24.38 110.19,-19.64"/>
<polygon fill="#9a32cd" stroke="#9a32cd" points="144.04,-80.28 149.81,-89.17 150.84,-78.62 144.04,-80.28"/>
<text text-anchor="middle" x="166" y="-52" font-family="Helvetica,sans-Serif" font-size="10.00"> blockDev</text>
</g>
</g>
</svg>
