<?xml version="1.0" encoding="UTF-8" standalone="no"?>
<!DOCTYPE svg PUBLIC "-//W3C//DTD SVG 1.1//EN"
 "http://www.w3.org/Graphics/SVG/1.1/DTD/svg11.dtd">
<!-- Generated by graphviz version 2.44.0 ()
 -->
<!-- Title: symbol_t Pages: 1 -->
<svg width="189pt" height="320pt"
 viewBox="0.00 0.00 189.00 320.00" xmlns="http://www.w3.org/2000/svg" xmlns:xlink="http://www.w3.org/1999/xlink">
<g id="graph0" class="graph" transform="scale(1 1) rotate(0) translate(4 316)">
<title>symbol_t</title>
<polygon fill="white" stroke="transparent" points="-4,4 -4,-316 185,-316 185,4 -4,4"/>
<!-- Node1 -->
<g id="node1" class="node">
<title>Node1</title>
<g id="a_node1"><a xlink:title=" ">
<polygon fill="#bfbfbf" stroke="black" points="40.5,-0.5 40.5,-19.5 96.5,-19.5 96.5,-0.5 40.5,-0.5"/>
<text text-anchor="middle" x="68.5" y="-7.5" font-family="Helvetica,sans-Serif" font-size="10.00">symbol_t</text>
</a>
</g>
</g>
<!-- Node2 -->
<g id="node2" class="node">
<title>Node2</title>
<g id="a_node2"><a xlink:href="erl_8h.html#structerl__record__t" target="_top" xlink:title=" ">
<polygon fill="white" stroke="black" points="34.5,-68.5 34.5,-87.5 102.5,-87.5 102.5,-68.5 34.5,-68.5"/>
<text text-anchor="middle" x="68.5" y="-75.5" font-family="Helvetica,sans-Serif" font-size="10.00">erl_record_t</text>
</a>
</g>
</g>
<!-- Node2&#45;&gt;Node1 -->
<g id="edge1" class="edge">
<title>Node2&#45;&gt;Node1</title>
<path fill="none" stroke="#9a32cd" stroke-dasharray="5,2" d="M68.5,-58.04C68.5,-45.47 68.5,-29.56 68.5,-19.84"/>
<polygon fill="#9a32cd" stroke="#9a32cd" points="65,-58.37 68.5,-68.37 72,-58.37 65,-58.37"/>
<text text-anchor="middle" x="87" y="-41" font-family="Helvetica,sans-Serif" font-size="10.00"> provider</text>
</g>
<!-- Node2&#45;&gt;Node2 -->
<g id="edge2" class="edge">
<title>Node2&#45;&gt;Node2</title>
<path fill="none" stroke="#9a32cd" stroke-dasharray="5,2" d="M112.65,-83.33C117.42,-82.31 120.5,-80.53 120.5,-78 120.5,-73.95 112.63,-71.83 102.51,-71.64"/>
<polygon fill="#9a32cd" stroke="#9a32cd" points="112.1,-79.87 102.51,-84.36 112.81,-86.83 112.1,-79.87"/>
<text text-anchor="middle" x="131" y="-81" font-family="Helvetica,sans-Serif" font-size="10.00"> next</text>
<text text-anchor="middle" x="131" y="-70" font-family="Helvetica,sans-Serif" font-size="10.00">prev</text>
</g>
<!-- Node3 -->
<g id="node3" class="node">
<title>Node3</title>
<g id="a_node3"><a xlink:href="structhtab.html" target="_top" xlink:title=" ">
<polygon fill="white" stroke="black" points="51,-136.5 51,-155.5 86,-155.5 86,-136.5 51,-136.5"/>
<text text-anchor="middle" x="68.5" y="-143.5" font-family="Helvetica,sans-Serif" font-size="10.00">htab</text>
</a>
</g>
</g>
<!-- Node3&#45;&gt;Node2 -->
<g id="edge3" class="edge">
<title>Node3&#45;&gt;Node2</title>
<path fill="none" stroke="#9a32cd" stroke-dasharray="5,2" d="M68.5,-126.04C68.5,-113.47 68.5,-97.56 68.5,-87.84"/>
<polygon fill="#9a32cd" stroke="#9a32cd" points="65,-126.37 68.5,-136.37 72,-126.37 65,-126.37"/>
<text text-anchor="middle" x="88" y="-110" font-family="Helvetica,sans-Serif" font-size="10.00"> symbols</text>
</g>
<!-- Node4 -->
<g id="node4" class="node">
<title>Node4</title>
<g id="a_node4"><a xlink:href="structhitem.html" target="_top" xlink:title=" ">
<polygon fill="white" stroke="black" points="0,-214.5 0,-233.5 41,-233.5 41,-214.5 0,-214.5"/>
<text text-anchor="middle" x="20.5" y="-221.5" font-family="Helvetica,sans-Serif" font-size="10.00">hitem</text>
</a>
</g>
</g>
<!-- Node4&#45;&gt;Node3 -->
<g id="edge4" class="edge">
<title>Node4&#45;&gt;Node3</title>
<path fill="none" stroke="#9a32cd" stroke-dasharray="5,2" d="M31.51,-205.57C41.37,-189.95 55.43,-167.7 63.06,-155.62"/>
<polygon fill="#9a32cd" stroke="#9a32cd" points="28.39,-203.96 26.01,-214.28 34.31,-207.7 28.39,-203.96"/>
<text text-anchor="middle" x="60.5" y="-188" font-family="Helvetica,sans-Serif" font-size="10.00"> ipos</text>
<text text-anchor="middle" x="60.5" y="-177" font-family="Helvetica,sans-Serif" font-size="10.00">table</text>
</g>
<!-- Node4&#45;&gt;Node4 -->
<g id="edge5" class="edge">
<title>Node4&#45;&gt;Node4</title>
<path fill="none" stroke="#9a32cd" stroke-dasharray="5,2" d="M51.32,-230.46C55.9,-229.46 59,-227.3 59,-224 59,-218.58 50.65,-216.25 41.1,-217.02"/>
<polygon fill="#9a32cd" stroke="#9a32cd" points="50.91,-226.98 41.1,-230.98 51.26,-233.97 50.91,-226.98"/>
<text text-anchor="middle" x="69.5" y="-221.5" font-family="Helvetica,sans-Serif" font-size="10.00"> next</text>
</g>
<!-- Node5 -->
<g id="node5" class="node">
<title>Node5</title>
<g id="a_node5"><a xlink:href="structreroot.html" target="_top" xlink:title=" ">
<polygon fill="white" stroke="black" points="98,-214.5 98,-233.5 139,-233.5 139,-214.5 98,-214.5"/>
<text text-anchor="middle" x="118.5" y="-221.5" font-family="Helvetica,sans-Serif" font-size="10.00">reroot</text>
</a>
</g>
</g>
<!-- Node5&#45;&gt;Node3 -->
<g id="edge6" class="edge">
<title>Node5&#45;&gt;Node3</title>
<path fill="none" stroke="#9a32cd" stroke-dasharray="5,2" d="M107.03,-205.57C96.76,-189.95 82.12,-167.7 74.17,-155.62"/>
<polygon fill="#9a32cd" stroke="#9a32cd" points="104.34,-207.85 112.76,-214.28 110.19,-204 104.34,-207.85"/>
<text text-anchor="middle" x="113" y="-182.5" font-family="Helvetica,sans-Serif" font-size="10.00"> space</text>
</g>
<!-- Node6 -->
<g id="node6" class="node">
<title>Node6</title>
<g id="a_node6"><a xlink:href="structrecycle.html" target="_top" xlink:title=" ">
<polygon fill="white" stroke="black" points="95,-292.5 95,-311.5 142,-311.5 142,-292.5 95,-292.5"/>
<text text-anchor="middle" x="118.5" y="-299.5" font-family="Helvetica,sans-Serif" font-size="10.00">recycle</text>
</a>
</g>
</g>
<!-- Node6&#45;&gt;Node5 -->
<g id="edge7" class="edge">
<title>Node6&#45;&gt;Node5</title>
<path fill="none" stroke="#9a32cd" stroke-dasharray="5,2" d="M118.5,-282.22C118.5,-266.7 118.5,-245.36 118.5,-233.62"/>
<polygon fill="#9a32cd" stroke="#9a32cd" points="115,-282.28 118.5,-292.28 122,-282.28 115,-282.28"/>
<text text-anchor="middle" x="129.5" y="-266" font-family="Helvetica,sans-Serif" font-size="10.00"> list</text>
<text text-anchor="middle" x="129.5" y="-255" font-family="Helvetica,sans-Serif" font-size="10.00">trash</text>
</g>
<!-- Node6&#45;&gt;Node6 -->
<g id="edge8" class="edge">
<title>Node6&#45;&gt;Node6</title>
<path fill="none" stroke="#9a32cd" stroke-dasharray="5,2" d="M152.51,-308.29C157.01,-307.22 160,-305.12 160,-302 160,-296.88 151.96,-294.52 142.38,-294.92"/>
<polygon fill="#9a32cd" stroke="#9a32cd" points="152.08,-304.81 142.38,-309.08 152.63,-311.79 152.08,-304.81"/>
<text text-anchor="middle" x="170.5" y="-299.5" font-family="Helvetica,sans-Serif" font-size="10.00"> next</text>
</g>
</g>
</svg>
