<?xml version="1.0" encoding="UTF-8" standalone="no"?>
<!DOCTYPE svg PUBLIC "-//W3C//DTD SVG 1.1//EN"
 "http://www.w3.org/Graphics/SVG/1.1/DTD/svg11.dtd">
<!-- Generated by graphviz version 12.2.0 (20241103.1931)
 -->
<!-- Title: pfs_mount_t Pages: 1 -->
<svg width="208pt" height="116pt"
 viewBox="0.00 0.00 208.00 116.25" xmlns="http://www.w3.org/2000/svg" xmlns:xlink="http://www.w3.org/1999/xlink">
<g id="graph0" class="graph" transform="scale(1 1) rotate(0) translate(4 112.25)">
<title>pfs_mount_t</title>
<!-- Node1 -->
<g id="Node000001" class="node">
<title>Node1</title>
<g id="a_Node000001"><a xlink:title=" ">
<polygon fill="#999999" stroke="#666666" points="139,-19.25 69,-19.25 69,0 139,0 139,-19.25"/>
<text text-anchor="middle" x="104" y="-5.75" font-family="Helvetica,sans-Serif" font-size="10.00">pfs_mount_t</text>
</a>
</g>
</g>
<!-- Node2 -->
<g id="Node000002" class="node">
<title>Node2</title>
<g id="a_Node000002"><a xlink:href="structpfs__block__device__t.html" target="_top" xlink:title=" ">
<polygon fill="white" stroke="#bfbfbf" points="100,-108.25 0,-108.25 0,-89 100,-89 100,-108.25"/>
<text text-anchor="middle" x="50" y="-94.75" font-family="Helvetica,sans-Serif" font-size="10.00">pfs_block_device_t</text>
</a>
</g>
</g>
<!-- Node2&#45;&gt;Node1 -->
<g id="edge1_Node000001_Node000002" class="edge">
<title>Node2&#45;&gt;Node1</title>
<g id="a_edge1_Node000001_Node000002"><a xlink:title=" ">
<path fill="none" stroke="#9a32cd" stroke-dasharray="5,2" d="M61.51,-79.08C72.85,-60.81 89.69,-33.68 98.37,-19.69"/>
<polygon fill="#9a32cd" stroke="#9a32cd" points="58.67,-77.01 56.37,-87.36 64.62,-80.71 58.67,-77.01"/>
</a>
</g>
<text text-anchor="middle" x="107.91" y="-50.25" font-family="Helvetica,sans-Serif" font-size="10.00" fill="grey"> blockDev</text>
</g>
<!-- Node3 -->
<g id="Node000003" class="node">
<title>Node3</title>
<g id="a_Node000003"><a xlink:href="structpfs__blockinfo__t.html" target="_top" xlink:title=" ">
<polygon fill="white" stroke="#bfbfbf" points="200,-108.25 118,-108.25 118,-89 200,-89 200,-108.25"/>
<text text-anchor="middle" x="159" y="-94.75" font-family="Helvetica,sans-Serif" font-size="10.00">pfs_blockinfo_t</text>
</a>
</g>
</g>
<!-- Node3&#45;&gt;Node1 -->
<g id="edge2_Node000001_Node000003" class="edge">
<title>Node3&#45;&gt;Node1</title>
<g id="a_edge2_Node000001_Node000003"><a xlink:title=" ">
<path fill="none" stroke="#9a32cd" stroke-dasharray="5,2" d="M152.9,-77.92C148.51,-65.56 141.82,-49.67 133,-37.25 128.25,-30.56 121.58,-24.29 115.84,-19.52"/>
<polygon fill="#9a32cd" stroke="#9a32cd" points="149.57,-79 156.03,-87.4 156.22,-76.81 149.57,-79"/>
</a>
</g>
<text text-anchor="middle" x="174.08" y="-61.5" font-family="Helvetica,sans-Serif" font-size="10.00" fill="grey"> current_dir</text>
<text text-anchor="middle" x="174.08" y="-50.25" font-family="Helvetica,sans-Serif" font-size="10.00" fill="grey">log</text>
<text text-anchor="middle" x="174.08" y="-39" font-family="Helvetica,sans-Serif" font-size="10.00" fill="grey">root_dir</text>
</g>
</g>
</svg>
