<?xml version="1.0" encoding="UTF-8" standalone="no"?>
<!DOCTYPE svg PUBLIC "-//W3C//DTD SVG 1.1//EN"
 "http://www.w3.org/Graphics/SVG/1.1/DTD/svg11.dtd">
<!-- Generated by graphviz version 9.0.0 (20230911.1827)
 -->
<!-- Title: _libcglue_fdman_socket_ops_ Pages: 1 -->
<!--zoomable 239 -->

<svg id="main" version="1.1" xmlns="http://www.w3.org/2000/svg" xmlns:xlink="http://www.w3.org/1999/xlink" xml:space="preserve" onload="init(evt)">
<style type="text/css"><![CDATA[
.node, .edge {opacity: 0.7;}
.node.selected, .edge.selected {opacity: 1;}
.edge:hover path { stroke: red; }
.edge:hover polygon { stroke: red; fill: red; }
]]></style>

<defs>
  <circle id="rim" cx="0" cy="0" r="7"/>
  <circle id="rim2" cx="0" cy="0" r="3.5"/>
  <g id="zoomPlus">
    <use xlink:href="#rim" fill="#404040"><set attributeName="fill" to="#808080" begin="zoomplus.mouseover" end="zoomplus.mouseout"/></use>
    <path d="M-4,0h8M0,-4v8" fill="none" stroke="white" stroke-width="1.5" pointer-events="none"/>
  </g>
  <g id="zoomMin">
    <use xlink:href="#rim" fill="#404040"><set attributeName="fill" to="#808080" begin="zoomminus.mouseover" end="zoomminus.mouseout"/></use>
    <path d="M-4,0h8" fill="none" stroke="white" stroke-width="1.5" pointer-events="none"/>
  </g>
  <g id="arrowUp" transform="translate(30 24)">
    <use xlink:href="#rim"/>
    <path pointer-events="none" fill="none" stroke="white" stroke-width="1.5" d="M0,-3.0v7 M-2.5,-0.5L0,-3.0L2.5,-0.5"/>
  </g>
  <g id="arrowRight" transform="rotate(90) translate(36 -43)">
    <use xlink:href="#rim"/>
    <path pointer-events="none" fill="none" stroke="white" stroke-width="1.5" d="M0,-3.0v7 M-2.5,-0.5L0,-3.0L2.5,-0.5"/>
  </g>
  <g id="arrowDown" transform="rotate(180) translate(-30 -48)">
    <use xlink:href="#rim"/>
    <path pointer-events="none" fill="none" stroke="white" stroke-width="1.5" d="M0,-3.0v7 M-2.5,-0.5L0,-3.0L2.5,-0.5"/>
  </g>
  <g id="arrowLeft" transform="rotate(270) translate(-36 17)">
    <use xlink:href="#rim"/>
    <path pointer-events="none" fill="none" stroke="white" stroke-width="1.5" d="M0,-3.0v7 M-2.5,-0.5L0,-3.0L2.5,-0.5"/>
  </g>
  <g id="resetDef">
    <use xlink:href="#rim2" fill="#404040"><set attributeName="fill" to="#808080" begin="reset.mouseover" end="reset.mouseout"/></use>
  </g>
</defs>
<script type="application/ecmascript">
var viewWidth = 617;
var viewHeight = 239;
var sectionId = 'dynsection-0';
</script>
<script type="application/ecmascript" xlink:href="svg.min.js"/>
<svg id="graph" class="graph">
<g id="viewport">
<title>_libcglue_fdman_socket_ops_</title>
<!-- Node1 -->
<g id="Node000001" class="node">
<title>Node1</title>
<g id="a_Node000001"><a xlink:title=" ">
<polygon fill="#999999" stroke="#666666" points="313,-19.25 165.75,-19.25 165.75,0 313,0 313,-19.25"/>
<text text-anchor="middle" x="239.38" y="-5.75" font-family="Helvetica,sans-Serif" font-size="10.00">_libcglue_fdman_socket_ops_</text>
</a>
</g>
</g>
<!-- Node2 -->
<g id="Node000002" class="node">
<title>Node2</title>
<g id="a_Node000002"><a xlink:href="structt__ip__info.html" target="_top" xlink:title=" ">
<polygon fill="white" stroke="#666666" points="52.75,-97 0,-97 0,-77.75 52.75,-77.75 52.75,-97"/>
<text text-anchor="middle" x="26.38" y="-83.5" font-family="Helvetica,sans-Serif" font-size="10.00">t_ip_info</text>
</a>
</g>
</g>
<!-- Node2&#45;&gt;Node1 -->
<g id="edge1_Node000001_Node000002" class="edge">
<title>Node2&#45;&gt;Node1</title>
<g id="a_edge1_Node000001_Node000002"><a xlink:title=" ">
<path fill="none" stroke="#9a32cd" stroke-dasharray="5,2" d="M29.9,-66.5C32.78,-56.18 37.94,-44.3 47.12,-37.25 65.47,-23.18 119.41,-16.54 165.49,-13.41"/>
<polygon fill="#9a32cd" stroke="#9a32cd" points="26.53,-65.5 27.79,-76.02 33.37,-67.02 26.53,-65.5"/>
</a>
</g>
<text text-anchor="middle" x="68" y="-50.25" font-family="Helvetica,sans-Serif" font-size="10.00" fill="grey"> getconfig</text>
<text text-anchor="middle" x="68" y="-39" font-family="Helvetica,sans-Serif" font-size="10.00" fill="grey">setconfig</text>
</g>
<!-- Node3 -->
<g id="Node000003" class="node">
<title>Node3</title>
<g id="a_Node000003"><a xlink:href="tcpip_8h.html#structin__addr" target="_top" xlink:title=" ">
<polygon fill="white" stroke="#bfbfbf" points="50.12,-225.38 2.62,-225.38 2.62,-206.12 50.12,-206.12 50.12,-225.38"/>
<text text-anchor="middle" x="26.38" y="-211.88" font-family="Helvetica,sans-Serif" font-size="10.00">in_addr</text>
</a>
</g>
</g>
<!-- Node3&#45;&gt;Node2 -->
<g id="edge2_Node000002_Node000003" class="edge">
<title>Node3&#45;&gt;Node2</title>
<g id="a_edge2_Node000002_Node000003"><a xlink:title=" ">
<path fill="none" stroke="#9a32cd" stroke-dasharray="5,2" d="M26.38,-194.52C26.38,-166.62 26.38,-117.52 26.38,-97.38"/>
<polygon fill="#9a32cd" stroke="#9a32cd" points="22.88,-194.15 26.38,-204.15 29.88,-194.15 22.88,-194.15"/>
</a>
</g>
<text text-anchor="middle" x="45.12" y="-156.12" font-family="Helvetica,sans-Serif" font-size="10.00" fill="grey"> gw</text>
<text text-anchor="middle" x="45.12" y="-144.88" font-family="Helvetica,sans-Serif" font-size="10.00" fill="grey">ipaddr</text>
<text text-anchor="middle" x="45.12" y="-133.62" font-family="Helvetica,sans-Serif" font-size="10.00" fill="grey">netmask</text>
</g>
<!-- Node4 -->
<g id="Node000004" class="node">
<title>Node4</title>
<g id="a_Node000004"><a xlink:href="tcpip_8h.html#structip4__addr" target="_top" xlink:title=" ">
<polygon fill="white" stroke="#666666" points="123.75,-97 71,-97 71,-77.75 123.75,-77.75 123.75,-97"/>
<text text-anchor="middle" x="97.38" y="-83.5" font-family="Helvetica,sans-Serif" font-size="10.00">ip4_addr</text>
</a>
</g>
</g>
<!-- Node4&#45;&gt;Node1 -->
<g id="edge3_Node000001_Node000004" class="edge">
<title>Node4&#45;&gt;Node1</title>
<g id="a_edge3_Node000001_Node000004"><a xlink:title=" ">
<path fill="none" stroke="#9a32cd" stroke-dasharray="5,2" d="M92.47,-66.35C91.29,-56.51 91.94,-45.11 98.62,-37.25 107.77,-26.5 136.47,-20.05 165.59,-16.2"/>
<polygon fill="#9a32cd" stroke="#9a32cd" points="89.02,-66.94 94.34,-76.1 95.9,-65.62 89.02,-66.94"/>
</a>
</g>
<text text-anchor="middle" x="131.25" y="-50.25" font-family="Helvetica,sans-Serif" font-size="10.00" fill="grey"> dns_getserver</text>
<text text-anchor="middle" x="131.25" y="-39" font-family="Helvetica,sans-Serif" font-size="10.00" fill="grey">dns_setserver</text>
</g>
<!-- Node5 -->
<g id="Node000005" class="node">
<title>Node5</title>
<g id="a_Node000005"><a xlink:href="struct__libcglue__fdman__fd__info__.html" target="_top" xlink:title=" ">
<polygon fill="white" stroke="#bfbfbf" points="259.38,-231 159.38,-231 159.38,-200.5 259.38,-200.5 259.38,-231"/>
<text text-anchor="start" x="167.38" y="-217.5" font-family="Helvetica,sans-Serif" font-size="10.00">_libcglue_fdman_fd</text>
<text text-anchor="middle" x="209.38" y="-206.25" font-family="Helvetica,sans-Serif" font-size="10.00">_info_</text>
</a>
</g>
</g>
<!-- Node5&#45;&gt;Node1 -->
<g id="edge4_Node000001_Node000005" class="edge">
<title>Node5&#45;&gt;Node1</title>
<g id="a_edge4_Node000001_Node000005"><a xlink:title=" ">
<path fill="none" stroke="#9a32cd" stroke-dasharray="5,2" d="M195.03,-189.93C194,-187.47 193.09,-184.97 192.38,-182.5 179.46,-137.68 170.48,-121.78 185.88,-77.75 194.34,-53.56 215.58,-31.57 228.61,-19.75"/>
<polygon fill="#9a32cd" stroke="#9a32cd" points="191.86,-191.4 199.41,-198.84 198.14,-188.32 191.86,-191.4"/>
</a>
</g>
<text text-anchor="middle" x="202.12" y="-83.5" font-family="Helvetica,sans-Serif" font-size="10.00" fill="grey"> socket</text>
</g>
<!-- Node6 -->
<g id="Node000006" class="node">
<title>Node6</title>
<g id="a_Node000006"><a xlink:href="struct__libcglue__fdman__fd__ops__.html" target="_top" xlink:title=" ">
<polygon fill="white" stroke="#bfbfbf" points="352.5,-97 226.25,-97 226.25,-77.75 352.5,-77.75 352.5,-97"/>
<text text-anchor="middle" x="289.38" y="-83.5" font-family="Helvetica,sans-Serif" font-size="10.00">_libcglue_fdman_fd_ops_</text>
</a>
</g>
</g>
<!-- Node5&#45;&gt;Node6 -->
<g id="edge7_Node000006_Node000005" class="edge">
<title>Node5&#45;&gt;Node6</title>
<g id="a_edge7_Node000006_Node000005"><a xlink:title=" ">
<path fill="none" stroke="#9a32cd" stroke-dasharray="5,2" d="M200.79,-189.22C195.16,-167.41 191.39,-136.27 206.88,-115 212.72,-106.97 221.04,-101.31 230.16,-97.33"/>
<polygon fill="#9a32cd" stroke="#9a32cd" points="197.42,-190.18 203.57,-198.81 204.14,-188.23 197.42,-190.18"/>
</a>
</g>
<text text-anchor="middle" x="223.12" y="-144.88" font-family="Helvetica,sans-Serif" font-size="10.00" fill="grey"> accept</text>
</g>
<!-- Node6&#45;&gt;Node5 -->
<g id="edge5_Node000005_Node000006" class="edge">
<title>Node6&#45;&gt;Node5</title>
<g id="a_edge5_Node000005_Node000006"><a xlink:title=" ">
<path fill="none" stroke="#9a32cd" stroke-dasharray="5,2" d="M275.55,-106.62C273.71,-109.36 271.92,-112.21 270.38,-115 254.62,-143.4 260.58,-155.6 242.38,-182.5 238.06,-188.87 232.35,-195 226.88,-200.17"/>
<polygon fill="#9a32cd" stroke="#9a32cd" points="278.29,-108.8 281.27,-98.63 272.6,-104.72 278.29,-108.8"/>
</a>
</g>
<text text-anchor="middle" x="279.38" y="-144.88" font-family="Helvetica,sans-Serif" font-size="10.00" fill="grey"> ops</text>
</g>
<!-- Node7 -->
<g id="Node000007" class="node">
<title>Node7</title>
<g id="a_Node000007"><a xlink:href="thread_8c.html#structrequest" target="_top" xlink:title=" ">
<polygon fill="white" stroke="#bfbfbf" points="329.5,-225.38 281.25,-225.38 281.25,-206.12 329.5,-206.12 329.5,-225.38"/>
<text text-anchor="middle" x="305.38" y="-211.88" font-family="Helvetica,sans-Serif" font-size="10.00">request</text>
</a>
</g>
</g>
<!-- Node7&#45;&gt;Node6 -->
<g id="edge6_Node000006_Node000007" class="edge">
<title>Node7&#45;&gt;Node6</title>
<g id="a_edge6_Node000006_Node000007"><a xlink:title=" ">
<path fill="none" stroke="#9a32cd" stroke-dasharray="5,2" d="M302.81,-194.52C299.28,-166.62 293.07,-117.52 290.52,-97.38"/>
<polygon fill="#9a32cd" stroke="#9a32cd" points="299.31,-194.68 304.03,-204.16 306.25,-193.8 299.31,-194.68"/>
</a>
</g>
<text text-anchor="middle" x="312" y="-150.5" font-family="Helvetica,sans-Serif" font-size="10.00" fill="grey"> ioctl</text>
<text text-anchor="middle" x="312" y="-139.25" font-family="Helvetica,sans-Serif" font-size="10.00" fill="grey">ioctl2</text>
</g>
<!-- Node8 -->
<g id="Node000008" class="node">
<title>Node8</title>
<g id="a_Node000008"><a xlink:href="tcpip_8h.html#structsockaddr" target="_top" xlink:title=" ">
<polygon fill="white" stroke="#bfbfbf" points="432.25,-225.38 376.5,-225.38 376.5,-206.12 432.25,-206.12 432.25,-225.38"/>
<text text-anchor="middle" x="404.38" y="-211.88" font-family="Helvetica,sans-Serif" font-size="10.00">sockaddr</text>
</a>
</g>
</g>
<!-- Node8&#45;&gt;Node6 -->
<g id="edge8_Node000006_Node000008" class="edge">
<title>Node8&#45;&gt;Node6</title>
<g id="a_edge8_Node000006_Node000008"><a xlink:title=" ">
<path fill="none" stroke="#9a32cd" stroke-dasharray="5,2" d="M370.52,-200.35C362.53,-195.63 354.66,-189.71 348.88,-182.5 329.17,-157.95 346.03,-140.37 327.38,-115 322.03,-107.73 314.09,-101.73 306.85,-97.27"/>
<polygon fill="#9a32cd" stroke="#9a32cd" points="368.75,-203.37 379.22,-204.97 372.03,-197.19 368.75,-203.37"/>
</a>
</g>
<text text-anchor="middle" x="377.62" y="-173" font-family="Helvetica,sans-Serif" font-size="10.00" fill="grey"> bind</text>
<text text-anchor="middle" x="377.62" y="-161.75" font-family="Helvetica,sans-Serif" font-size="10.00" fill="grey">connect</text>
<text text-anchor="middle" x="377.62" y="-150.5" font-family="Helvetica,sans-Serif" font-size="10.00" fill="grey">getpeername</text>
<text text-anchor="middle" x="377.62" y="-139.25" font-family="Helvetica,sans-Serif" font-size="10.00" fill="grey">getsockname</text>
<text text-anchor="middle" x="377.62" y="-128" font-family="Helvetica,sans-Serif" font-size="10.00" fill="grey">recvfrom</text>
<text text-anchor="middle" x="377.62" y="-116.75" font-family="Helvetica,sans-Serif" font-size="10.00" fill="grey">sendto</text>
</g>
<!-- Node11 -->
<g id="Node000011" class="node">
<title>Node11</title>
<g id="a_Node000011"><a xlink:href="tcpip_8h.html#structaddrinfo" target="_top" xlink:title=" ">
<polygon fill="white" stroke="#bfbfbf" points="420.62,-97 370.12,-97 370.12,-77.75 420.62,-77.75 420.62,-97"/>
<text text-anchor="middle" x="395.38" y="-83.5" font-family="Helvetica,sans-Serif" font-size="10.00">addrinfo</text>
</a>
</g>
</g>
<!-- Node8&#45;&gt;Node11 -->
<g id="edge12_Node000011_Node000008" class="edge">
<title>Node8&#45;&gt;Node11</title>
<g id="a_edge12_Node000011_Node000008"><a xlink:title=" ">
<path fill="none" stroke="#9a32cd" stroke-dasharray="5,2" d="M409.67,-194.73C414.17,-174.3 418.83,-141.88 411.38,-115 409.59,-108.56 405.78,-102.11 402.32,-97.17"/>
<polygon fill="#9a32cd" stroke="#9a32cd" points="406.31,-193.73 407.35,-204.27 413.11,-195.38 406.31,-193.73"/>
</a>
</g>
<text text-anchor="middle" x="431.25" y="-144.88" font-family="Helvetica,sans-Serif" font-size="10.00" fill="grey"> ai_addr</text>
</g>
<!-- Node9 -->
<g id="Node000009" class="node">
<title>Node9</title>
<g id="a_Node000009"><a xlink:href="tcpip_8h.html#structfd__set" target="_top" xlink:title=" ">
<polygon fill="white" stroke="#bfbfbf" points="532.88,-97 489.88,-97 489.88,-77.75 532.88,-77.75 532.88,-97"/>
<text text-anchor="middle" x="511.38" y="-83.5" font-family="Helvetica,sans-Serif" font-size="10.00">fd_set</text>
</a>
</g>
</g>
<!-- Node9&#45;&gt;Node1 -->
<g id="edge9_Node000001_Node000009" class="edge">
<title>Node9&#45;&gt;Node1</title>
<g id="a_edge9_Node000001_Node000009"><a xlink:title=" ">
<path fill="none" stroke="#9a32cd" stroke-dasharray="5,2" d="M483.87,-72.3C461.2,-61.25 427.93,-46.26 397.38,-37.25 370.43,-29.3 340.15,-23.48 313.36,-19.34"/>
<polygon fill="#9a32cd" stroke="#9a32cd" points="482.22,-75.39 492.74,-76.69 485.33,-69.12 482.22,-75.39"/>
</a>
</g>
<text text-anchor="middle" x="468.62" y="-44.62" font-family="Helvetica,sans-Serif" font-size="10.00" fill="grey"> select</text>
</g>
<!-- Node10 -->
<g id="Node000010" class="node">
<title>Node10</title>
<g id="a_Node000010"><a xlink:href="tcpip_8h.html#structhostent" target="_top" xlink:title=" ">
<polygon fill="white" stroke="#bfbfbf" points="599.5,-97 551.25,-97 551.25,-77.75 599.5,-77.75 599.5,-97"/>
<text text-anchor="middle" x="575.38" y="-83.5" font-family="Helvetica,sans-Serif" font-size="10.00">hostent</text>
</a>
</g>
</g>
<!-- Node10&#45;&gt;Node1 -->
<g id="edge10_Node000001_Node000010" class="edge">
<title>Node10&#45;&gt;Node1</title>
<g id="a_edge10_Node000001_Node000010"><a xlink:title=" ">
<path fill="none" stroke="#9a32cd" stroke-dasharray="5,2" d="M553.89,-71.12C536.73,-59.77 511.63,-44.97 487.38,-37.25 430.74,-19.23 363.55,-12.88 313.4,-10.86"/>
<polygon fill="#9a32cd" stroke="#9a32cd" points="551.51,-73.74 561.75,-76.47 555.45,-67.95 551.51,-73.74"/>
</a>
</g>
<text text-anchor="middle" x="571.5" y="-50.25" font-family="Helvetica,sans-Serif" font-size="10.00" fill="grey"> gethostbyname</text>
<text text-anchor="middle" x="571.5" y="-39" font-family="Helvetica,sans-Serif" font-size="10.00" fill="grey">gethostbyname_r</text>
</g>
<!-- Node11&#45;&gt;Node1 -->
<g id="edge11_Node000001_Node000011" class="edge">
<title>Node11&#45;&gt;Node1</title>
<g id="a_edge11_Node000001_Node000011"><a xlink:title=" ">
<path fill="none" stroke="#9a32cd" stroke-dasharray="5,2" d="M366.88,-72.54C335.16,-57.14 284.82,-32.69 257.86,-19.6"/>
<polygon fill="#9a32cd" stroke="#9a32cd" points="364.98,-75.51 375.51,-76.73 368.04,-69.21 364.98,-75.51"/>
</a>
</g>
<text text-anchor="middle" x="367" y="-50.25" font-family="Helvetica,sans-Serif" font-size="10.00" fill="grey"> freeaddrinfo</text>
<text text-anchor="middle" x="367" y="-39" font-family="Helvetica,sans-Serif" font-size="10.00" fill="grey">getaddrinfo</text>
</g>
<!-- Node11&#45;&gt;Node11 -->
<g id="edge13_Node000011_Node000011" class="edge">
<title>Node11&#45;&gt;Node11</title>
<g id="a_edge13_Node000011_Node000011"><a xlink:title=" ">
<path fill="none" stroke="#9a32cd" stroke-dasharray="5,2" d="M432.05,-93.48C436.05,-92.32 438.62,-90.28 438.62,-87.38 438.62,-82.21 430.49,-79.79 420.7,-80.11"/>
<polygon fill="#9a32cd" stroke="#9a32cd" points="431.8,-89.99 422.2,-94.48 432.5,-96.96 431.8,-89.99"/>
</a>
</g>
<text text-anchor="middle" x="455.12" y="-83.5" font-family="Helvetica,sans-Serif" font-size="10.00" fill="grey"> ai_next</text>
</g>
</g>
</svg>

<g id="navigator" transform="translate(0 0)" fill="#404254">
  <rect fill="#f2f5e9" fill-opacity="0.5" stroke="#606060" stroke-width=".5" x="0" y="0" width="60" height="60"/>
  <use id="zoomplus" xlink:href="#zoomPlus" x="17" y="9" onmousedown="handleZoom(evt,'in')"/>
  <use id="zoomminus" xlink:href="#zoomMin" x="42" y="9" onmousedown="handleZoom(evt,'out')"/>
  <use id="reset" xlink:href="#resetDef" x="30" y="36" onmousedown="handleReset()"/>
   <use id="arrowup" xlink:href="#arrowUp" x="0" y="0" onmousedown="handlePan(0,-1)"/>
  <use id="arrowright" xlink:href="#arrowRight" x="0" y="0" onmousedown="handlePan(1,0)"/>
  <use id="arrowdown" xlink:href="#arrowDown" x="0" y="0" onmousedown="handlePan(0,1)"/>
  <use id="arrowleft" xlink:href="#arrowLeft" x="0" y="0" onmousedown="handlePan(-1,0)"/>
</g>
<svg viewBox="0 0 15 15" width="100%" height="30px" preserveAspectRatio="xMaxYMin meet">
 <g id="arrow_out" transform="scale(0.3 0.3)">
  <a xlink:href="struct__libcglue__fdman__socket__ops____coll__graph_org.svg" target="_base">
   <rect id="button" ry="5" rx="5" y="6" x="6" height="38" width="38"
        fill="#f2f5e9" fill-opacity="0.5" stroke="#606060" stroke-width="1.0"/>
   <path id="arrow"
     d="M 11.500037,31.436501 C 11.940474,20.09759 22.043105,11.32322 32.158766,21.979434 L 37.068811,17.246167 C 37.068811,17.246167 37.088388,32 37.088388,32 L 22.160133,31.978069 C 22.160133,31.978069 26.997745,27.140456 26.997745,27.140456 C 18.528582,18.264221 13.291696,25.230495 11.500037,31.436501 z"
     style="fill:#404040;"/>
  </a>
 </g>
</svg>

<style type='text/css'>
<![CDATA[
[data-mouse-over-selected='false'] { opacity: 0.7; }
[data-mouse-over-selected='true']  { opacity: 1.0; }
]]>
</style>
<script type="application/ecmascript"><![CDATA[
document.addEventListener('DOMContentLoaded', (event) => {
  highlightEdges();
  highlightAdjacentNodes();
});
]]></script>
</svg>
