<?xml version="1.0" encoding="UTF-8" standalone="no"?>
<!DOCTYPE svg PUBLIC "-//W3C//DTD SVG 1.1//EN"
 "http://www.w3.org/Graphics/SVG/1.1/DTD/svg11.dtd">
<!-- Generated by graphviz version 2.43.0 (0)
 -->
<!-- Title: _ioman_data Pages: 1 -->
<svg width="255pt" height="253pt"
 viewBox="0.00 0.00 254.50 253.00" xmlns="http://www.w3.org/2000/svg" xmlns:xlink="http://www.w3.org/1999/xlink">
<g id="graph0" class="graph" transform="scale(1 1) rotate(0) translate(4 249)">
<title>_ioman_data</title>
<polygon fill="white" stroke="transparent" points="-4,4 -4,-249 250.5,-249 250.5,4 -4,4"/>
<!-- Node1 -->
<g id="node1" class="node">
<title>Node1</title>
<g id="a_node1"><a xlink:title=" ">
<polygon fill="#bfbfbf" stroke="black" points="0,-158.5 0,-177.5 80,-177.5 80,-158.5 0,-158.5"/>
<text text-anchor="middle" x="40" y="-165.5" font-family="Helvetica,sans-Serif" font-size="10.00">_ioman_data</text>
</a>
</g>
</g>
<!-- Node3 -->
<g id="node3" class="node">
<title>Node3</title>
<g id="a_node3"><a xlink:href="devfs_8c.html#structsubdev__t" target="_top" xlink:title=" ">
<polygon fill="white" stroke="black" points="70.5,-69.5 70.5,-88.5 131.5,-88.5 131.5,-69.5 70.5,-69.5"/>
<text text-anchor="middle" x="101" y="-76.5" font-family="Helvetica,sans-Serif" font-size="10.00">subdev_t</text>
</a>
</g>
</g>
<!-- Node1&#45;&gt;Node3 -->
<g id="edge4" class="edge">
<title>Node1&#45;&gt;Node3</title>
<path fill="none" stroke="#9a32cd" stroke-dasharray="5,2" d="M38.59,-148C38.6,-135.29 40.56,-118.81 49,-107 54.97,-98.64 64.33,-92.67 73.46,-88.51"/>
<polygon fill="#9a32cd" stroke="#9a32cd" points="35.1,-148.5 38.99,-158.35 42.1,-148.22 35.1,-148.5"/>
<text text-anchor="middle" x="75.5" y="-121" font-family="Helvetica,sans-Serif" font-size="10.00"> open_files</text>
</g>
<!-- Node2 -->
<g id="node2" class="node">
<title>Node2</title>
<g id="a_node2"><a xlink:href="devfs_8c.html#struct__devfs__device" target="_top" xlink:title=" ">
<polygon fill="white" stroke="black" points="58,-1.5 58,-20.5 144,-20.5 144,-1.5 58,-1.5"/>
<text text-anchor="middle" x="101" y="-8.5" font-family="Helvetica,sans-Serif" font-size="10.00">_devfs_device</text>
</a>
</g>
</g>
<!-- Node2&#45;&gt;Node1 -->
<g id="edge1" class="edge">
<title>Node2&#45;&gt;Node1</title>
<path fill="none" stroke="#9a32cd" stroke-dasharray="5,2" d="M78.09,-26.64C64.31,-36.76 47.79,-51.54 39,-69 24.01,-98.79 32.56,-140.41 37.39,-158.28"/>
<polygon fill="#9a32cd" stroke="#9a32cd" points="80.44,-29.26 86.64,-20.67 76.43,-23.52 80.44,-29.26"/>
<text text-anchor="middle" x="50" y="-76.5" font-family="Helvetica,sans-Serif" font-size="10.00"> dev</text>
</g>
<!-- Node2&#45;&gt;Node2 -->
<g id="edge2" class="edge">
<title>Node2&#45;&gt;Node2</title>
<path fill="none" stroke="#9a32cd" stroke-dasharray="5,2" d="M154.25,-16.04C159.01,-14.98 162,-13.3 162,-11 162,-7.31 154.35,-5.23 144.04,-4.74"/>
<polygon fill="#9a32cd" stroke="#9a32cd" points="153.55,-12.6 144.04,-17.26 154.38,-19.55 153.55,-12.6"/>
<text text-anchor="middle" x="175.5" y="-14" font-family="Helvetica,sans-Serif" font-size="10.00"> back</text>
<text text-anchor="middle" x="175.5" y="-3" font-family="Helvetica,sans-Serif" font-size="10.00">forw</text>
</g>
<!-- Node3&#45;&gt;Node2 -->
<g id="edge3" class="edge">
<title>Node3&#45;&gt;Node2</title>
<path fill="none" stroke="#9a32cd" stroke-dasharray="5,2" d="M101,-59.04C101,-46.47 101,-30.56 101,-20.84"/>
<polygon fill="#9a32cd" stroke="#9a32cd" points="97.5,-59.37 101,-69.37 104.5,-59.37 97.5,-59.37"/>
<text text-anchor="middle" x="123" y="-43" font-family="Helvetica,sans-Serif" font-size="10.00"> subdevs</text>
</g>
<!-- Node4 -->
<g id="node4" class="node">
<title>Node4</title>
<g id="a_node4"><a xlink:href="devfs_8h.html#uniondevfs__loc__t" target="_top" xlink:title=" ">
<polygon fill="white" stroke="black" points="80,-225.5 80,-244.5 152,-244.5 152,-225.5 80,-225.5"/>
<text text-anchor="middle" x="116" y="-232.5" font-family="Helvetica,sans-Serif" font-size="10.00">devfs_loc_t</text>
</a>
</g>
</g>
<!-- Node4&#45;&gt;Node1 -->
<g id="edge9" class="edge">
<title>Node4&#45;&gt;Node1</title>
<path fill="none" stroke="#9a32cd" stroke-dasharray="5,2" d="M97.9,-218.79C93.36,-214.95 88.49,-210.83 84,-207 72.33,-197.04 59.01,-185.51 50.11,-177.79"/>
<polygon fill="#9a32cd" stroke="#9a32cd" points="95.7,-221.51 105.6,-225.28 100.21,-216.16 95.7,-221.51"/>
<text text-anchor="middle" x="93" y="-199" font-family="Helvetica,sans-Serif" font-size="10.00"> loc</text>
</g>
<!-- Node4&#45;&gt;Node3 -->
<g id="edge5" class="edge">
<title>Node4&#45;&gt;Node3</title>
<path fill="none" stroke="#9a32cd" stroke-dasharray="5,2" d="M114.15,-214.98C110.87,-181.37 104.19,-112.76 101.84,-88.63"/>
<polygon fill="#9a32cd" stroke="#9a32cd" points="110.7,-215.67 115.15,-225.28 117.66,-214.99 110.7,-215.67"/>
<text text-anchor="middle" x="127.5" y="-165.5" font-family="Helvetica,sans-Serif" font-size="10.00"> extent</text>
</g>
<!-- Node6 -->
<g id="node6" class="node">
<title>Node6</title>
<g id="a_node6"><a xlink:href="devfs_8h.html#structdevfs__info__t" target="_top" xlink:title=" ">
<polygon fill="white" stroke="black" points="169.5,-158.5 169.5,-177.5 246.5,-177.5 246.5,-158.5 169.5,-158.5"/>
<text text-anchor="middle" x="208" y="-165.5" font-family="Helvetica,sans-Serif" font-size="10.00">devfs_info_t</text>
</a>
</g>
</g>
<!-- Node4&#45;&gt;Node6 -->
<g id="edge8" class="edge">
<title>Node4&#45;&gt;Node6</title>
<path fill="none" stroke="#9a32cd" stroke-dasharray="5,2" d="M136.64,-219.42C154.82,-206.57 180.71,-188.28 195.79,-177.63"/>
<polygon fill="#9a32cd" stroke="#9a32cd" points="134.56,-216.6 128.41,-225.23 138.59,-222.32 134.56,-216.6"/>
<text text-anchor="middle" x="176" y="-199" font-family="Helvetica,sans-Serif" font-size="10.00"> loc</text>
</g>
<!-- Node5 -->
<g id="node5" class="node">
<title>Node5</title>
<g id="a_node5"><a xlink:href="devfs_8h.html#structdevfs__node__t" target="_top" xlink:title=" ">
<polygon fill="white" stroke="black" points="158,-69.5 158,-88.5 240,-88.5 240,-69.5 158,-69.5"/>
<text text-anchor="middle" x="199" y="-76.5" font-family="Helvetica,sans-Serif" font-size="10.00">devfs_node_t</text>
</a>
</g>
</g>
<!-- Node5&#45;&gt;Node2 -->
<g id="edge6" class="edge">
<title>Node5&#45;&gt;Node2</title>
<path fill="none" stroke="#9a32cd" stroke-dasharray="5,2" d="M180.45,-63.05C171.2,-55.81 159.72,-47.16 149,-40 138.57,-33.03 126.36,-25.92 116.86,-20.61"/>
<polygon fill="#9a32cd" stroke="#9a32cd" points="178.53,-65.99 188.55,-69.46 182.88,-60.51 178.53,-65.99"/>
<text text-anchor="middle" x="178" y="-43" font-family="Helvetica,sans-Serif" font-size="10.00"> node</text>
</g>
<!-- Node6&#45;&gt;Node5 -->
<g id="edge7" class="edge">
<title>Node6&#45;&gt;Node5</title>
<path fill="none" stroke="#9a32cd" stroke-dasharray="5,2" d="M206.05,-148.19C204.15,-129.74 201.32,-102.41 199.89,-88.62"/>
<polygon fill="#9a32cd" stroke="#9a32cd" points="202.59,-148.75 207.1,-158.34 209.56,-148.03 202.59,-148.75"/>
<text text-anchor="middle" x="217.5" y="-132" font-family="Helvetica,sans-Serif" font-size="10.00"> ioctl</text>
<text text-anchor="middle" x="217.5" y="-121" font-family="Helvetica,sans-Serif" font-size="10.00">read</text>
<text text-anchor="middle" x="217.5" y="-110" font-family="Helvetica,sans-Serif" font-size="10.00">write</text>
</g>
</g>
</svg>
