<?xml version="1.0" encoding="UTF-8" standalone="no"?>
<!DOCTYPE svg PUBLIC "-//W3C//DTD SVG 1.1//EN"
 "http://www.w3.org/Graphics/SVG/1.1/DTD/svg11.dtd">
<!-- Generated by graphviz version 2.43.0 (0)
 -->
<!-- Title: fxio_dread_packet Pages: 1 -->
<svg width="114pt" height="162pt"
 viewBox="0.00 0.00 114.00 162.00" xmlns="http://www.w3.org/2000/svg" xmlns:xlink="http://www.w3.org/1999/xlink">
<g id="graph0" class="graph" transform="scale(1 1) rotate(0) translate(4 158)">
<title>fxio_dread_packet</title>
<polygon fill="white" stroke="transparent" points="-4,4 -4,-158 110,-158 110,4 -4,4"/>
<!-- Node1 -->
<g id="node1" class="node">
<title>Node1</title>
<g id="a_node1"><a xlink:title=" ">
<polygon fill="#bfbfbf" stroke="black" points="0,-0.5 0,-19.5 106,-19.5 106,-0.5 0,-0.5"/>
<text text-anchor="middle" x="53" y="-7.5" font-family="Helvetica,sans-Serif" font-size="10.00">fxio_dread_packet</text>
</a>
</g>
</g>
<!-- Node2 -->
<g id="node2" class="node">
<title>Node2</title>
<g id="a_node2"><a xlink:href="structiox__dirent__t.html" target="_top" xlink:title=" ">
<polygon fill="white" stroke="black" points="16,-67.5 16,-86.5 90,-86.5 90,-67.5 16,-67.5"/>
<text text-anchor="middle" x="53" y="-74.5" font-family="Helvetica,sans-Serif" font-size="10.00">iox_dirent_t</text>
</a>
</g>
</g>
<!-- Node2&#45;&gt;Node1 -->
<g id="edge1" class="edge">
<title>Node2&#45;&gt;Node1</title>
<path fill="none" stroke="#9a32cd" stroke-dasharray="5,2" d="M53,-57.04C53,-44.67 53,-29.12 53,-19.63"/>
<polygon fill="#9a32cd" stroke="#9a32cd" points="49.5,-57.23 53,-67.23 56.5,-57.23 49.5,-57.23"/>
<text text-anchor="middle" x="69" y="-41" font-family="Helvetica,sans-Serif" font-size="10.00"> dirent</text>
</g>
<!-- Node3 -->
<g id="node3" class="node">
<title>Node3</title>
<g id="a_node3"><a xlink:href="structiox__stat__t.html" target="_top" xlink:title=" ">
<polygon fill="white" stroke="black" points="20.5,-134.5 20.5,-153.5 85.5,-153.5 85.5,-134.5 20.5,-134.5"/>
<text text-anchor="middle" x="53" y="-141.5" font-family="Helvetica,sans-Serif" font-size="10.00">iox_stat_t</text>
</a>
</g>
</g>
<!-- Node3&#45;&gt;Node2 -->
<g id="edge2" class="edge">
<title>Node3&#45;&gt;Node2</title>
<path fill="none" stroke="#9a32cd" stroke-dasharray="5,2" d="M53,-124.04C53,-111.67 53,-96.12 53,-86.63"/>
<polygon fill="#9a32cd" stroke="#9a32cd" points="49.5,-124.23 53,-134.23 56.5,-124.23 49.5,-124.23"/>
<text text-anchor="middle" x="64" y="-108" font-family="Helvetica,sans-Serif" font-size="10.00"> stat</text>
</g>
</g>
</svg>
