<?xml version="1.0" encoding="UTF-8" standalone="no"?>
<!DOCTYPE svg PUBLIC "-//W3C//DTD SVG 1.1//EN"
 "http://www.w3.org/Graphics/SVG/1.1/DTD/svg11.dtd">
<!-- Generated by graphviz version 9.0.0 (20230911.1827)
 -->
<!-- Title: semaphore Pages: 1 -->
<svg width="196pt" height="164pt"
 viewBox="0.00 0.00 196.25 163.50" xmlns="http://www.w3.org/2000/svg" xmlns:xlink="http://www.w3.org/1999/xlink">
<g id="graph0" class="graph" transform="scale(1 1) rotate(0) translate(4 159.5)">
<title>semaphore</title>
<!-- Node1 -->
<g id="Node000001" class="node">
<title>Node1</title>
<g id="a_Node000001"><a xlink:title=" ">
<polygon fill="#999999" stroke="#666666" points="118.25,-19.25 54.25,-19.25 54.25,0 118.25,0 118.25,-19.25"/>
<text text-anchor="middle" x="86.25" y="-5.75" font-family="Helvetica,sans-Serif" font-size="10.00">semaphore</text>
</a>
</g>
</g>
<!-- Node2 -->
<g id="Node000002" class="node">
<title>Node2</title>
<g id="a_Node000002"><a xlink:href="structheaptag.html" target="_top" xlink:title=" ">
<polygon fill="white" stroke="#bfbfbf" points="50.5,-85.75 0,-85.75 0,-66.5 50.5,-66.5 50.5,-85.75"/>
<text text-anchor="middle" x="25.25" y="-72.25" font-family="Helvetica,sans-Serif" font-size="10.00">heaptag</text>
</a>
</g>
</g>
<!-- Node2&#45;&gt;Node1 -->
<g id="edge1_Node000001_Node000002" class="edge">
<title>Node2&#45;&gt;Node1</title>
<g id="a_edge1_Node000001_Node000002"><a xlink:title=" ">
<path fill="none" stroke="#9a32cd" stroke-dasharray="5,2" d="M39.01,-57.33C44.28,-50.83 50.47,-43.53 56.5,-37.25 62.45,-31.05 69.62,-24.61 75.43,-19.62"/>
<polygon fill="#9a32cd" stroke="#9a32cd" points="36.49,-54.88 33.03,-64.89 41.98,-59.22 36.49,-54.88"/>
</a>
</g>
<text text-anchor="middle" x="65.12" y="-39" font-family="Helvetica,sans-Serif" font-size="10.00" fill="grey"> tag</text>
</g>
<!-- Node3 -->
<g id="Node000003" class="node">
<title>Node3</title>
<g id="a_Node000003"><a xlink:href="structlist__head.html" target="_top" xlink:title=" ">
<polygon fill="white" stroke="#bfbfbf" points="129.75,-153.88 74.75,-153.88 74.75,-134.62 129.75,-134.62 129.75,-153.88"/>
<text text-anchor="middle" x="102.25" y="-140.38" font-family="Helvetica,sans-Serif" font-size="10.00">list_head</text>
</a>
</g>
</g>
<!-- Node3&#45;&gt;Node1 -->
<g id="edge2_Node000001_Node000003" class="edge">
<title>Node3&#45;&gt;Node1</title>
<g id="a_edge2_Node000001_Node000003"><a xlink:title=" ">
<path fill="none" stroke="#9a32cd" stroke-dasharray="5,2" d="M99.64,-122.93C98.24,-111.93 96.5,-98.1 95,-85.75 92.09,-61.77 88.84,-33.45 87.25,-19.42"/>
<polygon fill="#9a32cd" stroke="#9a32cd" points="96.16,-123.31 100.9,-132.79 103.1,-122.42 96.16,-123.31"/>
</a>
</g>
<text text-anchor="middle" x="117.38" y="-72.25" font-family="Helvetica,sans-Serif" font-size="10.00" fill="grey"> sema_list</text>
</g>
<!-- Node3&#45;&gt;Node3 -->
<g id="edge3_Node000003_Node000003" class="edge">
<title>Node3&#45;&gt;Node3</title>
<g id="a_edge3_Node000003_Node000003"><a xlink:title=" ">
<path fill="none" stroke="#9a32cd" stroke-dasharray="5,2" d="M141.39,-149.59C145.28,-148.52 147.75,-146.74 147.75,-144.25 147.75,-139.82 139.93,-137.64 130.24,-137.71"/>
<polygon fill="#9a32cd" stroke="#9a32cd" points="141.31,-146.07 131.75,-150.63 142.06,-153.03 141.31,-146.07"/>
</a>
</g>
<text text-anchor="middle" x="157.88" y="-146" font-family="Helvetica,sans-Serif" font-size="10.00" fill="grey"> next</text>
<text text-anchor="middle" x="157.88" y="-134.75" font-family="Helvetica,sans-Serif" font-size="10.00" fill="grey">prev</text>
</g>
<!-- Node4 -->
<g id="Node000004" class="node">
<title>Node4</title>
<g id="a_Node000004"><a xlink:href="structevent.html" target="_top" xlink:title=" ">
<polygon fill="white" stroke="#bfbfbf" points="188.25,-85.75 148.25,-85.75 148.25,-66.5 188.25,-66.5 188.25,-85.75"/>
<text text-anchor="middle" x="168.25" y="-72.25" font-family="Helvetica,sans-Serif" font-size="10.00">event</text>
</a>
</g>
</g>
<!-- Node3&#45;&gt;Node4 -->
<g id="edge5_Node000004_Node000003" class="edge">
<title>Node3&#45;&gt;Node4</title>
<g id="a_edge5_Node000004_Node000003"><a xlink:title=" ">
<path fill="none" stroke="#9a32cd" stroke-dasharray="5,2" d="M119.24,-126.23C132.11,-113.34 149.26,-96.15 159.49,-85.9"/>
<polygon fill="#9a32cd" stroke="#9a32cd" points="116.81,-123.71 112.22,-133.26 121.76,-128.66 116.81,-123.71"/>
</a>
</g>
<text text-anchor="middle" x="158.12" y="-105.5" font-family="Helvetica,sans-Serif" font-size="10.00" fill="grey"> waiters</text>
</g>
<!-- Node4&#45;&gt;Node1 -->
<g id="edge4_Node000001_Node000004" class="edge">
<title>Node4&#45;&gt;Node1</title>
<g id="a_edge4_Node000001_Node000004"><a xlink:title=" ">
<path fill="none" stroke="#9a32cd" stroke-dasharray="5,2" d="M147.86,-59.08C132.08,-46.67 110.79,-29.93 97.82,-19.73"/>
<polygon fill="#9a32cd" stroke="#9a32cd" points="145.63,-61.79 155.66,-65.22 149.96,-56.29 145.63,-61.79"/>
</a>
</g>
<text text-anchor="middle" x="145.38" y="-39" font-family="Helvetica,sans-Serif" font-size="10.00" fill="grey"> event</text>
</g>
</g>
</svg>
