<?xml version="1.0" encoding="UTF-8" standalone="no"?>
<!DOCTYPE svg PUBLIC "-//W3C//DTD SVG 1.1//EN"
 "http://www.w3.org/Graphics/SVG/1.1/DTD/svg11.dtd">
<!-- Generated by graphviz version 2.43.0 (0)
 -->
<!-- Title: spu2_core_regs_padded_ Pages: 1 -->
<svg width="388pt" height="352pt"
 viewBox="0.00 0.00 388.00 352.00" xmlns="http://www.w3.org/2000/svg" xmlns:xlink="http://www.w3.org/1999/xlink">
<g id="graph0" class="graph" transform="scale(1 1) rotate(0) translate(4 348)">
<title>spu2_core_regs_padded_</title>
<polygon fill="white" stroke="transparent" points="-4,4 -4,-348 384,-348 384,4 -4,4"/>
<!-- Node1 -->
<g id="node1" class="node">
<title>Node1</title>
<g id="a_node1"><a xlink:title=" ">
<polygon fill="#bfbfbf" stroke="black" points="113,-0.5 113,-19.5 252,-19.5 252,-0.5 113,-0.5"/>
<text text-anchor="middle" x="182.5" y="-7.5" font-family="Helvetica,sans-Serif" font-size="10.00">spu2_core_regs_padded_</text>
</a>
</g>
</g>
<!-- Node2 -->
<g id="node2" class="node">
<title>Node2</title>
<g id="a_node2"><a xlink:href="spu2__mmio__hwport_8h.html#structspu2__core__regs__" target="_top" xlink:title=" ">
<polygon fill="white" stroke="black" points="133.5,-67.5 133.5,-86.5 231.5,-86.5 231.5,-67.5 133.5,-67.5"/>
<text text-anchor="middle" x="182.5" y="-74.5" font-family="Helvetica,sans-Serif" font-size="10.00">spu2_core_regs_</text>
</a>
</g>
</g>
<!-- Node2&#45;&gt;Node1 -->
<g id="edge1" class="edge">
<title>Node2&#45;&gt;Node1</title>
<path fill="none" stroke="#9a32cd" stroke-dasharray="5,2" d="M182.5,-57.04C182.5,-44.67 182.5,-29.12 182.5,-19.63"/>
<polygon fill="#9a32cd" stroke="#9a32cd" points="179,-57.23 182.5,-67.23 186,-57.23 179,-57.23"/>
<text text-anchor="middle" x="205" y="-41" font-family="Helvetica,sans-Serif" font-size="10.00"> m_cregs</text>
</g>
<!-- Node3 -->
<g id="node3" class="node">
<title>Node3</title>
<g id="a_node3"><a xlink:href="spu2__mmio__hwport_8h.html#structspu2__voice__address__" target="_top" xlink:title=" ">
<polygon fill="white" stroke="black" points="122.5,-185 122.5,-204 242.5,-204 242.5,-185 122.5,-185"/>
<text text-anchor="middle" x="182.5" y="-192" font-family="Helvetica,sans-Serif" font-size="10.00">spu2_voice_address_</text>
</a>
</g>
</g>
<!-- Node3&#45;&gt;Node2 -->
<g id="edge2" class="edge">
<title>Node3&#45;&gt;Node2</title>
<path fill="none" stroke="#9a32cd" stroke-dasharray="5,2" d="M182.5,-174.66C182.5,-149.37 182.5,-105.44 182.5,-86.78"/>
<polygon fill="#9a32cd" stroke="#9a32cd" points="179,-174.82 182.5,-184.82 186,-174.82 179,-174.82"/>
<text text-anchor="middle" x="226.5" y="-108" font-family="Helvetica,sans-Serif" font-size="10.00"> m_voice_address</text>
</g>
<!-- Node4 -->
<g id="node4" class="node">
<title>Node4</title>
<g id="a_node4"><a xlink:href="spu2__mmio__hwport_8h.html#structspu2__u16pair__" target="_top" xlink:title=" ">
<polygon fill="white" stroke="black" points="0,-324.5 0,-343.5 87,-343.5 87,-324.5 0,-324.5"/>
<text text-anchor="middle" x="43.5" y="-331.5" font-family="Helvetica,sans-Serif" font-size="10.00">spu2_u16pair_</text>
</a>
</g>
</g>
<!-- Node4&#45;&gt;Node2 -->
<g id="edge5" class="edge">
<title>Node4&#45;&gt;Node2</title>
<path fill="none" stroke="#9a32cd" stroke-dasharray="5,2" d="M36.32,-314.87C22.76,-277.35 -2,-190 36.5,-134 58.11,-102.57 99.98,-88.77 133.35,-82.72"/>
<polygon fill="#9a32cd" stroke="#9a32cd" points="33.13,-316.33 39.94,-324.45 39.68,-313.86 33.13,-316.33"/>
<text text-anchor="middle" x="75" y="-247" font-family="Helvetica,sans-Serif" font-size="10.00"> m_apf2_r_dst</text>
<text text-anchor="middle" x="75" y="-236" font-family="Helvetica,sans-Serif" font-size="10.00">m_apf2_l_dst</text>
<text text-anchor="middle" x="75" y="-225" font-family="Helvetica,sans-Serif" font-size="10.00">m_vmixr</text>
<text text-anchor="middle" x="75" y="-214" font-family="Helvetica,sans-Serif" font-size="10.00">m_apf1_r_dst</text>
<text text-anchor="middle" x="75" y="-203" font-family="Helvetica,sans-Serif" font-size="10.00">m_apf1_l_dst</text>
<text text-anchor="middle" x="75" y="-192" font-family="Helvetica,sans-Serif" font-size="10.00">m_comb2_r_src</text>
<text text-anchor="middle" x="75" y="-181" font-family="Helvetica,sans-Serif" font-size="10.00">m_comb2_l_src</text>
<text text-anchor="middle" x="75" y="-170" font-family="Helvetica,sans-Serif" font-size="10.00">m_same_l_dst</text>
<text text-anchor="middle" x="75" y="-159" font-family="Helvetica,sans-Serif" font-size="10.00">m_kon</text>
<text text-anchor="middle" x="75" y="-148" font-family="Helvetica,sans-Serif" font-size="10.00">m_comb1_r_src</text>
<text text-anchor="middle" x="75" y="-137" font-family="Helvetica,sans-Serif" font-size="10.00">...</text>
</g>
<!-- Node4&#45;&gt;Node3 -->
<g id="edge3" class="edge">
<title>Node4&#45;&gt;Node3</title>
<path fill="none" stroke="#9a32cd" stroke-dasharray="5,2" d="M59.61,-317.07C89.13,-287.86 150.99,-226.67 173.81,-204.1"/>
<polygon fill="#9a32cd" stroke="#9a32cd" points="56.84,-314.88 52.2,-324.4 61.77,-319.85 56.84,-314.88"/>
<text text-anchor="middle" x="119.5" y="-298" font-family="Helvetica,sans-Serif" font-size="10.00"> m_ssa</text>
<text text-anchor="middle" x="119.5" y="-287" font-family="Helvetica,sans-Serif" font-size="10.00">m_nax</text>
<text text-anchor="middle" x="119.5" y="-276" font-family="Helvetica,sans-Serif" font-size="10.00">m_lsax</text>
</g>
<!-- Node5 -->
<g id="node5" class="node">
<title>Node5</title>
<g id="a_node5"><a xlink:href="spu2__mmio__hwport_8h.html#structspu2__voice__params__" target="_top" xlink:title=" ">
<polygon fill="white" stroke="black" points="261,-185 261,-204 380,-204 380,-185 261,-185"/>
<text text-anchor="middle" x="320.5" y="-192" font-family="Helvetica,sans-Serif" font-size="10.00">spu2_voice_params_</text>
</a>
</g>
</g>
<!-- Node5&#45;&gt;Node2 -->
<g id="edge4" class="edge">
<title>Node5&#45;&gt;Node2</title>
<path fill="none" stroke="#9a32cd" stroke-dasharray="5,2" d="M315.6,-174.92C309.35,-154.81 296.61,-123.19 274.5,-105 262.42,-95.06 246.8,-88.78 231.88,-84.81"/>
<polygon fill="#9a32cd" stroke="#9a32cd" points="312.3,-176.1 318.42,-184.75 319.03,-174.17 312.3,-176.1"/>
<text text-anchor="middle" x="327" y="-108" font-family="Helvetica,sans-Serif" font-size="10.00"> m_voice_params</text>
</g>
</g>
</svg>
