<?xml version="1.0" encoding="UTF-8" standalone="no"?>
<!DOCTYPE svg PUBLIC "-//W3C//DTD SVG 1.1//EN"
 "http://www.w3.org/Graphics/SVG/1.1/DTD/svg11.dtd">
<!-- Generated by graphviz version 9.0.0 (20230911.1827)
 -->
<!-- Title: _endpoint Pages: 1 -->
<!--zoomable 396 -->

<svg id="main" version="1.1" xmlns="http://www.w3.org/2000/svg" xmlns:xlink="http://www.w3.org/1999/xlink" xml:space="preserve" onload="init(evt)">
<style type="text/css"><![CDATA[
.node, .edge {opacity: 0.7;}
.node.selected, .edge.selected {opacity: 1;}
.edge:hover path { stroke: red; }
.edge:hover polygon { stroke: red; fill: red; }
]]></style>

<defs>
  <circle id="rim" cx="0" cy="0" r="7"/>
  <circle id="rim2" cx="0" cy="0" r="3.5"/>
  <g id="zoomPlus">
    <use xlink:href="#rim" fill="#404040"><set attributeName="fill" to="#808080" begin="zoomplus.mouseover" end="zoomplus.mouseout"/></use>
    <path d="M-4,0h8M0,-4v8" fill="none" stroke="white" stroke-width="1.5" pointer-events="none"/>
  </g>
  <g id="zoomMin">
    <use xlink:href="#rim" fill="#404040"><set attributeName="fill" to="#808080" begin="zoomminus.mouseover" end="zoomminus.mouseout"/></use>
    <path d="M-4,0h8" fill="none" stroke="white" stroke-width="1.5" pointer-events="none"/>
  </g>
  <g id="arrowUp" transform="translate(30 24)">
    <use xlink:href="#rim"/>
    <path pointer-events="none" fill="none" stroke="white" stroke-width="1.5" d="M0,-3.0v7 M-2.5,-0.5L0,-3.0L2.5,-0.5"/>
  </g>
  <g id="arrowRight" transform="rotate(90) translate(36 -43)">
    <use xlink:href="#rim"/>
    <path pointer-events="none" fill="none" stroke="white" stroke-width="1.5" d="M0,-3.0v7 M-2.5,-0.5L0,-3.0L2.5,-0.5"/>
  </g>
  <g id="arrowDown" transform="rotate(180) translate(-30 -48)">
    <use xlink:href="#rim"/>
    <path pointer-events="none" fill="none" stroke="white" stroke-width="1.5" d="M0,-3.0v7 M-2.5,-0.5L0,-3.0L2.5,-0.5"/>
  </g>
  <g id="arrowLeft" transform="rotate(270) translate(-36 17)">
    <use xlink:href="#rim"/>
    <path pointer-events="none" fill="none" stroke="white" stroke-width="1.5" d="M0,-3.0v7 M-2.5,-0.5L0,-3.0L2.5,-0.5"/>
  </g>
  <g id="resetDef">
    <use xlink:href="#rim2" fill="#404040"><set attributeName="fill" to="#808080" begin="reset.mouseover" end="reset.mouseout"/></use>
  </g>
</defs>
<script type="application/ecmascript">
var viewWidth = 549;
var viewHeight = 396;
var sectionId = 'dynsection-8';
</script>
<script type="application/ecmascript" xlink:href="svg.min.js"/>
<svg id="graph" class="graph">
<g id="viewport">
<title>_endpoint</title>
<!-- Node1 -->
<g id="Node000001" class="node">
<title>Node1</title>
<g id="a_Node000001"><a xlink:title=" ">
<polygon fill="#999999" stroke="#666666" points="307.38,-227.88 249.38,-227.88 249.38,-208.62 307.38,-208.62 307.38,-227.88"/>
<text text-anchor="middle" x="278.38" y="-214.38" font-family="Helvetica,sans-Serif" font-size="10.00">_endpoint</text>
</a>
</g>
</g>
<!-- Node1&#45;&gt;Node1 -->
<g id="edge1_Node000001_Node000001" class="edge">
<title>Node1&#45;&gt;Node1</title>
<g id="a_edge1_Node000001_Node000001"><a xlink:title=" ">
<path fill="none" stroke="#9a32cd" stroke-dasharray="5,2" d="M318.99,-225.24C322.9,-223.82 325.38,-221.49 325.38,-218.25 325.38,-212.48 317.54,-209.6 307.75,-209.6"/>
<polygon fill="#9a32cd" stroke="#9a32cd" points="318.63,-221.76 309.25,-226.68 319.65,-228.68 318.63,-221.76"/>
</a>
</g>
<text text-anchor="middle" x="346.75" y="-231.25" font-family="Helvetica,sans-Serif" font-size="10.00" fill="grey"> busyNext</text>
<text text-anchor="middle" x="346.75" y="-220" font-family="Helvetica,sans-Serif" font-size="10.00" fill="grey">busyPrev</text>
<text text-anchor="middle" x="346.75" y="-208.75" font-family="Helvetica,sans-Serif" font-size="10.00" fill="grey">next</text>
<text text-anchor="middle" x="346.75" y="-197.5" font-family="Helvetica,sans-Serif" font-size="10.00" fill="grey">prev</text>
</g>
<!-- Node2 -->
<g id="Node000002" class="node">
<title>Node2</title>
<g id="a_Node000002"><a xlink:href="usbdpriv_8h.html#struct__device" target="_top" xlink:title=" ">
<polygon fill="white" stroke="#bfbfbf" points="202.25,-37.75 152.5,-37.75 152.5,-18.5 202.25,-18.5 202.25,-37.75"/>
<text text-anchor="middle" x="177.38" y="-24.25" font-family="Helvetica,sans-Serif" font-size="10.00">_device</text>
</a>
</g>
</g>
<!-- Node1&#45;&gt;Node2 -->
<g id="edge4_Node000002_Node000001" class="edge">
<title>Node1&#45;&gt;Node2</title>
<g id="a_edge4_Node000002_Node000001"><a xlink:title=" ">
<path fill="none" stroke="#9a32cd" stroke-dasharray="5,2" d="M278.16,-196.98C277.09,-173.19 272.75,-133.23 256.38,-103.5 240.48,-74.62 209.4,-50.47 191.32,-38.08"/>
<polygon fill="#9a32cd" stroke="#9a32cd" points="274.65,-196.95 278.42,-206.85 281.65,-196.76 274.65,-196.95"/>
</a>
</g>
<text text-anchor="middle" x="305.5" y="-122.12" font-family="Helvetica,sans-Serif" font-size="10.00" fill="grey"> endpointListEnd</text>
<text text-anchor="middle" x="305.5" y="-110.88" font-family="Helvetica,sans-Serif" font-size="10.00" fill="grey">endpointListStart</text>
</g>
<!-- Node5 -->
<g id="Node000005" class="node">
<title>Node5</title>
<g id="a_Node000005"><a xlink:href="usbdpriv_8h.html#struct__io_request" target="_top" xlink:title=" ">
<polygon fill="white" stroke="#bfbfbf" points="435.75,-130 371,-130 371,-110.75 435.75,-110.75 435.75,-130"/>
<text text-anchor="middle" x="403.38" y="-116.5" font-family="Helvetica,sans-Serif" font-size="10.00">_ioRequest</text>
</a>
</g>
</g>
<!-- Node1&#45;&gt;Node5 -->
<g id="edge11_Node000005_Node000001" class="edge">
<title>Node1&#45;&gt;Node5</title>
<g id="a_edge11_Node000005_Node000001"><a xlink:title=" ">
<path fill="none" stroke="#9a32cd" stroke-dasharray="5,2" d="M318.66,-207.63C337.34,-201.54 358.8,-192.05 374.38,-177.75 388.8,-164.5 397.19,-142.42 400.96,-130.2"/>
<polygon fill="#9a32cd" stroke="#9a32cd" points="317.78,-204.24 309.21,-210.47 319.79,-210.94 317.78,-204.24"/>
</a>
</g>
<text text-anchor="middle" x="426.38" y="-162.62" font-family="Helvetica,sans-Serif" font-size="10.00" fill="grey"> correspEndpoint</text>
</g>
<!-- Node2&#45;&gt;Node1 -->
<g id="edge2_Node000001_Node000002" class="edge">
<title>Node2&#45;&gt;Node1</title>
<g id="a_edge2_Node000001_Node000002"><a xlink:title=" ">
<path fill="none" stroke="#9a32cd" stroke-dasharray="5,2" d="M176.12,-49.36C175.59,-72.04 177.36,-109.3 191.88,-137.25 208.56,-169.38 243.52,-195.33 263.51,-208.28"/>
<polygon fill="#9a32cd" stroke="#9a32cd" points="179.61,-49.79 176.54,-39.65 172.61,-49.49 179.61,-49.79"/>
</a>
</g>
<text text-anchor="middle" x="224.62" y="-116.5" font-family="Helvetica,sans-Serif" font-size="10.00" fill="grey"> correspDevice</text>
</g>
<!-- Node2&#45;&gt;Node2 -->
<g id="edge3_Node000002_Node000002" class="edge">
<title>Node2&#45;&gt;Node2</title>
<g id="a_edge3_Node000002_Node000002"><a xlink:title=" ">
<path fill="none" stroke="#9a32cd" stroke-dasharray="5,2" d="M213.74,-36.26C217.7,-34.7 220.25,-31.99 220.25,-28.12 220.25,-21.25 212.18,-18.03 202.48,-18.46"/>
<polygon fill="#9a32cd" stroke="#9a32cd" points="213.41,-32.77 203.98,-37.59 214.36,-39.71 213.41,-32.77"/>
</a>
</g>
<text text-anchor="middle" x="249.12" y="-46.75" font-family="Helvetica,sans-Serif" font-size="10.00" fill="grey"> childListEnd</text>
<text text-anchor="middle" x="249.12" y="-35.5" font-family="Helvetica,sans-Serif" font-size="10.00" fill="grey">childListStart</text>
<text text-anchor="middle" x="249.12" y="-24.25" font-family="Helvetica,sans-Serif" font-size="10.00" fill="grey">next</text>
<text text-anchor="middle" x="249.12" y="-13" font-family="Helvetica,sans-Serif" font-size="10.00" fill="grey">parent</text>
<text text-anchor="middle" x="249.12" y="-1.75" font-family="Helvetica,sans-Serif" font-size="10.00" fill="grey">prev</text>
</g>
<!-- Node3 -->
<g id="Node000003" class="node">
<title>Node3</title>
<g id="a_Node000003"><a xlink:href="struct___usb_driver.html" target="_top" xlink:title=" ">
<polygon fill="white" stroke="#666666" points="64.75,-130 0,-130 0,-110.75 64.75,-110.75 64.75,-130"/>
<text text-anchor="middle" x="32.38" y="-116.5" font-family="Helvetica,sans-Serif" font-size="10.00">_UsbDriver</text>
</a>
</g>
</g>
<!-- Node3&#45;&gt;Node2 -->
<g id="edge5_Node000002_Node000003" class="edge">
<title>Node3&#45;&gt;Node2</title>
<g id="a_edge5_Node000002_Node000003"><a xlink:title=" ">
<path fill="none" stroke="#9a32cd" stroke-dasharray="5,2" d="M45.91,-101.4C53.39,-92.37 63.31,-81.78 73.88,-74.25 98.14,-56.96 130.08,-44.29 152.02,-36.85"/>
<polygon fill="#9a32cd" stroke="#9a32cd" points="43.22,-99.16 39.76,-109.18 48.71,-103.5 43.22,-99.16"/>
</a>
</g>
<text text-anchor="middle" x="96.12" y="-76" font-family="Helvetica,sans-Serif" font-size="10.00" fill="grey"> devDriver</text>
</g>
<!-- Node3&#45;&gt;Node3 -->
<g id="edge6_Node000003_Node000003" class="edge">
<title>Node3&#45;&gt;Node3</title>
<g id="a_edge6_Node000003_Node000003"><a xlink:title=" ">
<path fill="none" stroke="#9a32cd" stroke-dasharray="5,2" d="M75.96,-126.5C80.12,-125.25 82.75,-123.21 82.75,-120.38 82.75,-115.47 74.87,-112.94 64.84,-112.79"/>
<polygon fill="#9a32cd" stroke="#9a32cd" points="75.8,-122.99 66.34,-127.76 76.71,-129.93 75.8,-122.99"/>
</a>
</g>
<text text-anchor="middle" x="92.88" y="-122.12" font-family="Helvetica,sans-Serif" font-size="10.00" fill="grey"> next</text>
<text text-anchor="middle" x="92.88" y="-110.88" font-family="Helvetica,sans-Serif" font-size="10.00" fill="grey">prev</text>
</g>
<!-- Node4 -->
<g id="Node000004" class="node">
<title>Node4</title>
<g id="a_Node000004"><a xlink:href="usbdpriv_8h.html#struct__timer_cb_struct" target="_top" xlink:title=" ">
<polygon fill="white" stroke="#bfbfbf" points="187,-308.88 105.75,-308.88 105.75,-289.62 187,-289.62 187,-308.88"/>
<text text-anchor="middle" x="146.38" y="-295.38" font-family="Helvetica,sans-Serif" font-size="10.00">_timerCbStruct</text>
</a>
</g>
</g>
<!-- Node4&#45;&gt;Node1 -->
<g id="edge14_Node000001_Node000004" class="edge">
<title>Node4&#45;&gt;Node1</title>
<g id="a_edge14_Node000001_Node000004"><a xlink:title=" ">
<path fill="none" stroke="#9a32cd" stroke-dasharray="5,2" d="M171.08,-283.46C198.22,-267.22 240.94,-241.66 263.41,-228.21"/>
<polygon fill="#9a32cd" stroke="#9a32cd" points="169.6,-280.27 162.82,-288.41 173.19,-286.28 169.6,-280.27"/>
</a>
</g>
<text text-anchor="middle" x="224.38" y="-260.5" font-family="Helvetica,sans-Serif" font-size="10.00" fill="grey"> timer</text>
</g>
<!-- Node4&#45;&gt;Node2 -->
<g id="edge7_Node000002_Node000004" class="edge">
<title>Node4&#45;&gt;Node2</title>
<g id="a_edge7_Node000002_Node000004"><a xlink:title=" ">
<path fill="none" stroke="#9a32cd" stroke-dasharray="5,2" d="M148.69,-278.16C154.94,-223.93 171.97,-76.09 176.34,-38.11"/>
<polygon fill="#9a32cd" stroke="#9a32cd" points="145.25,-277.46 147.58,-287.79 152.2,-278.26 145.25,-277.46"/>
</a>
</g>
<text text-anchor="middle" x="175.38" y="-162.62" font-family="Helvetica,sans-Serif" font-size="10.00" fill="grey"> timer</text>
</g>
<!-- Node4&#45;&gt;Node4 -->
<g id="edge8_Node000004_Node000004" class="edge">
<title>Node4&#45;&gt;Node4</title>
<g id="a_edge8_Node000004_Node000004"><a xlink:title=" ">
<path fill="none" stroke="#9a32cd" stroke-dasharray="5,2" d="M198.77,-304.1C202.63,-303.01 205,-301.4 205,-299.25 205,-295.44 197.52,-293.29 187.47,-292.81"/>
<polygon fill="#9a32cd" stroke="#9a32cd" points="198.38,-300.62 188.97,-305.48 199.35,-307.56 198.38,-300.62"/>
</a>
</g>
<text text-anchor="middle" x="215.12" y="-301" font-family="Helvetica,sans-Serif" font-size="10.00" fill="grey"> next</text>
<text text-anchor="middle" x="215.12" y="-289.75" font-family="Helvetica,sans-Serif" font-size="10.00" fill="grey">prev</text>
</g>
<!-- Node5&#45;&gt;Node1 -->
<g id="edge13_Node000001_Node000005" class="edge">
<title>Node5&#45;&gt;Node1</title>
<g id="a_edge13_Node000001_Node000005"><a xlink:title=" ">
<path fill="none" stroke="#9a32cd" stroke-dasharray="5,2" d="M366.81,-134.02C340.46,-143.2 309.32,-154.17 308.12,-155.25 291.97,-169.78 283.75,-194.99 280.35,-208.35"/>
<polygon fill="#9a32cd" stroke="#9a32cd" points="367.61,-137.45 375.91,-130.86 365.31,-130.84 367.61,-137.45"/>
</a>
</g>
<text text-anchor="middle" x="338.5" y="-168.25" font-family="Helvetica,sans-Serif" font-size="10.00" fill="grey"> ioReqListEnd</text>
<text text-anchor="middle" x="338.5" y="-157" font-family="Helvetica,sans-Serif" font-size="10.00" fill="grey">ioReqListStart</text>
</g>
<!-- Node5&#45;&gt;Node2 -->
<g id="edge9_Node000002_Node000005" class="edge">
<title>Node5&#45;&gt;Node2</title>
<g id="a_edge9_Node000002_Node000005"><a xlink:title=" ">
<path fill="none" stroke="#9a32cd" stroke-dasharray="5,2" d="M370.81,-106.02C348.72,-96.98 318.82,-84.81 292.38,-74.25 260.71,-61.6 224.01,-47.26 200.75,-38.2"/>
<polygon fill="#9a32cd" stroke="#9a32cd" points="369.31,-109.18 379.89,-109.73 371.96,-102.71 369.31,-109.18"/>
</a>
</g>
<text text-anchor="middle" x="342.25" y="-76" font-family="Helvetica,sans-Serif" font-size="10.00" fill="grey"> ioRequest</text>
</g>
<!-- Node5&#45;&gt;Node5 -->
<g id="edge10_Node000005_Node000005" class="edge">
<title>Node5&#45;&gt;Node5</title>
<g id="a_edge10_Node000005_Node000005"><a xlink:title=" ">
<path fill="none" stroke="#9a32cd" stroke-dasharray="5,2" d="M446.96,-126.5C451.12,-125.25 453.75,-123.21 453.75,-120.38 453.75,-115.47 445.87,-112.94 435.84,-112.79"/>
<polygon fill="#9a32cd" stroke="#9a32cd" points="446.8,-122.99 437.34,-127.76 447.71,-129.93 446.8,-122.99"/>
</a>
</g>
<text text-anchor="middle" x="483" y="-127.75" font-family="Helvetica,sans-Serif" font-size="10.00" fill="grey"> callbackProc</text>
<text text-anchor="middle" x="483" y="-116.5" font-family="Helvetica,sans-Serif" font-size="10.00" fill="grey">next</text>
<text text-anchor="middle" x="483" y="-105.25" font-family="Helvetica,sans-Serif" font-size="10.00" fill="grey">prev</text>
</g>
<!-- Node6 -->
<g id="Node000006" class="node">
<title>Node6</title>
<g id="a_Node000006"><a xlink:href="usbd_8h.html#struct_usb_device_request" target="_top" xlink:title=" ">
<polygon fill="white" stroke="#bfbfbf" points="541.38,-227.88 441.38,-227.88 441.38,-208.62 541.38,-208.62 541.38,-227.88"/>
<text text-anchor="middle" x="491.38" y="-214.38" font-family="Helvetica,sans-Serif" font-size="10.00">UsbDeviceRequest</text>
</a>
</g>
</g>
<!-- Node6&#45;&gt;Node5 -->
<g id="edge12_Node000005_Node000006" class="edge">
<title>Node6&#45;&gt;Node5</title>
<g id="a_edge12_Node000005_Node000006"><a xlink:title=" ">
<path fill="none" stroke="#9a32cd" stroke-dasharray="5,2" d="M488.17,-196.98C485.21,-183.81 479.63,-166.98 469.38,-155.25 459.45,-143.91 444.81,-135.86 431.84,-130.46"/>
<polygon fill="#9a32cd" stroke="#9a32cd" points="484.72,-197.53 490.01,-206.71 491.59,-196.23 484.72,-197.53"/>
</a>
</g>
<text text-anchor="middle" x="499" y="-162.62" font-family="Helvetica,sans-Serif" font-size="10.00" fill="grey"> devReq</text>
</g>
<!-- Node7 -->
<g id="Node000007" class="node">
<title>Node7</title>
<g id="a_Node000007"><a xlink:href="usbdpriv_8h.html#struct__hc_ed" target="_top" xlink:title=" ">
<polygon fill="white" stroke="#bfbfbf" points="299.88,-308.88 256.88,-308.88 256.88,-289.62 299.88,-289.62 299.88,-308.88"/>
<text text-anchor="middle" x="278.38" y="-295.38" font-family="Helvetica,sans-Serif" font-size="10.00">_hcEd</text>
</a>
</g>
</g>
<!-- Node7&#45;&gt;Node1 -->
<g id="edge15_Node000001_Node000007" class="edge">
<title>Node7&#45;&gt;Node1</title>
<g id="a_edge15_Node000001_Node000007"><a xlink:title=" ">
<path fill="none" stroke="#9a32cd" stroke-dasharray="5,2" d="M278.38,-277.79C278.38,-261.74 278.38,-240.17 278.38,-228.21"/>
<polygon fill="#9a32cd" stroke="#9a32cd" points="274.88,-277.67 278.38,-287.67 281.88,-277.67 274.88,-277.67"/>
</a>
</g>
<text text-anchor="middle" x="290.38" y="-260.5" font-family="Helvetica,sans-Serif" font-size="10.00" fill="grey"> hcEd</text>
</g>
<!-- Node7&#45;&gt;Node7 -->
<g id="edge18_Node000007_Node000007" class="edge">
<title>Node7&#45;&gt;Node7</title>
<g id="a_edge18_Node000007_Node000007"><a xlink:title=" ">
<path fill="none" stroke="#9a32cd" stroke-dasharray="5,2" d="M311.71,-304.78C315.45,-303.74 317.88,-301.89 317.88,-299.25 317.88,-294.41 309.77,-292.26 300.31,-292.79"/>
<polygon fill="#9a32cd" stroke="#9a32cd" points="311.5,-301.28 301.82,-305.59 312.07,-308.26 311.5,-301.28"/>
</a>
</g>
<text text-anchor="middle" x="328" y="-295.38" font-family="Helvetica,sans-Serif" font-size="10.00" fill="grey"> next</text>
</g>
<!-- Node8 -->
<g id="Node000008" class="node">
<title>Node8</title>
<g id="a_Node000008"><a xlink:href="usbdpriv_8h.html#struct__hc_td" target="_top" xlink:title=" ">
<polygon fill="white" stroke="#bfbfbf" points="299.88,-388.25 256.88,-388.25 256.88,-369 299.88,-369 299.88,-388.25"/>
<text text-anchor="middle" x="278.38" y="-374.75" font-family="Helvetica,sans-Serif" font-size="10.00">_hcTd</text>
</a>
</g>
</g>
<!-- Node8&#45;&gt;Node7 -->
<g id="edge16_Node000007_Node000008" class="edge">
<title>Node8&#45;&gt;Node7</title>
<g id="a_edge16_Node000007_Node000008"><a xlink:title=" ">
<path fill="none" stroke="#9a32cd" stroke-dasharray="5,2" d="M278.38,-357.58C278.38,-341.86 278.38,-320.74 278.38,-309.02"/>
<polygon fill="#9a32cd" stroke="#9a32cd" points="274.88,-357.24 278.38,-367.24 281.88,-357.24 274.88,-357.24"/>
</a>
</g>
<text text-anchor="middle" x="295.25" y="-341.5" font-family="Helvetica,sans-Serif" font-size="10.00" fill="grey"> tdHead</text>
<text text-anchor="middle" x="295.25" y="-330.25" font-family="Helvetica,sans-Serif" font-size="10.00" fill="grey">tdTail</text>
</g>
<!-- Node8&#45;&gt;Node8 -->
<g id="edge17_Node000008_Node000008" class="edge">
<title>Node8&#45;&gt;Node8</title>
<g id="a_edge17_Node000008_Node000008"><a xlink:title=" ">
<path fill="none" stroke="#9a32cd" stroke-dasharray="5,2" d="M311.71,-384.79C315.45,-383.63 317.88,-381.57 317.88,-378.62 317.88,-373.23 309.77,-370.83 300.31,-371.42"/>
<polygon fill="#9a32cd" stroke="#9a32cd" points="311.46,-381.29 301.82,-385.69 312.09,-388.27 311.46,-381.29"/>
</a>
</g>
<text text-anchor="middle" x="328" y="-374.75" font-family="Helvetica,sans-Serif" font-size="10.00" fill="grey"> next</text>
</g>
</g>
</svg>

<g id="navigator" transform="translate(0 0)" fill="#404254">
  <rect fill="#f2f5e9" fill-opacity="0.5" stroke="#606060" stroke-width=".5" x="0" y="0" width="60" height="60"/>
  <use id="zoomplus" xlink:href="#zoomPlus" x="17" y="9" onmousedown="handleZoom(evt,'in')"/>
  <use id="zoomminus" xlink:href="#zoomMin" x="42" y="9" onmousedown="handleZoom(evt,'out')"/>
  <use id="reset" xlink:href="#resetDef" x="30" y="36" onmousedown="handleReset()"/>
   <use id="arrowup" xlink:href="#arrowUp" x="0" y="0" onmousedown="handlePan(0,-1)"/>
  <use id="arrowright" xlink:href="#arrowRight" x="0" y="0" onmousedown="handlePan(1,0)"/>
  <use id="arrowdown" xlink:href="#arrowDown" x="0" y="0" onmousedown="handlePan(0,1)"/>
  <use id="arrowleft" xlink:href="#arrowLeft" x="0" y="0" onmousedown="handlePan(-1,0)"/>
</g>
<svg viewBox="0 0 15 15" width="100%" height="30px" preserveAspectRatio="xMaxYMin meet">
 <g id="arrow_out" transform="scale(0.3 0.3)">
  <a xlink:href="struct__endpoint__coll__graph_org.svg" target="_base">
   <rect id="button" ry="5" rx="5" y="6" x="6" height="38" width="38"
        fill="#f2f5e9" fill-opacity="0.5" stroke="#606060" stroke-width="1.0"/>
   <path id="arrow"
     d="M 11.500037,31.436501 C 11.940474,20.09759 22.043105,11.32322 32.158766,21.979434 L 37.068811,17.246167 C 37.068811,17.246167 37.088388,32 37.088388,32 L 22.160133,31.978069 C 22.160133,31.978069 26.997745,27.140456 26.997745,27.140456 C 18.528582,18.264221 13.291696,25.230495 11.500037,31.436501 z"
     style="fill:#404040;"/>
  </a>
 </g>
</svg>

<style type='text/css'>
<![CDATA[
[data-mouse-over-selected='false'] { opacity: 0.7; }
[data-mouse-over-selected='true']  { opacity: 1.0; }
]]>
</style>
<script type="application/ecmascript"><![CDATA[
document.addEventListener('DOMContentLoaded', (event) => {
  highlightEdges();
  highlightAdjacentNodes();
});
]]></script>
</svg>
