<?xml version="1.0" encoding="UTF-8" standalone="no"?>
<!DOCTYPE svg PUBLIC "-//W3C//DTD SVG 1.1//EN"
 "http://www.w3.org/Graphics/SVG/1.1/DTD/svg11.dtd">
<!-- Generated by graphviz version 9.0.0 (20230911.1827)
 -->
<!-- Title: t_SifRpcBindPkt Pages: 1 -->
<svg width="286pt" height="253pt"
 viewBox="0.00 0.00 286.38 252.50" xmlns="http://www.w3.org/2000/svg" xmlns:xlink="http://www.w3.org/1999/xlink">

<svg id="main" version="1.1" xmlns="http://www.w3.org/2000/svg" xmlns:xlink="http://www.w3.org/1999/xlink" xml:space="preserve" onload="init(evt)">
<style type="text/css"><![CDATA[
.node, .edge {opacity: 0.7;}
.node.selected, .edge.selected {opacity: 1;}
.edge:hover path { stroke: red; }
.edge:hover polygon { stroke: red; fill: red; }
]]></style>
<script type="application/ecmascript" xlink:href="svg.min.js"/>
<svg id="graph" class="graph">
<g id="graph0" class="graph" transform="scale(1 1) rotate(0) translate(4 248.5)">
<title>t_SifRpcBindPkt</title>
<!-- Node1 -->
<g id="Node000001" class="node">
<title>Node1</title>
<g id="a_Node000001"><a xlink:title=" ">
<polygon fill="#999999" stroke="#666666" points="108,-109.88 20,-109.88 20,-90.62 108,-90.62 108,-109.88"/>
<text text-anchor="middle" x="64" y="-96.38" font-family="Helvetica,sans-Serif" font-size="10.00">t_SifRpcBindPkt</text>
</a>
</g>
</g>
<!-- Node2 -->
<g id="Node000002" class="node">
<title>Node2</title>
<g id="a_Node000002"><a xlink:href="iop_2kernel_2include_2sifcmd_8h.html#structt___sif_cmd_header" target="_top" xlink:title=" ">
<polygon fill="white" stroke="#666666" points="88,-178 0,-178 0,-158.75 88,-158.75 88,-178"/>
<text text-anchor="middle" x="44" y="-164.5" font-family="Helvetica,sans-Serif" font-size="10.00">t_SifCmdHeader</text>
</a>
</g>
</g>
<!-- Node2&#45;&gt;Node1 -->
<g id="edge1_Node000001_Node000002" class="edge">
<title>Node2&#45;&gt;Node1</title>
<g id="a_edge1_Node000001_Node000002"><a xlink:title=" ">
<path fill="none" stroke="#9a32cd" stroke-dasharray="5,2" d="M44.98,-146.99C45.64,-141.24 46.72,-135.04 48.5,-129.5 50.68,-122.68 54.56,-115.62 57.89,-110.26"/>
<polygon fill="#9a32cd" stroke="#9a32cd" points="41.49,-146.7 44.22,-156.94 48.47,-147.23 41.49,-146.7"/>
</a>
</g>
<text text-anchor="middle" x="64.75" y="-131.25" font-family="Helvetica,sans-Serif" font-size="10.00" fill="grey"> sifcmd</text>
</g>
<!-- Node3 -->
<g id="Node000003" class="node">
<title>Node3</title>
<g id="a_Node000003"><a xlink:href="iop_2kernel_2include_2sifcmd_8h.html#structt___sif_rpc_client_data" target="_top" xlink:title=" ">
<polygon fill="white" stroke="#bfbfbf" points="204.25,-178 105.75,-178 105.75,-158.75 204.25,-158.75 204.25,-178"/>
<text text-anchor="middle" x="155" y="-164.5" font-family="Helvetica,sans-Serif" font-size="10.00">t_SifRpcClientData</text>
</a>
</g>
</g>
<!-- Node3&#45;&gt;Node1 -->
<g id="edge2_Node000001_Node000003" class="edge">
<title>Node3&#45;&gt;Node1</title>
<g id="a_edge2_Node000001_Node000003"><a xlink:title=" ">
<path fill="none" stroke="#9a32cd" stroke-dasharray="5,2" d="M133.65,-151.86C115.84,-138.92 91.07,-120.92 76.37,-110.24"/>
<polygon fill="#9a32cd" stroke="#9a32cd" points="131.36,-154.52 141.5,-157.57 135.47,-148.86 131.36,-154.52"/>
</a>
</g>
<text text-anchor="middle" x="130.75" y="-131.25" font-family="Helvetica,sans-Serif" font-size="10.00" fill="grey"> client</text>
</g>
<!-- Node5 -->
<g id="Node000005" class="node">
<title>Node5</title>
<g id="a_Node000005"><a xlink:href="iop_2kernel_2include_2sifcmd_8h.html#structt___sif_rpc_server_data" target="_top" xlink:title=" ">
<polygon fill="white" stroke="#bfbfbf" points="240.12,-109.88 137.88,-109.88 137.88,-90.62 240.12,-90.62 240.12,-109.88"/>
<text text-anchor="middle" x="189" y="-96.38" font-family="Helvetica,sans-Serif" font-size="10.00">t_SifRpcServerData</text>
</a>
</g>
</g>
<!-- Node3&#45;&gt;Node5 -->
<g id="edge5_Node000005_Node000003" class="edge">
<title>Node3&#45;&gt;Node5</title>
<g id="a_edge5_Node000005_Node000003"><a xlink:title=" ">
<path fill="none" stroke="#9a32cd" stroke-dasharray="5,2" d="M148.49,-147.71C147.55,-141.61 147.69,-135.04 150.5,-129.5 154.7,-121.22 162.59,-114.77 170.14,-110.15"/>
<polygon fill="#9a32cd" stroke="#9a32cd" points="145,-148.17 150.86,-156.99 151.78,-146.44 145,-148.17"/>
</a>
</g>
<text text-anchor="middle" x="163.75" y="-131.25" font-family="Helvetica,sans-Serif" font-size="10.00" fill="grey"> client</text>
</g>
<!-- Node4 -->
<g id="Node000004" class="node">
<title>Node4</title>
<g id="a_Node000004"><a xlink:href="iop_2kernel_2include_2sifcmd_8h.html#structt___sif_rpc_header" target="_top" xlink:title=" ">
<polygon fill="white" stroke="#bfbfbf" points="197.5,-244.5 112.5,-244.5 112.5,-225.25 197.5,-225.25 197.5,-244.5"/>
<text text-anchor="middle" x="155" y="-231" font-family="Helvetica,sans-Serif" font-size="10.00">t_SifRpcHeader</text>
</a>
</g>
</g>
<!-- Node4&#45;&gt;Node3 -->
<g id="edge3_Node000003_Node000004" class="edge">
<title>Node4&#45;&gt;Node3</title>
<g id="a_edge3_Node000003_Node000004"><a xlink:title=" ">
<path fill="none" stroke="#9a32cd" stroke-dasharray="5,2" d="M155,-213.4C155,-201.57 155,-187.29 155,-178.27"/>
<polygon fill="#9a32cd" stroke="#9a32cd" points="151.5,-213.39 155,-223.39 158.5,-213.39 151.5,-213.39"/>
</a>
</g>
<text text-anchor="middle" x="162.88" y="-197.75" font-family="Helvetica,sans-Serif" font-size="10.00" fill="grey"> hdr</text>
</g>
<!-- Node5&#45;&gt;Node3 -->
<g id="edge4_Node000003_Node000005" class="edge">
<title>Node5&#45;&gt;Node3</title>
<g id="a_edge4_Node000003_Node000005"><a xlink:title=" ">
<path fill="none" stroke="#9a32cd" stroke-dasharray="5,2" d="M186.53,-121.46C185.19,-127.88 183.14,-134.85 180,-140.75 176.49,-147.36 170.9,-153.53 165.9,-158.26"/>
<polygon fill="#9a32cd" stroke="#9a32cd" points="189.97,-122.11 188.08,-111.68 183.05,-121.01 189.97,-122.11"/>
</a>
</g>
<text text-anchor="middle" x="198.62" y="-131.25" font-family="Helvetica,sans-Serif" font-size="10.00" fill="grey"> server</text>
</g>
<!-- Node5&#45;&gt;Node5 -->
<g id="edge6_Node000005_Node000005" class="edge">
<title>Node5&#45;&gt;Node5</title>
<g id="a_edge6_Node000005_Node000005"><a xlink:title=" ">
<path fill="none" stroke="#9a32cd" stroke-dasharray="5,2" d="M251.63,-104.89C255.68,-103.8 258.12,-102.26 258.12,-100.25 258.12,-96.78 250.81,-94.69 240.55,-93.98"/>
<polygon fill="#9a32cd" stroke="#9a32cd" points="251.43,-101.38 242.05,-106.3 252.45,-108.3 251.43,-101.38"/>
</a>
</g>
<text text-anchor="middle" x="267.12" y="-102" font-family="Helvetica,sans-Serif" font-size="10.00" fill="grey"> link</text>
<text text-anchor="middle" x="267.12" y="-90.75" font-family="Helvetica,sans-Serif" font-size="10.00" fill="grey">next</text>
</g>
<!-- Node6 -->
<g id="Node000006" class="node">
<title>Node6</title>
<g id="a_Node000006"><a xlink:href="iop_2kernel_2include_2sifcmd_8h.html#structt___sif_rpc_data_queue" target="_top" xlink:title=" ">
<polygon fill="white" stroke="#bfbfbf" points="240.12,-19.25 137.88,-19.25 137.88,0 240.12,0 240.12,-19.25"/>
<text text-anchor="middle" x="189" y="-5.75" font-family="Helvetica,sans-Serif" font-size="10.00">t_SifRpcDataQueue</text>
</a>
</g>
</g>
<!-- Node5&#45;&gt;Node6 -->
<g id="edge8_Node000006_Node000005" class="edge">
<title>Node5&#45;&gt;Node6</title>
<g id="a_edge8_Node000006_Node000005"><a xlink:title=" ">
<path fill="none" stroke="#9a32cd" stroke-dasharray="5,2" d="M171.51,-81.88C169.05,-78.52 166.89,-74.84 165.5,-71 160.4,-56.89 160.19,-51.28 165.5,-37.25 168.12,-30.33 173.44,-24.05 178.37,-19.32"/>
<polygon fill="#9a32cd" stroke="#9a32cd" points="168.68,-83.96 177.86,-89.25 173.98,-79.39 168.68,-83.96"/>
</a>
</g>
<text text-anchor="middle" x="174.75" y="-61.5" font-family="Helvetica,sans-Serif" font-size="10.00" fill="grey"> end</text>
<text text-anchor="middle" x="174.75" y="-50.25" font-family="Helvetica,sans-Serif" font-size="10.00" fill="grey">link</text>
<text text-anchor="middle" x="174.75" y="-39" font-family="Helvetica,sans-Serif" font-size="10.00" fill="grey">start</text>
</g>
<!-- Node6&#45;&gt;Node5 -->
<g id="edge7_Node000005_Node000006" class="edge">
<title>Node6&#45;&gt;Node5</title>
<g id="a_edge7_Node000005_Node000006"><a xlink:title=" ">
<path fill="none" stroke="#9a32cd" stroke-dasharray="5,2" d="M189,-31.1C189,-49.84 189,-76.7 189,-90.43"/>
<polygon fill="#9a32cd" stroke="#9a32cd" points="192.5,-31.19 189,-21.19 185.5,-31.19 192.5,-31.19"/>
</a>
</g>
<text text-anchor="middle" x="200.62" y="-50.25" font-family="Helvetica,sans-Serif" font-size="10.00" fill="grey"> base</text>
</g>
<!-- Node6&#45;&gt;Node6 -->
<g id="edge9_Node000006_Node000006" class="edge">
<title>Node6&#45;&gt;Node6</title>
<g id="a_edge9_Node000006_Node000006"><a xlink:title=" ">
<path fill="none" stroke="#9a32cd" stroke-dasharray="5,2" d="M251.63,-15.54C255.68,-14.16 258.12,-12.19 258.12,-9.62 258.12,-5.19 250.81,-2.53 240.55,-1.63"/>
<polygon fill="#9a32cd" stroke="#9a32cd" points="251.22,-12.06 242.04,-17.35 252.51,-18.94 251.22,-12.06"/>
</a>
</g>
<text text-anchor="middle" x="268.25" y="-5.75" font-family="Helvetica,sans-Serif" font-size="10.00" fill="grey"> next</text>
</g>
</g>
</svg>
</svg>

<style type='text/css'>
<![CDATA[
[data-mouse-over-selected='false'] { opacity: 0.7; }
[data-mouse-over-selected='true']  { opacity: 1.0; }
]]>
</style>
<script type="application/ecmascript"><![CDATA[
document.addEventListener('DOMContentLoaded', (event) => {
  highlightEdges();
  highlightAdjacentNodes();
});
]]></script>
</svg>
