<?xml version="1.0" encoding="UTF-8" standalone="no"?>
<!DOCTYPE svg PUBLIC "-//W3C//DTD SVG 1.1//EN"
 "http://www.w3.org/Graphics/SVG/1.1/DTD/svg11.dtd">
<!-- Generated by graphviz version 2.43.0 (0)
 -->
<!-- Title: _sifm_client_data Pages: 1 -->
<svg width="328pt" height="253pt"
 viewBox="0.00 0.00 327.50 253.00" xmlns="http://www.w3.org/2000/svg" xmlns:xlink="http://www.w3.org/1999/xlink">
<g id="graph0" class="graph" transform="scale(1 1) rotate(0) translate(4 249)">
<title>_sifm_client_data</title>
<polygon fill="white" stroke="transparent" points="-4,4 -4,-249 323.5,-249 323.5,4 -4,4"/>
<!-- Node1 -->
<g id="node1" class="node">
<title>Node1</title>
<g id="a_node1"><a xlink:title=" ">
<polygon fill="#bfbfbf" stroke="black" points="100,-158.5 100,-177.5 203,-177.5 203,-158.5 100,-158.5"/>
<text text-anchor="middle" x="151.5" y="-165.5" font-family="Helvetica,sans-Serif" font-size="10.00">_sifm_client_data</text>
</a>
</g>
</g>
<!-- Node2 -->
<g id="node2" class="node">
<title>Node2</title>
<g id="a_node2"><a xlink:href="struct__sifm__serve__data.html" target="_top" xlink:title=" ">
<polygon fill="white" stroke="black" points="100,-90.5 100,-109.5 203,-109.5 203,-90.5 100,-90.5"/>
<text text-anchor="middle" x="151.5" y="-97.5" font-family="Helvetica,sans-Serif" font-size="10.00">_sifm_serve_data</text>
</a>
</g>
</g>
<!-- Node1&#45;&gt;Node2 -->
<g id="edge5" class="edge">
<title>Node1&#45;&gt;Node2</title>
<path fill="none" stroke="#9a32cd" stroke-dasharray="5,2" d="M129.24,-151.79C122.59,-145.27 117.91,-137.27 121.5,-129 124.91,-121.16 131.71,-114.52 137.98,-109.67"/>
<polygon fill="#9a32cd" stroke="#9a32cd" points="127.02,-154.49 136.93,-158.22 131.5,-149.12 127.02,-154.49"/>
<text text-anchor="middle" x="137" y="-132" font-family="Helvetica,sans-Serif" font-size="10.00"> client</text>
</g>
<!-- Node2&#45;&gt;Node1 -->
<g id="edge1" class="edge">
<title>Node2&#45;&gt;Node1</title>
<path fill="none" stroke="#9a32cd" stroke-dasharray="5,2" d="M155.54,-119.49C156.51,-125.96 157.12,-133.29 156.5,-140 155.94,-146.08 154.69,-152.83 153.58,-158.06"/>
<polygon fill="#9a32cd" stroke="#9a32cd" points="158.98,-118.84 153.71,-109.65 152.1,-120.13 158.98,-118.84"/>
<text text-anchor="middle" x="173" y="-132" font-family="Helvetica,sans-Serif" font-size="10.00"> serve</text>
</g>
<!-- Node2&#45;&gt;Node2 -->
<g id="edge6" class="edge">
<title>Node2&#45;&gt;Node2</title>
<path fill="none" stroke="#9a32cd" stroke-dasharray="5,2" d="M212.96,-104.88C217.92,-103.82 221,-102.19 221,-100 221,-96.58 213.5,-94.54 203.03,-93.87"/>
<polygon fill="#9a32cd" stroke="#9a32cd" points="212.51,-101.41 203.03,-106.13 213.38,-108.35 212.51,-101.41"/>
<text text-anchor="middle" x="233.5" y="-103" font-family="Helvetica,sans-Serif" font-size="10.00"> next</text>
<text text-anchor="middle" x="233.5" y="-92" font-family="Helvetica,sans-Serif" font-size="10.00">link</text>
</g>
<!-- Node3 -->
<g id="node3" class="node">
<title>Node3</title>
<g id="a_node3"><a xlink:href="struct__sifm__serve__entry.html" target="_top" xlink:title=" ">
<polygon fill="white" stroke="black" points="0,-0.5 0,-19.5 107,-19.5 107,-0.5 0,-0.5"/>
<text text-anchor="middle" x="53.5" y="-7.5" font-family="Helvetica,sans-Serif" font-size="10.00">_sifm_serve_entry</text>
</a>
</g>
</g>
<!-- Node2&#45;&gt;Node3 -->
<g id="edge4" class="edge">
<title>Node2&#45;&gt;Node3</title>
<path fill="none" stroke="#9a32cd" stroke-dasharray="5,2" d="M89.96,-89.16C70.45,-84.7 52.4,-78.68 46.5,-71 35,-56.03 43.13,-32.45 48.97,-19.77"/>
<polygon fill="#9a32cd" stroke="#9a32cd" points="89.41,-92.62 99.92,-91.29 90.87,-85.78 89.41,-92.62"/>
<text text-anchor="middle" x="72" y="-52" font-family="Helvetica,sans-Serif" font-size="10.00"> serve_list</text>
</g>
<!-- Node4 -->
<g id="node4" class="node">
<title>Node4</title>
<g id="a_node4"><a xlink:href="struct__sifm__queue__data.html" target="_top" xlink:title=" ">
<polygon fill="white" stroke="black" points="170.5,-0.5 170.5,-19.5 276.5,-19.5 276.5,-0.5 170.5,-0.5"/>
<text text-anchor="middle" x="223.5" y="-7.5" font-family="Helvetica,sans-Serif" font-size="10.00">_sifm_queue_data</text>
</a>
</g>
</g>
<!-- Node2&#45;&gt;Node4 -->
<g id="edge8" class="edge">
<title>Node2&#45;&gt;Node4</title>
<path fill="none" stroke="#9a32cd" stroke-dasharray="5,2" d="M156.07,-80.4C160.02,-67.36 166.81,-50.16 177.5,-38 184.35,-30.21 194.01,-24.07 202.71,-19.63"/>
<polygon fill="#9a32cd" stroke="#9a32cd" points="152.66,-79.61 153.4,-90.18 159.41,-81.45 152.66,-79.61"/>
<text text-anchor="middle" x="189" y="-63" font-family="Helvetica,sans-Serif" font-size="10.00"> end</text>
<text text-anchor="middle" x="189" y="-52" font-family="Helvetica,sans-Serif" font-size="10.00">link</text>
<text text-anchor="middle" x="189" y="-41" font-family="Helvetica,sans-Serif" font-size="10.00">start</text>
</g>
<!-- Node3&#45;&gt;Node2 -->
<g id="edge2" class="edge">
<title>Node3&#45;&gt;Node2</title>
<path fill="none" stroke="#9a32cd" stroke-dasharray="5,2" d="M83.43,-24.69C89.83,-28.44 96.24,-32.91 101.5,-38 113.82,-49.93 110.68,-57.69 121.5,-71 127.25,-78.08 134.75,-85.08 140.81,-90.31"/>
<polygon fill="#9a32cd" stroke="#9a32cd" points="84.66,-21.38 74.19,-19.71 81.33,-27.54 84.66,-21.38"/>
<text text-anchor="middle" x="138.5" y="-52" font-family="Helvetica,sans-Serif" font-size="10.00"> sentry</text>
</g>
<!-- Node3&#45;&gt;Node3 -->
<g id="edge3" class="edge">
<title>Node3&#45;&gt;Node3</title>
<path fill="none" stroke="#9a32cd" stroke-dasharray="5,2" d="M117.02,-16.23C121.96,-14.86 125,-12.78 125,-10 125,-5.66 117.58,-3.03 107.13,-2.12"/>
<polygon fill="#9a32cd" stroke="#9a32cd" points="116.42,-12.78 107.13,-17.88 117.57,-19.69 116.42,-12.78"/>
<text text-anchor="middle" x="137.5" y="-7.5" font-family="Helvetica,sans-Serif" font-size="10.00"> next</text>
</g>
<!-- Node4&#45;&gt;Node2 -->
<g id="edge7" class="edge">
<title>Node4&#45;&gt;Node2</title>
<path fill="none" stroke="#9a32cd" stroke-dasharray="5,2" d="M221.33,-29.78C219.01,-42.6 214.25,-59.32 204.5,-71 197.3,-79.63 186.74,-85.96 176.94,-90.4"/>
<polygon fill="#9a32cd" stroke="#9a32cd" points="224.82,-30.13 222.8,-19.73 217.89,-29.12 224.82,-30.13"/>
<text text-anchor="middle" x="233" y="-52" font-family="Helvetica,sans-Serif" font-size="10.00"> base</text>
</g>
<!-- Node4&#45;&gt;Node4 -->
<g id="edge9" class="edge">
<title>Node4&#45;&gt;Node4</title>
<path fill="none" stroke="#9a32cd" stroke-dasharray="5,2" d="M286.93,-16.13C291.62,-14.76 294.5,-12.71 294.5,-10 294.5,-5.66 287.13,-3.03 276.76,-2.12"/>
<polygon fill="#9a32cd" stroke="#9a32cd" points="286.02,-12.74 276.76,-17.88 287.21,-19.63 286.02,-12.74"/>
<text text-anchor="middle" x="307" y="-7.5" font-family="Helvetica,sans-Serif" font-size="10.00"> next</text>
</g>
<!-- Node5 -->
<g id="node5" class="node">
<title>Node5</title>
<g id="a_node5"><a xlink:href="struct__sifm__rpc__data.html" target="_top" xlink:title=" ">
<polygon fill="white" stroke="black" points="106,-225.5 106,-244.5 197,-244.5 197,-225.5 106,-225.5"/>
<text text-anchor="middle" x="151.5" y="-232.5" font-family="Helvetica,sans-Serif" font-size="10.00">_sifm_rpc_data</text>
</a>
</g>
</g>
<!-- Node5&#45;&gt;Node1 -->
<g id="edge10" class="edge">
<title>Node5&#45;&gt;Node1</title>
<path fill="none" stroke="#9a32cd" stroke-dasharray="5,2" d="M151.5,-215.04C151.5,-202.67 151.5,-187.12 151.5,-177.63"/>
<polygon fill="#9a32cd" stroke="#9a32cd" points="148,-215.23 151.5,-225.23 155,-215.23 148,-215.23"/>
<text text-anchor="middle" x="164" y="-199" font-family="Helvetica,sans-Serif" font-size="10.00"> rpcd</text>
</g>
</g>
</svg>
