<?xml version="1.0" encoding="UTF-8" standalone="no"?>
<!DOCTYPE svg PUBLIC "-//W3C//DTD SVG 1.1//EN"
 "http://www.w3.org/Graphics/SVG/1.1/DTD/svg11.dtd">
<!-- Generated by graphviz version 2.44.0 ()
 -->
<!-- Title: OhciRegs Pages: 1 -->
<svg width="187pt" height="275pt"
 viewBox="0.00 0.00 186.50 275.00" xmlns="http://www.w3.org/2000/svg" xmlns:xlink="http://www.w3.org/1999/xlink">
<g id="graph0" class="graph" transform="scale(1 1) rotate(0) translate(4 271)">
<title>OhciRegs</title>
<polygon fill="white" stroke="transparent" points="-4,4 -4,-271 182.5,-271 182.5,4 -4,4"/>
<!-- Node1 -->
<g id="node1" class="node">
<title>Node1</title>
<g id="a_node1"><a xlink:title=" ">
<polygon fill="#bfbfbf" stroke="black" points="0,-0.5 0,-19.5 59,-19.5 59,-0.5 0,-0.5"/>
<text text-anchor="middle" x="29.5" y="-7.5" font-family="Helvetica,sans-Serif" font-size="10.00">OhciRegs</text>
</a>
</g>
</g>
<!-- Node2 -->
<g id="node2" class="node">
<title>Node2</title>
<g id="a_node2"><a xlink:href="usbdpriv_8h.html#struct__hc_ed" target="_top" xlink:title=" ">
<polygon fill="white" stroke="black" points="21.5,-169.5 21.5,-188.5 65.5,-188.5 65.5,-169.5 21.5,-169.5"/>
<text text-anchor="middle" x="43.5" y="-176.5" font-family="Helvetica,sans-Serif" font-size="10.00">_hcEd</text>
</a>
</g>
</g>
<!-- Node2&#45;&gt;Node1 -->
<g id="edge1" class="edge">
<title>Node2&#45;&gt;Node1</title>
<path fill="none" stroke="#9a32cd" stroke-dasharray="5,2" d="M35.14,-159.64C30.72,-148.91 25.75,-134.97 23.5,-122 16.98,-84.35 24.13,-38.54 27.71,-19.71"/>
<polygon fill="#9a32cd" stroke="#9a32cd" points="32.07,-161.36 39.26,-169.14 38.49,-158.57 32.07,-161.36"/>
<text text-anchor="middle" x="67" y="-114" font-family="Helvetica,sans-Serif" font-size="10.00"> HcBulkCurrentEd</text>
<text text-anchor="middle" x="67" y="-103" font-family="Helvetica,sans-Serif" font-size="10.00">HcBulkHeadEd</text>
<text text-anchor="middle" x="67" y="-92" font-family="Helvetica,sans-Serif" font-size="10.00">HcControlCurrentEd</text>
<text text-anchor="middle" x="67" y="-81" font-family="Helvetica,sans-Serif" font-size="10.00">HcControlHeadEd</text>
<text text-anchor="middle" x="67" y="-70" font-family="Helvetica,sans-Serif" font-size="10.00">HcPeriodCurrentEd</text>
</g>
<!-- Node2&#45;&gt;Node2 -->
<g id="edge2" class="edge">
<title>Node2&#45;&gt;Node2</title>
<path fill="none" stroke="#9a32cd" stroke-dasharray="5,2" d="M75.9,-184.37C80.45,-183.49 83.5,-181.7 83.5,-179 83.5,-174.56 75.3,-172.59 65.71,-173.07"/>
<polygon fill="#9a32cd" stroke="#9a32cd" points="75.51,-180.89 65.71,-184.93 75.89,-187.88 75.51,-180.89"/>
<text text-anchor="middle" x="94" y="-176.5" font-family="Helvetica,sans-Serif" font-size="10.00"> next</text>
</g>
<!-- Node4 -->
<g id="node4" class="node">
<title>Node4</title>
<g id="a_node4"><a xlink:href="usbdpriv_8h.html#struct_hc_c_a" target="_top" xlink:title=" ">
<polygon fill="white" stroke="black" points="119,-85 119,-104 162,-104 162,-85 119,-85"/>
<text text-anchor="middle" x="140.5" y="-92" font-family="Helvetica,sans-Serif" font-size="10.00">HcCA</text>
</a>
</g>
</g>
<!-- Node2&#45;&gt;Node4 -->
<g id="edge6" class="edge">
<title>Node2&#45;&gt;Node4</title>
<path fill="none" stroke="#9a32cd" stroke-dasharray="5,2" d="M49.96,-159.99C53.17,-153.04 57.64,-145.46 63.5,-140 78.06,-126.43 87.27,-131.96 104.5,-122 113.64,-116.72 123.23,-109.57 130.21,-104.03"/>
<polygon fill="#9a32cd" stroke="#9a32cd" points="46.66,-158.82 46.15,-169.41 53.15,-161.45 46.66,-158.82"/>
<text text-anchor="middle" x="95" y="-143" font-family="Helvetica,sans-Serif" font-size="10.00"> InterruptTable</text>
</g>
<!-- Node3 -->
<g id="node3" class="node">
<title>Node3</title>
<g id="a_node3"><a xlink:href="usbdpriv_8h.html#struct__hc_td" target="_top" xlink:title=" ">
<polygon fill="white" stroke="black" points="69.5,-247.5 69.5,-266.5 113.5,-266.5 113.5,-247.5 69.5,-247.5"/>
<text text-anchor="middle" x="91.5" y="-254.5" font-family="Helvetica,sans-Serif" font-size="10.00">_hcTd</text>
</a>
</g>
</g>
<!-- Node3&#45;&gt;Node2 -->
<g id="edge3" class="edge">
<title>Node3&#45;&gt;Node2</title>
<path fill="none" stroke="#9a32cd" stroke-dasharray="5,2" d="M80.49,-238.57C70.63,-222.95 56.57,-200.7 48.94,-188.62"/>
<polygon fill="#9a32cd" stroke="#9a32cd" points="77.69,-240.7 85.99,-247.28 83.61,-236.96 77.69,-240.7"/>
<text text-anchor="middle" x="90.5" y="-221" font-family="Helvetica,sans-Serif" font-size="10.00"> tdHead</text>
<text text-anchor="middle" x="90.5" y="-210" font-family="Helvetica,sans-Serif" font-size="10.00">tdTail</text>
</g>
<!-- Node3&#45;&gt;Node3 -->
<g id="edge4" class="edge">
<title>Node3&#45;&gt;Node3</title>
<path fill="none" stroke="#9a32cd" stroke-dasharray="5,2" d="M123.9,-263.38C128.45,-262.34 131.5,-260.21 131.5,-257 131.5,-251.73 123.3,-249.38 113.71,-249.96"/>
<polygon fill="#9a32cd" stroke="#9a32cd" points="123.46,-259.9 113.71,-264.04 123.92,-266.88 123.46,-259.9"/>
<text text-anchor="middle" x="142" y="-254.5" font-family="Helvetica,sans-Serif" font-size="10.00"> next</text>
</g>
<!-- Node3&#45;&gt;Node4 -->
<g id="edge7" class="edge">
<title>Node3&#45;&gt;Node4</title>
<path fill="none" stroke="#9a32cd" stroke-dasharray="5,2" d="M105.78,-238.95C107.94,-235.78 109.96,-232.4 111.5,-229 131.58,-184.72 138.1,-125.75 139.9,-104.01"/>
<polygon fill="#9a32cd" stroke="#9a32cd" points="102.84,-237.04 99.59,-247.12 108.41,-241.26 102.84,-237.04"/>
<text text-anchor="middle" x="154" y="-176.5" font-family="Helvetica,sans-Serif" font-size="10.00"> DoneHead</text>
</g>
<!-- Node4&#45;&gt;Node1 -->
<g id="edge5" class="edge">
<title>Node4&#45;&gt;Node1</title>
<path fill="none" stroke="#9a32cd" stroke-dasharray="5,2" d="M120.95,-78.97C97.8,-61.76 59.99,-33.67 41.06,-19.6"/>
<polygon fill="#9a32cd" stroke="#9a32cd" points="118.93,-81.83 129.04,-84.98 123.1,-76.21 118.93,-81.83"/>
<text text-anchor="middle" x="100" y="-41" font-family="Helvetica,sans-Serif" font-size="10.00"> HcHCCA</text>
</g>
</g>
</svg>
