<?xml version="1.0" encoding="UTF-8" standalone="no"?>
<!DOCTYPE svg PUBLIC "-//W3C//DTD SVG 1.1//EN"
 "http://www.w3.org/Graphics/SVG/1.1/DTD/svg11.dtd">
<!-- Generated by graphviz version 9.0.0 (20230911.1827)
 -->
<!-- Title: pfs_blockpos_t Pages: 1 -->
<svg width="208pt" height="253pt"
 viewBox="0.00 0.00 208.00 252.50" xmlns="http://www.w3.org/2000/svg" xmlns:xlink="http://www.w3.org/1999/xlink">

<svg id="main" version="1.1" xmlns="http://www.w3.org/2000/svg" xmlns:xlink="http://www.w3.org/1999/xlink" xml:space="preserve" onload="init(evt)">
<style type="text/css"><![CDATA[
.node, .edge {opacity: 0.7;}
.node.selected, .edge.selected {opacity: 1;}
.edge:hover path { stroke: red; }
.edge:hover polygon { stroke: red; fill: red; }
]]></style>
<script type="application/ecmascript" xlink:href="svg.min.js"/>
<svg id="graph" class="graph">
<g id="graph0" class="graph" transform="scale(1 1) rotate(0) translate(4 248.5)">
<title>pfs_blockpos_t</title>
<!-- Node1 -->
<g id="Node000001" class="node">
<title>Node1</title>
<g id="a_Node000001"><a xlink:title=" ">
<polygon fill="#999999" stroke="#666666" points="145,-19.25 63,-19.25 63,0 145,0 145,-19.25"/>
<text text-anchor="middle" x="104" y="-5.75" font-family="Helvetica,sans-Serif" font-size="10.00">pfs_blockpos_t</text>
</a>
</g>
</g>
<!-- Node2 -->
<g id="Node000002" class="node">
<title>Node2</title>
<g id="a_Node000002"><a xlink:href="structpfs__cache__s.html" target="_top" xlink:title=" ">
<polygon fill="white" stroke="#bfbfbf" points="139.75,-87.38 68.25,-87.38 68.25,-68.12 139.75,-68.12 139.75,-87.38"/>
<text text-anchor="middle" x="104" y="-73.88" font-family="Helvetica,sans-Serif" font-size="10.00">pfs_cache_s</text>
</a>
</g>
</g>
<!-- Node2&#45;&gt;Node1 -->
<g id="edge1_Node000001_Node000002" class="edge">
<title>Node2&#45;&gt;Node1</title>
<g id="a_edge1_Node000001_Node000002"><a xlink:title=" ">
<path fill="none" stroke="#9a32cd" stroke-dasharray="5,2" d="M104,-56.68C104,-44.23 104,-28.86 104,-19.4"/>
<polygon fill="#9a32cd" stroke="#9a32cd" points="100.5,-56.32 104,-66.32 107.5,-56.32 100.5,-56.32"/>
</a>
</g>
<text text-anchor="middle" x="116.75" y="-39" font-family="Helvetica,sans-Serif" font-size="10.00" fill="grey"> inode</text>
</g>
<!-- Node2&#45;&gt;Node2 -->
<g id="edge2_Node000002_Node000002" class="edge">
<title>Node2&#45;&gt;Node2</title>
<g id="a_edge2_Node000002_Node000002"><a xlink:title=" ">
<path fill="none" stroke="#9a32cd" stroke-dasharray="5,2" d="M151.46,-82.77C155.34,-81.69 157.75,-80.01 157.75,-77.75 157.75,-73.73 150.14,-71.56 140.17,-71.25"/>
<polygon fill="#9a32cd" stroke="#9a32cd" points="151.14,-79.29 141.67,-84.05 152.04,-86.23 151.14,-79.29"/>
</a>
</g>
<text text-anchor="middle" x="167.88" y="-79.5" font-family="Helvetica,sans-Serif" font-size="10.00" fill="grey"> next</text>
<text text-anchor="middle" x="167.88" y="-68.25" font-family="Helvetica,sans-Serif" font-size="10.00" fill="grey">prev</text>
</g>
<!-- Node3 -->
<g id="Node000003" class="node">
<title>Node3</title>
<g id="a_Node000003"><a xlink:href="structpfs__mount__t.html" target="_top" xlink:title=" ">
<polygon fill="white" stroke="#bfbfbf" points="139,-155.5 69,-155.5 69,-136.25 139,-136.25 139,-155.5"/>
<text text-anchor="middle" x="104" y="-142" font-family="Helvetica,sans-Serif" font-size="10.00">pfs_mount_t</text>
</a>
</g>
</g>
<!-- Node3&#45;&gt;Node2 -->
<g id="edge3_Node000002_Node000003" class="edge">
<title>Node3&#45;&gt;Node2</title>
<g id="a_edge3_Node000002_Node000003"><a xlink:title=" ">
<path fill="none" stroke="#9a32cd" stroke-dasharray="5,2" d="M104,-124.81C104,-112.36 104,-96.99 104,-87.53"/>
<polygon fill="#9a32cd" stroke="#9a32cd" points="100.5,-124.44 104,-134.44 107.5,-124.44 100.5,-124.44"/>
</a>
</g>
<text text-anchor="middle" x="125.38" y="-108.75" font-family="Helvetica,sans-Serif" font-size="10.00" fill="grey"> pfsMount</text>
</g>
<!-- Node4 -->
<g id="Node000004" class="node">
<title>Node4</title>
<g id="a_Node000004"><a xlink:href="structpfs__block__device__t.html" target="_top" xlink:title=" ">
<polygon fill="white" stroke="#bfbfbf" points="100,-244.5 0,-244.5 0,-225.25 100,-225.25 100,-244.5"/>
<text text-anchor="middle" x="50" y="-231" font-family="Helvetica,sans-Serif" font-size="10.00">pfs_block_device_t</text>
</a>
</g>
</g>
<!-- Node4&#45;&gt;Node3 -->
<g id="edge4_Node000003_Node000004" class="edge">
<title>Node4&#45;&gt;Node3</title>
<g id="a_edge4_Node000003_Node000004"><a xlink:title=" ">
<path fill="none" stroke="#9a32cd" stroke-dasharray="5,2" d="M61.51,-215.33C72.85,-197.06 89.69,-169.93 98.37,-155.94"/>
<polygon fill="#9a32cd" stroke="#9a32cd" points="58.67,-213.26 56.37,-223.61 64.62,-216.96 58.67,-213.26"/>
</a>
</g>
<text text-anchor="middle" x="108.38" y="-186.5" font-family="Helvetica,sans-Serif" font-size="10.00" fill="grey"> blockDev</text>
</g>
<!-- Node5 -->
<g id="Node000005" class="node">
<title>Node5</title>
<g id="a_Node000005"><a xlink:href="structpfs__blockinfo__t.html" target="_top" xlink:title=" ">
<polygon fill="white" stroke="#bfbfbf" points="200,-244.5 118,-244.5 118,-225.25 200,-225.25 200,-244.5"/>
<text text-anchor="middle" x="159" y="-231" font-family="Helvetica,sans-Serif" font-size="10.00">pfs_blockinfo_t</text>
</a>
</g>
</g>
<!-- Node5&#45;&gt;Node3 -->
<g id="edge5_Node000003_Node000005" class="edge">
<title>Node5&#45;&gt;Node3</title>
<g id="a_edge5_Node000003_Node000005"><a xlink:title=" ">
<path fill="none" stroke="#9a32cd" stroke-dasharray="5,2" d="M153.34,-214.11C149.21,-201.73 142.78,-185.84 134,-173.5 129.23,-166.81 122.49,-160.63 116.6,-155.91"/>
<polygon fill="#9a32cd" stroke="#9a32cd" points="149.98,-215.08 156.27,-223.61 156.67,-213.02 149.98,-215.08"/>
</a>
</g>
<text text-anchor="middle" x="174" y="-197.75" font-family="Helvetica,sans-Serif" font-size="10.00" fill="grey"> current_dir</text>
<text text-anchor="middle" x="174" y="-186.5" font-family="Helvetica,sans-Serif" font-size="10.00" fill="grey">log</text>
<text text-anchor="middle" x="174" y="-175.25" font-family="Helvetica,sans-Serif" font-size="10.00" fill="grey">root_dir</text>
</g>
</g>
</svg>
</svg>

<style type='text/css'>
<![CDATA[
[data-mouse-over-selected='false'] { opacity: 0.7; }
[data-mouse-over-selected='true']  { opacity: 1.0; }
]]>
</style>
<script type="application/ecmascript"><![CDATA[
document.addEventListener('DOMContentLoaded', (event) => {
  highlightEdges();
  highlightAdjacentNodes();
});
]]></script>
</svg>
