<?xml version="1.0" encoding="UTF-8" standalone="no"?>
<!DOCTYPE svg PUBLIC "-//W3C//DTD SVG 1.1//EN"
 "http://www.w3.org/Graphics/SVG/1.1/DTD/svg11.dtd">
<!-- Generated by graphviz version 2.44.0 ()
 -->
<!-- Title: _cache_set Pages: 1 -->
<svg width="321pt" height="229pt"
 viewBox="0.00 0.00 320.50 229.00" xmlns="http://www.w3.org/2000/svg" xmlns:xlink="http://www.w3.org/1999/xlink">
<g id="graph0" class="graph" transform="scale(1 1) rotate(0) translate(4 225)">
<title>_cache_set</title>
<polygon fill="white" stroke="transparent" points="-4,4 -4,-225 316.5,-225 316.5,4 -4,4"/>
<!-- Node1 -->
<g id="node1" class="node">
<title>Node1</title>
<g id="a_node1"><a xlink:title=" ">
<polygon fill="#bfbfbf" stroke="black" points="89,-67.5 89,-86.5 156,-86.5 156,-67.5 89,-67.5"/>
<text text-anchor="middle" x="122.5" y="-74.5" font-family="Helvetica,sans-Serif" font-size="10.00">_cache_set</text>
</a>
</g>
</g>
<!-- Node3 -->
<g id="node3" class="node">
<title>Node3</title>
<g id="a_node3"><a xlink:href="struct__mass__dev.html" target="_top" xlink:title=" ">
<polygon fill="white" stroke="black" points="37,-0.5 37,-19.5 104,-19.5 104,-0.5 37,-0.5"/>
<text text-anchor="middle" x="70.5" y="-7.5" font-family="Helvetica,sans-Serif" font-size="10.00">_mass_dev</text>
</a>
</g>
</g>
<!-- Node1&#45;&gt;Node3 -->
<g id="edge4" class="edge">
<title>Node1&#45;&gt;Node3</title>
<path fill="none" stroke="#9a32cd" stroke-dasharray="5,2" d="M81.54,-62.57C75.96,-59.02 70.97,-54.57 67.5,-49 61.97,-40.13 64.41,-27.73 67.09,-19.54"/>
<polygon fill="#9a32cd" stroke="#9a32cd" points="80.18,-65.82 90.65,-67.44 83.48,-59.64 80.18,-65.82"/>
<text text-anchor="middle" x="82" y="-41" font-family="Helvetica,sans-Serif" font-size="10.00"> cache</text>
</g>
<!-- Node2 -->
<g id="node2" class="node">
<title>Node2</title>
<g id="a_node2"><a xlink:href="usbhdfsd_8h.html#struct__cache__record" target="_top" xlink:title=" ">
<polygon fill="white" stroke="black" points="140.5,-134.5 140.5,-153.5 220.5,-153.5 220.5,-134.5 140.5,-134.5"/>
<text text-anchor="middle" x="180.5" y="-141.5" font-family="Helvetica,sans-Serif" font-size="10.00">_cache_record</text>
</a>
</g>
</g>
<!-- Node2&#45;&gt;Node1 -->
<g id="edge1" class="edge">
<title>Node2&#45;&gt;Node1</title>
<path fill="none" stroke="#9a32cd" stroke-dasharray="5,2" d="M165.9,-126.63C154.55,-113.92 139.27,-96.8 130.2,-86.63"/>
<polygon fill="#9a32cd" stroke="#9a32cd" points="163.41,-129.1 172.68,-134.23 168.63,-124.44 163.41,-129.1"/>
<text text-anchor="middle" x="163.5" y="-108" font-family="Helvetica,sans-Serif" font-size="10.00"> rec</text>
</g>
<!-- Node3&#45;&gt;Node1 -->
<g id="edge2" class="edge">
<title>Node3&#45;&gt;Node1</title>
<path fill="none" stroke="#9a32cd" stroke-dasharray="5,2" d="M89.35,-26.31C93.26,-29.93 97.2,-33.93 100.5,-38 107.99,-47.24 114.52,-59.33 118.48,-67.36"/>
<polygon fill="#9a32cd" stroke="#9a32cd" points="91.39,-23.44 81.55,-19.51 86.79,-28.72 91.39,-23.44"/>
<text text-anchor="middle" x="118" y="-41" font-family="Helvetica,sans-Serif" font-size="10.00"> dev</text>
</g>
<!-- Node4 -->
<g id="node4" class="node">
<title>Node4</title>
<g id="a_node4"><a xlink:href="structscsi__interface.html" target="_top" xlink:title=" ">
<polygon fill="white" stroke="black" points="0,-201.5 0,-220.5 77,-220.5 77,-201.5 0,-201.5"/>
<text text-anchor="middle" x="38.5" y="-208.5" font-family="Helvetica,sans-Serif" font-size="10.00">scsi_interface</text>
</a>
</g>
</g>
<!-- Node4&#45;&gt;Node3 -->
<g id="edge3" class="edge">
<title>Node4&#45;&gt;Node3</title>
<path fill="none" stroke="#9a32cd" stroke-dasharray="5,2" d="M38.43,-190.77C38.58,-175.36 39.23,-153.23 41.5,-134 46.6,-90.81 48.69,-79.86 60.5,-38 62.24,-31.84 64.74,-25.09 66.8,-19.88"/>
<polygon fill="#9a32cd" stroke="#9a32cd" points="34.93,-191.06 38.4,-201.07 41.93,-191.08 34.93,-191.06"/>
<text text-anchor="middle" x="56" y="-108" font-family="Helvetica,sans-Serif" font-size="10.00"> scsi</text>
</g>
<!-- Node6 -->
<g id="node6" class="node">
<title>Node6</title>
<g id="a_node6"><a xlink:href="struct_s_b_p2_device.html" target="_top" xlink:title=" ">
<polygon fill="white" stroke="black" points="50.5,-134.5 50.5,-153.5 122.5,-153.5 122.5,-134.5 50.5,-134.5"/>
<text text-anchor="middle" x="86.5" y="-141.5" font-family="Helvetica,sans-Serif" font-size="10.00">SBP2Device</text>
</a>
</g>
</g>
<!-- Node4&#45;&gt;Node6 -->
<g id="edge7" class="edge">
<title>Node4&#45;&gt;Node6</title>
<path fill="none" stroke="#9a32cd" stroke-dasharray="5,2" d="M51.12,-192.9C60.45,-180.27 72.76,-163.6 80.13,-153.63"/>
<polygon fill="#9a32cd" stroke="#9a32cd" points="48.1,-191.11 44.97,-201.23 53.73,-195.27 48.1,-191.11"/>
<text text-anchor="middle" x="76" y="-175" font-family="Helvetica,sans-Serif" font-size="10.00"> scsi</text>
</g>
<!-- Node5 -->
<g id="node5" class="node">
<title>Node5</title>
<g id="a_node5"><a xlink:href="structblock__device.html" target="_top" xlink:title=" ">
<polygon fill="white" stroke="black" points="238.5,-134.5 238.5,-153.5 312.5,-153.5 312.5,-134.5 238.5,-134.5"/>
<text text-anchor="middle" x="275.5" y="-141.5" font-family="Helvetica,sans-Serif" font-size="10.00">block_device</text>
</a>
</g>
</g>
<!-- Node5&#45;&gt;Node1 -->
<g id="edge5" class="edge">
<title>Node5&#45;&gt;Node1</title>
<path fill="none" stroke="#9a32cd" stroke-dasharray="5,2" d="M245.96,-130.45C215.66,-117.58 169.35,-97.9 142.9,-86.67"/>
<polygon fill="#9a32cd" stroke="#9a32cd" points="244.61,-133.68 255.18,-134.37 247.35,-127.24 244.61,-133.68"/>
<text text-anchor="middle" x="215" y="-108" font-family="Helvetica,sans-Serif" font-size="10.00"> bd</text>
</g>
<!-- Node6&#45;&gt;Node1 -->
<g id="edge6" class="edge">
<title>Node6&#45;&gt;Node1</title>
<path fill="none" stroke="#9a32cd" stroke-dasharray="5,2" d="M96.38,-125.16C103.32,-112.63 112.3,-96.41 117.72,-86.63"/>
<polygon fill="#9a32cd" stroke="#9a32cd" points="93.14,-123.79 91.36,-134.23 99.26,-127.18 93.14,-123.79"/>
<text text-anchor="middle" x="117" y="-108" font-family="Helvetica,sans-Serif" font-size="10.00"> dev</text>
</g>
</g>
</svg>
