<?xml version="1.0" encoding="UTF-8" standalone="no"?>
<!DOCTYPE svg PUBLIC "-//W3C//DTD SVG 1.1//EN"
 "http://www.w3.org/Graphics/SVG/1.1/DTD/svg11.dtd">
<!-- Generated by graphviz version 9.0.0 (20230911.1827)
 -->
<!-- Title: DIR Pages: 1 -->
<svg width="146pt" height="283pt"
 viewBox="0.00 0.00 146.00 283.00" xmlns="http://www.w3.org/2000/svg" xmlns:xlink="http://www.w3.org/1999/xlink">

<svg id="main" version="1.1" xmlns="http://www.w3.org/2000/svg" xmlns:xlink="http://www.w3.org/1999/xlink" xml:space="preserve" onload="init(evt)">
<style type="text/css"><![CDATA[
.node, .edge {opacity: 0.7;}
.node.selected, .edge.selected {opacity: 1;}
.edge:hover path { stroke: red; }
.edge:hover polygon { stroke: red; fill: red; }
]]></style>
<script type="application/ecmascript" xlink:href="svg.min.js"/>
<svg id="graph" class="graph">
<g id="graph0" class="graph" transform="scale(1 1) rotate(0) translate(4 279)">
<title>DIR</title>
<!-- Node1 -->
<g id="Node000001" class="node">
<title>Node1</title>
<g id="a_Node000001"><a xlink:title=" ">
<polygon fill="#999999" stroke="#666666" points="32.5,-19.25 0,-19.25 0,0 32.5,0 32.5,-19.25"/>
<text text-anchor="middle" x="16.25" y="-5.75" font-family="Helvetica,sans-Serif" font-size="10.00">DIR</text>
</a>
</g>
</g>
<!-- Node2 -->
<g id="Node000002" class="node">
<title>Node2</title>
<g id="a_Node000002"><a xlink:href="struct_f_f_o_b_j_i_d.html" target="_top" xlink:title=" ">
<polygon fill="white" stroke="#bfbfbf" points="79.88,-85.75 22.63,-85.75 22.63,-66.5 79.88,-66.5 79.88,-85.75"/>
<text text-anchor="middle" x="51.25" y="-72.25" font-family="Helvetica,sans-Serif" font-size="10.00">FFOBJID</text>
</a>
</g>
</g>
<!-- Node2&#45;&gt;Node1 -->
<g id="edge1_Node000001_Node000002" class="edge">
<title>Node2&#45;&gt;Node1</title>
<g id="a_edge1_Node000001_Node000002"><a xlink:title=" ">
<path fill="none" stroke="#9a32cd" stroke-dasharray="5,2" d="M40.95,-56.14C34.38,-44.04 26.18,-28.92 21.08,-19.52"/>
<polygon fill="#9a32cd" stroke="#9a32cd" points="37.82,-57.71 45.66,-64.83 43.97,-54.37 37.82,-57.71"/>
</a>
</g>
<text text-anchor="middle" x="43.75" y="-39" font-family="Helvetica,sans-Serif" font-size="10.00" fill="grey"> obj</text>
</g>
<!-- Node3 -->
<g id="Node000003" class="node">
<title>Node3</title>
<g id="a_Node000003"><a xlink:href="struct_f_a_t_f_s.html" target="_top" xlink:title=" ">
<polygon fill="white" stroke="#bfbfbf" points="138,-152.25 90.5,-152.25 90.5,-133 138,-133 138,-152.25"/>
<text text-anchor="middle" x="114.25" y="-138.75" font-family="Helvetica,sans-Serif" font-size="10.00">FATFS</text>
</a>
</g>
</g>
<!-- Node3&#45;&gt;Node2 -->
<g id="edge2_Node000002_Node000003" class="edge">
<title>Node3&#45;&gt;Node2</title>
<g id="a_edge2_Node000002_Node000003"><a xlink:title=" ">
<path fill="none" stroke="#9a32cd" stroke-dasharray="5,2" d="M97.49,-124.47C85.41,-112.1 69.59,-95.9 59.94,-86.02"/>
<polygon fill="#9a32cd" stroke="#9a32cd" points="94.94,-126.87 104.43,-131.57 99.95,-121.97 94.94,-126.87"/>
</a>
</g>
<text text-anchor="middle" x="91.5" y="-105.5" font-family="Helvetica,sans-Serif" font-size="10.00" fill="grey"> fs</text>
</g>
<!-- Node4 -->
<g id="Node000004" class="node">
<title>Node4</title>
<g id="a_Node000004"><a xlink:href="libgs_8h.html#struct_q_w_o_r_d" target="_top" xlink:title=" ">
<polygon fill="white" stroke="#bfbfbf" points="67,-275 13.5,-275 13.5,-255.75 67,-255.75 67,-275"/>
<text text-anchor="middle" x="40.25" y="-261.5" font-family="Helvetica,sans-Serif" font-size="10.00">QWORD</text>
</a>
</g>
</g>
<!-- Node4&#45;&gt;Node1 -->
<g id="edge5_Node000001_Node000004" class="edge">
<title>Node4&#45;&gt;Node1</title>
<g id="a_edge5_Node000001_Node000004"><a xlink:title=" ">
<path fill="none" stroke="#9a32cd" stroke-dasharray="5,2" d="M35.28,-244.16C27.02,-208.49 11.49,-131.94 13.25,-66.5 13.69,-49.99 14.87,-30.77 15.61,-19.72"/>
<polygon fill="#9a32cd" stroke="#9a32cd" points="31.88,-244.97 37.61,-253.89 38.69,-243.35 31.88,-244.97"/>
</a>
</g>
<text text-anchor="middle" x="25.75" y="-105.5" font-family="Helvetica,sans-Serif" font-size="10.00" fill="grey"> sect</text>
</g>
<!-- Node4&#45;&gt;Node2 -->
<g id="edge4_Node000002_Node000004" class="edge">
<title>Node4&#45;&gt;Node2</title>
<g id="a_edge4_Node000002_Node000004"><a xlink:title=" ">
<path fill="none" stroke="#9a32cd" stroke-dasharray="5,2" d="M41.44,-244.07C43.82,-203.64 49.05,-114.55 50.72,-86.07"/>
<polygon fill="#9a32cd" stroke="#9a32cd" points="37.96,-243.64 40.87,-253.83 44.95,-244.06 37.96,-243.64"/>
</a>
</g>
<text text-anchor="middle" x="63.38" y="-138.75" font-family="Helvetica,sans-Serif" font-size="10.00" fill="grey"> objsize</text>
</g>
<!-- Node4&#45;&gt;Node3 -->
<g id="edge3_Node000003_Node000004" class="edge">
<title>Node4&#45;&gt;Node3</title>
<g id="a_edge3_Node000003_Node000004"><a xlink:title=" ">
<path fill="none" stroke="#9a32cd" stroke-dasharray="5,2" d="M51.7,-245.69C67.89,-219.27 96.84,-172.03 108.82,-152.48"/>
<polygon fill="#9a32cd" stroke="#9a32cd" points="48.84,-243.65 46.6,-254.01 54.81,-247.31 48.84,-243.65"/>
</a>
</g>
<text text-anchor="middle" x="116.12" y="-228.25" font-family="Helvetica,sans-Serif" font-size="10.00" fill="grey"> bitbase</text>
<text text-anchor="middle" x="116.12" y="-217" font-family="Helvetica,sans-Serif" font-size="10.00" fill="grey">database</text>
<text text-anchor="middle" x="116.12" y="-205.75" font-family="Helvetica,sans-Serif" font-size="10.00" fill="grey">dirbase</text>
<text text-anchor="middle" x="116.12" y="-194.5" font-family="Helvetica,sans-Serif" font-size="10.00" fill="grey">fatbase</text>
<text text-anchor="middle" x="116.12" y="-183.25" font-family="Helvetica,sans-Serif" font-size="10.00" fill="grey">volbase</text>
<text text-anchor="middle" x="116.12" y="-172" font-family="Helvetica,sans-Serif" font-size="10.00" fill="grey">winsect</text>
</g>
</g>
</svg>
</svg>

<style type='text/css'>
<![CDATA[
[data-mouse-over-selected='false'] { opacity: 0.7; }
[data-mouse-over-selected='true']  { opacity: 1.0; }
]]>
</style>
<script type="application/ecmascript"><![CDATA[
document.addEventListener('DOMContentLoaded', (event) => {
  highlightEdges();
  highlightAdjacentNodes();
});
]]></script>
</svg>
