<?xml version="1.0" encoding="UTF-8" standalone="no"?>
<!DOCTYPE svg PUBLIC "-//W3C//DTD SVG 1.1//EN"
 "http://www.w3.org/Graphics/SVG/1.1/DTD/svg11.dtd">
<!-- Generated by graphviz version 2.43.0 (0)
 -->
<!-- Title: _sifm_serve_entry Pages: 1 -->
<svg width="311pt" height="186pt"
 viewBox="0.00 0.00 310.50 186.00" xmlns="http://www.w3.org/2000/svg" xmlns:xlink="http://www.w3.org/1999/xlink">
<g id="graph0" class="graph" transform="scale(1 1) rotate(0) translate(4 182)">
<title>_sifm_serve_entry</title>
<polygon fill="white" stroke="transparent" points="-4,4 -4,-182 306.5,-182 306.5,4 -4,4"/>
<!-- Node1 -->
<g id="node1" class="node">
<title>Node1</title>
<g id="a_node1"><a xlink:title=" ">
<polygon fill="#bfbfbf" stroke="black" points="45.5,-158.5 45.5,-177.5 152.5,-177.5 152.5,-158.5 45.5,-158.5"/>
<text text-anchor="middle" x="99" y="-165.5" font-family="Helvetica,sans-Serif" font-size="10.00">_sifm_serve_entry</text>
</a>
</g>
</g>
<!-- Node1&#45;&gt;Node1 -->
<g id="edge1" class="edge">
<title>Node1&#45;&gt;Node1</title>
<path fill="none" stroke="#9a32cd" stroke-dasharray="5,2" d="M162.88,-172.46C167.6,-171.46 170.5,-169.97 170.5,-168 170.5,-164.84 163.08,-162.93 152.63,-162.27"/>
<polygon fill="#9a32cd" stroke="#9a32cd" points="162.12,-169.03 152.63,-173.73 162.99,-175.97 162.12,-169.03"/>
<text text-anchor="middle" x="183" y="-165.5" font-family="Helvetica,sans-Serif" font-size="10.00"> next</text>
</g>
<!-- Node2 -->
<g id="node2" class="node">
<title>Node2</title>
<g id="a_node2"><a xlink:href="struct__sifm__serve__data.html" target="_top" xlink:title=" ">
<polygon fill="white" stroke="black" points="47.5,-90.5 47.5,-109.5 150.5,-109.5 150.5,-90.5 47.5,-90.5"/>
<text text-anchor="middle" x="99" y="-97.5" font-family="Helvetica,sans-Serif" font-size="10.00">_sifm_serve_data</text>
</a>
</g>
</g>
<!-- Node1&#45;&gt;Node2 -->
<g id="edge3" class="edge">
<title>Node1&#45;&gt;Node2</title>
<path fill="none" stroke="#9a32cd" stroke-dasharray="5,2" d="M76,-151.87C69.13,-145.36 64.29,-137.34 68,-129 71.53,-121.05 78.57,-114.4 85.04,-109.58"/>
<polygon fill="#9a32cd" stroke="#9a32cd" points="73.97,-154.72 83.95,-158.27 78.36,-149.27 73.97,-154.72"/>
<text text-anchor="middle" x="85" y="-132" font-family="Helvetica,sans-Serif" font-size="10.00"> sentry</text>
</g>
<!-- Node2&#45;&gt;Node1 -->
<g id="edge2" class="edge">
<title>Node2&#45;&gt;Node1</title>
<path fill="none" stroke="#9a32cd" stroke-dasharray="5,2" d="M104.66,-119.46C106.02,-125.93 106.86,-133.27 106,-140 105.22,-146.15 103.47,-152.9 101.91,-158.11"/>
<polygon fill="#9a32cd" stroke="#9a32cd" points="108,-118.42 102.09,-109.64 101.23,-120.2 108,-118.42"/>
<text text-anchor="middle" x="132.5" y="-132" font-family="Helvetica,sans-Serif" font-size="10.00"> serve_list</text>
</g>
<!-- Node2&#45;&gt;Node2 -->
<g id="edge7" class="edge">
<title>Node2&#45;&gt;Node2</title>
<path fill="none" stroke="#9a32cd" stroke-dasharray="5,2" d="M160.46,-104.88C165.42,-103.82 168.5,-102.19 168.5,-100 168.5,-96.58 161,-94.54 150.53,-93.87"/>
<polygon fill="#9a32cd" stroke="#9a32cd" points="160.01,-101.41 150.53,-106.13 160.88,-108.35 160.01,-101.41"/>
<text text-anchor="middle" x="181" y="-103" font-family="Helvetica,sans-Serif" font-size="10.00"> next</text>
<text text-anchor="middle" x="181" y="-92" font-family="Helvetica,sans-Serif" font-size="10.00">link</text>
</g>
<!-- Node3 -->
<g id="node3" class="node">
<title>Node3</title>
<g id="a_node3"><a xlink:href="struct__sifm__client__data.html" target="_top" xlink:title=" ">
<polygon fill="white" stroke="black" points="167.5,-0.5 167.5,-19.5 270.5,-19.5 270.5,-0.5 167.5,-0.5"/>
<text text-anchor="middle" x="219" y="-7.5" font-family="Helvetica,sans-Serif" font-size="10.00">_sifm_client_data</text>
</a>
</g>
</g>
<!-- Node2&#45;&gt;Node3 -->
<g id="edge5" class="edge">
<title>Node2&#45;&gt;Node3</title>
<path fill="none" stroke="#9a32cd" stroke-dasharray="5,2" d="M151.92,-87.19C162.29,-83.22 172.55,-77.95 181,-71 194.07,-60.24 190.9,-52.27 200,-38 203.95,-31.81 208.7,-25.06 212.46,-19.86"/>
<polygon fill="#9a32cd" stroke="#9a32cd" points="150.71,-83.9 142.41,-90.48 153.01,-90.51 150.71,-83.9"/>
<text text-anchor="middle" x="215.5" y="-52" font-family="Helvetica,sans-Serif" font-size="10.00"> serve</text>
</g>
<!-- Node5 -->
<g id="node5" class="node">
<title>Node5</title>
<g id="a_node5"><a xlink:href="struct__sifm__queue__data.html" target="_top" xlink:title=" ">
<polygon fill="white" stroke="black" points="0,-0.5 0,-19.5 106,-19.5 106,-0.5 0,-0.5"/>
<text text-anchor="middle" x="53" y="-7.5" font-family="Helvetica,sans-Serif" font-size="10.00">_sifm_queue_data</text>
</a>
</g>
</g>
<!-- Node2&#45;&gt;Node5 -->
<g id="edge9" class="edge">
<title>Node2&#45;&gt;Node5</title>
<path fill="none" stroke="#9a32cd" stroke-dasharray="5,2" d="M64.01,-85.24C58.41,-81.47 53.36,-76.78 50,-71 40.68,-54.94 45.77,-32.21 49.74,-19.84"/>
<polygon fill="#9a32cd" stroke="#9a32cd" points="62.68,-88.51 73.1,-90.43 66.15,-82.43 62.68,-88.51"/>
<text text-anchor="middle" x="61.5" y="-63" font-family="Helvetica,sans-Serif" font-size="10.00"> end</text>
<text text-anchor="middle" x="61.5" y="-52" font-family="Helvetica,sans-Serif" font-size="10.00">link</text>
<text text-anchor="middle" x="61.5" y="-41" font-family="Helvetica,sans-Serif" font-size="10.00">start</text>
</g>
<!-- Node3&#45;&gt;Node2 -->
<g id="edge4" class="edge">
<title>Node3&#45;&gt;Node2</title>
<path fill="none" stroke="#9a32cd" stroke-dasharray="5,2" d="M177.89,-23.12C168.24,-27.01 158.35,-31.93 150,-38 134.68,-49.15 135.17,-56.47 123,-71 117.57,-77.48 111.36,-84.72 106.62,-90.22"/>
<polygon fill="#9a32cd" stroke="#9a32cd" points="179.26,-26.34 187.4,-19.56 176.8,-19.79 179.26,-26.34"/>
<text text-anchor="middle" x="165.5" y="-52" font-family="Helvetica,sans-Serif" font-size="10.00"> client</text>
</g>
<!-- Node4 -->
<g id="node4" class="node">
<title>Node4</title>
<g id="a_node4"><a xlink:href="struct__sifm__rpc__data.html" target="_top" xlink:title=" ">
<polygon fill="white" stroke="black" points="211.5,-90.5 211.5,-109.5 302.5,-109.5 302.5,-90.5 211.5,-90.5"/>
<text text-anchor="middle" x="257" y="-97.5" font-family="Helvetica,sans-Serif" font-size="10.00">_sifm_rpc_data</text>
</a>
</g>
</g>
<!-- Node4&#45;&gt;Node3 -->
<g id="edge6" class="edge">
<title>Node4&#45;&gt;Node3</title>
<path fill="none" stroke="#9a32cd" stroke-dasharray="5,2" d="M251.34,-80.52C247.34,-68.23 241.54,-51.86 235,-38 232.03,-31.69 228.03,-24.94 224.77,-19.77"/>
<polygon fill="#9a32cd" stroke="#9a32cd" points="248.02,-81.62 254.37,-90.1 254.7,-79.51 248.02,-81.62"/>
<text text-anchor="middle" x="261.5" y="-52" font-family="Helvetica,sans-Serif" font-size="10.00"> rpcd</text>
</g>
<!-- Node5&#45;&gt;Node2 -->
<g id="edge8" class="edge">
<title>Node5&#45;&gt;Node2</title>
<path fill="none" stroke="#9a32cd" stroke-dasharray="5,2" d="M69.32,-27.39C72.12,-30.73 74.83,-34.34 77,-38 87.24,-55.22 93.88,-77.99 96.97,-90.26"/>
<polygon fill="#9a32cd" stroke="#9a32cd" points="71.72,-24.83 62.39,-19.8 66.54,-29.55 71.72,-24.83"/>
<text text-anchor="middle" x="105.5" y="-52" font-family="Helvetica,sans-Serif" font-size="10.00"> base</text>
</g>
<!-- Node5&#45;&gt;Node5 -->
<g id="edge10" class="edge">
<title>Node5&#45;&gt;Node5</title>
<path fill="none" stroke="#9a32cd" stroke-dasharray="5,2" d="M116.43,-16.13C121.12,-14.76 124,-12.71 124,-10 124,-5.66 116.63,-3.03 106.26,-2.12"/>
<polygon fill="#9a32cd" stroke="#9a32cd" points="115.52,-12.74 106.26,-17.88 116.71,-19.63 115.52,-12.74"/>
<text text-anchor="middle" x="136.5" y="-7.5" font-family="Helvetica,sans-Serif" font-size="10.00"> next</text>
</g>
</g>
</svg>
