<?xml version="1.0" encoding="UTF-8" standalone="no"?>
<!DOCTYPE svg PUBLIC "-//W3C//DTD SVG 1.1//EN"
 "http://www.w3.org/Graphics/SVG/1.1/DTD/svg11.dtd">
<!-- Generated by graphviz version 2.43.0 (0)
 -->
<!-- Title: bdm_mounts Pages: 1 -->
<svg width="180pt" height="106pt"
 viewBox="0.00 0.00 179.50 106.00" xmlns="http://www.w3.org/2000/svg" xmlns:xlink="http://www.w3.org/1999/xlink">
<g id="graph0" class="graph" transform="scale(1 1) rotate(0) translate(4 102)">
<title>bdm_mounts</title>
<polygon fill="white" stroke="transparent" points="-4,4 -4,-102 175.5,-102 175.5,4 -4,4"/>
<!-- Node1 -->
<g id="node1" class="node">
<title>Node1</title>
<g id="a_node1"><a xlink:title=" ">
<polygon fill="#bfbfbf" stroke="black" points="43.5,-0.5 43.5,-19.5 123.5,-19.5 123.5,-0.5 43.5,-0.5"/>
<text text-anchor="middle" x="83.5" y="-7.5" font-family="Helvetica,sans-Serif" font-size="10.00">bdm_mounts</text>
</a>
</g>
</g>
<!-- Node2 -->
<g id="node2" class="node">
<title>Node2</title>
<g id="a_node2"><a xlink:href="structfile__system.html" target="_top" xlink:title=" ">
<polygon fill="white" stroke="black" points="0,-78.5 0,-97.5 73,-97.5 73,-78.5 0,-78.5"/>
<text text-anchor="middle" x="36.5" y="-85.5" font-family="Helvetica,sans-Serif" font-size="10.00">file_system</text>
</a>
</g>
</g>
<!-- Node2&#45;&gt;Node1 -->
<g id="edge1" class="edge">
<title>Node2&#45;&gt;Node1</title>
<path fill="none" stroke="#9a32cd" stroke-dasharray="5,2" d="M47.28,-69.57C56.94,-53.95 70.7,-31.7 78.17,-19.62"/>
<polygon fill="#9a32cd" stroke="#9a32cd" points="44.17,-67.94 41.89,-78.28 50.13,-71.62 44.17,-67.94"/>
<text text-anchor="middle" x="73" y="-46.5" font-family="Helvetica,sans-Serif" font-size="10.00"> fs</text>
</g>
<!-- Node3 -->
<g id="node3" class="node">
<title>Node3</title>
<g id="a_node3"><a xlink:href="structblock__device.html" target="_top" xlink:title=" ">
<polygon fill="white" stroke="black" points="91.5,-78.5 91.5,-97.5 171.5,-97.5 171.5,-78.5 91.5,-78.5"/>
<text text-anchor="middle" x="131.5" y="-85.5" font-family="Helvetica,sans-Serif" font-size="10.00">block_device</text>
</a>
</g>
</g>
<!-- Node3&#45;&gt;Node1 -->
<g id="edge2" class="edge">
<title>Node3&#45;&gt;Node1</title>
<path fill="none" stroke="#9a32cd" stroke-dasharray="5,2" d="M120.49,-69.57C110.63,-53.95 96.57,-31.7 88.94,-19.62"/>
<polygon fill="#9a32cd" stroke="#9a32cd" points="117.69,-71.7 125.99,-78.28 123.61,-67.96 117.69,-71.7"/>
<text text-anchor="middle" x="121.5" y="-52" font-family="Helvetica,sans-Serif" font-size="10.00"> bd</text>
<text text-anchor="middle" x="121.5" y="-41" font-family="Helvetica,sans-Serif" font-size="10.00">cbd</text>
</g>
</g>
</svg>
