<?xml version="1.0" encoding="UTF-8" standalone="no"?>
<!DOCTYPE svg PUBLIC "-//W3C//DTD SVG 1.1//EN"
 "http://www.w3.org/Graphics/SVG/1.1/DTD/svg11.dtd">
<!-- Generated by graphviz version 9.0.0 (20230911.1827)
 -->
<!-- Title: _endpoint Pages: 1 -->
<!--zoomable 497 -->

<svg id="main" version="1.1" xmlns="http://www.w3.org/2000/svg" xmlns:xlink="http://www.w3.org/1999/xlink" xml:space="preserve" onload="init(evt)">
<style type="text/css"><![CDATA[
.node, .edge {opacity: 0.7;}
.node.selected, .edge.selected {opacity: 1;}
.edge:hover path { stroke: red; }
.edge:hover polygon { stroke: red; fill: red; }
]]></style>

<defs>
  <circle id="rim" cx="0" cy="0" r="7"/>
  <circle id="rim2" cx="0" cy="0" r="3.5"/>
  <g id="zoomPlus">
    <use xlink:href="#rim" fill="#404040"><set attributeName="fill" to="#808080" begin="zoomplus.mouseover" end="zoomplus.mouseout"/></use>
    <path d="M-4,0h8M0,-4v8" fill="none" stroke="white" stroke-width="1.5" pointer-events="none"/>
  </g>
  <g id="zoomMin">
    <use xlink:href="#rim" fill="#404040"><set attributeName="fill" to="#808080" begin="zoomminus.mouseover" end="zoomminus.mouseout"/></use>
    <path d="M-4,0h8" fill="none" stroke="white" stroke-width="1.5" pointer-events="none"/>
  </g>
  <g id="arrowUp" transform="translate(30 24)">
    <use xlink:href="#rim"/>
    <path pointer-events="none" fill="none" stroke="white" stroke-width="1.5" d="M0,-3.0v7 M-2.5,-0.5L0,-3.0L2.5,-0.5"/>
  </g>
  <g id="arrowRight" transform="rotate(90) translate(36 -43)">
    <use xlink:href="#rim"/>
    <path pointer-events="none" fill="none" stroke="white" stroke-width="1.5" d="M0,-3.0v7 M-2.5,-0.5L0,-3.0L2.5,-0.5"/>
  </g>
  <g id="arrowDown" transform="rotate(180) translate(-30 -48)">
    <use xlink:href="#rim"/>
    <path pointer-events="none" fill="none" stroke="white" stroke-width="1.5" d="M0,-3.0v7 M-2.5,-0.5L0,-3.0L2.5,-0.5"/>
  </g>
  <g id="arrowLeft" transform="rotate(270) translate(-36 17)">
    <use xlink:href="#rim"/>
    <path pointer-events="none" fill="none" stroke="white" stroke-width="1.5" d="M0,-3.0v7 M-2.5,-0.5L0,-3.0L2.5,-0.5"/>
  </g>
  <g id="resetDef">
    <use xlink:href="#rim2" fill="#404040"><set attributeName="fill" to="#808080" begin="reset.mouseover" end="reset.mouseout"/></use>
  </g>
</defs>
<script type="application/ecmascript">
var viewWidth = 752;
var viewHeight = 497;
var sectionId = 'dynsection-9';
</script>
<script type="application/ecmascript" xlink:href="svg.min.js"/>
<svg id="graph" class="graph">
<g id="viewport">
<title>_endpoint</title>
<!-- Node1 -->
<g id="Node000001" class="node">
<title>Node1</title>
<g id="a_Node000001"><a xlink:title=" ">
<polygon fill="#999999" stroke="#666666" points="297.9,-261.62 239.9,-261.62 239.9,-242.38 297.9,-242.38 297.9,-261.62"/>
<text text-anchor="middle" x="268.9" y="-248.12" font-family="Helvetica,sans-Serif" font-size="10.00">_endpoint</text>
</a>
</g>
</g>
<!-- Node1&#45;&gt;Node1 -->
<g id="edge1_Node000001_Node000001" class="edge">
<title>Node1&#45;&gt;Node1</title>
<g id="a_edge1_Node000001_Node000001"><a xlink:title=" ">
<path fill="none" stroke="#9a32cd" stroke-dasharray="5,2" d="M309.51,-258.99C313.42,-257.57 315.9,-255.24 315.9,-252 315.9,-246.23 308.07,-243.35 298.28,-243.35"/>
<polygon fill="#9a32cd" stroke="#9a32cd" points="309.16,-255.51 299.78,-260.43 310.18,-262.43 309.16,-255.51"/>
</a>
</g>
<text text-anchor="middle" x="344.03" y="-265" font-family="Helvetica,sans-Serif" font-size="10.00" fill="grey"> m_busyNext</text>
<text text-anchor="middle" x="344.03" y="-253.75" font-family="Helvetica,sans-Serif" font-size="10.00" fill="grey">m_busyPrev</text>
<text text-anchor="middle" x="344.03" y="-242.5" font-family="Helvetica,sans-Serif" font-size="10.00" fill="grey">m_next</text>
<text text-anchor="middle" x="344.03" y="-231.25" font-family="Helvetica,sans-Serif" font-size="10.00" fill="grey">m_prev</text>
</g>
<!-- Node2 -->
<g id="Node000002" class="node">
<title>Node2</title>
<g id="a_Node000002"><a xlink:href="usbdpriv_8h.html#struct__device" target="_top" xlink:title=" ">
<polygon fill="white" stroke="#bfbfbf" points="257.78,-37.75 208.03,-37.75 208.03,-18.5 257.78,-18.5 257.78,-37.75"/>
<text text-anchor="middle" x="232.9" y="-24.25" font-family="Helvetica,sans-Serif" font-size="10.00">_device</text>
</a>
</g>
</g>
<!-- Node1&#45;&gt;Node2 -->
<g id="edge4_Node000002_Node000001" class="edge">
<title>Node1&#45;&gt;Node2</title>
<g id="a_edge4_Node000002_Node000001"><a xlink:title=" ">
<path fill="none" stroke="#9a32cd" stroke-dasharray="5,2" d="M228.32,-250.55C173.76,-247.49 78.51,-232.98 34.15,-171 -16.8,-99.81 143.77,-51.16 207.77,-35"/>
<polygon fill="#9a32cd" stroke="#9a32cd" points="227.98,-254.04 238.12,-250.99 228.29,-247.05 227.98,-254.04"/>
</a>
</g>
<text text-anchor="middle" x="78.78" y="-155.88" font-family="Helvetica,sans-Serif" font-size="10.00" fill="grey"> m_endpointListEnd</text>
<text text-anchor="middle" x="78.78" y="-144.62" font-family="Helvetica,sans-Serif" font-size="10.00" fill="grey">m_endpointListStart</text>
</g>
<!-- Node5 -->
<g id="Node000005" class="node">
<title>Node5</title>
<g id="a_Node000005"><a xlink:href="usbdpriv_8h.html#struct__io_request" target="_top" xlink:title=" ">
<polygon fill="white" stroke="#bfbfbf" points="432.28,-163.75 367.53,-163.75 367.53,-144.5 432.28,-144.5 432.28,-163.75"/>
<text text-anchor="middle" x="399.9" y="-150.25" font-family="Helvetica,sans-Serif" font-size="10.00">_ioRequest</text>
</a>
</g>
</g>
<!-- Node1&#45;&gt;Node5 -->
<g id="edge11_Node000005_Node000001" class="edge">
<title>Node1&#45;&gt;Node5</title>
<g id="a_edge11_Node000005_Node000001"><a xlink:title=" ">
<path fill="none" stroke="#9a32cd" stroke-dasharray="5,2" d="M309.42,-245.09C332.42,-239.81 360.26,-229.92 378.9,-211.5 392.13,-198.43 397.11,-176.28 398.93,-164"/>
<polygon fill="#9a32cd" stroke="#9a32cd" points="308.81,-241.64 299.72,-247.08 310.22,-248.5 308.81,-241.64"/>
</a>
</g>
<text text-anchor="middle" x="434.65" y="-196.38" font-family="Helvetica,sans-Serif" font-size="10.00" fill="grey"> m_correspEndpoint</text>
</g>
<!-- Node2&#45;&gt;Node1 -->
<g id="edge2_Node000001_Node000002" class="edge">
<title>Node2&#45;&gt;Node1</title>
<g id="a_edge2_Node000001_Node000002"><a xlink:title=" ">
<path fill="none" stroke="#9a32cd" stroke-dasharray="5,2" d="M244.59,-47.9C248.91,-55.75 253.36,-65.16 255.9,-74.25 273.29,-136.48 270.9,-215.55 269.48,-241.96"/>
<polygon fill="#9a32cd" stroke="#9a32cd" points="247.64,-46.18 239.56,-39.32 241.6,-49.72 247.64,-46.18"/>
</a>
</g>
<text text-anchor="middle" x="307.9" y="-150.25" font-family="Helvetica,sans-Serif" font-size="10.00" fill="grey"> m_correspDevice</text>
</g>
<!-- Node2&#45;&gt;Node2 -->
<g id="edge3_Node000002_Node000002" class="edge">
<title>Node2&#45;&gt;Node2</title>
<g id="a_edge3_Node000002_Node000002"><a xlink:title=" ">
<path fill="none" stroke="#9a32cd" stroke-dasharray="5,2" d="M257.56,-40.91C267.46,-41.64 275.78,-37.38 275.78,-28.12 275.78,-15.53 260.36,-12.18 246.51,-18.09"/>
<polygon fill="#9a32cd" stroke="#9a32cd" points="258.53,-37.55 247.98,-38.53 256.84,-44.34 258.53,-37.55"/>
</a>
</g>
<text text-anchor="middle" x="311.4" y="-46.75" font-family="Helvetica,sans-Serif" font-size="10.00" fill="grey"> m_childListEnd</text>
<text text-anchor="middle" x="311.4" y="-35.5" font-family="Helvetica,sans-Serif" font-size="10.00" fill="grey">m_childListStart</text>
<text text-anchor="middle" x="311.4" y="-24.25" font-family="Helvetica,sans-Serif" font-size="10.00" fill="grey">m_next</text>
<text text-anchor="middle" x="311.4" y="-13" font-family="Helvetica,sans-Serif" font-size="10.00" fill="grey">m_parent</text>
<text text-anchor="middle" x="311.4" y="-1.75" font-family="Helvetica,sans-Serif" font-size="10.00" fill="grey">m_prev</text>
</g>
<!-- Node3 -->
<g id="Node000003" class="node">
<title>Node3</title>
<g id="a_Node000003"><a xlink:href="struct___usb_driver.html" target="_top" xlink:title=" ">
<polygon fill="white" stroke="#666666" points="195.28,-163.75 130.53,-163.75 130.53,-144.5 195.28,-144.5 195.28,-163.75"/>
<text text-anchor="middle" x="162.9" y="-150.25" font-family="Helvetica,sans-Serif" font-size="10.00">_UsbDriver</text>
</a>
</g>
</g>
<!-- Node3&#45;&gt;Node2 -->
<g id="edge5_Node000002_Node000003" class="edge">
<title>Node3&#45;&gt;Node2</title>
<g id="a_edge5_Node000002_Node000003"><a xlink:title=" ">
<path fill="none" stroke="#9a32cd" stroke-dasharray="5,2" d="M170.41,-133.63C177.02,-117.29 187.38,-93.61 198.9,-74.25 206.83,-60.93 217.92,-46.86 225.26,-38.05"/>
<polygon fill="#9a32cd" stroke="#9a32cd" points="167.27,-132.06 166.85,-142.65 173.78,-134.63 167.27,-132.06"/>
</a>
</g>
<text text-anchor="middle" x="227.4" y="-92.88" font-family="Helvetica,sans-Serif" font-size="10.00" fill="grey"> m_devDriver</text>
</g>
<!-- Node3&#45;&gt;Node3 -->
<g id="edge6_Node000003_Node000003" class="edge">
<title>Node3&#45;&gt;Node3</title>
<g id="a_edge6_Node000003_Node000003"><a xlink:title=" ">
<path fill="none" stroke="#9a32cd" stroke-dasharray="5,2" d="M206.48,-161.1C210.64,-159.68 213.28,-157.35 213.28,-154.12 213.28,-148.54 205.4,-145.66 195.36,-145.49"/>
<polygon fill="#9a32cd" stroke="#9a32cd" points="206.23,-157.6 196.86,-162.54 207.27,-164.52 206.23,-157.6"/>
</a>
</g>
<text text-anchor="middle" x="223.4" y="-155.88" font-family="Helvetica,sans-Serif" font-size="10.00" fill="grey"> next</text>
<text text-anchor="middle" x="223.4" y="-144.62" font-family="Helvetica,sans-Serif" font-size="10.00" fill="grey">prev</text>
</g>
<!-- Node4 -->
<g id="Node000004" class="node">
<title>Node4</title>
<g id="a_Node000004"><a xlink:href="usbdpriv_8h.html#struct__timer_cb_struct" target="_top" xlink:title=" ">
<polygon fill="white" stroke="#bfbfbf" points="96.53,-342.62 15.28,-342.62 15.28,-323.38 96.53,-323.38 96.53,-342.62"/>
<text text-anchor="middle" x="55.9" y="-329.12" font-family="Helvetica,sans-Serif" font-size="10.00">_timerCbStruct</text>
</a>
</g>
</g>
<!-- Node4&#45;&gt;Node1 -->
<g id="edge24_Node000001_Node000004" class="edge">
<title>Node4&#45;&gt;Node1</title>
<g id="a_edge24_Node000001_Node000004"><a xlink:title=" ">
<path fill="none" stroke="#9a32cd" stroke-dasharray="5,2" d="M90.93,-319.01C134.2,-302.96 206.7,-276.07 244.43,-262.08"/>
<polygon fill="#9a32cd" stroke="#9a32cd" points="89.91,-315.65 81.76,-322.41 92.35,-322.22 89.91,-315.65"/>
</a>
</g>
<text text-anchor="middle" x="181.65" y="-294.25" font-family="Helvetica,sans-Serif" font-size="10.00" fill="grey"> m_timer</text>
</g>
<!-- Node4&#45;&gt;Node2 -->
<g id="edge7_Node000002_Node000004" class="edge">
<title>Node4&#45;&gt;Node2</title>
<g id="a_edge7_Node000002_Node000004"><a xlink:title=" ">
<path fill="none" stroke="#9a32cd" stroke-dasharray="5,2" d="M45.35,-312.76C20.82,-265.14 -33.37,-140.8 29.9,-74.25 54.1,-48.81 158.71,-35.98 207.57,-31.28"/>
<polygon fill="#9a32cd" stroke="#9a32cd" points="42.25,-314.37 50.03,-321.57 48.43,-311.09 42.25,-314.37"/>
</a>
</g>
<text text-anchor="middle" x="26.65" y="-196.38" font-family="Helvetica,sans-Serif" font-size="10.00" fill="grey"> m_timer</text>
</g>
<!-- Node4&#45;&gt;Node4 -->
<g id="edge8_Node000004_Node000004" class="edge">
<title>Node4&#45;&gt;Node4</title>
<g id="a_edge8_Node000004_Node000004"><a xlink:title=" ">
<path fill="none" stroke="#9a32cd" stroke-dasharray="5,2" d="M108.3,-337.85C112.16,-336.76 114.53,-335.15 114.53,-333 114.53,-329.19 107.05,-327.04 96.99,-326.56"/>
<polygon fill="#9a32cd" stroke="#9a32cd" points="107.91,-334.37 98.49,-339.23 108.88,-341.31 107.91,-334.37"/>
</a>
</g>
<text text-anchor="middle" x="131.4" y="-334.75" font-family="Helvetica,sans-Serif" font-size="10.00" fill="grey"> m_next</text>
<text text-anchor="middle" x="131.4" y="-323.5" font-family="Helvetica,sans-Serif" font-size="10.00" fill="grey">m_prev</text>
</g>
<!-- Node5&#45;&gt;Node1 -->
<g id="edge17_Node000001_Node000005" class="edge">
<title>Node5&#45;&gt;Node1</title>
<g id="a_edge17_Node000001_Node000005"><a xlink:title=" ">
<path fill="none" stroke="#9a32cd" stroke-dasharray="5,2" d="M361.51,-167.85C333.31,-177.22 299.79,-188.44 299.15,-189 282.77,-203.38 274.39,-228.65 270.92,-242.06"/>
<polygon fill="#9a32cd" stroke="#9a32cd" points="362.54,-171.19 370.93,-164.72 360.34,-164.55 362.54,-171.19"/>
</a>
</g>
<text text-anchor="middle" x="336.78" y="-202" font-family="Helvetica,sans-Serif" font-size="10.00" fill="grey"> m_ioReqListEnd</text>
<text text-anchor="middle" x="336.78" y="-190.75" font-family="Helvetica,sans-Serif" font-size="10.00" fill="grey">m_ioReqListStart</text>
</g>
<!-- Node5&#45;&gt;Node2 -->
<g id="edge9_Node000002_Node000005" class="edge">
<title>Node5&#45;&gt;Node2</title>
<g id="a_edge9_Node000002_Node000005"><a xlink:title=" ">
<path fill="none" stroke="#9a32cd" stroke-dasharray="5,2" d="M378.57,-137.29C342.99,-110.87 272.69,-58.67 244.75,-37.92"/>
<polygon fill="#9a32cd" stroke="#9a32cd" points="376.29,-139.95 386.41,-143.1 380.47,-134.33 376.29,-139.95"/>
</a>
</g>
<text text-anchor="middle" x="379.53" y="-92.88" font-family="Helvetica,sans-Serif" font-size="10.00" fill="grey"> m_ioRequest</text>
</g>
<!-- Node5&#45;&gt;Node5 -->
<g id="edge10_Node000005_Node000005" class="edge">
<title>Node5&#45;&gt;Node5</title>
<g id="a_edge10_Node000005_Node000005"><a xlink:title=" ">
<path fill="none" stroke="#9a32cd" stroke-dasharray="5,2" d="M443.48,-161.1C447.64,-159.68 450.28,-157.35 450.28,-154.12 450.28,-148.54 442.4,-145.66 432.36,-145.49"/>
<polygon fill="#9a32cd" stroke="#9a32cd" points="443.23,-157.6 433.86,-162.54 444.27,-164.52 443.23,-157.6"/>
</a>
</g>
<text text-anchor="middle" x="486.28" y="-161.5" font-family="Helvetica,sans-Serif" font-size="10.00" fill="grey"> m_callbackProc</text>
<text text-anchor="middle" x="486.28" y="-150.25" font-family="Helvetica,sans-Serif" font-size="10.00" fill="grey">m_next</text>
<text text-anchor="middle" x="486.28" y="-139" font-family="Helvetica,sans-Serif" font-size="10.00" fill="grey">m_prev</text>
</g>
<!-- Node6 -->
<g id="Node000006" class="node">
<title>Node6</title>
<g id="a_Node000006"><a xlink:href="usbd_8h.html#struct_usb_device_request" target="_top" xlink:title=" ">
<polygon fill="white" stroke="#bfbfbf" points="559.9,-261.62 459.9,-261.62 459.9,-242.38 559.9,-242.38 559.9,-261.62"/>
<text text-anchor="middle" x="509.9" y="-248.12" font-family="Helvetica,sans-Serif" font-size="10.00">UsbDeviceRequest</text>
</a>
</g>
</g>
<!-- Node6&#45;&gt;Node5 -->
<g id="edge12_Node000005_Node000006" class="edge">
<title>Node6&#45;&gt;Node5</title>
<g id="a_edge12_Node000005_Node000006"><a xlink:title=" ">
<path fill="none" stroke="#9a32cd" stroke-dasharray="5,2" d="M507.28,-231.21C504.54,-217.76 499.01,-200.4 487.9,-189 473.17,-173.87 450.94,-165.39 432.51,-160.69"/>
<polygon fill="#9a32cd" stroke="#9a32cd" points="503.76,-231.39 508.84,-240.69 510.67,-230.26 503.76,-231.39"/>
</a>
</g>
<text text-anchor="middle" x="525.28" y="-196.38" font-family="Helvetica,sans-Serif" font-size="10.00" fill="grey"> m_devReq</text>
</g>
<!-- Node7 -->
<g id="Node000007" class="node">
<title>Node7</title>
<g id="a_Node000007"><a xlink:href="usbd_8h.html#structsce_usbd_multi_isochronous_request" target="_top" xlink:title=" ">
<polygon fill="white" stroke="#bfbfbf" points="743.53,-261.62 578.28,-261.62 578.28,-242.38 743.53,-242.38 743.53,-261.62"/>
<text text-anchor="middle" x="660.9" y="-248.12" font-family="Helvetica,sans-Serif" font-size="10.00">sceUsbdMultiIsochronousRequest</text>
</a>
</g>
</g>
<!-- Node7&#45;&gt;Node5 -->
<g id="edge13_Node000005_Node000007" class="edge">
<title>Node7&#45;&gt;Node5</title>
<g id="a_edge13_Node000005_Node000007"><a xlink:title=" ">
<path fill="none" stroke="#9a32cd" stroke-dasharray="5,2" d="M639.13,-235.68C618.19,-221.61 585.2,-201.17 553.9,-189 513.59,-173.33 464.38,-164.1 432.61,-159.33"/>
<polygon fill="#9a32cd" stroke="#9a32cd" points="636.9,-238.39 647.13,-241.15 640.85,-232.61 636.9,-238.39"/>
</a>
</g>
<text text-anchor="middle" x="613.53" y="-196.38" font-family="Helvetica,sans-Serif" font-size="10.00" fill="grey"> m_req</text>
</g>
<!-- Node8 -->
<g id="Node000008" class="node">
<title>Node8</title>
<g id="a_Node000008"><a xlink:href="usbd_8h.html#structsce_usbd_isochronous_psw_len" target="_top" xlink:title=" ">
<polygon fill="white" stroke="#bfbfbf" points="733.03,-342.62 588.78,-342.62 588.78,-323.38 733.03,-323.38 733.03,-342.62"/>
<text text-anchor="middle" x="660.9" y="-329.12" font-family="Helvetica,sans-Serif" font-size="10.00">sceUsbdIsochronousPswLen</text>
</a>
</g>
</g>
<!-- Node8&#45;&gt;Node7 -->
<g id="edge14_Node000007_Node000008" class="edge">
<title>Node8&#45;&gt;Node7</title>
<g id="a_edge14_Node000007_Node000008"><a xlink:title=" ">
<path fill="none" stroke="#9a32cd" stroke-dasharray="5,2" d="M660.9,-311.54C660.9,-295.49 660.9,-273.92 660.9,-261.96"/>
<polygon fill="#9a32cd" stroke="#9a32cd" points="657.4,-311.42 660.9,-321.42 664.4,-311.42 657.4,-311.42"/>
</a>
</g>
<text text-anchor="middle" x="680.03" y="-294.25" font-family="Helvetica,sans-Serif" font-size="10.00" fill="grey"> Packets</text>
</g>
<!-- Node9 -->
<g id="Node000009" class="node">
<title>Node9</title>
<g id="a_Node000009"><a xlink:href="usbdpriv_8h.html#struct__usbd_report_descriptor" target="_top" xlink:title=" ">
<polygon fill="white" stroke="#bfbfbf" points="655.4,-163.75 540.4,-163.75 540.4,-144.5 655.4,-144.5 655.4,-163.75"/>
<text text-anchor="middle" x="597.9" y="-150.25" font-family="Helvetica,sans-Serif" font-size="10.00">_usbdReportDescriptor</text>
</a>
</g>
</g>
<!-- Node9&#45;&gt;Node2 -->
<g id="edge15_Node000002_Node000009" class="edge">
<title>Node9&#45;&gt;Node2</title>
<g id="a_edge15_Node000002_Node000009"><a xlink:title=" ">
<path fill="none" stroke="#9a32cd" stroke-dasharray="5,2" d="M569.16,-139.19C533.24,-122.17 469.59,-93.31 412.9,-74.25 358.7,-56.03 293.13,-41.38 258.01,-34.11"/>
<polygon fill="#9a32cd" stroke="#9a32cd" points="567.48,-142.27 578.01,-143.41 570.49,-135.95 567.48,-142.27"/>
</a>
</g>
<text text-anchor="start" x="523.9" y="-109.75" font-family="Helvetica,sans-Serif" font-size="10.00" fill="grey"> m_reportDescriptorCurFor</text>
<text text-anchor="middle" x="580.9" y="-98.5" font-family="Helvetica,sans-Serif" font-size="10.00" fill="grey">Fetch</text>
<text text-anchor="middle" x="580.9" y="-87.25" font-family="Helvetica,sans-Serif" font-size="10.00" fill="grey">m_reportDescriptorEnd</text>
<text text-anchor="middle" x="580.9" y="-76" font-family="Helvetica,sans-Serif" font-size="10.00" fill="grey">m_reportDescriptorStart</text>
</g>
<!-- Node9&#45;&gt;Node9 -->
<g id="edge16_Node000009_Node000009" class="edge">
<title>Node9&#45;&gt;Node9</title>
<g id="a_edge16_Node000009_Node000009"><a xlink:title=" ">
<path fill="none" stroke="#9a32cd" stroke-dasharray="5,2" d="M666.95,-160.04C670.99,-158.62 673.4,-156.65 673.4,-154.12 673.4,-149.76 666.18,-147.04 655.83,-145.98"/>
<polygon fill="#9a32cd" stroke="#9a32cd" points="666.43,-156.58 657.32,-161.97 667.81,-163.44 666.43,-156.58"/>
</a>
</g>
<text text-anchor="middle" x="690.28" y="-155.88" font-family="Helvetica,sans-Serif" font-size="10.00" fill="grey"> m_next</text>
<text text-anchor="middle" x="690.28" y="-144.62" font-family="Helvetica,sans-Serif" font-size="10.00" fill="grey">m_prev</text>
</g>
<!-- Node10 -->
<g id="Node000010" class="node">
<title>Node10</title>
<g id="a_Node000010"><a xlink:href="usbdpriv_8h.html#struct__hc_ed" target="_top" xlink:title=" ">
<polygon fill="white" stroke="#bfbfbf" points="290.4,-342.62 247.4,-342.62 247.4,-323.38 290.4,-323.38 290.4,-342.62"/>
<text text-anchor="middle" x="268.9" y="-329.12" font-family="Helvetica,sans-Serif" font-size="10.00">_hcEd</text>
</a>
</g>
</g>
<!-- Node10&#45;&gt;Node1 -->
<g id="edge18_Node000001_Node000010" class="edge">
<title>Node10&#45;&gt;Node1</title>
<g id="a_edge18_Node000001_Node000010"><a xlink:title=" ">
<path fill="none" stroke="#9a32cd" stroke-dasharray="5,2" d="M268.9,-311.54C268.9,-295.49 268.9,-273.92 268.9,-261.96"/>
<polygon fill="#9a32cd" stroke="#9a32cd" points="265.4,-311.42 268.9,-321.42 272.4,-311.42 265.4,-311.42"/>
</a>
</g>
<text text-anchor="middle" x="287.65" y="-294.25" font-family="Helvetica,sans-Serif" font-size="10.00" fill="grey"> m_hcEd</text>
</g>
<!-- Node10&#45;&gt;Node10 -->
<g id="edge23_Node000010_Node000010" class="edge">
<title>Node10&#45;&gt;Node10</title>
<g id="a_edge23_Node000010_Node000010"><a xlink:title=" ">
<path fill="none" stroke="#9a32cd" stroke-dasharray="5,2" d="M302.24,-338.53C305.98,-337.49 308.4,-335.64 308.4,-333 308.4,-328.16 300.3,-326.01 290.84,-326.54"/>
<polygon fill="#9a32cd" stroke="#9a32cd" points="302.03,-335.03 292.35,-339.34 302.6,-342.01 302.03,-335.03"/>
</a>
</g>
<text text-anchor="middle" x="325.28" y="-329.12" font-family="Helvetica,sans-Serif" font-size="10.00" fill="grey"> m_next</text>
</g>
<!-- Node11 -->
<g id="Node000011" class="node">
<title>Node11</title>
<g id="a_Node000011"><a xlink:href="usbdpriv_8h.html#union__hc_ed_hc_area_u" target="_top" xlink:title=" ">
<polygon fill="white" stroke="#bfbfbf" points="269.65,-422 186.15,-422 186.15,-402.75 269.65,-402.75 269.65,-422"/>
<text text-anchor="middle" x="227.9" y="-408.5" font-family="Helvetica,sans-Serif" font-size="10.00">_hcEdHcAreaU</text>
</a>
</g>
</g>
<!-- Node11&#45;&gt;Node10 -->
<g id="edge19_Node000010_Node000011" class="edge">
<title>Node11&#45;&gt;Node10</title>
<g id="a_edge19_Node000010_Node000011"><a xlink:title=" ">
<path fill="none" stroke="#9a32cd" stroke-dasharray="5,2" d="M226.72,-391.06C227.02,-381.77 228.61,-370.92 233.4,-362.25 237.82,-354.25 245.53,-347.7 252.63,-342.93"/>
<polygon fill="#9a32cd" stroke="#9a32cd" points="223.22,-390.98 226.9,-400.91 230.22,-390.85 223.22,-390.98"/>
</a>
</g>
<text text-anchor="middle" x="257.15" y="-369.62" font-family="Helvetica,sans-Serif" font-size="10.00" fill="grey"> m_hcArea</text>
</g>
<!-- Node12 -->
<g id="Node000012" class="node">
<title>Node12</title>
<g id="a_Node000012"><a xlink:href="usbdpriv_8h.html#struct__hc_ed_hc_area" target="_top" xlink:title=" ">
<polygon fill="white" stroke="#bfbfbf" points="265.9,-488.5 189.9,-488.5 189.9,-469.25 265.9,-469.25 265.9,-488.5"/>
<text text-anchor="middle" x="227.9" y="-475" font-family="Helvetica,sans-Serif" font-size="10.00">_hcEdHcArea</text>
</a>
</g>
</g>
<!-- Node12&#45;&gt;Node11 -->
<g id="edge20_Node000011_Node000012" class="edge">
<title>Node12&#45;&gt;Node11</title>
<g id="a_edge20_Node000011_Node000012"><a xlink:title=" ">
<path fill="none" stroke="#9a32cd" stroke-dasharray="5,2" d="M227.9,-457.4C227.9,-445.57 227.9,-431.29 227.9,-422.27"/>
<polygon fill="#9a32cd" stroke="#9a32cd" points="224.4,-457.39 227.9,-467.39 231.4,-457.39 224.4,-457.39"/>
</a>
</g>
<text text-anchor="middle" x="237.28" y="-441.75" font-family="Helvetica,sans-Serif" font-size="10.00" fill="grey"> stru</text>
</g>
<!-- Node13 -->
<g id="Node000013" class="node">
<title>Node13</title>
<g id="a_Node000013"><a xlink:href="usbdpriv_8h.html#struct__hc_td" target="_top" xlink:title=" ">
<polygon fill="white" stroke="#bfbfbf" points="330.4,-422 287.4,-422 287.4,-402.75 330.4,-402.75 330.4,-422"/>
<text text-anchor="middle" x="308.9" y="-408.5" font-family="Helvetica,sans-Serif" font-size="10.00">_hcTd</text>
</a>
</g>
</g>
<!-- Node13&#45;&gt;Node10 -->
<g id="edge21_Node000010_Node000013" class="edge">
<title>Node13&#45;&gt;Node10</title>
<g id="a_edge21_Node000010_Node000013"><a xlink:title=" ">
<path fill="none" stroke="#9a32cd" stroke-dasharray="5,2" d="M299.16,-392.04C294.57,-382.98 288.99,-372.04 283.9,-362.25 280.52,-355.75 276.64,-348.44 273.67,-342.89"/>
<polygon fill="#9a32cd" stroke="#9a32cd" points="296.03,-393.6 303.66,-400.95 302.27,-390.44 296.03,-393.6"/>
</a>
</g>
<text text-anchor="middle" x="318.53" y="-375.25" font-family="Helvetica,sans-Serif" font-size="10.00" fill="grey"> m_tdHead</text>
<text text-anchor="middle" x="318.53" y="-364" font-family="Helvetica,sans-Serif" font-size="10.00" fill="grey">m_tdTail</text>
</g>
<!-- Node13&#45;&gt;Node13 -->
<g id="edge22_Node000013_Node000013" class="edge">
<title>Node13&#45;&gt;Node13</title>
<g id="a_edge22_Node000013_Node000013"><a xlink:title=" ">
<path fill="none" stroke="#9a32cd" stroke-dasharray="5,2" d="M342.24,-417.64C345.98,-416.65 348.4,-414.9 348.4,-412.38 348.4,-407.76 340.3,-405.71 330.84,-406.22"/>
<polygon fill="#9a32cd" stroke="#9a32cd" points="342.04,-414.15 332.35,-418.42 342.59,-421.13 342.04,-414.15"/>
</a>
</g>
<text text-anchor="middle" x="365.28" y="-408.5" font-family="Helvetica,sans-Serif" font-size="10.00" fill="grey"> m_next</text>
</g>
</g>
</svg>

<g id="navigator" transform="translate(0 0)" fill="#404254">
  <rect fill="#f2f5e9" fill-opacity="0.5" stroke="#606060" stroke-width=".5" x="0" y="0" width="60" height="60"/>
  <use id="zoomplus" xlink:href="#zoomPlus" x="17" y="9" onmousedown="handleZoom(evt,'in')"/>
  <use id="zoomminus" xlink:href="#zoomMin" x="42" y="9" onmousedown="handleZoom(evt,'out')"/>
  <use id="reset" xlink:href="#resetDef" x="30" y="36" onmousedown="handleReset()"/>
   <use id="arrowup" xlink:href="#arrowUp" x="0" y="0" onmousedown="handlePan(0,-1)"/>
  <use id="arrowright" xlink:href="#arrowRight" x="0" y="0" onmousedown="handlePan(1,0)"/>
  <use id="arrowdown" xlink:href="#arrowDown" x="0" y="0" onmousedown="handlePan(0,1)"/>
  <use id="arrowleft" xlink:href="#arrowLeft" x="0" y="0" onmousedown="handlePan(-1,0)"/>
</g>
<svg viewBox="0 0 15 15" width="100%" height="30px" preserveAspectRatio="xMaxYMin meet">
 <g id="arrow_out" transform="scale(0.3 0.3)">
  <a xlink:href="struct__endpoint__coll__graph_org.svg" target="_base">
   <rect id="button" ry="5" rx="5" y="6" x="6" height="38" width="38"
        fill="#f2f5e9" fill-opacity="0.5" stroke="#606060" stroke-width="1.0"/>
   <path id="arrow"
     d="M 11.500037,31.436501 C 11.940474,20.09759 22.043105,11.32322 32.158766,21.979434 L 37.068811,17.246167 C 37.068811,17.246167 37.088388,32 37.088388,32 L 22.160133,31.978069 C 22.160133,31.978069 26.997745,27.140456 26.997745,27.140456 C 18.528582,18.264221 13.291696,25.230495 11.500037,31.436501 z"
     style="fill:#404040;"/>
  </a>
 </g>
</svg>

<style type='text/css'>
<![CDATA[
[data-mouse-over-selected='false'] { opacity: 0.7; }
[data-mouse-over-selected='true']  { opacity: 1.0; }
]]>
</style>
<script type="application/ecmascript"><![CDATA[
document.addEventListener('DOMContentLoaded', (event) => {
  highlightEdges();
  highlightAdjacentNodes();
});
]]></script>
</svg>
