<?xml version="1.0" encoding="UTF-8" standalone="no"?>
<!DOCTYPE svg PUBLIC "-//W3C//DTD SVG 1.1//EN"
 "http://www.w3.org/Graphics/SVG/1.1/DTD/svg11.dtd">
<!-- Generated by graphviz version 2.43.0 (0)
 -->
<!-- Title: _rel Pages: 1 -->
<svg width="216pt" height="231pt"
 viewBox="0.00 0.00 215.50 231.00" xmlns="http://www.w3.org/2000/svg" xmlns:xlink="http://www.w3.org/1999/xlink">
<g id="graph0" class="graph" transform="scale(1 1) rotate(0) translate(4 227)">
<title>_rel</title>
<polygon fill="white" stroke="transparent" points="-4,4 -4,-227 211.5,-227 211.5,4 -4,4"/>
<!-- Node1 -->
<g id="node1" class="node">
<title>Node1</title>
<g id="a_node1"><a xlink:title=" ">
<polygon fill="#bfbfbf" stroke="black" points="84.5,-0.5 84.5,-19.5 119.5,-19.5 119.5,-0.5 84.5,-0.5"/>
<text text-anchor="middle" x="102" y="-7.5" font-family="Helvetica,sans-Serif" font-size="10.00">_rel</text>
</a>
</g>
</g>
<!-- Node2 -->
<g id="node2" class="node">
<title>Node2</title>
<g id="a_node2"><a xlink:href="struct__syment.html" target="_top" xlink:title=" ">
<polygon fill="white" stroke="black" points="31.5,-67.5 31.5,-86.5 90.5,-86.5 90.5,-67.5 31.5,-67.5"/>
<text text-anchor="middle" x="61" y="-74.5" font-family="Helvetica,sans-Serif" font-size="10.00">_syment</text>
</a>
</g>
</g>
<!-- Node2&#45;&gt;Node1 -->
<g id="edge1" class="edge">
<title>Node2&#45;&gt;Node1</title>
<path fill="none" stroke="#9a32cd" stroke-dasharray="5,2" d="M70.6,-58.68C74.34,-52.13 78.75,-44.64 83,-38 86.95,-31.82 91.7,-25.07 95.46,-19.86"/>
<polygon fill="#9a32cd" stroke="#9a32cd" points="67.53,-56.99 65.68,-67.42 73.64,-60.42 67.53,-56.99"/>
<text text-anchor="middle" x="102" y="-41" font-family="Helvetica,sans-Serif" font-size="10.00"> symptr</text>
</g>
<!-- Node3 -->
<g id="node3" class="node">
<title>Node3</title>
<g id="a_node3"><a xlink:href="struct___elf32___sym.html" target="_top" xlink:title=" ">
<polygon fill="white" stroke="black" points="0,-135.5 0,-154.5 74,-154.5 74,-135.5 0,-135.5"/>
<text text-anchor="middle" x="37" y="-142.5" font-family="Helvetica,sans-Serif" font-size="10.00">_Elf32_Sym</text>
</a>
</g>
</g>
<!-- Node3&#45;&gt;Node2 -->
<g id="edge2" class="edge">
<title>Node3&#45;&gt;Node2</title>
<path fill="none" stroke="#9a32cd" stroke-dasharray="5,2" d="M43.62,-125.81C48.23,-113.12 54.18,-96.76 57.79,-86.84"/>
<polygon fill="#9a32cd" stroke="#9a32cd" points="40.27,-124.78 40.14,-135.37 46.84,-127.17 40.27,-124.78"/>
<text text-anchor="middle" x="64.5" y="-108" font-family="Helvetica,sans-Serif" font-size="10.00"> sym</text>
</g>
<!-- Node4 -->
<g id="node4" class="node">
<title>Node4</title>
<g id="a_node4"><a xlink:href="struct__elf__section.html" target="_top" xlink:title=" ">
<polygon fill="white" stroke="black" points="92.5,-135.5 92.5,-154.5 167.5,-154.5 167.5,-135.5 92.5,-135.5"/>
<text text-anchor="middle" x="130" y="-142.5" font-family="Helvetica,sans-Serif" font-size="10.00">_elf_section</text>
</a>
</g>
</g>
<!-- Node4&#45;&gt;Node2 -->
<g id="edge3" class="edge">
<title>Node4&#45;&gt;Node2</title>
<path fill="none" stroke="#9a32cd" stroke-dasharray="5,2" d="M113.7,-128.41C100.15,-115.45 81.34,-97.46 70.24,-86.84"/>
<polygon fill="#9a32cd" stroke="#9a32cd" points="111.33,-130.99 120.98,-135.37 116.17,-125.93 111.33,-130.99"/>
<text text-anchor="middle" x="113" y="-108" font-family="Helvetica,sans-Serif" font-size="10.00"> shptr</text>
</g>
<!-- Node4&#45;&gt;Node4 -->
<g id="edge5" class="edge">
<title>Node4&#45;&gt;Node4</title>
<path fill="none" stroke="#9a32cd" stroke-dasharray="5,2" d="M177.74,-150.2C182.48,-149.16 185.5,-147.43 185.5,-145 185.5,-141.12 177.77,-139.01 167.61,-138.67"/>
<polygon fill="#9a32cd" stroke="#9a32cd" points="177.17,-146.75 167.61,-151.33 177.94,-153.7 177.17,-146.75"/>
<text text-anchor="middle" x="196.5" y="-148" font-family="Helvetica,sans-Serif" font-size="10.00"> link</text>
<text text-anchor="middle" x="196.5" y="-137" font-family="Helvetica,sans-Serif" font-size="10.00">info</text>
</g>
<!-- Node5 -->
<g id="node5" class="node">
<title>Node5</title>
<g id="a_node5"><a xlink:href="struct___elf32___shdr.html" target="_top" xlink:title=" ">
<polygon fill="white" stroke="black" points="93,-203.5 93,-222.5 167,-222.5 167,-203.5 93,-203.5"/>
<text text-anchor="middle" x="130" y="-210.5" font-family="Helvetica,sans-Serif" font-size="10.00">_Elf32_Shdr</text>
</a>
</g>
</g>
<!-- Node5&#45;&gt;Node4 -->
<g id="edge4" class="edge">
<title>Node5&#45;&gt;Node4</title>
<path fill="none" stroke="#9a32cd" stroke-dasharray="5,2" d="M130,-193.04C130,-180.47 130,-164.56 130,-154.84"/>
<polygon fill="#9a32cd" stroke="#9a32cd" points="126.5,-193.37 130,-203.37 133.5,-193.37 126.5,-193.37"/>
<text text-anchor="middle" x="139.5" y="-177" font-family="Helvetica,sans-Serif" font-size="10.00"> shr</text>
</g>
<!-- Node6 -->
<g id="node6" class="node">
<title>Node6</title>
<g id="a_node6"><a xlink:href="struct___elf32___rel.html" target="_top" xlink:title=" ">
<polygon fill="white" stroke="black" points="109,-67.5 109,-86.5 177,-86.5 177,-67.5 109,-67.5"/>
<text text-anchor="middle" x="143" y="-74.5" font-family="Helvetica,sans-Serif" font-size="10.00">_Elf32_Rel</text>
</a>
</g>
</g>
<!-- Node6&#45;&gt;Node1 -->
<g id="edge6" class="edge">
<title>Node6&#45;&gt;Node1</title>
<path fill="none" stroke="#9a32cd" stroke-dasharray="5,2" d="M133.4,-58.68C129.66,-52.13 125.25,-44.64 121,-38 117.05,-31.82 112.3,-25.07 108.54,-19.86"/>
<polygon fill="#9a32cd" stroke="#9a32cd" points="130.36,-60.42 138.32,-67.42 136.47,-56.99 130.36,-60.42"/>
<text text-anchor="middle" x="135" y="-41" font-family="Helvetica,sans-Serif" font-size="10.00"> rel</text>
</g>
</g>
</svg>
