<?xml version="1.0" encoding="UTF-8" standalone="no"?>
<!DOCTYPE svg PUBLIC "-//W3C//DTD SVG 1.1//EN"
 "http://www.w3.org/Graphics/SVG/1.1/DTD/svg11.dtd">
<!-- Generated by graphviz version 9.0.0 (20230911.1827)
 -->
<!-- Title: OhciRegs Pages: 1 -->
<svg width="206pt" height="275pt"
 viewBox="0.00 0.00 205.75 275.00" xmlns="http://www.w3.org/2000/svg" xmlns:xlink="http://www.w3.org/1999/xlink">
<g id="graph0" class="graph" transform="scale(1 1) rotate(0) translate(4 271)">
<title>OhciRegs</title>
<!-- Node1 -->
<g id="Node000001" class="node">
<title>Node1</title>
<g id="a_Node000001"><a xlink:title=" ">
<polygon fill="#999999" stroke="#666666" points="106.88,-19.25 48.12,-19.25 48.12,0 106.88,0 106.88,-19.25"/>
<text text-anchor="middle" x="77.5" y="-5.75" font-family="Helvetica,sans-Serif" font-size="10.00">OhciRegs</text>
</a>
</g>
</g>
<!-- Node2 -->
<g id="Node000002" class="node">
<title>Node2</title>
<g id="a_Node000002"><a xlink:href="usbdpriv_8h.html#struct_hc_c_a" target="_top" xlink:title=" ">
<polygon fill="white" stroke="#bfbfbf" points="59.62,-104.25 17.38,-104.25 17.38,-85 59.62,-85 59.62,-104.25"/>
<text text-anchor="middle" x="38.5" y="-90.75" font-family="Helvetica,sans-Serif" font-size="10.00">HcCA</text>
</a>
</g>
</g>
<!-- Node2&#45;&gt;Node1 -->
<g id="edge1_Node000001_Node000002" class="edge">
<title>Node2&#45;&gt;Node1</title>
<g id="a_edge1_Node000001_Node000002"><a xlink:title=" ">
<path fill="none" stroke="#9a32cd" stroke-dasharray="5,2" d="M44.16,-73.85C47.68,-62.78 52.69,-48.91 58.75,-37.25 61.98,-31.03 66.48,-24.59 70.26,-19.6"/>
<polygon fill="#9a32cd" stroke="#9a32cd" points="40.92,-72.49 41.38,-83.08 47.62,-74.51 40.92,-72.49"/>
</a>
</g>
<text text-anchor="middle" x="79.88" y="-39" font-family="Helvetica,sans-Serif" font-size="10.00" fill="grey"> HcHCCA</text>
</g>
<!-- Node3 -->
<g id="Node000003" class="node">
<title>Node3</title>
<g id="a_Node000003"><a xlink:href="usbdpriv_8h.html#struct__hc_ed" target="_top" xlink:title=" ">
<polygon fill="white" stroke="#bfbfbf" points="115,-189.25 72,-189.25 72,-170 115,-170 115,-189.25"/>
<text text-anchor="middle" x="93.5" y="-175.75" font-family="Helvetica,sans-Serif" font-size="10.00">_hcEd</text>
</a>
</g>
</g>
<!-- Node3&#45;&gt;Node1 -->
<g id="edge7_Node000001_Node000003" class="edge">
<title>Node3&#45;&gt;Node1</title>
<g id="a_edge7_Node000001_Node000003"><a xlink:title=" ">
<path fill="none" stroke="#9a32cd" stroke-dasharray="5,2" d="M100.09,-159C100.67,-156.66 101.16,-154.29 101.5,-152 108.92,-101.54 119.79,-84.86 101.5,-37.25 98.87,-30.4 93.56,-24.2 88.61,-19.52"/>
<polygon fill="#9a32cd" stroke="#9a32cd" points="96.78,-157.86 97.26,-168.45 103.49,-159.87 96.78,-157.86"/>
</a>
</g>
<text text-anchor="middle" x="154.62" y="-113.25" font-family="Helvetica,sans-Serif" font-size="10.00" fill="grey"> HcBulkCurrentEd</text>
<text text-anchor="middle" x="154.62" y="-102" font-family="Helvetica,sans-Serif" font-size="10.00" fill="grey">HcBulkHeadEd</text>
<text text-anchor="middle" x="154.62" y="-90.75" font-family="Helvetica,sans-Serif" font-size="10.00" fill="grey">HcControlCurrentEd</text>
<text text-anchor="middle" x="154.62" y="-79.5" font-family="Helvetica,sans-Serif" font-size="10.00" fill="grey">HcControlHeadEd</text>
<text text-anchor="middle" x="154.62" y="-68.25" font-family="Helvetica,sans-Serif" font-size="10.00" fill="grey">HcPeriodCurrentEd</text>
</g>
<!-- Node3&#45;&gt;Node2 -->
<g id="edge2_Node000002_Node000003" class="edge">
<title>Node3&#45;&gt;Node2</title>
<g id="a_edge2_Node000002_Node000003"><a xlink:title=" ">
<path fill="none" stroke="#9a32cd" stroke-dasharray="5,2" d="M61.3,-169.76C52.68,-165.77 44.35,-160.07 39.25,-152 30.04,-137.44 33.14,-116.25 35.98,-104.43"/>
<polygon fill="#9a32cd" stroke="#9a32cd" points="59.76,-172.91 70.35,-173.28 62.3,-166.39 59.76,-172.91"/>
</a>
</g>
<text text-anchor="middle" x="69.62" y="-142.5" font-family="Helvetica,sans-Serif" font-size="10.00" fill="grey"> InterruptTable</text>
</g>
<!-- Node3&#45;&gt;Node3 -->
<g id="edge5_Node000003_Node000003" class="edge">
<title>Node3&#45;&gt;Node3</title>
<g id="a_edge5_Node000003_Node000003"><a xlink:title=" ">
<path fill="none" stroke="#9a32cd" stroke-dasharray="5,2" d="M126.83,-184.89C130.58,-183.9 133,-182.15 133,-179.62 133,-175.01 124.9,-172.96 115.43,-173.47"/>
<polygon fill="#9a32cd" stroke="#9a32cd" points="126.64,-181.4 116.94,-185.67 127.19,-188.38 126.64,-181.4"/>
</a>
</g>
<text text-anchor="middle" x="143.12" y="-175.75" font-family="Helvetica,sans-Serif" font-size="10.00" fill="grey"> next</text>
</g>
<!-- Node4 -->
<g id="Node000004" class="node">
<title>Node4</title>
<g id="a_Node000004"><a xlink:href="usbdpriv_8h.html#struct__hc_td" target="_top" xlink:title=" ">
<polygon fill="white" stroke="#bfbfbf" points="43,-267 0,-267 0,-247.75 43,-247.75 43,-267"/>
<text text-anchor="middle" x="21.5" y="-253.5" font-family="Helvetica,sans-Serif" font-size="10.00">_hcTd</text>
</a>
</g>
</g>
<!-- Node4&#45;&gt;Node2 -->
<g id="edge6_Node000002_Node000004" class="edge">
<title>Node4&#45;&gt;Node2</title>
<g id="a_edge6_Node000002_Node000004"><a xlink:title=" ">
<path fill="none" stroke="#9a32cd" stroke-dasharray="5,2" d="M17.65,-236.43C14.85,-218.86 12.08,-192.61 15.5,-170 19.17,-145.68 29.25,-118.35 34.77,-104.58"/>
<polygon fill="#9a32cd" stroke="#9a32cd" points="14.2,-237.02 19.39,-246.25 21.09,-235.8 14.2,-237.02"/>
</a>
</g>
<text text-anchor="middle" x="39.5" y="-175.75" font-family="Helvetica,sans-Serif" font-size="10.00" fill="grey"> DoneHead</text>
</g>
<!-- Node4&#45;&gt;Node3 -->
<g id="edge3_Node000003_Node000004" class="edge">
<title>Node4&#45;&gt;Node3</title>
<g id="a_edge3_Node000003_Node000004"><a xlink:title=" ">
<path fill="none" stroke="#9a32cd" stroke-dasharray="5,2" d="M37.82,-239.2C52.47,-223.79 73.39,-201.78 84.97,-189.6"/>
<polygon fill="#9a32cd" stroke="#9a32cd" points="35.44,-236.63 31.08,-246.29 40.51,-241.45 35.44,-236.63"/>
</a>
</g>
<text text-anchor="middle" x="84.38" y="-220.25" font-family="Helvetica,sans-Serif" font-size="10.00" fill="grey"> tdHead</text>
<text text-anchor="middle" x="84.38" y="-209" font-family="Helvetica,sans-Serif" font-size="10.00" fill="grey">tdTail</text>
</g>
<!-- Node4&#45;&gt;Node4 -->
<g id="edge4_Node000004_Node000004" class="edge">
<title>Node4&#45;&gt;Node4</title>
<g id="a_edge4_Node000004_Node000004"><a xlink:title=" ">
<path fill="none" stroke="#9a32cd" stroke-dasharray="5,2" d="M54.83,-263.54C58.58,-262.38 61,-260.32 61,-257.38 61,-251.98 52.9,-249.58 43.43,-250.17"/>
<polygon fill="#9a32cd" stroke="#9a32cd" points="54.58,-260.04 44.94,-264.44 55.22,-267.02 54.58,-260.04"/>
</a>
</g>
<text text-anchor="middle" x="71.12" y="-253.5" font-family="Helvetica,sans-Serif" font-size="10.00" fill="grey"> next</text>
</g>
</g>
</svg>
