<?xml version="1.0" encoding="UTF-8" standalone="no"?>
<!DOCTYPE svg PUBLIC "-//W3C//DTD SVG 1.1//EN"
 "http://www.w3.org/Graphics/SVG/1.1/DTD/svg11.dtd">
<!-- Generated by graphviz version 9.0.0 (20230911.1827)
 -->
<!-- Title: apa_header_t Pages: 1 -->
<svg width="166pt" height="94pt"
 viewBox="0.00 0.00 166.38 93.75" xmlns="http://www.w3.org/2000/svg" xmlns:xlink="http://www.w3.org/1999/xlink">
<g id="graph0" class="graph" transform="scale(1 1) rotate(0) translate(4 89.75)">
<title>apa_header_t</title>
<!-- Node1 -->
<g id="Node000001" class="node">
<title>Node1</title>
<g id="a_Node000001"><a xlink:title=" ">
<polygon fill="#999999" stroke="#666666" points="121.12,-19.25 46.62,-19.25 46.62,0 121.12,0 121.12,-19.25"/>
<text text-anchor="middle" x="83.88" y="-5.75" font-family="Helvetica,sans-Serif" font-size="10.00">apa_header_t</text>
</a>
</g>
</g>
<!-- Node2 -->
<g id="Node000002" class="node">
<title>Node2</title>
<g id="a_Node000002"><a xlink:href="structapa__ps2time__t.html" target="_top" xlink:title=" ">
<polygon fill="white" stroke="#bfbfbf" points="79.75,-85.75 0,-85.75 0,-66.5 79.75,-66.5 79.75,-85.75"/>
<text text-anchor="middle" x="39.88" y="-72.25" font-family="Helvetica,sans-Serif" font-size="10.00">apa_ps2time_t</text>
</a>
</g>
</g>
<!-- Node2&#45;&gt;Node1 -->
<g id="edge1_Node000001_Node000002" class="edge">
<title>Node2&#45;&gt;Node1</title>
<g id="a_edge1_Node000001_Node000002"><a xlink:title=" ">
<path fill="none" stroke="#9a32cd" stroke-dasharray="5,2" d="M52.32,-56.88C60.66,-44.66 71.26,-29.11 77.81,-19.52"/>
<polygon fill="#9a32cd" stroke="#9a32cd" points="49.59,-54.67 46.85,-64.91 55.37,-58.62 49.59,-54.67"/>
</a>
</g>
<text text-anchor="middle" x="82.12" y="-39" font-family="Helvetica,sans-Serif" font-size="10.00" fill="grey"> created</text>
</g>
<!-- Node3 -->
<g id="Node000003" class="node">
<title>Node3</title>
<g id="a_Node000003"><a xlink:href="structapa__sub__t.html" target="_top" xlink:title=" ">
<polygon fill="white" stroke="#bfbfbf" points="158.38,-85.75 97.38,-85.75 97.38,-66.5 158.38,-66.5 158.38,-85.75"/>
<text text-anchor="middle" x="127.88" y="-72.25" font-family="Helvetica,sans-Serif" font-size="10.00">apa_sub_t</text>
</a>
</g>
</g>
<!-- Node3&#45;&gt;Node1 -->
<g id="edge2_Node000001_Node000003" class="edge">
<title>Node3&#45;&gt;Node1</title>
<g id="a_edge2_Node000001_Node000003"><a xlink:title=" ">
<path fill="none" stroke="#9a32cd" stroke-dasharray="5,2" d="M116.61,-56.7C112.69,-50.46 108.18,-43.49 103.88,-37.25 99.67,-31.16 94.67,-24.51 90.72,-19.37"/>
<polygon fill="#9a32cd" stroke="#9a32cd" points="113.5,-58.33 121.74,-64.98 119.45,-54.64 113.5,-58.33"/>
</a>
</g>
<text text-anchor="middle" x="121.5" y="-39" font-family="Helvetica,sans-Serif" font-size="10.00" fill="grey"> subs</text>
</g>
</g>
</svg>
