<?xml version="1.0" encoding="UTF-8" standalone="no"?>
<!DOCTYPE svg PUBLIC "-//W3C//DTD SVG 1.1//EN"
 "http://www.w3.org/Graphics/SVG/1.1/DTD/svg11.dtd">
<!-- Generated by graphviz version 2.43.0 (0)
 -->
<!-- Title: t_SifRpcOtherDataPkt Pages: 1 -->
<svg width="242pt" height="162pt"
 viewBox="0.00 0.00 241.50 162.00" xmlns="http://www.w3.org/2000/svg" xmlns:xlink="http://www.w3.org/1999/xlink">
<g id="graph0" class="graph" transform="scale(1 1) rotate(0) translate(4 158)">
<title>t_SifRpcOtherDataPkt</title>
<polygon fill="white" stroke="transparent" points="-4,4 -4,-158 237.5,-158 237.5,4 -4,4"/>
<!-- Node1 -->
<g id="node1" class="node">
<title>Node1</title>
<g id="a_node1"><a xlink:title=" ">
<polygon fill="#bfbfbf" stroke="black" points="61.5,-0.5 61.5,-19.5 183.5,-19.5 183.5,-0.5 61.5,-0.5"/>
<text text-anchor="middle" x="122.5" y="-7.5" font-family="Helvetica,sans-Serif" font-size="10.00">t_SifRpcOtherDataPkt</text>
</a>
</g>
</g>
<!-- Node2 -->
<g id="node2" class="node">
<title>Node2</title>
<g id="a_node2"><a xlink:href="sifrpc-common_8h.html#structt___sif_rpc_receive_data" target="_top" xlink:title=" ">
<polygon fill="white" stroke="black" points="0,-67.5 0,-86.5 119,-86.5 119,-67.5 0,-67.5"/>
<text text-anchor="middle" x="59.5" y="-74.5" font-family="Helvetica,sans-Serif" font-size="10.00">t_SifRpcReceiveData</text>
</a>
</g>
</g>
<!-- Node2&#45;&gt;Node1 -->
<g id="edge1" class="edge">
<title>Node2&#45;&gt;Node1</title>
<path fill="none" stroke="#9a32cd" stroke-dasharray="5,2" d="M75.01,-60C87.37,-47.25 104.19,-29.89 114.14,-19.63"/>
<polygon fill="#9a32cd" stroke="#9a32cd" points="72.44,-57.62 68,-67.23 77.47,-62.49 72.44,-57.62"/>
<text text-anchor="middle" x="115.5" y="-41" font-family="Helvetica,sans-Serif" font-size="10.00"> recvbuf</text>
</g>
<!-- Node3 -->
<g id="node3" class="node">
<title>Node3</title>
<g id="a_node3"><a xlink:href="sifrpc-common_8h.html#structt___sif_rpc_header" target="_top" xlink:title=" ">
<polygon fill="white" stroke="black" points="13.5,-134.5 13.5,-153.5 105.5,-153.5 105.5,-134.5 13.5,-134.5"/>
<text text-anchor="middle" x="59.5" y="-141.5" font-family="Helvetica,sans-Serif" font-size="10.00">t_SifRpcHeader</text>
</a>
</g>
</g>
<!-- Node3&#45;&gt;Node2 -->
<g id="edge2" class="edge">
<title>Node3&#45;&gt;Node2</title>
<path fill="none" stroke="#9a32cd" stroke-dasharray="5,2" d="M59.5,-124.04C59.5,-111.67 59.5,-96.12 59.5,-86.63"/>
<polygon fill="#9a32cd" stroke="#9a32cd" points="56,-124.23 59.5,-134.23 63,-124.23 56,-124.23"/>
<text text-anchor="middle" x="69" y="-108" font-family="Helvetica,sans-Serif" font-size="10.00"> hdr</text>
</g>
<!-- Node4 -->
<g id="node4" class="node">
<title>Node4</title>
<g id="a_node4"><a xlink:href="sifcmd-common_8h.html#structt___sif_cmd_header" target="_top" xlink:title=" ">
<polygon fill="white" stroke="black" points="137.5,-67.5 137.5,-86.5 233.5,-86.5 233.5,-67.5 137.5,-67.5"/>
<text text-anchor="middle" x="185.5" y="-74.5" font-family="Helvetica,sans-Serif" font-size="10.00">t_SifCmdHeader</text>
</a>
</g>
</g>
<!-- Node4&#45;&gt;Node1 -->
<g id="edge3" class="edge">
<title>Node4&#45;&gt;Node1</title>
<path fill="none" stroke="#9a32cd" stroke-dasharray="5,2" d="M169.99,-60C157.63,-47.25 140.81,-29.89 130.86,-19.63"/>
<polygon fill="#9a32cd" stroke="#9a32cd" points="167.53,-62.49 177,-67.23 172.56,-57.62 167.53,-62.49"/>
<text text-anchor="middle" x="176" y="-41" font-family="Helvetica,sans-Serif" font-size="10.00"> sifcmd</text>
</g>
</g>
</svg>
