<?xml version="1.0" encoding="UTF-8" standalone="no"?>
<!DOCTYPE svg PUBLIC "-//W3C//DTD SVG 1.1//EN"
 "http://www.w3.org/Graphics/SVG/1.1/DTD/svg11.dtd">
<!-- Generated by graphviz version 2.43.0 (0)
 -->
<!-- Title: _slib_exp_lib Pages: 1 -->
<svg width="134pt" height="95pt"
 viewBox="0.00 0.00 134.00 95.00" xmlns="http://www.w3.org/2000/svg" xmlns:xlink="http://www.w3.org/1999/xlink">
<g id="graph0" class="graph" transform="scale(1 1) rotate(0) translate(4 91)">
<title>_slib_exp_lib</title>
<polygon fill="white" stroke="transparent" points="-4,4 -4,-91 130,-91 130,4 -4,4"/>
<!-- Node1 -->
<g id="node1" class="node">
<title>Node1</title>
<g id="a_node1"><a xlink:title=" ">
<polygon fill="#bfbfbf" stroke="black" points="1.5,-0.5 1.5,-19.5 81.5,-19.5 81.5,-0.5 1.5,-0.5"/>
<text text-anchor="middle" x="41.5" y="-7.5" font-family="Helvetica,sans-Serif" font-size="10.00">_slib_exp_lib</text>
</a>
</g>
</g>
<!-- Node1&#45;&gt;Node1 -->
<g id="edge1" class="edge">
<title>Node1&#45;&gt;Node1</title>
<path fill="none" stroke="#9a32cd" stroke-dasharray="5,2" d="M91.76,-14.82C96.5,-13.83 99.5,-12.23 99.5,-10 99.5,-6.44 91.83,-4.46 81.62,-4.07"/>
<polygon fill="#9a32cd" stroke="#9a32cd" points="91.18,-11.36 81.62,-15.93 91.94,-18.32 91.18,-11.36"/>
<text text-anchor="middle" x="112" y="-7.5" font-family="Helvetica,sans-Serif" font-size="10.00"> prev</text>
</g>
<!-- Node2 -->
<g id="node2" class="node">
<title>Node2</title>
<g id="a_node2"><a xlink:href="slib_8h.html#struct__slib__imp__list" target="_top" xlink:title=" ">
<polygon fill="white" stroke="black" points="0,-67.5 0,-86.5 83,-86.5 83,-67.5 0,-67.5"/>
<text text-anchor="middle" x="41.5" y="-74.5" font-family="Helvetica,sans-Serif" font-size="10.00">_slib_imp_list</text>
</a>
</g>
</g>
<!-- Node2&#45;&gt;Node1 -->
<g id="edge2" class="edge">
<title>Node2&#45;&gt;Node1</title>
<path fill="none" stroke="#9a32cd" stroke-dasharray="5,2" d="M41.5,-57.04C41.5,-44.67 41.5,-29.12 41.5,-19.63"/>
<polygon fill="#9a32cd" stroke="#9a32cd" points="38,-57.23 41.5,-67.23 45,-57.23 38,-57.23"/>
<text text-anchor="middle" x="57" y="-41" font-family="Helvetica,sans-Serif" font-size="10.00"> caller</text>
</g>
<!-- Node2&#45;&gt;Node2 -->
<g id="edge3" class="edge">
<title>Node2&#45;&gt;Node2</title>
<path fill="none" stroke="#9a32cd" stroke-dasharray="5,2" d="M93.32,-81.77C98.03,-80.78 101,-79.19 101,-77 101,-73.5 93.41,-71.53 83.21,-71.09"/>
<polygon fill="#9a32cd" stroke="#9a32cd" points="92.75,-78.31 83.21,-82.91 93.53,-85.27 92.75,-78.31"/>
<text text-anchor="middle" x="113.5" y="-74.5" font-family="Helvetica,sans-Serif" font-size="10.00"> next</text>
</g>
</g>
</svg>
