<?xml version="1.0" encoding="UTF-8" standalone="no"?>
<!DOCTYPE svg PUBLIC "-//W3C//DTD SVG 1.1//EN"
 "http://www.w3.org/Graphics/SVG/1.1/DTD/svg11.dtd">
<!-- Generated by graphviz version 9.0.0 (20230911.1827)
 -->
<!-- Title: _fs_dir Pages: 1 -->
<svg width="262pt" height="227pt"
 viewBox="0.00 0.00 261.62 226.75" xmlns="http://www.w3.org/2000/svg" xmlns:xlink="http://www.w3.org/1999/xlink">
<g id="graph0" class="graph" transform="scale(1 1) rotate(0) translate(4 222.75)">
<title>_fs_dir</title>
<!-- Node1 -->
<g id="Node000001" class="node">
<title>Node1</title>
<g id="a_Node000001"><a xlink:title=" ">
<polygon fill="#999999" stroke="#666666" points="165.12,-19.25 119.88,-19.25 119.88,0 165.12,0 165.12,-19.25"/>
<text text-anchor="middle" x="142.5" y="-5.75" font-family="Helvetica,sans-Serif" font-size="10.00">_fs_dir</text>
</a>
</g>
</g>
<!-- Node2 -->
<g id="Node000002" class="node">
<title>Node2</title>
<g id="a_Node000002"><a xlink:href="structfs__dirent.html" target="_top" xlink:title=" ">
<polygon fill="white" stroke="#bfbfbf" points="169.25,-85.75 115.75,-85.75 115.75,-66.5 169.25,-66.5 169.25,-85.75"/>
<text text-anchor="middle" x="142.5" y="-72.25" font-family="Helvetica,sans-Serif" font-size="10.00">fs_dirent</text>
</a>
</g>
</g>
<!-- Node2&#45;&gt;Node1 -->
<g id="edge1_Node000001_Node000002" class="edge">
<title>Node2&#45;&gt;Node1</title>
<g id="a_edge1_Node000001_Node000002"><a xlink:title=" ">
<path fill="none" stroke="#9a32cd" stroke-dasharray="5,2" d="M142.5,-54.65C142.5,-42.82 142.5,-28.54 142.5,-19.52"/>
<polygon fill="#9a32cd" stroke="#9a32cd" points="139,-54.64 142.5,-64.64 146,-54.64 139,-54.64"/>
</a>
</g>
<text text-anchor="middle" x="155.62" y="-39" font-family="Helvetica,sans-Serif" font-size="10.00" fill="grey"> dirent</text>
</g>
<!-- Node3 -->
<g id="Node000003" class="node">
<title>Node3</title>
<g id="a_Node000003"><a xlink:href="struct__fat__dir.html" target="_top" xlink:title=" ">
<polygon fill="white" stroke="#bfbfbf" points="78.62,-152.25 30.38,-152.25 30.38,-133 78.62,-133 78.62,-152.25"/>
<text text-anchor="middle" x="54.5" y="-138.75" font-family="Helvetica,sans-Serif" font-size="10.00">_fat_dir</text>
</a>
</g>
</g>
<!-- Node3&#45;&gt;Node1 -->
<g id="edge5_Node000001_Node000003" class="edge">
<title>Node3&#45;&gt;Node1</title>
<g id="a_edge5_Node000001_Node000003"><a xlink:title=" ">
<path fill="none" stroke="#9a32cd" stroke-dasharray="5,2" d="M46.59,-121.85C41.55,-105.87 37.6,-83.35 47.25,-66.5 62.69,-39.55 96.73,-24.33 119.65,-16.79"/>
<polygon fill="#9a32cd" stroke="#9a32cd" points="43.27,-122.94 49.94,-131.17 49.85,-120.57 43.27,-122.94"/>
</a>
</g>
<text text-anchor="middle" x="77.12" y="-72.25" font-family="Helvetica,sans-Serif" font-size="10.00" fill="grey"> current_fatdir</text>
</g>
<!-- Node3&#45;&gt;Node2 -->
<g id="edge2_Node000002_Node000003" class="edge">
<title>Node3&#45;&gt;Node2</title>
<g id="a_edge2_Node000002_Node000003"><a xlink:title=" ">
<path fill="none" stroke="#9a32cd" stroke-dasharray="5,2" d="M75.91,-125.93C92.89,-113.49 116.03,-96.53 130.08,-86.23"/>
<polygon fill="#9a32cd" stroke="#9a32cd" points="73.95,-123.03 67.96,-131.76 78.09,-128.67 73.95,-123.03"/>
</a>
</g>
<text text-anchor="middle" x="116.5" y="-105.5" font-family="Helvetica,sans-Serif" font-size="10.00" fill="grey"> fatdir</text>
</g>
<!-- Node4 -->
<g id="Node000004" class="node">
<title>Node4</title>
<g id="a_Node000004"><a xlink:href="struct__fat__dir__chain__record.html" target="_top" xlink:title=" ">
<polygon fill="white" stroke="#bfbfbf" points="109,-218.75 0,-218.75 0,-199.5 109,-199.5 109,-218.75"/>
<text text-anchor="middle" x="54.5" y="-205.25" font-family="Helvetica,sans-Serif" font-size="10.00">_fat_dir_chain_record</text>
</a>
</g>
</g>
<!-- Node4&#45;&gt;Node3 -->
<g id="edge3_Node000003_Node000004" class="edge">
<title>Node4&#45;&gt;Node3</title>
<g id="a_edge3_Node000003_Node000004"><a xlink:title=" ">
<path fill="none" stroke="#9a32cd" stroke-dasharray="5,2" d="M54.5,-187.65C54.5,-175.82 54.5,-161.54 54.5,-152.52"/>
<polygon fill="#9a32cd" stroke="#9a32cd" points="51,-187.64 54.5,-197.64 58,-187.64 51,-187.64"/>
</a>
</g>
<text text-anchor="middle" x="67.25" y="-172" font-family="Helvetica,sans-Serif" font-size="10.00" fill="grey"> chain</text>
</g>
<!-- Node5 -->
<g id="Node000005" class="node">
<title>Node5</title>
<g id="a_Node000005"><a xlink:href="struct__fat__dir__list.html" target="_top" xlink:title=" ">
<polygon fill="white" stroke="#bfbfbf" points="253.62,-85.75 187.38,-85.75 187.38,-66.5 253.62,-66.5 253.62,-85.75"/>
<text text-anchor="middle" x="220.5" y="-72.25" font-family="Helvetica,sans-Serif" font-size="10.00">_fat_dir_list</text>
</a>
</g>
</g>
<!-- Node5&#45;&gt;Node1 -->
<g id="edge4_Node000001_Node000005" class="edge">
<title>Node5&#45;&gt;Node1</title>
<g id="a_edge4_Node000001_Node000005"><a xlink:title=" ">
<path fill="none" stroke="#9a32cd" stroke-dasharray="5,2" d="M201.05,-59.04C185.94,-46.55 165.55,-29.69 153.25,-19.52"/>
<polygon fill="#9a32cd" stroke="#9a32cd" points="198.55,-61.52 208.49,-65.19 203.01,-56.12 198.55,-61.52"/>
</a>
</g>
<text text-anchor="middle" x="201.25" y="-39" font-family="Helvetica,sans-Serif" font-size="10.00" fill="grey"> fatdlist</text>
</g>
</g>
</svg>
