<?xml version="1.0" encoding="UTF-8" standalone="no"?>
<!DOCTYPE svg PUBLIC "-//W3C//DTD SVG 1.1//EN"
 "http://www.w3.org/Graphics/SVG/1.1/DTD/svg11.dtd">
<!-- Generated by graphviz version 12.2.0 (20241103.1931)
 -->
<!-- Title: _elffile Pages: 1 -->
<svg width="276pt" height="233pt"
 viewBox="0.00 0.00 275.75 233.25" xmlns="http://www.w3.org/2000/svg" xmlns:xlink="http://www.w3.org/1999/xlink">
<g id="graph0" class="graph" transform="scale(1 1) rotate(0) translate(4 229.25)">
<title>_elffile</title>
<!-- Node1 -->
<g id="Node000001" class="node">
<title>Node1</title>
<g id="a_Node000001"><a xlink:title=" ">
<polygon fill="#999999" stroke="#666666" points="145,-19.25 102,-19.25 102,0 145,0 145,-19.25"/>
<text text-anchor="middle" x="123.5" y="-5.75" font-family="Helvetica,sans-Serif" font-size="10.00">_elffile</text>
</a>
</g>
</g>
<!-- Node2 -->
<g id="Node000002" class="node">
<title>Node2</title>
<g id="a_Node000002"><a xlink:href="struct___elf32__ehdr.html" target="_top" xlink:title=" ">
<polygon fill="white" stroke="#bfbfbf" points="67,-87.38 0,-87.38 0,-68.12 67,-68.12 67,-87.38"/>
<text text-anchor="middle" x="33.5" y="-73.88" font-family="Helvetica,sans-Serif" font-size="10.00">_Elf32_ehdr</text>
</a>
</g>
</g>
<!-- Node2&#45;&gt;Node1 -->
<g id="edge1_Node000001_Node000002" class="edge">
<title>Node2&#45;&gt;Node1</title>
<g id="a_edge1_Node000001_Node000002"><a xlink:title=" ">
<path fill="none" stroke="#9a32cd" stroke-dasharray="5,2" d="M54.61,-61.24C72.23,-48.29 96.73,-30.29 111.27,-19.61"/>
<polygon fill="#9a32cd" stroke="#9a32cd" points="52.84,-58.19 46.86,-66.94 56.99,-63.84 52.84,-58.19"/>
</a>
</g>
<text text-anchor="middle" x="95.56" y="-39" font-family="Helvetica,sans-Serif" font-size="10.00" fill="grey"> ehp</text>
</g>
<!-- Node3 -->
<g id="Node000003" class="node">
<title>Node3</title>
<g id="a_Node000003"><a xlink:href="struct__elf__section.html" target="_top" xlink:title=" ">
<polygon fill="white" stroke="#bfbfbf" points="231.75,-157.12 163.25,-157.12 163.25,-137.88 231.75,-137.88 231.75,-157.12"/>
<text text-anchor="middle" x="197.5" y="-143.62" font-family="Helvetica,sans-Serif" font-size="10.00">_elf_section</text>
</a>
</g>
</g>
<!-- Node3&#45;&gt;Node1 -->
<g id="edge2_Node000001_Node000003" class="edge">
<title>Node3&#45;&gt;Node1</title>
<g id="a_edge2_Node000001_Node000003"><a xlink:title=" ">
<path fill="none" stroke="#9a32cd" stroke-dasharray="5,2" d="M192.97,-126.5C188.68,-109.78 181.27,-85.64 170.5,-66.5 160.18,-48.16 143.48,-30.11 133.02,-19.69"/>
<polygon fill="#9a32cd" stroke="#9a32cd" points="189.56,-127.27 195.3,-136.18 196.37,-125.64 189.56,-127.27"/>
</a>
</g>
<text text-anchor="middle" x="197.35" y="-79.5" font-family="Helvetica,sans-Serif" font-size="10.00" fill="grey"> scp</text>
<text text-anchor="middle" x="197.35" y="-68.25" font-family="Helvetica,sans-Serif" font-size="10.00" fill="grey">shstrptr</text>
</g>
<!-- Node3&#45;&gt;Node3 -->
<g id="edge4_Node000003_Node000003" class="edge">
<title>Node3&#45;&gt;Node3</title>
<g id="a_edge4_Node000003_Node000003"><a xlink:title=" ">
<path fill="none" stroke="#9a32cd" stroke-dasharray="5,2" d="M243.44,-152.58C247.33,-151.49 249.75,-149.8 249.75,-147.5 249.75,-143.41 242.1,-141.24 232.17,-140.99"/>
<polygon fill="#9a32cd" stroke="#9a32cd" points="243.15,-149.09 233.67,-153.82 244.03,-156.03 243.15,-149.09"/>
</a>
</g>
<text text-anchor="middle" x="258.75" y="-149.25" font-family="Helvetica,sans-Serif" font-size="10.00" fill="grey"> info</text>
<text text-anchor="middle" x="258.75" y="-138" font-family="Helvetica,sans-Serif" font-size="10.00" fill="grey">link</text>
</g>
<!-- Node5 -->
<g id="Node000005" class="node">
<title>Node5</title>
<g id="a_Node000005"><a xlink:href="struct__elf__proghead.html" target="_top" xlink:title=" ">
<polygon fill="white" stroke="#bfbfbf" points="161.88,-87.38 85.12,-87.38 85.12,-68.12 161.88,-68.12 161.88,-87.38"/>
<text text-anchor="middle" x="123.5" y="-73.88" font-family="Helvetica,sans-Serif" font-size="10.00">_elf_proghead</text>
</a>
</g>
</g>
<!-- Node3&#45;&gt;Node5 -->
<g id="edge7_Node000005_Node000003" class="edge">
<title>Node3&#45;&gt;Node5</title>
<g id="a_edge7_Node000005_Node000003"><a xlink:title=" ">
<path fill="none" stroke="#9a32cd" stroke-dasharray="5,2" d="M178.66,-130.05C174.32,-126.2 169.73,-122.1 165.5,-118.25 154.11,-107.87 141.22,-95.68 132.76,-87.62"/>
<polygon fill="#9a32cd" stroke="#9a32cd" points="176.09,-132.45 185.91,-136.42 180.72,-127.19 176.09,-132.45"/>
</a>
</g>
<text text-anchor="middle" x="174.5" y="-108.75" font-family="Helvetica,sans-Serif" font-size="10.00" fill="grey"> scp</text>
</g>
<!-- Node4 -->
<g id="Node000004" class="node">
<title>Node4</title>
<g id="a_Node000004"><a xlink:href="struct___elf32___shdr.html" target="_top" xlink:title=" ">
<polygon fill="white" stroke="#bfbfbf" points="231.75,-225.25 163.25,-225.25 163.25,-206 231.75,-206 231.75,-225.25"/>
<text text-anchor="middle" x="197.5" y="-211.75" font-family="Helvetica,sans-Serif" font-size="10.00">_Elf32_Shdr</text>
</a>
</g>
</g>
<!-- Node4&#45;&gt;Node3 -->
<g id="edge3_Node000003_Node000004" class="edge">
<title>Node4&#45;&gt;Node3</title>
<g id="a_edge3_Node000003_Node000004"><a xlink:title=" ">
<path fill="none" stroke="#9a32cd" stroke-dasharray="5,2" d="M197.5,-194.56C197.5,-182.11 197.5,-166.74 197.5,-157.28"/>
<polygon fill="#9a32cd" stroke="#9a32cd" points="194,-194.19 197.5,-204.19 201,-194.19 194,-194.19"/>
</a>
</g>
<text text-anchor="middle" x="205.38" y="-178.5" font-family="Helvetica,sans-Serif" font-size="10.00" fill="grey"> shr</text>
</g>
<!-- Node5&#45;&gt;Node1 -->
<g id="edge5_Node000001_Node000005" class="edge">
<title>Node5&#45;&gt;Node1</title>
<g id="a_edge5_Node000001_Node000005"><a xlink:title=" ">
<path fill="none" stroke="#9a32cd" stroke-dasharray="5,2" d="M123.5,-56.68C123.5,-44.23 123.5,-28.86 123.5,-19.4"/>
<polygon fill="#9a32cd" stroke="#9a32cd" points="120,-56.32 123.5,-66.32 127,-56.32 120,-56.32"/>
</a>
</g>
<text text-anchor="middle" x="132.5" y="-39" font-family="Helvetica,sans-Serif" font-size="10.00" fill="grey"> php</text>
</g>
<!-- Node6 -->
<g id="Node000006" class="node">
<title>Node6</title>
<g id="a_Node000006"><a xlink:href="struct___elf32___phdr.html" target="_top" xlink:title=" ">
<polygon fill="white" stroke="#bfbfbf" points="144.75,-157.12 76.25,-157.12 76.25,-137.88 144.75,-137.88 144.75,-157.12"/>
<text text-anchor="middle" x="110.5" y="-143.62" font-family="Helvetica,sans-Serif" font-size="10.00">_Elf32_Phdr</text>
</a>
</g>
</g>
<!-- Node6&#45;&gt;Node5 -->
<g id="edge6_Node000005_Node000006" class="edge">
<title>Node6&#45;&gt;Node5</title>
<g id="a_edge6_Node000005_Node000006"><a xlink:title=" ">
<path fill="none" stroke="#9a32cd" stroke-dasharray="5,2" d="M113.14,-126.72C114.08,-120.4 115.23,-113.38 116.5,-107 117.8,-100.46 119.62,-93.15 121.08,-87.61"/>
<polygon fill="#9a32cd" stroke="#9a32cd" points="109.74,-125.79 111.81,-136.18 116.67,-126.76 109.74,-125.79"/>
</a>
</g>
<text text-anchor="middle" x="127" y="-108.75" font-family="Helvetica,sans-Serif" font-size="10.00" fill="grey"> phdr</text>
</g>
</g>
</svg>
