<?xml version="1.0" encoding="UTF-8" standalone="no"?>
<!DOCTYPE svg PUBLIC "-//W3C//DTD SVG 1.1//EN"
 "http://www.w3.org/Graphics/SVG/1.1/DTD/svg11.dtd">
<!-- Generated by graphviz version 2.43.0 (0)
 -->
<!-- Title: _ioRequest Pages: 1 -->
<!--zoomable 412 -->
<svg id="main" version="1.1" xmlns="http://www.w3.org/2000/svg" xmlns:xlink="http://www.w3.org/1999/xlink" xml:space="preserve" onload="init(evt)">
<style type="text/css"><![CDATA[
.edge:hover path { stroke: red; }
.edge:hover polygon { stroke: red; fill: red; }
]]></style>
<script type="text/javascript"><![CDATA[
var edges = document.getElementsByTagName('g');
if (edges && edges.length) {
  for (var i=0;i<edges.length;i++) {
    if (edges[i].id.substr(0,4)=='edge') {
      edges[i].setAttribute('class','edge');
    }
  }
}
]]></script>
        <defs>
                <circle id="rim" cx="0" cy="0" r="7"/>
                <circle id="rim2" cx="0" cy="0" r="3.5"/>
                <g id="zoomPlus">
                        <use xlink:href="#rim" fill="#404040">
                                <set attributeName="fill" to="#808080" begin="zoomplus.mouseover" end="zoomplus.mouseout"/>
                        </use>
                        <path d="M-4,0h8M0,-4v8" fill="none" stroke="white" stroke-width="1.5" pointer-events="none"/>
                </g>
                <g id="zoomMin">
                        <use xlink:href="#rim" fill="#404040">
                                <set attributeName="fill" to="#808080" begin="zoomminus.mouseover" end="zoomminus.mouseout"/>
                        </use>
                        <path d="M-4,0h8" fill="none" stroke="white" stroke-width="1.5" pointer-events="none"/>
                </g>
                <g id="dirArrow">
                        <path fill="none" stroke="white" stroke-width="1.5" d="M0,-3.0v7 M-2.5,-0.5L0,-3.0L2.5,-0.5"/>
                </g>
               <g id="resetDef">
                       <use xlink:href="#rim2" fill="#404040">
                               <set attributeName="fill" to="#808080" begin="reset.mouseover" end="reset.mouseout"/>
                       </use>
               </g>
        </defs>

<script type="text/javascript">
var viewWidth = 894;
var viewHeight = 412;
var sectionId = 'dynsection-3';
</script>
<script xlink:href="svgpan.js"/>
<svg id="graph" class="graph">
<g id="viewport">
<title>_ioRequest</title>
<polygon fill="white" stroke="transparent" points="-4,4 -4,-408 890,-408 890,4 -4,4"/>
<!-- Node1 -->
<g id="node1" class="node">
<title>Node1</title>
<g id="a_node1"><a xlink:title=" ">
<polygon fill="#bfbfbf" stroke="black" points="599,-233 599,-252 670,-252 670,-233 599,-233"/>
<text text-anchor="middle" x="634.5" y="-240" font-family="Helvetica,sans-Serif" font-size="10.00">_ioRequest</text>
</a>
</g>
</g>
<!-- Node1&#45;&gt;Node1 -->
<g id="edge24" class="edge">
<title>Node1&#45;&gt;Node1</title>
<path fill="none" stroke="#9a32cd" stroke-dasharray="5,2" d="M680.28,-249.3C684.99,-247.96 688,-245.7 688,-242.5 688,-237.39 680.29,-234.65 670.25,-234.29"/>
<polygon fill="#9a32cd" stroke="#9a32cd" points="679.67,-245.85 670.25,-250.71 680.64,-252.79 679.67,-245.85"/>
<text text-anchor="middle" x="726.5" y="-251" font-family="Helvetica,sans-Serif" font-size="10.00"> m_prev</text>
<text text-anchor="middle" x="726.5" y="-240" font-family="Helvetica,sans-Serif" font-size="10.00">m_next</text>
<text text-anchor="middle" x="726.5" y="-229" font-family="Helvetica,sans-Serif" font-size="10.00">m_callbackProc</text>
</g>
<!-- Node2 -->
<g id="node2" class="node">
<title>Node2</title>
<g id="a_node2"><a xlink:href="usbdpriv_8h.html#struct__endpoint" target="_top" xlink:title=" ">
<polygon fill="white" stroke="black" points="457,-136.5 457,-155.5 522,-155.5 522,-136.5 457,-136.5"/>
<text text-anchor="middle" x="489.5" y="-143.5" font-family="Helvetica,sans-Serif" font-size="10.00">_endpoint</text>
</a>
</g>
</g>
<!-- Node1&#45;&gt;Node2 -->
<g id="edge20" class="edge">
<title>Node1&#45;&gt;Node2</title>
<path fill="none" stroke="#9a32cd" stroke-dasharray="5,2" d="M600.59,-229.56C596.86,-228.32 593.11,-227.11 589.5,-226 560.44,-217.04 547.44,-226.74 523.5,-208 506.13,-194.4 496.27,-169.3 492.03,-155.93"/>
<polygon fill="#9a32cd" stroke="#9a32cd" points="599.71,-232.95 610.31,-232.84 601.96,-226.32 599.71,-232.95"/>
<text text-anchor="middle" x="565.5" y="-200" font-family="Helvetica,sans-Serif" font-size="10.00"> m_ioReqListEnd</text>
<text text-anchor="middle" x="565.5" y="-189" font-family="Helvetica,sans-Serif" font-size="10.00">m_ioReqListStart</text>
</g>
<!-- Node3 -->
<g id="node3" class="node">
<title>Node3</title>
<g id="a_node3"><a xlink:href="usbdpriv_8h.html#struct__device" target="_top" xlink:title=" ">
<polygon fill="white" stroke="black" points="348.5,-18 348.5,-37 402.5,-37 402.5,-18 348.5,-18"/>
<text text-anchor="middle" x="375.5" y="-25" font-family="Helvetica,sans-Serif" font-size="10.00">_device</text>
</a>
</g>
</g>
<!-- Node1&#45;&gt;Node3 -->
<g id="edge11" class="edge">
<title>Node1&#45;&gt;Node3</title>
<path fill="none" stroke="#9a32cd" stroke-dasharray="5,2" d="M679.9,-236.38C697.77,-231.88 716.59,-223.52 727.5,-208 733.12,-200 731.61,-194.87 727.5,-186 669.25,-60.07 474.61,-34.81 402.6,-29.76"/>
<polygon fill="#9a32cd" stroke="#9a32cd" points="679.15,-232.96 670.12,-238.5 680.64,-239.8 679.15,-232.96"/>
<text text-anchor="middle" x="751" y="-143.5" font-family="Helvetica,sans-Serif" font-size="10.00"> m_ioRequest</text>
</g>
<!-- Node2&#45;&gt;Node1 -->
<g id="edge1" class="edge">
<title>Node2&#45;&gt;Node1</title>
<path fill="none" stroke="#9a32cd" stroke-dasharray="5,2" d="M531.93,-151.51C557.72,-156.25 589.76,-166 611.5,-186 625.16,-198.57 630.95,-220.49 633.2,-232.68"/>
<polygon fill="#9a32cd" stroke="#9a32cd" points="532.47,-148.05 522.03,-149.87 531.33,-154.95 532.47,-148.05"/>
<text text-anchor="middle" x="675" y="-194.5" font-family="Helvetica,sans-Serif" font-size="10.00"> m_correspEndpoint</text>
</g>
<!-- Node2&#45;&gt;Node2 -->
<g id="edge18" class="edge">
<title>Node2&#45;&gt;Node2</title>
<path fill="none" stroke="#9a32cd" stroke-dasharray="5,2" d="M532.14,-153.92C536.91,-152.42 540,-149.78 540,-146 540,-139.95 532.1,-136.82 522.04,-136.63"/>
<polygon fill="#9a32cd" stroke="#9a32cd" points="531.44,-150.48 522.04,-155.37 532.44,-157.41 531.44,-150.48"/>
<text text-anchor="middle" x="572" y="-160" font-family="Helvetica,sans-Serif" font-size="10.00"> m_busyPrev</text>
<text text-anchor="middle" x="572" y="-149" font-family="Helvetica,sans-Serif" font-size="10.00">m_prev</text>
<text text-anchor="middle" x="572" y="-138" font-family="Helvetica,sans-Serif" font-size="10.00">m_next</text>
<text text-anchor="middle" x="572" y="-127" font-family="Helvetica,sans-Serif" font-size="10.00">m_busyNext</text>
</g>
<!-- Node2&#45;&gt;Node3 -->
<g id="edge6" class="edge">
<title>Node2&#45;&gt;Node3</title>
<path fill="none" stroke="#9a32cd" stroke-dasharray="5,2" d="M446.73,-138.26C426.49,-132.87 403.69,-123.23 389.5,-106 372.9,-85.84 373.28,-52.62 374.54,-37.05"/>
<polygon fill="#9a32cd" stroke="#9a32cd" points="446.19,-141.73 456.73,-140.64 447.81,-134.92 446.19,-141.73"/>
<text text-anchor="middle" x="440.5" y="-92.5" font-family="Helvetica,sans-Serif" font-size="10.00"> m_endpointListStart</text>
<text text-anchor="middle" x="440.5" y="-81.5" font-family="Helvetica,sans-Serif" font-size="10.00">m_endpointListEnd</text>
</g>
<!-- Node3&#45;&gt;Node2 -->
<g id="edge2" class="edge">
<title>Node3&#45;&gt;Node2</title>
<path fill="none" stroke="#9a32cd" stroke-dasharray="5,2" d="M412.74,-31.35C440.61,-35.66 476.99,-46.39 495.5,-73 508.82,-92.15 499.62,-121.48 493.59,-136.09"/>
<polygon fill="#9a32cd" stroke="#9a32cd" points="412.91,-27.84 402.53,-29.99 411.98,-34.78 412.91,-27.84"/>
<text text-anchor="middle" x="546.5" y="-87" font-family="Helvetica,sans-Serif" font-size="10.00"> m_correspDevice</text>
</g>
<!-- Node3&#45;&gt;Node3 -->
<g id="edge3" class="edge">
<title>Node3&#45;&gt;Node3</title>
<path fill="none" stroke="#9a32cd" stroke-dasharray="5,2" d="M401.09,-39.03C411.61,-39.78 420.5,-35.94 420.5,-27.5 420.5,-16.48 405.34,-13.3 391.18,-17.94"/>
<polygon fill="#9a32cd" stroke="#9a32cd" points="401.67,-35.58 391.18,-37.06 400.3,-42.45 401.67,-35.58"/>
<text text-anchor="middle" x="460" y="-47" font-family="Helvetica,sans-Serif" font-size="10.00"> m_prev</text>
<text text-anchor="middle" x="460" y="-36" font-family="Helvetica,sans-Serif" font-size="10.00">m_childListEnd</text>
<text text-anchor="middle" x="460" y="-25" font-family="Helvetica,sans-Serif" font-size="10.00">m_next</text>
<text text-anchor="middle" x="460" y="-14" font-family="Helvetica,sans-Serif" font-size="10.00">m_childListStart</text>
<text text-anchor="middle" x="460" y="-3" font-family="Helvetica,sans-Serif" font-size="10.00">m_parent</text>
</g>
<!-- Node4 -->
<g id="node4" class="node">
<title>Node4</title>
<g id="a_node4"><a xlink:href="struct___usb_driver.html" target="_top" xlink:title=" ">
<polygon fill="white" stroke="black" points="0,-136.5 0,-155.5 71,-155.5 71,-136.5 0,-136.5"/>
<text text-anchor="middle" x="35.5" y="-143.5" font-family="Helvetica,sans-Serif" font-size="10.00">_UsbDriver</text>
</a>
</g>
</g>
<!-- Node4&#45;&gt;Node3 -->
<g id="edge4" class="edge">
<title>Node4&#45;&gt;Node3</title>
<path fill="none" stroke="#9a32cd" stroke-dasharray="5,2" d="M48.76,-128.28C63.08,-111.45 87.52,-86.17 114.5,-73 193.2,-34.6 299.3,-28.71 348.44,-28.21"/>
<polygon fill="#9a32cd" stroke="#9a32cd" points="45.89,-126.25 42.23,-136.19 51.29,-130.71 45.89,-126.25"/>
<text text-anchor="middle" x="148" y="-87" font-family="Helvetica,sans-Serif" font-size="10.00"> m_devDriver</text>
</g>
<!-- Node4&#45;&gt;Node4 -->
<g id="edge5" class="edge">
<title>Node4&#45;&gt;Node4</title>
<path fill="none" stroke="#9a32cd" stroke-dasharray="5,2" d="M81.28,-153.73C85.99,-152.21 89,-149.63 89,-146 89,-140.19 81.29,-137.08 71.25,-136.67"/>
<polygon fill="#9a32cd" stroke="#9a32cd" points="80.58,-150.3 71.25,-155.33 81.68,-157.21 80.58,-150.3"/>
<text text-anchor="middle" x="101.5" y="-149" font-family="Helvetica,sans-Serif" font-size="10.00"> prev</text>
<text text-anchor="middle" x="101.5" y="-138" font-family="Helvetica,sans-Serif" font-size="10.00">next</text>
</g>
<!-- Node5 -->
<g id="node5" class="node">
<title>Node5</title>
<g id="a_node5"><a xlink:href="usbdpriv_8h.html#struct__usbd_report_descriptor" target="_top" xlink:title=" ">
<polygon fill="white" stroke="black" points="132.5,-136.5 132.5,-155.5 260.5,-155.5 260.5,-136.5 132.5,-136.5"/>
<text text-anchor="middle" x="196.5" y="-143.5" font-family="Helvetica,sans-Serif" font-size="10.00">_usbdReportDescriptor</text>
</a>
</g>
</g>
<!-- Node5&#45;&gt;Node3 -->
<g id="edge7" class="edge">
<title>Node5&#45;&gt;Node3</title>
<path fill="none" stroke="#9a32cd" stroke-dasharray="5,2" d="M189.31,-126.65C184.39,-110.76 180.68,-88.04 192.5,-73 211.59,-48.71 302.24,-36.03 348.38,-31.06"/>
<polygon fill="#9a32cd" stroke="#9a32cd" points="186.11,-128.1 192.72,-136.38 192.71,-125.78 186.11,-128.1"/>
<text text-anchor="middle" x="269" y="-98" font-family="Helvetica,sans-Serif" font-size="10.00"> m_reportDescriptorEnd</text>
<text text-anchor="middle" x="269" y="-87" font-family="Helvetica,sans-Serif" font-size="10.00">m_reportDescriptorCurForFetch</text>
<text text-anchor="middle" x="269" y="-76" font-family="Helvetica,sans-Serif" font-size="10.00">m_reportDescriptorStart</text>
</g>
<!-- Node5&#45;&gt;Node5 -->
<g id="edge8" class="edge">
<title>Node5&#45;&gt;Node5</title>
<path fill="none" stroke="#9a32cd" stroke-dasharray="5,2" d="M270.65,-152.7C275.54,-151.14 278.5,-148.91 278.5,-146 278.5,-141.46 271.29,-138.57 260.79,-137.33"/>
<polygon fill="#9a32cd" stroke="#9a32cd" points="269.9,-149.28 260.79,-154.67 271.28,-156.14 269.9,-149.28"/>
<text text-anchor="middle" x="298.5" y="-149" font-family="Helvetica,sans-Serif" font-size="10.00"> m_prev</text>
<text text-anchor="middle" x="298.5" y="-138" font-family="Helvetica,sans-Serif" font-size="10.00">m_next</text>
</g>
<!-- Node6 -->
<g id="node6" class="node">
<title>Node6</title>
<g id="a_node6"><a xlink:href="usbdpriv_8h.html#struct__timer_cb_struct" target="_top" xlink:title=" ">
<polygon fill="white" stroke="black" points="313,-233 313,-252 402,-252 402,-233 313,-233"/>
<text text-anchor="middle" x="357.5" y="-240" font-family="Helvetica,sans-Serif" font-size="10.00">_timerCbStruct</text>
</a>
</g>
</g>
<!-- Node6&#45;&gt;Node2 -->
<g id="edge19" class="edge">
<title>Node6&#45;&gt;Node2</title>
<path fill="none" stroke="#9a32cd" stroke-dasharray="5,2" d="M371,-224.89C381.24,-213.03 396.13,-197.24 411.5,-186 428.98,-173.22 451.27,-162.55 467.54,-155.62"/>
<polygon fill="#9a32cd" stroke="#9a32cd" points="368.18,-222.81 364.43,-232.72 373.54,-227.31 368.18,-222.81"/>
<text text-anchor="middle" x="434" y="-194.5" font-family="Helvetica,sans-Serif" font-size="10.00"> m_timer</text>
</g>
<!-- Node6&#45;&gt;Node3 -->
<g id="edge9" class="edge">
<title>Node6&#45;&gt;Node3</title>
<path fill="none" stroke="#9a32cd" stroke-dasharray="5,2" d="M359.09,-222.7C362.82,-178.53 372.04,-69.45 374.74,-37.46"/>
<polygon fill="#9a32cd" stroke="#9a32cd" points="355.58,-222.63 358.23,-232.89 362.56,-223.22 355.58,-222.63"/>
<text text-anchor="middle" x="390" y="-143.5" font-family="Helvetica,sans-Serif" font-size="10.00"> m_timer</text>
</g>
<!-- Node6&#45;&gt;Node6 -->
<g id="edge10" class="edge">
<title>Node6&#45;&gt;Node6</title>
<path fill="none" stroke="#9a32cd" stroke-dasharray="5,2" d="M412.33,-248.94C417.05,-247.58 420,-245.43 420,-242.5 420,-237.82 412.45,-235.13 402.16,-234.43"/>
<polygon fill="#9a32cd" stroke="#9a32cd" points="411.49,-245.53 402.16,-250.57 412.59,-252.45 411.49,-245.53"/>
<text text-anchor="middle" x="440" y="-245.5" font-family="Helvetica,sans-Serif" font-size="10.00"> m_prev</text>
<text text-anchor="middle" x="440" y="-234.5" font-family="Helvetica,sans-Serif" font-size="10.00">m_next</text>
</g>
<!-- Node7 -->
<g id="node7" class="node">
<title>Node7</title>
<g id="a_node7"><a xlink:href="usbdpriv_8h.html#struct__hc_ed" target="_top" xlink:title=" ">
<polygon fill="white" stroke="black" points="478,-233 478,-252 523,-252 523,-233 478,-233"/>
<text text-anchor="middle" x="500.5" y="-240" font-family="Helvetica,sans-Serif" font-size="10.00">_hcEd</text>
</a>
</g>
</g>
<!-- Node7&#45;&gt;Node2 -->
<g id="edge12" class="edge">
<title>Node7&#45;&gt;Node2</title>
<path fill="none" stroke="#9a32cd" stroke-dasharray="5,2" d="M477.55,-226.74C471.52,-221.6 465.78,-215.27 462.5,-208 454.11,-189.42 470.02,-167.56 480.78,-155.71"/>
<polygon fill="#9a32cd" stroke="#9a32cd" points="475.68,-229.71 485.75,-232.98 479.91,-224.14 475.68,-229.71"/>
<text text-anchor="middle" x="483.5" y="-194.5" font-family="Helvetica,sans-Serif" font-size="10.00"> m_hcEd</text>
</g>
<!-- Node7&#45;&gt;Node7 -->
<g id="edge13" class="edge">
<title>Node7&#45;&gt;Node7</title>
<path fill="none" stroke="#9a32cd" stroke-dasharray="5,2" d="M533.5,-249.83C538,-248.61 541,-246.17 541,-242.5 541,-236.48 532.93,-233.76 523.4,-234.32"/>
<polygon fill="#9a32cd" stroke="#9a32cd" points="533.07,-246.36 523.4,-250.68 533.66,-253.33 533.07,-246.36"/>
<text text-anchor="middle" x="561" y="-240" font-family="Helvetica,sans-Serif" font-size="10.00"> m_next</text>
</g>
<!-- Node8 -->
<g id="node8" class="node">
<title>Node8</title>
<g id="a_node8"><a xlink:href="usbdpriv_8h.html#struct__hc_td" target="_top" xlink:title=" ">
<polygon fill="white" stroke="black" points="342,-317.5 342,-336.5 387,-336.5 387,-317.5 342,-317.5"/>
<text text-anchor="middle" x="364.5" y="-324.5" font-family="Helvetica,sans-Serif" font-size="10.00">_hcTd</text>
</a>
</g>
</g>
<!-- Node8&#45;&gt;Node7 -->
<g id="edge14" class="edge">
<title>Node8&#45;&gt;Node7</title>
<path fill="none" stroke="#9a32cd" stroke-dasharray="5,2" d="M387.33,-312.15C415.59,-295.01 462.83,-266.35 486.33,-252.1"/>
<polygon fill="#9a32cd" stroke="#9a32cd" points="385.28,-309.3 378.54,-317.48 388.91,-315.29 385.28,-309.3"/>
<text text-anchor="middle" x="472.5" y="-291" font-family="Helvetica,sans-Serif" font-size="10.00"> m_tdHead</text>
<text text-anchor="middle" x="472.5" y="-280" font-family="Helvetica,sans-Serif" font-size="10.00">m_tdTail</text>
</g>
<!-- Node8&#45;&gt;Node8 -->
<g id="edge15" class="edge">
<title>Node8&#45;&gt;Node8</title>
<path fill="none" stroke="#9a32cd" stroke-dasharray="5,2" d="M397.5,-332.33C402,-331.44 405,-329.67 405,-327 405,-322.62 396.93,-320.64 387.4,-321.05"/>
<polygon fill="#9a32cd" stroke="#9a32cd" points="397.17,-328.85 387.4,-332.95 397.59,-335.83 397.17,-328.85"/>
<text text-anchor="middle" x="425" y="-324.5" font-family="Helvetica,sans-Serif" font-size="10.00"> m_next</text>
</g>
<!-- Node9 -->
<g id="node9" class="node">
<title>Node9</title>
<g id="a_node9"><a xlink:href="usbdpriv_8h.html#union__hc_ed_hc_area_u" target="_top" xlink:title=" ">
<polygon fill="white" stroke="black" points="463.5,-317.5 463.5,-336.5 551.5,-336.5 551.5,-317.5 463.5,-317.5"/>
<text text-anchor="middle" x="507.5" y="-324.5" font-family="Helvetica,sans-Serif" font-size="10.00">_hcEdHcAreaU</text>
</a>
</g>
</g>
<!-- Node9&#45;&gt;Node7 -->
<g id="edge16" class="edge">
<title>Node9&#45;&gt;Node7</title>
<path fill="none" stroke="#9a32cd" stroke-dasharray="5,2" d="M505.92,-307.43C504.46,-290.13 502.33,-265.11 501.23,-252.1"/>
<polygon fill="#9a32cd" stroke="#9a32cd" points="502.44,-307.81 506.78,-317.48 509.42,-307.22 502.44,-307.81"/>
<text text-anchor="middle" x="531.5" y="-285.5" font-family="Helvetica,sans-Serif" font-size="10.00"> m_hcArea</text>
</g>
<!-- Node10 -->
<g id="node10" class="node">
<title>Node10</title>
<g id="a_node10"><a xlink:href="usbdpriv_8h.html#struct__hc_ed_hc_area" target="_top" xlink:title=" ">
<polygon fill="white" stroke="black" points="467.5,-384.5 467.5,-403.5 547.5,-403.5 547.5,-384.5 467.5,-384.5"/>
<text text-anchor="middle" x="507.5" y="-391.5" font-family="Helvetica,sans-Serif" font-size="10.00">_hcEdHcArea</text>
</a>
</g>
</g>
<!-- Node10&#45;&gt;Node9 -->
<g id="edge17" class="edge">
<title>Node10&#45;&gt;Node9</title>
<path fill="none" stroke="#9a32cd" stroke-dasharray="5,2" d="M507.5,-374.04C507.5,-361.67 507.5,-346.12 507.5,-336.63"/>
<polygon fill="#9a32cd" stroke="#9a32cd" points="504,-374.23 507.5,-384.23 511,-374.23 504,-374.23"/>
<text text-anchor="middle" x="518.5" y="-358" font-family="Helvetica,sans-Serif" font-size="10.00"> stru</text>
</g>
<!-- Node11 -->
<g id="node11" class="node">
<title>Node11</title>
<g id="a_node11"><a xlink:href="usbd_8h.html#struct_usb_device_request" target="_top" xlink:title=" ">
<polygon fill="white" stroke="black" points="578,-317.5 578,-336.5 687,-336.5 687,-317.5 578,-317.5"/>
<text text-anchor="middle" x="632.5" y="-324.5" font-family="Helvetica,sans-Serif" font-size="10.00">UsbDeviceRequest</text>
</a>
</g>
</g>
<!-- Node11&#45;&gt;Node1 -->
<g id="edge21" class="edge">
<title>Node11&#45;&gt;Node1</title>
<path fill="none" stroke="#9a32cd" stroke-dasharray="5,2" d="M632.95,-307.43C633.37,-290.13 633.98,-265.11 634.29,-252.1"/>
<polygon fill="#9a32cd" stroke="#9a32cd" points="629.45,-307.4 632.71,-317.48 636.45,-307.57 629.45,-307.4"/>
<text text-anchor="middle" x="662" y="-285.5" font-family="Helvetica,sans-Serif" font-size="10.00"> m_devReq</text>
</g>
<!-- Node12 -->
<g id="node12" class="node">
<title>Node12</title>
<g id="a_node12"><a xlink:href="usbd_8h.html#structsce_usbd_multi_isochronous_request" target="_top" xlink:title=" ">
<polygon fill="white" stroke="black" points="705,-317.5 705,-336.5 886,-336.5 886,-317.5 705,-317.5"/>
<text text-anchor="middle" x="795.5" y="-324.5" font-family="Helvetica,sans-Serif" font-size="10.00">sceUsbdMultiIsochronousRequest</text>
</a>
</g>
</g>
<!-- Node12&#45;&gt;Node1 -->
<g id="edge22" class="edge">
<title>Node12&#45;&gt;Node1</title>
<path fill="none" stroke="#9a32cd" stroke-dasharray="5,2" d="M769.77,-312.81C736.49,-295.76 679.46,-266.54 651.27,-252.1"/>
<polygon fill="#9a32cd" stroke="#9a32cd" points="768.38,-316.04 778.88,-317.48 771.57,-309.81 768.38,-316.04"/>
<text text-anchor="middle" x="756.5" y="-285.5" font-family="Helvetica,sans-Serif" font-size="10.00"> m_req</text>
</g>
<!-- Node13 -->
<g id="node13" class="node">
<title>Node13</title>
<g id="a_node13"><a xlink:href="usbd_8h.html#structsce_usbd_isochronous_psw_len" target="_top" xlink:title=" ">
<polygon fill="white" stroke="black" points="719,-384.5 719,-403.5 872,-403.5 872,-384.5 719,-384.5"/>
<text text-anchor="middle" x="795.5" y="-391.5" font-family="Helvetica,sans-Serif" font-size="10.00">sceUsbdIsochronousPswLen</text>
</a>
</g>
</g>
<!-- Node13&#45;&gt;Node12 -->
<g id="edge23" class="edge">
<title>Node13&#45;&gt;Node12</title>
<path fill="none" stroke="#9a32cd" stroke-dasharray="5,2" d="M795.5,-374.04C795.5,-361.67 795.5,-346.12 795.5,-336.63"/>
<polygon fill="#9a32cd" stroke="#9a32cd" points="792,-374.23 795.5,-384.23 799,-374.23 792,-374.23"/>
<text text-anchor="middle" x="815.5" y="-358" font-family="Helvetica,sans-Serif" font-size="10.00"> Packets</text>
</g>
</g>
</svg>
        <g id="navigator" transform="translate(0 0)" fill="#404254">
                <rect fill="#f2f5e9" fill-opacity="0.5" stroke="#606060" stroke-width=".5" x="0" y="0" width="60" height="60"/>
                <use id="zoomplus" xlink:href="#zoomPlus" x="17" y="9" onmousedown="handleZoom(evt,'in')"/>
                <use id="zoomminus" xlink:href="#zoomMin" x="42" y="9" onmousedown="handleZoom(evt,'out')"/>
                <use id="reset" xlink:href="#resetDef" x="30" y="36" onmousedown="handleReset()"/>
                <g id="arrowUp" xlink:href="#dirArrow" transform="translate(30 24)" onmousedown="handlePan(0,-1)">
                  <use xlink:href="#rim" fill="#404040">
                        <set attributeName="fill" to="#808080" begin="arrowUp.mouseover" end="arrowUp.mouseout"/>
                  </use>
                  <path fill="none" stroke="white" stroke-width="1.5" d="M0,-3.0v7 M-2.5,-0.5L0,-3.0L2.5,-0.5"/>
                </g>
                <g id="arrowRight" xlink:href="#dirArrow" transform="rotate(90) translate(36 -43)" onmousedown="handlePan(1,0)">
                  <use xlink:href="#rim" fill="#404040">
                        <set attributeName="fill" to="#808080" begin="arrowRight.mouseover" end="arrowRight.mouseout"/>
                  </use>
                  <path fill="none" stroke="white" stroke-width="1.5" d="M0,-3.0v7 M-2.5,-0.5L0,-3.0L2.5,-0.5"/>
                </g>
                <g id="arrowDown" xlink:href="#dirArrow" transform="rotate(180) translate(-30 -48)" onmousedown="handlePan(0,1)">
                  <use xlink:href="#rim" fill="#404040">
                        <set attributeName="fill" to="#808080" begin="arrowDown.mouseover" end="arrowDown.mouseout"/>
                  </use>
                  <path fill="none" stroke="white" stroke-width="1.5" d="M0,-3.0v7 M-2.5,-0.5L0,-3.0L2.5,-0.5"/>
                </g>
                <g id="arrowLeft" xlink:href="#dirArrow" transform="rotate(270) translate(-36 17)" onmousedown="handlePan(-1,0)">
                  <use xlink:href="#rim" fill="#404040">
                        <set attributeName="fill" to="#808080" begin="arrowLeft.mouseover" end="arrowLeft.mouseout"/>
                  </use>
                  <path fill="none" stroke="white" stroke-width="1.5" d="M0,-3.0v7 M-2.5,-0.5L0,-3.0L2.5,-0.5"/>
                </g>
        </g>
        <svg viewBox="0 0 15 15" width="100%" height="30px" preserveAspectRatio="xMaxYMin meet">
         <g id="arrow_out" transform="scale(0.3 0.3)">
          <a xlink:href="struct__io_request__coll__graph_org.svg" target="_base">
           <rect id="button" ry="5" rx="5" y="6" x="6" height="38" width="38"
                fill="#f2f5e9" fill-opacity="0.5" stroke="#606060" stroke-width="1.0"/>
           <path id="arrow"
             d="M 11.500037,31.436501 C 11.940474,20.09759 22.043105,11.32322 32.158766,21.979434 L 37.068811,17.246167 C 37.068811,17.246167 37.088388,32 37.088388,32 L 22.160133,31.978069 C 22.160133,31.978069 26.997745,27.140456 26.997745,27.140456 C 18.528582,18.264221 13.291696,25.230495 11.500037,31.436501 z"
             style="fill:#404040;"/>
          </a>
         </g>
        </svg>
</svg>
