<?xml version="1.0" encoding="UTF-8" standalone="no"?>
<!DOCTYPE svg PUBLIC "-//W3C//DTD SVG 1.1//EN"
 "http://www.w3.org/Graphics/SVG/1.1/DTD/svg11.dtd">
<!-- Generated by graphviz version 2.43.0 (0)
 -->
<!-- Title: event Pages: 1 -->
<svg width="112pt" height="97pt"
 viewBox="0.00 0.00 112.00 97.00" xmlns="http://www.w3.org/2000/svg" xmlns:xlink="http://www.w3.org/1999/xlink">
<g id="graph0" class="graph" transform="scale(1 1) rotate(0) translate(4 93)">
<title>event</title>
<polygon fill="white" stroke="transparent" points="-4,4 -4,-93 108,-93 108,4 -4,4"/>
<!-- Node1 -->
<g id="node1" class="node">
<title>Node1</title>
<g id="a_node1"><a xlink:title=" ">
<polygon fill="#bfbfbf" stroke="black" points="8.5,-0.5 8.5,-19.5 52.5,-19.5 52.5,-0.5 8.5,-0.5"/>
<text text-anchor="middle" x="30.5" y="-7.5" font-family="Helvetica,sans-Serif" font-size="10.00">event</text>
</a>
</g>
</g>
<!-- Node2 -->
<g id="node2" class="node">
<title>Node2</title>
<g id="a_node2"><a xlink:href="structlist__head.html" target="_top" xlink:title=" ">
<polygon fill="white" stroke="black" points="0,-68.5 0,-87.5 61,-87.5 61,-68.5 0,-68.5"/>
<text text-anchor="middle" x="30.5" y="-75.5" font-family="Helvetica,sans-Serif" font-size="10.00">list_head</text>
</a>
</g>
</g>
<!-- Node2&#45;&gt;Node1 -->
<g id="edge1" class="edge">
<title>Node2&#45;&gt;Node1</title>
<path fill="none" stroke="#9a32cd" stroke-dasharray="5,2" d="M30.5,-58.04C30.5,-45.47 30.5,-29.56 30.5,-19.84"/>
<polygon fill="#9a32cd" stroke="#9a32cd" points="27,-58.37 30.5,-68.37 34,-58.37 27,-58.37"/>
<text text-anchor="middle" x="50.5" y="-41" font-family="Helvetica,sans-Serif" font-size="10.00"> waiters</text>
</g>
<!-- Node2&#45;&gt;Node2 -->
<g id="edge2" class="edge">
<title>Node2&#45;&gt;Node2</title>
<path fill="none" stroke="#9a32cd" stroke-dasharray="5,2" d="M71.58,-83.35C76.09,-82.33 79,-80.55 79,-78 79,-73.82 71.17,-71.69 61.28,-71.63"/>
<polygon fill="#9a32cd" stroke="#9a32cd" points="70.89,-79.91 61.28,-84.37 71.58,-86.87 70.89,-79.91"/>
<text text-anchor="middle" x="91.5" y="-81" font-family="Helvetica,sans-Serif" font-size="10.00"> prev</text>
<text text-anchor="middle" x="91.5" y="-70" font-family="Helvetica,sans-Serif" font-size="10.00">next</text>
</g>
</g>
</svg>
