<?xml version="1.0" encoding="UTF-8" standalone="no"?>
<!DOCTYPE svg PUBLIC "-//W3C//DTD SVG 1.1//EN"
 "http://www.w3.org/Graphics/SVG/1.1/DTD/svg11.dtd">
<!-- Generated by graphviz version 2.43.0 (0)
 -->
<!-- Title: GS_TRIANGLE_FT3_P Pages: 1 -->
<svg width="348pt" height="184pt"
 viewBox="0.00 0.00 347.50 184.00" xmlns="http://www.w3.org/2000/svg" xmlns:xlink="http://www.w3.org/1999/xlink">
<g id="graph0" class="graph" transform="scale(1 1) rotate(0) translate(4 180)">
<title>GS_TRIANGLE_FT3_P</title>
<polygon fill="white" stroke="transparent" points="-4,4 -4,-180 343.5,-180 343.5,4 -4,4"/>
<!-- Node1 -->
<g id="node1" class="node">
<title>Node1</title>
<g id="a_node1"><a xlink:title=" ">
<polygon fill="#bfbfbf" stroke="black" points="106,-0.5 106,-19.5 224,-19.5 224,-0.5 106,-0.5"/>
<text text-anchor="middle" x="165" y="-7.5" font-family="Helvetica,sans-Serif" font-size="10.00">GS_TRIANGLE_FT3_P</text>
</a>
</g>
</g>
<!-- Node2 -->
<g id="node2" class="node">
<title>Node2</title>
<g id="a_node2"><a xlink:href="libgs_8h.html#struct_g_s___r___p_r_i_m" target="_top" xlink:title=" ">
<polygon fill="white" stroke="black" points="0,-89.5 0,-108.5 72,-108.5 72,-89.5 0,-89.5"/>
<text text-anchor="middle" x="36" y="-96.5" font-family="Helvetica,sans-Serif" font-size="10.00">GS_R_PRIM</text>
</a>
</g>
</g>
<!-- Node2&#45;&gt;Node1 -->
<g id="edge1" class="edge">
<title>Node2&#45;&gt;Node1</title>
<path fill="none" stroke="#9a32cd" stroke-dasharray="5,2" d="M51.63,-82.02C64.95,-69 85.07,-50.76 105,-38 116.55,-30.61 130.45,-24.22 141.97,-19.51"/>
<polygon fill="#9a32cd" stroke="#9a32cd" points="48.88,-79.81 44.27,-89.35 53.82,-84.77 48.88,-79.81"/>
<text text-anchor="middle" x="118" y="-52" font-family="Helvetica,sans-Serif" font-size="10.00"> prim</text>
</g>
<!-- Node3 -->
<g id="node3" class="node">
<title>Node3</title>
<g id="a_node3"><a xlink:href="libgs_8h.html#struct_g_s___p_r_i_m" target="_top" xlink:title=" ">
<polygon fill="white" stroke="black" points="6,-156.5 6,-175.5 66,-175.5 66,-156.5 6,-156.5"/>
<text text-anchor="middle" x="36" y="-163.5" font-family="Helvetica,sans-Serif" font-size="10.00">GS_PRIM</text>
</a>
</g>
</g>
<!-- Node3&#45;&gt;Node2 -->
<g id="edge2" class="edge">
<title>Node3&#45;&gt;Node2</title>
<path fill="none" stroke="#9a32cd" stroke-dasharray="5,2" d="M36,-146.04C36,-133.67 36,-118.12 36,-108.63"/>
<polygon fill="#9a32cd" stroke="#9a32cd" points="32.5,-146.23 36,-156.23 39.5,-146.23 32.5,-146.23"/>
<text text-anchor="middle" x="48.5" y="-130" font-family="Helvetica,sans-Serif" font-size="10.00"> data</text>
</g>
<!-- Node4 -->
<g id="node4" class="node">
<title>Node4</title>
<g id="a_node4"><a xlink:href="libgs_8h.html#struct_g_s___r___x_y_z" target="_top" xlink:title=" ">
<polygon fill="white" stroke="black" points="90.5,-89.5 90.5,-108.5 157.5,-108.5 157.5,-89.5 90.5,-89.5"/>
<text text-anchor="middle" x="124" y="-96.5" font-family="Helvetica,sans-Serif" font-size="10.00">GS_R_XYZ</text>
</a>
</g>
</g>
<!-- Node4&#45;&gt;Node1 -->
<g id="edge3" class="edge">
<title>Node4&#45;&gt;Node1</title>
<path fill="none" stroke="#9a32cd" stroke-dasharray="5,2" d="M130.78,-79.89C135.48,-67.82 142.11,-51.73 149,-38 152.13,-31.77 156.13,-25.02 159.35,-19.82"/>
<polygon fill="#9a32cd" stroke="#9a32cd" points="127.49,-78.69 127.19,-89.29 134.03,-81.19 127.49,-78.69"/>
<text text-anchor="middle" x="162.5" y="-63" font-family="Helvetica,sans-Serif" font-size="10.00"> xyz0</text>
<text text-anchor="middle" x="162.5" y="-52" font-family="Helvetica,sans-Serif" font-size="10.00">xyz1</text>
<text text-anchor="middle" x="162.5" y="-41" font-family="Helvetica,sans-Serif" font-size="10.00">xyz2</text>
</g>
<!-- Node5 -->
<g id="node5" class="node">
<title>Node5</title>
<g id="a_node5"><a xlink:href="libgs_8h.html#struct_g_s___x_y_z" target="_top" xlink:title=" ">
<polygon fill="white" stroke="black" points="96.5,-156.5 96.5,-175.5 151.5,-175.5 151.5,-156.5 96.5,-156.5"/>
<text text-anchor="middle" x="124" y="-163.5" font-family="Helvetica,sans-Serif" font-size="10.00">GS_XYZ</text>
</a>
</g>
</g>
<!-- Node5&#45;&gt;Node4 -->
<g id="edge4" class="edge">
<title>Node5&#45;&gt;Node4</title>
<path fill="none" stroke="#9a32cd" stroke-dasharray="5,2" d="M124,-146.04C124,-133.67 124,-118.12 124,-108.63"/>
<polygon fill="#9a32cd" stroke="#9a32cd" points="120.5,-146.23 124,-156.23 127.5,-146.23 120.5,-146.23"/>
<text text-anchor="middle" x="136.5" y="-130" font-family="Helvetica,sans-Serif" font-size="10.00"> data</text>
</g>
<!-- Node6 -->
<g id="node6" class="node">
<title>Node6</title>
<g id="a_node6"><a xlink:href="libgs_8h.html#struct_g_s___r___u_v" target="_top" xlink:title=" ">
<polygon fill="white" stroke="black" points="176,-89.5 176,-108.5 238,-108.5 238,-89.5 176,-89.5"/>
<text text-anchor="middle" x="207" y="-96.5" font-family="Helvetica,sans-Serif" font-size="10.00">GS_R_UV</text>
</a>
</g>
</g>
<!-- Node6&#45;&gt;Node1 -->
<g id="edge5" class="edge">
<title>Node6&#45;&gt;Node1</title>
<path fill="none" stroke="#9a32cd" stroke-dasharray="5,2" d="M198.42,-80.23C189.51,-61.77 175.95,-33.67 169.16,-19.62"/>
<polygon fill="#9a32cd" stroke="#9a32cd" points="195.32,-81.86 202.82,-89.34 201.62,-78.81 195.32,-81.86"/>
<text text-anchor="middle" x="205" y="-63" font-family="Helvetica,sans-Serif" font-size="10.00"> uv0</text>
<text text-anchor="middle" x="205" y="-52" font-family="Helvetica,sans-Serif" font-size="10.00">uv1</text>
<text text-anchor="middle" x="205" y="-41" font-family="Helvetica,sans-Serif" font-size="10.00">uv2</text>
</g>
<!-- Node7 -->
<g id="node7" class="node">
<title>Node7</title>
<g id="a_node7"><a xlink:href="libgs_8h.html#struct_g_s___u_v" target="_top" xlink:title=" ">
<polygon fill="white" stroke="black" points="182,-156.5 182,-175.5 232,-175.5 232,-156.5 182,-156.5"/>
<text text-anchor="middle" x="207" y="-163.5" font-family="Helvetica,sans-Serif" font-size="10.00">GS_UV</text>
</a>
</g>
</g>
<!-- Node7&#45;&gt;Node6 -->
<g id="edge6" class="edge">
<title>Node7&#45;&gt;Node6</title>
<path fill="none" stroke="#9a32cd" stroke-dasharray="5,2" d="M207,-146.04C207,-133.67 207,-118.12 207,-108.63"/>
<polygon fill="#9a32cd" stroke="#9a32cd" points="203.5,-146.23 207,-156.23 210.5,-146.23 203.5,-146.23"/>
<text text-anchor="middle" x="219.5" y="-130" font-family="Helvetica,sans-Serif" font-size="10.00"> data</text>
</g>
<!-- Node8 -->
<g id="node8" class="node">
<title>Node8</title>
<g id="a_node8"><a xlink:href="libgs_8h.html#struct_g_s___r___r_g_b_a_q" target="_top" xlink:title=" ">
<polygon fill="white" stroke="black" points="256.5,-89.5 256.5,-108.5 339.5,-108.5 339.5,-89.5 256.5,-89.5"/>
<text text-anchor="middle" x="298" y="-96.5" font-family="Helvetica,sans-Serif" font-size="10.00">GS_R_RGBAQ</text>
</a>
</g>
</g>
<!-- Node8&#45;&gt;Node1 -->
<g id="edge7" class="edge">
<title>Node8&#45;&gt;Node1</title>
<path fill="none" stroke="#9a32cd" stroke-dasharray="5,2" d="M280.21,-82.66C264.86,-69.85 241.79,-51.54 220,-38 208.8,-31.04 195.54,-24.49 184.85,-19.58"/>
<polygon fill="#9a32cd" stroke="#9a32cd" points="277.99,-85.37 287.88,-89.15 282.51,-80.02 277.99,-85.37"/>
<text text-anchor="middle" x="284.5" y="-52" font-family="Helvetica,sans-Serif" font-size="10.00"> rgbaq0</text>
</g>
<!-- Node9 -->
<g id="node9" class="node">
<title>Node9</title>
<g id="a_node9"><a xlink:href="libgs_8h.html#struct_g_s___r_g_b_a_q" target="_top" xlink:title=" ">
<polygon fill="white" stroke="black" points="262.5,-156.5 262.5,-175.5 333.5,-175.5 333.5,-156.5 262.5,-156.5"/>
<text text-anchor="middle" x="298" y="-163.5" font-family="Helvetica,sans-Serif" font-size="10.00">GS_RGBAQ</text>
</a>
</g>
</g>
<!-- Node9&#45;&gt;Node8 -->
<g id="edge8" class="edge">
<title>Node9&#45;&gt;Node8</title>
<path fill="none" stroke="#9a32cd" stroke-dasharray="5,2" d="M298,-146.04C298,-133.67 298,-118.12 298,-108.63"/>
<polygon fill="#9a32cd" stroke="#9a32cd" points="294.5,-146.23 298,-156.23 301.5,-146.23 294.5,-146.23"/>
<text text-anchor="middle" x="310.5" y="-130" font-family="Helvetica,sans-Serif" font-size="10.00"> data</text>
</g>
</g>
</svg>
