<?xml version="1.0" encoding="UTF-8" standalone="no"?>
<!DOCTYPE svg PUBLIC "-//W3C//DTD SVG 1.1//EN"
 "http://www.w3.org/Graphics/SVG/1.1/DTD/svg11.dtd">
<!-- Generated by graphviz version 2.43.0 (0)
 -->
<!-- Title: modload_load_memory_ Pages: 1 -->
<svg width="158pt" height="97pt"
 viewBox="0.00 0.00 157.50 97.00" xmlns="http://www.w3.org/2000/svg" xmlns:xlink="http://www.w3.org/1999/xlink">
<g id="graph0" class="graph" transform="scale(1 1) rotate(0) translate(4 93)">
<title>modload_load_memory_</title>
<polygon fill="white" stroke="transparent" points="-4,4 -4,-93 153.5,-93 153.5,4 -4,4"/>
<!-- Node1 -->
<g id="node1" class="node">
<title>Node1</title>
<g id="a_node1"><a xlink:title=" ">
<polygon fill="#bfbfbf" stroke="black" points="0,-0.5 0,-19.5 137,-19.5 137,-0.5 0,-0.5"/>
<text text-anchor="middle" x="68.5" y="-7.5" font-family="Helvetica,sans-Serif" font-size="10.00">modload_load_memory_</text>
</a>
</g>
</g>
<!-- Node2 -->
<g id="node2" class="node">
<title>Node2</title>
<g id="a_node2"><a xlink:href="structmodload__ll__.html" target="_top" xlink:title=" ">
<polygon fill="white" stroke="black" points="30.5,-68.5 30.5,-87.5 106.5,-87.5 106.5,-68.5 30.5,-68.5"/>
<text text-anchor="middle" x="68.5" y="-75.5" font-family="Helvetica,sans-Serif" font-size="10.00">modload_ll_</text>
</a>
</g>
</g>
<!-- Node2&#45;&gt;Node1 -->
<g id="edge1" class="edge">
<title>Node2&#45;&gt;Node1</title>
<path fill="none" stroke="#9a32cd" stroke-dasharray="5,2" d="M68.5,-58.04C68.5,-45.47 68.5,-29.56 68.5,-19.84"/>
<polygon fill="#9a32cd" stroke="#9a32cd" points="65,-58.37 68.5,-68.37 72,-58.37 65,-58.37"/>
<text text-anchor="middle" x="73.5" y="-41" font-family="Helvetica,sans-Serif" font-size="10.00"> ll</text>
</g>
<!-- Node2&#45;&gt;Node2 -->
<g id="edge2" class="edge">
<title>Node2&#45;&gt;Node2</title>
<path fill="none" stroke="#9a32cd" stroke-dasharray="5,2" d="M116.79,-83.18C121.51,-82.13 124.5,-80.41 124.5,-78 124.5,-74.15 116.83,-72.04 106.71,-71.68"/>
<polygon fill="#9a32cd" stroke="#9a32cd" points="116.26,-79.71 106.71,-84.32 117.04,-86.67 116.26,-79.71"/>
<text text-anchor="middle" x="137" y="-81" font-family="Helvetica,sans-Serif" font-size="10.00"> prev</text>
<text text-anchor="middle" x="137" y="-70" font-family="Helvetica,sans-Serif" font-size="10.00">next</text>
</g>
</g>
</svg>
