<?xml version="1.0" encoding="UTF-8" standalone="no"?>
<!DOCTYPE svg PUBLIC "-//W3C//DTD SVG 1.1//EN"
 "http://www.w3.org/Graphics/SVG/1.1/DTD/svg11.dtd">
<!-- Generated by graphviz version 9.0.0 (20230911.1827)
 -->
<!-- Title: dependancy_t Pages: 1 -->
<svg width="187pt" height="334pt"
 viewBox="0.00 0.00 186.62 333.50" xmlns="http://www.w3.org/2000/svg" xmlns:xlink="http://www.w3.org/1999/xlink">
<g id="graph0" class="graph" transform="scale(1 1) rotate(0) translate(4 329.5)">
<title>dependancy_t</title>
<!-- Node1 -->
<g id="Node000001" class="node">
<title>Node1</title>
<g id="a_Node000001"><a xlink:title=" ">
<polygon fill="#999999" stroke="#666666" points="106,-20.88 30,-20.88 30,-1.62 106,-1.62 106,-20.88"/>
<text text-anchor="middle" x="68" y="-7.38" font-family="Helvetica,sans-Serif" font-size="10.00">dependancy_t</text>
</a>
</g>
</g>
<!-- Node1&#45;&gt;Node1 -->
<g id="edge9_Node000001_Node000001" class="edge">
<title>Node1&#45;&gt;Node1</title>
<g id="a_edge9_Node000001_Node000001"><a xlink:title=" ">
<path fill="none" stroke="#9a32cd" stroke-dasharray="5,2" d="M117.75,-16.99C121.62,-15.72 124,-13.81 124,-11.25 124,-6.7 116.47,-4.2 106.48,-3.73"/>
<polygon fill="#9a32cd" stroke="#9a32cd" points="117.3,-13.51 107.97,-18.53 118.39,-20.43 117.3,-13.51"/>
</a>
</g>
<text text-anchor="middle" x="134.12" y="-13" font-family="Helvetica,sans-Serif" font-size="10.00" fill="grey"> next</text>
<text text-anchor="middle" x="134.12" y="-1.75" font-family="Helvetica,sans-Serif" font-size="10.00" fill="grey">prev</text>
</g>
<!-- Node2 -->
<g id="Node000002" class="node">
<title>Node2</title>
<g id="a_Node000002"><a xlink:href="erl_8h.html#structerl__record__t" target="_top" xlink:title=" ">
<polygon fill="white" stroke="#bfbfbf" points="101.5,-101.88 34.5,-101.88 34.5,-82.62 101.5,-82.62 101.5,-101.88"/>
<text text-anchor="middle" x="68" y="-88.38" font-family="Helvetica,sans-Serif" font-size="10.00">erl_record_t</text>
</a>
</g>
</g>
<!-- Node2&#45;&gt;Node1 -->
<g id="edge1_Node000001_Node000002" class="edge">
<title>Node2&#45;&gt;Node1</title>
<g id="a_edge1_Node000001_Node000002"><a xlink:title=" ">
<path fill="none" stroke="#9a32cd" stroke-dasharray="5,2" d="M68,-70.79C68,-54.74 68,-33.17 68,-21.21"/>
<polygon fill="#9a32cd" stroke="#9a32cd" points="64.5,-70.67 68,-80.67 71.5,-70.67 64.5,-70.67"/>
</a>
</g>
<text text-anchor="middle" x="89" y="-53.5" font-family="Helvetica,sans-Serif" font-size="10.00" fill="grey"> depender</text>
<text text-anchor="middle" x="89" y="-42.25" font-family="Helvetica,sans-Serif" font-size="10.00" fill="grey">provider</text>
</g>
<!-- Node2&#45;&gt;Node2 -->
<g id="edge8_Node000002_Node000002" class="edge">
<title>Node2&#45;&gt;Node2</title>
<g id="a_edge8_Node000002_Node000002"><a xlink:title=" ">
<path fill="none" stroke="#9a32cd" stroke-dasharray="5,2" d="M113.09,-97.38C117.03,-96.3 119.5,-94.59 119.5,-92.25 119.5,-88.09 111.7,-85.92 101.68,-85.73"/>
<polygon fill="#9a32cd" stroke="#9a32cd" points="112.69,-93.91 103.18,-98.59 113.53,-100.85 112.69,-93.91"/>
</a>
</g>
<text text-anchor="middle" x="129.62" y="-94" font-family="Helvetica,sans-Serif" font-size="10.00" fill="grey"> next</text>
<text text-anchor="middle" x="129.62" y="-82.75" font-family="Helvetica,sans-Serif" font-size="10.00" fill="grey">prev</text>
</g>
<!-- Node3 -->
<g id="Node000003" class="node">
<title>Node3</title>
<g id="a_Node000003"><a xlink:href="structhtab.html" target="_top" xlink:title=" ">
<polygon fill="white" stroke="#bfbfbf" points="85.38,-170 50.62,-170 50.62,-150.75 85.38,-150.75 85.38,-170"/>
<text text-anchor="middle" x="68" y="-156.5" font-family="Helvetica,sans-Serif" font-size="10.00">htab</text>
</a>
</g>
</g>
<!-- Node3&#45;&gt;Node2 -->
<g id="edge2_Node000002_Node000003" class="edge">
<title>Node3&#45;&gt;Node2</title>
<g id="a_edge2_Node000002_Node000003"><a xlink:title=" ">
<path fill="none" stroke="#9a32cd" stroke-dasharray="5,2" d="M68,-139.31C68,-126.86 68,-111.49 68,-102.03"/>
<polygon fill="#9a32cd" stroke="#9a32cd" points="64.5,-138.94 68,-148.94 71.5,-138.94 64.5,-138.94"/>
</a>
</g>
<text text-anchor="middle" x="87.12" y="-123.25" font-family="Helvetica,sans-Serif" font-size="10.00" fill="grey"> symbols</text>
</g>
<!-- Node4 -->
<g id="Node000004" class="node">
<title>Node4</title>
<g id="a_Node000004"><a xlink:href="structhitem.html" target="_top" xlink:title=" ">
<polygon fill="white" stroke="#bfbfbf" points="40,-247.75 0,-247.75 0,-228.5 40,-228.5 40,-247.75"/>
<text text-anchor="middle" x="20" y="-234.25" font-family="Helvetica,sans-Serif" font-size="10.00">hitem</text>
</a>
</g>
</g>
<!-- Node4&#45;&gt;Node3 -->
<g id="edge3_Node000003_Node000004" class="edge">
<title>Node4&#45;&gt;Node3</title>
<g id="a_edge3_Node000003_Node000004"><a xlink:title=" ">
<path fill="none" stroke="#9a32cd" stroke-dasharray="5,2" d="M31.71,-218.64C41.42,-203.31 54.81,-182.19 62.31,-170.35"/>
<polygon fill="#9a32cd" stroke="#9a32cd" points="28.9,-216.54 26.5,-226.86 34.81,-220.29 28.9,-216.54"/>
</a>
</g>
<text text-anchor="middle" x="62.5" y="-201" font-family="Helvetica,sans-Serif" font-size="10.00" fill="grey"> ipos</text>
<text text-anchor="middle" x="62.5" y="-189.75" font-family="Helvetica,sans-Serif" font-size="10.00" fill="grey">table</text>
</g>
<!-- Node4&#45;&gt;Node4 -->
<g id="edge4_Node000004_Node000004" class="edge">
<title>Node4&#45;&gt;Node4</title>
<g id="a_edge4_Node000004_Node000004"><a xlink:title=" ">
<path fill="none" stroke="#9a32cd" stroke-dasharray="5,2" d="M51.76,-244.38C55.54,-243.24 58,-241.16 58,-238.12 58,-232.58 49.76,-230.2 40.33,-230.98"/>
<polygon fill="#9a32cd" stroke="#9a32cd" points="51.54,-240.89 41.84,-245.15 52.08,-247.87 51.54,-240.89"/>
</a>
</g>
<text text-anchor="middle" x="68.12" y="-234.25" font-family="Helvetica,sans-Serif" font-size="10.00" fill="grey"> next</text>
</g>
<!-- Node5 -->
<g id="Node000005" class="node">
<title>Node5</title>
<g id="a_Node000005"><a xlink:href="structreroot.html" target="_top" xlink:title=" ">
<polygon fill="white" stroke="#bfbfbf" points="137.38,-247.75 96.62,-247.75 96.62,-228.5 137.38,-228.5 137.38,-247.75"/>
<text text-anchor="middle" x="117" y="-234.25" font-family="Helvetica,sans-Serif" font-size="10.00">reroot</text>
</a>
</g>
</g>
<!-- Node5&#45;&gt;Node3 -->
<g id="edge5_Node000003_Node000005" class="edge">
<title>Node5&#45;&gt;Node3</title>
<g id="a_edge5_Node000003_Node000005"><a xlink:title=" ">
<path fill="none" stroke="#9a32cd" stroke-dasharray="5,2" d="M105.04,-218.64C95.13,-203.31 81.46,-182.19 73.81,-170.35"/>
<polygon fill="#9a32cd" stroke="#9a32cd" points="101.99,-220.37 110.36,-226.87 107.87,-216.57 101.99,-220.37"/>
</a>
</g>
<text text-anchor="middle" x="113.25" y="-195.38" font-family="Helvetica,sans-Serif" font-size="10.00" fill="grey"> space</text>
</g>
<!-- Node6 -->
<g id="Node000006" class="node">
<title>Node6</title>
<g id="a_Node000006"><a xlink:href="structrecycle.html" target="_top" xlink:title=" ">
<polygon fill="white" stroke="#bfbfbf" points="140.38,-325.5 93.62,-325.5 93.62,-306.25 140.38,-306.25 140.38,-325.5"/>
<text text-anchor="middle" x="117" y="-312" font-family="Helvetica,sans-Serif" font-size="10.00">recycle</text>
</a>
</g>
</g>
<!-- Node6&#45;&gt;Node5 -->
<g id="edge6_Node000005_Node000006" class="edge">
<title>Node6&#45;&gt;Node5</title>
<g id="a_edge6_Node000005_Node000006"><a xlink:title=" ">
<path fill="none" stroke="#9a32cd" stroke-dasharray="5,2" d="M117,-294.6C117,-279.45 117,-259.48 117,-248.1"/>
<polygon fill="#9a32cd" stroke="#9a32cd" points="113.5,-294.37 117,-304.37 120.5,-294.37 113.5,-294.37"/>
</a>
</g>
<text text-anchor="middle" x="127.88" y="-278.75" font-family="Helvetica,sans-Serif" font-size="10.00" fill="grey"> list</text>
<text text-anchor="middle" x="127.88" y="-267.5" font-family="Helvetica,sans-Serif" font-size="10.00" fill="grey">trash</text>
</g>
<!-- Node6&#45;&gt;Node6 -->
<g id="edge7_Node000006_Node000006" class="edge">
<title>Node6&#45;&gt;Node6</title>
<g id="a_edge7_Node000006_Node000006"><a xlink:title=" ">
<path fill="none" stroke="#9a32cd" stroke-dasharray="5,2" d="M152.24,-321.94C155.98,-320.76 158.38,-318.74 158.38,-315.88 158.38,-310.64 150.36,-308.22 140.81,-308.63"/>
<polygon fill="#9a32cd" stroke="#9a32cd" points="151.9,-318.45 142.32,-322.96 152.62,-325.42 151.9,-318.45"/>
</a>
</g>
<text text-anchor="middle" x="168.5" y="-312" font-family="Helvetica,sans-Serif" font-size="10.00" fill="grey"> next</text>
</g>
</g>
</svg>
