<?xml version="1.0" encoding="UTF-8" standalone="no"?>
<!DOCTYPE svg PUBLIC "-//W3C//DTD SVG 1.1//EN"
 "http://www.w3.org/Graphics/SVG/1.1/DTD/svg11.dtd">
<!-- Generated by graphviz version 2.43.0 (0)
 -->
<!-- Title: msif_msgbox_msg Pages: 1 -->
<!--zoomable 387 -->
<svg id="main" version="1.1" xmlns="http://www.w3.org/2000/svg" xmlns:xlink="http://www.w3.org/1999/xlink" xml:space="preserve" onload="init(evt)">
<style type="text/css"><![CDATA[
.edge:hover path { stroke: red; }
.edge:hover polygon { stroke: red; fill: red; }
]]></style>
<script type="text/javascript"><![CDATA[
var edges = document.getElementsByTagName('g');
if (edges && edges.length) {
  for (var i=0;i<edges.length;i++) {
    if (edges[i].id.substr(0,4)=='edge') {
      edges[i].setAttribute('class','edge');
    }
  }
}
]]></script>
        <defs>
                <circle id="rim" cx="0" cy="0" r="7"/>
                <circle id="rim2" cx="0" cy="0" r="3.5"/>
                <g id="zoomPlus">
                        <use xlink:href="#rim" fill="#404040">
                                <set attributeName="fill" to="#808080" begin="zoomplus.mouseover" end="zoomplus.mouseout"/>
                        </use>
                        <path d="M-4,0h8M0,-4v8" fill="none" stroke="white" stroke-width="1.5" pointer-events="none"/>
                </g>
                <g id="zoomMin">
                        <use xlink:href="#rim" fill="#404040">
                                <set attributeName="fill" to="#808080" begin="zoomminus.mouseover" end="zoomminus.mouseout"/>
                        </use>
                        <path d="M-4,0h8" fill="none" stroke="white" stroke-width="1.5" pointer-events="none"/>
                </g>
                <g id="dirArrow">
                        <path fill="none" stroke="white" stroke-width="1.5" d="M0,-3.0v7 M-2.5,-0.5L0,-3.0L2.5,-0.5"/>
                </g>
               <g id="resetDef">
                       <use xlink:href="#rim2" fill="#404040">
                               <set attributeName="fill" to="#808080" begin="reset.mouseover" end="reset.mouseout"/>
                       </use>
               </g>
        </defs>

<script type="text/javascript">
var viewWidth = 516;
var viewHeight = 387;
var sectionId = 'dynsection-0';
</script>
<script xlink:href="svgpan.js"/>
<svg id="graph" class="graph">
<g id="viewport">
<title>msif_msgbox_msg</title>
<polygon fill="white" stroke="transparent" points="-4,4 -4,-383 511.5,-383 511.5,4 -4,4"/>
<!-- Node1 -->
<g id="node1" class="node">
<title>Node1</title>
<g id="a_node1"><a xlink:title=" ">
<polygon fill="#bfbfbf" stroke="black" points="225.5,-0.5 225.5,-19.5 334.5,-19.5 334.5,-0.5 225.5,-0.5"/>
<text text-anchor="middle" x="280" y="-7.5" font-family="Helvetica,sans-Serif" font-size="10.00">msif_msgbox_msg</text>
</a>
</g>
</g>
<!-- Node2 -->
<g id="node2" class="node">
<title>Node2</title>
<g id="a_node2"><a xlink:href="structmsif__msgbox__msg2.html" target="_top" xlink:title=" ">
<polygon fill="white" stroke="black" points="222.5,-67.5 222.5,-86.5 337.5,-86.5 337.5,-67.5 222.5,-67.5"/>
<text text-anchor="middle" x="280" y="-74.5" font-family="Helvetica,sans-Serif" font-size="10.00">msif_msgbox_msg2</text>
</a>
</g>
</g>
<!-- Node2&#45;&gt;Node1 -->
<g id="edge1" class="edge">
<title>Node2&#45;&gt;Node1</title>
<path fill="none" stroke="#9a32cd" stroke-dasharray="5,2" d="M280,-57.04C280,-44.67 280,-29.12 280,-19.63"/>
<polygon fill="#9a32cd" stroke="#9a32cd" points="276.5,-57.23 280,-67.23 283.5,-57.23 276.5,-57.23"/>
<text text-anchor="middle" x="303" y="-41" font-family="Helvetica,sans-Serif" font-size="10.00"> m_msg2</text>
</g>
<!-- Node3 -->
<g id="node3" class="node">
<title>Node3</title>
<g id="a_node3"><a xlink:href="structmsif__data.html" target="_top" xlink:title=" ">
<polygon fill="white" stroke="black" points="164.5,-134.5 164.5,-153.5 229.5,-153.5 229.5,-134.5 164.5,-134.5"/>
<text text-anchor="middle" x="197" y="-141.5" font-family="Helvetica,sans-Serif" font-size="10.00">msif_data</text>
</a>
</g>
</g>
<!-- Node3&#45;&gt;Node2 -->
<g id="edge2" class="edge">
<title>Node3&#45;&gt;Node2</title>
<path fill="none" stroke="#9a32cd" stroke-dasharray="5,2" d="M213.36,-127.64C221.21,-120.51 230.88,-112.06 240,-105 248.48,-98.44 258.48,-91.69 266.36,-86.58"/>
<polygon fill="#9a32cd" stroke="#9a32cd" points="210.91,-125.14 205.93,-134.49 215.66,-130.29 210.91,-125.14"/>
<text text-anchor="middle" x="273.5" y="-108" font-family="Helvetica,sans-Serif" font-size="10.00"> m_msif_data</text>
</g>
<!-- Node4 -->
<g id="node4" class="node">
<title>Node4</title>
<g id="a_node4"><a xlink:href="struct__sifm__serve__entry.html" target="_top" xlink:title=" ">
<polygon fill="white" stroke="black" points="76.5,-359.5 76.5,-378.5 183.5,-378.5 183.5,-359.5 76.5,-359.5"/>
<text text-anchor="middle" x="130" y="-366.5" font-family="Helvetica,sans-Serif" font-size="10.00">_sifm_serve_entry</text>
</a>
</g>
</g>
<!-- Node4&#45;&gt;Node2 -->
<g id="edge15" class="edge">
<title>Node4&#45;&gt;Node2</title>
<path fill="none" stroke="#9a32cd" stroke-dasharray="5,2" d="M66.21,-359.61C33.31,-351.31 0,-334.8 0,-302 0,-302 0,-302 0,-143 0,-97.77 140.36,-84.01 222.32,-79.82"/>
<polygon fill="#9a32cd" stroke="#9a32cd" points="65.84,-363.11 76.37,-361.93 67.4,-356.29 65.84,-363.11"/>
<text text-anchor="middle" x="43" y="-208.5" font-family="Helvetica,sans-Serif" font-size="10.00"> m_mserve_entry</text>
</g>
<!-- Node4&#45;&gt;Node3 -->
<g id="edge3" class="edge">
<title>Node4&#45;&gt;Node3</title>
<path fill="none" stroke="#9a32cd" stroke-dasharray="5,2" d="M122.94,-350.01C114.05,-324.79 101.2,-277.69 112,-239 122.94,-199.79 162.46,-168.16 183.54,-153.63"/>
<polygon fill="#9a32cd" stroke="#9a32cd" points="119.66,-351.23 126.42,-359.39 126.22,-348.79 119.66,-351.23"/>
<text text-anchor="middle" x="160" y="-253" font-family="Helvetica,sans-Serif" font-size="10.00"> g_mserv_entries_ll</text>
</g>
<!-- Node4&#45;&gt;Node4 -->
<g id="edge4" class="edge">
<title>Node4&#45;&gt;Node4</title>
<path fill="none" stroke="#9a32cd" stroke-dasharray="5,2" d="M193.88,-373.46C198.6,-372.46 201.5,-370.97 201.5,-369 201.5,-365.84 194.08,-363.93 183.63,-363.27"/>
<polygon fill="#9a32cd" stroke="#9a32cd" points="193.12,-370.03 183.63,-374.73 193.99,-376.97 193.12,-370.03"/>
<text text-anchor="middle" x="214" y="-366.5" font-family="Helvetica,sans-Serif" font-size="10.00"> next</text>
</g>
<!-- Node5 -->
<g id="node5" class="node">
<title>Node5</title>
<g id="a_node5"><a xlink:href="struct__sifm__serve__data.html" target="_top" xlink:title=" ">
<polygon fill="white" stroke="black" points="227.5,-291.5 227.5,-310.5 330.5,-310.5 330.5,-291.5 227.5,-291.5"/>
<text text-anchor="middle" x="279" y="-298.5" font-family="Helvetica,sans-Serif" font-size="10.00">_sifm_serve_data</text>
</a>
</g>
</g>
<!-- Node4&#45;&gt;Node5 -->
<g id="edge6" class="edge">
<title>Node4&#45;&gt;Node5</title>
<path fill="none" stroke="#9a32cd" stroke-dasharray="5,2" d="M148.12,-352.99C158.18,-345.25 171.23,-336.17 184,-330 201.5,-321.55 222.06,-315.1 239.57,-310.54"/>
<polygon fill="#9a32cd" stroke="#9a32cd" points="145.78,-350.38 140.12,-359.34 150.13,-355.87 145.78,-350.38"/>
<text text-anchor="middle" x="201" y="-333" font-family="Helvetica,sans-Serif" font-size="10.00"> sentry</text>
</g>
<!-- Node5&#45;&gt;Node2 -->
<g id="edge17" class="edge">
<title>Node5&#45;&gt;Node2</title>
<path fill="none" stroke="#9a32cd" stroke-dasharray="5,2" d="M297.28,-284.22C300.42,-280.55 303.23,-276.42 305,-272 330.76,-207.62 306.56,-185.34 307,-116 307.03,-111.11 308.87,-109.52 307,-105 303.96,-97.65 297.83,-91.26 292.19,-86.54"/>
<polygon fill="#9a32cd" stroke="#9a32cd" points="294.7,-281.86 290.17,-291.44 299.68,-286.77 294.7,-281.86"/>
<text text-anchor="middle" x="329" y="-175" font-family="Helvetica,sans-Serif" font-size="10.00"> m_sd</text>
</g>
<!-- Node5&#45;&gt;Node4 -->
<g id="edge5" class="edge">
<title>Node5&#45;&gt;Node4</title>
<path fill="none" stroke="#9a32cd" stroke-dasharray="5,2" d="M260.54,-316.84C249.8,-324.89 235.71,-334.5 222,-341 205.3,-348.92 185.79,-355.04 169.04,-359.45"/>
<polygon fill="#9a32cd" stroke="#9a32cd" points="262.91,-319.43 268.69,-310.55 258.63,-313.89 262.91,-319.43"/>
<text text-anchor="middle" x="266.5" y="-333" font-family="Helvetica,sans-Serif" font-size="10.00"> serve_list</text>
</g>
<!-- Node5&#45;&gt;Node5 -->
<g id="edge10" class="edge">
<title>Node5&#45;&gt;Node5</title>
<path fill="none" stroke="#9a32cd" stroke-dasharray="5,2" d="M340.46,-305.88C345.42,-304.82 348.5,-303.19 348.5,-301 348.5,-297.58 341,-295.54 330.53,-294.87"/>
<polygon fill="#9a32cd" stroke="#9a32cd" points="340.01,-302.41 330.53,-307.13 340.88,-309.35 340.01,-302.41"/>
<text text-anchor="middle" x="361" y="-304" font-family="Helvetica,sans-Serif" font-size="10.00"> next</text>
<text text-anchor="middle" x="361" y="-293" font-family="Helvetica,sans-Serif" font-size="10.00">link</text>
</g>
<!-- Node6 -->
<g id="node6" class="node">
<title>Node6</title>
<g id="a_node6"><a xlink:href="struct__sifm__client__data.html" target="_top" xlink:title=" ">
<polygon fill="white" stroke="black" points="353.5,-201.5 353.5,-220.5 456.5,-220.5 456.5,-201.5 353.5,-201.5"/>
<text text-anchor="middle" x="405" y="-208.5" font-family="Helvetica,sans-Serif" font-size="10.00">_sifm_client_data</text>
</a>
</g>
</g>
<!-- Node5&#45;&gt;Node6 -->
<g id="edge8" class="edge">
<title>Node5&#45;&gt;Node6</title>
<path fill="none" stroke="#9a32cd" stroke-dasharray="5,2" d="M310.97,-286.82C318.42,-282.79 325.94,-277.84 332,-272 344.18,-260.25 338.69,-250.61 351,-239 359.39,-231.09 370.54,-224.99 380.53,-220.61"/>
<polygon fill="#9a32cd" stroke="#9a32cd" points="309.08,-283.85 301.68,-291.43 312.2,-290.12 309.08,-283.85"/>
<text text-anchor="middle" x="366.5" y="-253" font-family="Helvetica,sans-Serif" font-size="10.00"> serve</text>
</g>
<!-- Node8 -->
<g id="node8" class="node">
<title>Node8</title>
<g id="a_node8"><a xlink:href="struct__sifm__queue__data.html" target="_top" xlink:title=" ">
<polygon fill="white" stroke="black" points="144,-201.5 144,-220.5 250,-220.5 250,-201.5 144,-201.5"/>
<text text-anchor="middle" x="197" y="-208.5" font-family="Helvetica,sans-Serif" font-size="10.00">_sifm_queue_data</text>
</a>
</g>
</g>
<!-- Node5&#45;&gt;Node8 -->
<g id="edge12" class="edge">
<title>Node5&#45;&gt;Node8</title>
<path fill="none" stroke="#9a32cd" stroke-dasharray="5,2" d="M249.1,-286.38C242.3,-282.39 235.48,-277.57 230,-272 226,-267.93 209.44,-236.22 201.41,-220.61"/>
<polygon fill="#9a32cd" stroke="#9a32cd" points="247.75,-289.63 258.22,-291.31 251.08,-283.47 247.75,-289.63"/>
<text text-anchor="middle" x="241.5" y="-264" font-family="Helvetica,sans-Serif" font-size="10.00"> end</text>
<text text-anchor="middle" x="241.5" y="-253" font-family="Helvetica,sans-Serif" font-size="10.00">link</text>
<text text-anchor="middle" x="241.5" y="-242" font-family="Helvetica,sans-Serif" font-size="10.00">start</text>
</g>
<!-- Node6&#45;&gt;Node2 -->
<g id="edge16" class="edge">
<title>Node6&#45;&gt;Node2</title>
<path fill="none" stroke="#9a32cd" stroke-dasharray="5,2" d="M396.77,-192.09C385.56,-169.35 363.58,-130.04 335,-105 326.04,-97.15 314.39,-91 304.12,-86.56"/>
<polygon fill="#9a32cd" stroke="#9a32cd" points="393.68,-193.75 401.15,-201.27 400,-190.74 393.68,-193.75"/>
<text text-anchor="middle" x="405.5" y="-141.5" font-family="Helvetica,sans-Serif" font-size="10.00"> m_eebuf_cd</text>
</g>
<!-- Node6&#45;&gt;Node5 -->
<g id="edge7" class="edge">
<title>Node6&#45;&gt;Node5</title>
<path fill="none" stroke="#9a32cd" stroke-dasharray="5,2" d="M403.75,-230.69C401.87,-243.97 397.26,-261.3 386,-272 371.18,-286.09 350.17,-293.3 330.69,-296.92"/>
<polygon fill="#9a32cd" stroke="#9a32cd" points="407.24,-231.01 404.77,-220.71 400.27,-230.3 407.24,-231.01"/>
<text text-anchor="middle" x="417.5" y="-253" font-family="Helvetica,sans-Serif" font-size="10.00"> client</text>
</g>
<!-- Node7 -->
<g id="node7" class="node">
<title>Node7</title>
<g id="a_node7"><a xlink:href="struct__sifm__rpc__data.html" target="_top" xlink:title=" ">
<polygon fill="white" stroke="black" points="416.5,-291.5 416.5,-310.5 507.5,-310.5 507.5,-291.5 416.5,-291.5"/>
<text text-anchor="middle" x="462" y="-298.5" font-family="Helvetica,sans-Serif" font-size="10.00">_sifm_rpc_data</text>
</a>
</g>
</g>
<!-- Node7&#45;&gt;Node6 -->
<g id="edge9" class="edge">
<title>Node7&#45;&gt;Node6</title>
<path fill="none" stroke="#9a32cd" stroke-dasharray="5,2" d="M458.21,-281.41C454.93,-268.6 449.23,-251.67 440,-239 434.67,-231.68 426.81,-225.37 419.9,-220.7"/>
<polygon fill="#9a32cd" stroke="#9a32cd" points="454.85,-282.43 460.49,-291.39 461.67,-280.86 454.85,-282.43"/>
<text text-anchor="middle" x="467.5" y="-253" font-family="Helvetica,sans-Serif" font-size="10.00"> rpcd</text>
</g>
<!-- Node8&#45;&gt;Node3 -->
<g id="edge14" class="edge">
<title>Node8&#45;&gt;Node3</title>
<path fill="none" stroke="#9a32cd" stroke-dasharray="5,2" d="M197,-191.04C197,-178.67 197,-163.12 197,-153.63"/>
<polygon fill="#9a32cd" stroke="#9a32cd" points="193.5,-191.23 197,-201.23 200.5,-191.23 193.5,-191.23"/>
<text text-anchor="middle" x="239" y="-175" font-family="Helvetica,sans-Serif" font-size="10.00"> m_active_queue</text>
</g>
<!-- Node8&#45;&gt;Node5 -->
<g id="edge11" class="edge">
<title>Node8&#45;&gt;Node5</title>
<path fill="none" stroke="#9a32cd" stroke-dasharray="5,2" d="M237.29,-224.71C244.56,-228.41 251.54,-233.11 257,-239 270.92,-254.03 276.17,-278.52 278.04,-291.42"/>
<polygon fill="#9a32cd" stroke="#9a32cd" points="238.59,-221.45 228.04,-220.52 235.71,-227.83 238.59,-221.45"/>
<text text-anchor="middle" x="287.5" y="-253" font-family="Helvetica,sans-Serif" font-size="10.00"> base</text>
</g>
<!-- Node8&#45;&gt;Node8 -->
<g id="edge13" class="edge">
<title>Node8&#45;&gt;Node8</title>
<path fill="none" stroke="#9a32cd" stroke-dasharray="5,2" d="M260.43,-215.46C265.12,-214.46 268,-212.97 268,-211 268,-207.84 260.63,-205.93 250.26,-205.27"/>
<polygon fill="#9a32cd" stroke="#9a32cd" points="259.74,-212.02 250.26,-216.73 260.61,-218.96 259.74,-212.02"/>
<text text-anchor="middle" x="280.5" y="-208.5" font-family="Helvetica,sans-Serif" font-size="10.00"> next</text>
</g>
</g>
</svg>
        <g id="navigator" transform="translate(0 0)" fill="#404254">
                <rect fill="#f2f5e9" fill-opacity="0.5" stroke="#606060" stroke-width=".5" x="0" y="0" width="60" height="60"/>
                <use id="zoomplus" xlink:href="#zoomPlus" x="17" y="9" onmousedown="handleZoom(evt,'in')"/>
                <use id="zoomminus" xlink:href="#zoomMin" x="42" y="9" onmousedown="handleZoom(evt,'out')"/>
                <use id="reset" xlink:href="#resetDef" x="30" y="36" onmousedown="handleReset()"/>
                <g id="arrowUp" xlink:href="#dirArrow" transform="translate(30 24)" onmousedown="handlePan(0,-1)">
                  <use xlink:href="#rim" fill="#404040">
                        <set attributeName="fill" to="#808080" begin="arrowUp.mouseover" end="arrowUp.mouseout"/>
                  </use>
                  <path fill="none" stroke="white" stroke-width="1.5" d="M0,-3.0v7 M-2.5,-0.5L0,-3.0L2.5,-0.5"/>
                </g>
                <g id="arrowRight" xlink:href="#dirArrow" transform="rotate(90) translate(36 -43)" onmousedown="handlePan(1,0)">
                  <use xlink:href="#rim" fill="#404040">
                        <set attributeName="fill" to="#808080" begin="arrowRight.mouseover" end="arrowRight.mouseout"/>
                  </use>
                  <path fill="none" stroke="white" stroke-width="1.5" d="M0,-3.0v7 M-2.5,-0.5L0,-3.0L2.5,-0.5"/>
                </g>
                <g id="arrowDown" xlink:href="#dirArrow" transform="rotate(180) translate(-30 -48)" onmousedown="handlePan(0,1)">
                  <use xlink:href="#rim" fill="#404040">
                        <set attributeName="fill" to="#808080" begin="arrowDown.mouseover" end="arrowDown.mouseout"/>
                  </use>
                  <path fill="none" stroke="white" stroke-width="1.5" d="M0,-3.0v7 M-2.5,-0.5L0,-3.0L2.5,-0.5"/>
                </g>
                <g id="arrowLeft" xlink:href="#dirArrow" transform="rotate(270) translate(-36 17)" onmousedown="handlePan(-1,0)">
                  <use xlink:href="#rim" fill="#404040">
                        <set attributeName="fill" to="#808080" begin="arrowLeft.mouseover" end="arrowLeft.mouseout"/>
                  </use>
                  <path fill="none" stroke="white" stroke-width="1.5" d="M0,-3.0v7 M-2.5,-0.5L0,-3.0L2.5,-0.5"/>
                </g>
        </g>
        <svg viewBox="0 0 15 15" width="100%" height="30px" preserveAspectRatio="xMaxYMin meet">
         <g id="arrow_out" transform="scale(0.3 0.3)">
          <a xlink:href="structmsif__msgbox__msg__coll__graph_org.svg" target="_base">
           <rect id="button" ry="5" rx="5" y="6" x="6" height="38" width="38"
                fill="#f2f5e9" fill-opacity="0.5" stroke="#606060" stroke-width="1.0"/>
           <path id="arrow"
             d="M 11.500037,31.436501 C 11.940474,20.09759 22.043105,11.32322 32.158766,21.979434 L 37.068811,17.246167 C 37.068811,17.246167 37.088388,32 37.088388,32 L 22.160133,31.978069 C 22.160133,31.978069 26.997745,27.140456 26.997745,27.140456 C 18.528582,18.264221 13.291696,25.230495 11.500037,31.436501 z"
             style="fill:#404040;"/>
          </a>
         </g>
        </svg>
</svg>
