<?xml version="1.0" encoding="UTF-8" standalone="no"?>
<!DOCTYPE svg PUBLIC "-//W3C//DTD SVG 1.1//EN"
 "http://www.w3.org/Graphics/SVG/1.1/DTD/svg11.dtd">
<!-- Generated by graphviz version 9.0.0 (20230911.1827)
 -->
<!-- Title: __descriptormap_type Pages: 1 -->
<svg width="318pt" height="161pt"
 viewBox="0.00 0.00 318.12 161.25" xmlns="http://www.w3.org/2000/svg" xmlns:xlink="http://www.w3.org/1999/xlink">

<svg id="main" version="1.1" xmlns="http://www.w3.org/2000/svg" xmlns:xlink="http://www.w3.org/1999/xlink" xml:space="preserve" onload="init(evt)">
<style type="text/css"><![CDATA[
.node, .edge {opacity: 0.7;}
.node.selected, .edge.selected {opacity: 1;}
.edge:hover path { stroke: red; }
.edge:hover polygon { stroke: red; fill: red; }
]]></style>
<script type="application/ecmascript" xlink:href="svg.min.js"/>
<svg id="graph" class="graph">
<g id="graph0" class="graph" transform="scale(1 1) rotate(0) translate(4 157.25)">
<title>__descriptormap_type</title>
<!-- Node1 -->
<g id="Node000001" class="node">
<title>Node1</title>
<g id="a_Node000001"><a xlink:title=" ">
<polygon fill="#999999" stroke="#666666" points="111.25,-19.25 0,-19.25 0,0 111.25,0 111.25,-19.25"/>
<text text-anchor="middle" x="55.62" y="-5.75" font-family="Helvetica,sans-Serif" font-size="10.00">__descriptormap_type</text>
</a>
</g>
</g>
<!-- Node2 -->
<g id="Node000002" class="node">
<title>Node2</title>
<g id="a_Node000002"><a xlink:href="struct__libcglue__fdman__fd__info__.html" target="_top" xlink:title=" ">
<polygon fill="white" stroke="#bfbfbf" points="146.62,-153.25 46.62,-153.25 46.62,-122.75 146.62,-122.75 146.62,-153.25"/>
<text text-anchor="start" x="54.62" y="-139.75" font-family="Helvetica,sans-Serif" font-size="10.00">_libcglue_fdman_fd</text>
<text text-anchor="middle" x="96.62" y="-128.5" font-family="Helvetica,sans-Serif" font-size="10.00">_info_</text>
</a>
</g>
</g>
<!-- Node2&#45;&gt;Node1 -->
<g id="edge1_Node000001_Node000002" class="edge">
<title>Node2&#45;&gt;Node1</title>
<g id="a_edge1_Node000001_Node000002"><a xlink:title=" ">
<path fill="none" stroke="#9a32cd" stroke-dasharray="5,2" d="M63.35,-114.62C60.68,-111.6 58.35,-108.31 56.62,-104.75 42.79,-76.22 49.35,-36.88 53.34,-19.49"/>
<polygon fill="#9a32cd" stroke="#9a32cd" points="60.78,-117.01 70.46,-121.32 65.58,-111.91 60.78,-117.01"/>
</a>
</g>
<text text-anchor="middle" x="65.62" y="-67.12" font-family="Helvetica,sans-Serif" font-size="10.00" fill="grey"> info</text>
</g>
<!-- Node3 -->
<g id="Node000003" class="node">
<title>Node3</title>
<g id="a_Node000003"><a xlink:href="struct__libcglue__fdman__fd__ops__.html" target="_top" xlink:title=" ">
<polygon fill="white" stroke="#bfbfbf" points="255.75,-19.25 129.5,-19.25 129.5,0 255.75,0 255.75,-19.25"/>
<text text-anchor="middle" x="192.62" y="-5.75" font-family="Helvetica,sans-Serif" font-size="10.00">_libcglue_fdman_fd_ops_</text>
</a>
</g>
</g>
<!-- Node2&#45;&gt;Node3 -->
<g id="edge4_Node000003_Node000002" class="edge">
<title>Node2&#45;&gt;Node3</title>
<g id="a_edge4_Node000003_Node000002"><a xlink:title=" ">
<path fill="none" stroke="#9a32cd" stroke-dasharray="5,2" d="M87.86,-111.59C82.03,-89.64 78.06,-58.24 94.12,-37.25 99.81,-29.83 117.53,-24 136.41,-19.72"/>
<polygon fill="#9a32cd" stroke="#9a32cd" points="84.44,-112.36 90.65,-120.94 91.15,-110.36 84.44,-112.36"/>
</a>
</g>
<text text-anchor="middle" x="110.38" y="-67.12" font-family="Helvetica,sans-Serif" font-size="10.00" fill="grey"> accept</text>
</g>
<!-- Node3&#45;&gt;Node2 -->
<g id="edge2_Node000002_Node000003" class="edge">
<title>Node3&#45;&gt;Node2</title>
<g id="a_edge2_Node000002_Node000003"><a xlink:title=" ">
<path fill="none" stroke="#9a32cd" stroke-dasharray="5,2" d="M177.36,-28.38C175.03,-31.29 172.71,-34.32 170.62,-37.25 150.28,-65.85 151.46,-77.27 129.62,-104.75 124.74,-110.9 118.76,-117.06 113.24,-122.33"/>
<polygon fill="#9a32cd" stroke="#9a32cd" points="179.88,-30.82 183.58,-20.89 174.5,-26.35 179.88,-30.82"/>
</a>
</g>
<text text-anchor="middle" x="179.62" y="-67.12" font-family="Helvetica,sans-Serif" font-size="10.00" fill="grey"> ops</text>
</g>
<!-- Node4 -->
<g id="Node000004" class="node">
<title>Node4</title>
<g id="a_Node000004"><a xlink:href="thread_8c.html#structrequest" target="_top" xlink:title=" ">
<polygon fill="white" stroke="#bfbfbf" points="216.75,-147.62 168.5,-147.62 168.5,-128.38 216.75,-128.38 216.75,-147.62"/>
<text text-anchor="middle" x="192.62" y="-134.12" font-family="Helvetica,sans-Serif" font-size="10.00">request</text>
</a>
</g>
</g>
<!-- Node4&#45;&gt;Node3 -->
<g id="edge3_Node000003_Node000004" class="edge">
<title>Node4&#45;&gt;Node3</title>
<g id="a_edge3_Node000003_Node000004"><a xlink:title=" ">
<path fill="none" stroke="#9a32cd" stroke-dasharray="5,2" d="M192.62,-116.77C192.62,-88.87 192.62,-39.77 192.62,-19.63"/>
<polygon fill="#9a32cd" stroke="#9a32cd" points="189.13,-116.4 192.63,-126.4 196.13,-116.4 189.13,-116.4"/>
</a>
</g>
<text text-anchor="middle" x="204.25" y="-72.75" font-family="Helvetica,sans-Serif" font-size="10.00" fill="grey"> ioctl</text>
<text text-anchor="middle" x="204.25" y="-61.5" font-family="Helvetica,sans-Serif" font-size="10.00" fill="grey">ioctl2</text>
</g>
<!-- Node5 -->
<g id="Node000005" class="node">
<title>Node5</title>
<g id="a_Node000005"><a xlink:href="tcpip_8h.html#structsockaddr" target="_top" xlink:title=" ">
<polygon fill="white" stroke="#bfbfbf" points="290.5,-147.62 234.75,-147.62 234.75,-128.38 290.5,-128.38 290.5,-147.62"/>
<text text-anchor="middle" x="262.62" y="-134.12" font-family="Helvetica,sans-Serif" font-size="10.00">sockaddr</text>
</a>
</g>
</g>
<!-- Node5&#45;&gt;Node3 -->
<g id="edge5_Node000003_Node000005" class="edge">
<title>Node5&#45;&gt;Node3</title>
<g id="a_edge5_Node000003_Node000005"><a xlink:title=" ">
<path fill="none" stroke="#9a32cd" stroke-dasharray="5,2" d="M256.59,-117.12C249.66,-96.13 236.97,-62.63 219.62,-37.25 215.17,-30.73 208.96,-24.47 203.61,-19.66"/>
<polygon fill="#9a32cd" stroke="#9a32cd" points="253.19,-117.96 259.54,-126.44 259.86,-115.85 253.19,-117.96"/>
</a>
</g>
<text text-anchor="middle" x="280.88" y="-95.25" font-family="Helvetica,sans-Serif" font-size="10.00" fill="grey"> bind</text>
<text text-anchor="middle" x="280.88" y="-84" font-family="Helvetica,sans-Serif" font-size="10.00" fill="grey">connect</text>
<text text-anchor="middle" x="280.88" y="-72.75" font-family="Helvetica,sans-Serif" font-size="10.00" fill="grey">getpeername</text>
<text text-anchor="middle" x="280.88" y="-61.5" font-family="Helvetica,sans-Serif" font-size="10.00" fill="grey">getsockname</text>
<text text-anchor="middle" x="280.88" y="-50.25" font-family="Helvetica,sans-Serif" font-size="10.00" fill="grey">recvfrom</text>
<text text-anchor="middle" x="280.88" y="-39" font-family="Helvetica,sans-Serif" font-size="10.00" fill="grey">sendto</text>
</g>
</g>
</svg>
</svg>

<style type='text/css'>
<![CDATA[
[data-mouse-over-selected='false'] { opacity: 0.7; }
[data-mouse-over-selected='true']  { opacity: 1.0; }
]]>
</style>
<script type="application/ecmascript"><![CDATA[
document.addEventListener('DOMContentLoaded', (event) => {
  highlightEdges();
  highlightAdjacentNodes();
});
]]></script>
</svg>
