<?xml version="1.0" encoding="UTF-8" standalone="no"?>
<!DOCTYPE svg PUBLIC "-//W3C//DTD SVG 1.1//EN"
 "http://www.w3.org/Graphics/SVG/1.1/DTD/svg11.dtd">
<!-- Generated by graphviz version 2.43.0 (0)
 -->
<!-- Title: modload_load_seek_header_ Pages: 1 -->
<svg width="186pt" height="95pt"
 viewBox="0.00 0.00 186.00 95.00" xmlns="http://www.w3.org/2000/svg" xmlns:xlink="http://www.w3.org/1999/xlink">
<g id="graph0" class="graph" transform="scale(1 1) rotate(0) translate(4 91)">
<title>modload_load_seek_header_</title>
<polygon fill="white" stroke="transparent" points="-4,4 -4,-91 182,-91 182,4 -4,4"/>
<!-- Node1 -->
<g id="node1" class="node">
<title>Node1</title>
<g id="a_node1"><a xlink:title=" ">
<polygon fill="#bfbfbf" stroke="black" points="11.5,-0.5 11.5,-19.5 169.5,-19.5 169.5,-0.5 11.5,-0.5"/>
<text text-anchor="middle" x="90.5" y="-7.5" font-family="Helvetica,sans-Serif" font-size="10.00">modload_load_seek_header_</text>
</a>
</g>
</g>
<!-- Node2 -->
<g id="node2" class="node">
<title>Node2</title>
<g id="a_node2"><a xlink:href="structelf__pheader__t.html" target="_top" xlink:title=" ">
<polygon fill="white" stroke="black" points="0,-67.5 0,-86.5 83,-86.5 83,-67.5 0,-67.5"/>
<text text-anchor="middle" x="41.5" y="-74.5" font-family="Helvetica,sans-Serif" font-size="10.00">elf_pheader_t</text>
</a>
</g>
</g>
<!-- Node2&#45;&gt;Node1 -->
<g id="edge1" class="edge">
<title>Node2&#45;&gt;Node1</title>
<path fill="none" stroke="#9a32cd" stroke-dasharray="5,2" d="M54.39,-58.9C63.91,-46.27 76.48,-29.6 84,-19.63"/>
<polygon fill="#9a32cd" stroke="#9a32cd" points="51.33,-57.14 48.11,-67.23 56.92,-61.36 51.33,-57.14"/>
<text text-anchor="middle" x="82" y="-41" font-family="Helvetica,sans-Serif" font-size="10.00"> phdr</text>
</g>
<!-- Node3 -->
<g id="node3" class="node">
<title>Node3</title>
<g id="a_node3"><a xlink:href="structelf__header__t.html" target="_top" xlink:title=" ">
<polygon fill="white" stroke="black" points="101,-67.5 101,-86.5 178,-86.5 178,-67.5 101,-67.5"/>
<text text-anchor="middle" x="139.5" y="-74.5" font-family="Helvetica,sans-Serif" font-size="10.00">elf_header_t</text>
</a>
</g>
</g>
<!-- Node3&#45;&gt;Node1 -->
<g id="edge2" class="edge">
<title>Node3&#45;&gt;Node1</title>
<path fill="none" stroke="#9a32cd" stroke-dasharray="5,2" d="M126.61,-58.9C117.09,-46.27 104.52,-29.6 97,-19.63"/>
<polygon fill="#9a32cd" stroke="#9a32cd" points="124.08,-61.36 132.89,-67.23 129.67,-57.14 124.08,-61.36"/>
<text text-anchor="middle" x="133.5" y="-41" font-family="Helvetica,sans-Serif" font-size="10.00"> elfhdr</text>
</g>
</g>
</svg>
