<?xml version="1.0" encoding="UTF-8" standalone="no"?>
<!DOCTYPE svg PUBLIC "-//W3C//DTD SVG 1.1//EN"
 "http://www.w3.org/Graphics/SVG/1.1/DTD/svg11.dtd">
<!-- Generated by graphviz version 12.2.0 (20241103.1931)
 -->
<!-- Title: pad_state Pages: 1 -->
<svg width="182pt" height="160pt"
 viewBox="0.00 0.00 182.02 160.25" xmlns="http://www.w3.org/2000/svg" xmlns:xlink="http://www.w3.org/1999/xlink">

<svg id="main" version="1.1" xmlns="http://www.w3.org/2000/svg" xmlns:xlink="http://www.w3.org/1999/xlink" xml:space="preserve">

<style type="text/css"><![CDATA[
.node, .edge {opacity: 0.7;}
.node.selected, .edge.selected {opacity: 1;}
.edge:hover path { stroke: red; }
.edge:hover polygon { stroke: red; fill: red; }
]]></style>
<script type="application/ecmascript" xlink:href="svg.min.js"/>
<svg id="graph" class="graph">
<g id="graph0" class="graph" transform="scale(1 1) rotate(0) translate(4 156.25)">
<title>pad_state</title>
<!-- Node1 -->
<g id="Node000001" class="node">
<title>Node1</title>
<g id="a_Node000001"><a xlink:title=" ">
<polygon fill="#999999" stroke="#666666" points="113.25,-19.25 54.5,-19.25 54.5,0 113.25,0 113.25,-19.25"/>
<text text-anchor="middle" x="83.88" y="-5.75" font-family="Helvetica,sans-Serif" font-size="10.00">pad_state</text>
</a>
</g>
</g>
<!-- Node2 -->
<g id="Node000002" class="node">
<title>Node2</title>
<g id="a_Node000002"><a xlink:href="libpad_8c.html#unionpad__data__u" target="_top" xlink:title=" ">
<polygon fill="white" stroke="#bfbfbf" points="117,-85.75 50.75,-85.75 50.75,-66.5 117,-66.5 117,-85.75"/>
<text text-anchor="middle" x="83.88" y="-72.25" font-family="Helvetica,sans-Serif" font-size="10.00">pad_data_u</text>
</a>
</g>
</g>
<!-- Node2&#45;&gt;Node1 -->
<g id="edge1_Node000001_Node000002" class="edge">
<title>Node2&#45;&gt;Node1</title>
<g id="a_edge1_Node000001_Node000002"><a xlink:title=" ">
<path fill="none" stroke="#9a32cd" stroke-dasharray="5,2" d="M83.88,-54.65C83.88,-42.82 83.88,-28.54 83.88,-19.52"/>
<polygon fill="#9a32cd" stroke="#9a32cd" points="80.38,-54.64 83.88,-64.64 87.38,-54.64 80.38,-54.64"/>
</a>
</g>
<text text-anchor="middle" x="103" y="-39" font-family="Helvetica,sans-Serif" font-size="10.00" fill="grey"> padData</text>
</g>
<!-- Node3 -->
<g id="Node000003" class="node">
<title>Node3</title>
<g id="a_Node000003"><a xlink:href="libpad_8c.html#structpad__data__old" target="_top" xlink:title=" ">
<polygon fill="white" stroke="#bfbfbf" points="73.75,-152.25 0,-152.25 0,-133 73.75,-133 73.75,-152.25"/>
<text text-anchor="middle" x="36.88" y="-138.75" font-family="Helvetica,sans-Serif" font-size="10.00">pad_data_old</text>
</a>
</g>
</g>
<!-- Node3&#45;&gt;Node2 -->
<g id="edge2_Node000002_Node000003" class="edge">
<title>Node3&#45;&gt;Node2</title>
<g id="a_edge2_Node000002_Node000003"><a xlink:title=" ">
<path fill="none" stroke="#9a32cd" stroke-dasharray="5,2" d="M45.22,-122.46C48.32,-116.24 52.13,-109.47 56.38,-103.75 61.21,-97.24 67.68,-90.89 73.13,-86.02"/>
<polygon fill="#9a32cd" stroke="#9a32cd" points="42.13,-120.82 41.1,-131.36 48.48,-123.76 42.13,-120.82"/>
</a>
</g>
<text text-anchor="middle" x="82.62" y="-105.5" font-family="Helvetica,sans-Serif" font-size="10.00" fill="grey"> oldPadData</text>
</g>
<!-- Node4 -->
<g id="Node000004" class="node">
<title>Node4</title>
<g id="a_Node000004"><a xlink:href="libpad_8c.html#structpad__data__new" target="_top" xlink:title=" ">
<polygon fill="white" stroke="#bfbfbf" points="170.38,-152.25 91.38,-152.25 91.38,-133 170.38,-133 170.38,-152.25"/>
<text text-anchor="middle" x="130.88" y="-138.75" font-family="Helvetica,sans-Serif" font-size="10.00">pad_data_new</text>
</a>
</g>
</g>
<!-- Node4&#45;&gt;Node2 -->
<g id="edge3_Node000002_Node000004" class="edge">
<title>Node4&#45;&gt;Node2</title>
<g id="a_edge3_Node000002_Node000004"><a xlink:title=" ">
<path fill="none" stroke="#9a32cd" stroke-dasharray="5,2" d="M121.1,-122.86C117.54,-116.59 113.3,-109.69 108.88,-103.75 104.18,-97.44 98.17,-91 93.22,-86.03"/>
<polygon fill="#9a32cd" stroke="#9a32cd" points="117.78,-124.09 125.63,-131.21 123.93,-120.75 117.78,-124.09"/>
</a>
</g>
<text text-anchor="middle" x="145.14" y="-105.5" font-family="Helvetica,sans-Serif" font-size="10.00" fill="grey"> newPadData</text>
</g>
</g>
</svg>
</svg>

<style type='text/css'>
<![CDATA[
[data-mouse-over-selected='false'] { opacity: 0.7; }
[data-mouse-over-selected='true']  { opacity: 1.0; }
]]>
</style>
<script type="application/ecmascript"><![CDATA[
document.addEventListener('DOMContentLoaded', (event) => {
  highlightEdges();
  highlightAdjacentNodes();
});
]]></script>
</svg>
