<?xml version="1.0" encoding="UTF-8" standalone="no"?>
<!DOCTYPE svg PUBLIC "-//W3C//DTD SVG 1.1//EN"
 "http://www.w3.org/Graphics/SVG/1.1/DTD/svg11.dtd">
<!-- Generated by graphviz version 2.43.0 (0)
 -->
<!-- Title: libmc_target_desc_ Pages: 1 -->
<svg width="296pt" height="385pt"
 viewBox="0.00 0.00 296.00 385.00" xmlns="http://www.w3.org/2000/svg" xmlns:xlink="http://www.w3.org/1999/xlink">
<g id="graph0" class="graph" transform="scale(1 1) rotate(0) translate(4 381)">
<title>libmc_target_desc_</title>
<polygon fill="white" stroke="transparent" points="-4,4 -4,-381 292,-381 292,4 -4,4"/>
<!-- Node1 -->
<g id="node1" class="node">
<title>Node1</title>
<g id="a_node1"><a xlink:title=" ">
<polygon fill="#bfbfbf" stroke="black" points="78.5,-0.5 78.5,-19.5 189.5,-19.5 189.5,-0.5 78.5,-0.5"/>
<text text-anchor="middle" x="134" y="-7.5" font-family="Helvetica,sans-Serif" font-size="10.00">libmc_target_desc_</text>
</a>
</g>
</g>
<!-- Node2 -->
<g id="node2" class="node">
<title>Node2</title>
<g id="a_node2"><a xlink:href="structlibmc__interface__data__stru.html" target="_top" xlink:title=" ">
<polygon fill="white" stroke="black" points="62.5,-67.5 62.5,-86.5 205.5,-86.5 205.5,-67.5 62.5,-67.5"/>
<text text-anchor="middle" x="134" y="-74.5" font-family="Helvetica,sans-Serif" font-size="10.00">libmc_interface_data_stru</text>
</a>
</g>
</g>
<!-- Node2&#45;&gt;Node1 -->
<g id="edge1" class="edge">
<title>Node2&#45;&gt;Node1</title>
<path fill="none" stroke="#9a32cd" stroke-dasharray="5,2" d="M134,-57.04C134,-44.67 134,-29.12 134,-19.63"/>
<polygon fill="#9a32cd" stroke="#9a32cd" points="130.5,-57.23 134,-67.23 137.5,-57.23 130.5,-57.23"/>
<text text-anchor="middle" x="178.5" y="-41" font-family="Helvetica,sans-Serif" font-size="10.00"> m_interface_data</text>
</g>
<!-- Node3 -->
<g id="node3" class="node">
<title>Node3</title>
<g id="a_node3"><a xlink:href="libmc_8c.html#structmc_extra_end_param__" target="_top" xlink:title=" ">
<polygon fill="white" stroke="black" points="78.5,-134.5 78.5,-153.5 189.5,-153.5 189.5,-134.5 78.5,-134.5"/>
<text text-anchor="middle" x="134" y="-141.5" font-family="Helvetica,sans-Serif" font-size="10.00">mcExtraEndParam_</text>
</a>
</g>
</g>
<!-- Node3&#45;&gt;Node2 -->
<g id="edge2" class="edge">
<title>Node3&#45;&gt;Node2</title>
<path fill="none" stroke="#9a32cd" stroke-dasharray="5,2" d="M134,-124.04C134,-111.67 134,-96.12 134,-86.63"/>
<polygon fill="#9a32cd" stroke="#9a32cd" points="130.5,-124.23 134,-134.23 137.5,-124.23 130.5,-124.23"/>
<text text-anchor="middle" x="186" y="-108" font-family="Helvetica,sans-Serif" font-size="10.00"> m_extra_end_param</text>
</g>
<!-- Node4 -->
<g id="node4" class="node">
<title>Node4</title>
<g id="a_node4"><a xlink:href="libmc_8c.html#unionlibmc__extra__send__recv__unio" target="_top" xlink:title=" ">
<polygon fill="white" stroke="black" points="56.5,-201.5 56.5,-220.5 211.5,-220.5 211.5,-201.5 56.5,-201.5"/>
<text text-anchor="middle" x="134" y="-208.5" font-family="Helvetica,sans-Serif" font-size="10.00">libmc_extra_send_recv_unio</text>
</a>
</g>
</g>
<!-- Node4&#45;&gt;Node3 -->
<g id="edge3" class="edge">
<title>Node4&#45;&gt;Node3</title>
<path fill="none" stroke="#9a32cd" stroke-dasharray="5,2" d="M134,-191.04C134,-178.67 134,-163.12 134,-153.63"/>
<polygon fill="#9a32cd" stroke="#9a32cd" points="130.5,-191.23 134,-201.23 137.5,-191.23 130.5,-191.23"/>
<text text-anchor="middle" x="202" y="-175" font-family="Helvetica,sans-Serif" font-size="10.00"> m_extra_send_recv_param</text>
</g>
<!-- Node5 -->
<g id="node5" class="node">
<title>Node5</title>
<g id="a_node5"><a xlink:href="mcman_8h.html#struct__sce_mc_tbl_get_dir" target="_top" xlink:title=" ">
<polygon fill="white" stroke="black" points="5.5,-274 5.5,-293 104.5,-293 104.5,-274 5.5,-274"/>
<text text-anchor="middle" x="55" y="-281" font-family="Helvetica,sans-Serif" font-size="10.00">_sceMcTblGetDir</text>
</a>
</g>
</g>
<!-- Node5&#45;&gt;Node4 -->
<g id="edge4" class="edge">
<title>Node5&#45;&gt;Node4</title>
<path fill="none" stroke="#9a32cd" stroke-dasharray="5,2" d="M57.42,-263.65C59.34,-255.24 62.8,-245.74 69,-239 76.78,-230.55 87.61,-224.67 98.2,-220.6"/>
<polygon fill="#9a32cd" stroke="#9a32cd" points="53.93,-263.29 55.67,-273.74 60.82,-264.49 53.93,-263.29"/>
<text text-anchor="middle" x="110" y="-242" font-family="Helvetica,sans-Serif" font-size="10.00"> m_file_info_buff</text>
</g>
<!-- Node6 -->
<g id="node6" class="node">
<title>Node6</title>
<g id="a_node6"><a xlink:href="libmc-common_8h.html#struct__sce_mc_st_date_time" target="_top" xlink:title=" ">
<polygon fill="white" stroke="black" points="0,-357.5 0,-376.5 110,-376.5 110,-357.5 0,-357.5"/>
<text text-anchor="middle" x="55" y="-364.5" font-family="Helvetica,sans-Serif" font-size="10.00">_sceMcStDateTime</text>
</a>
</g>
</g>
<!-- Node6&#45;&gt;Node5 -->
<g id="edge5" class="edge">
<title>Node6&#45;&gt;Node5</title>
<path fill="none" stroke="#9a32cd" stroke-dasharray="5,2" d="M55,-346.88C55,-329.9 55,-305.87 55,-293.16"/>
<polygon fill="#9a32cd" stroke="#9a32cd" points="51.5,-347.28 55,-357.28 58.5,-347.28 51.5,-347.28"/>
<text text-anchor="middle" x="76" y="-331" font-family="Helvetica,sans-Serif" font-size="10.00"> _Modify</text>
<text text-anchor="middle" x="76" y="-320" font-family="Helvetica,sans-Serif" font-size="10.00">_Create</text>
</g>
<!-- Node7 -->
<g id="node7" class="node">
<title>Node7</title>
<g id="a_node7"><a xlink:href="libmc_8c.html#structlibmc__page__read__align__data__stru" target="_top" xlink:title=" ">
<polygon fill="white" stroke="black" points="122.5,-268.5 122.5,-298.5 251.5,-298.5 251.5,-268.5 122.5,-268.5"/>
<text text-anchor="start" x="130.5" y="-286.5" font-family="Helvetica,sans-Serif" font-size="10.00">libmc_page_read_align</text>
<text text-anchor="middle" x="187" y="-275.5" font-family="Helvetica,sans-Serif" font-size="10.00">_data_stru</text>
</a>
</g>
</g>
<!-- Node7&#45;&gt;Node4 -->
<g id="edge6" class="edge">
<title>Node7&#45;&gt;Node4</title>
<path fill="none" stroke="#9a32cd" stroke-dasharray="5,2" d="M170.09,-260.01C160.11,-246.73 148.03,-230.66 140.69,-220.89"/>
<polygon fill="#9a32cd" stroke="#9a32cd" points="167.47,-262.34 176.27,-268.23 173.06,-258.14 167.47,-262.34"/>
<text text-anchor="middle" x="225" y="-242" font-family="Helvetica,sans-Serif" font-size="10.00"> m_page_read_align_data</text>
</g>
</g>
</svg>
