<?xml version="1.0" encoding="UTF-8" standalone="no"?>
<!DOCTYPE svg PUBLIC "-//W3C//DTD SVG 1.1//EN"
 "http://www.w3.org/Graphics/SVG/1.1/DTD/svg11.dtd">
<!-- Generated by graphviz version 2.43.0 (0)
 -->
<!-- Title: select_pkt Pages: 1 -->
<svg width="106pt" height="117pt"
 viewBox="0.00 0.00 106.00 117.00" xmlns="http://www.w3.org/2000/svg" xmlns:xlink="http://www.w3.org/1999/xlink">
<g id="graph0" class="graph" transform="scale(1 1) rotate(0) translate(4 113)">
<title>select_pkt</title>
<polygon fill="white" stroke="transparent" points="-4,4 -4,-113 102,-113 102,4 -4,4"/>
<!-- Node1 -->
<g id="node1" class="node">
<title>Node1</title>
<g id="a_node1"><a xlink:title=" ">
<polygon fill="#bfbfbf" stroke="black" points="15.5,-0.5 15.5,-19.5 82.5,-19.5 82.5,-0.5 15.5,-0.5"/>
<text text-anchor="middle" x="49" y="-7.5" font-family="Helvetica,sans-Serif" font-size="10.00">select_pkt</text>
</a>
</g>
</g>
<!-- Node2 -->
<g id="node2" class="node">
<title>Node2</title>
<g id="a_node2"><a xlink:href="ps2ip__rpc_8h.html#structps2ip__rpc__fd__set" target="_top" xlink:title=" ">
<polygon fill="white" stroke="black" points="0,-89.5 0,-108.5 98,-108.5 98,-89.5 0,-89.5"/>
<text text-anchor="middle" x="49" y="-96.5" font-family="Helvetica,sans-Serif" font-size="10.00">ps2ip_rpc_fd_set</text>
</a>
</g>
</g>
<!-- Node2&#45;&gt;Node1 -->
<g id="edge1" class="edge">
<title>Node2&#45;&gt;Node1</title>
<path fill="none" stroke="#9a32cd" stroke-dasharray="5,2" d="M49,-79.19C49,-60.74 49,-33.41 49,-19.62"/>
<polygon fill="#9a32cd" stroke="#9a32cd" points="45.5,-79.34 49,-89.34 52.5,-79.34 45.5,-79.34"/>
<text text-anchor="middle" x="73.5" y="-63" font-family="Helvetica,sans-Serif" font-size="10.00"> writeset</text>
<text text-anchor="middle" x="73.5" y="-52" font-family="Helvetica,sans-Serif" font-size="10.00">readset</text>
<text text-anchor="middle" x="73.5" y="-41" font-family="Helvetica,sans-Serif" font-size="10.00">exceptset</text>
</g>
</g>
</svg>
