<?xml version="1.0" encoding="UTF-8" standalone="no"?>
<!DOCTYPE svg PUBLIC "-//W3C//DTD SVG 1.1//EN"
 "http://www.w3.org/Graphics/SVG/1.1/DTD/svg11.dtd">
<!-- Generated by graphviz version 2.44.0 ()
 -->
<!-- Title: SecrBitTable Pages: 1 -->
<svg width="224pt" height="95pt"
 viewBox="0.00 0.00 224.00 95.00" xmlns="http://www.w3.org/2000/svg" xmlns:xlink="http://www.w3.org/1999/xlink">
<g id="graph0" class="graph" transform="scale(1 1) rotate(0) translate(4 91)">
<title>SecrBitTable</title>
<polygon fill="white" stroke="transparent" points="-4,4 -4,-91 220,-91 220,4 -4,4"/>
<!-- Node1 -->
<g id="node1" class="node">
<title>Node1</title>
<g id="a_node1"><a xlink:title=" ">
<polygon fill="#bfbfbf" stroke="black" points="68.5,-0.5 68.5,-19.5 141.5,-19.5 141.5,-0.5 68.5,-0.5"/>
<text text-anchor="middle" x="105" y="-7.5" font-family="Helvetica,sans-Serif" font-size="10.00">SecrBitTable</text>
</a>
</g>
</g>
<!-- Node2 -->
<g id="node2" class="node">
<title>Node2</title>
<g id="a_node2"><a xlink:href="libsecr-common_8h.html#struct_secr_bit_block_data" target="_top" xlink:title=" ">
<polygon fill="white" stroke="black" points="0,-67.5 0,-86.5 94,-86.5 94,-67.5 0,-67.5"/>
<text text-anchor="middle" x="47" y="-74.5" font-family="Helvetica,sans-Serif" font-size="10.00">SecrBitBlockData</text>
</a>
</g>
</g>
<!-- Node2&#45;&gt;Node1 -->
<g id="edge1" class="edge">
<title>Node2&#45;&gt;Node1</title>
<path fill="none" stroke="#9a32cd" stroke-dasharray="5,2" d="M61.6,-59.63C72.95,-46.92 88.23,-29.8 97.3,-19.63"/>
<polygon fill="#9a32cd" stroke="#9a32cd" points="58.87,-57.44 54.82,-67.23 64.09,-62.1 58.87,-57.44"/>
<text text-anchor="middle" x="95.5" y="-41" font-family="Helvetica,sans-Serif" font-size="10.00"> blocks</text>
</g>
<!-- Node3 -->
<g id="node3" class="node">
<title>Node3</title>
<g id="a_node3"><a xlink:href="libsecr-common_8h.html#struct_secr_bit_table_header" target="_top" xlink:title=" ">
<polygon fill="white" stroke="black" points="112,-67.5 112,-86.5 216,-86.5 216,-67.5 112,-67.5"/>
<text text-anchor="middle" x="164" y="-74.5" font-family="Helvetica,sans-Serif" font-size="10.00">SecrBitTableHeader</text>
</a>
</g>
</g>
<!-- Node3&#45;&gt;Node1 -->
<g id="edge2" class="edge">
<title>Node3&#45;&gt;Node1</title>
<path fill="none" stroke="#9a32cd" stroke-dasharray="5,2" d="M149.15,-59.63C137.61,-46.92 122.06,-29.8 112.83,-19.63"/>
<polygon fill="#9a32cd" stroke="#9a32cd" points="146.73,-62.18 156.04,-67.23 151.91,-57.48 146.73,-62.18"/>
<text text-anchor="middle" x="154" y="-41" font-family="Helvetica,sans-Serif" font-size="10.00"> header</text>
</g>
</g>
</svg>
