<?xml version="1.0" encoding="UTF-8" standalone="no"?>
<!DOCTYPE svg PUBLIC "-//W3C//DTD SVG 1.1//EN"
 "http://www.w3.org/Graphics/SVG/1.1/DTD/svg11.dtd">
<!-- Generated by graphviz version 9.0.0 (20230911.1827)
 -->
<!-- Title: iop/kernel/include/sysclib.h Pages: 1 -->
<svg width="225pt" height="204pt"
 viewBox="0.00 0.00 224.93 204.25" xmlns="http://www.w3.org/2000/svg" xmlns:xlink="http://www.w3.org/1999/xlink">

<svg id="main" version="1.1" xmlns="http://www.w3.org/2000/svg" xmlns:xlink="http://www.w3.org/1999/xlink" xml:space="preserve" onload="init(evt)">
<style type="text/css"><![CDATA[
.node, .edge {opacity: 0.7;}
.node.selected, .edge.selected {opacity: 1;}
.edge:hover path { stroke: red; }
.edge:hover polygon { stroke: red; fill: red; }
]]></style>
<script type="application/ecmascript" xlink:href="svg.min.js"/>
<svg id="graph" class="graph">
<g id="graph0" class="graph" transform="scale(1 1) rotate(0) translate(4 200.25)">
<title>iop/kernel/include/sysclib.h</title>
<!-- Node1 -->
<g id="Node000001" class="node">
<title>Node1</title>
<g id="a_Node000001"><a xlink:title=" ">
<polygon fill="#999999" stroke="#666666" points="135.43,-196.25 43.68,-196.25 43.68,-165.75 135.43,-165.75 135.43,-196.25"/>
<text text-anchor="start" x="51.68" y="-182.75" font-family="Helvetica,sans-Serif" font-size="10.00">iop/kernel/include</text>
<text text-anchor="middle" x="89.55" y="-171.5" font-family="Helvetica,sans-Serif" font-size="10.00">/sysclib.h</text>
</a>
</g>
</g>
<!-- Node2 -->
<g id="Node000002" class="node">
<title>Node2</title>
<g id="a_Node000002"><a xlink:href="iop_2kernel_2include_2types_8h_source.html" target="_top" xlink:title=" ">
<polygon fill="white" stroke="#666666" points="52.93,-74.5 6.18,-74.5 6.18,-55.25 52.93,-55.25 52.93,-74.5"/>
<text text-anchor="middle" x="29.55" y="-61" font-family="Helvetica,sans-Serif" font-size="10.00">types.h</text>
</a>
</g>
</g>
<!-- Node1&#45;&gt;Node2 -->
<g id="edge1_Node000001_Node000002" class="edge">
<title>Node1&#45;&gt;Node2</title>
<g id="a_edge1_Node000001_Node000002"><a xlink:title=" ">
<path fill="none" stroke="#63b8ff" d="M45.88,-165.28C29.61,-157.42 12.85,-145.95 3.55,-129.75 -4.9,-115.02 3.99,-97 13.61,-83.86"/>
<polygon fill="#63b8ff" stroke="#63b8ff" points="16.33,-86.07 19.88,-76.08 10.88,-81.67 16.33,-86.07"/>
</a>
</g>
</g>
<!-- Node5 -->
<g id="Node000005" class="node">
<title>Node5</title>
<g id="a_Node000005"><a xlink:href="irx_8h.html" target="_top" xlink:title=" ">
<polygon fill="white" stroke="#666666" points="46.18,-129.75 12.93,-129.75 12.93,-110.5 46.18,-110.5 46.18,-129.75"/>
<text text-anchor="middle" x="29.55" y="-116.25" font-family="Helvetica,sans-Serif" font-size="10.00">irx.h</text>
</a>
</g>
</g>
<!-- Node1&#45;&gt;Node5 -->
<g id="edge4_Node000001_Node000005" class="edge">
<title>Node1&#45;&gt;Node5</title>
<g id="a_edge4_Node000001_Node000005"><a xlink:title=" ">
<path fill="none" stroke="#63b8ff" d="M74.72,-165.45C66.29,-157.17 55.68,-146.77 46.87,-138.12"/>
<polygon fill="#63b8ff" stroke="#63b8ff" points="49.47,-135.77 39.88,-131.26 44.57,-140.76 49.47,-135.77"/>
</a>
</g>
</g>
<!-- Node6 -->
<g id="Node000006" class="node">
<title>Node6</title>
<g id="a_Node000006"><a xlink:title=" ">
<polygon fill="#e0e0e0" stroke="#999999" points="114.8,-129.75 64.3,-129.75 64.3,-110.5 114.8,-110.5 114.8,-129.75"/>
<text text-anchor="middle" x="89.55" y="-116.25" font-family="Helvetica,sans-Serif" font-size="10.00">stdarg.h</text>
</a>
</g>
</g>
<!-- Node1&#45;&gt;Node6 -->
<g id="edge6_Node000001_Node000006" class="edge">
<title>Node1&#45;&gt;Node6</title>
<g id="a_edge6_Node000001_Node000006"><a xlink:title=" ">
<path fill="none" stroke="#63b8ff" d="M89.55,-165.45C89.55,-158.21 89.55,-149.34 89.55,-141.44"/>
<polygon fill="#63b8ff" stroke="#63b8ff" points="93.05,-141.71 89.55,-131.71 86.05,-141.71 93.05,-141.71"/>
</a>
</g>
</g>
<!-- Node7 -->
<g id="Node000007" class="node">
<title>Node7</title>
<g id="a_Node000007"><a xlink:href="setjmp_8h.html" target="_top" xlink:title=" ">
<polygon fill="white" stroke="#666666" points="158.93,-74.5 106.18,-74.5 106.18,-55.25 158.93,-55.25 158.93,-74.5"/>
<text text-anchor="middle" x="132.55" y="-61" font-family="Helvetica,sans-Serif" font-size="10.00">setjmp.h</text>
</a>
</g>
</g>
<!-- Node1&#45;&gt;Node7 -->
<g id="edge7_Node000001_Node000007" class="edge">
<title>Node1&#45;&gt;Node7</title>
<g id="a_edge7_Node000001_Node000007"><a xlink:title=" ">
<path fill="none" stroke="#63b8ff" d="M101.9,-165.62C109.4,-156.07 118.48,-142.92 123.55,-129.75 128.92,-115.8 131.14,-99.03 132.03,-86.17"/>
<polygon fill="#63b8ff" stroke="#63b8ff" points="135.52,-86.53 132.48,-76.38 128.52,-86.21 135.52,-86.53"/>
</a>
</g>
</g>
<!-- Node8 -->
<g id="Node000008" class="node">
<title>Node8</title>
<g id="a_Node000008"><a xlink:href="ctype_8h.html" target="_top" xlink:title=" ">
<polygon fill="white" stroke="#666666" points="216.93,-129.75 170.18,-129.75 170.18,-110.5 216.93,-110.5 216.93,-129.75"/>
<text text-anchor="middle" x="193.55" y="-116.25" font-family="Helvetica,sans-Serif" font-size="10.00">ctype.h</text>
</a>
</g>
</g>
<!-- Node1&#45;&gt;Node8 -->
<g id="edge9_Node000001_Node000008" class="edge">
<title>Node1&#45;&gt;Node8</title>
<g id="a_edge9_Node000001_Node000008"><a xlink:title=" ">
<path fill="none" stroke="#63b8ff" d="M115.53,-165.3C131.52,-156.24 151.93,-144.69 167.87,-135.66"/>
<polygon fill="#63b8ff" stroke="#63b8ff" points="169.31,-138.87 176.28,-130.9 165.86,-132.78 169.31,-138.87"/>
</a>
</g>
</g>
<!-- Node3 -->
<g id="Node000003" class="node">
<title>Node3</title>
<g id="a_Node000003"><a xlink:title=" ">
<polygon fill="#e0e0e0" stroke="#999999" points="54.8,-19.25 4.3,-19.25 4.3,0 54.8,0 54.8,-19.25"/>
<text text-anchor="middle" x="29.55" y="-5.75" font-family="Helvetica,sans-Serif" font-size="10.00">stddef.h</text>
</a>
</g>
</g>
<!-- Node2&#45;&gt;Node3 -->
<g id="edge2_Node000002_Node000003" class="edge">
<title>Node2&#45;&gt;Node3</title>
<g id="a_edge2_Node000002_Node000003"><a xlink:title=" ">
<path fill="none" stroke="#63b8ff" d="M29.55,-55.08C29.55,-48.57 29.55,-39.42 29.55,-31.12"/>
<polygon fill="#63b8ff" stroke="#63b8ff" points="33.05,-31.12 29.55,-21.12 26.05,-31.12 33.05,-31.12"/>
</a>
</g>
</g>
<!-- Node4 -->
<g id="Node000004" class="node">
<title>Node4</title>
<g id="a_Node000004"><a xlink:href="tamtypes_8h.html" target="_top" xlink:title=" ">
<polygon fill="white" stroke="#666666" points="155.18,-19.25 91.93,-19.25 91.93,0 155.18,0 155.18,-19.25"/>
<text text-anchor="middle" x="123.55" y="-5.75" font-family="Helvetica,sans-Serif" font-size="10.00">tamtypes.h</text>
</a>
</g>
</g>
<!-- Node2&#45;&gt;Node4 -->
<g id="edge3_Node000002_Node000004" class="edge">
<title>Node2&#45;&gt;Node4</title>
<g id="a_edge3_Node000002_Node000004"><a xlink:title=" ">
<path fill="none" stroke="#63b8ff" d="M45.5,-54.84C59.81,-46.73 81.08,-34.68 97.81,-25.21"/>
<polygon fill="#63b8ff" stroke="#63b8ff" points="99.23,-28.42 106.21,-20.45 95.78,-22.33 99.23,-28.42"/>
</a>
</g>
</g>
<!-- Node5&#45;&gt;Node2 -->
<g id="edge5_Node000005_Node000002" class="edge">
<title>Node5&#45;&gt;Node2</title>
<g id="a_edge5_Node000005_Node000002"><a xlink:title=" ">
<path fill="none" stroke="#63b8ff" d="M29.55,-110.33C29.55,-103.82 29.55,-94.67 29.55,-86.37"/>
<polygon fill="#63b8ff" stroke="#63b8ff" points="33.05,-86.37 29.55,-76.37 26.05,-86.37 33.05,-86.37"/>
</a>
</g>
</g>
<!-- Node7&#45;&gt;Node4 -->
<g id="edge8_Node000007_Node000004" class="edge">
<title>Node7&#45;&gt;Node4</title>
<g id="a_edge8_Node000007_Node000004"><a xlink:title=" ">
<path fill="none" stroke="#63b8ff" d="M131.06,-55.08C129.95,-48.49 128.38,-39.21 126.97,-30.82"/>
<polygon fill="#63b8ff" stroke="#63b8ff" points="130.44,-30.38 125.32,-21.1 123.54,-31.55 130.44,-30.38"/>
</a>
</g>
</g>
</g>
</svg>
</svg>

<style type='text/css'>
<![CDATA[
[data-mouse-over-selected='false'] { opacity: 0.7; }
[data-mouse-over-selected='true']  { opacity: 1.0; }
]]>
</style>
<script type="application/ecmascript"><![CDATA[
document.addEventListener('DOMContentLoaded', (event) => {
  highlightEdges();
  highlightAdjacentNodes();
});
]]></script>
</svg>
