<?xml version="1.0" encoding="UTF-8" standalone="no"?>
<!DOCTYPE svg PUBLIC "-//W3C//DTD SVG 1.1//EN"
 "http://www.w3.org/Graphics/SVG/1.1/DTD/svg11.dtd">
<!-- Generated by graphviz version 2.43.0 (0)
 -->
<!-- Title: iop/system/sysclib/include/sysclib.h Pages: 1 -->
<svg width="301pt" height="207pt"
 viewBox="0.00 0.00 301.00 207.00" xmlns="http://www.w3.org/2000/svg" xmlns:xlink="http://www.w3.org/1999/xlink">
<g id="graph0" class="graph" transform="scale(1 1) rotate(0) translate(4 203)">
<title>iop/system/sysclib/include/sysclib.h</title>
<polygon fill="white" stroke="transparent" points="-4,4 -4,-203 297,-203 297,4 -4,4"/>
<!-- Node1 -->
<g id="node1" class="node">
<title>Node1</title>
<g id="a_node1"><a xlink:title=" ">
<polygon fill="#bfbfbf" stroke="black" points="102,-168.5 102,-198.5 209,-198.5 209,-168.5 102,-168.5"/>
<text text-anchor="start" x="110" y="-186.5" font-family="Helvetica,sans-Serif" font-size="10.00">iop/system/sysclib</text>
<text text-anchor="middle" x="155.5" y="-175.5" font-family="Helvetica,sans-Serif" font-size="10.00">/include/sysclib.h</text>
</a>
</g>
</g>
<!-- Node2 -->
<g id="node2" class="node">
<title>Node2</title>
<g id="a_node2"><a xlink:title=" ">
<polygon fill="white" stroke="#bfbfbf" points="0,-112.5 0,-131.5 53,-131.5 53,-112.5 0,-112.5"/>
<text text-anchor="middle" x="26.5" y="-119.5" font-family="Helvetica,sans-Serif" font-size="10.00">types.h</text>
</a>
</g>
</g>
<!-- Node1&#45;&gt;Node2 -->
<g id="edge1" class="edge">
<title>Node1&#45;&gt;Node2</title>
<path fill="none" stroke="midnightblue" d="M124.93,-168.4C103.57,-158.55 75.28,-145.5 54.52,-135.92"/>
<polygon fill="midnightblue" stroke="midnightblue" points="55.82,-132.67 45.27,-131.66 52.89,-139.02 55.82,-132.67"/>
</g>
<!-- Node3 -->
<g id="node3" class="node">
<title>Node3</title>
<g id="a_node3"><a xlink:href="irx_8h.html" target="_top" xlink:title=" ">
<polygon fill="white" stroke="black" points="71.5,-112.5 71.5,-131.5 109.5,-131.5 109.5,-112.5 71.5,-112.5"/>
<text text-anchor="middle" x="90.5" y="-119.5" font-family="Helvetica,sans-Serif" font-size="10.00">irx.h</text>
</a>
</g>
</g>
<!-- Node1&#45;&gt;Node3 -->
<g id="edge2" class="edge">
<title>Node1&#45;&gt;Node3</title>
<path fill="none" stroke="midnightblue" d="M140.1,-168.4C130.26,-159.4 117.51,-147.72 107.39,-138.47"/>
<polygon fill="midnightblue" stroke="midnightblue" points="109.7,-135.83 99.96,-131.66 104.97,-140.99 109.7,-135.83"/>
</g>
<!-- Node7 -->
<g id="node7" class="node">
<title>Node7</title>
<g id="a_node7"><a xlink:title=" ">
<polygon fill="white" stroke="#bfbfbf" points="127.5,-112.5 127.5,-131.5 183.5,-131.5 183.5,-112.5 127.5,-112.5"/>
<text text-anchor="middle" x="155.5" y="-119.5" font-family="Helvetica,sans-Serif" font-size="10.00">stdarg.h</text>
</a>
</g>
</g>
<!-- Node1&#45;&gt;Node7 -->
<g id="edge6" class="edge">
<title>Node1&#45;&gt;Node7</title>
<path fill="none" stroke="midnightblue" d="M155.5,-168.4C155.5,-160.47 155.5,-150.46 155.5,-141.86"/>
<polygon fill="midnightblue" stroke="midnightblue" points="159,-141.66 155.5,-131.66 152,-141.66 159,-141.66"/>
</g>
<!-- Node8 -->
<g id="node8" class="node">
<title>Node8</title>
<g id="a_node8"><a xlink:href="setjmp_8h.html" target="_top" xlink:title=" ">
<polygon fill="white" stroke="black" points="177,-56.5 177,-75.5 236,-75.5 236,-56.5 177,-56.5"/>
<text text-anchor="middle" x="206.5" y="-63.5" font-family="Helvetica,sans-Serif" font-size="10.00">setjmp.h</text>
</a>
</g>
</g>
<!-- Node1&#45;&gt;Node8 -->
<g id="edge7" class="edge">
<title>Node1&#45;&gt;Node8</title>
<path fill="none" stroke="midnightblue" d="M168.63,-168.08C176.67,-158.5 186.53,-145.29 192.5,-132 199.09,-117.34 202.65,-99.4 204.53,-86.09"/>
<polygon fill="midnightblue" stroke="midnightblue" points="208.05,-86.12 205.78,-75.77 201.1,-85.28 208.05,-86.12"/>
</g>
<!-- Node9 -->
<g id="node9" class="node">
<title>Node9</title>
<g id="a_node9"><a xlink:href="ctype_8h.html" target="_top" xlink:title=" ">
<polygon fill="white" stroke="black" points="240,-112.5 240,-131.5 293,-131.5 293,-112.5 240,-112.5"/>
<text text-anchor="middle" x="266.5" y="-119.5" font-family="Helvetica,sans-Serif" font-size="10.00">ctype.h</text>
</a>
</g>
</g>
<!-- Node1&#45;&gt;Node9 -->
<g id="edge9" class="edge">
<title>Node1&#45;&gt;Node9</title>
<path fill="none" stroke="midnightblue" d="M181.81,-168.4C199.76,-158.77 223.42,-146.09 241.17,-136.58"/>
<polygon fill="midnightblue" stroke="midnightblue" points="243.19,-139.47 250.35,-131.66 239.88,-133.3 243.19,-139.47"/>
</g>
<!-- Node4 -->
<g id="node4" class="node">
<title>Node4</title>
<g id="a_node4"><a xlink:href="iop_2kernel_2include_2types_8h_source.html" target="_top" xlink:title=" ">
<polygon fill="white" stroke="black" points="83,-56.5 83,-75.5 136,-75.5 136,-56.5 83,-56.5"/>
<text text-anchor="middle" x="109.5" y="-63.5" font-family="Helvetica,sans-Serif" font-size="10.00">types.h</text>
</a>
</g>
</g>
<!-- Node3&#45;&gt;Node4 -->
<g id="edge3" class="edge">
<title>Node3&#45;&gt;Node4</title>
<path fill="none" stroke="midnightblue" d="M93.64,-112.08C96.18,-104.85 99.86,-94.41 103.03,-85.4"/>
<polygon fill="midnightblue" stroke="midnightblue" points="106.4,-86.35 106.42,-75.75 99.8,-84.02 106.4,-86.35"/>
</g>
<!-- Node5 -->
<g id="node5" class="node">
<title>Node5</title>
<g id="a_node5"><a xlink:title=" ">
<polygon fill="white" stroke="#bfbfbf" points="81.5,-0.5 81.5,-19.5 137.5,-19.5 137.5,-0.5 81.5,-0.5"/>
<text text-anchor="middle" x="109.5" y="-7.5" font-family="Helvetica,sans-Serif" font-size="10.00">stddef.h</text>
</a>
</g>
</g>
<!-- Node4&#45;&gt;Node5 -->
<g id="edge4" class="edge">
<title>Node4&#45;&gt;Node5</title>
<path fill="none" stroke="midnightblue" d="M109.5,-56.08C109.5,-49.01 109.5,-38.86 109.5,-29.99"/>
<polygon fill="midnightblue" stroke="midnightblue" points="113,-29.75 109.5,-19.75 106,-29.75 113,-29.75"/>
</g>
<!-- Node6 -->
<g id="node6" class="node">
<title>Node6</title>
<g id="a_node6"><a xlink:href="tamtypes_8h.html" target="_top" xlink:title=" ">
<polygon fill="white" stroke="black" points="165.5,-0.5 165.5,-19.5 237.5,-19.5 237.5,-0.5 165.5,-0.5"/>
<text text-anchor="middle" x="201.5" y="-7.5" font-family="Helvetica,sans-Serif" font-size="10.00">tamtypes.h</text>
</a>
</g>
</g>
<!-- Node4&#45;&gt;Node6 -->
<g id="edge5" class="edge">
<title>Node4&#45;&gt;Node6</title>
<path fill="none" stroke="midnightblue" d="M124.28,-56.32C138.77,-47.82 161.07,-34.73 177.99,-24.8"/>
<polygon fill="midnightblue" stroke="midnightblue" points="179.9,-27.74 186.76,-19.65 176.36,-21.7 179.9,-27.74"/>
</g>
<!-- Node8&#45;&gt;Node6 -->
<g id="edge8" class="edge">
<title>Node8&#45;&gt;Node6</title>
<path fill="none" stroke="midnightblue" d="M205.67,-56.08C205.02,-49.01 204.08,-38.86 203.26,-29.99"/>
<polygon fill="midnightblue" stroke="midnightblue" points="206.72,-29.39 202.31,-19.75 199.75,-30.03 206.72,-29.39"/>
</g>
</g>
</svg>
