<?xml version="1.0" encoding="UTF-8" standalone="no"?>
<!DOCTYPE svg PUBLIC "-//W3C//DTD SVG 1.1//EN"
 "http://www.w3.org/Graphics/SVG/1.1/DTD/svg11.dtd">
<!-- Generated by graphviz version 9.0.0 (20230911.1827)
 -->
<!-- Title: iop/kernel/include/thmsgbx.h Pages: 1 -->
<svg width="1342pt" height="172pt"
 viewBox="0.00 0.00 1341.50 171.50" xmlns="http://www.w3.org/2000/svg" xmlns:xlink="http://www.w3.org/1999/xlink">
<g id="graph0" class="graph" transform="scale(1 1) rotate(0) translate(4 167.5)">
<title>iop/kernel/include/thmsgbx.h</title>
<!-- Node1 -->
<g id="Node000001" class="node">
<title>Node1</title>
<g id="a_Node000001"><a xlink:title=" ">
<polygon fill="#999999" stroke="#666666" points="842.88,-163.5 751.12,-163.5 751.12,-133 842.88,-133 842.88,-163.5"/>
<text text-anchor="start" x="759.12" y="-150" font-family="Helvetica,sans-Serif" font-size="10.00">iop/kernel/include</text>
<text text-anchor="middle" x="797" y="-138.75" font-family="Helvetica,sans-Serif" font-size="10.00">/thmsgbx.h</text>
</a>
</g>
</g>
<!-- Node2 -->
<g id="Node000002" class="node">
<title>Node2</title>
<g id="a_Node000002"><a xlink:href="iop_2dev9_2extflash_2src_2irx__imports_8h_source.html" target="_top" xlink:title=" ">
<polygon fill="white" stroke="#666666" points="436.62,-97 331.38,-97 331.38,-66.5 436.62,-66.5 436.62,-97"/>
<text text-anchor="start" x="339.38" y="-83.5" font-family="Helvetica,sans-Serif" font-size="10.00">iop/dev9/extflash/src</text>
<text text-anchor="middle" x="384" y="-72.25" font-family="Helvetica,sans-Serif" font-size="10.00">/irx_imports.h</text>
</a>
</g>
</g>
<!-- Node1&#45;&gt;Node2 -->
<g id="edge1_Node000001_Node000002" class="edge">
<title>Node1&#45;&gt;Node2</title>
<g id="a_edge1_Node000001_Node000002"><a xlink:title=" ">
<path fill="none" stroke="#63b8ff" d="M739.65,-140.54C669.96,-132.03 548.9,-116.16 446,-97 443.07,-96.45 440.07,-95.87 437.04,-95.25"/>
<polygon fill="#63b8ff" stroke="#63b8ff" points="738.95,-143.98 749.3,-141.71 739.79,-137.03 738.95,-143.98"/>
</a>
</g>
</g>
<!-- Node3 -->
<g id="Node000003" class="node">
<title>Node3</title>
<g id="a_Node000003"><a xlink:href="thcommon_8h_source.html" target="_top" xlink:title=" ">
<polygon fill="white" stroke="#666666" points="567,-97 455,-97 455,-66.5 567,-66.5 567,-97"/>
<text text-anchor="start" x="463" y="-83.5" font-family="Helvetica,sans-Serif" font-size="10.00">iop/system/threadman</text>
<text text-anchor="middle" x="511" y="-72.25" font-family="Helvetica,sans-Serif" font-size="10.00">/src/thcommon.h</text>
</a>
</g>
</g>
<!-- Node1&#45;&gt;Node3 -->
<g id="edge2_Node000001_Node000003" class="edge">
<title>Node1&#45;&gt;Node3</title>
<g id="a_edge2_Node000001_Node000003"><a xlink:title=" ">
<path fill="none" stroke="#63b8ff" d="M739.75,-134.34C689.6,-123.03 617.14,-106.69 567.28,-95.44"/>
<polygon fill="#63b8ff" stroke="#63b8ff" points="738.73,-137.7 749.25,-136.48 740.27,-130.87 738.73,-137.7"/>
</a>
</g>
</g>
<!-- Node8 -->
<g id="Node000008" class="node">
<title>Node8</title>
<g id="a_Node000008"><a xlink:href="thmsgbx_8c_source.html" target="_top" xlink:title=" ">
<polygon fill="white" stroke="#666666" points="892,-30.5 780,-30.5 780,0 892,0 892,-30.5"/>
<text text-anchor="start" x="788" y="-17" font-family="Helvetica,sans-Serif" font-size="10.00">iop/system/threadman</text>
<text text-anchor="middle" x="836" y="-5.75" font-family="Helvetica,sans-Serif" font-size="10.00">/src/thmsgbx.c</text>
</a>
</g>
</g>
<!-- Node1&#45;&gt;Node8 -->
<g id="edge10_Node000001_Node000008" class="edge">
<title>Node1&#45;&gt;Node8</title>
<g id="a_edge10_Node000001_Node000008"><a xlink:title=" ">
<path fill="none" stroke="#63b8ff" d="M739.66,-142.06C672.98,-133.75 576.55,-113.37 614,-66.5 614.66,-65.67 714.07,-43.4 779.62,-28.79"/>
<polygon fill="#63b8ff" stroke="#63b8ff" points="739.05,-145.51 749.39,-143.2 739.87,-138.56 739.05,-145.51"/>
</a>
</g>
</g>
<!-- Node11 -->
<g id="Node000011" class="node">
<title>Node11</title>
<g id="a_Node000011"><a xlink:href="iop_2tcpip_2tcpip-base_2sys__arch_8c_source.html" target="_top" xlink:title=" ">
<polygon fill="white" stroke="#666666" points="723.38,-97 622.62,-97 622.62,-66.5 723.38,-66.5 723.38,-97"/>
<text text-anchor="start" x="630.62" y="-83.5" font-family="Helvetica,sans-Serif" font-size="10.00">iop/tcpip/tcpip&#45;base</text>
<text text-anchor="middle" x="673" y="-72.25" font-family="Helvetica,sans-Serif" font-size="10.00">/sys_arch.c</text>
</a>
</g>
</g>
<!-- Node1&#45;&gt;Node11 -->
<g id="edge11_Node000001_Node000011" class="edge">
<title>Node1&#45;&gt;Node11</title>
<g id="a_edge11_Node000001_Node000011"><a xlink:title=" ">
<path fill="none" stroke="#63b8ff" d="M758.89,-127.43C740.22,-117.71 718.13,-106.22 701.03,-97.33"/>
<polygon fill="#63b8ff" stroke="#63b8ff" points="757.03,-130.41 767.52,-131.92 760.26,-124.2 757.03,-130.41"/>
</a>
</g>
</g>
<!-- Node12 -->
<g id="Node000012" class="node">
<title>Node12</title>
<g id="a_Node000012"><a xlink:href="iop_2tcpip_2tcpip-netman_2src_2irx__imports_8h_source.html" target="_top" xlink:title=" ">
<polygon fill="white" stroke="#666666" points="853,-97 741,-97 741,-66.5 853,-66.5 853,-97"/>
<text text-anchor="start" x="749" y="-83.5" font-family="Helvetica,sans-Serif" font-size="10.00">iop/tcpip/tcpip&#45;netman</text>
<text text-anchor="middle" x="797" y="-72.25" font-family="Helvetica,sans-Serif" font-size="10.00">/src/irx_imports.h</text>
</a>
</g>
</g>
<!-- Node1&#45;&gt;Node12 -->
<g id="edge12_Node000001_Node000012" class="edge">
<title>Node1&#45;&gt;Node12</title>
<g id="a_edge12_Node000001_Node000012"><a xlink:title=" ">
<path fill="none" stroke="#63b8ff" d="M797,-121.31C797,-113.14 797,-104.41 797,-97.33"/>
<polygon fill="#63b8ff" stroke="#63b8ff" points="793.5,-121.1 797,-131.1 800.5,-121.1 793.5,-121.1"/>
</a>
</g>
</g>
<!-- Node13 -->
<g id="Node000013" class="node">
<title>Node13</title>
<g id="a_Node000013"><a xlink:href="iop_2tcpip_2tcpip_2src_2irx__imports_8h_source.html" target="_top" xlink:title=" ">
<polygon fill="white" stroke="#666666" points="964.62,-97 871.38,-97 871.38,-66.5 964.62,-66.5 964.62,-97"/>
<text text-anchor="start" x="879.38" y="-83.5" font-family="Helvetica,sans-Serif" font-size="10.00">iop/tcpip/tcpip/src</text>
<text text-anchor="middle" x="918" y="-72.25" font-family="Helvetica,sans-Serif" font-size="10.00">/irx_imports.h</text>
</a>
</g>
</g>
<!-- Node1&#45;&gt;Node13 -->
<g id="edge13_Node000001_Node000013" class="edge">
<title>Node1&#45;&gt;Node13</title>
<g id="a_edge13_Node000001_Node000013"><a xlink:title=" ">
<path fill="none" stroke="#63b8ff" d="M834.44,-127.29C852.61,-117.61 874.04,-106.18 890.65,-97.33"/>
<polygon fill="#63b8ff" stroke="#63b8ff" points="832.97,-124.11 825.79,-131.9 836.26,-130.29 832.97,-124.11"/>
</a>
</g>
</g>
<!-- Node14 -->
<g id="Node000014" class="node">
<title>Node14</title>
<g id="a_Node000014"><a xlink:href="iop_2usb_2camera_2src_2irx__imports_8h_source.html" target="_top" xlink:title=" ">
<polygon fill="white" stroke="#666666" points="1081.62,-97 982.38,-97 982.38,-66.5 1081.62,-66.5 1081.62,-97"/>
<text text-anchor="start" x="990.38" y="-83.5" font-family="Helvetica,sans-Serif" font-size="10.00">iop/usb/camera/src</text>
<text text-anchor="middle" x="1032" y="-72.25" font-family="Helvetica,sans-Serif" font-size="10.00">/irx_imports.h</text>
</a>
</g>
</g>
<!-- Node1&#45;&gt;Node14 -->
<g id="edge14_Node000001_Node000014" class="edge">
<title>Node1&#45;&gt;Node14</title>
<g id="a_edge14_Node000001_Node000014"><a xlink:title=" ">
<path fill="none" stroke="#63b8ff" d="M854.07,-131.59C893.13,-120.87 944.42,-106.79 981.89,-96.5"/>
<polygon fill="#63b8ff" stroke="#63b8ff" points="853.32,-128.16 844.61,-134.18 855.18,-134.91 853.32,-128.16"/>
</a>
</g>
</g>
<!-- Node15 -->
<g id="Node000015" class="node">
<title>Node15</title>
<g id="a_Node000015"><a xlink:href="iop_2usb_2keyboard_2src_2irx__imports_8h_source.html" target="_top" xlink:title=" ">
<polygon fill="white" stroke="#666666" points="1206,-97 1100,-97 1100,-66.5 1206,-66.5 1206,-97"/>
<text text-anchor="start" x="1108" y="-83.5" font-family="Helvetica,sans-Serif" font-size="10.00">iop/usb/keyboard/src</text>
<text text-anchor="middle" x="1153" y="-72.25" font-family="Helvetica,sans-Serif" font-size="10.00">/irx_imports.h</text>
</a>
</g>
</g>
<!-- Node1&#45;&gt;Node15 -->
<g id="edge15_Node000001_Node000015" class="edge">
<title>Node1&#45;&gt;Node15</title>
<g id="a_edge15_Node000001_Node000015"><a xlink:title=" ">
<path fill="none" stroke="#63b8ff" d="M854.25,-138.45C913.63,-129.09 1009.08,-113.4 1091,-97 1093.82,-96.44 1096.7,-95.84 1099.61,-95.22"/>
<polygon fill="#63b8ff" stroke="#63b8ff" points="854.07,-134.94 844.73,-139.94 855.15,-141.85 854.07,-134.94"/>
</a>
</g>
</g>
<!-- Node16 -->
<g id="Node000016" class="node">
<title>Node16</title>
<g id="a_Node000016"><a xlink:href="iop_2usb_2mouse_2src_2irx__imports_8h_source.html" target="_top" xlink:title=" ">
<polygon fill="white" stroke="#666666" points="1333.5,-97 1224.5,-97 1224.5,-66.5 1333.5,-66.5 1333.5,-97"/>
<text text-anchor="start" x="1232.5" y="-83.5" font-family="Helvetica,sans-Serif" font-size="10.00">iop/usb/mouse/src/irx</text>
<text text-anchor="middle" x="1279" y="-72.25" font-family="Helvetica,sans-Serif" font-size="10.00">_imports.h</text>
</a>
</g>
</g>
<!-- Node1&#45;&gt;Node16 -->
<g id="edge16_Node000001_Node000016" class="edge">
<title>Node1&#45;&gt;Node16</title>
<g id="a_edge16_Node000001_Node000016"><a xlink:title=" ">
<path fill="none" stroke="#63b8ff" d="M854.71,-142.14C935.59,-134.57 1087.1,-118.87 1215,-97 1218.03,-96.48 1221.13,-95.91 1224.26,-95.31"/>
<polygon fill="#63b8ff" stroke="#63b8ff" points="854.44,-138.65 844.8,-143.06 855.09,-145.62 854.44,-138.65"/>
</a>
</g>
</g>
<!-- Node4 -->
<g id="Node000004" class="node">
<title>Node4</title>
<g id="a_Node000004"><a xlink:href="thbase_8c_source.html" target="_top" xlink:title=" ">
<polygon fill="white" stroke="#666666" points="112,-30.5 0,-30.5 0,0 112,0 112,-30.5"/>
<text text-anchor="start" x="8" y="-17" font-family="Helvetica,sans-Serif" font-size="10.00">iop/system/threadman</text>
<text text-anchor="middle" x="56" y="-5.75" font-family="Helvetica,sans-Serif" font-size="10.00">/src/thbase.c</text>
</a>
</g>
</g>
<!-- Node3&#45;&gt;Node4 -->
<g id="edge3_Node000003_Node000004" class="edge">
<title>Node3&#45;&gt;Node4</title>
<g id="a_edge3_Node000003_Node000004"><a xlink:title=" ">
<path fill="none" stroke="#63b8ff" d="M443.76,-66.25C300.67,-43.43 260.9,-53.52 121,-30.5 118.15,-30.03 115.24,-29.52 112.3,-28.97"/>
<polygon fill="#63b8ff" stroke="#63b8ff" points="442.77,-69.64 453.21,-67.78 443.9,-62.73 442.77,-69.64"/>
</a>
</g>
</g>
<!-- Node5 -->
<g id="Node000005" class="node">
<title>Node5</title>
<g id="a_Node000005"><a xlink:href="thcommon_8c_source.html" target="_top" xlink:title=" ">
<polygon fill="white" stroke="#666666" points="242,-30.5 130,-30.5 130,0 242,0 242,-30.5"/>
<text text-anchor="start" x="138" y="-17" font-family="Helvetica,sans-Serif" font-size="10.00">iop/system/threadman</text>
<text text-anchor="middle" x="186" y="-5.75" font-family="Helvetica,sans-Serif" font-size="10.00">/src/thcommon.c</text>
</a>
</g>
</g>
<!-- Node3&#45;&gt;Node5 -->
<g id="edge4_Node000003_Node000005" class="edge">
<title>Node3&#45;&gt;Node5</title>
<g id="a_edge4_Node000003_Node000005"><a xlink:title=" ">
<path fill="none" stroke="#63b8ff" d="M443.58,-66.05C357.73,-48.95 333.93,-47.24 251,-30.5 248.17,-29.93 245.27,-29.33 242.35,-28.72"/>
<polygon fill="#63b8ff" stroke="#63b8ff" points="442.68,-69.44 453.17,-67.98 444.05,-62.58 442.68,-69.44"/>
</a>
</g>
</g>
<!-- Node6 -->
<g id="Node000006" class="node">
<title>Node6</title>
<g id="a_Node000006"><a xlink:href="thevent_8c_source.html" target="_top" xlink:title=" ">
<polygon fill="white" stroke="#666666" points="372,-30.5 260,-30.5 260,0 372,0 372,-30.5"/>
<text text-anchor="start" x="268" y="-17" font-family="Helvetica,sans-Serif" font-size="10.00">iop/system/threadman</text>
<text text-anchor="middle" x="316" y="-5.75" font-family="Helvetica,sans-Serif" font-size="10.00">/src/thevent.c</text>
</a>
</g>
</g>
<!-- Node3&#45;&gt;Node6 -->
<g id="edge5_Node000003_Node000006" class="edge">
<title>Node3&#45;&gt;Node6</title>
<g id="a_edge5_Node000003_Node000006"><a xlink:title=" ">
<path fill="none" stroke="#63b8ff" d="M455.95,-62.54C425.74,-52.55 388.77,-40.32 360.41,-30.94"/>
<polygon fill="#63b8ff" stroke="#63b8ff" points="454.72,-65.82 465.31,-65.64 456.92,-59.18 454.72,-65.82"/>
</a>
</g>
</g>
<!-- Node7 -->
<g id="Node000007" class="node">
<title>Node7</title>
<g id="a_Node000007"><a xlink:href="thfpool_8c_source.html" target="_top" xlink:title=" ">
<polygon fill="white" stroke="#666666" points="502,-30.5 390,-30.5 390,0 502,0 502,-30.5"/>
<text text-anchor="start" x="398" y="-17" font-family="Helvetica,sans-Serif" font-size="10.00">iop/system/threadman</text>
<text text-anchor="middle" x="446" y="-5.75" font-family="Helvetica,sans-Serif" font-size="10.00">/src/thfpool.c</text>
</a>
</g>
</g>
<!-- Node3&#45;&gt;Node7 -->
<g id="edge6_Node000003_Node000007" class="edge">
<title>Node3&#45;&gt;Node7</title>
<g id="a_edge6_Node000003_Node000007"><a xlink:title=" ">
<path fill="none" stroke="#63b8ff" d="M488.26,-58.19C479.11,-49.11 468.83,-38.9 460.69,-30.83"/>
<polygon fill="#63b8ff" stroke="#63b8ff" points="485.61,-60.49 495.18,-65.05 490.54,-55.52 485.61,-60.49"/>
</a>
</g>
</g>
<!-- Node3&#45;&gt;Node8 -->
<g id="edge7_Node000003_Node000008" class="edge">
<title>Node3&#45;&gt;Node8</title>
<g id="a_edge7_Node000003_Node000008"><a xlink:title=" ">
<path fill="none" stroke="#63b8ff" d="M578.02,-67.09C579.02,-66.89 580.02,-66.69 581,-66.5 665.33,-49.93 686.79,-47.7 771,-30.5 773.83,-29.92 776.73,-29.32 779.65,-28.71"/>
<polygon fill="#63b8ff" stroke="#63b8ff" points="577.76,-63.57 568.63,-68.95 579.13,-70.44 577.76,-63.57"/>
</a>
</g>
</g>
<!-- Node9 -->
<g id="Node000009" class="node">
<title>Node9</title>
<g id="a_Node000009"><a xlink:href="thsemap_8c_source.html" target="_top" xlink:title=" ">
<polygon fill="white" stroke="#666666" points="632,-30.5 520,-30.5 520,0 632,0 632,-30.5"/>
<text text-anchor="start" x="528" y="-17" font-family="Helvetica,sans-Serif" font-size="10.00">iop/system/threadman</text>
<text text-anchor="middle" x="576" y="-5.75" font-family="Helvetica,sans-Serif" font-size="10.00">/src/thsemap.c</text>
</a>
</g>
</g>
<!-- Node3&#45;&gt;Node9 -->
<g id="edge8_Node000003_Node000009" class="edge">
<title>Node3&#45;&gt;Node9</title>
<g id="a_edge8_Node000003_Node000009"><a xlink:title=" ">
<path fill="none" stroke="#63b8ff" d="M533.74,-58.19C542.89,-49.11 553.17,-38.9 561.31,-30.83"/>
<polygon fill="#63b8ff" stroke="#63b8ff" points="531.46,-55.52 526.82,-65.05 536.39,-60.49 531.46,-55.52"/>
</a>
</g>
</g>
<!-- Node10 -->
<g id="Node000010" class="node">
<title>Node10</title>
<g id="a_Node000010"><a xlink:href="thvpool_8c_source.html" target="_top" xlink:title=" ">
<polygon fill="white" stroke="#666666" points="762,-30.5 650,-30.5 650,0 762,0 762,-30.5"/>
<text text-anchor="start" x="658" y="-17" font-family="Helvetica,sans-Serif" font-size="10.00">iop/system/threadman</text>
<text text-anchor="middle" x="706" y="-5.75" font-family="Helvetica,sans-Serif" font-size="10.00">/src/thvpool.c</text>
</a>
</g>
</g>
<!-- Node3&#45;&gt;Node10 -->
<g id="edge9_Node000003_Node000010" class="edge">
<title>Node3&#45;&gt;Node10</title>
<g id="a_edge9_Node000003_Node000010"><a xlink:title=" ">
<path fill="none" stroke="#63b8ff" d="M566.05,-62.54C596.26,-52.55 633.23,-40.32 661.59,-30.94"/>
<polygon fill="#63b8ff" stroke="#63b8ff" points="565.08,-59.18 556.69,-65.64 567.28,-65.82 565.08,-59.18"/>
</a>
</g>
</g>
</g>
</svg>
