<?xml version="1.0" encoding="UTF-8" standalone="no"?>
<!DOCTYPE svg PUBLIC "-//W3C//DTD SVG 1.1//EN"
 "http://www.w3.org/Graphics/SVG/1.1/DTD/svg11.dtd">
<!-- Generated by graphviz version 9.0.0 (20230911.1827)
 -->
<!-- Title: iop/system/threadman/include/thmsgbx.h Pages: 1 -->
<!--zoomable 172 -->

<svg id="main" version="1.1" xmlns="http://www.w3.org/2000/svg" xmlns:xlink="http://www.w3.org/1999/xlink" xml:space="preserve" onload="init(evt)">
<style type="text/css"><![CDATA[
.node, .edge {opacity: 0.7;}
.node.selected, .edge.selected {opacity: 1;}
.edge:hover path { stroke: red; }
.edge:hover polygon { stroke: red; fill: red; }
]]></style>

<defs>
  <circle id="rim" cx="0" cy="0" r="7"/>
  <circle id="rim2" cx="0" cy="0" r="3.5"/>
  <g id="zoomPlus">
    <use xlink:href="#rim" fill="#404040"><set attributeName="fill" to="#808080" begin="zoomplus.mouseover" end="zoomplus.mouseout"/></use>
    <path d="M-4,0h8M0,-4v8" fill="none" stroke="white" stroke-width="1.5" pointer-events="none"/>
  </g>
  <g id="zoomMin">
    <use xlink:href="#rim" fill="#404040"><set attributeName="fill" to="#808080" begin="zoomminus.mouseover" end="zoomminus.mouseout"/></use>
    <path d="M-4,0h8" fill="none" stroke="white" stroke-width="1.5" pointer-events="none"/>
  </g>
  <g id="arrowUp" transform="translate(30 24)">
    <use xlink:href="#rim"/>
    <path pointer-events="none" fill="none" stroke="white" stroke-width="1.5" d="M0,-3.0v7 M-2.5,-0.5L0,-3.0L2.5,-0.5"/>
  </g>
  <g id="arrowRight" transform="rotate(90) translate(36 -43)">
    <use xlink:href="#rim"/>
    <path pointer-events="none" fill="none" stroke="white" stroke-width="1.5" d="M0,-3.0v7 M-2.5,-0.5L0,-3.0L2.5,-0.5"/>
  </g>
  <g id="arrowDown" transform="rotate(180) translate(-30 -48)">
    <use xlink:href="#rim"/>
    <path pointer-events="none" fill="none" stroke="white" stroke-width="1.5" d="M0,-3.0v7 M-2.5,-0.5L0,-3.0L2.5,-0.5"/>
  </g>
  <g id="arrowLeft" transform="rotate(270) translate(-36 17)">
    <use xlink:href="#rim"/>
    <path pointer-events="none" fill="none" stroke="white" stroke-width="1.5" d="M0,-3.0v7 M-2.5,-0.5L0,-3.0L2.5,-0.5"/>
  </g>
  <g id="resetDef">
    <use xlink:href="#rim2" fill="#404040"><set attributeName="fill" to="#808080" begin="reset.mouseover" end="reset.mouseout"/></use>
  </g>
</defs>
<script type="application/ecmascript">
var viewWidth = 1342;
var viewHeight = 172;
var sectionId = 'dynsection-1';
</script>
<script type="application/ecmascript" xlink:href="svg.min.js"/>
<svg id="graph" class="graph">
<g id="viewport">
<title>iop/system/threadman/include/thmsgbx.h</title>
<!-- Node1 -->
<g id="Node000001" class="node">
<title>Node1</title>
<g id="a_Node000001"><a xlink:title=" ">
<polygon fill="#999999" stroke="#666666" points="853,-163.5 741,-163.5 741,-133 853,-133 853,-163.5"/>
<text text-anchor="start" x="749" y="-150" font-family="Helvetica,sans-Serif" font-size="10.00">iop/system/threadman</text>
<text text-anchor="middle" x="797" y="-138.75" font-family="Helvetica,sans-Serif" font-size="10.00">/include/thmsgbx.h</text>
</a>
</g>
</g>
<!-- Node2 -->
<g id="Node000002" class="node">
<title>Node2</title>
<g id="a_Node000002"><a xlink:href="iop_2dev9_2extflash_2src_2irx__imports_8h_source.html" target="_top" xlink:title=" ">
<polygon fill="white" stroke="#666666" points="436.62,-97 331.38,-97 331.38,-66.5 436.62,-66.5 436.62,-97"/>
<text text-anchor="start" x="339.38" y="-83.5" font-family="Helvetica,sans-Serif" font-size="10.00">iop/dev9/extflash/src</text>
<text text-anchor="middle" x="384" y="-72.25" font-family="Helvetica,sans-Serif" font-size="10.00">/irx_imports.h</text>
</a>
</g>
</g>
<!-- Node1&#45;&gt;Node2 -->
<g id="edge1_Node000001_Node000002" class="edge">
<title>Node1&#45;&gt;Node2</title>
<g id="a_edge1_Node000001_Node000002"><a xlink:title=" ">
<path fill="none" stroke="#63b8ff" d="M729.54,-139.3C658.67,-130.54 544.09,-115.26 446,-97 443.07,-96.45 440.07,-95.87 437.04,-95.25"/>
<polygon fill="#63b8ff" stroke="#63b8ff" points="728.68,-142.72 739.03,-140.46 729.53,-135.77 728.68,-142.72"/>
</a>
</g>
</g>
<!-- Node3 -->
<g id="Node000003" class="node">
<title>Node3</title>
<g id="a_Node000003"><a xlink:href="thcommon_8h_source.html" target="_top" xlink:title=" ">
<polygon fill="white" stroke="#666666" points="567,-97 455,-97 455,-66.5 567,-66.5 567,-97"/>
<text text-anchor="start" x="463" y="-83.5" font-family="Helvetica,sans-Serif" font-size="10.00">iop/system/threadman</text>
<text text-anchor="middle" x="511" y="-72.25" font-family="Helvetica,sans-Serif" font-size="10.00">/src/thcommon.h</text>
</a>
</g>
</g>
<!-- Node1&#45;&gt;Node3 -->
<g id="edge2_Node000001_Node000003" class="edge">
<title>Node1&#45;&gt;Node3</title>
<g id="a_edge2_Node000001_Node000003"><a xlink:title=" ">
<path fill="none" stroke="#63b8ff" d="M729.91,-132.12C680.37,-120.95 613.73,-105.92 567.03,-95.39"/>
<polygon fill="#63b8ff" stroke="#63b8ff" points="728.84,-135.47 739.36,-134.25 730.38,-128.64 728.84,-135.47"/>
</a>
</g>
</g>
<!-- Node8 -->
<g id="Node000008" class="node">
<title>Node8</title>
<g id="a_Node000008"><a xlink:href="thmsgbx_8c_source.html" target="_top" xlink:title=" ">
<polygon fill="white" stroke="#666666" points="892,-30.5 780,-30.5 780,0 892,0 892,-30.5"/>
<text text-anchor="start" x="788" y="-17" font-family="Helvetica,sans-Serif" font-size="10.00">iop/system/threadman</text>
<text text-anchor="middle" x="836" y="-5.75" font-family="Helvetica,sans-Serif" font-size="10.00">/src/thmsgbx.c</text>
</a>
</g>
</g>
<!-- Node1&#45;&gt;Node8 -->
<g id="edge10_Node000001_Node000008" class="edge">
<title>Node1&#45;&gt;Node8</title>
<g id="a_edge10_Node000001_Node000008"><a xlink:title=" ">
<path fill="none" stroke="#63b8ff" d="M729.32,-140.7C663.56,-131.62 578.45,-111 614,-66.5 614.66,-65.67 714.07,-43.4 779.62,-28.79"/>
<polygon fill="#63b8ff" stroke="#63b8ff" points="728.65,-144.14 739.02,-141.97 729.55,-137.2 728.65,-144.14"/>
</a>
</g>
</g>
<!-- Node11 -->
<g id="Node000011" class="node">
<title>Node11</title>
<g id="a_Node000011"><a xlink:href="iop_2tcpip_2tcpip-base_2sys__arch_8c_source.html" target="_top" xlink:title=" ">
<polygon fill="white" stroke="#666666" points="723.38,-97 622.62,-97 622.62,-66.5 723.38,-66.5 723.38,-97"/>
<text text-anchor="start" x="630.62" y="-83.5" font-family="Helvetica,sans-Serif" font-size="10.00">iop/tcpip/tcpip&#45;base</text>
<text text-anchor="middle" x="673" y="-72.25" font-family="Helvetica,sans-Serif" font-size="10.00">/sys_arch.c</text>
</a>
</g>
</g>
<!-- Node1&#45;&gt;Node11 -->
<g id="edge11_Node000001_Node000011" class="edge">
<title>Node1&#45;&gt;Node11</title>
<g id="a_edge11_Node000001_Node000011"><a xlink:title=" ">
<path fill="none" stroke="#63b8ff" d="M758.89,-127.43C740.22,-117.71 718.13,-106.22 701.03,-97.33"/>
<polygon fill="#63b8ff" stroke="#63b8ff" points="757.03,-130.41 767.52,-131.92 760.26,-124.2 757.03,-130.41"/>
</a>
</g>
</g>
<!-- Node12 -->
<g id="Node000012" class="node">
<title>Node12</title>
<g id="a_Node000012"><a xlink:href="iop_2tcpip_2tcpip-netman_2src_2irx__imports_8h_source.html" target="_top" xlink:title=" ">
<polygon fill="white" stroke="#666666" points="853,-97 741,-97 741,-66.5 853,-66.5 853,-97"/>
<text text-anchor="start" x="749" y="-83.5" font-family="Helvetica,sans-Serif" font-size="10.00">iop/tcpip/tcpip&#45;netman</text>
<text text-anchor="middle" x="797" y="-72.25" font-family="Helvetica,sans-Serif" font-size="10.00">/src/irx_imports.h</text>
</a>
</g>
</g>
<!-- Node1&#45;&gt;Node12 -->
<g id="edge12_Node000001_Node000012" class="edge">
<title>Node1&#45;&gt;Node12</title>
<g id="a_edge12_Node000001_Node000012"><a xlink:title=" ">
<path fill="none" stroke="#63b8ff" d="M797,-121.31C797,-113.14 797,-104.41 797,-97.33"/>
<polygon fill="#63b8ff" stroke="#63b8ff" points="793.5,-121.1 797,-131.1 800.5,-121.1 793.5,-121.1"/>
</a>
</g>
</g>
<!-- Node13 -->
<g id="Node000013" class="node">
<title>Node13</title>
<g id="a_Node000013"><a xlink:href="iop_2tcpip_2tcpip_2src_2irx__imports_8h_source.html" target="_top" xlink:title=" ">
<polygon fill="white" stroke="#666666" points="964.62,-97 871.38,-97 871.38,-66.5 964.62,-66.5 964.62,-97"/>
<text text-anchor="start" x="879.38" y="-83.5" font-family="Helvetica,sans-Serif" font-size="10.00">iop/tcpip/tcpip/src</text>
<text text-anchor="middle" x="918" y="-72.25" font-family="Helvetica,sans-Serif" font-size="10.00">/irx_imports.h</text>
</a>
</g>
</g>
<!-- Node1&#45;&gt;Node13 -->
<g id="edge13_Node000001_Node000013" class="edge">
<title>Node1&#45;&gt;Node13</title>
<g id="a_edge13_Node000001_Node000013"><a xlink:title=" ">
<path fill="none" stroke="#63b8ff" d="M834.44,-127.29C852.61,-117.61 874.04,-106.18 890.65,-97.33"/>
<polygon fill="#63b8ff" stroke="#63b8ff" points="832.97,-124.11 825.79,-131.9 836.26,-130.29 832.97,-124.11"/>
</a>
</g>
</g>
<!-- Node14 -->
<g id="Node000014" class="node">
<title>Node14</title>
<g id="a_Node000014"><a xlink:href="iop_2usb_2camera_2src_2irx__imports_8h_source.html" target="_top" xlink:title=" ">
<polygon fill="white" stroke="#666666" points="1081.62,-97 982.38,-97 982.38,-66.5 1081.62,-66.5 1081.62,-97"/>
<text text-anchor="start" x="990.38" y="-83.5" font-family="Helvetica,sans-Serif" font-size="10.00">iop/usb/camera/src</text>
<text text-anchor="middle" x="1032" y="-72.25" font-family="Helvetica,sans-Serif" font-size="10.00">/irx_imports.h</text>
</a>
</g>
</g>
<!-- Node1&#45;&gt;Node14 -->
<g id="edge14_Node000001_Node000014" class="edge">
<title>Node1&#45;&gt;Node14</title>
<g id="a_edge14_Node000001_Node000014"><a xlink:title=" ">
<path fill="none" stroke="#63b8ff" d="M861.6,-129.52C899.66,-119.07 947.08,-106.06 982.22,-96.41"/>
<polygon fill="#63b8ff" stroke="#63b8ff" points="860.8,-126.11 852.08,-132.13 862.65,-132.86 860.8,-126.11"/>
</a>
</g>
</g>
<!-- Node15 -->
<g id="Node000015" class="node">
<title>Node15</title>
<g id="a_Node000015"><a xlink:href="iop_2usb_2keyboard_2src_2irx__imports_8h_source.html" target="_top" xlink:title=" ">
<polygon fill="white" stroke="#666666" points="1206,-97 1100,-97 1100,-66.5 1206,-66.5 1206,-97"/>
<text text-anchor="start" x="1108" y="-83.5" font-family="Helvetica,sans-Serif" font-size="10.00">iop/usb/keyboard/src</text>
<text text-anchor="middle" x="1153" y="-72.25" font-family="Helvetica,sans-Serif" font-size="10.00">/irx_imports.h</text>
</a>
</g>
</g>
<!-- Node1&#45;&gt;Node15 -->
<g id="edge15_Node000001_Node000015" class="edge">
<title>Node1&#45;&gt;Node15</title>
<g id="a_edge15_Node000001_Node000015"><a xlink:title=" ">
<path fill="none" stroke="#63b8ff" d="M864.43,-136.84C924.15,-127.35 1013.61,-112.5 1091,-97 1093.82,-96.44 1096.7,-95.84 1099.61,-95.22"/>
<polygon fill="#63b8ff" stroke="#63b8ff" points="864.09,-133.35 854.76,-138.37 865.18,-140.26 864.09,-133.35"/>
</a>
</g>
</g>
<!-- Node16 -->
<g id="Node000016" class="node">
<title>Node16</title>
<g id="a_Node000016"><a xlink:href="iop_2usb_2mouse_2src_2irx__imports_8h_source.html" target="_top" xlink:title=" ">
<polygon fill="white" stroke="#666666" points="1333.5,-97 1224.5,-97 1224.5,-66.5 1333.5,-66.5 1333.5,-97"/>
<text text-anchor="start" x="1232.5" y="-83.5" font-family="Helvetica,sans-Serif" font-size="10.00">iop/usb/mouse/src/irx</text>
<text text-anchor="middle" x="1279" y="-72.25" font-family="Helvetica,sans-Serif" font-size="10.00">_imports.h</text>
</a>
</g>
</g>
<!-- Node1&#45;&gt;Node16 -->
<g id="edge16_Node000001_Node000016" class="edge">
<title>Node1&#45;&gt;Node16</title>
<g id="a_edge16_Node000001_Node000016"><a xlink:title=" ">
<path fill="none" stroke="#63b8ff" d="M864.65,-141.21C947.56,-133.32 1092.17,-118 1215,-97 1218.03,-96.48 1221.13,-95.91 1224.26,-95.31"/>
<polygon fill="#63b8ff" stroke="#63b8ff" points="864.51,-137.7 854.88,-142.13 865.16,-144.67 864.51,-137.7"/>
</a>
</g>
</g>
<!-- Node4 -->
<g id="Node000004" class="node">
<title>Node4</title>
<g id="a_Node000004"><a xlink:href="thbase_8c_source.html" target="_top" xlink:title=" ">
<polygon fill="white" stroke="#666666" points="112,-30.5 0,-30.5 0,0 112,0 112,-30.5"/>
<text text-anchor="start" x="8" y="-17" font-family="Helvetica,sans-Serif" font-size="10.00">iop/system/threadman</text>
<text text-anchor="middle" x="56" y="-5.75" font-family="Helvetica,sans-Serif" font-size="10.00">/src/thbase.c</text>
</a>
</g>
</g>
<!-- Node3&#45;&gt;Node4 -->
<g id="edge3_Node000003_Node000004" class="edge">
<title>Node3&#45;&gt;Node4</title>
<g id="a_edge3_Node000003_Node000004"><a xlink:title=" ">
<path fill="none" stroke="#63b8ff" d="M443.76,-66.25C300.67,-43.43 260.9,-53.52 121,-30.5 118.15,-30.03 115.24,-29.52 112.3,-28.97"/>
<polygon fill="#63b8ff" stroke="#63b8ff" points="442.77,-69.64 453.21,-67.78 443.9,-62.73 442.77,-69.64"/>
</a>
</g>
</g>
<!-- Node5 -->
<g id="Node000005" class="node">
<title>Node5</title>
<g id="a_Node000005"><a xlink:href="thcommon_8c_source.html" target="_top" xlink:title=" ">
<polygon fill="white" stroke="#666666" points="242,-30.5 130,-30.5 130,0 242,0 242,-30.5"/>
<text text-anchor="start" x="138" y="-17" font-family="Helvetica,sans-Serif" font-size="10.00">iop/system/threadman</text>
<text text-anchor="middle" x="186" y="-5.75" font-family="Helvetica,sans-Serif" font-size="10.00">/src/thcommon.c</text>
</a>
</g>
</g>
<!-- Node3&#45;&gt;Node5 -->
<g id="edge4_Node000003_Node000005" class="edge">
<title>Node3&#45;&gt;Node5</title>
<g id="a_edge4_Node000003_Node000005"><a xlink:title=" ">
<path fill="none" stroke="#63b8ff" d="M443.58,-66.05C357.73,-48.95 333.93,-47.24 251,-30.5 248.17,-29.93 245.27,-29.33 242.35,-28.72"/>
<polygon fill="#63b8ff" stroke="#63b8ff" points="442.68,-69.44 453.17,-67.98 444.05,-62.58 442.68,-69.44"/>
</a>
</g>
</g>
<!-- Node6 -->
<g id="Node000006" class="node">
<title>Node6</title>
<g id="a_Node000006"><a xlink:href="thevent_8c_source.html" target="_top" xlink:title=" ">
<polygon fill="white" stroke="#666666" points="372,-30.5 260,-30.5 260,0 372,0 372,-30.5"/>
<text text-anchor="start" x="268" y="-17" font-family="Helvetica,sans-Serif" font-size="10.00">iop/system/threadman</text>
<text text-anchor="middle" x="316" y="-5.75" font-family="Helvetica,sans-Serif" font-size="10.00">/src/thevent.c</text>
</a>
</g>
</g>
<!-- Node3&#45;&gt;Node6 -->
<g id="edge5_Node000003_Node000006" class="edge">
<title>Node3&#45;&gt;Node6</title>
<g id="a_edge5_Node000003_Node000006"><a xlink:title=" ">
<path fill="none" stroke="#63b8ff" d="M455.95,-62.54C425.74,-52.55 388.77,-40.32 360.41,-30.94"/>
<polygon fill="#63b8ff" stroke="#63b8ff" points="454.72,-65.82 465.31,-65.64 456.92,-59.18 454.72,-65.82"/>
</a>
</g>
</g>
<!-- Node7 -->
<g id="Node000007" class="node">
<title>Node7</title>
<g id="a_Node000007"><a xlink:href="thfpool_8c_source.html" target="_top" xlink:title=" ">
<polygon fill="white" stroke="#666666" points="502,-30.5 390,-30.5 390,0 502,0 502,-30.5"/>
<text text-anchor="start" x="398" y="-17" font-family="Helvetica,sans-Serif" font-size="10.00">iop/system/threadman</text>
<text text-anchor="middle" x="446" y="-5.75" font-family="Helvetica,sans-Serif" font-size="10.00">/src/thfpool.c</text>
</a>
</g>
</g>
<!-- Node3&#45;&gt;Node7 -->
<g id="edge6_Node000003_Node000007" class="edge">
<title>Node3&#45;&gt;Node7</title>
<g id="a_edge6_Node000003_Node000007"><a xlink:title=" ">
<path fill="none" stroke="#63b8ff" d="M488.26,-58.19C479.11,-49.11 468.83,-38.9 460.69,-30.83"/>
<polygon fill="#63b8ff" stroke="#63b8ff" points="485.61,-60.49 495.18,-65.05 490.54,-55.52 485.61,-60.49"/>
</a>
</g>
</g>
<!-- Node3&#45;&gt;Node8 -->
<g id="edge7_Node000003_Node000008" class="edge">
<title>Node3&#45;&gt;Node8</title>
<g id="a_edge7_Node000003_Node000008"><a xlink:title=" ">
<path fill="none" stroke="#63b8ff" d="M578.02,-67.09C579.02,-66.89 580.02,-66.69 581,-66.5 665.33,-49.93 686.79,-47.7 771,-30.5 773.83,-29.92 776.73,-29.32 779.65,-28.71"/>
<polygon fill="#63b8ff" stroke="#63b8ff" points="577.76,-63.57 568.63,-68.95 579.13,-70.44 577.76,-63.57"/>
</a>
</g>
</g>
<!-- Node9 -->
<g id="Node000009" class="node">
<title>Node9</title>
<g id="a_Node000009"><a xlink:href="thsemap_8c_source.html" target="_top" xlink:title=" ">
<polygon fill="white" stroke="#666666" points="632,-30.5 520,-30.5 520,0 632,0 632,-30.5"/>
<text text-anchor="start" x="528" y="-17" font-family="Helvetica,sans-Serif" font-size="10.00">iop/system/threadman</text>
<text text-anchor="middle" x="576" y="-5.75" font-family="Helvetica,sans-Serif" font-size="10.00">/src/thsemap.c</text>
</a>
</g>
</g>
<!-- Node3&#45;&gt;Node9 -->
<g id="edge8_Node000003_Node000009" class="edge">
<title>Node3&#45;&gt;Node9</title>
<g id="a_edge8_Node000003_Node000009"><a xlink:title=" ">
<path fill="none" stroke="#63b8ff" d="M533.74,-58.19C542.89,-49.11 553.17,-38.9 561.31,-30.83"/>
<polygon fill="#63b8ff" stroke="#63b8ff" points="531.46,-55.52 526.82,-65.05 536.39,-60.49 531.46,-55.52"/>
</a>
</g>
</g>
<!-- Node10 -->
<g id="Node000010" class="node">
<title>Node10</title>
<g id="a_Node000010"><a xlink:href="thvpool_8c_source.html" target="_top" xlink:title=" ">
<polygon fill="white" stroke="#666666" points="762,-30.5 650,-30.5 650,0 762,0 762,-30.5"/>
<text text-anchor="start" x="658" y="-17" font-family="Helvetica,sans-Serif" font-size="10.00">iop/system/threadman</text>
<text text-anchor="middle" x="706" y="-5.75" font-family="Helvetica,sans-Serif" font-size="10.00">/src/thvpool.c</text>
</a>
</g>
</g>
<!-- Node3&#45;&gt;Node10 -->
<g id="edge9_Node000003_Node000010" class="edge">
<title>Node3&#45;&gt;Node10</title>
<g id="a_edge9_Node000003_Node000010"><a xlink:title=" ">
<path fill="none" stroke="#63b8ff" d="M566.05,-62.54C596.26,-52.55 633.23,-40.32 661.59,-30.94"/>
<polygon fill="#63b8ff" stroke="#63b8ff" points="565.08,-59.18 556.69,-65.64 567.28,-65.82 565.08,-59.18"/>
</a>
</g>
</g>
</g>
</svg>

<g id="navigator" transform="translate(0 0)" fill="#404254">
  <rect fill="#f2f5e9" fill-opacity="0.5" stroke="#606060" stroke-width=".5" x="0" y="0" width="60" height="60"/>
  <use id="zoomplus" xlink:href="#zoomPlus" x="17" y="9" onmousedown="handleZoom(evt,'in')"/>
  <use id="zoomminus" xlink:href="#zoomMin" x="42" y="9" onmousedown="handleZoom(evt,'out')"/>
  <use id="reset" xlink:href="#resetDef" x="30" y="36" onmousedown="handleReset()"/>
   <use id="arrowup" xlink:href="#arrowUp" x="0" y="0" onmousedown="handlePan(0,-1)"/>
  <use id="arrowright" xlink:href="#arrowRight" x="0" y="0" onmousedown="handlePan(1,0)"/>
  <use id="arrowdown" xlink:href="#arrowDown" x="0" y="0" onmousedown="handlePan(0,1)"/>
  <use id="arrowleft" xlink:href="#arrowLeft" x="0" y="0" onmousedown="handlePan(-1,0)"/>
</g>
<svg viewBox="0 0 15 15" width="100%" height="30px" preserveAspectRatio="xMaxYMin meet">
 <g id="arrow_out" transform="scale(0.3 0.3)">
  <a xlink:href="thmsgbx_8h__dep__incl_org.svg" target="_base">
   <rect id="button" ry="5" rx="5" y="6" x="6" height="38" width="38"
        fill="#f2f5e9" fill-opacity="0.5" stroke="#606060" stroke-width="1.0"/>
   <path id="arrow"
     d="M 11.500037,31.436501 C 11.940474,20.09759 22.043105,11.32322 32.158766,21.979434 L 37.068811,17.246167 C 37.068811,17.246167 37.088388,32 37.088388,32 L 22.160133,31.978069 C 22.160133,31.978069 26.997745,27.140456 26.997745,27.140456 C 18.528582,18.264221 13.291696,25.230495 11.500037,31.436501 z"
     style="fill:#404040;"/>
  </a>
 </g>
</svg>

<style type='text/css'>
<![CDATA[
[data-mouse-over-selected='false'] { opacity: 0.7; }
[data-mouse-over-selected='true']  { opacity: 1.0; }
]]>
</style>
<script type="application/ecmascript"><![CDATA[
document.addEventListener('DOMContentLoaded', (event) => {
  highlightEdges();
  highlightAdjacentNodes();
});
]]></script>
</svg>
