<?xml version="1.0" encoding="UTF-8" standalone="no"?>
<!DOCTYPE svg PUBLIC "-//W3C//DTD SVG 1.1//EN"
 "http://www.w3.org/Graphics/SVG/1.1/DTD/svg11.dtd">
<!-- Generated by graphviz version 2.44.0 ()
 -->
<!-- Title: ee/kernel/include/timer.h Pages: 1 -->
<svg width="218pt" height="95pt"
 viewBox="0.00 0.00 218.00 95.00" xmlns="http://www.w3.org/2000/svg" xmlns:xlink="http://www.w3.org/1999/xlink">
<g id="graph0" class="graph" transform="scale(1 1) rotate(0) translate(4 91)">
<title>ee/kernel/include/timer.h</title>
<polygon fill="white" stroke="transparent" points="-4,4 -4,-91 214,-91 214,4 -4,4"/>
<!-- Node1 -->
<g id="node1" class="node">
<title>Node1</title>
<g id="a_node1"><a xlink:title=" ">
<polygon fill="#bfbfbf" stroke="black" points="46.5,-67.5 46.5,-86.5 168.5,-86.5 168.5,-67.5 46.5,-67.5"/>
<text text-anchor="middle" x="107.5" y="-74.5" font-family="Helvetica,sans-Serif" font-size="10.00">ee/kernel/include/timer.h</text>
</a>
</g>
</g>
<!-- Node2 -->
<g id="node2" class="node">
<title>Node2</title>
<g id="a_node2"><a xlink:href="srcfile_2src_2alarm_8c_source.html" target="_top" xlink:title=" ">
<polygon fill="white" stroke="black" points="0,-0.5 0,-30.5 101,-30.5 101,-0.5 0,-0.5"/>
<text text-anchor="start" x="8" y="-18.5" font-family="Helvetica,sans-Serif" font-size="10.00">ee/kernel/src/srcfile</text>
<text text-anchor="middle" x="50.5" y="-7.5" font-family="Helvetica,sans-Serif" font-size="10.00">/src/alarm.c</text>
</a>
</g>
</g>
<!-- Node1&#45;&gt;Node2 -->
<g id="edge1" class="edge">
<title>Node1&#45;&gt;Node2</title>
<path fill="none" stroke="midnightblue" d="M92.26,-60.09C83.44,-50.88 72.43,-39.39 63.93,-30.52"/>
<polygon fill="midnightblue" stroke="midnightblue" points="89.89,-62.68 99.33,-67.48 94.94,-57.83 89.89,-62.68"/>
</g>
<!-- Node3 -->
<g id="node3" class="node">
<title>Node3</title>
<g id="a_node3"><a xlink:href="time_8c.html" target="_top" xlink:title=" ">
<polygon fill="white" stroke="black" points="119,-6 119,-25 210,-25 210,-6 119,-6"/>
<text text-anchor="middle" x="164.5" y="-13" font-family="Helvetica,sans-Serif" font-size="10.00">ee/libc/src/time.c</text>
</a>
</g>
</g>
<!-- Node1&#45;&gt;Node3 -->
<g id="edge2" class="edge">
<title>Node1&#45;&gt;Node3</title>
<path fill="none" stroke="midnightblue" d="M122.83,-60C133.62,-48.74 147.64,-34.1 156.35,-25.01"/>
<polygon fill="midnightblue" stroke="midnightblue" points="120.06,-57.83 115.67,-67.48 125.11,-62.68 120.06,-57.83"/>
</g>
</g>
</svg>
