<?xml version="1.0" encoding="UTF-8" standalone="no"?>
<!DOCTYPE svg PUBLIC "-//W3C//DTD SVG 1.1//EN"
 "http://www.w3.org/Graphics/SVG/1.1/DTD/svg11.dtd">
<!-- Generated by graphviz version 9.0.0 (20230911.1827)
 -->
<!-- Title: ee/kernel/include/timer.h Pages: 1 -->
<svg width="2570pt" height="216pt"
 viewBox="0.00 0.00 2570.38 215.50" xmlns="http://www.w3.org/2000/svg" xmlns:xlink="http://www.w3.org/1999/xlink">
<g id="graph0" class="graph" transform="scale(1 1) rotate(0) translate(4 211.5)">
<title>ee/kernel/include/timer.h</title>
<!-- Node1 -->
<g id="Node000001" class="node">
<title>Node1</title>
<g id="a_Node000001"><a xlink:title=" ">
<polygon fill="#999999" stroke="#666666" points="1055.88,-207.5 934.12,-207.5 934.12,-188.25 1055.88,-188.25 1055.88,-207.5"/>
<text text-anchor="middle" x="995" y="-194" font-family="Helvetica,sans-Serif" font-size="10.00">ee/kernel/include/timer.h</text>
</a>
</g>
</g>
<!-- Node2 -->
<g id="Node000002" class="node">
<title>Node2</title>
<g id="a_Node000002"><a xlink:href="delaythread_8h_source.html" target="_top" xlink:title=" ">
<polygon fill="white" stroke="#666666" points="264.75,-146.62 115.25,-146.62 115.25,-127.38 264.75,-127.38 264.75,-146.62"/>
<text text-anchor="middle" x="190" y="-133.12" font-family="Helvetica,sans-Serif" font-size="10.00">ee/kernel/include/delaythread.h</text>
</a>
</g>
</g>
<!-- Node1&#45;&gt;Node2 -->
<g id="edge1_Node000001_Node000002" class="edge">
<title>Node1&#45;&gt;Node2</title>
<g id="a_edge1_Node000001_Node000002"><a xlink:title=" ">
<path fill="none" stroke="#63b8ff" d="M922.35,-191.56C770.22,-180.44 419.47,-154.78 265.17,-143.5"/>
<polygon fill="#63b8ff" stroke="#63b8ff" points="922.1,-195.05 932.32,-192.29 922.61,-188.07 922.1,-195.05"/>
</a>
</g>
</g>
<!-- Node3 -->
<g id="Node000003" class="node">
<title>Node3</title>
<g id="a_Node000003"><a xlink:href="delaythread_8c.html" target="_top" xlink:title=" ">
<polygon fill="white" stroke="#666666" points="256.12,-80.12 123.88,-80.12 123.88,-60.88 256.12,-60.88 256.12,-80.12"/>
<text text-anchor="middle" x="190" y="-66.62" font-family="Helvetica,sans-Serif" font-size="10.00">ee/kernel/src/delaythread.c</text>
</a>
</g>
</g>
<!-- Node1&#45;&gt;Node3 -->
<g id="edge14_Node000001_Node000003" class="edge">
<title>Node1&#45;&gt;Node3</title>
<g id="a_edge14_Node000001_Node000003"><a xlink:title=" ">
<path fill="none" stroke="#63b8ff" d="M922.25,-191.28C838.81,-184.35 698.04,-171.12 578,-152.25 448.35,-131.87 296.49,-97.03 227.5,-80.59"/>
<polygon fill="#63b8ff" stroke="#63b8ff" points="921.87,-194.76 932.12,-192.09 922.44,-187.78 921.87,-194.76"/>
</a>
</g>
</g>
<!-- Node5 -->
<g id="Node000005" class="node">
<title>Node5</title>
<g id="a_Node000005"><a xlink:href="timer__alarm_8h_source.html" target="_top" xlink:title=" ">
<polygon fill="white" stroke="#666666" points="701.12,-152.25 586.88,-152.25 586.88,-121.75 701.12,-121.75 701.12,-152.25"/>
<text text-anchor="start" x="594.88" y="-138.75" font-family="Helvetica,sans-Serif" font-size="10.00">ee/kernel/include/timer</text>
<text text-anchor="middle" x="644" y="-127.5" font-family="Helvetica,sans-Serif" font-size="10.00">_alarm.h</text>
</a>
</g>
</g>
<!-- Node1&#45;&gt;Node5 -->
<g id="edge4_Node000001_Node000005" class="edge">
<title>Node1&#45;&gt;Node5</title>
<g id="a_edge4_Node000001_Node000005"><a xlink:title=" ">
<path fill="none" stroke="#63b8ff" d="M929.9,-185.96C864.3,-174.95 764.04,-158.13 701.34,-147.62"/>
<polygon fill="#63b8ff" stroke="#63b8ff" points="928.99,-189.35 939.43,-187.55 930.15,-182.45 928.99,-189.35"/>
</a>
</g>
</g>
<!-- Node6 -->
<g id="Node000006" class="node">
<title>Node6</title>
<g id="a_Node000006"><a xlink:href="initsys_8c.html" target="_top" xlink:title=" ">
<polygon fill="white" stroke="#666666" points="782.25,-80.12 671.75,-80.12 671.75,-60.88 782.25,-60.88 782.25,-80.12"/>
<text text-anchor="middle" x="727" y="-66.62" font-family="Helvetica,sans-Serif" font-size="10.00">ee/kernel/src/initsys.c</text>
</a>
</g>
</g>
<!-- Node1&#45;&gt;Node6 -->
<g id="edge15_Node000001_Node000006" class="edge">
<title>Node1&#45;&gt;Node6</title>
<g id="a_edge15_Node000001_Node000006"><a xlink:title=" ">
<path fill="none" stroke="#63b8ff" d="M965.57,-183.11C910.41,-157.3 792.89,-102.33 746.46,-80.6"/>
<polygon fill="#63b8ff" stroke="#63b8ff" points="963.81,-186.15 974.36,-187.22 966.78,-179.81 963.81,-186.15"/>
</a>
</g>
</g>
<!-- Node8 -->
<g id="Node000008" class="node">
<title>Node8</title>
<g id="a_Node000008"><a xlink:href="timer__alarm_8c.html" target="_top" xlink:title=" ">
<polygon fill="white" stroke="#666666" points="897.5,-85.75 800.5,-85.75 800.5,-55.25 897.5,-55.25 897.5,-85.75"/>
<text text-anchor="start" x="808.5" y="-72.25" font-family="Helvetica,sans-Serif" font-size="10.00">ee/kernel/src/timer</text>
<text text-anchor="middle" x="849" y="-61" font-family="Helvetica,sans-Serif" font-size="10.00">_alarm.c</text>
</a>
</g>
</g>
<!-- Node1&#45;&gt;Node8 -->
<g id="edge18_Node000001_Node000008" class="edge">
<title>Node1&#45;&gt;Node8</title>
<g id="a_edge18_Node000001_Node000008"><a xlink:title=" ">
<path fill="none" stroke="#63b8ff" d="M975.78,-180.37C947.04,-155.69 893.3,-109.54 865.94,-86.05"/>
<polygon fill="#63b8ff" stroke="#63b8ff" points="973.48,-183.01 983.35,-186.87 978.05,-177.7 973.48,-183.01"/>
</a>
</g>
</g>
<!-- Node9 -->
<g id="Node000009" class="node">
<title>Node9</title>
<g id="a_Node000009"><a xlink:href="libcglue_2src_2glue_8c_source.html" target="_top" xlink:title=" ">
<polygon fill="white" stroke="#666666" points="1116.75,-19.25 1009.25,-19.25 1009.25,0 1116.75,0 1116.75,-19.25"/>
<text text-anchor="middle" x="1063" y="-5.75" font-family="Helvetica,sans-Serif" font-size="10.00">ee/libcglue/src/glue.c</text>
</a>
</g>
</g>
<!-- Node1&#45;&gt;Node9 -->
<g id="edge37_Node000001_Node000009" class="edge">
<title>Node1&#45;&gt;Node9</title>
<g id="a_edge37_Node000001_Node000009"><a xlink:title=" ">
<path fill="none" stroke="#63b8ff" d="M1002.19,-177.2C1016.77,-137.24 1049.37,-47.97 1059.75,-19.52"/>
<polygon fill="#63b8ff" stroke="#63b8ff" points="998.94,-175.88 998.8,-186.47 1005.52,-178.28 998.94,-175.88"/>
</a>
</g>
</g>
<!-- Node13 -->
<g id="Node000013" class="node">
<title>Node13</title>
<g id="a_Node000013"><a xlink:href="alarm_8c.html" target="_top" xlink:title=" ">
<polygon fill="white" stroke="#666666" points="1695.38,-146.62 1588.62,-146.62 1588.62,-127.38 1695.38,-127.38 1695.38,-146.62"/>
<text text-anchor="middle" x="1642" y="-133.12" font-family="Helvetica,sans-Serif" font-size="10.00">ee/kernel/src/alarm.c</text>
</a>
</g>
</g>
<!-- Node1&#45;&gt;Node13 -->
<g id="edge13_Node000001_Node000013" class="edge">
<title>Node1&#45;&gt;Node13</title>
<g id="a_edge13_Node000001_Node000013"><a xlink:title=" ">
<path fill="none" stroke="#63b8ff" d="M1067.64,-194.74C1178.47,-190.7 1396.18,-179.76 1579,-152.25 1587.87,-150.92 1597.35,-149.02 1606.19,-147.05"/>
<polygon fill="#63b8ff" stroke="#63b8ff" points="1067.67,-191.23 1057.8,-195.08 1067.92,-198.23 1067.67,-191.23"/>
</a>
</g>
</g>
<!-- Node14 -->
<g id="Node000014" class="node">
<title>Node14</title>
<g id="a_Node000014"><a xlink:href="srcfile_2src_2alarm_8c_source.html" target="_top" xlink:title=" ">
<polygon fill="white" stroke="#666666" points="1814.38,-152.25 1713.62,-152.25 1713.62,-121.75 1814.38,-121.75 1814.38,-152.25"/>
<text text-anchor="start" x="1721.62" y="-138.75" font-family="Helvetica,sans-Serif" font-size="10.00">ee/kernel/src/srcfile</text>
<text text-anchor="middle" x="1764" y="-127.5" font-family="Helvetica,sans-Serif" font-size="10.00">/src/alarm.c</text>
</a>
</g>
</g>
<!-- Node1&#45;&gt;Node14 -->
<g id="edge16_Node000001_Node000014" class="edge">
<title>Node1&#45;&gt;Node14</title>
<g id="a_edge16_Node000001_Node000014"><a xlink:title=" ">
<path fill="none" stroke="#63b8ff" d="M1067.31,-196.38C1196.03,-194.59 1473.1,-186.68 1704,-152.25 1707.07,-151.79 1710.22,-151.26 1713.38,-150.66"/>
<polygon fill="#63b8ff" stroke="#63b8ff" points="1067.53,-192.87 1057.58,-196.5 1067.62,-199.87 1067.53,-192.87"/>
</a>
</g>
</g>
<!-- Node15 -->
<g id="Node000015" class="node">
<title>Node15</title>
<g id="a_Node000015"><a xlink:href="ee_2kernel_2src_2timer_8c.html" target="_top" xlink:title=" ">
<polygon fill="white" stroke="#666666" points="1937.25,-146.62 1832.75,-146.62 1832.75,-127.38 1937.25,-127.38 1937.25,-146.62"/>
<text text-anchor="middle" x="1885" y="-133.12" font-family="Helvetica,sans-Serif" font-size="10.00">ee/kernel/src/timer.c</text>
</a>
</g>
</g>
<!-- Node1&#45;&gt;Node15 -->
<g id="edge17_Node000001_Node000015" class="edge">
<title>Node1&#45;&gt;Node15</title>
<g id="a_edge17_Node000001_Node000015"><a xlink:title=" ">
<path fill="none" stroke="#63b8ff" d="M1067.43,-197.15C1211.88,-196.77 1545.76,-191.29 1823,-152.25 1831.86,-151 1841.32,-149.12 1850.11,-147.12"/>
<polygon fill="#63b8ff" stroke="#63b8ff" points="1067.62,-193.64 1057.63,-197.16 1067.64,-200.64 1067.62,-193.64"/>
</a>
</g>
</g>
<!-- Node16 -->
<g id="Node000016" class="node">
<title>Node16</title>
<g id="a_Node000016"><a xlink:href="ps2sdkapi_8h_source.html" target="_top" xlink:title=" ">
<polygon fill="white" stroke="#666666" points="1570.12,-152.25 1473.88,-152.25 1473.88,-121.75 1570.12,-121.75 1570.12,-152.25"/>
<text text-anchor="start" x="1481.88" y="-138.75" font-family="Helvetica,sans-Serif" font-size="10.00">ee/libcglue/include</text>
<text text-anchor="middle" x="1522" y="-127.5" font-family="Helvetica,sans-Serif" font-size="10.00">/ps2sdkapi.h</text>
</a>
</g>
</g>
<!-- Node1&#45;&gt;Node16 -->
<g id="edge19_Node000001_Node000016" class="edge">
<title>Node1&#45;&gt;Node16</title>
<g id="a_edge19_Node000001_Node000016"><a xlink:title=" ">
<path fill="none" stroke="#63b8ff" d="M1067.46,-188.78C1176.72,-176.57 1380.73,-153.78 1473.65,-143.4"/>
<polygon fill="#63b8ff" stroke="#63b8ff" points="1067.28,-185.28 1057.73,-189.87 1068.06,-192.23 1067.28,-185.28"/>
</a>
</g>
</g>
<!-- Node2&#45;&gt;Node3 -->
<g id="edge2_Node000002_Node000003" class="edge">
<title>Node2&#45;&gt;Node3</title>
<g id="a_edge2_Node000002_Node000003"><a xlink:title=" ">
<path fill="none" stroke="#63b8ff" d="M190,-115.52C190,-103.69 190,-89.41 190,-80.39"/>
<polygon fill="#63b8ff" stroke="#63b8ff" points="186.5,-115.52 190,-125.52 193.5,-115.52 186.5,-115.52"/>
</a>
</g>
</g>
<!-- Node4 -->
<g id="Node000004" class="node">
<title>Node4</title>
<g id="a_Node000004"><a xlink:href="osal_8c_source.html" target="_top" xlink:title=" ">
<polygon fill="white" stroke="#666666" points="106,-85.75 0,-85.75 0,-55.25 106,-55.25 106,-85.75"/>
<text text-anchor="start" x="8" y="-72.25" font-family="Helvetica,sans-Serif" font-size="10.00">ee/libpthreadglue/src</text>
<text text-anchor="middle" x="53" y="-61" font-family="Helvetica,sans-Serif" font-size="10.00">/osal.c</text>
</a>
</g>
</g>
<!-- Node2&#45;&gt;Node4 -->
<g id="edge3_Node000002_Node000004" class="edge">
<title>Node2&#45;&gt;Node4</title>
<g id="a_edge3_Node000002_Node000004"><a xlink:title=" ">
<path fill="none" stroke="#63b8ff" d="M160.36,-122.04C137.85,-111.45 106.98,-96.91 84.11,-86.15"/>
<polygon fill="#63b8ff" stroke="#63b8ff" points="158.75,-125.16 169.29,-126.25 161.74,-118.82 158.75,-125.16"/>
</a>
</g>
</g>
<!-- Node5&#45;&gt;Node3 -->
<g id="edge5_Node000005_Node000003" class="edge">
<title>Node5&#45;&gt;Node3</title>
<g id="a_edge5_Node000005_Node000003"><a xlink:title=" ">
<path fill="none" stroke="#63b8ff" d="M575.26,-127.98C499.39,-118.86 373.72,-103 266,-85.75 256.32,-84.2 245.99,-82.38 236.15,-80.56"/>
<polygon fill="#63b8ff" stroke="#63b8ff" points="574.7,-131.43 585.04,-129.15 575.53,-124.48 574.7,-131.43"/>
</a>
</g>
</g>
<!-- Node5&#45;&gt;Node6 -->
<g id="edge6_Node000005_Node000006" class="edge">
<title>Node5&#45;&gt;Node6</title>
<g id="a_edge6_Node000005_Node000006"><a xlink:title=" ">
<path fill="none" stroke="#63b8ff" d="M671.73,-114.45C686.71,-102.81 704.39,-89.07 715.65,-80.32"/>
<polygon fill="#63b8ff" stroke="#63b8ff" points="669.78,-111.54 664.03,-120.44 674.07,-117.06 669.78,-111.54"/>
</a>
</g>
</g>
<!-- Node7 -->
<g id="Node000007" class="node">
<title>Node7</title>
<g id="a_Node000007"><a xlink:href="kernel__util_8c_source.html" target="_top" xlink:title=" ">
<polygon fill="white" stroke="#666666" points="615.75,-85.75 514.25,-85.75 514.25,-55.25 615.75,-55.25 615.75,-85.75"/>
<text text-anchor="start" x="522.25" y="-72.25" font-family="Helvetica,sans-Serif" font-size="10.00">ee/kernel/src/kernel</text>
<text text-anchor="middle" x="565" y="-61" font-family="Helvetica,sans-Serif" font-size="10.00">_util.c</text>
</a>
</g>
</g>
<!-- Node5&#45;&gt;Node7 -->
<g id="edge7_Node000005_Node000007" class="edge">
<title>Node5&#45;&gt;Node7</title>
<g id="a_edge7_Node000005_Node000007"><a xlink:title=" ">
<path fill="none" stroke="#63b8ff" d="M617.38,-114.27C606.01,-104.98 593.04,-94.4 582.86,-86.08"/>
<polygon fill="#63b8ff" stroke="#63b8ff" points="614.94,-116.79 624.9,-120.41 619.37,-111.37 614.94,-116.79"/>
</a>
</g>
</g>
<!-- Node5&#45;&gt;Node8 -->
<g id="edge8_Node000005_Node000008" class="edge">
<title>Node5&#45;&gt;Node8</title>
<g id="a_edge8_Node000005_Node000008"><a xlink:title=" ">
<path fill="none" stroke="#63b8ff" d="M701.71,-117.84C733.54,-107.83 772.55,-95.55 802.43,-86.15"/>
<polygon fill="#63b8ff" stroke="#63b8ff" points="700.71,-114.49 692.22,-120.83 702.81,-121.17 700.71,-114.49"/>
</a>
</g>
</g>
<!-- Node5&#45;&gt;Node9 -->
<g id="edge9_Node000005_Node000009" class="edge">
<title>Node5&#45;&gt;Node9</title>
<g id="a_edge9_Node000005_Node000009"><a xlink:title=" ">
<path fill="none" stroke="#63b8ff" d="M642.87,-109.74C643.61,-91.71 647.85,-68.68 663,-55.25 688.39,-32.74 905.55,-18.7 1008.84,-13.23"/>
<polygon fill="#63b8ff" stroke="#63b8ff" points="639.37,-109.72 642.82,-119.74 646.37,-109.75 639.37,-109.72"/>
</a>
</g>
</g>
<!-- Node10 -->
<g id="Node000010" class="node">
<title>Node10</title>
<g id="a_Node000010"><a xlink:href="rtc_8c.html" target="_top" xlink:title=" ">
<polygon fill="white" stroke="#666666" points="1016.38,-80.12 915.62,-80.12 915.62,-60.88 1016.38,-60.88 1016.38,-80.12"/>
<text text-anchor="middle" x="966" y="-66.62" font-family="Helvetica,sans-Serif" font-size="10.00">ee/libcglue/src/rtc.c</text>
</a>
</g>
</g>
<!-- Node5&#45;&gt;Node10 -->
<g id="edge10_Node000005_Node000010" class="edge">
<title>Node5&#45;&gt;Node10</title>
<g id="a_edge10_Node000005_Node000010"><a xlink:title=" ">
<path fill="none" stroke="#63b8ff" d="M712.68,-123.68C765.62,-113.97 840.61,-99.78 906,-85.75 913.43,-84.16 921.36,-82.35 928.93,-80.57"/>
<polygon fill="#63b8ff" stroke="#63b8ff" points="712.09,-120.23 702.88,-125.47 713.34,-127.11 712.09,-120.23"/>
</a>
</g>
</g>
<!-- Node11 -->
<g id="Node000011" class="node">
<title>Node11</title>
<g id="a_Node000011"><a xlink:href="sleep_8c.html" target="_top" xlink:title=" ">
<polygon fill="white" stroke="#666666" points="387.38,-80.12 274.62,-80.12 274.62,-60.88 387.38,-60.88 387.38,-80.12"/>
<text text-anchor="middle" x="331" y="-66.62" font-family="Helvetica,sans-Serif" font-size="10.00">ee/libcglue/src/sleep.c</text>
</a>
</g>
</g>
<!-- Node5&#45;&gt;Node11 -->
<g id="edge11_Node000005_Node000011" class="edge">
<title>Node5&#45;&gt;Node11</title>
<g id="a_edge11_Node000005_Node000011"><a xlink:title=" ">
<path fill="none" stroke="#63b8ff" d="M575.33,-122.26C525.75,-112.28 457.2,-98.37 397,-85.75 389.2,-84.11 380.88,-82.34 372.88,-80.62"/>
<polygon fill="#63b8ff" stroke="#63b8ff" points="574.59,-125.68 585.08,-124.22 575.97,-118.82 574.59,-125.68"/>
</a>
</g>
</g>
<!-- Node12 -->
<g id="Node000012" class="node">
<title>Node12</title>
<g id="a_Node000012"><a xlink:href="prof_8c_source.html" target="_top" xlink:title=" ">
<polygon fill="white" stroke="#666666" points="496.12,-85.75 405.88,-85.75 405.88,-55.25 496.12,-55.25 496.12,-85.75"/>
<text text-anchor="start" x="413.88" y="-72.25" font-family="Helvetica,sans-Serif" font-size="10.00">ee/libprofglue/src</text>
<text text-anchor="middle" x="451" y="-61" font-family="Helvetica,sans-Serif" font-size="10.00">/prof.c</text>
</a>
</g>
</g>
<!-- Node5&#45;&gt;Node12 -->
<g id="edge12_Node000005_Node000012" class="edge">
<title>Node5&#45;&gt;Node12</title>
<g id="a_edge12_Node000005_Node000012"><a xlink:title=" ">
<path fill="none" stroke="#63b8ff" d="M589.52,-117.79C559.61,-107.8 523.02,-95.57 494.96,-86.19"/>
<polygon fill="#63b8ff" stroke="#63b8ff" points="588.18,-121.03 598.77,-120.88 590.39,-114.39 588.18,-121.03"/>
</a>
</g>
</g>
<!-- Node16&#45;&gt;Node9 -->
<g id="edge25_Node000016_Node000009" class="edge">
<title>Node16&#45;&gt;Node9</title>
<g id="a_edge25_Node000016_Node000009"><a xlink:title=" ">
<path fill="none" stroke="#63b8ff" d="M1462.24,-135.67C1360.23,-134.01 1157.98,-125.63 1101,-85.75 1078.13,-69.74 1068.23,-35.8 1064.68,-19.6"/>
<polygon fill="#63b8ff" stroke="#63b8ff" points="1462.01,-139.17 1472.06,-135.81 1462.11,-132.17 1462.01,-139.17"/>
</a>
</g>
</g>
<!-- Node16&#45;&gt;Node10 -->
<g id="edge28_Node000016_Node000010" class="edge">
<title>Node16&#45;&gt;Node10</title>
<g id="a_edge28_Node000016_Node000010"><a xlink:title=" ">
<path fill="none" stroke="#63b8ff" d="M1462.36,-129.95C1375.52,-121.01 1209.2,-103.42 1068,-85.75 1051.32,-83.66 1033.14,-81.19 1016.81,-78.89"/>
<polygon fill="#63b8ff" stroke="#63b8ff" points="1461.76,-133.4 1472.06,-130.94 1462.47,-126.44 1461.76,-133.4"/>
</a>
</g>
</g>
<!-- Node17 -->
<g id="Node000017" class="node">
<title>Node17</title>
<g id="a_Node000017"><a xlink:href="loader_8c_source.html" target="_top" xlink:title=" ">
<polygon fill="white" stroke="#666666" points="2516.5,-85.75 2401.5,-85.75 2401.5,-55.25 2516.5,-55.25 2516.5,-85.75"/>
<text text-anchor="start" x="2409.5" y="-72.25" font-family="Helvetica,sans-Serif" font-size="10.00">ee/elf&#45;loader/src/loader</text>
<text text-anchor="middle" x="2459" y="-61" font-family="Helvetica,sans-Serif" font-size="10.00">/src/loader.c</text>
</a>
</g>
</g>
<!-- Node16&#45;&gt;Node17 -->
<g id="edge20_Node000016_Node000017" class="edge">
<title>Node16&#45;&gt;Node17</title>
<g id="a_edge20_Node000016_Node000017"><a xlink:title=" ">
<path fill="none" stroke="#63b8ff" d="M1581.8,-121.73C1939.57,-71.65 2037.34,-131.01 2392,-85.75 2395.07,-85.36 2398.2,-84.9 2401.36,-84.39"/>
<polygon fill="#63b8ff" stroke="#63b8ff" points="1581.5,-118.24 1572.1,-123.11 1582.49,-125.17 1581.5,-118.24"/>
</a>
</g>
</g>
<!-- Node18 -->
<g id="Node000018" class="node">
<title>Node18</title>
<g id="a_Node000018"><a xlink:href="fdman_8h_source.html" target="_top" xlink:title=" ">
<polygon fill="white" stroke="#666666" points="2383.25,-80.12 2266.75,-80.12 2266.75,-60.88 2383.25,-60.88 2383.25,-80.12"/>
<text text-anchor="middle" x="2325" y="-66.62" font-family="Helvetica,sans-Serif" font-size="10.00">ee/libcglue/src/fdman.h</text>
</a>
</g>
</g>
<!-- Node16&#45;&gt;Node18 -->
<g id="edge21_Node000016_Node000018" class="edge">
<title>Node16&#45;&gt;Node18</title>
<g id="a_edge21_Node000016_Node000018"><a xlink:title=" ">
<path fill="none" stroke="#63b8ff" d="M1581.78,-121.72C1880.5,-78.71 1962.49,-124.78 2258,-85.75 2267.55,-84.49 2277.76,-82.6 2287.27,-80.6"/>
<polygon fill="#63b8ff" stroke="#63b8ff" points="1581.49,-118.23 1572.1,-123.14 1582.5,-125.15 1581.49,-118.23"/>
</a>
</g>
</g>
<!-- Node20 -->
<g id="Node000020" class="node">
<title>Node20</title>
<g id="a_Node000020"><a xlink:href="socket_8c_source.html" target="_top" xlink:title=" ">
<polygon fill="white" stroke="#666666" points="2562.38,-19.25 2443.62,-19.25 2443.62,0 2562.38,0 2562.38,-19.25"/>
<text text-anchor="middle" x="2503" y="-5.75" font-family="Helvetica,sans-Serif" font-size="10.00">ee/libcglue/src/socket.c</text>
</a>
</g>
</g>
<!-- Node16&#45;&gt;Node20 -->
<g id="edge30_Node000016_Node000020" class="edge">
<title>Node16&#45;&gt;Node20</title>
<g id="a_edge30_Node000016_Node000020"><a xlink:title=" ">
<path fill="none" stroke="#63b8ff" d="M1581.7,-122.32C1699.43,-115.1 2490.99,-122.12 2526,-85.75 2543.97,-67.08 2522.6,-34.74 2510.38,-19.31"/>
<polygon fill="#63b8ff" stroke="#63b8ff" points="1581.76,-118.8 1572.1,-123.17 1582.37,-125.77 1581.76,-118.8"/>
</a>
</g>
</g>
<!-- Node21 -->
<g id="Node000021" class="node">
<title>Node21</title>
<g id="a_Node000021"><a xlink:href="netdb_8c_source.html" target="_top" xlink:title=" ">
<polygon fill="white" stroke="#666666" points="1223.75,-80.12 1110.25,-80.12 1110.25,-60.88 1223.75,-60.88 1223.75,-80.12"/>
<text text-anchor="middle" x="1167" y="-66.62" font-family="Helvetica,sans-Serif" font-size="10.00">ee/libcglue/src/netdb.c</text>
</a>
</g>
</g>
<!-- Node16&#45;&gt;Node21 -->
<g id="edge26_Node000016_Node000021" class="edge">
<title>Node16&#45;&gt;Node21</title>
<g id="a_edge26_Node000016_Node000021"><a xlink:title=" ">
<path fill="none" stroke="#63b8ff" d="M1462.32,-126.35C1403.79,-116.71 1312.08,-101.16 1233,-85.75 1224.83,-84.16 1216.12,-82.35 1207.79,-80.58"/>
<polygon fill="#63b8ff" stroke="#63b8ff" points="1461.64,-129.78 1472.07,-127.95 1462.77,-122.88 1461.64,-129.78"/>
</a>
</g>
</g>
<!-- Node22 -->
<g id="Node000022" class="node">
<title>Node22</title>
<g id="a_Node000022"><a xlink:href="ps2sdkapi_8c.html" target="_top" xlink:title=" ">
<polygon fill="white" stroke="#666666" points="1375.88,-80.12 1242.12,-80.12 1242.12,-60.88 1375.88,-60.88 1375.88,-80.12"/>
<text text-anchor="middle" x="1309" y="-66.62" font-family="Helvetica,sans-Serif" font-size="10.00">ee/libcglue/src/ps2sdkapi.c</text>
</a>
</g>
</g>
<!-- Node16&#45;&gt;Node22 -->
<g id="edge27_Node000016_Node000022" class="edge">
<title>Node16&#45;&gt;Node22</title>
<g id="a_edge27_Node000016_Node000022"><a xlink:title=" ">
<path fill="none" stroke="#63b8ff" d="M1462.39,-117.95C1422.2,-105.78 1370.89,-90.24 1338.99,-80.58"/>
<polygon fill="#63b8ff" stroke="#63b8ff" points="1461.37,-121.3 1471.95,-120.84 1463.4,-114.6 1461.37,-121.3"/>
</a>
</g>
</g>
<!-- Node23 -->
<g id="Node000023" class="node">
<title>Node23</title>
<g id="a_Node000023"><a xlink:href="select_8c_source.html" target="_top" xlink:title=" ">
<polygon fill="white" stroke="#666666" points="1509.88,-80.12 1394.12,-80.12 1394.12,-60.88 1509.88,-60.88 1509.88,-80.12"/>
<text text-anchor="middle" x="1452" y="-66.62" font-family="Helvetica,sans-Serif" font-size="10.00">ee/libcglue/src/select.c</text>
</a>
</g>
</g>
<!-- Node16&#45;&gt;Node23 -->
<g id="edge29_Node000016_Node000023" class="edge">
<title>Node16&#45;&gt;Node23</title>
<g id="a_edge29_Node000016_Node000023"><a xlink:title=" ">
<path fill="none" stroke="#63b8ff" d="M1497.89,-113.79C1485.42,-102.29 1470.89,-88.9 1461.57,-80.32"/>
<polygon fill="#63b8ff" stroke="#63b8ff" points="1495.28,-116.14 1505,-120.34 1500.02,-110.99 1495.28,-116.14"/>
</a>
</g>
</g>
<!-- Node24 -->
<g id="Node000024" class="node">
<title>Node24</title>
<g id="a_Node000024"><a xlink:href="timezone_8c.html" target="_top" xlink:title=" ">
<polygon fill="white" stroke="#666666" points="1656.25,-80.12 1527.75,-80.12 1527.75,-60.88 1656.25,-60.88 1656.25,-80.12"/>
<text text-anchor="middle" x="1592" y="-66.62" font-family="Helvetica,sans-Serif" font-size="10.00">ee/libcglue/src/timezone.c</text>
</a>
</g>
</g>
<!-- Node16&#45;&gt;Node24 -->
<g id="edge31_Node000016_Node000024" class="edge">
<title>Node16&#45;&gt;Node24</title>
<g id="a_edge31_Node000016_Node000024"><a xlink:title=" ">
<path fill="none" stroke="#63b8ff" d="M1546.11,-113.79C1558.58,-102.29 1573.11,-88.9 1582.43,-80.32"/>
<polygon fill="#63b8ff" stroke="#63b8ff" points="1543.98,-110.99 1539,-120.34 1548.72,-116.14 1543.98,-110.99"/>
</a>
</g>
</g>
<!-- Node25 -->
<g id="Node000025" class="node">
<title>Node25</title>
<g id="a_Node000025"><a xlink:href="ps2ip__ps2sdk_8c_source.html" target="_top" xlink:title=" ">
<polygon fill="white" stroke="#666666" points="1779.25,-85.75 1674.75,-85.75 1674.75,-55.25 1779.25,-55.25 1779.25,-85.75"/>
<text text-anchor="start" x="1682.75" y="-72.25" font-family="Helvetica,sans-Serif" font-size="10.00">ee/network/tcpip/src</text>
<text text-anchor="middle" x="1727" y="-61" font-family="Helvetica,sans-Serif" font-size="10.00">/ps2ip_ps2sdk.c</text>
</a>
</g>
</g>
<!-- Node16&#45;&gt;Node25 -->
<g id="edge32_Node000016_Node000025" class="edge">
<title>Node16&#45;&gt;Node25</title>
<g id="a_edge32_Node000016_Node000025"><a xlink:title=" ">
<path fill="none" stroke="#63b8ff" d="M1579.71,-117.84C1611.54,-107.83 1650.55,-95.55 1680.43,-86.15"/>
<polygon fill="#63b8ff" stroke="#63b8ff" points="1578.71,-114.49 1570.22,-120.83 1580.81,-121.17 1578.71,-114.49"/>
</a>
</g>
</g>
<!-- Node26 -->
<g id="Node000026" class="node">
<title>Node26</title>
<g id="a_Node000026"><a xlink:href="file_xio__ps2sdk_8c.html" target="_top" xlink:title=" ">
<polygon fill="white" stroke="#666666" points="1886.75,-85.75 1797.25,-85.75 1797.25,-55.25 1886.75,-55.25 1886.75,-85.75"/>
<text text-anchor="start" x="1805.25" y="-72.25" font-family="Helvetica,sans-Serif" font-size="10.00">ee/rpc/filexio/src</text>
<text text-anchor="middle" x="1842" y="-61" font-family="Helvetica,sans-Serif" font-size="10.00">/fileXio_ps2sdk.c</text>
</a>
</g>
</g>
<!-- Node16&#45;&gt;Node26 -->
<g id="edge33_Node000016_Node000026" class="edge">
<title>Node16&#45;&gt;Node26</title>
<g id="a_edge33_Node000016_Node000026"><a xlink:title=" ">
<path fill="none" stroke="#63b8ff" d="M1581.63,-121.52C1673.8,-102.76 1699.83,-104.98 1788,-85.75 1790.94,-85.11 1793.95,-84.42 1796.99,-83.69"/>
<polygon fill="#63b8ff" stroke="#63b8ff" points="1580.93,-118.09 1571.85,-123.54 1582.35,-124.95 1580.93,-118.09"/>
</a>
</g>
</g>
<!-- Node27 -->
<g id="Node000027" class="node">
<title>Node27</title>
<g id="a_Node000027"><a xlink:href="file_xio__rpc_8c.html" target="_top" xlink:title=" ">
<polygon fill="white" stroke="#666666" points="1991.25,-85.75 1904.75,-85.75 1904.75,-55.25 1991.25,-55.25 1991.25,-85.75"/>
<text text-anchor="start" x="1912.75" y="-72.25" font-family="Helvetica,sans-Serif" font-size="10.00">ee/rpc/filexio/src</text>
<text text-anchor="middle" x="1948" y="-61" font-family="Helvetica,sans-Serif" font-size="10.00">/fileXio_rpc.c</text>
</a>
</g>
</g>
<!-- Node16&#45;&gt;Node27 -->
<g id="edge34_Node000016_Node000027" class="edge">
<title>Node16&#45;&gt;Node27</title>
<g id="a_edge34_Node000016_Node000027"><a xlink:title=" ">
<path fill="none" stroke="#63b8ff" d="M1581.45,-121.68C1721.14,-97.6 1760.73,-111.83 1896,-85.75 1898.76,-85.22 1901.58,-84.62 1904.42,-83.97"/>
<polygon fill="#63b8ff" stroke="#63b8ff" points="1581.05,-118.19 1571.81,-123.38 1582.27,-125.09 1581.05,-118.19"/>
</a>
</g>
</g>
<!-- Node28 -->
<g id="Node000028" class="node">
<title>Node28</title>
<g id="a_Node000028"><a xlink:href="libkbd_8c.html" target="_top" xlink:title=" ">
<polygon fill="white" stroke="#666666" points="2110.75,-85.75 2009.25,-85.75 2009.25,-55.25 2110.75,-55.25 2110.75,-85.75"/>
<text text-anchor="start" x="2017.25" y="-72.25" font-family="Helvetica,sans-Serif" font-size="10.00">ee/rpc/keyboard/src</text>
<text text-anchor="middle" x="2060" y="-61" font-family="Helvetica,sans-Serif" font-size="10.00">/libkbd.c</text>
</a>
</g>
</g>
<!-- Node16&#45;&gt;Node28 -->
<g id="edge35_Node000016_Node000028" class="edge">
<title>Node16&#45;&gt;Node28</title>
<g id="a_edge35_Node000016_Node000028"><a xlink:title=" ">
<path fill="none" stroke="#63b8ff" d="M1581.84,-121.65C1766.87,-92.23 1818.64,-114.9 2000,-85.75 2002.96,-85.27 2005.99,-84.73 2009.04,-84.14"/>
<polygon fill="#63b8ff" stroke="#63b8ff" points="1581.42,-118.17 1572.11,-123.23 1582.55,-125.08 1581.42,-118.17"/>
</a>
</g>
</g>
<!-- Node29 -->
<g id="Node000029" class="node">
<title>Node29</title>
<g id="a_Node000029"><a xlink:href="ps2ipc__ps2sdk_8c_source.html" target="_top" xlink:title=" ">
<polygon fill="white" stroke="#666666" points="2249.12,-85.75 2128.88,-85.75 2128.88,-55.25 2249.12,-55.25 2249.12,-85.75"/>
<text text-anchor="start" x="2136.88" y="-72.25" font-family="Helvetica,sans-Serif" font-size="10.00">ee/rpc/tcpips/src/ps2ipc</text>
<text text-anchor="middle" x="2189" y="-61" font-family="Helvetica,sans-Serif" font-size="10.00">_ps2sdk.c</text>
</a>
</g>
</g>
<!-- Node16&#45;&gt;Node29 -->
<g id="edge36_Node000016_Node000029" class="edge">
<title>Node16&#45;&gt;Node29</title>
<g id="a_edge36_Node000016_Node000029"><a xlink:title=" ">
<path fill="none" stroke="#63b8ff" d="M1581.71,-121.71C1819.67,-85.91 1885.27,-117.66 2120,-85.75 2122.79,-85.37 2125.63,-84.95 2128.5,-84.48"/>
<polygon fill="#63b8ff" stroke="#63b8ff" points="1581.46,-118.2 1572.11,-123.18 1582.52,-125.12 1581.46,-118.2"/>
</a>
</g>
</g>
<!-- Node18&#45;&gt;Node9 -->
<g id="edge23_Node000018_Node000009" class="edge">
<title>Node18&#45;&gt;Node9</title>
<g id="a_edge23_Node000018_Node000009"><a xlink:title=" ">
<path fill="none" stroke="#63b8ff" d="M2276.82,-58.22C2270.51,-57.05 2264.12,-56.01 2258,-55.25 2032.65,-27.29 1319.88,-14.53 1117.23,-11.41"/>
<polygon fill="#63b8ff" stroke="#63b8ff" points="2276.01,-61.62 2286.5,-60.14 2277.37,-54.76 2276.01,-61.62"/>
</a>
</g>
</g>
<!-- Node19 -->
<g id="Node000019" class="node">
<title>Node19</title>
<g id="a_Node000019"><a xlink:href="fdman_8c.html" target="_top" xlink:title=" ">
<polygon fill="white" stroke="#666666" points="2383.25,-19.25 2266.75,-19.25 2266.75,0 2383.25,0 2383.25,-19.25"/>
<text text-anchor="middle" x="2325" y="-5.75" font-family="Helvetica,sans-Serif" font-size="10.00">ee/libcglue/src/fdman.c</text>
</a>
</g>
</g>
<!-- Node18&#45;&gt;Node19 -->
<g id="edge22_Node000018_Node000019" class="edge">
<title>Node18&#45;&gt;Node19</title>
<g id="a_edge22_Node000018_Node000019"><a xlink:title=" ">
<path fill="none" stroke="#63b8ff" d="M2325,-49.07C2325,-39.04 2325,-27.46 2325,-19.65"/>
<polygon fill="#63b8ff" stroke="#63b8ff" points="2321.5,-49.04 2325,-59.04 2328.5,-49.04 2321.5,-49.04"/>
</a>
</g>
</g>
<!-- Node18&#45;&gt;Node20 -->
<g id="edge24_Node000018_Node000020" class="edge">
<title>Node18&#45;&gt;Node20</title>
<g id="a_edge24_Node000018_Node000020"><a xlink:title=" ">
<path fill="none" stroke="#63b8ff" d="M2363.27,-56.84C2397.06,-45.67 2445.48,-29.65 2475.55,-19.71"/>
<polygon fill="#63b8ff" stroke="#63b8ff" points="2362.25,-53.49 2353.86,-59.95 2364.45,-60.14 2362.25,-53.49"/>
</a>
</g>
</g>
</g>
</svg>
