<?xml version="1.0" encoding="UTF-8" standalone="no"?>
<!DOCTYPE svg PUBLIC "-//W3C//DTD SVG 1.1//EN"
 "http://www.w3.org/Graphics/SVG/1.1/DTD/svg11.dtd">
<!-- Generated by graphviz version 12.2.0 (20241103.1931)
 -->
<!-- Title: ee/libcglue/src/timezone.c Pages: 1 -->
<svg width="754pt" height="248pt"
 viewBox="0.00 0.00 754.38 248.25" xmlns="http://www.w3.org/2000/svg" xmlns:xlink="http://www.w3.org/1999/xlink">
<g id="graph0" class="graph" transform="scale(1 1) rotate(0) translate(4 244.25)">
<title>ee/libcglue/src/timezone.c</title>
<!-- Node1 -->
<g id="Node000001" class="node">
<title>Node1</title>
<g id="a_Node000001"><a xlink:title=" ">
<polygon fill="#999999" stroke="#666666" points="455.5,-240.25 327,-240.25 327,-221 455.5,-221 455.5,-240.25"/>
<text text-anchor="middle" x="391.25" y="-226.75" font-family="Helvetica,sans-Serif" font-size="10.00">ee/libcglue/src/timezone.c</text>
</a>
</g>
</g>
<!-- Node2 -->
<g id="Node000002" class="node">
<title>Node2</title>
<g id="a_Node000002"><a xlink:href="time_8h.html" target="_top" xlink:title=" ">
<polygon fill="white" stroke="#666666" points="45.38,-185 3.12,-185 3.12,-165.75 45.38,-165.75 45.38,-185"/>
<text text-anchor="middle" x="24.25" y="-171.5" font-family="Helvetica,sans-Serif" font-size="10.00">time.h</text>
</a>
</g>
</g>
<!-- Node1&#45;&gt;Node2 -->
<g id="edge1_Node000001_Node000002" class="edge">
<title>Node1&#45;&gt;Node2</title>
<g id="a_edge1_Node000001_Node000002"><a xlink:title=" ">
<path fill="none" stroke="#63b8ff" d="M326.79,-223.96C261.08,-217.54 156.06,-205.51 56.91,-185.29"/>
<polygon fill="#63b8ff" stroke="#63b8ff" points="57.77,-181.89 47.27,-183.29 56.35,-188.75 57.77,-181.89"/>
</a>
</g>
</g>
<!-- Node3 -->
<g id="Node000003" class="node">
<title>Node3</title>
<g id="a_Node000003"><a xlink:href="stdio_8h.html" target="_top" xlink:title=" ">
<polygon fill="white" stroke="#666666" points="107.5,-185 63,-185 63,-165.75 107.5,-165.75 107.5,-185"/>
<text text-anchor="middle" x="85.25" y="-171.5" font-family="Helvetica,sans-Serif" font-size="10.00">stdio.h</text>
</a>
</g>
</g>
<!-- Node1&#45;&gt;Node3 -->
<g id="edge2_Node000001_Node000003" class="edge">
<title>Node1&#45;&gt;Node3</title>
<g id="a_edge2_Node000001_Node000003"><a xlink:title=" ">
<path fill="none" stroke="#63b8ff" d="M328.28,-220.52C273.41,-212.27 191.8,-199.26 121.25,-185 120.42,-184.83 119.59,-184.66 118.74,-184.48"/>
<polygon fill="#63b8ff" stroke="#63b8ff" points="119.66,-181.1 109.14,-182.34 118.14,-187.93 119.66,-181.1"/>
</a>
</g>
</g>
<!-- Node9 -->
<g id="Node000009" class="node">
<title>Node9</title>
<g id="a_Node000009"><a xlink:title=" ">
<polygon fill="#e0e0e0" stroke="#999999" points="534.62,-185 487.88,-185 487.88,-165.75 534.62,-165.75 534.62,-185"/>
<text text-anchor="middle" x="511.25" y="-171.5" font-family="Helvetica,sans-Serif" font-size="10.00">stdlib.h</text>
</a>
</g>
</g>
<!-- Node1&#45;&gt;Node9 -->
<g id="edge8_Node000001_Node000009" class="edge">
<title>Node1&#45;&gt;Node9</title>
<g id="a_edge8_Node000001_Node000009"><a xlink:title=" ">
<path fill="none" stroke="#63b8ff" d="M411.61,-220.59C430.48,-212.22 458.84,-199.63 480.48,-190.03"/>
<polygon fill="#63b8ff" stroke="#63b8ff" points="481.69,-193.32 489.41,-186.07 478.85,-186.92 481.69,-193.32"/>
</a>
</g>
</g>
<!-- Node10 -->
<g id="Node000010" class="node">
<title>Node10</title>
<g id="a_Node000010"><a xlink:href="unistd_8h_source.html" target="_top" xlink:title=" ">
<polygon fill="white" stroke="#666666" points="156.12,-74.5 106.38,-74.5 106.38,-55.25 156.12,-55.25 156.12,-74.5"/>
<text text-anchor="middle" x="131.25" y="-61" font-family="Helvetica,sans-Serif" font-size="10.00">unistd.h</text>
</a>
</g>
</g>
<!-- Node1&#45;&gt;Node10 -->
<g id="edge9_Node000001_Node000010" class="edge">
<title>Node1&#45;&gt;Node10</title>
<g id="a_edge9_Node000001_Node000010"><a xlink:title=" ">
<path fill="none" stroke="#63b8ff" d="M339.97,-220.57C286.72,-208.61 204.33,-182.56 154.25,-129.75 142.95,-117.83 137.14,-99.96 134.19,-86.15"/>
<polygon fill="#63b8ff" stroke="#63b8ff" points="137.65,-85.63 132.47,-76.39 130.75,-86.84 137.65,-85.63"/>
</a>
</g>
</g>
<!-- Node11 -->
<g id="Node000011" class="node">
<title>Node11</title>
<g id="a_Node000011"><a xlink:title=" ">
<polygon fill="#e0e0e0" stroke="#999999" points="595.38,-185 553.12,-185 553.12,-165.75 595.38,-165.75 595.38,-185"/>
<text text-anchor="middle" x="574.25" y="-171.5" font-family="Helvetica,sans-Serif" font-size="10.00">fcntl.h</text>
</a>
</g>
</g>
<!-- Node1&#45;&gt;Node11 -->
<g id="edge10_Node000001_Node000011" class="edge">
<title>Node1&#45;&gt;Node11</title>
<g id="a_edge10_Node000001_Node000011"><a xlink:title=" ">
<path fill="none" stroke="#63b8ff" d="M422.29,-220.59C455.64,-210.89 508.38,-195.54 542.14,-185.72"/>
<polygon fill="#63b8ff" stroke="#63b8ff" points="542.73,-189.19 551.35,-183.04 540.77,-182.47 542.73,-189.19"/>
</a>
</g>
</g>
<!-- Node12 -->
<g id="Node000012" class="node">
<title>Node12</title>
<g id="a_Node000012"><a xlink:title=" ">
<polygon fill="#e0e0e0" stroke="#999999" points="658.88,-185 613.62,-185 613.62,-165.75 658.88,-165.75 658.88,-185"/>
<text text-anchor="middle" x="636.25" y="-171.5" font-family="Helvetica,sans-Serif" font-size="10.00">reent.h</text>
</a>
</g>
</g>
<!-- Node1&#45;&gt;Node12 -->
<g id="edge11_Node000001_Node000012" class="edge">
<title>Node1&#45;&gt;Node12</title>
<g id="a_edge11_Node000001_Node000012"><a xlink:title=" ">
<path fill="none" stroke="#63b8ff" d="M438.38,-220.55C479.2,-212.51 540.1,-200.09 602.05,-185.42"/>
<polygon fill="#63b8ff" stroke="#63b8ff" points="602.83,-188.83 611.75,-183.1 601.21,-182.02 602.83,-188.83"/>
</a>
</g>
</g>
<!-- Node13 -->
<g id="Node000013" class="node">
<title>Node13</title>
<g id="a_Node000013"><a xlink:href="ps2sdkapi_8h_source.html" target="_top" xlink:title=" ">
<polygon fill="white" stroke="#666666" points="382.12,-185 314.38,-185 314.38,-165.75 382.12,-165.75 382.12,-185"/>
<text text-anchor="middle" x="348.25" y="-171.5" font-family="Helvetica,sans-Serif" font-size="10.00">ps2sdkapi.h</text>
</a>
</g>
</g>
<!-- Node1&#45;&gt;Node13 -->
<g id="edge12_Node000001_Node000013" class="edge">
<title>Node1&#45;&gt;Node13</title>
<g id="a_edge12_Node000001_Node000013"><a xlink:title=" ">
<path fill="none" stroke="#63b8ff" d="M384.15,-220.83C378.33,-213.63 369.92,-203.21 362.69,-194.26"/>
<polygon fill="#63b8ff" stroke="#63b8ff" points="365.46,-192.12 356.46,-186.54 360.02,-196.52 365.46,-192.12"/>
</a>
</g>
</g>
<!-- Node24 -->
<g id="Node000024" class="node">
<title>Node24</title>
<g id="a_Node000024"><a xlink:href="osd__config_8h.html" target="_top" xlink:title=" ">
<polygon fill="white" stroke="#666666" points="470.25,-185 400.25,-185 400.25,-165.75 470.25,-165.75 470.25,-185"/>
<text text-anchor="middle" x="435.25" y="-171.5" font-family="Helvetica,sans-Serif" font-size="10.00">osd_config.h</text>
</a>
</g>
</g>
<!-- Node1&#45;&gt;Node24 -->
<g id="edge28_Node000001_Node000024" class="edge">
<title>Node1&#45;&gt;Node24</title>
<g id="a_edge28_Node000001_Node000024"><a xlink:title=" ">
<path fill="none" stroke="#63b8ff" d="M398.52,-220.83C404.53,-213.55 413.26,-202.98 420.71,-193.98"/>
<polygon fill="#63b8ff" stroke="#63b8ff" points="423.19,-196.46 426.86,-186.53 417.79,-192.01 423.19,-196.46"/>
</a>
</g>
</g>
<!-- Node4 -->
<g id="Node000004" class="node">
<title>Node4</title>
<g id="a_Node000004"><a xlink:title=" ">
<polygon fill="#e0e0e0" stroke="#999999" points="50.5,-129.75 0,-129.75 0,-110.5 50.5,-110.5 50.5,-129.75"/>
<text text-anchor="middle" x="25.25" y="-116.25" font-family="Helvetica,sans-Serif" font-size="10.00">stdarg.h</text>
</a>
</g>
</g>
<!-- Node3&#45;&gt;Node4 -->
<g id="edge3_Node000003_Node000004" class="edge">
<title>Node3&#45;&gt;Node4</title>
<g id="a_edge3_Node000003_Node000004"><a xlink:title=" ">
<path fill="none" stroke="#63b8ff" d="M75.07,-165.34C66.49,-157.72 53.98,-146.62 43.65,-137.45"/>
<polygon fill="#63b8ff" stroke="#63b8ff" points="46.21,-135.05 36.41,-131.03 41.57,-140.29 46.21,-135.05"/>
</a>
</g>
</g>
<!-- Node5 -->
<g id="Node000005" class="node">
<title>Node5</title>
<g id="a_Node000005"><a xlink:href="irx_8h.html" target="_top" xlink:title=" ">
<polygon fill="white" stroke="#666666" points="101.88,-129.75 68.62,-129.75 68.62,-110.5 101.88,-110.5 101.88,-129.75"/>
<text text-anchor="middle" x="85.25" y="-116.25" font-family="Helvetica,sans-Serif" font-size="10.00">irx.h</text>
</a>
</g>
</g>
<!-- Node3&#45;&gt;Node5 -->
<g id="edge4_Node000003_Node000005" class="edge">
<title>Node3&#45;&gt;Node5</title>
<g id="a_edge4_Node000003_Node000005"><a xlink:title=" ">
<path fill="none" stroke="#63b8ff" d="M85.25,-165.58C85.25,-159.07 85.25,-149.92 85.25,-141.62"/>
<polygon fill="#63b8ff" stroke="#63b8ff" points="88.75,-141.62 85.25,-131.62 81.75,-141.62 88.75,-141.62"/>
</a>
</g>
</g>
<!-- Node6 -->
<g id="Node000006" class="node">
<title>Node6</title>
<g id="a_Node000006"><a xlink:href="iop_2kernel_2include_2types_8h_source.html" target="_top" xlink:title=" ">
<polygon fill="white" stroke="#666666" points="88.62,-74.5 41.88,-74.5 41.88,-55.25 88.62,-55.25 88.62,-74.5"/>
<text text-anchor="middle" x="65.25" y="-61" font-family="Helvetica,sans-Serif" font-size="10.00">types.h</text>
</a>
</g>
</g>
<!-- Node5&#45;&gt;Node6 -->
<g id="edge5_Node000005_Node000006" class="edge">
<title>Node5&#45;&gt;Node6</title>
<g id="a_edge5_Node000005_Node000006"><a xlink:title=" ">
<path fill="none" stroke="#63b8ff" d="M81.95,-110.33C79.42,-103.59 75.82,-94.02 72.62,-85.49"/>
<polygon fill="#63b8ff" stroke="#63b8ff" points="75.95,-84.41 69.16,-76.28 69.4,-86.87 75.95,-84.41"/>
</a>
</g>
</g>
<!-- Node7 -->
<g id="Node000007" class="node">
<title>Node7</title>
<g id="a_Node000007"><a xlink:title=" ">
<polygon fill="#e0e0e0" stroke="#999999" points="150.5,-19.25 100,-19.25 100,0 150.5,0 150.5,-19.25"/>
<text text-anchor="middle" x="125.25" y="-5.75" font-family="Helvetica,sans-Serif" font-size="10.00">stddef.h</text>
</a>
</g>
</g>
<!-- Node6&#45;&gt;Node7 -->
<g id="edge6_Node000006_Node000007" class="edge">
<title>Node6&#45;&gt;Node7</title>
<g id="a_edge6_Node000006_Node000007"><a xlink:title=" ">
<path fill="none" stroke="#63b8ff" d="M75.43,-54.84C84.01,-47.22 96.52,-36.12 106.85,-26.95"/>
<polygon fill="#63b8ff" stroke="#63b8ff" points="108.93,-29.79 114.09,-20.53 104.29,-24.55 108.93,-29.79"/>
</a>
</g>
</g>
<!-- Node8 -->
<g id="Node000008" class="node">
<title>Node8</title>
<g id="a_Node000008"><a xlink:href="tamtypes_8h.html" target="_top" xlink:title=" ">
<polygon fill="white" stroke="#666666" points="487.88,-19.25 424.62,-19.25 424.62,0 487.88,0 487.88,-19.25"/>
<text text-anchor="middle" x="456.25" y="-5.75" font-family="Helvetica,sans-Serif" font-size="10.00">tamtypes.h</text>
</a>
</g>
</g>
<!-- Node6&#45;&gt;Node8 -->
<g id="edge7_Node000006_Node000008" class="edge">
<title>Node6&#45;&gt;Node8</title>
<g id="a_edge7_Node000006_Node000008"><a xlink:title=" ">
<path fill="none" stroke="#63b8ff" d="M88.93,-57.1C91.72,-56.42 94.54,-55.78 97.25,-55.25 210.05,-33.15 345.04,-19.84 412.85,-14.05"/>
<polygon fill="#63b8ff" stroke="#63b8ff" points="413.14,-17.54 422.81,-13.21 412.55,-10.56 413.14,-17.54"/>
</a>
</g>
</g>
<!-- Node14 -->
<g id="Node000014" class="node">
<title>Node14</title>
<g id="a_Node000014"><a xlink:title=" ">
<polygon fill="#e0e0e0" stroke="#999999" points="337,-129.75 289.5,-129.75 289.5,-110.5 337,-110.5 337,-129.75"/>
<text text-anchor="middle" x="313.25" y="-116.25" font-family="Helvetica,sans-Serif" font-size="10.00">dirent.h</text>
</a>
</g>
</g>
<!-- Node13&#45;&gt;Node14 -->
<g id="edge13_Node000013_Node000014" class="edge">
<title>Node13&#45;&gt;Node14</title>
<g id="a_edge13_Node000013_Node000014"><a xlink:title=" ">
<path fill="none" stroke="#63b8ff" d="M342.47,-165.58C337.84,-158.53 331.18,-148.4 325.38,-139.58"/>
<polygon fill="#63b8ff" stroke="#63b8ff" points="328.4,-137.81 319.99,-131.37 322.55,-141.65 328.4,-137.81"/>
</a>
</g>
</g>
<!-- Node15 -->
<g id="Node000015" class="node">
<title>Node15</title>
<g id="a_Node000015"><a xlink:title=" ">
<polygon fill="#e0e0e0" stroke="#999999" points="411.88,-129.75 354.62,-129.75 354.62,-110.5 411.88,-110.5 411.88,-129.75"/>
<text text-anchor="middle" x="383.25" y="-116.25" font-family="Helvetica,sans-Serif" font-size="10.00">inttypes.h</text>
</a>
</g>
</g>
<!-- Node13&#45;&gt;Node15 -->
<g id="edge14_Node000013_Node000015" class="edge">
<title>Node13&#45;&gt;Node15</title>
<g id="a_edge14_Node000013_Node000015"><a xlink:title=" ">
<path fill="none" stroke="#63b8ff" d="M354.03,-165.58C358.66,-158.53 365.32,-148.4 371.12,-139.58"/>
<polygon fill="#63b8ff" stroke="#63b8ff" points="373.95,-141.65 376.51,-131.37 368.1,-137.81 373.95,-141.65"/>
</a>
</g>
</g>
<!-- Node16 -->
<g id="Node000016" class="node">
<title>Node16</title>
<g id="a_Node000016"><a xlink:title=" ">
<polygon fill="#e0e0e0" stroke="#999999" points="488.25,-129.75 430.25,-129.75 430.25,-110.5 488.25,-110.5 488.25,-129.75"/>
<text text-anchor="middle" x="459.25" y="-116.25" font-family="Helvetica,sans-Serif" font-size="10.00">sys/stat.h</text>
</a>
</g>
</g>
<!-- Node13&#45;&gt;Node16 -->
<g id="edge15_Node000013_Node000016" class="edge">
<title>Node13&#45;&gt;Node16</title>
<g id="a_edge15_Node000013_Node000016"><a xlink:title=" ">
<path fill="none" stroke="#63b8ff" d="M367.08,-165.34C384.3,-157.08 410.05,-144.73 429.96,-135.18"/>
<polygon fill="#63b8ff" stroke="#63b8ff" points="431.46,-138.34 438.96,-130.86 428.43,-132.03 431.46,-138.34"/>
</a>
</g>
</g>
<!-- Node17 -->
<g id="Node000017" class="node">
<title>Node17</title>
<g id="a_Node000017"><a xlink:href="timer_8h.html" target="_top" xlink:title=" ">
<polygon fill="white" stroke="#666666" points="551.88,-74.5 506.62,-74.5 506.62,-55.25 551.88,-55.25 551.88,-74.5"/>
<text text-anchor="middle" x="529.25" y="-61" font-family="Helvetica,sans-Serif" font-size="10.00">timer.h</text>
</a>
</g>
</g>
<!-- Node13&#45;&gt;Node17 -->
<g id="edge16_Node000013_Node000017" class="edge">
<title>Node13&#45;&gt;Node17</title>
<g id="a_edge16_Node000013_Node000017"><a xlink:title=" ">
<path fill="none" stroke="#63b8ff" d="M325.72,-165.32C299.55,-153.53 262.12,-131.87 280.25,-110.5 310.09,-75.33 433.95,-83.82 495.26,-74.58"/>
<polygon fill="#63b8ff" stroke="#63b8ff" points="495.6,-78.08 504.81,-72.83 494.34,-71.19 495.6,-78.08"/>
</a>
</g>
</g>
<!-- Node18 -->
<g id="Node000018" class="node">
<title>Node18</title>
<g id="a_Node000018"><a xlink:href="errno_8h.html" target="_top" xlink:title=" ">
<polygon fill="white" stroke="#666666" points="551.88,-129.75 506.62,-129.75 506.62,-110.5 551.88,-110.5 551.88,-129.75"/>
<text text-anchor="middle" x="529.25" y="-116.25" font-family="Helvetica,sans-Serif" font-size="10.00">errno.h</text>
</a>
</g>
</g>
<!-- Node13&#45;&gt;Node18 -->
<g id="edge18_Node000013_Node000018" class="edge">
<title>Node13&#45;&gt;Node18</title>
<g id="a_edge18_Node000013_Node000018"><a xlink:title=" ">
<path fill="none" stroke="#63b8ff" d="M378.95,-165.34C411.3,-155.82 462.1,-140.88 495.54,-131.04"/>
<polygon fill="#63b8ff" stroke="#63b8ff" points="496.11,-134.52 504.71,-128.34 494.13,-127.81 496.11,-134.52"/>
</a>
</g>
</g>
<!-- Node19 -->
<g id="Node000019" class="node">
<title>Node19</title>
<g id="a_Node000019"><a xlink:href="socket_8h_source.html" target="_top" xlink:title=" ">
<polygon fill="white" stroke="#666666" points="233.62,-129.75 162.88,-129.75 162.88,-110.5 233.62,-110.5 233.62,-129.75"/>
<text text-anchor="middle" x="198.25" y="-116.25" font-family="Helvetica,sans-Serif" font-size="10.00">sys/socket.h</text>
</a>
</g>
</g>
<!-- Node13&#45;&gt;Node19 -->
<g id="edge19_Node000013_Node000019" class="edge">
<title>Node13&#45;&gt;Node19</title>
<g id="a_edge19_Node000013_Node000019"><a xlink:title=" ">
<path fill="none" stroke="#63b8ff" d="M322.8,-165.34C298.56,-156.74 261.82,-143.69 234.51,-134"/>
<polygon fill="#63b8ff" stroke="#63b8ff" points="235.84,-130.76 225.25,-130.71 233.5,-137.35 235.84,-130.76"/>
</a>
</g>
</g>
<!-- Node17&#45;&gt;Node8 -->
<g id="edge17_Node000017_Node000008" class="edge">
<title>Node17&#45;&gt;Node8</title>
<g id="a_edge17_Node000017_Node000008"><a xlink:title=" ">
<path fill="none" stroke="#63b8ff" d="M516.87,-54.84C506.1,-46.99 490.28,-35.45 477.5,-26.12"/>
<polygon fill="#63b8ff" stroke="#63b8ff" points="479.81,-23.48 469.67,-20.42 475.69,-29.14 479.81,-23.48"/>
</a>
</g>
</g>
<!-- Node19&#45;&gt;Node7 -->
<g id="edge21_Node000019_Node000007" class="edge">
<title>Node19&#45;&gt;Node7</title>
<g id="a_edge21_Node000019_Node000007"><a xlink:title=" ">
<path fill="none" stroke="#63b8ff" d="M194.44,-110.04C188.89,-97.28 177.87,-73.54 165.25,-55.25 158.55,-45.54 149.95,-35.68 142.43,-27.71"/>
<polygon fill="#63b8ff" stroke="#63b8ff" points="145.11,-25.44 135.63,-20.7 140.08,-30.32 145.11,-25.44"/>
</a>
</g>
</g>
<!-- Node19&#45;&gt;Node10 -->
<g id="edge25_Node000019_Node000010" class="edge">
<title>Node19&#45;&gt;Node10</title>
<g id="a_edge25_Node000019_Node000010"><a xlink:title=" ">
<path fill="none" stroke="#63b8ff" d="M186.88,-110.09C177.2,-102.4 163.05,-91.15 151.44,-81.93"/>
<polygon fill="#63b8ff" stroke="#63b8ff" points="153.64,-79.2 143.63,-75.72 149.28,-84.68 153.64,-79.2"/>
</a>
</g>
</g>
<!-- Node20 -->
<g id="Node000020" class="node">
<title>Node20</title>
<g id="a_Node000020"><a xlink:title=" ">
<polygon fill="#e0e0e0" stroke="#999999" points="260,-74.5 212.5,-74.5 212.5,-55.25 260,-55.25 260,-74.5"/>
<text text-anchor="middle" x="236.25" y="-61" font-family="Helvetica,sans-Serif" font-size="10.00">stdint.h</text>
</a>
</g>
</g>
<!-- Node19&#45;&gt;Node20 -->
<g id="edge20_Node000019_Node000020" class="edge">
<title>Node19&#45;&gt;Node20</title>
<g id="a_edge20_Node000019_Node000020"><a xlink:title=" ">
<path fill="none" stroke="#63b8ff" d="M204.52,-110.33C209.61,-103.21 216.95,-92.93 223.28,-84.05"/>
<polygon fill="#63b8ff" stroke="#63b8ff" points="226,-86.26 228.96,-76.09 220.3,-82.2 226,-86.26"/>
</a>
</g>
</g>
<!-- Node21 -->
<g id="Node000021" class="node">
<title>Node21</title>
<g id="a_Node000021"><a xlink:href="iop_2kernel_2include_2sys_2types_8h_source.html" target="_top" xlink:title=" ">
<polygon fill="white" stroke="#666666" points="342.62,-74.5 277.88,-74.5 277.88,-55.25 342.62,-55.25 342.62,-74.5"/>
<text text-anchor="middle" x="310.25" y="-61" font-family="Helvetica,sans-Serif" font-size="10.00">sys/types.h</text>
</a>
</g>
</g>
<!-- Node19&#45;&gt;Node21 -->
<g id="edge22_Node000019_Node000021" class="edge">
<title>Node19&#45;&gt;Node21</title>
<g id="a_edge22_Node000019_Node000021"><a xlink:title=" ">
<path fill="none" stroke="#63b8ff" d="M217.25,-110.09C234.71,-101.79 260.85,-89.36 280.97,-79.79"/>
<polygon fill="#63b8ff" stroke="#63b8ff" points="282.26,-83.06 289.79,-75.6 279.26,-76.74 282.26,-83.06"/>
</a>
</g>
</g>
<!-- Node22 -->
<g id="Node000022" class="node">
<title>Node22</title>
<g id="a_Node000022"><a xlink:title=" ">
<polygon fill="#e0e0e0" stroke="#999999" points="489,-74.5 423.5,-74.5 423.5,-55.25 489,-55.25 489,-74.5"/>
<text text-anchor="middle" x="456.25" y="-61" font-family="Helvetica,sans-Serif" font-size="10.00">sys/cdefs.h</text>
</a>
</g>
</g>
<!-- Node19&#45;&gt;Node22 -->
<g id="edge24_Node000019_Node000022" class="edge">
<title>Node19&#45;&gt;Node22</title>
<g id="a_edge24_Node000019_Node000022"><a xlink:title=" ">
<path fill="none" stroke="#63b8ff" d="M234.12,-111.72C280.62,-102.12 361.69,-85.39 411.97,-75.01"/>
<polygon fill="#63b8ff" stroke="#63b8ff" points="412.56,-78.47 421.65,-73.02 411.15,-71.61 412.56,-78.47"/>
</a>
</g>
</g>
<!-- Node23 -->
<g id="Node000023" class="node">
<title>Node23</title>
<g id="a_Node000023"><a xlink:href="tcpip_8h.html" target="_top" xlink:title=" ">
<polygon fill="white" stroke="#666666" points="405.5,-74.5 361,-74.5 361,-55.25 405.5,-55.25 405.5,-74.5"/>
<text text-anchor="middle" x="383.25" y="-61" font-family="Helvetica,sans-Serif" font-size="10.00">tcpip.h</text>
</a>
</g>
</g>
<!-- Node19&#45;&gt;Node23 -->
<g id="edge26_Node000019_Node000023" class="edge">
<title>Node19&#45;&gt;Node23</title>
<g id="a_edge26_Node000019_Node000023"><a xlink:title=" ">
<path fill="none" stroke="#63b8ff" d="M229.63,-110.09C263.07,-100.47 315.79,-85.29 349.94,-75.46"/>
<polygon fill="#63b8ff" stroke="#63b8ff" points="350.66,-78.9 359.3,-72.77 348.73,-72.17 350.66,-78.9"/>
</a>
</g>
</g>
<!-- Node21&#45;&gt;Node8 -->
<g id="edge23_Node000021_Node000008" class="edge">
<title>Node21&#45;&gt;Node8</title>
<g id="a_edge23_Node000021_Node000008"><a xlink:title=" ">
<path fill="none" stroke="#63b8ff" d="M335.02,-54.84C358.51,-46.27 394.06,-33.31 420.6,-23.63"/>
<polygon fill="#63b8ff" stroke="#63b8ff" points="421.74,-26.94 429.94,-20.22 419.35,-20.36 421.74,-26.94"/>
</a>
</g>
</g>
<!-- Node23&#45;&gt;Node8 -->
<g id="edge27_Node000023_Node000008" class="edge">
<title>Node23&#45;&gt;Node8</title>
<g id="a_edge27_Node000023_Node000008"><a xlink:title=" ">
<path fill="none" stroke="#63b8ff" d="M395.63,-54.84C406.4,-46.99 422.22,-35.45 435,-26.12"/>
<polygon fill="#63b8ff" stroke="#63b8ff" points="436.81,-29.14 442.83,-20.42 432.69,-23.48 436.81,-29.14"/>
</a>
</g>
</g>
<!-- Node24&#45;&gt;Node8 -->
<g id="edge29_Node000024_Node000008" class="edge">
<title>Node24&#45;&gt;Node8</title>
<g id="a_edge29_Node000024_Node000008"><a xlink:title=" ">
<path fill="none" stroke="#63b8ff" d="M470.6,-166.65C504,-158.55 550.54,-144.91 561.25,-129.75 580.36,-102.71 579.52,-82.86 561.25,-55.25 547.46,-34.41 521.75,-23.27 499.23,-17.33"/>
<polygon fill="#63b8ff" stroke="#63b8ff" points="500.17,-13.96 489.63,-15.09 498.58,-20.77 500.17,-13.96"/>
</a>
</g>
</g>
<!-- Node25 -->
<g id="Node000025" class="node">
<title>Node25</title>
<g id="a_Node000025"><a xlink:href="rom0__info_8h.html" target="_top" xlink:title=" ">
<polygon fill="white" stroke="#666666" points="746.38,-129.75 680.12,-129.75 680.12,-110.5 746.38,-110.5 746.38,-129.75"/>
<text text-anchor="middle" x="713.25" y="-116.25" font-family="Helvetica,sans-Serif" font-size="10.00">rom0_info.h</text>
</a>
</g>
</g>
<!-- Node24&#45;&gt;Node25 -->
<g id="edge30_Node000024_Node000025" class="edge">
<title>Node24&#45;&gt;Node25</title>
<g id="a_edge30_Node000024_Node000025"><a xlink:title=" ">
<path fill="none" stroke="#63b8ff" d="M470.31,-167.48C473.33,-166.89 476.34,-166.31 479.25,-165.75 561.02,-150.07 584.18,-146.74 668.61,-130.24"/>
<polygon fill="#63b8ff" stroke="#63b8ff" points="669.16,-133.7 678.3,-128.34 667.82,-126.83 669.16,-133.7"/>
</a>
</g>
</g>
<!-- Node26 -->
<g id="Node000026" class="node">
<title>Node26</title>
<g id="a_Node000026"><a xlink:href="libcdvd_8h.html" target="_top" xlink:title=" ">
<polygon fill="white" stroke="#666666" points="662.38,-129.75 608.12,-129.75 608.12,-110.5 662.38,-110.5 662.38,-129.75"/>
<text text-anchor="middle" x="635.25" y="-116.25" font-family="Helvetica,sans-Serif" font-size="10.00">libcdvd.h</text>
</a>
</g>
</g>
<!-- Node24&#45;&gt;Node26 -->
<g id="edge31_Node000024_Node000026" class="edge">
<title>Node24&#45;&gt;Node26</title>
<g id="a_edge31_Node000024_Node000026"><a xlink:title=" ">
<path fill="none" stroke="#63b8ff" d="M469.18,-165.34C504.63,-155.9 560.13,-141.13 597.09,-131.29"/>
<polygon fill="#63b8ff" stroke="#63b8ff" points="597.69,-134.75 606.45,-128.79 595.89,-127.98 597.69,-134.75"/>
</a>
</g>
</g>
<!-- Node27 -->
<g id="Node000027" class="node">
<title>Node27</title>
<g id="a_Node000027"><a xlink:href="libcdvd-common_8h.html" target="_top" xlink:title=" ">
<polygon fill="white" stroke="#666666" points="702.62,-74.5 607.88,-74.5 607.88,-55.25 702.62,-55.25 702.62,-74.5"/>
<text text-anchor="middle" x="655.25" y="-61" font-family="Helvetica,sans-Serif" font-size="10.00">libcdvd&#45;common.h</text>
</a>
</g>
</g>
<!-- Node26&#45;&gt;Node27 -->
<g id="edge32_Node000026_Node000027" class="edge">
<title>Node26&#45;&gt;Node27</title>
<g id="a_edge32_Node000026_Node000027"><a xlink:title=" ">
<path fill="none" stroke="#63b8ff" d="M638.55,-110.33C641.08,-103.59 644.68,-94.02 647.88,-85.49"/>
<polygon fill="#63b8ff" stroke="#63b8ff" points="651.1,-86.87 651.34,-76.28 644.55,-84.41 651.1,-86.87"/>
</a>
</g>
</g>
<!-- Node27&#45;&gt;Node8 -->
<g id="edge33_Node000027_Node000008" class="edge">
<title>Node27&#45;&gt;Node8</title>
<g id="a_edge33_Node000027_Node000008"><a xlink:title=" ">
<path fill="none" stroke="#63b8ff" d="M621.49,-54.84C587.73,-45.81 535.68,-31.88 499.04,-22.07"/>
<polygon fill="#63b8ff" stroke="#63b8ff" points="500.22,-18.77 489.66,-19.56 498.41,-25.53 500.22,-18.77"/>
</a>
</g>
</g>
</g>
</svg>
