<?xml version="1.0" encoding="UTF-8" standalone="no"?>
<!DOCTYPE svg PUBLIC "-//W3C//DTD SVG 1.1//EN"
 "http://www.w3.org/Graphics/SVG/1.1/DTD/svg11.dtd">
<!-- Generated by graphviz version 2.44.0 ()
 -->
<!-- Title: siorCommsData Pages: 1 -->
<svg width="261pt" height="95pt"
 viewBox="0.00 0.00 261.00 95.00" xmlns="http://www.w3.org/2000/svg" xmlns:xlink="http://www.w3.org/1999/xlink">
<g id="graph0" class="graph" transform="scale(1 1) rotate(0) translate(4 91)">
<title>siorCommsData</title>
<polygon fill="white" stroke="transparent" points="-4,4 -4,-91 257,-91 257,4 -4,4"/>
<!-- Node1 -->
<g id="node1" class="node">
<title>Node1</title>
<g id="a_node1"><a xlink:title=" ">
<polygon fill="#bfbfbf" stroke="black" points="83.5,-0.5 83.5,-19.5 169.5,-19.5 169.5,-0.5 83.5,-0.5"/>
<text text-anchor="middle" x="126.5" y="-7.5" font-family="Helvetica,sans-Serif" font-size="10.00">siorCommsData</text>
</a>
</g>
</g>
<!-- Node2 -->
<g id="node2" class="node">
<title>Node2</title>
<g id="a_node2"><a xlink:href="sior-common_8h.html#structsior_read_args" target="_top" xlink:title=" ">
<polygon fill="white" stroke="black" points="0,-67.5 0,-86.5 75,-86.5 75,-67.5 0,-67.5"/>
<text text-anchor="middle" x="37.5" y="-74.5" font-family="Helvetica,sans-Serif" font-size="10.00">siorReadArgs</text>
</a>
</g>
</g>
<!-- Node2&#45;&gt;Node1 -->
<g id="edge1" class="edge">
<title>Node2&#45;&gt;Node1</title>
<path fill="none" stroke="#9a32cd" stroke-dasharray="5,2" d="M57.95,-61.07C75.51,-48.24 100.23,-30.19 114.69,-19.63"/>
<polygon fill="#9a32cd" stroke="#9a32cd" points="55.51,-58.51 49.5,-67.23 59.64,-64.16 55.51,-58.51"/>
<text text-anchor="middle" x="98.5" y="-41" font-family="Helvetica,sans-Serif" font-size="10.00"> read</text>
</g>
<!-- Node3 -->
<g id="node3" class="node">
<title>Node3</title>
<g id="a_node3"><a xlink:href="sior-common_8h.html#structsior_init_args" target="_top" xlink:title=" ">
<polygon fill="white" stroke="black" points="93.5,-67.5 93.5,-86.5 159.5,-86.5 159.5,-67.5 93.5,-67.5"/>
<text text-anchor="middle" x="126.5" y="-74.5" font-family="Helvetica,sans-Serif" font-size="10.00">siorInitArgs</text>
</a>
</g>
</g>
<!-- Node3&#45;&gt;Node1 -->
<g id="edge2" class="edge">
<title>Node3&#45;&gt;Node1</title>
<path fill="none" stroke="#9a32cd" stroke-dasharray="5,2" d="M126.5,-57.04C126.5,-44.67 126.5,-29.12 126.5,-19.63"/>
<polygon fill="#9a32cd" stroke="#9a32cd" points="123,-57.23 126.5,-67.23 130,-57.23 123,-57.23"/>
<text text-anchor="middle" x="134.5" y="-41" font-family="Helvetica,sans-Serif" font-size="10.00"> init</text>
</g>
<!-- Node4 -->
<g id="node4" class="node">
<title>Node4</title>
<g id="a_node4"><a xlink:href="sior-common_8h.html#structsior_write_args" target="_top" xlink:title=" ">
<polygon fill="white" stroke="black" points="178,-67.5 178,-86.5 253,-86.5 253,-67.5 178,-67.5"/>
<text text-anchor="middle" x="215.5" y="-74.5" font-family="Helvetica,sans-Serif" font-size="10.00">siorWriteArgs</text>
</a>
</g>
</g>
<!-- Node4&#45;&gt;Node1 -->
<g id="edge3" class="edge">
<title>Node4&#45;&gt;Node1</title>
<path fill="none" stroke="#9a32cd" stroke-dasharray="5,2" d="M195.05,-61.07C177.49,-48.24 152.77,-30.19 138.31,-19.63"/>
<polygon fill="#9a32cd" stroke="#9a32cd" points="193.36,-64.16 203.5,-67.23 197.49,-58.51 193.36,-64.16"/>
<text text-anchor="middle" x="187.5" y="-41" font-family="Helvetica,sans-Serif" font-size="10.00"> write</text>
</g>
</g>
</svg>
