<?xml version="1.0" encoding="UTF-8" standalone="no"?>
<!DOCTYPE svg PUBLIC "-//W3C//DTD SVG 1.1//EN"
 "http://www.w3.org/Graphics/SVG/1.1/DTD/svg11.dtd">
<!-- Generated by graphviz version 12.2.0 (20241103.1931)
 -->
<!-- Title: spu2_mmio_hwport_::spu2_regs_union_ Pages: 1 -->
<svg width="402pt" height="509pt"
 viewBox="0.00 0.00 402.25 509.25" xmlns="http://www.w3.org/2000/svg" xmlns:xlink="http://www.w3.org/1999/xlink">
<g id="graph0" class="graph" transform="scale(1 1) rotate(0) translate(4 505.25)">
<title>spu2_mmio_hwport_::spu2_regs_union_</title>
<!-- Node1 -->
<g id="Node000001" class="node">
<title>Node1</title>
<g id="a_Node000001"><a xlink:title=" ">
<polygon fill="#999999" stroke="#666666" points="187.25,-30.5 76.75,-30.5 76.75,0 187.25,0 187.25,-30.5"/>
<text text-anchor="start" x="84.75" y="-17" font-family="Helvetica,sans-Serif" font-size="10.00">spu2_mmio_hwport_::</text>
<text text-anchor="middle" x="132" y="-5.75" font-family="Helvetica,sans-Serif" font-size="10.00">spu2_regs_union_</text>
</a>
</g>
</g>
<!-- Node2 -->
<g id="Node000002" class="node">
<title>Node2</title>
<g id="a_Node000002"><a xlink:href="spu2__mmio__hwport_8h.html#structspu2__regs__main__" target="_top" xlink:title=" ">
<polygon fill="white" stroke="#bfbfbf" points="258.25,-97 165.75,-97 165.75,-77.75 258.25,-77.75 258.25,-97"/>
<text text-anchor="middle" x="212" y="-83.5" font-family="Helvetica,sans-Serif" font-size="10.00">spu2_regs_main_</text>
</a>
</g>
</g>
<!-- Node2&#45;&gt;Node1 -->
<g id="edge1_Node000001_Node000002" class="edge">
<title>Node2&#45;&gt;Node1</title>
<g id="a_edge1_Node000001_Node000002"><a xlink:title=" ">
<path fill="none" stroke="#9a32cd" stroke-dasharray="5,2" d="M193.37,-70.05C179.87,-58.21 161.77,-42.35 148.73,-30.92"/>
<polygon fill="#9a32cd" stroke="#9a32cd" points="190.9,-72.54 200.73,-76.5 195.52,-67.27 190.9,-72.54"/>
</a>
</g>
<text text-anchor="middle" x="193.52" y="-50.25" font-family="Helvetica,sans-Serif" font-size="10.00" fill="grey"> m_m</text>
</g>
<!-- Node3 -->
<g id="Node000003" class="node">
<title>Node3</title>
<g id="a_Node000003"><a xlink:href="spu2__mmio__hwport_8h.html#structspu2__core__regs__padded__" target="_top" xlink:title=" ">
<polygon fill="white" stroke="#bfbfbf" points="286.5,-163.5 159.5,-163.5 159.5,-144.25 286.5,-144.25 286.5,-163.5"/>
<text text-anchor="middle" x="223" y="-150" font-family="Helvetica,sans-Serif" font-size="10.00">spu2_core_regs_padded_</text>
</a>
</g>
</g>
<!-- Node3&#45;&gt;Node2 -->
<g id="edge2_Node000002_Node000003" class="edge">
<title>Node3&#45;&gt;Node2</title>
<g id="a_edge2_Node000002_Node000003"><a xlink:title=" ">
<path fill="none" stroke="#9a32cd" stroke-dasharray="5,2" d="M219.57,-132.77C217.54,-120.87 215.07,-106.38 213.52,-97.27"/>
<polygon fill="#9a32cd" stroke="#9a32cd" points="216.08,-133.15 221.22,-142.41 222.98,-131.97 216.08,-133.15"/>
</a>
</g>
<text text-anchor="middle" x="247.41" y="-116.75" font-family="Helvetica,sans-Serif" font-size="10.00" fill="grey"> m_core_regs</text>
</g>
<!-- Node4 -->
<g id="Node000004" class="node">
<title>Node4</title>
<g id="a_Node000004"><a xlink:href="spu2__mmio__hwport_8h.html#structspu2__core__regs__" target="_top" xlink:title=" ">
<polygon fill="white" stroke="#bfbfbf" points="241.12,-241.25 150.88,-241.25 150.88,-222 241.12,-222 241.12,-241.25"/>
<text text-anchor="middle" x="196" y="-227.75" font-family="Helvetica,sans-Serif" font-size="10.00">spu2_core_regs_</text>
</a>
</g>
</g>
<!-- Node4&#45;&gt;Node3 -->
<g id="edge3_Node000003_Node000004" class="edge">
<title>Node4&#45;&gt;Node3</title>
<g id="a_edge3_Node000003_Node000004"><a xlink:title=" ">
<path fill="none" stroke="#9a32cd" stroke-dasharray="5,2" d="M203.07,-210.8C208.48,-195.6 215.7,-175.35 219.8,-163.85"/>
<polygon fill="#9a32cd" stroke="#9a32cd" points="199.77,-209.62 199.71,-220.21 206.37,-211.97 199.77,-209.62"/>
</a>
</g>
<text text-anchor="middle" x="233.37" y="-188.88" font-family="Helvetica,sans-Serif" font-size="10.00" fill="grey"> m_cregs</text>
</g>
<!-- Node8 -->
<g id="Node000008" class="node">
<title>Node8</title>
<g id="a_Node000008"><a xlink:href="spu2__mmio__hwport_8h.html#structspu2__regs__extra__" target="_top" xlink:title=" ">
<polygon fill="white" stroke="#bfbfbf" points="141.25,-163.5 48.75,-163.5 48.75,-144.25 141.25,-144.25 141.25,-163.5"/>
<text text-anchor="middle" x="95" y="-150" font-family="Helvetica,sans-Serif" font-size="10.00">spu2_regs_extra_</text>
</a>
</g>
</g>
<!-- Node4&#45;&gt;Node8 -->
<g id="edge9_Node000008_Node000004" class="edge">
<title>Node4&#45;&gt;Node8</title>
<g id="a_edge9_Node000008_Node000004"><a xlink:title=" ">
<path fill="none" stroke="#9a32cd" stroke-dasharray="5,2" d="M169.38,-215.89C163.42,-212.24 157.24,-208.17 151.75,-204 140.17,-195.2 138.94,-191.07 128,-181.5 121.02,-175.39 112.92,-168.85 106.49,-163.78"/>
<polygon fill="#9a32cd" stroke="#9a32cd" points="167.36,-218.76 177.75,-220.81 170.91,-212.72 167.36,-218.76"/>
</a>
</g>
<text text-anchor="middle" x="176.88" y="-194.5" font-family="Helvetica,sans-Serif" font-size="10.00" fill="grey"> core0_regs</text>
<text text-anchor="middle" x="176.88" y="-183.25" font-family="Helvetica,sans-Serif" font-size="10.00" fill="grey">core1_regs</text>
</g>
<!-- Node5 -->
<g id="Node000005" class="node">
<title>Node5</title>
<g id="a_Node000005"><a xlink:href="spu2__mmio__hwport_8h.html#structspu2__voice__params__" target="_top" xlink:title=" ">
<polygon fill="white" stroke="#bfbfbf" points="158.12,-360 49.88,-360 49.88,-340.75 158.12,-340.75 158.12,-360"/>
<text text-anchor="middle" x="104" y="-346.5" font-family="Helvetica,sans-Serif" font-size="10.00">spu2_voice_params_</text>
</a>
</g>
</g>
<!-- Node5&#45;&gt;Node4 -->
<g id="edge4_Node000004_Node000005" class="edge">
<title>Node5&#45;&gt;Node4</title>
<g id="a_edge4_Node000004_Node000005"><a xlink:title=" ">
<path fill="none" stroke="#9a32cd" stroke-dasharray="5,2" d="M98.07,-329.23C93.54,-309.36 90.34,-279.16 105.5,-259.25 116.11,-245.31 133.67,-238.37 150.5,-235.01"/>
<polygon fill="#9a32cd" stroke="#9a32cd" points="94.67,-330.08 100.6,-338.86 101.44,-328.3 94.67,-330.08"/>
</a>
</g>
<text text-anchor="middle" x="143.75" y="-261" font-family="Helvetica,sans-Serif" font-size="10.00" fill="grey"> m_voice_params</text>
</g>
<!-- Node6 -->
<g id="Node000006" class="node">
<title>Node6</title>
<g id="a_Node000006"><a xlink:href="spu2__mmio__hwport_8h.html#structspu2__u16pair__" target="_top" xlink:title=" ">
<polygon fill="white" stroke="#bfbfbf" points="251.5,-501.25 172.5,-501.25 172.5,-482 251.5,-482 251.5,-501.25"/>
<text text-anchor="middle" x="212" y="-487.75" font-family="Helvetica,sans-Serif" font-size="10.00">spu2_u16pair_</text>
</a>
</g>
</g>
<!-- Node6&#45;&gt;Node4 -->
<g id="edge5_Node000004_Node000006" class="edge">
<title>Node6&#45;&gt;Node4</title>
<g id="a_edge5_Node000004_Node000006"><a xlink:title=" ">
<path fill="none" stroke="#9a32cd" stroke-dasharray="5,2" d="M210.11,-470.92C208.64,-455.08 206.63,-432.25 205.25,-412.25 200.75,-346.83 197.41,-267.87 196.35,-241.6"/>
<polygon fill="#9a32cd" stroke="#9a32cd" points="206.59,-470.8 211.01,-480.43 213.56,-470.14 206.59,-470.8"/>
</a>
</g>
<text text-anchor="middle" x="240.12" y="-402.75" font-family="Helvetica,sans-Serif" font-size="10.00" fill="grey"> m_apf1_l_dst</text>
<text text-anchor="middle" x="240.12" y="-391.5" font-family="Helvetica,sans-Serif" font-size="10.00" fill="grey">m_apf1_r_dst</text>
<text text-anchor="middle" x="240.12" y="-380.25" font-family="Helvetica,sans-Serif" font-size="10.00" fill="grey">m_apf1_size</text>
<text text-anchor="middle" x="240.12" y="-369" font-family="Helvetica,sans-Serif" font-size="10.00" fill="grey">m_apf2_l_dst</text>
<text text-anchor="middle" x="240.12" y="-357.75" font-family="Helvetica,sans-Serif" font-size="10.00" fill="grey">m_apf2_r_dst</text>
<text text-anchor="middle" x="240.12" y="-346.5" font-family="Helvetica,sans-Serif" font-size="10.00" fill="grey">m_apf2_size</text>
<text text-anchor="middle" x="240.12" y="-335.25" font-family="Helvetica,sans-Serif" font-size="10.00" fill="grey">m_comb1_l_src</text>
<text text-anchor="middle" x="240.12" y="-324" font-family="Helvetica,sans-Serif" font-size="10.00" fill="grey">m_comb1_r_src</text>
<text text-anchor="middle" x="240.12" y="-312.75" font-family="Helvetica,sans-Serif" font-size="10.00" fill="grey">m_comb2_l_src</text>
<text text-anchor="middle" x="240.12" y="-301.5" font-family="Helvetica,sans-Serif" font-size="10.00" fill="grey">m_comb2_r_src</text>
<text text-anchor="middle" x="240.12" y="-290.25" font-family="Helvetica,sans-Serif" font-size="10.00" fill="grey">...</text>
</g>
<!-- Node7 -->
<g id="Node000007" class="node">
<title>Node7</title>
<g id="a_Node000007"><a xlink:href="spu2__mmio__hwport_8h.html#structspu2__voice__address__" target="_top" xlink:title=" ">
<polygon fill="white" stroke="#bfbfbf" points="394.25,-360 283.75,-360 283.75,-340.75 394.25,-340.75 394.25,-360"/>
<text text-anchor="middle" x="339" y="-346.5" font-family="Helvetica,sans-Serif" font-size="10.00">spu2_voice_address_</text>
</a>
</g>
</g>
<!-- Node6&#45;&gt;Node7 -->
<g id="edge7_Node000007_Node000006" class="edge">
<title>Node6&#45;&gt;Node7</title>
<g id="a_edge7_Node000007_Node000006"><a xlink:title=" ">
<path fill="none" stroke="#9a32cd" stroke-dasharray="5,2" d="M227.37,-473.77C254.46,-444.07 309.8,-383.39 330.73,-360.44"/>
<polygon fill="#9a32cd" stroke="#9a32cd" points="225.12,-471.05 220.96,-480.8 230.29,-475.77 225.12,-471.05"/>
</a>
</g>
<text text-anchor="middle" x="280.62" y="-454.5" font-family="Helvetica,sans-Serif" font-size="10.00" fill="grey"> m_lsax</text>
<text text-anchor="middle" x="280.62" y="-443.25" font-family="Helvetica,sans-Serif" font-size="10.00" fill="grey">m_nax</text>
<text text-anchor="middle" x="280.62" y="-432" font-family="Helvetica,sans-Serif" font-size="10.00" fill="grey">m_ssa</text>
</g>
<!-- Node7&#45;&gt;Node4 -->
<g id="edge6_Node000004_Node000007" class="edge">
<title>Node7&#45;&gt;Node4</title>
<g id="a_edge6_Node000004_Node000007"><a xlink:title=" ">
<path fill="none" stroke="#9a32cd" stroke-dasharray="5,2" d="M320.88,-332.71C307.15,-320.25 287.69,-302.95 270,-288.5 248.93,-271.29 223.43,-252.45 208.53,-241.64"/>
<polygon fill="#9a32cd" stroke="#9a32cd" points="318.51,-335.29 328.26,-339.45 323.23,-330.12 318.51,-335.29"/>
</a>
</g>
<text text-anchor="middle" x="285.36" y="-261" font-family="Helvetica,sans-Serif" font-size="10.00" fill="grey"> m_voice_address</text>
</g>
<!-- Node8&#45;&gt;Node1 -->
<g id="edge8_Node000001_Node000008" class="edge">
<title>Node8&#45;&gt;Node1</title>
<g id="a_edge8_Node000001_Node000008"><a xlink:title=" ">
<path fill="none" stroke="#9a32cd" stroke-dasharray="5,2" d="M100.44,-132.8C107.99,-104.9 121.49,-55.06 128.11,-30.6"/>
<polygon fill="#9a32cd" stroke="#9a32cd" points="97.06,-131.88 97.82,-142.45 103.82,-133.71 97.06,-131.88"/>
</a>
</g>
<text text-anchor="middle" x="125.23" y="-83.5" font-family="Helvetica,sans-Serif" font-size="10.00" fill="grey"> m_e</text>
</g>
<!-- Node9 -->
<g id="Node000009" class="node">
<title>Node9</title>
<g id="a_Node000009"><a xlink:href="spu2__mmio__hwport_8h.html#structspu2__different__regs__" target="_top" xlink:title=" ">
<polygon fill="white" stroke="#bfbfbf" points="106,-241.25 0,-241.25 0,-222 106,-222 106,-241.25"/>
<text text-anchor="middle" x="53" y="-227.75" font-family="Helvetica,sans-Serif" font-size="10.00">spu2_different_regs_</text>
</a>
</g>
</g>
<!-- Node9&#45;&gt;Node8 -->
<g id="edge10_Node000008_Node000009" class="edge">
<title>Node9&#45;&gt;Node8</title>
<g id="a_edge10_Node000008_Node000009"><a xlink:title=" ">
<path fill="none" stroke="#9a32cd" stroke-dasharray="5,2" d="M49.11,-210.26C48.35,-200.96 48.97,-190.12 53.75,-181.5 57.97,-173.9 65.37,-168.13 72.76,-163.93"/>
<polygon fill="#9a32cd" stroke="#9a32cd" points="45.64,-210.74 50.53,-220.15 52.57,-209.75 45.64,-210.74"/>
</a>
</g>
<text text-anchor="middle" x="90.88" y="-188.88" font-family="Helvetica,sans-Serif" font-size="10.00" fill="grey"> m_different_regs</text>
</g>
</g>
</svg>
