<?xml version="1.0" encoding="UTF-8" standalone="no"?>
<!DOCTYPE svg PUBLIC "-//W3C//DTD SVG 1.1//EN"
 "http://www.w3.org/Graphics/SVG/1.1/DTD/svg11.dtd">
<!-- Generated by graphviz version 2.43.0 (0)
 -->
<!-- Title: cdvdfsv_rpc5_inpacket_ Pages: 1 -->
<!--zoomable 332 -->
<svg id="main" version="1.1" xmlns="http://www.w3.org/2000/svg" xmlns:xlink="http://www.w3.org/1999/xlink" xml:space="preserve" onload="init(evt)">
<style type="text/css"><![CDATA[
.edge:hover path { stroke: red; }
.edge:hover polygon { stroke: red; fill: red; }
]]></style>
<script type="text/javascript"><![CDATA[
var edges = document.getElementsByTagName('g');
if (edges && edges.length) {
  for (var i=0;i<edges.length;i++) {
    if (edges[i].id.substr(0,4)=='edge') {
      edges[i].setAttribute('class','edge');
    }
  }
}
]]></script>
        <defs>
                <circle id="rim" cx="0" cy="0" r="7"/>
                <circle id="rim2" cx="0" cy="0" r="3.5"/>
                <g id="zoomPlus">
                        <use xlink:href="#rim" fill="#404040">
                                <set attributeName="fill" to="#808080" begin="zoomplus.mouseover" end="zoomplus.mouseout"/>
                        </use>
                        <path d="M-4,0h8M0,-4v8" fill="none" stroke="white" stroke-width="1.5" pointer-events="none"/>
                </g>
                <g id="zoomMin">
                        <use xlink:href="#rim" fill="#404040">
                                <set attributeName="fill" to="#808080" begin="zoomminus.mouseover" end="zoomminus.mouseout"/>
                        </use>
                        <path d="M-4,0h8" fill="none" stroke="white" stroke-width="1.5" pointer-events="none"/>
                </g>
                <g id="dirArrow">
                        <path fill="none" stroke="white" stroke-width="1.5" d="M0,-3.0v7 M-2.5,-0.5L0,-3.0L2.5,-0.5"/>
                </g>
               <g id="resetDef">
                       <use xlink:href="#rim2" fill="#404040">
                               <set attributeName="fill" to="#808080" begin="reset.mouseover" end="reset.mouseout"/>
                       </use>
               </g>
        </defs>

<script type="text/javascript">
var viewWidth = 566;
var viewHeight = 332;
var sectionId = 'dynsection-19';
</script>
<script xlink:href="svgpan.js"/>
<svg id="graph" class="graph">
<g id="viewport">
<title>cdvdfsv_rpc5_inpacket_</title>
<polygon fill="white" stroke="transparent" points="-4,4 -4,-328 562,-328 562,4 -4,4"/>
<!-- Node1 -->
<g id="node1" class="node">
<title>Node1</title>
<g id="a_node1"><a xlink:title=" ">
<polygon fill="#bfbfbf" stroke="black" points="425,-152.5 425,-171.5 558,-171.5 558,-152.5 425,-152.5"/>
<text text-anchor="middle" x="491.5" y="-159.5" font-family="Helvetica,sans-Serif" font-size="10.00">cdvdfsv_rpc5_inpacket_</text>
</a>
</g>
</g>
<!-- Node2 -->
<g id="node2" class="node">
<title>Node2</title>
<g id="a_node2"><a xlink:href="libcdvd-rpc_8h.html#structcdvdfsv__rpc5__01__inpacket__" target="_top" xlink:title=" ">
<polygon fill="white" stroke="black" points="185,-228.5 185,-247.5 335,-247.5 335,-228.5 185,-228.5"/>
<text text-anchor="middle" x="260" y="-235.5" font-family="Helvetica,sans-Serif" font-size="10.00">cdvdfsv_rpc5_01_inpacket_</text>
</a>
</g>
</g>
<!-- Node2&#45;&gt;Node1 -->
<g id="edge1" class="edge">
<title>Node2&#45;&gt;Node1</title>
<path fill="none" stroke="#9a32cd" stroke-dasharray="5,2" d="M309.1,-225.92C318.05,-223.64 327.31,-221.26 336,-219 367.61,-210.77 376.25,-211.03 407,-200 429.94,-191.78 455.28,-179.81 471.97,-171.51"/>
<polygon fill="#9a32cd" stroke="#9a32cd" points="308.01,-222.58 299.18,-228.43 309.73,-229.37 308.01,-222.58"/>
<text text-anchor="middle" x="380.5" y="-217" font-family="Helvetica,sans-Serif" font-size="10.00"> m_pkt_01</text>
</g>
<!-- Node3 -->
<g id="node3" class="node">
<title>Node3</title>
<g id="a_node3"><a xlink:href="libcdvd-common_8h.html#structsce_cd_r_mode" target="_top" xlink:title=" ">
<polygon fill="white" stroke="black" points="0,-228.5 0,-247.5 80,-247.5 80,-228.5 0,-228.5"/>
<text text-anchor="middle" x="40" y="-235.5" font-family="Helvetica,sans-Serif" font-size="10.00">sceCdRMode</text>
</a>
</g>
</g>
<!-- Node3&#45;&gt;Node2 -->
<g id="edge2" class="edge">
<title>Node3&#45;&gt;Node2</title>
<path fill="none" stroke="#9a32cd" stroke-dasharray="5,2" d="M90.51,-238C118.38,-238 153.71,-238 184.82,-238"/>
<polygon fill="#9a32cd" stroke="#9a32cd" points="90.23,-234.5 80.23,-238 90.23,-241.5 90.23,-234.5"/>
<text text-anchor="middle" x="132" y="-241" font-family="Helvetica,sans-Serif" font-size="10.00"> m_rmodeee</text>
</g>
<!-- Node4 -->
<g id="node4" class="node">
<title>Node4</title>
<g id="a_node4"><a xlink:href="libcdvd-rpc_8h.html#structcdvdfsv__rpc5__0_d__inpacket__" target="_top" xlink:title=" ">
<polygon fill="white" stroke="black" points="184,-76.5 184,-95.5 336,-95.5 336,-76.5 184,-76.5"/>
<text text-anchor="middle" x="260" y="-83.5" font-family="Helvetica,sans-Serif" font-size="10.00">cdvdfsv_rpc5_0D_inpacket_</text>
</a>
</g>
</g>
<!-- Node3&#45;&gt;Node4 -->
<g id="edge4" class="edge">
<title>Node3&#45;&gt;Node4</title>
<path fill="none" stroke="#9a32cd" stroke-dasharray="5,2" d="M54.89,-220.27C78.34,-191.57 128.68,-135.12 184,-105 191.08,-101.15 198.96,-98.05 206.88,-95.58"/>
<polygon fill="#9a32cd" stroke="#9a32cd" points="52.03,-218.24 48.5,-228.23 57.49,-222.62 52.03,-218.24"/>
<text text-anchor="middle" x="132" y="-172" font-family="Helvetica,sans-Serif" font-size="10.00"> m_mode</text>
</g>
<!-- Node5 -->
<g id="node5" class="node">
<title>Node5</title>
<g id="a_node5"><a xlink:href="libcdvd-rpc_8h.html#structcdvdfsv__rpc5__0_f__inpacket__" target="_top" xlink:title=" ">
<polygon fill="white" stroke="black" points="185,-0.5 185,-19.5 335,-19.5 335,-0.5 185,-0.5"/>
<text text-anchor="middle" x="260" y="-7.5" font-family="Helvetica,sans-Serif" font-size="10.00">cdvdfsv_rpc5_0F_inpacket_</text>
</a>
</g>
</g>
<!-- Node3&#45;&gt;Node5 -->
<g id="edge6" class="edge">
<title>Node3&#45;&gt;Node5</title>
<path fill="none" stroke="#9a32cd" stroke-dasharray="5,2" d="M45.75,-218.7C53.34,-190.56 70.26,-137.55 98,-100 127.45,-60.13 139.79,-51.41 184,-29 191.55,-25.17 199.92,-22.08 208.26,-19.59"/>
<polygon fill="#9a32cd" stroke="#9a32cd" points="42.33,-217.94 43.21,-228.5 49.11,-219.69 42.33,-217.94"/>
<text text-anchor="middle" x="132" y="-103" font-family="Helvetica,sans-Serif" font-size="10.00"> m_mode</text>
</g>
<!-- Node10 -->
<g id="node10" class="node">
<title>Node10</title>
<g id="a_node10"><a xlink:href="libcdvd-rpc_8h.html#structcdvdfsv__rpc5__03__inpacket__" target="_top" xlink:title=" ">
<polygon fill="white" stroke="black" points="185,-304.5 185,-323.5 335,-323.5 335,-304.5 185,-304.5"/>
<text text-anchor="middle" x="260" y="-311.5" font-family="Helvetica,sans-Serif" font-size="10.00">cdvdfsv_rpc5_03_inpacket_</text>
</a>
</g>
</g>
<!-- Node3&#45;&gt;Node10 -->
<g id="edge12" class="edge">
<title>Node3&#45;&gt;Node10</title>
<path fill="none" stroke="#9a32cd" stroke-dasharray="5,2" d="M60.04,-254.22C70.61,-262.46 84.35,-271.97 98,-278 126.56,-290.61 159.98,-299.01 188.96,-304.5"/>
<polygon fill="#9a32cd" stroke="#9a32cd" points="61.96,-251.27 51.98,-247.7 57.56,-256.71 61.96,-251.27"/>
<text text-anchor="middle" x="132" y="-301" font-family="Helvetica,sans-Serif" font-size="10.00"> m_mode</text>
</g>
<!-- Node12 -->
<g id="node12" class="node">
<title>Node12</title>
<g id="a_node12"><a xlink:href="libcdvd-rpc_8h.html#structcdvdfsv__rpc5__02__inpacket__" target="_top" xlink:title=" ">
<polygon fill="white" stroke="black" points="185,-266.5 185,-285.5 335,-285.5 335,-266.5 185,-266.5"/>
<text text-anchor="middle" x="260" y="-273.5" font-family="Helvetica,sans-Serif" font-size="10.00">cdvdfsv_rpc5_02_inpacket_</text>
</a>
</g>
</g>
<!-- Node3&#45;&gt;Node12 -->
<g id="edge15" class="edge">
<title>Node3&#45;&gt;Node12</title>
<path fill="none" stroke="#9a32cd" stroke-dasharray="5,2" d="M87.57,-249.81C91.09,-250.59 94.6,-251.33 98,-252 126.42,-257.6 157.89,-262.56 185.42,-266.5"/>
<polygon fill="#9a32cd" stroke="#9a32cd" points="88.21,-246.37 77.68,-247.54 86.65,-253.19 88.21,-246.37"/>
<text text-anchor="middle" x="132" y="-266" font-family="Helvetica,sans-Serif" font-size="10.00"> m_mode</text>
</g>
<!-- Node4&#45;&gt;Node1 -->
<g id="edge3" class="edge">
<title>Node4&#45;&gt;Node1</title>
<path fill="none" stroke="#9a32cd" stroke-dasharray="5,2" d="M308.49,-98.03C317.62,-100.34 327.11,-102.75 336,-105 367.56,-113 376.34,-112.06 407,-123 430.36,-131.33 456.04,-143.87 472.67,-152.47"/>
<polygon fill="#9a32cd" stroke="#9a32cd" points="309.32,-94.63 298.77,-95.57 307.6,-101.42 309.32,-94.63"/>
<text text-anchor="middle" x="380.5" y="-126" font-family="Helvetica,sans-Serif" font-size="10.00"> m_pkt_0D</text>
</g>
<!-- Node5&#45;&gt;Node1 -->
<g id="edge5" class="edge">
<title>Node5&#45;&gt;Node1</title>
<path fill="none" stroke="#9a32cd" stroke-dasharray="5,2" d="M328.64,-22.03C354.92,-29.08 384.13,-40.07 407,-57 444.06,-84.44 473.74,-132.25 485.29,-152.5"/>
<polygon fill="#9a32cd" stroke="#9a32cd" points="329.29,-18.58 318.73,-19.52 327.57,-25.37 329.29,-18.58"/>
<text text-anchor="middle" x="380.5" y="-60" font-family="Helvetica,sans-Serif" font-size="10.00"> m_pkt_0F</text>
</g>
<!-- Node6 -->
<g id="node6" class="node">
<title>Node6</title>
<g id="a_node6"><a xlink:href="libcdvd-common_8h.html#structsce_cd_r_chain" target="_top" xlink:title=" ">
<polygon fill="white" stroke="black" points="0,-0.5 0,-19.5 80,-19.5 80,-0.5 0,-0.5"/>
<text text-anchor="middle" x="40" y="-7.5" font-family="Helvetica,sans-Serif" font-size="10.00">sceCdRChain</text>
</a>
</g>
</g>
<!-- Node6&#45;&gt;Node5 -->
<g id="edge7" class="edge">
<title>Node6&#45;&gt;Node5</title>
<path fill="none" stroke="#9a32cd" stroke-dasharray="5,2" d="M90.51,-10C118.38,-10 153.71,-10 184.82,-10"/>
<polygon fill="#9a32cd" stroke="#9a32cd" points="90.23,-6.5 80.23,-10 90.23,-13.5 90.23,-6.5"/>
<text text-anchor="middle" x="132" y="-13" font-family="Helvetica,sans-Serif" font-size="10.00"> m_readChain</text>
</g>
<!-- Node7 -->
<g id="node7" class="node">
<title>Node7</title>
<g id="a_node7"><a xlink:href="libcdvd-rpc_8h.html#structcdvdfsv__rpc5__0_c__inpacket__" target="_top" xlink:title=" ">
<polygon fill="white" stroke="black" points="184.5,-190.5 184.5,-209.5 335.5,-209.5 335.5,-190.5 184.5,-190.5"/>
<text text-anchor="middle" x="260" y="-197.5" font-family="Helvetica,sans-Serif" font-size="10.00">cdvdfsv_rpc5_0C_inpacket_</text>
</a>
</g>
</g>
<!-- Node7&#45;&gt;Node1 -->
<g id="edge8" class="edge">
<title>Node7&#45;&gt;Node1</title>
<path fill="none" stroke="#9a32cd" stroke-dasharray="5,2" d="M333.46,-188.9C356.94,-185.22 383.09,-181.03 407,-177 417.17,-175.29 428.02,-173.39 438.42,-171.53"/>
<polygon fill="#9a32cd" stroke="#9a32cd" points="332.91,-185.44 323.57,-190.45 333.99,-192.36 332.91,-185.44"/>
<text text-anchor="middle" x="380.5" y="-188" font-family="Helvetica,sans-Serif" font-size="10.00"> m_pkt_0C</text>
</g>
<!-- Node8 -->
<g id="node8" class="node">
<title>Node8</title>
<g id="a_node8"><a xlink:href="libcdvd-rpc_8h.html#structcdvdfsv__rpc5__04__inpacket__" target="_top" xlink:title=" ">
<polygon fill="white" stroke="black" points="185,-152.5 185,-171.5 335,-171.5 335,-152.5 185,-152.5"/>
<text text-anchor="middle" x="260" y="-159.5" font-family="Helvetica,sans-Serif" font-size="10.00">cdvdfsv_rpc5_04_inpacket_</text>
</a>
</g>
</g>
<!-- Node8&#45;&gt;Node1 -->
<g id="edge9" class="edge">
<title>Node8&#45;&gt;Node1</title>
<path fill="none" stroke="#9a32cd" stroke-dasharray="5,2" d="M345.47,-162C371.61,-162 400.01,-162 424.69,-162"/>
<polygon fill="#9a32cd" stroke="#9a32cd" points="345.2,-158.5 335.2,-162 345.2,-165.5 345.2,-158.5"/>
<text text-anchor="middle" x="380.5" y="-165" font-family="Helvetica,sans-Serif" font-size="10.00"> m_pkt_04</text>
</g>
<!-- Node9 -->
<g id="node9" class="node">
<title>Node9</title>
<g id="a_node9"><a xlink:href="libcdvd-rpc_8h.html#structcdvdfsv__rpc5__0_b__inpacket__" target="_top" xlink:title=" ">
<polygon fill="white" stroke="black" points="184.5,-114.5 184.5,-133.5 335.5,-133.5 335.5,-114.5 184.5,-114.5"/>
<text text-anchor="middle" x="260" y="-121.5" font-family="Helvetica,sans-Serif" font-size="10.00">cdvdfsv_rpc5_0B_inpacket_</text>
</a>
</g>
</g>
<!-- Node9&#45;&gt;Node1 -->
<g id="edge10" class="edge">
<title>Node9&#45;&gt;Node1</title>
<path fill="none" stroke="#9a32cd" stroke-dasharray="5,2" d="M333.46,-135.1C356.94,-138.78 383.09,-142.97 407,-147 417.17,-148.71 428.02,-150.61 438.42,-152.47"/>
<polygon fill="#9a32cd" stroke="#9a32cd" points="333.99,-131.64 323.57,-133.55 332.91,-138.56 333.99,-131.64"/>
<text text-anchor="middle" x="380.5" y="-150" font-family="Helvetica,sans-Serif" font-size="10.00"> m_pkt_0B</text>
</g>
<!-- Node10&#45;&gt;Node1 -->
<g id="edge11" class="edge">
<title>Node10&#45;&gt;Node1</title>
<path fill="none" stroke="#9a32cd" stroke-dasharray="5,2" d="M326.68,-302.01C353.46,-294.79 383.57,-283.48 407,-266 443.56,-238.72 473.3,-191.84 485.06,-171.68"/>
<polygon fill="#9a32cd" stroke="#9a32cd" points="325.8,-298.62 316.98,-304.49 327.53,-305.4 325.8,-298.62"/>
<text text-anchor="middle" x="380.5" y="-295" font-family="Helvetica,sans-Serif" font-size="10.00"> m_pkt_03</text>
</g>
<!-- Node11 -->
<g id="node11" class="node">
<title>Node11</title>
<g id="a_node11"><a xlink:href="libcdvd-rpc_8h.html#structcdvdfsv__rpc5__05__inpacket__" target="_top" xlink:title=" ">
<polygon fill="white" stroke="black" points="185,-38.5 185,-57.5 335,-57.5 335,-38.5 185,-38.5"/>
<text text-anchor="middle" x="260" y="-45.5" font-family="Helvetica,sans-Serif" font-size="10.00">cdvdfsv_rpc5_05_inpacket_</text>
</a>
</g>
</g>
<!-- Node11&#45;&gt;Node1 -->
<g id="edge13" class="edge">
<title>Node11&#45;&gt;Node1</title>
<path fill="none" stroke="#9a32cd" stroke-dasharray="5,2" d="M311.88,-60.05C319.99,-62.21 328.26,-64.56 336,-67 368.19,-77.16 377.76,-77.13 407,-94 436.15,-110.82 465.59,-137.61 480.5,-152.03"/>
<polygon fill="#9a32cd" stroke="#9a32cd" points="312.67,-56.63 302.11,-57.51 310.91,-63.41 312.67,-56.63"/>
<text text-anchor="middle" x="380.5" y="-97" font-family="Helvetica,sans-Serif" font-size="10.00"> m_pkt_05</text>
</g>
<!-- Node12&#45;&gt;Node1 -->
<g id="edge14" class="edge">
<title>Node12&#45;&gt;Node1</title>
<path fill="none" stroke="#9a32cd" stroke-dasharray="5,2" d="M312.46,-263.89C320.39,-261.76 328.45,-259.43 336,-257 368.28,-246.59 377.66,-246.03 407,-229 435.93,-212.21 465.46,-185.9 480.44,-171.77"/>
<polygon fill="#9a32cd" stroke="#9a32cd" points="311.32,-260.57 302.53,-266.48 313.09,-267.34 311.32,-260.57"/>
<text text-anchor="middle" x="380.5" y="-254" font-family="Helvetica,sans-Serif" font-size="10.00"> m_pkt_02</text>
</g>
</g>
</svg>
        <g id="navigator" transform="translate(0 0)" fill="#404254">
                <rect fill="#f2f5e9" fill-opacity="0.5" stroke="#606060" stroke-width=".5" x="0" y="0" width="60" height="60"/>
                <use id="zoomplus" xlink:href="#zoomPlus" x="17" y="9" onmousedown="handleZoom(evt,'in')"/>
                <use id="zoomminus" xlink:href="#zoomMin" x="42" y="9" onmousedown="handleZoom(evt,'out')"/>
                <use id="reset" xlink:href="#resetDef" x="30" y="36" onmousedown="handleReset()"/>
                <g id="arrowUp" xlink:href="#dirArrow" transform="translate(30 24)" onmousedown="handlePan(0,-1)">
                  <use xlink:href="#rim" fill="#404040">
                        <set attributeName="fill" to="#808080" begin="arrowUp.mouseover" end="arrowUp.mouseout"/>
                  </use>
                  <path fill="none" stroke="white" stroke-width="1.5" d="M0,-3.0v7 M-2.5,-0.5L0,-3.0L2.5,-0.5"/>
                </g>
                <g id="arrowRight" xlink:href="#dirArrow" transform="rotate(90) translate(36 -43)" onmousedown="handlePan(1,0)">
                  <use xlink:href="#rim" fill="#404040">
                        <set attributeName="fill" to="#808080" begin="arrowRight.mouseover" end="arrowRight.mouseout"/>
                  </use>
                  <path fill="none" stroke="white" stroke-width="1.5" d="M0,-3.0v7 M-2.5,-0.5L0,-3.0L2.5,-0.5"/>
                </g>
                <g id="arrowDown" xlink:href="#dirArrow" transform="rotate(180) translate(-30 -48)" onmousedown="handlePan(0,1)">
                  <use xlink:href="#rim" fill="#404040">
                        <set attributeName="fill" to="#808080" begin="arrowDown.mouseover" end="arrowDown.mouseout"/>
                  </use>
                  <path fill="none" stroke="white" stroke-width="1.5" d="M0,-3.0v7 M-2.5,-0.5L0,-3.0L2.5,-0.5"/>
                </g>
                <g id="arrowLeft" xlink:href="#dirArrow" transform="rotate(270) translate(-36 17)" onmousedown="handlePan(-1,0)">
                  <use xlink:href="#rim" fill="#404040">
                        <set attributeName="fill" to="#808080" begin="arrowLeft.mouseover" end="arrowLeft.mouseout"/>
                  </use>
                  <path fill="none" stroke="white" stroke-width="1.5" d="M0,-3.0v7 M-2.5,-0.5L0,-3.0L2.5,-0.5"/>
                </g>
        </g>
        <svg viewBox="0 0 15 15" width="100%" height="30px" preserveAspectRatio="xMaxYMin meet">
         <g id="arrow_out" transform="scale(0.3 0.3)">
          <a xlink:href="unioncdvdfsv__rpc5__inpacket____coll__graph_org.svg" target="_base">
           <rect id="button" ry="5" rx="5" y="6" x="6" height="38" width="38"
                fill="#f2f5e9" fill-opacity="0.5" stroke="#606060" stroke-width="1.0"/>
           <path id="arrow"
             d="M 11.500037,31.436501 C 11.940474,20.09759 22.043105,11.32322 32.158766,21.979434 L 37.068811,17.246167 C 37.068811,17.246167 37.088388,32 37.088388,32 L 22.160133,31.978069 C 22.160133,31.978069 26.997745,27.140456 26.997745,27.140456 C 18.528582,18.264221 13.291696,25.230495 11.500037,31.436501 z"
             style="fill:#404040;"/>
          </a>
         </g>
        </svg>
</svg>
