<?xml version="1.0" encoding="UTF-8" standalone="no"?>
<!DOCTYPE svg PUBLIC "-//W3C//DTD SVG 1.1//EN"
 "http://www.w3.org/Graphics/SVG/1.1/DTD/svg11.dtd">
<!-- Generated by graphviz version 12.2.0 (20241103.1931)
 -->
<!-- Title: cdvdfsv_rpc5_outpacket_ Pages: 1 -->
<svg width="363pt" height="138pt"
 viewBox="0.00 0.00 363.25 138.25" xmlns="http://www.w3.org/2000/svg" xmlns:xlink="http://www.w3.org/1999/xlink">

<svg id="main" version="1.1" xmlns="http://www.w3.org/2000/svg" xmlns:xlink="http://www.w3.org/1999/xlink" xml:space="preserve">

<style type="text/css"><![CDATA[
.node, .edge {opacity: 0.7;}
.node.selected, .edge.selected {opacity: 1;}
.edge:hover path { stroke: red; }
.edge:hover polygon { stroke: red; fill: red; }
]]></style>
<script type="application/ecmascript" xlink:href="svg.min.js"/>
<svg id="graph" class="graph">
<g id="graph0" class="graph" transform="scale(1 1) rotate(0) translate(4 134.25)">
<title>cdvdfsv_rpc5_outpacket_</title>
<!-- Node1 -->
<g id="Node000001" class="node">
<title>Node1</title>
<g id="a_Node000001"><a xlink:title=" ">
<polygon fill="#999999" stroke="#666666" points="355.25,-74.25 227.5,-74.25 227.5,-55 355.25,-55 355.25,-74.25"/>
<text text-anchor="middle" x="291.38" y="-60.75" font-family="Helvetica,sans-Serif" font-size="10.00">cdvdfsv_rpc5_outpacket_</text>
</a>
</g>
</g>
<!-- Node2 -->
<g id="Node000002" class="node">
<title>Node2</title>
<g id="a_Node000002"><a xlink:href="libcdvd-rpc_8h.html#structcdvdfsv__rpc5__04__outpacket__" target="_top" xlink:title=" ">
<polygon fill="white" stroke="#bfbfbf" points="144.25,-130.25 0.75,-130.25 0.75,-111 144.25,-111 144.25,-130.25"/>
<text text-anchor="middle" x="72.5" y="-116.75" font-family="Helvetica,sans-Serif" font-size="10.00">cdvdfsv_rpc5_04_outpacket_</text>
</a>
</g>
</g>
<!-- Node2&#45;&gt;Node1 -->
<g id="edge1_Node000001_Node000002" class="edge">
<title>Node2&#45;&gt;Node1</title>
<g id="a_edge1_Node000001_Node000002"><a xlink:title=" ">
<path fill="none" stroke="#9a32cd" stroke-dasharray="5,2" d="M135.61,-108.21C158.91,-103.22 185.53,-97.11 209.5,-90.62 226.87,-85.93 246.05,-79.8 261.37,-74.68"/>
<polygon fill="#9a32cd" stroke="#9a32cd" points="135.01,-104.76 125.95,-110.25 136.46,-111.61 135.01,-104.76"/>
</a>
</g>
<text text-anchor="middle" x="186.25" y="-103.45" font-family="Helvetica,sans-Serif" font-size="10.00" fill="grey"> m_pkt_04</text>
</g>
<!-- Node3 -->
<g id="Node000003" class="node">
<title>Node3</title>
<g id="a_Node000003"><a xlink:href="libcdvd-rpc_8h.html#structcdvdfsv__rpc5__0_b__outpacket__" target="_top" xlink:title=" ">
<polygon fill="white" stroke="#bfbfbf" points="145,-93.25 0,-93.25 0,-74 145,-74 145,-93.25"/>
<text text-anchor="middle" x="72.5" y="-79.75" font-family="Helvetica,sans-Serif" font-size="10.00">cdvdfsv_rpc5_0B_outpacket_</text>
</a>
</g>
</g>
<!-- Node3&#45;&gt;Node1 -->
<g id="edge2_Node000001_Node000003" class="edge">
<title>Node3&#45;&gt;Node1</title>
<g id="a_edge2_Node000001_Node000003"><a xlink:title=" ">
<path fill="none" stroke="#9a32cd" stroke-dasharray="5,2" d="M156.72,-76.33C180.06,-74.29 205.05,-72.1 227.03,-70.17"/>
<polygon fill="#9a32cd" stroke="#9a32cd" points="156.58,-72.83 146.92,-77.19 157.19,-79.81 156.58,-72.83"/>
</a>
</g>
<text text-anchor="middle" x="186.25" y="-77.01" font-family="Helvetica,sans-Serif" font-size="10.00" fill="grey"> m_pkt_0B</text>
</g>
<!-- Node4 -->
<g id="Node000004" class="node">
<title>Node4</title>
<g id="a_Node000004"><a xlink:href="libcdvd-rpc_8h.html#structcdvdfsv__rpc5__11__outpacket__" target="_top" xlink:title=" ">
<polygon fill="white" stroke="#bfbfbf" points="144.25,-56.25 0.75,-56.25 0.75,-37 144.25,-37 144.25,-56.25"/>
<text text-anchor="middle" x="72.5" y="-42.75" font-family="Helvetica,sans-Serif" font-size="10.00">cdvdfsv_rpc5_11_outpacket_</text>
</a>
</g>
</g>
<!-- Node4&#45;&gt;Node1 -->
<g id="edge3_Node000001_Node000004" class="edge">
<title>Node4&#45;&gt;Node1</title>
<g id="a_edge3_Node000001_Node000004"><a xlink:title=" ">
<path fill="none" stroke="#9a32cd" stroke-dasharray="5,2" d="M156.03,-46.96C173.7,-47.57 192.25,-48.63 209.5,-50.38 219.29,-51.37 229.67,-52.86 239.63,-54.51"/>
<polygon fill="#9a32cd" stroke="#9a32cd" points="156.18,-43.46 146.08,-46.66 155.97,-50.46 156.18,-43.46"/>
</a>
</g>
<text text-anchor="middle" x="186.25" y="-52.12" font-family="Helvetica,sans-Serif" font-size="10.00" fill="grey"> m_pkt_11</text>
</g>
<!-- Node5 -->
<g id="Node000005" class="node">
<title>Node5</title>
<g id="a_Node000005"><a xlink:href="libcdvd-rpc_8h.html#structcdvdfsv__rpc5__17__outpacket__" target="_top" xlink:title=" ">
<polygon fill="white" stroke="#bfbfbf" points="144.25,-19.25 0.75,-19.25 0.75,0 144.25,0 144.25,-19.25"/>
<text text-anchor="middle" x="72.5" y="-5.75" font-family="Helvetica,sans-Serif" font-size="10.00">cdvdfsv_rpc5_17_outpacket_</text>
</a>
</g>
</g>
<!-- Node5&#45;&gt;Node1 -->
<g id="edge4_Node000001_Node000005" class="edge">
<title>Node5&#45;&gt;Node1</title>
<g id="a_edge4_Node000001_Node000005"><a xlink:title=" ">
<path fill="none" stroke="#9a32cd" stroke-dasharray="5,2" d="M155.98,-20.52C173.79,-23.67 192.4,-27.59 209.5,-32.38 230.17,-38.15 252.79,-47.44 268.84,-54.57"/>
<polygon fill="#9a32cd" stroke="#9a32cd" points="156.66,-17.08 146.21,-18.85 155.48,-23.98 156.66,-17.08"/>
</a>
</g>
<text text-anchor="middle" x="186.25" y="-34.12" font-family="Helvetica,sans-Serif" font-size="10.00" fill="grey"> m_pkt_17</text>
</g>
</g>
</svg>
</svg>

<style type='text/css'>
<![CDATA[
[data-mouse-over-selected='false'] { opacity: 0.7; }
[data-mouse-over-selected='true']  { opacity: 1.0; }
]]>
</style>
<script type="application/ecmascript"><![CDATA[
document.addEventListener('DOMContentLoaded', (event) => {
  highlightEdges();
  highlightAdjacentNodes();
});
]]></script>
</svg>
