<?xml version="1.0" encoding="UTF-8" standalone="no"?>
<!DOCTYPE svg PUBLIC "-//W3C//DTD SVG 1.1//EN"
 "http://www.w3.org/Graphics/SVG/1.1/DTD/svg11.dtd">
<!-- Generated by graphviz version 2.43.0 (0)
 -->
<!-- Title: sCmdSendParams_t Pages: 1 -->
<svg width="490pt" height="95pt"
 viewBox="0.00 0.00 490.00 95.00" xmlns="http://www.w3.org/2000/svg" xmlns:xlink="http://www.w3.org/1999/xlink">
<g id="graph0" class="graph" transform="scale(1 1) rotate(0) translate(4 91)">
<title>sCmdSendParams_t</title>
<polygon fill="white" stroke="transparent" points="-4,4 -4,-91 486,-91 486,4 -4,4"/>
<!-- Node1 -->
<g id="node1" class="node">
<title>Node1</title>
<g id="a_node1"><a xlink:title=" ">
<polygon fill="#bfbfbf" stroke="black" points="186,-0.5 186,-19.5 299,-19.5 299,-0.5 186,-0.5"/>
<text text-anchor="middle" x="242.5" y="-7.5" font-family="Helvetica,sans-Serif" font-size="10.00">sCmdSendParams_t</text>
</a>
</g>
</g>
<!-- Node2 -->
<g id="node2" class="node">
<title>Node2</title>
<g id="a_node2"><a xlink:href="libcdvd-rpc_8h.html#structcdvd_dec_set_param" target="_top" xlink:title=" ">
<polygon fill="white" stroke="black" points="0,-67.5 0,-86.5 105,-86.5 105,-67.5 0,-67.5"/>
<text text-anchor="middle" x="52.5" y="-74.5" font-family="Helvetica,sans-Serif" font-size="10.00">cdvdDecSetParam</text>
</a>
</g>
</g>
<!-- Node2&#45;&gt;Node1 -->
<g id="edge1" class="edge">
<title>Node2&#45;&gt;Node1</title>
<path fill="none" stroke="#9a32cd" stroke-dasharray="5,2" d="M86.4,-64.22C108.14,-56.68 136.97,-46.72 162.5,-38 180.67,-31.79 201.2,-24.87 216.9,-19.59"/>
<polygon fill="#9a32cd" stroke="#9a32cd" points="85.25,-60.91 76.95,-67.5 87.54,-67.53 85.25,-60.91"/>
<text text-anchor="middle" x="181" y="-41" font-family="Helvetica,sans-Serif" font-size="10.00"> decSet</text>
</g>
<!-- Node3 -->
<g id="node3" class="node">
<title>Node3</title>
<g id="a_node3"><a xlink:href="libcdvd-rpc_8h.html#structcdvd_scmd_param" target="_top" xlink:title=" ">
<polygon fill="white" stroke="black" points="123.5,-67.5 123.5,-86.5 221.5,-86.5 221.5,-67.5 123.5,-67.5"/>
<text text-anchor="middle" x="172.5" y="-74.5" font-family="Helvetica,sans-Serif" font-size="10.00">cdvdScmdParam</text>
</a>
</g>
</g>
<!-- Node3&#45;&gt;Node1 -->
<g id="edge2" class="edge">
<title>Node3&#45;&gt;Node1</title>
<path fill="none" stroke="#9a32cd" stroke-dasharray="5,2" d="M189.35,-60.36C203.11,-47.58 222.05,-29.99 233.21,-19.63"/>
<polygon fill="#9a32cd" stroke="#9a32cd" points="186.89,-57.86 181.94,-67.23 191.65,-62.99 186.89,-57.86"/>
<text text-anchor="middle" x="227.5" y="-41" font-family="Helvetica,sans-Serif" font-size="10.00"> scmd</text>
</g>
<!-- Node4 -->
<g id="node4" class="node">
<title>Node4</title>
<g id="a_node4"><a xlink:href="libcdvd-rpc_8h.html#structcdvd_read_write_nvm_param" target="_top" xlink:title=" ">
<polygon fill="white" stroke="black" points="240,-67.5 240,-86.5 385,-86.5 385,-67.5 240,-67.5"/>
<text text-anchor="middle" x="312.5" y="-74.5" font-family="Helvetica,sans-Serif" font-size="10.00">cdvdReadWriteNvmParam</text>
</a>
</g>
</g>
<!-- Node4&#45;&gt;Node1 -->
<g id="edge3" class="edge">
<title>Node4&#45;&gt;Node1</title>
<path fill="none" stroke="#9a32cd" stroke-dasharray="5,2" d="M295.65,-60.36C281.89,-47.58 262.95,-29.99 251.79,-19.63"/>
<polygon fill="#9a32cd" stroke="#9a32cd" points="293.35,-62.99 303.06,-67.23 298.11,-57.86 293.35,-62.99"/>
<text text-anchor="middle" x="294" y="-41" font-family="Helvetica,sans-Serif" font-size="10.00"> nvm</text>
</g>
<!-- Node5 -->
<g id="node5" class="node">
<title>Node5</title>
<g id="a_node5"><a xlink:href="libcdvd-common_8h.html#structsce_cd_c_l_o_c_k" target="_top" xlink:title=" ">
<polygon fill="white" stroke="black" points="403,-67.5 403,-86.5 482,-86.5 482,-67.5 403,-67.5"/>
<text text-anchor="middle" x="442.5" y="-74.5" font-family="Helvetica,sans-Serif" font-size="10.00">sceCdCLOCK</text>
</a>
</g>
</g>
<!-- Node5&#45;&gt;Node1 -->
<g id="edge4" class="edge">
<title>Node5&#45;&gt;Node1</title>
<path fill="none" stroke="#9a32cd" stroke-dasharray="5,2" d="M406.39,-64.27C366.77,-51.39 304.1,-31.02 268.85,-19.56"/>
<polygon fill="#9a32cd" stroke="#9a32cd" points="405.35,-67.61 415.94,-67.37 407.51,-60.95 405.35,-67.61"/>
<text text-anchor="middle" x="368" y="-41" font-family="Helvetica,sans-Serif" font-size="10.00"> clock</text>
</g>
</g>
</svg>
