<?xml version="1.0" encoding="UTF-8" standalone="no"?>
<!DOCTYPE svg PUBLIC "-//W3C//DTD SVG 1.1//EN"
 "http://www.w3.org/Graphics/SVG/1.1/DTD/svg11.dtd">
<!-- Generated by graphviz version 9.0.0 (20230911.1827)
 -->
<!-- Title: nCmdSendParams_t Pages: 1 -->
<svg width="222pt" height="94pt"
 viewBox="0.00 0.00 222.12 93.75" xmlns="http://www.w3.org/2000/svg" xmlns:xlink="http://www.w3.org/1999/xlink">
<g id="graph0" class="graph" transform="scale(1 1) rotate(0) translate(4 89.75)">
<title>nCmdSendParams_t</title>
<!-- Node1 -->
<g id="Node000001" class="node">
<title>Node1</title>
<g id="a_Node000001"><a xlink:title=" ">
<polygon fill="#999999" stroke="#666666" points="156.88,-19.25 50.88,-19.25 50.88,0 156.88,0 156.88,-19.25"/>
<text text-anchor="middle" x="103.88" y="-5.75" font-family="Helvetica,sans-Serif" font-size="10.00">nCmdSendParams_t</text>
</a>
</g>
</g>
<!-- Node2 -->
<g id="Node000002" class="node">
<title>Node2</title>
<g id="a_Node000002"><a xlink:href="libcdvd-rpc_8h.html#structcdvd_ncmd_param" target="_top" xlink:title=" ">
<polygon fill="white" stroke="#bfbfbf" points="91.75,-85.75 0,-85.75 0,-66.5 91.75,-66.5 91.75,-85.75"/>
<text text-anchor="middle" x="45.88" y="-72.25" font-family="Helvetica,sans-Serif" font-size="10.00">cdvdNcmdParam</text>
</a>
</g>
</g>
<!-- Node2&#45;&gt;Node1 -->
<g id="edge1_Node000001_Node000002" class="edge">
<title>Node2&#45;&gt;Node1</title>
<g id="a_edge1_Node000001_Node000002"><a xlink:title=" ">
<path fill="none" stroke="#9a32cd" stroke-dasharray="5,2" d="M61.63,-57.61C72.71,-45.28 87.08,-29.31 95.88,-19.52"/>
<polygon fill="#9a32cd" stroke="#9a32cd" points="59.04,-55.26 54.95,-65.03 64.24,-59.94 59.04,-55.26"/>
</a>
</g>
<text text-anchor="middle" x="92" y="-39" font-family="Helvetica,sans-Serif" font-size="10.00" fill="grey"> ncmd</text>
</g>
<!-- Node3 -->
<g id="Node000003" class="node">
<title>Node3</title>
<g id="a_Node000003"><a xlink:href="libcdvd-rpc_8h.html#structcdvd_read_key_param" target="_top" xlink:title=" ">
<polygon fill="white" stroke="#bfbfbf" points="214.12,-85.75 109.62,-85.75 109.62,-66.5 214.12,-66.5 214.12,-85.75"/>
<text text-anchor="middle" x="161.88" y="-72.25" font-family="Helvetica,sans-Serif" font-size="10.00">cdvdReadKeyParam</text>
</a>
</g>
</g>
<!-- Node3&#45;&gt;Node1 -->
<g id="edge2_Node000001_Node000003" class="edge">
<title>Node3&#45;&gt;Node1</title>
<g id="a_edge2_Node000001_Node000003"><a xlink:title=" ">
<path fill="none" stroke="#9a32cd" stroke-dasharray="5,2" d="M146.12,-57.61C135.04,-45.28 120.67,-29.31 111.87,-19.52"/>
<polygon fill="#9a32cd" stroke="#9a32cd" points="143.51,-59.94 152.8,-65.03 148.71,-55.26 143.51,-59.94"/>
</a>
</g>
<text text-anchor="middle" x="154.62" y="-39" font-family="Helvetica,sans-Serif" font-size="10.00" fill="grey"> readKey</text>
</g>
</g>
</svg>
