<?xml version="1.0" encoding="UTF-8" standalone="no"?>
<!DOCTYPE svg PUBLIC "-//W3C//DTD SVG 1.1//EN"
 "http://www.w3.org/Graphics/SVG/1.1/DTD/svg11.dtd">
<!-- Generated by graphviz version 2.43.0 (0)
 -->
<!-- Title: sysmem_info_ Pages: 1 -->
<svg width="254pt" height="240pt"
 viewBox="0.00 0.00 253.50 240.00" xmlns="http://www.w3.org/2000/svg" xmlns:xlink="http://www.w3.org/1999/xlink">
<g id="graph0" class="graph" transform="scale(1 1) rotate(0) translate(4 236)">
<title>sysmem_info_</title>
<polygon fill="white" stroke="transparent" points="-4,4 -4,-236 249.5,-236 249.5,4 -4,4"/>
<!-- Node1 -->
<g id="node1" class="node">
<title>Node1</title>
<g id="a_node1"><a xlink:title=" ">
<polygon fill="#bfbfbf" stroke="black" points="79,-0.5 79,-19.5 167,-19.5 167,-0.5 79,-0.5"/>
<text text-anchor="middle" x="123" y="-7.5" font-family="Helvetica,sans-Serif" font-size="10.00">sysmem_info_</text>
</a>
</g>
</g>
<!-- Node2 -->
<g id="node2" class="node">
<title>Node2</title>
<g id="a_node2"><a xlink:href="xsysmem_8h.html#structsysmem__blockinfo__" target="_top" xlink:title=" ">
<polygon fill="white" stroke="black" points="0,-67.5 0,-86.5 114,-86.5 114,-67.5 0,-67.5"/>
<text text-anchor="middle" x="57" y="-74.5" font-family="Helvetica,sans-Serif" font-size="10.00">sysmem_blockinfo_</text>
</a>
</g>
</g>
<!-- Node2&#45;&gt;Node1 -->
<g id="edge1" class="edge">
<title>Node2&#45;&gt;Node1</title>
<path fill="none" stroke="#9a32cd" stroke-dasharray="5,2" d="M73.25,-60C86.19,-47.25 103.81,-29.89 114.24,-19.63"/>
<polygon fill="#9a32cd" stroke="#9a32cd" points="70.57,-57.72 65.9,-67.23 75.48,-62.71 70.57,-57.72"/>
<text text-anchor="middle" x="118.5" y="-41" font-family="Helvetica,sans-Serif" font-size="10.00"> blockinfo</text>
</g>
<!-- Node3 -->
<g id="node3" class="node">
<title>Node3</title>
<g id="a_node3"><a xlink:href="sysmem_8h.html#structsysmem__alloc__table__" target="_top" xlink:title=" ">
<polygon fill="white" stroke="black" points="61,-145.5 61,-164.5 183,-164.5 183,-145.5 61,-145.5"/>
<text text-anchor="middle" x="122" y="-152.5" font-family="Helvetica,sans-Serif" font-size="10.00">sysmem_alloc_table_</text>
</a>
</g>
</g>
<!-- Node3&#45;&gt;Node2 -->
<g id="edge2" class="edge">
<title>Node3&#45;&gt;Node2</title>
<path fill="none" stroke="#9a32cd" stroke-dasharray="5,2" d="M107.84,-137.44C94.45,-121.79 74.9,-98.93 64.37,-86.62"/>
<polygon fill="#9a32cd" stroke="#9a32cd" points="105.38,-139.96 114.54,-145.28 110.7,-135.41 105.38,-139.96"/>
<text text-anchor="middle" x="124" y="-113.5" font-family="Helvetica,sans-Serif" font-size="10.00"> table_info</text>
</g>
<!-- Node3&#45;&gt;Node3 -->
<g id="edge5" class="edge">
<title>Node3&#45;&gt;Node3</title>
<path fill="none" stroke="#9a32cd" stroke-dasharray="5,2" d="M193.49,-159.28C198.17,-158.28 201,-156.86 201,-155 201,-152.03 193.75,-150.16 183.28,-149.4"/>
<polygon fill="#9a32cd" stroke="#9a32cd" points="192.74,-155.84 183.28,-160.6 193.65,-162.78 192.74,-155.84"/>
<text text-anchor="middle" x="213.5" y="-152.5" font-family="Helvetica,sans-Serif" font-size="10.00"> next</text>
</g>
<!-- Node5 -->
<g id="node5" class="node">
<title>Node5</title>
<g id="a_node5"><a xlink:href="xsysmem_8h.html#structsysmem__meminfo__" target="_top" xlink:title=" ">
<polygon fill="white" stroke="black" points="132.5,-67.5 132.5,-86.5 245.5,-86.5 245.5,-67.5 132.5,-67.5"/>
<text text-anchor="middle" x="189" y="-74.5" font-family="Helvetica,sans-Serif" font-size="10.00">sysmem_meminfo_</text>
</a>
</g>
</g>
<!-- Node3&#45;&gt;Node5 -->
<g id="edge7" class="edge">
<title>Node3&#45;&gt;Node5</title>
<path fill="none" stroke="#9a32cd" stroke-dasharray="5,2" d="M139.98,-138.83C144.08,-135.11 148.31,-131.03 152,-127 164.11,-113.8 176.26,-96.83 183.18,-86.71"/>
<polygon fill="#9a32cd" stroke="#9a32cd" points="137.65,-136.22 132.45,-145.46 142.27,-141.48 137.65,-136.22"/>
<text text-anchor="middle" x="203.5" y="-119" font-family="Helvetica,sans-Serif" font-size="10.00"> memlist_last</text>
<text text-anchor="middle" x="203.5" y="-108" font-family="Helvetica,sans-Serif" font-size="10.00">memlist_first</text>
</g>
<!-- Node4 -->
<g id="node4" class="node">
<title>Node4</title>
<g id="a_node4"><a xlink:href="sysmem_8h.html#structsysmem__alloc__element__" target="_top" xlink:title=" ">
<polygon fill="white" stroke="black" points="53,-212.5 53,-231.5 191,-231.5 191,-212.5 53,-212.5"/>
<text text-anchor="middle" x="122" y="-219.5" font-family="Helvetica,sans-Serif" font-size="10.00">sysmem_alloc_element_</text>
</a>
</g>
</g>
<!-- Node4&#45;&gt;Node3 -->
<g id="edge3" class="edge">
<title>Node4&#45;&gt;Node3</title>
<path fill="none" stroke="#9a32cd" stroke-dasharray="5,2" d="M122,-202.04C122,-189.67 122,-174.12 122,-164.63"/>
<polygon fill="#9a32cd" stroke="#9a32cd" points="118.5,-202.23 122,-212.23 125.5,-202.23 118.5,-202.23"/>
<text text-anchor="middle" x="131.5" y="-186" font-family="Helvetica,sans-Serif" font-size="10.00"> list</text>
</g>
<!-- Node4&#45;&gt;Node4 -->
<g id="edge4" class="edge">
<title>Node4&#45;&gt;Node4</title>
<path fill="none" stroke="#9a32cd" stroke-dasharray="5,2" d="M201.52,-226.11C206.2,-225.13 209,-223.76 209,-222 209,-219.19 201.83,-217.36 191.27,-216.53"/>
<polygon fill="#9a32cd" stroke="#9a32cd" points="200.73,-222.69 191.27,-227.47 201.65,-229.63 200.73,-222.69"/>
<text text-anchor="middle" x="221.5" y="-219.5" font-family="Helvetica,sans-Serif" font-size="10.00"> next</text>
</g>
<!-- Node5&#45;&gt;Node1 -->
<g id="edge6" class="edge">
<title>Node5&#45;&gt;Node1</title>
<path fill="none" stroke="#9a32cd" stroke-dasharray="5,2" d="M172.75,-60C159.81,-47.25 142.19,-29.89 131.76,-19.63"/>
<polygon fill="#9a32cd" stroke="#9a32cd" points="170.52,-62.71 180.1,-67.23 175.43,-57.72 170.52,-62.71"/>
<text text-anchor="middle" x="184" y="-41" font-family="Helvetica,sans-Serif" font-size="10.00"> meminfo</text>
</g>
</g>
</svg>
