<?xml version="1.0" encoding="UTF-8" standalone="no"?>
<!DOCTYPE svg PUBLIC "-//W3C//DTD SVG 1.1//EN"
 "http://www.w3.org/Graphics/SVG/1.1/DTD/svg11.dtd">
<!-- Generated by graphviz version 9.0.0 (20230911.1827)
 -->
<!-- Title: iop/usb/usbd/src/usbd.c Pages: 1 -->
<svg width="440pt" height="359pt"
 viewBox="0.00 0.00 439.75 358.75" xmlns="http://www.w3.org/2000/svg" xmlns:xlink="http://www.w3.org/1999/xlink">
<g id="graph0" class="graph" transform="scale(1 1) rotate(0) translate(4 354.75)">
<title>iop/usb/usbd/src/usbd.c</title>
<!-- Node1 -->
<g id="Node000001" class="node">
<title>Node1</title>
<g id="a_Node000001"><a xlink:title=" ">
<polygon fill="#999999" stroke="#666666" points="286.38,-350.75 166.88,-350.75 166.88,-331.5 286.38,-331.5 286.38,-350.75"/>
<text text-anchor="middle" x="226.62" y="-337.25" font-family="Helvetica,sans-Serif" font-size="10.00">iop/usb/usbd/src/usbd.c</text>
</a>
</g>
</g>
<!-- Node2 -->
<g id="Node000002" class="node">
<title>Node2</title>
<g id="a_Node000002"><a xlink:href="usbdpriv_8h.html" target="_top" xlink:title=" ">
<polygon fill="white" stroke="#666666" points="114.75,-240.25 54.5,-240.25 54.5,-221 114.75,-221 114.75,-240.25"/>
<text text-anchor="middle" x="84.62" y="-226.75" font-family="Helvetica,sans-Serif" font-size="10.00">usbdpriv.h</text>
</a>
</g>
</g>
<!-- Node1&#45;&gt;Node2 -->
<g id="edge1_Node000001_Node000002" class="edge">
<title>Node1&#45;&gt;Node2</title>
<g id="a_edge1_Node000001_Node000002"><a xlink:title=" ">
<path fill="none" stroke="#63b8ff" d="M166.41,-336.54C137.52,-331.45 105.23,-320.13 86.62,-295.5 77.31,-283.16 77.54,-265.33 79.69,-251.64"/>
<polygon fill="#63b8ff" stroke="#63b8ff" points="83.09,-252.49 81.67,-241.99 76.23,-251.08 83.09,-252.49"/>
</a>
</g>
</g>
<!-- Node9 -->
<g id="Node000009" class="node">
<title>Node9</title>
<g id="a_Node000009"><a xlink:href="mem_8h.html" target="_top" xlink:title=" ">
<polygon fill="white" stroke="#666666" points="141.25,-295.5 96,-295.5 96,-276.25 141.25,-276.25 141.25,-295.5"/>
<text text-anchor="middle" x="118.62" y="-282" font-family="Helvetica,sans-Serif" font-size="10.00">mem.h</text>
</a>
</g>
</g>
<!-- Node1&#45;&gt;Node9 -->
<g id="edge9_Node000001_Node000009" class="edge">
<title>Node1&#45;&gt;Node9</title>
<g id="a_edge9_Node000001_Node000009"><a xlink:title=" ">
<path fill="none" stroke="#63b8ff" d="M208.3,-331.09C191.55,-322.83 166.49,-310.48 147.12,-300.93"/>
<polygon fill="#63b8ff" stroke="#63b8ff" points="148.91,-297.9 138.39,-296.62 145.81,-304.18 148.91,-297.9"/>
</a>
</g>
</g>
<!-- Node10 -->
<g id="Node000010" class="node">
<title>Node10</title>
<g id="a_Node000010"><a xlink:href="hcd_8h.html" target="_top" xlink:title=" ">
<polygon fill="white" stroke="#666666" points="198.25,-295.5 159,-295.5 159,-276.25 198.25,-276.25 198.25,-295.5"/>
<text text-anchor="middle" x="178.62" y="-282" font-family="Helvetica,sans-Serif" font-size="10.00">hcd.h</text>
</a>
</g>
</g>
<!-- Node1&#45;&gt;Node10 -->
<g id="edge11_Node000001_Node000010" class="edge">
<title>Node1&#45;&gt;Node10</title>
<g id="a_edge11_Node000001_Node000010"><a xlink:title=" ">
<path fill="none" stroke="#63b8ff" d="M218.7,-331.33C212.07,-323.98 202.41,-313.26 194.24,-304.19"/>
<polygon fill="#63b8ff" stroke="#63b8ff" points="197.03,-302.07 187.74,-296.98 191.83,-306.75 197.03,-302.07"/>
</a>
</g>
</g>
<!-- Node11 -->
<g id="Node000011" class="node">
<title>Node11</title>
<g id="a_Node000011"><a xlink:href="hub_8h.html" target="_top" xlink:title=" ">
<polygon fill="white" stroke="#666666" points="39.25,-295.5 0,-295.5 0,-276.25 39.25,-276.25 39.25,-295.5"/>
<text text-anchor="middle" x="19.62" y="-282" font-family="Helvetica,sans-Serif" font-size="10.00">hub.h</text>
</a>
</g>
</g>
<!-- Node1&#45;&gt;Node11 -->
<g id="edge13_Node000001_Node000011" class="edge">
<title>Node1&#45;&gt;Node11</title>
<g id="a_edge13_Node000001_Node000011"><a xlink:title=" ">
<path fill="none" stroke="#63b8ff" d="M191.51,-331.09C151.89,-320.9 88.08,-304.48 50.36,-294.78"/>
<polygon fill="#63b8ff" stroke="#63b8ff" points="51.57,-291.48 41.01,-292.38 49.82,-298.26 51.57,-291.48"/>
</a>
</g>
</g>
<!-- Node12 -->
<g id="Node000012" class="node">
<title>Node12</title>
<g id="a_Node000012"><a xlink:href="usbio_8h.html" target="_top" xlink:title=" ">
<polygon fill="white" stroke="#666666" points="415,-295.5 368.25,-295.5 368.25,-276.25 415,-276.25 415,-295.5"/>
<text text-anchor="middle" x="391.62" y="-282" font-family="Helvetica,sans-Serif" font-size="10.00">usbio.h</text>
</a>
</g>
</g>
<!-- Node1&#45;&gt;Node12 -->
<g id="edge15_Node000001_Node000012" class="edge">
<title>Node1&#45;&gt;Node12</title>
<g id="a_edge15_Node000001_Node000012"><a xlink:title=" ">
<path fill="none" stroke="#63b8ff" d="M254.62,-331.09C282.82,-321.99 326.42,-307.92 356.84,-298.1"/>
<polygon fill="#63b8ff" stroke="#63b8ff" points="357.91,-301.43 366.35,-295.03 355.76,-294.77 357.91,-301.43"/>
</a>
</g>
</g>
<!-- Node13 -->
<g id="Node000013" class="node">
<title>Node13</title>
<g id="a_Node000013"><a xlink:href="stdio_8h.html" target="_top" xlink:title=" ">
<polygon fill="white" stroke="#666666" points="202.88,-185 158.38,-185 158.38,-165.75 202.88,-165.75 202.88,-185"/>
<text text-anchor="middle" x="180.62" y="-171.5" font-family="Helvetica,sans-Serif" font-size="10.00">stdio.h</text>
</a>
</g>
</g>
<!-- Node1&#45;&gt;Node13 -->
<g id="edge16_Node000001_Node000013" class="edge">
<title>Node1&#45;&gt;Node13</title>
<g id="a_edge16_Node000001_Node000013"><a xlink:title=" ">
<path fill="none" stroke="#63b8ff" d="M224.15,-331.32C217.01,-305.89 196.21,-231.85 186.17,-196.12"/>
<polygon fill="#63b8ff" stroke="#63b8ff" points="189.59,-195.36 183.52,-186.68 182.85,-197.25 189.59,-195.36"/>
</a>
</g>
</g>
<!-- Node15 -->
<g id="Node000015" class="node">
<title>Node15</title>
<g id="a_Node000015"><a xlink:href="sysclib_8h.html" target="_top" xlink:title=" ">
<polygon fill="white" stroke="#666666" points="274.38,-185 220.88,-185 220.88,-165.75 274.38,-165.75 274.38,-185"/>
<text text-anchor="middle" x="247.62" y="-171.5" font-family="Helvetica,sans-Serif" font-size="10.00">sysclib.h</text>
</a>
</g>
</g>
<!-- Node1&#45;&gt;Node15 -->
<g id="edge19_Node000001_Node000015" class="edge">
<title>Node1&#45;&gt;Node15</title>
<g id="a_edge19_Node000001_Node000015"><a xlink:title=" ">
<path fill="none" stroke="#63b8ff" d="M230.19,-331.06C233.52,-322.16 238.31,-308.12 240.62,-295.5 246.9,-261.29 247.95,-220.71 247.94,-196.83"/>
<polygon fill="#63b8ff" stroke="#63b8ff" points="251.44,-196.92 247.86,-186.94 244.44,-196.97 251.44,-196.92"/>
</a>
</g>
</g>
<!-- Node18 -->
<g id="Node000018" class="node">
<title>Node18</title>
<g id="a_Node000018"><a xlink:href="thsemap_8h.html" target="_top" xlink:title=" ">
<polygon fill="white" stroke="#666666" points="353.12,-185 292.12,-185 292.12,-165.75 353.12,-165.75 353.12,-185"/>
<text text-anchor="middle" x="322.62" y="-171.5" font-family="Helvetica,sans-Serif" font-size="10.00">thsemap.h</text>
</a>
</g>
</g>
<!-- Node1&#45;&gt;Node18 -->
<g id="edge26_Node000001_Node000018" class="edge">
<title>Node1&#45;&gt;Node18</title>
<g id="a_edge26_Node000001_Node000018"><a xlink:title=" ">
<path fill="none" stroke="#63b8ff" d="M232.8,-331C238.79,-322.06 248.07,-307.99 255.62,-295.5 276.64,-260.79 299.48,-219.29 312.32,-195.57"/>
<polygon fill="#63b8ff" stroke="#63b8ff" points="315.39,-197.25 317.06,-186.79 309.23,-193.93 315.39,-197.25"/>
</a>
</g>
</g>
<!-- Node19 -->
<g id="Node000019" class="node">
<title>Node19</title>
<g id="a_Node000019"><a xlink:href="loadcore_8h.html" target="_top" xlink:title=" ">
<polygon fill="white" stroke="#666666" points="431.75,-185 371.5,-185 371.5,-165.75 431.75,-165.75 431.75,-185"/>
<text text-anchor="middle" x="401.62" y="-171.5" font-family="Helvetica,sans-Serif" font-size="10.00">loadcore.h</text>
</a>
</g>
</g>
<!-- Node1&#45;&gt;Node19 -->
<g id="edge29_Node000001_Node000019" class="edge">
<title>Node1&#45;&gt;Node19</title>
<g id="a_edge29_Node000001_Node000019"><a xlink:title=" ">
<path fill="none" stroke="#63b8ff" d="M236.2,-331.25C245.9,-322.25 261.32,-307.93 274.62,-295.5 313.61,-259.09 359.19,-216.28 383.75,-193.19"/>
<polygon fill="#63b8ff" stroke="#63b8ff" points="386.09,-195.79 390.98,-186.39 381.29,-190.69 386.09,-195.79"/>
</a>
</g>
</g>
<!-- Node3 -->
<g id="Node000003" class="node">
<title>Node3</title>
<g id="a_Node000003"><a xlink:href="usbd_8h.html" target="_top" xlink:title=" ">
<polygon fill="white" stroke="#666666" points="139.88,-185 95.38,-185 95.38,-165.75 139.88,-165.75 139.88,-185"/>
<text text-anchor="middle" x="117.62" y="-171.5" font-family="Helvetica,sans-Serif" font-size="10.00">usbd.h</text>
</a>
</g>
</g>
<!-- Node2&#45;&gt;Node3 -->
<g id="edge2_Node000002_Node000003" class="edge">
<title>Node2&#45;&gt;Node3</title>
<g id="a_edge2_Node000002_Node000003"><a xlink:title=" ">
<path fill="none" stroke="#63b8ff" d="M90.07,-220.83C94.4,-213.86 100.59,-203.87 106.01,-195.12"/>
<polygon fill="#63b8ff" stroke="#63b8ff" points="108.97,-196.99 111.26,-186.65 103.02,-193.3 108.97,-196.99"/>
</a>
</g>
</g>
<!-- Node4 -->
<g id="Node000004" class="node">
<title>Node4</title>
<g id="a_Node000004"><a xlink:title=" ">
<polygon fill="#e0e0e0" stroke="#999999" points="95,-129.75 48.25,-129.75 48.25,-110.5 95,-110.5 95,-129.75"/>
<text text-anchor="middle" x="71.62" y="-116.25" font-family="Helvetica,sans-Serif" font-size="10.00">types.h</text>
</a>
</g>
</g>
<!-- Node2&#45;&gt;Node4 -->
<g id="edge8_Node000002_Node000004" class="edge">
<title>Node2&#45;&gt;Node4</title>
<g id="a_edge8_Node000002_Node000004"><a xlink:title=" ">
<path fill="none" stroke="#63b8ff" d="M83.56,-220.75C81.49,-203.5 76.89,-165.08 74.04,-141.31"/>
<polygon fill="#63b8ff" stroke="#63b8ff" points="77.55,-141.14 72.88,-131.63 70.6,-141.97 77.55,-141.14"/>
</a>
</g>
</g>
<!-- Node3&#45;&gt;Node4 -->
<g id="edge3_Node000003_Node000004" class="edge">
<title>Node3&#45;&gt;Node4</title>
<g id="a_edge3_Node000003_Node000004"><a xlink:title=" ">
<path fill="none" stroke="#63b8ff" d="M110.03,-165.58C103.74,-158.3 94.61,-147.73 86.83,-138.73"/>
<polygon fill="#63b8ff" stroke="#63b8ff" points="89.56,-136.53 80.38,-131.25 84.26,-141.11 89.56,-136.53"/>
</a>
</g>
</g>
<!-- Node5 -->
<g id="Node000005" class="node">
<title>Node5</title>
<g id="a_Node000005"><a xlink:href="irx_8h.html" target="_top" xlink:title=" ">
<polygon fill="white" stroke="#666666" points="319.25,-129.75 286,-129.75 286,-110.5 319.25,-110.5 319.25,-129.75"/>
<text text-anchor="middle" x="302.62" y="-116.25" font-family="Helvetica,sans-Serif" font-size="10.00">irx.h</text>
</a>
</g>
</g>
<!-- Node3&#45;&gt;Node5 -->
<g id="edge4_Node000003_Node000005" class="edge">
<title>Node3&#45;&gt;Node5</title>
<g id="a_edge4_Node000003_Node000005"><a xlink:title=" ">
<path fill="none" stroke="#63b8ff" d="M140.16,-168.19C174.07,-158.86 237.49,-141.33 274.89,-130.15"/>
<polygon fill="#63b8ff" stroke="#63b8ff" points="275.6,-133.59 284.15,-127.34 273.57,-126.89 275.6,-133.59"/>
</a>
</g>
</g>
<!-- Node6 -->
<g id="Node000006" class="node">
<title>Node6</title>
<g id="a_Node000006"><a xlink:href="iop_2kernel_2include_2types_8h_source.html" target="_top" xlink:title=" ">
<polygon fill="white" stroke="#666666" points="371,-74.5 324.25,-74.5 324.25,-55.25 371,-55.25 371,-74.5"/>
<text text-anchor="middle" x="347.62" y="-61" font-family="Helvetica,sans-Serif" font-size="10.00">types.h</text>
</a>
</g>
</g>
<!-- Node5&#45;&gt;Node6 -->
<g id="edge5_Node000005_Node000006" class="edge">
<title>Node5&#45;&gt;Node6</title>
<g id="a_edge5_Node000005_Node000006"><a xlink:title=" ">
<path fill="none" stroke="#63b8ff" d="M310.06,-110.33C316.21,-103.05 325.14,-92.48 332.75,-83.48"/>
<polygon fill="#63b8ff" stroke="#63b8ff" points="335.27,-85.91 339.06,-76.02 329.93,-81.39 335.27,-85.91"/>
</a>
</g>
</g>
<!-- Node7 -->
<g id="Node000007" class="node">
<title>Node7</title>
<g id="a_Node000007"><a xlink:title=" ">
<polygon fill="#e0e0e0" stroke="#999999" points="372.88,-19.25 322.38,-19.25 322.38,0 372.88,0 372.88,-19.25"/>
<text text-anchor="middle" x="347.62" y="-5.75" font-family="Helvetica,sans-Serif" font-size="10.00">stddef.h</text>
</a>
</g>
</g>
<!-- Node6&#45;&gt;Node7 -->
<g id="edge6_Node000006_Node000007" class="edge">
<title>Node6&#45;&gt;Node7</title>
<g id="a_edge6_Node000006_Node000007"><a xlink:title=" ">
<path fill="none" stroke="#63b8ff" d="M347.62,-55.08C347.62,-48.57 347.62,-39.42 347.62,-31.12"/>
<polygon fill="#63b8ff" stroke="#63b8ff" points="351.13,-31.12 347.63,-21.12 344.13,-31.12 351.13,-31.12"/>
</a>
</g>
</g>
<!-- Node8 -->
<g id="Node000008" class="node">
<title>Node8</title>
<g id="a_Node000008"><a xlink:href="tamtypes_8h.html" target="_top" xlink:title=" ">
<polygon fill="white" stroke="#666666" points="284.25,-19.25 221,-19.25 221,0 284.25,0 284.25,-19.25"/>
<text text-anchor="middle" x="252.62" y="-5.75" font-family="Helvetica,sans-Serif" font-size="10.00">tamtypes.h</text>
</a>
</g>
</g>
<!-- Node6&#45;&gt;Node8 -->
<g id="edge7_Node000006_Node000008" class="edge">
<title>Node6&#45;&gt;Node8</title>
<g id="a_edge7_Node000006_Node000008"><a xlink:title=" ">
<path fill="none" stroke="#63b8ff" d="M331.51,-54.84C317.04,-46.73 295.55,-34.68 278.64,-25.21"/>
<polygon fill="#63b8ff" stroke="#63b8ff" points="280.57,-22.28 270.14,-20.44 277.15,-28.39 280.57,-22.28"/>
</a>
</g>
</g>
<!-- Node9&#45;&gt;Node2 -->
<g id="edge10_Node000009_Node000002" class="edge">
<title>Node9&#45;&gt;Node2</title>
<g id="a_edge10_Node000009_Node000002"><a xlink:title=" ">
<path fill="none" stroke="#63b8ff" d="M113.01,-276.08C108.51,-269.03 102.04,-258.9 96.41,-250.08"/>
<polygon fill="#63b8ff" stroke="#63b8ff" points="99.51,-248.43 91.18,-241.88 93.61,-252.2 99.51,-248.43"/>
</a>
</g>
</g>
<!-- Node10&#45;&gt;Node2 -->
<g id="edge12_Node000010_Node000002" class="edge">
<title>Node10&#45;&gt;Node2</title>
<g id="a_edge12_Node000010_Node000002"><a xlink:title=" ">
<path fill="none" stroke="#63b8ff" d="M162.68,-275.84C148.36,-267.73 127.09,-255.68 110.37,-246.21"/>
<polygon fill="#63b8ff" stroke="#63b8ff" points="112.39,-243.33 101.97,-241.45 108.94,-249.42 112.39,-243.33"/>
</a>
</g>
</g>
<!-- Node11&#45;&gt;Node2 -->
<g id="edge14_Node000011_Node000002" class="edge">
<title>Node11&#45;&gt;Node2</title>
<g id="a_edge14_Node000011_Node000002"><a xlink:title=" ">
<path fill="none" stroke="#63b8ff" d="M30.65,-275.84C40.05,-268.15 53.77,-256.9 65.03,-247.68"/>
<polygon fill="#63b8ff" stroke="#63b8ff" points="67.07,-250.53 72.59,-241.48 62.64,-245.11 67.07,-250.53"/>
</a>
</g>
</g>
<!-- Node13&#45;&gt;Node5 -->
<g id="edge18_Node000013_Node000005" class="edge">
<title>Node13&#45;&gt;Node5</title>
<g id="a_edge18_Node000013_Node000005"><a xlink:title=" ">
<path fill="none" stroke="#63b8ff" d="M201.32,-165.34C221.68,-156.46 252.87,-142.84 275.26,-133.07"/>
<polygon fill="#63b8ff" stroke="#63b8ff" points="276.61,-136.3 284.38,-129.09 273.81,-129.88 276.61,-136.3"/>
</a>
</g>
</g>
<!-- Node14 -->
<g id="Node000014" class="node">
<title>Node14</title>
<g id="a_Node000014"><a xlink:title=" ">
<polygon fill="#e0e0e0" stroke="#999999" points="165.88,-129.75 115.38,-129.75 115.38,-110.5 165.88,-110.5 165.88,-129.75"/>
<text text-anchor="middle" x="140.62" y="-116.25" font-family="Helvetica,sans-Serif" font-size="10.00">stdarg.h</text>
</a>
</g>
</g>
<!-- Node13&#45;&gt;Node14 -->
<g id="edge17_Node000013_Node000014" class="edge">
<title>Node13&#45;&gt;Node14</title>
<g id="a_edge17_Node000013_Node000014"><a xlink:title=" ">
<path fill="none" stroke="#63b8ff" d="M174.02,-165.58C168.67,-158.46 160.95,-148.18 154.28,-139.3"/>
<polygon fill="#63b8ff" stroke="#63b8ff" points="157.09,-137.21 148.28,-131.32 151.49,-141.42 157.09,-137.21"/>
</a>
</g>
</g>
<!-- Node15&#45;&gt;Node5 -->
<g id="edge21_Node000015_Node000005" class="edge">
<title>Node15&#45;&gt;Node5</title>
<g id="a_edge21_Node000015_Node000005"><a xlink:title=" ">
<path fill="none" stroke="#63b8ff" d="M256.71,-165.58C264.46,-158.07 275.84,-147.06 285.32,-137.88"/>
<polygon fill="#63b8ff" stroke="#63b8ff" points="287.51,-140.63 292.26,-131.16 282.64,-135.6 287.51,-140.63"/>
</a>
</g>
</g>
<!-- Node15&#45;&gt;Node6 -->
<g id="edge20_Node000015_Node000006" class="edge">
<title>Node15&#45;&gt;Node6</title>
<g id="a_edge20_Node000015_Node000006"><a xlink:title=" ">
<path fill="none" stroke="#63b8ff" d="M274.53,-165.67C292.27,-158.62 314.72,-147 328.62,-129.75 338.74,-117.2 343.47,-99.38 345.69,-85.76"/>
<polygon fill="#63b8ff" stroke="#63b8ff" points="349.11,-86.55 346.9,-76.19 342.17,-85.67 349.11,-86.55"/>
</a>
</g>
</g>
<!-- Node15&#45;&gt;Node14 -->
<g id="edge22_Node000015_Node000014" class="edge">
<title>Node15&#45;&gt;Node14</title>
<g id="a_edge22_Node000015_Node000014"><a xlink:title=" ">
<path fill="none" stroke="#63b8ff" d="M229.47,-165.34C212.95,-157.12 188.28,-144.84 169.13,-135.31"/>
<polygon fill="#63b8ff" stroke="#63b8ff" points="170.73,-132.2 160.22,-130.88 167.61,-138.47 170.73,-132.2"/>
</a>
</g>
</g>
<!-- Node16 -->
<g id="Node000016" class="node">
<title>Node16</title>
<g id="a_Node000016"><a xlink:href="setjmp_8h.html" target="_top" xlink:title=" ">
<polygon fill="white" stroke="#666666" points="240,-74.5 187.25,-74.5 187.25,-55.25 240,-55.25 240,-74.5"/>
<text text-anchor="middle" x="213.62" y="-61" font-family="Helvetica,sans-Serif" font-size="10.00">setjmp.h</text>
</a>
</g>
</g>
<!-- Node15&#45;&gt;Node16 -->
<g id="edge23_Node000015_Node000016" class="edge">
<title>Node15&#45;&gt;Node16</title>
<g id="a_edge23_Node000015_Node000016"><a xlink:title=" ">
<path fill="none" stroke="#63b8ff" d="M237.41,-165.27C228.93,-156.98 217.51,-143.9 212.62,-129.75 207.79,-115.76 208.27,-98.99 209.84,-86.14"/>
<polygon fill="#63b8ff" stroke="#63b8ff" points="213.28,-86.77 211.37,-76.35 206.37,-85.69 213.28,-86.77"/>
</a>
</g>
</g>
<!-- Node17 -->
<g id="Node000017" class="node">
<title>Node17</title>
<g id="a_Node000017"><a xlink:href="ctype_8h.html" target="_top" xlink:title=" ">
<polygon fill="white" stroke="#666666" points="268,-129.75 221.25,-129.75 221.25,-110.5 268,-110.5 268,-129.75"/>
<text text-anchor="middle" x="244.62" y="-116.25" font-family="Helvetica,sans-Serif" font-size="10.00">ctype.h</text>
</a>
</g>
</g>
<!-- Node15&#45;&gt;Node17 -->
<g id="edge25_Node000015_Node000017" class="edge">
<title>Node15&#45;&gt;Node17</title>
<g id="a_edge25_Node000015_Node000017"><a xlink:title=" ">
<path fill="none" stroke="#63b8ff" d="M247.13,-165.58C246.76,-158.99 246.24,-149.71 245.76,-141.32"/>
<polygon fill="#63b8ff" stroke="#63b8ff" points="249.27,-141.41 245.22,-131.62 242.28,-141.8 249.27,-141.41"/>
</a>
</g>
</g>
<!-- Node16&#45;&gt;Node8 -->
<g id="edge24_Node000016_Node000008" class="edge">
<title>Node16&#45;&gt;Node8</title>
<g id="a_edge24_Node000016_Node000008"><a xlink:title=" ">
<path fill="none" stroke="#63b8ff" d="M220.07,-55.08C225.28,-47.96 232.81,-37.68 239.32,-28.8"/>
<polygon fill="#63b8ff" stroke="#63b8ff" points="242.07,-30.97 245.15,-20.83 236.42,-26.83 242.07,-30.97"/>
</a>
</g>
</g>
<!-- Node18&#45;&gt;Node5 -->
<g id="edge28_Node000018_Node000005" class="edge">
<title>Node18&#45;&gt;Node5</title>
<g id="a_edge28_Node000018_Node000005"><a xlink:title=" ">
<path fill="none" stroke="#63b8ff" d="M319.32,-165.58C316.79,-158.84 313.2,-149.27 309.99,-140.74"/>
<polygon fill="#63b8ff" stroke="#63b8ff" points="313.32,-139.66 306.53,-131.53 306.77,-142.12 313.32,-139.66"/>
</a>
</g>
</g>
<!-- Node18&#45;&gt;Node6 -->
<g id="edge27_Node000018_Node000006" class="edge">
<title>Node18&#45;&gt;Node6</title>
<g id="a_edge27_Node000018_Node000006"><a xlink:title=" ">
<path fill="none" stroke="#63b8ff" d="M333.98,-165.51C343.41,-157.38 356.13,-144.39 361.62,-129.75 367.06,-115.27 362.74,-98.1 357.51,-85.21"/>
<polygon fill="#63b8ff" stroke="#63b8ff" points="360.71,-83.78 353.34,-76.16 354.35,-86.7 360.71,-83.78"/>
</a>
</g>
</g>
<!-- Node19&#45;&gt;Node5 -->
<g id="edge31_Node000019_Node000005" class="edge">
<title>Node19&#45;&gt;Node5</title>
<g id="a_edge31_Node000019_Node000005"><a xlink:title=" ">
<path fill="none" stroke="#63b8ff" d="M384.83,-165.34C369.61,-157.16 346.93,-144.96 329.24,-135.44"/>
<polygon fill="#63b8ff" stroke="#63b8ff" points="331.3,-132.57 320.83,-130.92 327.98,-138.74 331.3,-132.57"/>
</a>
</g>
</g>
<!-- Node19&#45;&gt;Node6 -->
<g id="edge30_Node000019_Node000006" class="edge">
<title>Node19&#45;&gt;Node6</title>
<g id="a_edge30_Node000019_Node000006"><a xlink:title=" ">
<path fill="none" stroke="#63b8ff" d="M398.77,-165.45C394.62,-152.87 386.31,-129.35 376.62,-110.5 371.99,-101.47 365.99,-91.97 360.65,-84.07"/>
<polygon fill="#63b8ff" stroke="#63b8ff" points="363.63,-82.23 355.05,-76.02 357.89,-86.23 363.63,-82.23"/>
</a>
</g>
</g>
</g>
</svg>
