<?xml version="1.0" encoding="UTF-8" standalone="no"?>
<!DOCTYPE svg PUBLIC "-//W3C//DTD SVG 1.1//EN"
 "http://www.w3.org/Graphics/SVG/1.1/DTD/svg11.dtd">
<!-- Generated by graphviz version 12.2.0 (20241103.1931)
 -->
<!-- Title: iop/usb/usbd/include/usbd.h Pages: 1 -->
<!--zoomable 172 -->

<svg id="main" version="1.1" xmlns="http://www.w3.org/2000/svg" xmlns:xlink="http://www.w3.org/1999/xlink" xml:space="preserve" onload="init(evt)">

<style type="text/css"><![CDATA[
.node, .edge {opacity: 0.7;}
.node.selected, .edge.selected {opacity: 1;}
.edge:hover path { stroke: red; }
.edge:hover polygon { stroke: red; fill: red; }
]]></style>

<defs>
  <circle id="rim" cx="0" cy="0" r="7"/>
  <circle id="rim2" cx="0" cy="0" r="3.5"/>
  <g id="zoomPlus">
    <use xlink:href="#rim" fill="#404040"><set attributeName="fill" to="#808080" begin="zoomplus.mouseover" end="zoomplus.mouseout"/></use>
    <path d="M-4,0h8M0,-4v8" fill="none" stroke="white" stroke-width="1.5" pointer-events="none"/>
  </g>
  <g id="zoomMin">
    <use xlink:href="#rim" fill="#404040"><set attributeName="fill" to="#808080" begin="zoomminus.mouseover" end="zoomminus.mouseout"/></use>
    <path d="M-4,0h8" fill="none" stroke="white" stroke-width="1.5" pointer-events="none"/>
  </g>
  <g id="arrowUp" transform="translate(30 24)">
    <use xlink:href="#rim"/>
    <path pointer-events="none" fill="none" stroke="white" stroke-width="1.5" d="M0,-3.0v7 M-2.5,-0.5L0,-3.0L2.5,-0.5"/>
  </g>
  <g id="arrowRight" transform="rotate(90) translate(36 -43)">
    <use xlink:href="#rim"/>
    <path pointer-events="none" fill="none" stroke="white" stroke-width="1.5" d="M0,-3.0v7 M-2.5,-0.5L0,-3.0L2.5,-0.5"/>
  </g>
  <g id="arrowDown" transform="rotate(180) translate(-30 -48)">
    <use xlink:href="#rim"/>
    <path pointer-events="none" fill="none" stroke="white" stroke-width="1.5" d="M0,-3.0v7 M-2.5,-0.5L0,-3.0L2.5,-0.5"/>
  </g>
  <g id="arrowLeft" transform="rotate(270) translate(-36 17)">
    <use xlink:href="#rim"/>
    <path pointer-events="none" fill="none" stroke="white" stroke-width="1.5" d="M0,-3.0v7 M-2.5,-0.5L0,-3.0L2.5,-0.5"/>
  </g>
  <g id="resetDef">
    <use xlink:href="#rim2" fill="#404040"><set attributeName="fill" to="#808080" begin="reset.mouseover" end="reset.mouseout"/></use>
  </g>
</defs>
<script type="application/ecmascript">
var viewWidth = 2637;
var viewHeight = 172;
var sectionId = 'dynsection-1';
</script>
<script type="application/ecmascript" xlink:href="svg.min.js"/>
<svg id="graph" class="graph">
<g id="viewport">
<title>iop/usb/usbd/include/usbd.h</title>
<!-- Node1 -->
<g id="Node000001" class="node">
<title>Node1</title>
<g id="a_Node000001"><a xlink:title=" ">
<polygon fill="#999999" stroke="#666666" points="603.25,-163.5 498,-163.5 498,-133 603.25,-133 603.25,-163.5"/>
<text text-anchor="start" x="506" y="-150" font-family="Helvetica,sans-Serif" font-size="10.00">iop/usb/usbd/include</text>
<text text-anchor="middle" x="550.62" y="-138.75" font-family="Helvetica,sans-Serif" font-size="10.00">/usbd.h</text>
</a>
</g>
</g>
<!-- Node2 -->
<g id="Node000002" class="node">
<title>Node2</title>
<g id="a_Node000002"><a xlink:href="iop_2usb_2camera_2src_2irx__imports_8h_source.html" target="_top" xlink:title=" ">
<polygon fill="white" stroke="#666666" points="246.25,-97 147,-97 147,-66.5 246.25,-66.5 246.25,-97"/>
<text text-anchor="start" x="155" y="-83.5" font-family="Helvetica,sans-Serif" font-size="10.00">iop/usb/camera/src</text>
<text text-anchor="middle" x="196.62" y="-72.25" font-family="Helvetica,sans-Serif" font-size="10.00">/irx_imports.h</text>
</a>
</g>
</g>
<!-- Node1&#45;&gt;Node2 -->
<g id="edge1_Node000001_Node000002" class="edge">
<title>Node1&#45;&gt;Node2</title>
<g id="a_edge1_Node000001_Node000002"><a xlink:title=" ">
<path fill="none" stroke="#63b8ff" d="M486.21,-136.99C427.34,-127.4 337.93,-112.29 260.62,-97 256.05,-96.09 251.29,-95.11 246.54,-94.1"/>
<polygon fill="#63b8ff" stroke="#63b8ff" points="485.64,-140.44 496.07,-138.59 486.76,-133.53 485.64,-140.44"/>
</a>
</g>
</g>
<!-- Node3 -->
<g id="Node000003" class="node">
<title>Node3</title>
<g id="a_Node000003"><a xlink:href="ps2cam_8c.html" target="_top" xlink:title=" ">
<polygon fill="white" stroke="#666666" points="99.25,-30.5 0,-30.5 0,0 99.25,0 99.25,-30.5"/>
<text text-anchor="start" x="8" y="-17" font-family="Helvetica,sans-Serif" font-size="10.00">iop/usb/camera/src</text>
<text text-anchor="middle" x="49.62" y="-5.75" font-family="Helvetica,sans-Serif" font-size="10.00">/ps2cam.c</text>
</a>
</g>
</g>
<!-- Node1&#45;&gt;Node3 -->
<g id="edge2_Node000001_Node000003" class="edge">
<title>Node1&#45;&gt;Node3</title>
<g id="a_edge2_Node000001_Node000003"><a xlink:title=" ">
<path fill="none" stroke="#63b8ff" d="M486.32,-144.76C431.24,-140.39 351.15,-128.58 288.62,-97 270.8,-87.99 273.22,-75.95 255.62,-66.5 254.75,-66.03 160.44,-43.11 99.74,-28.4"/>
<polygon fill="#63b8ff" stroke="#63b8ff" points="485.94,-148.24 496.17,-145.47 486.45,-141.26 485.94,-148.24"/>
</a>
</g>
</g>
<!-- Node4 -->
<g id="Node000004" class="node">
<title>Node4</title>
<g id="a_Node000004"><a xlink:href="iop_2usb_2keyboard_2src_2irx__imports_8h_source.html" target="_top" xlink:title=" ">
<polygon fill="white" stroke="#666666" points="684.62,-97 578.62,-97 578.62,-66.5 684.62,-66.5 684.62,-97"/>
<text text-anchor="start" x="586.62" y="-83.5" font-family="Helvetica,sans-Serif" font-size="10.00">iop/usb/keyboard/src</text>
<text text-anchor="middle" x="631.62" y="-72.25" font-family="Helvetica,sans-Serif" font-size="10.00">/irx_imports.h</text>
</a>
</g>
</g>
<!-- Node1&#45;&gt;Node4 -->
<g id="edge3_Node000001_Node000004" class="edge">
<title>Node1&#45;&gt;Node4</title>
<g id="a_edge3_Node000001_Node000004"><a xlink:title=" ">
<path fill="none" stroke="#63b8ff" d="M577.92,-125.52C589.57,-116.23 602.87,-105.65 613.32,-97.33"/>
<polygon fill="#63b8ff" stroke="#63b8ff" points="575.83,-122.7 570.19,-131.67 580.19,-128.18 575.83,-122.7"/>
</a>
</g>
</g>
<!-- Node5 -->
<g id="Node000005" class="node">
<title>Node5</title>
<g id="a_Node000005"><a xlink:href="ps2kbd_8c.html" target="_top" xlink:title=" ">
<polygon fill="white" stroke="#666666" points="223.62,-30.5 117.62,-30.5 117.62,0 223.62,0 223.62,-30.5"/>
<text text-anchor="start" x="125.62" y="-17" font-family="Helvetica,sans-Serif" font-size="10.00">iop/usb/keyboard/src</text>
<text text-anchor="middle" x="170.62" y="-5.75" font-family="Helvetica,sans-Serif" font-size="10.00">/ps2kbd.c</text>
</a>
</g>
</g>
<!-- Node1&#45;&gt;Node5 -->
<g id="edge4_Node000001_Node000005" class="edge">
<title>Node1&#45;&gt;Node5</title>
<g id="a_edge4_Node000001_Node000005"><a xlink:title=" ">
<path fill="none" stroke="#63b8ff" d="M486.57,-137.25C443.91,-129.34 387.17,-116.34 339.62,-97 315.16,-87.05 312.16,-78.48 288.62,-66.5 262.53,-53.22 232.11,-40.32 208.69,-30.92"/>
<polygon fill="#63b8ff" stroke="#63b8ff" points="485.7,-140.65 496.16,-138.99 486.95,-133.77 485.7,-140.65"/>
</a>
</g>
</g>
<!-- Node6 -->
<g id="Node000006" class="node">
<title>Node6</title>
<g id="a_Node000006"><a xlink:href="iop_2usb_2mouse_2src_2irx__imports_8h_source.html" target="_top" xlink:title=" ">
<polygon fill="white" stroke="#666666" points="812.12,-97 703.12,-97 703.12,-66.5 812.12,-66.5 812.12,-97"/>
<text text-anchor="start" x="711.12" y="-83.5" font-family="Helvetica,sans-Serif" font-size="10.00">iop/usb/mouse/src/irx</text>
<text text-anchor="middle" x="757.62" y="-72.25" font-family="Helvetica,sans-Serif" font-size="10.00">_imports.h</text>
</a>
</g>
</g>
<!-- Node1&#45;&gt;Node6 -->
<g id="edge5_Node000001_Node000006" class="edge">
<title>Node1&#45;&gt;Node6</title>
<g id="a_edge5_Node000001_Node000006"><a xlink:title=" ">
<path fill="none" stroke="#63b8ff" d="M608.48,-129.22C640.7,-119.18 680.3,-106.84 710.6,-97.4"/>
<polygon fill="#63b8ff" stroke="#63b8ff" points="607.81,-125.77 599.3,-132.08 609.89,-132.45 607.81,-125.77"/>
</a>
</g>
</g>
<!-- Node7 -->
<g id="Node000007" class="node">
<title>Node7</title>
<g id="a_Node000007"><a xlink:href="ps2mouse_8c.html" target="_top" xlink:title=" ">
<polygon fill="white" stroke="#666666" points="393.5,-24.88 241.75,-24.88 241.75,-5.63 393.5,-5.63 393.5,-24.88"/>
<text text-anchor="middle" x="317.62" y="-11.38" font-family="Helvetica,sans-Serif" font-size="10.00">iop/usb/mouse/src/ps2mouse.c</text>
</a>
</g>
</g>
<!-- Node1&#45;&gt;Node7 -->
<g id="edge6_Node000001_Node000007" class="edge">
<title>Node1&#45;&gt;Node7</title>
<g id="a_edge6_Node000001_Node000007"><a xlink:title=" ">
<path fill="none" stroke="#63b8ff" d="M486.32,-140.86C449.3,-134.54 403.54,-121.97 369.62,-97 343.85,-78.02 327.49,-42.09 320.92,-25.31"/>
<polygon fill="#63b8ff" stroke="#63b8ff" points="485.59,-144.29 496.01,-142.39 486.68,-137.37 485.59,-144.29"/>
</a>
</g>
</g>
<!-- Node8 -->
<g id="Node000008" class="node">
<title>Node8</title>
<g id="a_Node000008"><a xlink:href="usbd__macro_8h.html" target="_top" xlink:title=" ">
<polygon fill="white" stroke="#666666" points="484.25,-97 379,-97 379,-66.5 484.25,-66.5 484.25,-97"/>
<text text-anchor="start" x="387" y="-83.5" font-family="Helvetica,sans-Serif" font-size="10.00">iop/usb/usbd/include</text>
<text text-anchor="middle" x="431.62" y="-72.25" font-family="Helvetica,sans-Serif" font-size="10.00">/usbd_macro.h</text>
</a>
</g>
</g>
<!-- Node1&#45;&gt;Node8 -->
<g id="edge7_Node000001_Node000008" class="edge">
<title>Node1&#45;&gt;Node8</title>
<g id="a_edge7_Node000001_Node000008"><a xlink:title=" ">
<path fill="none" stroke="#63b8ff" d="M513.55,-127.16C495.74,-117.5 474.78,-106.14 458.52,-97.33"/>
<polygon fill="#63b8ff" stroke="#63b8ff" points="511.83,-130.2 522.29,-131.89 515.17,-124.05 511.83,-130.2"/>
</a>
</g>
</g>
<!-- Node9 -->
<g id="Node000009" class="node">
<title>Node9</title>
<g id="a_Node000009"><a xlink:href="usb__driver_8c_source.html" target="_top" xlink:title=" ">
<polygon fill="white" stroke="#666666" points="518,-30.5 411.25,-30.5 411.25,0 518,0 518,-30.5"/>
<text text-anchor="start" x="419.25" y="-17" font-family="Helvetica,sans-Serif" font-size="10.00">iop/usb/usbhdfsd/src</text>
<text text-anchor="middle" x="464.62" y="-5.75" font-family="Helvetica,sans-Serif" font-size="10.00">/usb_driver.c</text>
</a>
</g>
</g>
<!-- Node1&#45;&gt;Node9 -->
<g id="edge29_Node000001_Node000009" class="edge">
<title>Node1&#45;&gt;Node9</title>
<g id="a_edge29_Node000001_Node000009"><a xlink:title=" ">
<path fill="none" stroke="#63b8ff" d="M534.86,-123.24C517.13,-96.22 488.88,-53.2 474.2,-30.83"/>
<polygon fill="#63b8ff" stroke="#63b8ff" points="531.85,-125.03 540.26,-131.46 537.7,-121.18 531.85,-125.03"/>
</a>
</g>
</g>
<!-- Node10 -->
<g id="Node000010" class="node">
<title>Node10</title>
<g id="a_Node000010"><a xlink:href="usb__mass_8c_source.html" target="_top" xlink:title=" ">
<polygon fill="white" stroke="#666666" points="641.62,-30.5 535.62,-30.5 535.62,0 641.62,0 641.62,-30.5"/>
<text text-anchor="start" x="543.62" y="-17" font-family="Helvetica,sans-Serif" font-size="10.00">iop/usb/usbmass_bd</text>
<text text-anchor="middle" x="588.62" y="-5.75" font-family="Helvetica,sans-Serif" font-size="10.00">/src/usb_mass.c</text>
</a>
</g>
</g>
<!-- Node1&#45;&gt;Node10 -->
<g id="edge31_Node000001_Node000010" class="edge">
<title>Node1&#45;&gt;Node10</title>
<g id="a_edge31_Node000001_Node000010"><a xlink:title=" ">
<path fill="none" stroke="#63b8ff" d="M555.81,-121.38C559.23,-105.42 564.1,-84.61 569.62,-66.5 573.38,-54.19 578.61,-40.55 582.63,-30.59"/>
<polygon fill="#63b8ff" stroke="#63b8ff" points="552.42,-120.52 553.8,-131.03 559.27,-121.95 552.42,-120.52"/>
</a>
</g>
</g>
<!-- Node11 -->
<g id="Node000011" class="node">
<title>Node11</title>
<g id="a_Node000011"><a xlink:href="usbdpriv_8h.html" target="_top" xlink:title=" ">
<polygon fill="white" stroke="#666666" points="1423.25,-91.38 1288,-91.38 1288,-72.12 1423.25,-72.12 1423.25,-91.38"/>
<text text-anchor="middle" x="1355.62" y="-77.88" font-family="Helvetica,sans-Serif" font-size="10.00">iop/usb/usbd/src/usbdpriv.h</text>
</a>
</g>
</g>
<!-- Node1&#45;&gt;Node11 -->
<g id="edge13_Node000001_Node000011" class="edge">
<title>Node1&#45;&gt;Node11</title>
<g id="a_edge13_Node000001_Node000011"><a xlink:title=" ">
<path fill="none" stroke="#63b8ff" d="M614.66,-142.12C764.03,-130.15 1134.42,-100.47 1287.62,-88.2"/>
<polygon fill="#63b8ff" stroke="#63b8ff" points="614.64,-138.61 604.95,-142.9 615.2,-145.59 614.64,-138.61"/>
</a>
</g>
</g>
<!-- Node26 -->
<g id="Node000026" class="node">
<title>Node26</title>
<g id="a_Node000026"><a xlink:href="iop_2usb_2usbhdfsd_2src_2irx__imports_8h_source.html" target="_top" xlink:title=" ">
<polygon fill="white" stroke="#666666" points="1548,-97 1441.25,-97 1441.25,-66.5 1548,-66.5 1548,-97"/>
<text text-anchor="start" x="1449.25" y="-83.5" font-family="Helvetica,sans-Serif" font-size="10.00">iop/usb/usbhdfsd/src</text>
<text text-anchor="middle" x="1494.62" y="-72.25" font-family="Helvetica,sans-Serif" font-size="10.00">/irx_imports.h</text>
</a>
</g>
</g>
<!-- Node1&#45;&gt;Node26 -->
<g id="edge28_Node000001_Node000026" class="edge">
<title>Node1&#45;&gt;Node26</title>
<g id="a_edge28_Node000001_Node000026"><a xlink:title=" ">
<path fill="none" stroke="#63b8ff" d="M615,-147.3C761.13,-146.59 1128.82,-140.25 1432.62,-97 1435.36,-96.61 1438.15,-96.16 1440.96,-95.67"/>
<polygon fill="#63b8ff" stroke="#63b8ff" points="615.12,-143.8 605.14,-147.34 615.15,-150.79 615.12,-143.8"/>
</a>
</g>
</g>
<!-- Node27 -->
<g id="Node000027" class="node">
<title>Node27</title>
<g id="a_Node000027"><a xlink:href="iop_2usb_2usbmass__bd_2src_2irx__imports_8h_source.html" target="_top" xlink:title=" ">
<polygon fill="white" stroke="#666666" points="1671.62,-97 1565.62,-97 1565.62,-66.5 1671.62,-66.5 1671.62,-97"/>
<text text-anchor="start" x="1573.62" y="-83.5" font-family="Helvetica,sans-Serif" font-size="10.00">iop/usb/usbmass_bd</text>
<text text-anchor="middle" x="1618.62" y="-72.25" font-family="Helvetica,sans-Serif" font-size="10.00">/src/irx_imports.h</text>
</a>
</g>
</g>
<!-- Node1&#45;&gt;Node27 -->
<g id="edge30_Node000001_Node000027" class="edge">
<title>Node1&#45;&gt;Node27</title>
<g id="a_edge30_Node000001_Node000027"><a xlink:title=" ">
<path fill="none" stroke="#63b8ff" d="M615.08,-147.95C775.2,-148.83 1203.67,-145.99 1556.62,-97 1559.47,-96.61 1562.38,-96.14 1565.3,-95.63"/>
<polygon fill="#63b8ff" stroke="#63b8ff" points="615.1,-144.45 605.08,-147.88 615.05,-151.45 615.1,-144.45"/>
</a>
</g>
</g>
<!-- Node28 -->
<g id="Node000028" class="node">
<title>Node28</title>
<g id="a_Node000028"><a xlink:href="iop_2usb_2usbmload_2src_2irx__imports_8h_source.html" target="_top" xlink:title=" ">
<polygon fill="white" stroke="#666666" points="2214.12,-97 2105.12,-97 2105.12,-66.5 2214.12,-66.5 2214.12,-97"/>
<text text-anchor="start" x="2113.12" y="-83.5" font-family="Helvetica,sans-Serif" font-size="10.00">iop/usb/usbmload/src</text>
<text text-anchor="middle" x="2159.62" y="-72.25" font-family="Helvetica,sans-Serif" font-size="10.00">/irx_imports.h</text>
</a>
</g>
</g>
<!-- Node1&#45;&gt;Node28 -->
<g id="edge32_Node000001_Node000028" class="edge">
<title>Node1&#45;&gt;Node28</title>
<g id="a_edge32_Node000001_Node000028"><a xlink:title=" ">
<path fill="none" stroke="#63b8ff" d="M614.9,-144.67C876.88,-134.17 1861.69,-94.69 2105.01,-84.94"/>
<polygon fill="#63b8ff" stroke="#63b8ff" points="615.07,-141.16 605.21,-145.06 615.35,-148.16 615.07,-141.16"/>
</a>
</g>
</g>
<!-- Node8&#45;&gt;Node3 -->
<g id="edge8_Node000008_Node000003" class="edge">
<title>Node8&#45;&gt;Node3</title>
<g id="a_edge8_Node000008_Node000003"><a xlink:title=" ">
<path fill="none" stroke="#63b8ff" d="M367.17,-72.32C301.77,-63.39 197.77,-48.17 108.62,-30.5 105.63,-29.91 102.55,-29.26 99.45,-28.59"/>
<polygon fill="#63b8ff" stroke="#63b8ff" points="366.64,-75.78 377.02,-73.66 367.58,-68.84 366.64,-75.78"/>
</a>
</g>
</g>
<!-- Node8&#45;&gt;Node5 -->
<g id="edge9_Node000008_Node000005" class="edge">
<title>Node8&#45;&gt;Node5</title>
<g id="a_edge9_Node000008_Node000005"><a xlink:title=" ">
<path fill="none" stroke="#63b8ff" d="M367.89,-65C323.7,-54.08 265.52,-39.7 223.81,-29.39"/>
<polygon fill="#63b8ff" stroke="#63b8ff" points="366.79,-68.33 377.34,-67.33 368.47,-61.54 366.79,-68.33"/>
</a>
</g>
</g>
<!-- Node8&#45;&gt;Node7 -->
<g id="edge10_Node000008_Node000007" class="edge">
<title>Node8&#45;&gt;Node7</title>
<g id="a_edge10_Node000008_Node000007"><a xlink:title=" ">
<path fill="none" stroke="#63b8ff" d="M395.91,-60.54C375,-48.71 349.63,-34.36 333.55,-25.26"/>
<polygon fill="#63b8ff" stroke="#63b8ff" points="394.01,-63.49 404.44,-65.37 397.46,-57.4 394.01,-63.49"/>
</a>
</g>
</g>
<!-- Node8&#45;&gt;Node9 -->
<g id="edge11_Node000008_Node000009" class="edge">
<title>Node8&#45;&gt;Node9</title>
<g id="a_edge11_Node000008_Node000009"><a xlink:title=" ">
<path fill="none" stroke="#63b8ff" d="M444.32,-55.94C448.66,-47.46 453.37,-38.24 457.17,-30.83"/>
<polygon fill="#63b8ff" stroke="#63b8ff" points="441.24,-54.27 439.8,-64.77 447.47,-57.46 441.24,-54.27"/>
</a>
</g>
</g>
<!-- Node8&#45;&gt;Node10 -->
<g id="edge12_Node000008_Node000010" class="edge">
<title>Node8&#45;&gt;Node10</title>
<g id="a_edge12_Node000008_Node000010"><a xlink:title=" ">
<path fill="none" stroke="#63b8ff" d="M477.88,-61.75C501.83,-51.91 530.64,-40.07 552.87,-30.94"/>
<polygon fill="#63b8ff" stroke="#63b8ff" points="476.57,-58.5 468.65,-65.54 479.23,-64.98 476.57,-58.5"/>
</a>
</g>
</g>
<!-- Node12 -->
<g id="Node000012" class="node">
<title>Node12</title>
<g id="a_Node000012"><a xlink:href="device_8c_source.html" target="_top" xlink:title=" ">
<polygon fill="white" stroke="#666666" points="2079.12,-24.88 1952.12,-24.88 1952.12,-5.63 2079.12,-5.63 2079.12,-24.88"/>
<text text-anchor="middle" x="2015.62" y="-11.38" font-family="Helvetica,sans-Serif" font-size="10.00">iop/usb/usbd/src/device.c</text>
</a>
</g>
</g>
<!-- Node11&#45;&gt;Node12 -->
<g id="edge14_Node000011_Node000012" class="edge">
<title>Node11&#45;&gt;Node12</title>
<g id="a_edge14_Node000011_Node000012"><a xlink:title=" ">
<path fill="none" stroke="#63b8ff" d="M1411.09,-69.72C1418.32,-68.51 1425.63,-67.39 1432.62,-66.5 1658.03,-37.78 1717.36,-60.32 1942.62,-30.5 1952.74,-29.16 1963.56,-27.29 1973.69,-25.35"/>
<polygon fill="#63b8ff" stroke="#63b8ff" points="1410.61,-66.25 1401.36,-71.42 1411.82,-73.14 1410.61,-66.25"/>
</a>
</g>
</g>
<!-- Node13 -->
<g id="Node000013" class="node">
<title>Node13</title>
<g id="a_Node000013"><a xlink:href="device__driver_8c_source.html" target="_top" xlink:title=" ">
<polygon fill="white" stroke="#666666" points="2216.38,-30.5 2096.88,-30.5 2096.88,0 2216.38,0 2216.38,-30.5"/>
<text text-anchor="start" x="2104.88" y="-17" font-family="Helvetica,sans-Serif" font-size="10.00">iop/usb/usbd/src/device</text>
<text text-anchor="middle" x="2156.62" y="-5.75" font-family="Helvetica,sans-Serif" font-size="10.00">_driver.c</text>
</a>
</g>
</g>
<!-- Node11&#45;&gt;Node13 -->
<g id="edge15_Node000011_Node000013" class="edge">
<title>Node11&#45;&gt;Node13</title>
<g id="a_edge15_Node000011_Node000013"><a xlink:title=" ">
<path fill="none" stroke="#63b8ff" d="M1410.54,-69.7C1417.94,-68.47 1425.45,-67.36 1432.62,-66.5 1722.56,-31.86 1799.12,-68.55 2088.62,-30.5 2091.26,-30.15 2093.94,-29.76 2096.64,-29.34"/>
<polygon fill="#63b8ff" stroke="#63b8ff" points="1410.19,-66.21 1400.94,-71.37 1411.4,-73.1 1410.19,-66.21"/>
</a>
</g>
</g>
<!-- Node14 -->
<g id="Node000014" class="node">
<title>Node14</title>
<g id="a_Node000014"><a xlink:href="endpoint_8c_source.html" target="_top" xlink:title=" ">
<polygon fill="white" stroke="#666666" points="2369.25,-24.88 2234,-24.88 2234,-5.63 2369.25,-5.63 2369.25,-24.88"/>
<text text-anchor="middle" x="2301.62" y="-11.38" font-family="Helvetica,sans-Serif" font-size="10.00">iop/usb/usbd/src/endpoint.c</text>
</a>
</g>
</g>
<!-- Node11&#45;&gt;Node14 -->
<g id="edge16_Node000011_Node000014" class="edge">
<title>Node11&#45;&gt;Node14</title>
<g id="a_edge16_Node000011_Node000014"><a xlink:title=" ">
<path fill="none" stroke="#63b8ff" d="M1410.26,-69.68C1417.75,-68.45 1425.36,-67.33 1432.62,-66.5 1783.14,-26.3 1875.16,-71.11 2225.62,-30.5 2236.43,-29.25 2248,-27.36 2258.78,-25.37"/>
<polygon fill="#63b8ff" stroke="#63b8ff" points="1409.78,-66.21 1400.53,-71.38 1410.98,-73.11 1409.78,-66.21"/>
</a>
</g>
</g>
<!-- Node15 -->
<g id="Node000015" class="node">
<title>Node15</title>
<g id="a_Node000015"><a xlink:href="hcd_8c_source.html" target="_top" xlink:title=" ">
<polygon fill="white" stroke="#666666" points="2501.75,-24.88 2387.5,-24.88 2387.5,-5.63 2501.75,-5.63 2501.75,-24.88"/>
<text text-anchor="middle" x="2444.62" y="-11.38" font-family="Helvetica,sans-Serif" font-size="10.00">iop/usb/usbd/src/hcd.c</text>
</a>
</g>
</g>
<!-- Node11&#45;&gt;Node15 -->
<g id="edge17_Node000011_Node000015" class="edge">
<title>Node11&#45;&gt;Node15</title>
<g id="a_edge17_Node000011_Node000015"><a xlink:title=" ">
<path fill="none" stroke="#63b8ff" d="M1409.71,-69.72C1417.37,-68.46 1425.18,-67.33 1432.62,-66.5 1850.81,-20.1 1961.18,-83.1 2378.62,-30.5 2388.28,-29.28 2398.61,-27.36 2408.16,-25.31"/>
<polygon fill="#63b8ff" stroke="#63b8ff" points="1409.37,-66.23 1400.12,-71.39 1410.57,-73.12 1409.37,-66.23"/>
</a>
</g>
</g>
<!-- Node16 -->
<g id="Node000016" class="node">
<title>Node16</title>
<g id="a_Node000016"><a xlink:href="hub_8c_source.html" target="_top" xlink:title=" ">
<polygon fill="white" stroke="#666666" points="773.75,-24.88 659.5,-24.88 659.5,-5.63 773.75,-5.63 773.75,-24.88"/>
<text text-anchor="middle" x="716.62" y="-11.38" font-family="Helvetica,sans-Serif" font-size="10.00">iop/usb/usbd/src/hub.c</text>
</a>
</g>
</g>
<!-- Node11&#45;&gt;Node16 -->
<g id="edge18_Node000011_Node000016" class="edge">
<title>Node11&#45;&gt;Node16</title>
<g id="a_edge18_Node000011_Node000016"><a xlink:title=" ">
<path fill="none" stroke="#63b8ff" d="M1276.11,-76.83C1165.3,-70.68 958.35,-56.66 783.62,-30.5 774.45,-29.13 764.65,-27.27 755.45,-25.35"/>
<polygon fill="#63b8ff" stroke="#63b8ff" points="1275.82,-80.32 1286,-77.38 1276.2,-73.33 1275.82,-80.32"/>
</a>
</g>
</g>
<!-- Node17 -->
<g id="Node000017" class="node">
<title>Node17</title>
<g id="a_Node000017"><a xlink:href="hub__resets_8c_source.html" target="_top" xlink:title=" ">
<polygon fill="white" stroke="#666666" points="899,-30.5 792.25,-30.5 792.25,0 899,0 899,-30.5"/>
<text text-anchor="start" x="800.25" y="-17" font-family="Helvetica,sans-Serif" font-size="10.00">iop/usb/usbd/src/hub</text>
<text text-anchor="middle" x="845.62" y="-5.75" font-family="Helvetica,sans-Serif" font-size="10.00">_resets.c</text>
</a>
</g>
</g>
<!-- Node11&#45;&gt;Node17 -->
<g id="edge19_Node000011_Node000017" class="edge">
<title>Node11&#45;&gt;Node17</title>
<g id="a_edge19_Node000011_Node000017"><a xlink:title=" ">
<path fill="none" stroke="#63b8ff" d="M1276.08,-74.48C1186.41,-66.79 1036.43,-52.07 908.62,-30.5 905.53,-29.98 902.36,-29.4 899.16,-28.78"/>
<polygon fill="#63b8ff" stroke="#63b8ff" points="1275.75,-77.96 1286.01,-75.32 1276.35,-70.99 1275.75,-77.96"/>
</a>
</g>
</g>
<!-- Node18 -->
<g id="Node000018" class="node">
<title>Node18</title>
<g id="a_Node000018"><a xlink:href="io__request_8c_source.html" target="_top" xlink:title=" ">
<polygon fill="white" stroke="#666666" points="1015.88,-30.5 917.38,-30.5 917.38,0 1015.88,0 1015.88,-30.5"/>
<text text-anchor="start" x="925.38" y="-17" font-family="Helvetica,sans-Serif" font-size="10.00">iop/usb/usbd/src/io</text>
<text text-anchor="middle" x="966.62" y="-5.75" font-family="Helvetica,sans-Serif" font-size="10.00">_request.c</text>
</a>
</g>
</g>
<!-- Node11&#45;&gt;Node18 -->
<g id="edge20_Node000011_Node000018" class="edge">
<title>Node11&#45;&gt;Node18</title>
<g id="a_edge20_Node000011_Node000018"><a xlink:title=" ">
<path fill="none" stroke="#63b8ff" d="M1276.45,-70.77C1209.18,-61.81 1110.18,-47.47 1024.62,-30.5 1021.88,-29.96 1019.07,-29.37 1016.23,-28.75"/>
<polygon fill="#63b8ff" stroke="#63b8ff" points="1275.93,-74.24 1286.3,-72.08 1276.84,-67.3 1275.93,-74.24"/>
</a>
</g>
</g>
<!-- Node19 -->
<g id="Node000019" class="node">
<title>Node19</title>
<g id="a_Node000019"><a xlink:href="mem_8c_source.html" target="_top" xlink:title=" ">
<polygon fill="white" stroke="#666666" points="1153.75,-24.88 1033.5,-24.88 1033.5,-5.63 1153.75,-5.63 1153.75,-24.88"/>
<text text-anchor="middle" x="1093.62" y="-11.38" font-family="Helvetica,sans-Serif" font-size="10.00">iop/usb/usbd/src/mem.c</text>
</a>
</g>
</g>
<!-- Node11&#45;&gt;Node19 -->
<g id="edge21_Node000011_Node000019" class="edge">
<title>Node11&#45;&gt;Node19</title>
<g id="a_edge21_Node000011_Node000019"><a xlink:title=" ">
<path fill="none" stroke="#63b8ff" d="M1307.57,-68.92C1256.46,-56.34 1176.75,-36.71 1130.42,-25.31"/>
<polygon fill="#63b8ff" stroke="#63b8ff" points="1306.63,-72.29 1317.17,-71.28 1308.3,-65.49 1306.63,-72.29"/>
</a>
</g>
</g>
<!-- Node20 -->
<g id="Node000020" class="node">
<title>Node20</title>
<g id="a_Node000020"><a xlink:href="report__descriptor__init_8c_source.html" target="_top" xlink:title=" ">
<polygon fill="white" stroke="#666666" points="1287.5,-30.5 1171.75,-30.5 1171.75,0 1287.5,0 1287.5,-30.5"/>
<text text-anchor="start" x="1179.75" y="-17" font-family="Helvetica,sans-Serif" font-size="10.00">iop/usb/usbd/src/report</text>
<text text-anchor="middle" x="1229.62" y="-5.75" font-family="Helvetica,sans-Serif" font-size="10.00">_descriptor_init.c</text>
</a>
</g>
</g>
<!-- Node11&#45;&gt;Node20 -->
<g id="edge22_Node000011_Node000020" class="edge">
<title>Node11&#45;&gt;Node20</title>
<g id="a_edge22_Node000011_Node000020"><a xlink:title=" ">
<path fill="none" stroke="#63b8ff" d="M1327.76,-66.49C1307.03,-55.88 1278.85,-41.45 1258,-30.78"/>
<polygon fill="#63b8ff" stroke="#63b8ff" points="1326,-69.51 1336.49,-70.96 1329.19,-63.28 1326,-69.51"/>
</a>
</g>
</g>
<!-- Node21 -->
<g id="Node000021" class="node">
<title>Node21</title>
<g id="a_Node000021"><a xlink:href="td__queue_8c_source.html" target="_top" xlink:title=" ">
<polygon fill="white" stroke="#666666" points="1405.25,-30.5 1306,-30.5 1306,0 1405.25,0 1405.25,-30.5"/>
<text text-anchor="start" x="1314" y="-17" font-family="Helvetica,sans-Serif" font-size="10.00">iop/usb/usbd/src/td</text>
<text text-anchor="middle" x="1355.62" y="-5.75" font-family="Helvetica,sans-Serif" font-size="10.00">_queue.c</text>
</a>
</g>
</g>
<!-- Node11&#45;&gt;Node21 -->
<g id="edge23_Node000011_Node000021" class="edge">
<title>Node11&#45;&gt;Node21</title>
<g id="a_edge23_Node000011_Node000021"><a xlink:title=" ">
<path fill="none" stroke="#63b8ff" d="M1355.62,-60.37C1355.62,-50.69 1355.62,-39.35 1355.62,-30.59"/>
<polygon fill="#63b8ff" stroke="#63b8ff" points="1352.13,-60.27 1355.63,-70.27 1359.13,-60.27 1352.13,-60.27"/>
</a>
</g>
</g>
<!-- Node22 -->
<g id="Node000022" class="node">
<title>Node22</title>
<g id="a_Node000022"><a xlink:href="iop_2usb_2usbd_2src_2timer_8c_source.html" target="_top" xlink:title=" ">
<polygon fill="white" stroke="#666666" points="1543.75,-24.88 1423.5,-24.88 1423.5,-5.63 1543.75,-5.63 1543.75,-24.88"/>
<text text-anchor="middle" x="1483.62" y="-11.38" font-family="Helvetica,sans-Serif" font-size="10.00">iop/usb/usbd/src/timer.c</text>
</a>
</g>
</g>
<!-- Node11&#45;&gt;Node22 -->
<g id="edge24_Node000011_Node000022" class="edge">
<title>Node11&#45;&gt;Node22</title>
<g id="a_edge24_Node000011_Node000022"><a xlink:title=" ">
<path fill="none" stroke="#63b8ff" d="M1383.65,-66.63C1408.6,-54.06 1444.34,-36.04 1465.65,-25.31"/>
<polygon fill="#63b8ff" stroke="#63b8ff" points="1382.4,-63.34 1375.04,-70.96 1385.55,-69.59 1382.4,-63.34"/>
</a>
</g>
</g>
<!-- Node23 -->
<g id="Node000023" class="node">
<title>Node23</title>
<g id="a_Node000023"><a xlink:href="usbd__api_8c_source.html" target="_top" xlink:title=" ">
<polygon fill="white" stroke="#666666" points="1673.62,-30.5 1561.62,-30.5 1561.62,0 1673.62,0 1673.62,-30.5"/>
<text text-anchor="start" x="1569.62" y="-17" font-family="Helvetica,sans-Serif" font-size="10.00">iop/usb/usbd/src/usbd</text>
<text text-anchor="middle" x="1617.62" y="-5.75" font-family="Helvetica,sans-Serif" font-size="10.00">_api.c</text>
</a>
</g>
</g>
<!-- Node11&#45;&gt;Node23 -->
<g id="edge25_Node000011_Node000023" class="edge">
<title>Node11&#45;&gt;Node23</title>
<g id="a_edge25_Node000011_Node000023"><a xlink:title=" ">
<path fill="none" stroke="#63b8ff" d="M1403.73,-68.91C1448.31,-57.93 1514.63,-41.6 1561.59,-30.04"/>
<polygon fill="#63b8ff" stroke="#63b8ff" points="1402.95,-65.49 1394.08,-71.28 1404.62,-72.29 1402.95,-65.49"/>
</a>
</g>
</g>
<!-- Node24 -->
<g id="Node000024" class="node">
<title>Node24</title>
<g id="a_Node000024"><a xlink:href="usbd__main_8c_source.html" target="_top" xlink:title=" ">
<polygon fill="white" stroke="#666666" points="1803.62,-30.5 1691.62,-30.5 1691.62,0 1803.62,0 1803.62,-30.5"/>
<text text-anchor="start" x="1699.62" y="-17" font-family="Helvetica,sans-Serif" font-size="10.00">iop/usb/usbd/src/usbd</text>
<text text-anchor="middle" x="1747.62" y="-5.75" font-family="Helvetica,sans-Serif" font-size="10.00">_main.c</text>
</a>
</g>
</g>
<!-- Node11&#45;&gt;Node24 -->
<g id="edge26_Node000011_Node000024" class="edge">
<title>Node11&#45;&gt;Node24</title>
<g id="a_edge26_Node000011_Node000024"><a xlink:title=" ">
<path fill="none" stroke="#63b8ff" d="M1414.28,-69.64C1420.47,-68.55 1426.67,-67.48 1432.62,-66.5 1543.39,-48.28 1572.17,-50.53 1682.62,-30.5 1685.47,-29.98 1688.37,-29.43 1691.31,-28.86"/>
<polygon fill="#63b8ff" stroke="#63b8ff" points="1413.93,-66.15 1404.71,-71.37 1415.17,-73.04 1413.93,-66.15"/>
</a>
</g>
</g>
<!-- Node25 -->
<g id="Node000025" class="node">
<title>Node25</title>
<g id="a_Node000025"><a xlink:href="usbd__sys_8c_source.html" target="_top" xlink:title=" ">
<polygon fill="white" stroke="#666666" points="1933.62,-30.5 1821.62,-30.5 1821.62,0 1933.62,0 1933.62,-30.5"/>
<text text-anchor="start" x="1829.62" y="-17" font-family="Helvetica,sans-Serif" font-size="10.00">iop/usb/usbd/src/usbd</text>
<text text-anchor="middle" x="1877.62" y="-5.75" font-family="Helvetica,sans-Serif" font-size="10.00">_sys.c</text>
</a>
</g>
</g>
<!-- Node11&#45;&gt;Node25 -->
<g id="edge27_Node000011_Node000025" class="edge">
<title>Node11&#45;&gt;Node25</title>
<g id="a_edge27_Node000011_Node000025"><a xlink:title=" ">
<path fill="none" stroke="#63b8ff" d="M1412.43,-69.65C1419.22,-68.5 1426.07,-67.42 1432.62,-66.5 1600.64,-43.04 1645.02,-56.71 1812.62,-30.5 1815.48,-30.05 1818.39,-29.56 1821.33,-29.03"/>
<polygon fill="#63b8ff" stroke="#63b8ff" points="1411.85,-66.2 1402.61,-71.38 1413.06,-73.09 1411.85,-66.2"/>
</a>
</g>
</g>
<!-- Node29 -->
<g id="Node000029" class="node">
<title>Node29</title>
<g id="a_Node000029"><a xlink:href="usbmload_8c_source.html" target="_top" xlink:title=" ">
<polygon fill="white" stroke="#666666" points="2629.12,-30.5 2520.12,-30.5 2520.12,0 2629.12,0 2629.12,-30.5"/>
<text text-anchor="start" x="2528.12" y="-17" font-family="Helvetica,sans-Serif" font-size="10.00">iop/usb/usbmload/src</text>
<text text-anchor="middle" x="2574.62" y="-5.75" font-family="Helvetica,sans-Serif" font-size="10.00">/usbmload.c</text>
</a>
</g>
</g>
<!-- Node28&#45;&gt;Node29 -->
<g id="edge33_Node000028_Node000029" class="edge">
<title>Node28&#45;&gt;Node29</title>
<g id="a_edge33_Node000028_Node000029"><a xlink:title=" ">
<path fill="none" stroke="#63b8ff" d="M2225.95,-72.8C2296.71,-63.96 2411.96,-48.52 2510.62,-30.5 2513.65,-29.95 2516.75,-29.35 2519.87,-28.73"/>
<polygon fill="#63b8ff" stroke="#63b8ff" points="2225.55,-69.32 2216.06,-74.03 2226.41,-76.27 2225.55,-69.32"/>
</a>
</g>
</g>
</g>
</svg>

<g id="navigator" transform="translate(0 0)" fill="#404254">
  <rect fill="#f2f5e9" fill-opacity="0.5" stroke="#606060" stroke-width=".5" x="0" y="0" width="60" height="60"/>
  <use id="zoomplus" xlink:href="#zoomPlus" x="17" y="9" onmousedown="handleZoom(evt,'in')"/>
  <use id="zoomminus" xlink:href="#zoomMin" x="42" y="9" onmousedown="handleZoom(evt,'out')"/>
  <use id="reset" xlink:href="#resetDef" x="30" y="36" onmousedown="handleReset()"/>
   <use id="arrowup" xlink:href="#arrowUp" x="0" y="0" onmousedown="handlePan(0,-1)"/>
  <use id="arrowright" xlink:href="#arrowRight" x="0" y="0" onmousedown="handlePan(1,0)"/>
  <use id="arrowdown" xlink:href="#arrowDown" x="0" y="0" onmousedown="handlePan(0,1)"/>
  <use id="arrowleft" xlink:href="#arrowLeft" x="0" y="0" onmousedown="handlePan(-1,0)"/>
</g>
<svg viewBox="0 0 15 15" width="100%" height="30px" preserveAspectRatio="xMaxYMin meet">
 <g id="arrow_out" transform="scale(0.3 0.3)">
  <a xlink:href="usbd_8h__dep__incl_org.svg" target="_base">
   <rect id="button" ry="5" rx="5" y="6" x="6" height="38" width="38"
        fill="#f2f5e9" fill-opacity="0.5" stroke="#606060" stroke-width="1.0"/>
   <path id="arrow"
     d="M 11.500037,31.436501 C 11.940474,20.09759 22.043105,11.32322 32.158766,21.979434 L 37.068811,17.246167 C 37.068811,17.246167 37.088388,32 37.088388,32 L 22.160133,31.978069 C 22.160133,31.978069 26.997745,27.140456 26.997745,27.140456 C 18.528582,18.264221 13.291696,25.230495 11.500037,31.436501 z"
     style="fill:#404040;"/>
  </a>
 </g>
</svg>

<style type='text/css'>
<![CDATA[
[data-mouse-over-selected='false'] { opacity: 0.7; }
[data-mouse-over-selected='true']  { opacity: 1.0; }
]]>
</style>
<script type="application/ecmascript"><![CDATA[
document.addEventListener('DOMContentLoaded', (event) => {
  highlightEdges();
  highlightAdjacentNodes();
});
]]></script>
</svg>
