<?xml version="1.0" encoding="UTF-8" standalone="no"?>
<!DOCTYPE svg PUBLIC "-//W3C//DTD SVG 1.1//EN"
 "http://www.w3.org/Graphics/SVG/1.1/DTD/svg11.dtd">
<!-- Generated by graphviz version 2.43.0 (0)
 -->
<!-- Title: common/include/usbhdfsd&#45;common.h Pages: 1 -->
<!--zoomable 173 -->
<svg id="main" version="1.1" xmlns="http://www.w3.org/2000/svg" xmlns:xlink="http://www.w3.org/1999/xlink" xml:space="preserve" onload="init(evt)">
<style type="text/css"><![CDATA[
.edge:hover path { stroke: red; }
.edge:hover polygon { stroke: red; fill: red; }
]]></style>
<script type="text/javascript"><![CDATA[
var edges = document.getElementsByTagName('g');
if (edges && edges.length) {
  for (var i=0;i<edges.length;i++) {
    if (edges[i].id.substr(0,4)=='edge') {
      edges[i].setAttribute('class','edge');
    }
  }
}
]]></script>
        <defs>
                <circle id="rim" cx="0" cy="0" r="7"/>
                <circle id="rim2" cx="0" cy="0" r="3.5"/>
                <g id="zoomPlus">
                        <use xlink:href="#rim" fill="#404040">
                                <set attributeName="fill" to="#808080" begin="zoomplus.mouseover" end="zoomplus.mouseout"/>
                        </use>
                        <path d="M-4,0h8M0,-4v8" fill="none" stroke="white" stroke-width="1.5" pointer-events="none"/>
                </g>
                <g id="zoomMin">
                        <use xlink:href="#rim" fill="#404040">
                                <set attributeName="fill" to="#808080" begin="zoomminus.mouseover" end="zoomminus.mouseout"/>
                        </use>
                        <path d="M-4,0h8" fill="none" stroke="white" stroke-width="1.5" pointer-events="none"/>
                </g>
                <g id="dirArrow">
                        <path fill="none" stroke="white" stroke-width="1.5" d="M0,-3.0v7 M-2.5,-0.5L0,-3.0L2.5,-0.5"/>
                </g>
               <g id="resetDef">
                       <use xlink:href="#rim2" fill="#404040">
                               <set attributeName="fill" to="#808080" begin="reset.mouseover" end="reset.mouseout"/>
                       </use>
               </g>
        </defs>

<script type="text/javascript">
var viewWidth = 790;
var viewHeight = 173;
var sectionId = 'dynsection-1';
</script>
<script xlink:href="svgpan.js"/>
<svg id="graph" class="graph">
<g id="viewport">
<title>common/include/usbhdfsd&#45;common.h</title>
<polygon fill="white" stroke="transparent" points="-4,4 -4,-169 785.5,-169 785.5,4 -4,4"/>
<!-- Node1 -->
<g id="node1" class="node">
<title>Node1</title>
<g id="a_node1"><a xlink:title=" ">
<polygon fill="#bfbfbf" stroke="black" points="297,-134.5 297,-164.5 442,-164.5 442,-134.5 297,-134.5"/>
<text text-anchor="start" x="305" y="-152.5" font-family="Helvetica,sans-Serif" font-size="10.00">common/include/usbhdfsd</text>
<text text-anchor="middle" x="369.5" y="-141.5" font-family="Helvetica,sans-Serif" font-size="10.00">&#45;common.h</text>
</a>
</g>
</g>
<!-- Node2 -->
<g id="node2" class="node">
<title>Node2</title>
<g id="a_node2"><a xlink:href="bdmfs__fatfs_2src_2fs__driver_8c_source.html" target="_top" xlink:title=" ">
<polygon fill="white" stroke="black" points="0,-67.5 0,-97.5 105,-97.5 105,-67.5 0,-67.5"/>
<text text-anchor="start" x="8" y="-85.5" font-family="Helvetica,sans-Serif" font-size="10.00">iop/fs/bdmfs_fatfs</text>
<text text-anchor="middle" x="52.5" y="-74.5" font-family="Helvetica,sans-Serif" font-size="10.00">/src/fs_driver.c</text>
</a>
</g>
</g>
<!-- Node1&#45;&gt;Node2 -->
<g id="edge1" class="edge">
<title>Node1&#45;&gt;Node2</title>
<path fill="none" stroke="midnightblue" d="M286.95,-133.05C236.71,-123.45 171.29,-110.56 113.5,-98 110.73,-97.4 107.9,-96.77 105.04,-96.13"/>
<polygon fill="midnightblue" stroke="midnightblue" points="286.31,-136.5 296.79,-134.93 287.63,-129.62 286.31,-136.5"/>
</g>
<!-- Node3 -->
<g id="node3" class="node">
<title>Node3</title>
<g id="a_node3"><a xlink:href="bd__defrag_8h.html" target="_top" xlink:title=" ">
<polygon fill="white" stroke="black" points="123,-67.5 123,-97.5 242,-97.5 242,-67.5 123,-67.5"/>
<text text-anchor="start" x="131" y="-85.5" font-family="Helvetica,sans-Serif" font-size="10.00">iop/fs/libbdm/include</text>
<text text-anchor="middle" x="182.5" y="-74.5" font-family="Helvetica,sans-Serif" font-size="10.00">/bd_defrag.h</text>
</a>
</g>
</g>
<!-- Node1&#45;&gt;Node3 -->
<g id="edge2" class="edge">
<title>Node1&#45;&gt;Node3</title>
<path fill="none" stroke="midnightblue" d="M319.42,-131.09C289.23,-120.6 251.28,-107.41 223,-97.58"/>
<polygon fill="midnightblue" stroke="midnightblue" points="318.33,-134.42 328.92,-134.4 320.63,-127.81 318.33,-134.42"/>
</g>
<!-- Node5 -->
<g id="node5" class="node">
<title>Node5</title>
<g id="a_node5"><a xlink:href="vfat_2src_2fs__driver_8c_source.html" target="_top" xlink:title=" ">
<polygon fill="white" stroke="black" points="260,-67.5 260,-97.5 355,-97.5 355,-67.5 260,-67.5"/>
<text text-anchor="start" x="268" y="-85.5" font-family="Helvetica,sans-Serif" font-size="10.00">iop/fs/vfat/src/fs</text>
<text text-anchor="middle" x="307.5" y="-74.5" font-family="Helvetica,sans-Serif" font-size="10.00">_driver.c</text>
</a>
</g>
</g>
<!-- Node1&#45;&gt;Node5 -->
<g id="edge4" class="edge">
<title>Node1&#45;&gt;Node5</title>
<path fill="none" stroke="midnightblue" d="M349.02,-127.02C339.78,-117.34 329.13,-106.17 320.93,-97.58"/>
<polygon fill="midnightblue" stroke="midnightblue" points="346.61,-129.58 356.05,-134.4 351.68,-124.74 346.61,-129.58"/>
</g>
<!-- Node6 -->
<g id="node6" class="node">
<title>Node6</title>
<g id="a_node6"><a xlink:href="_i_e_e_e1394__bd_2src_2sbp2__driver_8c_source.html" target="_top" xlink:title=" ">
<polygon fill="white" stroke="black" points="373,-67.5 373,-97.5 492,-97.5 492,-67.5 373,-67.5"/>
<text text-anchor="start" x="381" y="-85.5" font-family="Helvetica,sans-Serif" font-size="10.00">iop/iLink/IEEE1394</text>
<text text-anchor="middle" x="432.5" y="-74.5" font-family="Helvetica,sans-Serif" font-size="10.00">_bd/src/sbp2_driver.c</text>
</a>
</g>
</g>
<!-- Node1&#45;&gt;Node6 -->
<g id="edge5" class="edge">
<title>Node1&#45;&gt;Node6</title>
<path fill="none" stroke="midnightblue" d="M390.31,-127.02C399.7,-117.34 410.52,-106.17 418.86,-97.58"/>
<polygon fill="midnightblue" stroke="midnightblue" points="387.62,-124.78 383.17,-134.4 392.64,-129.65 387.62,-124.78"/>
</g>
<!-- Node7 -->
<g id="node7" class="node">
<title>Node7</title>
<g id="a_node7"><a xlink:href="usbhdfsd_8h.html" target="_top" xlink:title=" ">
<polygon fill="white" stroke="black" points="510,-67.5 510,-97.5 647,-97.5 647,-67.5 510,-67.5"/>
<text text-anchor="start" x="518" y="-85.5" font-family="Helvetica,sans-Serif" font-size="10.00">iop/usb/usbhdfsd/include</text>
<text text-anchor="middle" x="578.5" y="-74.5" font-family="Helvetica,sans-Serif" font-size="10.00">/usbhdfsd.h</text>
</a>
</g>
</g>
<!-- Node1&#45;&gt;Node7 -->
<g id="edge6" class="edge">
<title>Node1&#45;&gt;Node7</title>
<path fill="none" stroke="midnightblue" d="M424.34,-131.44C458.22,-120.91 501.17,-107.55 533.13,-97.61"/>
<polygon fill="midnightblue" stroke="midnightblue" points="423.1,-128.16 414.59,-134.48 425.18,-134.85 423.1,-128.16"/>
</g>
<!-- Node11 -->
<g id="node11" class="node">
<title>Node11</title>
<g id="a_node11"><a xlink:href="usb__mass_8c_source.html" target="_top" xlink:title=" ">
<polygon fill="white" stroke="black" points="665.5,-67.5 665.5,-97.5 781.5,-97.5 781.5,-67.5 665.5,-67.5"/>
<text text-anchor="start" x="673.5" y="-85.5" font-family="Helvetica,sans-Serif" font-size="10.00">iop/usb/usbmass_bd</text>
<text text-anchor="middle" x="723.5" y="-74.5" font-family="Helvetica,sans-Serif" font-size="10.00">/src/usb_mass.c</text>
</a>
</g>
</g>
<!-- Node1&#45;&gt;Node11 -->
<g id="edge10" class="edge">
<title>Node1&#45;&gt;Node11</title>
<path fill="none" stroke="midnightblue" d="M452.3,-134.81C509.71,-125.1 587.89,-111.46 656.5,-98 659.42,-97.43 662.41,-96.83 665.42,-96.21"/>
<polygon fill="midnightblue" stroke="midnightblue" points="451.46,-131.4 442.19,-136.51 452.63,-138.3 451.46,-131.4"/>
</g>
<!-- Node4 -->
<g id="node4" class="node">
<title>Node4</title>
<g id="a_node4"><a xlink:href="bd__defrag_8c_source.html" target="_top" xlink:title=" ">
<polygon fill="white" stroke="black" points="126,-0.5 126,-30.5 239,-30.5 239,-0.5 126,-0.5"/>
<text text-anchor="start" x="134" y="-18.5" font-family="Helvetica,sans-Serif" font-size="10.00">iop/fs/libbdm/src/bd</text>
<text text-anchor="middle" x="182.5" y="-7.5" font-family="Helvetica,sans-Serif" font-size="10.00">_defrag.c</text>
</a>
</g>
</g>
<!-- Node3&#45;&gt;Node4 -->
<g id="edge3" class="edge">
<title>Node3&#45;&gt;Node4</title>
<path fill="none" stroke="midnightblue" d="M182.5,-57.11C182.5,-48.15 182.5,-38.32 182.5,-30.58"/>
<polygon fill="midnightblue" stroke="midnightblue" points="179,-57.4 182.5,-67.4 186,-57.4 179,-57.4"/>
</g>
<!-- Node8 -->
<g id="node8" class="node">
<title>Node8</title>
<g id="a_node8"><a xlink:href="api_8c_source.html" target="_top" xlink:title=" ">
<polygon fill="white" stroke="black" points="386.5,-0.5 386.5,-30.5 502.5,-30.5 502.5,-0.5 386.5,-0.5"/>
<text text-anchor="start" x="394.5" y="-18.5" font-family="Helvetica,sans-Serif" font-size="10.00">iop/usb/usbhdfsd/src</text>
<text text-anchor="middle" x="444.5" y="-7.5" font-family="Helvetica,sans-Serif" font-size="10.00">/api.c</text>
</a>
</g>
</g>
<!-- Node7&#45;&gt;Node8 -->
<g id="edge7" class="edge">
<title>Node7&#45;&gt;Node8</title>
<path fill="none" stroke="midnightblue" d="M540.35,-62.99C519.11,-52.69 493.09,-40.07 473.52,-30.58"/>
<polygon fill="midnightblue" stroke="midnightblue" points="538.9,-66.18 549.42,-67.4 541.95,-59.88 538.9,-66.18"/>
</g>
<!-- Node9 -->
<g id="node9" class="node">
<title>Node9</title>
<g id="a_node9"><a xlink:href="usb__driver_8c_source.html" target="_top" xlink:title=" ">
<polygon fill="white" stroke="black" points="520.5,-0.5 520.5,-30.5 636.5,-30.5 636.5,-0.5 520.5,-0.5"/>
<text text-anchor="start" x="528.5" y="-18.5" font-family="Helvetica,sans-Serif" font-size="10.00">iop/usb/usbhdfsd/src</text>
<text text-anchor="middle" x="578.5" y="-7.5" font-family="Helvetica,sans-Serif" font-size="10.00">/usb_driver.c</text>
</a>
</g>
</g>
<!-- Node7&#45;&gt;Node9 -->
<g id="edge8" class="edge">
<title>Node7&#45;&gt;Node9</title>
<path fill="none" stroke="midnightblue" d="M578.5,-57.11C578.5,-48.15 578.5,-38.32 578.5,-30.58"/>
<polygon fill="midnightblue" stroke="midnightblue" points="575,-57.4 578.5,-67.4 582,-57.4 575,-57.4"/>
</g>
<!-- Node10 -->
<g id="node10" class="node">
<title>Node10</title>
<g id="a_node10"><a xlink:href="usbhdfsd_8c_source.html" target="_top" xlink:title=" ">
<polygon fill="white" stroke="black" points="654.5,-0.5 654.5,-30.5 770.5,-30.5 770.5,-0.5 654.5,-0.5"/>
<text text-anchor="start" x="662.5" y="-18.5" font-family="Helvetica,sans-Serif" font-size="10.00">iop/usb/usbhdfsd/src</text>
<text text-anchor="middle" x="712.5" y="-7.5" font-family="Helvetica,sans-Serif" font-size="10.00">/usbhdfsd.c</text>
</a>
</g>
</g>
<!-- Node7&#45;&gt;Node10 -->
<g id="edge9" class="edge">
<title>Node7&#45;&gt;Node10</title>
<path fill="none" stroke="midnightblue" d="M616.65,-62.99C637.89,-52.69 663.91,-40.07 683.48,-30.58"/>
<polygon fill="midnightblue" stroke="midnightblue" points="615.05,-59.88 607.58,-67.4 618.1,-66.18 615.05,-59.88"/>
</g>
</g>
</svg>
        <g id="navigator" transform="translate(0 0)" fill="#404254">
                <rect fill="#f2f5e9" fill-opacity="0.5" stroke="#606060" stroke-width=".5" x="0" y="0" width="60" height="60"/>
                <use id="zoomplus" xlink:href="#zoomPlus" x="17" y="9" onmousedown="handleZoom(evt,'in')"/>
                <use id="zoomminus" xlink:href="#zoomMin" x="42" y="9" onmousedown="handleZoom(evt,'out')"/>
                <use id="reset" xlink:href="#resetDef" x="30" y="36" onmousedown="handleReset()"/>
                <g id="arrowUp" xlink:href="#dirArrow" transform="translate(30 24)" onmousedown="handlePan(0,-1)">
                  <use xlink:href="#rim" fill="#404040">
                        <set attributeName="fill" to="#808080" begin="arrowUp.mouseover" end="arrowUp.mouseout"/>
                  </use>
                  <path fill="none" stroke="white" stroke-width="1.5" d="M0,-3.0v7 M-2.5,-0.5L0,-3.0L2.5,-0.5"/>
                </g>
                <g id="arrowRight" xlink:href="#dirArrow" transform="rotate(90) translate(36 -43)" onmousedown="handlePan(1,0)">
                  <use xlink:href="#rim" fill="#404040">
                        <set attributeName="fill" to="#808080" begin="arrowRight.mouseover" end="arrowRight.mouseout"/>
                  </use>
                  <path fill="none" stroke="white" stroke-width="1.5" d="M0,-3.0v7 M-2.5,-0.5L0,-3.0L2.5,-0.5"/>
                </g>
                <g id="arrowDown" xlink:href="#dirArrow" transform="rotate(180) translate(-30 -48)" onmousedown="handlePan(0,1)">
                  <use xlink:href="#rim" fill="#404040">
                        <set attributeName="fill" to="#808080" begin="arrowDown.mouseover" end="arrowDown.mouseout"/>
                  </use>
                  <path fill="none" stroke="white" stroke-width="1.5" d="M0,-3.0v7 M-2.5,-0.5L0,-3.0L2.5,-0.5"/>
                </g>
                <g id="arrowLeft" xlink:href="#dirArrow" transform="rotate(270) translate(-36 17)" onmousedown="handlePan(-1,0)">
                  <use xlink:href="#rim" fill="#404040">
                        <set attributeName="fill" to="#808080" begin="arrowLeft.mouseover" end="arrowLeft.mouseout"/>
                  </use>
                  <path fill="none" stroke="white" stroke-width="1.5" d="M0,-3.0v7 M-2.5,-0.5L0,-3.0L2.5,-0.5"/>
                </g>
        </g>
        <svg viewBox="0 0 15 15" width="100%" height="30px" preserveAspectRatio="xMaxYMin meet">
         <g id="arrow_out" transform="scale(0.3 0.3)">
          <a xlink:href="usbhdfsd-common_8h__dep__incl_org.svg" target="_base">
           <rect id="button" ry="5" rx="5" y="6" x="6" height="38" width="38"
                fill="#f2f5e9" fill-opacity="0.5" stroke="#606060" stroke-width="1.0"/>
           <path id="arrow"
             d="M 11.500037,31.436501 C 11.940474,20.09759 22.043105,11.32322 32.158766,21.979434 L 37.068811,17.246167 C 37.068811,17.246167 37.088388,32 37.088388,32 L 22.160133,31.978069 C 22.160133,31.978069 26.997745,27.140456 26.997745,27.140456 C 18.528582,18.264221 13.291696,25.230495 11.500037,31.436501 z"
             style="fill:#404040;"/>
          </a>
         </g>
        </svg>
</svg>
