<?xml version="1.0" encoding="UTF-8" standalone="no"?>
<!DOCTYPE svg PUBLIC "-//W3C//DTD SVG 1.1//EN"
 "http://www.w3.org/Graphics/SVG/1.1/DTD/svg11.dtd">
<!-- Generated by graphviz version 12.2.0 (20241103.1931)
 -->
<!-- Title: iop/system/vblank/include/vblank.h Pages: 1 -->
<svg width="142pt" height="204pt"
 viewBox="0.00 0.00 141.88 204.25" xmlns="http://www.w3.org/2000/svg" xmlns:xlink="http://www.w3.org/1999/xlink">
<g id="graph0" class="graph" transform="scale(1 1) rotate(0) translate(4 200.25)">
<title>iop/system/vblank/include/vblank.h</title>
<!-- Node1 -->
<g id="Node000001" class="node">
<title>Node1</title>
<g id="a_Node000001"><a xlink:title=" ">
<polygon fill="#999999" stroke="#666666" points="128.5,-196.25 0,-196.25 0,-165.75 128.5,-165.75 128.5,-196.25"/>
<text text-anchor="start" x="8" y="-182.75" font-family="Helvetica,sans-Serif" font-size="10.00">iop/system/vblank/include</text>
<text text-anchor="middle" x="64.25" y="-171.5" font-family="Helvetica,sans-Serif" font-size="10.00">/vblank.h</text>
</a>
</g>
</g>
<!-- Node2 -->
<g id="Node000002" class="node">
<title>Node2</title>
<g id="a_Node000002"><a xlink:href="irx_8h.html" target="_top" xlink:title=" ">
<polygon fill="white" stroke="#666666" points="80.88,-129.75 47.62,-129.75 47.62,-110.5 80.88,-110.5 80.88,-129.75"/>
<text text-anchor="middle" x="64.25" y="-116.25" font-family="Helvetica,sans-Serif" font-size="10.00">irx.h</text>
</a>
</g>
</g>
<!-- Node1&#45;&gt;Node2 -->
<g id="edge1_Node000001_Node000002" class="edge">
<title>Node1&#45;&gt;Node2</title>
<g id="a_edge1_Node000001_Node000002"><a xlink:title=" ">
<path fill="none" stroke="#63b8ff" d="M64.25,-165.45C64.25,-158.21 64.25,-149.34 64.25,-141.44"/>
<polygon fill="#63b8ff" stroke="#63b8ff" points="67.75,-141.71 64.25,-131.71 60.75,-141.71 67.75,-141.71"/>
</a>
</g>
</g>
<!-- Node3 -->
<g id="Node000003" class="node">
<title>Node3</title>
<g id="a_Node000003"><a xlink:href="iop_2kernel_2include_2types_8h_source.html" target="_top" xlink:title=" ">
<polygon fill="white" stroke="#666666" points="87.62,-74.5 40.88,-74.5 40.88,-55.25 87.62,-55.25 87.62,-74.5"/>
<text text-anchor="middle" x="64.25" y="-61" font-family="Helvetica,sans-Serif" font-size="10.00">types.h</text>
</a>
</g>
</g>
<!-- Node2&#45;&gt;Node3 -->
<g id="edge2_Node000002_Node000003" class="edge">
<title>Node2&#45;&gt;Node3</title>
<g id="a_edge2_Node000002_Node000003"><a xlink:title=" ">
<path fill="none" stroke="#63b8ff" d="M64.25,-110.33C64.25,-103.82 64.25,-94.67 64.25,-86.37"/>
<polygon fill="#63b8ff" stroke="#63b8ff" points="67.75,-86.37 64.25,-76.37 60.75,-86.37 67.75,-86.37"/>
</a>
</g>
</g>
<!-- Node4 -->
<g id="Node000004" class="node">
<title>Node4</title>
<g id="a_Node000004"><a xlink:title=" ">
<polygon fill="#e0e0e0" stroke="#999999" points="52.5,-19.25 2,-19.25 2,0 52.5,0 52.5,-19.25"/>
<text text-anchor="middle" x="27.25" y="-5.75" font-family="Helvetica,sans-Serif" font-size="10.00">stddef.h</text>
</a>
</g>
</g>
<!-- Node3&#45;&gt;Node4 -->
<g id="edge3_Node000003_Node000004" class="edge">
<title>Node3&#45;&gt;Node4</title>
<g id="a_edge3_Node000003_Node000004"><a xlink:title=" ">
<path fill="none" stroke="#63b8ff" d="M58.14,-55.08C53.19,-47.96 46.05,-37.68 39.88,-28.8"/>
<polygon fill="#63b8ff" stroke="#63b8ff" points="42.94,-27.07 34.36,-20.85 37.19,-31.06 42.94,-27.07"/>
</a>
</g>
</g>
<!-- Node5 -->
<g id="Node000005" class="node">
<title>Node5</title>
<g id="a_Node000005"><a xlink:href="tamtypes_8h.html" target="_top" xlink:title=" ">
<polygon fill="white" stroke="#666666" points="133.88,-19.25 70.62,-19.25 70.62,0 133.88,0 133.88,-19.25"/>
<text text-anchor="middle" x="102.25" y="-5.75" font-family="Helvetica,sans-Serif" font-size="10.00">tamtypes.h</text>
</a>
</g>
</g>
<!-- Node3&#45;&gt;Node5 -->
<g id="edge4_Node000003_Node000005" class="edge">
<title>Node3&#45;&gt;Node5</title>
<g id="a_edge4_Node000003_Node000005"><a xlink:title=" ">
<path fill="none" stroke="#63b8ff" d="M70.52,-55.08C75.61,-47.96 82.95,-37.68 89.28,-28.8"/>
<polygon fill="#63b8ff" stroke="#63b8ff" points="92,-31.01 94.96,-20.84 86.3,-26.95 92,-31.01"/>
</a>
</g>
</g>
</g>
</svg>
