<?xml version="1.0" encoding="UTF-8" standalone="no"?>
<!DOCTYPE svg PUBLIC "-//W3C//DTD SVG 1.1//EN"
 "http://www.w3.org/Graphics/SVG/1.1/DTD/svg11.dtd">
<!-- Generated by graphviz version 2.43.0 (0)
 -->
<!-- Title: iop/system/vblank/include/vblank.h Pages: 1 -->
<svg width="158pt" height="207pt"
 viewBox="0.00 0.00 157.50 207.00" xmlns="http://www.w3.org/2000/svg" xmlns:xlink="http://www.w3.org/1999/xlink">
<g id="graph0" class="graph" transform="scale(1 1) rotate(0) translate(4 203)">
<title>iop/system/vblank/include/vblank.h</title>
<polygon fill="white" stroke="transparent" points="-4,4 -4,-203 153.5,-203 153.5,4 -4,4"/>
<!-- Node1 -->
<g id="node1" class="node">
<title>Node1</title>
<g id="a_node1"><a xlink:title=" ">
<polygon fill="#bfbfbf" stroke="black" points="0,-168.5 0,-198.5 145,-198.5 145,-168.5 0,-168.5"/>
<text text-anchor="start" x="8" y="-186.5" font-family="Helvetica,sans-Serif" font-size="10.00">iop/system/vblank/include</text>
<text text-anchor="middle" x="72.5" y="-175.5" font-family="Helvetica,sans-Serif" font-size="10.00">/vblank.h</text>
</a>
</g>
</g>
<!-- Node2 -->
<g id="node2" class="node">
<title>Node2</title>
<g id="a_node2"><a xlink:href="irx_8h.html" target="_top" xlink:title=" ">
<polygon fill="white" stroke="black" points="53.5,-112.5 53.5,-131.5 91.5,-131.5 91.5,-112.5 53.5,-112.5"/>
<text text-anchor="middle" x="72.5" y="-119.5" font-family="Helvetica,sans-Serif" font-size="10.00">irx.h</text>
</a>
</g>
</g>
<!-- Node1&#45;&gt;Node2 -->
<g id="edge1" class="edge">
<title>Node1&#45;&gt;Node2</title>
<path fill="none" stroke="midnightblue" d="M72.5,-168.4C72.5,-160.47 72.5,-150.46 72.5,-141.86"/>
<polygon fill="midnightblue" stroke="midnightblue" points="76,-141.66 72.5,-131.66 69,-141.66 76,-141.66"/>
</g>
<!-- Node3 -->
<g id="node3" class="node">
<title>Node3</title>
<g id="a_node3"><a xlink:href="iop_2kernel_2include_2types_8h_source.html" target="_top" xlink:title=" ">
<polygon fill="white" stroke="black" points="46,-56.5 46,-75.5 99,-75.5 99,-56.5 46,-56.5"/>
<text text-anchor="middle" x="72.5" y="-63.5" font-family="Helvetica,sans-Serif" font-size="10.00">types.h</text>
</a>
</g>
</g>
<!-- Node2&#45;&gt;Node3 -->
<g id="edge2" class="edge">
<title>Node2&#45;&gt;Node3</title>
<path fill="none" stroke="midnightblue" d="M72.5,-112.08C72.5,-105.01 72.5,-94.86 72.5,-85.99"/>
<polygon fill="midnightblue" stroke="midnightblue" points="76,-85.75 72.5,-75.75 69,-85.75 76,-85.75"/>
</g>
<!-- Node4 -->
<g id="node4" class="node">
<title>Node4</title>
<g id="a_node4"><a xlink:title=" ">
<polygon fill="white" stroke="#bfbfbf" points="3.5,-0.5 3.5,-19.5 59.5,-19.5 59.5,-0.5 3.5,-0.5"/>
<text text-anchor="middle" x="31.5" y="-7.5" font-family="Helvetica,sans-Serif" font-size="10.00">stddef.h</text>
</a>
</g>
</g>
<!-- Node3&#45;&gt;Node4 -->
<g id="edge3" class="edge">
<title>Node3&#45;&gt;Node4</title>
<path fill="none" stroke="midnightblue" d="M65.73,-56.08C59.94,-48.46 51.44,-37.26 44.36,-27.94"/>
<polygon fill="midnightblue" stroke="midnightblue" points="46.98,-25.6 38.14,-19.75 41.4,-29.83 46.98,-25.6"/>
</g>
<!-- Node5 -->
<g id="node5" class="node">
<title>Node5</title>
<g id="a_node5"><a xlink:href="tamtypes_8h.html" target="_top" xlink:title=" ">
<polygon fill="white" stroke="black" points="77.5,-0.5 77.5,-19.5 149.5,-19.5 149.5,-0.5 77.5,-0.5"/>
<text text-anchor="middle" x="113.5" y="-7.5" font-family="Helvetica,sans-Serif" font-size="10.00">tamtypes.h</text>
</a>
</g>
</g>
<!-- Node3&#45;&gt;Node5 -->
<g id="edge4" class="edge">
<title>Node3&#45;&gt;Node5</title>
<path fill="none" stroke="midnightblue" d="M79.27,-56.08C85.06,-48.46 93.56,-37.26 100.64,-27.94"/>
<polygon fill="midnightblue" stroke="midnightblue" points="103.6,-29.83 106.86,-19.75 98.02,-25.6 103.6,-29.83"/>
</g>
</g>
</svg>
