<?xml version="1.0" encoding="UTF-8" standalone="no"?>
<!DOCTYPE svg PUBLIC "-//W3C//DTD SVG 1.1//EN"
 "http://www.w3.org/Graphics/SVG/1.1/DTD/svg11.dtd">
<!-- Generated by graphviz version 2.44.0 ()
 -->
<!-- Title: iop/sound/libsd/src/voice.c Pages: 1 -->
<svg width="317pt" height="263pt"
 viewBox="0.00 0.00 316.50 263.00" xmlns="http://www.w3.org/2000/svg" xmlns:xlink="http://www.w3.org/1999/xlink">
<g id="graph0" class="graph" transform="scale(1 1) rotate(0) translate(4 259)">
<title>iop/sound/libsd/src/voice.c</title>
<polygon fill="white" stroke="transparent" points="-4,4 -4,-259 312.5,-259 312.5,4 -4,4"/>
<!-- Node1 -->
<g id="node1" class="node">
<title>Node1</title>
<g id="a_node1"><a xlink:title=" ">
<polygon fill="#bfbfbf" stroke="black" points="81.5,-224.5 81.5,-254.5 179.5,-254.5 179.5,-224.5 81.5,-224.5"/>
<text text-anchor="start" x="89.5" y="-242.5" font-family="Helvetica,sans-Serif" font-size="10.00">iop/sound/libsd/src</text>
<text text-anchor="middle" x="130.5" y="-231.5" font-family="Helvetica,sans-Serif" font-size="10.00">/voice.c</text>
</a>
</g>
</g>
<!-- Node2 -->
<g id="node2" class="node">
<title>Node2</title>
<g id="a_node2"><a xlink:title=" ">
<polygon fill="white" stroke="#bfbfbf" points="0,-168.5 0,-187.5 47,-187.5 47,-168.5 0,-168.5"/>
<text text-anchor="middle" x="23.5" y="-175.5" font-family="Helvetica,sans-Serif" font-size="10.00">types.h</text>
</a>
</g>
</g>
<!-- Node1&#45;&gt;Node2 -->
<g id="edge1" class="edge">
<title>Node1&#45;&gt;Node2</title>
<path fill="none" stroke="midnightblue" d="M105.14,-224.4C87.83,-214.77 65.02,-202.09 47.92,-192.58"/>
<polygon fill="midnightblue" stroke="midnightblue" points="49.51,-189.46 39.07,-187.66 46.11,-195.58 49.51,-189.46"/>
</g>
<!-- Node3 -->
<g id="node3" class="node">
<title>Node3</title>
<g id="a_node3"><a xlink:href="irx_8h.html" target="_top" xlink:title=" ">
<polygon fill="white" stroke="black" points="68.5,-112.5 68.5,-131.5 102.5,-131.5 102.5,-112.5 68.5,-112.5"/>
<text text-anchor="middle" x="85.5" y="-119.5" font-family="Helvetica,sans-Serif" font-size="10.00">irx.h</text>
</a>
</g>
</g>
<!-- Node1&#45;&gt;Node3 -->
<g id="edge2" class="edge">
<title>Node1&#45;&gt;Node3</title>
<path fill="none" stroke="midnightblue" d="M118.18,-224.5C110.41,-214.89 100.87,-201.48 95.5,-188 89.61,-173.23 87.17,-155.31 86.17,-142.02"/>
<polygon fill="midnightblue" stroke="midnightblue" points="89.65,-141.53 85.61,-131.74 82.66,-141.91 89.65,-141.53"/>
</g>
<!-- Node7 -->
<g id="node7" class="node">
<title>Node7</title>
<g id="a_node7"><a xlink:href="sifman_8h.html" target="_top" xlink:title=" ">
<polygon fill="white" stroke="black" points="104,-168.5 104,-187.5 157,-187.5 157,-168.5 104,-168.5"/>
<text text-anchor="middle" x="130.5" y="-175.5" font-family="Helvetica,sans-Serif" font-size="10.00">sifman.h</text>
</a>
</g>
</g>
<!-- Node1&#45;&gt;Node7 -->
<g id="edge6" class="edge">
<title>Node1&#45;&gt;Node7</title>
<path fill="none" stroke="midnightblue" d="M130.5,-224.4C130.5,-216.47 130.5,-206.46 130.5,-197.86"/>
<polygon fill="midnightblue" stroke="midnightblue" points="134,-197.66 130.5,-187.66 127,-197.66 134,-197.66"/>
</g>
<!-- Node8 -->
<g id="node8" class="node">
<title>Node8</title>
<g id="a_node8"><a xlink:title=" ">
<polygon fill="white" stroke="#bfbfbf" points="175,-168.5 175,-187.5 226,-187.5 226,-168.5 175,-168.5"/>
<text text-anchor="middle" x="200.5" y="-175.5" font-family="Helvetica,sans-Serif" font-size="10.00">freesd.h</text>
</a>
</g>
</g>
<!-- Node1&#45;&gt;Node8 -->
<g id="edge9" class="edge">
<title>Node1&#45;&gt;Node8</title>
<path fill="none" stroke="midnightblue" d="M147.09,-224.4C157.79,-215.31 171.69,-203.49 182.63,-194.19"/>
<polygon fill="midnightblue" stroke="midnightblue" points="184.96,-196.8 190.31,-187.66 180.43,-191.47 184.96,-196.8"/>
</g>
<!-- Node9 -->
<g id="node9" class="node">
<title>Node9</title>
<g id="a_node9"><a xlink:href="spu2regs_8h.html" target="_top" xlink:title=" ">
<polygon fill="white" stroke="black" points="244.5,-168.5 244.5,-187.5 308.5,-187.5 308.5,-168.5 244.5,-168.5"/>
<text text-anchor="middle" x="276.5" y="-175.5" font-family="Helvetica,sans-Serif" font-size="10.00">spu2regs.h</text>
</a>
</g>
</g>
<!-- Node1&#45;&gt;Node9 -->
<g id="edge10" class="edge">
<title>Node1&#45;&gt;Node9</title>
<path fill="none" stroke="midnightblue" d="M165.1,-224.4C189.6,-214.42 222.16,-201.15 245.75,-191.53"/>
<polygon fill="midnightblue" stroke="midnightblue" points="247.32,-194.67 255.26,-187.66 244.67,-188.19 247.32,-194.67"/>
</g>
<!-- Node4 -->
<g id="node4" class="node">
<title>Node4</title>
<g id="a_node4"><a xlink:href="types_8h_source.html" target="_top" xlink:title=" ">
<polygon fill="white" stroke="black" points="84,-56.5 84,-75.5 131,-75.5 131,-56.5 84,-56.5"/>
<text text-anchor="middle" x="107.5" y="-63.5" font-family="Helvetica,sans-Serif" font-size="10.00">types.h</text>
</a>
</g>
</g>
<!-- Node3&#45;&gt;Node4 -->
<g id="edge3" class="edge">
<title>Node3&#45;&gt;Node4</title>
<path fill="none" stroke="midnightblue" d="M89.13,-112.08C92.11,-104.77 96.43,-94.18 100.12,-85.1"/>
<polygon fill="midnightblue" stroke="midnightblue" points="103.4,-86.33 103.93,-75.75 96.92,-83.69 103.4,-86.33"/>
</g>
<!-- Node5 -->
<g id="node5" class="node">
<title>Node5</title>
<g id="a_node5"><a xlink:title=" ">
<polygon fill="white" stroke="#bfbfbf" points="44,-0.5 44,-19.5 95,-19.5 95,-0.5 44,-0.5"/>
<text text-anchor="middle" x="69.5" y="-7.5" font-family="Helvetica,sans-Serif" font-size="10.00">stddef.h</text>
</a>
</g>
</g>
<!-- Node4&#45;&gt;Node5 -->
<g id="edge4" class="edge">
<title>Node4&#45;&gt;Node5</title>
<path fill="none" stroke="midnightblue" d="M101.23,-56.08C95.86,-48.46 87.98,-37.26 81.42,-27.94"/>
<polygon fill="midnightblue" stroke="midnightblue" points="84.28,-25.91 75.66,-19.75 78.55,-29.94 84.28,-25.91"/>
</g>
<!-- Node6 -->
<g id="node6" class="node">
<title>Node6</title>
<g id="a_node6"><a xlink:href="tamtypes_8h.html" target="_top" xlink:title=" ">
<polygon fill="white" stroke="black" points="113.5,-0.5 113.5,-19.5 177.5,-19.5 177.5,-0.5 113.5,-0.5"/>
<text text-anchor="middle" x="145.5" y="-7.5" font-family="Helvetica,sans-Serif" font-size="10.00">tamtypes.h</text>
</a>
</g>
</g>
<!-- Node4&#45;&gt;Node6 -->
<g id="edge5" class="edge">
<title>Node4&#45;&gt;Node6</title>
<path fill="none" stroke="midnightblue" d="M113.77,-56.08C119.14,-48.46 127.02,-37.26 133.58,-27.94"/>
<polygon fill="midnightblue" stroke="midnightblue" points="136.45,-29.94 139.34,-19.75 130.72,-25.91 136.45,-29.94"/>
</g>
<!-- Node7&#45;&gt;Node3 -->
<g id="edge8" class="edge">
<title>Node7&#45;&gt;Node3</title>
<path fill="none" stroke="midnightblue" d="M123.07,-168.08C116.65,-160.38 107.19,-149.03 99.38,-139.65"/>
<polygon fill="midnightblue" stroke="midnightblue" points="101.88,-137.19 92.79,-131.75 96.51,-141.67 101.88,-137.19"/>
</g>
<!-- Node7&#45;&gt;Node4 -->
<g id="edge7" class="edge">
<title>Node7&#45;&gt;Node4</title>
<path fill="none" stroke="midnightblue" d="M128.7,-168.37C124.98,-150.62 116.42,-109.67 111.39,-85.6"/>
<polygon fill="midnightblue" stroke="midnightblue" points="114.77,-84.66 109.3,-75.59 107.92,-86.1 114.77,-84.66"/>
</g>
</g>
</svg>
