<?xml version="1.0" encoding="UTF-8" standalone="no"?>
<!DOCTYPE svg PUBLIC "-//W3C//DTD SVG 1.1//EN"
 "http://www.w3.org/Graphics/SVG/1.1/DTD/svg11.dtd">
<!-- Generated by graphviz version 9.0.0 (20230911.1827)
 -->
<!-- Title: iop/sound/libsd/src/voice.c Pages: 1 -->
<svg width="313pt" height="260pt"
 viewBox="0.00 0.00 313.00 259.50" xmlns="http://www.w3.org/2000/svg" xmlns:xlink="http://www.w3.org/1999/xlink">

<svg id="main" version="1.1" xmlns="http://www.w3.org/2000/svg" xmlns:xlink="http://www.w3.org/1999/xlink" xml:space="preserve" onload="init(evt)">
<style type="text/css"><![CDATA[
.node, .edge {opacity: 0.7;}
.node.selected, .edge.selected {opacity: 1;}
.edge:hover path { stroke: red; }
.edge:hover polygon { stroke: red; fill: red; }
]]></style>
<script type="application/ecmascript" xlink:href="svg.min.js"/>
<svg id="graph" class="graph">
<g id="graph0" class="graph" transform="scale(1 1) rotate(0) translate(4 255.5)">
<title>iop/sound/libsd/src/voice.c</title>
<!-- Node1 -->
<g id="Node000001" class="node">
<title>Node1</title>
<g id="a_Node000001"><a xlink:title=" ">
<polygon fill="#999999" stroke="#666666" points="177.25,-251.5 79.5,-251.5 79.5,-221 177.25,-221 177.25,-251.5"/>
<text text-anchor="start" x="87.5" y="-238" font-family="Helvetica,sans-Serif" font-size="10.00">iop/sound/libsd/src</text>
<text text-anchor="middle" x="128.38" y="-226.75" font-family="Helvetica,sans-Serif" font-size="10.00">/voice.c</text>
</a>
</g>
</g>
<!-- Node2 -->
<g id="Node000002" class="node">
<title>Node2</title>
<g id="a_Node000002"><a xlink:title=" ">
<polygon fill="#e0e0e0" stroke="#999999" points="46.75,-185 0,-185 0,-165.75 46.75,-165.75 46.75,-185"/>
<text text-anchor="middle" x="23.38" y="-171.5" font-family="Helvetica,sans-Serif" font-size="10.00">types.h</text>
</a>
</g>
</g>
<!-- Node1&#45;&gt;Node2 -->
<g id="edge1_Node000001_Node000002" class="edge">
<title>Node1&#45;&gt;Node2</title>
<g id="a_edge1_Node000001_Node000002"><a xlink:title=" ">
<path fill="none" stroke="#63b8ff" d="M102.15,-220.55C86.01,-211.49 65.4,-199.94 49.31,-190.91"/>
<polygon fill="#63b8ff" stroke="#63b8ff" points="51.23,-187.98 40.8,-186.14 47.81,-194.09 51.23,-187.98"/>
</a>
</g>
</g>
<!-- Node3 -->
<g id="Node000003" class="node">
<title>Node3</title>
<g id="a_Node000003"><a xlink:href="irx_8h.html" target="_top" xlink:title=" ">
<polygon fill="white" stroke="#666666" points="100,-129.75 66.75,-129.75 66.75,-110.5 100,-110.5 100,-129.75"/>
<text text-anchor="middle" x="83.38" y="-116.25" font-family="Helvetica,sans-Serif" font-size="10.00">irx.h</text>
</a>
</g>
</g>
<!-- Node1&#45;&gt;Node3 -->
<g id="edge2_Node000001_Node000003" class="edge">
<title>Node1&#45;&gt;Node3</title>
<g id="a_edge2_Node000001_Node000003"><a xlink:title=" ">
<path fill="none" stroke="#63b8ff" d="M115.72,-220.9C108.02,-211.37 98.68,-198.22 93.38,-185 87.79,-171.09 85.31,-154.32 84.22,-141.45"/>
<polygon fill="#63b8ff" stroke="#63b8ff" points="87.72,-141.41 83.61,-131.65 80.73,-141.84 87.72,-141.41"/>
</a>
</g>
</g>
<!-- Node7 -->
<g id="Node000007" class="node">
<title>Node7</title>
<g id="a_Node000007"><a xlink:href="sifman_8h.html" target="_top" xlink:title=" ">
<polygon fill="white" stroke="#666666" points="154.75,-185 102,-185 102,-165.75 154.75,-165.75 154.75,-185"/>
<text text-anchor="middle" x="128.38" y="-171.5" font-family="Helvetica,sans-Serif" font-size="10.00">sifman.h</text>
</a>
</g>
</g>
<!-- Node1&#45;&gt;Node7 -->
<g id="edge6_Node000001_Node000007" class="edge">
<title>Node1&#45;&gt;Node7</title>
<g id="a_edge6_Node000001_Node000007"><a xlink:title=" ">
<path fill="none" stroke="#63b8ff" d="M128.38,-220.7C128.38,-213.46 128.38,-204.59 128.38,-196.69"/>
<polygon fill="#63b8ff" stroke="#63b8ff" points="131.88,-196.96 128.38,-186.96 124.88,-196.96 131.88,-196.96"/>
</a>
</g>
</g>
<!-- Node8 -->
<g id="Node000008" class="node">
<title>Node8</title>
<g id="a_Node000008"><a xlink:title=" ">
<polygon fill="#e0e0e0" stroke="#999999" points="223.62,-185 173.12,-185 173.12,-165.75 223.62,-165.75 223.62,-185"/>
<text text-anchor="middle" x="198.38" y="-171.5" font-family="Helvetica,sans-Serif" font-size="10.00">freesd.h</text>
</a>
</g>
</g>
<!-- Node1&#45;&gt;Node8 -->
<g id="edge9_Node000001_Node000008" class="edge">
<title>Node1&#45;&gt;Node8</title>
<g id="a_edge9_Node000001_Node000008"><a xlink:title=" ">
<path fill="none" stroke="#63b8ff" d="M145.68,-220.7C155.72,-212.25 168.4,-201.58 178.81,-192.83"/>
<polygon fill="#63b8ff" stroke="#63b8ff" points="181.03,-195.54 186.43,-186.43 176.52,-190.18 181.03,-195.54"/>
</a>
</g>
</g>
<!-- Node9 -->
<g id="Node000009" class="node">
<title>Node9</title>
<g id="a_Node000009"><a xlink:href="spu2regs_8h.html" target="_top" xlink:title=" ">
<polygon fill="white" stroke="#666666" points="305,-185 241.75,-185 241.75,-165.75 305,-165.75 305,-185"/>
<text text-anchor="middle" x="273.38" y="-171.5" font-family="Helvetica,sans-Serif" font-size="10.00">spu2regs.h</text>
</a>
</g>
</g>
<!-- Node1&#45;&gt;Node9 -->
<g id="edge10_Node000001_Node000009" class="edge">
<title>Node1&#45;&gt;Node9</title>
<g id="a_edge10_Node000001_Node000009"><a xlink:title=" ">
<path fill="none" stroke="#63b8ff" d="M164.59,-220.55C187.95,-211.06 218.07,-198.83 240.7,-189.64"/>
<polygon fill="#63b8ff" stroke="#63b8ff" points="241.79,-192.98 249.74,-185.97 239.15,-186.49 241.79,-192.98"/>
</a>
</g>
</g>
<!-- Node4 -->
<g id="Node000004" class="node">
<title>Node4</title>
<g id="a_Node000004"><a xlink:href="iop_2kernel_2include_2types_8h_source.html" target="_top" xlink:title=" ">
<polygon fill="white" stroke="#666666" points="128.75,-74.5 82,-74.5 82,-55.25 128.75,-55.25 128.75,-74.5"/>
<text text-anchor="middle" x="105.38" y="-61" font-family="Helvetica,sans-Serif" font-size="10.00">types.h</text>
</a>
</g>
</g>
<!-- Node3&#45;&gt;Node4 -->
<g id="edge3_Node000003_Node000004" class="edge">
<title>Node3&#45;&gt;Node4</title>
<g id="a_edge3_Node000003_Node000004"><a xlink:title=" ">
<path fill="none" stroke="#63b8ff" d="M87.01,-110.33C89.79,-103.59 93.75,-94.02 97.27,-85.49"/>
<polygon fill="#63b8ff" stroke="#63b8ff" points="100.5,-86.84 101.09,-76.26 94.03,-84.16 100.5,-86.84"/>
</a>
</g>
</g>
<!-- Node5 -->
<g id="Node000005" class="node">
<title>Node5</title>
<g id="a_Node000005"><a xlink:title=" ">
<polygon fill="#e0e0e0" stroke="#999999" points="93.62,-19.25 43.12,-19.25 43.12,0 93.62,0 93.62,-19.25"/>
<text text-anchor="middle" x="68.38" y="-5.75" font-family="Helvetica,sans-Serif" font-size="10.00">stddef.h</text>
</a>
</g>
</g>
<!-- Node4&#45;&gt;Node5 -->
<g id="edge4_Node000004_Node000005" class="edge">
<title>Node4&#45;&gt;Node5</title>
<g id="a_edge4_Node000004_Node000005"><a xlink:title=" ">
<path fill="none" stroke="#63b8ff" d="M99.27,-55.08C94.31,-47.96 87.17,-37.68 81,-28.8"/>
<polygon fill="#63b8ff" stroke="#63b8ff" points="84.06,-27.07 75.48,-20.85 78.31,-31.06 84.06,-27.07"/>
</a>
</g>
</g>
<!-- Node6 -->
<g id="Node000006" class="node">
<title>Node6</title>
<g id="a_Node000006"><a xlink:href="tamtypes_8h.html" target="_top" xlink:title=" ">
<polygon fill="white" stroke="#666666" points="175,-19.25 111.75,-19.25 111.75,0 175,0 175,-19.25"/>
<text text-anchor="middle" x="143.38" y="-5.75" font-family="Helvetica,sans-Serif" font-size="10.00">tamtypes.h</text>
</a>
</g>
</g>
<!-- Node4&#45;&gt;Node6 -->
<g id="edge5_Node000004_Node000006" class="edge">
<title>Node4&#45;&gt;Node6</title>
<g id="a_edge5_Node000004_Node000006"><a xlink:title=" ">
<path fill="none" stroke="#63b8ff" d="M111.65,-55.08C116.73,-47.96 124.07,-37.68 130.41,-28.8"/>
<polygon fill="#63b8ff" stroke="#63b8ff" points="133.12,-31.01 136.08,-20.84 127.43,-26.95 133.12,-31.01"/>
</a>
</g>
</g>
<!-- Node7&#45;&gt;Node3 -->
<g id="edge8_Node000007_Node000003" class="edge">
<title>Node7&#45;&gt;Node3</title>
<g id="a_edge8_Node000007_Node000003"><a xlink:title=" ">
<path fill="none" stroke="#63b8ff" d="M120.94,-165.58C114.79,-158.3 105.86,-147.73 98.25,-138.73"/>
<polygon fill="#63b8ff" stroke="#63b8ff" points="101.07,-136.64 91.94,-131.27 95.73,-141.16 101.07,-136.64"/>
</a>
</g>
</g>
<!-- Node7&#45;&gt;Node4 -->
<g id="edge7_Node000007_Node000004" class="edge">
<title>Node7&#45;&gt;Node4</title>
<g id="a_edge7_Node000007_Node000004"><a xlink:title=" ">
<path fill="none" stroke="#63b8ff" d="M126.49,-165.5C122.84,-148.25 114.69,-109.83 109.65,-86.06"/>
<polygon fill="#63b8ff" stroke="#63b8ff" points="113.09,-85.41 107.6,-76.36 106.25,-86.87 113.09,-85.41"/>
</a>
</g>
</g>
</g>
</svg>
</svg>

<style type='text/css'>
<![CDATA[
[data-mouse-over-selected='false'] { opacity: 0.7; }
[data-mouse-over-selected='true']  { opacity: 1.0; }
]]>
</style>
<script type="application/ecmascript"><![CDATA[
document.addEventListener('DOMContentLoaded', (event) => {
  highlightEdges();
  highlightAdjacentNodes();
});
]]></script>
</svg>
