<?xml version="1.0" encoding="UTF-8" standalone="no"?>
<!DOCTYPE svg PUBLIC "-//W3C//DTD SVG 1.1//EN"
 "http://www.w3.org/Graphics/SVG/1.1/DTD/svg11.dtd">
<!-- Generated by graphviz version 9.0.0 (20230911.1827)
 -->
<!-- Title: iop/kernel/include/xmodload.h Pages: 1 -->
<svg width="283pt" height="172pt"
 viewBox="0.00 0.00 282.62 171.50" xmlns="http://www.w3.org/2000/svg" xmlns:xlink="http://www.w3.org/1999/xlink">
<g id="graph0" class="graph" transform="scale(1 1) rotate(0) translate(4 167.5)">
<title>iop/kernel/include/xmodload.h</title>
<!-- Node1 -->
<g id="Node000001" class="node">
<title>Node1</title>
<g id="a_Node000001"><a xlink:title=" ">
<polygon fill="#999999" stroke="#666666" points="210,-163.5 118.25,-163.5 118.25,-133 210,-133 210,-163.5"/>
<text text-anchor="start" x="126.25" y="-150" font-family="Helvetica,sans-Serif" font-size="10.00">iop/kernel/include</text>
<text text-anchor="middle" x="164.12" y="-138.75" font-family="Helvetica,sans-Serif" font-size="10.00">/xmodload.h</text>
</a>
</g>
</g>
<!-- Node2 -->
<g id="Node000002" class="node">
<title>Node2</title>
<g id="a_Node000002"><a xlink:href="iop_2system_2loadfile_2src_2irx__imports_8h_source.html" target="_top" xlink:title=" ">
<polygon fill="white" stroke="#666666" points="153.25,-97 57,-97 57,-66.5 153.25,-66.5 153.25,-97"/>
<text text-anchor="start" x="65" y="-83.5" font-family="Helvetica,sans-Serif" font-size="10.00">iop/system/loadfile</text>
<text text-anchor="middle" x="105.12" y="-72.25" font-family="Helvetica,sans-Serif" font-size="10.00">/src/irx_imports.h</text>
</a>
</g>
</g>
<!-- Node1&#45;&gt;Node2 -->
<g id="edge1_Node000001_Node000002" class="edge">
<title>Node1&#45;&gt;Node2</title>
<g id="a_edge1_Node000001_Node000002"><a xlink:title=" ">
<path fill="none" stroke="#63b8ff" d="M142.98,-124.13C134.8,-115.19 125.69,-105.24 118.46,-97.33"/>
<polygon fill="#63b8ff" stroke="#63b8ff" points="140.38,-126.48 149.72,-131.5 145.55,-121.76 140.38,-126.48"/>
</a>
</g>
</g>
<!-- Node5 -->
<g id="Node000005" class="node">
<title>Node5</title>
<g id="a_Node000005"><a xlink:href="modload_8c_source.html" target="_top" xlink:title=" ">
<polygon fill="white" stroke="#666666" points="274.62,-97 171.62,-97 171.62,-66.5 274.62,-66.5 274.62,-97"/>
<text text-anchor="start" x="179.62" y="-83.5" font-family="Helvetica,sans-Serif" font-size="10.00">iop/system/modload</text>
<text text-anchor="middle" x="223.12" y="-72.25" font-family="Helvetica,sans-Serif" font-size="10.00">/src/modload.c</text>
</a>
</g>
</g>
<!-- Node1&#45;&gt;Node5 -->
<g id="edge4_Node000001_Node000005" class="edge">
<title>Node1&#45;&gt;Node5</title>
<g id="a_edge4_Node000001_Node000005"><a xlink:title=" ">
<path fill="none" stroke="#63b8ff" d="M185.27,-124.13C193.45,-115.19 202.56,-105.24 209.79,-97.33"/>
<polygon fill="#63b8ff" stroke="#63b8ff" points="182.7,-121.76 178.53,-131.5 187.87,-126.48 182.7,-121.76"/>
</a>
</g>
</g>
<!-- Node3 -->
<g id="Node000003" class="node">
<title>Node3</title>
<g id="a_Node000003"><a xlink:href="eeelfloader_8c_source.html" target="_top" xlink:title=" ">
<polygon fill="white" stroke="#666666" points="96.25,-30.5 0,-30.5 0,0 96.25,0 96.25,-30.5"/>
<text text-anchor="start" x="8" y="-17" font-family="Helvetica,sans-Serif" font-size="10.00">iop/system/loadfile</text>
<text text-anchor="middle" x="48.12" y="-5.75" font-family="Helvetica,sans-Serif" font-size="10.00">/src/eeelfloader.c</text>
</a>
</g>
</g>
<!-- Node2&#45;&gt;Node3 -->
<g id="edge2_Node000002_Node000003" class="edge">
<title>Node2&#45;&gt;Node3</title>
<g id="a_edge2_Node000002_Node000003"><a xlink:title=" ">
<path fill="none" stroke="#63b8ff" d="M84.69,-57.63C76.79,-48.69 68,-38.74 61.01,-30.83"/>
<polygon fill="#63b8ff" stroke="#63b8ff" points="81.94,-59.8 91.19,-64.98 87.19,-55.17 81.94,-59.8"/>
</a>
</g>
</g>
<!-- Node4 -->
<g id="Node000004" class="node">
<title>Node4</title>
<g id="a_Node000004"><a xlink:href="iop_2system_2loadfile_2src_2loadfile_8c_source.html" target="_top" xlink:title=" ">
<polygon fill="white" stroke="#666666" points="210.25,-30.5 114,-30.5 114,0 210.25,0 210.25,-30.5"/>
<text text-anchor="start" x="122" y="-17" font-family="Helvetica,sans-Serif" font-size="10.00">iop/system/loadfile</text>
<text text-anchor="middle" x="162.12" y="-5.75" font-family="Helvetica,sans-Serif" font-size="10.00">/src/loadfile.c</text>
</a>
</g>
</g>
<!-- Node2&#45;&gt;Node4 -->
<g id="edge3_Node000002_Node000004" class="edge">
<title>Node2&#45;&gt;Node4</title>
<g id="a_edge3_Node000002_Node000004"><a xlink:title=" ">
<path fill="none" stroke="#63b8ff" d="M125.56,-57.63C133.46,-48.69 142.25,-38.74 149.24,-30.83"/>
<polygon fill="#63b8ff" stroke="#63b8ff" points="123.06,-55.17 119.06,-64.98 128.31,-59.8 123.06,-55.17"/>
</a>
</g>
</g>
</g>
</svg>
